<?xml version="1.0" encoding="utf-8"?>
<!-- Generator: Adobe Illustrator 22.0.0, SVG Export Plug-In . SVG Version: 6.00 Build 0)  -->
<svg version="1.1" id="Layer_1" xmlns="http://www.w3.org/2000/svg" xmlns:xlink="http://www.w3.org/1999/xlink" x="0px" y="0px"
	 viewBox="0 0 500 336" style="enable-background:new 0 0 500 336;" xml:space="preserve">
<style type="text/css">
	.st0{fill:#00295A;}
	.st1{fill:#00245B;}
	.st2{fill:#4E5594;}
	.st3{fill:#5565FB;}
</style>
<g>
	<path class="st0" d="M499.8,249.9H3.7c-2.1,0-3.7-1.7-3.7-3.7V0.2C0,0.1,0.1,0,0.2,0s0.2,0.1,0.2,0.2v245.9c0,1.8,1.5,3.3,3.3,3.3
		h496.1c0.1,0,0.2,0.1,0.2,0.2C500,249.8,499.9,249.9,499.8,249.9L499.8,249.9z M476.5,35.8c0-0.2,0.2-0.4,0.4-0.4
		c0.3,0,0.4,0.2,0.4,0.4s-0.2,0.4-0.4,0.4C476.6,36.3,476.5,36,476.5,35.8z M472.4,35.8c0-0.2,0.2-0.4,0.4-0.4
		c0.3,0,0.4,0.2,0.4,0.4s-0.2,0.4-0.4,0.4C472.6,36.3,472.4,36,472.4,35.8z M468.4,35.8c0-0.2,0.2-0.4,0.4-0.4s0.4,0.2,0.4,0.4
		s-0.2,0.4-0.4,0.4C468.6,36.3,468.4,36,468.4,35.8z M464.4,35.8c0-0.2,0.2-0.4,0.4-0.4c0.3,0,0.4,0.2,0.4,0.4s-0.2,0.4-0.4,0.4
		C464.5,36.3,464.4,36,464.4,35.8z M460.3,35.8c0-0.2,0.2-0.4,0.4-0.4c0.2,0,0.4,0.2,0.4,0.4s-0.2,0.4-0.4,0.4
		C460.5,36.3,460.3,36,460.3,35.8z M456.3,35.8c0-0.2,0.2-0.4,0.4-0.4s0.4,0.2,0.4,0.4s-0.2,0.4-0.4,0.4
		C456.5,36.3,456.3,36,456.3,35.8z M452.3,35.8c0-0.2,0.2-0.4,0.4-0.4s0.4,0.2,0.4,0.4s-0.2,0.4-0.4,0.4
		C452.5,36.3,452.3,36,452.3,35.8z M448.3,35.8c0-0.2,0.2-0.4,0.4-0.4s0.4,0.2,0.4,0.4s-0.2,0.4-0.4,0.4
		C448.4,36.3,448.3,36,448.3,35.8z M444.2,35.8c0-0.2,0.2-0.4,0.4-0.4c0.3,0,0.4,0.2,0.4,0.4s-0.2,0.4-0.4,0.4
		C444.4,36.3,444.2,36,444.2,35.8z M440.2,35.8c0-0.2,0.2-0.4,0.4-0.4c0.2,0,0.4,0.2,0.4,0.4s-0.2,0.4-0.4,0.4
		C440.4,36.3,440.2,36,440.2,35.8z M436.2,35.8c0-0.2,0.2-0.4,0.4-0.4s0.4,0.2,0.4,0.4s-0.2,0.4-0.4,0.4
		C436.3,36.3,436.2,36,436.2,35.8z M432.1,35.8c0-0.2,0.2-0.4,0.4-0.4c0.3,0,0.4,0.2,0.4,0.4s-0.2,0.4-0.4,0.4
		C432.3,36.3,432.1,36,432.1,35.8z M428.1,35.8c0-0.2,0.2-0.4,0.4-0.4c0.2,0,0.4,0.2,0.4,0.4s-0.2,0.4-0.4,0.4
		C428.3,36.3,428.1,36,428.1,35.8z M424.1,35.8c0-0.2,0.2-0.4,0.4-0.4c0.3,0,0.4,0.2,0.4,0.4s-0.2,0.4-0.4,0.4
		C424.3,36.3,424.1,36,424.1,35.8z M420.1,35.8c0-0.2,0.2-0.4,0.4-0.4s0.4,0.2,0.4,0.4s-0.2,0.4-0.4,0.4S420.1,36,420.1,35.8z
		 M416,35.8c0-0.2,0.2-0.4,0.4-0.4s0.4,0.2,0.4,0.4s-0.2,0.4-0.4,0.4C416.2,36.3,416,36,416,35.8z M412,35.8c0-0.2,0.2-0.4,0.4-0.4
		c0.3,0,0.4,0.2,0.4,0.4s-0.2,0.4-0.4,0.4C412.2,36.3,412,36,412,35.8z M408,35.8c0-0.2,0.2-0.4,0.4-0.4s0.4,0.2,0.4,0.4
		s-0.2,0.4-0.4,0.4C408.1,36.3,408,36,408,35.8z M403.9,35.8c0-0.2,0.2-0.4,0.4-0.4c0.3,0,0.4,0.2,0.4,0.4s-0.2,0.4-0.4,0.4
		C404.1,36.3,403.9,36,403.9,35.8z M399.9,35.8c0-0.2,0.2-0.4,0.4-0.4c0.3,0,0.4,0.2,0.4,0.4s-0.2,0.4-0.4,0.4
		C400.1,36.3,399.9,36,399.9,35.8z M395.9,35.8c0-0.2,0.2-0.4,0.4-0.4c0.2,0,0.4,0.2,0.4,0.4s-0.2,0.4-0.4,0.4
		C396.1,36.3,395.9,36,395.9,35.8z M391.9,35.8c0-0.2,0.2-0.4,0.4-0.4c0.3,0,0.4,0.2,0.4,0.4s-0.2,0.4-0.4,0.4
		C392,36.3,391.9,36,391.9,35.8z M387.8,35.8c0-0.2,0.2-0.4,0.4-0.4s0.4,0.2,0.4,0.4s-0.2,0.4-0.4,0.4S387.8,36,387.8,35.8z
		 M383.8,35.8c0-0.2,0.2-0.4,0.4-0.4c0.3,0,0.4,0.2,0.4,0.4s-0.2,0.4-0.4,0.4C384,36.3,383.8,36,383.8,35.8z M379.8,35.8
		c0-0.2,0.2-0.4,0.4-0.4c0.3,0,0.4,0.2,0.4,0.4s-0.2,0.4-0.4,0.4C379.9,36.3,379.8,36,379.8,35.8z M375.7,35.8
		c0-0.2,0.2-0.4,0.4-0.4s0.4,0.2,0.4,0.4s-0.2,0.4-0.4,0.4C375.9,36.3,375.7,36,375.7,35.8z M371.7,35.8c0-0.2,0.2-0.4,0.4-0.4
		s0.4,0.2,0.4,0.4s-0.2,0.4-0.4,0.4C371.9,36.3,371.7,36,371.7,35.8z M367.7,35.8c0-0.2,0.2-0.4,0.4-0.4s0.4,0.2,0.4,0.4
		s-0.2,0.4-0.4,0.4C367.9,36.3,367.7,36,367.7,35.8z M363.7,35.8c0-0.2,0.2-0.4,0.4-0.4c0.3,0,0.4,0.2,0.4,0.4s-0.2,0.4-0.4,0.4
		C363.8,36.3,363.7,36,363.7,35.8z M359.6,35.8c0-0.2,0.2-0.4,0.4-0.4c0.3,0,0.4,0.2,0.4,0.4s-0.2,0.4-0.4,0.4
		C359.8,36.3,359.6,36,359.6,35.8z M355.6,35.8c0-0.2,0.2-0.4,0.4-0.4s0.4,0.2,0.4,0.4s-0.2,0.4-0.4,0.4S355.6,36,355.6,35.8z
		 M351.6,35.8c0-0.2,0.2-0.4,0.4-0.4c0.3,0,0.4,0.2,0.4,0.4s-0.2,0.4-0.4,0.4C351.7,36.3,351.6,36,351.6,35.8z M347.5,35.8
		c0-0.2,0.2-0.4,0.4-0.4c0.2,0,0.4,0.2,0.4,0.4s-0.2,0.4-0.4,0.4C347.7,36.3,347.5,36,347.5,35.8z M343.5,35.8
		c0-0.2,0.2-0.4,0.4-0.4c0.3,0,0.4,0.2,0.4,0.4s-0.2,0.4-0.4,0.4C343.7,36.3,343.5,36,343.5,35.8z M339.5,35.8
		c0-0.2,0.2-0.4,0.4-0.4s0.4,0.2,0.4,0.4s-0.2,0.4-0.4,0.4S339.5,36,339.5,35.8z M335.5,35.8c0-0.2,0.2-0.4,0.4-0.4s0.4,0.2,0.4,0.4
		s-0.2,0.4-0.4,0.4C335.6,36.3,335.5,36,335.5,35.8z M331.4,35.8c0-0.2,0.2-0.4,0.4-0.4c0.3,0,0.4,0.2,0.4,0.4s-0.2,0.4-0.4,0.4
		C331.6,36.3,331.4,36,331.4,35.8z M327.4,35.8c0-0.2,0.2-0.4,0.4-0.4s0.4,0.2,0.4,0.4s-0.2,0.4-0.4,0.4
		C327.6,36.3,327.4,36,327.4,35.8z M323.4,35.8c0-0.2,0.2-0.4,0.4-0.4c0.3,0,0.4,0.2,0.4,0.4s-0.2,0.4-0.4,0.4
		C323.5,36.3,323.4,36,323.4,35.8z M319.3,35.8c0-0.2,0.2-0.4,0.4-0.4c0.3,0,0.4,0.2,0.4,0.4s-0.2,0.4-0.4,0.4
		C319.5,36.3,319.3,36,319.3,35.8z M315.3,35.8c0-0.2,0.2-0.4,0.4-0.4c0.2,0,0.4,0.2,0.4,0.4s-0.2,0.4-0.4,0.4
		C315.5,36.3,315.3,36,315.3,35.8z M311.3,35.8c0-0.2,0.2-0.4,0.4-0.4c0.2,0,0.4,0.2,0.4,0.4s-0.2,0.4-0.4,0.4
		C311.5,36.3,311.3,36,311.3,35.8z M307.3,35.8c0-0.2,0.2-0.4,0.4-0.4c0.2,0,0.4,0.2,0.4,0.4s-0.2,0.4-0.4,0.4
		C307.4,36.3,307.3,36,307.3,35.8z M303.2,35.8c0-0.2,0.2-0.4,0.4-0.4s0.4,0.2,0.4,0.4s-0.2,0.4-0.4,0.4
		C303.4,36.3,303.2,36,303.2,35.8z M299.2,35.8c0-0.2,0.2-0.4,0.4-0.4c0.3,0,0.4,0.2,0.4,0.4s-0.2,0.4-0.4,0.4
		C299.4,36.3,299.2,36,299.2,35.8z M295.2,35.8c0-0.2,0.2-0.4,0.4-0.4c0.2,0,0.4,0.2,0.4,0.4s-0.2,0.4-0.4,0.4
		C295.3,36.3,295.2,36,295.2,35.8z M291.1,35.8c0-0.2,0.2-0.4,0.4-0.4c0.2,0,0.4,0.2,0.4,0.4s-0.2,0.4-0.4,0.4
		C291.3,36.3,291.1,36,291.1,35.8z M287.1,35.8c0-0.2,0.2-0.4,0.4-0.4c0.2,0,0.4,0.2,0.4,0.4s-0.2,0.4-0.4,0.4
		C287.3,36.3,287.1,36,287.1,35.8z M283.1,35.8c0-0.2,0.2-0.4,0.4-0.4s0.4,0.2,0.4,0.4s-0.2,0.4-0.4,0.4
		C283.3,36.3,283.1,36,283.1,35.8z M279.1,35.8c0-0.2,0.2-0.4,0.4-0.4c0.3,0,0.4,0.2,0.4,0.4s-0.2,0.4-0.4,0.4
		C279.2,36.3,279.1,36,279.1,35.8z M275,35.8c0-0.2,0.2-0.4,0.4-0.4c0.2,0,0.4,0.2,0.4,0.4s-0.2,0.4-0.4,0.4S275,36,275,35.8z
		 M271,35.8c0-0.2,0.2-0.4,0.4-0.4c0.2,0,0.4,0.2,0.4,0.4s-0.2,0.4-0.4,0.4C271.2,36.3,271,36,271,35.8z M267,35.8
		c0-0.2,0.2-0.4,0.4-0.4c0.2,0,0.4,0.2,0.4,0.4s-0.2,0.4-0.4,0.4C267.1,36.3,267,36,267,35.8z M262.9,35.8c0-0.2,0.2-0.4,0.4-0.4
		s0.4,0.2,0.4,0.4s-0.2,0.4-0.4,0.4C263.1,36.3,262.9,36,262.9,35.8z M258.9,35.8c0-0.2,0.2-0.4,0.4-0.4s0.4,0.2,0.4,0.4
		s-0.2,0.4-0.4,0.4C259.1,36.3,258.9,36,258.9,35.8z M254.9,35.8c0-0.2,0.2-0.4,0.4-0.4c0.2,0,0.4,0.2,0.4,0.4s-0.2,0.4-0.4,0.4
		C255.1,36.3,254.9,36,254.9,35.8z M250.9,35.8c0-0.2,0.2-0.4,0.4-0.4c0.2,0,0.4,0.2,0.4,0.4s-0.2,0.4-0.4,0.4
		C251,36.3,250.9,36,250.9,35.8z M246.8,35.8c0-0.2,0.2-0.4,0.4-0.4c0.2,0,0.4,0.2,0.4,0.4s-0.2,0.4-0.4,0.4
		C247,36.3,246.8,36,246.8,35.8z M242.8,35.8c0-0.2,0.2-0.4,0.4-0.4s0.4,0.2,0.4,0.4s-0.2,0.4-0.4,0.4C243,36.3,242.8,36,242.8,35.8
		z M238.8,35.8c0-0.2,0.2-0.4,0.4-0.4c0.3,0,0.4,0.2,0.4,0.4s-0.2,0.4-0.4,0.4C238.9,36.3,238.8,36,238.8,35.8z M234.7,35.8
		c0-0.2,0.2-0.4,0.4-0.4c0.2,0,0.4,0.2,0.4,0.4s-0.2,0.4-0.4,0.4S234.7,36,234.7,35.8z M230.7,35.8c0-0.2,0.2-0.4,0.4-0.4
		c0.2,0,0.4,0.2,0.4,0.4s-0.2,0.4-0.4,0.4C230.9,36.3,230.7,36,230.7,35.8z M226.7,35.8c0-0.2,0.2-0.4,0.4-0.4
		c0.2,0,0.4,0.2,0.4,0.4s-0.2,0.4-0.4,0.4C226.9,36.3,226.7,36,226.7,35.8z M222.7,35.8c0-0.2,0.2-0.4,0.4-0.4s0.4,0.2,0.4,0.4
		s-0.2,0.4-0.4,0.4C222.8,36.3,222.7,36,222.7,35.8z M218.6,35.8c0-0.2,0.2-0.4,0.4-0.4c0.3,0,0.4,0.2,0.4,0.4s-0.2,0.4-0.4,0.4
		C218.8,36.3,218.6,36,218.6,35.8z M214.6,35.8c0-0.2,0.2-0.4,0.4-0.4c0.2,0,0.4,0.2,0.4,0.4s-0.2,0.4-0.4,0.4
		C214.8,36.3,214.6,36,214.6,35.8z M210.6,35.8c0-0.2,0.2-0.4,0.4-0.4c0.2,0,0.4,0.2,0.4,0.4s-0.2,0.4-0.4,0.4
		C210.7,36.3,210.6,36,210.6,35.8z M206.5,35.8c0-0.2,0.2-0.4,0.4-0.4c0.2,0,0.4,0.2,0.4,0.4s-0.2,0.4-0.4,0.4
		C206.7,36.3,206.5,36,206.5,35.8z M202.5,35.8c0-0.2,0.2-0.4,0.4-0.4s0.4,0.2,0.4,0.4s-0.2,0.4-0.4,0.4
		C202.7,36.3,202.5,36,202.5,35.8z M198.5,35.8c0-0.2,0.2-0.4,0.4-0.4c0.3,0,0.4,0.2,0.4,0.4s-0.2,0.4-0.4,0.4
		C198.7,36.3,198.5,36,198.5,35.8z M194.4,35.8c0-0.2,0.2-0.4,0.4-0.4c0.2,0,0.4,0.2,0.4,0.4s-0.2,0.4-0.4,0.4
		C194.6,36.3,194.4,36,194.4,35.8z M190.4,35.8c0-0.2,0.2-0.4,0.4-0.4c0.2,0,0.4,0.2,0.4,0.4s-0.2,0.4-0.4,0.4
		C190.6,36.3,190.4,36,190.4,35.8z M186.4,35.8c0-0.2,0.2-0.4,0.4-0.4c0.2,0,0.4,0.2,0.4,0.4s-0.2,0.4-0.4,0.4
		C186.6,36.3,186.4,36,186.4,35.8z M182.4,35.8c0-0.2,0.2-0.4,0.4-0.4s0.4,0.2,0.4,0.4s-0.2,0.4-0.4,0.4
		C182.5,36.3,182.4,36,182.4,35.8z M178.3,35.8c0-0.2,0.2-0.4,0.4-0.4s0.4,0.2,0.4,0.4s-0.2,0.4-0.4,0.4
		C178.5,36.3,178.3,36,178.3,35.8z M174.3,35.8c0-0.2,0.2-0.4,0.4-0.4c0.2,0,0.4,0.2,0.4,0.4s-0.2,0.4-0.4,0.4
		C174.5,36.3,174.3,36,174.3,35.8z M170.3,35.8c0-0.2,0.2-0.4,0.4-0.4c0.2,0,0.4,0.2,0.4,0.4s-0.2,0.4-0.4,0.4
		C170.5,36.3,170.3,36,170.3,35.8z M166.2,35.8c0-0.2,0.2-0.4,0.4-0.4c0.2,0,0.4,0.2,0.4,0.4s-0.2,0.4-0.4,0.4
		C166.4,36.3,166.2,36,166.2,35.8z M162.2,35.8c0-0.2,0.2-0.4,0.4-0.4c0.2,0,0.4,0.2,0.4,0.4s-0.2,0.4-0.4,0.4
		C162.4,36.3,162.2,36,162.2,35.8z M158.2,35.8c0-0.2,0.2-0.4,0.4-0.4s0.4,0.2,0.4,0.4s-0.2,0.4-0.4,0.4
		C158.4,36.3,158.2,36,158.2,35.8z M154.2,35.8c0-0.2,0.2-0.4,0.4-0.4c0.2,0,0.4,0.2,0.4,0.4s-0.2,0.4-0.4,0.4
		C154.3,36.3,154.2,36,154.2,35.8z M150.1,35.8c0-0.2,0.2-0.4,0.4-0.4c0.2,0,0.4,0.2,0.4,0.4s-0.2,0.4-0.4,0.4
		C150.3,36.3,150.1,36,150.1,35.8z M146.1,35.8c0-0.2,0.2-0.4,0.4-0.4c0.2,0,0.4,0.2,0.4,0.4s-0.2,0.4-0.4,0.4
		C146.3,36.3,146.1,36,146.1,35.8z M142.1,35.8c0-0.2,0.2-0.4,0.4-0.4c0.2,0,0.4,0.2,0.4,0.4s-0.2,0.4-0.4,0.4
		C142.3,36.3,142.1,36,142.1,35.8z M138,35.8c0-0.2,0.2-0.4,0.4-0.4s0.4,0.2,0.4,0.4s-0.2,0.4-0.4,0.4C138.2,36.3,138,36,138,35.8z
		 M134,35.8c0-0.2,0.2-0.4,0.4-0.4c0.2,0,0.4,0.2,0.4,0.4s-0.2,0.4-0.4,0.4C134.2,36.3,134,36,134,35.8z M130,35.8
		c0-0.2,0.2-0.4,0.4-0.4c0.2,0,0.4,0.2,0.4,0.4s-0.2,0.4-0.4,0.4C130.2,36.3,130,36,130,35.8z M126,35.8c0-0.2,0.2-0.4,0.4-0.4
		c0.2,0,0.4,0.2,0.4,0.4s-0.2,0.4-0.4,0.4C126.1,36.3,126,36,126,35.8z M121.9,35.8c0-0.2,0.2-0.4,0.4-0.4c0.2,0,0.4,0.2,0.4,0.4
		s-0.2,0.4-0.4,0.4C122.1,36.3,121.9,36,121.9,35.8z M117.9,35.8c0-0.2,0.2-0.4,0.4-0.4c0.2,0,0.4,0.2,0.4,0.4s-0.2,0.4-0.4,0.4
		C118.1,36.3,117.9,36,117.9,35.8z M113.9,35.8c0-0.2,0.2-0.4,0.4-0.4c0.2,0,0.4,0.2,0.4,0.4s-0.2,0.4-0.4,0.4
		C114.1,36.3,113.9,36,113.9,35.8z M109.8,35.8c0-0.2,0.2-0.4,0.4-0.4c0.2,0,0.4,0.2,0.4,0.4s-0.2,0.4-0.4,0.4
		C110,36.3,109.8,36,109.8,35.8z M105.8,35.8c0-0.2,0.2-0.4,0.4-0.4c0.2,0,0.4,0.2,0.4,0.4s-0.2,0.4-0.4,0.4
		C106,36.3,105.8,36,105.8,35.8z M101.8,35.8c0-0.2,0.2-0.4,0.4-0.4c0.2,0,0.4,0.2,0.4,0.4s-0.2,0.4-0.4,0.4
		C102,36.3,101.8,36,101.8,35.8z M97.8,35.8c0-0.2,0.2-0.4,0.4-0.4c0.2,0,0.4,0.2,0.4,0.4s-0.2,0.4-0.4,0.4
		C97.9,36.3,97.8,36,97.8,35.8z M93.7,35.8c0-0.2,0.2-0.4,0.4-0.4c0.2,0,0.4,0.2,0.4,0.4s-0.2,0.4-0.4,0.4
		C93.9,36.3,93.7,36,93.7,35.8z M89.7,35.8c0-0.2,0.2-0.4,0.4-0.4c0.2,0,0.4,0.2,0.4,0.4s-0.2,0.4-0.4,0.4
		C89.9,36.3,89.7,36,89.7,35.8z M85.7,35.8c0-0.2,0.2-0.4,0.4-0.4c0.2,0,0.4,0.2,0.4,0.4s-0.2,0.4-0.4,0.4
		C85.9,36.3,85.7,36,85.7,35.8z M81.6,35.8c0-0.2,0.2-0.4,0.4-0.4c0.2,0,0.4,0.2,0.4,0.4s-0.2,0.4-0.4,0.4
		C81.8,36.3,81.6,36,81.6,35.8z M77.6,35.8c0-0.2,0.2-0.4,0.4-0.4c0.2,0,0.4,0.2,0.4,0.4s-0.2,0.4-0.4,0.4
		C77.8,36.3,77.6,36,77.6,35.8z M73.6,35.8c0-0.2,0.2-0.4,0.4-0.4c0.2,0,0.4,0.2,0.4,0.4s-0.2,0.4-0.4,0.4
		C73.8,36.3,73.6,36,73.6,35.8z M69.6,35.8c0-0.2,0.2-0.4,0.4-0.4c0.2,0,0.4,0.2,0.4,0.4s-0.2,0.4-0.4,0.4
		C69.7,36.3,69.6,36,69.6,35.8z M65.5,35.8c0-0.2,0.2-0.4,0.4-0.4c0.2,0,0.4,0.2,0.4,0.4s-0.2,0.4-0.4,0.4
		C65.7,36.3,65.5,36,65.5,35.8z M61.5,35.8c0-0.2,0.2-0.4,0.4-0.4c0.2,0,0.4,0.2,0.4,0.4s-0.2,0.4-0.4,0.4
		C61.7,36.3,61.5,36,61.5,35.8z M57.5,35.8c0-0.2,0.2-0.4,0.4-0.4c0.2,0,0.4,0.2,0.4,0.4s-0.2,0.4-0.4,0.4
		C57.7,36.3,57.5,36,57.5,35.8z M53.4,35.8c0-0.2,0.2-0.4,0.4-0.4c0.2,0,0.4,0.2,0.4,0.4s-0.2,0.4-0.4,0.4
		C53.6,36.3,53.4,36,53.4,35.8z M49.4,35.8c0-0.2,0.2-0.4,0.4-0.4c0.2,0,0.4,0.2,0.4,0.4s-0.2,0.4-0.4,0.4
		C49.6,36.3,49.4,36,49.4,35.8z M45.4,35.8c0-0.2,0.2-0.4,0.4-0.4c0.2,0,0.4,0.2,0.4,0.4s-0.2,0.4-0.4,0.4
		C45.6,36.3,45.4,36,45.4,35.8z M41.4,35.8c0-0.2,0.2-0.4,0.4-0.4c0.2,0,0.4,0.2,0.4,0.4s-0.2,0.4-0.4,0.4
		C41.5,36.3,41.4,36,41.4,35.8z M37.3,35.8c0-0.2,0.2-0.4,0.4-0.4c0.2,0,0.4,0.2,0.4,0.4s-0.2,0.4-0.4,0.4
		C37.5,36.3,37.3,36,37.3,35.8z M33.3,35.8c0-0.2,0.2-0.4,0.4-0.4c0.3,0,0.4,0.2,0.4,0.4s-0.2,0.4-0.4,0.4
		C33.5,36.3,33.3,36,33.3,35.8z M476.5,90.9c0-0.2,0.2-0.4,0.4-0.4c0.3,0,0.4,0.2,0.4,0.4c0,0.2-0.2,0.4-0.4,0.4
		C476.6,91.4,476.5,91.1,476.5,90.9z M472.4,90.9c0-0.2,0.2-0.4,0.4-0.4c0.3,0,0.4,0.2,0.4,0.4c0,0.2-0.2,0.4-0.4,0.4
		C472.6,91.4,472.4,91.1,472.4,90.9z M468.4,90.9c0-0.2,0.2-0.4,0.4-0.4s0.4,0.2,0.4,0.4c0,0.2-0.2,0.4-0.4,0.4
		C468.6,91.4,468.4,91.1,468.4,90.9z M464.4,90.9c0-0.2,0.2-0.4,0.4-0.4s0.4,0.2,0.4,0.4c0,0.2-0.2,0.4-0.4,0.4
		C464.5,91.4,464.4,91.1,464.4,90.9z M460.3,90.9c0-0.2,0.2-0.4,0.4-0.4c0.3,0,0.4,0.2,0.4,0.4c0,0.2-0.2,0.4-0.4,0.4
		C460.5,91.4,460.3,91.1,460.3,90.9z M456.3,90.9c0-0.2,0.2-0.4,0.4-0.4c0.3,0,0.4,0.2,0.4,0.4c0,0.2-0.2,0.4-0.4,0.4
		C456.5,91.4,456.3,91.1,456.3,90.9z M452.3,90.9c0-0.2,0.2-0.4,0.4-0.4s0.4,0.2,0.4,0.4c0,0.2-0.2,0.4-0.4,0.4
		C452.5,91.4,452.3,91.1,452.3,90.9z M448.3,90.9c0-0.2,0.2-0.4,0.4-0.4c0.2,0,0.4,0.2,0.4,0.4c0,0.2-0.2,0.4-0.4,0.4
		C448.4,91.4,448.3,91.1,448.3,90.9z M444.2,90.9c0-0.2,0.2-0.4,0.4-0.4c0.3,0,0.4,0.2,0.4,0.4c0,0.2-0.2,0.4-0.4,0.4
		C444.4,91.4,444.2,91.1,444.2,90.9z M440.2,90.9c0-0.2,0.2-0.4,0.4-0.4c0.3,0,0.4,0.2,0.4,0.4c0,0.2-0.2,0.4-0.4,0.4
		C440.4,91.4,440.2,91.1,440.2,90.9z M436.2,90.9c0-0.2,0.2-0.4,0.4-0.4c0.3,0,0.4,0.2,0.4,0.4c0,0.2-0.2,0.4-0.4,0.4
		C436.3,91.4,436.2,91.1,436.2,90.9z M432.1,90.9c0-0.2,0.2-0.4,0.4-0.4s0.4,0.2,0.4,0.4c0,0.2-0.2,0.4-0.4,0.4
		C432.3,91.4,432.1,91.1,432.1,90.9z M428.1,90.9c0-0.2,0.2-0.4,0.4-0.4c0.2,0,0.4,0.2,0.4,0.4c0,0.2-0.2,0.4-0.4,0.4
		C428.3,91.4,428.1,91.1,428.1,90.9z M424.1,90.9c0-0.2,0.2-0.4,0.4-0.4c0.3,0,0.4,0.2,0.4,0.4c0,0.2-0.2,0.4-0.4,0.4
		C424.3,91.4,424.1,91.1,424.1,90.9z M420.1,90.9c0-0.2,0.2-0.4,0.4-0.4c0.3,0,0.4,0.2,0.4,0.4c0,0.2-0.2,0.4-0.4,0.4
		C420.2,91.4,420.1,91.1,420.1,90.9z M416,90.9c0-0.2,0.2-0.4,0.4-0.4s0.4,0.2,0.4,0.4c0,0.2-0.2,0.4-0.4,0.4
		C416.2,91.4,416,91.1,416,90.9z M412,90.9c0-0.2,0.2-0.4,0.4-0.4c0.2,0,0.4,0.2,0.4,0.4c0,0.2-0.2,0.4-0.4,0.4
		C412.2,91.4,412,91.1,412,90.9z M408,90.9c0-0.2,0.2-0.4,0.4-0.4c0.3,0,0.4,0.2,0.4,0.4c0,0.2-0.2,0.4-0.4,0.4
		C408.1,91.4,408,91.1,408,90.9z M403.9,90.9c0-0.2,0.2-0.4,0.4-0.4c0.3,0,0.4,0.2,0.4,0.4c0,0.2-0.2,0.4-0.4,0.4
		S403.9,91.1,403.9,90.9z M399.9,90.9c0-0.2,0.2-0.4,0.4-0.4c0.3,0,0.4,0.2,0.4,0.4c0,0.2-0.2,0.4-0.4,0.4
		C400.1,91.4,399.9,91.1,399.9,90.9z M395.9,90.9c0-0.2,0.2-0.4,0.4-0.4c0.2,0,0.4,0.2,0.4,0.4c0,0.2-0.2,0.4-0.4,0.4
		C396.1,91.4,395.9,91.1,395.9,90.9z M391.9,90.9c0-0.2,0.2-0.4,0.4-0.4c0.2,0,0.4,0.2,0.4,0.4c0,0.2-0.2,0.4-0.4,0.4
		C392,91.4,391.9,91.1,391.9,90.9z M387.8,90.9c0-0.2,0.2-0.4,0.4-0.4s0.4,0.2,0.4,0.4c0,0.2-0.2,0.4-0.4,0.4S387.8,91.1,387.8,90.9
		z M383.8,90.9c0-0.2,0.2-0.4,0.4-0.4c0.3,0,0.4,0.2,0.4,0.4c0,0.2-0.2,0.4-0.4,0.4C384,91.4,383.8,91.1,383.8,90.9z M379.8,90.9
		c0-0.2,0.2-0.4,0.4-0.4c0.2,0,0.4,0.2,0.4,0.4c0,0.2-0.2,0.4-0.4,0.4C379.9,91.4,379.8,91.1,379.8,90.9z M375.7,90.9
		c0-0.2,0.2-0.4,0.4-0.4c0.2,0,0.4,0.2,0.4,0.4c0,0.2-0.2,0.4-0.4,0.4C375.9,91.4,375.7,91.1,375.7,90.9z M371.7,90.9
		c0-0.2,0.2-0.4,0.4-0.4s0.4,0.2,0.4,0.4c0,0.2-0.2,0.4-0.4,0.4S371.7,91.1,371.7,90.9z M367.7,90.9c0-0.2,0.2-0.4,0.4-0.4
		c0.3,0,0.4,0.2,0.4,0.4c0,0.2-0.2,0.4-0.4,0.4C367.9,91.4,367.7,91.1,367.7,90.9z M363.7,90.9c0-0.2,0.2-0.4,0.4-0.4
		c0.3,0,0.4,0.2,0.4,0.4c0,0.2-0.2,0.4-0.4,0.4C363.8,91.4,363.7,91.1,363.7,90.9z M359.6,90.9c0-0.2,0.2-0.4,0.4-0.4
		s0.4,0.2,0.4,0.4c0,0.2-0.2,0.4-0.4,0.4C359.8,91.4,359.6,91.1,359.6,90.9z M355.6,90.9c0-0.2,0.2-0.4,0.4-0.4
		c0.2,0,0.4,0.2,0.4,0.4c0,0.2-0.2,0.4-0.4,0.4S355.6,91.1,355.6,90.9z M351.6,90.9c0-0.2,0.2-0.4,0.4-0.4c0.3,0,0.4,0.2,0.4,0.4
		c0,0.2-0.2,0.4-0.4,0.4C351.7,91.4,351.6,91.1,351.6,90.9z M347.5,90.9c0-0.2,0.2-0.4,0.4-0.4c0.3,0,0.4,0.2,0.4,0.4
		c0,0.2-0.2,0.4-0.4,0.4C347.7,91.4,347.5,91.1,347.5,90.9z M343.5,90.9c0-0.2,0.2-0.4,0.4-0.4s0.4,0.2,0.4,0.4
		c0,0.2-0.2,0.4-0.4,0.4C343.7,91.4,343.5,91.1,343.5,90.9z M339.5,90.9c0-0.2,0.2-0.4,0.4-0.4c0.2,0,0.4,0.2,0.4,0.4
		c0,0.2-0.2,0.4-0.4,0.4C339.7,91.4,339.5,91.1,339.5,90.9z M335.5,90.9c0-0.2,0.2-0.4,0.4-0.4c0.3,0,0.4,0.2,0.4,0.4
		c0,0.2-0.2,0.4-0.4,0.4C335.6,91.4,335.5,91.1,335.5,90.9z M331.4,90.9c0-0.2,0.2-0.4,0.4-0.4c0.3,0,0.4,0.2,0.4,0.4
		c0,0.2-0.2,0.4-0.4,0.4C331.6,91.4,331.4,91.1,331.4,90.9z M327.4,90.9c0-0.2,0.2-0.4,0.4-0.4c0.3,0,0.4,0.2,0.4,0.4
		c0,0.2-0.2,0.4-0.4,0.4C327.6,91.4,327.4,91.1,327.4,90.9z M323.4,90.9c0-0.2,0.2-0.4,0.4-0.4s0.4,0.2,0.4,0.4
		c0,0.2-0.2,0.4-0.4,0.4C323.5,91.4,323.4,91.1,323.4,90.9z M319.3,90.9c0-0.2,0.2-0.4,0.4-0.4c0.2,0,0.4,0.2,0.4,0.4
		c0,0.2-0.2,0.4-0.4,0.4C319.5,91.4,319.3,91.1,319.3,90.9z M315.3,90.9c0-0.2,0.2-0.4,0.4-0.4c0.3,0,0.4,0.2,0.4,0.4
		c0,0.2-0.2,0.4-0.4,0.4C315.5,91.4,315.3,91.1,315.3,90.9z M311.3,90.9c0-0.2,0.2-0.4,0.4-0.4s0.4,0.2,0.4,0.4
		c0,0.2-0.2,0.4-0.4,0.4C311.5,91.4,311.3,91.1,311.3,90.9z M307.3,90.9c0-0.2,0.2-0.4,0.4-0.4c0.2,0,0.4,0.2,0.4,0.4
		c0,0.2-0.2,0.4-0.4,0.4C307.4,91.4,307.3,91.1,307.3,90.9z M303.2,90.9c0-0.2,0.2-0.4,0.4-0.4c0.2,0,0.4,0.2,0.4,0.4
		c0,0.2-0.2,0.4-0.4,0.4C303.4,91.4,303.2,91.1,303.2,90.9z M299.2,90.9c0-0.2,0.2-0.4,0.4-0.4c0.3,0,0.4,0.2,0.4,0.4
		c0,0.2-0.2,0.4-0.4,0.4C299.4,91.4,299.2,91.1,299.2,90.9z M295.2,90.9c0-0.2,0.2-0.4,0.4-0.4s0.4,0.2,0.4,0.4
		c0,0.2-0.2,0.4-0.4,0.4C295.3,91.4,295.2,91.1,295.2,90.9z M291.1,90.9c0-0.2,0.2-0.4,0.4-0.4c0.2,0,0.4,0.2,0.4,0.4
		c0,0.2-0.2,0.4-0.4,0.4C291.3,91.4,291.1,91.1,291.1,90.9z M287.1,90.9c0-0.2,0.2-0.4,0.4-0.4c0.2,0,0.4,0.2,0.4,0.4
		c0,0.2-0.2,0.4-0.4,0.4C287.3,91.4,287.1,91.1,287.1,90.9z M283.1,90.9c0-0.2,0.2-0.4,0.4-0.4c0.2,0,0.4,0.2,0.4,0.4
		c0,0.2-0.2,0.4-0.4,0.4C283.3,91.4,283.1,91.1,283.1,90.9z M279.1,90.9c0-0.2,0.2-0.4,0.4-0.4c0.3,0,0.4,0.2,0.4,0.4
		c0,0.2-0.2,0.4-0.4,0.4C279.2,91.4,279.1,91.1,279.1,90.9z M275,90.9c0-0.2,0.2-0.4,0.4-0.4s0.4,0.2,0.4,0.4c0,0.2-0.2,0.4-0.4,0.4
		C275.2,91.4,275,91.1,275,90.9z M271,90.9c0-0.2,0.2-0.4,0.4-0.4c0.2,0,0.4,0.2,0.4,0.4c0,0.2-0.2,0.4-0.4,0.4
		C271.2,91.4,271,91.1,271,90.9z M267,90.9c0-0.2,0.2-0.4,0.4-0.4c0.2,0,0.4,0.2,0.4,0.4c0,0.2-0.2,0.4-0.4,0.4
		C267.1,91.4,267,91.1,267,90.9z M262.9,90.9c0-0.2,0.2-0.4,0.4-0.4c0.3,0,0.4,0.2,0.4,0.4c0,0.2-0.2,0.4-0.4,0.4
		C263.1,91.4,262.9,91.1,262.9,90.9z M258.9,90.9c0-0.2,0.2-0.4,0.4-0.4s0.4,0.2,0.4,0.4c0,0.2-0.2,0.4-0.4,0.4
		C259.1,91.4,258.9,91.1,258.9,90.9z M254.9,90.9c0-0.2,0.2-0.4,0.4-0.4c0.2,0,0.4,0.2,0.4,0.4c0,0.2-0.2,0.4-0.4,0.4
		C255.1,91.4,254.9,91.1,254.9,90.9z M250.9,90.9c0-0.2,0.2-0.4,0.4-0.4c0.2,0,0.4,0.2,0.4,0.4c0,0.2-0.2,0.4-0.4,0.4
		C251,91.4,250.9,91.1,250.9,90.9z M246.8,90.9c0-0.2,0.2-0.4,0.4-0.4c0.2,0,0.4,0.2,0.4,0.4c0,0.2-0.2,0.4-0.4,0.4
		C247,91.4,246.8,91.1,246.8,90.9z M242.8,90.9c0-0.2,0.2-0.4,0.4-0.4s0.4,0.2,0.4,0.4c0,0.2-0.2,0.4-0.4,0.4
		C243,91.4,242.8,91.1,242.8,90.9z M238.8,90.9c0-0.2,0.2-0.4,0.4-0.4s0.4,0.2,0.4,0.4c0,0.2-0.2,0.4-0.4,0.4
		C238.9,91.4,238.8,91.1,238.8,90.9z M234.7,90.9c0-0.2,0.2-0.4,0.4-0.4c0.2,0,0.4,0.2,0.4,0.4c0,0.2-0.2,0.4-0.4,0.4
		C234.9,91.4,234.7,91.1,234.7,90.9z M230.7,90.9c0-0.2,0.2-0.4,0.4-0.4c0.2,0,0.4,0.2,0.4,0.4c0,0.2-0.2,0.4-0.4,0.4
		C230.9,91.4,230.7,91.1,230.7,90.9z M226.7,90.9c0-0.2,0.2-0.4,0.4-0.4c0.3,0,0.4,0.2,0.4,0.4c0,0.2-0.2,0.4-0.4,0.4
		C226.9,91.4,226.7,91.1,226.7,90.9z M222.7,90.9c0-0.2,0.2-0.4,0.4-0.4s0.4,0.2,0.4,0.4c0,0.2-0.2,0.4-0.4,0.4
		C222.8,91.4,222.7,91.1,222.7,90.9z M218.6,90.9c0-0.2,0.2-0.4,0.4-0.4c0.2,0,0.4,0.2,0.4,0.4c0,0.2-0.2,0.4-0.4,0.4
		C218.8,91.4,218.6,91.1,218.6,90.9z M214.6,90.9c0-0.2,0.2-0.4,0.4-0.4c0.2,0,0.4,0.2,0.4,0.4c0,0.2-0.2,0.4-0.4,0.4
		C214.8,91.4,214.6,91.1,214.6,90.9z M210.6,90.9c0-0.2,0.2-0.4,0.4-0.4c0.2,0,0.4,0.2,0.4,0.4c0,0.2-0.2,0.4-0.4,0.4
		C210.7,91.4,210.6,91.1,210.6,90.9z M206.5,90.9c0-0.2,0.2-0.4,0.4-0.4c0.3,0,0.4,0.2,0.4,0.4c0,0.2-0.2,0.4-0.4,0.4
		C206.7,91.4,206.5,91.1,206.5,90.9z M202.5,90.9c0-0.2,0.2-0.4,0.4-0.4s0.4,0.2,0.4,0.4c0,0.2-0.2,0.4-0.4,0.4
		C202.7,91.4,202.5,91.1,202.5,90.9z M198.5,90.9c0-0.2,0.2-0.4,0.4-0.4c0.2,0,0.4,0.2,0.4,0.4c0,0.2-0.2,0.4-0.4,0.4
		C198.7,91.4,198.5,91.1,198.5,90.9z M194.4,90.9c0-0.2,0.2-0.4,0.4-0.4c0.2,0,0.4,0.2,0.4,0.4c0,0.2-0.2,0.4-0.4,0.4
		C194.6,91.4,194.4,91.1,194.4,90.9z M190.4,90.9c0-0.2,0.2-0.4,0.4-0.4c0.3,0,0.4,0.2,0.4,0.4c0,0.2-0.2,0.4-0.4,0.4
		C190.6,91.4,190.4,91.1,190.4,90.9z M186.4,90.9c0-0.2,0.2-0.4,0.4-0.4s0.4,0.2,0.4,0.4c0,0.2-0.2,0.4-0.4,0.4
		C186.6,91.4,186.4,91.1,186.4,90.9z M182.4,90.9c0-0.2,0.2-0.4,0.4-0.4c0.2,0,0.4,0.2,0.4,0.4c0,0.2-0.2,0.4-0.4,0.4
		C182.5,91.4,182.4,91.1,182.4,90.9z M178.3,90.9c0-0.2,0.2-0.4,0.4-0.4c0.2,0,0.4,0.2,0.4,0.4c0,0.2-0.2,0.4-0.4,0.4
		C178.5,91.4,178.3,91.1,178.3,90.9z M174.3,90.9c0-0.2,0.2-0.4,0.4-0.4c0.2,0,0.4,0.2,0.4,0.4c0,0.2-0.2,0.4-0.4,0.4
		C174.5,91.4,174.3,91.1,174.3,90.9z M170.3,90.9c0-0.2,0.2-0.4,0.4-0.4c0.2,0,0.4,0.2,0.4,0.4c0,0.2-0.2,0.4-0.4,0.4
		C170.5,91.4,170.3,91.1,170.3,90.9z M166.2,90.9c0-0.2,0.2-0.4,0.4-0.4s0.4,0.2,0.4,0.4c0,0.2-0.2,0.4-0.4,0.4
		C166.4,91.4,166.2,91.1,166.2,90.9z M162.2,90.9c0-0.2,0.2-0.4,0.4-0.4c0.2,0,0.4,0.2,0.4,0.4c0,0.2-0.2,0.4-0.4,0.4
		C162.4,91.4,162.2,91.1,162.2,90.9z M158.2,90.9c0-0.2,0.2-0.4,0.4-0.4c0.2,0,0.4,0.2,0.4,0.4c0,0.2-0.2,0.4-0.4,0.4
		C158.4,91.4,158.2,91.1,158.2,90.9z M154.2,90.9c0-0.2,0.2-0.4,0.4-0.4c0.2,0,0.4,0.2,0.4,0.4c0,0.2-0.2,0.4-0.4,0.4
		C154.3,91.4,154.2,91.1,154.2,90.9z M150.1,90.9c0-0.2,0.2-0.4,0.4-0.4c0.2,0,0.4,0.2,0.4,0.4c0,0.2-0.2,0.4-0.4,0.4
		C150.3,91.4,150.1,91.1,150.1,90.9z M146.1,90.9c0-0.2,0.2-0.4,0.4-0.4s0.4,0.2,0.4,0.4c0,0.2-0.2,0.4-0.4,0.4
		C146.3,91.4,146.1,91.1,146.1,90.9z M142.1,90.9c0-0.2,0.2-0.4,0.4-0.4c0.2,0,0.4,0.2,0.4,0.4c0,0.2-0.2,0.4-0.4,0.4
		C142.3,91.4,142.1,91.1,142.1,90.9z M138,90.9c0-0.2,0.2-0.4,0.4-0.4c0.2,0,0.4,0.2,0.4,0.4c0,0.2-0.2,0.4-0.4,0.4
		C138.2,91.4,138,91.1,138,90.9z M134,90.9c0-0.2,0.2-0.4,0.4-0.4c0.2,0,0.4,0.2,0.4,0.4c0,0.2-0.2,0.4-0.4,0.4
		C134.2,91.4,134,91.1,134,90.9z M130,90.9c0-0.2,0.2-0.4,0.4-0.4s0.4,0.2,0.4,0.4c0,0.2-0.2,0.4-0.4,0.4
		C130.2,91.4,130,91.1,130,90.9z M126,90.9c0-0.2,0.2-0.4,0.4-0.4c0.2,0,0.4,0.2,0.4,0.4c0,0.2-0.2,0.4-0.4,0.4
		C126.1,91.4,126,91.1,126,90.9z M121.9,90.9c0-0.2,0.2-0.4,0.4-0.4c0.2,0,0.4,0.2,0.4,0.4c0,0.2-0.2,0.4-0.4,0.4
		C122.1,91.4,121.9,91.1,121.9,90.9z M117.9,90.9c0-0.2,0.2-0.4,0.4-0.4c0.2,0,0.4,0.2,0.4,0.4c0,0.2-0.2,0.4-0.4,0.4
		C118.1,91.4,117.9,91.1,117.9,90.9z M113.9,90.9c0-0.2,0.2-0.4,0.4-0.4c0.2,0,0.4,0.2,0.4,0.4c0,0.2-0.2,0.4-0.4,0.4
		C114.1,91.4,113.9,91.1,113.9,90.9z M109.8,90.9c0-0.2,0.2-0.4,0.4-0.4c0.2,0,0.4,0.2,0.4,0.4c0,0.2-0.2,0.4-0.4,0.4
		C110,91.4,109.8,91.1,109.8,90.9z M105.8,90.9c0-0.2,0.2-0.4,0.4-0.4c0.2,0,0.4,0.2,0.4,0.4c0,0.2-0.2,0.4-0.4,0.4
		C106,91.4,105.8,91.1,105.8,90.9z M101.8,90.9c0-0.2,0.2-0.4,0.4-0.4c0.2,0,0.4,0.2,0.4,0.4c0,0.2-0.2,0.4-0.4,0.4
		C102,91.4,101.8,91.1,101.8,90.9z M97.8,90.9c0-0.2,0.2-0.4,0.4-0.4c0.2,0,0.4,0.2,0.4,0.4c0,0.2-0.2,0.4-0.4,0.4
		C97.9,91.4,97.8,91.1,97.8,90.9z M93.7,90.9c0-0.2,0.2-0.4,0.4-0.4c0.2,0,0.4,0.2,0.4,0.4c0,0.2-0.2,0.4-0.4,0.4
		C93.9,91.4,93.7,91.1,93.7,90.9z M89.7,90.9c0-0.2,0.2-0.4,0.4-0.4c0.2,0,0.4,0.2,0.4,0.4c0,0.2-0.2,0.4-0.4,0.4
		C89.9,91.4,89.7,91.1,89.7,90.9z M85.7,90.9c0-0.2,0.2-0.4,0.4-0.4c0.2,0,0.4,0.2,0.4,0.4c0,0.2-0.2,0.4-0.4,0.4
		C85.9,91.4,85.7,91.1,85.7,90.9z M81.6,90.9c0-0.2,0.2-0.4,0.4-0.4c0.2,0,0.4,0.2,0.4,0.4c0,0.2-0.2,0.4-0.4,0.4
		C81.8,91.4,81.6,91.1,81.6,90.9z M77.6,90.9c0-0.2,0.2-0.4,0.4-0.4c0.2,0,0.4,0.2,0.4,0.4c0,0.2-0.2,0.4-0.4,0.4
		C77.8,91.4,77.6,91.1,77.6,90.9z M73.6,90.9c0-0.2,0.2-0.4,0.4-0.4c0.2,0,0.4,0.2,0.4,0.4c0,0.2-0.2,0.4-0.4,0.4
		C73.8,91.4,73.6,91.1,73.6,90.9z M69.6,90.9c0-0.2,0.2-0.4,0.4-0.4c0.2,0,0.4,0.2,0.4,0.4c0,0.2-0.2,0.4-0.4,0.4
		C69.7,91.4,69.6,91.1,69.6,90.9z M65.5,90.9c0-0.2,0.2-0.4,0.4-0.4c0.2,0,0.4,0.2,0.4,0.4c0,0.2-0.2,0.4-0.4,0.4
		C65.7,91.4,65.5,91.1,65.5,90.9z M61.5,90.9c0-0.2,0.2-0.4,0.4-0.4c0.2,0,0.4,0.2,0.4,0.4c0,0.2-0.2,0.4-0.4,0.4
		C61.7,91.4,61.5,91.1,61.5,90.9z M57.5,90.9c0-0.2,0.2-0.4,0.4-0.4c0.2,0,0.4,0.2,0.4,0.4c0,0.2-0.2,0.4-0.4,0.4
		C57.7,91.4,57.5,91.1,57.5,90.9z M53.4,90.9c0-0.2,0.2-0.4,0.4-0.4c0.2,0,0.4,0.2,0.4,0.4c0,0.2-0.2,0.4-0.4,0.4
		C53.6,91.4,53.4,91.1,53.4,90.9z M49.4,90.9c0-0.2,0.2-0.4,0.4-0.4c0.2,0,0.4,0.2,0.4,0.4c0,0.2-0.2,0.4-0.4,0.4
		C49.6,91.4,49.4,91.1,49.4,90.9z M45.4,90.9c0-0.2,0.2-0.4,0.4-0.4c0.2,0,0.4,0.2,0.4,0.4c0,0.2-0.2,0.4-0.4,0.4
		C45.6,91.4,45.4,91.1,45.4,90.9z M41.4,90.9c0-0.2,0.2-0.4,0.4-0.4c0.2,0,0.4,0.2,0.4,0.4c0,0.2-0.2,0.4-0.4,0.4
		C41.5,91.4,41.4,91.1,41.4,90.9z M37.3,90.9c0-0.2,0.2-0.4,0.4-0.4c0.2,0,0.4,0.2,0.4,0.4c0,0.2-0.2,0.4-0.4,0.4
		C37.5,91.4,37.3,91.1,37.3,90.9z M33.3,90.9c0-0.2,0.2-0.4,0.4-0.4c0.3,0,0.4,0.2,0.4,0.4c0,0.2-0.2,0.4-0.4,0.4
		C33.5,91.4,33.3,91.1,33.3,90.9z M476.5,146.4c0-0.2,0.2-0.4,0.4-0.4c0.3,0,0.4,0.2,0.4,0.4c0,0.3-0.2,0.4-0.4,0.4
		C476.6,146.8,476.5,146.6,476.5,146.4z M472.4,146.4c0-0.2,0.2-0.4,0.4-0.4c0.3,0,0.4,0.2,0.4,0.4c0,0.3-0.2,0.4-0.4,0.4
		C472.6,146.8,472.4,146.6,472.4,146.4z M468.4,146.4c0-0.2,0.2-0.4,0.4-0.4c0.3,0,0.4,0.2,0.4,0.4c0,0.3-0.2,0.4-0.4,0.4
		S468.4,146.6,468.4,146.4z M464.4,146.4c0-0.2,0.2-0.4,0.4-0.4c0.3,0,0.4,0.2,0.4,0.4c0,0.3-0.2,0.4-0.4,0.4
		C464.5,146.8,464.4,146.6,464.4,146.4z M460.3,146.4c0-0.2,0.2-0.4,0.4-0.4c0.3,0,0.4,0.2,0.4,0.4c0,0.3-0.2,0.4-0.4,0.4
		C460.5,146.8,460.3,146.6,460.3,146.4z M456.3,146.4c0-0.2,0.2-0.4,0.4-0.4c0.2,0,0.4,0.2,0.4,0.4c0,0.3-0.2,0.4-0.4,0.4
		C456.5,146.8,456.3,146.6,456.3,146.4z M452.3,146.4c0-0.2,0.2-0.4,0.4-0.4c0.3,0,0.4,0.2,0.4,0.4c0,0.3-0.2,0.4-0.4,0.4
		S452.3,146.6,452.3,146.4z M448.3,146.4c0-0.2,0.2-0.4,0.4-0.4c0.2,0,0.4,0.2,0.4,0.4c0,0.3-0.2,0.4-0.4,0.4
		C448.4,146.8,448.3,146.6,448.3,146.4z M444.2,146.4c0-0.2,0.2-0.4,0.4-0.4c0.3,0,0.4,0.2,0.4,0.4c0,0.3-0.2,0.4-0.4,0.4
		C444.4,146.8,444.2,146.6,444.2,146.4z M440.2,146.4c0-0.2,0.2-0.4,0.4-0.4c0.2,0,0.4,0.2,0.4,0.4c0,0.3-0.2,0.4-0.4,0.4
		C440.4,146.8,440.2,146.6,440.2,146.4z M436.2,146.4c0-0.2,0.2-0.4,0.4-0.4c0.3,0,0.4,0.2,0.4,0.4c0,0.3-0.2,0.4-0.4,0.4
		S436.2,146.6,436.2,146.4z M432.1,146.4c0-0.2,0.2-0.4,0.4-0.4c0.2,0,0.4,0.2,0.4,0.4c0,0.3-0.2,0.4-0.4,0.4
		C432.3,146.8,432.1,146.6,432.1,146.4z M428.1,146.4c0-0.2,0.2-0.4,0.4-0.4c0.3,0,0.4,0.2,0.4,0.4c0,0.3-0.2,0.4-0.4,0.4
		C428.3,146.8,428.1,146.6,428.1,146.4z M424.1,146.4c0-0.2,0.2-0.4,0.4-0.4c0.2,0,0.4,0.2,0.4,0.4c0,0.3-0.2,0.4-0.4,0.4
		C424.3,146.8,424.1,146.6,424.1,146.4z M420.1,146.4c0-0.2,0.2-0.4,0.4-0.4s0.4,0.2,0.4,0.4c0,0.3-0.2,0.4-0.4,0.4
		S420.1,146.6,420.1,146.4z M416,146.4c0-0.2,0.2-0.4,0.4-0.4s0.4,0.2,0.4,0.4c0,0.3-0.2,0.4-0.4,0.4
		C416.2,146.8,416,146.6,416,146.4z M412,146.4c0-0.2,0.2-0.4,0.4-0.4c0.2,0,0.4,0.2,0.4,0.4c0,0.3-0.2,0.4-0.4,0.4
		C412.2,146.8,412,146.6,412,146.4z M408,146.4c0-0.2,0.2-0.4,0.4-0.4c0.3,0,0.4,0.2,0.4,0.4c0,0.3-0.2,0.4-0.4,0.4
		C408.1,146.8,408,146.6,408,146.4z M403.9,146.4c0-0.2,0.2-0.4,0.4-0.4c0.2,0,0.4,0.2,0.4,0.4c0,0.3-0.2,0.4-0.4,0.4
		C404.1,146.8,403.9,146.6,403.9,146.4z M399.9,146.4c0-0.2,0.2-0.4,0.4-0.4c0.3,0,0.4,0.2,0.4,0.4c0,0.3-0.2,0.4-0.4,0.4
		C400.1,146.8,399.9,146.6,399.9,146.4z M395.9,146.4c0-0.2,0.2-0.4,0.4-0.4c0.2,0,0.4,0.2,0.4,0.4c0,0.3-0.2,0.4-0.4,0.4
		C396.1,146.8,395.9,146.6,395.9,146.4z M391.9,146.4c0-0.2,0.2-0.4,0.4-0.4c0.3,0,0.4,0.2,0.4,0.4c0,0.3-0.2,0.4-0.4,0.4
		C392,146.8,391.9,146.6,391.9,146.4z M387.8,146.4c0-0.2,0.2-0.4,0.4-0.4c0.2,0,0.4,0.2,0.4,0.4c0,0.3-0.2,0.4-0.4,0.4
		C388,146.8,387.8,146.6,387.8,146.4z M383.8,146.4c0-0.2,0.2-0.4,0.4-0.4c0.3,0,0.4,0.2,0.4,0.4c0,0.3-0.2,0.4-0.4,0.4
		C384,146.8,383.8,146.6,383.8,146.4z M379.8,146.4c0-0.2,0.2-0.4,0.4-0.4c0.2,0,0.4,0.2,0.4,0.4c0,0.3-0.2,0.4-0.4,0.4
		C379.9,146.8,379.8,146.6,379.8,146.4z M375.7,146.4c0-0.2,0.2-0.4,0.4-0.4c0.3,0,0.4,0.2,0.4,0.4c0,0.3-0.2,0.4-0.4,0.4
		C375.9,146.8,375.7,146.6,375.7,146.4z M371.7,146.4c0-0.2,0.2-0.4,0.4-0.4c0.2,0,0.4,0.2,0.4,0.4c0,0.3-0.2,0.4-0.4,0.4
		C371.9,146.8,371.7,146.6,371.7,146.4z M367.7,146.4c0-0.2,0.2-0.4,0.4-0.4c0.3,0,0.4,0.2,0.4,0.4c0,0.3-0.2,0.4-0.4,0.4
		C367.9,146.8,367.7,146.6,367.7,146.4z M363.7,146.4c0-0.2,0.2-0.4,0.4-0.4c0.3,0,0.4,0.2,0.4,0.4c0,0.3-0.2,0.4-0.4,0.4
		C363.8,146.8,363.7,146.6,363.7,146.4z M359.6,146.4c0-0.2,0.2-0.4,0.4-0.4c0.2,0,0.4,0.2,0.4,0.4c0,0.3-0.2,0.4-0.4,0.4
		C359.8,146.8,359.6,146.6,359.6,146.4z M355.6,146.4c0-0.2,0.2-0.4,0.4-0.4c0.3,0,0.4,0.2,0.4,0.4c0,0.3-0.2,0.4-0.4,0.4
		S355.6,146.6,355.6,146.4z M351.6,146.4c0-0.2,0.2-0.4,0.4-0.4c0.2,0,0.4,0.2,0.4,0.4c0,0.3-0.2,0.4-0.4,0.4
		C351.7,146.8,351.6,146.6,351.6,146.4z M347.5,146.4c0-0.2,0.2-0.4,0.4-0.4c0.3,0,0.4,0.2,0.4,0.4c0,0.3-0.2,0.4-0.4,0.4
		C347.7,146.8,347.5,146.6,347.5,146.4z M343.5,146.4c0-0.2,0.2-0.4,0.4-0.4c0.2,0,0.4,0.2,0.4,0.4c0,0.3-0.2,0.4-0.4,0.4
		C343.7,146.8,343.5,146.6,343.5,146.4z M339.5,146.4c0-0.2,0.2-0.4,0.4-0.4c0.3,0,0.4,0.2,0.4,0.4c0,0.3-0.2,0.4-0.4,0.4
		S339.5,146.6,339.5,146.4z M335.5,146.4c0-0.2,0.2-0.4,0.4-0.4c0.2,0,0.4,0.2,0.4,0.4c0,0.3-0.2,0.4-0.4,0.4
		C335.6,146.8,335.5,146.6,335.5,146.4z M331.4,146.4c0-0.2,0.2-0.4,0.4-0.4c0.3,0,0.4,0.2,0.4,0.4c0,0.3-0.2,0.4-0.4,0.4
		C331.6,146.8,331.4,146.6,331.4,146.4z M327.4,146.4c0-0.2,0.2-0.4,0.4-0.4c0.2,0,0.4,0.2,0.4,0.4c0,0.3-0.2,0.4-0.4,0.4
		C327.6,146.8,327.4,146.6,327.4,146.4z M323.4,146.4c0-0.2,0.2-0.4,0.4-0.4c0.3,0,0.4,0.2,0.4,0.4c0,0.3-0.2,0.4-0.4,0.4
		S323.4,146.6,323.4,146.4z M319.3,146.4c0-0.2,0.2-0.4,0.4-0.4s0.4,0.2,0.4,0.4c0,0.3-0.2,0.4-0.4,0.4
		C319.5,146.8,319.3,146.6,319.3,146.4z M315.3,146.4c0-0.2,0.2-0.4,0.4-0.4c0.2,0,0.4,0.2,0.4,0.4c0,0.3-0.2,0.4-0.4,0.4
		C315.5,146.8,315.3,146.6,315.3,146.4z M311.3,146.4c0-0.2,0.2-0.4,0.4-0.4c0.2,0,0.4,0.2,0.4,0.4c0,0.3-0.2,0.4-0.4,0.4
		C311.5,146.8,311.3,146.6,311.3,146.4z M307.3,146.4c0-0.2,0.2-0.4,0.4-0.4c0.2,0,0.4,0.2,0.4,0.4c0,0.3-0.2,0.4-0.4,0.4
		C307.4,146.8,307.3,146.6,307.3,146.4z M303.2,146.4c0-0.2,0.2-0.4,0.4-0.4c0.2,0,0.4,0.2,0.4,0.4c0,0.3-0.2,0.4-0.4,0.4
		C303.4,146.8,303.2,146.6,303.2,146.4z M299.2,146.4c0-0.2,0.2-0.4,0.4-0.4c0.2,0,0.4,0.2,0.4,0.4c0,0.3-0.2,0.4-0.4,0.4
		C299.4,146.8,299.2,146.6,299.2,146.4z M295.2,146.4c0-0.2,0.2-0.4,0.4-0.4c0.2,0,0.4,0.2,0.4,0.4c0,0.3-0.2,0.4-0.4,0.4
		C295.3,146.8,295.2,146.6,295.2,146.4z M291.1,146.4c0-0.2,0.2-0.4,0.4-0.4c0.2,0,0.4,0.2,0.4,0.4c0,0.3-0.2,0.4-0.4,0.4
		C291.3,146.8,291.1,146.6,291.1,146.4z M287.1,146.4c0-0.2,0.2-0.4,0.4-0.4s0.4,0.2,0.4,0.4c0,0.3-0.2,0.4-0.4,0.4
		C287.3,146.8,287.1,146.6,287.1,146.4z M283.1,146.4c0-0.2,0.2-0.4,0.4-0.4c0.2,0,0.4,0.2,0.4,0.4c0,0.3-0.2,0.4-0.4,0.4
		C283.3,146.8,283.1,146.6,283.1,146.4z M279.1,146.4c0-0.2,0.2-0.4,0.4-0.4c0.3,0,0.4,0.2,0.4,0.4c0,0.3-0.2,0.4-0.4,0.4
		C279.2,146.8,279.1,146.6,279.1,146.4z M275,146.4c0-0.2,0.2-0.4,0.4-0.4c0.2,0,0.4,0.2,0.4,0.4c0,0.3-0.2,0.4-0.4,0.4
		C275.2,146.8,275,146.6,275,146.4z M271,146.4c0-0.2,0.2-0.4,0.4-0.4c0.3,0,0.4,0.2,0.4,0.4c0,0.3-0.2,0.4-0.4,0.4
		C271.2,146.8,271,146.6,271,146.4z M267,146.4c0-0.2,0.2-0.4,0.4-0.4c0.2,0,0.4,0.2,0.4,0.4c0,0.3-0.2,0.4-0.4,0.4
		C267.1,146.8,267,146.6,267,146.4z M262.9,146.4c0-0.2,0.2-0.4,0.4-0.4c0.2,0,0.4,0.2,0.4,0.4c0,0.3-0.2,0.4-0.4,0.4
		C263.1,146.8,262.9,146.6,262.9,146.4z M258.9,146.4c0-0.2,0.2-0.4,0.4-0.4c0.2,0,0.4,0.2,0.4,0.4c0,0.3-0.2,0.4-0.4,0.4
		C259.1,146.8,258.9,146.6,258.9,146.4z M254.9,146.4c0-0.2,0.2-0.4,0.4-0.4c0.2,0,0.4,0.2,0.4,0.4c0,0.3-0.2,0.4-0.4,0.4
		C255.1,146.8,254.9,146.6,254.9,146.4z M250.9,146.4c0-0.2,0.2-0.4,0.4-0.4c0.2,0,0.4,0.2,0.4,0.4c0,0.3-0.2,0.4-0.4,0.4
		C251,146.8,250.9,146.6,250.9,146.4z M246.8,146.4c0-0.2,0.2-0.4,0.4-0.4c0.2,0,0.4,0.2,0.4,0.4c0,0.3-0.2,0.4-0.4,0.4
		C247,146.8,246.8,146.6,246.8,146.4z M242.8,146.4c0-0.2,0.2-0.4,0.4-0.4s0.4,0.2,0.4,0.4c0,0.3-0.2,0.4-0.4,0.4
		C243,146.8,242.8,146.6,242.8,146.4z M238.8,146.4c0-0.2,0.2-0.4,0.4-0.4c0.2,0,0.4,0.2,0.4,0.4c0,0.3-0.2,0.4-0.4,0.4
		C238.9,146.8,238.8,146.6,238.8,146.4z M234.7,146.4c0-0.2,0.2-0.4,0.4-0.4c0.3,0,0.4,0.2,0.4,0.4c0,0.3-0.2,0.4-0.4,0.4
		C234.9,146.8,234.7,146.6,234.7,146.4z M230.7,146.4c0-0.2,0.2-0.4,0.4-0.4c0.2,0,0.4,0.2,0.4,0.4c0,0.3-0.2,0.4-0.4,0.4
		C230.9,146.8,230.7,146.6,230.7,146.4z M226.7,146.4c0-0.2,0.2-0.4,0.4-0.4c0.3,0,0.4,0.2,0.4,0.4c0,0.3-0.2,0.4-0.4,0.4
		C226.9,146.8,226.7,146.6,226.7,146.4z M222.7,146.4c0-0.2,0.2-0.4,0.4-0.4c0.2,0,0.4,0.2,0.4,0.4c0,0.3-0.2,0.4-0.4,0.4
		C222.8,146.8,222.7,146.6,222.7,146.4z M218.6,146.4c0-0.2,0.2-0.4,0.4-0.4c0.2,0,0.4,0.2,0.4,0.4c0,0.3-0.2,0.4-0.4,0.4
		C218.8,146.8,218.6,146.6,218.6,146.4z M214.6,146.4c0-0.2,0.2-0.4,0.4-0.4c0.2,0,0.4,0.2,0.4,0.4c0,0.3-0.2,0.4-0.4,0.4
		C214.8,146.8,214.6,146.6,214.6,146.4z M210.6,146.4c0-0.2,0.2-0.4,0.4-0.4c0.2,0,0.4,0.2,0.4,0.4c0,0.3-0.2,0.4-0.4,0.4
		C210.7,146.8,210.6,146.6,210.6,146.4z M206.5,146.4c0-0.2,0.2-0.4,0.4-0.4c0.2,0,0.4,0.2,0.4,0.4c0,0.3-0.2,0.4-0.4,0.4
		C206.7,146.8,206.5,146.6,206.5,146.4z M202.5,146.4c0-0.2,0.2-0.4,0.4-0.4c0.2,0,0.4,0.2,0.4,0.4c0,0.3-0.2,0.4-0.4,0.4
		C202.7,146.8,202.5,146.6,202.5,146.4z M198.5,146.4c0-0.2,0.2-0.4,0.4-0.4c0.2,0,0.4,0.2,0.4,0.4c0,0.3-0.2,0.4-0.4,0.4
		C198.7,146.8,198.5,146.6,198.5,146.4z M194.4,146.4c0-0.2,0.2-0.4,0.4-0.4c0.2,0,0.4,0.2,0.4,0.4c0,0.3-0.2,0.4-0.4,0.4
		C194.6,146.8,194.4,146.6,194.4,146.4z M190.4,146.4c0-0.2,0.2-0.4,0.4-0.4s0.4,0.2,0.4,0.4c0,0.3-0.2,0.4-0.4,0.4
		C190.6,146.8,190.4,146.6,190.4,146.4z M186.4,146.4c0-0.2,0.2-0.4,0.4-0.4c0.2,0,0.4,0.2,0.4,0.4c0,0.3-0.2,0.4-0.4,0.4
		C186.6,146.8,186.4,146.6,186.4,146.4z M182.4,146.4c0-0.2,0.2-0.4,0.4-0.4c0.3,0,0.4,0.2,0.4,0.4c0,0.3-0.2,0.4-0.4,0.4
		C182.5,146.8,182.4,146.6,182.4,146.4z M178.3,146.4c0-0.2,0.2-0.4,0.4-0.4c0.2,0,0.4,0.2,0.4,0.4c0,0.3-0.2,0.4-0.4,0.4
		C178.5,146.8,178.3,146.6,178.3,146.4z M174.3,146.4c0-0.2,0.2-0.4,0.4-0.4c0.2,0,0.4,0.2,0.4,0.4c0,0.3-0.2,0.4-0.4,0.4
		C174.5,146.8,174.3,146.6,174.3,146.4z M170.3,146.4c0-0.2,0.2-0.4,0.4-0.4c0.2,0,0.4,0.2,0.4,0.4c0,0.3-0.2,0.4-0.4,0.4
		C170.5,146.8,170.3,146.6,170.3,146.4z M166.2,146.4c0-0.2,0.2-0.4,0.4-0.4c0.2,0,0.4,0.2,0.4,0.4c0,0.3-0.2,0.4-0.4,0.4
		C166.4,146.8,166.2,146.6,166.2,146.4z M162.2,146.4c0-0.2,0.2-0.4,0.4-0.4c0.2,0,0.4,0.2,0.4,0.4c0,0.3-0.2,0.4-0.4,0.4
		C162.4,146.8,162.2,146.6,162.2,146.4z M158.2,146.4c0-0.2,0.2-0.4,0.4-0.4c0.2,0,0.4,0.2,0.4,0.4c0,0.3-0.2,0.4-0.4,0.4
		C158.4,146.8,158.2,146.6,158.2,146.4z M154.2,146.4c0-0.2,0.2-0.4,0.4-0.4c0.2,0,0.4,0.2,0.4,0.4c0,0.3-0.2,0.4-0.4,0.4
		C154.3,146.8,154.2,146.6,154.2,146.4z M150.1,146.4c0-0.2,0.2-0.4,0.4-0.4c0.2,0,0.4,0.2,0.4,0.4c0,0.3-0.2,0.4-0.4,0.4
		C150.3,146.8,150.1,146.6,150.1,146.4z M146.1,146.4c0-0.2,0.2-0.4,0.4-0.4c0.2,0,0.4,0.2,0.4,0.4c0,0.3-0.2,0.4-0.4,0.4
		C146.3,146.8,146.1,146.6,146.1,146.4z M142.1,146.4c0-0.2,0.2-0.4,0.4-0.4s0.4,0.2,0.4,0.4c0,0.3-0.2,0.4-0.4,0.4
		C142.3,146.8,142.1,146.6,142.1,146.4z M138,146.4c0-0.2,0.2-0.4,0.4-0.4c0.2,0,0.4,0.2,0.4,0.4c0,0.3-0.2,0.4-0.4,0.4
		C138.2,146.8,138,146.6,138,146.4z M134,146.4c0-0.2,0.2-0.4,0.4-0.4s0.4,0.2,0.4,0.4c0,0.3-0.2,0.4-0.4,0.4
		C134.2,146.8,134,146.6,134,146.4z M130,146.4c0-0.2,0.2-0.4,0.4-0.4c0.2,0,0.4,0.2,0.4,0.4c0,0.3-0.2,0.4-0.4,0.4
		C130.2,146.8,130,146.6,130,146.4z M126,146.4c0-0.2,0.2-0.4,0.4-0.4c0.2,0,0.4,0.2,0.4,0.4c0,0.3-0.2,0.4-0.4,0.4
		C126.1,146.8,126,146.6,126,146.4z M121.9,146.4c0-0.2,0.2-0.4,0.4-0.4c0.2,0,0.4,0.2,0.4,0.4c0,0.3-0.2,0.4-0.4,0.4
		C122.1,146.8,121.9,146.6,121.9,146.4z M117.9,146.4c0-0.2,0.2-0.4,0.4-0.4c0.2,0,0.4,0.2,0.4,0.4c0,0.3-0.2,0.4-0.4,0.4
		C118.1,146.8,117.9,146.6,117.9,146.4z M113.9,146.4c0-0.2,0.2-0.4,0.4-0.4c0.2,0,0.4,0.2,0.4,0.4c0,0.3-0.2,0.4-0.4,0.4
		C114.1,146.8,113.9,146.6,113.9,146.4z M109.8,146.4c0-0.2,0.2-0.4,0.4-0.4c0.2,0,0.4,0.2,0.4,0.4c0,0.3-0.2,0.4-0.4,0.4
		C110,146.8,109.8,146.6,109.8,146.4z M105.8,146.4c0-0.2,0.2-0.4,0.4-0.4c0.2,0,0.4,0.2,0.4,0.4c0,0.3-0.2,0.4-0.4,0.4
		C106,146.8,105.8,146.6,105.8,146.4z M101.8,146.4c0-0.2,0.2-0.4,0.4-0.4c0.2,0,0.4,0.2,0.4,0.4c0,0.3-0.2,0.4-0.4,0.4
		C102,146.8,101.8,146.6,101.8,146.4z M97.8,146.4c0-0.2,0.2-0.4,0.4-0.4c0.2,0,0.4,0.2,0.4,0.4c0,0.3-0.2,0.4-0.4,0.4
		C97.9,146.8,97.8,146.6,97.8,146.4z M93.7,146.4c0-0.2,0.2-0.4,0.4-0.4c0.2,0,0.4,0.2,0.4,0.4c0,0.3-0.2,0.4-0.4,0.4
		C93.9,146.8,93.7,146.6,93.7,146.4z M89.7,146.4c0-0.2,0.2-0.4,0.4-0.4c0.2,0,0.4,0.2,0.4,0.4c0,0.3-0.2,0.4-0.4,0.4
		C89.9,146.8,89.7,146.6,89.7,146.4z M85.7,146.4c0-0.2,0.2-0.4,0.4-0.4c0.2,0,0.4,0.2,0.4,0.4c0,0.3-0.2,0.4-0.4,0.4
		C85.9,146.8,85.7,146.6,85.7,146.4z M81.6,146.4c0-0.2,0.2-0.4,0.4-0.4c0.2,0,0.4,0.2,0.4,0.4c0,0.3-0.2,0.4-0.4,0.4
		C81.8,146.8,81.6,146.6,81.6,146.4z M77.6,146.4c0-0.2,0.2-0.4,0.4-0.4c0.2,0,0.4,0.2,0.4,0.4c0,0.3-0.2,0.4-0.4,0.4
		C77.8,146.8,77.6,146.6,77.6,146.4z M73.6,146.4c0-0.2,0.2-0.4,0.4-0.4c0.2,0,0.4,0.2,0.4,0.4c0,0.3-0.2,0.4-0.4,0.4
		C73.8,146.8,73.6,146.6,73.6,146.4z M69.6,146.4c0-0.2,0.2-0.4,0.4-0.4c0.2,0,0.4,0.2,0.4,0.4c0,0.3-0.2,0.4-0.4,0.4
		C69.7,146.8,69.6,146.6,69.6,146.4z M65.5,146.4c0-0.2,0.2-0.4,0.4-0.4c0.2,0,0.4,0.2,0.4,0.4c0,0.3-0.2,0.4-0.4,0.4
		C65.7,146.8,65.5,146.6,65.5,146.4z M61.5,146.4c0-0.2,0.2-0.4,0.4-0.4c0.2,0,0.4,0.2,0.4,0.4c0,0.3-0.2,0.4-0.4,0.4
		C61.7,146.8,61.5,146.6,61.5,146.4z M57.5,146.4c0-0.2,0.2-0.4,0.4-0.4c0.2,0,0.4,0.2,0.4,0.4c0,0.3-0.2,0.4-0.4,0.4
		C57.7,146.8,57.5,146.6,57.5,146.4z M53.4,146.4c0-0.2,0.2-0.4,0.4-0.4c0.2,0,0.4,0.2,0.4,0.4c0,0.3-0.2,0.4-0.4,0.4
		C53.6,146.8,53.4,146.6,53.4,146.4z M49.4,146.4c0-0.2,0.2-0.4,0.4-0.4c0.2,0,0.4,0.2,0.4,0.4c0,0.3-0.2,0.4-0.4,0.4
		C49.6,146.8,49.4,146.6,49.4,146.4z M45.4,146.4c0-0.2,0.2-0.4,0.4-0.4c0.2,0,0.4,0.2,0.4,0.4c0,0.3-0.2,0.4-0.4,0.4
		C45.6,146.8,45.4,146.6,45.4,146.4z M41.4,146.4c0-0.2,0.2-0.4,0.4-0.4c0.2,0,0.4,0.2,0.4,0.4c0,0.3-0.2,0.4-0.4,0.4
		C41.5,146.8,41.4,146.6,41.4,146.4z M37.3,146.4c0-0.2,0.2-0.4,0.4-0.4c0.2,0,0.4,0.2,0.4,0.4c0,0.3-0.2,0.4-0.4,0.4
		C37.5,146.8,37.3,146.6,37.3,146.4z M33.3,146.4c0-0.2,0.2-0.4,0.4-0.4c0.3,0,0.4,0.2,0.4,0.4c0,0.3-0.2,0.4-0.4,0.4
		C33.5,146.8,33.3,146.6,33.3,146.4z M476.5,201.5c0-0.3,0.2-0.4,0.4-0.4c0.3,0,0.4,0.2,0.4,0.4c0,0.2-0.2,0.4-0.4,0.4
		C476.6,201.9,476.5,201.7,476.5,201.5z M472.4,201.5c0-0.3,0.2-0.4,0.4-0.4c0.3,0,0.4,0.2,0.4,0.4c0,0.2-0.2,0.4-0.4,0.4
		C472.6,201.9,472.4,201.7,472.4,201.5z M468.4,201.5c0-0.3,0.2-0.4,0.4-0.4c0.3,0,0.4,0.2,0.4,0.4c0,0.2-0.2,0.4-0.4,0.4
		S468.4,201.7,468.4,201.5z M464.4,201.5c0-0.3,0.2-0.4,0.4-0.4c0.3,0,0.4,0.2,0.4,0.4c0,0.2-0.2,0.4-0.4,0.4
		C464.5,201.9,464.4,201.7,464.4,201.5z M460.3,201.5c0-0.3,0.2-0.4,0.4-0.4c0.3,0,0.4,0.2,0.4,0.4c0,0.2-0.2,0.4-0.4,0.4
		C460.5,201.9,460.3,201.7,460.3,201.5z M456.3,201.5c0-0.3,0.2-0.4,0.4-0.4c0.2,0,0.4,0.2,0.4,0.4c0,0.2-0.2,0.4-0.4,0.4
		C456.5,201.9,456.3,201.7,456.3,201.5z M452.3,201.5c0-0.3,0.2-0.4,0.4-0.4c0.3,0,0.4,0.2,0.4,0.4c0,0.2-0.2,0.4-0.4,0.4
		C452.5,201.9,452.3,201.7,452.3,201.5z M448.3,201.5c0-0.3,0.2-0.4,0.4-0.4c0.3,0,0.4,0.2,0.4,0.4c0,0.2-0.2,0.4-0.4,0.4
		C448.4,201.9,448.3,201.7,448.3,201.5z M444.2,201.5c0-0.3,0.2-0.4,0.4-0.4c0.3,0,0.4,0.2,0.4,0.4c0,0.2-0.2,0.4-0.4,0.4
		C444.4,201.9,444.2,201.7,444.2,201.5z M440.2,201.5c0-0.3,0.2-0.4,0.4-0.4c0.3,0,0.4,0.2,0.4,0.4c0,0.2-0.2,0.4-0.4,0.4
		C440.4,201.9,440.2,201.7,440.2,201.5z M436.2,201.5c0-0.3,0.2-0.4,0.4-0.4c0.3,0,0.4,0.2,0.4,0.4c0,0.2-0.2,0.4-0.4,0.4
		S436.2,201.7,436.2,201.5z M432.1,201.5c0-0.3,0.2-0.4,0.4-0.4c0.3,0,0.4,0.2,0.4,0.4c0,0.2-0.2,0.4-0.4,0.4
		C432.3,201.9,432.1,201.7,432.1,201.5z M428.1,201.5c0-0.3,0.2-0.4,0.4-0.4c0.3,0,0.4,0.2,0.4,0.4c0,0.2-0.2,0.4-0.4,0.4
		C428.3,201.9,428.1,201.7,428.1,201.5z M424.1,201.5c0-0.3,0.2-0.4,0.4-0.4c0.3,0,0.4,0.2,0.4,0.4c0,0.2-0.2,0.4-0.4,0.4
		C424.3,201.9,424.1,201.7,424.1,201.5z M420.1,201.5c0-0.3,0.2-0.4,0.4-0.4c0.3,0,0.4,0.2,0.4,0.4c0,0.2-0.2,0.4-0.4,0.4
		S420.1,201.7,420.1,201.5z M416,201.5c0-0.3,0.2-0.4,0.4-0.4c0.3,0,0.4,0.2,0.4,0.4c0,0.2-0.2,0.4-0.4,0.4
		C416.2,201.9,416,201.7,416,201.5z M412,201.5c0-0.3,0.2-0.4,0.4-0.4c0.3,0,0.4,0.2,0.4,0.4c0,0.2-0.2,0.4-0.4,0.4
		C412.2,201.9,412,201.7,412,201.5z M408,201.5c0-0.3,0.2-0.4,0.4-0.4c0.3,0,0.4,0.2,0.4,0.4c0,0.2-0.2,0.4-0.4,0.4
		C408.1,201.9,408,201.7,408,201.5z M403.9,201.5c0-0.3,0.2-0.4,0.4-0.4c0.3,0,0.4,0.2,0.4,0.4c0,0.2-0.2,0.4-0.4,0.4
		S403.9,201.7,403.9,201.5z M399.9,201.5c0-0.3,0.2-0.4,0.4-0.4c0.3,0,0.4,0.2,0.4,0.4c0,0.2-0.2,0.4-0.4,0.4
		C400.1,201.9,399.9,201.7,399.9,201.5z M395.9,201.5c0-0.3,0.2-0.4,0.4-0.4c0.3,0,0.4,0.2,0.4,0.4c0,0.2-0.2,0.4-0.4,0.4
		C396.1,201.9,395.9,201.7,395.9,201.5z M391.9,201.5c0-0.3,0.2-0.4,0.4-0.4c0.3,0,0.4,0.2,0.4,0.4c0,0.2-0.2,0.4-0.4,0.4
		C392,201.9,391.9,201.7,391.9,201.5z M387.8,201.5c0-0.3,0.2-0.4,0.4-0.4c0.3,0,0.4,0.2,0.4,0.4c0,0.2-0.2,0.4-0.4,0.4
		S387.8,201.7,387.8,201.5z M383.8,201.5c0-0.3,0.2-0.4,0.4-0.4c0.3,0,0.4,0.2,0.4,0.4c0,0.2-0.2,0.4-0.4,0.4
		C384,201.9,383.8,201.7,383.8,201.5z M379.8,201.5c0-0.3,0.2-0.4,0.4-0.4c0.3,0,0.4,0.2,0.4,0.4c0,0.2-0.2,0.4-0.4,0.4
		C379.9,201.9,379.8,201.7,379.8,201.5z M375.7,201.5c0-0.3,0.2-0.4,0.4-0.4c0.2,0,0.4,0.2,0.4,0.4c0,0.2-0.2,0.4-0.4,0.4
		C375.9,201.9,375.7,201.7,375.7,201.5z M371.7,201.5c0-0.3,0.2-0.4,0.4-0.4c0.2,0,0.4,0.2,0.4,0.4c0,0.2-0.2,0.4-0.4,0.4
		C371.9,201.9,371.7,201.7,371.7,201.5z M367.7,201.5c0-0.3,0.2-0.4,0.4-0.4c0.2,0,0.4,0.2,0.4,0.4c0,0.2-0.2,0.4-0.4,0.4
		C367.9,201.9,367.7,201.7,367.7,201.5z M363.7,201.5c0-0.3,0.2-0.4,0.4-0.4c0.2,0,0.4,0.2,0.4,0.4c0,0.2-0.2,0.4-0.4,0.4
		C363.8,201.9,363.7,201.7,363.7,201.5z M359.6,201.5c0-0.3,0.2-0.4,0.4-0.4c0.2,0,0.4,0.2,0.4,0.4c0,0.2-0.2,0.4-0.4,0.4
		C359.8,201.9,359.6,201.7,359.6,201.5z M355.6,201.5c0-0.3,0.2-0.4,0.4-0.4c0.2,0,0.4,0.2,0.4,0.4c0,0.2-0.2,0.4-0.4,0.4
		C355.8,201.9,355.6,201.7,355.6,201.5z M351.6,201.5c0-0.3,0.2-0.4,0.4-0.4c0.2,0,0.4,0.2,0.4,0.4c0,0.2-0.2,0.4-0.4,0.4
		C351.7,201.9,351.6,201.7,351.6,201.5z M347.5,201.5c0-0.3,0.2-0.4,0.4-0.4c0.2,0,0.4,0.2,0.4,0.4c0,0.2-0.2,0.4-0.4,0.4
		C347.7,201.9,347.5,201.7,347.5,201.5z M343.5,201.5c0-0.3,0.2-0.4,0.4-0.4c0.2,0,0.4,0.2,0.4,0.4c0,0.2-0.2,0.4-0.4,0.4
		C343.7,201.9,343.5,201.7,343.5,201.5z M339.5,201.5c0-0.3,0.2-0.4,0.4-0.4c0.2,0,0.4,0.2,0.4,0.4c0,0.2-0.2,0.4-0.4,0.4
		C339.7,201.9,339.5,201.7,339.5,201.5z M335.5,201.5c0-0.3,0.2-0.4,0.4-0.4c0.2,0,0.4,0.2,0.4,0.4c0,0.2-0.2,0.4-0.4,0.4
		C335.6,201.9,335.5,201.7,335.5,201.5z M331.4,201.5c0-0.3,0.2-0.4,0.4-0.4c0.2,0,0.4,0.2,0.4,0.4c0,0.2-0.2,0.4-0.4,0.4
		C331.6,201.9,331.4,201.7,331.4,201.5z M327.4,201.5c0-0.3,0.2-0.4,0.4-0.4c0.2,0,0.4,0.2,0.4,0.4c0,0.2-0.2,0.4-0.4,0.4
		C327.6,201.9,327.4,201.7,327.4,201.5z M323.4,201.5c0-0.3,0.2-0.4,0.4-0.4c0.2,0,0.4,0.2,0.4,0.4c0,0.2-0.2,0.4-0.4,0.4
		C323.5,201.9,323.4,201.7,323.4,201.5z M319.3,201.5c0-0.3,0.2-0.4,0.4-0.4c0.2,0,0.4,0.2,0.4,0.4c0,0.2-0.2,0.4-0.4,0.4
		C319.5,201.9,319.3,201.7,319.3,201.5z M315.3,201.5c0-0.3,0.2-0.4,0.4-0.4c0.2,0,0.4,0.2,0.4,0.4c0,0.2-0.2,0.4-0.4,0.4
		C315.5,201.9,315.3,201.7,315.3,201.5z M311.3,201.5c0-0.3,0.2-0.4,0.4-0.4c0.2,0,0.4,0.2,0.4,0.4c0,0.2-0.2,0.4-0.4,0.4
		C311.5,201.9,311.3,201.7,311.3,201.5z M307.3,201.5c0-0.3,0.2-0.4,0.4-0.4c0.2,0,0.4,0.2,0.4,0.4c0,0.2-0.2,0.4-0.4,0.4
		C307.4,201.9,307.3,201.7,307.3,201.5z M303.2,201.5c0-0.3,0.2-0.4,0.4-0.4c0.2,0,0.4,0.2,0.4,0.4c0,0.2-0.2,0.4-0.4,0.4
		C303.4,201.9,303.2,201.7,303.2,201.5z M299.2,201.5c0-0.3,0.2-0.4,0.4-0.4c0.2,0,0.4,0.2,0.4,0.4c0,0.2-0.2,0.4-0.4,0.4
		C299.4,201.9,299.2,201.7,299.2,201.5z M295.2,201.5c0-0.3,0.2-0.4,0.4-0.4c0.2,0,0.4,0.2,0.4,0.4c0,0.2-0.2,0.4-0.4,0.4
		C295.3,201.9,295.2,201.7,295.2,201.5z M291.1,201.5c0-0.3,0.2-0.4,0.4-0.4c0.2,0,0.4,0.2,0.4,0.4c0,0.2-0.2,0.4-0.4,0.4
		C291.3,201.9,291.1,201.7,291.1,201.5z M287.1,201.5c0-0.3,0.2-0.4,0.4-0.4c0.2,0,0.4,0.2,0.4,0.4c0,0.2-0.2,0.4-0.4,0.4
		C287.3,201.9,287.1,201.7,287.1,201.5z M283.1,201.5c0-0.3,0.2-0.4,0.4-0.4c0.2,0,0.4,0.2,0.4,0.4c0,0.2-0.2,0.4-0.4,0.4
		C283.3,201.9,283.1,201.7,283.1,201.5z M279.1,201.5c0-0.3,0.2-0.4,0.4-0.4c0.2,0,0.4,0.2,0.4,0.4c0,0.2-0.2,0.4-0.4,0.4
		C279.2,201.9,279.1,201.7,279.1,201.5z M275,201.5c0-0.3,0.2-0.4,0.4-0.4c0.2,0,0.4,0.2,0.4,0.4c0,0.2-0.2,0.4-0.4,0.4
		C275.2,201.9,275,201.7,275,201.5z M271,201.5c0-0.3,0.2-0.4,0.4-0.4c0.2,0,0.4,0.2,0.4,0.4c0,0.2-0.2,0.4-0.4,0.4
		C271.2,201.9,271,201.7,271,201.5z M267,201.5c0-0.3,0.2-0.4,0.4-0.4c0.2,0,0.4,0.2,0.4,0.4c0,0.2-0.2,0.4-0.4,0.4
		C267.1,201.9,267,201.7,267,201.5z M262.9,201.5c0-0.3,0.2-0.4,0.4-0.4c0.2,0,0.4,0.2,0.4,0.4c0,0.2-0.2,0.4-0.4,0.4
		C263.1,201.9,262.9,201.7,262.9,201.5z M258.9,201.5c0-0.3,0.2-0.4,0.4-0.4c0.3,0,0.4,0.2,0.4,0.4c0,0.2-0.2,0.4-0.4,0.4
		C259.1,201.9,258.9,201.7,258.9,201.5z M254.9,201.5c0-0.3,0.2-0.4,0.4-0.4c0.3,0,0.4,0.2,0.4,0.4c0,0.2-0.2,0.4-0.4,0.4
		C255.1,201.9,254.9,201.7,254.9,201.5z M250.9,201.5c0-0.3,0.2-0.4,0.4-0.4c0.3,0,0.4,0.2,0.4,0.4c0,0.2-0.2,0.4-0.4,0.4
		S250.9,201.7,250.9,201.5z M246.8,201.5c0-0.3,0.2-0.4,0.4-0.4c0.3,0,0.4,0.2,0.4,0.4c0,0.2-0.2,0.4-0.4,0.4
		C247,201.9,246.8,201.7,246.8,201.5z M242.8,201.5c0-0.3,0.2-0.4,0.4-0.4c0.3,0,0.4,0.2,0.4,0.4c0,0.2-0.2,0.4-0.4,0.4
		S242.8,201.7,242.8,201.5z M238.8,201.5c0-0.3,0.2-0.4,0.4-0.4c0.3,0,0.4,0.2,0.4,0.4c0,0.2-0.2,0.4-0.4,0.4
		C238.9,201.9,238.8,201.7,238.8,201.5z M234.7,201.5c0-0.3,0.2-0.4,0.4-0.4c0.3,0,0.4,0.2,0.4,0.4c0,0.2-0.2,0.4-0.4,0.4
		S234.7,201.7,234.7,201.5z M230.7,201.5c0-0.3,0.2-0.4,0.4-0.4c0.3,0,0.4,0.2,0.4,0.4c0,0.2-0.2,0.4-0.4,0.4
		C230.9,201.9,230.7,201.7,230.7,201.5z M226.7,201.5c0-0.3,0.2-0.4,0.4-0.4c0.2,0,0.4,0.2,0.4,0.4c0,0.2-0.2,0.4-0.4,0.4
		C226.9,201.9,226.7,201.7,226.7,201.5z M222.7,201.5c0-0.3,0.2-0.4,0.4-0.4c0.2,0,0.4,0.2,0.4,0.4c0,0.2-0.2,0.4-0.4,0.4
		C222.8,201.9,222.7,201.7,222.7,201.5z M218.6,201.5c0-0.3,0.2-0.4,0.4-0.4c0.2,0,0.4,0.2,0.4,0.4c0,0.2-0.2,0.4-0.4,0.4
		C218.8,201.9,218.6,201.7,218.6,201.5z M214.6,201.5c0-0.3,0.2-0.4,0.4-0.4c0.2,0,0.4,0.2,0.4,0.4c0,0.2-0.2,0.4-0.4,0.4
		C214.8,201.9,214.6,201.7,214.6,201.5z M210.6,201.5c0-0.3,0.2-0.4,0.4-0.4c0.2,0,0.4,0.2,0.4,0.4c0,0.2-0.2,0.4-0.4,0.4
		C210.7,201.9,210.6,201.7,210.6,201.5z M206.5,201.5c0-0.3,0.2-0.4,0.4-0.4c0.2,0,0.4,0.2,0.4,0.4c0,0.2-0.2,0.4-0.4,0.4
		C206.7,201.9,206.5,201.7,206.5,201.5z M202.5,201.5c0-0.3,0.2-0.4,0.4-0.4c0.2,0,0.4,0.2,0.4,0.4c0,0.2-0.2,0.4-0.4,0.4
		C202.7,201.9,202.5,201.7,202.5,201.5z M198.5,201.5c0-0.3,0.2-0.4,0.4-0.4c0.2,0,0.4,0.2,0.4,0.4c0,0.2-0.2,0.4-0.4,0.4
		C198.7,201.9,198.5,201.7,198.5,201.5z M194.4,201.5c0-0.3,0.2-0.4,0.4-0.4c0.2,0,0.4,0.2,0.4,0.4c0,0.2-0.2,0.4-0.4,0.4
		C194.6,201.9,194.4,201.7,194.4,201.5z M190.4,201.5c0-0.3,0.2-0.4,0.4-0.4c0.2,0,0.4,0.2,0.4,0.4c0,0.2-0.2,0.4-0.4,0.4
		C190.6,201.9,190.4,201.7,190.4,201.5z M186.4,201.5c0-0.3,0.2-0.4,0.4-0.4c0.2,0,0.4,0.2,0.4,0.4c0,0.2-0.2,0.4-0.4,0.4
		C186.6,201.9,186.4,201.7,186.4,201.5z M182.4,201.5c0-0.3,0.2-0.4,0.4-0.4c0.2,0,0.4,0.2,0.4,0.4c0,0.2-0.2,0.4-0.4,0.4
		C182.5,201.9,182.4,201.7,182.4,201.5z M178.3,201.5c0-0.3,0.2-0.4,0.4-0.4c0.2,0,0.4,0.2,0.4,0.4c0,0.2-0.2,0.4-0.4,0.4
		C178.5,201.9,178.3,201.7,178.3,201.5z M174.3,201.5c0-0.3,0.2-0.4,0.4-0.4c0.2,0,0.4,0.2,0.4,0.4c0,0.2-0.2,0.4-0.4,0.4
		C174.5,201.9,174.3,201.7,174.3,201.5z M170.3,201.5c0-0.3,0.2-0.4,0.4-0.4c0.2,0,0.4,0.2,0.4,0.4c0,0.2-0.2,0.4-0.4,0.4
		C170.5,201.9,170.3,201.7,170.3,201.5z M166.2,201.5c0-0.3,0.2-0.4,0.4-0.4c0.2,0,0.4,0.2,0.4,0.4c0,0.2-0.2,0.4-0.4,0.4
		C166.4,201.9,166.2,201.7,166.2,201.5z M162.2,201.5c0-0.3,0.2-0.4,0.4-0.4c0.2,0,0.4,0.2,0.4,0.4c0,0.2-0.2,0.4-0.4,0.4
		C162.4,201.9,162.2,201.7,162.2,201.5z M158.2,201.5c0-0.3,0.2-0.4,0.4-0.4c0.2,0,0.4,0.2,0.4,0.4c0,0.2-0.2,0.4-0.4,0.4
		C158.4,201.9,158.2,201.7,158.2,201.5z M154.2,201.5c0-0.3,0.2-0.4,0.4-0.4c0.2,0,0.4,0.2,0.4,0.4c0,0.2-0.2,0.4-0.4,0.4
		C154.3,201.9,154.2,201.7,154.2,201.5z M150.1,201.5c0-0.3,0.2-0.4,0.4-0.4c0.2,0,0.4,0.2,0.4,0.4c0,0.2-0.2,0.4-0.4,0.4
		C150.3,201.9,150.1,201.7,150.1,201.5z M146.1,201.5c0-0.3,0.2-0.4,0.4-0.4c0.2,0,0.4,0.2,0.4,0.4c0,0.2-0.2,0.4-0.4,0.4
		C146.3,201.9,146.1,201.7,146.1,201.5z M142.1,201.5c0-0.3,0.2-0.4,0.4-0.4c0.2,0,0.4,0.2,0.4,0.4c0,0.2-0.2,0.4-0.4,0.4
		C142.3,201.9,142.1,201.7,142.1,201.5z M138,201.5c0-0.3,0.2-0.4,0.4-0.4c0.2,0,0.4,0.2,0.4,0.4c0,0.2-0.2,0.4-0.4,0.4
		C138.2,201.9,138,201.7,138,201.5z M134,201.5c0-0.3,0.2-0.4,0.4-0.4c0.2,0,0.4,0.2,0.4,0.4c0,0.2-0.2,0.4-0.4,0.4
		C134.2,201.9,134,201.7,134,201.5z M130,201.5c0-0.3,0.2-0.4,0.4-0.4c0.2,0,0.4,0.2,0.4,0.4c0,0.2-0.2,0.4-0.4,0.4
		C130.2,201.9,130,201.7,130,201.5z M126,201.5c0-0.3,0.2-0.4,0.4-0.4c0.2,0,0.4,0.2,0.4,0.4c0,0.2-0.2,0.4-0.4,0.4
		C126.1,201.9,126,201.7,126,201.5z M121.9,201.5c0-0.3,0.2-0.4,0.4-0.4c0.2,0,0.4,0.2,0.4,0.4c0,0.2-0.2,0.4-0.4,0.4
		C122.1,201.9,121.9,201.7,121.9,201.5z M117.9,201.5c0-0.3,0.2-0.4,0.4-0.4c0.2,0,0.4,0.2,0.4,0.4c0,0.2-0.2,0.4-0.4,0.4
		C118.1,201.9,117.9,201.7,117.9,201.5z M113.9,201.5c0-0.3,0.2-0.4,0.4-0.4c0.2,0,0.4,0.2,0.4,0.4c0,0.2-0.2,0.4-0.4,0.4
		C114.1,201.9,113.9,201.7,113.9,201.5z M109.8,201.5c0-0.3,0.2-0.4,0.4-0.4c0.2,0,0.4,0.2,0.4,0.4c0,0.2-0.2,0.4-0.4,0.4
		C110,201.9,109.8,201.7,109.8,201.5z M105.8,201.5c0-0.3,0.2-0.4,0.4-0.4c0.2,0,0.4,0.2,0.4,0.4c0,0.2-0.2,0.4-0.4,0.4
		C106,201.9,105.8,201.7,105.8,201.5z M101.8,201.5c0-0.3,0.2-0.4,0.4-0.4c0.2,0,0.4,0.2,0.4,0.4c0,0.2-0.2,0.4-0.4,0.4
		C102,201.9,101.8,201.7,101.8,201.5z M97.8,201.5c0-0.3,0.2-0.4,0.4-0.4c0.2,0,0.4,0.2,0.4,0.4c0,0.2-0.2,0.4-0.4,0.4
		C97.9,201.9,97.8,201.7,97.8,201.5z M93.7,201.5c0-0.3,0.2-0.4,0.4-0.4c0.2,0,0.4,0.2,0.4,0.4c0,0.2-0.2,0.4-0.4,0.4
		C93.9,201.9,93.7,201.7,93.7,201.5z M89.7,201.5c0-0.3,0.2-0.4,0.4-0.4c0.2,0,0.4,0.2,0.4,0.4c0,0.2-0.2,0.4-0.4,0.4
		C89.9,201.9,89.7,201.7,89.7,201.5z M85.7,201.5c0-0.3,0.2-0.4,0.4-0.4c0.2,0,0.4,0.2,0.4,0.4c0,0.2-0.2,0.4-0.4,0.4
		C85.9,201.9,85.7,201.7,85.7,201.5z M81.6,201.5c0-0.3,0.2-0.4,0.4-0.4c0.2,0,0.4,0.2,0.4,0.4c0,0.2-0.2,0.4-0.4,0.4
		C81.8,201.9,81.6,201.7,81.6,201.5z M77.6,201.5c0-0.3,0.2-0.4,0.4-0.4c0.2,0,0.4,0.2,0.4,0.4c0,0.2-0.2,0.4-0.4,0.4
		C77.8,201.9,77.6,201.7,77.6,201.5z M73.6,201.5c0-0.3,0.2-0.4,0.4-0.4c0.2,0,0.4,0.2,0.4,0.4c0,0.2-0.2,0.4-0.4,0.4
		C73.8,201.9,73.6,201.7,73.6,201.5z M69.6,201.5c0-0.3,0.2-0.4,0.4-0.4c0.2,0,0.4,0.2,0.4,0.4c0,0.2-0.2,0.4-0.4,0.4
		C69.7,201.9,69.6,201.7,69.6,201.5z M65.5,201.5c0-0.3,0.2-0.4,0.4-0.4c0.2,0,0.4,0.2,0.4,0.4c0,0.2-0.2,0.4-0.4,0.4
		C65.7,201.9,65.5,201.7,65.5,201.5z M61.5,201.5c0-0.3,0.2-0.4,0.4-0.4c0.2,0,0.4,0.2,0.4,0.4c0,0.2-0.2,0.4-0.4,0.4
		C61.7,201.9,61.5,201.7,61.5,201.5z M57.5,201.5c0-0.3,0.2-0.4,0.4-0.4c0.2,0,0.4,0.2,0.4,0.4c0,0.2-0.2,0.4-0.4,0.4
		C57.7,201.9,57.5,201.7,57.5,201.5z M53.4,201.5c0-0.3,0.2-0.4,0.4-0.4c0.2,0,0.4,0.2,0.4,0.4c0,0.2-0.2,0.4-0.4,0.4
		C53.6,201.9,53.4,201.7,53.4,201.5z M49.4,201.5c0-0.3,0.2-0.4,0.4-0.4c0.2,0,0.4,0.2,0.4,0.4c0,0.2-0.2,0.4-0.4,0.4
		C49.6,201.9,49.4,201.7,49.4,201.5z M45.4,201.5c0-0.3,0.2-0.4,0.4-0.4c0.2,0,0.4,0.2,0.4,0.4c0,0.2-0.2,0.4-0.4,0.4
		C45.6,201.9,45.4,201.7,45.4,201.5z M41.4,201.5c0-0.3,0.2-0.4,0.4-0.4c0.2,0,0.4,0.2,0.4,0.4c0,0.2-0.2,0.4-0.4,0.4
		C41.5,201.9,41.4,201.7,41.4,201.5z M37.3,201.5c0-0.3,0.2-0.4,0.4-0.4c0.2,0,0.4,0.2,0.4,0.4c0,0.2-0.2,0.4-0.4,0.4
		C37.5,201.9,37.3,201.7,37.3,201.5z M33.3,201.5c0-0.3,0.2-0.4,0.4-0.4c0.3,0,0.4,0.2,0.4,0.4c0,0.2-0.2,0.4-0.4,0.4
		C33.5,201.9,33.3,201.7,33.3,201.5z"/>
	<path class="st1" d="M46.4,231.4c0-0.7-0.5-1.3-1.4-1.3c-0.7,0-1.2,0.4-1.2,0.8v0.4h-1v-0.7c0-1,1.3-1.4,2.3-1.4
		c1.4,0,2.5,0.9,2.5,2.2c0,2.7-3.9,2.7-3.9,4.5c0,0.1,0.1,0.2,0.3,0.2h2.8c0.1,0,0.2-0.1,0.2-0.2v-0.5h1v1c0,0.5-0.2,0.7-0.7,0.7h-4
		c-0.6,0-0.8-0.3-0.8-0.9C42.4,233.3,46.4,233.5,46.4,231.4L46.4,231.4z M50,233.2c0-2.2,0.7-4,2.8-4c2.1,0,2.8,1.8,2.8,4
		c0,2.2-0.7,4-2.8,4S50,235.4,50,233.2z M54.3,233.2c0-1.7-0.4-3-1.7-3s-1.7,1.3-1.7,3c0,1.7,0.4,3,1.7,3
		C54,236.2,54.3,234.9,54.3,233.2z M57.7,236.1h1.7v-5.6c0,0-0.1,0.2-0.4,0.4l-0.7,0.7l-0.7-0.7l1.9-1.8h1v6.8h1.7v0.9h-4.5
		L57.7,236.1z M68.1,231.4c0-0.7-0.5-1.3-1.4-1.3c-0.7,0-1.2,0.4-1.2,0.8v0.4h-1v-0.7c0-1,1.3-1.4,2.3-1.4c1.4,0,2.5,0.9,2.5,2.2
		c0,2.7-3.9,2.7-3.9,4.5c0,0.1,0.1,0.2,0.3,0.2h2.8c0.1,0,0.2-0.1,0.2-0.2v-0.5h1v1c0,0.5-0.2,0.7-0.7,0.7h-4
		c-0.6,0-0.8-0.3-0.8-0.9C64.1,233.3,68.1,233.5,68.1,231.4L68.1,231.4z M126,231.4c0-0.7-0.5-1.3-1.4-1.3c-0.7,0-1.2,0.4-1.2,0.8
		v0.4h-1v-0.7c0-1,1.3-1.4,2.3-1.4c1.4,0,2.5,0.9,2.5,2.2c0,2.7-3.9,2.7-3.9,4.5c0,0.1,0.1,0.2,0.3,0.2h2.8c0.1,0,0.2-0.1,0.2-0.2
		v-0.5h1v1c0,0.5-0.2,0.7-0.7,0.7h-4c-0.6,0-0.8-0.3-0.8-0.9C122,233.3,126,233.5,126,231.4L126,231.4z M129.5,233.2
		c0-2.2,0.7-4,2.8-4c2.1,0,2.8,1.8,2.8,4c0,2.2-0.7,4-2.8,4C130.2,237.2,129.5,235.4,129.5,233.2z M134,233.2c0-1.7-0.4-3-1.7-3
		c-1.3,0-1.7,1.3-1.7,3c0,1.7,0.4,3,1.7,3C133.6,236.2,134,234.9,134,233.2z M137.3,236.1h1.7v-5.6h0c0,0-0.1,0.2-0.4,0.4l-0.7,0.7
		l-0.7-0.7l1.9-1.8h1v6.8h1.7v0.9h-4.5V236.1z M144.1,235.3c0,0,0.8,0.9,2,0.9c0.9,0,1.6-0.6,1.6-1.4c0-0.9-0.8-1.4-1.7-1.4h-0.5
		l-0.2-0.6l1.6-2.1c0.2-0.3,0.4-0.5,0.4-0.5s-0.2,0-0.7,0h-1.5c-0.1,0-0.2,0.1-0.2,0.2v0.5h-1v-1c0-0.5,0.2-0.7,0.7-0.7h4.1v0.7
		l-2.1,2.5c1,0.1,2.2,0.8,2.2,2.3c0,1.3-1,2.5-2.7,2.5l-2.6-1.1L144.1,235.3z M18.5,199.9c0-2.4,0.7-4.3,3-4.3s3,1.9,3,4.3
		c0,2.4-0.7,4.3-3,4.3S18.5,202.3,18.5,199.9z M23.2,199.9c0-1.8-0.4-3.2-1.7-3.2c-1.4,0-1.7,1.4-1.7,3.2c0,1.8,0.4,3.3,1.7,3.3
		C22.8,203.1,23.2,201.7,23.2,199.9z M20.1,146.9c0,0,0.7,0.9,2,0.9c1.1,0,1.8-0.7,1.8-1.7c0-1-0.9-1.7-2-1.7
		c-0.9,0-1.6,0.4-1.6,0.4l-0.5-0.2l0.3-3.4c0-0.5,0.2-0.8,0.8-0.8h2.9c0.5,0,0.8,0.2,0.8,0.8v1.1h-1.1v-0.5c0-0.2-0.1-0.3-0.3-0.3
		h-1.7c-0.2,0-0.2,0.1-0.3,0.3l-0.2,1.5c0,0.3,0,0.4,0,0.4h0c0,0,0.4-0.3,1.1-0.3c1.8,0,3,1.2,3,2.7c0,1.5-1.2,2.8-3,2.8
		c-1.7,0-2.6-1.2-2.6-1.2L20.1,146.9z M12.4,92.7h1.8v-6h0c0,0-0.1,0.2-0.4,0.5L13.1,88l-0.7-0.7l2-1.9h1.1v7.3h1.8v1h-4.8V92.7z
		 M19.3,89.5c0-2.4,0.7-4.3,3-4.3s3,1.9,3,4.3c0,2.4-0.7,4.3-3,4.3S19.3,91.9,19.3,89.5z M24,89.5c0-1.8-0.4-3.2-1.7-3.2
		c-1.4,0-1.7,1.4-1.7,3.2c0,1.8,0.4,3.3,1.7,3.3C23.6,92.7,24,91.3,24,89.5z M12.5,38.3h1.8v-6h0c0,0-0.1,0.2-0.4,0.5l-0.8,0.8
		l-0.7-0.7l2-1.9h1.1v7.3h1.8v1h-4.8L12.5,38.3z M20.1,37.4c0,0,0.7,0.9,2,0.9c1.1,0,1.8-0.7,1.8-1.7c0-1-0.9-1.7-2-1.7
		c-0.9,0-1.6,0.4-1.6,0.4l-0.5-0.2l0.3-3.4c0-0.5,0.2-0.8,0.8-0.8h2.9c0.5,0,0.8,0.2,0.8,0.8v1.1h-1.1v-0.5c0-0.2-0.1-0.3-0.3-0.3
		h-1.7c-0.2,0-0.2,0.1-0.3,0.3L21,33.8c0,0.3,0,0.4,0,0.4h0c0,0,0.4-0.3,1.1-0.3c1.8,0,3,1.2,3,2.7c0,1.5-1.2,2.8-3,2.8
		c-1.7,0-2.6-1.2-2.6-1.2L20.1,37.4z M157.8,312.9H157v-1h3.4c1.4,0,2.4,0.9,2.4,2.3c0,1.3-0.9,2-1.4,2.1v0c0,0,0.2,0.1,0.4,0.4
		l0.9,1.9c0.1,0.2,0.3,0.3,0.6,0.3h0.1v1h-0.5c-0.6,0-0.9-0.1-1.1-0.6l-1.1-2.1c-0.2-0.4-0.4-0.4-0.8-0.4h-1v3.2h-1.1L157.8,312.9
		L157.8,312.9z M160.4,315.7c0.9,0,1.3-0.5,1.3-1.4s-0.5-1.4-1.3-1.4h-1.5v2.9L160.4,315.7L160.4,315.7z M167.9,314
		c1.6,0,2.5,1.2,2.5,2.7c0,0.1,0,0.4,0,0.4h-4.2c0.1,1.2,0.9,1.9,2,1.9c1,0,1.7-0.7,1.7-0.7l0.5,0.8c0,0-0.9,0.9-2.2,0.9
		c-1.8,0-3-1.3-3-3C165,315.2,166.2,314,167.9,314L167.9,314z M169.2,316.3c0-0.9-0.6-1.4-1.3-1.4c-0.9,0-1.5,0.5-1.7,1.4H169.2z
		 M175.4,314c0.7,0,2.1,0.3,2.1,1.3v0.6h-1v-0.3c0-0.4-0.6-0.6-1.1-0.6c-1.1,0-1.9,0.9-1.9,2.1c0,1.3,0.9,2,2,2l1.7-0.8l0.5,0.8
		c0,0-0.8,1-2.3,1c-1.8,0-3-1.3-3-3C172.4,315.4,173.6,314,175.4,314z M182.5,314c1.7,0,3.1,1.3,3.1,3c0,1.7-1.4,3-3.1,3
		c-1.7,0-3-1.3-3-3C179.5,315.3,180.8,314,182.5,314z M182.5,319.1c1.1,0,2-0.9,2-2.1c0-1.2-0.9-2-2-2c-1.1,0-1.9,0.9-1.9,2
		C180.6,318.2,181.5,319.1,182.5,319.1z M188.1,315.4c0-0.2-0.1-0.3-0.3-0.3h-0.4v-0.9h1c0.5,0,0.7,0.2,0.7,0.7v0.8
		c0.3-0.9,0.9-1.5,1.8-1.5c0.1,0,0.3,0,0.3,0v1.1c0,0-0.1,0-0.3,0c-0.7,0-1.3,0.5-1.6,1.3c-0.1,0.3-0.1,0.7-0.1,1v2.3h-1.1V315.4z
		 M195.4,314c1.3,0,1.7,0.9,1.7,0.9v-1.8c0-0.2-0.1-0.3-0.3-0.3h-0.4v-0.9h1.1c0.5,0,0.7,0.2,0.7,0.7v6c0,0.2,0.1,0.3,0.3,0.3h0.4
		v0.9h-1c-0.5,0-0.7-0.2-0.7-0.6v-0.3c0,0-0.5,1-1.9,1c-1.5,0-2.5-1.2-2.5-3C192.8,315.2,193.9,314,195.4,314L195.4,314z M197.2,317
		c0-1-0.5-2-1.6-2c-0.9,0-1.6,0.8-1.6,2.1c0,1.3,0.7,2.1,1.6,2.1C196.4,319.1,197.2,318.4,197.2,317L197.2,317z M204.2,316.3h0.3v0
		c0-1-0.4-1.3-1.3-1.3c-0.3,0-0.9,0.1-0.9,0.4v0.3h-1v-0.6c0-0.9,1.4-1.1,2-1.1c1.8,0,2.3,1,2.3,2.2v2.4c0,0.2,0.1,0.3,0.3,0.3h0.4
		v0.9h-1c-0.5,0-0.7-0.3-0.7-0.7c0-0.2,0-0.4,0-0.4h0c0,0-0.4,1.1-1.8,1.1c-1,0-1.9-0.6-1.9-1.7
		C200.8,316.4,203.3,316.3,204.2,316.3L204.2,316.3z M203,319.1c0.9,0,1.5-1,1.5-1.8v-0.2h-0.3c-0.8,0-2.3,0-2.3,1.1
		C201.9,318.7,202.2,319.1,203,319.1L203,319.1z M208.5,313.1c0-0.2-0.1-0.3-0.3-0.3h-0.4v-0.9h1.1c0.5,0,0.7,0.2,0.7,0.7v2.3
		c0,0,0.5-0.9,1.8-0.9c1.5,0,2.5,1.2,2.5,3c0,1.8-1.1,3-2.6,3c-1.3,0-1.8-0.9-1.8-0.9h0c0,0,0,0.2,0,0.4v0.4h-1L208.5,313.1z
		 M211.2,319.1c0.9,0,1.7-0.8,1.7-2.1c0-1.3-0.7-2.1-1.6-2.1c-0.9,0-1.6,0.6-1.6,2.1C209.6,318,210.1,319.1,211.2,319.1z
		 M216.3,313.1c0-0.2-0.1-0.3-0.3-0.3h-0.4v-0.9h1.1c0.5,0,0.7,0.2,0.7,0.7v6c0,0.2,0.1,0.3,0.3,0.3h0.4v0.9h-1.1
		c-0.5,0-0.7-0.2-0.7-0.7V313.1z M222.8,314c1.6,0,2.5,1.2,2.5,2.7c0,0.1,0,0.4,0,0.4H221c0.1,1.2,0.9,1.9,2,1.9
		c1,0,1.7-0.7,1.7-0.7l0.5,0.8c0,0-0.9,0.9-2.2,0.9c-1.8,0-3-1.3-3-3C219.9,315.2,221.2,314,222.8,314L222.8,314z M224.1,316.3
		c0-0.9-0.6-1.4-1.3-1.4c-0.9,0-1.5,0.5-1.7,1.4H224.1z M157.1,332.4h0.8v-6h-0.8v-1h2.6v1H159v6h0.8v1h-2.6V332.4z M162.3,328.9
		c0-0.2-0.1-0.3-0.3-0.3h-0.4v-0.9h1c0.5,0,0.7,0.2,0.7,0.6v0.5c0.2-0.5,0.9-1.3,2.1-1.3c1.3,0,2,0.7,2,2.2v2.5
		c0,0.2,0.1,0.3,0.3,0.3h0.4v0.9h-1.1c-0.5,0-0.7-0.2-0.7-0.7V330c0-0.8-0.2-1.4-1.1-1.4c-0.9,0-1.6,0.6-1.8,1.4
		c-0.1,0.2-0.1,0.5-0.1,0.8v2.7h-1.1L162.3,328.9z M169.5,334.7c0.4,0,1.2-0.1,1.2-1.3v-4.7c0-0.2-0.1-0.3-0.3-0.3H170v-0.9h1.1
		c0.5,0,0.7,0.2,0.7,0.7v5.1c0,1.9-1.5,2.1-2.2,2.1c-0.2,0-0.4,0-0.4,0v-0.9C169.2,334.7,169.4,334.7,169.5,334.7L169.5,334.7z
		 M170.7,325.4h1v1.1h-1V325.4z M174.8,328.9c0-0.2-0.1-0.3-0.3-0.3H174v-0.9h1.1c0.5,0,0.7,0.2,0.7,0.7v2.7c0,0.8,0.2,1.4,1.1,1.4
		c1.2,0,1.8-1,1.8-2.1v-2.7h1.1v4.5c0,0.2,0.1,0.3,0.3,0.3h0.4v0.9h-1c-0.5,0-0.7-0.2-0.7-0.6v-0.5h0c-0.2,0.6-1,1.3-2.1,1.3
		c-1.3,0-1.9-0.7-1.9-2.2L174.8,328.9z M182.9,328.9c0-0.2-0.1-0.3-0.3-0.3h-0.4v-0.9h1c0.5,0,0.7,0.2,0.7,0.7v0.8
		c0.3-0.9,0.9-1.5,1.8-1.5c0.1,0,0.3,0,0.3,0v1.1c0,0-0.1,0-0.3,0c-0.7,0-1.3,0.5-1.6,1.3c-0.1,0.3-0.1,0.7-0.1,1v2.3h-1.1V328.9z
		 M188.5,328.9c0-0.2-0.1-0.3-0.3-0.3h-0.4v-0.9h1.1c0.5,0,0.7,0.2,0.7,0.7v3.8c0,0.2,0.1,0.3,0.3,0.3h0.4v0.9h-1.1
		c-0.5,0-0.7-0.2-0.7-0.7V328.9z M188.5,325.4h1v1.1h-1V325.4z M194.9,327.5c1.6,0,2.5,1.2,2.5,2.7c0,0.1,0,0.4,0,0.4h-4.2
		c0.1,1.2,0.9,1.9,2,1.9c1,0,1.7-0.7,1.7-0.7l0.5,0.8c0,0-0.9,0.9-2.2,0.9c-1.8,0-3-1.3-3-3C192.1,328.7,193.3,327.5,194.9,327.5
		L194.9,327.5z M196.2,329.9c0-0.9-0.6-1.4-1.3-1.4c-0.9,0-1.5,0.5-1.7,1.4H196.2z M199.9,331.8c0,0,0.7,0.9,1.7,0.9
		c0.5,0,1-0.2,1-0.7c0-1-3.1-0.9-3.1-2.7c0-1.1,0.9-1.6,2.1-1.6c0.7,0,1.9,0.2,1.9,1.1v0.5h-1V329c0-0.4-0.5-0.5-0.9-0.5
		c-0.6,0-1.1,0.2-1.1,0.7c0,1.1,3.1,0.9,3.1,2.7c0,1-0.9,1.7-2.1,1.7c-1.5,0-2.3-1-2.3-1L199.9,331.8z M305.5,317.2h-1.7
		c-0.2,0-0.3,0.1-0.3,0.3v0.5h-1.1v-1.1c0-0.5,0.2-0.7,0.7-0.7h5.8c0.5,0,0.7,0.2,0.7,0.7v1.1h-1.1v-0.5c0-0.2-0.1-0.3-0.3-0.3h-1.7
		v7.4h-1.2L305.5,317.2L305.5,317.2z M312.3,317.2h-0.8v-1h3.7c1.5,0,2.5,0.9,2.5,2.5c0,1.4-0.9,2.1-1.5,2.2v0c0,0,0.2,0.1,0.4,0.4
		l1,2c0.1,0.3,0.3,0.3,0.6,0.3h0.1v1h-0.6c-0.7,0-0.9-0.1-1.2-0.6l-1.2-2.3c-0.2-0.4-0.4-0.4-0.9-0.4h-1.1v3.4h-1.2L312.3,317.2
		L312.3,317.2z M315.1,320.3c0.9,0,1.4-0.6,1.4-1.5s-0.5-1.5-1.4-1.5h-1.6v3L315.1,320.3z M320.8,319.9c0-0.2-0.1-0.3-0.3-0.3H320
		v-1h1.1c0.5,0,0.8,0.2,0.8,0.8v4c0,0.2,0.1,0.3,0.3,0.3h0.5v1h-1.1c-0.5,0-0.8-0.2-0.8-0.8V319.9z M320.8,316.2h1v1.2h-1V316.2z
		 M325.4,317.2h-0.8v-1h4.7c0.5,0,0.8,0.2,0.8,0.8v1.1H329v-0.5c0-0.2-0.1-0.3-0.3-0.3h-2.1v2.8h2.9v1h-2.9v3.6h-1.2V317.2z
		 M332.7,317.2H332v-1h3.7c1.5,0,2.5,0.9,2.5,2.5c0,1.4-0.9,2.1-1.5,2.2v0c0,0,0.2,0.1,0.4,0.4l1,2c0.1,0.3,0.3,0.3,0.6,0.3h0.1v1
		h-0.6c-0.7,0-0.9-0.1-1.2-0.6l-1.2-2.3c-0.2-0.4-0.4-0.4-0.9-0.4h-1.1v3.4h-1.2L332.7,317.2L332.7,317.2z M335.5,320.3
		c0.9,0,1.4-0.6,1.4-1.5s-0.5-1.5-1.4-1.5h-1.6v3L335.5,320.3z M206.7,231.4c0-0.7-0.5-1.3-1.4-1.3c-0.7,0-1.2,0.4-1.2,0.8v0.4h-1
		v-0.7c0-1,1.3-1.4,2.3-1.4c1.4,0,2.5,0.9,2.5,2.2c0,2.7-3.9,2.7-3.9,4.5c0,0.1,0.1,0.2,0.3,0.2h2.8c0.1,0,0.2-0.1,0.2-0.2v-0.5h1v1
		c0,0.5-0.2,0.7-0.7,0.7h-4c-0.6,0-0.8-0.3-0.8-0.9C202.7,233.3,206.7,233.5,206.7,231.4L206.7,231.4z M210.3,233.2
		c0-2.2,0.7-4,2.8-4c2.1,0,2.8,1.8,2.8,4s-0.7,4-2.8,4C211,237.2,210.3,235.4,210.3,233.2z M214.7,233.2c0-1.7-0.4-3-1.7-3
		c-1.3,0-1.7,1.3-1.7,3c0,1.7,0.4,3,1.7,3C214.4,236.2,214.7,234.9,214.7,233.2z M218.1,236.1h1.7v-5.6h0c0,0-0.1,0.2-0.4,0.4
		l-0.7,0.7l-0.7-0.7l1.9-1.8h1v6.8h1.7v0.9H218L218.1,236.1z M224,234.3l3.5-5h1.3v4.8h1.2v0.9h-1.2v2.1h-1.1V235H224L224,234.3z
		 M227.7,231.4c0-0.4,0-0.8,0-0.8s-0.2,0.4-0.4,0.7l-1.7,2.3c-0.2,0.3-0.4,0.5-0.4,0.5v0c0,0,0.3,0,0.7,0h1.8L227.7,231.4z"/>
	<path class="st2" d="M160.3,260.8c0-0.1-0.1-0.2-0.2-0.2h-0.4v-0.8h0.9c0.4,0,0.6,0.2,0.6,0.6v5c0,0.1,0.1,0.2,0.2,0.2h1.8
		c0.1,0,0.2-0.1,0.2-0.2v-0.4h0.9v0.8c0,0.4-0.2,0.6-0.6,0.6h-2.8c-0.4,0-0.6-0.2-0.6-0.6L160.3,260.8z M168,259.7h0.6l-0.4,1.8
		h-0.9L168,259.7z M168.8,265.5h0.1c0.2,0,0.3,0,0.3-0.2l2.1-5.6h1l2.1,5.6c0,0.2,0.1,0.2,0.3,0.2h0.1v0.8h-0.5
		c-0.4,0-0.6-0.1-0.8-0.5l-0.5-1.3h-2.4l-0.5,1.3c-0.2,0.4-0.3,0.5-0.8,0.5h-0.5L168.8,265.5z M172.7,263.7l-0.7-2
		c-0.1-0.4-0.3-0.9-0.3-0.9s-0.1,0.6-0.3,0.9l-0.7,2H172.7z M176,262.6c0-0.1-0.1-0.2-0.2-0.2h-0.4v-0.8h0.9c0.4,0,0.6,0.2,0.6,0.5
		v0.4c0.2-0.4,0.8-1.1,1.7-1.1c1.1,0,1.6,0.6,1.6,1.8v2c0,0.1,0.1,0.2,0.2,0.2h0.4v0.8h-0.9c-0.4,0-0.6-0.2-0.6-0.6v-2.2
		c0-0.7-0.1-1.2-0.9-1.2c-0.7,0-1.3,0.5-1.5,1.2c0,0.2-0.1,0.4-0.1,0.6v2.2h-0.9L176,262.6z M183.8,261.5c1.1,0,1.4,0.7,1.4,0.7
		v-1.5c0-0.1-0.1-0.2-0.2-0.2h-0.4v-0.8h0.9c0.4,0,0.6,0.2,0.6,0.6v5c0,0.1,0.1,0.2,0.2,0.2h0.4v0.8h-0.9c-0.4,0-0.6-0.2-0.6-0.5
		v-0.2c0,0-0.4,0.9-1.5,0.9c-1.3,0-2.1-1-2.1-2.5C181.7,262.5,182.6,261.5,183.8,261.5L183.8,261.5z M185.3,264
		c0-0.9-0.4-1.7-1.3-1.7c-0.7,0-1.3,0.6-1.3,1.7s0.5,1.7,1.3,1.7C184.6,265.7,185.3,265.2,185.3,264z M190.5,263.4h0.2v0
		c0-0.8-0.3-1.1-1-1.1c-0.2,0-0.8,0-0.8,0.4v0.3h-0.9v-0.4c0-0.8,1.2-0.9,1.6-0.9c1.5,0,1.9,0.8,1.9,1.8v2c0,0.1,0.1,0.2,0.2,0.2
		h0.4v0.8h-0.9c-0.4,0-0.6-0.2-0.6-0.5v-0.3c0,0-0.4,0.9-1.5,0.9c-0.8,0-1.6-0.5-1.6-1.4C187.7,263.5,189.7,263.4,190.5,263.4
		L190.5,263.4z M189.5,265.7c0.8,0,1.3-0.8,1.3-1.5v-0.2h-0.2c-0.7,0-1.9,0-1.9,0.9C188.6,265.4,188.9,265.7,189.5,265.7
		L189.5,265.7z M193.6,262.6c0-0.1-0.1-0.2-0.2-0.2H193v-0.8h0.9c0.4,0,0.6,0.2,0.6,0.5v0.4c0.2-0.5,0.9-1.1,1.6-1.1
		c0.8,0,1.3,0.4,1.4,1.1c0.3-0.6,0.9-1.1,1.7-1.1c1.1,0,1.6,0.6,1.6,1.8v2c0,0.1,0.1,0.2,0.2,0.2h0.4v0.8h-0.9
		c-0.4,0-0.6-0.2-0.6-0.6v-2.2c0-0.7-0.1-1.2-0.8-1.2c-0.6,0-1.2,0.6-1.3,1.2c0,0.2-0.1,0.4-0.1,0.6v2.1h-0.9v-2.8
		c0-0.6-0.1-1.2-0.8-1.2c-0.7,0-1.2,0.6-1.3,1.3c0,0.2,0,0.4,0,0.6v2.1h-0.9L193.6,262.6z M204.5,261.5c1.3,0,2,1,2,2.2
		c0,0.1,0,0.4,0,0.4H203c0,1,0.8,1.6,1.6,1.6c0.8,0,1.4-0.5,1.4-0.5l0.4,0.6c0,0-0.7,0.7-1.8,0.7c-1.5,0-2.5-1.1-2.5-2.5
		C202.1,262.5,203.2,261.5,204.5,261.5z M205.6,263.4c0-0.8-0.5-1.2-1.1-1.2c-0.7,0-1.3,0.4-1.4,1.2H205.6z M208.1,262.6
		c0-0.1-0.1-0.2-0.2-0.2h-0.4v-0.8h0.9c0.4,0,0.6,0.2,0.6,0.5v0.4c0.2-0.4,0.8-1.1,1.7-1.1c1.1,0,1.6,0.6,1.6,1.8v2
		c0,0.1,0.1,0.2,0.2,0.2h0.4v0.8H212c-0.4,0-0.6-0.2-0.6-0.6v-2.2c0-0.7-0.1-1.2-0.9-1.2c-0.7,0-1.3,0.5-1.5,1.2
		c0,0.2-0.1,0.4-0.1,0.6v2.2h-0.9L208.1,262.6z M214.3,262.4h-0.6v-0.7h0.6v-1.3h0.9v1.3h1.1v0.7h-1.1v2.1c0,0.9,0.6,1.1,1,1.1h0.2
		v0.8h-0.3c-0.6,0-1.8-0.2-1.8-1.7V262.4z M219.9,261.5c1.4,0,2.6,1,2.6,2.5c0,1.4-1.1,2.5-2.6,2.5s-2.5-1-2.5-2.5
		C217.4,262.5,218.5,261.5,219.9,261.5z M219.9,265.7c0.9,0,1.6-0.7,1.6-1.7c0-1-0.7-1.7-1.6-1.7s-1.6,0.7-1.6,1.7
		C218.3,265,219,265.7,219.9,265.7z M228.4,261.5c1.1,0,1.4,0.7,1.4,0.7v-1.5c0-0.1-0.1-0.2-0.2-0.2h-0.4v-0.8h0.9
		c0.4,0,0.6,0.2,0.6,0.6v5c0,0.1,0.1,0.2,0.2,0.2h0.4v0.8h-0.9c-0.4,0-0.6-0.2-0.6-0.5v-0.2c0,0-0.4,0.9-1.5,0.9
		c-1.3,0-2.1-1-2.1-2.5C226.3,262.5,227.2,261.5,228.4,261.5z M229.9,264c0-0.9-0.4-1.7-1.3-1.7c-0.7,0-1.3,0.6-1.3,1.7
		s0.5,1.7,1.3,1.7C229.2,265.7,229.9,265.2,229.9,264z M234.6,261.5c1.3,0,2,1,2,2.2c0,0.1,0,0.4,0,0.4h-3.4c0,1,0.8,1.6,1.6,1.6
		c0.8,0,1.4-0.5,1.4-0.5l0.4,0.6c0,0-0.7,0.7-1.8,0.7c-1.5,0-2.5-1.1-2.5-2.5C232.3,262.5,233.3,261.5,234.6,261.5L234.6,261.5z
		 M235.7,263.4c0-0.8-0.5-1.2-1.1-1.2c-0.7,0-1.3,0.4-1.4,1.2H235.7z M239.8,261.5c1.2,0,1.5,0.7,1.5,0.7v-0.1
		c0-0.3,0.1-0.5,0.5-0.5h0.9v0.8h-0.4c-0.1,0-0.2,0-0.2,0.2v3.5c0,1.6-1.2,2.1-2.4,2.1c-0.6,0-1.1-0.2-1.6-0.4l0.3-0.7
		c0,0,0.6,0.3,1.3,0.3c0.8,0,1.5-0.4,1.5-1.3v-0.6c-0.3,0.4-0.7,0.7-1.4,0.7c-1.3,0-2.1-1-2.1-2.4
		C237.8,262.5,238.5,261.5,239.8,261.5L239.8,261.5z M241.3,263.9c0-1.2-0.6-1.6-1.3-1.6c-0.8,0-1.3,0.6-1.3,1.6
		c0,1,0.5,1.7,1.3,1.7C240.7,265.5,241.3,265.1,241.3,263.9z M244.1,260.7c0-0.1-0.1-0.2-0.2-0.2h-0.4v-0.8h0.9
		c0.4,0,0.6,0.2,0.6,0.6v5c0,0.1,0.1,0.2,0.2,0.2h0.4v0.8h-0.9c-0.4,0-0.6-0.2-0.6-0.6V260.7z M247,262.6c0-0.1-0.1-0.2-0.2-0.2
		h-0.4v-0.8h0.9c0.4,0,0.6,0.2,0.6,0.6v3.1c0,0.1,0.1,0.2,0.2,0.2h0.4v0.8h-0.9c-0.4,0-0.6-0.2-0.6-0.6V262.6z M247,259.8h0.8v0.9
		H247V259.8z M252.8,262.6c0-0.1-0.1-0.2-0.2-0.2h-0.4v-0.8h0.9c0.4,0,0.6,0.2,0.6,0.6v3.1c0,0.1,0.1,0.2,0.2,0.2h0.4v0.8h-0.9
		c-0.4,0-0.6-0.2-0.6-0.6V262.6z M252.8,259.8h0.8v0.9h-0.8V259.8z M255.6,262.6c0-0.1-0.1-0.2-0.2-0.2h-0.4v-0.8h0.9
		c0.4,0,0.6,0.2,0.6,0.5v0.4c0.2-0.4,0.8-1.1,1.7-1.1c1.1,0,1.6,0.6,1.6,1.8v2c0,0.1,0.1,0.2,0.2,0.2h0.4v0.8h-0.9
		c-0.4,0-0.6-0.2-0.6-0.6v-2.2c0-0.7-0.1-1.2-0.9-1.2c-0.7,0-1.3,0.5-1.5,1.2c0,0.2-0.1,0.4-0.1,0.6v2.2h-0.9L255.6,262.6z
		 M263.5,261.5c1.1,0,1.4,0.7,1.4,0.7v-1.5c0-0.1-0.1-0.2-0.2-0.2h-0.4v-0.8h0.9c0.4,0,0.6,0.2,0.6,0.6v5c0,0.1,0.1,0.2,0.2,0.2h0.4
		v0.8h-0.9c-0.4,0-0.6-0.2-0.6-0.5v-0.2c0,0-0.4,0.9-1.5,0.9c-1.3,0-2.1-1-2.1-2.5C261.4,262.5,262.3,261.5,263.5,261.5z M265,264
		c0-0.9-0.4-1.7-1.3-1.7c-0.7,0-1.3,0.6-1.3,1.7s0.5,1.7,1.3,1.7C264.3,265.7,265,265.2,265,264z M267.9,262.6
		c0-0.1-0.1-0.2-0.2-0.2h-0.4v-0.8h0.9c0.4,0,0.6,0.2,0.6,0.6v3.1c0,0.1,0.1,0.2,0.2,0.2h0.4v0.8h-0.9c-0.4,0-0.6-0.2-0.6-0.6V262.6
		z M267.9,259.8h0.8v0.9h-0.8V259.8z M272.8,261.5c0.6,0,1.7,0.2,1.7,1v0.5h-0.8v-0.3c0-0.3-0.5-0.5-0.9-0.5c-0.9,0-1.6,0.7-1.6,1.7
		c0,1.1,0.8,1.7,1.7,1.7l1.5-0.6l0.4,0.6c0,0-0.7,0.8-1.9,0.8c-1.5,0-2.5-1-2.5-2.5C270.3,262.6,271.3,261.5,272.8,261.5
		L272.8,261.5z M276.1,262.6c0-0.1-0.1-0.2-0.2-0.2h-0.4v-0.8h0.9c0.4,0,0.6,0.2,0.6,0.6v3.1c0,0.1,0.1,0.2,0.2,0.2h0.4v0.8h-0.9
		c-0.4,0-0.6-0.2-0.6-0.6V262.6z M276.1,259.8h0.8v0.9h-0.8V259.8z M283.5,261.5c1.1,0,1.4,0.7,1.4,0.7v-1.5c0-0.1-0.1-0.2-0.2-0.2
		h-0.4v-0.8h0.9c0.4,0,0.6,0.2,0.6,0.6v5c0,0.1,0.1,0.2,0.2,0.2h0.4v0.8h-0.9c-0.4,0-0.6-0.2-0.6-0.5v-0.2c0,0-0.4,0.9-1.5,0.9
		c-1.3,0-2.1-1-2.1-2.5C281.4,262.5,282.3,261.5,283.5,261.5z M285,264c0-0.9-0.4-1.7-1.3-1.7c-0.7,0-1.3,0.6-1.3,1.7
		s0.5,1.7,1.3,1.7C284.3,265.7,285,265.2,285,264z M287.8,262.6c0-0.1-0.1-0.2-0.2-0.2h-0.4v-0.8h0.9c0.4,0,0.6,0.2,0.6,0.6v3.1
		c0,0.1,0.1,0.2,0.2,0.2h0.4v0.8h-0.9c-0.4,0-0.6-0.2-0.6-0.6V262.6z M287.9,259.8h0.8v0.9h-0.8V259.8z M293.5,265
		c0,0,0.5,0.7,1.4,0.7c0.4,0,0.8-0.2,0.8-0.6c0-0.9-2.6-0.8-2.6-2.3c0-0.9,0.8-1.3,1.7-1.3c0.6,0,1.5,0.2,1.5,0.9v0.4h-0.8v-0.2
		c0-0.3-0.4-0.4-0.7-0.4c-0.5,0-0.9,0.2-0.9,0.5c0,0.9,2.6,0.7,2.6,2.3c0,0.9-0.8,1.4-1.7,1.4c-1.3,0-1.9-0.8-1.9-0.8L293.5,265z
		 M298.2,262.6c0-0.1-0.1-0.2-0.2-0.2h-0.4v-0.8h0.9c0.4,0,0.6,0.2,0.6,0.6v3.1c0,0.1,0.1,0.2,0.2,0.2h0.4v0.8h-0.9
		c-0.4,0-0.6-0.2-0.6-0.6V262.6z M298.2,259.8h0.8v0.9h-0.8V259.8z M303.1,261.5c0.6,0,1.7,0.2,1.7,1v0.5H304v-0.3
		c0-0.3-0.5-0.5-0.9-0.5c-0.9,0-1.6,0.7-1.6,1.7c0,1.1,0.8,1.7,1.7,1.7l1.5-0.6l0.4,0.6c0,0-0.7,0.8-1.9,0.8c-1.5,0-2.5-1-2.5-2.5
		C300.6,262.6,301.7,261.5,303.1,261.5L303.1,261.5z M306.4,262.6c0-0.1-0.1-0.2-0.2-0.2h-0.4v-0.8h0.9c0.4,0,0.6,0.2,0.6,0.6v2.2
		c0,0.6,0.1,1.2,0.9,1.2c1,0,1.5-0.9,1.5-1.8v-2.2h0.9v3.7c0,0.1,0.1,0.2,0.2,0.2h0.4v0.8h-0.9c-0.4,0-0.6-0.2-0.6-0.5v-0.4
		c-0.2,0.4-0.8,1.1-1.7,1.1c-1.1,0-1.6-0.5-1.6-1.8L306.4,262.6z M312.5,262.6c0-0.1-0.1-0.2-0.2-0.2H312v-0.8h0.9
		c0.4,0,0.6,0.2,0.6,0.5v0.6c0.2-0.7,0.8-1.2,1.5-1.2h0.2v0.9c0,0-0.1,0-0.3,0c-0.6,0-1.1,0.4-1.3,1.1c-0.1,0.3-0.1,0.5-0.1,0.9v1.9
		h-0.9V262.6z M318.2,261.5c1.3,0,2,1,2,2.2c0,0.1,0,0.4,0,0.4h-3.4c0,1,0.8,1.6,1.6,1.6c0.8,0,1.4-0.5,1.4-0.5l0.4,0.6
		c0,0-0.7,0.7-1.8,0.7c-1.5,0-2.5-1.1-2.5-2.5C315.8,262.5,316.8,261.5,318.2,261.5L318.2,261.5z M319.3,263.4
		c0-0.8-0.5-1.2-1.1-1.2c-0.7,0-1.3,0.4-1.4,1.2H319.3z M321.3,265.8l2.4-3c0.2-0.3,0.4-0.4,0.4-0.4h-1.7c-0.1,0-0.2,0.1-0.2,0.2
		v0.3h-0.9v-0.7c0-0.4,0.2-0.6,0.6-0.6h3.4v0.5l-2.4,3c-0.2,0.2-0.4,0.4-0.4,0.4h2c0.1,0,0.2-0.1,0.2-0.2V265h0.8v0.7
		c0,0.4-0.2,0.6-0.6,0.6h-3.6L321.3,265.8L321.3,265.8z M326.3,265.8l2.4-3c0.2-0.3,0.4-0.4,0.4-0.4h-1.7c-0.1,0-0.2,0.1-0.2,0.2
		v0.3h-0.8v-0.7c0-0.4,0.2-0.6,0.6-0.6h3.4v0.5l-2.4,3c-0.2,0.2-0.4,0.4-0.4,0.4h2c0.1,0,0.2-0.1,0.2-0.2V265h0.8v0.7
		c0,0.4-0.2,0.6-0.6,0.6h-3.6V265.8z M334.2,263.4h0.2v0c0-0.8-0.3-1.1-1-1.1c-0.2,0-0.8,0-0.8,0.4v0.3h-0.9v-0.4
		c0-0.8,1.2-0.9,1.6-0.9c1.5,0,1.9,0.8,1.9,1.8v2c0,0.1,0.1,0.2,0.2,0.2h0.4v0.8h-0.9c-0.4,0-0.6-0.2-0.6-0.5v-0.3
		c0,0-0.4,0.9-1.5,0.9c-0.8,0-1.6-0.5-1.6-1.4C331.4,263.5,333.5,263.4,334.2,263.4L334.2,263.4z M333.2,265.7
		c0.8,0,1.3-0.8,1.3-1.5v-0.2h-0.2c-0.7,0-1.9,0-1.9,0.9C332.3,265.4,332.6,265.7,333.2,265.7z"/>
	<path class="st1" d="M285.8,231.4c0-0.7-0.5-1.3-1.4-1.3c-0.7,0-1.2,0.4-1.2,0.8v0.4h-1v-0.7c0-1,1.3-1.4,2.3-1.4
		c1.4,0,2.5,0.9,2.5,2.2c0,2.7-3.9,2.7-3.9,4.5c0,0.1,0.1,0.2,0.3,0.2h2.8c0.1,0,0.2-0.1,0.2-0.2v-0.5h1v1c0,0.5-0.2,0.7-0.7,0.7h-4
		c-0.6,0-0.8-0.3-0.8-0.9C281.8,233.3,285.8,233.5,285.8,231.4L285.8,231.4z M289.4,233.2c0-2.2,0.7-4,2.8-4c2.1,0,2.8,1.8,2.8,4
		c0,2.2-0.7,4-2.8,4S289.4,235.4,289.4,233.2z M293.8,233.2c0-1.7-0.4-3-1.7-3s-1.7,1.3-1.7,3c0,1.7,0.4,3,1.7,3
		C293.4,236.2,293.8,234.9,293.8,233.2z M297.2,236.1h1.7v-5.6h0c0,0-0.1,0.2-0.4,0.4l-0.7,0.7l-0.7-0.7l1.9-1.8h1v6.8h1.7v0.9h-4.5
		L297.2,236.1z M304.2,235.3c0,0,0.6,0.9,1.8,0.9c1,0,1.7-0.7,1.7-1.6c0-1-0.9-1.6-1.9-1.6c-0.9,0-1.5,0.4-1.5,0.4l-0.4-0.2l0.3-3.2
		c0-0.5,0.2-0.7,0.7-0.7h2.7c0.5,0,0.7,0.2,0.7,0.7v1h-1v-0.4c0-0.2-0.1-0.2-0.2-0.2h-1.7c-0.1,0-0.2,0.1-0.2,0.2l-0.1,1.4
		c0,0.2,0,0.4,0,0.4h0c0,0,0.4-0.2,1-0.2c1.7,0,2.8,1.1,2.8,2.6c0,1.4-1.1,2.6-2.8,2.6c-1.6,0-2.4-1.1-2.4-1.1L304.2,235.3z
		 M365.7,231.4c0-0.7-0.5-1.3-1.4-1.3c-0.7,0-1.2,0.4-1.2,0.8v0.4h-1v-0.7c0-1,1.3-1.4,2.3-1.4c1.4,0,2.5,0.9,2.5,2.2
		c0,2.7-3.9,2.7-3.9,4.5c0,0.1,0.1,0.2,0.3,0.2h2.8c0.1,0,0.2-0.1,0.2-0.2v-0.5h1v1c0,0.5-0.2,0.7-0.7,0.7h-4
		c-0.6,0-0.8-0.3-0.8-0.9C361.7,233.3,365.7,233.5,365.7,231.4L365.7,231.4z M369.2,233.2c0-2.2,0.7-4,2.8-4c2.1,0,2.8,1.8,2.8,4
		c0,2.2-0.7,4-2.8,4S369.2,235.4,369.2,233.2z M373.6,233.2c0-1.7-0.4-3-1.7-3s-1.7,1.3-1.7,3c0,1.7,0.4,3,1.7,3
		C373.3,236.2,373.6,234.9,373.6,233.2z M377,236.1h1.7v-5.6h0c0,0-0.1,0.2-0.4,0.4l-0.7,0.7l-0.7-0.7l1.9-1.8h1v6.8h1.7v0.9h-4.5
		L377,236.1z M383.3,233.6c0-2,1.1-4.5,3.5-4.5c0.9,0,1.5,0.3,1.5,0.3l-0.4,0.9c0,0-0.5-0.3-1.1-0.3c-1.4,0-2.2,1.3-2.3,2.7
		c0.3-0.5,1-0.8,1.7-0.8c1.5,0,2.5,1.1,2.5,2.6c0,1.5-1,2.6-2.5,2.6C384.5,237.2,383.3,235.8,383.3,233.6L383.3,233.6z M386.2,236.2
		c0.9,0,1.4-0.7,1.4-1.6c0-0.9-0.6-1.6-1.6-1.6c-0.9,0-1.6,0.5-1.6,1.1C384.4,235,385.2,236.2,386.2,236.2L386.2,236.2z
		 M445.5,231.4c0-0.7-0.5-1.3-1.4-1.3c-0.7,0-1.2,0.4-1.2,0.8v0.4h-1v-0.7c0-1,1.3-1.4,2.3-1.4c1.4,0,2.5,0.9,2.5,2.2
		c0,2.7-3.9,2.7-3.9,4.5c0,0.1,0.1,0.2,0.3,0.2h2.8c0.1,0,0.2-0.1,0.2-0.2v-0.5h1v1c0,0.5-0.2,0.7-0.7,0.7h-4
		c-0.6,0-0.8-0.3-0.8-0.9C441.5,233.3,445.5,233.5,445.5,231.4L445.5,231.4z M449.1,233.2c0-2.2,0.7-4,2.8-4c2.1,0,2.8,1.8,2.8,4
		c0,2.2-0.7,4-2.8,4S449.1,235.4,449.1,233.2z M453.5,233.2c0-1.7-0.4-3-1.7-3s-1.7,1.3-1.7,3c0,1.7,0.4,3,1.7,3
		C453.2,236.2,453.5,234.9,453.5,233.2z M456.9,236.1h1.7v-5.6h0c0,0-0.1,0.2-0.4,0.4l-0.7,0.7l-0.7-0.7l1.9-1.8h1v6.8h1.7v0.9h-4.5
		L456.9,236.1z M466.8,230.9c0.2-0.4,0.4-0.7,0.4-0.7s-0.2,0-0.6,0h-2.4c-0.1,0-0.2,0.1-0.2,0.2v0.5h-1v-1c0-0.5,0.2-0.7,0.7-0.7
		h4.7v0.8l-3.8,7.1h-1.2L466.8,230.9z"/>
	<circle class="st3" cx="140.1" cy="319" r="9.4"/>
	<circle class="st1" cx="286.4" cy="319" r="9.4"/>
</g>
</svg>
