<?xml version="1.0" encoding="utf-8"?>
<!-- Generator: Adobe Illustrator 22.0.0, SVG Export Plug-In . SVG Version: 6.00 Build 0)  -->
<svg version="1.1" id="Livello_1" xmlns="http://www.w3.org/2000/svg" xmlns:xlink="http://www.w3.org/1999/xlink" x="0px" y="0px"
	 viewBox="0 0 1118 750" style="enable-background:new 0 0 1118 750;" xml:space="preserve">
<style type="text/css">
	.st0{fill:#00295A;}
	.st1{fill:#5565FB;}
	.st2{fill:#4E5594;}
	.st3{fill:#00245B;}
</style>
<g>
	<g>
		<path class="st0" d="M1117.1,557.4H8.8c-4.6,0-8.3-3.7-8.3-8.3V-0.3c0-0.3,0.2-0.5,0.5-0.5s0.5,0.2,0.5,0.5v549.4
			c0,4,3.3,7.3,7.3,7.3H1117c0.3,0,0.5,0.2,0.5,0.5S1117.3,557.4,1117.1,557.4z"/>
	</g>
	<g>
		<path class="st0" d="M1064.9,79.2c0-0.5,0.5-1,1-1l0,0c0.6,0,1,0.4,1,1l0,0c0,0.6-0.5,1-1,1l0,0
			C1065.3,80.2,1064.9,79.7,1064.9,79.2z M1055.9,79.2c0-0.5,0.5-1,1-1l0,0c0.6,0,1,0.4,1,1l0,0c0,0.6-0.4,1-1,1l0,0
			C1056.3,80.2,1055.9,79.7,1055.9,79.2z M1046.9,79.2c0-0.5,0.5-1,1-1l0,0c0.5,0,1,0.4,1,1l0,0c0,0.6-0.5,1-1,1l0,0
			C1047.3,80.2,1046.9,79.7,1046.9,79.2z M1037.9,79.2c0-0.5,0.4-1,1-1l0,0c0.6,0,1,0.4,1,1l0,0c0,0.6-0.4,1-1,1l0,0
			C1038.3,80.2,1037.9,79.7,1037.9,79.2z M1028.9,79.2c0-0.5,0.5-1,1-1l0,0c0.5,0,1,0.4,1,1l0,0c0,0.6-0.4,1-1,1l0,0
			C1029.3,80.2,1028.9,79.7,1028.9,79.2z M1019.9,79.2c0-0.5,0.5-1,1-1l0,0c0.5,0,1,0.4,1,1l0,0c0,0.6-0.5,1-1,1l0,0
			C1020.3,80.2,1019.9,79.7,1019.9,79.2z M1010.9,79.2c0-0.5,0.4-1,1-1l0,0c0.6,0,1,0.4,1,1l0,0c0,0.6-0.5,1-1,1l0,0
			C1011.3,80.2,1010.9,79.7,1010.9,79.2z M1001.9,79.2c0-0.5,0.5-1,1-1l0,0c0.5,0,1,0.4,1,1l0,0c0,0.6-0.4,1-1,1l0,0
			C1002.3,80.2,1001.9,79.7,1001.9,79.2z M992.9,79.2c0-0.5,0.5-1,1-1l0,0c0.6,0,1,0.4,1,1l0,0c0,0.6-0.5,1-1,1l0,0
			C993.3,80.2,992.9,79.7,992.9,79.2z M983.9,79.2c0-0.5,0.4-1,1-1l0,0c0.5,0,1,0.4,1,1l0,0c0,0.6-0.4,1-1,1l0,0
			C984.3,80.2,983.9,79.7,983.9,79.2z M974.9,79.2c0-0.5,0.5-1,1-1l0,0c0.5,0,1,0.4,1,1l0,0c0,0.6-0.5,1-1,1l0,0
			C975.3,80.2,974.9,79.7,974.9,79.2z M965.9,79.2c0-0.5,0.4-1,1-1l0,0c0.6,0,1,0.4,1,1l0,0c0,0.6-0.5,1-1,1l0,0
			C966.3,80.2,965.9,79.7,965.9,79.2z M956.9,79.2c0-0.5,0.5-1,1-1l0,0c0.5,0,1,0.4,1,1l0,0c0,0.6-0.4,1-1,1l0,0
			C957.3,80.2,956.9,79.7,956.9,79.2z M947.9,79.2c0-0.5,0.5-1,1-1l0,0c0.6,0,1,0.4,1,1l0,0c0,0.6-0.5,1-1,1l0,0
			C948.3,80.2,947.9,79.7,947.9,79.2z M938.9,79.2c0-0.5,0.4-1,1-1l0,0c0.6,0,1,0.4,1,1l0,0c0,0.6-0.4,1-1,1l0,0
			C939.3,80.2,938.9,79.7,938.9,79.2z M929.9,79.2c0-0.5,0.5-1,1-1l0,0c0.5,0,1,0.4,1,1l0,0c0,0.6-0.5,1-1,1l0,0
			C930.3,80.2,929.9,79.7,929.9,79.2z M920.9,79.2c0-0.5,0.4-1,1-1l0,0c0.6,0,1,0.4,1,1l0,0c0,0.6-0.5,1-1,1l0,0
			C921.3,80.2,920.9,79.7,920.9,79.2z M911.9,79.2c0-0.5,0.5-1,1-1l0,0c0.5,0,1,0.4,1,1l0,0c0,0.6-0.4,1-1,1l0,0
			C912.3,80.2,911.9,79.7,911.9,79.2z M902.9,79.2c0-0.5,0.5-1,1-1l0,0c0.6,0,1,0.4,1,1l0,0c0,0.6-0.5,1-1,1l0,0
			C903.3,80.2,902.9,79.7,902.9,79.2z M893.9,79.2c0-0.5,0.4-1,1-1l0,0c0.6,0,1,0.4,1,1l0,0c0,0.6-0.4,1-1,1l0,0
			C894.3,80.2,893.9,79.7,893.9,79.2z M884.9,79.2c0-0.5,0.5-1,1-1l0,0c0.5,0,1,0.4,1,1l0,0c0,0.6-0.5,1-1,1l0,0
			C885.3,80.2,884.9,79.7,884.9,79.2z M875.9,79.2c0-0.5,0.4-1,1-1l0,0c0.6,0,1,0.4,1,1l0,0c0,0.6-0.5,1-1,1l0,0
			C876.3,80.2,875.9,79.7,875.9,79.2z M866.9,79.2c0-0.5,0.5-1,1-1l0,0c0.5,0,1,0.4,1,1l0,0c0,0.6-0.4,1-1,1l0,0
			C867.3,80.2,866.9,79.7,866.9,79.2z M857.9,79.2c0-0.5,0.5-1,1-1l0,0c0.6,0,1,0.4,1,1l0,0c0,0.6-0.5,1-1,1l0,0
			C858.3,80.2,857.9,79.7,857.9,79.2z M848.9,79.2c0-0.5,0.4-1,1-1l0,0c0.6,0,1,0.4,1,1l0,0c0,0.6-0.4,1-1,1l0,0
			C849.3,80.2,848.9,79.7,848.9,79.2z M839.9,79.2c0-0.5,0.5-1,1-1l0,0c0.5,0,1,0.4,1,1l0,0c0,0.6-0.4,1-1,1l0,0
			C840.3,80.2,839.9,79.7,839.9,79.2z M830.9,79.2c0-0.5,0.4-1,1-1l0,0c0.6,0,1,0.4,1,1l0,0c0,0.6-0.5,1-1,1l0,0
			C831.3,80.2,830.9,79.7,830.9,79.2z M821.9,79.2c0-0.5,0.5-1,1-1l0,0c0.5,0,1,0.4,1,1l0,0c0,0.6-0.4,1-1,1l0,0
			C822.3,80.2,821.9,79.7,821.9,79.2z M812.9,79.2c0-0.5,0.5-1,1-1l0,0c0.6,0,1,0.4,1,1l0,0c0,0.6-0.5,1-1,1l0,0
			C813.3,80.2,812.9,79.7,812.9,79.2z M803.9,79.2c0-0.5,0.4-1,1-1l0,0c0.6,0,1,0.4,1,1l0,0c0,0.6-0.4,1-1,1l0,0
			C804.3,80.2,803.9,79.7,803.9,79.2z M794.9,79.2c0-0.5,0.5-1,1-1l0,0c0.5,0,1,0.4,1,1l0,0c0,0.6-0.4,1-1,1l0,0
			C795.3,80.2,794.9,79.7,794.9,79.2z M785.9,79.2c0-0.5,0.4-1,1-1l0,0c0.6,0,1,0.4,1,1l0,0c0,0.6-0.5,1-1,1l0,0
			C786.3,80.2,785.9,79.7,785.9,79.2z M776.9,79.2c0-0.5,0.5-1,1-1l0,0c0.5,0,1,0.4,1,1l0,0c0,0.6-0.4,1-1,1l0,0
			C777.3,80.2,776.9,79.7,776.9,79.2z M767.9,79.2c0-0.5,0.5-1,1-1l0,0c0.6,0,1,0.4,1,1l0,0c0,0.6-0.5,1-1,1l0,0
			C768.3,80.2,767.9,79.7,767.9,79.2z M758.9,79.2c0-0.5,0.4-1,1-1l0,0c0.6,0,1,0.4,1,1l0,0c0,0.6-0.4,1-1,1l0,0
			C759.3,80.2,758.9,79.7,758.9,79.2z M749.9,79.2c0-0.5,0.5-1,1-1l0,0c0.5,0,1,0.4,1,1l0,0c0,0.6-0.4,1-1,1l0,0
			C750.3,80.2,749.9,79.7,749.9,79.2z M740.9,79.2c0-0.5,0.4-1,1-1l0,0c0.6,0,1,0.4,1,1l0,0c0,0.6-0.5,1-1,1l0,0
			C741.3,80.2,740.9,79.7,740.9,79.2z M731.9,79.2c0-0.5,0.5-1,1-1l0,0c0.5,0,1,0.4,1,1l0,0c0,0.6-0.4,1-1,1l0,0
			C732.3,80.2,731.9,79.7,731.9,79.2z M722.9,79.2c0-0.5,0.5-1,1-1l0,0c0.6,0,1,0.4,1,1l0,0c0,0.6-0.5,1-1,1l0,0
			C723.3,80.2,722.9,79.7,722.9,79.2z M713.9,79.2c0-0.5,0.4-1,1-1l0,0c0.6,0,1,0.4,1,1l0,0c0,0.6-0.4,1-1,1l0,0
			C714.3,80.2,713.9,79.7,713.9,79.2z M704.9,79.2c0-0.5,0.4-1,1-1l0,0c0.5,0,1,0.4,1,1l0,0c0,0.6-0.4,1-1,1l0,0
			C705.3,80.2,704.9,79.7,704.9,79.2z M695.9,79.2c0-0.5,0.4-1,1-1l0,0c0.5,0,1,0.4,1,1l0,0c0,0.6-0.5,1-1,1l0,0
			C696.3,80.2,695.9,79.7,695.9,79.2z M686.9,79.2c0-0.5,0.4-1,1-1l0,0c0.5,0,1,0.4,1,1l0,0c0,0.6-0.5,1-1,1l0,0
			C687.3,80.2,686.9,79.7,686.9,79.2z M677.9,79.2c0-0.5,0.5-1,1-1l0,0c0.5,0,1,0.4,1,1l0,0c0,0.6-0.5,1-1,1l0,0
			C678.3,80.2,677.9,79.7,677.9,79.2z M668.9,79.2c0-0.5,0.4-1,1-1l0,0c0.6,0,1,0.4,1,1l0,0c0,0.6-0.5,1-1,1l0,0
			C669.3,80.2,668.9,79.7,668.9,79.2z M659.9,79.2c0-0.5,0.4-1,1-1l0,0c0.5,0,1,0.4,1,1l0,0c0,0.6-0.4,1-1,1l0,0
			C660.3,80.2,659.9,79.7,659.9,79.2z M650.9,79.2c0-0.5,0.4-1,1-1l0,0c0.5,0,1,0.4,1,1l0,0c0,0.6-0.5,1-1,1l0,0
			C651.3,80.2,650.9,79.7,650.9,79.2z M641.9,79.2c0-0.5,0.4-1,1-1l0,0c0.5,0,1,0.4,1,1l0,0c0,0.6-0.5,1-1,1l0,0
			C642.3,80.2,641.9,79.7,641.9,79.2z M632.9,79.2c0-0.5,0.5-1,1-1l0,0c0.5,0,1,0.4,1,1l0,0c0,0.6-0.5,1-1,1l0,0
			C633.3,80.2,632.9,79.7,632.9,79.2z M623.9,79.2c0-0.5,0.4-1,1-1l0,0c0.6,0,1,0.4,1,1l0,0c0,0.6-0.5,1-1,1l0,0
			C624.3,80.2,623.9,79.7,623.9,79.2z M614.9,79.2c0-0.5,0.4-1,1-1l0,0c0.5,0,1,0.4,1,1l0,0c0,0.6-0.4,1-1,1l0,0
			C615.3,80.2,614.9,79.7,614.9,79.2z M605.9,79.2c0-0.5,0.4-1,1-1l0,0c0.5,0,1,0.4,1,1l0,0c0,0.6-0.5,1-1,1l0,0
			C606.3,80.2,605.9,79.7,605.9,79.2z M596.9,79.2c0-0.5,0.4-1,1-1l0,0c0.5,0,1,0.4,1,1l0,0c0,0.6-0.5,1-1,1l0,0
			C597.3,80.2,596.9,79.7,596.9,79.2z M587.9,79.2c0-0.5,0.5-1,1-1l0,0c0.5,0,1,0.4,1,1l0,0c0,0.6-0.5,1-1,1l0,0
			C588.3,80.2,587.9,79.7,587.9,79.2z M578.9,79.2c0-0.5,0.4-1,1-1l0,0c0.6,0,1,0.4,1,1l0,0c0,0.6-0.5,1-1,1l0,0
			C579.3,80.2,578.9,79.7,578.9,79.2z M569.9,79.2c0-0.5,0.4-1,1-1l0,0c0.5,0,1,0.4,1,1l0,0c0,0.6-0.4,1-1,1l0,0
			C570.3,80.2,569.9,79.7,569.9,79.2z M560.9,79.2c0-0.5,0.4-1,1-1l0,0c0.5,0,1,0.4,1,1l0,0c0,0.6-0.5,1-1,1l0,0
			C561.3,80.2,560.9,79.7,560.9,79.2z M551.9,79.2c0-0.5,0.4-1,1-1l0,0c0.5,0,1,0.4,1,1l0,0c0,0.6-0.5,1-1,1l0,0
			C552.3,80.2,551.9,79.7,551.9,79.2z M542.9,79.2c0-0.5,0.5-1,1-1l0,0c0.5,0,1,0.4,1,1l0,0c0,0.6-0.5,1-1,1l0,0
			C543.3,80.2,542.9,79.7,542.9,79.2z M533.9,79.2c0-0.5,0.4-1,1-1l0,0c0.6,0,1,0.4,1,1l0,0c0,0.6-0.5,1-1,1l0,0
			C534.3,80.2,533.9,79.7,533.9,79.2z M524.9,79.2c0-0.5,0.4-1,1-1l0,0c0.5,0,1,0.4,1,1l0,0c0,0.6-0.4,1-1,1l0,0
			C525.3,80.2,524.9,79.7,524.9,79.2z M515.9,79.2c0-0.5,0.4-1,1-1l0,0c0.5,0,1,0.4,1,1l0,0c0,0.6-0.5,1-1,1l0,0
			C516.3,80.2,515.9,79.7,515.9,79.2z M506.9,79.2c0-0.5,0.4-1,1-1l0,0c0.5,0,1,0.4,1,1l0,0c0,0.6-0.5,1-1,1l0,0
			C507.3,80.2,506.9,79.7,506.9,79.2z M497.9,79.2c0-0.5,0.5-1,1-1l0,0c0.5,0,1,0.4,1,1l0,0c0,0.6-0.5,1-1,1l0,0
			C498.3,80.2,497.9,79.7,497.9,79.2z M488.9,79.2c0-0.5,0.4-1,1-1l0,0c0.6,0,1,0.4,1,1l0,0c0,0.6-0.5,1-1,1l0,0
			C489.3,80.2,488.9,79.7,488.9,79.2z M479.9,79.2c0-0.5,0.4-1,1-1l0,0c0.5,0,1,0.4,1,1l0,0c0,0.6-0.4,1-1,1l0,0
			C480.3,80.2,479.9,79.7,479.9,79.2z M470.9,79.2c0-0.5,0.4-1,1-1l0,0c0.5,0,1,0.4,1,1l0,0c0,0.6-0.5,1-1,1l0,0
			C471.3,80.2,470.9,79.7,470.9,79.2z M461.9,79.2c0-0.5,0.4-1,1-1l0,0c0.5,0,1,0.4,1,1l0,0c0,0.6-0.5,1-1,1l0,0
			C462.3,80.2,461.9,79.7,461.9,79.2z M452.9,79.2c0-0.5,0.5-1,1-1l0,0c0.5,0,1,0.4,1,1l0,0c0,0.6-0.5,1-1,1l0,0
			C453.3,80.2,452.9,79.7,452.9,79.2z M443.9,79.2c0-0.5,0.4-1,1-1l0,0c0.6,0,1,0.4,1,1l0,0c0,0.6-0.5,1-1,1l0,0
			C444.3,80.2,443.9,79.7,443.9,79.2z M434.9,79.2c0-0.5,0.4-1,1-1l0,0c0.5,0,1,0.4,1,1l0,0c0,0.6-0.4,1-1,1l0,0
			C435.3,80.2,434.9,79.7,434.9,79.2z M425.9,79.2c0-0.5,0.4-1,1-1l0,0c0.5,0,1,0.4,1,1l0,0c0,0.6-0.5,1-1,1l0,0
			C426.3,80.2,425.9,79.7,425.9,79.2z M416.9,79.2c0-0.5,0.4-1,1-1l0,0c0.5,0,1,0.4,1,1l0,0c0,0.6-0.5,1-1,1l0,0
			C417.3,80.2,416.9,79.7,416.9,79.2z M407.9,79.2c0-0.5,0.5-1,1-1l0,0c0.5,0,1,0.4,1,1l0,0c0,0.6-0.5,1-1,1l0,0
			C408.3,80.2,407.9,79.7,407.9,79.2z M398.9,79.2c0-0.5,0.5-1,1-1l0,0c0.5,0,1,0.4,1,1l0,0c0,0.6-0.5,1-1,1l0,0
			C399.3,80.2,398.9,79.7,398.9,79.2z M389.9,79.2c0-0.5,0.4-1,1-1l0,0c0.5,0,1,0.4,1,1l0,0c0,0.6-0.5,1-1,1l0,0
			C390.3,80.2,389.9,79.7,389.9,79.2z M380.9,79.2c0-0.5,0.4-1,1-1l0,0c0.5,0,1,0.4,1,1l0,0c0,0.6-0.5,1-1,1l0,0
			C381.3,80.2,380.9,79.7,380.9,79.2z M371.9,79.2c0-0.5,0.4-1,1-1l0,0c0.5,0,1,0.4,1,1l0,0c0,0.6-0.5,1-1,1l0,0
			C372.3,80.2,371.9,79.7,371.9,79.2z M362.9,79.2c0-0.5,0.4-1,1-1l0,0c0.5,0,1,0.4,1,1l0,0c0,0.6-0.5,1-1,1l0,0
			C363.3,80.2,362.9,79.7,362.9,79.2z M353.9,79.2c0-0.5,0.5-1,1-1l0,0c0.5,0,1,0.4,1,1l0,0c0,0.6-0.5,1-1,1l0,0
			C354.3,80.2,353.9,79.7,353.9,79.2z M344.9,79.2c0-0.5,0.4-1,1-1l0,0c0.5,0,1,0.4,1,1l0,0c0,0.6-0.5,1-1,1l0,0
			C345.3,80.2,344.9,79.7,344.9,79.2z M335.9,79.2c0-0.5,0.4-1,1-1l0,0c0.5,0,1,0.4,1,1l0,0c0,0.6-0.5,1-1,1l0,0
			C336.3,80.2,335.9,79.7,335.9,79.2z M326.9,79.2c0-0.5,0.4-1,1-1l0,0c0.5,0,1,0.4,1,1l0,0c0,0.6-0.5,1-1,1l0,0
			C327.3,80.2,326.9,79.7,326.9,79.2z M317.9,79.2c0-0.5,0.4-1,1-1l0,0c0.5,0,1,0.4,1,1l0,0c0,0.6-0.5,1-1,1l0,0
			C318.3,80.2,317.9,79.7,317.9,79.2z M308.9,79.2c0-0.5,0.5-1,1-1l0,0c0.5,0,1,0.4,1,1l0,0c0,0.6-0.5,1-1,1l0,0
			C309.3,80.2,308.9,79.7,308.9,79.2z M299.9,79.2c0-0.5,0.4-1,1-1l0,0c0.5,0,1,0.4,1,1l0,0c0,0.6-0.5,1-1,1l0,0
			C300.3,80.2,299.9,79.7,299.9,79.2z M290.9,79.2c0-0.5,0.4-1,1-1l0,0c0.5,0,1,0.4,1,1l0,0c0,0.6-0.5,1-1,1l0,0
			C291.3,80.2,290.9,79.7,290.9,79.2z M281.9,79.2c0-0.5,0.4-1,1-1l0,0c0.5,0,1,0.4,1,1l0,0c0,0.6-0.5,1-1,1l0,0
			C282.3,80.2,281.9,79.7,281.9,79.2z M272.9,79.2c0-0.5,0.4-1,1-1l0,0c0.5,0,1,0.4,1,1l0,0c0,0.6-0.5,1-1,1l0,0
			C273.3,80.2,272.9,79.7,272.9,79.2z M263.9,79.2c0-0.5,0.5-1,1-1l0,0c0.5,0,1,0.4,1,1l0,0c0,0.6-0.5,1-1,1l0,0
			C264.3,80.2,263.9,79.7,263.9,79.2z M254.9,79.2c0-0.5,0.4-1,1-1l0,0c0.5,0,1,0.4,1,1l0,0c0,0.6-0.5,1-1,1l0,0
			C255.3,80.2,254.9,79.7,254.9,79.2z M245.9,79.2c0-0.5,0.4-1,1-1l0,0c0.5,0,1,0.4,1,1l0,0c0,0.6-0.5,1-1,1l0,0
			C246.3,80.2,245.9,79.7,245.9,79.2z M236.9,79.2c0-0.5,0.4-1,1-1l0,0c0.5,0,1,0.4,1,1l0,0c0,0.6-0.5,1-1,1l0,0
			C237.3,80.2,236.9,79.7,236.9,79.2z M227.9,79.2c0-0.5,0.4-1,1-1l0,0c0.5,0,1,0.4,1,1l0,0c0,0.6-0.5,1-1,1l0,0
			C228.3,80.2,227.9,79.7,227.9,79.2z M218.9,79.2c0-0.5,0.5-1,1-1l0,0c0.5,0,1,0.4,1,1l0,0c0,0.6-0.5,1-1,1l0,0
			C219.3,80.2,218.9,79.7,218.9,79.2z M209.9,79.2c0-0.5,0.4-1,1-1l0,0c0.5,0,1,0.4,1,1l0,0c0,0.6-0.5,1-1,1l0,0
			C210.3,80.2,209.9,79.7,209.9,79.2z M200.9,79.2c0-0.5,0.4-1,1-1l0,0c0.5,0,1,0.4,1,1l0,0c0,0.6-0.5,1-1,1l0,0
			C201.3,80.2,200.9,79.7,200.9,79.2z M191.9,79.2c0-0.5,0.4-1,1-1l0,0c0.5,0,1,0.4,1,1l0,0c0,0.6-0.5,1-1,1l0,0
			C192.3,80.2,191.9,79.7,191.9,79.2z M182.9,79.2c0-0.5,0.4-1,1-1l0,0c0.5,0,1,0.4,1,1l0,0c0,0.6-0.5,1-1,1l0,0
			C183.3,80.2,182.9,79.7,182.9,79.2z M173.9,79.2c0-0.5,0.5-1,1-1l0,0c0.5,0,1,0.4,1,1l0,0c0,0.6-0.5,1-1,1l0,0
			C174.3,80.2,173.9,79.7,173.9,79.2z M164.9,79.2c0-0.5,0.4-1,1-1l0,0c0.5,0,1,0.4,1,1l0,0c0,0.6-0.5,1-1,1l0,0
			C165.3,80.2,164.9,79.7,164.9,79.2z M155.9,79.2c0-0.5,0.4-1,1-1l0,0c0.5,0,1,0.4,1,1l0,0c0,0.6-0.5,1-1,1l0,0
			C156.3,80.2,155.9,79.7,155.9,79.2z M146.9,79.2c0-0.5,0.4-1,1-1l0,0c0.5,0,1,0.4,1,1l0,0c0,0.6-0.5,1-1,1l0,0
			C147.3,80.2,146.9,79.7,146.9,79.2z M137.9,79.2c0-0.5,0.4-1,1-1l0,0c0.5,0,1,0.4,1,1l0,0c0,0.6-0.5,1-1,1l0,0
			C138.3,80.2,137.9,79.7,137.9,79.2z M128.9,79.2c0-0.5,0.5-1,1-1l0,0c0.5,0,1,0.4,1,1l0,0c0,0.6-0.5,1-1,1l0,0
			C129.3,80.2,128.9,79.7,128.9,79.2z M119.9,79.2c0-0.5,0.4-1,1-1l0,0c0.5,0,1,0.4,1,1l0,0c0,0.6-0.5,1-1,1l0,0
			C120.3,80.2,119.9,79.7,119.9,79.2z M110.9,79.2c0-0.5,0.4-1,1-1l0,0c0.5,0,1,0.4,1,1l0,0c0,0.6-0.5,1-1,1l0,0
			C111.3,80.2,110.9,79.7,110.9,79.2z M101.9,79.2c0-0.5,0.4-1,1-1l0,0c0.5,0,1,0.4,1,1l0,0c0,0.6-0.5,1-1,1l0,0
			C102.3,80.2,101.9,79.7,101.9,79.2z M92.9,79.2c0-0.5,0.4-1,1-1l0,0c0.5,0,1,0.4,1,1l0,0c0,0.6-0.5,1-1,1l0,0
			C93.3,80.2,92.9,79.7,92.9,79.2z M83.9,79.2c0-0.5,0.5-1,1-1l0,0c0.5,0,1,0.4,1,1l0,0c0,0.6-0.5,1-1,1l0,0
			C84.3,80.2,83.9,79.7,83.9,79.2z M74.9,79.2c0-0.5,0.4-1,1-1l0,0c0.6,0,1,0.4,1,1l0,0c0,0.6-0.4,1-1,1l0,0
			C75.3,80.2,74.9,79.7,74.9,79.2z"/>
	</g>
	<g>
		<path class="st0" d="M1064.9,202.3c0-0.5,0.5-1,1-1l0,0c0.6,0,1,0.5,1,1l0,0c0,0.5-0.4,1-1,1l0,0
			C1065.3,203.3,1064.9,202.8,1064.9,202.3z M1055.9,202.3c0-0.5,0.5-1,1-1l0,0c0.6,0,1,0.5,1,1l0,0c0,0.5-0.4,1-1,1l0,0
			C1056.3,203.3,1055.9,202.8,1055.9,202.3z M1046.9,202.3c0-0.5,0.5-1,1-1l0,0c0.5,0,1,0.5,1,1l0,0c0,0.5-0.5,1-1,1l0,0
			C1047.3,203.3,1046.9,202.8,1046.9,202.3z M1037.9,202.3c0-0.5,0.5-1,1-1l0,0c0.5,0,1,0.5,1,1l0,0c0,0.5-0.4,1-1,1l0,0
			C1038.3,203.3,1037.9,202.8,1037.9,202.3z M1028.9,202.3c0-0.5,0.4-1,1-1l0,0c0.6,0,1,0.5,1,1l0,0c0,0.5-0.4,1-1,1l0,0
			C1029.3,203.3,1028.9,202.8,1028.9,202.3z M1019.9,202.3c0-0.5,0.5-1,1-1l0,0c0.6,0,1,0.5,1,1l0,0c0,0.5-0.5,1-1,1l0,0
			C1020.3,203.3,1019.9,202.8,1019.9,202.3z M1010.9,202.3c0-0.5,0.5-1,1-1l0,0c0.5,0,1,0.5,1,1l0,0c0,0.5-0.5,1-1,1l0,0
			C1011.3,203.3,1010.9,202.8,1010.9,202.3z M1001.9,202.3c0-0.5,0.4-1,1-1l0,0c0.5,0,1,0.5,1,1l0,0c0,0.5-0.5,1-1,1l0,0
			C1002.3,203.3,1001.9,202.8,1001.9,202.3z M992.9,202.3c0-0.5,0.4-1,1-1l0,0c0.6,0,1,0.5,1,1l0,0c0,0.5-0.4,1-1,1l0,0
			C993.3,203.3,992.9,202.8,992.9,202.3z M983.9,202.3c0-0.5,0.5-1,1-1l0,0c0.6,0,1,0.5,1,1l0,0c0,0.5-0.4,1-1,1l0,0
			C984.3,203.3,983.9,202.8,983.9,202.3z M974.9,202.3c0-0.5,0.5-1,1-1l0,0c0.6,0,1,0.5,1,1l0,0c0,0.5-0.5,1-1,1l0,0
			C975.3,203.3,974.9,202.8,974.9,202.3z M965.9,202.3c0-0.5,0.5-1,1-1l0,0c0.5,0,1,0.5,1,1l0,0c0,0.5-0.5,1-1,1l0,0
			C966.3,203.3,965.9,202.8,965.9,202.3z M956.9,202.3c0-0.5,0.4-1,1-1l0,0c0.5,0,1,0.5,1,1l0,0c0,0.5-0.4,1-1,1l0,0
			C957.3,203.3,956.9,202.8,956.9,202.3z M947.9,202.3c0-0.5,0.4-1,1-1l0,0c0.6,0,1,0.5,1,1l0,0c0,0.5-0.4,1-1,1l0,0
			C948.3,203.3,947.9,202.8,947.9,202.3z M938.9,202.3c0-0.5,0.5-1,1-1l0,0c0.6,0,1,0.5,1,1l0,0c0,0.5-0.5,1-1,1l0,0
			C939.3,203.3,938.9,202.8,938.9,202.3z M929.9,202.3c0-0.5,0.5-1,1-1l0,0c0.5,0,1,0.5,1,1l0,0c0,0.5-0.5,1-1,1l0,0
			C930.3,203.3,929.9,202.8,929.9,202.3z M920.9,202.3c0-0.5,0.4-1,1-1l0,0c0.5,0,1,0.5,1,1l0,0c0,0.5-0.5,1-1,1l0,0
			C921.3,203.3,920.9,202.8,920.9,202.3z M911.9,202.3c0-0.5,0.4-1,1-1l0,0c0.6,0,1,0.5,1,1l0,0c0,0.5-0.4,1-1,1l0,0
			C912.3,203.3,911.9,202.8,911.9,202.3z M902.9,202.3c0-0.5,0.5-1,1-1l0,0c0.6,0,1,0.5,1,1l0,0c0,0.5-0.4,1-1,1l0,0
			C903.3,203.3,902.9,202.8,902.9,202.3z M893.9,202.3c0-0.5,0.5-1,1-1l0,0c0.6,0,1,0.5,1,1l0,0c0,0.5-0.5,1-1,1l0,0
			C894.3,203.3,893.9,202.8,893.9,202.3z M884.9,202.3c0-0.5,0.5-1,1-1l0,0c0.5,0,1,0.5,1,1l0,0c0,0.5-0.5,1-1,1l0,0
			C885.3,203.3,884.9,202.8,884.9,202.3z M875.9,202.3c0-0.5,0.4-1,1-1l0,0c0.5,0,1,0.5,1,1l0,0c0,0.5-0.4,1-1,1l0,0
			C876.3,203.3,875.9,202.8,875.9,202.3z M866.9,202.3c0-0.5,0.4-1,1-1l0,0c0.6,0,1,0.5,1,1l0,0c0,0.5-0.4,1-1,1l0,0
			C867.3,203.3,866.9,202.8,866.9,202.3z M857.9,202.3c0-0.5,0.5-1,1-1l0,0c0.6,0,1,0.5,1,1l0,0c0,0.5-0.5,1-1,1l0,0
			C858.3,203.3,857.9,202.8,857.9,202.3z M848.9,202.3c0-0.5,0.5-1,1-1l0,0c0.5,0,1,0.5,1,1l0,0c0,0.5-0.5,1-1,1l0,0
			C849.3,203.3,848.9,202.8,848.9,202.3z M839.9,202.3c0-0.5,0.4-1,1-1l0,0c0.5,0,1,0.5,1,1l0,0c0,0.5-0.5,1-1,1l0,0
			C840.3,203.3,839.9,202.8,839.9,202.3z M830.9,202.3c0-0.5,0.4-1,1-1l0,0c0.6,0,1,0.5,1,1l0,0c0,0.5-0.4,1-1,1l0,0
			C831.3,203.3,830.9,202.8,830.9,202.3z M821.9,202.3c0-0.5,0.5-1,1-1l0,0c0.6,0,1,0.5,1,1l0,0c0,0.5-0.4,1-1,1l0,0
			C822.3,203.3,821.9,202.8,821.9,202.3z M812.9,202.3c0-0.5,0.5-1,1-1l0,0c0.6,0,1,0.5,1,1l0,0c0,0.5-0.5,1-1,1l0,0
			C813.3,203.3,812.9,202.8,812.9,202.3z M803.9,202.3c0-0.5,0.5-1,1-1l0,0c0.5,0,1,0.5,1,1l0,0c0,0.5-0.5,1-1,1l0,0
			C804.3,203.3,803.9,202.8,803.9,202.3z M794.9,202.3c0-0.5,0.4-1,1-1l0,0c0.5,0,1,0.5,1,1l0,0c0,0.5-0.4,1-1,1l0,0
			C795.3,203.3,794.9,202.8,794.9,202.3z M785.9,202.3c0-0.5,0.4-1,1-1l0,0c0.6,0,1,0.5,1,1l0,0c0,0.5-0.4,1-1,1l0,0
			C786.3,203.3,785.9,202.8,785.9,202.3z M776.9,202.3c0-0.5,0.5-1,1-1l0,0c0.6,0,1,0.5,1,1l0,0c0,0.5-0.5,1-1,1l0,0
			C777.3,203.3,776.9,202.8,776.9,202.3z M767.9,202.3c0-0.5,0.5-1,1-1l0,0c0.5,0,1,0.5,1,1l0,0c0,0.5-0.5,1-1,1l0,0
			C768.3,203.3,767.9,202.8,767.9,202.3z M758.9,202.3c0-0.5,0.4-1,1-1l0,0c0.5,0,1,0.5,1,1l0,0c0,0.5-0.5,1-1,1l0,0
			C759.3,203.3,758.9,202.8,758.9,202.3z M749.9,202.3c0-0.5,0.4-1,1-1l0,0c0.6,0,1,0.5,1,1l0,0c0,0.5-0.4,1-1,1l0,0
			C750.3,203.3,749.9,202.8,749.9,202.3z M740.9,202.3c0-0.5,0.5-1,1-1l0,0c0.6,0,1,0.5,1,1l0,0c0,0.5-0.4,1-1,1l0,0
			C741.3,203.3,740.9,202.8,740.9,202.3z M731.9,202.3c0-0.5,0.5-1,1-1l0,0c0.6,0,1,0.5,1,1l0,0c0,0.5-0.5,1-1,1l0,0
			C732.3,203.3,731.9,202.8,731.9,202.3z M722.9,202.3c0-0.5,0.5-1,1-1l0,0c0.5,0,1,0.5,1,1l0,0c0,0.5-0.5,1-1,1l0,0
			C723.3,203.3,722.9,202.8,722.9,202.3z M713.9,202.3c0-0.5,0.4-1,1-1l0,0c0.5,0,1,0.5,1,1l0,0c0,0.5-0.4,1-1,1l0,0
			C714.3,203.3,713.9,202.8,713.9,202.3z M704.9,202.3c0-0.5,0.4-1,1-1l0,0c0.6,0,1,0.5,1,1l0,0c0,0.5-0.5,1-1,1l0,0
			C705.3,203.3,704.9,202.8,704.9,202.3z M695.9,202.3c0-0.5,0.5-1,1-1l0,0c0.5,0,1,0.5,1,1l0,0c0,0.5-0.5,1-1,1l0,0
			C696.3,203.3,695.9,202.8,695.9,202.3z M686.9,202.3c0-0.5,0.4-1,1-1l0,0c0.5,0,1,0.5,1,1l0,0c0,0.5-0.5,1-1,1l0,0
			C687.3,203.3,686.9,202.8,686.9,202.3z M677.9,202.3c0-0.5,0.4-1,1-1l0,0c0.5,0,1,0.5,1,1l0,0c0,0.5-0.5,1-1,1l0,0
			C678.3,203.3,677.9,202.8,677.9,202.3z M668.9,202.3c0-0.5,0.4-1,1-1l0,0c0.6,0,1,0.5,1,1l0,0c0,0.5-0.5,1-1,1l0,0
			C669.3,203.3,668.9,202.8,668.9,202.3z M659.9,202.3c0-0.5,0.5-1,1-1l0,0c0.5,0,1,0.5,1,1l0,0c0,0.5-0.5,1-1,1l0,0
			C660.3,203.3,659.9,202.8,659.9,202.3z M650.9,202.3c0-0.5,0.4-1,1-1l0,0c0.5,0,1,0.5,1,1l0,0c0,0.5-0.5,1-1,1l0,0
			C651.3,203.3,650.9,202.8,650.9,202.3z M641.9,202.3c0-0.5,0.4-1,1-1l0,0c0.5,0,1,0.5,1,1l0,0c0,0.5-0.5,1-1,1l0,0
			C642.3,203.3,641.9,202.8,641.9,202.3z M632.9,202.3c0-0.5,0.4-1,1-1l0,0c0.5,0,1,0.5,1,1l0,0c0,0.5-0.4,1-1,1l0,0
			C633.3,203.3,632.9,202.8,632.9,202.3z M623.9,202.3c0-0.5,0.4-1,1-1l0,0c0.6,0,1,0.5,1,1l0,0c0,0.5-0.5,1-1,1l0,0
			C624.3,203.3,623.9,202.8,623.9,202.3z M614.9,202.3c0-0.5,0.5-1,1-1l0,0c0.5,0,1,0.5,1,1l0,0c0,0.5-0.5,1-1,1l0,0
			C615.3,203.3,614.9,202.8,614.9,202.3z M605.9,202.3c0-0.5,0.4-1,1-1l0,0c0.5,0,1,0.5,1,1l0,0c0,0.5-0.5,1-1,1l0,0
			C606.3,203.3,605.9,202.8,605.9,202.3z M596.9,202.3c0-0.5,0.4-1,1-1l0,0c0.5,0,1,0.5,1,1l0,0c0,0.5-0.5,1-1,1l0,0
			C597.3,203.3,596.9,202.8,596.9,202.3z M587.9,202.3c0-0.5,0.4-1,1-1l0,0c0.6,0,1,0.5,1,1l0,0c0,0.5-0.5,1-1,1l0,0
			C588.3,203.3,587.9,202.8,587.9,202.3z M578.9,202.3c0-0.5,0.5-1,1-1l0,0c0.5,0,1,0.5,1,1l0,0c0,0.5-0.5,1-1,1l0,0
			C579.3,203.3,578.9,202.8,578.9,202.3z M569.9,202.3c0-0.5,0.4-1,1-1l0,0c0.5,0,1,0.5,1,1l0,0c0,0.5-0.5,1-1,1l0,0
			C570.3,203.3,569.9,202.8,569.9,202.3z M560.9,202.3c0-0.5,0.4-1,1-1l0,0c0.5,0,1,0.5,1,1l0,0c0,0.5-0.5,1-1,1l0,0
			C561.3,203.3,560.9,202.8,560.9,202.3z M551.9,202.3c0-0.5,0.4-1,1-1l0,0c0.5,0,1,0.5,1,1l0,0c0,0.5-0.4,1-1,1l0,0
			C552.3,203.3,551.9,202.8,551.9,202.3z M542.9,202.3c0-0.5,0.4-1,1-1l0,0c0.6,0,1,0.5,1,1l0,0c0,0.5-0.5,1-1,1l0,0
			C543.3,203.3,542.9,202.8,542.9,202.3z M533.9,202.3c0-0.5,0.5-1,1-1l0,0c0.5,0,1,0.5,1,1l0,0c0,0.5-0.5,1-1,1l0,0
			C534.3,203.3,533.9,202.8,533.9,202.3z M524.9,202.3c0-0.5,0.4-1,1-1l0,0c0.5,0,1,0.5,1,1l0,0c0,0.5-0.5,1-1,1l0,0
			C525.3,203.3,524.9,202.8,524.9,202.3z M515.9,202.3c0-0.5,0.4-1,1-1l0,0c0.5,0,1,0.5,1,1l0,0c0,0.5-0.5,1-1,1l0,0
			C516.3,203.3,515.9,202.8,515.9,202.3z M506.9,202.3c0-0.5,0.4-1,1-1l0,0c0.6,0,1,0.5,1,1l0,0c0,0.5-0.5,1-1,1l0,0
			C507.3,203.3,506.9,202.8,506.9,202.3z M497.9,202.3c0-0.5,0.5-1,1-1l0,0c0.5,0,1,0.5,1,1l0,0c0,0.5-0.5,1-1,1l0,0
			C498.3,203.3,497.9,202.8,497.9,202.3z M488.9,202.3c0-0.5,0.4-1,1-1l0,0c0.5,0,1,0.5,1,1l0,0c0,0.5-0.5,1-1,1l0,0
			C489.3,203.3,488.9,202.8,488.9,202.3z M479.9,202.3c0-0.5,0.4-1,1-1l0,0c0.5,0,1,0.5,1,1l0,0c0,0.5-0.5,1-1,1l0,0
			C480.3,203.3,479.9,202.8,479.9,202.3z M470.9,202.3c0-0.5,0.4-1,1-1l0,0c0.5,0,1,0.5,1,1l0,0c0,0.5-0.4,1-1,1l0,0
			C471.3,203.3,470.9,202.8,470.9,202.3z M461.9,202.3c0-0.5,0.4-1,1-1l0,0c0.6,0,1,0.5,1,1l0,0c0,0.5-0.5,1-1,1l0,0
			C462.3,203.3,461.9,202.8,461.9,202.3z M452.9,202.3c0-0.5,0.5-1,1-1l0,0c0.5,0,1,0.5,1,1l0,0c0,0.5-0.5,1-1,1l0,0
			C453.3,203.3,452.9,202.8,452.9,202.3z M443.9,202.3c0-0.5,0.4-1,1-1l0,0c0.5,0,1,0.5,1,1l0,0c0,0.5-0.5,1-1,1l0,0
			C444.3,203.3,443.9,202.8,443.9,202.3z M434.9,202.3c0-0.5,0.4-1,1-1l0,0c0.5,0,1,0.5,1,1l0,0c0,0.5-0.5,1-1,1l0,0
			C435.3,203.3,434.9,202.8,434.9,202.3z M425.9,202.3c0-0.5,0.4-1,1-1l0,0c0.6,0,1,0.5,1,1l0,0c0,0.5-0.5,1-1,1l0,0
			C426.3,203.3,425.9,202.8,425.9,202.3z M416.9,202.3c0-0.5,0.5-1,1-1l0,0c0.5,0,1,0.5,1,1l0,0c0,0.5-0.5,1-1,1l0,0
			C417.3,203.3,416.9,202.8,416.9,202.3z M407.9,202.3c0-0.5,0.4-1,1-1l0,0c0.5,0,1,0.5,1,1l0,0c0,0.5-0.5,1-1,1l0,0
			C408.3,203.3,407.9,202.8,407.9,202.3z M398.9,202.3c0-0.5,0.4-1,1-1l0,0c0.5,0,1,0.5,1,1l0,0c0,0.5-0.5,1-1,1l0,0
			C399.3,203.3,398.9,202.8,398.9,202.3z M389.9,202.3c0-0.5,0.4-1,1-1l0,0c0.5,0,1,0.5,1,1l0,0c0,0.5-0.5,1-1,1l0,0
			C390.3,203.3,389.9,202.8,389.9,202.3z M380.9,202.3c0-0.5,0.4-1,1-1l0,0c0.5,0,1,0.5,1,1l0,0c0,0.5-0.5,1-1,1l0,0
			C381.3,203.3,380.9,202.8,380.9,202.3z M371.9,202.3c0-0.5,0.5-1,1-1l0,0c0.5,0,1,0.5,1,1l0,0c0,0.5-0.5,1-1,1l0,0
			C372.3,203.3,371.9,202.8,371.9,202.3z M362.9,202.3c0-0.5,0.4-1,1-1l0,0c0.5,0,1,0.5,1,1l0,0c0,0.5-0.5,1-1,1l0,0
			C363.3,203.3,362.9,202.8,362.9,202.3z M353.9,202.3c0-0.5,0.4-1,1-1l0,0c0.5,0,1,0.5,1,1l0,0c0,0.5-0.5,1-1,1l0,0
			C354.3,203.3,353.9,202.8,353.9,202.3z M344.9,202.3c0-0.5,0.4-1,1-1l0,0c0.5,0,1,0.5,1,1l0,0c0,0.5-0.5,1-1,1l0,0
			C345.3,203.3,344.9,202.8,344.9,202.3z M335.9,202.3c0-0.5,0.4-1,1-1l0,0c0.5,0,1,0.5,1,1l0,0c0,0.5-0.5,1-1,1l0,0
			C336.3,203.3,335.9,202.8,335.9,202.3z M326.9,202.3c0-0.5,0.5-1,1-1l0,0c0.5,0,1,0.5,1,1l0,0c0,0.5-0.5,1-1,1l0,0
			C327.3,203.3,326.9,202.8,326.9,202.3z M317.9,202.3c0-0.5,0.4-1,1-1l0,0c0.5,0,1,0.5,1,1l0,0c0,0.5-0.5,1-1,1l0,0
			C318.3,203.3,317.9,202.8,317.9,202.3z M308.9,202.3c0-0.5,0.4-1,1-1l0,0c0.5,0,1,0.5,1,1l0,0c0,0.5-0.5,1-1,1l0,0
			C309.3,203.3,308.9,202.8,308.9,202.3z M299.9,202.3c0-0.5,0.4-1,1-1l0,0c0.5,0,1,0.5,1,1l0,0c0,0.5-0.5,1-1,1l0,0
			C300.3,203.3,299.9,202.8,299.9,202.3z M290.9,202.3c0-0.5,0.5-1,1-1l0,0c0.5,0,1,0.5,1,1l0,0c0,0.5-0.5,1-1,1l0,0
			C291.3,203.3,290.9,202.8,290.9,202.3z M281.9,202.3c0-0.5,0.4-1,1-1l0,0c0.5,0,1,0.5,1,1l0,0c0,0.5-0.5,1-1,1l0,0
			C282.3,203.3,281.9,202.8,281.9,202.3z M272.9,202.3c0-0.5,0.4-1,1-1l0,0c0.5,0,1,0.5,1,1l0,0c0,0.5-0.5,1-1,1l0,0
			C273.3,203.3,272.9,202.8,272.9,202.3z M263.9,202.3c0-0.5,0.4-1,1-1l0,0c0.5,0,1,0.5,1,1l0,0c0,0.5-0.5,1-1,1l0,0
			C264.3,203.3,263.9,202.8,263.9,202.3z M254.9,202.3c0-0.5,0.4-1,1-1l0,0c0.5,0,1,0.5,1,1l0,0c0,0.5-0.5,1-1,1l0,0
			C255.3,203.3,254.9,202.8,254.9,202.3z M245.9,202.3c0-0.5,0.5-1,1-1l0,0c0.5,0,1,0.5,1,1l0,0c0,0.5-0.5,1-1,1l0,0
			C246.3,203.3,245.9,202.8,245.9,202.3z M236.9,202.3c0-0.5,0.4-1,1-1l0,0c0.5,0,1,0.5,1,1l0,0c0,0.5-0.5,1-1,1l0,0
			C237.3,203.3,236.9,202.8,236.9,202.3z M227.9,202.3c0-0.5,0.4-1,1-1l0,0c0.5,0,1,0.5,1,1l0,0c0,0.5-0.5,1-1,1l0,0
			C228.3,203.3,227.9,202.8,227.9,202.3z M218.9,202.3c0-0.5,0.4-1,1-1l0,0c0.5,0,1,0.5,1,1l0,0c0,0.5-0.5,1-1,1l0,0
			C219.3,203.3,218.9,202.8,218.9,202.3z M209.9,202.3c0-0.5,0.5-1,1-1l0,0c0.5,0,1,0.5,1,1l0,0c0,0.5-0.5,1-1,1l0,0
			C210.3,203.3,209.9,202.8,209.9,202.3z M200.9,202.3c0-0.5,0.4-1,1-1l0,0c0.5,0,1,0.5,1,1l0,0c0,0.5-0.5,1-1,1l0,0
			C201.3,203.3,200.9,202.8,200.9,202.3z M191.9,202.3c0-0.5,0.4-1,1-1l0,0c0.5,0,1,0.5,1,1l0,0c0,0.5-0.5,1-1,1l0,0
			C192.3,203.3,191.9,202.8,191.9,202.3z M182.9,202.3c0-0.5,0.4-1,1-1l0,0c0.5,0,1,0.5,1,1l0,0c0,0.5-0.5,1-1,1l0,0
			C183.3,203.3,182.9,202.8,182.9,202.3z M173.9,202.3c0-0.5,0.4-1,1-1l0,0c0.5,0,1,0.5,1,1l0,0c0,0.5-0.5,1-1,1l0,0
			C174.3,203.3,173.9,202.8,173.9,202.3z M164.9,202.3c0-0.5,0.5-1,1-1l0,0c0.5,0,1,0.5,1,1l0,0c0,0.5-0.5,1-1,1l0,0
			C165.3,203.3,164.9,202.8,164.9,202.3z M155.9,202.3c0-0.5,0.4-1,1-1l0,0c0.5,0,1,0.5,1,1l0,0c0,0.5-0.5,1-1,1l0,0
			C156.3,203.3,155.9,202.8,155.9,202.3z M146.9,202.3c0-0.5,0.4-1,1-1l0,0c0.5,0,1,0.5,1,1l0,0c0,0.5-0.5,1-1,1l0,0
			C147.3,203.3,146.9,202.8,146.9,202.3z M137.9,202.3c0-0.5,0.4-1,1-1l0,0c0.5,0,1,0.5,1,1l0,0c0,0.5-0.5,1-1,1l0,0
			C138.3,203.3,137.9,202.8,137.9,202.3z M128.9,202.3c0-0.5,0.5-1,1-1l0,0c0.5,0,1,0.5,1,1l0,0c0,0.5-0.5,1-1,1l0,0
			C129.3,203.3,128.9,202.8,128.9,202.3z M119.9,202.3c0-0.5,0.4-1,1-1l0,0c0.5,0,1,0.5,1,1l0,0c0,0.5-0.5,1-1,1l0,0
			C120.3,203.3,119.9,202.8,119.9,202.3z M110.9,202.3c0-0.5,0.4-1,1-1l0,0c0.5,0,1,0.5,1,1l0,0c0,0.5-0.5,1-1,1l0,0
			C111.3,203.3,110.9,202.8,110.9,202.3z M101.9,202.3c0-0.5,0.4-1,1-1l0,0c0.5,0,1,0.5,1,1l0,0c0,0.5-0.5,1-1,1l0,0
			C102.3,203.3,101.9,202.8,101.9,202.3z M92.9,202.3c0-0.5,0.4-1,1-1l0,0c0.5,0,1,0.5,1,1l0,0c0,0.5-0.5,1-1,1l0,0
			C93.3,203.3,92.9,202.8,92.9,202.3z M83.9,202.3c0-0.5,0.5-1,1-1l0,0c0.5,0,1,0.5,1,1l0,0c0,0.5-0.5,1-1,1l0,0
			C84.3,203.3,83.9,202.8,83.9,202.3z M74.9,202.3c0-0.5,0.4-1,1-1l0,0c0.6,0,1,0.5,1,1l0,0c0,0.5-0.4,1-1,1l0,0
			C75.3,203.3,74.9,202.8,74.9,202.3z"/>
	</g>
	<g>
		<path class="st0" d="M1064.9,326.2c0-0.5,0.5-1,1-1l0,0c0.6,0,1,0.5,1,1l0,0c0,0.6-0.4,1-1,1l0,0
			C1065.3,327.2,1064.9,326.8,1064.9,326.2z M1055.9,326.2c0-0.5,0.5-1,1-1l0,0c0.6,0,1,0.5,1,1l0,0c0,0.6-0.4,1-1,1l0,0
			C1056.3,327.2,1055.9,326.8,1055.9,326.2z M1046.9,326.2c0-0.5,0.5-1,1-1l0,0c0.6,0,1,0.5,1,1l0,0c0,0.6-0.4,1-1,1l0,0
			C1047.3,327.2,1046.9,326.8,1046.9,326.2z M1037.9,326.2c0-0.5,0.4-1,1-1l0,0c0.6,0,1,0.5,1,1l0,0c0,0.6-0.4,1-1,1l0,0
			C1038.3,327.2,1037.9,326.8,1037.9,326.2z M1028.9,326.2c0-0.5,0.5-1,1-1l0,0c0.6,0,1,0.5,1,1l0,0c0,0.6-0.4,1-1,1l0,0
			C1029.3,327.2,1028.9,326.8,1028.9,326.2z M1019.9,326.2c0-0.5,0.4-1,1-1l0,0c0.5,0,1,0.5,1,1l0,0c0,0.6-0.5,1-1,1l0,0
			C1020.3,327.2,1019.9,326.8,1019.9,326.2z M1010.9,326.2c0-0.5,0.5-1,1-1l0,0c0.6,0,1,0.5,1,1l0,0c0,0.6-0.4,1-1,1l0,0
			C1011.3,327.2,1010.9,326.8,1010.9,326.2z M1001.9,326.2c0-0.5,0.4-1,1-1l0,0c0.5,0,1,0.5,1,1l0,0c0,0.6-0.5,1-1,1l0,0
			C1002.3,327.2,1001.9,326.8,1001.9,326.2z M992.9,326.2c0-0.5,0.5-1,1-1l0,0c0.6,0,1,0.5,1,1l0,0c0,0.6-0.4,1-1,1l0,0
			C993.3,327.2,992.9,326.8,992.9,326.2z M983.9,326.2c0-0.5,0.4-1,1-1l0,0c0.5,0,1,0.5,1,1l0,0c0,0.6-0.5,1-1,1l0,0
			C984.3,327.2,983.9,326.8,983.9,326.2z M974.9,326.2c0-0.5,0.5-1,1-1l0,0c0.6,0,1,0.5,1,1l0,0c0,0.6-0.4,1-1,1l0,0
			C975.3,327.2,974.9,326.8,974.9,326.2z M965.9,326.2c0-0.5,0.4-1,1-1l0,0c0.5,0,1,0.5,1,1l0,0c0,0.6-0.5,1-1,1l0,0
			C966.3,327.2,965.9,326.8,965.9,326.2z M956.9,326.2c0-0.5,0.5-1,1-1l0,0c0.6,0,1,0.5,1,1l0,0c0,0.6-0.4,1-1,1l0,0
			C957.3,327.2,956.9,326.8,956.9,326.2z M947.9,326.2c0-0.5,0.4-1,1-1l0,0c0.5,0,1,0.5,1,1l0,0c0,0.6-0.5,1-1,1l0,0
			C948.3,327.2,947.9,326.8,947.9,326.2z M938.9,326.2c0-0.5,0.4-1,1-1l0,0c0.6,0,1,0.5,1,1l0,0c0,0.6-0.4,1-1,1l0,0
			C939.3,327.2,938.9,326.8,938.9,326.2z M929.9,326.2c0-0.5,0.5-1,1-1l0,0c0.5,0,1,0.5,1,1l0,0c0,0.6-0.5,1-1,1l0,0
			C930.3,327.2,929.9,326.8,929.9,326.2z M920.9,326.2c0-0.5,0.4-1,1-1l0,0c0.5,0,1,0.5,1,1l0,0c0,0.6-0.4,1-1,1l0,0
			C921.3,327.2,920.9,326.8,920.9,326.2z M911.9,326.2c0-0.5,0.5-1,1-1l0,0c0.6,0,1,0.5,1,1l0,0c0,0.6-0.4,1-1,1l0,0
			C912.3,327.2,911.9,326.8,911.9,326.2z M902.9,326.2c0-0.5,0.4-1,1-1l0,0c0.5,0,1,0.5,1,1l0,0c0,0.6-0.5,1-1,1l0,0
			C903.3,327.2,902.9,326.8,902.9,326.2z M893.9,326.2c0-0.5,0.5-1,1-1l0,0c0.6,0,1,0.5,1,1l0,0c0,0.6-0.4,1-1,1l0,0
			C894.3,327.2,893.9,326.8,893.9,326.2z M884.9,326.2c0-0.5,0.4-1,1-1l0,0c0.5,0,1,0.5,1,1l0,0c0,0.6-0.5,1-1,1l0,0
			C885.3,327.2,884.9,326.8,884.9,326.2z M875.9,326.2c0-0.5,0.5-1,1-1l0,0c0.6,0,1,0.5,1,1l0,0c0,0.6-0.4,1-1,1l0,0
			C876.3,327.2,875.9,326.8,875.9,326.2z M866.9,326.2c0-0.5,0.4-1,1-1l0,0c0.5,0,1,0.5,1,1l0,0c0,0.6-0.5,1-1,1l0,0
			C867.3,327.2,866.9,326.8,866.9,326.2z M857.9,326.2c0-0.5,0.5-1,1-1l0,0c0.6,0,1,0.5,1,1l0,0c0,0.6-0.4,1-1,1l0,0
			C858.3,327.2,857.9,326.8,857.9,326.2z M848.9,326.2c0-0.5,0.4-1,1-1l0,0c0.5,0,1,0.5,1,1l0,0c0,0.6-0.5,1-1,1l0,0
			C849.3,327.2,848.9,326.8,848.9,326.2z M839.9,326.2c0-0.5,0.5-1,1-1l0,0c0.6,0,1,0.5,1,1l0,0c0,0.6-0.4,1-1,1l0,0
			C840.3,327.2,839.9,326.8,839.9,326.2z M830.9,326.2c0-0.5,0.4-1,1-1l0,0c0.5,0,1,0.5,1,1l0,0c0,0.6-0.5,1-1,1l0,0
			C831.3,327.2,830.9,326.8,830.9,326.2z M821.9,326.2c0-0.5,0.4-1,1-1l0,0c0.6,0,1,0.5,1,1l0,0c0,0.6-0.4,1-1,1l0,0
			C822.3,327.2,821.9,326.8,821.9,326.2z M812.9,326.2c0-0.5,0.5-1,1-1l0,0c0.6,0,1,0.5,1,1l0,0c0,0.6-0.5,1-1,1l0,0
			C813.3,327.2,812.9,326.8,812.9,326.2z M803.9,326.2c0-0.5,0.4-1,1-1l0,0c0.5,0,1,0.5,1,1l0,0c0,0.6-0.5,1-1,1l0,0
			C804.3,327.2,803.9,326.8,803.9,326.2z M794.9,326.2c0-0.5,0.5-1,1-1l0,0c0.6,0,1,0.5,1,1l0,0c0,0.6-0.4,1-1,1l0,0
			C795.3,327.2,794.9,326.8,794.9,326.2z M785.9,326.2c0-0.5,0.4-1,1-1l0,0c0.5,0,1,0.5,1,1l0,0c0,0.6-0.5,1-1,1l0,0
			C786.3,327.2,785.9,326.8,785.9,326.2z M776.9,326.2c0-0.5,0.5-1,1-1l0,0c0.6,0,1,0.5,1,1l0,0c0,0.6-0.4,1-1,1l0,0
			C777.3,327.2,776.9,326.8,776.9,326.2z M767.9,326.2c0-0.5,0.4-1,1-1l0,0c0.5,0,1,0.5,1,1l0,0c0,0.6-0.5,1-1,1l0,0
			C768.3,327.2,767.9,326.8,767.9,326.2z M758.9,326.2c0-0.5,0.5-1,1-1l0,0c0.6,0,1,0.5,1,1l0,0c0,0.6-0.4,1-1,1l0,0
			C759.3,327.2,758.9,326.8,758.9,326.2z M749.9,326.2c0-0.5,0.4-1,1-1l0,0c0.5,0,1,0.5,1,1l0,0c0,0.6-0.5,1-1,1l0,0
			C750.3,327.2,749.9,326.8,749.9,326.2z M740.9,326.2c0-0.5,0.5-1,1-1l0,0c0.6,0,1,0.5,1,1l0,0c0,0.6-0.4,1-1,1l0,0
			C741.3,327.2,740.9,326.8,740.9,326.2z M731.9,326.2c0-0.5,0.4-1,1-1l0,0c0.5,0,1,0.5,1,1l0,0c0,0.6-0.5,1-1,1l0,0
			C732.3,327.2,731.9,326.8,731.9,326.2z M722.9,326.2c0-0.5,0.5-1,1-1l0,0c0.6,0,1,0.5,1,1l0,0c0,0.6-0.4,1-1,1l0,0
			C723.3,327.2,722.9,326.8,722.9,326.2z M713.9,326.2c0-0.5,0.5-1,1-1l0,0c0.5,0,1,0.5,1,1l0,0c0,0.6-0.5,1-1,1l0,0
			C714.3,327.2,713.9,326.8,713.9,326.2z M704.9,326.2c0-0.5,0.4-1,1-1l0,0c0.5,0,1,0.5,1,1l0,0c0,0.6-0.4,1-1,1l0,0
			C705.3,327.2,704.9,326.8,704.9,326.2z M695.9,326.2c0-0.5,0.4-1,1-1l0,0c0.5,0,1,0.5,1,1l0,0c0,0.6-0.5,1-1,1l0,0
			C696.3,327.2,695.9,326.8,695.9,326.2z M686.9,326.2c0-0.5,0.4-1,1-1l0,0c0.5,0,1,0.5,1,1l0,0c0,0.6-0.5,1-1,1l0,0
			C687.3,327.2,686.9,326.8,686.9,326.2z M677.9,326.2c0-0.5,0.4-1,1-1l0,0c0.5,0,1,0.5,1,1l0,0c0,0.6-0.5,1-1,1l0,0
			C678.3,327.2,677.9,326.8,677.9,326.2z M668.9,326.2c0-0.5,0.4-1,1-1l0,0c0.5,0,1,0.5,1,1l0,0c0,0.6-0.5,1-1,1l0,0
			C669.3,327.2,668.9,326.8,668.9,326.2z M659.9,326.2c0-0.5,0.4-1,1-1l0,0c0.5,0,1,0.5,1,1l0,0c0,0.6-0.5,1-1,1l0,0
			C660.3,327.2,659.9,326.8,659.9,326.2z M650.9,326.2c0-0.5,0.4-1,1-1l0,0c0.5,0,1,0.5,1,1l0,0c0,0.6-0.5,1-1,1l0,0
			C651.3,327.2,650.9,326.8,650.9,326.2z M641.9,326.2c0-0.5,0.5-1,1-1l0,0c0.5,0,1,0.5,1,1l0,0c0,0.6-0.5,1-1,1l0,0
			C642.3,327.2,641.9,326.8,641.9,326.2z M632.9,326.2c0-0.5,0.4-1,1-1l0,0c0.5,0,1,0.5,1,1l0,0c0,0.6-0.5,1-1,1l0,0
			C633.3,327.2,632.9,326.8,632.9,326.2z M623.9,326.2c0-0.5,0.5-1,1-1l0,0c0.6,0,1,0.5,1,1l0,0c0,0.6-0.4,1-1,1l0,0
			C624.3,327.2,623.9,326.8,623.9,326.2z M614.9,326.2c0-0.5,0.4-1,1-1l0,0c0.5,0,1,0.5,1,1l0,0c0,0.6-0.5,1-1,1l0,0
			C615.3,327.2,614.9,326.8,614.9,326.2z M605.9,326.2c0-0.5,0.4-1,1-1l0,0c0.6,0,1,0.5,1,1l0,0c0,0.6-0.4,1-1,1l0,0
			C606.3,327.2,605.9,326.8,605.9,326.2z M596.9,326.2c0-0.5,0.4-1,1-1l0,0c0.5,0,1,0.5,1,1l0,0c0,0.6-0.5,1-1,1l0,0
			C597.3,327.2,596.9,326.8,596.9,326.2z M587.9,326.2c0-0.5,0.4-1,1-1l0,0c0.5,0,1,0.5,1,1l0,0c0,0.6-0.4,1-1,1l0,0
			C588.3,327.2,587.9,326.8,587.9,326.2z M578.9,326.2c0-0.5,0.4-1,1-1l0,0c0.5,0,1,0.5,1,1l0,0c0,0.6-0.5,1-1,1l0,0
			C579.3,327.2,578.9,326.8,578.9,326.2z M569.9,326.2c0-0.5,0.4-1,1-1l0,0c0.5,0,1,0.5,1,1l0,0c0,0.6-0.5,1-1,1l0,0
			C570.3,327.2,569.9,326.8,569.9,326.2z M560.9,326.2c0-0.5,0.4-1,1-1l0,0c0.5,0,1,0.5,1,1l0,0c0,0.6-0.5,1-1,1l0,0
			C561.3,327.2,560.9,326.8,560.9,326.2z M551.9,326.2c0-0.5,0.4-1,1-1l0,0c0.5,0,1,0.5,1,1l0,0c0,0.6-0.5,1-1,1l0,0
			C552.3,327.2,551.9,326.8,551.9,326.2z M542.9,326.2c0-0.5,0.5-1,1-1l0,0c0.5,0,1,0.5,1,1l0,0c0,0.6-0.5,1-1,1l0,0
			C543.3,327.2,542.9,326.8,542.9,326.2z M533.9,326.2c0-0.5,0.4-1,1-1l0,0c0.5,0,1,0.5,1,1l0,0c0,0.6-0.5,1-1,1l0,0
			C534.3,327.2,533.9,326.8,533.9,326.2z M524.9,326.2c0-0.5,0.5-1,1-1l0,0c0.6,0,1,0.5,1,1l0,0c0,0.6-0.5,1-1,1l0,0
			C525.3,327.2,524.9,326.8,524.9,326.2z M515.9,326.2c0-0.5,0.4-1,1-1l0,0c0.5,0,1,0.5,1,1l0,0c0,0.6-0.5,1-1,1l0,0
			C516.3,327.2,515.9,326.8,515.9,326.2z M506.9,326.2c0-0.5,0.5-1,1-1l0,0c0.6,0,1,0.5,1,1l0,0c0,0.6-0.4,1-1,1l0,0
			C507.3,327.2,506.9,326.8,506.9,326.2z M497.9,326.2c0-0.5,0.4-1,1-1l0,0c0.5,0,1,0.5,1,1l0,0c0,0.6-0.5,1-1,1l0,0
			C498.3,327.2,497.9,326.8,497.9,326.2z M488.9,326.2c0-0.5,0.4-1,1-1l0,0c0.5,0,1,0.5,1,1l0,0c0,0.6-0.4,1-1,1l0,0
			C489.3,327.2,488.9,326.8,488.9,326.2z M479.9,326.2c0-0.5,0.4-1,1-1l0,0c0.5,0,1,0.5,1,1l0,0c0,0.6-0.5,1-1,1l0,0
			C480.3,327.2,479.9,326.8,479.9,326.2z M470.9,326.2c0-0.5,0.4-1,1-1l0,0c0.5,0,1,0.5,1,1l0,0c0,0.6-0.5,1-1,1l0,0
			C471.3,327.2,470.9,326.8,470.9,326.2z M461.9,326.2c0-0.5,0.4-1,1-1l0,0c0.5,0,1,0.5,1,1l0,0c0,0.6-0.5,1-1,1l0,0
			C462.3,327.2,461.9,326.8,461.9,326.2z M452.9,326.2c0-0.5,0.4-1,1-1l0,0c0.5,0,1,0.5,1,1l0,0c0,0.6-0.5,1-1,1l0,0
			C453.3,327.2,452.9,326.8,452.9,326.2z M443.9,326.2c0-0.5,0.4-1,1-1l0,0c0.5,0,1,0.5,1,1l0,0c0,0.6-0.5,1-1,1l0,0
			C444.3,327.2,443.9,326.8,443.9,326.2z M434.9,326.2c0-0.5,0.4-1,1-1l0,0c0.5,0,1,0.5,1,1l0,0c0,0.6-0.5,1-1,1l0,0
			C435.3,327.2,434.9,326.8,434.9,326.2z M425.9,326.2c0-0.5,0.5-1,1-1l0,0c0.5,0,1,0.5,1,1l0,0c0,0.6-0.5,1-1,1l0,0
			C426.3,327.2,425.9,326.8,425.9,326.2z M416.9,326.2c0-0.5,0.4-1,1-1l0,0c0.5,0,1,0.5,1,1l0,0c0,0.6-0.5,1-1,1l0,0
			C417.3,327.2,416.9,326.8,416.9,326.2z M407.9,326.2c0-0.5,0.5-1,1-1l0,0c0.6,0,1,0.5,1,1l0,0c0,0.6-0.4,1-1,1l0,0
			C408.3,327.2,407.9,326.8,407.9,326.2z M398.9,326.2c0-0.5,0.4-1,1-1l0,0c0.5,0,1,0.5,1,1l0,0c0,0.6-0.5,1-1,1l0,0
			C399.3,327.2,398.9,326.8,398.9,326.2z M389.9,326.2c0-0.5,0.4-1,1-1l0,0c0.5,0,1,0.5,1,1l0,0c0,0.6-0.5,1-1,1l0,0
			C390.3,327.2,389.9,326.8,389.9,326.2z M380.9,326.2c0-0.5,0.4-1,1-1l0,0c0.5,0,1,0.5,1,1l0,0c0,0.6-0.5,1-1,1l0,0
			C381.3,327.2,380.9,326.8,380.9,326.2z M371.9,326.2c0-0.5,0.4-1,1-1l0,0c0.5,0,1,0.5,1,1l0,0c0,0.6-0.5,1-1,1l0,0
			C372.3,327.2,371.9,326.8,371.9,326.2z M362.9,326.2c0-0.5,0.4-1,1-1l0,0c0.5,0,1,0.5,1,1l0,0c0,0.6-0.5,1-1,1l0,0
			C363.3,327.2,362.9,326.8,362.9,326.2z M353.9,326.2c0-0.5,0.4-1,1-1l0,0c0.5,0,1,0.5,1,1l0,0c0,0.6-0.5,1-1,1l0,0
			C354.3,327.2,353.9,326.8,353.9,326.2z M344.9,326.2c0-0.5,0.4-1,1-1l0,0c0.5,0,1,0.5,1,1l0,0c0,0.6-0.5,1-1,1l0,0
			C345.3,327.2,344.9,326.8,344.9,326.2z M335.9,326.2c0-0.5,0.4-1,1-1l0,0c0.5,0,1,0.5,1,1l0,0c0,0.6-0.5,1-1,1l0,0
			C336.3,327.2,335.9,326.8,335.9,326.2z M326.9,326.2c0-0.5,0.4-1,1-1l0,0c0.5,0,1,0.5,1,1l0,0c0,0.6-0.5,1-1,1l0,0
			C327.3,327.2,326.9,326.8,326.9,326.2z M317.9,326.2c0-0.5,0.5-1,1-1l0,0c0.5,0,1,0.5,1,1l0,0c0,0.6-0.5,1-1,1l0,0
			C318.3,327.2,317.9,326.8,317.9,326.2z M308.9,326.2c0-0.5,0.4-1,1-1l0,0c0.5,0,1,0.5,1,1l0,0c0,0.6-0.5,1-1,1l0,0
			C309.3,327.2,308.9,326.8,308.9,326.2z M299.9,326.2c0-0.5,0.5-1,1-1l0,0c0.5,0,1,0.5,1,1l0,0c0,0.6-0.5,1-1,1l0,0
			C300.3,327.2,299.9,326.8,299.9,326.2z M290.9,326.2c0-0.5,0.4-1,1-1l0,0c0.5,0,1,0.5,1,1l0,0c0,0.6-0.5,1-1,1l0,0
			C291.3,327.2,290.9,326.8,290.9,326.2z M281.9,326.2c0-0.5,0.4-1,1-1l0,0c0.5,0,1,0.5,1,1l0,0c0,0.6-0.5,1-1,1l0,0
			C282.3,327.2,281.9,326.8,281.9,326.2z M272.9,326.2c0-0.5,0.4-1,1-1l0,0c0.5,0,1,0.5,1,1l0,0c0,0.6-0.5,1-1,1l0,0
			C273.3,327.2,272.9,326.8,272.9,326.2z M263.9,326.2c0-0.5,0.4-1,1-1l0,0c0.5,0,1,0.5,1,1l0,0c0,0.6-0.5,1-1,1l0,0
			C264.3,327.2,263.9,326.8,263.9,326.2z M254.9,326.2c0-0.5,0.4-1,1-1l0,0c0.5,0,1,0.5,1,1l0,0c0,0.6-0.5,1-1,1l0,0
			C255.3,327.2,254.9,326.8,254.9,326.2z M245.9,326.2c0-0.5,0.4-1,1-1l0,0c0.5,0,1,0.5,1,1l0,0c0,0.6-0.5,1-1,1l0,0
			C246.3,327.2,245.9,326.8,245.9,326.2z M236.9,326.2c0-0.5,0.4-1,1-1l0,0c0.5,0,1,0.5,1,1l0,0c0,0.6-0.5,1-1,1l0,0
			C237.3,327.2,236.9,326.8,236.9,326.2z M227.9,326.2c0-0.5,0.4-1,1-1l0,0c0.5,0,1,0.5,1,1l0,0c0,0.6-0.5,1-1,1l0,0
			C228.3,327.2,227.9,326.8,227.9,326.2z M218.9,326.2c0-0.5,0.5-1,1-1l0,0c0.5,0,1,0.5,1,1l0,0c0,0.6-0.5,1-1,1l0,0
			C219.3,327.2,218.9,326.8,218.9,326.2z M209.9,326.2c0-0.5,0.4-1,1-1l0,0c0.5,0,1,0.5,1,1l0,0c0,0.6-0.5,1-1,1l0,0
			C210.3,327.2,209.9,326.8,209.9,326.2z M200.9,326.2c0-0.5,0.5-1,1-1l0,0c0.5,0,1,0.5,1,1l0,0c0,0.6-0.5,1-1,1l0,0
			C201.3,327.2,200.9,326.8,200.9,326.2z M191.9,326.2c0-0.5,0.4-1,1-1l0,0c0.5,0,1,0.5,1,1l0,0c0,0.6-0.5,1-1,1l0,0
			C192.3,327.2,191.9,326.8,191.9,326.2z M182.9,326.2c0-0.5,0.5-1,1-1l0,0c0.5,0,1,0.5,1,1l0,0c0,0.6-0.5,1-1,1l0,0
			C183.3,327.2,182.9,326.8,182.9,326.2z M173.9,326.2c0-0.5,0.4-1,1-1l0,0c0.5,0,1,0.5,1,1l0,0c0,0.6-0.5,1-1,1l0,0
			C174.3,327.2,173.9,326.8,173.9,326.2z M164.9,326.2c0-0.5,0.4-1,1-1l0,0c0.5,0,1,0.5,1,1l0,0c0,0.6-0.5,1-1,1l0,0
			C165.3,327.2,164.9,326.8,164.9,326.2z M155.9,326.2c0-0.5,0.4-1,1-1l0,0c0.5,0,1,0.5,1,1l0,0c0,0.6-0.5,1-1,1l0,0
			C156.3,327.2,155.9,326.8,155.9,326.2z M146.9,326.2c0-0.5,0.4-1,1-1l0,0c0.5,0,1,0.5,1,1l0,0c0,0.6-0.5,1-1,1l0,0
			C147.3,327.2,146.9,326.8,146.9,326.2z M137.9,326.2c0-0.5,0.4-1,1-1l0,0c0.5,0,1,0.5,1,1l0,0c0,0.6-0.5,1-1,1l0,0
			C138.3,327.2,137.9,326.8,137.9,326.2z M128.9,326.2c0-0.5,0.4-1,1-1l0,0c0.5,0,1,0.5,1,1l0,0c0,0.6-0.5,1-1,1l0,0
			C129.3,327.2,128.9,326.8,128.9,326.2z M119.9,326.2c0-0.5,0.4-1,1-1l0,0c0.5,0,1,0.5,1,1l0,0c0,0.6-0.5,1-1,1l0,0
			C120.3,327.2,119.9,326.8,119.9,326.2z M110.9,326.2c0-0.5,0.4-1,1-1l0,0c0.5,0,1,0.5,1,1l0,0c0,0.6-0.5,1-1,1l0,0
			C111.3,327.2,110.9,326.8,110.9,326.2z M101.9,326.2c0-0.5,0.5-1,1-1l0,0c0.5,0,1,0.5,1,1l0,0c0,0.6-0.5,1-1,1l0,0
			C102.3,327.2,101.9,326.8,101.9,326.2z M92.9,326.2c0-0.5,0.4-1,1-1l0,0c0.5,0,1,0.5,1,1l0,0c0,0.6-0.5,1-1,1l0,0
			C93.3,327.2,92.9,326.8,92.9,326.2z M83.9,326.2c0-0.5,0.5-1,1-1l0,0c0.5,0,1,0.5,1,1l0,0c0,0.6-0.5,1-1,1l0,0
			C84.3,327.2,83.9,326.8,83.9,326.2z M74.9,326.2c0-0.5,0.4-1,1-1l0,0c0.6,0,1,0.5,1,1l0,0c0,0.6-0.4,1-1,1l0,0
			C75.3,327.2,74.9,326.8,74.9,326.2z"/>
	</g>
	<g>
		<path class="st0" d="M1064.9,449.3c0-0.6,0.5-1,1-1l0,0c0.6,0,1,0.4,1,1l0,0c0,0.5-0.4,1-1,1l0,0
			C1065.3,450.3,1064.9,449.9,1064.9,449.3z M1055.9,449.3c0-0.6,0.5-1,1-1l0,0c0.6,0,1,0.4,1,1l0,0c0,0.5-0.4,1-1,1l0,0
			C1056.3,450.3,1055.9,449.9,1055.9,449.3z M1046.9,449.3c0-0.6,0.5-1,1-1l0,0c0.6,0,1,0.4,1,1l0,0c0,0.5-0.4,1-1,1l0,0
			C1047.3,450.3,1046.9,449.9,1046.9,449.3z M1037.9,449.3c0-0.6,0.5-1,1-1l0,0c0.6,0,1,0.4,1,1l0,0c0,0.5-0.4,1-1,1l0,0
			C1038.3,450.3,1037.9,449.9,1037.9,449.3z M1028.9,449.3c0-0.6,0.5-1,1-1l0,0c0.6,0,1,0.4,1,1l0,0c0,0.5-0.4,1-1,1l0,0
			C1029.3,450.3,1028.9,449.9,1028.9,449.3z M1019.9,449.3c0-0.6,0.4-1,1-1l0,0c0.5,0,1,0.4,1,1l0,0c0,0.5-0.5,1-1,1l0,0
			C1020.3,450.3,1019.9,449.9,1019.9,449.3z M1010.9,449.3c0-0.6,0.5-1,1-1l0,0c0.6,0,1,0.4,1,1l0,0c0,0.5-0.5,1-1,1l0,0
			C1011.3,450.3,1010.9,449.9,1010.9,449.3z M1001.9,449.3c0-0.6,0.5-1,1-1l0,0c0.6,0,1,0.4,1,1l0,0c0,0.5-0.4,1-1,1l0,0
			C1002.3,450.3,1001.9,449.9,1001.9,449.3z M992.9,449.3c0-0.6,0.5-1,1-1l0,0c0.6,0,1,0.4,1,1l0,0c0,0.5-0.4,1-1,1l0,0
			C993.3,450.3,992.9,449.9,992.9,449.3z M983.9,449.3c0-0.6,0.5-1,1-1l0,0c0.6,0,1,0.4,1,1l0,0c0,0.5-0.4,1-1,1l0,0
			C984.3,450.3,983.9,449.9,983.9,449.3z M974.9,449.3c0-0.6,0.5-1,1-1l0,0c0.6,0,1,0.4,1,1l0,0c0,0.5-0.4,1-1,1l0,0
			C975.3,450.3,974.9,449.9,974.9,449.3z M965.9,449.3c0-0.6,0.5-1,1-1l0,0c0.6,0,1,0.4,1,1l0,0c0,0.5-0.4,1-1,1l0,0
			C966.3,450.3,965.9,449.9,965.9,449.3z M956.9,449.3c0-0.6,0.5-1,1-1l0,0c0.6,0,1,0.4,1,1l0,0c0,0.5-0.4,1-1,1l0,0
			C957.3,450.3,956.9,449.9,956.9,449.3z M947.9,449.3c0-0.6,0.5-1,1-1l0,0c0.6,0,1,0.4,1,1l0,0c0,0.5-0.4,1-1,1l0,0
			C948.3,450.3,947.9,449.9,947.9,449.3z M938.9,449.3c0-0.6,0.5-1,1-1l0,0c0.6,0,1,0.4,1,1l0,0c0,0.5-0.4,1-1,1l0,0
			C939.3,450.3,938.9,449.9,938.9,449.3z M929.9,449.3c0-0.6,0.5-1,1-1l0,0c0.6,0,1,0.4,1,1l0,0c0,0.5-0.4,1-1,1l0,0
			C930.3,450.3,929.9,449.9,929.9,449.3z M920.9,449.3c0-0.6,0.5-1,1-1l0,0c0.6,0,1,0.4,1,1l0,0c0,0.5-0.4,1-1,1l0,0
			C921.3,450.3,920.9,449.9,920.9,449.3z M911.9,449.3c0-0.6,0.5-1,1-1l0,0c0.6,0,1,0.4,1,1l0,0c0,0.5-0.4,1-1,1l0,0
			C912.3,450.3,911.9,449.9,911.9,449.3z M902.9,449.3c0-0.6,0.5-1,1-1l0,0c0.6,0,1,0.4,1,1l0,0c0,0.5-0.4,1-1,1l0,0
			C903.3,450.3,902.9,449.9,902.9,449.3z M893.9,449.3c0-0.6,0.5-1,1-1l0,0c0.6,0,1,0.4,1,1l0,0c0,0.5-0.4,1-1,1l0,0
			C894.3,450.3,893.9,449.9,893.9,449.3z M884.9,449.3c0-0.6,0.5-1,1-1l0,0c0.6,0,1,0.4,1,1l0,0c0,0.5-0.4,1-1,1l0,0
			C885.3,450.3,884.9,449.9,884.9,449.3z M875.9,449.3c0-0.6,0.5-1,1-1l0,0c0.6,0,1,0.4,1,1l0,0c0,0.5-0.4,1-1,1l0,0
			C876.3,450.3,875.9,449.9,875.9,449.3z M866.9,449.3c0-0.6,0.5-1,1-1l0,0c0.6,0,1,0.4,1,1l0,0c0,0.5-0.4,1-1,1l0,0
			C867.3,450.3,866.9,449.9,866.9,449.3z M857.9,449.3c0-0.6,0.5-1,1-1l0,0c0.6,0,1,0.4,1,1l0,0c0,0.5-0.4,1-1,1l0,0
			C858.3,450.3,857.9,449.9,857.9,449.3z M848.9,449.3c0-0.6,0.5-1,1-1l0,0c0.6,0,1,0.4,1,1l0,0c0,0.5-0.4,1-1,1l0,0
			C849.3,450.3,848.9,449.9,848.9,449.3z M839.9,449.3c0-0.6,0.4-1,1-1l0,0c0.5,0,1,0.4,1,1l0,0c0,0.5-0.5,1-1,1l0,0
			C840.3,450.3,839.9,449.9,839.9,449.3z M830.9,449.3c0-0.6,0.4-1,1-1l0,0c0.5,0,1,0.4,1,1l0,0c0,0.5-0.5,1-1,1l0,0
			C831.3,450.3,830.9,449.9,830.9,449.3z M821.9,449.3c0-0.6,0.4-1,1-1l0,0c0.5,0,1,0.4,1,1l0,0c0,0.5-0.5,1-1,1l0,0
			C822.3,450.3,821.9,449.9,821.9,449.3z M812.9,449.3c0-0.6,0.4-1,1-1l0,0c0.5,0,1,0.4,1,1l0,0c0,0.5-0.5,1-1,1l0,0
			C813.3,450.3,812.9,449.9,812.9,449.3z M803.9,449.3c0-0.6,0.4-1,1-1l0,0c0.5,0,1,0.4,1,1l0,0c0,0.5-0.5,1-1,1l0,0
			C804.3,450.3,803.9,449.9,803.9,449.3z M794.9,449.3c0-0.6,0.4-1,1-1l0,0c0.5,0,1,0.4,1,1l0,0c0,0.5-0.5,1-1,1l0,0
			C795.3,450.3,794.9,449.9,794.9,449.3z M785.9,449.3c0-0.6,0.4-1,1-1l0,0c0.5,0,1,0.4,1,1l0,0c0,0.5-0.5,1-1,1l0,0
			C786.3,450.3,785.9,449.9,785.9,449.3z M776.9,449.3c0-0.6,0.4-1,1-1l0,0c0.5,0,1,0.4,1,1l0,0c0,0.5-0.5,1-1,1l0,0
			C777.3,450.3,776.9,449.9,776.9,449.3z M767.9,449.3c0-0.6,0.4-1,1-1l0,0c0.5,0,1,0.4,1,1l0,0c0,0.5-0.5,1-1,1l0,0
			C768.3,450.3,767.9,449.9,767.9,449.3z M758.9,449.3c0-0.6,0.4-1,1-1l0,0c0.5,0,1,0.4,1,1l0,0c0,0.5-0.5,1-1,1l0,0
			C759.3,450.3,758.9,449.9,758.9,449.3z M749.9,449.3c0-0.6,0.4-1,1-1l0,0c0.5,0,1,0.4,1,1l0,0c0,0.5-0.5,1-1,1l0,0
			C750.3,450.3,749.9,449.9,749.9,449.3z M740.9,449.3c0-0.6,0.4-1,1-1l0,0c0.5,0,1,0.4,1,1l0,0c0,0.5-0.5,1-1,1l0,0
			C741.3,450.3,740.9,449.9,740.9,449.3z M731.9,449.3c0-0.6,0.4-1,1-1l0,0c0.5,0,1,0.4,1,1l0,0c0,0.5-0.5,1-1,1l0,0
			C732.3,450.3,731.9,449.9,731.9,449.3z M722.9,449.3c0-0.6,0.4-1,1-1l0,0c0.5,0,1,0.4,1,1l0,0c0,0.5-0.5,1-1,1l0,0
			C723.3,450.3,722.9,449.9,722.9,449.3z M713.9,449.3c0-0.6,0.4-1,1-1l0,0c0.5,0,1,0.4,1,1l0,0c0,0.5-0.5,1-1,1l0,0
			C714.3,450.3,713.9,449.9,713.9,449.3z M704.9,449.3c0-0.6,0.4-1,1-1l0,0c0.5,0,1,0.4,1,1l0,0c0,0.5-0.5,1-1,1l0,0
			C705.3,450.3,704.9,449.9,704.9,449.3z M695.9,449.3c0-0.6,0.4-1,1-1l0,0c0.5,0,1,0.4,1,1l0,0c0,0.5-0.5,1-1,1l0,0
			C696.3,450.3,695.9,449.9,695.9,449.3z M686.9,449.3c0-0.6,0.4-1,1-1l0,0c0.5,0,1,0.4,1,1l0,0c0,0.5-0.5,1-1,1l0,0
			C687.3,450.3,686.9,449.9,686.9,449.3z M677.9,449.3c0-0.6,0.4-1,1-1l0,0c0.5,0,1,0.4,1,1l0,0c0,0.5-0.5,1-1,1l0,0
			C678.3,450.3,677.9,449.9,677.9,449.3z M668.9,449.3c0-0.6,0.4-1,1-1l0,0c0.5,0,1,0.4,1,1l0,0c0,0.5-0.5,1-1,1l0,0
			C669.3,450.3,668.9,449.9,668.9,449.3z M659.9,449.3c0-0.6,0.4-1,1-1l0,0c0.5,0,1,0.4,1,1l0,0c0,0.5-0.5,1-1,1l0,0
			C660.3,450.3,659.9,449.9,659.9,449.3z M650.9,449.3c0-0.6,0.4-1,1-1l0,0c0.5,0,1,0.4,1,1l0,0c0,0.5-0.5,1-1,1l0,0
			C651.3,450.3,650.9,449.9,650.9,449.3z M641.9,449.3c0-0.6,0.4-1,1-1l0,0c0.5,0,1,0.4,1,1l0,0c0,0.5-0.5,1-1,1l0,0
			C642.3,450.3,641.9,449.9,641.9,449.3z M632.9,449.3c0-0.6,0.4-1,1-1l0,0c0.5,0,1,0.4,1,1l0,0c0,0.5-0.5,1-1,1l0,0
			C633.3,450.3,632.9,449.9,632.9,449.3z M623.9,449.3c0-0.6,0.4-1,1-1l0,0c0.5,0,1,0.4,1,1l0,0c0,0.5-0.5,1-1,1l0,0
			C624.3,450.3,623.9,449.9,623.9,449.3z M614.9,449.3c0-0.6,0.4-1,1-1l0,0c0.5,0,1,0.4,1,1l0,0c0,0.5-0.5,1-1,1l0,0
			C615.3,450.3,614.9,449.9,614.9,449.3z M605.9,449.3c0-0.6,0.4-1,1-1l0,0c0.5,0,1,0.4,1,1l0,0c0,0.5-0.5,1-1,1l0,0
			C606.3,450.3,605.9,449.9,605.9,449.3z M596.9,449.3c0-0.6,0.4-1,1-1l0,0c0.5,0,1,0.4,1,1l0,0c0,0.5-0.5,1-1,1l0,0
			C597.3,450.3,596.9,449.9,596.9,449.3z M587.9,449.3c0-0.6,0.4-1,1-1l0,0c0.5,0,1,0.4,1,1l0,0c0,0.5-0.5,1-1,1l0,0
			C588.3,450.3,587.9,449.9,587.9,449.3z M578.9,449.3c0-0.6,0.5-1,1-1l0,0c0.6,0,1,0.4,1,1l0,0c0,0.5-0.5,1-1,1l0,0
			C579.3,450.3,578.9,449.9,578.9,449.3z M569.9,449.3c0-0.6,0.5-1,1-1l0,0c0.6,0,1,0.4,1,1l0,0c0,0.5-0.4,1-1,1l0,0
			C570.3,450.3,569.9,449.9,569.9,449.3z M560.9,449.3c0-0.6,0.5-1,1-1l0,0c0.6,0,1,0.4,1,1l0,0c0,0.5-0.4,1-1,1l0,0
			C561.3,450.3,560.9,449.9,560.9,449.3z M551.9,449.3c0-0.6,0.5-1,1-1l0,0c0.6,0,1,0.4,1,1l0,0c0,0.5-0.4,1-1,1l0,0
			C552.3,450.3,551.9,449.9,551.9,449.3z M542.9,449.3c0-0.6,0.5-1,1-1l0,0c0.6,0,1,0.4,1,1l0,0c0,0.5-0.4,1-1,1l0,0
			C543.3,450.3,542.9,449.9,542.9,449.3z M533.9,449.3c0-0.6,0.5-1,1-1l0,0c0.6,0,1,0.4,1,1l0,0c0,0.5-0.4,1-1,1l0,0
			C534.3,450.3,533.9,449.9,533.9,449.3z M524.9,449.3c0-0.6,0.5-1,1-1l0,0c0.6,0,1,0.4,1,1l0,0c0,0.5-0.4,1-1,1l0,0
			C525.3,450.3,524.9,449.9,524.9,449.3z M515.9,449.3c0-0.6,0.4-1,1-1l0,0c0.6,0,1,0.4,1,1l0,0c0,0.5-0.4,1-1,1l0,0
			C516.3,450.3,515.9,449.9,515.9,449.3z M506.9,449.3c0-0.6,0.4-1,1-1l0,0c0.5,0,1,0.4,1,1l0,0c0,0.5-0.5,1-1,1l0,0
			C507.3,450.3,506.9,449.9,506.9,449.3z M497.9,449.3c0-0.6,0.4-1,1-1l0,0c0.5,0,1,0.4,1,1l0,0c0,0.5-0.5,1-1,1l0,0
			C498.3,450.3,497.9,449.9,497.9,449.3z M488.9,449.3c0-0.6,0.4-1,1-1l0,0c0.5,0,1,0.4,1,1l0,0c0,0.5-0.5,1-1,1l0,0
			C489.3,450.3,488.9,449.9,488.9,449.3z M479.9,449.3c0-0.6,0.4-1,1-1l0,0c0.5,0,1,0.4,1,1l0,0c0,0.5-0.5,1-1,1l0,0
			C480.3,450.3,479.9,449.9,479.9,449.3z M470.9,449.3c0-0.6,0.4-1,1-1l0,0c0.5,0,1,0.4,1,1l0,0c0,0.5-0.5,1-1,1l0,0
			C471.3,450.3,470.9,449.9,470.9,449.3z M461.9,449.3c0-0.6,0.4-1,1-1l0,0c0.5,0,1,0.4,1,1l0,0c0,0.5-0.5,1-1,1l0,0
			C462.3,450.3,461.9,449.9,461.9,449.3z M452.9,449.3c0-0.6,0.4-1,1-1l0,0c0.5,0,1,0.4,1,1l0,0c0,0.5-0.5,1-1,1l0,0
			C453.3,450.3,452.9,449.9,452.9,449.3z M443.9,449.3c0-0.6,0.4-1,1-1l0,0c0.5,0,1,0.4,1,1l0,0c0,0.5-0.5,1-1,1l0,0
			C444.3,450.3,443.9,449.9,443.9,449.3z M434.9,449.3c0-0.6,0.4-1,1-1l0,0c0.5,0,1,0.4,1,1l0,0c0,0.5-0.5,1-1,1l0,0
			C435.3,450.3,434.9,449.9,434.9,449.3z M425.9,449.3c0-0.6,0.4-1,1-1l0,0c0.5,0,1,0.4,1,1l0,0c0,0.5-0.5,1-1,1l0,0
			C426.3,450.3,425.9,449.9,425.9,449.3z M416.9,449.3c0-0.6,0.4-1,1-1l0,0c0.5,0,1,0.4,1,1l0,0c0,0.5-0.5,1-1,1l0,0
			C417.3,450.3,416.9,449.9,416.9,449.3z M407.9,449.3c0-0.6,0.4-1,1-1l0,0c0.5,0,1,0.4,1,1l0,0c0,0.5-0.5,1-1,1l0,0
			C408.3,450.3,407.9,449.9,407.9,449.3z M398.9,449.3c0-0.6,0.4-1,1-1l0,0c0.5,0,1,0.4,1,1l0,0c0,0.5-0.5,1-1,1l0,0
			C399.3,450.3,398.9,449.9,398.9,449.3z M389.9,449.3c0-0.6,0.4-1,1-1l0,0c0.5,0,1,0.4,1,1l0,0c0,0.5-0.5,1-1,1l0,0
			C390.3,450.3,389.9,449.9,389.9,449.3z M380.9,449.3c0-0.6,0.4-1,1-1l0,0c0.5,0,1,0.4,1,1l0,0c0,0.5-0.5,1-1,1l0,0
			C381.3,450.3,380.9,449.9,380.9,449.3z M371.9,449.3c0-0.6,0.4-1,1-1l0,0c0.5,0,1,0.4,1,1l0,0c0,0.5-0.5,1-1,1l0,0
			C372.3,450.3,371.9,449.9,371.9,449.3z M362.9,449.3c0-0.6,0.4-1,1-1l0,0c0.5,0,1,0.4,1,1l0,0c0,0.5-0.5,1-1,1l0,0
			C363.3,450.3,362.9,449.9,362.9,449.3z M353.9,449.3c0-0.6,0.4-1,1-1l0,0c0.5,0,1,0.4,1,1l0,0c0,0.5-0.5,1-1,1l0,0
			C354.3,450.3,353.9,449.9,353.9,449.3z M344.9,449.3c0-0.6,0.4-1,1-1l0,0c0.5,0,1,0.4,1,1l0,0c0,0.5-0.5,1-1,1l0,0
			C345.3,450.3,344.9,449.9,344.9,449.3z M335.9,449.3c0-0.6,0.4-1,1-1l0,0c0.5,0,1,0.4,1,1l0,0c0,0.5-0.5,1-1,1l0,0
			C336.3,450.3,335.9,449.9,335.9,449.3z M326.9,449.3c0-0.6,0.4-1,1-1l0,0c0.5,0,1,0.4,1,1l0,0c0,0.5-0.5,1-1,1l0,0
			C327.3,450.3,326.9,449.9,326.9,449.3z M317.9,449.3c0-0.6,0.4-1,1-1l0,0c0.5,0,1,0.4,1,1l0,0c0,0.5-0.5,1-1,1l0,0
			C318.3,450.3,317.9,449.9,317.9,449.3z M308.9,449.3c0-0.6,0.4-1,1-1l0,0c0.5,0,1,0.4,1,1l0,0c0,0.5-0.5,1-1,1l0,0
			C309.3,450.3,308.9,449.9,308.9,449.3z M299.9,449.3c0-0.6,0.4-1,1-1l0,0c0.5,0,1,0.4,1,1l0,0c0,0.5-0.5,1-1,1l0,0
			C300.3,450.3,299.9,449.9,299.9,449.3z M290.9,449.3c0-0.6,0.4-1,1-1l0,0c0.5,0,1,0.4,1,1l0,0c0,0.5-0.5,1-1,1l0,0
			C291.3,450.3,290.9,449.9,290.9,449.3z M281.9,449.3c0-0.6,0.4-1,1-1l0,0c0.5,0,1,0.4,1,1l0,0c0,0.5-0.5,1-1,1l0,0
			C282.3,450.3,281.9,449.9,281.9,449.3z M272.9,449.3c0-0.6,0.4-1,1-1l0,0c0.5,0,1,0.4,1,1l0,0c0,0.5-0.5,1-1,1l0,0
			C273.3,450.3,272.9,449.9,272.9,449.3z M263.9,449.3c0-0.6,0.4-1,1-1l0,0c0.5,0,1,0.4,1,1l0,0c0,0.5-0.5,1-1,1l0,0
			C264.3,450.3,263.9,449.9,263.9,449.3z M254.9,449.3c0-0.6,0.4-1,1-1l0,0c0.5,0,1,0.4,1,1l0,0c0,0.5-0.5,1-1,1l0,0
			C255.3,450.3,254.9,449.9,254.9,449.3z M245.9,449.3c0-0.6,0.4-1,1-1l0,0c0.5,0,1,0.4,1,1l0,0c0,0.5-0.5,1-1,1l0,0
			C246.3,450.3,245.9,449.9,245.9,449.3z M236.9,449.3c0-0.6,0.4-1,1-1l0,0c0.5,0,1,0.4,1,1l0,0c0,0.5-0.5,1-1,1l0,0
			C237.3,450.3,236.9,449.9,236.9,449.3z M227.9,449.3c0-0.6,0.4-1,1-1l0,0c0.5,0,1,0.4,1,1l0,0c0,0.5-0.5,1-1,1l0,0
			C228.3,450.3,227.9,449.9,227.9,449.3z M218.9,449.3c0-0.6,0.4-1,1-1l0,0c0.5,0,1,0.4,1,1l0,0c0,0.5-0.5,1-1,1l0,0
			C219.3,450.3,218.9,449.9,218.9,449.3z M209.9,449.3c0-0.6,0.5-1,1-1l0,0c0.5,0,1,0.4,1,1l0,0c0,0.5-0.5,1-1,1l0,0
			C210.3,450.3,209.9,449.9,209.9,449.3z M200.9,449.3c0-0.6,0.5-1,1-1l0,0c0.5,0,1,0.4,1,1l0,0c0,0.5-0.5,1-1,1l0,0
			C201.3,450.3,200.9,449.9,200.9,449.3z M191.9,449.3c0-0.6,0.5-1,1-1l0,0c0.5,0,1,0.4,1,1l0,0c0,0.5-0.5,1-1,1l0,0
			C192.3,450.3,191.9,449.9,191.9,449.3z M182.9,449.3c0-0.6,0.5-1,1-1l0,0c0.5,0,1,0.4,1,1l0,0c0,0.5-0.5,1-1,1l0,0
			C183.3,450.3,182.9,449.9,182.9,449.3z M173.9,449.3c0-0.6,0.5-1,1-1l0,0c0.5,0,1,0.4,1,1l0,0c0,0.5-0.5,1-1,1l0,0
			C174.3,450.3,173.9,449.9,173.9,449.3z M164.9,449.3c0-0.6,0.5-1,1-1l0,0c0.5,0,1,0.4,1,1l0,0c0,0.5-0.5,1-1,1l0,0
			C165.3,450.3,164.9,449.9,164.9,449.3z M155.9,449.3c0-0.6,0.5-1,1-1l0,0c0.5,0,1,0.4,1,1l0,0c0,0.5-0.5,1-1,1l0,0
			C156.3,450.3,155.9,449.9,155.9,449.3z M146.9,449.3c0-0.6,0.4-1,1-1l0,0c0.5,0,1,0.4,1,1l0,0c0,0.5-0.5,1-1,1l0,0
			C147.3,450.3,146.9,449.9,146.9,449.3z M137.9,449.3c0-0.6,0.4-1,1-1l0,0c0.5,0,1,0.4,1,1l0,0c0,0.5-0.5,1-1,1l0,0
			C138.3,450.3,137.9,449.9,137.9,449.3z M128.9,449.3c0-0.6,0.4-1,1-1l0,0c0.5,0,1,0.4,1,1l0,0c0,0.5-0.5,1-1,1l0,0
			C129.3,450.3,128.9,449.9,128.9,449.3z M119.9,449.3c0-0.6,0.4-1,1-1l0,0c0.5,0,1,0.4,1,1l0,0c0,0.5-0.5,1-1,1l0,0
			C120.3,450.3,119.9,449.9,119.9,449.3z M110.9,449.3c0-0.6,0.4-1,1-1l0,0c0.5,0,1,0.4,1,1l0,0c0,0.5-0.5,1-1,1l0,0
			C111.3,450.3,110.9,449.9,110.9,449.3z M101.9,449.3c0-0.6,0.4-1,1-1l0,0c0.5,0,1,0.4,1,1l0,0c0,0.5-0.5,1-1,1l0,0
			C102.3,450.3,101.9,449.9,101.9,449.3z M92.9,449.3c0-0.6,0.4-1,1-1l0,0c0.5,0,1,0.4,1,1l0,0c0,0.5-0.5,1-1,1l0,0
			C93.3,450.3,92.9,449.9,92.9,449.3z M83.9,449.3c0-0.6,0.4-1,1-1l0,0c0.5,0,1,0.4,1,1l0,0c0,0.5-0.5,1-1,1l0,0
			C84.3,450.3,83.9,449.9,83.9,449.3z M74.9,449.3c0-0.6,0.4-1,1-1l0,0c0.6,0,1,0.4,1,1l0,0c0,0.5-0.4,1-1,1l0,0
			C75.3,450.3,74.9,449.9,74.9,449.3z"/>
	</g>
	<g>
		<polygon class="st1" points="797.6,317.9 478.6,215 343,202.5 342.8,202.5 191,145.6 97.6,133.9 97.8,131.9 191.4,143.6 
			191.6,143.7 343.4,200.5 479,213 479.1,213 797.5,315.8 956.1,242.7 956.9,244.5 		"/>
	</g>
	<g>
		<polygon class="st2" points="785,428.3 784.9,428.3 529.2,396.6 349.8,399.9 349.8,399.9 94.8,369.8 95.1,367.8 349.9,397.9 
			529.3,394.6 529.4,394.6 785,426.3 965.8,392.2 966.2,394.2 		"/>
	</g>
	<g>
		<path class="st3" d="M104.1,516.1c0-1.6-1.2-2.8-3.1-2.8c-1.6,0-2.7,0.8-2.7,1.7v0.8H96v-1.5c0-2.3,3-3.2,5.1-3.2
			c3.2,0,5.5,2,5.5,5c0,6-8.8,6.1-8.8,10.1c0,0.3,0.2,0.5,0.6,0.5h6.2c0.3,0,0.5-0.2,0.5-0.5V525h2.3v2.2c0,1.1-0.5,1.6-1.6,1.6
			h-8.9c-1.4,0-1.7-0.6-1.7-2C95.2,520.4,104.1,520.8,104.1,516.1z"/>
		<path class="st3" d="M112.1,520.1c0-5,1.5-9,6.2-9c4.6,0,6.2,4,6.2,9s-1.5,9-6.2,9S112.1,525.1,112.1,520.1z M121.9,520.1
			c0-3.8-0.8-6.7-3.7-6.7c-2.9,0-3.7,3-3.7,6.7c0,3.8,0.8,6.8,3.7,6.8C121.1,526.8,121.9,523.9,121.9,520.1z"/>
		<path class="st3" d="M129.5,526.7h3.8v-11.3c0-0.5,0-1.1,0-1.1l0,0c0,0-0.2,0.4-0.8,1l-1.6,1.6l-1.5-1.5l4.2-4.1h2.2v15.3h3.8v2.1
			h-10.1V526.7z"/>
		<path class="st3" d="M152.6,516.1c0-1.6-1.2-2.8-3.1-2.8c-1.6,0-2.7,0.8-2.7,1.7v0.8h-2.3v-1.5c0-2.3,3-3.2,5.1-3.2
			c3.2,0,5.5,2,5.5,5c0,6-8.8,6.1-8.8,10.1c0,0.3,0.2,0.5,0.6,0.5h6.2c0.3,0,0.5-0.2,0.5-0.5V525h2.3v2.2c0,1.1-0.5,1.6-1.6,1.6
			h-8.9c-1.4,0-1.7-0.6-1.7-2C143.7,520.4,152.6,520.8,152.6,516.1z"/>
	</g>
	<g>
		<path class="st3" d="M281.9,516.1c0-1.6-1.2-2.8-3.1-2.8c-1.6,0-2.7,0.8-2.7,1.7v0.8h-2.3v-1.5c0-2.3,3-3.2,5.1-3.2
			c3.2,0,5.5,2,5.5,5c0,6-8.8,6.1-8.8,10.1c0,0.3,0.2,0.5,0.6,0.5h6.2c0.3,0,0.5-0.2,0.5-0.5V525h2.3v2.2c0,1.1-0.5,1.6-1.6,1.6
			h-8.9c-1.4,0-1.7-0.6-1.7-2C273,520.4,281.9,520.8,281.9,516.1z"/>
		<path class="st3" d="M289.9,520.1c0-5,1.5-9,6.2-9c4.6,0,6.2,4,6.2,9s-1.5,9-6.2,9S289.9,525.1,289.9,520.1z M299.8,520.1
			c0-3.8-0.8-6.7-3.7-6.7s-3.7,3-3.7,6.7c0,3.8,0.8,6.8,3.7,6.8C299,526.8,299.8,523.9,299.8,520.1z"/>
		<path class="st3" d="M307.3,526.7h3.8v-11.3c0-0.5,0-1.1,0-1.1H311c0,0-0.2,0.4-0.8,1l-1.6,1.6l-1.5-1.5l4.2-4.1h2.2v15.3h3.8v2.1
			h-10V526.7z"/>
		<path class="st3" d="M322.5,524.8c0,0,1.7,2,4.4,2c1.9,0,3.5-1.3,3.5-3.2c0-2-1.7-3.1-3.8-3.1h-1.2l-0.5-1.3l3.6-4.6
			c0.5-0.7,1-1.1,1-1.1l0,0c0,0-0.5,0.1-1.5,0.1h-3.4c-0.3,0-0.5,0.2-0.5,0.5v1.1h-2.3V513c0-1.1,0.4-1.6,1.5-1.6h9.2v1.6l-4.6,5.5
			c2.3,0.2,4.9,1.8,4.9,5.1c0,2.9-2.3,5.5-6,5.5s-5.8-2.4-5.8-2.4L322.5,524.8z"/>
	</g>
	<g>
		<path class="st3" d="M41.8,445.7c0-5.4,1.6-9.6,6.6-9.6s6.6,4.3,6.6,9.6c0,5.4-1.6,9.7-6.6,9.7S41.8,451.1,41.8,445.7z
			 M52.3,445.7c0-4-0.9-7.2-3.9-7.2c-3.1,0-3.9,3.2-3.9,7.2c0,4.1,0.9,7.3,3.9,7.3C51.5,453,52.3,449.8,52.3,445.7z"/>
	</g>
	<g>
		<path class="st3" d="M45.5,327.4c0,0,1.5,2.1,4.4,2.1c2.4,0,4-1.6,4-3.7c0-2.3-2-3.8-4.4-3.8c-2.1,0-3.5,1-3.5,1l-1.1-0.5l0.7-7.7
			c0.1-1.2,0.5-1.7,1.7-1.7h6.5c1.2,0,1.7,0.5,1.7,1.7v2.4h-2.4V316c0-0.4-0.2-0.6-0.6-0.6h-3.9c-0.4,0-0.5,0.2-0.6,0.6l-0.4,3.4
			c-0.1,0.6-0.1,1-0.1,1h0.1c0,0,1-0.6,2.4-0.6c4,0,6.7,2.7,6.7,6.1c0,3.3-2.6,6.2-6.7,6.2c-3.9,0-5.8-2.6-5.8-2.6L45.5,327.4z"/>
	</g>
	<g>
		<path class="st3" d="M28.3,206.2h4.1v-12.1c0-0.6,0-1.2,0-1.2h-0.1c0,0-0.2,0.4-0.9,1.1l-1.7,1.7l-1.6-1.6l4.5-4.3H35v16.4h4.1
			v2.3H28.3V206.2z"/>
		<path class="st3" d="M43.6,199.1c0-5.4,1.6-9.6,6.6-9.6s6.6,4.3,6.6,9.6c0,5.4-1.6,9.7-6.6,9.7S43.6,204.5,43.6,199.1z
			 M54.1,199.1c0-4-0.9-7.2-3.9-7.2c-3.1,0-3.9,3.2-3.9,7.2c0,4.1,0.9,7.3,3.9,7.3C53.3,206.4,54.1,203.2,54.1,199.1z"/>
	</g>
	<g>
		<path class="st3" d="M28.5,84.8h4.1V72.7c0-0.6,0-1.2,0-1.2h-0.1c0,0-0.2,0.4-0.9,1.1l-1.7,1.7l-1.6-1.6l4.5-4.3h2.4v16.4h4.1v2.3
			H28.5V84.8z"/>
		<path class="st3" d="M45.4,82.8c0,0,1.5,2.1,4.4,2.1c2.4,0,4-1.6,4-3.7c0-2.3-2-3.8-4.4-3.8c-2.1,0-3.5,1-3.5,1l-1.1-0.5l0.7-7.7
			c0.1-1.2,0.5-1.7,1.7-1.7h6.5c1.2,0,1.7,0.5,1.7,1.7v2.4H53v-1.2c0-0.4-0.2-0.6-0.6-0.6h-3.9c-0.4,0-0.5,0.2-0.6,0.6l-0.4,3.4
			c-0.1,0.6-0.1,1-0.1,1h0.1c0,0,1-0.6,2.4-0.6c4,0,6.7,2.7,6.7,6.1c0,3.3-2.6,6.2-6.7,6.2c-3.9,0-5.8-2.6-5.8-2.6L45.4,82.8z"/>
	</g>
	<g>
		<path class="st3" d="M353,698.2h-1.7V696h7.7c3.1,0,5.3,2,5.3,5.2c0,3-1.9,4.4-3.2,4.7v0.1c0,0,0.5,0.2,0.8,0.8l2.1,4.2
			c0.3,0.5,0.7,0.6,1.3,0.6h0.3v2.2h-1.2c-1.4,0-1.9-0.2-2.5-1.3l-2.4-4.8c-0.5-0.8-0.8-1-1.8-1h-2.3v7.1h-2.5v-15.6H353z
			 M358.8,704.5c1.9,0,3-1.2,3-3.2s-1.1-3.1-3-3.1h-3.3v6.4h3.3V704.5z"/>
		<path class="st3" d="M375.6,700.7c3.6,0,5.5,2.7,5.5,6c0,0.3-0.1,1-0.1,1h-9.3c0.2,2.7,2.1,4.2,4.4,4.2c2.2,0,3.7-1.5,3.7-1.5
			l1.1,1.7c0,0-1.9,1.9-4.9,1.9c-4,0-6.8-2.9-6.8-6.7C369.2,703.4,371.9,700.7,375.6,700.7z M378.5,705.9c-0.1-2.1-1.4-3.2-3-3.2
			c-1.9,0-3.4,1.1-3.7,3.2H378.5z"/>
		<path class="st3" d="M392.4,700.7c1.5,0,4.6,0.6,4.6,2.8v1.3h-2.2v-0.7c0-0.9-1.4-1.3-2.4-1.3c-2.5,0-4.3,1.9-4.3,4.6
			c0,2.9,2.1,4.5,4.5,4.5s3.9-1.8,3.9-1.8l1.1,1.7c0,0-1.8,2.2-5.2,2.2c-4,0-6.8-2.8-6.8-6.7C385.6,703.7,388.3,700.7,392.4,700.7z"
			/>
		<path class="st3" d="M408.3,700.7c3.8,0,6.9,2.8,6.9,6.6c0,3.9-3.1,6.7-6.9,6.7c-3.8,0-6.8-2.8-6.8-6.7
			C401.5,703.5,404.5,700.7,408.3,700.7z M408.3,712c2.4,0,4.4-1.9,4.4-4.6c0-2.6-2-4.5-4.4-4.5s-4.3,1.9-4.3,4.5
			S405.9,712,408.3,712z"/>
		<path class="st3" d="M420.8,703.7c0-0.4-0.2-0.6-0.6-0.6h-1V701h2.3c1.1,0,1.6,0.5,1.6,1.5v0.8c0,0.5,0,0.9,0,0.9l0,0
			c0.6-1.9,2.1-3.3,4-3.3c0.3,0,0.7,0.1,0.7,0.1v2.4c0,0-0.3-0.1-0.7-0.1c-1.6,0-3,1.1-3.6,3c-0.2,0.7-0.3,1.5-0.3,2.3v5.2h-2.4
			V703.7z"/>
		<path class="st3" d="M437.1,700.7c2.9,0,3.9,2,3.9,2l0,0c0,0,0-0.4,0-0.9v-3.2c0-0.4-0.2-0.6-0.6-0.6h-1v-2.1h2.4
			c1.1,0,1.6,0.5,1.6,1.6V711c0,0.4,0.2,0.6,0.6,0.6h1v2.1h-2.3c-1.1,0-1.6-0.5-1.6-1.4c0-0.4,0-0.7,0-0.7l0,0c0,0-1.1,2.3-4.2,2.3
			c-3.4,0-5.6-2.7-5.6-6.7C431.3,703.4,433.7,700.7,437.1,700.7z M441.1,707.4c0-2.3-1.2-4.5-3.6-4.5c-2,0-3.6,1.7-3.6,4.6
			c0,2.8,1.5,4.6,3.6,4.6C439.3,712,441.1,710.6,441.1,707.4z"/>
		<path class="st3" d="M456.7,705.8h0.6v-0.1c0-2.2-0.8-3-2.8-3c-0.6,0-2.1,0.2-2.1,1v0.7h-2.3v-1.3c0-2.1,3.2-2.4,4.4-2.4
			c4.1,0,5.2,2.2,5.2,5v5.4c0,0.4,0.2,0.6,0.6,0.6h1v2.1H459c-1.1,0-1.6-0.6-1.6-1.5c0-0.4,0.1-0.8,0.1-0.8h-0.1c0,0-1,2.5-4,2.5
			c-2.2,0-4.3-1.3-4.3-3.9C449,706.1,454.6,705.8,456.7,705.8z M453.9,712.1c2.1,0,3.4-2.2,3.4-4v-0.4h-0.6c-1.8,0-5.2,0.1-5.2,2.4
			C451.5,711.1,452.3,712.1,453.9,712.1z"/>
		<path class="st3" d="M466.3,698.7c0-0.4-0.2-0.6-0.6-0.6h-1V696h2.4c1.1,0,1.6,0.5,1.6,1.6v4.1c0,0.6,0,1.1,0,1.1l0,0
			c0,0,1.1-2.1,4.1-2.1c3.4,0,5.6,2.7,5.6,6.7s-2.4,6.7-5.8,6.7c-2.8,0-4-2.1-4-2.1h-0.1c0,0,0.1,0.4,0.1,1v0.9h-2.3V698.7z
			 M472.3,712c2,0,3.7-1.7,3.7-4.6c0-2.8-1.5-4.6-3.6-4.6c-1.9,0-3.6,1.3-3.6,4.6C468.7,709.7,469.9,712,472.3,712z"/>
		<path class="st3" d="M483.8,698.7c0-0.4-0.2-0.6-0.6-0.6h-1V696h2.4c1.1,0,1.6,0.5,1.6,1.6v13.5c0,0.4,0.2,0.6,0.6,0.6h1v2.1h-2.4
			c-1.1,0-1.6-0.5-1.6-1.6V698.7z"/>
		<path class="st3" d="M498.2,700.7c3.6,0,5.5,2.7,5.5,6c0,0.3-0.1,1-0.1,1h-9.3c0.2,2.7,2.1,4.2,4.4,4.2c2.2,0,3.7-1.5,3.7-1.5
			l1.1,1.7c0,0-1.9,1.9-4.9,1.9c-4,0-6.8-2.9-6.8-6.7C491.8,703.4,494.6,700.7,498.2,700.7z M501.2,705.9c-0.1-2.1-1.4-3.2-3-3.2
			c-1.9,0-3.4,1.1-3.7,3.2H501.2z"/>
		<path class="st3" d="M351.4,741.8h1.7v-13.4h-1.7v-2.2h5.9v2.2h-1.7v13.4h1.7v2.2h-5.9V741.8z"/>
		<path class="st3" d="M363,733.9c0-0.4-0.2-0.6-0.6-0.6h-1v-2.1h2.3c1.1,0,1.6,0.5,1.6,1.4v0.5c0,0.4,0,0.7,0,0.7l0,0
			c0.5-1.1,2-2.9,4.8-2.9c3,0,4.4,1.6,4.4,4.9v5.5c0,0.4,0.2,0.6,0.6,0.6h1v2.1h-2.4c-1.1,0-1.6-0.5-1.6-1.6v-6
			c0-1.8-0.4-3.2-2.4-3.2s-3.5,1.3-4,3.1c-0.2,0.5-0.2,1.1-0.2,1.7v6h-2.4L363,733.9L363,733.9z"/>
		<path class="st3" d="M379.2,747c0.9,0,2.7-0.3,2.7-2.8v-10.4c0-0.4-0.2-0.6-0.6-0.6h-1v-2.1h2.4c1.1,0,1.6,0.5,1.6,1.6v11.5
			c0,4.2-3.3,4.8-4.9,4.8c-0.5,0-0.8-0.1-0.8-0.1v-2.1C378.6,747,378.9,747,379.2,747z M381.9,726.2h2.2v2.5h-2.2V726.2z"/>
		<path class="st3" d="M390.9,733.9c0-0.4-0.2-0.6-0.6-0.6h-1v-2.1h2.4c1.2,0,1.6,0.5,1.6,1.6v6c0,1.8,0.4,3.2,2.4,3.2
			c2.6,0,4.1-2.3,4.1-4.8v-6h2.4v10.1c0,0.4,0.2,0.6,0.6,0.6h1v2.1h-2.3c-1.1,0-1.6-0.5-1.6-1.4v-0.5c0-0.4,0-0.7,0-0.7h-0.1
			c-0.5,1.3-2.2,2.9-4.7,2.9c-2.9,0-4.3-1.5-4.3-4.9L390.9,733.9L390.9,733.9z"/>
		<path class="st3" d="M409.1,733.9c0-0.4-0.2-0.6-0.6-0.6h-1v-2.1h2.3c1.1,0,1.6,0.5,1.6,1.5v0.8c0,0.5,0,0.9,0,0.9l0,0
			c0.6-1.9,2.1-3.3,4-3.3c0.3,0,0.7,0.1,0.7,0.1v2.4c0,0-0.3-0.1-0.7-0.1c-1.6,0-3,1.1-3.6,3c-0.2,0.7-0.3,1.5-0.3,2.3v5.2h-2.4
			V733.9z"/>
		<path class="st3" d="M421.5,733.9c0-0.4-0.2-0.6-0.6-0.6h-1v-2.1h2.4c1.1,0,1.6,0.5,1.6,1.6v8.5c0,0.4,0.2,0.6,0.6,0.6h1v2.1h-2.4
			c-1.1,0-1.6-0.5-1.6-1.6V733.9z M421.5,726.2h2.2v2.5h-2.2V726.2z"/>
		<path class="st3" d="M435.9,730.9c3.6,0,5.5,2.7,5.5,6c0,0.3-0.1,1-0.1,1H432c0.2,2.7,2.1,4.2,4.4,4.2c2.2,0,3.7-1.5,3.7-1.5
			l1.1,1.7c0,0-1.9,1.9-4.9,1.9c-4,0-6.8-2.9-6.8-6.7C429.6,733.5,432.3,730.9,435.9,730.9z M438.9,736.1c-0.1-2.1-1.4-3.2-3-3.2
			c-1.9,0-3.4,1.1-3.7,3.2H438.9z"/>
		<path class="st3" d="M447,740.4c0,0,1.5,1.9,3.8,1.9c1.2,0,2.2-0.5,2.2-1.6c0-2.3-6.9-2-6.9-6.1c0-2.4,2.1-3.6,4.7-3.6
			c1.5,0,4.2,0.5,4.2,2.5v1.2h-2.2v-0.6c0-0.8-1.1-1.1-1.9-1.1c-1.4,0-2.4,0.5-2.4,1.5c0,2.4,6.9,1.9,6.9,6.1c0,2.3-2,3.7-4.7,3.7
			c-3.4,0-5.1-2.2-5.1-2.2L447,740.4z"/>
	</g>
	<g>
		<path class="st3" d="M682.9,707.9h-3.8c-0.4,0-0.6,0.2-0.6,0.6v1.2h-2.4v-2.5c0-1.2,0.4-1.6,1.6-1.6h13c1.2,0,1.6,0.4,1.6,1.6v2.5
			h-2.4v-1.2c0-0.4-0.2-0.6-0.6-0.6h-3.8v16.6h-2.7v-16.6H682.9z"/>
		<path class="st3" d="M698.2,707.9h-1.7v-2.3h8.2c3.3,0,5.6,2.1,5.6,5.5c0,3.2-2.1,4.7-3.4,5v0.1c0,0,0.5,0.2,0.8,0.9l2.3,4.5
			c0.3,0.6,0.7,0.6,1.3,0.6h0.3v2.3h-1.3c-1.5,0-2-0.2-2.6-1.4l-2.6-5.1c-0.5-0.9-0.8-1-1.9-1h-2.5v7.5H698v-16.6H698.2z
			 M704.4,714.7c2,0,3.2-1.3,3.2-3.4s-1.2-3.3-3.2-3.3h-3.5v6.8L704.4,714.7L704.4,714.7z"/>
		<path class="st3" d="M717.1,713.8c0-0.4-0.2-0.6-0.6-0.6h-1.1V711h2.5c1.2,0,1.7,0.5,1.7,1.7v9c0,0.4,0.2,0.6,0.6,0.6h1.1v2.2
			h-2.5c-1.2,0-1.7-0.5-1.7-1.7V713.8z M717.1,705.6h2.3v2.7h-2.3V705.6z"/>
		<path class="st3" d="M727.4,707.9h-1.7v-2.3h10.4c1.2,0,1.7,0.5,1.7,1.7v2.4h-2.4v-1.2c0-0.4-0.2-0.6-0.6-0.6h-4.7v6.2h6.4v2.3
			h-6.4v8.1h-2.7V707.9z"/>
		<path class="st3" d="M743.8,707.9h-1.7v-2.3h8.2c3.3,0,5.6,2.1,5.6,5.5c0,3.2-2.1,4.7-3.4,5v0.1c0,0,0.5,0.2,0.8,0.9l2.3,4.5
			c0.3,0.6,0.7,0.6,1.3,0.6h0.3v2.3h-1.3c-1.5,0-2-0.2-2.6-1.4l-2.6-5.1c-0.5-0.9-0.8-1-1.9-1h-2.5v7.5h-2.7v-16.6H743.8z
			 M750,714.7c2,0,3.2-1.3,3.2-3.4S752,708,750,708h-3.5v6.8L750,714.7L750,714.7z"/>
	</g>
	<g>
		<path class="st3" d="M462.3,516.1c0-1.6-1.2-2.8-3.1-2.8c-1.6,0-2.7,0.8-2.7,1.7v0.8h-2.2v-1.5c0-2.3,3-3.2,5.1-3.2
			c3.2,0,5.5,2,5.5,5c0,6-8.8,6.1-8.8,10.1c0,0.3,0.2,0.5,0.6,0.5h6.2c0.3,0,0.5-0.2,0.5-0.5V525h2.3v2.2c0,1.1-0.5,1.6-1.6,1.6
			h-8.9c-1.4,0-1.7-0.6-1.7-2C453.4,520.4,462.3,520.8,462.3,516.1z"/>
		<path class="st3" d="M470.4,520.1c0-5,1.5-9,6.2-9c4.6,0,6.2,4,6.2,9s-1.5,9-6.2,9S470.4,525.1,470.4,520.1z M480.2,520.1
			c0-3.8-0.8-6.7-3.7-6.7s-3.7,3-3.7,6.7c0,3.8,0.8,6.8,3.7,6.8C479.4,526.8,480.2,523.9,480.2,520.1z"/>
		<path class="st3" d="M487.7,526.7h3.8v-11.3c0-0.5,0-1.1,0-1.1h-0.1c0,0-0.2,0.4-0.8,1l-1.6,1.6l-1.5-1.5l4.2-4.1h2.2v15.3h3.8
			v2.1h-10.1L487.7,526.7L487.7,526.7z"/>
		<path class="st3" d="M501,522.6l7.9-11.2h2.8v10.7h2.7v2.1h-2.7v4.6h-2.5v-4.6H501V522.6z M509.2,516.1c0-0.8,0.1-1.8,0.1-1.8l0,0
			c0,0-0.4,0.8-0.9,1.5l-3.8,5.2c-0.4,0.6-0.9,1.1-0.9,1.1v0.1c0,0,0.7-0.1,1.5-0.1h4.1L509.2,516.1L509.2,516.1z"/>
	</g>
	<g>
		<path class="st2" d="M358.7,581.8c0-0.3-0.2-0.5-0.5-0.5h-0.9v-1.8h2.1c0.9,0,1.3,0.4,1.3,1.3v11.1c0,0.3,0.2,0.5,0.5,0.5h4
			c0.3,0,0.5-0.2,0.5-0.5V591h1.9v1.8c0,0.9-0.4,1.3-1.3,1.3H360c-0.9,0-1.3-0.4-1.3-1.3V581.8z"/>
		<path class="st2" d="M375.9,579.3h1.4l-0.9,4h-1.9L375.9,579.3z"/>
		<path class="st2" d="M377.5,592.4h0.3c0.4,0,0.6-0.1,0.7-0.5l4.6-12.4h2.2l4.6,12.4c0.1,0.4,0.3,0.5,0.7,0.5h0.3v1.8h-1.2
			c-1,0-1.4-0.2-1.7-1.2l-1.1-3h-5.4l-1.1,3c-0.4,1-0.7,1.2-1.7,1.2h-1.1L377.5,592.4L377.5,592.4z M386.4,588.2l-1.6-4.5
			c-0.3-0.8-0.6-2-0.6-2l0,0c0,0-0.3,1.3-0.6,2l-1.6,4.5H386.4z"/>
		<path class="st2" d="M393.6,585.9c0-0.3-0.2-0.5-0.5-0.5h-0.8v-1.7h1.9c0.9,0,1.3,0.4,1.3,1.2v0.4c0,0.3,0,0.6,0,0.6l0,0
			c0.4-0.9,1.7-2.4,3.9-2.4c2.5,0,3.6,1.3,3.6,4v4.5c0,0.3,0.2,0.5,0.5,0.5h0.8v1.7h-2c-0.9,0-1.3-0.4-1.3-1.3V588
			c0-1.5-0.3-2.6-2-2.6c-1.6,0-2.9,1.1-3.3,2.6c-0.1,0.4-0.2,0.9-0.2,1.4v4.9h-2L393.6,585.9L393.6,585.9z"/>
		<path class="st2" d="M411.2,583.5c2.4,0,3.2,1.6,3.2,1.6l0,0c0,0,0-0.3,0-0.7v-2.6c0-0.3-0.2-0.5-0.5-0.5h-0.8v-1.7h2
			c0.9,0,1.3,0.4,1.3,1.3V592c0,0.3,0.2,0.5,0.5,0.5h0.8v1.7h-1.9c-0.9,0-1.3-0.4-1.3-1.1c0-0.3,0-0.5,0-0.5l0,0
			c0,0-0.9,1.9-3.4,1.9c-2.8,0-4.6-2.2-4.6-5.5C406.4,585.6,408.4,583.5,411.2,583.5z M414.5,588.9c0-1.9-1-3.7-3-3.7
			c-1.6,0-3,1.4-3,3.7s1.2,3.7,3,3.7C413,592.7,414.5,591.6,414.5,588.9z"/>
		<path class="st2" d="M426.1,587.7h0.5v-0.1c0-1.8-0.7-2.5-2.3-2.5c-0.5,0-1.7,0.1-1.7,0.8v0.6h-1.9v-1c0-1.7,2.6-2,3.6-2
			c3.4,0,4.3,1.8,4.3,4.1v4.5c0,0.3,0.2,0.5,0.5,0.5h0.8v1.7H428c-0.9,0-1.3-0.5-1.3-1.2c0-0.4,0-0.6,0-0.6l0,0c0,0-0.8,2.1-3.3,2.1
			c-1.8,0-3.6-1.1-3.6-3.2C419.8,587.9,424.3,587.7,426.1,587.7z M423.8,592.8c1.7,0,2.8-1.8,2.8-3.3v-0.4h-0.5
			c-1.5,0-4.2,0.1-4.2,2C421.8,592,422.5,592.8,423.8,592.8z"/>
		<path class="st2" d="M432.9,585.9c0-0.3-0.2-0.5-0.5-0.5h-0.8v-1.7h1.9c0.9,0,1.3,0.4,1.3,1.2v0.4c0,0.3,0,0.6,0,0.6l0,0
			c0.5-1.2,1.9-2.4,3.6-2.4c1.8,0,2.8,0.8,3.1,2.4l0,0c0.6-1.3,2-2.4,3.7-2.4c2.4,0,3.5,1.3,3.5,4v4.5c0,0.3,0.2,0.5,0.5,0.5h0.8
			v1.7h-2c-0.9,0-1.3-0.4-1.3-1.3V588c0-1.5-0.3-2.6-1.8-2.6c-1.4,0-2.6,1.3-2.9,2.7c-0.1,0.4-0.2,0.9-0.2,1.4v4.8h-2V588
			c0-1.4-0.2-2.6-1.8-2.6c-1.5,0-2.6,1.3-3,2.8c-0.1,0.4-0.1,0.9-0.1,1.3v4.8h-2V585.9z"/>
		<path class="st2" d="M457.3,583.5c2.9,0,4.5,2.2,4.5,4.9c0,0.3-0.1,0.8-0.1,0.8h-7.6c0.1,2.2,1.7,3.5,3.6,3.5
			c1.8,0,3.1-1.2,3.1-1.2l0.9,1.4c0,0-1.6,1.5-4,1.5c-3.3,0-5.6-2.4-5.6-5.5C452.1,585.6,454.4,583.5,457.3,583.5z M459.8,587.7
			c-0.1-1.7-1.2-2.7-2.5-2.7c-1.5,0-2.8,0.9-3.1,2.7H459.8z"/>
		<path class="st2" d="M465.4,585.9c0-0.3-0.2-0.5-0.5-0.5h-0.8v-1.7h1.9c0.9,0,1.3,0.4,1.3,1.2v0.4c0,0.3,0,0.6,0,0.6l0,0
			c0.4-0.9,1.7-2.4,3.9-2.4c2.5,0,3.6,1.3,3.6,4v4.5c0,0.3,0.2,0.5,0.5,0.5h0.8v1.7h-2c-0.9,0-1.3-0.4-1.3-1.3V588
			c0-1.5-0.3-2.6-2-2.6c-1.6,0-2.9,1.1-3.3,2.6c-0.1,0.4-0.2,0.9-0.2,1.4v4.9h-2L465.4,585.9L465.4,585.9z"/>
		<path class="st2" d="M479.2,585.3h-1.4v-1.6h1.4v-2.9h2v2.9h2.5v1.6h-2.5v4.8c0,2.1,1.4,2.4,2.2,2.4c0.3,0,0.5,0,0.5,0v1.8
			c0,0-0.3,0-0.7,0c-1.3,0-4-0.4-4-3.9V585.3z"/>
		<path class="st2" d="M491.7,583.5c3.1,0,5.7,2.3,5.7,5.5s-2.5,5.5-5.7,5.5s-5.6-2.3-5.6-5.5C486.1,585.7,488.6,583.5,491.7,583.5z
			 M491.7,592.7c2,0,3.6-1.6,3.6-3.8s-1.6-3.7-3.6-3.7s-3.6,1.6-3.6,3.7C488.1,591.1,489.7,592.7,491.7,592.7z"/>
		<path class="st2" d="M510.8,583.5c2.4,0,3.2,1.6,3.2,1.6l0,0c0,0,0-0.3,0-0.7v-2.6c0-0.3-0.2-0.5-0.5-0.5h-0.8v-1.7h2
			c0.9,0,1.3,0.4,1.3,1.3V592c0,0.3,0.2,0.5,0.5,0.5h0.8v1.7h-1.9c-0.9,0-1.3-0.4-1.3-1.1c0-0.3,0-0.5,0-0.5l0,0
			c0,0-0.9,1.9-3.4,1.9c-2.8,0-4.6-2.2-4.6-5.5C506.1,585.6,508,583.5,510.8,583.5z M514.1,588.9c0-1.9-1-3.7-3-3.7
			c-1.6,0-3,1.4-3,3.7s1.2,3.7,3,3.7C512.6,592.7,514.1,591.6,514.1,588.9z"/>
		<path class="st2" d="M524.7,583.5c2.9,0,4.5,2.2,4.5,4.9c0,0.3-0.1,0.8-0.1,0.8h-7.6c0.1,2.2,1.7,3.5,3.6,3.5
			c1.8,0,3.1-1.2,3.1-1.2l0.9,1.4c0,0-1.6,1.5-4,1.5c-3.3,0-5.6-2.4-5.6-5.5C519.4,585.6,521.7,583.5,524.7,583.5z M527.1,587.7
			c-0.1-1.7-1.2-2.7-2.5-2.7c-1.5,0-2.8,0.9-3.1,2.7H527.1z"/>
		<path class="st2" d="M536.3,583.5c2.6,0,3.4,1.6,3.4,1.6l0,0c0,0,0-0.2,0-0.3c0-0.6,0.3-1.1,1.2-1.1h1.9v1.7H542
			c-0.3,0-0.5,0.1-0.5,0.4v7.9c0,3.5-2.6,4.8-5.3,4.8c-1.3,0-2.5-0.4-3.6-0.9l0.7-1.6c0,0,1.3,0.7,2.9,0.7c1.8,0,3.3-0.8,3.3-2.9
			v-0.7c0-0.3,0-0.7,0-0.7l0,0c-0.6,1-1.6,1.6-3.1,1.6c-2.9,0-4.7-2.3-4.7-5.4C531.7,585.7,533.4,583.5,536.3,583.5z M539.6,588.7
			c0-2.7-1.3-3.5-3-3.5c-1.8,0-2.9,1.3-2.9,3.5s1.1,3.7,3,3.7C538.2,592.3,539.6,591.4,539.6,588.7z"/>
		<path class="st2" d="M545.8,581.7c0-0.3-0.2-0.5-0.5-0.5h-0.8v-1.7h2c0.9,0,1.3,0.4,1.3,1.3V592c0,0.3,0.2,0.5,0.5,0.5h0.8v1.7h-2
			c-0.9,0-1.3-0.4-1.3-1.3V581.7z"/>
		<path class="st2" d="M552.3,585.9c0-0.3-0.2-0.5-0.5-0.5H551v-1.7h2c0.9,0,1.3,0.4,1.3,1.3v7c0,0.3,0.2,0.5,0.5,0.5h0.8v1.7h-2
			c-0.9,0-1.3-0.4-1.3-1.3V585.9z M552.4,579.6h1.8v2.1h-1.8V579.6z"/>
		<path class="st2" d="M565.2,585.9c0-0.3-0.2-0.5-0.5-0.5h-0.8v-1.7h2c0.9,0,1.3,0.4,1.3,1.3v7c0,0.3,0.2,0.5,0.5,0.5h0.8v1.7h-2
			c-0.9,0-1.3-0.4-1.3-1.3V585.9z M565.3,579.6h1.8v2.1h-1.8V579.6z"/>
		<path class="st2" d="M571.6,585.9c0-0.3-0.2-0.5-0.5-0.5h-0.8v-1.7h1.9c0.9,0,1.3,0.4,1.3,1.2v0.4c0,0.3,0,0.6,0,0.6l0,0
			c0.4-0.9,1.7-2.4,3.9-2.4c2.5,0,3.6,1.3,3.6,4v4.5c0,0.3,0.2,0.5,0.5,0.5h0.8v1.7h-2c-0.9,0-1.3-0.4-1.3-1.3V588
			c0-1.5-0.3-2.6-2-2.6c-1.6,0-2.9,1.1-3.3,2.6c-0.1,0.4-0.2,0.9-0.2,1.4v4.9h-2L571.6,585.9L571.6,585.9z"/>
		<path class="st2" d="M589.2,583.5c2.4,0,3.2,1.6,3.2,1.6l0,0c0,0,0-0.3,0-0.7v-2.6c0-0.3-0.2-0.5-0.5-0.5h-0.8v-1.7h2
			c0.9,0,1.3,0.4,1.3,1.3V592c0,0.3,0.2,0.5,0.5,0.5h0.8v1.7h-1.9c-0.9,0-1.3-0.4-1.3-1.1c0-0.3,0-0.5,0-0.5l0,0
			c0,0-0.9,1.9-3.4,1.9c-2.8,0-4.6-2.2-4.6-5.5C584.4,585.6,586.4,583.5,589.2,583.5z M592.5,588.9c0-1.9-1-3.7-3-3.7
			c-1.6,0-3,1.4-3,3.7s1.2,3.7,3,3.7C591,592.7,592.5,591.6,592.5,588.9z"/>
		<path class="st2" d="M598.9,585.9c0-0.3-0.2-0.5-0.5-0.5h-0.8v-1.7h2c0.9,0,1.3,0.4,1.3,1.3v7c0,0.3,0.2,0.5,0.5,0.5h0.8v1.7h-2
			c-0.9,0-1.3-0.4-1.3-1.3V585.9z M598.9,579.6h1.8v2.1h-1.8V579.6z"/>
		<path class="st2" d="M609.9,583.5c1.3,0,3.8,0.5,3.8,2.3v1.1h-1.8v-0.6c0-0.7-1.2-1.1-1.9-1.1c-2,0-3.6,1.5-3.6,3.7
			c0,2.4,1.7,3.7,3.7,3.7s3.3-1.4,3.3-1.4l0.9,1.4c0,0-1.5,1.8-4.3,1.8c-3.3,0-5.6-2.3-5.6-5.5C604.3,585.9,606.6,583.5,609.9,583.5
			z"/>
		<path class="st2" d="M617.3,585.9c0-0.3-0.2-0.5-0.5-0.5H616v-1.7h2c0.9,0,1.3,0.4,1.3,1.3v7c0,0.3,0.2,0.5,0.5,0.5h0.8v1.7h-2
			c-0.9,0-1.3-0.4-1.3-1.3V585.9z M617.3,579.6h1.8v2.1h-1.8V579.6z"/>
		<path class="st2" d="M633.8,583.5c2.4,0,3.2,1.6,3.2,1.6l0,0c0,0,0-0.3,0-0.7v-2.6c0-0.3-0.2-0.5-0.5-0.5h-0.8v-1.7h2
			c0.9,0,1.3,0.4,1.3,1.3V592c0,0.3,0.2,0.5,0.5,0.5h0.8v1.7h-1.9c-0.9,0-1.3-0.4-1.3-1.1c0-0.3,0-0.5,0-0.5l0,0
			c0,0-0.9,1.9-3.4,1.9c-2.8,0-4.6-2.2-4.6-5.5C629.1,585.6,631.1,583.5,633.8,583.5z M637.1,588.9c0-1.9-1-3.7-3-3.7
			c-1.6,0-3,1.4-3,3.7s1.2,3.7,3,3.7C635.7,592.7,637.1,591.6,637.1,588.9z"/>
		<path class="st2" d="M643.5,585.9c0-0.3-0.2-0.5-0.5-0.5h-0.8v-1.7h2c0.9,0,1.3,0.4,1.3,1.3v7c0,0.3,0.2,0.5,0.5,0.5h0.8v1.7h-2
			c-0.9,0-1.3-0.4-1.3-1.3V585.9z M643.6,579.6h1.8v2.1h-1.8V579.6z"/>
		<path class="st2" d="M656.2,591.2c0,0,1.2,1.6,3.2,1.6c1,0,1.8-0.4,1.8-1.3c0-1.9-5.7-1.7-5.7-5.1c0-2,1.8-2.9,3.9-2.9
			c1.3,0,3.4,0.4,3.4,2v1H661V586c0-0.6-0.9-0.9-1.6-0.9c-1.2,0-1.9,0.4-1.9,1.2c0,2,5.7,1.6,5.7,5.1c0,1.9-1.7,3.1-3.9,3.1
			c-2.8,0-4.2-1.8-4.2-1.8L656.2,591.2z"/>
		<path class="st2" d="M666.7,585.9c0-0.3-0.2-0.5-0.5-0.5h-0.8v-1.7h2c0.9,0,1.3,0.4,1.3,1.3v7c0,0.3,0.2,0.5,0.5,0.5h0.8v1.7h-2
			c-0.9,0-1.3-0.4-1.3-1.3V585.9z M666.7,579.6h1.8v2.1h-1.8V579.6z"/>
		<path class="st2" d="M677.7,583.5c1.3,0,3.8,0.5,3.8,2.3v1.1h-1.8v-0.6c0-0.7-1.2-1.1-1.9-1.1c-2,0-3.6,1.5-3.6,3.7
			c0,2.4,1.7,3.7,3.7,3.7s3.3-1.4,3.3-1.4l0.9,1.4c0,0-1.5,1.8-4.3,1.8c-3.3,0-5.6-2.3-5.6-5.5C672.1,585.9,674.4,583.5,677.7,583.5
			z"/>
		<path class="st2" d="M684.9,585.9c0-0.3-0.2-0.5-0.5-0.5h-0.8v-1.7h2c1,0,1.3,0.4,1.3,1.3v5c0,1.4,0.3,2.6,1.9,2.6
			c2.2,0,3.4-1.9,3.4-4v-4.9h2v8.3c0,0.3,0.2,0.5,0.5,0.5h0.8v1.7h-1.9c-0.9,0-1.3-0.4-1.3-1.2v-0.4c0-0.3,0-0.6,0-0.6l0,0
			c-0.4,1-1.8,2.4-3.9,2.4c-2.4,0-3.6-1.2-3.6-4L684.9,585.9L684.9,585.9z"/>
		<path class="st2" d="M698.7,585.9c0-0.3-0.2-0.5-0.5-0.5h-0.8v-1.7h1.9c0.9,0,1.3,0.4,1.3,1.2v0.7c0,0.4,0,0.7,0,0.7l0,0
			c0.5-1.5,1.7-2.7,3.3-2.7c0.3,0,0.5,0,0.5,0v2c0,0-0.3-0.1-0.6-0.1c-1.3,0-2.5,0.9-2.9,2.5c-0.2,0.6-0.2,1.2-0.2,1.9v4.3h-2V585.9
			z"/>
		<path class="st2" d="M711.3,583.5c2.9,0,4.5,2.2,4.5,4.9c0,0.3-0.1,0.8-0.1,0.8h-7.6c0.1,2.2,1.7,3.5,3.6,3.5
			c1.8,0,3.1-1.2,3.1-1.2l0.9,1.4c0,0-1.6,1.5-4,1.5c-3.3,0-5.6-2.4-5.6-5.5C706.1,585.6,708.3,583.5,711.3,583.5z M713.8,587.7
			c-0.1-1.7-1.2-2.7-2.5-2.7c-1.5,0-2.8,0.9-3.1,2.7H713.8z"/>
		<path class="st2" d="M718.3,593l5.4-6.6c0.5-0.6,0.9-1,0.9-1l0,0c0,0-0.3,0-1,0h-2.9c-0.3,0-0.5,0.2-0.5,0.5v0.7h-1.9V585
			c0-0.9,0.4-1.3,1.3-1.3h7.5v1.2l-5.4,6.6c-0.4,0.5-0.9,1-0.9,1l0,0c0,0,0.3,0,1,0h3.4c0.3,0,0.5-0.2,0.5-0.5v-0.7h1.8v1.6
			c0,0.9-0.4,1.3-1.3,1.3h-8V593H718.3z"/>
		<path class="st2" d="M729.5,593l5.4-6.6c0.5-0.6,0.9-1,0.9-1l0,0c0,0-0.3,0-1,0h-2.9c-0.3,0-0.5,0.2-0.5,0.5v0.7h-1.8V585
			c0-0.9,0.4-1.3,1.3-1.3h7.5v1.2l-5.4,6.6c-0.4,0.5-0.9,1-0.9,1l0,0c0,0,0.3,0,1,0h3.4c0.3,0,0.5-0.2,0.5-0.5v-0.7h1.8v1.6
			c0,0.9-0.4,1.3-1.3,1.3h-8V593z"/>
		<path class="st2" d="M747.2,587.7h0.5v-0.1c0-1.8-0.7-2.5-2.3-2.5c-0.5,0-1.7,0.1-1.7,0.8v0.6h-1.9v-1c0-1.7,2.6-2,3.6-2
			c3.4,0,4.3,1.8,4.3,4.1v4.5c0,0.3,0.2,0.5,0.5,0.5h0.8v1.7h-1.9c-0.9,0-1.3-0.5-1.3-1.2c0-0.4,0-0.6,0-0.6l0,0
			c0,0-0.8,2.1-3.3,2.1c-1.8,0-3.6-1.1-3.6-3.2C740.9,587.9,745.5,587.7,747.2,587.7z M744.9,592.8c1.7,0,2.8-1.8,2.8-3.3v-0.4h-0.5
			c-1.5,0-4.2,0.1-4.2,2C742.9,592,743.6,592.8,744.9,592.8z"/>
	</g>
	<g>
		<path class="st3" d="M639,516.1c0-1.6-1.2-2.8-3.1-2.8c-1.6,0-2.7,0.8-2.7,1.7v0.8h-2.3v-1.5c0-2.3,3-3.2,5.1-3.2
			c3.2,0,5.5,2,5.5,5c0,6-8.8,6.1-8.8,10.1c0,0.3,0.2,0.5,0.6,0.5h6.2c0.3,0,0.5-0.2,0.5-0.5V525h2.3v2.2c0,1.1-0.5,1.6-1.6,1.6
			h-8.9c-1.4,0-1.7-0.6-1.7-2C630.1,520.4,639,520.8,639,516.1z"/>
		<path class="st3" d="M647,520.1c0-5,1.5-9,6.2-9c4.6,0,6.2,4,6.2,9s-1.5,9-6.2,9S647,525.1,647,520.1z M656.8,520.1
			c0-3.8-0.8-6.7-3.7-6.7s-3.7,3-3.7,6.7c0,3.8,0.8,6.8,3.7,6.8C656,526.8,656.8,523.9,656.8,520.1z"/>
		<path class="st3" d="M664.4,526.7h3.8v-11.3c0-0.5,0-1.1,0-1.1h-0.1c0,0-0.2,0.4-0.8,1l-1.6,1.6l-1.5-1.5l4.2-4.1h2.2v15.3h3.8
			v2.1h-10.1L664.4,526.7L664.4,526.7z"/>
		<path class="st3" d="M680.1,524.8c0,0,1.4,1.9,4.1,1.9c2.2,0,3.8-1.5,3.8-3.5c0-2.2-1.9-3.6-4.2-3.6c-1.9,0-3.3,0.9-3.3,0.9
			l-1-0.5l0.7-7.2c0.1-1.1,0.5-1.6,1.6-1.6h6.1c1.1,0,1.6,0.5,1.6,1.6v2.2h-2.2v-1c0-0.4-0.2-0.5-0.5-0.5h-3.7
			c-0.3,0-0.5,0.2-0.5,0.5l-0.3,3.2c-0.1,0.5-0.1,0.9-0.1,0.9h0.1c0,0,0.9-0.5,2.2-0.5c3.8,0,6.2,2.5,6.2,5.7c0,3.1-2.5,5.8-6.3,5.8
			c-3.6,0-5.4-2.4-5.4-2.4L680.1,524.8z"/>
	</g>
	<g>
		<path class="st3" d="M817.4,516.1c0-1.6-1.2-2.8-3.1-2.8c-1.6,0-2.7,0.8-2.7,1.7v0.8h-2.3v-1.5c0-2.3,3-3.2,5.1-3.2
			c3.2,0,5.5,2,5.5,5c0,6-8.8,6.1-8.8,10.1c0,0.3,0.2,0.5,0.6,0.5h6.2c0.3,0,0.5-0.2,0.5-0.5V525h2.3v2.2c0,1.1-0.5,1.6-1.6,1.6
			h-8.9c-1.4,0-1.7-0.6-1.7-2C808.5,520.4,817.4,520.8,817.4,516.1z"/>
		<path class="st3" d="M825.4,520.1c0-5,1.5-9,6.2-9c4.6,0,6.2,4,6.2,9s-1.5,9-6.2,9S825.4,525.1,825.4,520.1z M835.2,520.1
			c0-3.8-0.8-6.7-3.7-6.7c-2.9,0-3.7,3-3.7,6.7c0,3.8,0.8,6.8,3.7,6.8C834.4,526.8,835.2,523.9,835.2,520.1z"/>
		<path class="st3" d="M842.7,526.7h3.8v-11.3c0-0.5,0-1.1,0-1.1h-0.1c0,0-0.2,0.4-0.8,1l-1.6,1.6l-1.5-1.5l4.2-4.1h2.2v15.3h3.8
			v2.1h-10.1L842.7,526.7L842.7,526.7z"/>
		<path class="st3" d="M856.7,521.1c0-4.5,2.4-10,7.9-10c2.1,0,3.4,0.7,3.4,0.7l-0.8,2.1c0,0-1.1-0.6-2.5-0.6c-3.2,0-4.9,3-5.2,6
			l0,0c0.7-1.1,2.3-1.7,3.9-1.7c3.3,0,5.5,2.5,5.5,5.7c0,3.4-2.3,5.8-5.6,5.8C859.5,529.1,856.7,525.9,856.7,521.1z M863.2,526.8
			c2,0,3.2-1.6,3.2-3.6c0-2.1-1.3-3.6-3.6-3.6c-2,0-3.5,1.2-3.5,2.4C859.3,524.3,861,526.8,863.2,526.8z"/>
	</g>
	<g>
		<path class="st3" d="M995.8,516.1c0-1.6-1.2-2.8-3.1-2.8c-1.6,0-2.7,0.8-2.7,1.7v0.8h-2.3v-1.5c0-2.3,3-3.2,5.1-3.2
			c3.2,0,5.5,2,5.5,5c0,6-8.8,6.1-8.8,10.1c0,0.3,0.2,0.5,0.6,0.5h6.2c0.3,0,0.5-0.2,0.5-0.5V525h2.3v2.2c0,1.1-0.5,1.6-1.6,1.6
			h-8.9c-1.4,0-1.7-0.6-1.7-2C986.9,520.4,995.8,520.8,995.8,516.1z"/>
		<path class="st3" d="M1003.8,520.1c0-5,1.5-9,6.2-9c4.6,0,6.2,4,6.2,9s-1.5,9-6.2,9S1003.8,525.1,1003.8,520.1z M1013.7,520.1
			c0-3.8-0.8-6.7-3.7-6.7c-2.9,0-3.7,3-3.7,6.7c0,3.8,0.8,6.8,3.7,6.8C1012.9,526.8,1013.7,523.9,1013.7,520.1z"/>
		<path class="st3" d="M1021.2,526.7h3.8v-11.3c0-0.5,0-1.1,0-1.1h-0.1c0,0-0.2,0.4-0.8,1l-1.6,1.6l-1.5-1.5l4.2-4.1h2.2v15.3h3.8
			v2.1h-10.1L1021.2,526.7L1021.2,526.7z"/>
		<path class="st3" d="M1043.3,515.1c0.5-1,1-1.6,1-1.6l0,0c0,0-0.4,0.1-1.3,0.1h-5.3c-0.3,0-0.5,0.2-0.5,0.5v1.1h-2.3V513
			c0-1.1,0.4-1.6,1.5-1.6h10.6v1.7l-8.4,15.8h-2.7L1043.3,515.1z"/>
	</g>
	<g>
		<path class="st1" d="M167.1,118.7h4.6v-13.6c0-0.7,0-1.3,0-1.3h-0.1c0,0-0.2,0.5-1,1.2l-2,1.9l-1.8-1.8l5-4.9h2.7v18.4h4.6v2.6
			h-12.2v-2.5H167.1z"/>
		<path class="st1" d="M185.4,116.4c0,0,2.1,2.4,5.3,2.4c2.3,0,4.2-1.6,4.2-3.8c0-2.3-2.1-3.7-4.5-3.7h-1.5l-0.6-1.6l4.4-5.5
			c0.6-0.9,1.2-1.4,1.2-1.4v-0.1c0,0-0.6,0.1-1.8,0.1h-4c-0.4,0-0.7,0.2-0.7,0.7v1.3h-2.7v-2.6c0-1.3,0.5-1.9,1.8-1.9h11.1v1.9
			l-5.5,6.7c2.7,0.3,5.9,2.1,5.9,6.2c0,3.5-2.8,6.7-7.2,6.7c-4.4,0-6.9-2.9-6.9-2.9L185.4,116.4z"/>
	</g>
	<g>
		<path class="st2" d="M159,326.8c0,0,2.1,2.4,5.3,2.4c2.3,0,4.2-1.6,4.2-3.8c0-2.3-2.1-3.7-4.5-3.7h-1.5l-0.6-1.6l4.4-5.5
			c0.6-0.9,1.2-1.4,1.2-1.4v-0.1c0,0-0.6,0.1-1.8,0.1h-4c-0.4,0-0.7,0.2-0.7,0.7v1.3h-2.7v-2.6c0-1.3,0.5-1.9,1.8-1.9h11.1v1.9
			l-5.5,6.7c2.7,0.3,5.9,2.1,5.9,6.2c0,3.5-2.8,6.7-7.2,6.7c-4.4,0-6.9-2.9-6.9-2.9L159,326.8z"/>
		<path class="st2" d="M181,328.5l-2.5,6.1h-2.2l1.8-6.1H181z"/>
		<path class="st2" d="M186.6,322.3c0-5.5,2.9-12,9.5-12c2.5,0,4.1,0.9,4.1,0.9l-1,2.5c0,0-1.3-0.7-3-0.7c-3.8,0-5.9,3.6-6.3,7.2
			h0.1c0.9-1.3,2.8-2.1,4.6-2.1c4,0,6.6,3,6.6,6.8c0,4.1-2.8,7-6.7,7C190,332,186.6,328.1,186.6,322.3z M194.4,329.2
			c2.4,0,3.9-1.9,3.9-4.3c0-2.5-1.6-4.3-4.3-4.3c-2.3,0-4.2,1.4-4.2,2.9C189.7,326.2,191.7,329.2,194.4,329.2z"/>
	</g>
	<g>
		<path class="st2" d="M471.1,339.2c0-1.9-1.4-3.3-3.7-3.3c-1.9,0-3.2,1-3.2,2v0.9h-2.7V337c0-2.7,3.7-3.9,6.1-3.9
			c3.8,0,6.6,2.4,6.6,6c0,7.2-10.6,7.3-10.6,12.2c0,0.4,0.2,0.6,0.7,0.6h7.5c0.4,0,0.7-0.2,0.7-0.7v-1.3h2.7v2.6
			c0,1.3-0.6,1.9-1.9,1.9h-10.8c-1.6,0-2-0.7-2-2.4C460.4,344.3,471.1,344.8,471.1,339.2z"/>
		<path class="st2" d="M484.7,351.3l-2.5,6.1H480l1.8-6.1H484.7z"/>
		<path class="st2" d="M492.4,351.4c0,0,1.3,0.7,3,0.7c3.8,0,5.9-3.6,6.3-7.2h-0.1c-0.9,1.3-2.8,2.1-4.6,2.1c-4,0-6.6-3-6.6-6.8
			c0-4.1,2.8-7,6.7-7c4.5,0,7.8,3.8,7.8,9.7c0,5.5-2.9,12-9.4,12c-2.5,0-4.1-0.9-4.1-0.9L492.4,351.4z M501.8,341.5
			c0-2.7-2-5.7-4.7-5.7c-2.4,0-3.9,1.9-3.9,4.3c0,2.5,1.6,4.3,4.3,4.3C499.9,344.5,501.8,343,501.8,341.5z"/>
	</g>
	<g>
		<path class="st2" d="M635.6,351.3c0-1.9-1.4-3.3-3.7-3.3c-1.9,0-3.2,1-3.2,2v0.9H626v-1.8c0-2.7,3.7-3.9,6.1-3.9
			c3.8,0,6.6,2.4,6.6,6c0,7.2-10.6,7.3-10.6,12.2c0,0.4,0.2,0.6,0.7,0.6h7.5c0.4,0,0.7-0.2,0.7-0.7V362h2.7v2.6
			c0,1.3-0.6,1.9-1.9,1.9H627c-1.6,0-2-0.7-2-2.4C624.9,356.5,635.6,357,635.6,351.3z"/>
		<path class="st2" d="M649.2,363.5l-2.5,6.1h-2.2l1.8-6.1H649.2z"/>
		<path class="st2" d="M656.3,361.8c0,0,2.1,2.4,5.3,2.4c2.3,0,4.2-1.6,4.2-3.8c0-2.3-2.1-3.7-4.5-3.7h-1.5l-0.6-1.6l4.4-5.5
			c0.6-0.9,1.2-1.4,1.2-1.4v-0.1c0,0-0.6,0.1-1.8,0.1h-4c-0.4,0-0.7,0.2-0.7,0.7v1.3h-2.7v-2.6c0-1.3,0.5-1.9,1.8-1.9h11.1v1.9
			l-5.5,6.7c2.7,0.3,5.9,2.1,5.9,6.2c0,3.5-2.8,6.7-7.2,6.7s-6.9-2.9-6.9-2.9L656.3,361.8z"/>
	</g>
	<g>
		<path class="st2" d="M785.9,381.3h4.6v-13.6c0-0.7,0-1.3,0-1.3h-0.1c0,0-0.2,0.5-1,1.2l-2,1.9l-1.8-1.8l5-4.9h2.7v18.4h4.6v2.6
			h-12.2v-2.5H785.9z"/>
		<path class="st2" d="M807.3,380.7l-2.5,6.1h-2.2l1.8-6.1H807.3z"/>
		<path class="st2" d="M812.9,374.5c0-5.5,2.9-12,9.4-12c2.5,0,4.1,0.9,4.1,0.9l-1,2.5c0,0-1.3-0.7-3-0.7c-3.8,0-5.9,3.6-6.3,7.2
			h0.1c0.9-1.3,2.8-2.1,4.6-2.1c4,0,6.6,3,6.6,6.8c0,4.1-2.8,7-6.7,7C816.3,384.2,812.9,380.4,812.9,374.5z M820.7,381.5
			c2.4,0,3.9-1.9,3.9-4.3c0-2.5-1.6-4.3-4.3-4.3c-2.3,0-4.3,1.4-4.3,2.9C816,378.4,818,381.5,820.7,381.5z"/>
	</g>
	<g>
		<path class="st2" d="M933.6,337.7c0-1.9-1.4-3.3-3.7-3.3c-1.9,0-3.2,1-3.2,2v0.9H924v-1.8c0-2.7,3.7-3.9,6.1-3.9
			c3.8,0,6.6,2.4,6.6,6c0,7.2-10.6,7.3-10.6,12.2c0,0.4,0.2,0.6,0.7,0.6h7.5c0.4,0,0.7-0.2,0.7-0.7v-1.3h2.7v2.6
			c0,1.3-0.6,1.9-1.9,1.9H925c-1.6,0-2-0.7-2-2.4C922.9,342.8,933.6,343.3,933.6,337.7z"/>
		<path class="st2" d="M947.2,349.8l-2.5,6.1h-2.2l1.8-6.1H947.2z"/>
		<path class="st2" d="M954.9,349.9c0,0,1.3,0.7,3,0.7c3.8,0,5.9-3.6,6.3-7.2h-0.1c-0.9,1.3-2.8,2.1-4.6,2.1c-4,0-6.6-3-6.6-6.8
			c0-4.1,2.8-7,6.7-7c4.5,0,7.8,3.8,7.8,9.7c0,5.5-2.9,12-9.4,12c-2.5,0-4.1-0.9-4.1-0.9L954.9,349.9z M964.4,340
			c0-2.7-2-5.7-4.7-5.7c-2.4,0-3.9,1.9-3.9,4.3c0,2.5,1.6,4.3,4.3,4.3C962.5,342.9,964.4,341.5,964.4,340z"/>
	</g>
	<g>
		<path class="st2" d="M339.8,342.1c0,0,2.1,2.4,5.3,2.4c2.3,0,4.2-1.6,4.2-3.8c0-2.3-2.1-3.7-4.5-3.7h-1.5l-0.6-1.6l4.4-5.5
			c0.6-0.9,1.2-1.4,1.2-1.4v-0.1c0,0-0.6,0.1-1.8,0.1h-4c-0.4,0-0.7,0.2-0.7,0.7v1.3h-2.7v-2.6c0-1.3,0.5-1.9,1.8-1.9H352v1.9
			l-5.5,6.7c2.7,0.3,5.9,2.1,5.9,6.2c0,3.5-2.8,6.7-7.2,6.7s-6.9-2.9-6.9-2.9L339.8,342.1z"/>
	</g>
	<g>
		<path class="st1" d="M325.4,167.4h4.6v-13.6c0-0.7,0-1.3,0-1.3h-0.1c0,0-0.2,0.5-1,1.2l-2,1.9l-1.8-1.8l5-4.9h2.7v18.4h4.6v2.6
			h-12.2v-2.5H325.4z"/>
		<path class="st1" d="M343.4,167.4h4.6v-13.6c0-0.7,0-1.3,0-1.3h-0.1c0,0-0.2,0.5-1,1.2l-2,1.9l-1.8-1.8l5-4.9h2.7v18.4h4.6v2.6
			h-12.2v-2.5H343.4z"/>
	</g>
	<g>
		<path class="st1" d="M475.8,180.8h4.6v-13.6c0-0.7,0-1.3,0-1.3h-0.1c0,0-0.2,0.5-1,1.2l-2,1.9l-1.8-1.8l5-4.9h2.7v18.4h4.6v2.6
			h-12.2v-2.5H475.8z"/>
		<path class="st1" d="M493,172.9c0-6,1.8-10.8,7.4-10.8c5.6,0,7.4,4.8,7.4,10.8c0,6.1-1.8,10.9-7.4,10.9
			C494.8,183.7,493,178.9,493,172.9z M504.8,172.9c0-4.5-1-8.1-4.4-8.1s-4.4,3.6-4.4,8.1c0,4.6,1,8.2,4.4,8.2
			C503.8,181,504.8,177.4,504.8,172.9z"/>
	</g>
	<g>
		<path class="st1" d="M643,234.9L643,234.9c0-0.1-2.6-1.4-2.6-4.3c0-2.9,2.3-5.6,6.5-5.6c4,0,6.6,2.4,6.6,5.7c0,3.1-2.5,5-2.5,5
			v0.1c1.9,1.1,3.1,2.6,3.1,4.8c0,3.3-3,6.2-7.3,6.2c-4,0-7.3-2.5-7.3-6.4C639.6,236.8,643,234.9,643,234.9z M646.9,243.9
			c2.2,0,4.2-1.5,4.2-3.5c0-1.8-1.6-2.6-3.5-3.4c-0.8-0.3-1.9-0.8-2.2-0.8c-0.7,0-2.9,1.7-2.9,4
			C642.6,242.4,644.6,243.9,646.9,243.9z M648.4,234.4c0.7,0,2.2-1.8,2.2-3.6c0-1.9-1.5-3.1-3.7-3.1c-2.3,0-3.6,1.3-3.6,3
			c0,1.8,1.6,2.6,3.4,3.3C647.2,234.1,648.1,234.4,648.4,234.4z"/>
	</g>
	<g>
		<path class="st1" d="M800.2,261.6c0-5.5,2.9-12,9.5-12c2.5,0,4.1,0.9,4.1,0.9l-1,2.5c0,0-1.3-0.7-3-0.7c-3.8,0-5.9,3.6-6.3,7.2
			h0.1c0.9-1.3,2.8-2.1,4.6-2.1c4,0,6.6,3,6.6,6.8c0,4.1-2.8,7-6.7,7C803.6,271.3,800.2,267.5,800.2,261.6z M808,268.6
			c2.4,0,3.9-1.9,3.9-4.3c0-2.5-1.6-4.3-4.3-4.3c-2.3,0-4.2,1.4-4.2,2.9C803.3,265.6,805.3,268.6,808,268.6z"/>
	</g>
	<g>
		<path class="st1" d="M951.2,216.2c0,0,1.3,0.7,3,0.7c3.8,0,5.9-3.6,6.3-7.2h-0.1c-0.9,1.3-2.8,2.1-4.6,2.1c-4,0-6.6-3-6.6-6.8
			c0-4.1,2.8-7,6.7-7c4.5,0,7.8,3.8,7.8,9.7c0,5.5-2.9,12-9.4,12c-2.5,0-4.1-0.9-4.1-0.9L951.2,216.2z M960.7,206.4
			c0-2.7-2-5.7-4.7-5.7c-2.4,0-3.9,1.9-3.9,4.3c0,2.5,1.6,4.3,4.3,4.3C958.8,209.3,960.7,207.9,960.7,206.4z"/>
	</g>
	<circle class="st1" cx="313.5" cy="711.8" r="21.1"/>
	<circle class="st3" cx="640.4" cy="711.8" r="21.1"/>
</g>
</svg>
