<svg baseProfile="basic" xmlns="http://www.w3.org/2000/svg" viewBox="0 0 500 336"><style type="text/css">.st0{fill:#00295A;} .st1{fill:#00245B;} .st2{fill:#5565FB;} .st3{fill:#4E5594;}</style><path class="st0" d="M489.4 246.2h-478c-2 0-3.6-1.6-3.6-3.6v-237c0-.1.1-.2.2-.2s.2.1.2.2v237c0 1.7 1.4 3.1 3.1 3.1h478c.1 0 .2.1.2.2s0 .3-.1.3zM466.9 39.9c0-.2.2-.4.4-.4.3 0 .4.2.4.4 0 .3-.2.4-.4.4s-.4-.2-.4-.4zm-3.9 0c0-.2.2-.4.4-.4.3 0 .4.2.4.4 0 .3-.2.4-.4.4s-.4-.2-.4-.4zm-3.9 0c0-.2.2-.4.4-.4s.4.2.4.4c0 .3-.2.4-.4.4s-.4-.2-.4-.4zm-3.8 0c0-.2.2-.4.4-.4.3 0 .4.2.4.4 0 .3-.2.4-.4.4-.3 0-.4-.2-.4-.4zm-3.9 0c0-.2.2-.4.4-.4s.4.2.4.4c0 .3-.2.4-.4.4-.3 0-.4-.2-.4-.4zm-3.9 0c0-.2.2-.4.4-.4s.4.2.4.4c0 .3-.2.4-.4.4s-.4-.2-.4-.4zm-3.9 0c0-.2.2-.4.4-.4.3 0 .4.2.4.4 0 .3-.2.4-.4.4s-.4-.2-.4-.4zm-3.9 0c0-.2.2-.4.4-.4s.4.2.4.4c0 .3-.2.4-.4.4s-.4-.2-.4-.4zm-3.9 0c0-.2.2-.4.4-.4.3 0 .4.2.4.4 0 .3-.2.4-.4.4s-.4-.2-.4-.4zm-3.8 0c0-.2.2-.4.4-.4s.4.2.4.4c0 .3-.2.4-.4.4-.3 0-.4-.2-.4-.4zm-3.9 0c0-.2.2-.4.4-.4s.4.2.4.4c0 .3-.2.4-.4.4s-.4-.2-.4-.4zm-3.9 0c0-.2.2-.4.4-.4.3 0 .4.2.4.4 0 .3-.2.4-.4.4s-.4-.2-.4-.4zm-3.9 0c0-.2.2-.4.4-.4s.4.2.4.4c0 .3-.2.4-.4.4s-.4-.2-.4-.4zm-3.9 0c0-.2.2-.4.4-.4.3 0 .4.2.4.4 0 .3-.2.4-.4.4s-.4-.2-.4-.4zm-3.8 0c0-.2.2-.4.4-.4.3 0 .4.2.4.4 0 .3-.2.4-.4.4-.3 0-.4-.2-.4-.4zm-3.9 0c0-.2.2-.4.4-.4s.4.2.4.4c0 .3-.2.4-.4.4-.3 0-.4-.2-.4-.4zm-3.9 0c0-.2.2-.4.4-.4.3 0 .4.2.4.4 0 .3-.2.4-.4.4s-.4-.2-.4-.4zm-3.9 0c0-.2.2-.4.4-.4s.4.2.4.4c0 .3-.2.4-.4.4s-.4-.2-.4-.4zm-3.9 0c0-.2.2-.4.4-.4.3 0 .4.2.4.4 0 .3-.2.4-.4.4s-.4-.2-.4-.4zm-3.9 0c0-.2.2-.4.4-.4.3 0 .4.2.4.4 0 .3-.2.4-.4.4s-.4-.2-.4-.4zm-3.8 0c0-.2.2-.4.4-.4s.4.2.4.4c0 .3-.2.4-.4.4-.3 0-.4-.2-.4-.4zm-3.9 0c0-.2.2-.4.4-.4.3 0 .4.2.4.4 0 .3-.2.4-.4.4s-.4-.2-.4-.4zm-3.9 0c0-.2.2-.4.4-.4s.4.2.4.4c0 .3-.2.4-.4.4s-.4-.2-.4-.4zm-3.9 0c0-.2.2-.4.4-.4.3 0 .4.2.4.4 0 .3-.2.4-.4.4s-.4-.2-.4-.4zm-3.9 0c0-.2.2-.4.4-.4.3 0 .4.2.4.4 0 .3-.2.4-.4.4s-.4-.2-.4-.4zm-3.8 0c0-.2.2-.4.4-.4s.4.2.4.4c0 .3-.2.4-.4.4-.3 0-.4-.2-.4-.4zm-3.9 0c0-.2.2-.4.4-.4.3 0 .4.2.4.4 0 .3-.2.4-.4.4-.3 0-.4-.2-.4-.4zm-3.9 0c0-.2.2-.4.4-.4s.4.2.4.4c0 .3-.2.4-.4.4s-.4-.2-.4-.4zm-3.9 0c0-.2.2-.4.4-.4.3 0 .4.2.4.4 0 .3-.2.4-.4.4s-.4-.2-.4-.4zm-3.9 0c0-.2.2-.4.4-.4.3 0 .4.2.4.4 0 .3-.2.4-.4.4s-.4-.2-.4-.4zm-3.9 0c0-.2.2-.4.4-.4s.4.2.4.4c0 .3-.2.4-.4.4s-.4-.2-.4-.4zm-3.8 0c0-.2.2-.4.4-.4.3 0 .4.2.4.4 0 .3-.2.4-.4.4-.3 0-.4-.2-.4-.4zm-3.9 0c0-.2.2-.4.4-.4s.4.2.4.4c0 .3-.2.4-.4.4s-.4-.2-.4-.4zm-3.9 0c0-.2.2-.4.4-.4.3 0 .4.2.4.4 0 .3-.2.4-.4.4s-.4-.2-.4-.4zm-3.9 0c0-.2.2-.4.4-.4.3 0 .4.2.4.4 0 .3-.2.4-.4.4s-.4-.2-.4-.4zm-3.9 0c0-.2.2-.4.4-.4s.4.2.4.4c0 .3-.2.4-.4.4s-.4-.2-.4-.4zm-3.8 0c0-.2.2-.4.4-.4.3 0 .4.2.4.4 0 .3-.2.4-.4.4-.3 0-.4-.2-.4-.4zm-3.9 0c0-.2.2-.4.4-.4s.4.2.4.4c0 .3-.2.4-.4.4-.3 0-.4-.2-.4-.4zm-3.9 0c0-.2.2-.4.4-.4.3 0 .4.2.4.4 0 .3-.2.4-.4.4s-.4-.2-.4-.4zm-3.9 0c0-.2.2-.4.4-.4.3 0 .4.2.4.4 0 .3-.2.4-.4.4s-.4-.2-.4-.4zm-3.9 0c0-.2.2-.4.4-.4s.4.2.4.4c0 .3-.2.4-.4.4s-.4-.2-.4-.4zm-3.9 0c0-.2.2-.4.4-.4s.4.2.4.4c0 .3-.2.4-.4.4s-.4-.2-.4-.4zm-3.8 0c0-.2.2-.4.4-.4s.4.2.4.4c0 .3-.2.4-.4.4-.3 0-.4-.2-.4-.4zm-3.9 0c0-.2.2-.4.4-.4s.4.2.4.4c0 .3-.2.4-.4.4s-.4-.2-.4-.4zm-3.9 0c0-.2.2-.4.4-.4.3 0 .4.2.4.4 0 .3-.2.4-.4.4s-.4-.2-.4-.4zm-3.9 0c0-.2.2-.4.4-.4s.4.2.4.4c0 .3-.2.4-.4.4s-.4-.2-.4-.4zm-3.9 0c0-.2.2-.4.4-.4s.4.2.4.4c0 .3-.2.4-.4.4s-.4-.2-.4-.4zm-3.8 0c0-.2.2-.4.4-.4s.4.2.4.4c0 .3-.2.4-.4.4-.3 0-.4-.2-.4-.4zm-3.9 0c0-.2.2-.4.4-.4s.4.2.4.4c0 .3-.2.4-.4.4-.3 0-.4-.2-.4-.4zm-3.9 0c0-.2.2-.4.4-.4.3 0 .4.2.4.4 0 .3-.2.4-.4.4s-.4-.2-.4-.4zm-3.9 0c0-.2.2-.4.4-.4s.4.2.4.4c0 .3-.2.4-.4.4s-.4-.2-.4-.4zm-3.9 0c0-.2.2-.4.4-.4s.4.2.4.4c0 .3-.2.4-.4.4s-.4-.2-.4-.4zm-3.9 0c0-.2.2-.4.4-.4s.4.2.4.4c0 .3-.2.4-.4.4s-.4-.2-.4-.4zm-3.8 0c0-.2.2-.4.4-.4s.4.2.4.4c0 .3-.2.4-.4.4-.3 0-.4-.2-.4-.4zm-3.9 0c0-.2.2-.4.4-.4.3 0 .4.2.4.4 0 .3-.2.4-.4.4s-.4-.2-.4-.4zm-3.9 0c0-.2.2-.4.4-.4s.4.2.4.4c0 .3-.2.4-.4.4s-.4-.2-.4-.4zm-3.9 0c0-.2.2-.4.4-.4s.4.2.4.4c0 .3-.2.4-.4.4s-.4-.2-.4-.4zm-3.9 0c0-.2.2-.4.4-.4s.4.2.4.4c0 .3-.2.4-.4.4s-.4-.2-.4-.4zm-3.8 0c0-.2.2-.4.4-.4s.4.2.4.4c0 .3-.2.4-.4.4-.3 0-.4-.2-.4-.4zm-3.9 0c0-.2.2-.4.4-.4.3 0 .4.2.4.4 0 .3-.2.4-.4.4-.3 0-.4-.2-.4-.4zm-3.9 0c0-.2.2-.4.4-.4s.4.2.4.4c0 .3-.2.4-.4.4s-.4-.2-.4-.4zm-3.9 0c0-.2.2-.4.4-.4s.4.2.4.4c0 .3-.2.4-.4.4s-.4-.2-.4-.4zm-3.9 0c0-.2.2-.4.4-.4s.4.2.4.4c0 .3-.2.4-.4.4s-.4-.2-.4-.4zm-3.9 0c0-.2.2-.4.4-.4s.4.2.4.4c0 .3-.2.4-.4.4s-.4-.2-.4-.4zm-3.8 0c0-.2.2-.4.4-.4.3 0 .4.2.4.4 0 .3-.2.4-.4.4-.3 0-.4-.2-.4-.4zm-3.9 0c0-.2.2-.4.4-.4s.4.2.4.4c0 .3-.2.4-.4.4s-.4-.2-.4-.4zm-3.9 0c0-.2.2-.4.4-.4s.4.2.4.4c0 .3-.2.4-.4.4s-.4-.2-.4-.4zm-3.9 0c0-.2.2-.4.4-.4s.4.2.4.4c0 .3-.2.4-.4.4s-.4-.2-.4-.4zm-3.9 0c0-.2.2-.4.4-.4s.4.2.4.4c0 .3-.2.4-.4.4s-.4-.2-.4-.4zm-3.8 0c0-.2.2-.4.4-.4.3 0 .4.2.4.4 0 .3-.2.4-.4.4-.3 0-.4-.2-.4-.4zm-3.9 0c0-.2.2-.4.4-.4s.4.2.4.4c0 .3-.2.4-.4.4-.3 0-.4-.2-.4-.4zm-3.9 0c0-.2.2-.4.4-.4s.4.2.4.4c0 .3-.2.4-.4.4s-.4-.2-.4-.4zm-3.9 0c0-.2.2-.4.4-.4s.4.2.4.4c0 .3-.2.4-.4.4s-.4-.2-.4-.4zm-3.9 0c0-.2.2-.4.4-.4s.4.2.4.4c0 .3-.2.4-.4.4s-.4-.2-.4-.4zm-3.9 0c0-.2.2-.4.4-.4s.4.2.4.4c0 .3-.2.4-.4.4s-.4-.2-.4-.4zm-3.8 0c0-.2.2-.4.4-.4s.4.2.4.4c0 .3-.2.4-.4.4-.3 0-.4-.2-.4-.4zm-3.9 0c0-.2.2-.4.4-.4s.4.2.4.4c0 .3-.2.4-.4.4s-.4-.2-.4-.4zm-3.9 0c0-.2.2-.4.4-.4s.4.2.4.4c0 .3-.2.4-.4.4s-.4-.2-.4-.4zm-3.9 0c0-.2.2-.4.4-.4s.4.2.4.4c0 .3-.2.4-.4.4s-.4-.2-.4-.4zm-3.9 0c0-.2.2-.4.4-.4s.4.2.4.4c0 .3-.2.4-.4.4s-.4-.2-.4-.4zm-3.8 0c0-.2.2-.4.4-.4s.4.2.4.4c0 .3-.2.4-.4.4-.3 0-.4-.2-.4-.4zm-3.9 0c0-.2.2-.4.4-.4s.4.2.4.4c0 .3-.2.4-.4.4-.3 0-.4-.2-.4-.4zm-3.9 0c0-.2.2-.4.4-.4s.4.2.4.4c0 .3-.2.4-.4.4s-.4-.2-.4-.4zm-3.9 0c0-.2.2-.4.4-.4s.4.2.4.4c0 .3-.2.4-.4.4s-.4-.2-.4-.4zm-3.9 0c0-.2.2-.4.4-.4s.4.2.4.4c0 .3-.2.4-.4.4s-.4-.2-.4-.4zm-3.9 0c0-.2.2-.4.4-.4s.4.2.4.4c0 .3-.2.4-.4.4s-.4-.2-.4-.4zm-3.8 0c0-.2.2-.4.4-.4s.4.2.4.4c0 .3-.2.4-.4.4-.3 0-.4-.2-.4-.4zm-3.9 0c0-.2.2-.4.4-.4s.4.2.4.4c0 .3-.2.4-.4.4s-.4-.2-.4-.4zm-3.9 0c0-.2.2-.4.4-.4s.4.2.4.4c0 .3-.2.4-.4.4s-.4-.2-.4-.4zm-3.9 0c0-.2.2-.4.4-.4s.4.2.4.4c0 .3-.2.4-.4.4s-.4-.2-.4-.4zm-3.9 0c0-.2.2-.4.4-.4s.4.2.4.4c0 .3-.2.4-.4.4s-.4-.2-.4-.4zm-3.8 0c0-.2.2-.4.4-.4s.4.2.4.4c0 .3-.2.4-.4.4-.3 0-.4-.2-.4-.4zm-3.9 0c0-.2.2-.4.4-.4s.4.2.4.4c0 .3-.2.4-.4.4-.3 0-.4-.2-.4-.4zm-3.9 0c0-.2.2-.4.4-.4s.4.2.4.4c0 .3-.2.4-.4.4s-.4-.2-.4-.4zm-3.9 0c0-.2.2-.4.4-.4s.4.2.4.4c0 .3-.2.4-.4.4s-.4-.2-.4-.4zm-3.9 0c0-.2.2-.4.4-.4s.4.2.4.4c0 .3-.2.4-.4.4s-.4-.2-.4-.4zm-3.9 0c0-.2.2-.4.4-.4s.4.2.4.4c0 .3-.2.4-.4.4s-.4-.2-.4-.4zm-3.8 0c0-.2.2-.4.4-.4s.4.2.4.4c0 .3-.2.4-.4.4-.3 0-.4-.2-.4-.4zm-3.9 0c0-.2.2-.4.4-.4s.4.2.4.4c0 .3-.2.4-.4.4s-.4-.2-.4-.4zm-3.9 0c0-.2.2-.4.4-.4s.4.2.4.4c0 .3-.2.4-.4.4s-.4-.2-.4-.4zm-3.9 0c0-.2.2-.4.4-.4s.4.2.4.4c0 .3-.2.4-.4.4s-.4-.2-.4-.4zm-3.9 0c0-.2.2-.4.4-.4s.4.2.4.4c0 .3-.2.4-.4.4s-.4-.2-.4-.4zm-3.8 0c0-.2.2-.4.4-.4s.4.2.4.4c0 .3-.2.4-.4.4-.3 0-.4-.2-.4-.4zm-3.9 0c0-.2.2-.4.4-.4s.4.2.4.4c0 .3-.2.4-.4.4-.3 0-.4-.2-.4-.4zm-3.9 0c0-.2.2-.4.4-.4s.4.2.4.4c0 .3-.2.4-.4.4s-.4-.2-.4-.4zm-3.9 0c0-.2.2-.4.4-.4s.4.2.4.4c0 .3-.2.4-.4.4s-.4-.2-.4-.4zm-3.9 0c0-.2.2-.4.4-.4s.4.2.4.4c0 .3-.2.4-.4.4s-.4-.2-.4-.4zm-3.8 0c0-.2.2-.4.4-.4s.4.2.4.4c0 .3-.2.4-.4.4-.3 0-.4-.2-.4-.4zm-3.9 0c0-.2.2-.4.4-.4s.4.2.4.4c0 .3-.2.4-.4.4-.3 0-.4-.2-.4-.4zm-3.9 0c0-.2.2-.4.4-.4s.4.2.4.4c0 .3-.2.4-.4.4s-.4-.2-.4-.4zm-3.9 0c0-.2.2-.4.4-.4.3 0 .4.2.4.4 0 .3-.2.4-.4.4s-.4-.2-.4-.4zM466.9 93c0-.2.2-.4.4-.4.3 0 .4.2.4.4s-.2.4-.4.4-.4-.2-.4-.4zm-3.9 0c0-.2.2-.4.4-.4.3 0 .4.2.4.4s-.2.4-.4.4-.4-.2-.4-.4zm-3.9 0c0-.2.2-.4.4-.4s.4.2.4.4-.2.4-.4.4-.4-.2-.4-.4zm-3.8 0c0-.2.2-.4.4-.4s.4.2.4.4-.2.4-.4.4c-.3 0-.4-.2-.4-.4zm-3.9 0c0-.2.2-.4.4-.4.3 0 .4.2.4.4s-.2.4-.4.4c-.3 0-.4-.2-.4-.4zm-3.9 0c0-.2.2-.4.4-.4.3 0 .4.2.4.4s-.2.4-.4.4-.4-.2-.4-.4zm-3.9 0c0-.2.2-.4.4-.4s.4.2.4.4-.2.4-.4.4-.4-.2-.4-.4zm-3.9 0c0-.2.2-.4.4-.4s.4.2.4.4-.2.4-.4.4-.4-.2-.4-.4zm-3.9 0c0-.2.2-.4.4-.4.3 0 .4.2.4.4s-.2.4-.4.4-.4-.2-.4-.4zm-3.8 0c0-.2.2-.4.4-.4.3 0 .4.2.4.4s-.2.4-.4.4c-.3 0-.4-.2-.4-.4zm-3.9 0c0-.2.2-.4.4-.4.3 0 .4.2.4.4s-.2.4-.4.4-.4-.2-.4-.4zm-3.9 0c0-.2.2-.4.4-.4s.4.2.4.4-.2.4-.4.4-.4-.2-.4-.4zm-3.9 0c0-.2.2-.4.4-.4s.4.2.4.4-.2.4-.4.4-.4-.2-.4-.4zm-3.9 0c0-.2.2-.4.4-.4.3 0 .4.2.4.4s-.2.4-.4.4-.4-.2-.4-.4zm-3.8 0c0-.2.2-.4.4-.4.3 0 .4.2.4.4s-.2.4-.4.4c-.3 0-.4-.2-.4-.4zm-3.9 0c0-.2.2-.4.4-.4s.4.2.4.4-.2.4-.4.4c-.3 0-.4-.2-.4-.4zm-3.9 0c0-.2.2-.4.4-.4s.4.2.4.4-.2.4-.4.4-.4-.2-.4-.4zm-3.9 0c0-.2.2-.4.4-.4.3 0 .4.2.4.4s-.2.4-.4.4-.4-.2-.4-.4zm-3.9 0c0-.2.2-.4.4-.4.3 0 .4.2.4.4s-.2.4-.4.4-.4-.2-.4-.4zm-3.9 0c0-.2.2-.4.4-.4.3 0 .4.2.4.4s-.2.4-.4.4-.4-.2-.4-.4zm-3.8 0c0-.2.2-.4.4-.4s.4.2.4.4-.2.4-.4.4c-.3 0-.4-.2-.4-.4zm-3.9 0c0-.2.2-.4.4-.4s.4.2.4.4-.2.4-.4.4-.4-.2-.4-.4zm-3.9 0c0-.2.2-.4.4-.4.3 0 .4.2.4.4s-.2.4-.4.4-.4-.2-.4-.4zm-3.9 0c0-.2.2-.4.4-.4.3 0 .4.2.4.4s-.2.4-.4.4-.4-.2-.4-.4zm-3.9 0c0-.2.2-.4.4-.4s.4.2.4.4-.2.4-.4.4-.4-.2-.4-.4zm-3.8 0c0-.2.2-.4.4-.4s.4.2.4.4-.2.4-.4.4c-.3 0-.4-.2-.4-.4zm-3.9 0c0-.2.2-.4.4-.4.3 0 .4.2.4.4s-.2.4-.4.4c-.3 0-.4-.2-.4-.4zm-3.9 0c0-.2.2-.4.4-.4.3 0 .4.2.4.4s-.2.4-.4.4-.4-.2-.4-.4zm-3.9 0c0-.2.2-.4.4-.4.3 0 .4.2.4.4s-.2.4-.4.4-.4-.2-.4-.4zm-3.9 0c0-.2.2-.4.4-.4s.4.2.4.4-.2.4-.4.4-.4-.2-.4-.4zm-3.9 0c0-.2.2-.4.4-.4s.4.2.4.4-.2.4-.4.4-.4-.2-.4-.4zm-3.8 0c0-.2.2-.4.4-.4.3 0 .4.2.4.4s-.2.4-.4.4c-.3 0-.4-.2-.4-.4zm-3.9 0c0-.2.2-.4.4-.4.3 0 .4.2.4.4s-.2.4-.4.4-.4-.2-.4-.4zm-3.9 0c0-.2.2-.4.4-.4s.4.2.4.4-.2.4-.4.4-.4-.2-.4-.4zm-3.9 0c0-.2.2-.4.4-.4s.4.2.4.4-.2.4-.4.4-.4-.2-.4-.4zm-3.9 0c0-.2.2-.4.4-.4.3 0 .4.2.4.4s-.2.4-.4.4-.4-.2-.4-.4zm-3.8 0c0-.2.2-.4.4-.4.3 0 .4.2.4.4s-.2.4-.4.4c-.3 0-.4-.2-.4-.4zm-3.9 0c0-.2.2-.4.4-.4.3 0 .4.2.4.4s-.2.4-.4.4c-.3 0-.4-.2-.4-.4zm-3.9 0c0-.2.2-.4.4-.4s.4.2.4.4-.2.4-.4.4-.4-.2-.4-.4zm-3.9 0c0-.2.2-.4.4-.4s.4.2.4.4-.2.4-.4.4-.4-.2-.4-.4zm-3.9 0c0-.2.2-.4.4-.4.3 0 .4.2.4.4s-.2.4-.4.4-.4-.2-.4-.4zm-3.9 0c0-.2.2-.4.4-.4s.4.2.4.4-.2.4-.4.4-.4-.2-.4-.4zm-3.8 0c0-.2.2-.4.4-.4s.4.2.4.4-.2.4-.4.4c-.3 0-.4-.2-.4-.4zm-3.9 0c0-.2.2-.4.4-.4s.4.2.4.4-.2.4-.4.4-.4-.2-.4-.4zm-3.9 0c0-.2.2-.4.4-.4.3 0 .4.2.4.4s-.2.4-.4.4-.4-.2-.4-.4zm-3.9 0c0-.2.2-.4.4-.4s.4.2.4.4-.2.4-.4.4-.4-.2-.4-.4zm-3.9 0c0-.2.2-.4.4-.4s.4.2.4.4-.2.4-.4.4-.4-.2-.4-.4zm-3.8 0c0-.2.2-.4.4-.4s.4.2.4.4-.2.4-.4.4c-.3 0-.4-.2-.4-.4zm-3.9 0c0-.2.2-.4.4-.4s.4.2.4.4-.2.4-.4.4c-.3 0-.4-.2-.4-.4zm-3.9 0c0-.2.2-.4.4-.4.3 0 .4.2.4.4s-.2.4-.4.4-.4-.2-.4-.4zm-3.9 0c0-.2.2-.4.4-.4s.4.2.4.4-.2.4-.4.4-.4-.2-.4-.4zm-3.9 0c0-.2.2-.4.4-.4s.4.2.4.4-.2.4-.4.4-.4-.2-.4-.4zm-3.9 0c0-.2.2-.4.4-.4s.4.2.4.4-.2.4-.4.4-.4-.2-.4-.4zm-3.8 0c0-.2.2-.4.4-.4.3 0 .4.2.4.4s-.2.4-.4.4c-.3 0-.4-.2-.4-.4zm-3.9 0c0-.2.2-.4.4-.4s.4.2.4.4-.2.4-.4.4-.4-.2-.4-.4zm-3.9 0c0-.2.2-.4.4-.4s.4.2.4.4-.2.4-.4.4-.4-.2-.4-.4zm-3.9 0c0-.2.2-.4.4-.4s.4.2.4.4-.2.4-.4.4-.4-.2-.4-.4zm-3.9 0c0-.2.2-.4.4-.4s.4.2.4.4-.2.4-.4.4-.4-.2-.4-.4zm-3.8 0c0-.2.2-.4.4-.4.3 0 .4.2.4.4s-.2.4-.4.4c-.3 0-.4-.2-.4-.4zm-3.9 0c0-.2.2-.4.4-.4s.4.2.4.4-.2.4-.4.4c-.3 0-.4-.2-.4-.4zm-3.9 0c0-.2.2-.4.4-.4s.4.2.4.4-.2.4-.4.4-.4-.2-.4-.4zm-3.9 0c0-.2.2-.4.4-.4s.4.2.4.4-.2.4-.4.4-.4-.2-.4-.4zm-3.9 0c0-.2.2-.4.4-.4.3 0 .4.2.4.4s-.2.4-.4.4-.4-.2-.4-.4zm-3.9 0c0-.2.2-.4.4-.4s.4.2.4.4-.2.4-.4.4-.4-.2-.4-.4zm-3.8 0c0-.2.2-.4.4-.4s.4.2.4.4-.2.4-.4.4c-.3 0-.4-.2-.4-.4zm-3.9 0c0-.2.2-.4.4-.4s.4.2.4.4-.2.4-.4.4-.4-.2-.4-.4zm-3.9 0c0-.2.2-.4.4-.4s.4.2.4.4-.2.4-.4.4-.4-.2-.4-.4zm-3.9 0c0-.2.2-.4.4-.4.3 0 .4.2.4.4s-.2.4-.4.4-.4-.2-.4-.4zm-3.9 0c0-.2.2-.4.4-.4s.4.2.4.4-.2.4-.4.4-.4-.2-.4-.4zm-3.8 0c0-.2.2-.4.4-.4s.4.2.4.4-.2.4-.4.4c-.3 0-.4-.2-.4-.4zm-3.9 0c0-.2.2-.4.4-.4s.4.2.4.4-.2.4-.4.4c-.3 0-.4-.2-.4-.4zm-3.9 0c0-.2.2-.4.4-.4.3 0 .4.2.4.4s-.2.4-.4.4-.4-.2-.4-.4zm-3.9 0c0-.2.2-.4.4-.4s.4.2.4.4-.2.4-.4.4-.4-.2-.4-.4zm-3.9 0c0-.2.2-.4.4-.4s.4.2.4.4-.2.4-.4.4-.4-.2-.4-.4zm-3.9 0c0-.2.2-.4.4-.4s.4.2.4.4-.2.4-.4.4-.4-.2-.4-.4zm-3.8 0c0-.2.2-.4.4-.4s.4.2.4.4-.2.4-.4.4c-.3 0-.4-.2-.4-.4zm-3.9 0c0-.2.2-.4.4-.4s.4.2.4.4-.2.4-.4.4-.4-.2-.4-.4zm-3.9 0c0-.2.2-.4.4-.4s.4.2.4.4-.2.4-.4.4-.4-.2-.4-.4zm-3.9 0c0-.2.2-.4.4-.4s.4.2.4.4-.2.4-.4.4-.4-.2-.4-.4zm-3.9 0c0-.2.2-.4.4-.4s.4.2.4.4-.2.4-.4.4-.4-.2-.4-.4zm-3.8 0c0-.2.2-.4.4-.4s.4.2.4.4-.2.4-.4.4c-.3 0-.4-.2-.4-.4zm-3.9 0c0-.2.2-.4.4-.4s.4.2.4.4-.2.4-.4.4c-.3 0-.4-.2-.4-.4zm-3.9 0c0-.2.2-.4.4-.4s.4.2.4.4-.2.4-.4.4-.4-.2-.4-.4zm-3.9 0c0-.2.2-.4.4-.4s.4.2.4.4-.2.4-.4.4-.4-.2-.4-.4zm-3.9 0c0-.2.2-.4.4-.4s.4.2.4.4-.2.4-.4.4-.4-.2-.4-.4zm-3.9 0c0-.2.2-.4.4-.4s.4.2.4.4-.2.4-.4.4-.4-.2-.4-.4zm-3.8 0c0-.2.2-.4.4-.4s.4.2.4.4-.2.4-.4.4c-.3 0-.4-.2-.4-.4zm-3.9 0c0-.2.2-.4.4-.4s.4.2.4.4-.2.4-.4.4-.4-.2-.4-.4zm-3.9 0c0-.2.2-.4.4-.4s.4.2.4.4-.2.4-.4.4-.4-.2-.4-.4zm-3.9 0c0-.2.2-.4.4-.4s.4.2.4.4-.2.4-.4.4-.4-.2-.4-.4zm-3.9 0c0-.2.2-.4.4-.4s.4.2.4.4-.2.4-.4.4-.4-.2-.4-.4zm-3.8 0c0-.2.2-.4.4-.4s.4.2.4.4-.2.4-.4.4c-.3 0-.4-.2-.4-.4zm-3.9 0c0-.2.2-.4.4-.4s.4.2.4.4-.2.4-.4.4c-.3 0-.4-.2-.4-.4zm-3.9 0c0-.2.2-.4.4-.4s.4.2.4.4-.2.4-.4.4-.4-.2-.4-.4zm-3.9 0c0-.2.2-.4.4-.4s.4.2.4.4-.2.4-.4.4-.4-.2-.4-.4zm-3.9 0c0-.2.2-.4.4-.4s.4.2.4.4-.2.4-.4.4-.4-.2-.4-.4zm-3.9 0c0-.2.2-.4.4-.4s.4.2.4.4-.2.4-.4.4-.4-.2-.4-.4zm-3.8 0c0-.2.2-.4.4-.4s.4.2.4.4-.2.4-.4.4c-.3 0-.4-.2-.4-.4zm-3.9 0c0-.2.2-.4.4-.4s.4.2.4.4-.2.4-.4.4-.4-.2-.4-.4zm-3.9 0c0-.2.2-.4.4-.4s.4.2.4.4-.2.4-.4.4-.4-.2-.4-.4zm-3.9 0c0-.2.2-.4.4-.4s.4.2.4.4-.2.4-.4.4-.4-.2-.4-.4zm-3.9 0c0-.2.2-.4.4-.4s.4.2.4.4-.2.4-.4.4-.4-.2-.4-.4zm-3.8 0c0-.2.2-.4.4-.4s.4.2.4.4-.2.4-.4.4c-.3 0-.4-.2-.4-.4zm-3.9 0c0-.2.2-.4.4-.4s.4.2.4.4-.2.4-.4.4c-.3 0-.4-.2-.4-.4zm-3.9 0c0-.2.2-.4.4-.4s.4.2.4.4-.2.4-.4.4-.4-.2-.4-.4zm-3.9 0c0-.2.2-.4.4-.4s.4.2.4.4-.2.4-.4.4-.4-.2-.4-.4zm-3.9 0c0-.2.2-.4.4-.4s.4.2.4.4-.2.4-.4.4-.4-.2-.4-.4zm-3.8 0c0-.2.2-.4.4-.4s.4.2.4.4-.2.4-.4.4c-.3 0-.4-.2-.4-.4zm-3.9 0c0-.2.2-.4.4-.4s.4.2.4.4-.2.4-.4.4c-.3 0-.4-.2-.4-.4zm-3.9 0c0-.2.2-.4.4-.4s.4.2.4.4-.2.4-.4.4-.4-.2-.4-.4zm-3.9 0c0-.2.2-.4.4-.4.3 0 .4.2.4.4s-.2.4-.4.4-.4-.2-.4-.4zM466.9 146.4c0-.2.2-.4.4-.4.3 0 .4.2.4.4 0 .3-.2.4-.4.4-.2.1-.4-.1-.4-.4zm-3.9 0c0-.2.2-.4.4-.4.3 0 .4.2.4.4 0 .3-.2.4-.4.4-.2.1-.4-.1-.4-.4zm-3.9 0c0-.2.2-.4.4-.4.3 0 .4.2.4.4 0 .3-.2.4-.4.4-.2.1-.4-.1-.4-.4zm-3.8 0c0-.2.2-.4.4-.4.3 0 .4.2.4.4 0 .3-.2.4-.4.4-.3.1-.4-.1-.4-.4zm-3.9 0c0-.2.2-.4.4-.4.3 0 .4.2.4.4 0 .3-.2.4-.4.4-.3.1-.4-.1-.4-.4zm-3.9 0c0-.2.2-.4.4-.4s.4.2.4.4c0 .3-.2.4-.4.4-.2.1-.4-.1-.4-.4zm-3.9 0c0-.2.2-.4.4-.4.3 0 .4.2.4.4 0 .3-.2.4-.4.4-.2.1-.4-.1-.4-.4zm-3.9 0c0-.2.2-.4.4-.4s.4.2.4.4c0 .3-.2.4-.4.4-.2.1-.4-.1-.4-.4zm-3.9 0c0-.2.2-.4.4-.4.3 0 .4.2.4.4 0 .3-.2.4-.4.4-.2.1-.4-.1-.4-.4zm-3.8 0c0-.2.2-.4.4-.4s.4.2.4.4c0 .3-.2.4-.4.4-.3.1-.4-.1-.4-.4zm-3.9 0c0-.2.2-.4.4-.4.3 0 .4.2.4.4 0 .3-.2.4-.4.4-.2.1-.4-.1-.4-.4zm-3.9 0c0-.2.2-.4.4-.4s.4.2.4.4c0 .3-.2.4-.4.4-.2.1-.4-.1-.4-.4zm-3.9 0c0-.2.2-.4.4-.4.3 0 .4.2.4.4 0 .3-.2.4-.4.4-.2.1-.4-.1-.4-.4zm-3.9 0c0-.2.2-.4.4-.4s.4.2.4.4c0 .3-.2.4-.4.4-.2.1-.4-.1-.4-.4zm-3.8 0c0-.2.2-.4.4-.4.3 0 .4.2.4.4 0 .3-.2.4-.4.4-.3.1-.4-.1-.4-.4zm-3.9 0c0-.2.2-.4.4-.4s.4.2.4.4c0 .3-.2.4-.4.4-.3.1-.4-.1-.4-.4zm-3.9 0c0-.2.2-.4.4-.4s.4.2.4.4c0 .3-.2.4-.4.4-.2.1-.4-.1-.4-.4zm-3.9 0c0-.2.2-.4.4-.4.3 0 .4.2.4.4 0 .3-.2.4-.4.4-.2.1-.4-.1-.4-.4zm-3.9 0c0-.2.2-.4.4-.4s.4.2.4.4c0 .3-.2.4-.4.4-.2.1-.4-.1-.4-.4zm-3.9 0c0-.2.2-.4.4-.4.3 0 .4.2.4.4 0 .3-.2.4-.4.4-.2.1-.4-.1-.4-.4zm-3.8 0c0-.2.2-.4.4-.4s.4.2.4.4c0 .3-.2.4-.4.4-.3.1-.4-.1-.4-.4zm-3.9 0c0-.2.2-.4.4-.4.3 0 .4.2.4.4 0 .3-.2.4-.4.4-.2.1-.4-.1-.4-.4zm-3.9 0c0-.2.2-.4.4-.4s.4.2.4.4c0 .3-.2.4-.4.4-.2.1-.4-.1-.4-.4zm-3.9 0c0-.2.2-.4.4-.4.3 0 .4.2.4.4 0 .3-.2.4-.4.4-.2.1-.4-.1-.4-.4zm-3.9 0c0-.2.2-.4.4-.4s.4.2.4.4c0 .3-.2.4-.4.4-.2.1-.4-.1-.4-.4zm-3.8 0c0-.2.2-.4.4-.4.3 0 .4.2.4.4 0 .3-.2.4-.4.4-.3.1-.4-.1-.4-.4zm-3.9 0c0-.2.2-.4.4-.4s.4.2.4.4c0 .3-.2.4-.4.4-.3.1-.4-.1-.4-.4zm-3.9 0c0-.2.2-.4.4-.4.3 0 .4.2.4.4 0 .3-.2.4-.4.4-.2.1-.4-.1-.4-.4zm-3.9 0c0-.2.2-.4.4-.4.3 0 .4.2.4.4 0 .3-.2.4-.4.4-.2.1-.4-.1-.4-.4zm-3.9 0c0-.2.2-.4.4-.4s.4.2.4.4c0 .3-.2.4-.4.4-.2.1-.4-.1-.4-.4zm-3.9 0c0-.2.2-.4.4-.4.3 0 .4.2.4.4 0 .3-.2.4-.4.4-.2.1-.4-.1-.4-.4zm-3.8 0c0-.2.2-.4.4-.4s.4.2.4.4c0 .3-.2.4-.4.4-.3.1-.4-.1-.4-.4zm-3.9 0c0-.2.2-.4.4-.4.3 0 .4.2.4.4 0 .3-.2.4-.4.4-.2.1-.4-.1-.4-.4zm-3.9 0c0-.2.2-.4.4-.4s.4.2.4.4c0 .3-.2.4-.4.4-.2.1-.4-.1-.4-.4zm-3.9 0c0-.2.2-.4.4-.4.3 0 .4.2.4.4 0 .3-.2.4-.4.4-.2.1-.4-.1-.4-.4zm-3.9 0c0-.2.2-.4.4-.4s.4.2.4.4c0 .3-.2.4-.4.4-.2.1-.4-.1-.4-.4zm-3.8 0c0-.2.2-.4.4-.4.3 0 .4.2.4.4 0 .3-.2.4-.4.4-.3.1-.4-.1-.4-.4zm-3.9 0c0-.2.2-.4.4-.4s.4.2.4.4c0 .3-.2.4-.4.4-.3.1-.4-.1-.4-.4zm-3.9 0c0-.2.2-.4.4-.4.3 0 .4.2.4.4 0 .3-.2.4-.4.4-.2.1-.4-.1-.4-.4zm-3.9 0c0-.2.2-.4.4-.4s.4.2.4.4c0 .3-.2.4-.4.4-.2.1-.4-.1-.4-.4zm-3.9 0c0-.2.2-.4.4-.4s.4.2.4.4c0 .3-.2.4-.4.4-.2.1-.4-.1-.4-.4zm-3.9 0c0-.2.2-.4.4-.4s.4.2.4.4c0 .3-.2.4-.4.4-.2.1-.4-.1-.4-.4zm-3.8 0c0-.2.2-.4.4-.4s.4.2.4.4c0 .3-.2.4-.4.4-.3.1-.4-.1-.4-.4zm-3.9 0c0-.2.2-.4.4-.4s.4.2.4.4c0 .3-.2.4-.4.4-.2.1-.4-.1-.4-.4zm-3.9 0c0-.2.2-.4.4-.4s.4.2.4.4c0 .3-.2.4-.4.4-.2.1-.4-.1-.4-.4zm-3.9 0c0-.2.2-.4.4-.4s.4.2.4.4c0 .3-.2.4-.4.4-.2.1-.4-.1-.4-.4zm-3.9 0c0-.2.2-.4.4-.4s.4.2.4.4c0 .3-.2.4-.4.4-.2.1-.4-.1-.4-.4zm-3.8 0c0-.2.2-.4.4-.4s.4.2.4.4c0 .3-.2.4-.4.4-.3.1-.4-.1-.4-.4zm-3.9 0c0-.2.2-.4.4-.4s.4.2.4.4c0 .3-.2.4-.4.4-.3.1-.4-.1-.4-.4zm-3.9 0c0-.2.2-.4.4-.4.3 0 .4.2.4.4 0 .3-.2.4-.4.4-.2.1-.4-.1-.4-.4zm-3.9 0c0-.2.2-.4.4-.4s.4.2.4.4c0 .3-.2.4-.4.4-.2.1-.4-.1-.4-.4zm-3.9 0c0-.2.2-.4.4-.4.3 0 .4.2.4.4 0 .3-.2.4-.4.4-.2.1-.4-.1-.4-.4zm-3.9 0c0-.2.2-.4.4-.4s.4.2.4.4c0 .3-.2.4-.4.4-.2.1-.4-.1-.4-.4zm-3.8 0c0-.2.2-.4.4-.4s.4.2.4.4c0 .3-.2.4-.4.4-.3.1-.4-.1-.4-.4zm-3.9 0c0-.2.2-.4.4-.4s.4.2.4.4c0 .3-.2.4-.4.4-.2.1-.4-.1-.4-.4zm-3.9 0c0-.2.2-.4.4-.4s.4.2.4.4c0 .3-.2.4-.4.4-.2.1-.4-.1-.4-.4zm-3.9 0c0-.2.2-.4.4-.4s.4.2.4.4c0 .3-.2.4-.4.4-.2.1-.4-.1-.4-.4zm-3.9 0c0-.2.2-.4.4-.4s.4.2.4.4c0 .3-.2.4-.4.4-.2.1-.4-.1-.4-.4zm-3.8 0c0-.2.2-.4.4-.4s.4.2.4.4c0 .3-.2.4-.4.4-.3.1-.4-.1-.4-.4zm-3.9 0c0-.2.2-.4.4-.4s.4.2.4.4c0 .3-.2.4-.4.4-.3.1-.4-.1-.4-.4zm-3.9 0c0-.2.2-.4.4-.4.3 0 .4.2.4.4 0 .3-.2.4-.4.4-.2.1-.4-.1-.4-.4zm-3.9 0c0-.2.2-.4.4-.4s.4.2.4.4c0 .3-.2.4-.4.4-.2.1-.4-.1-.4-.4zm-3.9 0c0-.2.2-.4.4-.4.3 0 .4.2.4.4 0 .3-.2.4-.4.4-.2.1-.4-.1-.4-.4zm-3.9 0c0-.2.2-.4.4-.4s.4.2.4.4c0 .3-.2.4-.4.4-.2.1-.4-.1-.4-.4zm-3.8 0c0-.2.2-.4.4-.4s.4.2.4.4c0 .3-.2.4-.4.4-.3.1-.4-.1-.4-.4zm-3.9 0c0-.2.2-.4.4-.4s.4.2.4.4c0 .3-.2.4-.4.4-.2.1-.4-.1-.4-.4zm-3.9 0c0-.2.2-.4.4-.4s.4.2.4.4c0 .3-.2.4-.4.4-.2.1-.4-.1-.4-.4zm-3.9 0c0-.2.2-.4.4-.4s.4.2.4.4c0 .3-.2.4-.4.4-.2.1-.4-.1-.4-.4zm-3.9 0c0-.2.2-.4.4-.4s.4.2.4.4c0 .3-.2.4-.4.4-.2.1-.4-.1-.4-.4zm-3.8 0c0-.2.2-.4.4-.4s.4.2.4.4c0 .3-.2.4-.4.4-.3.1-.4-.1-.4-.4zm-3.9 0c0-.2.2-.4.4-.4s.4.2.4.4c0 .3-.2.4-.4.4-.3.1-.4-.1-.4-.4zm-3.9 0c0-.2.2-.4.4-.4s.4.2.4.4c0 .3-.2.4-.4.4-.2.1-.4-.1-.4-.4zm-3.9 0c0-.2.2-.4.4-.4s.4.2.4.4c0 .3-.2.4-.4.4-.2.1-.4-.1-.4-.4zm-3.9 0c0-.2.2-.4.4-.4.3 0 .4.2.4.4 0 .3-.2.4-.4.4-.2.1-.4-.1-.4-.4zm-3.9 0c0-.2.2-.4.4-.4s.4.2.4.4c0 .3-.2.4-.4.4-.2.1-.4-.1-.4-.4zm-3.8 0c0-.2.2-.4.4-.4s.4.2.4.4c0 .3-.2.4-.4.4-.3.1-.4-.1-.4-.4zm-3.9 0c0-.2.2-.4.4-.4s.4.2.4.4c0 .3-.2.4-.4.4-.2.1-.4-.1-.4-.4zm-3.9 0c0-.2.2-.4.4-.4s.4.2.4.4c0 .3-.2.4-.4.4-.2.1-.4-.1-.4-.4zm-3.9 0c0-.2.2-.4.4-.4s.4.2.4.4c0 .3-.2.4-.4.4-.2.1-.4-.1-.4-.4zm-3.9 0c0-.2.2-.4.4-.4s.4.2.4.4c0 .3-.2.4-.4.4-.2.1-.4-.1-.4-.4zm-3.8 0c0-.2.2-.4.4-.4s.4.2.4.4c0 .3-.2.4-.4.4-.3.1-.4-.1-.4-.4zm-3.9 0c0-.2.2-.4.4-.4s.4.2.4.4c0 .3-.2.4-.4.4-.3.1-.4-.1-.4-.4zm-3.9 0c0-.2.2-.4.4-.4s.4.2.4.4c0 .3-.2.4-.4.4-.2.1-.4-.1-.4-.4zm-3.9 0c0-.2.2-.4.4-.4s.4.2.4.4c0 .3-.2.4-.4.4-.2.1-.4-.1-.4-.4zm-3.9 0c0-.2.2-.4.4-.4s.4.2.4.4c0 .3-.2.4-.4.4-.2.1-.4-.1-.4-.4zm-3.9 0c0-.2.2-.4.4-.4s.4.2.4.4c0 .3-.2.4-.4.4-.2.1-.4-.1-.4-.4zm-3.8 0c0-.2.2-.4.4-.4s.4.2.4.4c0 .3-.2.4-.4.4-.3.1-.4-.1-.4-.4zm-3.9 0c0-.2.2-.4.4-.4s.4.2.4.4c0 .3-.2.4-.4.4-.2.1-.4-.1-.4-.4zm-3.9 0c0-.2.2-.4.4-.4s.4.2.4.4c0 .3-.2.4-.4.4-.2.1-.4-.1-.4-.4zm-3.9 0c0-.2.2-.4.4-.4s.4.2.4.4c0 .3-.2.4-.4.4-.2.1-.4-.1-.4-.4zm-3.9 0c0-.2.2-.4.4-.4s.4.2.4.4c0 .3-.2.4-.4.4-.2.1-.4-.1-.4-.4zm-3.8 0c0-.2.2-.4.4-.4s.4.2.4.4c0 .3-.2.4-.4.4-.3.1-.4-.1-.4-.4zm-3.9 0c0-.2.2-.4.4-.4s.4.2.4.4c0 .3-.2.4-.4.4-.3.1-.4-.1-.4-.4zm-3.9 0c0-.2.2-.4.4-.4s.4.2.4.4c0 .3-.2.4-.4.4-.2.1-.4-.1-.4-.4zm-3.9 0c0-.2.2-.4.4-.4s.4.2.4.4c0 .3-.2.4-.4.4-.2.1-.4-.1-.4-.4zm-3.9 0c0-.2.2-.4.4-.4s.4.2.4.4c0 .3-.2.4-.4.4-.2.1-.4-.1-.4-.4zm-3.9 0c0-.2.2-.4.4-.4s.4.2.4.4c0 .3-.2.4-.4.4-.2.1-.4-.1-.4-.4zm-3.8 0c0-.2.2-.4.4-.4s.4.2.4.4c0 .3-.2.4-.4.4-.3.1-.4-.1-.4-.4zm-3.9 0c0-.2.2-.4.4-.4s.4.2.4.4c0 .3-.2.4-.4.4-.2.1-.4-.1-.4-.4zm-3.9 0c0-.2.2-.4.4-.4s.4.2.4.4c0 .3-.2.4-.4.4-.2.1-.4-.1-.4-.4zm-3.9 0c0-.2.2-.4.4-.4s.4.2.4.4c0 .3-.2.4-.4.4-.2.1-.4-.1-.4-.4zm-3.9 0c0-.2.2-.4.4-.4s.4.2.4.4c0 .3-.2.4-.4.4-.2.1-.4-.1-.4-.4zm-3.8 0c0-.2.2-.4.4-.4s.4.2.4.4c0 .3-.2.4-.4.4-.3.1-.4-.1-.4-.4zm-3.9 0c0-.2.2-.4.4-.4s.4.2.4.4c0 .3-.2.4-.4.4-.3.1-.4-.1-.4-.4zm-3.9 0c0-.2.2-.4.4-.4s.4.2.4.4c0 .3-.2.4-.4.4-.2.1-.4-.1-.4-.4zm-3.9 0c0-.2.2-.4.4-.4s.4.2.4.4c0 .3-.2.4-.4.4-.2.1-.4-.1-.4-.4zm-3.9 0c0-.2.2-.4.4-.4s.4.2.4.4c0 .3-.2.4-.4.4-.2.1-.4-.1-.4-.4zm-3.8 0c0-.2.2-.4.4-.4s.4.2.4.4c0 .3-.2.4-.4.4-.3.1-.4-.1-.4-.4zm-3.9 0c0-.2.2-.4.4-.4s.4.2.4.4c0 .3-.2.4-.4.4-.3.1-.4-.1-.4-.4zm-3.9 0c0-.2.2-.4.4-.4s.4.2.4.4c0 .3-.2.4-.4.4-.2.1-.4-.1-.4-.4zm-3.9 0c0-.2.2-.4.4-.4.3 0 .4.2.4.4 0 .3-.2.4-.4.4-.2.1-.4-.1-.4-.4zM466.9 199.5c0-.3.2-.4.4-.4.3 0 .4.2.4.4s-.2.4-.4.4c-.2.1-.4-.1-.4-.4zm-3.9 0c0-.3.2-.4.4-.4.3 0 .4.2.4.4s-.2.4-.4.4c-.2.1-.4-.1-.4-.4zm-3.9 0c0-.3.2-.4.4-.4.3 0 .4.2.4.4s-.2.4-.4.4c-.2.1-.4-.1-.4-.4zm-3.8 0c0-.3.2-.4.4-.4.3 0 .4.2.4.4s-.2.4-.4.4c-.3.1-.4-.1-.4-.4zm-3.9 0c0-.3.2-.4.4-.4.3 0 .4.2.4.4s-.2.4-.4.4c-.3.1-.4-.1-.4-.4zm-3.9 0c0-.3.2-.4.4-.4s.4.2.4.4-.2.4-.4.4c-.2.1-.4-.1-.4-.4zm-3.9 0c0-.3.2-.4.4-.4.3 0 .4.2.4.4s-.2.4-.4.4c-.2.1-.4-.1-.4-.4zm-3.9 0c0-.3.2-.4.4-.4.3 0 .4.2.4.4s-.2.4-.4.4c-.2.1-.4-.1-.4-.4zm-3.9 0c0-.3.2-.4.4-.4.3 0 .4.2.4.4s-.2.4-.4.4c-.2.1-.4-.1-.4-.4zm-3.8 0c0-.3.2-.4.4-.4.3 0 .4.2.4.4s-.2.4-.4.4c-.3.1-.4-.1-.4-.4zm-3.9 0c0-.3.2-.4.4-.4.3 0 .4.2.4.4s-.2.4-.4.4c-.2.1-.4-.1-.4-.4zm-3.9 0c0-.3.2-.4.4-.4.3 0 .4.2.4.4s-.2.4-.4.4c-.2.1-.4-.1-.4-.4zm-3.9 0c0-.3.2-.4.4-.4.3 0 .4.2.4.4s-.2.4-.4.4c-.2.1-.4-.1-.4-.4zm-3.9 0c0-.3.2-.4.4-.4.3 0 .4.2.4.4s-.2.4-.4.4c-.2.1-.4-.1-.4-.4zm-3.8 0c0-.3.2-.4.4-.4.3 0 .4.2.4.4s-.2.4-.4.4c-.3.1-.4-.1-.4-.4zm-3.9 0c0-.3.2-.4.4-.4.3 0 .4.2.4.4s-.2.4-.4.4c-.3.1-.4-.1-.4-.4zm-3.9 0c0-.3.2-.4.4-.4.3 0 .4.2.4.4s-.2.4-.4.4c-.2.1-.4-.1-.4-.4zm-3.9 0c0-.3.2-.4.4-.4.3 0 .4.2.4.4s-.2.4-.4.4c-.2.1-.4-.1-.4-.4zm-3.9 0c0-.3.2-.4.4-.4.3 0 .4.2.4.4s-.2.4-.4.4c-.2.1-.4-.1-.4-.4zm-3.9 0c0-.3.2-.4.4-.4.3 0 .4.2.4.4s-.2.4-.4.4c-.2.1-.4-.1-.4-.4zm-3.8 0c0-.3.2-.4.4-.4.3 0 .4.2.4.4s-.2.4-.4.4c-.3.1-.4-.1-.4-.4zm-3.9 0c0-.3.2-.4.4-.4.3 0 .4.2.4.4s-.2.4-.4.4c-.2.1-.4-.1-.4-.4zm-3.9 0c0-.3.2-.4.4-.4.3 0 .4.2.4.4s-.2.4-.4.4c-.2.1-.4-.1-.4-.4zm-3.9 0c0-.3.2-.4.4-.4.3 0 .4.2.4.4s-.2.4-.4.4c-.2.1-.4-.1-.4-.4zm-3.9 0c0-.3.2-.4.4-.4.3 0 .4.2.4.4s-.2.4-.4.4c-.2.1-.4-.1-.4-.4zm-3.8 0c0-.3.2-.4.4-.4s.4.2.4.4-.2.4-.4.4c-.3.1-.4-.1-.4-.4zm-3.9 0c0-.3.2-.4.4-.4s.4.2.4.4-.2.4-.4.4c-.3.1-.4-.1-.4-.4zm-3.9 0c0-.3.2-.4.4-.4s.4.2.4.4-.2.4-.4.4c-.2.1-.4-.1-.4-.4zm-3.9 0c0-.3.2-.4.4-.4s.4.2.4.4-.2.4-.4.4c-.2.1-.4-.1-.4-.4zm-3.9 0c0-.3.2-.4.4-.4s.4.2.4.4-.2.4-.4.4c-.2.1-.4-.1-.4-.4zm-3.9 0c0-.3.2-.4.4-.4s.4.2.4.4-.2.4-.4.4c-.2.1-.4-.1-.4-.4zm-3.8 0c0-.3.2-.4.4-.4s.4.2.4.4-.2.4-.4.4c-.3.1-.4-.1-.4-.4zm-3.9 0c0-.3.2-.4.4-.4s.4.2.4.4-.2.4-.4.4c-.2.1-.4-.1-.4-.4zm-3.9 0c0-.3.2-.4.4-.4s.4.2.4.4-.2.4-.4.4c-.2.1-.4-.1-.4-.4zm-3.9 0c0-.3.2-.4.4-.4s.4.2.4.4-.2.4-.4.4c-.2.1-.4-.1-.4-.4zm-3.9 0c0-.3.2-.4.4-.4s.4.2.4.4-.2.4-.4.4c-.2.1-.4-.1-.4-.4zm-3.8 0c0-.3.2-.4.4-.4s.4.2.4.4-.2.4-.4.4c-.3.1-.4-.1-.4-.4zm-3.9 0c0-.3.2-.4.4-.4s.4.2.4.4-.2.4-.4.4c-.3.1-.4-.1-.4-.4zm-3.9 0c0-.3.2-.4.4-.4s.4.2.4.4-.2.4-.4.4c-.2.1-.4-.1-.4-.4zm-3.9 0c0-.3.2-.4.4-.4s.4.2.4.4-.2.4-.4.4c-.2.1-.4-.1-.4-.4zm-3.9 0c0-.3.2-.4.4-.4s.4.2.4.4-.2.4-.4.4c-.2.1-.4-.1-.4-.4zm-3.9 0c0-.3.2-.4.4-.4s.4.2.4.4-.2.4-.4.4c-.2.1-.4-.1-.4-.4zm-3.8 0c0-.3.2-.4.4-.4s.4.2.4.4-.2.4-.4.4c-.3.1-.4-.1-.4-.4zm-3.9 0c0-.3.2-.4.4-.4s.4.2.4.4-.2.4-.4.4c-.2.1-.4-.1-.4-.4zm-3.9 0c0-.3.2-.4.4-.4s.4.2.4.4-.2.4-.4.4c-.2.1-.4-.1-.4-.4zm-3.9 0c0-.3.2-.4.4-.4s.4.2.4.4-.2.4-.4.4c-.2.1-.4-.1-.4-.4zm-3.9 0c0-.3.2-.4.4-.4s.4.2.4.4-.2.4-.4.4c-.2.1-.4-.1-.4-.4zm-3.8 0c0-.3.2-.4.4-.4s.4.2.4.4-.2.4-.4.4c-.3.1-.4-.1-.4-.4zm-3.9 0c0-.3.2-.4.4-.4s.4.2.4.4-.2.4-.4.4c-.3.1-.4-.1-.4-.4zm-3.9 0c0-.3.2-.4.4-.4s.4.2.4.4-.2.4-.4.4c-.2.1-.4-.1-.4-.4zm-3.9 0c0-.3.2-.4.4-.4s.4.2.4.4-.2.4-.4.4c-.2.1-.4-.1-.4-.4zm-3.9 0c0-.3.2-.4.4-.4s.4.2.4.4-.2.4-.4.4c-.2.1-.4-.1-.4-.4zm-3.9 0c0-.3.2-.4.4-.4s.4.2.4.4-.2.4-.4.4c-.2.1-.4-.1-.4-.4zm-3.8 0c0-.3.2-.4.4-.4s.4.2.4.4-.2.4-.4.4c-.3.1-.4-.1-.4-.4zm-3.9 0c0-.3.2-.4.4-.4.3 0 .4.2.4.4s-.2.4-.4.4c-.2.1-.4-.1-.4-.4zm-3.9 0c0-.3.2-.4.4-.4.3 0 .4.2.4.4s-.2.4-.4.4c-.2.1-.4-.1-.4-.4zm-3.9 0c0-.3.2-.4.4-.4.3 0 .4.2.4.4s-.2.4-.4.4c-.2.1-.4-.1-.4-.4zm-3.9 0c0-.3.2-.4.4-.4.3 0 .4.2.4.4s-.2.4-.4.4c-.2.1-.4-.1-.4-.4zm-3.8 0c0-.3.2-.4.4-.4.3 0 .4.2.4.4s-.2.4-.4.4c-.3.1-.4-.1-.4-.4zm-3.9 0c0-.3.2-.4.4-.4.3 0 .4.2.4.4s-.2.4-.4.4c-.3.1-.4-.1-.4-.4zm-3.9 0c0-.3.2-.4.4-.4.3 0 .4.2.4.4s-.2.4-.4.4c-.2.1-.4-.1-.4-.4zm-3.9 0c0-.3.2-.4.4-.4.3 0 .4.2.4.4s-.2.4-.4.4c-.2.1-.4-.1-.4-.4zm-3.9 0c0-.3.2-.4.4-.4s.4.2.4.4-.2.4-.4.4c-.2.1-.4-.1-.4-.4zm-3.9 0c0-.3.2-.4.4-.4s.4.2.4.4-.2.4-.4.4c-.2.1-.4-.1-.4-.4zm-3.8 0c0-.3.2-.4.4-.4s.4.2.4.4-.2.4-.4.4c-.3.1-.4-.1-.4-.4zm-3.9 0c0-.3.2-.4.4-.4s.4.2.4.4-.2.4-.4.4c-.2.1-.4-.1-.4-.4zm-3.9 0c0-.3.2-.4.4-.4s.4.2.4.4-.2.4-.4.4c-.2.1-.4-.1-.4-.4zm-3.9 0c0-.3.2-.4.4-.4s.4.2.4.4-.2.4-.4.4c-.2.1-.4-.1-.4-.4zm-3.9 0c0-.3.2-.4.4-.4s.4.2.4.4-.2.4-.4.4c-.2.1-.4-.1-.4-.4zm-3.8 0c0-.3.2-.4.4-.4s.4.2.4.4-.2.4-.4.4c-.3.1-.4-.1-.4-.4zm-3.9 0c0-.3.2-.4.4-.4s.4.2.4.4-.2.4-.4.4c-.3.1-.4-.1-.4-.4zm-3.9 0c0-.3.2-.4.4-.4s.4.2.4.4-.2.4-.4.4c-.2.1-.4-.1-.4-.4zm-3.9 0c0-.3.2-.4.4-.4s.4.2.4.4-.2.4-.4.4c-.2.1-.4-.1-.4-.4zm-3.9 0c0-.3.2-.4.4-.4s.4.2.4.4-.2.4-.4.4c-.2.1-.4-.1-.4-.4zm-3.9 0c0-.3.2-.4.4-.4s.4.2.4.4-.2.4-.4.4c-.2.1-.4-.1-.4-.4zm-3.8 0c0-.3.2-.4.4-.4s.4.2.4.4-.2.4-.4.4c-.3.1-.4-.1-.4-.4zm-3.9 0c0-.3.2-.4.4-.4s.4.2.4.4-.2.4-.4.4c-.2.1-.4-.1-.4-.4zm-3.9 0c0-.3.2-.4.4-.4s.4.2.4.4-.2.4-.4.4c-.2.1-.4-.1-.4-.4zm-3.9 0c0-.3.2-.4.4-.4s.4.2.4.4-.2.4-.4.4c-.2.1-.4-.1-.4-.4zm-3.9 0c0-.3.2-.4.4-.4s.4.2.4.4-.2.4-.4.4c-.2.1-.4-.1-.4-.4zm-3.8 0c0-.3.2-.4.4-.4s.4.2.4.4-.2.4-.4.4c-.3.1-.4-.1-.4-.4zm-3.9 0c0-.3.2-.4.4-.4s.4.2.4.4-.2.4-.4.4c-.3.1-.4-.1-.4-.4zm-3.9 0c0-.3.2-.4.4-.4s.4.2.4.4-.2.4-.4.4c-.2.1-.4-.1-.4-.4zm-3.9 0c0-.3.2-.4.4-.4s.4.2.4.4-.2.4-.4.4c-.2.1-.4-.1-.4-.4zm-3.9 0c0-.3.2-.4.4-.4s.4.2.4.4-.2.4-.4.4c-.2.1-.4-.1-.4-.4zm-3.9 0c0-.3.2-.4.4-.4s.4.2.4.4-.2.4-.4.4c-.2.1-.4-.1-.4-.4zm-3.8 0c0-.3.2-.4.4-.4s.4.2.4.4-.2.4-.4.4c-.3.1-.4-.1-.4-.4zm-3.9 0c0-.3.2-.4.4-.4s.4.2.4.4-.2.4-.4.4c-.2.1-.4-.1-.4-.4zm-3.9 0c0-.3.2-.4.4-.4s.4.2.4.4-.2.4-.4.4c-.2.1-.4-.1-.4-.4zm-3.9 0c0-.3.2-.4.4-.4s.4.2.4.4-.2.4-.4.4c-.2.1-.4-.1-.4-.4zm-3.9 0c0-.3.2-.4.4-.4s.4.2.4.4-.2.4-.4.4c-.2.1-.4-.1-.4-.4zm-3.8 0c0-.3.2-.4.4-.4s.4.2.4.4-.2.4-.4.4c-.3.1-.4-.1-.4-.4zm-3.9 0c0-.3.2-.4.4-.4s.4.2.4.4-.2.4-.4.4c-.3.1-.4-.1-.4-.4zm-3.9 0c0-.3.2-.4.4-.4s.4.2.4.4-.2.4-.4.4c-.2.1-.4-.1-.4-.4zm-3.9 0c0-.3.2-.4.4-.4s.4.2.4.4-.2.4-.4.4c-.2.1-.4-.1-.4-.4zm-3.9 0c0-.3.2-.4.4-.4s.4.2.4.4-.2.4-.4.4c-.2.1-.4-.1-.4-.4zm-3.9 0c0-.3.2-.4.4-.4s.4.2.4.4-.2.4-.4.4c-.2.1-.4-.1-.4-.4zm-3.8 0c0-.3.2-.4.4-.4s.4.2.4.4-.2.4-.4.4c-.3.1-.4-.1-.4-.4zm-3.9 0c0-.3.2-.4.4-.4s.4.2.4.4-.2.4-.4.4c-.2.1-.4-.1-.4-.4zm-3.9 0c0-.3.2-.4.4-.4s.4.2.4.4-.2.4-.4.4c-.2.1-.4-.1-.4-.4zm-3.9 0c0-.3.2-.4.4-.4s.4.2.4.4-.2.4-.4.4c-.2.1-.4-.1-.4-.4zm-3.9 0c0-.3.2-.4.4-.4s.4.2.4.4-.2.4-.4.4c-.2.1-.4-.1-.4-.4zm-3.8 0c0-.3.2-.4.4-.4s.4.2.4.4-.2.4-.4.4c-.3.1-.4-.1-.4-.4zm-3.9 0c0-.3.2-.4.4-.4s.4.2.4.4-.2.4-.4.4c-.3.1-.4-.1-.4-.4zm-3.9 0c0-.3.2-.4.4-.4s.4.2.4.4-.2.4-.4.4c-.2.1-.4-.1-.4-.4zm-3.9 0c0-.3.2-.4.4-.4s.4.2.4.4-.2.4-.4.4c-.2.1-.4-.1-.4-.4zm-3.9 0c0-.3.2-.4.4-.4s.4.2.4.4-.2.4-.4.4c-.2.1-.4-.1-.4-.4zm-3.8 0c0-.3.2-.4.4-.4s.4.2.4.4-.2.4-.4.4c-.3.1-.4-.1-.4-.4zm-3.9 0c0-.3.2-.4.4-.4s.4.2.4.4-.2.4-.4.4c-.3.1-.4-.1-.4-.4zm-3.9 0c0-.3.2-.4.4-.4s.4.2.4.4-.2.4-.4.4c-.2.1-.4-.1-.4-.4zm-3.9 0c0-.3.2-.4.4-.4.3 0 .4.2.4.4s-.2.4-.4.4c-.2.1-.4-.1-.4-.4z"/><path class="st1" d="M52.5 228.3c0-.7-.5-1.2-1.3-1.2-.7 0-1.2.3-1.2.7v.3h-1v-.6c0-1 1.3-1.4 2.2-1.4 1.4 0 2.4.9 2.4 2.2 0 2.6-3.8 2.6-3.8 4.4 0 .1.1.2.3.2h2.7c.1 0 .2-.1.2-.2v-.5h1v.9c0 .5-.2.7-.7.7h-3.8c-.6 0-.7-.3-.7-.9-.1-2.7 3.7-2.5 3.7-4.6zM55.9 230.1c0-2.2.6-3.9 2.7-3.9 2 0 2.7 1.7 2.7 3.9s-.6 3.9-2.7 3.9-2.7-1.8-2.7-3.9zm4.3 0c0-1.6-.3-2.9-1.6-2.9s-1.6 1.3-1.6 2.9c0 1.6.3 2.9 1.6 2.9 1.2 0 1.6-1.3 1.6-2.9zM63.5 232.9h1.6v-5.4s-.1.2-.3.4l-.7.7-.6-.6 1.8-1.8h.9v6.6h1.6v.9h-4.4v-.8zM73.4 228.3c0-.7-.5-1.2-1.3-1.2-.7 0-1.2.3-1.2.7v.3h-1v-.6c0-1 1.3-1.4 2.2-1.4 1.4 0 2.4.9 2.4 2.2 0 2.6-3.8 2.6-3.8 4.4 0 .1.1.2.3.2h2.7c.1 0 .2-.1.2-.2v-.5h1v.9c0 .5-.2.7-.7.7h-3.8c-.6 0-.7-.3-.7-.9-.1-2.7 3.7-2.5 3.7-4.6zM129.2 228.3c0-.7-.5-1.2-1.3-1.2-.7 0-1.2.3-1.2.7v.3h-1v-.6c0-1 1.3-1.4 2.2-1.4 1.4 0 2.4.9 2.4 2.2 0 2.6-3.8 2.6-3.8 4.4 0 .1.1.2.3.2h2.7c.1 0 .2-.1.2-.2v-.5h1v.9c0 .5-.2.7-.7.7h-3.8c-.6 0-.7-.3-.7-.9-.2-2.7 3.7-2.5 3.7-4.6zM132.6 230.1c0-2.2.6-3.9 2.7-3.9 2 0 2.7 1.7 2.7 3.9s-.6 3.9-2.7 3.9c-2 0-2.7-1.8-2.7-3.9zm4.3 0c0-1.6-.3-2.9-1.6-2.9s-1.6 1.3-1.6 2.9c0 1.6.3 2.9 1.6 2.9s1.6-1.3 1.6-2.9zM140.1 232.9h1.6v-5.4s-.1.2-.3.4l-.7.7-.6-.6 1.8-1.8h.9v6.6h1.6v.9h-4.3v-.8zM146.7 232.1s.7.9 1.9.9c.8 0 1.5-.6 1.5-1.4 0-.9-.7-1.3-1.6-1.3h-.5l-.2-.6 1.6-2c.2-.3.4-.5.4-.5h-2.1c-.1 0-.2.1-.2.2v.5h-1v-.9c0-.5.2-.7.6-.7h4v.7l-2 2.4c1 .1 2.1.8 2.1 2.2 0 1.3-1 2.4-2.6 2.4l-2.5-1 .6-.9zM25.6 198c0-2.3.7-4.1 2.8-4.1s2.8 1.9 2.8 4.1c0 2.3-.7 4.2-2.8 4.2s-2.8-1.9-2.8-4.2zm4.6 0c0-1.7-.4-3.1-1.7-3.1-1.3 0-1.7 1.4-1.7 3.1 0 1.8.4 3.1 1.7 3.1 1.3 0 1.7-1.4 1.7-3.1zM27.2 147s.6.9 1.9.9c1 0 1.7-.7 1.7-1.6 0-1-.9-1.6-1.9-1.6-.9 0-1.5.4-1.5.4l-.5-.2.3-3.3c0-.5.2-.7.7-.7h2.8c.5 0 .7.2.7.7v1h-1v-.6c0-.2-.1-.3-.3-.3h-1.7c-.2 0-.2.1-.3.3l-.2 1.5v.4s.4-.3 1-.3c1.7 0 2.9 1.2 2.9 2.6 0 1.4-1.1 2.7-2.9 2.7-1.7 0-2.5-1.1-2.5-1.1l.8-.8zM19.8 94.7h1.8v-5.7s-.1.2-.4.5l-.7.7-.7-.7 1.9-1.9h1v7.1h1.8v1h-4.7v-1zM26.4 91.6c0-2.3.7-4.1 2.8-4.1s2.8 1.9 2.8 4.1c0 2.3-.7 4.2-2.8 4.2s-2.8-1.8-2.8-4.2zm4.5 0c0-1.7-.4-3.1-1.7-3.1-1.3 0-1.7 1.4-1.7 3.1 0 1.8.4 3.1 1.7 3.1 1.4.1 1.7-1.3 1.7-3.1zM19.9 42.3h1.8v-5.7s-.1.2-.4.5l-.7.7-.7-.7 1.9-1.9h1v7.1h1.8v1h-4.7v-1zM27.2 41.5s.6.9 1.9.9c1 0 1.7-.7 1.7-1.6 0-1-.9-1.6-1.9-1.6-.9 0-1.5.4-1.5.4l-.5-.2.3-3.3c0-.5.2-.7.7-.7h2.8c.5 0 .7.2.7.7v1h-1v-.5c0-.2-.1-.3-.3-.3h-1.7c-.2 0-.2.1-.3.3v1.7999999999999998s.4-.3 1-.3c1.7 0 2.9 1.2 2.9 2.6 0 1.4-1.1 2.7-2.9 2.7-1.7 0-2.5-1.1-2.5-1.1l.6-.8zM159.9 306.9h-.7v-.9h3.3c1.3 0 2.3.9 2.3 2.2 0 1.3-.8 1.9-1.4 2 0 0 .2.1.3.3l.9 1.8c.1.2.3.3.6.3h.1v.9h-.5c-.6 0-.8-.1-1.1-.6l-1-2.1c-.2-.3-.3-.4-.8-.4h-1v3.1h-1.1l.1-6.6zm2.5 2.7c.8 0 1.3-.5 1.3-1.4s-.5-1.3-1.3-1.3h-1.4v2.8l1.4-.1zM169.6 308c1.6 0 2.4 1.2 2.4 2.6v.4h-4c.1 1.2.9 1.8 1.9 1.8.9 0 1.6-.6 1.6-.6l.5.7s-.8.8-2.1.8c-1.7 0-2.9-1.3-2.9-2.9-.2-1.7 1-2.8 2.6-2.8zm1.2 2.2c0-.9-.6-1.4-1.3-1.4-.8 0-1.5.5-1.6 1.4h2.9zM176.8 308c.6 0 2 .3 2 1.2v.6h-.9v-.3c0-.4-.6-.6-1-.6-1.1 0-1.9.8-1.9 2 0 1.3.9 1.9 1.9 1.9l1.7-.8.5.7s-.8.9-2.2.9c-1.7 0-2.9-1.2-2.9-2.9-.1-1.4 1.1-2.7 2.8-2.7zM183.7 308c1.6 0 3 1.2 3 2.8 0 1.7-1.3 2.9-3 2.9-1.6 0-2.9-1.2-2.9-2.9 0-1.6 1.3-2.8 2.9-2.8zm0 4.8c1 0 1.9-.8 1.9-2 0-1.1-.9-1.9-1.9-1.9s-1.9.8-1.9 1.9c0 1.2.9 2 1.9 2zM189.1 309.3c0-.2-.1-.3-.3-.3h-.4v-.9h1c.5 0 .7.2.7.6v.7c.3-.8.9-1.4 1.7-1.4h.3v1h-.3c-.7 0-1.3.5-1.6 1.3-.1.3-.1.6-.1 1v2.2h-1v-4.2zM196.1 308c1.3 0 1.7.9 1.7.9v-1.7999999999999998c0-.2-.1-.3-.3-.3h-.4v-.9h1c.5 0 .7.2.7.7v5.8c0 .2.1.3.3.3h.4v.9h-1c-.5 0-.7-.2-.7-.6v-.3s-.5 1-1.8 1c-1.5 0-2.4-1.2-2.4-2.9s1.1-2.8 2.5-2.8zm1.7 2.9c0-1-.5-1.9-1.6-1.9-.9 0-1.6.7-1.6 2 0 1.2.6 2 1.6 2 .9-.2 1.6-.8 1.6-2.1zM204.6 310.2h.3c0-.9-.3-1.3-1.2-1.3-.3 0-.9.1-.9.4v.3h-1v-.6c0-.9 1.4-1 1.9-1 1.8 0 2.2.9 2.2 2.2v2.3c0 .2.1.3.3.3h.4v.9h-1c-.5 0-.7-.3-.7-.6v-.3s-.4 1.1-1.7 1.1c-.9 0-1.9-.6-1.9-1.7 0-1.9 2.4-2 3.3-2zm-1.2 2.7c.9 0 1.5-.9 1.5-1.7v-.2h-.3c-.8 0-2.2 0-2.2 1-.1.4.3.9 1 .9zM208.7 307.1c0-.2-.1-.3-.3-.3h-.4v-.9h1c.5 0 .7.2.7.7v2.3s.5-.9 1.8-.9c1.5 0 2.4 1.2 2.4 2.9s-1 2.9-2.5 2.9c-1.2 0-1.7-.9-1.7-.9v.8h-1v-6.6zm2.6 5.7c.9 0 1.6-.7 1.6-2 0-1.2-.6-2-1.6-2-.8 0-1.6.6-1.6 2 .1 1 .6 2 1.6 2zM216.3 307.1c0-.2-.1-.3-.3-.3h-.4v-.9h1c.5 0 .7.2.7.7v5.8c0 .2.1.3.3.3h.4v.9h-1c-.5 0-.7-.2-.7-.7v-5.8zM222.5 308c1.6 0 2.4 1.2 2.4 2.6v.4h-4c.1 1.2.9 1.8 1.9 1.8.9 0 1.6-.6 1.6-.6l.5.7s-.8.8-2.1.8c-1.7 0-2.9-1.3-2.9-2.9-.2-1.7 1-2.8 2.6-2.8zm1.3 2.2c0-.9-.6-1.4-1.3-1.4-.8 0-1.5.5-1.6 1.4h2.9zM159.2 325.7h.7v-5.8h-.7v-.9h2.5v.9h-.7v5.8h.7v.9h-2.5v-.9zM164.2 322.3c0-.2-.1-.3-.3-.3h-.4v-.9h1c.5 0 .7.2.7.6v.5c.2-.5.9-1.3 2.1-1.3 1.3 0 1.9.7 1.9 2.1v2.4c0 .2.1.3.3.3h.4v.9h-1c-.5 0-.7-.2-.7-.7v-2.6c0-.8-.2-1.4-1-1.4-.9 0-1.5.6-1.7 1.3-.1.2-.1.5-.1.7v2.6h-1l-.2-4.2zM171.2 327.9c.4 0 1.2-.1 1.2-1.2v-4.5c0-.2-.1-.3-.3-.3h-.4v-.9h1c.5 0 .7.2.7.7v5c0 1.8-1.4 2.1-2.1 2.1h-.3v-.9h.2zm1.1-8.9h.9v1.1h-.9v-1.1zM176.2 322.3c0-.2-.1-.3-.3-.3h-.4v-.9h1c.5 0 .7.2.7.7v2.6c0 .8.2 1.4 1 1.4 1.1 0 1.8-1 1.8-2.1v-2.6h1v4.4c0 .2.1.3.3.3h.4v.9h-1c-.5 0-.7-.2-.7-.6v-.5c-.2.6-.9 1.3-2 1.3-1.3 0-1.9-.6-1.9-2.1l.1-2.5zM184 322.3c0-.2-.1-.3-.3-.3h-.4v-.9h1c.5 0 .7.2.7.6v.7c.3-.8.9-1.4 1.7-1.4h.3v1h-.3c-.7 0-1.3.5-1.6 1.3-.1.3-.1.6-.1 1v2.2h-1v-4.2zM189.4 322.3c0-.2-.1-.3-.3-.3h-.4v-.9h1c.5 0 .7.2.7.7v3.7c0 .2.1.3.3.3h.4v.9h-1c-.5 0-.7-.2-.7-.7v-3.7zm0-3.3h.9v1.1h-.9v-1.1zM195.6 321c1.6 0 2.4 1.2 2.4 2.6v.4h-4c.1 1.2.9 1.8 1.9 1.8.9 0 1.6-.6 1.6-.6l.5.7s-.8.8-2.1.8c-1.7 0-2.9-1.3-2.9-2.9-.1-1.7 1.1-2.8 2.6-2.8zm1.3 2.2c0-.9-.6-1.4-1.3-1.4-.8 0-1.5.5-1.6 1.4h2.9zM200.4 325.1s.6.8 1.6.8c.5 0 .9-.2.9-.7 0-1-3-.9-3-2.6 0-1 .9-1.6 2-1.6.6 0 1.8.2 1.8 1.1v.5h-.9v-.3c0-.3-.5-.5-.8-.5-.6 0-1 .2-1 .6 0 1 3 .8 3 2.6 0 1-.9 1.6-2 1.6-1.5 0-2.2-.9-2.2-.9l.6-.6zM302.1 311.1h-1.6c-.2 0-.3.1-.3.3v.5h-1v-1.1c0-.5.2-.7.7-.7h5.6c.5 0 .7.2.7.7v1.1h-1v-.5c0-.2-.1-.3-.3-.3h-1.6v7.2h-1.2v-7.2zM308.7 311.1h-.7v-1h3.5c1.4 0 2.4.9 2.4 2.4 0 1.4-.9 2-1.5 2.2 0 0 .2.1.3.4l1 1.9c.1.3.3.3.6.3h.1v1h-.4c-.6 0-.9-.1-1.1-.6l-1.1-2.2c-.2-.4-.3-.4-.8-.4h-1.1v3.2h-1.2v-7.2zm2.7 2.9c.9 0 1.4-.6 1.4-1.5s-.5-1.4-1.4-1.4h-1.5v2.9h1.5zM316.9 313.6c0-.2-.1-.3-.3-.3h-.5v-.9h1.1c.5 0 .7.2.7.7v3.9c0 .2.1.3.3.3h.5v.9h-1.1c-.5 0-.7-.2-.7-.7v-3.9zm0-3.5h1v1.2h-1v-1.2zM321.3 311.1h-.7v-1h4.5c.5 0 .7.2.7.7v1h-1v-.5c0-.2-.1-.3-.3-.3h-2v2.7h2.8v1h-2.8v3.5h-1.2v-7.1zM328.4 311.1h-.7v-1h3.5c1.4 0 2.4.9 2.4 2.4 0 1.4-.9 2-1.5 2.2 0 0 .2.1.3.4l1 1.9c.1.3.3.3.6.3h.1v1h-.6c-.6 0-.9-.1-1.1-.6l-1.1-2.2c-.2-.4-.3-.4-.8-.4h-1.1v3.2h-1.2l.2-7.2zm2.7 2.9c.9 0 1.4-.6 1.4-1.5s-.5-1.4-1.4-1.4h-1.5v2.9h1.5zM207 228.3c0-.7-.5-1.2-1.3-1.2-.7 0-1.2.3-1.2.7v.3h-.9v-.6c0-1 1.3-1.4 2.2-1.4 1.4 0 2.4.9 2.4 2.2 0 2.6-3.8 2.6-3.8 4.4 0 .1.1.2.3.2h2.7c.1 0 .2-.1.2-.2v-.5h1v.9c0 .5-.2.7-.7.7h-3.8c-.6 0-.7-.3-.7-.9-.2-2.7 3.6-2.5 3.6-4.6zM210.5 230.1c0-2.2.6-3.9 2.7-3.9 2 0 2.7 1.7 2.7 3.9s-.6 3.9-2.7 3.9-2.7-1.8-2.7-3.9zm4.2 0c0-1.6-.3-2.9-1.6-2.9s-1.6 1.3-1.6 2.9c0 1.6.3 2.9 1.6 2.9s1.6-1.3 1.6-2.9zM217.9 232.9h1.6v-5.4s-.1.2-.3.4l-.7.7-.6-.6 1.8-1.8h.9v6.6h1.6v.9h-4.4l.1-.8zM223.7 231.1l3.4-4.8h1.2v4.6h1.2v.9h-1.2v2h-1.1v-2h-3.5v-.7zm3.5-2.8v-.8l-.4.6-1.6 2.2c-.2.3-.4.5-.4.5h2.4v-2.5zM283.2 228.3c0-.7-.5-1.2-1.3-1.2-.7 0-1.2.3-1.2.7v.3h-1v-.6c0-1 1.3-1.4 2.2-1.4 1.4 0 2.4.9 2.4 2.2 0 2.6-3.8 2.6-3.8 4.4 0 .1.1.2.3.2h2.7c.1 0 .2-.1.2-.2v-.5h1v.9c0 .5-.2.7-.7.7h-3.8c-.6 0-.7-.3-.7-.9-.1-2.7 3.7-2.5 3.7-4.6zM286.7 230.1c0-2.2.6-3.9 2.7-3.9 2 0 2.7 1.7 2.7 3.9s-.6 3.9-2.7 3.9-2.7-1.8-2.7-3.9zm4.2 0c0-1.6-.3-2.9-1.6-2.9s-1.6 1.3-1.6 2.9c0 1.6.3 2.9 1.6 2.9 1.2 0 1.6-1.3 1.6-2.9zM294.2 232.9h1.6v-5.4s-.1.2-.3.4l-.7.7-.6-.6 1.8-1.8h.9v6.6h1.6v.9h-4.4l.1-.8zM300.9 232.1s.6.8 1.8.8c.9 0 1.6-.6 1.6-1.5s-.8-1.6-1.8-1.6c-.8 0-1.4.4-1.4.4l-.4-.2.3-3.1c0-.5.2-.7.7-.7h2.6c.5 0 .7.2.7.7v.9h-1v-.4c0-.2-.1-.2-.2-.2h-1.6c-.1 0-.2.1-.2.2l-.1 1.4v.4s.4-.2.9-.2c1.6 0 2.7 1.1 2.7 2.5 0 1.3-1.1 2.5-2.7 2.5s-2.3-1-2.3-1l.4-.9zM360.1 228.3c0-.7-.5-1.2-1.3-1.2-.7 0-1.2.3-1.2.7v.3h-1v-.6c0-1 1.3-1.4 2.2-1.4 1.4 0 2.4.9 2.4 2.2 0 2.6-3.8 2.6-3.8 4.4 0 .1.1.2.3.2h2.7c.1 0 .2-.1.2-.2v-.5h1v.9c0 .5-.2.7-.7.7h-3.9c-.6 0-.7-.3-.7-.9 0-2.7 3.8-2.5 3.8-4.6zM363.6 230.1c0-2.2.6-3.9 2.7-3.9 2 0 2.7 1.7 2.7 3.9s-.6 3.9-2.7 3.9-2.7-1.8-2.7-3.9zm4.2 0c0-1.6-.3-2.9-1.6-2.9s-1.6 1.3-1.6 2.9c0 1.6.3 2.9 1.6 2.9s1.6-1.3 1.6-2.9zM371.1 232.9h1.6v-5.4s-.1.2-.3.4l-.7.7-.7-.6 1.8-1.8h.9v6.6h1.6v.9h-4.3l.1-.8zM377.1 230.5c0-1.9 1-4.3 3.4-4.3.9 0 1.5.3 1.5.3l-.3.9s-.5-.3-1.1-.3c-1.4 0-2.1 1.3-2.2 2.6.3-.5 1-.7 1.7-.7 1.4 0 2.4 1.1 2.4 2.5 0 1.5-1 2.5-2.4 2.5-1.8 0-3-1.4-3-3.5zm2.8 2.5c.9 0 1.4-.7 1.4-1.6 0-.9-.6-1.6-1.6-1.6-.9 0-1.5.5-1.5 1 0 1.1.8 2.2 1.7 2.2zM437.1 228.3c0-.7-.5-1.2-1.3-1.2-.7 0-1.2.3-1.2.7v.3h-1v-.6c0-1 1.3-1.4 2.2-1.4 1.4 0 2.4.9 2.4 2.2 0 2.6-3.8 2.6-3.8 4.4 0 .1.1.2.3.2h2.7c.1 0 .2-.1.2-.2v-.5h1v.9c0 .5-.2.7-.7.7h-3.9c-.6 0-.7-.3-.7-.9 0-2.7 3.8-2.5 3.8-4.6zM440.5 230.1c0-2.2.6-3.9 2.7-3.9 2 0 2.7 1.7 2.7 3.9s-.6 3.9-2.7 3.9c-2 0-2.7-1.8-2.7-3.9zm4.3 0c0-1.6-.3-2.9-1.6-2.9s-1.6 1.3-1.6 2.9c0 1.6.3 2.9 1.6 2.9s1.6-1.3 1.6-2.9zM448 232.9h1.6v-5.4s-.1.2-.3.4l-.7.7-.6-.6 1.8-1.8h.9v6.6h1.6v.9h-4.3v-.8zM457.6 227.9c.2-.4.4-.7.4-.7h-2.9c-.1 0-.2.1-.2.2v.5h-1v-.9c0-.5.2-.7.6-.7h4.6v.7l-3.6 6.8h-1.2l3.3-5.9z"/><circle class="st2" cx="142.8" cy="312.8" r="9.1"/><circle class="st1" cx="283.8" cy="312.8" r="9.1"/><path class="st3" d="M70.4 261.4h.3c.1 0 .2 0 .2-.2v-5.2h.5l3 4.2c.2.3.5.8.5.8v-4.5c0-.3.1-.5.5-.5h.6v.5h-.3c-.1 0-.2 0-.2.2v5.2h-.5l-3-4.2c-.2-.3-.5-.8-.5-.8v4.5c0 .3-.1.5-.5.5h-.6v-.5zM78.8 257.6c1.2 0 1.8.9 1.8 1.9v.3h-3.2c0 1.1.8 1.7 1.6 1.7s1.3-.5 1.3-.5l.3.4s-.6.6-1.6.6c-1.3 0-2.2-.9-2.2-2.2-.1-1.3.8-2.2 2-2.2zm1.1 1.8c0-.9-.6-1.3-1.2-1.3-.7 0-1.3.4-1.4 1.3h2.6zM81.7 256.7c0-.1-.1-.2-.2-.2h-.3v-.5h.6c.3 0 .5.1.5.5v4.7c0 .1.1.2.2.2h.3v.5h-.6c-.3 0-.5-.1-.5-.5v-4.7zM87.8 257.6c.5 0 1.5.2 1.5.9v.4h-.5v-.3c0-.3-.6-.5-.9-.5-.9 0-1.6.7-1.6 1.7s.8 1.7 1.6 1.7l1.3-.6.3.4s-.6.7-1.6.7c-1.3 0-2.2-.9-2.2-2.2-.1-1.3.8-2.2 2.1-2.2zM92.2 257.6c1.2 0 2.2.9 2.2 2.2 0 1.3-1 2.2-2.2 2.2-1.2 0-2.2-.9-2.2-2.2 0-1.3 1-2.2 2.2-2.2zm0 3.9c.9 0 1.6-.7 1.6-1.7 0-.9-.7-1.6-1.6-1.6-.9 0-1.6.7-1.6 1.6-.1.9.7 1.7 1.6 1.7zM95.5 258.4c0-.1-.1-.2-.2-.2h-.3v-.5h.6c.3 0 .5.1.5.5v.6c.2-.6.6-1.1 1.3-1.1h.2v.6h-.2c-.6 0-1 .5-1.2 1.1-.1.3-.1.6-.1.8v1.8h-.6v-3.6zM98.3 260.9s.5.6 1.3.6c.5 0 .9-.2.9-.6 0-.9-2.3-.7-2.3-2.1 0-.8.6-1.1 1.5-1.1.4 0 1.3.2 1.3.8v.3h-.5v-.2c0-.3-.4-.4-.7-.4-.6 0-.9.2-.9.6 0 .9 2.3.7 2.3 2.1 0 .7-.6 1.2-1.5 1.2-1.1 0-1.6-.7-1.6-.7l.2-.5zM104 257.6c1.2 0 2.2.9 2.2 2.2 0 1.3-1 2.2-2.2 2.2-1.2 0-2.2-.9-2.2-2.2 0-1.3.9-2.2 2.2-2.2zm0 3.9c.9 0 1.6-.7 1.6-1.7 0-.9-.7-1.6-1.6-1.6-.9 0-1.6.7-1.6 1.6-.1.9.6 1.7 1.6 1.7zM111 257.6c1 0 1.4.8 1.4.8v-1.6c0-.1-.1-.2-.2-.2h-.3v-.5h.6c.3 0 .5.1.5.5v4.7c0 .1.1.2.2.2h.3v.5h-.6c-.3 0-.5-.2-.5-.5v-.3s-.3.8-1.4.8c-1.1 0-1.8-.9-1.8-2.2-.1-1.3.7-2.2 1.8-2.2zm1.4 2.2c0-.9-.4-1.7-1.3-1.7-.7 0-1.3.6-1.3 1.7 0 1 .6 1.7 1.3 1.7.6 0 1.3-.5 1.3-1.7zM116.1 257.6c1.2 0 1.8.9 1.8 1.9v.3h-3.2c0 1.1.8 1.7 1.6 1.7s1.3-.5 1.3-.5l.3.4s-.6.6-1.6.6c-1.3 0-2.2-.9-2.2-2.2-.1-1.3.9-2.2 2-2.2zm1.1 1.8c0-.9-.6-1.3-1.2-1.3-.7 0-1.3.4-1.4 1.3h2.6zM119 256.7c0-.1-.1-.2-.2-.2h-.3v-.5h.6c.3 0 .5.1.5.5v4.7c0 .1.1.2.2.2h.3v.5h-.6c-.3 0-.5-.1-.5-.5v-4.7zM126 257.6c0-.6-.5-1.1-1.2-1.1-.6 0-1 .3-1 .6v.3h-.6v-.4c0-.7 1-1 1.6-1 1.1 0 1.8.7 1.8 1.6 0 2.1-3.1 2-3.1 3.6 0 .1.1.2.2.2h2.5c.1 0 .2 0 .2-.2v-.4h.6v.6c0 .3-.1.5-.5.5h-2.9c-.4 0-.5-.2-.5-.6-.2-2.2 2.9-2 2.9-3.7zM127.7 259c0-1.7.5-3 2-3 1.6 0 2 1.3 2 3s-.5 3-2 3-2-1.3-2-3zm3.4 0c0-1.4-.3-2.5-1.4-2.5-1.1 0-1.4 1.1-1.4 2.5s.3 2.5 1.4 2.5c1.1 0 1.4-1.2 1.4-2.5zM132.6 261.4h1.3v-4.6s0 .1-.3.3l-.6.6-.4-.4 1.3-1.3h.6v5.3h1.3v.5h-3.2v-.4zM139.2 257.1c.2-.3.3-.6.3-.6h-2.5c-.1 0-.2 0-.2.2v.4h-.6v-.6c0-.3.1-.5.5-.5h3.5v.4l-2.9 5.5h-.6l2.5-4.8zM143.1 260.9s.5.6 1.3.6c.5 0 .9-.2.9-.6 0-.9-2.3-.7-2.3-2.1 0-.8.6-1.1 1.5-1.1.4 0 1.3.2 1.3.8v.3h-.5v-.2c0-.3-.4-.4-.7-.4-.6 0-.9.2-.9.6 0 .9 2.3.7 2.3 2.1 0 .7-.6 1.2-1.5 1.2-1.1 0-1.6-.7-1.6-.7l.2-.5zM147 258.4c0-.1-.1-.2-.2-.2h-.3v-.5h.6c.3 0 .5.1.5.5v3c0 .1.1.2.2.2h.3v.5h-.6c-.3 0-.5-.1-.5-.5v-3zm0-2.4h.6v.7h-.6v-.7zM151.1 260.9s.5.6 1.3.6c.5 0 .9-.2.9-.6 0-.9-2.3-.7-2.3-2.1 0-.8.6-1.1 1.5-1.1.4 0 1.3.2 1.3.8v.3h-.5v-.2c0-.3-.4-.4-.7-.4-.6 0-.9.2-.9.6 0 .9 2.3.7 2.3 2.1 0 .7-.6 1.2-1.5 1.2-1.1 0-1.6-.7-1.6-.7l.2-.5zM156.7 257.6c1.2 0 2.2.9 2.2 2.2 0 1.3-1 2.2-2.2 2.2-1.2 0-2.2-.9-2.2-2.2 0-1.3 1-2.2 2.2-2.2zm0 3.9c.9 0 1.6-.7 1.6-1.7 0-.9-.7-1.6-1.6-1.6s-1.6.7-1.6 1.6c0 .9.8 1.7 1.6 1.7zM160 258.4c0-.1-.1-.2-.2-.2h-.3v-.5h.6c.3 0 .5.1.5.5v.5c.1-.4.7-1.1 1.7-1.1s1.4.6 1.4 1.6v2c0 .1.1.2.2.2h.3v.5h-.6c-.3 0-.5-.1-.5-.5v-2c0-.6-.1-1.3-.9-1.3-.7 0-1.3.5-1.5 1.2 0 .2-.1.3-.1.6v2h-.6v-3.5zM166.9 257.6c1.2 0 2.2.9 2.2 2.2 0 1.3-1 2.2-2.2 2.2s-2.2-.9-2.2-2.2c0-1.3 1-2.2 2.2-2.2zm0 3.9c.9 0 1.6-.7 1.6-1.7 0-.9-.7-1.6-1.6-1.6s-1.6.7-1.6 1.6c0 .9.7 1.7 1.6 1.7zM172.2 258.4c0-.1-.1-.2-.3-.2h-.1v-.5h.2c.4 0 .5.1.6.5l1 2.6c.1.2.1.5.1.5s.1-.3.1-.5l1-2.6c.1-.4.3-.5.6-.5h.2v.5h-.1c-.1 0-.3 0-.3.2l-1.4 3.5h-.6l-1-3.5zM178.4 257.6c1.2 0 1.8.9 1.8 1.9v.3h-3.2c0 1.1.8 1.7 1.6 1.7s1.3-.5 1.3-.5l.3.4s-.6.6-1.6.6c-1.3 0-2.2-.9-2.2-2.2-.1-1.3.8-2.2 2-2.2zm1.2 1.8c0-.9-.6-1.3-1.2-1.3-.7 0-1.3.4-1.4 1.3h2.6zM181.2 258.4c0-.1-.1-.2-.2-.2h-.3v-.5h.6c.3 0 .5.1.5.5v.6c.2-.6.6-1.1 1.3-1.1h.2v.6h-.2c-.6 0-1 .5-1.2 1.1-.1.3-.1.6-.1.8v1.8h-.6v-3.6zM184.3 258.4c0-.1-.1-.2-.2-.2h-.3v-.5h.6c.3 0 .5.1.5.5v3c0 .1.1.2.2.2h.3v.5h-.6c-.3 0-.5-.1-.5-.5v-3zm0-2.4h.6v.7h-.6v-.7zM186.4 258.2h-.5v-.5h.5v-.1c0-1.4 1-1.6 1.4-1.6h.3v.5h-.2c-.3 0-.9.1-.9 1v.1h2c.3 0 .5.1.5.5v3c0 .1.1.2.2.2h.3v.5h-.6c-.3 0-.5-.1-.5-.5v-3c0-.1-.1-.2-.2-.2h-1.7v3.7h-.6v-3.6zm2.5-2.2h.6v.7h-.6v-.7zM192.8 257.6c.5 0 1.5.2 1.5.9v.4h-.5v-.3c0-.3-.6-.5-.9-.5-.9 0-1.6.7-1.6 1.7s.8 1.7 1.6 1.7c.9 0 1.3-.6 1.3-.6l.3.4s-.6.7-1.6.7c-1.3 0-2.2-.9-2.2-2.2-.2-1.3.8-2.2 2.1-2.2zM197.5 259.3h.2c0-.9-.3-1.2-1.1-1.2-.2 0-.8 0-.8.4v.3h-.6v-.4c0-.6 1-.7 1.4-.7 1.3 0 1.6.7 1.6 1.6v2c0 .1.1.2.2.2h.3v.5h-.6c-.3 0-.5-.2-.5-.5v-.3s-.3.9-1.4.9c-.7 0-1.4-.4-1.4-1.3.1-1.4 2-1.5 2.7-1.5zm-1 2.2c.8 0 1.3-.8 1.3-1.6v-.2h-.3c-.6 0-2 0-2 .9 0 .5.3.9 1 .9zM199.8 258.2h-.6v-.5h.6v-1.2h.6v1.2h1v.5h-1v2.1c0 1 .6 1.1.9 1.1h.2v.5h-.3c-.5 0-1.5-.2-1.5-1.6l.1-2.1zM202.6 258.4c0-.1-.1-.2-.2-.2h-.4v-.5h.6c.3 0 .5.1.5.5v3c0 .1.1.2.2.2h.3v.5h-.6c-.3 0-.5-.1-.5-.5v-3zm0-2.4h.6v.7h-.6v-.7zM207 261.3s.4.2.9.2c1.2 0 1.9-1.3 1.9-2.4-.3.5-.9.7-1.5.7-1.1 0-1.8-.8-1.8-1.9 0-1.2.8-1.9 1.8-1.9 1.3 0 2.1 1.1 2.1 2.7 0 1.5-.8 3.4-2.6 3.4-.6 0-1.1-.3-1.1-.3l.3-.5zm2.8-3.1c0-.8-.6-1.8-1.5-1.8-.8 0-1.3.6-1.3 1.4 0 .8.5 1.3 1.3 1.3.9.1 1.5-.4 1.5-.9zM213.9 258.4c0-.1-.1-.2-.2-.2h-.3v-.5h.6c.3 0 .5.1.5.5v3c0 .1.1.2.2.2h.3v.5h-.6c-.3 0-.5-.1-.5-.5v-3zm0-2.4h.6v.7h-.6v-.7zM215.9 258.4c0-.1-.1-.2-.2-.2h-.3v-.5h.6c.3 0 .5.1.5.5v.5c.1-.4.7-1.1 1.7-1.1s1.4.6 1.4 1.6v2c0 .1.1.2.2.2h.3v.5h-.6c-.3 0-.5-.1-.5-.5v-2c0-.6-.1-1.3-.9-1.3-.7 0-1.3.5-1.5 1.2 0 .2-.1.3-.1.6v2h-.6v-3.5zM222.8 257.6c.5 0 1.5.2 1.5.9v.4h-.5v-.3c0-.3-.6-.5-.9-.5-.9 0-1.6.7-1.6 1.7s.8 1.7 1.6 1.7l1.3-.6.3.4s-.6.7-1.6.7c-1.3 0-2.2-.9-2.2-2.2-.1-1.3.9-2.2 2.1-2.2zM225.4 258.4c0-.1-.1-.2-.2-.2h-.3v-.5h.6c.3 0 .5.1.5.5v3c0 .1.1.2.2.2h.3v.5h-.6c-.3 0-.5-.1-.5-.5v-3zm0-2.4h.6v.7h-.6v-.7zM229 257.6c1 0 1.4.8 1.4.8v-1.6c0-.1-.1-.2-.2-.2h-.3v-.5h.6c.3 0 .5.1.5.5v4.7c0 .1.1.2.2.2h.3v.5h-.6c-.3 0-.5-.2-.5-.5v-.3s-.3.8-1.4.8c-1.1 0-1.8-.9-1.8-2.2-.1-1.3.7-2.2 1.8-2.2zm1.4 2.2c0-.9-.4-1.7-1.3-1.7-.7 0-1.3.6-1.3 1.7 0 1 .6 1.7 1.3 1.7.6 0 1.3-.5 1.3-1.7zM234 257.6c1.2 0 1.8.9 1.8 1.9v.3h-3.2c0 1.1.8 1.7 1.6 1.7s1.3-.5 1.3-.5l.3.4s-.6.6-1.6.6c-1.3 0-2.2-.9-2.2-2.2 0-1.3.9-2.2 2-2.2zm1.2 1.8c0-.9-.6-1.3-1.2-1.3-.7 0-1.3.4-1.4 1.3h2.6zM237 258.4c0-.1-.1-.2-.2-.2h-.3v-.5h.6c.3 0 .5.1.5.5v.5c.1-.4.7-1.1 1.7-1.1s1.4.6 1.4 1.6v2c0 .1.1.2.2.2h.3v.5h-.6c-.3 0-.5-.1-.5-.5v-2c0-.6-.1-1.3-.9-1.3-.7 0-1.3.5-1.5 1.2 0 .2-.1.3-.1.6v2h-.6v-3.5zM242.1 258.2h-.6v-.5h.6v-1.2h.6v1.2h1v.5h-1v2.1c0 1 .6 1.1.9 1.1h.2v.5h-.3c-.5 0-1.5-.2-1.5-1.6l.1-2.1zM244.9 258.4c0-.1-.1-.2-.2-.2h-.3v-.5h.6c.3 0 .5.1.5.5v3c0 .1.1.2.2.2h.3v.5h-.6c-.3 0-.5-.1-.5-.5v-3zm-.1-2.4h.6v.7h-.6v-.7zM250.7 257.6c1 0 1.4.8 1.4.8v-1.6c0-.1-.1-.2-.2-.2h-.3v-.5h.6c.3 0 .5.1.5.5v4.7c0 .1.1.2.2.2h.3v.5h-.6c-.3 0-.5-.2-.5-.5v-.3s-.3.8-1.4.8c-1.1 0-1.8-.9-1.8-2.2-.1-1.3.7-2.2 1.8-2.2zm1.4 2.2c0-.9-.4-1.7-1.3-1.7-.7 0-1.3.6-1.3 1.7 0 1 .6 1.7 1.3 1.7.6 0 1.3-.5 1.3-1.7zM254.1 258.4c0-.1-.1-.2-.2-.2h-.3v-.5h.6c.3 0 .5.1.5.5v3c0 .1.1.2.2.2h.3v.5h-.6c-.3 0-.5-.1-.5-.5v-3zm0-2.4h.6v.7h-.6v-.7zM258.4 256.7c0-.1-.1-.2-.2-.2h-.3v-.5h.6c.3 0 .5.1.5.5v4.7c0 .1.1.2.2.2h.3v.5h-.6c-.3 0-.5-.1-.5-.5v-4.7zM260.5 258.4c0-.1-.1-.2-.2-.2h-.3v-.5h.6c.3 0 .5.1.5.5v3c0 .1.1.2.2.2h.3v.5h-.6c-.3 0-.5-.1-.5-.5v-3zm0-2.4h.6v.7h-.6v-.7zM264.2 257.6c1.2 0 1.8.9 1.8 1.9v.3h-3.2c0 1.1.8 1.7 1.6 1.7s1.3-.5 1.3-.5l.3.4s-.6.6-1.6.6c-1.3 0-2.2-.9-2.2-2.2 0-1.3.9-2.2 2-2.2zm1.2 1.8c0-.9-.6-1.3-1.2-1.3-.7 0-1.3.4-1.4 1.3h2.6zM266.9 258.4c0-.1-.1-.2-.3-.2h-.1v-.5h.2c.4 0 .5.1.6.5l1 2.6c.1.2.1.5.1.5s.1-.3.1-.5l1-2.6c.1-.4.3-.5.6-.5h.2v.5h-.1c-.1 0-.3 0-.3.2l-1.4 3.5h-.5l-1.1-3.5zM273 257.6c1.2 0 1.8.9 1.8 1.9v.3h-3.2c0 1.1.8 1.7 1.6 1.7s1.3-.5 1.3-.5l.3.4s-.6.6-1.6.6c-1.3 0-2.2-.9-2.2-2.2 0-1.3.9-2.2 2-2.2zm1.2 1.8c0-.9-.6-1.3-1.2-1.3-.7 0-1.3.4-1.4 1.3h2.6zM279.9 257.6c1.2 0 1.8.9 1.8 1.9v.3h-3.2c0 1.1.8 1.7 1.6 1.7s1.3-.5 1.3-.5l.3.4s-.6.6-1.6.6c-1.3 0-2.2-.9-2.2-2.2-.1-1.3.9-2.2 2-2.2zm1.1 1.8c0-.9-.6-1.3-1.2-1.3-.7 0-1.3.4-1.4 1.3h2.6zM282.8 258.4c0-.1-.1-.2-.2-.2h-.3v-.5h.6c.3 0 .5.1.5.5v.5c.1-.4.7-1.1 1.7-1.1s1.4.6 1.4 1.6v2c0 .1.1.2.2.2h.3v.5h-.6c-.3 0-.5-.1-.5-.5v-2c0-.6-.1-1.3-.9-1.3-.7 0-1.3.5-1.5 1.2 0 .2-.1.3-.1.6v2h-.6v-3.5zM287.9 258.2h-.6v-.5h.6v-1.2h.6v1.2h1v.5h-1v2.1c0 1 .6 1.1.9 1.1h.2v.5h-.3c-.5 0-1.5-.2-1.5-1.6l.1-2.1zM290.7 258.4c0-.1-.1-.2-.2-.2h-.3v-.5h.6c.3 0 .5.1.5.5v3c0 .1.1.2.2.2h.3v.5h-.6c-.3 0-.5-.1-.5-.5v-3zm0-2.4h.6v.7h-.6v-.7zM292.8 258.2h-.6v-.5h.6v-1.2h.6v1.2h1v.5h-1v2.1c0 1 .6 1.1.9 1.1h.2v.5h-.3c-.5 0-1.5-.2-1.5-1.6l.1-2.1zM297.6 259.3h.2c0-.9-.3-1.2-1.1-1.2-.2 0-.8 0-.8.4v.3h-.5v-.4c0-.6 1-.7 1.4-.7 1.3 0 1.6.7 1.6 1.6v2c0 .1.1.2.2.2h.3v.5h-.6c-.3 0-.5-.2-.5-.5v-.3s-.3.9-1.4.9c-.7 0-1.4-.4-1.4-1.3.1-1.4 1.9-1.5 2.6-1.5zm-1 2.2c.8 0 1.3-.8 1.3-1.6v-.2h-.3c-.6 0-2 0-2 .9 0 .5.4.9 1 .9zm-.7-5.5h.6l.6 1h-.5l-.7-1zM300.4 261.2l-.6 1.5h-.5l.5-1.5h.6zM306.1 259.3h.2c0-.9-.3-1.2-1.1-1.2-.2 0-.8 0-.8.4v.3h-.6v-.4c0-.6 1-.7 1.4-.7 1.3 0 1.6.7 1.6 1.6v2c0 .1.1.2.2.2h.3v.5h-.6c-.3 0-.5-.2-.5-.5v-.3s-.3.9-1.4.9c-.7 0-1.4-.4-1.4-1.3.1-1.4 2-1.5 2.7-1.5zm-1.1 2.2c.8 0 1.3-.8 1.3-1.6v-.2h-.3c-.6 0-2 0-2 .9.1.5.4.9 1 .9zM310.6 258.2h-.5v-.5h.5v-.1c0-1.4 1-1.6 1.4-1.6h.3v.5h-.2c-.3 0-.9.1-.9 1v.1h1.1v.5h-1.1v3.7h-.6v-3.6zM313.1 258.4c0-.1-.1-.2-.2-.2h-.3v-.5h.6c.3 0 .5.1.5.5v.6c.2-.6.6-1.1 1.3-1.1h.2v.6h-.2c-.6 0-1 .5-1.2 1.1-.1.3-.1.6-.1.8v1.8h-.6v-3.6zM317.8 257.6c1.2 0 2.2.9 2.2 2.2 0 1.3-1 2.2-2.2 2.2-1.2 0-2.2-.9-2.2-2.2 0-1.3 1-2.2 2.2-2.2zm0 3.9c.9 0 1.6-.7 1.6-1.7 0-.9-.7-1.6-1.6-1.6s-1.6.7-1.6 1.6c0 .9.7 1.7 1.6 1.7zM321.1 258.4c0-.1-.1-.2-.2-.2h-.3v-.5h.6c.3 0 .5.1.5.5v.5c.1-.4.7-1.1 1.7-1.1s1.4.6 1.4 1.6v2c0 .1.1.2.2.2h.3v.5h-.6c-.3 0-.5-.1-.5-.5v-2c0-.6-.1-1.3-.9-1.3-.7 0-1.3.5-1.5 1.2 0 .2-.1.3-.1.6v2h-.6v-3.5zM326.2 258.2h-.6v-.5h.6v-1.2h.6v1.2h1v.5h-1v2.1c0 1 .6 1.1.9 1.1h.2v.5h-.3c-.5 0-1.5-.2-1.5-1.6l.1-2.1zM330.5 257.6c1.2 0 1.8.9 1.8 1.9v.3h-3.2c0 1.1.8 1.7 1.6 1.7s1.3-.5 1.3-.5l.3.4s-.6.6-1.6.6c-1.3 0-2.2-.9-2.2-2.2 0-1.3.9-2.2 2-2.2zm1.2 1.8c0-.9-.6-1.3-1.2-1.3-.7 0-1.3.4-1.4 1.3h2.6zM337.2 257.6c1 0 1.4.8 1.4.8v-1.6c0-.1-.1-.2-.2-.2h-.3v-.5h.6c.3 0 .5.1.5.5v4.7c0 .1.1.2.2.2h.3v.5h-.6c-.3 0-.5-.2-.5-.5v-.3s-.3.8-1.4.8c-1.1 0-1.8-.9-1.8-2.2-.1-1.3.7-2.2 1.8-2.2zm1.4 2.2c0-.9-.4-1.7-1.3-1.7-.7 0-1.3.6-1.3 1.7 0 1 .6 1.7 1.3 1.7.6 0 1.3-.5 1.3-1.7zM342.3 257.6c1.2 0 1.8.9 1.8 1.9v.3h-3.2c0 1.1.8 1.7 1.6 1.7s1.3-.5 1.3-.5l.3.4s-.6.6-1.6.6c-1.3 0-2.2-.9-2.2-2.2-.1-1.3.9-2.2 2-2.2zm1.2 1.8c0-.9-.6-1.3-1.2-1.3-.7 0-1.3.4-1.4 1.3h2.6zM345.2 258.4c0-.1-.1-.2-.2-.2h-.3v-.5h.6c.3 0 .5.1.5.5v3c0 .1.1.2.2.2h.3v.5h-.6c-.3 0-.5-.1-.5-.5v-3zm0-2.4h.6v.7h-.6v-.7zM349.2 259.3c0-1.5.8-3.4 2.6-3.4.6 0 1.1.3 1.1.3l-.2.5s-.3-.2-.9-.2c-1.2 0-1.9 1.2-1.9 2.4.3-.5.9-.7 1.5-.7 1.1 0 1.8.8 1.8 1.9 0 1.2-.8 1.9-1.9 1.9-1.3 0-2.1-1.1-2.1-2.7zm2.1 2.2c.8 0 1.3-.6 1.3-1.4s-.5-1.3-1.3-1.3-1.4.5-1.4 1c-.1.7.5 1.7 1.4 1.7zM358 257.6c1 0 1.4.8 1.4.8v-1.6c0-.1-.1-.2-.2-.2h-.3v-.5h.6c.3 0 .5.1.5.5v4.7c0 .1.1.2.2.2h.3v.5h-.6c-.3 0-.5-.2-.5-.5v-.3s-.3.8-1.4.8c-1.1 0-1.8-.9-1.8-2.2-.1-1.3.7-2.2 1.8-2.2zm1.4 2.2c0-.9-.4-1.7-1.3-1.7-.7 0-1.3.6-1.3 1.7 0 1 .6 1.7 1.3 1.7.6 0 1.3-.5 1.3-1.7zM363 257.6c1.2 0 1.8.9 1.8 1.9v.3h-3.2c0 1.1.8 1.7 1.6 1.7s1.3-.5 1.3-.5l.3.4s-.6.6-1.6.6c-1.3 0-2.2-.9-2.2-2.2 0-1.3.9-2.2 2-2.2zm1.2 1.8c0-.9-.6-1.3-1.2-1.3-.7 0-1.3.4-1.4 1.3h2.6zM365.9 256.7c0-.1-.1-.2-.2-.2h-.3v-.5h.6c.3 0 .5.1.5.5v4.7c0 .1.1.2.2.2h.3v.5h-.6c-.3 0-.5-.1-.5-.5v-4.7zM368 256.7c0-.1-.1-.2-.2-.2h-.3v-.5h.6c.3 0 .5.1.5.5v4.7c0 .1.1.2.2.2h.3v.5h-.6c-.3 0-.5-.1-.5-.5v-4.7zM369.9 255.9h.5v1.4h-.5v-1.4zM373.4 259.3h.2c0-.9-.3-1.2-1.1-1.2-.2 0-.8 0-.8.4v.3h-.6v-.4c0-.6 1-.7 1.4-.7 1.3 0 1.6.7 1.6 1.6v2c0 .1.1.2.2.2h.3v.5h-.6c-.3 0-.5-.2-.5-.5v-.3s-.3.9-1.4.9c-.7 0-1.4-.4-1.4-1.3.1-1.4 2-1.5 2.7-1.5zm-1 2.2c.8 0 1.3-.8 1.3-1.6v-.2h-.3c-.6 0-2 0-2 .9 0 .5.3.9 1 .9zM375.6 258.4c0-.1-.1-.2-.2-.2h-.3v-.5h.6c.3 0 .5.1.5.5v.5c.1-.4.7-1.1 1.7-1.1s1.4.6 1.4 1.6v2c0 .1.1.2.2.2h.3v.5h-.6c-.3 0-.5-.1-.5-.5v-2c0-.6-.1-1.3-.9-1.3-.7 0-1.3.5-1.5 1.2 0 .2-.1.3-.1.6v2h-.6v-3.5zM380.7 258.4c0-.1-.1-.2-.2-.2h-.3v-.5h.6c.3 0 .5.1.5.5v.5c.1-.4.7-1.1 1.7-1.1s1.4.6 1.4 1.6v2c0 .1.1.2.2.2h.3v.5h-.6c-.3 0-.5-.1-.5-.5v-2c0-.6-.1-1.3-.9-1.3-.7 0-1.3.5-1.5 1.2 0 .2-.1.3-.1.6v2h-.6v-3.5zM387.6 257.6c1.2 0 2.2.9 2.2 2.2 0 1.3-1 2.2-2.2 2.2-1.2 0-2.2-.9-2.2-2.2 0-1.3 1-2.2 2.2-2.2zm0 3.9c.9 0 1.6-.7 1.6-1.7 0-.9-.7-1.6-1.6-1.6-.9 0-1.6.7-1.6 1.6-.1.9.7 1.7 1.6 1.7zM393.1 258.4c0-.1-.1-.2-.2-.2h-.3v-.5h.6c.3 0 .5.1.5.4v.3s.3-.8 1.4-.8c1.1 0 1.8.9 1.8 2.2 0 1.3-.8 2.2-1.9 2.2-1 0-1.4-.8-1.4-.8v2.3h-.6l.1-5.1zm1.9 3.1c.7 0 1.3-.6 1.3-1.7 0-1-.6-1.7-1.3-1.7-.7 0-1.3.5-1.3 1.7 0 .9.4 1.7 1.3 1.7zM398 258.4c0-.1-.1-.2-.2-.2h-.3v-.5h.6c.3 0 .5.1.5.5v.6c.2-.6.6-1.1 1.3-1.1h.2v.6h-.2c-.6 0-1 .5-1.2 1.1-.1.3-.1.6-.1.8v1.8h-.6v-3.6zM402.5 257.6c1.2 0 1.8.9 1.8 1.9v.3h-3.2c0 1.1.8 1.7 1.6 1.7s1.3-.5 1.3-.5l.3.4s-.6.6-1.6.6c-1.3 0-2.2-.9-2.2-2.2 0-1.3.9-2.2 2-2.2zm1.2 1.8c0-.9-.6-1.3-1.2-1.3-.7 0-1.3.4-1.4 1.3h2.6zM407.2 257.6c.5 0 1.5.2 1.5.9v.4h-.5v-.3c0-.3-.6-.5-.9-.5-.9 0-1.6.7-1.6 1.7s.8 1.7 1.6 1.7l1.3-.6.3.4s-.6.7-1.6.7c-1.3 0-2.2-.9-2.2-2.2-.1-1.3.9-2.2 2.1-2.2zM411.5 257.6c1.2 0 1.8.9 1.8 1.9v.3h-3.2c0 1.1.8 1.7 1.6 1.7s1.3-.5 1.3-.5l.3.4s-.6.6-1.6.6c-1.3 0-2.2-.9-2.2-2.2-.1-1.3.9-2.2 2-2.2zm1.2 1.8c0-.9-.6-1.3-1.2-1.3-.7 0-1.3.4-1.4 1.3h2.6zM415.9 257.6c1 0 1.4.8 1.4.8v-1.6c0-.1-.1-.2-.2-.2h-.3v-.5h.6c.3 0 .5.1.5.5v4.7c0 .1.1.2.2.2h.3v.5h-.6c-.3 0-.5-.2-.5-.5v-.3s-.3.8-1.4.8c-1.1 0-1.8-.9-1.8-2.2-.1-1.3.7-2.2 1.8-2.2zm1.4 2.2c0-.9-.4-1.7-1.3-1.7-.7 0-1.3.6-1.3 1.7 0 1 .6 1.7 1.3 1.7.7 0 1.3-.5 1.3-1.7zM421 257.6c1.2 0 1.8.9 1.8 1.9v.3h-3.2c0 1.1.8 1.7 1.6 1.7s1.3-.5 1.3-.5l.3.4s-.6.6-1.6.6c-1.3 0-2.2-.9-2.2-2.2-.1-1.3.8-2.2 2-2.2zm1.2 1.8c0-.9-.6-1.3-1.2-1.3-.7 0-1.3.4-1.4 1.3h2.6zM423.9 258.4c0-.1-.1-.2-.2-.2h-.3v-.5h.6c.3 0 .5.1.5.5v.5c.1-.4.7-1.1 1.7-1.1s1.4.6 1.4 1.6v2c0 .1.1.2.2.2h.3v.5h-.6c-.3 0-.5-.1-.5-.5v-2c0-.6-.1-1.3-.9-1.3-.7 0-1.3.5-1.5 1.2 0 .2-.1.3-.1.6v2h-.6v-3.5zM429 258.2h-.6v-.5h.6v-1.2h.6v1.2h1v.5h-1v2.1c0 1 .6 1.1.9 1.1h.2v.5h-.3c-.5 0-1.5-.2-1.5-1.6l.1-2.1zM433.3 257.6c1.2 0 1.8.9 1.8 1.9v.3h-3.2c0 1.1.8 1.7 1.6 1.7s1.3-.5 1.3-.5l.3.4s-.6.6-1.6.6c-1.3 0-2.2-.9-2.2-2.2 0-1.3.9-2.2 2-2.2zm1.2 1.8c0-.9-.6-1.3-1.2-1.3-.7 0-1.3.4-1.4 1.3h2.6zM436.1 261.2h.6v.6h-.6v-.6z"/></svg>