<?xml version="1.0" encoding="utf-8"?>
<!-- Generator: Adobe Illustrator 22.0.0, SVG Export Plug-In . SVG Version: 6.00 Build 0)  -->
<svg version="1.1" baseProfile="basic" id="Livello_1"
	 xmlns="http://www.w3.org/2000/svg" xmlns:xlink="http://www.w3.org/1999/xlink" x="0px" y="0px" viewBox="0 0 910 1250"
	 xml:space="preserve">
<style type="text/css">
	.st0{fill:none;stroke:#00295A;stroke-miterlimit:10;}
	.st1{fill:#4E5594;}
	.st2{fill:#00295A;}
	.st3{fill:none;stroke:#F3352F;stroke-width:3;stroke-linecap:round;stroke-miterlimit:10;stroke-dasharray:0,9.3824;}
	.st4{fill:none;stroke:#00295A;stroke-width:3;stroke-linecap:round;stroke-miterlimit:10;stroke-dasharray:0,9;}
	.st5{fill:#FF322B;}
	.st6{fill:#FFFFFF;}
</style>
<g>
	<path class="st0" d="M905.5,40h-92.7h-2.3c-1.6,0-2.9,1.3-2.9,2.9v30c0,2,1.6,3.6,3.6,3.6h9.6c2.2,0,3.4,2.5,2.1,4.2l-27.4,34.7
		c-1,1.3-3.1,1.3-4.1,0L764,80.7c-1.3-1.7-0.1-4.2,2.1-4.2h9.6c2,0,3.6-1.6,3.6-3.6v-30c0-1.6-1.3-2.9-2.9-2.9h-0.9H144.4h0.4
		c-1.6,0-2.9,1.3-2.9,2.9v30c0,2,1.6,3.6,3.6,3.6h9.6c2.2,0,3.4,2.5,2.1,4.2l-27.4,34.7c-1,1.3-3.1,1.3-4.1,0L98.3,80.7
		c-1.3-1.7-0.1-4.2,2.1-4.2h9.6c2,0,3.6-1.6,3.6-3.6v-30c0-1.6-1.3-2.9-2.9-2.9h-0.2H6.3"/>
	<g>
		<g>
			<path class="st1" d="M453.1,892.7c91.6,0,165.8,74.2,165.8,165.8s-74.2,165.8-165.8,165.8s-165.8-74.2-165.8-165.8
				C287.3,966.9,361.6,892.7,453.1,892.7z"/>
			<path class="st2" d="M453.1,546.8c91.6,0,165.8,74.2,165.8,165.8s-74.2,165.8-165.8,165.8s-165.8-74.2-165.8-165.8
				S361.6,546.8,453.1,546.8z"/>
			<path class="st1" d="M453.1,200.8c91.6,0,165.8,74.2,165.8,165.8s-74.2,165.8-165.8,165.8s-165.8-74.2-165.8-165.8
				C287.3,275.1,361.6,200.8,453.1,200.8z"/>
		</g>
		<g>
			<g>
				<line class="st3" x1="121.9" y1="206.5" x2="121.9" y2="243.9"/>
				<line class="st3" x1="121.9" y1="489.9" x2="121.9" y2="589.2"/>
				<line class="st3" x1="121.9" y1="836.6" x2="121.9" y2="936"/>
				<circle class="st4" cx="123.3" cy="366.6" r="119"/>
				<circle class="st4" cx="123.3" cy="712.5" r="119"/>
				<circle class="st4" cx="123.3" cy="1058.5" r="119"/>
			</g>
			<g>
				<line class="st3" x1="787.2" y1="206.5" x2="787.2" y2="243.9"/>
				<line class="st3" x1="787.2" y1="489.9" x2="787.2" y2="589.2"/>
				<line class="st3" x1="787.2" y1="836.6" x2="787.2" y2="936"/>
				<circle class="st4" cx="788.6" cy="366.6" r="119"/>
				<circle class="st4" cx="788.6" cy="712.5" r="119"/>
				<circle class="st4" cx="788.6" cy="1058.5" r="119"/>
			</g>
		</g>
	</g>
	<path class="st5" d="M755.3,137.1c0-4.5-3.3-7.9-8.6-7.9c-4.2,0-7.5,2.1-7.5,4.5v2h-3.9v-3.1c0-5.3,7.2-7.3,11.5-7.3
		c8,0,12.8,5.3,12.8,11.8c0,14.7-22.2,14.4-22.2,26c0,0.8,0.5,1.2,1.4,1.2h17.5c0.8,0,1.3-0.4,1.3-1.3v-2.8h3.9v4.2
		c0,2.6-1.1,3.6-3.6,3.6h-21c-2.9,0-3.8-1.2-3.8-4.1C733.1,148.2,755.3,149.5,755.3,137.1z"/>
	<path class="st5" d="M767.5,146.9c0-12.1,3.5-21.7,14.4-21.7s14.5,9.6,14.5,21.7c0,12.2-3.6,21.7-14.5,21.7
		C771,168.7,767.5,159.1,767.5,146.9z M792.1,146.9c0-10-2.3-17.8-10.2-17.8s-10.2,7.8-10.2,17.8s2.3,17.8,10.2,17.8
		C789.8,164.8,792.1,157,792.1,146.9z"/>
	<path class="st5" d="M802.8,164.2h9.4v-30.8c0-1.2,0.1-2.3,0.1-2.3h-0.1c0,0-0.4,0.9-2.1,2.5l-4.5,4.5l-2.6-2.7l9.5-9.4h3.9v38.3
		h9.2v3.7h-22.7v-3.8L802.8,164.2L802.8,164.2z"/>
	<path class="st5" d="M849.8,133.6c1.2-2.3,2.3-3.9,2.3-3.9v-0.1c0,0-1.1,0.1-3.2,0.1h-15.1c-0.8,0-1.3,0.4-1.3,1.3v2.8h-3.9v-4.2
		c0-2.6,1-3.6,3.6-3.6H857v2.9L836.2,168h-4.7L849.8,133.6z"/>
	<path class="st2" d="M749.6,196.1h0.9c0.3,0,0.5-0.2,0.5-0.5l1.2-14.8h1.7l4.4,9.8c0.4,0.9,0.8,2,0.8,2l0,0c0,0,0.4-1.1,0.8-2
		l4.4-9.8h1.7l1.2,14.8c0,0.4,0.2,0.5,0.5,0.5h0.9v1.5H767c-1,0-1.4-0.4-1.5-1.5l-0.8-10.2c-0.1-0.9-0.1-2.3-0.1-2.3l0,0
		c0,0-0.5,1.5-0.9,2.3l-4,8.5h-1.5l-4-8.5c-0.4-0.8-0.9-2.4-0.9-2.4l0,0c0,0,0,1.5-0.1,2.4l-0.8,10.2c-0.1,1-0.4,1.5-1.5,1.5h-1.6
		v-1.5H749.6z"/>
	<path class="st2" d="M771.4,187.5c0-0.3-0.2-0.5-0.5-0.5h-1v-1.4h1.7c1,0,1.5,0.4,1.5,1.5v8.6c0,0.4,0.2,0.5,0.5,0.5h1v1.4h-1.7
		c-1,0-1.5-0.4-1.5-1.5V187.5z M771.4,180.8h1.6v2.1h-1.6V180.8z"/>
	<path class="st2" d="M777.3,187.5c0-0.3-0.2-0.5-0.5-0.5h-1v-1.4h1.7c1,0,1.5,0.4,1.5,1.3v0.5c0,0.5,0,0.9,0,0.9l0,0
		c0.4-1.1,2-3,4.8-3c3,0,4,1.7,4,4.7v5.7c0,0.4,0.2,0.5,0.5,0.5h1v1.4h-1.7c-1,0-1.5-0.4-1.5-1.5v-5.8c0-1.9-0.3-3.6-2.6-3.6
		c-2.1,0-3.8,1.4-4.4,3.4c-0.1,0.5-0.2,1-0.2,1.6v5.8h-1.6V187.5z"/>
	<path class="st2" d="M802.6,185.3c2.9,0,3.9,2.2,3.9,2.2l0,0c0,0,0-0.4,0-0.9v-3.9c0-0.3-0.2-0.5-0.5-0.5h-1v-1.4h1.7
		c1,0,1.5,0.4,1.5,1.5v13.4c0,0.4,0.2,0.5,0.5,0.5h1v1.4H808c-1,0-1.4-0.5-1.4-1.3c0-0.5,0-0.8,0-0.8l0,0c0,0-1,2.4-4.1,2.4
		c-3.2,0-5.2-2.6-5.2-6.3C797.2,187.8,799.5,185.3,802.6,185.3z M806.6,191.6c0-2.4-1.2-4.8-3.8-4.8c-2.1,0-3.9,1.8-3.9,4.8
		s1.6,4.8,3.8,4.8C804.7,196.4,806.6,195,806.6,191.6z"/>
	<path class="st2" d="M812.5,187.5c0-0.3-0.2-0.5-0.5-0.5h-1v-1.4h1.7c1,0,1.5,0.4,1.5,1.5v8.6c0,0.4,0.2,0.5,0.5,0.5h1v1.4H814
		c-1,0-1.5-0.4-1.5-1.5V187.5z M812.4,180.8h1.6v2.1h-1.6V180.8z"/>
	<path class="st2" d="M823.7,190h1.4c0,0,0-0.4,0-0.8c0-0.5,0-1.1,0-1.1h-1.4v-1.2h1.6c0.9-3.7,4.1-6.3,8-6.3c1.3,0,2.2,0.3,2.2,0.3
		l-0.4,1.6c0,0-0.9-0.3-1.8-0.3c-3.1,0-5.4,1.9-6.2,4.8h7.2l-0.2,1.2h-7.3c0,0-0.1,0.5-0.1,1c0,0.3,0,0.9,0,0.9h6.9l-0.2,1.2H827
		c0.7,3,3.1,5.1,6.3,5.1c1.2,0,2.1-0.3,2.1-0.3l0.4,1.5c0,0-1.1,0.4-2.6,0.4c-4.1,0-7.2-2.7-8.1-6.6h-1.5L823.7,190L823.7,190z"/>
	<path class="st5" d="M81.9,135.9c0-4.4-3.2-7.8-8.5-7.8c-4.1,0-7.4,2.1-7.4,4.5v1.9h-3.9v-3.1c0-5.2,7.1-7.3,11.4-7.3
		c7.9,0,12.6,5.2,12.6,11.6c0,14.6-21.9,14.2-21.9,25.7c0,0.8,0.5,1.2,1.4,1.2h17.3c0.8,0,1.3-0.4,1.3-1.3v-2.8H88v4.1
		c0,2.5-1.1,3.6-3.6,3.6H63.7c-2.8,0-3.7-1.2-3.7-4.1C59.9,146.9,81.9,148.1,81.9,135.9z"/>
	<path class="st5" d="M93.9,145.6c0-11.9,3.5-21.4,14.3-21.4s14.3,9.5,14.3,21.4c0,12-3.5,21.5-14.3,21.5S93.9,157.6,93.9,145.6z
		 M118.2,145.6c0-9.8-2.2-17.6-10.1-17.6c-7.8,0-10.1,7.7-10.1,17.6s2.2,17.6,10.1,17.6S118.2,155.5,118.2,145.6z"/>
	<path class="st5" d="M128.8,162.7h9.3v-30.4c0-1.2,0.1-2.3,0.1-2.3H138c0,0-0.4,0.9-2.1,2.5l-4.4,4.4l-2.6-2.7l9.4-9.3h3.9v37.8
		h9.1v3.7h-22.5L128.8,162.7L128.8,162.7z"/>
	<path class="st5" d="M154.9,148.1c0-10.6,5.4-23.9,18.2-23.9c4.5,0,7.6,1.7,7.6,1.7l-1.5,3.6c0,0-2.6-1.5-6-1.5
		c-8.7,0-13.1,8.7-13.9,17h0.1c1.9-3.2,6.2-5,10.6-5c7.5,0,12.9,5.4,12.9,13.1c0,8.6-5.8,13.9-13,13.9
		C160.9,167.1,154.9,159,154.9,148.1z M169.9,163.2c5.6,0,8.9-4.2,8.9-10s-3.7-9.5-9.4-9.5c-5.5,0-10,3.7-10,7.1
		C159.4,156.3,163.7,163.2,169.9,163.2z"/>
	<path class="st2" d="M75.6,195.2h0.9c0.3,0,0.5-0.2,0.5-0.5l1.2-14.6h1.7l4.4,9.6c0.4,0.8,0.8,2,0.8,2l0,0c0,0,0.4-1.1,0.8-2
		l4.4-9.6H92l1.2,14.6c0,0.4,0.2,0.5,0.5,0.5h0.9v1.5H93c-1,0-1.4-0.4-1.4-1.4l-0.8-10.1c-0.1-0.9-0.1-2.3-0.1-2.3l0,0
		c0,0-0.4,1.5-0.8,2.3l-3.9,8.4h-1.5l-3.9-8.4c-0.4-0.8-0.9-2.4-0.9-2.4l0,0c0,0,0,1.5-0.1,2.4l-0.8,10.1c-0.1,1-0.4,1.4-1.4,1.4
		h-1.6v-1.5H75.6z"/>
	<path class="st2" d="M97.2,186.7c0-0.3-0.2-0.5-0.5-0.5h-1v-1.4h1.7c1,0,1.4,0.4,1.4,1.4v8.5c0,0.4,0.2,0.5,0.5,0.5h1v1.4h-1.7
		c-1,0-1.4-0.4-1.4-1.4V186.7z M97.1,180.1h1.6v2h-1.6V180.1z"/>
	<path class="st2" d="M103,186.7c0-0.3-0.2-0.5-0.5-0.5h-1v-1.4h1.7c1,0,1.4,0.4,1.4,1.3v0.5c0,0.5,0,0.8,0,0.8l0,0
		c0.4-1.1,1.9-3,4.7-3c2.9,0,4,1.7,4,4.6v5.6c0,0.4,0.2,0.5,0.5,0.5h1v1.4h-1.7c-1,0-1.4-0.4-1.4-1.4v-5.7c0-1.9-0.3-3.5-2.6-3.5
		c-2,0-3.8,1.4-4.3,3.3c-0.1,0.5-0.2,1-0.2,1.6v5.7H103V186.7z"/>
	<path class="st2" d="M128,184.5c2.9,0,3.9,2.2,3.9,2.2l0,0c0,0,0-0.4,0-0.9V182c0-0.3-0.2-0.5-0.5-0.5h-1v-1.4h1.7
		c1,0,1.4,0.4,1.4,1.4v13.2c0,0.4,0.2,0.5,0.5,0.5h1v1.4h-1.7c-1,0-1.4-0.4-1.4-1.3c0-0.4,0-0.8,0-0.8l0,0c0,0-1,2.4-4.1,2.4
		c-3.2,0-5.2-2.5-5.2-6.2C122.7,187,124.9,184.5,128,184.5z M131.9,190.7c0-2.4-1.2-4.8-3.8-4.8c-2.1,0-3.8,1.8-3.8,4.8
		c0,2.9,1.5,4.8,3.7,4.8C130,195.5,131.9,194.1,131.9,190.7z"/>
	<path class="st2" d="M137.7,186.7c0-0.3-0.2-0.5-0.5-0.5h-1v-1.4h1.7c1,0,1.4,0.4,1.4,1.4v8.5c0,0.4,0.2,0.5,0.5,0.5h1v1.4h-1.7
		c-1,0-1.4-0.4-1.4-1.4V186.7z M137.7,180.1h1.6v2h-1.6V180.1z"/>
	<path class="st2" d="M148.8,189.2h1.3c0,0,0-0.4,0-0.8s0-1.1,0-1.1h-1.3v-1.2h1.6c0.9-3.7,4-6.3,7.9-6.3c1.2,0,2.2,0.3,2.2,0.3
		l-0.4,1.5c0,0-0.8-0.3-1.8-0.3c-3,0-5.3,1.9-6.1,4.7h7.1l-0.2,1.2h-7.2c0,0-0.1,0.5-0.1,1c0,0.3,0,0.9,0,0.9h6.9l-0.2,1.2h-6.4
		c0.7,2.9,3.1,5,6.2,5c1.2,0,2.1-0.3,2.1-0.3l0.4,1.5c0,0-1.1,0.4-2.5,0.4c-4,0-7.1-2.7-8-6.6h-1.5V189.2z"/>
	<g>
		<path class="st1" d="M46.5,379.6c0,0,2.2,1.2,5,1.2c7.2,0,10.9-7.3,11.5-14.2h-0.1c-1.6,2.7-5.2,4.2-8.8,4.2
			c-6.3,0-10.7-4.5-10.7-10.9c0-7.2,4.8-11.5,10.8-11.5c7.5,0,12.5,6.7,12.5,15.7c0,8.8-4.5,19.9-15.2,19.9c-3.8,0-6.3-1.4-6.3-1.4
			L46.5,379.6z M63,361.9c0-4.6-3.6-10.4-8.7-10.4c-4.7,0-7.4,3.5-7.4,8.3s3.1,7.9,7.8,7.9C59.3,367.8,63,364.7,63,361.9z"/>
		<path class="st1" d="M71.9,380.4h7.7v-25.3c0-1,0-1.9,0-1.9h-0.1c0,0-0.3,0.7-1.7,2.1l-3.7,3.7l-2.2-2.2l7.8-7.8h3.2v31.4h7.6v3
			H71.8L71.9,380.4L71.9,380.4L71.9,380.4z"/>
		<path class="st1" d="M95.3,380.4h7.7v-25.3c0-1,0-1.9,0-1.9h-0.1c0,0-0.3,0.7-1.7,2.1l-3.7,3.7l-2.2-2.2l7.8-7.8h3.2v31.4h7.6v3
			H95.2v-3L95.3,380.4L95.3,380.4z"/>
		<path class="st1" d="M118.9,379.5h3.8v3.9h-3.8V379.5z"/>
		<path class="st1" d="M129.4,376.6c0,0,3.5,4.1,9,4.1c4.1,0,7.8-3,7.8-7.5c0-4.7-4-7.3-8.4-7.3h-2.4l-0.8-2l8.5-10.2
			c0.8-1.1,1.8-1.9,1.8-1.9v-0.1c0,0-1,0.1-2.8,0.1h-9c-0.7,0-1.1,0.3-1.1,1.1v2.3h-3.2v-3.4c0-2.1,0.8-3,2.9-3h17.5v2.3L139,363
			c4.3,0.2,10.6,2.7,10.6,10.2c0,5.8-4.9,10.7-11.4,10.7c-6.8,0-11-4.8-11-4.8L129.4,376.6z"/>
		<path class="st1" d="M155.1,380.4h7.7v-25.3c0-1,0-1.9,0-1.9h-0.1c0,0-0.3,0.7-1.7,2.1l-3.7,3.7l-2.2-2.2l7.8-7.8h3.2v31.4h7.6v3
			H155v-3L155.1,380.4L155.1,380.4z"/>
		<path class="st1" d="M195.6,358c0-3.7-2.7-6.5-7.1-6.5c-3.4,0-6.1,1.8-6.1,3.7v1.6h-3.2v-2.6c0-4.4,5.9-6,9.5-6
			c6.6,0,10.5,4.3,10.5,9.7c0,12.1-18.2,11.8-18.2,21.4c0,0.7,0.4,1,1.1,1h14.4c0.7,0,1.1-0.3,1.1-1.1V377h3.2v3.4c0,2.1-0.9,3-3,3
			h-17.3c-2.4,0-3.1-1-3.1-3.4C177.3,367.2,195.6,368.2,195.6,358z"/>
	</g>
	<g>
		<path class="st2" d="M40.3,707.9L40.3,707.9c0-0.1-4.8-2.4-4.8-7.4c0-4.9,3.8-9.2,10.6-9.2c6.7,0,10.8,3.9,10.8,9.4
			c0,5.4-4.7,8.7-4.7,8.7v0.1c3.3,1.7,5.7,4,5.7,8.1c0,5.5-5.1,10.2-11.9,10.2c-6.2,0-12-3.9-12-10.5
			C34,711.1,40.3,707.9,40.3,707.9z M46,724.5c4.2,0,8.2-2.9,8.2-7c0-3.7-3-5.1-6.7-6.6c-1.3-0.6-3.7-1.4-4.1-1.4
			c-1.4,0-5.8,3.2-5.8,7.6C37.6,721.7,41.7,724.5,46,724.5z M48.9,707.9c1.3,0,4.5-3.5,4.5-7.1c0-3.8-3-6.2-7.3-6.2
			c-4.5,0-7.1,2.7-7.1,6c0,3.7,3.1,5.1,6.8,6.4C46.6,707.3,48.3,707.9,48.9,707.9z"/>
		<path class="st2" d="M68.9,707.9L68.9,707.9c0-0.1-4.8-2.4-4.8-7.4c0-4.9,3.8-9.2,10.6-9.2c6.7,0,10.8,3.9,10.8,9.4
			c0,5.4-4.7,8.7-4.7,8.7v0.1c3.3,1.7,5.7,4,5.7,8.1c0,5.5-5.1,10.2-11.9,10.2c-6.2,0-12-3.9-12-10.5
			C62.6,711.1,68.9,707.9,68.9,707.9z M74.6,724.5c4.2,0,8.2-2.9,8.2-7c0-3.7-3-5.1-6.7-6.6c-1.3-0.6-3.7-1.4-4.1-1.4
			c-1.4,0-5.8,3.2-5.8,7.6C66.3,721.7,70.3,724.5,74.6,724.5z M77.6,707.9c1.3,0,4.5-3.5,4.5-7.1c0-3.8-3-6.2-7.3-6.2
			c-4.5,0-7.1,2.7-7.1,6c0,3.7,3.1,5.1,6.8,6.4C75.2,707.3,76.9,707.9,77.6,707.9z"/>
		<path class="st2" d="M93.8,720.3c0,0,2.7,4.2,8.2,4.2c5,0,8.8-3.6,8.8-8.2c0-4.9-4.1-8.3-9.1-8.3c-4,0-6.8,2-6.8,2l-1.8-0.8
			l1.5-14.2c0.2-2.2,0.9-3.1,3.1-3.1h11.6c2.1,0,3,0.9,3,3.1v3.5H109v-2.4c0-0.8-0.4-1.1-1.1-1.1H99c-0.7,0-1,0.4-1.1,1.1l-0.9,8
			c-0.2,1.3-0.3,2-0.3,2h0.1c0,0,2.2-1.3,5.3-1.3c7.2,0,12.4,5.1,12.4,11.5c0,6.3-5.2,11.5-12.4,11.5c-7,0-10.4-5-10.4-5L93.8,720.3
			z"/>
		<path class="st2" d="M120.3,723.2h3.9v4h-3.9V723.2z"/>
		<path class="st2" d="M132.7,723.3c0,0,2.2,1.3,5.1,1.3c7.4,0,11.2-7.4,11.8-14.6h-0.1c-1.7,2.8-5.3,4.3-9,4.3
			c-6.4,0-10.9-4.6-10.9-11.2c0-7.3,4.9-11.8,11-11.8c7.7,0,12.8,6.9,12.8,16.1c0,9-4.6,20.4-15.5,20.4c-3.9,0-6.5-1.5-6.5-1.5
			L132.7,723.3z M149.6,705.1c0-4.7-3.7-10.6-8.9-10.6c-4.8,0-7.6,3.6-7.6,8.5s3.2,8.1,8,8.1C145.8,711.2,149.6,708,149.6,705.1z"/>
		<path class="st2" d="M160.4,720.3c0,0,2.7,4.2,8.2,4.2c5,0,8.8-3.6,8.8-8.2c0-4.9-4.1-8.3-9.1-8.3c-4,0-6.8,2-6.8,2l-1.8-0.8
			l1.5-14.2c0.2-2.2,0.9-3.1,3.1-3.1h11.6c2.1,0,3,0.9,3,3.1v3.5h-3.3v-2.4c0-0.8-0.4-1.1-1.1-1.1h-8.9c-0.7,0-1,0.4-1.1,1.1l-0.9,8
			c-0.2,1.3-0.3,2-0.3,2h0.1c0,0,2.2-1.3,5.3-1.3c7.2,0,12.4,5.1,12.4,11.5c0,6.3-5.2,11.5-12.4,11.5c-7,0-10.4-5-10.4-5
			L160.4,720.3z"/>
		<path class="st2" d="M189.2,723.3c0,0,2.2,1.3,5.1,1.3c7.4,0,11.2-7.4,11.8-14.6H206c-1.7,2.8-5.3,4.3-9,4.3
			c-6.4,0-10.9-4.6-10.9-11.2c0-7.3,4.9-11.8,11-11.8c7.7,0,12.8,6.9,12.8,16.1c0,9-4.6,20.4-15.5,20.4c-3.9,0-6.5-1.5-6.5-1.5
			L189.2,723.3z M206.1,705.1c0-4.7-3.7-10.6-8.9-10.6c-4.8,0-7.6,3.6-7.6,8.5s3.2,8.1,8,8.1C202.3,711.2,206.1,708,206.1,705.1z"/>
	</g>
	<g>
		<path class="st1" d="M69.5,1047.9c0-3.7-2.7-6.5-7.1-6.5c-3.4,0-6.1,1.8-6.1,3.7v1.6h-3.2v-2.5c0-4.4,5.9-6,9.5-6
			c6.6,0,10.5,4.3,10.5,9.6c0,12.1-18.2,11.8-18.2,21.4c0,0.7,0.4,1,1.1,1h14.4c0.7,0,1.1-0.3,1.1-1.1v-2.3h3.2v3.4c0,2.1-0.9,3-3,3
			H54.5c-2.3,0-3.1-1-3.1-3.4C51.3,1057.1,69.5,1058.1,69.5,1047.9z"/>
		<path class="st1" d="M81.7,1066.5c0,0,2.6,4.1,8,4.1c4.9,0,8.6-3.5,8.6-8c0-4.7-4-8.1-8.9-8.1c-3.9,0-6.6,1.9-6.6,1.9l-1.8-0.7
			l1.5-13.9c0.2-2.1,0.9-3,3-3h11.3c2.1,0,2.9,0.9,2.9,3v3.4h-3.2v-2.3c0-0.7-0.4-1.1-1.1-1.1h-8.7c-0.7,0-1,0.3-1.1,1.1l-0.9,7.8
			c-0.1,1.2-0.3,2-0.3,2h0.1c0,0,2.2-1.3,5.2-1.3c7,0,12,5,12,11.2c0,6.1-5.1,11.2-12.1,11.2c-6.9,0-10.1-4.9-10.1-4.9L81.7,1066.5z
			"/>
		<path class="st1" d="M107.5,1069.3h3.8v3.9h-3.8V1069.3z"/>
		<path class="st1" d="M118,1066.5c0,0,3.5,4.1,9,4.1c4.1,0,7.8-3,7.8-7.4c0-4.7-4-7.2-8.4-7.2H124l-0.8-2l8.5-10.2
			c0.8-1.1,1.8-1.9,1.8-1.9v-0.1c0,0-1,0.1-2.8,0.1h-9c-0.7,0-1.1,0.3-1.1,1.1v2.3h-3.2v-3.4c0-2.1,0.8-3,2.9-3h17.5v2.3l-10.1,11.9
			c4.3,0.2,10.6,2.7,10.6,10.1c0,5.8-4.8,10.7-11.4,10.7c-6.8,0-11-4.8-11-4.8L118,1066.5z"/>
		<path class="st1" d="M145.3,1066.5c0,0,2.6,4.1,8,4.1c4.9,0,8.6-3.5,8.6-8c0-4.7-4-8.1-8.9-8.1c-3.9,0-6.6,1.9-6.6,1.9l-1.8-0.7
			l1.5-13.9c0.2-2.1,0.9-3,3-3h11.3c2.1,0,2.9,0.9,2.9,3v3.4h-3.2v-2.3c0-0.7-0.4-1.1-1.1-1.1h-8.7c-0.7,0-1,0.3-1.1,1.1l-0.9,7.8
			c-0.1,1.2-0.3,2-0.3,2h0.1c0,0,2.2-1.3,5.2-1.3c7,0,12,5,12,11.2c0,6.1-5.1,11.2-12.1,11.2c-6.9,0-10.1-4.9-10.1-4.9L145.3,1066.5
			z"/>
		<path class="st1" d="M171.3,1066.5c0,0,3.5,4.1,9,4.1c4.1,0,7.8-3,7.8-7.4c0-4.7-4-7.2-8.4-7.2h-2.4l-0.8-2l8.5-10.2
			c0.8-1.1,1.8-1.9,1.8-1.9v-0.1c0,0-1,0.1-2.8,0.1h-9c-0.7,0-1.1,0.3-1.1,1.1v2.3h-3.2v-3.4c0-2.1,0.8-3,2.9-3h17.5v2.3L181,1053
			c4.3,0.2,10.6,2.7,10.6,10.1c0,5.8-4.8,10.7-11.4,10.7c-6.8,0-11-4.8-11-4.8L171.3,1066.5z"/>
	</g>
	<g>
		<path class="st1" d="M710.2,379.6c0,0,2.1,1.2,4.9,1.2c7.1,0,10.8-7.2,11.4-14.1h-0.1c-1.6,2.7-5.1,4.2-8.7,4.2
			c-6.2,0-10.6-4.5-10.6-10.8c0-7.1,4.7-11.4,10.7-11.4c7.4,0,12.3,6.6,12.3,15.6c0,8.7-4.4,19.7-15,19.7c-3.7,0-6.3-1.4-6.3-1.4
			L710.2,379.6z M726.6,362.1c0-4.5-3.5-10.2-8.6-10.2c-4.6,0-7.3,3.5-7.3,8.2c0,4.8,3.1,7.9,7.7,7.9
			C722.9,367.9,726.6,364.9,726.6,362.1z"/>
		<path class="st1" d="M735.3,380.4h7.6v-25c0-1,0-1.9,0-1.9h-0.1c0,0-0.3,0.7-1.7,2l-3.6,3.6l-2.1-2.2l7.7-7.7h3.2v31.1h7.5v3
			h-18.5L735.3,380.4L735.3,380.4z"/>
		<path class="st1" d="M759.9,379.6c0,0,2.1,1.2,4.9,1.2c7.1,0,10.8-7.2,11.4-14.1h-0.1c-1.6,2.7-5.1,4.2-8.7,4.2
			c-6.2,0-10.6-4.5-10.6-10.8c0-7.1,4.7-11.4,10.7-11.4c7.4,0,12.3,6.6,12.3,15.6c0,8.7-4.4,19.7-15,19.7c-3.7,0-6.3-1.4-6.3-1.4
			L759.9,379.6z M776.2,362.1c0-4.5-3.5-10.2-8.6-10.2c-4.6,0-7.3,3.5-7.3,8.2c0,4.8,3.1,7.9,7.7,7.9
			C772.6,367.9,776.2,364.9,776.2,362.1z"/>
		<path class="st1" d="M783.4,379.5h3.7v3.9h-3.7V379.5z"/>
		<path class="st1" d="M810.5,358.3c0-3.6-2.7-6.4-7-6.4c-3.4,0-6.1,1.7-6.1,3.7v1.6h-3.2v-2.5c0-4.3,5.9-6,9.4-6
			c6.5,0,10.4,4.3,10.4,9.6c0,12-18,11.7-18,21.1c0,0.7,0.4,1,1.1,1h14.3c0.7,0,1.1-0.3,1.1-1.1V377h3.2v3.4c0,2.1-0.9,3-3,3h-17.1
			c-2.3,0-3.1-1-3.1-3.3C792.5,367.4,810.5,368.4,810.5,358.3z"/>
		<path class="st1" d="M822,379.6c0,0,2.1,1.2,4.9,1.2c7.1,0,10.8-7.2,11.4-14.1h-0.1c-1.6,2.7-5.1,4.2-8.7,4.2
			c-6.2,0-10.6-4.5-10.6-10.8c0-7.1,4.7-11.4,10.7-11.4c7.4,0,12.3,6.6,12.3,15.6c0,8.7-4.4,19.7-15,19.7c-3.7,0-6.3-1.4-6.3-1.4
			L822,379.6z M838.4,362.1c0-4.5-3.5-10.2-8.6-10.2c-4.6,0-7.3,3.5-7.3,8.2c0,4.8,3.1,7.9,7.7,7.9
			C834.7,367.9,838.4,364.9,838.4,362.1z"/>
		<path class="st1" d="M848.9,376.8c0,0,2.6,4,7.9,4c4.8,0,8.5-3.4,8.5-8c0-4.7-3.9-8-8.8-8c-3.8,0-6.5,1.9-6.5,1.9l-1.7-0.7
			l1.5-13.7c0.2-2.1,0.9-3,3-3H864c2,0,2.9,0.9,2.9,3v3.4h-3.2v-2.3c0-0.7-0.4-1.1-1.1-1.1H854c-0.7,0-1,0.3-1.1,1.1l-0.9,7.7
			c-0.1,1.2-0.3,1.9-0.3,1.9h0.1c0,0,2.1-1.3,5.1-1.3c6.9,0,11.9,4.9,11.9,11.1c0,6.1-5,11.1-12,11.1c-6.8,0-10-4.9-10-4.9
			L848.9,376.8z"/>
	</g>
	<g>
		<path class="st2" d="M702,723.6c0,0,2.2,1.2,5.1,1.2c7.3,0,11.1-7.4,11.7-14.4h-0.1c-1.6,2.7-5.3,4.3-8.9,4.3
			c-6.4,0-10.8-4.6-10.8-11.1c0-7.3,4.8-11.7,10.9-11.7c7.6,0,12.6,6.8,12.6,16c0,8.9-4.5,20.2-15.4,20.2c-3.8,0-6.4-1.4-6.4-1.4
			L702,723.6z M718.8,705.7c0-4.6-3.6-10.5-8.9-10.5c-4.7,0-7.5,3.6-7.5,8.4c0,4.9,3.1,8.1,7.9,8.1
			C715,711.6,718.8,708.5,718.8,705.7z"/>
		<path class="st2" d="M727.3,710c0-10,2.9-18.1,12-18.1s12.1,8,12.1,18.1s-3,18.1-12.1,18.1C730.3,728.1,727.3,720.1,727.3,710z
			 M747.9,710c0-8.3-1.9-14.8-8.5-14.8s-8.5,6.5-8.5,14.8c0,8.4,1.9,14.9,8.5,14.9S747.9,718.4,747.9,710z"/>
		<path class="st2" d="M774.4,701.8c0-3.7-2.7-6.6-7.2-6.6c-3.5,0-6.2,1.8-6.2,3.8v1.6h-3.3V698c0-4.4,6-6.1,9.6-6.1
			c6.7,0,10.6,4.4,10.6,9.8c0,12.3-18.5,12-18.5,21.7c0,0.7,0.4,1,1.1,1h14.6c0.7,0,1.1-0.3,1.1-1.1V721h3.2v3.5c0,2.1-0.9,3-3,3
			H759c-2.4,0-3.1-1-3.1-3.4C755.9,711.1,774.4,712.1,774.4,701.8z"/>
		<path class="st2" d="M785.3,723.5h3.8v4h-3.8V723.5z"/>
		<path class="st2" d="M794.5,710c0-10,2.9-18.1,12-18.1s12.1,8,12.1,18.1s-3,18.1-12.1,18.1S794.5,720.1,794.5,710z M815,710
			c0-8.3-1.9-14.8-8.5-14.8s-8.5,6.5-8.5,14.8c0,8.4,1.9,14.9,8.5,14.9S815,718.4,815,710z"/>
		<path class="st2" d="M824.4,710c0-10,2.9-18.1,12-18.1s12.1,8,12.1,18.1s-3,18.1-12.1,18.1S824.4,720.1,824.4,710z M844.9,710
			c0-8.3-1.9-14.8-8.5-14.8s-8.5,6.5-8.5,14.8c0,8.4,1.9,14.9,8.5,14.9S844.9,718.4,844.9,710z"/>
		<path class="st2" d="M859.4,708.4L859.4,708.4c0-0.1-4.8-2.3-4.8-7.3c0-4.8,3.8-9.1,10.5-9.1c6.6,0,10.7,3.9,10.7,9.3
			c0,5.3-4.7,8.7-4.7,8.7v0.1c3.3,1.7,5.6,3.9,5.6,8c0,5.5-5.1,10.1-11.7,10.1c-6.2,0-11.9-3.8-11.9-10.4
			C853.2,711.5,859.4,708.4,859.4,708.4z M865.1,724.9c4.1,0,8.2-2.8,8.2-6.9c0-3.6-3-5.1-6.7-6.6c-1.3-0.5-3.7-1.4-4.1-1.4
			c-1.3,0-5.7,3.2-5.7,7.5C856.8,722.1,860.8,724.9,865.1,724.9z M868,708.4c1.2,0,4.4-3.4,4.4-7.1c0-3.8-3-6.2-7.2-6.2
			c-4.4,0-7.1,2.6-7.1,5.9c0,3.7,3.1,5,6.7,6.4C865.6,707.8,867.3,708.4,868,708.4z"/>
	</g>
	<g>
		<path class="st1" d="M726.1,1069.7h7.6v-24.9c0-1,0-1.9,0-1.9h-0.1c0,0-0.3,0.7-1.7,2l-3.6,3.6l-2.1-2.2l7.7-7.6h3.2v30.9h7.4v3
			h-18.4L726.1,1069.7L726.1,1069.7z"/>
		<path class="st1" d="M764,1044.9c1-1.8,1.9-3.1,1.9-3.1v-0.1c0,0-0.9,0.1-2.6,0.1h-12.2c-0.7,0-1.1,0.3-1.1,1.1v2.3h-3.2v-3.4
			c0-2.1,0.8-2.9,2.9-2.9h20v2.3l-16.8,31.5h-3.8L764,1044.9z"/>
		<path class="st1" d="M767.7,1068.8h3.7v3.9h-3.7V1068.8z"/>
		<path class="st1" d="M794.7,1047.8c0-3.6-2.6-6.4-6.9-6.4c-3.4,0-6,1.7-6,3.7v1.6h-3.2v-2.5c0-4.3,5.8-5.9,9.3-5.9
			c6.5,0,10.3,4.2,10.3,9.5c0,11.9-17.9,11.6-17.9,21c0,0.7,0.4,1,1.1,1h14.2c0.7,0,1.1-0.3,1.1-1.1v-2.3h3.1v3.4
			c0,2.1-0.9,2.9-2.9,2.9h-17c-2.3,0-3-1-3-3.3C776.8,1056.8,794.7,1057.8,794.7,1047.8z"/>
		<path class="st1" d="M810.2,1054.2L810.2,1054.2c0-0.1-4.6-2.3-4.6-7.1c0-4.7,3.7-8.9,10.2-8.9c6.4,0,10.4,3.8,10.4,9
			s-4.5,8.4-4.5,8.4v0.1c3.2,1.6,5.4,3.8,5.4,7.8c0,5.3-4.9,9.8-11.4,9.8c-6,0-11.5-3.7-11.5-10.1
			C804.2,1057.2,810.2,1054.2,810.2,1054.2z M815.7,1070.1c4,0,7.9-2.7,7.9-6.7c0-3.5-2.9-4.9-6.5-6.4c-1.3-0.5-3.6-1.3-3.9-1.3
			c-1.3,0-5.5,3.1-5.5,7.3C807.6,1067.4,811.5,1070.1,815.7,1070.1z M818.5,1054.2c1.2,0,4.3-3.3,4.3-6.8c0-3.7-2.9-6-7-6
			c-4.3,0-6.8,2.6-6.8,5.7c0,3.6,3,4.9,6.5,6.2C816.2,1053.6,817.8,1054.2,818.5,1054.2z"/>
		<path class="st1" d="M847.3,1044.9c1-1.8,1.9-3.1,1.9-3.1v-0.1c0,0-0.9,0.1-2.6,0.1h-12.2c-0.7,0-1.1,0.3-1.1,1.1v2.3h-3.2v-3.4
			c0-2.1,0.8-2.9,2.9-2.9h20v2.3l-16.8,31.5h-3.8L847.3,1044.9z"/>
	</g>
	<g>
		<path class="st6" d="M396.8,304.7c-0.2-0.6-0.6-0.7-1.2-0.7h-0.3v-2h1c1.6,0,2.1,0.3,2.7,1.9l5.6,15.4c0.4,1.2,0.9,3,0.9,3h0.1
			c0,0,0.5-1.8,0.9-3l5.6-15.4c0.6-1.6,1.1-1.9,2.7-1.9h1v2h-0.3c-0.6,0-0.9,0.1-1.2,0.7l-7.5,20.2h-2.4L396.8,304.7z"/>
		<path class="st6" d="M415.5,322.8h0.4c0.6,0,0.9-0.1,1.2-0.7l7.5-20.2h2.4l7.5,20.2c0.2,0.6,0.6,0.7,1.2,0.7h0.4v2h-1
			c-1.6,0-2.1-0.3-2.7-1.9l-2-5.4h-9.1l-2,5.4c-0.6,1.6-1,1.9-2.7,1.9h-1.1L415.5,322.8L415.5,322.8z M429.7,315.6l-3-8.2
			c-0.4-1.1-0.9-3-0.9-3h-0.1c0,0-0.5,1.9-0.9,3l-3,8.2H429.7z"/>
		<path class="st6" d="M440,304.7c0-0.5-0.3-0.7-0.7-0.7h-1.4v-2h2.4c1.4,0,2,0.6,2,2v18.2c0,0.5,0.3,0.7,0.7,0.7h7.6
			c0.5,0,0.7-0.2,0.7-0.7v-1.5h2.2v2.3c0,1.4-0.6,2-2,2H442c-1.4,0-2-0.6-2-2V304.7z"/>
		<path class="st6" d="M466,301.6c6.5,0,11.7,5.1,11.7,11.7c0,6.7-5.2,12-11.7,12s-11.7-5.3-11.7-12
			C454.4,306.7,459.5,301.6,466,301.6z M466,323.1c5.1,0,9.3-4.3,9.3-9.8c0-5.4-4.2-9.5-9.3-9.5s-9.3,4.1-9.3,9.5
			C456.7,318.8,460.9,323.1,466,323.1z"/>
		<path class="st6" d="M482.4,304h-2.1v-2h9.7c3.8,0,6.6,2.5,6.6,6.5c0,3.6-2.2,5.6-4.4,6.1v0.1c0,0,0.5,0.3,0.8,0.9l3.3,6.5
			c0.3,0.7,0.8,0.7,1.6,0.7h0.5v2h-1c-1.9,0-2.4-0.2-3.2-1.7l-3.3-6.5c-0.6-1.2-1-1.4-2.3-1.4h-3.8v9.6h-2.3L482.4,304L482.4,304z
			 M489.8,313.2c2.7,0,4.4-1.8,4.4-4.7c0-2.8-1.7-4.6-4.4-4.6h-5.1v9.2h5.1V313.2z"/>
		<path class="st6" d="M502.1,304H500v-2h13.1c1.4,0,2,0.6,2,2v2.3h-2.2v-1.5c0-0.5-0.3-0.7-0.7-0.7h-7.8v8.3h8.6v2h-8.6v7.8
			c0,0.5,0.3,0.7,0.7,0.7h8c0.5,0,0.7-0.2,0.7-0.7v-1.5h2.1v2.3c0,1.4-0.6,2-2,2H504c-1.4,0-2-0.6-2-2v-19L502.1,304L502.1,304z"/>
		<path class="st6" d="M358.2,339.4h-2.1v-2h13.1c1.4,0,2,0.6,2,2v2.3H369v-1.5c0-0.5-0.3-0.7-0.7-0.7h-7.8v8.3h8.6v2h-8.6v7.8
			c0,0.5,0.3,0.7,0.7,0.7h8c0.5,0,0.7-0.2,0.7-0.7V356h2.1v2.3c0,1.4-0.6,2-2,2h-9.9c-1.4,0-2-0.6-2-2L358.2,339.4L358.2,339.4z"/>
		<path class="st6" d="M385.5,337c3.3,0,8.6,1.4,8.6,4.9v1.9h-2.2v-1.3c0-2.2-3.7-3.3-6.4-3.3c-5.1,0-9,4-9,9.5s3.9,9.9,9.1,9.9
			c4.7,0,7.5-3.2,7.5-3.2l1.3,1.7c0,0-3.2,3.7-8.8,3.7c-6.7,0-11.4-5.3-11.4-12C374.2,342,379,337,385.5,337z"/>
		<path class="st6" d="M408.3,337c6.5,0,11.7,5.1,11.7,11.7c0,6.7-5.2,12-11.7,12s-11.7-5.3-11.7-12
			C396.6,342.1,401.8,337,408.3,337z M408.3,358.5c5.1,0,9.3-4.3,9.3-9.8c0-5.4-4.2-9.5-9.3-9.5s-9.3,4.1-9.3,9.5
			C399,354.2,403.1,358.5,408.3,358.5z"/>
		<path class="st6" d="M422.5,358.2h1.4c0.5,0,0.7-0.2,0.7-0.7v-20.2h2.1l11.7,16.3c0.8,1.1,1.9,3,1.9,3h0.1c0,0-0.2-1.8-0.2-3
			v-14.3c0-1.4,0.6-2,2-2h2.4v2h-1.4c-0.5,0-0.7,0.2-0.7,0.7v20.2h-2.1l-11.7-16.3c-0.8-1.1-1.9-3-1.9-3h-0.1c0,0,0.2,1.8,0.2,3
			v14.3c0,1.4-0.6,2-2,2h-2.4V358.2z"/>
		<path class="st6" d="M458.8,337c6.5,0,11.7,5.1,11.7,11.7c0,6.7-5.2,12-11.7,12s-11.7-5.3-11.7-12
			C447.1,342.1,452.3,337,458.8,337z M458.8,358.5c5.1,0,9.3-4.3,9.3-9.8c0-5.4-4.2-9.5-9.3-9.5s-9.3,4.1-9.3,9.5
			C449.5,354.2,453.7,358.5,458.8,358.5z"/>
		<path class="st6" d="M472.4,358.2h1.2c0.5,0,0.7-0.2,0.7-0.7l1.6-20.2h2.3l6.1,13.3c0.6,1.2,1.1,2.7,1.1,2.7h0.1
			c0,0,0.6-1.5,1.1-2.7l6.1-13.3h2.3l1.6,20.2c0,0.5,0.3,0.7,0.7,0.7h1.2v2h-2.2c-1.4,0-1.9-0.6-2-2l-1.1-13.9
			c-0.1-1.2-0.1-3.2-0.1-3.2H493c0,0-0.6,2-1.2,3.2l-5.4,11.6h-2.1l-5.4-11.6c-0.5-1.1-1.2-3.3-1.2-3.3h-0.1c0,0,0,2-0.1,3.3
			l-1.1,13.9c-0.1,1.4-0.6,2-2,2h-2.2v-2H472.4z"/>
		<path class="st6" d="M500.7,358.2h2.2v-18.9h-2.2v-2h6.5v2H505v18.9h2.2v2h-6.5V358.2z"/>
		<path class="st6" d="M521.3,337c3.3,0,8.6,1.4,8.6,4.9v1.9h-2.2v-1.3c0-2.2-3.7-3.3-6.4-3.3c-5.1,0-9,4-9,9.5s3.9,9.9,9.1,9.9
			c4.7,0,7.5-3.2,7.5-3.2l1.3,1.7c0,0-3.2,3.7-8.8,3.7c-6.7,0-11.4-5.3-11.4-12C510,342,514.9,337,521.3,337z"/>
		<path class="st6" d="M544.1,337c6.5,0,11.7,5.1,11.7,11.7c0,6.7-5.2,12-11.7,12s-11.7-5.3-11.7-12
			C532.5,342.1,537.6,337,544.1,337z M544.1,358.5c5.1,0,9.3-4.3,9.3-9.8c0-5.4-4.2-9.5-9.3-9.5s-9.3,4.1-9.3,9.5
			C534.8,354.2,539,358.5,544.1,358.5z"/>
		<path class="st6" d="M384.2,372.4c5.3,0,8,2.8,8,2.8l-1.3,1.7c0,0-2.5-2.3-6.6-2.3c-5.1,0-9.1,4.1-9.1,9.6c0,5.6,3.9,9.7,9.1,9.7
			c4.5,0,7.2-3.4,7.2-3.4v-2.8c0-0.5-0.3-0.7-0.7-0.7h-1.4v-2h2.3c1.4,0,2,0.6,2,2v8.7h-2.1V394c0-0.5,0-1,0-1h-0.1
			c0,0-2.7,3.1-7.5,3.1c-6.3,0-11.2-5-11.2-11.9C372.8,377.6,377.7,372.4,384.2,372.4z"/>
		<path class="st6" d="M398.6,374.8h-2.1v-2h13.1c1.4,0,2,0.6,2,2v2.3h-2.2v-1.5c0-0.5-0.3-0.7-0.7-0.7h-7.8v8.3h8.6v2h-8.6v7.8
			c0,0.5,0.3,0.7,0.7,0.7h8c0.5,0,0.7-0.2,0.7-0.7v-1.5h2.1v2.3c0,1.4-0.6,2-2,2h-9.9c-1.4,0-2-0.6-2-2L398.6,374.8L398.6,374.8
			L398.6,374.8z"/>
		<path class="st6" d="M414.7,393.7h1.4c0.5,0,0.7-0.2,0.7-0.7v-20.2h2.1l11.7,16.3c0.8,1.1,1.9,3,1.9,3h0.1c0,0-0.2-1.8-0.2-3
			v-14.3c0-1.4,0.6-2,2-2h2.4v2h-1.4c-0.5,0-0.7,0.2-0.7,0.7v20.2h-2.1l-11.7-16.3c-0.8-1.1-1.9-3-1.9-3h-0.1c0,0,0.2,1.8,0.2,3
			v14.3c0,1.4-0.6,2-2,2h-2.4V393.7z"/>
		<path class="st6" d="M441.5,374.8h-2.1v-2h13.1c1.4,0,2,0.6,2,2v2.3h-2.2v-1.5c0-0.5-0.3-0.7-0.7-0.7h-7.8v8.3h8.6v2h-8.6v7.8
			c0,0.5,0.3,0.7,0.7,0.7h8c0.5,0,0.7-0.2,0.7-0.7v-1.5h2.1v2.3c0,1.4-0.6,2-2,2h-9.9c-1.4,0-2-0.6-2-2L441.5,374.8L441.5,374.8
			L441.5,374.8z"/>
		<path class="st6" d="M459.7,374.8h-2.1v-2h9.7c3.8,0,6.6,2.5,6.6,6.5c0,3.6-2.2,5.6-4.4,6.1v0.1c0,0,0.5,0.3,0.8,0.9l3.3,6.5
			c0.3,0.7,0.8,0.7,1.6,0.7h0.5v2h-1c-1.9,0-2.4-0.2-3.2-1.7l-3.3-6.5c-0.6-1.2-1-1.4-2.3-1.4H462v9.6h-2.3V374.8z M467.1,384
			c2.7,0,4.4-1.8,4.4-4.7c0-2.8-1.7-4.6-4.4-4.6H462v9.2L467.1,384L467.1,384z"/>
		<path class="st6" d="M476.7,393.7h0.4c0.6,0,0.9-0.1,1.2-0.7l7.5-20.2h2.4l7.5,20.2c0.2,0.6,0.6,0.7,1.2,0.7h0.4v2h-1
			c-1.6,0-2.1-0.3-2.7-1.9l-2-5.4h-9.1l-2,5.4c-0.6,1.6-1,1.9-2.7,1.9h-1.1L476.7,393.7L476.7,393.7z M490.9,386.4l-3-8.2
			c-0.4-1.1-0.9-3-0.9-3h-0.1c0,0-0.5,1.9-0.9,3l-3,8.2H490.9z"/>
		<path class="st6" d="M503.8,374.8h-5.7c-0.5,0-0.7,0.2-0.7,0.7v1.5h-2.1v-2.4c0-1.4,0.5-1.9,1.9-1.9h15.5c1.4,0,1.9,0.5,1.9,1.9
			v2.4h-2.1v-1.5c0-0.5-0.2-0.7-0.7-0.7h-5.6v20.9h-2.3v-20.9H503.8z"/>
		<path class="st6" d="M527.3,372.4c6.5,0,11.7,5.1,11.7,11.7c0,6.7-5.2,12-11.7,12s-11.7-5.3-11.7-12
			C515.7,377.5,520.8,372.4,527.3,372.4z M527.3,393.9c5.1,0,9.3-4.3,9.3-9.8c0-5.4-4.2-9.5-9.3-9.5s-9.3,4.1-9.3,9.5
			C518.1,389.6,522.2,393.9,527.3,393.9z"/>
		<path class="st6" d="M359.1,410.2H357v-2h9.2c6.9,0,11.5,4.2,11.5,11.4c0,7.3-4.6,11.5-11.5,11.5H361c-1.4,0-2-0.6-2-2
			L359.1,410.2L359.1,410.2z M362,429.1h3.8c5.6,0,9.4-3.3,9.4-9.4s-3.7-9.4-9.4-9.4h-4.6v18.1C361.3,428.9,361.6,429.1,362,429.1z"
			/>
		<path class="st6" d="M378.8,429.1h0.4c0.6,0,0.9-0.1,1.2-0.7l7.5-20.2h2.4l7.5,20.2c0.2,0.6,0.6,0.7,1.2,0.7h0.4v2h-1
			c-1.6,0-2.1-0.3-2.7-1.9l-2-5.4h-9.1l-2,5.4c-0.6,1.6-1,1.9-2.7,1.9h-1.1L378.8,429.1L378.8,429.1z M393.1,421.8l-3-8.2
			c-0.4-1.1-0.9-3-0.9-3h-0.1c0,0-0.5,1.9-0.9,3l-3,8.2H393.1z"/>
		<path class="st6" d="M403.3,410.9c0-0.5-0.3-0.7-0.7-0.7h-1.4v-2h2.4c1.4,0,2,0.6,2,2v18.2c0,0.5,0.3,0.7,0.7,0.7h7.6
			c0.5,0,0.7-0.2,0.7-0.7v-1.5h2.2v2.3c0,1.4-0.6,2-2,2h-9.5c-1.4,0-2-0.6-2-2L403.3,410.9L403.3,410.9z"/>
		<path class="st6" d="M438.7,407.8c5.3,0,8,2.8,8,2.8l-1.3,1.7c0,0-2.5-2.3-6.6-2.3c-5.1,0-9.1,4.1-9.1,9.6c0,5.6,3.9,9.7,9.1,9.7
			c4.5,0,7.2-3.4,7.2-3.4v-2.8c0-0.5-0.3-0.7-0.7-0.7h-1.4v-2h2.3c1.4,0,2,0.6,2,2v8.7H446v-1.7c0-0.5,0-1,0-1l0,0
			c0,0-2.7,3.1-7.5,3.1c-6.3,0-11.2-5-11.2-11.9C427.3,413,432.2,407.8,438.7,407.8z"/>
		<path class="st6" d="M453.1,410.2H451v-2h9.7c3.8,0,6.6,2.5,6.6,6.5c0,3.6-2.2,5.6-4.4,6.1v0.1c0,0,0.5,0.3,0.8,0.9l3.3,6.5
			c0.3,0.7,0.8,0.7,1.6,0.7h0.5v2h-1c-1.9,0-2.4-0.2-3.2-1.7l-3.3-6.5c-0.6-1.2-1-1.4-2.3-1.4h-3.8v9.6h-2.3L453.1,410.2
			L453.1,410.2z M460.4,419.4c2.7,0,4.4-1.8,4.4-4.7c0-2.8-1.7-4.6-4.4-4.6h-5.1v9.2L460.4,419.4L460.4,419.4z"/>
		<path class="st6" d="M472.5,410.9c0-0.5-0.3-0.7-0.7-0.7h-1.4v-2h2.4c1.4,0,2,0.6,2,2v13c0,3.8,2.4,6.2,6.2,6.2
			c3.7,0,6.2-2.4,6.2-6.3v-12.9c0-1.4,0.6-2,2-2h2.4v2h-1.4c-0.5,0-0.7,0.2-0.7,0.7v12.3c0,5-3.4,8.2-8.4,8.2s-8.5-3.3-8.5-8.2
			L472.5,410.9L472.5,410.9z"/>
		<path class="st6" d="M496.1,410.2H494v-2h9.7c4.1,0,7.1,2.7,7.1,6.9c0,4.3-3,7-7.1,7h-5.3v9h-2.3L496.1,410.2L496.1,410.2z
			 M503.4,420.1c3,0,5-1.9,5-5s-2-4.9-5-4.9h-5v9.9H503.4z"/>
		<path class="st6" d="M515,410.2h-2.1v-2h9.7c4.1,0,7.1,2.7,7.1,6.9c0,4.3-3,7-7.1,7h-5.3v9H515V410.2z M522.3,420.1c3,0,5-1.9,5-5
			s-2-4.9-5-4.9h-5v9.9H522.3z"/>
		<path class="st6" d="M543.3,407.8c6.5,0,11.7,5.1,11.7,11.7c0,6.7-5.2,12-11.7,12s-11.7-5.3-11.7-12
			C531.6,412.9,536.8,407.8,543.3,407.8z M543.3,429.3c5.1,0,9.3-4.3,9.3-9.8c0-5.4-4.2-9.5-9.3-9.5s-9.3,4.1-9.3,9.5
			C534,425,538.1,429.3,543.3,429.3z"/>
	</g>
	<g>
		<path class="st6" d="M396.5,648.1c-0.2-0.6-0.6-0.7-1.2-0.7H395v-2h1c1.6,0,2.1,0.3,2.7,1.9l5.7,15.5c0.4,1.2,0.9,3,0.9,3h0.1
			c0,0,0.5-1.8,0.9-3l5.7-15.5c0.6-1.6,1.1-1.9,2.7-1.9h1v2h-0.3c-0.6,0-0.9,0.1-1.2,0.7l-7.6,20.3h-2.5L396.5,648.1z"/>
		<path class="st6" d="M415.3,666.4h0.4c0.6,0,0.9-0.1,1.2-0.7l7.5-20.3h2.5l7.5,20.3c0.2,0.6,0.6,0.7,1.2,0.7h0.4v2h-1
			c-1.6,0-2.1-0.3-2.7-1.9l-2-5.4h-9.1l-2,5.4c-0.6,1.6-1,1.9-2.7,1.9h-1.1L415.3,666.4L415.3,666.4z M429.6,659.1l-3-8.2
			c-0.4-1.1-0.9-3-0.9-3h-0.1c0,0-0.5,1.9-0.9,3l-3,8.2H429.6z"/>
		<path class="st6" d="M439.9,648.1c0-0.5-0.3-0.7-0.7-0.7h-1.4v-2h2.4c1.4,0,2,0.6,2,2v18.3c0,0.5,0.3,0.7,0.7,0.7h7.6
			c0.5,0,0.7-0.2,0.7-0.7v-1.5h2.2v2.3c0,1.4-0.6,2-2,2h-9.5c-1.4,0-2-0.6-2-2L439.9,648.1L439.9,648.1z"/>
		<path class="st6" d="M466.1,645c6.5,0,11.7,5.1,11.7,11.8c0,6.8-5.2,12.1-11.7,12.1c-6.6,0-11.7-5.3-11.7-12.1
			C454.4,650.1,459.5,645,466.1,645z M466.1,666.6c5.1,0,9.3-4.3,9.3-9.9c0-5.4-4.2-9.6-9.3-9.6c-5.2,0-9.3,4.2-9.3,9.6
			C456.7,662.3,460.9,666.6,466.1,666.6z"/>
		<path class="st6" d="M482.5,647.4h-2.1v-2h9.8c3.9,0,6.6,2.6,6.6,6.6c0,3.6-2.2,5.7-4.5,6.2v0.1c0,0,0.5,0.3,0.8,0.9l3.3,6.6
			c0.3,0.7,0.8,0.8,1.6,0.8h0.5v2h-1c-1.9,0-2.4-0.2-3.2-1.7l-3.3-6.6c-0.6-1.2-1-1.4-2.3-1.4h-3.9v9.7h-2.3V647.4L482.5,647.4z
			 M489.9,656.7c2.8,0,4.5-1.8,4.5-4.7s-1.7-4.6-4.4-4.6h-5.1v9.3H489.9z"/>
		<path class="st6" d="M502.4,647.4h-2.1v-2h13.2c1.4,0,2,0.6,2,2v2.3h-2.2v-1.5c0-0.5-0.3-0.7-0.7-0.7h-7.9v8.4h8.7v2h-8.7v7.8
			c0,0.5,0.3,0.7,0.7,0.7h8.1c0.5,0,0.7-0.2,0.7-0.7v-1.5h2.1v2.3c0,1.4-0.6,2-2,2h-10c-1.4,0-2-0.6-2-2v-19.1H502.4z"/>
		<path class="st6" d="M357.7,683h-2.1v-2h13.2c1.4,0,2,0.6,2,2v2.3h-2.2v-1.5c0-0.5-0.3-0.7-0.7-0.7H360v8.4h8.7v2H360v7.8
			c0,0.5,0.3,0.7,0.7,0.7h8.1c0.5,0,0.7-0.2,0.7-0.7v-1.5h2.1v2.3c0,1.4-0.6,2-2,2h-10c-1.4,0-2-0.6-2-2L357.7,683L357.7,683z"/>
		<path class="st6" d="M385.1,680.6c3.3,0,8.6,1.4,8.6,4.9v1.9h-2.2v-1.3c0-2.2-3.7-3.3-6.4-3.3c-5.1,0-9,4-9,9.6
			c0,5.5,3.9,9.9,9.1,9.9c4.8,0,7.5-3.2,7.5-3.2l1.3,1.7c0,0-3.2,3.7-8.9,3.7c-6.8,0-11.5-5.4-11.5-12.1
			C373.7,685.7,378.6,680.6,385.1,680.6z"/>
		<path class="st6" d="M408,680.6c6.5,0,11.7,5.1,11.7,11.8c0,6.8-5.2,12.1-11.7,12.1c-6.6,0-11.7-5.3-11.7-12.1
			C396.3,685.7,401.4,680.6,408,680.6z M408,702.3c5.1,0,9.3-4.3,9.3-9.9c0-5.4-4.2-9.6-9.3-9.6c-5.2,0-9.3,4.2-9.3,9.6
			C398.7,697.9,402.8,702.3,408,702.3z"/>
		<path class="st6" d="M422.3,702h1.4c0.5,0,0.7-0.2,0.7-0.7V681h2.1l11.8,16.4c0.8,1.1,1.9,3,1.9,3h0.1c0,0-0.2-1.8-0.2-3V683
			c0-1.4,0.6-2,2-2h2.4v2h-1.4c-0.5,0-0.7,0.2-0.7,0.7V704h-2.1l-11.8-16.4c-0.8-1.1-1.9-3-1.9-3h-0.1c0,0,0.2,1.8,0.2,3V702
			c0,1.4-0.6,2-2,2h-2.4V702z"/>
		<path class="st6" d="M458.8,680.6c6.5,0,11.7,5.1,11.7,11.8c0,6.8-5.2,12.1-11.7,12.1c-6.6,0-11.7-5.3-11.7-12.1
			C447.1,685.7,452.3,680.6,458.8,680.6z M458.8,702.3c5.1,0,9.3-4.3,9.3-9.9c0-5.4-4.2-9.6-9.3-9.6c-5.2,0-9.3,4.2-9.3,9.6
			C449.5,697.9,453.7,702.3,458.8,702.3z"/>
		<path class="st6" d="M472.5,702h1.2c0.5,0,0.7-0.2,0.7-0.7L476,681h2.3l6.1,13.4c0.6,1.2,1.1,2.7,1.1,2.7h0.1c0,0,0.6-1.5,1.1-2.7
			l6.1-13.4h2.3l1.6,20.3c0,0.5,0.3,0.7,0.7,0.7h1.2v2h-2.2c-1.4,0-1.9-0.6-2-2l-1.1-14c-0.1-1.2-0.1-3.2-0.1-3.2h-0.1
			c0,0-0.6,2-1.2,3.2l-5.5,11.7h-2.1l-5.4-11.7c-0.5-1.1-1.2-3.3-1.2-3.3h-0.1c0,0,0,2-0.1,3.3l-1.1,14c-0.1,1.4-0.6,2-2,2h-2.2v-2
			H472.5z"/>
		<path class="st6" d="M501,702h2.2v-19H501v-2h6.6v2h-2.2v19h2.2v2H501V702z"/>
		<path class="st6" d="M521.7,680.6c3.3,0,8.6,1.4,8.6,4.9v1.9h-2.2v-1.3c0-2.2-3.7-3.3-6.4-3.3c-5.1,0-9,4-9,9.6
			c0,5.5,3.9,9.9,9.1,9.9c4.8,0,7.5-3.2,7.5-3.2l1.3,1.7c0,0-3.2,3.7-8.9,3.7c-6.8,0-11.5-5.4-11.5-12.1
			C510.3,685.7,515.2,680.6,521.7,680.6z"/>
		<path class="st6" d="M544.6,680.6c6.5,0,11.7,5.1,11.7,11.8c0,6.8-5.2,12.1-11.7,12.1c-6.6,0-11.7-5.3-11.7-12.1
			C532.9,685.7,538.1,680.6,544.6,680.6z M544.6,702.3c5.1,0,9.3-4.3,9.3-9.9c0-5.4-4.2-9.6-9.3-9.6c-5.2,0-9.3,4.2-9.3,9.6
			C535.3,697.9,539.4,702.3,544.6,702.3z"/>
		<path class="st6" d="M360.2,718.6h-2.1v-2h9.2c6.9,0,11.6,4.2,11.6,11.5s-4.6,11.5-11.6,11.5h-5.1c-1.4,0-2-0.6-2-2V718.6
			L360.2,718.6z M363.2,737.6h3.9c5.7,0,9.4-3.3,9.4-9.5c0-6.1-3.8-9.5-9.4-9.5h-4.6v18.3C362.5,737.4,362.8,737.6,363.2,737.6z"/>
		<path class="st6" d="M381.6,737.6h2.2v-19h-2.2v-2h6.6v2H386v19h2.2v2h-6.6V737.6L381.6,737.6z"/>
		<path class="st6" d="M392.4,735.1c0,0,2.3,2.8,6,2.8c2.5,0,4.6-1.6,4.6-4.1c0-5.7-11.4-4.6-11.4-11.7c0-3.2,2.8-5.9,7-5.9
			c2.2,0,6.2,1,6.2,4v1.6h-2.2v-1.1c0-1.4-1.9-2.4-4-2.4c-3,0-4.7,1.7-4.7,3.7c0,5.3,11.4,4,11.4,11.6c0,3.4-2.7,6.4-7,6.4
			c-4.7,0-7.3-3.3-7.3-3.3L392.4,735.1z"/>
		<path class="st6" d="M415.7,718.6H410c-0.5,0-0.7,0.2-0.7,0.7v1.5h-2.1v-2.4c0-1.4,0.5-1.9,1.9-1.9h15.6c1.4,0,1.9,0.5,1.9,1.9
			v2.4h-2.1v-1.5c0-0.5-0.2-0.7-0.7-0.7H418v21h-2.3V718.6z"/>
		<path class="st6" d="M430.5,718.6h-2.1v-2h9.8c3.9,0,6.6,2.6,6.6,6.6c0,3.6-2.2,5.7-4.5,6.2v0.1c0,0,0.5,0.3,0.8,0.9l3.3,6.6
			c0.3,0.7,0.8,0.8,1.6,0.8h0.5v2h-1c-1.9,0-2.4-0.2-3.2-1.7l-3.3-6.6c-0.6-1.2-1-1.4-2.3-1.4h-3.9v9.7h-2.3V718.6L430.5,718.6z
			 M437.9,727.9c2.8,0,4.5-1.8,4.5-4.7s-1.7-4.6-4.4-4.6h-5.1v9.3H437.9z"/>
		<path class="st6" d="M448.4,737.6h2.2v-19h-2.2v-2h6.6v2h-2.2v19h2.2v2h-6.6V737.6z"/>
		<path class="st6" d="M459.9,718.6h-2.1v-2h9.8c3.6,0,6.2,2.2,6.2,5.8c0,2.5-1.3,4.2-2.9,5v0.1c2.4,0.7,3.9,2.9,3.9,5.7
			c0,4.1-3,6.5-6.9,6.5H462c-1.4,0-2-0.6-2-2L459.9,718.6L459.9,718.6z M467.5,726.6c2.3,0,3.9-1.6,3.9-4s-1.5-3.9-3.9-3.9h-5.3v8
			L467.5,726.6L467.5,726.6z M462.9,737.6h4.9c2.8,0,4.5-1.7,4.5-4.5s-1.8-4.6-4.5-4.6h-5.6v8.3
			C462.2,737.4,462.4,737.6,462.9,737.6z"/>
		<path class="st6" d="M479.6,719.4c0-0.5-0.3-0.7-0.7-0.7h-1.4v-2h2.4c1.4,0,2,0.6,2,2v13c0,3.8,2.4,6.2,6.2,6.2s6.2-2.4,6.2-6.3
			v-13c0-1.4,0.6-2,2-2h2.4v2h-1.4c-0.5,0-0.7,0.2-0.7,0.7v12.4c0,5-3.4,8.3-8.5,8.3s-8.5-3.3-8.5-8.3V719.4z"/>
		<path class="st6" d="M501.3,737.6h2.2v-19h-2.2v-2h6.6v2h-2.2v19h2.2v2h-6.6V737.6z"/>
		<path class="st6" d="M518.4,718.6h-5.7c-0.5,0-0.7,0.2-0.7,0.7v1.5h-2.1v-2.4c0-1.4,0.5-1.9,1.9-1.9h15.6c1.4,0,1.9,0.5,1.9,1.9
			v2.4h-2.1v-1.5c0-0.5-0.2-0.7-0.7-0.7h-5.7v21h-2.3L518.4,718.6L518.4,718.6z"/>
		<path class="st6" d="M542.1,716.2c6.5,0,11.7,5.1,11.7,11.8c0,6.8-5.2,12.1-11.7,12.1c-6.6,0-11.7-5.3-11.7-12.1
			C530.3,721.4,535.5,716.2,542.1,716.2z M542.1,737.9c5.1,0,9.3-4.3,9.3-9.9c0-5.4-4.2-9.6-9.3-9.6c-5.2,0-9.3,4.2-9.3,9.6
			C532.7,733.6,536.9,737.9,542.1,737.9z"/>
		<path class="st6" d="M358.5,754.3h-2.1v-2h9.2c6.9,0,11.6,4.2,11.6,11.5s-4.6,11.5-11.6,11.5h-5.1c-1.4,0-2-0.6-2-2V754.3
			L358.5,754.3z M361.5,773.2h3.9c5.7,0,9.4-3.3,9.4-9.5c0-6.1-3.8-9.5-9.4-9.5h-4.6v18.3C360.8,773,361.1,773.2,361.5,773.2z"/>
		<path class="st6" d="M378.4,773.2h0.4c0.6,0,0.9-0.1,1.2-0.7l7.5-20.3h2.5l7.5,20.3c0.2,0.6,0.6,0.7,1.2,0.7h0.4v2h-1
			c-1.6,0-2.1-0.3-2.7-1.9l-2-5.4h-9.1l-2,5.4c-0.6,1.6-1,1.9-2.7,1.9h-1.1L378.4,773.2L378.4,773.2z M392.7,765.9l-3-8.2
			c-0.4-1.1-0.9-3-0.9-3h-0.1c0,0-0.5,1.9-0.9,3l-3,8.2H392.7z"/>
		<path class="st6" d="M403,755c0-0.5-0.3-0.7-0.7-0.7h-1.4v-2h2.4c1.4,0,2,0.6,2,2v18.3c0,0.5,0.3,0.7,0.7,0.7h7.6
			c0.5,0,0.7-0.2,0.7-0.7V771h2.2v2.3c0,1.4-0.6,2-2,2H405c-1.4,0-2-0.6-2-2V755z"/>
		<path class="st6" d="M438.6,751.8c5.3,0,8.1,2.8,8.1,2.8l-1.3,1.7c0,0-2.6-2.4-6.7-2.4c-5.2,0-9.1,4.2-9.1,9.7
			c0,5.7,3.9,9.8,9.1,9.8c4.6,0,7.3-3.4,7.3-3.4v-2.9c0-0.5-0.3-0.7-0.7-0.7h-1.4v-2h2.3c1.4,0,2,0.6,2,2v8.7h-2.1v-1.7
			c0-0.5,0-1,0-1H446c0,0-2.7,3.1-7.5,3.1c-6.3,0-11.3-5-11.3-12C427.1,757.1,432.1,751.8,438.6,751.8z"/>
		<path class="st6" d="M453,754.3h-2.1v-2h9.8c3.9,0,6.6,2.6,6.6,6.6c0,3.6-2.2,5.7-4.5,6.2v0.1c0,0,0.5,0.3,0.8,0.9l3.3,6.6
			c0.3,0.7,0.8,0.8,1.6,0.8h0.5v2h-1c-1.9,0-2.4-0.2-3.2-1.7l-3.3-6.6c-0.6-1.2-1-1.4-2.3-1.4h-3.9v9.7H453V754.3z M460.5,763.5
			c2.8,0,4.5-1.8,4.5-4.7s-1.7-4.6-4.4-4.6h-5.1v9.3H460.5z"/>
		<path class="st6" d="M472.6,755c0-0.5-0.3-0.7-0.7-0.7h-1.4v-2h2.4c1.4,0,2,0.6,2,2v13c0,3.8,2.4,6.2,6.2,6.2s6.2-2.4,6.2-6.3v-13
			c0-1.4,0.6-2,2-2h2.4v2h-1.4c-0.5,0-0.7,0.2-0.7,0.7v12.4c0,5-3.4,8.3-8.5,8.3s-8.5-3.3-8.5-8.3V755z"/>
		<path class="st6" d="M496.4,754.3h-2.1v-2h9.7c4.1,0,7.1,2.7,7.1,6.9c0,4.3-3,7-7.1,7h-5.3v9h-2.3L496.4,754.3L496.4,754.3z
			 M503.7,764.2c3,0,5-1.9,5-5s-2-4.9-5-4.9h-5v9.9H503.7z"/>
		<path class="st6" d="M515.3,754.3h-2.1v-2h9.7c4.1,0,7.1,2.7,7.1,6.9c0,4.3-3,7-7.1,7h-5.3v9h-2.3L515.3,754.3L515.3,754.3z
			 M522.6,764.2c3,0,5-1.9,5-5s-2-4.9-5-4.9h-5v9.9H522.6z"/>
		<path class="st6" d="M543.8,751.8c6.5,0,11.7,5.1,11.7,11.8c0,6.8-5.2,12.1-11.7,12.1c-6.6,0-11.7-5.3-11.7-12.1
			C532.1,757,537.2,751.8,543.8,751.8z M543.8,773.5c5.1,0,9.3-4.3,9.3-9.9c0-5.4-4.2-9.6-9.3-9.6c-5.2,0-9.3,4.2-9.3,9.6
			C534.4,769.2,538.6,773.5,543.8,773.5z"/>
	</g>
	<g>
		<path class="st6" d="M397.7,994.9c-0.2-0.6-0.6-0.7-1.2-0.7h-0.3v-2h1c1.6,0,2.1,0.3,2.7,1.9l5.6,15.3c0.4,1.2,0.9,2.9,0.9,2.9
			h0.1c0,0,0.5-1.8,0.9-2.9l5.6-15.3c0.6-1.6,1.1-1.9,2.7-1.9h1v2h-0.3c-0.6,0-0.9,0.1-1.2,0.7l-7.5,20h-2.4L397.7,994.9z"/>
		<path class="st6" d="M416.2,1013h0.4c0.6,0,0.9-0.1,1.2-0.7l7.4-20h2.4l7.4,20c0.2,0.6,0.6,0.7,1.2,0.7h0.4v2h-1
			c-1.6,0-2.1-0.3-2.7-1.9l-2-5.4h-9l-2,5.4c-0.6,1.6-1,1.9-2.7,1.9h-1.1L416.2,1013L416.2,1013z M430.3,1005.8l-3-8.1
			c-0.4-1.1-0.9-2.9-0.9-2.9h-0.1c0,0-0.5,1.9-0.9,2.9l-3,8.1H430.3z"/>
		<path class="st6" d="M440.5,994.9c0-0.5-0.3-0.7-0.7-0.7h-1.4v-2h2.4c1.4,0,2,0.6,2,2v18.1c0,0.5,0.3,0.7,0.7,0.7h7.5
			c0.5,0,0.7-0.2,0.7-0.7v-1.5h2.1v2.3c0,1.4-0.6,2-2,2h-9.4c-1.4,0-2-0.6-2-2L440.5,994.9L440.5,994.9L440.5,994.9z"/>
		<path class="st6" d="M466.4,991.8c6.4,0,11.6,5.1,11.6,11.6c0,6.7-5.1,11.9-11.6,11.9s-11.6-5.2-11.6-11.9
			C454.8,996.9,459.9,991.8,466.4,991.8z M466.4,1013.2c5.1,0,9.2-4.3,9.2-9.8c0-5.4-4.1-9.5-9.2-9.5s-9.2,4.1-9.2,9.5
			C457.2,1009,461.3,1013.2,466.4,1013.2z"/>
		<path class="st6" d="M482.6,994.2h-2.1v-2h9.6c3.8,0,6.5,2.5,6.5,6.5c0,3.5-2.2,5.6-4.4,6.1v0.1c0,0,0.5,0.3,0.8,0.9l3.3,6.5
			c0.3,0.7,0.8,0.7,1.6,0.7h0.5v2h-1c-1.8,0-2.4-0.2-3.1-1.7l-3.3-6.5c-0.6-1.2-1-1.4-2.3-1.4h-3.8v9.6h-2.3L482.6,994.2
			L482.6,994.2z M490,1003.4c2.7,0,4.4-1.8,4.4-4.6s-1.7-4.5-4.4-4.5h-5.1v9.2L490,1003.4L490,1003.4z"/>
		<path class="st6" d="M502.2,994.2h-2.1v-2h13c1.4,0,2,0.6,2,2v2.3H513V995c0-0.5-0.3-0.7-0.7-0.7h-7.8v8.3h8.5v2h-8.5v7.7
			c0,0.5,0.3,0.7,0.7,0.7h8c0.5,0,0.7-0.2,0.7-0.7v-1.5h2.1v2.3c0,1.4-0.6,2-2,2h-9.8c-1.4,0-2-0.6-2-2V994.2z"/>
		<path class="st6" d="M359.3,1029.4h-2.1v-2h13c1.4,0,2,0.6,2,2v2.3h-2.1v-1.5c0-0.5-0.3-0.7-0.7-0.7h-7.8v8.3h8.5v2h-8.5v7.7
			c0,0.5,0.3,0.7,0.7,0.7h8c0.5,0,0.7-0.2,0.7-0.7v-1.5h2.1v2.3c0,1.4-0.6,2-2,2h-9.8c-1.4,0-2-0.6-2-2L359.3,1029.4L359.3,1029.4z"
			/>
		<path class="st6" d="M386.4,1027c3.2,0,8.5,1.4,8.5,4.8v1.9h-2.1v-1.3c0-2.1-3.7-3.3-6.3-3.3c-5,0-8.9,3.9-8.9,9.5
			c0,5.4,3.9,9.8,9,9.8c4.7,0,7.4-3.2,7.4-3.2l1.3,1.7c0,0-3.1,3.7-8.8,3.7c-6.7,0-11.4-5.3-11.4-11.9
			C375.1,1032,380,1027,386.4,1027z"/>
		<path class="st6" d="M409,1027c6.4,0,11.6,5.1,11.6,11.6c0,6.7-5.1,11.9-11.6,11.9s-11.6-5.2-11.6-11.9
			C397.4,1032.1,402.6,1027,409,1027z M409,1048.4c5.1,0,9.2-4.3,9.2-9.8c0-5.4-4.1-9.5-9.2-9.5s-9.2,4.1-9.2,9.5
			C399.8,1044.1,403.9,1048.4,409,1048.4z"/>
		<path class="st6" d="M423.2,1048.2h1.4c0.5,0,0.7-0.2,0.7-0.7v-20h2.1l11.6,16.2c0.8,1.1,1.8,3,1.8,3h0.1c0,0-0.2-1.8-0.2-3v-14.2
			c0-1.4,0.6-2,2-2h2.4v2h-1.4c-0.5,0-0.7,0.2-0.7,0.7v20h-2.1l-11.6-16.2c-0.8-1.1-1.9-2.9-1.9-2.9h-0.1c0,0,0.2,1.7,0.2,2.9v14.2
			c0,1.4-0.6,2-2,2h-2.4v-2H423.2z"/>
		<path class="st6" d="M459.2,1027c6.4,0,11.6,5.1,11.6,11.6c0,6.7-5.1,11.9-11.6,11.9s-11.6-5.2-11.6-11.9
			C447.6,1032.1,452.8,1027,459.2,1027z M459.2,1048.4c5.1,0,9.2-4.3,9.2-9.8c0-5.4-4.1-9.5-9.2-9.5s-9.2,4.1-9.2,9.5
			C450,1044.1,454.1,1048.4,459.2,1048.4z"/>
		<path class="st6" d="M472.7,1048.2h1.2c0.5,0,0.7-0.2,0.7-0.7l1.6-20h2.3l6,13.2c0.6,1.2,1.1,2.7,1.1,2.7h0.1c0,0,0.6-1.5,1.1-2.7
			l6-13.2h2.3l1.6,20c0,0.5,0.3,0.7,0.7,0.7h1.2v2h-2.2c-1.4,0-1.9-0.6-2-2l-1.1-13.8c-0.1-1.2-0.1-3.2-0.1-3.2h-0.1
			c0,0-0.6,2-1.2,3.2l-5.4,11.6h-2l-5.4-11.6c-0.5-1.1-1.2-3.2-1.2-3.2h0.1c0,0,0,2-0.1,3.2l-1.1,13.8c-0.1,1.4-0.6,2-2,2h-2.2
			L472.7,1048.2L472.7,1048.2z"/>
		<path class="st6" d="M500.9,1048.2h2.1v-18.7h-2.1v-2h6.5v2h-2.2v18.7h2.2v2h-6.5V1048.2z"/>
		<path class="st6" d="M521.3,1027c3.2,0,8.5,1.4,8.5,4.8v1.9h-2.1v-1.3c0-2.1-3.7-3.3-6.3-3.3c-5,0-8.9,3.9-8.9,9.5
			c0,5.4,3.9,9.8,9,9.8c4.7,0,7.4-3.2,7.4-3.2l1.3,1.7c0,0-3.1,3.7-8.8,3.7c-6.7,0-11.4-5.3-11.4-11.9
			C510.1,1032,514.9,1027,521.3,1027z"/>
		<path class="st6" d="M544,1027c6.4,0,11.6,5.1,11.6,11.6c0,6.7-5.1,11.9-11.6,11.9s-11.6-5.2-11.6-11.9
			C532.4,1032.1,537.5,1027,544,1027z M544,1048.4c5.1,0,9.2-4.3,9.2-9.8c0-5.4-4.1-9.5-9.2-9.5c-5.1,0-9.2,4.1-9.2,9.5
			C534.7,1044.1,538.9,1048.4,544,1048.4z"/>
		<path class="st6" d="M360.5,1064.6h-5.6c-0.5,0-0.7,0.2-0.7,0.7v1.5h-2.1v-2.4c0-1.4,0.5-1.8,1.8-1.8h15.4c1.4,0,1.8,0.5,1.8,1.8
			v2.4H369v-1.5c0-0.5-0.2-0.7-0.7-0.7h-5.6v20.7h-2.3L360.5,1064.6L360.5,1064.6z"/>
		<path class="st6" d="M375.1,1064.6H373v-2h9.6c3.8,0,6.5,2.5,6.5,6.5c0,3.5-2.2,5.6-4.4,6.1v0.1c0,0,0.5,0.3,0.8,0.9l3.3,6.5
			c0.3,0.7,0.8,0.7,1.6,0.7h0.5v2h-1c-1.8,0-2.4-0.2-3.1-1.7l-3.3-6.5c-0.6-1.2-1-1.4-2.3-1.4h-3.8v9.6h-2.3L375.1,1064.6
			L375.1,1064.6z M382.4,1073.8c2.7,0,4.4-1.8,4.4-4.6c0-2.8-1.7-4.5-4.4-4.5h-5.1v9.2L382.4,1073.8L382.4,1073.8z"/>
		<path class="st6" d="M391.9,1083.3h0.4c0.6,0,0.9-0.1,1.2-0.7l7.4-20h2.4l7.4,20c0.2,0.6,0.6,0.7,1.2,0.7h0.4v2h-1
			c-1.6,0-2.1-0.3-2.7-1.9l-2-5.4h-9l-2,5.4c-0.6,1.6-1,1.9-2.7,1.9h-1.1L391.9,1083.3L391.9,1083.3z M406.1,1076.1l-3-8.1
			c-0.4-1.1-0.9-2.9-0.9-2.9h-0.1c0,0-0.5,1.9-0.9,2.9l-3,8.1H406.1z"/>
		<path class="st6" d="M418.9,1064.6h-5.6c-0.5,0-0.7,0.2-0.7,0.7v1.5h-2.1v-2.4c0-1.4,0.5-1.8,1.8-1.8h15.4c1.4,0,1.8,0.5,1.8,1.8
			v2.4h-2.1v-1.5c0-0.5-0.2-0.7-0.7-0.7h-5.6v20.7h-2.3L418.9,1064.6L418.9,1064.6z"/>
		<path class="st6" d="M439,1064.6h-5.6c-0.5,0-0.7,0.2-0.7,0.7v1.5h-2.1v-2.4c0-1.4,0.5-1.8,1.8-1.8h15.4c1.4,0,1.8,0.5,1.8,1.8
			v2.4h-2.1v-1.5c0-0.5-0.2-0.7-0.7-0.7h-5.6v20.7H439V1064.6z"/>
		<path class="st6" d="M453.6,1064.6h-2.1v-2h13c1.4,0,2,0.6,2,2v2.3h-2.1v-1.5c0-0.5-0.3-0.7-0.7-0.7h-7.8v8.3h8.5v2h-8.5v7.7
			c0,0.5,0.3,0.7,0.7,0.7h8c0.5,0,0.7-0.2,0.7-0.7v-1.5h2.1v2.3c0,1.4-0.6,2-2,2h-9.8c-1.4,0-2-0.6-2-2L453.6,1064.6L453.6,1064.6z"
			/>
		<path class="st6" d="M469.5,1083.3h1.4c0.5,0,0.7-0.2,0.7-0.7v-20h2.1l11.6,16.2c0.8,1.1,1.8,3,1.8,3h0.1c0,0-0.2-1.8-0.2-3v-14.2
			c0-1.4,0.6-2,2-2h2.4v2H490c-0.5,0-0.7,0.2-0.7,0.7v20h-2.1l-11.6-16.2c-0.8-1.1-1.9-2.9-1.9-2.9h-0.1c0,0,0.2,1.7,0.2,2.9v14.2
			c0,1.4-0.6,2-2,2h-2.4v-2H469.5z"/>
		<path class="st6" d="M496,1065.3c0-0.5-0.3-0.7-0.7-0.7h-1.4v-2h2.4c1.4,0,2,0.6,2,2v12.9c0,3.8,2.4,6.1,6.1,6.1s6.1-2.4,6.1-6.2
			v-12.8c0-1.4,0.6-2,2-2h2.4v2h-1.4c-0.5,0-0.7,0.2-0.7,0.7v12.2c0,4.9-3.4,8.2-8.4,8.2s-8.4-3.3-8.4-8.2V1065.3L496,1065.3z"/>
		<path class="st6" d="M524.9,1064.6h-5.6c-0.5,0-0.7,0.2-0.7,0.7v1.5h-2.1v-2.4c0-1.4,0.5-1.8,1.8-1.8h15.4c1.4,0,1.8,0.5,1.8,1.8
			v2.4h-2.1v-1.5c0-0.5-0.2-0.7-0.7-0.7h-5.6v20.7h-2.3L524.9,1064.6L524.9,1064.6z"/>
		<path class="st6" d="M548.3,1062.2c6.4,0,11.6,5.1,11.6,11.6c0,6.7-5.1,11.9-11.6,11.9s-11.6-5.2-11.6-11.9
			C536.7,1067.3,541.8,1062.2,548.3,1062.2z M548.3,1083.6c5.1,0,9.2-4.3,9.2-9.8c0-5.4-4.1-9.5-9.2-9.5c-5.1,0-9.2,4.1-9.2,9.5
			C539,1079.3,543.1,1083.6,548.3,1083.6z"/>
		<path class="st6" d="M360.1,1099.8H358v-2h9.1c6.9,0,11.4,4.2,11.4,11.4c0,7.2-4.6,11.4-11.4,11.4h-5c-1.4,0-2-0.6-2-2V1099.8z
			 M363.1,1118.5h3.8c5.6,0,9.3-3.3,9.3-9.4s-3.7-9.4-9.3-9.4h-4.5v18C362.4,1118.3,362.7,1118.5,363.1,1118.5z"/>
		<path class="st6" d="M379.8,1118.5h0.4c0.6,0,0.9-0.1,1.2-0.7l7.4-20h2.4l7.4,20c0.2,0.6,0.6,0.7,1.2,0.7h0.4v2h-1
			c-1.6,0-2.1-0.3-2.7-1.9l-2-5.4h-9l-2,5.4c-0.6,1.6-1,1.9-2.7,1.9h-1.1L379.8,1118.5L379.8,1118.5z M393.9,1111.3l-3-8.1
			c-0.4-1.1-0.9-2.9-0.9-2.9l0,0c0,0-0.5,1.9-0.9,2.9l-3,8.1H393.9z"/>
		<path class="st6" d="M404.1,1100.5c0-0.5-0.3-0.7-0.7-0.7H402v-2h2.4c1.4,0,2,0.6,2,2v18.1c0,0.5,0.3,0.7,0.7,0.7h7.5
			c0.5,0,0.7-0.2,0.7-0.7v-1.5h2.1v2.3c0,1.4-0.6,2-2,2H406c-1.4,0-2-0.6-2-2L404.1,1100.5L404.1,1100.5z"/>
		<path class="st6" d="M439.2,1097.4c5.3,0,8,2.8,8,2.8l-1.3,1.7c0,0-2.5-2.3-6.6-2.3c-5.1,0-9,4.1-9,9.6c0,5.6,3.9,9.7,9,9.7
			c4.5,0,7.2-3.3,7.2-3.3v-2.8c0-0.5-0.3-0.7-0.7-0.7h-1.4v-2h2.3c1.4,0,2,0.6,2,2v8.6h-2.1v-1.7c0-0.5,0-1,0-1h-0.1
			c0,0-2.7,3.1-7.4,3.1c-6.2,0-11.1-5-11.1-11.8C427.9,1102.6,432.8,1097.4,439.2,1097.4z"/>
		<path class="st6" d="M453.5,1099.8h-2.1v-2h9.6c3.8,0,6.5,2.5,6.5,6.5c0,3.5-2.2,5.6-4.4,6.1v0.1c0,0,0.5,0.3,0.8,0.9l3.3,6.5
			c0.3,0.7,0.8,0.7,1.6,0.7h0.5v2h-1c-1.8,0-2.4-0.2-3.1-1.7l-3.3-6.5c-0.6-1.2-1-1.4-2.3-1.4h-3.8v9.6h-2.3L453.5,1099.8
			L453.5,1099.8z M460.8,1108.9c2.7,0,4.4-1.8,4.4-4.6c0-2.8-1.7-4.5-4.4-4.5h-5.1v9.2L460.8,1108.9L460.8,1108.9z"/>
		<path class="st6" d="M472.8,1100.5c0-0.5-0.3-0.7-0.7-0.7h-1.4v-2h2.4c1.4,0,2,0.6,2,2v12.9c0,3.8,2.4,6.1,6.1,6.1
			s6.1-2.4,6.1-6.2v-12.8c0-1.4,0.6-2,2-2h2.4v2h-1.4c-0.5,0-0.7,0.2-0.7,0.7v12.2c0,4.9-3.4,8.2-8.4,8.2s-8.4-3.3-8.4-8.2V1100.5
			L472.8,1100.5z"/>
		<path class="st6" d="M496.3,1099.8h-2.1v-2h9.6c4,0,7,2.7,7,6.9c0,4.2-3,7-7,7h-5.2v8.9h-2.3V1099.8z M503.5,1109.6c3,0,5-1.8,5-5
			c0-3.1-2-4.9-5-4.9h-5v9.8L503.5,1109.6L503.5,1109.6z"/>
		<path class="st6" d="M515,1099.8h-2.1v-2h9.6c4,0,7,2.7,7,6.9c0,4.2-3,7-7,7h-5.2v8.9H515V1099.8z M522.3,1109.6c3,0,5-1.8,5-5
			c0-3.1-2-4.9-5-4.9h-5v9.8L522.3,1109.6L522.3,1109.6z"/>
		<path class="st6" d="M543.1,1097.4c6.4,0,11.6,5.1,11.6,11.6c0,6.7-5.1,11.9-11.6,11.9s-11.6-5.2-11.6-11.9
			C531.6,1102.5,536.7,1097.4,543.1,1097.4z M543.1,1118.8c5.1,0,9.2-4.3,9.2-9.8c0-5.4-4.1-9.5-9.2-9.5c-5.1,0-9.2,4.1-9.2,9.5
			C533.9,1114.5,538,1118.8,543.1,1118.8z"/>
	</g>
</g>
</svg>
