<svg baseProfile="basic" xmlns="http://www.w3.org/2000/svg" viewBox="0 0 910 1186"><style type="text/css">.st0{fill:none;stroke:#00295A;stroke-miterlimit:10;} .st1{fill:#4E5594;} .st2{fill:#00295A;} .st3{fill:none;stroke:#F3352F;stroke-width:3;stroke-linecap:round;stroke-miterlimit:10;stroke-dasharray:0,9.3824;} .st4{fill:none;stroke:#00295A;stroke-width:3;stroke-linecap:round;stroke-miterlimit:10;stroke-dasharray:0,9;} .st5{fill:#FF322B;} .st6{fill:#FFFFFF;}</style><path class="st0" d="M905.5 2h-95c-1.6 0-2.9 1.3-2.9 2.9v30c0 2 1.6 3.6 3.6 3.6h9.6c2.2 0 3.4 2.5 2.1 4.2l-27.4 34.7c-1 1.3-3.1 1.3-4.1 0l-27.4-34.7c-1.3-1.7-.1-4.2 2.1-4.2h9.6c2 0 3.6-1.6 3.6-3.6v-30c0-1.6-1.3-2.9-2.9-2.9h-632 .4c-1.6 0-2.9 1.3-2.9 2.9v30c0 2 1.6 3.6 3.6 3.6h9.6c2.2 0 3.4 2.5 2.1 4.2l-27.4 34.7c-1 1.3-3.1 1.3-4.1 0l-27.4-34.7c-1.3-1.7-.1-4.2 2.1-4.2h9.6c2 0 3.6-1.6 3.6-3.6v-30c0-1.6-1.3-2.9-2.9-2.9h-104.4"/><path class="st1" d="M453.1 854.7c91.6 0 165.8 74.2 165.8 165.8s-74.2 165.8-165.8 165.8-165.8-74.2-165.8-165.8c0-91.6 74.3-165.8 165.8-165.8z"/><path class="st2" d="M453.1 508.8c91.6 0 165.8 74.2 165.8 165.8s-74.2 165.8-165.8 165.8-165.8-74.2-165.8-165.8 74.3-165.8 165.8-165.8z"/><path class="st1" d="M453.1 162.8c91.6 0 165.8 74.2 165.8 165.8s-74.2 165.8-165.8 165.8-165.8-74.2-165.8-165.8c0-91.5 74.3-165.8 165.8-165.8z"/><path class="st3" d="M121.9 168.5v37.4M121.9 451.9v99.3M121.9 798.6v99.4"/><circle class="st4" cx="123.3" cy="328.6" r="119"/><circle class="st4" cx="123.3" cy="674.5" r="119"/><circle class="st4" cx="123.3" cy="1020.5" r="119"/><path class="st3" d="M787.2 168.5v37.4M787.2 451.9v99.3M787.2 798.6v99.4"/><circle class="st4" cx="788.6" cy="328.6" r="119"/><circle class="st4" cx="788.6" cy="674.5" r="119"/><circle class="st4" cx="788.6" cy="1020.5" r="119"/><path class="st5" d="M755.3 99.1c0-4.5-3.3-7.9-8.6-7.9-4.2 0-7.5 2.1-7.5 4.5v2h-3.9v-3.1c0-5.3 7.2-7.3 11.5-7.3 8 0 12.8 5.3 12.8 11.8 0 14.7-22.2 14.4-22.2 26 0 .8.5 1.2 1.4 1.2h17.5c.8 0 1.3-.4 1.3-1.3v-2.8h3.9v4.2c0 2.6-1.1 3.6-3.6 3.6h-21c-2.9 0-3.8-1.2-3.8-4.1 0-15.7 22.2-14.4 22.2-26.8zM767.5 108.9c0-12.1 3.5-21.7 14.4-21.7s14.5 9.6 14.5 21.7c0 12.2-3.6 21.7-14.5 21.7-10.9.1-14.4-9.5-14.4-21.7zm24.6 0c0-10-2.3-17.8-10.2-17.8s-10.2 7.8-10.2 17.8 2.3 17.8 10.2 17.8c7.9.1 10.2-7.7 10.2-17.8zM802.8 126.2h9.4v-30.8c0-1.2.1-2.3.1-2.3h-.1s-.4.9-2.1 2.5l-4.5 4.5-2.6-2.7 9.5-9.4h3.9v38.3h9.2v3.7h-22.7v-3.8h-.1zM849.8 95.6c1.2-2.3 2.3-3.9 2.3-3.9v-.1s-1.1.1-3.2.1h-15.1c-.8 0-1.3.4-1.3 1.3v2.8h-3.9v-4.2c0-2.6 1-3.6 3.6-3.6h24.8v2.9l-20.8 39.1h-4.7l18.3-34.4z"/><path class="st2" d="M749.6 158.1h.9c.3 0 .5-.2.5-.5l1.2-14.8h1.7l4.4 9.8c.4.9.8 2 .8 2s.4-1.1.8-2l4.4-9.8h1.7l1.2 14.8c0 .4.2.5.5.5h.9v1.5h-1.6c-1 0-1.4-.4-1.5-1.5l-.8-10.2c-.1-.9-.1-2.3-.1-2.3s-.5 1.5-.9 2.3l-4 8.5h-1.5l-4-8.5c-.4-.8-.9-2.4-.9-2.4s0 1.5-.1 2.4l-.8 10.2c-.1 1-.4 1.5-1.5 1.5h-1.6v-1.5h.3zM771.4 149.5c0-.3-.2-.5-.5-.5h-1v-1.4h1.7c1 0 1.5.4 1.5 1.5v8.6c0 .4.2.5.5.5h1v1.4h-1.7c-1 0-1.5-.4-1.5-1.5v-8.6zm0-6.7h1.6v2.1h-1.6v-2.1zM777.3 149.5c0-.3-.2-.5-.5-.5h-1v-1.4h1.7c1 0 1.5.4 1.5 1.3v1.4c.4-1.1 2-3 4.8-3 3 0 4 1.7 4 4.7v5.7c0 .4.2.5.5.5h1v1.4h-1.7c-1 0-1.5-.4-1.5-1.5v-5.8c0-1.9-.3-3.6-2.6-3.6-2.1 0-3.8 1.4-4.4 3.4-.1.5-.2 1-.2 1.6v5.8h-1.6v-10zM802.6 147.3c2.9 0 3.9 2.2 3.9 2.2v-4.8c0-.3-.2-.5-.5-.5h-1v-1.4h1.7c1 0 1.5.4 1.5 1.5v13.4c0 .4.2.5.5.5h1v1.4h-1.7c-1 0-1.4-.5-1.4-1.3v-.8s-1 2.4-4.1 2.4c-3.2 0-5.2-2.6-5.2-6.3-.1-3.8 2.2-6.3 5.3-6.3zm4 6.3c0-2.4-1.2-4.8-3.8-4.8-2.1 0-3.9 1.8-3.9 4.8s1.6 4.8 3.8 4.8c2 0 3.9-1.4 3.9-4.8zM812.5 149.5c0-.3-.2-.5-.5-.5h-1v-1.4h1.7c1 0 1.5.4 1.5 1.5v8.6c0 .4.2.5.5.5h1v1.4h-1.7c-1 0-1.5-.4-1.5-1.5v-8.6zm-.1-6.7h1.6v2.1h-1.6v-2.1zM823.7 152h1.4v-1.9000000000000001h-1.4v-1.2h1.6c.9-3.7 4.1-6.3 8-6.3 1.3 0 2.2.3 2.2.3l-.4 1.6s-.9-.3-1.8-.3c-3.1 0-5.4 1.9-6.2 4.8h7.2l-.2 1.2h-7.3s-.1.5-.1 1v.9h6.9l-.2 1.2h-6.4c.7 3 3.1 5.1 6.3 5.1 1.2 0 2.1-.3 2.1-.3l.4 1.5s-1.1.4-2.6.4c-4.1 0-7.2-2.7-8.1-6.6h-1.5l.1-1.4z"/><path class="st5" d="M81.9 97.9c0-4.4-3.2-7.8-8.5-7.8-4.1 0-7.4 2.1-7.4 4.5v1.9h-3.9v-3.1c0-5.2 7.1-7.3 11.4-7.3 7.9 0 12.6 5.2 12.6 11.6 0 14.6-21.9 14.2-21.9 25.7 0 .8.5 1.2 1.4 1.2h17.3c.8 0 1.3-.4 1.3-1.3v-2.8h3.8v4.1c0 2.5-1.1 3.6-3.6 3.6h-20.7c-2.8 0-3.7-1.2-3.7-4.1-.1-15.2 21.9-14 21.9-26.2zM93.9 107.6c0-11.9 3.5-21.4 14.3-21.4s14.3 9.5 14.3 21.4c0 12-3.5 21.5-14.3 21.5s-14.3-9.5-14.3-21.5zm24.3 0c0-9.8-2.2-17.6-10.1-17.6-7.8 0-10.1 7.7-10.1 17.6s2.2 17.6 10.1 17.6 10.1-7.7 10.1-17.6zM128.8 124.7h9.3v-30.4c0-1.2.1-2.3.1-2.3h-.2s-.4.9-2.1 2.5l-4.4 4.4-2.6-2.7 9.4-9.3h3.9v37.8h9.1v3.7h-22.5v-3.7zM154.9 110.1c0-10.6 5.4-23.9 18.2-23.9 4.5 0 7.6 1.7 7.6 1.7l-1.5 3.6s-2.6-1.5-6-1.5c-8.7 0-13.1 8.7-13.9 17h.1c1.9-3.2 6.2-5 10.6-5 7.5 0 12.9 5.4 12.9 13.1 0 8.6-5.8 13.9-13 13.9-9 .1-15-8-15-18.9zm15 15.1c5.6 0 8.9-4.2 8.9-10s-3.7-9.5-9.4-9.5c-5.5 0-10 3.7-10 7.1 0 5.5 4.3 12.4 10.5 12.4z"/><path class="st2" d="M75.6 157.2h.9c.3 0 .5-.2.5-.5l1.2-14.6h1.7l4.4 9.6c.4.8.8 2 .8 2s.4-1.1.8-2l4.4-9.6h1.7l1.2 14.6c0 .4.2.5.5.5h.9v1.5h-1.6c-1 0-1.4-.4-1.4-1.4l-.8-10.1c-.1-.9-.1-2.3-.1-2.3s-.4 1.5-.8 2.3l-3.9 8.4h-1.5l-3.9-8.4c-.4-.8-.9-2.4-.9-2.4s0 1.5-.1 2.4l-.8 10.1c-.1 1-.4 1.4-1.4 1.4h-1.6v-1.5h-.2zM97.2 148.7c0-.3-.2-.5-.5-.5h-1v-1.4h1.7c1 0 1.4.4 1.4 1.4v8.5c0 .4.2.5.5.5h1v1.4h-1.7c-1 0-1.4-.4-1.4-1.4v-8.5zm-.1-6.6h1.6v2h-1.6v-2zM103 148.7c0-.3-.2-.5-.5-.5h-1v-1.4h1.7c1 0 1.4.4 1.4 1.3v1.3c.4-1.1 1.9-3 4.7-3 2.9 0 4 1.7 4 4.6v5.6c0 .4.2.5.5.5h1v1.4h-1.7c-1 0-1.4-.4-1.4-1.4v-5.7c0-1.9-.3-3.5-2.6-3.5-2 0-3.8 1.4-4.3 3.3-.1.5-.2 1-.2 1.6v5.7h-1.6v-9.8zM128 146.5c2.9 0 3.9 2.2 3.9 2.2v-4.7c0-.3-.2-.5-.5-.5h-1v-1.4h1.7c1 0 1.4.4 1.4 1.4v13.2c0 .4.2.5.5.5h1v1.4h-1.7c-1 0-1.4-.4-1.4-1.3v-.8s-1 2.4-4.1 2.4c-3.2 0-5.2-2.5-5.2-6.2.1-3.7 2.3-6.2 5.4-6.2zm3.9 6.2c0-2.4-1.2-4.8-3.8-4.8-2.1 0-3.8 1.8-3.8 4.8 0 2.9 1.5 4.8 3.7 4.8 2 0 3.9-1.4 3.9-4.8zM137.7 148.7c0-.3-.2-.5-.5-.5h-1v-1.4h1.7c1 0 1.4.4 1.4 1.4v8.5c0 .4.2.5.5.5h1v1.4h-1.7c-1 0-1.4-.4-1.4-1.4v-8.5zm0-6.6h1.6v2h-1.6v-2zM148.8 151.2h1.3v-1.9000000000000001h-1.3v-1.2h1.6c.9-3.7 4-6.3 7.9-6.3 1.2 0 2.2.3 2.2.3l-.4 1.5s-.8-.3-1.8-.3c-3 0-5.3 1.9-6.1 4.7h7.1l-.2 1.2h-7.2s-.1.5-.1 1v.9h6.9l-.2 1.2h-6.4c.7 2.9 3.1 5 6.2 5 1.2 0 2.1-.3 2.1-.3l.4 1.5s-1.1.4-2.5.4c-4 0-7.1-2.7-8-6.6h-1.5v-1.1z"/><path class="st1" d="M46.5 341.6s2.2 1.2 5 1.2c7.2 0 10.9-7.3 11.5-14.2h-.1c-1.6 2.7-5.2 4.2-8.8 4.2-6.3 0-10.7-4.5-10.7-10.9 0-7.2 4.8-11.5 10.8-11.5 7.5 0 12.5 6.7 12.5 15.7 0 8.8-4.5 19.9-15.2 19.9-3.8 0-6.3-1.4-6.3-1.4l1.3-3zm16.5-17.7c0-4.6-3.6-10.4-8.7-10.4-4.7 0-7.4 3.5-7.4 8.3s3.1 7.9 7.8 7.9c4.6.1 8.3-3 8.3-5.8zM71.9 342.4h7.7v-27.2h-.1s-.3.7-1.7 2.1l-3.7 3.7-2.2-2.2 7.8-7.8h3.2v31.4h7.6v3h-18.7l.1-3zM95.3 342.4h7.7v-27.2h-.1s-.3.7-1.7 2.1l-3.7 3.7-2.2-2.2 7.8-7.8h3.2v31.4h7.6v3h-18.7v-3h.1zM118.9 341.5h3.8v3.9h-3.8v-3.9zM129.4 338.6s3.5 4.1 9 4.1c4.1 0 7.8-3 7.8-7.5 0-4.7-4-7.3-8.4-7.3h-2.4l-.8-2 8.5-10.2c.8-1.1 1.8-1.9 1.8-1.9v-.1s-1 .1-2.8.1h-9c-.7 0-1.1.3-1.1 1.1v2.3h-3.2v-3.4c0-2.1.8-3 2.9-3h17.5v2.3l-10.2 11.9c4.3.2 10.6 2.7 10.6 10.2 0 5.8-4.9 10.7-11.4 10.7-6.8 0-11-4.8-11-4.8l2.2-2.5zM155.1 342.4h7.7v-27.2h-.1s-.3.7-1.7 2.1l-3.7 3.7-2.2-2.2 7.8-7.8h3.2v31.4h7.6v3h-18.7v-3h.1zM195.6 320c0-3.7-2.7-6.5-7.1-6.5-3.4 0-6.1 1.8-6.1 3.7v1.6h-3.2v-2.6c0-4.4 5.9-6 9.5-6 6.6 0 10.5 4.3 10.5 9.7 0 12.1-18.2 11.8-18.2 21.4 0 .7.4 1 1.1 1h14.4c.7 0 1.1-.3 1.1-1.1v-2.2h3.2v3.4c0 2.1-.9 3-3 3h-17.3c-2.4 0-3.1-1-3.1-3.4-.1-12.8 18.2-11.8 18.2-22z"/><path class="st2" d="M40.3 669.9c0-.1-4.8-2.4-4.8-7.4 0-4.9 3.8-9.2 10.6-9.2 6.7 0 10.8 3.9 10.8 9.4 0 5.4-4.7 8.7-4.7 8.7v.1c3.3 1.7 5.7 4 5.7 8.1 0 5.5-5.1 10.2-11.9 10.2-6.2 0-12-3.9-12-10.5 0-6.2 6.3-9.4 6.3-9.4zm5.7 16.6c4.2 0 8.2-2.9 8.2-7 0-3.7-3-5.1-6.7-6.6-1.3-.6-3.7-1.4-4.1-1.4-1.4 0-5.8 3.2-5.8 7.6 0 4.6 4.1 7.4 8.4 7.4zm2.9-16.6c1.3 0 4.5-3.5 4.5-7.1 0-3.8-3-6.2-7.3-6.2-4.5 0-7.1 2.7-7.1 6 0 3.7 3.1 5.1 6.8 6.4.8.3 2.5.9 3.1.9zM68.9 669.9c0-.1-4.8-2.4-4.8-7.4 0-4.9 3.8-9.2 10.6-9.2 6.7 0 10.8 3.9 10.8 9.4 0 5.4-4.7 8.7-4.7 8.7v.1c3.3 1.7 5.7 4 5.7 8.1 0 5.5-5.1 10.2-11.9 10.2-6.2 0-12-3.9-12-10.5 0-6.2 6.3-9.4 6.3-9.4zm5.7 16.6c4.2 0 8.2-2.9 8.2-7 0-3.7-3-5.1-6.7-6.6-1.3-.6-3.7-1.4-4.1-1.4-1.4 0-5.8 3.2-5.8 7.6.1 4.6 4.1 7.4 8.4 7.4zm3-16.6c1.3 0 4.5-3.5 4.5-7.1 0-3.8-3-6.2-7.3-6.2-4.5 0-7.1 2.7-7.1 6 0 3.7 3.1 5.1 6.8 6.4.7.3 2.4.9 3.1.9zM93.8 682.3s2.7 4.2 8.2 4.2c5 0 8.8-3.6 8.8-8.2 0-4.9-4.1-8.3-9.1-8.3-4 0-6.8 2-6.8 2l-1.8-.8 1.5-14.2c.2-2.2.9-3.1 3.1-3.1h11.6c2.1 0 3 .9 3 3.1v3.5h-3.3v-2.4c0-.8-.4-1.1-1.1-1.1h-8.9c-.7 0-1 .4-1.1 1.1l-.9 8c-.2 1.3-.3 2-.3 2h.1s2.2-1.3 5.3-1.3c7.2 0 12.4 5.1 12.4 11.5 0 6.3-5.2 11.5-12.4 11.5-7 0-10.4-5-10.4-5l2.1-2.5zM120.3 685.2h3.9v4h-3.9v-4zM132.7 685.3s2.2 1.3 5.1 1.3c7.4 0 11.2-7.4 11.8-14.6h-.1c-1.7 2.8-5.3 4.3-9 4.3-6.4 0-10.9-4.6-10.9-11.2 0-7.3 4.9-11.8 11-11.8 7.7 0 12.8 6.9 12.8 16.1 0 9-4.6 20.4-15.5 20.4-3.9 0-6.5-1.5-6.5-1.5l1.3-3zm16.9-18.2c0-4.7-3.7-10.6-8.9-10.6-4.8 0-7.6 3.6-7.6 8.5s3.2 8.1 8 8.1c4.7.1 8.5-3.1 8.5-6zM160.4 682.3s2.7 4.2 8.2 4.2c5 0 8.8-3.6 8.8-8.2 0-4.9-4.1-8.3-9.1-8.3-4 0-6.8 2-6.8 2l-1.8-.8 1.5-14.2c.2-2.2.9-3.1 3.1-3.1h11.6c2.1 0 3 .9 3 3.1v3.5h-3.3v-2.4c0-.8-.4-1.1-1.1-1.1h-8.9c-.7 0-1 .4-1.1 1.1l-.9 8c-.2 1.3-.3 2-.3 2h.1s2.2-1.3 5.3-1.3c7.2 0 12.4 5.1 12.4 11.5 0 6.3-5.2 11.5-12.4 11.5-7 0-10.4-5-10.4-5l2.1-2.5zM189.2 685.3s2.2 1.3 5.1 1.3c7.4 0 11.2-7.4 11.8-14.6h-.1c-1.7 2.8-5.3 4.3-9 4.3-6.4 0-10.9-4.6-10.9-11.2 0-7.3 4.9-11.8 11-11.8 7.7 0 12.8 6.9 12.8 16.1 0 9-4.6 20.4-15.5 20.4-3.9 0-6.5-1.5-6.5-1.5l1.3-3zm16.9-18.2c0-4.7-3.7-10.6-8.9-10.6-4.8 0-7.6 3.6-7.6 8.5s3.2 8.1 8 8.1c4.7.1 8.5-3.1 8.5-6z"/><path class="st1" d="M69.5 1009.9c0-3.7-2.7-6.5-7.1-6.5-3.4 0-6.1 1.8-6.1 3.7v1.6h-3.2v-2.5c0-4.4 5.9-6 9.5-6 6.6 0 10.5 4.3 10.5 9.6 0 12.1-18.2 11.8-18.2 21.4 0 .7.4 1 1.1 1h14.4c.7 0 1.1-.3 1.1-1.1v-2.3h3.2v3.4c0 2.1-.9 3-3 3h-17.2c-2.3 0-3.1-1-3.1-3.4-.1-12.7 18.1-11.7 18.1-21.9zM81.7 1028.5s2.6 4.1 8 4.1c4.9 0 8.6-3.5 8.6-8 0-4.7-4-8.1-8.9-8.1-3.9 0-6.6 1.9-6.6 1.9l-1.8-.7 1.5-13.9c.2-2.1.9-3 3-3h11.3c2.1 0 2.9.9 2.9 3v3.4h-3.2v-2.3c0-.7-.4-1.1-1.1-1.1h-8.7c-.7 0-1 .3-1.1 1.1l-.9 7.8c-.1 1.2-.3 2-.3 2h.1s2.2-1.3 5.2-1.3c7 0 12 5 12 11.2 0 6.1-5.1 11.2-12.1 11.2-6.9 0-10.1-4.9-10.1-4.9l2.2-2.4zM107.5 1031.3h3.8v3.9h-3.8v-3.9zM118 1028.5s3.5 4.1 9 4.1c4.1 0 7.8-3 7.8-7.4 0-4.7-4-7.2-8.4-7.2h-2.4l-.8-2 8.5-10.2c.8-1.1 1.8-1.9 1.8-1.9v-.1s-1 .1-2.8.1h-9c-.7 0-1.1.3-1.1 1.1v2.3h-3.2v-3.4c0-2.1.8-3 2.9-3h17.5v2.3l-10.1 11.9c4.3.2 10.6 2.7 10.6 10.1 0 5.8-4.8 10.7-11.4 10.7-6.8 0-11-4.8-11-4.8l2.1-2.6zM145.3 1028.5s2.6 4.1 8 4.1c4.9 0 8.6-3.5 8.6-8 0-4.7-4-8.1-8.9-8.1-3.9 0-6.6 1.9-6.6 1.9l-1.8-.7 1.5-13.9c.2-2.1.9-3 3-3h11.3c2.1 0 2.9.9 2.9 3v3.4h-3.2v-2.3c0-.7-.4-1.1-1.1-1.1h-8.7c-.7 0-1 .3-1.1 1.1l-.9 7.8c-.1 1.2-.3 2-.3 2h.1s2.2-1.3 5.2-1.3c7 0 12 5 12 11.2 0 6.1-5.1 11.2-12.1 11.2-6.9 0-10.1-4.9-10.1-4.9l2.2-2.4zM171.3 1028.5s3.5 4.1 9 4.1c4.1 0 7.8-3 7.8-7.4 0-4.7-4-7.2-8.4-7.2h-2.4l-.8-2 8.5-10.2c.8-1.1 1.8-1.9 1.8-1.9v-.1s-1 .1-2.8.1h-9c-.7 0-1.1.3-1.1 1.1v2.3h-3.2v-3.4c0-2.1.8-3 2.9-3h17.5v2.3l-10.1 11.8c4.3.2 10.6 2.7 10.6 10.1 0 5.8-4.8 10.7-11.4 10.7-6.8 0-11-4.8-11-4.8l2.1-2.5zM710.2 341.6s2.1 1.2 4.9 1.2c7.1 0 10.8-7.2 11.4-14.1h-.1c-1.6 2.7-5.1 4.2-8.7 4.2-6.2 0-10.6-4.5-10.6-10.8 0-7.1 4.7-11.4 10.7-11.4 7.4 0 12.3 6.6 12.3 15.6 0 8.7-4.4 19.7-15 19.7-3.7 0-6.3-1.4-6.3-1.4l1.4-3zm16.4-17.5c0-4.5-3.5-10.2-8.6-10.2-4.6 0-7.3 3.5-7.3 8.2 0 4.8 3.1 7.9 7.7 7.9 4.5-.1 8.2-3.1 8.2-5.9zM735.3 342.4h7.6v-26.9h-.1s-.3.7-1.7 2l-3.6 3.6-2.1-2.2 7.7-7.7h3.2v31.1h7.5v3h-18.5v-2.9zM759.9 341.6s2.1 1.2 4.9 1.2c7.1 0 10.8-7.2 11.4-14.1h-.1c-1.6 2.7-5.1 4.2-8.7 4.2-6.2 0-10.6-4.5-10.6-10.8 0-7.1 4.7-11.4 10.7-11.4 7.4 0 12.3 6.6 12.3 15.6 0 8.7-4.4 19.7-15 19.7-3.7 0-6.3-1.4-6.3-1.4l1.4-3zm16.3-17.5c0-4.5-3.5-10.2-8.6-10.2-4.6 0-7.3 3.5-7.3 8.2 0 4.8 3.1 7.9 7.7 7.9 4.6-.1 8.2-3.1 8.2-5.9zM783.4 341.5h3.7v3.9h-3.7v-3.9zM810.5 320.3c0-3.6-2.7-6.4-7-6.4-3.4 0-6.1 1.7-6.1 3.7v1.6h-3.2v-2.5c0-4.3 5.9-6 9.4-6 6.5 0 10.4 4.3 10.4 9.6 0 12-18 11.7-18 21.1 0 .7.4 1 1.1 1h14.3c.7 0 1.1-.3 1.1-1.1v-2.3h3.2v3.4c0 2.1-.9 3-3 3h-17.1c-2.3 0-3.1-1-3.1-3.3 0-12.7 18-11.7 18-21.8zM822 341.6s2.1 1.2 4.9 1.2c7.1 0 10.8-7.2 11.4-14.1h-.1c-1.6 2.7-5.1 4.2-8.7 4.2-6.2 0-10.6-4.5-10.6-10.8 0-7.1 4.7-11.4 10.7-11.4 7.4 0 12.3 6.6 12.3 15.6 0 8.7-4.4 19.7-15 19.7-3.7 0-6.3-1.4-6.3-1.4l1.4-3zm16.4-17.5c0-4.5-3.5-10.2-8.6-10.2-4.6 0-7.3 3.5-7.3 8.2 0 4.8 3.1 7.9 7.7 7.9 4.5-.1 8.2-3.1 8.2-5.9zM848.9 338.8s2.6 4 7.9 4c4.8 0 8.5-3.4 8.5-8 0-4.7-3.9-8-8.8-8-3.8 0-6.5 1.9-6.5 1.9l-1.7-.7 1.5-13.7c.2-2.1.9-3 3-3h11.2c2 0 2.9.9 2.9 3v3.4h-3.2v-2.3c0-.7-.4-1.1-1.1-1.1h-8.6c-.7 0-1 .3-1.1 1.1l-.9 7.7c-.1 1.2-.3 1.9-.3 1.9h.1s2.1-1.3 5.1-1.3c6.9 0 11.9 4.9 11.9 11.1 0 6.1-5 11.1-12 11.1-6.8 0-10-4.9-10-4.9l2.1-2.2z"/><path class="st2" d="M702 685.6s2.2 1.2 5.1 1.2c7.3 0 11.1-7.4 11.7-14.4h-.1c-1.6 2.7-5.3 4.3-8.9 4.3-6.4 0-10.8-4.6-10.8-11.1 0-7.3 4.8-11.7 10.9-11.7 7.6 0 12.6 6.8 12.6 16 0 8.9-4.5 20.2-15.4 20.2-3.8 0-6.4-1.4-6.4-1.4l1.3-3.1zm16.8-17.9c0-4.6-3.6-10.5-8.9-10.5-4.7 0-7.5 3.6-7.5 8.4 0 4.9 3.1 8.1 7.9 8.1 4.7-.1 8.5-3.2 8.5-6zM727.3 672c0-10 2.9-18.1 12-18.1s12.1 8 12.1 18.1-3 18.1-12.1 18.1c-9 0-12-8-12-18.1zm20.6 0c0-8.3-1.9-14.8-8.5-14.8s-8.5 6.5-8.5 14.8c0 8.4 1.9 14.9 8.5 14.9s8.5-6.5 8.5-14.9zM774.4 663.8c0-3.7-2.7-6.6-7.2-6.6-3.5 0-6.2 1.8-6.2 3.8v1.6h-3.3v-2.6c0-4.4 6-6.1 9.6-6.1 6.7 0 10.6 4.4 10.6 9.8 0 12.3-18.5 12-18.5 21.7 0 .7.4 1 1.1 1h14.6c.7 0 1.1-.3 1.1-1.1v-2.3h3.2v3.5c0 2.1-.9 3-3 3h-17.4c-2.4 0-3.1-1-3.1-3.4 0-13 18.5-12 18.5-22.3zM785.3 685.5h3.8v4h-3.8v-4zM794.5 672c0-10 2.9-18.1 12-18.1s12.1 8 12.1 18.1-3 18.1-12.1 18.1-12-8-12-18.1zm20.5 0c0-8.3-1.9-14.8-8.5-14.8s-8.5 6.5-8.5 14.8c0 8.4 1.9 14.9 8.5 14.9s8.5-6.5 8.5-14.9zM824.4 672c0-10 2.9-18.1 12-18.1s12.1 8 12.1 18.1-3 18.1-12.1 18.1-12-8-12-18.1zm20.5 0c0-8.3-1.9-14.8-8.5-14.8s-8.5 6.5-8.5 14.8c0 8.4 1.9 14.9 8.5 14.9s8.5-6.5 8.5-14.9zM859.4 670.4c0-.1-4.8-2.3-4.8-7.3 0-4.8 3.8-9.1 10.5-9.1 6.6 0 10.7 3.9 10.7 9.3 0 5.3-4.7 8.7-4.7 8.7v.1c3.3 1.7 5.6 3.9 5.6 8 0 5.5-5.1 10.1-11.7 10.1-6.2 0-11.9-3.8-11.9-10.4.1-6.3 6.3-9.4 6.3-9.4zm5.7 16.5c4.1 0 8.2-2.8 8.2-6.9 0-3.6-3-5.1-6.7-6.6-1.3-.5-3.7-1.4-4.1-1.4-1.3 0-5.7 3.2-5.7 7.5 0 4.6 4 7.4 8.3 7.4zm2.9-16.5c1.2 0 4.4-3.4 4.4-7.1 0-3.8-3-6.2-7.2-6.2-4.4 0-7.1 2.6-7.1 5.9 0 3.7 3.1 5 6.7 6.4.8.4 2.5 1 3.2 1z"/><path class="st1" d="M726.1 1031.7h7.6v-26.799999999999997h-.1s-.3.7-1.7 2l-3.6 3.6-2.1-2.2 7.7-7.6h3.2v30.9h7.4v3h-18.4v-2.9zM764 1006.9c1-1.8 1.9-3.1 1.9-3.1v-.1s-.9.1-2.6.1h-12.2c-.7 0-1.1.3-1.1 1.1v2.3h-3.2v-3.4c0-2.1.8-2.9 2.9-2.9h20v2.3l-16.8 31.5h-3.8l14.9-27.8zM767.7 1030.8h3.7v3.9h-3.7v-3.9zM794.7 1009.8c0-3.6-2.6-6.4-6.9-6.4-3.4 0-6 1.7-6 3.7v1.6h-3.2v-2.5c0-4.3 5.8-5.9 9.3-5.9 6.5 0 10.3 4.2 10.3 9.5 0 11.9-17.9 11.6-17.9 21 0 .7.4 1 1.1 1h14.2c.7 0 1.1-.3 1.1-1.1v-2.3h3.1v3.4c0 2.1-.9 2.9-2.9 2.9h-17c-2.3 0-3-1-3-3.3-.1-12.6 17.8-11.6 17.8-21.6zM810.2 1016.2c0-.1-4.6-2.3-4.6-7.1 0-4.7 3.7-8.9 10.2-8.9 6.4 0 10.4 3.8 10.4 9l-4.5 8.4v.1c3.2 1.6 5.4 3.8 5.4 7.8 0 5.3-4.9 9.8-11.4 9.8-6 0-11.5-3.7-11.5-10.1 0-6 6-9 6-9zm5.5 15.9c4 0 7.9-2.7 7.9-6.7 0-3.5-2.9-4.9-6.5-6.4-1.3-.5-3.6-1.3-3.9-1.3-1.3 0-5.5 3.1-5.5 7.3-.1 4.4 3.8 7.1 8 7.1zm2.8-15.9c1.2 0 4.3-3.3 4.3-6.8 0-3.7-2.9-6-7-6-4.3 0-6.8 2.6-6.8 5.7 0 3.6 3 4.9 6.5 6.2.7.3 2.3.9 3 .9zM847.3 1006.9c1-1.8 1.9-3.1 1.9-3.1v-.1s-.9.1-2.6.1h-12.2c-.7 0-1.1.3-1.1 1.1v2.3h-3.2v-3.4c0-2.1.8-2.9 2.9-2.9h20v2.3l-16.8 31.5h-3.8l14.9-27.8z"/><path class="st6" d="M396.8 266.7c-.2-.6-.6-.7-1.2-.7h-.3v-2h1c1.6 0 2.1.3 2.7 1.9l5.6 15.4c.4 1.2.9 3 .9 3h.1s.5-1.8.9-3l5.6-15.4c.6-1.6 1.1-1.9 2.7-1.9h1v2h-.3c-.6 0-.9.1-1.2.7l-7.5 20.2h-2.4l-7.6-20.2zM415.5 284.8h.4c.6 0 .9-.1 1.2-.7l7.5-20.2h2.4l7.5 20.2c.2.6.6.7 1.2.7h.4v2h-1c-1.6 0-2.1-.3-2.7-1.9l-2-5.4h-9.1l-2 5.4c-.6 1.6-1 1.9-2.7 1.9h-1.1v-2zm14.2-7.2l-3-8.2c-.4-1.1-.9-3-.9-3h-.1s-.5 1.9-.9 3l-3 8.2h7.9zM440 266.7c0-.5-.3-.7-.7-.7h-1.4v-2h2.4c1.4 0 2 .6 2 2v18.2c0 .5.3.7.7.7h7.6c.5 0 .7-.2.7-.7v-1.5h2.2v2.3c0 1.4-.6 2-2 2h-9.5c-1.4 0-2-.6-2-2v-18.3zM466 263.6c6.5 0 11.7 5.1 11.7 11.7 0 6.7-5.2 12-11.7 12s-11.7-5.3-11.7-12c.1-6.6 5.2-11.7 11.7-11.7zm0 21.5c5.1 0 9.3-4.3 9.3-9.8 0-5.4-4.2-9.5-9.3-9.5s-9.3 4.1-9.3 9.5c0 5.5 4.2 9.8 9.3 9.8zM482.4 266h-2.1v-2h9.7c3.8 0 6.6 2.5 6.6 6.5 0 3.6-2.2 5.6-4.4 6.1v.1s.5.3.8.9l3.3 6.5c.3.7.8.7 1.6.7h.5v2h-1c-1.9 0-2.4-.2-3.2-1.7l-3.3-6.5c-.6-1.2-1-1.4-2.3-1.4h-3.8v9.6h-2.3l-.1-20.8zm7.4 9.2c2.7 0 4.4-1.8 4.4-4.7 0-2.8-1.7-4.6-4.4-4.6h-5.1v9.2h5.1v.1zM502.1 266h-2.1v-2h13.1c1.4 0 2 .6 2 2v2.3h-2.2v-1.5c0-.5-.3-.7-.7-.7h-7.8v8.3h8.6v2h-8.6v7.8c0 .5.3.7.7.7h8c.5 0 .7-.2.7-.7v-1.5h2.1v2.3c0 1.4-.6 2-2 2h-9.9c-1.4 0-2-.6-2-2v-19h.1zM358.2 301.4h-2.1v-2h13.1c1.4 0 2 .6 2 2v2.3h-2.2v-1.5c0-.5-.3-.7-.7-.7h-7.8v8.3h8.6v2h-8.6v7.8c0 .5.3.7.7.7h8c.5 0 .7-.2.7-.7v-1.6h2.1v2.3c0 1.4-.6 2-2 2h-9.9c-1.4 0-2-.6-2-2l.1-18.9zM385.5 299c3.3 0 8.6 1.4 8.6 4.9v1.9h-2.2v-1.3c0-2.2-3.7-3.3-6.4-3.3-5.1 0-9 4-9 9.5s3.9 9.9 9.1 9.9c4.7 0 7.5-3.2 7.5-3.2l1.3 1.7s-3.2 3.7-8.8 3.7c-6.7 0-11.4-5.3-11.4-12 0-6.8 4.8-11.8 11.3-11.8zM408.3 299c6.5 0 11.7 5.1 11.7 11.7 0 6.7-5.2 12-11.7 12s-11.7-5.3-11.7-12c0-6.6 5.2-11.7 11.7-11.7zm0 21.5c5.1 0 9.3-4.3 9.3-9.8 0-5.4-4.2-9.5-9.3-9.5s-9.3 4.1-9.3 9.5c0 5.5 4.1 9.8 9.3 9.8zM422.5 320.2h1.4c.5 0 .7-.2.7-.7v-20.2h2.1l11.7 16.3c.8 1.1 1.9 3 1.9 3h.1s-.2-1.8-.2-3v-14.3c0-1.4.6-2 2-2h2.4v2h-1.4c-.5 0-.7.2-.7.7v20.2h-2.1l-11.7-16.3c-.8-1.1-1.9-3-1.9-3h-.1s.2 1.8.2 3v14.3c0 1.4-.6 2-2 2h-2.4v-2zM458.8 299c6.5 0 11.7 5.1 11.7 11.7 0 6.7-5.2 12-11.7 12s-11.7-5.3-11.7-12c0-6.6 5.2-11.7 11.7-11.7zm0 21.5c5.1 0 9.3-4.3 9.3-9.8 0-5.4-4.2-9.5-9.3-9.5s-9.3 4.1-9.3 9.5c0 5.5 4.2 9.8 9.3 9.8zM472.4 320.2h1.2c.5 0 .7-.2.7-.7l1.6-20.2h2.3l6.1 13.3c.6 1.2 1.1 2.7 1.1 2.7h.1s.6-1.5 1.1-2.7l6.1-13.3h2.3l1.6 20.2c0 .5.3.7.7.7h1.2v2h-2.2c-1.4 0-1.9-.6-2-2l-1.1-13.9c-.1-1.2-.1-3.2-.1-3.2h-.1s-.6 2-1.2 3.2l-5.4 11.6h-2.1l-5.4-11.6c-.5-1.1-1.2-3.3-1.2-3.3h-.1s0 2-.1 3.3l-1.1 13.9c-.1 1.4-.6 2-2 2h-2.2v-2h.2zM500.7 320.2h2.2v-18.9h-2.2v-2h6.5v2h-2.2v18.9h2.2v2h-6.5v-2zM521.3 299c3.3 0 8.6 1.4 8.6 4.9v1.9h-2.2v-1.3c0-2.2-3.7-3.3-6.4-3.3-5.1 0-9 4-9 9.5s3.9 9.9 9.1 9.9c4.7 0 7.5-3.2 7.5-3.2l1.3 1.7s-3.2 3.7-8.8 3.7c-6.7 0-11.4-5.3-11.4-12 0-6.8 4.9-11.8 11.3-11.8zM544.1 299c6.5 0 11.7 5.1 11.7 11.7 0 6.7-5.2 12-11.7 12s-11.7-5.3-11.7-12c.1-6.6 5.2-11.7 11.7-11.7zm0 21.5c5.1 0 9.3-4.3 9.3-9.8 0-5.4-4.2-9.5-9.3-9.5s-9.3 4.1-9.3 9.5c0 5.5 4.2 9.8 9.3 9.8zM384.2 334.4c5.3 0 8 2.8 8 2.8l-1.3 1.7s-2.5-2.3-6.6-2.3c-5.1 0-9.1 4.1-9.1 9.6 0 5.6 3.9 9.7 9.1 9.7 4.5 0 7.2-3.4 7.2-3.4v-2.8c0-.5-.3-.7-.7-.7h-1.4v-2h2.3c1.4 0 2 .6 2 2v8.7h-2.1v-2.7h-.1s-2.7 3.1-7.5 3.1c-6.3 0-11.2-5-11.2-11.9 0-6.6 4.9-11.8 11.4-11.8zM398.6 336.8h-2.1v-2h13.1c1.4 0 2 .6 2 2v2.3h-2.2v-1.5c0-.5-.3-.7-.7-.7h-7.8v8.3h8.6v2h-8.6v7.8c0 .5.3.7.7.7h8c.5 0 .7-.2.7-.7v-1.5h2.1v2.3c0 1.4-.6 2-2 2h-9.9c-1.4 0-2-.6-2-2l.1-19zM414.7 355.7h1.4c.5 0 .7-.2.7-.7v-20.2h2.1l11.7 16.3c.8 1.1 1.9 3 1.9 3h.1s-.2-1.8-.2-3v-14.3c0-1.4.6-2 2-2h2.4v2h-1.4c-.5 0-.7.2-.7.7v20.2h-2.1l-11.7-16.3c-.8-1.1-1.9-3-1.9-3h-.1s.2 1.8.2 3v14.3c0 1.4-.6 2-2 2h-2.4v-2zM441.5 336.8h-2.1v-2h13.1c1.4 0 2 .6 2 2v2.3h-2.2v-1.5c0-.5-.3-.7-.7-.7h-7.8v8.3h8.6v2h-8.6v7.8c0 .5.3.7.7.7h8c.5 0 .7-.2.7-.7v-1.5h2.1v2.3c0 1.4-.6 2-2 2h-9.9c-1.4 0-2-.6-2-2l.1-19zM459.7 336.8h-2.1v-2h9.7c3.8 0 6.6 2.5 6.6 6.5 0 3.6-2.2 5.6-4.4 6.1v.1s.5.3.8.9l3.3 6.5c.3.7.8.7 1.6.7h.5v2h-1c-1.9 0-2.4-.2-3.2-1.7l-3.3-6.5c-.6-1.2-1-1.4-2.3-1.4h-3.9v9.6h-2.3v-20.8zm7.4 9.2c2.7 0 4.4-1.8 4.4-4.7 0-2.8-1.7-4.6-4.4-4.6h-5.1v9.2l5.1.1zM476.7 355.7h.4c.6 0 .9-.1 1.2-.7l7.5-20.2h2.4l7.5 20.2c.2.6.6.7 1.2.7h.4v2h-1c-1.6 0-2.1-.3-2.7-1.9l-2-5.4h-9.1l-2 5.4c-.6 1.6-1 1.9-2.7 1.9h-1.1v-2zm14.2-7.3l-3-8.2c-.4-1.1-.9-3-.9-3h-.1s-.5 1.9-.9 3l-3 8.2h7.9zM503.8 336.8h-5.7c-.5 0-.7.2-.7.7v1.5h-2.1v-2.4c0-1.4.5-1.9 1.9-1.9h15.5c1.4 0 1.9.5 1.9 1.9v2.4h-2.1v-1.5c0-.5-.2-.7-.7-.7h-5.6v20.9h-2.3v-20.9h-.1zM527.3 334.4c6.5 0 11.7 5.1 11.7 11.7 0 6.7-5.2 12-11.7 12s-11.7-5.3-11.7-12c.1-6.6 5.2-11.7 11.7-11.7zm0 21.5c5.1 0 9.3-4.3 9.3-9.8 0-5.4-4.2-9.5-9.3-9.5s-9.3 4.1-9.3 9.5c.1 5.5 4.2 9.8 9.3 9.8zM359.1 372.2h-2.1v-2h9.2c6.9 0 11.5 4.2 11.5 11.4 0 7.3-4.6 11.5-11.5 11.5h-5.2c-1.4 0-2-.6-2-2l.1-18.9zm2.9 18.9h3.8c5.6 0 9.4-3.3 9.4-9.4s-3.7-9.4-9.4-9.4h-4.6v18.1c.1.5.4.7.8.7zM378.8 391.1h.4c.6 0 .9-.1 1.2-.7l7.5-20.2h2.4l7.5 20.2c.2.6.6.7 1.2.7h.4v2h-1c-1.6 0-2.1-.3-2.7-1.9l-2-5.4h-9.1l-2 5.4c-.6 1.6-1 1.9-2.7 1.9h-1.1v-2zm14.3-7.3l-3-8.2c-.4-1.1-.9-3-.9-3h-.1s-.5 1.9-.9 3l-3 8.2h7.9zM403.3 372.9c0-.5-.3-.7-.7-.7h-1.4v-2h2.4c1.4 0 2 .6 2 2v18.2c0 .5.3.7.7.7h7.6c.5 0 .7-.2.7-.7v-1.5h2.2v2.3c0 1.4-.6 2-2 2h-9.5c-1.4 0-2-.6-2-2v-18.3zM438.7 369.8c5.3 0 8 2.8 8 2.8l-1.3 1.7s-2.5-2.3-6.6-2.3c-5.1 0-9.1 4.1-9.1 9.6 0 5.6 3.9 9.7 9.1 9.7 4.5 0 7.2-3.4 7.2-3.4v-2.8c0-.5-.3-.7-.7-.7h-1.4v-2h2.3c1.4 0 2 .6 2 2v8.7h-2.2v-2.7s-2.7 3.1-7.5 3.1c-6.3 0-11.2-5-11.2-11.9 0-6.6 4.9-11.8 11.4-11.8zM453.1 372.2h-2.1v-2h9.7c3.8 0 6.6 2.5 6.6 6.5 0 3.6-2.2 5.6-4.4 6.1v.1s.5.3.8.9l3.3 6.5c.3.7.8.7 1.6.7h.5v2h-1c-1.9 0-2.4-.2-3.2-1.7l-3.3-6.5c-.6-1.2-1-1.4-2.3-1.4h-3.8v9.6h-2.3l-.1-20.8zm7.3 9.2c2.7 0 4.4-1.8 4.4-4.7 0-2.8-1.7-4.6-4.4-4.6h-5.1v9.2l5.1.1zM472.5 372.9c0-.5-.3-.7-.7-.7h-1.4v-2h2.4c1.4 0 2 .6 2 2v13c0 3.8 2.4 6.2 6.2 6.2 3.7 0 6.2-2.4 6.2-6.3v-12.9c0-1.4.6-2 2-2h2.4v2h-1.4c-.5 0-.7.2-.7.7v12.3c0 5-3.4 8.2-8.4 8.2s-8.5-3.3-8.5-8.2l-.1-12.3zM496.1 372.2h-2.1v-2h9.7c4.1 0 7.1 2.7 7.1 6.9 0 4.3-3 7-7.1 7h-5.3v9h-2.3v-20.9zm7.3 9.9c3 0 5-1.9 5-5s-2-4.9-5-4.9h-5v9.9h5zM515 372.2h-2.1v-2h9.7c4.1 0 7.1 2.7 7.1 6.9 0 4.3-3 7-7.1 7h-5.3v9h-2.3v-20.9zm7.3 9.9c3 0 5-1.9 5-5s-2-4.9-5-4.9h-5v9.9h5zM543.3 369.8c6.5 0 11.7 5.1 11.7 11.7 0 6.7-5.2 12-11.7 12s-11.7-5.3-11.7-12c0-6.6 5.2-11.7 11.7-11.7zm0 21.5c5.1 0 9.3-4.3 9.3-9.8 0-5.4-4.2-9.5-9.3-9.5s-9.3 4.1-9.3 9.5c0 5.5 4.1 9.8 9.3 9.8zM396.5 610.1c-.2-.6-.6-.7-1.2-.7h-.3v-2h1c1.6 0 2.1.3 2.7 1.9l5.7 15.5c.4 1.2.9 3 .9 3h.1s.5-1.8.9-3l5.7-15.5c.6-1.6 1.1-1.9 2.7-1.9h1v2h-.3c-.6 0-.9.1-1.2.7l-7.6 20.3h-2.5l-7.6-20.3zM415.3 628.4h.4c.6 0 .9-.1 1.2-.7l7.5-20.3h2.5l7.5 20.3c.2.6.6.7 1.2.7h.4v2h-1c-1.6 0-2.1-.3-2.7-1.9l-2-5.4h-9.1l-2 5.4c-.6 1.6-1 1.9-2.7 1.9h-1.1l-.1-2zm14.3-7.3l-3-8.2c-.4-1.1-.9-3-.9-3h-.1s-.5 1.9-.9 3l-3 8.2h7.9zM439.9 610.1c0-.5-.3-.7-.7-.7h-1.4v-2h2.4c1.4 0 2 .6 2 2v18.3c0 .5.3.7.7.7h7.6c.5 0 .7-.2.7-.7v-1.5h2.2v2.3c0 1.4-.6 2-2 2h-9.5c-1.4 0-2-.6-2-2v-18.4zM466.1 607c6.5 0 11.7 5.1 11.7 11.8 0 6.8-5.2 12.1-11.7 12.1-6.6 0-11.7-5.3-11.7-12.1 0-6.7 5.1-11.8 11.7-11.8zm0 21.6c5.1 0 9.3-4.3 9.3-9.9 0-5.4-4.2-9.6-9.3-9.6-5.2 0-9.3 4.2-9.3 9.6-.1 5.6 4.1 9.9 9.3 9.9zM482.5 609.4h-2.1v-2h9.8c3.9 0 6.6 2.6 6.6 6.6 0 3.6-2.2 5.7-4.5 6.2v.1s.5.3.8.9l3.3 6.6c.3.7.8.8 1.6.8h.5v2h-1c-1.9 0-2.4-.2-3.2-1.7l-3.3-6.6c-.6-1.2-1-1.4-2.3-1.4h-3.9v9.7h-2.3v-21.2zm7.4 9.3c2.8 0 4.5-1.8 4.5-4.7s-1.7-4.6-4.4-4.6h-5.1v9.3h5zM502.4 609.4h-2.1v-2h13.2c1.4 0 2 .6 2 2v2.3h-2.2v-1.5c0-.5-.3-.7-.7-.7h-7.9v8.4h8.7v2h-8.7v7.8c0 .5.3.7.7.7h8.1c.5 0 .7-.2.7-.7v-1.5h2.1v2.3c0 1.4-.6 2-2 2h-10c-1.4 0-2-.6-2-2v-19.1h.1zM357.7 645h-2.1v-2h13.2c1.4 0 2 .6 2 2v2.3h-2.2v-1.5c0-.5-.3-.7-.7-.7h-7.9v8.4h8.7v2h-8.7v7.8c0 .5.3.7.7.7h8.1c.5 0 .7-.2.7-.7v-1.5h2.1v2.3c0 1.4-.6 2-2 2h-10c-1.4 0-2-.6-2-2l.1-19.1zM385.1 642.6c3.3 0 8.6 1.4 8.6 4.9v1.9h-2.2v-1.3c0-2.2-3.7-3.3-6.4-3.3-5.1 0-9 4-9 9.6 0 5.5 3.9 9.9 9.1 9.9 4.8 0 7.5-3.2 7.5-3.2l1.3 1.7s-3.2 3.7-8.9 3.7c-6.8 0-11.5-5.4-11.5-12.1.1-6.7 5-11.8 11.5-11.8zM408 642.6c6.5 0 11.7 5.1 11.7 11.8 0 6.8-5.2 12.1-11.7 12.1-6.6 0-11.7-5.3-11.7-12.1 0-6.7 5.1-11.8 11.7-11.8zm0 21.7c5.1 0 9.3-4.3 9.3-9.9 0-5.4-4.2-9.6-9.3-9.6-5.2 0-9.3 4.2-9.3 9.6 0 5.5 4.1 9.9 9.3 9.9zM422.3 664h1.4c.5 0 .7-.2.7-.7v-20.3h2.1l11.8 16.4c.8 1.1 1.9 3 1.9 3h.1s-.2-1.8-.2-3v-14.4c0-1.4.6-2 2-2h2.4v2h-1.4c-.5 0-.7.2-.7.7v20.3h-2.1l-11.8-16.4c-.8-1.1-1.9-3-1.9-3h-.1s.2 1.8.2 3v14.4c0 1.4-.6 2-2 2h-2.4v-2zM458.8 642.6c6.5 0 11.7 5.1 11.7 11.8 0 6.8-5.2 12.1-11.7 12.1-6.6 0-11.7-5.3-11.7-12.1 0-6.7 5.2-11.8 11.7-11.8zm0 21.7c5.1 0 9.3-4.3 9.3-9.9 0-5.4-4.2-9.6-9.3-9.6-5.2 0-9.3 4.2-9.3 9.6 0 5.5 4.2 9.9 9.3 9.9zM472.5 664h1.2c.5 0 .7-.2.7-.7l1.6-20.3h2.3l6.1 13.4c.6 1.2 1.1 2.7 1.1 2.7h.1s.6-1.5 1.1-2.7l6.1-13.4h2.3l1.6 20.3c0 .5.3.7.7.7h1.2v2h-2.2c-1.4 0-1.9-.6-2-2l-1.1-14c-.1-1.2-.1-3.2-.1-3.2h-.1s-.6 2-1.2 3.2l-5.5 11.7h-2.1l-5.4-11.7c-.5-1.1-1.2-3.3-1.2-3.3h-.1s0 2-.1 3.3l-1.1 14c-.1 1.4-.6 2-2 2h-2.2v-2h.3zM501 664h2.2v-19h-2.2v-2h6.6v2h-2.2v19h2.2v2h-6.6v-2zM521.7 642.6c3.3 0 8.6 1.4 8.6 4.9v1.9h-2.2v-1.3c0-2.2-3.7-3.3-6.4-3.3-5.1 0-9 4-9 9.6 0 5.5 3.9 9.9 9.1 9.9 4.8 0 7.5-3.2 7.5-3.2l1.3 1.7s-3.2 3.7-8.9 3.7c-6.8 0-11.5-5.4-11.5-12.1.1-6.7 5-11.8 11.5-11.8zM544.6 642.6c6.5 0 11.7 5.1 11.7 11.8 0 6.8-5.2 12.1-11.7 12.1-6.6 0-11.7-5.3-11.7-12.1 0-6.7 5.2-11.8 11.7-11.8zm0 21.7c5.1 0 9.3-4.3 9.3-9.9 0-5.4-4.2-9.6-9.3-9.6-5.2 0-9.3 4.2-9.3 9.6 0 5.5 4.1 9.9 9.3 9.9zM360.2 680.6h-2.1v-2h9.2c6.9 0 11.6 4.2 11.6 11.5s-4.6 11.5-11.6 11.5h-5.1c-1.4 0-2-.6-2-2v-19zm3 19h3.9c5.7 0 9.4-3.3 9.4-9.5 0-6.1-3.8-9.5-9.4-9.5h-4.6v18.3c0 .5.3.7.7.7zM381.6 699.6h2.2v-19h-2.2v-2h6.6v2h-2.2v19h2.2v2h-6.6v-2zM392.4 697.1s2.3 2.8 6 2.8c2.5 0 4.6-1.6 4.6-4.1 0-5.7-11.4-4.6-11.4-11.7 0-3.2 2.8-5.9 7-5.9 2.2 0 6.2 1 6.2 4v1.6h-2.2v-1.1c0-1.4-1.9-2.4-4-2.4-3 0-4.7 1.7-4.7 3.7 0 5.3 11.4 4 11.4 11.6 0 3.4-2.7 6.4-7 6.4-4.7 0-7.3-3.3-7.3-3.3l1.4-1.6zM415.7 680.6h-5.7c-.5 0-.7.2-.7.7v1.5h-2.1v-2.4c0-1.4.5-1.9 1.9-1.9h15.6c1.4 0 1.9.5 1.9 1.9v2.4h-2.1v-1.5c0-.5-.2-.7-.7-.7h-5.8v21h-2.3v-21zM430.5 680.6h-2.1v-2h9.8c3.9 0 6.6 2.6 6.6 6.6 0 3.6-2.2 5.7-4.5 6.2v.1s.5.3.8.9l3.3 6.6c.3.7.8.8 1.6.8h.5v2h-1c-1.9 0-2.4-.2-3.2-1.7l-3.3-6.6c-.6-1.2-1-1.4-2.3-1.4h-3.9v9.7h-2.3v-21.2zm7.4 9.3c2.8 0 4.5-1.8 4.5-4.7s-1.7-4.6-4.4-4.6h-5.1v9.3h5zM448.4 699.6h2.2v-19h-2.2v-2h6.6v2h-2.2v19h2.2v2h-6.6v-2zM459.9 680.6h-2.1v-2h9.8c3.6 0 6.2 2.2 6.2 5.8 0 2.5-1.3 4.2-2.9 5v.1c2.4.7 3.9 2.9 3.9 5.7 0 4.1-3 6.5-6.9 6.5h-5.9c-1.4 0-2-.6-2-2l-.1-19.1zm7.6 8c2.3 0 3.9-1.6 3.9-4s-1.5-3.9-3.9-3.9h-5.3v8l5.3-.1zm-4.6 11h4.9c2.8 0 4.5-1.7 4.5-4.5s-1.8-4.6-4.5-4.6h-5.6v8.3c0 .6.2.8.7.8zM479.6 681.4c0-.5-.3-.7-.7-.7h-1.4v-2h2.4c1.4 0 2 .6 2 2v13c0 3.8 2.4 6.2 6.2 6.2s6.2-2.4 6.2-6.3v-13c0-1.4.6-2 2-2h2.4v2h-1.4c-.5 0-.7.2-.7.7v12.4c0 5-3.4 8.3-8.5 8.3s-8.5-3.3-8.5-8.3v-12.3zM501.3 699.6h2.2v-19h-2.2v-2h6.6v2h-2.2v19h2.2v2h-6.6v-2zM518.4 680.6h-5.7c-.5 0-.7.2-.7.7v1.5h-2.1v-2.4c0-1.4.5-1.9 1.9-1.9h15.6c1.4 0 1.9.5 1.9 1.9v2.4h-2.1v-1.5c0-.5-.2-.7-.7-.7h-5.7v21h-2.3l-.1-21zM542.1 678.2c6.5 0 11.7 5.1 11.7 11.8 0 6.8-5.2 12.1-11.7 12.1-6.6 0-11.7-5.3-11.7-12.1-.1-6.6 5.1-11.8 11.7-11.8zm0 21.7c5.1 0 9.3-4.3 9.3-9.9 0-5.4-4.2-9.6-9.3-9.6-5.2 0-9.3 4.2-9.3 9.6-.1 5.6 4.1 9.9 9.3 9.9zM358.5 716.3h-2.1v-2h9.2c6.9 0 11.6 4.2 11.6 11.5s-4.6 11.5-11.6 11.5h-5.1c-1.4 0-2-.6-2-2v-19zm3 18.9h3.9c5.7 0 9.4-3.3 9.4-9.5 0-6.1-3.8-9.5-9.4-9.5h-4.6v18.3c0 .5.3.7.7.7zM378.4 735.2h.4c.6 0 .9-.1 1.2-.7l7.5-20.3h2.5l7.5 20.3c.2.6.6.7 1.2.7h.4v2h-1c-1.6 0-2.1-.3-2.7-1.9l-2-5.4h-9.1l-2 5.4c-.6 1.6-1 1.9-2.7 1.9h-1.1l-.1-2zm14.3-7.3l-3-8.2c-.4-1.1-.9-3-.9-3h-.1s-.5 1.9-.9 3l-3 8.2h7.9zM403 717c0-.5-.3-.7-.7-.7h-1.4v-2h2.4c1.4 0 2 .6 2 2v18.3c0 .5.3.7.7.7h7.6c.5 0 .7-.2.7-.7v-1.6h2.2v2.3c0 1.4-.6 2-2 2h-9.5c-1.4 0-2-.6-2-2v-18.3zM438.6 713.8c5.3 0 8.1 2.8 8.1 2.8l-1.3 1.7s-2.6-2.4-6.7-2.4c-5.2 0-9.1 4.2-9.1 9.7 0 5.7 3.9 9.8 9.1 9.8 4.6 0 7.3-3.4 7.3-3.4v-2.9c0-.5-.3-.7-.7-.7h-1.4v-2h2.3c1.4 0 2 .6 2 2v8.7h-2.1v-2.7h-.1s-2.7 3.1-7.5 3.1c-6.3 0-11.3-5-11.3-12-.1-6.4 4.9-11.7 11.4-11.7zM453 716.3h-2.1v-2h9.8c3.9 0 6.6 2.6 6.6 6.6 0 3.6-2.2 5.7-4.5 6.2v.1s.5.3.8.9l3.3 6.6c.3.7.8.8 1.6.8h.5v2h-1c-1.9 0-2.4-.2-3.2-1.7l-3.3-6.6c-.6-1.2-1-1.4-2.3-1.4h-3.9v9.7h-2.3v-21.2zm7.5 9.2c2.8 0 4.5-1.8 4.5-4.7s-1.7-4.6-4.4-4.6h-5.1v9.3h5zM472.6 717c0-.5-.3-.7-.7-.7h-1.4v-2h2.4c1.4 0 2 .6 2 2v13c0 3.8 2.4 6.2 6.2 6.2s6.2-2.4 6.2-6.3v-13c0-1.4.6-2 2-2h2.4v2h-1.4c-.5 0-.7.2-.7.7v12.4c0 5-3.4 8.3-8.5 8.3s-8.5-3.3-8.5-8.3v-12.3zM496.4 716.3h-2.1v-2h9.7c4.1 0 7.1 2.7 7.1 6.9 0 4.3-3 7-7.1 7h-5.3v9h-2.3v-20.9zm7.3 9.9c3 0 5-1.9 5-5s-2-4.9-5-4.9h-5v9.9h5zM515.3 716.3h-2.1v-2h9.7c4.1 0 7.1 2.7 7.1 6.9 0 4.3-3 7-7.1 7h-5.3v9h-2.3v-20.9zm7.3 9.9c3 0 5-1.9 5-5s-2-4.9-5-4.9h-5v9.9h5zM543.8 713.8c6.5 0 11.7 5.1 11.7 11.8 0 6.8-5.2 12.1-11.7 12.1-6.6 0-11.7-5.3-11.7-12.1 0-6.6 5.1-11.8 11.7-11.8zm0 21.7c5.1 0 9.3-4.3 9.3-9.9 0-5.4-4.2-9.6-9.3-9.6-5.2 0-9.3 4.2-9.3 9.6-.1 5.6 4.1 9.9 9.3 9.9zM397.7 956.9c-.2-.6-.6-.7-1.2-.7h-.3v-2h1c1.6 0 2.1.3 2.7 1.9l5.6 15.3c.4 1.2.9 2.9.9 2.9h.1s.5-1.8.9-2.9l5.6-15.3c.6-1.6 1.1-1.9 2.7-1.9h1v2h-.3c-.6 0-.9.1-1.2.7l-7.5 20h-2.4l-7.6-20zM416.2 975h.4c.6 0 .9-.1 1.2-.7l7.4-20h2.4l7.4 20c.2.6.6.7 1.2.7h.4v2h-1c-1.6 0-2.1-.3-2.7-1.9l-2-5.4h-9l-2 5.4c-.6 1.6-1 1.9-2.7 1.9h-1.1l.1-2zm14.1-7.2l-3-8.1c-.4-1.1-.9-2.9-.9-2.9h-.1s-.5 1.9-.9 2.9l-3 8.1h7.9zM440.5 956.9c0-.5-.3-.7-.7-.7h-1.4v-2h2.4c1.4 0 2 .6 2 2v18.1c0 .5.3.7.7.7h7.5c.5 0 .7-.2.7-.7v-1.5h2.1v2.3c0 1.4-.6 2-2 2h-9.4c-1.4 0-2-.6-2-2l.1-18.2zM466.4 953.8c6.4 0 11.6 5.1 11.6 11.6 0 6.7-5.1 11.9-11.6 11.9s-11.6-5.2-11.6-11.9c0-6.5 5.1-11.6 11.6-11.6zm0 21.4c5.1 0 9.2-4.3 9.2-9.8 0-5.4-4.1-9.5-9.2-9.5s-9.2 4.1-9.2 9.5c0 5.6 4.1 9.8 9.2 9.8zM482.6 956.2h-2.1v-2h9.6c3.8 0 6.5 2.5 6.5 6.5 0 3.5-2.2 5.6-4.4 6.1v.1s.5.3.8.9l3.3 6.5c.3.7.8.7 1.6.7h.5v2h-1c-1.8 0-2.4-.2-3.1-1.7l-3.3-6.5c-.6-1.2-1-1.4-2.3-1.4h-3.8v9.6h-2.3v-20.8zm7.4 9.2c2.7 0 4.4-1.8 4.4-4.6s-1.7-4.5-4.4-4.5h-5.1v9.2l5.1-.1zM502.2 956.2h-2.1v-2h13c1.4 0 2 .6 2 2v2.3h-2.1v-1.5c0-.5-.3-.7-.7-.7h-7.8v8.3h8.5v2h-8.5v7.7c0 .5.3.7.7.7h8c.5 0 .7-.2.7-.7v-1.5h2.1v2.3c0 1.4-.6 2-2 2h-9.8c-1.4 0-2-.6-2-2v-18.9zM359.3 991.4h-2.1v-2h13c1.4 0 2 .6 2 2v2.3h-2.1v-1.5c0-.5-.3-.7-.7-.7h-7.8v8.3h8.5v2h-8.5v7.7c0 .5.3.7.7.7h8c.5 0 .7-.2.7-.7v-1.5h2.1v2.3c0 1.4-.6 2-2 2h-9.8c-1.4 0-2-.6-2-2v-18.9zM386.4 989c3.2 0 8.5 1.4 8.5 4.8v1.9h-2.1v-1.3c0-2.1-3.7-3.3-6.3-3.3-5 0-8.9 3.9-8.9 9.5 0 5.4 3.9 9.8 9 9.8 4.7 0 7.4-3.2 7.4-3.2l1.3 1.7s-3.1 3.7-8.8 3.7c-6.7 0-11.4-5.3-11.4-11.9 0-6.7 4.9-11.7 11.3-11.7zM409 989c6.4 0 11.6 5.1 11.6 11.6 0 6.7-5.1 11.9-11.6 11.9s-11.6-5.2-11.6-11.9c0-6.5 5.2-11.6 11.6-11.6zm0 21.4c5.1 0 9.2-4.3 9.2-9.8 0-5.4-4.1-9.5-9.2-9.5s-9.2 4.1-9.2 9.5c0 5.5 4.1 9.8 9.2 9.8zM423.2 1010.2h1.4c.5 0 .7-.2.7-.7v-20h2.1l11.6 16.2c.8 1.1 1.8 3 1.8 3h.1s-.2-1.8-.2-3v-14.2c0-1.4.6-2 2-2h2.4v2h-1.4c-.5 0-.7.2-.7.7v20h-2.1l-11.6-16.2c-.8-1.1-1.9-2.9-1.9-2.9h-.1s.2 1.7.2 2.9v14.2c0 1.4-.6 2-2 2h-2.4v-2h.1zM459.2 989c6.4 0 11.6 5.1 11.6 11.6 0 6.7-5.1 11.9-11.6 11.9s-11.6-5.2-11.6-11.9c0-6.5 5.2-11.6 11.6-11.6zm0 21.4c5.1 0 9.2-4.3 9.2-9.8 0-5.4-4.1-9.5-9.2-9.5s-9.2 4.1-9.2 9.5c0 5.5 4.1 9.8 9.2 9.8zM472.7 1010.2h1.2c.5 0 .7-.2.7-.7l1.6-20h2.3l6 13.2c.6 1.2 1.1 2.7 1.1 2.7h.1s.6-1.5 1.1-2.7l6-13.2h2.3l1.6 20c0 .5.3.7.7.7h1.2v2h-2.2c-1.4 0-1.9-.6-2-2l-1.1-13.8c-.1-1.2-.1-3.2-.1-3.2h-.1s-.6 2-1.2 3.2l-5.4 11.6h-2l-5.4-11.6c-.5-1.1-1.2-3.2-1.2-3.2h.1s0 2-.1 3.2l-1.1 13.8c-.1 1.4-.6 2-2 2h-2.2l.1-2zM500.9 1010.2h2.1v-18.7h-2.1v-2h6.5v2h-2.2v18.7h2.2v2h-6.5v-2zM521.3 989c3.2 0 8.5 1.4 8.5 4.8v1.9h-2.1v-1.3c0-2.1-3.7-3.3-6.3-3.3-5 0-8.9 3.9-8.9 9.5 0 5.4 3.9 9.8 9 9.8 4.7 0 7.4-3.2 7.4-3.2l1.3 1.7s-3.1 3.7-8.8 3.7c-6.7 0-11.4-5.3-11.4-11.9.1-6.7 4.9-11.7 11.3-11.7zM544 989c6.4 0 11.6 5.1 11.6 11.6 0 6.7-5.1 11.9-11.6 11.9s-11.6-5.2-11.6-11.9c0-6.5 5.1-11.6 11.6-11.6zm0 21.4c5.1 0 9.2-4.3 9.2-9.8 0-5.4-4.1-9.5-9.2-9.5s-9.2 4.1-9.2 9.5c-.1 5.5 4.1 9.8 9.2 9.8zM360.5 1026.6h-5.6c-.5 0-.7.2-.7.7v1.5h-2.1v-2.4c0-1.4.5-1.8 1.8-1.8h15.4c1.4 0 1.8.5 1.8 1.8v2.4h-2.1v-1.5c0-.5-.2-.7-.7-.7h-5.6v20.7h-2.3l.1-20.7zM375.1 1026.6h-2.1v-2h9.6c3.8 0 6.5 2.5 6.5 6.5 0 3.5-2.2 5.6-4.4 6.1v.1s.5.3.8.9l3.3 6.5c.3.7.8.7 1.6.7h.5v2h-1c-1.8 0-2.4-.2-3.1-1.7l-3.3-6.5c-.6-1.2-1-1.4-2.3-1.4h-3.8v9.6h-2.3v-20.8zm7.3 9.2c2.7 0 4.4-1.8 4.4-4.6s-1.7-4.5-4.4-4.5h-5.1v9.2l5.1-.1zM391.9 1045.3h.4c.6 0 .9-.1 1.2-.7l7.4-20h2.4l7.4 20c.2.6.6.7 1.2.7h.4v2h-1c-1.6 0-2.1-.3-2.7-1.9l-2-5.4h-9l-2 5.4c-.6 1.6-1 1.9-2.7 1.9h-1.1l.1-2zm14.2-7.2l-3-8.1c-.4-1.1-.9-2.9-.9-2.9h-.1s-.5 1.9-.9 2.9l-3 8.1h7.9zM418.9 1026.6h-5.6c-.5 0-.7.2-.7.7v1.5h-2.1v-2.4c0-1.4.5-1.8 1.8-1.8h15.4c1.4 0 1.8.5 1.8 1.8v2.4h-2.1v-1.5c0-.5-.2-.7-.7-.7h-5.6v20.7h-2.3l.1-20.7zM439 1026.6h-5.6c-.5 0-.7.2-.7.7v1.5h-2.1v-2.4c0-1.4.5-1.8 1.8-1.8h15.4c1.4 0 1.8.5 1.8 1.8v2.4h-2.1v-1.5c0-.5-.2-.7-.7-.7h-5.6v20.7h-2.2v-20.7zM453.6 1026.6h-2.1v-2h13c1.4 0 2 .6 2 2v2.3h-2.1v-1.5c0-.5-.3-.7-.7-.7h-7.8v8.3h8.5v2h-8.5v7.7c0 .5.3.7.7.7h8c.5 0 .7-.2.7-.7v-1.5h2.1v2.3c0 1.4-.6 2-2 2h-9.8c-1.4 0-2-.6-2-2v-18.9zM469.5 1045.3h1.4c.5 0 .7-.2.7-.7v-20h2.1l11.6 16.2c.8 1.1 1.8 3 1.8 3h.1s-.2-1.8-.2-3v-14.2c0-1.4.6-2 2-2h2.4v2h-1.4c-.5 0-.7.2-.7.7v20h-2.1l-11.6-16.2c-.8-1.1-1.9-2.9-1.9-2.9h-.1s.2 1.7.2 2.9v14.2c0 1.4-.6 2-2 2h-2.4v-2h.1zM496 1027.3c0-.5-.3-.7-.7-.7h-1.4v-2h2.4c1.4 0 2 .6 2 2v12.9c0 3.8 2.4 6.1 6.1 6.1s6.1-2.4 6.1-6.2v-12.8c0-1.4.6-2 2-2h2.4v2h-1.4c-.5 0-.7.2-.7.7v12.2c0 4.9-3.4 8.2-8.4 8.2s-8.4-3.3-8.4-8.2v-12.2zM524.9 1026.6h-5.6c-.5 0-.7.2-.7.7v1.5h-2.1v-2.4c0-1.4.5-1.8 1.8-1.8h15.4c1.4 0 1.8.5 1.8 1.8v2.4h-2.1v-1.5c0-.5-.2-.7-.7-.7h-5.6v20.7h-2.3l.1-20.7zM548.3 1024.2c6.4 0 11.6 5.1 11.6 11.6 0 6.7-5.1 11.9-11.6 11.9s-11.6-5.2-11.6-11.9c0-6.5 5.1-11.6 11.6-11.6zm0 21.4c5.1 0 9.2-4.3 9.2-9.8 0-5.4-4.1-9.5-9.2-9.5s-9.2 4.1-9.2 9.5c-.1 5.5 4 9.8 9.2 9.8zM360.1 1061.8h-2.1v-2h9.1c6.9 0 11.4 4.2 11.4 11.4s-4.6 11.4-11.4 11.4h-5c-1.4 0-2-.6-2-2v-18.8zm3 18.7h3.8c5.6 0 9.3-3.3 9.3-9.4s-3.7-9.4-9.3-9.4h-4.5v18c0 .6.3.8.7.8zM379.8 1080.5h.4c.6 0 .9-.1 1.2-.7l7.4-20h2.4l7.4 20c.2.6.6.7 1.2.7h.4v2h-1c-1.6 0-2.1-.3-2.7-1.9l-2-5.4h-9l-2 5.4c-.6 1.6-1 1.9-2.7 1.9h-1.1l.1-2zm14.1-7.2l-3-8.1c-.4-1.1-.9-2.9-.9-2.9s-.5 1.9-.9 2.9l-3 8.1h7.8zM404.1 1062.5c0-.5-.3-.7-.7-.7h-1.4v-2h2.4c1.4 0 2 .6 2 2v18.1c0 .5.3.7.7.7h7.5c.5 0 .7-.2.7-.7v-1.5h2.1v2.3c0 1.4-.6 2-2 2h-9.4c-1.4 0-2-.6-2-2l.1-18.2zM439.2 1059.4c5.3 0 8 2.8 8 2.8l-1.3 1.7s-2.5-2.3-6.6-2.3c-5.1 0-9 4.1-9 9.6 0 5.6 3.9 9.7 9 9.7 4.5 0 7.2-3.3 7.2-3.3v-2.8c0-.5-.3-.7-.7-.7h-1.4v-2h2.3c1.4 0 2 .6 2 2v8.6h-2.1v-2.7h-.1s-2.7 3.1-7.4 3.1c-6.2 0-11.1-5-11.1-11.8-.1-6.7 4.8-11.9 11.2-11.9zM453.5 1061.8h-2.1v-2h9.6c3.8 0 6.5 2.5 6.5 6.5 0 3.5-2.2 5.6-4.4 6.1v.1s.5.3.8.9l3.3 6.5c.3.7.8.7 1.6.7h.5v2h-1c-1.8 0-2.4-.2-3.1-1.7l-3.3-6.5c-.6-1.2-1-1.4-2.3-1.4h-3.8v9.6h-2.3v-20.8zm7.3 9.1c2.7 0 4.4-1.8 4.4-4.6s-1.7-4.5-4.4-4.5h-5.1v9.2l5.1-.1zM472.8 1062.5c0-.5-.3-.7-.7-.7h-1.4v-2h2.4c1.4 0 2 .6 2 2v12.9c0 3.8 2.4 6.1 6.1 6.1s6.1-2.4 6.1-6.2v-12.8c0-1.4.6-2 2-2h2.4v2h-1.4c-.5 0-.7.2-.7.7v12.2c0 4.9-3.4 8.2-8.4 8.2s-8.4-3.3-8.4-8.2v-12.2zM496.3 1061.8h-2.1v-2h9.6c4 0 7 2.7 7 6.9s-3 7-7 7h-5.2v8.9h-2.3v-20.8zm7.2 9.8c3 0 5-1.8 5-5 0-3.1-2-4.9-5-4.9h-5v9.8l5 .1zM515 1061.8h-2.1v-2h9.6c4 0 7 2.7 7 6.9s-3 7-7 7h-5.2v8.9h-2.3v-20.8zm7.3 9.8c3 0 5-1.8 5-5 0-3.1-2-4.9-5-4.9h-5v9.8l5 .1zM543.1 1059.4c6.4 0 11.6 5.1 11.6 11.6 0 6.7-5.1 11.9-11.6 11.9s-11.6-5.2-11.6-11.9c.1-6.5 5.2-11.6 11.6-11.6zm0 21.4c5.1 0 9.2-4.3 9.2-9.8 0-5.4-4.1-9.5-9.2-9.5s-9.2 4.1-9.2 9.5c0 5.5 4.1 9.8 9.2 9.8z"/></svg>