<?xml version="1.0" encoding="utf-8"?>
<!-- Generator: Adobe Illustrator 22.0.0, SVG Export Plug-In . SVG Version: 6.00 Build 0)  -->
<svg version="1.1" id="Livello_1" xmlns="http://www.w3.org/2000/svg" xmlns:xlink="http://www.w3.org/1999/xlink" x="0px" y="0px"
	 viewBox="0 0 906 1190" style="enable-background:new 0 0 906 1190;" xml:space="preserve">
<style type="text/css">
	.st0{fill:none;stroke:#00295A;stroke-miterlimit:10;}
	.st1{fill:#4E5594;}
	.st2{fill:#00295A;}
	.st3{fill:none;stroke:#F3352F;stroke-width:3;stroke-linecap:round;stroke-miterlimit:10;stroke-dasharray:0,9.3824;}
	.st4{fill:none;stroke:#00295A;stroke-width:3;stroke-linecap:round;stroke-miterlimit:10;stroke-dasharray:0,9;}
	.st5{fill:#FF322B;}
	.st6{fill:#FFFFFF;}
</style>
<g>
	<path class="st0" d="M902.5,1h-92.7h-2.3c-1.6,0-2.9,1.3-2.9,2.9v30c0,2,1.6,3.6,3.6,3.6h9.6c2.2,0,3.4,2.5,2.1,4.2l-27.4,34.7
		c-1,1.3-3.1,1.3-4.1,0L761,41.7c-1.3-1.7-0.1-4.2,2.1-4.2h9.6c2,0,3.6-1.6,3.6-3.6v-30c0-1.6-1.3-2.9-2.9-2.9h-0.9H141.4h0.4
		c-1.6,0-2.9,1.3-2.9,2.9v30c0,2,1.6,3.6,3.6,3.6h9.6c2.2,0,3.4,2.5,2.1,4.2l-27.4,34.7c-1,1.3-3.1,1.3-4.1,0L95.3,41.7
		c-1.3-1.7-0.1-4.2,2.1-4.2h9.6c2,0,3.6-1.6,3.6-3.6v-30c0-1.6-1.3-2.9-2.9-2.9h-0.2H3.3"/>
	<g>
		<g>
			<path class="st1" d="M450.1,853.7c91.6,0,165.8,74.2,165.8,165.8c0,91.6-74.2,165.8-165.8,165.8s-165.8-74.2-165.8-165.8
				C284.3,927.9,358.6,853.7,450.1,853.7z"/>
			<path class="st2" d="M450.1,507.8c91.6,0,165.8,74.2,165.8,165.8s-74.2,165.8-165.8,165.8s-165.8-74.2-165.8-165.8
				S358.6,507.8,450.1,507.8z"/>
			<path class="st1" d="M450.1,161.8c91.6,0,165.8,74.2,165.8,165.8s-74.2,165.8-165.8,165.8s-165.8-74.2-165.8-165.8
				C284.3,236.1,358.6,161.8,450.1,161.8z"/>
		</g>
		<g>
			<g>
				<line class="st3" x1="118.9" y1="167.5" x2="118.9" y2="204.9"/>
				<line class="st3" x1="118.9" y1="450.9" x2="118.9" y2="550.2"/>
				<line class="st3" x1="118.9" y1="797.6" x2="118.9" y2="897"/>
				<circle class="st4" cx="120.3" cy="327.6" r="119"/>
				<circle class="st4" cx="120.3" cy="673.5" r="119"/>
				<circle class="st4" cx="120.3" cy="1019.5" r="119"/>
			</g>
			<g>
				<line class="st3" x1="784.2" y1="167.5" x2="784.2" y2="204.9"/>
				<line class="st3" x1="784.2" y1="450.9" x2="784.2" y2="550.2"/>
				<line class="st3" x1="784.2" y1="797.6" x2="784.2" y2="897"/>
				<circle class="st4" cx="785.6" cy="327.6" r="119"/>
				<circle class="st4" cx="785.6" cy="673.5" r="119"/>
				<circle class="st4" cx="785.6" cy="1019.5" r="119"/>
			</g>
		</g>
	</g>
	<path class="st5" d="M752.3,98.1c0-4.5-3.3-7.9-8.6-7.9c-4.2,0-7.5,2.1-7.5,4.5v2h-3.9v-3.1c0-5.3,7.2-7.3,11.5-7.3
		c8,0,12.8,5.3,12.8,11.8c0,14.7-22.2,14.4-22.2,26c0,0.8,0.5,1.2,1.4,1.2h17.5c0.8,0,1.3-0.4,1.3-1.3v-2.8h3.9v4.2
		c0,2.6-1.1,3.6-3.6,3.6h-21c-2.9,0-3.8-1.2-3.8-4.1C730.1,109.2,752.3,110.5,752.3,98.1z"/>
	<path class="st5" d="M764.5,107.9c0-12.1,3.5-21.7,14.4-21.7s14.5,9.6,14.5,21.7c0,12.2-3.6,21.7-14.5,21.7
		C768,129.7,764.5,120.1,764.5,107.9z M789.1,107.9c0-10-2.3-17.8-10.2-17.8s-10.2,7.8-10.2,17.8s2.3,17.8,10.2,17.8
		C786.8,125.8,789.1,118,789.1,107.9z"/>
	<path class="st5" d="M799.8,125.2h9.4V94.4c0-1.2,0.1-2.3,0.1-2.3h-0.1c0,0-0.4,0.9-2.1,2.5l-4.5,4.5l-2.6-2.7l9.5-9.4h3.9v38.3
		h9.2v3.7h-22.7v-3.8H799.8z"/>
	<path class="st5" d="M846.8,94.6c1.2-2.3,2.3-3.9,2.3-3.9v-0.1c0,0-1.1,0.1-3.2,0.1h-15.1c-0.8,0-1.3,0.4-1.3,1.3v2.8h-3.9v-4.2
		c0-2.6,1-3.6,3.6-3.6H854v2.9L833.2,129h-4.7L846.8,94.6z"/>
	<path class="st2" d="M746.6,157.1h0.9c0.3,0,0.5-0.2,0.5-0.5l1.2-14.8h1.7l4.4,9.8c0.4,0.9,0.8,2,0.8,2l0,0c0,0,0.4-1.1,0.8-2
		l4.4-9.8h1.7l1.2,14.8c0,0.4,0.2,0.5,0.5,0.5h0.9v1.5H764c-1,0-1.4-0.4-1.5-1.5l-0.8-10.2c-0.1-0.9-0.1-2.3-0.1-2.3l0,0
		c0,0-0.5,1.5-0.9,2.3l-4,8.5h-1.5l-4-8.5c-0.4-0.8-0.9-2.4-0.9-2.4l0,0c0,0,0,1.5-0.1,2.4l-0.8,10.2c-0.1,1-0.4,1.5-1.5,1.5h-1.6
		v-1.5H746.6z"/>
	<path class="st2" d="M768.4,148.5c0-0.3-0.2-0.5-0.5-0.5h-1v-1.4h1.7c1,0,1.5,0.4,1.5,1.5v8.6c0,0.4,0.2,0.5,0.5,0.5h1v1.4h-1.7
		c-1,0-1.5-0.4-1.5-1.5V148.5z M768.4,141.8h1.6v2.1h-1.6V141.8z"/>
	<path class="st2" d="M774.3,148.5c0-0.3-0.2-0.5-0.5-0.5h-1v-1.4h1.7c1,0,1.5,0.4,1.5,1.3v0.5c0,0.5,0,0.9,0,0.9l0,0
		c0.4-1.1,2-3,4.8-3c3,0,4,1.7,4,4.7v5.7c0,0.4,0.2,0.5,0.5,0.5h1v1.4h-1.7c-1,0-1.5-0.4-1.5-1.5v-5.8c0-1.9-0.3-3.6-2.6-3.6
		c-2.1,0-3.8,1.4-4.4,3.4c-0.1,0.5-0.2,1-0.2,1.6v5.8h-1.6V148.5z"/>
	<path class="st2" d="M799.6,146.3c2.9,0,3.9,2.2,3.9,2.2l0,0c0,0,0-0.4,0-0.9v-3.9c0-0.3-0.2-0.5-0.5-0.5h-1v-1.4h1.7
		c1,0,1.5,0.4,1.5,1.5v13.4c0,0.4,0.2,0.5,0.5,0.5h1v1.4H805c-1,0-1.4-0.5-1.4-1.3c0-0.5,0-0.8,0-0.8l0,0c0,0-1,2.4-4.1,2.4
		c-3.2,0-5.2-2.6-5.2-6.3C794.2,148.8,796.5,146.3,799.6,146.3z M803.6,152.6c0-2.4-1.2-4.8-3.8-4.8c-2.1,0-3.9,1.8-3.9,4.8
		s1.6,4.8,3.8,4.8C801.7,157.4,803.6,156,803.6,152.6z"/>
	<path class="st2" d="M809.5,148.5c0-0.3-0.2-0.5-0.5-0.5h-1v-1.4h1.7c1,0,1.5,0.4,1.5,1.5v8.6c0,0.4,0.2,0.5,0.5,0.5h1v1.4H811
		c-1,0-1.5-0.4-1.5-1.5V148.5z M809.4,141.8h1.6v2.1h-1.6V141.8z"/>
	<path class="st2" d="M820.7,151h1.4c0,0,0-0.4,0-0.8c0-0.5,0-1.1,0-1.1h-1.4v-1.2h1.6c0.9-3.7,4.1-6.3,8-6.3c1.3,0,2.2,0.3,2.2,0.3
		l-0.4,1.6c0,0-0.9-0.3-1.8-0.3c-3.1,0-5.4,1.9-6.2,4.8h7.2l-0.2,1.2h-7.3c0,0-0.1,0.5-0.1,1c0,0.3,0,0.9,0,0.9h6.9l-0.2,1.2H824
		c0.7,3,3.1,5.1,6.3,5.1c1.2,0,2.1-0.3,2.1-0.3l0.4,1.5c0,0-1.1,0.4-2.6,0.4c-4.1,0-7.2-2.7-8.1-6.6h-1.5L820.7,151L820.7,151z"/>
	<path class="st5" d="M78.9,96.9c0-4.4-3.2-7.8-8.5-7.8c-4.1,0-7.4,2.1-7.4,4.5v1.9h-3.9v-3.1c0-5.2,7.1-7.3,11.4-7.3
		c7.9,0,12.6,5.2,12.6,11.6c0,14.6-21.9,14.2-21.9,25.7c0,0.8,0.5,1.2,1.4,1.2h17.3c0.8,0,1.3-0.4,1.3-1.3v-2.8H85v4.1
		c0,2.5-1.1,3.6-3.6,3.6H60.7c-2.8,0-3.7-1.2-3.7-4.1C56.9,107.9,78.9,109.1,78.9,96.9z"/>
	<path class="st5" d="M90.9,106.6c0-11.9,3.5-21.4,14.3-21.4s14.3,9.5,14.3,21.4c0,12-3.5,21.5-14.3,21.5S90.9,118.6,90.9,106.6z
		 M115.2,106.6c0-9.8-2.2-17.6-10.1-17.6C97.3,89,95,96.7,95,106.6s2.2,17.6,10.1,17.6S115.2,116.5,115.2,106.6z"/>
	<path class="st5" d="M125.8,123.7h9.3V93.3c0-1.2,0.1-2.3,0.1-2.3H135c0,0-0.4,0.9-2.1,2.5l-4.4,4.4l-2.6-2.7l9.4-9.3h3.9v37.8h9.1
		v3.7h-22.5V123.7z"/>
	<path class="st5" d="M151.9,109.1c0-10.6,5.4-23.9,18.2-23.9c4.5,0,7.6,1.7,7.6,1.7l-1.5,3.6c0,0-2.6-1.5-6-1.5
		c-8.7,0-13.1,8.7-13.9,17h0.1c1.9-3.2,6.2-5,10.6-5c7.5,0,12.9,5.4,12.9,13.1c0,8.6-5.8,13.9-13,13.9
		C157.9,128.1,151.9,120,151.9,109.1z M166.9,124.2c5.6,0,8.9-4.2,8.9-10s-3.7-9.5-9.4-9.5c-5.5,0-10,3.7-10,7.1
		C156.4,117.3,160.7,124.2,166.9,124.2z"/>
	<path class="st2" d="M72.6,156.2h0.9c0.3,0,0.5-0.2,0.5-0.5l1.2-14.6h1.7l4.4,9.6c0.4,0.8,0.8,2,0.8,2l0,0c0,0,0.4-1.1,0.8-2
		l4.4-9.6H89l1.2,14.6c0,0.4,0.2,0.5,0.5,0.5h0.9v1.5H90c-1,0-1.4-0.4-1.4-1.4l-0.8-10.1c-0.1-0.9-0.1-2.3-0.1-2.3l0,0
		c0,0-0.4,1.5-0.8,2.3l-3.9,8.4h-1.5l-3.9-8.4c-0.4-0.8-0.9-2.4-0.9-2.4l0,0c0,0,0,1.5-0.1,2.4l-0.8,10.1c-0.1,1-0.4,1.4-1.4,1.4
		h-1.6v-1.5H72.6z"/>
	<path class="st2" d="M94.2,147.7c0-0.3-0.2-0.5-0.5-0.5h-1v-1.4h1.7c1,0,1.4,0.4,1.4,1.4v8.5c0,0.4,0.2,0.5,0.5,0.5h1v1.4h-1.7
		c-1,0-1.4-0.4-1.4-1.4V147.7z M94.1,141.1h1.6v2h-1.6V141.1z"/>
	<path class="st2" d="M100,147.7c0-0.3-0.2-0.5-0.5-0.5h-1v-1.4h1.7c1,0,1.4,0.4,1.4,1.3v0.5c0,0.5,0,0.8,0,0.8l0,0
		c0.4-1.1,1.9-3,4.7-3c2.9,0,4,1.7,4,4.6v5.6c0,0.4,0.2,0.5,0.5,0.5h1v1.4h-1.7c-1,0-1.4-0.4-1.4-1.4v-5.7c0-1.9-0.3-3.5-2.6-3.5
		c-2,0-3.8,1.4-4.3,3.3c-0.1,0.5-0.2,1-0.2,1.6v5.7H100V147.7z"/>
	<path class="st2" d="M125,145.5c2.9,0,3.9,2.2,3.9,2.2l0,0c0,0,0-0.4,0-0.9V143c0-0.3-0.2-0.5-0.5-0.5h-1v-1.4h1.7
		c1,0,1.4,0.4,1.4,1.4v13.2c0,0.4,0.2,0.5,0.5,0.5h1v1.4h-1.7c-1,0-1.4-0.4-1.4-1.3c0-0.4,0-0.8,0-0.8l0,0c0,0-1,2.4-4.1,2.4
		c-3.2,0-5.2-2.5-5.2-6.2C119.7,148,121.9,145.5,125,145.5z M128.9,151.7c0-2.4-1.2-4.8-3.8-4.8c-2.1,0-3.8,1.8-3.8,4.8
		c0,2.9,1.5,4.8,3.7,4.8C127,156.5,128.9,155.1,128.9,151.7z"/>
	<path class="st2" d="M134.7,147.7c0-0.3-0.2-0.5-0.5-0.5h-1v-1.4h1.7c1,0,1.4,0.4,1.4,1.4v8.5c0,0.4,0.2,0.5,0.5,0.5h1v1.4h-1.7
		c-1,0-1.4-0.4-1.4-1.4V147.7z M134.7,141.1h1.6v2h-1.6V141.1z"/>
	<path class="st2" d="M145.8,150.2h1.3c0,0,0-0.4,0-0.8s0-1.1,0-1.1h-1.3v-1.2h1.6c0.9-3.7,4-6.3,7.9-6.3c1.2,0,2.2,0.3,2.2,0.3
		l-0.4,1.5c0,0-0.8-0.3-1.8-0.3c-3,0-5.3,1.9-6.1,4.7h7.1l-0.2,1.2h-7.2c0,0-0.1,0.5-0.1,1c0,0.3,0,0.9,0,0.9h6.9l-0.2,1.2h-6.4
		c0.7,2.9,3.1,5,6.2,5c1.2,0,2.1-0.3,2.1-0.3l0.4,1.5c0,0-1.1,0.4-2.5,0.4c-4,0-7.1-2.7-8-6.6h-1.5V150.2z"/>
	<g>
		<path class="st1" d="M43.5,340.6c0,0,2.2,1.2,5,1.2c7.2,0,10.9-7.3,11.5-14.2h-0.1c-1.6,2.7-5.2,4.2-8.8,4.2
			c-6.3,0-10.7-4.5-10.7-10.9c0-7.2,4.8-11.5,10.8-11.5c7.5,0,12.5,6.7,12.5,15.7c0,8.8-4.5,19.9-15.2,19.9c-3.8,0-6.3-1.4-6.3-1.4
			L43.5,340.6z M60,322.9c0-4.6-3.6-10.4-8.7-10.4c-4.7,0-7.4,3.5-7.4,8.3s3.1,7.9,7.8,7.9C56.3,328.8,60,325.7,60,322.9z"/>
		<path class="st1" d="M68.9,341.4h7.7v-25.3c0-1,0-1.9,0-1.9h-0.1c0,0-0.3,0.7-1.7,2.1l-3.7,3.7l-2.2-2.2l7.8-7.8h3.2v31.4h7.6v3
			H68.8v-3H68.9z"/>
		<path class="st1" d="M92.3,341.4h7.7v-25.3c0-1,0-1.9,0-1.9h-0.1c0,0-0.3,0.7-1.7,2.1l-3.7,3.7l-2.2-2.2l7.8-7.8h3.2v31.4h7.6v3
			H92.2v-3H92.3z"/>
		<path class="st1" d="M115.9,340.5h3.8v3.9h-3.8V340.5z"/>
		<path class="st1" d="M126.4,337.6c0,0,3.5,4.1,9,4.1c4.1,0,7.8-3,7.8-7.5c0-4.7-4-7.3-8.4-7.3h-2.4l-0.8-2l8.5-10.2
			c0.8-1.1,1.8-1.9,1.8-1.9v-0.1c0,0-1,0.1-2.8,0.1h-9c-0.7,0-1.1,0.3-1.1,1.1v2.3h-3.2v-3.4c0-2.1,0.8-3,2.9-3h17.5v2.3L136,324
			c4.3,0.2,10.6,2.7,10.6,10.2c0,5.8-4.9,10.7-11.4,10.7c-6.8,0-11-4.8-11-4.8L126.4,337.6z"/>
		<path class="st1" d="M152.1,341.4h7.7v-25.3c0-1,0-1.9,0-1.9h-0.1c0,0-0.3,0.7-1.7,2.1l-3.7,3.7l-2.2-2.2l7.8-7.8h3.2v31.4h7.6v3
			H152v-3H152.1z"/>
		<path class="st1" d="M192.6,319c0-3.7-2.7-6.5-7.1-6.5c-3.4,0-6.1,1.8-6.1,3.7v1.6h-3.2v-2.6c0-4.4,5.9-6,9.5-6
			c6.6,0,10.5,4.3,10.5,9.7c0,12.1-18.2,11.8-18.2,21.4c0,0.7,0.4,1,1.1,1h14.4c0.7,0,1.1-0.3,1.1-1.1V338h3.2v3.4c0,2.1-0.9,3-3,3
			h-17.3c-2.4,0-3.1-1-3.1-3.4C174.3,328.2,192.6,329.2,192.6,319z"/>
	</g>
	<g>
		<path class="st2" d="M37.3,668.9L37.3,668.9c0-0.1-4.8-2.4-4.8-7.4c0-4.9,3.8-9.2,10.6-9.2c6.7,0,10.8,3.9,10.8,9.4
			c0,5.4-4.7,8.7-4.7,8.7v0.1c3.3,1.7,5.7,4,5.7,8.1c0,5.5-5.1,10.2-11.9,10.2c-6.2,0-12-3.9-12-10.5
			C31,672.1,37.3,668.9,37.3,668.9z M43,685.5c4.2,0,8.2-2.9,8.2-7c0-3.7-3-5.1-6.7-6.6c-1.3-0.6-3.7-1.4-4.1-1.4
			c-1.4,0-5.8,3.2-5.8,7.6C34.6,682.7,38.7,685.5,43,685.5z M45.9,668.9c1.3,0,4.5-3.5,4.5-7.1c0-3.8-3-6.2-7.3-6.2
			c-4.5,0-7.1,2.7-7.1,6c0,3.7,3.1,5.1,6.8,6.4C43.6,668.3,45.3,668.9,45.9,668.9z"/>
		<path class="st2" d="M65.9,668.9L65.9,668.9c0-0.1-4.8-2.4-4.8-7.4c0-4.9,3.8-9.2,10.6-9.2c6.7,0,10.8,3.9,10.8,9.4
			c0,5.4-4.7,8.7-4.7,8.7v0.1c3.3,1.7,5.7,4,5.7,8.1c0,5.5-5.1,10.2-11.9,10.2c-6.2,0-12-3.9-12-10.5
			C59.6,672.1,65.9,668.9,65.9,668.9z M71.6,685.5c4.2,0,8.2-2.9,8.2-7c0-3.7-3-5.1-6.7-6.6c-1.3-0.6-3.7-1.4-4.1-1.4
			c-1.4,0-5.8,3.2-5.8,7.6C63.3,682.7,67.3,685.5,71.6,685.5z M74.6,668.9c1.3,0,4.5-3.5,4.5-7.1c0-3.8-3-6.2-7.3-6.2
			c-4.5,0-7.1,2.7-7.1,6c0,3.7,3.1,5.1,6.8,6.4C72.2,668.3,73.9,668.9,74.6,668.9z"/>
		<path class="st2" d="M90.8,681.3c0,0,2.7,4.2,8.2,4.2c5,0,8.8-3.6,8.8-8.2c0-4.9-4.1-8.3-9.1-8.3c-4,0-6.8,2-6.8,2l-1.8-0.8
			l1.5-14.2c0.2-2.2,0.9-3.1,3.1-3.1h11.6c2.1,0,3,0.9,3,3.1v3.5H106v-2.4c0-0.8-0.4-1.1-1.1-1.1H96c-0.7,0-1,0.4-1.1,1.1l-0.9,8
			c-0.2,1.3-0.3,2-0.3,2h0.1c0,0,2.2-1.3,5.3-1.3c7.2,0,12.4,5.1,12.4,11.5c0,6.3-5.2,11.5-12.4,11.5c-7,0-10.4-5-10.4-5L90.8,681.3
			z"/>
		<path class="st2" d="M117.3,684.2h3.9v4h-3.9V684.2z"/>
		<path class="st2" d="M129.7,684.3c0,0,2.2,1.3,5.1,1.3c7.4,0,11.2-7.4,11.8-14.6h-0.1c-1.7,2.8-5.3,4.3-9,4.3
			c-6.4,0-10.9-4.6-10.9-11.2c0-7.3,4.9-11.8,11-11.8c7.7,0,12.8,6.9,12.8,16.1c0,9-4.6,20.4-15.5,20.4c-3.9,0-6.5-1.5-6.5-1.5
			L129.7,684.3z M146.6,666.1c0-4.7-3.7-10.6-8.9-10.6c-4.8,0-7.6,3.6-7.6,8.5s3.2,8.1,8,8.1C142.8,672.2,146.6,669,146.6,666.1z"/>
		<path class="st2" d="M157.4,681.3c0,0,2.7,4.2,8.2,4.2c5,0,8.8-3.6,8.8-8.2c0-4.9-4.1-8.3-9.1-8.3c-4,0-6.8,2-6.8,2l-1.8-0.8
			l1.5-14.2c0.2-2.2,0.9-3.1,3.1-3.1h11.6c2.1,0,3,0.9,3,3.1v3.5h-3.3v-2.4c0-0.8-0.4-1.1-1.1-1.1h-8.9c-0.7,0-1,0.4-1.1,1.1l-0.9,8
			c-0.2,1.3-0.3,2-0.3,2h0.1c0,0,2.2-1.3,5.3-1.3c7.2,0,12.4,5.1,12.4,11.5c0,6.3-5.2,11.5-12.4,11.5c-7,0-10.4-5-10.4-5
			L157.4,681.3z"/>
		<path class="st2" d="M186.2,684.3c0,0,2.2,1.3,5.1,1.3c7.4,0,11.2-7.4,11.8-14.6H203c-1.7,2.8-5.3,4.3-9,4.3
			c-6.4,0-10.9-4.6-10.9-11.2c0-7.3,4.9-11.8,11-11.8c7.7,0,12.8,6.9,12.8,16.1c0,9-4.6,20.4-15.5,20.4c-3.9,0-6.5-1.5-6.5-1.5
			L186.2,684.3z M203.1,666.1c0-4.7-3.7-10.6-8.9-10.6c-4.8,0-7.6,3.6-7.6,8.5s3.2,8.1,8,8.1C199.3,672.2,203.1,669,203.1,666.1z"/>
	</g>
	<g>
		<path class="st1" d="M66.5,1008.9c0-3.7-2.7-6.5-7.1-6.5c-3.4,0-6.1,1.8-6.1,3.7v1.6h-3.2v-2.5c0-4.4,5.9-6,9.5-6
			c6.6,0,10.5,4.3,10.5,9.6c0,12.1-18.2,11.8-18.2,21.4c0,0.7,0.4,1,1.1,1h14.4c0.7,0,1.1-0.3,1.1-1.1v-2.3h3.2v3.4c0,2.1-0.9,3-3,3
			H51.5c-2.3,0-3.1-1-3.1-3.4C48.3,1018.1,66.5,1019.1,66.5,1008.9z"/>
		<path class="st1" d="M78.7,1027.5c0,0,2.6,4.1,8,4.1c4.9,0,8.6-3.5,8.6-8c0-4.7-4-8.1-8.9-8.1c-3.9,0-6.6,1.9-6.6,1.9l-1.8-0.7
			l1.5-13.9c0.2-2.1,0.9-3,3-3h11.3c2.1,0,2.9,0.9,2.9,3v3.4h-3.2v-2.3c0-0.7-0.4-1.1-1.1-1.1h-8.7c-0.7,0-1,0.3-1.1,1.1l-0.9,7.8
			c-0.1,1.2-0.3,2-0.3,2h0.1c0,0,2.2-1.3,5.2-1.3c7,0,12,5,12,11.2c0,6.1-5.1,11.2-12.1,11.2c-6.9,0-10.1-4.9-10.1-4.9L78.7,1027.5z
			"/>
		<path class="st1" d="M104.5,1030.3h3.8v3.9h-3.8V1030.3z"/>
		<path class="st1" d="M115,1027.5c0,0,3.5,4.1,9,4.1c4.1,0,7.8-3,7.8-7.4c0-4.7-4-7.2-8.4-7.2H121l-0.8-2l8.5-10.2
			c0.8-1.1,1.8-1.9,1.8-1.9v-0.1c0,0-1,0.1-2.8,0.1h-9c-0.7,0-1.1,0.3-1.1,1.1v2.3h-3.2v-3.4c0-2.1,0.8-3,2.9-3h17.5v2.3l-10.1,11.9
			c4.3,0.2,10.6,2.7,10.6,10.1c0,5.8-4.8,10.7-11.4,10.7c-6.8,0-11-4.8-11-4.8L115,1027.5z"/>
		<path class="st1" d="M142.3,1027.5c0,0,2.6,4.1,8,4.1c4.9,0,8.6-3.5,8.6-8c0-4.7-4-8.1-8.9-8.1c-3.9,0-6.6,1.9-6.6,1.9l-1.8-0.7
			l1.5-13.9c0.2-2.1,0.9-3,3-3h11.3c2.1,0,2.9,0.9,2.9,3v3.4h-3.2v-2.3c0-0.7-0.4-1.1-1.1-1.1h-8.7c-0.7,0-1,0.3-1.1,1.1l-0.9,7.8
			c-0.1,1.2-0.3,2-0.3,2h0.1c0,0,2.2-1.3,5.2-1.3c7,0,12,5,12,11.2c0,6.1-5.1,11.2-12.1,11.2c-6.9,0-10.1-4.9-10.1-4.9L142.3,1027.5
			z"/>
		<path class="st1" d="M168.3,1027.5c0,0,3.5,4.1,9,4.1c4.1,0,7.8-3,7.8-7.4c0-4.7-4-7.2-8.4-7.2h-2.4l-0.8-2l8.5-10.2
			c0.8-1.1,1.8-1.9,1.8-1.9v-0.1c0,0-1,0.1-2.8,0.1h-9c-0.7,0-1.1,0.3-1.1,1.1v2.3h-3.2v-3.4c0-2.1,0.8-3,2.9-3h17.5v2.3L178,1014
			c4.3,0.2,10.6,2.7,10.6,10.1c0,5.8-4.8,10.7-11.4,10.7c-6.8,0-11-4.8-11-4.8L168.3,1027.5z"/>
	</g>
	<g>
		<path class="st1" d="M707.2,340.6c0,0,2.1,1.2,4.9,1.2c7.1,0,10.8-7.2,11.4-14.1h-0.1c-1.6,2.7-5.1,4.2-8.7,4.2
			c-6.2,0-10.6-4.5-10.6-10.8c0-7.1,4.7-11.4,10.7-11.4c7.4,0,12.3,6.6,12.3,15.6c0,8.7-4.4,19.7-15,19.7c-3.7,0-6.3-1.4-6.3-1.4
			L707.2,340.6z M723.6,323.1c0-4.5-3.5-10.2-8.6-10.2c-4.6,0-7.3,3.5-7.3,8.2c0,4.8,3.1,7.9,7.7,7.9
			C719.9,328.9,723.6,325.9,723.6,323.1z"/>
		<path class="st1" d="M732.3,341.4h7.6v-25c0-1,0-1.9,0-1.9h-0.1c0,0-0.3,0.7-1.7,2l-3.6,3.6l-2.1-2.2l7.7-7.7h3.2v31.1h7.5v3
			h-18.5L732.3,341.4L732.3,341.4z"/>
		<path class="st1" d="M756.9,340.6c0,0,2.1,1.2,4.9,1.2c7.1,0,10.8-7.2,11.4-14.1h-0.1c-1.6,2.7-5.1,4.2-8.7,4.2
			c-6.2,0-10.6-4.5-10.6-10.8c0-7.1,4.7-11.4,10.7-11.4c7.4,0,12.3,6.6,12.3,15.6c0,8.7-4.4,19.7-15,19.7c-3.7,0-6.3-1.4-6.3-1.4
			L756.9,340.6z M773.2,323.1c0-4.5-3.5-10.2-8.6-10.2c-4.6,0-7.3,3.5-7.3,8.2c0,4.8,3.1,7.9,7.7,7.9
			C769.6,328.9,773.2,325.9,773.2,323.1z"/>
		<path class="st1" d="M780.4,340.5h3.7v3.9h-3.7V340.5z"/>
		<path class="st1" d="M807.5,319.3c0-3.6-2.7-6.4-7-6.4c-3.4,0-6.1,1.7-6.1,3.7v1.6h-3.2v-2.5c0-4.3,5.9-6,9.4-6
			c6.5,0,10.4,4.3,10.4,9.6c0,12-18,11.7-18,21.1c0,0.7,0.4,1,1.1,1h14.3c0.7,0,1.1-0.3,1.1-1.1V338h3.2v3.4c0,2.1-0.9,3-3,3h-17.1
			c-2.3,0-3.1-1-3.1-3.3C789.5,328.4,807.5,329.4,807.5,319.3z"/>
		<path class="st1" d="M819,340.6c0,0,2.1,1.2,4.9,1.2c7.1,0,10.8-7.2,11.4-14.1h-0.1c-1.6,2.7-5.1,4.2-8.7,4.2
			c-6.2,0-10.6-4.5-10.6-10.8c0-7.1,4.7-11.4,10.7-11.4c7.4,0,12.3,6.6,12.3,15.6c0,8.7-4.4,19.7-15,19.7c-3.7,0-6.3-1.4-6.3-1.4
			L819,340.6z M835.4,323.1c0-4.5-3.5-10.2-8.6-10.2c-4.6,0-7.3,3.5-7.3,8.2c0,4.8,3.1,7.9,7.7,7.9
			C831.7,328.9,835.4,325.9,835.4,323.1z"/>
		<path class="st1" d="M845.9,337.8c0,0,2.6,4,7.9,4c4.8,0,8.5-3.4,8.5-8c0-4.7-3.9-8-8.8-8c-3.8,0-6.5,1.9-6.5,1.9l-1.7-0.7
			l1.5-13.7c0.2-2.1,0.9-3,3-3H861c2,0,2.9,0.9,2.9,3v3.4h-3.2v-2.3c0-0.7-0.4-1.1-1.1-1.1H851c-0.7,0-1,0.3-1.1,1.1l-0.9,7.7
			c-0.1,1.2-0.3,1.9-0.3,1.9h0.1c0,0,2.1-1.3,5.1-1.3c6.9,0,11.9,4.9,11.9,11.1c0,6.1-5,11.1-12,11.1c-6.8,0-10-4.9-10-4.9
			L845.9,337.8z"/>
	</g>
	<g>
		<path class="st2" d="M699,684.6c0,0,2.2,1.2,5.1,1.2c7.3,0,11.1-7.4,11.7-14.4h-0.1c-1.6,2.7-5.3,4.3-8.9,4.3
			c-6.4,0-10.8-4.6-10.8-11.1c0-7.3,4.8-11.7,10.9-11.7c7.6,0,12.6,6.8,12.6,16c0,8.9-4.5,20.2-15.4,20.2c-3.8,0-6.4-1.4-6.4-1.4
			L699,684.6z M715.8,666.7c0-4.6-3.6-10.5-8.9-10.5c-4.7,0-7.5,3.6-7.5,8.4c0,4.9,3.1,8.1,7.9,8.1
			C712,672.6,715.8,669.5,715.8,666.7z"/>
		<path class="st2" d="M724.3,671c0-10,2.9-18.1,12-18.1s12.1,8,12.1,18.1s-3,18.1-12.1,18.1C727.3,689.1,724.3,681.1,724.3,671z
			 M744.9,671c0-8.3-1.9-14.8-8.5-14.8s-8.5,6.5-8.5,14.8c0,8.4,1.9,14.9,8.5,14.9S744.9,679.4,744.9,671z"/>
		<path class="st2" d="M771.4,662.8c0-3.7-2.7-6.6-7.2-6.6c-3.5,0-6.2,1.8-6.2,3.8v1.6h-3.3V659c0-4.4,6-6.1,9.6-6.1
			c6.7,0,10.6,4.4,10.6,9.8c0,12.3-18.5,12-18.5,21.7c0,0.7,0.4,1,1.1,1h14.6c0.7,0,1.1-0.3,1.1-1.1V682h3.2v3.5c0,2.1-0.9,3-3,3
			H756c-2.4,0-3.1-1-3.1-3.4C752.9,672.1,771.4,673.1,771.4,662.8z"/>
		<path class="st2" d="M782.3,684.5h3.8v4h-3.8V684.5z"/>
		<path class="st2" d="M791.5,671c0-10,2.9-18.1,12-18.1s12.1,8,12.1,18.1s-3,18.1-12.1,18.1S791.5,681.1,791.5,671z M812,671
			c0-8.3-1.9-14.8-8.5-14.8s-8.5,6.5-8.5,14.8c0,8.4,1.9,14.9,8.5,14.9S812,679.4,812,671z"/>
		<path class="st2" d="M821.4,671c0-10,2.9-18.1,12-18.1s12.1,8,12.1,18.1s-3,18.1-12.1,18.1S821.4,681.1,821.4,671z M841.9,671
			c0-8.3-1.9-14.8-8.5-14.8s-8.5,6.5-8.5,14.8c0,8.4,1.9,14.9,8.5,14.9S841.9,679.4,841.9,671z"/>
		<path class="st2" d="M856.4,669.4L856.4,669.4c0-0.1-4.8-2.3-4.8-7.3c0-4.8,3.8-9.1,10.5-9.1c6.6,0,10.7,3.9,10.7,9.3
			c0,5.3-4.7,8.7-4.7,8.7v0.1c3.3,1.7,5.6,3.9,5.6,8c0,5.5-5.1,10.1-11.7,10.1c-6.2,0-11.9-3.8-11.9-10.4
			C850.2,672.5,856.4,669.4,856.4,669.4z M862.1,685.9c4.1,0,8.2-2.8,8.2-6.9c0-3.6-3-5.1-6.7-6.6c-1.3-0.5-3.7-1.4-4.1-1.4
			c-1.3,0-5.7,3.2-5.7,7.5C853.8,683.1,857.8,685.9,862.1,685.9z M865,669.4c1.2,0,4.4-3.4,4.4-7.1c0-3.8-3-6.2-7.2-6.2
			c-4.4,0-7.1,2.6-7.1,5.9c0,3.7,3.1,5,6.7,6.4C862.6,668.8,864.3,669.4,865,669.4z"/>
	</g>
	<g>
		<path class="st1" d="M723.1,1030.7h7.6v-24.9c0-1,0-1.9,0-1.9h-0.1c0,0-0.3,0.7-1.7,2l-3.6,3.6l-2.1-2.2l7.7-7.6h3.2v30.9h7.4v3
			h-18.4L723.1,1030.7L723.1,1030.7z"/>
		<path class="st1" d="M761,1005.9c1-1.8,1.9-3.1,1.9-3.1v-0.1c0,0-0.9,0.1-2.6,0.1h-12.2c-0.7,0-1.1,0.3-1.1,1.1v2.3h-3.2v-3.4
			c0-2.1,0.8-2.9,2.9-2.9h20v2.3l-16.8,31.5h-3.8L761,1005.9z"/>
		<path class="st1" d="M764.7,1029.8h3.7v3.9h-3.7V1029.8z"/>
		<path class="st1" d="M791.7,1008.8c0-3.6-2.6-6.4-6.9-6.4c-3.4,0-6,1.7-6,3.7v1.6h-3.2v-2.5c0-4.3,5.8-5.9,9.3-5.9
			c6.5,0,10.3,4.2,10.3,9.5c0,11.9-17.9,11.6-17.9,21c0,0.7,0.4,1,1.1,1h14.2c0.7,0,1.1-0.3,1.1-1.1v-2.3h3.1v3.4
			c0,2.1-0.9,2.9-2.9,2.9h-17c-2.3,0-3-1-3-3.3C773.8,1017.8,791.7,1018.8,791.7,1008.8z"/>
		<path class="st1" d="M807.2,1015.2L807.2,1015.2c0-0.1-4.6-2.3-4.6-7.1c0-4.7,3.7-8.9,10.2-8.9c6.4,0,10.4,3.8,10.4,9
			s-4.5,8.4-4.5,8.4v0.1c3.2,1.6,5.4,3.8,5.4,7.8c0,5.3-4.9,9.8-11.4,9.8c-6,0-11.5-3.7-11.5-10.1
			C801.2,1018.2,807.2,1015.2,807.2,1015.2z M812.7,1031.1c4,0,7.9-2.7,7.9-6.7c0-3.5-2.9-4.9-6.5-6.4c-1.3-0.5-3.6-1.3-3.9-1.3
			c-1.3,0-5.5,3.1-5.5,7.3C804.6,1028.4,808.5,1031.1,812.7,1031.1z M815.5,1015.2c1.2,0,4.3-3.3,4.3-6.8c0-3.7-2.9-6-7-6
			c-4.3,0-6.8,2.6-6.8,5.7c0,3.6,3,4.9,6.5,6.2C813.2,1014.6,814.8,1015.2,815.5,1015.2z"/>
		<path class="st1" d="M844.3,1005.9c1-1.8,1.9-3.1,1.9-3.1v-0.1c0,0-0.9,0.1-2.6,0.1h-12.2c-0.7,0-1.1,0.3-1.1,1.1v2.3h-3.2v-3.4
			c0-2.1,0.8-2.9,2.9-2.9h20v2.3l-16.8,31.5h-3.8L844.3,1005.9z"/>
	</g>
	<g>
		<path class="st6" d="M393.8,265.7c-0.2-0.6-0.6-0.7-1.2-0.7h-0.3v-2h1c1.6,0,2.1,0.3,2.7,1.9l5.6,15.4c0.4,1.2,0.9,3,0.9,3h0.1
			c0,0,0.5-1.8,0.9-3l5.6-15.4c0.6-1.6,1.1-1.9,2.7-1.9h1v2h-0.3c-0.6,0-0.9,0.1-1.2,0.7l-7.5,20.2h-2.4L393.8,265.7z"/>
		<path class="st6" d="M412.5,283.8h0.4c0.6,0,0.9-0.1,1.2-0.7l7.5-20.2h2.4l7.5,20.2c0.2,0.6,0.6,0.7,1.2,0.7h0.4v2h-1
			c-1.6,0-2.1-0.3-2.7-1.9l-2-5.4h-9.1l-2,5.4c-0.6,1.6-1,1.9-2.7,1.9h-1.1L412.5,283.8L412.5,283.8z M426.7,276.6l-3-8.2
			c-0.4-1.1-0.9-3-0.9-3h-0.1c0,0-0.5,1.9-0.9,3l-3,8.2H426.7z"/>
		<path class="st6" d="M437,265.7c0-0.5-0.3-0.7-0.7-0.7h-1.4v-2h2.4c1.4,0,2,0.6,2,2v18.2c0,0.5,0.3,0.7,0.7,0.7h7.6
			c0.5,0,0.7-0.2,0.7-0.7v-1.5h2.2v2.3c0,1.4-0.6,2-2,2H439c-1.4,0-2-0.6-2-2V265.7z"/>
		<path class="st6" d="M463,262.6c6.5,0,11.7,5.1,11.7,11.7c0,6.7-5.2,12-11.7,12s-11.7-5.3-11.7-12
			C451.4,267.7,456.5,262.6,463,262.6z M463,284.1c5.1,0,9.3-4.3,9.3-9.8c0-5.4-4.2-9.5-9.3-9.5s-9.3,4.1-9.3,9.5
			C453.7,279.8,457.9,284.1,463,284.1z"/>
		<path class="st6" d="M479.4,265h-2.1v-2h9.7c3.8,0,6.6,2.5,6.6,6.5c0,3.6-2.2,5.6-4.4,6.1v0.1c0,0,0.5,0.3,0.8,0.9l3.3,6.5
			c0.3,0.7,0.8,0.7,1.6,0.7h0.5v2h-1c-1.9,0-2.4-0.2-3.2-1.7l-3.3-6.5c-0.6-1.2-1-1.4-2.3-1.4h-3.8v9.6h-2.3L479.4,265L479.4,265z
			 M486.8,274.2c2.7,0,4.4-1.8,4.4-4.7c0-2.8-1.7-4.6-4.4-4.6h-5.1v9.2h5.1V274.2z"/>
		<path class="st6" d="M499.1,265H497v-2h13.1c1.4,0,2,0.6,2,2v2.3h-2.2v-1.5c0-0.5-0.3-0.7-0.7-0.7h-7.8v8.3h8.6v2h-8.6v7.8
			c0,0.5,0.3,0.7,0.7,0.7h8c0.5,0,0.7-0.2,0.7-0.7v-1.5h2.1v2.3c0,1.4-0.6,2-2,2H501c-1.4,0-2-0.6-2-2v-19H499.1z"/>
		<path class="st6" d="M355.2,300.4h-2.1v-2h13.1c1.4,0,2,0.6,2,2v2.3H366v-1.5c0-0.5-0.3-0.7-0.7-0.7h-7.8v8.3h8.6v2h-8.6v7.8
			c0,0.5,0.3,0.7,0.7,0.7h8c0.5,0,0.7-0.2,0.7-0.7V317h2.1v2.3c0,1.4-0.6,2-2,2h-9.9c-1.4,0-2-0.6-2-2v-18.9H355.2z"/>
		<path class="st6" d="M382.5,298c3.3,0,8.6,1.4,8.6,4.9v1.9h-2.2v-1.3c0-2.2-3.7-3.3-6.4-3.3c-5.1,0-9,4-9,9.5s3.9,9.9,9.1,9.9
			c4.7,0,7.5-3.2,7.5-3.2l1.3,1.7c0,0-3.2,3.7-8.8,3.7c-6.7,0-11.4-5.3-11.4-12C371.2,303,376,298,382.5,298z"/>
		<path class="st6" d="M405.3,298c6.5,0,11.7,5.1,11.7,11.7c0,6.7-5.2,12-11.7,12s-11.7-5.3-11.7-12
			C393.6,303.1,398.8,298,405.3,298z M405.3,319.5c5.1,0,9.3-4.3,9.3-9.8c0-5.4-4.2-9.5-9.3-9.5s-9.3,4.1-9.3,9.5
			C396,315.2,400.1,319.5,405.3,319.5z"/>
		<path class="st6" d="M419.5,319.2h1.4c0.5,0,0.7-0.2,0.7-0.7v-20.2h2.1l11.7,16.3c0.8,1.1,1.9,3,1.9,3h0.1c0,0-0.2-1.8-0.2-3
			v-14.3c0-1.4,0.6-2,2-2h2.4v2h-1.4c-0.5,0-0.7,0.2-0.7,0.7v20.2h-2.1l-11.7-16.3c-0.8-1.1-1.9-3-1.9-3h-0.1c0,0,0.2,1.8,0.2,3
			v14.3c0,1.4-0.6,2-2,2h-2.4V319.2z"/>
		<path class="st6" d="M455.8,298c6.5,0,11.7,5.1,11.7,11.7c0,6.7-5.2,12-11.7,12s-11.7-5.3-11.7-12
			C444.1,303.1,449.3,298,455.8,298z M455.8,319.5c5.1,0,9.3-4.3,9.3-9.8c0-5.4-4.2-9.5-9.3-9.5s-9.3,4.1-9.3,9.5
			C446.5,315.2,450.7,319.5,455.8,319.5z"/>
		<path class="st6" d="M469.4,319.2h1.2c0.5,0,0.7-0.2,0.7-0.7l1.6-20.2h2.3l6.1,13.3c0.6,1.2,1.1,2.7,1.1,2.7h0.1
			c0,0,0.6-1.5,1.1-2.7l6.1-13.3h2.3l1.6,20.2c0,0.5,0.3,0.7,0.7,0.7h1.2v2h-2.2c-1.4,0-1.9-0.6-2-2l-1.1-13.9
			c-0.1-1.2-0.1-3.2-0.1-3.2H490c0,0-0.6,2-1.2,3.2l-5.4,11.6h-2.1l-5.4-11.6c-0.5-1.1-1.2-3.3-1.2-3.3h-0.1c0,0,0,2-0.1,3.3
			l-1.1,13.9c-0.1,1.4-0.6,2-2,2h-2.2v-2H469.4z"/>
		<path class="st6" d="M497.7,319.2h2.2v-18.9h-2.2v-2h6.5v2H502v18.9h2.2v2h-6.5V319.2z"/>
		<path class="st6" d="M518.3,298c3.3,0,8.6,1.4,8.6,4.9v1.9h-2.2v-1.3c0-2.2-3.7-3.3-6.4-3.3c-5.1,0-9,4-9,9.5s3.9,9.9,9.1,9.9
			c4.7,0,7.5-3.2,7.5-3.2l1.3,1.7c0,0-3.2,3.7-8.8,3.7c-6.7,0-11.4-5.3-11.4-12C507,303,511.9,298,518.3,298z"/>
		<path class="st6" d="M541.1,298c6.5,0,11.7,5.1,11.7,11.7c0,6.7-5.2,12-11.7,12s-11.7-5.3-11.7-12
			C529.5,303.1,534.6,298,541.1,298z M541.1,319.5c5.1,0,9.3-4.3,9.3-9.8c0-5.4-4.2-9.5-9.3-9.5s-9.3,4.1-9.3,9.5
			C531.8,315.2,536,319.5,541.1,319.5z"/>
		<path class="st6" d="M381.2,333.4c5.3,0,8,2.8,8,2.8l-1.3,1.7c0,0-2.5-2.3-6.6-2.3c-5.1,0-9.1,4.1-9.1,9.6c0,5.6,3.9,9.7,9.1,9.7
			c4.5,0,7.2-3.4,7.2-3.4v-2.8c0-0.5-0.3-0.7-0.7-0.7h-1.4v-2h2.3c1.4,0,2,0.6,2,2v8.7h-2.1V355c0-0.5,0-1,0-1h-0.1
			c0,0-2.7,3.1-7.5,3.1c-6.3,0-11.2-5-11.2-11.9C369.8,338.6,374.7,333.4,381.2,333.4z"/>
		<path class="st6" d="M395.6,335.8h-2.1v-2h13.1c1.4,0,2,0.6,2,2v2.3h-2.2v-1.5c0-0.5-0.3-0.7-0.7-0.7h-7.8v8.3h8.6v2h-8.6v7.8
			c0,0.5,0.3,0.7,0.7,0.7h8c0.5,0,0.7-0.2,0.7-0.7v-1.5h2.1v2.3c0,1.4-0.6,2-2,2h-9.9c-1.4,0-2-0.6-2-2v-19H395.6z"/>
		<path class="st6" d="M411.7,354.7h1.4c0.5,0,0.7-0.2,0.7-0.7v-20.2h2.1l11.7,16.3c0.8,1.1,1.9,3,1.9,3h0.1c0,0-0.2-1.8-0.2-3
			v-14.3c0-1.4,0.6-2,2-2h2.4v2h-1.4c-0.5,0-0.7,0.2-0.7,0.7v20.2h-2.1l-11.7-16.3c-0.8-1.1-1.9-3-1.9-3h-0.1c0,0,0.2,1.8,0.2,3
			v14.3c0,1.4-0.6,2-2,2h-2.4V354.7z"/>
		<path class="st6" d="M438.5,335.8h-2.1v-2h13.1c1.4,0,2,0.6,2,2v2.3h-2.2v-1.5c0-0.5-0.3-0.7-0.7-0.7h-7.8v8.3h8.6v2h-8.6v7.8
			c0,0.5,0.3,0.7,0.7,0.7h8c0.5,0,0.7-0.2,0.7-0.7v-1.5h2.1v2.3c0,1.4-0.6,2-2,2h-9.9c-1.4,0-2-0.6-2-2v-19H438.5z"/>
		<path class="st6" d="M456.7,335.8h-2.1v-2h9.7c3.8,0,6.6,2.5,6.6,6.5c0,3.6-2.2,5.6-4.4,6.1v0.1c0,0,0.5,0.3,0.8,0.9l3.3,6.5
			c0.3,0.7,0.8,0.7,1.6,0.7h0.5v2h-1c-1.9,0-2.4-0.2-3.2-1.7l-3.3-6.5c-0.6-1.2-1-1.4-2.3-1.4H459v9.6h-2.3V335.8z M464.1,345
			c2.7,0,4.4-1.8,4.4-4.7c0-2.8-1.7-4.6-4.4-4.6H459v9.2L464.1,345L464.1,345z"/>
		<path class="st6" d="M473.7,354.7h0.4c0.6,0,0.9-0.1,1.2-0.7l7.5-20.2h2.4l7.5,20.2c0.2,0.6,0.6,0.7,1.2,0.7h0.4v2h-1
			c-1.6,0-2.1-0.3-2.7-1.9l-2-5.4h-9.1l-2,5.4c-0.6,1.6-1,1.9-2.7,1.9h-1.1L473.7,354.7L473.7,354.7z M487.9,347.4l-3-8.2
			c-0.4-1.1-0.9-3-0.9-3h-0.1c0,0-0.5,1.9-0.9,3l-3,8.2H487.9z"/>
		<path class="st6" d="M500.8,335.8h-5.7c-0.5,0-0.7,0.2-0.7,0.7v1.5h-2.1v-2.4c0-1.4,0.5-1.9,1.9-1.9h15.5c1.4,0,1.9,0.5,1.9,1.9
			v2.4h-2.1v-1.5c0-0.5-0.2-0.7-0.7-0.7h-5.6v20.9h-2.3v-20.9H500.8z"/>
		<path class="st6" d="M524.3,333.4c6.5,0,11.7,5.1,11.7,11.7c0,6.7-5.2,12-11.7,12s-11.7-5.3-11.7-12
			C512.7,338.5,517.8,333.4,524.3,333.4z M524.3,354.9c5.1,0,9.3-4.3,9.3-9.8c0-5.4-4.2-9.5-9.3-9.5s-9.3,4.1-9.3,9.5
			C515.1,350.6,519.2,354.9,524.3,354.9z"/>
		<path class="st6" d="M356.1,371.2H354v-2h9.2c6.9,0,11.5,4.2,11.5,11.4c0,7.3-4.6,11.5-11.5,11.5H358c-1.4,0-2-0.6-2-2
			L356.1,371.2L356.1,371.2z M359,390.1h3.8c5.6,0,9.4-3.3,9.4-9.4c0-6.1-3.7-9.4-9.4-9.4h-4.6v18.1
			C358.3,389.9,358.6,390.1,359,390.1z"/>
		<path class="st6" d="M375.8,390.1h0.4c0.6,0,0.9-0.1,1.2-0.7l7.5-20.2h2.4l7.5,20.2c0.2,0.6,0.6,0.7,1.2,0.7h0.4v2h-1
			c-1.6,0-2.1-0.3-2.7-1.9l-2-5.4h-9.1l-2,5.4c-0.6,1.6-1,1.9-2.7,1.9h-1.1L375.8,390.1L375.8,390.1z M390.1,382.8l-3-8.2
			c-0.4-1.1-0.9-3-0.9-3h-0.1c0,0-0.5,1.9-0.9,3l-3,8.2H390.1z"/>
		<path class="st6" d="M400.3,371.9c0-0.5-0.3-0.7-0.7-0.7h-1.4v-2h2.4c1.4,0,2,0.6,2,2v18.2c0,0.5,0.3,0.7,0.7,0.7h7.6
			c0.5,0,0.7-0.2,0.7-0.7v-1.5h2.2v2.3c0,1.4-0.6,2-2,2h-9.5c-1.4,0-2-0.6-2-2V371.9z"/>
		<path class="st6" d="M435.7,368.8c5.3,0,8,2.8,8,2.8l-1.3,1.7c0,0-2.5-2.3-6.6-2.3c-5.1,0-9.1,4.1-9.1,9.6c0,5.6,3.9,9.7,9.1,9.7
			c4.5,0,7.2-3.4,7.2-3.4v-2.8c0-0.5-0.3-0.7-0.7-0.7h-1.4v-2h2.3c1.4,0,2,0.6,2,2v8.7H443v-1.7c0-0.5,0-1,0-1l0,0
			c0,0-2.7,3.1-7.5,3.1c-6.3,0-11.2-5-11.2-11.9C424.3,374,429.2,368.8,435.7,368.8z"/>
		<path class="st6" d="M450.1,371.2H448v-2h9.7c3.8,0,6.6,2.5,6.6,6.5c0,3.6-2.2,5.6-4.4,6.1v0.1c0,0,0.5,0.3,0.8,0.9l3.3,6.5
			c0.3,0.7,0.8,0.7,1.6,0.7h0.5v2h-1c-1.9,0-2.4-0.2-3.2-1.7l-3.3-6.5c-0.6-1.2-1-1.4-2.3-1.4h-3.8v9.6h-2.3L450.1,371.2
			L450.1,371.2z M457.4,380.4c2.7,0,4.4-1.8,4.4-4.7c0-2.8-1.7-4.6-4.4-4.6h-5.1v9.2L457.4,380.4L457.4,380.4z"/>
		<path class="st6" d="M469.5,371.9c0-0.5-0.3-0.7-0.7-0.7h-1.4v-2h2.4c1.4,0,2,0.6,2,2v13c0,3.8,2.4,6.2,6.2,6.2
			c3.7,0,6.2-2.4,6.2-6.3v-12.9c0-1.4,0.6-2,2-2h2.4v2h-1.4c-0.5,0-0.7,0.2-0.7,0.7v12.3c0,5-3.4,8.2-8.4,8.2s-8.5-3.3-8.5-8.2
			L469.5,371.9L469.5,371.9z"/>
		<path class="st6" d="M493.1,371.2H491v-2h9.7c4.1,0,7.1,2.7,7.1,6.9c0,4.3-3,7-7.1,7h-5.3v9h-2.3L493.1,371.2L493.1,371.2z
			 M500.4,381.1c3,0,5-1.9,5-5s-2-4.9-5-4.9h-5v9.9H500.4z"/>
		<path class="st6" d="M512,371.2h-2.1v-2h9.7c4.1,0,7.1,2.7,7.1,6.9c0,4.3-3,7-7.1,7h-5.3v9H512V371.2z M519.3,381.1c3,0,5-1.9,5-5
			s-2-4.9-5-4.9h-5v9.9H519.3z"/>
		<path class="st6" d="M540.3,368.8c6.5,0,11.7,5.1,11.7,11.7c0,6.7-5.2,12-11.7,12s-11.7-5.3-11.7-12
			C528.6,373.9,533.8,368.8,540.3,368.8z M540.3,390.3c5.1,0,9.3-4.3,9.3-9.8c0-5.4-4.2-9.5-9.3-9.5s-9.3,4.1-9.3,9.5
			C531,386,535.1,390.3,540.3,390.3z"/>
	</g>
	<g>
		<path class="st6" d="M393.5,609.1c-0.2-0.6-0.6-0.7-1.2-0.7H392v-2h1c1.6,0,2.1,0.3,2.7,1.9l5.7,15.5c0.4,1.2,0.9,3,0.9,3h0.1
			c0,0,0.5-1.8,0.9-3l5.7-15.5c0.6-1.6,1.1-1.9,2.7-1.9h1v2h-0.3c-0.6,0-0.9,0.1-1.2,0.7l-7.6,20.3h-2.5L393.5,609.1z"/>
		<path class="st6" d="M412.3,627.4h0.4c0.6,0,0.9-0.1,1.2-0.7l7.5-20.3h2.5l7.5,20.3c0.2,0.6,0.6,0.7,1.2,0.7h0.4v2h-1
			c-1.6,0-2.1-0.3-2.7-1.9l-2-5.4h-9.1l-2,5.4c-0.6,1.6-1,1.9-2.7,1.9h-1.1v-2H412.3z M426.6,620.1l-3-8.2c-0.4-1.1-0.9-3-0.9-3
			h-0.1c0,0-0.5,1.9-0.9,3l-3,8.2H426.6z"/>
		<path class="st6" d="M436.9,609.1c0-0.5-0.3-0.7-0.7-0.7h-1.4v-2h2.4c1.4,0,2,0.6,2,2v18.3c0,0.5,0.3,0.7,0.7,0.7h7.6
			c0.5,0,0.7-0.2,0.7-0.7v-1.5h2.2v2.3c0,1.4-0.6,2-2,2h-9.5c-1.4,0-2-0.6-2-2V609.1z"/>
		<path class="st6" d="M463.1,606c6.5,0,11.7,5.1,11.7,11.8c0,6.8-5.2,12.1-11.7,12.1c-6.6,0-11.7-5.3-11.7-12.1
			C451.4,611.1,456.5,606,463.1,606z M463.1,627.6c5.1,0,9.3-4.3,9.3-9.9c0-5.4-4.2-9.6-9.3-9.6c-5.2,0-9.3,4.2-9.3,9.6
			C453.7,623.3,457.9,627.6,463.1,627.6z"/>
		<path class="st6" d="M479.5,608.4h-2.1v-2h9.8c3.9,0,6.6,2.6,6.6,6.6c0,3.6-2.2,5.7-4.5,6.2v0.1c0,0,0.5,0.3,0.8,0.9l3.3,6.6
			c0.3,0.7,0.8,0.8,1.6,0.8h0.5v2h-1c-1.9,0-2.4-0.2-3.2-1.7l-3.3-6.6c-0.6-1.2-1-1.4-2.3-1.4h-3.9v9.7h-2.3L479.5,608.4
			L479.5,608.4z M486.9,617.7c2.8,0,4.5-1.8,4.5-4.7s-1.7-4.6-4.4-4.6h-5.1v9.3H486.9z"/>
		<path class="st6" d="M499.4,608.4h-2.1v-2h13.2c1.4,0,2,0.6,2,2v2.3h-2.2v-1.5c0-0.5-0.3-0.7-0.7-0.7h-7.9v8.4h8.7v2h-8.7v7.8
			c0,0.5,0.3,0.7,0.7,0.7h8.1c0.5,0,0.7-0.2,0.7-0.7v-1.5h2.1v2.3c0,1.4-0.6,2-2,2h-10c-1.4,0-2-0.6-2-2v-19.1H499.4z"/>
		<path class="st6" d="M354.7,644h-2.1v-2h13.2c1.4,0,2,0.6,2,2v2.3h-2.2v-1.5c0-0.5-0.3-0.7-0.7-0.7H357v8.4h8.7v2H357v7.8
			c0,0.5,0.3,0.7,0.7,0.7h8.1c0.5,0,0.7-0.2,0.7-0.7v-1.5h2.1v2.3c0,1.4-0.6,2-2,2h-10c-1.4,0-2-0.6-2-2V644H354.7z"/>
		<path class="st6" d="M382.1,641.6c3.3,0,8.6,1.4,8.6,4.9v1.9h-2.2v-1.3c0-2.2-3.7-3.3-6.4-3.3c-5.1,0-9,4-9,9.6
			c0,5.5,3.9,9.9,9.1,9.9c4.8,0,7.5-3.2,7.5-3.2l1.3,1.7c0,0-3.2,3.7-8.9,3.7c-6.8,0-11.5-5.4-11.5-12.1
			C370.7,646.7,375.6,641.6,382.1,641.6z"/>
		<path class="st6" d="M405,641.6c6.5,0,11.7,5.1,11.7,11.8c0,6.8-5.2,12.1-11.7,12.1c-6.6,0-11.7-5.3-11.7-12.1
			C393.3,646.7,398.4,641.6,405,641.6z M405,663.3c5.1,0,9.3-4.3,9.3-9.9c0-5.4-4.2-9.6-9.3-9.6c-5.2,0-9.3,4.2-9.3,9.6
			C395.7,658.9,399.8,663.3,405,663.3z"/>
		<path class="st6" d="M419.3,663h1.4c0.5,0,0.7-0.2,0.7-0.7V642h2.1l11.8,16.4c0.8,1.1,1.9,3,1.9,3h0.1c0,0-0.2-1.8-0.2-3V644
			c0-1.4,0.6-2,2-2h2.4v2h-1.4c-0.5,0-0.7,0.2-0.7,0.7V665h-2.1l-11.8-16.4c-0.8-1.1-1.9-3-1.9-3h-0.1c0,0,0.2,1.8,0.2,3V663
			c0,1.4-0.6,2-2,2h-2.4V663z"/>
		<path class="st6" d="M455.8,641.6c6.5,0,11.7,5.1,11.7,11.8c0,6.8-5.2,12.1-11.7,12.1c-6.6,0-11.7-5.3-11.7-12.1
			C444.1,646.7,449.3,641.6,455.8,641.6z M455.8,663.3c5.1,0,9.3-4.3,9.3-9.9c0-5.4-4.2-9.6-9.3-9.6c-5.2,0-9.3,4.2-9.3,9.6
			C446.5,658.9,450.7,663.3,455.8,663.3z"/>
		<path class="st6" d="M469.5,663h1.2c0.5,0,0.7-0.2,0.7-0.7L473,642h2.3l6.1,13.4c0.6,1.2,1.1,2.7,1.1,2.7h0.1c0,0,0.6-1.5,1.1-2.7
			l6.1-13.4h2.3l1.6,20.3c0,0.5,0.3,0.7,0.7,0.7h1.2v2h-2.2c-1.4,0-1.9-0.6-2-2l-1.1-14c-0.1-1.2-0.1-3.2-0.1-3.2h-0.1
			c0,0-0.6,2-1.2,3.2l-5.5,11.7h-2.1l-5.4-11.7c-0.5-1.1-1.2-3.3-1.2-3.3h-0.1c0,0,0,2-0.1,3.3l-1.1,14c-0.1,1.4-0.6,2-2,2h-2.2v-2
			H469.5z"/>
		<path class="st6" d="M498,663h2.2v-19H498v-2h6.6v2h-2.2v19h2.2v2H498V663z"/>
		<path class="st6" d="M518.7,641.6c3.3,0,8.6,1.4,8.6,4.9v1.9h-2.2v-1.3c0-2.2-3.7-3.3-6.4-3.3c-5.1,0-9,4-9,9.6
			c0,5.5,3.9,9.9,9.1,9.9c4.8,0,7.5-3.2,7.5-3.2l1.3,1.7c0,0-3.2,3.7-8.9,3.7c-6.8,0-11.5-5.4-11.5-12.1
			C507.3,646.7,512.2,641.6,518.7,641.6z"/>
		<path class="st6" d="M541.6,641.6c6.5,0,11.7,5.1,11.7,11.8c0,6.8-5.2,12.1-11.7,12.1c-6.6,0-11.7-5.3-11.7-12.1
			C529.9,646.7,535.1,641.6,541.6,641.6z M541.6,663.3c5.1,0,9.3-4.3,9.3-9.9c0-5.4-4.2-9.6-9.3-9.6c-5.2,0-9.3,4.2-9.3,9.6
			C532.3,658.9,536.4,663.3,541.6,663.3z"/>
		<path class="st6" d="M357.2,679.6h-2.1v-2h9.2c6.9,0,11.6,4.2,11.6,11.5s-4.6,11.5-11.6,11.5h-5.1c-1.4,0-2-0.6-2-2L357.2,679.6
			L357.2,679.6z M360.2,698.6h3.9c5.7,0,9.4-3.3,9.4-9.5c0-6.1-3.8-9.5-9.4-9.5h-4.6v18.3C359.5,698.4,359.8,698.6,360.2,698.6z"/>
		<path class="st6" d="M378.6,698.6h2.2v-19h-2.2v-2h6.6v2H383v19h2.2v2h-6.6L378.6,698.6L378.6,698.6z"/>
		<path class="st6" d="M389.4,696.1c0,0,2.3,2.8,6,2.8c2.5,0,4.6-1.6,4.6-4.1c0-5.7-11.4-4.6-11.4-11.7c0-3.2,2.8-5.9,7-5.9
			c2.2,0,6.2,1,6.2,4v1.6h-2.2v-1.1c0-1.4-1.9-2.4-4-2.4c-3,0-4.7,1.7-4.7,3.7c0,5.3,11.4,4,11.4,11.6c0,3.4-2.7,6.4-7,6.4
			c-4.7,0-7.3-3.3-7.3-3.3L389.4,696.1z"/>
		<path class="st6" d="M412.7,679.6H407c-0.5,0-0.7,0.2-0.7,0.7v1.5h-2.1v-2.4c0-1.4,0.5-1.9,1.9-1.9h15.6c1.4,0,1.9,0.5,1.9,1.9
			v2.4h-2.1v-1.5c0-0.5-0.2-0.7-0.7-0.7H415v21h-2.3V679.6z"/>
		<path class="st6" d="M427.5,679.6h-2.1v-2h9.8c3.9,0,6.6,2.6,6.6,6.6c0,3.6-2.2,5.7-4.5,6.2v0.1c0,0,0.5,0.3,0.8,0.9l3.3,6.6
			c0.3,0.7,0.8,0.8,1.6,0.8h0.5v2h-1c-1.9,0-2.4-0.2-3.2-1.7l-3.3-6.6c-0.6-1.2-1-1.4-2.3-1.4h-3.9v9.7h-2.3L427.5,679.6
			L427.5,679.6z M434.9,688.9c2.8,0,4.5-1.8,4.5-4.7s-1.7-4.6-4.4-4.6h-5.1v9.3H434.9z"/>
		<path class="st6" d="M445.4,698.6h2.2v-19h-2.2v-2h6.6v2h-2.2v19h2.2v2h-6.6V698.6z"/>
		<path class="st6" d="M456.9,679.6h-2.1v-2h9.8c3.6,0,6.2,2.2,6.2,5.8c0,2.5-1.3,4.2-2.9,5v0.1c2.4,0.7,3.9,2.9,3.9,5.7
			c0,4.1-3,6.5-6.9,6.5H459c-1.4,0-2-0.6-2-2L456.9,679.6L456.9,679.6z M464.5,687.6c2.3,0,3.9-1.6,3.9-4s-1.5-3.9-3.9-3.9h-5.3v8
			L464.5,687.6L464.5,687.6z M459.9,698.6h4.9c2.8,0,4.5-1.7,4.5-4.5s-1.8-4.6-4.5-4.6h-5.6v8.3
			C459.2,698.4,459.4,698.6,459.9,698.6z"/>
		<path class="st6" d="M476.6,680.4c0-0.5-0.3-0.7-0.7-0.7h-1.4v-2h2.4c1.4,0,2,0.6,2,2v13c0,3.8,2.4,6.2,6.2,6.2s6.2-2.4,6.2-6.3
			v-13c0-1.4,0.6-2,2-2h2.4v2h-1.4c-0.5,0-0.7,0.2-0.7,0.7v12.4c0,5-3.4,8.3-8.5,8.3s-8.5-3.3-8.5-8.3V680.4z"/>
		<path class="st6" d="M498.3,698.6h2.2v-19h-2.2v-2h6.6v2h-2.2v19h2.2v2h-6.6V698.6z"/>
		<path class="st6" d="M515.4,679.6h-5.7c-0.5,0-0.7,0.2-0.7,0.7v1.5h-2.1v-2.4c0-1.4,0.5-1.9,1.9-1.9h15.6c1.4,0,1.9,0.5,1.9,1.9
			v2.4h-2.1v-1.5c0-0.5-0.2-0.7-0.7-0.7h-5.7v21h-2.3v-21H515.4z"/>
		<path class="st6" d="M539.1,677.2c6.5,0,11.7,5.1,11.7,11.8c0,6.8-5.2,12.1-11.7,12.1c-6.6,0-11.7-5.3-11.7-12.1
			C527.3,682.4,532.5,677.2,539.1,677.2z M539.1,698.9c5.1,0,9.3-4.3,9.3-9.9c0-5.4-4.2-9.6-9.3-9.6c-5.2,0-9.3,4.2-9.3,9.6
			C529.7,694.6,533.9,698.9,539.1,698.9z"/>
		<path class="st6" d="M355.5,715.3h-2.1v-2h9.2c6.9,0,11.6,4.2,11.6,11.5s-4.6,11.5-11.6,11.5h-5.1c-1.4,0-2-0.6-2-2L355.5,715.3
			L355.5,715.3z M358.5,734.2h3.9c5.7,0,9.4-3.3,9.4-9.5c0-6.1-3.8-9.5-9.4-9.5h-4.6v18.3C357.8,734,358.1,734.2,358.5,734.2z"/>
		<path class="st6" d="M375.4,734.2h0.4c0.6,0,0.9-0.1,1.2-0.7l7.5-20.3h2.5l7.5,20.3c0.2,0.6,0.6,0.7,1.2,0.7h0.4v2h-1
			c-1.6,0-2.1-0.3-2.7-1.9l-2-5.4h-9.1l-2,5.4c-0.6,1.6-1,1.9-2.7,1.9h-1.1v-2H375.4z M389.7,726.9l-3-8.2c-0.4-1.1-0.9-3-0.9-3
			h-0.1c0,0-0.5,1.9-0.9,3l-3,8.2H389.7z"/>
		<path class="st6" d="M400,716c0-0.5-0.3-0.7-0.7-0.7h-1.4v-2h2.4c1.4,0,2,0.6,2,2v18.3c0,0.5,0.3,0.7,0.7,0.7h7.6
			c0.5,0,0.7-0.2,0.7-0.7V732h2.2v2.3c0,1.4-0.6,2-2,2H402c-1.4,0-2-0.6-2-2V716z"/>
		<path class="st6" d="M435.6,712.8c5.3,0,8.1,2.8,8.1,2.8l-1.3,1.7c0,0-2.6-2.4-6.7-2.4c-5.2,0-9.1,4.2-9.1,9.7
			c0,5.7,3.9,9.8,9.1,9.8c4.6,0,7.3-3.4,7.3-3.4v-2.9c0-0.5-0.3-0.7-0.7-0.7h-1.4v-2h2.3c1.4,0,2,0.6,2,2v8.7h-2.1v-1.7
			c0-0.5,0-1,0-1H443c0,0-2.7,3.1-7.5,3.1c-6.3,0-11.3-5-11.3-12C424.1,718.1,429.1,712.8,435.6,712.8z"/>
		<path class="st6" d="M450,715.3h-2.1v-2h9.8c3.9,0,6.6,2.6,6.6,6.6c0,3.6-2.2,5.7-4.5,6.2v0.1c0,0,0.5,0.3,0.8,0.9l3.3,6.6
			c0.3,0.7,0.8,0.8,1.6,0.8h0.5v2h-1c-1.9,0-2.4-0.2-3.2-1.7l-3.3-6.6c-0.6-1.2-1-1.4-2.3-1.4h-3.9v9.7H450V715.3z M457.5,724.5
			c2.8,0,4.5-1.8,4.5-4.7s-1.7-4.6-4.4-4.6h-5.1v9.3H457.5z"/>
		<path class="st6" d="M469.6,716c0-0.5-0.3-0.7-0.7-0.7h-1.4v-2h2.4c1.4,0,2,0.6,2,2v13c0,3.8,2.4,6.2,6.2,6.2s6.2-2.4,6.2-6.3v-13
			c0-1.4,0.6-2,2-2h2.4v2h-1.4c-0.5,0-0.7,0.2-0.7,0.7v12.4c0,5-3.4,8.3-8.5,8.3s-8.5-3.3-8.5-8.3V716z"/>
		<path class="st6" d="M493.4,715.3h-2.1v-2h9.7c4.1,0,7.1,2.7,7.1,6.9c0,4.3-3,7-7.1,7h-5.3v9h-2.3L493.4,715.3L493.4,715.3z
			 M500.7,725.2c3,0,5-1.9,5-5s-2-4.9-5-4.9h-5v9.9H500.7z"/>
		<path class="st6" d="M512.3,715.3h-2.1v-2h9.7c4.1,0,7.1,2.7,7.1,6.9c0,4.3-3,7-7.1,7h-5.3v9h-2.3L512.3,715.3L512.3,715.3z
			 M519.6,725.2c3,0,5-1.9,5-5s-2-4.9-5-4.9h-5v9.9H519.6z"/>
		<path class="st6" d="M540.8,712.8c6.5,0,11.7,5.1,11.7,11.8c0,6.8-5.2,12.1-11.7,12.1c-6.6,0-11.7-5.3-11.7-12.1
			C529.1,718,534.2,712.8,540.8,712.8z M540.8,734.5c5.1,0,9.3-4.3,9.3-9.9c0-5.4-4.2-9.6-9.3-9.6c-5.2,0-9.3,4.2-9.3,9.6
			C531.4,730.2,535.6,734.5,540.8,734.5z"/>
	</g>
	<g>
		<path class="st6" d="M394.7,955.9c-0.2-0.6-0.6-0.7-1.2-0.7h-0.3v-2h1c1.6,0,2.1,0.3,2.7,1.9l5.6,15.3c0.4,1.2,0.9,2.9,0.9,2.9
			h0.1c0,0,0.5-1.8,0.9-2.9l5.6-15.3c0.6-1.6,1.1-1.9,2.7-1.9h1v2h-0.3c-0.6,0-0.9,0.1-1.2,0.7l-7.5,20h-2.4L394.7,955.9z"/>
		<path class="st6" d="M413.2,974h0.4c0.6,0,0.9-0.1,1.2-0.7l7.4-20h2.4l7.4,20c0.2,0.6,0.6,0.7,1.2,0.7h0.4v2h-1
			c-1.6,0-2.1-0.3-2.7-1.9l-2-5.4h-9l-2,5.4c-0.6,1.6-1,1.9-2.7,1.9h-1.1L413.2,974L413.2,974z M427.3,966.8l-3-8.1
			c-0.4-1.1-0.9-2.9-0.9-2.9h-0.1c0,0-0.5,1.9-0.9,2.9l-3,8.1H427.3z"/>
		<path class="st6" d="M437.5,955.9c0-0.5-0.3-0.7-0.7-0.7h-1.4v-2h2.4c1.4,0,2,0.6,2,2v18.1c0,0.5,0.3,0.7,0.7,0.7h7.5
			c0.5,0,0.7-0.2,0.7-0.7v-1.5h2.1v2.3c0,1.4-0.6,2-2,2h-9.4c-1.4,0-2-0.6-2-2v-18.2H437.5z"/>
		<path class="st6" d="M463.4,952.8c6.4,0,11.6,5.1,11.6,11.6c0,6.7-5.1,11.9-11.6,11.9s-11.6-5.2-11.6-11.9
			C451.8,957.9,456.9,952.8,463.4,952.8z M463.4,974.2c5.1,0,9.2-4.3,9.2-9.8c0-5.4-4.1-9.5-9.2-9.5c-5.1,0-9.2,4.1-9.2,9.5
			C454.2,970,458.3,974.2,463.4,974.2z"/>
		<path class="st6" d="M479.6,955.2h-2.1v-2h9.6c3.8,0,6.5,2.5,6.5,6.5c0,3.5-2.2,5.6-4.4,6.1v0.1c0,0,0.5,0.3,0.8,0.9l3.3,6.5
			c0.3,0.7,0.8,0.7,1.6,0.7h0.5v2h-1c-1.8,0-2.4-0.2-3.1-1.7l-3.3-6.5c-0.6-1.2-1-1.4-2.3-1.4h-3.8v9.6h-2.3V955.2z M487,964.4
			c2.7,0,4.4-1.8,4.4-4.6c0-2.8-1.7-4.5-4.4-4.5h-5.1v9.2L487,964.4L487,964.4z"/>
		<path class="st6" d="M499.2,955.2h-2.1v-2h13c1.4,0,2,0.6,2,2v2.3H510V956c0-0.5-0.3-0.7-0.7-0.7h-7.8v8.3h8.5v2h-8.5v7.7
			c0,0.5,0.3,0.7,0.7,0.7h8c0.5,0,0.7-0.2,0.7-0.7v-1.5h2.1v2.3c0,1.4-0.6,2-2,2h-9.8c-1.4,0-2-0.6-2-2V955.2z"/>
		<path class="st6" d="M356.3,990.4h-2.1v-2h13c1.4,0,2,0.6,2,2v2.3h-2.1v-1.5c0-0.5-0.3-0.7-0.7-0.7h-7.8v8.3h8.5v2h-8.5v7.7
			c0,0.5,0.3,0.7,0.7,0.7h8c0.5,0,0.7-0.2,0.7-0.7v-1.5h2.1v2.3c0,1.4-0.6,2-2,2h-9.8c-1.4,0-2-0.6-2-2L356.3,990.4L356.3,990.4z"/>
		<path class="st6" d="M383.4,988c3.2,0,8.5,1.4,8.5,4.8v1.9h-2.1v-1.3c0-2.1-3.7-3.3-6.3-3.3c-5,0-8.9,3.9-8.9,9.5
			c0,5.4,3.9,9.8,9,9.8c4.7,0,7.4-3.2,7.4-3.2l1.3,1.7c0,0-3.1,3.7-8.8,3.7c-6.7,0-11.4-5.3-11.4-11.9C372.1,993,377,988,383.4,988z
			"/>
		<path class="st6" d="M406,988c6.4,0,11.6,5.1,11.6,11.6c0,6.7-5.1,11.9-11.6,11.9s-11.6-5.2-11.6-11.9
			C394.4,993.1,399.6,988,406,988z M406,1009.4c5.1,0,9.2-4.3,9.2-9.8c0-5.4-4.1-9.5-9.2-9.5c-5.1,0-9.2,4.1-9.2,9.5
			C396.8,1005.1,400.9,1009.4,406,1009.4z"/>
		<path class="st6" d="M420.2,1009.2h1.4c0.5,0,0.7-0.2,0.7-0.7v-20h2.1l11.6,16.2c0.8,1.1,1.8,3,1.8,3h0.1c0,0-0.2-1.8-0.2-3v-14.2
			c0-1.4,0.6-2,2-2h2.4v2h-1.4c-0.5,0-0.7,0.2-0.7,0.7v20h-2.1L426.3,995c-0.8-1.1-1.9-2.9-1.9-2.9h-0.1c0,0,0.2,1.7,0.2,2.9v14.2
			c0,1.4-0.6,2-2,2h-2.4v-2H420.2z"/>
		<path class="st6" d="M456.2,988c6.4,0,11.6,5.1,11.6,11.6c0,6.7-5.1,11.9-11.6,11.9s-11.6-5.2-11.6-11.9
			C444.6,993.1,449.8,988,456.2,988z M456.2,1009.4c5.1,0,9.2-4.3,9.2-9.8c0-5.4-4.1-9.5-9.2-9.5c-5.1,0-9.2,4.1-9.2,9.5
			C447,1005.1,451.1,1009.4,456.2,1009.4z"/>
		<path class="st6" d="M469.7,1009.2h1.2c0.5,0,0.7-0.2,0.7-0.7l1.6-20h2.3l6,13.2c0.6,1.2,1.1,2.7,1.1,2.7h0.1c0,0,0.6-1.5,1.1-2.7
			l6-13.2h2.3l1.6,20c0,0.5,0.3,0.7,0.7,0.7h1.2v2h-2.2c-1.4,0-1.9-0.6-2-2l-1.1-13.8c-0.1-1.2-0.1-3.2-0.1-3.2h-0.1
			c0,0-0.6,2-1.2,3.2l-5.4,11.6h-2l-5.4-11.6c-0.5-1.1-1.2-3.2-1.2-3.2h0.1c0,0,0,2-0.1,3.2l-1.1,13.8c-0.1,1.4-0.6,2-2,2h-2.2
			L469.7,1009.2L469.7,1009.2z"/>
		<path class="st6" d="M497.9,1009.2h2.1v-18.7h-2.1v-2h6.5v2h-2.2v18.7h2.2v2h-6.5V1009.2z"/>
		<path class="st6" d="M518.3,988c3.2,0,8.5,1.4,8.5,4.8v1.9h-2.1v-1.3c0-2.1-3.7-3.3-6.3-3.3c-5,0-8.9,3.9-8.9,9.5
			c0,5.4,3.9,9.8,9,9.8c4.7,0,7.4-3.2,7.4-3.2l1.3,1.7c0,0-3.1,3.7-8.8,3.7c-6.7,0-11.4-5.3-11.4-11.9
			C507.1,993,511.9,988,518.3,988z"/>
		<path class="st6" d="M541,988c6.4,0,11.6,5.1,11.6,11.6c0,6.7-5.1,11.9-11.6,11.9s-11.6-5.2-11.6-11.9
			C529.4,993.1,534.5,988,541,988z M541,1009.4c5.1,0,9.2-4.3,9.2-9.8c0-5.4-4.1-9.5-9.2-9.5c-5.1,0-9.2,4.1-9.2,9.5
			C531.7,1005.1,535.9,1009.4,541,1009.4z"/>
		<path class="st6" d="M357.5,1025.6h-5.6c-0.5,0-0.7,0.2-0.7,0.7v1.5h-2.1v-2.4c0-1.4,0.5-1.8,1.8-1.8h15.4c1.4,0,1.8,0.5,1.8,1.8
			v2.4H366v-1.5c0-0.5-0.2-0.7-0.7-0.7h-5.6v20.7h-2.3L357.5,1025.6L357.5,1025.6z"/>
		<path class="st6" d="M372.1,1025.6H370v-2h9.6c3.8,0,6.5,2.5,6.5,6.5c0,3.5-2.2,5.6-4.4,6.1v0.1c0,0,0.5,0.3,0.8,0.9l3.3,6.5
			c0.3,0.7,0.8,0.7,1.6,0.7h0.5v2h-1c-1.8,0-2.4-0.2-3.1-1.7l-3.3-6.5c-0.6-1.2-1-1.4-2.3-1.4h-3.8v9.6h-2.3V1025.6z M379.4,1034.8
			c2.7,0,4.4-1.8,4.4-4.6c0-2.8-1.7-4.5-4.4-4.5h-5.1v9.2L379.4,1034.8L379.4,1034.8z"/>
		<path class="st6" d="M388.9,1044.3h0.4c0.6,0,0.9-0.1,1.2-0.7l7.4-20h2.4l7.4,20c0.2,0.6,0.6,0.7,1.2,0.7h0.4v2h-1
			c-1.6,0-2.1-0.3-2.7-1.9l-2-5.4h-9l-2,5.4c-0.6,1.6-1,1.9-2.7,1.9h-1.1L388.9,1044.3L388.9,1044.3z M403.1,1037.1l-3-8.1
			c-0.4-1.1-0.9-2.9-0.9-2.9h-0.1c0,0-0.5,1.9-0.9,2.9l-3,8.1H403.1z"/>
		<path class="st6" d="M415.9,1025.6h-5.6c-0.5,0-0.7,0.2-0.7,0.7v1.5h-2.1v-2.4c0-1.4,0.5-1.8,1.8-1.8h15.4c1.4,0,1.8,0.5,1.8,1.8
			v2.4h-2.1v-1.5c0-0.5-0.2-0.7-0.7-0.7h-5.6v20.7h-2.3L415.9,1025.6L415.9,1025.6z"/>
		<path class="st6" d="M436,1025.6h-5.6c-0.5,0-0.7,0.2-0.7,0.7v1.5h-2.1v-2.4c0-1.4,0.5-1.8,1.8-1.8h15.4c1.4,0,1.8,0.5,1.8,1.8
			v2.4h-2.1v-1.5c0-0.5-0.2-0.7-0.7-0.7h-5.6v20.7H436V1025.6z"/>
		<path class="st6" d="M450.6,1025.6h-2.1v-2h13c1.4,0,2,0.6,2,2v2.3h-2.1v-1.5c0-0.5-0.3-0.7-0.7-0.7h-7.8v8.3h8.5v2h-8.5v7.7
			c0,0.5,0.3,0.7,0.7,0.7h8c0.5,0,0.7-0.2,0.7-0.7v-1.5h2.1v2.3c0,1.4-0.6,2-2,2h-9.8c-1.4,0-2-0.6-2-2L450.6,1025.6L450.6,1025.6z"
			/>
		<path class="st6" d="M466.5,1044.3h1.4c0.5,0,0.7-0.2,0.7-0.7v-20h2.1l11.6,16.2c0.8,1.1,1.8,3,1.8,3h0.1c0,0-0.2-1.8-0.2-3v-14.2
			c0-1.4,0.6-2,2-2h2.4v2H487c-0.5,0-0.7,0.2-0.7,0.7v20h-2.1l-11.6-16.2c-0.8-1.1-1.9-2.9-1.9-2.9h-0.1c0,0,0.2,1.7,0.2,2.9v14.2
			c0,1.4-0.6,2-2,2h-2.4v-2H466.5z"/>
		<path class="st6" d="M493,1026.3c0-0.5-0.3-0.7-0.7-0.7h-1.4v-2h2.4c1.4,0,2,0.6,2,2v12.9c0,3.8,2.4,6.1,6.1,6.1
			c3.7,0,6.1-2.4,6.1-6.2v-12.8c0-1.4,0.6-2,2-2h2.4v2h-1.4c-0.5,0-0.7,0.2-0.7,0.7v12.2c0,4.9-3.4,8.2-8.4,8.2s-8.4-3.3-8.4-8.2
			L493,1026.3L493,1026.3z"/>
		<path class="st6" d="M521.9,1025.6h-5.6c-0.5,0-0.7,0.2-0.7,0.7v1.5h-2.1v-2.4c0-1.4,0.5-1.8,1.8-1.8h15.4c1.4,0,1.8,0.5,1.8,1.8
			v2.4h-2.1v-1.5c0-0.5-0.2-0.7-0.7-0.7h-5.6v20.7h-2.3L521.9,1025.6L521.9,1025.6z"/>
		<path class="st6" d="M545.3,1023.2c6.4,0,11.6,5.1,11.6,11.6c0,6.7-5.1,11.9-11.6,11.9s-11.6-5.2-11.6-11.9
			C533.7,1028.3,538.8,1023.2,545.3,1023.2z M545.3,1044.6c5.1,0,9.2-4.3,9.2-9.8c0-5.4-4.1-9.5-9.2-9.5c-5.1,0-9.2,4.1-9.2,9.5
			C536,1040.3,540.1,1044.6,545.3,1044.6z"/>
		<path class="st6" d="M357.1,1060.8H355v-2h9.1c6.9,0,11.4,4.2,11.4,11.4c0,7.2-4.6,11.4-11.4,11.4h-5c-1.4,0-2-0.6-2-2V1060.8z
			 M360.1,1079.5h3.8c5.6,0,9.3-3.3,9.3-9.4s-3.7-9.4-9.3-9.4h-4.5v18C359.4,1079.3,359.7,1079.5,360.1,1079.5z"/>
		<path class="st6" d="M376.8,1079.5h0.4c0.6,0,0.9-0.1,1.2-0.7l7.4-20h2.4l7.4,20c0.2,0.6,0.6,0.7,1.2,0.7h0.4v2h-1
			c-1.6,0-2.1-0.3-2.7-1.9l-2-5.4h-9l-2,5.4c-0.6,1.6-1,1.9-2.7,1.9h-1.1L376.8,1079.5L376.8,1079.5z M390.9,1072.3l-3-8.1
			c-0.4-1.1-0.9-2.9-0.9-2.9l0,0c0,0-0.5,1.9-0.9,2.9l-3,8.1H390.9z"/>
		<path class="st6" d="M401.1,1061.5c0-0.5-0.3-0.7-0.7-0.7H399v-2h2.4c1.4,0,2,0.6,2,2v18.1c0,0.5,0.3,0.7,0.7,0.7h7.5
			c0.5,0,0.7-0.2,0.7-0.7v-1.5h2.1v2.3c0,1.4-0.6,2-2,2H403c-1.4,0-2-0.6-2-2L401.1,1061.5L401.1,1061.5z"/>
		<path class="st6" d="M436.2,1058.4c5.3,0,8,2.8,8,2.8l-1.3,1.7c0,0-2.5-2.3-6.6-2.3c-5.1,0-9,4.1-9,9.6c0,5.6,3.9,9.7,9,9.7
			c4.5,0,7.2-3.3,7.2-3.3v-2.8c0-0.5-0.3-0.7-0.7-0.7h-1.4v-2h2.3c1.4,0,2,0.6,2,2v8.6h-2.1v-1.7c0-0.5,0-1,0-1h-0.1
			c0,0-2.7,3.1-7.4,3.1c-6.2,0-11.1-5-11.1-11.8C424.9,1063.6,429.8,1058.4,436.2,1058.4z"/>
		<path class="st6" d="M450.5,1060.8h-2.1v-2h9.6c3.8,0,6.5,2.5,6.5,6.5c0,3.5-2.2,5.6-4.4,6.1v0.1c0,0,0.5,0.3,0.8,0.9l3.3,6.5
			c0.3,0.7,0.8,0.7,1.6,0.7h0.5v2h-1c-1.8,0-2.4-0.2-3.1-1.7l-3.3-6.5c-0.6-1.2-1-1.4-2.3-1.4h-3.8v9.6h-2.3V1060.8z M457.8,1069.9
			c2.7,0,4.4-1.8,4.4-4.6c0-2.8-1.7-4.5-4.4-4.5h-5.1v9.2L457.8,1069.9L457.8,1069.9z"/>
		<path class="st6" d="M469.8,1061.5c0-0.5-0.3-0.7-0.7-0.7h-1.4v-2h2.4c1.4,0,2,0.6,2,2v12.9c0,3.8,2.4,6.1,6.1,6.1
			c3.7,0,6.1-2.4,6.1-6.2v-12.8c0-1.4,0.6-2,2-2h2.4v2h-1.4c-0.5,0-0.7,0.2-0.7,0.7v12.2c0,4.9-3.4,8.2-8.4,8.2s-8.4-3.3-8.4-8.2
			L469.8,1061.5L469.8,1061.5z"/>
		<path class="st6" d="M493.3,1060.8h-2.1v-2h9.6c4,0,7,2.7,7,6.9c0,4.2-3,7-7,7h-5.2v8.9h-2.3V1060.8z M500.5,1070.6c3,0,5-1.8,5-5
			c0-3.1-2-4.9-5-4.9h-5v9.8L500.5,1070.6L500.5,1070.6z"/>
		<path class="st6" d="M512,1060.8h-2.1v-2h9.6c4,0,7,2.7,7,6.9c0,4.2-3,7-7,7h-5.2v8.9H512V1060.8z M519.3,1070.6c3,0,5-1.8,5-5
			c0-3.1-2-4.9-5-4.9h-5v9.8L519.3,1070.6L519.3,1070.6z"/>
		<path class="st6" d="M540.1,1058.4c6.4,0,11.6,5.1,11.6,11.6c0,6.7-5.1,11.9-11.6,11.9s-11.6-5.2-11.6-11.9
			C528.6,1063.5,533.7,1058.4,540.1,1058.4z M540.1,1079.8c5.1,0,9.2-4.3,9.2-9.8c0-5.4-4.1-9.5-9.2-9.5c-5.1,0-9.2,4.1-9.2,9.5
			C530.9,1075.5,535,1079.8,540.1,1079.8z"/>
	</g>
</g>
</svg>
