<?xml version="1.0" encoding="utf-8"?>
<!-- Generator: Adobe Illustrator 23.0.0, SVG Export Plug-In . SVG Version: 6.00 Build 0)  -->
<svg version="1.1" id="Livello_1" xmlns="http://www.w3.org/2000/svg" xmlns:xlink="http://www.w3.org/1999/xlink" x="0px" y="0px"
	 viewBox="0 0 914.9 498.7" style="enable-background:new 0 0 914.9 498.7;" xml:space="preserve">
<style type="text/css">
	.st0{fill:#FEFEFE;}
	.st1{fill:#FE141F;}
	.st2{fill:#1F191A;}
</style>
<g>
	<path class="st0" d="M547.4,135.7c-1,0.6-2,0.4-3.1,0.4c-10.3,0-20.6,0-30.9,0c-24.1,0-48.1,0-72.2,0.1c-0.5-0.4-1-0.8-1.4-1.2
		c-4.4-4.4-8.8-8.8-13.1-13.4c-1.9-2-3.8-2.2-6.2-1.2c-4.1,1.7-8.3,3.1-12.4,4.8c-1.4,0.6-2.4,0.2-3.5-0.6c-3.4-2.5-6.8-5-10.3-7.4
		c-1.4-1-2-2-1.9-3.8c0.2-4.7,0.3-9.4,0.4-14.1c0-1.6-0.3-3-1.9-3.8c-9.9-5.4-20.1-10.1-30.8-13.8c-1.9-0.6-3.2-0.2-4.5,1.1
		c-3.4,3.5-6.9,6.9-10.3,10.4c-0.9,0.9-1.8,1.3-3,0.8c-4.1-1.7-8.6-2.1-13-2.9c-2-0.4-2.9-1.4-3.5-3c-1.8-4.7-3.7-9.5-5.4-14.3
		c-0.3-0.9-0.7-1.2-1.5-1.1c-5.8,0.1-11.4-1.2-17.2-1c-6.1,0.3-12.3-0.2-18.4,0.9c-1.7,0.3-2.7,0.7-3.3,2.4
		c-1.5,4.4-3.2,8.8-4.8,13.2c-0.6,1.6-1.4,2.6-3.3,2.9c-3.8,0.6-7.5,1.5-11.2,2.4c-2.4,0.6-4.3,0.3-6-1.6c-2.8-3-6-5.8-8.8-8.8
		c-1.7-1.8-3.4-2.2-5.5-1.3c-1.7,0.7-3.4,1.3-5.1,2c-8.7,3.5-17.4,7-25.4,11.9c-1.4,0.8-1.8,1.8-1.8,3.3c0,4.7,0.2,9.4,0.9,14.1
		c0.3,1.8-0.4,3-1.9,4c-3.2,2.2-6.5,4.3-9.5,6.8c-2.1,1.8-4,1.8-6.3,0.8c-4.1-1.7-8.3-3.2-12.4-4.8c-1.4-0.6-2.6-0.3-3.7,0.7
		c-8.1,7.7-15.6,16-22.4,24.9c-1.5,1.9-1.6,3.6-0.4,5.6c2.1,3.7,3.9,7.4,6,11.1c1.1,2,1,3.7-0.3,5.5c-2.2,3.2-4.3,6.5-5.9,10.1
		c-1,2.2-2.4,2.9-4.6,2.9c-4.8,0.1-9.6,0.3-14.4,0.4c-0.8,0-1.3,0.1-1.8,1.1c-4.5,10.7-8.2,21.6-11,32.9c-0.6,2.4-0.1,3.8,1.8,5.3
		c3.6,2.7,6.9,5.6,10.4,8.4c1.2,1,1.9,2.1,1.6,3.7c-0.7,4.3-1.1,8.7-1.1,13.1c0,1.3-0.8,2.3-2.1,2.9c-4.3,2.2-8.6,4.6-12.9,6.7
		c-1.7,0.8-2.2,1.9-2.2,3.7c0,6.2,0.2,12.4,1,18.7c0.7,5.6,1.7,11.2,2.9,16.7c0.2,0.7,0.4,1,1.2,1.2c5.1,1.2,10.1,2.6,15.2,3.9
		c1.3,0.3,2.4,0.9,2.8,2.3c1,4.5,2.5,8.9,4.1,13.2c0.5,1.3,0.4,2.3-0.6,3.5c-3.1,3.7-6,7.5-9.1,11.1c-1.4,1.6-1.4,3-0.6,4.8
		c4.8,9.8,10.1,19.3,16.3,28.3c1.5,2.1,3,2.6,5.4,2.3c4.2-0.4,8.3-1.3,12.5-2c2-0.4,3.6,0,4.9,1.7c2.6,3.4,5.5,6.5,8.5,9.4
		c1.2,1.1,1.1,2.4,0.8,3.8c-1.1,4.3-2.1,8.6-3.4,12.9c-0.7,2.2-0.3,3.8,1.4,5.3c8.4,7.5,17.8,13.8,27.3,19.8
		c1.3,0.8,2.4,0.7,3.8-0.1c4-2.7,8.1-5.1,12-7.8c1.5-1.1,2.9-1.1,4.4-0.3c3.9,2,7.9,3.7,12,5.3c1.1,0.4,2,1.1,2.1,2.4
		c0.2,4.9,2,9.5,2,14.4c0,1.7,0.7,2.9,2.6,3.4c7.6,2.2,15.1,4.2,22.9,5.6c3.6,0.7,7.2,1.3,10.9,1.4c1.9,0.1,3.2-0.6,4.2-2.2
		c2.2-3.7,4.7-7.2,6.9-10.9c1.1-1.8,2.4-2.6,4.7-2.4c4,0.3,8,0.2,12,0c2-0.1,3.1,0.5,4.1,2.1c2.4,3.9,4.9,7.6,7.3,11.5
		c0.9,1.4,2,2,3.6,1.9c3.2-0.1,6.3-0.7,9.5-1.2c8.2-1.4,16.3-3.1,24.3-5.8c1.6-0.6,2.5-1.4,2.8-3.1c0.8-4.7,1.6-9.4,2.3-14.1
		c0.2-1.6,0.9-2.5,2.3-3c4-1.4,7.7-3.3,11.5-5.2c1.9-0.9,3.4-0.7,5.1,0.5c3.9,2.6,7.9,5.1,11.8,7.7c1.2,0.8,2.2,0.8,3.3,0.1
		c10-5.9,19.3-12.7,28.1-20.3c1.3-1.1,1.8-2.4,1.2-4c-1.7-4.6-2.1-9.5-3.9-14c-0.5-1.2-0.2-2.2,0.8-3.2c2.8-3,5.7-5.9,8.2-9.1
		c1.9-2.5,4.1-2.6,6.7-2c4.2,0.9,8.4,1.5,12.7,1.9c1.3,0.1,2.3-0.3,3-1.5c2.4-3.5,4.7-7,7-10.6c1.7-2.7,2.8-5.7,5.1-8
		c0.8,0,1.6,0.1,2.4,0.1c57.6,0,115.2,0,172.8,0c7.8,0,15.5,0,23.3,0c0,0.5,0.2,0.9,0.1,1.4c-1.5,8.8-1.2,17.5,0.6,26.1
		c2.8,13.4,8.6,25.4,17.8,35.7c10.4,11.7,23.2,19.4,38.4,23.4c12.8,3.4,25.6,3.4,38.2,0c22.2-6,38.6-19.4,49.1-39.9
		c4.3-8.3,6.9-17,7.7-26.3c0.6-6.8,0.2-13.5-0.3-20.3c9.5,0,19,0.1,28.6,0c12.2-0.2,21.6-9.7,21.6-21.1c0-79.4,0-158.7,0-238.1
		c0-11.5-9.9-20.3-20.5-20.5c-6-0.1-12,0-18,0c-4,0-4.3,0.3-4.3,4.4c0,29,0,57.9,0,86.9c0,1.3,0,2.6-0.3,3.8
		c-0.7,2.9-2.5,4.9-5.5,5.7c-6,1.4-10.8-2.4-10.8-8.7c0-29.8,0-59.7,0-89.5c0-2-0.5-2.6-2.5-2.6c-9.7,0.1-19.4,0.1-29,0
		c-2.5,0-3,0.6-3,3c0.1,29.8,0.1,59.7,0.1,89.5c0,1.5-0.1,3-0.9,4.4c-2.2,3.6-5.8,5-10.1,3.8c-3.4-0.9-5.4-4-5.4-8.1c0-30,0-60,0-90
		c0-2.1-0.5-2.7-2.7-2.7c-9.6,0.1-19.2,0-28.8,0.1c-3.4,0-3.1-0.6-3.1,3.1c0,29,0,57.9,0,86.9c0,0.8,0.1,1.6,0,2.4
		c-0.4,3.7-1.7,6.9-5.5,8.3c-3.5,1.3-7.2,0.2-9.5-2.6c-1.7-1.9-1.6-4.3-1.6-6.6c0-29.8,0-59.5,0-89.3c0-1.9-0.6-2.2-2.3-2.2
		c-9.4,0.1-18.7,0-28.1,0c-4.2,0-4.5,0.3-4.5,4.5c0,28.8,0,57.6,0,86.4c0,1,0,1.9,0,2.9c-0.5,4.9-4.6,8-9.4,7.3
		c-4.3-0.6-7.2-4.3-7.2-9.3c0-29.7,0-59.4,0-89c0-1.7,0-2.7-2.3-2.7c-23.6,0.1-47.2,0.1-70.8,0.1c-1.6,0-3.2,0.1-4.7,0.6
		c-8.7,2.5-16.4,10.9-16.1,22c0.2,9.8,0.3,19.7-0.1,29.5c-0.7-0.8-1.2-1.6-1.7-2.5c-3.6-7.1-7.2-14.2-11-21.2
		c-5.3-9.9-10-20.1-15.5-29.9c-0.7-1.2-0.5-2.2,0.9-2.9c2.2-1,4.3-2,6.4-3.2c4-2.3,8.6-3.5,11.9-7c2.8-3,3-6.4,0.4-9.7
		c-2.5-3.2-6.4-4.3-9.8-2.5c-16.6,8.5-33.1,17-49.7,25.5c-4.2,2.1-5.9,6.6-4,10.4c2.1,4.4,6.6,6,11,3.8c5.1-2.5,10.2-5.2,15.3-7.8
		c1.6-0.8,2.7-1.1,3.6,1.1c0.8,2.1,2.2,4,3.3,6.1c5.9,11.5,11.9,23.1,17.8,34.6C539.5,119.9,543.4,127.8,547.4,135.7z"/>
	<path class="st0" d="M476.6,115.9c1.8,0,3.5,0.1,5.3,0c3.8-0.1,7.4-3.9,7.5-7.6c0.2-5.7-3.2-9.1-9-8.9c-6.1,0.2-12.1-0.2-18-2
		C448.1,92.7,437,83.8,429,71.1c-2.7-4.3-8.2-5.9-12-3.4c-4.3,2.7-4.4,8.6-2.1,12.3c3.9,6.3,8.8,11.7,14.2,16.7
		C442.5,109,458.3,115.6,476.6,115.9z"/>
	<path class="st1" d="M661.9,344.8c-7.8,0-15.5,0-23.3,0c-57.6,0-115.2,0-172.8,0c-0.8,0-1.6,0-2.4-0.1c-0.1-0.5,0-0.9,0.2-1.4
		c1.6-3.2,3-6.4,4.8-9.5c1-1.8,0.7-3.1-0.5-4.5c-2.9-3.5-5.8-7.1-8.7-10.7c-1-1.2-1.6-2.2-0.9-4.2c1.5-4.4,3.4-8.8,4.1-13.4
		c0.2-1.2,1-1.3,1.8-1.5c4.3-1.1,8.6-2.2,12.9-3.2c4-0.9,4-0.9,4.8-4.9c0.8-4.1,1.4-8.1,1.9-12.3c0.8-7.1,1.6-14.1,1.6-21.2
		c0-1.3-0.5-2.1-1.6-2.6c-4.6-2.3-9.2-4.7-13.9-6.9c-1.3-0.6-1.8-1.4-1.7-2.8c0.3-4.4-0.9-8.7-1.2-13.1c-0.2-1.9,0.4-2.9,1.7-4
		c3.5-2.8,6.9-5.6,10.4-8.4c1.5-1.2,2.2-2.5,1.7-4.5c-1.3-5.8-2.9-11.5-4.7-17.2c-1.8-5.4-4.1-10.7-6-16.1c-0.4-1.1-1.1-1.3-2-1.3
		c-5.1,0.2-10.2-0.9-15.3-0.9c-1.7,0-2.8-0.6-3.5-2c-2.1-4.2-4.6-8.2-7.1-12.2c-0.5-0.8-0.6-1.6-0.1-2.5c2.5-4.3,4.3-9,6.9-13.2
		c1-1.6,0.9-2.8-0.3-4.3c-2.5-3.4-5.6-6.3-7.6-10c24.1,0,48.1,0,72.2-0.1c10.3,0,20.6,0,30.9,0c1,0,2.1,0.2,3.1-0.4
		c2.5,0.4,5.1,0.1,7.6,0.2c1.3,0.1,1.7-0.6,1.6-1.7c-0.1-5.7-0.1-11.3-0.1-17c0.4-9.8,0.4-19.7,0.1-29.5c-0.3-11.2,7.4-19.6,16.1-22
		c1.6-0.4,3.1-0.6,4.7-0.6c23.6,0,47.2,0,70.8-0.1c2.3,0,2.3,1,2.3,2.7c0,29.7,0,59.4,0,89c0,5,2.9,8.7,7.2,9.3
		c4.8,0.7,8.9-2.4,9.4-7.3c0.1-1,0-1.9,0-2.9c0-28.8,0-57.6,0-86.4c0-4.2,0.3-4.5,4.5-4.5c9.4,0,18.7,0,28.1,0
		c1.7,0,2.3,0.3,2.3,2.2c-0.1,29.8-0.1,59.5,0,89.3c0,2.3-0.1,4.6,1.6,6.6c2.4,2.8,6.1,3.9,9.5,2.6c3.8-1.4,5.1-4.6,5.5-8.3
		c0.1-0.8,0-1.6,0-2.4c0-29,0-57.9,0-86.9c0-3.6-0.3-3.1,3.1-3.1c9.6,0,19.2,0.1,28.8-0.1c2.2,0,2.7,0.6,2.7,2.7c-0.1,30,0,60,0,90
		c0,4.1,2.1,7.1,5.4,8.1c4.3,1.2,8-0.2,10.1-3.8c0.8-1.4,0.9-2.9,0.9-4.4c0-29.8,0-59.7-0.1-89.5c0-2.4,0.6-3.1,3-3
		c9.7,0.2,19.4,0.1,29,0c2,0,2.5,0.6,2.5,2.6c-0.1,29.8,0,59.7,0,89.5c0,6.3,4.8,10.2,10.8,8.7c3-0.7,4.8-2.8,5.5-5.7
		c0.3-1.2,0.3-2.5,0.3-3.8c0-29,0-57.9,0-86.9c0-4.1,0.3-4.4,4.3-4.4c6,0,12-0.1,18,0c10.6,0.2,20.5,9.1,20.5,20.5
		c0,79.4,0,158.7,0,238.1c0,11.3-9.4,20.8-21.6,21.1c-9.5,0.2-19,0-28.6,0c-0.2-0.4-0.4-0.7-0.5-1.1c-1.2-6.3-3.2-12.3-5.8-18.1
		c-4.7-10.7-11.7-19.6-20.5-27c-7.7-6.6-16.5-11.5-26.4-14.3c-6-1.7-11.9-3.5-18.2-3.3c-5.5,0.1-11-0.2-16.5,0.8
		c-5.6,1.1-11.3,2.2-16.5,4.5c-11.2,4.7-21,11.4-29,20.7c-6.2,7.3-11.1,15.3-14.3,24.3C664.3,335.8,663.3,340.4,661.9,344.8z"/>
	<path class="st2" d="M441.3,136.2c2,3.7,5.1,6.6,7.6,10c1.2,1.5,1.3,2.8,0.3,4.3c-2.7,4.2-4.5,8.9-6.9,13.2
		c-0.5,0.9-0.4,1.7,0.1,2.5c2.5,4,5,8,7.1,12.2c0.7,1.4,1.8,2,3.5,2c5.1,0,10.1,1.1,15.3,0.9c0.9,0,1.6,0.2,2,1.3
		c2,5.4,4.2,10.7,6,16.1c1.8,5.6,3.4,11.4,4.7,17.2c0.5,2.1-0.2,3.3-1.7,4.5c-3.5,2.8-6.9,5.6-10.4,8.4c-1.3,1-1.8,2.1-1.7,4
		c0.3,4.4,1.5,8.7,1.2,13.1c-0.1,1.4,0.5,2.1,1.7,2.8c4.7,2.2,9.3,4.6,13.9,6.9c1.1,0.6,1.6,1.3,1.6,2.6c0.1,7.1-0.8,14.2-1.6,21.2
		c-0.5,4.1-1,8.2-1.9,12.3c-0.8,4-0.8,4-4.8,4.9c-4.3,1-8.6,2.1-12.9,3.2c-0.8,0.2-1.7,0.3-1.8,1.5c-0.7,4.7-2.5,9-4.1,13.4
		c-0.7,1.9-0.1,2.9,0.9,4.2c2.9,3.6,5.8,7.1,8.7,10.7c1.2,1.4,1.5,2.8,0.5,4.5c-1.8,3.1-3.2,6.3-4.8,9.5c-0.2,0.5-0.3,0.9-0.2,1.4
		c-2.3,2.3-3.4,5.3-5.1,8c-2.3,3.6-4.6,7.1-7,10.6c-0.8,1.1-1.7,1.6-3,1.5c-4.3-0.4-8.5-1-12.7-1.9c-2.7-0.6-4.8-0.4-6.7,2
		c-2.5,3.2-5.4,6.1-8.2,9.1c-0.9,1-1.3,2-0.8,3.2c1.8,4.5,2.2,9.4,3.9,14c0.6,1.6,0.1,2.9-1.2,4c-8.8,7.6-18.1,14.4-28.1,20.3
		c-1.1,0.7-2.1,0.7-3.3-0.1c-3.9-2.6-7.9-5.1-11.8-7.7c-1.7-1.1-3.3-1.4-5.1-0.5c-3.8,1.9-7.5,3.8-11.5,5.2c-1.4,0.5-2,1.4-2.3,3
		c-0.6,4.7-1.5,9.4-2.3,14.1c-0.3,1.7-1.2,2.5-2.8,3.1c-7.9,2.7-16,4.5-24.3,5.8c-3.1,0.5-6.3,1.2-9.5,1.2c-1.6,0-2.7-0.6-3.6-1.9
		c-2.4-3.8-4.9-7.6-7.3-11.5c-1-1.6-2.1-2.2-4.1-2.1c-4,0.2-8,0.3-12,0c-2.3-0.2-3.6,0.6-4.7,2.4c-2.2,3.7-4.7,7.2-6.9,10.9
		c-1,1.6-2.3,2.3-4.2,2.2c-3.7-0.1-7.3-0.7-10.9-1.4c-7.7-1.4-15.3-3.5-22.9-5.6c-1.9-0.5-2.6-1.7-2.6-3.4c0-4.9-1.8-9.5-2-14.4
		c-0.1-1.3-1-1.9-2.1-2.4c-4.1-1.6-8.1-3.2-12-5.3c-1.5-0.8-2.9-0.8-4.4,0.3c-3.9,2.7-8.1,5.1-12,7.8c-1.3,0.9-2.5,0.9-3.8,0.1
		c-9.5-6-18.9-12.2-27.3-19.8c-1.7-1.5-2.1-3.1-1.4-5.3c1.3-4.3,2.3-8.6,3.4-12.9c0.3-1.3,0.4-2.6-0.8-3.8c-3-3-5.9-6.1-8.5-9.4
		c-1.3-1.7-2.9-2-4.9-1.7c-4.2,0.7-8.3,1.6-12.5,2c-2.4,0.2-4-0.2-5.4-2.3c-6.3-9-11.5-18.5-16.3-28.3c-0.9-1.8-0.8-3.2,0.6-4.8
		c3.1-3.6,6-7.5,9.1-11.1c1-1.2,1.1-2.2,0.6-3.5c-1.7-4.3-3.1-8.7-4.1-13.2c-0.3-1.4-1.4-2-2.8-2.3c-5.1-1.3-10.1-2.6-15.2-3.9
		c-0.8-0.2-1-0.4-1.2-1.2c-1.2-5.5-2.1-11.1-2.9-16.7c-0.8-6.2-1-12.4-1-18.7c0-1.8,0.5-2.9,2.2-3.7c4.4-2.1,8.6-4.5,12.9-6.7
		c1.3-0.6,2.1-1.6,2.1-2.9c0-4.4,0.3-8.7,1.1-13.1c0.3-1.6-0.4-2.7-1.6-3.7c-3.5-2.8-6.9-5.7-10.4-8.4c-1.9-1.5-2.4-2.9-1.8-5.3
		c2.8-11.3,6.4-22.2,11-32.9c0.4-1,1-1.1,1.8-1.1c4.8-0.1,9.6-0.3,14.4-0.4c2.2,0,3.7-0.7,4.6-2.9c1.6-3.5,3.7-6.9,5.9-10.1
		c1.3-1.8,1.4-3.6,0.3-5.5c-2-3.7-3.9-7.5-6-11.1c-1.2-2.1-1.1-3.7,0.4-5.6c6.8-8.9,14.3-17.2,22.4-24.9c1.1-1.1,2.3-1.3,3.7-0.7
		c4.1,1.6,8.3,3.1,12.4,4.8c2.4,1,4.2,1,6.3-0.8c3-2.5,6.3-4.7,9.5-6.8c1.5-1,2.2-2.2,1.9-4c-0.8-4.7-0.9-9.4-0.9-14.1
		c0-1.5,0.4-2.4,1.8-3.3c8.1-4.9,16.8-8.4,25.4-11.9c1.7-0.7,3.4-1.3,5.1-2c2.2-0.9,3.9-0.5,5.5,1.3c2.8,3,6,5.8,8.8,8.8
		c1.8,1.9,3.7,2.2,6,1.6c3.7-0.9,7.4-1.9,11.2-2.4c1.9-0.3,2.8-1.3,3.3-2.9c1.6-4.4,3.3-8.8,4.8-13.2c0.6-1.7,1.6-2.1,3.3-2.4
		c6.1-1.1,12.3-0.6,18.4-0.9c5.8-0.2,11.5,1.1,17.2,1c0.8,0,1.2,0.3,1.5,1.1c1.7,4.8,3.6,9.5,5.4,14.3c0.6,1.6,1.5,2.6,3.5,3
		c4.3,0.9,8.8,1.2,13,2.9c1.2,0.5,2.1,0.1,3-0.8c3.4-3.5,6.9-6.9,10.3-10.4c1.3-1.4,2.6-1.8,4.5-1.1c10.7,3.6,20.9,8.4,30.8,13.8
		c1.6,0.8,2,2.2,1.9,3.8c-0.1,4.7-0.2,9.4-0.4,14.1c-0.1,1.7,0.5,2.8,1.9,3.8c3.5,2.4,6.9,4.9,10.3,7.4c1.1,0.8,2.1,1.2,3.5,0.6
		c4.1-1.7,8.3-3.1,12.4-4.8c2.4-1,4.3-0.9,6.2,1.2c4.3,4.6,8.7,8.9,13.1,13.4C440.3,135.4,440.8,135.7,441.3,136.2z M404.9,256.6
		c0.9-58.1-47.2-104.3-103-105.1c-58.7-0.9-108.7,46.5-107.2,108c1.3,55.2,47.6,102.5,105.6,102.3
		C358.1,361.6,405.8,313.9,404.9,256.6z"/>
	<path class="st2" d="M661.9,344.8c1.4-4.5,2.3-9.1,3.9-13.5c3.2-9.1,8.1-17.1,14.3-24.3c8-9.3,17.8-16,29-20.7
		c5.3-2.2,10.9-3.3,16.5-4.5c5.5-1.1,11-0.7,16.5-0.8c6.3-0.1,12.3,1.7,18.2,3.3c9.8,2.8,18.6,7.7,26.4,14.3
		c8.8,7.5,15.8,16.3,20.5,27c2.6,5.9,4.6,11.9,5.8,18.1c0.1,0.4,0.3,0.7,0.5,1.1c0.5,6.8,0.9,13.5,0.3,20.3
		c-0.8,9.3-3.4,18.1-7.7,26.3c-10.5,20.5-27,33.9-49.1,39.9c-12.6,3.4-25.5,3.4-38.2,0c-15.1-4-28-11.7-38.4-23.4
		c-9.1-10.3-14.9-22.2-17.8-35.7c-1.8-8.7-2.1-17.4-0.6-26.1C662.1,345.8,662,345.3,661.9,344.8z M737.5,393.4
		c17.9,1.3,37-15.2,36.5-37.1c-0.4-19-17.6-35.5-36.6-35.3c-19.4,0.2-35.9,17-36.2,35.7C701,376.3,717.9,394.4,737.5,393.4z"/>
	<path class="st2" d="M556.5,117.2c0,5.7,0.1,11.3,0.1,17c0,1.2-0.3,1.8-1.6,1.7c-2.5-0.1-5.1,0.2-7.6-0.2
		c-4-7.9-7.9-15.8-11.9-23.7c-5.9-11.6-11.8-23.1-17.8-34.6c-1.1-2.1-2.5-3.9-3.3-6.1c-0.8-2.2-2-1.9-3.6-1.1
		c-5.1,2.6-10.2,5.2-15.3,7.8c-4.5,2.2-8.9,0.6-11-3.8c-1.8-3.9-0.1-8.3,4-10.4c16.6-8.5,33.1-17,49.7-25.5c3.4-1.7,7.3-0.7,9.8,2.5
		c2.5,3.3,2.4,6.8-0.4,9.7c-3.3,3.5-7.9,4.7-11.9,7c-2.1,1.2-4.2,2.2-6.4,3.2c-1.4,0.7-1.6,1.7-0.9,2.9c5.6,9.8,10.3,20,15.5,29.9
		c3.7,7,7.4,14.1,11,21.2C555.3,115.6,555.9,116.5,556.5,117.2z"/>
	<path class="st2" d="M476.6,115.9c-18.3-0.3-34.1-6.9-47.5-19.3c-5.4-5-10.3-10.4-14.2-16.7c-2.3-3.7-2.2-9.6,2.1-12.3
		c3.8-2.4,9.3-0.8,12,3.4c8,12.8,19.1,21.6,33.4,26.3c5.8,1.9,11.9,2.2,18,2c5.9-0.2,9.2,3.2,9,8.9c-0.1,3.8-3.8,7.5-7.5,7.6
		C480.1,115.9,478.4,115.9,476.6,115.9z"/>
	<path class="st0" d="M404.9,256.6c0.9,57.4-46.8,105-104.7,105.2c-58,0.2-104.3-47.1-105.6-102.3c-1.4-61.5,48.6-108.8,107.2-108
		C357.7,152.2,405.8,198.5,404.9,256.6z M248.4,256.5c-1,28.1,23.8,51.9,50.6,52.5c30.2,0.6,53.3-24.1,54-51.3
		c0.7-29.1-24.6-53.5-52.4-53.5C271.6,204.2,247.3,229.3,248.4,256.5z"/>
	<path class="st0" d="M737.5,393.4c-19.7,1-36.6-17.1-36.3-36.7c0.3-18.8,16.7-35.5,36.2-35.7c19.1-0.2,36.2,16.2,36.6,35.3
		C774.5,378.2,755.5,394.8,737.5,393.4z"/>
	<path class="st2" d="M248.4,256.5c-1.1-27.2,23.2-52.3,52.2-52.3c27.8-0.1,53.1,24.4,52.4,53.5c-0.7,27.3-23.8,51.9-54,51.3
		C272.2,308.4,247.4,284.6,248.4,256.5z"/>
</g>
</svg>
