<?xml version="1.0" encoding="utf-8"?>
<!-- Generator: Adobe Illustrator 22.0.0, SVG Export Plug-In . SVG Version: 6.00 Build 0)  -->
<svg version="1.1" baseProfile="basic" id="Livello_1"
	 xmlns="http://www.w3.org/2000/svg" xmlns:xlink="http://www.w3.org/1999/xlink" x="0px" y="0px" viewBox="0 0 1656 328.4"
	 xml:space="preserve">
<style type="text/css">
	.st0{fill:#FEFEFE;}
	.st1{fill:#1F191A;}
	.st2{fill:#1A428A;}
</style>
<g>
	<path class="st0" d="M704,262.5c0-11,0-22.2,0.2-33.2c0-0.8-0.1-1.2-1-1.1c-4.1,0.1-8.2-0.1-12.3,0c-1.7,0-1.8,0-1.8,1.7
		c-0.1,8.2-0.1,16.4,0,24.6c0,1.1-0.3,1.5-1.5,1.5c-8.3-0.1-16.8-0.1-25.1-0.1c-1.1,0-1.3-0.3-1.3-1.4c0.1-8.3,0-16.8,0.2-25.1
		c0-0.9-0.2-1.2-1.1-1.1c-4.3,0.1-8.6,0.1-13.1,0c-0.9,0-1.1,0.4-1.1,1.1c0,22.1-0.2,44.2-0.2,66.3c0,1,0.4,1.2,1.2,1.2
		c4.2-0.1,8.4,0,12.7,0.1c1.1,0,1.4-0.3,1.4-1.4c0-8.3,0-16.7,0.1-25c0-1.2,0.4-1.4,1.5-1.4c8.3,0.1,16.8,0.1,25.1,0.1
		c1,0,1.4,0.2,1.4,1.4c-0.1,8.3,0,16.7-0.2,25c0,1.1,0.2,1.5,1.4,1.5c4.1-0.1,8.2,0,12.3,0c1.1,0,1.5-0.2,1.5-1.4
		C703.9,284.5,704,273.5,704,262.5z"/>
	<path class="st0" d="M808.1,297.3c4.7,0,9.1,0,13.7,0.1c1.1,0,1.7-0.3,2.1-1.4c1.4-4.1,3-8.3,4.4-12.4c0.3-1,0.8-1.4,1.8-1.4
		c7.3,0.1,14.7,0.1,22,0.1c2.7,0.1,2.7,0,3.6,2.7c1.1,3.8,2.5,7.6,3.8,11.5c0.3,0.8,0.7,1.1,1.6,1.1c4.3-0.1,8.6-0.1,13.1,0
		c1.1,0,1.3-0.4,1-1.4c-0.5-1.4-1.1-2.8-1.6-4.2c-3.2-8.5-6.3-17-9.5-25.5c-2.8-7.5-5.6-15.1-8.3-22.6c-1.7-4.8-3.6-9.5-5.3-14.4
		c-0.2-0.6-0.6-0.7-1.2-0.7c-4.5,0-9,0-13.5,0c-1,0-1.5,0.4-1.8,1.4c-3.9,10.3-7.9,20.6-11.8,30.9c-3.5,9-6.9,18-10.4,26.9
		C810.5,291,809.4,294.1,808.1,297.3z"/>
	<path class="st0" d="M762.4,262.9c0,10.9-0.1,21.9-0.1,32.8c0,1,0.2,1.4,1.3,1.4c4.2-0.1,8.3,0,12.5,0.1c1.1,0,1.4-0.3,1.4-1.4
		c-0.1-8.5,0.1-17.1,0-25.6c0-1,0.3-1.3,1.3-1.3c8.6,0,17.3,0.1,25.9,0.1c1.8,0,1.8,0,1.8-1.7c0-2.9,0-5.8,0-8.7
		c0-1-0.2-1.3-1.3-1.3c-8.8,0-17.6,0-26.4-0.1c-1,0-1.3-0.3-1.3-1.3c0-4.1,0.1-8.3,0.1-12.5c0-2.5-0.5-2.3,2.2-2.2
		c9.9,0,19.9,0,29.7,0.1c0.9,0,1.2-0.2,1.2-1.2c0-3.3-0.1-6.6,0-10c0.1-1.1-0.3-1.4-1.4-1.4c-15.3,0-30.4-0.1-45.6-0.2
		c-1.2,0-1.4,0.4-1.3,1.4C762.5,240.9,762.4,251.9,762.4,262.9z"/>
	<path class="st0" d="M1044.9,229.6c-3.6,0-6,2.3-6,5.9c0,3.3,2.6,6,6.1,6c3.2,0,5.9-2.7,5.9-5.8
		C1050.8,232,1048.5,229.6,1044.9,229.6z"/>
	<path class="st1" d="M952.1,298c0.1-22.6,0.2-45.2,0.2-67.7c0-0.9,0.2-1.3,1.3-1.3c6.3,0,12.6,0.1,18.9,0c1,0,1.6,0.3,1.9,1.3
		c3.4,10.3,6.8,20.7,10.4,31c1.6,4.6,3,9.2,4.6,13.7c0.1,0.3,0.1,0.5,0.5,0.8c1.1-1.4,1.2-3.1,1.7-4.8c2.4-7.1,4.7-14.3,7-21.4
		c1.7-5.1,3.3-10.1,4.9-15.2c0.4-1.3,0.9-2.8,1.3-4.1c0.3-0.9,0.8-1.3,1.8-1.3c6.3,0,12.6,0.1,18.9,0c1,0,1.2,0.3,1.2,1.3
		c-0.1,14.1-0.1,28.1-0.2,42.2c0,8.5-0.1,17.1-0.1,25.6c-4.8,0-9.6,0-14.5,0c0.1-15.8,0.1-31.4,0.1-47.1c-0.1,0-0.3-0.1-0.4-0.1
		c-0.2,0.7-0.6,1.4-0.8,2c-1.4,3.8-2.7,7.7-4.1,11.5c-3,8.6-6,17.2-9,25.8c-1,2.6-1.5,5.3-2.8,7.8c-3.7,0-7.5,0-11.2,0
		c-0.2-0.3-0.6-0.6-0.7-0.9c-1.1-3.2-2.2-6.4-3.4-9.6c-2.8-8-5.5-15.9-8.2-23.9c-1-2.8-2.1-5.7-3-8.7c-0.5-1.7-1.1-3.3-1.9-4.9
		c0.2,16.1-0.1,32.1,0,48C961.7,298.1,956.9,298.1,952.1,298z"/>
	<path class="st1" d="M882.1,297.8c0.1-22.6,0.2-45.2,0.2-67.8c0-1,0.3-1.1,1.2-1.1c12.6,0.1,25.2,0,37.8,0.2
		c7.4,0.1,14.7,4.4,17.3,11.9c2.3,6.5,1.9,12.9-2.1,18.7c-1.4,2.1-3.5,3.7-5.8,4.8c-0.4,0.2-1,0.3-1,0.8c0,0.6,0.7,0.5,1.1,0.7
		c3.1,1.3,5.1,3.8,6.3,6.9c1.4,3.4,1.6,6.9,1.8,10.4c0.2,4.5,0.2,9,2.1,13.3c0.2,0.4,0.1,0.9,0.1,1.4c-4.9-0.1-9.8,0-14.8-0.1
		c-1.2-3.3-1.6-6.7-1.7-10.2c-0.1-3.3-0.4-6.7-1.4-9.9c-1-3.7-4.1-6.7-8.8-6.6c-5.2,0.1-10.4,0-15.7,0c-1,0-1.2,0.3-1.2,1.2
		c0.1,8.5-0.1,17.1-0.1,25.6C892.4,297.8,887.2,297.9,882.1,297.8z M907.4,260.1c2.8,0.1,5.7,0,8.5,0c0.5,0,1,0,1.5-0.1
		c4.9-1.2,7.2-4.6,7.1-9.9c-0.3-6.6-3.3-9.4-9.8-9.5c-5.2,0-10.5-0.1-15.9-0.1c-0.8,0-1.1,0.2-1,1c0,5.8,0,11.6-0.1,17.5
		c0,0.8,0.2,1.1,1,1C901.6,260.2,904.5,260.1,907.4,260.1z"/>
	<path class="st0" d="M897.5,297.9c0-8.5,0.1-17.1,0.1-25.6c0-0.9,0.2-1.2,1.2-1.2c5.2,0,10.5,0.2,15.7,0c4.7,0,7.8,2.9,8.8,6.6
		c0.9,3.2,1.2,6.6,1.4,9.9c0.1,3.5,0.5,7,1.7,10.2C916.7,298,907.2,297.9,897.5,297.9z"/>
	<path class="st0" d="M966.6,298.1c0-16,0.3-31.8,0-48c0.8,1.7,1.4,3.3,1.9,4.9c0.9,2.9,1.9,5.8,3,8.7c2.8,8,5.5,15.9,8.2,23.9
		c1.1,3.2,2.2,6.4,3.4,9.6c0.1,0.4,0.5,0.7,0.7,0.9C978.1,298.1,972.4,298.1,966.6,298.1z"/>
	<path class="st0" d="M995.1,298.2c1.3-2.4,1.9-5.2,2.8-7.8c3-8.6,6.1-17.2,9-25.8c1.4-3.8,2.7-7.7,4.1-11.5c0.2-0.7,0.6-1.4,0.8-2
		c0.1,0,0.3,0.1,0.4,0.1c-0.1,15.8-0.1,31.4-0.1,47.1C1006.4,298.2,1000.8,298.2,995.1,298.2z"/>
	<path class="st1" d="M704,262.5c0,10.9-0.1,22-0.1,32.9c0,1.1-0.3,1.4-1.5,1.4c-4.1,0-8.2-0.1-12.3,0c-1.2,0-1.4-0.4-1.4-1.5
		c0.1-8.3,0-16.7,0.2-25c0-1.1-0.3-1.4-1.4-1.4c-8.4,0-16.8,0-25.1-0.1c-1.1,0-1.5,0.2-1.5,1.4c0,8.3,0,16.7-0.1,25
		c0,1-0.2,1.4-1.4,1.4c-4.2-0.1-8.4-0.1-12.7-0.1c-0.9,0-1.2-0.2-1.2-1.2c0.1-22.1,0.2-44.2,0.2-66.3c0-0.8,0.2-1.1,1.1-1.1
		c4.3,0.1,8.6,0,13.1,0c0.9,0,1.1,0.3,1.1,1.1c-0.1,8.3,0,16.8-0.2,25.1c0,1.1,0.2,1.4,1.3,1.4c8.4,0,16.8,0,25.1,0.1
		c1.2,0,1.5-0.3,1.5-1.5c0-8.2,0-16.4,0-24.6c0-1.7,0-1.7,1.8-1.7c4.1,0,8.2,0.1,12.3,0c0.9,0,1,0.3,1,1.1
		C704.1,240.3,704.1,251.4,704,262.5z"/>
	<path class="st1" d="M808.1,297.3c1.2-3.2,2.4-6.2,3.5-9.2c3.5-9,6.9-18,10.4-26.9c3.9-10.3,7.9-20.6,11.8-30.9
		c0.3-0.9,0.9-1.4,1.8-1.4c4.5,0.1,9,0,13.5,0c0.5,0,0.9,0,1.2,0.7c1.7,4.8,3.5,9.5,5.3,14.4c2.8,7.5,5.6,15.1,8.3,22.6
		c3.2,8.5,6.3,17,9.5,25.5c0.5,1.4,1.1,2.8,1.6,4.2c0.4,0.9,0.2,1.4-1,1.4c-4.3-0.1-8.6,0-13.1,0c-0.8,0-1.3-0.3-1.6-1.1
		c-1.2-3.8-2.6-7.6-3.8-11.5c-0.8-2.6-0.7-2.6-3.6-2.7c-7.3-0.1-14.7-0.1-22-0.1c-1.1,0-1.5,0.3-1.8,1.4c-1.4,4.1-3,8.3-4.4,12.4
		c-0.4,1.1-1,1.5-2.1,1.4C817.3,297.3,812.8,297.3,808.1,297.3z M842.1,245.7c-0.1,0-0.2,0-0.3,0c-3,8.4-6,16.8-9,25.2
		c6,0.1,12,0,18,0.1C847.8,262.4,844.9,254,842.1,245.7z"/>
	<path class="st1" d="M762.4,262.9c0-10.9,0.1-21.9,0.1-32.8c0-1,0.2-1.4,1.3-1.4c15.2,0.2,30.4,0.2,45.6,0.2c1,0,1.4,0.2,1.4,1.4
		c-0.1,3.3-0.1,6.6,0,10c0,0.9-0.3,1.2-1.2,1.2c-9.9-0.1-19.9-0.1-29.7-0.1c-2.7,0-2.2-0.3-2.2,2.2c0,4.1,0,8.3-0.1,12.5
		c0,1,0.3,1.4,1.3,1.3c8.8,0,17.6,0,26.4,0.1c1,0,1.3,0.3,1.3,1.3c0,2.9,0,5.8,0,8.7c0,1.7,0,1.7-1.8,1.7c-8.6,0-17.3-0.1-25.9-0.1
		c-1,0-1.3,0.2-1.3,1.3c0.1,8.5-0.1,17.1,0,25.6c0,1-0.2,1.4-1.4,1.4c-4.1,0-8.3-0.2-12.5-0.1c-1.1,0-1.3-0.4-1.3-1.4
		C762.2,284.8,762.3,273.8,762.4,262.9z"/>
	<path class="st1" d="M733.2,269.3c-4.3,0-8.6,0-12.9-0.1c-0.8,0-1.1-0.2-1.1-1c0.1-3.7,0-7.4,0-11c0-0.8,0.3-1,1-1
		c8.6,0,17.2,0.1,25.7,0.1c0.8,0,1.1,0.2,1.1,1.1c-0.1,3.6-0.1,7.3,0,10.9c0,0.9-0.3,1.1-1.1,1.1
		C741.7,269.4,737.5,269.3,733.2,269.3z"/>
	<path class="st1" d="M1044.9,229.6c3.6,0,5.9,2.4,6,6c0,3.1-2.7,5.9-5.9,5.8c-3.3,0-6.1-2.7-6.1-6
		C1038.9,232,1041.3,229.7,1044.9,229.6z M1049.9,235.5c0-2.9-2-5.1-4.9-5.2c-3,0-5.2,2.1-5.3,5.1c0,2.9,2.1,5.1,4.7,5.2
		C1047.7,240.7,1049.9,238.6,1049.9,235.5z"/>
	<path class="st0" d="M1049.9,235.5c0,3.1-2.3,5.1-5.4,5.1c-2.6-0.1-4.7-2.4-4.7-5.2c0-3,2.3-5.1,5.3-5.1
		C1047.9,230.5,1050,232.6,1049.9,235.5z M1047.8,238.8c-0.5-0.8-0.9-1.4-1.4-2c-0.5-0.6-0.6-0.9,0.3-1.2c0.9-0.4,1-1.2,0.8-2
		c-0.1-0.8-0.6-1.4-1.4-1.5c-1-0.1-2,0-2.9-0.1c-0.4,0-0.5,0.2-0.6,0.6c0,2,0,4-0.1,6c0,0.3,0.1,0.4,0.4,0.5c0.3,0,0.4-0.1,0.5-0.4
		c0-0.5-0.1-1.1,0-1.6c0.1-0.3-0.3-0.9,0.3-0.9c0.5,0,1.1-0.3,1.4,0.4c0.4,0.7,0.9,1.3,1.3,2
		C1046.8,238.9,1047.2,239.1,1047.8,238.8z"/>
	<path class="st1" d="M1047.8,238.8c-0.7,0.2-1,0.1-1.3-0.5c-0.4-0.7-0.9-1.3-1.3-2c-0.4-0.7-0.9-0.5-1.4-0.4
		c-0.6,0.1-0.2,0.6-0.3,0.9c-0.1,0.5,0,1.1,0,1.6c0,0.3-0.1,0.5-0.5,0.4c-0.3,0-0.5-0.1-0.4-0.5c0-2,0-4,0.1-6
		c0-0.4,0.1-0.6,0.6-0.6c1,0,2,0,2.9,0.1c0.8,0.1,1.4,0.6,1.4,1.5c0.1,0.8,0,1.7-0.8,2c-0.9,0.4-0.6,0.7-0.3,1.2
		C1047,237.4,1047.3,238.1,1047.8,238.8z M1044.9,232.6c-0.8-0.1-1.6-0.2-1.5,1.2c0.1,0.8,0.1,1.4,1.2,1.3c1.6-0.1,2.2-0.4,2.2-1.4
		C1046.8,232.6,1045.9,232.7,1044.9,232.6z"/>
	<path class="st0" d="M1044.9,232.6c1-0.1,1.8-0.1,1.9,1.1c0.1,1-0.5,1.2-2.2,1.4c-1.1,0.1-1.1-0.4-1.2-1.3
		C1043.3,232.5,1044.1,232.5,1044.9,232.6z"/>
</g>
<path class="st2" d="M65.7,206.7c0-6.6-0.2-13,0.3-19.4c0.1-1,3.1-2.6,4.7-2.6c13.7-0.2,27.5-0.1,41.3-0.1c17.4,0.1,34.7,0.2,52,0.3
	c21.8,0.2,43.6,0.2,65.4,0.3c21.1,0,42.2,0.1,63.3,0.1c21.1,0.1,42.2,0.4,63.2,0.4c21.1,0.1,42.2,0.1,63.3,0.2
	c24.7,0.1,49.3,0.1,74,0.2c21.1,0.1,42.2,0.3,63.3,0.4c25.4,0.1,50.7,0.3,76.1,0.4c24.8,0.1,49.7,0.2,74.5,0.3c25,0.1,50,0.3,75,0.5
	c20.9,0.1,41.9,0.2,62.8,0.2c25.2,0.2,50.4,0.3,75.6,0.4c24.8,0.1,49.7,0.2,74.5,0.3c25,0.1,50,0.3,75,0.5
	c20.7,0.1,41.5,0.2,62.2,0.3c29.3,0.1,58.6,0.1,88,0.2c32.3,0.1,64.8,0.4,97.1,0.5c33,0.2,66.2,0.3,99.2,0.5
	c32.3,0.1,64.8,0.3,97.1,0.4c34,0.2,68,0.4,102,0.6c0.9,0,1.7,0.1,3.4,0.3c0,6.4,0.1,12.8-0.2,19.2c0,0.9-2.4,2.3-3.7,2.3
	c-19,0.1-38,0-56.9-0.2c-32.9-0.2-65.8-0.3-98.7-0.5c-32.3-0.1-64.8-0.3-97.1-0.5c-32.5-0.1-65.1-0.3-97.6-0.5
	c-33-0.2-66.2-0.3-99.2-0.5c-31.6-0.2-63.3-0.3-95-0.5c-34.1-0.2-68.3-0.3-102.5-0.4c-45.3-0.1-90.6-0.1-135.9-0.3
	c-79.4-0.3-158.9-0.7-238.4-1.1c-109.4-0.5-218.8-1-328-1.4c-38.1-0.1-76.2-0.1-114.3-0.3c-27.3-0.1-54.6-0.3-82-0.3
	C68.5,206.9,67.5,206.7,65.7,206.7z"/>
</svg>
