<?xml version="1.0" encoding="utf-8"?>
<!-- Generator: Adobe Illustrator 23.0.0, SVG Export Plug-In . SVG Version: 6.00 Build 0)  -->
<svg version="1.1" id="Livello_1" xmlns="http://www.w3.org/2000/svg" xmlns:xlink="http://www.w3.org/1999/xlink" x="0px" y="0px"
	 viewBox="0 0 914.9 498.7" style="enable-background:new 0 0 914.9 498.7;" xml:space="preserve">
<style type="text/css">
	.st0{fill:#FEFEFE;}
	.st1{fill:#1F191A;}
</style>
<path class="st0" d="M180.7,249.1c0-21.3,0-42.6,0-63.8c0-1.6-0.3-2.2-2-2.1c-7.9,0.1-15.8,0-23.8,0c-3.3,0-3.4,0-3.4,3.3
	c0,15.8-0.1,31.5,0.1,47.3c0,2.2-0.4,3-2.8,3c-16.1-0.1-32.2-0.1-48.2,0c-2.2,0-2.6-0.6-2.6-2.7c0.1-16.1,0-32.2,0.1-48.2
	c0-1.7-0.4-2.2-2.1-2.2c-8.3,0.1-16.6,0.1-25,0c-1.8,0-2.1,0.7-2.1,2.2c0,42.4,0,84.8,0,127.2c0,1.9,0.7,2.2,2.3,2.2
	c8.1-0.1,16.2-0.1,24.2,0c2.2,0,2.6-0.6,2.6-2.7c-0.1-16,0-32-0.1-48c0-2.3,0.7-2.7,2.8-2.7c16.1,0.1,32.2,0.1,48.2,0
	c2,0,2.7,0.4,2.7,2.6c-0.1,16,0,32-0.1,48c0,2.1,0.4,2.8,2.7,2.8c7.9-0.2,15.8-0.1,23.8,0c2.2,0,2.8-0.5,2.8-2.8
	C180.6,291.3,180.7,270.2,180.7,249.1z"/>
<path class="st0" d="M380.7,315.1c9,0,17.6-0.1,26.3,0c2.2,0,3.2-0.7,3.9-2.7c2.7-8,5.6-15.9,8.3-23.9c0.6-1.9,1.5-2.6,3.5-2.6
	c14.1,0.1,28.2,0,42.2,0c5.3,0,5.2,0,6.8,5.1c2.3,7.4,4.9,14.6,7.4,22c0.5,1.5,1.4,2.1,3,2.1c8.3-0.1,16.6-0.1,25,0
	c2.2,0,2.5-0.8,1.8-2.6c-1-2.7-2-5.4-3-8c-6.1-16.3-12.3-32.6-18.4-48.9c-5.4-14.4-10.7-28.8-16.1-43.2c-3.4-9.2-6.9-18.3-10.2-27.5
	c-0.4-1.2-1.1-1.3-2.2-1.3c-8.6,0-17.3,0-25.9,0c-2,0-2.9,0.9-3.5,2.6c-7.5,19.8-15,39.6-22.5,59.4c-6.6,17.3-13.1,34.5-19.7,51.8
	C385.2,303.1,383,308.9,380.7,315.1z"/>
<path class="st0" d="M292.6,249.4c0,21,0,42.1,0,63.1c0,2,0.4,2.7,2.6,2.7c8-0.2,16-0.1,24,0c2.2,0,2.6-0.6,2.6-2.7
	c-0.1-16.4,0-32.8-0.1-49.2c0-2,0.6-2.5,2.5-2.5c16.6,0.1,33.1,0.1,49.7,0c3.4,0,3.4,0,3.4-3.3c0-5.6-0.1-11.2,0-16.8
	c0-2-0.4-2.5-2.5-2.5c-16.9,0.1-33.8,0-50.6,0.1c-2,0-2.6-0.5-2.6-2.5c0.1-8,0-16,0.1-24c0-4.9-0.9-4.3,4.3-4.3
	c19-0.1,38.1,0,57.1,0c1.8,0,2.3-0.4,2.3-2.3c-0.1-6.4-0.2-12.8,0-19.2c0.1-2.2-0.7-2.6-2.7-2.6c-29.2,0.1-58.4,0.1-87.6,0
	c-2.3,0-2.6,0.8-2.5,2.7C292.6,207.3,292.6,228.4,292.6,249.4z"/>
<path class="st0" d="M236.6,262c8.2,0,16.5,0,24.7,0c1.7,0,2.2-0.4,2.1-2.1c-0.1-7-0.1-14.1,0-21.1c0-1.7-0.5-2.1-2.2-2.1
	c-16.5,0.1-32.9,0.1-49.4,0c-1.6,0-2,0.4-2,2c0.1,7.1,0.1,14.2,0,21.3c0,1.7,0.5,2,2.1,2C220.1,262,228.3,262,236.6,262z"/>
<path class="st0" d="M834.6,183.6c-6.9,0-11.5,4.5-11.5,11.2c0,6.4,5.1,11.5,11.6,11.5c6.1,0,11.3-5.2,11.3-11.2
	C846.1,188.1,841.6,183.6,834.6,183.6z"/>
<path class="st1" d="M657,315.6c0-43.3,0-86.7,0-130c0-1.8,0.4-2.5,2.4-2.5c12.1,0.1,24.2,0.1,36.2,0c2,0,3.1,0.5,3.8,2.6
	c6.6,19.8,13.2,39.6,20.1,59.4c3.1,8.8,5.9,17.6,9,26.3c0.2,0.5,0.3,1,0.9,1.4c2.1-2.7,2.3-6,3.3-9.1c4.5-13.7,8.9-27.4,13.4-41.2
	c3.1-9.7,6.2-19.5,9.3-29.2c0.8-2.6,1.6-5.3,2.6-7.9c0.7-1.8,1.6-2.4,3.5-2.4c12.1,0.1,24.2,0.1,36.2,0c2,0,2.3,0.6,2.3,2.5
	c-0.1,27,0,53.9,0,80.9c0,16.4,0,32.8,0,49.2c-9.3,0-18.6,0-27.8,0c0-30.2,0-60.4,0-90.5c-0.2,0-0.5-0.1-0.7-0.1
	c-0.5,1.3-1.1,2.6-1.6,3.9c-2.6,7.4-5.1,14.8-7.7,22.2c-5.7,16.5-11.4,33-17.2,49.5c-1.8,5-3,10.2-5.4,14.9c-7.2,0-14.4,0-21.6,0
	c-0.5-0.6-1.1-1-1.4-1.8c-2.1-6.1-4.3-12.3-6.5-18.4c-5.4-15.3-10.7-30.5-16-45.8c-1.9-5.5-4.1-11-5.8-16.6c-1-3.2-2.2-6.3-3.7-9.5
	c0.5,31,0.1,61.6,0.2,92.2C675.6,315.6,666.3,315.6,657,315.6z"/>
<path class="st1" d="M522.6,315.6c0-43.4,0-86.8-0.1-130.2c0-1.9,0.6-2.2,2.3-2.2c24.1,0.1,48.3-0.2,72.4,0.1
	c14.3,0.2,28.3,8.3,33.3,22.8c4.4,12.5,3.8,24.7-3.9,35.9c-2.8,4.1-6.6,7.1-11,9.3c-0.8,0.4-1.9,0.6-1.9,1.6c0,1.1,1.3,1,2,1.4
	c6,2.5,9.7,7.2,12.2,13.1c2.8,6.4,3.2,13.2,3.6,20c0.5,8.6,0.4,17.4,4.1,25.5c0.4,0.8,0.2,1.7,0.2,2.6c-9.4,0-18.9,0-28.3,0
	c-2.3-6.3-3.1-12.9-3.4-19.6c-0.3-6.4-0.9-12.9-2.7-19.1c-2.1-7.2-8-12.8-16.9-12.7c-10,0.2-20,0.1-30,0c-1.9,0-2.2,0.6-2.2,2.3
	c0.1,16.4,0,32.7,0,49.1C542.5,315.6,532.5,315.6,522.6,315.6z M571.1,243.1c5.4,0,10.9,0,16.3,0c1,0,1.9,0,2.8-0.3
	c9.4-2.5,13.9-8.8,13.5-18.9c-0.5-12.6-6.4-18.2-18.9-18.2c-10.1,0-20.3,0-30.4,0c-1.5,0-2,0.4-2,2c0.1,11.2,0.1,22.4,0,33.6
	c0,1.5,0.3,2,1.9,2C559.9,243.1,565.5,243.1,571.1,243.1z"/>
<path class="st0" d="M552.4,315.6c0-16.4,0-32.7,0-49.1c0-1.7,0.3-2.3,2.2-2.3c10,0.1,20,0.2,30,0c9-0.1,14.9,5.5,16.9,12.7
	c1.8,6.2,2.4,12.7,2.7,19.1c0.3,6.7,1.1,13.3,3.4,19.6C589.2,315.6,570.8,315.6,552.4,315.6z"/>
<path class="st0" d="M684.9,315.6c-0.1-30.6,0.3-61.2-0.2-92.2c1.5,3.3,2.7,6.3,3.7,9.5c1.7,5.6,3.8,11.1,5.8,16.6
	c5.4,15.3,10.7,30.5,16,45.8c2.2,6.1,4.3,12.3,6.5,18.4c0.3,0.8,0.9,1.3,1.4,1.8C706.9,315.6,695.9,315.6,684.9,315.6z"/>
<path class="st0" d="M739.6,315.6c2.5-4.7,3.7-9.9,5.4-14.9c5.8-16.5,11.5-33,17.2-49.5c2.6-7.4,5.1-14.8,7.7-22.2
	c0.5-1.3,1.1-2.6,1.6-3.9c0.2,0,0.5,0.1,0.7,0.1c0,30.2,0,60.4,0,90.5C761.3,315.6,750.5,315.6,739.6,315.6z"/>
<path class="st1" d="M180.7,249.1c0,21.1,0,42.2,0.1,63.3c0,2.2-0.6,2.8-2.8,2.8c-7.9-0.1-15.8-0.1-23.8,0c-2.3,0-2.7-0.7-2.7-2.8
	c0.1-16,0-32,0.1-48c0-2.2-0.6-2.6-2.7-2.6c-16.1,0.1-32.2,0.1-48.2,0c-2.1,0-2.8,0.4-2.8,2.7c0.1,16,0,32,0.1,48
	c0,2-0.4,2.7-2.6,2.7c-8.1-0.2-16.2-0.1-24.2,0c-1.7,0-2.3-0.3-2.3-2.2c0.1-42.4,0.1-84.8,0-127.2c0-1.6,0.3-2.2,2.1-2.2
	c8.3,0.1,16.6,0.1,25,0c1.7,0,2.1,0.5,2.1,2.2c-0.1,16.1,0,32.2-0.1,48.2c0,2.1,0.5,2.7,2.6,2.7c16.1-0.1,32.2-0.1,48.2,0
	c2.4,0,2.8-0.7,2.8-3c-0.1-15.8-0.1-31.5-0.1-47.3c0-3.3,0-3.3,3.4-3.3c7.9,0,15.8,0.1,23.8,0c1.7,0,2,0.5,2,2.1
	C180.6,206.5,180.7,227.8,180.7,249.1z"/>
<path class="st1" d="M380.7,315.1c2.3-6.2,4.5-12,6.7-17.8c6.6-17.3,13.1-34.5,19.7-51.8c7.5-19.8,15-39.6,22.5-59.4
	c0.6-1.7,1.6-2.6,3.5-2.6c8.6,0.1,17.3,0,25.9,0c1,0,1.7,0.1,2.2,1.3c3.3,9.2,6.8,18.3,10.2,27.5c5.4,14.4,10.7,28.8,16.1,43.2
	c6.1,16.3,12.3,32.6,18.4,48.9c1,2.7,2,5.4,3,8c0.7,1.7,0.4,2.6-1.8,2.6c-8.3-0.1-16.6-0.1-25,0c-1.6,0-2.5-0.6-3-2.1
	c-2.4-7.3-5-14.6-7.4-22c-1.6-5.1-1.4-5.1-6.8-5.1c-14.1,0-28.2,0-42.2,0c-2.1,0-2.9,0.7-3.5,2.6c-2.7,8-5.6,15.9-8.3,23.9
	c-0.7,2.1-1.8,2.8-3.9,2.7C398.3,315.1,389.7,315.1,380.7,315.1z M445.5,215.8c-0.2,0-0.4,0-0.6,0c-5.7,16.1-11.5,32.2-17.2,48.4
	c11.6,0,23,0,34.5,0C456.6,248,451,231.9,445.5,215.8z"/>
<path class="st1" d="M292.6,249.4c0-21,0-42.1,0-63.1c0-2,0.3-2.7,2.5-2.7c29.2,0.1,58.4,0.1,87.6,0c2,0,2.8,0.3,2.7,2.6
	c-0.2,6.4-0.1,12.8,0,19.2c0,1.8-0.5,2.3-2.3,2.3c-19-0.1-38.1-0.1-57.1,0c-5.2,0-4.3-0.6-4.3,4.3c-0.1,8,0.1,16-0.1,24
	c0,2,0.6,2.6,2.6,2.5c16.9-0.1,33.8,0,50.6-0.1c2,0,2.5,0.6,2.5,2.5c-0.1,5.6,0,11.2,0,16.8c0,3.2,0,3.3-3.4,3.3
	c-16.6,0-33.1,0-49.7,0c-2,0-2.5,0.5-2.5,2.5c0.1,16.4,0,32.8,0.1,49.2c0,2-0.4,2.7-2.6,2.7c-8-0.1-16-0.2-24,0
	c-2.2,0-2.6-0.7-2.6-2.7C292.6,291.5,292.6,270.4,292.6,249.4z"/>
<path class="st1" d="M236.6,262c-8.2,0-16.5,0-24.7,0c-1.5,0-2.1-0.3-2.1-2c0.1-7.1,0.1-14.2,0-21.3c0-1.6,0.5-2,2-2
	c16.5,0.1,32.9,0.1,49.4,0c1.6,0,2.2,0.4,2.2,2.1c-0.1,7-0.1,14.1,0,21.1c0,1.7-0.5,2.1-2.1,2.1C253,262,244.8,262,236.6,262z"/>
<path class="st1" d="M834.6,183.6c6.9,0,11.4,4.5,11.4,11.5c0,6-5.2,11.2-11.3,11.2c-6.4,0-11.6-5.1-11.6-11.5
	C823.2,188.1,827.8,183.6,834.6,183.6z M844.3,194.9c0.1-5.6-3.9-9.9-9.4-10c-5.8-0.1-10,4-10,9.8c0,5.5,4,9.9,9.1,10
	C840.1,204.8,844.3,200.9,844.3,194.9z"/>
<path class="st0" d="M571.1,243.1c-5.6,0-11.2-0.1-16.8,0c-1.6,0-1.9-0.5-1.9-2c0.1-11.2,0.1-22.4,0-33.6c0-1.6,0.4-2,2-2
	c10.1,0.1,20.3,0,30.4,0c12.6,0,18.4,5.6,18.9,18.2c0.4,10.2-4.1,16.5-13.5,18.9c-1,0.2-1.9,0.3-2.8,0.3
	C581.9,243.2,576.5,243.1,571.1,243.1z"/>
<path class="st0" d="M445.5,215.8c5.5,16.1,11.1,32.1,16.7,48.3c-11.6,0-23,0-34.5,0c5.8-16.2,11.5-32.3,17.2-48.4
	C445.1,215.8,445.3,215.8,445.5,215.8z"/>
<path class="st0" d="M844.3,194.9c-0.1,5.9-4.2,9.9-10.2,9.8c-5.1-0.1-9.1-4.5-9.1-10c0-5.8,4.2-9.9,10-9.8
	C840.4,185.1,844.4,189.3,844.3,194.9z M840.4,201.2c-0.9-1.4-1.7-2.7-2.6-3.9c-0.8-1.1-1.2-1.7,0.5-2.4c1.7-0.7,1.9-2.3,1.6-3.9
	c-0.2-1.6-1.3-2.6-2.8-2.8c-1.9-0.2-3.8-0.1-5.7-0.2c-0.7,0-1,0.4-1,1.1c0,3.8,0,7.7,0,11.5c0,0.6,0.3,0.8,0.9,0.8
	c0.6,0,0.8-0.3,0.8-0.9c0-1-0.1-2.1,0-3.1c0.1-0.6-0.6-1.6,0.6-1.8c0.9-0.1,2-0.5,2.7,0.8c0.7,1.3,1.7,2.5,2.4,3.8
	C838.4,201.4,839.2,201.6,840.4,201.2z"/>
<path class="st1" d="M840.4,201.2c-1.3,0.4-2,0.2-2.6-0.9c-0.7-1.3-1.7-2.5-2.4-3.8c-0.7-1.3-1.8-0.9-2.7-0.8
	c-1.1,0.1-0.5,1.2-0.6,1.8c-0.1,1,0,2.1,0,3.1c0,0.6-0.2,0.9-0.8,0.9c-0.6,0-0.9-0.2-0.9-0.8c0-3.8,0-7.7,0-11.5
	c0-0.7,0.2-1.1,1-1.1c1.9,0,3.8,0,5.7,0.2c1.6,0.2,2.6,1.2,2.8,2.8c0.2,1.6,0,3.2-1.6,3.9c-1.7,0.7-1.3,1.3-0.5,2.4
	C838.7,198.5,839.5,199.8,840.4,201.2z M834.9,189.4c-1.6-0.3-3.1-0.3-2.8,2.4c0.2,1.6,0.2,2.6,2.3,2.4c3.1-0.2,4.2-0.7,4.1-2.7
	C838.4,189.3,836.7,189.3,834.9,189.4z"/>
<path class="st0" d="M834.9,189.4c1.9-0.2,3.5-0.2,3.6,2.2c0.1,1.9-1,2.5-4.1,2.7c-2.1,0.1-2.1-0.8-2.3-2.4
	C831.8,189.1,833.2,189.2,834.9,189.4z"/>
</svg>
