<?xml version="1.0" encoding="utf-8"?>
<!-- Generator: Adobe Illustrator 22.0.0, SVG Export Plug-In . SVG Version: 6.00 Build 0)  -->
<svg version="1.1" baseProfile="basic" id="Livello_1"
	 xmlns="http://www.w3.org/2000/svg" xmlns:xlink="http://www.w3.org/1999/xlink" x="0px" y="0px" viewBox="0 0 313.5 421.5"
	 xml:space="preserve">
<style type="text/css">
	.st0{fill:none;stroke:#F3352F;stroke-width:3;stroke-linecap:round;stroke-miterlimit:10;stroke-dasharray:0,9;}
	.st1{fill:#00295A;}
	.st2{fill:#FFFFFF;}
</style>
<path class="st0" d="M121.5,60.9c63-14.8,126,24.3,140.7,87.3S238,274.1,175,288.9c-63,14.8-126-24.3-140.7-87.3
	C19.5,138.7,58.5,75.6,121.5,60.9z"/>
<path class="st1" d="M153.8,264.7c36.7,1.1,65.5,31.9,64.4,68.6s-31.9,65.5-68.6,64.4c-36.7-1.1-65.5-31.9-64.4-68.6
	C86.4,292.4,117.1,263.5,153.8,264.7z"/>
<path class="st1" d="M158.4,254.3L158.4,254.3c-0.1,0-0.3,0-0.4,0c-3.2-0.3-4.6-0.7-4.5-3.1c0.1-2.3,0-5.1,0.6-7.2
	c0.5-2,0.7-6.4,0.5-7c-0.1-0.3-0.3-1.9-0.6-3.7c-0.2-1.9-0.5-4.1-0.7-4.7c-0.3-1.1,0.9-6.1,1.6-6.8c0.1-0.2,0.4-0.4,0.6-0.6
	c0.6-0.5,1.4-1.2,1-2c-0.4-1-1.2-5.2-0.3-9c0.9-3.7,1.8-10.3,1.6-11.3c-0.1-0.4,0-0.8,0.1-1.4c0.1-0.8,0.3-1.6-0.2-2.4
	c-0.8-1.2-0.7-2.7-0.7-3.8l0-0.3c0-0.5-0.1-2.1-0.2-3.6c-0.2-1.6-0.3-3.3-0.3-3.9c0-0.3,0-1.3,0.1-2.6c0.2-3.2,0.3-8.6,0.4-11.9
	c0-1.2,0-3.1,0-5.2c0-4.8,0-11.9-0.2-13.1c-0.3,0.6-0.8,2.4-1.2,4.2c-0.5,1.9-1,3.9-1.5,5.2c-0.4,1-0.8,1.9-1.3,2.9
	c-0.8,1.6-1.4,3.1-1.4,4.3c-0.1,3.7-0.3,6-0.9,6.9c-0.7,1.1-1.4,2.3-1.2,4c0.2,1.6-0.1,2.7-0.6,2.9c-0.3,0.2-0.7,0.6-0.9,0.7
	c0.3,0.2,1,1.3,1,2.9c0,1.7,0.7,8.7,1.7,12.4c1,3.7,3.3,17,2.8,20.2c-0.4,3.2-1.4,9.2-1.6,9.8c-0.1,0.2,0,0.3,0,0.6
	c0.1,0.3,0.2,0.8,0.2,1.9c0,0.4,0.1,0.7,0,1c0,1.4,0.1,2.1,0.2,2.6c0.1,0.3,0.2,0.7,0.3,1.3c0.2,1,0.5,2.5,0.8,3.4
	c0.4,1.4,0.9,5.3-0.4,6.1c-0.6,0.4-3,1.4-6.1,1.3c-0.2,0-0.4,0-0.5-0.1c-0.3,0-0.6-0.1-0.8-0.1c-0.5-0.1-1-0.1-1.5-0.1
	c-1.3,0-2.5,0.2-5.3,1.2c-2.3,1-6.7,2.4-10.1,2.4c-1.3,0-2.4-0.4-3.2-0.9c-2.7-1.9-3.5-4.4-2.6-5.7c0.7-1.2,3-2,4.7-2.4
	c1.5-0.3,3.8-0.9,5.8-2.6c1.7-1.3,3.4-3.2,3.8-3.7c-0.1-0.1-0.3-0.2-0.3-0.5c-0.1-0.3,0.1-0.6,0.3-1c0.2-0.3,0.5-0.5,0.8-0.8
	c0.3-0.3,0.8-0.6,0.7-0.9c0-0.2-0.2-0.3-0.4-0.5c-1.3-0.9-2.5-5.5-2.1-7.7c0.1-0.8,0.3-1.7,0.6-2.8c0.4-2.2,0.9-4.6,0.9-5.3
	c0-0.4-0.6-3.9-1.2-7.5c-1-5.6-2.1-12-2-12.8c0.2-1.2,0.1-2-0.3-2.3c-0.5-0.4-0.8-3.9-0.6-4.6c0.3-0.6,0.2-1.4-0.3-2.7
	c-0.1-0.3-0.2-0.5-0.3-0.8c-0.5-1.1-1.1-2.5-0.8-4.6c0.1-1.2,0.5-3.6,0.9-6.2c0.4-3.4,1-7.2,1.3-8.6c0.2-1,0.5-2.9,0.8-5.1
	c0.4-3.4,1-7.3,1.3-8.8c0.5-2.3,1.2-8.1,1.2-8.7c-0.3-0.3-1.5-2.2-1.5-2.8c0.1-0.8,0.5-2,0.9-3.3c0.4-1.3,0.8-3.1,1.4-5
	c0.9-3.7,1.7-7.7,2.1-10c0.6-3.8,2.3-10.3,2.6-11.2c-0.8-0.1-5.5-1.1-7.3-1.6c-1.9-0.6-2.4-1.6-2.8-3.7c-0.1-0.9-0.2-1.7-0.3-2.4
	c0-1-0.1-1.9-0.5-2.4c-0.5-0.9,0.4-3.1,1.1-3.8c0.1-0.2,0.4-0.4,0.6-0.5c0.5-0.4,0.9-0.9,1.4-2.4c0.7-2.1,2.6-6.5,3-7
	c0.2-0.3,0.8-1,0.7-1.5c-0.1-0.3,0.1-0.8,0.6-1.6c0.4-0.6,0.7-1.3,0.7-1.7c0-0.4,0.1-0.8,0.4-1.1c0.2-0.5,0.4-0.9,0.4-1.5
	c0.1-0.6,0.4-1.6,0.9-2.7c0.4-0.9,0.8-1.8,0.8-2.2c-0.1-0.9,0.3-2.3,1-3.7c0.6-1.3,1.9-1.4,2.3-1.3c1-1,4.8-2.9,6.9-3.8
	c1.5-0.7,2.7-1.1,3.2-1.4c-0.1-2.6,0-3,0.1-3c0.1-0.3,1.3-1.4,2.1-2.1l0-0.1c0-0.1-0.1-0.3,0-0.5c-0.1-0.7-0.1-2-1.1-2.7
	c-1.2-0.9-2.1-3.1-2.5-6.1s-0.8-5.1-0.8-5.1c0-0.1-0.3-4.8-0.9-7c-0.7-2.4,0-4.6,0.3-5.5c0.3-0.9,1.1-1.5,1.4-1.7
	c-0.2-0.4-0.6-1.8,0-3.2c0.4-0.9,1.4-1.7,2.7-2.1c1.2-0.4,2.7-0.5,4.5-0.4c2.1,0,4.2,0.4,5.8,0.7c1.1,0.2,1.8,0.3,2.3,0.3l0.1,0
	c2,0.1,5.3,2.3,6,5.6c0.7,3.3,0.8,4.3,0.7,6.3c-0.1,1.3-0.5,2.9-0.9,4.5c-0.2,0.9-0.4,1.7-0.6,2.6c-0.4,1.5-0.8,2.2-1.2,2.9
	c-0.2,0.4-0.4,0.7-0.6,1.3c-0.1,0.2-0.2,0.6-0.2,0.8c-0.4,1-0.7,1.8-0.6,2.8c0,0.9,0,1.8,0,2.3l0.1,0l0.1,0l0,0.2l0,0
	c0,0.1,0.2,0.5,0.4,0.7c0.3,0.5,0.6,1,0.6,1.3c0,0.2,0,0.4,0.1,0.7c0.2,0.1,0.8,0.2,1.2,0.8c0.6,0.8,2.6,3.2,2.9,3.5
	c0.3,0,1.9,0.3,6.2,1.6l0.3,0.1c2.7,0.8,7.1,2.1,7.2,5.5c0,0.4,0.1,0.7,0.1,1.1c0.2,2.1,0.4,4.2-0.8,6.2c-1.3,2.3-2.4,5.2-3,8
	c-0.6,2.6-1.2,5-2.2,6.2c-1,1.2-1.1,1.9-1.2,3.4c0,0.9-0.4,1.6-0.9,2.4c-0.3,0.5-0.6,1-0.8,1.6c-0.3,0.8-0.7,2.1-1.1,3.3
	c-0.4,1.3-0.6,2.1-0.8,2.3c-0.1,0.3,0.2,4.7,0.7,6.7c0.2,1,1.3,9,2.3,17.3c2,16,1.7,16,1.6,16.2c-0.1,0-0.3,0.2-0.5,0.3
	c-1.2,0.8-4.2,2.7-5.6,3.2c-1.3,0.4-2.1,0.7-2.3,0.7c-0.1,0.8-0.8,6.9-1.4,8.5c-0.7,1.7-1.3,3.3-1.3,5.7c-0.1,2-0.6,3.6-1.4,5.1
	c-0.5,0.9-0.3,5.5-0.1,8c0.1,1.9,0.2,3-0.2,4.4c-0.2,0.6-0.3,0.8-0.5,1.1c-0.2,0.5-0.3,0.7-0.4,1.5c0,0.6-0.1,1.2-0.2,1.7
	s-0.2,1.1-0.1,1.4c0.1,0.3,0.1,0.5,0.1,0.8c0,0.3,0,0.7,0.1,1.1c0.1,0.5,0.1,0.8,0.1,1.1c0,0.3-0.1,0.8,0,1.3
	c0.3,1.2,0.5,3.3,0.4,4.6c0,0.4-0.1,1.5-0.1,2.8c0,2.6-0.1,6.2-0.3,8.3c-0.2,1.1-0.3,2.7-0.4,4.3c-0.3,3.5-0.7,7.5-1.2,9.8
	c-0.2,1.2-0.5,2.5-0.8,4c-0.6,3-1.3,6.3-1.5,7.7c-0.1,0.6-0.1,1.3-0.1,1.9c0,1.6,0,3-0.9,4.2c-0.4,0.7-0.8,1.1-1.1,1.5
	c-0.4,0.6-0.6,0.9-0.6,1.3c0,0.3,0.2,1.2,0.4,2.4c0.3,1.6,0.7,3.6,0.7,4.7c0,0.2,0,0.4,0,0.6c0.1,1.7,0.2,4.1-1.1,5.4
	C164.1,252.9,161.9,254.4,158.4,254.3"/>
<g>
	<path class="st2" d="M127.2,314.3c0,0,1.5,2.5,4.8,2.7c3,0.1,5.3-2,5.5-4.8c0.1-2.9-2.2-5-5.3-5.1c-2.4-0.1-4.1,1.1-4.1,1.1l-1-0.5
		l1.2-8.4c0.2-1.3,0.6-1.8,1.9-1.8l6.9,0.2c1.2,0,1.8,0.6,1.7,1.9l-0.1,2.1l-2-0.1l0.1-1.5c0-0.4-0.3-0.7-0.7-0.7l-5.3-0.2
		c-0.4,0-0.6,0.1-0.7,0.7l-0.7,4.8c-0.1,0.8-0.2,1.2-0.2,1.2l0.1,0c0,0,1.4-0.7,3.2-0.7c4.2,0.1,7.3,3.3,7.1,7.2
		c-0.2,3.7-3.3,6.7-7.7,6.6c-4.1-0.2-6.1-3.2-6.1-3.2L127.2,314.3z"/>
	<path class="st2" d="M143.1,308.4c0.2-6,2.2-10.8,7.7-10.6c5.5,0.3,7.1,5.1,6.8,11.1c-0.2,6.1-2.2,10.9-7.7,10.6
		C144.5,319.4,142.8,314.5,143.1,308.4z M155.5,308.9c0.2-5-0.8-9-4.8-9.1c-4-0.2-5.3,3.7-5.4,8.8s0.8,9.1,4.8,9.1
		C154,317.9,155.3,313.9,155.5,308.9z"/>
	<path class="st2" d="M161.5,302.4c0.1-2.3,2-4.1,4.4-4c2.4,0.1,4.2,2,4.1,4.3c-0.1,2.3-2,4.1-4.4,4
		C163.2,306.7,161.4,304.7,161.5,302.4z M177.9,299.2l2.2,0.1l-16.9,20.5l-2.2-0.1L177.9,299.2z M168.2,302.6c0.1-1.4-1-2.5-2.4-2.6
		s-2.4,1.1-2.5,2.4s1,2.5,2.3,2.5C167,305,168.1,304.1,168.2,302.6z M175.5,312.2c2.4,0.1,4.2,2,4.1,4.4c-0.1,2.3-2,4.1-4.4,4
		s-4.2-2-4.1-4.3C171.1,313.9,173.1,312.1,175.5,312.2z M175.2,318.9c1.4,0.1,2.5-1,2.5-2.3c0.1-1.4-1-2.5-2.4-2.6s-2.4,1.1-2.5,2.4
		C172.8,317.6,173.8,318.8,175.2,318.9z"/>
	<path class="st2" d="M104,329.6c0-0.3-0.1-0.5-0.4-0.4l-0.8,0l0-1.2l1.5,0.1c0.8,0,1.2,0.4,1.1,1.3l-0.3,7.8
		c-0.1,2.3,1.3,3.8,3.6,3.9s3.8-1.3,3.9-3.6l0.3-7.8c0-0.8,0.4-1.2,1.3-1.1l1.5,0.1l0,1.2l-0.8,0c-0.3,0-0.5,0.1-0.4,0.4l-0.3,7.5
		c-0.1,3-2.3,4.8-5.3,4.7c-3-0.1-5-2.2-4.9-5.1L104,329.6z"/>
	<path class="st2" d="M122,332.3c2.9,0.1,5.1,2.4,5,5.3c-0.1,3-2.5,5.1-5.4,5.1c-2.9-0.1-5.1-2.4-5-5.4
		C116.7,334.3,119.2,332.2,122,332.3z M121.7,341.4c2.1,0.1,3.9-1.5,4-3.9c0.1-2.3-1.5-4-3.7-4.1c-2.1-0.1-4,1.5-4,3.7
		C118,339.5,119.6,341.3,121.7,341.4z"/>
	<path class="st2" d="M129.7,334.4c0-0.3-0.1-0.5-0.4-0.4l-0.8,0l0-1.1l1.4,0.1c0.8,0,1.2,0.4,1.2,1.2l0,0.4c0,0.4,0,0.7,0,0.7l0,0
		c0.5-1.4,2.1-2.4,3.6-2.4c1.9,0.1,2.7,0.9,3,2.6l0,0c0.6-1.3,2-2.4,3.8-2.3c2.4,0.1,3.2,1.5,3.1,4l-0.1,4.7c0,0.3,0.1,0.5,0.4,0.4
		l0.8,0l0,1.1l-1.4-0.1c-0.8,0-1.2-0.4-1.1-1.3l0.2-4.8c0-1.6-0.2-2.9-2-3c-1.5-0.1-2.8,1.3-3.2,2.7c-0.1,0.4-0.2,0.9-0.3,1.4
		l-0.1,4.7l-1.4-0.1l0.3-5.9c0.1-1.5-0.1-3-1.9-3c-1.6,0-2.9,1.3-3.4,2.7c-0.1,0.4-0.2,0.9-0.2,1.3l-0.1,4.7l-1.4-0.1L129.7,334.4z"
		/>
	<path class="st2" d="M148.1,335.1c0-0.3-0.1-0.5-0.4-0.4l-0.8,0l0-1.1l1.4,0.1c0.8,0,1.2,0.4,1.1,1.3l-0.3,7.1
		c0,0.3,0.1,0.5,0.4,0.4l0.8,0l0,1.1l-1.4-0.1c-0.8,0-1.2-0.4-1.1-1.3L148.1,335.1z M148.2,329.6l1.2,0l0,1.6l-1.2,0L148.2,329.6z"
		/>
	<path class="st2" d="M152.8,335.3c0-0.3-0.1-0.5-0.4-0.4l-0.8,0l0-1.1l1.4,0.1c0.8,0,1.2,0.4,1.2,1.2l0,0.4c0,0.4,0,0.7,0,0.7l0,0
		c0.4-0.9,1.7-2.4,4-2.4c2.5,0.1,3.2,1.5,3.2,4l-0.1,4.7c0,0.3,0.1,0.5,0.4,0.4l0.8,0l0,1.1l-1.4-0.1c-0.8,0-1.2-0.4-1.1-1.3
		l0.2-4.8c0-1.6-0.2-2.9-2-3c-1.6,0-3.1,1-3.7,2.6c-0.1,0.4-0.2,0.9-0.2,1.3l-0.2,4.8l-1.4-0.1L152.8,335.3z"/>
	<path class="st2" d="M164.9,335.7c0-0.3-0.1-0.5-0.4-0.4l-0.8,0l0-1.1l1.4,0.1c0.8,0,1.2,0.4,1.1,1.3l-0.3,7.1
		c0,0.3,0.1,0.5,0.4,0.4l0.8,0l0,1.1l-1.4-0.1c-0.8,0-1.2-0.4-1.1-1.3L164.9,335.7z M165.1,330.2l1.2,0l0,1.6l-1.2,0L165.1,330.2z"
		/>
	<path class="st2" d="M175.2,335.7l-1.2,0l0-1.1l1.3,0l0.1-2.7l1.3,0l-0.1,2.7l2.5,0.1l0,1.1l-2.5-0.1l-0.2,5
		c-0.1,2.3,1.3,2.7,2.1,2.7c0.3,0,0.4,0,0.4,0l0,1.2c0,0-0.2,0-0.6,0c-1.1,0-3.4-0.5-3.2-3.8L175.2,335.7z"/>
	<path class="st2" d="M181.6,336.3c0-0.3-0.1-0.5-0.4-0.4l-0.8,0l0-1.1l1.4,0.1c0.8,0,1.2,0.3,1.2,1.2l-0.1,0.6c0,0.4,0,0.7,0,0.7
		l0,0c0.5-1.4,1.7-2.5,3.2-2.5c0.3,0,0.5,0.1,0.5,0.1l0,1.3c0,0-0.2-0.1-0.5-0.1c-1.4-0.1-2.4,1-2.9,2.4c-0.3,0.7-0.3,1.3-0.4,1.9
		l-0.2,4.1l-1.4-0.1L181.6,336.3z"/>
	<path class="st2" d="M193.1,339l0.5,0l0-0.1c0-2.1-0.7-2.8-2.4-2.9c-0.5,0-1.9,0-2,0.8l-0.1,0.6l-1.2,0l0-0.9
		c0.1-1.4,2.4-1.6,3.2-1.6c3.1,0.1,3.8,1.8,3.7,4l-0.2,4.8c0,0.3,0.1,0.5,0.4,0.4l0.8,0l0,1.1l-1.4-0.1c-0.8,0-1.1-0.5-1.1-1.2
		c0-0.4,0-0.7,0-0.7l0,0c0,0-0.9,2-3.3,2c-1.6,0-3.3-1.1-3.3-3C187,338.9,191.4,339,193.1,339z M190.4,344.1
		c1.9,0.1,3.1-1.8,3.2-3.5l0-0.4l-0.5-0.1c-1.6,0-4.7-0.1-4.8,2C188.2,343.1,189,344,190.4,344.1z"/>
	<path class="st2" d="M109,355.2c0-0.3-0.1-0.5-0.4-0.4l-0.8,0l0-1.1l1.4,0.1c0.8,0,1.2,0.4,1.1,1.3l-0.3,7.1c0,0.3,0.1,0.5,0.4,0.4
		l0.8,0l0,1.1l-1.4-0.1c-0.8,0-1.2-0.4-1.1-1.3L109,355.2z M109.2,349.6l1.2,0l0,1.6l-1.2,0L109.2,349.6z"/>
	<path class="st2" d="M122.8,353.8c2.4,0.1,3.1,1.9,3.1,1.9l0,0c0,0,0-0.3,0-0.7l0.1-3.2c0-0.3-0.1-0.5-0.4-0.4l-0.8,0l0-1.1
		l1.4,0.1c0.8,0,1.2,0.4,1.1,1.3l-0.4,11c0,0.3,0.1,0.5,0.4,0.4l0.8,0l0,1.1l-1.4-0.1c-0.8,0-1.1-0.5-1.1-1.2c0-0.4,0.1-0.6,0.1-0.6
		l0,0c0,0-0.9,2-3.5,1.8c-2.7-0.1-4.2-2.3-4.1-5.3C118.3,355.7,120.2,353.7,122.8,353.8z M125.9,359.2c0.1-2-0.8-4-3-4.1
		c-1.8-0.1-3.3,1.4-3.3,3.9c-0.1,2.4,1.2,4,3,4.1C124.1,363.1,125.7,362,125.9,359.2z"/>
	<path class="st2" d="M130.8,356c0-0.3-0.1-0.5-0.4-0.4l-0.8,0l0-1.1l1.4,0.1c0.8,0,1.2,0.4,1.1,1.3l-0.3,7.1c0,0.3,0.1,0.5,0.4,0.4
		l0.8,0l0,1.1l-1.4-0.1c-0.8,0-1.2-0.4-1.1-1.3L130.8,356z M130.9,350.5l1.2,0l0,1.6l-1.2,0L130.9,350.5z"/>
	<path class="st2" d="M135.6,356.2c0-0.3-0.1-0.5-0.4-0.4l-0.8,0l0-1.1l1.4,0.1c0.8,0,1.2,0.3,1.2,1.2l-0.1,0.6c0,0.4,0,0.7,0,0.7
		l0,0c0.5-1.4,1.7-2.5,3.2-2.5c0.3,0,0.5,0.1,0.5,0.1l0,1.3c0,0-0.2-0.1-0.5-0.1c-1.4-0.1-2.4,1-2.9,2.4c-0.3,0.7-0.3,1.3-0.4,1.9
		l-0.2,4.1l-1.4-0.1L135.6,356.2z"/>
	<path class="st2" d="M142.8,356.4c0-0.3-0.1-0.5-0.4-0.4l-0.8,0l0-1.1l1.4,0.1c0.8,0,1.2,0.4,1.1,1.3l-0.3,7.1
		c0,0.3,0.1,0.5,0.4,0.4l0.8,0l0,1.1l-1.4-0.1c-0.8,0-1.2-0.4-1.1-1.3L142.8,356.4z M142.9,350.9l1.2,0l0,1.6l-1.2,0L142.9,350.9z"
		/>
	<path class="st2" d="M151.1,354.9c2.7,0.1,3.2,1.8,3.2,1.8l0,0c0,0,0-0.2,0-0.4c0-0.7,0.4-1.1,1.2-1l1.4,0.1l0,1.1l-0.8,0
		c-0.3,0-0.5,0.1-0.4,0.4l-0.3,8.1c-0.1,3.1-2.5,4.3-4.9,4.1c-1.1,0-2.3-0.4-3.2-0.9l0.6-1.1c0,0,1.2,0.7,2.7,0.8
		c2,0.1,3.5-0.8,3.6-3l0-0.8c0-0.4,0-0.7,0-0.7l0,0c-0.7,1.1-1.7,1.6-3.1,1.6c-2.7-0.1-4.3-2.3-4.2-5.2
		C146.7,356.8,148.5,354.8,151.1,354.9z M154.1,360c0.1-2.9-1.2-3.8-3-3.9c-2-0.1-3.1,1.2-3.2,3.6c-0.1,2.4,1.1,3.9,3.1,4
		C152.7,363.9,154.1,362.9,154.1,360z"/>
	<path class="st2" d="M163,355.4c2.7,0.1,4,2.2,4,4.7c-0.1,0.2-0.1,0.6-0.1,0.6l-7.6-0.3c0,2.5,1.7,4,3.6,4.1c1.8,0.1,3-1.1,3-1.1
		l0.6,1c0,0-1.5,1.4-3.7,1.3c-2.9-0.1-5.1-2.3-4.9-5.3C158.1,357.2,160.3,355.3,163,355.4z M165.6,359.7c0-2.1-1.2-3.1-2.7-3.2
		c-1.6,0-3.1,0.9-3.5,2.9L165.6,359.7z"/>
	<path class="st2" d="M169.7,357.5c0-0.3-0.1-0.5-0.4-0.4l-0.8,0l0-1.1l1.4,0.1c0.8,0,1.2,0.4,1.2,1.2l0,0.4c0,0.4,0,0.7,0,0.7l0,0
		c0.4-0.9,1.7-2.4,4-2.4c2.5,0.1,3.2,1.5,3.2,4l-0.1,4.7c0,0.3,0.1,0.5,0.4,0.4l0.8,0l0,1.1l-1.4-0.1c-0.8,0-1.2-0.4-1.1-1.3
		l0.2-4.8c0-1.6-0.2-2.9-2-3c-1.6,0-3.1,1-3.7,2.6c-0.1,0.4-0.2,0.9-0.2,1.3l-0.2,4.8l-1.4-0.1L169.7,357.5z"/>
	<path class="st2" d="M181.8,357.5l-1.2,0l0-1.1l1.3,0l0.1-2.7l1.3,0l-0.1,2.7l2.5,0.1l0,1.1l-2.5-0.1l-0.2,5
		c-0.1,2.3,1.3,2.7,2.1,2.7c0.3,0,0.4,0,0.4,0l0,1.2c0,0-0.2,0-0.6,0c-1.1,0-3.4-0.5-3.2-3.8L181.8,357.5z"/>
	<path class="st2" d="M188.3,358.2c0-0.3-0.1-0.5-0.4-0.4l-0.8,0l0-1.1l1.4,0.1c0.8,0,1.2,0.4,1.1,1.3l-0.3,7.1
		c0,0.3,0.1,0.5,0.4,0.4l0.8,0l0,1.1l-1.4-0.1c-0.8,0-1.2-0.4-1.1-1.3L188.3,358.2z M188.4,352.7l1.2,0l0,1.6l-1.2,0L188.4,352.7z"
		/>
</g>
</svg>
