<?xml version="1.0" encoding="utf-8"?>
<!-- Generator: Adobe Illustrator 23.0.1, SVG Export Plug-In . SVG Version: 6.00 Build 0)  -->
<svg version="1.1" id="Livello_1" xmlns="http://www.w3.org/2000/svg" xmlns:xlink="http://www.w3.org/1999/xlink" x="0px" y="0px"
	 viewBox="0 0 313.5 421.5" style="enable-background:new 0 0 313.5 421.5;" xml:space="preserve">
<style type="text/css">
	.st0{fill:none;stroke:#F3352F;stroke-width:3;stroke-linecap:round;stroke-miterlimit:10;stroke-dasharray:0,9;}
	.st1{fill-rule:evenodd;clip-rule:evenodd;fill:#00295A;}
	.st2{fill:#00295A;}
	.st3{fill:#FFFFFF;}
</style>
<path class="st0" d="M169.8,33.8c64.7,0,117.1,52.4,117.1,117.1S234.5,268,169.8,268S52.7,215.7,52.7,151S105.1,33.8,169.8,33.8z"/>
<path class="st1" d="M187,262.6c35.5,9.5,56.5,46,47,81.5s-46,56.5-81.5,47s-56.5-46-47-81.5C115,274.2,151.5,253.1,187,262.6z"/>
<path class="st2" d="M183.1,249.3L183.1,249.3c-0.1,0-0.3,0-0.4,0c-3.3,0.1-4.6-0.2-4.8-2.7c-0.2-2.3-0.5-5.1-0.2-7.2
	c0.3-2,0.1-6.5-0.2-7c-0.1-0.3-0.5-1.8-0.9-3.6c-0.4-1.9-1-4-1.2-4.6c-0.4-1,0.3-6.1,0.9-7c0.1-0.3,0.4-0.4,0.5-0.7
	c0.5-0.6,1.2-1.4,0.8-2.1c-0.5-1-1.7-5-1.2-8.9c0.5-3.8,0.7-10.4,0.4-11.4c-0.1-0.4-0.1-0.8,0-1.4c0.1-0.8,0.2-1.6-0.4-2.4
	c-0.9-1.2-1-2.6-1.1-3.8v-0.3c-0.1-0.5-0.3-2.1-0.6-3.6c-0.3-1.6-0.6-3.3-0.7-3.9c0-0.3-0.1-1.3-0.2-2.6c-0.2-3.2-0.5-8.6-0.8-11.9
	c-0.1-1.2-0.3-3.1-0.5-5.2c-0.5-4.8-1.2-11.8-1.5-13c-0.2,0.6-0.5,2.5-0.7,4.3c-0.3,1.9-0.6,4-0.9,5.3c-0.3,1-0.6,2-1,3
	c-0.6,1.7-1.1,3.2-1,4.5c0.3,3.7,0.3,6-0.2,7c-0.6,1.1-1.2,2.4-0.8,4.1c0.3,1.6,0.2,2.7-0.2,2.9c-0.3,0.2-0.6,0.6-0.8,0.8
	c0.3,0.2,1.2,1.2,1.3,2.7c0.2,1.7,1.6,8.6,3,12.2c1.3,3.6,5,16.6,4.9,19.8s-0.5,9.3-0.6,9.9c0,0.2,0,0.3,0.1,0.6s0.3,0.8,0.4,1.9
	c0,0.4,0.1,0.7,0.1,1c0.2,1.4,0.3,2.1,0.5,2.6c0.1,0.3,0.2,0.7,0.4,1.2c0.3,0.9,0.7,2.4,1.1,3.3c0.6,1.4,1.5,5.2,0.2,6.1
	c-0.6,0.4-2.8,1.7-5.9,1.9c-0.2,0.1-0.4,0-0.5,0c-0.3,0-0.6,0-0.9,0c-0.5,0-1,0-1.5,0.1c-1.3,0.1-2.5,0.4-5.1,1.8
	c-2.2,1.2-6.4,3.1-9.8,3.4c-1.3,0.1-2.5-0.1-3.3-0.6c-2.9-1.6-3.9-4-3.1-5.4c0.6-1.3,2.8-2.3,4.4-2.9c1.4-0.5,3.7-1.3,5.5-3.2
	c1.6-1.5,3-3.5,3.4-4c-0.1-0.1-0.3-0.2-0.4-0.5c-0.1-0.3,0-0.6,0.2-1c0.2-0.3,0.4-0.6,0.7-0.9c0.3-0.3,0.7-0.7,0.6-1
	c-0.1-0.2-0.2-0.3-0.5-0.5c-1.4-0.8-3.1-5.2-2.9-7.5c0.1-0.8,0.1-1.7,0.3-2.8c0.2-2.2,0.4-4.7,0.3-5.4c0-0.4-1-3.8-2-7.3
	c-1.6-5.5-3.3-11.8-3.3-12.5c0.1-1.2-0.1-2-0.6-2.2c-0.5-0.3-1.2-3.8-1-4.5c0.2-0.6,0-1.4-0.6-2.6c-0.1-0.3-0.3-0.4-0.4-0.7
	c-0.6-1.1-1.4-2.4-1.3-4.5c0-1.2,0.1-3.6,0.3-6.2c0.1-3.4,0.2-7.3,0.4-8.7c0.1-1,0.2-2.9,0.2-5.2c0.1-3.4,0.2-7.4,0.4-8.9
	c0.3-2.3,0.3-8.2,0.3-8.8c-0.3-0.3-1.8-2-1.8-2.7c0-0.9,0.3-2,0.5-3.4s0.5-3.1,0.9-5.2c0.5-3.8,0.9-7.8,1-10.2
	c0.2-3.9,1.2-10.5,1.4-11.4c-0.9,0-5.6-0.5-7.4-0.8c-1.9-0.4-2.6-1.3-3.2-3.3c-0.2-0.9-0.4-1.7-0.5-2.4c-0.1-1-0.3-1.9-0.7-2.3
	c-0.6-0.8,0.1-3.1,0.6-3.9c0.1-0.3,0.4-0.4,0.5-0.6c0.5-0.5,0.8-1,1.1-2.5c0.5-2.2,1.9-6.7,2.3-7.2c0.2-0.3,0.7-1.1,0.5-1.6
	c-0.1-0.3,0.1-0.8,0.4-1.6c0.3-0.6,0.6-1.4,0.5-1.8c0-0.4,0.1-0.8,0.2-1.1c0.2-0.5,0.3-1,0.2-1.6c0-0.6,0.3-1.7,0.6-2.8
	c0.3-1,0.6-1.9,0.6-2.3c-0.2-0.9,0-2.3,0.6-3.8c0.5-1.3,1.8-1.6,2.1-1.6c0.9-1.1,4.5-3.3,6.5-4.5c1.4-0.8,2.6-1.4,3-1.7
	c-0.4-2.6-0.3-3-0.2-3c0.1-0.3,1.2-1.6,1.8-2.3v-0.1c0-0.1-0.1-0.3-0.1-0.5c-0.1-0.7-0.3-2-1.3-2.6c-1.3-0.8-2.4-2.9-3.1-5.8
	c-0.7-2.9-1.3-4.9-1.3-4.9c0-0.1-0.8-4.7-1.6-6.8c-0.9-2.3-0.4-4.6-0.2-5.5s0.9-1.6,1.2-1.8c-0.2-0.3-0.8-1.7-0.4-3.2
	c0.3-1,1.2-1.8,2.5-2.3c1.2-0.5,2.7-0.8,4.4-0.9c2.1-0.2,4.2-0.1,5.9,0.1c1.1,0.1,1.8,0.1,2.3,0h0.1c2-0.1,5.5,1.7,6.6,4.9
	c1,3.2,1.3,4.2,1.3,6.2c0,1.3-0.2,2.9-0.4,4.6c-0.1,0.9-0.2,1.8-0.3,2.7c-0.2,1.6-0.6,2.3-0.8,3c-0.2,0.4-0.4,0.8-0.5,1.3
	c-0.1,0.3-0.1,0.6-0.1,0.8c-0.3,1-0.5,1.9-0.3,2.8c0.1,0.9,0.2,1.8,0.2,2.2h0.1h0.1l0.1,0.2l0,0c0,0.1,0.3,0.4,0.5,0.7
	c0.4,0.5,0.7,0.9,0.7,1.2c0.1,0.2,0,0.4,0.1,0.7c0.2,0,0.8,0.1,1.3,0.7c0.7,0.7,2.9,2.9,3.2,3.2c0.3,0,1.9,0.1,6.4,1l0.3,0.1
	c2.7,0.5,7.3,1.4,7.8,4.7c0,0.4,0.1,0.7,0.2,1.1c0.4,2.1,0.8,4.2-0.1,6.3c-1.1,2.4-1.8,5.4-2.1,8.2c-0.3,2.7-0.7,5.1-1.5,6.3
	c-0.8,1.2-0.9,2-0.8,3.5c0.1,0.9-0.3,1.7-0.6,2.4c-0.2,0.5-0.5,1-0.6,1.7c-0.2,0.8-0.5,2.2-0.7,3.4c-0.3,1.4-0.4,2.2-0.5,2.4
	c-0.1,0.3,0.7,4.6,1.3,6.6c0.3,0.9,2.2,8.9,4.1,17c3.6,15.7,3.4,15.8,3.3,15.9c-0.1,0-0.3,0.2-0.5,0.4c-1.2,0.9-3.9,3.1-5.3,3.7
	c-1.3,0.6-2,0.9-2.2,1c0,0.9,0,6.9-0.5,8.6c-0.5,1.8-0.9,3.4-0.8,5.8c0.1,2-0.2,3.7-0.8,5.3c-0.4,1,0.3,5.5,0.8,8
	c0.3,1.9,0.5,3,0.2,4.4c-0.1,0.6-0.2,0.8-0.3,1.2c-0.2,0.5-0.3,0.7-0.2,1.6c0.1,0.6,0,1.2,0,1.7s-0.1,1.1,0,1.4s0.2,0.5,0.2,0.8
	s0,0.7,0.2,1.1c0.2,0.5,0.2,0.8,0.2,1.1s-0.1,0.8,0.1,1.3c0.4,1.1,0.8,3.2,0.8,4.6c0,0.4,0.1,1.5,0.2,2.8c0.3,2.6,0.5,6.2,0.5,8.3
	c-0.1,1.1,0,2.8,0,4.3c0,3.5,0.1,7.5-0.2,9.9c-0.1,1.2-0.3,2.5-0.4,4.1c-0.3,3.1-0.7,6.4-0.7,7.9c0,0.6,0,1.3,0.1,1.9
	c0.1,1.5,0.3,3-0.4,4.3c-0.4,0.8-0.7,1.2-0.9,1.6c-0.3,0.6-0.5,0.9-0.5,1.3c0,0.3,0.3,1.2,0.6,2.3c0.4,1.5,1,3.6,1.2,4.6
	c0.1,0.2,0,0.4,0.1,0.6c0.3,1.7,0.6,4-0.5,5.5C188.7,247.4,186.6,249,183.1,249.3"/>
<g>
	<path class="st3" d="M146.8,308.5c0,0,1.6,2.5,4.9,2.5c3,0,5.2-2.1,5.3-5c0-2.9-2.4-5-5.5-4.9c-2.4,0-4,1.2-4,1.2l-1.1-0.4l0.9-8.4
		c0.2-1.3,0.5-1.8,1.9-1.9l6.9,0c1.2,0,1.8,0.5,1.7,1.8l-0.1,2.1l-2,0l0-1.5c0-0.4-0.3-0.6-0.7-0.6l-5.3,0c-0.4,0-0.6,0.2-0.6,0.7
		l-0.6,4.8c-0.1,0.8-0.2,1.2-0.2,1.2l0.1,0c0,0,1.3-0.8,3.2-0.8c4.2,0,7.4,3.1,7.4,6.9c0,3.7-3.1,6.9-7.5,6.9c-4.1,0-6.2-3-6.2-3
		L146.8,308.5z"/>
	<path class="st3" d="M162.6,302.1c0-6,1.8-10.9,7.3-10.9c5.5,0.1,7.2,4.9,7.2,10.9c0,6.1-1.8,11-7.3,10.9
		C164.3,313,162.5,308.2,162.6,302.1z M174.9,302.1c0-5-1.1-8.9-5.1-9c-4.1,0-5.2,3.9-5.1,9c0,5.1,1.1,9,5.1,9
		C173.8,311.2,175,307.2,174.9,302.1z"/>
	<path class="st3" d="M180.7,295.5c0-2.3,1.9-4.1,4.3-4.2c2.4,0,4.2,1.9,4.2,4.1c0,2.3-1.9,4.1-4.3,4.2
		C182.6,299.7,180.7,297.8,180.7,295.5z M197,291.7l2.2,0L183,312.8l-2.2,0L197,291.7z M187.4,295.4c0-1.4-1.1-2.5-2.5-2.5
		s-2.4,1.2-2.4,2.5c0,1.4,1.1,2.5,2.4,2.5C186.3,297.9,187.4,296.9,187.4,295.4z M195,304.8c2.4,0,4.2,1.9,4.3,4.2
		c0,2.3-1.9,4.1-4.3,4.2c-2.4,0-4.2-1.9-4.2-4.1C190.8,306.7,192.7,304.8,195,304.8z M195,311.5c1.4,0,2.5-1.1,2.5-2.4
		c0-1.4-1.1-2.5-2.5-2.5s-2.4,1.2-2.4,2.5C192.6,310.3,193.6,311.5,195,311.5z"/>
	<path class="st3" d="M124.3,324.6c0-0.3-0.1-0.5-0.4-0.4l-0.8,0l0-1.2l1.5,0c0.8,0,1.2,0.4,1.2,1.2l-0.1,7.8c0,2.3,1.4,3.8,3.7,3.8
		c2.3,0,3.8-1.4,3.8-3.7l0.1-7.8c0-0.8,0.4-1.2,1.2-1.2l1.5,0l0,1.2l-0.8,0c-0.3,0-0.5,0.1-0.4,0.4l0,7.5c0,3-2.1,4.9-5.1,4.9
		c-3,0-5.1-2-5.1-4.9L124.3,324.6z"/>
	<path class="st3" d="M142.3,326.7c2.9,0,5.2,2.2,5.2,5.1c0,3-2.3,5.2-5.2,5.2c-2.9,0-5.2-2.2-5.1-5.2
		C137.1,328.9,139.5,326.7,142.3,326.7z M142.3,335.8c2.1,0.1,3.8-1.7,3.9-4.1c0-2.3-1.7-3.9-3.9-3.9c-2.1-0.1-3.9,1.7-3.8,3.8
		C138.5,334.1,140.2,335.8,142.3,335.8z"/>
	<path class="st3" d="M150.1,328.6c0-0.3-0.1-0.5-0.4-0.4l-0.8,0l0-1.1l1.4,0c0.8,0,1.2,0.4,1.2,1.1l0,0.4c0,0.4,0,0.7,0,0.7l0,0
		c0.5-1.4,2-2.5,3.6-2.5c1.9,0,2.7,0.8,3.1,2.5l0,0c0.6-1.3,1.9-2.5,3.7-2.5c2.4,0,3.3,1.4,3.2,3.9l0,4.7c0,0.3,0.1,0.5,0.4,0.4
		l0.8,0l0,1.1l-1.4,0c-0.8,0-1.2-0.4-1.2-1.2l0.1-4.8c0-1.6-0.3-2.9-2.1-2.9c-1.5,0-2.7,1.4-3.1,2.8c-0.1,0.4-0.2,0.9-0.2,1.4l0,4.7
		l-1.4,0l0.1-5.9c0-1.5-0.2-3-2-3c-1.6,0-2.8,1.4-3.3,2.9c-0.1,0.4-0.2,0.9-0.2,1.3l0,4.7l-1.4,0L150.1,328.6z"/>
	<path class="st3" d="M168.4,328.6c0-0.3-0.1-0.5-0.4-0.4l-0.8,0l0-1.1l1.4,0c0.8,0,1.2,0.4,1.2,1.2l-0.1,7.1c0,0.3,0.1,0.5,0.4,0.4
		l0.8,0l0,1.1l-1.4,0c-0.8,0-1.2-0.4-1.2-1.2L168.4,328.6z M168.4,323.1l1.2,0l0,1.6l-1.2,0L168.4,323.1z"/>
	<path class="st3" d="M173.2,328.6c0-0.3-0.1-0.5-0.4-0.4l-0.8,0l0-1.1l1.4,0c0.8,0,1.2,0.4,1.2,1.1l0,0.4c0,0.4,0,0.7,0,0.7l0,0
		c0.4-0.9,1.6-2.5,3.9-2.5c2.5,0,3.3,1.4,3.3,3.9l0,4.7c0,0.3,0.1,0.5,0.4,0.4l0.8,0l0,1.1l-1.4,0c-0.8,0-1.2-0.4-1.2-1.2l0.1-4.8
		c0-1.6-0.3-2.9-2.1-2.9c-1.6,0-3.1,1.2-3.6,2.7c-0.1,0.4-0.2,0.9-0.2,1.3l-0.1,4.8l-1.4,0L173.2,328.6z"/>
	<path class="st3" d="M185.2,328.7c0-0.3-0.1-0.5-0.4-0.4l-0.8,0l0-1.1l1.4,0c0.8,0,1.2,0.4,1.2,1.2l-0.1,7.1c0,0.3,0.1,0.5,0.4,0.4
		l0.8,0l0,1.1l-1.4,0c-0.8,0-1.2-0.4-1.2-1.2L185.2,328.7z M185.3,323.2l1.2,0l0,1.6l-1.2,0L185.3,323.2z"/>
	<path class="st3" d="M195.6,328.2l-1.2,0l0-1.1l1.3-0.1l0-2.7l1.3-0.1l0,2.7l2.5,0l0,1.1l-2.5,0l0,5c0,2.3,1.4,2.6,2.2,2.6
		c0.3,0,0.4,0,0.4,0l0,1.2c0,0-0.2,0.1-0.6,0.1c-1.1,0-3.4-0.4-3.4-3.6L195.6,328.2z"/>
	<path class="st3" d="M202,328.7c0-0.3-0.1-0.5-0.4-0.4l-0.8,0l0-1.1l1.4,0c0.8,0,1.2,0.3,1.2,1.1l0,0.6c0,0.4,0,0.7,0,0.7l0,0
		c0.4-1.5,1.6-2.6,3.1-2.6c0.3,0,0.5,0.1,0.5,0.1l0.1,1.3c0,0-0.2,0-0.5-0.1c-1.4,0-2.4,1.1-2.8,2.5c-0.2,0.7-0.3,1.3-0.3,1.9l0,4.1
		l-1.4,0L202,328.7z"/>
	<path class="st3" d="M213.6,330.9l0.5,0l0-0.1c0-2.1-0.8-2.8-2.5-2.8c-0.5,0-1.9,0.1-1.9,0.8l0,0.6l-1.2,0l0-0.9
		c0-1.4,2.3-1.7,3.2-1.7c3.1,0,3.9,1.6,3.8,3.8l-0.1,4.8c0,0.3,0.1,0.5,0.4,0.4l0.8,0l0,1.1l-1.4,0c-0.8,0-1.1-0.4-1.1-1.1
		c0-0.4,0-0.7,0-0.7l0,0c0,0-0.8,2.1-3.3,2.1c-1.6,0-3.4-1-3.4-2.9C207.5,331,211.9,331,213.6,330.9z M211.1,336.2
		c1.9,0,3-2,3.1-3.6l0-0.4l-0.5-0.1c-1.6,0-4.7,0-4.7,2.2C208.9,335.2,209.7,336.1,211.1,336.2z"/>
	<path class="st3" d="M130.1,350c0-0.3-0.1-0.5-0.4-0.4l-0.8,0l0-1.1l1.4,0c0.8,0,1.2,0.4,1.2,1.2l-0.1,7.1c0,0.3,0.1,0.5,0.4,0.4
		l0.8,0l0,1.1l-1.4,0c-0.8,0-1.2-0.4-1.2-1.2L130.1,350z M130.1,344.5l1.2,0l0,1.6l-1.2,0L130.1,344.5z"/>
	<path class="st3" d="M143.8,348.2c2.4,0,3.2,1.8,3.2,1.8l0,0c0,0,0-0.3,0-0.7l0-3.2c0-0.3-0.1-0.5-0.4-0.4l-0.8,0l0-1.1l1.4,0
		c0.8,0,1.2,0.4,1.2,1.2l0,11c0,0.3,0.1,0.5,0.4,0.4l0.8,0l0,1.1l-1.4,0c-0.8,0-1.1-0.4-1.1-1.1c0-0.4,0-0.6,0-0.6l0,0
		c0,0-0.8,2-3.4,2c-2.7,0-4.3-2.1-4.3-5.2C139.4,350.2,141.2,348.2,143.8,348.2z M147.1,353.4c0-2-1-4-3.2-4c-1.8,0-3.2,1.5-3.2,4
		c0,2.4,1.3,4,3.2,4C145.5,357.4,147,356.2,147.1,353.4z"/>
	<path class="st3" d="M151.9,350c0-0.3-0.1-0.5-0.4-0.4l-0.8,0l0-1.1l1.4,0c0.8,0,1.2,0.4,1.2,1.2l-0.1,7.1c0,0.3,0.1,0.5,0.4,0.4
		l0.8,0l0,1.1l-1.4,0c-0.8,0-1.2-0.4-1.2-1.2L151.9,350z M151.8,344.6l1.2,0l0,1.6l-1.2,0L151.8,344.6z"/>
	<path class="st3" d="M156.8,350.1c0-0.3-0.1-0.5-0.4-0.4l-0.8,0l0-1.1l1.4,0c0.8,0,1.2,0.3,1.2,1.1l0,0.6c0,0.4,0,0.7,0,0.7l0,0
		c0.4-1.5,1.6-2.6,3.1-2.6c0.3,0,0.5,0.1,0.5,0.1l0.1,1.3c0,0-0.2,0-0.5-0.1c-1.4,0-2.4,1.1-2.8,2.5c-0.2,0.7-0.3,1.3-0.3,1.9l0,4.1
		l-1.4,0L156.8,350.1z"/>
	<path class="st3" d="M163.9,350.1c0-0.3-0.1-0.5-0.4-0.4l-0.8,0l0-1.1l1.4,0c0.8,0,1.2,0.4,1.2,1.2l-0.1,7.1c0,0.3,0.1,0.5,0.4,0.4
		l0.8,0l0,1.1l-1.4,0c-0.8,0-1.2-0.4-1.2-1.2L163.9,350.1z M163.9,344.6l1.2,0l0,1.6l-1.2,0L163.9,344.6z"/>
	<path class="st3" d="M172.1,348.3c2.7,0,3.3,1.7,3.3,1.7l0,0c0,0-0.1-0.2,0-0.4c0-0.7,0.3-1.1,1.2-1l1.4,0l0,1.1l-0.8,0
		c-0.3,0-0.5,0.1-0.4,0.4l0,8.1c0,3.1-2.3,4.4-4.7,4.3c-1.1,0-2.3-0.3-3.2-0.8l0.5-1.1c0,0,1.2,0.7,2.7,0.7c2,0,3.5-0.9,3.5-3.1
		l0-0.8c0-0.4,0-0.7,0-0.7l0,0c-0.6,1.1-1.6,1.7-3.1,1.7c-2.7,0-4.4-2.1-4.4-5C167.8,350.4,169.5,348.3,172.1,348.3z M175.4,353.3
		c0-2.9-1.3-3.8-3.1-3.8c-2,0-3.1,1.3-3,3.7c0,2.4,1.3,3.9,3.2,3.9C174,357.2,175.4,356.2,175.4,353.3z"/>
	<path class="st3" d="M184.1,348.4c2.7,0,4.1,2.1,4.1,4.6c0,0.2,0,0.6,0,0.6l-7.6,0c0,2.5,1.8,4,3.8,4c1.8,0,3-1.2,3-1.2l0.7,1
		c0,0-1.5,1.4-3.7,1.4c-2.9,0-5.1-2.1-5.1-5.1C179.2,350.3,181.4,348.4,184.1,348.4z M186.9,352.6c0-2.1-1.3-3.1-2.8-3.1
		c-1.6,0-3,1-3.4,3L186.9,352.6z"/>
	<path class="st3" d="M190.9,350.2c0-0.3-0.1-0.5-0.4-0.4l-0.8,0l0-1.1l1.4,0c0.8,0,1.2,0.4,1.2,1.1l0,0.4c0,0.4,0,0.7,0,0.7l0,0
		c0.4-0.9,1.6-2.5,3.9-2.5c2.5,0,3.3,1.4,3.3,3.9l0,4.7c0,0.3,0.1,0.5,0.4,0.4l0.8,0l0,1.1l-1.4,0c-0.8,0-1.2-0.4-1.2-1.2l0.1-4.8
		c0-1.6-0.3-2.9-2.1-2.9c-1.6,0-3.1,1.2-3.6,2.7c-0.1,0.4-0.2,0.9-0.2,1.3l-0.1,4.8l-1.4,0L190.9,350.2z"/>
	<path class="st3" d="M202.9,349.8l-1.2,0l0-1.1l1.3-0.1l0-2.7l1.3-0.1l0,2.7l2.5,0l0,1.1l-2.5,0l0,5c0,2.3,1.4,2.6,2.2,2.6
		c0.3,0,0.4,0,0.4,0l0,1.2c0,0-0.2,0.1-0.6,0.1c-1.1,0-3.4-0.4-3.4-3.6L202.9,349.8z"/>
	<path class="st3" d="M209.4,350.3c0-0.3-0.1-0.5-0.4-0.4l-0.8,0l0-1.1l1.4,0c0.8,0,1.2,0.4,1.2,1.2l-0.1,7.1c0,0.3,0.1,0.5,0.4,0.4
		l0.8,0l0,1.1l-1.4,0c-0.8,0-1.2-0.4-1.2-1.2L209.4,350.3z M209.4,344.8l1.2,0l0,1.6l-1.2,0L209.4,344.8z"/>
</g>
</svg>
