<?xml version="1.0" encoding="utf-8"?>
<!-- Generator: Adobe Illustrator 22.0.0, SVG Export Plug-In . SVG Version: 6.00 Build 0)  -->
<svg version="1.1" id="Livello_1" xmlns="http://www.w3.org/2000/svg" xmlns:xlink="http://www.w3.org/1999/xlink" x="0px" y="0px"
	 viewBox="0 0 759 488" style="enable-background:new 0 0 759 488;" xml:space="preserve">
<style type="text/css">
	.st0{opacity:0.1;fill:#00295A;enable-background:new    ;}
	.st1{fill:none;stroke:#4E5594;stroke-width:3;stroke-linecap:round;stroke-miterlimit:10;stroke-dasharray:0,9;}
	.st2{fill:#00295A;}
	.st3{fill:#4E5594;}
	.st4{fill:none;stroke:#F3352F;stroke-width:3;stroke-linecap:round;stroke-miterlimit:10;stroke-dasharray:0,9;}
	.st5{fill:#FFFFFF;}
</style>
<g>
	<path class="st0" d="M539.6,83c84,0,152.1,68.1,152.1,152.1s-68.1,152.1-152.1,152.1s-152.1-68.1-152.1-152.1S455.6,83,539.6,83z"
		/>
	<path class="st1" d="M744.8,2.4H13.3"/>
	<path class="st2" d="M232.8,314.6c28.7,0,51.9,23.3,51.9,51.9c0,28.7-23.3,51.9-51.9,51.9c-28.7,0-51.9-23.3-51.9-51.9
		C180.8,337.8,204.1,314.6,232.8,314.6z"/>
	<path class="st3" d="M75.4,314.6c28.7,0,51.9,23.3,51.9,51.9c0,28.7-23.3,51.9-51.9,51.9c-28.7,0-51.9-23.3-51.9-51.9
		C23.4,337.8,46.7,314.6,75.4,314.6z"/>
	<path class="st2" d="M232.8,85.1c28.7,0,51.9,23.3,51.9,51.9c0,28.7-23.3,51.9-51.9,51.9c-28.7,0-51.9-23.3-51.9-51.9
		C180.8,108.4,204.1,85.1,232.8,85.1z"/>
	<path class="st3" d="M75.4,85.1c28.7,0,51.9,23.3,51.9,51.9c0,28.7-23.3,51.9-51.9,51.9c-28.7,0-51.9-23.3-51.9-51.9
		C23.4,108.4,46.7,85.1,75.4,85.1z"/>
	<path class="st4" d="M641.4,112.6c64.7,0,117.1,52.4,117.1,117.1s-52.4,117.1-117.1,117.1s-117.1-52.4-117.1-117.1
		C524.3,165.1,576.7,112.6,641.4,112.6z"/>
	<path class="st4" d="M441.6,89.8c64.7,0,117.1,52.4,117.1,117.1S506.3,324,441.6,324s-117.1-52.3-117.1-117S376.9,89.8,441.6,89.8z
		"/>
	<path class="st3" d="M446.8,318.6c35.5-9.5,72,11.5,81.5,47s-11.5,72-47,81.5s-72-11.5-81.5-47S411.4,328.1,446.8,318.6z"/>
	<path class="st2" d="M626.3,318.4c35.5,9.5,56.5,46,47,81.5s-46,56.5-81.5,47s-56.5-46-47-81.5C554.3,330,590.8,308.9,626.3,318.4z
		"/>
	<path class="st3" d="M469.1,288.1c-0.6-0.6-1.4-1.3-2.3-2c-0.8-0.6-1.6-1.2-2.2-1.8c-1.1-1.1-2.4-2.2-4-3.5c-0.9-0.7-1.2-1-1.5-1.3
		c-0.1-0.1-0.2-0.2-0.3-0.3c-0.4-0.3-0.5-0.8-0.8-1.6c-0.1-0.4-0.2-0.8-0.4-1.4c-0.3-0.7-0.6-1.4-1-2c-0.4-0.7-0.7-1.3-0.9-1.9
		c-0.3-1.3-2.3-10.6-2.9-13.4c-0.1-0.5-0.2-1.1-0.3-1.7c-0.5-2.7-1-5.9-1.6-8.1c-0.9-3.3-3.5-11.5-5.1-14.3
		c-1.4-2.5-5.1-10-5.9-12.1c-0.8-2-2.3-6.6-2.9-9.1c-0.1-0.7-0.5-2.3-1.2-4.9v-0.1h0.1c0.3-0.2,0.5-0.3,0.6-0.3
		c1-0.6,1.6-1.2,1.8-1.3c-0.3-1-4-11.2-4.7-13.7s-1.5-5.6-1.5-5.7l0.2-0.1l0.2,0.6c0.4-0.2,0.7-0.9,0.5-1.8
		c-0.2-0.8-0.3-1.1-0.5-1.6c-0.1-0.2-0.2-0.5-0.3-0.8c-0.3-1-0.4-1.8-0.4-1.8v-0.2l0.2,0.1c0.1,0.1,1.2,0.8,1.4,1.3
		c0,0.1,0.1,0.2,0.1,0.2c0.2,0.3,0.3,0.6,0.4,1.3c0.1,0.5,0.1,0.8,0.1,1.1c0,0.2,0,0.4,0.1,0.7c0.1,0.4,0,0.9-0.1,1.6
		c0,0.3-0.1,0.7-0.1,1.1c-0.1,1.5,0.1,2.6,0.6,2.6c0.3,0,0.5,0,0.6,0c0.4-0.1,0.6-0.4,0.8-0.9c0.3-1.1,1.2-3.1,1.4-3.4
		c0.3-0.6,0.6-1.2,0.5-2.9c0-0.5,0-0.9,0-1.3c0-1,0-1.9-0.3-2.4c-0.2-0.4-0.7-1.1-1.1-1.8c-0.5-0.8-1.1-1.6-1.4-2.1
		c-0.4-0.7-0.5-0.9-0.5-0.9h-0.4l0.4-0.2l0,0c1.2-0.6,1.6-1.1,1.6-1.3c0-0.5-1.6-6.2-2.5-8.7c-0.2-0.6-0.5-1.2-0.7-1.8
		c-0.7-1.8-1.5-3.7-2.3-6.4c-0.7-2.5-2.9-8-4.7-12.4c-0.7-1.9-1.4-3.5-1.8-4.6c-0.6-1.7-1.7-4-2.8-6.2s-2.2-4.5-2.8-6.2
		c-1.3-3.4-3.3-7.8-4.5-9.1c-0.6-0.7-1.8-0.4-3.7-0.1c-0.5,0.1-0.9,0.2-1.5,0.3c-0.9,0.2-2.9-0.1-4.7-0.3c-0.5,0-0.9-0.1-1.3-0.1
		h-0.1V119c-0.3-0.6-0.5-1.4-0.8-2.3c-0.2-0.6-0.4-1.3-0.7-2c-0.2-0.6-0.5-1.3-0.8-1.9c-0.4-0.8-0.7-1.7-1-2.5
		c-0.2-0.5-0.3-1-0.3-1.4c-0.1-0.4-0.2-0.8-0.3-1.2c-0.3-0.7-0.5-1.7-0.8-2.9c-0.4-1.4-0.8-3-1.3-4.4c-1-2.8-2.5-5.3-4.7-7.9
		c-2.6-3.1-5.9-2.8-7.6-2.3c-0.8,0.2-1.2,0.4-1.2,0.5l0,0l0,0c0,0-0.9-0.1-2.1,0.2c-1.4,0.4-3.4,1.4-4.6,3.8
		c-1.2,2.3-0.8,10.6,1.1,14.5c1.5,3,1.7,4.4,2.1,6.4c0.1,0.6,0.2,1.1,0.4,1.8c0.3,1.3,0.5,2.1,0.7,2.7c0.2,0.8,0.3,1.1,0.2,1.8
		c0,0.2,0.1,1,0.2,1.6c0.1,0.5,0.2,0.9,0.2,1.1v0.1h-0.1c-0.7,0.4-1.4,0.9-2.1,1.4c-1.4,0.9-2.7,1.7-3.4,2.3
		c-0.7,0.5-1.7,0.9-2.7,1.2c-1.1,0.4-2.2,0.8-2.4,1.4c-0.2,1.2,0.3,7.4,1.9,13.9c1.3,5.3,1.6,9.2,2,13c0.1,1,0.2,1.9,0.3,2.8
		c0.3,2.5,0.6,4.5,1.2,8.1c0,0.1,0.1,0.6,0.2,1c0.1,0.5,0.2,0.9,0.2,1l0.3,0.7c0.6,1.5,1.2,2.8,1.9,4.3l0.2,0.5
		c2.6,5.7,5.3,12.1,6,14.2c0.6,1.8,1.4,2.6,1.6,2.7l1.3-0.1v0.1c0,0.1,0,0.2,0.1,0.2c0.2,0.7,0.2,1.4,0.3,1.9c0.1,1,0.2,1.8,0.7,2.9
		c0.5,0.9,0.9,1.5,1.4,2c0.3,0.4,0.6,0.8,0.9,1.3c0.5,0.9,1.3,1.5,2.5,2h0.1v0.1c0.6,2.2,0.9,2.8,1.3,3.8l0.1,0.3
		c1.1,2.6,3.5,11.6,3.7,12.4c0.2,0.1,1.2,0.4,2.6,0.1h0.1v0.1c0.6,1.5,1.5,3.8,2.2,5.5c0.3,0.8,0.6,1.5,0.8,2
		c1.6,4.1,4.2,12.8,5.5,18.1c1.1,4.5,4.4,12.7,6.8,16.2c1.3,1.9,2.5,3.9,3.6,5.6c0.7,1.2,1.4,2.3,2,3.2c1.4,2,3.9,6.5,4.2,7.9
		c0.2,0.9,0.7,1.7,1.1,2.5c0.2,0.4,0.4,0.7,0.6,1.1v0.1c0.5,1,1,2.2,0.7,5.9c-0.2,1.7-0.4,3.1-0.5,4.2c-0.2,1.4-0.4,2.5-0.3,3.3
		c0.2,2.7,0.6,4.3,1.3,4.4c0.8,0.2,2.5,0.1,3.1,0l0,0c0.3-0.1,0.7-0.5,1.3-1c0.2-0.2,0.4-0.4,0.7-0.7c1.8-1.7,2.1-2.9,2.1-4
		c0.1-1.2,0.1-3.7,0.1-5c0-0.5-0.1-1.2-0.1-2c-0.1-1.2-0.2-2.5-0.1-3.3c0.1-0.9,0.1-2.6-0.9-3.7c-0.5-0.5-0.9-1.2-1.2-2
		c-0.4-0.7-0.8-1.5-1.3-2.1c-1.2-1.3-3.3-8.7-3.7-10.5c-0.1-0.5-0.3-1.2-0.5-2.2c-0.6-3.2-1.7-8.6-3.6-14.4c-0.6-1.9-1.9-4.5-3-6.8
		c-1.2-2.5-2.2-4.6-2.3-5.5c-0.1-0.8-0.8-7.6-1.5-11.1c-0.2-0.8-0.4-1.8-0.8-3.1c-0.4-1.6-0.9-3.6-1.6-6.4v-0.1h0.1
		c0.3-0.1,1.1-0.3,2-0.5c0.6-0.2,1.2-0.3,1.8-0.5c0.8-0.2,1.3-0.4,1.5-0.4h0.1v0.1c1.4,3.7,3.9,10.2,5.3,12c2,2.7,5,7.6,6.2,10.1
		c0.2,0.4,0.6,1.9,1.1,3.6c0.9,3.3,2.2,7.9,3.3,10.1c0.8,1.5,2.1,3.5,3.2,5.4c1.4,2.2,2.8,4.5,3.6,6.1c1.2,2.4,2.9,6.5,4.1,9.3
		c0.3,0.9,0.7,1.6,0.9,2.1c0.9,2.1,1.3,3.3,0.9,3.8c-0.4,0.4-0.4,1.2-0.1,2.2c0.3,1,1.4,2.6,2.3,3.7c0.4,0.5,1.2,1.4,2,2.3
		c0.8,0.9,1.7,1.9,2.3,2.6c1.2,1.5,4.4,5.2,5,5.8c0.5,0.6,1.6,0.8,2.5,0.9h0.1c1,0.2,4.2,0.1,4.6,0.1l0,0c0.4-0.1,2.3-1.9,2.1-2.7
		C470.8,291.8,470.2,289.4,469.1,288.1z M389.1,178.9c-0.7-1.7-3.1-9.7-3.1-9.7c0-0.1-0.2-0.7-0.4-1.2c-0.2-0.6-0.4-1.2-0.4-1.4
		c-0.4-2.6-0.4-3.5-0.4-4.9c0-0.9-0.1-2.1-0.2-4.1c-0.2-2.7-0.7-5.2-1-6.8l0.2-0.1l0.4,1.7c0,0,1.1,3.2,1.8,5.7
		c1,3.3,2.1,8.6,2.4,10.6c0.1,0.9,0.2,1.8,0.2,2.6c0.1,1.2,0.2,2.4,0.3,3.6c0.2,2,0.3,3.7,0.3,3.9v0.7L389.1,178.9z M429.3,181.4
		c0-0.1-2.4-6.5-3.4-8.3c-0.5-0.9-1.1-1.7-1.6-2.5c-0.4-0.5-0.7-1-1-1.5l-0.1-0.1l0.1-0.1c0.2-0.2,0.3-0.4,0.3-0.5
		c-0.4-0.6-4.1-5.8-5.1-7.4c-0.2-0.3-0.5-1-0.9-1.8c-0.3-0.7-0.7-1.5-0.9-1.8c-0.6-1.8-1-3.5-1.3-5c-0.1-0.7-0.3-1.4-0.5-2.1
		c-0.8-3.4-1.7-9.7-1.7-9.7l-0.1-1l0.4,0.9c0,0.1,3.2,7.8,4.3,10.7c0.4,1.1,2.6,5.5,2.6,5.5c0,0.1,2.6,6.9,3.9,9.6
		c0.3,0.7,0.6,1.3,0.9,1.8c0.7,1.4,1,2.1,1.3,3.1c0.3,1.2,1.7,5.4,1.9,6l1.2,0.2l-0.2,0.2c0,0-0.2,0.2-0.4,0.6
		c-0.1,0.3,0.2,2.1,0.5,3.1L429.3,181.4z"/>
	<path class="st2" d="M633.1,309.3L633.1,309.3c-0.1,0-0.3-0.1-0.4-0.1c-3.1-1-4.3-1.7-3.7-4.1c0.6-2.2,1.2-5,2.2-6.9
		c0.9-1.8,2.2-6.1,2.1-6.7c0-0.3,0.1-1.9,0.3-3.7c0.2-1.9,0.4-4.1,0.4-4.7c0-1.1,2.3-5.7,3.1-6.3c0.2-0.2,0.5-0.3,0.7-0.5
		c0.7-0.4,1.6-0.9,1.4-1.7c-0.2-1.1,0-5.3,1.8-8.8c1.7-3.4,4.1-9.6,4.1-10.6c0-0.4,0.2-0.8,0.4-1.3c0.3-0.7,0.7-1.5,0.4-2.4
		c-0.5-1.4-0.1-2.8,0.2-3.9l0.1-0.3c0.1-0.5,0.4-2.1,0.6-3.6c0.2-1.6,0.5-3.3,0.6-3.9c0.1-0.3,0.3-1.3,0.7-2.5
		c0.9-3.1,2.3-8.3,3.1-11.5c0.3-1.2,0.7-3,1.2-5.1c1.1-4.7,2.7-11.6,2.8-12.8c-0.4,0.5-1.3,2.2-2.1,3.8c-0.9,1.7-1.9,3.6-2.6,4.7
		c-0.6,0.9-1.2,1.7-1.9,2.5c-1.1,1.4-2.1,2.7-2.4,3.9c-0.9,3.6-1.7,5.8-2.5,6.5c-0.9,0.9-1.9,1.9-2.1,3.6c-0.2,1.6-0.7,2.6-1.2,2.7
		c-0.3,0.1-0.8,0.4-1,0.5c0.2,0.3,0.7,1.5,0.3,3c-0.4,1.7-1.3,8.6-1.2,12.5c0.1,3.8-0.7,17.3-1.9,20.3c-1.1,3-3.5,8.6-3.8,9.2
		c-0.1,0.2-0.1,0.3-0.1,0.6s0,0.8-0.2,1.9c-0.1,0.4-0.1,0.7-0.2,1c-0.3,1.4-0.4,2.1-0.4,2.6c0,0.3,0,0.7,0,1.3c0,1-0.1,2.5,0,3.5
		c0.1,1.5-0.3,5.4-1.8,5.8c-0.7,0.2-3.2,0.7-6.2-0.1c-0.2,0-0.4-0.1-0.5-0.2c-0.3-0.1-0.6-0.2-0.8-0.3c-0.5-0.2-1-0.3-1.4-0.4
		c-1.3-0.3-2.5-0.4-5.4,0c-2.5,0.4-7.1,0.8-10.4,0c-1.3-0.3-2.3-0.9-2.9-1.6c-2.2-2.5-2.4-5.1-1.2-6.1c1-1,3.4-1.3,5.1-1.3
		c1.5,0,3.9,0,6.2-1.2c2-0.9,4-2.3,4.5-2.7c-0.1-0.1-0.2-0.3-0.2-0.6s0.2-0.6,0.5-0.9c0.3-0.2,0.6-0.4,1-0.6
		c0.4-0.2,0.9-0.4,0.9-0.7c0-0.2-0.1-0.3-0.3-0.6c-1.1-1.2-1.2-5.9-0.3-8c0.3-0.7,0.7-1.6,1.2-2.6c0.9-2,1.9-4.3,2.1-5
		c0.1-0.4,0.3-3.9,0.5-7.6c0.3-5.7,0.7-12.2,1-12.9c0.5-1.1,0.5-1.9,0.2-2.3c-0.4-0.5,0.1-4,0.5-4.6c0.4-0.5,0.5-1.3,0.3-2.7
		c0-0.3-0.1-0.5-0.1-0.8c-0.2-1.2-0.5-2.7,0.3-4.7c0.4-1.1,1.3-3.4,2.3-5.8c1.2-3.2,2.6-6.8,3.2-8.1c0.4-0.9,1.1-2.7,1.9-4.8
		c1.2-3.2,2.6-6.9,3.3-8.3c1-2.1,3-7.6,3.2-8.2c-0.2-0.4-1-2.5-0.8-3.1c0.3-0.8,0.9-1.8,1.6-3c0.7-1.2,1.5-2.8,2.5-4.6
		c1.7-3.4,3.4-7.1,4.3-9.3c1.5-3.6,4.6-9.5,5.1-10.3c-0.8-0.3-5.1-2.3-6.7-3.2c-1.7-1-2-2.1-1.9-4.2c0.1-0.9,0.2-1.7,0.3-2.4
		c0.2-1,0.3-1.9,0.1-2.4c-0.3-1,1.1-2.9,1.9-3.5c0.2-0.2,0.5-0.3,0.7-0.4c0.6-0.3,1.1-0.7,1.9-2c1.2-1.9,4-5.7,4.5-6.1
		c0.3-0.2,1-0.8,1-1.3c0-0.3,0.3-0.7,0.9-1.4c0.5-0.5,1-1.1,1.1-1.5s0.3-0.7,0.6-1c0.3-0.4,0.6-0.8,0.7-1.4c0.2-0.6,0.8-1.5,1.5-2.4
		c0.6-0.8,1.2-1.6,1.3-2c0.1-0.9,0.8-2.2,1.8-3.4c0.9-1.1,2.2-0.9,2.5-0.8c1.2-0.7,5.3-1.7,7.6-2.1c1.6-0.3,2.9-0.5,3.4-0.6
		c0.5-2.6,0.7-2.9,0.8-2.9c0.2-0.3,1.6-1.1,2.5-1.6v-0.1c0-0.1,0-0.3,0.1-0.5c0.1-0.7,0.4-2-0.4-2.9c-1-1.2-1.3-3.5-1-6.5
		s0.4-5.1,0.4-5.1c0-0.1,0.8-4.7,0.7-7c-0.1-2.5,1.1-4.5,1.6-5.3s1.4-1.2,1.7-1.3c-0.1-0.4-0.2-1.9,0.7-3.1c0.6-0.8,1.7-1.3,3.1-1.4
		c1.3-0.1,2.8,0.1,4.5,0.6c2,0.5,4,1.3,5.5,2c1,0.4,1.7,0.7,2.2,0.8h0.1c1.9,0.5,4.6,3.4,4.6,6.8c-0.1,3.4-0.2,4.4-0.8,6.3
		c-0.4,1.2-1.1,2.7-1.9,4.2c-0.4,0.8-0.8,1.6-1.2,2.4c-0.7,1.4-1.3,2-1.8,2.6c-0.3,0.3-0.6,0.6-0.9,1.1c-0.2,0.2-0.3,0.5-0.4,0.7
		c-0.6,0.9-1.1,1.6-1.2,2.6c-0.2,0.9-0.4,1.8-0.5,2.2h0.1h0.1v0.2l0,0c0,0.1,0.1,0.5,0.2,0.8c0.2,0.6,0.4,1.1,0.3,1.4
		c0,0.2-0.1,0.4-0.1,0.7c0.2,0.1,0.7,0.4,1,1.1c0.4,0.9,1.8,3.7,2,4.1c0.3,0.1,1.8,0.7,5.7,3l0.3,0.2c2.4,1.4,6.4,3.7,5.8,7
		c-0.1,0.4-0.1,0.7-0.2,1.1c-0.3,2.1-0.6,4.2-2.2,5.9c-1.8,1.9-3.5,4.5-4.7,7.1c-1.2,2.4-2.3,4.6-3.5,5.5s-1.5,1.6-1.9,3
		c-0.2,0.9-0.8,1.5-1.4,2.1c-0.4,0.4-0.8,0.8-1.1,1.4c-0.5,0.7-1.2,1.9-1.8,3c-0.7,1.2-1.1,1.9-1.3,2.1c-0.2,0.3-0.9,4.6-0.9,6.7
		c0,1-0.8,9.1-1.7,17.4c-1.7,16-2,16-2.1,16.1c-0.1,0-0.3,0.1-0.6,0.2c-1.4,0.5-4.7,1.7-6.2,1.8c-1.4,0.1-2.2,0.2-2.4,0.2
		c-0.3,0.8-2.3,6.5-3.3,8c-1.1,1.5-2,2.9-2.6,5.2c-0.5,1.9-1.4,3.4-2.5,4.7c-0.7,0.8-1.5,5.3-1.9,7.8c-0.3,1.9-0.5,3-1.2,4.2
		c-0.3,0.5-0.5,0.7-0.7,1c-0.3,0.4-0.5,0.6-0.7,1.4c-0.1,0.6-0.4,1.1-0.6,1.6c-0.2,0.5-0.4,1-0.4,1.3s0,0.5-0.1,0.8
		s-0.2,0.7-0.2,1.1c0,0.5-0.1,0.8-0.2,1.1c-0.1,0.3-0.3,0.7-0.3,1.3c0,1.2-0.3,3.3-0.7,4.6c-0.1,0.4-0.4,1.4-0.7,2.7
		c-0.6,2.5-1.5,6-2.2,8c-0.4,1-0.9,2.6-1.4,4.1c-1.1,3.3-2.4,7.1-3.4,9.3c-0.5,1.1-1.1,2.3-1.7,3.7c-1.3,2.8-2.7,5.8-3.2,7.2
		c-0.2,0.6-0.4,1.2-0.5,1.8c-0.4,1.5-0.7,2.9-1.8,3.9c-0.6,0.6-1,0.9-1.4,1.2c-0.5,0.5-0.8,0.7-0.9,1.1c-0.1,0.3-0.1,1.2-0.2,2.4
		c-0.1,1.6-0.2,3.7-0.4,4.7c0,0.2-0.1,0.4-0.1,0.6c-0.3,1.7-0.7,4-2.3,5C639,309.3,636.5,310.2,633.1,309.3"/>
	<path class="st1" d="M300.3,266.4H-0.4"/>
	<path class="st1" d="M346.7,7.2v482.3"/>
	<path class="st1" d="M151.7,83v165.9"/>
	<path class="st1" d="M151.7,317.8v165.9"/>
	<g>
		<path class="st2" d="M460.2,42.8c0-0.4-0.2-0.6-0.6-0.6h-1.2v-1.7h2.1c1.2,0,1.7,0.5,1.7,1.7v15.6c0,0.4,0.2,0.6,0.6,0.6h6.5
			c0.4,0,0.6-0.2,0.6-0.6v-1.3h1.9v2c0,1.2-0.5,1.7-1.7,1.7h-8.2c-1.2,0-1.7-0.5-1.7-1.7L460.2,42.8L460.2,42.8z"/>
		<path class="st2" d="M474.2,42.2h-1.8v-1.7h11.3c1.2,0,1.7,0.5,1.7,1.7v2h-1.9v-1.3c0-0.4-0.2-0.6-0.6-0.6h-6.7v7.2h7.4v1.7h-7.4
			v6.7c0,0.4,0.2,0.6,0.6,0.6h6.9c0.4,0,0.6-0.2,0.6-0.6v-1.3h1.8v2c0,1.2-0.5,1.7-1.7,1.7h-8.5c-1.2,0-1.7-0.5-1.7-1.7L474.2,42.2
			L474.2,42.2z"/>
		<path class="st2" d="M487.2,58.5h0.4c0.5,0,0.8-0.1,1-0.6l6.4-17.4h2.1l6.4,17.4c0.2,0.5,0.5,0.6,1,0.6h0.3v1.7h-0.9
			c-1.4,0-1.8-0.3-2.3-1.6l-1.7-4.7h-7.8l-1.7,4.7c-0.5,1.3-0.9,1.6-2.3,1.6h-0.9V58.5z M499.4,52.2l-2.6-7
			c-0.3-0.9-0.8-2.6-0.8-2.6h-0.1c0,0-0.4,1.6-0.8,2.6l-2.6,7H499.4z"/>
		<path class="st2" d="M508.2,42.2h-1.8v-1.7h7.9c5.9,0,9.9,3.6,9.9,9.8c0,6.3-4,9.9-9.9,9.9h-4.4c-1.2,0-1.7-0.5-1.7-1.7V42.2z
			 M510.8,58.5h3.3c4.9,0,8-2.9,8-8.1c0-5.2-3.2-8.1-8-8.1h-3.9v15.6C510.2,58.3,510.4,58.5,510.8,58.5z"/>
		<path class="st2" d="M528.3,42.2h-1.8v-1.7h11.3c1.2,0,1.7,0.5,1.7,1.7v2h-1.9v-1.3c0-0.4-0.2-0.6-0.6-0.6h-6.7v7.2h7.4v1.7h-7.4
			v6.7c0,0.4,0.2,0.6,0.6,0.6h6.9c0.4,0,0.6-0.2,0.6-0.6v-1.3h1.8v2c0,1.2-0.5,1.7-1.7,1.7H530c-1.2,0-1.7-0.5-1.7-1.7L528.3,42.2
			L528.3,42.2z"/>
		<path class="st2" d="M543.9,42.2h-1.8v-1.7h8.4c3.3,0,5.7,2.2,5.7,5.6c0,3.1-1.9,4.9-3.8,5.3v0.1c0,0,0.4,0.2,0.7,0.8l2.8,5.6
			c0.3,0.6,0.7,0.6,1.4,0.6h0.4v1.7h-0.9c-1.6,0-2.1-0.2-2.7-1.5l-2.8-5.6c-0.5-1-0.9-1.2-2-1.2H546v8.3h-2v-18H543.9z M550.3,50.2
			c2.4,0,3.8-1.5,3.8-4c0-2.4-1.5-3.9-3.8-3.9h-4.4v7.9H550.3z"/>
		<path class="st2" d="M560.2,56.3c0,0,2,2.4,5.1,2.4c2.2,0,3.9-1.4,3.9-3.5c0-4.9-9.7-3.9-9.7-10c0-2.7,2.4-5,6-5
			c1.9,0,5.3,0.8,5.3,3.4V45h-1.9v-1c0-1.2-1.6-2-3.4-2c-2.6,0-4,1.5-4,3.2c0,4.6,9.7,3.4,9.7,10c0,2.9-2.3,5.4-6,5.4
			c-4,0-6.3-2.8-6.3-2.8L560.2,56.3z"/>
		<path class="st2" d="M575.4,42.8c0-0.4-0.2-0.6-0.6-0.6h-1.2v-1.7h2.1c1.2,0,1.7,0.5,1.7,1.7v7.3h11.3v-7.3c0-1.2,0.5-1.7,1.7-1.7
			h2.1v1.7h-1.2c-0.4,0-0.6,0.2-0.6,0.6v17.4h-2v-9h-11.3v9h-2V42.8z"/>
		<path class="st2" d="M594.9,58.5h1.9V42.3h-1.9v-1.7h5.6v1.7h-1.9v16.2h1.9v1.7h-5.6V58.5z"/>
		<path class="st2" d="M604.9,42.2h-1.8v-1.7h8.3c3.5,0,6.1,2.3,6.1,5.9c0,3.7-2.6,6-6.1,6h-4.5v7.7h-2V42.2z M611.1,50.7
			c2.6,0,4.3-1.6,4.3-4.3s-1.7-4.2-4.3-4.2h-4.3v8.5H611.1z"/>
	</g>
	<g>
		<path class="st2" d="M1.6,42.2h-1.8v-1.7h11.1c1.2,0,1.7,0.5,1.7,1.7v1.9h-1.8v-1.3c0-0.4-0.2-0.6-0.6-0.6H3.6v7.1h7.3V51H3.6v6.6
			c0,0.4,0.2,0.6,0.6,0.6H11c0.4,0,0.6-0.2,0.6-0.6v-1.3h1.8v1.9c0,1.2-0.5,1.7-1.7,1.7H3.3c-1.2,0-1.7-0.5-1.7-1.7V42.2z"/>
		<path class="st2" d="M25,40.2c5.6,0,10,4.4,10,9.9c0,2.5-0.9,4.9-2.4,6.7l2.4,2.4l-1.2,1.2L31.4,58c-1.7,1.5-3.9,2.3-6.3,2.3
			c-5.5,0-9.9-4.5-9.9-10.2C15.2,44.5,19.5,40.2,25,40.2z M25,58.5c3.1,0,5-1.8,5-1.8l-2.3-2.4l1.2-1.2l2.3,2.4
			c1.1-1.4,1.8-3.4,1.8-5.4c0-4.6-3.5-8.1-8-8.1c-4.4,0-7.8,3.5-7.8,8.1C17.2,54.8,20.6,58.5,25,58.5z"/>
		<path class="st2" d="M38.8,42.9c0-0.4-0.2-0.6-0.6-0.6H37v-1.7h2.1c1.2,0,1.7,0.5,1.7,1.7v11c0,3.2,2.1,5.3,5.2,5.3
			c3.2,0,5.3-2,5.3-5.3v-11c0-1.2,0.5-1.7,1.7-1.7h2.1v1.7h-1.2c-0.4,0-0.6,0.2-0.6,0.6v10.5c0,4.2-2.9,7-7.2,7
			c-4.3,0-7.2-2.8-7.2-7L38.8,42.9L38.8,42.9z"/>
		<path class="st2" d="M57.2,58.3H59v-16h-1.8v-1.7h5.6v1.7h-1.9v16h1.9V60h-5.6V58.3z"/>
		<path class="st2" d="M67,42.9c0-0.4-0.2-0.6-0.6-0.6h-1.2v-1.7h2.1c1.2,0,1.7,0.5,1.7,1.7v15.5c0,0.4,0.2,0.6,0.6,0.6h6.5
			c0.4,0,0.6-0.2,0.6-0.6v-1.3h1.8v1.9c0,1.2-0.5,1.7-1.7,1.7h-8.1c-1.2,0-1.7-0.5-1.7-1.7L67,42.9L67,42.9z"/>
		<path class="st2" d="M80,58.3h1.8v-16H80v-1.7h5.6v1.7h-1.9v16h1.9V60H80V58.3z"/>
		<path class="st2" d="M89.7,42.2h-1.8v-1.7h8.3c3,0,5.3,1.9,5.3,4.9c0,2.1-1.1,3.5-2.5,4.2v0.1c2,0.6,3.3,2.5,3.3,4.8
			c0,3.5-2.5,5.5-5.8,5.5h-5c-1.2,0-1.7-0.5-1.7-1.7L89.7,42.2L89.7,42.2z M96.2,49c2,0,3.3-1.4,3.3-3.4s-1.3-3.3-3.3-3.3h-4.5V49
			H96.2z M92.3,58.3h4.2c2.4,0,3.8-1.5,3.8-3.8s-1.6-3.9-3.8-3.9h-4.7v7C91.7,58.1,91.9,58.3,92.3,58.3z"/>
		<path class="st2" d="M106.6,42.2h-1.8v-1.7h8.3c3.3,0,5.6,2.2,5.6,5.5c0,3-1.9,4.8-3.8,5.2v0.1c0,0,0.4,0.2,0.7,0.8l2.8,5.5
			c0.3,0.6,0.7,0.6,1.4,0.6h0.4v1.7h-0.9c-1.6,0-2.1-0.2-2.7-1.5l-2.8-5.6c-0.5-1-0.9-1.2-2-1.2h-3.3v8.2h-1.9V42.2z M112.8,50.1
			c2.3,0,3.8-1.5,3.8-4c0-2.4-1.4-3.9-3.7-3.9h-4.4V50h4.3V50.1z"/>
		<path class="st2" d="M121.7,58.3h1.8v-16h-1.8v-1.7h5.6v1.7h-1.9v16h1.9V60h-5.6V58.3z"/>
		<path class="st2" d="M139.5,40.2c5.5,0,9.9,4.4,9.9,9.9c0,5.7-4.4,10.2-9.9,10.2s-9.9-4.5-9.9-10.2
			C129.6,44.5,133.9,40.2,139.5,40.2z M139.5,58.5c4.4,0,7.9-3.7,7.9-8.4c0-4.6-3.5-8.1-7.9-8.1s-7.9,3.5-7.9,8.1
			C131.6,54.9,135.1,58.5,139.5,58.5z"/>
		<path class="st2" d="M160.9,42.2h-1.8v-1.7h7.8c5.9,0,9.8,3.6,9.8,9.7c0,6.2-3.9,9.8-9.8,9.8h-4.3c-1.2,0-1.7-0.5-1.7-1.7V42.2z
			 M163.5,58.3h3.3c4.8,0,8-2.8,8-8s-3.2-8-8-8h-3.9v15.4C162.9,58.1,163.1,58.3,163.5,58.3z"/>
		<path class="st2" d="M179,58.3h1.8v-16H179v-1.7h5.6v1.7h-1.9v16h1.9V60H179V58.3z"/>
		<path class="st2" d="M204.2,40.2c4.5,0,6.8,2.4,6.8,2.4l-1.1,1.4c0,0-2.2-2-5.7-2c-4.4,0-7.7,3.5-7.7,8.2c0,4.8,3.3,8.3,7.7,8.3
			c3.9,0,6.2-2.9,6.2-2.9v-2.4c0-0.4-0.2-0.6-0.6-0.6h-1.2v-1.7h1.9c1.2,0,1.7,0.5,1.7,1.7V60h-1.8v-1.5c0-0.4,0-0.8,0-0.8h-0.1
			c0,0-2.3,2.6-6.4,2.6c-5.3,0-9.5-4.3-9.5-10.1C194.5,44.6,198.7,40.2,204.2,40.2z"/>
		<path class="st2" d="M216.4,42.2h-1.8v-1.7h11.1c1.2,0,1.7,0.5,1.7,1.7v1.9h-1.8v-1.3c0-0.4-0.2-0.6-0.6-0.6h-6.6v7.1h7.3V51h-7.3
			v6.6c0,0.4,0.2,0.6,0.6,0.6h6.8c0.4,0,0.6-0.2,0.6-0.6v-1.3h1.8v1.9c0,1.2-0.5,1.7-1.7,1.7h-8.4c-1.2,0-1.7-0.5-1.7-1.7
			L216.4,42.2L216.4,42.2z"/>
		<path class="st2" d="M230.1,58.3h1.2c0.4,0,0.6-0.2,0.6-0.6V40.5h1.8l9.9,13.9c0.7,1,1.6,2.5,1.6,2.5h0.1c0,0-0.1-1.5-0.1-2.5
			V42.2c0-1.2,0.5-1.7,1.7-1.7h2.1v1.7h-1.2c-0.4,0-0.6,0.2-0.6,0.6V60h-1.8l-9.9-13.9c-0.7-0.9-1.6-2.5-1.6-2.5h-0.1
			c0,0,0.2,1.5,0.2,2.5v12.2c0,1.2-0.5,1.7-1.7,1.7h-2.1v-1.7H230.1z"/>
		<path class="st2" d="M253,42.2h-1.8v-1.7h11.1c1.2,0,1.7,0.5,1.7,1.7v1.9h-1.8v-1.3c0-0.4-0.2-0.6-0.6-0.6H255v7.1h7.3V51H255v6.6
			c0,0.4,0.2,0.6,0.6,0.6h6.8c0.4,0,0.6-0.2,0.6-0.6v-1.3h1.8v1.9c0,1.2-0.5,1.7-1.7,1.7h-8.4c-1.2,0-1.7-0.5-1.7-1.7L253,42.2
			L253,42.2z"/>
		<path class="st2" d="M268.4,42.2h-1.8v-1.7h8.3c3.3,0,5.6,2.2,5.6,5.5c0,3-1.9,4.8-3.8,5.2v0.1c0,0,0.4,0.2,0.7,0.8l2.8,5.5
			c0.3,0.6,0.7,0.6,1.4,0.6h0.4v1.7h-0.9c-1.6,0-2.1-0.2-2.7-1.5l-2.8-5.6c-0.5-1-0.9-1.2-2-1.2h-3.3v8.2h-1.9V42.2z M274.7,50.1
			c2.3,0,3.8-1.5,3.8-4c0-2.4-1.4-3.9-3.7-3.9h-4.4V50h4.3V50.1z"/>
		<path class="st2" d="M285.2,42.2h-1.8v-1.7h11.1c1.2,0,1.7,0.5,1.7,1.7v1.9h-1.8v-1.3c0-0.4-0.2-0.6-0.6-0.6h-6.6v7.1h7.3V51h-7.3
			v6.6c0,0.4,0.2,0.6,0.6,0.6h6.8c0.4,0,0.6-0.2,0.6-0.6v-1.3h1.8v1.9c0,1.2-0.5,1.7-1.7,1.7h-8.4c-1.2,0-1.7-0.5-1.7-1.7
			L285.2,42.2L285.2,42.2z"/>
	</g>
	<g>
		<path class="st2" d="M54.4,284.8h-1.8V283h8.3c3.5,0,6,2.3,6,5.9c0,3.6-2.6,6-6,6h-4.5v7.7h-1.9v-17.8H54.4z M60.6,293.2
			c2.6,0,4.3-1.6,4.3-4.3c0-2.6-1.7-4.2-4.3-4.2h-4.3v8.4L60.6,293.2L60.6,293.2z"/>
		<path class="st2" d="M78.6,282.7c5.5,0,10,4.4,10,10c0,5.7-4.4,10.2-10,10.2s-10-4.5-10-10.2C68.6,287.1,73,282.7,78.6,282.7z
			 M78.6,301.1c4.4,0,7.9-3.7,7.9-8.4c0-4.6-3.6-8.2-7.9-8.2c-4.4,0-7.9,3.5-7.9,8.2C70.7,297.4,74.2,301.1,78.6,301.1z"/>
		<path class="st2" d="M92.6,284.8h-1.8V283h8.3c3.5,0,6,2.3,6,5.9c0,3.6-2.6,6-6,6h-4.6v7.7h-1.9V284.8z M98.8,293.2
			c2.6,0,4.3-1.6,4.3-4.3c0-2.6-1.7-4.2-4.3-4.2h-4.3v8.4L98.8,293.2L98.8,293.2z"/>
		<path class="st2" d="M116.7,282.7c5.5,0,10,4.4,10,10c0,5.7-4.4,10.2-10,10.2s-10-4.5-10-10.2
			C106.8,287.1,111.2,282.7,116.7,282.7z M116.7,301.1c4.4,0,7.9-3.7,7.9-8.4c0-4.6-3.6-8.2-7.9-8.2c-4.4,0-7.9,3.5-7.9,8.2
			C108.8,297.4,112.3,301.1,116.7,301.1z"/>
		<path class="st2" d="M130.7,285.4c0-0.4-0.2-0.6-0.6-0.6h-1.2V283h2.1c1.2,0,1.7,0.5,1.7,1.7v15.5c0,0.4,0.2,0.6,0.6,0.6h6.5
			c0.4,0,0.6-0.2,0.6-0.6V299h1.8v1.9c0,1.2-0.5,1.7-1.7,1.7h-8.1c-1.2,0-1.7-0.5-1.7-1.7L130.7,285.4L130.7,285.4z"/>
		<path class="st2" d="M143.1,300.9h0.4c0.5,0,0.8-0.1,1-0.6l6.4-17.2h2.1l6.4,17.2c0.2,0.5,0.5,0.6,1,0.6h0.3v1.7h-0.9
			c-1.4,0-1.8-0.3-2.3-1.6l-1.7-4.6H148l-1.7,4.6c-0.5,1.3-0.9,1.6-2.3,1.6h-0.9V300.9z M155.3,294.7l-2.6-7
			c-0.3-0.9-0.8-2.5-0.8-2.5h-0.1c0,0-0.4,1.6-0.8,2.5l-2.6,7H155.3z"/>
		<path class="st2" d="M161.6,301.3l10.5-14.7c0.7-1,1.4-1.8,1.4-1.8v-0.1c0,0-0.5,0.1-1.4,0.1h-7.8c-0.4,0-0.6,0.2-0.6,0.6v1.3
			h-1.8v-1.9c0-1.2,0.5-1.7,1.7-1.7h12.3v1.4l-10.5,14.7c-0.7,1-1.4,1.8-1.4,1.8v0.1c0,0,0.5-0.1,1.4-0.1h8.4c0.4,0,0.6-0.2,0.6-0.6
			V299h1.8v1.9c0,1.2-0.5,1.7-1.7,1.7h-13v-1.3H161.6z"/>
		<path class="st2" d="M178.4,300.9h1.8v-16.1h-1.8V283h5.6v1.7h-1.9v16.1h1.9v1.7h-5.6V300.9z"/>
		<path class="st2" d="M196.3,282.7c5.5,0,10,4.4,10,10c0,5.7-4.4,10.2-10,10.2s-10-4.5-10-10.2
			C186.3,287.1,190.7,282.7,196.3,282.7z M196.3,301.1c4.4,0,7.9-3.7,7.9-8.4c0-4.6-3.6-8.2-7.9-8.2c-4.4,0-7.9,3.5-7.9,8.2
			C188.3,297.4,191.9,301.1,196.3,301.1z"/>
		<path class="st2" d="M208.4,300.9h1.2c0.4,0,0.6-0.2,0.6-0.6V283h1.8l10,14c0.7,1,1.6,2.6,1.6,2.6h0.1c0,0-0.1-1.5-0.1-2.6v-12.3
			c0-1.2,0.5-1.7,1.7-1.7h2.1v1.7h-1.2c-0.4,0-0.6,0.2-0.6,0.6v17.2h-1.8l-10-14c-0.7-0.9-1.6-2.5-1.6-2.5h-0.1c0,0,0.2,1.5,0.2,2.5
			v12.3c0,1.2-0.5,1.7-1.7,1.7h-2.1L208.4,300.9L208.4,300.9z"/>
		<path class="st2" d="M231.4,284.8h-1.8V283h11.2c1.2,0,1.7,0.5,1.7,1.7v1.9h-1.8v-1.3c0-0.4-0.2-0.6-0.6-0.6h-6.7v7.1h7.4v1.7
			h-7.4v6.7c0,0.4,0.2,0.6,0.6,0.6h6.9c0.4,0,0.6-0.2,0.6-0.6V299h1.8v1.9c0,1.2-0.5,1.7-1.7,1.7h-8.5c-1.2,0-1.7-0.5-1.7-1.7V284.8
			z"/>
	</g>
	<g>
		<path class="st3" d="M18.2,198.1h-1.3v-1.3h5.9c4.4,0,7.3,2.7,7.3,7.3s-2.9,7.3-7.3,7.3h-3.3c-0.9,0-1.3-0.4-1.3-1.3V198.1z
			 M20.1,210.1h2.4c3.6,0,6-2.1,6-6s-2.4-6-6-6h-2.9v11.6C19.6,209.9,19.8,210.1,20.1,210.1z"/>
		<path class="st3" d="M37.2,200.7c3.1,0,5.5,2.3,5.5,5.4c0,3.2-2.5,5.5-5.5,5.5c-3.1,0-5.5-2.4-5.5-5.5
			C31.7,203,34.2,200.7,37.2,200.7z M37.3,210.4c2.2,0,4-1.8,4-4.3c0-2.4-1.8-4.1-4-4.1s-4.1,1.8-4.1,4.1
			C33.2,208.5,35,210.4,37.3,210.4z"/>
		<path class="st3" d="M45.4,202.6c0-0.3-0.2-0.5-0.5-0.5H44v-1.2h1.5c0.9,0,1.3,0.4,1.3,1.2v0.5c0,0.4,0,0.7,0,0.7l0,0
			c0.4-1,1.7-2.6,4.2-2.6c2.6,0,3.5,1.5,3.5,4v5c0,0.3,0.2,0.5,0.5,0.5h0.9v1.2h-1.5c-0.9,0-1.3-0.4-1.3-1.3v-5
			c0-1.6-0.2-3.1-2.3-3.1c-1.8,0-3.3,1.2-3.8,2.9c-0.1,0.4-0.2,0.9-0.2,1.4v5h-1.4L45.4,202.6L45.4,202.6z"/>
		<path class="st3" d="M58,202.6c0-0.3-0.2-0.5-0.5-0.5h-0.9v-1.2h1.5c0.9,0,1.3,0.4,1.3,1.2v0.5c0,0.4,0,0.7,0,0.7l0,0
			c0.4-1,1.7-2.6,4.2-2.6c2.6,0,3.5,1.5,3.5,4v5c0,0.3,0.2,0.5,0.5,0.5h0.9v1.2H67c-0.9,0-1.3-0.4-1.3-1.3v-5c0-1.6-0.2-3.1-2.3-3.1
			c-1.8,0-3.3,1.2-3.8,2.9c-0.1,0.4-0.2,0.9-0.2,1.4v5H58L58,202.6L58,202.6z"/>
		<path class="st3" d="M74.8,200.7c2.9,0,4.4,2.2,4.4,4.8c0,0.2,0,0.7,0,0.7h-8c0,2.6,1.9,4.2,4,4.2c1.9,0,3.1-1.3,3.1-1.3l0.7,1.1
			c0,0-1.5,1.5-3.9,1.5c-3.1,0-5.5-2.2-5.5-5.5C69.7,202.7,72,200.7,74.8,200.7z M77.7,205.1c-0.1-2.2-1.4-3.2-2.9-3.2
			c-1.7,0-3.2,1.1-3.6,3.2H77.7z"/>
		<path class="st3" d="M87.3,208.8c0,0,1.2,1.6,3.2,1.6c1.2,0,2.2-0.6,2.2-1.7c0-2.3-5.9-1.9-5.9-5.2c0-1.9,1.6-2.8,3.7-2.8
			c1.1,0,3.2,0.4,3.2,1.9v0.9h-1.3V203c0-0.8-1.1-1.1-1.8-1.1c-1.5,0-2.3,0.5-2.3,1.5c0,2.3,5.9,1.8,5.9,5.3c0,1.7-1.6,2.9-3.7,2.9
			c-2.7,0-4-1.8-4-1.8L87.3,208.8z"/>
		<path class="st3" d="M96.8,202.6c0-0.3-0.2-0.5-0.5-0.5h-0.9v-1.2h1.5c0.9,0,1.3,0.4,1.3,1.2v5c0,1.6,0.3,3.1,2.3,3.1
			c2.4,0,3.8-2.1,3.8-4.4v-5h1.4v8.8c0,0.3,0.2,0.5,0.5,0.5h0.9v1.2h-1.4c-0.9,0-1.3-0.4-1.3-1.2v-0.5c0-0.4,0-0.7,0-0.7l0,0
			c-0.4,1-1.8,2.6-4.1,2.6c-2.5,0-3.5-1.3-3.5-4L96.8,202.6L96.8,202.6z"/>
		<path class="st3" d="M109.3,198.5c0-0.3-0.2-0.5-0.5-0.5h-0.9v-1.2h1.5c0.9,0,1.3,0.4,1.3,1.3v11.6c0,0.3,0.2,0.5,0.5,0.5h0.9v1.2
			h-1.5c-0.9,0-1.3-0.4-1.3-1.3V198.5z"/>
		<path class="st3" d="M114.4,198.5c0-0.3-0.2-0.5-0.5-0.5H113v-1.2h1.5c0.9,0,1.3,0.4,1.3,1.3v11.6c0,0.3,0.2,0.5,0.5,0.5h0.9v1.2
			h-1.5c-0.9,0-1.3-0.4-1.3-1.3V198.5z"/>
		<path class="st3" d="M124.9,204.9h0.6v-0.1c0-2.2-0.8-2.9-2.7-2.9c-0.5,0-2,0.1-2,0.9v0.7h-1.3v-1c0-1.5,2.5-1.8,3.4-1.8
			c3.3,0,4.1,1.8,4.1,4v5c0,0.3,0.2,0.5,0.5,0.5h0.9v1.2H127c-0.9,0-1.2-0.4-1.2-1.2c0-0.5,0-0.8,0-0.8l0,0c0,0-0.9,2.3-3.5,2.3
			c-1.7,0-3.5-1-3.5-3.1C118.5,205.1,123.1,204.9,124.9,204.9z M122.3,210.4c2,0,3.2-2.1,3.2-3.9V206h-0.6c-1.6,0-4.9,0-4.9,2.4
			C120,209.4,120.7,210.4,122.3,210.4z"/>
		<path class="st3" d="M15.2,222.5c0-0.3-0.2-0.5-0.5-0.5h-0.9v-1.2h1.4c0.9,0,1.2,0.4,1.2,1.1c0,0.4,0,0.7,0,0.7l0,0
			c0,0,0.8-2.1,3.6-2.1c2.8,0,4.5,2.2,4.5,5.5s-2,5.5-4.7,5.5c-2.6,0-3.4-2-3.4-2l0,0c0,0,0,0.4,0,0.9v5H15v-12.9H15.2z M19.9,230.3
			c1.8,0,3.4-1.6,3.4-4.2c0-2.6-1.3-4.2-3.3-4.2c-1.7,0-3.4,1.2-3.4,4.2C16.6,228.2,17.7,230.3,19.9,230.3z"/>
		<path class="st3" d="M31.9,220.6c3.1,0,5.5,2.3,5.5,5.4c0,3.2-2.5,5.5-5.5,5.5c-3.1,0-5.5-2.4-5.5-5.5S28.9,220.6,31.9,220.6z
			 M31.9,230.3c2.2,0,4-1.8,4-4.3c0-2.4-1.8-4.1-4-4.1s-4.1,1.8-4.1,4.1C27.8,228.4,29.7,230.3,31.9,230.3z"/>
		<path class="st3" d="M40.1,222.5c0-0.3-0.2-0.5-0.5-0.5h-0.9v-1.2h1.4c0.9,0,1.2,0.4,1.2,1.1c0,0.4,0,0.7,0,0.7l0,0
			c0,0,0.8-2.1,3.6-2.1c2.8,0,4.5,2.2,4.5,5.5s-2,5.5-4.7,5.5c-2.6,0-3.4-2-3.4-2l0,0c0,0,0,0.4,0,0.9v5h-1.4v-12.9H40.1z
			 M44.7,230.3c1.8,0,3.4-1.6,3.4-4.2c0-2.6-1.3-4.2-3.3-4.2c-1.7,0-3.4,1.2-3.4,4.2C41.4,228.2,42.6,230.3,44.7,230.3z"/>
		<path class="st3" d="M56.8,220.6c3.1,0,5.5,2.3,5.5,5.4c0,3.2-2.5,5.5-5.5,5.5c-3.1,0-5.5-2.4-5.5-5.5S53.7,220.6,56.8,220.6z
			 M56.8,230.3c2.2,0,4-1.8,4-4.3c0-2.4-1.8-4.1-4-4.1s-4.1,1.8-4.1,4.1C52.7,228.4,54.5,230.3,56.8,230.3z"/>
		<path class="st3" d="M64.7,218.4c0-0.3-0.2-0.5-0.5-0.5h-0.9v-1.2h1.5c0.9,0,1.3,0.4,1.3,1.3v11.6c0,0.3,0.2,0.5,0.5,0.5h0.9v1.2
			H66c-0.9,0-1.3-0.4-1.3-1.3V218.4z"/>
		<path class="st3" d="M75.2,224.9h0.6v-0.1c0-2.2-0.8-2.9-2.7-2.9c-0.5,0-2,0.1-2,0.9v0.7h-1.3v-1c0-1.5,2.5-1.8,3.4-1.8
			c3.3,0,4.1,1.8,4.1,4v5c0,0.3,0.2,0.5,0.5,0.5h0.9v1.2h-1.4c-0.9,0-1.2-0.4-1.2-1.2c0-0.5,0-0.8,0-0.8l0,0c0,0-0.9,2.3-3.5,2.3
			c-1.7,0-3.5-1-3.5-3.1C68.8,225,73.4,224.9,75.2,224.9z M72.6,230.3c2,0,3.2-2.1,3.2-3.9V226h-0.6c-1.6,0-4.9,0-4.9,2.4
			C70.3,229.3,71.1,230.3,72.6,230.3z"/>
		<path class="st3" d="M79.8,230.4l5.9-7.3c0.4-0.5,0.8-1,0.8-1l0,0c0,0-0.4,0-1,0h-3.8c-0.3,0-0.5,0.1-0.5,0.5v0.8h-1.3v-1.2
			c0-0.9,0.4-1.3,1.3-1.3h7.2v0.9l-5.9,7.3c-0.4,0.5-0.9,1-0.9,1l0,0c0,0,0.4,0,1.1,0H87c0.3,0,0.5-0.1,0.5-0.5v-0.8h1.3v1.2
			c0,0.9-0.4,1.3-1.3,1.3h-7.7V230.4z"/>
		<path class="st3" d="M91.3,222.5c0-0.3-0.2-0.5-0.5-0.5h-0.9v-1.2h1.5c0.9,0,1.3,0.4,1.3,1.3v7.5c0,0.3,0.2,0.5,0.5,0.5h0.9v1.2
			h-1.6c-0.9,0-1.3-0.4-1.3-1.3L91.3,222.5L91.3,222.5z M91.2,216.7h1.4v1.8h-1.4V216.7z"/>
		<path class="st3" d="M100.9,220.6c3.1,0,5.5,2.3,5.5,5.4c0,3.2-2.5,5.5-5.5,5.5c-3.1,0-5.5-2.4-5.5-5.5S97.9,220.6,100.9,220.6z
			 M100.9,230.3c2.2,0,4-1.8,4-4.3c0-2.4-1.8-4.1-4-4.1s-4.1,1.8-4.1,4.1C96.8,228.4,98.7,230.3,100.9,230.3z"/>
		<path class="st3" d="M109.1,222.5c0-0.3-0.2-0.5-0.5-0.5h-0.9v-1.2h1.5c0.9,0,1.3,0.4,1.3,1.2v0.5c0,0.4,0,0.7,0,0.7l0,0
			c0.4-1,1.7-2.6,4.2-2.6c2.6,0,3.5,1.5,3.5,4v5c0,0.3,0.2,0.5,0.5,0.5h0.9v1.2h-1.5c-0.9,0-1.3-0.4-1.3-1.3v-5
			c0-1.6-0.2-3.1-2.3-3.1c-1.8,0-3.3,1.2-3.8,2.9c-0.1,0.4-0.2,0.9-0.2,1.4v5h-1.4L109.1,222.5L109.1,222.5z"/>
		<path class="st3" d="M125.8,220.6c2.9,0,4.4,2.2,4.4,4.8c0,0.2,0,0.7,0,0.7h-8c0,2.6,1.9,4.2,4,4.2c1.9,0,3.1-1.3,3.1-1.3l0.7,1.1
			c0,0-1.5,1.5-3.9,1.5c-3.1,0-5.5-2.2-5.5-5.5C120.7,222.7,123,220.6,125.8,220.6z M128.8,225c-0.1-2.2-1.4-3.2-2.9-3.2
			c-1.7,0-3.2,1.1-3.6,3.2H128.8z"/>
		<path class="st3" d="M20.4,241.1c1.2,0,3.7,0.5,3.7,2.2v0.9h-1.3v-0.6c0-0.9-1.5-1.3-2.4-1.3c-2.2,0-4,1.7-4,4.2
			c0,2.6,1.9,4.2,4.1,4.2c2.1,0,3.4-1.5,3.4-1.5l0.7,1.1c0,0-1.4,1.7-4.1,1.7c-3.1,0-5.5-2.2-5.5-5.5
			C14.9,243.4,17.3,241.1,20.4,241.1z"/>
		<path class="st3" d="M31.4,241.1c3.1,0,5.5,2.3,5.5,5.4c0,3.2-2.5,5.5-5.5,5.5c-3.1,0-5.5-2.4-5.5-5.5
			C25.9,243.5,28.4,241.1,31.4,241.1z M31.4,250.8c2.2,0,4-1.8,4-4.3c0-2.4-1.8-4.1-4-4.1s-4.1,1.8-4.1,4.1
			C27.3,249,29.2,250.8,31.4,250.8z"/>
		<path class="st3" d="M39.5,243.1c0-0.3-0.2-0.5-0.5-0.5h-0.9v-1.2h1.5c0.9,0,1.3,0.4,1.3,1.2v0.5c0,0.4,0,0.7,0,0.7l0,0
			c0.5-1.4,2.2-2.6,3.8-2.6c1.9,0,2.9,0.9,3.2,2.6l0,0c0.6-1.4,2.1-2.6,3.8-2.6c2.5,0,3.5,1.5,3.5,4v5c0,0.3,0.2,0.5,0.5,0.5h0.9
			v1.2h-1.5c-0.9,0-1.3-0.4-1.3-1.3v-5c0-1.7-0.4-3.1-2.3-3.1c-1.6,0-2.9,1.4-3.3,2.9c-0.1,0.5-0.2,1-0.2,1.5v4.9h-1.4v-6.3
			c0-1.6-0.2-3.1-2.2-3.1c-1.7,0-3,1.5-3.4,3.1c-0.1,0.4-0.2,0.9-0.2,1.4v4.9h-1.3V243.1z"/>
		<path class="st3" d="M58.9,243.1c0-0.3-0.2-0.5-0.5-0.5h-0.9v-1.2h1.4c0.9,0,1.2,0.4,1.2,1.1c0,0.4,0,0.7,0,0.7l0,0
			c0,0,0.8-2.1,3.6-2.1c2.8,0,4.5,2.2,4.5,5.5s-2,5.5-4.7,5.5c-2.6,0-3.4-2-3.4-2l0,0c0,0,0,0.4,0,0.9v5h-1.4v-12.9H58.9z
			 M63.6,250.8c1.8,0,3.4-1.6,3.4-4.2c0-2.6-1.3-4.2-3.3-4.2c-1.7,0-3.4,1.2-3.4,4.2C60.2,248.7,61.4,250.8,63.6,250.8z"/>
		<path class="st3" d="M70.8,238.9c0-0.3-0.2-0.5-0.5-0.5h-0.8v-1.2H71c0.9,0,1.3,0.4,1.3,1.3v11.6c0,0.3,0.2,0.5,0.5,0.5h0.9v1.2
			h-1.5c-0.9,0-1.3-0.4-1.3-1.3v-11.6H70.8z"/>
		<path class="st3" d="M80.1,241.1c2.9,0,4.4,2.2,4.4,4.8c0,0.2,0,0.7,0,0.7h-8c0,2.6,1.9,4.2,4,4.2c1.9,0,3.1-1.3,3.1-1.3l0.7,1.1
			c0,0-1.5,1.5-3.9,1.5c-3.1,0-5.5-2.2-5.5-5.5C75,243.2,77.3,241.1,80.1,241.1z M83.1,245.5c-0.1-2.2-1.4-3.2-2.9-3.2
			c-1.7,0-3.2,1.1-3.6,3.2H83.1z"/>
		<path class="st3" d="M86.9,249.3c0,0,1.2,1.6,3.2,1.6c1.2,0,2.2-0.6,2.2-1.7c0-2.3-5.9-1.9-5.9-5.2c0-1.9,1.6-2.8,3.7-2.8
			c1.1,0,3.2,0.4,3.2,1.9v0.9H92v-0.5c0-0.8-1.1-1.1-1.8-1.1c-1.5,0-2.3,0.5-2.3,1.5c0,2.3,5.9,1.8,5.9,5.3c0,1.7-1.6,2.9-3.7,2.9
			c-2.7,0-4-1.8-4-1.8L86.9,249.3z"/>
		<path class="st3" d="M96.1,249.3c0,0,1.2,1.6,3.2,1.6c1.2,0,2.2-0.6,2.2-1.7c0-2.3-5.9-1.9-5.9-5.2c0-1.9,1.6-2.8,3.7-2.8
			c1.1,0,3.2,0.4,3.2,1.9v0.9h-1.3v-0.5c0-0.8-1.1-1.1-1.8-1.1c-1.5,0-2.3,0.5-2.3,1.5c0,2.3,5.9,1.8,5.9,5.3c0,1.7-1.6,2.9-3.7,2.9
			c-2.7,0-4-1.8-4-1.8L96.1,249.3z"/>
		<path class="st3" d="M105.7,243.1c0-0.3-0.2-0.5-0.5-0.5h-0.9v-1.2h1.5c0.9,0,1.3,0.4,1.3,1.3v7.5c0,0.3,0.2,0.5,0.5,0.5h0.9v1.2
			H107c-0.9,0-1.3-0.4-1.3-1.3V243.1z M105.7,237.2h1.4v1.8h-1.4V237.2z"/>
		<path class="st3" d="M110.1,243.1c-0.1-0.4-0.4-0.5-0.7-0.5h-0.2v-1.2h0.6c1,0,1.3,0.2,1.7,1.1l2.5,6.5c0.2,0.5,0.4,1.2,0.4,1.2
			l0,0c0,0,0.2-0.7,0.4-1.2l2.5-6.5c0.4-0.9,0.7-1.1,1.6-1.1h0.5v1.2h-0.2c-0.4,0-0.6,0.1-0.7,0.5l-3.4,8.7h-1.6L110.1,243.1z"/>
		<path class="st3" d="M126.8,245.4h0.6v-0.1c0-2.2-0.8-2.9-2.7-2.9c-0.5,0-2,0.1-2,0.9v0.7h-1.3v-1c0-1.5,2.5-1.8,3.4-1.8
			c3.3,0,4.1,1.8,4.1,4v5c0,0.3,0.2,0.5,0.5,0.5h0.9v1.2h-1.4c-0.9,0-1.2-0.4-1.2-1.2c0-0.5,0-0.8,0-0.8l0,0c0,0-0.9,2.3-3.5,2.3
			c-1.7,0-3.5-1-3.5-3.1C120.4,245.5,125,245.4,126.8,245.4z M124.2,250.9c2,0,3.2-2.1,3.2-3.9v-0.5h-0.6c-1.6,0-4.9,0-4.9,2.4
			C121.8,249.9,122.6,250.9,124.2,250.9z"/>
	</g>
	<g>
		<path class="st2" d="M177.2,199c0-0.3-0.2-0.4-0.4-0.4H176v-1.2h1.4c0.8,0,1.2,0.3,1.2,1.2v7.7c0,2.3,1.4,3.7,3.7,3.7
			c2.2,0,3.7-1.4,3.7-3.7v-7.7c0-0.8,0.3-1.2,1.2-1.2h1.4v1.2h-0.8c-0.3,0-0.4,0.1-0.4,0.4v7.3c0,3-2,4.9-5,4.9s-5.1-2-5.1-4.9V199
			H177.2z"/>
		<path class="st2" d="M195.1,201c2.9,0,5.2,2.2,5.2,5.1c0,3-2.3,5.2-5.1,5.2c-2.9,0-5.2-2.2-5.2-5.2C190,203.2,192.3,201,195.1,201
			z M195.1,210c2.1,0,3.8-1.7,3.8-4c0-2.2-1.7-3.9-3.8-3.9c-2.1,0-3.8,1.7-3.8,3.9C191.3,208.3,193.1,210,195.1,210z"/>
		<path class="st2" d="M202.8,202.8c0-0.3-0.2-0.4-0.4-0.4h-0.9v-1.1h1.4c0.8,0,1.2,0.3,1.2,1.1v0.4c0,0.4,0,0.7,0,0.7l0,0
			c0.5-1.3,2-2.5,3.5-2.5c1.8,0,2.7,0.8,3,2.4l0,0c0.5-1.3,1.9-2.4,3.6-2.4c2.4,0,3.2,1.4,3.2,3.8v4.6c0,0.3,0.2,0.4,0.4,0.4h0.8
			v1.1h-1.4c-0.8,0-1.2-0.3-1.2-1.2V205c0-1.6-0.3-2.9-2.1-2.9c-1.5,0-2.7,1.3-3.1,2.8c-0.1,0.4-0.2,0.9-0.2,1.4v4.6h-1.1V205
			c0-1.5-0.2-2.9-2.1-2.9c-1.6,0-2.8,1.4-3.2,2.9c-0.1,0.4-0.2,0.9-0.2,1.3v4.6h-1.3v-8.1H202.8z"/>
		<path class="st2" d="M220.9,202.8c0-0.3-0.2-0.4-0.4-0.4h-0.8v-1.1h1.4c0.8,0,1.2,0.3,1.2,1.2v7c0,0.3,0.2,0.4,0.4,0.4h0.8v1.1
			h-1.4c-0.8,0-1.2-0.3-1.2-1.2V202.8z M220.9,197.3h1.3v1.7h-1.3V197.3z"/>
		<path class="st2" d="M225.7,202.8c0-0.3-0.2-0.4-0.4-0.4h-0.8v-1.1h1.4c0.8,0,1.2,0.3,1.2,1.1v0.4c0,0.4,0,0.7,0,0.7l0,0
			c0.3-0.9,1.6-2.5,3.9-2.5c2.4,0,3.3,1.4,3.3,3.8v4.6c0,0.3,0.2,0.4,0.4,0.4h0.8v1.1h-1.4c-0.8,0-1.2-0.3-1.2-1.2V205
			c0-1.5-0.2-2.9-2.1-2.9c-1.7,0-3.1,1.1-3.6,2.8c-0.1,0.4-0.2,0.9-0.2,1.3v4.7h-1.3L225.7,202.8L225.7,202.8z"/>
		<path class="st2" d="M237.6,202.8c0-0.3-0.2-0.4-0.4-0.4h-0.8v-1.1h1.4c0.8,0,1.2,0.3,1.2,1.2v7c0,0.3,0.2,0.4,0.4,0.4h0.8v1.1
			h-1.4c-0.8,0-1.2-0.3-1.2-1.2V202.8z M237.6,197.3h1.3v1.7h-1.3V197.3z"/>
		<path class="st2" d="M247.3,208.6c0,0,1.1,1.5,3,1.5c1.1,0,2.1-0.5,2.1-1.6c0-2.1-5.5-1.7-5.5-4.9c0-1.8,1.5-2.6,3.5-2.6
			c1,0,3,0.4,3,1.8v0.8h-1.2v-0.5c0-0.7-1-1-1.7-1c-1.4,0-2.2,0.5-2.2,1.4c0,2.2,5.5,1.7,5.5,4.9c0,1.6-1.5,2.7-3.4,2.7
			c-2.5,0-3.7-1.7-3.7-1.7L247.3,208.6z"/>
		<path class="st2" d="M256.2,202.8c0-0.3-0.2-0.4-0.4-0.4H255v-1.1h1.4c0.8,0,1.2,0.3,1.2,1.1v4.7c0,1.5,0.3,2.9,2.1,2.9
			c2.2,0,3.6-2,3.6-4.1v-4.7h1.3v8.2c0,0.3,0.2,0.4,0.4,0.4h0.8v1.1h-1.3c-0.8,0-1.2-0.3-1.2-1.1v-0.4c0-0.4,0-0.7,0-0.7l0,0
			c-0.4,1-1.7,2.5-3.8,2.5c-2.3,0-3.3-1.2-3.3-3.8V202.8z"/>
		<path class="st2" d="M267.9,198.9c0-0.3-0.2-0.4-0.4-0.4h-0.8v-1.1h1.4c0.8,0,1.2,0.3,1.2,1.2v10.9c0,0.3,0.2,0.4,0.4,0.4h0.8v1.1
			h-1.4c-0.8,0-1.2-0.3-1.2-1.2V198.9z"/>
		<path class="st2" d="M272.7,198.9c0-0.3-0.2-0.4-0.4-0.4h-0.8v-1.1h1.4c0.8,0,1.2,0.3,1.2,1.2v10.9c0,0.3,0.2,0.4,0.4,0.4h0.8v1.1
			h-1.4c-0.8,0-1.2-0.3-1.2-1.2V198.9z"/>
		<path class="st2" d="M282.6,205h0.5v-0.1c0-2-0.7-2.8-2.5-2.8c-0.5,0-1.9,0.1-1.9,0.9v0.6h-1.3v-0.9c0-1.4,2.3-1.7,3.2-1.7
			c3.1,0,3.8,1.7,3.8,3.7v4.7c0,0.3,0.2,0.4,0.4,0.4h0.8v1.1h-1.3c-0.8,0-1.2-0.4-1.2-1.2c0-0.4,0-0.7,0-0.7l0,0
			c0,0-0.8,2.1-3.2,2.1c-1.6,0-3.3-1-3.3-2.9C276.6,205.1,280.9,205,282.6,205z M280.1,210.1c1.9,0,3-1.9,3-3.6V206h-0.6
			c-1.5,0-4.6,0-4.6,2.2C277.9,209.2,278.6,210.1,280.1,210.1z"/>
		<path class="st2" d="M179.8,223.5c0-0.3-0.2-0.4-0.4-0.4h-0.8V222h1.3c0.8,0,1.2,0.3,1.2,1c0,0.4,0,0.7,0,0.7l0,0
			c0,0,0.8-1.9,3.4-1.9s4.3,2.1,4.3,5.1c0,3.1-1.8,5.1-4.4,5.1c-2.4,0-3.2-1.8-3.2-1.8l0,0c0,0,0,0.3,0,0.9v4.6h-1.3v-12.2H179.8z
			 M184.2,230.7c1.7,0,3.1-1.5,3.1-3.9s-1.3-3.9-3.1-3.9c-1.6,0-3.2,1.2-3.2,3.9C181.1,228.8,182.2,230.7,184.2,230.7z"/>
		<path class="st2" d="M195.5,221.7c2.9,0,5.2,2.2,5.2,5.1c0,3-2.3,5.2-5.1,5.2c-2.9,0-5.2-2.2-5.2-5.2
			C190.3,223.8,192.6,221.7,195.5,221.7z M195.5,230.7c2.1,0,3.8-1.7,3.8-4c0-2.2-1.7-3.9-3.8-3.9c-2.1,0-3.8,1.7-3.8,3.9
			C191.7,229,193.4,230.7,195.5,230.7z"/>
		<path class="st2" d="M203.1,223.5c0-0.3-0.2-0.4-0.4-0.4h-0.8V222h1.3c0.8,0,1.2,0.3,1.2,1c0,0.4,0,0.7,0,0.7l0,0
			c0,0,0.8-1.9,3.4-1.9s4.3,2.1,4.3,5.1c0,3.1-1.8,5.1-4.4,5.1c-2.4,0-3.2-1.8-3.2-1.8l0,0c0,0,0,0.3,0,0.9v4.6h-1.3v-12.2H203.1z
			 M207.5,230.7c1.7,0,3.1-1.5,3.1-3.9s-1.3-3.9-3.1-3.9c-1.6,0-3.2,1.2-3.2,3.9C204.4,228.8,205.5,230.7,207.5,230.7z"/>
		<path class="st2" d="M218.7,221.7c2.9,0,5.2,2.2,5.2,5.1c0,3-2.3,5.2-5.1,5.2c-2.9,0-5.2-2.2-5.2-5.2
			C213.6,223.8,215.9,221.7,218.7,221.7z M218.8,230.7c2.1,0,3.8-1.7,3.8-4c0-2.2-1.7-3.9-3.8-3.9s-3.8,1.7-3.8,3.9
			C215,229,216.7,230.7,218.8,230.7z"/>
		<path class="st2" d="M226.2,219.6c0-0.3-0.2-0.4-0.4-0.4H225V218h1.4c0.8,0,1.2,0.3,1.2,1.2v10.9c0,0.3,0.2,0.4,0.4,0.4h0.8v1.1
			h-1.4c-0.8,0-1.2-0.3-1.2-1.2V219.6z"/>
		<path class="st2" d="M236,225.7h0.5v-0.1c0-2-0.7-2.8-2.5-2.8c-0.5,0-1.9,0.1-1.9,0.9v0.6h-1.3v-0.9c0-1.4,2.3-1.7,3.2-1.7
			c3.1,0,3.8,1.7,3.8,3.7v4.7c0,0.3,0.2,0.4,0.4,0.4h0.8v1.1h-1.3c-0.8,0-1.2-0.4-1.2-1.2c0-0.4,0-0.7,0-0.7l0,0
			c0,0-0.8,2.1-3.2,2.1c-1.6,0-3.3-1-3.3-2.9C230.1,225.8,234.3,225.7,236,225.7z M233.6,230.8c1.9,0,3-1.9,3-3.6v-0.4H236
			c-1.5,0-4.6,0-4.6,2.2C231.4,229.9,232.1,230.8,233.6,230.8z"/>
		<path class="st2" d="M240.3,230.8l5.5-6.9c0.4-0.5,0.8-0.9,0.8-0.9l0,0c0,0-0.3,0-1,0H242c-0.3,0-0.4,0.1-0.4,0.4v0.8h-1.2V223
			c0-0.8,0.3-1.2,1.2-1.2h6.8v0.9l-5.5,6.8c-0.4,0.5-0.8,0.9-0.8,0.9l0,0c0,0,0.3,0,1,0h4c0.3,0,0.4-0.1,0.4-0.4v-0.8h1.2v1.2
			c0,0.8-0.3,1.2-1.2,1.2h-7.2V230.8z"/>
		<path class="st2" d="M251,223.5c0-0.3-0.2-0.4-0.4-0.4h-0.8V222h1.4c0.8,0,1.2,0.3,1.2,1.2v7c0,0.3,0.2,0.4,0.4,0.4h0.8v1.1h-1.4
			c-0.8,0-1.2-0.3-1.2-1.2V223.5z M251,218h1.3v1.7H251V218z"/>
		<path class="st2" d="M260.1,221.7c2.9,0,5.2,2.2,5.2,5.1c0,3-2.3,5.2-5.1,5.2c-2.9,0-5.2-2.2-5.2-5.2
			C254.9,223.8,257.2,221.7,260.1,221.7z M260.1,230.7c2.1,0,3.8-1.7,3.8-4c0-2.2-1.7-3.9-3.8-3.9s-3.8,1.7-3.8,3.9
			C256.3,229,258,230.7,260.1,230.7z"/>
		<path class="st2" d="M267.7,223.5c0-0.3-0.2-0.4-0.4-0.4h-0.8V222h1.4c0.8,0,1.2,0.3,1.2,1.1v0.4c0,0.4,0,0.7,0,0.7l0,0
			c0.3-0.9,1.6-2.5,3.9-2.5c2.4,0,3.3,1.4,3.3,3.8v4.6c0,0.3,0.2,0.4,0.4,0.4h0.8v1.1h-1.4c-0.8,0-1.2-0.3-1.2-1.2v-4.7
			c0-1.5-0.2-2.9-2.1-2.9c-1.7,0-3.1,1.1-3.6,2.8c-0.1,0.4-0.2,0.9-0.2,1.3v4.7h-1.3L267.7,223.5L267.7,223.5z"/>
		<path class="st2" d="M283.4,221.7c2.7,0,4.1,2.1,4.1,4.5c0,0.2,0,0.7,0,0.7H280c0,2.5,1.8,3.9,3.8,3.9c1.8,0,2.9-1.2,2.9-1.2
			l0.6,1c0,0-1.4,1.4-3.6,1.4c-2.9,0-5.1-2.1-5.1-5.1C278.6,223.6,280.8,221.7,283.4,221.7z M286.1,225.8c-0.1-2-1.3-3-2.8-3
			c-1.6,0-3,1-3.4,3H286.1z"/>
		<path class="st2" d="M182.1,241.4c1.1,0,3.5,0.5,3.5,2.1v0.9h-1.2v-0.6c0-0.8-1.4-1.2-2.2-1.2c-2.1,0-3.8,1.6-3.8,3.9
			c0,2.4,1.8,3.9,3.8,3.9s3.1-1.4,3.1-1.4l0.6,1c0,0-1.3,1.6-3.8,1.6c-2.9,0-5.1-2.1-5.1-5.1C177,243.5,179.2,241.4,182.1,241.4z"/>
		<path class="st2" d="M192.4,241.4c2.9,0,5.2,2.2,5.2,5.1c0,3-2.3,5.2-5.1,5.2c-2.9,0-5.2-2.2-5.2-5.2
			C187.2,243.5,189.5,241.4,192.4,241.4z M192.4,250.4c2.1,0,3.8-1.7,3.8-4c0-2.2-1.7-3.9-3.8-3.9c-2.1,0-3.8,1.7-3.8,3.9
			C188.6,248.7,190.3,250.4,192.4,250.4z"/>
		<path class="st2" d="M200,243.2c0-0.3-0.2-0.4-0.4-0.4h-0.8v-1.1h1.4c0.8,0,1.2,0.3,1.2,1.1v0.4c0,0.4,0,0.7,0,0.7l0,0
			c0.5-1.3,2-2.5,3.5-2.5c1.8,0,2.7,0.8,3,2.4l0,0c0.5-1.3,1.9-2.4,3.6-2.4c2.4,0,3.2,1.4,3.2,3.8v4.6c0,0.3,0.2,0.4,0.4,0.4h0.8
			v1.1h-1.4c-0.8,0-1.2-0.3-1.2-1.2v-4.7c0-1.6-0.3-2.9-2.1-2.9c-1.5,0-2.7,1.3-3.1,2.8c-0.1,0.4-0.2,0.9-0.2,1.4v4.6h-1.3v-5.9
			c0-1.5-0.2-2.9-2.1-2.9c-1.6,0-2.8,1.4-3.2,2.9c-0.1,0.4-0.2,0.9-0.2,1.3v4.6h-1.3v-8.1H200z"/>
		<path class="st2" d="M218.1,243.2c0-0.3-0.2-0.4-0.4-0.4h-0.8v-1.1h1.3c0.8,0,1.2,0.3,1.2,1c0,0.4,0,0.7,0,0.7l0,0
			c0,0,0.8-1.9,3.4-1.9c2.6,0,4.3,2.1,4.3,5.1c0,3.1-1.8,5.1-4.4,5.1c-2.4,0-3.2-1.8-3.2-1.8l0,0c0,0,0,0.3,0,0.9v4.6h-1.3
			L218.1,243.2L218.1,243.2z M222.5,250.4c1.7,0,3.1-1.5,3.1-3.9s-1.3-3.9-3.1-3.9c-1.6,0-3.2,1.2-3.2,3.9
			C219.4,248.5,220.4,250.4,222.5,250.4z"/>
		<path class="st2" d="M229.3,239.3c0-0.3-0.2-0.4-0.4-0.4h-0.8v-1.1h1.4c0.8,0,1.2,0.3,1.2,1.2v10.9c0,0.3,0.2,0.4,0.4,0.4h0.8v1.1
			h-1.4c-0.8,0-1.2-0.3-1.2-1.2V239.3z"/>
		<path class="st2" d="M238,241.4c2.7,0,4.1,2.1,4.1,4.5c0,0.2,0,0.7,0,0.7h-7.6c0,2.5,1.8,3.9,3.8,3.9c1.8,0,2.9-1.2,2.9-1.2l0.6,1
			c0,0-1.4,1.4-3.6,1.4c-2.9,0-5.1-2.1-5.1-5.1C233.2,243.3,235.4,241.4,238,241.4z M240.7,245.5c-0.1-2-1.3-3-2.8-3
			c-1.6,0-3,1-3.4,3H240.7z"/>
		<path class="st2" d="M244.4,249c0,0,1.1,1.5,3,1.5c1.1,0,2.1-0.5,2.1-1.6c0-2.1-5.5-1.7-5.5-4.9c0-1.8,1.5-2.6,3.5-2.6
			c1,0,3,0.4,3,1.8v0.8h-1.2v-0.5c0-0.7-1-1-1.7-1c-1.4,0-2.2,0.5-2.2,1.4c0,2.2,5.5,1.7,5.5,4.9c0,1.6-1.5,2.7-3.4,2.7
			c-2.5,0-3.7-1.7-3.7-1.7L244.4,249z"/>
		<path class="st2" d="M252.9,249c0,0,1.1,1.5,3,1.5c1.1,0,2.1-0.5,2.1-1.6c0-2.1-5.5-1.7-5.5-4.9c0-1.8,1.5-2.6,3.5-2.6
			c1,0,3,0.4,3,1.8v0.8h-1.2v-0.5c0-0.7-1-1-1.7-1c-1.4,0-2.2,0.5-2.2,1.4c0,2.2,5.5,1.7,5.5,4.9c0,1.6-1.5,2.7-3.4,2.7
			c-2.5,0-3.7-1.7-3.7-1.7L252.9,249z"/>
		<path class="st2" d="M261.9,243.2c0-0.3-0.2-0.4-0.4-0.4h-0.8v-1.1h1.4c0.8,0,1.2,0.3,1.2,1.2v7c0,0.3,0.2,0.4,0.4,0.4h0.8v1.1
			h-1.4c-0.8,0-1.2-0.3-1.2-1.2V243.2z M261.9,237.7h1.3v1.7h-1.3V237.7z"/>
		<path class="st2" d="M266,243.2c-0.1-0.3-0.3-0.4-0.7-0.4h-0.2v-1.1h0.5c0.9,0,1.2,0.2,1.6,1.1l2.4,6.1c0.2,0.5,0.3,1.1,0.3,1.1
			l0,0c0,0,0.2-0.7,0.3-1.1l2.4-6.1c0.3-0.9,0.6-1.1,1.5-1.1h0.5v1.1h-0.1c-0.3,0-0.6,0.1-0.7,0.4l-3.2,8.2h-1.4L266,243.2z"/>
		<path class="st2" d="M281.6,245.3h0.5v-0.1c0-2-0.7-2.8-2.5-2.8c-0.5,0-1.9,0.1-1.9,0.9v0.6h-1.2V243c0-1.4,2.3-1.7,3.2-1.7
			c3.1,0,3.8,1.7,3.8,3.7v4.7c0,0.3,0.2,0.4,0.4,0.4h0.8v1.1h-1.3c-0.8,0-1.2-0.4-1.2-1.2c0-0.4,0-0.7,0-0.7l0,0
			c0,0-0.8,2.1-3.2,2.1c-1.6,0-3.3-1-3.3-2.9C275.7,245.5,279.9,245.3,281.6,245.3z M279.2,250.5c1.9,0,3-1.9,3-3.6v-0.4h-0.6
			c-1.5,0-4.6,0-4.6,2.2C277,249.5,277.7,250.5,279.2,250.5z"/>
	</g>
	<g>
		<path class="st5" d="M50.2,375.2h4.7v-15.5c0-0.6,0-1.2,0-1.2h-0.1c0,0-0.2,0.4-1,1.3l-2.2,2.2l-1.3-1.4l4.8-4.7h2v19.2h4.6v1.9
			H50.3v-1.8H50.2z"/>
		<path class="st5" d="M63.9,366.5c0-6.1,1.8-10.9,7.3-10.9s7.3,4.8,7.3,10.9c0,6.1-1.8,10.9-7.3,10.9S63.9,372.6,63.9,366.5z
			 M76.3,366.5c0-5-1.1-8.9-5.1-8.9s-5.1,3.9-5.1,8.9s1.1,9,5.1,9C75.1,375.5,76.3,371.5,76.3,366.5z"/>
		<path class="st5" d="M82,359.8c0-2.3,1.9-4.2,4.2-4.2c2.3,0,4.2,1.9,4.2,4.2s-1.9,4.2-4.2,4.2C83.9,363.9,82,362.1,82,359.8z
			 M98.3,356h2.1l-16,21.1h-2.2L98.3,356z M88.7,359.8c0-1.3-1.1-2.5-2.5-2.5s-2.4,1.1-2.4,2.5s1,2.5,2.4,2.5S88.7,361.2,88.7,359.8
			z M96.4,369.1c2.3,0,4.2,1.9,4.2,4.2s-1.9,4.1-4.2,4.1s-4.2-1.9-4.2-4.1C92.2,371,94,369.1,96.4,369.1z M96.4,375.7
			c1.4,0,2.5-1.1,2.5-2.5s-1.1-2.5-2.5-2.5s-2.4,1.1-2.4,2.5C94,374.6,95,375.7,96.4,375.7z"/>
	</g>
	<g>
		<path class="st5" d="M207.8,372.9c0,0,1.6,2.5,4.9,2.5c3,0,5.2-2.1,5.2-4.9c0-2.9-2.4-4.9-5.5-4.9c-2.4,0-4,1.2-4,1.2l-1.1-0.5
			l0.9-8.5c0.1-1.3,0.5-1.8,1.8-1.8h6.9c1.3,0,1.8,0.5,1.8,1.8v2.1h-1.9v-1.4c0-0.5-0.2-0.7-0.7-0.7h-5.3c-0.4,0-0.6,0.2-0.7,0.7
			l-0.5,4.8c-0.1,0.8-0.2,1.2-0.2,1.2h0.1c0,0,1.3-0.8,3.2-0.8c4.3,0,7.4,3.1,7.4,6.9c0,3.8-3.1,6.9-7.4,6.9c-4.2,0-6.2-3-6.2-3
			L207.8,372.9z"/>
		<path class="st5" d="M224.6,372.9c0,0,1.6,2.5,4.9,2.5c3,0,5.2-2.1,5.2-4.9c0-2.9-2.4-4.9-5.5-4.9c-2.4,0-4,1.2-4,1.2l-1.1-0.5
			l0.9-8.5c0.1-1.3,0.5-1.8,1.8-1.8h6.9c1.3,0,1.8,0.5,1.8,1.8v2.1h-1.9v-1.4c0-0.5-0.2-0.7-0.7-0.7h-5.3c-0.4,0-0.6,0.2-0.7,0.7
			l-0.5,4.8c-0.1,0.8-0.2,1.2-0.2,1.2h0.1c0,0,1.3-0.8,3.2-0.8c4.3,0,7.4,3.1,7.4,6.9c0,3.8-3.1,6.9-7.4,6.9c-4.2,0-6.2-3-6.2-3
			L224.6,372.9z"/>
		<path class="st5" d="M240.6,359.8c0-2.3,1.9-4.2,4.2-4.2s4.2,1.9,4.2,4.2s-1.9,4.2-4.2,4.2S240.6,362.1,240.6,359.8z M256.8,356
			h2.1l-16,21.1h-2.2L256.8,356z M247.2,359.8c0-1.3-1.1-2.5-2.5-2.5s-2.4,1.1-2.4,2.5s1,2.5,2.4,2.5S247.2,361.2,247.2,359.8z
			 M254.9,369.1c2.3,0,4.2,1.9,4.2,4.2s-1.9,4.1-4.2,4.1s-4.2-1.9-4.2-4.1C250.7,371,252.6,369.1,254.9,369.1z M254.9,375.7
			c1.4,0,2.5-1.1,2.5-2.5s-1.1-2.5-2.5-2.5s-2.4,1.1-2.4,2.5C252.5,374.6,253.5,375.7,254.9,375.7z"/>
	</g>
	<g>
		<path class="st5" d="M48.4,130.8c0-2.2-1.6-4-4.3-4c-2.1,0-3.8,1.1-3.8,2.3v1h-2v-1.6c0-2.7,3.6-3.7,5.8-3.7c4,0,6.4,2.6,6.4,5.9
			c0,7.4-11.2,7.2-11.2,13.1c0,0.4,0.2,0.6,0.7,0.6h8.8c0.4,0,0.7-0.2,0.7-0.7v-1.4h2v2.1c0,1.3-0.5,1.8-1.8,1.8H39.1
			c-1.4,0-1.9-0.6-1.9-2.1C37.2,136.4,48.4,137,48.4,130.8z"/>
		<path class="st5" d="M55.8,142.2c0,0,1.6,2.5,4.9,2.5c3,0,5.2-2.1,5.2-4.9c0-2.9-2.4-4.9-5.5-4.9c-2.4,0-4,1.2-4,1.2l-1.1-0.5
			l0.9-8.5c0.1-1.3,0.5-1.8,1.8-1.8h6.9c1.3,0,1.8,0.5,1.8,1.8v2.1h-1.9v-1.4c0-0.5-0.2-0.7-0.7-0.7h-5.3c-0.4,0-0.6,0.2-0.7,0.7
			l-0.5,4.8c-0.1,0.8-0.2,1.2-0.2,1.2h0.1c0,0,1.3-0.8,3.2-0.8c4.3,0,7.4,3.1,7.4,6.9c0,3.8-3.1,6.9-7.4,6.9c-4.2,0-6.2-3-6.2-3
			L55.8,142.2z"/>
		<path class="st5" d="M74.2,143.8l-2.2,5.4h-1.7l1.7-5.4H74.2z"/>
		<path class="st5" d="M81.2,134.8L81.2,134.8c0-0.1-2.9-1.4-2.9-4.4c0-2.9,2.3-5.5,6.4-5.5c4,0,6.4,2.3,6.4,5.6
			c0,3.2-2.8,5.2-2.8,5.2v0.1c2,1,3.4,2.4,3.4,4.8c0,3.3-3.1,6.1-7.1,6.1c-3.7,0-7.2-2.3-7.2-6.3C77.4,136.7,81.2,134.8,81.2,134.8z
			 M84.6,144.7c2.5,0,4.9-1.7,4.9-4.2c0-2.2-1.8-3.1-4-4c-0.8-0.3-2.2-0.8-2.5-0.8c-0.8,0-3.4,1.9-3.4,4.5
			C79.6,143,82,144.7,84.6,144.7z M86.3,134.8c0.7,0,2.7-2.1,2.7-4.3c0-2.3-1.8-3.7-4.3-3.7c-2.7,0-4.3,1.6-4.3,3.6
			c0,2.2,1.9,3,4,3.8C84.9,134.4,85.9,134.8,86.3,134.8z"/>
		<path class="st5" d="M95,129c0-2.3,1.9-4.2,4.2-4.2c2.3,0,4.2,1.9,4.2,4.2s-1.9,4.2-4.2,4.2C96.8,133.2,95,131.3,95,129z
			 M111.2,125.2h2.1l-16,21.1h-2.2L111.2,125.2z M101.6,129c0-1.3-1.1-2.5-2.5-2.5s-2.4,1.1-2.4,2.5s1,2.5,2.4,2.5
			C100.6,131.5,101.6,130.4,101.6,129z M109.3,138.3c2.3,0,4.2,1.9,4.2,4.2s-1.9,4.1-4.2,4.1s-4.2-1.9-4.2-4.1
			C105.1,140.2,107,138.3,109.3,138.3z M109.3,145c1.4,0,2.5-1.1,2.5-2.5s-1.1-2.5-2.5-2.5s-2.4,1.1-2.4,2.5S107.9,145,109.3,145z"
			/>
	</g>
	<g>
		<path class="st5" d="M206.9,129c0.6-1.1,1.2-2,1.2-2l0,0c0,0-0.5,0.1-1.6,0.1h-7.6c-0.4,0-0.7,0.2-0.7,0.7v1.4h-2V127
			c0-1.3,0.5-1.8,1.8-1.8h12.5v1.4l-10.4,19.6h-2.3L206.9,129z"/>
		<path class="st5" d="M209.4,139.1l10.3-13.9h2.2v13.4h3.4v1.9h-3.4v5.8h-2.1v-5.8h-10.4V139.1z M219.9,130c0-0.9,0.1-2,0.1-2h-0.1
			c0,0-0.5,0.9-1.1,1.6l-5.8,7.7c-0.6,0.8-1.1,1.3-1.1,1.3v0.1c0,0,0.8-0.1,1.7-0.1h6.3L219.9,130L219.9,130z"/>
		<path class="st5" d="M230.1,143.8l-2.2,5.4h-1.7l1.7-5.4H230.1z"/>
		<path class="st5" d="M244.4,130.8c0-2.2-1.6-4-4.3-4c-2.1,0-3.8,1.1-3.8,2.3v1h-2v-1.6c0-2.7,3.6-3.7,5.8-3.7c4,0,6.4,2.6,6.4,5.9
			c0,7.4-11.2,7.2-11.2,13.1c0,0.4,0.2,0.6,0.7,0.6h8.8c0.4,0,0.7-0.2,0.7-0.7v-1.4h2v2.1c0,1.3-0.5,1.8-1.8,1.8h-10.6
			c-1.4,0-1.9-0.6-1.9-2.1C233.2,136.4,244.4,137,244.4,130.8z"/>
		<path class="st5" d="M250.8,129c0-2.3,1.9-4.2,4.2-4.2s4.2,1.9,4.2,4.2s-1.9,4.2-4.2,4.2S250.8,131.3,250.8,129z M267,125.2h2.1
			l-16,21.1h-2.2L267,125.2z M257.4,129c0-1.3-1.1-2.5-2.5-2.5s-2.4,1.1-2.4,2.5s1,2.5,2.4,2.5S257.4,130.4,257.4,129z M265.1,138.3
			c2.3,0,4.2,1.9,4.2,4.2s-1.9,4.1-4.2,4.1s-4.2-1.9-4.2-4.1C260.9,140.2,262.8,138.3,265.1,138.3z M265.1,145
			c1.4,0,2.5-1.1,2.5-2.5s-1.1-2.5-2.5-2.5s-2.4,1.1-2.4,2.5C262.7,143.9,263.7,145,265.1,145z"/>
	</g>
	<g>
		<path class="st3" d="M30.1,440.5c0-0.3-0.2-0.5-0.5-0.5h-0.9v-1.3h1.6c0.9,0,1.3,0.4,1.3,1.3v5.4h8.5V440c0-0.9,0.4-1.3,1.3-1.3
			H43v1.3h-0.9c-0.3,0-0.5,0.1-0.5,0.5v13h-1.5v-6.7h-8.5v6.7h-1.5V440.5z"/>
		<path class="st3" d="M50.8,447h0.6v-0.1c0-2.2-0.8-3-2.7-3c-0.5,0-2.1,0.1-2.1,0.9v0.7h-1.4v-1c0-1.5,2.5-1.8,3.4-1.8
			c3.3,0,4.1,1.8,4.1,4v5.1c0,0.3,0.2,0.5,0.5,0.5h0.9v1.2h-1.4c-0.9,0-1.3-0.4-1.3-1.3c0-0.5,0-0.8,0-0.8l0,0c0,0-0.9,2.3-3.5,2.3
			c-1.8,0-3.6-1-3.6-3.1C44.4,447.1,49,447,50.8,447z M48.2,452.5c2,0,3.2-2.1,3.2-3.9v-0.5h-0.6c-1.7,0-5,0-5,2.4
			C45.8,451.5,46.6,452.5,48.2,452.5z"/>
		<path class="st3" d="M62.1,444.6c0-0.3-0.2-0.5-0.5-0.5h-0.9v-1.2h1.5c0.9,0,1.3,0.4,1.3,1.2v0.5c0,0.4,0,0.8,0,0.8l0,0
			c0.5-1.4,2.2-2.7,3.8-2.7c1.9,0,3,0.9,3.3,2.6l0,0c0.6-1.4,2.1-2.6,3.9-2.6c2.6,0,3.5,1.5,3.5,4.1v5c0,0.3,0.2,0.5,0.5,0.5h0.9
			v1.2h-1.5c-0.9,0-1.3-0.4-1.3-1.3v-5.1c0-1.7-0.4-3.1-2.3-3.1c-1.6,0-2.9,1.4-3.3,3c-0.1,0.5-0.2,1-0.2,1.5v5h-1.4v-6.4
			c0-1.6-0.2-3.1-2.2-3.1c-1.7,0-3,1.5-3.4,3.1c-0.1,0.4-0.2,0.9-0.2,1.4v5h-1.4L62.1,444.6L62.1,444.6z"/>
		<path class="st3" d="M85.9,442.7c2.9,0,4.4,2.2,4.4,4.9c0,0.3,0,0.7,0,0.7h-8.1c0,2.7,1.9,4.2,4.1,4.2c1.9,0,3.2-1.3,3.2-1.3
			l0.7,1.1c0,0-1.5,1.5-3.9,1.5c-3.1,0-5.5-2.3-5.5-5.5C80.7,444.8,83.1,442.7,85.9,442.7z M88.8,447.1c-0.1-2.2-1.4-3.2-3-3.2
			c-1.7,0-3.3,1.1-3.6,3.2H88.8z"/>
		<path class="st3" d="M93.2,444.6c0-0.3-0.2-0.5-0.5-0.5h-0.9v-1.2h1.5c0.9,0,1.3,0.4,1.3,1.2v0.5c0,0.4,0,0.8,0,0.8l0,0
			c0.4-1,1.7-2.7,4.2-2.7c2.6,0,3.5,1.5,3.5,4.1v5c0,0.3,0.2,0.5,0.5,0.5h0.9v1.2h-1.5c-0.9,0-1.3-0.4-1.3-1.3v-5.1
			c0-1.7-0.3-3.1-2.3-3.1c-1.8,0-3.4,1.2-3.8,3c-0.1,0.4-0.2,0.9-0.2,1.4v5.1h-1.4L93.2,444.6L93.2,444.6z"/>
		<path class="st3" d="M110.5,442.7c3.1,0,5.6,2.3,5.6,5.5s-2.5,5.6-5.6,5.6s-5.6-2.4-5.6-5.6C104.9,445,107.4,442.7,110.5,442.7z
			 M110.5,452.5c2.2,0,4.1-1.8,4.1-4.3c0-2.4-1.8-4.2-4.1-4.2c-2.3,0-4.1,1.8-4.1,4.2C106.4,450.6,108.2,452.5,110.5,452.5z"/>
		<path class="st3" d="M30.7,464.4c2.6,0,3.4,2,3.4,2l0,0c0,0,0-0.4,0-0.8v-3.4c0-0.3-0.2-0.5-0.5-0.5h-0.9v-1.2h1.5
			c0.9,0,1.3,0.4,1.3,1.3v11.8c0,0.3,0.2,0.5,0.5,0.5h0.9v1.2h-1.4c-0.9,0-1.3-0.4-1.3-1.2c0-0.4,0-0.7,0-0.7l0,0
			c0,0-0.9,2.1-3.6,2.1c-2.8,0-4.6-2.3-4.6-5.5C26,466.6,28,464.4,30.7,464.4z M34.2,469.9c0-2.1-1.1-4.2-3.4-4.2
			c-1.9,0-3.4,1.6-3.4,4.2c0,2.6,1.4,4.3,3.3,4.3S34.2,472.9,34.2,469.9z"/>
		<path class="st3" d="M39.4,466.4c0-0.3-0.2-0.5-0.5-0.5H38v-1.2h1.5c0.9,0,1.3,0.4,1.3,1.3v7.6c0,0.3,0.2,0.5,0.5,0.5h0.9v1.2
			h-1.5c-0.9,0-1.3-0.4-1.3-1.3V466.4z M39.3,460.5h1.4v1.8h-1.4V460.5z"/>
		<path class="st3" d="M49.8,472.3c0,0,1.5,1.8,3.9,1.8c1.7,0,3.3-1.3,3.3-3.2c0-2-1.7-3.1-3.6-3.1h-1l-0.3-0.9l3.6-4.4
			c0.4-0.5,0.8-0.8,0.8-0.8l0,0c0,0-0.4,0.1-1.2,0.1h-3.8c-0.3,0-0.5,0.1-0.5,0.5v1h-1.4v-1.5c0-0.9,0.3-1.3,1.2-1.3h7.5v1l-4.3,5.1
			c1.8,0.1,4.5,1.2,4.5,4.3c0,2.5-2.1,4.6-4.9,4.6c-2.9,0-4.7-2.1-4.7-2.1L49.8,472.3z"/>
		<path class="st3" d="M60.7,467.8c0-4.2,1.2-7.6,5.1-7.6c3.8,0,5.1,3.4,5.1,7.6c0,4.3-1.3,7.6-5.1,7.6
			C62,475.5,60.7,472.1,60.7,467.8z M69.4,467.8c0-3.5-0.8-6.2-3.6-6.2c-2.8,0-3.6,2.7-3.6,6.2s0.8,6.3,3.6,6.3
			S69.4,471.4,69.4,467.8z"/>
		<path class="st3" d="M85.1,468.7h0.6v-0.1c0-2.2-0.8-3-2.7-3c-0.5,0-2.1,0.1-2.1,0.9v0.7h-1.4v-1c0-1.5,2.5-1.8,3.4-1.8
			c3.3,0,4.1,1.8,4.1,4v5.1c0,0.3,0.2,0.5,0.5,0.5h0.9v1.2H87c-0.9,0-1.3-0.4-1.3-1.3c0-0.5,0-0.8,0-0.8l0,0c0,0-0.9,2.3-3.5,2.3
			c-1.8,0-3.6-1-3.6-3.1C78.6,468.8,83.3,468.7,85.1,468.7z M82.5,474.3c2,0,3.2-2.1,3.2-3.9v-0.5h-0.6c-1.7,0-5,0-5,2.4
			C80.1,473.2,80.9,474.3,82.5,474.3z"/>
		<path class="st3" d="M90.7,466.4c0-0.3-0.2-0.5-0.5-0.5h-0.9v-1.2h1.5c0.9,0,1.3,0.4,1.3,1.2v0.5c0,0.4,0,0.8,0,0.8l0,0
			c0.4-1,1.7-2.7,4.2-2.7c2.6,0,3.5,1.5,3.5,4.1v5c0,0.3,0.2,0.5,0.5,0.5h0.9v1.2h-1.5c-0.9,0-1.3-0.4-1.3-1.3v-5.1
			c0-1.7-0.3-3.1-2.3-3.1c-1.8,0-3.4,1.2-3.8,3c-0.1,0.4-0.2,0.9-0.2,1.4v5.1h-1.4L90.7,466.4L90.7,466.4z"/>
		<path class="st3" d="M103.5,466.4c0-0.3-0.2-0.5-0.5-0.5h-0.9v-1.2h1.5c0.9,0,1.3,0.4,1.3,1.2v0.5c0,0.4,0,0.8,0,0.8l0,0
			c0.4-1,1.7-2.7,4.2-2.7c2.6,0,3.5,1.5,3.5,4.1v5c0,0.3,0.2,0.5,0.5,0.5h0.9v1.2h-1.5c-0.9,0-1.3-0.4-1.3-1.3v-5.1
			c0-1.7-0.3-3.1-2.3-3.1c-1.8,0-3.4,1.2-3.8,3c-0.1,0.4-0.2,0.9-0.2,1.4v5.1h-1.4V466.4z"/>
		<path class="st3" d="M116.3,466.4c0-0.3-0.2-0.5-0.5-0.5h-0.9v-1.2h1.5c0.9,0,1.3,0.4,1.3,1.3v7.6c0,0.3,0.2,0.5,0.5,0.5h0.9v1.2
			h-1.5c-0.9,0-1.3-0.4-1.3-1.3V466.4z M116.3,460.5h1.4v1.8h-1.4V460.5z"/>
	</g>
	<g>
		<path class="st2" d="M189.5,440.4c0-0.3-0.2-0.4-0.4-0.4h-0.9v-1.2h1.5c0.9,0,1.2,0.4,1.2,1.2v5.2h8.1V440c0-0.9,0.4-1.2,1.2-1.2
			h1.5v1.2h-0.9c-0.3,0-0.4,0.1-0.4,0.4v12.5H199v-6.5h-8.1v6.5h-1.4V440.4z"/>
		<path class="st2" d="M209.4,446.7h0.6v-0.1c0-2.1-0.8-2.9-2.6-2.9c-0.5,0-2,0.1-2,0.9v0.6h-1.3v-1c0-1.4,2.4-1.7,3.3-1.7
			c3.2,0,4,1.7,4,3.9v4.9c0,0.3,0.2,0.4,0.4,0.4h0.8v1.2h-1.4c-0.9,0-1.2-0.4-1.2-1.2c0-0.4,0-0.7,0-0.7l0,0c0,0-0.8,2.2-3.4,2.2
			c-1.7,0-3.4-1-3.4-3C203.2,446.8,207.6,446.7,209.4,446.7z M206.8,452c1.9,0,3.1-2,3.1-3.8v-0.5h-0.6c-1.6,0-4.8,0-4.8,2.3
			C204.6,451,205.3,452,206.8,452z"/>
		<path class="st2" d="M220.3,444.4c0-0.3-0.2-0.4-0.4-0.4h-0.8v-1.2h1.4c0.8,0,1.2,0.4,1.2,1.1v0.5c0,0.4,0,0.7,0,0.7l0,0
			c0.5-1.4,2.1-2.6,3.7-2.6c1.9,0,2.8,0.9,3.1,2.5l0,0c0.5-1.4,2-2.5,3.7-2.5c2.5,0,3.4,1.4,3.4,3.9v4.8c0,0.3,0.2,0.4,0.4,0.4h0.8
			v1.2h-1.4c-0.9,0-1.2-0.4-1.2-1.2v-4.9c0-1.7-0.3-3-2.2-3c-1.5,0-2.8,1.4-3.2,2.9c-0.1,0.4-0.2,0.9-0.2,1.5v4.8h-1.4v-6.1
			c0-1.5-0.2-3-2.1-3c-1.7,0-2.9,1.4-3.3,3c-0.1,0.4-0.2,0.9-0.2,1.3v4.8h-1.4v-8.5H220.3z"/>
		<path class="st2" d="M243.1,442.5c2.8,0,4.3,2.2,4.3,4.7c0,0.2,0,0.7,0,0.7h-7.9c0,2.6,1.8,4,3.9,4c1.9,0,3-1.2,3-1.2l0.7,1
			c0,0-1.5,1.5-3.8,1.5c-3,0-5.3-2.2-5.3-5.3C238.1,444.5,240.3,442.5,243.1,442.5z M245.9,446.8c-0.1-2.1-1.4-3.1-2.9-3.1
			c-1.7,0-3.1,1.1-3.5,3.1H245.9z"/>
		<path class="st2" d="M250.1,444.4c0-0.3-0.2-0.4-0.4-0.4h-0.8v-1.2h1.4c0.8,0,1.2,0.4,1.2,1.1v0.5c0,0.4,0,0.7,0,0.7l0,0
			c0.4-0.9,1.7-2.6,4-2.6c2.5,0,3.4,1.4,3.4,3.9v4.8c0,0.3,0.2,0.4,0.4,0.4h0.8v1.2h-1.4c-0.9,0-1.2-0.4-1.2-1.2v-4.9
			c0-1.6-0.2-3-2.2-3c-1.7,0-3.2,1.2-3.7,2.9c-0.1,0.4-0.2,0.9-0.2,1.4v4.9H250v-8.5H250.1z"/>
		<path class="st2" d="M266.7,442.5c3,0,5.4,2.3,5.4,5.3c0,3.1-2.4,5.4-5.3,5.4c-3,0-5.4-2.3-5.4-5.4
			C261.4,444.8,263.8,442.5,266.7,442.5z M266.7,451.9c2.2,0,3.9-1.8,3.9-4.1s-1.8-4-3.9-4c-2.2,0-3.9,1.7-3.9,4
			C262.8,450.1,264.5,451.9,266.7,451.9z"/>
		<path class="st2" d="M189.7,463.7c2.5,0,3.3,1.9,3.3,1.9l0,0c0,0,0-0.3,0-0.8v-3.3c0-0.3-0.2-0.4-0.4-0.4h-0.8v-1.2h1.4
			c0.9,0,1.2,0.4,1.2,1.2v11.3c0,0.3,0.2,0.4,0.4,0.4h0.8v1.2h-1.4c-0.8,0-1.2-0.4-1.2-1.1c0-0.4,0-0.6,0-0.6l0,0c0,0-0.8,2-3.5,2
			s-4.4-2.2-4.4-5.3C185.2,465.8,187.1,463.7,189.7,463.7z M193.1,469c0-2.1-1-4.1-3.2-4.1c-1.8,0-3.3,1.5-3.3,4.1
			c0,2.5,1.3,4.1,3.2,4.1C191.5,473.1,193.1,471.9,193.1,469z"/>
		<path class="st2" d="M198,465.6c0-0.3-0.2-0.4-0.4-0.4h-0.8V464h1.4c0.9,0,1.2,0.4,1.2,1.2v7.3c0,0.3,0.2,0.4,0.4,0.4h0.8v1.2
			h-1.4c-0.9,0-1.2-0.4-1.2-1.2V465.6z M198,459.9h1.3v1.7H198V459.9z"/>
		<path class="st2" d="M208.7,471.3c0,0,1.1,1.7,3.3,1.7c2,0,3.5-1.4,3.5-3.3c0-2-1.6-3.3-3.7-3.3c-1.6,0-2.7,0.8-2.7,0.8l-0.7-0.3
			l0.6-5.7c0.1-0.9,0.4-1.2,1.2-1.2h4.7c0.8,0,1.2,0.4,1.2,1.2v1.4h-1.3v-0.9c0-0.3-0.2-0.4-0.4-0.4h-3.6c-0.3,0-0.4,0.1-0.4,0.4
			l-0.4,3.2c-0.1,0.5-0.1,0.8-0.1,0.8l0,0c0,0,0.9-0.5,2.1-0.5c2.9,0,5,2.1,5,4.6s-2.1,4.6-5,4.6c-2.8,0-4.2-2-4.2-2L208.7,471.3z"
			/>
		<path class="st2" d="M219.2,467c0-4.1,1.2-7.3,4.9-7.3s4.9,3.2,4.9,7.3s-1.2,7.3-4.9,7.3S219.2,471.1,219.2,467z M227.5,467
			c0-3.4-0.8-6-3.4-6c-2.7,0-3.4,2.6-3.4,6s0.8,6,3.4,6C226.8,473,227.5,470.4,227.5,467z"/>
		<path class="st2" d="M242.6,467.8h0.6v-0.1c0-2.1-0.8-2.9-2.6-2.9c-0.5,0-2,0.1-2,0.9v0.6h-1.3v-1c0-1.4,2.4-1.7,3.3-1.7
			c3.2,0,4,1.7,4,3.9v4.9c0,0.3,0.2,0.4,0.4,0.4h0.8v1.2h-1.3c-0.9,0-1.2-0.4-1.2-1.2c0-0.4,0-0.7,0-0.7l0,0c0,0-0.8,2.2-3.4,2.2
			c-1.7,0-3.4-1-3.4-3C236.4,468,240.9,467.8,242.6,467.8z M240.1,473.2c1.9,0,3.1-2,3.1-3.8v-0.5h-0.6c-1.6,0-4.8,0-4.8,2.3
			C237.9,472.2,238.6,473.2,240.1,473.2z"/>
		<path class="st2" d="M248,465.6c0-0.3-0.2-0.4-0.4-0.4h-0.8V464h1.4c0.8,0,1.2,0.4,1.2,1.1v0.5c0,0.4,0,0.7,0,0.7l0,0
			c0.4-0.9,1.7-2.6,4-2.6c2.5,0,3.4,1.4,3.4,3.9v4.8c0,0.3,0.2,0.4,0.4,0.4h0.8v1.2h-1.4c-0.9,0-1.2-0.4-1.2-1.2V468
			c0-1.6-0.2-3-2.2-3c-1.7,0-3.2,1.2-3.7,2.9c-0.1,0.4-0.2,0.9-0.2,1.4v4.9h-1.4v-8.6H248z"/>
		<path class="st2" d="M260.3,465.6c0-0.3-0.2-0.4-0.4-0.4h-0.8V464h1.4c0.8,0,1.2,0.4,1.2,1.1v0.5c0,0.4,0,0.7,0,0.7l0,0
			c0.4-0.9,1.7-2.6,4-2.6c2.5,0,3.4,1.4,3.4,3.9v4.8c0,0.3,0.2,0.4,0.4,0.4h0.8v1.2h-1.4c-0.9,0-1.2-0.4-1.2-1.2V468
			c0-1.6-0.2-3-2.2-3c-1.7,0-3.2,1.2-3.7,2.9c-0.1,0.4-0.2,0.9-0.2,1.4v4.9h-1.4v-8.6H260.3z"/>
		<path class="st2" d="M272.6,465.6c0-0.3-0.2-0.4-0.4-0.4h-0.8V464h1.4c0.9,0,1.2,0.4,1.2,1.2v7.3c0,0.3,0.2,0.4,0.4,0.4h0.8v1.2
			h-1.4c-0.9,0-1.2-0.4-1.2-1.2V465.6z M272.6,459.9h1.3v1.7h-1.3V459.9z"/>
	</g>
	<g>
		<path class="st5" d="M434.3,373.6c0,0,2.1,1.9,5.1,1.1c2.7-0.7,4.3-3.2,3.6-5.8s-3.4-3.9-6.2-3.2c-2.2,0.6-3.4,2.1-3.4,2.1
			l-1.1-0.1l-1.2-7.9c-0.2-1.2,0-1.8,1.2-2.1l6.3-1.7c1.1-0.3,1.8,0.1,2.1,1.2l0.5,1.9l-1.8,0.5l-0.3-1.3c-0.1-0.4-0.4-0.5-0.8-0.4
			l-4.9,1.3c-0.4,0.1-0.5,0.3-0.4,0.8l0.7,4.5c0.1,0.7,0.1,1.1,0.1,1.1h0.1c0,0,1-1,2.7-1.5c3.9-1,7.5,1,8.4,4.5
			c0.9,3.4-1.2,7-5.1,8.1c-3.8,1-6.4-1.2-6.4-1.2L434.3,373.6z"/>
		<path class="st5" d="M447,363.9c-1.5-5.5-1-10.3,4-11.7c5-1.3,7.8,2.6,9.3,8.1c1.5,5.6,1,10.4-4,11.7S448.5,369.5,447,363.9z
			 M458.3,360.9c-1.2-4.6-3.2-7.9-6.8-6.9s-3.7,4.8-2.5,9.4c1.2,4.6,3.2,7.9,6.9,6.9S459.5,365.5,458.3,360.9z"/>
		<path class="st5" d="M461.9,353.4c-0.6-2.1,0.7-4.3,2.8-4.8s4.3,0.7,4.9,2.8c0.6,2.1-0.7,4.3-2.8,4.8
			C464.6,356.7,462.4,355.5,461.9,353.4z M475.8,346l1.9-0.5l-9.5,23.1l-2,0.5L475.8,346z M467.9,351.8c-0.3-1.2-1.6-2-2.8-1.7
			c-1.3,0.3-1.9,1.6-1.6,2.9c0.3,1.3,1.6,2,2.8,1.7S468.3,353,467.9,351.8z M477.2,358.4c2.1-0.6,4.3,0.7,4.9,2.8
			c0.6,2.1-0.7,4.2-2.8,4.8s-4.3-0.7-4.8-2.7C473.8,361.1,475.1,358.9,477.2,358.4z M478.8,364.4c1.3-0.3,2-1.6,1.6-2.9
			c-0.3-1.2-1.6-2-2.8-1.7c-1.3,0.3-1.9,1.6-1.6,2.9C476.4,364,477.6,364.8,478.8,364.4z"/>
		<path class="st5" d="M418.7,394l-1.3,0.4l-0.3-1.3l5.7-1.5c4.3-1.1,7.9,0.7,9.1,5.2c1.2,4.5-0.9,7.9-5.2,9l-3.2,0.8
			c-0.9,0.2-1.3,0-1.6-0.9L418.7,394z M423.7,405.3l2.4-0.6c3.5-0.9,5.3-3.6,4.2-7.4c-1-3.8-3.9-5.2-7.4-4.3l-2.8,0.8l3,11.3
			C423.2,405.2,423.4,405.3,423.7,405.3z"/>
		<path class="st5" d="M438,391.6c3-0.8,6,0.8,6.8,3.8c0.8,3.1-1,6-3.9,6.8c-3,0.8-6-0.9-6.8-3.9C433.2,395.3,435,392.4,438,391.6z
			 M440.5,401c2.2-0.6,3.5-2.8,2.8-5.2c-0.6-2.3-2.9-3.6-5-3c-2.2,0.6-3.5,2.8-2.9,5.1C436.1,400.3,438.3,401.6,440.5,401z"/>
		<path class="st5" d="M446.4,391.4c-0.1-0.3-0.3-0.4-0.6-0.3l-0.9,0.2l-0.3-1.2l1.4-0.4c0.9-0.2,1.3,0,1.5,0.8l0.1,0.5
			c0.1,0.4,0.2,0.7,0.2,0.7l0,0c0.1-1,1-3,3.4-3.7c2.5-0.7,3.8,0.5,4.5,3l1.3,4.8c0.1,0.3,0.3,0.4,0.6,0.3l0.9-0.2l0.3,1.2l-1.4,0.4
			c-0.9,0.2-1.3,0-1.6-0.9l-1.3-4.9c-0.4-1.6-1.1-3-3-2.4c-1.7,0.5-2.9,2.1-2.9,3.9c0,0.5,0.1,0.9,0.2,1.4l1.3,4.9l-1.4,0.4
			L446.4,391.4z"/>
		<path class="st5" d="M458.8,388.1c-0.1-0.3-0.3-0.4-0.6-0.3l-0.9,0.2l-0.3-1.2l1.4-0.4c0.9-0.2,1.3,0,1.5,0.8l0.1,0.5
			c0.1,0.4,0.2,0.7,0.2,0.7l0,0c0.1-1,1-3,3.4-3.7c2.5-0.7,3.8,0.5,4.5,3l1.3,4.8c0.1,0.3,0.3,0.4,0.6,0.3l0.9-0.2l0.3,1.2l-1.4,0.4
			c-0.9,0.2-1.3,0-1.6-0.9l-1.3-4.9c-0.4-1.6-1.1-3-3-2.4c-1.7,0.5-2.9,2.1-2.9,3.9c0,0.5,0.1,0.9,0.2,1.4l1.3,4.9l-1.4,0.4
			L458.8,388.1z"/>
		<path class="st5" d="M474.7,381.8c2.8-0.8,4.9,1,5.5,3.6c0.1,0.2,0.1,0.7,0.1,0.7l-7.8,2.1c0.7,2.6,2.9,3.6,5,3
			c1.9-0.5,2.7-2.1,2.7-2.1l0.9,0.9c0,0-1.1,1.9-3.4,2.5c-3,0.8-5.9-0.8-6.8-3.9C470.2,385.1,471.9,382.5,474.7,381.8z M478.7,385.3
			c-0.6-2.1-2.2-2.8-3.7-2.4c-1.7,0.4-2.9,1.9-2.7,4.1L478.7,385.3z"/>
		<path class="st5" d="M487.7,379.8l-1.3,0.4l-0.3-1.2l1.4-0.4l-0.8-2.8l1.4-0.4l0.8,2.8l2.6-0.7l0.3,1.2l-2.6,0.7l1.4,5.2
			c0.6,2.4,2.2,2.3,3,2.1c0.3-0.1,0.5-0.2,0.5-0.2l0.3,1.2c0,0-0.2,0.1-0.6,0.2c-1.2,0.3-3.6,0.6-4.6-2.8L487.7,379.8z"/>
		<path class="st5" d="M494.5,378.5c-0.1-0.3-0.3-0.4-0.6-0.3l-0.9,0.2l-0.3-1.2l1.4-0.4c0.9-0.2,1.3,0,1.5,0.8l0.2,0.7
			c0.1,0.4,0.2,0.8,0.2,0.8l0,0c0.1-1.7,0.9-3.1,2.5-3.6c0.3-0.1,0.6-0.1,0.6-0.1l0.4,1.4c0,0-0.3,0-0.5,0.1
			c-1.4,0.4-2.2,1.8-2.3,3.4c0,0.7,0.1,1.4,0.2,2.1l1.1,4.3l-1.4,0.4L494.5,378.5z"/>
		<path class="st5" d="M507.1,377.6l0.6-0.2v-0.1c-0.6-2.1-1.5-2.7-3.4-2.2c-0.5,0.1-1.9,0.7-1.7,1.4l0.2,0.6l-1.3,0.4l-0.3-1
			c-0.4-1.4,2-2.4,2.9-2.6c3.2-0.9,4.5,0.7,5,2.8l1.3,4.9c0.1,0.3,0.3,0.4,0.6,0.3l0.9-0.2l0.3,1.2l-1.4,0.4
			c-0.9,0.2-1.3-0.1-1.5-0.9c-0.1-0.4-0.2-0.8-0.2-0.8l0,0c0,0-0.2,2.4-2.8,3.1c-1.7,0.5-3.7-0.1-4.3-2.1
			C500.8,379.4,505.3,378,507.1,377.6z M505.9,383.6c1.9-0.5,2.6-2.9,2.1-4.6l-0.1-0.5l-0.6,0.2c-1.6,0.4-4.8,1.3-4.2,3.6
			C503.4,383.2,504.4,384,505.9,383.6z"/>
		<path class="st5" d="M428.2,417.6c-0.1-0.3-0.3-0.4-0.6-0.3l-0.9,0.2l-0.3-1.2l1.4-0.4c0.9-0.2,1.3,0,1.6,0.9l2,7.3
			c0.1,0.3,0.3,0.4,0.6,0.3l0.9-0.2l0.3,1.2l-1.4,0.4c-0.9,0.2-1.3,0-1.6-0.9L428.2,417.6z M426.7,412l1.3-0.4l0.5,1.7l-1.3,0.4
			L426.7,412z"/>
		<path class="st5" d="M441.9,412c2.5-0.7,3.8,1,3.8,1l0,0c0,0-0.1-0.3-0.2-0.8l-0.9-3.3c-0.1-0.3-0.3-0.4-0.6-0.3l-0.9,0.2
			l-0.3-1.2l1.4-0.4c0.9-0.2,1.3,0,1.6,0.9l3,11.4c0.1,0.3,0.3,0.4,0.6,0.3l0.9-0.2l0.3,1.2l-1.4,0.4c-0.9,0.2-1.3-0.1-1.5-0.8
			c-0.1-0.4-0.1-0.7-0.1-0.7l0,0c0,0-0.3,2.2-3,3c-2.7,0.7-5-1-5.9-4.2C437.9,415.3,439.2,412.7,441.9,412z M446.7,416.4
			c-0.6-2.1-2.1-3.8-4.3-3.2c-1.8,0.5-2.9,2.4-2.2,5c0.7,2.5,2.4,3.8,4.3,3.3C446.2,420.9,447.5,419.3,446.7,416.4z"/>
		<path class="st5" d="M450.7,411.6c-0.1-0.3-0.3-0.4-0.6-0.3l-0.9,0.2l-0.3-1.2l1.4-0.4c0.9-0.2,1.3,0,1.6,0.9l2,7.3
			c0.1,0.3,0.3,0.4,0.6,0.3l0.9-0.2l0.3,1.2l-1.4,0.4c-0.9,0.2-1.3,0-1.6-0.9L450.7,411.6z M449.2,405.9l1.3-0.4l0.5,1.7l-1.3,0.4
			L449.2,405.9z"/>
		<path class="st5" d="M455.7,410.3c-0.1-0.3-0.3-0.4-0.6-0.3l-0.9,0.2l-0.3-1.2l1.4-0.4c0.9-0.2,1.3,0,1.5,0.8l0.2,0.7
			c0.1,0.4,0.2,0.8,0.2,0.8l0,0c0.1-1.7,0.9-3.1,2.5-3.6c0.3-0.1,0.6-0.1,0.6-0.1l0.4,1.4c0,0-0.3,0-0.5,0.1
			c-1.4,0.4-2.2,1.8-2.3,3.4c0,0.7,0.1,1.4,0.2,2.1l1.1,4.3l-1.4,0.4L455.7,410.3z"/>
		<path class="st5" d="M463.2,408.3c-0.1-0.3-0.3-0.4-0.6-0.3l-0.9,0.2l-0.3-1.2l1.4-0.4c0.9-0.2,1.3,0,1.6,0.9l2,7.3
			c0.1,0.3,0.3,0.4,0.6,0.3l0.9-0.2l0.3,1.2l-1.4,0.4c-0.9,0.2-1.3,0-1.6-0.9L463.2,408.3z M461.6,402.6l1.3-0.4l0.5,1.7l-1.3,0.4
			L461.6,402.6z"/>
		<path class="st5" d="M471.2,404.1c2.7-0.7,3.9,0.8,3.9,0.8l0,0c0,0,0-0.2-0.1-0.4c-0.2-0.7,0-1.2,0.9-1.4l1.4-0.4l0.3,1.2
			l-0.8,0.2c-0.3,0.1-0.4,0.3-0.3,0.6l2.2,8.3c0.9,3.2-1.2,5.1-3.7,5.8c-1.2,0.3-2.4,0.3-3.5,0.1l0.2-1.3c0,0,1.4,0.4,2.9,0
			c2-0.5,3.3-1.9,2.7-4.2l-0.2-0.9c-0.1-0.4-0.2-0.7-0.2-0.7l0,0c-0.3,1.3-1.1,2.2-2.7,2.6c-2.7,0.7-5.1-1-5.9-4
			C467.3,407.4,468.4,404.9,471.2,404.1z M475.9,408.4c-0.8-3-2.5-3.5-4.3-3c-2,0.5-2.8,2.3-2.1,4.7s2.4,3.7,4.4,3.1
			C475.5,412.8,476.7,411.4,475.9,408.4z"/>
		<path class="st5" d="M483.5,400.9c2.8-0.8,4.9,1,5.5,3.6c0.1,0.2,0.1,0.7,0.1,0.7l-7.8,2.1c0.7,2.6,2.9,3.6,5,3
			c1.9-0.5,2.7-2.1,2.7-2.1l0.9,0.9c0,0-1.1,1.9-3.4,2.5c-3,0.8-5.9-0.8-6.8-3.9C479,404.2,480.7,401.6,483.5,400.9z M487.5,404.4
			c-0.6-2.1-2.2-2.8-3.7-2.4c-1.7,0.4-2.9,1.9-2.7,4.1L487.5,404.4z"/>
		<path class="st5" d="M491,400.9c-0.1-0.3-0.3-0.4-0.6-0.3l-0.9,0.2l-0.3-1.2l1.4-0.4c0.9-0.2,1.3,0,1.5,0.8l0.1,0.5
			c0.1,0.4,0.2,0.7,0.2,0.7l0,0c0.1-1,1-3,3.4-3.7c2.5-0.7,3.8,0.5,4.5,3l1.3,4.8c0.1,0.3,0.3,0.4,0.6,0.3l0.9-0.2l0.3,1.2L502,407
			c-0.9,0.2-1.3,0-1.6-0.9l-1.3-4.9c-0.4-1.6-1.1-3-3-2.4c-1.7,0.5-2.9,2.1-2.9,3.9c0,0.5,0.1,0.9,0.2,1.4l1.3,4.9l-1.4,0.4
			L491,400.9z"/>
		<path class="st5" d="M503.3,397l-1.3,0.4l-0.3-1.2l1.4-0.4l-0.8-2.8l1.4-0.4l0.8,2.8l2.6-0.7l0.3,1.2l-2.6,0.7l1.4,5.2
			c0.6,2.4,2.2,2.3,3,2.1c0.3-0.1,0.5-0.2,0.5-0.2l0.3,1.2c0,0-0.2,0.1-0.6,0.2c-1.2,0.3-3.6,0.6-4.6-2.8L503.3,397z"/>
		<path class="st5" d="M510.2,395.7c-0.1-0.3-0.3-0.4-0.6-0.3l-0.9,0.2l-0.3-1.2l1.4-0.4c0.9-0.2,1.3,0,1.6,0.9l2,7.3
			c0.1,0.3,0.3,0.4,0.6,0.3l0.9-0.2l0.3,1.2l-1.4,0.4c-0.9,0.2-1.3,0-1.6-0.9L510.2,395.7z M508.6,390l1.3-0.4l0.5,1.7l-1.3,0.4
			L508.6,390z"/>
	</g>
	<g>
		<path class="st5" d="M589,360.6c0,0,0.9,2.8,4.1,3.7c2.9,0.8,5.6-0.7,6.4-3.4c0.8-2.8-1-5.4-4-6.2c-2.3-0.6-4.2,0.1-4.2,0.1
			l-0.9-0.7l3.1-7.9c0.5-1.2,1-1.6,2.3-1.3l6.7,1.8c1.2,0.3,1.6,1,1.2,2.2l-0.6,2l-1.9-0.5l0.4-1.4c0.1-0.4-0.1-0.7-0.5-0.8
			l-5.1-1.4c-0.4-0.1-0.6,0-0.8,0.5l-1.8,4.5c-0.3,0.7-0.5,1.1-0.5,1.1h0.1c0,0,1.5-0.4,3.3,0.1c4.1,1.1,6.3,4.9,5.3,8.6
			c-1,3.6-4.8,5.8-9,4.7c-4-1.1-5.2-4.5-5.2-4.5L589,360.6z"/>
		<path class="st5" d="M605.9,358.5c1.6-5.8,4.6-10,9.9-8.6c5.3,1.5,5.7,6.6,4.1,12.4c-1.6,5.9-4.6,10.1-9.9,8.6
			C604.7,369.5,604.2,364.4,605.9,358.5z M617.8,361.8c1.3-4.8,1.3-8.9-2.6-10s-6,2.4-7.3,7.3c-1.3,4.9-1.3,9,2.6,10
			C614.3,370.2,616.5,366.7,617.8,361.8z"/>
		<path class="st5" d="M625.1,356.9c0.6-2.2,2.9-3.5,5.2-2.9s3.6,2.9,3,5.1c-0.6,2.2-2.9,3.5-5.2,2.9S624.5,359.1,625.1,356.9z
			 M641.8,357.5l2.1,0.6l-21.1,16.1l-2.1-0.6L641.8,357.5z M631.6,358.6c0.4-1.3-0.4-2.7-1.7-3.1c-1.3-0.4-2.6,0.5-3,1.8
			s0.4,2.7,1.7,3C629.9,360.7,631.2,360,631.6,358.6z M636.5,369.6c2.3,0.6,3.6,2.9,3,5.2c-0.6,2.2-2.9,3.5-5.2,2.9s-3.6-2.9-3-5.1
			C631.9,370.3,634.2,369,636.5,369.6z M634.7,376.1c1.3,0.4,2.7-0.4,3-1.7c0.4-1.3-0.4-2.7-1.7-3.1c-1.3-0.4-2.6,0.5-3,1.8
			C632.7,374.3,633.4,375.7,634.7,376.1z"/>
		<path class="st5" d="M563,370.2c0.1-0.3,0-0.5-0.3-0.5l-0.8-0.2l0.3-1.2l1.4,0.4c0.8,0.2,1.1,0.7,0.8,1.5l-2.1,7.5
			c-0.6,2.2,0.4,4,2.6,4.6c2.2,0.6,4-0.4,4.6-2.6l2.1-7.5c0.2-0.8,0.7-1.1,1.5-0.8l1.4,0.4l-0.3,1.2l-0.8-0.2
			c-0.3-0.1-0.5,0-0.5,0.3l-2,7.2c-0.8,2.9-3.3,4.2-6.2,3.4s-4.4-3.3-3.6-6.1L563,370.2z"/>
		<path class="st5" d="M579.9,377c2.8,0.8,4.4,3.5,3.7,6.3c-0.8,2.9-3.6,4.4-6.4,3.7c-2.8-0.8-4.4-3.5-3.6-6.4
			C574.3,377.7,577.2,376.2,579.9,377z M577.5,385.8c2,0.6,4.1-0.6,4.8-2.9c0.6-2.2-0.6-4.2-2.7-4.8c-2-0.6-4.2,0.6-4.7,2.7
			C574.3,383.1,575.5,385.2,577.5,385.8z"/>
		<path class="st5" d="M586.9,380.8c0.1-0.3,0-0.5-0.3-0.5l-0.8-0.2l0.3-1.1l1.3,0.4c0.8,0.2,1.1,0.7,0.9,1.4l-0.1,0.4
			c-0.1,0.4-0.2,0.7-0.2,0.7l0,0c0.8-1.2,2.6-1.9,4.1-1.5c1.8,0.5,2.4,1.5,2.3,3.2l0,0c0.9-1.1,2.5-1.9,4.2-1.4
			c2.3,0.6,2.8,2.2,2.1,4.6l-1.2,4.5c-0.1,0.3,0,0.5,0.3,0.5l0.8,0.2l-0.3,1.1l-1.3-0.4c-0.8-0.2-1.1-0.7-0.8-1.5l1.3-4.6
			c0.4-1.6,0.5-2.9-1.3-3.4c-1.4-0.4-3,0.6-3.7,1.9c-0.2,0.4-0.4,0.8-0.6,1.3l-1.2,4.5l-1.3-0.4l1.6-5.7c0.4-1.4,0.6-2.9-1.2-3.4
			c-1.6-0.4-3.1,0.6-3.9,1.9c-0.2,0.4-0.4,0.8-0.5,1.2l-1.2,4.5l-1.3-0.4L586.9,380.8z"/>
		<path class="st5" d="M604.6,385.6c0.1-0.3,0-0.5-0.3-0.5l-0.8-0.2l0.3-1.1l1.3,0.4c0.8,0.2,1.1,0.7,0.8,1.5l-1.9,6.8
			c-0.1,0.3,0,0.5,0.3,0.5l0.8,0.2l-0.3,1.1l-1.3-0.4c-0.8-0.2-1.1-0.7-0.8-1.5L604.6,385.6z M606,380.3l1.2,0.3l-0.4,1.6l-1.2-0.3
			L606,380.3z"/>
		<path class="st5" d="M609.2,386.9c0.1-0.3,0-0.5-0.3-0.5l-0.8-0.2l0.3-1.1l1.3,0.4c0.8,0.2,1.1,0.7,0.9,1.4l-0.1,0.4
			c-0.1,0.4-0.2,0.7-0.2,0.7l0,0c0.6-0.8,2.2-2,4.4-1.4c2.4,0.7,2.8,2.2,2.2,4.6l-1.2,4.5c-0.1,0.3,0,0.5,0.3,0.5l0.8,0.2l-0.3,1.1
			l-1.3-0.4c-0.8-0.2-1.1-0.7-0.8-1.5l1.3-4.6c0.4-1.5,0.5-2.9-1.3-3.4c-1.6-0.4-3.3,0.3-4.2,1.7c-0.2,0.4-0.4,0.8-0.5,1.2l-1.3,4.6
			l-1.3-0.4L609.2,386.9z"/>
		<path class="st5" d="M620.8,390.1c0.1-0.3,0-0.5-0.3-0.5l-0.8-0.2l0.3-1.1l1.3,0.4c0.8,0.2,1.1,0.7,0.8,1.5l-1.9,6.8
			c-0.1,0.3,0,0.5,0.3,0.5l0.8,0.2l-0.3,1.1l-1.3-0.4c-0.8-0.2-1.1-0.7-0.8-1.5L620.8,390.1z M622.3,384.8l1.2,0.3l-0.4,1.6
			l-1.2-0.3L622.3,384.8z"/>
		<path class="st5" d="M630.9,392.4l-1.2-0.3l0.3-1.1l1.3,0.3l0.7-2.6l1.3,0.3l-0.7,2.6l2.4,0.7l-0.3,1.1l-2.4-0.7l-1.3,4.8
			c-0.6,2.2,0.7,2.9,1.4,3.1c0.3,0.1,0.4,0.1,0.4,0.1l-0.3,1.2c0,0-0.2,0-0.6-0.1c-1.1-0.3-3.2-1.3-2.3-4.4L630.9,392.4z"/>
		<path class="st5" d="M637,394.5c0.1-0.3,0-0.5-0.3-0.5l-0.8-0.2l0.3-1.1l1.3,0.4c0.8,0.2,1.1,0.6,0.9,1.4l-0.2,0.6
			c-0.1,0.4-0.2,0.7-0.2,0.7l0,0c0.8-1.3,2.2-2.1,3.7-1.7c0.3,0.1,0.5,0.2,0.5,0.2l-0.3,1.3c0,0-0.2-0.1-0.5-0.2
			c-1.3-0.4-2.6,0.4-3.4,1.7c-0.4,0.6-0.6,1.2-0.8,1.8l-1.1,4l-1.3-0.4L637,394.5z"/>
		<path class="st5" d="M647.6,399.7l0.5,0.1v-0.1c0.5-2,0-2.9-1.7-3.4c-0.5-0.1-1.9-0.4-2.1,0.3l-0.2,0.6l-1.2-0.3l0.2-0.9
			c0.4-1.3,2.7-1,3.5-0.8c3,0.8,3.3,2.6,2.7,4.7l-1.3,4.6c-0.1,0.3,0,0.5,0.3,0.5l0.8,0.2l-0.3,1.1l-1.3-0.4c-0.8-0.2-1-0.7-0.8-1.4
			c0.1-0.4,0.2-0.7,0.2-0.7l0,0c0,0-1.3,1.8-3.7,1.2c-1.6-0.4-3-1.8-2.5-3.7C641.7,398.2,645.9,399.3,647.6,399.7z M643.8,404.1
			c1.8,0.5,3.4-1.1,3.9-2.7l0.1-0.4l-0.5-0.2c-1.5-0.4-4.5-1.2-5.1,0.9C641.9,402.6,642.4,403.7,643.8,404.1z"/>
		<path class="st5" d="M562,396.3c0.1-0.3,0-0.5-0.3-0.5l-0.8-0.2l0.3-1.1l1.3,0.4c0.8,0.2,1.1,0.7,0.8,1.5l-1.9,6.8
			c-0.1,0.3,0,0.5,0.3,0.5l0.8,0.2l-0.3,1.1l-1.3-0.4c-0.8-0.2-1.1-0.7-0.8-1.5L562,396.3z M563.4,390.9l1.2,0.3l-0.4,1.6l-1.2-0.3
			L563.4,390.9z"/>
		<path class="st5" d="M575.7,398.1c2.3,0.6,2.6,2.6,2.6,2.6l0,0c0,0,0.1-0.3,0.2-0.7l0.8-3.1c0.1-0.3,0-0.5-0.3-0.5l-0.8-0.2
			l0.3-1.1l1.3,0.4c0.8,0.2,1.1,0.7,0.8,1.5l-2.9,10.6c-0.1,0.3,0,0.5,0.3,0.5l0.8,0.2l-0.3,1.1l-1.3-0.4c-0.8-0.2-1-0.7-0.8-1.4
			c0.1-0.4,0.2-0.6,0.2-0.6l0,0c0,0-1.3,1.7-3.8,1c-2.6-0.7-3.6-3.2-2.8-6.1C570.9,398.9,573.2,397.4,575.7,398.1z M577.5,404
			c0.5-1.9,0.1-4.1-2-4.7c-1.7-0.5-3.5,0.6-4.1,3c-0.6,2.3,0.2,4.2,2,4.7C574.9,407.4,576.7,406.7,577.5,404z"/>
		<path class="st5" d="M583,402c0.1-0.3,0-0.5-0.3-0.5l-0.8-0.2l0.3-1.1l1.3,0.4c0.8,0.2,1.1,0.7,0.8,1.5l-1.9,6.8
			c-0.1,0.3,0,0.5,0.3,0.5l0.8,0.2l-0.3,1.1l-1.3-0.4c-0.8-0.2-1.1-0.7-0.8-1.5L583,402z M584.4,396.7l1.2,0.3l-0.4,1.6l-1.2-0.3
			L584.4,396.7z"/>
		<path class="st5" d="M587.7,403.3c0.1-0.3,0-0.5-0.3-0.5l-0.8-0.2l0.3-1.1l1.3,0.4c0.8,0.2,1.1,0.6,0.9,1.4l-0.2,0.6
			c-0.1,0.4-0.2,0.7-0.2,0.7l0,0c0.8-1.3,2.2-2.1,3.7-1.7c0.3,0.1,0.5,0.2,0.5,0.2l-0.3,1.3c0,0-0.2-0.1-0.5-0.2
			c-1.3-0.4-2.6,0.4-3.4,1.7c-0.4,0.6-0.6,1.2-0.8,1.8l-1.1,4l-1.3-0.4L587.7,403.3z"/>
		<path class="st5" d="M594.6,405.2c0.1-0.3,0-0.5-0.3-0.5l-0.8-0.2l0.3-1.1l1.3,0.4c0.8,0.2,1.1,0.7,0.8,1.5l-1.9,6.8
			c-0.1,0.3,0,0.5,0.3,0.5l0.8,0.2l-0.3,1.1l-1.3-0.4c-0.8-0.2-1.1-0.7-0.8-1.5L594.6,405.2z M596,399.9l1.2,0.3l-0.4,1.6l-1.2-0.3
			L596,399.9z"/>
		<path class="st5" d="M603,405.6c2.6,0.7,2.7,2.5,2.7,2.5l0,0c0,0,0-0.2,0.1-0.4c0.2-0.7,0.6-1,1.4-0.7l1.3,0.4l-0.3,1.1l-0.8-0.2
			c-0.3-0.1-0.5,0-0.5,0.3l-2.1,7.8c-0.8,3-3.4,3.6-5.7,2.9c-1.1-0.3-2.1-0.9-2.9-1.6l0.8-0.9c0,0,1,1,2.4,1.4
			c1.9,0.5,3.6,0,4.2-2.1l0.2-0.8c0.1-0.4,0.2-0.7,0.2-0.7l0,0c-0.9,0.9-2,1.2-3.4,0.8c-2.6-0.7-3.7-3.2-2.9-6
			C598.3,406.5,600.5,404.9,603,405.6z M604.8,411.3c0.8-2.8-0.3-4-2-4.5c-1.9-0.5-3.3,0.5-3.9,2.8c-0.6,2.3,0.2,4.1,2.1,4.6
			C602.5,414.7,604.1,414.1,604.8,411.3z"/>
		<path class="st5" d="M614.5,408.8c2.6,0.7,3.4,3.1,2.8,5.5c-0.1,0.2-0.2,0.6-0.2,0.6l-7.3-2c-0.6,2.4,0.7,4.3,2.6,4.8
			c1.7,0.5,3.2-0.4,3.2-0.4l0.4,1.1c0,0-1.8,1-3.9,0.4c-2.8-0.8-4.4-3.4-3.6-6.3C609.3,409.4,611.9,408.1,614.5,408.8z M616.1,413.6
			c0.5-2-0.5-3.3-1.9-3.7c-1.6-0.4-3.2,0.2-4.1,2L616.1,413.6z"/>
		<path class="st5" d="M620.6,412.4c0.1-0.3,0-0.5-0.3-0.5l-0.8-0.2l0.3-1.1l1.3,0.4c0.8,0.2,1.1,0.7,0.9,1.4l-0.1,0.4
			c-0.1,0.4-0.2,0.7-0.2,0.7l0,0c0.6-0.8,2.2-2,4.4-1.4c2.4,0.7,2.8,2.2,2.2,4.6l-1.2,4.5c-0.1,0.3,0,0.5,0.3,0.5l0.8,0.2l-0.3,1.1
			l-1.3-0.4c-0.8-0.2-1.1-0.7-0.8-1.5l1.3-4.6c0.4-1.5,0.5-2.9-1.3-3.4c-1.6-0.4-3.3,0.3-4.2,1.7c-0.2,0.4-0.4,0.8-0.5,1.2l-1.3,4.6
			l-1.3-0.4L620.6,412.4z"/>
		<path class="st5" d="M632.3,415.1l-1.2-0.3l0.3-1.1l1.3,0.3l0.7-2.6l1.3,0.3l-0.7,2.6l2.4,0.7l-0.3,1.1l-2.4-0.7l-1.3,4.8
			c-0.6,2.2,0.7,2.9,1.4,3.1c0.3,0.1,0.4,0.1,0.4,0.1l-0.3,1.2c0,0-0.2,0-0.6-0.1c-1.1-0.3-3.2-1.3-2.3-4.4L632.3,415.1z"/>
		<path class="st5" d="M638.5,417.3c0.1-0.3,0-0.5-0.3-0.5l-0.8-0.2l0.3-1.1l1.3,0.4c0.8,0.2,1.1,0.7,0.8,1.5l-1.9,6.8
			c-0.1,0.3,0,0.5,0.3,0.5l0.8,0.2l-0.3,1.1l-1.3-0.4c-0.8-0.2-1.1-0.7-0.8-1.5L638.5,417.3z M639.9,412l1.2,0.3l-0.4,1.6l-1.2-0.3
			L639.9,412z"/>
	</g>
</g>
</svg>
