<svg baseProfile="basic" xmlns="http://www.w3.org/2000/svg" viewBox="0 0 313.5 421.5"><style type="text/css">.st0{fill:none;stroke:#F3352F;stroke-width:3;stroke-linecap:round;stroke-miterlimit:10;stroke-dasharray:0,9;} .st1{fill:#4E5594;} .st2{fill:#FFFFFF;}</style><path class="st0" d="M201.4 50.8c62.6 16.5 99.9 80.5 83.4 143.1-16.5 62.6-80.4 99.9-143 83.4-62.5-16.5-99.9-80.3-83.5-142.8s80.5-100.1 143.1-83.7z"/><path class="st1" d="M148.3 273.5c36.7-.2 66.7 29.5 66.9 66.2s-29.5 66.7-66.2 66.9c-36.7.2-66.7-29.5-66.9-66.2-.2-36.8 29.5-66.8 66.2-66.9zM177.6 249.7c-.4-.7-1-1.6-1.7-2.5-.6-.8-1.3-1.6-1.7-2.3-.8-1.3-1.8-2.7-3-4.4-.7-.9-.9-1.3-1.1-1.6-.1-.1-.1-.2-.2-.4-.3-.4-.3-.9-.4-1.7v-1.5c-.1-.8-.2-1.5-.5-2.2-.2-.8-.4-1.4-.4-2.1 0-1.3.5-10.8.6-13.7 0-.5.1-1.1.1-1.7.2-2.7.5-6 .5-8.2-.1-3.4-.5-12-1.3-15.1-.7-2.8-2.4-10.9-2.6-13.2-.3-2.1-.5-7-.5-9.5.1-.7.1-2.4 0-5v-.1h.1c.3-.1.6-.2.7-.1 1.1-.3 1.8-.8 2.1-.8 0-1-1-11.8-1.1-14.4-.1-2.6-.1-5.8 0-5.9h.2v.6c.4-.1.9-.7.9-1.6 0-.8 0-1.1-.1-1.7 0-.2-.1-.5-.1-.8 0-1 .1-1.8.1-1.8v-.2l.2.1c.1.1 1 1.1 1 1.6v.2c.1.3.1.7.1 1.4 0 .5-.1.8-.2 1.1 0 .2-.1.4-.1.7 0 .4-.2.9-.5 1.5l-.4 1c-.5 1.4-.5 2.5-.1 2.7.3.1.5.1.6.1.4 0 .7-.2 1-.7.6-1 1.9-2.7 2.2-2.9.4-.5.9-1 1.2-2.7.1-.5.2-.9.3-1.3.2-1 .5-1.8.3-2.4-.1-.4-.4-1.2-.6-2-.3-.9-.7-1.8-.8-2.4-.2-.8-.3-1-.3-1l-.4-.1.4-.1c1.3-.3 1.8-.7 1.9-.9.1-.5.1-6.4-.2-9l-.2-1.9c-.2-1.9-.5-4-.6-6.8-.1-2.6-.7-8.5-1.4-13.2-.2-2-.5-3.7-.6-4.9-.2-1.8-.7-4.3-1.1-6.7-.5-2.4-1-4.9-1.1-6.7-.4-3.6-1.2-8.4-2-9.9-.4-.8-1.6-.8-3.6-1-.5 0-.9 0-1.5-.1-.9 0-2.8-.8-4.5-1.4-.5-.1-.8-.3-1.2-.4h-.1v-.1c-.1-.7-.1-1.5-.2-2.4 0-.6-.1-1.4-.2-2.1 0-.6-.2-1.4-.3-2-.2-.9-.3-1.8-.4-2.7-.1-.5 0-1 .1-1.4v-1.2c-.1-.8-.1-1.8-.1-3 0-1.5 0-3.1-.2-4.6-.3-3-1.1-5.8-2.5-8.8-1.8-3.6-5-4.2-6.8-4.2-.8 0-1.3.1-1.3.2 0 0-.8-.3-2.1-.3-1.5 0-3.6.5-5.4 2.5-1.7 1.9-3.5 10.1-2.6 14.3.7 3.3.6 4.7.4 6.7-.1.6-.1 1.1-.1 1.8v2.8c0 .8 0 1.1-.2 1.8 0 .2-.1 1-.2 1.6 0 .5 0 .9-.1 1.1v.1h-.1c-.8.2-1.6.5-2.4.8-1.6.5-3 1-3.9 1.4-.8.3-1.9.5-2.9.5-1.2.1-2.3.2-2.7.8-.5 1.1-1.6 7.2-1.7 13.9 0 5.5-.8 9.3-1.4 13.1-.1 1-.3 1.9-.4 2.8-.3 2.5-.5 4.5-.9 8.1 0 .1-.1.6-.1 1 0 .5 0 .9-.1 1l.1.8c.2 1.6.5 3 .8 4.6l.1.5c1 6.2 2.1 13 2.2 15.2.1 1.9.7 2.9.9 3l1.3.2v.30000000000000004c0 .7-.2 1.4-.2 1.9-.1 1-.2 1.8 0 3 .3 1 .5 1.7.9 2.3.2.5.4.9.6 1.5.3 1 .9 1.8 1.9 2.6h.1v.1c0 2.3.2 2.9.3 4v.3c.4 2.8.4 12.1.4 12.9.2.1 1.1.7 2.5.7h.1v.1c.2 1.6.5 4.1.8 5.9.1.8.2 1.6.3 2.1.5 4.4.8 13.4.7 18.9 0 4.6 1 13.4 2.5 17.4.8 2.2 1.5 4.4 2 6.3.4 1.3.8 2.6 1.1 3.6.9 2.3 2.1 7.3 2 8.7 0 .9.3 1.8.4 2.7l.3 1.2v.1c.2 1.1.4 2.4-.8 5.9-.6 1.6-1.2 2.9-1.5 3.9-.5 1.3-1 2.3-1.1 3.1-.5 2.7-.5 4.3.2 4.6.7.4 2.4.7 3 .8.3 0 .8-.3 1.5-.6.2-.1.5-.3.9-.5 2.2-1.2 2.8-2.3 3-3.4.4-1.1 1-3.6 1.3-4.8.1-.5.2-1.2.4-2 .2-1.2.4-2.5.7-3.2.3-.8.7-2.5 0-3.8-.4-.6-.6-1.4-.7-2.2-.2-.8-.4-1.7-.7-2.4-.8-1.6-1-9.2-.9-11.1 0-.5 0-1.2.1-2.3.2-3.2.6-8.8.2-14.8-.1-2-.7-4.8-1.1-7.3-.5-2.7-1-5-.9-5.9.1-.8 1.2-7.6 1.4-11.1 0-.8.1-1.8 0-3.2 0-1.6 0-3.7.1-6.6v-.1h4.1c.8 0 1.4-.1 1.6 0h.1v.1c.4 3.9 1.2 10.8 2.1 12.9 1.3 3.1 2.9 8.6 3.4 11.3.1.4.1 2 .2 3.8.1 3.4.1 8.2.6 10.6.4 1.7 1.2 3.9 1.8 6 .8 2.5 1.6 5.1 1.9 6.8.6 2.6 1.1 7 1.6 10 .1.9.3 1.7.4 2.3.4 2.3.4 3.5-.1 3.9-.5.3-.7 1.1-.6 2.1 0 1 .7 2.9 1.3 4.2.3.6.8 1.7 1.4 2.7.6 1.1 1.2 2.3 1.6 3.1.8 1.7 2.9 6.1 3.3 6.9.3.7 1.4 1.2 2.2 1.5h.1c.9.4 4 1.1 4.4 1.2.4 0 2.7-1.3 2.7-2.1-.2-.7-.1-3.2-.8-4.7zm-49.6-126c-.3-1.8-.5-10.2-.5-10.2 0-.1 0-.7-.1-1.3 0-.6-.1-1.3 0-1.5.3-2.6.5-3.5.8-4.8.2-.9.4-2.1.8-4 .5-2.7.6-5.2.8-6.8h.2v1.7s.3 3.4.3 6c.2 3.4-.2 8.9-.4 10.9-.1.9-.2 1.8-.4 2.6l-.6 3.6c-.3 2-.6 3.7-.7 3.9l-.2.7v-.8zm38.2 12.7c0-.1-.6-6.9-1.1-8.9-.3-1-.6-1.9-.9-2.8-.3-.6-.4-1.1-.6-1.7l-.1-.1.1-.1c.2-.1.4-.3.4-.4l-3-8.4c-.1-.3-.2-1.1-.4-2-.1-.8-.3-1.6-.4-2-.1-1.9-.1-3.6 0-5.2.1-.7.1-1.4 0-2.2.1-3.5.8-9.8.8-9.8l.1-1 .2 1c0 .1 1.1 8.3 1.4 11.4.1 1.2 1.2 6 1.2 6 0 .1.7 7.3 1.3 10.3.1.8.3 1.4.4 2 .3 1.5.5 2.3.5 3.3 0 1.2.3 5.7.3 6.3l1.1.5-.2.1s-.2.1-.5.5c-.2.3-.3 2.1-.3 3.1l-.3.1z"/><path class="st2" d="M122.2 323.5s1.6 2.4 4.7 2.3c2.8 0 5-2 4.9-4.7 0-2.7-2.3-4.6-5.2-4.6-2.3 0-3.8 1.2-3.8 1.2l-1-.4.9-8c.1-1.2.4-1.7 1.7-1.7h6.5c1.1 0 1.7.5 1.7 1.7v2h-1.9v-1.3c0-.4-.3-.6-.7-.6l-5.1.1c-.4 0-.6.2-.6.7l-.4 4.5c-.1.7-.2 1.1-.2 1.1h.1s1.2-.7 3-.8c4 0 7 2.9 6.9 6.5 0 3.5-3 6.5-7 6.5-3.9 0-5.9-2.7-5.9-2.7l1.4-1.8zM136.9 317.3c-.1-5.7 1.7-10.2 6.9-10.3 5.2 0 6.9 4.5 6.9 10.2.1 5.8-1.7 10.3-6.9 10.3s-6.8-4.4-6.9-10.2zm11.7 0c0-4.8-1.1-8.4-4.8-8.4-3.7.1-4.8 3.7-4.8 8.5s1.1 8.4 4.9 8.4c3.8 0 4.7-3.7 4.7-8.5zM154 311c-.1-2.2 1.7-4 3.9-4s4 1.7 4.1 3.9c.1 2.2-1.7 4-3.9 4-2.4 0-4.2-1.7-4.1-3.9zm15.3-3.6h2l-15.1 19.9h-2.1l15.2-19.9zm-9.1 3.5c0-1.2-1.1-2.3-2.3-2.3-1.3 0-2.2 1.1-2.3 2.4 0 1.3 1.1 2.3 2.3 2.3 1.2.1 2.4-1.1 2.3-2.4zm7.3 8.8c2.2-.1 4 1.7 4.1 3.9s-1.7 3.9-3.9 4c-2.2.1-4-1.7-4-3.8-.2-2.4 1.6-4.1 3.8-4.1zm0 6.2c1.3 0 2.3-1.1 2.3-2.4 0-1.2-1.1-2.3-2.3-2.3-1.3 0-2.2 1.1-2.3 2.4.1 1.4 1 2.4 2.3 2.3zM101.8 339.2l-1.4.1v-1.3h5.9c4.4 0 7.5 2.7 7.4 7.4.1 4.7-2.9 7.4-7.4 7.3h-3.3c-.9 0-1.3-.3-1.3-1.3l.1-12.2zm2 12.2h2.5c3.6 0 6-2.2 6-6.1 0-3.9-2.5-6-6.1-6.1l-2.9.1v11.7c0 .2.2.3.5.4zM121.1 341.8c3.1 0 5.6 2.3 5.7 5.4 0 3.2-2.4 5.6-5.5 5.6s-5.6-2.4-5.6-5.5c-.1-3.2 2.3-5.4 5.4-5.5zm0 9.8c2.3 0 4.1-1.9 4-4.3 0-2.4-1.9-4.2-4.1-4.1-2.3 0-4.1 1.9-4.1 4.2.1 2.4 2 4.2 4.2 4.2zM129.3 343.8c0-.3-.2-.5-.5-.4h-.9v-1.2h1.5c.9 0 1.3.3 1.3 1.1v1.2c.3-.9 1.7-2.7 4.2-2.7 2.6-.1 3.6 1.4 3.6 4l.1 5c0 .3.2.5.5.4h.9v1.2h-1.5c-.9 0-1.3-.3-1.3-1.3l-.1-5.1c0-1.6-.3-3.2-2.3-3.1-1.8.1-3.3 1.3-3.8 3.1l-.2 1.4.1 5.1h-1.5l-.1-8.7zM142.2 343.8c0-.3-.2-.5-.5-.4h-.9v-1.2h1.5c.9 0 1.3.3 1.3 1.1v1.2c.3-.9 1.7-2.7 4.2-2.7 2.6-.1 3.6 1.4 3.6 4l.1 5c0 .3.2.5.5.4h.9v1.2h-1.5c-.9 0-1.3-.3-1.3-1.3l-.1-5.1c0-1.6-.3-3.2-2.3-3.1-1.8.1-3.3 1.3-3.8 3.1l-.2 1.4.1 5.1h-1.5l-.1-8.7zM159.1 341.7c2.9-.1 4.5 2.2 4.4 4.8 0 .2-.1.7-.1.7h-8.1c0 2.7 1.9 4.2 4.1 4.1 2 0 3.1-1.4 3.1-1.4l.7 1.1s-1.5 1.6-3.9 1.6c-3.1 0-5.5-2.2-5.6-5.5.2-3.3 2.5-5.4 5.4-5.4zm3 4.4c-.1-2.2-1.4-3.3-3-3.2-1.7 0-3.3 1.1-3.6 3.3l6.6-.1zM172.2 343.1l-1.4.1v-1.2h1.5l-.1-2.9h1.5l.1 2.9h2.7v1.2h-2.7l.1 5.4c0 2.5 1.6 2.8 2.4 2.8.3 0 .5-.1.5-.1v1.2h-.6c-1.2 0-3.6-.3-3.8-3.8l-.2-5.6zM179.1 343.6c0-.3-.2-.5-.5-.4h-.9v-1.2h1.5c.9 0 1.3.3 1.3 1.1v1.5c.5-1.6 1.6-2.8 3.3-2.9.3 0 .6.1.6.1v1.5s-.3-.1-.5 0c-1.5 0-2.6 1.2-3.1 2.7-.2.7-.2 1.4-.3 2.1v4.4h-1.5l.1-8.9zM191.5 345.9h.6v-.1c-.1-2.2-.8-3-2.8-3-.5 0-2 .2-2 .9v.6l-1.4.1v-1c0-1.5 2.5-1.8 3.5-1.8 3.3-.1 4.2 1.8 4.2 3.9l.1 5.1c0 .3.2.5.5.4h.9v1.2h-1.5c-.9 0-1.2-.4-1.2-1.2v-.8s-.8 2.3-3.5 2.3c-1.8.1-3.6-1-3.6-3.1-.3-3.4 4.4-3.5 6.2-3.5zm-2.7 5.5c2 0 3.2-2.2 3.2-3.9v-.5h-.6c-1.6 0-5 .1-5 2.5.1.8.9 1.9 2.4 1.9zM105 364.5c0-.3-.2-.5-.5-.4h-.9v-1.2h1.5c.9 0 1.3.3 1.3 1.3v7.6c0 .3.2.5.5.4h.9v1.2h-1.5c-.9 0-1.3-.3-1.3-1.3v-7.6zm.1-5.8l1.4-.1.1 1.8-1.4.1-.1-1.8zM119.7 362.6c2.6-.1 3.4 1.9 3.4 1.9v-.8l-.1-3.4c0-.3-.2-.5-.5-.4h-.9v-1.2h1.5c.9 0 1.3.3 1.3 1.3v11.8c0 .3.2.5.5.4h.9v1.2h-1.5c-.9 0-1.2-.4-1.3-1.1 0-.4.1-.7.1-.7s-.8 2.1-3.6 2.2c-2.8 0-4.6-2.2-4.7-5.5.2-3.6 2.1-5.7 4.9-5.7zm3.5 5.4c-.1-2.2-1.1-4.2-3.4-4.2-1.9 0-3.4 1.6-3.4 4.3.1 2.6 1.4 4.3 3.4 4.3 1.9-.1 3.5-1.4 3.4-4.4zM128.3 364.5c0-.3-.2-.5-.5-.4h-.9v-1.2h1.5c.9 0 1.3.3 1.3 1.3v7.6c0 .3.2.5.5.4h.9v1.2h-1.5c-.9 0-1.3-.3-1.3-1.3v-7.6zm.1-5.9l1.4-.1.1 1.8-1.4.1-.1-1.8zM133.5 364.4c0-.3-.2-.5-.5-.4h-.9v-1.2h1.5c.9 0 1.3.3 1.3 1.1v1.5c.5-1.6 1.6-2.8 3.3-2.9.3 0 .6.1.6.1v1.5s-.3-.1-.5 0c-1.5 0-2.6 1.2-3.1 2.7-.2.7-.2 1.4-.3 2.1v4.4h-1.5l.1-8.9zM141.2 364.4c0-.3-.2-.5-.5-.4h-.9v-1.2h1.5c.9 0 1.3.3 1.3 1.3v7.6c0 .3.2.5.5.4h.9v1.2h-1.5c-.9 0-1.3-.3-1.3-1.3v-7.6zm0-5.9l1.4-.1.1 1.8-1.4.1-.1-1.8zM150 362.3c2.8 0 3.6 1.7 3.6 1.7v-.4c0-.7.3-1.2 1.2-1.1h1.5v1.2h-.8c-.3 0-.5.2-.4.5v8.6c.1 3.3-2.4 4.6-5 4.7-1.2 0-2.4-.3-3.4-.8l.5-1.2s1.3.7 2.8.7c2.1 0 3.7-1 3.7-3.4v-1.6c-.6 1.2-1.6 1.9-3.3 1.9-2.8 0-4.7-2.2-4.7-5.3-.3-3.2 1.4-5.4 4.3-5.5zm3.5 5.5c0-3.1-1.6-4-3.4-4-2.1 0-3.3 1.5-3.2 4 .1 2.5 1.4 4.2 3.5 4.1 1.6-.1 3.2-1 3.1-4.1zM162.7 362.4c2.9-.1 4.5 2.2 4.4 4.8 0 .2-.1.7-.1.7h-8.1c0 2.7 1.9 4.2 4.1 4.1 2 0 3.1-1.4 3.1-1.4l.7 1.1s-1.5 1.6-3.9 1.6c-3.1 0-5.5-2.2-5.6-5.5.3-3.3 2.5-5.4 5.4-5.4zm3 4.5c-.1-2.2-1.4-3.3-3-3.2-1.7 0-3.3 1.1-3.6 3.3l6.6-.1zM170 364.3c0-.3-.2-.5-.5-.4h-.9v-1.2h1.5c.9 0 1.3.3 1.3 1.1v1.2c.3-.9 1.7-2.7 4.2-2.7 2.6-.1 3.6 1.4 3.6 4l.1 5c0 .3.2.5.5.4h.9v1.2h-1.5c-.9 0-1.3-.3-1.3-1.3l-.1-5.1c0-1.6-.3-3.2-2.3-3.1-1.8.1-3.3 1.3-3.8 3.1l-.2 1.4.1 5.1h-1.5l-.1-8.7zM182.9 363.7l-1.4.1v-1.2h1.5l-.1-2.9h1.5l.1 2.9h2.7v1.2h-2.7l.1 5.4c0 2.5 1.6 2.8 2.4 2.8.3 0 .5-.1.5-.1v1.2h-.6c-1.2 0-3.6-.3-3.8-3.8l-.2-5.6zM189.9 364.2c0-.3-.2-.5-.5-.4h-.9v-1.2h1.5c.9 0 1.3.3 1.3 1.3v7.6c0 .3.2.5.5.4h.9v1.2h-1.5c-.9 0-1.3-.3-1.3-1.3v-7.6zm-.1-5.9l1.4-.1.1 1.8-1.4.1-.1-1.8z"/></svg>