<?xml version="1.0" encoding="utf-8"?>
<!-- Generator: Adobe Illustrator 23.0.1, SVG Export Plug-In . SVG Version: 6.00 Build 0)  -->
<svg version="1.1" id="Livello_1" xmlns="http://www.w3.org/2000/svg" xmlns:xlink="http://www.w3.org/1999/xlink" x="0px" y="0px"
	 viewBox="0 0 313.5 421.5" style="enable-background:new 0 0 313.5 421.5;" xml:space="preserve">
<style type="text/css">
	.st0{fill:none;stroke:#F3352F;stroke-width:3;stroke-linecap:round;stroke-miterlimit:10;stroke-dasharray:0,9;}
	.st1{fill-rule:evenodd;clip-rule:evenodd;fill:#4E5594;}
	.st2{fill:#4E5594;}
	.st3{fill:#FFFFFF;}
</style>
<path class="st0" d="M178.2,45.1c64.7,0,117.1,52.4,117.1,117.1s-52.4,117.1-117.1,117.1S61.1,227,61.1,162.3S113.5,45.1,178.2,45.1
	z"/>
<path class="st1" d="M160.9,273.9c35.5-9.5,72,11.5,81.5,47s-11.5,72-47,81.5s-72-11.5-81.5-47S125.5,283.4,160.9,273.9z"/>
<path class="st2" d="M203.6,253.4c-0.4-0.7-1-1.7-1.6-2.6c-0.6-0.8-1.2-1.6-1.6-2.4c-0.7-1.4-1.6-2.8-2.8-4.5
	c-0.7-0.9-0.9-1.3-1.1-1.7c-0.1-0.1-0.1-0.2-0.2-0.4c-0.3-0.4-0.2-0.9-0.3-1.8c0-0.4,0-0.8,0-1.5c-0.1-0.8-0.2-1.5-0.4-2.2
	c-0.2-0.8-0.3-1.4-0.3-2.1c0.1-1.3,0.9-10.8,1.2-13.7c0.1-0.5,0.1-1.1,0.2-1.7c0.3-2.7,0.8-5.9,0.9-8.2c0.1-3.4,0-12-0.7-15.2
	c-0.6-2.8-1.9-11.1-2.1-13.3c-0.2-2.1-0.3-7-0.1-9.6c0.1-0.7,0.2-2.3,0.3-5v-0.1h0.1c0.3-0.1,0.6-0.1,0.7-0.1
	c1.1-0.3,1.9-0.7,2.1-0.7c0-1-0.5-11.9-0.5-14.5c0.1-2.6,0.2-5.8,0.2-5.9h0.2v0.6c0.4-0.1,0.9-0.7,1-1.6c0-0.8,0-1.1,0-1.7
	c0-0.2,0-0.5-0.1-0.9c0-1,0.1-1.8,0.1-1.8l0.1-0.2l0.2,0.2c0.1,0.1,0.9,1.1,1,1.7c0,0.1,0,0.2,0,0.2c0.1,0.3,0.1,0.7,0,1.4
	c-0.1,0.5-0.1,0.8-0.2,1.1c-0.1,0.2-0.1,0.4-0.1,0.7c0,0.4-0.3,0.9-0.6,1.5c-0.1,0.3-0.3,0.6-0.4,1c-0.5,1.4-0.7,2.5-0.2,2.7
	c0.3,0.1,0.5,0.1,0.6,0.2c0.4,0,0.7-0.2,1-0.6c0.6-1,2.1-2.6,2.3-2.8c0.5-0.5,0.9-1,1.3-2.6c0.1-0.5,0.3-0.9,0.4-1.2
	c0.3-1,0.6-1.8,0.4-2.4c-0.1-0.4-0.3-1.3-0.5-2c-0.2-0.9-0.6-1.9-0.7-2.4c-0.2-0.8-0.2-1-0.2-1l-0.4-0.1l0.4-0.1l0,0
	c1.3-0.2,1.9-0.6,1.9-0.8c0.1-0.5,0.3-6.4,0.2-9.1c0-0.6-0.1-1.3-0.1-1.9c-0.1-1.9-0.3-4-0.3-6.8c0.1-2.6-0.4-8.5-0.8-13.2
	c-0.1-2-0.3-3.8-0.4-4.9c-0.1-1.8-0.4-4.3-0.9-6.7s-0.8-4.9-0.9-6.7c-0.2-3.6-0.9-8.4-1.6-10c-0.4-0.8-1.6-0.9-3.5-1.2
	c-0.5-0.1-0.9-0.1-1.5-0.2c-0.9-0.1-2.7-0.9-4.4-1.7c-0.5-0.1-0.8-0.4-1.2-0.5h-0.1v-0.1c-0.1-0.7-0.1-1.5-0.1-2.4
	c0-0.6,0-1.4-0.1-2.1c0-0.6-0.1-1.4-0.2-2.1c-0.1-0.9-0.2-1.8-0.2-2.7c0-0.5,0-1,0.1-1.4c0-0.4,0-0.8,0.1-1.2c-0.1-0.8,0-1.8,0.1-3
	c0-1.5,0.1-3.1,0.1-4.6c-0.1-3-0.8-5.8-2.2-8.9c-1.6-3.7-4.8-4.4-6.6-4.4c-0.8,0-1.3,0-1.3,0.1l0,0l0,0c0,0-0.8-0.4-2.1-0.4
	c-1.5,0-3.7,0.3-5.5,2.3c-1.8,1.8-3.9,9.9-3.2,14.2c0.6,3.3,0.3,4.7,0.1,6.7c-0.1,0.6-0.1,1.1-0.1,1.8c-0.1,1.3-0.1,2.2-0.1,2.8
	c0,0.8,0,1.1-0.3,1.8c-0.1,0.2-0.2,1-0.3,1.6c-0.1,0.5-0.1,0.9-0.1,1.1v0.1h-0.1c-0.8,0.2-1.6,0.4-2.4,0.7c-1.6,0.4-3.1,0.8-3.9,1.2
	c-0.8,0.3-1.9,0.4-2.9,0.4c-1.2,0.1-2.3,0.1-2.7,0.6c-0.5,1.1-1.9,7.2-2.3,13.8c-0.3,5.4-1.2,9.3-1.9,13c-0.2,1-0.4,1.9-0.5,2.8
	c-0.4,2.5-0.7,4.5-1.2,8.1c0,0.1-0.1,0.6-0.1,1c-0.1,0.5-0.1,0.9-0.1,1l0.1,0.8c0.1,1.6,0.3,3,0.6,4.7v0.5
	c0.8,6.2,1.5,13.1,1.6,15.3c0,1.9,0.6,2.9,0.7,3.1l1.3,0.3v0.1c0,0.1-0.1,0.2,0,0.2c0,0.7-0.2,1.4-0.3,1.9c-0.2,1-0.3,1.8-0.2,3
	c0.2,1,0.4,1.7,0.8,2.3c0.2,0.5,0.3,0.9,0.5,1.5c0.2,1,0.8,1.8,1.8,2.6h0.1v0.1c-0.1,2.3,0,2.9,0.1,4v0.3c0.3,2.8-0.1,12.1-0.1,12.9
	c0.2,0.2,1,0.7,2.5,0.9h0.1v0.1c0.1,1.6,0.3,4.1,0.5,5.9c0.1,0.9,0.1,1.6,0.2,2.1c0.3,4.4,0.3,13.5-0.1,18.9
	c-0.3,4.6,0.5,13.4,1.7,17.5c0.7,2.2,1.2,4.5,1.8,6.4c0.3,1.4,0.7,2.6,1,3.6c0.8,2.3,1.8,7.4,1.7,8.8c-0.1,0.9,0.2,1.8,0.3,2.7
	c0.1,0.4,0.2,0.8,0.3,1.2v0.1c0.2,1.1,0.3,2.4-1.1,5.8c-0.7,1.6-1.3,2.8-1.7,3.9c-0.6,1.3-1.1,2.3-1.3,3.1c-0.6,2.6-0.7,4.3-0.1,4.6
	c0.7,0.4,2.4,0.8,3,0.9l0,0c0.3,0,0.8-0.3,1.5-0.6c0.2-0.1,0.5-0.3,0.9-0.5c2.2-1.1,2.9-2.2,3.2-3.2c0.4-1.1,1.2-3.5,1.6-4.7
	c0.1-0.5,0.3-1.2,0.5-1.9c0.3-1.2,0.5-2.4,0.9-3.2s0.9-2.5,0.2-3.8c-0.3-0.6-0.5-1.4-0.6-2.3c-0.2-0.8-0.3-1.7-0.6-2.4
	c-0.8-1.6-0.6-9.3-0.5-11.1c0.1-0.5,0.1-1.2,0.2-2.2c0.4-3.2,0.9-8.7,0.8-14.8c0-2-0.5-4.9-0.9-7.4c-0.4-2.7-0.8-5-0.6-5.9
	c0.1-0.8,1.5-7.5,1.8-11.1c0-0.8,0.1-1.8,0.1-3.2c0.1-1.6,0.2-3.7,0.4-6.6v-0.1h0.1c0.3,0,1.1,0,2.1,0.1c0.6,0,1.2,0.1,1.9,0.1
	c0.8,0,1.4,0,1.6,0.1h0.1v0.1c0.3,3.9,0.7,10.9,1.5,13c1.1,3.2,2.5,8.7,3,11.5c0.1,0.4,0,2,0,3.8c-0.1,3.4-0.2,8.2,0.2,10.6
	c0.3,1.7,1,4,1.5,6.1c0.7,2.5,1.4,5.1,1.6,6.9c0.4,2.6,0.9,7.1,1.2,10.1c0,0.9,0.2,1.7,0.2,2.3c0.2,2.3,0.3,3.5-0.3,3.9
	c-0.5,0.3-0.7,1-0.7,2.1c0,1,0.6,2.9,1.1,4.2c0.2,0.6,0.7,1.7,1.2,2.8s1.1,2.3,1.4,3.2c0.7,1.8,2.7,6.3,3.1,7
	c0.3,0.7,1.3,1.2,2.1,1.6h0.1c0.9,0.5,4,1.3,4.4,1.4l0,0c0.4,0,2.8-1.1,2.8-2C204.1,257.5,204.2,255,203.6,253.4z M159.2,125.6
	c-0.2-1.8-0.1-10.2-0.1-10.2c0-0.1,0-0.7,0-1.3c0-0.6,0-1.3,0-1.5c0.4-2.6,0.6-3.5,1.1-4.8c0.3-0.9,0.5-2,1-4c0.6-2.6,0.9-5.2,1-6.8
	h0.2l-0.1,1.7c0,0,0.1,3.4,0,6c0,3.4-0.5,8.8-0.8,10.8c-0.2,0.9-0.3,1.8-0.6,2.5c-0.3,1.2-0.5,2.4-0.8,3.5c-0.4,2-0.8,3.6-0.9,3.8
	L159,126L159.2,125.6z M196.9,139.8c0-0.1-0.4-6.9-0.8-8.9c-0.2-1-0.6-1.9-0.8-2.9c-0.2-0.6-0.4-1.2-0.5-1.7l-0.1-0.1l0.1-0.1
	c0.2-0.1,0.4-0.3,0.4-0.4c-0.2-0.7-2.2-6.7-2.7-8.6c-0.1-0.3-0.2-1.1-0.3-2c-0.1-0.8-0.2-1.6-0.3-2c0-1.9,0.1-3.6,0.2-5.2
	c0.1-0.7,0.1-1.4,0.1-2.2c0.2-3.5,1.2-9.8,1.2-9.8l0.2-1l0.1,1c0,0.1,0.8,8.4,1,11.5c0.1,1.2,0.9,6,0.9,6c0,0.1,0.5,7.4,0.9,10.3
	c0.1,0.8,0.2,1.4,0.3,2c0.3,1.5,0.3,2.3,0.3,3.3c-0.1,1.2,0,5.7,0.1,6.3l1.1,0.5l-0.2,0.1c0,0-0.2,0.1-0.6,0.5
	c-0.2,0.3-0.4,2.1-0.4,3.1L196.9,139.8z"/>
<g>
	<path class="st3" d="M152.5,319.3c0,0,1.5,2.4,4.7,2.4c2.8,0,5-2,5-4.7c0-2.7-2.3-4.6-5.2-4.7c-2.3,0-3.8,1.2-3.8,1.2l-1-0.4
		l0.9-7.9c0.1-1.2,0.5-1.7,1.7-1.7l6.5,0c1.1,0,1.7,0.6,1.7,1.7l0,2l-1.9,0l0-1.3c0-0.4-0.3-0.6-0.7-0.6l-5.1,0
		c-0.4,0-0.6,0.2-0.6,0.7l-0.5,4.5c-0.1,0.7-0.2,1.1-0.2,1.1l0.1,0c0,0,1.2-0.7,3-0.8c4,0,7,2.9,7,6.5c0,3.5-2.9,6.5-7,6.5
		c-3.9,0-5.9-2.8-5.9-2.8L152.5,319.3z"/>
	<path class="st3" d="M167.2,313.2c-0.1-5.7,1.7-10.2,6.8-10.3c5.2,0,6.9,4.5,6.9,10.2c0,5.8-1.7,10.3-6.8,10.3
		S167.3,319,167.2,313.2z M178.9,313.2c0-4.8-1.1-8.5-4.8-8.4c-3.7,0.1-4.8,3.7-4.8,8.5c0,4.8,1.1,8.5,4.9,8.4
		C178,321.6,178.9,317.9,178.9,313.2z"/>
	<path class="st3" d="M184.3,306.8c0-2.2,1.8-4,3.9-3.9c2.2,0.1,4,1.8,4,4c0,2.2-1.8,4-3.9,3.9C186.1,310.7,184.3,309,184.3,306.8z
		 M199.6,303.2l2,0l-15.1,19.9l-2.1,0L199.6,303.2z M190.5,306.8c0-1.2-1-2.3-2.3-2.4c-1.3,0-2.2,1.1-2.3,2.4c0,1.3,1,2.3,2.3,2.4
		C189.5,309.2,190.6,308.1,190.5,306.8z M197.8,315.6c2.2,0,4,1.8,4,4c0,2.2-1.7,3.9-3.9,3.9c-2.2,0-4-1.8-4-3.8
		C193.9,317.3,195.7,315.5,197.8,315.6z M197.9,321.8c1.3,0,2.3-1,2.3-2.4c0-1.2-1-2.3-2.3-2.4c-1.3,0-2.2,1.1-2.3,2.4
		C195.6,320.8,196.6,321.8,197.9,321.8z"/>
	<path class="st3" d="M132.2,335.1l-1.4,0.1l0-1.3l5.9,0c4.4,0,7.5,2.7,7.5,7.3c0,4.7-2.9,7.4-7.3,7.4l-3.3,0
		c-0.9,0-1.3-0.3-1.3-1.3L132.2,335.1z M134.2,347.3l2.5,0c3.6,0,6-2.1,5.9-6.1c0-3.9-2.4-6-6.1-6l-2.9,0.1l0,11.7
		C133.7,347.1,133.9,347.2,134.2,347.3z"/>
	<path class="st3" d="M151.5,337.7c3.1,0,5.6,2.3,5.6,5.4c0,3.2-2.5,5.5-5.5,5.6c-3.1,0-5.6-2.4-5.6-5.5
		C145.9,340,148.4,337.7,151.5,337.7z M151.5,347.4c2.3,0,4.1-1.8,4-4.3c0-2.4-1.9-4.2-4.1-4.2c-2.3,0-4.1,1.8-4.1,4.2
		C147.4,345.6,149.2,347.4,151.5,347.4z"/>
	<path class="st3" d="M159.7,339.6c0-0.3-0.2-0.5-0.5-0.4l-0.9,0l0-1.2l1.5,0c0.9,0,1.3,0.3,1.2,1.2l0,0.5c0,0.4,0,0.7,0,0.7l0,0
		c0.4-0.9,1.7-2.6,4.2-2.7c2.6,0,3.5,1.5,3.6,4l0,5c0,0.3,0.2,0.5,0.5,0.4l0.9,0l0,1.2l-1.5,0c-0.9,0-1.3-0.3-1.3-1.3l0-5.1
		c0-1.6-0.3-3.2-2.3-3.1c-1.8,0.1-3.3,1.3-3.8,3c-0.1,0.5-0.1,0.9-0.2,1.4l0,5.1l-1.5,0L159.7,339.6z"/>
	<path class="st3" d="M172.5,339.6c0-0.3-0.2-0.5-0.5-0.4l-0.9,0l0-1.2l1.5,0c0.9,0,1.3,0.3,1.2,1.2l0,0.5c0,0.4,0,0.7,0,0.7l0,0
		c0.4-0.9,1.7-2.6,4.2-2.7c2.6,0,3.5,1.5,3.6,4l0,5c0,0.3,0.2,0.5,0.5,0.4l0.9,0l0,1.2l-1.5,0c-0.9,0-1.3-0.3-1.3-1.3l0-5.1
		c0-1.6-0.3-3.2-2.3-3.1c-1.8,0.1-3.3,1.3-3.8,3c-0.1,0.5-0.1,0.9-0.2,1.4l0,5.1l-1.5,0L172.5,339.6z"/>
	<path class="st3" d="M189.5,337.6c2.9-0.1,4.5,2.2,4.4,4.9c0,0.2-0.1,0.7-0.1,0.7l-8.1,0c0,2.7,1.9,4.2,4.1,4.2
		c2,0,3.1-1.3,3.1-1.3l0.6,1.1c0,0-1.5,1.6-3.9,1.6c-3.1,0-5.5-2.3-5.6-5.5C184.3,339.6,186.6,337.5,189.5,337.6z M192.4,342
		c0-2.2-1.4-3.3-3-3.3c-1.7,0-3.3,1.1-3.7,3.3L192.4,342z"/>
	<path class="st3" d="M202.5,338.9l-1.4,0.1l0-1.2l1.5,0l-0.1-2.9l1.5,0l0.1,2.9l2.7,0l0,1.2l-2.7,0l0,5.4c0,2.5,1.5,2.8,2.4,2.8
		c0.3,0,0.5-0.1,0.5-0.1l0,1.2c0,0-0.2,0-0.6,0c-1.2,0-3.6-0.3-3.7-3.9L202.5,338.9z"/>
	<path class="st3" d="M209.5,339.4c0-0.3-0.2-0.5-0.5-0.4l-0.9,0l0-1.2l1.5,0c0.9,0,1.3,0.3,1.2,1.2l0,0.7c0,0.4,0,0.8,0,0.8l0,0
		c0.5-1.6,1.7-2.8,3.3-2.8c0.3,0,0.6,0.1,0.6,0.1l0,1.5c0,0-0.3-0.1-0.5,0c-1.5,0-2.6,1.2-3.1,2.7c-0.2,0.7-0.3,1.4-0.3,2.1l0,4.4
		l-1.5,0L209.5,339.4z"/>
	<path class="st3" d="M221.9,341.7l0.6,0l0-0.1c0-2.2-0.8-3-2.7-3c-0.5,0-2,0.2-2,0.9l0,0.6l-1.4,0.1l0-1c0-1.5,2.5-1.8,3.5-1.8
		c3.3-0.1,4.2,1.8,4.1,4l0,5.1c0,0.3,0.2,0.5,0.5,0.4l0.9,0l0,1.2l-1.5,0c-0.9,0-1.2-0.4-1.2-1.3c0-0.4,0-0.8,0-0.8l0,0
		c0,0-0.8,2.3-3.5,2.3c-1.8,0.1-3.6-1-3.6-3.1C215.3,341.9,220,341.7,221.9,341.7z M219.2,347.2c2,0,3.3-2.1,3.2-3.9l0-0.5l-0.6,0
		c-1.6,0-5,0-5,2.4C216.9,346.2,217.6,347.2,219.2,347.2z"/>
	<path class="st3" d="M135.4,360.3c0-0.3-0.2-0.5-0.5-0.4l-0.9,0l0-1.2l1.5,0c0.9,0,1.3,0.3,1.3,1.3l0.1,7.6c0,0.3,0.2,0.5,0.5,0.4
		l0.9,0l0,1.2l-1.5,0c-0.9,0-1.3-0.3-1.3-1.3L135.4,360.3z M135.4,354.5l1.4-0.1l0.1,1.8l-1.4,0.1L135.4,354.5z"/>
	<path class="st3" d="M150.1,358.4c2.6,0,3.4,1.9,3.4,1.9l0,0c0,0,0-0.3,0-0.8l0-3.4c0-0.3-0.2-0.5-0.5-0.4l-0.9,0l0-1.2l1.5,0
		c0.9,0,1.3,0.3,1.3,1.3l0,11.8c0,0.3,0.2,0.5,0.5,0.4l0.9,0l0,1.2l-1.5,0c-0.9,0-1.2-0.4-1.2-1.2c0-0.4,0.1-0.7,0.1-0.7l0,0
		c0,0-0.9,2.1-3.7,2.1c-2.8,0-4.6-2.2-4.6-5.6C145.3,360.6,147.3,358.4,150.1,358.4z M153.6,363.9c0-2.2-1.1-4.2-3.3-4.2
		c-1.9,0-3.4,1.6-3.4,4.3c0,2.6,1.4,4.3,3.3,4.3C151.9,368.1,153.6,366.9,153.6,363.9z"/>
	<path class="st3" d="M158.7,360.3c0-0.3-0.2-0.5-0.5-0.4l-0.9,0l0-1.2l1.5,0c0.9,0,1.3,0.3,1.3,1.3l0.1,7.6c0,0.3,0.2,0.5,0.5,0.4
		l0.9,0l0,1.2l-1.5,0c-0.9,0-1.3-0.3-1.3-1.3L158.7,360.3z M158.7,354.4l1.4-0.1l0.1,1.8l-1.4,0.1L158.7,354.4z"/>
	<path class="st3" d="M163.8,360.3c0-0.3-0.2-0.5-0.5-0.4l-0.9,0l0-1.2l1.5,0c0.9,0,1.3,0.3,1.2,1.2l0,0.7c0,0.4,0,0.8,0,0.8l0,0
		c0.5-1.6,1.7-2.8,3.3-2.8c0.3,0,0.6,0.1,0.6,0.1l0,1.5c0,0-0.3-0.1-0.5,0c-1.5,0-2.6,1.2-3.1,2.7c-0.2,0.7-0.3,1.4-0.3,2.1l0,4.4
		l-1.5,0L163.8,360.3z"/>
	<path class="st3" d="M171.6,360.2c0-0.3-0.2-0.5-0.5-0.4l-0.9,0l0-1.2l1.5,0c0.9,0,1.3,0.3,1.3,1.3l0.1,7.6c0,0.3,0.2,0.5,0.5,0.4
		l0.9,0l0,1.2l-1.5,0c-0.9,0-1.3-0.3-1.3-1.3L171.6,360.2z M171.5,354.3l1.4-0.1l0.1,1.8l-1.4,0.1L171.5,354.3z"/>
	<path class="st3" d="M180.4,358.2c2.8,0,3.6,1.8,3.6,1.8l0,0c0,0,0.1-0.2,0-0.4c0-0.7,0.3-1.2,1.2-1.1l1.5,0l0,1.2l-0.8,0
		c-0.3,0-0.5,0.2-0.4,0.5l0,8.6c0.1,3.3-2.5,4.6-5.1,4.7c-1.2,0-2.4-0.3-3.4-0.8l0.5-1.2c0,0,1.3,0.7,2.8,0.7c2.1,0,3.7-1,3.7-3.4
		l0-0.9c0-0.4,0-0.7,0-0.7l0,0c-0.6,1.2-1.6,1.8-3.3,1.8c-2.8,0-4.7-2.3-4.7-5.4C175.8,360.4,177.5,358.3,180.4,358.2z M183.9,363.6
		c0-3.1-1.5-4-3.4-4c-2.1,0-3.3,1.5-3.2,4c0.1,2.5,1.4,4.2,3.5,4.1C182.3,367.7,183.9,366.7,183.9,363.6z"/>
	<path class="st3" d="M193.1,358.3c2.9-0.1,4.5,2.2,4.4,4.9c0,0.2-0.1,0.7-0.1,0.7l-8.1,0c0,2.7,1.9,4.2,4.1,4.2
		c2,0,3.1-1.3,3.1-1.3l0.6,1.1c0,0-1.5,1.6-3.9,1.6c-3.1,0-5.5-2.3-5.6-5.5C187.9,360.3,190.2,358.2,193.1,358.3z M196.1,362.7
		c0-2.2-1.4-3.3-3-3.3c-1.7,0-3.3,1.1-3.7,3.3L196.1,362.7z"/>
	<path class="st3" d="M200.4,360.2c0-0.3-0.2-0.5-0.5-0.4l-0.9,0l0-1.2l1.5,0c0.9,0,1.3,0.3,1.2,1.2l0,0.5c0,0.4,0,0.7,0,0.7l0,0
		c0.4-0.9,1.7-2.6,4.2-2.7c2.6,0,3.5,1.5,3.6,4l0,5c0,0.3,0.2,0.5,0.5,0.4l0.9,0l0,1.2l-1.5,0c-0.9,0-1.3-0.3-1.3-1.3l0-5.1
		c0-1.6-0.3-3.2-2.3-3.1c-1.8,0.1-3.3,1.3-3.8,3c-0.1,0.5-0.1,0.9-0.2,1.4l0,5.1l-1.5,0L200.4,360.2z"/>
	<path class="st3" d="M213.3,359.5l-1.4,0.1l0-1.2l1.5,0l-0.1-2.9l1.5,0l0.1,2.9l2.7,0l0,1.2l-2.7,0l0,5.4c0,2.5,1.5,2.8,2.4,2.8
		c0.3,0,0.5-0.1,0.5-0.1l0,1.2c0,0-0.2,0-0.6,0c-1.2,0-3.6-0.3-3.7-3.9L213.3,359.5z"/>
	<path class="st3" d="M220.3,360c0-0.3-0.2-0.5-0.5-0.4l-0.9,0l0-1.2l1.5,0c0.9,0,1.3,0.3,1.3,1.3l0.1,7.6c0,0.3,0.2,0.5,0.5,0.4
		l0.9,0l0,1.2l-1.5,0c-0.9,0-1.3-0.3-1.3-1.3L220.3,360z M220.2,354.1l1.4-0.1l0.1,1.8l-1.4,0.1L220.2,354.1z"/>
</g>
</svg>
