<?xml version="1.0" encoding="utf-8"?>
<!-- Generator: Adobe Illustrator 22.0.0, SVG Export Plug-In . SVG Version: 6.00 Build 0)  -->
<svg version="1.1" baseProfile="basic" id="Livello_1"
	 xmlns="http://www.w3.org/2000/svg" xmlns:xlink="http://www.w3.org/1999/xlink" x="0px" y="0px" viewBox="0 0 150 16"
	 xml:space="preserve">
<style type="text/css">
	.st0{fill:#FF322B;}
	.st1{fill:#00245B;}
</style>
<path class="st0" d="M80.2,2.1c-0.4,0-0.7,0.1-1,0.3c-0.2-0.7-0.9-1.2-1.7-1.2c-0.4,0-0.7,0.1-1,0.3c-0.2-0.7-0.9-1.2-1.7-1.2
	s-1.4,0.5-1.7,1.2c-0.3-0.2-0.6-0.3-1-0.3c-1,0-1.8,0.8-1.8,1.8v2.1L69.4,6c-0.6,0.6-0.9,1.4-0.9,2.3v1.4c0,0.9,0.3,1.7,0.9,2.3
	l1.8,1.8c1.3,1.3,3.1,2.1,4.9,2.1c3.2,0,5.8-2.7,5.8-5.9V3.9C82,2.9,81.2,2.1,80.2,2.1z M81.1,9.8c0,2.8-2.2,5-4.9,5
	c-1.6,0-3.1-0.6-4.3-1.8l-1.8-1.8c-0.4-0.4-0.7-1-0.7-1.6V8.2c0-0.6,0.2-1.2,0.7-1.6l0.2-0.2v0.7c0,0.3,0.2,0.5,0.4,0.5
	c0.2,0,0.4-0.2,0.4-0.5V5.3c0,0,0,0,0,0V3c0-0.5,0.4-0.9,0.9-0.9S73,2.5,73,3v1.4c0,0.3,0.2,0.5,0.4,0.5c0.2,0,0.4-0.2,0.4-0.5V2.1
	c0-0.5,0.4-0.9,0.9-0.9c0.5,0,0.9,0.4,0.9,0.9v2.3c0,0.3,0.2,0.5,0.4,0.5c0.2,0,0.4-0.2,0.4-0.5V3c0-0.5,0.4-0.9,0.9-0.9
	c0.5,0,0.9,0.4,0.9,0.9v1.4c0,0.3,0.2,0.5,0.4,0.5c0.2,0,0.4-0.2,0.4-0.5V3.9c0-0.5,0.4-0.9,0.9-0.9s0.9,0.4,0.9,0.9V9.8z"/>
<g>
	<rect x="-0.9" y="7.6" class="st1" width="56.6" height="0.8"/>
</g>
<g>
	<rect x="92.5" y="7.6" class="st1" width="56.6" height="0.8"/>
</g>
</svg>
