<svg enable-background="new 0 0 805 550" viewBox="0 0 805 550" xmlns="http://www.w3.org/2000/svg"><path d="m66 358c0-42.8 150.6-77.5 336.5-77.5 185.8 0 336.5 34.7 336.5 77.5m-336.5-35.4v-71.5" style="fill:none;stroke:#4e5594;stroke-width:3;stroke-linecap:round;stroke-miterlimit:10;stroke-dasharray:0 9"/><path d="m402.5.5c74.1 0 134.2 60.1 134.2 134.2s-60.1 134.2-134.2 134.2-134.2-60.1-134.2-134.2 60.1-134.2 134.2-134.2z" fill="#f3352f"/><path d="m689.2 298.5c63.8 0 115.6 51.7 115.6 115.6 0 63.8-51.7 115.6-115.6 115.6s-115.6-51.7-115.6-115.6c.1-63.8 51.8-115.6 115.6-115.6zm-286.4 0c63.8 0 115.6 51.7 115.6 115.6 0 63.8-51.7 115.6-115.6 115.6-63.8 0-115.6-51.7-115.6-115.6 0-63.8 51.8-115.6 115.6-115.6zm-287 0c63.8 0 115.6 51.7 115.6 115.6 0 63.8-51.7 115.6-115.6 115.6s-115.6-51.7-115.6-115.6c0-63.8 51.8-115.6 115.6-115.6z" fill="#4e5594"/><path d="m780.5 547.5h-756" style="fill:none;stroke:#4e5594;stroke-width:3;stroke-linecap:round;stroke-miterlimit:10;stroke-dasharray:0 9"/><path d="m345.2 125.8h8.3v-27.3c0-1.1.1-2.1.1-2.1h-.1s-.4.8-1.9 2.2l-4 4-2.3-2.4 8.4-8.4h3.5v33.9h8.1v3.3h-20.2v-3.2zm25.4-.9h4.1v4.2h-4.1zm7.7-8.5 18.1-24.5h4v23.7h5.9v3.3h-5.9v10.3h-3.7v-10.3h-18.4zm18.4-16c0-1.6.2-3.6.2-3.6h-.1s-.9 1.5-1.9 2.9l-10.4 13.6c-1 1.3-2 2.3-2 2.3v.1s1.5-.2 3.1-.2h11.1zm15.5 24.6s2.3 1.3 5.4 1.3c7.8 0 11.8-7.8 12.4-15.3h-.1c-1.7 2.9-5.6 4.6-9.5 4.6-6.8 0-11.5-4.9-11.5-11.8 0-7.7 5.1-12.4 11.6-12.4 8.1 0 13.4 7.3 13.4 17 0 9.5-4.8 21.5-16.4 21.5-4.1 0-6.8-1.5-6.8-1.5zm17.9-19.1c0-4.9-3.9-11.2-9.4-11.2-5 0-8 3.8-8 8.9 0 5.2 3.3 8.6 8.4 8.6 5 0 9-3.3 9-6.3zm9.6 15.9s3.8 4.4 9.7 4.4c4.4 0 8.4-3.3 8.4-8 0-5-4.3-7.8-9-7.8h-2.6l-.8-2.2 9.2-11c.9-1.2 1.9-2.1 1.9-2.1v-.1s-1.1.2-3 .2h-9.7c-.7 0-1.2.4-1.2 1.2v2.5h-3.4v-3.7c0-2.3.8-3.2 3.1-3.2h18.9v2.4l-11 12.9c4.7.3 11.5 3 11.5 11 0 6.3-5.2 11.6-12.3 11.6-7.4 0-11.9-5.2-11.9-5.2zm-113.8 26.8h-2.4v-2.3h10.9c4.6 0 8 3 8 7.8s-3.4 7.9-8 7.9h-5.9v10.1h-2.6zm8.2 11.2c3.4 0 5.7-2.1 5.7-5.6s-2.2-5.5-5.6-5.5h-5.7v11.1zm13.1-11.2h-2.4v-2.3h14.8c1.6 0 2.2.7 2.2 2.2v2.6h-2.4v-1.7c0-.6-.3-.8-.8-.8h-8.8v9.4h9.7v2.3h-9.7v8.8c0 .5.3.8.8.8h9.1c.5 0 .8-.3.8-.8v-1.7h2.4v2.6c0 1.6-.7 2.2-2.2 2.2h-11.2c-1.6 0-2.2-.7-2.2-2.2zm20.5 0h-2.4v-2.3h10.9c4.3 0 7.4 2.9 7.4 7.3 0 4-2.5 6.4-5 6.9v.1s.5.3.9 1l3.7 7.3c.4.8.9.8 1.8.8h.5v2.3h-1.1c-2.1 0-2.7-.3-3.6-1.9l-3.7-7.4c-.7-1.4-1.2-1.5-2.6-1.5h-4.3v10.9h-2.6zm8.3 10.4c3.1 0 5-2 5-5.3 0-3.2-1.9-5.1-5-5.1h-5.8v10.4zm12.9 8.1s2.6 3.2 6.7 3.2c2.8 0 5.1-1.8 5.1-4.6 0-6.4-12.7-5.1-12.7-13.1 0-3.6 3.1-6.6 7.9-6.6 2.5 0 7 1.1 7 4.4v1.8h-2.4v-1.2c0-1.5-2.1-2.7-4.5-2.7-3.3 0-5.3 1.9-5.3 4.1 0 6 12.7 4.5 12.7 13 0 3.9-3 7.1-7.8 7.1-5.3 0-8.2-3.7-8.2-3.7zm30.6-21.2c7.3 0 13.1 5.8 13.1 13.2 0 7.6-5.8 13.5-13.1 13.5s-13.1-5.9-13.1-13.5c0-7.4 5.8-13.2 13.1-13.2zm0 24.3c5.8 0 10.5-4.8 10.5-11.1 0-6.1-4.7-10.8-10.5-10.8s-10.5 4.7-10.5 10.8c.1 6.2 4.7 11.1 10.5 11.1zm16.1-.3h1.6c.5 0 .8-.3.8-.8v-22.7h2.3l13.2 18.4c.9 1.3 2.1 3.4 2.1 3.4h.1s-.2-2-.2-3.4v-16.2c0-1.6.7-2.2 2.2-2.2h2.7v2.3h-1.6c-.5 0-.8.3-.8.8v22.7h-2.3l-13.2-18.4c-.9-1.2-2.1-3.3-2.1-3.3h-.1s.2 2 .2 3.3v16.2c0 1.6-.7 2.2-2.2 2.2h-2.7zm30.3-21.3h-2.4v-2.3h14.8c1.6 0 2.2.7 2.2 2.2v2.6h-2.4v-1.7c0-.6-.3-.8-.8-.8h-8.8v9.4h9.7v2.3h-9.7v8.8c0 .5.3.8.8.8h9.1c.5 0 .8-.3.8-.8v-1.7h2.4v2.6c0 1.6-.7 2.2-2.2 2.2h-11.2c-1.6 0-2.2-.7-2.2-2.2zm-379.8 241.4s2.1 3.3 6.5 3.3c4 0 7-2.8 7-6.6 0-3.9-3.2-6.6-7.3-6.6-3.2 0-5.4 1.6-5.4 1.6l-1.4-.6 1.2-11.3c.2-1.7.7-2.4 2.4-2.4h9.3c1.7 0 2.4.7 2.4 2.4v2.8h-2.6v-1.9c0-.6-.3-.9-.9-.9h-7.1c-.6 0-.8.3-.9.9l-.7 6.4c-.1 1-.2 1.6-.2 1.6h.1s1.8-1 4.3-1c5.7 0 9.9 4.1 9.9 9.2 0 5-4.2 9.2-9.9 9.2-5.6 0-8.3-4-8.3-4zm20.6-6.9c0-7.2 3.7-16.3 12.4-16.3 3.1 0 5.2 1.2 5.2 1.2l-1 2.4s-1.8-1-4.1-1c-5.9 0-8.9 5.9-9.4 11.6h.1c1.3-2.2 4.2-3.4 7.2-3.4 5.1 0 8.8 3.7 8.8 8.9 0 5.9-3.9 9.4-8.9 9.4-6.2 0-10.3-5.4-10.3-12.8zm10.2 10.2c3.8 0 6.1-2.9 6.1-6.8s-2.5-6.5-6.4-6.5c-3.8 0-6.8 2.5-6.8 4.8-.1 3.8 2.8 8.5 7.1 8.5zm14.3-3.3s2.1 3.3 6.5 3.3c4 0 7-2.8 7-6.6 0-3.9-3.2-6.6-7.3-6.6-3.2 0-5.4 1.6-5.4 1.6l-1.4-.6 1.2-11.3c.2-1.7.7-2.4 2.4-2.4h9.3c1.7 0 2.4.7 2.4 2.4v2.8h-2.6v-1.9c0-.6-.3-.9-.9-.9h-7.1c-.6 0-.8.3-.9.9l-.7 6.4c-.1 1-.2 1.6-.2 1.6h.1s1.8-1 4.3-1c5.7 0 9.9 4.1 9.9 9.2 0 5-4.2 9.2-9.9 9.2-5.6 0-8.3-4-8.3-4zm-71.7 36.9h1.8v-15.4h-1.8v-1.6h5.3v1.6h-1.8v15.4h1.8v1.7h-5.3zm8.9-9.6c0-.4-.2-.6-.6-.6h-1.1v-1.6h1.9c1.1 0 1.6.5 1.6 1.5v.6c0 .5-.1 1-.1 1h.1c.7-1.8 2.8-3.4 4.8-3.4 2.5 0 3.8 1.1 4.2 3.4h.1c.7-1.8 2.7-3.4 4.9-3.4 3.2 0 4.4 1.9 4.4 5.2v6.4c0 .4.2.6.6.6h1.1v1.6h-1.9c-1.1 0-1.6-.5-1.6-1.6v-6.4c0-2.2-.5-4-2.9-4-2 0-3.7 1.8-4.2 3.8-.2.6-.2 1.2-.2 1.9v6.3h-1.8v-8.1c0-2-.3-4-2.8-4-2.2 0-3.8 1.9-4.4 3.9-.2.6-.2 1.2-.2 1.8v6.3h-1.8v-11.2zm24.7 0c0-.4-.2-.6-.6-.6h-1.1v-1.6h1.8c1.1 0 1.6.5 1.6 1.4v.9h.1s1.1-2.6 4.6-2.6c3.6 0 5.8 2.9 5.8 7 0 4.2-2.5 7-6 7-3.3 0-4.4-2.5-4.4-2.5h-.1s.1.5.1 1.2v6.4h-1.8zm6.1 10c2.4 0 4.3-2 4.3-5.4 0-3.3-1.7-5.4-4.2-5.4-2.2 0-4.3 1.6-4.3 5.4-.1 2.7 1.4 5.4 4.2 5.4zm9.7-10c0-.4-.2-.6-.6-.6h-1.1v-1.6h1.9c1.1 0 1.6.5 1.6 1.6v9.6c0 .4.2.6.6.6h1.1v1.6h-1.9c-1.1 0-1.6-.5-1.6-1.6zm-.1-7.4h1.8v2.3h-1.8zm12 5c3.7 0 5.6 2.8 5.6 6.2 0 .3-.1.9-.1.9h-10.3c.1 3.4 2.4 5.3 5.2 5.3 2.4 0 4-1.7 4-1.7l.9 1.4s-1.9 1.9-5 1.9c-4 0-7-2.9-7-7 .1-4.4 3.1-7 6.7-7zm3.8 5.6c-.1-2.8-1.8-4.1-3.8-4.1-2.2 0-4.2 1.4-4.6 4.1zm10-5.6c3.6 0 4.4 2.3 4.4 2.3h.1v-.5c0-1 .4-1.5 1.5-1.5h1.9v1.6h-1.1c-.4 0-.6.2-.6.6v10.9c0 4.3-3.1 5.9-6.4 5.9-1.5 0-3.1-.4-4.4-1.1l.7-1.5s1.7.9 3.6.9c2.6 0 4.7-1.2 4.7-4.2v-2.2h-.1c-.8 1.5-2.1 2.3-4.2 2.3-3.6 0-6-2.8-6-6.9.1-3.9 2.3-6.6 5.9-6.6zm4.5 6.7c0-3.9-1.9-5.1-4.2-5.1-2.6 0-4.1 1.9-4.1 5.1s1.7 5.3 4.4 5.3c2 0 3.9-1.3 3.9-5.3zm13.3-1.3h.7v-.2c0-2.8-1-3.8-3.5-3.8-.7 0-2.6.2-2.6 1.2v.9h-1.7v-1.3c0-1.9 3.2-2.3 4.4-2.3 4.2 0 5.2 2.3 5.2 5.1v6.4c0 .4.2.6.6.6h1.1v1.6h-1.8c-1.1 0-1.6-.5-1.6-1.6v-1h-.1s-1.1 2.9-4.4 2.9c-2.2 0-4.6-1.3-4.6-4 .1-4.3 6-4.5 8.3-4.5zm-3.4 7c2.6 0 4.1-2.7 4.1-5v-.6h-.8c-2.1 0-6.3.1-6.3 3.1.1 1.3 1 2.5 3 2.5zm10.7-10.6h-1.8v-1.5h1.8v-3.7h1.8v3.7h3.4v1.5h-3.4v6.8c0 3.1 2 3.5 3 3.5.4 0 .6-.1.6-.1v1.6s-.3.1-.8.1c-1.5 0-4.7-.5-4.7-5v-6.9zm8.9.6c0-.4-.2-.6-.6-.6h-1.1v-1.6h1.9c1.1 0 1.6.5 1.6 1.6v9.6c0 .4.2.6.6.6h1.1v1.6h-1.9c-1.1 0-1.6-.5-1.6-1.6zm-.1-7.4h1.8v2.3h-1.8zm-94.1 33.9c3.7 0 5.6 2.8 5.6 6.2 0 .3-.1.9-.1.9h-10.3c.1 3.4 2.4 5.3 5.2 5.3 2.4 0 4-1.7 4-1.7l.9 1.4s-1.9 1.9-5 1.9c-4 0-7-2.9-7-7 .1-4.4 3.1-7 6.7-7zm3.8 5.6c-.1-2.8-1.8-4.1-3.8-4.1-2.2 0-4.2 1.4-4.6 4.1zm17.5-5.6c3.3 0 4.4 2.6 4.4 2.6h.1v-.9c0-.9.5-1.4 1.6-1.4h1.8v1.6h-1.1c-.4 0-.6.2-.6.6v16.6h-1.8v-6.4c0-.7.1-1.2.1-1.2h-.1s-1.1 2.6-4.6 2.6c-3.6 0-5.8-2.9-5.8-7 0-4.3 2.5-7.1 6-7.1zm4.4 7c0-2.7-1.4-5.4-4.3-5.4-2.4 0-4.3 2-4.3 5.4 0 3.3 1.8 5.4 4.3 5.4 2.2 0 4.3-1.6 4.3-5.4zm6.4-4.5c0-.4-.2-.6-.6-.6h-1.1v-1.6h1.9c1.1 0 1.6.5 1.6 1.6v6.5c0 2.1.3 4 2.9 4 3 0 4.9-2.7 4.9-5.6v-6.4h1.8v11.2c0 .4.2.6.6.6h1.1v1.6h-1.8c-1.1 0-1.6-.5-1.6-1.5v-.6c0-.5.1-1 .1-1h-.1c-.5 1.3-2.3 3.4-5.2 3.4-3.2 0-4.5-1.7-4.5-5.2zm23 3h.7v-.2c0-2.8-1-3.8-3.5-3.8-.7 0-2.6.2-2.6 1.2v.9h-1.6v-1.3c0-1.9 3.2-2.3 4.4-2.3 4.2 0 5.2 2.3 5.2 5.1v6.4c0 .4.2.6.6.6h1.1v1.6h-1.8c-1.1 0-1.6-.5-1.6-1.6v-1h-.1s-1.1 2.9-4.4 2.9c-2.2 0-4.6-1.3-4.6-4 0-4.4 5.9-4.5 8.2-4.5zm-3.3 7c2.6 0 4.1-2.7 4.1-5v-.6h-.8c-2.1 0-6.3.1-6.3 3.1 0 1.2 1 2.5 3 2.5zm15.3-12.5c3.2 0 4.4 2.5 4.4 2.5h.1s-.1-.5-.1-1v-4.3c0-.4-.2-.6-.6-.6h-1.1v-1.6h1.9c1.1 0 1.6.5 1.6 1.6v14.9c0 .4.2.6.6.6h1.1v1.6h-1.9c-1.1 0-1.6-.5-1.6-1.5 0-.5.1-.9.1-.9h-.1s-1.1 2.7-4.6 2.7c-3.6 0-5.8-2.9-5.8-7 0-4.2 2.5-7 6-7zm4.4 7c0-2.7-1.4-5.4-4.3-5.4-2.4 0-4.3 2-4.3 5.4 0 3.3 1.7 5.4 4.2 5.4 2.3 0 4.4-1.6 4.4-5.4zm6.4-4.5c0-.4-.2-.6-.6-.6h-1.1v-1.6h1.9c1.1 0 1.6.5 1.6 1.5v.9c0 .6-.1 1-.1 1h.1c.6-2 2.1-3.6 4.2-3.6.4 0 .7.1.7.1v1.8s-.3-.1-.7-.1c-1.9 0-3.3 1.5-3.9 3.5-.3.9-.4 1.8-.4 2.6v5.6h-1.8zm9.8 0c0-.4-.2-.6-.6-.6h-1.1v-1.6h1.9c1.1 0 1.6.5 1.6 1.6v9.6c0 .4.2.6.6.6h1.1v1.6h-1.9c-1.1 0-1.6-.5-1.6-1.6zm-.1-7.5h1.8v2.3h-1.8zm221.5-35.4s2.1 3.3 6.5 3.3c4 0 6.9-2.8 6.9-6.5 0-3.8-3.2-6.5-7.2-6.5-3.1 0-5.4 1.5-5.4 1.5l-1.4-.6 1.2-11.2c.2-1.7.7-2.4 2.4-2.4h9.2c1.7 0 2.4.7 2.4 2.4v2.8h-2.6v-1.9c0-.6-.3-.9-.9-.9h-7.1c-.6 0-.8.3-.9.9l-.7 6.3c-.1 1-.2 1.6-.2 1.6h.1s1.7-1 4.2-1c5.7 0 9.8 4 9.8 9.1 0 5-4.1 9.1-9.8 9.1-5.6 0-8.2-4-8.2-4zm19.3-4.1 13.6-18.4h3v17.8h4.4v2.5h-4.4v7.7h-2.8v-7.7h-13.8zm13.8-12c0-1.2.1-2.7.1-2.7h-.1s-.7 1.2-1.4 2.1l-7.7 10.2c-.8 1-1.5 1.7-1.5 1.7v.1s1.1-.1 2.3-.1h8.3zm-63.4 37.6h-1.7v-1.6h7.5c5.6 0 9.4 3.4 9.4 9.3 0 6-3.8 9.4-9.4 9.4h-4.2c-1.1 0-1.6-.5-1.6-1.6zm2.4 15.4h3.1c4.6 0 7.6-2.7 7.6-7.7s-3.1-7.7-7.6-7.7h-3.7v14.8c0 .4.2.6.6.6zm16.4-9.6c0-.4-.2-.6-.6-.6h-1.1v-1.6h1.9c1.1 0 1.6.5 1.6 1.6v9.6c0 .4.2.6.6.6h1.1v1.6h-1.9c-1.1 0-1.6-.5-1.6-1.6zm-.1-7.4h1.8v2.3h-1.8zm6.6 7.4c0-.4-.2-.6-.6-.6h-1.1v-1.6h1.9c1.1 0 1.6.5 1.6 1.5v.9c0 .6-.1 1-.1 1h.1c.6-2 2.1-3.6 4.2-3.6.4 0 .7.1.7.1v1.8s-.3-.1-.7-.1c-1.9 0-3.3 1.5-3.9 3.5-.3.9-.4 1.8-.4 2.6v5.6h-1.7zm9.8 0c0-.4-.2-.6-.6-.6h-1.1v-1.6h1.9c1.1 0 1.6.5 1.6 1.6v9.6c0 .4.2.6.6.6h1.1v1.6h-1.9c-1.1 0-1.6-.5-1.6-1.6zm-.1-7.4h1.8v2.3h-1.8zm11.3 5c3.6 0 4.4 2.3 4.4 2.3h.1v-.5c0-1 .4-1.5 1.5-1.5h1.9v1.6h-1.1c-.4 0-.6.2-.6.6v10.9c0 4.3-3.1 5.9-6.4 5.9-1.5 0-3.1-.4-4.4-1.1l.7-1.5s1.7.9 3.6.9c2.6 0 4.7-1.2 4.7-4.2v-2.2h-.1c-.8 1.5-2.1 2.3-4.2 2.3-3.6 0-6-2.8-6-6.9.1-3.9 2.3-6.6 5.9-6.6zm4.4 6.7c0-3.9-1.9-5.1-4.2-5.1-2.6 0-4.1 1.9-4.1 5.1s1.7 5.3 4.4 5.3c2 0 3.9-1.3 3.9-5.3zm11.7-6.7c3.7 0 5.6 2.8 5.6 6.2 0 .3-.1.9-.1.9h-10.3c.1 3.4 2.4 5.3 5.2 5.3 2.4 0 4-1.7 4-1.7l.9 1.4s-1.9 1.9-5 1.9c-4 0-7-2.9-7-7 .1-4.4 3.1-7 6.7-7zm3.8 5.6c-.1-2.8-1.8-4.1-3.8-4.1-2.2 0-4.2 1.4-4.6 4.1zm5.4-3.2c0-.4-.2-.6-.6-.6h-1.1v-1.6h1.9c1.1 0 1.6.5 1.6 1.5v.6c0 .5-.1 1-.1 1h.1c.5-1.2 2.2-3.4 5.3-3.4 3.3 0 4.5 1.9 4.5 5.2v6.4c0 .4.2.6.6.6h1.1v1.6h-1.9c-1.1 0-1.6-.5-1.6-1.6v-6.4c0-2.1-.3-4-2.9-4-2.3 0-4.3 1.6-4.9 3.8-.2.6-.2 1.2-.2 1.8v6.4h-1.8zm16.4-.6h-1.8v-1.5h1.8v-3.7h1.8v3.7h3.4v1.5h-3.4v6.8c0 3.1 2 3.5 3 3.5.4 0 .6-.1.6-.1v1.6s-.3.1-.8.1c-1.5 0-4.7-.5-4.7-5v-6.9zm8.9.6c0-.4-.2-.6-.6-.6h-1.1v-1.6h1.9c1.1 0 1.6.5 1.6 1.6v9.6c0 .4.2.6.6.6h1.1v1.6h-1.9c-1.1 0-1.6-.5-1.6-1.6zm-.1-7.4h1.8v2.3h-1.8zm216.4-43.9c0-.1-4-1.9-4-6.1 0-4 3.1-7.6 8.8-7.6 5.5 0 8.9 3.2 8.9 7.7 0 4.4-3.9 7.2-3.9 7.2v.1c2.7 1.4 4.7 3.3 4.7 6.7 0 4.5-4.2 8.4-9.7 8.4-5.1 0-9.9-3.2-9.9-8.7-.1-5.1 5.1-7.7 5.1-7.7zm4.7 13.7c3.4 0 6.8-2.4 6.8-5.7 0-3-2.5-4.2-5.5-5.5-1.1-.5-3.1-1.2-3.4-1.2-1.1 0-4.8 2.6-4.8 6.2 0 3.8 3.4 6.2 6.9 6.2zm2.4-13.7c1 0 3.7-2.9 3.7-5.9 0-3.1-2.5-5.1-6-5.1-3.7 0-5.9 2.2-5.9 4.9 0 3.1 2.6 4.2 5.6 5.3.7.2 2.1.8 2.6.8zm24.8-7.9c.8-1.6 1.6-2.7 1.6-2.7v-.1s-.7.1-2.2.1h-10.5c-.6 0-.9.3-.9.9v1.9h-2.7v-2.9c0-1.8.7-2.5 2.5-2.5h17.1v2l-14.4 27.1h-3.2zm3.4 13.8 14.1-19.1h3.1v18.5h4.6v2.6h-4.6v8h-2.9v-8h-14.3zm14.4-12.5c0-1.2.1-2.8.1-2.8h-.1s-.7 1.2-1.5 2.2l-8.1 10.7c-.8 1-1.5 1.8-1.5 1.8v.1s1.2-.1 2.4-.1h8.6zm-55.3 36.7c5.3 0 9.5 4.2 9.5 9.5 0 5.5-4.2 9.8-9.5 9.8s-9.5-4.3-9.5-9.8c0-5.3 4.2-9.5 9.5-9.5zm0 17.5c4.2 0 7.6-3.5 7.6-8 0-4.4-3.4-7.8-7.6-7.8s-7.6 3.4-7.6 7.8c0 4.5 3.4 8 7.6 8zm13-9.7c0-.4-.2-.6-.6-.6h-1.1v-1.6h1.8c1.1 0 1.6.5 1.6 1.4v.9h.1s1.1-2.6 4.6-2.6c3.6 0 5.8 2.9 5.8 7 0 4.2-2.5 7-6 7-3.3 0-4.4-2.5-4.4-2.5h-.1s.1.5.1 1.2v6.3h-1.8zm6 9.9c2.4 0 4.3-2 4.3-5.4 0-3.3-1.7-5.4-4.2-5.4-2.2 0-4.3 1.6-4.3 5.4-.1 2.7 1.4 5.4 4.2 5.4zm14.9-12.4c3.7 0 5.6 2.8 5.6 6.2 0 .3-.1.9-.1.9h-10.2c.1 3.4 2.4 5.3 5.2 5.3 2.4 0 4-1.6 4-1.6l.9 1.4s-1.9 1.9-5 1.9c-4 0-7-2.9-7-7 0-4.5 3-7.1 6.6-7.1zm3.7 5.6c-.1-2.8-1.8-4.1-3.8-4.1-2.2 0-4.1 1.4-4.6 4.1zm5.5-3.1c0-.4-.2-.6-.6-.6h-1.1v-1.6h1.9c1.1 0 1.6.5 1.6 1.5v.9c0 .6-.1 1-.1 1h.1c.6-2 2.1-3.6 4.2-3.6.4 0 .7.1.7.1v1.8s-.3-.1-.7-.1c-1.9 0-3.3 1.5-3.9 3.4-.3.8-.4 1.8-.4 2.6v5.6h-1.8zm15.6 2.9h.7v-.2c0-2.8-1-3.8-3.4-3.8-.7 0-2.6.2-2.6 1.2v.8h-1.7v-1.3c0-1.9 3.2-2.3 4.3-2.3 4.2 0 5.2 2.3 5.2 5.1v6.4c0 .4.2.6.6.6h1.1v1.6h-1.8c-1.1 0-1.6-.5-1.6-1.6v-1h-.1s-1.1 2.9-4.4 2.9c-2.2 0-4.5-1.3-4.5-4 0-4.2 5.9-4.4 8.2-4.4zm-3.3 7c2.5 0 4.1-2.7 4.1-5v-.5h-.8c-2.1 0-6.3.1-6.3 3 0 1.3 1 2.5 3 2.5zm10.6-9.9c0-.4-.2-.6-.6-.6h-1.1v-1.6h1.9c1.1 0 1.6.5 1.6 1.6v9.6c0 .4.2.6.6.6h1.1v1.6h-1.9c-1.1 0-1.6-.5-1.6-1.6zm-.1-7.5h1.8v2.3h-1.8zm-97.9 33c3.7 0 5.6 2.8 5.6 6.2 0 .3-.1.9-.1.9h-10.2c.1 3.4 2.4 5.3 5.2 5.3 2.4 0 4-1.6 4-1.6l.9 1.4s-1.9 1.9-5 1.9c-4 0-7-2.9-7-7 0-4.5 3-7.1 6.6-7.1zm3.7 5.6c-.1-2.8-1.8-4.1-3.8-4.1-2.2 0-4.1 1.4-4.6 4.1zm12.9-3.1c0-.4-.2-.6-.6-.6h-1.1v-1.6h1.9c1.1 0 1.6.5 1.6 1.6v9.6c0 .4.2.6.6.6h1.1v1.6h-1.9c-1.1 0-1.6-.5-1.6-1.6zm-.1-7.5h1.8v2.3h-1.8zm6.6 7.5c0-.4-.2-.6-.6-.6h-1.1v-1.6h1.9c1.1 0 1.6.5 1.6 1.5v.6c0 .5-.1 1-.1 1h.1c.5-1.2 2.2-3.4 5.3-3.4 3.3 0 4.5 1.9 4.5 5.2v6.3c0 .4.2.6.6.6h1.1v1.6h-1.9c-1.1 0-1.6-.5-1.6-1.6v-6.4c0-2.1-.3-4-2.9-4-2.3 0-4.2 1.6-4.9 3.8-.2.6-.2 1.2-.2 1.8v6.4h-1.8zm16.3-.7h-1.8v-1.5h1.8v-3.7h1.8v3.7h3.3v1.5h-3.3v6.8c0 3.1 2 3.5 3 3.5.4 0 .6-.1.6-.1v1.6s-.3.1-.8.1c-1.5 0-4.6-.5-4.6-5zm13.8-1.8c3.7 0 5.6 2.8 5.6 6.2 0 .3-.1.9-.1.9h-10.2c.1 3.4 2.4 5.3 5.2 5.3 2.4 0 4-1.6 4-1.6l.9 1.4s-1.9 1.9-5 1.9c-4 0-7-2.9-7-7 0-4.5 3-7.1 6.6-7.1zm3.7 5.6c-.1-2.8-1.8-4.1-3.8-4.1-2.2 0-4.1 1.4-4.6 4.1zm5.5-3.1c0-.4-.2-.6-.6-.6h-1.1v-1.6h1.9c1.1 0 1.6.5 1.6 1.5v.9c0 .6-.1 1-.1 1h.1c.6-2 2.1-3.6 4.2-3.6.4 0 .7.1.7.1v1.8s-.3-.1-.7-.1c-1.9 0-3.3 1.5-3.9 3.4-.3.8-.4 1.8-.4 2.6v5.6h-1.8v-11zm9.7 0c0-.4-.2-.6-.6-.6h-1.1v-1.6h1.9c1.1 0 1.6.5 1.6 1.5v.6c0 .5-.1 1-.1 1h.1c.7-1.8 2.8-3.4 4.8-3.4 2.5 0 3.7 1.1 4.1 3.3h.1c.7-1.8 2.7-3.3 4.9-3.3 3.2 0 4.4 1.9 4.4 5.2v6.3c0 .4.2.6.6.6h1.1v1.6h-1.9c-1.1 0-1.6-.5-1.6-1.6v-6.4c0-2.2-.5-4-2.9-4-2 0-3.7 1.8-4.2 3.8-.2.6-.2 1.2-.2 1.9v6.3h-1.8v-8c0-2-.3-4-2.8-4-2.2 0-3.8 1.9-4.3 3.9-.2.6-.2 1.2-.2 1.8v6.3h-1.8zm30.1-2.5c3.7 0 5.6 2.8 5.6 6.2 0 .3-.1.9-.1.9h-10.2c.1 3.4 2.4 5.3 5.2 5.3 2.4 0 4-1.6 4-1.6l.9 1.4s-1.9 1.9-5 1.9c-4 0-7-2.9-7-7 0-4.5 3-7.1 6.6-7.1zm3.7 5.6c-.1-2.8-1.8-4.1-3.8-4.1-2.2 0-4.1 1.4-4.6 4.1zm10.3-5.6c3.2 0 4.3 2.5 4.3 2.5h.1s-.1-.5-.1-1v-4.3c0-.4-.2-.6-.6-.6h-1.1v-1.6h1.9c1.1 0 1.6.5 1.6 1.6v14.9c0 .4.2.6.6.6h1.1v1.6h-1.9c-1.1 0-1.6-.5-1.6-1.5 0-.5.1-.8.1-.8h-.1s-1.1 2.7-4.6 2.7c-3.6 0-5.8-2.9-5.8-7 .1-4.3 2.6-7.1 6.1-7.1zm4.4 7c0-2.7-1.4-5.4-4.2-5.4-2.4 0-4.3 2-4.3 5.4 0 3.3 1.7 5.4 4.2 5.4 2.2 0 4.3-1.6 4.3-5.4zm6.5-4.5c0-.4-.2-.6-.6-.6h-1.1v-1.6h1.9c1.1 0 1.6.5 1.6 1.6v9.6c0 .4.2.6.6.6h1.1v1.6h-1.9c-1.1 0-1.6-.5-1.6-1.6zm-.1-7.5h1.8v2.3h-1.8z" fill="#fff"/></svg>