<?xml version="1.0" encoding="utf-8"?>
<!-- Generator: Adobe Illustrator 22.0.0, SVG Export Plug-In . SVG Version: 6.00 Build 0)  -->
<svg version="1.1" id="Livello_1" xmlns="http://www.w3.org/2000/svg" xmlns:xlink="http://www.w3.org/1999/xlink" x="0px" y="0px"
	 viewBox="0 0 805 550" style="enable-background:new 0 0 805 550;" xml:space="preserve">
<style type="text/css">
	.st0{fill:none;stroke:#4E5594;stroke-width:3;stroke-linecap:round;stroke-miterlimit:10;stroke-dasharray:0,9;}
	.st1{fill:#F3352F;}
	.st2{fill:#4E5594;}
	.st3{fill:#FFFFFF;}
</style>
<g>
	<path class="st0" d="M66,358c0-42.8,150.6-77.5,336.5-77.5c185.8,0,336.5,34.7,336.5,77.5"/>
	<line class="st0" x1="402.5" y1="322.6" x2="402.5" y2="251.1"/>
	<path class="st1" d="M402.5,0.5c74.1,0,134.2,60.1,134.2,134.2s-60.1,134.2-134.2,134.2s-134.2-60.1-134.2-134.2
		S328.4,0.5,402.5,0.5z"/>
	<g>
		<path class="st2" d="M689.2,298.5c63.8,0,115.6,51.7,115.6,115.6c0,63.8-51.7,115.6-115.6,115.6S573.6,478,573.6,414.1
			C573.7,350.3,625.4,298.5,689.2,298.5z"/>
		<path class="st2" d="M402.8,298.5c63.8,0,115.6,51.7,115.6,115.6c0,63.8-51.7,115.6-115.6,115.6c-63.8,0-115.6-51.7-115.6-115.6
			C287.2,350.3,339,298.5,402.8,298.5z"/>
		<path class="st2" d="M115.8,298.5c63.8,0,115.6,51.7,115.6,115.6c0,63.8-51.7,115.6-115.6,115.6S0.2,478,0.2,414.1
			C0.2,350.3,52,298.5,115.8,298.5z"/>
	</g>
	<path class="st0" d="M780.5,547.5h-756"/>
	<g>
		<path class="st3" d="M345.2,125.8h8.3V98.5c0-1.1,0.1-2.1,0.1-2.1h-0.1c0,0-0.4,0.8-1.9,2.2l-4,4l-2.3-2.4l8.4-8.4h3.5v33.9h8.1
			v3.3h-20.2v-3.2H345.2z"/>
		<path class="st3" d="M370.6,124.9h4.1v4.2h-4.1V124.9z"/>
		<path class="st3" d="M378.3,116.4l18.1-24.5h4v23.7h5.9v3.3h-5.9v10.3h-3.7v-10.3h-18.4L378.3,116.4L378.3,116.4z M396.7,100.4
			c0-1.6,0.2-3.6,0.2-3.6h-0.1c0,0-0.9,1.5-1.9,2.9l-10.4,13.6c-1,1.3-2,2.3-2,2.3v0.1c0,0,1.5-0.2,3.1-0.2h11.1L396.7,100.4
			L396.7,100.4z"/>
		<path class="st3" d="M412.2,125c0,0,2.3,1.3,5.4,1.3c7.8,0,11.8-7.8,12.4-15.3h-0.1c-1.7,2.9-5.6,4.6-9.5,4.6
			c-6.8,0-11.5-4.9-11.5-11.8c0-7.7,5.1-12.4,11.6-12.4c8.1,0,13.4,7.3,13.4,17c0,9.5-4.8,21.5-16.4,21.5c-4.1,0-6.8-1.5-6.8-1.5
			L412.2,125z M430.1,105.9c0-4.9-3.9-11.2-9.4-11.2c-5,0-8,3.8-8,8.9c0,5.2,3.3,8.6,8.4,8.6C426.1,112.2,430.1,108.9,430.1,105.9z"
			/>
		<path class="st3" d="M439.7,121.8c0,0,3.8,4.4,9.7,4.4c4.4,0,8.4-3.3,8.4-8c0-5-4.3-7.8-9-7.8h-2.6l-0.8-2.2l9.2-11
			c0.9-1.2,1.9-2.1,1.9-2.1V95c0,0-1.1,0.2-3,0.2h-9.7c-0.7,0-1.2,0.4-1.2,1.2v2.5h-3.4v-3.7c0-2.3,0.8-3.2,3.1-3.2h18.9v2.4
			l-11,12.9c4.7,0.3,11.5,3,11.5,11c0,6.3-5.2,11.6-12.3,11.6c-7.4,0-11.9-5.2-11.9-5.2L439.7,121.8z"/>
		<path class="st3" d="M325.9,148.6h-2.4v-2.3h10.9c4.6,0,8,3,8,7.8s-3.4,7.9-8,7.9h-5.9v10.1h-2.6V148.6z M334.1,159.8
			c3.4,0,5.7-2.1,5.7-5.6s-2.2-5.5-5.6-5.5h-5.7v11.1H334.1z"/>
		<path class="st3" d="M347.2,148.6h-2.4v-2.3h14.8c1.6,0,2.2,0.7,2.2,2.2v2.6h-2.4v-1.7c0-0.6-0.3-0.8-0.8-0.8h-8.8v9.4h9.7v2.3
			h-9.7v8.8c0,0.5,0.3,0.8,0.8,0.8h9.1c0.5,0,0.8-0.3,0.8-0.8v-1.7h2.4v2.6c0,1.6-0.7,2.2-2.2,2.2h-11.2c-1.6,0-2.2-0.7-2.2-2.2
			L347.2,148.6L347.2,148.6z"/>
		<path class="st3" d="M367.7,148.6h-2.4v-2.3h10.9c4.3,0,7.4,2.9,7.4,7.3c0,4-2.5,6.4-5,6.9v0.1c0,0,0.5,0.3,0.9,1l3.7,7.3
			c0.4,0.8,0.9,0.8,1.8,0.8h0.5v2.3h-1.1c-2.1,0-2.7-0.3-3.6-1.9l-3.7-7.4c-0.7-1.4-1.2-1.5-2.6-1.5h-4.3v10.9h-2.6L367.7,148.6
			L367.7,148.6z M376,159c3.1,0,5-2,5-5.3c0-3.2-1.9-5.1-5-5.1h-5.8V159L376,159L376,159z"/>
		<path class="st3" d="M388.9,167.1c0,0,2.6,3.2,6.7,3.2c2.8,0,5.1-1.8,5.1-4.6c0-6.4-12.7-5.1-12.7-13.1c0-3.6,3.1-6.6,7.9-6.6
			c2.5,0,7,1.1,7,4.4v1.8h-2.4V151c0-1.5-2.1-2.7-4.5-2.7c-3.3,0-5.3,1.9-5.3,4.1c0,6,12.7,4.5,12.7,13c0,3.9-3,7.1-7.8,7.1
			c-5.3,0-8.2-3.7-8.2-3.7L388.9,167.1z"/>
		<path class="st3" d="M419.5,145.9c7.3,0,13.1,5.8,13.1,13.2c0,7.6-5.8,13.5-13.1,13.5s-13.1-5.9-13.1-13.5
			C406.4,151.7,412.2,145.9,419.5,145.9z M419.5,170.2c5.8,0,10.5-4.8,10.5-11.1c0-6.1-4.7-10.8-10.5-10.8S409,153,409,159.1
			C409.1,165.3,413.7,170.2,419.5,170.2z"/>
		<path class="st3" d="M435.6,169.9h1.6c0.5,0,0.8-0.3,0.8-0.8v-22.7h2.3l13.2,18.4c0.9,1.3,2.1,3.4,2.1,3.4h0.1c0,0-0.2-2-0.2-3.4
			v-16.2c0-1.6,0.7-2.2,2.2-2.2h2.7v2.3h-1.6c-0.5,0-0.8,0.3-0.8,0.8v22.7h-2.3l-13.2-18.4c-0.9-1.2-2.1-3.3-2.1-3.3h-0.1
			c0,0,0.2,2,0.2,3.3V170c0,1.6-0.7,2.2-2.2,2.2h-2.7L435.6,169.9L435.6,169.9z"/>
		<path class="st3" d="M465.9,148.6h-2.4v-2.3h14.8c1.6,0,2.2,0.7,2.2,2.2v2.6h-2.4v-1.7c0-0.6-0.3-0.8-0.8-0.8h-8.8v9.4h9.7v2.3
			h-9.7v8.8c0,0.5,0.3,0.8,0.8,0.8h9.1c0.5,0,0.8-0.3,0.8-0.8v-1.7h2.4v2.6c0,1.6-0.7,2.2-2.2,2.2h-11.2c-1.6,0-2.2-0.7-2.2-2.2
			L465.9,148.6L465.9,148.6z"/>
	</g>
	<g>
		<path class="st3" d="M86.1,390c0,0,2.1,3.3,6.5,3.3c4,0,7-2.8,7-6.6c0-3.9-3.2-6.6-7.3-6.6c-3.2,0-5.4,1.6-5.4,1.6l-1.4-0.6
			l1.2-11.3c0.2-1.7,0.7-2.4,2.4-2.4h9.3c1.7,0,2.4,0.7,2.4,2.4v2.8h-2.6v-1.9c0-0.6-0.3-0.9-0.9-0.9h-7.1c-0.6,0-0.8,0.3-0.9,0.9
			l-0.7,6.4c-0.1,1-0.2,1.6-0.2,1.6h0.1c0,0,1.8-1,4.3-1c5.7,0,9.9,4.1,9.9,9.2c0,5-4.2,9.2-9.9,9.2c-5.6,0-8.3-4-8.3-4L86.1,390z"
			/>
		<path class="st3" d="M106.7,383.1c0-7.2,3.7-16.3,12.4-16.3c3.1,0,5.2,1.2,5.2,1.2l-1,2.4c0,0-1.8-1-4.1-1
			c-5.9,0-8.9,5.9-9.4,11.6h0.1c1.3-2.2,4.2-3.4,7.2-3.4c5.1,0,8.8,3.7,8.8,8.9c0,5.9-3.9,9.4-8.9,9.4
			C110.8,395.9,106.7,390.5,106.7,383.1z M116.9,393.3c3.8,0,6.1-2.9,6.1-6.8c0-3.9-2.5-6.5-6.4-6.5c-3.8,0-6.8,2.5-6.8,4.8
			C109.7,388.6,112.6,393.3,116.9,393.3z"/>
		<path class="st3" d="M131.2,390c0,0,2.1,3.3,6.5,3.3c4,0,7-2.8,7-6.6c0-3.9-3.2-6.6-7.3-6.6c-3.2,0-5.4,1.6-5.4,1.6l-1.4-0.6
			l1.2-11.3c0.2-1.7,0.7-2.4,2.4-2.4h9.3c1.7,0,2.4,0.7,2.4,2.4v2.8h-2.6v-1.9c0-0.6-0.3-0.9-0.9-0.9h-7.1c-0.6,0-0.8,0.3-0.9,0.9
			l-0.7,6.4c-0.1,1-0.2,1.6-0.2,1.6h0.1c0,0,1.8-1,4.3-1c5.7,0,9.9,4.1,9.9,9.2c0,5-4.2,9.2-9.9,9.2c-5.6,0-8.3-4-8.3-4L131.2,390z"
			/>
		<path class="st3" d="M59.5,426.9h1.8v-15.4h-1.8v-1.6h5.3v1.6H63v15.4h1.8v1.7h-5.3V426.9z"/>
		<path class="st3" d="M68.4,417.3c0-0.4-0.2-0.6-0.6-0.6h-1.1v-1.6h1.9c1.1,0,1.6,0.5,1.6,1.5v0.6c0,0.5-0.1,1-0.1,1h0.1
			c0.7-1.8,2.8-3.4,4.8-3.4c2.5,0,3.8,1.1,4.2,3.4h0.1c0.7-1.8,2.7-3.4,4.9-3.4c3.2,0,4.4,1.9,4.4,5.2v6.4c0,0.4,0.2,0.6,0.6,0.6
			h1.1v1.6h-1.9c-1.1,0-1.6-0.5-1.6-1.6v-6.4c0-2.2-0.5-4-2.9-4c-2,0-3.7,1.8-4.2,3.8c-0.2,0.6-0.2,1.2-0.2,1.9v6.3h-1.8v-8.1
			c0-2-0.3-4-2.8-4c-2.2,0-3.8,1.9-4.4,3.9c-0.2,0.6-0.2,1.2-0.2,1.8v6.3h-1.8v-11.2H68.4z"/>
		<path class="st3" d="M93.1,417.3c0-0.4-0.2-0.6-0.6-0.6h-1.1v-1.6h1.8c1.1,0,1.6,0.5,1.6,1.4c0,0.5,0,0.9,0,0.9h0.1
			c0,0,1.1-2.6,4.6-2.6c3.6,0,5.8,2.9,5.8,7c0,4.2-2.5,7-6,7c-3.3,0-4.4-2.5-4.4-2.5h-0.1c0,0,0.1,0.5,0.1,1.2v6.4h-1.8V417.3z
			 M99.2,427.3c2.4,0,4.3-2,4.3-5.4c0-3.3-1.7-5.4-4.2-5.4c-2.2,0-4.3,1.6-4.3,5.4C94.9,424.6,96.4,427.3,99.2,427.3z"/>
		<path class="st3" d="M108.9,417.3c0-0.4-0.2-0.6-0.6-0.6h-1.1v-1.6h1.9c1.1,0,1.6,0.5,1.6,1.6v9.6c0,0.4,0.2,0.6,0.6,0.6h1.1v1.6
			h-1.9c-1.1,0-1.6-0.5-1.6-1.6V417.3z M108.8,409.9h1.8v2.3h-1.8V409.9z"/>
		<path class="st3" d="M120.8,414.9c3.7,0,5.6,2.8,5.6,6.2c0,0.3-0.1,0.9-0.1,0.9H116c0.1,3.4,2.4,5.3,5.2,5.3c2.4,0,4-1.7,4-1.7
			l0.9,1.4c0,0-1.9,1.9-5,1.9c-4,0-7-2.9-7-7C114.2,417.5,117.2,414.9,120.8,414.9z M124.6,420.5c-0.1-2.8-1.8-4.1-3.8-4.1
			c-2.2,0-4.2,1.4-4.6,4.1H124.6z"/>
		<path class="st3" d="M134.6,414.9c3.6,0,4.4,2.3,4.4,2.3h0.1c0,0,0-0.2,0-0.5c0-1,0.4-1.5,1.5-1.5h1.9v1.6h-1.1
			c-0.4,0-0.6,0.2-0.6,0.6v10.9c0,4.3-3.1,5.9-6.4,5.9c-1.5,0-3.1-0.4-4.4-1.1l0.7-1.5c0,0,1.7,0.9,3.6,0.9c2.6,0,4.7-1.2,4.7-4.2
			v-1.2c0-0.5,0-1,0-1h-0.1c-0.8,1.5-2.1,2.3-4.2,2.3c-3.6,0-6-2.8-6-6.9C128.8,417.6,131,414.9,134.6,414.9z M139.1,421.6
			c0-3.9-1.9-5.1-4.2-5.1c-2.6,0-4.1,1.9-4.1,5.1c0,3.2,1.7,5.3,4.4,5.3C137.2,426.9,139.1,425.6,139.1,421.6z"/>
		<path class="st3" d="M152.4,420.3h0.7v-0.2c0-2.8-1-3.8-3.5-3.8c-0.7,0-2.6,0.2-2.6,1.2v0.9h-1.7v-1.3c0-1.9,3.2-2.3,4.4-2.3
			c4.2,0,5.2,2.3,5.2,5.1v6.4c0,0.4,0.2,0.6,0.6,0.6h1.1v1.6h-1.8c-1.1,0-1.6-0.5-1.6-1.6c0-0.6,0-1,0-1h-0.1c0,0-1.1,2.9-4.4,2.9
			c-2.2,0-4.6-1.3-4.6-4C144.2,420.5,150.1,420.3,152.4,420.3z M149,427.3c2.6,0,4.1-2.7,4.1-5v-0.6h-0.8c-2.1,0-6.3,0.1-6.3,3.1
			C146.1,426.1,147,427.3,149,427.3z"/>
		<path class="st3" d="M159.7,416.7h-1.8v-1.5h1.8v-3.7h1.8v3.7h3.4v1.5h-3.4v6.8c0,3.1,2,3.5,3,3.5c0.4,0,0.6-0.1,0.6-0.1v1.6
			c0,0-0.3,0.1-0.8,0.1c-1.5,0-4.7-0.5-4.7-5v-6.9H159.7z"/>
		<path class="st3" d="M168.6,417.3c0-0.4-0.2-0.6-0.6-0.6h-1.1v-1.6h1.9c1.1,0,1.6,0.5,1.6,1.6v9.6c0,0.4,0.2,0.6,0.6,0.6h1.1v1.6
			h-1.9c-1.1,0-1.6-0.5-1.6-1.6V417.3z M168.5,409.9h1.8v2.3h-1.8V409.9z"/>
		<path class="st3" d="M74.4,443.8c3.7,0,5.6,2.8,5.6,6.2c0,0.3-0.1,0.9-0.1,0.9H69.6c0.1,3.4,2.4,5.3,5.2,5.3c2.4,0,4-1.7,4-1.7
			l0.9,1.4c0,0-1.9,1.9-5,1.9c-4,0-7-2.9-7-7C67.8,446.4,70.8,443.8,74.4,443.8z M78.2,449.4c-0.1-2.8-1.8-4.1-3.8-4.1
			c-2.2,0-4.2,1.4-4.6,4.1H78.2z"/>
		<path class="st3" d="M95.7,443.8c3.3,0,4.4,2.6,4.4,2.6h0.1c0,0,0-0.4,0-0.9c0-0.9,0.5-1.4,1.6-1.4h1.8v1.6h-1.1
			c-0.4,0-0.6,0.2-0.6,0.6v16.6h-1.8v-6.4c0-0.7,0.1-1.2,0.1-1.2h-0.1c0,0-1.1,2.6-4.6,2.6c-3.6,0-5.8-2.9-5.8-7
			C89.7,446.6,92.2,443.8,95.7,443.8z M100.1,450.8c0-2.7-1.4-5.4-4.3-5.4c-2.4,0-4.3,2-4.3,5.4c0,3.3,1.8,5.4,4.3,5.4
			C98,456.2,100.1,454.6,100.1,450.8z"/>
		<path class="st3" d="M106.5,446.3c0-0.4-0.2-0.6-0.6-0.6h-1.1v-1.6h1.9c1.1,0,1.6,0.5,1.6,1.6v6.5c0,2.1,0.3,4,2.9,4
			c3,0,4.9-2.7,4.9-5.6v-6.4h1.8v11.2c0,0.4,0.2,0.6,0.6,0.6h1.1v1.6h-1.8c-1.1,0-1.6-0.5-1.6-1.5v-0.6c0-0.5,0.1-1,0.1-1h-0.1
			c-0.5,1.3-2.3,3.4-5.2,3.4c-3.2,0-4.5-1.7-4.5-5.2L106.5,446.3L106.5,446.3z"/>
		<path class="st3" d="M129.5,449.3h0.7v-0.2c0-2.8-1-3.8-3.5-3.8c-0.7,0-2.6,0.2-2.6,1.2v0.9h-1.6v-1.3c0-1.9,3.2-2.3,4.4-2.3
			c4.2,0,5.2,2.3,5.2,5.1v6.4c0,0.4,0.2,0.6,0.6,0.6h1.1v1.6H132c-1.1,0-1.6-0.5-1.6-1.6c0-0.6,0-1,0-1h-0.1c0,0-1.1,2.9-4.4,2.9
			c-2.2,0-4.6-1.3-4.6-4C121.3,449.4,127.2,449.3,129.5,449.3z M126.2,456.3c2.6,0,4.1-2.7,4.1-5v-0.6h-0.8c-2.1,0-6.3,0.1-6.3,3.1
			C123.2,455,124.2,456.3,126.2,456.3z"/>
		<path class="st3" d="M141.5,443.8c3.2,0,4.4,2.5,4.4,2.5h0.1c0,0-0.1-0.5-0.1-1V441c0-0.4-0.2-0.6-0.6-0.6h-1.1v-1.6h1.9
			c1.1,0,1.6,0.5,1.6,1.6v14.9c0,0.4,0.2,0.6,0.6,0.6h1.1v1.6h-1.9c-1.1,0-1.6-0.5-1.6-1.5c0-0.5,0.1-0.9,0.1-0.9h-0.1
			c0,0-1.1,2.7-4.6,2.7c-3.6,0-5.8-2.9-5.8-7C135.5,446.6,138,443.8,141.5,443.8z M145.9,450.8c0-2.7-1.4-5.4-4.3-5.4
			c-2.4,0-4.3,2-4.3,5.4c0,3.3,1.7,5.4,4.2,5.4C143.8,456.2,145.9,454.6,145.9,450.8z"/>
		<path class="st3" d="M152.3,446.3c0-0.4-0.2-0.6-0.6-0.6h-1.1v-1.6h1.9c1.1,0,1.6,0.5,1.6,1.5v0.9c0,0.6-0.1,1-0.1,1h0.1
			c0.6-2,2.1-3.6,4.2-3.6c0.4,0,0.7,0.1,0.7,0.1v1.8c0,0-0.3-0.1-0.7-0.1c-1.9,0-3.3,1.5-3.9,3.5c-0.3,0.9-0.4,1.8-0.4,2.6v5.6h-1.8
			L152.3,446.3L152.3,446.3z"/>
		<path class="st3" d="M162.1,446.3c0-0.4-0.2-0.6-0.6-0.6h-1.1v-1.6h1.9c1.1,0,1.6,0.5,1.6,1.6v9.6c0,0.4,0.2,0.6,0.6,0.6h1.1v1.6
			h-1.9c-1.1,0-1.6-0.5-1.6-1.6V446.3z M162,438.8h1.8v2.3H162V438.8z"/>
	</g>
	<g>
		<path class="st3" d="M383.5,403.4c0,0,2.1,3.3,6.5,3.3c4,0,6.9-2.8,6.9-6.5c0-3.8-3.2-6.5-7.2-6.5c-3.1,0-5.4,1.5-5.4,1.5
			l-1.4-0.6l1.2-11.2c0.2-1.7,0.7-2.4,2.4-2.4h9.2c1.7,0,2.4,0.7,2.4,2.4v2.8h-2.6v-1.9c0-0.6-0.3-0.9-0.9-0.9h-7.1
			c-0.6,0-0.8,0.3-0.9,0.9l-0.7,6.3c-0.1,1-0.2,1.6-0.2,1.6h0.1c0,0,1.7-1,4.2-1c5.7,0,9.8,4,9.8,9.1c0,5-4.1,9.1-9.8,9.1
			c-5.6,0-8.2-4-8.2-4L383.5,403.4z"/>
		<path class="st3" d="M402.8,399.3l13.6-18.4h3v17.8h4.4v2.5h-4.4v7.7h-2.8v-7.7h-13.8V399.3z M416.6,387.3c0-1.2,0.1-2.7,0.1-2.7
			h-0.1c0,0-0.7,1.2-1.4,2.1l-7.7,10.2c-0.8,1-1.5,1.7-1.5,1.7v0.1c0,0,1.1-0.1,2.3-0.1h8.3L416.6,387.3L416.6,387.3z"/>
		<path class="st3" d="M353.2,424.9h-1.7v-1.6h7.5c5.6,0,9.4,3.4,9.4,9.3c0,6-3.8,9.4-9.4,9.4h-4.2c-1.1,0-1.6-0.5-1.6-1.6V424.9z
			 M355.6,440.3h3.1c4.6,0,7.6-2.7,7.6-7.7s-3.1-7.7-7.6-7.7H355v14.8C355,440.1,355.2,440.3,355.6,440.3z"/>
		<path class="st3" d="M372,430.7c0-0.4-0.2-0.6-0.6-0.6h-1.1v-1.6h1.9c1.1,0,1.6,0.5,1.6,1.6v9.6c0,0.4,0.2,0.6,0.6,0.6h1.1v1.6
			h-1.9c-1.1,0-1.6-0.5-1.6-1.6V430.7z M371.9,423.3h1.8v2.3h-1.8V423.3z"/>
		<path class="st3" d="M378.5,430.7c0-0.4-0.2-0.6-0.6-0.6h-1.1v-1.6h1.9c1.1,0,1.6,0.5,1.6,1.5v0.9c0,0.6-0.1,1-0.1,1h0.1
			c0.6-2,2.1-3.6,4.2-3.6c0.4,0,0.7,0.1,0.7,0.1v1.8c0,0-0.3-0.1-0.7-0.1c-1.9,0-3.3,1.5-3.9,3.5c-0.3,0.9-0.4,1.8-0.4,2.6v5.6h-1.7
			V430.7z"/>
		<path class="st3" d="M388.3,430.7c0-0.4-0.2-0.6-0.6-0.6h-1.1v-1.6h1.9c1.1,0,1.6,0.5,1.6,1.6v9.6c0,0.4,0.2,0.6,0.6,0.6h1.1v1.6
			h-1.9c-1.1,0-1.6-0.5-1.6-1.6V430.7z M388.2,423.3h1.8v2.3h-1.8V423.3z"/>
		<path class="st3" d="M399.5,428.3c3.6,0,4.4,2.3,4.4,2.3h0.1c0,0,0-0.2,0-0.5c0-1,0.4-1.5,1.5-1.5h1.9v1.6h-1.1
			c-0.4,0-0.6,0.2-0.6,0.6v10.9c0,4.3-3.1,5.9-6.4,5.9c-1.5,0-3.1-0.4-4.4-1.1l0.7-1.5c0,0,1.7,0.9,3.6,0.9c2.6,0,4.7-1.2,4.7-4.2
			v-1.2c0-0.5,0-1,0-1h-0.1c-0.8,1.5-2.1,2.3-4.2,2.3c-3.6,0-6-2.8-6-6.9C393.7,431,395.9,428.3,399.5,428.3z M403.9,435
			c0-3.9-1.9-5.1-4.2-5.1c-2.6,0-4.1,1.9-4.1,5.1c0,3.2,1.7,5.3,4.4,5.3C402,440.3,403.9,439,403.9,435z"/>
		<path class="st3" d="M415.6,428.3c3.7,0,5.6,2.8,5.6,6.2c0,0.3-0.1,0.9-0.1,0.9h-10.3c0.1,3.4,2.4,5.3,5.2,5.3c2.4,0,4-1.7,4-1.7
			l0.9,1.4c0,0-1.9,1.9-5,1.9c-4,0-7-2.9-7-7C409,430.9,412,428.3,415.6,428.3z M419.4,433.9c-0.1-2.8-1.8-4.1-3.8-4.1
			c-2.2,0-4.2,1.4-4.6,4.1H419.4z"/>
		<path class="st3" d="M424.8,430.7c0-0.4-0.2-0.6-0.6-0.6h-1.1v-1.6h1.9c1.1,0,1.6,0.5,1.6,1.5v0.6c0,0.5-0.1,1-0.1,1h0.1
			c0.5-1.2,2.2-3.4,5.3-3.4c3.3,0,4.5,1.9,4.5,5.2v6.4c0,0.4,0.2,0.6,0.6,0.6h1.1v1.6h-1.9c-1.1,0-1.6-0.5-1.6-1.6V434
			c0-2.1-0.3-4-2.9-4c-2.3,0-4.3,1.6-4.9,3.8c-0.2,0.6-0.2,1.2-0.2,1.8v6.4h-1.8L424.8,430.7L424.8,430.7z"/>
		<path class="st3" d="M441.2,430.1h-1.8v-1.5h1.8v-3.7h1.8v3.7h3.4v1.5H443v6.8c0,3.1,2,3.5,3,3.5c0.4,0,0.6-0.1,0.6-0.1v1.6
			c0,0-0.3,0.1-0.8,0.1c-1.5,0-4.7-0.5-4.7-5v-6.9H441.2z"/>
		<path class="st3" d="M450.1,430.7c0-0.4-0.2-0.6-0.6-0.6h-1.1v-1.6h1.9c1.1,0,1.6,0.5,1.6,1.6v9.6c0,0.4,0.2,0.6,0.6,0.6h1.1v1.6
			h-1.9c-1.1,0-1.6-0.5-1.6-1.6V430.7z M450,423.3h1.8v2.3H450V423.3z"/>
	</g>
	<g>
		<path class="st3" d="M666.4,379.4L666.4,379.4c0-0.1-4-1.9-4-6.1c0-4,3.1-7.6,8.8-7.6c5.5,0,8.9,3.2,8.9,7.7
			c0,4.4-3.9,7.2-3.9,7.2v0.1c2.7,1.4,4.7,3.3,4.7,6.7c0,4.5-4.2,8.4-9.7,8.4c-5.1,0-9.9-3.2-9.9-8.7
			C661.2,382,666.4,379.4,666.4,379.4z M671.1,393.1c3.4,0,6.8-2.4,6.8-5.7c0-3-2.5-4.2-5.5-5.5c-1.1-0.5-3.1-1.2-3.4-1.2
			c-1.1,0-4.8,2.6-4.8,6.2C664.2,390.7,667.6,393.1,671.1,393.1z M673.5,379.4c1,0,3.7-2.9,3.7-5.9c0-3.1-2.5-5.1-6-5.1
			c-3.7,0-5.9,2.2-5.9,4.9c0,3.1,2.6,4.2,5.6,5.3C671.6,378.8,673,379.4,673.5,379.4z"/>
		<path class="st3" d="M698.3,371.5c0.8-1.6,1.6-2.7,1.6-2.7v-0.1c0,0-0.7,0.1-2.2,0.1h-10.5c-0.6,0-0.9,0.3-0.9,0.9v1.9h-2.7v-2.9
			c0-1.8,0.7-2.5,2.5-2.5h17.1v2l-14.4,27.1h-3.2L698.3,371.5z"/>
		<path class="st3" d="M701.7,385.3l14.1-19.1h3.1v18.5h4.6v2.6h-4.6v8H716v-8h-14.3L701.7,385.3L701.7,385.3z M716.1,372.8
			c0-1.2,0.1-2.8,0.1-2.8h-0.1c0,0-0.7,1.2-1.5,2.2l-8.1,10.7c-0.8,1-1.5,1.8-1.5,1.8v0.1c0,0,1.2-0.1,2.4-0.1h8.6L716.1,372.8
			L716.1,372.8z"/>
		<path class="st3" d="M660.8,409.5c5.3,0,9.5,4.2,9.5,9.5c0,5.5-4.2,9.8-9.5,9.8s-9.5-4.3-9.5-9.8
			C651.3,413.7,655.5,409.5,660.8,409.5z M660.8,427c4.2,0,7.6-3.5,7.6-8c0-4.4-3.4-7.8-7.6-7.8c-4.2,0-7.6,3.4-7.6,7.8
			C653.2,423.5,656.6,427,660.8,427z"/>
		<path class="st3" d="M673.8,417.3c0-0.4-0.2-0.6-0.6-0.6h-1.1v-1.6h1.8c1.1,0,1.6,0.5,1.6,1.4c0,0.5,0,0.9,0,0.9h0.1
			c0,0,1.1-2.6,4.6-2.6c3.6,0,5.8,2.9,5.8,7c0,4.2-2.5,7-6,7c-3.3,0-4.4-2.5-4.4-2.5h-0.1c0,0,0.1,0.5,0.1,1.2v6.3h-1.8V417.3z
			 M679.8,427.2c2.4,0,4.3-2,4.3-5.4c0-3.3-1.7-5.4-4.2-5.4c-2.2,0-4.3,1.6-4.3,5.4C675.5,424.5,677,427.2,679.8,427.2z"/>
		<path class="st3" d="M694.7,414.8c3.7,0,5.6,2.8,5.6,6.2c0,0.3-0.1,0.9-0.1,0.9H690c0.1,3.4,2.4,5.3,5.2,5.3c2.4,0,4-1.6,4-1.6
			l0.9,1.4c0,0-1.9,1.9-5,1.9c-4,0-7-2.9-7-7C688.1,417.4,691.1,414.8,694.7,414.8z M698.4,420.4c-0.1-2.8-1.8-4.1-3.8-4.1
			c-2.2,0-4.1,1.4-4.6,4.1H698.4z"/>
		<path class="st3" d="M703.9,417.3c0-0.4-0.2-0.6-0.6-0.6h-1.1v-1.6h1.9c1.1,0,1.6,0.5,1.6,1.5v0.9c0,0.6-0.1,1-0.1,1h0.1
			c0.6-2,2.1-3.6,4.2-3.6c0.4,0,0.7,0.1,0.7,0.1v1.8c0,0-0.3-0.1-0.7-0.1c-1.9,0-3.3,1.5-3.9,3.4c-0.3,0.8-0.4,1.8-0.4,2.6v5.6h-1.8
			L703.9,417.3L703.9,417.3z"/>
		<path class="st3" d="M719.5,420.2h0.7V420c0-2.8-1-3.8-3.4-3.8c-0.7,0-2.6,0.2-2.6,1.2v0.8h-1.7v-1.3c0-1.9,3.2-2.3,4.3-2.3
			c4.2,0,5.2,2.3,5.2,5.1v6.4c0,0.4,0.2,0.6,0.6,0.6h1.1v1.6h-1.8c-1.1,0-1.6-0.5-1.6-1.6c0-0.6,0-1,0-1h-0.1c0,0-1.1,2.9-4.4,2.9
			c-2.2,0-4.5-1.3-4.5-4C711.3,420.4,717.2,420.2,719.5,420.2z M716.2,427.2c2.5,0,4.1-2.7,4.1-5v-0.5h-0.8c-2.1,0-6.3,0.1-6.3,3
			C713.2,426,714.2,427.2,716.2,427.2z"/>
		<path class="st3" d="M726.8,417.3c0-0.4-0.2-0.6-0.6-0.6h-1.1v-1.6h1.9c1.1,0,1.6,0.5,1.6,1.6v9.6c0,0.4,0.2,0.6,0.6,0.6h1.1v1.6
			h-1.9c-1.1,0-1.6-0.5-1.6-1.6V417.3z M726.7,409.8h1.8v2.3h-1.8V409.8z"/>
		<path class="st3" d="M628.8,442.8c3.7,0,5.6,2.8,5.6,6.2c0,0.3-0.1,0.9-0.1,0.9h-10.2c0.1,3.4,2.4,5.3,5.2,5.3c2.4,0,4-1.6,4-1.6
			l0.9,1.4c0,0-1.9,1.9-5,1.9c-4,0-7-2.9-7-7C622.2,445.4,625.2,442.8,628.8,442.8z M632.5,448.4c-0.1-2.8-1.8-4.1-3.8-4.1
			c-2.2,0-4.1,1.4-4.6,4.1H632.5z"/>
		<path class="st3" d="M645.4,445.3c0-0.4-0.2-0.6-0.6-0.6h-1.1v-1.6h1.9c1.1,0,1.6,0.5,1.6,1.6v9.6c0,0.4,0.2,0.6,0.6,0.6h1.1v1.6
			H647c-1.1,0-1.6-0.5-1.6-1.6V445.3z M645.3,437.8h1.8v2.3h-1.8V437.8z"/>
		<path class="st3" d="M651.9,445.3c0-0.4-0.2-0.6-0.6-0.6h-1.1v-1.6h1.9c1.1,0,1.6,0.5,1.6,1.5v0.6c0,0.5-0.1,1-0.1,1h0.1
			c0.5-1.2,2.2-3.4,5.3-3.4c3.3,0,4.5,1.9,4.5,5.2v6.3c0,0.4,0.2,0.6,0.6,0.6h1.1v1.6h-1.9c-1.1,0-1.6-0.5-1.6-1.6v-6.4
			c0-2.1-0.3-4-2.9-4c-2.3,0-4.2,1.6-4.9,3.8c-0.2,0.6-0.2,1.2-0.2,1.8v6.4h-1.8L651.9,445.3L651.9,445.3z"/>
		<path class="st3" d="M668.2,444.6h-1.8v-1.5h1.8v-3.7h1.8v3.7h3.3v1.5H670v6.8c0,3.1,2,3.5,3,3.5c0.4,0,0.6-0.1,0.6-0.1v1.6
			c0,0-0.3,0.1-0.8,0.1c-1.5,0-4.6-0.5-4.6-5V444.6z"/>
		<path class="st3" d="M682,442.8c3.7,0,5.6,2.8,5.6,6.2c0,0.3-0.1,0.9-0.1,0.9h-10.2c0.1,3.4,2.4,5.3,5.2,5.3c2.4,0,4-1.6,4-1.6
			l0.9,1.4c0,0-1.9,1.9-5,1.9c-4,0-7-2.9-7-7C675.4,445.4,678.4,442.8,682,442.8z M685.7,448.4c-0.1-2.8-1.8-4.1-3.8-4.1
			c-2.2,0-4.1,1.4-4.6,4.1H685.7z"/>
		<path class="st3" d="M691.2,445.3c0-0.4-0.2-0.6-0.6-0.6h-1.1v-1.6h1.9c1.1,0,1.6,0.5,1.6,1.5v0.9c0,0.6-0.1,1-0.1,1h0.1
			c0.6-2,2.1-3.6,4.2-3.6c0.4,0,0.7,0.1,0.7,0.1v1.8c0,0-0.3-0.1-0.7-0.1c-1.9,0-3.3,1.5-3.9,3.4c-0.3,0.8-0.4,1.8-0.4,2.6v5.6h-1.8
			v-11H691.2z"/>
		<path class="st3" d="M700.9,445.3c0-0.4-0.2-0.6-0.6-0.6h-1.1v-1.6h1.9c1.1,0,1.6,0.5,1.6,1.5v0.6c0,0.5-0.1,1-0.1,1h0.1
			c0.7-1.8,2.8-3.4,4.8-3.4c2.5,0,3.7,1.1,4.1,3.3h0.1c0.7-1.8,2.7-3.3,4.9-3.3c3.2,0,4.4,1.9,4.4,5.2v6.3c0,0.4,0.2,0.6,0.6,0.6
			h1.1v1.6h-1.9c-1.1,0-1.6-0.5-1.6-1.6v-6.4c0-2.2-0.5-4-2.9-4c-2,0-3.7,1.8-4.2,3.8c-0.2,0.6-0.2,1.2-0.2,1.9v6.3h-1.8v-8
			c0-2-0.3-4-2.8-4c-2.2,0-3.8,1.9-4.3,3.9c-0.2,0.6-0.2,1.2-0.2,1.8v6.3H701L700.9,445.3L700.9,445.3z"/>
		<path class="st3" d="M731,442.8c3.7,0,5.6,2.8,5.6,6.2c0,0.3-0.1,0.9-0.1,0.9h-10.2c0.1,3.4,2.4,5.3,5.2,5.3c2.4,0,4-1.6,4-1.6
			l0.9,1.4c0,0-1.9,1.9-5,1.9c-4,0-7-2.9-7-7C724.4,445.4,727.4,442.8,731,442.8z M734.7,448.4c-0.1-2.8-1.8-4.1-3.8-4.1
			c-2.2,0-4.1,1.4-4.6,4.1H734.7z"/>
		<path class="st3" d="M745,442.8c3.2,0,4.3,2.5,4.3,2.5h0.1c0,0-0.1-0.5-0.1-1V440c0-0.4-0.2-0.6-0.6-0.6h-1.1v-1.6h1.9
			c1.1,0,1.6,0.5,1.6,1.6v14.9c0,0.4,0.2,0.6,0.6,0.6h1.1v1.6h-1.9c-1.1,0-1.6-0.5-1.6-1.5c0-0.5,0.1-0.8,0.1-0.8h-0.1
			c0,0-1.1,2.7-4.6,2.7c-3.6,0-5.8-2.9-5.8-7C739,445.6,741.5,442.8,745,442.8z M749.4,449.8c0-2.7-1.4-5.4-4.2-5.4
			c-2.4,0-4.3,2-4.3,5.4c0,3.3,1.7,5.4,4.2,5.4C747.3,455.2,749.4,453.6,749.4,449.8z"/>
		<path class="st3" d="M755.9,445.3c0-0.4-0.2-0.6-0.6-0.6h-1.1v-1.6h1.9c1.1,0,1.6,0.5,1.6,1.6v9.6c0,0.4,0.2,0.6,0.6,0.6h1.1v1.6
			h-1.9c-1.1,0-1.6-0.5-1.6-1.6V445.3z M755.8,437.8h1.8v2.3h-1.8V437.8z"/>
	</g>
</g>
</svg>
