<?xml version="1.0" encoding="utf-8"?>
<!-- Generator: Adobe Illustrator 22.0.0, SVG Export Plug-In . SVG Version: 6.00 Build 0)  -->
<svg version="1.1" baseProfile="basic" id="Livello_1"
	 xmlns="http://www.w3.org/2000/svg" xmlns:xlink="http://www.w3.org/1999/xlink" x="0px" y="0px" viewBox="0 0 195 44"
	 xml:space="preserve">
<style type="text/css">
	.st0{fill:#00245B;}
</style>
<g>
	<g>
		<path class="st0" d="M106.3-1.1c-12.1,0-22,9.9-22,22c0,12.1,9.9,22,22,22c12.1,0,22-9.9,22-22C128.3,8.8,118.4-1.1,106.3-1.1z
			 M106.3,41c-11.1,0-20.1-9-20.1-20.1c0-11.1,9-20.1,20.1-20.1c11.1,0,20.1,9,20.1,20.1C126.4,32,117.4,41,106.3,41z M106.3,16.1
			c-2.6,0-4.8,2.1-4.8,4.8c0,2.6,2.1,4.8,4.8,4.8s4.8-2.1,4.8-4.8C111.1,18.3,108.9,16.1,106.3,16.1z M106.3,23.8
			c-1.6,0-2.9-1.3-2.9-2.9c0-1.6,1.3-2.9,2.9-2.9c1.6,0,2.9,1.3,2.9,2.9C109.2,22.5,107.9,23.8,106.3,23.8z M102.5,12.3h7.7
			c0.4,0,0.7-0.2,0.8-0.5c0.2-0.3,0.1-0.7,0-1l-3.8-5.7c-0.4-0.5-1.2-0.5-1.6,0l-3.8,5.7c-0.2,0.3-0.2,0.7,0,1
			C101.8,12.1,102.1,12.3,102.5,12.3z M106.3,7.3l2,3.1h-4.1L106.3,7.3z M110.1,29.5h-7.7c-0.4,0-0.7,0.2-0.8,0.5
			c-0.2,0.3-0.1,0.7,0,1l3.8,5.7c0.2,0.3,0.5,0.4,0.8,0.4c0.3,0,0.6-0.2,0.8-0.4l3.8-5.7c0.2-0.3,0.2-0.7,0-1
			C110.8,29.7,110.5,29.5,110.1,29.5z M106.3,34.5l-2-3.1h4.1L106.3,34.5z"/>
	</g>
	<path class="st0" d="M0.9,24.1c0,0,1.2,1.4,3,1.4c1.1,0,2.1-0.7,2.1-1.8c0-2.5-5.8-2.1-5.8-5.9c0-1.8,1.6-3.2,3.8-3.2
		c1.3,0,3.4,0.6,3.4,2.2v1H5.8v-0.6c0-0.6-0.9-1.1-1.9-1.1c-1.3,0-2.1,0.7-2.1,1.6c0,2.4,5.8,1.9,5.8,5.8c0,1.8-1.4,3.4-3.8,3.4
		c-2.5,0-4-1.8-4-1.8L0.9,24.1z"/>
	<path class="st0" d="M16.6,14.7c1.6,0,4.5,0.7,4.5,2.6v1.2h-1.6v-0.7c0-1-1.7-1.5-2.9-1.5c-2.4,0-4.3,1.8-4.3,4.5
		c0,2.6,1.9,4.7,4.3,4.7c2.4,0,3.8-1.6,3.8-1.6l0.9,1.2c0,0-1.7,2-4.7,2c-3.6,0-6.1-2.8-6.1-6.3C10.6,17.3,13.2,14.7,16.6,14.7z"/>
	<path class="st0" d="M25.4,16.4h-1.1v-1.5h5.2c2.1,0,3.6,1.3,3.6,3.5c0,2-1.3,3-2.2,3.2v0c0,0,0.3,0.2,0.5,0.5l1.4,2.9
		c0.2,0.4,0.4,0.4,0.8,0.4H34v1.5h-0.8c-0.9,0-1.3-0.1-1.7-0.9l-1.6-3.2c-0.3-0.6-0.5-0.6-1.2-0.6h-1.6v4.8h-1.7V16.4z M29.3,20.7
		c1.3,0,2.1-0.8,2.1-2.2s-0.8-2.1-2-2.1h-2.2v4.3H29.3z"/>
	<path class="st0" d="M42.6,14.7c3.5,0,6.2,2.7,6.2,6.1c0,3.5-2.7,6.3-6.2,6.3c-3.5,0-6.2-2.8-6.2-6.3
		C36.4,17.4,39.1,14.7,42.6,14.7z M42.6,25.5c2.4,0,4.4-2,4.4-4.7c0-2.6-2-4.5-4.4-4.5s-4.4,2-4.4,4.5
		C38.2,23.5,40.1,25.5,42.6,25.5z"/>
	<path class="st0" d="M52.8,16.7c0-0.3-0.1-0.4-0.4-0.4h-0.7v-1.5h1.7c0.8,0,1.1,0.3,1.1,1.1v9.1c0,0.2,0.1,0.4,0.4,0.4h3.3
		c0.2,0,0.4-0.1,0.4-0.4v-0.8h1.5v1.5c0,0.8-0.3,1.1-1.1,1.1h-5.1c-0.8,0-1.1-0.3-1.1-1.1V16.7z"/>
	<path class="st0" d="M63.2,16.7c0-0.3-0.1-0.4-0.4-0.4H62v-1.5h1.7c0.8,0,1.1,0.3,1.1,1.1v9.1c0,0.2,0.1,0.4,0.4,0.4h3.3
		c0.2,0,0.4-0.1,0.4-0.4v-0.8h1.5v1.5c0,0.8-0.3,1.1-1.1,1.1h-5.1c-0.8,0-1.1-0.3-1.1-1.1V16.7z"/>
	<path class="st0" d="M136.8,16.4h-1.1v-1.5h4.9c3.7,0,6.1,2.2,6.1,6c0,3.8-2.4,6-6.1,6h-2.7c-0.8,0-1.1-0.3-1.1-1.1V16.4z
		 M138.9,25.4h1.6c2.7,0,4.4-1.6,4.4-4.6c0-2.9-1.8-4.5-4.4-4.5h-1.9v8.7C138.5,25.3,138.6,25.4,138.9,25.4z"/>
	<path class="st0" d="M155.6,14.7c3.5,0,6.2,2.7,6.2,6.1c0,3.5-2.7,6.3-6.2,6.3s-6.2-2.8-6.2-6.3C149.5,17.4,152.2,14.7,155.6,14.7z
		 M155.6,25.5c2.4,0,4.4-2,4.4-4.7c0-2.6-2-4.5-4.4-4.5s-4.4,2-4.4,4.5C151.3,23.5,153.2,25.5,155.6,25.5z"/>
	<path class="st0" d="M165.1,16.7c-0.1-0.3-0.3-0.4-0.6-0.4h-0.3v-1.5h1c0.8,0,1.3,0.2,1.5,1l1.9,7.7c0.2,0.6,0.2,1.3,0.2,1.3h0
		c0,0,0.1-0.6,0.3-1.3l2.4-8.7h1.5l2.2,8.7c0.2,0.7,0.3,1.3,0.3,1.3h0c0,0,0.1-0.6,0.2-1.3l1.9-7.7c0.2-0.8,0.6-1,1.5-1h1v1.5h-0.3
		c-0.3,0-0.5,0.1-0.6,0.4l-2.6,10.2h-2l-2-7.6c-0.2-0.8-0.3-1.6-0.3-1.6h0c0,0-0.2,0.9-0.4,1.6l-2.2,7.6h-2L165.1,16.7z"/>
	<path class="st0" d="M182.6,25.4h0.7c0.2,0,0.4-0.1,0.4-0.4V14.9h1.5l5.3,7.6c0.4,0.6,1,1.6,1,1.6h0c0,0-0.1-1-0.1-1.6V16
		c0-0.8,0.3-1.1,1.1-1.1h1.7v1.5h-0.7c-0.2,0-0.4,0.1-0.4,0.4v10.2h-1.5l-5.4-7.6c-0.4-0.6-1-1.6-1-1.6h0c0,0,0.1,1,0.1,1.6v6.5
		c0,0.8-0.3,1.1-1.1,1.1h-1.7V25.4z"/>
</g>
</svg>
