<svg baseProfile="basic" id="Layer_1" xmlns="http://www.w3.org/2000/svg" viewBox="0 0 250 112"><style>.st0{fill:#df0514}.st1{fill:#fff}.st2{fill:#0b1b32}</style><path class="st0" d="M117.1 26.4H89.2l22.5 16.4-8.6 26.6L125.7 53l22.5 16.4-8.6-26.6 22.5-16.4h-27.8L125.7-.1z"/><path class="st1" d="M96.1 28.7L114.4 42l-7 21.5 18.3-13.3 18.2 13.3L137 42l18.2-13.3h-22.5l-7-21.6-7 21.6z"/><path class="st0" d="M101.8 30.6l14.8 10.7-5.7 17.4L125.7 48l14.8 10.7-5.7-17.4 14.8-10.7h-18.2l-5.7-17.5-5.6 17.5z"/><path class="st2" d="M196.3 108.6c0 .2.3.3.5.3h3.4c1.3 0 2.9.1 3.2.1s.3-.2.1-.5-.7-1.1-.7-3 .1-9.9.1-9.9.1-.2.3 0 .7.6.7 1.2v10.7s-.1 1 .5 1.7c.4.5.6.4.5.7s-1.1.1-2.2.2h-5.2c-.2 0-.4.1-.3.3.1.3.1.5 1.2.6h7.1c.4 0 1 0 .8-.8-.1-.5-1.3-.8-1.6-2.4-.2-1.7 0-8.8 0-8.8s0-.3.2-.3 3.2 4.9 3.7 5.7c.5.8 2.3 3.6 2.5 3.9s.1.7 1.3.7c1.1.1 4.9.1 5 0 .1 0 .3-.2-.1-.7-.4-.5-.9-1.2-.9-3.3 0-2 .1-13.5.1-13.7 0-.1 0-3.3.1-3.7.2-.3.7-1 1.1-1.3.4-.2.4-.6.1-.6-.3 0-1.1-.1-7.9 0-.2 0-.6.1-.5.3 0 .2.4.3.7.6.3.3.9 1 1 1.8.1.7 0 5.1-.1 5.2-.2.2-.4-.2-.8-.9s-2.9-5-3.2-5.3c-.3-.4-.6-.7-1.1-.6-.4.3.4 1.1.5 1.4.2.4 3.1 5.3 3.7 6.3.6 1 .9 1.5 1 1.8 0 .3.1.6-.1.7-.2.1-2.1-3.1-3.1-4.6s-3.3-5.2-3.7-5.9c-.5-.7-.5-.9-1.7-.9h-6.1s-.4-.1-.4.2v.1c0 .3.8.7 1.1 1.4.3.7.4 1.1.4 3.1-.1 2 0 14.6 0 14.6s0 1.2-.3 2.1c-.5 1.1-.9 1.2-.9 1.5zM13.6 86.8s-.6.4-2 0-3.3-1.3-5-1.2c-1.7.1-4.4.8-5.5 3.6-.5 1.4-1.2 4.4 1.7 7.1 1.3 1.2 4.2 2.5 5.3 3.2.8.5 1.8 2 1.5 2.7-.2.4-.5.1-.7-.2-.2-.3-1.1-1.5-2.6-2.1-1.4-.6-2.3-1.6-2.8-1.9-.5-.4-.7-.5-.9-.3-.2.2 1.5 1.7 2.5 2.3.6.3 2.5 1.4 2.9 2.3s.5.9.4 1.2c-.1.3-1.4.7-3.2-.2-1.8-.8-2.9-1.4-4.7-2.9-.2-.2-.2-.2-.6-.2s0 1.5.1 2.3.7 4.7.7 5 .1.8.7.6c.6-.2 1.4-.4 2.8.2 1.5.6 3.1 1.6 6.1.9 1.6-.4 4-2 4.8-4.7.2-.8.9-3.8-1.3-6.6-1-1.2-4.3-3.1-4.9-3.5s-.6-1.1.1-1.3c.7-.1 2.9-.2 7 3.7.5.5.5.6.7.3.3-.3-.2-3.5-.4-5.3-.2-1.8-.3-2.5-.3-2.8s0-.8-.3-.7c-.3 0-.2.3-.2.9s0 1.1.2 2.8c.1 1.7.4 3.2.2 3.5-.2.3-.2.2-.8-.3-.6-.5-3-3-6.3-2.9-.6 0-.9.4-1 .6s-.2.6-.5.2-.6-.9-.1-1.6 2.6-.3 3.6.1c.9.5 2.9 1.8 3.4 2.2.4.4.6.5.8.1.1-.4-.6-6-.7-6.3-.3-.6-.3-.9-.7-.8z"/><path class="st2" d="M2.8 108.8s-.4.1-.3.3c.1.3.7.2 1 .2.4 0 1 0 1.8.5.8.4 2.6 1.5 5.5.9s5.6-3 6.1-6.5c.2-1.7-.7-4.4-1.2-4.4-.2 0-.1.5 0 .7.2.4.4 2 .3 3.2-.2 1.1-.1 3-2.8 5.2-1.1.9-2.7 1.7-5.3 1.3-1.4-.2-2.8-1.2-3.5-1.4-.7-.1-1.3-.1-1.6 0zm210.1 1.2s-.4-.1-.4.3.5.4 1 .4h5.2c.7 0 1.5.2 1.4-.4 0-.5.1-.3-.2-.7-.3-.4-1.1-1.3-1.2-2.3-.1-1.1-.2-3.6-.1-9.4 0-2.2-.1-7.7 0-8.4.1-.7.4-1.5.7-1.8s.2-.6 0-.5-1.4.3-1.5 2.1c-.1 1.6 0 6.1 0 7.6s.1 6.1 0 7.8c-.1 1.7-.1 3.4.3 3.8.3.5.7.9.7 1.2 0 .3-.2.2-1.3.3-.9-.1-4.4-.1-4.6 0zM62 85.7c1.1 0 1 .4 1.1.8l1.1 3.3c.4 1.2.3 1.4 0 1.4-.3.1-1.2-.4-1.8-.6-.6-.2-2.8-.1-4-.1-1.1 0-3.4 0-3.6.1-.2 0-.4.2-.4.3v2c0 1.1.3 1.1.7 1 .3 0 .4.1.6-.3s-.2-.8 0-1.5c.1-.3.2-.5.7-.5h5.7c1.5 0 1.9.1 2.5.2.5.1.8.4 1 .2.2-.2 0-.4-.1-.9 0-.5-.7-3-.7-3.2s-.1-.6.1-.6c.3 0 .6.4.7.8.2.3.8 3.1 1 3.7.2.7.7 2.2.3 2.4-.4.1-.5-.3-1.6-1-1-.7-1.5-.7-2-.7s-2.2 0-3.4-.1c-1.1 0-2.7-.1-3.1.1-.3.2-.2 1-.2 1.3.1.3.8.2 1.3.2 2.2 0 2.2-.2 2.8-.5.6-.3.5-.7.9-.6.3 0 .3.4.3 1v5.2c0 .7 0 1.2-.2 1.2s-.3 0-1.1-.5c-.7-.4-1.7-.5-2-.5s-2.7 0-3.4.1c-.7 0-.7.2-.8.4-.1.2 0 2.5 0 2.8 0 .4.1.9.3.9.9.1.8 0 .9-.3.1-.2 0-1.2 0-1.6s.2-.6.5-.6h4.7c1.1 0 1.2.3 1.5.5s.5.5.7.3c.2-.1.2-.4.2-.4v-6.7c0-.2-.1-.9.3-.9.6.1.6.9.6 1.8 0 .8.1 6.6.1 6.9s-.2 1.2.7 1.2c2.1.1 2.7-1.1 2.9-1.1.3.1.2.3.2.5-.1.3-1.8 4.9-1.9 5.5-.2.5-.7.5-1.1.5s-8.5 0-10-.1h-5.9c-.6 0-.5-.1-.6-.3 0-.2.4-.7.7-1.3.3-.9.3-2.2.3-2.4 0-.3-.1-12.8-.1-13.6 0-.8 0-2.8-.2-3.7-.2-.9-1.1-1.1-1.1-1.5s.5-.3.5-.3c1.6-.2 12.4-.2 13.4-.2zm-4.7 16s-.6 0-.6.4-.2 1.4.3 1.4h5.5s.6-.1.4-.5-.8-1.2-1.7-1.3c-1-.1-3.7 0-3.9 0z"/><path class="st2" d="M50.9 110.1s-.5 0-.5.3.9.3 1.6.3h10.1c1.4 0 4.9 0 5.1-.1s.3-.2.6-1 1.3-4 1.5-4.5c.2-.4.3-.9 0-1s-.4.2-.7 1c-.3.7-1.4 3.9-1.5 4.2-.1.2 0 .6-.9.7-.9.1-6.6 0-7.7 0-1.2.1-7.3.1-7.6.1zm61.3.1s-.5 0-.5.3.9.3 1.6.3h10.1c1.4 0 4.9 0 5.1-.1.2-.1.3-.2.6-1s1.2-3.8 1.3-4.2c.2-.5.1-1-.2-1.1s-.3.7-.6 1.4-1.2 3.2-1.3 3.5c-.1.2 0 .6-.9.7-.9.1-6.6 0-7.7 0-1.1.1-7.2.1-7.5.2zM40.6 85.8c1.3.1 2.9.8 3.7 1.7 2.7 3.2 2.7 5.6 1.8 7.9-1.4 3.4-4.7 4.3-5.6 4.4-1 .1-6.2.1-6.6.1s-.4.3-.4.4 0 4.6.1 6.3c0 1.7.3 1.6.5 2s-.2.5-.2.5-6.2.1-6.4 0c-.4-.2.1-.5.2-.8.8-1.2.6-1.3.6-2.2 0-.8-.1-6.2-.1-6.7s0-10.6-.1-11.6-.8-1.4-.8-1.7c0-.3.7-.3.7-.3 7.3-.2 11.3-.2 12.6 0zm-7 5s-.4 0-.4.5v2.3c.1.2.2.5.7.4.4 0 .3-.4.3-.8s-.2-1.1.3-1.2.7-.2 5.1 0c.3 0 .6 0 .6.3 0 .4-.6.4-.8.3-.2 0-3.4-.1-3.7 0-.3.1-.6.2-.6.8.1.6 0 .7 1.1.7s3 .1 3.5-.2c.5-.2 1-.7 1-1.7s-1-1.6-2.2-1.6c-.9.1-4.5.1-4.9.2z"/><path class="st2" d="M29.1 110s-.5.4.4.8c.3.1 6.2.1 6.6 0 .4 0 .9-.1.6-.7-.2-.4-1.1-.6-1.5-2.9-.1-1.9-.1-4.6 0-4.9s.1-.5.9-.6c.8 0 3.4.2 4.8.1s3.8-.4 5.7-3c.6-.9 1.3-1.7 1.4-4.3 0-1.2-.4-2.6-.8-2.5-.3 0-.1.7 0 1 0 .4.1 3.1-.9 4.6s-2.1 2.9-4.1 3.4c-1.4.4-4.1.1-6.4.2-1 0-1.4 0-1.5.6v3.4c0 1.6-.1 2.3.1 3.1.3 1.1.8 1.3.7 1.6 0 .3-.7.3-1.3.3-.5-.1-4.6-.3-4.7-.2zM72 85.7s-.4-.1-.4.4.6.2.7 2.3c.1 1.5.2 16.4.2 17.3 0 .9-.7 2-.9 2.5-.3.5-.6.8 0 .8s14.4-.1 14.7-.1.5.3.9-.9c.5-1.1 1.6-4.8 1.7-5 .1-.2.2-.5-.1-.6s-.5.4-1.5.8c-1 .3-1.7.3-7 .2-.4 0-.4-.4-.4-1.2V90.1c0-.4 0-1.6.6-2.1s.8-.8.6-1.1c-.2-.2-1.4.3-1.7 1.4-.4 1.1-.3.8-.3 4.1S79 103 79 103s.1.4-.5.4-.5-.3-.5-1.1-.2-13.8-.1-14.3.2-1.3.5-1.7c.3-.4.2-.7-.5-.7-.3 0-5.5.1-5.9.1z"/><path class="st2" d="M73.6 110s-.5 0-.5.3c0 .4.6.4 1.8.4s11.7 0 12.3.1c.4 0 1 0 1.2-.5s1.4-4.2 1.6-4.8c.2-.5.4-.9 0-1s-.4.5-.8 1.2c-.5.9-1.3 3.8-1.6 4.1-.2.3-1.4.2-2.7.2-1.4 0-11-.1-11.3 0zm19.1.1s-.5 0-.5.3c0 .4.6.4 1.8.4s11.7 0 12.3.1c.4 0 1 0 1.2-.5s1.4-4.2 1.6-4.8c.2-.5.4-.9 0-1s-.4.5-.8 1.2c-.5.9-1.3 3.8-1.6 4.1-.2.3-1.4.2-2.7.2-1.4 0-11-.1-11.3 0z"/><path class="st2" d="M91.1 85.8s-.4-.1-.4.4.6.2.7 2.2c.1 1.5.2 16.4.2 17.3 0 .9-.7 2-.9 2.5-.3.5 0 .7.6.7s13.8.1 14.1.1.5.3.9-.9c.5-1.1 1.6-4.8 1.7-5 .1-.2.2-.5-.1-.6s-.5.4-1.5.8c-1 .3-1.7.3-7 .2-.4 0-.4-.4-.4-1.2V90.2c0-.4 0-1.6.6-2.1s.8-.7.6-.9c-.2-.2-1.4.1-1.7 1.2-.4 1.1-.3.8-.3 4.1s-.1 10.6-.1 10.6.1.4-.5.4-.5-.3-.5-1.1-.2-13.8-.1-14.3.2-1.3.5-1.7c.3-.4.2-.7-.5-.7-.3 0-5.5.1-5.9.1zm56.5-.2s-2-1-6.1-.2c-4.1.7-9.2 4.7-9.3 11.7 0 2.7 1.2 9.9 9.6 12.1 3.6 1 9-.9 10.7-3.2 1.7-2.2 2.2-2.8 2.6-3.1.3-.4.5-.9.4-1.9 0-1.1-.2-3.1 0-3.6s.8-1 .3-1.2c-.4-.2-6.3.1-6.5.1s-.4.1-.1.5c.3.4.8.7.5 3.4-.1.8-2.1 3.5-5.3 3.4-1.9 0-6.3-1.6-6.3-6.4 0-2.1 1.7-5.1 4.1-5.6 2.4-.6 3.2-.6 6.2 1 .7.3.7.8 1 .3.4-.5 2.9-5.2 2.9-5.2s.2-.5 0-.6-.7.5-1.9-.2c-1.2-.6-1.8-1.1-2.8-1.3z"/><path class="st2" d="M141.8 92.9s-3 1.5-2.8 5.4c.1 1.6.8 2.5 1.7 3.1.4.3.3-.1.1-.6s-1.5-3.5.4-5.9c.8-1 2.5-2.1 4.5-1.7s2.8.8 4.1 2c.3.3.4.4.7-.2.2-.5 1.5-2.3 1.9-3 .6-1.1 1.8-3 1.8-3.4s-.4-.4-.7 0c-.2.4-2.8 5.2-3.3 5.5-.4.2-1.3-.9-2.2-1.2-1.1-.3-3.3-1.3-6.2 0zm-3.1 16.1s2.4 2.3 7.5 2c2.6-.1 6.2-1.5 8.6-4.5.9-1.2 1.2-2.2 1.9-2.5.6-.3.6-.7.6-1 0-.4-.1-3.7.1-4.1.2-.4.6-.9.2-1.2-.4-.3-1.1.6-1.1 1.7s.2 3.2.1 3.5c-.2.7-.6.5-1 1.1-.4.5-.9 1.3-1.9 2.6-1 1.3-4.3 3.5-7.3 3.8-1.3.1-3.1.4-6.3-1.1-1.2-.6-1.6-.6-1.5-.5-.1 0-.4-.1.1.2zm46.2-23.3s-.9-.1-.7.3 1.1.9 1.2 2.6c.1 1.7.1 16.1 0 17.1-.1 1.1-.4 2.1-.7 2.4s-.3.9.5.9c1 0 6.2-.1 6.2-.1s.7.2.2-.6c-.4-.5-1-.2-1-3.2s.1-16.8.1-16.8 0-.8.5-1.3c.5-.6 1.2-1.3.4-1.4-.8 0-6.1.1-6.7.1z"/><path class="st2" d="M193.6 86.9s-1.6.1-1.7 1.6c-.1 1.7-.1 18.4-.1 18.6s-.1 1.1.3 1.6c.4.4.6.6.5 1-.1.4-2.2.2-3 .2s-4-.2-4 .1 0 .6 1 .6 5.6-.1 6.3 0 1.3.1 1.3-.5-.8-.9-1-1.5c-.3-.5-.5 0-.5-6.3s-.3-13.5.3-14.2c.4-.6.8-.9.6-1.2zm52 11.7c-.6 8.5-8.6 11.4-12 11.3-9.8-.1-12.2-9.1-12-11.9.6-12.2 11.7-12.4 11.7-12.4 5.8-.2 12.9 4.5 12.3 13zm-12-7s-5.3.3-5.8 5.6c-.5 5.4 4.3 6.6 5.6 6.8 1.3.2 5.9-.9 6.5-5.4.5-4.5-3.1-7-6.3-7z"/><path class="st2" d="M235.2 92.5s-3.8-.2-5.8 3.1c-.6 1.1-1.8 4.1.1 6 .5.5.6.2.4-.4-.3-.6-.9-3.3.5-5.2 1.4-1.8 2.8-3 5.1-2.8.9.1 1.3.5 1.4.1.2-.4-.6-.7-1.7-.8zm9.4 12.7s-2.8 4.5-7.8 5.3c-4.2.6-5.8-.4-5.9-.1-.1.3 2.7.9 4.2.9s6.2-.3 9.5-4.4c1.5-1.9 3.2-4.7 3-9.2-.2-4.4-2.2-6.2-2.5-6.2s1.4 3.9 1.5 6.1c0 2.2.2 4.5-2 7.6zM123.4 85.7c1.1 0 1 .4 1.1.8l1.1 3.3c.4 1.2.3 1.4 0 1.4-.3.1-1.2-.4-1.8-.6s-2.8-.1-3.9-.1-3.4 0-3.6.1c-.2 0-.4.2-.4.3v2c0 1.1.3 1.1.7 1 .3 0 .4.1.6-.3.2-.4-.2-.8 0-1.5.1-.3.2-.5.7-.5h5.7c1.5 0 1.9.1 2.4.2s.8.4 1 .2c.2-.2 0-.4-.1-.9 0-.5-.7-3-.7-3.2s-.1-.6.1-.6c.3 0 .6.4.7.8.2.3.8 3.1 1 3.7.2.7.7 1.9.3 2s-.3 0-1.3-.7-1.7-.7-2.2-.7-2.2 0-3.4-.1c-1.1 0-2.7-.1-3.1.1-.3.2-.2 1-.2 1.3.1.3.8.2 1.3.2 2.2 0 2.2-.2 2.7-.5.6-.3.4-.3.8-.3.3 0 .3-.5.1.7-.1.6 0 4.3 0 5.1 0 .7.1 1.1-.1 1.1s-.2.2-.9-.3c-.7-.4-1.7-.5-2-.5s-2.7 0-3.4.1c-.7 0-.7.2-.8.4-.1.2 0 2.5 0 2.8 0 .4.1.9.3.9.9.1.8 0 .9-.3.1-.2 0-1.2 0-1.6s.2-.6.5-.6h4.7c1.1 0 1.2.3 1.5.5s.5.5.7.3c.2-.1.2-.4.2-.4v-6.7c0-.2-.1-.9.3-.9.6.1.6.9.6 1.8 0 .8.1 6.6.1 6.9s-.2 1.2.7 1.2c2.1.1 2.8-1.2 3-1.1.3.1.2.3.2.5-.1.3-1.5 4.8-1.7 5.4-.2.5-1.1.6-1.6.6-.4 0-8.5 0-10-.1h-5.9c-.6 0-.5-.1-.6-.3 0-.2.4-.7.7-1.3.3-.9.3-2.2.3-2.4 0-.3-.1-12.8-.1-13.6 0-.8 0-2.8-.2-3.7-.2-.9-1.1-1.1-1.1-1.5s.5-.3.5-.3c1.7-.1 12.5-.1 13.6-.1zm-4.8 16.1s-.6 0-.6.4-.2 1.4.3 1.4h5.5s.6-.1.4-.5c-.2-.4-.8-1.2-1.7-1.3s-3.7 0-3.9 0zm40.8-16.1h13.2c1.3 0 2.6.3 3.6 1.5 1.9 2.3 2.7 3.2 2.7 5.2 0 4.1-3.3 6.2-3.8 6.4-.6.2-.6.6 0 .9s2.1 2.5 3 3.7 1.8 1.5 2.2 1.6 1.2 0 1.1 1.1c-.4 2.7-2.3 3.3-4.2 3-1.9-.4-4.6-3.6-5-5.3-.6-2.5-1-2.6-2.4-3.7s-3.5-.8-3.9-.6c-.4.2-.3 2.4-.2 5.2.1 2.9 1.1 3.2 1.4 3 .3-.2 0-5.2 0-6.2 0-1.1 1-.7 2-.7 1.1 0 1.2.2 1.2.5s0 .4-1.1.3c-1.1 0-1 .1-1.2.3-.2.2 0 4.4.1 6s1.3 1.9 1.3 2.4-.8.4-1.1.4c-5.9-.1-6.7 0-7.8 0-1.3-.3-.5-.7.1-.7h6.7c.7 0 .4-.5.1-.9-.3-.4-2.5-.2-4.1-.2s-4.5 0-4.8-.2c-.2-.2.3-.5.6-.8 1.3-1.7 1-2.4 1.1-2.8.1-.5-.1-12.8-.1-15.6 0-2.8-1.5-3.2-1.5-3.2-.6-.5-.1-.6.8-.6zm7 5.1s-.8-.2-.8.6c0 .7-.2 2.8.3 3s1 0 1-.3-.1-2.1.5-2.1h4.9c.5 0 .6 0 .6.5s-1 .3-2 .3-3-.1-3 .2c-.1.2-.6 1.4.4 1.5s3.9.3 4.8-.5c.8-.8.9-2.7-1-3.1-.8-.2-5-.1-5.7-.1z"/><path class="st2" d="M182.5 105.8s-.4 0-.4.6-.2 3.5-3.4 3.6c-.9 0-1.6-.5-1.9-.2-.2.3 1.4 1.1 3 .9 2.9-.4 3.9-4.4 2.7-4.9zm-3.9-17s-.5-.3-.4.2c.2 1.1 1.4 2.3 1.4 4.3.1 2.2-.9 4.1-2 5.1-1.1 1.1-1.4.9-1.4 1.4 0 .4 1.4 1.4 2 2.3s1.1 2.2 1.7 1.7c.6-.4-1.5-3-1.9-3.4s-.7-.7-.3-1.1 2.5-2.4 2.6-4.5c.3-2.2.3-3.7-1.7-6zm69.6-.3c-.2 0-.4-.5-.7-1h-.3v.5c0 .2.1.3.3.3v.2h-1.1v-.2c.2 0 .3-.1.3-.3v-1.4c0-.2-.1-.3-.3-.3v-.2h1.2c.4 0 .7.2.7.6 0 .3-.2.5-.4.6l.3.5c.2.2.3.4.4.5v.1h-.4v.1zm-.9-1.3h.2c.3 0 .4-.2.4-.5s-.2-.4-.4-.4h-.2v.9zm2.4.1c0 1.2-.9 2.1-2.2 2.1-1.2 0-2.2-.9-2.2-2.1s.9-2.1 2.2-2.1c1.3 0 2.2.9 2.2 2.1zm-.5 0c0-.9-.7-1.8-1.7-1.8-.9 0-1.7.8-1.7 1.8 0 .9.7 1.8 1.7 1.8s1.7-.8 1.7-1.8zM23.7 105.9c0 1.6-1.3 2.8-2.8 2.8s-2.8-1.3-2.8-2.8c0-1.6 1.3-2.8 2.8-2.8 1.6 0 2.8 1.2 2.8 2.8z"/></svg>