<svg viewBox="0 0 240 242" xmlns="http://www.w3.org/2000/svg"><g fill="none"><path d="M221.1 157.6l12.6 4.2m-122.1 67.3l-1.2 12.6m22.3-231.2l-.9 9.5m51.7 188.7l8.1 11m-124.8-5.6l-6.9 10.5m130.6-195.9l-7.2 10.8m-137.5 157.6l-9.2 8.9m169.8-162.5l-8.8 8.5m-62.9 176.8l1.5 12" stroke="#1d1d1b" stroke-width=".75"/><path d="M26.9 170l-11.7 5.6m212.8-102l-11.6 5.6m-198.7 60.5l-10 1.5m230.3-33.6l-12.6 1.8" stroke="#12100b" stroke-width=".979"/><path d="M133.3 6.4l1.7.2" stroke="#1d1d1b"/><path d="M138.2 7c52.6 7.6 95.2 50.4 100.4 105.7 6.1 64.9-41.6 122.4-106.4 128.4-57.5 5.4-109.3-31.5-124.5-85.1" stroke="#1d1d1b" stroke-dasharray="3.3404 3.3404"/><path d="M7.2 154.4l-.4-1.6" stroke="#1d1d1b"/></g><circle cx="133.3" cy="6.4" fill="#1d1d1b" r="6.1"/><path d="M6.6 151.9l-5.7 3.5 3.2-12.1 9.2 8.4z" fill="#1d1d1b"/><path d="M121.7 30.5c51.9 0 94 42.2 94 94s-42.2 94-94 94-94-42.2-94-94 42.1-94 94-94m0-11c-58 0-105 47-105 105s47 105 105 105 105-47 105-105-47-105-105-105z" fill="#009c3d"/><path d="M121.7 41.3c45.9 0 83.3 37.4 83.3 83.3s-37.4 83.3-83.3 83.3-83.3-37.4-83.3-83.3c0-46 37.3-83.3 83.3-83.3m0-10.9c-52 0-94.1 42.1-94.1 94.1s42.1 94.1 94.1 94.1 94.1-42.1 94.1-94.1c0-51.9-42.1-94.1-94.1-94.1z" fill="#ee7900"/><path d="M175.3 69l-107.3 103.4m105.4 2l-103.4-107.4m93.3-8.1l-83.2 123.6m103.4-20.2l-123.7-83.2m135.1 27.5l-146.4 28.2m87.3 59.1l-28.2-146.4m88.6 72.8l-149-.8m73.3 75.7l2.3-149m50.1 41.3l-102.4 66.4m84.4 18l-66.4-102.4m92.9 63.6l-119.5-24.8m47.4 72.1l24.7-119.4m43.5 84.3l-111.7-49.2m31.3 80.5l49.1-111.8m32.3 33.7l-113.7 44.4m79 34.6l-44.3-113.6" stroke="#ececec" stroke-miterlimit="10" stroke-width=".74" fill="none"/><path d="M122.3 61.3l15.5 45.8 48.9-.1-41.1 28.1 15.8 45.7-39.4-28.4-42.4 28.4 16-45.6-41.3-28.2 52.5.1z" fill="#ebeae9"/><path d="M122.3 76.6l11.9 35.2h37.1l-31.5 21.5 12.1 35-29.9-21.8-32.9 21.8 12.1-35-31.5-21.5h40.7z" fill="#fff"/><path d="M122.7 83.9l10.1 29.9h31.3l-26.8 18.3 10.3 29.8-25.1-18.6-28.2 18.6 10.3-29.8-26.8-18.3h34.8z" fill="#ebeae9"/><path d="M122.3 76.7l5.9 17.2h18.3l-15.4 10.5 5.9 17.2-14.8-10.7-15.9 10.7 6-17.1-15.5-10.6h19.7z" fill="#e30520"/><path d="M122.3 82.5l4.5 13.1 13.9.1-11.8 8 4.6 13.2-11.3-8.2-12.3 8.2 4.5-13.2-11.8-8 15.3-.1z" fill="#fff"/><path d="M122.3 85.3l3.8 11.2h11.8l-10.1 6.9 3.9 11.2-9.5-7-10.5 7 3.8-11.2-10-6.9h13z" fill="#e30520"/><path d="M112.1 147.1c0-1.2-1-2.2-2.2-2.2h-4.9v7.5h1.1v-3.1h2.8l2.1 3.1h1.2l-2.1-3.1c1.3-.3 2-1 2-2.2zm-1.5.9c-.2.2-.5.3-.8.3h-3.8v-2.4h3.9c.8 0 1.1.7 1.1 1.2 0 .3-.2.7-.4.9zm9.1 1.8c0 1.1-1.2 1.6-2.4 1.6s-2.3-.6-2.3-1.6v-5h-1v5.1c0 .6.2 1.2.7 1.7.6.6 1.5.9 2.6.9h.1c2.3 0 3.5-.9 3.5-2.5v-5.1h-1v4.9zm8.5-4.9h-4.9v7.5h1.1v-3.1h3.7c1 0 1.9-.9 1.9-2.1 0-.6-.3-1.3-.7-1.8-.3-.3-.7-.5-1.1-.5zm.8 2.3c0 .3-.1.7-.4.9-.1.1-.3.2-.4.2h-3.8v-2.4h3.7c.4 0 .9.6.9 1.3zm7.7-2.3h-4.9v7.5h1.1v-3.1h3.7c1 0 1.9-.9 1.9-2.1 0-.6-.3-1.3-.7-1.8-.3-.3-.7-.5-1.1-.5zm.8 2.3c0 .3-.1.7-.4.9-.1.1-.3.2-.4.2h-3.8v-2.4h3.7c.5 0 .9.6.9 1.3zm6.3 5.3c1.3 0 2.4-.5 3.3-1.3.7-.7 1.1-1.6 1.1-2.6 0-2.7-2.2-3.9-4.3-3.9-1.2 0-2.3.5-3.2 1.3-.7.7-1.1 1.6-1.1 2.6 0 2.1 2 3.9 4.2 3.9zm-3.1-3.9c0-1.6 1.7-2.8 3.1-2.8.9 0 1.8.4 2.4 1 .5.5.8 1.1.8 1.8s-.3 1.4-.8 1.9c-.6.6-1.5 1-2.4 1-1.7 0-3.1-1.3-3.1-2.9zm-41.3.7h2.6v1.3c-.2.2-1 .8-2.5.8-2 0-3.2-1.1-3.2-2.9 0-1.6 1.2-2.7 3.1-2.8h.1c1.5 0 2.7.9 2.7.9l.1.1.7-.8-.1-.1c-1.2-.8-2.2-1.2-3.3-1.2-1.2 0-2.4.4-3.2 1.2-.7.7-1.1 1.6-1.1 2.6 0 2.4 1.7 3.9 4.3 3.9 2.4 0 3.5-1.4 3.5-1.5v-2.6h-3.7zm-37.8-17.4c0-.4.3-1 1.6-1l2.4.6-.2-2.7c-.2.2-.4.2-.6.2-.5-.1-1.1-.2-1.9-.2-2.9 0-4.2 1.7-4.2 3.3 0 3 4.6 3.3 4.6 5.4 0 .8-.8 1.2-1.7 1.2-1.9 0-3.2-.9-3.2-.9l.3 2.7c.2-.1.5-.1.7-.1.6.2 1.5.4 2.5.4 2.7 0 4.2-1.5 4.2-3.3.1-3.8-4.5-3.8-4.5-5.6zm97.1-1.8v10.5h2.6v-11.6h-3.1c0 .1.5.3.5 1.1zm-2.3 2.8c0-2.1-1.7-3.8-3.8-3.8h-5.6s.5.3.5.8v10.8h2.5v-4h1.5l2.3 4h2.8l-2.4-4.4c1.3-.6 2.2-1.9 2.2-3.4zm-6.4-1.4h2.3c.7 0 1.3.6 1.3 1.3s-.6 1.3-1.3 1.3h-2.3zm-6.8 3.3v1.9s-1 1.6-2.5 1.6c-1.2 0-3-1.2-3-3.4s1.6-3.4 3-3.4l2.2 1 1.2-2.3s-1.3-1.4-3.5-1.4c-2.9 0-5.4 2.4-5.4 6 0 3.7 2.8 6.1 5.4 6.1s3.6-1.6 5-3.1v-3.5h-2.9c.1 0 .5.2.5.5zm36.2-6c-3 0-5.5 2.7-5.5 6s2.4 6 5.5 6c3 0 5.5-2.7 5.5-6s-2.4-6-5.5-6zm0 9.3c-1.4 0-2.6-1.4-2.6-3.3s1.2-3.3 2.6-3.3 2.6 1.4 2.6 3.3-1.1 3.3-2.6 3.3zm-9.4-2.9l-3.5-6.1h-3.4s.5.2.5 1.1v10.5h2.4v-7.2l3.9 7.2h2.4v-11.6h-2.4v6.1zm-40.7.8h3.5v-2.5h-3.5v-2h4.5l-.6-2.5h-6.7s.5.2.5 1.1v10.6h6.7l.6-2.6h-4.9v-2.1zm-44.1-.8l-3.5-6.1h-3.4s.5.2.5 1.1v10.5h2.4v-7.2l3.9 7.2h2.4v-11.6h-2.4v6.1zm35.5-6.1h-3.1s.5.2.5 1.1v10.5h6.7l.6-2.6h-4.6v-9zm-51 0s.6.3.4 1l-3.1 10.6h2.3l.8-2.7h3.6l.9 2.7h2.8l-3.8-11.6zm1.1 6.6l1.1-3.7 1.2 3.7zm24.1-6.6h-5.5s.5.2.5 1.1v10.5h2.5v-4h2.5c2.1 0 3.8-1.7 3.8-3.8s-1.7-3.8-3.8-3.8zm-.2 5.1h-2.3v-2.7h2.3c.7 0 1.3.6 1.3 1.3 0 .8-.6 1.4-1.3 1.4zm17.1-5.1h-3.1s.5.2.5 1.1v10.5h6.7l.6-2.6h-4.6v-9zm-9.3 6.9h3.5v-2.5h-3.5v-2h4.5l-.6-2.5h-6.7s.5.2.5 1.1v10.6h6.7l.6-2.6h-4.9v-2.1zm19.2-84.4c40.2 0 73 32.7 73 73s-32.7 73-73 73-73-32.7-73-73 32.7-73 73-73m0-11c-46.4 0-84 37.6-84 84s37.6 84 84 84 84-37.6 84-84-37.6-84-84-84z" fill="#00295a"/></svg>