<svg id="Livello_1" xmlns="http://www.w3.org/2000/svg" viewBox="0 0 214.4 137.4"><style>.st0{fill:#002a5a}.st1{fill:#e40520}.st2{fill:#fff}</style><path class="st0" d="M93.3 116.1c0-1.7-1.5-3.2-3.2-3.2H83v11h1.5v-4.5h4.1l3 4.5h1.7l-3-4.6c2-.4 3-1.4 3-3.2zm-2.1 1.4c-.3.3-.7.4-1.1.4h-5.6v-3.5h5.7c1.2 0 1.5 1.1 1.5 1.7 0 .6-.2 1.1-.5 1.4zm13.3 2.7c0 1.5-1.8 2.4-3.5 2.4s-3.4-.8-3.4-2.4v-7.3H96v7.4c0 .9.4 1.8 1 2.4.9.9 2.2 1.3 3.8 1.3h.1c3.4 0 5.1-1.2 5.1-3.7v-7.4h-1.5v7.3zm12.4-7.3h-7.1v11h1.5v-4.6h5.5c1.5 0 2.8-1.3 2.8-3 0-.9-.4-1.9-1.1-2.6-.5-.5-1.1-.8-1.6-.8zm1.1 3.4c0 .5-.2 1-.5 1.3-.2.2-.4.3-.6.3h-5.6v-3.5h5.4c.6 0 1.3.9 1.3 1.9zm11.3-3.4h-7.1v11h1.5v-4.6h5.5c1.5 0 2.8-1.3 2.8-3 0-.9-.4-1.9-1.1-2.6-.5-.5-1-.8-1.6-.8zm1.1 3.4c0 .5-.2 1-.5 1.3-.2.2-.4.3-.6.3h-5.6v-3.5h5.4c.7 0 1.3.9 1.3 1.9zm9.3 7.7c1.8 0 3.6-.7 4.7-1.9 1-1 1.5-2.3 1.5-3.8 0-3.9-3.3-5.7-6.3-5.7-1.7 0-3.4.7-4.6 1.9-1 1-1.6 2.4-1.6 3.8.1 3.1 3 5.7 6.3 5.7zm-4.6-5.6c0-2.3 2.5-4.1 4.6-4.1h.1c1.3 0 2.6.5 3.5 1.4.7.7 1.1 1.7 1.1 2.7 0 1.1-.4 2-1.2 2.8-.9.9-2.2 1.4-3.5 1.4-2.6 0-4.6-1.9-4.6-4.2zm-60.3 1h3.9v1.9c-.3.2-1.5 1.2-3.6 1.2-2.9 0-4.7-1.6-4.7-4.2 0-2.4 1.8-4 4.5-4h.1c2.2 0 3.9 1.3 3.9 1.3l.2.1 1-1.1-.2-.1c-1.7-1.2-3.3-1.8-4.9-1.8-1.8 0-3.5.6-4.7 1.8-1.1 1-1.6 2.4-1.6 3.8 0 3.5 2.4 5.7 6.3 5.7 3.5 0 5.1-2 5.2-2.1V118h-5.4v1.4z"/><path class="st1" d="M108.3 13.4l8.5 25.1h26.8l-22.5 15.4 8.6 25-21.5-15.6-23.3 15.6 8.8-25-22.6-15.4h28.7z"/><path class="st2" d="M108.3 21.8l6.5 19.3h20.3l-17.2 11.8 6.6 19.2-16.3-12-18.1 12 6.7-19.2-17.3-11.8h22.3z"/><path class="st1" d="M108.3 26l5.5 16.4H131l-14.7 10 5.6 16.3-13.7-10.1-15.5 10.1 5.7-16.3-14.7-10h19.1z"/><path class="st0" d="M19.6 94.1c0-.6.4-1.5 2.4-1.5s3.5.9 3.5.9l-.3-4c-.2.2-.6.4-.9.3-.7-.1-1.6-.3-2.7-.3-4.2 0-6.1 2.5-6.1 4.8 0 4.4 6.7 4.8 6.8 7.9 0 1.2-1.2 1.8-2.4 1.8-2.8 0-4.7-1.3-4.7-1.3l.5 4c.3-.1.7-.2 1-.1.9.2 2.3.5 3.7.5 4 0 6.2-2.2 6.1-4.9-.1-5.7-6.9-5.5-6.9-8.1zm141.7-2.7v15.4h3.9v-17h-4.5s.6.4.6 1.6zm-3.3 4c0-3.1-2.5-5.6-5.6-5.6h-8.1s.7.5.7 1.2v15.7h3.7v-5.8h2.3l3.3 5.8h4.1l-3.6-6.4c1.9-.8 3.2-2.7 3.2-4.9zm-9.3-1.9h3.4c1.1 0 1.9.9 1.9 1.9 0 1.1-.9 1.9-1.9 1.9h-3.4v-3.8zm-9.9 4.7v2.8s-1.4 2.3-3.6 2.3c-1.8 0-4.4-1.7-4.4-4.9s2.3-5 4.4-5 3.3 1.4 3.3 1.4l1.7-3.4s-1.9-2-5.2-2c-4.3 0-7.9 3.5-7.9 8.8s4 8.8 7.9 8.8c3.9 0 5.2-2.4 7.3-4.5v-5.2h-4.2c.1.2.7.5.7.9zm52.8-8.7c-4.4 0-8 3.9-8 8.8s3.6 8.8 8 8.8 8-3.9 8-8.8-3.6-8.8-8-8.8zm0 13.6c-2.1 0-3.8-2-3.8-4.8 0-2.7 1.7-4.8 3.8-4.8s3.8 2 3.8 4.8c0 2.7-1.7 4.8-3.8 4.8zm-13.8-4.3l-5-9h-4.9s.7.3.7 1.5v15.4h3.6V96.2l5.7 10.6h3.5v-17h-3.6v9zm-59.3 1.2h5v-3.6h-5v-2.9h6.5l-.9-3.6h-9.8s.7.3.7 1.5v15.4h9.7l.9-3.8h-7.1v-3zm-64.4-1.2l-5-9h-4.9s.7.3.7 1.5v15.4h3.6V96.2l5.7 10.6h3.5v-17h-3.6v9zm51.7-9h-4.6s.7.4.7 1.6v15.4h9.7l.9-3.8h-6.8V89.8zm-74.3 0s.9.5.6 1.5l-4.5 15.4H31l1.1-4h5.3l1.3 4h4.1l-5.5-16.9h-5.8zm1.5 9.8l1.6-5.4 1.8 5.4H33zm35.2-9.8h-8.1s.7.3.7 1.5v15.4h3.7v-5.8h3.7c3.1 0 5.6-2.5 5.6-5.6 0-3-2.5-5.5-5.6-5.5zm-.2 7.6h-3.4v-3.9H68c1.1 0 1.9.9 1.9 1.9 0 1.1-.9 2-1.9 2zm24.9-7.6h-4.6s.7.4.7 1.6v15.4h9.7l.9-3.8h-6.8V89.8zM79.3 100h5v-3.6h-5v-2.9h6.5l-.9-3.6h-9.8s.7.3.7 1.5v15.4h9.7l.9-3.8h-7.1v-3z"/></svg>