<svg viewBox="0 0 395 41" xmlns="http://www.w3.org/2000/svg"><path d="M213.5 4.9c-1 0-1.9.3-2.6.8-.6-1.9-2.4-3.2-4.4-3.2-1 0-1.9.3-2.6.8-.6-1.9-2.4-3.2-4.4-3.2s-3.8 1.3-4.4 3.2c-.7-.5-1.7-.8-2.6-.8-2.6 0-4.7 2.2-4.7 4.8v5.5l-2.3 2.3c-1.6 1.6-2.4 3.7-2.4 6v3.6c0 2.3.9 4.4 2.4 6l4.7 4.8c3.4 3.5 8 5.5 12.9 5.5 8.4 0 15.3-7 15.3-15.6V9.7c-.1-2.7-2.3-4.8-4.9-4.8zm2.4 20.4c0 7.3-5.8 13.2-13 13.2-4.2 0-8.2-1.7-11.2-4.8L187 29c-1.1-1.1-1.7-2.7-1.7-4.3v-3.6c0-1.6.6-3.1 1.7-4.3l.6-.6v1.9c0 .7.5 1.2 1.2 1.2s1.2-.5 1.2-1.2V7.3c0-1.3 1.1-2.4 2.4-2.4s2.4 1.1 2.4 2.4v3.6c0 .7.5 1.2 1.2 1.2.6 0 1.2-.5 1.2-1.2v-6c0-1.3 1.1-2.4 2.4-2.4s2.4 1.1 2.4 2.4v6c0 .7.5 1.2 1.2 1.2s1.2-.5 1.2-1.2V7.3c0-1.3 1.1-2.4 2.4-2.4s2.4 1.1 2.4 2.4v3.6c0 .7.5 1.2 1.2 1.2.6 0 1.2-.5 1.2-1.2V9.7c0-1.3 1.1-2.4 2.4-2.4s2.4 1.1 2.4 2.4v15.6z" fill="#ff322b"/><path d="M.3 19.5h148.8v2H.3zm245.6 0h148.8v2H245.9z" fill="#00245b"/></svg>