<svg baseProfile="basic" xmlns="http://www.w3.org/2000/svg" viewBox="0 0 444 462"><style>.ar0{display:none}.ar1,.ar2{fill:none;stroke-miterlimit:10}.ar1{display:inline;stroke:#1d1d1b;stroke-width:.75}.ar2{stroke:#12100b;stroke-width:.9789}.ar2,.ar3{display:inline}.ar4,.ar5{fill:none;stroke:#1d1d1b;stroke-miterlimit:10}.ar5{stroke-dasharray:3.3404,3.3404}.ar6,.ar7{display:inline}.ar6{fill:#1d1d1b}.ar7{opacity:.13}.ar8{fill:#009c3d}.ar9{fill:#ee7900}.ar10{fill:none;stroke:#ececec;stroke-width:.7403;stroke-miterlimit:10}.ar11{fill:#ebeae9}.ar12{fill:#fff}.ar13{fill:#e30520}.ar14{fill:#00295a}.ar15,.ar16{fill:none;stroke:#1d1d1b;stroke-width:.75;stroke-miterlimit:10}.ar16{stroke:#12100b;stroke-width:.9789}.ar17{fill:#1d1d1b}.ar18{fill:none;stroke:#1d1d1b;stroke-miterlimit:10;stroke-dasharray:3.3312,3.3312}.ar19,.ar20{display:inline}.ar19{fill:none;stroke-miterlimit:10;stroke:#f6cb37}.ar20{stroke:#ac9ead}.ar20,.ar21,.ar22{fill:none;stroke-miterlimit:10}.ar21{display:inline;stroke:#82c3e3}.ar22{stroke:#b4cc6f}.ar22,.ar23,.ar24{display:inline}.ar23{stroke:#d9c086;stroke-miterlimit:10;fill:none}.ar24{fill:#00295a}.ar25{fill:#e40077}.ar26{display:inline;fill:#00883d}.ar27{fill:#eb6508}.ar27,.ar28,.ar29{display:inline}.ar28{fill:#ac9ead}.ar29{fill:#d9c086}.ar30{fill:#82c3e3}.ar30,.ar31,.ar32{display:inline}.ar31{fill:#f6cb37}.ar32{fill:#b4cc6f}</style><g id="ruota2"><path class="ar15" d="M129.8 230.6l-72.4-.6m386.6 2.2l-114.6-.6m-5.2 33l16.7 5.5M297.2 28.8l-39.1 116.9m-38.7 184l-1.9 20.3m22.3-231.2l-1.1 11.7m72.1 161.3l92.8 66.6M54 107.2l91.5 65.8m140.9 138.2l12.3 16.8m-38.4 1.7l34.9 107.5M175.7 69.8l21.8 67M176 319.3l-9 13.5M297.6 137l-10.4 15.6M164.9 293.9l-21.2 20.3m169.8-162.4L300 164.7M197.5 326.9l-22.9 68.9m66.3-66.1l2.4 19.3"/><path class="ar16" d="M140.3 275.2l-18 8.6m212.8-101.9l-14.6 7"/><path class="ar15" d="M143.7 296.3l-87.6 65.3m310.1-231.3l-56.4 42.1"/><path class="ar16" d="M128.3 247.5l-13.5 1.9m230.3-33.6l-16.3 2.4"/><path class="ar4" d="M240.4 114.7l1.7.2"/><path class="ar5" d="M245.3 115.3c52.6 7.6 95.2 50.4 100.4 105.7 6.1 64.9-41.6 122.4-106.4 128.4-57.5 5.4-109.3-31.5-124.5-85.1"/><path class="ar4" d="M114.4 262.7l-.4-1.6"/><circle class="ar17" cx="240.4" cy="114.7" r="6.1"/><path class="ar17" d="M113.7 260.1l-5.7 3.5 3.2-12 9.2 8.4z"/><path class="ar8" d="M228.8 138.8c51.9 0 94 42.2 94 94s-42.2 94-94 94-94-42.2-94-94 42.1-94 94-94m0-11c-58 0-105 47-105 105s47 105 105 105 105-47 105-105-47-105-105-105z"/><path class="ar9" d="M228.8 149.5c45.9 0 83.3 37.4 83.3 83.3s-37.4 83.3-83.3 83.3-83.3-37.4-83.3-83.3 37.4-83.3 83.3-83.3m0-10.8c-52 0-94.1 42.1-94.1 94.1s42.1 94.1 94.1 94.1 94.1-42.1 94.1-94.1-42.1-94.1-94.1-94.1z"/><path class="ar14" d="M228.8 159.8c40.2 0 73 32.7 73 73s-32.7 73-73 73-73-32.7-73-73 32.7-73 73-73m0-11c-46.4 0-84 37.6-84 84s37.6 84 84 84 84-37.6 84-84-37.6-84-84-84z"/></g></svg>