<svg baseProfile="basic" xmlns="http://www.w3.org/2000/svg" viewBox="0 0 444 462"><style>.st0{display:none}.st1,.st2{fill:none;stroke-miterlimit:10}.st1{display:inline;stroke:#1d1d1b;stroke-width:.75}.st2{stroke:#12100b;stroke-width:.9789}.st2,.st3{display:inline}.st4,.st5{fill:none;stroke:#1d1d1b;stroke-miterlimit:10}.st5{stroke-dasharray:3.3404,3.3404}.st6,.st7{display:inline}.st6{fill:#1d1d1b}.st7{opacity:.13}.st8{fill:#009c3d}.st9{fill:#ee7900}.st10{fill:none;stroke:#ececec;stroke-width:.7403;stroke-miterlimit:10}.st11{fill:#ebeae9}.st12{fill:#fff}.st13{fill:#e30520}.st14,.st15{fill:#00295a}.st15{display:inline}.st16{fill:none;stroke:#1d1d1b;stroke-miterlimit:10;stroke-dasharray:3.3312,3.3312}.st17{fill:#1d1d1b}.st18{fill:none;stroke:#1d1d1b;stroke-width:.75;stroke-miterlimit:10}.st19{stroke:#f6cb37}.st19,.st20,.st21,.st22,.st23,.st24{fill:none;stroke-miterlimit:10}.st20{stroke:#ac9ead}.st21{stroke:#82c3e3}.st22{stroke:#b4cc6f}.st23{stroke:#d9c086}.st24{stroke:#12100b;stroke-width:.9789}.st25{fill:#e40077}.st26,.st27{display:inline;fill:#00883d}.st27{fill:#eb6508}.st28{stroke:#f6cb37}.st28,.st29,.st30,.st31,.st32{display:inline;fill:none;stroke-miterlimit:10}.st29{stroke:#ac9ead}.st30{stroke:#82c3e3}.st31{stroke:#b4cc6f}.st32{stroke:#d9c086}.st33,.st34{display:inline;fill:#ac9ead}.st34{fill:#d9c086}.st35{fill:#82c3e3}.st35,.st36,.st37{display:inline}.st36{fill:#f6cb37}.st37{fill:#b4cc6f}</style><g id="ruota3"><path class="st4" d="M424 353.4l-.9 1.4"/><path class="st16" d="M421.4 357.6c-57.4 88.2-170.2 127.9-272.7 89.3C30.2 402.3-29.7 270.1 14.9 151.7 54.8 45.6 165-13.5 272.6 7.3"/><path class="st4" d="M274.3 7.6l1.6.3"/><circle class="st17" cx="424" cy="353.4" r="7"/><path class="st17" d="M278 8.4l-.8-8 11.4 9.7-13.9 5.5z"/><circle class="st18" cx="228.6" cy="232.6" r="209.3"/><path class="st19" d="M89.5 132.6c14-19.4 32-35.8 52.7-48 25.4-14.9 54.9-23.4 86.5-23.4 19.1 0 37.4 3.1 54.5 8.8"/><path class="st20" d="M91.3 335.1c-21.4-28.6-34-64.1-34-102.5 0-37.3 11.9-71.9 32.2-100"/><path class="st21" d="M281.7 395.6c-16.7 5.4-34.5 8.4-53 8.4-56.2 0-106.1-27-137.3-68.8"/><path class="st22" d="M400 231.7v.9c0 37.3-11.9 71.9-32.2 100-21.1 29.3-51.2 51.6-86.2 63"/><path class="st23" d="M283.1 70.1c67.7 22.7 116.5 86.4 116.9 161.7"/><path class="st18" d="M129.7 230.4l-72.4-.6m386.5 2.2l-114.6-.6m-5.1 32.9l16.6 5.6M297.1 28.6l-39.2 116.9m-38.6 184l-2 20.3m22.3-231.3l-1.1 11.8m72.2 161.2l92.7 66.7M53.9 107l91.5 65.8M286.3 311l12.3 16.8m-38.4 1.7l34.9 107.4M175.6 69.6l21.8 67m-21.6 182.5l-8.9 13.5m130.6-195.8l-10.4 15.6M164.7 293.7L143.5 314m169.9-162.4l-13.5 12.9M197.4 326.7l-22.9 68.9m66.3-66.1l2.4 19.3"/><path class="st24" d="M140.2 275l-18.1 8.6m212.8-101.9l-14.5 6.9"/><path class="st18" d="M143.5 296.1l-87.6 65.3M366 130.1l-56.3 42.1"/><path class="st24" d="M128.1 247.3l-13.4 1.9M345 215.6l-16.4 2.4"/><circle class="st17" cx="240.2" cy="114.4" r="6.1"/><path class="st17" d="M113.5 259.9l-5.6 3.5 3.1-12 9.2 8.4z"/><path class="st8" d="M228.6 138.6c51.9 0 94 42.2 94 94s-42.2 94-94 94-94-42.2-94-94 42.2-94 94-94m0-11c-58 0-105 47-105 105s47 105 105 105 105-47 105-105-46.9-105-105-105z"/><path class="st9" d="M228.6 149.3c45.9 0 83.3 37.4 83.3 83.3s-37.4 83.3-83.3 83.3-83.3-37.4-83.3-83.3 37.4-83.3 83.3-83.3m0-10.8c-52 0-94.1 42.1-94.1 94.1s42.1 94.1 94.1 94.1 94.1-42.1 94.1-94.1-42.1-94.1-94.1-94.1z"/><path class="st14" d="M228.6 159.6c40.2 0 73 32.7 73 73s-32.7 73-73 73-73-32.7-73-73 32.8-73 73-73m0-11c-46.4 0-84 37.6-84 84s37.6 84 84 84 84-37.6 84-84-37.6-84-84-84z"/><path class="st12" d="M185.6 313.9c-.7-.4-1.9-1.4-1.4-2.3l.3-.6.9.5-.2.3c-.2.4.3.9.8 1.2 1 .5 2.1.2 2.7-.9.6-1 .2-2.3-.7-2.8-1-.5-2-.1-2-.1l-.1-1s1.3-.5 2.6.2c1.6.9 2.1 2.7 1.3 4.3-.9 1.4-2.7 2-4.2 1.2zm-6.3-3.7c-1.5-1-1.9-2.8-1-4.3 1-1.5 2.8-1.9 4.3-1 1.5 1 1.9 2.8.9 4.3-.9 1.5-2.7 2-4.2 1zm2.8-4.4c-.9-.6-2.1-.3-2.8.7-.6 1-.4 2.2.6 2.8s2.1.3 2.8-.7c.5-1 .3-2.2-.6-2.8zm-3.7-2.3l-.2-.2c-.1-.1-.2-.1-.3 0l-3.3 3.6-.9-.7.8-3c.1-.4.3-.8.3-.8s-.4.3-.7.5l-2.7 1.5-.9-.7 2.7-4.1c.1-.1.1-.2 0-.3l-.2-.2.6-.7.8.6c.3.2.3.5.1.8l-1.5 2.3c-.2.3-.6.7-.6.7s.5-.4.8-.5l2.2-1.1.7.6-.6 2.4c-.1.4-.3.9-.3.9s.3-.4.6-.7l1.8-2c.3-.3.5-.3.8-.1l.8.6-.8.6zm-9.6-2.6c-.1.1-.1.2 0 .3l.3.2-.6.7-.8-.7c-.3-.3-.3-.5 0-.8l2.2-2.4c.5-.6.5-1.3-.1-1.8s-1.2-.5-1.8.1l-2.2 2.4c-.3.3-.5.3-.8 0l-.8-.7.6-.7.3.2c.1.1.2.1.3 0l1.9-2c.9-1 2.2-1 3.3-.1 1.1 1 1.1 2.3.2 3.3l-2 2zm-2.1-7.4l-.2-.3c-.1-.1-.2-.1-.3 0l-3.6 3.3-.7-.7.9-3.9c.1-.4.3-.9.3-.9s-.3.4-.6.6l-2 1.9c-.3.3-.5.3-.8 0l-.7-.8.7-.6.2.3c.1.1.2.1.3 0l3.6-3.3.7.7-.9 3.9c-.1.4-.3.9-.3.9s.3-.4.6-.6l2-1.9c.3-.3.5-.3.8 0l.7.8-.7.6zm-4.9-5.6l-.4-.5-3.2 2.6.4.5-.7.6-1.4-1.8.7-.6.4.5 3.2-2.6-.4-.5.7-.6 1.4 1.8-.7.6zm-6.8-2l.5.8c.1.1.2.1.3 0l.3-.2.6.8-.8.6c-.3.2-.5.2-.8-.1l-2.4-3.4c-.2-.3-.2-.5.1-.8l.8-.6.6.8-.3.2c-.1.1-.1.2 0 .3l.5.8 4.1-3 .6.9-4.1 2.9zm-5.1-3l-.5-.9.6-1.2.4.7-.5 1.4zm6.4-2.3l-.1-.1c-.1-.1-.1-.2-.3-.1l-5.1 1.1-.6-1 3.2-4.1c.1-.1.1-.2 0-.3l-.1-.1.8-.5.3.6c.2.4.2.5 0 .9l-.7.9 1.1 1.7 1.1-.2c.4-.1.6 0 .8.3l.4.6-.8.3zm-3.1-2.2l-1 1.2c-.2.3-.6.7-.6.7l.9-.3 1.6-.4-.9-1.2zM181 142.7l-.5.3-.4-.8 2.5-1.3c1-.5 2.1-.2 2.6.9s.2 2.1-.8 2.6l-1 .5.9 1.9-1 .5-2.3-4.6zm2.7.9c.6-.3.7-.8.4-1.4-.3-.6-.8-.7-1.3-.5l-.8.4.9 1.8.8-.3zm4 .4l.6-.2-1.7-3.8-.6.2-.4-.9 2.1-.9.4.9-.6.2 1.7 3.8.6-.2.4.9-2.1.9-.4-.9zm3.2-1.5h.1c.1-.1.2-.1.2-.3l-.1-5.2 1.1-.4 3.4 3.9c.1.1.2.1.3.1h.1l.3.9-.6.2c-.4.2-.6.1-.8-.2l-.7-.8-1.9.7v1.1c0 .4-.1.6-.5.7l-.6.2-.3-.9zm2.8-2.7l-1-1.2c-.2-.3-.5-.8-.5-.8s.1.6.1.9l.1 1.6 1.3-.5zm3.5.3l.3-.1c.1 0 .2-.1.1-.2l-1.4-4.7 1-.3 3.2 2.5.7.7s-.2-.5-.3-.8l-.8-2.6c-.1-.4 0-.6.4-.7l1-.3.3.9-.3.1c-.1 0-.2.1-.1.2l1.4 4.7-1 .3-3.2-2.5-.7-.7s.2.5.3.8l.8 2.6c.1.4 0 .6-.4.7l-1 .3-.3-.9zm6.7-6.2l-.5.1-.2-.9 3.5-.8c.4-.1.6 0 .7.4l.2.9-1 .2-.1-.4c0-.1-.1-.2-.2-.1l-1.3.3.4 1.5 1.9-.4.2.9-1.9.4.3 1.4c0 .1.1.2.2.1l1.4-.3c.1 0 .2-.1.1-.2l-.1-.4 1-.2.2.9c.1.4 0 .6-.4.7l-2.7.6c-.4.1-.6 0-.7-.4l-1-4.3zm7.1-1.5l-.9.2c-.1 0-.2.1-.2.2l.1.4-1 .2-.2-.9c-.1-.4 0-.6.4-.6l4.1-.7c.4-.1.6.1.6.4l.2.9-1 .2-.1-.4c0-.1-.1-.2-.2-.2l-.9.2.9 5-1.1.2-.7-5.1zm4.2 3.5h.1c.1 0 .2-.1.2-.2l1.3-5.1 1.2-.1 2.3 4.7c.1.1.1.2.3.2h.1l.1.9-.7.1c-.4 0-.6 0-.8-.4l-.5-1-2 .2-.3 1.1c-.1.4-.2.5-.6.6l-.7.1v-1.1zm3.3-1.9l-.7-1.4-.3-.9s-.1.6-.1.9l-.4 1.6 1.5-.2z"/><path class="st4" d="M240.2 114.4l1.7.2"/><path class="st5" d="M245.2 115.1c52.6 7.6 95.2 50.4 100.4 105.7 6.1 64.9-41.6 122.4-106.4 128.4-57.5 5.4-109.3-31.5-124.5-85.1"/><path class="st4" d="M114.2 262.5l-.4-1.6"/><path class="st12" d="M286.3 182.3l.4.5 3.2-2.7-.4-.5.7-.6 1.5 1.7-.7.6-.4-.5-3.2 2.7.4.5-.7.6-1.5-1.7.7-.6zm2.4 2.8l.2.3c.1.1.2.1.3 0l4-2.9.6.8-1.3 3.8c-.1.4-.4.9-.4.9s.4-.3.7-.5l2.2-1.6c.3-.2.6-.2.8.1l.6.9-.8.6-.2-.3c-.1-.1-.2-.1-.3 0l-4 2.9-.6-.8 1.3-3.8c.1-.4.4-.9.4-.9s-.4.3-.7.5l-2.2 1.6c-.3.2-.6.2-.8-.1l-.6-.9.8-.6zm8.1 4.3l-.3-.5.8-.5 1.3 2.1c1 1.6.6 3.2-1 4.2s-3.2.5-4.2-1.1l-.7-1.1c-.2-.4-.1-.6.2-.8l3.9-2.3zm-2.8 3.3l.3.5c.6 1 1.6 1.3 2.8.6 1.2-.7 1.4-1.7.8-2.8l-.4-.6-3.4 2c-.2.1-.2.2-.1.3zm2.5 4.4l.3.5 3.7-1.9-.3-.5.8-.4 1 2-.8.4-.3-.5-3.7 1.9.3.5-.8.4-1-2 .8-.4zm5.4 1.9c.1-.1.1-.2.1-.3l-.1-.1.9-.4.3.6c.2.4.1.6-.2.8l-2.6 2.4c-.3.2-.7.6-.7.6s.5-.1.9-.1l3.6-.2c.4 0 .6.1.7.5l.3.7-.9.4-.1-.1c-.1-.1-.1-.2-.3-.2l-5.2.3-.5-1.1 3.8-3.8zm-1.3 7.5l.2.6 3.9-1.4-.2-.6.9-.3.7 2.1-.9.3-.2-.6-3.9 1.4.2.6-.9.3-.7-2.1.9-.3zm5.4 3l-.1-.5.9-.2.6 2.4c.5 1.8-.3 3.3-2.1 3.8s-3.2-.4-3.7-2.2l-.3-1.3c-.1-.4 0-.6.4-.7l4.3-1.3zm-3.7 2.3l.1.5c.3 1.2 1.2 1.7 2.5 1.4s1.8-1.3 1.5-2.5l-.2-.7-3.8 1c-.1.1-.1.2-.1.3zm5.3 4.7c.1 0 .2-.1.2-.2l-.1-.4.9-.2.2 1.1c.1.4-.1.6-.5.7l-3.2.6c-.8.1-1.1.7-1 1.5s.7 1.2 1.5 1l3.2-.6c.4-.1.6.1.7.5l.2 1.1-.9.2-.1-.4c0-.1-.1-.2-.2-.2l-2.7.5c-1.3.2-2.4-.5-2.6-1.9s.5-2.5 1.8-2.7l2.6-.6zm2.5 9.9c.1 1.8-1.1 3.2-2.8 3.3-1.8.1-3.3-1.1-3.4-2.9s1.1-3.2 2.9-3.3 3.2 1.1 3.3 2.9zm-5.1.4c.1 1.1 1.1 1.9 2.3 1.8 1.2-.1 2-1 1.9-2.1s-1-1.9-2.2-1.8c-1.3 0-2.1 1-2 2.1z"/></g></svg>