<svg baseProfile="basic" xmlns="http://www.w3.org/2000/svg" viewBox="0 0 444 462"><style>.st0{display:none}.st1,.st2{fill:none;stroke-miterlimit:10}.st1{display:inline;stroke:#1d1d1b;stroke-width:.75}.st2{stroke:#12100b;stroke-width:.9789}.st2,.st3{display:inline}.st4,.st5{fill:none;stroke:#1d1d1b;stroke-miterlimit:10}.st5{stroke-dasharray:3.3404,3.3404}.st6,.st7{display:inline}.st6{fill:#1d1d1b}.st7{opacity:.13}.st8{fill:#009c3d}.st9{fill:#ee7900}.st10{fill:none;stroke:#ececec;stroke-width:.7403;stroke-miterlimit:10}.st11{fill:#ebeae9}.st12{fill:#fff}.st13{fill:#e30520}.st14,.st15{fill:#00295a}.st15{display:inline}.st16{fill:none;stroke:#1d1d1b;stroke-miterlimit:10;stroke-dasharray:3.3312,3.3312}.st17{fill:#1d1d1b}.st18{fill:none;stroke:#1d1d1b;stroke-width:.75;stroke-miterlimit:10}.st19{stroke:#f6cb37}.st19,.st20,.st21,.st22,.st23,.st24{fill:none;stroke-miterlimit:10}.st20{stroke:#ac9ead}.st21{stroke:#82c3e3}.st22{stroke:#b4cc6f}.st23{stroke:#d9c086}.st24{stroke:#12100b;stroke-width:.9789}.st25{fill:#e40077}.st26,.st27{display:inline;fill:#00883d}.st27{fill:#eb6508}.st28{stroke:#f6cb37}.st28,.st29,.st30,.st31,.st32{display:inline;fill:none;stroke-miterlimit:10}.st29{stroke:#ac9ead}.st30{stroke:#82c3e3}.st31{stroke:#b4cc6f}.st32{stroke:#d9c086}.st33,.st34{display:inline;fill:#ac9ead}.st34{fill:#d9c086}.st35{fill:#82c3e3}.st35,.st36,.st37{display:inline}.st36{fill:#f6cb37}.st37{fill:#b4cc6f}</style><g id="ruota1" class="st0"><path class="st1" d="M328.1 265.6l12.6 4.2m-122.1 67.3l-1.2 12.6m22.3-231.2l-.9 9.5m51.7 188.7l8.1 11m-124.8-5.6l-6.9 10.5m130.6-195.9l-7.2 10.8M152.8 305.1l-9.2 8.9m169.8-162.5l-8.8 8.5m-62.9 176.8l1.5 12"/><path class="st2" d="M133.9 278l-11.7 5.6m212.8-102l-11.6 5.6m-198.7 60.5l-10 1.5M345 215.6l-12.6 1.8"/><g class="st3"><path class="st4" d="M240.3 114.4l1.7.2"/><path class="st5" d="M245.2 115c52.6 7.6 95.2 50.4 100.4 105.7 6.1 64.9-41.6 122.4-106.4 128.4-57.5 5.4-109.3-31.5-124.5-85.1"/><path class="st4" d="M114.2 262.4l-.4-1.6"/></g><circle class="st6" cx="240.3" cy="114.4" r="6.1"/><path class="st6" d="M113.6 259.9l-5.7 3.5 3.2-12.1 9.2 8.4z"/><path class="st8" d="M228.7 138.5c51.9 0 94 42.2 94 94s-42.2 94-94 94-94-42.2-94-94 42.1-94 94-94m0-11c-58 0-105 47-105 105s47 105 105 105 105-47 105-105-47-105-105-105z"/><path class="st9" d="M228.7 149.3c45.9 0 83.3 37.4 83.3 83.3s-37.4 83.3-83.3 83.3-83.3-37.4-83.3-83.3c0-46 37.3-83.3 83.3-83.3m0-10.9c-52 0-94.1 42.1-94.1 94.1s42.1 94.1 94.1 94.1 94.1-42.1 94.1-94.1c0-51.9-42.1-94.1-94.1-94.1z"/><g class="st3"><path class="st10" d="M282.3 177L175 280.4m105.4 2L177 175m93.3-8.1l-83.2 123.6m103.4-20.2l-123.7-83.2m135.1 27.5l-146.4 28.2m87.3 59.1l-28.2-146.4m88.6 72.8l-149-.8m73.3 75.7l2.3-149m50.1 41.3l-102.4 66.4m84.4 18l-66.4-102.4m92.9 63.6l-119.5-24.8m47.4 72.1L241 169m43.5 84.3l-111.7-49.2m31.3 80.5l49.1-111.8m32.3 33.7l-113.7 44.4m79 34.6l-44.3-113.6"/><path class="st11" d="M229.3 169.3l15.5 45.8 48.9-.1-41.1 28.1 15.8 45.7-39.4-28.4-42.4 28.4 16-45.6-41.3-28.2 52.5.1z"/><path class="st12" d="M229.3 184.6l11.9 35.2h37.1l-31.5 21.5 12.1 35-29.9-21.8-32.9 21.8 12.1-35-31.5-21.5h40.7z"/><path class="st11" d="M229.7 191.9l10.1 29.9h31.3l-26.8 18.3 10.3 29.8-25.1-18.6-28.2 18.6 10.3-29.8-26.8-18.3h34.8z"/></g><g class="st3"><path class="st13" d="M229.3 184.7l5.9 17.2h18.3l-15.4 10.5 5.9 17.2-14.8-10.7-15.9 10.7 6-17.1-15.5-10.6h19.7z"/><path class="st12" d="M229.3 190.5l4.5 13.1 13.9.1-11.8 8 4.6 13.2-11.3-8.2-12.3 8.2 4.5-13.2-11.8-8 15.3-.1z"/><path class="st13" d="M229.3 193.3l3.8 11.2h11.8l-10.1 6.9 3.9 11.2-9.5-7-10.5 7 3.8-11.2-10-6.9h13z"/><path class="st14" d="M219.1 255.1c0-1.2-1-2.2-2.2-2.2H212v7.5h1.1v-3.1h2.8l2.1 3.1h1.2l-2.1-3.1c1.3-.3 2-1 2-2.2zm-1.5.9c-.2.2-.5.3-.8.3H213v-2.4h3.9c.8 0 1.1.7 1.1 1.2 0 .3-.2.7-.4.9zm9.1 1.8c0 1.1-1.2 1.6-2.4 1.6s-2.3-.6-2.3-1.6v-5h-1v5.1c0 .6.2 1.2.7 1.7.6.6 1.5.9 2.6.9h.1c2.3 0 3.5-.9 3.5-2.5v-5.1h-1v4.9h-.2zm8.5-4.9h-4.9v7.5h1.1v-3.1h3.7c1 0 1.9-.9 1.9-2.1 0-.6-.3-1.3-.7-1.8-.3-.3-.7-.5-1.1-.5zm.8 2.3c0 .3-.1.7-.4.9-.1.1-.3.2-.4.2h-3.8v-2.4h3.7c.4 0 .9.6.9 1.3zm7.7-2.3h-4.9v7.5h1.1v-3.1h3.7c1 0 1.9-.9 1.9-2.1 0-.6-.3-1.3-.7-1.8-.3-.3-.7-.5-1.1-.5zm.8 2.3c0 .3-.1.7-.4.9-.1.1-.3.2-.4.2h-3.8v-2.4h3.7c.5 0 .9.6.9 1.3zm6.3 5.3c1.3 0 2.4-.5 3.3-1.3.7-.7 1.1-1.6 1.1-2.6 0-2.7-2.2-3.9-4.3-3.9-1.2 0-2.3.5-3.2 1.3-.7.7-1.1 1.6-1.1 2.6 0 2.1 2 3.9 4.2 3.9zm-3.1-3.9c0-1.6 1.7-2.8 3.1-2.8.9 0 1.8.4 2.4 1 .5.5.8 1.1.8 1.8s-.3 1.4-.8 1.9c-.6.6-1.5 1-2.4 1-1.7 0-3.1-1.3-3.1-2.9zm-41.3.7h2.6v1.3c-.2.2-1 .8-2.5.8-2 0-3.2-1.1-3.2-2.9 0-1.6 1.2-2.7 3.1-2.8h.1c1.5 0 2.7.9 2.7.9l.1.1.7-.8-.1-.1c-1.2-.8-2.2-1.2-3.3-1.2-1.2 0-2.4.4-3.2 1.2-.7.7-1.1 1.6-1.1 2.6 0 2.4 1.7 3.9 4.3 3.9 2.4 0 3.5-1.4 3.5-1.5v-2.6h-3.7v1.1zm-37.8-17.4c0-.4.3-1 1.6-1l2.4.6-.2-2.7c-.2.2-.4.2-.6.2-.5-.1-1.1-.2-1.9-.2-2.9 0-4.2 1.7-4.2 3.3 0 3 4.6 3.3 4.6 5.4 0 .8-.8 1.2-1.7 1.2-1.9 0-3.2-.9-3.2-.9l.3 2.7c.2-.1.5-.1.7-.1.6.2 1.5.4 2.5.4 2.7 0 4.2-1.5 4.2-3.3.1-3.8-4.5-3.8-4.5-5.6zm97.1-1.8v10.5h2.6V237h-3.1c0 .1.5.3.5 1.1zm-2.3 2.8c0-2.1-1.7-3.8-3.8-3.8H254s.5.3.5.8v10.8h2.5v-4h1.5l2.3 4h2.8l-2.4-4.4c1.3-.6 2.2-1.9 2.2-3.4zm-6.4-1.4h2.3c.7 0 1.3.6 1.3 1.3s-.6 1.3-1.3 1.3H257v-2.6zm-6.8 3.3v1.9s-1 1.6-2.5 1.6c-1.2 0-3-1.2-3-3.4s1.6-3.4 3-3.4l2.2 1 1.2-2.3s-1.3-1.4-3.5-1.4c-2.9 0-5.4 2.4-5.4 6 0 3.7 2.8 6.1 5.4 6.1s3.6-1.6 5-3.1v-3.5h-2.9c.1 0 .5.2.5.5zm36.2-6c-3 0-5.5 2.7-5.5 6s2.4 6 5.5 6 5.5-2.7 5.5-6-2.4-6-5.5-6zm0 9.3c-1.4 0-2.6-1.4-2.6-3.3s1.2-3.3 2.6-3.3 2.6 1.4 2.6 3.3-1.1 3.3-2.6 3.3zm-9.4-2.9l-3.5-6.1h-3.4s.5.2.5 1.1v10.5h2.4v-7.2l3.9 7.2h2.4v-11.6h-2.4v6.1h.1zm-40.7.8h3.5v-2.5h-3.5v-2h4.5l-.6-2.5h-6.7s.5.2.5 1.1v10.6h6.7l.6-2.6h-4.9V244h-.1zm-44.1-.8l-3.5-6.1h-3.4s.5.2.5 1.1v10.5h2.4v-7.2l3.9 7.2h2.4v-11.6h-2.4v6.1h.1zm35.5-6.1h-3.1s.5.2.5 1.1v10.5h6.7l.6-2.6h-4.6l-.1-9zm-51 0s.6.3.4 1l-3.1 10.6h2.3l.8-2.7h3.6l.9 2.7h2.8l-3.8-11.6h-3.9zm1.1 6.6l1.1-3.7 1.2 3.7h-2.3zm24.1-6.6h-5.5s.5.2.5 1.1v10.5h2.5v-4h2.5c2.1 0 3.8-1.7 3.8-3.8s-1.7-3.8-3.8-3.8zm-.2 5.1h-2.3v-2.7h2.3c.7 0 1.3.6 1.3 1.3 0 .8-.6 1.4-1.3 1.4zm17.1-5.1h-3.1s.5.2.5 1.1v10.5h6.7l.6-2.6h-4.6l-.1-9zm-9.3 6.9h3.5v-2.5h-3.5v-2h4.5l-.6-2.5h-6.7s.5.2.5 1.1v10.6h6.7l.6-2.6h-4.9V244h-.1z"/></g><path class="st14" d="M228.7 159.6c40.2 0 73 32.7 73 73s-32.7 73-73 73-73-32.7-73-73 32.7-73 73-73m0-11c-46.4 0-84 37.6-84 84s37.6 84 84 84 84-37.6 84-84-37.6-84-84-84z"/></g><g id="ruota2" class="st0"><path class="st1" d="M129.8 230.6l-72.4-.6m386.6 2.2l-114.6-.6m-5.2 33l16.7 5.5M297.2 28.8l-39.1 116.9m-38.7 184l-1.9 20.3m22.3-231.2l-1.1 11.7m72.1 161.3l92.8 66.6M54 107.2l91.5 65.8m140.9 138.2l12.3 16.8m-38.4 1.7l34.9 107.5M175.7 69.8l21.8 67M176 319.3l-9 13.5M297.6 137l-10.4 15.6M164.9 293.9l-21.2 20.3m169.8-162.4L300 164.7M197.5 326.9l-22.9 68.9m66.3-66.1l2.4 19.3"/><path class="st2" d="M140.3 275.2l-18 8.6m212.8-101.9l-14.6 7"/><path class="st1" d="M143.7 296.3l-87.6 65.3m310.1-231.3l-56.4 42.1"/><path class="st2" d="M128.3 247.5l-13.5 1.9m230.3-33.6l-16.3 2.4"/><g class="st3"><path class="st4" d="M240.4 114.7l1.7.2"/><path class="st5" d="M245.3 115.3c52.6 7.6 95.2 50.4 100.4 105.7 6.1 64.9-41.6 122.4-106.4 128.4-57.5 5.4-109.3-31.5-124.5-85.1"/><path class="st4" d="M114.4 262.7l-.4-1.6"/></g><circle class="st6" cx="240.4" cy="114.7" r="6.1"/><path class="st6" d="M113.7 260.1l-5.7 3.5 3.2-12 9.2 8.4z"/><path class="st8" d="M228.8 138.8c51.9 0 94 42.2 94 94s-42.2 94-94 94-94-42.2-94-94 42.1-94 94-94m0-11c-58 0-105 47-105 105s47 105 105 105 105-47 105-105-47-105-105-105z"/><path class="st9" d="M228.8 149.5c45.9 0 83.3 37.4 83.3 83.3s-37.4 83.3-83.3 83.3-83.3-37.4-83.3-83.3 37.4-83.3 83.3-83.3m0-10.8c-52 0-94.1 42.1-94.1 94.1s42.1 94.1 94.1 94.1 94.1-42.1 94.1-94.1-42.1-94.1-94.1-94.1z"/><g class="st3"><path class="st10" d="M282.5 177.2L175.1 280.7m105.4 1.9L177.1 175.3m93.3-8.2l-83.2 123.7m103.4-20.3l-123.7-83.1M302 214.8l-146.4 28.3m87.3 59l-28.2-146.3m88.6 72.8l-149-.8m73.3 75.7l2.4-149.1m50 41.3l-102.4 66.5m84.4 17.9l-66.4-102.3m92.9 63.5L169 216.6m47.4 72.1l24.7-119.5m43.5 84.3l-111.7-49.1m31.3 80.4l49.1-111.7m32.3 33.7l-113.7 44.3m79 34.7l-44.3-113.7"/><path class="st11" d="M229.4 169.5l15.5 45.8h48.9l-41.1 28.1 15.8 45.6-39.3-28.4-42.5 28.4 16-45.5-41.2-28.2h52.4z"/><path class="st12" d="M229.4 184.9l11.9 35.1h37.1l-31.5 21.5 12.1 35.1-29.8-21.8-32.9 21.8 12.1-35.1-31.5-21.5h40.6z"/><path class="st11" d="M229.8 192.2l10.1 29.8 31.3.1-26.8 18.2 10.3 29.8-25.1-18.5-28.2 18.5 10.3-29.8-26.8-18.2 34.8-.1z"/></g><g class="st3"><path class="st13" d="M229.5 184.9l5.8 17.2h18.3l-15.4 10.6 5.9 17.1-14.7-10.6-16 10.6 6-17.1-15.5-10.6h19.7z"/><path class="st12" d="M229.5 190.7l4.4 13.2h14L236 212l4.6 13.1-11.2-8.1-12.4 8.1 4.6-13.1-11.9-8.1H225z"/><path class="st13" d="M229.5 193.6l3.8 11.2H245l-10.1 6.8 3.9 11.2-9.4-6.9-10.6 6.9 3.8-11.2-10-6.8h13.1z"/><path class="st14" d="M219.2 255.3c0-1.2-1-2.2-2.2-2.2h-4.9v7.5h1.1v-3.1h2.8l2.1 3.1h1.2l-2.1-3.1c1.3-.3 2-1 2-2.2zm-1.5 1c-.2.2-.5.3-.8.3h-3.8v-2.4h3.9c.8 0 1.1.7 1.1 1.2 0 .3-.1.6-.4.9zm9.1 1.8c0 1.1-1.2 1.6-2.4 1.6s-2.3-.6-2.3-1.6v-5h-1v5.1c0 .6.2 1.2.7 1.7.6.6 1.5.9 2.6.9h.1c2.3 0 3.5-.9 3.5-2.5v-5.1h-1v4.9h-.2zm8.5-5h-4.9v7.5h1.1v-3.1h3.7c1 0 1.9-.9 1.9-2.1 0-.6-.3-1.3-.7-1.8-.3-.3-.7-.5-1.1-.5zm.8 2.3c0 .3-.1.7-.4.9-.1.1-.3.2-.4.2h-3.8v-2.4h3.7c.5 0 .9.7.9 1.3zm7.8-2.3H239v7.5h1.1v-3.1h3.7c1 0 1.9-.9 1.9-2.1 0-.6-.3-1.3-.7-1.8-.4-.3-.8-.5-1.1-.5zm.7 2.3c0 .3-.1.7-.4.9-.1.1-.3.2-.4.2H240v-2.4h3.7c.5 0 .9.7.9 1.3zm6.3 5.3c1.3 0 2.4-.5 3.3-1.3.7-.7 1.1-1.6 1.1-2.6 0-2.7-2.2-3.9-4.3-3.9-1.2 0-2.3.5-3.2 1.3-.7.7-1.1 1.6-1.1 2.6 0 2.1 2 3.9 4.2 3.9zm-3.1-3.8c0-1.6 1.7-2.8 3.1-2.8.9 0 1.8.4 2.4 1 .5.5.8 1.1.8 1.8s-.3 1.4-.8 1.9c-.6.6-1.5 1-2.4 1-1.7 0-3.1-1.3-3.1-2.9zm-41.3.7h2.6v1.3c-.2.2-1 .8-2.5.8-2 0-3.2-1.1-3.2-2.9 0-1.6 1.2-2.7 3.1-2.8h.1c1.5 0 2.7.9 2.7.9l.1.1.7-.8-.1-.1c-1.2-.8-2.2-1.2-3.3-1.2-1.2 0-2.4.4-3.2 1.2-.7.7-1.1 1.6-1.1 2.6 0 2.4 1.7 3.9 4.3 3.9 2.4 0 3.5-1.4 3.5-1.5v-2.6h-3.7v1.1zm-37.8-17.4c0-.4.3-1 1.6-1l2.4.6-.2-2.7c-.2.2-.4.2-.6.2-.5-.1-1.1-.2-1.9-.2-2.9 0-4.2 1.7-4.2 3.3 0 3 4.6 3.3 4.6 5.4 0 .8-.8 1.2-1.7 1.2-1.9 0-3.2-.9-3.2-.9l.3 2.7c.2-.1.5-.1.7-.1.6.2 1.5.4 2.5.4 2.7 0 4.2-1.5 4.2-3.3.1-3.9-4.5-3.8-4.5-5.6zm97.1-1.8v10.5h2.6v-11.6h-3.1s.5.2.5 1.1zm-2.3 2.7c0-2.1-1.7-3.8-3.8-3.8h-5.5s.5.3.5.8v10.8h2.5v-4h1.5l2.3 4h2.8l-2.4-4.4c1.2-.6 2.1-1.9 2.1-3.4zm-6.3-1.3h2.3c.7 0 1.3.6 1.3 1.3s-.6 1.3-1.3 1.3h-2.3v-2.6zm-6.8 3.3v1.9s-1 1.6-2.5 1.6c-1.2 0-3-1.2-3-3.4s1.6-3.4 3-3.4l2.2 1 1.2-2.3s-1.3-1.4-3.5-1.4c-2.9 0-5.4 2.4-5.4 6 0 3.7 2.7 6.1 5.4 6.1s3.6-1.6 5-3.1v-3.5h-2.9c0-.1.5.2.5.5zm36.2-6c-3 0-5.5 2.7-5.5 6s2.4 6 5.5 6c3 0 5.5-2.7 5.5-6-.1-3.3-2.5-6-5.5-6zm0 9.3c-1.4 0-2.6-1.4-2.6-3.3s1.2-3.3 2.6-3.3 2.6 1.4 2.6 3.3-1.2 3.3-2.6 3.3zm-9.5-2.9l-3.5-6.1h-3.4s.5.2.5 1.1V249h2.4v-7.2l3.9 7.2h2.4v-11.6H277v6.1h.1zm-40.7.8h3.5v-2.5h-3.5v-2h4.5l-.6-2.5h-6.7s.5.2.5 1.1V249h6.7l.6-2.6h-4.9v-2.1h-.1zm-44.1-.8l-3.5-6.1h-3.4s.5.2.5 1.1V249h2.4v-7.2l3.9 7.2h2.4v-11.6h-2.4v6.1h.1zm35.5-6.2h-3.1s.5.2.5 1.1v10.5h6.7l.6-2.6h-4.6l-.1-9zm-51 0s.6.3.4 1l-3.1 10.6h2.3l.8-2.7h3.6l.9 2.7h2.8l-3.8-11.6h-3.9zm1.1 6.7l1.1-3.7 1.2 3.7h-2.3zm24.1-6.7h-5.5s.5.2.5 1.1v10.5h2.5v-4h2.5c2.1 0 3.8-1.7 3.8-3.8s-1.7-3.8-3.8-3.8zm-.2 5.2h-2.3v-2.7h2.3c.7 0 1.3.6 1.3 1.3s-.5 1.4-1.3 1.4zm17.1-5.2h-3.1s.5.2.5 1.1v10.5h6.7l.6-2.6H219l-.1-9zm-9.3 7h3.5v-2.5h-3.5v-2h4.5l-.6-2.5h-6.7s.5.2.5 1.1V249h6.7l.6-2.6h-4.9v-2.1h-.1z"/></g><path class="st15" d="M228.8 159.8c40.2 0 73 32.7 73 73s-32.7 73-73 73-73-32.7-73-73 32.7-73 73-73m0-11c-46.4 0-84 37.6-84 84s37.6 84 84 84 84-37.6 84-84-37.6-84-84-84z"/></g><g id="ruota3"><path class="st4" d="M424 353.4l-.9 1.4"/><path class="st16" d="M421.4 357.6c-57.4 88.2-170.2 127.9-272.7 89.3C30.2 402.3-29.7 270.1 14.9 151.7 54.8 45.6 165-13.5 272.6 7.3"/><path class="st4" d="M274.3 7.6l1.6.3"/><circle class="st17" cx="424" cy="353.4" r="7"/><path class="st17" d="M278 8.4l-.8-8 11.4 9.7-13.9 5.5z"/><circle class="st18" cx="228.6" cy="232.6" r="209.3"/><path class="st19" d="M89.5 132.6c14-19.4 32-35.8 52.7-48 25.4-14.9 54.9-23.4 86.5-23.4 19.1 0 37.4 3.1 54.5 8.8"/><path class="st20" d="M91.3 335.1c-21.4-28.6-34-64.1-34-102.5 0-37.3 11.9-71.9 32.2-100"/><path class="st21" d="M281.7 395.6c-16.7 5.4-34.5 8.4-53 8.4-56.2 0-106.1-27-137.3-68.8"/><path class="st22" d="M400 231.7v.9c0 37.3-11.9 71.9-32.2 100-21.1 29.3-51.2 51.6-86.2 63"/><path class="st23" d="M283.1 70.1c67.7 22.7 116.5 86.4 116.9 161.7"/><path class="st18" d="M129.7 230.4l-72.4-.6m386.5 2.2l-114.6-.6m-5.1 32.9l16.6 5.6M297.1 28.6l-39.2 116.9m-38.6 184l-2 20.3m22.3-231.3l-1.1 11.8m72.2 161.2l92.7 66.7M53.9 107l91.5 65.8M286.3 311l12.3 16.8m-38.4 1.7l34.9 107.4M175.6 69.6l21.8 67m-21.6 182.5l-8.9 13.5m130.6-195.8l-10.4 15.6M164.7 293.7L143.5 314m169.9-162.4l-13.5 12.9M197.4 326.7l-22.9 68.9m66.3-66.1l2.4 19.3"/><path class="st24" d="M140.2 275l-18.1 8.6m212.8-101.9l-14.5 6.9"/><path class="st18" d="M143.5 296.1l-87.6 65.3M366 130.1l-56.3 42.1"/><path class="st24" d="M128.1 247.3l-13.4 1.9M345 215.6l-16.4 2.4"/><circle class="st17" cx="240.2" cy="114.4" r="6.1"/><path class="st17" d="M113.5 259.9l-5.6 3.5 3.1-12 9.2 8.4z"/><path class="st8" d="M228.6 138.6c51.9 0 94 42.2 94 94s-42.2 94-94 94-94-42.2-94-94 42.2-94 94-94m0-11c-58 0-105 47-105 105s47 105 105 105 105-47 105-105-46.9-105-105-105z"/><path class="st9" d="M228.6 149.3c45.9 0 83.3 37.4 83.3 83.3s-37.4 83.3-83.3 83.3-83.3-37.4-83.3-83.3 37.4-83.3 83.3-83.3m0-10.8c-52 0-94.1 42.1-94.1 94.1s42.1 94.1 94.1 94.1 94.1-42.1 94.1-94.1-42.1-94.1-94.1-94.1z"/><path class="st14" d="M228.6 159.6c40.2 0 73 32.7 73 73s-32.7 73-73 73-73-32.7-73-73 32.8-73 73-73m0-11c-46.4 0-84 37.6-84 84s37.6 84 84 84 84-37.6 84-84-37.6-84-84-84z"/><path class="st12" d="M185.6 313.9c-.7-.4-1.9-1.4-1.4-2.3l.3-.6.9.5-.2.3c-.2.4.3.9.8 1.2 1 .5 2.1.2 2.7-.9.6-1 .2-2.3-.7-2.8-1-.5-2-.1-2-.1l-.1-1s1.3-.5 2.6.2c1.6.9 2.1 2.7 1.3 4.3-.9 1.4-2.7 2-4.2 1.2zm-6.3-3.7c-1.5-1-1.9-2.8-1-4.3 1-1.5 2.8-1.9 4.3-1 1.5 1 1.9 2.8.9 4.3-.9 1.5-2.7 2-4.2 1zm2.8-4.4c-.9-.6-2.1-.3-2.8.7-.6 1-.4 2.2.6 2.8s2.1.3 2.8-.7c.5-1 .3-2.2-.6-2.8zm-3.7-2.3l-.2-.2c-.1-.1-.2-.1-.3 0l-3.3 3.6-.9-.7.8-3c.1-.4.3-.8.3-.8s-.4.3-.7.5l-2.7 1.5-.9-.7 2.7-4.1c.1-.1.1-.2 0-.3l-.2-.2.6-.7.8.6c.3.2.3.5.1.8l-1.5 2.3c-.2.3-.6.7-.6.7s.5-.4.8-.5l2.2-1.1.7.6-.6 2.4c-.1.4-.3.9-.3.9s.3-.4.6-.7l1.8-2c.3-.3.5-.3.8-.1l.8.6-.8.6zm-9.6-2.6c-.1.1-.1.2 0 .3l.3.2-.6.7-.8-.7c-.3-.3-.3-.5 0-.8l2.2-2.4c.5-.6.5-1.3-.1-1.8s-1.2-.5-1.8.1l-2.2 2.4c-.3.3-.5.3-.8 0l-.8-.7.6-.7.3.2c.1.1.2.1.3 0l1.9-2c.9-1 2.2-1 3.3-.1 1.1 1 1.1 2.3.2 3.3l-2 2zm-2.1-7.4l-.2-.3c-.1-.1-.2-.1-.3 0l-3.6 3.3-.7-.7.9-3.9c.1-.4.3-.9.3-.9s-.3.4-.6.6l-2 1.9c-.3.3-.5.3-.8 0l-.7-.8.7-.6.2.3c.1.1.2.1.3 0l3.6-3.3.7.7-.9 3.9c-.1.4-.3.9-.3.9s.3-.4.6-.6l2-1.9c.3-.3.5-.3.8 0l.7.8-.7.6zm-4.9-5.6l-.4-.5-3.2 2.6.4.5-.7.6-1.4-1.8.7-.6.4.5 3.2-2.6-.4-.5.7-.6 1.4 1.8-.7.6zm-6.8-2l.5.8c.1.1.2.1.3 0l.3-.2.6.8-.8.6c-.3.2-.5.2-.8-.1l-2.4-3.4c-.2-.3-.2-.5.1-.8l.8-.6.6.8-.3.2c-.1.1-.1.2 0 .3l.5.8 4.1-3 .6.9-4.1 2.9zm-5.1-3l-.5-.9.6-1.2.4.7-.5 1.4zm6.4-2.3l-.1-.1c-.1-.1-.1-.2-.3-.1l-5.1 1.1-.6-1 3.2-4.1c.1-.1.1-.2 0-.3l-.1-.1.8-.5.3.6c.2.4.2.5 0 .9l-.7.9 1.1 1.7 1.1-.2c.4-.1.6 0 .8.3l.4.6-.8.3zm-3.1-2.2l-1 1.2c-.2.3-.6.7-.6.7l.9-.3 1.6-.4-.9-1.2zM181 142.7l-.5.3-.4-.8 2.5-1.3c1-.5 2.1-.2 2.6.9s.2 2.1-.8 2.6l-1 .5.9 1.9-1 .5-2.3-4.6zm2.7.9c.6-.3.7-.8.4-1.4-.3-.6-.8-.7-1.3-.5l-.8.4.9 1.8.8-.3zm4 .4l.6-.2-1.7-3.8-.6.2-.4-.9 2.1-.9.4.9-.6.2 1.7 3.8.6-.2.4.9-2.1.9-.4-.9zm3.2-1.5h.1c.1-.1.2-.1.2-.3l-.1-5.2 1.1-.4 3.4 3.9c.1.1.2.1.3.1h.1l.3.9-.6.2c-.4.2-.6.1-.8-.2l-.7-.8-1.9.7v1.1c0 .4-.1.6-.5.7l-.6.2-.3-.9zm2.8-2.7l-1-1.2c-.2-.3-.5-.8-.5-.8s.1.6.1.9l.1 1.6 1.3-.5zm3.5.3l.3-.1c.1 0 .2-.1.1-.2l-1.4-4.7 1-.3 3.2 2.5.7.7s-.2-.5-.3-.8l-.8-2.6c-.1-.4 0-.6.4-.7l1-.3.3.9-.3.1c-.1 0-.2.1-.1.2l1.4 4.7-1 .3-3.2-2.5-.7-.7s.2.5.3.8l.8 2.6c.1.4 0 .6-.4.7l-1 .3-.3-.9zm6.7-6.2l-.5.1-.2-.9 3.5-.8c.4-.1.6 0 .7.4l.2.9-1 .2-.1-.4c0-.1-.1-.2-.2-.1l-1.3.3.4 1.5 1.9-.4.2.9-1.9.4.3 1.4c0 .1.1.2.2.1l1.4-.3c.1 0 .2-.1.1-.2l-.1-.4 1-.2.2.9c.1.4 0 .6-.4.7l-2.7.6c-.4.1-.6 0-.7-.4l-1-4.3zm7.1-1.5l-.9.2c-.1 0-.2.1-.2.2l.1.4-1 .2-.2-.9c-.1-.4 0-.6.4-.6l4.1-.7c.4-.1.6.1.6.4l.2.9-1 .2-.1-.4c0-.1-.1-.2-.2-.2l-.9.2.9 5-1.1.2-.7-5.1zm4.2 3.5h.1c.1 0 .2-.1.2-.2l1.3-5.1 1.2-.1 2.3 4.7c.1.1.1.2.3.2h.1l.1.9-.7.1c-.4 0-.6 0-.8-.4l-.5-1-2 .2-.3 1.1c-.1.4-.2.5-.6.6l-.7.1v-1.1zm3.3-1.9l-.7-1.4-.3-.9s-.1.6-.1.9l-.4 1.6 1.5-.2z"/><path class="st4" d="M240.2 114.4l1.7.2"/><path class="st5" d="M245.2 115.1c52.6 7.6 95.2 50.4 100.4 105.7 6.1 64.9-41.6 122.4-106.4 128.4-57.5 5.4-109.3-31.5-124.5-85.1"/><path class="st4" d="M114.2 262.5l-.4-1.6"/><path class="st12" d="M286.3 182.3l.4.5 3.2-2.7-.4-.5.7-.6 1.5 1.7-.7.6-.4-.5-3.2 2.7.4.5-.7.6-1.5-1.7.7-.6zm2.4 2.8l.2.3c.1.1.2.1.3 0l4-2.9.6.8-1.3 3.8c-.1.4-.4.9-.4.9s.4-.3.7-.5l2.2-1.6c.3-.2.6-.2.8.1l.6.9-.8.6-.2-.3c-.1-.1-.2-.1-.3 0l-4 2.9-.6-.8 1.3-3.8c.1-.4.4-.9.4-.9s-.4.3-.7.5l-2.2 1.6c-.3.2-.6.2-.8-.1l-.6-.9.8-.6zm8.1 4.3l-.3-.5.8-.5 1.3 2.1c1 1.6.6 3.2-1 4.2s-3.2.5-4.2-1.1l-.7-1.1c-.2-.4-.1-.6.2-.8l3.9-2.3zm-2.8 3.3l.3.5c.6 1 1.6 1.3 2.8.6 1.2-.7 1.4-1.7.8-2.8l-.4-.6-3.4 2c-.2.1-.2.2-.1.3zm2.5 4.4l.3.5 3.7-1.9-.3-.5.8-.4 1 2-.8.4-.3-.5-3.7 1.9.3.5-.8.4-1-2 .8-.4zm5.4 1.9c.1-.1.1-.2.1-.3l-.1-.1.9-.4.3.6c.2.4.1.6-.2.8l-2.6 2.4c-.3.2-.7.6-.7.6s.5-.1.9-.1l3.6-.2c.4 0 .6.1.7.5l.3.7-.9.4-.1-.1c-.1-.1-.1-.2-.3-.2l-5.2.3-.5-1.1 3.8-3.8zm-1.3 7.5l.2.6 3.9-1.4-.2-.6.9-.3.7 2.1-.9.3-.2-.6-3.9 1.4.2.6-.9.3-.7-2.1.9-.3zm5.4 3l-.1-.5.9-.2.6 2.4c.5 1.8-.3 3.3-2.1 3.8s-3.2-.4-3.7-2.2l-.3-1.3c-.1-.4 0-.6.4-.7l4.3-1.3zm-3.7 2.3l.1.5c.3 1.2 1.2 1.7 2.5 1.4s1.8-1.3 1.5-2.5l-.2-.7-3.8 1c-.1.1-.1.2-.1.3zm5.3 4.7c.1 0 .2-.1.2-.2l-.1-.4.9-.2.2 1.1c.1.4-.1.6-.5.7l-3.2.6c-.8.1-1.1.7-1 1.5s.7 1.2 1.5 1l3.2-.6c.4-.1.6.1.7.5l.2 1.1-.9.2-.1-.4c0-.1-.1-.2-.2-.2l-2.7.5c-1.3.2-2.4-.5-2.6-1.9s.5-2.5 1.8-2.7l2.6-.6zm2.5 9.9c.1 1.8-1.1 3.2-2.8 3.3-1.8.1-3.3-1.1-3.4-2.9s1.1-3.2 2.9-3.3 3.2 1.1 3.3 2.9zm-5.1.4c.1 1.1 1.1 1.9 2.3 1.8 1.2-.1 2-1 1.9-2.1s-1-1.9-2.2-1.8c-1.3 0-2.1 1-2 2.1z"/></g><g id="ruota4" class="st0"><g class="st3"><path id="XMLID_141_" class="st25" d="M228.2 80.9c2 1 4.4 2.7 6.5 2.1 3-.8 5.9-4.7 7.2-5.2 0 0 .6.1.1.6-4 3.8-4.7 9.3-2.9 12.6 0 0-1 .9-1.4 1.2-.7 1.2-.1 7 .4 8.7 0 0-.3.6-.5.1-1.3-3.1-1.8-6.1-1.9-7.4-.1-.5-.3-.5-.5 0-.6 1.7-1 4-1.3 8.1 0 0-.4.6-.5-.1-.6-3.9.5-16.1.2-16.3-2.3-1.2-4.6-3-5.4-4-.3-.2 0-.4 0-.4z"/><path id="XMLID_137_" class="st25" d="M218.5 81.8c.3.1.7 0 1-.2.5-.3.9-.8 1-1.4.2-.6.1-1.3-.2-1.8-.2-.3-.5-.6-.8-.7s-.7 0-1 .2c-.5.3-.9.8-1 1.4-.2.6-.1 1.3.2 1.8.2.3.5.6.8.7z"/><path id="XMLID_133_" class="st25" d="M235.7 80.3c-.2-.6-.5-1-.9-1.3-.3-.2-.6-.2-.9-.1-.3.1-.6.3-.7.6-.2.4-.3 1-.2 1.6.3 1 1.1 1.6 1.8 1.4.8-.3 1.2-1.2.9-2.2z"/><path id="XMLID_129_" class="st25" d="M227.8 87.9c.2 0 .5-.1.7-.3.3-.3.5-.9.4-1.4 0-.9-.6-1.7-1.2-1.7-.2 0-.5.1-.6.3-.3.3-.5.9-.4 1.4-.1 1 .5 1.7 1.1 1.7z"/><path id="XMLID_125_" class="st25" d="M225.8 100.5c.6-3.6 1.2-5.4 1.4-5.9 0 .9.7 4.1 1.2 5.2.3.7.7.2.7.2-.9-10.1 1.5-11.4 3.8-13.4.3-.2 0-.4 0-.4-.5 0-2.4 1.1-2.6 1.2-4.4 2.6-6.6-.4-7.2-.8 0 0-.3 0-.1.4.3.6 1.6 2.2 3.2 3.2-.7 2.3-1.1 8.1-.9 10.1 0 .7.5.2.5.2z"/><path id="XMLID_121_" class="st25" d="M207.3 84c2.8 1.5 7.8 2.2 10 2.2-.8 6.5-.6 13.9.3 17.4.2.9.8.3.8.3-.2-3.7.6-9.5 1.6-10.8.4 2 2 6.9 4.2 10.1.5.7.8.1.8.1-4.6-15.5-2.6-19.8-.5-24.3.7-1.5 1.3-2.9 1.9-4.8.2-.9-.6-.6-.6-.6-2.8 6.9-7.1 12.2-18.6 9.4-.2.3-.5.7.1 1z"/></g><g class="st3"><path id="XMLID_117_" class="st25" d="M137 357.5c-1-2-1.9-4.8-4-5.6-2.9-1.1-7.5.3-8.9 0 0 0-.5-.5.3-.6 5.5-.7 9.3-4.8 9.8-8.4 0 0 1.4-.1 1.9-.2 1.3-.6 4.2-5.6 4.9-7.3 0 0 .6-.3.5.2-.8 3.2-2.2 5.9-2.8 7.1-.3.4-.1.6.4.3 1.5-1 3.2-2.6 5.8-5.8 0 0 .7-.2.4.4-1.8 3.5-10 12.7-9.8 13 1.2 2.3 2 5.1 2 6.4-.1.5-.5.5-.5.5z"/><path id="XMLID_113_" class="st25" d="M145.3 362.6c-.2-.3-.5-.4-.9-.5-.6-.1-1.2.1-1.7.6-.5.4-.8 1-.9 1.5 0 .4 0 .8.3 1 .2.3.5.4.9.5.6.1 1.2-.1 1.7-.6.5-.4.8-1 .9-1.5 0-.4-.1-.8-.3-1z"/><path id="XMLID_109_" class="st25" d="M130.6 353.6c-.2.5-.2 1.1 0 1.6.1.3.4.6.7.7s.6.1.9-.1c.5-.2.8-.6 1.1-1.2.4-1 .1-2-.6-2.2-.9-.3-1.8.2-2.1 1.2z"/><path id="XMLID_105_" class="st25" d="M141.5 352.1c-.2-.1-.4-.2-.7-.1-.4.1-.9.4-1.2.9-.5.8-.5 1.7 0 2.1.2.1.4.2.7.1.4-.1.9-.4 1.2-.9.5-.8.5-1.7 0-2.1z"/><path id="XMLID_101_" class="st25" d="M150.6 343.1c-2.6 2.6-4.2 3.6-4.6 3.9.5-.7 1.9-3.7 2.1-4.8.2-.7-.4-.6-.4-.6-5.2 8.7-8 8.3-11 8.5-.4 0-.3.3-.3.3.4.2 2.6.5 2.8.6 5.1.5 5.1 4.2 5.4 4.9 0 0 .3.2.4-.3.1-.6 0-2.8-.7-4.5 1.9-1.4 5.7-5.9 6.7-7.6.3-.5-.4-.4-.4-.4z"/><path id="XMLID_97_" class="st25" d="M155.7 367.5c-1.3-2.9-5-6.3-6.7-7.7 4.5-4.7 8.7-10.8 10.1-14.2.4-.9-.5-.7-.5-.7-2 3.1-6.1 7.3-7.7 7.7.8-1.8 2.5-6.7 2.6-10.7 0-.8-.5-.6-.5-.6-5.5 15.2-9.6 17.5-14 19.9-1.4.8-2.8 1.5-4.4 2.8-.7.6.2.8.2.8 6.4-3.9 13-5.6 20.6 3.4 0 0 .6-.2.3-.7z"/></g><g class="st3"><path class="st13" d="M380.9 275.1h-10.1l-3.1-9.6-3.1 9.6h-10.1l8.2 6-3.1 9.6 8.2-5.9 8.2 5.9-3.1-9.6 8-6zm-6.6 13.4l-6.6-4.8-6.6 4.8 2.5-7.8-6.6-4.8h8.2l2.5-7.8 2.5 7.8h8.2l-6.6 4.8 2.5 7.8zM359 276.6l5.3 3.9-2 6.3 5.4-3.9 5.3 3.9-2-6.3 5.3-3.9h-6.6l-2-6.3-2.1 6.3z"/></g><g class="st3"><path class="st13" d="M381.3 184.7h-10.1l-3.1-9.6-3.1 9.6h-10.1l8.2 6-3.1 9.6 8.2-5.9 8.2 5.9-3.1-9.6 8-6zm-6.6 13.4l-6.6-4.8-6.6 4.8 2.5-7.8-6.6-4.8h8.2l2.5-7.8 2.5 7.8h8.2l-6.6 4.8 2.5 7.8zm-15.3-11.9l5.4 3.9-2.1 6.3 5.4-3.9 5.3 3.9-2-6.3 5.3-3.9h-6.6l-2-6.3-2.1 6.3z"/></g><g class="st3"><path class="st13" d="M106.2 271.7H96.1l-3.1-9.6-3.1 9.6H79.8l8.2 6-3.1 9.6 8.2-5.9 8.2 5.9-3.1-9.6 8-6zm-6.6 13.5l-6.6-4.8-6.6 4.8 2.5-7.8-6.6-4.8h8.2l2.5-7.8 2.5 7.8h8.2l-6.6 4.8 2.5 7.8zm-15.3-12l5.4 3.9-2.1 6.3 5.4-3.8 5.4 3.9-2.1-6.4 5.4-3.8-.1-.1h-6.5l-2.1-6.3-2 6.3z"/></g><path class="st26" d="M161.4 117.7l-8.5-2.9-18-6.2 1.7 28.6s.1-.1.2-.1l4.8-3.6.2-.2-.7-15.1c-.1-1.1.4-1.4 1.4-1.1 4.3 1.4 10 3.4 14.2 4.8 0 0 .5-.4 1.3-1l.8-.6c1-.8 2.1-1.6 3.2-2.4-.3-.1-.4-.2-.6-.2zm-19.6-4.7l-.7.5-.3.2-1.6-.5c-.7-.2-1.1.2-1.1.9 0 .5.1 1.3.1 1.7 0 0-.1.1-.3.2-.5.3-.9.7-1.5 1.1-.1-2.4-.2-4.6-.3-6.9l6.3 2.2c.1.1-.6.6-.6.6zm70.5 254c1.7 2.5 3.4 5 5 7.4l10.7 15.7 15.8-23.9h-6.5l-8.5 12.5c-.6.9-1.2.9-1.8 0l-8.5-12.4h-6.7l.5.7zm12.9 15.5h1.1l1 1.4c.5.5 1 .5 1.4-.1l1-1.5h2.2c-1.3 2-2.6 3.8-3.9 5.7l-3.7-5.6c0 .1.9.1.9.1z"/><path class="st27" d="M310.3 359.7c1 .9 2.6.9 3.6 0 .8-.7 1.3-1.5 1.6-2.5.7-2.2.4-4.3-.5-6.3-.4-1-1-1.8-1.7-2.7-.2-.3-.2-.3.1-.5 0 0 .1 0 .1-.1l.4.5c.6.7 1.2 1.4 1.7 2.3.6 1 1.1 2.1 1.6 3.2.5 1 1 2 1.7 2.8s1.5 1.6 2.4 2.2c1.5 1 3.2 1.7 5 1.9l.8.1c0-1.1-.3-2.1-.6-3.1-.5-1.3-1.1-2.4-2-3.5-.6-.7-1.3-1.4-2.1-2-.8-.6-1.7-1.1-2.7-1.5-1.6-.7-3.1-1.4-4.4-2.5l-1.2-1c.1-.2.2-.3.3-.4l.2.2c.4.3.9.7 1.4 1 2 1.3 4.2 1.9 6.7 1.5 1.3-.2 2.6-.7 3.5-1.8.3-.4.6-.8.7-1.3.3-1.3-.4-2.6-1.7-3.2-1-.5-2.1-.5-3.1-.4l-2.8.4c-.8.1-1.5.1-2.3-.1h-.1c.2.5.4.9.5 1.4l.9-.2c.5-.1 1.1-.2 1.6 0 1 .4 1.4 1.6.7 2.4-.4.5-.9.7-1.5.8-1.1.2-2.1-.1-3.1-.7l-1-.7.6-.9c.3-.5.3-.5-.1-.9h-.2l-.5.3c-.2.1-.4.3-.7.4-.2-.4-.4-.8-.4-1.3 0-.7.2-1.4.9-1.8l.6-.3c-.1-.2-.4-.6-.7-.8-.7-.5-1.5-.3-2 .3s-.5 1.2-.4 1.8c.2.9.5 1.6 1 2.4.2.3.2.3 0 .5-.1.1-.2.1-.3 0l-1.2-1.9c-.3-.5-.6-.9-1-1.3-.7-.6-1.5-.9-2.4-1 .6.6 3.5 3.4 3.5 3.4s-.1-.7-.6-1.5c-.6-.8-1.1-1.2-1.3-1.3-.1 0-.1-.1-.1-.1l.1.1c.3.2 1.1.6 1.5 1.1.6.8.6 1.8.6 1.8s-1.4 0-2.4-1.2c-.5-.5-.9-1.7-1.3-2.4h-.3c.1.4.2.8.3 1.1.2.8.6 1.6 1.3 2.1.4.3.9.6 1.3.8.5.3 1.1.6 1.5 1-.1.1-.2.2-.3.4h-.1l-.4-.3c-.7-.5-1.5-.9-2.4-1-.7-.1-1.4.1-1.9.7s-.5 1.3 0 1.9c.2.2.4.5.7.6.1-1.3 2.1-2 3.4-1.1l-.5.8c-.3.5-.3.5.1.9.1.1.2.1.3 0 .4-.2.7-.4 1.1-.7.1-.1.2-.1.3 0 .6.7 1 1.4 1.2 2.3s.2 1.8-.3 2.6c-.3.5-.7.8-1.4.9-.8 0-1.5-.6-1.6-1.4-.1-.5 0-.9.1-1.3l.2-.9c-.5 0-.9-.2-1.2-.4h-.1v.2c.2.5.2.9.2 1.4l-.4 3.2c-.1.7-.2 1.3-.1 2-.1 1 .3 1.9 1.1 2.6zm11.2-14.4c0-1.5-1.6-2-1.6-2s1.7-.3 3.1.5c.4.2.9.7.9 1.4.1 1.1-.7 1.5-1.2 1.8-2.4 1.4-5.3.7-5.3.7 3.3 0 4.1-1.3 4.1-2.4zm-.5 3.3c4.1.2 5.2-2.2 5.2-3.1.1-2-2.7-2.7-2.7-2.7s1.2.1 2.2 1c.2.1.8.8.8 1.5.1 1.1-.6 2-1.3 2.4-3.7 2.6-7.8 0-7.8 0 1.4.5 2.6.8 3.6.9zm-7.8-7.3c.3-.5 1.3-.4 1.3-.4-1.9.9-1.1 3.1-1.1 3.1s-.9-1.6-.2-2.7zm13 18.2s-.3-2.3-2.1-4.6c-1.9-2.5-3.6-3.7-4.2-4.1-.2-.1-.3-.2-.3-.2s.1.1.3.2c.9.5 3.3 2.1 4.6 3.7 2 2.5 2.2 5.5 2.2 5.5s-4.2-.3-7.6-4c-1.7-1.8-2.9-5.8-4.4-7.8l11.5 11.3zm-18.5-11.9s-.1-.9.4-1.3c1.1-.7 2.7.2 2.7.2s-2.2-.7-3.1 1.1zm2.8 8.8c-.8-1.5-.5-3.1-.5-3.1s.5 1.6 2 1.6c1.1 0 2.4-.8 2.4-4 0 0 .8 2.8-.7 5.3-.3.5-.7 1.2-1.8 1.2-.7-.2-1.2-.7-1.4-1zm0 2.6c-.9-1-1-2.2-1-2.2s.6 2.8 2.7 2.7c.9 0 3.3-1.1 3.1-5.2 0-1-.4-2.1-.8-3.5 0 0 2.6 4.1 0 7.8-.4.6-1.4 1.3-2.4 1.3-.8-.1-1.5-.7-1.6-.9zm10.3.4c-1.1-.1-2.2-.3-3.1-.9-.3-.2-.4-.1-.6.1-.7.7-1.5 1.2-2.5 1.6 1.2-1.8 1.7-3.7 2-5.7 1.1 1.9 2.6 3.5 4.2 4.9z"/><g class="st3"><path id="XMLID_93_" class="st25" d="M85.4 183.5c1.6-1.5 4.1-3.2 4.2-5.4.2-3.1-2.4-7.1-2.5-8.5 0 0 .3-.6.6.1 2.2 5.1 7.2 7.6 10.8 7 0 0 .5 1.3.7 1.8.9 1.1 6.6 2.4 8.3 2.6 0 0 .5.5-.1.5-3.3.1-6.3-.4-7.6-.7-.5-.1-.6.1-.2.4 1.3 1.2 3.4 2.4 7.2 4 0 0 .4.6-.3.5-3.9-.8-15-6-15.2-5.8-1.9 1.8-4.4 3.3-5.6 3.7-.2.2-.3-.2-.3-.2z"/><path id="XMLID_89_" class="st25" d="M82.9 192.9c.2-.3.3-.6.2-1-.1-.6-.5-1.1-1-1.5s-1.2-.5-1.7-.4c-.4.1-.7.3-.9.5-.2.3-.3.6-.2 1 .1.5.5 1.1 1 1.5s1.2.5 1.7.4c.4 0 .7-.2.9-.5z"/><path id="XMLID_85_" class="st25" d="M87.4 176.2c-.6-.1-1.1.1-1.5.4-.3.2-.4.5-.5.8 0 .3.1.6.3.9.3.4.8.6 1.4.7 1 .1 1.9-.5 2-1.2.1-.8-.7-1.5-1.7-1.6z"/><path id="XMLID_81_" class="st25" d="M91.9 186.3c.1-.2 0-.5-.1-.7-.2-.4-.7-.7-1.2-.9-.9-.3-1.8 0-2 .6-.1.2 0 .5.1.7.2.4.7.7 1.2.9.9.3 1.8 0 2-.6z"/><path id="XMLID_10_" class="st25" d="M103 192.5c-3.2-1.8-4.6-3-5-3.4.9.3 4.1.8 5.3.7.7-.1.4-.6.4-.6-9.8-2.6-10.2-5.4-11.3-8.2-.1-.3-.4-.2-.4-.2-.1.5.2 2.6.2 2.9.9 5.1-2.6 6.1-3.2 6.5 0 0-.1.3.4.3.6 0 2.7-.8 4.1-1.9 1.9 1.5 7.3 3.8 9.1 4.3.7.3.4-.4.4-.4z"/><path id="XMLID_6_" class="st25" d="M81.1 204.2c2.4-2.1 4.7-6.6 5.5-8.6 5.8 3 12.8 5.3 16.5 5.7 1 .1.5-.6.5-.6-3.5-1.1-8.7-3.8-9.5-5.2 2 .3 7.1.5 11-.5.8-.2.4-.7.4-.7-16.1-1-19.5-4.3-23-7.8-1.1-1.1-2.3-2.2-3.9-3.4-.7-.5-.7.4-.7.4 5.5 5 9 10.9 2.5 20.7 0 0 .2.5.7 0z"/></g><path class="st26" d="M320.2 136.4l1.2-8.9c.8-6.1 1.7-12.7 2.5-18.9l-27.7 7.3s.1.1.2.1l4.5 3.9.2.2 14.6-3.7c1.1-.3 1.5.1 1.4 1.2-.5 4.5-1.3 10.4-1.9 14.9 0 0 .5.4 1.3 1.1.2.2.5.4.8.7l3 2.6c-.2-.2-.1-.4-.1-.5zm.7-20.2s-.6-.5-.6-.6l-.2-.2c.1-.3.2-1.3.2-1.7 0-.7-.4-1-1.1-.9-.5.1-1.2.3-1.7.5l-.3-.3c-.4-.4-.8-.7-1.4-1.2 2.3-.6 4.5-1.1 6.7-1.7l-.9 6.6c0 .1-.7-.5-.7-.5z"/><g class="st3"><path class="st4" d="M424 353.4l-.9 1.4"/><path class="st16" d="M421.4 357.6c-57.4 88.2-170.2 127.9-272.7 89.3C30.2 402.3-29.7 270.1 14.9 151.7 54.8 45.6 165-13.5 272.6 7.3"/><path class="st4" d="M274.3 7.6l1.6.3"/></g><circle class="st6" cx="424" cy="353.4" r="7"/><path class="st6" d="M278 8.4l-.8-8 11.4 9.7-13.9 5.5z"/><circle class="st1" cx="228.6" cy="232.6" r="209.3"/><path class="st28" d="M89.5 132.6c14-19.4 32-35.8 52.7-48 25.4-14.9 54.9-23.4 86.5-23.4 19.1 0 37.4 3.1 54.5 8.8"/><path class="st29" d="M91.3 335.1c-21.4-28.6-34-64.1-34-102.5 0-37.3 11.9-71.9 32.2-100"/><path class="st30" d="M281.7 395.6c-16.7 5.4-34.5 8.4-53 8.4-56.2 0-106.1-27-137.3-68.8"/><path class="st31" d="M400 231.7v.9c0 37.3-11.9 71.9-32.2 100-21.1 29.3-51.2 51.6-86.2 63"/><path class="st32" d="M283.1 70.1c67.7 22.7 116.5 86.4 116.9 161.7"/><path class="st1" d="M129.7 230.4l-72.4-.6m386.5 2.2l-114.6-.6m-5.1 32.9l16.6 5.6M297.1 28.6l-39.2 116.9m-38.6 184l-2 20.3m22.3-231.3l-1.1 11.8m72.2 161.2l92.7 66.7M53.9 107l91.5 65.8M286.3 311l12.3 16.8m-38.4 1.7l34.9 107.4M175.6 69.6l21.8 67m-21.6 182.5l-8.9 13.5m130.6-195.8l-10.4 15.6M164.7 293.7L143.5 314m169.9-162.4l-13.5 12.9M197.4 326.7l-22.9 68.9m66.3-66.1l2.4 19.3"/><path class="st2" d="M140.2 275l-18.1 8.6m212.8-101.9l-14.5 6.9"/><path class="st1" d="M143.5 296.1l-87.6 65.3M366 130.1l-56.3 42.1"/><path class="st2" d="M128.1 247.3l-13.4 1.9M345 215.6l-16.4 2.4"/><g class="st3"><path class="st4" d="M240.2 114.4l1.7.2"/><path class="st5" d="M245.2 115.1c52.6 7.6 95.2 50.4 100.4 105.7 6.1 64.9-41.6 122.4-106.4 128.4-57.5 5.4-109.3-31.5-124.5-85.1"/><path class="st4" d="M114.2 262.5l-.4-1.6"/></g><circle class="st6" cx="240.2" cy="114.4" r="6.1"/><path class="st6" d="M113.5 259.9l-5.6 3.5 3.1-12 9.2 8.4z"/><path class="st8" d="M228.6 138.6c51.9 0 94 42.2 94 94s-42.2 94-94 94-94-42.2-94-94 42.2-94 94-94m0-11c-58 0-105 47-105 105s47 105 105 105 105-47 105-105-46.9-105-105-105z"/><path class="st9" d="M228.6 149.3c45.9 0 83.3 37.4 83.3 83.3s-37.4 83.3-83.3 83.3-83.3-37.4-83.3-83.3 37.4-83.3 83.3-83.3m0-10.8c-52 0-94.1 42.1-94.1 94.1s42.1 94.1 94.1 94.1 94.1-42.1 94.1-94.1-42.1-94.1-94.1-94.1z"/><g class="st3"><path class="st10" d="M282.3 177L175 280.4m105.4 2L176.9 175.1m93.3-8.2l-83.1 123.7m103.4-20.3l-123.7-83.2m135 27.5l-146.3 28.3m87.3 59l-28.3-146.3m88.7 72.8l-149.1-.8m73.4 75.7l2.3-149.1m50 41.3L177.5 262m84.4 17.9l-66.5-102.3m93 63.5l-119.5-24.7m47.4 72.1L241 169m43.5 84.3l-111.7-49.1m31.3 80.4l49.1-111.7m32.3 33.7l-113.7 44.3m79 34.7l-44.3-113.7"/><path class="st11" d="M229.3 169.3l15.5 45.8h48.8l-41 28 15.8 45.7-39.4-28.4-42.4 28.4 16-45.5-41.3-28.2h52.5z"/><path class="st12" d="M229.3 184.7l11.9 35.1h37l-31.4 21.5 12 35.1-29.8-21.8-32.9 21.8 12.1-35.1-31.5-21.5h40.7z"/><path class="st11" d="M229.7 192l10.1 29.8 31.3.1-26.8 18.2 10.3 29.8-25.2-18.5-28.2 18.5 10.4-29.8-26.8-18.2 34.8-.1z"/></g><g class="st3"><path class="st13" d="M229.3 184.7l5.9 17.2h18.3l-15.4 10.5 5.9 17.2-14.8-10.7-15.9 10.7 6-17.1-15.5-10.6h19.7z"/><path class="st12" d="M229.3 190.5l4.5 13.2h13.9l-11.8 8.1 4.5 13.1-11.2-8.2-12.3 8.2 4.5-13.1-11.8-8.1h15.3z"/><path class="st13" d="M229.3 193.3l3.8 11.3h11.8l-10.1 6.8 3.9 11.2-9.5-6.9-10.6 6.9 3.9-11.2-10.1-6.8h13.1z"/><path class="st14" d="M219 255.1c0-1.2-1-2.2-2.2-2.2H212v7.5h1.1v-3.1h2.8l2.1 3.1h1.2l-2.1-3.1c1.3-.3 1.9-1 1.9-2.2zm-1.4 1c-.2.2-.5.3-.8.3H213V254h3.9c.8 0 1.1.7 1.1 1.2-.1.3-.2.6-.4.9zm9.1 1.8c0 1.1-1.2 1.6-2.4 1.6s-2.3-.6-2.3-1.6v-5h-1v5.1c0 .6.2 1.2.7 1.7.6.6 1.5.9 2.6.9h.1c2.3 0 3.5-.9 3.5-2.5V253h-1v4.9h-.2zm8.5-5h-4.9v7.5h1.1v-3.1h3.7c1 0 1.9-.9 1.9-2.1 0-.6-.3-1.3-.7-1.8-.3-.3-.7-.5-1.1-.5zm.7 2.3c0 .3-.1.7-.4.9-.1.1-.3.2-.4.2h-3.8v-2.4h3.7c.5 0 .9.7.9 1.3zm7.8-2.3h-4.9v7.5h1.1v-3.1h3.7c1 0 1.9-.9 1.9-2.1 0-.6-.3-1.3-.7-1.8-.3-.3-.7-.5-1.1-.5zm.8 2.3c0 .3-.1.7-.4.9-.1.1-.3.2-.4.2h-3.8v-2.4h3.7c.4 0 .9.7.9 1.3zm6.3 5.3c1.3 0 2.4-.5 3.3-1.3.7-.7 1.1-1.6 1.1-2.6 0-2.7-2.2-3.9-4.3-3.9-1.2 0-2.3.5-3.2 1.3-.7.7-1.1 1.6-1.1 2.6 0 2.1 2 3.9 4.2 3.9zm-3.1-3.8c0-1.6 1.7-2.8 3.1-2.8.9 0 1.8.4 2.4 1 .5.5.8 1.1.8 1.8s-.3 1.4-.8 1.9c-.6.6-1.5 1-2.4 1-1.7 0-3.1-1.3-3.1-2.9zm-41.3.6h2.6v1.3c-.2.2-1 .8-2.5.8-2 0-3.2-1.1-3.2-2.9 0-1.6 1.2-2.7 3.1-2.8h.1c1.5 0 2.7.9 2.7.9l.1.1.7-.8-.1-.1c-1.2-.8-2.2-1.2-3.3-1.2-1.2 0-2.4.4-3.2 1.2-.7.7-1.1 1.6-1.1 2.6 0 2.4 1.7 3.9 4.3 3.9 2.4 0 3.5-1.4 3.5-1.5v-2.6h-3.7v1.1zM168.6 240c0-.4.3-1 1.6-1l2.4.6-.2-2.7c-.2.2-.4.2-.6.2-.5-.1-1.1-.2-1.9-.2-2.9 0-4.2 1.7-4.2 3.3 0 3 4.6 3.3 4.6 5.4 0 .8-.8 1.2-1.7 1.2-1.9 0-3.2-.9-3.2-.9l.3 2.7c.2-.1.5-.1.7-.1.6.2 1.5.4 2.5.4 2.7 0 4.2-1.5 4.2-3.3.1-3.9-4.5-3.8-4.5-5.6zm97.1-1.8v10.5h2.6v-11.6h-3.1s.5.2.5 1.1zm-2.3 2.7c0-2.1-1.7-3.8-3.8-3.8H254s.5.3.5.8v10.8h2.5v-4h1.5l2.3 4h2.8l-2.4-4.4c1.3-.6 2.2-1.9 2.2-3.4zm-6.4-1.3h2.3c.7 0 1.3.6 1.3 1.3s-.6 1.3-1.3 1.3H257v-2.6zm-6.8 3.3v1.9s-1 1.6-2.5 1.6c-1.2 0-3-1.2-3-3.4s1.6-3.4 3-3.4l2.2 1 1.2-2.3s-1.3-1.4-3.5-1.4c-2.9 0-5.4 2.4-5.4 6 0 3.7 2.8 6.1 5.4 6.1s3.6-1.6 5-3.1v-3.5h-2.9c.1-.1.5.2.5.5zm36.2-6c-3 0-5.5 2.7-5.5 6s2.4 6 5.5 6 5.5-2.7 5.5-6-2.5-6-5.5-6zm0 9.3c-1.4 0-2.6-1.4-2.6-3.3s1.2-3.3 2.6-3.3 2.6 1.4 2.6 3.3-1.1 3.3-2.6 3.3zm-9.5-3l-3.5-6.1H270s.5.2.5 1.1v10.5h2.4v-7.2l3.9 7.2h2.4v-11.6h-2.4v6.1h.1zm-40.6.9h3.5v-2.5h-3.5v-2h4.5l-.6-2.5h-6.7s.5.2.5 1.1v10.6h6.7l.6-2.6h-4.9v-2.1h-.1zm-44.1-.9l-3.5-6.1h-3.4s.5.2.5 1.1v10.5h2.4v-7.2l3.9 7.2h2.4v-11.6h-2.4v6.1h.1zm35.4-6.1h-3.1s.5.2.5 1.1v10.5h6.7l.6-2.6h-4.6l-.1-9zm-50.9 0s.6.3.4 1l-3.1 10.6h2.3l.8-2.7h3.6l.9 2.7h2.8l-3.8-11.6h-3.9zm1 6.7l1.1-3.7 1.2 3.7h-2.3zm24.2-6.7h-5.5s.5.2.5 1.1v10.5h2.5v-4h2.5c2.1 0 3.8-1.7 3.8-3.8s-1.7-3.8-3.8-3.8zm-.2 5.2h-2.3v-2.7h2.3c.7 0 1.3.6 1.3 1.3s-.6 1.4-1.3 1.4zm17.1-5.2h-3.1s.5.2.5 1.1v10.5h6.7l.6-2.6h-4.6l-.1-9zm-9.3 7h3.5v-2.5h-3.5v-2h4.5l-.6-2.5h-6.7s.5.2.5 1.1v10.6h6.7l.6-2.6h-4.9v-2.1h-.1z"/></g><path class="st15" d="M228.6 159.6c40.2 0 73 32.7 73 73s-32.7 73-73 73-73-32.7-73-73 32.8-73 73-73m0-11c-46.4 0-84 37.6-84 84s37.6 84 84 84 84-37.6 84-84-37.6-84-84-84z"/><g class="st3"><path class="st12" d="M286.3 182.3l.4.5 3.2-2.7-.4-.5.7-.6 1.5 1.7-.7.6-.4-.5-3.2 2.7.4.5-.7.6-1.5-1.7.7-.6zm2.4 2.8l.2.3c.1.1.2.1.3 0l4-2.9.6.8-1.3 3.8c-.1.4-.4.9-.4.9s.4-.3.7-.5l2.2-1.6c.3-.2.6-.2.8.1l.6.9-.8.6-.2-.3c-.1-.1-.2-.1-.3 0l-4 2.9-.6-.8 1.3-3.8c.1-.4.4-.9.4-.9s-.4.3-.7.5l-2.2 1.6c-.3.2-.6.2-.8-.1l-.6-.9.8-.6zm8.1 4.3l-.3-.5.8-.5 1.3 2.1c1 1.6.6 3.2-1 4.2s-3.2.5-4.2-1.1l-.7-1.1c-.2-.4-.2-.6.2-.8l3.9-2.3zm-2.8 3.3l.3.5c.6 1 1.6 1.3 2.8.6 1.2-.7 1.4-1.7.8-2.8l-.4-.6-3.4 2c-.2.1-.2.2-.1.3zm2.5 4.4l.3.5 3.7-1.9-.3-.5.8-.4 1 2-.8.4-.3-.5-3.7 1.9.3.5-.8.4-1-2 .8-.4zm5.4 1.9c.1-.1.1-.2.1-.3l-.1-.1.9-.4.3.6c.2.4.1.6-.2.8l-2.6 2.4c-.3.2-.7.6-.7.6s.5-.1.9-.1l3.5-.2c.4 0 .6.1.7.5l.3.7-.9.4-.1-.1c-.1-.1-.1-.2-.3-.2l-5.2.3-.5-1.1 3.9-3.8zm-1.3 7.5l.2.6 3.9-1.4-.2-.6.9-.3.7 2.1-.9.3-.2-.6-3.9 1.4.2.6-.9.3-.7-2.1.9-.3zm5.4 3l-.1-.5.9-.2.6 2.4c.5 1.8-.3 3.3-2.1 3.8s-3.2-.4-3.7-2.2l-.3-1.3c-.1-.4 0-.6.4-.7l4.3-1.3zm-3.7 2.3l.1.5c.3 1.2 1.2 1.7 2.5 1.4s1.8-1.3 1.5-2.5l-.2-.7-3.8 1c-.1.1-.1.2-.1.3zm5.3 4.7c.1 0 .2-.1.2-.2l-.1-.4.9-.2.2 1.1c.1.4-.1.6-.5.7l-3.2.6c-.8.1-1.1.7-1 1.5.1.7.7 1.2 1.5 1l3.2-.6c.4-.1.6.1.7.5l.2 1.1-.9.2-.1-.4c0-.1-.1-.2-.2-.2l-2.7.5c-1.3.2-2.4-.5-2.6-1.9s.5-2.5 1.8-2.7l2.6-.6zm2.5 9.9c.1 1.8-1.1 3.2-2.8 3.3-1.8.1-3.3-1.1-3.4-2.9s1.1-3.2 2.9-3.3 3.2 1.1 3.3 2.9zm-5.1.4c.1 1.1 1.1 1.9 2.3 1.8 1.2-.1 2-1 1.9-2.1s-1-1.9-2.2-1.8c-1.3 0-2.1 1-2 2.1z"/></g><g class="st3"><path class="st12" d="M185.6 313.9c-.7-.4-1.9-1.4-1.4-2.3l.3-.6.9.5-.2.3c-.2.4.3.9.8 1.2 1 .5 2.1.2 2.7-.9.6-1 .2-2.3-.7-2.8-1-.5-2-.1-2-.1l-.1-1s1.3-.5 2.6.2c1.6.9 2.1 2.7 1.3 4.3-.9 1.4-2.7 2-4.2 1.2zm-6.3-3.7c-1.5-1-1.9-2.8-1-4.3 1-1.5 2.8-1.9 4.3-1s1.9 2.8.9 4.3c-.9 1.5-2.7 2-4.2 1zm2.8-4.4c-.9-.6-2.1-.3-2.8.7-.6 1-.4 2.2.6 2.8s2.1.3 2.8-.7c.5-1 .3-2.2-.6-2.8zm-3.7-2.3l-.2-.2c-.1-.1-.2-.1-.3 0l-3.3 3.6-.9-.7.8-3c.1-.4.3-.8.3-.8s-.4.3-.7.5l-2.7 1.5-.9-.7 2.7-4.1c.1-.1.1-.2 0-.3l-.2-.2.6-.7.8.6c.3.2.3.5.1.8l-1.5 2.3c-.2.3-.6.7-.6.7s.5-.4.8-.5l2.2-1.1.7.6-.6 2.4c-.1.4-.3.9-.3.9s.3-.4.6-.7l1.8-2c.3-.3.5-.3.8-.1l.8.6-.8.6zm-9.6-2.6c-.1.1-.1.2 0 .3l.3.2-.6.7-.8-.7c-.3-.3-.3-.5 0-.8l2.2-2.4c.5-.6.5-1.3-.1-1.8s-1.2-.5-1.8.1l-2.2 2.4c-.3.3-.5.3-.8 0l-.8-.7.6-.7.3.2c.1.1.2.1.3 0l1.9-2c.9-1 2.2-1 3.3-.1 1.1 1 1.1 2.3.2 3.3l-2 2zm-2.1-7.4l-.2-.3c-.1-.1-.2-.1-.3 0l-3.6 3.3-.7-.7.9-3.9c.1-.4.3-.9.3-.9s-.3.4-.6.6l-2 1.9c-.3.3-.5.3-.8 0l-.7-.8.7-.6.2.3c.1.1.2.1.3 0l3.6-3.3.7.7-.9 3.9c-.1.4-.3.9-.3.9s.3-.4.6-.6l2-1.9c.3-.3.5-.3.8 0l.7.8-.7.6zm-4.9-5.6l-.4-.5-3.2 2.6.4.5-.7.6-1.4-1.8.7-.6.4.5 3.2-2.6-.4-.5.7-.6 1.4 1.8-.7.6zm-6.8-2l.5.8c.1.1.2.1.3 0l.3-.2.6.8-.8.6c-.3.2-.5.2-.8-.1l-2.4-3.4c-.2-.3-.2-.5.1-.8l.8-.6.6.8-.3.2c-.1.1-.1.2 0 .3l.5.8 4.1-3 .6.9-4.1 2.9zm-5.1-3l-.5-.9.6-1.2.4.7-.5 1.4zm6.4-2.3l-.1-.1c-.1-.1-.1-.2-.3-.1l-5.1 1.1-.6-1 3.2-4.1c.1-.1.1-.2 0-.3l-.1-.1.8-.5.3.6c.2.4.2.5 0 .9l-.7.9 1.1 1.7 1.1-.2c.4-.1.6 0 .8.3l.4.6-.8.3zm-3.1-2.2l-1 1.2c-.2.3-.6.7-.6.7l.9-.3 1.6-.4-.9-1.2z"/></g><g class="st3"><path class="st12" d="M181 142.7l-.5.3-.4-.8 2.5-1.3c1-.5 2.1-.2 2.6.9.5 1 .2 2.1-.8 2.6l-1 .5.9 1.9-1 .5-2.3-4.6zm2.7.9c.6-.3.7-.8.4-1.4-.3-.6-.8-.7-1.3-.5l-.8.4.9 1.8.8-.3zm4 .4l.5-.2-1.7-3.8-.6.2-.4-.9 2.1-.9.4.9-.6.2 1.7 3.8.5-.2.4.9-2.1.9-.2-.9zm3.2-1.5h.1c.1-.1.2-.1.2-.3l-.1-5.2 1.1-.4 3.4 3.9c.1.1.2.1.3.1h.1l.3.9-.6.2c-.4.2-.6.1-.8-.2l-.7-.8-1.9.7v1.1c0 .4-.1.6-.5.7l-.6.2-.3-.9zm2.8-2.7l-1-1.2c-.2-.3-.5-.8-.5-.8s.1.6.1.9l.1 1.6 1.3-.5zm3.5.3l.3-.1c.1 0 .2-.1.1-.2l-1.4-4.7 1-.3 3.2 2.5.7.7s-.2-.5-.3-.8l-.8-2.6c-.1-.4 0-.6.4-.7l1-.3.3.9-.3.1c-.1 0-.2.1-.1.2l1.4 4.7-1 .3-3.2-2.5-.7-.7s.2.5.3.8l.8 2.6c.1.4 0 .6-.4.7l-1 .3-.3-.9zm6.7-6.2l-.5.1-.2-.9 3.5-.8c.4-.1.6 0 .7.4l.2.9-1 .2-.1-.4c0-.1-.1-.2-.2-.1l-1.3.3.4 1.5 1.9-.4.2.9-1.9.4.3 1.4c0 .1.1.2.2.1l1.4-.3c.1 0 .2-.1.1-.2l-.1-.4 1-.2.2.9c.1.4 0 .6-.4.7l-2.7.6c-.4.1-.6 0-.7-.4l-1-4.3zm7.1-1.5l-.9.2c-.1 0-.2.1-.2.2l.1.4-1 .2-.2-.9c-.1-.4 0-.6.4-.6l4.1-.7c.4-.1.6.1.6.4l.2.9-1 .2-.1-.4c0-.1-.1-.2-.2-.2l-.9.2.9 5-1.1.2-.7-5.1zm4.2 3.5h.1c.1 0 .2-.1.2-.2l1.3-5.1 1.2-.1 2.3 4.7c.1.1.1.2.3.2h.1l.1.9-.7.1c-.4 0-.6 0-.8-.4l-.5-1-2 .2-.3 1.1c-.1.4-.2.5-.6.6l-.7.1v-1.1zm3.3-1.9l-.7-1.4-.3-.9s-.1.6-.1.9l-.4 1.6 1.5-.2z"/></g><path class="st33" d="M51 232.6c0-38.8 12.5-74.8 33.6-104L54.4 107c-25.5 35.3-40.5 78.7-40.5 125.6 0 48.1 15.8 92.5 42.5 128.3l29.7-22.2C64.1 309.1 51 272.4 51 232.6z"/><path class="st34" d="M406.8 231.8h37.1c-.3-94.5-61.6-174.6-146.6-203.1l-11.8 35.2c70.2 23.6 120.9 89.8 121.3 167.9z"/><path class="st35" d="M228.9 410.5c-58.5 0-110.3-28.2-142.8-71.8l-29.7 22.2c39.2 52.6 101.8 86.6 172.5 86.6 23.3 0 45.8-3.7 66.8-10.6l-11.4-35.3c-17.5 5.8-36.1 8.9-55.4 8.9z"/><path class="st36" d="M228.9 54.7c19.8 0 38.8 3.2 56.6 9.2l11.8-35.2c-21.5-7.2-44.5-11.1-68.4-11.1C157 17.6 93.5 52.9 54.4 107l30.2 21.5c32.3-44.7 84.9-73.8 144.3-73.8z"/><path class="st37" d="M443.8 231.8h-37.1v.8c0 78.9-51.4 145.8-122.5 169.1l11.4 35.3c86-28.1 148.1-109 148.1-204.4.1-.3.1-.5.1-.8z"/><g class="st3"><path class="st12" d="M42.5 301.9c-.4-1-.7-3.2.7-3.7l.9-.3.5 1.3-.4.2c-.6.2-.5 1.3-.2 2 .5 1.4 2 2.2 3.6 1.5 1.6-.6 2.4-2.2 1.8-3.7-.6-1.5-2-2-2-2l.8-1.2s1.8.6 2.6 2.7c.9 2.4-.3 4.8-2.7 5.7-2.4.9-4.8-.2-5.6-2.5zm-3.1-9c-.8-2.4.5-4.8 2.8-5.5 2.4-.8 4.8.5 5.6 2.8.8 2.4-.5 4.8-2.9 5.5-2.4.9-4.8-.4-5.5-2.8zm7-2.2c-.5-1.5-2.1-2.2-3.7-1.7-1.6.5-2.4 2-1.9 3.5s2 2.3 3.6 1.8c1.6-.6 2.4-2.1 2-3.6zm-1.7-5.4l-.1-.5c0-.2-.2-.2-.3-.2l-6.7 1.8-.4-1.4 3.7-4.3 1-1s-.7.3-1.1.4l-3.8 1c-.5.1-.9 0-1-.6l-.4-1.5 1.3-.3.1.5c0 .2.2.2.3.2l6.7-1.8.4 1.4-3.7 4.3-1 1s.7-.3 1.1-.4l3.8-1c.6-.1.9 0 1 .6l.4 1.5-1.3.3zm-3.6-10.2s.8-1.1.6-2.2c-.1-.6-.6-1.1-1.2-1-1.4.3-.5 4.2-3.1 4.8-1.3.3-2.6-.7-2.9-2.3-.2-1-.1-2.6 1.1-2.8l.8-.2.3 1.4-.4.1c-.4.1-.5.7-.4 1.2.2.7.6 1.1 1.2 1 1.4-.3.3-4.2 3-4.8 1.3-.3 2.7.5 3 2.2.4 1.8-.7 3.1-.7 3.1l-1.3-.5zm-6-6.1c-.2 0-.2.1-.2.3l.1.5-1.3.2-.3-1.5c-.1-.6.1-.8.7-.9l4.6-.8c1.1-.2 1.6-1 1.4-2-.2-1.1-.9-1.6-2-1.5l-4.5.8c-.6.1-.8-.1-.9-.7l-.3-1.5 1.3-.2.1.5c0 .2.1.2.3.2l3.8-.6c1.9-.3 3.4.8 3.7 2.8s-.7 3.5-2.6 3.8l-3.9.6zm4.1-9.3v-.4c0-.2-.1-.2-.3-.2l-6.9.2-.2-1.6 3.8-2.2c.5-.3 1.1-.5 1.1-.5s-.7-.1-1.2-.3l-4.2-1.3-.2-1.6 6.8-1.3c.2 0 .3-.1.2-.3v-.4l1.3-.2.2 1.3c.1.6-.2.8-.7.9l-3.7.7c-.6.1-1.3.2-1.3.2s.9.2 1.4.3l3.3 1 .1 1.3-3 1.8c-.5.3-1.3.6-1.3.6s.8-.1 1.3-.1l3.8-.2c.6 0 .8.2.9.7l.2 1.3-1.4.3zM38 248.5l-.1-.8-5.8.4.1.8-1.3.1-.2-3.2 1.3-.1.1.8 5.8-.4-.1-.8 1.3-.1.2 3.2-1.3.1zm-6.4-9.1v.8h-1.3l-.1-5.1c0-.6.2-.8.8-.8h1.3v1.4h-.5c-.2 0-.3.1-.3.3v1.9l2.2-.1-.1-2.8h1.3l.1 2.8h2c.2 0 .3-.1.3-.3v-2c0-.2-.1-.3-.3-.3h-.5v-1.4h1.3c.6 0 .8.2.8.8l.1 3.9c0 .6-.2.8-.8.8l-6.3.1zm-1.4-15.1c0-1.1.6-3.2 2-3.2h.9l-.1 1.4h-.5c-.6 0-1 1-1 1.7-.1 1.5 1 2.8 2.8 2.8 1.7.1 3.1-1.1 3.1-2.7.1-1.6-1-2.6-1-2.6l1.2-.8s1.4 1.3 1.3 3.5c-.1 2.6-2.1 4.3-4.6 4.2-2.4.1-4.2-1.9-4.1-4.3zm7.6-4.6l.1-.8-5.8-.4-.1.8-1.3-.1.2-3.2 1.3.1-.1.8 5.8.4.1-.8 1.3.1-.2 3.2-1.3-.1zm-5.2-8l-.1 1.3c0 .2.1.3.2.3l.5.1-.1 1.4-1.3-.1c-.6-.1-.7-.3-.7-.8l.6-5.9c.1-.6.3-.7.8-.7l1.3.1-.1 1.4-.5-.1c-.2 0-.3.1-.3.2l-.1 1.3 7.1.8-.2 1.6-7.1-.9zm1.1-8.6l-.2 1.3c0 .2.1.3.2.3l.5.1-.2 1.4-1.3-.2c-.6-.1-.7-.3-.6-.9l.9-5.9c.1-.6.3-.7.9-.6l1.3.2-.2 1.4-.5-.1c-.2 0-.3.1-.3.2l-.2 1.3 7.1 1.1-.2 1.6-7.2-1.2zm6.5-3.4v-.2c0-.2 0-.3-.2-.4l-6.3-3.8.3-1.6 7.3-1.2c.2 0 .3-.1.3-.3v-.2l1.3.3-.2.9c-.1.6-.3.8-.9.9l-1.6.2-.5 2.8 1.4.8c.5.3.6.5.5 1.1l-.2.9-1.2-.2zm-1.2-5.3l-2.2.3c-.5.1-1.3.1-1.3.1s.8.3 1.2.6l2 1.1.3-2.1zm-2.6-5.6l-.2.8-1.3-.3.8-3.4c.6-2.6 2.5-3.9 5.2-3.2s3.7 2.7 3.1 5.2l-.4 1.8c-.1.6-.4.7-1 .6l-6.2-1.5zm6.1-.4l.2-.7c.4-1.7-.3-3-2.2-3.4-1.8-.4-3.1.4-3.5 2l-.2 1 5.4 1.3c.1 0 .3 0 .3-.2zm1.6-6.4l.2-.8-5.6-1.6-.2.8-1.3-.4.9-3.1 1.3.4-.2.8 5.6 1.6.2-.7 1.3.4-.9 3.1-1.3-.5zm1.3-4.4l.2-.5c.1-.2 0-.3-.2-.3l-6.6-2.1.4-1.3 5.5-1.6c.6-.2 1.4-.3 1.4-.3s-.7-.1-1.2-.3l-3.7-1.2c-.5-.2-.7-.5-.5-1l.5-1.5 1.3.4-.2.5c-.1.2 0 .3.2.3l6.6 2.1-.4 1.3-5.5 1.6c-.6.2-1.4.3-1.4.3s.7.1 1.2.3l3.7 1.2c.5.2.7.5.5 1l-.5 1.5-1.3-.4zm3.1-9.4l.3-.8-5.5-2-.3.8-1.2-.5 1.1-3 1.2.5-.3.8 5.5 2 .3-.8 1.2.5-1.1 3-1.2-.5z"/></g><g class="st3"><path class="st12" d="M341.5 70.5l-.6-.5.8-1.1 4 2.8c.5.3.5.7.2 1.1l-.8 1.1-1.2-.8.3-.4c.1-.1.1-.3-.1-.4l-1.3-1-1.4 2 2.2 1.6-.8 1.1-2.2-1.6-2 2.8-1.3-.9 4.2-5.8zm9.4 5.1c2 1.5 2.3 4.2.8 6.1-1.5 2-4.2 2.4-6.2.8s-2.3-4.2-.7-6.2c1.5-1.9 4.1-2.3 6.1-.7zm-4.5 5.8c1.2.9 3 .7 4-.7 1-1.3.8-3-.4-4s-3-.7-4 .6c-1 1.4-.8 3.1.4 4.1zm4.5 3.5l.4.3c.1.1.3.1.4 0l4.5-5.2 1.1.9-.6 5.7c-.1.6-.2 1.4-.2 1.4s.4-.6.7-1l2.5-3c.4-.4.7-.5 1.2-.1l1.2 1-.9 1-.4-.3c-.1-.1-.3-.1-.4 0l-4.5 5.2-1.1-.9.6-5.7c.1-.6.2-1.4.2-1.4s-.4.6-.7 1l-2.5 2.9c-.4.4-.7.5-1.2.1l-1.2-1 .9-.9zm13.4 4.1l-.9-.9c-.1-.1-.3-.1-.4 0l-.4.4-1-1 .9-1c.4-.4.7-.4 1.1 0l4.3 4.1c.4.4.4.7 0 1.1l-.9 1-1-1 .4-.4c.1-.1.1-.3 0-.4l-.9-.9-5 5.2-1.1-1.1 4.9-5.1zm.1 8.3l.6.6 4.2-4.1-.6-.6.9-.9 2.2 2.3-1 .9-.6-.6-4.2 4.1.6.6-1 .9-2.2-2.3 1.1-.9zm10.7 2.7l-.5-.6 1-.9 3.4 3.9c.4.4.4.8-.1 1.2l-1 .9-.9-1.1.4-.3c.1-.1.1-.2 0-.4l-1.3-1.4-1.7 1.5 1.8 2.1-1 .9-1.8-2.1-1.5 1.3c-.1.1-.1.2 0 .4l1.3 1.5c.1.1.2.1.4 0l.4-.3.9 1.1-1 .9c-.4.4-.8.4-1.2-.1l-2.6-2.9c-.4-.4-.4-.8.1-1.2l4.9-4.4zm8.6 10.2l-.8-1c-.1-.1-.2-.1-.4 0l-.4.3-.9-1.1 1.1-.8c.4-.3.7-.3 1.1.1l3.7 4.7c.4.5.3.7-.1 1.1l-1.1.8-.9-1.1.4-.3c.1-.1.1-.2 0-.4l-.8-1-5.7 4.4-1-1.2 5.8-4.5zm4.1 5.3l-.5-.6 1.1-.8 3 4.2c.3.5.3.8-.2 1.1l-1.1.8-.8-1.2.4-.3c.1-.1.2-.2.1-.4l-1.1-1.6-1.8 1.3 1.6 2.2-1.1.8-1.6-2.2-1.6 1.2c-.1.1-.2.2-.1.4l1.2 1.6c.1.1.2.2.4.1l.4-.3.8 1.2-1.1.8c-.5.3-.8.3-1.1-.2l-2.3-3.1c-.3-.5-.3-.8.2-1.1l5.2-3.9zm4.5 6.4l-.4-.7 1.1-.7 2.1 3.2c.9 1.3.7 2.7-.7 3.6-1.3.8-2.4.3-2.7.1 0 0 0 .3-.1.6l-.9 1.6c-.1.2 0 .4.1.7l.1.1-1.1.7-.5-.7c-.4-.5-.4-.8-.1-1.3l1.2-2.1c.2-.3.1-.5-.1-.9l-.4-.7-2.7 1.8-.9-1.3 6-4zm-.7 3.8c.4.7 1.1.8 1.8.3s.8-1.1.4-1.8l-.7-1.1-2.2 1.5.7 1.1zm5.3 3.2l-.4-.7 1.1-.7 2 3.3c.8 1.3.5 2.8-.8 3.6s-2.4.2-2.7-.1c0 0 0 .3-.2.6l-1 1.6c-.1.2-.1.4.1.7l.1.1-1.1.7-.4-.7c-.3-.5-.4-.8-.1-1.3l1.3-2c.2-.3.2-.5-.1-.9l-.4-.7-2.7 1.6-.8-1.3 6.1-3.8zm-.9 3.8c.4.7 1.1.8 1.8.4s.9-1.1.5-1.7l-.7-1.1-2.3 1.4.7 1zm-.4 5.6l.4.7 5.1-2.8-.4-.7 1.2-.6 1.6 2.8-1.2.6-.4-.7-5.1 2.8.4.7-1.2.6-1.6-2.8 1.2-.6zm8.7 3.8l-.6-1.2c-.1-.1-.2-.2-.4-.1l-.5.2-.6-1.2 1.2-.6c.5-.3.8-.2 1 .3l2.7 5.3c.3.5.2.8-.3 1l-1.2.6-.6-1.2.5-.2c.1-.1.2-.2.1-.4l-.6-1.2-6.4 3.3-.7-1.4 6.4-3.2zm5.8 8.5c1 2.3.1 4.8-2.1 5.8-2.3 1-4.8.1-5.9-2.2-1-2.3 0-4.8 2.2-5.9 2.2-.9 4.7 0 5.8 2.3zm-6.7 3c.6 1.4 2.3 2 3.9 1.3 1.5-.7 2.1-2.3 1.5-3.7s-2.3-2-3.8-1.3c-1.6.7-2.3 2.3-1.6 3.7zm8 3.8l-.3-.7 1.2-.5 1.4 3.5c.6 1.4.1 2.8-1.4 3.4-1.4.6-2.4-.2-2.6-.5 0 0 0 .3-.2.5l-1.2 1.4c-.2.2-.1.4 0 .7l.1.1-1.2.5-.3-.8c-.2-.6-.2-.9.2-1.3l1.6-1.8c.2-.3.2-.5.1-.9l-.3-.7-3 1.2-.6-1.5 6.5-2.6zM410 161c.3.7.9 1 1.7.7.8-.3 1.1-.9.8-1.6l-.5-1.2-2.5 1 .5 1.1zm-1.3 5.5l.3.8 5.5-2-.3-.8 1.3-.4 1.1 3-1.3.4-.3-.8-5.5 2 .3.8-1.3.4-1.1-3 1.3-.4zm9.9 6.3c.8 2.4-.5 4.8-2.8 5.5-2.4.8-4.8-.5-5.6-2.9-.8-2.4.5-4.8 2.9-5.5 2.3-.7 4.7.5 5.5 2.9zm-7 2.2c.5 1.5 2.1 2.3 3.7 1.7 1.6-.5 2.4-2 1.9-3.5s-2-2.3-3.6-1.8c-1.6.6-2.5 2.2-2 3.6z"/></g><g class="st3"><path class="st12" d="M245.3 429.3l1.3-.1c.2 0 .3-.1.2-.3v-.5l1.4-.1.1 1.3c0 .6-.1.8-.7.8l-5.9.5c-.6 0-.8-.1-.8-.7l-.1-1.3 1.4-.1v.5c0 .2.1.3.3.2l1.3-.1-.6-7.2 1.6-.1.5 7.2zm-6.7.4h.8v1.3l-3.8.1c-1.6.1-2.7-.9-2.7-2.5-.1-1.5 1-2.2 1.3-2.3 0 0-.3-.1-.4-.4l-.9-1.6c-.1-.2-.3-.3-.6-.3h-.2v-1.3h.8c.6 0 .9.1 1.2.6l1.2 2.1c.2.3.4.4.8.4h.8l-.1-3.2 1.6-.1.2 7.2zm-2.9-2.5c-.8 0-1.2.5-1.2 1.4 0 .8.5 1.3 1.3 1.3h1.3l-.1-2.7h-1.3zm-4.5-3.1h-.2c-.2 0-.3 0-.4.3l-2.6 6.9h-1.6l-2.4-6.9c-.1-.2-.2-.3-.4-.3h-.2v-1.3h.9c.6 0 .8.2 1 .7l.5 1.5h2.9l.5-1.5c.2-.5.4-.7 1-.7h.9l.1 1.3zm-5 2.1l.7 2.1c.2.5.3 1.3.3 1.3s.2-.8.3-1.3l.8-2.1h-2.1zm-4.9-1.3s-.8-1-2-1.1c-.6 0-1.2.3-1.3.9-.1 1.4 3.9 1.5 3.8 4.2-.1 1.4-1.3 2.3-3 2.3-1 0-2.5-.6-2.4-1.8v-.8l1.4.1v.4c0 .4.5.7 1.1.7.7 0 1.3-.3 1.3-.8.1-1.4-3.9-1.4-3.8-4.1.1-1.4 1.2-2.5 2.9-2.4 1.9.1 2.9 1.5 2.9 1.5l-.9.9zm-7.5 4.5l.8.1-.1 1.3-3.9-.3c-1.6-.1-2.6-1.3-2.5-3 .1-1.6 1.4-2.7 2.9-2.6l1.5.1.3-2.9 1.6.1-.6 7.2zm-2.6-3.1c-.9-.1-1.4.5-1.5 1.3-.1.9.4 1.5 1.2 1.6l1.3.1.3-2.9-1.3-.1zm-9.2 3.3c-2.5-.3-4.1-2.5-3.8-4.9.3-2.5 2.5-4.2 5-3.8s4.1 2.5 3.8 5c-.4 2.4-2.5 4.1-5 3.7zm1-7.2c-1.5-.2-2.9.9-3.1 2.6-.2 1.6.8 3 2.4 3.2s2.9-.9 3.1-2.5c.2-1.7-.9-3.1-2.4-3.3zm-7.5 4.7l.8.1-.2 1.3-3.8-.7c-1.5-.3-2.4-1.4-2.1-3 .3-1.5 1.4-1.9 1.8-1.9 0 0-.2-.2-.3-.5l-.5-1.8c-.1-.3-.3-.3-.5-.4h-.2l.2-1.3.8.2c.6.1.9.3 1.1.8l.7 2.3c.1.4.3.5.7.5l.8.1.6-3.1 1.5.3-1.4 7.1zm-2.3-3.1c-.8-.1-1.3.3-1.5 1.1-.2.8.2 1.4 1 1.5l1.2.2.5-2.6-1.2-.2zm-7.6 1.2l1.3.3c.2 0 .3 0 .3-.2l.1-.5 1.3.3-.3 1.3c-.1.5-.4.7-.9.6l-5.8-1.3c-.6-.1-.7-.4-.6-.9l.3-1.3 1.3.3-.1.5c0 .2 0 .3.2.3l1.3.3 1.6-7 1.5.4-1.5 6.9zm-4.3-7.1l-.8-.2-1.5 5.7.8.2-.3 1.3-3.1-.8.3-1.3.8.2 1.5-5.7-.8-.2.3-1.3 3.1.8-.3 1.3zm-10.6 3.1l.7.2-.4 1.3-4.9-1.6c-.5-.2-.7-.5-.5-1l.4-1.2 1.4.4-.2.5c-.1.2 0 .3.2.3l1.8.6.7-2.1-2.6-.8.4-1.3 2.6.8.6-1.9c.1-.2 0-.3-.2-.3l-1.9-.6c-.2-.1-.3 0-.3.2l-.2.5-1.4-.4.4-1.2c.2-.5.5-.7 1-.5l3.7 1.2c.5.2.7.5.5 1l-1.8 5.9zm-10.9-4c-.1.2 0 .3.2.3l.5.2-.5 1.2-1.4-.6c-.5-.2-.7-.5-.5-1.1l2.2-5.7c.1-.2 0-.3-.2-.3l-1.7-.7c-.2-.1-.3 0-.3.2l-.2.5-1.3-.5.5-1.2c.2-.5.5-.7 1.1-.5l3.5 1.4c.5.2.7.5.5 1.1l-2.4 5.7zm-10.8-2.5c-2.3-1-3.3-3.5-2.3-5.7 1-2.3 3.5-3.3 5.8-2.3s3.2 3.6 2.2 5.9c-.9 2.2-3.4 3.1-5.7 2.1zm3-6.7c-1.4-.6-3.1.1-3.7 1.6-.7 1.5 0 3.1 1.4 3.8s3 0 3.7-1.5c.6-1.6 0-3.3-1.4-3.9zm-12.4 2.3c-1.9-.9-2.3-2.4-2.3-2.4l1.3-.6s.5 1.1 1.6 1.7c1.3.7 3 .2 3.7-1.4.8-1.7.2-3.3-1.2-3.9-1.2-.6-2.3-.2-2.3-.2l-.3.6c-.1.2 0 .3.1.4l.5.2-.6 1.2-1.2-.6c-.5-.3-.6-.6-.4-1.1l1.6-3.3 1.2.6-.2.4c-.1.2-.2.3-.2.3s1.2-.4 2.7.3c2 1 2.9 3.4 1.7 5.8-1 2.3-3.5 3.1-5.7 2zm-1.3-9l-.7-.4-2.8 5.1.7.4-.6 1.2-2.8-1.5.6-1.2.7.4 2.8-5.1-.7-.4.6-1.2 2.8 1.5-.6 1.2zm-5.3-1.8s-.2-1.3-1.3-1.9c-.6-.3-1.2-.3-1.6.2-.7 1.2 2.8 3.2 1.4 5.5-.7 1.2-2.3 1.5-3.7.6-.9-.5-1.9-1.7-1.3-2.7l.4-.7 1.2.7-.2.3c-.2.3.1.9.6 1.1.6.4 1.3.3 1.5-.2.7-1.2-2.9-3-1.4-5.4.7-1.2 2.2-1.6 3.7-.7 1.6 1 1.8 2.6 1.8 2.6l-1.1.6zm-10.4-.6l1.1.7c.1.1.3.1.4-.1l.3-.4 1.2.7-.7 1.1c-.3.5-.6.5-1.1.2l-5-3.2c-.5-.3-.5-.6-.2-1.1l.7-1.1 1.2.7-.3.4c-.1.1-.1.3.1.4l1.1.7 3.9-6 1.3.9-4 6.1zm-1.6-8.1l-.7-.5-3.3 4.8.7.5-.8 1.1-2.6-1.8.8-1.1.7.5 3.3-4.8-.7-.5.8-1.1 2.6 1.8-.8 1.1zm-11.7.7c-.9-.7-2.3-2.3-1.4-3.5l.6-.8 1.1.9-.3.4c-.4.5.3 1.3.9 1.8 1.2.9 2.8.8 3.9-.7 1-1.3.8-3.1-.4-4.1-1.3-1-2.7-.6-2.7-.6v-1.4s1.9-.4 3.6.9c2.1 1.6 2.3 4.2.8 6.2-1.5 2-4.1 2.4-6.1.9zm.8-8.6l-.1-.1c-.2-.1-.3-.2-.5 0l-6.4 3.7-1.3-1 2.5-6.9c.1-.2 0-.3-.1-.4l-.1-.1.8-1 .7.6c.5.4.5.6.3 1.2l-.5 1.5 2.2 1.8 1.4-.8c.5-.3.7-.3 1.2.1l.7.6-.8.8zm-5.2-1.5l-.8 2.1c-.2.5-.5 1.2-.5 1.2s.6-.5 1.1-.8l1.9-1.2-1.7-1.3z"/></g><g class="st3"><path class="st12" d="M70.8 114.4l-.5.6-1.1-.8 2.3-3c1-1.2 2.4-1.5 3.7-.5 1.2.9 1.1 2.2.9 2.5 0 0 .3-.1.6-.1l1.8.3c.3 0 .4-.1.6-.3l.1-.1 1.1.8-.5.7c-.4.5-.6.7-1.2.6l-2.4-.4c-.4-.1-.5 0-.8.4l-.5.6 2.5 1.9-1 1.2-5.6-4.4zm3.8-.6c.5-.6.4-1.3-.3-1.8s-1.3-.4-1.8.2l-.8 1 2.1 1.6.8-1zm5-1.2l.5-.7-4.5-3.7-.5.7-1-.8 2-2.5 1 .8-.5.7 4.5 3.7.5-.7 1 .8-2 2.5-1-.8zm-.1-11.2c.7-.8 2.5-2.1 3.6-1.2l.7.6-.9 1.1-.4-.3c-.5-.4-1.4.2-1.8.7-1 1.1-1 2.8.4 3.9 1.3 1.1 3.1 1.1 4.1-.1 1.1-1.2.9-2.7.9-2.7l1.4.1s.3 1.9-1.2 3.5c-1.7 2-4.4 2-6.3.3-2-1.4-2.2-4-.5-5.9zm8.3 1.7l.6-.6-4.3-4-.6.6-1-.9 2.2-2.3 1 .9-.6.6 4.3 4 .6-.6 1 .9-2.2 2.3-1-.9zm.6-11.2c.8-.8 2.6-2 3.6-.9l.7.7-1 1-.3-.3c-.4-.4-1.4.1-1.9.6-1.1 1.1-1.1 2.7.1 4 1.2 1.2 3 1.3 4.1.2 1.1-1.1 1-2.6 1-2.6l1.4.2s.2 1.9-1.4 3.5c-1.8 1.8-4.5 1.7-6.3-.1-1.7-1.9-1.8-4.6 0-6.3zm4.9-2.4c-.1-.1-.2-.1-.4 0l-.4.4-.9-1 1.1-1c.4-.4.8-.4 1.2 0l4.2 4.5c.1.1.2.1.4 0l1.4-1.3c.1-.1.1-.2 0-.4l-.4-.4 1-1 .9 1c.4.4.4.8 0 1.2L98.7 94c-.4.4-.8.4-1.2 0l-4.2-4.5zm6.5-8.2c1.9-1.6 4.6-1.4 6.2.4 1.6 1.9 1.5 4.6-.4 6.3-1.9 1.6-4.6 1.4-6.2-.5-1.7-1.9-1.5-4.5.4-6.2zm4.8 5.6c1.2-1 1.3-2.8.2-4.1-1.1-1.2-2.8-1.4-4-.4s-1.3 2.8-.2 4c1.1 1.3 2.8 1.5 4 .5zm5.4-4.7l.9 2.9-.9.7-1.1-2.7 1.1-.9zm.6-7.6l-.6.5-.8-1.1 3.1-2.3c1.3-.9 2.7-.8 3.7.5.9 1.2.4 2.4.2 2.6 0 0 .3-.1.6.1l1.6.8c.3.1.4 0 .6-.1l.1-.1.8 1.1-.7.5c-.5.4-.8.5-1.3.2l-2.1-1.1c-.3-.2-.5-.1-.9.2l-.6.5 1.9 2.6-1.3.9-4.3-5.8zm3.8.5c.6-.5.7-1.1.2-1.8-.5-.7-1.2-.8-1.8-.3l-1 .8 1.6 2.2 1-.9zm5.2.2l.7-.5L117 70l-.7.5-.8-1.1 2.6-1.8.8 1.1-.7.5 3.3 4.8.7-.5.8 1.1-2.6 1.8-.8-1.1zm3.5-3.5s1.3.4 2.3-.3c.5-.4.8-1 .5-1.5-.8-1.2-4.1 1.1-5.5-1.2-.7-1.2-.3-2.7 1.1-3.6.8-.5 2.4-1 3 0l.4.7-1.2.8-.2-.3c-.2-.3-.8-.2-1.3.1-.6.4-.8 1-.6 1.4.8 1.2 4-1.2 5.5 1.2.7 1.1.5 2.7-1 3.6-1.6 1-3.2.5-3.2.5l.2-1.4zm3-7.7l-.7.4-.7-1.1 3.4-2c1.4-.8 2.9-.4 3.7 1s.5 3-.9 3.8l-1.3.8 1.5 2.5-1.4.8-3.6-6.2zm3.9 1c.8-.5.9-1.2.4-2-.4-.8-1.2-1-1.9-.5l-1.1.7 1.5 2.5 1.1-.7zm3.8 1.2l.2-.1c.2-.1.2-.2.2-.4l-1.1-7.3 1.4-.8 5.5 4.9c.2.2.3.2.5.1l.2-.1.6 1.2-.8.4c-.5.3-.8.3-1.2-.1l-1.2-1.1-2.5 1.4.2 1.6c.1.6 0 .8-.5 1.1l-.8.5-.7-1.3zm3.4-4.3l-1.7-1.5c-.4-.3-.9-1-.9-1s.2.8.3 1.3l.4 2.2 1.9-1zm2.1-5.3l-.7.3-.6-1.2 3.4-1.7c1.4-.7 2.8-.3 3.5 1.1.7 1.4 0 2.4-.3 2.6 0 0 .3 0 .6.2l1.5 1.1c.2.2.4.1.7 0l.1-.1.6 1.2-.7.4c-.6.3-.9.3-1.3 0l-1.9-1.4c-.3-.2-.5-.2-.9 0l-.7.4 1.4 2.9-1.4.7-3.3-6.5zm3.7 1.1c.7-.4.9-1 .5-1.8s-1-1-1.7-.6l-1.1.6 1.2 2.4 1.1-.6zm4.7 1.2l.3-.1c.2-.1.2-.2.1-.3l-2.3-6.6 1.5-.7 3.2 3c.4.4.8.9.8.9s-.1-.7-.1-1.2v-4.4l1.5-.7L156 55c.1.1.2.2.3.1l.3-.1.5 1.2-1.2.5c-.5.2-.8.1-1.1-.4l-1.8-3.4c-.3-.5-.5-1.2-.5-1.2s.1.9.1 1.4v3.4l-1.2.5-2.6-2.3-1-1s.3.7.5 1.2l1.3 3.6c.2.5.1.8-.4 1.1l-1.2.5-.3-1.1zm9.8-4.2l.8-.3-2.1-5.5-.8.3-.5-1.2 3-1.2.5 1.2-.8.3 2.1 5.5.8-.3.5 1.2-3 1.2-.5-1.2zm5.5-9.9c2.4-.8 4.8.3 5.6 2.6.8 2.4-.3 4.8-2.7 5.7-2.4.8-4.8-.4-5.6-2.8-.9-2.2.3-4.6 2.7-5.5zm2.4 7c1.4-.5 2.2-2.1 1.6-3.8-.5-1.5-2.1-2.3-3.6-1.8s-2.2 2.1-1.7 3.6c.6 1.7 2.2 2.5 3.7 2zm6.7-2.5l-.3 3-1.1.3-.1-2.9 1.5-.4zm3.3-6.9l-.8.2-.3-1.3 3.7-1c1.5-.4 2.8.2 3.2 1.8.4 1.5-.5 2.4-.8 2.5 0 0 .3 0 .5.3l1.2 1.4c.2.2.4.2.7.1h.2l.3 1.3-.8.2c-.6.2-.9.1-1.3-.3l-1.6-1.8c-.3-.3-.5-.3-.9-.2l-.7.3.8 3.1-1.5.4-1.9-7zm3.4 1.9c.8-.2 1.1-.8.9-1.6-.2-.8-.8-1.2-1.5-1l-1.2.3.7 2.6 1.1-.3zm4.2-3.8l-.8.2-.3-1.3 5-1.1c.5-.1.9.1 1 .6l.3 1.3-1.4.3-.1-.5c0-.2-.2-.2-.3-.2l-1.9.4.5 2.2 2.7-.6.3 1.3-2.7.6.4 2c0 .2.2.2.3.2l1.9-.4c.2 0 .2-.2.2-.3l-.1-.5 1.4-.3.3 1.3c.1.6-.1.9-.6 1l-3.8.9c-.6.1-.8-.1-1-.6l-1.3-6.5zm10.1-3.6c1.1-.2 3.3-.1 3.5 1.3l.2.9-1.4.3-.1-.5c-.1-.6-1.2-.7-1.9-.6-1.5.3-2.5 1.6-2.2 3.3.3 1.6 1.7 2.7 3.3 2.5 1.6-.3 2.3-1.6 2.3-1.6l1 1s-1 1.7-3.1 2.1c-2.6.5-4.7-1.1-5.1-3.6-.4-2.5 1.1-4.7 3.5-5.1zm5.4.8c0-.2-.1-.2-.3-.2l-.5.1-.2-1.3 1.5-.2c.6-.1.8.1.9.7l.6 4.6c.2 1.1.9 1.7 2 1.5 1.1-.1 1.7-.9 1.5-2l-.6-4.6c-.1-.6.1-.8.7-.9l1.5-.2.2 1.3-.5.1c-.2 0-.2.1-.2.3l.5 3.9c.3 1.9-.9 3.3-2.9 3.6s-3.5-.8-3.8-2.7l-.4-4zm9.1-1.4l-.8.1-.1-1.3 3.9-.4c1.6-.2 2.8.9 3 2.5s-.8 2.9-2.4 3.1l-1.5.1.3 2.9-1.6.1-.8-7.1zm3.1 2.6c.9-.1 1.3-.7 1.2-1.6-.1-.9-.6-1.4-1.5-1.3l-1.3.1.3 2.9 1.3-.1zm4.3-3.3h-.8l-.1-1.3 5.1-.3c.6 0 .8.2.9.8l.1 1.3-1.4.1v-.5c0-.2-.1-.3-.3-.2l-1.9.1.1 2.2 2.8-.2.1 1.3-2.8.2.1 2c0 .2.1.3.3.2l2-.1c.2 0 .3-.1.2-.3v-.5l1.4-.1.1 1.3c0 .6-.2.8-.8.9l-3.9.2c-.6 0-.8-.2-.9-.8l-.3-6.3zm7.1-.4h-.8V34l3.8-.1c1.6 0 2.7.9 2.7 2.5 0 1.5-1 2.2-1.4 2.3 0 0 .3.1.4.4l.9 1.6c.1.2.3.3.6.3h.2v1.3h-.8c-.6 0-.9-.1-1.2-.6l-1.1-2.1c-.2-.3-.4-.4-.8-.4h-.8l.1 3.2h-1.6l-.2-7.1zm2.9 2.6c.8 0 1.2-.5 1.2-1.4 0-.8-.5-1.3-1.3-1.3h-1.3l.1 2.7h1.3zm8.5-4.1c2.5.1 4.4 2 4.3 4.4-.1 2.5-2 4.4-4.5 4.4s-4.4-2.1-4.3-4.6c0-2.4 2-4.3 4.5-4.2zm-.2 7.3c1.5 0 2.8-1.2 2.8-2.9 0-1.6-1.2-2.9-2.7-2.9s-2.8 1.2-2.8 2.8c0 1.7 1.2 3 2.7 3zm9.6-5.4l-.8-.1.1-1.3 5.1.4c.6 0 .8.3.7.9l-.1 1.3-1.4-.1v-.5c0-.2-.1-.3-.2-.3l-1.9-.2-.2 2.2 2.8.2-.1 1.3-2.8-.2-.2 2c0 .2.1.3.2.3l2 .2c.2 0 .3-.1.3-.2v-.5l1.4.1-.1 1.3c0 .6-.3.8-.9.7l-3.9-.3c-.6 0-.8-.3-.7-.9l.7-6.3zm10.3 1l-.8-.1.2-1.3 3.8.5c1.5.2 2.5 1.3 2.3 2.9-.2 1.5-1.3 2-1.7 2 0 0 .2.2.4.5l.6 1.7c.1.3.3.3.6.4h.2l-.2 1.3-.8-.1c-.6-.1-.9-.2-1.1-.8l-.8-2.3c-.1-.4-.3-.4-.7-.5l-.8-.1-.4 3.1-1.6-.2.8-7zm2.5 3c.8.1 1.3-.3 1.4-1.2.1-.8-.3-1.4-1-1.5l-1.3-.2-.4 2.6 1.3.3zm3.5 3.8l.8.1 1-5.8-.8-.1.2-1.3 3.1.5-.2 1.3-.8-.1-1 5.8.8.1-.2 1.3-3.1-.5.2-1.3zm5.8-4.7c0-.2 0-.3-.2-.3l-.5-.1.3-1.3 1.5.3c.6.1.8.4.6 1l-.9 4.5c-.2 1.1.3 1.9 1.4 2.1 1 .2 1.9-.3 2.1-1.4l.9-4.5c.1-.6.4-.8 1-.6l1.5.3-.3 1.3-.5-.1c-.2 0-.3 0-.3.2l-.8 3.8c-.4 1.8-1.9 2.9-3.9 2.5s-3-1.9-2.7-3.8l.8-3.9zm7.9 6.4s.6 1.2 1.8 1.5c.6.2 1.3 0 1.4-.7.3-1.4-3.6-2.2-2.9-4.8.3-1.3 1.7-2 3.3-1.7 1 .2 2.3 1.1 2.1 2.2l-.2.8-1.4-.3.1-.4c.1-.4-.4-.8-.9-.9-.7-.2-1.3.1-1.4.6-.3 1.4 3.6 2.1 3 4.8-.3 1.3-1.6 2.2-3.3 1.8-1.8-.4-2.5-2-2.5-2l.9-.9zm11.5-3.6c2.4.7 3.7 3.1 3 5.4-.7 2.4-3.1 3.8-5.5 3.1s-3.7-3.1-3-5.5c.8-2.4 3.1-3.7 5.5-3zm-2 7.1c1.5.4 3-.5 3.5-2.1s-.4-3.1-1.9-3.5-3 .4-3.5 2c-.4 1.6.4 3.2 1.9 3.6z"/></g><g class="st3"><path class="st12" d="M426.2 238.1v-.8l1.3.1-.2 3.9c-.1 1.6-1.2 2.7-2.9 2.6s-2.8-1.2-2.7-2.8l.1-1.5-2.9-.1.1-1.6 7.2.2zm-3 2.7c0 .9.5 1.4 1.4 1.4s1.5-.4 1.5-1.3l.1-1.3-2.9-.1-.1 1.3zm2.6 5.4l.1-.8 1.3.1-.3 3.8c-.1 1.6-1.2 2.6-2.8 2.4-1.5-.1-2.1-1.2-2.1-1.6 0 0-.1.3-.5.4l-1.7.7c-.3.1-.3.3-.3.6v.2l-1.3-.1.1-.8c.1-.6.2-.9.7-1.1l2.2-.9c.3-.2.4-.3.5-.8l.1-.8-3.2-.3.1-1.6 7.1.6zm-2.9 2.5c-.1.8.4 1.3 1.2 1.4.8.1 1.4-.4 1.4-1.1l.1-1.3-2.7-.2v1.2zm3.2 9.5c-.3 2.5-2.5 4.1-4.9 3.8-2.5-.3-4.2-2.4-3.9-4.9.3-2.5 2.5-4.1 5-3.8 2.5.3 4.1 2.4 3.8 4.9zm-7.3-.9c-.2 1.5.9 2.9 2.6 3.1 1.6.2 3-.9 3.2-2.4s-.9-2.9-2.5-3.1c-1.7-.2-3.1.9-3.3 2.4zm4.9 7.5l.1-.8 1.3.2-.6 3.4c-.5 2.6-2.3 4-5 3.5s-3.9-2.4-3.4-5l.3-1.8c.1-.6.4-.8.9-.7l6.4 1.2zm-6.1.8l-.1.8c-.3 1.7.5 2.9 2.4 3.3 1.9.3 3.1-.6 3.4-2.2l.2-1-5.5-1c-.3-.2-.4-.1-.4.1zm4.1 8.3c.2 0 .3 0 .3-.2l.1-.5 1.3.3-.3 1.5c-.1.6-.4.7-1 .6l-4.5-1c-1.1-.3-1.9.3-2.1 1.3s.2 1.9 1.3 2.1l4.5 1c.5.1.7.4.6 1l-.3 1.5-1.3-.3.1-.5c0-.2 0-.3-.2-.3l-3.8-.9c-1.8-.4-2.8-2-2.3-4s2-3 3.9-2.6l3.7 1zm-7.8 7l4.2 5.1c.4.5.6.8.6.8s0-.2.2-.6l.6-2c0-.2 0-.3-.2-.3l-.5-.1.4-1.4 1.2.3c.5.2.7.5.6 1l-1.5 5.3-.9-.3-4.2-5.1c-.4-.5-.6-.8-.6-.8s0 .2-.2.6l-.6 2.2c0 .2 0 .3.2.3l.5.1-.4 1.4-1.2-.3c-.6-.2-.7-.4-.6-1l1.6-5.6.8.4zm-1.8 7.7l-.3.8 5.6 1.8.3-.8 1.3.4-1 3-1.3-.4.3-.8-5.6-1.8-.3.8-1.3-.4 1-3 1.3.4zm4 11c-.8 2.4-3.3 3.5-5.6 2.7-2.4-.8-3.6-3.3-2.7-5.6.8-2.4 3.3-3.5 5.7-2.6 2.3.7 3.5 3.1 2.6 5.5zm-6.9-2.5c-.5 1.4.3 3 1.9 3.6 1.5.5 3.1-.2 3.6-1.6s-.2-3-1.8-3.6c-1.5-.6-3.1.1-3.7 1.6zm-1.9 5.4l-.2.5c-.1.2 0 .3.1.3l6.4 2.7-.5 1.3-5.6 1.2c-.6.1-1.4.2-1.4.2s.7.2 1.1.4l3.6 1.5c.5.2.7.5.4 1.1l-.6 1.4-1.2-.5.2-.5c.1-.2 0-.3-.1-.3l-6.4-2.7.5-1.3 5.6-1.2c.6-.1 1.4-.2 1.4-.2s-.7-.2-1.1-.4l-3.6-1.5c-.5-.2-.7-.5-.4-1.1l.6-1.4 1.2.5zm1.1 12.2l.3-.7 1.2.6-2.2 4.7c-.2.5-.6.6-1.1.4l-1.2-.6.6-1.3.5.2c.2.1.3 0 .4-.1l.8-1.7-2-1-1.2 2.5-1.2-.6 1.2-2.5-1.8-.9c-.2-.1-.3 0-.4.1l-.8 1.8c-.1.2 0 .3.1.4l.5.2-.6 1.3-1.2-.6c-.5-.2-.6-.6-.4-1.1l1.7-3.5c.2-.5.6-.6 1.1-.4l5.7 2.8zm-5.1 10.4l.4-.7 1.2.6-2.5 4.5c-.3.5-.6.6-1.1.3l-1.1-.6.7-1.3.5.2c.1.1.3 0 .4-.1l.9-1.7-2-1.1-1.3 2.4-1.2-.6 1.3-2.4-1.8-1c-.1-.1-.3 0-.4.1l-.9 1.7c-.1.1 0 .3.1.4l.5.2-.7 1.3-1.1-.6c-.5-.3-.6-.6-.3-1.1l1.9-3.4c.3-.5.6-.6 1.1-.3l5.4 3.2zm-10.4 6.4l-.4.7 5 3.1.4-.7 1.1.7-1.7 2.7-1.1-.7.4-.7-5-3.1-.4.7-1.1-.7 1.7-2.7 1.1.7zm-2.3 3.8l-.2.3c-.1.1-.1.3.1.4l5.4 4.3-.9 1.4-4.3-.8c-.5-.1-1.2-.3-1.2-.3s.4.5.7 1l2.4 3.7-.9 1.4-6-3.4c-.1-.1-.3-.1-.4.1l-.2.3-1.1-.7.8-1.1c.3-.5.6-.5 1.1-.2l3.3 1.9c.5.3 1.1.7 1.1.7s-.6-.7-.8-1.1l-1.8-2.9.7-1.1 3.4.6c.5.1 1.4.4 1.4.4s-.7-.4-1.1-.8l-3-2.3c-.5-.4-.5-.7-.2-1.1l.8-1.1.9.4zm-2.1 13.4l.5-.6 1.1.8-2.2 3c-.9 1.2-2.2 1.6-3.3.8-.8-.6-.9-1.3-.8-1.9-.8.6-1.7.4-2.4-.1-1.4-1-1.2-2.6-.2-3.8l1.3-1.7c.3-.5.7-.5 1.1-.2l4.9 3.7zm-5.8-2.1l-.7 1c-.5.6-.3 1.3.3 1.7.6.4 1.2.4 1.7-.2l.9-1.2-1.8-1.3c-.1-.1-.3-.1-.4 0zm2.4 3.1c-.4.5-.2 1.1.3 1.5s1.1.3 1.5-.2l.8-1.1-1.7-1.3-.9 1.1zm-2.8 9.4c-1.6 1.9-4.3 2.2-6.2.6-1.9-1.6-2.2-4.3-.6-6.2s4.3-2.1 6.2-.5c1.9 1.5 2.2 4.1.6 6.1zm-5.7-4.7c-1 1.2-.8 3 .5 4s3 .9 4-.3.8-2.9-.5-4c-1.2-1-3-.9-4 .3zm-1 10.2l.9-1c.1-.1.1-.3 0-.4l-.4-.3.9-1 1 .9c.4.4.4.7.1 1.1l-4 4.4c-.4.4-.7.4-1.1.1l-1-.9.9-1 .4.3c.1.1.3.1.4 0l.9-1-5.3-4.8 1.1-1.2 5.2 4.8zm-5.9 6.3l.9-.9c.1-.1.1-.3 0-.4l-.4-.4 1-1 1 .9c.4.4.4.7 0 1.1l-4.2 4.2c-.4.4-.7.4-1.1 0l-1-.9 1-1 .4.4c.1.1.3.1.4 0l.9-.9-5.1-5.1 1.1-1.1 5.1 5.1zm-8.3-.1l-.6.6 4 4.3.6-.6.9 1-2.3 2.2-.9-1 .6-.6-4-4.3-.6.6-.9-1 2.3-2.2.9 1zm-1.7 11.5c-1.6 1.4-3 1.2-3 1.2l-.1-1.4s1.2 0 2.1-.9c1.1-1 1.3-2.7.2-4-1.2-1.4-2.9-1.4-4.1-.4-1 .9-1 2.1-1 2.1l.4.5c.1.1.2.1.4 0l.4-.3.9 1-1 .9c-.4.4-.8.4-1.1-.1l-2.4-2.7 1-.9.3.3c.1.1.2.3.2.3s.1-1.3 1.3-2.3c1.7-1.5 4.2-1.4 6 .6 1.5 1.8 1.4 4.5-.5 6.1zm-5.8 2.7c.1.1.2.1.4 0l.4-.3.8 1-1.2 1c-.4.4-.8.3-1.1-.1l-3.8-4.8c-.1-.1-.2-.1-.4 0l-1.5 1.2c-.1.1-.1.2 0 .4l.3.4-1.1.9-.8-1c-.4-.4-.3-.8.1-1.1l2.9-2.3c.4-.4.8-.3 1.1.1l3.9 4.6zm-8.7-.3l-.7.5 3.5 4.7.7-.5.8 1.1-2.5 1.9-.8-1.1.7-.5-3.5-4.7-.7.5-.8-1.1 2.5-1.9.8 1.1zm-3.4 2.6l-.2.1c-.2.1-.2.2-.2.4l1.9 7.1-1.3.9-6-4.2c-.2-.1-.3-.1-.5 0l-.2.1-.8-1.1.8-.5c.5-.3.8-.3 1.2 0l1.3.9 2.4-1.7-.4-1.5c-.2-.6-.1-.8.4-1.1l.8-.5.8 1.1zm-2.9 4.7l1.8 1.3c.4.3 1 .8 1 .8s-.3-.8-.5-1.2l-.6-2.2-1.7 1.3zm-4.3.3l-.3.2c-.1.1-.2.2-.1.4l3.2 6.2-1.4.9-3.6-2.5c-.4-.3-1-.7-1-.7s.2.7.2 1.2l.7 4.4-1.4.9-4.1-5.6c-.1-.1-.2-.2-.4-.1l-.3.2-.7-1.1 1.1-.7c.5-.3.8-.2 1.1.3l2.3 3.1c.3.5.7 1.1.7 1.1s-.2-.8-.3-1.4l-.5-3.4 1.1-.7 2.9 1.9c.4.3 1.1.9 1.1.9s-.4-.6-.7-1.1l-1.8-3.4c-.3-.5-.2-.8.3-1.1l1.2-.7.7.8zm-7.3 11.4l.7-.4.7 1.2-4.5 2.5c-.5.3-.8.2-1.1-.3l-.6-1.1 1.2-.7.3.4c.1.1.2.2.4.1l1.7-.9-1.1-1.9-2.4 1.4-.7-1.2 2.4-1.4-1-1.8c-.1-.1-.2-.2-.4-.1l-1.7 1c-.1.1-.2.2-.1.4l.3.5-1.4.6-.6-1.1c-.3-.5-.2-.8.3-1.1l3.4-1.9c.5-.3.8-.2 1.1.3l3.1 5.5zm-8.8-1.8l-.5.2c-.2.1-.2.2-.1.4l3.1 6.2-1.3.6-5-2.8c-.5-.3-1.2-.8-1.2-.8s.4.6.6 1l1.8 3.5c.3.5.2.8-.4 1.1l-1.4.7-.6-1.2.5-.2c.2-.1.2-.2.1-.4L311 404l1.3-.6 5 2.8c.5.3 1.2.8 1.2.8s-.4-.6-.6-1l-1.7-3.5c-.3-.5-.2-.8.4-1.1l1.4-.7.5 1.2zm-8.9 10.8l1.2-.5c.2-.1.2-.2.1-.3l-.2-.5 1.3-.6.5 1.2c.2.5.1.8-.4 1l-5.4 2.4c-.5.2-.8.1-1-.4l-.5-1.2 1.3-.6.2.5c.1.2.2.2.3.1l1.2-.5-2.9-6.6 1.4-.6 2.9 6.6zm-8.7 5.3c-2.3.9-4.8-.2-5.7-2.5-.9-2.3.1-4.8 2.5-5.8 2.3-.9 4.8.2 5.7 2.6.9 2.3-.2 4.8-2.5 5.7zm-2.7-6.9c-1.4.6-2.1 2.2-1.5 3.8.6 1.5 2.2 2.2 3.6 1.7s2.1-2.2 1.5-3.7c-.5-1.6-2.2-2.3-3.6-1.8z"/></g></g></svg>