<svg viewBox="0 0 195 44" xmlns="http://www.w3.org/2000/svg"><path d="M106.3-.4c-12.1 0-22 9.9-22 22s9.9 22 22 22 22-9.9 22-22-9.9-22-22-22zm0 42.1c-11.1 0-20.1-9-20.1-20.1s9-20.1 20.1-20.1 20.1 9 20.1 20.1-9 20.1-20.1 20.1zm0-24.9c-2.6 0-4.8 2.1-4.8 4.8 0 2.6 2.1 4.8 4.8 4.8s4.8-2.1 4.8-4.8c0-2.6-2.2-4.8-4.8-4.8zm0 7.7c-1.6 0-2.9-1.3-2.9-2.9s1.3-2.9 2.9-2.9 2.9 1.3 2.9 2.9-1.3 2.9-2.9 2.9zM102.5 13h7.7c.4 0 .7-.2.8-.5.2-.3.1-.7 0-1l-3.8-5.7c-.4-.5-1.2-.5-1.6 0l-3.8 5.7c-.2.3-.2.7 0 1 0 .3.3.5.7.5zm3.8-5l2 3.1h-4.1zm3.8 22.2h-7.7c-.4 0-.7.2-.8.5-.2.3-.1.7 0 1l3.8 5.7c.2.3.5.4.8.4s.6-.2.8-.4l3.8-5.7c.2-.3.2-.7 0-1 0-.3-.3-.5-.7-.5zm-3.8 5l-2-3.1h4.1zM.9 26.2s1.2 1.4 3 1.4c1.1 0 2.1-.7 2.1-1.8C6 23.3.2 23.7.2 19.9c0-1.8 1.6-3.2 3.8-3.2 1.3 0 3.4.6 3.4 2.2v1H5.8v-.6c0-.6-.9-1.1-1.9-1.1-1.3 0-2.1.7-2.1 1.6 0 2.4 5.8 1.9 5.8 5.8 0 1.8-1.4 3.4-3.8 3.4-2.5 0-4-1.8-4-1.8l1.1-1zm15.7-9.4c1.6 0 4.5.7 4.5 2.6v1.2h-1.6v-.7c0-1-1.7-1.5-2.9-1.5-2.4 0-4.3 1.8-4.3 4.5 0 2.6 1.9 4.7 4.3 4.7l3.8-1.6.9 1.2s-1.7 2-4.7 2c-3.6 0-6.1-2.8-6.1-6.3.1-3.5 2.7-6.1 6.1-6.1zm8.8 1.7h-1.1V17h5.2c2.1 0 3.6 1.3 3.6 3.5 0 2-1.3 3-2.2 3.2 0 0 .3.2.5.5l1.4 2.9c.2.4.4.4.8.4h.4V29h-.8c-.9 0-1.3-.1-1.7-.9l-1.6-3.2c-.3-.6-.5-.6-1.2-.6h-1.6V29h-1.7zm3.9 4.3c1.3 0 2.1-.8 2.1-2.2s-.8-2.1-2-2.1h-2.2v4.3zm13.3-6c3.5 0 6.2 2.7 6.2 6.1 0 3.5-2.7 6.3-6.2 6.3s-6.2-2.8-6.2-6.3c0-3.4 2.7-6.1 6.2-6.1zm0 10.8c2.4 0 4.4-2 4.4-4.7 0-2.6-2-4.5-4.4-4.5s-4.4 2-4.4 4.5c0 2.7 1.9 4.7 4.4 4.7zm10.2-8.7c0-.3-.1-.4-.4-.4h-.7V17h1.7c.8 0 1.1.3 1.1 1.1v9.1c0 .2.1.4.4.4h3.3c.2 0 .4-.1.4-.4v-.8h1.5v1.5c0 .8-.3 1.1-1.1 1.1h-5.1c-.8 0-1.1-.3-1.1-1.1zm10.4 0c0-.3-.1-.4-.4-.4H62V17h1.7c.8 0 1.1.3 1.1 1.1v9.1c0 .2.1.4.4.4h3.3c.2 0 .4-.1.4-.4v-.8h1.5v1.5c0 .8-.3 1.1-1.1 1.1h-5.1c-.8 0-1.1-.3-1.1-1.1v-9zm73.6-.4h-1.1V17h4.9c3.7 0 6.1 2.2 6.1 6s-2.4 6-6.1 6h-2.7c-.8 0-1.1-.3-1.1-1.1zm2.1 9.1h1.6c2.7 0 4.4-1.6 4.4-4.6 0-2.9-1.8-4.5-4.4-4.5h-1.9v8.7c-.1.2 0 .4.3.4zm16.7-10.8c3.5 0 6.2 2.7 6.2 6.1 0 3.5-2.7 6.3-6.2 6.3s-6.2-2.8-6.2-6.3c.1-3.4 2.8-6.1 6.2-6.1zm0 10.8c2.4 0 4.4-2 4.4-4.7 0-2.6-2-4.5-4.4-4.5s-4.4 2-4.4 4.5c.1 2.7 2 4.7 4.4 4.7zm9.5-8.7c-.1-.3-.3-.4-.6-.4h-.3V17h1c.8 0 1.3.2 1.5 1l1.9 7.7c.2.6.2 1.3.2 1.3s.1-.6.3-1.3l2.4-8.7h1.5l2.2 8.7c.2.7.3 1.3.3 1.3s.1-.6.2-1.3l1.9-7.7c.2-.8.6-1 1.5-1h1v1.5h-.3c-.3 0-.5.1-.6.4L176.6 29h-2l-2-7.6c-.2-.8-.3-1.6-.3-1.6s-.2.9-.4 1.6l-2.2 7.6h-2zm17.5 8.7h.7c.2 0 .4-.1.4-.4V17h1.5l5.3 7.6c.4.6 1 1.6 1 1.6s-.1-1-.1-1.6v-6.5c0-.8.3-1.1 1.1-1.1h1.7v1.5h-.7c-.2 0-.4.1-.4.4V29h-1.5l-5.4-7.6c-.4-.6-1-1.6-1-1.6s.1 1 .1 1.6v6.5c0 .8-.3 1.1-1.1 1.1h-1.7v-1.4z" fill="#00245b"/></svg>