<svg baseProfile="basic" xmlns="http://www.w3.org/2000/svg" viewBox="0 0 880 476"><style>.st0{fill:#e8e2dd}.st1{fill:#afa0ae}.st2{fill:#fff}.st3{fill:none;stroke:#afa0ae;stroke-width:2;stroke-miterlimit:10}.st4{fill:#aea0ae}.st5{fill:#ac9ead}.st6{fill:none;stroke:#ac9ead;stroke-width:2;stroke-linecap:round;stroke-linejoin:round;stroke-miterlimit:10;stroke-dasharray:0,3.8487}</style><path class="st0" d="M775.5 246.2H10.7c-4.5 0-8.2-3.7-8.2-8.2v-.8c0-4.5 3.7-8.2 8.2-8.2h764.8c4.5 0 8.2 3.7 8.2 8.2v.8c0 4.5-3.7 8.2-8.2 8.2z"/><circle class="st1" cx="557" cy="128.3" r="101.5"/><path class="st2" d="M510.5 96.4h1c.3 0 .5-.2.5-.5V81h1.5l8.6 12c.6.8 1.4 2.2 1.4 2.2s-.1-1.3-.1-2.2V82.4c0-1 .4-1.5 1.5-1.5h1.8v1.5h-1c-.3 0-.5.2-.5.5v14.9h-1.5l-8.6-12c-.6-.8-1.4-2.2-1.4-2.2s.1 1.3.1 2.2v10.6c0 1-.4 1.5-1.5 1.5h-1.8v-1.5zm24-10.9c3.3 0 5.1 2.6 5.1 5.6v.8h-9.3c0 3 2.2 4.8 4.7 4.8 2.2 0 3.6-1.5 3.6-1.5l.8 1.2s-1.8 1.7-4.5 1.7c-3.6 0-6.3-2.6-6.3-6.3-.1-3.9 2.6-6.3 5.9-6.3zm3.4 5.1c-.1-2.5-1.6-3.7-3.4-3.7-2 0-3.7 1.3-4.2 3.7h7.6zm4.9-7.7c0-.3-.2-.5-.5-.5h-1V81h1.7c1 0 1.5.4 1.5 1.5V96c0 .4.2.5.5.5h1v1.4h-1.7c-1 0-1.5-.4-1.5-1.5V82.9zm20.3 2.5c0-1.8-1.3-3.2-3.5-3.2-1.7 0-3 .9-3 1.8v.8H555v-1.2c0-2.1 2.9-3 4.6-3 3.2 0 5.1 2.1 5.1 4.7 0 5.9-8.9 5.8-8.9 10.5 0 .3.2.5.6.5h7.1c.3 0 .5-.2.5-.5v-1.1h1.6v1.7c0 1-.4 1.5-1.5 1.5h-8.4c-1.2 0-1.5-.5-1.5-1.7-.1-6.3 8.9-5.8 8.9-10.8zm4.9 4c0-4.8 1.4-8.7 5.8-8.7s5.8 3.9 5.8 8.7c0 4.9-1.4 8.7-5.8 8.7s-5.8-3.8-5.8-8.7zm9.9 0c0-4-.9-7.2-4.1-7.2s-4.1 3.1-4.1 7.2c0 4 .9 7.2 4.1 7.2s4.1-3.2 4.1-7.2zm4.3 7h3.8V83.1s-.2.4-.8 1l-1.8 1.8-1.1-1.1 3.8-3.8h1.6v15.4h3.7v1.5h-9.1v-1.5h-.1zm10.6-6c0-4.3 2.2-9.7 7.4-9.7 1.8 0 3.1.7 3.1.7l-.6 1.5s-1.1-.6-2.4-.6c-3.5 0-5.3 3.5-5.6 6.9.8-1.3 2.5-2 4.3-2 3.1 0 5.3 2.2 5.3 5.4 0 3.5-2.4 5.6-5.3 5.6-3.8-.1-6.2-3.4-6.2-7.8zm6.1 6.2c2.3 0 3.6-1.7 3.6-4.1s-1.5-3.9-3.8-3.9-4.1 1.5-4.1 2.9c0 2.2 1.8 5.1 4.3 5.1zM490.7 143h7.2v-25.5h-.1s-.3.7-1.6 1.9l-3.5 3.5-2-2.1 7.3-7.3h3V143h7.1v2.9h-17.5l.1-2.9zm21-13.3c0-9.3 2.7-16.7 11.1-16.7 8.4 0 11.2 7.4 11.2 16.7 0 9.4-2.8 16.7-11.2 16.7-8.4 0-11.1-7.4-11.1-16.7zm19 0c0-7.7-1.7-13.7-7.9-13.7-6.1 0-7.9 6-7.9 13.7s1.7 13.8 7.9 13.8c6.2-.1 7.9-6.1 7.9-13.8zm7.3 12.5h3.5v3.7H538v-3.7zm8.5-12.5c0-9.3 2.7-16.7 11.1-16.7 8.4 0 11.2 7.4 11.2 16.7 0 9.4-2.8 16.7-11.2 16.7-8.4 0-11.1-7.4-11.1-16.7zm19 0c0-7.7-1.7-13.7-7.9-13.7-6.1 0-7.9 6-7.9 13.7s1.7 13.8 7.9 13.8c6.2-.1 7.9-6.1 7.9-13.8zm8.7 0c0-9.3 2.7-16.7 11.1-16.7 8.4 0 11.2 7.4 11.2 16.7 0 9.4-2.8 16.7-11.2 16.7-8.4 0-11.1-7.4-11.1-16.7zm19 0c0-7.7-1.7-13.7-7.9-13.7-6.1 0-7.9 6-7.9 13.7s1.7 13.8 7.9 13.8c6.2-.1 7.9-6.1 7.9-13.8zm8.7 0c0-9.3 2.7-16.7 11.1-16.7 8.4 0 11.2 7.4 11.2 16.7 0 9.4-2.8 16.7-11.2 16.7s-11.1-7.4-11.1-16.7zm19 0c0-7.7-1.7-13.7-7.9-13.7-6.1 0-7.9 6-7.9 13.7s1.7 13.8 7.9 13.8c6.2-.1 7.9-6.1 7.9-13.8zm-106.2 36.4c0-.4-.2-.6-.6-.6H513V164h1.8c1.1 0 1.6.5 1.6 1.4v.9h.1s1-2.6 4.5-2.6 5.7 2.8 5.7 6.9-2.5 6.8-5.8 6.8c-3.2 0-4.3-2.5-4.3-2.5h-.1s.1.5.1 1.1v6.2h-1.8v-16.1h-.1zm5.9 9.7c2.3 0 4.2-2 4.2-5.3 0-3.2-1.7-5.3-4.1-5.3-2.2 0-4.2 1.6-4.2 5.3 0 2.7 1.4 5.3 4.1 5.3zm14.6-12.1c3.6 0 5.5 2.8 5.5 6 0 .3-.1.9-.1.9h-10c.1 3.3 2.4 5.2 5.1 5.2 2.4 0 3.9-1.6 3.9-1.6l.9 1.3s-1.9 1.9-4.9 1.9c-3.9 0-6.8-2.8-6.8-6.8 0-4.4 2.9-6.9 6.4-6.9zm3.7 5.5c-.1-2.7-1.8-4-3.7-4-2.2 0-4.1 1.4-4.5 4h8.2zm10.1-5.5c3.2 0 4.3 2.4 4.3 2.4h.1s-.1-.4-.1-1v-4.2c0-.4-.2-.6-.6-.6h-1.1v-1.5h1.8c1.1 0 1.6.5 1.6 1.6V175c0 .4.2.6.6.6h1.1v1.5h-1.8c-1.1 0-1.6-.5-1.6-1.5 0-.5.1-.8.1-.8h-.1s-1.1 2.6-4.5 2.6c-3.5 0-5.7-2.8-5.7-6.9s2.4-6.8 5.9-6.8zm4.3 6.8c0-2.7-1.4-5.3-4.2-5.3-2.3 0-4.2 2-4.2 5.3 0 3.2 1.7 5.3 4.1 5.3 2.2 0 4.3-1.6 4.3-5.3zm6.4-4.4c0-.4-.2-.6-.6-.6H558V164h1.8c1.1 0 1.6.5 1.6 1.6v9.4c0 .4.2.6.6.6h1.1v1.5h-1.8c-1.1 0-1.6-.5-1.6-1.6v-9.4zm-.1-7.3h1.7v2.2h-1.7v-2.2zm13.2 10.2h.7v-.2c0-2.7-1-3.7-3.4-3.7-.7 0-2.5.2-2.5 1.1v.8H566v-1.2c0-1.8 3.1-2.2 4.3-2.2 4.1 0 5.1 2.2 5.1 5v6.3c0 .4.2.6.6.6h1.1v1.5h-1.8c-1.1 0-1.6-.5-1.6-1.6v-1h-.1s-1.1 2.8-4.3 2.8c-2.2 0-4.4-1.3-4.4-3.9-.1-4.2 5.7-4.3 7.9-4.3zm-3.2 6.9c2.5 0 4-2.6 4-4.9v-.6h-.8c-2.1 0-6.2.1-6.2 3 .1 1.2 1 2.5 3 2.5zm10.4-10.4h-1.7V164h1.7v-3.6h1.7v3.6h3.3v1.5h-3.3v6.7c0 3.1 1.9 3.5 2.9 3.5.4 0 .6-.1.6-.1v1.6s-.3.1-.8.1c-1.5 0-4.5-.5-4.5-4.9l.1-6.9zm8.5.6c0-.4-.2-.6-.6-.6h-1.1V164h1.8c1.1 0 1.6.4 1.6 1.5v.9c0 .5-.1 1-.1 1h.1c.6-2 2.1-3.5 4.1-3.5.4 0 .7.1.7.1v1.7s-.3-.1-.7-.1c-1.8 0-3.2 1.5-3.8 3.4-.3.8-.4 1.7-.4 2.5v5.5h-1.8v-10.9h.2zm9.6 0c0-.4-.2-.6-.6-.6h-1.1V164h1.8c1.1 0 1.6.5 1.6 1.6v9.4c0 .4.2.6.6.6h1.1v1.5h-1.8c-1.1 0-1.6-.5-1.6-1.6v-9.4zm-.1-7.3h1.7v2.2H598v-2.2z"/><circle class="st1" cx="776" cy="128.3" r="101.5"/><path class="st2" d="M730 96.4h1c.3 0 .5-.2.5-.5V81h1.5l8.6 12c.6.8 1.4 2.2 1.4 2.2s-.1-1.3-.1-2.2V82.4c0-1 .4-1.5 1.5-1.5h1.8v1.5h-1c-.3 0-.5.2-.5.5v14.9h-1.5l-8.6-12c-.6-.8-1.4-2.2-1.4-2.2s.1 1.3.1 2.2v10.6c0 1-.4 1.5-1.5 1.5H730v-1.5zm24-10.9c3.3 0 5.1 2.6 5.1 5.6v.8h-9.3c0 3 2.2 4.8 4.7 4.8 2.2 0 3.6-1.5 3.6-1.5l.8 1.2s-1.8 1.7-4.5 1.7c-3.6 0-6.3-2.6-6.3-6.3 0-3.9 2.7-6.3 5.9-6.3zm3.4 5.1c-.1-2.5-1.6-3.7-3.4-3.7-2 0-3.7 1.3-4.2 3.7h7.6zm4.9-7.7c0-.3-.2-.5-.5-.5h-1V81h1.7c1 0 1.5.4 1.5 1.5V96c0 .4.2.5.5.5h1v1.4h-1.7c-1 0-1.5-.4-1.5-1.5V82.9zm20.3 2.5c0-1.8-1.3-3.2-3.5-3.2-1.7 0-3 .9-3 1.8v.8h-1.6v-1.2c0-2.1 2.9-3 4.6-3 3.2 0 5.1 2.1 5.1 4.7 0 5.9-8.9 5.8-8.9 10.5 0 .3.2.5.6.5h7.1c.3 0 .5-.2.5-.5v-1.1h1.6v1.7c0 1-.4 1.5-1.5 1.5h-8.4c-1.2 0-1.5-.5-1.5-1.7 0-6.3 8.9-5.8 8.9-10.8zm4.9 4c0-4.8 1.4-8.7 5.8-8.7s5.8 3.9 5.8 8.7c0 4.9-1.4 8.7-5.8 8.7s-5.8-3.8-5.8-8.7zm9.9 0c0-4-.9-7.2-4.1-7.2-3.2 0-4.1 3.1-4.1 7.2 0 4 .9 7.2 4.1 7.2 3.2 0 4.1-3.2 4.1-7.2zm4.3 7h3.8V83.1s-.2.4-.8 1l-1.8 1.8-1.1-1.1 3.8-3.8h1.6v15.4h3.7v1.5h-9.1v-1.5h-.1zM820.6 84c.5-.9.9-1.6.9-1.6h-7.4c-.3 0-.5.2-.5.5V84H812v-1.7c0-1 .4-1.5 1.4-1.5h10V82L815 97.7h-1.9l7.5-13.7zm-111.2 59h7.2v-25.5h-.1s-.3.7-1.6 1.9l-3.4 3.5-2-2.1 7.3-7.3h3V143h7.1v2.9h-17.5V143zm26.5-14.8c0-.1-4.4-2.2-4.4-6.8 0-4.5 3.5-8.5 9.8-8.5 6.1 0 9.9 3.6 9.9 8.6 0 4.9-4.3 8-4.3 8v.1c3 1.6 5.2 3.6 5.2 7.4 0 5.1-4.7 9.3-10.9 9.3-5.7 0-11-3.5-11-9.7 0-5.5 5.7-8.4 5.7-8.4zm5.3 15.2c3.8 0 7.5-2.6 7.5-6.4 0-3.4-2.8-4.7-6.2-6.1-1.2-.5-3.4-1.3-3.8-1.3-1.2 0-5.3 2.9-5.3 6.9.1 4.3 3.8 6.9 7.8 6.9zm2.6-15.2c1.2 0 4.1-3.2 4.1-6.5 0-3.5-2.8-5.7-6.7-5.7-4.1 0-6.5 2.4-6.5 5.5 0 3.4 2.9 4.6 6.2 5.9.8.2 2.3.8 2.9.8zm13.6 14h3.5v3.7h-3.5v-3.7zm8.5-12.5c0-9.3 2.7-16.7 11.1-16.7s11.2 7.4 11.2 16.7c0 9.4-2.8 16.7-11.2 16.7s-11.1-7.4-11.1-16.7zm19 0c0-7.7-1.7-13.7-7.9-13.7s-7.9 6-7.9 13.7 1.7 13.8 7.9 13.8 7.9-6.1 7.9-13.8zm8.7 0c0-9.3 2.7-16.7 11.1-16.7 8.4 0 11.2 7.4 11.2 16.7 0 9.4-2.8 16.7-11.2 16.7-8.4 0-11.1-7.4-11.1-16.7zm19 0c0-7.7-1.7-13.7-7.9-13.7-6.1 0-7.9 6-7.9 13.7s1.7 13.8 7.9 13.8c6.1-.1 7.9-6.1 7.9-13.8zm8.7 0c0-9.3 2.7-16.7 11.1-16.7 8.4 0 11.2 7.4 11.2 16.7 0 9.4-2.8 16.7-11.2 16.7-8.4 0-11.1-7.4-11.1-16.7zm19 0c0-7.7-1.7-13.7-7.9-13.7-6.1 0-7.9 6-7.9 13.7s1.7 13.8 7.9 13.8c6.1-.1 7.9-6.1 7.9-13.8zm-106.6 36.4c0-.4-.2-.6-.6-.6H732V164h1.8c1.1 0 1.6.5 1.6 1.4v.9h.1s1-2.6 4.5-2.6 5.7 2.8 5.7 6.9-2.5 6.8-5.8 6.8c-3.2 0-4.3-2.5-4.3-2.5h-.1s.1.5.1 1.1v6.2h-1.8v-16.1h-.1zm5.9 9.7c2.3 0 4.2-2 4.2-5.3 0-3.2-1.7-5.3-4.1-5.3-2.2 0-4.2 1.6-4.2 5.3 0 2.7 1.4 5.3 4.1 5.3zm14.6-12.1c3.6 0 5.5 2.8 5.5 6 0 .3-.1.9-.1.9h-10c.1 3.3 2.4 5.2 5.1 5.2 2.4 0 3.9-1.6 3.9-1.6l.9 1.3s-1.9 1.9-4.9 1.9c-3.9 0-6.8-2.8-6.8-6.8 0-4.4 2.9-6.9 6.4-6.9zm3.7 5.5c-.1-2.7-1.8-4-3.7-4-2.2 0-4.1 1.4-4.5 4h8.2zm10.1-5.5c3.2 0 4.3 2.4 4.3 2.4h.1s-.1-.4-.1-1v-4.2c0-.4-.2-.6-.6-.6h-1.1v-1.5h1.8c1.1 0 1.6.5 1.6 1.6V175c0 .4.2.6.6.6h1.1v1.5h-1.8c-1.1 0-1.6-.5-1.6-1.5 0-.5.1-.8.1-.8h-.1s-1.1 2.6-4.5 2.6c-3.5 0-5.7-2.8-5.7-6.9s2.4-6.8 5.9-6.8zm4.3 6.8c0-2.7-1.4-5.3-4.2-5.3-2.3 0-4.2 2-4.2 5.3 0 3.2 1.7 5.3 4.1 5.3 2.2 0 4.3-1.6 4.3-5.3zm6.4-4.4c0-.4-.2-.6-.6-.6H777V164h1.8c1.1 0 1.6.5 1.6 1.6v9.4c0 .4.2.6.6.6h1.1v1.5h-1.8c-1.1 0-1.6-.5-1.6-1.6v-9.4zm-.1-7.3h1.7v2.2h-1.7v-2.2zm13.2 10.2h.7v-.2c0-2.7-1-3.7-3.4-3.7-.7 0-2.5.2-2.5 1.1v.8H785v-1.2c0-1.8 3.1-2.2 4.3-2.2 4.1 0 5.1 2.2 5.1 5v6.3c0 .4.2.6.6.6h1.1v1.5h-1.8c-1.1 0-1.6-.5-1.6-1.6v-1h-.1s-1.1 2.8-4.3 2.8c-2.2 0-4.4-1.3-4.4-3.9-.1-4.2 5.7-4.3 7.9-4.3zm-3.2 6.9c2.5 0 4-2.6 4-4.9v-.6h-.8c-2.1 0-6.2.1-6.2 3 .1 1.2 1 2.5 3 2.5zm10.4-10.4h-1.7V164h1.7v-3.6h1.7v3.6h3.3v1.5h-3.3v6.7c0 3.1 1.9 3.5 2.9 3.5.4 0 .6-.1.6-.1v1.6s-.3.1-.8.1c-1.5 0-4.5-.5-4.5-4.9l.1-6.9zm8.5.6c0-.4-.2-.6-.6-.6h-1.1V164h1.8c1.1 0 1.6.4 1.6 1.5v.9c0 .5-.1 1-.1 1h.1c.6-2 2.1-3.5 4.1-3.5.4 0 .7.1.7.1v1.7s-.3-.1-.7-.1c-1.8 0-3.2 1.5-3.8 3.4-.3.8-.4 1.7-.4 2.5v5.5h-1.8v-10.9h.2zm9.6 0c0-.4-.2-.6-.6-.6h-1.1V164h1.8c1.1 0 1.6.5 1.6 1.6v9.4c0 .4.2.6.6.6h1.1v1.5h-1.8c-1.1 0-1.6-.5-1.6-1.6v-9.4zm-.1-7.3h1.7v2.2H817v-2.2z"/><ellipse transform="rotate(-80.8 405.965 128.356)" class="st3" cx="406" cy="128.3" rx="25.6" ry="25.6"/><path class="st4" d="M408.9 120.7c-.4-.4-1-.4-1.3 0-.4.4-.4.9 0 1.3l6.7 6.6H392c-.5 0-.9.4-.9.9s.4.9.9.9h22.3l-6.7 6.6c-.4.4-.4 1 0 1.3.4.4 1 .4 1.3 0l8.3-8.2c.4-.4.4-.9 0-1.3l-8.3-8.1z"/><circle class="st1" cx="557" cy="347.7" r="101.5"/><path class="st2" d="M490.9 327.7c.9-1.7 1.8-3 1.8-3v-.1s-.8.1-2.4.1h-11.6c-.6 0-1 .3-1 1v2.2h-3v-3.2c0-2 .8-2.8 2.8-2.8h19.1v2.2l-16 30.1H477l13.9-26.5zm7.7 10.3c0-9.3 2.7-16.7 11.1-16.7 8.4 0 11.2 7.4 11.2 16.7 0 9.4-2.8 16.7-11.2 16.7-8.4 0-11.1-7.3-11.1-16.7zm19 0c0-7.7-1.7-13.7-7.9-13.7-6.1 0-7.9 6-7.9 13.7s1.7 13.8 7.9 13.8c6.1 0 7.9-6.1 7.9-13.8zm8.7 0c0-9.3 2.7-16.7 11.1-16.7 8.4 0 11.2 7.4 11.2 16.7 0 9.4-2.8 16.7-11.2 16.7-8.4 0-11.1-7.3-11.1-16.7zm19 0c0-7.7-1.7-13.7-7.9-13.7-6.1 0-7.9 6-7.9 13.7s1.7 13.8 7.9 13.8c6.1 0 7.9-6.1 7.9-13.8zm7.3 12.5h3.5v3.7h-3.5v-3.7zm8.5-12.5c0-9.3 2.7-16.7 11.1-16.7 8.4 0 11.2 7.4 11.2 16.7 0 9.4-2.8 16.7-11.2 16.7-8.4 0-11.1-7.3-11.1-16.7zm19 0c0-7.7-1.7-13.7-7.9-13.7-6.1 0-7.9 6-7.9 13.7s1.7 13.8 7.9 13.8c6.1 0 7.9-6.1 7.9-13.8zm8.7 0c0-9.3 2.7-16.7 11.1-16.7 8.4 0 11.2 7.4 11.2 16.7 0 9.4-2.8 16.7-11.2 16.7-8.4 0-11.1-7.3-11.1-16.7zm19 0c0-7.7-1.7-13.7-7.9-13.7-6.1 0-7.9 6-7.9 13.7s1.7 13.8 7.9 13.8c6.1 0 7.9-6.1 7.9-13.8zm8.7 0c0-9.3 2.7-16.7 11.1-16.7 8.4 0 11.2 7.4 11.2 16.7 0 9.4-2.8 16.7-11.2 16.7-8.4 0-11.1-7.3-11.1-16.7zm19 0c0-7.7-1.7-13.7-7.9-13.7-6.1 0-7.9 6-7.9 13.7s1.7 13.8 7.9 13.8c6.1 0 7.9-6.1 7.9-13.8zM498 382.2s1.5 2 4 2c1.5 0 2.8-.7 2.8-2.1 0-2.9-7.3-2.3-7.3-6.6 0-2.4 2-3.5 4.7-3.5 1.3 0 4 .5 4 2.4v1.1h-1.7v-.6c0-1-1.4-1.3-2.3-1.3-1.8 0-2.9.6-2.9 1.9 0 2.9 7.3 2.3 7.3 6.6 0 2.2-2 3.7-4.6 3.7-3.4 0-5-2.3-5-2.3l1-1.3zm17.2-10.2c3.6 0 5.5 2.8 5.5 6 0 .3-.1.9-.1.9h-10c.1 3.3 2.4 5.2 5.1 5.2 2.4 0 3.9-1.6 3.9-1.6l.9 1.3s-1.9 1.9-4.9 1.9c-3.9 0-6.8-2.8-6.8-6.8-.1-4.3 2.9-6.9 6.4-6.9zm3.6 5.5c-.1-2.7-1.8-4-3.7-4-2.2 0-4.1 1.4-4.5 4h8.2zm4.9 4.7s1.5 2 4 2c1.5 0 2.8-.7 2.8-2.1 0-2.9-7.3-2.3-7.3-6.6 0-2.4 2-3.5 4.7-3.5 1.3 0 4 .5 4 2.4v1.1h-1.7v-.6c0-1-1.4-1.3-2.3-1.3-1.8 0-2.9.6-2.9 1.9 0 2.9 7.3 2.3 7.3 6.6 0 2.2-2 3.7-4.6 3.7-3.4 0-5-2.3-5-2.3l1-1.3zm11.4 0s1.5 2 4 2c1.5 0 2.8-.7 2.8-2.1 0-2.9-7.3-2.3-7.3-6.6 0-2.4 2-3.5 4.7-3.5 1.3 0 4 .5 4 2.4v1.1h-1.7v-.6c0-1-1.4-1.3-2.3-1.3-1.8 0-2.9.6-2.9 1.9 0 2.9 7.3 2.3 7.3 6.6 0 2.2-2 3.7-4.6 3.7-3.4 0-5-2.3-5-2.3l1-1.3zm12.1-7.8c0-.4-.2-.6-.6-.6h-1.1v-1.5h1.8c1.1 0 1.6.5 1.6 1.6v9.4c0 .4.2.6.6.6h1.1v1.5h-1.8c-1.1 0-1.6-.5-1.6-1.6v-9.4zm-.1-7.3h1.7v2.2h-1.7v-2.2zm12.2 4.9c3.8 0 6.9 2.9 6.9 6.8 0 4-3.1 6.9-6.9 6.9-3.8 0-6.9-3-6.9-6.9 0-3.9 3.1-6.8 6.9-6.8zm0 12.1c2.8 0 5.1-2.3 5.1-5.3s-2.3-5.2-5.1-5.2-5.1 2.2-5.1 5.2 2.3 5.3 5.1 5.3zm10.2-9.7c0-.4-.2-.6-.6-.6h-1.1v-1.5h1.8c1.1 0 1.6.5 1.6 1.5v.6c0 .5-.1.9-.1.9h.1c.5-1.2 2.1-3.3 5.2-3.3 3.3 0 4.4 1.8 4.4 5.1v6.2c0 .4.2.6.6.6h1.1v1.5h-1.8c-1.1 0-1.6-.5-1.6-1.6v-6.3c0-2.1-.3-3.9-2.8-3.9-2.2 0-4.2 1.5-4.8 3.7-.2.5-.2 1.1-.2 1.8v6.3h-1.8v-11zm15.9 0c0-.4-.2-.6-.6-.6h-1.1v-1.5h1.8c1.1 0 1.6.5 1.6 1.6v9.4c0 .4.2.6.6.6h1.1v1.5H587c-1.1 0-1.6-.5-1.6-1.6v-9.4zm0-7.3h1.7v2.2h-1.7v-2.2zm18.2 4.9c3.2 0 4.3 2.4 4.3 2.4h.1s-.1-.4-.1-1v-4.2c0-.4-.2-.6-.6-.6h-1.1v-1.5h1.8c1.1 0 1.6.5 1.6 1.6v14.6c0 .4.2.6.6.6h1.1v1.5h-1.8c-1.1 0-1.6-.5-1.6-1.5 0-.5.1-.8.1-.8h-.1s-1.1 2.6-4.5 2.6c-3.5 0-5.7-2.8-5.7-6.9 0-4.1 2.5-6.8 5.9-6.8zm4.3 6.8c0-2.7-1.4-5.3-4.2-5.3-2.3 0-4.2 2-4.2 5.3 0 3.2 1.7 5.3 4.1 5.3 2.3 0 4.3-1.5 4.3-5.3zm6.4-4.4c0-.4-.2-.6-.6-.6h-1.1v-1.5h1.8c1.1 0 1.6.5 1.6 1.6v9.4c0 .4.2.6.6.6h1.1v1.5h-1.8c-1.1 0-1.6-.5-1.6-1.6v-9.4zm0-7.3h1.7v2.2h-1.7v-2.2zm-92.7 26.1c0-.4-.2-.6-.6-.6h-1.1v-1.5h1.8c1.1 0 1.6.5 1.6 1.6v14.6c0 .4.2.6.6.6h1.1v1.5h-1.8c-1.1 0-1.6-.5-1.6-1.6v-14.6zm11.6 2.8c3.6 0 5.5 2.8 5.5 6 0 .3-.1.9-.1.9h-10c.1 3.3 2.4 5.2 5.1 5.2 2.4 0 3.9-1.6 3.9-1.6l.9 1.3s-1.9 1.9-4.9 1.9c-3.9 0-6.8-2.8-6.8-6.8-.1-4.3 2.9-6.9 6.4-6.9zm3.7 5.5c-.1-2.7-1.8-4-3.7-4-2.2 0-4.1 1.4-4.5 4h8.2zm5.5-3.7h-1.7v-1.5h1.7v-3.6h1.7v3.6h3.3v1.5h-3.3v6.7c0 3.1 2 3.5 2.9 3.5.4 0 .6-.1.6-.1v1.6s-.3.1-.8.1c-1.5 0-4.5-.5-4.5-4.9l.1-6.9zm8.7 0h-1.7v-1.5h1.7v-3.6h1.7v3.6h3.3v1.5h-3.3v6.7c0 3.1 2 3.5 2.9 3.5.4 0 .6-.1.6-.1v1.6s-.3.1-.8.1c-1.5 0-4.6-.5-4.6-4.9v-6.9h.2zm8.5.6c0-.4-.2-.6-.6-.6h-1.1v-1.5h1.8c1.1 0 1.6.5 1.6 1.5v6.3c0 2.1.3 3.9 2.9 3.9 3 0 4.8-2.6 4.8-5.5v-6.3h1.8v11c0 .4.2.6.6.6h1.1v1.5h-1.8c-1.1 0-1.6-.5-1.6-1.5v-.6c0-.5.1-.9.1-.9h-.1c-.5 1.3-2.2 3.3-5.1 3.3-3.1 0-4.4-1.7-4.4-5.1v-6.1zm15.7 0c0-.4-.2-.6-.6-.6h-1.1v-1.5h1.8c1.1 0 1.6.4 1.6 1.5v.9c0 .5-.1 1-.1 1h.1c.6-2 2.1-3.5 4.1-3.5.4 0 .7.1.7.1v1.7s-.3-.1-.7-.1c-1.8 0-3.2 1.5-3.8 3.4-.3.8-.4 1.7-.4 2.5v5.5h-1.8v-10.9h.2zm15.3 2.9h.7v-.2c0-2.7-1-3.7-3.4-3.7-.7 0-2.5.2-2.5 1.1v.8h-1.7v-1.2c0-1.8 3.1-2.2 4.3-2.2 4.1 0 5.1 2.2 5.1 5v6.3c0 .4.2.6.6.6h1.1v1.5H593c-1.1 0-1.6-.5-1.6-1.6v-1h-.1s-1.1 2.8-4.3 2.8c-2.2 0-4.4-1.3-4.4-3.9 0-4.1 5.8-4.3 8-4.3zm-3.2 6.9c2.5 0 4-2.6 4-4.9v-.6h-.8c-2.1 0-6.2.1-6.2 3 .1 1.2 1 2.5 3 2.5z"/><circle class="st1" cx="776" cy="347.7" r="101.5"/><path class="st2" d="M724.8 351.3h7.2v-25.5s-.3.7-1.6 1.9l-3.5 3.5-2-2.1 7.3-7.3h3v29.5h7.1v2.9h-17.5v-2.9zm22.1-.8h3.5v3.7h-3.5v-3.7zm23.6-22.8c.9-1.7 1.8-3 1.8-3v-.1s-.8.1-2.4.1h-11.6c-.6 0-1 .3-1 1v2.2h-3v-3.2c0-2 .8-2.8 2.8-2.8H776v2.2l-16 30.1h-3.6l14.1-26.5zm7.6 10.3c0-9.3 2.7-16.7 11.1-16.7 8.4 0 11.2 7.4 11.2 16.7 0 9.4-2.8 16.7-11.2 16.7-8.4 0-11.1-7.3-11.1-16.7zm19 0c0-7.7-1.7-13.7-7.9-13.7-6.1 0-7.9 6-7.9 13.7s1.7 13.8 7.9 13.8 7.9-6.1 7.9-13.8zm8.7 0c0-9.3 2.7-16.7 11.1-16.7s11.2 7.4 11.2 16.7c0 9.4-2.8 16.7-11.2 16.7s-11.1-7.3-11.1-16.7zm19 0c0-7.7-1.7-13.7-7.9-13.7s-7.9 6-7.9 13.7 1.7 13.8 7.9 13.8 7.9-6.1 7.9-13.8zm-79.7 39.3h.7v-.2c0-2.7-1-3.7-3.4-3.7-.7 0-2.5.2-2.5 1.1v.8h-1.7v-1.2c0-1.8 3.1-2.2 4.3-2.2 4.1 0 5.1 2.2 5.1 5v6.3c0 .4.2.6.6.6h1.1v1.5h-1.8c-1.1 0-1.6-.5-1.6-1.6v-1h-.1s-1.1 2.8-4.3 2.8c-2.2 0-4.4-1.3-4.4-3.9-.1-4.1 5.7-4.3 8-4.3zm-3.3 6.9c2.5 0 4-2.6 4-4.9v-.6h-.8c-2.1 0-6.2.1-6.2 3 .1 1.2 1 2.5 3 2.5zm10.2-9.8c0-.4-.2-.6-.6-.6h-1.1v-1.5h1.8c1.1 0 1.6.4 1.6 1.5v.9c0 .5-.1 1-.1 1h.1c.6-2 2.1-3.5 4.1-3.5.4 0 .7.1.7.1v1.7s-.3-.1-.6-.1c-1.8 0-3.2 1.5-3.8 3.4-.3.8-.4 1.7-.4 2.5v5.5H752v-10.9zm9.6-.6h-1.7v-1.5h1.7v-3.6h1.7v3.6h3.3v1.5h-3.3v6.7c0 3.1 2 3.5 2.9 3.5.4 0 .6-.1.6-.1v1.6s-.3.1-.8.1c-1.5 0-4.6-.5-4.6-4.9v-6.9h.2zm8.7.6c0-.4-.2-.6-.6-.6h-1.1v-1.5h1.8c1.1 0 1.6.5 1.6 1.6v9.4c0 .4.2.6.6.6h1.1v1.5h-1.8c-1.1 0-1.6-.5-1.6-1.6v-9.4zm-.1-7.3h1.7v2.2h-1.7v-2.2zm12.1 4.9c1.5 0 4.7.6 4.7 2.8v1.2h-1.7v-.8c0-1.1-1.9-1.6-3-1.6-2.8 0-5.1 2.1-5.1 5.3s2.4 5.2 5.1 5.2c2.7 0 4.2-1.8 4.2-1.8l.8 1.3s-1.8 2.1-5.1 2.1c-3.9 0-6.9-2.8-6.9-6.8.1-4 3.1-6.9 7-6.9zm13.8 0c3.8 0 6.9 2.9 6.9 6.8 0 4-3.1 6.9-6.9 6.9-3.8 0-6.9-3-6.9-6.9 0-3.9 3.1-6.8 6.9-6.8zm0 12.1c2.8 0 5.1-2.3 5.1-5.3s-2.3-5.2-5.1-5.2-5.1 2.2-5.1 5.2 2.3 5.3 5.1 5.3zm9.9-14.9c0-.4-.2-.6-.6-.6h-1.1v-1.5h1.8c1.1 0 1.6.5 1.6 1.6v14.6c0 .4.2.6.6.6h1.1v1.5h-1.8c-1.1 0-1.6-.5-1.6-1.6v-14.6zm6.5 5.2c0-.4-.2-.6-.6-.6h-1.1v-1.5h1.8c1.1 0 1.6.5 1.6 1.6v9.4c0 .4.2.6.6.6h1.1v1.5h-1.8c-1.1 0-1.6-.5-1.6-1.6v-9.4zm0-7.3h1.7v2.2h-1.7v-2.2z"/><ellipse transform="rotate(-22.48 405.863 347.257)" class="st3" cx="406" cy="347.7" rx="25.6" ry="25.6"/><path class="st4" d="M408.9 340.1c-.4-.4-1-.4-1.3 0-.4.4-.4.9 0 1.3l6.7 6.6H392c-.5 0-.9.4-.9.9s.4.9.9.9h22.3l-6.7 6.6c-.4.4-.4 1 0 1.3.4.4 1 .4 1.3 0l8.3-8.2c.4-.4.4-.9 0-1.3l-8.3-8.1z"/><path class="st5" d="M27.4 87.6h3.1v-10s-.2.3-.7.8l-1.3 1.3-1.2-1.2 3.4-3.3h1.8v12.4h3.1v1.7h-8.2v-1.7zm8.3-9.7c0-1.6 1.3-3 3-3s3 1.3 3 3c0 1.6-1.4 3-3 3s-3-1.4-3-3zm4.5 0c0-.8-.6-1.5-1.5-1.5-.8 0-1.5.7-1.5 1.5s.6 1.5 1.5 1.5 1.5-.7 1.5-1.5zm13.2 1c2.3 0 3.1 1.6 3.1 1.6v-3.2c0-.3-.2-.4-.4-.4h-.8v-1.7h1.9c.9 0 1.3.4 1.3 1.3v10.7c0 .3.2.4.4.4h.8v1.7h-1.9c-.9 0-1.2-.4-1.2-1.1v-.5s-.8 1.8-3.3 1.8c-2.7 0-4.5-2.2-4.5-5.3 0-3.2 1.9-5.3 4.6-5.3zm3.2 5.3c0-1.8-.9-3.6-2.9-3.6-1.6 0-2.9 1.3-2.9 3.6 0 2.2 1.2 3.6 2.9 3.6 1.5.1 2.9-1 2.9-3.6zm9.4-5.3c2.8 0 4.4 2.1 4.4 4.7 0 .3-.1.8-.1.8h-7.4c.1 2.2 1.7 3.4 3.5 3.4 1.7 0 3-1.2 3-1.2l.8 1.4s-1.5 1.5-3.9 1.5c-3.2 0-5.4-2.3-5.4-5.3 0-3.2 2.2-5.3 5.1-5.3zm2.4 4.2c-.1-1.7-1.1-2.6-2.4-2.6-1.5 0-2.7.9-3 2.6h5.4zm9-4.2c1.2 0 3.6.5 3.6 2.2v1h-1.8v-.6c0-.7-1.1-1-1.9-1-2 0-3.5 1.5-3.5 3.6 0 2.3 1.7 3.6 3.6 3.6 1.9 0 3.1-1.4 3.1-1.4l.8 1.4s-1.4 1.7-4.1 1.7c-3.2 0-5.4-2.3-5.4-5.3.2-2.8 2.3-5.2 5.6-5.2zM88.7 83h.4v-.1c0-1.8-.7-2.4-2.2-2.4-.5 0-1.7.1-1.7.8v.6h-1.8v-1c0-1.7 2.5-1.9 3.5-1.9 3.3 0 4.2 1.7 4.2 4v4.3c0 .3.2.4.4.4h.8v1.7h-1.8c-.9 0-1.3-.4-1.3-1.2v-.6s-.8 2-3.2 2c-1.7 0-3.4-1.1-3.4-3.1 0-3.3 4.4-3.5 6.1-3.5zm-2.2 5c1.6 0 2.7-1.7 2.7-3.2v-.3h-.5c-1.5 0-4.1.1-4.1 1.9 0 .8.6 1.6 1.9 1.6zm7.9-10.7c0-.3-.2-.4-.4-.4h-.8v-1.7h1.9c.9 0 1.3.4 1.3 1.3v10.7c0 .3.2.4.4.4h.8v1.7h-1.9c-.9 0-1.3-.4-1.3-1.3V77.3zm9.9 1.6c3 0 5.5 2.2 5.5 5.3 0 3.1-2.4 5.3-5.5 5.3s-5.4-2.2-5.4-5.3c0-3 2.4-5.3 5.4-5.3zm0 9c1.9 0 3.5-1.5 3.5-3.6s-1.6-3.6-3.5-3.6-3.5 1.5-3.5 3.6c0 2 1.6 3.6 3.5 3.6zm11.4-9c2.5 0 3.2 1.6 3.2 1.6v-.3c0-.6.3-1 1.1-1h1.9v1.7h-.8c-.3 0-.4.1-.4.4v7.6c0 3.3-2.5 4.6-5.1 4.6-1.2 0-2.5-.3-3.5-.8l.7-1.6s1.2.7 2.8.7c1.8 0 3.2-.8 3.2-2.8v-1.3c-.6 1-1.5 1.5-3 1.5-2.8 0-4.5-2.3-4.5-5.2-.1-2.9 1.5-5.1 4.4-5.1zm3.1 5.1c0-2.6-1.3-3.4-2.9-3.4-1.8 0-2.8 1.3-2.8 3.3 0 2.1 1.1 3.5 2.9 3.5 1.5.1 2.8-.7 2.8-3.4zm9.7-5.1c3 0 5.5 2.2 5.5 5.3 0 3.1-2.4 5.3-5.5 5.3-3 0-5.4-2.2-5.4-5.3 0-3 2.4-5.3 5.4-5.3zm0 9c1.9 0 3.5-1.5 3.5-3.6s-1.6-3.6-3.5-3.6-3.5 1.5-3.5 3.6c.1 2 1.6 3.6 3.5 3.6zm13.1-1.4s1.2 1.5 3.1 1.5c.9 0 1.8-.4 1.8-1.3 0-1.8-5.5-1.6-5.5-4.9 0-1.9 1.7-2.8 3.8-2.8 1.2 0 3.3.4 3.3 2v1h-1.7v-.5c0-.6-.9-.9-1.5-.9-1.1 0-1.9.4-1.9 1.2 0 1.9 5.5 1.5 5.5 4.9 0 1.8-1.6 3-3.7 3-2.7 0-4-1.8-4-1.8l.8-1.4zm9.2-5.2c0-.3-.2-.4-.4-.4h-.8v-1.7h1.9c.9 0 1.3.4 1.3 1.2v4.8c0 1.4.3 2.5 1.9 2.5 2.1 0 3.3-1.8 3.3-3.8v-4.7h1.9v8c0 .3.2.4.4.4h.8v1.7h-1.9c-.9 0-1.3-.4-1.3-1.1v-1c-.4 1-1.7 2.3-3.7 2.3-2.3 0-3.4-1.2-3.4-3.9v-4.3zm12.5-4c0-.3-.2-.4-.4-.4h-.9v-1.7h1.9c.9 0 1.3.4 1.3 1.3v10.7c0 .3.2.4.4.4h.8v1.7h-1.9c-.9 0-1.3-.4-1.3-1.3V77.3h.1zm5.3 0c0-.3-.2-.4-.4-.4h-.8v-1.7h1.9c.9 0 1.3.4 1.3 1.3v10.7c0 .3.2.4.4.4h.8v1.7h-1.9c-.9 0-1.3-.4-1.3-1.3V77.3zm10.6 5.7h.4v-.1c0-1.8-.7-2.4-2.2-2.4-.5 0-1.7.1-1.7.8v.6h-1.8v-1c0-1.7 2.5-1.9 3.5-1.9 3.3 0 4.2 1.7 4.2 4v4.3c0 .3.2.4.4.4h.8v1.7H181c-.9 0-1.3-.4-1.3-1.2v-.6s-.8 2-3.2 2c-1.7 0-3.4-1.1-3.4-3.1 0-3.3 4.4-3.5 6.1-3.5zm-2.3 5c1.6 0 2.7-1.7 2.7-3.2v-.3h-.5c-1.5 0-4.1.1-4.1 1.9 0 .8.6 1.6 1.9 1.6zm17.8-9.1c1.2 0 3.6.5 3.6 2.2v1h-1.8v-.6c0-.7-1.1-1-1.9-1-2 0-3.5 1.5-3.5 3.6 0 2.3 1.7 3.6 3.6 3.6l3.1-1.4.8 1.4s-1.4 1.7-4.1 1.7c-3.2 0-5.4-2.3-5.4-5.3.2-2.8 2.4-5.2 5.6-5.2zm10.7 0c3 0 5.5 2.2 5.5 5.3 0 3.1-2.4 5.3-5.5 5.3s-5.4-2.2-5.4-5.3c0-3 2.4-5.3 5.4-5.3zm0 9c1.9 0 3.5-1.5 3.5-3.6s-1.6-3.6-3.5-3.6-3.5 1.5-3.5 3.6c0 2 1.6 3.6 3.5 3.6zm7.9-6.6c0-.3-.2-.4-.4-.4h-.9v-1.7h1.8c.9 0 1.3.4 1.3 1.2v1.3c.5-1.5 1.6-2.6 3.2-2.6h.5V81s-.3-.1-.6-.1c-1.2 0-2.4.9-2.8 2.4-.2.6-.2 1.2-.2 1.8v4.1h-1.9v-7.9zm7.9 0c0-.3-.2-.4-.4-.4h-.8v-1.7h1.8c.9 0 1.3.4 1.3 1.2v1.3c.5-1.5 1.6-2.6 3.2-2.6h.5V81s-.3-.1-.6-.1c-1.2 0-2.4.9-2.8 2.4-.2.6-.2 1.2-.2 1.8v4.1h-1.9v-7.9h-.1zm11.4-2.4c2.8 0 4.4 2.1 4.4 4.7 0 .3-.1.8-.1.8h-7.4c.1 2.2 1.7 3.4 3.5 3.4 1.7 0 3-1.2 3-1.2l.8 1.4s-1.5 1.5-3.9 1.5c-3.2 0-5.4-2.3-5.4-5.3 0-3.2 2.2-5.3 5.1-5.3zm2.4 4.2c-.1-1.7-1.1-2.6-2.4-2.6-1.5 0-2.7.9-3 2.6h5.4zm4.6-2.4h-1.3v-1.6h1.4v-2.8h1.9v2.8h2.4v1.6h-2.4v4.6c0 2 1.4 2.3 2.1 2.3h.5v1.7h-.7c-1.3 0-3.9-.4-3.9-3.8v-4.8zm7.1 0h-1.3v-1.6h1.4v-2.8h1.9v2.8h2.4v1.6h-2.4v4.6c0 2 1.4 2.3 2.1 2.3h.5v1.7h-.7c-1.3 0-3.9-.4-3.9-3.8v-4.8zm12 2.3h.4v-.1c0-1.8-.7-2.4-2.2-2.4-.5 0-1.7.1-1.7.8v.6h-1.8v-1c0-1.7 2.5-1.9 3.5-1.9 3.3 0 4.2 1.7 4.2 4v4.3c0 .3.2.4.4.4h.8v1.7h-1.8c-.9 0-1.3-.4-1.3-1.2v-.6s-.8 2-3.2 2c-1.7 0-3.4-1.1-3.4-3.1 0-3.3 4.4-3.5 6.1-3.5zm-2.3 5c1.6 0 2.7-1.7 2.7-3.2v-.3h-.5c-1.5 0-4.1.1-4.1 1.9 0 .8.6 1.6 1.9 1.6zM27.9 105.3c0-.3-.2-.4-.4-.4h-.8v-1.7h1.9c.9 0 1.3.4 1.3 1.3v6.7c0 .3.2.4.4.4h.8v1.7h-1.9c-.9 0-1.3-.4-1.3-1.3v-6.7zm0-6.1h1.7v2h-1.7v-2zm9 3.7c2.3 0 3.1 1.6 3.1 1.6v-3.2c0-.3-.2-.4-.4-.4h-.8v-1.7h1.9c.9 0 1.3.4 1.3 1.3v10.7c0 .3.2.4.4.4h.8v1.7h-1.9c-.9 0-1.2-.4-1.2-1.1v-.5s-.8 1.8-3.3 1.8c-2.7 0-4.5-2.2-4.5-5.3 0-3.2 1.9-5.3 4.6-5.3zm3.2 5.3c0-1.8-.9-3.6-2.9-3.6-1.6 0-2.9 1.3-2.9 3.6 0 2.2 1.2 3.6 2.9 3.6 1.5.1 2.9-1 2.9-3.6zm5.3-2.9c0-.3-.2-.4-.4-.4h-.8v-1.7H46c.9 0 1.3.4 1.3 1.2v1.3c.5-1.5 1.6-2.6 3.2-2.6h.5v1.9s-.3-.1-.6-.1c-1.2 0-2.4.9-2.8 2.4-.2.6-.2 1.2-.2 1.8v4.1h-1.9v-7.9h-.1zm12.3 1.7h.4v-.1c0-1.8-.7-2.4-2.2-2.4-.5 0-1.7.1-1.7.8v.6h-1.8v-1c0-1.7 2.5-1.9 3.5-1.9 3.3 0 4.2 1.7 4.2 4v4.3c0 .3.2.4.4.4h.8v1.7h-1.8c-.9 0-1.3-.4-1.3-1.2v-.6s-.8 2-3.2 2c-1.7 0-3.4-1.1-3.4-3.1 0-3.3 4.4-3.5 6.1-3.5zm-2.3 5c1.6 0 2.7-1.7 2.7-3.2v-.3h-.5c-1.5 0-4.1.1-4.1 1.9 0 .8.6 1.6 1.9 1.6zm8.1-7.3h-1.3v-1.6h1.4v-2.8h1.9v2.8h2.4v1.6h-2.4v4.6c0 2 1.4 2.3 2.1 2.3h.5v1.7h-.7c-1.3 0-3.9-.4-3.9-3.8v-4.8zm12 2.3h.4v-.1c0-1.8-.7-2.4-2.2-2.4-.5 0-1.7.1-1.7.8v.6h-1.8v-1c0-1.7 2.5-1.9 3.5-1.9 3.3 0 4.2 1.7 4.2 4v4.3c0 .3.2.4.4.4h.8v1.7h-1.8c-.9 0-1.3-.4-1.3-1.2v-.6s-.8 2-3.2 2c-1.7 0-3.4-1.1-3.4-3.1 0-3.3 4.4-3.5 6.1-3.5zm-2.3 5c1.6 0 2.7-1.7 2.7-3.2v-.3h-.5c-1.5 0-4.1.1-4.1 1.9 0 .8.7 1.6 1.9 1.6zm7 .2l5.2-6.4c.4-.5.8-.9.8-.9h-3.8c-.3 0-.4.2-.4.4v.7h-1.8v-1.5c0-.9.4-1.3 1.3-1.3h7.2v1.1l-5.2 6.4c-.4.5-.8.9-.8.9h4.2c.3 0 .4-.2.4-.4v-.7h1.8v1.5c0 .9-.4 1.3-1.3 1.3h-7.7v-1.1h.1zm11.2-6.9c0-.3-.2-.4-.4-.4h-.8v-1.7h1.9c.9 0 1.3.4 1.3 1.3v6.7c0 .3.2.4.4.4h.8v1.7h-1.9c-.9 0-1.3-.4-1.3-1.3v-6.7zm.1-6.1h1.7v2h-1.7v-2zm9.8 3.7c3 0 5.5 2.2 5.5 5.3 0 3.1-2.4 5.3-5.5 5.3s-5.4-2.2-5.4-5.3c-.1-3 2.4-5.3 5.4-5.3zm0 9c1.9 0 3.5-1.5 3.5-3.6s-1.6-3.6-3.5-3.6-3.5 1.5-3.5 3.6c0 2 1.6 3.6 3.5 3.6zm7.9-6.6c0-.3-.2-.4-.4-.4h-.8v-1.7h1.9c.9 0 1.3.4 1.3 1.1v1c.4-.9 1.6-2.3 3.8-2.3 2.4 0 3.5 1.3 3.5 3.9v4.4c0 .3.2.4.4.4h.8v1.7h-1.9c-.9 0-1.3-.4-1.3-1.3v-4.8c0-1.4-.3-2.5-1.9-2.5-1.6 0-2.8 1-3.2 2.5-.1.4-.2.9-.2 1.4v4.7h-1.9v-8.1h-.1zm16.6-2.4c2.8 0 4.4 2.1 4.4 4.7 0 .3-.1.8-.1.8h-7.4c.1 2.2 1.7 3.4 3.5 3.4 1.7 0 3-1.2 3-1.2l.8 1.4s-1.5 1.5-3.9 1.5c-3.2 0-5.4-2.3-5.4-5.3 0-3.2 2.2-5.3 5.1-5.3zm2.3 4.2c-.1-1.7-1.1-2.6-2.4-2.6-1.5 0-2.7.9-3 2.6h5.4zm13.6-4.2c2.3 0 3.1 1.6 3.1 1.6v-3.2c0-.3-.2-.4-.4-.4h-.8v-1.7h1.9c.9 0 1.3.4 1.3 1.3v10.7c0 .3.2.4.4.4h.8v1.7h-1.9c-.9 0-1.2-.4-1.2-1.1v-.5s-.8 1.8-3.3 1.8c-2.7 0-4.5-2.2-4.5-5.3 0-3.2 1.9-5.3 4.6-5.3zm3.2 5.3c0-1.8-.9-3.6-2.9-3.6-1.6 0-2.9 1.3-2.9 3.6 0 2.2 1.2 3.6 2.9 3.6 1.5.1 2.9-1 2.9-3.6zm9.4-5.3c2.8 0 4.4 2.1 4.4 4.7 0 .3-.1.8-.1.8h-7.4c.1 2.2 1.7 3.4 3.5 3.4 1.7 0 3-1.2 3-1.2l.8 1.4s-1.5 1.5-3.9 1.5c-3.2 0-5.4-2.3-5.4-5.3 0-3.2 2.2-5.3 5.1-5.3zm2.4 4.2c-.1-1.7-1.1-2.6-2.4-2.6-1.5 0-2.7.9-3 2.6h5.4zm4.6-1.8c0-.3-.2-.4-.4-.4h-.8v-1.7h1.9c.9 0 1.3.4 1.3 1.3v6.7c0 .3.2.4.4.4h.8v1.7h-1.9c-.9 0-1.3-.4-1.3-1.3v-6.7zm.1-6.1h1.7v2h-1.7v-2zm10.6 2.1c0-.3-.2-.4-.4-.4h-.8v-1.7h1.9c.9 0 1.3.4 1.3 1.3v4.1s.9-1.7 3.3-1.7c2.7 0 4.4 2.2 4.4 5.3 0 3.2-1.9 5.3-4.6 5.3-2.3 0-3.2-1.7-3.2-1.7v1.5H172v-12zm4.8 10.6c1.6 0 2.9-1.3 2.9-3.6 0-2.2-1.2-3.6-2.9-3.6-1.5 0-2.9 1.1-2.9 3.6 0 1.8 1 3.6 2.9 3.6zm12.4-4.9h.4v-.1c0-1.8-.7-2.4-2.2-2.4-.5 0-1.7.1-1.7.8v.6h-1.8v-1c0-1.7 2.5-1.9 3.5-1.9 3.3 0 4.2 1.7 4.2 4v4.3c0 .3.2.4.4.4h.8v1.7H191c-.9 0-1.3-.4-1.3-1.2v-.6s-.8 2-3.2 2c-1.7 0-3.4-1.1-3.4-3.1 0-3.3 4.4-3.5 6.1-3.5zm-2.3 5c1.6 0 2.7-1.7 2.7-3.2v-.3h-.5c-1.5 0-4.1.1-4.1 1.9 0 .8.6 1.6 1.9 1.6zm8-6.7c0-.3-.2-.4-.4-.4h-.8v-1.7h1.9c.9 0 1.3.4 1.3 1.1v1c.5-1.2 1.9-2.3 3.5-2.3 1.7 0 2.7.8 3 2.3.6-1.2 2-2.3 3.6-2.3 2.3 0 3.3 1.3 3.3 3.9v4.4c0 .3.2.4.4.4h.8v1.7h-1.9c-.9 0-1.3-.4-1.3-1.3v-4.8c0-1.4-.3-2.5-1.8-2.5-1.4 0-2.5 1.2-2.8 2.6-.1.4-.2.9-.2 1.4v4.6h-1.9v-6.1c0-1.3-.2-2.5-1.7-2.5s-2.5 1.2-2.9 2.7c-.1.4-.1.8-.1 1.3v4.6H195v-8.1h-.1zm18.7-4c0-.3-.2-.4-.4-.4h-.8v-1.7h1.9c.9 0 1.3.4 1.3 1.3v4.1s.9-1.7 3.3-1.7c2.7 0 4.4 2.2 4.4 5.3 0 3.2-1.9 5.3-4.6 5.3-2.3 0-3.2-1.7-3.2-1.7v1.5h-1.9v-12zm4.7 10.6c1.6 0 2.9-1.3 2.9-3.6 0-2.2-1.2-3.6-2.9-3.6-1.5 0-2.9 1.1-2.9 3.6.1 1.8 1 3.6 2.9 3.6zm7.4-6.6c0-.3-.2-.4-.4-.4h-.8v-1.7h1.9c.9 0 1.3.4 1.3 1.3v6.7c0 .3.2.4.4.4h.8v1.7H227c-.9 0-1.3-.4-1.3-1.3v-6.7zm.1-6.1h1.7v2h-1.7v-2zm5.3 6.1c0-.3-.2-.4-.4-.4h-.8v-1.7h1.9c.9 0 1.3.4 1.3 1.1v1c.4-.9 1.6-2.3 3.8-2.3 2.4 0 3.5 1.3 3.5 3.9v4.4c0 .3.2.4.4.4h.8v1.7h-1.9c-.9 0-1.3-.4-1.3-1.3v-4.8c0-1.4-.3-2.5-1.9-2.5s-2.8 1-3.2 2.5c-.1.4-.2.9-.2 1.4v4.7h-1.9l-.1-8.1zm12.7 0c0-.3-.2-.4-.4-.4h-.8v-1.7h1.9c.9 0 1.3.4 1.3 1.3v6.7c0 .3.2.4.4.4h.8v1.7h-2c-.9 0-1.3-.4-1.3-1.3l.1-6.7zm0-6.1h1.7v2h-1.7v-2zM27.9 129.3c0-.3-.2-.4-.4-.4h-.8v-1.7h1.9c.9 0 1.3.4 1.3 1.3v6.7c0 .3.2.4.4.4h.8v1.7h-1.9c-.9 0-1.3-.4-1.3-1.3v-6.7zm0-6.1h1.7v2h-1.7v-2zm5.4 6.1c0-.3-.2-.4-.4-.4H32v-1.7h1.9c.9 0 1.3.4 1.3 1.1v1c.4-.9 1.6-2.3 3.8-2.3 2.4 0 3.5 1.3 3.5 3.9v4.4c0 .3.2.4.4.4h.8v1.7h-1.9c-.9 0-1.3-.4-1.3-1.3v-4.8c0-1.4-.3-2.5-1.9-2.5-1.6 0-2.8 1-3.2 2.5-.1.4-.2.9-.2 1.4v4.7h-1.9v-8.1zm22.4-2.4c1.2 0 3.6.5 3.6 2.2v1h-1.8v-.6c0-.7-1.1-1-1.9-1-2 0-3.5 1.5-3.5 3.6 0 2.3 1.7 3.6 3.6 3.6 1.9 0 3.1-1.4 3.1-1.4l.8 1.4s-1.4 1.7-4.1 1.7c-3.2 0-5.4-2.3-5.4-5.3.1-2.8 2.3-5.2 5.6-5.2zm10.6 0c3 0 5.5 2.2 5.5 5.3 0 3.1-2.4 5.3-5.5 5.3s-5.4-2.2-5.4-5.3c0-3 2.4-5.3 5.4-5.3zm0 9c1.9 0 3.5-1.5 3.5-3.6s-1.6-3.6-3.5-3.6-3.5 1.5-3.5 3.6c.1 2 1.6 3.6 3.5 3.6zm7.7-10.6c0-.3-.2-.4-.4-.4h-.8v-1.7h1.9c.9 0 1.3.4 1.3 1.3v10.7c0 .3.2.4.4.4h.8v1.7h-1.9c-.9 0-1.3-.4-1.3-1.3v-10.7zm5.3 0c0-.3-.2-.4-.4-.4h-.8v-1.7H80c.9 0 1.3.4 1.3 1.3v10.7c0 .3.2.4.4.4h.8v1.7h-1.9c-.9 0-1.3-.4-1.3-1.3v-10.7zm10.6 5.7h.4v-.1c0-1.8-.7-2.4-2.2-2.4-.5 0-1.7.1-1.7.8v.6h-1.8v-1c0-1.7 2.5-1.9 3.5-1.9 3.3 0 4.2 1.7 4.2 4v4.3c0 .3.2.4.4.4h.8v1.7h-1.8c-.9 0-1.3-.4-1.3-1.2v-.6s-.8 2-3.2 2c-1.7 0-3.4-1.1-3.4-3.1 0-3.3 4.4-3.5 6.1-3.5zm-2.3 5c1.6 0 2.7-1.7 2.7-3.2v-.3h-.5c-1.5 0-4.1.1-4.1 1.9 0 .8.7 1.6 1.9 1.6zm7.9-10.7c0-.3-.2-.4-.4-.4h-.8v-1.7h1.9c.9 0 1.3.4 1.3 1.3v4.1s.9-1.7 3.3-1.7c2.7 0 4.4 2.2 4.4 5.3 0 3.2-1.9 5.3-4.6 5.3-2.3 0-3.2-1.7-3.2-1.7v1.5h-1.9v-12zm4.8 10.6c1.6 0 2.9-1.3 2.9-3.6 0-2.2-1.2-3.6-2.9-3.6-1.5 0-2.9 1.1-2.9 3.6 0 1.8 1 3.6 2.9 3.6zm11.8-9c3 0 5.5 2.2 5.5 5.3 0 3.1-2.4 5.3-5.5 5.3s-5.4-2.2-5.4-5.3c-.1-3 2.4-5.3 5.4-5.3zm0 9c1.9 0 3.5-1.5 3.5-3.6s-1.6-3.6-3.5-3.6-3.5 1.5-3.5 3.6c0 2 1.6 3.6 3.5 3.6zm7.9-6.6c0-.3-.2-.4-.4-.4h-.8v-1.7h1.8c.9 0 1.3.4 1.3 1.2v1.3c.5-1.5 1.6-2.6 3.2-2.6h.5v1.9s-.3-.1-.6-.1c-1.2 0-2.4.9-2.8 2.4-.2.6-.2 1.2-.2 1.8v4.1h-2v-7.9zm12.2 1.7h.4v-.1c0-1.8-.7-2.4-2.2-2.4-.5 0-1.7.1-1.7.8v.6h-1.8v-1c0-1.7 2.5-1.9 3.5-1.9 3.3 0 4.2 1.7 4.2 4v4.3c0 .3.2.4.4.4h.8v1.7H134c-.9 0-1.3-.4-1.3-1.2v-.6s-.8 2-3.2 2c-1.7 0-3.4-1.1-3.4-3.1 0-3.3 4.4-3.5 6.1-3.5zm-2.2 5c1.6 0 2.7-1.7 2.7-3.2v-.3h-.5c-1.5 0-4.1.1-4.1 1.9 0 .8.6 1.6 1.9 1.6zm6.9.2l5.2-6.4c.4-.5.8-.9.8-.9h-3.8c-.3 0-.4.2-.4.4v.7H137v-1.5c0-.9.4-1.3 1.3-1.3h7.2v1.1l-5.2 6.4c-.4.5-.8.9-.8.9h4.2c.3 0 .4-.2.4-.4v-.7h1.8v1.5c0 .9-.4 1.3-1.3 1.3h-7.7v-1.1zm11.3-6.9c0-.3-.2-.4-.4-.4h-.8v-1.7h1.9c.9 0 1.3.4 1.3 1.3v6.7c0 .3.2.4.4.4h.8v1.7h-1.9c-.9 0-1.3-.4-1.3-1.3v-6.7zm0-6.1h1.7v2h-1.7v-2zm9.8 3.7c3 0 5.5 2.2 5.5 5.3 0 3.1-2.4 5.3-5.5 5.3-3 0-5.4-2.2-5.4-5.3 0-3 2.4-5.3 5.4-5.3zm0 9c1.9 0 3.5-1.5 3.5-3.6s-1.6-3.6-3.5-3.6-3.5 1.5-3.5 3.6c.1 2 1.6 3.6 3.5 3.6zm7.9-6.6c0-.3-.2-.4-.4-.4h-.8v-1.7h1.9c.9 0 1.3.4 1.3 1.1v1c.4-.9 1.6-2.3 3.8-2.3 2.4 0 3.5 1.3 3.5 3.9v4.4c0 .3.2.4.4.4h.8v1.7h-1.9c-.9 0-1.3-.4-1.3-1.3v-4.8c0-1.4-.3-2.5-1.9-2.5s-2.8 1-3.2 2.5c-.1.4-.2.9-.2 1.4v4.7H166l-.1-8.1zm16.6-2.4c2.8 0 4.4 2.1 4.4 4.7 0 .3-.1.8-.1.8h-7.4c.1 2.2 1.7 3.4 3.5 3.4 1.7 0 3-1.2 3-1.2l.8 1.4s-1.5 1.5-3.9 1.5c-3.2 0-5.4-2.3-5.4-5.3 0-3.2 2.2-5.3 5.1-5.3zm2.4 4.2c-.1-1.7-1.1-2.6-2.4-2.6-1.5 0-2.7.9-3 2.6h5.4zm14.4-4.2c1.2 0 3.6.5 3.6 2.2v1h-1.8v-.6c0-.7-1.1-1-1.9-1-2 0-3.5 1.5-3.5 3.6 0 2.3 1.7 3.6 3.6 3.6l3.1-1.4.8 1.4s-1.4 1.7-4.1 1.7c-3.2 0-5.4-2.3-5.4-5.3.2-2.8 2.3-5.2 5.6-5.2zm10.7 0c3 0 5.5 2.2 5.5 5.3 0 3.1-2.4 5.3-5.5 5.3s-5.4-2.2-5.4-5.3c-.1-3 2.3-5.3 5.4-5.3zm0 9c1.9 0 3.5-1.5 3.5-3.6s-1.6-3.6-3.5-3.6-3.5 1.5-3.5 3.6c0 2 1.6 3.6 3.5 3.6zm7.8-6.6c0-.3-.2-.4-.4-.4h-.8v-1.7h1.9c.9 0 1.3.4 1.3 1.1v1c.4-.9 1.6-2.3 3.8-2.3 2.4 0 3.5 1.3 3.5 3.9v4.4c0 .3.2.4.4.4h.8v1.7h-1.9c-.9 0-1.3-.4-1.3-1.3v-4.8c0-1.4-.3-2.5-1.9-2.5s-2.8 1-3.2 2.5c-.1.4-.2.9-.2 1.4v4.7h-1.9l-.1-8.1zm17.9-4c0-.3-.2-.4-.4-.4h-.8v-1.7h1.9c.9 0 1.3.4 1.3 1.3v10.7c0 .3.2.4.4.4h.8v1.7H237c-.9 0-1.3-.4-1.3-1.3v-10.7zm10.5 5.7h.4v-.1c0-1.8-.7-2.4-2.2-2.4-.5 0-1.7.1-1.7.8v.6H241v-1c0-1.7 2.5-1.9 3.5-1.9 3.3 0 4.2 1.7 4.2 4v4.3c0 .3.2.4.4.4h.8v1.7h-1.8c-.9 0-1.3-.4-1.3-1.2v-.6s-.8 2-3.2 2c-1.7 0-3.4-1.1-3.4-3.1-.1-3.3 4.3-3.5 6-3.5zm-2.2 5c1.6 0 2.7-1.7 2.7-3.2v-.3h-.5c-1.5 0-4.1.1-4.1 1.9 0 .8.6 1.6 1.9 1.6zm13.5-2s1.4 1.7 3.5 1.7c1.3 0 2.4-.8 2.4-2.1 0-3-6.8-2.5-6.8-6.9 0-2.1 1.9-3.8 4.5-3.8 1.5 0 4 .7 4 2.6v1.2h-1.8v-.7c0-.7-1.1-1.3-2.2-1.3-1.5 0-2.5.8-2.5 1.9 0 2.9 6.8 2.2 6.8 6.9 0 2.2-1.7 4-4.5 4-3 0-4.7-2.1-4.7-2.1l1.3-1.4zm15.1-7.1c3 0 5.5 2.2 5.5 5.3 0 3.1-2.4 5.3-5.5 5.3s-5.4-2.2-5.4-5.3c-.1-3 2.4-5.3 5.4-5.3zm0 9c1.9 0 3.5-1.5 3.5-3.6s-1.6-3.6-3.5-3.6-3.5 1.5-3.5 3.6c0 2 1.6 3.6 3.5 3.6zm12.3-9c1.2 0 3.6.5 3.6 2.2v1h-1.8v-.6c0-.7-1.1-1-1.9-1-2 0-3.5 1.5-3.5 3.6 0 2.3 1.7 3.6 3.6 3.6l3.1-1.4.8 1.4s-1.4 1.7-4.1 1.7c-3.2 0-5.4-2.3-5.4-5.3.2-2.8 2.4-5.2 5.6-5.2zm6.3 2.4c0-.3-.2-.4-.4-.4h-.8v-1.7h1.9c.9 0 1.3.4 1.3 1.3v6.7c0 .3.2.4.4.4h.8v1.7h-1.9c-.9 0-1.3-.4-1.3-1.3v-6.7zm.1-6.1h1.7v2h-1.7v-2zm9.4 3.7c2.8 0 4.4 2.1 4.4 4.7 0 .3-.1.8-.1.8h-7.4c.1 2.2 1.7 3.4 3.5 3.4 1.7 0 3-1.2 3-1.2l.8 1.4s-1.5 1.5-3.9 1.5c-3.2 0-5.4-2.3-5.4-5.3 0-3.2 2.2-5.3 5.1-5.3zm2.4 4.2c-.1-1.7-1.1-2.6-2.4-2.6-1.5 0-2.7.9-3 2.6h5.4zm4.6-2.4h-1.3v-1.6h1.4v-2.8h1.9v2.8h2.4v1.6h-2.4v4.6c0 2 1.4 2.3 2.1 2.3h.5v1.7h-.7c-1.3 0-3.9-.4-3.9-3.8v-4.8zm12 2.3h.4v-.1c0-1.8-.7-2.4-2.2-2.4-.5 0-1.7.1-1.7.8v.6h-1.8v-1c0-1.7 2.5-1.9 3.5-1.9 3.3 0 4.2 1.7 4.2 4v4.3c0 .3.2.4.4.4h.8v1.7h-1.8c-.9 0-1.3-.4-1.3-1.2v-.6s-.8 2-3.2 2c-1.7 0-3.4-1.1-3.4-3.1 0-3.3 4.4-3.5 6.1-3.5zm-4.2-7.8h2l1.5 2.5h-1.5l-2-2.5zm2 12.8c1.6 0 2.7-1.7 2.7-3.2v-.3h-.5c-1.5 0-4.1.1-4.1 1.9 0 .8.6 1.6 1.9 1.6zM26.9 159.6h1.4v-10.7h-1.4v-1.7h4.7v1.7h-1.4v10.7h1.4v1.7h-4.7v-1.7zm7.3-6.9h-1.3v-1.6h1.4v-2.8h1.9v2.8h2.4v1.6h-2.4v4.6c0 2 1.4 2.3 2.1 2.3h.5v1.7h-.7c-1.3 0-3.9-.4-3.9-3.8v-4.8zm12 2.3h.4v-.1c0-1.8-.7-2.4-2.2-2.4-.5 0-1.7.1-1.7.8v.6h-1.8v-1c0-1.7 2.5-1.9 3.5-1.9 3.3 0 4.2 1.7 4.2 4v4.3c0 .3.2.4.4.4h.8v1.7H48c-.9 0-1.3-.4-1.3-1.2v-.6s-.8 2-3.2 2c-1.7 0-3.4-1.1-3.4-3.1 0-3.3 4.4-3.5 6.1-3.5zm-2.2 5c1.6 0 2.7-1.7 2.7-3.2v-.3h-.5c-1.5 0-4.1.1-4.1 1.9 0 .8.6 1.6 1.9 1.6zm7.9-10.7c0-.3-.2-.4-.4-.4h-.8v-1.7h1.9c.9 0 1.3.4 1.3 1.3v10.7c0 .3.2.4.4.4h.8v1.7h-1.9c-.9 0-1.3-.4-1.3-1.3v-10.7zm5.5 4c0-.3-.2-.4-.4-.4h-.8v-1.7h1.9c.9 0 1.3.4 1.3 1.3v6.7c0 .3.2.4.4.4h.8v1.7h-1.9c-.9 0-1.3-.4-1.3-1.3v-6.7zm.1-6.1h1.7v2h-1.7v-2zM68 155h.4v-.1c0-1.8-.7-2.4-2.2-2.4-.5 0-1.7.1-1.7.8v.6h-1.8v-1c0-1.7 2.5-1.9 3.5-1.9 3.3 0 4.2 1.7 4.2 4v4.3c0 .3.2.4.4.4h.8v1.7h-1.8c-.9 0-1.3-.4-1.3-1.2v-.6s-.8 2-3.2 2c-1.7 0-3.4-1.1-3.4-3.1 0-3.3 4.4-3.5 6.1-3.5zm-2.3 5c1.6 0 2.7-1.7 2.7-3.2v-.3h-.5c-1.5 0-4.1.1-4.1 1.9 0 .8.6 1.6 1.9 1.6zm8-6.7c0-.3-.2-.4-.4-.4h-.8v-1.7h1.9c.9 0 1.3.4 1.3 1.1v1c.4-.9 1.6-2.3 3.8-2.3 2.4 0 3.5 1.3 3.5 3.9v4.4c0 .3.2.4.4.4h.8v1.7h-1.9c-.9 0-1.3-.4-1.3-1.3v-4.8c0-1.4-.3-2.5-1.9-2.5-1.6 0-2.8 1-3.2 2.5-.1.4-.2.9-.2 1.4v4.7h-1.9v-8.1h-.1zm17.7 1.7h.4v-.1c0-1.8-.7-2.4-2.2-2.4-.5 0-1.7.1-1.7.8v.6h-1.8v-1c0-1.7 2.5-1.9 3.5-1.9 3.3 0 4.2 1.7 4.2 4v4.3c0 .3.2.4.4.4h.8v1.7h-1.8c-.9 0-1.3-.4-1.3-1.2v-.6s-.8 2-3.2 2c-1.7 0-3.4-1.1-3.4-3.1 0-3.3 4.4-3.5 6.1-3.5zm-2.3 5c1.6 0 2.7-1.7 2.7-3.2v-.3h-.5c-1.5 0-4.1.1-4.1 1.9 0 .8.6 1.6 1.9 1.6zm17-9.1c2.3 0 3.1 1.6 3.1 1.6v-3.2c0-.3-.2-.4-.4-.4h-.8v-1.7h1.9c.9 0 1.3.4 1.3 1.3v10.7c0 .3.2.4.4.4h.8v1.7h-1.9c-.9 0-1.2-.4-1.2-1.1v-.5s-.8 1.8-3.3 1.8c-2.7 0-4.5-2.2-4.5-5.3 0-3.2 1.9-5.3 4.6-5.3zm3.2 5.3c0-1.8-.9-3.6-2.9-3.6-1.6 0-2.9 1.3-2.9 3.6 0 2.2 1.2 3.6 2.9 3.6 1.5.1 2.9-1 2.9-3.6zm5.4-2.9c0-.3-.2-.4-.4-.4h-.8v-1.7h1.9c.9 0 1.3.4 1.3 1.3v6.7c0 .3.2.4.4.4h.8v1.7H116c-.9 0-1.3-.4-1.3-1.3v-6.7zm0-6.1h1.7v2h-1.7v-2zm11.1 1.7h-1.3v-1.7h6.2c2.6 0 4.4 1.7 4.4 4.4s-1.8 4.5-4.4 4.5h-2.9v5.2h-2v-12.4zm4.6 5.5c1.7 0 2.7-1.1 2.7-2.8s-1-2.7-2.7-2.7h-2.6v5.5h2.6zm10.6-3.5c2.8 0 4.4 2.1 4.4 4.7 0 .3-.1.8-.1.8h-7.4c.1 2.2 1.7 3.4 3.5 3.4 1.7 0 3-1.2 3-1.2l.8 1.4s-1.5 1.5-3.9 1.5c-3.2 0-5.4-2.3-5.4-5.3 0-3.2 2.2-5.3 5.1-5.3zm2.4 4.2c-.1-1.7-1.1-2.6-2.4-2.6-1.5 0-2.7.9-3 2.6h5.4zm8.2-4.2c2.3 0 3.1 1.6 3.1 1.6v-3.2c0-.3-.2-.4-.4-.4h-.8v-1.7h1.9c.9 0 1.3.4 1.3 1.3v10.7c0 .3.2.4.4.4h.8v1.7H156c-.9 0-1.2-.4-1.2-1.1v-.5s-.8 1.8-3.3 1.8c-2.7 0-4.5-2.2-4.5-5.3 0-3.2 1.9-5.3 4.6-5.3zm3.1 5.3c0-1.8-.9-3.6-2.9-3.6-1.6 0-2.9 1.3-2.9 3.6 0 2.2 1.2 3.6 2.9 3.6 1.5.1 2.9-1 2.9-3.6zm5.4-2.9c0-.3-.2-.4-.4-.4h-.8v-1.7h1.9c.9 0 1.3.4 1.3 1.3v6.7c0 .3.2.4.4.4h.8v1.7h-1.9c-.9 0-1.3-.4-1.3-1.3v-6.7zm.1-6.1h1.7v2h-1.7v-2zm10.5 7.8h.4v-.1c0-1.8-.7-2.4-2.2-2.4-.5 0-1.7.1-1.7.8v.6h-1.8v-1c0-1.7 2.5-1.9 3.5-1.9 3.3 0 4.2 1.7 4.2 4v4.3c0 .3.2.4.4.4h.8v1.7h-1.8c-.9 0-1.3-.4-1.3-1.2v-.6s-.8 2-3.2 2c-1.7 0-3.4-1.1-3.4-3.1 0-3.3 4.4-3.5 6.1-3.5zm-2.3 5c1.6 0 2.7-1.7 2.7-3.2v-.3h-.5c-1.5 0-4.1.1-4.1 1.9 0 .8.7 1.6 1.9 1.6zm8.1-7.3h-1.3v-1.6h1.4v-2.8h1.9v2.8h2.4v1.6h-2.4v4.6c0 2 1.4 2.3 2.1 2.3h.5v1.7h-.7c-1.3 0-3.9-.4-3.9-3.8v-4.8zm7 .6c0-.3-.2-.4-.4-.4h-.8v-1.7h1.8c.9 0 1.3.4 1.3 1.2v1.3c.5-1.5 1.6-2.6 3.2-2.6h.5v1.9s-.3-.1-.6-.1c-1.2 0-2.4.9-2.8 2.4-.2.6-.2 1.2-.2 1.8v4.1h-1.9v-7.9h-.1zm7.8 0c0-.3-.2-.4-.4-.4h-.9v-1.7h1.9c.9 0 1.3.4 1.3 1.3v6.7c0 .3.2.4.4.4h.8v1.7h-1.9c-.9 0-1.3-.4-1.3-1.3v-6.7h.1zm0-6.1h1.7v2h-1.7v-2zm10.5 7.8h.4v-.1c0-1.8-.7-2.4-2.2-2.4-.5 0-1.7.1-1.7.8v.6h-1.8v-1c0-1.7 2.5-1.9 3.5-1.9 3.3 0 4.2 1.7 4.2 4v4.3c0 .3.2.4.4.4h.8v1.7h-1.8c-.9 0-1.3-.4-1.3-1.2v-.6s-.8 2-3.2 2c-1.7 0-3.4-1.1-3.4-3.1 0-3.3 4.4-3.5 6.1-3.5zm-2.2 5c1.6 0 2.7-1.7 2.7-3.2v-.3h-.5c-1.5 0-4.1.1-4.1 1.9 0 .8.6 1.6 1.9 1.6zm13.7-11.1H212v-1.7h6.2c2.6 0 4.4 1.7 4.4 4.4s-1.8 4.5-4.4 4.5h-2.9v5.2h-2v-12.4zm4.6 5.5c1.7 0 2.7-1.1 2.7-2.8s-1-2.7-2.7-2.7h-2.6v5.5h2.6zm6.9-1.1c0-.3-.2-.4-.4-.4h-.8v-1.7h1.8c.9 0 1.3.4 1.3 1.2v1.3c.5-1.5 1.6-2.6 3.2-2.6h.5v1.9s-.3-.1-.6-.1c-1.2 0-2.4.9-2.8 2.4-.2.6-.2 1.2-.2 1.8v4.1h-1.9v-7.9h-.1zm11.4-2.4c2.8 0 4.4 2.1 4.4 4.7 0 .3-.1.8-.1.8h-7.4c.1 2.2 1.7 3.4 3.5 3.4 1.7 0 3-1.2 3-1.2l.8 1.4s-1.5 1.5-3.9 1.5c-3.2 0-5.4-2.3-5.4-5.3.1-3.2 2.3-5.3 5.1-5.3zm2.4 4.2c-.1-1.7-1.1-2.6-2.4-2.6-1.5 0-2.7.9-3 2.6h5.4zm4-1.9c-.1-.3-.3-.4-.6-.4h-.2v-1.7h1c.9 0 1.2.2 1.5 1l2.2 5.8c.2.6.4 1.3.4 1.3s.2-.8.4-1.3l2.2-5.8c.3-.8.7-1 1.5-1h.9v1.7h-.2c-.3 0-.5.1-.7.4l-3.1 8.1h-2.2l-3.1-8.1zm15.1-2.3c2.8 0 4.4 2.1 4.4 4.7 0 .3-.1.8-.1.8h-7.4c.1 2.2 1.7 3.4 3.5 3.4 1.7 0 3-1.2 3-1.2l.8 1.4s-1.5 1.5-3.9 1.5c-3.2 0-5.4-2.3-5.4-5.3 0-3.2 2.2-5.3 5.1-5.3zm2.4 4.2c-.1-1.7-1.1-2.6-2.4-2.6-1.5 0-2.7.9-3 2.6h5.4zm4.6-1.8c0-.3-.2-.4-.4-.4h-.8v-1.7h1.9c.9 0 1.3.4 1.3 1.1v1c.4-.9 1.6-2.3 3.8-2.3 2.4 0 3.5 1.3 3.5 3.9v4.4c0 .3.2.4.4.4h.8v1.7h-1.9c-.9 0-1.3-.4-1.3-1.3v-4.8c0-1.4-.3-2.5-1.9-2.5s-2.8 1-3.2 2.5c-.1.4-.2.9-.2 1.4v4.7h-1.9l-.1-8.1zm12.6-.6H276v-1.6h1.4v-2.8h1.9v2.8h2.4v1.6h-2.4v4.6c0 2 1.4 2.3 2.1 2.3h.5v1.7h-.7c-1.3 0-3.9-.4-3.9-3.8v-4.8zm7 .6c0-.3-.2-.4-.4-.4h-.8v-1.7h1.9c.9 0 1.3.4 1.3 1.3v6.7c0 .3.2.4.4.4h.8v1.7h-1.9c-.9 0-1.3-.4-1.3-1.3v-6.7zm.1-6.1h1.7v2h-1.7v-2zm4.6 6c-.1-.3-.3-.4-.6-.4h-.2v-1.7h1c.9 0 1.2.2 1.5 1l2.2 5.8c.2.6.4 1.3.4 1.3s.2-.8.4-1.3l2.2-5.8c.3-.8.7-1 1.5-1h.9v1.7h-.2c-.3 0-.5.1-.7.4l-3.1 8.1h-2.2l-3.1-8.1zm16.3 1.8h.4v-.1c0-1.8-.7-2.4-2.2-2.4-.5 0-1.7.1-1.7.8v.6H300v-1c0-1.7 2.5-1.9 3.5-1.9 3.3 0 4.2 1.7 4.2 4v4.3c0 .3.2.4.4.4h.8v1.7h-1.8c-.9 0-1.3-.4-1.3-1.2v-.6s-.8 2-3.2 2c-1.7 0-3.4-1.1-3.4-3.1 0-3.3 4.4-3.5 6.1-3.5zm-2.2 5c1.6 0 2.7-1.7 2.7-3.2v-.3h-.5c-1.5 0-4.1.1-4.1 1.9 0 .8.6 1.6 1.9 1.6zM31.9 174.9c2.8 0 4.4 2.1 4.4 4.7 0 .3-.1.8-.1.8h-7.4c.1 2.2 1.7 3.4 3.5 3.4 1.7 0 3-1.2 3-1.2l.8 1.4s-1.5 1.5-3.9 1.5c-3.2 0-5.4-2.3-5.4-5.3 0-3.2 2.2-5.3 5.1-5.3zm2.4 4.2c-.1-1.7-1.1-2.6-2.4-2.6-1.5 0-2.7.9-3 2.6h5.4zm10.1 2.9s1.4 1.7 3.5 1.7c1.3 0 2.4-.8 2.4-2.1 0-3-6.8-2.5-6.8-6.9 0-2.1 1.9-3.8 4.5-3.8 1.5 0 4 .7 4 2.6v1.2h-1.8v-.7c0-.7-1.1-1.3-2.2-1.3-1.5 0-2.5.8-2.5 1.9 0 2.9 6.8 2.2 6.8 6.9 0 2.2-1.7 4-4.5 4-3 0-4.7-2.1-4.7-2.1l1.3-1.4zm15-7.1c3 0 5.5 2.2 5.5 5.3 0 3.1-2.4 5.3-5.5 5.3s-5.4-2.2-5.4-5.3c0-3 2.4-5.3 5.4-5.3zm0 9c1.9 0 3.5-1.5 3.5-3.6s-1.6-3.6-3.5-3.6-3.5 1.5-3.5 3.6c.1 2 1.6 3.6 3.5 3.6zm12.4-9c1.2 0 3.6.5 3.6 2.2v1h-1.8v-.6c0-.7-1.1-1-1.9-1-2 0-3.5 1.5-3.5 3.6 0 2.3 1.7 3.6 3.6 3.6 1.9 0 3.1-1.4 3.1-1.4l.8 1.4s-1.4 1.7-4.1 1.7c-3.2 0-5.4-2.3-5.4-5.3.1-2.8 2.3-5.2 5.6-5.2zm6.3 2.4c0-.3-.2-.4-.4-.4h-.8v-1.7h1.9c.9 0 1.3.4 1.3 1.3v6.7c0 .3.2.4.4.4h.8v1.7h-1.9c-.9 0-1.3-.4-1.3-1.3v-6.7zm0-6.1h1.7v2h-1.7v-2zm10.5 7.8h.4v-.1c0-1.8-.7-2.4-2.2-2.4-.5 0-1.7.1-1.7.8v.6h-1.8v-1c0-1.7 2.5-1.9 3.5-1.9 3.3 0 4.2 1.7 4.2 4v4.3c0 .3.2.4.4.4h.8v1.7h-1.8c-.9 0-1.3-.4-1.3-1.2v-.6s-.8 2-3.2 2c-1.7 0-3.4-1.1-3.4-3.1 0-3.3 4.4-3.5 6.1-3.5zm-2.2 5c1.6 0 2.7-1.7 2.7-3.2v-.3h-.5c-1.5 0-4.1.1-4.1 1.9 0 .8.6 1.6 1.9 1.6zm7.9-10.7c0-.3-.2-.4-.4-.4h-.8v-1.7H95c.9 0 1.3.4 1.3 1.3v10.7c0 .3.2.4.4.4h.8v1.7h-1.9c-.9 0-1.3-.4-1.3-1.3v-10.7zm9.5 1.6c2.8 0 4.4 2.1 4.4 4.7 0 .3-.1.8-.1.8h-7.4c.1 2.2 1.7 3.4 3.5 3.4 1.7 0 3-1.2 3-1.2l.8 1.4s-1.5 1.5-3.9 1.5c-3.2 0-5.4-2.3-5.4-5.3 0-3.2 2.2-5.3 5.1-5.3zm2.4 4.2c-.1-1.7-1.1-2.6-2.4-2.6-1.5 0-2.7.9-3 2.6h5.4zm12.2-8.5h1.7c-1.5 2.5-2.2 5.1-2.2 8 0 3 .8 6 2.3 8.6h-1.7c-1.5-2.3-2.3-5.4-2.3-8.5-.1-3 .6-5.8 2.2-8.1zm4.5 11.4s1.4 1.7 3.5 1.7c1.3 0 2.4-.8 2.4-2.1 0-3-6.8-2.5-6.8-6.9 0-2.1 1.9-3.8 4.5-3.8 1.5 0 4 .7 4 2.6v1.2h-1.8v-.7c0-.7-1.1-1.3-2.2-1.3-1.5 0-2.5.8-2.5 1.9 0 2.9 6.8 2.2 6.8 6.9 0 2.2-1.7 4-4.5 4-3 0-4.7-2.1-4.7-2.1l1.3-1.4zm9.6 1.6h1.4v-10.7h-1.4v-1.7h4.7v1.7h-1.4v10.7h1.4v1.7h-4.7v-1.7zm7.6-10.7h-1.3v-1.7h6.2c2.6 0 4.4 1.7 4.4 4.4s-1.8 4.5-4.4 4.5h-2.9v5.2h-2v-12.4zm4.6 5.5c1.7 0 2.7-1.1 2.7-2.8s-1-2.7-2.7-2.7h-2.6v5.5h2.6zm7.2-5.5h-1.3v-1.7h6.2c2.6 0 4.4 1.7 4.4 4.4s-1.8 4.5-4.4 4.5h-2.9v5.2h-2v-12.4zm4.6 5.5c1.7 0 2.7-1.1 2.7-2.8s-1-2.7-2.7-2.7h-2.6v5.5h2.6zm7.1 3.6s1.4 1.7 3.5 1.7c1.3 0 2.4-.8 2.4-2.1 0-3-6.8-2.5-6.8-6.9 0-2.1 1.9-3.8 4.5-3.8 1.5 0 4 .7 4 2.6v1.2h-1.8v-.7c0-.7-1.1-1.3-2.2-1.3-1.5 0-2.5.8-2.5 1.9 0 2.9 6.8 2.2 6.8 6.9 0 2.2-1.7 4-4.5 4-3 0-4.7-2.1-4.7-2.1l1.3-1.4zm12-3.4c0-2.8-.7-5.5-2.2-8h1.7c1.5 2.3 2.3 5.1 2.3 8.1 0 3.1-.8 6.1-2.3 8.5h-1.7c1.4-2.7 2.2-5.7 2.2-8.6zM26.9 329.1h.9c.3 0 .4-.2.4-.4v-12H30l6.3 8.9c.5.8 1.2 1.9 1.2 1.9s-.1-1.1-.1-1.9v-7.7c0-.9.4-1.3 1.3-1.3h2v1.7h-.9c-.3 0-.4.1-.4.4v12h-1.8l-6.3-8.9c-.5-.8-1.2-1.9-1.2-1.9s.1 1.1.1 1.9v7.7c0 .9-.4 1.3-1.3 1.3h-2v-1.7zm20.2-8.7c2.8 0 4.4 2.1 4.4 4.7 0 .3-.1.8-.1.8H44c.1 2.2 1.7 3.4 3.5 3.4 1.7 0 3-1.2 3-1.2l.8 1.4s-1.5 1.5-3.9 1.5c-3.2 0-5.4-2.3-5.4-5.3 0-3.2 2.2-5.3 5.1-5.3zm2.4 4.2c-.1-1.7-1.1-2.6-2.4-2.6-1.5 0-2.7.9-3 2.6h5.4zm4.5-5.8c0-.3-.2-.4-.4-.4h-.8v-1.7h1.9c.9 0 1.3.4 1.3 1.3v10.7c0 .3.2.4.4.4h.8v1.7h-1.9c-.9 0-1.3-.4-1.3-1.3v-10.7zm17 1.7c0-1.3-1-2.2-2.5-2.2-1.3 0-2.2.6-2.2 1.3v.6h-1.8V319c0-1.8 2.5-2.6 4.1-2.6 2.6 0 4.4 1.6 4.4 4.1 0 4.9-7.2 4.9-7.2 8.2 0 .3.2.4.5.4h5c.3 0 .4-.2.4-.4v-1h1.8v1.8c0 .9-.4 1.3-1.3 1.3H65c-1.1 0-1.3-.5-1.3-1.6.1-5.2 7.3-4.9 7.3-8.7zm4.5 3.2c0-4.1 1.2-7.3 5-7.3s5 3.2 5 7.3-1.2 7.3-5 7.3-5-3.2-5-7.3zm8 0c0-3.1-.7-5.5-3-5.5s-3 2.4-3 5.5.7 5.5 3 5.5 3-2.4 3-5.5zm4.1 5.4h3.1v-10s-.2.3-.7.8l-1.3 1.3-1.2-1.2 3.4-3.3h1.8v12.4h3.1v1.7h-8.2v-1.7zm15.8-9.4c.4-.8.8-1.3.8-1.3s-.3.1-1 .1H99c-.3 0-.4.1-.4.4v.9h-1.8V318c0-.9.3-1.3 1.2-1.3h8.6v1.4l-6.8 12.8h-2.2l5.8-11.2zm10.3-.9c0-.3-.2-.4-.4-.4h-.8v-1.7h1.9c.9 0 1.3.4 1.3 1.3v10.7c0 .3.2.4.4.4h.8v1.7H115c-.9 0-1.3-.4-1.3-1.3v-10.7zm5.5-2.4h1.8l-1.3 3.9h-1.4l.9-3.9zm10 0c4.1 0 7.3 3.1 7.3 7.2 0 4.2-3.2 7.4-7.3 7.4s-7.2-3.2-7.2-7.4c-.1-4 3.1-7.2 7.2-7.2zm0 12.8c2.9 0 5.2-2.4 5.2-5.5 0-3-2.3-5.3-5.2-5.3s-5.2 2.3-5.2 5.3c0 3.1 2.3 5.5 5.2 5.5zm9.5-1.2s1.2 1.5 3.1 1.5c.9 0 1.8-.4 1.8-1.3 0-1.8-5.5-1.6-5.5-4.9 0-1.9 1.7-2.8 3.8-2.8 1.2 0 3.3.4 3.3 2v1h-1.7v-.5c0-.6-.9-.9-1.5-.9-1.1 0-1.9.4-1.9 1.2 0 1.9 5.5 1.5 5.5 4.9 0 1.8-1.6 3-3.7 3-2.7 0-4-1.8-4-1.8l.8-1.4zm9 0s1.2 1.5 3.1 1.5c.9 0 1.8-.4 1.8-1.3 0-1.8-5.5-1.6-5.5-4.9 0-1.9 1.7-2.8 3.8-2.8 1.2 0 3.3.4 3.3 2v1h-1.7v-.5c0-.6-.9-.9-1.5-.9-1.1 0-1.9.4-1.9 1.2 0 1.9 5.5 1.5 5.5 4.9 0 1.8-1.6 3-3.7 3-2.7 0-4-1.8-4-1.8l.8-1.4zm13.4-7.6c2.8 0 4.4 2.1 4.4 4.7 0 .3-.1.8-.1.8H158c.1 2.2 1.7 3.4 3.5 3.4 1.7 0 3-1.2 3-1.2l.8 1.4s-1.5 1.5-3.9 1.5c-3.2 0-5.4-2.3-5.4-5.3 0-3.2 2.2-5.3 5.1-5.3zm2.3 4.2c-.1-1.7-1.1-2.6-2.4-2.6-1.5 0-2.7.9-3 2.6h5.4zm4.6-1.8c0-.3-.2-.4-.4-.4h-.8v-1.7h1.8c.9 0 1.3.4 1.3 1.2v1.3c.5-1.5 1.6-2.6 3.2-2.6h.5v1.9s-.3-.1-.6-.1c-1.2 0-2.4.9-2.8 2.4-.2.6-.2 1.2-.2 1.8v4.1h-2v-7.9zm7.4-.1c-.1-.3-.3-.4-.6-.4h-.2v-1.6h1c.9 0 1.2.2 1.5 1l2.2 5.8c.2.6.4 1.3.4 1.3s.2-.8.4-1.3l2.2-5.8c.3-.8.7-1 1.5-1h.9v1.7h-.2c-.3 0-.5.1-.7.4l-3.1 8.1h-2.2l-3.1-8.2zm16.3 1.8h.4v-.1c0-1.8-.7-2.4-2.2-2.4-.5 0-1.7.1-1.7.8v.6h-1.8v-1c0-1.7 2.5-1.9 3.5-1.9 3.3 0 4.2 1.7 4.2 4v4.3c0 .3.2.4.4.4h.8v1.7h-1.8c-.9 0-1.3-.4-1.3-1.2v-.6s-.8 2-3.2 2c-1.7 0-3.4-1.1-3.4-3.1 0-3.3 4.4-3.5 6.1-3.5zm-2.2 5c1.6 0 2.7-1.7 2.7-3.2v-.3h-.5c-1.5 0-4.1.1-4.1 1.9 0 .8.6 1.6 1.9 1.6zm8-7.3h-1.3v-1.5h1.4v-2.8h1.9v2.8h2.4v1.6h-2.4v4.6c0 2 1.4 2.3 2.1 2.3h.5v1.7h-.7c-1.3 0-3.9-.4-3.9-3.8v-4.9zm11.3-1.8c3 0 5.5 2.2 5.5 5.3s-2.4 5.3-5.5 5.3-5.4-2.2-5.4-5.3c-.1-3 2.3-5.3 5.4-5.3zm0 9c1.9 0 3.5-1.5 3.5-3.6s-1.6-3.6-3.5-3.6-3.5 1.5-3.5 3.6c0 2 1.6 3.6 3.5 3.6zm7.8-6.6c0-.3-.2-.4-.4-.4h-.8v-1.7h1.8c.9 0 1.3.4 1.3 1.2v1.3c.5-1.5 1.6-2.6 3.2-2.6h.5v1.9s-.3-.1-.6-.1c-1.2 0-2.4.9-2.8 2.4-.2.6-.2 1.2-.2 1.8v4.1h-1.9v-7.9h-.1zm7.9 0c0-.3-.2-.4-.4-.4h-.8v-1.7h1.9c.9 0 1.3.4 1.3 1.3v6.7c0 .3.2.4.4.4h.8v1.7h-1.9c-.9 0-1.3-.4-1.3-1.3v-6.7zm0-6.1h1.7v2h-1.7v-2zm9.8 3.7c3 0 5.5 2.2 5.5 5.3s-2.4 5.3-5.5 5.3-5.4-2.2-5.4-5.3c0-3 2.4-5.3 5.4-5.3zm0 9c1.9 0 3.5-1.5 3.5-3.6s-1.6-3.6-3.5-3.6-3.5 1.5-3.5 3.6c.1 2 1.6 3.6 3.5 3.6zM28 351.5s1.4 1.7 3.5 1.7c1.3 0 2.4-.8 2.4-2.1 0-3-6.8-2.5-6.8-6.9 0-2.1 1.9-3.8 4.5-3.8 1.5 0 4 .7 4 2.6v1.2h-1.8v-.7c0-.7-1.1-1.3-2.2-1.3-1.5 0-2.5.8-2.5 1.9 0 2.9 6.8 2.2 6.8 6.9 0 2.2-1.7 4-4.5 4-3 0-4.7-2.1-4.7-2.1l1.3-1.4zm15.6-3h.4v-.1c0-1.8-.7-2.4-2.2-2.4-.5 0-1.7.1-1.7.8v.6h-1.8v-1c0-1.7 2.5-1.9 3.5-1.9 3.3 0 4.2 1.7 4.2 4v4.3c0 .3.2.4.4.4h.8v1.7h-1.8c-.9 0-1.3-.4-1.3-1.2v-.6s-.8 2-3.2 2c-1.7 0-3.4-1.1-3.4-3.1 0-3.3 4.4-3.5 6.1-3.5zm-2.2 5c1.6 0 2.7-1.7 2.7-3.2v-.3h-.5c-1.5 0-4.1.1-4.1 1.9 0 .8.6 1.6 1.9 1.6zm7.9-6.7c0-.3-.2-.4-.4-.4h-.8v-1.7H50c.9 0 1.3.4 1.3 1.1v1c.4-.9 1.6-2.3 3.8-2.3 2.4 0 3.5 1.3 3.5 3.9v4.4c0 .3.2.4.4.4h.8v1.7h-1.9c-.9 0-1.3-.4-1.3-1.3v-4.8c0-1.4-.3-2.5-1.9-2.5-1.6 0-2.8 1-3.2 2.5-.1.4-.2.9-.2 1.4v4.7h-1.9v-8.1h-.1zm12.6 0c0-.3-.2-.4-.4-.4h-.8v-1.7h1.8c.9 0 1.2.4 1.2 1v.5s.8-1.8 3.4-1.8c2.7 0 4.5 2.2 4.5 5.3 0 3.2-2 5.3-4.6 5.3-2.2 0-3.1-1.6-3.1-1.6v5.4H62l-.1-12zm4.7 6.6c1.6 0 2.9-1.3 2.9-3.6 0-2.2-1.2-3.6-2.9-3.6-1.5 0-2.9 1.1-2.9 3.6 0 1.8 1 3.6 2.9 3.6zm11.4-9c2.8 0 4.4 2.1 4.4 4.7 0 .3-.1.8-.1.8H75c.1 2.2 1.7 3.4 3.5 3.4 1.7 0 3-1.2 3-1.2l.8 1.4s-1.5 1.5-3.9 1.5c-3.2 0-5.4-2.3-5.4-5.3 0-3.2 2.2-5.3 5-5.3zm2.4 4.2c-.1-1.7-1.1-2.6-2.4-2.6-1.5 0-2.7.9-3 2.6h5.4zm4.5-5.8c0-.3-.2-.4-.4-.4h-.8v-1.7h1.9c.9 0 1.3.4 1.3 1.3v10.7c0 .3.2.4.4.4h.8v1.7h-1.9c-.9 0-1.3-.4-1.3-1.3v-10.7zm5.4 0c0-.3-.2-.4-.4-.4H89v-1.7h1.9c.9 0 1.3.4 1.3 1.3v10.7c0 .3.2.4.4.4h.8v1.7h-1.9c-.9 0-1.3-.4-1.3-1.3v-10.7h.1zm9.5 1.6c2.8 0 4.4 2.1 4.4 4.7 0 .3-.1.8-.1.8h-7.4c.1 2.2 1.7 3.4 3.5 3.4 1.7 0 3-1.2 3-1.2l.8 1.4s-1.5 1.5-3.9 1.5c-3.2 0-5.4-2.3-5.4-5.3 0-3.2 2.2-5.3 5.1-5.3zm2.4 4.2c-.1-1.7-1.1-2.6-2.4-2.6-1.5 0-2.7.9-3 2.6h5.4zm8-4.2c2.5 0 3.2 1.6 3.2 1.6v-.3c0-.6.3-1 1.1-1h1.9v1.7h-.8c-.3 0-.4.1-.4.4v7.6c0 3.3-2.5 4.6-5.1 4.6-1.2 0-2.5-.3-3.5-.8l.7-1.6s1.2.7 2.8.7c1.8 0 3.2-.8 3.2-2.8v-1.3c-.6 1-1.5 1.5-3 1.5-2.8 0-4.5-2.3-4.5-5.2 0-2.9 1.6-5.1 4.4-5.1zm3.2 5.1c0-2.6-1.3-3.4-2.9-3.4-1.8 0-2.8 1.3-2.8 3.3 0 2.1 1.1 3.5 2.9 3.5 1.5.1 2.8-.7 2.8-3.4zm5.2-2.7c0-.3-.2-.4-.4-.4h-.8v-1.7h1.8c.9 0 1.3.4 1.3 1.2v1.3c.5-1.5 1.6-2.6 3.2-2.6h.5v1.9s-.3-.1-.6-.1c-1.2 0-2.4.9-2.8 2.4-.2.6-.2 1.2-.2 1.8v4.1h-1.9v-7.9h-.1zm7.9 0c0-.3-.2-.4-.4-.4h-.8v-1.7h1.9c.9 0 1.3.4 1.3 1.3v6.7c0 .3.2.4.4.4h.8v1.7h-1.9c-.9 0-1.3-.4-1.3-1.3v-6.7zm0-6.1h1.7v2h-1.7v-2zm5.4 6.1c0-.3-.2-.4-.4-.4h-.8v-1.7h1.9c.9 0 1.3.4 1.3 1.1v1c.4-.9 1.6-2.3 3.8-2.3 2.4 0 3.5 1.3 3.5 3.9v4.4c0 .3.2.4.4.4h.8v1.7h-1.9c-.9 0-1.3-.4-1.3-1.3v-4.8c0-1.4-.3-2.5-1.9-2.5-1.6 0-2.8 1-3.2 2.5-.1.4-.2.9-.2 1.4v4.7H132v-8.1h-.1zm17-2.4c3 0 5.5 2.2 5.5 5.3s-2.4 5.3-5.5 5.3-5.4-2.2-5.4-5.3c-.1-3 2.3-5.3 5.4-5.3zm0 9c1.9 0 3.5-1.5 3.5-3.6s-1.6-3.6-3.5-3.6-3.5 1.5-3.5 3.6c0 2 1.6 3.6 3.5 3.6zm9.5-.7l-1.7 4.1h-1.5l1.2-4.1h2zm8.3-5.9c0-.3-.2-.4-.4-.4h-.8v-1.7h1.8c.9 0 1.2.4 1.2 1v.5s.8-1.8 3.4-1.8c2.7 0 4.5 2.2 4.5 5.3 0 3.2-2 5.3-4.6 5.3-2.2 0-3.1-1.6-3.1-1.6v5.4h-1.9v-12h-.1zm4.7 6.6c1.6 0 2.9-1.3 2.9-3.6 0-2.2-1.2-3.6-2.9-3.6-1.5 0-2.9 1.1-2.9 3.6 0 1.8 1 3.6 2.9 3.6zm11.8-9c3 0 5.5 2.2 5.5 5.3s-2.4 5.3-5.5 5.3-5.4-2.2-5.4-5.3c0-3 2.4-5.3 5.4-5.3zm0 9c1.9 0 3.5-1.5 3.5-3.6s-1.6-3.6-3.5-3.6-3.5 1.5-3.5 3.6c0 2 1.6 3.6 3.5 3.6zm7.9-6.6c0-.3-.2-.4-.4-.4h-.8v-1.7h1.8c.9 0 1.3.4 1.3 1.2v1.3c.5-1.5 1.6-2.6 3.2-2.6h.5v1.9s-.3-.1-.6-.1c-1.2 0-2.4.9-2.8 2.4-.2.6-.2 1.2-.2 1.8v4.1h-1.9v-7.9h-.1zm7.8-.6h-1.3v-1.5h1.4v-2.8h1.9v2.8h2.4v1.6h-2.4v4.6c0 2 1.4 2.3 2.1 2.3h.5v1.7h-.7c-1.3 0-3.9-.4-3.9-3.8v-4.9zm12 2.3h.4v-.1c0-1.8-.7-2.4-2.2-2.4-.5 0-1.7.1-1.7.8v.6h-1.8v-1c0-1.7 2.5-1.9 3.5-1.9 3.3 0 4.2 1.7 4.2 4v4.3c0 .3.2.4.4.4h.8v1.7h-1.8c-.9 0-1.3-.4-1.3-1.2v-.6s-.8 2-3.2 2c-1.7 0-3.4-1.1-3.4-3.1 0-3.3 4.4-3.5 6.1-3.5zm-2.2 5c1.6 0 2.7-1.7 2.7-3.2v-.3h-.5c-1.5 0-4.1.1-4.1 1.9 0 .8.6 1.6 1.9 1.6zm7.9-10.7c0-.3-.2-.4-.4-.4h-.8v-1.7h1.9c.9 0 1.3.4 1.3 1.3v10.7c0 .3.2.4.4.4h.8v1.7h-1.9c-.9 0-1.3-.4-1.3-1.3v-10.7zm9.5 1.6c2.8 0 4.4 2.1 4.4 4.7 0 .3-.1.8-.1.8H223c.1 2.2 1.7 3.4 3.5 3.4 1.7 0 3-1.2 3-1.2l.8 1.4s-1.5 1.5-3.9 1.5c-3.2 0-5.4-2.3-5.4-5.3 0-3.2 2.2-5.3 5.1-5.3zm2.4 4.2c-.1-1.7-1.1-2.6-2.4-2.6-1.5 0-2.7.9-3 2.6h5.4zm10.3-5.8c0-.3-.2-.4-.4-.4h-.9v-1.7h2c.9 0 1.3.4 1.3 1.3v4.9h7.2V342c0-.9.4-1.3 1.3-1.3h2v1.7h-.9c-.3 0-.4.1-.4.4v12h-2v-6.2h-7.2v6.2h-2v-12zm15.4 14.5c.8 0 1.4-.6 1.8-1.5l.5-1.1-3.5-8c-.1-.3-.3-.4-.6-.4h-.2v-1.6h1.1c.8 0 1.1.2 1.4 1l2.3 5.7c.2.5.4 1.2.4 1.2s.1-.7.3-1.2l2.1-5.7c.3-.8.7-1 1.5-1h1.2v1.7h-.3c-.3 0-.5.1-.6.4l-4 9.9c-.6 1.6-1.8 2.4-3.3 2.4l-2.4-1 .8-1.4c0-.1.6.6 1.5.6zm13.7-12.9c2.3 0 3.1 1.6 3.1 1.6v-3.2c0-.3-.2-.4-.4-.4h-.8v-1.7h1.9c.9 0 1.3.4 1.3 1.3v10.7c0 .3.2.4.4.4h.8v1.7h-1.9c-.9 0-1.2-.4-1.2-1.1v-.5s-.8 1.8-3.3 1.8c-2.7 0-4.5-2.2-4.5-5.3 0-3.2 1.9-5.3 4.6-5.3zm3.1 5.3c0-1.8-.9-3.6-2.9-3.6-1.6 0-2.9 1.3-2.9 3.6 0 2.2 1.2 3.6 2.9 3.6 1.5.1 2.9-1 2.9-3.6zm5.3-2.9c0-.3-.2-.4-.4-.4h-.8v-1.7h1.8c.9 0 1.3.4 1.3 1.2v1.3c.5-1.5 1.6-2.6 3.2-2.6h.5v1.9s-.3-.1-.6-.1c-1.2 0-2.4.9-2.8 2.4-.2.6-.2 1.2-.2 1.8v4.1h-1.9v-7.9h-.1zm12.3 1.7h.4v-.1c0-1.8-.7-2.4-2.2-2.4-.5 0-1.7.1-1.7.8v.6h-1.8v-1c0-1.7 2.5-1.9 3.5-1.9 3.3 0 4.2 1.7 4.2 4v4.3c0 .3.2.4.4.4h.8v1.7h-1.8c-.9 0-1.3-.4-1.3-1.2v-.6s-.8 2-3.2 2c-1.7 0-3.4-1.1-3.4-3.1 0-3.3 4.4-3.5 6.1-3.5zm-2.2 5c1.6 0 2.7-1.7 2.7-3.2v-.3h-.5c-1.5 0-4.1.1-4.1 1.9 0 .8.6 1.6 1.9 1.6zm8-7.3h-1.3v-1.5h1.4v-2.8h1.9v2.8h2.4v1.6h-2.4v4.6c0 2 1.4 2.3 2.1 2.3h.5v1.7h-.7c-1.3 0-3.9-.4-3.9-3.8v-4.9zm7.1.6c0-.3-.2-.4-.4-.4h-.8v-1.7h1.9c.9 0 1.3.4 1.3 1.3v6.7c0 .3.2.4.4.4h.8v1.7h-1.9c-.9 0-1.3-.4-1.3-1.3v-6.7zm0-6.1h1.7v2h-1.7v-2zm9.8 3.7c3 0 5.5 2.2 5.5 5.3s-2.4 5.3-5.5 5.3-5.4-2.2-5.4-5.3c0-3 2.4-5.3 5.4-5.3zm0 9c1.9 0 3.5-1.5 3.5-3.6s-1.6-3.6-3.5-3.6-3.5 1.5-3.5 3.6c.1 2 1.6 3.6 3.5 3.6zm7.9-6.6c0-.3-.2-.4-.4-.4h-.8v-1.7h1.9c.9 0 1.3.4 1.3 1.1v1c.4-.9 1.6-2.3 3.8-2.3 2.4 0 3.5 1.3 3.5 3.9v4.4c0 .3.2.4.4.4h.8v1.7h-1.9c-.9 0-1.3-.4-1.3-1.3v-4.8c0-1.4-.3-2.5-1.9-2.5s-2.8 1-3.2 2.5c-.1.4-.2.9-.2 1.4v4.7h-1.9l-.1-8.1zm-291 20c0-.3-.2-.4-.4-.4h-.9v-1.7h2c.9 0 1.3.4 1.3 1.3v10.7c0 .3.2.4.4.4h3.9c.3 0 .4-.2.4-.4v-1h1.8v1.8c0 .9-.4 1.3-1.3 1.3h-6c-.9 0-1.3-.4-1.3-1.3v-10.7h.1zm15.6 5.7h.4v-.1c0-1.8-.7-2.4-2.2-2.4-.5 0-1.7.1-1.7.8v.6h-1.8v-1c0-1.7 2.5-1.9 3.5-1.9 3.3 0 4.2 1.7 4.2 4v4.3c0 .3.2.4.4.4h.8v1.7h-1.8c-.9 0-1.3-.4-1.3-1.2v-.6s-.8 2-3.2 2c-1.7 0-3.4-1.1-3.4-3.1 0-3.3 4.4-3.5 6.1-3.5zm-2.2 5c1.6 0 2.7-1.7 2.7-3.2v-.3h-.5c-1.5 0-4.1.1-4.1 1.9 0 .8.6 1.6 1.9 1.6zm7.9-10.7c0-.3-.2-.4-.4-.4h-.8v-1.7h1.9c.9 0 1.3.4 1.3 1.3v4.1s.9-1.7 3.3-1.7c2.7 0 4.4 2.2 4.4 5.3 0 3.2-1.9 5.3-4.6 5.3-2.3 0-3.2-1.7-3.2-1.7v1.5h-1.9v-12zm4.7 10.6c1.6 0 2.9-1.3 2.9-3.6 0-2.2-1.2-3.6-2.9-3.6-1.5 0-2.9 1.1-2.9 3.6.1 1.8 1 3.6 2.9 3.6zm16.8-9c2.8 0 4.4 2.1 4.4 4.7 0 .3-.1.8-.1.8h-7.4c.1 2.2 1.7 3.4 3.5 3.4 1.7 0 3-1.2 3-1.2l.8 1.4s-1.5 1.5-3.9 1.5c-3.2 0-5.4-2.3-5.4-5.3 0-3.2 2.2-5.3 5.1-5.3zm2.4 4.2c-.1-1.7-1.1-2.6-2.4-2.6-1.5 0-2.7.9-3 2.6h5.4zm9.1-8.1h1.4l-.9 3.9h-1.8l1.3-3.9zm2.7 0h1.4l-.9 3.9h-1.8l1.3-3.9zm3.2 12.6h1.4v-10.7h-1.4v-1.7h4.7v1.7h-1.4v10.7h1.4v1.7h-4.7v-1.7zm7.2-6.3c0-.3-.2-.4-.4-.4h-.8v-1.7h1.9c.9 0 1.3.4 1.3 1.1v1c.4-.9 1.6-2.3 3.8-2.3 2.4 0 3.5 1.3 3.5 3.9v4.4c0 .3.2.4.4.4h.8v1.7h-1.9c-.9 0-1.3-.4-1.3-1.3v-4.8c0-1.4-.3-2.5-1.9-2.5-1.6 0-2.8 1-3.2 2.5-.1.4-.2.9-.2 1.4v4.7h-1.9v-8.1h-.1zm23.1 1.7h.4v-.1c0-1.8-.7-2.4-2.2-2.4-.5 0-1.7.1-1.7.8v.6h-1.8v-1c0-1.7 2.5-1.9 3.5-1.9 3.3 0 4.2 1.7 4.2 4v4.3c0 .3.2.4.4.4h.8v1.7h-1.8c-.9 0-1.3-.4-1.3-1.2v-.6s-.8 2-3.2 2c-1.7 0-3.4-1.1-3.4-3.1 0-3.3 4.4-3.5 6.1-3.5zm-2.3 5c1.6 0 2.7-1.7 2.7-3.2v-.3h-.5c-1.5 0-4.1.1-4.1 1.9 0 .8.6 1.6 1.9 1.6zm13.7-11.1h-1.3v-1.7h6c2.4 0 4.1 1.3 4.1 3.6 0 1.5-.8 2.6-1.8 3 1.5.4 2.3 1.8 2.3 3.4 0 2.7-2 4-4.5 4h-3.6c-.9 0-1.3-.4-1.3-1.3v-11h.1zm4.8 4.2c1.2 0 2-.9 2-2.1s-.8-2.1-2.1-2.1h-2.7v4.2h2.8zm-2.3 6.5h2.5c1.5 0 2.4-1 2.4-2.4s-.9-2.4-2.4-2.4h-3v4.4c0 .2.2.4.5.4zm14-8.7c3 0 5.5 2.2 5.5 5.3s-2.4 5.3-5.5 5.3-5.4-2.2-5.4-5.3c-.1-3 2.4-5.3 5.4-5.3zm0 9c1.9 0 3.5-1.5 3.5-3.6s-1.6-3.6-3.5-3.6-3.5 1.5-3.5 3.6c0 2 1.6 3.6 3.5 3.6zm7.9-7.2h-1.3v-1.5h1.4v-2.8h1.9v2.8h2.4v1.6h-2.4v4.6c0 2 1.4 2.3 2.1 2.3h.5v1.7h-.7c-1.3 0-3.9-.4-3.9-3.8v-4.9zm7.1 0h-1.3v-1.5h1.4v-2.8h1.9v2.8h2.4v1.6h-2.4v4.6c0 2 1.4 2.3 2.1 2.3h.5v1.7h-.7c-1.3 0-3.9-.4-3.9-3.8v-4.9zm6.8-3.4c0-.3-.2-.4-.4-.4h-.8v-1.7h1.9c.9 0 1.3.4 1.3 1.3v10.7c0 .3.2.4.4.4h.8v1.7h-1.9c-.9 0-1.3-.4-1.3-1.3v-10.7zm9.5 1.6c2.8 0 4.4 2.1 4.4 4.7 0 .3-.1.8-.1.8h-7.4c.1 2.2 1.7 3.4 3.5 3.4 1.7 0 3-1.2 3-1.2l.8 1.4s-1.5 1.5-3.9 1.5c-3.2 0-5.4-2.3-5.4-5.3 0-3.2 2.2-5.3 5.1-5.3zm2.3 4.2c-.1-1.7-1.1-2.6-2.4-2.6-1.5 0-2.7.9-3 2.6h5.4zm4.2-8.2h1.8l-1.3 3.9h-1.4l.9-3.9zm2.7 0h1.8l-1.3 3.9h-1.4l.9-3.9zm4.8 4.3h2v2.1h-2v-2.1zm0 8h2v2.1h-2v-2.1z"/><path class="st6" d="M759.2 205.5H27.1c-13.5 0-24.5-11-24.5-24.5V76.7c0-13.5 11-24.5 24.5-24.5h732.1c13.5 0 24.5 11 24.5 24.5V181c0 13.5-11 24.5-24.5 24.5zm0 217.5H27.1c-13.5 0-24.5-11-24.5-24.5V294.2c0-13.5 11-24.5 24.5-24.5h732.1c13.5 0 24.5 11 24.5 24.5v104.3c0 13.4-11 24.5-24.5 24.5z"/></svg>