<svg xmlns="http://www.w3.org/2000/svg" xmlns:xlink="http://www.w3.org/1999/xlink" viewBox="0 0 1147 508" enable-background="new 0 0 1147 508"><style>.st0{fill:none;stroke:#ac9ead;stroke-miterlimit:10}.st1{filter:url(#Adobe_OpacityMaskFilter)}.st2{fill:url(#SVGID_2_)}.st3{opacity:.1;mask:url(#SVGID_1_)}.st4,.st5{fill:none;stroke:#404040;stroke-width:1.2795;stroke-miterlimit:10}.st5{stroke-dasharray:3.3312,3.3312}.st6{fill:#404040}.st10{fill:none;stroke:#000;stroke-miterlimit:10}.st7{stroke-width:.853}.st7,.st8,.st9{fill:none;stroke:#000;stroke-miterlimit:10}.st8{stroke-width:.9789}.st10,.st9{stroke-width:1.2795}.st10{stroke-dasharray:3.3404,3.3404}.st11{fill:#868686}.st12{fill:#9e9e9e}.st13{stroke:#cecece}.st13,.st14,.st15,.st16,.st17,.st18{fill:none;stroke-miterlimit:10}.st14{stroke:#a2a2a2}.st15{stroke:#dbdbdb}.st16{stroke:#d2d2d2}.st17{stroke:#cdcdcd}.st18{stroke:#000;stroke-width:.738}.st19{fill:#666}.st20{fill:#4f4f4f}.st21{fill:#7b7b7b}.st22{fill-rule:evenodd;clip-rule:evenodd;fill:#777}.st23{fill:#a2a2a2}.st24{fill:#cdcdcd}.st25{fill:#dbdbdb}.st26{fill:#cecece}.st27{fill:#d2d2d2}.st28{fill:#fff}.st29{fill:none;stroke:#ededed;stroke-width:.853;stroke-miterlimit:10}.st30{fill:#ebebeb}.st31{fill:none}.st32{clip-path:url(#SVGID_4_)}.st33,.st34{fill:none;stroke:#636362;stroke-width:1.2795;stroke-miterlimit:10}.st34{stroke-dasharray:3.3312,3.3312}.st35{fill:#636362}.st36{fill:#12100b}.st37{stroke:#1d1d1b;stroke-width:.853}.st37,.st38,.st39,.st40{fill:none;stroke-miterlimit:10}.st38{stroke:#12100b;stroke-width:.9789}.st39,.st40{stroke:#1d1d1b;stroke-width:1.2795}.st40{stroke-dasharray:3.3404,3.3404}.st41{fill:#1d1d1b}.st42{fill:#00295a}.st43{fill:#ee7900}.st44{fill:#009c3d}.st45{stroke:#f6cb37}.st45,.st46,.st47,.st48,.st49{fill:none;stroke-miterlimit:10}.st46{stroke:#82c3e3}.st47{stroke:#b4cc6f}.st48{stroke:#d9c086}.st49{stroke:#1d1d1b;stroke-width:.738}.st50{fill:#e40077}.st51{fill:#e30520}.st52{fill:#00883d}.st53{fill-rule:evenodd;clip-rule:evenodd;fill:#ea6508}.st54{fill:#ac9ead}.st55{fill:#d9c086}.st56{fill:#82c3e3}.st57{fill:#f6cb37}.st58{fill:#b4cc6f}.st59{fill:none;stroke:#ececec;stroke-width:.853;stroke-miterlimit:10}.st60{fill:#ebeae9}.st61{fill:#df0514}</style><path class="st0" d="M1125.2 257h-876l78.5-233.3"/><defs><filter id="Adobe_OpacityMaskFilter" filterUnits="userSpaceOnUse" x="20.1" y="24.8" width="444.3" height="461.9"><feColorMatrix values="1 0 0 0 0 0 1 0 0 0 0 0 1 0 0 0 0 0 1 0"/></filter></defs><mask maskUnits="userSpaceOnUse" x="20.1" y="24.8" width="444.3" height="461.9" id="SVGID_1_"><g class="st1"><radialGradient id="SVGID_2_" cx="239.977" cy="194.464" r="220.333" gradientTransform="matrix(1.085 0 0 1.095 -25.07 39.033)" gradientUnits="userSpaceOnUse"><stop offset="0" stop-color="#fff"/><stop offset="1"/></radialGradient><path class="st2" d="M-3.8 10.7h478v482.8h-478z"/></g></mask><g class="st3"><path class="st4" d="M444.7 377.8l-.9 1.4"/><path class="st5" d="M442 382c-57.4 88.2-170.2 127.9-272.7 89.3-118.5-44.6-178.4-176.8-133.8-295.2 40-106.1 150.1-165.2 257.8-144.4"/><path class="st4" d="M294.9 32l1.6.3"/><circle class="st6" cx="444.7" cy="377.8" r="7"/><path class="st6" d="M298.7 32.8l-.8-8 11.3 9.8-13.9 5.5z"/><path d="M249.3 47.7c114.7 0 208.1 92.4 209.2 207.3 1.1 115.6-91.7 210.1-207.3 211.2h-2c-114.6.1-208.1-92.3-209.2-207.2-1.1-115.6 91.7-210.2 207.3-211.2.7-.1 1.3-.1 2-.1m0-.8h-2c-28.4.3-55.8 6.1-81.6 17.3-24.9 10.8-47.2 26.2-66.4 45.7-19.1 19.5-34 42.1-44.4 67.2-10.7 26-16 53.6-15.7 81.9.3 28.2 6 55.5 17.1 81.2 10.7 24.8 25.9 47 45.2 66.1 19.3 19.1 41.7 34.1 66.6 44.5 25.8 10.8 53.1 16.3 81.2 16.3h2c28.4-.3 55.8-6.1 81.6-17.3 24.9-10.8 47.2-26.2 66.4-45.7 19.1-19.5 34-42.1 44.4-67.2 10.7-26 16-53.6 15.7-81.9-.3-28.2-6-55.5-17.1-81.2-10.7-24.8-25.9-47-45.2-66.1-19.3-19.1-41.7-34.1-66.6-44.5-25.7-10.8-53-16.3-81.2-16.3z"/><path class="st7" d="M153.5 226.2l208.2 67m-102.5-150.3l-20.1 231.4m-50.1-197.8l131.1 175m-2.9-191l-128.8 197.1m144.8-182.4l-168.3 164m71.1-180.9l28.9 214.8"/><path class="st8" d="M355.1 205.1l-211.9 103.9m222.2-70.1l-229.9 35.8"/><path class="st9" d="M259.7 138.8l1.7.2"/><path class="st10" d="M264.7 139.3c52.7 7.2 95.7 49.5 101.4 104.8 6.7 64.8-40.4 122.8-105.2 129.4-57.5 5.9-109.6-30.5-125.3-84"/><path class="st9" d="M135.1 288l-.4-1.6"/><circle cx="259.7" cy="138.8" r="6.1"/><path d="M134.4 285.4l-5.6 3.6 3-12.1 9.3 8.3zm114.9-113.3c22.5 0 43.7 8.7 59.7 24.6 16 15.9 25 37 25.2 59.6.4 46.8-37.3 85.3-84.1 85.7h-.8c-22.5 0-43.7-8.7-59.7-24.6-16-15.9-25-37-25.2-59.6-.4-46.8 37.3-85.3 84.1-85.7h.8m0-8h-.9c-51.3.5-92.5 42.5-92.1 93.8.5 51 42 92.1 92.9 92.1h.9c51.3-.5 92.5-42.5 92.1-93.8-.5-51.1-42-92.1-92.9-92.1z"/><path class="st11" d="M249.3 164.4c24.5 0 47.7 9.5 65.1 26.8 17.5 17.3 27.2 40.3 27.4 64.9.2 24.7-9.2 48.1-26.5 65.7s-40.5 27.5-65.2 27.7h-.9c-24.5 0-47.7-9.5-65.1-26.8-17.5-17.3-27.2-40.3-27.4-64.9-.2-24.7 9.2-48.1 26.5-65.7s40.5-27.5 65.2-27.7h.9m0-8h-1c-55.5.5-100.1 46-99.6 101.5.5 55.2 45.4 99.6 100.5 99.6h1c55.5-.5 100.1-46 99.6-101.5-.5-55.2-45.4-99.6-100.5-99.6z"/><path class="st12" d="M249.3 157.4c26.4 0 51.3 10.2 70.1 28.8 18.8 18.6 29.3 43.4 29.5 69.8.3 26.6-9.9 51.7-28.5 70.7s-43.6 29.6-70.2 29.8h-1c-26.4 0-51.3-10.2-70.1-28.8-18.8-18.6-29.3-43.4-29.5-69.8-.5-54.9 43.7-100 98.7-100.5h1m0-8h-1c-59.5.6-107.2 49.2-106.6 108.6.6 59.1 48.6 106.6 107.6 106.6h1c59.4-.6 107.1-49.2 106.6-108.6-.6-59.1-48.6-106.6-107.6-106.6z"/><path class="st13" d="M420.6 258.8c-.3 24-5.6 47.7-15.6 69.6-12.2 26.8-31.5 50.7-57.3 68.8-15.6 11-32.4 18.9-49.7 24.1"/><path class="st14" d="M302.7 94.2c33.9 11.1 64.7 32.9 86.8 64.3 21.5 30.5 31.5 65.7 31.1 100.3"/><path class="st15" d="M112.2 154.1c10.5-14 23.4-26.7 38.6-37.3 46-32.3 102.4-38.8 151.9-22.6"/><path class="st16" d="M77.9 255.2c.4-36.1 12.2-71.7 34.3-101.1m-2.7 202.1l-.5-.7c-21.4-30.5-31.5-65.6-31.1-100.3"/><path class="st17" d="M298.1 421.3c-68.4 20.3-145-3.8-188.6-65.1"/><path class="st7" d="M310.5 463.2l-81.8-274.9m235.7 71l-430.3-4.6"/><path class="st18" d="M396.3 367.3l-232.3-174.9"/><path class="st7" d="M273.3 337l-77.5-258.1m-2.7 349l112.3-341.8m-203.2 274.5l294.2-207.2"/><path class="st19" d="M335.6 381.7c-2.2.3-5.1.3-6.5 2-1.9 2.4-2.1 7.2-2.8 8.4 0 0-.6.3-.4-.4 1.1-5.4-1.6-10.3-4.8-12 0 0 .3-1.3.4-1.8-.1-1.4-4-5.8-5.3-6.9 0 0-.1-.7.4-.4 2.8 1.8 4.9 3.9 5.8 4.9.3.4.5.3.4-.2-.4-1.7-1.5-3.9-3.7-7.4 0 0 0-.7.5-.2 2.8 2.9 8.9 13.5 9.2 13.4 2.6-.4 5.5-.2 6.7.1.2.2.1.5.1.5z" id="XMLID_390_"/><path class="st19" d="M343 375.5c-.3.1-.6.4-.8.7-.2.5-.2 1.2 0 1.8.2.6.7 1.1 1.2 1.3.4.2.7.2 1.1.1.3-.1.6-.4.8-.7.2-.5.2-1.2 0-1.8-.2-.6-.7-1.1-1.2-1.4-.4-.1-.7-.2-1.1 0z" id="XMLID_386_"/><path class="st19" d="M329.8 386.6c.4.4 1 .6 1.5.5.4 0 .6-.2.8-.4.2-.2.3-.6.2-.9-.1-.5-.3-1-.8-1.4-.8-.7-1.8-.7-2.3-.1-.4.6-.2 1.6.6 2.3z" id="XMLID_381_"/><path class="st19" d="M331.9 375.8c-.2.1-.3.4-.3.6-.1.4.1 1 .5 1.4.6.8 1.5 1 2 .7.2-.1.3-.4.3-.6.1-.4-.1-1-.5-1.4-.6-.8-1.5-1.1-2-.7z" id="XMLID_377_"/><path class="st19" d="M326.3 364.3c1.6 3.3 2.1 5.1 2.2 5.6-.6-.7-2.9-3-3.9-3.6-.6-.4-.7.2-.7.2 6.6 7.7 5.3 10.2 4.5 13.2-.1.4.2.4.2.4.4-.3 1.3-2.3 1.4-2.5 2.1-4.7 5.6-3.5 6.3-3.5 0 0 .2-.2-.1-.4-.6-.3-2.6-.9-4.5-.8-.7-2.3-3.8-7.3-5-8.8-.3-.5-.4.2-.4.2z" id="XMLID_373_"/><path class="st19" d="M351 367.2c-3.1.3-7.6 2.7-9.5 3.9-3.1-5.8-7.5-11.7-10.2-14.1-.7-.6-.8.2-.8.2 2.3 2.9 5 8.1 4.8 9.7-1.5-1.4-5.6-4.5-9.3-5.9-.8-.3-.7.3-.7.3 12.7 10 13.5 14.7 14.4 19.6.3 1.6.6 3.1 1.2 5 .3.9.8.1.8.1-1.6-7.3-1.1-14.1 9.8-18.4.1 0 .1-.5-.5-.4z" id="XMLID_369_"/><path class="st19" d="M251.2 103c1.9 1 4.3 2.8 6.4 2.3 3-.8 6-4.6 7.3-5.1 0 0 .6.1.1.6-4.1 3.7-4.9 9.2-3.2 12.5 0 0-1.1.9-1.4 1.2-.7 1.2-.2 7 .2 8.7 0 0-.3.6-.5.1-1.2-3.1-1.6-6.1-1.8-7.4 0-.5-.2-.5-.5 0-.7 1.6-1.1 4-1.4 8.1 0 0-.4.6-.5-.1-.5-3.9.9-16.1.6-16.3-2.3-1.2-4.6-3.1-5.3-4.1-.3-.4 0-.5 0-.5z" id="XMLID_365_"/><path class="st19" d="M241.5 103.6c.3.1.7.1 1-.1.5-.3.9-.8 1.1-1.4.2-.6.1-1.3-.1-1.8-.2-.4-.5-.6-.8-.7-.3-.1-.7-.1-1 .1-.5.3-.9.8-1 1.4-.2.6-.1 1.3.1 1.8.1.4.4.6.7.7z" id="XMLID_361_"/><path class="st19" d="M258.8 102.5c-.1-.6-.5-1-.9-1.3-.3-.2-.6-.2-.9-.2-.3.1-.6.3-.7.6-.3.4-.3 1-.2 1.6.2 1 1.1 1.7 1.8 1.5.7-.3 1.1-1.2.9-2.2z" id="XMLID_357_"/><path class="st19" d="M250.7 110c.2 0 .5-.1.7-.3.3-.3.5-.9.5-1.4 0-.9-.5-1.7-1.2-1.7-.2 0-.5.1-.7.3-.3.3-.5.9-.5 1.4 0 .9.6 1.7 1.2 1.7z" id="XMLID_353_"/><path class="st19" d="M248.4 122.5c.6-3.6 1.4-5.3 1.6-5.8 0 .9.6 4.1 1 5.2.3.7.7.2.7.2-.7-10.1 1.8-11.4 4.1-13.3.3-.2 0-.4 0-.4-.5 0-2.4 1-2.6 1.1-4.5 2.5-6.6-.5-7.2-.9 0 0-.3 0-.2.4.3.6 1.6 2.3 3.1 3.3-.8 2.3-1.2 8.1-1.1 10 .1.7.6.2.6.2z" id="XMLID_349_"/><path class="st19" d="M230.2 105.6c2.7 1.6 7.7 2.3 9.9 2.5-1 6.5-.9 13.9-.1 17.4.2.9.8.3.8.3-.1-3.7.8-9.5 1.9-10.7.4 2 1.8 6.9 4 10.2.4.7.8.2.8.2-4.3-15.6-2.2-19.8 0-24.3.7-1.4 1.4-2.9 2-4.8.3-.9-.6-.6-.6-.6-3 6.8-7.4 12-18.8 9-.1 0-.4.4.1.8z" id="XMLID_345_"/><path class="st20" d="M99 310.6l8.3-5.8 8.1 6.1-3-9.7 8.3-5.8-10.1-.2-3-9.7-3.3 9.6-10.1-.2 8.1 6.1-3.3 9.6zm-2.3-14.8l8.2.1 2.7-7.8 2.4 7.8 8.2.1-6.7 4.7 2.4 7.9-6.6-4.9-6.7 4.7 2.6-7.7-6.5-4.9zM116.1 296.8l-6.6-.2-2-6.3-2.1 6.3-6.7-.1 5.3 4-2.1 6.2 5.4-3.8 5.3 4-1.9-6.3 5.4-3.8zm209.6-141.3l8.3-5.8 8.1 6.1-3-9.7 8.3-5.8-10.1-.2-3-9.7-3.3 9.6-10.1-.2 8.1 6.1-3.3 9.6zm-2.3-14.8l8.2.1 2.7-7.8 2.4 7.8 8.2.1-6.7 4.7 2.4 7.9-6.6-4.9-6.7 4.7 2.6-7.7-6.5-4.9zM342.8 141.7l-6.6-.2-2-6.3-2.2 6.3-6.6-.1 5.3 4-2.1 6.2 5.4-3.8 5.3 4-2-6.3 5.5-3.8z"/><path class="st21" d="M369.1 313.2c2.9-.8 5.8-1.7 8.6-2.5 5.9-1.7 12.3-3.6 18.3-5.3l-17.8-22.4s0 .2-.1.2l-1.8 5.7-.1.3 9.3 11.9c.7.9.5 1.4-.5 1.7-4.3 1.3-10.1 3-14.4 4.2 0 0-.2.6-.5 1.6-.1.3-.2.6-.3 1-.4 1.2-.8 2.5-1.2 3.8.2-.1.4-.1.5-.2zm18.7-7.4l.3-.8.1-.3 1.6-.5c.7-.3.8-.8.4-1.3l-1.1-1.4s0-.1.1-.4c.2-.5.3-1.1.6-1.7 1.5 1.9 2.8 3.6 4.2 5.5l-6.4 1.8c0-.1.2-.9.2-.9zm-203.7-167.3l-8.4-3.2-17.8-6.8.8 28.7s.1-.1.2-.1c1.6-1.1 3.2-2.3 4.9-3.5l.2-.2-.2-15.1c0-1.1.4-1.4 1.4-1.1l14.1 5.3s.5-.4 1.4-1l.8-.6c1.1-.8 2.1-1.5 3.3-2.3-.3 0-.5 0-.7-.1zm-19.4-5.3l-.7.5-.3.2c-.3-.1-1.2-.5-1.6-.6-.7-.2-1.1.1-1.1.9 0 .5 0 1.3.1 1.7 0 0-.1.1-.3.2-.5.3-.9.6-1.5 1.1 0-2.4-.1-4.6-.1-6.9l6.3 2.4c-.1 0-.8.5-.8.5z"/><path class="st22" d="M99.7 207.1c.9-.6 1.9-1 3-1.1.3 0 .4-.1.4-.4.1-1 .6-1.8 1.2-2.7.1 2.1.7 4 1.7 5.8-2-.9-4.1-1.4-6.3-1.6zM108.2 200.8c-1.3-.1-2.7.8-3 2.1-.2 1-.2 2 .1 2.9.7 2.2 2.1 3.7 4.1 4.9.9.6 1.9.9 2.9 1.2.3.1.3.1.2.4 0 0 0 .1-.1.1-.2-.1-.4-.1-.6-.1-.9-.2-1.8-.5-2.7-.9-1-.5-2.1-1.1-3.1-1.7-1-.6-2-1-3.1-1.3-1.1-.3-2.2-.4-3.3-.4-1.8 0-3.6.4-5.2 1.3l-.7.4c.7.9 1.4 1.6 2.3 2.2 1.1.8 2.3 1.3 3.6 1.7.9.3 1.9.4 2.9.4s2.1-.1 3.1-.3c1.7-.3 3.3-.6 5-.5l1.5.1v.5h-.3c-.6 0-1.1-.1-1.7 0-2.4.1-4.6.9-6.3 2.6-1 .9-1.7 2.1-1.8 3.4-.1.5 0 1 .2 1.5.5 1.2 1.9 1.9 3.2 1.7 1.1-.2 2-.7 2.8-1.5l2-1.9c.6-.5 1.2-1 1.9-1.2l.1-.1-1.2-.8c-.2.2-.4.4-.6.7-.4.4-.8.8-1.4.9-1.1.3-2-.5-2-1.6 0-.6.3-1.1.7-1.5.8-.8 1.8-1.2 2.9-1.2h1.2v1.1c0 .6 0 .6.6.7.1 0 .1 0 .2-.1.1-.2.2-.3.2-.5l.3-.7c.4.2.8.5 1.1.9.4.6.6 1.3.3 2l-.3.6c.2.1.6.2 1.1.2.8 0 1.4-.6 1.5-1.4.1-.7-.2-1.3-.7-1.8-.6-.6-1.4-1-2.2-1.3-.3-.1-.3-.1-.3-.4 0-.2.1-.2.2-.1l2.1.9c.5.2 1 .4 1.6.4.9.1 1.8-.2 2.6-.6-.9-.1-4.8-.8-4.8-.8s.5.6 1.4.8c.9.3 1.6.3 1.8.3-.3 0-1.2.1-1.9-.1-1-.3-1.5-1.1-1.5-1.1s1.1-.8 2.7-.4c.7.2 1.7.9 2.4 1.2h.1l.2-.1-.9-.8c-.7-.5-1.4-.9-2.3-1-.5 0-1 0-1.6.1-.6 0-1.2.1-1.9 0v-.5h.6c.9 0 1.7-.2 2.5-.6.7-.3 1.1-.9 1.2-1.6.1-.8-.4-1.4-1.1-1.5-.3-.1-.6-.1-.9-.1.7 1.2-.6 2.8-2.1 2.8v-.9c0-.6 0-.6-.6-.7-.2 0-.2 0-.3.1l-.5 1.2c0 .1-.1.2-.2.1-.9-.2-1.7-.6-2.3-1.2-.7-.6-1.2-1.4-1.2-2.3 0-.6.1-1.1.6-1.5.7-.5 1.5-.4 2.2.2.3.3.5.7.7 1.1l.3.8c.4-.2.8-.3 1.3-.4h.1s0-.1-.1-.1c-.4-.3-.7-.6-1-1.1-.5-.9-1-1.9-1.5-2.9-.3-.6-.6-1.2-1.1-1.7-.3-.6-1.1-1.1-2.2-1.2zm-.9 18.2c.9 1.2 2.5.7 2.5.7s-1.2 1.2-2.9 1.4c-.4 0-1.1-.1-1.5-.6-.7-.8-.3-1.6-.1-2.1 1.2-2.6 3.9-3.6 3.9-3.6-2.6 1.8-2.5 3.3-1.9 4.2zm-1.5-3c-3.5 2.2-3 4.8-2.5 5.5 1.1 1.7 3.7.6 3.7.6s-1 .6-2.3.4c-.2 0-1.1-.2-1.5-.8-.7-.8-.6-2-.4-2.7 1.5-4.2 6.4-4.5 6.4-4.5-1.4.6-2.5 1-3.4 1.5zm10.6 1.5c0 .6-.8 1.1-.8 1.1 1-1.8-.9-3.1-.9-3.1s1.6.7 1.7 2zm-21.2-7.4s1.6 1.7 4.3 2.6c3 .9 5 .9 5.8.9-1 .1-3.9.2-5.9-.4-3.1-.9-4.9-3.2-4.9-3.2s3.6-2.2 8.5-1.1c2.4.5 5.7 3 8.1 3.9.1 0-15.9-2.7-15.9-2.7zm22-1s.6.7.4 1.3c-.5 1.2-2.3 1.4-2.3 1.4s2.3-.6 1.9-2.7zm-7.3-5.5c1.5.7 2.2 2.3 2.2 2.3s-1.3-1-2.6-.1c-.9.6-1.5 2 .4 4.6 0 0-2.3-1.9-2.5-4.7 0-.5-.1-1.4.8-2 .7-.4 1.4-.2 1.7-.1zm-1.5-2.2c1.3.3 2 1.2 2 1.2s-2.1-1.9-3.7-.7c-.7.5-2 2.8.5 6.1.6.8 1.5 1.5 2.7 2.4 0 0-4.5-1.8-4.5-6.4 0-.8.4-1.9 1.3-2.4.6-.3 1.5-.2 1.7-.2z"/><path class="st23" d="M394.8 154.8c22.3 31.8 32.8 68.4 32.3 104.4l37.1.3c.5-43.6-12.1-87.7-39-126-27.6-39.4-66.1-66.6-108.5-80.6l-11.5 35.2c35 11.6 66.8 34.1 89.6 66.7z"/><path class="st24" d="M104.1 359.9l-30.3 21.3c54.6 77.1 150.7 107.4 236.6 81.9l-10.6-35.5c-70.9 21.1-150.5-4-195.7-67.7z"/><path class="st25" d="M147 111.4c47.8-33.6 106.5-40.3 158.1-23.3l11.5-35.2c-62.3-20.5-133.1-12.4-190.9 28.2-19.1 13.4-35.3 29.4-48.6 47.1l29.6 22.3c11-14.7 24.5-27.9 40.3-39.1z"/><path class="st26" d="M351.5 402.6c-16.2 11.4-33.6 19.7-51.6 25l10.6 35.5c21.7-6.5 42.8-16.5 62.4-30.2 58.8-41.3 90.6-106.7 91.4-173.4l-37.1-.3c-.8 55.2-27.1 109.2-75.7 143.4z"/><path class="st27" d="M73.8 381.2l30.3-21.3-.5-.6c-45.4-64.6-41.8-148.8 3.1-208.8l-29.6-22.3c-54.2 72.4-58.6 174.3-3.8 252.4.2.2.4.4.5.6z"/><path class="st19" d="M393.4 215.7c-.4 2.1-1.5 4.9-.4 6.8 1.6 2.6 6.1 4.5 6.9 5.5 0 0 .1.6-.5.3-4.7-2.9-10.2-2.1-12.9.5 0 0-1.2-.8-1.6-1-1.4-.3-6.8 1.8-8.3 2.7 0 0-.7-.1-.2-.5 2.7-2 5.4-3.3 6.6-3.8.5-.2.4-.4-.1-.5-1.8-.2-4.1 0-8.2.9 0 0-.7-.3 0-.6 3.6-1.6 15.7-3.7 15.8-4 .5-2.6 1.7-5.2 2.4-6.3.3-.3.5 0 .5 0z" id="XMLID_341_"/><path class="st19" d="M390.1 206.6c0 .4.1.7.4 1 .4.4 1 .6 1.7.6s1.3-.2 1.7-.6c.3-.3.4-.6.4-1 0-.3-.1-.7-.4-1-.4-.4-1-.6-1.7-.6s-1.3.2-1.7.6c-.2.3-.4.6-.4 1z" id="XMLID_337_"/><path class="st19" d="M396 222.8c.5-.3.9-.7 1-1.2.1-.3.1-.7-.1-.9-.2-.3-.4-.5-.8-.5-.5-.1-1.1 0-1.6.3-.9.5-1.3 1.5-.9 2.1.5.6 1.5.7 2.4.2z" id="XMLID_333_"/><path class="st19" d="M386.6 217.1c.1.2.2.4.5.5.4.2 1 .2 1.5.1.9-.3 1.5-1 1.3-1.6-.1-.2-.2-.4-.5-.5-.4-.2-1-.2-1.5-.1-.9.3-1.5 1-1.3 1.6z" id="XMLID_329_"/><path class="st19" d="M373.9 218.4c3.6-.4 5.5-.2 6-.1-.9.3-3.8 1.7-4.7 2.5-.6.5 0 .7 0 .7 9.5-3.5 11.4-1.5 13.9.2.3.2.4-.1.4-.1-.2-.4-1.7-2-1.8-2.2-3.7-3.6-1.3-6.5-1.1-7.2 0 0-.1-.3-.5 0-.5.4-1.7 2.2-2.3 3.9-2.4-.1-8.1 1.1-10 1.7-.5.3.1.6.1.6z" id="XMLID_325_"/><path class="st19" d="M385.1 196.3c-.8 3.1-.1 8.1.4 10.2-6.5.9-13.6 3-16.8 4.8-.8.5-.1.8-.1.8 3.5-1.1 9.3-1.9 10.8-1.2-1.8.9-6.1 3.7-8.7 6.7-.5.6.1.8.1.8 13.7-8.5 18.4-7.7 23.3-6.8 1.6.3 3.1.5 5.1.6.9 0 .4-.8.4-.8-7.4-.9-13.6-3.7-13.9-15.5 0-.1-.5-.3-.6.4z" id="XMLID_321_"/><path class="st21" d="M228.4 389.2l4.2 8c2.8 5.5 5.9 11.4 8.8 16.9l18.5-21.9h-.2c-2-.2-4-.4-5.9-.7h-.3l-9.9 11.4c-.7.8-1.3.8-1.8-.2l-7-13.3s-.7-.1-1.7-.2l-1-.1c-1.3-.1-2.6-.3-4-.4.2.2.3.4.3.5zm11 16.9l.8.1h.3c.1.3.6 1.2.8 1.5.4.6.9.6 1.4.1l1.1-1.3h.4c.6.1 1.1.1 1.8.2-1.6 1.8-3 3.5-4.5 5.2l-3.1-6c.1.1 1 .2 1 .2z"/><image width="2230" height="1476" id="Livello_1_4_" xlink:href="A0B56B822BF3BACD.png" transform="rotate(-142.358 157.568 175.85) scale(.03)" overflow="visible"/><circle class="st28" cx="249.3" cy="257" r="86.2"/><path class="st29" d="M309.9 196.6l-121.9 119.7m121.4 1.1l-119.7-121.9m106.4-10.4l-94.1 142.8m119-24.5l-142.8-94.1m155.2 29.8l-168.3 34.1m101.2 67.1l-33.9-167.4m102.7 82l-171.7.7m85.3 86.4l1.1-170.7m58.1 46l-117.2 77.7m97.4 19.8l-77.7-117.2m107.8 72.2l-137.9-27.2m55.4 82.5l27.2-137.9m51 96.6l-129.2-55.3m36.9 92.3l55.4-129.3m37.5 38.5l-130.5 52.3m91.4 39.1l-52.3-130.5"/><path class="st30" d="M249.8 187.3l18.4 52.6 56.3-.6-47 32.8 18.7 52.5-45.7-32.3-48.5 33.1 17.9-52.6-47.9-32.1 60.4-.5z"/><path class="st28" d="M250 205l14.1 40.3 42.7-.3-36 25.1 14.3 40.2-34.6-24.7-37.7 25.4 13.6-40.5-36.6-24.4 46.9-.5z"/><path class="st30" d="M250.1 213.8l11.9 34.3 36.1-.3-30.7 21.3 12.2 34.2-29.2-21.1-32.3 21.7 11.6-34.5-31.1-20.7 40.1-.4z"/><path d="M238.5 286.6c0-1.4-1.2-2.5-2.6-2.5l-5.6.1.1 8.7h1.2v-3.5h3.3l2.4 3.5h1.4l-2.4-3.6c1.4-.5 2.2-1.3 2.2-2.7zm-1.7 1.1c-.2.2-.5.4-.9.4h-4.4v-2.8h4.5c1 0 1.2.8 1.2 1.4 0 .4-.1.8-.4 1zm10.5 2.1c0 1.2-1.4 1.9-2.8 1.9-1.3 0-2.7-.6-2.7-1.8l-.1-5.8h-1.2l.1 5.9c0 .7.3 1.4.8 1.9.7.7 1.7 1 3 1h.1c2.7-.1 4-1 4-3l-.1-5.9h-1.2l.1 5.8zm9.8-5.9l-5.6.1.1 8.7h1.2v-3.6h4.3c1.2 0 2.2-1.1 2.2-2.4 0-.7-.3-1.5-.9-2-.4-.6-.9-.8-1.3-.8zm.9 2.7c0 .4-.1.8-.4 1-.1.1-.3.2-.4.2h-4.4v-2.8h4.3c.3.1.8.8.9 1.6zm8.9-2.8l-5.6.1.1 8.7h1.2v-3.6h4.3c1.2 0 2.2-1.1 2.2-2.4 0-.7-.3-1.5-.9-2-.4-.6-.9-.8-1.3-.8zm.9 2.7c0 .4-.1.8-.4 1-.1.1-.3.2-.4.2h-4.4v-2.8h4.3c.4.1.9.8.9 1.6zm7.3 6c1.5 0 2.8-.6 3.7-1.5.8-.8 1.2-1.9 1.2-3 0-3.1-2.6-4.4-5-4.4-1.4 0-2.7.6-3.6 1.5-.8.8-1.2 1.9-1.2 3 0 2.4 2.4 4.5 4.9 4.4zm-3.6-4.4c0-1.8 1.9-3.3 3.6-3.3h.1c1 0 2.1.4 2.8 1.1.6.6.9 1.3.9 2.1s-.3 1.6-.9 2.2c-.7.7-1.7 1.1-2.8 1.1-2.1.1-3.7-1.3-3.7-3.2zm-47.6 1.3h3v1.5c-.2.2-1.2 1-2.9 1-2.3 0-3.7-1.2-3.8-3.3 0-1.9 1.4-3.2 3.6-3.2h.1c1.7 0 3.1 1 3.1 1l.1.1.8-.9-.2-.1c-1.4-.9-2.6-1.4-3.9-1.4-1.4 0-2.7.5-3.7 1.5-.8.8-1.3 1.9-1.2 3 0 2.8 2 4.5 5 4.5 2.7 0 4-1.7 4.1-1.7v-3h-4.2l.1 1z"/><path class="st20" d="M249.6 205.4l6.9 19.8 21.1-.2-17.6 12.3 7 19.7-17.2-12.1-18.2 12.4 6.7-19.8-18-12 22.7-.2z"/><path class="st28" d="M249.6 212.1l5.3 15.1 16.1-.1-13.6 9.4 5.4 15.1-13-9.3-14.2 9.6 5.1-15.2-13.7-9.2 17.6-.2z"/><path class="st20" d="M249.7 215.4l4.4 12.9 13.6-.2-11.5 8 4.5 12.9-10.9-7.9-12.1 8.1 4.3-12.9-11.7-7.8 15.1-.2z"/><path d="M180.2 269.8c0-.5.3-1.2 1.9-1.2 1.5 0 2.8.7 2.8.7l-.3-3.1c-.2.2-.5.3-.7.2-.5-.1-1.3-.2-2.2-.2-3.3 0-4.8 2-4.8 3.8 0 3.5 5.4 3.7 5.4 6.2 0 .9-.9 1.4-1.9 1.5-2.2 0-3.7-1-3.7-1l.4 3.1c.3-.1.5-.1.8-.1.7.2 1.8.4 2.9.4 3.2 0 4.8-1.8 4.8-3.9-.1-4.5-5.4-4.4-5.4-6.4zm111.8-3.2l.1 12.1h3l-.1-13.4h-3.6c.1.1.6.4.6 1.3zm-2.6 3.2c0-2.4-2-4.4-4.4-4.4l-6.4.1s.5.4.5.9l.1 12.4h2.9v-4.6h1.8l2.7 4.5h3.3l-2.9-5c1.4-.7 2.4-2.2 2.4-3.9zm-7.3-1.5h2.7c.8 0 1.5.7 1.5 1.5s-.7 1.5-1.5 1.5h-2.7v-3zm-7.8 3.9v2.2s-1.1 1.9-2.9 1.9c-1.4 0-3.5-1.3-3.5-3.8s1.8-4 3.4-4c1.6 0 2.6 1.1 2.6 1.1l1.3-2.7s-1.5-1.6-4.1-1.5c-3.4 0-6.2 2.8-6.2 7s3.2 6.9 6.3 6.9c3.1 0 4.1-1.9 5.8-3.6v-4.1h-3.3c.1 0 .6.2.6.6zm41.6-7.3c-3.5 0-6.3 3.2-6.2 7 0 3.8 2.9 6.9 6.3 6.9 3.5 0 6.3-3.2 6.2-7 0-3.9-2.8-6.9-6.3-6.9zm.1 10.7c-1.7 0-3-1.6-3-3.8 0-2.2 1.3-3.8 3-3.8s3 1.6 3 3.8-1.3 3.8-3 3.8zm-11-3.3l-4-7h-3.9s.5.3.6 1.2l.1 12.1h2.8l-.1-8.3 4.6 8.3h2.8l-.1-13.4h-2.8v7.1zm-46.8 1.4h4v-2.9h-4v-2.3h5.2l-.8-2.9-7.8.1s.5.3.5 1.2l.1 12.2 7.7-.1.7-3-5.6.1v-2.4zm-50.8-.4l-4-7h-3.9s.5.3.6 1.2l.1 12.1h2.8l-.1-8.3 4.6 8.3h2.8l-.1-13.4h-2.8v7.1zm40.8-7.5h-3.6s.5.3.5 1.2l.1 12.1 7.7-.1.7-3-5.3.1-.1-10.3zm-58.7.6s.7.4.5 1.2l-3.5 12.2h2.6l.9-3.1h4.2l1 3.1h3.3l-4.5-13.3-4.5-.1zm1.3 7.6l1.2-4.3 1.4 4.3h-2.6zm27.7-7.9l-6.4.1s.5.3.5 1.2l.1 12.1h2.9v-4.6h2.9c2.4 0 4.4-2 4.4-4.4 0-2.5-2-4.4-4.4-4.4zm-.2 5.9h-2.7v-3.1h2.7c.8 0 1.5.7 1.5 1.5.1.9-.6 1.6-1.5 1.6zm19.7-6.1h-3.6s.5.3.5 1.2l.1 12.1 7.7-.1.7-3-5.3.1-.1-10.3zm-10.7 8.1h4v-2.9h-4v-2.3h5.2l-.8-2.9-7.8.1s.5.3.5 1.2l.1 12.2 7.7-.1.7-3-5.6.1v-2.4z"/></g><path class="st31" d="M327.9 23.8l-78.6 233.2h273c-.1 0-81.9-238.5-194.4-233.2z"/><defs><path id="SVGID_3_" d="M327.9 23.8l-78.6 233.2h273c-.1 0-81.9-238.5-194.4-233.2z"/></defs><clipPath id="SVGID_4_"><use xlink:href="#SVGID_3_" overflow="visible"/></clipPath><g class="st32"><path class="st33" d="M444.7 377.8l-.9 1.4"/><path class="st34" d="M442 382c-57.4 88.2-170.2 127.9-272.7 89.3-118.5-44.6-178.4-176.8-133.8-295.2 40-106.1 150.1-165.2 257.8-144.4"/><path class="st33" d="M294.9 32l1.6.3"/><circle class="st35" cx="444.7" cy="377.8" r="7"/><path class="st35" d="M298.7 32.8l-.8-8 11.3 9.8-13.9 5.5z"/><path class="st36" d="M249.3 47.7c114.7 0 208.1 92.4 209.2 207.3 1.1 115.6-91.7 210.1-207.3 211.2h-2c-114.6.1-208.1-92.3-209.2-207.2-1.1-115.6 91.7-210.2 207.3-211.2.7-.1 1.3-.1 2-.1m0-.8h-2c-28.4.3-55.8 6.1-81.6 17.3-24.9 10.8-47.2 26.2-66.4 45.7-19.1 19.5-34 42.1-44.4 67.2-10.7 26-16 53.6-15.7 81.9.3 28.2 6 55.5 17.1 81.2 10.7 24.8 25.9 47 45.2 66.1 19.3 19.1 41.7 34.1 66.6 44.5 25.8 10.8 53.1 16.3 81.2 16.3h2c28.4-.3 55.8-6.1 81.6-17.3 24.9-10.8 47.2-26.2 66.4-45.7 19.1-19.5 34-42.1 44.4-67.2 10.7-26 16-53.6 15.7-81.9-.3-28.2-6-55.5-17.1-81.2-10.7-24.8-25.9-47-45.2-66.1-19.3-19.1-41.7-34.1-66.6-44.5-25.7-10.8-53-16.3-81.2-16.3z"/><path class="st37" d="M153.5 226.2l208.2 67m-102.5-150.3l-20.1 231.4m-50.1-197.8l131.1 175m-2.9-191l-128.8 197.1m144.8-182.4l-168.3 164m71.1-180.9l28.9 214.8"/><path class="st38" d="M355.1 205.1l-211.9 103.9m222.2-70.1l-229.9 35.8"/><path class="st39" d="M259.7 138.8l1.7.2"/><path class="st40" d="M264.7 139.3c52.7 7.2 95.7 49.5 101.4 104.8 6.7 64.8-40.4 122.8-105.2 129.4-57.5 5.9-109.6-30.5-125.3-84"/><path class="st39" d="M135.1 288l-.4-1.6"/><circle class="st41" cx="259.7" cy="138.8" r="6.1"/><path class="st41" d="M134.4 285.4l-5.6 3.6 3-12.1 9.3 8.3z"/><path class="st42" d="M249.3 172.1c22.5 0 43.7 8.7 59.7 24.6 16 15.9 25 37 25.2 59.6.4 46.8-37.3 85.3-84.1 85.7h-.8c-22.5 0-43.7-8.7-59.7-24.6-16-15.9-25-37-25.2-59.6-.4-46.8 37.3-85.3 84.1-85.7h.8m0-8h-.9c-51.3.5-92.5 42.5-92.1 93.8.5 51 42 92.1 92.9 92.1h.9c51.3-.5 92.5-42.5 92.1-93.8-.5-51.1-42-92.1-92.9-92.1z"/><path class="st43" d="M249.3 164.4c24.5 0 47.7 9.5 65.1 26.8 17.5 17.3 27.2 40.3 27.4 64.9.2 24.7-9.2 48.1-26.5 65.7s-40.5 27.5-65.2 27.7h-.9c-24.5 0-47.7-9.5-65.1-26.8-17.5-17.3-27.2-40.3-27.4-64.9-.2-24.7 9.2-48.1 26.5-65.7s40.5-27.5 65.2-27.7h.9m0-8h-1c-55.5.5-100.1 46-99.6 101.5.5 55.2 45.4 99.6 100.5 99.6h1c55.5-.5 100.1-46 99.6-101.5-.5-55.2-45.4-99.6-100.5-99.6z"/><path class="st44" d="M249.3 157.4c26.4 0 51.3 10.2 70.1 28.8 18.8 18.6 29.3 43.4 29.5 69.8.3 26.6-9.9 51.7-28.5 70.7s-43.6 29.6-70.2 29.8h-1c-26.4 0-51.3-10.2-70.1-28.8-18.8-18.6-29.3-43.4-29.5-69.8-.5-54.9 43.7-100 98.7-100.5h1m0-8h-1c-59.5.6-107.2 49.2-106.6 108.6.6 59.1 48.6 106.6 107.6 106.6h1c59.4-.6 107.1-49.2 106.6-108.6-.6-59.1-48.6-106.6-107.6-106.6z"/><path class="st45" d="M420.6 258.8c-.3 24-5.6 47.7-15.6 69.6-12.2 26.8-31.5 50.7-57.3 68.8-15.6 11-32.4 18.9-49.7 24.1"/><path class="st0" d="M302.7 94.2c33.9 11.1 64.7 32.9 86.8 64.3 21.5 30.5 31.5 65.7 31.1 100.3"/><path class="st46" d="M112.2 154.1c10.5-14 23.4-26.7 38.6-37.3 46-32.3 102.4-38.8 151.9-22.6"/><path class="st47" d="M77.9 255.2c.4-36.1 12.2-71.7 34.3-101.1m-2.7 202.1l-.5-.7c-21.4-30.5-31.5-65.6-31.1-100.3"/><path class="st48" d="M298.1 421.3c-68.4 20.3-145-3.8-188.6-65.1"/><path class="st37" d="M310.5 463.2l-81.8-274.9m235.7 71l-430.3-4.6"/><path class="st49" d="M396.3 367.3l-232.3-174.9"/><path class="st37" d="M273.3 337l-77.5-258.1m-2.7 349l112.3-341.8m-203.2 274.5l294.2-207.2"/><path class="st50" d="M335.6 381.7c-2.2.3-5.1.3-6.5 2-1.9 2.4-2.1 7.2-2.8 8.4 0 0-.6.3-.4-.4 1.1-5.4-1.6-10.3-4.8-12 0 0 .3-1.3.4-1.8-.1-1.4-4-5.8-5.3-6.9 0 0-.1-.7.4-.4 2.8 1.8 4.9 3.9 5.8 4.9.3.4.5.3.4-.2-.4-1.7-1.5-3.9-3.7-7.4 0 0 0-.7.5-.2 2.8 2.9 8.9 13.5 9.2 13.4 2.6-.4 5.5-.2 6.7.1.2.2.1.5.1.5z" id="XMLID_317_"/><path class="st50" d="M343 375.5c-.3.1-.6.4-.8.7-.2.5-.2 1.2 0 1.8.2.6.7 1.1 1.2 1.3.4.2.7.2 1.1.1.3-.1.6-.4.8-.7.2-.5.2-1.2 0-1.8-.2-.6-.7-1.1-1.2-1.4-.4-.1-.7-.2-1.1 0z" id="XMLID_313_"/><path class="st50" d="M329.8 386.6c.4.4 1 .6 1.5.5.4 0 .6-.2.8-.4.2-.2.3-.6.2-.9-.1-.5-.3-1-.8-1.4-.8-.7-1.8-.7-2.3-.1-.4.6-.2 1.6.6 2.3z" id="XMLID_309_"/><path class="st50" d="M331.9 375.8c-.2.1-.3.4-.3.6-.1.4.1 1 .5 1.4.6.8 1.5 1 2 .7.2-.1.3-.4.3-.6.1-.4-.1-1-.5-1.4-.6-.8-1.5-1.1-2-.7z" id="XMLID_305_"/><path class="st50" d="M326.3 364.3c1.6 3.3 2.1 5.1 2.2 5.6-.6-.7-2.9-3-3.9-3.6-.6-.4-.7.2-.7.2 6.6 7.7 5.3 10.2 4.5 13.2-.1.4.2.4.2.4.4-.3 1.3-2.3 1.4-2.5 2.1-4.7 5.6-3.5 6.3-3.5 0 0 .2-.2-.1-.4-.6-.3-2.6-.9-4.5-.8-.7-2.3-3.8-7.3-5-8.8-.3-.5-.4.2-.4.2z" id="XMLID_301_"/><path class="st50" d="M351 367.2c-3.1.3-7.6 2.7-9.5 3.9-3.1-5.8-7.5-11.7-10.2-14.1-.7-.6-.8.2-.8.2 2.3 2.9 5 8.1 4.8 9.7-1.5-1.4-5.6-4.5-9.3-5.9-.8-.3-.7.3-.7.3 12.7 10 13.5 14.7 14.4 19.6.3 1.6.6 3.1 1.2 5 .3.9.8.1.8.1-1.6-7.3-1.1-14.1 9.8-18.4.1 0 .1-.5-.5-.4z" id="XMLID_297_"/><path class="st50" d="M251.2 103c1.9 1 4.3 2.8 6.4 2.3 3-.8 6-4.6 7.3-5.1 0 0 .6.1.1.6-4.1 3.7-4.9 9.2-3.2 12.5 0 0-1.1.9-1.4 1.2-.7 1.2-.2 7 .2 8.7 0 0-.3.6-.5.1-1.2-3.1-1.6-6.1-1.8-7.4 0-.5-.2-.5-.5 0-.7 1.6-1.1 4-1.4 8.1 0 0-.4.6-.5-.1-.5-3.9.9-16.1.6-16.3-2.3-1.2-4.6-3.1-5.3-4.1-.3-.4 0-.5 0-.5z" id="XMLID_293_"/><path class="st50" d="M241.5 103.6c.3.1.7.1 1-.1.5-.3.9-.8 1.1-1.4.2-.6.1-1.3-.1-1.8-.2-.4-.5-.6-.8-.7-.3-.1-.7-.1-1 .1-.5.3-.9.8-1 1.4-.2.6-.1 1.3.1 1.8.1.4.4.6.7.7z" id="XMLID_289_"/><path class="st50" d="M258.8 102.5c-.1-.6-.5-1-.9-1.3-.3-.2-.6-.2-.9-.2-.3.1-.6.3-.7.6-.3.4-.3 1-.2 1.6.2 1 1.1 1.7 1.8 1.5.7-.3 1.1-1.2.9-2.2z" id="XMLID_285_"/><path class="st50" d="M250.7 110c.2 0 .5-.1.7-.3.3-.3.5-.9.5-1.4 0-.9-.5-1.7-1.2-1.7-.2 0-.5.1-.7.3-.3.3-.5.9-.5 1.4 0 .9.6 1.7 1.2 1.7z" id="XMLID_281_"/><path class="st50" d="M248.4 122.5c.6-3.6 1.4-5.3 1.6-5.8 0 .9.6 4.1 1 5.2.3.7.7.2.7.2-.7-10.1 1.8-11.4 4.1-13.3.3-.2 0-.4 0-.4-.5 0-2.4 1-2.6 1.1-4.5 2.5-6.6-.5-7.2-.9 0 0-.3 0-.2.4.3.6 1.6 2.3 3.1 3.3-.8 2.3-1.2 8.1-1.1 10 .1.7.6.2.6.2z" id="XMLID_277_"/><path class="st50" d="M230.2 105.6c2.7 1.6 7.7 2.3 9.9 2.5-1 6.5-.9 13.9-.1 17.4.2.9.8.3.8.3-.1-3.7.8-9.5 1.9-10.7.4 2 1.8 6.9 4 10.2.4.7.8.2.8.2-4.3-15.6-2.2-19.8 0-24.3.7-1.4 1.4-2.9 2-4.8.3-.9-.6-.6-.6-.6-3 6.8-7.4 12-18.8 9-.1 0-.4.4.1.8z" id="XMLID_273_"/><path class="st51" d="M99 310.6l8.3-5.8 8.1 6.1-3-9.7 8.3-5.8-10.1-.2-3-9.7-3.3 9.6-10.1-.2 8.1 6.1-3.3 9.6zm-2.3-14.8l8.2.1 2.7-7.8 2.4 7.8 8.2.1-6.7 4.7 2.4 7.9-6.6-4.9-6.7 4.7 2.6-7.7-6.5-4.9zM116.1 296.8l-6.6-.2-2-6.3-2.1 6.3-6.7-.1 5.3 4-2.1 6.2 5.4-3.8 5.3 4-1.9-6.3 5.4-3.8zm209.6-141.3l8.3-5.8 8.1 6.1-3-9.7 8.3-5.8-10.1-.2-3-9.7-3.3 9.6-10.1-.2 8.1 6.1-3.3 9.6zm-2.3-14.8l8.2.1 2.7-7.8 2.4 7.8 8.2.1-6.7 4.7 2.4 7.9-6.6-4.9-6.7 4.7 2.6-7.7-6.5-4.9zM342.8 141.7l-6.6-.2-2-6.3-2.2 6.3-6.6-.1 5.3 4-2.1 6.2 5.4-3.8 5.3 4-2-6.3 5.5-3.8z"/><path class="st52" d="M369.1 313.2c2.9-.8 5.8-1.7 8.6-2.5 5.9-1.7 12.3-3.6 18.3-5.3l-17.8-22.4s0 .2-.1.2l-1.8 5.7-.1.3 9.3 11.9c.7.9.5 1.4-.5 1.7-4.3 1.3-10.1 3-14.4 4.2 0 0-.2.6-.5 1.6-.1.3-.2.6-.3 1-.4 1.2-.8 2.5-1.2 3.8.2-.1.4-.1.5-.2zm18.7-7.4l.3-.8.1-.3 1.6-.5c.7-.3.8-.8.4-1.3l-1.1-1.4s0-.1.1-.4c.2-.5.3-1.1.6-1.7 1.5 1.9 2.8 3.6 4.2 5.5l-6.4 1.8c0-.1.2-.9.2-.9zm-203.7-167.3l-8.4-3.2-17.8-6.8.8 28.7s.1-.1.2-.1c1.6-1.1 3.2-2.3 4.9-3.5l.2-.2-.2-15.1c0-1.1.4-1.4 1.4-1.1l14.1 5.3s.5-.4 1.4-1l.8-.6c1.1-.8 2.1-1.5 3.3-2.3-.3 0-.5 0-.7-.1zm-19.4-5.3l-.7.5-.3.2c-.3-.1-1.2-.5-1.6-.6-.7-.2-1.1.1-1.1.9 0 .5 0 1.3.1 1.7 0 0-.1.1-.3.2-.5.3-.9.6-1.5 1.1 0-2.4-.1-4.6-.1-6.9l6.3 2.4c-.1 0-.8.5-.8.5z"/><path class="st53" d="M99.7 207.1c.9-.6 1.9-1 3-1.1.3 0 .4-.1.4-.4.1-1 .6-1.8 1.2-2.7.1 2.1.7 4 1.7 5.8-2-.9-4.1-1.4-6.3-1.6zM108.2 200.8c-1.3-.1-2.7.8-3 2.1-.2 1-.2 2 .1 2.9.7 2.2 2.1 3.7 4.1 4.9.9.6 1.9.9 2.9 1.2.3.1.3.1.2.4 0 0 0 .1-.1.1-.2-.1-.4-.1-.6-.1-.9-.2-1.8-.5-2.7-.9-1-.5-2.1-1.1-3.1-1.7-1-.6-2-1-3.1-1.3-1.1-.3-2.2-.4-3.3-.4-1.8 0-3.6.4-5.2 1.3l-.7.4c.7.9 1.4 1.6 2.3 2.2 1.1.8 2.3 1.3 3.6 1.7.9.3 1.9.4 2.9.4s2.1-.1 3.1-.3c1.7-.3 3.3-.6 5-.5l1.5.1v.5h-.3c-.6 0-1.1-.1-1.7 0-2.4.1-4.6.9-6.3 2.6-1 .9-1.7 2.1-1.8 3.4-.1.5 0 1 .2 1.5.5 1.2 1.9 1.9 3.2 1.7 1.1-.2 2-.7 2.8-1.5l2-1.9c.6-.5 1.2-1 1.9-1.2l.1-.1-1.2-.8c-.2.2-.4.4-.6.7-.4.4-.8.8-1.4.9-1.1.3-2-.5-2-1.6 0-.6.3-1.1.7-1.5.8-.8 1.8-1.2 2.9-1.2h1.2v1.1c0 .6 0 .6.6.7.1 0 .1 0 .2-.1.1-.2.2-.3.2-.5l.3-.7c.4.2.8.5 1.1.9.4.6.6 1.3.3 2l-.3.6c.2.1.6.2 1.1.2.8 0 1.4-.6 1.5-1.4.1-.7-.2-1.3-.7-1.8-.6-.6-1.4-1-2.2-1.3-.3-.1-.3-.1-.3-.4 0-.2.1-.2.2-.1l2.1.9c.5.2 1 .4 1.6.4.9.1 1.8-.2 2.6-.6-.9-.1-4.8-.8-4.8-.8s.5.6 1.4.8c.9.3 1.6.3 1.8.3-.3 0-1.2.1-1.9-.1-1-.3-1.5-1.1-1.5-1.1s1.1-.8 2.7-.4c.7.2 1.7.9 2.4 1.2h.1l.2-.1-.9-.8c-.7-.5-1.4-.9-2.3-1-.5 0-1 0-1.6.1-.6 0-1.2.1-1.9 0v-.5h.6c.9 0 1.7-.2 2.5-.6.7-.3 1.1-.9 1.2-1.6.1-.8-.4-1.4-1.1-1.5-.3-.1-.6-.1-.9-.1.7 1.2-.6 2.8-2.1 2.8v-.9c0-.6 0-.6-.6-.7-.2 0-.2 0-.3.1l-.5 1.2c0 .1-.1.2-.2.1-.9-.2-1.7-.6-2.3-1.2-.7-.6-1.2-1.4-1.2-2.3 0-.6.1-1.1.6-1.5.7-.5 1.5-.4 2.2.2.3.3.5.7.7 1.1l.3.8c.4-.2.8-.3 1.3-.4h.1s0-.1-.1-.1c-.4-.3-.7-.6-1-1.1-.5-.9-1-1.9-1.5-2.9-.3-.6-.6-1.2-1.1-1.7-.3-.6-1.1-1.1-2.2-1.2zm-.9 18.2c.9 1.2 2.5.7 2.5.7s-1.2 1.2-2.9 1.4c-.4 0-1.1-.1-1.5-.6-.7-.8-.3-1.6-.1-2.1 1.2-2.6 3.9-3.6 3.9-3.6-2.6 1.8-2.5 3.3-1.9 4.2zm-1.5-3c-3.5 2.2-3 4.8-2.5 5.5 1.1 1.7 3.7.6 3.7.6s-1 .6-2.3.4c-.2 0-1.1-.2-1.5-.8-.7-.8-.6-2-.4-2.7 1.5-4.2 6.4-4.5 6.4-4.5-1.4.6-2.5 1-3.4 1.5zm10.6 1.5c0 .6-.8 1.1-.8 1.1 1-1.8-.9-3.1-.9-3.1s1.6.7 1.7 2zm-21.2-7.4s1.6 1.7 4.3 2.6c3 .9 5 .9 5.8.9-1 .1-3.9.2-5.9-.4-3.1-.9-4.9-3.2-4.9-3.2s3.6-2.2 8.5-1.1c2.4.5 5.7 3 8.1 3.9.1 0-15.9-2.7-15.9-2.7zm22-1s.6.7.4 1.3c-.5 1.2-2.3 1.4-2.3 1.4s2.3-.6 1.9-2.7zm-7.3-5.5c1.5.7 2.2 2.3 2.2 2.3s-1.3-1-2.6-.1c-.9.6-1.5 2 .4 4.6 0 0-2.3-1.9-2.5-4.7 0-.5-.1-1.4.8-2 .7-.4 1.4-.2 1.7-.1zm-1.5-2.2c1.3.3 2 1.2 2 1.2s-2.1-1.9-3.7-.7c-.7.5-2 2.8.5 6.1.6.8 1.5 1.5 2.7 2.4 0 0-4.5-1.8-4.5-6.4 0-.8.4-1.9 1.3-2.4.6-.3 1.5-.2 1.7-.2z"/><path class="st54" d="M394.8 154.8c22.3 31.8 32.8 68.4 32.3 104.4l37.1.3c.5-43.6-12.1-87.7-39-126-27.6-39.4-66.1-66.6-108.5-80.6l-11.5 35.2c35 11.6 66.8 34.1 89.6 66.7z"/><path class="st55" d="M104.1 359.9l-30.3 21.3c54.6 77.1 150.7 107.4 236.6 81.9l-10.6-35.5c-70.9 21.1-150.5-4-195.7-67.7z"/><path class="st56" d="M147 111.4c47.8-33.6 106.5-40.3 158.1-23.3l11.5-35.2c-62.3-20.5-133.1-12.4-190.9 28.2-19.1 13.4-35.3 29.4-48.6 47.1l29.6 22.3c11-14.7 24.5-27.9 40.3-39.1z"/><path class="st57" d="M351.5 402.6c-16.2 11.4-33.6 19.7-51.6 25l10.6 35.5c21.7-6.5 42.8-16.5 62.4-30.2 58.8-41.3 90.6-106.7 91.4-173.4l-37.1-.3c-.8 55.2-27.1 109.2-75.7 143.4z"/><path class="st58" d="M73.8 381.2l30.3-21.3-.5-.6c-45.4-64.6-41.8-148.8 3.1-208.8l-29.6-22.3c-54.2 72.4-58.6 174.3-3.8 252.4.2.2.4.4.5.6z"/><path class="st50" d="M393.4 215.7c-.4 2.1-1.5 4.9-.4 6.8 1.6 2.6 6.1 4.5 6.9 5.5 0 0 .1.6-.5.3-4.7-2.9-10.2-2.1-12.9.5 0 0-1.2-.8-1.6-1-1.4-.3-6.8 1.8-8.3 2.7 0 0-.7-.1-.2-.5 2.7-2 5.4-3.3 6.6-3.8.5-.2.4-.4-.1-.5-1.8-.2-4.1 0-8.2.9 0 0-.7-.3 0-.6 3.6-1.6 15.7-3.7 15.8-4 .5-2.6 1.7-5.2 2.4-6.3.3-.3.5 0 .5 0z" id="XMLID_269_"/><path class="st50" d="M390.1 206.6c0 .4.1.7.4 1 .4.4 1 .6 1.7.6s1.3-.2 1.7-.6c.3-.3.4-.6.4-1 0-.3-.1-.7-.4-1-.4-.4-1-.6-1.7-.6s-1.3.2-1.7.6c-.2.3-.4.6-.4 1z" id="XMLID_265_"/><path class="st50" d="M396 222.8c.5-.3.9-.7 1-1.2.1-.3.1-.7-.1-.9-.2-.3-.4-.5-.8-.5-.5-.1-1.1 0-1.6.3-.9.5-1.3 1.5-.9 2.1.5.6 1.5.7 2.4.2z" id="XMLID_261_"/><path class="st50" d="M386.6 217.1c.1.2.2.4.5.5.4.2 1 .2 1.5.1.9-.3 1.5-1 1.3-1.6-.1-.2-.2-.4-.5-.5-.4-.2-1-.2-1.5-.1-.9.3-1.5 1-1.3 1.6z" id="XMLID_250_"/><path class="st50" d="M373.9 218.4c3.6-.4 5.5-.2 6-.1-.9.3-3.8 1.7-4.7 2.5-.6.5 0 .7 0 .7 9.5-3.5 11.4-1.5 13.9.2.3.2.4-.1.4-.1-.2-.4-1.7-2-1.8-2.2-3.7-3.6-1.3-6.5-1.1-7.2 0 0-.1-.3-.5 0-.5.4-1.7 2.2-2.3 3.9-2.4-.1-8.1 1.1-10 1.7-.5.3.1.6.1.6z" id="XMLID_40_"/><path class="st50" d="M385.1 196.3c-.8 3.1-.1 8.1.4 10.2-6.5.9-13.6 3-16.8 4.8-.8.5-.1.8-.1.8 3.5-1.1 9.3-1.9 10.8-1.2-1.8.9-6.1 3.7-8.7 6.7-.5.6.1.8.1.8 13.7-8.5 18.4-7.7 23.3-6.8 1.6.3 3.1.5 5.1.6.9 0 .4-.8.4-.8-7.4-.9-13.6-3.7-13.9-15.5 0-.1-.5-.3-.6.4z" id="XMLID_4_"/><path class="st52" d="M228.4 389.2l4.2 8c2.8 5.5 5.9 11.4 8.8 16.9l18.5-21.9h-.2c-2-.2-4-.4-5.9-.7h-.3l-9.9 11.4c-.7.8-1.3.8-1.8-.2l-7-13.3s-.7-.1-1.7-.2l-1-.1c-1.3-.1-2.6-.3-4-.4.2.2.3.4.3.5zm11 16.9l.8.1h.3c.1.3.6 1.2.8 1.5.4.6.9.6 1.4.1l1.1-1.3h.4c.6.1 1.1.1 1.8.2-1.6 1.8-3 3.5-4.5 5.2l-3.1-6c.1.1 1 .2 1 .2z"/><image width="2230" height="1476" id="Livello_1_3_" xlink:href="A0B56B822BF3BACF.png" transform="rotate(-142.358 157.568 175.85) scale(.03)" overflow="visible"/><circle class="st28" cx="249.3" cy="257" r="86.2"/><path class="st59" d="M309.9 196.6l-121.9 119.7m121.4 1.1l-119.7-121.9m106.4-10.4l-94.1 142.8m119-24.5l-142.8-94.1m155.2 29.8l-168.3 34.1m101.2 67.1l-33.9-167.4m102.7 82l-171.7.7m85.3 86.4l1.1-170.7m58.1 46l-117.2 77.7m97.4 19.8l-77.7-117.2m107.8 72.2l-137.9-27.2m55.4 82.5l27.2-137.9m51 96.6l-129.2-55.3m36.9 92.3l55.4-129.3m37.5 38.5l-130.5 52.3m91.4 39.1l-52.3-130.5"/><path class="st60" d="M249.8 187.3l18.4 52.6 56.3-.6-47 32.8 18.7 52.5-45.7-32.3-48.5 33.1 17.9-52.6-47.9-32.1 60.4-.5z"/><path class="st28" d="M250 205l14.1 40.3 42.7-.3-36 25.1 14.3 40.2-34.6-24.7-37.7 25.4 13.6-40.5-36.6-24.4 46.9-.5z"/><path class="st60" d="M250.1 213.8l11.9 34.3 36.1-.3-30.7 21.3 12.2 34.2-29.2-21.1-32.3 21.7 11.6-34.5-31.1-20.7 40.1-.4z"/><path class="st42" d="M238.5 286.6c0-1.4-1.2-2.5-2.6-2.5l-5.6.1.1 8.7h1.2v-3.5h3.3l2.4 3.5h1.4l-2.4-3.6c1.4-.5 2.2-1.3 2.2-2.7zm-1.7 1.1c-.2.2-.5.4-.9.4h-4.4v-2.8h4.5c1 0 1.2.8 1.2 1.4 0 .4-.1.8-.4 1zm10.5 2.1c0 1.2-1.4 1.9-2.8 1.9-1.3 0-2.7-.6-2.7-1.8l-.1-5.8h-1.2l.1 5.9c0 .7.3 1.4.8 1.9.7.7 1.7 1 3 1h.1c2.7-.1 4-1 4-3l-.1-5.9h-1.2l.1 5.8zm9.8-5.9l-5.6.1.1 8.7h1.2v-3.6h4.3c1.2 0 2.2-1.1 2.2-2.4 0-.7-.3-1.5-.9-2-.4-.6-.9-.8-1.3-.8zm.9 2.7c0 .4-.1.8-.4 1-.1.1-.3.2-.4.2h-4.4v-2.8h4.3c.3.1.8.8.9 1.6zm8.9-2.8l-5.6.1.1 8.7h1.2v-3.6h4.3c1.2 0 2.2-1.1 2.2-2.4 0-.7-.3-1.5-.9-2-.4-.6-.9-.8-1.3-.8zm.9 2.7c0 .4-.1.8-.4 1-.1.1-.3.2-.4.2h-4.4v-2.8h4.3c.4.1.9.8.9 1.6zm7.3 6c1.5 0 2.8-.6 3.7-1.5.8-.8 1.2-1.9 1.2-3 0-3.1-2.6-4.4-5-4.4-1.4 0-2.7.6-3.6 1.5-.8.8-1.2 1.9-1.2 3 0 2.4 2.4 4.5 4.9 4.4zm-3.6-4.4c0-1.8 1.9-3.3 3.6-3.3h.1c1 0 2.1.4 2.8 1.1.6.6.9 1.3.9 2.1s-.3 1.6-.9 2.2c-.7.7-1.7 1.1-2.8 1.1-2.1.1-3.7-1.3-3.7-3.2zm-47.6 1.3h3v1.5c-.2.2-1.2 1-2.9 1-2.3 0-3.7-1.2-3.8-3.3 0-1.9 1.4-3.2 3.6-3.2h.1c1.7 0 3.1 1 3.1 1l.1.1.8-.9-.2-.1c-1.4-.9-2.6-1.4-3.9-1.4-1.4 0-2.7.5-3.7 1.5-.8.8-1.3 1.9-1.2 3 0 2.8 2 4.5 5 4.5 2.7 0 4-1.7 4.1-1.7v-3h-4.2l.1 1z"/><path class="st51" d="M249.6 205.4l6.9 19.8 21.1-.2-17.6 12.3 7 19.7-17.2-12.1-18.2 12.4 6.7-19.8-18-12 22.7-.2z"/><path class="st28" d="M249.6 212.1l5.3 15.1 16.1-.1-13.6 9.4 5.4 15.1-13-9.3-14.2 9.6 5.1-15.2-13.7-9.2 17.6-.2z"/><path class="st51" d="M249.7 215.4l4.4 12.9 13.6-.2-11.5 8 4.5 12.9-10.9-7.9-12.1 8.1 4.3-12.9-11.7-7.8 15.1-.2z"/><path class="st42" d="M180.2 269.8c0-.5.3-1.2 1.9-1.2 1.5 0 2.8.7 2.8.7l-.3-3.1c-.2.2-.5.3-.7.2-.5-.1-1.3-.2-2.2-.2-3.3 0-4.8 2-4.8 3.8 0 3.5 5.4 3.7 5.4 6.2 0 .9-.9 1.4-1.9 1.5-2.2 0-3.7-1-3.7-1l.4 3.1c.3-.1.5-.1.8-.1.7.2 1.8.4 2.9.4 3.2 0 4.8-1.8 4.8-3.9-.1-4.5-5.4-4.4-5.4-6.4zm111.8-3.2l.1 12.1h3l-.1-13.4h-3.6c.1.1.6.4.6 1.3zm-2.6 3.2c0-2.4-2-4.4-4.4-4.4l-6.4.1s.5.4.5.9l.1 12.4h2.9v-4.6h1.8l2.7 4.5h3.3l-2.9-5c1.4-.7 2.4-2.2 2.4-3.9zm-7.3-1.5h2.7c.8 0 1.5.7 1.5 1.5s-.7 1.5-1.5 1.5h-2.7v-3zm-7.8 3.9v2.2s-1.1 1.9-2.9 1.9c-1.4 0-3.5-1.3-3.5-3.8s1.8-4 3.4-4c1.6 0 2.6 1.1 2.6 1.1l1.3-2.7s-1.5-1.6-4.1-1.5c-3.4 0-6.2 2.8-6.2 7s3.2 6.9 6.3 6.9c3.1 0 4.1-1.9 5.8-3.6v-4.1h-3.3c.1 0 .6.2.6.6zm41.6-7.3c-3.5 0-6.3 3.2-6.2 7 0 3.8 2.9 6.9 6.3 6.9 3.5 0 6.3-3.2 6.2-7 0-3.9-2.8-6.9-6.3-6.9zm.1 10.7c-1.7 0-3-1.6-3-3.8 0-2.2 1.3-3.8 3-3.8s3 1.6 3 3.8-1.3 3.8-3 3.8zm-11-3.3l-4-7h-3.9s.5.3.6 1.2l.1 12.1h2.8l-.1-8.3 4.6 8.3h2.8l-.1-13.4h-2.8v7.1zm-46.8 1.4h4v-2.9h-4v-2.3h5.2l-.8-2.9-7.8.1s.5.3.5 1.2l.1 12.2 7.7-.1.7-3-5.6.1v-2.4zm-50.8-.4l-4-7h-3.9s.5.3.6 1.2l.1 12.1h2.8l-.1-8.3 4.6 8.3h2.8l-.1-13.4h-2.8v7.1zm40.8-7.5h-3.6s.5.3.5 1.2l.1 12.1 7.7-.1.7-3-5.3.1-.1-10.3zm-58.7.6s.7.4.5 1.2l-3.5 12.2h2.6l.9-3.1h4.2l1 3.1h3.3l-4.5-13.3-4.5-.1zm1.3 7.6l1.2-4.3 1.4 4.3h-2.6zm27.7-7.9l-6.4.1s.5.3.5 1.2l.1 12.1h2.9v-4.6h2.9c2.4 0 4.4-2 4.4-4.4 0-2.5-2-4.4-4.4-4.4zm-.2 5.9h-2.7v-3.1h2.7c.8 0 1.5.7 1.5 1.5.1.9-.6 1.6-1.5 1.6zm19.7-6.1h-3.6s.5.3.5 1.2l.1 12.1 7.7-.1.7-3-5.3.1-.1-10.3zm-10.7 8.1h4v-2.9h-4v-2.3h5.2l-.8-2.9-7.8.1s.5.3.5 1.2l.1 12.2 7.7-.1.7-3-5.6.1v-2.4z"/></g><path class="st61" d="M1143.2 250.9h-10.8l-3.4-10.1-3.4 10.1h-11.6l9.1 6.2-3.5 10.1 9.4-6.3 8.7 6.3-3.5-10.1 9-6.2zm-7.7 13.5l-6.6-4.8-7.3 4.8 2.7-7.7-7-4.8h9l2.6-7.8 2.6 7.8h8.2l-7 4.8 2.8 7.7zm2.6-12h-6.9l-2.2-6.6-2.2 6.6h-7.7l5.9 4-2.3 6.6 6.2-4.1 5.6 4.1-2.3-6.6 5.9-4z"/><path class="st54" d="M491.7 194.5c5 0 13.3 2.2 13.3 7.5v2.9h-3.3v-2c0-3.3-5.7-5.1-9.8-5.1-7.9 0-13.9 6.1-13.9 14.7 0 8.5 6 15.3 14.1 15.3 7.3 0 11.6-5 11.6-5l2 2.6s-4.9 5.7-13.7 5.7c-10.4 0-17.7-8.3-17.7-18.6-.1-10.2 7.4-18 17.4-18zm37.8 0c10 0 18 7.9 18 18.1 0 10.4-8 18.5-18 18.5-10.1 0-18-8.2-18-18.5-.1-10.2 7.9-18.1 18-18.1zm0 33.3c7.9 0 14.4-6.7 14.4-15.2 0-8.4-6.5-14.8-14.4-14.8-8 0-14.4 6.4-14.4 14.8 0 8.5 6.4 15.2 14.4 15.2zm24.5-.4h2.2c.7 0 1.1-.4 1.1-1.1v-31.2h3.2l18.1 25.2c1.2 1.8 2.9 4.6 2.9 4.6h.1s-.3-2.8-.3-4.6v-22.2c0-2.2.9-3.1 3.1-3.1h3.7v3.1h-2.1c-.7 0-1.1.4-1.1 1.1v31.2h-3.2l-18.1-25.2c-1.3-1.7-2.9-4.6-2.9-4.6h-.1s.3 2.7.3 4.6v22.2c0 2.2-.9 3.1-3.1 3.1h-3.8v-3.1zm42.7-3.9s3.6 4.3 9.2 4.3c3.9 0 7-2.5 7-6.3 0-8.8-17.5-7-17.5-18 0-4.9 4.3-9.1 10.8-9.1 3.4 0 9.6 1.5 9.6 6.1v2.5h-3.3v-1.7c0-2.1-2.9-3.7-6.2-3.7-4.6 0-7.3 2.7-7.3 5.7 0 8.2 17.5 6.2 17.5 17.9 0 5.3-4.1 9.8-10.7 9.8-7.3 0-11.2-5-11.2-5l2.1-2.5zm29.6-24.2c0-.8-.4-1.1-1.1-1.1h-2.2v-3.1h3.7c2.2 0 3.1.9 3.1 3.1v20.1c0 5.9 3.7 9.6 9.5 9.6s9.6-3.7 9.6-9.7v-20c0-2.2.9-3.1 3.1-3.1h3.7v3.1h-2.2c-.7 0-1.1.4-1.1 1.1v19c0 7.7-5.2 12.7-13.1 12.7-7.8 0-13.1-5.1-13.1-12.7v-19zm34.5 28.1h1.9c.7 0 1.1-.4 1.1-1.1l2.5-31.2h3.6l9.4 20.6c.9 1.8 1.8 4.2 1.8 4.2h.1s.9-2.4 1.7-4.2l9.4-20.6h3.6l2.5 31.2c.1.8.4 1.1 1.1 1.1h1.9v3.1h-3.4c-2.2 0-2.9-.9-3.1-3.1l-1.7-21.5c-.2-1.9-.2-4.9-.2-4.9h-.1s-1 3.1-1.8 4.9l-8.4 18h-3.2l-8.4-18c-.8-1.8-1.9-5-1.9-5h-.1s0 3.1-.2 5l-1.7 21.5c-.2 2.2-.9 3.1-3.1 3.1h-3.4v-3.1zm64-32.9c10 0 18 7.9 18 18.1 0 10.4-8 18.5-18 18.5-10.1 0-18-8.2-18-18.5-.1-10.2 7.9-18.1 18-18.1zm0 33.3c7.9 0 14.4-6.7 14.4-15.2 0-8.4-6.5-14.8-14.4-14.8-8 0-14.4 6.4-14.4 14.8 0 8.5 6.4 15.2 14.4 15.2zm44-29.6h-3.3v-3.1h20.3c2.2 0 3.1.9 3.1 3.1v3.5h-3.3v-2.4c0-.8-.4-1.1-1.1-1.1h-12.1v12.9h13.3v3.1h-13.3v12c0 .8.4 1.1 1.1 1.1h12.4c.7 0 1.1-.4 1.1-1.1v-2.4h3.3v3.5c0 2.2-.9 3.1-3.1 3.1h-15.3c-2.2 0-3.1-.9-3.1-3.1v-29.1zm60.9-3.7c5 0 13.3 2.2 13.3 7.5v2.9h-3.3v-2c0-3.3-5.7-5.1-9.8-5.1-7.9 0-13.9 6.1-13.9 14.7 0 8.5 6 15.3 14.1 15.3 7.3 0 11.6-5 11.6-5l2 2.6s-4.9 5.7-13.7 5.7c-10.4 0-17.7-8.3-17.7-18.6-.1-10.2 7.4-18 17.4-18zm20.4 32.9h3.3v-29.2h-3.3v-3.1h10.1v3.1h-3.4v29.2h3.4v3.1h-10.1v-3.1zm28.8-29.2h-8.8c-.7 0-1.1.3-1.1 1.1v2.4h-3.2v-3.7c0-2.2.7-2.9 2.9-2.9h24c2.2 0 2.9.7 2.9 2.9v3.7h-3.3v-2.4c0-.8-.4-1.1-1.1-1.1h-8.7v32.3h-3.5v-32.3zm33.8 0h-8.8c-.7 0-1.1.3-1.1 1.1v2.4h-3.2v-3.7c0-2.2.7-2.9 2.9-2.9h24c2.2 0 2.9.7 2.9 2.9v3.7h-3.4v-2.4c0-.8-.4-1.1-1.1-1.1h-8.7v32.3h-3.5v-32.3zm16.1 29.2h.7c.9 0 1.5-.2 1.8-1.1l11.6-31.2h3.8l11.6 31.2c.4 1 .9 1.1 1.8 1.1h.6v3.1h-1.6c-2.5 0-3.3-.5-4.2-2.9l-3.1-8.4h-14.1l-3.1 8.4c-.9 2.4-1.6 2.9-4.1 2.9h-1.7v-3.1zm22-11.3l-4.7-12.6c-.6-1.7-1.4-4.6-1.4-4.6h-.1s-.8 2.9-1.4 4.6l-4.6 12.6h12.2zm18.4-17.9h-3.2v-3.1h14.2c10.7 0 17.8 6.5 17.8 17.7 0 11.3-7.1 17.7-17.8 17.7h-7.9c-2.2 0-3.1-.9-3.1-3.1v-29.2zm4.7 29.2h5.9c8.7 0 14.5-5.1 14.5-14.6 0-9.4-5.8-14.6-14.5-14.6h-7.1v28.1c.1.7.5 1.1 1.2 1.1zm30.8 0h3.3v-29.2h-3.3v-3.1h10.1v3.1h-3.4v29.2h3.4v3.1h-10.1v-3.1zm17.1 0h2.2c.7 0 1.1-.4 1.1-1.1v-31.2h3.2l18.1 25.2c1.2 1.8 2.9 4.6 2.9 4.6h.1s-.3-2.8-.3-4.6v-22.2c0-2.2.9-3.1 3.1-3.1h3.7v3.1h-2.2c-.7 0-1.1.4-1.1 1.1v31.2h-3.2l-18.1-25.2c-1.3-1.7-2.9-4.6-2.9-4.6h-.1s.3 2.7.3 4.6v22.2c0 2.2-.9 3.1-3.1 3.1h-3.7v-3.1zm41 0h3.3v-29.2h-3.3v-3.1h10.1v3.1h-3.4v29.2h3.4v3.1h-10.1v-3.1z"/></svg>