<svg id="Livello_1" xmlns="http://www.w3.org/2000/svg" viewBox="0 0 892 278"><style>.st0,.st1{fill:#72c2e1}.st1{fill-rule:evenodd;clip-rule:evenodd}.st2{fill:#fff}</style><path class="st0" d="M756.5 236.6c0-.6.4-1 1-1s1 .4 1 1c0 .5-.4 1-1 1-.5 0-1-.5-1-1zm-5 0c0-.6.4-1 1-1s1 .4 1 1c0 .5-.4 1-1 1-.5 0-1-.5-1-1zm-5 0c0-.6.5-1 1-1 .6 0 1 .4 1 1 0 .5-.4 1-1 1-.5 0-1-.5-1-1zm-5 0c0-.6.4-1 1-1s1 .4 1 1c0 .5-.4 1-1 1-.5 0-1-.5-1-1zm-5 0c0-.6.5-1 1-1 .6 0 1 .4 1 1 0 .5-.4 1-1 1-.5 0-1-.5-1-1zm-5 0c0-.6.4-1 1-1s1 .4 1 1c0 .5-.4 1-1 1-.5 0-1-.5-1-1zm-5 0c0-.6.4-1 1-1s1 .4 1 1c0 .5-.4 1-1 1-.5 0-1-.5-1-1zm-5 0c0-.6.4-1 1-1s1 .4 1 1c0 .5-.4 1-1 1-.5 0-1-.5-1-1zm-5 0c0-.6.4-1 1-1s1 .4 1 1c0 .5-.4 1-1 1-.5 0-1-.5-1-1zm-5 0c0-.6.5-1 1-1 .6 0 1 .4 1 1 0 .5-.4 1-1 1-.5 0-1-.5-1-1zm-5 0c0-.6.4-1 1-1s1 .4 1 1c0 .5-.4 1-1 1-.5 0-1-.5-1-1zm-5 0c0-.6.5-1 1-1 .6 0 1 .4 1 1 0 .5-.4 1-1 1-.5 0-1-.5-1-1zm-5 0c0-.6.4-1 1-1s1 .4 1 1c0 .5-.4 1-1 1-.5 0-1-.5-1-1zm-5 0c0-.6.4-1 1-1s1 .4 1 1c0 .5-.4 1-1 1-.5 0-1-.5-1-1zm-5 0c0-.6.4-1 1-1s1 .4 1 1c0 .5-.4 1-1 1-.5 0-1-.5-1-1zm-5 0c0-.6.4-1 1-1s1 .4 1 1c0 .5-.4 1-1 1-.5 0-1-.5-1-1zm-5 0c0-.6.5-1 1-1 .6 0 1 .4 1 1 0 .5-.4 1-1 1-.5 0-1-.5-1-1zm-50 0c0-.6.4-1 1-1s1 .4 1 1c0 .5-.4 1-1 1-.5 0-1-.5-1-1zm-5 0c0-.6.4-1 1-1s1 .4 1 1c0 .5-.4 1-1 1-.5 0-1-.5-1-1zm-5 0c0-.6.4-1 1-1s1 .4 1 1c0 .5-.4 1-1 1-.5 0-1-.5-1-1zm-5 0c0-.6.4-1 1-1s1 .4 1 1c0 .5-.4 1-1 1-.5 0-1-.5-1-1zm-5 0c0-.6.4-1 1-1s1 .4 1 1c0 .5-.4 1-1 1-.5 0-1-.5-1-1zm-5 0c0-.6.4-1 1-1s1 .4 1 1c0 .5-.4 1-1 1-.5 0-1-.5-1-1zm-5 0c0-.6.4-1 1-1s1 .4 1 1c0 .5-.4 1-1 1-.5 0-1-.5-1-1zm-5 0c0-.6.5-1 1-1 .6 0 1 .4 1 1 0 .5-.4 1-1 1-.5 0-1-.5-1-1zm-5 0c0-.6.4-1 1-1s1 .4 1 1c0 .5-.4 1-1 1-.5 0-1-.5-1-1zm-5 0c0-.6.4-1 1-1s1 .4 1 1c0 .5-.4 1-1 1-.5 0-1-.5-1-1zm-5 0c0-.6.4-1 1-1s1 .4 1 1c0 .5-.4 1-1 1-.5 0-1-.5-1-1zm-5 0c0-.6.4-1 1-1s1 .4 1 1c0 .5-.4 1-1 1-.5 0-1-.5-1-1zm-5 0c0-.6.4-1 1-1s1 .4 1 1c0 .5-.4 1-1 1-.5 0-1-.5-1-1zm-5 0c0-.6.4-1 1-1s1 .4 1 1c0 .5-.4 1-1 1-.5 0-1-.5-1-1zm-5 0c0-.6.4-1 1-1s1 .4 1 1c0 .5-.4 1-1 1-.5 0-1-.5-1-1zm-5 0c0-.6.4-1 1-1s1 .4 1 1c0 .5-.4 1-1 1-.5 0-1-.5-1-1zm-5 0c0-.6.4-1 1-1s1 .4 1 1c0 .5-.4 1-1 1-.5 0-1-.5-1-1zm-5 0c0-.6.4-1 1-1s1 .4 1 1c0 .5-.4 1-1 1-.5 0-1-.5-1-1zm-5 0c0-.6.4-1 1-1s1 .4 1 1c0 .5-.4 1-1 1-.5 0-1-.5-1-1zm-5 0c0-.6.5-1 1-1 .6 0 1 .4 1 1 0 .5-.4 1-1 1-.5 0-1-.5-1-1zm-5 0c0-.6.4-1 1-1s1 .4 1 1c0 .5-.4 1-1 1-.5 0-1-.5-1-1zm-5 0c0-.6.4-1 1-1s1 .4 1 1c0 .5-.4 1-1 1-.5 0-1-.5-1-1zm-5 0c0-.6.4-1 1-1s1 .4 1 1c0 .5-.4 1-1 1-.5 0-1-.5-1-1zm-5 0c0-.6.4-1 1-1s1 .4 1 1c0 .5-.4 1-1 1-.5 0-1-.5-1-1zm-5 0c0-.6.4-1 1-1s1 .4 1 1c0 .5-.4 1-1 1-.5 0-1-.5-1-1zm-5 0c0-.6.4-1 1-1s1 .4 1 1c0 .5-.4 1-1 1-.5 0-1-.5-1-1zm-5 0c0-.6.4-1 1-1s1 .4 1 1c0 .5-.4 1-1 1-.5 0-1-.5-1-1zm-5 0c0-.6.4-1 1-1s1 .4 1 1c0 .5-.4 1-1 1-.5 0-1-.5-1-1zm-5 0c0-.6.4-1 1-1s1 .4 1 1c0 .5-.4 1-1 1-.5 0-1-.5-1-1zm-5 0c0-.6.4-1 1-1s1 .4 1 1c0 .5-.4 1-1 1-.5 0-1-.5-1-1zm-5 0c0-.6.4-1 1-1s1 .4 1 1c0 .5-.4 1-1 1-.5 0-1-.5-1-1zm-5 0c0-.6.4-1 1-1s1 .4 1 1c0 .5-.4 1-1 1-.5 0-1-.5-1-1zm-5 0c0-.6.4-1 1-1s1 .4 1 1c0 .5-.4 1-1 1-.5 0-1-.5-1-1zm-50 0c0-.6.4-1 1-1s1 .4 1 1c0 .5-.4 1-1 1-.5 0-1-.5-1-1zm-5 0c0-.6.4-1 1-1s1 .4 1 1c0 .5-.4 1-1 1-.5 0-1-.5-1-1zm-5 0c0-.6.4-1 1-1s1 .4 1 1c0 .5-.4 1-1 1-.5 0-1-.5-1-1zm-5 0c0-.6.4-1 1-1s1 .4 1 1c0 .5-.4 1-1 1-.5 0-1-.5-1-1zm-5 0c0-.6.4-1 1-1s1 .4 1 1c0 .5-.4 1-1 1-.5 0-1-.5-1-1zm-5 0c0-.6.4-1 1-1s1 .4 1 1c0 .5-.4 1-1 1-.5 0-1-.5-1-1zm-5 0c0-.6.4-1 1-1s1 .4 1 1c0 .5-.4 1-1 1-.5 0-1-.5-1-1zm-5 0c0-.6.4-1 1-1s1 .4 1 1c0 .5-.4 1-1 1-.5 0-1-.5-1-1zm-5 0c0-.6.4-1 1-1s1 .4 1 1c0 .5-.4 1-1 1-.5 0-1-.5-1-1zm-5 0c0-.6.4-1 1-1s1 .4 1 1c0 .5-.4 1-1 1-.5 0-1-.5-1-1zm-5 0c0-.6.4-1 1-1s1 .4 1 1c0 .5-.4 1-1 1-.5 0-1-.5-1-1zm-5 0c0-.6.4-1 1-1s1 .4 1 1c0 .5-.4 1-1 1-.5 0-1-.5-1-1zm-5 0c0-.6.4-1 1-1s1 .4 1 1c0 .5-.4 1-1 1-.5 0-1-.5-1-1zm-5 0c0-.6.4-1 1-1s1 .4 1 1c0 .5-.4 1-1 1-.5 0-1-.5-1-1zm-5 0c0-.6.4-1 1-1s1 .4 1 1c0 .5-.4 1-1 1-.5 0-1-.5-1-1zm-5 0c0-.6.4-1 1-1s1 .4 1 1c0 .5-.4 1-1 1-.5 0-1-.5-1-1zm-5 0c0-.6.4-1 1-1s1 .4 1 1c0 .5-.4 1-1 1-.5 0-1-.5-1-1zm-5 0c0-.6.4-1 1-1s1 .4 1 1c0 .5-.4 1-1 1-.5 0-1-.5-1-1zm-5 0c0-.6.4-1 1-1s1 .4 1 1c0 .5-.4 1-1 1-.5 0-1-.5-1-1zm-5 0c0-.6.4-1 1-1s1 .4 1 1c0 .5-.4 1-1 1-.5 0-1-.5-1-1zm-5 0c0-.6.4-1 1-1s1 .4 1 1c0 .5-.4 1-1 1-.5 0-1-.5-1-1zm-5 0c0-.6.4-1 1-1s1 .4 1 1c0 .5-.4 1-1 1-.5 0-1-.5-1-1zm-5 0c0-.6.4-1 1-1s1 .4 1 1c0 .5-.4 1-1 1-.5 0-1-.5-1-1zm-5 0c0-.6.4-1 1-1s1 .4 1 1c0 .5-.4 1-1 1-.5 0-1-.5-1-1zm-5 0c0-.6.4-1 1-1s1 .4 1 1c0 .5-.4 1-1 1-.5 0-1-.5-1-1zm-5 0c0-.6.4-1 1-1s1 .4 1 1c0 .5-.4 1-1 1-.5 0-1-.5-1-1zm-5 0c0-.6.4-1 1-1s1 .4 1 1c0 .5-.4 1-1 1-.5 0-1-.5-1-1zm-5 0c0-.6.4-1 1-1s1 .4 1 1c0 .5-.4 1-1 1-.5 0-1-.5-1-1zm-5 0c0-.6.4-1 1-1s1 .4 1 1c0 .5-.4 1-1 1-.5 0-1-.5-1-1zm-5 0c0-.6.4-1 1-1s1 .4 1 1c0 .5-.4 1-1 1-.5 0-1-.5-1-1zm-5 0c0-.6.4-1 1-1s1 .4 1 1c0 .5-.4 1-1 1-.5 0-1-.5-1-1zm-5 0c0-.6.4-1 1-1s1 .4 1 1c0 .5-.4 1-1 1-.5 0-1-.5-1-1zm-5 0c0-.6.4-1 1-1s1 .4 1 1c0 .5-.4 1-1 1-.5 0-1-.5-1-1zm-50 0c0-.6.5-1 1-1 .6 0 1 .4 1 1 0 .5-.4 1-1 1-.5 0-1-.5-1-1zm-5 0c0-.6.4-1 1-1s1 .4 1 1c0 .5-.4 1-1 1-.5 0-1-.5-1-1zm-5 0c0-.6.4-1 1-1s1 .4 1 1c0 .5-.4 1-1 1-.5 0-1-.5-1-1zm-5 0c0-.6.4-1 1-1s1 .4 1 1c0 .5-.4 1-1 1-.5 0-1-.5-1-1zm-5 0c0-.6.4-1 1-1s1 .4 1 1c0 .5-.4 1-1 1-.5 0-1-.5-1-1zm-5 0c0-.6.4-1 1-1s1 .4 1 1c0 .5-.4 1-1 1-.5 0-1-.5-1-1zm-5 0c0-.6.4-1 1-1s1 .4 1 1c0 .5-.4 1-1 1-.5 0-1-.5-1-1zm-5 0c0-.6.4-1 1-1s1 .4 1 1c0 .5-.4 1-1 1-.5 0-1-.5-1-1zm-5 0c0-.6.4-1 1-1s1 .4 1 1c0 .5-.4 1-1 1-.5 0-1-.5-1-1zm-5 0c0-.6.4-1 1-1s1 .4 1 1c0 .5-.4 1-1 1-.5 0-1-.5-1-1zm-5 0c0-.6.4-1 1-1s1 .4 1 1c0 .5-.4 1-1 1-.5 0-1-.5-1-1zm-5 0c0-.6.4-1 1-1s1 .4 1 1c0 .5-.4 1-1 1-.5 0-1-.5-1-1zm-5 0c0-.6.5-1 1-1 .6 0 1 .4 1 1 0 .5-.4 1-1 1-.5 0-1-.5-1-1zm-5 0c0-.6.4-1 1-1s1 .4 1 1c0 .5-.4 1-1 1-.5 0-1-.5-1-1zm-5 0c0-.6.4-1 1-1s1 .4 1 1c0 .5-.4 1-1 1-.5 0-1-.5-1-1zm-5 0c0-.6.4-1 1-1s1 .4 1 1c0 .5-.4 1-1 1-.5 0-1-.5-1-1zm-4 .9c-.5 0-1-.4-1-1 0-.5.5-1 1-1 .6 0 1 .5 1 1 0 .6-.4 1-1 1zm634-1c0-.5.4-1 1-1 .5 0 1 .4 1 1 0 .5-.4 1-1 1-.5 0-.9-.4-1-1zm-640-.2c0-.5.5-1 1.1-.9.6 0 1 .5.9 1 0 .5-.5 1-1 .9-.6.1-1-.4-1-1zm645 0c0-.5.4-1 .9-1.1.5 0 1 .4 1.1.9.1.5-.4 1-.9 1.1h-.1c-.5.1-.9-.3-1-.9zm-649 .7c-.6 0-1-.5-.9-1.1.1-.5.6-1 1.1-.9.6.1 1 .6.9 1.1-.1.5-.5.9-1.1.9zm654-1.1c-.1-.6.3-1.1.9-1.1.5-.1 1 .3 1.1.9.1.5-.3 1-.9 1.1h-.1c-.5 0-.9-.4-1-.9zm-659 .5c-.5-.1-.9-.6-.8-1.1.1-.5.6-.9 1.1-.8.6.1.9.6.8 1.1-.1.5-.5.8-1 .8h-.1zm664-1.2c-.1-.5.3-1.1.8-1.2.6-.1 1.1.3 1.2.8.1.5-.3 1.1-.8 1.2h-.2c-.5 0-1-.3-1-.8zm-669 .3c-.5-.1-.9-.6-.8-1.2.1-.5.6-.9 1.2-.8.5.1.9.6.8 1.2-.1.5-.5.8-1 .8h-.2zm673.9-1.2c-.1-.5.2-1.1.8-1.2.5-.1 1.1.2 1.2.8.1.5-.2 1.1-.8 1.2h-.2c-.5 0-.9-.4-1-.8zm-678.8.1c-.5-.1-.9-.7-.7-1.2.1-.5.7-.9 1.2-.7.5.1.9.7.7 1.2-.1.5-.5.8-1 .8-.1-.1-.2-.1-.2-.1zm683.6-1.3c-.1-.5.2-1.1.7-1.2.5-.2 1.1.2 1.2.7.1.5-.2 1.1-.7 1.2h-.3c-.3.1-.7-.2-.9-.7zM97.7 233c-.5-.2-.8-.7-.7-1.2.2-.5.7-.8 1.2-.7.5.2.8.7.7 1.2-.1.4-.5.7-1 .7 0 .1-.1.1-.2 0zm693.3-1.3c-.2-.5.1-1.1.6-1.3.5-.2 1.1.1 1.3.6.2.5-.1 1.1-.6 1.3h-.3c-.4.1-.8-.1-1-.6zm-698.1-.2c-.5-.2-.8-.8-.6-1.3.2-.5.8-.8 1.3-.6.5.2.8.8.6 1.3-.1.4-.5.7-.9.7-.2-.1-.3-.1-.4-.1zm702.9-1.4c-.2-.5.1-1.1.6-1.3.5-.2 1.1.1 1.3.6.2.5-.1 1.1-.6 1.3-.1 0-.2.1-.4.1-.4 0-.8-.3-.9-.7zm-707.6-.4c-.5-.2-.8-.8-.6-1.3.2-.5.8-.8 1.3-.5.5.2.8.8.5 1.3-.2.4-.5.6-.9.6-.1-.1-.2-.1-.3-.1zm712.2-1.4c-.2-.5 0-1.1.5-1.3.5-.2 1.1 0 1.3.5.2.5 0 1.1-.5 1.3-.1.1-.3.1-.4.1-.3 0-.7-.2-.9-.6zm-716.8-.7c-.5-.2-.7-.8-.5-1.3.2-.5.8-.7 1.3-.5.5.2.7.8.5 1.3-.2.4-.5.6-.9.6-.1 0-.3 0-.4-.1zm721.4-1.4c-.2-.5 0-1.1.5-1.3.5-.2 1.1 0 1.3.4.2.5 0 1.1-.4 1.3-.1.1-.3.1-.4.1-.5.1-.8-.1-1-.5zm-725.9-.8c-.5-.3-.7-.9-.4-1.3.2-.5.9-.7 1.4-.4.5.3.7.9.4 1.3-.2.3-.5.5-.9.5-.2 0-.4 0-.5-.1zm730.4-1.5c-.3-.5-.1-1.1.4-1.4.5-.3 1.1-.1 1.4.4.3.5.1 1.1-.4 1.4-.2.1-.3.1-.5.1-.4.1-.8-.1-.9-.5zM74.7 223c-.5-.3-.6-.9-.4-1.4.3-.5.9-.6 1.4-.4.5.3.6.9.4 1.4-.2.3-.5.5-.9.5-.2 0-.4-.1-.5-.1zm739.1-1.5c-.3-.5-.1-1.1.3-1.4.5-.3 1.1-.1 1.4.3.3.5.1 1.1-.3 1.4-.2.1-.4.2-.5.2-.4-.1-.7-.2-.9-.5zm-743.4-1.2c-.5-.3-.6-.9-.3-1.4.3-.5.9-.6 1.4-.3.5.3.6.9.3 1.4-.2.3-.5.5-.8.5-.3 0-.4-.1-.6-.2zm747.6-1.5c-.3-.4-.2-1.1.3-1.4.5-.3 1.1-.2 1.4.2.3.5.2 1.1-.3 1.4-.2.1-.4.2-.6.2-.3 0-.6-.2-.8-.4zm-751.8-1.4c-.4-.3-.5-1-.2-1.4.3-.5 1-.5 1.4-.2.5.3.5.9.2 1.4-.2.3-.5.4-.8.4-.2 0-.4 0-.6-.2zm755.9-1.5c-.3-.4-.2-1.1.2-1.4.4-.3 1.1-.2 1.4.2.3.4.2 1.1-.2 1.4-.2.1-.4.2-.6.2-.3 0-.6-.2-.8-.4zm-759.9-1.5c-.4-.3-.5-1-.1-1.4.3-.4 1-.5 1.4-.2.4.3.5 1 .1 1.4-.2.2-.5.4-.8.4-.2 0-.4-.1-.6-.2zm763.8-1.6c-.4-.4-.3-1.1.1-1.4.4-.4 1.1-.3 1.4.1.4.4.3 1.1-.1 1.4-.2.2-.4.2-.6.2-.3 0-.6-.1-.8-.3zm-767.6-1.7c-.4-.4-.5-1-.1-1.4.4-.4 1-.4 1.4-.1.4.4.4 1 .1 1.4-.2.2-.5.3-.8.3-.2.1-.4 0-.6-.2zm771.4-1.6c-.4-.4-.3-1 .1-1.4.4-.4 1-.3 1.4.1.4.4.4 1-.1 1.4-.2.2-.4.3-.7.3-.2 0-.5-.2-.7-.4zm-775.1-1.8c-.4-.4-.4-1 0-1.4.4-.4 1-.4 1.4 0 .4.4.4 1 0 1.4-.2.2-.5.3-.7.3-.3 0-.5-.1-.7-.3zm778.8-1.6c-.4-.4-.4-1 0-1.4.4-.4 1-.4 1.4 0 .4.4.4 1 0 1.4-.2.2-.4.3-.7.3-.3 0-.5-.1-.7-.3zm-782.4-2c-.4-.4-.4-1 0-1.4.4-.4 1-.4 1.4 0 .4.4.4 1 0 1.4-.2.2-.4.3-.7.3-.2 0-.5-.1-.7-.3zm785.8-1.6c-.4-.4-.5-1-.1-1.4.4-.4 1-.5 1.4-.1.4.4.5 1 .1 1.4-.2.2-.5.3-.8.3-.1 0-.4 0-.6-.2zm-789.1-2.2c-.4-.4-.3-1.1.1-1.4.4-.4 1.1-.3 1.4.1.4.4.3 1.1-.1 1.4-.2.2-.4.2-.6.2-.4.1-.6 0-.8-.3zm792.4-1.6c-.4-.4-.5-1-.1-1.4.4-.4 1-.5 1.4-.1.4.3.5 1 .1 1.4-.2.2-.5.4-.8.4-.2-.1-.4-.1-.6-.3zm-795.6-2.3c-.3-.4-.3-1.1.2-1.4.4-.3 1.1-.3 1.4.2.3.4.3 1.1-.2 1.4-.2.1-.4.2-.6.2-.3 0-.6-.1-.8-.4zm798.7-1.6c-.4-.3-.5-1-.2-1.4.3-.4 1-.5 1.4-.2.4.3.5 1 .2 1.4-.2.3-.5.4-.8.4-.2 0-.4-.1-.6-.2zm-801.7-2.4c-.3-.5-.2-1.1.2-1.4.4-.3 1.1-.2 1.4.2.3.5.2 1.1-.2 1.4-.2.1-.4.2-.6.2-.3 0-.6-.2-.8-.4zm804.6-1.6c-.5-.3-.6-.9-.3-1.4.3-.5.9-.6 1.4-.3.5.3.6.9.3 1.4-.2.3-.5.4-.8.4-.2 0-.4 0-.6-.1zm-807.4-2.6c-.3-.5-.2-1.1.3-1.4.5-.3 1.1-.2 1.4.3.3.5.1 1.1-.3 1.4-.2.1-.4.2-.5.2-.4-.1-.7-.2-.9-.5zm810.1-1.6c-.5-.3-.6-.9-.3-1.4.3-.5.9-.6 1.4-.3.5.3.6.9.3 1.4-.2.3-.5.5-.9.5-.1-.1-.3-.1-.5-.2zm-812.7-2.8c-.3-.5-.1-1.1.4-1.4.5-.3 1.1-.1 1.4.4.3.5.1 1.1-.4 1.4-.1.1-.3.1-.5.1-.4 0-.7-.2-.9-.5zm815.3-1.5c-.5-.3-.7-.9-.4-1.4.3-.5.9-.7 1.4-.4.5.3.7.9.4 1.4-.2.3-.5.5-.9.5-.2 0-.4-.1-.5-.1zm-817.7-2.9c-.2-.5 0-1.1.5-1.3.5-.2 1.1 0 1.3.4.2.5.1 1.1-.4 1.4-.1.1-.3.1-.4.1-.5-.1-.8-.3-1-.6zm820-1.6c-.5-.2-.7-.8-.5-1.3.2-.5.8-.7 1.3-.5.5.2.7.8.5 1.3-.2.4-.5.6-.9.6-.2 0-.3 0-.4-.1zm-822.2-3c-.2-.5 0-1.1.5-1.3.5-.2 1.1 0 1.3.5.2.5 0 1.1-.5 1.3-.1.1-.3.1-.4.1-.3 0-.7-.2-.9-.6zm824.3-1.5c-.5-.2-.8-.8-.5-1.3.2-.5.8-.8 1.3-.5.5.2.8.8.5 1.3-.2.4-.5.6-.9.6-.2 0-.3-.1-.4-.1zm-826.2-3.2c-.2-.5.1-1.1.6-1.3.5-.2 1.1 0 1.3.6.2.5-.1 1.1-.6 1.3-.1 0-.2.1-.4.1-.4 0-.8-.3-.9-.7zm828-1.4c-.5-.2-.8-.8-.6-1.3.2-.5.8-.8 1.3-.6.5.2.8.8.6 1.3-.2.4-.5.7-.9.7-.2-.1-.3-.1-.4-.1zM28 165.4c-.2-.5.1-1.1.6-1.3.5-.2 1.1.1 1.3.6.2.5-.1 1.1-.6 1.3H29c-.5.1-.9-.2-1-.6zm831.4-1.4c-.5-.2-.8-.7-.7-1.2.2-.5.7-.8 1.2-.7.5.2.8.7.7 1.3-.1.4-.5.7-1 .7 0-.1-.1-.1-.2-.1zm-832.9-3.4c-.2-.5.2-1.1.7-1.2.5-.1 1.1.2 1.2.7.1.5-.2 1.1-.7 1.2h-.3c-.4 0-.8-.3-.9-.7zm834.3-1.4c-.5-.1-.9-.7-.7-1.2.2-.5.7-.8 1.2-.7.5.1.9.7.7 1.2-.1.5-.5.8-1 .8 0-.1-.1-.1-.2-.1zm-835.6-3.5c-.1-.5.2-1.1.8-1.2.5-.1 1.1.2 1.2.8.1.5-.2 1.1-.8 1.2h-.2c-.5 0-.9-.4-1-.8zm836.8-1.4c-.5-.1-.9-.7-.8-1.2.1-.5.6-.9 1.2-.8.5.1.9.6.8 1.2-.1.5-.5.8-1 .8h-.2zm-837.8-3.6c-.1-.5.3-1.1.8-1.2.5-.1 1.1.3 1.2.8.1.6-.3 1.1-.8 1.2h-.2c-.5.1-.9-.3-1-.8zm838.7-1.3c-.5-.1-.9-.6-.8-1.1.1-.6.6-.9 1.2-.8.5.1.9.6.8 1.1-.1.5-.5.8-1 .8h-.2zm-839.5-3.6c-.1-.5.3-1 .9-1.1.5-.1 1.1.3 1.1.9.1.5-.3 1-.9 1.1h-.1c-.5-.1-.9-.4-1-.9zm840.3-1.3c-.6-.1-1-.5-.9-1.1.1-.5.6-.9 1.1-.9.5.1.9.5.9 1.1-.1.5-.5.9-1 .9h-.1zm-840.8-3.8c0-.5.4-1 .9-1.1.5 0 1 .4 1.1.9 0 .5-.4 1-.9 1.1h-.1c-.6 0-1-.3-1-.9zm841.3-1.2c-.6 0-1-.5-.9-1.1 0-.6.5-1 1.1-.9.5 0 1 .5.9 1.1-.1.5-.6.9-1.1.9zm-841.7-3.8c0-.6.4-1 1-1s1 .4 1 1-.4 1-1 1c-.5 0-.9-.5-1-1zm841.9-1.2c-.5 0-1-.5-1-1s.5-1 1-1 1 .5 1 1c0 .6-.4 1-1 1zm-840.9-2.8c-.6 0-1-.5-1-1s.5-1 1-1 1 .5 1 1-.5 1-1 1zm839.9-3.2c0-.5.4-1 1-1 .5 0 1 .4 1 1s-.4 1-1 1-1-.4-1-1zm-839.8-1.8c-.5 0-1-.5-.9-1 0-.5.5-1 1.1-1 .5 0 1 .5.9 1.1-.1.5-.5.9-1.1.9zm839.5-3.1c-.1-.6.4-1 .9-1.1.5 0 1 .4 1.1.9 0 .5-.4 1-.9 1.1h-.1c-.5 0-.9-.4-1-.9zm-839.2-1.9c-.5-.1-.9-.5-.9-1.1.1-.5.6-.9 1.1-.9.6 0 1 .5.9 1.1 0 .5-.5.9-1 .9h-.1zm838.7-3c-.1-.5.3-1 .9-1.1.6-.1 1 .3 1.1.9.1.5-.3 1-.9 1.1h-.1c-.5-.1-.9-.4-1-.9zm-838.1-2c-.5-.1-.9-.6-.8-1.1.1-.5.6-.9 1.1-.8.5.1.9.6.8 1.1-.1.5-.5.8-1 .8h-.1zm837.4-2.9c-.1-.5.3-1.1.8-1.1.5-.1 1.1.3 1.2.8.1.5-.3 1.1-.8 1.2h-.2c-.5-.1-.9-.5-1-.9zm-836.6-2c-.5-.1-.9-.6-.8-1.2.1-.5.6-.9 1.2-.8.5.1.9.6.8 1.2-.1.5-.5.8-1 .8h-.2zm835.6-2.9c-.1-.5.2-1.1.8-1.2.5-.1 1.1.2 1.2.8.1.5-.2 1.1-.8 1.2h-.2c-.5 0-.9-.3-1-.8zm-834.5-2c-.5-.1-.9-.7-.7-1.2.1-.5.7-.9 1.2-.7.5.1.9.7.7 1.2-.1.5-.5.8-1 .8 0-.1-.1-.1-.2-.1zm833.3-2.8c-.1-.5.2-1.1.7-1.2.5-.1 1.1.2 1.2.7.1.5-.2 1.1-.7 1.2h-.3c-.3 0-.7-.3-.9-.7zm-832-2c-.5-.2-.8-.7-.7-1.2.2-.5.7-.8 1.2-.7.5.2.8.7.7 1.2-.1.4-.5.7-1 .7h-.2zm830.6-2.7c-.2-.5.1-1.1.6-1.3.5-.2 1.1.1 1.3.6.2.5-.1 1.1-.6 1.3-.1 0-.2.1-.3.1-.5 0-.9-.3-1-.7zM29.2 97.3c-.5-.2-.8-.8-.6-1.3.2-.5.8-.8 1.3-.6.5.2.8.8.6 1.3-.2.4-.5.7-.9.7-.2 0-.3 0-.4-.1zm827.5-2.6c-.2-.5.1-1.1.6-1.3.5-.2 1.1.1 1.3.6.2.5-.1 1.1-.6 1.3-.1 0-.2.1-.3.1-.5-.1-.9-.3-1-.7zM31 92.6c-.5-.2-.8-.8-.5-1.3.2-.5.8-.8 1.3-.5.5.2.7.8.5 1.3-.2.4-.5.6-.9.6-.2 0-.3 0-.4-.1zm823.8-2.5c-.2-.5 0-1.1.5-1.3.5-.2 1.1 0 1.3.5.2.5 0 1.1-.5 1.3-.1.1-.3.1-.4.1-.4 0-.8-.2-.9-.6zm-821.9-2c-.5-.2-.7-.8-.5-1.3.2-.5.8-.7 1.3-.5.5.2.7.8.5 1.3-.2.4-.5.6-.9.6-.1-.1-.2-.1-.4-.1zm819.8-2.5c-.2-.5 0-1.1.5-1.3.5-.2 1.1 0 1.3.5.2.5 0 1.1-.5 1.3-.1.1-.3.1-.4.1-.4 0-.7-.3-.9-.6zm-817.6-2c-.5-.3-.7-.9-.4-1.4.3-.5.9-.7 1.4-.4.5.3.7.9.4 1.4-.2.3-.5.5-.9.5-.2 0-.3-.1-.5-.1zm815.3-2.4c-.3-.5-.1-1.1.4-1.4.5-.3 1.1-.1 1.4.4.3.5.1 1.1-.4 1.4-.2.1-.3.1-.5.1-.4 0-.7-.2-.9-.5zm-812.9-2c-.5-.3-.6-.9-.3-1.4.3-.5.9-.6 1.4-.4.5.3.6.9.4 1.4-.2.3-.5.5-.9.5-.2 0-.4 0-.6-.1zm810.4-2.3c-.3-.5-.1-1.1.3-1.4.5-.3 1.1-.1 1.4.3.3.5.1 1.1-.3 1.4-.2.1-.3.2-.5.2-.4 0-.8-.2-.9-.5zm-807.8-2c-.5-.3-.6-.9-.3-1.4.3-.5.9-.6 1.4-.3.5.3.6.9.3 1.4-.2.3-.5.5-.8.5-.2 0-.4-.1-.6-.2zm805-2.1c-.3-.5-.2-1.1.3-1.4.4-.3 1.1-.2 1.4.2.3.5.2 1.1-.3 1.4-.2.1-.4.2-.6.2-.2 0-.6-.1-.8-.4zm-802.2-2c-.4-.3-.5-.9-.2-1.4.3-.5.9-.5 1.4-.2.5.3.6.9.2 1.4-.2.3-.5.4-.8.4-.2 0-.4-.1-.6-.2zm799.3-2c-.3-.4-.2-1.1.2-1.4.4-.3 1.1-.2 1.4.2.3.4.2 1.1-.2 1.4-.2.1-.4.2-.6.2-.3 0-.6-.2-.8-.4zm-796.3-2c-.4-.3-.5-1-.2-1.4.4-.4 1-.5 1.4-.2.4.3.5 1 .1 1.4-.2.2-.5.4-.8.4-.1 0-.3-.1-.5-.2zm793.2-1.9c-.4-.4-.3-1.1.1-1.4.4-.4 1.1-.3 1.4.1.4.4.3 1.1-.1 1.4-.2.2-.4.2-.6.2-.3.1-.6-.1-.8-.3zM49.1 63c-.4-.4-.5-1-.1-1.4.4-.4 1-.5 1.4-.1.4.4.5 1 .1 1.4-.2.2-.5.3-.8.3-.2 0-.4-.1-.6-.2zm786.8-1.8c-.4-.4-.4-1 .1-1.4.4-.4 1-.3 1.4 0 .4.4.4 1-.1 1.4-.2.2-.4.3-.7.3-.3 0-.5-.1-.7-.3zM52.5 59.3c-.4-.4-.4-1 0-1.4.4-.4 1-.4 1.4 0 .4.4.4 1 0 1.4-.2.2-.5.3-.7.3-.3-.1-.5-.2-.7-.3zm779.9-1.7c-.4-.4-.4-1 0-1.4.4-.4 1-.4 1.4 0 .4.4.4 1 0 1.4-.2.2-.5.3-.7.3-.2 0-.5-.1-.7-.3zM56 55.7c-.4-.4-.4-1 0-1.4.4-.4 1-.4 1.4 0 .4.4.4 1 0 1.4-.2.2-.4.3-.7.3-.2 0-.5-.1-.7-.3zm772.8-1.4c-.4-.4-.4-1-.1-1.4.4-.4 1-.4 1.4-.1.4.4.5 1 .1 1.4-.2.2-.5.3-.7.3-.3 0-.5-.1-.7-.2zM59.7 52.4c-.4-.4-.3-1 .1-1.4.4-.4 1.1-.3 1.4.1.4.4.3 1-.1 1.4-.2.2-.4.2-.6.2-.3 0-.6-.1-.8-.3zM825.1 51c-.4-.3-.5-1-.1-1.4.3-.4 1-.5 1.4-.2.4.3.5 1 .1 1.4-.2.2-.5.4-.8.4-.2.1-.5 0-.6-.2zM63.6 49.2c-.3-.4-.3-1.1.2-1.4.4-.3 1.1-.3 1.4.2.3.4.3 1.1-.2 1.4-.2.1-.4.2-.6.2-.3 0-.6-.2-.8-.4zM821.1 48c-.4-.3-.5-.9-.2-1.4.3-.4 1-.5 1.4-.2.4.3.5 1 .2 1.4-.2.3-.5.4-.8.4-.2 0-.4-.1-.6-.2zM67.6 46.2c-.3-.5-.2-1.1.2-1.4.4-.3 1.1-.2 1.4.2.3.5.2 1.1-.2 1.4-.2.1-.4.2-.6.2-.3 0-.6-.1-.8-.4zm749.5-1c-.5-.3-.6-.9-.3-1.4.3-.5.9-.6 1.4-.3.5.3.6.9.3 1.4-.2.3-.5.4-.8.4-.2 0-.4 0-.6-.1zM71.7 43.4c-.3-.5-.2-1.1.3-1.4.5-.3 1.1-.1 1.4.3.3.5.1 1.1-.3 1.4-.2.1-.4.2-.5.2-.4-.1-.7-.2-.9-.5zm741.2-.9c-.5-.3-.6-.9-.3-1.4.3-.5.9-.6 1.4-.3.5.3.6.9.3 1.4-.2.3-.5.5-.9.5-.1 0-.3-.1-.5-.2zM76 40.8c-.3-.5-.1-1.1.4-1.4.5-.3 1.1-.1 1.4.4.3.5.1 1.1-.4 1.4-.2.1-.3.1-.5.1-.4 0-.7-.2-.9-.5zm732.6-.7c-.5-.3-.7-.9-.4-1.4.3-.5.9-.7 1.4-.4.5.3.7.9.4 1.4-.2.3-.5.5-.9.5-.2 0-.3 0-.5-.1zM80.4 38.4c-.2-.5-.1-1.1.4-1.3.5-.2 1.1 0 1.4.5.2.5 0 1.1-.5 1.3-.1.1-.3.1-.5.1-.3-.1-.6-.3-.8-.6zm723.8-.6c-.5-.2-.7-.8-.5-1.3.2-.5.8-.7 1.3-.5.5.2.7.8.5 1.3-.2.4-.5.6-.9.6-.1 0-.3 0-.4-.1zM84.9 36.2c-.2-.5 0-1.1.5-1.3.5-.2 1.1 0 1.3.5.2.5 0 1.1-.5 1.3-.1.1-.3.1-.4.1-.4 0-.7-.2-.9-.6zm714.8-.4c-.5-.2-.8-.8-.5-1.3.2-.5.8-.8 1.3-.5.5.2.8.8.5 1.3-.2.4-.5.6-.9.6-.1 0-.3 0-.4-.1zM89.5 34.2c-.2-.5.1-1.1.6-1.3.5-.2 1.1 0 1.3.6.2.5-.1 1.1-.6 1.3-.1 0-.2.1-.4.1-.4 0-.7-.3-.9-.7zm705.6-.2c-.5-.2-.8-.8-.6-1.3.2-.5.8-.8 1.3-.6.5.2.8.8.6 1.3-.1.4-.5.7-.9.7-.2 0-.3 0-.4-.1zM94.2 32.5c-.2-.5.1-1.1.6-1.3.5-.2 1.1.1 1.3.6.2.5-.1 1.1-.6 1.3h-.3c-.5.1-.9-.2-1-.6zm696.2 0c-.5-.2-.8-.7-.7-1.3.2-.5.7-.8 1.3-.7.5.2.8.7.7 1.2-.1.4-.5.7-1 .7-.1.1-.2.1-.3.1zM99 31c-.1-.5.2-1.1.7-1.2.5-.2 1.1.2 1.2.7.1.5-.2 1.1-.7 1.2h-.3c-.4 0-.8-.3-.9-.7zm686.6.1c-.5-.1-.9-.7-.7-1.2.1-.5.7-.8 1.2-.7.5.1.9.7.7 1.2-.1.5-.5.8-1 .8 0-.1-.1-.1-.2-.1zm-681.8-1.4c-.1-.5.2-1.1.8-1.2.5-.1 1.1.2 1.2.8.1.5-.2 1.1-.8 1.2h-.2c-.5 0-.9-.4-1-.8zm677 .3c-.5-.1-.9-.7-.8-1.2.1-.5.6-.9 1.2-.8.5.1.9.6.8 1.2-.1.5-.5.8-1 .8h-.2zm-672.1-1.4c-.1-.5.3-1.1.8-1.2.5-.1 1.1.3 1.2.8.1.5-.3 1.1-.8 1.2h-.2c-.5.1-.9-.3-1-.8zm667.3.5c-.5-.1-.9-.6-.8-1.1.1-.5.6-.9 1.1-.8.5.1.9.6.8 1.1-.1.5-.5.8-1 .8h-.1zm-662.4-1.3c-.1-.5.3-1 .9-1.1.5-.1 1 .3 1.1.9.1.5-.3 1-.9 1.1h-.1c-.5 0-.9-.4-1-.9zm657.5.6c-.6-.1-1-.5-.9-1.1.1-.5.6-.9 1.1-.9.6.1.9.5.9 1.1-.1.5-.5.9-1 .9h-.1zm-652.5-1.2c0-.5.4-1 .9-1.1.5 0 1 .4 1.1.9 0 .5-.4 1-.9 1.1h-.1c-.5.1-1-.3-1-.9zm647.5.8c-.6 0-1-.5-.9-1.1 0-.5.5-1 1.1-.9.5 0 1 .5.9 1.1-.1.5-.5.9-1.1.9.1 0 0 0 0 0zm-642.5-1.1c0-.5.4-1 1-1s1 .4 1 1c0 .5-.4 1-1 1s-1-.5-1-1zm637.6.9c-.3 0-.6-.2-.8-.4-.2.2-.5.4-.8.4-.6 0-1-.4-1-1s.4-1 1-1c.3 0 .6.2.8.4.2-.2.5-.4.8-.4.5 0 1 .5 1 1 0 .6-.5 1-1 1zm-7.6-1c0-.6.4-1 1-1 .5 0 1 .4 1 1s-.5 1-1 1c-.6 0-1-.5-1-1zm-5 0c0-.6.4-1 1-1 .5 0 1 .4 1 1s-.5 1-1 1c-.6 0-1-.5-1-1zm-5 0c0-.6.4-1 1-1 .5 0 1 .4 1 1s-.5 1-1 1c-.6 0-1-.5-1-1zm-5 0c0-.6.4-1 1-1 .5 0 1 .4 1 1s-.5 1-1 1c-.6 0-1-.5-1-1zm-5 0c0-.6.4-1 1-1 .5 0 1 .4 1 1s-.5 1-1 1c-.6 0-1-.5-1-1zm-5 0c0-.6.4-1 1-1 .5 0 1 .4 1 1s-.5 1-1 1c-.6 0-1-.5-1-1zm-5 0c0-.6.4-1 1-1 .5 0 1 .4 1 1s-.5 1-1 1c-.6 0-1-.5-1-1zm-5 0c0-.6.4-1 1-1 .5 0 1 .4 1 1s-.5 1-1 1c-.6 0-1-.5-1-1zm-5 0c0-.6.4-1 1-1 .5 0 1 .4 1 1s-.5 1-1 1c-.6 0-1-.5-1-1zm-5 0c0-.6.4-1 1-1 .5 0 1 .4 1 1s-.5 1-1 1c-.6 0-1-.5-1-1zm-5 0c0-.6.4-1 1-1 .5 0 1 .4 1 1s-.5 1-1 1c-.6 0-1-.5-1-1zm-5 0c0-.6.4-1 1-1 .5 0 1 .4 1 1s-.5 1-1 1c-.6 0-1-.5-1-1zm-5 0c0-.6.4-1 1-1 .5 0 1 .4 1 1s-.5 1-1 1c-.6 0-1-.5-1-1zm-5 0c0-.6.4-1 1-1 .5 0 1 .4 1 1s-.5 1-1 1c-.6 0-1-.5-1-1zm-5 0c0-.6.4-1 1-1 .5 0 1 .4 1 1s-.5 1-1 1c-.6 0-1-.5-1-1zm-5 0c0-.6.4-1 1-1 .5 0 1 .4 1 1s-.5 1-1 1c-.6 0-1-.5-1-1zm-5 0c0-.6.4-1 1-1 .5 0 1 .4 1 1s-.5 1-1 1c-.6 0-1-.5-1-1zm-5 0c0-.6.4-1 1-1 .5 0 1 .4 1 1s-.5 1-1 1c-.6 0-1-.5-1-1zm-5 0c0-.6.4-1 1-1 .5 0 1 .4 1 1s-.5 1-1 1c-.6 0-1-.5-1-1zm-5 0c0-.6.4-1 1-1 .5 0 1 .4 1 1s-.5 1-1 1c-.6 0-1-.5-1-1zm-5 0c0-.6.4-1 1-1 .5 0 1 .4 1 1s-.5 1-1 1c-.6 0-1-.5-1-1zm-5 0c0-.6.4-1 1-1 .5 0 1 .4 1 1s-.5 1-1 1c-.6 0-1-.5-1-1zm-5 0c0-.6.4-1 1-1 .5 0 1 .4 1 1s-.5 1-1 1c-.6 0-1-.5-1-1zm-5 0c0-.6.4-1 1-1 .5 0 1 .4 1 1s-.5 1-1 1c-.6 0-1-.5-1-1zm-5 0c0-.6.4-1 1-1 .5 0 1 .4 1 1s-.5 1-1 1c-.6 0-1-.5-1-1zm-5 0c0-.6.4-1 1-1 .5 0 1 .4 1 1s-.5 1-1 1c-.6 0-1-.5-1-1zm-5 0c0-.6.4-1 1-1 .5 0 1 .4 1 1s-.5 1-1 1c-.6 0-1-.5-1-1zm-5 0c0-.6.4-1 1-1 .5 0 1 .4 1 1s-.5 1-1 1c-.6 0-1-.5-1-1zm-5 0c0-.6.4-1 1-1 .5 0 1 .4 1 1s-.5 1-1 1c-.6 0-1-.5-1-1zm-5 0c0-.6.4-1 1-1 .5 0 1 .4 1 1s-.5 1-1 1c-.6 0-1-.5-1-1zm-5 0c0-.6.4-1 1-1 .5 0 1 .4 1 1s-.5 1-1 1c-.6 0-1-.5-1-1zm-5 0c0-.6.4-1 1-1 .5 0 1 .4 1 1s-.5 1-1 1c-.6 0-1-.5-1-1zm-5 0c0-.6.4-1 1-1 .5 0 1 .4 1 1s-.5 1-1 1c-.6 0-1-.5-1-1zm-5 0c0-.6.4-1 1-1 .5 0 1 .4 1 1s-.5 1-1 1c-.6 0-1-.5-1-1zm-5 0c0-.6.4-1 1-1 .5 0 1 .4 1 1s-.5 1-1 1c-.6 0-1-.5-1-1zm-5 0c0-.6.4-1 1-1 .5 0 1 .4 1 1s-.5 1-1 1c-.6 0-1-.5-1-1zm-5 0c0-.6.4-1 1-1 .5 0 1 .4 1 1s-.5 1-1 1c-.6 0-1-.5-1-1zm-5 0c0-.6.4-1 1-1 .5 0 1 .4 1 1s-.5 1-1 1c-.6 0-1-.5-1-1zm-5 0c0-.6.4-1 1-1 .5 0 1 .4 1 1s-.5 1-1 1c-.6 0-1-.5-1-1zm-5 0c0-.6.4-1 1-1 .5 0 1 .4 1 1s-.5 1-1 1c-.6 0-1-.5-1-1zm-5 0c0-.6.4-1 1-1 .5 0 1 .4 1 1s-.5 1-1 1c-.6 0-1-.5-1-1zm-5 0c0-.6.4-1 1-1 .5 0 1 .4 1 1s-.5 1-1 1c-.6 0-1-.5-1-1zm-5 0c0-.6.4-1 1-1 .5 0 1 .4 1 1s-.5 1-1 1c-.6 0-1-.5-1-1zm-5 0c0-.6.4-1 1-1 .5 0 1 .4 1 1s-.5 1-1 1c-.6 0-1-.5-1-1zm-5 0c0-.6.4-1 1-1 .5 0 1 .4 1 1s-.5 1-1 1c-.6 0-1-.5-1-1zm-5 0c0-.6.4-1 1-1 .5 0 1 .4 1 1s-.5 1-1 1c-.6 0-1-.5-1-1zm-5 0c0-.6.4-1 1-1 .5 0 1 .4 1 1s-.5 1-1 1c-.6 0-1-.5-1-1zm-5 0c0-.6.4-1 1-1 .5 0 1 .4 1 1s-.5 1-1 1c-.6 0-1-.5-1-1zm-5 0c0-.6.4-1 1-1 .5 0 1 .4 1 1s-.5 1-1 1c-.6 0-1-.5-1-1zm-5 0c0-.6.4-1 1-1 .5 0 1 .4 1 1s-.5 1-1 1c-.6 0-1-.5-1-1zm-5 0c0-.6.4-1 1-1 .5 0 1 .4 1 1s-.5 1-1 1c-.6 0-1-.5-1-1zm-5 0c0-.6.4-1 1-1 .5 0 1 .4 1 1s-.5 1-1 1c-.6 0-1-.5-1-1zm-5 0c0-.6.4-1 1-1 .5 0 1 .4 1 1s-.5 1-1 1c-.6 0-1-.5-1-1zm-5 0c0-.6.4-1 1-1 .5 0 1 .4 1 1s-.5 1-1 1c-.6 0-1-.5-1-1zm-5 0c0-.6.4-1 1-1 .5 0 1 .4 1 1s-.5 1-1 1c-.6 0-1-.5-1-1zm-5 0c0-.6.4-1 1-1 .5 0 1 .4 1 1s-.5 1-1 1c-.6 0-1-.5-1-1zm-5 0c0-.6.4-1 1-1 .5 0 1 .4 1 1s-.5 1-1 1c-.6 0-1-.5-1-1zm-5 0c0-.6.4-1 1-1 .5 0 1 .4 1 1s-.5 1-1 1c-.6 0-1-.5-1-1zm-5 0c0-.6.4-1 1-1 .5 0 1 .4 1 1s-.5 1-1 1c-.6 0-1-.5-1-1zm-5 0c0-.6.4-1 1-1 .5 0 1 .4 1 1s-.5 1-1 1c-.6 0-1-.5-1-1zm-5 0c0-.6.4-1 1-1 .5 0 1 .4 1 1s-.5 1-1 1c-.6 0-1-.5-1-1zm-5 0c0-.6.4-1 1-1 .5 0 1 .4 1 1s-.5 1-1 1c-.6 0-1-.5-1-1zm-5 0c0-.6.4-1 1-1 .5 0 1 .4 1 1s-.5 1-1 1c-.6 0-1-.5-1-1zm-5 0c0-.6.4-1 1-1 .5 0 1 .4 1 1s-.5 1-1 1c-.6 0-1-.5-1-1zm-5 0c0-.6.4-1 1-1 .5 0 1 .4 1 1s-.5 1-1 1c-.6 0-1-.5-1-1zm-5 0c0-.6.4-1 1-1 .5 0 1 .4 1 1s-.5 1-1 1c-.6 0-1-.5-1-1zm-5 0c0-.6.4-1 1-1 .5 0 1 .4 1 1s-.5 1-1 1c-.6 0-1-.5-1-1zm-5 0c0-.6.4-1 1-1 .5 0 1 .4 1 1s-.5 1-1 1c-.6 0-1-.5-1-1zm-5 0c0-.6.4-1 1-1 .5 0 1 .4 1 1s-.5 1-1 1c-.6 0-1-.5-1-1zm-5 0c0-.6.4-1 1-1 .5 0 1 .4 1 1s-.5 1-1 1c-.6 0-1-.5-1-1zm-5 0c0-.6.4-1 1-1 .5 0 1 .4 1 1s-.5 1-1 1c-.6 0-1-.5-1-1zm-5 0c0-.6.4-1 1-1 .5 0 1 .4 1 1s-.5 1-1 1c-.6 0-1-.5-1-1zm-5 0c0-.6.4-1 1-1 .5 0 1 .4 1 1s-.5 1-1 1c-.6 0-1-.5-1-1zm-5 0c0-.6.4-1 1-1 .5 0 1 .4 1 1s-.5 1-1 1c-.6 0-1-.5-1-1zm-5 0c0-.6.4-1 1-1 .5 0 1 .4 1 1s-.5 1-1 1c-.6 0-1-.5-1-1zm-5 0c0-.6.4-1 1-1 .5 0 1 .4 1 1s-.5 1-1 1c-.6 0-1-.5-1-1zm-5 0c0-.6.4-1 1-1 .5 0 1 .4 1 1s-.5 1-1 1c-.6 0-1-.5-1-1zm-5 0c0-.6.4-1 1-1 .5 0 1 .4 1 1s-.5 1-1 1c-.6 0-1-.5-1-1zm-5 0c0-.6.4-1 1-1 .5 0 1 .4 1 1s-.5 1-1 1c-.6 0-1-.5-1-1zm-5 0c0-.6.4-1 1-1 .5 0 1 .4 1 1s-.5 1-1 1c-.6 0-1-.5-1-1zm-5 0c0-.6.4-1 1-1 .5 0 1 .4 1 1s-.5 1-1 1c-.6 0-1-.5-1-1zm-5 0c0-.6.4-1 1-1 .5 0 1 .4 1 1s-.5 1-1 1c-.6 0-1-.5-1-1zm-5 0c0-.6.4-1 1-1 .5 0 1 .4 1 1s-.5 1-1 1c-.6 0-1-.5-1-1zm-5 0c0-.6.4-1 1-1 .5 0 1 .4 1 1s-.5 1-1 1c-.6 0-1-.5-1-1zm-5 0c0-.6.4-1 1-1 .5 0 1 .4 1 1s-.5 1-1 1c-.6 0-1-.5-1-1zm-5 0c0-.6.4-1 1-1 .5 0 1 .4 1 1s-.5 1-1 1c-.6 0-1-.5-1-1zm-5 0c0-.6.4-1 1-1 .5 0 1 .4 1 1s-.5 1-1 1c-.6 0-1-.5-1-1zm-5 0c0-.6.4-1 1-1 .5 0 1 .4 1 1s-.5 1-1 1c-.6 0-1-.5-1-1zm-5 0c0-.6.4-1 1-1 .5 0 1 .4 1 1s-.5 1-1 1c-.6 0-1-.5-1-1zm-5 0c0-.6.4-1 1-1 .5 0 1 .4 1 1s-.5 1-1 1c-.6 0-1-.5-1-1zm-5 0c0-.6.4-1 1-1 .5 0 1 .4 1 1s-.5 1-1 1c-.6 0-1-.5-1-1zm-5 0c0-.6.4-1 1-1 .5 0 1 .4 1 1s-.5 1-1 1c-.6 0-1-.5-1-1zm-5 0c0-.6.4-1 1-1 .5 0 1 .4 1 1s-.5 1-1 1c-.6 0-1-.5-1-1zm-5 0c0-.6.4-1 1-1 .5 0 1 .4 1 1s-.5 1-1 1c-.6 0-1-.5-1-1zm-5 0c0-.6.4-1 1-1 .5 0 1 .4 1 1s-.5 1-1 1c-.6 0-1-.5-1-1zm-5 0c0-.6.4-1 1-1 .5 0 1 .4 1 1s-.5 1-1 1c-.6 0-1-.5-1-1zm-5 0c0-.6.4-1 1-1 .5 0 1 .4 1 1s-.5 1-1 1c-.6 0-1-.5-1-1zm-5 0c0-.6.4-1 1-1 .5 0 1 .4 1 1s-.5 1-1 1c-.6 0-1-.5-1-1zm-5 0c0-.6.4-1 1-1 .5 0 1 .4 1 1s-.5 1-1 1c-.6 0-1-.5-1-1zm-5 0c0-.6.4-1 1-1 .5 0 1 .4 1 1s-.5 1-1 1c-.6 0-1-.5-1-1zm-5 0c0-.6.4-1 1-1 .5 0 1 .4 1 1s-.5 1-1 1c-.6 0-1-.5-1-1zm-5 0c0-.6.4-1 1-1 .5 0 1 .4 1 1s-.5 1-1 1c-.6 0-1-.5-1-1zm-5 0c0-.6.4-1 1-1 .5 0 1 .4 1 1s-.5 1-1 1c-.6 0-1-.5-1-1zm-5 0c0-.6.4-1 1-1 .5 0 1 .4 1 1s-.5 1-1 1c-.6 0-1-.5-1-1zm-5 0c0-.6.4-1 1-1 .5 0 1 .4 1 1s-.5 1-1 1c-.6 0-1-.5-1-1zm-5 0c0-.6.4-1 1-1 .5 0 1 .4 1 1s-.5 1-1 1c-.6 0-1-.5-1-1zm-5 0c0-.6.4-1 1-1 .5 0 1 .4 1 1s-.5 1-1 1c-.6 0-1-.5-1-1zm-5 0c0-.6.4-1 1-1 .5 0 1 .4 1 1s-.5 1-1 1c-.6 0-1-.5-1-1zm-5 0c0-.6.4-1 1-1 .5 0 1 .4 1 1s-.5 1-1 1c-.6 0-1-.5-1-1zm-5 0c0-.6.4-1 1-1 .5 0 1 .4 1 1s-.5 1-1 1c-.6 0-1-.5-1-1zm-5 0c0-.6.4-1 1-1 .5 0 1 .4 1 1s-.5 1-1 1c-.6 0-1-.5-1-1zm-5 0c0-.6.4-1 1-1 .5 0 1 .4 1 1s-.5 1-1 1c-.6 0-1-.5-1-1zm-5 0c0-.6.4-1 1-1 .5 0 1 .4 1 1s-.5 1-1 1c-.6 0-1-.5-1-1zm-5 0c0-.6.4-1 1-1 .5 0 1 .4 1 1s-.5 1-1 1c-.6 0-1-.5-1-1zm-5 0c0-.6.4-1 1-1 .5 0 1 .4 1 1s-.5 1-1 1c-.6 0-1-.5-1-1zm-5 0c0-.6.4-1 1-1 .5 0 1 .4 1 1s-.5 1-1 1c-.6 0-1-.5-1-1zm-5 0c0-.6.4-1 1-1 .5 0 1 .4 1 1s-.5 1-1 1c-.6 0-1-.5-1-1zm-5 0c0-.6.4-1 1-1 .5 0 1 .4 1 1s-.5 1-1 1c-.6 0-1-.5-1-1zm-5 0c0-.6.4-1 1-1 .5 0 1 .4 1 1s-.5 1-1 1c-.6 0-1-.5-1-1zm-5 0c0-.6.4-1 1-1 .5 0 1 .4 1 1s-.5 1-1 1c-.6 0-1-.5-1-1zm-5 0c0-.6.4-1 1-1 .5 0 1 .4 1 1s-.5 1-1 1c-.6 0-1-.5-1-1zm-5 0c0-.6.4-1 1-1 .5 0 1 .4 1 1s-.5 1-1 1c-.6 0-1-.5-1-1zm-5 0c0-.6.4-1 1-1 .5 0 1 .4 1 1s-.5 1-1 1c-.6 0-1-.5-1-1zm-5 0c0-.6.4-1 1-1 .5 0 1 .4 1 1s-.5 1-1 1c-.6 0-1-.5-1-1zm-5 0c0-.6.4-1 1-1 .5 0 1 .4 1 1s-.5 1-1 1c-.6 0-1-.5-1-1zm-5 0c0-.6.4-1 1-1 .5 0 1 .4 1 1s-.5 1-1 1c-.6 0-1-.5-1-1z"/><path class="st1" d="M757.9 34.3c53.4 0 96.7 43.3 96.7 96.7 0 53.4-43.3 96.7-96.7 96.7s-96.7-43.3-96.7-96.7c0-53.4 43.3-96.7 96.7-96.7zm-209.3 0c53.4 0 96.7 43.3 96.7 96.7 0 53.4-43.3 96.7-96.7 96.7s-96.7-43.3-96.7-96.7c0-53.4 43.3-96.7 96.7-96.7zm-209.3 0c53.4 0 96.7 43.3 96.7 96.7 0 53.4-43.3 96.7-96.7 96.7s-96.7-43.3-96.7-96.7c0-53.4 43.3-96.7 96.7-96.7zm-209.3 0c53.4 0 96.7 43.3 96.7 96.7 0 53.4-43.3 96.7-96.7 96.7S33.3 184.4 33.3 131c0-53.4 43.3-96.7 96.7-96.7z"/><path class="st0" d="M652.5 222.8c-6.4 0-11.6 5.2-11.6 11.6 0 6.4 5.2 11.6 11.6 11.6 6.4 0 11.6-5.2 11.6-11.6 0-6.4-5.2-11.6-11.6-11.6zm0 21.5c-5.5 0-9.9-4.5-9.9-9.9 0-5.5 4.4-9.9 9.9-9.9s9.9 4.4 9.9 9.9-4.4 9.9-9.9 9.9z"/><path class="st0" d="M672.5 229.4h-1.7c-.4-1.6-1.1-3.1-1.9-4.5l1.2-1.2c.4-.4.7-1 .7-1.6 0-.6-.2-1.2-.7-1.6l-3.8-3.8c-.9-.9-2.4-.9-3.3 0l-1.2 1.2c-1.4-.8-2.9-1.4-4.5-1.9v-1.7c0-1.3-1-2.3-2.3-2.3h-5.3c-1.3 0-2.3 1-2.3 2.3v1.7c-1.6.4-3.1 1.1-4.5 1.9l-1.2-1.2c-.9-.9-2.4-.9-3.3 0l-3.8 3.8c-.4.4-.7 1-.7 1.6 0 .6.2 1.2.7 1.6l1.2 1.2c-.8 1.4-1.4 2.9-1.9 4.5h-1.7c-1.3 0-2.3 1-2.3 2.3v5.3c0 1.3 1 2.3 2.3 2.3h1.7c.4 1.6 1.1 3.1 1.9 4.5l-1.2 1.2c-.4.4-.7 1-.7 1.6 0 .6.2 1.2.7 1.6l3.8 3.8c.9.9 2.4.9 3.3 0l1.2-1.2c1.4.8 2.9 1.4 4.5 1.9v1.7c0 1.3 1 2.3 2.3 2.3h5.3c1.3 0 2.3-1 2.3-2.3v-1.7c1.6-.4 3.1-1.1 4.5-1.9l1.2 1.2c.9.9 2.4.9 3.3 0l3.8-3.8c.4-.4.7-1 .7-1.6 0-.6-.2-1.2-.7-1.6l-1.2-1.2c.8-1.4 1.4-2.9 1.9-4.5h1.7c1.3 0 2.3-1 2.3-2.3v-5.3c0-1.2-1-2.3-2.3-2.3zm.7 7.7c0 .4-.3.6-.6.6h-3l-.1.6c-.4 1.8-1.2 3.6-2.2 5.2l-.3.6 2.1 2.1c.3.3.3.7 0 .9l-3.8 3.8c-.3.3-.7.3-.9 0l-2.1-2.1-.6.3c-1.6 1-3.4 1.7-5.2 2.2l-.6.1v3c0 .4-.3.6-.6.6H650c-.4 0-.6-.3-.6-.6v-3l-.6-.1c-1.8-.4-3.6-1.2-5.2-2.2l-.6-.3-2.1 2.1c-.3.3-.7.3-.9 0l-3.8-3.8c-.3-.3-.3-.7 0-.9l2.1-2.1-.3-.6c-1-1.6-1.7-3.4-2.2-5.2l-.1-.6h-3c-.4 0-.6-.3-.6-.6v-5.3c0-.4.3-.6.6-.6h3l.1-.6c.4-1.8 1.2-3.6 2.2-5.2l.3-.6-2.1-2.1c-.3-.3-.3-.7 0-.9l3.8-3.8c.3-.3.7-.3.9 0l2.1 2.1.6-.3c1.6-1 3.4-1.7 5.2-2.2l.6-.1v-3c0-.4.3-.6.6-.6h5.3c.4 0 .6.3.6.6v3l.6.1c1.8.4 3.6 1.2 5.2 2.2l.6.3 2.1-2.1c.3-.3.7-.3.9 0l3.8 3.8c.3.3.3.7 0 .9l-2.1 2.1.3.6c1 1.6 1.7 3.4 2.2 5.2l.1.6h3c.4 0 .6.3.6.6v5.3z"/><path class="st0" d="M652.5 226.1c-4.6 0-8.3 3.7-8.3 8.3 0 4.6 3.7 8.3 8.3 8.3 4.6 0 8.3-3.7 8.3-8.3 0-4.6-3.7-8.3-8.3-8.3zm0 14.9c-3.6 0-6.6-3-6.6-6.6 0-3.6 3-6.6 6.6-6.6 3.6 0 6.6 3 6.6 6.6 0 3.6-2.9 6.6-6.6 6.6zm-209.7-18.2c-6.4 0-11.6 5.2-11.6 11.6 0 6.4 5.2 11.6 11.6 11.6 6.4 0 11.6-5.2 11.6-11.6-.1-6.4-5.3-11.6-11.6-11.6zm0 21.5c-5.5 0-9.9-4.5-9.9-9.9 0-5.5 4.4-9.9 9.9-9.9s9.9 4.4 9.9 9.9-4.5 9.9-9.9 9.9z"/><path class="st0" d="M462.8 229.4h-1.7c-.4-1.6-1.1-3.1-1.9-4.5l1.2-1.2c.4-.4.7-1 .7-1.6 0-.6-.2-1.2-.7-1.6l-3.8-3.8c-.9-.9-2.4-.9-3.3 0l-1.2 1.2c-1.4-.8-2.9-1.4-4.5-1.9v-1.7c0-1.3-1-2.3-2.3-2.3H440c-1.3 0-2.3 1-2.3 2.3v1.7c-1.6.4-3.1 1.1-4.5 1.9l-1.2-1.2c-.9-.9-2.4-.9-3.3 0l-3.8 3.8c-.4.4-.7 1-.7 1.6 0 .6.2 1.2.7 1.6l1.2 1.2c-.8 1.4-1.4 2.9-1.9 4.5h-1.7c-1.3 0-2.3 1-2.3 2.3v5.3c0 1.3 1 2.3 2.3 2.3h1.7c.4 1.6 1.1 3.1 1.9 4.5l-1.2 1.2c-.4.4-.7 1-.7 1.6 0 .6.2 1.2.7 1.6l3.8 3.8c.9.9 2.4.9 3.3 0l1.2-1.2c1.4.8 2.9 1.4 4.5 1.9v1.7c0 1.3 1 2.3 2.3 2.3h5.3c1.3 0 2.3-1 2.3-2.3v-1.7c1.6-.4 3.1-1.1 4.5-1.9l1.2 1.2c.9.9 2.4.9 3.3 0l3.8-3.8c.4-.4.7-1 .7-1.6 0-.6-.2-1.2-.7-1.6l-1.2-1.2c.8-1.4 1.4-2.9 1.9-4.5h1.7c1.3 0 2.3-1 2.3-2.3v-5.3c0-1.2-1.1-2.3-2.3-2.3zm.6 7.7c0 .4-.3.6-.6.6h-3l-.1.6c-.4 1.8-1.2 3.6-2.2 5.2l-.3.6 2.1 2.1c.3.3.3.7 0 .9l-3.8 3.8c-.3.3-.7.3-.9 0l-2.1-2.1-.6.3c-1.6 1-3.4 1.7-5.2 2.2l-.6.1v3c0 .4-.3.6-.6.6h-5.3c-.4 0-.6-.3-.6-.6v-3l-.6-.1c-1.8-.4-3.6-1.2-5.2-2.2l-.6-.3-2.1 2.1c-.3.3-.7.3-.9 0l-3.8-3.8c-.3-.3-.3-.7 0-.9l2.1-2.1-.3-.6c-1-1.6-1.7-3.4-2.2-5.2l-.1-.6h-3c-.4 0-.6-.3-.6-.6v-5.3c0-.4.3-.6.6-.6h3l.1-.6c.4-1.8 1.2-3.6 2.2-5.2l.3-.6-2.1-2.1c-.3-.3-.3-.7 0-.9l3.8-3.8c.3-.3.7-.3.9 0l2.1 2.1.6-.3c1.6-1 3.4-1.7 5.2-2.2l.6-.1v-3c0-.4.3-.6.6-.6h5.3c.4 0 .6.3.6.6v3l.6.1c1.8.4 3.6 1.2 5.2 2.2l.6.3 2.1-2.1c.3-.3.7-.3.9 0l3.8 3.8c.3.3.3.7 0 .9l-2.1 2.1.3.6c1 1.6 1.7 3.4 2.2 5.2l.1.6h3c.4 0 .6.3.6.6v5.3z"/><path class="st0" d="M442.8 226.1c-4.6 0-8.3 3.7-8.3 8.3 0 4.6 3.7 8.3 8.3 8.3 4.6 0 8.3-3.7 8.3-8.3-.1-4.6-3.8-8.3-8.3-8.3zm0 14.9c-3.6 0-6.6-3-6.6-6.6 0-3.6 3-6.6 6.6-6.6 3.6 0 6.6 3 6.6 6.6 0 3.6-3 6.6-6.6 6.6zM233 222.8c-6.4 0-11.6 5.2-11.6 11.6 0 6.4 5.2 11.6 11.6 11.6 6.4 0 11.6-5.2 11.6-11.6 0-6.4-5.2-11.6-11.6-11.6zm0 21.5c-5.5 0-9.9-4.5-9.9-9.9 0-5.5 4.4-9.9 9.9-9.9s9.9 4.4 9.9 9.9-4.4 9.9-9.9 9.9z"/><path class="st0" d="M253 229.4h-1.7c-.4-1.6-1.1-3.1-1.9-4.5l1.2-1.2c.4-.4.7-1 .7-1.6 0-.6-.2-1.2-.7-1.6l-3.8-3.8c-.9-.9-2.4-.9-3.3 0l-1.2 1.2c-1.4-.8-2.9-1.4-4.5-1.9v-1.7c0-1.3-1-2.3-2.3-2.3h-5.3c-1.3 0-2.3 1-2.3 2.3v1.7c-1.6.4-3.1 1.1-4.5 1.9l-1.2-1.2c-.9-.9-2.4-.9-3.3 0l-3.8 3.8c-.4.4-.7 1-.7 1.6 0 .6.2 1.2.7 1.6l1.2 1.2c-.8 1.4-1.4 2.9-1.9 4.5H213c-1.3 0-2.3 1-2.3 2.3v5.3c0 1.3 1 2.3 2.3 2.3h1.7c.4 1.6 1.1 3.1 1.9 4.5l-1.2 1.2c-.4.4-.7 1-.7 1.6 0 .6.2 1.2.7 1.6l3.8 3.8c.9.9 2.4.9 3.3 0l1.2-1.2c1.4.8 2.9 1.4 4.5 1.9v1.7c0 1.3 1 2.3 2.3 2.3h5.3c1.3 0 2.3-1 2.3-2.3v-1.7c1.6-.4 3.1-1.1 4.5-1.9l1.2 1.2c.9.9 2.4.9 3.3 0l3.8-3.8c.4-.4.7-1 .7-1.6 0-.6-.2-1.2-.7-1.6l-1.2-1.2c.8-1.4 1.4-2.9 1.9-4.5h1.7c1.3 0 2.3-1 2.3-2.3v-5.3c-.3-1.2-1.3-2.3-2.6-2.3zm.7 7.7c0 .4-.3.6-.6.6h-3l-.1.6c-.4 1.8-1.2 3.6-2.2 5.2l-.3.6 2.1 2.1c.3.3.3.7 0 .9l-3.8 3.8c-.3.3-.7.3-.9 0l-2.1-2.1-.6.3c-1.6 1-3.4 1.7-5.2 2.2l-.6.1v3c0 .4-.3.6-.6.6h-5.3c-.4 0-.6-.3-.6-.6v-3l-.6-.1c-1.8-.4-3.6-1.2-5.2-2.2l-.6-.3-2.1 2.1c-.3.3-.7.3-.9 0l-3.8-3.8c-.3-.3-.3-.7 0-.9l2.1-2.1-.3-.6c-1-1.6-1.7-3.4-2.2-5.2l-.1-.6h-3c-.4 0-.6-.3-.6-.6v-5.3c0-.4.3-.6.6-.6h3l.1-.6c.4-1.8 1.2-3.6 2.2-5.2l.3-.6-2.1-2.1c-.3-.3-.3-.7 0-.9l3.8-3.8c.3-.3.7-.3.9 0l2.1 2.1.6-.3c1.6-1 3.4-1.7 5.2-2.2l.6-.1v-3c0-.4.3-.6.6-.6h5.3c.4 0 .6.3.6.6v3l.6.1c1.8.4 3.6 1.2 5.2 2.2l.6.3 2.1-2.1c.3-.3.7-.3.9 0l3.8 3.8c.3.3.3.7 0 .9l-2.1 2.1.3.6c1 1.6 1.7 3.4 2.2 5.2l.1.6h3c.4 0 .6.3.6.6v5.3z"/><path class="st0" d="M233 226.1c-4.6 0-8.3 3.7-8.3 8.3 0 4.6 3.7 8.3 8.3 8.3 4.6 0 8.3-3.7 8.3-8.3 0-4.6-3.7-8.3-8.3-8.3zm0 14.9c-3.6 0-6.6-3-6.6-6.6 0-3.6 3-6.6 6.6-6.6 3.6 0 6.6 3 6.6 6.6 0 3.6-3 6.6-6.6 6.6z"/><path class="st2" d="M77.9 78.9h-1.3v-1.2h5.9c2.5 0 4.3 1.6 4.3 4.2s-1.8 4.3-4.3 4.3h-3.2v5.5h-1.4V78.9zm4.4 6c1.9 0 3.1-1.1 3.1-3s-1.2-3-3-3h-3.1v6h3zm6.7-1.7c0-.3-.2-.4-.4-.4h-.8v-1.2h1.4c.8 0 1.2.3 1.2 1.1v1.5c.5-1.5 1.6-2.7 3.2-2.7.3 0 .5.1.5.1v1.3h-.5c-1.4 0-2.5 1.1-2.9 2.6-.2.6-.3 1.3-.3 2v4.2H89v-8.5zm11.2-1.8c2.9 0 5.3 2.2 5.3 5.2s-2.4 5.3-5.3 5.3-5.3-2.3-5.3-5.3 2.4-5.2 5.3-5.2zm0 9.2c2.1 0 3.9-1.8 3.9-4.1s-1.8-4-3.9-4c-2.2 0-3.9 1.7-3.9 4 0 2.4 1.7 4.1 3.9 4.1zm11.4-9.2c2.4 0 3.3 1.9 3.3 1.9v-4c0-.3-.2-.4-.4-.4h-.8v-1.2h1.4c.9 0 1.2.4 1.2 1.2V90c0 .3.2.4.4.4h.8v1.2h-1.4c-.8 0-1.2-.4-1.2-1.1v-.6s-.8 2-3.4 2c-2.7 0-4.4-2.2-4.4-5.3 0-3.2 1.9-5.2 4.5-5.2zm3.3 5.2c0-2-1-4-3.2-4-1.8 0-3.2 1.5-3.2 4s1.3 4 3.2 4c1.6 0 3.2-1.1 3.2-4zm4.8-3.4c0-.3-.2-.4-.4-.4h-.8v-1.2h1.4c.9 0 1.2.4 1.2 1.2v4.8c0 1.6.3 3 2.2 3 2.3 0 3.7-2 3.7-4.2v-4.8h1.4V90c0 .3.2.4.4.4h.8v1.2h-1.4c-.8 0-1.2-.4-1.2-1.1v-1.2c-.4 1-1.7 2.5-3.9 2.5-2.4 0-3.4-1.3-3.4-3.9v-4.7zm11.1 7.5l5.6-7c.4-.5.8-.9.8-.9h-4.7c-.3 0-.4.1-.4.4v.8h-1.3v-1.2c0-.9.4-1.2 1.2-1.2h6.9v.9l-5.6 7c-.4.5-.8.9-.8.9h5.1c.3 0 .4-.1.4-.4v-.8h1.3v1.2c0 .9-.4 1.2-1.2 1.2h-7.4v-.9zm11-7.5c0-.3-.2-.4-.4-.4h-.8v-1.2h1.4c.9 0 1.2.4 1.2 1.2V90c0 .3.2.4.4.4h.8v1.2H143c-.9 0-1.2-.4-1.2-1.2v-7.2zm-.1-5.6h1.3v1.7h-1.3v-1.7zm9.3 3.8c2.9 0 5.3 2.2 5.3 5.2s-2.4 5.3-5.3 5.3-5.3-2.3-5.3-5.3 2.4-5.2 5.3-5.2zm0 9.2c2.1 0 3.9-1.8 3.9-4.1s-1.8-4-3.9-4c-2.2 0-3.9 1.7-3.9 4 0 2.4 1.8 4.1 3.9 4.1zm7.8-7.4c0-.3-.2-.4-.4-.4h-.8v-1.2h1.4c.8 0 1.2.4 1.2 1.1v1.2c.4-.9 1.6-2.5 4-2.5 2.5 0 3.4 1.4 3.4 3.9V90c0 .3.2.4.4.4h.8v1.2h-1.4c-.9 0-1.2-.4-1.2-1.2v-4.8c0-1.6-.2-3-2.2-3-1.7 0-3.2 1.2-3.6 2.8-.1.4-.2.9-.2 1.4v4.8h-1.4v-8.4zm12.2 0c0-.3-.2-.4-.4-.4h-.8v-1.2h1.4c.9 0 1.2.4 1.2 1.2V90c0 .3.2.4.4.4h.8v1.2h-1.4c-.9 0-1.2-.4-1.2-1.2v-7.2zm0-5.6h1.3v1.7H171v-1.7zm-88.3 27.5c0-.3-.2-.4-.4-.4h-.8v-1.2h1.4c.9 0 1.2.4 1.2 1.1v.7s.8-2 3.4-2c2.7 0 4.4 2.2 4.4 5.3 0 3.2-1.9 5.2-4.5 5.2-2.4 0-3.3-1.9-3.3-1.9v5.7h-1.4v-12.5zm4.5 7.5c1.8 0 3.2-1.5 3.2-4 0-2.4-1.3-4-3.2-4-1.7 0-3.2 1.2-3.2 4 .1 2 1.1 4 3.2 4zm7.3-7.5c0-.3-.2-.4-.4-.4h-.8v-1.2h1.4c.9 0 1.2.4 1.2 1.2v7.2c0 .3.2.4.4.4h.8v1.2h-1.4c-.9 0-1.2-.4-1.2-1.2v-7.2zm0-5.6h1.3v1.7h-1.3v-1.7zm4.9 5.6c0-.3-.2-.4-.4-.4h-.8v-1.2h1.4c.9 0 1.2.4 1.2 1.2v4.8c0 1.6.3 3 2.2 3 2.3 0 3.7-2 3.7-4.2v-4.8h1.4v8.4c0 .3.2.4.4.4h.8v1.2h-1.4c-.8 0-1.2-.4-1.2-1.1v-1.1c-.4 1-1.7 2.5-3.9 2.5-2.4 0-3.4-1.3-3.4-3.9v-4.8zm1.8-5.6h1.5l1.4 2.4H103l-1.8-2.4zm15.1 5.6c-.1-.4-.3-.5-.7-.5h-.2v-1.2h.5c1 0 1.3.2 1.6 1.1l2.4 6.3c.2.5.3 1.2.3 1.2s.2-.7.3-1.2l2.4-6.3c.3-.9.6-1.1 1.6-1.1h.5v1.2c-.4 0-.6.1-.7.5l-3.3 8.4h-1.5l-3.2-8.4zm11 0c0-.3-.2-.4-.4-.4h-.9v-1.2h1.4c.9 0 1.2.4 1.2 1.2v7.2c0 .3.2.4.4.4h.8v1.2h-1.4c-.9 0-1.2-.4-1.2-1.2v-7.2zm-.1-5.6h1.3v1.7h-1.3v-1.7zm9.3 3.8c1.1 0 3.6.5 3.6 2.1v.9h-1.3v-.6c0-.8-1.5-1.2-2.3-1.2-2.2 0-3.9 1.6-3.9 4 0 2.5 1.8 4 3.9 4 2.1 0 3.2-1.4 3.2-1.4l.6 1s-1.4 1.6-3.9 1.6c-3 0-5.3-2.1-5.3-5.2.1-3 2.4-5.2 5.4-5.2zm6.3 1.8c0-.3-.2-.4-.4-.4h-.8v-1.2h1.4c.9 0 1.2.4 1.2 1.2v7.2c0 .3.2.4.4.4h.8v1.2H144c-.9 0-1.2-.4-1.2-1.2v-7.2zm-.1-5.6h1.3v1.7h-1.3v-1.7zm5 5.6c0-.3-.2-.4-.4-.4h-.8v-1.2h1.4c.8 0 1.2.4 1.2 1.1v1.2c.4-.9 1.6-2.5 4-2.5 2.5 0 3.4 1.4 3.4 3.9v4.8c0 .3.2.4.4.4h.8v1.2h-1.4c-.9 0-1.2-.4-1.2-1.2v-4.8c0-1.6-.2-3-2.2-3-1.7 0-3.2 1.2-3.6 2.8-.1.4-.2.9-.2 1.4v4.8h-1.4v-8.5zm16.1-1.8c2.8 0 4.2 2.1 4.2 4.6v.7h-7.7c0 2.5 1.8 4 3.9 4 1.8 0 3-1.2 3-1.2l.7 1s-1.5 1.4-3.7 1.4c-3 0-5.2-2.2-5.2-5.2-.2-3.4 2.1-5.3 4.8-5.3zm2.8 4.2c-.1-2.1-1.4-3.1-2.8-3.1-1.7 0-3.1 1.1-3.4 3.1h6.2zM63.7 129.3h.6v-.1c0-2.1-.8-2.8-2.6-2.8-.5 0-2 .1-2 .9v.6h-1.3v-1c0-1.4 2.4-1.7 3.3-1.7 3.2 0 3.9 1.7 3.9 3.8v4.8c0 .3.2.4.4.4h.8v1.2h-1.4c-.9 0-1.2-.4-1.2-1.2v-.7s-.8 2.2-3.3 2.2c-1.7 0-3.4-1-3.4-3 .1-3.3 4.5-3.4 6.2-3.4zm-2.5 5.2c1.9 0 3.1-2 3.1-3.7v-.5h-.6c-1.6 0-4.7 0-4.7 2.3 0 1 .7 1.9 2.2 1.9zm7.9-7.5c0-.3-.2-.4-.4-.4h-.8v-1.2h1.4c.9 0 1.2.4 1.2 1.2v7.2c0 .3.2.4.4.4h.8v1.2h-1.4c-.9 0-1.2-.4-1.2-1.2V127zm0-5.6h1.3v1.7h-1.3v-1.7zm14.7 3.8c1.1 0 3.6.5 3.6 2.1v.9h-1.3v-.6c0-.8-1.5-1.2-2.3-1.2-2.2 0-3.9 1.6-3.9 4 0 2.5 1.8 4 3.9 4 2.1 0 3.2-1.4 3.2-1.4l.6 1s-1.4 1.6-3.9 1.6c-3 0-5.3-2.1-5.3-5.2.1-3 2.4-5.2 5.4-5.2zm10.5 0c2.9 0 5.3 2.2 5.3 5.2s-2.4 5.3-5.3 5.3-5.3-2.3-5.3-5.3 2.4-5.2 5.3-5.2zm0 9.2c2.1 0 3.9-1.8 3.9-4.1s-1.8-4-3.9-4c-2.2 0-3.9 1.7-3.9 4 0 2.4 1.8 4.1 3.9 4.1zm7.8-7.4c0-.3-.2-.4-.4-.4h-.8v-1.2h1.4c.8 0 1.2.4 1.2 1.1v1.2c.4-.9 1.6-2.5 4-2.5 2.5 0 3.4 1.4 3.4 3.9v4.8c0 .3.2.4.4.4h.8v1.2h-1.4c-.9 0-1.2-.4-1.2-1.2v-4.8c0-1.6-.2-3-2.2-3-1.7 0-3.2 1.2-3.6 2.8-.1.4-.2.9-.2 1.4v4.8h-1.4V127zm11.8 6s1.1 1.5 3.1 1.5c1.1 0 2.1-.5 2.1-1.6 0-2.2-5.6-1.8-5.6-5 0-1.8 1.6-2.7 3.6-2.7 1 0 3 .4 3 1.8v.9h-1.3v-.5c0-.7-1.1-1-1.7-1-1.4 0-2.2.5-2.2 1.5 0 2.3 5.6 1.7 5.6 5.1 0 1.7-1.5 2.8-3.5 2.8-2.6 0-3.8-1.8-3.8-1.8l.7-1zm9.1-6c0-.3-.2-.4-.4-.4h-.8v-1.2h1.4c.9 0 1.2.4 1.2 1.2v4.8c0 1.6.3 3 2.2 3 2.3 0 3.7-2 3.7-4.2v-4.8h1.4v8.4c0 .3.2.4.4.4h.8v1.2h-1.4c-.8 0-1.2-.4-1.2-1.1v-1.2c-.4 1-1.7 2.5-3.9 2.5-2.4 0-3.4-1.3-3.4-3.9V127zm12 0c0-.3-.2-.4-.4-.4h-.8v-1.2h1.4c.8 0 1.2.4 1.2 1.1v1.2c.5-1.4 2.1-2.5 3.6-2.5 1.9 0 2.8.9 3.1 2.5.5-1.4 2-2.5 3.7-2.5 2.4 0 3.3 1.4 3.3 3.9v4.8c0 .3.2.4.4.4h.8v1.2H150c-.9 0-1.2-.4-1.2-1.2v-4.8c0-1.6-.3-3-2.2-3-1.5 0-2.8 1.4-3.2 2.8-.1.4-.2.9-.2 1.5v4.7h-1.4v-6c0-1.5-.2-3-2.1-3-1.6 0-2.8 1.4-3.3 2.9-.1.4-.2.9-.2 1.3v4.7H135V127zm23.7 2.3h.6v-.1c0-2.1-.8-2.8-2.6-2.8-.5 0-2 .1-2 .9v.6h-1.3v-1c0-1.4 2.4-1.7 3.3-1.7 3.2 0 3.9 1.7 3.9 3.8v4.8c0 .3.2.4.4.4h.8v1.2h-1.4c-.9 0-1.2-.4-1.2-1.2v-.7s-.8 2.2-3.3 2.2c-1.7 0-3.4-1-3.4-3 .1-3.3 4.5-3.4 6.2-3.4zm-2.5 5.2c1.9 0 3.1-2 3.1-3.7v-.5h-.6c-1.6 0-4.7 0-4.7 2.3 0 1 .7 1.9 2.2 1.9zm8-8h-1.3v-1.1h1.3v-2.8h1.3v2.8h2.5v1.1h-2.5v5.1c0 2.3 1.5 2.6 2.3 2.6h.5v1.2h-.6c-1.2 0-3.5-.4-3.5-3.7v-5.2zm10.7-1.3c2.9 0 5.3 2.2 5.3 5.2s-2.4 5.3-5.3 5.3-5.3-2.3-5.3-5.3 2.4-5.2 5.3-5.2zm0 9.2c2.1 0 3.9-1.8 3.9-4.1s-1.8-4-3.9-4c-2.2 0-3.9 1.7-3.9 4 0 2.4 1.7 4.1 3.9 4.1zm7.8-7.4c0-.3-.2-.4-.4-.4h-.8v-1.2h1.4c.8 0 1.2.3 1.2 1.1v1.5c.5-1.5 1.6-2.7 3.2-2.7.3 0 .5.1.5.1v1.3h-.5c-1.4 0-2.5 1.1-2.9 2.6-.2.6-.3 1.3-.3 2v4.2h-1.4V127zm7.3 0c0-.3-.2-.4-.4-.4h-.8v-1.2h1.4c.9 0 1.2.4 1.2 1.2v7.2c0 .3.2.4.4.4h.8v1.2h-1.4c-.9 0-1.2-.4-1.2-1.2V127zm0-5.6h1.3v1.7H190v-1.7zM73.3 147.1c1.1 0 3.6.5 3.6 2.1v.9h-1.3v-.6c0-.8-1.5-1.2-2.3-1.2-2.2 0-3.9 1.6-3.9 4 0 2.5 1.8 4 3.9 4 2.1 0 3.2-1.4 3.2-1.4l.6 1s-1.4 1.6-3.9 1.6c-3 0-5.3-2.1-5.3-5.2.2-3 2.4-5.2 5.4-5.2zm10.5 0c2.9 0 5.3 2.2 5.3 5.2s-2.4 5.3-5.3 5.3-5.3-2.3-5.3-5.3c.1-3 2.4-5.2 5.3-5.2zm.1 9.2c2.1 0 3.9-1.8 3.9-4.1s-1.8-4-3.9-4c-2.2 0-3.9 1.7-3.9 4 0 2.4 1.7 4.1 3.9 4.1zm7.8-7.4c0-.3-.2-.4-.4-.4h-.8v-1.2h1.4c.8 0 1.2.4 1.2 1.1v1.2c.4-.9 1.6-2.5 4-2.5 2.5 0 3.4 1.4 3.4 3.9v4.8c0 .3.2.4.4.4h.8v1.2h-1.4c-.9 0-1.2-.4-1.2-1.2v-4.8c0-1.6-.2-3-2.2-3-1.7 0-3.2 1.2-3.6 2.8-.1.4-.2.9-.2 1.4v4.8h-1.4v-8.5zm17.5 0c0-.3-.2-.4-.4-.4h-.8v-1.2h1.4c.8 0 1.2.4 1.2 1.1v1.2c.5-1.4 2.1-2.5 3.6-2.5 1.9 0 2.8.9 3.1 2.5.5-1.4 2-2.5 3.7-2.5 2.4 0 3.3 1.4 3.3 3.9v4.8c0 .3.2.4.4.4h.8v1.2h-1.4c-.9 0-1.2-.4-1.2-1.2v-4.8c0-1.6-.3-3-2.2-3-1.5 0-2.8 1.4-3.2 2.8-.1.4-.2.9-.2 1.5v4.7h-1.4v-6c0-1.5-.2-3-2.1-3-1.6 0-2.8 1.4-3.3 2.9-.1.4-.2.9-.2 1.3v4.7h-1.4v-8.4zm22.9-1.8c2.9 0 5.3 2.2 5.3 5.2s-2.4 5.3-5.3 5.3-5.3-2.3-5.3-5.3 2.4-5.2 5.3-5.2zm0 9.2c2.1 0 3.9-1.8 3.9-4.1s-1.8-4-3.9-4c-2.2 0-3.9 1.7-3.9 4 0 2.4 1.7 4.1 3.9 4.1zm11.4-9.2c2.4 0 3.3 1.9 3.3 1.9v-4c0-.3-.2-.4-.4-.4h-.8v-1.2h1.4c.9 0 1.2.4 1.2 1.2v11.2c0 .3.2.4.4.4h.8v1.2H148c-.8 0-1.2-.4-1.2-1.1v-.6s-.8 2-3.4 2c-2.7 0-4.4-2.2-4.4-5.3 0-3.3 1.9-5.3 4.5-5.3zm3.3 5.2c0-2-1-4-3.2-4-1.8 0-3.2 1.5-3.2 4s1.3 4 3.2 4c1.6 0 3.2-1.1 3.2-4zm8.8-5.2c2.8 0 4.2 2.1 4.2 4.6v.7h-7.7c0 2.5 1.8 4 3.9 4 1.8 0 3-1.2 3-1.2l.7 1s-1.5 1.4-3.7 1.4c-3 0-5.2-2.2-5.2-5.2-.1-3.4 2.1-5.3 4.8-5.3zm2.8 4.2c-.1-2.1-1.4-3.1-2.8-3.1-1.7 0-3.1 1.1-3.4 3.1h6.2zm4.1-6.4c0-.3-.2-.4-.4-.4h-.8v-1.2h1.4c.9 0 1.2.4 1.2 1.2v11.2c0 .3.2.4.4.4h.8v1.2h-1.4c-.9 0-1.2-.4-1.2-1.2v-11.2zm4.9 0c0-.3-.2-.4-.4-.4h-.8v-1.2h1.4c.9 0 1.2.4 1.2 1.2v11.2c0 .3.2.4.4.4h.8v1.2h-1.4c-.9 0-1.2-.4-1.2-1.2v-11.2zm9.2 2.2c2.9 0 5.3 2.2 5.3 5.2s-2.4 5.3-5.3 5.3-5.3-2.3-5.3-5.3 2.4-5.2 5.3-5.2zm0 9.2c2.1 0 3.9-1.8 3.9-4.1s-1.8-4-3.9-4c-2.2 0-3.9 1.7-3.9 4 0 2.4 1.8 4.1 3.9 4.1zM63.7 170.8c0-.3-.2-.4-.4-.4h-.8v-1.2h1.4c.8 0 1.2.4 1.2 1.1v1.2c.5-1.4 2.1-2.5 3.6-2.5 1.9 0 2.8.9 3.1 2.5.5-1.4 2-2.5 3.7-2.5 2.4 0 3.3 1.4 3.3 3.9v4.8c0 .3.2.4.4.4h.8v1.2h-1.4c-.9 0-1.2-.4-1.2-1.2v-4.8c0-1.6-.3-3-2.2-3-1.5 0-2.8 1.4-3.2 2.8-.1.4-.2.9-.2 1.5v4.7h-1.4v-6c0-1.5-.2-3-2.1-3-1.6 0-2.8 1.4-3.3 2.9-.1.4-.2.9-.2 1.3v4.7h-1.4v-8.4zm18.5 0c0-.3-.2-.4-.4-.4H81v-1.2h1.4c.9 0 1.2.4 1.2 1.2v4.8c0 1.6.3 3 2.2 3 2.3 0 3.7-2 3.7-4.2v-4.8h1.4v8.4c0 .3.2.4.4.4h.8v1.2h-1.4c-.8 0-1.2-.4-1.2-1.1v-1.2c-.4 1-1.7 2.5-3.9 2.5-2.4 0-3.4-1.3-3.4-3.9v-4.7zm12-4c0-.3-.2-.4-.4-.4H93v-1.2h1.4c.9 0 1.2.4 1.2 1.2v11.2c0 .3.2.4.4.4h.8v1.2h-1.4c-.9 0-1.2-.4-1.2-1.2v-11.2zm5.1 3.5H98v-1.1h1.3v-2.8h1.3v2.8h2.5v1.1h-2.5v5.1c0 2.3 1.5 2.6 2.3 2.6h.5v1.2h-.6c-1.2 0-3.5-.4-3.5-3.7v-5.2zm6.6.5c0-.3-.2-.4-.4-.4h-.8v-1.2h1.4c.9 0 1.2.4 1.2 1.2v7.2c0 .3.2.4.4.4h.8v1.2h-1.4c-.9 0-1.2-.4-1.2-1.2v-7.2zm0-5.6h1.3v1.7h-1.3v-1.7zm4.5 11.6s1.1 1.5 3.1 1.5c1.1 0 2.1-.5 2.1-1.6 0-2.2-5.6-1.8-5.6-5 0-1.8 1.6-2.7 3.6-2.7 1 0 3 .4 3 1.8v.9h-1.3v-.5c0-.7-1.1-1-1.7-1-1.4 0-2.2.5-2.2 1.5 0 2.3 5.6 1.7 5.6 5.1 0 1.7-1.5 2.8-3.5 2.8-2.6 0-3.8-1.8-3.8-1.8l.7-1zm13.5-7.8c2.9 0 5.3 2.2 5.3 5.2s-2.4 5.3-5.3 5.3-5.3-2.3-5.3-5.3 2.4-5.2 5.3-5.2zm0 9.2c2.1 0 3.9-1.8 3.9-4.1s-1.8-4-3.9-4c-2.2 0-3.9 1.7-3.9 4 0 2.4 1.8 4.1 3.9 4.1zm7.8-7.4c0-.3-.2-.4-.4-.4h-.8v-1.2h1.4c.9 0 1.2.4 1.2 1.2v4.8c0 1.6.3 3 2.2 3 2.3 0 3.7-2 3.7-4.2v-4.8h1.4v8.4c0 .3.2.4.4.4h.8v1.2h-1.4c-.8 0-1.2-.4-1.2-1.1v-1.2c-.4 1-1.7 2.5-3.9 2.5-2.4 0-3.4-1.3-3.4-3.9v-4.7zm12 0c0-.3-.2-.4-.4-.4h-.8v-1.2h1.4c.8 0 1.2.3 1.2 1.1v1.5c.5-1.5 1.6-2.7 3.2-2.7.3 0 .5.1.5.1v1.3h-.5c-1.4 0-2.5 1.1-2.9 2.6-.2.6-.3 1.3-.3 2v4.2h-1.4v-8.5zm11.2-1.8c1.1 0 3.6.5 3.6 2.1v.9h-1.3v-.6c0-.8-1.5-1.2-2.3-1.2-2.2 0-3.9 1.6-3.9 4 0 2.5 1.8 4 3.9 4 2.1 0 3.2-1.4 3.2-1.4l.6 1s-1.4 1.6-3.9 1.6c-3 0-5.3-2.1-5.3-5.2.1-3 2.4-5.2 5.4-5.2zm6.3 1.8c0-.3-.2-.4-.4-.4h-.8v-1.2h1.4c.9 0 1.2.4 1.2 1.2v7.2c0 .3.2.4.4.4h.8v1.2h-1.4c-.9 0-1.2-.4-1.2-1.2v-7.2zm-.1-5.6h1.3v1.7h-1.3v-1.7zm5 5.6c0-.3-.2-.4-.4-.4h-.8v-1.2h1.4c.8 0 1.2.4 1.2 1.1v1.2c.4-.9 1.6-2.5 4-2.5 2.5 0 3.4 1.4 3.4 3.9v4.8c0 .3.2.4.4.4h.8v1.2h-1.4c-.9 0-1.2-.4-1.2-1.2v-4.8c0-1.6-.2-3-2.2-3-1.7 0-3.2 1.2-3.6 2.8-.1.4-.2.9-.2 1.4v4.8h-1.4v-8.5zm15.5-1.8c2.7 0 3.3 1.7 3.3 1.7v-.4c0-.7.3-1.1 1.1-1.1h1.4v1.2h-.8c-.3 0-.4.1-.4.4v8.2c0 3.2-2.3 4.4-4.8 4.4-1.1 0-2.3-.3-3.3-.8l.5-1.1s1.2.7 2.7.7c2 0 3.5-.9 3.5-3.1v-1.6c-.6 1.1-1.6 1.7-3.1 1.7-2.7 0-4.5-2.1-4.5-5.1.1-3.1 1.7-5.1 4.4-5.1zm3.3 5c0-2.9-1.4-3.8-3.2-3.8-2 0-3.1 1.4-3.1 3.8s1.3 3.9 3.3 3.9c1.6.1 3-.9 3-3.9zm117.9-96.2c0-.3-.2-.4-.4-.4h-.9v-1.2h1.5c.9 0 1.2.4 1.2 1.2v7.9c0 2.3 1.5 3.8 3.8 3.8s3.8-1.5 3.8-3.8v-7.9c0-.9.4-1.2 1.2-1.2h1.5v1.2h-.9c-.3 0-.4.1-.4.4v7.5c0 3-2.1 5-5.2 5s-5.2-2-5.2-5v-7.5zm14.1 3.4h-1.3v-1.1h1.3v-2.8h1.3v2.8h2.5v1.1h-2.5v5.1c0 2.3 1.5 2.6 2.3 2.6h.5v1.2h-.6c-1.2 0-3.5-.4-3.5-3.7v-5.2zm6.7.5c0-.3-.2-.4-.4-.4h-.8v-1.2h1.4c.9 0 1.2.4 1.2 1.2v7.2c0 .3.2.4.4.4h.8v1.2h-1.4c-.9 0-1.2-.4-1.2-1.2v-7.2zm0-5.6h1.3v1.7h-1.3v-1.7zm4.9 1.6c0-.3-.2-.4-.4-.4h-.8v-1.2h1.4c.9 0 1.2.4 1.2 1.2v11.2c0 .3.2.4.4.4h.8v1.2h-1.4c-.9 0-1.2-.4-1.2-1.2V77.7zm5 4c0-.3-.2-.4-.4-.4h-.8v-1.2h1.4c.9 0 1.2.4 1.2 1.2v7.2c0 .3.2.4.4.4h.8v1.2h-1.4c-.9 0-1.2-.4-1.2-1.2v-7.2zm-.1-5.6h1.3v1.7h-1.3v-1.7zm4 13.2l5.6-7c.4-.5.8-.9.8-.9h-4.7c-.3 0-.4.1-.4.4v.8h-1.3v-1.2c0-.9.4-1.2 1.2-1.2h6.9v.8l-5.6 7c-.4.5-.8.9-.8.9h5.1c.3 0 .4-.1.4-.4v-.8h1.3v1.2c0 .9-.4 1.2-1.2 1.2h-7.4v-.8zm9.9 0l5.6-7c.4-.5.8-.9.8-.9H349c-.3 0-.4.1-.4.4v.8h-1.3v-1.2c0-.9.4-1.2 1.2-1.2h6.9v.8l-5.6 7c-.4.5-.8.9-.8.9h5.1c.3 0 .4-.1.4-.4v-.8h1.3v1.2c0 .9-.4 1.2-1.2 1.2h-7.4v-.8zm15.1-9.4c2.9 0 5.3 2.2 5.3 5.2s-2.4 5.3-5.3 5.3-5.3-2.3-5.3-5.3 2.4-5.2 5.3-5.2zm0 9.3c2.1 0 3.9-1.8 3.9-4.1s-1.8-4-3.9-4c-2.2 0-3.9 1.7-3.9 4s1.8 4.1 3.9 4.1zm-80 12.6c2.4 0 3.3 1.9 3.3 1.9v-4c0-.3-.2-.4-.4-.4h-.8V98h1.4c.9 0 1.2.4 1.2 1.2v11.2c0 .3.2.4.4.4h.8v1.2h-1.4c-.8 0-1.2-.4-1.2-1.1v-.6s-.8 2-3.4 2c-2.7 0-4.4-2.2-4.4-5.3 0-3.2 1.9-5.2 4.5-5.2zm3.3 5.2c0-2-1-4-3.2-4-1.8 0-3.2 1.5-3.2 4s1.3 4 3.2 4c1.7.1 3.2-1.1 3.2-4zm8.8-5.2c2.8 0 4.2 2.1 4.2 4.6v.7H291c0 2.5 1.8 4 3.9 4 1.8 0 3-1.2 3-1.2l.7 1s-1.5 1.4-3.7 1.4c-3 0-5.2-2.2-5.2-5.2-.1-3.4 2.1-5.3 4.8-5.3zm2.8 4.2c-.1-2.1-1.4-3.1-2.8-3.1-1.7 0-3.1 1.1-3.4 3.1h6.2zm4.1-6.4c0-.3-.2-.4-.4-.4h-.8V98h1.4c.9 0 1.2.4 1.2 1.2v11.2c0 .3.2.4.4.4h.8v1.2h-1.4c-.9 0-1.2-.4-1.2-1.2V99.6zm10.5 3.5h-1.3V102h1.3v-2.8h1.3v2.8h2.5v1.1h-2.5v5.1c0 2.3 1.5 2.6 2.3 2.6h.5v1.2h-.6c-1.2 0-3.5-.4-3.5-3.7v-5.2zm6.5.5c0-.3-.2-.4-.4-.4h-.8V102h1.4c.8 0 1.2.3 1.2 1.1v1.5c.5-1.5 1.6-2.7 3.2-2.7.3 0 .5.1.5.1v1.3h-.5c-1.4 0-2.5 1.1-2.9 2.6-.2.6-.3 1.3-.3 2v4.2h-1.4v-8.5zm11.7 2.3h.6v-.1c0-2.1-.8-2.8-2.6-2.8-.5 0-2 .1-2 .9v.6h-1.3v-1c0-1.4 2.4-1.7 3.3-1.7 3.2 0 3.9 1.7 3.9 3.8v4.8c0 .3.2.4.4.4h.8v1.2H332c-.9 0-1.2-.4-1.2-1.2v-.7s-.8 2.2-3.3 2.2c-1.7 0-3.4-1-3.4-3-.1-3.3 4.3-3.4 6-3.4zm-2.5 5.2c1.9 0 3.1-2 3.1-3.7v-.5h-.6c-1.6 0-4.7 0-4.7 2.3 0 1 .7 1.9 2.2 1.9zm7.5-1.5s1.1 1.5 3.1 1.5c1.1 0 2.1-.5 2.1-1.6 0-2.2-5.6-1.8-5.6-5 0-1.8 1.6-2.7 3.6-2.7 1 0 3 .4 3 1.8v.9H340v-.5c0-.7-1.1-1-1.7-1-1.4 0-2.2.5-2.2 1.5 0 2.3 5.6 1.7 5.6 5.1 0 1.7-1.5 2.8-3.5 2.8-2.6 0-3.8-1.8-3.8-1.8l.7-1zm9.1-6c0-.3-.2-.4-.4-.4h-.8V102h1.4c.9 0 1.2.4 1.2 1.1v.7s.8-2 3.4-2c2.7 0 4.4 2.2 4.4 5.3 0 3.2-1.9 5.2-4.5 5.2-2.4 0-3.3-1.9-3.3-1.9v5.7h-1.4v-12.5zm4.5 7.5c1.8 0 3.2-1.5 3.2-4 0-2.4-1.3-4-3.2-4-1.7 0-3.2 1.2-3.2 4 .1 2 1.2 4 3.2 4zm11.6-9.3c2.9 0 5.3 2.2 5.3 5.2s-2.4 5.3-5.3 5.3-5.3-2.3-5.3-5.3 2.4-5.2 5.3-5.2zm0 9.3c2.1 0 3.9-1.8 3.9-4.1s-1.8-4-3.9-4c-2.2 0-3.9 1.7-3.9 4s1.7 4.1 3.9 4.1zm7.8-7.5c0-.3-.2-.4-.4-.4h-.8V102h1.4c.8 0 1.2.3 1.2 1.1v1.5c.5-1.5 1.6-2.7 3.2-2.7.3 0 .5.1.5.1v1.3h-.5c-1.4 0-2.5 1.1-2.9 2.6-.2.6-.3 1.3-.3 2v4.2h-1.4v-8.5zm7.3-.5h-1.3V102h1.3v-2.8h1.3v2.8h2.5v1.1h-2.5v5.1c0 2.3 1.5 2.6 2.3 2.6h.5v1.2h-.6c-1.2 0-3.5-.4-3.5-3.7v-5.2zm10.7-1.3c2.9 0 5.3 2.2 5.3 5.2s-2.4 5.3-5.3 5.3-5.3-2.3-5.3-5.3 2.4-5.2 5.3-5.2zm0 9.3c2.1 0 3.9-1.8 3.9-4.1s-1.8-4-3.9-4c-2.2 0-3.9 1.7-3.9 4s1.8 4.1 3.9 4.1zm-89 20.4s1.1 1.5 3.1 1.5c1.1 0 2.1-.5 2.1-1.6 0-2.2-5.6-1.8-5.6-5 0-1.8 1.6-2.7 3.6-2.7 1 0 3 .4 3 1.8v.9H302v-.5c0-.7-1.1-1-1.7-1-1.4 0-2.2.5-2.2 1.5 0 2.3 5.6 1.7 5.6 5.1 0 1.7-1.5 2.8-3.5 2.8-2.6 0-3.8-1.8-3.8-1.8l.7-1zm9.1-6c0-.3-.2-.4-.4-.4h-.8v-1.2h1.4c.9 0 1.2.4 1.2 1.2v4.8c0 1.6.3 3 2.2 3 2.3 0 3.7-2 3.7-4.2v-4.8h1.4v8.4c0 .3.2.4.4.4h.8v1.2h-1.4c-.8 0-1.2-.4-1.2-1.1v-1.2c-.4 1-1.7 2.5-3.9 2.5-2.4 0-3.4-1.3-3.4-3.9v-4.7zm17.5 0c0-.3-.2-.4-.4-.4h-.8v-1.2h1.4c.8 0 1.2.3 1.2 1.1v1.5c.5-1.5 1.6-2.7 3.2-2.7.3 0 .5.1.5.1v1.3h-.5c-1.4 0-2.5 1.1-2.9 2.6-.2.6-.3 1.3-.3 2v4.2h-1.4v-8.5zm11.1-1.8c2.9 0 5.3 2.2 5.3 5.2s-2.4 5.3-5.3 5.3-5.3-2.3-5.3-5.3c.1-3 2.4-5.2 5.3-5.2zm.1 9.3c2.1 0 3.9-1.8 3.9-4.1s-1.8-4-3.9-4c-2.2 0-3.9 1.7-3.9 4s1.7 4.1 3.9 4.1zm7.9-7.9h-1.3V124h1.3v-2.8h1.3v2.8h2.5v1.1h-2.5v5.1c0 2.3 1.5 2.6 2.3 2.6h.5v1.2h-.6c-1.2 0-3.5-.4-3.5-3.7v-5.2zm11.6 2.7h.6v-.1c0-2.1-.8-2.8-2.6-2.8-.5 0-2 .1-2 .9v.6h-1.3v-1c0-1.4 2.4-1.7 3.3-1.7 3.2 0 3.9 1.7 3.9 3.8v4.8c0 .3.2.4.4.4h.8v1.2h-1.4c-.9 0-1.2-.4-1.2-1.2v-.7s-.8 2.2-3.3 2.2c-1.7 0-3.4-1-3.4-3 .1-3.3 4.5-3.4 6.2-3.4zm-2.5 5.2c1.9 0 3.1-2 3.1-3.7v-.5h-.6c-1.6 0-4.7 0-4.7 2.3-.1 1 .7 1.9 2.2 1.9zm7.9-7.5c0-.3-.2-.4-.4-.4h-.8v-1.2h1.4c.9 0 1.2.4 1.2 1.2v7.2c0 .3.2.4.4.4h.8v1.2H361c-.9 0-1.2-.4-1.2-1.2v-7.2zm0-5.6h1.3v1.7h-1.3v-1.7zm10.1 7.9h.6v-.1c0-2.1-.8-2.8-2.6-2.8-.5 0-2 .1-2 .9v.6h-1.3v-1c0-1.4 2.4-1.7 3.3-1.7 3.2 0 3.9 1.7 3.9 3.8v4.8c0 .3.2.4.4.4h.8v1.2h-1.4c-.9 0-1.2-.4-1.2-1.2v-.7s-.8 2.2-3.3 2.2c-1.7 0-3.4-1-3.4-3 .1-3.3 4.5-3.4 6.2-3.4zm-2.5 5.2c1.9 0 3.1-2 3.1-3.7v-.5h-.6c-1.6 0-4.7 0-4.7 2.3 0 1 .7 1.9 2.2 1.9zm-102.5 12.6c2.8 0 4.2 2.1 4.2 4.6v.7h-7.7c0 2.5 1.8 4 3.9 4 1.8 0 3-1.2 3-1.2l.7 1s-1.5 1.4-3.7 1.4c-3 0-5.2-2.2-5.2-5.2-.1-3.4 2.2-5.3 4.8-5.3zm2.9 4.2c-.1-2.1-1.4-3.1-2.8-3.1-1.7 0-3.1 1.1-3.4 3.1h6.2zm13.8-4.2c2.9 0 5.3 2.2 5.3 5.2s-2.4 5.3-5.3 5.3-5.3-2.3-5.3-5.3 2.4-5.2 5.3-5.2zm0 9.3c2.1 0 3.9-1.8 3.9-4.1s-1.8-4-3.9-4c-2.2 0-3.9 1.7-3.9 4s1.8 4.1 3.9 4.1zm8-7.9h-1.3v-1.1h1.3V143h1.3v2.8h2.5v1.1h-2.5v5.1c0 2.3 1.5 2.6 2.3 2.6h.5v1.2h-.6c-1.2 0-3.5-.4-3.5-3.7V147zm6.6 0h-1.3v-1.1h1.3V143h1.3v2.8h2.5v1.1h-2.5v5.1c0 2.3 1.5 2.6 2.3 2.6h.5v1.2h-.6c-1.2 0-3.5-.4-3.5-3.7V147zm6.7.4c0-.3-.2-.4-.4-.4h-.8v-1.2h1.4c.9 0 1.2.4 1.2 1.2v7.2c0 .3.2.4.4.4h.8v1.2h-1.4c-.9 0-1.2-.4-1.2-1.2v-7.2zm-.1-5.6h1.3v1.7h-1.3v-1.7zm5 5.6c0-.3-.2-.4-.4-.4h-.8v-1.2h1.4c.8 0 1.2.4 1.2 1.1v1.2c.5-1.4 2.1-2.5 3.6-2.5 1.9 0 2.8.9 3.1 2.5.5-1.4 2-2.5 3.7-2.5 2.4 0 3.3 1.4 3.3 3.9v4.8c0 .3.2.4.4.4h.8v1.2h-1.4c-.9 0-1.2-.4-1.2-1.2v-4.8c0-1.6-.3-3-2.2-3-1.5 0-2.8 1.4-3.2 2.8-.1.4-.2.9-.2 1.5v4.7h-1.4v-6c0-1.5-.2-3-2.1-3-1.6 0-2.8 1.4-3.3 2.9-.1.4-.2.9-.2 1.3v4.7h-1.4v-8.4zm18.6 0c0-.3-.2-.4-.4-.4h-.8v-1.2h1.4c.9 0 1.2.4 1.2 1.2v7.2c0 .3.2.4.4.4h.8v1.2h-1.4c-.9 0-1.2-.4-1.2-1.2v-7.2zm0-5.6h1.3v1.7h-1.3v-1.7zm3.9 13.2l5.6-7c.4-.5.8-.9.8-.9H332c-.3 0-.4.1-.4.4v.8h-1.3V147c0-.9.4-1.2 1.2-1.2h6.9v.9l-5.6 7c-.4.5-.8.9-.8.9h5.1c.3 0 .4-.1.4-.4v-.8h1.3v1.2c0 .9-.4 1.2-1.2 1.2h-7.4v-.8zm10 0l5.6-7c.4-.5.8-.9.8-.9H342c-.3 0-.4.1-.4.4v.8h-1.3V147c0-.9.4-1.2 1.2-1.2h6.9v.9l-5.6 7c-.4.5-.8.9-.8.9h5.1c.3 0 .4-.1.4-.4v-.8h1.3v1.2c0 .9-.4 1.2-1.2 1.2h-7.4v-.8zm16.1-5.3h.6v-.1c0-2.1-.8-2.8-2.6-2.8-.5 0-2 .1-2 .9v.6h-1.3v-1c0-1.4 2.4-1.7 3.3-1.7 3.2 0 3.9 1.7 3.9 3.8v4.8c0 .3.2.4.4.4h.8v1.2h-1.4c-.9 0-1.2-.4-1.2-1.2v-.7s-.8 2.2-3.3 2.2c-1.7 0-3.4-1-3.4-3 0-3.3 4.4-3.4 6.2-3.4zm-2.5 5.2c1.9 0 3.1-2 3.1-3.7v-.5h-.6c-1.6 0-4.7 0-4.7 2.3-.1 1 .7 1.9 2.2 1.9zm6.8.1l5.6-7c.4-.5.8-.9.8-.9h-4.7c-.3 0-.4.1-.4.4v.8h-1.3V147c0-.9.4-1.2 1.2-1.2h6.9v.9l-5.6 7c-.4.5-.8.9-.8.9h5.1c.3 0 .4-.1.4-.4v-.8h1.3v1.2c0 .9-.4 1.2-1.2 1.2h-7.4v-.8zm11-7.6c0-.3-.2-.4-.4-.4h-.8v-1.2h1.4c.9 0 1.2.4 1.2 1.2v7.2c0 .3.2.4.4.4h.8v1.2H373c-.9 0-1.2-.4-1.2-1.2v-7.2zm0-5.6h1.3v1.7h-1.3v-1.7zm9.3 3.8c2.9 0 5.3 2.2 5.3 5.2s-2.4 5.3-5.3 5.3-5.3-2.3-5.3-5.3 2.4-5.2 5.3-5.2zm0 9.3c2.1 0 3.9-1.8 3.9-4.1s-1.8-4-3.9-4c-2.2 0-3.9 1.7-3.9 4s1.7 4.1 3.9 4.1zm7.8-7.5c0-.3-.2-.4-.4-.4h-.8v-1.2h1.4c.8 0 1.2.4 1.2 1.1v1.2c.4-.9 1.6-2.5 4-2.5 2.5 0 3.4 1.4 3.4 3.9v4.8c0 .3.2.4.4.4h.8v1.2h-1.4c-.9 0-1.2-.4-1.2-1.2v-4.8c0-1.6-.2-3-2.2-3-1.7 0-3.2 1.2-3.6 2.8-.1.4-.2.9-.2 1.4v4.8h-1.4v-8.5zm16.1-1.8c2.8 0 4.2 2.1 4.2 4.6v.7h-7.7c0 2.5 1.8 4 3.9 4 1.8 0 3-1.2 3-1.2l.7 1s-1.5 1.4-3.7 1.4c-3 0-5.2-2.2-5.2-5.2-.1-3.4 2.1-5.3 4.8-5.3zm2.8 4.2c-.1-2.1-1.4-3.1-2.8-3.1-1.7 0-3.1 1.1-3.4 3.1h6.2zm-114.6 17.7c2.4 0 3.3 1.9 3.3 1.9v-4c0-.3-.2-.4-.4-.4h-.8v-1.2h1.4c.9 0 1.2.4 1.2 1.2v11.2c0 .3.2.4.4.4h.8v1.2h-1.4c-.8 0-1.2-.4-1.2-1.1v-.6s-.8 2-3.4 2c-2.7 0-4.4-2.2-4.4-5.3 0-3.3 1.9-5.3 4.5-5.3zm3.3 5.2c0-2-1-4-3.2-4-1.8 0-3.2 1.5-3.2 4s1.3 4 3.2 4c1.6.1 3.2-1.1 3.2-4zm8.8-5.2c2.8 0 4.2 2.1 4.2 4.6v.7h-7.7c0 2.5 1.8 4 3.9 4 1.8 0 3-1.2 3-1.2l.7 1s-1.5 1.4-3.7 1.4c-3 0-5.2-2.2-5.2-5.2-.1-3.4 2.1-5.3 4.8-5.3zm2.8 4.2c-.1-2.1-1.4-3.1-2.8-3.1-1.7 0-3.1 1.1-3.4 3.1h6.2zm4.2-2.4c0-.3-.2-.4-.4-.4h-.8v-1.2h1.4c.9 0 1.2.4 1.2 1.2v7.2c0 .3.2.4.4.4h.8v1.2h-1.4c-.9 0-1.2-.4-1.2-1.2v-7.2zm0-5.6h1.3v1.7h-1.3v-1.7zm14.7 3.8c1.1 0 3.6.5 3.6 2.1v.9h-1.3v-.6c0-.8-1.5-1.2-2.3-1.2-2.2 0-3.9 1.6-3.9 4 0 2.5 1.8 4 3.9 4 2.1 0 3.2-1.4 3.2-1.4l.6 1s-1.4 1.6-3.9 1.6c-3 0-5.3-2.1-5.3-5.2.1-3 2.4-5.2 5.4-5.2zm11.3 4.1h.6v-.1c0-2.1-.8-2.8-2.6-2.8-.5 0-2 .1-2 .9v.6H333v-1c0-1.4 2.4-1.7 3.3-1.7 3.2 0 3.9 1.7 3.9 3.8v4.8c0 .3.2.4.4.4h.8v1.2H340c-.9 0-1.2-.4-1.2-1.2v-.7s-.8 2.2-3.3 2.2c-1.7 0-3.4-1-3.4-3 0-3.3 4.4-3.4 6.1-3.4zm-2.5 5.2c1.9 0 3.1-2 3.1-3.7v-.5h-.6c-1.6 0-4.7 0-4.7 2.3 0 1 .7 1.9 2.2 1.9zm7.9-7.5c0-.3-.2-.4-.4-.4h-.8v-1.2h1.4c.8 0 1.2.3 1.2 1.1v1.5c.5-1.5 1.6-2.7 3.2-2.7.3 0 .5.1.5.1v1.3h-.5c-1.4 0-2.5 1.1-2.9 2.6-.2.6-.3 1.3-.3 2v4.2h-1.4v-8.5zm7.3 0c0-.3-.2-.4-.4-.4h-.8v-1.2h1.4c.9 0 1.2.4 1.2 1.2v7.2c0 .3.2.4.4.4h.8v1.2h-1.4c-.9 0-1.2-.4-1.2-1.2v-7.2zm-.1-5.6h1.3v1.7h-1.3v-1.7zm9.3 3.8c1.1 0 3.6.5 3.6 2.1v.9h-1.3v-.6c0-.8-1.5-1.2-2.3-1.2-2.2 0-3.9 1.6-3.9 4 0 2.5 1.8 4 3.9 4 2.1 0 3.2-1.4 3.2-1.4l.6 1s-1.4 1.6-3.9 1.6c-3 0-5.3-2.1-5.3-5.2.1-3 2.4-5.2 5.4-5.2zm6.1-2.2c0-.3-.2-.4-.4-.4h-.8v-1.2h1.4c.9 0 1.2.4 1.2 1.2v5c.4-1 1.7-2.5 4-2.5 2.5 0 3.4 1.4 3.4 3.9v4.8c0 .3.2.4.4.4h.8v1.2h-1.4c-.9 0-1.2-.4-1.2-1.2v-4.8c0-1.6-.2-3-2.2-3-1.7 0-3.2 1.2-3.6 2.8-.1.4-.2.9-.2 1.3v4.8h-1.4v-12.3zm12.2 4c0-.3-.2-.4-.4-.4h-.8v-1.2h1.4c.9 0 1.2.4 1.2 1.2v7.2c0 .3.2.4.4.4h.8v1.2h-1.4c-.9 0-1.2-.4-1.2-1.2v-7.2zm-.1-5.6h1.3v1.7h-1.3v-1.7zm143-85.7s1.4 1.7 3.6 1.7c1.5 0 2.8-1 2.8-2.5 0-3.5-6.9-2.8-6.9-7.1 0-2 1.7-3.6 4.3-3.6 1.4 0 3.8.6 3.8 2.4v1h-1.3v-.7c0-.8-1.2-1.5-2.4-1.5-1.8 0-2.9 1.1-2.9 2.3 0 3.2 6.9 2.4 6.9 7.1 0 2.1-1.6 3.9-4.2 3.9-2.9 0-4.4-2-4.4-2l.7-1zm14.9-7.5c1.1 0 3.6.5 3.6 2.1v.9h-1.3v-.6c0-.8-1.5-1.2-2.3-1.2-2.2 0-3.9 1.6-3.9 4 0 2.5 1.8 4 3.9 4 2.1 0 3.2-1.4 3.2-1.4l.6 1s-1.4 1.6-3.9 1.6c-3 0-5.3-2.1-5.3-5.2.1-3 2.4-5.2 5.4-5.2zm10.2 0c2.8 0 4.2 2.1 4.2 4.6v.7h-7.7c0 2.5 1.8 4 3.9 4 1.8 0 3-1.2 3-1.2l.7 1S549 81 546.8 81c-3 0-5.2-2.2-5.2-5.2-.2-3.3 2.1-5.3 4.8-5.3zm2.8 4.2c-.1-2.1-1.4-3.1-2.8-3.1-1.7 0-3.1 1.1-3.4 3.1h6.2zm4.1-6.3c0-.3-.2-.4-.4-.4h-.9v-1.2h1.4c.9 0 1.2.4 1.2 1.2v11.2c0 .3.2.4.4.4h.8v1.2h-1.4c-.9 0-1.2-.4-1.2-1.2V68.4zm5 3.5H557v-1.1h1.3V68h1.3v2.8h2.5v1.1h-2.5V77c0 2.3 1.5 2.6 2.3 2.6h.5v1.2h-.6c-1.2 0-3.5-.4-3.5-3.7v-5.2zm11.6 2.7h.6v-.1c0-2.1-.8-2.8-2.6-2.8-.5 0-2 .1-2 .9v.6h-1.3v-1c0-1.4 2.4-1.7 3.3-1.7 3.2 0 3.9 1.7 3.9 3.8v4.8c0 .3.2.4.4.4h.8v1.2h-1.4c-.9 0-1.2-.4-1.2-1.2v-.7s-.8 2.2-3.3 2.2c-1.7 0-3.4-1-3.4-3 0-3.3 4.4-3.4 6.2-3.4zm-2.5 5.2c1.9 0 3.1-2 3.1-3.7v-.5h-.6c-1.6 0-4.7 0-4.7 2.3-.1 1 .7 1.9 2.2 1.9zm-67.9 12.6c2.4 0 3.3 1.9 3.3 1.9v-4c0-.3-.2-.4-.4-.4h-.8v-1.2h1.4c.9 0 1.2.4 1.2 1.2V101c0 .3.2.4.4.4h.8v1.2H504c-.8 0-1.2-.4-1.2-1.1v-.6s-.8 2-3.4 2c-2.7 0-4.4-2.2-4.4-5.3 0-3.1 1.9-5.2 4.5-5.2zm3.3 5.2c0-2-1-4-3.2-4-1.8 0-3.2 1.5-3.2 4s1.3 4 3.2 4c1.7.1 3.2-1.1 3.2-4zm4.9-3.4c0-.3-.2-.4-.4-.4h-.8v-1.2h1.4c.9 0 1.2.4 1.2 1.2v7.2c0 .3.2.4.4.4h.8v1.2h-1.4c-.9 0-1.2-.4-1.2-1.2v-7.2zm0-5.6h1.3v1.7h-1.3v-1.7zm14.7 3.8c2.9 0 5.3 2.2 5.3 5.2s-2.4 5.3-5.3 5.3-5.3-2.3-5.3-5.3 2.4-5.2 5.3-5.2zm0 9.3c2.1 0 3.9-1.8 3.9-4.1s-1.8-4-3.9-4c-2.2 0-3.9 1.7-3.9 4s1.8 4.1 3.9 4.1zm7.8-7.5c0-.3-.2-.4-.4-.4h-.8v-1.2h1.4c.9 0 1.2.4 1.2 1.1v.7s.8-2 3.4-2c2.7 0 4.4 2.2 4.4 5.3 0 3.2-1.9 5.2-4.5 5.2-2.4 0-3.3-1.9-3.3-1.9v5.7h-1.4V94.2zm4.5 7.5c1.8 0 3.2-1.5 3.2-4 0-2.4-1.3-4-3.2-4-1.7 0-3.2 1.2-3.2 4 0 2 1.1 4 3.2 4zm11.2-9.3c2.8 0 4.2 2.1 4.2 4.6v.7h-7.7c0 2.5 1.8 4 3.9 4 1.8 0 3-1.2 3-1.2l.7 1s-1.5 1.4-3.7 1.4c-3 0-5.2-2.2-5.2-5.2-.1-3.3 2.1-5.3 4.8-5.3zm2.8 4.2c-.1-2.1-1.4-3.1-2.8-3.1-1.7 0-3.1 1.1-3.4 3.1h6.2zm4.1-2.4c0-.3-.2-.4-.4-.4h-.8v-1.2h1.4c.8 0 1.2.3 1.2 1.1v1.5c.5-1.5 1.6-2.7 3.2-2.7.3 0 .5.1.5.1v1.3h-.5c-1.4 0-2.5 1.1-2.9 2.6-.2.6-.3 1.3-.3 2v4.2h-1.4v-8.5zm11.8 2.3h.6v-.1c0-2.1-.8-2.8-2.6-2.8-.5 0-2 .1-2 .9v.5h-1.3v-1c0-1.4 2.4-1.7 3.3-1.7 3.2 0 3.9 1.7 3.9 3.8v4.8c0 .3.2.4.4.4h.8v1.2h-1.4c-.9 0-1.2-.4-1.2-1.2v-.7s-.8 2.2-3.3 2.2c-1.7 0-3.4-1-3.4-3 0-3.2 4.4-3.3 6.2-3.3zm-2.6 5.2c1.9 0 3.1-2 3.1-3.7v-.5h-.6c-1.6 0-4.7 0-4.7 2.3 0 1 .8 1.9 2.2 1.9zm8-7.9h-1.3v-1.1h1.3v-2.8h1.3v2.8h2.5v1.1h-2.5v5.1c0 2.3 1.5 2.6 2.3 2.6h.5v1.2h-.6c-1.2 0-3.5-.4-3.5-3.7v-5.2zm10.7-1.4c2.9 0 5.3 2.2 5.3 5.2s-2.4 5.3-5.3 5.3-5.3-2.3-5.3-5.3 2.4-5.2 5.3-5.2zm0 9.3c2.1 0 3.9-1.8 3.9-4.1s-1.8-4-3.9-4c-2.2 0-3.9 1.7-3.9 4s1.8 4.1 3.9 4.1zm7.8-7.5c0-.3-.2-.4-.4-.4h-.8v-1.2h1.4c.8 0 1.2.3 1.2 1.1v1.5c.5-1.5 1.6-2.7 3.2-2.7.3 0 .5.1.5.1v1.3h-.5c-1.4 0-2.5 1.1-2.9 2.6-.2.6-.3 1.3-.3 2v4.2h-1.4v-8.5zm7.3 0c0-.3-.2-.4-.4-.4h-.8v-1.2h1.4c.9 0 1.2.4 1.2 1.2v7.2c0 .3.2.4.4.4h.8v1.2H597c-.9 0-1.2-.4-1.2-1.2v-7.2zm0-5.6h1.3v1.7h-1.3v-1.7zm-132.2 23.6c0-.3-.2-.4-.4-.4h-.8v-1.2h1.4c.9 0 1.2.4 1.2 1.2V123c0 .3.2.4.4.4h.8v1.2h-1.4c-.9 0-1.2-.4-1.2-1.2v-11.2zm9.2 2.1c2.9 0 5.3 2.2 5.3 5.2s-2.4 5.3-5.3 5.3-5.3-2.3-5.3-5.3c.1-3 2.4-5.2 5.3-5.2zm.1 9.3c2.1 0 3.9-1.8 3.9-4.1s-1.8-4-3.9-4c-2.2 0-3.9 1.7-3.9 4s1.7 4.1 3.9 4.1zm11.2-9.3c2.7 0 3.3 1.7 3.3 1.7v-.4c0-.7.3-1.1 1.1-1.1h1.4v1.2h-.8c-.3 0-.4.1-.4.4v8.2c0 3.2-2.3 4.4-4.8 4.4-1.1 0-2.3-.3-3.3-.8l.5-1.1s1.2.7 2.7.7c2 0 3.5-.9 3.5-3.1v-1.6c-.6 1.1-1.6 1.7-3.1 1.7-2.7 0-4.5-2.1-4.5-5.1.1-3.1 1.7-5.1 4.4-5.1zm3.3 5c0-2.9-1.4-3.8-3.2-3.8-2 0-3.1 1.4-3.1 3.8s1.3 3.9 3.3 3.9c1.6.1 3-.9 3-3.9zm4.9-3.2c0-.3-.2-.4-.4-.4h-.9v-1.2h1.4c.9 0 1.2.4 1.2 1.2v7.2c0 .3.2.4.4.4h.8v1.2h-1.4c-.9 0-1.2-.4-1.2-1.2v-7.2zm-.1-5.6h1.3v1.7h-1.3v-1.7zm4.6 11.6s1.1 1.5 3.1 1.5c1.1 0 2.1-.5 2.1-1.6 0-2.2-5.6-1.8-5.6-5 0-1.8 1.6-2.7 3.6-2.7 1 0 3 .4 3 1.8v.9h-1.3v-.5c0-.7-1.1-1-1.7-1-1.4 0-2.2.5-2.2 1.5 0 2.3 5.6 1.7 5.6 5.1 0 1.7-1.5 2.8-3.5 2.8-2.6 0-3.8-1.8-3.8-1.8l.7-1zm9.3-6.4h-1.3v-1.1h1.3v-2.8h1.3v2.8h2.5v1.1h-2.5v5.1c0 2.3 1.5 2.6 2.3 2.6h.5v1.2h-.6c-1.2 0-3.5-.4-3.5-3.7v-5.2zm6.6.4c0-.3-.2-.4-.4-.4h-.8v-1.2h1.4c.9 0 1.2.4 1.2 1.2v7.2c0 .3.2.4.4.4h.8v1.2h-1.4c-.9 0-1.2-.4-1.2-1.2v-7.2zm0-5.6h1.3v1.7h-1.3v-1.7zm9.2 3.8c1.1 0 3.6.5 3.6 2.1v.9h-1.3v-.6c0-.8-1.5-1.2-2.3-1.2-2.2 0-3.9 1.6-3.9 4 0 2.5 1.8 4 3.9 4 2.1 0 3.2-1.4 3.2-1.4l.6 1s-1.4 1.6-3.9 1.6c-3 0-5.3-2.1-5.3-5.2.2-3 2.5-5.2 5.4-5.2zm6.3 1.8c0-.3-.2-.4-.4-.4h-.8v-1.2h1.4c.9 0 1.2.4 1.2 1.2v7.2c0 .3.2.4.4.4h.8v1.2h-1.4c-.9 0-1.2-.4-1.2-1.2v-7.2zm0-5.6h1.3v1.7h-1.3v-1.7zm14.7 3.8c1.1 0 3.6.5 3.6 2.1v.9h-1.3v-.6c0-.8-1.5-1.2-2.3-1.2-2.2 0-3.9 1.6-3.9 4 0 2.5 1.8 4 3.9 4 2.1 0 3.2-1.4 3.2-1.4l.6 1s-1.4 1.6-3.9 1.6c-3 0-5.3-2.1-5.3-5.2.1-3 2.4-5.2 5.4-5.2zm10.5 0c2.9 0 5.3 2.2 5.3 5.2s-2.4 5.3-5.3 5.3-5.3-2.3-5.3-5.3 2.4-5.2 5.3-5.2zm0 9.3c2.1 0 3.9-1.8 3.9-4.1s-1.8-4-3.9-4c-2.2 0-3.9 1.7-3.9 4s1.8 4.1 3.9 4.1zm7.8-7.5c0-.3-.2-.4-.4-.4h-.8v-1.2h1.4c.8 0 1.2.4 1.2 1.1v1.2c.4-.9 1.6-2.5 4-2.5 2.5 0 3.4 1.4 3.4 3.9v4.8c0 .3.2.4.4.4h.8v1.2h-1.4c-.9 0-1.2-.4-1.2-1.2v-4.8c0-1.6-.2-3-2.2-3-1.7 0-3.2 1.2-3.6 2.8-.1.4-.2.9-.2 1.4v4.8h-1.4v-8.5zm17.5 0c0-.3-.2-.4-.4-.4h-.8v-1.2h1.4c.8 0 1.2.4 1.2 1.1v1.2c.5-1.4 2.1-2.5 3.6-2.5 1.9 0 2.8.9 3.1 2.5.5-1.4 2-2.5 3.7-2.5 2.4 0 3.3 1.4 3.3 3.9v4.8c0 .3.2.4.4.4h.8v1.2h-1.4c-.9 0-1.2-.4-1.2-1.2v-4.8c0-1.6-.3-3-2.2-3-1.5 0-2.8 1.4-3.2 2.8-.1.4-.2.9-.2 1.5v4.7h-1.4v-6c0-1.5-.2-3-2.1-3-1.6 0-2.8 1.4-3.3 2.9-.1.4-.2.9-.2 1.3v4.7h-1.4v-8.4zm22.6-1.8c2.8 0 4.2 2.1 4.2 4.6v.7h-7.7c0 2.5 1.8 4 3.9 4 1.8 0 3-1.2 3-1.2l.7 1s-1.5 1.4-3.7 1.4c-3 0-5.2-2.2-5.2-5.2-.2-3.3 2.1-5.3 4.8-5.3zm2.8 4.2c-.1-2.1-1.4-3.1-2.8-3.1-1.7 0-3.1 1.1-3.4 3.1h6.2zm3.1 5.2l5.6-7c.4-.5.8-.9.8-.9H609c-.3 0-.4.1-.4.4v.8h-1.3v-1.2c0-.9.4-1.2 1.2-1.2h6.9v.9l-5.6 7c-.4.5-.8.9-.8.9h5.1c.3 0 .4-.1.4-.4v-.8h1.3v1.2c0 .9-.4 1.2-1.2 1.2h-7.4v-.9zm10 0l5.6-7c.4-.5.8-.9.8-.9h-4.7c-.3 0-.4.1-.4.4v.8h-1.3v-1.2c0-.9.4-1.2 1.2-1.2h6.9v.9l-5.6 7c-.4.5-.8.9-.8.9h5.1c.3 0 .4-.1.4-.4v-.8h1.3v1.2c0 .9-.4 1.2-1.2 1.2h-7.4v-.9zm10.9-7.6c0-.3-.2-.4-.4-.4h-.8v-1.2h1.4c.9 0 1.2.4 1.2 1.2v7.2c0 .3.2.4.4.4h.8v1.2h-1.4c-.9 0-1.2-.4-1.2-1.2v-7.2zm0-5.6h1.3v1.7h-1.3v-1.7zm-150.2 29.8h.6v-.1c0-2.1-.8-2.8-2.6-2.8-.5 0-2 .1-2 .9v.6h-1.3v-1c0-1.4 2.4-1.7 3.3-1.7 3.2 0 3.9 1.7 3.9 3.8v4.8c0 .3.2.4.4.4h.8v1.2h-1.4c-.9 0-1.2-.4-1.2-1.2v-.7s-.8 2.2-3.3 2.2c-1.7 0-3.4-1-3.4-3 .1-3.3 4.5-3.4 6.2-3.4zm-2.5 5.2c1.9 0 3.1-2 3.1-3.7v-.5h-.6c-1.6 0-4.7 0-4.7 2.3 0 1 .7 1.9 2.2 1.9zm7.8-11.4c0-.3-.2-.4-.4-.4h-.8v-1.2h1.4c.9 0 1.2.4 1.2 1.2v11.2c0 .3.2.4.4.4h.8v1.2h-1.4c-.9 0-1.2-.4-1.2-1.2v-11.2zm4.9 0c0-.3-.2-.4-.4-.4h-.8v-1.2h1.4c.9 0 1.2.4 1.2 1.2v11.2c0 .3.2.4.4.4h.8v1.2h-1.4c-.9 0-1.2-.4-1.2-1.2v-11.2zm5-1.9h1.4l-1.1 3.4h-1.1l.8-3.4zm8.4 8.1h.6v-.1c0-2.1-.8-2.8-2.6-2.8-.5 0-2 .1-2 .9v.6h-1.3v-1c0-1.4 2.4-1.7 3.3-1.7 3.2 0 3.9 1.7 3.9 3.8v4.8c0 .3.2.4.4.4h.8v1.2h-1.4c-.9 0-1.2-.4-1.2-1.2v-.7s-.8 2.2-3.3 2.2c-1.7 0-3.4-1-3.4-3 .1-3.3 4.5-3.4 6.2-3.4zm-2.5 5.2c1.9 0 3.1-2 3.1-3.7v-.5h-.6c-1.6 0-4.7 0-4.7 2.3 0 1 .7 1.9 2.2 1.9zm7.1-7.4c-.1-.4-.3-.5-.7-.5h-.2v-1.2h.5c1 0 1.3.2 1.6 1.1l2.4 6.3c.2.5.3 1.2.3 1.2s.2-.7.3-1.2l2.4-6.3c.3-.9.6-1.1 1.6-1.1h.5v1.2h-.2c-.4 0-.6.1-.7.5l-3.3 8.4h-1.5l-3-8.4zm15.9 2.2h.6v-.1c0-2.1-.8-2.8-2.6-2.8-.5 0-2 .1-2 .9v.6h-1.3v-1c0-1.4 2.4-1.7 3.3-1.7 3.2 0 3.9 1.7 3.9 3.8v4.8c0 .3.2.4.4.4h.8v1.2h-1.4c-.9 0-1.2-.4-1.2-1.2v-.7s-.8 2.2-3.3 2.2c-1.7 0-3.4-1-3.4-3 .1-3.3 4.5-3.4 6.2-3.4zm-2.5 5.2c1.9 0 3.1-2 3.1-3.7v-.5h-.6c-1.6 0-4.7 0-4.7 2.3 0 1 .7 1.9 2.2 1.9zm7.9-7.5c0-.3-.2-.4-.4-.4h-.8v-1.2h1.4c.8 0 1.2.4 1.2 1.1v1.2c.4-.9 1.6-2.5 4-2.5 2.5 0 3.4 1.4 3.4 3.9v4.8c0 .3.2.4.4.4h.8v1.2H536c-.9 0-1.2-.4-1.2-1.2v-4.8c0-1.6-.2-3-2.2-3-1.7 0-3.2 1.2-3.6 2.8-.1.4-.2.9-.2 1.4v4.8h-1.4V138zm15.5-1.8c2.7 0 3.3 1.7 3.3 1.7v-.4c0-.7.3-1.1 1.1-1.1h1.4v1.2h-.7c-.3 0-.4.1-.4.4v8.2c0 3.2-2.3 4.4-4.8 4.4-1.1 0-2.3-.3-3.3-.8l.5-1.1s1.2.7 2.7.7c2 0 3.5-.9 3.5-3.1v-1.6c-.6 1.1-1.6 1.7-3.1 1.7-2.7 0-4.5-2.1-4.5-5.1 0-3.1 1.6-5.1 4.3-5.1zm3.3 5c0-2.9-1.4-3.8-3.2-3.8-2 0-3.1 1.4-3.1 3.8s1.3 3.9 3.3 3.9c1.6.1 3-.9 3-3.9zm4.8-3.2c0-.3-.2-.4-.4-.4h-.8v-1.2h1.4c.9 0 1.2.4 1.2 1.2v4.8c0 1.6.3 3 2.2 3 2.3 0 3.7-2 3.7-4.2v-4.8h1.4v8.4c0 .3.2.4.4.4h.8v1.2h-1.4c-.8 0-1.2-.4-1.2-1.1v-1.2c-.4 1-1.7 2.5-3.9 2.5-2.4 0-3.4-1.3-3.4-3.9V138zm17.2 2.3h.6v-.1c0-2.1-.8-2.8-2.6-2.8-.5 0-2 .1-2 .9v.6h-1.3v-1c0-1.4 2.4-1.7 3.3-1.7 3.2 0 3.9 1.7 3.9 3.8v4.8c0 .3.2.4.4.4h.8v1.2H570c-.9 0-1.2-.4-1.2-1.2v-.7s-.8 2.2-3.3 2.2c-1.7 0-3.4-1-3.4-3 0-3.3 4.4-3.4 6.1-3.4zm-2.5 5.2c1.9 0 3.1-2 3.1-3.7v-.5h-.6c-1.6 0-4.7 0-4.7 2.3 0 1 .7 1.9 2.2 1.9zm7.9-7.5c0-.3-.2-.4-.4-.4h-.8v-1.2h1.4c.8 0 1.2.3 1.2 1.1v1.5c.5-1.5 1.6-2.7 3.2-2.7.3 0 .5.1.5.1v1.3h-.5c-1.4 0-2.5 1.1-2.9 2.6-.2.6-.3 1.3-.3 2v4.2h-1.4V138zm10.4-1.8c2.4 0 3.3 1.9 3.3 1.9v-4c0-.3-.2-.4-.4-.4h-.9v-1.2h1.4c.9 0 1.2.4 1.2 1.2v11.2c0 .3.2.4.4.4h.8v1.2h-1.4c-.8 0-1.2-.4-1.2-1.1v-.6s-.8 2-3.4 2c-2.7 0-4.4-2.2-4.4-5.3.1-3.2 1.9-5.3 4.6-5.3zm3.3 5.2c0-2-1-4-3.2-4-1.8 0-3.2 1.5-3.2 4s1.3 4 3.2 4c1.6.1 3.2-1.1 3.2-4zm4.9-3.4c0-.3-.2-.4-.4-.4h-.8v-1.2h1.4c.9 0 1.2.4 1.2 1.2v7.2c0 .3.2.4.4.4h.8v1.2h-1.4c-.9 0-1.2-.4-1.2-1.2V138zm-.1-5.6h1.3v1.7h-1.3v-1.7zm10.2 7.9h.6v-.1c0-2.1-.8-2.8-2.6-2.8-.5 0-2 .1-2 .9v.6H597v-1c0-1.4 2.4-1.7 3.3-1.7 3.2 0 3.9 1.7 3.9 3.8v4.8c0 .3.2.4.4.4h.8v1.2H604c-.9 0-1.2-.4-1.2-1.2v-.7s-.8 2.2-3.3 2.2c-1.7 0-3.4-1-3.4-3 0-3.3 4.4-3.4 6.2-3.4zm-2.5 5.2c1.9 0 3.1-2 3.1-3.7v-.5h-.6c-1.6 0-4.7 0-4.7 2.3-.1 1 .7 1.9 2.2 1.9zm17.2-9.3c2.8 0 4.2 2.1 4.2 4.6v.7h-7.7c0 2.5 1.8 4 3.9 4 1.8 0 3-1.2 3-1.2l.7 1s-1.5 1.4-3.7 1.4c-3 0-5.2-2.2-5.2-5.2-.1-3.3 2.1-5.3 4.8-5.3zm2.8 4.2c-.1-2.1-1.4-3.1-2.8-3.1-1.7 0-3.1 1.1-3.4 3.1h6.2zm-138.3 21.8h.6v-.1c0-2.1-.8-2.8-2.6-2.8-.5 0-2 .1-2 .9v.6h-1.3v-1c0-1.4 2.4-1.7 3.3-1.7 3.2 0 3.9 1.7 3.9 3.8v4.8c0 .3.2.4.4.4h.8v1.2h-1.4c-.9 0-1.2-.4-1.2-1.2v-.7s-.8 2.2-3.3 2.2c-1.7 0-3.4-1-3.4-3 .1-3.3 4.5-3.4 6.2-3.4zm-2.5 5.2c1.9 0 3.1-2 3.1-3.7v-.5h-.6c-1.6 0-4.7 0-4.7 2.3 0 1 .7 1.9 2.2 1.9zm13.2-11.4c0-.3-.2-.4-.4-.4h-.8v-1.2h1.4c.9 0 1.2.4 1.2 1.2v4.4s.8-1.9 3.4-1.9c2.7 0 4.4 2.2 4.4 5.3 0 3.2-1.9 5.2-4.5 5.2-2.4 0-3.3-1.9-3.3-1.9v1.7h-1.3V156zm4.5 11.4c1.8 0 3.2-1.5 3.2-4 0-2.4-1.3-4-3.2-4-1.7 0-3.2 1.2-3.2 4 0 2 1 4 3.2 4zm12.3-5.2h.6v-.1c0-2.1-.8-2.8-2.6-2.8-.5 0-2 .1-2 .9v.6h-1.3v-1c0-1.4 2.4-1.7 3.3-1.7 3.2 0 3.9 1.7 3.9 3.8v4.8c0 .3.2.4.4.4h.8v1.2h-1.4c-.9 0-1.2-.4-1.2-1.2v-.7s-.8 2.2-3.3 2.2c-1.7 0-3.4-1-3.4-3 0-3.3 4.4-3.4 6.2-3.4zm-2.5 5.2c1.9 0 3.1-2 3.1-3.7v-.5h-.6c-1.6 0-4.7 0-4.7 2.3-.1 1 .7 1.9 2.2 1.9zm7.4-1.5s1.1 1.5 3.1 1.5c1.1 0 2.1-.5 2.1-1.6 0-2.2-5.6-1.8-5.6-5 0-1.8 1.6-2.7 3.6-2.7 1 0 3 .4 3 1.8v.9h-1.3v-.5c0-.7-1.1-1-1.7-1-1.4 0-2.2.5-2.2 1.5 0 2.3 5.6 1.7 5.6 5.1 0 1.7-1.5 2.8-3.5 2.8-2.6 0-3.8-1.8-3.8-1.8l.7-1zm8.8 0s1.1 1.5 3.1 1.5c1.1 0 2.1-.5 2.1-1.6 0-2.2-5.6-1.8-5.6-5 0-1.8 1.6-2.7 3.6-2.7 1 0 3 .4 3 1.8v.9h-1.3v-.5c0-.7-1.1-1-1.7-1-1.4 0-2.2.5-2.2 1.5 0 2.3 5.6 1.7 5.6 5.1 0 1.7-1.5 2.8-3.5 2.8-2.6 0-3.8-1.8-3.8-1.8l.7-1zm13.5-7.8c2.9 0 5.3 2.2 5.3 5.2s-2.4 5.3-5.3 5.3-5.3-2.3-5.3-5.3 2.4-5.2 5.3-5.2zm0 9.3c2.1 0 3.9-1.8 3.9-4.1s-1.8-4-3.9-4c-2.2 0-3.9 1.7-3.9 4s1.7 4.1 3.9 4.1zm13.3-7.5c0-.3-.2-.4-.4-.4h-.8v-1.2h1.4c.9 0 1.2.4 1.2 1.2v7.2c0 .3.2.4.4.4h.8v1.2h-1.4c-.9 0-1.2-.4-1.2-1.2v-7.2zm0-5.6h1.3v1.7h-1.3v-1.7zm4.9 5.6c0-.3-.2-.4-.4-.4h-.8v-1.2h1.4c.8 0 1.2.4 1.2 1.1v1.2c.5-1.4 2.1-2.5 3.6-2.5 1.9 0 2.8.9 3.1 2.5.5-1.4 2-2.5 3.7-2.5 2.4 0 3.3 1.4 3.3 3.9v4.8c0 .3.2.4.4.4h.8v1.2h-1.4c-.9 0-1.2-.4-1.2-1.2v-4.8c0-1.6-.3-3-2.2-3-1.5 0-2.8 1.4-3.2 2.8-.1.4-.2.9-.2 1.5v4.7h-1.4v-6c0-1.5-.2-3-2.1-3-1.6 0-2.8 1.4-3.3 2.9-.1.4-.2.9-.2 1.3v4.7h-1.4v-8.4zm18.5 0c0-.3-.2-.4-.4-.4h-.8v-1.2h1.4c.9 0 1.2.4 1.2 1.1v.7s.8-2 3.4-2c2.7 0 4.4 2.2 4.4 5.3 0 3.2-1.9 5.2-4.5 5.2-2.4 0-3.3-1.9-3.3-1.9v5.7h-1.4v-12.5zm4.5 7.5c1.8 0 3.2-1.5 3.2-4 0-2.4-1.3-4-3.2-4-1.7 0-3.2 1.2-3.2 4 .1 2 1.1 4 3.2 4zm12.3-5.2h.6v-.1c0-2.1-.8-2.8-2.6-2.8-.5 0-2 .1-2 .9v.6h-1.3v-1c0-1.4 2.4-1.7 3.3-1.7 3.2 0 3.9 1.7 3.9 3.8v4.8c0 .3.2.4.4.4h.8v1.2h-1.4c-.9 0-1.2-.4-1.2-1.2v-.7s-.8 2.2-3.3 2.2c-1.7 0-3.4-1-3.4-3 .1-3.3 4.5-3.4 6.2-3.4zm-2.5 5.2c1.9 0 3.1-2 3.1-3.7v-.5h-.6c-1.6 0-4.7 0-4.7 2.3 0 1 .7 1.9 2.2 1.9zm8-7.9h-1.3v-1.1h1.3v-2.8h1.3v2.8h2.5v1.1h-2.5v5.1c0 2.3 1.5 2.6 2.3 2.6h.5v1.2h-.6c-1.2 0-3.5-.4-3.5-3.7v-5.2zm6.6 0h-1.3v-1.1h1.3v-2.8h1.3v2.8h2.5v1.1h-2.5v5.1c0 2.3 1.5 2.6 2.3 2.6h.5v1.2h-.6c-1.2 0-3.5-.4-3.5-3.7v-5.2zm10.7-1.4c2.9 0 5.3 2.2 5.3 5.2s-2.4 5.3-5.3 5.3-5.3-2.3-5.3-5.3c.1-3 2.4-5.2 5.3-5.2zm.1 9.3c2.1 0 3.9-1.8 3.9-4.1s-1.8-4-3.9-4c-2.2 0-3.9 1.7-3.9 4s1.7 4.1 3.9 4.1zm-109.9 16.7h.6v-.1c0-2.1-.8-2.8-2.6-2.8-.5 0-2 .1-2 .9v.6h-1.3v-1c0-1.4 2.4-1.7 3.3-1.7 3.2 0 3.9 1.7 3.9 3.8v4.8c0 .3.2.4.4.4h.8v1.2h-1.4c-.9 0-1.2-.4-1.2-1.2v-.7s-.8 2.2-3.3 2.2c-1.7 0-3.4-1-3.4-3 .1-3.3 4.5-3.4 6.2-3.4zm-2.5 5.2c1.9 0 3.1-2 3.1-3.7v-.5h-.6c-1.6 0-4.7 0-4.7 2.3 0 1 .7 1.9 2.2 1.9zm7.9-7.5c0-.3-.2-.4-.4-.4h-.8v-1.2h1.4c.8 0 1.2.4 1.2 1.1v1.2c.5-1.4 2.1-2.5 3.6-2.5 1.9 0 2.8.9 3.1 2.5.5-1.4 2-2.5 3.7-2.5 2.4 0 3.3 1.4 3.3 3.9v4.8c0 .3.2.4.4.4h.8v1.2H523c-.9 0-1.2-.4-1.2-1.2v-4.8c0-1.6-.3-3-2.2-3-1.5 0-2.8 1.4-3.2 2.8-.1.4-.2.9-.2 1.5v4.7H515v-6c0-1.5-.2-3-2.1-3-1.6 0-2.8 1.4-3.3 2.9-.1.4-.2.9-.2 1.3v4.7H508v-8.4zm18.5-3.9c0-.3-.2-.4-.4-.4h-.8v-1.2h1.4c.9 0 1.2.4 1.2 1.2v4.4s.8-1.9 3.4-1.9c2.7 0 4.4 2.2 4.4 5.3 0 3.2-1.9 5.2-4.5 5.2-2.4 0-3.3-1.9-3.3-1.9v1.7h-1.3v-12.4zm4.5 11.4c1.8 0 3.2-1.5 3.2-4 0-2.4-1.3-4-3.2-4-1.7 0-3.2 1.2-3.2 4 0 2 1 4 3.2 4zm7.2-7.5c0-.3-.2-.4-.4-.4h-.8v-1.2h1.4c.9 0 1.2.4 1.2 1.2v7.2c0 .3.2.4.4.4h.8v1.2h-1.4c-.9 0-1.2-.4-1.2-1.2v-7.2zm0-5.6h1.3v1.7h-1.3v-1.7zm8.9 3.8c2.8 0 4.2 2.1 4.2 4.6v.7h-7.7c0 2.5 1.8 4 3.9 4 1.8 0 3-1.2 3-1.2l.7 1s-1.5 1.4-3.7 1.4c-3 0-5.2-2.2-5.2-5.2-.1-3.3 2.2-5.3 4.8-5.3zm2.9 4.2c-.1-2.1-1.4-3.1-2.8-3.1-1.7 0-3.1 1.1-3.4 3.1h6.2zm4.1-2.4c0-.3-.2-.4-.4-.4h-.8v-1.2h1.4c.8 0 1.2.4 1.2 1.1v1.2c.4-.9 1.6-2.5 4-2.5 2.5 0 3.4 1.4 3.4 3.9v4.8c0 .3.2.4.4.4h.8v1.2h-1.4c-.9 0-1.2-.4-1.2-1.2v-4.8c0-1.6-.2-3-2.2-3-1.7 0-3.2 1.2-3.6 2.8-.1.4-.2.9-.2 1.4v4.8h-1.4v-8.5zm12.2-.4h-1.3v-1.1h1.3v-2.8h1.3v2.8h2.5v1.1h-2.5v5.1c0 2.3 1.5 2.6 2.3 2.6h.5v1.2h-.6c-1.2 0-3.5-.4-3.5-3.7v-5.2zm11.6 2.7h.6v-.1c0-2.1-.8-2.8-2.6-2.8-.5 0-2 .1-2 .9v.6h-1.3v-1c0-1.4 2.4-1.7 3.3-1.7 3.2 0 3.9 1.7 3.9 3.8v4.8c0 .3.2.4.4.4h.8v1.2h-1.4c-.9 0-1.2-.4-1.2-1.2v-.7s-.8 2.2-3.3 2.2c-1.7 0-3.4-1-3.4-3 .1-3.3 4.5-3.4 6.2-3.4zm-2.5 5.2c1.9 0 3.1-2 3.1-3.7v-.5h-.6c-1.6 0-4.7 0-4.7 2.3-.1 1 .7 1.9 2.2 1.9zm7.8-11.4c0-.3-.2-.4-.4-.4h-.9v-1.2h1.4c.9 0 1.2.4 1.2 1.2v11.2c0 .3.2.4.4.4h.8v1.2h-1.4c-.9 0-1.2-.4-1.2-1.2v-11.2zm8.9 2.1c2.8 0 4.2 2.1 4.2 4.6v.7h-7.7c0 2.5 1.8 4 3.9 4 1.8 0 3-1.2 3-1.2l.7 1s-1.5 1.4-3.7 1.4c-3 0-5.2-2.2-5.2-5.2-.1-3.3 2.1-5.3 4.8-5.3zm2.8 4.2c-.1-2.1-1.4-3.1-2.8-3.1-1.7 0-3.1 1.1-3.4 3.1h6.2zm111.6-82.8h-1.3v-1.2h8c.9 0 1.2.4 1.2 1.2v1.4h-1.3v-.9c0-.3-.2-.4-.4-.4H708v5.1h5.3v1.2H708v4.8c0 .3.2.4.4.4h4.9c.3 0 .4-.1.4-.4v-.9h1.3v1.4c0 .9-.4 1.2-1.2 1.2h-6.1c-.9 0-1.2-.4-1.2-1.2v-11.7zm14.3 2.5c2.4 0 3.3 1.9 3.3 1.9v-4c0-.3-.2-.4-.4-.4h-.8v-1.2h1.4c.9 0 1.2.4 1.2 1.2v11.2c0 .3.2.4.4.4h.8v1.2h-1.4c-.8 0-1.2-.4-1.2-1.1v-.6s-.8 2-3.4 2c-2.7 0-4.4-2.2-4.4-5.3 0-3.2 1.8-5.3 4.5-5.3zm3.3 5.3c0-2-1-4-3.2-4-1.8 0-3.2 1.5-3.2 4s1.3 4 3.2 4c1.6 0 3.2-1.2 3.2-4zm4.7-3.4c0-.3-.2-.4-.4-.4h-.8v-1.2h1.4c.9 0 1.2.4 1.2 1.2v4.8c0 1.6.3 3 2.2 3 2.3 0 3.7-2 3.7-4.2v-4.8h1.4v8.4c0 .3.2.4.4.4h.8v1.2h-1.4c-.8 0-1.2-.4-1.2-1.1v-1.2c-.4 1-1.7 2.5-3.9 2.5-2.4 0-3.4-1.3-3.4-3.9v-4.7zm16.4-1.9c1.1 0 3.6.5 3.6 2.1v.9h-1.3v-.6c0-.8-1.5-1.2-2.3-1.2-2.2 0-3.9 1.6-3.9 4 0 2.5 1.8 4 3.9 4 2.1 0 3.2-1.4 3.2-1.4l.6 1s-1.4 1.6-3.9 1.6c-3 0-5.3-2.1-5.3-5.2.1-3 2.4-5.2 5.4-5.2zm11.4 4.1h.6v-.1c0-2.1-.8-2.8-2.6-2.8-.5 0-2 .1-2 .9v.6h-1.3v-1c0-1.4 2.4-1.7 3.3-1.7 3.2 0 3.9 1.7 3.9 3.8v4.8c0 .3.2.4.4.4h.8v1.2h-1.4c-.9 0-1.2-.4-1.2-1.2v-.7s-.8 2.2-3.3 2.2c-1.7 0-3.4-1-3.4-3 .1-3.3 4.5-3.4 6.2-3.4zm-2.5 5.3c1.9 0 3.1-2 3.1-3.7v-.5h-.6c-1.6 0-4.7 0-4.7 2.3-.1.9.7 1.9 2.2 1.9zm6.9 0l5.6-7c.4-.5.8-.9.8-.9h-4.7c-.3 0-.4.1-.4.4v.8h-1.3v-1.2c0-.9.4-1.2 1.2-1.2h6.9v.9l-5.6 7c-.4.5-.8.9-.8.9h5.1c.3 0 .4-.1.4-.4v-.8h1.3v1.2c0 .9-.4 1.2-1.2 1.2H761v-.9zm11-7.5c0-.3-.2-.4-.4-.4h-.8v-1.2h1.4c.9 0 1.2.4 1.2 1.2v7.2c0 .3.2.4.4.4h.8v1.2h-1.4c-.9 0-1.2-.4-1.2-1.2v-7.2zm-.1-5.6h1.3v1.7H772v-1.7zm9.3 3.7c2.9 0 5.3 2.2 5.3 5.2s-2.4 5.3-5.3 5.3-5.3-2.3-5.3-5.3 2.4-5.2 5.3-5.2zm0 9.3c2.1 0 3.9-1.8 3.9-4.1s-1.8-4-3.9-4c-2.2 0-3.9 1.7-3.9 4s1.8 4.1 3.9 4.1zm7.8-7.4c0-.3-.2-.4-.4-.4h-.8v-1.2h1.4c.8 0 1.2.4 1.2 1.1v1.2c.4-.9 1.6-2.5 4-2.5 2.5 0 3.4 1.4 3.4 3.9v4.8c0 .3.2.4.4.4h.8v1.2h-1.4c-.9 0-1.2-.4-1.2-1.2v-4.8c0-1.6-.2-3-2.2-3-1.7 0-3.2 1.2-3.6 2.8-.1.4-.2.9-.2 1.4v4.8h-1.4v-8.5zm16.1-1.9c2.8 0 4.2 2.1 4.2 4.6v.7h-7.7c0 2.5 1.8 4 3.9 4 1.8 0 3-1.2 3-1.2l.7 1s-1.5 1.4-3.7 1.4c-3 0-5.2-2.2-5.2-5.2-.1-3.3 2.1-5.3 4.8-5.3zm2.8 4.2c-.1-2.1-1.4-3.1-2.8-3.1-1.7 0-3.1 1.1-3.4 3.1h6.2zm-67.3 17.7c2.4 0 3.3 1.9 3.3 1.9v-4c0-.3-.2-.4-.4-.4h-.8v-1.2h1.4c.9 0 1.2.4 1.2 1.2v11.2c0 .3.2.4.4.4h.8v1.2h-1.4c-.8 0-1.2-.4-1.2-1.1v-.6s-.8 2-3.4 2c-2.7 0-4.4-2.2-4.4-5.3 0-3.2 1.9-5.3 4.5-5.3zm3.3 5.3c0-2-1-4-3.2-4-1.8 0-3.2 1.5-3.2 4s1.3 4 3.2 4c1.7 0 3.2-1.2 3.2-4zm8.8-5.3c2.8 0 4.2 2.1 4.2 4.6v.7h-7.7c0 2.5 1.8 4 3.9 4 1.8 0 3-1.2 3-1.2l.7 1s-1.5 1.4-3.7 1.4c-3 0-5.2-2.2-5.2-5.2-.1-3.3 2.2-5.3 4.8-5.3zm2.9 4.2c-.1-2.1-1.4-3.1-2.8-3.1-1.7 0-3.1 1.1-3.4 3.1h6.2zm7.5-4.2c2.7 0 3.3 1.7 3.3 1.7v-.4c0-.7.3-1.1 1.1-1.1h1.4v1.2h-.8c-.3 0-.4.1-.4.4v8.2c0 3.2-2.3 4.4-4.8 4.4-1.1 0-2.3-.3-3.3-.8l.5-1.1s1.2.7 2.7.7c2 0 3.5-.9 3.5-3.1v-1.6c-.6 1.1-1.6 1.7-3.1 1.7-2.7 0-4.5-2.1-4.5-5.1.1-3 1.7-5.1 4.4-5.1zm3.3 5.1c0-2.9-1.4-3.8-3.2-3.8-2 0-3.1 1.4-3.1 3.8s1.3 3.9 3.3 3.9c1.6 0 3-1 3-3.9zm4.8-7.2c0-.3-.2-.4-.4-.4h-.9v-1.2h1.4c.9 0 1.2.4 1.2 1.2v11.2c0 .3.2.4.4.4h.8v1.2h-1.4c-.9 0-1.2-.4-1.2-1.2v-11.2zm5 4c0-.3-.2-.4-.4-.4h-.9v-1.2h1.4c.9 0 1.2.4 1.2 1.2v7.2c0 .3.2.4.4.4h.8v1.2h-1.4c-.9 0-1.2-.4-1.2-1.2v-7.2zm-.1-5.6h1.3v1.7h-1.3v-1.7zM688 151.8h.6v-.1c0-2.1-.8-2.8-2.6-2.8-.5 0-2 .1-2 .9v.6h-1.3v-1c0-1.4 2.4-1.7 3.3-1.7 3.2 0 3.9 1.7 3.9 3.8v4.8c0 .3.2.4.4.4h.8v1.2h-1.4c-.9 0-1.2-.4-1.2-1.2v-.7s-.8 2.2-3.3 2.2c-1.7 0-3.4-1-3.4-3 .1-3.3 4.5-3.4 6.2-3.4zm-2.5 5.3c1.9 0 3.1-2 3.1-3.7v-.5h-.6c-1.6 0-4.7 0-4.7 2.3 0 .9.7 1.9 2.2 1.9zm7.8-7.5c0-.3-.2-.4-.4-.4h-.9V148h1.4c.9 0 1.2.4 1.2 1.2v4.8c0 1.6.3 3 2.2 3 2.3 0 3.7-2 3.7-4.2V148h1.4v8.4c0 .3.2.4.4.4h.8v1.2h-1.4c-.8 0-1.2-.4-1.2-1.1v-1.2c-.4 1-1.7 2.5-3.9 2.5-2.4 0-3.4-1.3-3.4-3.9v-4.7zm12.2-.5h-1.3V148h1.3v-2.8h1.3v2.8h2.5v1.1h-2.5v5.1c0 2.3 1.5 2.6 2.3 2.6h.5v1.2h-.6c-1.2 0-3.5-.4-3.5-3.7v-5.2zm10.7-1.4c2.9 0 5.3 2.2 5.3 5.2s-2.4 5.3-5.3 5.3-5.3-2.3-5.3-5.3 2.4-5.2 5.3-5.2zm0 9.3c2.1 0 3.9-1.8 3.9-4.1s-1.8-4-3.9-4c-2.2 0-3.9 1.7-3.9 4s1.7 4.1 3.9 4.1zm7.9-7.9h-1.3V148h1.3v-2.8h1.3v2.8h2.5v1.1h-2.5v5.1c0 2.3 1.5 2.6 2.3 2.6h.5v1.2h-.6c-1.2 0-3.5-.4-3.5-3.7v-5.2zm6.6.5c0-.3-.2-.4-.4-.4h-.8V148h1.4c.8 0 1.2.3 1.2 1.1v1.5c.5-1.5 1.6-2.7 3.2-2.7.3 0 .5.1.5.1v1.3h-.5c-1.4 0-2.5 1.1-2.9 2.6-.2.6-.3 1.3-.3 2v4.2h-1.4v-8.5zm11.7 2.2h.6v-.1c0-2.1-.8-2.8-2.6-2.8-.5 0-2 .1-2 .9v.6h-1.3v-1c0-1.4 2.4-1.7 3.3-1.7 3.2 0 3.9 1.7 3.9 3.8v4.8c0 .3.2.4.4.4h.8v1.2h-1.4c-.9 0-1.2-.4-1.2-1.2v-.7s-.8 2.2-3.3 2.2c-1.7 0-3.4-1-3.4-3 .1-3.3 4.5-3.4 6.2-3.4zm-2.5 5.3c1.9 0 3.1-2 3.1-3.7v-.5h-.6c-1.6 0-4.7 0-4.7 2.3 0 .9.7 1.9 2.2 1.9zm7.5-1.6s1.1 1.5 3.1 1.5c1.1 0 2.1-.5 2.1-1.6 0-2.2-5.6-1.8-5.6-5 0-1.8 1.6-2.7 3.6-2.7 1 0 3 .4 3 1.8v.9h-1.3v-.5c0-.7-1.1-1-1.7-1-1.4 0-2.2.5-2.2 1.5 0 2.3 5.6 1.7 5.6 5.1 0 1.7-1.5 2.8-3.5 2.8-2.6 0-3.8-1.8-3.8-1.8l.7-1zm9.1-5.9c0-.3-.2-.4-.4-.4h-.8V148h1.4c.9 0 1.2.4 1.2 1.1v.7s.8-2 3.4-2c2.7 0 4.4 2.2 4.4 5.3 0 3.2-1.9 5.2-4.5 5.2-2.4 0-3.3-1.9-3.3-1.9v5.7h-1.4v-12.5zm4.5 7.4c1.8 0 3.2-1.5 3.2-4 0-2.4-1.3-4-3.2-4-1.7 0-3.2 1.2-3.2 4 0 2 1.1 4 3.2 4zm11.5-9.3c2.9 0 5.3 2.2 5.3 5.2s-2.4 5.3-5.3 5.3-5.3-2.3-5.3-5.3c.1-3 2.4-5.2 5.3-5.2zm.1 9.3c2.1 0 3.9-1.8 3.9-4.1s-1.8-4-3.9-4c-2.2 0-3.9 1.7-3.9 4s1.7 4.1 3.9 4.1zm7.8-7.4c0-.3-.2-.4-.4-.4h-.8V148h1.4c.8 0 1.2.3 1.2 1.1v1.5c.5-1.5 1.6-2.7 3.2-2.7.3 0 .5.1.5.1v1.3h-.5c-1.4 0-2.5 1.1-2.9 2.6-.2.6-.3 1.3-.3 2v4.2h-1.4v-8.5zm7.3-.5h-1.3V148h1.3v-2.8h1.3v2.8h2.5v1.1H789v5.1c0 2.3 1.5 2.6 2.3 2.6h.5v1.2h-.6c-1.2 0-3.5-.4-3.5-3.7v-5.2zm11.6 2.7h.6v-.1c0-2.1-.8-2.8-2.6-2.8-.5 0-2 .1-2 .9v.6H794v-1c0-1.4 2.4-1.7 3.3-1.7 3.2 0 3.9 1.7 3.9 3.8v4.8c0 .3.2.4.4.4h.8v1.2H801c-.9 0-1.2-.4-1.2-1.2v-.7s-.8 2.2-3.3 2.2c-1.7 0-3.4-1-3.4-3 .1-3.3 4.5-3.4 6.2-3.4zm-2.5 5.3c1.9 0 3.1-2 3.1-3.7v-.5h-.6c-1.6 0-4.7 0-4.7 2.3 0 .9.7 1.9 2.2 1.9zm7.9-8h-1.3V148h1.3v-2.8h1.3v2.8h2.5v1.1H806v5.1c0 2.3 1.5 2.6 2.3 2.6h.5v1.2h-.6c-1.2 0-3.5-.4-3.5-3.7v-5.2zm10.7-1.4c2.9 0 5.3 2.2 5.3 5.2s-2.4 5.3-5.3 5.3-5.3-2.3-5.3-5.3c.1-3 2.4-5.2 5.3-5.2zm.1 9.3c2.1 0 3.9-1.8 3.9-4.1s-1.8-4-3.9-4c-2.2 0-3.9 1.7-3.9 4s1.7 4.1 3.9 4.1zm7.8-7.4c0-.3-.2-.4-.4-.4h-.9V148h1.4c.8 0 1.2.3 1.2 1.1v1.5c.5-1.5 1.6-2.7 3.2-2.7.3 0 .5.1.5.1v1.3h-.5c-1.4 0-2.5 1.1-2.9 2.6-.2.6-.3 1.3-.3 2v4.2h-1.4v-8.5zm7.3 0c0-.3-.2-.4-.4-.4h-.8V148h1.4c.9 0 1.2.4 1.2 1.2v7.2c0 .3.2.4.4.4h.8v1.2h-1.4c-.9 0-1.2-.4-1.2-1.2v-7.2zm-.1-5.6h1.3v1.7h-1.3V144z"/></svg>