<svg baseProfile="basic" id="Livello_1" xmlns="http://www.w3.org/2000/svg" viewBox="0 0 1008 523"><style>.st0,.st1{fill:none;stroke:#00295a;stroke-miterlimit:10}.st1{stroke-linecap:round;stroke-dasharray:0,5}.st2{fill:#4e5594}.st3{fill:#72c2e1}</style><path class="st0" d="M939.6 474.8H73.8c-3.4 0-6.1-2.7-6.1-6.1V15.1"/><path class="st1" d="M126.1 19.3h775.7M126.1 77.2h775.7M126.1 135h775.7m-775.7 57.9h775.7m-775.7 57.8h775.7m-775.7 57.8h775.7m-775.7 57.9h775.7m-775.7 57.8h775.7"/><path class="st2" d="M334.2 493.3c2.6 0 3.9 1.3 3.9 1.3l-.9 1.1s-1.2-1.1-3-1.1c-2.2 0-3.9 1.8-3.9 4.2 0 2.5 1.8 4.3 4 4.3 2 0 3.1-1.4 3.1-1.4v-1.1c0-.2-.1-.3-.3-.3h-.7V499h1.4c.7 0 1 .3 1 1v4.4h-1.4v-1.2s-1.2 1.3-3.4 1.3c-2.9 0-5.3-2.3-5.3-5.7-.1-3 2.3-5.5 5.5-5.5zm7.4 4.9c0-.2-.1-.3-.3-.3h-.6v-1.3h1.4c.7 0 1 .3 1 .9v1c.4-1.1 1.3-2 2.5-2h.4v1.5h-.5c-1 0-1.8.7-2.2 1.8-.1.4-.2.9-.2 1.4v3.2h-1.5v-6.2zm10.1 1.3h.3v-.1c0-1.4-.5-1.9-1.7-1.9-.4 0-1.3.1-1.3.6v.5h-1.4v-.8c0-1.3 2-1.5 2.7-1.5 2.5 0 3.2 1.3 3.2 3.1v3.3c0 .2.1.3.3.3h.6v1.3H353c-.7 0-1-.3-1-.9v-.5s-.6 1.6-2.5 1.6c-1.4 0-2.7-.8-2.7-2.4.2-2.4 3.6-2.6 4.9-2.6zm-1.7 3.9c1.3 0 2.1-1.3 2.1-2.5v-.3h-.4c-1.1 0-3.2.1-3.2 1.5 0 .7.5 1.3 1.5 1.3zm6.8-5.2c0-.2-.1-.3-.3-.3h-.6v-1.3h1.4c.7 0 1 .3 1 .9v.7c.4-.9 1.5-1.8 2.7-1.8 1.3 0 2.1.6 2.4 1.8.4-.9 1.5-1.8 2.8-1.8 1.8 0 2.6 1 2.6 3v3.4c0 .2.1.3.3.3h.6v1.3h-1.5c-.7 0-1-.3-1-1v-3.7c0-1.1-.2-2-1.4-2-1.1 0-1.9.9-2.2 2-.1.3-.1.7-.1 1.1v3.6H362v-4.7c0-1-.2-2-1.4-2-1.1 0-2 1-2.2 2.1-.1.3-.1.7-.1 1v3.6h-1.5v-6.2zm15.2 0c0-.2-.1-.3-.3-.3h-.7v-1.3h1.4c.7 0 1 .3 1 .9v.7c.4-.9 1.5-1.8 2.7-1.8 1.3 0 2.1.6 2.4 1.8.4-.9 1.5-1.8 2.8-1.8 1.8 0 2.6 1 2.6 3v3.4c0 .2.1.3.3.3h.6v1.3h-1.5c-.7 0-1-.3-1-1v-3.7c0-1.1-.2-2-1.4-2-1.1 0-1.9.9-2.2 2-.1.3-.1.7-.1 1.1v3.6h-1.5v-4.7c0-1-.2-2-1.4-2-1.1 0-2 1-2.2 2.1-.1.3-.1.7-.1 1v3.6H372v-6.2zm15.2 0c0-.2-.1-.3-.3-.3h-.6v-1.3h1.5c.7 0 1 .3 1 1v5.2c0 .2.1.3.3.3h.6v1.3h-1.5c-.7 0-1-.3-1-1v-5.2zm0-4.7h1.3v1.6h-1.3v-1.6zm12.4 2.9c1.8 0 2.4 1.2 2.4 1.2v-2.5c0-.2-.1-.3-.3-.3h-.6v-1.3h1.5c.7 0 1 .3 1 1v8.3c0 .2.1.3.3.3h.6v1.3h-1.4c-.7 0-1-.3-1-.8v-.4s-.7 1.4-2.6 1.4c-2.1 0-3.5-1.7-3.5-4.1.1-2.5 1.5-4.1 3.6-4.1zm2.5 4.1c0-1.4-.7-2.8-2.2-2.8-1.2 0-2.2 1-2.2 2.8 0 1.7.9 2.8 2.2 2.8 1.1 0 2.2-.8 2.2-2.8zm4.8-2.3c0-.2-.1-.3-.3-.3h-.6v-1.3h1.5c.7 0 1 .3 1 1v5.2c0 .2.1.3.3.3h.6v1.3h-1.5c-.7 0-1-.3-1-1v-5.2zm0-4.7h1.3v1.6h-1.3v-1.6zm14.3-.2c1.5 0 4.1.6 4.1 2.4v1.1h-1.4v-.6c0-.9-1.6-1.4-2.7-1.4-2.2 0-3.9 1.7-3.9 4.1s1.7 4.3 4 4.3c2.2 0 3.5-1.5 3.5-1.5l.8 1.1s-1.6 1.8-4.3 1.8c-3.3 0-5.6-2.5-5.6-5.8 0-3.1 2.4-5.5 5.5-5.5zm11.6 0c3.2 0 5.6 2.4 5.6 5.6s-2.5 5.7-5.6 5.7-5.6-2.5-5.6-5.7c-.1-3.2 2.4-5.6 5.6-5.6zm0 9.9c2.2 0 4-1.9 4-4.3 0-2.3-1.8-4.1-4-4.1s-4 1.8-4 4.1c0 2.4 1.7 4.3 4 4.3zm12.9-6.7c0-1-.7-1.7-1.9-1.7-1 0-1.7.5-1.7 1v.5h-1.4v-.9c0-1.4 1.9-2 3.2-2 2 0 3.4 1.3 3.4 3.1 0 3.8-5.6 3.8-5.6 6.4 0 .2.1.3.4.3h3.9c.2 0 .3-.1.3-.3v-.7h1.4v1.4c0 .7-.3 1-1 1h-5.6c-.9 0-1-.4-1-1.3 0-4.2 5.6-3.9 5.6-6.8zm9.5 1.7c0-.2-.1-.3-.3-.3h-.6v-1.3h1.4c.7 0 1 .3 1 .8v.4s.7-1.4 2.6-1.4c2.1 0 3.5 1.7 3.5 4.1 0 2.5-1.5 4.1-3.6 4.1-1.7 0-2.4-1.3-2.4-1.3v4.2h-1.5v-9.3h-.1zm3.7 5.1c1.2 0 2.3-1 2.3-2.8 0-1.7-.9-2.8-2.2-2.8-1.2 0-2.3.8-2.3 2.8-.1 1.4.7 2.8 2.2 2.8zm9.5-6.9c2.2 0 3.4 1.6 3.4 3.7v.6H466c.1 1.7 1.3 2.6 2.7 2.6 1.4 0 2.3-.9 2.3-.9l.7 1.1s-1.2 1.1-3 1.1c-2.5 0-4.2-1.8-4.2-4.1-.1-2.5 1.6-4.1 3.9-4.1zm1.8 3.2c0-1.3-.9-2-1.8-2-1.1 0-2.1.7-2.3 2h4.1zm4.2-1.4c0-.2-.1-.3-.3-.3h-.6v-1.3h1.4c.7 0 1 .3 1 .9v1c.4-1.1 1.3-2 2.5-2h.4v1.5h-.5c-1 0-1.8.7-2.2 1.8-.1.4-.2.9-.2 1.4v3.2h-1.5v-6.2zm11.4-3.1c0-.2-.1-.3-.3-.3h-.6v-1.3h1.5c.7 0 1 .3 1 1v8.3c0 .2.1.3.3.3h.6v1.3h-1.5c-.7 0-1-.3-1-1v-8.3zm4.8 3.1c0-.2-.1-.3-.3-.3h-.6v-1.3h1.5c.7 0 1 .3 1 1v5.2c0 .2.1.3.3.3h.6v1.3h-1.5c-.7 0-1-.3-1-1v-5.2zm.1-4.7h1.3v1.6h-1.3v-1.6zm4.8 4.3h-1v-1.2h1.1v-2.2h1.5v2.2h1.9v1.2h-2v3.6c0 1.6 1.1 1.8 1.7 1.8h.4v1.3h-.5c-1 0-3-.3-3-2.9v-3.8h-.1zm6 .4c0-.2-.1-.3-.3-.3h-.6v-1.3h1.4c.7 0 1 .3 1 .9v1c.4-1.1 1.3-2 2.5-2h.4v1.5h-.4c-1 0-1.8.7-2.2 1.8-.1.4-.2.9-.2 1.4v3.2h-1.5l-.1-6.2zm9.8-1.8c2.3 0 4.2 1.7 4.2 4.1s-1.9 4.1-4.2 4.1-4.2-1.7-4.2-4.1c0-2.4 1.9-4.1 4.2-4.1zm0 6.9c1.5 0 2.7-1.2 2.7-2.8 0-1.6-1.2-2.8-2.7-2.8s-2.7 1.2-2.7 2.8c0 1.6 1.2 2.8 2.7 2.8zm14.4-6.9c1.8 0 2.4 1.2 2.4 1.2v-2.5c0-.2-.1-.3-.3-.3h-.6v-1.3h1.5c.7 0 1 .3 1 1v8.3c0 .2.1.3.3.3h.6v1.3h-1.4c-.7 0-1-.3-1-.8v-.4s-.7 1.4-2.6 1.4c-2.1 0-3.5-1.7-3.5-4.1 0-2.5 1.5-4.1 3.6-4.1zm2.4 4.1c0-1.4-.7-2.8-2.2-2.8-1.2 0-2.2 1-2.2 2.8 0 1.7.9 2.8 2.2 2.8 1.1 0 2.2-.8 2.2-2.8zm4.8-2.3c0-.2-.1-.3-.3-.3h-.6v-1.3h1.5c.7 0 1 .3 1 1v5.2c0 .2.1.3.3.3h.6v1.3h-1.5c-.7 0-1-.3-1-1v-5.2zm.1-4.7h1.3v1.6H533v-1.6zm13.5 6h.3v-.1c0-1.4-.5-1.9-1.7-1.9-.4 0-1.3.1-1.3.6v.5h-1.4v-.8c0-1.3 2-1.5 2.7-1.5 2.5 0 3.2 1.3 3.2 3.1v3.3c0 .2.1.3.3.3h.6v1.3h-1.4c-.7 0-1-.3-1-.9v-.5s-.6 1.6-2.5 1.6c-1.4 0-2.7-.8-2.7-2.4.2-2.4 3.6-2.6 4.9-2.6zm-1.7 3.9c1.3 0 2.1-1.3 2.1-2.5v-.3h-.4c-1.1 0-3.2.1-3.2 1.5 0 .7.5 1.3 1.5 1.3zm10.3-7c.9 0 2.8.4 2.8 1.7v.8h-1.4v-.4c0-.6-.9-.8-1.5-.8-1.5 0-2.7 1.1-2.7 2.8 0 1.8 1.3 2.8 2.8 2.8s2.4-1.1 2.4-1.1l.7 1.1s-1.1 1.4-3.2 1.4c-2.5 0-4.2-1.8-4.2-4.1 0-2.4 1.7-4.2 4.3-4.2zm8.2 0c1.9 0 2.5 1.3 2.5 1.3v-.4c0-.5.3-.7 1-.7h1.4v1.3h-.6c-.2 0-.3.1-.3.3v9.3h-1.5v-4.2s-.7 1.3-2.5 1.3c-2.1 0-3.4-1.7-3.4-4.1-.1-2.5 1.3-4.1 3.4-4.1zm2.5 4.1c0-1.4-.7-2.8-2.2-2.8-1.2 0-2.3 1-2.3 2.8 0 1.7.9 2.8 2.2 2.8 1.2 0 2.3-.8 2.3-2.8zm4.7-2.3c0-.2-.1-.3-.3-.3h-.6v-1.3h1.5c.7 0 1 .3 1 1v3.7c0 1.1.2 2 1.5 2 1.6 0 2.6-1.4 2.6-3v-3.7h1.5v6.2c0 .2.1.3.3.3h.6v1.3H577c-.7 0-1-.3-1-.9v-.7c-.3.8-1.3 1.8-2.9 1.8-1.8 0-2.7-.9-2.7-3v-3.4h.1zm14.2 1.3h.3v-.1c0-1.4-.5-1.9-1.7-1.9-.4 0-1.3.1-1.3.6v.5h-1.4v-.8c0-1.3 2-1.5 2.7-1.5 2.5 0 3.2 1.3 3.2 3.1v3.3c0 .2.1.3.3.3h.6v1.3H586c-.7 0-1-.3-1-.9v-.5s-.6 1.6-2.5 1.6c-1.4 0-2.7-.8-2.7-2.4.2-2.4 3.6-2.6 4.9-2.6zm-1.7 3.9c1.3 0 2.1-1.3 2.1-2.5v-.3h-.4c-1.1 0-3.2.1-3.2 1.5 0 .7.5 1.3 1.5 1.3zm11.7-5.6h-1v-1.2h1.1v-2.2h1.5v2.2h1.9v1.2h-1.9v3.6c0 1.6 1.1 1.8 1.7 1.8h.4v1.3h-.5c-1 0-3-.3-3-2.9v-3.8h-.2zm6 .4c0-.2-.1-.3-.3-.3h-.6v-1.3h1.4c.7 0 1 .3 1 .9v1c.4-1.1 1.3-2 2.5-2h.4v1.5h-.5c-1 0-1.8.7-2.2 1.8-.1.4-.2.9-.2 1.4v3.2h-1.5v-6.2zm10.1 1.3h.3v-.1c0-1.4-.5-1.9-1.7-1.9-.4 0-1.3.1-1.3.6v.5h-1.4v-.8c0-1.3 2-1.5 2.7-1.5 2.5 0 3.2 1.3 3.2 3.1v3.3c0 .2.1.3.3.3h.6v1.3h-1.4c-.7 0-1-.3-1-.9v-.5s-.6 1.6-2.5 1.6c-1.4 0-2.7-.8-2.7-2.4.2-2.4 3.6-2.6 4.9-2.6zm-1.7 3.9c1.3 0 2.1-1.3 2.1-2.5v-.3h-.4c-1.1 0-3.2.1-3.2 1.5 0 .7.5 1.3 1.5 1.3zm6.7-1.2s.9 1.2 2.4 1.2c.7 0 1.4-.3 1.4-1 0-1.4-4.3-1.3-4.3-3.8 0-1.5 1.3-2.2 2.9-2.2.9 0 2.6.3 2.6 1.5v.7h-1.4v-.4c0-.5-.7-.7-1.2-.7-.9 0-1.5.3-1.5.9 0 1.5 4.3 1.2 4.3 3.8 0 1.4-1.2 2.3-2.9 2.3-2.1 0-3.1-1.4-3.1-1.4l.8-.9zm7.8-4c0-.2-.1-.3-.3-.3h-.6v-1.3h1.4c.7 0 1 .3 1 .8v.4s.7-1.4 2.6-1.4c2.1 0 3.5 1.7 3.5 4.1 0 2.5-1.5 4.1-3.6 4.1-1.7 0-2.4-1.3-2.4-1.3v4.2h-1.5v-9.3h-.1zm3.7 5.1c1.2 0 2.3-1 2.3-2.8 0-1.7-.9-2.8-2.2-2.8-1.2 0-2.3.8-2.3 2.8-.1 1.4.7 2.8 2.2 2.8zm9.7-6.9c2.3 0 4.2 1.7 4.2 4.1s-1.9 4.1-4.2 4.1-4.2-1.7-4.2-4.1 1.9-4.1 4.2-4.1zm0 6.9c1.5 0 2.7-1.2 2.7-2.8 0-1.6-1.2-2.8-2.7-2.8s-2.7 1.2-2.7 2.8c0 1.6 1.3 2.8 2.7 2.8zm6.8-5.1c0-.2-.1-.3-.3-.3h-.6v-1.3h1.4c.7 0 1 .3 1 .9v1c.4-1.1 1.3-2 2.5-2h.4v1.5h-.4c-1 0-1.8.7-2.2 1.8-.1.4-.2.9-.2 1.4v3.2h-1.5v-6.2h-.1zm6.7-.4h-1v-1.2h1.1v-2.2h1.5v2.2h1.9v1.2h-2v3.6c0 1.6 1.1 1.8 1.7 1.8h.4v1.3h-.5c-1 0-3-.3-3-2.9v-3.8h-.1zm9.9 1.7h.3v-.1c0-1.4-.5-1.9-1.7-1.9-.4 0-1.3.1-1.3.6v.5h-1.4v-.8c0-1.3 2-1.5 2.7-1.5 2.5 0 3.2 1.3 3.2 3.1v3.3c0 .2.1.3.3.3h.6v1.3h-1.4c-.7 0-1-.3-1-.9v-.5s-.6 1.6-2.5 1.6c-1.4 0-2.7-.8-2.7-2.4.2-2.4 3.6-2.6 4.9-2.6zm-1.7 3.9c1.3 0 2.1-1.3 2.1-2.5v-.3h-.4c-1.1 0-3.2.1-3.2 1.5 0 .7.5 1.3 1.5 1.3zm6.8-5.6h-1v-1.2h1.1v-2.2h1.5v2.2h1.9v1.2h-2v3.6c0 1.6 1.1 1.8 1.7 1.8h.4v1.3h-.5c-1 0-3-.3-3-2.9v-3.8h-.1zm9.4-1.4c2.3 0 4.2 1.7 4.2 4.1s-1.9 4.1-4.2 4.1-4.2-1.7-4.2-4.1 1.8-4.1 4.2-4.1zm0 6.9c1.5 0 2.7-1.2 2.7-2.8 0-1.6-1.2-2.8-2.7-2.8s-2.7 1.2-2.7 2.8c0 1.6 1.2 2.8 2.7 2.8zm6.3-.5h1.5v1.6h-1.5v-1.6z"/><path class="st3" d="M159.4 444c0-1.2-.9-2.1-2.3-2.1-1.2 0-2.1.6-2.1 1.3v.6h-1.7v-1.1c0-1.7 2.3-2.5 3.9-2.5 2.4 0 4.2 1.6 4.2 3.8 0 4.6-6.8 4.7-6.8 7.8 0 .3.2.4.5.4h4.7c.3 0 .4-.2.4-.4v-.9h1.7v1.7c0 .9-.4 1.2-1.2 1.2h-6.8c-1 0-1.3-.5-1.3-1.5 0-5.1 6.8-4.7 6.8-8.3zm4.3 3c0-3.8 1.2-6.9 4.7-6.9 3.6 0 4.7 3 4.7 6.9s-1.2 6.9-4.7 6.9c-3.6 0-4.7-3.1-4.7-6.9zm7.5 0c0-2.9-.6-5.2-2.8-5.2s-2.8 2.3-2.8 5.2c0 2.9.6 5.2 2.8 5.2 2.2 0 2.8-2.3 2.8-5.2zm3.9 5.1h2.9v-9.4s-.2.3-.6.8l-1.2 1.2-1.1-1.2 3.2-3.1h1.7v11.7h2.9v1.6h-7.7l-.1-1.6zm15.8-8.1c0-1.2-.9-2.1-2.3-2.1-1.2 0-2.1.6-2.1 1.3v.6h-1.7v-1.1c0-1.7 2.3-2.5 3.9-2.5 2.4 0 4.2 1.6 4.2 3.8 0 4.6-6.8 4.7-6.8 7.8 0 .3.2.4.5.4h4.7c.3 0 .4-.2.4-.4v-.9h1.7v1.7c0 .9-.4 1.2-1.2 1.2h-6.8c-1 0-1.3-.5-1.3-1.5 0-5.1 6.8-4.7 6.8-8.3zM100.3 9.7c0-1.2-.9-2-2.2-2-1.1 0-2 .6-2 1.2v.6h-1.7V8.4c0-1.7 2.2-2.3 3.7-2.3 2.3 0 4 1.5 4 3.7 0 4.4-6.4 4.4-6.4 7.4 0 .3.1.3.5.3h4.5c.3 0 .4-.1.4-.4v-.8h1.7v1.6c0 .8-.3 1.2-1.2 1.2H95c-1 0-1.2-.4-1.2-1.5 0-4.8 6.5-4.4 6.5-7.9zm6 2.4s-1.6-.9-1.6-2.6c0-1.8 1.4-3.4 4-3.4 2.4 0 4 1.5 4 3.4s-1.5 3-1.5 3c1.2.7 1.9 1.5 1.9 2.9 0 2-1.8 3.7-4.4 3.7-2.4 0-4.4-1.5-4.4-3.9-.1-2 2-3.1 2-3.1zm2.4 5.5c1.3 0 2.6-.9 2.6-2.1 0-1.1-1-1.6-2.1-2.1-.5-.2-1.2-.5-1.3-.5-.5 0-1.7 1-1.7 2.4-.2 1.4 1.1 2.3 2.5 2.3zm.9-5.8c.4 0 1.4-1.1 1.4-2.2 0-1.2-.9-1.9-2.2-1.9-1.4 0-2.2.8-2.2 1.8 0 1.1 1 1.5 2.1 2 .2.1.7.3.9.3zm-8.3 55.9c0-1.2-.9-2-2.2-2-1.1 0-2 .6-2 1.2v.6h-1.7v-1.1c0-1.7 2.2-2.3 3.7-2.3 2.3 0 4 1.5 4 3.7 0 4.4-6.4 4.4-6.4 7.4 0 .3.1.3.5.3h4.5c.3 0 .4-.1.4-.4v-.8h1.7v1.6c0 .8-.3 1.2-1.2 1.2H96c-1 0-1.2-.4-1.2-1.5 0-4.8 6.5-4.4 6.5-7.9zm9.6-.7c.4-.7.7-1.2.7-1.2s-.3.1-.9.1h-3.8c-.3 0-.4.1-.4.4v.7h-1.7v-1.6c0-.8.3-1.2 1.1-1.2h7.7v1.2L107.5 77h-2l5.4-10zm-10.4 58.7c0-1.2-.9-2-2.2-2-1.1 0-2 .6-2 1.2v.6h-1.7v-1.1c0-1.7 2.2-2.3 3.7-2.3 2.3 0 4 1.5 4 3.7 0 4.4-6.4 4.4-6.4 7.4 0 .3.1.3.5.3h4.5c.3 0 .4-.1.4-.4v-.8h1.7v1.6c0 .8-.3 1.2-1.2 1.2h-6.5c-1 0-1.2-.4-1.2-1.5-.1-4.8 6.4-4.4 6.4-7.9zm3.8 3.6c0-3.3 1.8-7.3 5.7-7.3 1.5 0 2.5.5 2.5.5l-.6 1.5s-.8-.4-1.8-.4c-2.3 0-3.5 2.2-3.8 4.4.5-.8 1.7-1.2 2.8-1.2 2.4 0 4 1.8 4 4.1 0 2.5-1.7 4.2-4.1 4.2-2.6.1-4.7-2.2-4.7-5.8zm4.8 4.3c1.5 0 2.3-1.1 2.3-2.6s-1-2.6-2.6-2.6c-1.4 0-2.6.9-2.6 1.8 0 1.5 1.2 3.4 2.9 3.4zm-8.9 50.1c0-1.2-.9-2-2.2-2-1.1 0-2 .6-2 1.2v.6h-1.7v-1.1c0-1.7 2.2-2.3 3.7-2.3 2.3 0 4 1.5 4 3.7 0 4.4-6.4 4.4-6.4 7.4 0 .3.1.3.5.3h4.5c.3 0 .4-.1.4-.4v-.8h1.7v1.6c0 .8-.3 1.2-1.2 1.2H95c-1 0-1.2-.4-1.2-1.5-.1-4.8 6.4-4.4 6.4-7.9zm5.1 6.4s1 1.4 3 1.4c1.6 0 2.7-1.1 2.7-2.5 0-1.6-1.4-2.6-3-2.6-1.4 0-2.4.6-2.4.6l-.7-.3.5-5.3c.1-.8.3-1.2 1.2-1.2h4.4c.8 0 1.2.3 1.2 1.2v1.6h-1.6v-.8c0-.3-.1-.4-.4-.4h-2.7c-.3 0-.4.1-.4.4l-.3 2.3c0 .4-.1.7-.1.7s.7-.4 1.6-.4c2.7 0 4.5 1.9 4.5 4.2 0 2.2-1.8 4.2-4.6 4.2-2.6 0-3.9-1.8-3.9-1.8l1-1.3zm-4.6 51.6c0-1.2-.9-2-2.2-2-1.1 0-2 .6-2 1.2v.6h-1.7v-1.1c0-1.7 2.2-2.3 3.7-2.3 2.3 0 4 1.5 4 3.7 0 4.4-6.4 4.4-6.4 7.4 0 .3.1.3.5.3h4.5c.3 0 .4-.1.4-.4v-.8h1.7v1.6c0 .8-.3 1.2-1.2 1.2h-6.5c-1 0-1.2-.4-1.2-1.5-.1-4.8 6.4-4.4 6.4-7.9zm3.1 4.8l5.7-8.2h2.1v7.8h2v1.5h-2v3.4h-1.8v-3.4h-6v-1.1zm6-4.8c0-.6.1-1.3.1-1.3s-.3.6-.6 1.1l-2.8 3.8c-.3.5-.7.8-.7.8s.5-.1 1.1-.1h3l-.1-4.3zm-8.9 58c0-1.2-.9-2-2.2-2-1.1 0-2 .6-2 1.2v.6H95v-1.1c0-1.7 2.2-2.3 3.7-2.3 2.3 0 4 1.5 4 3.7 0 4.4-6.4 4.4-6.4 7.4 0 .3.1.3.5.3h4.5c.3 0 .4-.1.4-.4v-.8h1.7v1.6c0 .8-.3 1.2-1.2 1.2h-6.5c-1 0-1.2-.4-1.2-1.5 0-4.8 6.4-4.4 6.4-7.9zm4.6 6.4s1.3 1.4 3.2 1.4c1.4 0 2.5-1 2.5-2.3 0-1.4-1.3-2.3-2.7-2.3h-.9l-.4-1 2.6-3.3c.4-.5.7-.8.7-.8s-.4.1-1.1.1H107c-.3 0-.4.1-.4.4v.8h-1.7v-1.6c0-.8.3-1.2 1.1-1.2h6.7v1.1l-3.3 4c1.7.2 3.6 1.3 3.6 3.7 0 2.1-1.7 4-4.4 4-2.6 0-4.2-1.8-4.2-1.8l1.1-1.2zm-5.1 51.6c0-1.2-.9-2-2.2-2-1.1 0-2 .6-2 1.2v.6h-1.7v-1.1c0-1.7 2.2-2.3 3.7-2.3 2.3 0 4 1.5 4 3.7 0 4.4-6.4 4.4-6.4 7.4 0 .3.1.3.5.3h4.5c.3 0 .4-.1.4-.4v-.8h1.7v1.6c0 .8-.3 1.2-1.2 1.2h-6.5c-1 0-1.2-.4-1.2-1.5-.1-4.8 6.4-4.4 6.4-7.9zm10.3 0c0-1.2-.9-2-2.2-2-1.1 0-2 .6-2 1.2v.6h-1.7v-1.1c0-1.7 2.2-2.3 3.7-2.3 2.3 0 4 1.5 4 3.7 0 4.4-6.4 4.4-6.4 7.4 0 .3.1.3.5.3h4.5c.3 0 .4-.1.4-.4v-.8h1.7v1.6c0 .8-.3 1.2-1.2 1.2h-6.5c-1 0-1.2-.4-1.2-1.5-.1-4.8 6.4-4.4 6.4-7.9zm-9.1 58c0-1.2-.9-2-2.2-2-1.1 0-2 .6-2 1.2v.6h-1.7v-1.1c0-1.7 2.2-2.3 3.7-2.3 2.3 0 4 1.5 4 3.7 0 4.4-6.4 4.4-6.4 7.4 0 .3.1.3.5.3h4.5c.3 0 .4-.1.4-.4v-.8h1.7v1.6c0 .8-.3 1.2-1.2 1.2h-6.5c-1 0-1.2-.4-1.2-1.5-.1-4.8 6.4-4.4 6.4-7.9zm4.3 7.7h2.8v-9s-.1.3-.6.7l-1.2 1.2-1.1-1.1 3-3h1.6v11.2h2.8v1.5h-7.4l.1-1.5zm193.5 20.2c0-1.2-.9-2.1-2.3-2.1-1.2 0-2.1.6-2.1 1.3v.6h-1.7v-1.1c0-1.7 2.3-2.5 3.9-2.5 2.4 0 4.2 1.6 4.2 3.8 0 4.6-6.8 4.7-6.8 7.8 0 .3.2.4.5.4h4.7c.3 0 .4-.2.4-.4v-.9h1.7v1.7c0 .9-.4 1.2-1.2 1.2h-6.8c-1 0-1.3-.5-1.3-1.5 0-5 6.8-4.6 6.8-8.3zm4.3 3.1c0-3.8 1.2-6.9 4.7-6.9 3.6 0 4.7 3 4.7 6.9s-1.2 6.9-4.7 6.9c-3.6 0-4.7-3.1-4.7-6.9zm7.5 0c0-2.9-.6-5.2-2.8-5.2-2.2 0-2.8 2.3-2.8 5.2 0 2.9.6 5.2 2.8 5.2 2.2 0 2.8-2.3 2.8-5.2zm3.9 5h2.9v-9.4s-.2.3-.6.8l-1.2 1.2-1.1-1.2 3.2-3.1h1.7v11.7h2.9v1.6h-7.7l-.1-1.6zm9.7-1.4s1.3 1.5 3.4 1.5c1.4 0 2.6-1 2.6-2.4 0-1.5-1.3-2.4-2.9-2.4h-.9l-.4-1 2.8-3.5c.4-.6.8-.9.8-.9s-.4.1-1.1.1h-2.6c-.3 0-.4.1-.4.4v.9h-1.7v-1.7c0-.9.3-1.2 1.2-1.2h7v1.2l-3.5 4.2c1.7.2 3.8 1.3 3.8 3.9 0 2.2-1.8 4.2-4.6 4.2s-4.4-1.9-4.4-1.9l.9-1.4zm115.3-6.3c0-1.2-.9-2.1-2.3-2.1-1.2 0-2.1.6-2.1 1.3v.6H434v-1.1c0-1.7 2.3-2.5 3.9-2.5 2.4 0 4.2 1.6 4.2 3.8 0 4.6-6.8 4.7-6.8 7.8 0 .3.2.4.5.4h4.7c.3 0 .4-.2.4-.4v-.9h1.7v1.7c0 .9-.4 1.2-1.2 1.2h-6.8c-1 0-1.3-.5-1.3-1.5 0-5.1 6.8-4.7 6.8-8.3zm4.3 3c0-3.8 1.2-6.9 4.7-6.9 3.6 0 4.7 3 4.7 6.9s-1.2 6.9-4.7 6.9c-3.6 0-4.7-3.1-4.7-6.9zm7.5 0c0-2.9-.6-5.2-2.8-5.2-2.2 0-2.8 2.3-2.8 5.2 0 2.9.6 5.2 2.8 5.2s2.8-2.3 2.8-5.2zm3.8 5.1h2.9v-9.4s-.2.3-.6.8l-1.2 1.2-1.1-1.2 3.2-3.1h1.7v11.7h2.9v1.6h-7.7l-.1-1.6zm8.4-3.2l6-8.6h2.2v8.2h2.1v1.6h-2.1v3.5h-1.9v-3.5h-6.3v-1.2zm6.3-5c0-.6.1-1.4.1-1.4s-.3.6-.7 1.1l-2.9 4c-.3.5-.7.9-.7.9s.5-.1 1.1-.1h3.1v-4.5zm111.4.1c0-1.2-.9-2.1-2.3-2.1-1.2 0-2.1.6-2.1 1.3v.6h-1.7v-1.1c0-1.7 2.3-2.5 3.9-2.5 2.4 0 4.2 1.6 4.2 3.8 0 4.6-6.8 4.7-6.8 7.8 0 .3.2.4.5.4h4.7c.3 0 .4-.2.4-.4v-.9h1.7v1.7c0 .9-.4 1.2-1.2 1.2h-6.8c-1 0-1.3-.5-1.3-1.5 0-5.1 6.8-4.7 6.8-8.3zm4.2 3c0-3.8 1.2-6.9 4.7-6.9 3.6 0 4.7 3 4.7 6.9s-1.2 6.9-4.7 6.9-4.7-3.1-4.7-6.9zm7.6 0c0-2.9-.6-5.2-2.8-5.2s-2.8 2.3-2.8 5.2c0 2.9.6 5.2 2.8 5.2 2.1 0 2.8-2.3 2.8-5.2zm3.8 5.1h2.9v-9.4s-.2.3-.6.8l-1.2 1.2-1.1-1.2 3.2-3.1h1.7v11.7h2.9v1.6h-7.7v-1.6h-.1zm10.2-1.4s1.1 1.5 3.1 1.5c1.7 0 2.9-1.2 2.9-2.7 0-1.7-1.4-2.7-3.2-2.7-1.5 0-2.5.7-2.5.7l-.8-.4.5-5.5c.1-.9.4-1.2 1.2-1.2h4.7c.9 0 1.2.4 1.2 1.2v1.7H613v-.9c0-.3-.2-.4-.4-.4h-2.8c-.3 0-.4.1-.4.4l-.3 2.4c0 .4-.1.7-.1.7s.7-.4 1.7-.4c2.9 0 4.8 1.9 4.8 4.4 0 2.3-1.9 4.4-4.8 4.4-2.8 0-4.1-1.9-4.1-1.9l1-1.3zm114.9-6.7c0-1.2-.9-2.1-2.3-2.1-1.2 0-2.1.6-2.1 1.3v.6h-1.7v-1.1c0-1.7 2.3-2.5 3.9-2.5 2.4 0 4.2 1.6 4.2 3.8 0 4.6-6.8 4.7-6.8 7.8 0 .3.2.4.5.4h4.7c.3 0 .4-.2.4-.4v-.9h1.7v1.7c0 .9-.4 1.2-1.2 1.2H717c-1 0-1.3-.5-1.3-1.5 0-5.1 6.8-4.7 6.8-8.3zm4.3 3c0-3.8 1.2-6.9 4.7-6.9 3.6 0 4.7 3 4.7 6.9s-1.2 6.9-4.7 6.9c-3.6 0-4.7-3.1-4.7-6.9zm7.5 0c0-2.9-.6-5.2-2.8-5.2s-2.8 2.3-2.8 5.2c0 2.9.6 5.2 2.8 5.2s2.8-2.3 2.8-5.2zm3.9 5.1h2.9v-9.4s-.2.3-.6.8l-1.2 1.2-1.1-1.2 3.2-3.1h1.7v11.7h2.9v1.6h-7.7v-1.6h-.1zm8.8-4.3c0-3.5 1.9-7.7 6-7.7 1.6 0 2.6.5 2.6.5l-.6 1.6s-.9-.4-1.9-.4c-2.4 0-3.7 2.3-4 4.6.5-.8 1.8-1.3 3-1.3 2.5 0 4.2 1.9 4.2 4.4 0 2.6-1.8 4.5-4.3 4.5-2.8-.1-5-2.5-5-6.2zm5 4.4c1.6 0 2.5-1.2 2.5-2.7 0-1.6-1-2.8-2.7-2.8-1.5 0-2.7.9-2.7 1.9-.1 1.7 1.2 3.6 2.9 3.6zm115.1-8.2c0-1.2-.9-2.1-2.3-2.1-1.2 0-2.1.6-2.1 1.3v.6H861v-1.1c0-1.7 2.3-2.5 3.9-2.5 2.4 0 4.2 1.6 4.2 3.8 0 4.6-6.8 4.7-6.8 7.8 0 .3.2.4.5.4h4.7c.3 0 .4-.2.4-.4v-.9h1.7v1.7c0 .9-.4 1.2-1.2 1.2h-6.8c-1 0-1.3-.5-1.3-1.5 0-5.1 6.8-4.7 6.8-8.3zm4.2 3c0-3.8 1.2-6.9 4.7-6.9 3.6 0 4.7 3 4.7 6.9s-1.2 6.9-4.7 6.9-4.7-3.1-4.7-6.9zm7.6 0c0-2.9-.6-5.2-2.8-5.2s-2.8 2.3-2.8 5.2c0 2.9.6 5.2 2.8 5.2 2.1 0 2.8-2.3 2.8-5.2zm3.8 5.1h2.9v-9.4s-.2.3-.6.8l-1.2 1.2-1.1-1.2 3.2-3.1h1.7v11.7h2.9v1.6h-7.7v-1.6h-.1zm15-8.9c.4-.8.8-1.2.8-1.2s-.3.1-1 .1h-4c-.3 0-.4.1-.4.4v.9h-1.7v-1.7c0-.9.3-1.2 1.2-1.2h8.1v1.3l-6.5 12.1h-2.1l5.6-10.7z"/></svg>