<svg baseProfile="basic" xmlns="http://www.w3.org/2000/svg" viewBox="0 0 1008 523"><style>.st0{fill:#72c2e1}.st1{fill:#00295a}.st2{fill:#fff}</style><path class="st0" d="M716.7 9c56.5 0 102.3 45.8 102.3 102.3s-45.8 102.3-102.3 102.3-102.3-45.8-102.3-102.3 45.8-102.3 102.3-102.3z"/><path class="st1" d="M631.2 93.3h16.6v4.9h-16.6v-4.9zm22.5 13.8h8.8v-26c0-1.3.1-2.5.1-2.5h-.1s-.5.9-1.9 2.3l-3.8 3.7-3.4-3.5 9.6-9.3h5.2v35.2h8.8v4.9h-23.3v-4.8zm24.9-9.4l18.1-25.9h6.5v24.6h6.3v4.9h-6.3v10.6h-5.7v-10.6h-18.9v-3.6zm19-15.1c0-1.8.2-4.1.2-4.1h-.1s-1 1.9-2 3.4l-8.8 12.1c-1 1.4-2.1 2.6-2.1 2.6v.1s1.6-.2 3.4-.2h9.4v-13.9zm22.5 23.4l-4.8 11.7h-4.3l3.5-11.7h5.6zm12.3-15.8c0-.1-4.9-2.7-4.9-8.3s4.4-10.7 12.5-10.7c7.7 0 12.6 4.6 12.6 10.9 0 5.9-4.8 9.6-4.8 9.6v.1c3.6 2.1 6 4.9 6 9.2 0 6.3-5.7 11.8-13.9 11.8-7.6 0-14-4.7-14-12.2-.1-6.7 6.5-10.4 6.5-10.4zm7.4 17.3c4.2 0 8.1-2.8 8.1-6.8 0-3.5-3-5.1-6.8-6.6-1.5-.6-3.7-1.5-4.2-1.5-1.4 0-5.5 3.3-5.5 7.6.2 4.5 4 7.3 8.4 7.3zm3-18.2c1.4 0 4.3-3.4 4.3-6.9 0-3.7-3-6-7.1-6-4.4 0-6.9 2.5-6.9 5.7 0 3.5 3 4.9 6.6 6.3.7.2 2.4.9 3.1.9zm16.7-9.8c0-4.6 3.8-8.4 8.6-8.4s8.6 3.8 8.6 8.4c0 4.7-3.9 8.4-8.6 8.4s-8.6-3.7-8.6-8.4zm31.6-7.7h5.3l-30.7 40.1h-5.3l30.7-40.1zm-18.8 7.7c0-2.3-1.8-4.3-4.2-4.3s-4.2 1.9-4.2 4.3 1.8 4.2 4.2 4.2 4.2-1.8 4.2-4.2zm16.5 16.3c4.7 0 8.6 3.8 8.6 8.4 0 4.7-3.9 8.4-8.6 8.4-4.8 0-8.6-3.8-8.6-8.4-.1-4.6 3.7-8.4 8.6-8.4zm0 12.6c2.3 0 4.2-1.8 4.2-4.2 0-2.3-1.9-4.3-4.2-4.3-2.4 0-4.2 1.9-4.2 4.3-.1 2.4 1.8 4.2 4.2 4.2z"/><path class="st2" d="M634.7 136.3c2.8 0 3.7 1.8 3.7 1.8v-3.8c0-.4-.2-.5-.5-.5h-1v-2h2.3c1.1 0 1.5.4 1.5 1.5v12.7c0 .4.2.5.5.5h1v2h-2.2c-1 0-1.5-.5-1.5-1.3v-.6s-1 2.2-3.9 2.2c-3.2 0-5.3-2.5-5.3-6.3 0-3.7 2.2-6.2 5.4-6.2zm3.7 6.3c0-2.1-1.1-4.2-3.4-4.2-1.9 0-3.4 1.6-3.4 4.3 0 2.6 1.4 4.3 3.4 4.3 1.8-.1 3.4-1.4 3.4-4.4zm12.3-1.5h.5v-.1c0-2.1-.8-2.9-2.6-2.9-.6 0-2 .1-2 .9v.7h-2.1v-1.2c0-2 3-2.2 4.1-2.2 3.9 0 4.9 2 4.9 4.7v5.1c0 .4.2.5.5.5h1v2h-2.1c-1.1 0-1.5-.5-1.5-1.4v-.7s-.9 2.4-3.8 2.4c-2.1 0-4.1-1.3-4.1-3.6 0-3.9 5.2-4.2 7.2-4.2zm-2.6 5.9c1.9 0 3.2-2 3.2-3.8v-.4h-.6c-1.7 0-4.8.1-4.8 2.3 0 1 .7 1.9 2.2 1.9zm9.4-12.6c0-.4-.2-.5-.5-.5h-1v-2h2.3c1.1 0 1.5.4 1.5 1.5v12.7c0 .4.2.5.5.5h1v2h-2.3c-1.1 0-1.5-.4-1.5-1.5v-12.7zm20 2c0-1.5-1.1-2.6-2.9-2.6-1.5 0-2.6.8-2.6 1.6v.7h-2.2v-1.4c0-2.2 2.9-3.1 4.8-3.1 3 0 5.2 1.9 5.2 4.8 0 5.7-8.4 5.8-8.4 9.7 0 .3.2.4.6.4h5.9c.3 0 .5-.2.5-.5v-1.1h2.2v2.1c0 1.1-.4 1.5-1.5 1.5h-8.5c-1.3 0-1.6-.6-1.6-1.9.1-6.1 8.5-5.7 8.5-10.2zm5.3 3.8c0-4.8 1.4-8.6 5.9-8.6 4.4 0 5.9 3.8 5.9 8.6s-1.4 8.6-5.9 8.6c-4.4 0-5.9-3.8-5.9-8.6zm9.4 0c0-3.6-.8-6.4-3.5-6.4s-3.5 2.8-3.5 6.4c0 3.6.8 6.5 3.5 6.5s3.5-2.9 3.5-6.5zm4.8 6.3h3.7v-11.8s-.2.4-.8 1l-1.6 1.5-1.4-1.5 4-3.9h2.1v14.6h3.6v2h-9.6v-1.9zm19.8-10.1c0-1.5-1.1-2.6-2.9-2.6-1.5 0-2.6.8-2.6 1.6v.7h-2.2v-1.4c0-2.2 2.9-3.1 4.8-3.1 3 0 5.2 1.9 5.2 4.8 0 5.7-8.4 5.8-8.4 9.7 0 .3.2.4.6.4h5.9c.3 0 .5-.2.5-.5v-1.1h2.2v2.1c0 1.1-.4 1.5-1.5 1.5h-8.5c-1.3 0-1.6-.6-1.6-1.9 0-6.1 8.5-5.7 8.5-10.2zm18.5 4.7h.5v-.1c0-2.1-.8-2.9-2.6-2.9-.6 0-2 .1-2 .9v.7h-2.1v-1.2c0-2 3-2.2 4.1-2.2 3.9 0 4.9 2 4.9 4.7v5.1c0 .4.2.5.5.5h1v2h-2.1c-1.1 0-1.5-.5-1.5-1.4v-.7s-.9 2.4-3.8 2.4c-2.1 0-4.1-1.3-4.1-3.6 0-3.9 5.2-4.2 7.2-4.2zm-2.6 5.9c1.9 0 3.2-2 3.2-3.8v-.4h-.6c-1.7 0-4.8.1-4.8 2.3 0 1 .7 1.9 2.2 1.9zm9.4-12.6c0-.4-.2-.5-.5-.5h-1v-2h2.3c1.1 0 1.5.4 1.5 1.5v12.7c0 .4.2.5.5.5h1v2h-2.3c-1.1 0-1.5-.4-1.5-1.5v-12.7zm20 2c0-1.5-1.1-2.6-2.9-2.6-1.5 0-2.6.8-2.6 1.6v.7h-2.2v-1.4c0-2.2 2.9-3.1 4.8-3.1 3 0 5.2 1.9 5.2 4.8 0 5.7-8.4 5.8-8.4 9.7 0 .3.2.4.6.4h5.9c.3 0 .5-.2.5-.5v-1.1h2.2v2.1c0 1.1-.4 1.5-1.5 1.5h-8.5c-1.3 0-1.6-.6-1.6-1.9.1-6.1 8.5-5.7 8.5-10.2zm5.3 3.8c0-4.8 1.4-8.6 5.9-8.6 4.4 0 5.9 3.8 5.9 8.6s-1.4 8.6-5.9 8.6c-4.4 0-5.9-3.8-5.9-8.6zm9.4 0c0-3.6-.8-6.4-3.5-6.4s-3.5 2.8-3.5 6.4c0 3.6.8 6.5 3.5 6.5s3.5-2.9 3.5-6.5zm4.8 6.3h3.7v-11.8s-.2.4-.8 1l-1.6 1.5-1.4-1.5 4-3.9h2.1v14.6h3.6v2h-9.6v-1.9zm11-5.3c0-4.3 2.3-9.6 7.5-9.6 2 0 3.2.7 3.2.7l-.8 2s-1.1-.5-2.4-.5c-3 0-4.6 2.9-5 5.7.7-1 2.2-1.6 3.7-1.6 3.2 0 5.3 2.4 5.3 5.4 0 3.3-2.2 5.6-5.4 5.6-3.4-.1-6.1-3.1-6.1-7.7zm6.2 5.5c1.9 0 3.1-1.5 3.1-3.4 0-2-1.3-3.4-3.4-3.4-1.9 0-3.4 1.1-3.4 2.3 0 2.1 1.6 4.5 3.7 4.5z"/></svg>