<svg baseProfile="basic" id="Layer_1" xmlns="http://www.w3.org/2000/svg" viewBox="0 0 47 47"><style>.st0{fill:#72c2e1}</style><g id="rotaia1"><path class="st0" d="M23 11.8c-6.4 0-11.6 5.2-11.6 11.6C11.4 29.8 16.6 35 23 35c6.4 0 11.6-5.2 11.6-11.6S29.4 11.8 23 11.8zm0 21.5c-5.5 0-9.9-4.5-9.9-9.9 0-5.5 4.4-9.9 9.9-9.9s9.9 4.4 9.9 9.9-4.4 9.9-9.9 9.9z"/><path class="st0" d="M43 18.4h-1.7c-.4-1.6-1.1-3.1-1.9-4.5l1.2-1.2c.4-.4.7-1 .7-1.6s-.2-1.2-.7-1.6l-3.8-3.8c-.9-.9-2.4-.9-3.3 0l-1.2 1.2c-1.4-.8-2.9-1.4-4.5-1.9V3.3c0-1.3-1-2.3-2.3-2.3h-5.3c-1.3 0-2.3 1-2.3 2.3V5c-1.6.4-3.1 1.1-4.5 1.9l-1.2-1.2c-.9-.9-2.4-.9-3.3 0L5.1 9.5c-.4.4-.7 1-.7 1.6s.2 1.2.7 1.6l1.2 1.2c-.8 1.4-1.4 2.9-1.9 4.5H3c-1.3 0-2.3 1-2.3 2.3V26c0 1.3 1 2.3 2.3 2.3h1.7c.4 1.6 1.1 3.1 1.9 4.5L5.4 34c-.4.4-.7 1-.7 1.6s.2 1.2.7 1.6L9.2 41c.9.9 2.4.9 3.3 0l1.2-1.2c1.4.8 2.9 1.4 4.5 1.9v1.7c0 1.3 1 2.3 2.3 2.3h5.3c1.3 0 2.3-1 2.3-2.3v-1.7c1.6-.4 3.1-1.1 4.5-1.9l1.2 1.2c.9.9 2.4.9 3.3 0l3.8-3.8c.4-.4.7-1 .7-1.6s-.2-1.2-.7-1.6l-1.2-1.2c.8-1.4 1.4-2.9 1.9-4.5h1.7c1.3 0 2.3-1 2.3-2.3v-5.3c-.3-1.2-1.3-2.3-2.6-2.3zm.7 7.7c0 .4-.3.6-.6.6h-3l-.1.6c-.4 1.8-1.2 3.6-2.2 5.2l-.3.6 2.1 2.1c.3.3.3.7 0 .9l-3.8 3.8c-.3.3-.7.3-.9 0l-2.1-2.1-.6.3c-1.6 1-3.4 1.7-5.2 2.2l-.6.1v3c0 .4-.3.6-.6.6h-5.3c-.4 0-.6-.3-.6-.6v-3l-.6-.1c-1.8-.4-3.6-1.2-5.2-2.2l-.6-.3-2.1 2.1c-.3.3-.7.3-.9 0l-3.8-3.8c-.3-.3-.3-.7 0-.9l2.1-2.1-.3-.6c-1-1.6-1.7-3.4-2.2-5.2l-.1-.6h-3c-.4 0-.6-.3-.6-.6v-5.3c0-.4.3-.6.6-.6h3l.1-.6c.4-1.8 1.2-3.6 2.2-5.2l.3-.6-2.1-2.1c-.3-.3-.3-.7 0-.9L10.5 7c.3-.3.7-.3.9 0l2.1 2.1.6-.3c1.6-1 3.4-1.7 5.2-2.2l.6-.1v-3c0-.4.3-.6.6-.6h5.3c.4 0 .6.3.6.6v3l.6.1c1.8.4 3.6 1.2 5.2 2.2l.6.3L34.9 7c.3-.3.7-.3.9 0l3.8 3.8c.3.3.3.7 0 .9l-2.1 2.1.3.6c1 1.6 1.7 3.4 2.2 5.2l.1.6h3c.4 0 .6.3.6.6v5.3z"/><path class="st0" d="M23 15.1c-4.6 0-8.3 3.7-8.3 8.3s3.7 8.3 8.3 8.3 8.3-3.7 8.3-8.3-3.7-8.3-8.3-8.3zM23 30c-3.6 0-6.6-3-6.6-6.6s3-6.6 6.6-6.6 6.6 3 6.6 6.6-3 6.6-6.6 6.6z"/></g></svg>