<svg id="Livello_1" xmlns="http://www.w3.org/2000/svg" xmlns:xlink="http://www.w3.org/1999/xlink" viewBox="0 0 1164 509" enable-background="new 0 0 1164 509"><style>.st0{filter:url(#Adobe_OpacityMaskFilter)}.st1{fill:url(#SVGID_2_)}.st2{fill:url(#SVGID_3_)}.st3{opacity:.1;mask:url(#SVGID_1_)}.st4,.st5{fill:none;stroke:#404040;stroke-width:1.2795;stroke-miterlimit:10}.st5{stroke-dasharray:3.3312,3.3312}.st6{fill:#404040}.st10{fill:none;stroke:#000;stroke-miterlimit:10}.st7{stroke-width:.853}.st7,.st8,.st9{fill:none;stroke:#000;stroke-miterlimit:10}.st8{stroke-width:.9789}.st10,.st9{stroke-width:1.2795}.st10{stroke-dasharray:3.3404,3.3404}.st11{fill:#868686}.st12{fill:#9e9e9e}.st13{stroke:#cecece}.st13,.st14,.st15,.st16,.st17,.st18{fill:none;stroke-miterlimit:10}.st14{stroke:#a2a2a2}.st15{stroke:#dbdbdb}.st16{stroke:#d2d2d2}.st17{stroke:#cdcdcd}.st18{stroke:#000;stroke-width:.738}.st19{fill:#666}.st20{fill:#4f4f4f}.st21{fill:#7b7b7b}.st22{fill-rule:evenodd;clip-rule:evenodd;fill:#777}.st23{fill:#a2a2a2}.st24{fill:#cdcdcd}.st25{fill:#dbdbdb}.st26{fill:#cecece}.st27{fill:#d2d2d2}.st28{fill:#fff}.st29{fill:none;stroke:#ededed;stroke-width:.853;stroke-miterlimit:10}.st30{fill:#ebebeb}.st31{clip-path:url(#SVGID_5_)}.st32,.st33{fill:none;stroke:#636362;stroke-width:1.2795;stroke-miterlimit:10}.st33{stroke-dasharray:3.3312,3.3312}.st34{fill:#636362}.st35{fill:#12100b}.st36{stroke:#1d1d1b;stroke-width:.853}.st36,.st37,.st38,.st39{fill:none;stroke-miterlimit:10}.st37{stroke:#12100b;stroke-width:.9789}.st38,.st39{stroke:#1d1d1b;stroke-width:1.2795}.st39{stroke-dasharray:3.3404,3.3404}.st40{fill:#1d1d1b}.st41{fill:#00295a}.st42{fill:#ee7900}.st43{fill:#009c3d}.st44{fill:none;stroke:#f6cb37;stroke-miterlimit:10}.st45{stroke:#ac9ead}.st45,.st46,.st47,.st48,.st49,.st50{fill:none;stroke-miterlimit:10}.st46{stroke:#82c3e3}.st47{stroke:#b4cc6f}.st48{stroke:#d9c086}.st49,.st50{stroke:#1d1d1b;stroke-width:.738}.st50{stroke-width:.7601}.st51{fill:#e40077}.st52{fill:#e30520}.st53{fill:#00883d}.st54{fill-rule:evenodd;clip-rule:evenodd;fill:#ea6508}.st55{fill:#ac9ead}.st56{fill:#d9c086}.st57{fill:#72c2e1}.st58{fill:#f6cb37}.st59{fill:#b4cc6f}.st60{fill:none;stroke:#ececec;stroke-width:.853;stroke-miterlimit:10}.st61{fill:#ebeae9}.st62{fill:none;stroke:#72c2e1;stroke-miterlimit:10}.st63{fill:#df0514}</style><defs><filter id="Adobe_OpacityMaskFilter" filterUnits="userSpaceOnUse" x="18.1" y="27" width="444.1" height="461.9"><feColorMatrix values="1 0 0 0 0 0 1 0 0 0 0 0 1 0 0 0 0 0 1 0"/></filter></defs><mask maskUnits="userSpaceOnUse" x="18.1" y="27" width="444.1" height="461.9" id="SVGID_1_"><g class="st0"><radialGradient id="SVGID_2_" cx="229.503" cy="200.691" r="220.333" gradientTransform="matrix(1.0847 0 0 1.0955 -15.753 34.449)" gradientUnits="userSpaceOnUse"><stop offset="0" stop-color="#fff"/><stop offset="1"/></radialGradient><path class="st1" d="M-5.8 12.9h478v482.8h-478z"/><radialGradient id="SVGID_3_" cx="229.503" cy="200.691" r="220.333" gradientTransform="matrix(1.0847 0 0 1.0955 -15.753 34.449)" gradientUnits="userSpaceOnUse"><stop offset="0" stop-color="#fff"/><stop offset="1"/></radialGradient><path class="st2" d="M-5.8 12.9h478v482.8h-478z"/></g></mask><g class="st3"><path class="st4" d="M442.6 380c-.3.5-.6.9-.9 1.4"/><path class="st5" d="M439.9 384.2c-57.4 88.2-170.2 127.9-272.7 89.3C48.8 428.9-11.1 296.8 33.5 178.3 73.4 72.2 183.6 13.1 291.2 34"/><path class="st4" d="M292.8 34.3c.5.1 1.1.2 1.6.3"/><circle class="st6" cx="442.6" cy="380" r="7"/><path class="st6" d="M296.6 35l-.8-8 11.3 9.8-13.8 5.5z"/><path d="M247.3 50c114.7 0 208.1 92.4 209.2 207.3 1.1 115.6-91.7 210.1-207.3 211.2h-2c-114.7 0-208.1-92.4-209.2-207.3C36.9 145.6 129.7 51.1 245.3 50h2m0-.8h-2c-28.4.3-55.8 6.1-81.6 17.3-24.9 10.8-47.2 26.2-66.4 45.7s-34 42.1-44.4 67.2c-10.7 26-16 53.6-15.7 81.9.3 28.2 6 55.5 17.1 81.2 10.7 24.8 25.9 47 45.2 66.1 19.3 19.1 41.7 34.1 66.6 44.5 25.8 10.8 53.1 16.3 81.2 16.3h2c28.4-.3 55.8-6.1 81.6-17.3 24.9-10.8 47.2-26.2 66.4-45.7 19.1-19.5 34-42.1 44.4-67.2 10.7-26 16-53.6 15.7-81.9-.3-28.2-6-55.5-17.1-81.2-10.7-24.8-25.9-47-45.2-66.1-19.3-19.1-41.7-34.1-66.6-44.5-25.8-10.9-53.1-16.3-81.2-16.3z"/><path class="st7" d="M151.5 228.4l208.2 67.1M257.2 145.1L237 376.5m-50.1-197.7l131.2 175m-2.9-191l-128.8 197m144.8-182.4l-168.3 164m71-180.9l29 214.8"/><path class="st8" d="M353 207.3l-211.8 104m222.2-70.1l-230 35.8"/><path class="st9" d="M257.7 141c.6.1 1.1.1 1.7.2"/><path class="st10" d="M262.7 141.6c52.7 7.2 95.7 49.5 101.4 104.8 6.7 64.8-40.4 122.8-105.2 129.4-57.5 5.9-109.6-30.5-125.3-84"/><path class="st9" d="M133.1 290.2c-.1-.5-.3-1.1-.4-1.6"/><circle cx="257.7" cy="141" r="6.1"/><path d="M132.4 287.6l-5.7 3.6 3.1-12.1 9.3 8.4zm114.8-113.3c22.5 0 43.7 8.7 59.7 24.6 16 15.9 25 37 25.2 59.6.4 46.8-37.3 85.3-84.1 85.7h-.8c-22.5 0-43.7-8.7-59.7-24.6-16-15.9-25-37-25.2-59.6-.4-46.8 37.3-85.3 84.1-85.7h.8m0-8h-.9c-51.3.5-92.5 42.5-92.1 93.8.5 51 42 92.1 92.9 92.1h.9c51.3-.5 92.5-42.5 92.1-93.8-.4-51.1-41.9-92.1-92.9-92.1z"/><path class="st11" d="M247.2 166.7c24.5 0 47.7 9.5 65.1 26.8 17.5 17.3 27.2 40.3 27.4 64.9.5 51-40.7 93-91.7 93.4h-.9c-24.5 0-47.7-9.5-65.1-26.8-17.5-17.3-27.2-40.3-27.4-64.9-.2-24.7 9.2-48.1 26.5-65.7s40.5-27.5 65.2-27.7h.9m0-8h-1c-55.5.5-100.1 46-99.6 101.5.5 55.2 45.4 99.6 100.5 99.6h1c55.5-.5 100.1-46 99.6-101.5-.4-55.2-45.4-99.6-100.5-99.6z"/><path class="st12" d="M247.2 159.6c26.4 0 51.3 10.2 70.1 28.8 18.8 18.6 29.3 43.4 29.5 69.8.3 26.6-9.9 51.7-28.5 70.7s-43.6 29.6-70.2 29.8h-1c-26.4 0-51.3-10.2-70.1-28.8-18.8-18.6-29.3-43.4-29.5-69.8-.5-54.9 43.7-100 98.7-100.5h1m0-8h-1c-59.4.6-107.1 49.2-106.6 108.6.6 59.1 48.6 106.6 107.6 106.6h1c59.4-.6 107.1-49.2 106.6-108.6-.5-59.1-48.6-106.6-107.6-106.6z"/><path class="st13" d="M299.3 422.5c-22.8 7.3-47 9.7-70.9 7.1-29.2-3.2-58-14-83.4-32.8a173.9 173.9 0 0 1-38.5-39.6"/><path class="st14" d="M418.6 258.9c.1 35.7-10.9 71.7-33.8 102.6-22.3 30-52.4 50.6-85.5 61.1"/><path class="st15" d="M301.9 96.8c16.6 5.6 32.7 13.9 47.5 24.9 45.1 33.5 69 85 69.2 137.2"/><path class="st16" d="M195.2 95.9C229.5 85 267 85 301.9 96.8m-192.7 60.9c.2-.2.3-.5.5-.7 22.3-30 52.4-50.6 85.5-61.1"/><path class="st17" d="M106.5 357.2c-40.8-58.6-41.9-138.9 2.6-199.5"/><path class="st7" d="M70.7 382.1l235.3-164m6.6 246.2L181.9 54.2m235.5 336.7L77 127.5"/><path class="st18" d="M188.6 433.5l93.2-275.4"/><path class="st7" d="M178.8 307.1l220.8-154.5M67.3 259.5l359.8-.6"/><path class="st19" d="M155.9 380.3c-1-2-1.9-4.8-3.9-5.6-2.9-1.1-7.5.3-8.9-.1 0 0-.4-.5.3-.6 5.5-.6 9.3-4.7 9.8-8.3 0 0 1.4-.1 1.9-.1 1.3-.6 4.2-5.6 4.9-7.2 0 0 .6-.3.5.2-.8 3.2-2.2 5.9-2.9 7.1-.3.4-.1.6.4.3 1.5-.9 3.2-2.6 5.9-5.8 0 0 .7-.2.4.4-1.9 3.5-10 12.7-9.9 13 1.2 2.3 1.9 5.1 2 6.4-.1.4-.5.3-.5.3z" id="XMLID_219_"/><path class="st19" d="M164.2 385.5c-.2-.3-.5-.4-.9-.5-.6-.1-1.2.1-1.7.6-.5.4-.8 1-.9 1.5 0 .4 0 .8.3 1 .2.3.5.4.9.5.6.1 1.2-.1 1.7-.6.5-.4.9-1 .9-1.5 0-.4-.1-.8-.3-1z" id="XMLID_215_"/><path class="st19" d="M149.5 376.4c-.2.5-.2 1.1 0 1.6.1.3.4.6.7.7.3.1.6.1.9 0 .5-.2.8-.6 1.1-1.2.4-1 .1-2-.6-2.2-.8-.4-1.7.1-2.1 1.1z" id="XMLID_210_"/><path class="st19" d="M160.4 375c-.2-.1-.4-.2-.7-.1-.4.1-.9.4-1.2.9-.5.8-.5 1.7 0 2.1.2.1.4.2.7.1.4-.1.9-.4 1.2-.9.5-.8.5-1.8 0-2.1z" id="XMLID_206_"/><path class="st19" d="M169.5 366.1c-2.6 2.6-4.2 3.6-4.6 3.9.5-.7 1.9-3.7 2.2-4.8.2-.7-.4-.6-.4-.6-5.2 8.6-8 8.2-11.1 8.5-.4 0-.3.3-.3.3.4.2 2.6.6 2.8.6 5.1.5 5.1 4.3 5.3 4.9 0 0 .3.2.4-.3.1-.6 0-2.8-.7-4.5 1.9-1.4 5.7-5.9 6.7-7.5.4-.6-.3-.5-.3-.5z" id="XMLID_202_"/><path class="st19" d="M174.5 390.4c-1.3-2.9-5-6.4-6.7-7.8 4.6-4.7 8.8-10.8 10.2-14.2.4-.9-.5-.7-.5-.7-2.1 3.1-6.1 7.3-7.7 7.7.8-1.8 2.5-6.7 2.7-10.6 0-.8-.5-.6-.5-.6-5.5 15.2-9.7 17.4-14.1 19.8-1.4.8-2.8 1.5-4.4 2.7-.7.6.2.8.2.8 6.4-3.8 13-5.5 20.6 3.5 0 .1.5 0 .2-.6z" id="XMLID_198_"/><path class="st19" d="M394.1 212.8c-.4 2.2-1.3 5-.1 6.8 1.7 2.6 6.2 4.3 7.1 5.3 0 0 .1.6-.5.3-4.8-2.7-10.3-1.7-12.9.9 0 0-1.2-.7-1.6-1-1.4-.3-6.7 2-8.2 2.9 0 0-.7-.1-.2-.5 2.6-2.1 5.3-3.5 6.5-4 .5-.2.4-.4-.1-.4-1.8-.1-4.1.2-8.1 1.2 0 0-.7-.2 0-.6 3.6-1.7 15.6-4.3 15.6-4.6.4-2.6 1.5-5.3 2.2-6.4 0-.2.3.1.3.1z" id="XMLID_194_"/><path class="st19" d="M390.5 203.8c0 .4.2.7.5.9.4.4 1 .6 1.7.6s1.3-.3 1.6-.7c.3-.3.4-.6.4-1 0-.3-.2-.7-.5-1-.4-.4-1-.6-1.7-.5-.7 0-1.3.3-1.6.7-.3.3-.5.6-.4 1z" id="XMLID_190_"/><path class="st19" d="M396.9 219.8c.5-.3.8-.8 1-1.2.1-.3 0-.7-.1-.9-.2-.3-.4-.4-.8-.5-.5-.1-1.1 0-1.6.3-.9.5-1.2 1.5-.8 2.2.4.5 1.4.6 2.3.1z" id="XMLID_186_"/><path class="st19" d="M387.3 214.4c.1.2.3.4.5.5.4.2 1 .2 1.5 0 .9-.3 1.4-1.1 1.2-1.7-.1-.2-.3-.4-.5-.5-.4-.2-1-.2-1.5 0-.9.4-1.4 1.1-1.2 1.7z" id="XMLID_182_"/><path class="st19" d="M374.6 216.2c3.6-.5 5.5-.4 6-.4-.8.3-3.8 1.9-4.6 2.6-.5.5 0 .7 0 .7 9.3-3.8 11.4-1.9 13.9-.2.3.2.4-.1.4-.1-.2-.4-1.7-2-1.9-2.1-3.8-3.5-1.6-6.4-1.4-7.1 0 0-.1-.3-.5 0-.5.4-1.7 2.2-2.1 4-2.4 0-8.1 1.4-9.9 2.1-.5.2.1.5.1.5z" id="XMLID_178_"/><path class="st19" d="M385 193.6c-.6 3.1.2 8.1.8 10.2-6.5 1.1-13.5 3.5-16.6 5.4-.8.5 0 .8 0 .8 3.5-1.3 9.3-2.2 10.8-1.6-1.8 1-6 3.9-8.5 7-.5.6.1.8.1.8 13.4-8.9 18.2-8.3 23.1-7.6 1.6.2 3.2.4 5.1.4.9 0 .3-.8.3-.8-7.4-.7-13.7-3.3-14.5-15 .1 0-.4-.2-.6.4z" id="XMLID_174_"/><path class="st20" d="M149.2 133.4l8.1 6-3.2 9.6 8.2-5.8 8.1 6-3-9.7 8.2-5.9-10.1-.1-3-9.6-3.2 9.6-10.1-.1zm13.3-6.8l2.4 7.8 8.2.1-6.7 4.8 2.4 7.8-6.6-4.9-6.7 4.8 2.6-7.8-6.6-4.9 8.2.1 2.8-7.8z"/><path class="st20" d="M167.7 145.3l-2-6.3 5.4-3.9-6.6-.1-2-6.3-2.1 6.3-6.6-.1v.1l5.3 3.9-2.2 6.3 5.5-3.9 5.3 4zM367.6 300l8.1 6-3.2 9.6 8.2-5.8 8.1 6-3-9.7 8.2-5.9-10.1-.1-3-9.6-3.2 9.6-10.1-.1zm13.4-6.9l2.4 7.8 8.2.1-6.7 4.8 2.4 7.8-6.6-4.9-6.7 4.8 2.6-7.8-6.6-4.9 8.2.1 2.8-7.8z"/><path class="st20" d="M386.1 311.8l-2-6.3 5.4-3.8-6.6-.1-2-6.4-2.1 6.3h-6.6l5.3 3.9-2.1 6.3 5.4-3.8 5.3 3.9z"/><path class="st21" d="M231.5 390.7c1.7 2.5 3.4 4.9 5.1 7.4 3.5 5.1 7.3 10.6 10.8 15.7l15.7-24h-.2c-2 0-4 .1-6 .1h-.3l-8.4 12.5c-.6.9-1.2.9-1.8.1-2.6-3.7-6-8.6-8.5-12.4h-2.7c-1.3 0-2.6 0-4 .1.1.2.2.4.3.5zm12.9 15.4h1.1c.2.3.8 1.1 1 1.4.5.5 1 .5 1.4-.1.3-.4.7-1.1.9-1.5h2.2c-1.3 2-2.6 3.8-3.9 5.7l-3.8-5.5h1.1zm94.9-245.9c.1-3 .3-6 .4-9 .3-6.2.5-12.8.8-19l-27 9.7s.1.1.2.1c1.6 1.2 3.2 2.3 4.8 3.5l.2.2 14.2-5c1-.4 1.5 0 1.5 1-.1 4.5-.4 10.5-.6 15 0 0 .5.4 1.3 1 .3.2.5.4.8.6 1.1.8 2.1 1.5 3.2 2.4.2-.1.2-.3.2-.5zm-1.1-20.1l-.7-.5-.3-.2v-1.7c-.1-.7-.5-1-1.2-.8-.4.1-1.2.4-1.6.6 0 0-.1-.1-.3-.2-.4-.3-.9-.7-1.5-1.1 2.2-.8 4.4-1.5 6.5-2.3l-.3 6.7c.2 0-.6-.5-.6-.5z"/><path class="st22" d="M247.7 101.6c.8.7 1.6 1.5 2 2.5.1.3.3.3.5.3 1-.2 1.9 0 3 .3-2 .7-3.6 1.9-5 3.4.2-2.3 0-4.4-.5-6.5z"/><path class="st22" d="M256.4 107.7c-.3-1.3-1.6-2.3-2.9-2.2-1 .1-1.9.4-2.7 1-1.8 1.4-2.9 3.2-3.4 5.4-.2 1-.3 2.1-.2 3.1 0 .4 0 .4-.3.4h-.2v-.6c-.1-.9-.1-1.9 0-2.8.2-1.2.4-2.3.6-3.5.2-1.1.4-2.2.3-3.3-.1-1.1-.3-2.2-.6-3.2-.6-1.7-1.5-3.3-2.9-4.5-.2-.2-.4-.4-.6-.5-.6.9-1.1 1.9-1.4 2.9-.4 1.3-.5 2.6-.5 4 .1 1 .2 1.9.5 2.8.3 1 .7 1.9 1.3 2.8.8 1.5 1.6 3 2.1 4.6.1.5.2 1 .4 1.5-.2 0-.3.1-.5.1 0-.1-.1-.2-.1-.2-.2-.5-.3-1.1-.5-1.6-.9-2.2-2.3-4-4.5-5.2-1.2-.6-2.5-.9-3.8-.7-.5.1-.9.3-1.3.7-1 .9-1.2 2.4-.6 3.6.5 1 1.3 1.7 2.3 2.2.8.4 1.7.9 2.5 1.3.7.4 1.3.8 1.7 1.5l.1.1c.1-.5.3-.9.4-1.4-.2-.1-.5-.2-.8-.3-.5-.2-1-.5-1.3-1-.6-.9-.2-2.1.9-2.4.6-.2 1.1 0 1.7.2 1 .5 1.7 1.3 2.1 2.4.2.4.3.8.4 1.2-.4.1-.7.3-1 .4-.5.2-.5.2-.5.8l.1.1c.2 0 .4.1.6.1.3 0 .5 0 .8.1-.1.5-.2.9-.5 1.3-.4.6-1 1-1.8.9-.2 0-.4-.1-.7-.2-.1.3 0 .7.1 1.1.3.8 1 1.1 1.8 1 .7-.2 1.1-.6 1.4-1.2.4-.8.5-1.6.6-2.5 0-.3 0-.3.3-.4.2 0 .2 0 .2.2-.1.8-.1 1.5-.2 2.3 0 .5-.1 1.1.1 1.6.2.9.7 1.6 1.3 2.3-.1-.9-.8-4.8-.8-4.8s-.4.6-.4 1.6.2 1.6.3 1.8c0 .1.1.1.1.1l-.1-.1c-.1-.3-.5-1.1-.5-1.8 0-1 .5-1.8.5-1.8s1.1.8 1.2 2.4c.1.7-.3 1.9-.4 2.7l.1.1s.1.1.2.1c.2-.4.3-.7.5-1.1.3-.8.4-1.6.2-2.5-.1-.5-.3-1-.5-1.5-.2-.6-.5-1.1-.6-1.8.2 0 .3-.1.5-.1.1.1.1.3.2.4.3.8.7 1.6 1.3 2.2.5.5 1.2.8 1.9.6.7-.2 1.2-.8 1.1-1.6 0-.3-.1-.6-.2-.9-.9 1-2.9.3-3.4-1.1.3-.1.6-.2.8-.3.5-.2.5-.2.4-.8 0-.2-.1-.2-.2-.2-.4 0-.8-.1-1.3-.1-.1 0-.2 0-.2-.2-.1-.9 0-1.8.4-2.6.4-.9.9-1.5 1.8-1.9.5-.2 1.1-.2 1.6.1.7.5.9 1.3.4 2.1-.2.4-.5.7-.9 1-.2.2-.4.4-.7.6.4.3.6.7.7 1.1l.1.1.1-.1c.1-.5.4-.9.7-1.2.7-.8 1.5-1.6 2.2-2.3.5-.5.9-.9 1.3-1.5.7-1.1 1-2 .8-3zm-17.6 4.8c-.9 1.2.1 2.6.1 2.6s-1.5-.8-2.2-2.3c-.2-.4-.3-1.1.1-1.6.6-.9 1.5-.8 2-.7 2.8.3 4.6 2.6 4.6 2.6-2.6-2-4-1.5-4.6-.6zm2.3-2.3c-3.2-2.6-5.5-1.3-6-.6-1.3 1.6.6 3.7.6 3.7s-.9-.8-1.2-2.1c0-.2-.1-1.1.2-1.7.6-.9 1.7-1.2 2.5-1.2 4.5.1 6.2 4.7 6.2 4.7-.8-1.2-1.5-2.2-2.3-2.8zm2 10.5c-.6.2-1.2-.4-1.2-.4 2.1.4 2.7-1.8 2.7-1.8s-.3 1.7-1.5 2.2zm.3-22.4s-1.1 2-1.1 4.9c.1 3.1.7 5.1 1 5.8l.2.4s-.1-.1-.2-.4c-.4-1-1.5-3.6-1.5-5.7-.1-3.2 1.5-5.7 1.5-5.7s3.2 2.7 3.7 7.7c.2 2.5-1.1 6.4-1.1 8.9 0 .1-2.5-15.9-2.5-15.9zm7.8 20.6s-.5.8-1.1.8c-1.3-.1-2-1.8-2-1.8s1.2 1.9 3.1 1zm3-8.7c-.2 1.7-1.4 2.8-1.4 2.8s.6-1.5-.7-2.5c-.9-.7-2.4-.8-4.3 1.8 0 0 1.1-2.7 3.7-3.8.5-.2 1.3-.6 2.1.1.5.5.6 1.2.6 1.6zm1.6-2.1c.1 1.3-.5 2.3-.5 2.3s1.2-2.6-.5-3.8c-.7-.5-3.3-1-5.6 2.4-.6.8-1 1.9-1.4 3.3 0 0 .3-4.8 4.6-6.3.7-.2 1.9-.2 2.7.5.5.5.7 1.4.7 1.6z"/><path class="st23" d="M390 365.4c-23.2 31.2-54.6 52.6-89 63.5l11.4 35.3c41.5-13.2 79.5-39 107.4-76.6 28.7-38.6 42.5-83.7 42.4-128.3l-37.1.1c0 36.8-11.4 74-35.1 106z"/><path class="st24" d="M104 153.8l-29.8-22.1c-56.1 76-54.7 176.9-3.5 250.4l30.4-21.2C58.8 300 57.7 216.7 104 153.8z"/><path class="st25" d="M353.3 116.5c46.9 34.9 71.7 88.5 71.8 142.8l37.1-.1c-.1-65.6-30.1-130.3-86.7-172.4-18.7-13.9-39-24.3-60-31.4l-11.9 35.1a175.3 175.3 0 0 1 49.7 26z"/><path class="st26" d="M141.1 402c-15.9-11.8-29.2-25.8-39.9-41.2L70.7 382c12.9 18.6 29.1 35.5 48.3 49.7 57.7 42.9 129.7 52.5 193.3 32.3L301 428.8c-52.6 16.6-112.2 8.6-159.9-26.8z"/><path class="st27" d="M74.2 131.6l29.8 22.1c.2-.2.3-.4.5-.6 47.1-63.3 128.2-86.4 199.2-62.6l11.9-35.1c-85.9-28.8-184-.9-240.9 75.6-.2.2-.3.4-.5.6z"/><path class="st19" d="M331.7 383.2c-2.2.3-5.1.1-6.6 1.8-2 2.3-2.3 7.2-3.1 8.3 0 0-.6.3-.4-.4 1.3-5.4-1.2-10.4-4.5-12.1 0 0 .4-1.3.5-1.8-.1-1.4-3.8-5.9-5.1-7.1 0 0-.1-.7.4-.4 2.7 1.9 4.8 4.1 5.7 5.1.3.4.5.3.4-.2-.4-1.7-1.3-3.9-3.4-7.5 0 0 0-.7.5-.2 2.7 3 8.5 13.8 8.8 13.7 2.6-.3 5.5-.1 6.7.3.3.2.1.5.1.5z" id="XMLID_170_"/><path class="st19" d="M339.3 377.1c-.3.1-.6.4-.8.7-.2.5-.3 1.1-.1 1.8.2.6.6 1.1 1.1 1.4.4.2.7.2 1.1.1.3-.1.6-.4.8-.7.2-.5.3-1.1.1-1.8-.2-.6-.6-1.1-1.1-1.4-.4-.1-.7-.2-1.1-.1z" id="XMLID_166_"/><path class="st19" d="M325.8 387.9c.4.4 1 .6 1.5.6.4 0 .6-.2.9-.4.2-.2.3-.5.3-.9 0-.5-.3-1-.7-1.4-.8-.7-1.8-.8-2.3-.2-.7.5-.5 1.6.3 2.3z" id="XMLID_162_"/><path class="st19" d="M328.2 377.1c-.2.1-.3.4-.4.6-.1.4.1 1 .4 1.4.5.8 1.4 1.1 1.9.7.2-.1.3-.4.4-.6.1-.4-.1-1-.4-1.4-.5-.7-1.4-1.1-1.9-.7z" id="XMLID_158_"/><path class="st19" d="M323 365.5c1.5 3.3 1.9 5.2 2 5.7-.5-.7-2.9-3.1-3.8-3.7-.6-.4-.7.2-.7.2 6.3 7.9 5 10.4 4.1 13.3-.1.4.2.4.2.4.4-.3 1.4-2.2 1.5-2.4 2.3-4.6 5.7-3.3 6.4-3.3 0 0 .2-.2-.1-.5-.5-.3-2.6-1-4.4-.9-.7-2.3-3.6-7.4-4.8-8.9-.3-.6-.4.1-.4.1z" id="XMLID_154_"/><path class="st19" d="M347.5 369.1c-3.1.2-7.7 2.5-9.6 3.6-2.9-5.9-7.1-11.9-9.8-14.4-.7-.7-.8.2-.8.2 2.2 3 4.7 8.2 4.5 9.9-1.4-1.4-5.4-4.7-9.1-6.2-.8-.3-.7.3-.7.3 12.4 10.4 13.1 15.1 13.8 20 .2 1.6.5 3.2 1.1 5 .3.9.8.1.8.1-1.4-7.3-.7-14.1 10.4-18.1 0 .1.1-.4-.6-.4z" id="XMLID_150_"/><path class="st21" d="M115.2 281c-2.1 2.1-4.2 4.3-6.3 6.4-4.3 4.4-9 9.2-13.3 13.6l26.6 10.7v-.2c-.4-1.9-.8-3.9-1.2-5.8l-.1-.3-13.9-5.8c-1-.4-1.1-1-.4-1.7 3.1-3.3 7.3-7.6 10.5-10.8 0 0-.2-.6-.3-1.6-.1-.3-.1-.7-.2-1-.3-1.3-.5-2.6-.8-3.9-.4.1-.5.3-.6.4zm-12.6 15.7l.2.8.1.3c-.2.2-.9 1-1.2 1.3-.4.6-.3 1.1.3 1.4.4.2 1.2.5 1.6.6 0 0 0 .1.1.4.1.6.2 1.1.4 1.8-2.2-.9-4.3-1.8-6.4-2.7l4.7-4.8.2.9z"/><g id="GoFPfz.tif_2_"><image width="2230" height="1476" id="Livello_1_2_" xlink:href="C859B23556CA199D.png" transform="rotate(-70.647 205.964 63.966) scale(.02955)" overflow="visible"/></g><circle class="st28" cx="247.2" cy="259.2" r="86.2"/><path class="st29" d="M307.9 198.9l-122 119.7m121.5 1.1l-119.7-122m106.4-10.4L200 330.1m118.9-24.5l-142.7-94m155.2 29.7l-168.3 34.2m101.2 67l-34-167.4m102.8 82.1l-171.7.7m85.3 86.4l1.1-170.8m58 46.1l-117.2 77.6M286 317l-77.6-117.2M316.2 272l-138-27.2m55.4 82.6l27.2-138m51 96.7l-129.2-55.4m36.9 92.3l55.4-129.2m37.6 38.5L182 284.5m91.4 39.1l-52.3-130.5"/><path class="st30" d="M247.8 189.5l18.4 52.6 56.2-.5-46.9 32.8 18.6 52.4-45.6-32.3-48.6 33.2 17.9-52.7-47.8-32 60.4-.5z"/><path class="st28" d="M248 207.2l14 40.4 42.8-.4-36.1 25.1 14.3 40.3-34.6-24.8-37.7 25.4 13.6-40.5-36.5-24.4 46.8-.5z"/><path class="st30" d="M248 216l12 34.3 36-.3-30.7 21.3 12.2 34.3-29.1-21.1-32.3 21.6 11.5-34.4-31-20.7 40.1-.5z"/><path d="M236.4 288.9c0-1.4-1.2-2.5-2.6-2.5l-5.6.1.1 8.7h1.2v-3.5h3.3l2.4 3.5h1.4l-2.4-3.6c1.5-.5 2.2-1.3 2.2-2.7zm-1.6 1.1c-.2.2-.5.4-.9.4h-4.4v-2.8h4.5c1 0 1.2.8 1.2 1.4 0 .3-.2.7-.4 1zm10.5 2c0 1.2-1.4 1.9-2.8 1.9-1.3 0-2.7-.6-2.7-1.8l-.1-5.8h-1.2l.1 5.9c0 .7.3 1.4.8 1.9.7.7 1.7 1 3 1h.1c2.7-.1 4-1 4-3l-.1-5.9h-1.2l.1 5.8zm9.7-5.8l-5.6.1.1 8.7h1.2v-3.6h4.3c1.2 0 2.2-1.1 2.2-2.4 0-.7-.3-1.5-.9-2-.4-.6-.9-.8-1.3-.8zm.9 2.6c0 .4-.1.8-.4 1-.1.1-.3.2-.4.2h-4.4v-2.8h4.3c.4.1.9.9.9 1.6zm8.9-2.7l-5.6.1.1 8.7h1.2v-3.6h4.3c1.2 0 2.2-1.1 2.2-2.4 0-.7-.3-1.5-.9-2-.4-.6-.8-.8-1.3-.8zm.9 2.6c0 .4-.1.8-.4 1-.1.1-.3.2-.4.2h-4.4v-2.8h4.3c.4.1.9.9.9 1.6zm7.4 6.1c1.5 0 2.8-.6 3.7-1.5.8-.8 1.2-1.9 1.2-3 0-3.1-2.6-4.4-5-4.4-1.4 0-2.7.6-3.6 1.5-.8.8-1.2 1.9-1.2 3 0 2.3 2.3 4.4 4.9 4.4zm-3.7-4.5c0-1.8 1.9-3.3 3.6-3.3h.1c1 0 2.1.4 2.8 1.1.6.6.9 1.3.9 2.1s-.3 1.6-.9 2.2c-.7.7-1.7 1.1-2.8 1.1-2 .2-3.6-1.3-3.7-3.2zm-47.5 1.3h3v1.5c-.2.2-1.2 1-2.9 1-2.3 0-3.7-1.2-3.8-3.3 0-1.9 1.4-3.2 3.6-3.2h.1c1.7 0 3.1 1 3.1 1l.1.1.8-.9-.2-.1c-1.4-.9-2.6-1.4-3.9-1.4-1.4 0-2.7.5-3.7 1.5-.8.8-1.3 1.9-1.2 3 0 2.8 2 4.5 5 4.5 2.7 0 4-1.7 4.1-1.7v-3h-4.2l.1 1z"/><path class="st20" d="M247.5 207.7l6.9 19.7 21.2-.2-17.7 12.3 7 19.7-17.1-12.1-18.3 12.5 6.8-19.8-18-12.1 22.7-.2z"/><path class="st28" d="M247.6 214.3l5.3 15.2 16-.2-13.5 9.5 5.4 15.1-13-9.3-14.2 9.5 5.1-15.2-13.7-9.2 17.6-.1z"/><path class="st20" d="M247.6 217.6l4.5 12.9 13.5-.1-11.5 8 4.6 12.8-11-7.9-12.1 8.2 4.4-13-11.7-7.8 15-.1z"/><path d="M178.1 272c0-.5.3-1.2 1.9-1.2 1.5 0 2.8.7 2.8.7l-.3-3.1c-.2.2-.5.3-.7.2-.5-.1-1.3-.2-2.2-.2-3.3 0-4.8 2-4.8 3.8 0 3.5 5.4 3.7 5.4 6.2 0 .9-.9 1.4-1.9 1.5-2.2 0-3.7-1-3.7-1l.4 3.1c.3-.1.5-.1.8-.1.7.2 1.8.4 2.9.4 3.2 0 4.8-1.8 4.8-3.9 0-4.5-5.4-4.3-5.4-6.4zm111.9-3.2l.1 12.1h3l-.1-13.4h-3.6c0 .1.5.4.6 1.3zm-2.7 3.3c0-2.4-2-4.4-4.4-4.4l-6.4.1s.5.4.5.9l.1 12.4h2.9v-4.6h1.8l2.7 4.5h3.3l-2.9-5c1.5-.7 2.5-2.2 2.4-3.9zm-7.3-1.5h2.7c.8 0 1.5.7 1.5 1.5s-.7 1.5-1.5 1.5H280v-3zm-7.8 3.8v2.2s-1.1 1.9-2.9 1.9c-1.4 0-3.5-1.3-3.5-3.8s1.8-4 3.4-4 2.6 1.1 2.6 1.1l1.3-2.7s-1.5-1.6-4.1-1.5c-3.4 0-6.2 2.8-6.2 7s3.2 6.9 6.3 6.9 4.1-1.9 5.8-3.6v-4.1h-3.3c.1 0 .6.3.6.6zm41.7-7.3c-3.5 0-6.3 3.2-6.2 7 0 3.8 2.9 6.9 6.3 6.9 3.5 0 6.3-3.2 6.2-7 0-3.8-2.9-6.9-6.3-6.9zm.1 10.8c-1.7 0-3-1.6-3-3.8 0-2.2 1.3-3.8 3-3.8s3 1.6 3 3.8c0 2.1-1.4 3.7-3 3.8zm-11-3.3l-4-7h-3.9s.5.3.6 1.2l.1 12.1h2.8l-.1-8.3 4.6 8.3h2.8l-.1-13.4H303v7.1zm-46.8 1.4h4v-2.9h-4v-2.3h5.2l-.8-2.9-7.8.1s.5.3.5 1.2l.1 12.2 7.7-.1.7-3-5.6.1V276zm-50.8-.5l-4-7h-3.9s.5.3.6 1.2l.1 12.1h2.8l-.1-8.3 4.6 8.3h2.8l-.1-13.4h-2.8v7.1zm40.7-7.5h-3.6s.5.3.5 1.2l.1 12.1 7.7-.1.7-3-5.3.1-.1-10.3zm-58.6.6s.7.4.5 1.2l-3.5 12.2h2.6l.9-3.1h4.2l1 3.1h3.3l-4.5-13.3-4.5-.1zm1.2 7.7l1.2-4.3 1.4 4.3h-2.6zm27.8-8l-6.4.1s.5.3.5 1.2l.1 12.1h2.9v-4.6h2.9c2.4 0 4.4-2 4.4-4.4 0-2.5-2-4.4-4.4-4.4zm-.2 6h-2.7v-3.1h2.7c.8 0 1.5.7 1.5 1.5 0 .9-.7 1.5-1.5 1.6zm19.6-6.2h-3.6s.5.3.5 1.2l.1 12.1 7.7-.1.7-3-5.3.1-.1-10.3zm-10.6 8.2h4v-2.9h-4v-2.3h5.2l-.8-2.9-7.8.1s.5.3.5 1.2l.1 12.2 7.7-.1.7-3-5.6.1v-2.4z"/></g><defs><path id="SVGID_4_" d="M325.8 26l-78.6 233.2h273S438.4 20.8 325.8 26z"/></defs><clipPath id="SVGID_5_"><use xlink:href="#SVGID_4_" overflow="visible"/></clipPath><g class="st31"><path class="st32" d="M442.6 380c-.3.5-.6.9-.9 1.4"/><path class="st33" d="M439.9 384.2c-57.4 88.2-170.2 127.9-272.7 89.3C48.8 428.9-11.1 296.8 33.5 178.3 73.4 72.2 183.6 13.1 291.2 34"/><path class="st32" d="M292.8 34.3c.5.1 1.1.2 1.6.3"/><circle class="st34" cx="442.6" cy="380" r="7"/><path class="st34" d="M296.6 35l-.8-8 11.3 9.8-13.8 5.5z"/><path class="st35" d="M247.3 50c114.7 0 208.1 92.4 209.2 207.3 1.1 115.6-91.7 210.1-207.3 211.2h-2c-114.7 0-208.1-92.4-209.2-207.3C36.9 145.6 129.7 51.1 245.3 50h2m0-.8h-2c-28.4.3-55.8 6.1-81.6 17.3-24.9 10.8-47.2 26.2-66.4 45.7s-34 42.1-44.4 67.2c-10.7 26-16 53.6-15.7 81.9.3 28.2 6 55.5 17.1 81.2 10.7 24.8 25.9 47 45.2 66.1 19.3 19.1 41.7 34.1 66.6 44.5 25.8 10.8 53.1 16.3 81.2 16.3h2c28.4-.3 55.8-6.1 81.6-17.3 24.9-10.8 47.2-26.2 66.4-45.7 19.1-19.5 34-42.1 44.4-67.2 10.7-26 16-53.6 15.7-81.9-.3-28.2-6-55.5-17.1-81.2-10.7-24.8-25.9-47-45.2-66.1-19.3-19.1-41.7-34.1-66.6-44.5-25.8-10.9-53.1-16.3-81.2-16.3z"/><path class="st36" d="M151.5 228.4l208.2 67.1M257.2 145.1L237 376.5m-50.1-197.7l131.2 175m-2.9-191l-128.8 197m144.8-182.4l-168.3 164m71-180.9l29 214.8"/><path class="st37" d="M353 207.3l-211.8 104m222.2-70.1l-230 35.8"/><path class="st38" d="M257.7 141c.6.1 1.1.1 1.7.2"/><path class="st39" d="M262.7 141.6c52.7 7.2 95.7 49.5 101.4 104.8 6.7 64.8-40.4 122.8-105.2 129.4-57.5 5.9-109.6-30.5-125.3-84"/><path class="st38" d="M133.1 290.2c-.1-.5-.3-1.1-.4-1.6"/><circle class="st40" cx="257.7" cy="141" r="6.1"/><path class="st40" d="M132.4 287.6l-5.7 3.6 3.1-12.1 9.3 8.4z"/><path class="st41" d="M247.2 174.3c22.5 0 43.7 8.7 59.7 24.6 16 15.9 25 37 25.2 59.6.4 46.8-37.3 85.3-84.1 85.7h-.8c-22.5 0-43.7-8.7-59.7-24.6-16-15.9-25-37-25.2-59.6-.4-46.8 37.3-85.3 84.1-85.7h.8m0-8h-.9c-51.3.5-92.5 42.5-92.1 93.8.5 51 42 92.1 92.9 92.1h.9c51.3-.5 92.5-42.5 92.1-93.8-.4-51.1-41.9-92.1-92.9-92.1z"/><path class="st42" d="M247.2 166.7c24.5 0 47.7 9.5 65.1 26.8 17.5 17.3 27.2 40.3 27.4 64.9.5 51-40.7 93-91.7 93.4h-.9c-24.5 0-47.7-9.5-65.1-26.8-17.5-17.3-27.2-40.3-27.4-64.9-.2-24.7 9.2-48.1 26.5-65.7s40.5-27.5 65.2-27.7h.9m0-8h-1c-55.5.5-100.1 46-99.6 101.5.5 55.2 45.4 99.6 100.5 99.6h1c55.5-.5 100.1-46 99.6-101.5-.4-55.2-45.4-99.6-100.5-99.6z"/><path class="st43" d="M247.2 159.6c26.4 0 51.3 10.2 70.1 28.8 18.8 18.6 29.3 43.4 29.5 69.8.3 26.6-9.9 51.7-28.5 70.7s-43.6 29.6-70.2 29.8h-1c-26.4 0-51.3-10.2-70.1-28.8-18.8-18.6-29.3-43.4-29.5-69.8-.5-54.9 43.7-100 98.7-100.5h1m0-8h-1c-59.4.6-107.1 49.2-106.6 108.6.6 59.1 48.6 106.6 107.6 106.6h1c59.4-.6 107.1-49.2 106.6-108.6-.5-59.1-48.6-106.6-107.6-106.6z"/><path class="st44" d="M299.3 422.5c-22.8 7.3-47 9.7-70.9 7.1-29.2-3.2-58-14-83.4-32.8a173.9 173.9 0 0 1-38.5-39.6"/><path class="st45" d="M418.6 258.9c.1 35.7-10.9 71.7-33.8 102.6-22.3 30-52.4 50.6-85.5 61.1"/><path class="st46" d="M301.9 96.8c16.6 5.6 32.7 13.9 47.5 24.9 45.1 33.5 69 85 69.2 137.2"/><path class="st47" d="M195.2 95.9C229.5 85 267 85 301.9 96.8m-192.7 60.9c.2-.2.3-.5.5-.7 22.3-30 52.4-50.6 85.5-61.1"/><path class="st48" d="M106.5 357.2c-40.8-58.6-41.9-138.9 2.6-199.5"/><path class="st36" d="M70.7 382.1l235.3-164m6.6 246.2L181.9 54.2"/><path class="st49" d="M188.6 433.5l93.2-275.4"/><path class="st36" d="M178.8 307.1l220.8-154.5"/><path class="st50" d="M67.3 259.5l285.7-.1"/><path class="st51" d="M155.9 380.3c-1-2-1.9-4.8-3.9-5.6-2.9-1.1-7.5.3-8.9-.1 0 0-.4-.5.3-.6 5.5-.6 9.3-4.7 9.8-8.3 0 0 1.4-.1 1.9-.1 1.3-.6 4.2-5.6 4.9-7.2 0 0 .6-.3.5.2-.8 3.2-2.2 5.9-2.9 7.1-.3.4-.1.6.4.3 1.5-.9 3.2-2.6 5.9-5.8 0 0 .7-.2.4.4-1.9 3.5-10 12.7-9.9 13 1.2 2.3 1.9 5.1 2 6.4-.1.4-.5.3-.5.3z" id="XMLID_146_"/><path class="st51" d="M164.2 385.5c-.2-.3-.5-.4-.9-.5-.6-.1-1.2.1-1.7.6-.5.4-.8 1-.9 1.5 0 .4 0 .8.3 1 .2.3.5.4.9.5.6.1 1.2-.1 1.7-.6.5-.4.9-1 .9-1.5 0-.4-.1-.8-.3-1z" id="XMLID_139_"/><path class="st51" d="M149.5 376.4c-.2.5-.2 1.1 0 1.6.1.3.4.6.7.7.3.1.6.1.9 0 .5-.2.8-.6 1.1-1.2.4-1 .1-2-.6-2.2-.8-.4-1.7.1-2.1 1.1z" id="XMLID_134_"/><path class="st51" d="M160.4 375c-.2-.1-.4-.2-.7-.1-.4.1-.9.4-1.2.9-.5.8-.5 1.7 0 2.1.2.1.4.2.7.1.4-.1.9-.4 1.2-.9.5-.8.5-1.8 0-2.1z" id="XMLID_130_"/><path class="st51" d="M169.5 366.1c-2.6 2.6-4.2 3.6-4.6 3.9.5-.7 1.9-3.7 2.2-4.8.2-.7-.4-.6-.4-.6-5.2 8.6-8 8.2-11.1 8.5-.4 0-.3.3-.3.3.4.2 2.6.6 2.8.6 5.1.5 5.1 4.3 5.3 4.9 0 0 .3.2.4-.3.1-.6 0-2.8-.7-4.5 1.9-1.4 5.7-5.9 6.7-7.5.4-.6-.3-.5-.3-.5z" id="XMLID_126_"/><path class="st51" d="M174.5 390.4c-1.3-2.9-5-6.4-6.7-7.8 4.6-4.7 8.8-10.8 10.2-14.2.4-.9-.5-.7-.5-.7-2.1 3.1-6.1 7.3-7.7 7.7.8-1.8 2.5-6.7 2.7-10.6 0-.8-.5-.6-.5-.6-5.5 15.2-9.7 17.4-14.1 19.8-1.4.8-2.8 1.5-4.4 2.7-.7.6.2.8.2.8 6.4-3.8 13-5.5 20.6 3.5 0 .1.5 0 .2-.6z" id="XMLID_122_"/><path class="st51" d="M394.1 212.8c-.4 2.2-1.3 5-.1 6.8 1.7 2.6 6.2 4.3 7.1 5.3 0 0 .1.6-.5.3-4.8-2.7-10.3-1.7-12.9.9 0 0-1.2-.7-1.6-1-1.4-.3-6.7 2-8.2 2.9 0 0-.7-.1-.2-.5 2.6-2.1 5.3-3.5 6.5-4 .5-.2.4-.4-.1-.4-1.8-.1-4.1.2-8.1 1.2 0 0-.7-.2 0-.6 3.6-1.7 15.6-4.3 15.6-4.6.4-2.6 1.5-5.3 2.2-6.4 0-.2.3.1.3.1z" id="XMLID_99_"/><path class="st51" d="M390.5 203.8c0 .4.2.7.5.9.4.4 1 .6 1.7.6s1.3-.3 1.6-.7c.3-.3.4-.6.4-1 0-.3-.2-.7-.5-1-.4-.4-1-.6-1.7-.5-.7 0-1.3.3-1.6.7-.3.3-.5.6-.4 1z" id="XMLID_91_"/><path class="st51" d="M396.9 219.8c.5-.3.8-.8 1-1.2.1-.3 0-.7-.1-.9-.2-.3-.4-.4-.8-.5-.5-.1-1.1 0-1.6.3-.9.5-1.2 1.5-.8 2.2.4.5 1.4.6 2.3.1z" id="XMLID_83_"/><path class="st51" d="M387.3 214.4c.1.2.3.4.5.5.4.2 1 .2 1.5 0 .9-.3 1.4-1.1 1.2-1.7-.1-.2-.3-.4-.5-.5-.4-.2-1-.2-1.5 0-.9.4-1.4 1.1-1.2 1.7z" id="XMLID_77_"/><path class="st51" d="M374.6 216.2c3.6-.5 5.5-.4 6-.4-.8.3-3.8 1.9-4.6 2.6-.5.5 0 .7 0 .7 9.3-3.8 11.4-1.9 13.9-.2.3.2.4-.1.4-.1-.2-.4-1.7-2-1.9-2.1-3.8-3.5-1.6-6.4-1.4-7.1 0 0-.1-.3-.5 0-.5.4-1.7 2.2-2.1 4-2.4 0-8.1 1.4-9.9 2.1-.5.2.1.5.1.5z" id="XMLID_71_"/><path class="st51" d="M385 193.6c-.6 3.1.2 8.1.8 10.2-6.5 1.1-13.5 3.5-16.6 5.4-.8.5 0 .8 0 .8 3.5-1.3 9.3-2.2 10.8-1.6-1.8 1-6 3.9-8.5 7-.5.6.1.8.1.8 13.4-8.9 18.2-8.3 23.1-7.6 1.6.2 3.2.4 5.1.4.9 0 .3-.8.3-.8-7.4-.7-13.7-3.3-14.5-15 .1 0-.4-.2-.6.4z" id="XMLID_67_"/><path class="st52" d="M149.2 133.4l8.1 6-3.2 9.6 8.2-5.8 8.1 6-3-9.7 8.2-5.9-10.1-.1-3-9.6-3.2 9.6-10.1-.1zm13.3-6.8l2.4 7.8 8.2.1-6.7 4.8 2.4 7.8-6.6-4.9-6.7 4.8 2.6-7.8-6.6-4.9 8.2.1 2.8-7.8z"/><path class="st52" d="M167.7 145.3l-2-6.3 5.4-3.9-6.6-.1-2-6.3-2.1 6.3-6.6-.1v.1l5.3 3.9-2.2 6.3 5.5-3.9 5.3 4zM367.6 300l8.1 6-3.2 9.6 8.2-5.8 8.1 6-3-9.7 8.2-5.9-10.1-.1-3-9.6-3.2 9.6-10.1-.1zm13.4-6.9l2.4 7.8 8.2.1-6.7 4.8 2.4 7.8-6.6-4.9-6.7 4.8 2.6-7.8-6.6-4.9 8.2.1 2.8-7.8z"/><path class="st52" d="M386.1 311.8l-2-6.3 5.4-3.8-6.6-.1-2-6.4-2.1 6.3h-6.6l5.3 3.9-2.1 6.3 5.4-3.8 5.3 3.9z"/><path class="st53" d="M231.5 390.7c1.7 2.5 3.4 4.9 5.1 7.4 3.5 5.1 7.3 10.6 10.8 15.7l15.7-24h-.2c-2 0-4 .1-6 .1h-.3l-8.4 12.5c-.6.9-1.2.9-1.8.1-2.6-3.7-6-8.6-8.5-12.4h-2.7c-1.3 0-2.6 0-4 .1.1.2.2.4.3.5zm12.9 15.4h1.1c.2.3.8 1.1 1 1.4.5.5 1 .5 1.4-.1.3-.4.7-1.1.9-1.5h2.2c-1.3 2-2.6 3.8-3.9 5.7l-3.8-5.5h1.1zm94.9-245.9c.1-3 .3-6 .4-9 .3-6.2.5-12.8.8-19l-27 9.7s.1.1.2.1c1.6 1.2 3.2 2.3 4.8 3.5l.2.2 14.2-5c1-.4 1.5 0 1.5 1-.1 4.5-.4 10.5-.6 15 0 0 .5.4 1.3 1 .3.2.5.4.8.6 1.1.8 2.1 1.5 3.2 2.4.2-.1.2-.3.2-.5zm-1.1-20.1l-.7-.5-.3-.2v-1.7c-.1-.7-.5-1-1.2-.8-.4.1-1.2.4-1.6.6 0 0-.1-.1-.3-.2-.4-.3-.9-.7-1.5-1.1 2.2-.8 4.4-1.5 6.5-2.3l-.3 6.7c.2 0-.6-.5-.6-.5z"/><path class="st54" d="M247.7 101.6c.8.7 1.6 1.5 2 2.5.1.3.3.3.5.3 1-.2 1.9 0 3 .3-2 .7-3.6 1.9-5 3.4.2-2.3 0-4.4-.5-6.5z"/><path class="st54" d="M256.4 107.7c-.3-1.3-1.6-2.3-2.9-2.2-1 .1-1.9.4-2.7 1-1.8 1.4-2.9 3.2-3.4 5.4-.2 1-.3 2.1-.2 3.1 0 .4 0 .4-.3.4h-.2v-.6c-.1-.9-.1-1.9 0-2.8.2-1.2.4-2.3.6-3.5.2-1.1.4-2.2.3-3.3-.1-1.1-.3-2.2-.6-3.2-.6-1.7-1.5-3.3-2.9-4.5-.2-.2-.4-.4-.6-.5-.6.9-1.1 1.9-1.4 2.9-.4 1.3-.5 2.6-.5 4 .1 1 .2 1.9.5 2.8.3 1 .7 1.9 1.3 2.8.8 1.5 1.6 3 2.1 4.6.1.5.2 1 .4 1.5-.2 0-.3.1-.5.1 0-.1-.1-.2-.1-.2-.2-.5-.3-1.1-.5-1.6-.9-2.2-2.3-4-4.5-5.2-1.2-.6-2.5-.9-3.8-.7-.5.1-.9.3-1.3.7-1 .9-1.2 2.4-.6 3.6.5 1 1.3 1.7 2.3 2.2.8.4 1.7.9 2.5 1.3.7.4 1.3.8 1.7 1.5l.1.1c.1-.5.3-.9.4-1.4-.2-.1-.5-.2-.8-.3-.5-.2-1-.5-1.3-1-.6-.9-.2-2.1.9-2.4.6-.2 1.1 0 1.7.2 1 .5 1.7 1.3 2.1 2.4.2.4.3.8.4 1.2-.4.1-.7.3-1 .4-.5.2-.5.2-.5.8l.1.1c.2 0 .4.1.6.1.3 0 .5 0 .8.1-.1.5-.2.9-.5 1.3-.4.6-1 1-1.8.9-.2 0-.4-.1-.7-.2-.1.3 0 .7.1 1.1.3.8 1 1.1 1.8 1 .7-.2 1.1-.6 1.4-1.2.4-.8.5-1.6.6-2.5 0-.3 0-.3.3-.4.2 0 .2 0 .2.2-.1.8-.1 1.5-.2 2.3 0 .5-.1 1.1.1 1.6.2.9.7 1.6 1.3 2.3-.1-.9-.8-4.8-.8-4.8s-.4.6-.4 1.6.2 1.6.3 1.8c0 .1.1.1.1.1l-.1-.1c-.1-.3-.5-1.1-.5-1.8 0-1 .5-1.8.5-1.8s1.1.8 1.2 2.4c.1.7-.3 1.9-.4 2.7l.1.1s.1.1.2.1c.2-.4.3-.7.5-1.1.3-.8.4-1.6.2-2.5-.1-.5-.3-1-.5-1.5-.2-.6-.5-1.1-.6-1.8.2 0 .3-.1.5-.1.1.1.1.3.2.4.3.8.7 1.6 1.3 2.2.5.5 1.2.8 1.9.6.7-.2 1.2-.8 1.1-1.6 0-.3-.1-.6-.2-.9-.9 1-2.9.3-3.4-1.1.3-.1.6-.2.8-.3.5-.2.5-.2.4-.8 0-.2-.1-.2-.2-.2-.4 0-.8-.1-1.3-.1-.1 0-.2 0-.2-.2-.1-.9 0-1.8.4-2.6.4-.9.9-1.5 1.8-1.9.5-.2 1.1-.2 1.6.1.7.5.9 1.3.4 2.1-.2.4-.5.7-.9 1-.2.2-.4.4-.7.6.4.3.6.7.7 1.1l.1.1.1-.1c.1-.5.4-.9.7-1.2.7-.8 1.5-1.6 2.2-2.3.5-.5.9-.9 1.3-1.5.7-1.1 1-2 .8-3zm-17.6 4.8c-.9 1.2.1 2.6.1 2.6s-1.5-.8-2.2-2.3c-.2-.4-.3-1.1.1-1.6.6-.9 1.5-.8 2-.7 2.8.3 4.6 2.6 4.6 2.6-2.6-2-4-1.5-4.6-.6zm2.3-2.3c-3.2-2.6-5.5-1.3-6-.6-1.3 1.6.6 3.7.6 3.7s-.9-.8-1.2-2.1c0-.2-.1-1.1.2-1.7.6-.9 1.7-1.2 2.5-1.2 4.5.1 6.2 4.7 6.2 4.7-.8-1.2-1.5-2.2-2.3-2.8zm2 10.5c-.6.2-1.2-.4-1.2-.4 2.1.4 2.7-1.8 2.7-1.8s-.3 1.7-1.5 2.2zm.3-22.4s-1.1 2-1.1 4.9c.1 3.1.7 5.1 1 5.8l.2.4s-.1-.1-.2-.4c-.4-1-1.5-3.6-1.5-5.7-.1-3.2 1.5-5.7 1.5-5.7s3.2 2.7 3.7 7.7c.2 2.5-1.1 6.4-1.1 8.9 0 .1-2.5-15.9-2.5-15.9zm7.8 20.6s-.5.8-1.1.8c-1.3-.1-2-1.8-2-1.8s1.2 1.9 3.1 1zm3-8.7c-.2 1.7-1.4 2.8-1.4 2.8s.6-1.5-.7-2.5c-.9-.7-2.4-.8-4.3 1.8 0 0 1.1-2.7 3.7-3.8.5-.2 1.3-.6 2.1.1.5.5.6 1.2.6 1.6zm1.6-2.1c.1 1.3-.5 2.3-.5 2.3s1.2-2.6-.5-3.8c-.7-.5-3.3-1-5.6 2.4-.6.8-1 1.9-1.4 3.3 0 0 .3-4.8 4.6-6.3.7-.2 1.9-.2 2.7.5.5.5.7 1.4.7 1.6z"/><path class="st55" d="M390 365.4c-23.2 31.2-54.6 52.6-89 63.5l11.4 35.3c41.5-13.2 79.5-39 107.4-76.6 28.7-38.6 42.5-83.7 42.4-128.3l-37.1.1c0 36.8-11.4 74-35.1 106z"/><path class="st56" d="M104 153.8l-29.8-22.1c-56.1 76-54.7 176.9-3.5 250.4l30.4-21.2C58.8 300 57.7 216.7 104 153.8z"/><path class="st57" d="M353.3 116.5c46.9 34.9 71.7 88.5 71.8 142.8l37.1-.1c-.1-65.6-30.1-130.3-86.7-172.4-18.7-13.9-39-24.3-60-31.4l-11.9 35.1a175.3 175.3 0 0 1 49.7 26z"/><path class="st58" d="M141.1 402c-15.9-11.8-29.2-25.8-39.9-41.2L70.7 382c12.9 18.6 29.1 35.5 48.3 49.7 57.7 42.9 129.7 52.5 193.3 32.3L301 428.8c-52.6 16.6-112.2 8.6-159.9-26.8z"/><path class="st59" d="M74.2 131.6l29.8 22.1c.2-.2.3-.4.5-.6 47.1-63.3 128.2-86.4 199.2-62.6l11.9-35.1c-85.9-28.8-184-.9-240.9 75.6-.2.2-.3.4-.5.6z"/><path class="st51" d="M331.7 383.2c-2.2.3-5.1.1-6.6 1.8-2 2.3-2.3 7.2-3.1 8.3 0 0-.6.3-.4-.4 1.3-5.4-1.2-10.4-4.5-12.1 0 0 .4-1.3.5-1.8-.1-1.4-3.8-5.9-5.1-7.1 0 0-.1-.7.4-.4 2.7 1.9 4.8 4.1 5.7 5.1.3.4.5.3.4-.2-.4-1.7-1.3-3.9-3.4-7.5 0 0 0-.7.5-.2 2.7 3 8.5 13.8 8.8 13.7 2.6-.3 5.5-.1 6.7.3.3.2.1.5.1.5z" id="XMLID_62_"/><path class="st51" d="M339.3 377.1c-.3.1-.6.4-.8.7-.2.5-.3 1.1-.1 1.8.2.6.6 1.1 1.1 1.4.4.2.7.2 1.1.1.3-.1.6-.4.8-.7.2-.5.3-1.1.1-1.8-.2-.6-.6-1.1-1.1-1.4-.4-.1-.7-.2-1.1-.1z" id="XMLID_58_"/><path class="st51" d="M325.8 387.9c.4.4 1 .6 1.5.6.4 0 .6-.2.9-.4.2-.2.3-.5.3-.9 0-.5-.3-1-.7-1.4-.8-.7-1.8-.8-2.3-.2-.7.5-.5 1.6.3 2.3z" id="XMLID_54_"/><path class="st51" d="M328.2 377.1c-.2.1-.3.4-.4.6-.1.4.1 1 .4 1.4.5.8 1.4 1.1 1.9.7.2-.1.3-.4.4-.6.1-.4-.1-1-.4-1.4-.5-.7-1.4-1.1-1.9-.7z" id="XMLID_76_"/><path class="st51" d="M323 365.5c1.5 3.3 1.9 5.2 2 5.7-.5-.7-2.9-3.1-3.8-3.7-.6-.4-.7.2-.7.2 6.3 7.9 5 10.4 4.1 13.3-.1.4.2.4.2.4.4-.3 1.4-2.2 1.5-2.4 2.3-4.6 5.7-3.3 6.4-3.3 0 0 .2-.2-.1-.5-.5-.3-2.6-1-4.4-.9-.7-2.3-3.6-7.4-4.8-8.9-.3-.6-.4.1-.4.1z" id="XMLID_64_"/><path class="st51" d="M347.5 369.1c-3.1.2-7.7 2.5-9.6 3.6-2.9-5.9-7.1-11.9-9.8-14.4-.7-.7-.8.2-.8.2 2.2 3 4.7 8.2 4.5 9.9-1.4-1.4-5.4-4.7-9.1-6.2-.8-.3-.7.3-.7.3 12.4 10.4 13.1 15.1 13.8 20 .2 1.6.5 3.2 1.1 5 .3.9.8.1.8.1-1.4-7.3-.7-14.1 10.4-18.1 0 .1.1-.4-.6-.4z" id="XMLID_2_"/><path class="st53" d="M115.2 281c-2.1 2.1-4.2 4.3-6.3 6.4-4.3 4.4-9 9.2-13.3 13.6l26.6 10.7v-.2c-.4-1.9-.8-3.9-1.2-5.8l-.1-.3-13.9-5.8c-1-.4-1.1-1-.4-1.7 3.1-3.3 7.3-7.6 10.5-10.8 0 0-.2-.6-.3-1.6-.1-.3-.1-.7-.2-1-.3-1.3-.5-2.6-.8-3.9-.4.1-.5.3-.6.4zm-12.6 15.7l.2.8.1.3c-.2.2-.9 1-1.2 1.3-.4.6-.3 1.1.3 1.4.4.2 1.2.5 1.6.6 0 0 0 .1.1.4.1.6.2 1.1.4 1.8-2.2-.9-4.3-1.8-6.4-2.7l4.7-4.8.2.9z"/><g id="GoFPfz.tif_1_"><image width="2230" height="1476" id="Livello_1_1_" xlink:href="C859B23556CA199F.png" transform="rotate(-70.647 205.964 63.966) scale(.02955)" overflow="visible"/></g><circle class="st28" cx="247.2" cy="259.2" r="86.2"/><path class="st60" d="M307.9 198.9l-122 119.7m121.5 1.1l-119.7-122m106.4-10.4L200 330.1m118.9-24.5l-142.7-94m155.2 29.7l-168.3 34.2m101.2 67l-34-167.4m102.8 82.1l-171.7.7m85.3 86.4l1.1-170.8m58 46.1l-117.2 77.6M286 317l-77.6-117.2M316.2 272l-138-27.2m55.4 82.6l27.2-138m51 96.7l-129.2-55.4m36.9 92.3l55.4-129.2m37.6 38.5L182 284.5m91.4 39.1l-52.3-130.5"/><path class="st61" d="M247.8 189.5l18.4 52.6 56.2-.5-46.9 32.8 18.6 52.4-45.6-32.3-48.6 33.2 17.9-52.7-47.8-32 60.4-.5z"/><path class="st28" d="M248 207.2l14 40.4 42.8-.4-36.1 25.1 14.3 40.3-34.6-24.8-37.7 25.4 13.6-40.5-36.5-24.4 46.8-.5z"/><path class="st61" d="M248 216l12 34.3 36-.3-30.7 21.3 12.2 34.3-29.1-21.1-32.3 21.6 11.5-34.4-31-20.7 40.1-.5z"/><path class="st41" d="M236.4 288.9c0-1.4-1.2-2.5-2.6-2.5l-5.6.1.1 8.7h1.2v-3.5h3.3l2.4 3.5h1.4l-2.4-3.6c1.5-.5 2.2-1.3 2.2-2.7zm-1.6 1.1c-.2.2-.5.4-.9.4h-4.4v-2.8h4.5c1 0 1.2.8 1.2 1.4 0 .3-.2.7-.4 1zm10.5 2c0 1.2-1.4 1.9-2.8 1.9-1.3 0-2.7-.6-2.7-1.8l-.1-5.8h-1.2l.1 5.9c0 .7.3 1.4.8 1.9.7.7 1.7 1 3 1h.1c2.7-.1 4-1 4-3l-.1-5.9h-1.2l.1 5.8zm9.7-5.8l-5.6.1.1 8.7h1.2v-3.6h4.3c1.2 0 2.2-1.1 2.2-2.4 0-.7-.3-1.5-.9-2-.4-.6-.9-.8-1.3-.8zm.9 2.6c0 .4-.1.8-.4 1-.1.1-.3.2-.4.2h-4.4v-2.8h4.3c.4.1.9.9.9 1.6zm8.9-2.7l-5.6.1.1 8.7h1.2v-3.6h4.3c1.2 0 2.2-1.1 2.2-2.4 0-.7-.3-1.5-.9-2-.4-.6-.8-.8-1.3-.8zm.9 2.6c0 .4-.1.8-.4 1-.1.1-.3.2-.4.2h-4.4v-2.8h4.3c.4.1.9.9.9 1.6zm7.4 6.1c1.5 0 2.8-.6 3.7-1.5.8-.8 1.2-1.9 1.2-3 0-3.1-2.6-4.4-5-4.4-1.4 0-2.7.6-3.6 1.5-.8.8-1.2 1.9-1.2 3 0 2.3 2.3 4.4 4.9 4.4zm-3.7-4.5c0-1.8 1.9-3.3 3.6-3.3h.1c1 0 2.1.4 2.8 1.1.6.6.9 1.3.9 2.1s-.3 1.6-.9 2.2c-.7.7-1.7 1.1-2.8 1.1-2 .2-3.6-1.3-3.7-3.2zm-47.5 1.3h3v1.5c-.2.2-1.2 1-2.9 1-2.3 0-3.7-1.2-3.8-3.3 0-1.9 1.4-3.2 3.6-3.2h.1c1.7 0 3.1 1 3.1 1l.1.1.8-.9-.2-.1c-1.4-.9-2.6-1.4-3.9-1.4-1.4 0-2.7.5-3.7 1.5-.8.8-1.3 1.9-1.2 3 0 2.8 2 4.5 5 4.5 2.7 0 4-1.7 4.1-1.7v-3h-4.2l.1 1z"/><path class="st52" d="M247.5 207.7l6.9 19.7 21.2-.2-17.7 12.3 7 19.7-17.1-12.1-18.3 12.5 6.8-19.8-18-12.1 22.7-.2z"/><path class="st28" d="M247.6 214.3l5.3 15.2 16-.2-13.5 9.5 5.4 15.1-13-9.3-14.2 9.5 5.1-15.2-13.7-9.2 17.6-.1z"/><path class="st52" d="M247.6 217.6l4.5 12.9 13.5-.1-11.5 8 4.6 12.8-11-7.9-12.1 8.2 4.4-13-11.7-7.8 15-.1z"/><path class="st41" d="M178.1 272c0-.5.3-1.2 1.9-1.2 1.5 0 2.8.7 2.8.7l-.3-3.1c-.2.2-.5.3-.7.2-.5-.1-1.3-.2-2.2-.2-3.3 0-4.8 2-4.8 3.8 0 3.5 5.4 3.7 5.4 6.2 0 .9-.9 1.4-1.9 1.5-2.2 0-3.7-1-3.7-1l.4 3.1c.3-.1.5-.1.8-.1.7.2 1.8.4 2.9.4 3.2 0 4.8-1.8 4.8-3.9 0-4.5-5.4-4.3-5.4-6.4zm111.9-3.2l.1 12.1h3l-.1-13.4h-3.6c0 .1.5.4.6 1.3zm-2.7 3.3c0-2.4-2-4.4-4.4-4.4l-6.4.1s.5.4.5.9l.1 12.4h2.9v-4.6h1.8l2.7 4.5h3.3l-2.9-5c1.5-.7 2.5-2.2 2.4-3.9zm-7.3-1.5h2.7c.8 0 1.5.7 1.5 1.5s-.7 1.5-1.5 1.5H280v-3zm-7.8 3.8v2.2s-1.1 1.9-2.9 1.9c-1.4 0-3.5-1.3-3.5-3.8s1.8-4 3.4-4 2.6 1.1 2.6 1.1l1.3-2.7s-1.5-1.6-4.1-1.5c-3.4 0-6.2 2.8-6.2 7s3.2 6.9 6.3 6.9 4.1-1.9 5.8-3.6v-4.1h-3.3c.1 0 .6.3.6.6zm41.7-7.3c-3.5 0-6.3 3.2-6.2 7 0 3.8 2.9 6.9 6.3 6.9 3.5 0 6.3-3.2 6.2-7 0-3.8-2.9-6.9-6.3-6.9zm.1 10.8c-1.7 0-3-1.6-3-3.8 0-2.2 1.3-3.8 3-3.8s3 1.6 3 3.8c0 2.1-1.4 3.7-3 3.8zm-11-3.3l-4-7h-3.9s.5.3.6 1.2l.1 12.1h2.8l-.1-8.3 4.6 8.3h2.8l-.1-13.4H303v7.1zm-46.8 1.4h4v-2.9h-4v-2.3h5.2l-.8-2.9-7.8.1s.5.3.5 1.2l.1 12.2 7.7-.1.7-3-5.6.1V276zm-50.8-.5l-4-7h-3.9s.5.3.6 1.2l.1 12.1h2.8l-.1-8.3 4.6 8.3h2.8l-.1-13.4h-2.8v7.1zm40.7-7.5h-3.6s.5.3.5 1.2l.1 12.1 7.7-.1.7-3-5.3.1-.1-10.3zm-58.6.6s.7.4.5 1.2l-3.5 12.2h2.6l.9-3.1h4.2l1 3.1h3.3l-4.5-13.3-4.5-.1zm1.2 7.7l1.2-4.3 1.4 4.3h-2.6zm27.8-8l-6.4.1s.5.3.5 1.2l.1 12.1h2.9v-4.6h2.9c2.4 0 4.4-2 4.4-4.4 0-2.5-2-4.4-4.4-4.4zm-.2 6h-2.7v-3.1h2.7c.8 0 1.5.7 1.5 1.5 0 .9-.7 1.5-1.5 1.6zm19.6-6.2h-3.6s.5.3.5 1.2l.1 12.1 7.7-.1.7-3-5.3.1-.1-10.3zm-10.6 8.2h4v-2.9h-4v-2.3h5.2l-.8-2.9-7.8.1s.5.3.5 1.2l.1 12.2 7.7-.1.7-3-5.6.1v-2.4z"/></g><path class="st62" d="M1123.2 259.2h-876L325.7 26"/><path class="st63" d="M1141.2 253.1h-10.8L1127 243l-3.4 10.1H1112l9.1 6.2-3.5 10.1 9.4-6.3 8.7 6.3-3.5-10.1 9-6.2zm-7.7 13.5l-6.6-4.8-7.3 4.8 2.7-7.7-7-4.8h9l2.6-7.8 2.6 7.8h8.2l-7 4.8 2.8 7.7zm2.6-11.9h-6.9l-2.2-6.6-2.2 6.6h-7.7l5.9 4-2.3 6.6 6.2-4.1 5.6 4.1-2.3-6.6 5.9-4z"/><path class="st57" d="M483.3 199h-9.4c-.8 0-1.2.3-1.2 1.2v2.5h-3.5v-4c0-2.3.8-3.1 3.1-3.1h25.8c2.3 0 3.1.8 3.1 3.1v4h-3.5v-2.5c0-.9-.4-1.2-1.2-1.2h-9.4v34.7h-3.8V199zm24.5 0h-3.5v-3.4h16.1c6.4 0 10.9 4.2 10.9 10.8 0 5.9-3.6 9.4-7.4 10.2v.1s.8.4 1.3 1.5l5.5 10.8c.5 1.1 1.4 1.2 2.7 1.2h.8v3.4h-1.7c-3.1 0-4-.4-5.3-2.9l-5.5-10.9c-1-2-1.7-2.3-3.8-2.3h-6.4v16h-3.8V199zm12.2 15.3c4.6 0 7.4-3 7.4-7.7s-2.8-7.6-7.3-7.6h-8.5v15.3h8.4zm16 16h.7c1 0 1.6-.2 1.9-1.2l12.5-33.5h4.1l12.5 33.5c.4 1 .9 1.2 1.9 1.2h.7v3.4h-1.7c-2.7 0-3.5-.5-4.5-3.1l-3.3-9h-15.1l-3.4 9c-1 2.6-1.7 3.1-4.4 3.1H536v-3.4zm23.6-12.1l-5-13.6c-.7-1.8-1.5-4.9-1.5-4.9h-.1s-.8 3.1-1.5 4.9l-5 13.6h13.1zm15.7 8s3.8 4.7 9.9 4.7c4.2 0 7.5-2.7 7.5-6.8 0-9.4-18.8-7.5-18.8-19.3 0-5.3 4.6-9.7 11.6-9.7 3.7 0 10.3 1.6 10.3 6.6v2.7h-3.6v-1.8c0-2.3-3.1-4-6.7-4-4.9 0-7.8 2.9-7.8 6.1 0 8.8 18.8 6.7 18.8 19.2 0 5.7-4.4 10.5-11.5 10.5-7.8 0-12.1-5.4-12.1-5.4l2.4-2.8zm29.5-27.2h-3.5v-3.4h16.1c6.8 0 11.8 4.4 11.8 11.5s-5 11.6-11.8 11.6h-8.8v14.9h-3.8V199zm12.1 16.4c5 0 8.3-3.1 8.3-8.3 0-5.1-3.3-8.1-8.3-8.1h-8.3v16.4h8.3zm34.9-20.4c10.8 0 19.4 8.5 19.4 19.4 0 11.2-8.6 19.9-19.4 19.9-10.8 0-19.4-8.8-19.4-19.9 0-10.9 8.6-19.4 19.4-19.4zm0 35.8c8.5 0 15.4-7.2 15.4-16.4 0-9-6.9-15.9-15.4-15.9-8.6 0-15.4 6.9-15.4 15.9 0 9.2 6.9 16.4 15.4 16.4zM679 199h-3.5v-3.4h16.1c6.4 0 10.9 4.2 10.9 10.8 0 5.9-3.6 9.4-7.4 10.2v.1s.8.4 1.3 1.5l5.5 10.8c.5 1.1 1.4 1.2 2.7 1.2h.8v3.4h-1.7c-3.1 0-4-.4-5.3-2.9l-5.5-10.9c-1-2-1.7-2.3-3.8-2.3h-6.4v16H679V199zm12.3 15.3c4.6 0 7.4-3 7.4-7.7s-2.8-7.6-7.3-7.6h-8.5v15.3h8.4zm28.4-15.3h-9.4c-.8 0-1.2.3-1.2 1.2v2.5h-3.5v-4c0-2.3.8-3.1 3.1-3.1h25.8c2.3 0 3.1.8 3.1 3.1v4H734v-2.5c0-.9-.4-1.2-1.2-1.2h-9.4v34.7h-3.8V199zm21.2 31.3h3.6V199h-3.6v-3.4h10.9v3.4h-3.6v31.4h3.6v3.4h-10.9v-3.5zm33.9-31.3h-3.5v-3.4H793c2.3 0 3.3 1 3.3 3.3v3.8h-3.6v-2.5c0-.8-.4-1.2-1.2-1.2h-13v13.9h14.3v3.4h-14.3v12.9c0 .8.4 1.2 1.2 1.2h13.4c.8 0 1.2-.4 1.2-1.2v-2.5h3.5v3.8c0 2.3-1 3.3-3.3 3.3H778c-2.3 0-3.3-1-3.3-3.3V199zm45 1.2c0-.8-.4-1.2-1.2-1.2h-2.3v-3.4h4c2.3 0 3.3 1 3.3 3.3v30.2c0 .8.4 1.2 1.2 1.2h12.6c.8 0 1.2-.4 1.2-1.2v-2.5h3.6v3.8c0 2.3-1 3.3-3.3 3.3h-15.8c-2.3 0-3.3-1-3.3-3.3v-30.2zm43.3-5.2c10.8 0 19.4 8.5 19.4 19.4 0 11.2-8.6 19.9-19.4 19.9-10.8 0-19.4-8.8-19.4-19.9 0-10.9 8.5-19.4 19.4-19.4zm0 35.8c8.5 0 15.4-7.2 15.4-16.4 0-9-6.9-15.9-15.4-15.9-8.6 0-15.4 6.9-15.4 15.9-.1 9.2 6.8 16.4 15.4 16.4zm42.5-35.8c8.8 0 13.3 4.7 13.3 4.7l-2.2 2.8s-4.2-3.9-11-3.9c-8.6 0-15.1 6.9-15.1 16 0 9.4 6.4 16.2 15.1 16.2 7.5 0 12-5.6 12-5.6v-4.7c0-.8-.4-1.2-1.2-1.2h-2.3v-3.4h3.8c2.3 0 3.3 1 3.3 3.3v14.5h-3.5v-2.9c0-.8.1-1.6.1-1.6h-.1s-4.4 5.1-12.5 5.1c-10.4 0-18.6-8.3-18.6-19.8-.1-10.9 8.1-19.5 18.9-19.5zm20.9 35.3h3.6V199h-3.6v-3.4h10.9v3.4h-3.6v31.4h3.6v3.4h-10.9v-3.5zm17.7-4.1s3.8 4.7 9.9 4.7c4.2 0 7.5-2.7 7.5-6.8 0-9.4-18.8-7.5-18.8-19.3 0-5.3 4.6-9.7 11.6-9.7 3.7 0 10.3 1.6 10.3 6.6v2.7h-3.6v-1.8c0-2.3-3.1-4-6.7-4-4.9 0-7.8 2.9-7.8 6.1 0 8.8 18.8 6.7 18.8 19.2 0 5.7-4.4 10.5-11.5 10.5-7.8 0-12.1-5.4-12.1-5.4l2.4-2.8zm38.7-27.2h-9.4c-.8 0-1.2.3-1.2 1.2v2.5h-3.5v-4c0-2.3.8-3.1 3.1-3.1h25.8c2.3 0 3.1.8 3.1 3.1v4h-3.5v-2.5c0-.9-.4-1.2-1.2-1.2h-9.4v34.7h-3.8V199zm21.2 31.3h3.6V199h-3.6v-3.4h10.9v3.4h-3.6v31.4h3.6v3.4h-10.9v-3.5zm34.2-35.3c5.4 0 14.2 2.3 14.2 8.1v3.1h-3.6v-2.1c0-3.6-6.2-5.5-10.6-5.5-8.4 0-15 6.6-15 15.8 0 9.1 6.4 16.4 15.1 16.4 7.9 0 12.5-5.4 12.5-5.4l2.2 2.8s-5.3 6.2-14.7 6.2c-11.2 0-19-8.9-19-20 .1-11 8.2-19.4 18.9-19.4zm17.4 35.3h.7c1 0 1.6-.2 1.9-1.2l12.5-33.5h4.1l12.5 33.5c.4 1 .9 1.2 1.9 1.2h.7v3.4h-1.7c-2.7 0-3.5-.5-4.5-3.1l-3.3-9h-15.1l-3.4 9c-1 2.6-1.7 3.1-4.4 3.1h-1.8v-3.4zm23.7-12.1l-5-13.6c-.7-1.8-1.5-4.9-1.5-4.9h-.1s-.8 3.1-1.5 4.9l-5 13.6h13.1z"/></svg>