<svg id="Livello_1" xmlns="http://www.w3.org/2000/svg" viewBox="0 0 705 281"><style>.st0{fill:#00295a}.st1{fill-rule:evenodd;clip-rule:evenodd;fill:#72c2e1}</style><path class="st0" d="M32.3 170.2v5.4h636.2v-5.4H32.3zm574.9-36.8h37.2l6.7 6.7c2 2.1 3.2 4.8 3.2 7.7 0 2.9-1.1 5.6-3.2 7.7-2 2.1-4.8 3.2-7.7 3.2H530.6v5.4h112.9c4.3 0 8.4-1.7 11.5-4.8 3.1-3.1 4.8-7.2 4.8-11.5s-1.7-8.4-4.8-11.5l-22.2-22.2c-5.9-5.9-13.7-9.1-22-9.1H81.4v5.4h500.4c1.2 12.9 12.2 23 25.4 23zm3.6-23c6.9 0 13.3 2.7 18.1 7.5L639 128h-31.8c-10.3 0-18.8-7.7-20.1-17.6h23.7zm-59.9 6.1v16.9h24.5v-16.9h-24.5zm19.2 11.5h-13.8v-6.1h13.8v6.1zm-49.8-11.5v16.9h24.5v-16.9h-24.5zm19.1 11.5h-13.8v-6.1h13.8v6.1zm-25.2-11.5h-21.9v5.4h16.5v6.1h-16.5v5.4h21.9v-16.9zm8.8 42.2h-19.2v5.4H523v-5.4zm-30.7 5.4h5.7v-5.4h-5.7v5.4zm57.5-16.9h-34.5v5.4h34.5v-5.4zm-40.3 5.4v-5.4h-5.7v5.4h5.7zm47.9-53.7h34.5v-5.4h-34.5v5.4zm-5.7 0v-5.4H546v5.4h5.7zm9.6-16.9h-23v5.4h23V82zm-28.8 0h-5.7v5.4h5.7V82zm82.2 57.5v5.4h5.4v-5.4h-5.4zm-10.7 0v5.4h5.4v-5.4H604zm32.3 0v5.4h5.4v-5.4h-5.4zm-10.8 0v5.4h5.4v-5.4h-5.4z"/><path class="st1" d="M177.3 45.2c52.5 0 95 42.6 95 95 0 52.5-42.6 95-95 95-52.5 0-95-42.6-95-95s42.6-95 95-95zm201.9 0c52.5 0 95 42.6 95 95 0 52.5-42.6 95-95 95-52.5 0-95-42.6-95-95s42.5-95 95-95z"/><path class="st0" d="M140.6 117.4h8.9v2.6h-8.9v-2.6zm23.2-6.9c.7-1.2 1.2-2 1.2-2v-.1s-.5.1-1.6.1H157c-.4 0-.7.2-.7.7v1.4h-2.8v-2.7c0-1.4.5-2 1.9-2h13.1v2.1L158 127.4h-3.4l9.2-16.9zm12.6 5.3c0-.1-2.7-1.5-2.7-4.5s2.4-5.8 6.7-5.8c4.1 0 6.7 2.5 6.7 5.8 0 3.2-2.6 5.1-2.6 5.1v.1c2 1.1 3.2 2.6 3.2 4.9 0 3.4-3 6.3-7.4 6.3-4.1 0-7.5-2.5-7.5-6.5 0-3.5 3.6-5.4 3.6-5.4zm3.9 9.2c2.3 0 4.4-1.5 4.4-3.6 0-1.9-1.6-2.7-3.6-3.5-.8-.3-2-.8-2.2-.8-.8 0-2.9 1.8-2.9 4.1-.1 2.3 2 3.8 4.3 3.8zm1.6-9.7c.7 0 2.3-1.8 2.3-3.7 0-2-1.6-3.2-3.8-3.2-2.3 0-3.7 1.3-3.7 3 0 1.9 1.6 2.6 3.5 3.4.5.1 1.3.5 1.7.5zm12-5.2c0-2.5 2-4.5 4.6-4.5 2.6 0 4.6 2 4.6 4.5s-2.1 4.5-4.6 4.5c-2.5 0-4.6-2-4.6-4.5zm17-4.2h2.9l-16.5 21.5h-2.9l16.5-21.5zm-10.1 4.2c0-1.3-1-2.3-2.3-2.3s-2.3 1-2.3 2.3c0 1.3 1 2.3 2.3 2.3s2.3-1.1 2.3-2.3zm8.8 8.7c2.5 0 4.6 2 4.6 4.5s-2.1 4.5-4.6 4.5c-2.6 0-4.6-2-4.6-4.5s2-4.5 4.6-4.5zm0 6.7c1.3 0 2.3-1 2.3-2.3 0-1.3-1-2.3-2.3-2.3-1.3 0-2.3 1-2.3 2.3.1 1.4 1 2.3 2.3 2.3zM133 139.4c2.7 0 4.1 2 4.1 4.5 0 .2-.1.8-.1.8h-7c.1 2 1.6 3.2 3.3 3.2 1.6 0 2.8-1.1 2.8-1.1l.8 1.3s-1.4 1.4-3.7 1.4c-3 0-5.1-2.2-5.1-5 .1-3.1 2.2-5.1 4.9-5.1zm2.3 3.9c-.1-1.6-1.1-2.4-2.2-2.4-1.4 0-2.5.8-2.8 2.4h5zm6.2-1.7c0-.3-.2-.4-.4-.4h-.8v-1.6h1.8c.8 0 1.2.4 1.2 1.1v.9c.5-1.1 1.8-2.2 3.3-2.2 1.6 0 2.5.7 2.9 2.2.5-1.2 1.8-2.2 3.4-2.2 2.2 0 3.2 1.2 3.2 3.7v4.1c0 .3.2.4.4.4h.8v1.6h-1.8c-.8 0-1.2-.4-1.2-1.2v-4.5c0-1.3-.3-2.4-1.7-2.4-1.3 0-2.3 1.2-2.7 2.5-.1.4-.2.8-.2 1.3v4.4h-1.8v-5.7c0-1.2-.2-2.4-1.6-2.4-1.4 0-2.4 1.2-2.7 2.5-.1.4-.1.8-.1 1.2v4.4h-1.8v-7.7zm19.6 0c0-.3-.2-.4-.4-.4h-.7v-1.6h1.8c.8 0 1.2.4 1.2 1.2v6.4c0 .3.2.4.4.4h.8v1.6h-1.8c-.8 0-1.2-.4-1.2-1.2v-6.4zm.1-5.7h1.6v1.9h-1.6v-1.9zm6.8 10.6s1.1 1.4 2.9 1.4c.9 0 1.7-.4 1.7-1.2 0-1.7-5.2-1.5-5.2-4.6 0-1.8 1.6-2.7 3.5-2.7 1.2 0 3.1.4 3.1 1.8v.9h-1.6v-.5c0-.6-.8-.8-1.4-.8-1.1 0-1.8.4-1.8 1.1 0 1.8 5.2 1.4 5.2 4.6 0 1.7-1.5 2.8-3.5 2.8-2.5 0-3.8-1.7-3.8-1.7l.9-1.1zm10.4 0s1.1 1.4 2.9 1.4c.9 0 1.7-.4 1.7-1.2 0-1.7-5.2-1.5-5.2-4.6 0-1.8 1.6-2.7 3.5-2.7 1.2 0 3.1.4 3.1 1.8v.9h-1.6v-.5c0-.6-.8-.8-1.4-.8-1.1 0-1.8.4-1.8 1.1 0 1.8 5.2 1.4 5.2 4.6 0 1.7-1.5 2.8-3.5 2.8-2.5 0-3.8-1.7-3.8-1.7l.9-1.1zm10.7-4.9c0-.3-.2-.4-.4-.4h-.8v-1.6h1.8c.8 0 1.2.4 1.2 1.2v6.4c0 .3.2.4.4.4h.8v1.6h-1.8c-.8 0-1.2-.4-1.2-1.2v-6.4zm.1-5.7h1.6v1.9h-1.6v-1.9zm11.1 3.5c2.9 0 5.2 2.1 5.2 5s-2.3 5-5.2 5c-2.9 0-5.1-2.1-5.1-5s2.3-5 5.1-5zm0 8.5c1.8 0 3.3-1.4 3.3-3.4s-1.5-3.4-3.3-3.4c-1.8 0-3.3 1.4-3.3 3.4.1 1.9 1.5 3.4 3.3 3.4zm9.4-6.3c0-.3-.2-.4-.4-.4h-.8v-1.6h1.8c.8 0 1.2.4 1.2 1.1v.9c.4-.8 1.5-2.2 3.6-2.2 2.3 0 3.3 1.2 3.3 3.7v4.1c0 .3.2.4.4.4h.8v1.6h-1.8c-.8 0-1.2-.4-1.2-1.2v-4.5c0-1.3-.3-2.4-1.8-2.4s-2.6 1-3 2.3c-.1.4-.2.8-.2 1.3v4.5h-1.8v-7.6zm13.8 0c0-.3-.2-.4-.4-.4h-.8v-1.6h1.8c.8 0 1.2.4 1.2 1.2v6.4c0 .3.2.4.4.4h.8v1.6h-1.8c-.8 0-1.2-.4-1.2-1.2v-6.4zm0-5.7h1.6v1.9h-1.6v-1.9zm-88.2 25.3c2.4 0 3.1 1.5 3.1 1.5v-.3c0-.6.3-1 1.1-1h1.8v1.6h-.8c-.2 0-.4.1-.4.4v7.2c0 3.2-2.4 4.4-4.8 4.4-1.2 0-2.3-.3-3.3-.8l.6-1.5s1.2.6 2.6.6c1.7 0 3-.7 3-2.7v-1.2c-.6.9-1.5 1.5-2.9 1.5-2.6 0-4.3-2.1-4.3-4.9.1-2.7 1.6-4.8 4.3-4.8zm3 4.8c0-2.5-1.2-3.2-2.7-3.2-1.7 0-2.6 1.2-2.6 3.2s1 3.3 2.8 3.3c1.3 0 2.5-.8 2.5-3.3zm11.7-1h.4c0-1.7-.6-2.3-2.1-2.3-.5 0-1.6.1-1.6.7v.5H145v-.9c0-1.6 2.4-1.8 3.3-1.8 3.1 0 3.9 1.6 3.9 3.7v4.1c0 .3.2.4.4.4h.8v1.6h-1.7c-.8 0-1.2-.4-1.2-1.1v-.6s-.8 1.9-3 1.9c-1.6 0-3.2-1-3.2-2.9-.1-3.1 4.1-3.3 5.7-3.3zm-2.1 4.7c1.5 0 2.5-1.6 2.5-3v-.3h-.4c-1.4 0-3.9.1-3.9 1.8 0 .8.6 1.5 1.8 1.5zm9.2-1.4s1.1 1.4 2.9 1.4c.9 0 1.7-.4 1.7-1.2 0-1.7-5.2-1.5-5.2-4.6 0-1.8 1.6-2.7 3.5-2.7 1.2 0 3.1.4 3.1 1.9v.9h-1.6v-.5c0-.6-.8-.8-1.4-.8-1.1 0-1.8.4-1.8 1.1 0 1.8 5.2 1.4 5.2 4.6 0 1.7-1.5 2.8-3.5 2.8-2.5 0-3.8-1.7-3.8-1.7l.9-1.2zm17.5 0s1.1 1.4 2.9 1.4c.9 0 1.7-.4 1.7-1.2 0-1.7-5.2-1.5-5.2-4.6 0-1.8 1.6-2.7 3.5-2.7 1.2 0 3.1.4 3.1 1.9v.9H179v-.5c0-.6-.8-.8-1.4-.8-1.1 0-1.8.4-1.8 1.1 0 1.8 5.2 1.4 5.2 4.6 0 1.7-1.5 2.8-3.5 2.8-2.5 0-3.8-1.7-3.8-1.7l.9-1.2zm14.4-7.1c2.7 0 4.1 2 4.1 4.5 0 .2-.1.8-.1.8h-7c.1 2 1.6 3.2 3.3 3.2 1.6 0 2.8-1.1 2.8-1.1l.8 1.3s-1.4 1.4-3.7 1.4c-3 0-5.1-2.2-5.1-5 .2-3.1 2.2-5.1 4.9-5.1zm2.3 3.9c-.1-1.6-1.1-2.4-2.2-2.4-1.4 0-2.5.8-2.8 2.4h5zm6.2-1.7c0-.3-.2-.4-.4-.4h-.8v-1.6h1.7c.8 0 1.2.3 1.2 1.1v1.3c.5-1.4 1.5-2.5 3-2.5h.5v1.8s-.2-.1-.5-.1c-1.2 0-2.2.8-2.7 2.2-.2.5-.2 1.1-.2 1.7v3.9h-1.8v-7.4zm9.3 0c0-.3-.2-.4-.4-.4h-.8v-1.6h1.7c.8 0 1.2.3 1.2 1.1v1.3c.5-1.4 1.5-2.5 3-2.5h.5v1.8s-.2-.1-.5-.1c-1.2 0-2.2.8-2.7 2.2-.2.5-.2 1.1-.2 1.7v3.9h-1.8v-7.4zm13.5 1.6h.4c0-1.7-.6-2.3-2.1-2.3-.5 0-1.6.1-1.6.7v.5h-1.7v-.9c0-1.6 2.4-1.8 3.3-1.8 3.1 0 3.9 1.6 3.9 3.7v4.1c0 .3.2.4.4.4h.8v1.6H222c-.8 0-1.2-.4-1.2-1.1v-.6s-.8 1.9-3 1.9c-1.6 0-3.2-1-3.2-2.9-.1-3.1 4.1-3.3 5.7-3.3zm-2.1 4.7c1.5 0 2.5-1.6 2.5-3v-.3h-.5c-1.4 0-3.9.1-3.9 1.8.1.8.6 1.5 1.9 1.5zm125.1-52.3h8.9v2.6h-8.9v-2.6zm23.1-6.9c.7-1.2 1.2-2 1.2-2v-.1s-.5.1-1.6.1h-6.5c-.4 0-.7.2-.7.7v1.4H356v-2.7c0-1.4.5-2 1.9-2H371v2.1l-10.4 19.5h-3.4l9.2-17zm6.8 9.3l9.7-13.9h3.5v13.2h3.4v2.6h-3.4v5.7h-3v-5.7h-10.1v-1.9zm10.1-8.1c0-1 .1-2.2.1-2.2h-.1s-.5 1-1.1 1.8l-4.7 6.5c-.5.8-1.1 1.4-1.1 1.4v.1s.9-.1 1.8-.1h5v-7.5zm11.7-1.6c0-2.5 2-4.5 4.6-4.5 2.6 0 4.6 2 4.6 4.5s-2.1 4.5-4.6 4.5c-2.5 0-4.6-2-4.6-4.5zm17-4.2h2.9l-16.5 21.5h-2.9l16.5-21.5zm-10.1 4.2c0-1.3-1-2.3-2.3-2.3-1.3 0-2.3 1-2.3 2.3 0 1.3 1 2.3 2.3 2.3 1.3-.1 2.3-1.1 2.3-2.3zm8.8 8.7c2.5 0 4.6 2 4.6 4.5s-2.1 4.5-4.6 4.5c-2.6 0-4.6-2-4.6-4.5s2-4.5 4.6-4.5zm0 6.7c1.3 0 2.3-1 2.3-2.3 0-1.3-1-2.3-2.3-2.3-1.3 0-2.3 1-2.3 2.3.1 1.4 1 2.3 2.3 2.3zm-69.8 13.9c1.2 0 3.4.5 3.4 2.1v1h-1.7v-.5c0-.7-1.1-1-1.8-1-1.9 0-3.3 1.4-3.3 3.4 0 2.2 1.6 3.4 3.4 3.4 1.8 0 3-1.3 3-1.3l.8 1.3s-1.4 1.6-3.9 1.6c-3 0-5.1-2.1-5.1-5 .1-2.8 2.2-5 5.2-5zm12 0c2.9 0 5.2 2.1 5.2 5s-2.3 5-5.2 5c-2.9 0-5.1-2.1-5.1-5s2.2-5 5.1-5zm0 8.5c1.8 0 3.3-1.4 3.3-3.4s-1.5-3.4-3.3-3.4c-1.8 0-3.3 1.4-3.3 3.4 0 1.9 1.5 3.4 3.3 3.4zm9.3-6.3c0-.3-.2-.4-.4-.4h-.8v-1.6h1.8c.8 0 1.2.4 1.2 1.1v.9c.4-.8 1.5-2.2 3.6-2.2 2.3 0 3.3 1.2 3.3 3.7v4.1c0 .3.2.4.4.4h.8v1.6h-1.8c-.8 0-1.2-.4-1.2-1.2v-4.5c0-1.3-.3-2.4-1.8-2.4s-2.6 1-3 2.3c-.1.4-.2.8-.2 1.3v4.5h-1.8v-7.6zm13.6 4.9s1.1 1.4 2.9 1.4c.9 0 1.7-.4 1.7-1.2 0-1.7-5.2-1.5-5.2-4.6 0-1.8 1.6-2.7 3.5-2.7 1.2 0 3.1.4 3.1 1.8v.9h-1.6v-.5c0-.6-.8-.8-1.4-.8-1.1 0-1.8.4-1.8 1.1 0 1.8 5.2 1.4 5.2 4.6 0 1.7-1.5 2.8-3.5 2.8-2.5 0-3.8-1.7-3.8-1.7l.9-1.1zm10.5-4.9c0-.3-.2-.4-.4-.4h-.8v-1.6h1.8c.9 0 1.2.4 1.2 1.2v4.5c0 1.3.3 2.4 1.8 2.4 2 0 3.1-1.7 3.1-3.6v-4.5h1.8v7.6c0 .3.2.4.4.4h.8v1.6h-1.8c-.8 0-1.2-.4-1.2-1.1v-.9c-.4.9-1.6 2.2-3.5 2.2-2.2 0-3.2-1.1-3.2-3.7v-4.1zm13.7 0c0-.3-.2-.4-.4-.4h-.8v-1.6h1.8c.8 0 1.2.4 1.2 1.1v.9c.5-1.1 1.8-2.2 3.3-2.2 1.6 0 2.5.7 2.9 2.2.5-1.2 1.9-2.2 3.4-2.2 2.2 0 3.2 1.2 3.2 3.7v4.1c0 .3.2.4.4.4h.8v1.6H414c-.8 0-1.2-.4-1.2-1.2v-4.5c0-1.3-.3-2.4-1.7-2.4-1.3 0-2.3 1.2-2.7 2.5-.1.4-.2.8-.2 1.3v4.4h-1.8v-5.7c0-1.2-.2-2.4-1.6-2.4-1.4 0-2.4 1.2-2.7 2.5-.1.4-.1.8-.1 1.2v4.4h-2v-7.7zm19.7 0c0-.3-.2-.4-.4-.4h-.8v-1.6h1.8c.8 0 1.2.4 1.2 1.2v6.4c0 .3.2.4.4.4h.8v1.6h-1.8c-.8 0-1.2-.4-1.2-1.2v-6.4zm0-5.7h1.6v1.9h-1.6v-1.9zM332 161.2c2.7 0 4.1 2 4.1 4.5 0 .2-.1.8-.1.8h-7c.1 2 1.6 3.2 3.3 3.2 1.6 0 2.8-1.1 2.8-1.1l.8 1.3s-1.4 1.4-3.7 1.4c-3 0-5.1-2.2-5.1-5 .1-3.1 2.1-5.1 4.9-5.1zm2.2 3.9c-.1-1.6-1.1-2.4-2.2-2.4-1.4 0-2.5.8-2.8 2.4h5zm6.2-1.7c0-.3-.2-.4-.4-.4h-.8v-1.6h1.8c.8 0 1.2.4 1.2 1.1v.9c.4-.8 1.5-2.2 3.6-2.2 2.3 0 3.3 1.2 3.3 3.7v4.1c0 .3.2.4.4.4h.8v1.6h-1.8c-.8 0-1.2-.4-1.2-1.2v-4.5c0-1.3-.3-2.4-1.8-2.4s-2.6 1-3 2.3c-.1.4-.2.8-.2 1.3v4.5h-1.8v-7.6zm17.6-2.2c2.7 0 4.1 2 4.1 4.5 0 .2-.1.8-.1.8h-7c.1 2 1.6 3.2 3.3 3.2 1.6 0 2.8-1.1 2.8-1.1l.8 1.3s-1.4 1.4-3.7 1.4c-3 0-5.1-2.2-5.1-5 .1-3.1 2.1-5.1 4.9-5.1zm2.2 3.9c-.1-1.6-1.1-2.4-2.2-2.4-1.4 0-2.5.8-2.8 2.4h5zm6.2-1.7c0-.3-.2-.4-.4-.4h-.8v-1.6h1.7c.8 0 1.2.3 1.2 1.1v1.3c.5-1.4 1.5-2.5 3-2.5h.5v1.8s-.2-.1-.5-.1c-1.2 0-2.2.8-2.7 2.2-.2.5-.2 1.1-.2 1.7v3.9h-1.8v-7.4zm12.1-2.2c2.4 0 3.1 1.5 3.1 1.5v-.3c0-.6.3-1 1.1-1h1.8v1.6h-.8c-.2 0-.4.1-.4.4v7.2c0 3.2-2.4 4.4-4.8 4.4-1.2 0-2.3-.3-3.3-.8l.6-1.5s1.2.6 2.6.6c1.7 0 3-.7 3-2.7v-1.2c-.6.9-1.5 1.5-2.9 1.5-2.6 0-4.3-2.1-4.3-4.9.1-2.7 1.6-4.8 4.3-4.8zm3 4.8c0-2.5-1.2-3.2-2.7-3.2-1.7 0-2.6 1.2-2.6 3.2s1 3.3 2.8 3.3c1.3 0 2.5-.8 2.5-3.3zm10.7-4.8c2.7 0 4.1 2 4.1 4.5 0 .2-.1.8-.1.8h-7c.1 2 1.6 3.2 3.3 3.2 1.6 0 2.8-1.1 2.8-1.1l.8 1.3s-1.4 1.4-3.7 1.4c-3 0-5.1-2.2-5.1-5 .1-3.1 2.2-5.1 4.9-5.1zm2.2 3.9c-.1-1.6-1.1-2.4-2.2-2.4-1.4 0-2.5.8-2.8 2.4h5zm6.3-2.2h-1.2v-1.5h1.3v-2.6h1.8v2.6h2.3v1.5h-2.3v4.4c0 1.9 1.3 2.2 2 2.2h.4v1.6h-.6c-1.2 0-3.6-.4-3.6-3.6v-4.6zm8.6.5c0-.3-.2-.4-.4-.4h-.8v-1.6h1.8c.8 0 1.2.4 1.2 1.2v6.4c0 .3.2.4.4.4h.8v1.6h-1.8c-.8 0-1.2-.4-1.2-1.2v-6.4zm0-5.7h1.6v1.9h-1.6v-1.9zm11.2 3.5c1.2 0 3.4.5 3.4 2.1v1h-1.7v-.5c0-.7-1.1-1-1.8-1-1.9 0-3.3 1.4-3.3 3.4 0 2.2 1.6 3.4 3.4 3.4 1.8 0 3-1.3 3-1.3l.8 1.3s-1.4 1.6-3.9 1.6c-3 0-5.1-2.1-5.1-5 0-2.8 2.1-5 5.2-5zm7.8 2.2c0-.3-.2-.4-.4-.4h-.8v-1.6h1.8c.8 0 1.2.4 1.2 1.2v6.4c0 .3.2.4.4.4h.8v1.6h-1.8c-.8 0-1.2-.4-1.2-1.2v-6.4zm0-5.7h1.6v1.9h-1.6v-1.9z"/></svg>