<svg baseProfile="basic" id="Livello_1" xmlns="http://www.w3.org/2000/svg" viewBox="0 0 1008 523"><style>.st0{fill:none;stroke:#00295a;stroke-width:2;stroke-linecap:round;stroke-miterlimit:10;stroke-dasharray:0,5}.st1{fill:#72c2e1}.st2{fill:#00295a}.st3{fill:#fff}</style><path class="st0" d="M352.8 410.9c-82.2 0-148.8-66.6-148.8-148.8s66.6-148.8 148.8-148.8 148.8 66.6 148.8 148.8"/><path class="st1" d="M216.1 125.3c68.3 0 123.6 55.3 123.6 123.6s-55.3 123.6-123.6 123.6S92.5 317.1 92.5 248.9c0-68.3 55.3-123.6 123.6-123.6z"/><path class="st2" d="M106.5 94.2c38.1 0 68.9 30.9 68.9 68.9S144.5 232 106.5 232s-68.9-30.9-68.9-68.9 30.8-68.9 68.9-68.9z"/><path class="st1" d="M92.2 159H75.8c-.8 0-1.4.6-1.4 1.4v11.5c0 .8.6 1.4 1.4 1.4h16.4c.8 0 1.4-.6 1.4-1.4v-11.5c0-.8-.7-1.4-1.4-1.4zm-15 2.8h5.4v8.7h-5.4v-8.7zm13.6 8.7h-5.4v-8.7h5.4v8.7zm3-23.5c3 0 5.9-1.2 8-3.4 1.7 3 4.9 5 8.4 5 .4 0 .8 0 1.1-.1h.2c1.3-.2 2.5-.6 3.5-1.3.6 1.1 1.5 2 2.4 2.7.6.5 1.5.3 1.9-.3.5-.6.3-1.5-.3-2-.8-.6-1.5-1.4-1.9-2.3 1.1-1.2 1.9-2.8 2.3-4.5.2-.8-.3-1.5-1.1-1.6-.7-.2-1.5.3-1.6 1.1-.3 1.5-1.1 2.7-2.1 3.7-1.3 1.1-2.9 1.8-4.5 1.8-2.8 0-5.4-1.8-6.4-4.5-.2-.6-.8-1.1-1.5-1.2-.7-.1-1.4.2-1.8.7-1.6 2.1-4.1 3.4-6.7 3.4s-4.9-1.1-6.5-3.1-2.2-4.6-1.7-7.2c.6-3.1 3.2-5.7 6.3-6.4.7-.2 1.4-.2 2.1-.2.3 0 .6 0 .8.1h.2c.3 0 .6.1.9.2h.1c.7.2 1.3.5 1.9.8.1 0 .1.1.2.1 1.2.7 2.2 1.7 3 3 .3.4.7.7 1.2.7.2 0 .5-.1.7-.2.7-.4.9-1.2.5-1.9-.6-1.1-1.5-2.1-2.4-2.9 1.2-2 3.4-3.2 5.8-3.2 2.6 0 4.9 1.5 6.1 3.8-.9.6-1.6 1.3-2.3 2.1-.5.6-.3 1.5.3 2 .3.2.5.3.8.3.4 0 .8-.2 1.1-.6.6-.8 1.4-1.5 2.3-1.9h.1c1-.5 2-.8 3-.8 3.4 0 6.3 2.6 6.7 6 .1.5.4.9.8 1.1 2.5 1.1 4.2 3.5 4.2 6.3 0 2.2-1 4.1-2.7 5.4-.6.5-.7 1.3-.3 2 .3.4.7.6 1.1.6.3 0 .6-.1.8-.3 2.4-1.8 3.8-4.6 3.8-7.7 0-3.6-2-6.9-5.2-8.5-.9-4.4-4.8-7.6-9.3-7.6-1 0-1.9.2-2.9.5-1.6-3.3-4.9-5.4-8.6-5.4-3.3 0-6.4 1.7-8.1 4.5-1.5-.8-3.2-1.2-4.9-1.2h-.1c-.8 0-1.7.1-2.5.3-4.1.9-7.5 4.4-8.4 8.5-.7 3.4.1 6.8 2.3 9.5 2.3 2.6 5.5 4.1 8.9 4.1z"/><path class="st1" d="M142.7 173.5c0-5.3-4.3-9.6-9.6-9.6h-2.4l-1-1.9 3-7.6c.2-.4.1-.9-.1-1.3-.3-.4-.7-.6-1.2-.6H120c-.5 0-.9.2-1.2.6-.3.4-.3.9-.1 1.3l3 7.6-1 1.9h-5.9v-2.1h1.9c.8 0 1.4-.6 1.4-1.4 0-.8-.6-1.4-1.4-1.4h-6.6c-.8 0-1.4.6-1.4 1.4 0 .8.6 1.4 1.4 1.4h1.9v2.1h-8.7v-2.1h1.9c.8 0 1.4-.6 1.4-1.4v-3.3c0-3.5-2.8-6.3-6.3-6.3H70.9c-3.5 0-6.3 2.8-6.3 6.3v3.3c0 .8.6 1.4 1.4 1.4h1.9V185c0 .8.6 1.4 1.4 1.4h.3v.2c0 4.4 3.6 8 7.9 8 2.7 0 5.1-1.4 6.6-3.5 1.4 2.1 3.8 3.5 6.6 3.5 2.7 0 5.1-1.4 6.6-3.5 1.4 2.1 3.8 3.5 6.6 3.5 2.7 0 5.1-1.4 6.6-3.5 1.4 2.1 3.8 3.5 6.6 3.5 2.6 0 5-1.3 6.4-3.3h15.2c.5 0 1-.3 1.2-.7s.2-1 0-1.4l-4.1-6.3c3.8-1.2 6.9-4.9 6.9-9.4zm-65.3 18.3c-2.8 0-5.2-2.3-5.2-5.2v-.2h10.3v.2c.1 2.9-2.2 5.2-5.1 5.2zm13.1 0c-2.8 0-5.2-2.3-5.2-5.2v-.2h10.3v.2c.1 2.9-2.2 5.2-5.1 5.2zm13.1 0c-2.8 0-5.2-2.3-5.2-5.2v-.2h10.3v.2c.1 2.9-2.2 5.2-5.1 5.2zm13.1 0c-2.8 0-5.2-2.3-5.2-5.2v-.2h10.3v.2c.1 2.9-2.2 5.2-5.1 5.2zm16.4-11.5c-.5 0-1 .3-1.2.7s-.2 1 .1 1.4l3.9 6.1h-11.1v-2.1h1.9c.8 0 1.4-.6 1.4-1.4 0-.8-.6-1.4-1.4-1.4H70.6v-23.2c0-.8-.6-1.4-1.4-1.4h-1.9v-1.9c0-1.9 1.6-3.5 3.5-3.5h29.5c1.9 0 3.5 1.6 3.5 3.5v1.9h-5.1c-.8 0-1.4.6-1.4 1.4 0 .8.6 1.4 1.4 1.4h1.9v3.5c0 .8.6 1.4 1.4 1.4h19.7c.5 0 1-.3 1.2-.8l1.6-3.3c.2-.4.2-.8 0-1.1l-2.5-6.3h7.4l-2.5 6.3c-.1.4-.1.8 0 1.1l1.6 3.3c.2.5.7.8 1.2.8h3.3c3.7 0 6.8 3.1 6.8 6.8.1 3.7-2.9 6.8-6.7 6.8zM477.8 19.9c68.3 0 123.6 55.3 123.6 123.6s-55.3 123.6-123.6 123.6-123.6-55.3-123.6-123.6S409.5 19.9 477.8 19.9zm-47.7 273.3c54.9 0 99.5 44.5 99.5 99.5 0 54.9-44.5 99.5-99.5 99.5s-99.5-44.5-99.5-99.5c.1-55 44.6-99.5 99.5-99.5z"/><path class="st3" d="M392.4 424.4h.6v-.1c0-2.4-.9-3.3-3-3.3-.6 0-2.2.2-2.2 1v.7h-1.5v-1.1c0-1.6 2.7-1.9 3.8-1.9 3.6 0 4.5 1.9 4.5 4.4v5.5c0 .3.2.5.5.5h1v1.4h-1.6c-1 0-1.4-.4-1.4-1.4v-.8s-.9 2.5-3.8 2.5c-1.9 0-3.9-1.1-3.9-3.4-.1-3.9 5-4 7-4zm-2.9 6.1c2.2 0 3.5-2.3 3.5-4.3v-.5h-.7c-1.8 0-5.4 0-5.4 2.6 0 1.1.9 2.2 2.6 2.2zm15.3-8.7c0-.3-.2-.5-.5-.5h-1V420h1.6c1 0 1.4.4 1.4 1.3v1.7c.5-1.7 1.8-3.1 3.6-3.1.3 0 .6.1.6.1v1.5h-.6c-1.6 0-2.8 1.3-3.3 3-.2.7-.3 1.5-.3 2.2v4.9h-1.6l.1-9.8zm12.4-2.1c3.2 0 4.8 2.5 4.8 5.3v.8h-8.8c0 2.9 2.1 4.6 4.5 4.6 2.1 0 3.5-1.4 3.5-1.4l.8 1.2s-1.7 1.6-4.3 1.6c-3.4 0-6-2.5-6-6-.2-3.8 2.4-6.1 5.5-6.1zm3.2 4.9c-.1-2.4-1.6-3.6-3.3-3.6-1.9 0-3.6 1.2-4 3.6h7.3zm8.7-4.9c3.1 0 3.8 2 3.8 2v-.4c0-.8.4-1.3 1.3-1.3h1.6v1.4h-.8c-.3 0-.5.2-.5.5v9.4c0 3.7-2.7 5.1-5.5 5.1-1.3 0-2.6-.3-3.8-.9l.6-1.3s1.4.8 3.1.8c2.2 0 4-1.1 4-3.6v-1.8c-.7 1.3-1.8 2-3.6 2-3.1 0-5.1-2.5-5.1-5.9-.1-3.6 1.8-6 4.9-6zm3.8 5.8c0-3.4-1.6-4.4-3.6-4.4-2.2 0-3.6 1.6-3.6 4.4 0 2.7 1.5 4.5 3.8 4.5 1.8 0 3.4-1.1 3.4-4.5zm5.6-3.7c0-.3-.2-.5-.5-.5h-1V420h1.6c1 0 1.4.4 1.4 1.4v8.3c0 .3.2.5.5.5h1v1.4h-1.6c-1 0-1.4-.4-1.4-1.4v-8.4zm0-6.4h1.5v2h-1.5v-2zm5.7 6.4c0-.3-.2-.5-.5-.5h-1V420h1.6c1 0 1.4.4 1.4 1.3v1.3c.6-1.6 2.4-2.9 4.2-2.9 2.1 0 3.2 1 3.6 2.9.6-1.6 2.3-2.9 4.2-2.9 2.8 0 3.8 1.6 3.8 4.5v5.5c0 .3.2.5.5.5h1v1.4h-1.6c-1 0-1.4-.4-1.4-1.4v-5.5c0-1.9-.4-3.4-2.5-3.4-1.7 0-3.2 1.6-3.6 3.3-.2.5-.2 1.1-.2 1.7v5.5h-1.6v-6.9c0-1.7-.3-3.4-2.4-3.4-1.9 0-3.3 1.6-3.8 3.4-.1.5-.2 1-.2 1.5v5.5h-1.6v-10.1h.1zm25.9-2.1c3.2 0 4.8 2.5 4.8 5.3v.8H466c0 2.9 2.1 4.6 4.5 4.6 2.1 0 3.5-1.4 3.5-1.4l.8 1.2s-1.7 1.6-4.3 1.6c-3.4 0-6-2.5-6-6-.1-3.8 2.5-6.1 5.6-6.1zm3.2 4.9c-.1-2.4-1.6-3.6-3.3-3.6-1.9 0-3.6 1.2-4 3.6h7.3zM403.8 96.1c2.8 0 3.8 2.2 3.8 2.2v-4.7c0-.3-.2-.5-.5-.5h-1v-1.4h1.7c1 0 1.4.4 1.4 1.4v13.1c0 .4.2.5.5.5h1v1.4h-1.6c-1 0-1.4-.4-1.4-1.3v-.7s-1 2.3-4 2.3c-3.1 0-5.1-2.5-5.1-6.2s2.2-6.1 5.2-6.1zm3.9 6.1c0-2.4-1.2-4.7-3.7-4.7-2.1 0-3.8 1.7-3.8 4.7 0 2.9 1.5 4.7 3.7 4.7 2 .1 3.8-1.3 3.8-4.7zm5.7-3.9c0-.3-.2-.5-.5-.5h-1v-1.4h1.7c1 0 1.4.4 1.4 1.4v8.4c0 .4.2.5.5.5h1v1.4h-1.7c-1 0-1.4-.4-1.4-1.4v-8.4zm0-6.6h1.5v2h-1.5v-2zm5.3 13.5s1.3 1.8 3.6 1.8c1.3 0 2.5-.6 2.5-1.9 0-2.6-6.6-2.1-6.6-5.9 0-2.1 1.8-3.2 4.2-3.2 1.2 0 3.6.5 3.6 2.1v1h-1.5v-.6c0-.9-1.3-1.2-2-1.2-1.6 0-2.6.6-2.6 1.7 0 2.6 6.6 2 6.6 5.9 0 2-1.8 3.3-4.1 3.3-3.1 0-4.5-2-4.5-2l.8-1zm10.9-7.5H428v-1.3h1.6v-3.2h1.6v3.2h2.9v1.3h-2.9v6c0 2.7 1.7 3.1 2.6 3.1h.5v1.4h-.7c-1.4 0-4.1-.4-4.1-4.4v-6.1h.1zm13.5 3.2h.7v-.1c0-2.4-.9-3.3-3-3.3-.6 0-2.3.2-2.3 1v.7H437v-1.1c0-1.6 2.8-2 3.8-2 3.7 0 4.6 2 4.6 4.5v5.6c0 .4.2.5.5.5h1v1.4h-1.6c-1 0-1.4-.4-1.4-1.4v-.9s-1 2.5-3.9 2.5c-2 0-4-1.1-4-3.5 0-3.8 5.1-3.9 7.1-3.9zm-2.9 6.1c2.2 0 3.6-2.3 3.6-4.4v-.5h-.7c-1.8 0-5.5 0-5.5 2.7 0 1.1.9 2.2 2.6 2.2zm9.2-8.7c0-.3-.2-.5-.5-.5h-1v-1.4h1.6c1 0 1.4.4 1.4 1.3V99c.4-1.1 1.9-3 4.7-3 2.9 0 3.9 1.7 3.9 4.5v5.6c0 .4.2.5.5.5h1v1.4h-1.7c-1 0-1.4-.4-1.4-1.4V101c0-1.8-.3-3.5-2.5-3.5-2 0-3.7 1.4-4.3 3.3-.1.5-.2 1-.2 1.6v5.6h-1.6v-9.7h.1zm13 8.8l6.6-8.2c.4-.6.9-1.1.9-1.1h-5.5c-.3 0-.5.2-.5.5v.9h-1.5v-1.4c0-1 .4-1.4 1.4-1.4h8.1v1l-6.6 8.2c-.5.6-1 1.1-1 1.1h6c.3 0 .5-.2.5-.5v-.9h1.5v1.4c0 1-.4 1.4-1.4 1.4h-8.7v-1h.2zm18.8-6.2h.7v-.1c0-2.4-.9-3.3-3-3.3-.6 0-2.3.2-2.3 1v.7h-1.5v-1.1c0-1.6 2.8-2 3.8-2 3.7 0 4.6 2 4.6 4.5v5.6c0 .4.2.5.5.5h1v1.4h-1.6c-1 0-1.4-.4-1.4-1.4v-.9s-1 2.5-3.9 2.5c-2 0-4-1.1-4-3.5 0-3.8 5.1-3.9 7.1-3.9zm-2.9 6.1c2.2 0 3.6-2.3 3.6-4.4v-.5h-.7c-1.8 0-5.5 0-5.5 2.7 0 1.1.9 2.2 2.6 2.2zm15.5-8.7c0-.3-.2-.5-.5-.5h-1v-1.4h1.6c1 0 1.4.4 1.4 1.3V99c.6-1.6 2.4-3 4.2-3 2.2 0 3.3 1 3.6 2.9.6-1.6 2.3-2.9 4.3-2.9 2.8 0 3.9 1.7 3.9 4.5v5.6c0 .4.2.5.5.5h1v1.4h-1.7c-1 0-1.4-.4-1.4-1.4V101c0-1.9-.4-3.5-2.5-3.5-1.8 0-3.2 1.6-3.7 3.3-.2.5-.2 1.1-.2 1.7v5.5h-1.6v-7c0-1.8-.3-3.5-2.5-3.5-1.9 0-3.3 1.7-3.8 3.4-.1.5-.2 1-.2 1.6v5.5h-1.6v-9.7h.2zm26.4-2.2c3.2 0 4.9 2.5 4.9 5.4v.8h-9c0 3 2.1 4.7 4.5 4.7 2.1 0 3.5-1.4 3.5-1.4l.8 1.2s-1.7 1.7-4.4 1.7c-3.5 0-6.1-2.5-6.1-6.1 0-4 2.7-6.3 5.8-6.3zm3.3 4.9c-.1-2.4-1.6-3.6-3.3-3.6-1.9 0-3.6 1.3-4 3.6h7.3zm9-4.9c2.8 0 3.8 2.2 3.8 2.2v-4.7c0-.3-.2-.5-.5-.5h-1v-1.4h1.7c1 0 1.4.4 1.4 1.4v13.1c0 .4.2.5.5.5h1v1.4h-1.6c-1 0-1.4-.4-1.4-1.3v-.7s-1 2.3-4 2.3c-3.1 0-5.1-2.5-5.1-6.2-.1-3.7 2.1-6.1 5.2-6.1zm3.9 6.1c0-2.4-1.2-4.7-3.7-4.7-2.1 0-3.8 1.7-3.8 4.7 0 2.9 1.5 4.7 3.7 4.7 1.9.1 3.8-1.3 3.8-4.7zm5.7-3.9c0-.3-.2-.5-.5-.5h-1v-1.4h1.7c1 0 1.4.4 1.4 1.4v8.4c0 .4.2.5.5.5h1v1.4h-1.7c-1 0-1.4-.4-1.4-1.4v-8.4zm-.1-6.6h1.5v2H542v-2zm11.9 9.2h.7v-.1c0-2.4-.9-3.3-3-3.3-.6 0-2.3.2-2.3 1v.7h-1.5v-1.1c0-1.6 2.8-2 3.8-2 3.7 0 4.6 2 4.6 4.5v5.6c0 .4.2.5.5.5h1v1.4H556c-1 0-1.4-.4-1.4-1.4v-.9s-1 2.5-3.9 2.5c-2 0-4-1.1-4-3.5 0-3.8 5.2-3.9 7.2-3.9zM551 107c2.2 0 3.6-2.3 3.6-4.4v-.5h-.7c-1.8 0-5.5 0-5.5 2.7 0 1.1.8 2.2 2.6 2.2zm-133.3 16.9c0-.3-.2-.5-.5-.5h-1V122h1.6c1 0 1.4.4 1.4 1.2v.8s.9-2.3 4-2.3 5.1 2.5 5.1 6.2-2.2 6.1-5.2 6.1c-2.9 0-3.8-2.2-3.8-2.2v6.6h-1.6v-14.5zm5.3 8.7c2.1 0 3.8-1.7 3.8-4.7 0-2.9-1.5-4.7-3.7-4.7-2 0-3.8 1.4-3.8 4.7 0 2.4 1.3 4.7 3.7 4.7zm13.1-10.9c3.2 0 4.9 2.5 4.9 5.4v.8h-9c0 3 2.1 4.7 4.5 4.7 2.1 0 3.5-1.4 3.5-1.4l.8 1.2s-1.7 1.7-4.4 1.7c-3.5 0-6.1-2.5-6.1-6.1 0-4 2.6-6.3 5.8-6.3zm3.3 5c-.1-2.4-1.6-3.6-3.3-3.6-1.9 0-3.6 1.3-4 3.6h7.3zm4.8-2.8c0-.3-.2-.5-.5-.5h-1V122h1.6c1 0 1.4.4 1.4 1.3v1.7c.6-1.8 1.9-3.1 3.7-3.1.3 0 .6.1.6.1v1.6h-.6c-1.7 0-2.9 1.3-3.4 3-.2.7-.3 1.5-.3 2.3v4.9h-1.6l.1-9.9zm13-2.2c1.3 0 4.2.6 4.2 2.5v1h-1.5v-.7c0-1-1.7-1.4-2.7-1.4-2.5 0-4.5 1.9-4.5 4.7 0 2.9 2.1 4.7 4.6 4.7 2.4 0 3.8-1.7 3.8-1.7l.7 1.2s-1.6 1.9-4.6 1.9c-3.5 0-6.2-2.5-6.2-6.1 0-3.5 2.7-6.1 6.2-6.1zm12.3 0c3.4 0 6.2 2.6 6.2 6.1 0 3.5-2.8 6.2-6.2 6.2-3.4 0-6.2-2.7-6.2-6.2s2.8-6.1 6.2-6.1zm0 10.9c2.5 0 4.5-2 4.5-4.8 0-2.7-2.1-4.6-4.5-4.6-2.5 0-4.6 2-4.6 4.6.1 2.7 2.1 4.8 4.6 4.8zm9.2-8.7c0-.3-.2-.5-.5-.5h-1V122h1.6c1 0 1.4.4 1.4 1.3v1.7c.6-1.8 1.9-3.1 3.7-3.1.3 0 .6.1.6.1v1.6h-.6c-1.7 0-2.9 1.3-3.4 3-.2.7-.3 1.5-.3 2.3v4.9h-1.6l.1-9.9zm8 7s1.3 1.8 3.6 1.8c1.3 0 2.5-.6 2.5-1.9 0-2.6-6.6-2.1-6.6-5.9 0-2.1 1.8-3.2 4.2-3.2 1.2 0 3.6.5 3.6 2.1v1h-1.5v-.6c0-.9-1.3-1.2-2-1.2-1.6 0-2.6.6-2.6 1.7 0 2.6 6.6 2 6.6 5.9 0 2-1.8 3.3-4.1 3.3-3.1 0-4.5-2-4.5-2l.8-1zm16.7-4.4h.7v-.1c0-2.4-.9-3.3-3-3.3-.6 0-2.3.2-2.3 1v.7h-1.5v-1.1c0-1.6 2.8-2 3.8-2 3.7 0 4.6 2 4.6 4.5v5.6c0 .4.2.5.5.5h1v1.4h-1.6c-1 0-1.4-.4-1.4-1.4v-.9s-1 2.5-3.9 2.5c-2 0-4-1.1-4-3.5 0-3.8 5.1-3.9 7.1-3.9zm-2.9 6.2c2.2 0 3.6-2.3 3.6-4.4v-.5h-.7c-1.8 0-5.5 0-5.5 2.7 0 1 .9 2.2 2.6 2.2zm19.7-11c2.8 0 3.8 2.2 3.8 2.2v-4.7c0-.3-.2-.5-.5-.5h-1v-1.4h1.7c1 0 1.4.4 1.4 1.4v13.1c0 .4.2.5.5.5h1v1.4h-1.6c-1 0-1.4-.4-1.4-1.3v-.7s-1 2.3-4 2.3c-3.1 0-5.1-2.5-5.1-6.2s2.2-6.1 5.2-6.1zm3.9 6.2c0-2.4-1.2-4.7-3.7-4.7-2.1 0-3.8 1.7-3.8 4.7 0 2.9 1.5 4.7 3.7 4.7 2 0 3.8-1.4 3.8-4.7zm11.7-1.4h.7v-.1c0-2.4-.9-3.3-3-3.3-.6 0-2.3.2-2.3 1v.7h-1.5v-1.1c0-1.6 2.8-2 3.8-2 3.7 0 4.6 2 4.6 4.5v5.6c0 .4.2.5.5.5h1v1.4H538c-1 0-1.4-.4-1.4-1.4v-.9s-1 2.5-3.9 2.5c-2 0-4-1.1-4-3.5-.1-3.8 5.1-3.9 7.1-3.9zm-2.9 6.2c2.2 0 3.6-2.3 3.6-4.4v-.5h-.7c-1.8 0-5.5 0-5.5 2.7-.1 1 .8 2.2 2.6 2.2zm-148.7 25.2h1c.3 0 .5-.2.5-.5V143h1.5l8.4 11.7c.6.8 1.3 2.1 1.3 2.1s-.1-1.3-.1-2.1v-10.3c0-1 .4-1.4 1.4-1.4h1.7v1.4h-1c-.3 0-.5.2-.5.5v14.4H397l-8.4-11.7c-.6-.8-1.4-2.1-1.4-2.1s.1 1.3.1 2.1v10.3c0 1-.4 1.4-1.4 1.4h-1.7v-1.4zm23.3-10.6c3.2 0 4.9 2.5 4.9 5.4v.8h-9c0 3 2.1 4.7 4.5 4.7 2.1 0 3.5-1.4 3.5-1.4l.8 1.2s-1.7 1.7-4.4 1.7c-3.5 0-6.1-2.5-6.1-6.1 0-3.9 2.7-6.3 5.8-6.3zm3.3 5c-.1-2.4-1.6-3.6-3.3-3.6-1.9 0-3.6 1.3-4 3.6h7.3zm4.3 4.2s1.3 1.8 3.6 1.8c1.3 0 2.5-.6 2.5-1.9 0-2.6-6.6-2.1-6.6-5.9 0-2.1 1.8-3.2 4.2-3.2 1.2 0 3.6.5 3.6 2.1v1h-1.5v-.6c0-.9-1.3-1.2-2-1.2-1.6 0-2.6.6-2.6 1.7 0 2.6 6.6 2 6.6 5.9 0 2-1.8 3.3-4.1 3.3-3.1 0-4.5-2-4.5-2l.8-1zM426 149h-1.5v-1.3h1.6v-3.2h1.6v3.2h2.9v1.3h-2.9v6c0 2.7 1.7 3.1 2.6 3.1h.5v1.4h-.7c-1.4 0-4.1-.4-4.1-4.4V149zm7.5-4.1c0-.3-.2-.5-.5-.5h-1V143h1.7c1 0 1.4.4 1.4 1.4v13.1c0 .4.2.5.5.5h1v1.4h-1.7c-1 0-1.4-.4-1.4-1.4v-13.1zm10.4 2.4c3.2 0 4.9 2.5 4.9 5.4v.8h-9c0 3 2.1 4.7 4.5 4.7 2.1 0 3.5-1.4 3.5-1.4l.8 1.2s-1.7 1.7-4.4 1.7c-3.5 0-6.1-2.5-6.1-6.1 0-3.9 2.6-6.3 5.8-6.3zm3.3 5c-.1-2.4-1.6-3.6-3.3-3.6-1.9 0-3.6 1.3-4 3.6h7.3zm-2.4-9.3h1.8l-2 2.8h-1.4l1.6-2.8zm12.3 1.9c-.2-.4-.4-.5-.8-.5h-.3V143h.7c1.2 0 1.5.2 1.9 1.4l4 11c.3.8.6 2.1.6 2.1s.3-1.3.6-2.1l4-11c.4-1.1.8-1.4 1.9-1.4h.7v1.4h-.2c-.4 0-.7.1-.8.5l-5.4 14.4h-1.7l-5.2-14.4zm19.3 2.4c3.2 0 4.9 2.5 4.9 5.4v.8h-9c0 3 2.1 4.7 4.5 4.7 2.1 0 3.5-1.4 3.5-1.4l.8 1.2s-1.7 1.7-4.4 1.7c-3.5 0-6.1-2.5-6.1-6.1 0-3.9 2.7-6.3 5.8-6.3zm3.3 5c-.1-2.4-1.6-3.6-3.3-3.6-1.9 0-3.6 1.3-4 3.6h7.3zm4.8-2.8c0-.3-.2-.5-.5-.5h-1v-1.4h1.6c1 0 1.4.4 1.4 1.3v1.7c.6-1.8 1.9-3.1 3.7-3.1.3 0 .6.1.6.1v1.6h-.6c-1.7 0-2.9 1.3-3.4 3-.2.7-.3 1.5-.3 2.3v4.9h-1.6l.1-9.9zm13.7 2.6h.7v-.1c0-2.4-.9-3.3-3-3.3-.6 0-2.3.2-2.3 1v.7h-1.5v-1.1c0-1.6 2.8-2 3.8-2 3.7 0 4.6 2 4.6 4.5v5.6c0 .4.2.5.5.5h1v1.4h-1.6c-1 0-1.4-.4-1.4-1.4v-.9s-1 2.5-3.9 2.5c-2 0-4-1.1-4-3.5 0-3.7 5.1-3.9 7.1-3.9zm-2.9 6.2c2.2 0 3.6-2.3 3.6-4.4v-.5h-.7c-1.8 0-5.5 0-5.5 2.7 0 1.1.9 2.2 2.6 2.2zm19.6-11c3.1 0 3.9 2 3.9 2v-.4c0-.8.4-1.3 1.3-1.3h1.6v1.4h-1c-.3 0-.5.2-.5.5v9.6c0 3.7-2.7 5.2-5.6 5.2-1.3 0-2.7-.3-3.8-.9l.6-1.3s1.4.8 3.2.8c2.3 0 4.1-1.1 4.1-3.7v-1.8c-.7 1.3-1.9 2-3.7 2-3.1 0-5.2-2.5-5.2-6 0-3.7 1.9-6.1 5.1-6.1zm3.8 6c0-3.4-1.6-4.5-3.7-4.5-2.3 0-3.6 1.7-3.6 4.4 0 2.8 1.5 4.6 3.8 4.6 1.9.1 3.5-1.1 3.5-4.5zm5.6-3.8c0-.3-.2-.5-.5-.5h-1v-1.4h1.6c1 0 1.4.4 1.4 1.3v1.7c.6-1.8 1.9-3.1 3.7-3.1.3 0 .6.1.6.1v1.6h-.6c-1.7 0-2.9 1.3-3.4 3-.2.7-.3 1.5-.3 2.3v4.9h-1.6l.1-9.9zm13.8 2.6h.7v-.1c0-2.4-.9-3.3-3-3.3-.6 0-2.3.2-2.3 1v.7H532v-1.1c0-1.6 2.8-2 3.8-2 3.7 0 4.6 2 4.6 4.5v5.6c0 .4.2.5.5.5h1v1.4h-1.6c-1 0-1.4-.4-1.4-1.4v-.9s-1 2.5-3.9 2.5c-2 0-4-1.1-4-3.5-.1-3.7 5-3.9 7.1-3.9zm-3 6.2c2.2 0 3.6-2.3 3.6-4.4v-.5h-.7c-1.8 0-5.5 0-5.5 2.7 0 1.1.9 2.2 2.6 2.2zm8.1 0l6.6-8.2c.4-.6.9-1.1.9-1.1h-5.5c-.3 0-.5.2-.5.5v.9h-1.5V149c0-1 .4-1.4 1.4-1.4h8.1v1l-6.6 8.2c-.5.6-1 1.1-1 1.1h6c.3 0 .5-.2.5-.5v-.9h1.5v1.4c0 1-.4 1.4-1.4 1.4H543v-1h.2zm12.8-8.8c0-.3-.2-.5-.5-.5h-1v-1.4h1.7c1 0 1.4.4 1.4 1.4v8.4c0 .4.2.5.5.5h1v1.4h-1.7c-1 0-1.4-.4-1.4-1.4v-8.4zm0-6.5h1.5v2H556v-2zm10.4 4.3c3.2 0 4.9 2.5 4.9 5.4v.8h-9c0 3 2.1 4.7 4.5 4.7 2.1 0 3.5-1.4 3.5-1.4l.8 1.2s-1.7 1.7-4.4 1.7c-3.5 0-6.1-2.5-6.1-6.1.1-3.9 2.7-6.3 5.8-6.3zm3.3 5c-.1-2.4-1.6-3.6-3.3-3.6-1.9 0-3.6 1.3-4 3.6h7.3zm-146.9 25.4h.7v-.1c0-2.4-.9-3.3-3-3.3-.6 0-2.3.2-2.3 1v.7h-1.5v-1c0-1.6 2.8-2 3.8-2 3.7 0 4.6 2 4.6 4.5v5.6c0 .4.2.5.5.5h1v1.4H425c-1 0-1.4-.4-1.4-1.4v-.9s-1 2.5-3.9 2.5c-2 0-4-1.1-4-3.5 0-3.8 5.1-4 7.1-4zm-2.9 6.2c2.2 0 3.6-2.3 3.6-4.4v-.5h-.7c-1.8 0-5.5 0-5.5 2.7 0 1.1.8 2.2 2.6 2.2zm9.1-13.4c0-.3-.2-.5-.5-.5h-1v-1.4h1.7c1 0 1.4.4 1.4 1.4v13.1c0 .4.2.5.5.5h1v1.4h-1.7c-1 0-1.4-.4-1.4-1.4v-13.1zm5.8 0c0-.3-.2-.5-.5-.5h-1v-1.4h1.7c1 0 1.4.4 1.4 1.4v13.1c0 .4.2.5.5.5h1v1.4h-1.7c-1 0-1.4-.4-1.4-1.4v-13.1zm5.8-2.1h1.7l-1.3 4h-1.3l.9-4zm9.9 9.3h.7v-.1c0-2.4-.9-3.3-3-3.3-.6 0-2.3.2-2.3 1v.7h-1.5v-1c0-1.6 2.8-2 3.8-2 3.7 0 4.6 2 4.6 4.5v5.6c0 .4.2.5.5.5h1v1.4h-1.6c-1 0-1.4-.4-1.4-1.4v-.9s-1 2.5-3.9 2.5c-2 0-4-1.1-4-3.5-.1-3.8 5-4 7.1-4zm-3 6.2c2.2 0 3.6-2.3 3.6-4.4v-.5h-.7c-1.8 0-5.5 0-5.5 2.7 0 1.1.9 2.2 2.6 2.2zm13.4-10.9c2.8 0 3.8 2.2 3.8 2.2v-4.7c0-.3-.2-.5-.5-.5h-1v-1.4h1.7c1 0 1.4.4 1.4 1.4v13.1c0 .4.2.5.5.5h1v1.4h-1.6c-1 0-1.4-.4-1.4-1.3v-.7s-1 2.3-4 2.3c-3.1 0-5.1-2.5-5.1-6.2-.1-3.7 2.1-6.1 5.2-6.1zm3.9 6.1c0-2.4-1.2-4.7-3.7-4.7-2.1 0-3.8 1.7-3.8 4.7 0 2.9 1.5 4.7 3.7 4.7 1.9 0 3.8-1.4 3.8-4.7zm10.7-6.1c3.4 0 6.2 2.6 6.2 6.1s-2.8 6.2-6.2 6.2c-3.4 0-6.2-2.7-6.2-6.2s2.8-6.1 6.2-6.1zm0 10.8c2.5 0 4.5-2 4.5-4.8 0-2.7-2.1-4.6-4.5-4.6-2.5 0-4.6 2-4.6 4.6 0 2.8 2.1 4.8 4.6 4.8zm7.8.1l6.6-8.2c.4-.6.9-1.1.9-1.1h-5.5c-.3 0-.5.2-.5.5v.9h-1.5v-1.4c0-1 .4-1.4 1.4-1.4h8.1v1l-6.6 8.2c-.5.6-1 1.1-1 1.1h6c.3 0 .5-.2.5-.5v-.9h1.5v1.4c0 1-.4 1.4-1.4 1.4h-8.7v-1h.2zm12.8-8.8c0-.3-.2-.5-.5-.5h-1v-1.4h1.7c1 0 1.4.4 1.4 1.4v8.4c0 .4.2.5.5.5h1v1.4h-1.7c-1 0-1.4-.4-1.4-1.4v-8.4zm0-6.5h1.5v2h-1.5v-2zm10.8 4.4c3.4 0 6.2 2.6 6.2 6.1s-2.8 6.2-6.2 6.2c-3.4 0-6.2-2.7-6.2-6.2.1-3.5 2.8-6.1 6.2-6.1zm.1 10.8c2.5 0 4.5-2 4.5-4.8 0-2.7-2.1-4.6-4.5-4.6-2.5 0-4.6 2-4.6 4.6 0 2.8 2 4.8 4.6 4.8zm9.1-8.7c0-.3-.2-.5-.5-.5h-1v-1.4h1.6c1 0 1.4.4 1.4 1.3v1.3c.4-1.1 1.9-3 4.7-3 2.9 0 3.9 1.7 3.9 4.5v5.6c0 .4.2.5.5.5h1v1.4H526c-1 0-1.4-.4-1.4-1.4v-5.6c0-1.8-.3-3.5-2.5-3.5-2 0-3.7 1.4-4.3 3.3-.1.5-.2 1-.2 1.6v5.6H516l.1-9.7zm18.8-2.1c3.2 0 4.9 2.5 4.9 5.4v.8h-9c0 3 2.1 4.7 4.5 4.7 2.1 0 3.5-1.4 3.5-1.4l.8 1.2s-1.7 1.7-4.4 1.7c-3.5 0-6.1-2.5-6.1-6.1.1-4 2.7-6.3 5.8-6.3zm3.3 4.9c-.1-2.4-1.6-3.6-3.3-3.6-1.9 0-3.6 1.3-4 3.6h7.3zm-117.4 20.7c2.8 0 3.8 2.2 3.8 2.2v-4.7c0-.3-.2-.5-.5-.5h-1v-1.4h1.7c1 0 1.4.4 1.4 1.4v13.1c0 .4.2.5.5.5h1v1.4h-1.6c-1 0-1.4-.4-1.4-1.3v-.7s-1 2.3-4 2.3c-3.1 0-5.1-2.5-5.1-6.2s2.2-6.1 5.2-6.1zm3.9 6.1c0-2.4-1.2-4.7-3.7-4.7-2.1 0-3.8 1.7-3.8 4.7 0 2.9 1.5 4.7 3.7 4.7 2 .1 3.8-1.3 3.8-4.7zm10.3-6.1c3.2 0 4.9 2.5 4.9 5.4v.8h-9c0 3 2.1 4.7 4.5 4.7 2.1 0 3.5-1.4 3.5-1.4l.8 1.2s-1.7 1.7-4.4 1.7c-3.5 0-6.1-2.5-6.1-6.1 0-4 2.7-6.3 5.8-6.3zm3.3 4.9c-.1-2.4-1.6-3.6-3.3-3.6-1.9 0-3.6 1.3-4 3.6h7.3zm4.8-7.4c0-.3-.2-.5-.5-.5h-1v-1.4h1.7c1 0 1.4.4 1.4 1.4v13.1c0 .4.2.5.5.5h1v1.4h-1.7c-1 0-1.4-.4-1.4-1.4v-13.1zm12 4.7c0-.3-.2-.5-.5-.5h-1v-1.4h1.6c1 0 1.4.4 1.4 1.3v1.3c.6-1.6 2.4-3 4.2-3 2.2 0 3.3 1 3.6 2.9.6-1.6 2.3-2.9 4.3-2.9 2.8 0 3.9 1.7 3.9 4.5v5.6c0 .4.2.5.5.5h1v1.4h-1.7c-1 0-1.4-.4-1.4-1.4v-5.6c0-1.9-.4-3.5-2.5-3.5-1.8 0-3.2 1.6-3.7 3.3-.2.5-.2 1.1-.2 1.7v5.5H463v-7.1c0-1.8-.3-3.5-2.5-3.5-1.9 0-3.3 1.7-3.8 3.4-.1.5-.2 1-.2 1.6v5.5h-1.6v-9.6h.2zm26.8-2.2c3.4 0 6.2 2.6 6.2 6.1s-2.8 6.2-6.2 6.2c-3.4 0-6.2-2.7-6.2-6.2s2.8-6.1 6.2-6.1zm0 10.9c2.5 0 4.5-2 4.5-4.8 0-2.7-2.1-4.6-4.5-4.6-2.5 0-4.6 2-4.6 4.6 0 2.7 2.1 4.8 4.6 4.8zm13.4-10.9c2.8 0 3.8 2.2 3.8 2.2v-4.7c0-.3-.2-.5-.5-.5h-1v-1.4h1.7c1 0 1.4.4 1.4 1.4v13.1c0 .4.2.5.5.5h1v1.4h-1.6c-1 0-1.4-.4-1.4-1.3v-.7s-1 2.3-4 2.3c-3.1 0-5.1-2.5-5.1-6.2-.1-3.7 2.1-6.1 5.2-6.1zm3.8 6.1c0-2.4-1.2-4.7-3.7-4.7-2.1 0-3.8 1.7-3.8 4.7 0 2.9 1.5 4.7 3.7 4.7 2 .1 3.8-1.3 3.8-4.7zm10.3-6.1c3.2 0 4.9 2.5 4.9 5.4v.8h-9c0 3 2.1 4.7 4.5 4.7 2.1 0 3.5-1.4 3.5-1.4l.8 1.2s-1.7 1.7-4.4 1.7c-3.5 0-6.1-2.5-6.1-6.1 0-4 2.7-6.3 5.8-6.3zm3.3 4.9c-.1-2.4-1.6-3.6-3.3-3.6-1.9 0-3.6 1.3-4 3.6h7.3zm4.8-7.4c0-.3-.2-.5-.5-.5h-1v-1.4h1.7c1 0 1.4.4 1.4 1.4v13.1c0 .4.2.5.5.5h1v1.4h-1.7c-1 0-1.4-.4-1.4-1.4v-13.1zm5.7 0c0-.3-.2-.5-.5-.5h-1v-1.4h1.7c1 0 1.4.4 1.4 1.4v13.1c0 .4.2.5.5.5h1v1.4h-1.7c-1 0-1.4-.4-1.4-1.4v-13.1zm10.8 2.5c3.4 0 6.2 2.6 6.2 6.1s-2.8 6.2-6.2 6.2-6.2-2.7-6.2-6.2 2.8-6.1 6.2-6.1zm0 10.9c2.5 0 4.5-2 4.5-4.8 0-2.7-2.1-4.6-4.5-4.6-2.5 0-4.6 2-4.6 4.6.1 2.7 2.1 4.8 4.6 4.8zm-109.3 16.9c0-.3-.2-.5-.5-.5h-1v-1.4h1.6c1 0 1.4.4 1.4 1.3v1.3c.6-1.6 2.4-3 4.2-3 2.2 0 3.3 1 3.6 2.9.6-1.6 2.3-2.9 4.3-2.9 2.8 0 3.9 1.7 3.9 4.5v5.6c0 .4.2.5.5.5h1v1.4H442c-1 0-1.4-.4-1.4-1.4v-5.6c0-1.9-.4-3.5-2.5-3.5-1.8 0-3.2 1.6-3.7 3.3-.2.5-.2 1.1-.2 1.7v5.5h-1.6V229c0-1.8-.3-3.5-2.5-3.5-1.9 0-3.3 1.7-3.8 3.4-.1.5-.2 1-.2 1.6v5.5h-1.6v-9.6h.2zm21.6 0c0-.3-.2-.5-.5-.5h-1v-1.4h1.7c1 0 1.4.4 1.4 1.4v5.7c0 1.8.3 3.5 2.6 3.5 2.7 0 4.3-2.4 4.3-4.9v-5.6h1.6v9.8c0 .4.2.5.5.5h1v1.4h-1.6c-1 0-1.4-.4-1.4-1.3v-1.3c-.5 1.1-2 3-4.6 3-2.8 0-3.9-1.5-3.9-4.5v-5.8h-.1zm14.1-4.7c0-.3-.2-.5-.5-.5h-1v-1.4h1.7c1 0 1.4.4 1.4 1.4v13.1c0 .4.2.5.5.5h1v1.4h-1.7c-1 0-1.4-.4-1.4-1.4v-13.1zm5.9 4.1h-1.5v-1.3h1.6v-3.2h1.6v3.2h2.9v1.3H468v6c0 2.7 1.7 3.1 2.6 3.1h.5v1.4h-.7c-1.4 0-4.1-.4-4.1-4.4v-6.1zm7.7.6c0-.3-.2-.5-.5-.5h-1v-1.4h1.7c1 0 1.4.4 1.4 1.4v8.4c0 .4.2.5.5.5h1v1.4h-1.7c-1 0-1.4-.4-1.4-1.4v-8.4zm0-6.6h1.5v2H474v-2zm5.8 6h-1.5v-1.3h1.5v-.4c0-3.9 2.7-4.4 4-4.4h.7v1.4h-.6c-.9 0-2.6.3-2.6 2.9v.4h3v1.3h-3v10.4h-1.6v-10.3h.1zm11.6-1.6c3.4 0 6.2 2.6 6.2 6.1s-2.8 6.2-6.2 6.2c-3.4 0-6.2-2.7-6.2-6.2.1-3.5 2.8-6.1 6.2-6.1zm.1 10.9c2.5 0 4.5-2 4.5-4.8 0-2.7-2.1-4.6-4.5-4.6-2.5 0-4.6 2-4.6 4.6 0 2.7 2 4.8 4.6 4.8zm9.1-8.7c0-.3-.2-.5-.5-.5h-1v-1.4h1.6c1 0 1.4.4 1.4 1.3v1.3c.4-1.1 1.9-3 4.7-3 2.9 0 3.9 1.7 3.9 4.5v5.6c0 .4.2.5.5.5h1v1.4h-1.7c-1 0-1.4-.4-1.4-1.4v-5.6c0-1.8-.3-3.5-2.5-3.5-2 0-3.7 1.4-4.3 3.3-.1.5-.2 1-.2 1.6v5.6h-1.6v-9.7h.1zm14.3-.6h-1.5v-1.3h1.6v-3.2h1.6v3.2h2.9v1.3h-2.9v6c0 2.7 1.7 3.1 2.6 3.1h.5v1.4h-.7c-1.4 0-4.1-.4-4.1-4.4v-6.1zm12.1-1.6c3.2 0 4.9 2.5 4.9 5.4v.8h-9c0 3 2.1 4.7 4.5 4.7 2.1 0 3.5-1.4 3.5-1.4l.8 1.2s-1.7 1.7-4.4 1.7c-3.5 0-6.1-2.5-6.1-6.1 0-4 2.7-6.3 5.8-6.3zm3.3 5c-.1-2.4-1.6-3.6-3.3-3.6-1.9 0-3.6 1.3-4 3.6h7.3zm-399 23.6h.7v-.1c0-2.4-.9-3.3-3-3.3-.6 0-2.3.2-2.3 1v.7h-1.5V250c0-1.6 2.8-2 3.8-2 3.7 0 4.6 2 4.6 4.5v5.6c0 .3.2.5.5.5h1v1.4h-1.6c-1 0-1.4-.4-1.4-1.4v-.9s-1 2.5-3.9 2.5c-2 0-4-1.1-4-3.5 0-3.8 5.1-3.9 7.1-3.9zm-2.9 6.1c2.2 0 3.6-2.3 3.6-4.4v-.5h-.7c-1.8 0-5.5 0-5.5 2.7 0 1.1.9 2.2 2.6 2.2zm14.3-10.9c1.3 0 4.2.6 4.2 2.5v1h-1.5v-.7c0-1-1.7-1.4-2.7-1.4-2.5 0-4.5 1.9-4.5 4.7 0 2.9 2.1 4.7 4.6 4.7 2.4 0 3.8-1.7 3.8-1.7l.7 1.2s-1.6 1.9-4.6 1.9c-3.5 0-6.1-2.5-6.1-6.1-.1-3.5 2.6-6.1 6.1-6.1zm11.4 0c2.9 0 3.9 2.3 3.9 2.3v-.8c0-.8.4-1.2 1.4-1.2h1.6v1.4h-1c-.3 0-.5.2-.5.5v14.5h-1.6v-6.6s-1 2.3-4 2.3c-3.1 0-5.1-2.5-5.1-6.1 0-3.9 2.2-6.3 5.3-6.3zm3.9 6.2c0-2.4-1.2-4.7-3.7-4.7-2.1 0-3.8 1.7-3.8 4.7 0 2.9 1.5 4.7 3.7 4.7 1.9 0 3.8-1.4 3.8-4.7zm5.5-4c0-.3-.2-.5-.5-.5h-1v-1.4h1.7c1 0 1.4.4 1.4 1.4v5.7c0 1.8.3 3.5 2.6 3.5 2.7 0 4.3-2.4 4.3-4.9v-5.6h1.6v9.8c0 .3.2.5.5.5h1v1.4h-1.6c-1 0-1.4-.4-1.4-1.3v-1.3c-.5 1.1-2 3-4.6 3-2.8 0-3.9-1.5-3.9-4.5v-5.8h-.1zm20.2 2.6h.7v-.1c0-2.4-.9-3.3-3-3.3-.6 0-2.3.2-2.3 1v.7h-1.5V250c0-1.6 2.8-2 3.8-2 3.7 0 4.6 2 4.6 4.5v5.6c0 .3.2.5.5.5h1v1.4h-1.6c-1 0-1.4-.4-1.4-1.4v-.9s-1 2.5-3.9 2.5c-2 0-4-1.1-4-3.5-.1-3.8 5-3.9 7.1-3.9zm-3 6.1c2.2 0 3.6-2.3 3.6-4.4v-.5h-.7c-1.8 0-5.5 0-5.5 2.7 0 1.1.9 2.2 2.6 2.2zm15.7-9.3h-1.5v-1.3h1.6v-3.2h1.6v3.2h2.9v1.3h-3v6c0 2.7 1.7 3.1 2.6 3.1h.5v1.4h-.7c-1.4 0-4.1-.4-4.1-4.4l.1-6.1zm7.6.6c0-.3-.2-.5-.5-.5h-1v-1.4h1.6c1 0 1.4.4 1.4 1.3v1.7c.6-1.8 1.9-3.1 3.7-3.1.3 0 .6.1.6.1v1.6h-.6c-1.7 0-2.9 1.3-3.4 3-.2.7-.3 1.5-.3 2.3v4.9H204v-9.9zm13.8 2.6h.7v-.1c0-2.4-.9-3.3-3-3.3-.6 0-2.3.2-2.3 1v.7h-1.5V250c0-1.6 2.8-2 3.8-2 3.7 0 4.6 2 4.6 4.5v5.6c0 .3.2.5.5.5h1v1.4H220c-1 0-1.4-.4-1.4-1.4v-.9s-1 2.5-3.9 2.5c-2 0-4-1.1-4-3.5-.1-3.8 5-3.9 7.1-3.9zm-3 6.1c2.2 0 3.6-2.3 3.6-4.4v-.5h-.7c-1.8 0-5.5 0-5.5 2.7 0 1.1.9 2.2 2.6 2.2zm8.8-1.7s1.3 1.8 3.6 1.8c1.3 0 2.5-.6 2.5-1.9 0-2.6-6.6-2.1-6.6-5.9 0-2.1 1.8-3.2 4.2-3.2 1.2 0 3.6.5 3.6 2.1v1h-1.5v-.6c0-.9-1.3-1.2-2-1.2-1.6 0-2.6.6-2.6 1.7 0 2.6 6.6 2 6.6 5.9 0 2-1.8 3.3-4.1 3.3-3 0-4.5-2-4.5-2l.8-1zm10.6-7c0-.3-.2-.5-.5-.5h-1v-1.4h1.6c1 0 1.4.4 1.4 1.2v.8s.9-2.3 4-2.3 5.1 2.5 5.1 6.1c0 3.7-2.2 6.1-5.2 6.1-2.9 0-3.8-2.2-3.8-2.2v6.6h-1.6v-14.4zm5.3 8.7c2.1 0 3.8-1.7 3.8-4.7 0-2.9-1.5-4.7-3.7-4.7-2 0-3.8 1.4-3.8 4.7 0 2.3 1.3 4.7 3.7 4.7zM253 248c3.4 0 6.2 2.6 6.2 6.1s-2.8 6.2-6.2 6.2c-3.4 0-6.2-2.7-6.2-6.2s2.8-6.1 6.2-6.1zm0 10.9c2.5 0 4.5-2 4.5-4.8 0-2.7-2-4.6-4.5-4.6s-4.6 2-4.6 4.6c0 2.7 2.1 4.8 4.6 4.8zm9.1-8.7c0-.3-.2-.5-.5-.5h-1v-1.4h1.6c1 0 1.4.4 1.4 1.3v1.7c.6-1.8 1.9-3.1 3.7-3.1.3 0 .6.1.6.1v1.6h-.6c-1.7 0-2.9 1.3-3.4 3-.2.7-.3 1.5-.3 2.3v4.9H262l.1-9.9zm8.6-.6h-1.5v-1.3h1.6v-3.2h1.6v3.2h2.9v1.3h-2.9v6c0 2.7 1.7 3.1 2.6 3.1h.5v1.4h-.7c-1.3 0-4.1-.4-4.1-4.4v-6.1zm13.6 3.2h.7v-.1c0-2.4-.9-3.3-3-3.3-.6 0-2.3.2-2.3 1v.7h-1.5V250c0-1.6 2.8-2 3.8-2 3.7 0 4.6 2 4.6 4.5v5.6c0 .3.2.5.5.5h1v1.4h-1.6c-1 0-1.4-.4-1.4-1.4v-.9s-1 2.5-3.9 2.5c-2 0-4-1.1-4-3.5-.1-3.8 5-3.9 7.1-3.9zm-3 6.1c2.2 0 3.6-2.3 3.6-4.4v-.5h-.7c-1.8 0-5.5 0-5.5 2.7 0 1.1.9 2.2 2.6 2.2zm9.3-9.3h-1.5v-1.3h1.6v-3.2h1.6v3.2h2.9v1.3h-2.9v6c0 2.7 1.7 3.1 2.6 3.1h.5v1.4h-.7c-1.3 0-4.1-.4-4.1-4.4v-6.1zm13.6 3.2h.7v-.1c0-2.4-.9-3.3-3-3.3-.6 0-2.3.2-2.3 1v.7H298V250c0-1.6 2.8-2 3.8-2 3.7 0 4.6 2 4.6 4.5v5.6c0 .3.2.5.5.5h1v1.4h-1.6c-1 0-1.4-.4-1.4-1.4v-.9s-1 2.5-3.9 2.5c-2 0-4-1.1-4-3.5 0-3.8 5.2-3.9 7.2-3.9zm-2.9 6.1c2.2 0 3.6-2.3 3.6-4.4v-.5h-.7c-1.8 0-5.5 0-5.5 2.7 0 1.1.8 2.2 2.6 2.2zm-168.9 16.9c-.2-.4-.4-.5-.8-.5h-.2v-1.4h.6c1.1 0 1.5.2 1.9 1.3l2.8 7.3c.2.6.4 1.4.4 1.4s.2-.8.4-1.4l2.8-7.3c.4-1 .7-1.3 1.8-1.3h.6v1.4h-.2c-.4 0-.7.1-.8.5l-3.8 9.8h-1.7l-3.8-9.8zm12.8 0c0-.3-.2-.5-.5-.5h-1v-1.4h1.7c1 0 1.4.4 1.4 1.4v8.4c0 .3.2.5.5.5h1v1.4h-1.7c-1 0-1.4-.4-1.4-1.4v-8.4zm0-6.5h1.5v2h-1.5v-2zm11.8 9.1h.7v-.1c0-2.4-.9-3.3-3-3.3-.6 0-2.3.2-2.3 1v.7h-1.5v-1.1c0-1.6 2.8-2 3.8-2 3.7 0 4.6 2 4.6 4.5v5.6c0 .3.2.5.5.5h1v1.4h-1.6c-1 0-1.4-.4-1.4-1.4v-.9s-1 2.5-3.9 2.5c-2 0-4-1.1-4-3.5 0-3.8 5.1-3.9 7.1-3.9zm-2.9 6.1c2.2 0 3.6-2.3 3.6-4.4v-.5h-.7c-1.8 0-5.5 0-5.5 2.7 0 1.1.8 2.2 2.6 2.2zm15.5-8.7c0-.3-.2-.5-.5-.5h-1v-1.4h1.6c1 0 1.4.4 1.4 1.3v1.3c.4-1.1 1.9-3 4.7-3 2.9 0 3.9 1.7 3.9 4.5v5.6c0 .3.2.5.5.5h1v1.4h-1.7c-1 0-1.4-.4-1.4-1.4v-5.6c0-1.8-.3-3.5-2.5-3.5-2 0-3.7 1.4-4.3 3.3-.1.5-.2 1-.2 1.6v5.6h-1.6v-9.7h.1zm20.2 2.6h.7v-.1c0-2.4-.9-3.3-3-3.3-.6 0-2.3.2-2.3 1v.7h-1.5v-1.1c0-1.6 2.8-2 3.8-2 3.7 0 4.6 2 4.6 4.5v5.6c0 .3.2.5.5.5h1v1.4H192c-1 0-1.4-.4-1.4-1.4v-.9s-1 2.5-3.9 2.5c-2 0-4-1.1-4-3.5 0-3.8 5.1-3.9 7.1-3.9zm-2.9 6.1c2.2 0 3.6-2.3 3.6-4.4v-.5h-.7c-1.8 0-5.5 0-5.5 2.7 0 1.1.8 2.2 2.6 2.2zm8.2-8.7c-.2-.4-.4-.5-.8-.5h-.2v-1.4h.6c1.1 0 1.5.2 1.9 1.3l2.8 7.3c.2.6.4 1.4.4 1.4s.2-.8.4-1.4l2.8-7.3c.4-1 .7-1.3 1.8-1.3h.6v1.4h-.2c-.4 0-.7.1-.8.5l-3.8 9.8h-1.7l-3.8-9.8zm17.2-2.2c3.2 0 4.9 2.5 4.9 5.4v.8h-9c0 3 2.1 4.7 4.5 4.7 2.1 0 3.5-1.4 3.5-1.4l.8 1.2s-1.7 1.7-4.4 1.7c-3.5 0-6.1-2.5-6.1-6.1 0-4 2.6-6.3 5.8-6.3zm3.3 5c-.1-2.4-1.6-3.6-3.3-3.6-1.9 0-3.6 1.3-4 3.6h7.3zm15.8-5c3.2 0 4.9 2.5 4.9 5.4v.8h-9c0 3 2.1 4.7 4.5 4.7 2.1 0 3.5-1.4 3.5-1.4l.8 1.2s-1.7 1.7-4.4 1.7c-3.5 0-6.1-2.5-6.1-6.1 0-4 2.6-6.3 5.8-6.3zm3.2 5c-.1-2.4-1.6-3.6-3.3-3.6-1.9 0-3.6 1.3-4 3.6h7.3zm11.3-3.4h-1.5v-1.3h1.6v-3.2h1.6v3.2h2.9v1.3h-2.9v6c0 2.7 1.7 3.1 2.6 3.1h.5v1.4h-.7c-1.3 0-4.1-.4-4.1-4.4v-6.1zm7.7.6c0-.3-.2-.5-.5-.5h-1v-1.4h1.6c1 0 1.4.4 1.4 1.3v1.7c.6-1.8 1.9-3.1 3.7-3.1.3 0 .6.1.6.1v1.6h-.6c-1.7 0-2.9 1.3-3.4 3-.2.7-.3 1.5-.3 2.3v4.9h-1.6l.1-9.9zm12.6-2.2c3.2 0 4.9 2.5 4.9 5.4v.8h-9c0 3 2.1 4.7 4.5 4.7 2.1 0 3.5-1.4 3.5-1.4l.8 1.2s-1.7 1.7-4.4 1.7c-3.5 0-6.1-2.5-6.1-6.1 0-4 2.7-6.3 5.8-6.3zm3.3 5c-.1-2.4-1.6-3.6-3.3-3.6-1.9 0-3.6 1.3-4 3.6h7.3zm4.8-2.8c0-.3-.2-.5-.5-.5h-1v-1.4h1.6c1 0 1.4.4 1.4 1.3v1.3c.4-1.1 1.9-3 4.7-3 2.9 0 3.9 1.7 3.9 4.5v5.6c0 .3.2.5.5.5h1v1.4h-1.7c-1 0-1.4-.4-1.4-1.4v-5.6c0-1.8-.3-3.5-2.5-3.5-2 0-3.7 1.4-4.3 3.3-.1.5-.2 1-.2 1.6v5.6h-1.6v-9.7h.1zm19.2-2.2c3.4 0 6.2 2.6 6.2 6.1s-2.8 6.2-6.2 6.2c-3.4 0-6.2-2.7-6.2-6.2s2.8-6.1 6.2-6.1zm0 10.9c2.5 0 4.5-2 4.5-4.8 0-2.7-2-4.6-4.5-4.6s-4.6 2-4.6 4.6c.1 2.7 2.1 4.8 4.6 4.8zm-119.8 16.9c0-.3-.2-.5-.5-.5h-1v-1.4h1.6c1 0 1.4.4 1.4 1.3v1.3c.4-1.1 1.9-3 4.7-3 2.9 0 3.9 1.7 3.9 4.5v5.6c0 .3.2.5.5.5h1v1.4h-1.7c-1 0-1.4-.4-1.4-1.4v-5.6c0-1.8-.3-3.5-2.5-3.5-2 0-3.7 1.4-4.3 3.3-.1.5-.2 1-.2 1.6v5.6h-1.6v-9.7h.1zm18.8-2.2c3.2 0 4.9 2.5 4.9 5.4v.8h-9c0 3 2.1 4.7 4.5 4.7 2.1 0 3.5-1.4 3.5-1.4l.8 1.2s-1.7 1.7-4.4 1.7c-3.5 0-6.1-2.5-6.1-6.1 0-4 2.7-6.3 5.8-6.3zm3.3 5c-.1-2.4-1.6-3.6-3.3-3.6-1.9 0-3.6 1.3-4 3.6h7.3zm4.7-7.5c0-.3-.2-.5-.5-.5h-1v-1.4h1.7c1 0 1.4.4 1.4 1.4v13.1c0 .3.2.5.5.5h1v1.4H202c-1 0-1.4-.4-1.4-1.4v-13.1h-.1zm19.7 2.5c0-1.7-1.3-3.1-3.4-3.1-1.6 0-2.9.8-2.9 1.8v.8h-1.5v-1.2c0-2.1 2.8-2.9 4.5-2.9 3.1 0 5 2 5 4.6 0 5.8-8.7 5.6-8.7 10.1 0 .3.2.5.5.5h6.8c.3 0 .5-.2.5-.5v-1.1h1.5v1.6c0 1-.4 1.4-1.4 1.4H213c-1.1 0-1.5-.5-1.5-1.6.1-6.1 8.7-5.6 8.7-10.4zm4.8 3.8c0-4.7 1.4-8.5 5.6-8.5s5.7 3.7 5.7 8.5c0 4.7-1.4 8.5-5.7 8.5s-5.6-3.7-5.6-8.5zm9.6 0c0-3.9-.9-6.9-4-6.9s-4 3-4 6.9.9 7 4 7 4-3.1 4-7zm4.1 6.8h3.7v-12.9s-.2.3-.8 1l-1.7 1.7-1-1 3.7-3.7h1.5v14.9h3.6v1.4h-8.9v-1.4h-.1zm18.4-12c.5-.9.9-1.5.9-1.5h-7.1c-.3 0-.5.2-.5.5v1.1h-1.5v-1.6c0-1 .4-1.4 1.4-1.4h9.7v1.1l-8.1 15.2h-1.8l7-13.4zm-72.4-79.3s2.8 3.3 7.1 3.3c3.2 0 6.2-2.4 6.2-5.9 0-3.7-3.2-5.7-6.6-5.7h-1.9l-.6-1.6 6.7-8.1c.7-.9 1.4-1.5 1.4-1.5v-.1s-.8.1-2.2.1h-7.1c-.5 0-.9.3-.9.9v1.8h-2.5V199c0-1.7.6-2.4 2.3-2.4h13.8v1.8l-8 9.4c3.4.2 8.4 2.2 8.4 8 0 4.6-3.8 8.5-9 8.5-5.4 0-8.7-3.8-8.7-3.8l1.6-2zm19.5-6.6c0-6.9 3.6-15.7 12-15.7 3 0 5 1.1 5 1.1l-1 2.4s-1.7-1-3.9-1c-5.7 0-8.6 5.7-9.1 11.2h.1c1.3-2.1 4.1-3.3 6.9-3.3 5 0 8.5 3.6 8.5 8.6 0 5.7-3.8 9.1-8.6 9.1-6 0-9.9-5.3-9.9-12.4zm9.8 9.9c3.7 0 5.8-2.8 5.8-6.5 0-3.8-2.4-6.3-6.2-6.3-3.6 0-6.6 2.4-6.6 4.6.1 3.7 2.9 8.2 7 8.2zm12.6-20.2c0-2.9 2.4-5.4 5.4-5.4s5.5 2.4 5.5 5.4-2.4 5.4-5.5 5.4c-3 0-5.4-2.4-5.4-5.4zm21-4.9h2.7l-20.7 27.2h-2.8l20.8-27.2zm-12.4 4.9c0-1.7-1.4-3.2-3.2-3.2s-3.1 1.5-3.1 3.2c0 1.8 1.4 3.2 3.1 3.2 1.8 0 3.2-1.4 3.2-3.2zm9.9 12c3 0 5.5 2.4 5.5 5.4 0 2.9-2.4 5.3-5.5 5.3-3 0-5.4-2.4-5.4-5.3 0-3 2.4-5.4 5.4-5.4zm0 8.6c1.8 0 3.2-1.4 3.2-3.2 0-1.7-1.4-3.2-3.2-3.2s-3.1 1.5-3.1 3.2 1.3 3.2 3.1 3.2zm186.6-167c0-3-2.2-5.3-5.7-5.3-2.8 0-5 1.4-5 3v1.3h-2.6v-2.1c0-3.6 4.8-4.9 7.7-4.9 5.3 0 8.5 3.5 8.5 7.9 0 9.9-14.8 9.6-14.8 17.4 0 .6.3.8.9.8h11.7c.6 0 .9-.3.9-.9v-1.9h2.6v2.8c0 1.7-.7 2.4-2.4 2.4h-14c-1.9 0-2.5-.8-2.5-2.7-.1-10.4 14.7-9.5 14.7-17.8zm12.9 5.3c0-.1-3.8-1.9-3.8-5.9 0-3.9 3-7.3 8.5-7.3 5.3 0 8.6 3.1 8.6 7.5 0 4.3-3.7 6.9-3.7 6.9v.1c2.6 1.4 4.5 3.1 4.5 6.4 0 4.4-4.1 8.1-9.4 8.1-4.9 0-9.5-3.1-9.5-8.4-.2-4.9 4.8-7.4 4.8-7.4zm4.5 13.2c3.3 0 6.5-2.3 6.5-5.5 0-2.9-2.4-4.1-5.3-5.3-1-.4-3-1.1-3.3-1.1-1.1 0-4.6 2.6-4.6 6 .1 3.6 3.3 5.9 6.7 5.9zm2.3-13.2c1 0 3.5-2.7 3.5-5.7s-2.4-4.9-5.8-4.9c-3.5 0-5.7 2.1-5.7 4.7 0 2.9 2.5 4 5.4 5.1.8.2 2.1.8 2.6.8zm13 12.2s1.8 1 4.1 1c5.9 0 8.9-5.9 9.4-11.6h-.1c-1.3 2.2-4.2 3.4-7.1 3.4-5.1 0-8.7-3.7-8.7-8.9 0-5.8 3.9-9.4 8.8-9.4 6.1 0 10.1 5.5 10.1 12.8 0 7.1-3.6 16.2-12.3 16.2-3.1 0-5.1-1.2-5.1-1.2l.9-2.3zm13.4-14.4c0-3.7-2.9-8.4-7.1-8.4-3.8 0-6 2.9-6 6.7 0 3.9 2.5 6.5 6.3 6.5s6.8-2.6 6.8-4.8zm8.1-7.3c0-.6-.3-.9-.9-.9h-1.7v-2.4h2.8c1.7 0 2.4.6 2.4 2.3v13.3h2.1c.8 0 1.7-.2 2.3-1l5.1-6.7h3.3l-5.8 7.3c-1 1.2-1.5 1.4-1.5 1.4v.1s.6.3 1.2 1.5l3.6 6.5c.4.7.8.9 1.8.9h1.1v2.4H500c-2 0-2.6-.3-3.5-2l-4-7.2c-.4-.8-1.4-.9-2.1-.9h-1.8v10h-2.7V51zm20 7.9c0-.6-.3-.9-.9-.9h-1.7v-2.4h2.8c1.7 0 2.4.7 2.4 2.2v.9c0 .8-.1 1.4-.1 1.4h.1c1-2.7 4.1-5.1 7.3-5.1 3.7 0 5.6 1.7 6.2 5h.1c1.1-2.7 4-5 7.4-5 4.9 0 6.7 2.8 6.7 7.8v9.5c0 .6.3.9.9.9h1.7v2.4H536c-1.7 0-2.4-.7-2.4-2.4v-9.6c0-3.3-.7-6-4.3-6-3 0-5.5 2.7-6.3 5.7-.3.9-.4 1.8-.4 2.9v9.5h-2.7v-12c0-3-.4-6-4.2-6-3.3 0-5.7 2.8-6.5 5.9-.2.8-.3 1.8-.3 2.7v9.5h-2.7V58.9h-.3zM354.2 390.6l18.5-8.3v2.7l-15 6.5v.1l15 6.5v2.7l-18.5-8.3v-1.9zm39-8.6c0-3.1-2.3-5.4-5.9-5.4-2.9 0-5.1 1.5-5.1 3.1v1.3h-2.7v-2c0-3.6 5-5 7.9-5 5.5 0 8.8 3.6 8.8 8.1 0 10.1-15.2 9.9-15.2 17.8 0 .6.3.8.9.8h12c.6 0 .9-.3.9-.9v-1.9h2.7v2.9c0 1.8-.7 2.5-2.5 2.5h-14.4c-2 0-2.6-.8-2.6-2.8-.1-10.8 15.2-9.9 15.2-18.5zm8.3 6.8c0-8.3 2.4-14.9 9.9-14.9s9.9 6.6 9.9 14.9-2.5 14.9-9.9 14.9c-7.5 0-9.9-6.6-9.9-14.9zm16.9 0c0-6.8-1.6-12.2-7-12.2s-7 5.4-7 12.2c0 6.9 1.6 12.2 7 12.2s7-5.3 7-12.2zm7.8 0c0-8.3 2.4-14.9 9.9-14.9s9.9 6.6 9.9 14.9-2.5 14.9-9.9 14.9c-7.5 0-9.9-6.6-9.9-14.9zm16.9 0c0-6.8-1.6-12.2-7-12.2s-7 5.4-7 12.2c0 6.9 1.6 12.2 7 12.2s7-5.3 7-12.2zm8.7-11.1c0-.6-.3-.9-.9-.9h-1.7v-2.4h2.9c1.8 0 2.5.6 2.5 2.4v13.7h2.1c.8 0 1.8-.2 2.3-1l5.3-6.9h3.4l-5.9 7.5c-1 1.3-1.6 1.5-1.6 1.5v.1s.6.3 1.3 1.5l3.7 6.7c.4.7.8.9 1.9.9h1.1v2.4h-1.9c-2 0-2.6-.3-3.6-2l-4.1-7.4c-.4-.8-1.4-.9-2.2-.9h-1.9v10.3h-2.8v-25.5h.1zm20.6 8.2c0-.6-.3-.9-.9-.9h-1.7v-2.4h2.9c1.7 0 2.5.7 2.5 2.3v.9c0 .8-.1 1.5-.1 1.5h.1c1-2.8 4.3-5.2 7.4-5.2 3.8 0 5.8 1.8 6.4 5.2h.1c1.1-2.8 4.1-5.2 7.6-5.2 5 0 6.8 2.9 6.8 8v9.8c0 .6.3.9.9.9h1.7v2.4h-2.9c-1.8 0-2.5-.7-2.5-2.5v-9.9c0-3.4-.7-6.1-4.5-6.1-3.1 0-5.7 2.8-6.5 5.8-.3.9-.4 1.9-.4 3v9.7h-2.8v-12.4c0-3.1-.5-6.1-4.3-6.1-3.4 0-5.9 2.9-6.7 6.1-.2.9-.3 1.8-.3 2.7v9.7h-2.8v-17.3z"/></svg>