<?xml version="1.0" encoding="utf-8"?>
<!-- Generator: Adobe Illustrator 23.0.0, SVG Export Plug-In . SVG Version: 6.00 Build 0)  -->
<svg version="1.1" id="Livello_1" xmlns="http://www.w3.org/2000/svg" xmlns:xlink="http://www.w3.org/1999/xlink" x="0px" y="0px"
	 viewBox="0 0 825.8 718.8" style="enable-background:new 0 0 825.8 718.8;" xml:space="preserve">
<style type="text/css">
	.st0{fill:#00295A;}
	.st1{fill-rule:evenodd;clip-rule:evenodd;fill:#D8B200;}
	
		.st2{fill-rule:evenodd;clip-rule:evenodd;fill:none;stroke:#4E5594;stroke-width:3;stroke-linecap:round;stroke-miterlimit:10;stroke-dasharray:0,8;}
	.st3{fill:#4E5594;}
	.st4{fill:#FFFFFF;}
</style>
<path class="st0" d="M484.6,695.4c8.7,0,16.9-3.4,23.2-9.5c6.1-6.3,9.5-14.5,9.5-23.1v-19.1l0.5-0.3c4.4-2.7,8.2-6.4,11-10.7
	c3.7-5.8,5.7-12.4,5.7-19V381c0-6.7-2-13.2-5.7-19l0,0c-1.6-2.5-3.5-4.7-6-7l-0.9-0.8l1-0.7c1.9-1.4,3.6-3,5.3-5.1
	c4.1-4.9,6.3-11.1,6.3-17.6V225.4c0-21.8-6.4-44-18.4-64.2c-11.6-19.5-28.2-36.9-46.7-49.2l-0.5-0.3V70.7c0-6.7-2.6-13.1-7.3-17.8
	c-4.8-4.7-11.3-7.5-18-7.5H395c-6.8,0-13.1,2.6-18,7.5c-4.8,4.8-7.5,11.1-7.5,17.8v40.9l-0.5,0.3c-18.6,12.3-35.1,29.8-46.6,49.2
	c-12.1,20.2-18.5,42.4-18.5,64.2v105.3c0,6.5,2.2,12.7,6.3,17.6c1.5,1.9,3.3,3.6,5.4,5.1l1,0.8l-1,0.8c-2.2,1.9-4.2,4.1-6.1,7
	c-3.7,5.8-5.7,12.4-5.7,19v232.7c0,6.6,1.9,13,5.4,18.6c0.1,0.1,0.3,0.3,0.4,0.5c3,4.4,6.7,8,10.9,10.6l0.5,0.3v19.1
	c0,8.3,3.4,16.5,9.3,22.6c0.2,0.2,0.3,0.3,0.5,0.6c6.3,6.1,14.4,9.4,22.9,9.4H484.6z M382.3,70.7c0-3.2,1.3-6.3,3.7-8.9
	c2.6-2.4,5.8-3.7,9.1-3.7h48.5c3.2,0,6.3,1.3,8.9,3.7c2.4,2.6,3.7,5.7,3.7,8.9v38h-73.9V70.7z M339.8,676.9l-0.3-0.3
	c-0.7-0.7-1.3-1.5-2-2.6c-1.4-2.1-2.4-4.4-2.9-6.8c-0.1-0.2-0.1-0.3-0.1-0.4c-0.3-1.3-0.4-2.7-0.4-4V640c0-1.3-0.4-2.6-1.2-3.7
	c-0.7-1-1.8-1.9-3-2.3c-2-0.8-3.8-2.1-5.6-3.7c-1.6-1.4-2.9-2.9-3.9-4.5l-0.1-0.1c-2.3-3.6-3.4-7.7-3.4-12V381
	c0-4.3,1.2-8.5,3.6-12.1c1.4-2,2.7-3.4,3.8-4.3c0.3-0.3,0.6-0.6,0.9-0.8c1.5-1.1,2.9-2,4.1-2.7c1.2-0.7,2.2-1.3,2.9-1.9
	c1.2-1.2,1.8-2.8,1.8-4.4v-1.6c0-1.6-0.3-3-0.9-4.3c-0.1-0.1-0.1-0.3-0.2-0.4c-0.1-0.2-0.1-0.3-0.2-0.4c0-0.1-0.1-0.1-0.2-0.2
	c-0.1-0.1-0.2-0.2-0.3-0.3c-0.4-0.4-0.8-0.8-1.1-1c-0.7-0.4-1.4-0.7-2.2-0.8l-0.3-0.1c-3-0.6-6-2.5-8.2-5.3c-2.2-2.6-3.4-6-3.4-9.6
	V216.9h0.3c1.3-16.6,6.8-33.2,16.3-49.3c2.8-4.7,5.9-9.3,9.4-13.8c9.8-12.7,21.8-23.8,34.7-32.3l0.3-0.2h82.8l0.3,0.2
	c2,1.3,4,2.7,5.9,4.1c0.8,0.6,1.6,1.2,2.3,1.8l1.6,1.3c0.7,0.5,1.4,1,2,1.6c0.5,0.4,1,0.8,1.5,1.3l0.7,0.6c1.3,1.1,2.6,2.2,3.8,3.3
	l1.3,1.2c1.6,1.5,3.2,3,4.7,4.6l0.3,0.3c11,11.3,19.7,23.8,26,37.4l0.3,0.6c1.7,3.8,3.3,7.6,4.6,11.4l0.4,1.4
	c1.4,4.1,2.4,8,3.2,11.8l0.1,0.8c0.8,4.2,1.4,8.1,1.7,11.9h0.3v113.8c0,5.1-2.6,9.8-7,12.7c-1.7,1.2-3.5,1.9-5.3,2.3
	c-3,0.7-5.2,3.5-5.1,6.7l0.1,0.5l0,1.8c0,2,0.9,3.8,2.4,5c0.5,0.4,1,0.7,1.6,1c7.8,3.3,13.2,11.6,13.2,20.3v232.7
	c0,4.2-1.3,8.5-3.7,12.1c-1.1,1.6-2.2,3-3.8,4.3l-0.2,0.2c-0.2,0.2-0.4,0.3-0.6,0.5c-1.5,1.2-2.9,2-4.2,2.8
	c-1.2,0.7-2.3,1.4-3.1,2.1c-1,1.2-1.6,2.7-1.6,4.2l0,23.2c-0.1,3.9-1.3,7.6-3.4,10.7c-0.7,1.1-1.5,2-2.4,2.9c-0.5,0.5-1,0.9-1.5,1.3
	l-0.4,0.3c-3.6,2.8-7.8,4.3-12.2,4.3H353.8C348.6,682.8,343.6,680.7,339.8,676.9L339.8,676.9z"/>
<path class="st1" d="M686.1,465.1c57.5,0,104.1,46.6,104.1,104.1c0,57.5-46.6,104.1-104.1,104.1S582,626.7,582,569.2
	C582,511.7,628.6,465.1,686.1,465.1z"/>
<path class="st1" d="M157.1,465.1c57.5,0,104.1,46.6,104.1,104.1c0,57.5-46.6,104.1-104.1,104.1S53,626.7,53,569.2
	C53,511.7,99.6,465.1,157.1,465.1z"/>
<path class="st1" d="M686.1,251c57.5,0,104.1,46.6,104.1,104.1c0,57.5-46.6,104.1-104.1,104.1S582,412.6,582,355.1
	C582,297.6,628.6,251,686.1,251z"/>
<path class="st1" d="M157.1,251c57.5,0,104.1,46.6,104.1,104.1c0,57.5-46.6,104.1-104.1,104.1S53,412.6,53,355.1
	C53,297.6,99.6,251,157.1,251z"/>
<path class="st1" d="M686.1,36.4c57.5,0,104.1,46.6,104.1,104.1c0,57.5-46.6,104.1-104.1,104.1S582,198.1,582,140.6
	C582,83.1,628.6,36.4,686.1,36.4z"/>
<path class="st1" d="M157.1,36.4c57.5,0,104.1,46.6,104.1,104.1c0,57.5-46.6,104.1-104.1,104.1S53,198.1,53,140.6
	C53,83.1,99.6,36.4,157.1,36.4z"/>
<path class="st2" d="M686.6,17.7c66.8,0,121,52.7,121,117.6v439.7c0,65-54.2,117.6-121,117.6s-121-52.7-121-117.6V135.3
	C565.6,70.3,619.8,17.7,686.6,17.7z"/>
<path class="st2" d="M156.7,17.7c66.8,0,121,52.7,121,117.6v439.7c0,65-54.2,117.6-121,117.6s-121-52.7-121-117.6V135.3
	C35.7,70.3,89.9,17.7,156.7,17.7z"/>
<path class="st2" d="M265.4,354.2h312.1"/>
<path class="st2" d="M265.4,584.6h312.1"/>
<path class="st2" d="M265.4,119.9h312.1"/>
<g>
	<path class="st3" d="M647.4,112.4c0,0,1.8,1,4.2,1c6.1,0,9.2-6.1,9.7-11.9h-0.1c-1.4,2.3-4.4,3.5-7.4,3.5c-5.3,0-9-3.8-9-9.2
		c0-6,4-9.7,9.1-9.7c6.3,0,10.5,5.6,10.5,13.2c0,7.4-3.7,16.7-12.7,16.7c-3.2,0-5.3-1.2-5.3-1.2L647.4,112.4z M661.3,97.6
		c0-3.8-3-8.7-7.3-8.7c-3.9,0-6.2,3-6.2,7c0,4,2.6,6.7,6.5,6.7C658.1,102.5,661.3,99.9,661.3,97.6z"/>
	<path class="st3" d="M674.3,110c0,0,2.2,3.4,6.7,3.4c4.1,0,7.2-2.9,7.2-6.8c0-4-3.3-6.8-7.5-6.8c-3.3,0-5.6,1.6-5.6,1.6l-1.5-0.6
		l1.2-11.7c0.2-1.8,0.7-2.5,2.5-2.5h9.5c1.7,0,2.5,0.7,2.5,2.5v2.9h-2.7v-1.9c0-0.6-0.3-0.9-0.9-0.9h-7.3c-0.6,0-0.8,0.3-0.9,0.9
		l-0.7,6.5c-0.1,1-0.2,1.6-0.2,1.6h0.1c0,0,1.8-1.1,4.4-1.1c5.9,0,10.1,4.2,10.1,9.4c0,5.1-4.3,9.4-10.2,9.4c-5.8,0-8.5-4.1-8.5-4.1
		L674.3,110z"/>
	<path class="st3" d="M700.3,91.9c0-3.1,2.6-5.7,5.8-5.7c3.2,0,5.8,2.6,5.8,5.7c0,3.2-2.6,5.7-5.8,5.7
		C702.9,97.7,700.3,95.1,700.3,91.9z M722.7,86.7h2.9l-22,28.9h-3L722.7,86.7z M709.5,91.9c0-1.9-1.5-3.4-3.4-3.4
		c-1.9,0-3.3,1.6-3.3,3.4c0,1.9,1.4,3.4,3.3,3.4C708,95.3,709.5,93.8,709.5,91.9z M720,104.7c3.2,0,5.8,2.6,5.8,5.8
		c0,3.1-2.6,5.7-5.8,5.7c-3.2,0-5.8-2.6-5.8-5.7C714.3,107.3,716.8,104.7,720,104.7z M720,113.8c1.9,0,3.4-1.5,3.4-3.4
		c0-1.9-1.5-3.4-3.4-3.4c-1.9,0-3.3,1.6-3.3,3.4C716.7,112.3,718.1,113.8,720,113.8z"/>
	<path class="st4" d="M647.8,123.6c3.3,0,5.9,2.6,5.9,5.9c0,3.4-2.6,6.1-5.9,6.1c-3.3,0-5.9-2.7-5.9-6.1
		C641.9,126.2,644.5,123.6,647.8,123.6z M647.8,134.5c2.6,0,4.7-2.2,4.7-5c0-2.7-2.1-4.8-4.7-4.8c-2.6,0-4.7,2.1-4.7,4.8
		C643.1,132.3,645.2,134.5,647.8,134.5z"/>
	<path class="st4" d="M657.4,125.2c0-0.2-0.1-0.4-0.4-0.4h-0.7v-1h1.2c0.7,0,1,0.3,1,1v3c0,0.4,0,0.7,0,0.7h0c0,0,0.7-1.6,2.8-1.6
		c2.2,0,3.6,1.8,3.6,4.3c0,2.6-1.6,4.3-3.7,4.3c-2,0-2.7-1.6-2.7-1.6h0c0,0,0,0.3,0,0.7v0.7h-1.1V125.2z M661.1,134.6
		c1.5,0,2.7-1.2,2.7-3.3c0-2-1.1-3.3-2.6-3.3c-1.4,0-2.7,1-2.7,3.3C658.5,133,659.3,134.6,661.1,134.6z"/>
	<path class="st4" d="M668.8,128.5c0-0.2-0.1-0.4-0.4-0.4h-0.7v-1h1.2c0.7,0,1,0.3,1,1v5.9c0,0.2,0.1,0.4,0.4,0.4h0.7v1h-1.2
		c-0.7,0-1-0.3-1-1V128.5z M668.7,123.8h1.1v1.4h-1.1V123.8z"/>
	<path class="st4" d="M677.8,126.9c2.3,0,3.5,1.8,3.5,3.8c0,0.2,0,0.6,0,0.6h-6.4c0,2.1,1.5,3.3,3.2,3.3c1.5,0,2.5-1,2.5-1l0.5,0.8
		c0,0-1.2,1.2-3.1,1.2c-2.5,0-4.3-1.8-4.3-4.3C673.7,128.6,675.6,126.9,677.8,126.9z M680.1,130.4c-0.1-1.7-1.1-2.6-2.3-2.6
		c-1.4,0-2.6,0.9-2.9,2.6H680.1z"/>
	<path class="st4" d="M685.2,128.1h-1.1v-0.9h1.1v-2.3h1.1v2.3h2.1v0.9h-2.1v4.2c0,1.9,1.2,2.2,1.9,2.2c0.2,0,0.4,0,0.4,0v1
		c0,0-0.2,0-0.5,0c-1,0-2.9-0.3-2.9-3.1V128.1z"/>
	<path class="st4" d="M692.4,128.1h-1.1v-0.9h1.1v-2.3h1.1v2.3h2.1v0.9h-2.1v4.2c0,1.9,1.2,2.2,1.9,2.2c0.2,0,0.4,0,0.4,0v1
		c0,0-0.2,0-0.5,0c-1,0-2.9-0.3-2.9-3.1V128.1z"/>
	<path class="st4" d="M699.6,128.5c0-0.2-0.1-0.4-0.4-0.4h-0.7v-1h1.2c0.7,0,1,0.3,1,1v5.9c0,0.2,0.1,0.4,0.4,0.4h0.7v1h-1.2
		c-0.7,0-1-0.3-1-1V128.5z M699.5,123.8h1.1v1.4h-1.1V123.8z"/>
	<path class="st4" d="M704.7,128.5c-0.1-0.3-0.3-0.4-0.6-0.4H704v-1h0.4c0.8,0,1,0.2,1.3,0.9l2,5.2c0.1,0.4,0.3,1,0.3,1h0
		c0,0,0.1-0.6,0.3-1l2-5.2c0.3-0.7,0.5-0.9,1.3-0.9h0.4v1h-0.1c-0.3,0-0.5,0.1-0.6,0.4l-2.7,6.9h-1.2L704.7,128.5z"/>
	<path class="st4" d="M718.8,126.9c2.4,0,4.4,1.8,4.4,4.3c0,2.5-2,4.4-4.4,4.4c-2.4,0-4.4-1.9-4.4-4.4
		C714.4,128.8,716.4,126.9,718.8,126.9z M718.8,134.6c1.8,0,3.2-1.4,3.2-3.4c0-1.9-1.4-3.3-3.2-3.3c-1.8,0-3.2,1.4-3.2,3.3
		C715.6,133.2,717,134.6,718.8,134.6z"/>
	<path class="st4" d="M727.2,127.1h1.3v1.3h-1.3V127.1z M727.2,134.1h1.3v1.3h-1.3V134.1z"/>
	<path class="st4" d="M657.4,150.1h0.5V150c0-1.7-0.6-2.3-2.1-2.3c-0.4,0-1.6,0.1-1.6,0.7v0.5H653v-0.8c0-1.2,2-1.4,2.7-1.4
		c2.6,0,3.2,1.4,3.2,3.2v4c0,0.2,0.1,0.4,0.4,0.4h0.7v1h-1.1c-0.7,0-1-0.3-1-1c0-0.4,0-0.6,0-0.6h0c0,0-0.7,1.8-2.8,1.8
		c-1.4,0-2.8-0.8-2.8-2.5C652.3,150.2,655.9,150.1,657.4,150.1z M655.3,154.4c1.6,0,2.5-1.6,2.5-3.1V151h-0.5c-1.3,0-3.9,0-3.9,1.9
		C653.5,153.6,654.1,154.4,655.3,154.4z"/>
	<path class="st4" d="M663.4,148.2c0-0.2-0.1-0.4-0.4-0.4h-0.7v-1h1.2c0.7,0,1,0.3,1,0.9v0.6c0,0.3,0,0.6,0,0.6h0
		c0.4-1.3,1.3-2.2,2.6-2.2c0.2,0,0.4,0,0.4,0v1.1c0,0-0.2,0-0.4,0c-1.2,0-2,0.9-2.4,2.1c-0.2,0.5-0.2,1.1-0.2,1.6v3.5h-1.1V148.2z"
		/>
	<path class="st4" d="M671.2,148.2c0-0.2-0.1-0.4-0.4-0.4h-0.7v-1h1.2c0.7,0,1,0.3,1,0.9v0.6c0,0.3,0,0.6,0,0.6h0
		c0.4-1.3,1.3-2.2,2.6-2.2c0.2,0,0.4,0,0.4,0v1.1c0,0-0.2,0-0.4,0c-1.2,0-2,0.9-2.4,2.1c-0.2,0.5-0.2,1.1-0.2,1.6v3.5h-1.1V148.2z"
		/>
	<path class="st4" d="M678.9,148.2c0-0.2-0.1-0.4-0.4-0.4h-0.7v-1h1.2c0.7,0,1,0.3,1,1v5.9c0,0.2,0.1,0.4,0.4,0.4h0.7v1h-1.2
		c-0.7,0-1-0.3-1-1V148.2z M678.8,143.6h1.1v1.4h-1.1V143.6z"/>
	<path class="st4" d="M684,148.2c-0.1-0.3-0.3-0.4-0.6-0.4h-0.1v-1h0.4c0.8,0,1,0.2,1.3,0.9l2,5.2c0.1,0.4,0.3,1,0.3,1h0
		c0,0,0.1-0.6,0.3-1l2-5.2c0.3-0.7,0.5-0.9,1.3-0.9h0.4v1h-0.1c-0.3,0-0.5,0.1-0.6,0.4l-2.7,6.9h-1.2L684,148.2z"/>
	<path class="st4" d="M698.9,150.1h0.5V150c0-1.7-0.6-2.3-2.1-2.3c-0.4,0-1.6,0.1-1.6,0.7v0.5h-1.1v-0.8c0-1.2,2-1.4,2.7-1.4
		c2.6,0,3.2,1.4,3.2,3.2v4c0,0.2,0.1,0.4,0.4,0.4h0.7v1h-1.1c-0.7,0-1-0.3-1-1c0-0.4,0-0.6,0-0.6h0c0,0-0.7,1.8-2.8,1.8
		c-1.4,0-2.8-0.8-2.8-2.5C693.8,150.2,697.4,150.1,698.9,150.1z M696.8,154.4c1.6,0,2.5-1.6,2.5-3.1V151h-0.5c-1.3,0-3.9,0-3.9,1.9
		C694.9,153.6,695.6,154.4,696.8,154.4z"/>
	<path class="st4" d="M704.9,148.2c0-0.2-0.1-0.4-0.4-0.4h-0.7v-1h1.2c0.7,0,1,0.3,1,0.9v0.6c0,0.3,0,0.6,0,0.6h0
		c0.4-1.3,1.3-2.2,2.6-2.2c0.2,0,0.4,0,0.4,0v1.1c0,0-0.2,0-0.4,0c-1.2,0-2,0.9-2.4,2.1c-0.2,0.5-0.2,1.1-0.2,1.6v3.5h-1.1V148.2z"
		/>
	<path class="st4" d="M715.5,146.7c2.3,0,3.5,1.8,3.5,3.8c0,0.2,0,0.6,0,0.6h-6.4c0,2.1,1.5,3.3,3.2,3.3c1.5,0,2.5-1,2.5-1l0.5,0.8
		c0,0-1.2,1.2-3.1,1.2c-2.5,0-4.3-1.8-4.3-4.3C711.4,148.3,713.3,146.7,715.5,146.7z M717.8,150.2c-0.1-1.7-1.1-2.6-2.3-2.6
		c-1.4,0-2.6,0.9-2.9,2.6H717.8z"/>
	<path class="st4" d="M624.8,169.8h0.5v-0.1c0-1.7-0.6-2.3-2.1-2.3c-0.4,0-1.6,0.1-1.6,0.7v0.5h-1.1v-0.8c0-1.2,2-1.4,2.7-1.4
		c2.6,0,3.2,1.4,3.2,3.2v4c0,0.2,0.1,0.4,0.4,0.4h0.7v1h-1.1c-0.7,0-1-0.3-1-1c0-0.4,0-0.6,0-0.6h0c0,0-0.7,1.8-2.8,1.8
		c-1.4,0-2.8-0.8-2.8-2.5C619.7,169.9,623.4,169.8,624.8,169.8z M622.7,174.2c1.6,0,2.5-1.6,2.5-3.1v-0.4h-0.5c-1.3,0-3.9,0-3.9,1.9
		C620.9,173.4,621.5,174.2,622.7,174.2z"/>
	<path class="st4" d="M637,168c0-0.2-0.1-0.4-0.4-0.4h-0.7v-1h1.1c0.7,0,1,0.3,1,0.9c0,0.3,0,0.6,0,0.6h0c0,0,0.7-1.6,2.9-1.6
		c2.2,0,3.6,1.8,3.6,4.3c0,2.6-1.6,4.3-3.7,4.3c-2,0-2.7-1.6-2.7-1.6h0c0,0,0,0.3,0,0.7v3.9H637V168z M640.7,174.2
		c1.5,0,2.7-1.2,2.7-3.3c0-2-1.1-3.3-2.6-3.3c-1.4,0-2.7,1-2.7,3.3C638.1,172.5,639,174.2,640.7,174.2z"/>
	<path class="st4" d="M648.3,168c0-0.2-0.1-0.4-0.4-0.4h-0.7v-1h1.2c0.7,0,1,0.3,1,0.9v0.6c0,0.3,0,0.6,0,0.6h0
		c0.4-1.3,1.3-2.2,2.6-2.2c0.2,0,0.4,0,0.4,0v1.1c0,0-0.2,0-0.4,0c-1.2,0-2,0.9-2.4,2.1c-0.2,0.5-0.2,1.1-0.2,1.6v3.5h-1.1V168z"/>
	<path class="st4" d="M659.2,166.5c2.4,0,4.4,1.8,4.4,4.3c0,2.5-2,4.4-4.4,4.4c-2.4,0-4.4-1.9-4.4-4.4
		C654.8,168.3,656.8,166.5,659.2,166.5z M659.2,174.1c1.8,0,3.2-1.4,3.2-3.4c0-1.9-1.4-3.3-3.2-3.3c-1.8,0-3.2,1.4-3.2,3.3
		C656,172.7,657.4,174.1,659.2,174.1z"/>
	<path class="st4" d="M670.3,166.5c2,0,2.7,1.5,2.7,1.5h0c0,0,0-0.3,0-0.6v-2.7c0-0.2-0.1-0.4-0.4-0.4h-0.7v-1h1.2c0.7,0,1,0.3,1,1
		v9.2c0,0.2,0.1,0.4,0.4,0.4h0.7v1H674c-0.7,0-1-0.3-1-0.9c0-0.3,0-0.5,0-0.5h0c0,0-0.7,1.6-2.9,1.6c-2.2,0-3.6-1.8-3.6-4.3
		C666.6,168.2,668.1,166.5,670.3,166.5z M673,170.8c0-1.7-0.9-3.3-2.6-3.3c-1.5,0-2.7,1.2-2.7,3.3c0,2,1.1,3.3,2.6,3.3
		C671.7,174.1,673,173.2,673,170.8z"/>
	<path class="st4" d="M678.6,168c0-0.2-0.1-0.4-0.4-0.4h-0.7v-1h1.2c0.7,0,1,0.3,1,1v4c0,1.3,0.2,2.5,1.8,2.5c1.9,0,3-1.7,3-3.5v-4
		h1.1v7c0,0.2,0.1,0.4,0.4,0.4h0.7v1h-1.1c-0.7,0-1-0.3-1-0.9v-0.4c0-0.3,0-0.6,0-0.6h0c-0.3,0.8-1.4,2.1-3.2,2.1
		c-2,0-2.8-1.1-2.8-3.2V168z"/>
	<path class="st4" d="M690.2,168c0-0.2-0.1-0.4-0.4-0.4h-0.7v-1h1.2c0.7,0,1,0.3,1,0.9v0.6c0,0.3,0,0.6,0,0.6h0
		c0.4-1.3,1.3-2.2,2.6-2.2c0.2,0,0.4,0,0.4,0v1.1c0,0-0.2,0-0.4,0c-1.2,0-2,0.9-2.4,2.1c-0.2,0.5-0.2,1.1-0.2,1.6v3.5h-1.1V168z"/>
	<path class="st4" d="M697.9,168c0-0.2-0.1-0.4-0.4-0.4h-0.7v-1h1.2c0.7,0,1,0.3,1,0.9v0.6c0,0.3,0,0.6,0,0.6h0
		c0.4-1.3,1.3-2.2,2.6-2.2c0.2,0,0.4,0,0.4,0v1.1c0,0-0.2,0-0.4,0c-1.2,0-2,0.9-2.4,2.1c-0.2,0.5-0.2,1.1-0.2,1.6v3.5h-1.1V168z"/>
	<path class="st4" d="M708.5,166.5c2.3,0,3.5,1.8,3.5,3.8c0,0.2,0,0.6,0,0.6h-6.4c0,2.1,1.5,3.3,3.2,3.3c1.5,0,2.5-1,2.5-1l0.5,0.8
		c0,0-1.2,1.2-3.1,1.2c-2.5,0-4.3-1.8-4.3-4.3C704.4,168.1,706.3,166.5,708.5,166.5z M710.9,170c-0.1-1.7-1.1-2.6-2.3-2.6
		c-1.4,0-2.6,0.9-2.9,2.6H710.9z"/>
	<path class="st4" d="M722.4,164.4h-1.1v-1h4.9c2.1,0,3.6,1.4,3.6,3.5c0,2.2-1.5,3.5-3.6,3.5h-2.7v4.5h-1.2V164.4z M726,169.4
		c1.5,0,2.5-0.9,2.5-2.5c0-1.6-1-2.5-2.5-2.5h-2.5v5H726z"/>
	<path class="st4" d="M733.5,164.4h-1.1v-1h6.6c0.7,0,1,0.3,1,1v1.2H739v-0.8c0-0.2-0.1-0.4-0.4-0.4h-4v4.2h4.3v1h-4.3v3.9
		c0,0.2,0.1,0.4,0.4,0.4h4.1c0.2,0,0.4-0.1,0.4-0.4v-0.8h1.1v1.2c0,0.7-0.3,1-1,1h-5c-0.7,0-1-0.3-1-1V164.4z"/>
	<path class="st4" d="M747,164.4h-2.9c-0.2,0-0.4,0.1-0.4,0.4v0.8h-1.1v-1.2c0-0.7,0.2-0.9,0.9-0.9h7.8c0.7,0,0.9,0.2,0.9,0.9v1.2
		h-1.1v-0.8c0-0.3-0.1-0.4-0.4-0.4h-2.9v10.6H747V164.4z"/>
	<path class="st4" d="M641.5,184.5c0-0.2-0.1-0.4-0.4-0.4h-0.7v-1h1.2c0.7,0,1,0.3,1,1v3c0,0.4,0,0.7,0,0.7h0c0,0,0.7-1.6,2.8-1.6
		c2.2,0,3.6,1.8,3.6,4.3c0,2.6-1.6,4.3-3.7,4.3c-2,0-2.7-1.6-2.7-1.6h0c0,0,0,0.3,0,0.7v0.7h-1.1V184.5z M645.2,193.9
		c1.5,0,2.7-1.2,2.7-3.3c0-2-1.1-3.3-2.6-3.3c-1.4,0-2.7,1-2.7,3.3C642.6,192.3,643.5,193.9,645.2,193.9z"/>
	<path class="st4" d="M652.9,187.8c0-0.2-0.1-0.4-0.4-0.4h-0.7v-1h1.2c0.7,0,1,0.3,1,1v5.9c0,0.2,0.1,0.4,0.4,0.4h0.7v1h-1.2
		c-0.7,0-1-0.3-1-1V187.8z M652.9,183.1h1.1v1.4h-1.1V183.1z"/>
	<path class="st4" d="M662.2,186.2c2.4,0,4.4,1.8,4.4,4.3c0,2.5-2,4.4-4.4,4.4c-2.4,0-4.4-1.9-4.4-4.4
		C657.8,188.1,659.8,186.2,662.2,186.2z M662.2,193.9c1.8,0,3.2-1.4,3.2-3.4c0-1.9-1.4-3.3-3.2-3.3c-1.8,0-3.2,1.4-3.2,3.3
		C659,192.5,660.4,193.9,662.2,193.9z"/>
	<path class="st4" d="M680.8,189.6h0.5v-0.1c0-1.7-0.6-2.3-2.1-2.3c-0.4,0-1.6,0.1-1.6,0.7v0.5h-1.1v-0.8c0-1.2,2-1.4,2.7-1.4
		c2.6,0,3.2,1.4,3.2,3.2v4c0,0.2,0.1,0.4,0.4,0.4h0.7v1h-1.1c-0.7,0-1-0.3-1-1c0-0.4,0-0.6,0-0.6h0c0,0-0.7,1.8-2.8,1.8
		c-1.4,0-2.8-0.8-2.8-2.5C675.7,189.7,679.3,189.6,680.8,189.6z M678.7,194c1.6,0,2.5-1.6,2.5-3.1v-0.4h-0.5c-1.3,0-3.9,0-3.9,1.9
		C676.8,193.2,677.4,194,678.7,194z"/>
	<path class="st4" d="M686.8,184.5c0-0.2-0.1-0.4-0.4-0.4h-0.7v-1h1.2c0.7,0,1,0.3,1,1v9.2c0,0.2,0.1,0.4,0.4,0.4h0.7v1h-1.2
		c-0.7,0-1-0.3-1-1V184.5z"/>
	<path class="st4" d="M698.9,193.4c0,0,0.7,0.4,1.7,0.4c2.4,0,3.7-2.4,3.9-4.8h0c-0.5,0.9-1.7,1.4-2.9,1.4c-2.1,0-3.6-1.5-3.6-3.7
		c0-2.4,1.6-3.9,3.6-3.9c2.5,0,4.2,2.3,4.2,5.3c0,2.9-1.5,6.7-5.1,6.7c-1.3,0-2.1-0.5-2.1-0.5L698.9,193.4z M704.5,187.5
		c0-1.5-1.2-3.5-2.9-3.5c-1.6,0-2.5,1.2-2.5,2.8c0,1.6,1,2.7,2.6,2.7C703.2,189.5,704.5,188.4,704.5,187.5z"/>
	<path class="st4" d="M709.7,192.5c0,0,0.9,1.4,2.7,1.4c1.6,0,2.9-1.2,2.9-2.7c0-1.6-1.3-2.7-3-2.7c-1.3,0-2.2,0.6-2.2,0.6l-0.6-0.2
		l0.5-4.7c0.1-0.7,0.3-1,1-1h3.8c0.7,0,1,0.3,1,1v1.2h-1.1v-0.8c0-0.2-0.1-0.4-0.4-0.4h-2.9c-0.2,0-0.3,0.1-0.4,0.4l-0.3,2.6
		c0,0.4-0.1,0.7-0.1,0.7h0c0,0,0.7-0.4,1.7-0.4c2.4,0,4.1,1.7,4.1,3.8c0,2.1-1.7,3.8-4.1,3.8c-2.3,0-3.4-1.6-3.4-1.6L709.7,192.5z"
		/>
	<path class="st4" d="M720.1,185.2c0-1.3,1-2.3,2.3-2.3s2.3,1,2.3,2.3c0,1.3-1,2.3-2.3,2.3S720.1,186.5,720.1,185.2z M729,183.1h1.2
		l-8.8,11.6h-1.2L729,183.1z M723.8,185.2c0-0.7-0.6-1.4-1.4-1.4c-0.8,0-1.3,0.6-1.3,1.4c0,0.8,0.6,1.4,1.3,1.4
		C723.2,186.6,723.8,186,723.8,185.2z M728,190.3c1.3,0,2.3,1,2.3,2.3c0,1.3-1,2.3-2.3,2.3s-2.3-1-2.3-2.3
		C725.7,191.4,726.7,190.3,728,190.3z M728,194c0.8,0,1.4-0.6,1.4-1.4c0-0.7-0.6-1.4-1.4-1.4c-0.8,0-1.3,0.6-1.3,1.4
		C726.7,193.4,727.2,194,728,194z"/>
</g>
<g>
	<path class="st3" d="M660.3,286.7c0.8-1.6,1.6-2.7,1.6-2.7V284c0,0-0.7,0.1-2.2,0.1h-10.4c-0.6,0-0.9,0.3-0.9,0.9v1.9h-2.7V284
		c0-1.8,0.7-2.5,2.5-2.5h17.1v2l-14.3,27h-3.2L660.3,286.7z"/>
	<path class="st3" d="M673.6,304.8c0,0,2.2,3.4,6.7,3.4c4.1,0,7.2-2.9,7.2-6.8c0-4-3.3-6.8-7.5-6.8c-3.3,0-5.6,1.6-5.6,1.6l-1.5-0.6
		l1.2-11.7c0.2-1.8,0.7-2.5,2.5-2.5h9.5c1.7,0,2.5,0.7,2.5,2.5v2.9H686v-1.9c0-0.6-0.3-0.9-0.9-0.9h-7.3c-0.6,0-0.8,0.3-0.9,0.9
		l-0.7,6.5c-0.1,1-0.2,1.6-0.2,1.6h0.1c0,0,1.8-1.1,4.4-1.1c5.9,0,10.1,4.2,10.1,9.4c0,5.1-4.3,9.4-10.2,9.4c-5.8,0-8.5-4.1-8.5-4.1
		L673.6,304.8z"/>
	<path class="st3" d="M699.6,286.7c0-3.1,2.6-5.7,5.8-5.7c3.2,0,5.8,2.6,5.8,5.7c0,3.2-2.6,5.7-5.8,5.7
		C702.2,292.4,699.6,289.9,699.6,286.7z M722,281.5h2.9l-22,28.9h-3L722,281.5z M708.8,286.7c0-1.9-1.5-3.4-3.4-3.4
		c-1.9,0-3.3,1.6-3.3,3.4c0,1.9,1.4,3.4,3.3,3.4C707.3,290.1,708.8,288.6,708.8,286.7z M719.3,299.5c3.2,0,5.8,2.6,5.8,5.8
		c0,3.1-2.6,5.7-5.8,5.7c-3.2,0-5.8-2.6-5.8-5.7C713.6,302.1,716.1,299.5,719.3,299.5z M719.3,308.6c1.9,0,3.4-1.5,3.4-3.4
		c0-1.9-1.5-3.4-3.4-3.4s-3.3,1.6-3.3,3.4C716,307.1,717.4,308.6,719.3,308.6z"/>
	<path class="st4" d="M648.2,318.4c3.3,0,5.9,2.6,5.9,5.9c0,3.4-2.6,6.1-5.9,6.1c-3.3,0-5.9-2.7-5.9-6.1
		C642.3,321,644.9,318.4,648.2,318.4z M648.2,329.3c2.6,0,4.7-2.2,4.7-5c0-2.7-2.1-4.8-4.7-4.8c-2.6,0-4.7,2.1-4.7,4.8
		C643.5,327.1,645.6,329.3,648.2,329.3z"/>
	<path class="st4" d="M657.7,320c0-0.2-0.1-0.4-0.4-0.4h-0.7v-1h1.2c0.7,0,1,0.3,1,1v3c0,0.4,0,0.7,0,0.7h0c0,0,0.7-1.6,2.8-1.6
		c2.2,0,3.6,1.8,3.6,4.3c0,2.6-1.6,4.3-3.7,4.3c-2,0-2.7-1.6-2.7-1.6h0c0,0,0,0.3,0,0.7v0.7h-1.1V320z M661.5,329.4
		c1.5,0,2.7-1.2,2.7-3.3c0-2-1.1-3.3-2.6-3.3c-1.4,0-2.7,1-2.7,3.3C658.8,327.8,659.7,329.4,661.5,329.4z"/>
	<path class="st4" d="M669.1,323.3c0-0.2-0.1-0.4-0.4-0.4h-0.7v-1h1.2c0.7,0,1,0.3,1,1v5.9c0,0.2,0.1,0.4,0.4,0.4h0.7v1h-1.2
		c-0.7,0-1-0.3-1-1V323.3z M669.1,318.6h1.1v1.4h-1.1V318.6z"/>
	<path class="st4" d="M678.1,321.7c2.3,0,3.5,1.8,3.5,3.8c0,0.2,0,0.6,0,0.6h-6.4c0,2.1,1.5,3.3,3.2,3.3c1.5,0,2.5-1,2.5-1l0.5,0.8
		c0,0-1.2,1.2-3.1,1.2c-2.5,0-4.3-1.8-4.3-4.3C674.1,323.4,675.9,321.7,678.1,321.7z M680.5,325.2c-0.1-1.7-1.1-2.6-2.3-2.6
		c-1.4,0-2.6,0.9-2.9,2.6H680.5z"/>
	<path class="st4" d="M685.6,322.9h-1.1v-0.9h1.1v-2.3h1.1v2.3h2.1v0.9h-2.1v4.2c0,1.9,1.2,2.2,1.9,2.2c0.2,0,0.4,0,0.4,0v1
		c0,0-0.2,0-0.5,0c-1,0-2.9-0.3-2.9-3.1V322.9z"/>
	<path class="st4" d="M692.8,322.9h-1.1v-0.9h1.1v-2.3h1.1v2.3h2.1v0.9h-2.1v4.2c0,1.9,1.2,2.2,1.9,2.2c0.2,0,0.4,0,0.4,0v1
		c0,0-0.2,0-0.5,0c-1,0-2.9-0.3-2.9-3.1V322.9z"/>
	<path class="st4" d="M699.9,323.3c0-0.2-0.1-0.4-0.4-0.4h-0.7v-1h1.2c0.7,0,1,0.3,1,1v5.9c0,0.2,0.1,0.4,0.4,0.4h0.7v1h-1.2
		c-0.7,0-1-0.3-1-1V323.3z M699.9,318.6h1.1v1.4h-1.1V318.6z"/>
	<path class="st4" d="M705.1,323.3c-0.1-0.3-0.3-0.4-0.6-0.4h-0.1v-1h0.4c0.8,0,1,0.2,1.3,0.9l2,5.2c0.1,0.4,0.3,1,0.3,1h0
		c0,0,0.1-0.6,0.3-1l2-5.2c0.3-0.7,0.5-0.9,1.3-0.9h0.4v1h-0.1c-0.3,0-0.5,0.1-0.6,0.4l-2.7,6.9h-1.2L705.1,323.3z"/>
	<path class="st4" d="M719.1,321.7c2.4,0,4.4,1.8,4.4,4.3c0,2.5-2,4.4-4.4,4.4c-2.4,0-4.4-1.9-4.4-4.4
		C714.8,323.6,716.7,321.7,719.1,321.7z M719.2,329.4c1.8,0,3.2-1.4,3.2-3.4c0-1.9-1.4-3.3-3.2-3.3c-1.8,0-3.2,1.4-3.2,3.3
		C715.9,327.9,717.4,329.4,719.2,329.4z"/>
	<path class="st4" d="M727.5,321.9h1.3v1.3h-1.3V321.9z M727.5,328.9h1.3v1.3h-1.3V328.9z"/>
	<path class="st4" d="M609.7,343c0-0.2-0.1-0.4-0.4-0.4h-0.7v-1h1.1c0.7,0,1,0.3,1,0.9c0,0.3,0,0.6,0,0.6h0c0,0,0.7-1.6,2.9-1.6
		c2.2,0,3.6,1.8,3.6,4.3c0,2.6-1.6,4.3-3.7,4.3c-2,0-2.7-1.6-2.7-1.6h0c0,0,0,0.3,0,0.7v3.9h-1.1V343z M613.4,349.2
		c1.5,0,2.7-1.2,2.7-3.3c0-2-1.1-3.3-2.6-3.3c-1.4,0-2.7,1-2.7,3.3C610.8,347.5,611.7,349.2,613.4,349.2z"/>
	<path class="st4" d="M621,343c0-0.2-0.1-0.4-0.4-0.4H620v-1h1.2c0.7,0,1,0.3,1,0.9v0.6c0,0.3,0,0.6,0,0.6h0
		c0.4-1.3,1.3-2.2,2.6-2.2c0.2,0,0.4,0,0.4,0v1.1c0,0-0.2,0-0.4,0c-1.2,0-2,0.9-2.4,2.1c-0.2,0.5-0.2,1.1-0.2,1.6v3.5H621V343z"/>
	<path class="st4" d="M631.9,341.5c2.4,0,4.4,1.8,4.4,4.3c0,2.5-2,4.4-4.4,4.4c-2.4,0-4.4-1.9-4.4-4.4
		C627.5,343.3,629.5,341.5,631.9,341.5z M631.9,349.2c1.8,0,3.2-1.4,3.2-3.4c0-1.9-1.4-3.3-3.2-3.3c-1.8,0-3.2,1.4-3.2,3.3
		C628.7,347.7,630.1,349.2,631.9,349.2z"/>
	<path class="st4" d="M643,341.5c2,0,2.7,1.5,2.7,1.5h0c0,0,0-0.3,0-0.6v-2.7c0-0.2-0.1-0.4-0.4-0.4h-0.7v-1h1.2c0.7,0,1,0.3,1,1
		v9.2c0,0.2,0.1,0.4,0.4,0.4h0.7v1h-1.2c-0.7,0-1-0.3-1-0.9c0-0.3,0-0.5,0-0.5h0c0,0-0.7,1.6-2.9,1.6c-2.2,0-3.6-1.8-3.6-4.3
		C639.3,343.2,640.8,341.5,643,341.5z M645.7,345.8c0-1.7-0.9-3.3-2.6-3.3c-1.5,0-2.7,1.2-2.7,3.3c0,2,1.1,3.3,2.6,3.3
		C644.4,349.2,645.7,348.2,645.7,345.8z"/>
	<path class="st4" d="M651.3,343c0-0.2-0.1-0.4-0.4-0.4h-0.7v-1h1.2c0.7,0,1,0.3,1,1v4c0,1.3,0.2,2.5,1.8,2.5c1.9,0,3-1.7,3-3.5v-4
		h1.1v7c0,0.2,0.1,0.4,0.4,0.4h0.7v1h-1.1c-0.7,0-1-0.3-1-0.9v-0.4c0-0.3,0-0.6,0-0.6h0c-0.3,0.8-1.4,2.1-3.2,2.1
		c-2,0-2.8-1.1-2.8-3.2V343z"/>
	<path class="st4" d="M662.9,343c0-0.2-0.1-0.4-0.4-0.4h-0.7v-1h1.2c0.7,0,1,0.3,1,0.9v0.6c0,0.3,0,0.6,0,0.6h0
		c0.4-1.3,1.3-2.2,2.6-2.2c0.2,0,0.4,0,0.4,0v1.1c0,0-0.2,0-0.4,0c-1.2,0-2,0.9-2.4,2.1c-0.2,0.5-0.2,1.1-0.2,1.6v3.5h-1.1V343z"/>
	<path class="st4" d="M670.6,343c0-0.2-0.1-0.4-0.4-0.4h-0.7v-1h1.2c0.7,0,1,0.3,1,0.9v0.6c0,0.3,0,0.6,0,0.6h0
		c0.4-1.3,1.3-2.2,2.6-2.2c0.2,0,0.4,0,0.4,0v1.1c0,0-0.2,0-0.4,0c-1.2,0-2,0.9-2.4,2.1c-0.2,0.5-0.2,1.1-0.2,1.6v3.5h-1.1V343z"/>
	<path class="st4" d="M681.2,341.5c2.3,0,3.5,1.8,3.5,3.8c0,0.2,0,0.6,0,0.6h-6.4c0,2.1,1.5,3.3,3.2,3.3c1.5,0,2.5-1,2.5-1l0.5,0.8
		c0,0-1.2,1.2-3.1,1.2c-2.5,0-4.3-1.8-4.3-4.3C677.2,343.1,679,341.5,681.2,341.5z M683.6,345c-0.1-1.7-1.1-2.6-2.3-2.6
		c-1.4,0-2.6,0.9-2.9,2.6H683.6z"/>
	<path class="st4" d="M694.4,347.9c0,0,0.9,1.3,2.6,1.3c0.9,0,1.7-0.4,1.7-1.3c0-1.8-4.6-1.5-4.6-4.2c0-1.5,1.3-2.2,2.9-2.2
		c0.8,0,2.5,0.3,2.5,1.5v0.7h-1.1v-0.4c0-0.6-0.9-0.8-1.4-0.8c-1.2,0-1.8,0.4-1.8,1.2c0,1.9,4.6,1.4,4.6,4.2c0,1.4-1.3,2.3-2.9,2.3
		c-2.2,0-3.2-1.5-3.2-1.5L694.4,347.9z"/>
	<path class="st4" d="M703.6,343c0-0.2-0.1-0.4-0.4-0.4h-0.7v-1h1.2c0.7,0,1,0.3,1,1v4c0,1.3,0.2,2.5,1.8,2.5c1.9,0,3-1.7,3-3.5v-4
		h1.1v7c0,0.2,0.1,0.4,0.4,0.4h0.7v1h-1.1c-0.7,0-1-0.3-1-0.9v-0.4c0-0.3,0-0.6,0-0.6h0c-0.3,0.8-1.4,2.1-3.2,2.1
		c-2,0-2.8-1.1-2.8-3.2V343z"/>
	<path class="st4" d="M721,347.9c0,0,0.9,1.3,2.6,1.3c0.9,0,1.7-0.4,1.7-1.3c0-1.8-4.6-1.5-4.6-4.2c0-1.5,1.3-2.2,2.9-2.2
		c0.8,0,2.5,0.3,2.5,1.5v0.7h-1.1v-0.4c0-0.6-0.9-0.8-1.4-0.8c-1.2,0-1.8,0.4-1.8,1.2c0,1.9,4.6,1.4,4.6,4.2c0,1.4-1.3,2.3-2.9,2.3
		c-2.2,0-3.2-1.5-3.2-1.5L721,347.9z"/>
	<path class="st4" d="M733.8,341.5c0.9,0,2.9,0.4,2.9,1.8v0.7h-1.1v-0.5c0-0.7-1.2-1-1.9-1c-1.8,0-3.2,1.3-3.2,3.3
		c0,2,1.5,3.3,3.2,3.3c1.7,0,2.7-1.2,2.7-1.2l0.5,0.8c0,0-1.1,1.4-3.2,1.4c-2.5,0-4.3-1.8-4.3-4.3
		C729.5,343.3,731.3,341.5,733.8,341.5z"/>
	<path class="st4" d="M744.9,344.9h0.5v-0.1c0-1.7-0.6-2.3-2.1-2.3c-0.4,0-1.6,0.1-1.6,0.7v0.5h-1.1v-0.8c0-1.2,2-1.4,2.7-1.4
		c2.6,0,3.2,1.4,3.2,3.2v4c0,0.2,0.1,0.4,0.4,0.4h0.7v1h-1.1c-0.7,0-1-0.3-1-1c0-0.4,0-0.6,0-0.6h0c0,0-0.7,1.8-2.8,1.8
		c-1.4,0-2.8-0.8-2.8-2.5C739.8,345,743.4,344.9,744.9,344.9z M742.8,349.2c1.6,0,2.5-1.6,2.5-3.1v-0.4h-0.5c-1.3,0-3.9,0-3.9,1.9
		C740.9,348.4,741.6,349.2,742.8,349.2z"/>
	<path class="st4" d="M750.9,339.7c0-0.2-0.1-0.4-0.4-0.4h-0.7v-1h1.2c0.7,0,1,0.3,1,1v9.2c0,0.2,0.1,0.4,0.4,0.4h0.7v1h-1.2
		c-0.7,0-1-0.3-1-1V339.7z"/>
	<path class="st4" d="M760.9,344.9h0.5v-0.1c0-1.7-0.6-2.3-2.1-2.3c-0.4,0-1.6,0.1-1.6,0.7v0.5h-1.1v-0.8c0-1.2,2-1.4,2.7-1.4
		c2.6,0,3.2,1.4,3.2,3.2v4c0,0.2,0.1,0.4,0.4,0.4h0.7v1h-1.1c-0.7,0-1-0.3-1-1c0-0.4,0-0.6,0-0.6h0c0,0-0.7,1.8-2.8,1.8
		c-1.4,0-2.8-0.8-2.8-2.5C755.8,345,759.5,344.9,760.9,344.9z M758.8,349.2c1.6,0,2.5-1.6,2.5-3.1v-0.4h-0.5c-1.3,0-3.9,0-3.9,1.9
		C757,348.4,757.6,349.2,758.8,349.2z"/>
	<path class="st4" d="M633.5,361.3c0.9,0,2.9,0.4,2.9,1.8v0.7h-1.1v-0.5c0-0.7-1.2-1-1.9-1c-1.8,0-3.2,1.3-3.2,3.3
		c0,2,1.5,3.3,3.2,3.3c1.7,0,2.7-1.2,2.7-1.2l0.5,0.8c0,0-1.1,1.4-3.2,1.4c-2.5,0-4.3-1.8-4.3-4.3
		C629.2,363.1,631,361.3,633.5,361.3z"/>
	<path class="st4" d="M643.9,361.3c2.4,0,4.4,1.8,4.4,4.3c0,2.5-2,4.4-4.4,4.4c-2.4,0-4.4-1.9-4.4-4.4
		C639.5,363.1,641.5,361.3,643.9,361.3z M643.9,368.9c1.8,0,3.2-1.4,3.2-3.4c0-1.9-1.4-3.3-3.2-3.3c-1.8,0-3.2,1.4-3.2,3.3
		C640.6,367.5,642.1,368.9,643.9,368.9z"/>
	<path class="st4" d="M652,362.8c0-0.2-0.1-0.4-0.4-0.4h-0.7v-1h1.2c0.7,0,1,0.3,1,0.9v0.4c0,0.3,0,0.6,0,0.6h0
		c0.4-1.1,1.7-2.1,3-2.1c1.5,0,2.3,0.7,2.6,2.1h0c0.4-1.1,1.6-2.1,3-2.1c2,0,2.8,1.2,2.8,3.2v3.9c0,0.2,0.1,0.4,0.4,0.4h0.7v1h-1.2
		c-0.7,0-1-0.3-1-1v-4c0-1.4-0.3-2.5-1.8-2.5c-1.3,0-2.3,1.1-2.6,2.3c-0.1,0.4-0.1,0.8-0.1,1.2v3.9h-1.1v-5c0-1.3-0.2-2.5-1.7-2.5
		c-1.4,0-2.4,1.2-2.7,2.4c-0.1,0.3-0.1,0.7-0.1,1.1v3.9H652V362.8z"/>
	<path class="st4" d="M669,362.8c0-0.2-0.1-0.4-0.4-0.4h-0.7v-1h1.2c0.7,0,1,0.3,1,0.9v0.4c0,0.3,0,0.6,0,0.6h0
		c0.4-1.1,1.7-2.1,3-2.1c1.5,0,2.3,0.7,2.6,2.1h0c0.4-1.1,1.6-2.1,3-2.1c2,0,2.8,1.2,2.8,3.2v3.9c0,0.2,0.1,0.4,0.4,0.4h0.7v1h-1.2
		c-0.7,0-1-0.3-1-1v-4c0-1.4-0.3-2.5-1.8-2.5c-1.3,0-2.3,1.1-2.6,2.3c-0.1,0.4-0.1,0.8-0.1,1.2v3.9h-1.1v-5c0-1.3-0.2-2.5-1.7-2.5
		c-1.4,0-2.4,1.2-2.7,2.4c-0.1,0.3-0.1,0.7-0.1,1.1v3.9H669V362.8z"/>
	<path class="st4" d="M689.3,361.3c2.3,0,3.5,1.8,3.5,3.8c0,0.2,0,0.6,0,0.6h-6.4c0,2.1,1.5,3.3,3.2,3.3c1.5,0,2.5-1,2.5-1l0.5,0.8
		c0,0-1.2,1.2-3.1,1.2c-2.5,0-4.3-1.8-4.3-4.3C685.2,362.9,687,361.3,689.3,361.3z M691.6,364.7c-0.1-1.7-1.1-2.6-2.3-2.6
		c-1.4,0-2.6,0.9-2.9,2.6H691.6z"/>
	<path class="st4" d="M696.6,362.8c0-0.2-0.1-0.4-0.4-0.4h-0.7v-1h1.2c0.7,0,1,0.3,1,0.9v0.6c0,0.3,0,0.6,0,0.6h0
		c0.4-1.3,1.3-2.2,2.6-2.2c0.2,0,0.4,0,0.4,0v1.1c0,0-0.2,0-0.4,0c-1.2,0-2,0.9-2.4,2.1c-0.2,0.5-0.2,1.1-0.2,1.6v3.5h-1.1V362.8z"
		/>
	<path class="st4" d="M707.5,361.3c0.9,0,2.9,0.4,2.9,1.8v0.7h-1.1v-0.5c0-0.7-1.2-1-1.9-1c-1.8,0-3.2,1.3-3.2,3.3
		c0,2,1.5,3.3,3.2,3.3c1.7,0,2.7-1.2,2.7-1.2l0.5,0.8c0,0-1.1,1.4-3.2,1.4c-2.5,0-4.3-1.8-4.3-4.3
		C703.1,363.1,705,361.3,707.5,361.3z"/>
	<path class="st4" d="M714.3,362.8c0-0.2-0.1-0.4-0.4-0.4h-0.7v-1h1.2c0.7,0,1,0.3,1,1v5.9c0,0.2,0.1,0.4,0.4,0.4h0.7v1h-1.2
		c-0.7,0-1-0.3-1-1V362.8z M714.3,358.2h1.1v1.4h-1.1V358.2z"/>
	<path class="st4" d="M724.3,364.6h0.5v-0.1c0-1.7-0.6-2.3-2.1-2.3c-0.4,0-1.6,0.1-1.6,0.7v0.5H720v-0.8c0-1.2,2-1.4,2.7-1.4
		c2.6,0,3.2,1.4,3.2,3.2v4c0,0.2,0.1,0.4,0.4,0.4h0.7v1h-1.1c-0.7,0-1-0.3-1-1c0-0.4,0-0.6,0-0.6h0c0,0-0.7,1.8-2.8,1.8
		c-1.4,0-2.8-0.8-2.8-2.5C719.3,364.7,722.9,364.6,724.3,364.6z M722.3,369c1.6,0,2.5-1.6,2.5-3.1v-0.4h-0.5c-1.3,0-3.9,0-3.9,1.9
		C720.4,368.2,721,369,722.3,369z"/>
	<path class="st4" d="M730.4,359.5c0-0.2-0.1-0.4-0.4-0.4h-0.7v-1h1.2c0.7,0,1,0.3,1,1v9.2c0,0.2,0.1,0.4,0.4,0.4h0.7v1h-1.2
		c-0.7,0-1-0.3-1-1V359.5z"/>
	<path class="st4" d="M739.4,361.3c2.3,0,3.5,1.8,3.5,3.8c0,0.2,0,0.6,0,0.6h-6.4c0,2.1,1.5,3.3,3.2,3.3c1.5,0,2.5-1,2.5-1l0.5,0.8
		c0,0-1.2,1.2-3.1,1.2c-2.5,0-4.3-1.8-4.3-4.3C735.3,362.9,737.2,361.3,739.4,361.3z M741.7,364.7c-0.1-1.7-1.1-2.6-2.3-2.6
		c-1.4,0-2.6,0.9-2.9,2.6H741.7z"/>
	<path class="st4" d="M638.3,379.3c0-0.2-0.1-0.4-0.4-0.4h-0.7v-1h1.2c0.7,0,1,0.3,1,1v3c0,0.4,0,0.7,0,0.7h0c0,0,0.7-1.6,2.8-1.6
		c2.2,0,3.6,1.8,3.6,4.3c0,2.6-1.6,4.3-3.7,4.3c-2,0-2.7-1.6-2.7-1.6h0c0,0,0,0.3,0,0.7v0.7h-1.1V379.3z M642,388.7
		c1.5,0,2.7-1.2,2.7-3.3c0-2-1.1-3.3-2.6-3.3c-1.4,0-2.7,1-2.7,3.3C639.4,387.1,640.2,388.7,642,388.7z"/>
	<path class="st4" d="M653.2,381c2.4,0,4.4,1.8,4.4,4.3c0,2.5-2,4.4-4.4,4.4c-2.4,0-4.4-1.9-4.4-4.4
		C648.8,382.9,650.8,381,653.2,381z M653.2,388.7c1.8,0,3.2-1.4,3.2-3.4c0-1.9-1.4-3.3-3.2-3.3c-1.8,0-3.2,1.4-3.2,3.3
		C650,387.3,651.4,388.7,653.2,388.7z"/>
	<path class="st4" d="M661.4,382.2h-1.1v-0.9h1.1v-2.3h1.1v2.3h2.1v0.9h-2.1v4.2c0,1.9,1.2,2.2,1.9,2.2c0.2,0,0.4,0,0.4,0v1
		c0,0-0.2,0-0.5,0c-1,0-2.9-0.3-2.9-3.1V382.2z"/>
	<path class="st4" d="M668.6,382.2h-1.1v-0.9h1.1v-2.3h1.1v2.3h2.1v0.9h-2.1v4.2c0,1.9,1.2,2.2,1.9,2.2c0.2,0,0.4,0,0.4,0v1
		c0,0-0.2,0-0.5,0c-1,0-2.9-0.3-2.9-3.1V382.2z"/>
	<path class="st4" d="M675.7,382.6c0-0.2-0.1-0.4-0.4-0.4h-0.7v-1h1.2c0.7,0,1,0.3,1,1v5.9c0,0.2,0.1,0.4,0.4,0.4h0.7v1h-1.2
		c-0.7,0-1-0.3-1-1V382.6z M675.7,377.9h1.1v1.4h-1.1V377.9z"/>
	<path class="st4" d="M684.3,381c2.2,0,2.8,1.4,2.8,1.4h0c0,0,0-0.1,0-0.3c0-0.6,0.3-0.9,0.9-0.9h1.2v1h-0.7c-0.2,0-0.4,0.1-0.4,0.4
		v6.8c0,2.6-1.9,3.7-4,3.7c-0.9,0-1.9-0.2-2.7-0.7l0.4-0.9c0,0,1,0.6,2.2,0.6c1.6,0,2.9-0.8,2.9-2.6v-0.7c0-0.3,0-0.6,0-0.6h0
		c-0.5,0.9-1.3,1.4-2.6,1.4c-2.2,0-3.7-1.8-3.7-4.3C680.7,382.7,682.1,381,684.3,381z M687,385.2c0-2.4-1.2-3.2-2.6-3.2
		c-1.6,0-2.6,1.2-2.6,3.1s1.1,3.3,2.7,3.3C685.9,388.5,687,387.6,687,385.2z"/>
	<path class="st4" d="M692.6,379.3c0-0.2-0.1-0.4-0.4-0.4h-0.7v-1h1.2c0.7,0,1,0.3,1,1v9.2c0,0.2,0.1,0.4,0.4,0.4h0.7v1h-1.2
		c-0.7,0-1-0.3-1-1V379.3z"/>
	<path class="st4" d="M698.4,382.6c0-0.2-0.1-0.4-0.4-0.4h-0.7v-1h1.2c0.7,0,1,0.3,1,1v5.9c0,0.2,0.1,0.4,0.4,0.4h0.7v1h-1.2
		c-0.7,0-1-0.3-1-1V382.6z M698.4,377.9h1.1v1.4h-1.1V377.9z"/>
	<path class="st4" d="M707.4,381c2.3,0,3.5,1.8,3.5,3.8c0,0.2,0,0.6,0,0.6h-6.4c0,2.1,1.5,3.3,3.2,3.3c1.5,0,2.5-1,2.5-1l0.5,0.8
		c0,0-1.2,1.2-3.1,1.2c-2.5,0-4.3-1.8-4.3-4.3C703.3,382.7,705.2,381,707.4,381z M709.7,384.5c-0.1-1.7-1.1-2.6-2.3-2.6
		c-1.4,0-2.6,0.9-2.9,2.6H709.7z"/>
	<path class="st4" d="M721,382.6c0-0.2-0.1-0.4-0.4-0.4h-0.7v-1h1.2c0.7,0,1,0.3,1,1v5.9c0,0.2,0.1,0.4,0.4,0.4h0.7v1H722
		c-0.7,0-1-0.3-1-1V382.6z M720.9,377.9h1.1v1.4h-1.1V377.9z"/>
	<path class="st4" d="M726.7,382.6c0-0.2-0.1-0.4-0.4-0.4h-0.7v-1h1.2c0.7,0,1,0.3,1,0.9v0.4c0,0.3,0,0.6,0,0.6h0
		c0.3-0.8,1.4-2.1,3.3-2.1c2.1,0,2.8,1.2,2.8,3.2v3.9c0,0.2,0.1,0.4,0.4,0.4h0.7v1h-1.2c-0.7,0-1-0.3-1-1v-4c0-1.3-0.2-2.5-1.8-2.5
		c-1.4,0-2.6,1-3,2.3c-0.1,0.3-0.1,0.7-0.1,1.1v4h-1.1V382.6z"/>
	<path class="st4" d="M633.7,402.3c0-0.2-0.1-0.4-0.4-0.4h-0.7v-1h1.1c0.7,0,1,0.3,1,0.9c0,0.3,0,0.6,0,0.6h0c0,0,0.7-1.6,2.9-1.6
		c2.2,0,3.6,1.8,3.6,4.3c0,2.6-1.6,4.3-3.7,4.3c-2,0-2.7-1.6-2.7-1.6h0c0,0,0,0.3,0,0.7v3.9h-1.1V402.3z M637.4,408.5
		c1.5,0,2.7-1.2,2.7-3.3c0-2-1.1-3.3-2.6-3.3c-1.4,0-2.7,1-2.7,3.3C634.8,406.8,635.7,408.5,637.4,408.5z"/>
	<path class="st4" d="M644.8,399c0-0.2-0.1-0.4-0.4-0.4h-0.7v-1h1.2c0.7,0,1,0.3,1,1v9.2c0,0.2,0.1,0.4,0.4,0.4h0.7v1h-1.2
		c-0.7,0-1-0.3-1-1V399z"/>
	<path class="st4" d="M654.8,404.2h0.5v-0.1c0-1.7-0.6-2.3-2.1-2.3c-0.4,0-1.6,0.1-1.6,0.7v0.5h-1.1v-0.8c0-1.2,2-1.4,2.7-1.4
		c2.6,0,3.2,1.4,3.2,3.2v4c0,0.2,0.1,0.4,0.4,0.4h0.7v1h-1.1c-0.7,0-1-0.3-1-1c0-0.4,0-0.6,0-0.6h0c0,0-0.7,1.8-2.8,1.8
		c-1.4,0-2.8-0.8-2.8-2.5C649.7,404.3,653.4,404.2,654.8,404.2z M652.7,408.5c1.6,0,2.5-1.6,2.5-3.1v-0.4h-0.5c-1.3,0-3.9,0-3.9,1.9
		C650.9,407.7,651.5,408.5,652.7,408.5z"/>
	<path class="st4" d="M660.6,407.2c0,0,0.9,1.3,2.6,1.3c0.9,0,1.7-0.4,1.7-1.3c0-1.8-4.6-1.5-4.6-4.2c0-1.5,1.3-2.2,2.9-2.2
		c0.8,0,2.5,0.3,2.5,1.5v0.7h-1.1v-0.4c0-0.6-0.9-0.8-1.4-0.8c-1.2,0-1.8,0.4-1.8,1.2c0,1.9,4.6,1.4,4.6,4.2c0,1.4-1.3,2.3-2.9,2.3
		c-2.2,0-3.2-1.5-3.2-1.5L660.6,407.2z"/>
	<path class="st4" d="M669.9,401.9h-1.1V401h1.1v-2.3h1.1v2.3h2.1v0.9H671v4.2c0,1.9,1.2,2.2,1.9,2.2c0.2,0,0.4,0,0.4,0v1
		c0,0-0.2,0-0.5,0c-1,0-2.9-0.3-2.9-3.1V401.9z"/>
	<path class="st4" d="M677,402.3c0-0.2-0.1-0.4-0.4-0.4H676v-1h1.2c0.7,0,1,0.3,1,1v5.9c0,0.2,0.1,0.4,0.4,0.4h0.7v1H678
		c-0.7,0-1-0.3-1-1V402.3z M677,397.7h1.1v1.4H677V397.7z"/>
	<path class="st4" d="M686.3,400.8c0.9,0,2.9,0.4,2.9,1.8v0.7h-1.1v-0.5c0-0.7-1.2-1-1.9-1c-1.8,0-3.2,1.3-3.2,3.3
		c0,2,1.5,3.3,3.2,3.3c1.7,0,2.7-1.2,2.7-1.2l0.5,0.8c0,0-1.1,1.4-3.2,1.4c-2.5,0-4.3-1.8-4.3-4.3
		C682,402.6,683.8,400.8,686.3,400.8z"/>
	<path class="st4" d="M697.4,404.2h0.5v-0.1c0-1.7-0.6-2.3-2.1-2.3c-0.4,0-1.6,0.1-1.6,0.7v0.5H693v-0.8c0-1.2,2-1.4,2.7-1.4
		c2.6,0,3.2,1.4,3.2,3.2v4c0,0.2,0.1,0.4,0.4,0.4h0.7v1h-1.1c-0.7,0-1-0.3-1-1c0-0.4,0-0.6,0-0.6h0c0,0-0.7,1.8-2.8,1.8
		c-1.4,0-2.8-0.8-2.8-2.5C692.3,404.3,695.9,404.2,697.4,404.2z M695.3,408.5c1.6,0,2.5-1.6,2.5-3.1v-0.4h-0.5c-1.3,0-3.9,0-3.9,1.9
		C693.4,407.7,694.1,408.5,695.3,408.5z"/>
	<path class="st4" d="M709.9,398.7h-1.1v-1h4.9c2.1,0,3.6,1.4,3.6,3.5c0,2.2-1.5,3.5-3.6,3.5H711v4.5h-1.2V398.7z M713.6,403.7
		c1.5,0,2.5-0.9,2.5-2.5c0-1.6-1-2.5-2.5-2.5H711v5H713.6z"/>
	<path class="st4" d="M721.1,398.7H720v-1h6.6c0.7,0,1,0.3,1,1v1.2h-1.1v-0.8c0-0.2-0.1-0.4-0.4-0.4h-4v4.2h4.3v1h-4.3v3.9
		c0,0.2,0.1,0.4,0.4,0.4h4.1c0.2,0,0.4-0.1,0.4-0.4v-0.8h1.1v1.2c0,0.7-0.3,1-1,1h-5c-0.7,0-1-0.3-1-1V398.7z"/>
	<path class="st4" d="M734.6,398.7h-2.9c-0.2,0-0.4,0.1-0.4,0.4v0.8h-1.1v-1.2c0-0.7,0.2-0.9,0.9-0.9h7.8c0.7,0,0.9,0.2,0.9,0.9v1.2
		h-1.1v-0.8c0-0.3-0.1-0.4-0.4-0.4h-2.9v10.6h-1.2V398.7z"/>
	<path class="st4" d="M642.3,418.8c0-0.2-0.1-0.4-0.4-0.4h-0.7v-1h1.2c0.7,0,1,0.3,1,1v3c0,0.4,0,0.7,0,0.7h0c0,0,0.7-1.6,2.8-1.6
		c2.2,0,3.6,1.8,3.6,4.3c0,2.6-1.6,4.3-3.7,4.3c-2,0-2.7-1.6-2.7-1.6h0c0,0,0,0.3,0,0.7v0.7h-1.1V418.8z M646,428.3
		c1.5,0,2.7-1.2,2.7-3.3c0-2-1.1-3.3-2.6-3.3c-1.4,0-2.7,1-2.7,3.3C643.4,426.6,644.2,428.3,646,428.3z"/>
	<path class="st4" d="M653.7,422.1c0-0.2-0.1-0.4-0.4-0.4h-0.7v-1h1.2c0.7,0,1,0.3,1,1v5.9c0,0.2,0.1,0.4,0.4,0.4h0.7v1h-1.2
		c-0.7,0-1-0.3-1-1V422.1z M653.7,417.5h1.1v1.4h-1.1V417.5z"/>
	<path class="st4" d="M663,420.6c2.4,0,4.4,1.8,4.4,4.3c0,2.5-2,4.4-4.4,4.4c-2.4,0-4.4-1.9-4.4-4.4
		C658.6,422.4,660.6,420.6,663,420.6z M663,428.2c1.8,0,3.2-1.4,3.2-3.4c0-1.9-1.4-3.3-3.2-3.3c-1.8,0-3.2,1.4-3.2,3.3
		C659.8,426.8,661.2,428.2,663,428.2z"/>
	<path class="st4" d="M681.5,423.9h0.5v-0.1c0-1.7-0.6-2.3-2.1-2.3c-0.4,0-1.6,0.1-1.6,0.7v0.5h-1.1V422c0-1.2,2-1.4,2.7-1.4
		c2.6,0,3.2,1.4,3.2,3.2v4c0,0.2,0.1,0.4,0.4,0.4h0.7v1H683c-0.7,0-1-0.3-1-1c0-0.4,0-0.6,0-0.6h0c0,0-0.7,1.8-2.8,1.8
		c-1.4,0-2.8-0.8-2.8-2.5C676.5,424,680.1,423.9,681.5,423.9z M679.4,428.3c1.6,0,2.5-1.6,2.5-3.1v-0.4h-0.5c-1.3,0-3.9,0-3.9,1.9
		C677.6,427.5,678.2,428.3,679.4,428.3z"/>
	<path class="st4" d="M687.6,418.8c0-0.2-0.1-0.4-0.4-0.4h-0.7v-1h1.2c0.7,0,1,0.3,1,1v9.2c0,0.2,0.1,0.4,0.4,0.4h0.7v1h-1.2
		c-0.7,0-1-0.3-1-1V418.8z"/>
	<path class="st4" d="M704.3,419.6c0.3-0.6,0.6-1.1,0.6-1.1v0c0,0-0.3,0-0.9,0h-4.2c-0.2,0-0.4,0.1-0.4,0.4v0.8h-1.1v-1.2
		c0-0.7,0.3-1,1-1h6.8v0.8l-5.7,10.8h-1.3L704.3,419.6z"/>
	<path class="st4" d="M709.6,426.8c0,0,0.9,1.4,2.7,1.4c1.6,0,2.9-1.2,2.9-2.7c0-1.6-1.3-2.7-3-2.7c-1.3,0-2.2,0.6-2.2,0.6l-0.6-0.2
		l0.5-4.7c0.1-0.7,0.3-1,1-1h3.8c0.7,0,1,0.3,1,1v1.2h-1.1v-0.8c0-0.2-0.1-0.4-0.4-0.4h-2.9c-0.2,0-0.3,0.1-0.4,0.4l-0.3,2.6
		c0,0.4-0.1,0.7-0.1,0.7h0c0,0,0.7-0.4,1.7-0.4c2.4,0,4.1,1.7,4.1,3.8c0,2.1-1.7,3.8-4.1,3.8c-2.3,0-3.4-1.6-3.4-1.6L709.6,426.8z"
		/>
	<path class="st4" d="M720,419.6c0-1.3,1-2.3,2.3-2.3s2.3,1,2.3,2.3c0,1.3-1,2.3-2.3,2.3S720,420.8,720,419.6z M729,417.5h1.2
		l-8.8,11.6h-1.2L729,417.5z M723.7,419.6c0-0.7-0.6-1.4-1.4-1.4c-0.8,0-1.3,0.6-1.3,1.4c0,0.8,0.6,1.4,1.3,1.4
		C723.1,420.9,723.7,420.3,723.7,419.6z M727.9,424.7c1.3,0,2.3,1,2.3,2.3c0,1.3-1,2.3-2.3,2.3s-2.3-1-2.3-2.3
		C725.6,425.7,726.6,424.7,727.9,424.7z M727.9,428.3c0.8,0,1.4-0.6,1.4-1.4c0-0.7-0.6-1.4-1.4-1.4c-0.8,0-1.3,0.6-1.3,1.4
		C726.6,427.7,727.2,428.3,727.9,428.3z"/>
</g>
<g>
	<path class="st3" d="M646.3,528.7c0,0,3,3.5,7.6,3.5c3.4,0,6.5-2.6,6.5-6.3c0-3.9-3.4-6.1-7-6.1h-2l-0.7-1.7l7.1-8.6
		c0.7-0.9,1.5-1.6,1.5-1.6v-0.1c0,0-0.8,0.1-2.3,0.1h-7.5c-0.6,0-0.9,0.3-0.9,0.9v1.9h-2.7V508c0-1.8,0.7-2.5,2.4-2.5H663v1.9
		l-8.5,10c3.6,0.2,8.9,2.3,8.9,8.5c0,4.9-4.1,9-9.6,9c-5.7,0-9.3-4-9.3-4L646.3,528.7z"/>
	<path class="st3" d="M671.8,519.9c0-8.3,2.4-14.9,10-14.9c7.5,0,10,6.6,10,14.9c0,8.4-2.5,15-10,15
		C674.2,534.9,671.8,528.3,671.8,519.9z M688.8,519.9c0-6.9-1.6-12.3-7-12.3c-5.5,0-7,5.4-7,12.3c0,6.9,1.6,12.3,7,12.3
		C687.2,532.2,688.8,526.8,688.8,519.9z"/>
	<path class="st3" d="M700.8,510.7c0-3.1,2.6-5.7,5.8-5.7c3.2,0,5.8,2.6,5.8,5.7c0,3.2-2.6,5.7-5.8,5.7
		C703.4,516.4,700.8,513.9,700.8,510.7z M723.1,505.5h2.9l-22,28.9h-3L723.1,505.5z M710,510.7c0-1.9-1.5-3.4-3.4-3.4
		c-1.9,0-3.3,1.6-3.3,3.4c0,1.9,1.4,3.4,3.3,3.4C708.5,514.1,710,512.6,710,510.7z M720.5,523.4c3.2,0,5.8,2.6,5.8,5.8
		c0,3.1-2.6,5.7-5.8,5.7c-3.2,0-5.8-2.6-5.8-5.7C714.7,526,717.3,523.4,720.5,523.4z M720.5,532.6c1.9,0,3.4-1.5,3.4-3.4
		c0-1.9-1.5-3.4-3.4-3.4s-3.3,1.6-3.3,3.4C717.2,531.1,718.6,532.6,720.5,532.6z"/>
	<path class="st4" d="M641.7,543.6h-2.9c-0.2,0-0.4,0.1-0.4,0.4v0.8h-1.1v-1.2c0-0.7,0.2-0.9,0.9-0.9h7.8c0.7,0,0.9,0.2,0.9,0.9v1.2
		h-1.1V544c0-0.3-0.1-0.4-0.4-0.4h-2.9v10.6h-1.2V543.6z"/>
	<path class="st4" d="M652.6,545.7c2.3,0,3.5,1.8,3.5,3.8c0,0.2,0,0.6,0,0.6h-6.4c0,2.1,1.5,3.3,3.2,3.3c1.5,0,2.5-1,2.5-1l0.5,0.8
		c0,0-1.2,1.2-3.1,1.2c-2.5,0-4.3-1.8-4.3-4.3C648.5,547.3,650.3,545.7,652.6,545.7z M654.9,549.2c-0.1-1.7-1.1-2.6-2.3-2.6
		c-1.4,0-2.6,0.9-2.9,2.6H654.9z"/>
	<path class="st4" d="M663.5,545.7c0.9,0,2.9,0.4,2.9,1.8v0.7h-1.1v-0.5c0-0.7-1.2-1-1.9-1c-1.8,0-3.2,1.3-3.2,3.3
		c0,2,1.5,3.3,3.2,3.3c1.7,0,2.7-1.2,2.7-1.2l0.5,0.8c0,0-1.1,1.4-3.2,1.4c-2.5,0-4.3-1.8-4.3-4.3
		C659.2,547.5,661,545.7,663.5,545.7z"/>
	<path class="st4" d="M670.3,547.2c0-0.2-0.1-0.4-0.4-0.4h-0.7v-1h1.2c0.7,0,1,0.3,1,0.9v0.4c0,0.3,0,0.6,0,0.6h0
		c0.3-0.8,1.4-2.1,3.3-2.1c2.1,0,2.8,1.2,2.8,3.2v3.9c0,0.2,0.1,0.4,0.4,0.4h0.7v1h-1.2c-0.7,0-1-0.3-1-1v-4c0-1.3-0.2-2.5-1.8-2.5
		c-1.4,0-2.6,1-3,2.3c-0.1,0.3-0.1,0.7-0.1,1.1v4h-1.1V547.2z"/>
	<path class="st4" d="M685.5,545.7c2.4,0,4.4,1.8,4.4,4.3c0,2.5-2,4.4-4.4,4.4c-2.4,0-4.4-1.9-4.4-4.4
		C681.2,547.5,683.1,545.7,685.5,545.7z M685.5,553.4c1.8,0,3.2-1.4,3.2-3.4c0-1.9-1.4-3.3-3.2-3.3c-1.8,0-3.2,1.4-3.2,3.3
		C682.3,551.9,683.8,553.4,685.5,553.4z"/>
	<path class="st4" d="M693.5,543.9c0-0.2-0.1-0.4-0.4-0.4h-0.7v-1h1.2c0.7,0,1,0.3,1,1v9.2c0,0.2,0.1,0.4,0.4,0.4h0.7v1h-1.2
		c-0.7,0-1-0.3-1-1V543.9z"/>
	<path class="st4" d="M702.8,545.7c2.4,0,4.4,1.8,4.4,4.3c0,2.5-2,4.4-4.4,4.4c-2.4,0-4.4-1.9-4.4-4.4
		C698.4,547.5,700.4,545.7,702.8,545.7z M702.8,553.4c1.8,0,3.2-1.4,3.2-3.4c0-1.9-1.4-3.3-3.2-3.3c-1.8,0-3.2,1.4-3.2,3.3
		C699.6,551.9,701,553.4,702.8,553.4z"/>
	<path class="st4" d="M713.7,545.7c2.2,0,2.8,1.4,2.8,1.4h0c0,0,0-0.1,0-0.3c0-0.6,0.3-0.9,0.9-0.9h1.2v1h-0.7
		c-0.2,0-0.4,0.1-0.4,0.4v6.8c0,2.6-1.9,3.7-4,3.7c-0.9,0-1.9-0.2-2.7-0.7l0.4-0.9c0,0,1,0.6,2.2,0.6c1.6,0,2.9-0.8,2.9-2.6v-0.7
		c0-0.3,0-0.6,0-0.6h0c-0.5,0.9-1.3,1.4-2.6,1.4c-2.2,0-3.7-1.8-3.7-4.3C710.2,547.4,711.5,545.7,713.7,545.7z M716.5,549.9
		c0-2.4-1.2-3.2-2.6-3.2c-1.6,0-2.6,1.2-2.6,3.1c0,2,1.1,3.3,2.7,3.3C715.3,553.1,716.5,552.3,716.5,549.9z"/>
	<path class="st4" d="M722.2,547.2c0-0.2-0.1-0.4-0.4-0.4h-0.7v-1h1.2c0.7,0,1,0.3,1,1v5.9c0,0.2,0.1,0.4,0.4,0.4h0.7v1h-1.2
		c-0.7,0-1-0.3-1-1V547.2z M722.1,542.6h1.1v1.4h-1.1V542.6z"/>
	<path class="st4" d="M732.2,549.1h0.5V549c0-1.7-0.6-2.3-2.1-2.3c-0.4,0-1.6,0.1-1.6,0.7v0.5h-1.1v-0.8c0-1.2,2-1.4,2.7-1.4
		c2.6,0,3.2,1.4,3.2,3.2v4c0,0.2,0.1,0.4,0.4,0.4h0.7v1h-1.1c-0.7,0-1-0.3-1-1c0-0.4,0-0.6,0-0.6h0c0,0-0.7,1.8-2.8,1.8
		c-1.4,0-2.8-0.8-2.8-2.5C727.1,549.2,730.7,549.1,732.2,549.1z M730.1,553.4c1.6,0,2.5-1.6,2.5-3.1V550h-0.5c-1.3,0-3.9,0-3.9,1.9
		C728.2,552.6,728.8,553.4,730.1,553.4z"/>
	<path class="st4" d="M658.1,568.8h0.5v-0.1c0-1.7-0.6-2.3-2.1-2.3c-0.4,0-1.6,0.1-1.6,0.7v0.5h-1.1v-0.8c0-1.2,2-1.4,2.7-1.4
		c2.6,0,3.2,1.4,3.2,3.2v4c0,0.2,0.1,0.4,0.4,0.4h0.7v1h-1.1c-0.7,0-1-0.3-1-1c0-0.4,0-0.6,0-0.6h0c0,0-0.7,1.8-2.8,1.8
		c-1.4,0-2.8-0.8-2.8-2.5C653,568.9,656.6,568.8,658.1,568.8z M656,573.2c1.6,0,2.5-1.6,2.5-3.1v-0.4h-0.5c-1.3,0-3.9,0-3.9,1.9
		C654.2,572.4,654.8,573.2,656,573.2z"/>
	<path class="st4" d="M664.2,566.6h-1.1v-0.9h1.1v-2.3h1.1v2.3h2.1v0.9h-2.1v4.2c0,1.9,1.2,2.2,1.9,2.2c0.2,0,0.4,0,0.4,0v1
		c0,0-0.2,0-0.5,0c-1,0-2.9-0.3-2.9-3.1V566.6z"/>
	<path class="st4" d="M671.4,566.6h-1.1v-0.9h1.1v-2.3h1.1v2.3h2.1v0.9h-2.1v4.2c0,1.9,1.2,2.2,1.9,2.2c0.2,0,0.4,0,0.4,0v1
		c0,0-0.2,0-0.5,0c-1,0-2.9-0.3-2.9-3.1V566.6z"/>
	<path class="st4" d="M678.4,567c0-0.2-0.1-0.4-0.4-0.4h-0.7v-1h1.2c0.7,0,1,0.3,1,1v4c0,1.3,0.2,2.5,1.8,2.5c1.9,0,3-1.7,3-3.5v-4
		h1.1v7c0,0.2,0.1,0.4,0.4,0.4h0.7v1h-1.1c-0.7,0-1-0.3-1-0.9v-0.4c0-0.3,0-0.6,0-0.6h0c-0.3,0.8-1.4,2.1-3.2,2.1
		c-2,0-2.8-1.1-2.8-3.2V567z"/>
	<path class="st4" d="M694.3,568.8h0.5v-0.1c0-1.7-0.6-2.3-2.1-2.3c-0.4,0-1.6,0.1-1.6,0.7v0.5H690v-0.8c0-1.2,2-1.4,2.7-1.4
		c2.6,0,3.2,1.4,3.2,3.2v4c0,0.2,0.1,0.4,0.4,0.4h0.7v1h-1.1c-0.7,0-1-0.3-1-1c0-0.4,0-0.6,0-0.6h0c0,0-0.7,1.8-2.8,1.8
		c-1.4,0-2.8-0.8-2.8-2.5C689.3,568.9,692.9,568.8,694.3,568.8z M692.3,573.2c1.6,0,2.5-1.6,2.5-3.1v-0.4h-0.5c-1.3,0-3.9,0-3.9,1.9
		C690.4,572.4,691,573.2,692.3,573.2z"/>
	<path class="st4" d="M700.4,563.7c0-0.2-0.1-0.4-0.4-0.4h-0.7v-1h1.2c0.7,0,1,0.3,1,1v9.2c0,0.2,0.1,0.4,0.4,0.4h0.7v1h-1.2
		c-0.7,0-1-0.3-1-1V563.7z"/>
	<path class="st4" d="M709.4,565.5c2.3,0,3.5,1.8,3.5,3.8c0,0.2,0,0.6,0,0.6h-6.4c0,2.1,1.5,3.3,3.2,3.3c1.5,0,2.5-1,2.5-1l0.5,0.8
		c0,0-1.2,1.2-3.1,1.2c-2.5,0-4.3-1.8-4.3-4.3C705.3,567.1,707.2,565.5,709.4,565.5z M711.7,568.9c-0.1-1.7-1.1-2.6-2.3-2.6
		c-1.4,0-2.6,0.9-2.9,2.6H711.7z"/>
	<path class="st4" d="M717,565.6h1.3v1.3H717V565.6z M717,572.6h1.3v1.3H717V572.6z"/>
	<path class="st4" d="M624.7,583.1h-1.1v-1h4.9c2.1,0,3.6,1.4,3.6,3.5c0,2.2-1.5,3.5-3.6,3.5h-2.7v4.5h-1.2V583.1z M628.4,588.1
		c1.5,0,2.5-0.9,2.5-2.5c0-1.6-1-2.5-2.5-2.5h-2.5v5H628.4z"/>
	<path class="st4" d="M635.9,583.1h-1.1v-1h6.6c0.7,0,1,0.3,1,1v1.2h-1.1v-0.8c0-0.2-0.1-0.4-0.4-0.4h-4v4.2h4.3v1H637v3.9
		c0,0.2,0.1,0.4,0.4,0.4h4.1c0.2,0,0.4-0.1,0.4-0.4v-0.8h1.1v1.2c0,0.7-0.3,1-1,1h-5c-0.7,0-1-0.3-1-1V583.1z"/>
	<path class="st4" d="M649.4,583.1h-2.9c-0.2,0-0.4,0.1-0.4,0.4v0.8h-1.1v-1.2c0-0.7,0.2-0.9,0.9-0.9h7.8c0.7,0,0.9,0.2,0.9,0.9v1.2
		h-1.1v-0.8c0-0.3-0.1-0.4-0.4-0.4h-2.9v10.6h-1.2V583.1z"/>
	<path class="st4" d="M663.9,586.8c0-0.2-0.1-0.4-0.4-0.4h-0.7v-1h1.2c0.7,0,1,0.3,1,0.9v0.6c0,0.3,0,0.6,0,0.6h0
		c0.4-1.3,1.3-2.2,2.6-2.2c0.2,0,0.4,0,0.4,0v1.1c0,0-0.2,0-0.4,0c-1.2,0-2,0.9-2.4,2.1c-0.2,0.5-0.2,1.1-0.2,1.6v3.5h-1.1V586.8z"
		/>
	<path class="st4" d="M674.5,585.2c2.3,0,3.5,1.8,3.5,3.8c0,0.2,0,0.6,0,0.6h-6.4c0,2.1,1.5,3.3,3.2,3.3c1.5,0,2.5-1,2.5-1l0.5,0.8
		c0,0-1.2,1.2-3.1,1.2c-2.5,0-4.3-1.8-4.3-4.3C670.4,586.9,672.3,585.2,674.5,585.2z M676.8,588.7c-0.1-1.7-1.1-2.6-2.3-2.6
		c-1.4,0-2.6,0.9-2.9,2.6H676.8z"/>
	<path class="st4" d="M686.2,588.6h0.5v-0.1c0-1.7-0.6-2.3-2.1-2.3c-0.4,0-1.6,0.1-1.6,0.7v0.5h-1.1v-0.8c0-1.2,2-1.4,2.7-1.4
		c2.6,0,3.2,1.4,3.2,3.2v4c0,0.2,0.1,0.4,0.4,0.4h0.7v1h-1.1c-0.7,0-1-0.3-1-1c0-0.4,0-0.6,0-0.6h0c0,0-0.7,1.8-2.8,1.8
		c-1.4,0-2.8-0.8-2.8-2.5C681.1,588.7,684.7,588.6,686.2,588.6z M684.1,592.9c1.6,0,2.5-1.6,2.5-3.1v-0.4h-0.5c-1.3,0-3.9,0-3.9,1.9
		C682.2,592.2,682.9,592.9,684.1,592.9z"/>
	<path class="st4" d="M692.2,583.5c0-0.2-0.1-0.4-0.4-0.4h-0.7v-1h1.2c0.7,0,1,0.3,1,1v9.2c0,0.2,0.1,0.4,0.4,0.4h0.7v1h-1.2
		c-0.7,0-1-0.3-1-1V583.5z"/>
	<path class="st4" d="M698,586.8c0-0.2-0.1-0.4-0.4-0.4h-0.7v-1h1.2c0.7,0,1,0.3,1,1v5.9c0,0.2,0.1,0.4,0.4,0.4h0.7v1H699
		c-0.7,0-1-0.3-1-1V586.8z M698,582.1h1.1v1.4H698V582.1z"/>
	<path class="st4" d="M702.9,593l4.7-5.8c0.3-0.4,0.7-0.8,0.7-0.8v0c0,0-0.3,0-0.8,0h-3c-0.2,0-0.4,0.1-0.4,0.4v0.6H703v-1
		c0-0.7,0.3-1,1-1h5.8v0.7l-4.6,5.8c-0.3,0.4-0.7,0.8-0.7,0.8v0c0,0,0.3,0,0.8,0h3.4c0.2,0,0.4-0.1,0.4-0.4v-0.6h1.1v1
		c0,0.7-0.3,1-1,1h-6.1V593z"/>
	<path class="st4" d="M712.8,593l4.7-5.8c0.3-0.4,0.7-0.8,0.7-0.8v0c0,0-0.3,0-0.8,0h-3c-0.2,0-0.4,0.1-0.4,0.4v0.6h-1.1v-1
		c0-0.7,0.3-1,1-1h5.8v0.7l-4.6,5.8c-0.3,0.4-0.7,0.8-0.7,0.8v0c0,0,0.3,0,0.8,0h3.4c0.2,0,0.4-0.1,0.4-0.4v-0.6h1.1v1
		c0,0.7-0.3,1-1,1h-6.1V593z"/>
	<path class="st4" d="M727.7,588.6h0.5v-0.1c0-1.7-0.6-2.3-2.1-2.3c-0.4,0-1.6,0.1-1.6,0.7v0.5h-1.1v-0.8c0-1.2,2-1.4,2.7-1.4
		c2.6,0,3.2,1.4,3.2,3.2v4c0,0.2,0.1,0.4,0.4,0.4h0.7v1h-1.1c-0.7,0-1-0.3-1-1c0-0.4,0-0.6,0-0.6h0c0,0-0.7,1.8-2.8,1.8
		c-1.4,0-2.8-0.8-2.8-2.5C722.7,588.7,726.3,588.6,727.7,588.6z M725.7,592.9c1.6,0,2.5-1.6,2.5-3.1v-0.4h-0.5c-1.3,0-3.9,0-3.9,1.9
		C723.8,592.2,724.4,592.9,725.7,592.9z"/>
	<path class="st4" d="M733.9,586.4h-1.1v-0.9h1.1v-2.3h1.1v2.3h2.1v0.9H735v4.2c0,1.9,1.2,2.2,1.9,2.2c0.2,0,0.4,0,0.4,0v1
		c0,0-0.2,0-0.5,0c-1,0-2.9-0.3-2.9-3.1V586.4z"/>
	<path class="st4" d="M744.4,585.2c2.4,0,4.4,1.8,4.4,4.3c0,2.5-2,4.4-4.4,4.4c-2.4,0-4.4-1.9-4.4-4.4
		C740,587.1,742,585.2,744.4,585.2z M744.4,592.9c1.8,0,3.2-1.4,3.2-3.4c0-1.9-1.4-3.3-3.2-3.3c-1.8,0-3.2,1.4-3.2,3.3
		C741.2,591.4,742.6,592.9,744.4,592.9z"/>
	<path class="st4" d="M600.1,605c0.9,0,2.9,0.4,2.9,1.8v0.7H602V607c0-0.7-1.2-1-1.9-1c-1.8,0-3.2,1.3-3.2,3.3c0,2,1.5,3.3,3.2,3.3
		c1.7,0,2.7-1.2,2.7-1.2l0.5,0.8c0,0-1.1,1.4-3.2,1.4c-2.5,0-4.3-1.8-4.3-4.3C595.8,606.8,597.7,605,600.1,605z"/>
	<path class="st4" d="M610.5,605c2.4,0,4.4,1.8,4.4,4.3c0,2.5-2,4.4-4.4,4.4c-2.4,0-4.4-1.9-4.4-4.4
		C606.1,606.8,608.1,605,610.5,605z M610.5,612.7c1.8,0,3.2-1.4,3.2-3.4c0-1.9-1.4-3.3-3.2-3.3c-1.8,0-3.2,1.4-3.2,3.3
		C607.3,611.2,608.7,612.7,610.5,612.7z"/>
	<path class="st4" d="M618.6,606.5c0-0.2-0.1-0.4-0.4-0.4h-0.7v-1h1.2c0.7,0,1,0.3,1,0.9v0.4c0,0.3,0,0.6,0,0.6h0
		c0.3-0.8,1.4-2.1,3.3-2.1c2.1,0,2.8,1.2,2.8,3.2v3.9c0,0.2,0.1,0.4,0.4,0.4h0.7v1h-1.2c-0.7,0-1-0.3-1-1v-4c0-1.3-0.2-2.5-1.8-2.5
		c-1.4,0-2.6,1-3,2.3c-0.1,0.3-0.1,0.7-0.1,1.1v4h-1.1V606.5z"/>
	<path class="st4" d="M636.5,606.5c0-0.2-0.1-0.4-0.4-0.4h-0.7v-1h1.2c0.7,0,1,0.3,1,1v5.9c0,0.2,0.1,0.4,0.4,0.4h0.7v1h-1.2
		c-0.7,0-1-0.3-1-1V606.5z M636.4,601.9h1.1v1.4h-1.1V601.9z"/>
	<path class="st4" d="M642.1,603.2c0-0.2-0.1-0.4-0.4-0.4h-0.7v-1h1.2c0.7,0,1,0.3,1,1v9.2c0,0.2,0.1,0.4,0.4,0.4h0.7v1h-1.2
		c-0.7,0-1-0.3-1-1V603.2z"/>
	<path class="st4" d="M653.7,611.2c0,0,1.2,1.4,3,1.4c1.4,0,2.6-1,2.6-2.5c0-1.6-1.4-2.4-2.8-2.4h-0.8l-0.3-0.7l2.9-3.4
		c0.3-0.4,0.6-0.6,0.6-0.6v0c0,0-0.3,0-0.9,0h-3c-0.2,0-0.4,0.1-0.4,0.4v0.8h-1.1v-1.2c0-0.7,0.3-1,1-1h5.9v0.8l-3.4,4
		c1.5,0.1,3.6,0.9,3.6,3.4c0,2-1.6,3.6-3.8,3.6c-2.3,0-3.7-1.6-3.7-1.6L653.7,611.2z"/>
	<path class="st4" d="M663.9,607.7c0-3.3,1-6,4-6c3,0,4,2.7,4,6c0,3.4-1,6-4,6C664.8,613.7,663.9,611,663.9,607.7z M670.7,607.7
		c0-2.8-0.6-4.9-2.8-4.9c-2.2,0-2.8,2.2-2.8,4.9c0,2.8,0.6,4.9,2.8,4.9C670,612.6,670.7,610.4,670.7,607.7z"/>
	<path class="st4" d="M675.5,604c0-1.3,1-2.3,2.3-2.3s2.3,1,2.3,2.3c0,1.3-1,2.3-2.3,2.3S675.5,605.3,675.5,604z M684.4,601.9h1.2
		l-8.8,11.6h-1.2L684.4,601.9z M679.1,604c0-0.7-0.6-1.4-1.4-1.4c-0.8,0-1.3,0.6-1.3,1.4c0,0.8,0.6,1.4,1.3,1.4
		C678.5,605.3,679.1,604.7,679.1,604z M683.3,609.1c1.3,0,2.3,1,2.3,2.3c0,1.3-1,2.3-2.3,2.3s-2.3-1-2.3-2.3
		C681,610.1,682.1,609.1,683.3,609.1z M683.3,612.7c0.8,0,1.4-0.6,1.4-1.4c0-0.7-0.6-1.4-1.4-1.4c-0.8,0-1.3,0.6-1.3,1.4
		C682,612.1,682.6,612.7,683.3,612.7z"/>
	<path class="st4" d="M698.9,605c2,0,2.7,1.5,2.7,1.5h0c0,0,0-0.3,0-0.6v-2.7c0-0.2-0.1-0.4-0.4-0.4h-0.7v-1h1.2c0.7,0,1,0.3,1,1
		v9.2c0,0.2,0.1,0.4,0.4,0.4h0.7v1h-1.2c-0.7,0-1-0.3-1-0.9c0-0.3,0-0.5,0-0.5h0c0,0-0.7,1.6-2.9,1.6c-2.2,0-3.6-1.8-3.6-4.3
		C695.2,606.7,696.7,605,698.9,605z M701.6,609.3c0-1.7-0.9-3.3-2.6-3.3c-1.5,0-2.7,1.2-2.7,3.3c0,2,1.1,3.3,2.6,3.3
		C700.3,612.7,701.6,611.7,701.6,609.3z"/>
	<path class="st4" d="M707.3,606.5c0-0.2-0.1-0.4-0.4-0.4h-0.7v-1h1.2c0.7,0,1,0.3,1,1v5.9c0,0.2,0.1,0.4,0.4,0.4h0.7v1h-1.2
		c-0.7,0-1-0.3-1-1V606.5z M707.3,601.9h1.1v1.4h-1.1V601.9z"/>
	<path class="st4" d="M719.1,606.5c0-0.2-0.1-0.4-0.4-0.4h-0.7v-1h1.2c0.7,0,1,0.3,1,0.9v0.6c0,0.3,0,0.6,0,0.6h0
		c0.4-1.3,1.3-2.2,2.6-2.2c0.2,0,0.4,0,0.4,0v1.1c0,0-0.2,0-0.4,0c-1.2,0-2,0.9-2.4,2.1c-0.2,0.5-0.2,1.1-0.2,1.6v3.5h-1.1V606.5z"
		/>
	<path class="st4" d="M726.8,606.5c0-0.2-0.1-0.4-0.4-0.4h-0.7v-1h1.2c0.7,0,1,0.3,1,1v5.9c0,0.2,0.1,0.4,0.4,0.4h0.7v1h-1.2
		c-0.7,0-1-0.3-1-1V606.5z M726.8,601.9h1.1v1.4h-1.1V601.9z"/>
	<path class="st4" d="M732.2,611.4c0,0,0.9,1.3,2.6,1.3c0.9,0,1.7-0.4,1.7-1.3c0-1.8-4.6-1.5-4.6-4.2c0-1.5,1.3-2.2,2.9-2.2
		c0.8,0,2.5,0.3,2.5,1.5v0.7h-1.1v-0.4c0-0.6-0.9-0.8-1.4-0.8c-1.2,0-1.8,0.4-1.8,1.2c0,1.9,4.6,1.4,4.6,4.2c0,1.4-1.3,2.3-2.9,2.3
		c-2.2,0-3.2-1.5-3.2-1.5L732.2,611.4z"/>
	<path class="st4" d="M745,605c2.4,0,4.4,1.8,4.4,4.3c0,2.5-2,4.4-4.4,4.4c-2.4,0-4.4-1.9-4.4-4.4C740.7,606.8,742.6,605,745,605z
		 M745,612.7c1.8,0,3.2-1.4,3.2-3.4c0-1.9-1.4-3.3-3.2-3.3c-1.8,0-3.2,1.4-3.2,3.3C741.8,611.2,743.3,612.7,745,612.7z"/>
	<path class="st4" d="M753.1,606.5c0-0.2-0.1-0.4-0.4-0.4h-0.7v-1h1.2c0.7,0,1,0.3,1,0.9v0.6c0,0.3,0,0.6,0,0.6h0
		c0.4-1.3,1.3-2.2,2.6-2.2c0.2,0,0.4,0,0.4,0v1.1c0,0-0.2,0-0.4,0c-1.2,0-2,0.9-2.4,2.1c-0.2,0.5-0.2,1.1-0.2,1.6v3.5h-1.1V606.5z"
		/>
	<path class="st4" d="M760.4,611.4c0,0,0.9,1.3,2.6,1.3c0.9,0,1.7-0.4,1.7-1.3c0-1.8-4.6-1.5-4.6-4.2c0-1.5,1.3-2.2,2.9-2.2
		c0.8,0,2.5,0.3,2.5,1.5v0.7h-1.1v-0.4c0-0.6-0.9-0.8-1.4-0.8c-1.2,0-1.8,0.4-1.8,1.2c0,1.9,4.6,1.4,4.6,4.2c0,1.4-1.3,2.3-2.9,2.3
		c-2.2,0-3.2-1.5-3.2-1.5L760.4,611.4z"/>
	<path class="st4" d="M773,605c2.3,0,3.5,1.8,3.5,3.8c0,0.2,0,0.6,0,0.6H770c0,2.1,1.5,3.3,3.2,3.3c1.5,0,2.5-1,2.5-1l0.5,0.8
		c0,0-1.2,1.2-3.1,1.2c-2.5,0-4.3-1.8-4.3-4.3C768.9,606.6,770.7,605,773,605z M775.3,608.5c-0.1-1.7-1.1-2.6-2.3-2.6
		c-1.4,0-2.6,0.9-2.9,2.6H775.3z"/>
	<path class="st4" d="M639.8,626.3c0-0.2-0.1-0.4-0.4-0.4h-0.7v-1h1.2c0.7,0,1,0.3,1,0.9v0.6c0,0.3,0,0.6,0,0.6h0
		c0.4-1.3,1.3-2.2,2.6-2.2c0.2,0,0.4,0,0.4,0v1.1c0,0-0.2,0-0.4,0c-1.2,0-2,0.9-2.4,2.1c-0.2,0.5-0.2,1.1-0.2,1.6v3.5h-1.1V626.3z"
		/>
	<path class="st4" d="M647.5,626.3c0-0.2-0.1-0.4-0.4-0.4h-0.7v-1h1.2c0.7,0,1,0.3,1,1v5.9c0,0.2,0.1,0.4,0.4,0.4h0.7v1h-1.2
		c-0.7,0-1-0.3-1-1V626.3z M647.5,621.7h1.1v1.4h-1.1V621.7z"/>
	<path class="st4" d="M653.2,626.3c0-0.2-0.1-0.4-0.4-0.4h-0.7v-1h1.2c0.7,0,1,0.3,1,0.9v0.4c0,0.3,0,0.6,0,0.6h0
		c0.3-0.8,1.4-2.1,3.3-2.1c2.1,0,2.8,1.2,2.8,3.2v3.9c0,0.2,0.1,0.4,0.4,0.4h0.7v1h-1.2c-0.7,0-1-0.3-1-1v-4c0-1.3-0.2-2.5-1.8-2.5
		c-1.4,0-2.6,1-3,2.3c-0.1,0.3-0.1,0.7-0.1,1.1v4h-1.1V626.3z"/>
	<path class="st4" d="M664.9,626.3c0-0.2-0.1-0.4-0.4-0.4h-0.7v-1h1.2c0.7,0,1,0.3,1,0.9v0.4c0,0.3,0,0.6,0,0.6h0
		c0.3-0.8,1.4-2.1,3.3-2.1c2.1,0,2.8,1.2,2.8,3.2v3.9c0,0.2,0.1,0.4,0.4,0.4h0.7v1h-1.2c-0.7,0-1-0.3-1-1v-4c0-1.3-0.2-2.5-1.8-2.5
		c-1.4,0-2.6,1-3,2.3c-0.1,0.3-0.1,0.7-0.1,1.1v4h-1.1V626.3z"/>
	<path class="st4" d="M680.1,624.8c2.4,0,4.4,1.8,4.4,4.3c0,2.5-2,4.4-4.4,4.4c-2.4,0-4.4-1.9-4.4-4.4
		C675.7,626.6,677.7,624.8,680.1,624.8z M680.1,632.4c1.8,0,3.2-1.4,3.2-3.4c0-1.9-1.4-3.3-3.2-3.3c-1.8,0-3.2,1.4-3.2,3.3
		C676.9,631,678.4,632.4,680.1,632.4z"/>
	<path class="st4" d="M687.6,626.3c-0.1-0.3-0.3-0.4-0.6-0.4h-0.1v-1h0.4c0.8,0,1,0.2,1.3,0.9l2,5.2c0.1,0.4,0.3,1,0.3,1h0
		c0,0,0.1-0.6,0.3-1l2-5.2c0.3-0.7,0.5-0.9,1.3-0.9h0.4v1h-0.1c-0.3,0-0.5,0.1-0.6,0.4l-2.7,6.9h-1.2L687.6,626.3z"/>
	<path class="st4" d="M702.5,628.1h0.5V628c0-1.7-0.6-2.3-2.1-2.3c-0.4,0-1.6,0.1-1.6,0.7v0.5h-1.1v-0.8c0-1.2,2-1.4,2.7-1.4
		c2.6,0,3.2,1.4,3.2,3.2v4c0,0.2,0.1,0.4,0.4,0.4h0.7v1H704c-0.7,0-1-0.3-1-1c0-0.4,0-0.6,0-0.6h0c0,0-0.7,1.8-2.8,1.8
		c-1.4,0-2.8-0.8-2.8-2.5C697.4,628.2,701,628.1,702.5,628.1z M700.4,632.5c1.6,0,2.5-1.6,2.5-3.1V629h-0.5c-1.3,0-3.9,0-3.9,1.9
		C698.5,631.7,699.2,632.5,700.4,632.5z"/>
	<path class="st4" d="M708.5,623c0-0.2-0.1-0.4-0.4-0.4h-0.7v-1h1.2c0.7,0,1,0.3,1,1v3c0,0.4,0,0.7,0,0.7h0c0,0,0.7-1.6,2.8-1.6
		c2.2,0,3.6,1.8,3.6,4.3c0,2.6-1.6,4.3-3.7,4.3c-2,0-2.7-1.6-2.7-1.6h0c0,0,0,0.3,0,0.7v0.7h-1.1V623z M712.2,632.4
		c1.5,0,2.7-1.2,2.7-3.3c0-2-1.1-3.3-2.6-3.3c-1.4,0-2.7,1-2.7,3.3C709.6,630.8,710.4,632.4,712.2,632.4z"/>
	<path class="st4" d="M719.9,626.3c0-0.2-0.1-0.4-0.4-0.4h-0.7v-1h1.2c0.7,0,1,0.3,1,1v5.9c0,0.2,0.1,0.4,0.4,0.4h0.7v1h-1.2
		c-0.7,0-1-0.3-1-1V626.3z M719.8,621.7h1.1v1.4h-1.1V621.7z"/>
	<path class="st4" d="M725.6,623c0-0.2-0.1-0.4-0.4-0.4h-0.7v-1h1.2c0.7,0,1,0.3,1,1v9.2c0,0.2,0.1,0.4,0.4,0.4h0.7v1h-1.2
		c-0.7,0-1-0.3-1-1V623z"/>
	<path class="st4" d="M731.3,626.3c0-0.2-0.1-0.4-0.4-0.4h-0.7v-1h1.2c0.7,0,1,0.3,1,1v5.9c0,0.2,0.1,0.4,0.4,0.4h0.7v1h-1.2
		c-0.7,0-1-0.3-1-1V626.3z M731.3,621.7h1.1v1.4h-1.1V621.7z"/>
</g>
<g>
	<path class="st3" d="M121.9,133.9c0-3-2.2-5.3-5.8-5.3c-2.8,0-5,1.5-5,3.1v1.3h-2.7v-2.1c0-3.6,4.9-5,7.8-5c5.4,0,8.6,3.6,8.6,8
		c0,10-15,9.7-15,17.6c0,0.6,0.3,0.8,0.9,0.8h11.9c0.6,0,0.9-0.3,0.9-0.9v-1.9h2.6v2.8c0,1.7-0.7,2.5-2.5,2.5h-14.2
		c-1.9,0-2.5-0.8-2.5-2.8C106.8,141.4,121.9,142.3,121.9,133.9z"/>
	<path class="st3" d="M134.2,140.5c0-8.2,2.4-14.7,9.8-14.7s9.8,6.5,9.8,14.7c0,8.2-2.4,14.7-9.8,14.7S134.2,148.8,134.2,140.5z
		 M150.8,140.5c0-6.7-1.5-12-6.9-12s-6.9,5.3-6.9,12c0,6.8,1.5,12.1,6.9,12.1S150.8,147.3,150.8,140.5z"/>
	<path class="st3" d="M176.4,133.9c0-3-2.2-5.3-5.8-5.3c-2.8,0-5,1.5-5,3.1v1.3h-2.7v-2.1c0-3.6,4.9-5,7.8-5c5.4,0,8.6,3.6,8.6,8
		c0,10-15,9.7-15,17.6c0,0.6,0.3,0.8,0.9,0.8h11.9c0.6,0,0.9-0.3,0.9-0.9v-1.9h2.6v2.8c0,1.7-0.7,2.5-2.5,2.5h-14.2
		c-1.9,0-2.5-0.8-2.5-2.8C161.4,141.4,176.4,142.3,176.4,133.9z"/>
	<path class="st3" d="M203.2,133.9c0-3-2.2-5.3-5.8-5.3c-2.8,0-5,1.5-5,3.1v1.3h-2.7v-2.1c0-3.6,4.9-5,7.8-5c5.4,0,8.6,3.6,8.6,8
		c0,10-15,9.7-15,17.6c0,0.6,0.3,0.8,0.9,0.8h11.9c0.6,0,0.9-0.3,0.9-0.9v-1.9h2.6v2.8c0,1.7-0.7,2.5-2.5,2.5h-14.2
		c-1.9,0-2.5-0.8-2.5-2.8C188.2,141.4,203.2,142.3,203.2,133.9z"/>
</g>
<g>
	<path class="st3" d="M121.4,348.4c0-3-2.2-5.3-5.8-5.3c-2.8,0-5,1.5-5,3.1v1.3h-2.7v-2.1c0-3.6,4.9-5,7.8-5c5.4,0,8.6,3.6,8.6,8
		c0,10-15,9.7-15,17.6c0,0.6,0.3,0.8,0.9,0.8h11.9c0.6,0,0.9-0.3,0.9-0.9V364h2.6v2.8c0,1.7-0.7,2.5-2.5,2.5H109
		c-1.9,0-2.5-0.8-2.5-2.8C106.4,356,121.4,356.8,121.4,348.4z"/>
	<path class="st3" d="M133.7,355.1c0-8.2,2.4-14.7,9.8-14.7s9.8,6.5,9.8,14.7c0,8.2-2.4,14.7-9.8,14.7S133.7,363.3,133.7,355.1z
		 M150.4,355.1c0-6.7-1.5-12-6.9-12s-6.9,5.3-6.9,12c0,6.8,1.5,12.1,6.9,12.1S150.4,361.9,150.4,355.1z"/>
	<path class="st3" d="M176,348.4c0-3-2.2-5.3-5.8-5.3c-2.8,0-5,1.5-5,3.1v1.3h-2.7v-2.1c0-3.6,4.9-5,7.8-5c5.4,0,8.6,3.6,8.6,8
		c0,10-15,9.7-15,17.6c0,0.6,0.3,0.8,0.9,0.8h11.9c0.6,0,0.9-0.3,0.9-0.9V364h2.6v2.8c0,1.7-0.7,2.5-2.5,2.5h-14.2
		c-1.9,0-2.5-0.8-2.5-2.8C161,356,176,356.8,176,348.4z"/>
	<path class="st3" d="M188.3,355.1c0-8.2,2.4-14.7,9.8-14.7s9.8,6.5,9.8,14.7c0,8.2-2.4,14.7-9.8,14.7S188.3,363.3,188.3,355.1z
		 M204.9,355.1c0-6.7-1.5-12-6.9-12s-6.9,5.3-6.9,12c0,6.8,1.5,12.1,6.9,12.1S204.9,361.9,204.9,355.1z"/>
</g>
<g>
	<path class="st3" d="M124.2,562.5c0-3-2.2-5.3-5.8-5.3c-2.8,0-5,1.5-5,3.1v1.3h-2.7v-2.1c0-3.6,4.9-5,7.8-5c5.4,0,8.6,3.6,8.6,8
		c0,10-15,9.7-15,17.6c0,0.6,0.3,0.8,0.9,0.8h11.9c0.6,0,0.9-0.3,0.9-0.9v-1.9h2.6v2.8c0,1.7-0.7,2.5-2.5,2.5h-14.2
		c-1.9,0-2.5-0.8-2.5-2.8C109.2,570.1,124.2,570.9,124.2,562.5z"/>
	<path class="st3" d="M136.5,569.2c0-8.2,2.4-14.7,9.8-14.7s9.8,6.5,9.8,14.7c0,8.2-2.4,14.7-9.8,14.7S136.5,577.4,136.5,569.2z
		 M153.2,569.2c0-6.7-1.5-12-6.9-12s-6.9,5.3-6.9,12c0,6.8,1.5,12.1,6.9,12.1S153.2,576,153.2,569.2z"/>
	<path class="st3" d="M164.4,580.9h6.3V560c0-0.8,0-1.6,0-1.6h-0.1c0,0-0.3,0.6-1.4,1.7l-3,3l-1.8-1.8l6.4-6.4h2.7v25.9h6.2v2.5
		h-15.4V580.9z"/>
	<path class="st3" d="M200.3,560.1c0.8-1.5,1.6-2.6,1.6-2.6v-0.1c0,0-0.7,0.1-2.1,0.1h-10.2c-0.6,0-0.9,0.3-0.9,0.9v1.9h-2.7v-2.8
		c0-1.7,0.7-2.5,2.4-2.5h16.8v1.9L191,583.4h-3.2L200.3,560.1z"/>
</g>
</svg>
