<?xml version="1.0" encoding="utf-8"?>
<!-- Generator: Adobe Illustrator 23.0.0, SVG Export Plug-In . SVG Version: 6.00 Build 0)  -->
<svg version="1.1" id="Livello_1" xmlns="http://www.w3.org/2000/svg" xmlns:xlink="http://www.w3.org/1999/xlink" x="0px" y="0px"
	 viewBox="0 0 459.7 325.3" style="enable-background:new 0 0 459.7 325.3;" xml:space="preserve">
<style type="text/css">
	.st0{fill-rule:evenodd;clip-rule:evenodd;fill:#4E5594;}
	.st1{fill:#D8B200;}
	.st2{fill-rule:evenodd;clip-rule:evenodd;fill:#D8B200;}
	.st3{fill:#4E5594;}
	.st4{fill:#FFFFFF;}
</style>
<path class="st0" d="M321.8,58.3c54.7,0,99.1,44.4,99.1,99.1s-44.4,99.1-99.1,99.1c-54.7,0-99.1-44.4-99.1-99.1S267,58.3,321.8,58.3
	z"/>
<g>
	<g>
		<path class="st1" d="M338.5,164.1l4.9,8.2l-3.8,7.1h-9v1.7l-5.3-4.4l5.3-4.6v1.7h8.2V171h-5.3v-5.1l-12.6,11l12.6,10.5v-5h7.9
			l5.3-10.1l-5.7-9.6L338.5,164.1z M305.3,174.2l4.5-7.8l-1.5-0.9l6.4-2.4l1.4,6.9l-1.4-0.8l-4.1,7.1l2.5,1.4l2.7-4.6l4.4,2.6
			l-3.2-16.4l-15.3,5.6l4.3,2.5l-3.9,6.8l5.6,9.8h12.7v-2.9h-11L305.3,174.2z M336.6,165.1l2.8-16.1l-4.4,2.5l-3.8-5.9h-11.8
			l-5.2,9.2l2.5,1.4l4.4-7.7h8.5l4.4,6.9l1.5-0.8l-1.2,6.7l-6.6-2.3l1.4-0.8l-4.1-7.1l-2.5,1.4l2.7,4.6l-4.4,2.6L336.6,165.1z
			 M353.9,181.4l0-0.6c-0.5-6.6-0.4-11.8-0.2-16.8c0.1-6.1,0.3-11.8-0.7-19.1c-0.5-3.3-0.2-9,0.8-16.6c0.7-5.2-0.2-9.9-0.8-12.2
			c-0.4-1.5-1.7-2.5-3.2-2.5h-8.8c-1,0-1.9,0.4-2.6,1.2c-0.6,0.7-0.9,1.7-0.8,2.7c0.4,2.2,0.8,6.9,0.1,13c-0.3,2.1-0.2,3.1-0.2,4.6
			c0,0.6,0,1.3,0.1,2.2h-27.6c0-0.9,0-1.6,0.1-2.2c0-1.5,0.1-2.5-0.2-4.6c-0.7-5.8-0.3-10.2,0.1-13c0.2-1-0.1-1.9-0.8-2.7
			c-0.6-0.7-1.6-1.2-2.6-1.2h-8.8c-1.5,0-2.9,1-3.2,2.5c-0.6,2.3-1.5,7-0.8,12.2c1,7.5,1.2,13.3,0.8,16.6c-1,7.3-0.9,13.1-0.7,19.1
			c0.1,5,0.2,10.2-0.2,16.8l0,0.6c-0.4,4.8-0.6,8.7,1.5,11c1.1,1.2,2.8,1.8,5,1.8h47.4c2.2,0,3.9-0.6,5-1.8
			C354.5,190,354.3,186.2,353.9,181.4z M350.3,190.4c-0.6,0.6-1.5,0.9-2.9,0.9h-47.4c-1.4,0-2.4-0.3-2.9-0.9c-1.3-1.4-1-4.8-0.8-8.8
			l0-0.6c0.5-6.8,0.4-12,0.2-17.1c-0.1-6-0.3-11.6,0.7-18.7c0.5-3.6,0.2-9.4-0.8-17.3c-0.6-4.7,0.2-9,0.8-11.2
			c0.1-0.2,0.2-0.4,0.5-0.4h8.8c0.2,0,0.3,0.1,0.4,0.2c0.1,0.1,0.1,0.2,0.1,0.4c-0.5,2.9-0.9,7.7-0.1,13.8c0.2,1.9,0.2,2.7,0.2,4.2
			c0,0.9-0.1,2.1-0.1,3.8l0,1.4h33.4l0-1.4c0-1.7,0-2.9-0.1-3.8c0-1.5-0.1-2.3,0.2-4.2c0.7-6.1,0.4-10.8-0.1-13.8
			c0-0.2,0-0.3,0.1-0.4c0.1-0.1,0.2-0.2,0.4-0.2h8.8c0.2,0,0.4,0.1,0.5,0.4c0.5,2.1,1.4,6.4,0.8,11.2c-1,7.9-1.3,13.7-0.8,17.3
			c1,7.1,0.8,12.7,0.7,18.7c-0.1,5.1-0.2,10.3,0.2,17.1l0,0.6C351.3,185.6,351.6,189,350.3,190.4z"/>
	</g>
</g>
<path class="st2" d="M134.8,82.3c63.9,0,115.7,51.8,115.7,115.7c0,63.9-51.8,115.7-115.7,115.7c-63.9,0-115.7-51.8-115.7-115.7
	C19.1,134.1,70.9,82.3,134.8,82.3z"/>
<g>
	<path class="st3" d="M245.2,270.2l0.1-0.7l-0.9-0.2l-0.2,0.7L245.2,270.2z"/>
	<path class="st3" d="M363.8,233.5c-0.4-0.4-1.1-0.4-1.5,0l0,0c-0.4,0.4-0.4,1.1,0,1.5l0,0c0.4,0.4,1.1,0.4,1.5,0l0,0c0,0,0,0,0,0
		l0,0C364.3,234.6,364.2,233.9,363.8,233.5z M368.4,230.1c0.4-0.5,0.4-1.1-0.1-1.5l0,0c-0.4-0.4-1.1-0.3-1.5,0.1l0,0
		c-0.4,0.4-0.4,1.1,0.1,1.5l0,0C367.3,230.6,368,230.5,368.4,230.1L368.4,230.1C368.4,230.1,368.4,230.1,368.4,230.1z M359.1,238.1
		c-0.4-0.5-1.1-0.5-1.5-0.1l0,0c-0.4,0.4-0.5,1.1-0.1,1.5l0,0c0.4,0.4,1.1,0.5,1.5,0.1l0,0c0,0,0,0,0.1-0.1l0,0
		C359.4,239.2,359.5,238.6,359.1,238.1z M372.7,225c0.4-0.5,0.3-1.2-0.2-1.5l0,0c-0.5-0.4-1.2-0.3-1.5,0.2l0,0
		c-0.4,0.5-0.3,1.2,0.2,1.5l0,0C371.6,225.5,372.3,225.4,372.7,225L372.7,225C372.7,225,372.7,225,372.7,225z M354.1,242.5
		c-0.4-0.5-1.1-0.5-1.5-0.1l0,0c-0.5,0.4-0.5,1.1-0.2,1.5l0,0c0.4,0.5,1.1,0.5,1.5,0.1l0,0l0,0l0,0c0,0,0.1-0.1,0.1-0.1l0,0
		C354.4,243.6,354.4,243,354.1,242.5z M376.8,219.6L376.8,219.6L376.8,219.6c0.4-0.5,0.2-1.2-0.3-1.5l0,0c-0.5-0.4-1.2-0.2-1.5,0.3
		l0,0c-0.3,0.5-0.2,1.2,0.3,1.5l0,0c0.4,0.3,1.1,0.2,1.4-0.1l0,0C376.7,219.7,376.7,219.6,376.8,219.6z M348.9,246.7
		c-0.3-0.5-1-0.6-1.5-0.2l0,0c-0.5,0.4-0.6,1-0.2,1.5l0,0c0.4,0.5,1,0.6,1.5,0.2l0,0c0.1,0,0.1-0.1,0.1-0.1l0,0
		C349.2,247.7,349.2,247.1,348.9,246.7z M380.5,214C380.5,214,380.5,214,380.5,214L380.5,214c0.3-0.5,0.2-1.2-0.3-1.5l0,0
		c-0.5-0.3-1.2-0.2-1.5,0.4l0,0c-0.3,0.5-0.2,1.2,0.3,1.5l0,0c0.4,0.3,1,0.2,1.3-0.2l0,0C380.4,214.2,380.5,214.1,380.5,214z
		 M343.5,250.6c-0.3-0.5-1-0.6-1.5-0.3l0,0c-0.5,0.3-0.6,1-0.3,1.5l0,0c0.3,0.5,1,0.6,1.5,0.3l0,0c0.1-0.1,0.1-0.1,0.2-0.1l0,0
		C343.7,251.6,343.7,251,343.5,250.6z M384,208.3L384,208.3L384,208.3c0.3-0.5,0.1-1.2-0.4-1.5l0,0c-0.5-0.3-1.2-0.1-1.5,0.4l0,0
		c-0.3,0.5-0.1,1.2,0.4,1.5l0,0c0.4,0.2,1,0.1,1.3-0.2l0,0C383.9,208.4,384,208.4,384,208.3z M337.8,254.1c-0.3-0.5-1-0.7-1.5-0.4
		l0,0c-0.5,0.3-0.7,1-0.4,1.5l0,0c0.3,0.5,1,0.7,1.5,0.4l0,0c0.1,0,0.1-0.1,0.2-0.2l0,0C338,255.1,338.1,254.6,337.8,254.1z
		 M387.2,202.4c0.3-0.6,0.1-1.2-0.5-1.5l0,0c-0.6-0.3-1.2-0.1-1.5,0.5l0,0c-0.3,0.5,0,1.2,0.5,1.5l0,0c0.4,0.2,0.9,0.1,1.3-0.2l0,0
		C387,202.6,387.1,202.5,387.2,202.4z M332.1,257.4c-0.3-0.5-1-0.7-1.5-0.5l0,0c-0.5,0.3-0.7,1-0.5,1.5l0,0c0.3,0.5,1,0.7,1.5,0.5
		l0,0c0.1-0.1,0.2-0.1,0.3-0.2l0,0C332.2,258.4,332.3,257.9,332.1,257.4z M326.1,260.4c-0.3-0.5-0.9-0.8-1.5-0.5l0,0
		c-0.5,0.3-0.8,0.9-0.5,1.4l0,0c0.3,0.5,0.9,0.8,1.4,0.5l0,0c0.1-0.1,0.2-0.2,0.3-0.3l0,0C326.2,261.3,326.3,260.8,326.1,260.4z
		 M320,263.1c-0.2-0.6-0.8-0.8-1.4-0.6l0,0c-0.6,0.2-0.8,0.9-0.6,1.4l0,0c0.2,0.6,0.9,0.8,1.4,0.6l0,0c0.2-0.1,0.3-0.1,0.4-0.3l0,0
		C320.1,263.9,320.2,263.5,320,263.1z M313.8,265.4c-0.2-0.6-0.8-0.9-1.4-0.7l0,0c-0.6,0.2-0.9,0.8-0.7,1.4l0,0
		c0.2,0.6,0.8,0.9,1.4,0.7l0,0l0,0l0,0c0.2-0.1,0.3-0.2,0.4-0.3l0,0C313.8,266.3,313.9,265.8,313.8,265.4z M307.5,267.5
		c-0.2-0.6-0.8-0.9-1.4-0.8l0,0c-0.6,0.2-0.9,0.7-0.8,1.4l0,0c0.2,0.6,0.8,0.9,1.4,0.8l0,0l0,0l0,0c0.2-0.1,0.4-0.2,0.5-0.3l0,0
		C307.4,268.2,307.6,267.8,307.5,267.5z M301,269.1c-0.1-0.6-0.7-0.9-1.3-0.8l0,0c-0.6,0.1-1,0.7-0.8,1.3l0,0c0.1,0.6,0.7,1,1.3,0.8
		l0,0c0.2-0.1,0.4-0.2,0.5-0.3l0,0C301,269.9,301.1,269.5,301,269.1z M294.5,270.5c-0.1-0.6-0.7-1-1.3-0.9l0,0
		c-0.6,0.1-1,0.7-0.9,1.3l0,0c0.1,0.6,0.7,1,1.3,0.9l0,0l0,0l0,0c0.2,0,0.5-0.2,0.6-0.3l0,0C294.5,271.2,294.6,270.9,294.5,270.5z
		 M287.9,271.5c-0.1-0.6-0.6-1-1.2-0.9l0,0c-0.6,0.1-1,0.6-1,1.2l0,0c0.1,0.6,0.6,1,1.2,1l0,0c0.2,0,0.5-0.1,0.6-0.3l0,0
		C287.9,272.2,288,271.9,287.9,271.5z M281.3,272.2c0-0.6-0.6-1.1-1.2-1l0,0c-0.6,0-1.1,0.5-1,1.1l0,0c0,0.6,0.6,1.1,1.2,1l0,0
		c0.3,0,0.5-0.1,0.7-0.3l0,0C281.2,272.8,281.3,272.6,281.3,272.2z M274.7,272.6c0-0.6-0.5-1.1-1.1-1.1l0,0c-0.6,0-1.1,0.5-1.1,1.1
		l0,0c0,0.6,0.5,1.1,1.1,1.1l0,0c0.3,0,0.6-0.1,0.8-0.3l0,0C274.6,273.1,274.7,272.9,274.7,272.6z M268,272.5c0-0.6-0.4-1.1-1.1-1.1
		l0,0c-0.6,0-1.1,0.5-1.1,1.1l0,0c0,0.6,0.4,1.1,1.1,1.1l0,0l0,0l0,0c0.3,0,0.6-0.1,0.8-0.3l0,0C267.9,273.1,268,272.8,268,272.5z
		 M261.4,272.2c0.1-0.6-0.4-1.1-1-1.2l0,0c-0.6-0.1-1.1,0.4-1.2,1l0,0c-0.1,0.6,0.4,1.1,1,1.2l0,0c0.3,0,0.7-0.1,0.9-0.3l0,0
		C261.2,272.6,261.3,272.4,261.4,272.2z M254.8,271.5c0.1-0.6-0.3-1.1-0.9-1.2l0,0c-0.6-0.1-1.1,0.3-1.2,0.9l0,0
		c-0.1,0.6,0.3,1.2,0.9,1.2l0,0l0,0l0,0c0.4,0.1,0.7-0.1,0.9-0.3l0,0C254.6,271.9,254.7,271.7,254.8,271.5z"/>
	<path class="st3" d="M392.5,190.2C392.5,190.2,392.5,190.2,392.5,190.2L392.5,190.2c0.2-0.6-0.1-1.2-0.6-1.4l0,0
		c-0.6-0.2-1.2,0.1-1.4,0.6l0,0c-0.2,0.6,0.1,1.2,0.6,1.4l0,0c0.4,0.2,0.9,0.1,1.2-0.2l0,0C392.4,190.5,392.4,190.4,392.5,190.2z
		 M394.7,184c0.2-0.6-0.1-1.2-0.7-1.4l0,0c-0.6-0.2-1.2,0.1-1.4,0.7l0,0c-0.2,0.6,0.1,1.2,0.7,1.4l0,0c0.4,0.1,0.8,0,1.1-0.3l0,0
		C394.5,184.4,394.6,184.2,394.7,184z M396.5,177.8c0.2-0.6-0.2-1.2-0.8-1.4l0,0c-0.6-0.1-1.2,0.2-1.3,0.8l0,0
		c-0.1,0.6,0.2,1.2,0.8,1.3l0,0c0.4,0.1,0.8,0,1.1-0.3l0,0C396.4,178.1,396.5,178,396.5,177.8z M398.1,171.4
		c0.1-0.6-0.3-1.1-0.8-1.3l0,0c-0.6-0.1-1.2,0.2-1.3,0.8l0,0c-0.1,0.6,0.2,1.2,0.8,1.3l0,0c0.4,0.1,0.8,0,1-0.3l0,0
		C397.9,171.8,398,171.6,398.1,171.4z M399.3,165c0.1-0.6-0.3-1.1-0.9-1.3l0,0c-0.6-0.1-1.1,0.3-1.3,0.9l0,0
		c-0.1,0.6,0.3,1.2,0.9,1.3l0,0c0.4,0.1,0.7-0.1,1-0.3l0,0C399.1,165.4,399.2,165.2,399.3,165z M400.2,158.5L400.2,158.5
		L400.2,158.5c0.1-0.6-0.4-1.1-1-1.2l0,0c-0.6-0.1-1.1,0.4-1.2,1l0,0c-0.1,0.6,0.4,1.1,0.9,1.2l0,0c0.4,0,0.7-0.1,0.9-0.3l0,0
		C400,159,400.1,158.8,400.2,158.5z M400.7,152c0.1-0.6-0.4-1.1-1-1.1l0,0c-0.6,0-1.1,0.4-1.2,1l0,0c0,0.6,0.4,1.1,1,1.1l0,0
		c0.3,0,0.6-0.1,0.8-0.3l0,0C400.6,152.5,400.7,152.3,400.7,152z M400.9,145.5L400.9,145.5L400.9,145.5c0-0.6-0.5-1.1-1.1-1.1l0,0
		c-0.6,0-1.1,0.5-1.1,1.1l0,0c0,0.6,0.5,1.1,1.1,1.1l0,0c0.3,0,0.6-0.1,0.8-0.3l0,0C400.8,146,400.9,145.8,400.9,145.5z
		 M400.8,138.9L400.8,138.9L400.8,138.9c0-0.6-0.5-1.1-1.1-1l0,0c-0.6,0-1.1,0.5-1,1.1l0,0c0,0.6,0.5,1.1,1.1,1l0,0
		c0.3,0,0.5-0.1,0.7-0.3l0,0C400.7,139.5,400.8,139.2,400.8,138.9z M400.3,132.4c-0.1-0.6-0.6-1.1-1.2-1l0,0c-0.6,0-1,0.6-1,1.2l0,0
		c0,0.6,0.6,1,1.2,1l0,0c0.3,0,0.5-0.1,0.7-0.3l0,0C400.3,133,400.4,132.7,400.3,132.4z M399.6,125.9c-0.1-0.6-0.7-1-1.2-0.9l0,0
		c-0.6,0.1-1,0.7-0.9,1.2l0,0c0.1,0.6,0.6,1,1.2,0.9l0,0c0.2-0.1,0.5-0.2,0.6-0.3l0,0C399.5,126.6,399.6,126.2,399.6,125.9z
		 M398.5,119.5c-0.1-0.6-0.7-1-1.3-0.9l0,0c-0.6,0.1-1,0.7-0.8,1.3l0,0c0.1,0.6,0.7,1,1.3,0.9l0,0c0.2-0.1,0.4-0.2,0.6-0.3l0,0
		C398.4,120.2,398.5,119.8,398.5,119.5z M397,113.1c-0.1-0.6-0.7-1-1.3-0.8l0,0c-0.6,0.1-0.9,0.7-0.8,1.3l0,0
		c0.1,0.6,0.7,0.9,1.3,0.8l0,0c0.2-0.1,0.4-0.2,0.5-0.3l0,0C397,113.9,397.1,113.5,397,113.1z M395.3,106.8L395.3,106.8L395.3,106.8
		c-0.2-0.6-0.8-0.9-1.3-0.7l0,0c-0.6,0.2-0.9,0.8-0.7,1.4l0,0c0.2,0.6,0.8,0.9,1.4,0.7l0,0c0.2-0.1,0.3-0.2,0.5-0.3l0,0
		C395.3,107.6,395.4,107.2,395.3,106.8z M393.2,100.6c-0.2-0.6-0.8-0.9-1.4-0.7l0,0c-0.5,0.2-0.9,0.8-0.6,1.4l0,0
		c0.2,0.6,0.8,0.9,1.4,0.7l0,0c0.2,0,0.3-0.1,0.4-0.3l0,0C393.2,101.5,393.3,101,393.2,100.6z M390.8,94.5c-0.2-0.6-0.9-0.8-1.4-0.6
		l0,0c-0.6,0.2-0.8,0.9-0.6,1.4l0,0c0.2,0.5,0.9,0.8,1.4,0.6l0,0c0.1-0.1,0.2-0.1,0.3-0.2l0,0C390.9,95.4,391,95,390.8,94.5z
		 M388.1,88.6c-0.3-0.5-0.9-0.8-1.5-0.5l0,0c-0.5,0.3-0.7,0.9-0.5,1.5l0,0c0.3,0.5,0.9,0.8,1.4,0.5l0,0c0.1-0.1,0.2-0.1,0.3-0.2l0,0
		C388.3,89.5,388.3,89,388.1,88.6z M385.2,82.8c-0.3-0.5-0.9-0.7-1.5-0.4l0,0c-0.5,0.3-0.7,0.9-0.4,1.5l0,0c0.3,0.5,1,0.7,1.5,0.4
		l0,0c0.1-0.1,0.2-0.1,0.3-0.2l0,0C385.3,83.7,385.4,83.2,385.2,82.8z M381.9,77.1c-0.3-0.5-1-0.7-1.5-0.4l0,0
		c-0.5,0.3-0.7,1-0.4,1.5l0,0c0.3,0.5,1,0.7,1.5,0.4l0,0c0.1,0,0.1-0.1,0.2-0.2l0,0C382.1,78.1,382.2,77.6,381.9,77.1z M378.4,71.6
		c-0.3-0.5-1-0.6-1.5-0.3l0,0c-0.5,0.3-0.6,1-0.3,1.5l0,0c0.3,0.5,1,0.6,1.5,0.3l0,0c0.1,0,0.1-0.1,0.2-0.1l0,0
		C378.6,72.7,378.7,72.1,378.4,71.6z M374.6,66.4L374.6,66.4L374.6,66.4c-0.4-0.5-1-0.6-1.6-0.2l0,0c-0.5,0.4-0.6,1-0.2,1.5l0,0
		c0.4,0.5,1,0.6,1.5,0.2l0,0c0,0,0.1-0.1,0.1-0.1l0,0C374.8,67.4,374.9,66.8,374.6,66.4z M370.5,61.3L370.5,61.3L370.5,61.3
		c-0.4-0.4-1.1-0.5-1.5-0.1l0,0c-0.5,0.4-0.5,1.1-0.2,1.5l0,0c0.4,0.5,1.1,0.5,1.6,0.1l0,0c0,0,0.1-0.1,0.1-0.1l0,0
		C370.8,62.3,370.8,61.7,370.5,61.3z M366.1,56.4c-0.4-0.4-1.1-0.5-1.5,0l0,0c-0.4,0.4-0.5,1.1-0.1,1.6l0,0c0.4,0.4,1.1,0.4,1.5,0
		l0,0c0,0,0,0,0.1,0l0,0C366.5,57.5,366.5,56.8,366.1,56.4z M361.6,51.8c-0.4-0.4-1.1-0.4-1.5,0l0,0c-0.4,0.4-0.4,1.1,0,1.5l0,0
		c0.4,0.4,1.1,0.4,1.5,0l0,0C362,52.9,362,52.2,361.6,51.8z M356.9,48.9c0.4-0.5,0.3-1.2-0.1-1.5l0,0c0,0,0,0,0,0l0,0
		c-0.5-0.4-1.1-0.4-1.5,0.1l0,0c-0.4,0.4-0.3,1.1,0.1,1.5l0,0C355.8,49.4,356.4,49.4,356.9,48.9L356.9,48.9
		C356.8,48.9,356.8,48.9,356.9,48.9z M351.9,44.7c0.4-0.5,0.3-1.2-0.2-1.5l0,0l0,0l0,0c-0.5-0.4-1.2-0.3-1.5,0.2l0,0
		c-0.4,0.5-0.3,1.2,0.2,1.5l0,0C350.8,45.3,351.5,45.2,351.9,44.7L351.9,44.7C351.9,44.8,351.9,44.8,351.9,44.7z M346.7,40.8
		c0.4-0.5,0.3-1.2-0.2-1.5l0,0c-0.5-0.4-1.2-0.2-1.5,0.2l0,0c-0.4,0.5-0.2,1.2,0.2,1.5l0,0c0.5,0.3,1.1,0.2,1.4-0.1l0,0
		C346.7,40.9,346.7,40.9,346.7,40.8z M341.4,37.2c0.3-0.5,0.2-1.2-0.3-1.5l0,0c-0.5-0.3-1.2-0.2-1.5,0.4l0,0
		c-0.3,0.5-0.2,1.2,0.3,1.5l0,0c0.4,0.3,1,0.2,1.4-0.2l0,0C341.3,37.3,341.3,37.2,341.4,37.2z M335.9,33.8c0.3-0.5,0.1-1.2-0.4-1.5
		l0,0c-0.5-0.3-1.2-0.1-1.5,0.4l0,0c-0.3,0.5-0.1,1.2,0.4,1.5l0,0c0.5,0.3,1,0.2,1.3-0.2l0,0C335.8,34,335.8,33.9,335.9,33.8z
		 M330.2,30.7c0.3-0.5,0-1.2-0.5-1.4l0,0c-0.6-0.3-1.2-0.1-1.5,0.5l0,0c-0.3,0.6-0.1,1.2,0.5,1.5l0,0c0.4,0.2,0.9,0.1,1.3-0.2l0,0
		C330,30.9,330.1,30.8,330.2,30.7z"/>
	<path class="st3" d="M318.2,25.4c0.2-0.6-0.1-1.2-0.6-1.4l0,0l0,0l0,0c-0.5-0.2-1.2,0.1-1.4,0.6l0,0c-0.2,0.6,0.1,1.2,0.6,1.4l0,0
		c0.4,0.1,0.9,0,1.2-0.3l0,0C318,25.7,318.1,25.5,318.2,25.4z M312,23.2c0.2-0.6-0.1-1.2-0.7-1.4l0,0c-0.6-0.2-1.2,0.1-1.4,0.7l0,0
		c-0.2,0.6,0.1,1.2,0.7,1.4l0,0c0.4,0.1,0.8,0,1.1-0.3l0,0C311.8,23.5,311.9,23.3,312,23.2z M305.6,21.3c0.2-0.6-0.2-1.2-0.8-1.3
		l0,0c-0.6-0.1-1.2,0.2-1.3,0.8l0,0c-0.2,0.6,0.2,1.2,0.8,1.3l0,0c0.4,0.1,0.8,0,1-0.3l0,0C305.5,21.6,305.6,21.5,305.6,21.3z
		 M299.2,19.7c0.1-0.6-0.3-1.1-0.8-1.3l0,0c-0.6-0.1-1.2,0.2-1.3,0.8l0,0c-0.1,0.6,0.3,1.2,0.8,1.3l0,0c0.4,0.1,0.7-0.1,1-0.3l0,0
		C299,20.1,299.1,19.9,299.2,19.7z M292.6,18.5c0.1-0.6-0.3-1.2-0.9-1.3l0,0l0,0l0,0c-0.6-0.1-1.2,0.3-1.3,0.9l0,0
		c-0.1,0.6,0.3,1.2,0.9,1.3l0,0c0.4,0.1,0.7-0.1,1-0.3l0,0C292.5,18.9,292.6,18.7,292.6,18.5z M286.1,17.6c0.1-0.6-0.4-1.1-1-1.2
		l0,0c-0.6,0-1.1,0.4-1.2,1l0,0c-0.1,0.6,0.4,1.1,1,1.2l0,0c0.3,0,0.7-0.1,0.9-0.3l0,0C285.9,18.1,286,17.8,286.1,17.6z M279.5,17
		c0-0.6-0.4-1.1-1.1-1.1l0,0c-0.6,0-1.1,0.4-1.1,1l0,0c0,0.6,0.4,1.1,1,1.1l0,0c0.3,0,0.6-0.1,0.8-0.3l0,0
		C279.3,17.5,279.4,17.3,279.5,17z M272.8,16.8c0-0.6-0.5-1.1-1.1-1.1l0,0c-0.6,0-1.1,0.5-1.1,1.1l0,0c0,0.6,0.5,1.1,1.1,1.1l0,0
		c0.3,0,0.6-0.1,0.8-0.3l0,0C272.7,17.4,272.8,17.1,272.8,16.8z M266.2,17c0-0.6-0.5-1-1.1-1l0,0c-0.6,0-1.1,0.5-1,1.1l0,0
		c0,0.6,0.6,1.1,1.1,1l0,0c0.3,0,0.5-0.2,0.7-0.4l0,0C266.1,17.6,266.2,17.3,266.2,17z M259.6,17.4c-0.1-0.6-0.6-1-1.2-1l0,0
		c-0.6,0.1-1,0.6-1,1.2l0,0c0.1,0.6,0.6,1,1.2,0.9l0,0c0.2,0,0.5-0.1,0.7-0.3l0,0C259.5,18.1,259.6,17.8,259.6,17.4z M253,18.3
		c-0.1-0.6-0.7-1-1.3-0.9l0,0c-0.6,0.1-1,0.7-0.9,1.3l0,0c0.1,0.6,0.7,1,1.3,0.9l0,0c0.2,0,0.5-0.2,0.6-0.3l0,0
		C252.9,19,253,18.6,253,18.3z M246.5,19.5c-0.1-0.6-0.7-1-1.3-0.9l0,0c-0.6,0.1-1,0.7-0.8,1.3l0,0c0.1,0.6,0.7,1,1.3,0.8l0,0
		c0.2,0,0.4-0.2,0.6-0.3l0,0C246.4,20.2,246.5,19.8,246.5,19.5z M240,21c-0.1-0.6-0.7-0.9-1.3-0.8l0,0l0,0l0,0
		c-0.6,0.2-0.9,0.8-0.8,1.3l0,0c0.2,0.6,0.8,0.9,1.3,0.8l0,0c0.2-0.1,0.4-0.2,0.5-0.3l0,0C240,21.7,240.1,21.4,240,21z M233.6,22.8
		c-0.2-0.6-0.8-0.9-1.4-0.7l0,0l0,0l0,0c-0.6,0.2-0.9,0.8-0.7,1.4l0,0c0.2,0.6,0.8,0.9,1.4,0.7l0,0c0.2-0.1,0.3-0.2,0.5-0.3l0,0
		C233.6,23.6,233.7,23.2,233.6,22.8z M227.3,25c-0.2-0.5-0.8-0.8-1.4-0.6l0,0c-0.6,0.2-0.8,0.9-0.6,1.4l0,0c0.2,0.6,0.9,0.8,1.4,0.6
		l0,0c0.2-0.1,0.3-0.2,0.4-0.3l0,0C227.4,25.8,227.5,25.4,227.3,25z M221.2,27.5c-0.2-0.6-0.9-0.8-1.4-0.6l0,0
		c-0.5,0.3-0.8,0.9-0.6,1.4l0,0c0.2,0.6,0.9,0.8,1.4,0.6l0,0c0.1-0.1,0.2-0.1,0.3-0.2l0,0C221.3,28.4,221.4,27.9,221.2,27.5z
		 M215.2,30.3c-0.3-0.5-0.9-0.8-1.5-0.5l0,0l0,0l0,0c-0.5,0.3-0.8,0.9-0.5,1.5l0,0c0.3,0.5,0.9,0.7,1.5,0.5l0,0
		c0.1,0,0.2-0.1,0.3-0.2l0,0C215.3,31.2,215.4,30.7,215.2,30.3z M209.3,33.4c-0.3-0.5-1-0.7-1.5-0.4l0,0c-0.5,0.3-0.7,1-0.4,1.5l0,0
		c0.3,0.5,1,0.7,1.5,0.4l0,0c0.1,0,0.2-0.1,0.2-0.2l0,0C209.5,34.3,209.6,33.8,209.3,33.4z M203.6,36.8c-0.3-0.5-1-0.7-1.5-0.3l0,0
		c-0.5,0.3-0.6,1-0.3,1.5l0,0c0.3,0.5,1,0.7,1.5,0.3l0,0c0.1-0.1,0.1-0.1,0.2-0.2l0,0C203.8,37.8,203.9,37.2,203.6,36.8z
		 M198.1,40.5c-0.4-0.5-1-0.6-1.5-0.2l0,0c-0.5,0.3-0.6,1-0.2,1.5l0,0c0.3,0.5,1,0.6,1.5,0.2l0,0c0.1-0.1,0.1-0.1,0.1-0.1l0,0
		C198.4,41.5,198.4,40.9,198.1,40.5z M169.9,69.7c0.4-0.5,0.3-1.2-0.2-1.5l0,0c-0.5-0.4-1.2-0.2-1.5,0.2l0,0l0,0l0,0
		c-0.4,0.5-0.3,1.2,0.2,1.5l0,0C168.9,70.2,169.5,70.2,169.9,69.7L169.9,69.7C169.8,69.8,169.9,69.7,169.9,69.7z M192.8,44.4
		c-0.4-0.4-1.1-0.5-1.5-0.1l0,0c-0.5,0.4-0.6,1.1-0.2,1.5l0,0c0.4,0.4,1.1,0.5,1.6,0.2l0,0c0,0,0.1-0.1,0.1-0.1l0,0
		C193.1,45.5,193.1,44.9,192.8,44.4z M174,64.5c0.4-0.5,0.3-1.2-0.2-1.5l0,0c-0.5-0.4-1.2-0.3-1.5,0.2l0,0c-0.4,0.5-0.3,1.2,0.1,1.5
		l0,0C172.9,65,173.5,64.9,174,64.5L174,64.5C173.9,64.5,173.9,64.5,174,64.5z M187.7,48.7c-0.4-0.4-1.1-0.5-1.5-0.1l0,0
		c-0.4,0.4-0.5,1.1-0.1,1.5l0,0c0.4,0.4,1.1,0.5,1.5,0.1l0,0c0,0,0,0,0.1-0.1l0,0C188,49.8,188.1,49.1,187.7,48.7z M178.2,59.5
		c0.4-0.4,0.4-1.1-0.1-1.5l0,0c-0.4-0.4-1.1-0.4-1.5,0.1l0,0c-0.4,0.4-0.4,1.1,0.1,1.5l0,0C177.2,60,177.8,59.9,178.2,59.5
		L178.2,59.5C178.2,59.5,178.2,59.5,178.2,59.5z M182.8,53.2c-0.4-0.4-1.1-0.4-1.5,0l0,0l0,0l0,0c-0.4,0.4-0.4,1.1,0,1.6l0,0
		c0.4,0.4,1.1,0.4,1.5,0l0,0l0,0l0,0C183.2,54.3,183.2,53.6,182.8,53.2z"/>
	<path class="st3" d="M166,75.2c0.1-0.1,0.2-0.2,0.2-0.4c0.1-0.1,0.1-0.3,0.1-0.4c0-0.2,0-0.3-0.1-0.4c-0.1-0.1-0.1-0.2-0.2-0.4
		c-0.2-0.2-0.5-0.3-0.8-0.3c-0.5,0-1.1,0.5-1.1,1.1c0,0.3,0.1,0.6,0.3,0.8c0.1,0.1,0.2,0.2,0.4,0.2c0.2,0,0.3,0.1,0.4,0.1
		C165.6,75.6,165.8,75.4,166,75.2z"/>
	<path class="st3" d="M324.1,28.3c0.2-0.2,0.3-0.5,0.3-0.8c0-0.3-0.1-0.5-0.3-0.8c-0.1-0.1-0.2-0.2-0.4-0.2
		c-0.1-0.1-0.3-0.1-0.4-0.1c-0.2,0-0.3,0-0.4,0.1c-0.3,0.1-0.5,0.3-0.6,0.6c-0.1,0.1-0.1,0.3-0.1,0.4c0,0.1,0,0.3,0.1,0.4
		c0.1,0.1,0.1,0.2,0.2,0.4c0.2,0.2,0.5,0.3,0.8,0.3C323.6,28.6,323.9,28.5,324.1,28.3z"/>
	<path class="st3" d="M389.8,196.6c0.1-0.1,0.2-0.2,0.2-0.4c0.1-0.1,0.1-0.3,0.1-0.4c0-0.2,0-0.3-0.1-0.4c-0.1-0.1-0.1-0.2-0.2-0.4
		c-0.1-0.1-0.2-0.2-0.4-0.2c-0.1-0.1-0.3-0.1-0.4-0.1c-0.6,0-1.1,0.5-1.1,1.1c0,0.3,0.1,0.6,0.3,0.8c0.1,0.1,0.2,0.2,0.4,0.2
		c0.1,0,0.3,0.1,0.4,0.1c0.1,0,0.3,0,0.4-0.1C389.6,196.8,389.7,196.7,389.8,196.6z"/>
	<path class="st3" d="M247.9,271c0.1-0.1,0.2-0.2,0.2-0.4c0.1-0.1,0.1-0.3,0.1-0.4c0-0.3-0.1-0.6-0.3-0.8c-0.1-0.1-0.2-0.2-0.4-0.2
		c-0.1-0.1-0.3-0.1-0.4-0.1c-0.6,0-1.1,0.5-1.1,1.1c0,0.1,0,0.3,0.1,0.4c0.1,0.1,0.1,0.3,0.2,0.4c0.2,0.2,0.5,0.3,0.8,0.3
		c0.2,0,0.3,0,0.4-0.1C247.7,271.1,247.8,271.1,247.9,271z"/>
	<path class="st3" d="M248,271.2c0.9-2,0-4.3-2-5.1c-2-0.9-4.3,0-5.1,2c-0.9,2,0,4.3,2,5.1C244.8,274.1,247.1,273.2,248,271.2"/>
	<path class="st3" d="M163.6,77.1l-2.9-3.4l-0.5,8.3l7.6-3.4L163.6,77.1z"/>
</g>
<g>
	<path class="st3" d="M80.9,134.8h-1.4v-1.3H88c0.9,0,1.3,0.4,1.3,1.3v1.5h-1.4v-1c0-0.3-0.2-0.5-0.5-0.5h-5v5.4h5.6v1.3h-5.6v5
		c0,0.3,0.2,0.5,0.5,0.5H88c0.3,0,0.5-0.1,0.5-0.5v-1h1.4v1.5c0,0.9-0.4,1.3-1.3,1.3h-6.4c-0.9,0-1.3-0.4-1.3-1.3V134.8z"/>
	<path class="st3" d="M94.5,135.2c0-0.3-0.2-0.5-0.5-0.5h-0.9v-1.3h1.6c0.9,0,1.3,0.4,1.3,1.3v8.4c0,2.5,1.6,4,4,4c2.4,0,4-1.5,4-4
		v-8.3c0-0.9,0.4-1.3,1.3-1.3h1.6v1.3h-0.9c-0.3,0-0.5,0.1-0.5,0.5v7.9c0,3.2-2.2,5.3-5.4,5.3s-5.5-2.1-5.5-5.3V135.2z"/>
	<path class="st3" d="M119.3,139.4c0-0.3-0.2-0.5-0.5-0.5h-0.9v-1.2h1.5c0.9,0,1.3,0.4,1.3,1.1c0,0.4,0,0.7,0,0.7h0
		c0,0,0.8-2.1,3.6-2.1c2.8,0,4.6,2.3,4.6,5.6c0,3.3-2,5.5-4.7,5.5c-2.6,0-3.5-2-3.5-2h0c0,0,0,0.4,0,0.9v5h-1.4V139.4z M124,147.2
		c1.9,0,3.4-1.6,3.4-4.3c0-2.6-1.4-4.2-3.3-4.2c-1.8,0-3.4,1.3-3.4,4.3C120.7,145.1,121.8,147.2,124,147.2z"/>
	<path class="st3" d="M133.5,135.2c0-0.3-0.2-0.5-0.5-0.5h-0.9v-1.2h1.5c0.9,0,1.3,0.4,1.3,1.3v11.8c0,0.3,0.2,0.5,0.5,0.5h0.9v1.2
		h-1.5c-0.9,0-1.3-0.4-1.3-1.3V135.2z"/>
	<path class="st3" d="M146.3,141.7h0.6v-0.1c0-2.2-0.8-3-2.7-3c-0.5,0-2.1,0.1-2.1,0.9v0.7h-1.4v-1c0-1.5,2.5-1.8,3.4-1.8
		c3.3,0,4.1,1.8,4.1,4.1v5.1c0,0.3,0.2,0.5,0.5,0.5h0.9v1.2h-1.5c-0.9,0-1.3-0.4-1.3-1.3c0-0.5,0-0.8,0-0.8h0c0,0-0.9,2.3-3.5,2.3
		c-1.8,0-3.6-1-3.6-3.1C139.8,141.8,144.5,141.7,146.3,141.7z M143.6,147.3c2,0,3.2-2.1,3.2-3.9v-0.5h-0.6c-1.7,0-5,0-5,2.4
		C141.3,146.3,142.1,147.3,143.6,147.3z"/>
	<path class="st3" d="M153.6,145.6c0,0,1.2,1.6,3.3,1.6c1.2,0,2.2-0.6,2.2-1.7c0-2.3-5.9-1.9-5.9-5.3c0-1.9,1.6-2.9,3.8-2.9
		c1.1,0,3.2,0.4,3.2,1.9v0.9h-1.3v-0.5c0-0.8-1.1-1.1-1.8-1.1c-1.5,0-2.4,0.5-2.4,1.5c0,2.4,5.9,1.8,5.9,5.3c0,1.8-1.6,3-3.7,3
		c-2.8,0-4.1-1.9-4.1-1.9L153.6,145.6z"/>
	<path class="st3" d="M165.5,138.9h-1.4v-1.2h1.4v-2.9h1.4v2.9h2.6v1.2H167v5.4c0,2.5,1.6,2.8,2.4,2.8c0.3,0,0.5,0,0.5,0v1.3
		c0,0-0.3,0-0.6,0c-1.2,0-3.7-0.4-3.7-3.9V138.9z"/>
	<path class="st3" d="M174.6,139.4c0-0.3-0.2-0.5-0.5-0.5h-0.9v-1.2h1.5c0.9,0,1.3,0.4,1.3,1.3v7.6c0,0.3,0.2,0.5,0.5,0.5h0.9v1.2
		h-1.5c-0.9,0-1.3-0.4-1.3-1.3V139.4z M174.6,133.4h1.4v1.8h-1.4V133.4z"/>
	<path class="st3" d="M186.5,137.4c1.2,0,3.8,0.5,3.8,2.3v0.9h-1.3V140c0-0.9-1.5-1.3-2.4-1.3c-2.3,0-4.1,1.7-4.1,4.3
		c0,2.6,1.9,4.2,4.1,4.2c2.2,0,3.4-1.5,3.4-1.5l0.7,1.1c0,0-1.4,1.7-4.1,1.7c-3.2,0-5.6-2.2-5.6-5.5
		C180.9,139.7,183.4,137.4,186.5,137.4z"/>
	<path class="st3" d="M90.9,167.7c0,0,1.2,1.6,3.3,1.6c1.2,0,2.2-0.6,2.2-1.7c0-2.3-5.9-1.9-5.9-5.3c0-1.9,1.6-2.9,3.8-2.9
		c1.1,0,3.2,0.4,3.2,1.9v0.9h-1.3v-0.5c0-0.8-1.1-1.1-1.8-1.1c-1.5,0-2.4,0.5-2.4,1.5c0,2.4,5.9,1.8,5.9,5.3c0,1.8-1.6,3-3.7,3
		c-2.8,0-4.1-1.9-4.1-1.9L90.9,167.7z"/>
	<path class="st3" d="M102.8,160.9h-1.4v-1.2h1.4v-2.9h1.4v2.9h2.6v1.2h-2.6v5.4c0,2.5,1.6,2.8,2.4,2.8c0.3,0,0.5,0,0.5,0v1.3
		c0,0-0.3,0-0.6,0c-1.2,0-3.7-0.4-3.7-3.9V160.9z"/>
	<path class="st3" d="M111.8,161.4c0-0.3-0.2-0.5-0.5-0.5h-0.9v-1.2h1.5c0.9,0,1.3,0.4,1.3,1.2v0.7c0,0.4,0,0.8,0,0.8h0
		c0.5-1.6,1.7-2.8,3.3-2.8c0.3,0,0.6,0.1,0.6,0.1v1.4c0,0-0.3,0-0.5,0c-1.5,0-2.6,1.2-3.1,2.7c-0.2,0.7-0.3,1.4-0.3,2.1v4.5h-1.4
		V161.4z"/>
	<path class="st3" d="M126.3,163.7h0.6v-0.1c0-2.2-0.8-3-2.7-3c-0.5,0-2.1,0.1-2.1,0.9v0.7h-1.4v-1c0-1.5,2.5-1.8,3.4-1.8
		c3.3,0,4.1,1.8,4.1,4.1v5.1c0,0.3,0.2,0.5,0.5,0.5h0.9v1.2h-1.5c-0.9,0-1.3-0.4-1.3-1.3c0-0.5,0-0.8,0-0.8h0c0,0-0.9,2.3-3.5,2.3
		c-1.8,0-3.6-1-3.6-3.1C119.8,163.9,124.5,163.7,126.3,163.7z M123.6,169.3c2,0,3.2-2.1,3.2-3.9v-0.5h-0.6c-1.7,0-5,0-5,2.4
		C121.3,168.3,122.1,169.3,123.6,169.3z"/>
	<path class="st3" d="M134.2,160.9h-1.4v-1.2h1.4v-2.9h1.4v2.9h2.6v1.2h-2.6v5.4c0,2.5,1.6,2.8,2.4,2.8c0.3,0,0.5,0,0.5,0v1.3
		c0,0-0.3,0-0.6,0c-1.2,0-3.7-0.4-3.7-3.9V160.9z"/>
	<path class="st3" d="M147.2,159.4c2.9,0,4.4,2.3,4.4,4.9c0,0.3,0,0.7,0,0.7h-8.1c0,2.7,1.9,4.2,4.1,4.2c1.9,0,3.2-1.3,3.2-1.3
		l0.7,1.1c0,0-1.5,1.5-3.9,1.5c-3.1,0-5.5-2.3-5.5-5.5C142,161.5,144.4,159.4,147.2,159.4z M150.2,163.9c-0.1-2.2-1.4-3.3-3-3.3
		c-1.7,0-3.3,1.1-3.6,3.3H150.2z"/>
	<path class="st3" d="M160.2,159.4c2.8,0,3.5,1.8,3.5,1.8h0c0,0,0-0.2,0-0.4c0-0.8,0.3-1.2,1.2-1.2h1.5v1.2h-0.9
		c-0.3,0-0.5,0.1-0.5,0.5v8.6c0,3.4-2.5,4.7-5.1,4.7c-1.2,0-2.4-0.3-3.4-0.8l0.5-1.2c0,0,1.3,0.7,2.9,0.7c2.1,0,3.7-1,3.7-3.3v-0.9
		c0-0.4,0-0.8,0-0.8h0c-0.6,1.2-1.7,1.8-3.3,1.8c-2.8,0-4.7-2.2-4.7-5.4C155.6,161.6,157.4,159.4,160.2,159.4z M163.7,164.8
		c0-3.1-1.5-4-3.3-4c-2.1,0-3.3,1.5-3.3,4c0,2.5,1.4,4.2,3.4,4.2C162.3,168.9,163.7,167.9,163.7,164.8z"/>
	<path class="st3" d="M171.5,173.4c0.9,0,1.6-0.8,2-1.7l0.6-1.5l-3.7-8.8c-0.2-0.4-0.4-0.5-0.7-0.5h-0.2v-1.2h0.7
		c0.9,0,1.2,0.2,1.6,1.2l2.7,6.6c0.2,0.5,0.4,1.1,0.4,1.1h0c0,0,0.1-0.6,0.4-1.1l2.6-6.6c0.4-0.9,0.7-1.2,1.6-1.2h0.7v1.2h-0.2
		c-0.4,0-0.6,0.1-0.7,0.5l-4.6,11.1c-0.5,1.3-1.6,2.2-3,2.2c-1.5,0-2.3-1-2.3-1l0.7-1.1C169.9,172.6,170.6,173.4,171.5,173.4z"/>
	<path class="st4" d="M56.5,179.2h-2.8c-0.2,0-0.4,0.1-0.4,0.4v0.8h-1v-1.2c0-0.7,0.2-0.9,0.9-0.9h7.6c0.7,0,0.9,0.2,0.9,0.9v1.2h-1
		v-0.8c0-0.3-0.1-0.4-0.4-0.4h-2.8v10.3h-1.1V179.2z"/>
	<path class="st4" d="M64.3,182.7c0-0.2-0.1-0.4-0.4-0.4h-0.7v-0.9h1.1c0.7,0,1,0.3,1,0.9v3.9c0,1.3,0.2,2.4,1.8,2.4
		c1.8,0,3-1.6,3-3.4v-3.9h1.1v6.8c0,0.2,0.1,0.4,0.4,0.4h0.7v0.9h-1.1c-0.7,0-1-0.3-1-0.9v-0.4c0-0.3,0-0.6,0-0.6h0
		c-0.3,0.8-1.4,2-3.1,2c-1.9,0-2.7-1-2.7-3.1V182.7z"/>
	<path class="st4" d="M75.7,182.3h-1.1v-0.9h1.1v-2.2h1.1v2.2h2v0.9h-2v4.1c0,1.9,1.2,2.1,1.8,2.1c0.2,0,0.4,0,0.4,0v1
		c0,0-0.2,0-0.5,0c-0.9,0-2.8-0.3-2.8-3V182.3z"/>
	<path class="st4" d="M82.6,182.3h-1.1v-0.9h1.1v-2.2h1.1v2.2h2v0.9h-2v4.1c0,1.9,1.2,2.1,1.8,2.1c0.2,0,0.4,0,0.4,0v1
		c0,0-0.2,0-0.5,0c-0.9,0-2.8-0.3-2.8-3V182.3z"/>
	<path class="st4" d="M89.6,182.7c0-0.2-0.1-0.4-0.4-0.4h-0.7v-0.9h1.1c0.7,0,1,0.3,1,1v5.8c0,0.2,0.1,0.4,0.4,0.4h0.7v0.9h-1.1
		c-0.7,0-1-0.3-1-1V182.7z M89.6,178.2h1.1v1.4h-1.1V178.2z"/>
	<path class="st4" d="M103.9,181.2c2.2,0,2.7,1.4,2.7,1.4h0c0,0,0-0.1,0-0.3c0-0.6,0.3-0.9,0.9-0.9h1.1v0.9H108
		c-0.2,0-0.4,0.1-0.4,0.4v6.6c0,2.6-1.9,3.6-3.9,3.6c-0.9,0-1.8-0.2-2.6-0.6l0.4-0.9c0,0,1,0.6,2.2,0.6c1.6,0,2.8-0.7,2.8-2.5v-0.7
		c0-0.3,0-0.6,0-0.6h0c-0.5,0.9-1.3,1.4-2.5,1.4c-2.2,0-3.6-1.7-3.6-4.1C100.4,182.9,101.7,181.2,103.9,181.2z M106.5,185.3
		c0-2.4-1.1-3.1-2.5-3.1c-1.6,0-2.5,1.1-2.5,3.1c0,1.9,1,3.2,2.6,3.2C105.4,188.5,106.5,187.7,106.5,185.3z"/>
	<path class="st4" d="M112,179.5c0-0.2-0.1-0.4-0.4-0.4h-0.7v-0.9h1.1c0.7,0,1,0.3,1,1v9c0,0.2,0.1,0.4,0.4,0.4h0.7v0.9h-1.1
		c-0.7,0-1-0.3-1-1V179.5z"/>
	<path class="st4" d="M117.6,182.7c0-0.2-0.1-0.4-0.4-0.4h-0.7v-0.9h1.1c0.7,0,1,0.3,1,1v5.8c0,0.2,0.1,0.4,0.4,0.4h0.7v0.9h-1.1
		c-0.7,0-1-0.3-1-1V182.7z M117.6,178.2h1.1v1.4h-1.1V178.2z"/>
	<path class="st4" d="M129.2,182.7c0-0.2-0.1-0.4-0.4-0.4h-0.7v-0.9h1.1c0.7,0,1,0.3,1,1v5.8c0,0.2,0.1,0.4,0.4,0.4h0.7v0.9h-1.1
		c-0.7,0-1-0.3-1-1V182.7z M129.1,178.2h1.1v1.4h-1.1V178.2z"/>
	<path class="st4" d="M134.7,182.7c0-0.2-0.1-0.4-0.4-0.4h-0.7v-0.9h1.1c0.7,0,1,0.3,1,0.9v0.4c0,0.3,0,0.6,0,0.6h0
		c0.4-1.1,1.7-2,2.9-2c1.5,0,2.3,0.7,2.5,2h0c0.4-1.1,1.6-2,3-2c2,0,2.7,1.1,2.7,3.1v3.8c0,0.2,0.1,0.4,0.4,0.4h0.7v0.9h-1.1
		c-0.7,0-1-0.3-1-1v-3.9c0-1.3-0.3-2.4-1.7-2.4c-1.2,0-2.2,1.1-2.5,2.3c-0.1,0.4-0.1,0.7-0.1,1.2v3.8h-1.1v-4.9
		c0-1.2-0.2-2.4-1.7-2.4c-1.3,0-2.3,1.1-2.6,2.4c-0.1,0.3-0.1,0.7-0.1,1.1v3.8h-1.1V182.7z"/>
	<path class="st4" d="M151.2,179.5c0-0.2-0.1-0.4-0.4-0.4h-0.7v-0.9h1.1c0.7,0,1,0.3,1,1v2.9c0,0.4,0,0.7,0,0.7h0
		c0,0,0.7-1.5,2.7-1.5c2.2,0,3.5,1.7,3.5,4.2c0,2.5-1.5,4.2-3.6,4.2c-1.9,0-2.6-1.6-2.6-1.6h0c0,0,0,0.3,0,0.7v0.7h-1.1V179.5z
		 M154.8,188.7c1.4,0,2.6-1.2,2.6-3.3c0-2-1.1-3.2-2.5-3.2c-1.3,0-2.6,1-2.6,3.3C152.2,187.1,153.1,188.7,154.8,188.7z"/>
	<path class="st4" d="M166.3,184.5h0.4v-0.1c0-1.7-0.6-2.3-2.1-2.3c-0.4,0-1.6,0.1-1.6,0.7v0.5h-1v-0.8c0-1.1,1.9-1.4,2.6-1.4
		c2.5,0,3.2,1.4,3.2,3.1v3.9c0,0.2,0.1,0.4,0.4,0.4h0.7v0.9h-1.1c-0.7,0-1-0.3-1-1c0-0.4,0-0.6,0-0.6h0c0,0-0.7,1.7-2.7,1.7
		c-1.3,0-2.7-0.8-2.7-2.4C161.4,184.6,164.9,184.5,166.3,184.5z M164.3,188.8c1.5,0,2.5-1.6,2.5-3v-0.4h-0.5c-1.3,0-3.8,0-3.8,1.8
		C162.5,188,163.1,188.8,164.3,188.8z"/>
	<path class="st4" d="M172.2,179.5c0-0.2-0.1-0.4-0.4-0.4h-0.7v-0.9h1.1c0.7,0,1,0.3,1,1v9c0,0.2,0.1,0.4,0.4,0.4h0.7v0.9h-1.1
		c-0.7,0-1-0.3-1-1V179.5z"/>
	<path class="st4" d="M177.7,179.5c0-0.2-0.1-0.4-0.4-0.4h-0.7v-0.9h1.1c0.7,0,1,0.3,1,1v9c0,0.2,0.1,0.4,0.4,0.4h0.7v0.9h-1.1
		c-0.7,0-1-0.3-1-1V179.5z"/>
	<path class="st4" d="M187.4,184.5h0.4v-0.1c0-1.7-0.6-2.3-2.1-2.3c-0.4,0-1.6,0.1-1.6,0.7v0.5h-1v-0.8c0-1.1,1.9-1.4,2.6-1.4
		c2.5,0,3.2,1.4,3.2,3.1v3.9c0,0.2,0.1,0.4,0.4,0.4h0.7v0.9h-1.1c-0.7,0-1-0.3-1-1c0-0.4,0-0.6,0-0.6h0c0,0-0.7,1.7-2.7,1.7
		c-1.3,0-2.7-0.8-2.7-2.4C182.5,184.6,186,184.5,187.4,184.5z M185.4,188.8c1.5,0,2.5-1.6,2.5-3v-0.4h-0.5c-1.3,0-3.8,0-3.8,1.8
		C183.6,188,184.2,188.8,185.4,188.8z"/>
	<path class="st4" d="M196.1,181.2c2.2,0,2.7,1.4,2.7,1.4h0c0,0,0-0.1,0-0.3c0-0.6,0.3-0.9,0.9-0.9h1.1v0.9h-0.7
		c-0.2,0-0.4,0.1-0.4,0.4v6.6c0,2.6-1.9,3.6-3.9,3.6c-0.9,0-1.8-0.2-2.6-0.6l0.4-0.9c0,0,1,0.6,2.2,0.6c1.6,0,2.8-0.7,2.8-2.5v-0.7
		c0-0.3,0-0.6,0-0.6h0c-0.5,0.9-1.3,1.4-2.5,1.4c-2.2,0-3.6-1.7-3.6-4.1C192.6,182.9,193.9,181.2,196.1,181.2z M198.8,185.3
		c0-2.4-1.1-3.1-2.5-3.1c-1.6,0-2.5,1.1-2.5,3.1c0,1.9,1,3.2,2.6,3.2C197.6,188.5,198.8,187.7,198.8,185.3z"/>
	<path class="st4" d="M207,181.2c2.2,0,2.7,1.4,2.7,1.4h0c0,0,0-0.1,0-0.3c0-0.6,0.3-0.9,0.9-0.9h1.1v0.9h-0.7
		c-0.2,0-0.4,0.1-0.4,0.4v6.6c0,2.6-1.9,3.6-3.9,3.6c-0.9,0-1.8-0.2-2.6-0.6l0.4-0.9c0,0,1,0.6,2.2,0.6c1.6,0,2.8-0.7,2.8-2.5v-0.7
		c0-0.3,0-0.6,0-0.6h0c-0.5,0.9-1.3,1.4-2.5,1.4c-2.2,0-3.6-1.7-3.6-4.1C203.5,182.9,204.8,181.2,207,181.2z M209.6,185.3
		c0-2.4-1.1-3.1-2.5-3.1c-1.6,0-2.5,1.1-2.5,3.1c0,1.9,1,3.2,2.6,3.2C208.5,188.5,209.6,187.7,209.6,185.3z"/>
	<path class="st4" d="M215.2,182.7c0-0.2-0.1-0.4-0.4-0.4h-0.7v-0.9h1.1c0.7,0,1,0.3,1,1v5.8c0,0.2,0.1,0.4,0.4,0.4h0.7v0.9h-1.1
		c-0.7,0-1-0.3-1-1V182.7z M215.1,178.2h1.1v1.4h-1.1V178.2z"/>
	<path class="st4" d="M47.2,202c0-0.2-0.1-0.4-0.4-0.4h-0.7v-0.9h1.1c0.7,0,1,0.3,1,1v5.8c0,0.2,0.1,0.4,0.4,0.4h0.7v0.9h-1.1
		c-0.7,0-1-0.3-1-1V202z M47.2,197.5h1.1v1.4h-1.1V197.5z"/>
	<path class="st4" d="M52.8,202c0-0.2-0.1-0.4-0.4-0.4h-0.7v-0.9h1.1c0.7,0,1,0.3,1,0.9v0.4c0,0.3,0,0.6,0,0.6h0
		c0.3-0.7,1.3-2,3.2-2c2,0,2.7,1.1,2.7,3.1v3.8c0,0.2,0.1,0.4,0.4,0.4h0.7v0.9h-1.1c-0.7,0-1-0.3-1-1v-3.9c0-1.3-0.2-2.4-1.7-2.4
		c-1.4,0-2.6,0.9-2.9,2.3c-0.1,0.3-0.1,0.7-0.1,1.1v3.9h-1.1V202z"/>
	<path class="st4" d="M70.1,202c0-0.2-0.1-0.4-0.4-0.4H69v-0.9h1.1c0.7,0,1,0.3,1,0.8c0,0.3,0,0.5,0,0.5h0c0,0,0.6-1.6,2.8-1.6
		c2.2,0,3.5,1.7,3.5,4.2c0,2.5-1.5,4.2-3.6,4.2c-2,0-2.6-1.5-2.6-1.5h0c0,0,0,0.3,0,0.7v3.8h-1.1V202z M73.7,207.9
		c1.4,0,2.6-1.2,2.6-3.3c0-2-1-3.2-2.5-3.2c-1.3,0-2.6,1-2.6,3.3C71.1,206.3,72,207.9,73.7,207.9z"/>
	<path class="st4" d="M80.9,198.8c0-0.2-0.1-0.4-0.4-0.4h-0.7v-0.9H81c0.7,0,1,0.3,1,1v9c0,0.2,0.1,0.4,0.4,0.4H83v0.9h-1.1
		c-0.7,0-1-0.3-1-1V198.8z"/>
	<path class="st4" d="M90.6,203.8h0.4v-0.1c0-1.7-0.6-2.3-2.1-2.3c-0.4,0-1.6,0.1-1.6,0.7v0.5h-1v-0.8c0-1.1,1.9-1.4,2.6-1.4
		c2.5,0,3.2,1.4,3.2,3.1v3.9c0,0.2,0.1,0.4,0.4,0.4h0.7v0.9h-1.1c-0.7,0-1-0.3-1-1c0-0.4,0-0.6,0-0.6h0c0,0-0.7,1.7-2.7,1.7
		c-1.3,0-2.7-0.8-2.7-2.4C85.7,203.8,89.2,203.8,90.6,203.8z M88.6,208c1.5,0,2.5-1.6,2.5-3v-0.4h-0.5c-1.3,0-3.8,0-3.8,1.8
		C86.8,207.2,87.4,208,88.6,208z"/>
	<path class="st4" d="M96.2,206.7c0,0,0.9,1.2,2.5,1.2c0.9,0,1.7-0.4,1.7-1.3c0-1.8-4.5-1.4-4.5-4c0-1.5,1.3-2.2,2.9-2.2
		c0.8,0,2.5,0.3,2.5,1.5v0.7h-1v-0.4c0-0.6-0.9-0.8-1.4-0.8c-1.1,0-1.8,0.4-1.8,1.2c0,1.8,4.5,1.4,4.5,4.1c0,1.3-1.2,2.3-2.8,2.3
		c-2.1,0-3.1-1.4-3.1-1.4L96.2,206.7z"/>
	<path class="st4" d="M105.3,201.6h-1.1v-0.9h1.1v-2.2h1.1v2.2h2v0.9h-2v4.1c0,1.9,1.2,2.1,1.8,2.1c0.2,0,0.4,0,0.4,0v1
		c0,0-0.2,0-0.5,0c-0.9,0-2.8-0.3-2.8-3V201.6z"/>
	<path class="st4" d="M112.2,202c0-0.2-0.1-0.4-0.4-0.4h-0.7v-0.9h1.1c0.7,0,1,0.3,1,1v5.8c0,0.2,0.1,0.4,0.4,0.4h0.7v0.9h-1.1
		c-0.7,0-1-0.3-1-1V202z M112.2,197.5h1.1v1.4h-1.1V197.5z"/>
	<path class="st4" d="M121.3,200.5c0.9,0,2.9,0.4,2.9,1.7v0.7h-1v-0.5c0-0.7-1.2-1-1.8-1c-1.7,0-3.1,1.3-3.1,3.3
		c0,2,1.5,3.2,3.2,3.2c1.7,0,2.6-1.1,2.6-1.1l0.5,0.8c0,0-1.1,1.3-3.2,1.3c-2.4,0-4.2-1.7-4.2-4.2
		C117,202.2,118.9,200.5,121.3,200.5z"/>
	<path class="st4" d="M132,203.8h0.4v-0.1c0-1.7-0.6-2.3-2.1-2.3c-0.4,0-1.6,0.1-1.6,0.7v0.5h-1v-0.8c0-1.1,1.9-1.4,2.6-1.4
		c2.5,0,3.2,1.4,3.2,3.1v3.9c0,0.2,0.1,0.4,0.4,0.4h0.7v0.9h-1.1c-0.7,0-1-0.3-1-1c0-0.4,0-0.6,0-0.6h0c0,0-0.7,1.7-2.7,1.7
		c-1.3,0-2.7-0.8-2.7-2.4C127.1,203.8,130.6,203.8,132,203.8z M130,208c1.5,0,2.5-1.6,2.5-3v-0.4H132c-1.3,0-3.8,0-3.8,1.8
		C128.2,207.2,128.8,208,130,208z"/>
	<path class="st4" d="M146.8,200.5c2,0,2.6,1.5,2.6,1.5h0c0,0,0-0.3,0-0.6v-2.6c0-0.2-0.1-0.4-0.4-0.4h-0.7v-0.9h1.1
		c0.7,0,1,0.3,1,1v9c0,0.2,0.1,0.4,0.4,0.4h0.7v0.9h-1.1c-0.7,0-1-0.3-1-0.9c0-0.3,0-0.5,0-0.5h0c0,0-0.7,1.6-2.8,1.6
		c-2.2,0-3.5-1.7-3.5-4.2C143.2,202.1,144.7,200.5,146.8,200.5z M149.4,204.7c0-1.6-0.8-3.2-2.6-3.2c-1.4,0-2.6,1.2-2.6,3.2
		c0,2,1,3.3,2.5,3.3C148.2,207.9,149.4,207,149.4,204.7z"/>
	<path class="st4" d="M158.4,200.5c2.4,0,4.3,1.8,4.3,4.2c0,2.4-1.9,4.3-4.2,4.3c-2.4,0-4.3-1.8-4.3-4.3
		C154.2,202.3,156.1,200.5,158.4,200.5z M158.4,207.9c1.7,0,3.1-1.4,3.1-3.3c0-1.8-1.4-3.2-3.1-3.2c-1.7,0-3.1,1.4-3.1,3.2
		C155.3,206.5,156.7,207.9,158.4,207.9z"/>
	<path class="st4" d="M165.7,202c-0.1-0.3-0.3-0.4-0.6-0.4H165v-0.9h0.4c0.8,0,1,0.2,1.3,0.9l1.9,5c0.1,0.4,0.3,0.9,0.3,0.9h0
		c0,0,0.1-0.5,0.3-0.9l1.9-5c0.3-0.7,0.5-0.9,1.3-0.9h0.4v0.9h-0.1c-0.3,0-0.5,0.1-0.6,0.4l-2.6,6.7h-1.2L165.7,202z"/>
	<path class="st4" d="M176,202c0-0.2-0.1-0.4-0.4-0.4H175v-0.9h1.1c0.7,0,1,0.3,1,0.9v0.5c0,0.3,0,0.6,0,0.6h0
		c0.4-1.2,1.3-2.1,2.5-2.1c0.2,0,0.4,0,0.4,0v1.1c0,0-0.2,0-0.4,0c-1.1,0-2,0.9-2.3,2.1c-0.2,0.5-0.2,1.1-0.2,1.6v3.4H176V202z"/>
	<path class="st4" d="M187.1,203.8h0.4v-0.1c0-1.7-0.6-2.3-2.1-2.3c-0.4,0-1.6,0.1-1.6,0.7v0.5h-1v-0.8c0-1.1,1.9-1.4,2.6-1.4
		c2.5,0,3.2,1.4,3.2,3.1v3.9c0,0.2,0.1,0.4,0.4,0.4h0.7v0.9h-1.1c-0.7,0-1-0.3-1-1c0-0.4,0-0.6,0-0.6h0c0,0-0.7,1.7-2.7,1.7
		c-1.3,0-2.7-0.8-2.7-2.4C182.2,203.8,185.7,203.8,187.1,203.8z M185.1,208c1.5,0,2.5-1.6,2.5-3v-0.4h-0.5c-1.3,0-3.8,0-3.8,1.8
		C183.3,207.2,183.9,208,185.1,208z"/>
	<path class="st4" d="M193,202c0-0.2-0.1-0.4-0.4-0.4H192v-0.9h1.1c0.7,0,1,0.3,1,0.9v0.4c0,0.3,0,0.6,0,0.6h0c0.3-0.7,1.3-2,3.2-2
		c2,0,2.7,1.1,2.7,3.1v3.8c0,0.2,0.1,0.4,0.4,0.4h0.7v0.9h-1.1c-0.7,0-1-0.3-1-1v-3.9c0-1.3-0.2-2.4-1.7-2.4c-1.4,0-2.6,0.9-2.9,2.3
		c-0.1,0.3-0.1,0.7-0.1,1.1v3.9H193V202z"/>
	<path class="st4" d="M204.3,202c0-0.2-0.1-0.4-0.4-0.4h-0.7v-0.9h1.1c0.7,0,1,0.3,1,0.9v0.4c0,0.3,0,0.6,0,0.6h0
		c0.3-0.7,1.3-2,3.2-2c2,0,2.7,1.1,2.7,3.1v3.8c0,0.2,0.1,0.4,0.4,0.4h0.7v0.9h-1.1c-0.7,0-1-0.3-1-1v-3.9c0-1.3-0.2-2.4-1.7-2.4
		c-1.4,0-2.6,0.9-2.9,2.3c-0.1,0.3-0.1,0.7-0.1,1.1v3.9h-1.1V202z"/>
	<path class="st4" d="M219.2,200.5c2.4,0,4.3,1.8,4.3,4.2c0,2.4-1.9,4.3-4.2,4.3c-2.4,0-4.3-1.8-4.3-4.3
		C214.9,202.3,216.8,200.5,219.2,200.5z M219.2,207.9c1.7,0,3.1-1.4,3.1-3.3c0-1.8-1.4-3.2-3.1-3.2c-1.7,0-3.1,1.4-3.1,3.2
		C216.1,206.5,217.5,207.9,219.2,207.9z"/>
	<path class="st4" d="M68.5,219.7c2.2,0,3.4,1.7,3.4,3.7c0,0.2,0,0.5,0,0.5h-6.2c0,2,1.5,3.2,3.1,3.2c1.5,0,2.4-1,2.4-1l0.5,0.8
		c0,0-1.2,1.2-3,1.2c-2.4,0-4.2-1.7-4.2-4.2C64.6,221.3,66.4,219.7,68.5,219.7z M70.8,223.1c-0.1-1.7-1.1-2.5-2.3-2.5
		c-1.3,0-2.5,0.9-2.8,2.5H70.8z"/>
	<path class="st4" d="M75.4,226c0,0,0.9,1.2,2.5,1.2c0.9,0,1.7-0.4,1.7-1.3c0-1.8-4.5-1.4-4.5-4c0-1.5,1.3-2.2,2.9-2.2
		c0.8,0,2.5,0.3,2.5,1.5v0.7h-1v-0.4c0-0.6-0.9-0.8-1.4-0.8c-1.1,0-1.8,0.4-1.8,1.2c0,1.8,4.5,1.4,4.5,4.1c0,1.3-1.2,2.3-2.8,2.3
		c-2.1,0-3.1-1.4-3.1-1.4L75.4,226z"/>
	<path class="st4" d="M84.1,226c0,0,0.9,1.2,2.5,1.2c0.9,0,1.7-0.4,1.7-1.3c0-1.8-4.5-1.4-4.5-4c0-1.5,1.3-2.2,2.9-2.2
		c0.8,0,2.5,0.3,2.5,1.5v0.7h-1v-0.4c0-0.6-0.9-0.8-1.4-0.8c-1.1,0-1.8,0.4-1.8,1.2c0,1.8,4.5,1.4,4.5,4.1c0,1.3-1.2,2.3-2.8,2.3
		c-2.1,0-3.1-1.4-3.1-1.4L84.1,226z"/>
	<path class="st4" d="M96.2,219.7c2.2,0,3.4,1.7,3.4,3.7c0,0.2,0,0.5,0,0.5h-6.2c0,2,1.5,3.2,3.1,3.2c1.5,0,2.4-1,2.4-1l0.5,0.8
		c0,0-1.2,1.2-3,1.2c-2.4,0-4.2-1.7-4.2-4.2C92.3,221.3,94.1,219.7,96.2,219.7z M98.5,223.1c-0.1-1.7-1.1-2.5-2.3-2.5
		c-1.3,0-2.5,0.9-2.8,2.5H98.5z"/>
	<path class="st4" d="M103.4,221.2c0-0.2-0.1-0.4-0.4-0.4h-0.7v-0.9h1.1c0.7,0,1,0.3,1,0.9v0.5c0,0.3,0,0.6,0,0.6h0
		c0.4-1.2,1.3-2.1,2.5-2.1c0.2,0,0.4,0,0.4,0v1.1c0,0-0.2,0-0.4,0c-1.1,0-2,0.9-2.3,2.1c-0.2,0.5-0.2,1.1-0.2,1.6v3.4h-1.1V221.2z"
		/>
	<path class="st4" d="M113.7,219.7c2.2,0,3.4,1.7,3.4,3.7c0,0.2,0,0.5,0,0.5h-6.2c0,2,1.5,3.2,3.1,3.2c1.5,0,2.4-1,2.4-1l0.5,0.8
		c0,0-1.2,1.2-3,1.2c-2.4,0-4.2-1.7-4.2-4.2C109.7,221.3,111.5,219.7,113.7,219.7z M116,223.1c-0.1-1.7-1.1-2.5-2.3-2.5
		c-1.3,0-2.5,0.9-2.8,2.5H116z"/>
	<path class="st4" d="M126.8,221.2c0-0.2-0.1-0.4-0.4-0.4h-0.7v-0.9h1.1c0.7,0,1,0.3,1,0.9v0.5c0,0.3,0,0.6,0,0.6h0
		c0.4-1.2,1.3-2.1,2.5-2.1c0.2,0,0.4,0,0.4,0v1.1c0,0-0.2,0-0.4,0c-1.1,0-2,0.9-2.3,2.1c-0.2,0.5-0.2,1.1-0.2,1.6v3.4h-1.1V221.2z"
		/>
	<path class="st4" d="M134.3,221.2c0-0.2-0.1-0.4-0.4-0.4h-0.7v-0.9h1.1c0.7,0,1,0.3,1,1v5.8c0,0.2,0.1,0.4,0.4,0.4h0.7v0.9h-1.1
		c-0.7,0-1-0.3-1-1V221.2z M134.3,216.7h1.1v1.4h-1.1V216.7z"/>
	<path class="st4" d="M143.3,219.7c0.9,0,2.9,0.4,2.9,1.7v0.7h-1v-0.5c0-0.7-1.2-1-1.8-1c-1.7,0-3.1,1.3-3.1,3.3
		c0,2,1.5,3.2,3.2,3.2c1.7,0,2.6-1.1,2.6-1.1l0.5,0.8c0,0-1.1,1.3-3.2,1.3c-2.4,0-4.2-1.7-4.2-4.2
		C139.1,221.5,140.9,219.7,143.3,219.7z"/>
	<path class="st4" d="M150,221.2c0-0.2-0.1-0.4-0.4-0.4H149v-0.9h1.1c0.7,0,1,0.3,1,1v5.8c0,0.2,0.1,0.4,0.4,0.4h0.7v0.9H151
		c-0.7,0-1-0.3-1-1V221.2z M150,216.7h1.1v1.4H150V216.7z"/>
	<path class="st4" d="M159,219.7c0.9,0,2.9,0.4,2.9,1.7v0.7h-1v-0.5c0-0.7-1.2-1-1.8-1c-1.7,0-3.1,1.3-3.1,3.3c0,2,1.5,3.2,3.2,3.2
		c1.7,0,2.6-1.1,2.6-1.1l0.5,0.8c0,0-1.1,1.3-3.2,1.3c-2.4,0-4.2-1.7-4.2-4.2C154.8,221.5,156.6,219.7,159,219.7z"/>
	<path class="st4" d="M165.5,218c0-0.2-0.1-0.4-0.4-0.4h-0.7v-0.9h1.1c0.7,0,1,0.3,1,1v9c0,0.2,0.1,0.4,0.4,0.4h0.7v0.9h-1.1
		c-0.7,0-1-0.3-1-1V218z"/>
	<path class="st4" d="M175.3,223h0.4v-0.1c0-1.7-0.6-2.3-2.1-2.3c-0.4,0-1.6,0.1-1.6,0.7v0.5h-1v-0.8c0-1.1,1.9-1.4,2.6-1.4
		c2.5,0,3.2,1.4,3.2,3.1v3.9c0,0.2,0.1,0.4,0.4,0.4h0.7v0.9h-1.1c-0.7,0-1-0.3-1-1c0-0.4,0-0.6,0-0.6h0c0,0-0.7,1.7-2.7,1.7
		c-1.3,0-2.7-0.8-2.7-2.4C170.3,223.1,173.9,223,175.3,223z M173.2,227.2c1.5,0,2.5-1.6,2.5-3v-0.4h-0.5c-1.3,0-3.8,0-3.8,1.8
		C171.4,226.4,172,227.2,173.2,227.2z"/>
	<path class="st4" d="M181.1,218c0-0.2-0.1-0.4-0.4-0.4h-0.7v-0.9h1.1c0.7,0,1,0.3,1,1v2.9c0,0.4,0,0.7,0,0.7h0c0,0,0.7-1.5,2.7-1.5
		c2.2,0,3.5,1.7,3.5,4.2c0,2.5-1.5,4.2-3.6,4.2c-1.9,0-2.6-1.6-2.6-1.6h0c0,0,0,0.3,0,0.7v0.7h-1.1V218z M184.7,227.2
		c1.4,0,2.6-1.2,2.6-3.3c0-2-1.1-3.2-2.5-3.2c-1.3,0-2.6,1-2.6,3.3C182.2,225.6,183,227.2,184.7,227.2z"/>
	<path class="st4" d="M192.2,221.2c0-0.2-0.1-0.4-0.4-0.4h-0.7v-0.9h1.1c0.7,0,1,0.3,1,1v5.8c0,0.2,0.1,0.4,0.4,0.4h0.7v0.9h-1.1
		c-0.7,0-1-0.3-1-1V221.2z M192.2,216.7h1.1v1.4h-1.1V216.7z"/>
	<path class="st4" d="M197.7,218c0-0.2-0.1-0.4-0.4-0.4h-0.7v-0.9h1.1c0.7,0,1,0.3,1,1v9c0,0.2,0.1,0.4,0.4,0.4h0.7v0.9h-1.1
		c-0.7,0-1-0.3-1-1V218z"/>
	<path class="st4" d="M203.3,221.2c0-0.2-0.1-0.4-0.4-0.4h-0.7v-0.9h1.1c0.7,0,1,0.3,1,1v5.8c0,0.2,0.1,0.4,0.4,0.4h0.7v0.9h-1.1
		c-0.7,0-1-0.3-1-1V221.2z M203.3,216.7h1.1v1.4h-1.1V216.7z"/>
	<path class="st4" d="M53.1,238.9c2.2,0,3.4,1.7,3.4,3.7c0,0.2,0,0.5,0,0.5h-6.2c0,2,1.5,3.2,3.1,3.2c1.5,0,2.4-1,2.4-1l0.5,0.8
		c0,0-1.2,1.2-3,1.2c-2.4,0-4.2-1.7-4.2-4.2C49.1,240.5,50.9,238.9,53.1,238.9z M55.3,242.3c-0.1-1.7-1.1-2.5-2.3-2.5
		c-1.3,0-2.5,0.9-2.8,2.5H55.3z"/>
	<path class="st4" d="M66.2,240.4c0-0.2-0.1-0.4-0.4-0.4h-0.7v-0.9h1.1c0.7,0,1,0.3,1,0.9v0.5c0,0.3,0,0.6,0,0.6h0
		c0.4-1.2,1.3-2.1,2.5-2.1c0.2,0,0.4,0,0.4,0v1.1c0,0-0.2,0-0.4,0c-1.1,0-2,0.9-2.3,2.1c-0.2,0.5-0.2,1.1-0.2,1.6v3.4h-1.1V240.4z"
		/>
	<path class="st4" d="M73.7,240.4c0-0.2-0.1-0.4-0.4-0.4h-0.7v-0.9h1.1c0.7,0,1,0.3,1,1v5.8c0,0.2,0.1,0.4,0.4,0.4h0.7v0.9h-1.1
		c-0.7,0-1-0.3-1-1V240.4z M73.6,235.9h1.1v1.4h-1.1V235.9z"/>
	<path class="st4" d="M79.2,240.4c0-0.2-0.1-0.4-0.4-0.4h-0.7v-0.9h1.1c0.7,0,1,0.3,1,0.9v3.9c0,1.3,0.2,2.4,1.8,2.4
		c1.8,0,3-1.6,3-3.4v-3.9h1.1v6.8c0,0.2,0.1,0.4,0.4,0.4h0.7v0.9H86c-0.7,0-1-0.3-1-0.9v-0.4c0-0.3,0-0.6,0-0.6h0
		c-0.3,0.8-1.4,2-3.1,2c-1.9,0-2.7-1-2.7-3.1V240.4z"/>
	<path class="st4" d="M90.6,240h-1.1v-0.9h1.1v-2.2h1.1v2.2h2v0.9h-2v4.1c0,1.9,1.2,2.1,1.8,2.1c0.2,0,0.4,0,0.4,0v1
		c0,0-0.2,0-0.5,0c-0.9,0-2.8-0.3-2.8-3V240z"/>
	<path class="st4" d="M97.5,240.4c0-0.2-0.1-0.4-0.4-0.4h-0.7v-0.9h1.1c0.7,0,1,0.3,1,1v5.8c0,0.2,0.1,0.4,0.4,0.4h0.7v0.9h-1.1
		c-0.7,0-1-0.3-1-1V240.4z M97.5,235.9h1.1v1.4h-1.1V235.9z"/>
	<path class="st4" d="M103.1,237.2c0-0.2-0.1-0.4-0.4-0.4H102v-0.9h1.1c0.7,0,1,0.3,1,1v9c0,0.2,0.1,0.4,0.4,0.4h0.7v0.9H104
		c-0.7,0-1-0.3-1-1V237.2z"/>
	<path class="st4" d="M108.7,240.4c0-0.2-0.1-0.4-0.4-0.4h-0.7v-0.9h1.1c0.7,0,1,0.3,1,1v5.8c0,0.2,0.1,0.4,0.4,0.4h0.7v0.9h-1.1
		c-0.7,0-1-0.3-1-1V240.4z M108.6,235.9h1.1v1.4h-1.1V235.9z"/>
	<path class="st4" d="M113.5,246.5l4.5-5.7c0.3-0.4,0.6-0.7,0.6-0.7v0c0,0-0.3,0-0.8,0h-2.9c-0.2,0-0.4,0.1-0.4,0.4v0.6h-1v-1
		c0-0.7,0.3-1,1-1h5.6v0.7l-4.5,5.6c-0.3,0.4-0.7,0.7-0.7,0.7v0c0,0,0.3,0,0.8,0h3.3c0.2,0,0.4-0.1,0.4-0.4v-0.6h1v1
		c0,0.7-0.3,1-1,1h-6V246.5z"/>
	<path class="st4" d="M123.1,246.5l4.5-5.7c0.3-0.4,0.6-0.7,0.6-0.7v0c0,0-0.3,0-0.8,0h-2.9c-0.2,0-0.4,0.1-0.4,0.4v0.6h-1v-1
		c0-0.7,0.3-1,1-1h5.6v0.7l-4.5,5.6c-0.3,0.4-0.7,0.7-0.7,0.7v0c0,0,0.3,0,0.8,0h3.3c0.2,0,0.4-0.1,0.4-0.4v-0.6h1v1
		c0,0.7-0.3,1-1,1h-6V246.5z"/>
	<path class="st4" d="M137.6,242.2h0.4v-0.1c0-1.7-0.6-2.3-2.1-2.3c-0.4,0-1.6,0.1-1.6,0.7v0.5h-1v-0.8c0-1.1,1.9-1.4,2.6-1.4
		c2.5,0,3.2,1.4,3.2,3.1v3.9c0,0.2,0.1,0.4,0.4,0.4h0.7v0.9h-1.1c-0.7,0-1-0.3-1-1c0-0.4,0-0.6,0-0.6h0c0,0-0.7,1.7-2.7,1.7
		c-1.3,0-2.7-0.8-2.7-2.4C132.7,242.3,136.2,242.2,137.6,242.2z M135.6,246.4c1.5,0,2.5-1.6,2.5-3v-0.4h-0.5c-1.3,0-3.8,0-3.8,1.8
		C133.8,245.7,134.4,246.4,135.6,246.4z"/>
	<path class="st4" d="M143.5,237.2c0-0.2-0.1-0.4-0.4-0.4h-0.7v-0.9h1.1c0.7,0,1,0.3,1,1v2.9c0,0.4,0,0.7,0,0.7h0
		c0,0,0.7-1.5,2.7-1.5c2.2,0,3.5,1.7,3.5,4.2c0,2.5-1.5,4.2-3.6,4.2c-1.9,0-2.6-1.6-2.6-1.6h0c0,0,0,0.3,0,0.7v0.7h-1.1V237.2z
		 M147.1,246.4c1.4,0,2.6-1.2,2.6-3.3c0-2-1.1-3.2-2.5-3.2c-1.3,0-2.6,1-2.6,3.3C144.5,244.8,145.3,246.4,147.1,246.4z"/>
	<path class="st4" d="M154.5,240.4c0-0.2-0.1-0.4-0.4-0.4h-0.7v-0.9h1.1c0.7,0,1,0.3,1,1v5.8c0,0.2,0.1,0.4,0.4,0.4h0.7v0.9h-1.1
		c-0.7,0-1-0.3-1-1V240.4z M154.5,235.9h1.1v1.4h-1.1V235.9z"/>
	<path class="st4" d="M160.1,237.2c0-0.2-0.1-0.4-0.4-0.4H159v-0.9h1.1c0.7,0,1,0.3,1,1v9c0,0.2,0.1,0.4,0.4,0.4h0.7v0.9H161
		c-0.7,0-1-0.3-1-1V237.2z"/>
	<path class="st4" d="M165.7,240.4c0-0.2-0.1-0.4-0.4-0.4h-0.7v-0.9h1.1c0.7,0,1,0.3,1,1v5.8c0,0.2,0.1,0.4,0.4,0.4h0.7v0.9h-1.1
		c-0.7,0-1-0.3-1-1V240.4z M165.7,235.9h1.1v1.4h-1.1V235.9z"/>
	<path class="st4" d="M180.4,238.9c2.2,0,3.4,1.7,3.4,3.7c0,0.2,0,0.5,0,0.5h-6.2c0,2,1.5,3.2,3.1,3.2c1.5,0,2.4-1,2.4-1l0.5,0.8
		c0,0-1.2,1.2-3,1.2c-2.4,0-4.2-1.7-4.2-4.2C176.4,240.5,178.3,238.9,180.4,238.9z M182.7,242.3c-0.1-1.7-1.1-2.5-2.3-2.5
		c-1.3,0-2.5,0.9-2.8,2.5H182.7z"/>
	<path class="st4" d="M187.6,240.4c0-0.2-0.1-0.4-0.4-0.4h-0.7v-0.9h1.1c0.7,0,1,0.3,1,0.9v0.4c0,0.3,0,0.6,0,0.6h0
		c0.3-0.7,1.3-2,3.2-2c2,0,2.7,1.1,2.7,3.1v3.8c0,0.2,0.1,0.4,0.4,0.4h0.7v0.9h-1.1c-0.7,0-1-0.3-1-1v-3.9c0-1.3-0.2-2.4-1.7-2.4
		c-1.4,0-2.6,0.9-2.9,2.3c-0.1,0.3-0.1,0.7-0.1,1.1v3.9h-1.1V240.4z"/>
	<path class="st4" d="M199,240H198v-0.9h1.1v-2.2h1.1v2.2h2v0.9h-2v4.1c0,1.9,1.2,2.1,1.8,2.1c0.2,0,0.4,0,0.4,0v1c0,0-0.2,0-0.5,0
		c-0.9,0-2.8-0.3-2.8-3V240z"/>
	<path class="st4" d="M205.9,240.4c0-0.2-0.1-0.4-0.4-0.4h-0.7v-0.9h1.1c0.7,0,1,0.3,1,0.9v0.5c0,0.3,0,0.6,0,0.6h0
		c0.4-1.2,1.3-2.1,2.5-2.1c0.2,0,0.4,0,0.4,0v1.1c0,0-0.2,0-0.4,0c-1.1,0-2,0.9-2.3,2.1c-0.2,0.5-0.2,1.1-0.2,1.6v3.4h-1.1V240.4z"
		/>
	<path class="st4" d="M216.5,238.9c2.4,0,4.3,1.8,4.3,4.2c0,2.4-1.9,4.3-4.2,4.3c-2.4,0-4.3-1.8-4.3-4.3
		C212.2,240.7,214.1,238.9,216.5,238.9z M216.5,246.4c1.7,0,3.1-1.4,3.1-3.3c0-1.8-1.4-3.2-3.1-3.2c-1.7,0-3.1,1.4-3.1,3.2
		C213.3,245,214.8,246.4,216.5,246.4z"/>
	<path class="st4" d="M107.1,259.6c0-0.2-0.1-0.4-0.4-0.4h-0.7v-0.9h1.1c0.7,0,1,0.3,1,1v5.8c0,0.2,0.1,0.4,0.4,0.4h0.7v0.9h-1.1
		c-0.7,0-1-0.3-1-1V259.6z M107.1,255.1h1.1v1.4h-1.1V255.1z"/>
	<path class="st4" d="M112.7,256.4c0-0.2-0.1-0.4-0.4-0.4h-0.7v-0.9h1.1c0.7,0,1,0.3,1,1v9c0,0.2,0.1,0.4,0.4,0.4h0.7v0.9h-1.1
		c-0.7,0-1-0.3-1-1V256.4z"/>
	<path class="st4" d="M129.4,258.1c0-1.2-0.9-2.1-2.3-2.1c-1.1,0-2,0.6-2,1.2v0.5H124v-0.8c0-1.4,1.9-2,3.1-2c2.1,0,3.4,1.4,3.4,3.2
		c0,4-6,3.9-6,7c0,0.2,0.1,0.3,0.4,0.3h4.7c0.2,0,0.4-0.1,0.4-0.4v-0.8h1v1.1c0,0.7-0.3,1-1,1h-5.6c-0.8,0-1-0.3-1-1.1
		C123.4,261.1,129.4,261.5,129.4,258.1z"/>
	<path class="st4" d="M134.3,260.8c0-3.2,0.9-5.8,3.9-5.8c2.9,0,3.9,2.6,3.9,5.8c0,3.3-1,5.8-3.9,5.8
		C135.2,266.6,134.3,264,134.3,260.8z M140.9,260.8c0-2.7-0.6-4.8-2.7-4.8c-2.1,0-2.7,2.1-2.7,4.8c0,2.7,0.6,4.8,2.7,4.8
		C140.3,265.6,140.9,263.5,140.9,260.8z"/>
	<path class="st4" d="M145.5,264.2c0,0,1.2,1.3,2.9,1.3c1.3,0,2.5-1,2.5-2.4c0-1.5-1.3-2.4-2.7-2.4h-0.8l-0.3-0.7l2.8-3.3
		c0.3-0.4,0.6-0.6,0.6-0.6v0c0,0-0.3,0-0.9,0h-2.9c-0.2,0-0.4,0.1-0.4,0.4v0.8h-1v-1.1c0-0.7,0.3-1,0.9-1h5.7v0.7l-3.3,3.9
		c1.4,0.1,3.5,0.9,3.5,3.3c0,1.9-1.6,3.5-3.7,3.5c-2.2,0-3.6-1.6-3.6-1.6L145.5,264.2z"/>
	<path class="st4" d="M155.5,260.8c0-3.2,0.9-5.8,3.9-5.8c2.9,0,3.9,2.6,3.9,5.8c0,3.3-1,5.8-3.9,5.8
		C156.4,266.6,155.5,264,155.5,260.8z M162.1,260.8c0-2.7-0.6-4.8-2.7-4.8c-2.1,0-2.7,2.1-2.7,4.8c0,2.7,0.6,4.8,2.7,4.8
		C161.5,265.6,162.1,263.5,162.1,260.8z"/>
</g>
</svg>
