<?xml version="1.0" encoding="utf-8"?>
<!-- Generator: Adobe Illustrator 23.0.0, SVG Export Plug-In . SVG Version: 6.00 Build 0)  -->
<svg version="1.1" id="Livello_1" xmlns="http://www.w3.org/2000/svg" xmlns:xlink="http://www.w3.org/1999/xlink" x="0px" y="0px"
	 viewBox="0 0 1169.9 532.6" style="enable-background:new 0 0 1169.9 532.6;" xml:space="preserve">
<style type="text/css">
	.st0{fill:#DF0514;}
	.st1{filter:url(#Adobe_OpacityMaskFilter);}
	.st2{fill:url(#SVGID_2_);}
	.st3{opacity:0.1;mask:url(#SVGID_1_);}
	.st4{fill:none;stroke:#404040;stroke-width:1.2795;stroke-miterlimit:10;}
	.st5{fill:none;stroke:#404040;stroke-width:1.2795;stroke-miterlimit:10;stroke-dasharray:3.3312,3.3312;}
	.st6{fill:#404040;}
	.st7{fill:none;stroke:#000000;stroke-width:0.853;stroke-miterlimit:10;}
	.st8{fill:none;stroke:#000000;stroke-width:0.9789;stroke-miterlimit:10;}
	.st9{fill:none;stroke:#000000;stroke-width:1.2795;stroke-miterlimit:10;}
	.st10{fill:none;stroke:#000000;stroke-width:1.2795;stroke-miterlimit:10;stroke-dasharray:3.3404,3.3404;}
	.st11{fill:#868686;}
	.st12{fill:#9E9E9E;}
	.st13{fill:none;stroke:#CECECE;stroke-miterlimit:10;}
	.st14{fill:none;stroke:#A2A2A2;stroke-miterlimit:10;}
	.st15{fill:none;stroke:#DBDBDB;stroke-miterlimit:10;}
	.st16{fill:none;stroke:#D2D2D2;stroke-miterlimit:10;}
	.st17{fill:none;stroke:#CDCDCD;stroke-miterlimit:10;}
	.st18{fill:none;stroke:#000000;stroke-width:0.738;stroke-miterlimit:10;}
	.st19{fill:#666666;}
	.st20{fill:#4F4F4F;}
	.st21{fill:#7B7B7B;}
	.st22{fill-rule:evenodd;clip-rule:evenodd;fill:#777777;}
	.st23{fill:#A2A2A2;}
	.st24{fill:#DBDBDB;}
	.st25{fill:#CECECE;}
	.st26{fill:#D2D2D2;}
	.st27{fill:#CDCDCD;}
	.st28{fill:#FFFFFF;}
	.st29{fill:none;stroke:#EDEDED;stroke-width:0.853;stroke-miterlimit:10;}
	.st30{fill:#EBEBEB;}
	.st31{clip-path:url(#SVGID_4_);}
	.st32{fill:none;stroke:#636362;stroke-width:1.2795;stroke-miterlimit:10;}
	.st33{fill:none;stroke:#636362;stroke-width:1.2795;stroke-miterlimit:10;stroke-dasharray:3.3312,3.3312;}
	.st34{fill:#636362;}
	.st35{fill:#12100B;}
	.st36{fill:none;stroke:#1D1D1B;stroke-width:0.853;stroke-miterlimit:10;}
	.st37{fill:none;stroke:#12100B;stroke-width:0.9789;stroke-miterlimit:10;}
	.st38{fill:none;stroke:#1D1D1B;stroke-width:1.2795;stroke-miterlimit:10;}
	.st39{fill:none;stroke:#1D1D1B;stroke-width:1.2795;stroke-miterlimit:10;stroke-dasharray:3.3404,3.3404;}
	.st40{fill:#1D1D1B;}
	.st41{fill:#00295A;}
	.st42{fill:#EE7900;}
	.st43{fill:#009C3D;}
	.st44{fill:none;stroke:#D8B200;stroke-miterlimit:10;}
	.st45{fill:none;stroke:#AC9EAD;stroke-miterlimit:10;}
	.st46{fill:none;stroke:#82C3E3;stroke-miterlimit:10;}
	.st47{fill:none;stroke:#B4CC6F;stroke-miterlimit:10;}
	.st48{fill:none;stroke:#D9C086;stroke-miterlimit:10;}
	.st49{fill:none;stroke:#1D1D1B;stroke-width:0.738;stroke-miterlimit:10;}
	.st50{fill:#E40077;}
	.st51{fill:#E30520;}
	.st52{fill:#00883D;}
	.st53{fill-rule:evenodd;clip-rule:evenodd;fill:#EA6508;}
	.st54{fill:#AC9EAD;}
	.st55{fill:#82C3E3;}
	.st56{fill:#D8B200;}
	.st57{fill:#B4CC6F;}
	.st58{fill:#D9C086;}
	.st59{fill:none;stroke:#ECECEC;stroke-width:0.853;stroke-miterlimit:10;}
	.st60{fill:#EBEAE9;}
	.st61{fill:#CEB112;}
</style>
<g>
	<g>
		<g>
			<path class="st0" d="M1142.8,249.1l-10.8,0l-3.4-10.1l-3.4,10.1l-11.6,0l9.1,6.2l-3.5,10.1l9.4-6.3l8.7,6.3l-3.5-10.1
				L1142.8,249.1z M1135.1,262.7l-6.6-4.8l-7.3,4.8l2.7-7.7l-7-4.8l9,0l2.6-7.8l2.6,7.8l8.2,0l-7,4.8L1135.1,262.7z M1137.7,250.7
				l-6.9,0l-2.2-6.6l-2.2,6.6l-7.7,0l5.9,4l-2.3,6.6l6.2-4.1l5.6,4.1l-2.3-6.6L1137.7,250.7z"/>
		</g>
	</g>
</g>
<g>
	<defs>
		<filter id="Adobe_OpacityMaskFilter" filterUnits="userSpaceOnUse" x="19.7" y="23.1" width="444.1" height="461.9">
			<feColorMatrix  type="matrix" values="1 0 0 0 0  0 1 0 0 0  0 0 1 0 0  0 0 0 1 0"/>
		</filter>
	</defs>
	<mask maskUnits="userSpaceOnUse" x="19.7" y="23.1" width="444.1" height="461.9" id="SVGID_1_">
		<g class="st1">
			
				<radialGradient id="SVGID_2_" cx="266.4659" cy="189.9943" r="220.3333" gradientTransform="matrix(1.0847 0 0 1.0955 -54.1967 42.1762)" gradientUnits="userSpaceOnUse">
				<stop  offset="0" style="stop-color:#FFFFFF"/>
				<stop  offset="1" style="stop-color:#000000"/>
			</radialGradient>
			<rect x="-4.2" y="8.9" class="st2" width="478" height="482.8"/>
		</g>
	</mask>
	<g class="st3">
		<g>
			<g>
				<path class="st4" d="M444.3,376c-0.3,0.5-0.6,0.9-0.9,1.4"/>
				<path class="st5" d="M441.6,380.3c-57.4,88.2-170.2,127.9-272.7,89.3C50.4,424.9-9.4,292.8,35.1,174.3
					C75.1,68.2,185.2,9.1,292.9,30"/>
				<path class="st4" d="M294.5,30.3c0.5,0.1,1.1,0.2,1.6,0.3"/>
			</g>
		</g>
		<circle class="st6" cx="444.3" cy="376" r="7"/>
		<polygon class="st6" points="298.3,31 297.5,23.1 308.8,32.8 294.9,38.3 		"/>
		<g>
			<g>
				<path d="M248.9,46c114.7,0,208.1,92.4,209.2,207.3c1.1,115.6-91.7,210.1-207.3,211.2c-0.7,0-1.3,0-2,0
					c-114.7,0-208.1-92.4-209.2-207.3C38.5,141.7,131.3,47.1,246.9,46C247.6,46,248.3,46,248.9,46 M248.9,45.2
					C248.9,45.2,248.9,45.2,248.9,45.2C248.9,45.2,248.9,45.2,248.9,45.2C248.9,45.2,248.9,45.2,248.9,45.2L248.9,45.2
					c-0.7,0-1.3,0-2,0c-28.4,0.3-55.8,6.1-81.6,17.3c-24.9,10.8-47.2,26.2-66.4,45.7s-34,42.1-44.4,67.2c-10.7,26-16,53.6-15.7,81.9
					c0.3,28.2,6,55.5,17.1,81.2c10.7,24.8,25.9,47,45.2,66.1c19.3,19.1,41.7,34.1,66.6,44.5c25.8,10.8,53.1,16.3,81.2,16.3
					c0.7,0,1.3,0,2,0c28.4-0.3,55.8-6.1,81.6-17.3c24.9-10.8,47.2-26.2,66.4-45.7s34-42.1,44.4-67.2c10.7-26,16-53.6,15.7-81.9
					c-0.3-28.2-6-55.5-17.1-81.2c-10.7-24.8-25.9-47-45.2-66.1c-19.3-19.1-41.7-34.1-66.6-44.5C304.4,50.6,277.1,45.2,248.9,45.2
					L248.9,45.2L248.9,45.2z"/>
			</g>
			<line class="st7" x1="153.1" y1="224.4" x2="361.3" y2="291.5"/>
			<line class="st7" x1="258.8" y1="141.1" x2="238.7" y2="372.5"/>
			<line class="st7" x1="188.6" y1="174.8" x2="319.7" y2="349.8"/>
			<line class="st7" x1="316.8" y1="158.8" x2="188" y2="355.8"/>
			<line class="st7" x1="332.8" y1="173.4" x2="164.5" y2="337.5"/>
			<line class="st7" x1="235.6" y1="156.5" x2="264.5" y2="371.3"/>
			<line class="st8" x1="354.7" y1="203.3" x2="142.9" y2="307.3"/>
			<line class="st8" x1="365" y1="237.2" x2="135.1" y2="273"/>
			<g>
				<g>
					<path class="st9" d="M259.3,137c0.6,0.1,1.1,0.1,1.7,0.2"/>
					<path class="st10" d="M264.3,137.6c52.7,7.2,95.7,49.5,101.4,104.8c6.7,64.8-40.4,122.8-105.2,129.4
						c-57.5,5.9-109.6-30.5-125.3-84"/>
					<path class="st9" d="M134.7,286.2c-0.1-0.5-0.3-1.1-0.4-1.6"/>
				</g>
			</g>
			<circle cx="259.3" cy="137" r="6.1"/>
			<polygon points="134,283.7 128.4,287.2 131.4,275.2 140.7,283.5 			"/>
			<g>
				<path d="M248.9,170.3c22.5,0,43.7,8.7,59.7,24.6c16,15.9,25,37,25.2,59.6c0.4,46.8-37.3,85.3-84.1,85.7c-0.3,0-0.5,0-0.8,0
					c-22.5,0-43.7-8.7-59.7-24.6c-16-15.9-25-37-25.2-59.6c-0.2-22.7,8.4-44.1,24.3-60.3c15.9-16.2,37.1-25.2,59.8-25.4
					C248.4,170.3,248.6,170.3,248.9,170.3L248.9,170.3 M248.9,162.3c-0.3,0-0.6,0-0.9,0c-51.3,0.5-92.5,42.5-92.1,93.8
					c0.5,51,42,92.1,92.9,92.1c0.3,0,0.6,0,0.9,0c51.3-0.5,92.5-42.5,92.1-93.8C341.3,203.4,299.8,162.3,248.9,162.3L248.9,162.3z"
					/>
			</g>
			<g>
				<path class="st11" d="M248.9,162.7c24.5,0,47.7,9.5,65.1,26.8c17.5,17.3,27.2,40.3,27.4,64.9c0.2,24.7-9.2,48.1-26.5,65.7
					c-17.3,17.6-40.5,27.5-65.2,27.7c-0.3,0-0.6,0-0.9,0c-24.5,0-47.7-9.5-65.1-26.8c-17.5-17.3-27.2-40.3-27.4-64.9
					c-0.5-51,40.7-93,91.7-93.4C248.3,162.7,248.6,162.7,248.9,162.7L248.9,162.7 M248.9,154.7c-0.3,0-0.6,0-1,0
					c-55.5,0.5-100.1,46-99.6,101.5c0.5,55.2,45.4,99.6,100.5,99.6c0.3,0,0.6,0,1,0c55.5-0.5,100.1-46,99.6-101.5
					C348.9,199.1,304,154.7,248.9,154.7L248.9,154.7z"/>
			</g>
			<g>
				<path class="st12" d="M248.9,155.6c26.4,0,51.3,10.2,70.1,28.8c18.8,18.6,29.3,43.4,29.5,69.8c0.3,26.6-9.9,51.7-28.5,70.7
					c-18.6,19-43.6,29.6-70.2,29.8c-0.3,0-0.6,0-1,0c-26.4,0-51.3-10.2-70.1-28.8c-18.8-18.6-29.3-43.4-29.5-69.8
					c-0.3-26.6,9.9-51.7,28.5-70.7s43.6-29.6,70.2-29.8C248.3,155.6,248.6,155.6,248.9,155.6L248.9,155.6 M248.9,147.6
					c-0.3,0-0.7,0-1,0c-59.4,0.6-107.1,49.2-106.6,108.6c0.6,59.1,48.6,106.6,107.6,106.6c0.3,0,0.7,0,1,0
					c59.4-0.6,107.1-49.2,106.6-108.6C355.9,195.2,307.9,147.6,248.9,147.6L248.9,147.6z"/>
			</g>
			<g>
				<path class="st13" d="M303.2,92.7c22.7,7.6,43.7,19.9,61.4,36.1c21.7,19.8,38.6,45.5,48,75.7c5.6,18.2,8.1,36.6,7.7,54.7"/>
				<path class="st14" d="M110.3,154.5c21-28.9,51.1-51.5,87.9-62.9c35.6-11.1,72.2-9.9,105,1.1"/>
				<path class="st15" d="M108.9,354.2c-10.1-14.3-18.2-30.5-23.7-48.2c-16.6-53.7-5.6-109.3,25.1-151.6"/>
				<path class="st16" d="M194.6,417.8c-34.2-11.5-64.5-33.6-85.7-63.7"/>
				<path class="st16" d="M300.4,418.7c-0.3,0.1-0.5,0.2-0.8,0.3c-35.6,11.1-72.2,9.9-105-1.1"/>
				<path class="st17" d="M420.2,259.2c-1.6,71.4-48.1,136.9-119.8,159.5"/>
				<line class="st7" x1="365" y1="258" x2="177.1" y2="253.8"/>
				<line class="st7" x1="276" y1="174.1" x2="180.7" y2="459.4"/>
				<line class="st18" x1="399" y1="149.1" x2="161.2" y2="316.6"/>
				<line class="st7" x1="332.4" y1="256.9" x2="62.9" y2="251.5"/>
				<line class="st7" x1="394.3" y1="361.1" x2="103.4" y2="149.4"/>
				<line class="st7" x1="302.4" y1="427" x2="195.3" y2="83.5"/>
				<g>
					<g id="XMLID_216_">
						<path class="st19" d="M394,211.3c-0.4,2.2-1.3,5-0.1,6.8c1.7,2.6,6.2,4.2,7.1,5.3c0,0,0.1,0.6-0.5,0.3
							c-4.8-2.7-10.3-1.7-12.9,0.9c0,0-1.2-0.7-1.6-1c-1.4-0.3-6.7,2-8.2,3c0,0-0.7-0.1-0.2-0.5c2.6-2.1,5.3-3.5,6.5-4
							c0.5-0.2,0.4-0.4-0.1-0.4c-1.8-0.1-4.1,0.2-8.1,1.2c0,0-0.7-0.2,0-0.6c3.6-1.7,15.6-4.3,15.6-4.6c0.4-2.6,1.5-5.3,2.2-6.4
							C393.8,211.1,394,211.3,394,211.3z"/>
					</g>
					<g id="XMLID_212_">
						<path class="st19" d="M390.4,202.3c0,0.4,0.2,0.7,0.5,0.9c0.4,0.4,1,0.6,1.7,0.5c0.7,0,1.3-0.3,1.6-0.7c0.3-0.3,0.4-0.6,0.4-1
							c0-0.3-0.2-0.7-0.5-0.9c-0.4-0.4-1-0.6-1.7-0.5c-0.7,0-1.3,0.3-1.6,0.7C390.5,201.6,390.4,202,390.4,202.3z"/>
					</g>
					<g id="XMLID_208_">
						<path class="st19" d="M396.9,218.3c0.5-0.3,0.8-0.8,1-1.2c0.1-0.3,0-0.7-0.1-0.9c-0.2-0.3-0.4-0.4-0.8-0.5
							c-0.5-0.1-1.1,0-1.6,0.3c-0.9,0.5-1.2,1.5-0.8,2.2C395,218.8,396,218.9,396.9,218.3z"/>
					</g>
					<g id="XMLID_204_">
						<path class="st19" d="M387.2,213c0.1,0.2,0.3,0.4,0.5,0.5c0.4,0.2,1,0.2,1.5,0c0.9-0.3,1.4-1.1,1.2-1.7
							c-0.1-0.2-0.3-0.4-0.5-0.5c-0.4-0.2-1-0.2-1.5,0C387.6,211.7,387,212.4,387.2,213z"/>
					</g>
					<g id="XMLID_200_">
						<path class="st19" d="M374.6,214.8L374.6,214.8L374.6,214.8c3.6-0.5,5.5-0.4,6-0.4c-0.8,0.3-3.7,1.9-4.6,2.6
							c-0.5,0.5,0,0.7,0,0.7c9.3-3.9,11.3-1.9,13.9-0.3c0.3,0.2,0.4-0.1,0.4-0.1c-0.2-0.4-1.7-2-1.9-2.1c-3.8-3.5-1.6-6.4-1.4-7.1
							c0,0-0.1-0.3-0.5,0c-0.5,0.4-1.7,2.2-2.1,4c-2.4,0-8.1,1.4-9.9,2.1C374,214.5,374.6,214.8,374.6,214.8z"/>
					</g>
					<g id="XMLID_196_">
						<path class="st19" d="M384.9,192.2c-0.6,3.1,0.2,8.1,0.8,10.2c-6.5,1.1-13.4,3.5-16.6,5.4c-0.8,0.5,0,0.8,0,0.8
							c3.5-1.3,9.2-2.3,10.8-1.6c-1.8,1-6,3.9-8.5,7c-0.5,0.6,0.1,0.8,0.1,0.8c13.4-9,18.1-8.4,23.1-7.7c1.6,0.2,3.2,0.4,5.1,0.4
							c0.9,0,0.3-0.8,0.3-0.8c-7.4-0.7-13.7-3.2-14.5-15C385.5,191.8,385.1,191.6,384.9,192.2z"/>
					</g>
				</g>
				<g>
					<g id="XMLID_192_">
						<path class="st19" d="M102.9,206.1c1.6-1.5,4-3.2,4.1-5.4c0.2-3.1-2.5-7.1-2.6-8.5c0,0,0.3-0.6,0.6,0.1
							c2.3,5,7.3,7.5,10.9,6.9c0,0,0.5,1.3,0.7,1.8c0.9,1.1,6.6,2.3,8.4,2.5c0,0,0.5,0.5-0.1,0.5c-3.3,0.2-6.3-0.3-7.6-0.6
							c-0.5-0.1-0.6,0.1-0.2,0.4c1.4,1.2,3.4,2.3,7.3,3.9c0,0,0.4,0.6-0.3,0.5c-3.9-0.7-15.1-5.8-15.3-5.5c-1.9,1.8-4.3,3.4-5.5,3.8
							C102.9,206.5,102.9,206.1,102.9,206.1z"/>
					</g>
					<g id="XMLID_188_">
						<path class="st19" d="M100.5,215.6c0.2-0.3,0.3-0.6,0.2-1c-0.1-0.5-0.5-1.1-1-1.4c-0.5-0.4-1.2-0.5-1.7-0.4
							c-0.4,0.1-0.7,0.3-0.9,0.6c-0.2,0.3-0.3,0.7-0.2,1c0.1,0.5,0.5,1.1,1,1.4c0.5,0.4,1.2,0.5,1.7,0.4
							C100,216.1,100.3,215.9,100.5,215.6z"/>
					</g>
					<g id="XMLID_184_">
						<path class="st19" d="M104.7,198.8c-0.6,0-1.1,0.1-1.5,0.4c-0.3,0.2-0.4,0.5-0.4,0.8c0,0.3,0.1,0.6,0.3,0.9
							c0.3,0.4,0.9,0.6,1.4,0.7c1,0.1,1.9-0.5,1.9-1.3C106.5,199.6,105.7,198.9,104.7,198.8z"/>
					</g>
					<g id="XMLID_180_">
						<path class="st19" d="M109.3,208.8c0.1-0.2,0-0.5-0.1-0.7c-0.2-0.4-0.7-0.7-1.2-0.9c-0.9-0.3-1.8,0-2,0.6
							c-0.1,0.2,0,0.5,0.1,0.7c0.2,0.4,0.7,0.7,1.2,0.9C108.3,209.7,109.1,209.4,109.3,208.8z"/>
					</g>
					<g id="XMLID_176_">
						<path class="st19" d="M120.6,214.9L120.6,214.9L120.6,214.9c-3.2-1.7-4.7-2.9-5.1-3.3c0.9,0.3,4.1,0.7,5.3,0.6
							c0.7-0.1,0.4-0.6,0.4-0.6c-9.8-2.4-10.3-5.2-11.4-8c-0.1-0.3-0.4-0.2-0.4-0.2c-0.1,0.5,0.2,2.6,0.3,2.9c1,5.1-2.5,6.1-3.1,6.6
							c0,0-0.1,0.3,0.4,0.3c0.6-0.1,2.7-0.8,4.1-2c1.9,1.4,7.3,3.7,9.2,4.2C120.9,215.5,120.6,214.9,120.6,214.9z"/>
					</g>
					<g id="XMLID_172_">
						<path class="st19" d="M98.9,226.9c2.3-2.1,4.6-6.6,5.4-8.7c5.9,2.9,12.9,5.1,16.6,5.5c1,0.1,0.5-0.6,0.5-0.6
							c-3.6-1-8.8-3.7-9.6-5.1c2,0.3,7.2,0.4,11-0.6c0.8-0.2,0.4-0.7,0.4-0.7c-16.1-0.7-19.6-4-23.1-7.5c-1.2-1.1-2.3-2.2-3.9-3.3
							c-0.8-0.5-0.7,0.4-0.7,0.4c5.6,4.9,9.2,10.7,2.8,20.7C98.1,226.9,98.4,227.4,98.9,226.9z"/>
					</g>
				</g>
				<g>
					<path class="st20" d="M253.8,414.7l-3-9.7l8.3-5.8l-10.1-0.1l-3-9.7l-3.3,9.6l-10.1-0.1l8.1,6.1l-3.3,9.6l8.3-5.8L253.8,414.7z
						 M239,412.3l2.6-7.7l-6.6-4.9l8.2,0.1l2.6-7.8l2.4,7.8l8.2,0.1l-6.7,4.7l2.4,7.8l-6.6-4.9L239,412.3z"/>
					<polygon class="st20" points="245.9,394.2 243.7,400.5 237.1,400.4 242.4,404.4 240.3,410.6 245.7,406.8 251,410.8 251,410.7 
						249,404.5 254.5,400.6 247.8,400.5 245.9,394.2 					"/>
				</g>
				<g>
					<path class="st20" d="M175.6,151.4l-3-9.7l8.3-5.8l-10.1-0.1l-3-9.7l-3.3,9.6l-10.1-0.1l8.1,6.1l-3.3,9.6l8.3-5.8L175.6,151.4z
						 M160.9,149l2.6-7.7l-6.6-4.9l8.2,0.1l2.6-7.8l2.4,7.8l8.2,0.1l-6.7,4.7l2.4,7.8l-6.6-4.9L160.9,149z"/>
					<polygon class="st20" points="167.7,130.9 165.6,137.2 159,137.1 164.3,141 162.1,147.3 167.6,143.5 172.9,147.4 172.9,147.4 
						170.9,141.1 176.4,137.3 169.7,137.2 167.7,130.9 					"/>
				</g>
				<path class="st21" d="M339.2,158.4c0.1-3,0.2-6,0.3-9c0.2-6.2,0.4-12.9,0.6-19l-26.8,10.1c0,0,0.1,0.1,0.2,0.1
					c1.6,1.2,3.2,2.3,4.9,3.5c0.2,0.2,0.2,0.2,0.2,0.2l14.2-5.2c1-0.4,1.5,0,1.5,1c-0.1,4.5-0.3,10.5-0.4,15c0,0,0.6,0.4,1.4,1
					c0.3,0.2,0.5,0.4,0.8,0.6c1.1,0.8,2.1,1.5,3.3,2.3C339.1,158.8,339.1,158.6,339.2,158.4z M337.8,138.3c0,0-0.7-0.5-0.7-0.5
					l-0.3-0.2c0-0.3,0-1.3,0-1.7c-0.1-0.7-0.5-1-1.2-0.8c-0.4,0.1-1.2,0.5-1.6,0.6c0,0-0.1-0.1-0.3-0.2c-0.4-0.3-0.9-0.7-1.5-1.1
					c2.2-0.8,4.3-1.6,6.5-2.4l-0.2,6.7C338.5,138.8,337.8,138.3,337.8,138.3z"/>
				<path class="st21" d="M116.1,280.9c-1.9,2.3-3.7,4.7-5.6,7c-3.9,4.8-8,10-11.9,14.9l27.5,8c0,0,0-0.2-0.1-0.2
					c-0.6-1.9-1.2-3.8-1.8-5.7c-0.1-0.3-0.1-0.3-0.1-0.3l-14.4-4.4c-1-0.3-1.2-0.9-0.6-1.7c2.8-3.6,6.5-8.2,9.4-11.8
					c0,0-0.2-0.6-0.5-1.6c-0.1-0.3-0.2-0.6-0.3-1c-0.4-1.2-0.8-2.5-1.2-3.8C116.3,280.6,116.2,280.8,116.1,280.9z M105.1,297.8
					c0,0,0.2,0.8,0.3,0.8l0.1,0.3c-0.2,0.2-0.8,1-1,1.4c-0.4,0.6-0.2,1.1,0.5,1.3c0.4,0.1,1.2,0.4,1.7,0.5c0,0,0,0.1,0.1,0.4
					c0.2,0.5,0.3,1.1,0.5,1.8c-2.3-0.7-4.4-1.3-6.6-2l4.2-5.2C104.8,296.9,105.1,297.8,105.1,297.8z"/>
				<g>
					<path class="st22" d="M155.5,382.3c-0.2-1.1-0.4-2.1-0.1-3.2c0.1-0.3,0-0.4-0.3-0.6c-0.9-0.4-1.6-1.1-2.2-2
						c2,0.6,4,0.6,6.1,0.2C157.4,378.4,156.4,380.3,155.5,382.3z"/>
					<path class="st22" d="M152.1,372.3c-0.5,1.2-0.1,2.8,1.1,3.5c0.9,0.5,1.8,0.8,2.8,0.8c2.3,0,4.2-0.9,5.9-2.4
						c0.8-0.7,1.5-1.5,2.1-2.4c0.2-0.3,0.2-0.3,0.5-0.1c0,0,0.1,0.1,0.1,0.1c-0.1,0.2-0.2,0.4-0.3,0.5c-0.5,0.8-1,1.6-1.7,2.3
						c-0.8,0.8-1.7,1.6-2.6,2.4c-0.8,0.8-1.6,1.6-2.2,2.5c-0.6,0.9-1.1,1.9-1.4,3c-0.5,1.8-0.7,3.5-0.4,5.3c0,0.3,0.1,0.5,0.1,0.8
						c0,0,0,0,0,0c1-0.4,1.9-0.9,2.8-1.5c1.1-0.8,2-1.8,2.7-2.9c0.5-0.8,1-1.7,1.3-2.6c0.4-1,0.5-2,0.7-3c0.2-1.7,0.4-3.4,1.1-5
						c0.2-0.5,0.4-0.9,0.6-1.4c0.2,0.1,0.3,0.1,0.5,0.2c0,0.1-0.1,0.2-0.1,0.2c-0.2,0.5-0.4,1-0.6,1.6c-0.6,2.3-0.5,4.6,0.5,6.8
						c0.6,1.2,1.4,2.2,2.7,2.8c0.5,0.2,0.9,0.3,1.4,0.2c1.3-0.1,2.4-1.2,2.6-2.6c0.2-1.1-0.1-2.1-0.6-3.1c-0.4-0.8-0.8-1.7-1.2-2.5
						c-0.3-0.7-0.6-1.4-0.5-2.2c0,0,0-0.1,0-0.1c-0.4,0.3-0.8,0.6-1.1,0.9c0.1,0.2,0.3,0.5,0.5,0.8c0.3,0.5,0.5,1,0.4,1.6
						c-0.1,1.1-1.1,1.8-2.1,1.4c-0.6-0.2-0.9-0.6-1.2-1.2c-0.5-1-0.6-2.1-0.3-3.1c0.1-0.4,0.3-0.8,0.4-1.2c0.4,0.1,0.7,0.2,1,0.3
						c0.6,0.1,0.6,0.1,0.8-0.4c0,0,0,0,0,0c0-0.1,0-0.2,0-0.2c-0.1-0.1-0.3-0.3-0.4-0.4c-0.2-0.2-0.4-0.3-0.6-0.5
						c0.3-0.4,0.7-0.6,1.1-0.7c0.7-0.2,1.4-0.2,2,0.3c0.2,0.1,0.3,0.3,0.4,0.5c0.2-0.2,0.4-0.5,0.5-0.9c0.2-0.8-0.1-1.5-0.9-1.8
						c-0.7-0.3-1.3-0.2-1.9,0.1c-0.8,0.4-1.4,1-2,1.7c-0.2,0.3-0.2,0.3-0.5,0.1c-0.1-0.1-0.1-0.1,0-0.3c0.5-0.6,1-1.2,1.5-1.7
						c0.4-0.4,0.7-0.8,0.9-1.4c0.3-0.9,0.4-1.7,0.2-2.6c-0.4,0.8-2.3,4.4-2.3,4.4s0.7-0.3,1.2-1c0.6-0.8,0.8-1.4,0.8-1.7
						c0-0.1,0-0.1,0-0.1s0,0,0,0.1c-0.1,0.3-0.3,1.2-0.7,1.7c-0.6,0.8-1.5,1.1-1.5,1.1s-0.4-1.3,0.4-2.7c0.4-0.6,1.4-1.3,1.9-1.9
						c0,0,0-0.1,0-0.1c0-0.1,0-0.1,0-0.2c-0.3,0.2-0.7,0.4-1,0.6c-0.7,0.5-1.3,1.1-1.6,1.9c-0.2,0.5-0.3,1-0.4,1.5
						c-0.1,0.6-0.3,1.2-0.5,1.8c-0.2-0.1-0.3-0.1-0.4-0.2c0,0,0,0,0-0.1c0-0.1,0.1-0.3,0.1-0.4c0.2-0.8,0.4-1.7,0.2-2.6
						c-0.1-0.7-0.5-1.3-1.2-1.6c-0.7-0.3-1.4-0.1-1.8,0.6c-0.2,0.3-0.3,0.5-0.4,0.8c1.3-0.3,2.5,1.4,2.1,2.9
						c-0.3-0.1-0.6-0.2-0.9-0.2c-0.6-0.1-0.5-0.1-0.8,0.4c-0.1,0.1-0.1,0.2,0.1,0.3c0.3,0.3,0.6,0.5,1,0.8c0.1,0.1,0.1,0.1,0,0.3
						c-0.5,0.8-1.1,1.4-1.8,1.9c-0.8,0.5-1.7,0.7-2.6,0.5c-0.6-0.1-1-0.5-1.2-1c-0.3-0.8,0.1-1.6,0.9-2c0.4-0.2,0.9-0.3,1.3-0.3
						c0.3,0,0.6,0,0.9-0.1c-0.1-0.5,0-0.9,0.1-1.3c0,0,0-0.1,0-0.1c-0.1,0-0.1,0-0.2,0c-0.4,0.3-0.8,0.5-1.3,0.6
						c-1.1,0.2-2.1,0.4-3.2,0.6c-0.7,0.1-1.3,0.2-1.9,0.5C153.3,370.7,152.5,371.3,152.1,372.3z M169.1,378.7
						c1.5-0.5,1.4-2.1,1.4-2.1s0.8,1.5,0.4,3.1c-0.1,0.4-0.4,1-1,1.3c-1,0.4-1.7-0.2-2.1-0.6c-2.1-1.9-2.2-4.8-2.2-4.8
						C166.6,378.6,168.1,379.1,169.1,378.7z M165.9,379.2c1.1,4,3.6,4.3,4.5,4.1c2-0.5,1.7-3.4,1.7-3.4s0.3,1.2-0.3,2.4
						c-0.1,0.2-0.6,1-1.2,1.2c-1,0.4-2.1,0-2.7-0.5c-3.6-2.8-2.3-7.4-2.3-7.4C165.6,377.1,165.6,378.3,165.9,379.2z M170.5,369.6
						c0.6,0.2,0.8,1.1,0.8,1.1c-1.5-1.5-3.3-0.1-3.3-0.1S169.2,369.3,170.5,369.6z M157,387.5c0,0,2.1-1,3.8-3.3
						c1.8-2.6,2.4-4.5,2.6-5.3c0.1-0.2,0.1-0.4,0.1-0.4s0,0.1-0.1,0.4c-0.2,1-1,3.8-2.2,5.5c-1.8,2.6-4.6,3.7-4.6,3.7
						s-1-4.1,1.6-8.4c1.2-2.1,4.7-4.5,6.2-6.5C164.4,373.1,157,387.5,157,387.5z M162.8,366.2c0,0,0.8-0.4,1.3,0
						c1,0.8,0.6,2.6,0.6,2.6S164.9,366.6,162.8,366.2z M155.3,371.5c1.2-1.2,2.8-1.4,2.8-1.4s-1.4,0.9-0.9,2.4c0.3,1,1.5,2,4.5,1.1
						c0,0-2.5,1.6-5.2,0.9c-0.5-0.1-1.4-0.3-1.6-1.4C154.7,372.4,155.1,371.8,155.3,371.5z M152.8,372.3c0.7-1.1,1.8-1.6,1.8-1.6
						s-2.5,1.4-1.8,3.3c0.3,0.8,2,2.8,5.9,1.4c0.9-0.3,1.9-1,3.1-1.8c0,0-3.1,3.7-7.4,2.3c-0.7-0.2-1.7-0.9-1.9-2
						C152.3,373.3,152.7,372.4,152.8,372.3z"/>
				</g>
				<path class="st23" d="M196.2,85.4c37.1-11.5,75.1-10.2,109.3,1.3l11.6-35.2c-41.3-13.9-87.2-15.4-131.9-1.5
					c-45.9,14.2-83.7,42.5-110,78.6l30,21.8C127,120.5,158.2,97.1,196.2,85.4z"/>
				<path class="st24" d="M79,308c-17.3-55.8-5.7-113.7,26.3-157.6l-30-21.8c-38.6,53-52.6,122.9-31.7,190.4
					c6.9,22.3,17.1,42.6,29.9,60.7l30.3-21.4C93.2,343.3,84.7,326.4,79,308z"/>
				<path class="st25" d="M463.9,255.3c0-21.1-3.1-42.5-9.7-63.7c-21.3-68.6-73.8-118.9-137-140.2l-11.6,35.2
					c52.3,17.6,95.7,59.2,113.3,115.9c5.4,17.5,8,35.3,8,52.7H463.9z"/>
				<path class="st26" d="M313.3,460.3l-11-35.4c-0.2,0.1-0.5,0.2-0.7,0.2c-75.4,23.4-154.5-5.9-197.8-66.9l-30.3,21.4
					c52.3,73.8,148,109.2,239.1,81C312.8,460.5,313,460.4,313.3,460.3z"/>
				<g>
					<g id="XMLID_168_">
						<path class="st19" d="M253.7,105.4c1.9,1.1,4.2,2.9,6.4,2.4c3-0.7,6.1-4.4,7.4-4.9c0,0,0.6,0.1,0.1,0.6
							c-4.2,3.6-5.1,9.1-3.5,12.4c0,0-1.1,0.9-1.5,1.2c-0.7,1.2-0.4,7,0,8.7c0,0-0.3,0.6-0.5,0.1c-1.1-3.2-1.5-6.2-1.6-7.5
							c0-0.5-0.2-0.5-0.5,0c-0.7,1.6-1.2,4-1.6,8.1c0,0-0.5,0.6-0.5-0.1c-0.4-4,1.3-16.1,1-16.3c-2.3-1.3-4.5-3.2-5.2-4.2
							C253.4,105.5,253.7,105.4,253.7,105.4z"/>
					</g>
					<g id="XMLID_164_">
						<path class="st19" d="M244,105.7c0.3,0.1,0.7,0.1,1-0.1c0.5-0.3,0.9-0.8,1.1-1.4c0.2-0.6,0.2-1.3-0.1-1.8
							c-0.2-0.4-0.5-0.6-0.8-0.7c-0.3-0.1-0.7-0.1-1.1,0.1c-0.5,0.3-0.9,0.8-1.1,1.4c-0.2,0.6-0.2,1.3,0.1,1.8
							C243.4,105.4,243.7,105.6,244,105.7z"/>
					</g>
					<g id="XMLID_160_">
						<path class="st19" d="M261.3,105.1c-0.1-0.6-0.4-1.1-0.8-1.3c-0.3-0.2-0.6-0.3-0.9-0.2c-0.3,0.1-0.6,0.3-0.8,0.6
							c-0.3,0.4-0.3,1-0.2,1.6c0.2,1,1,1.7,1.8,1.5C261.1,107,261.5,106.1,261.3,105.1z"/>
					</g>
					<g id="XMLID_156_">
						<path class="st19" d="M253,112.3c0.2,0,0.5-0.1,0.7-0.3c0.3-0.3,0.5-0.8,0.5-1.4c0-0.9-0.5-1.7-1.1-1.7
							c-0.2,0-0.5,0.1-0.7,0.3c-0.3,0.3-0.5,0.8-0.5,1.4C251.9,111.5,252.4,112.3,253,112.3z"/>
					</g>
					<g id="XMLID_152_">
						<path class="st19" d="M250.4,124.8L250.4,124.8L250.4,124.8c0.7-3.6,1.5-5.3,1.7-5.8c0,0.9,0.5,4.2,0.9,5.2
							c0.3,0.7,0.7,0.3,0.7,0.3c-0.5-10.1,2.1-11.3,4.5-13.2c0.3-0.2,0.1-0.4,0.1-0.4c-0.5,0-2.4,1-2.7,1.1
							c-4.6,2.4-6.6-0.7-7.2-1.1c0,0-0.3,0-0.2,0.4c0.2,0.6,1.5,2.3,3,3.4c-0.8,2.2-1.5,8.1-1.4,10
							C249.9,125.3,250.4,124.8,250.4,124.8z"/>
					</g>
					<g id="XMLID_147_">
						<path class="st19" d="M232.7,107.4c2.7,1.7,7.7,2.5,9.9,2.7c-1.2,6.5-1.3,13.8-0.6,17.4c0.2,1,0.8,0.3,0.8,0.3
							c0-3.7,1-9.5,2.2-10.7c0.3,2,1.6,7,3.7,10.3c0.4,0.7,0.8,0.2,0.8,0.2c-3.8-15.7-1.7-19.9,0.7-24.3c0.8-1.4,1.5-2.8,2.1-4.7
							c0.3-0.9-0.6-0.6-0.6-0.6c-3.2,6.7-7.7,11.8-19,8.5C232.5,106.6,232.1,107,232.7,107.4z"/>
					</g>
				</g>
				<path class="st21" d="M368.3,315.6c3-0.5,5.9-1,8.9-1.5c6.1-1,12.7-2.2,18.8-3.2l-15.2-24.3c0,0-0.1,0.1-0.1,0.2
					c-0.8,1.8-1.6,3.6-2.4,5.4c-0.1,0.3-0.1,0.3-0.1,0.3l7.8,12.9c0.6,0.9,0.3,1.4-0.7,1.6c-4.4,0.8-10.4,1.8-14.8,2.6
					c0,0-0.3,0.6-0.7,1.5c-0.1,0.3-0.3,0.6-0.4,0.9c-0.5,1.2-1.1,2.4-1.6,3.7C368,315.7,368.2,315.6,368.3,315.6z M387.8,310.3
					c0,0,0.3-0.7,0.3-0.8l0.1-0.3c0.3,0,1.3-0.2,1.7-0.3c0.7-0.2,0.9-0.7,0.5-1.3c-0.2-0.4-0.7-1.1-0.9-1.5c0,0,0-0.1,0.2-0.4
					c0.2-0.5,0.5-1,0.8-1.7c1.2,2,2.4,3.9,3.6,5.9l-6.6,1.1C387.4,311.2,387.8,310.3,387.8,310.3z"/>
				<g id="GoFPfz.tif_2_">
					<g>
						
							<image style="overflow:visible;" width="2230" height="1476" id="Livello_1_2_" xlink:href="545CB6D963A6B582.png"  transform="matrix(-2.435497e-02 1.673787e-02 -1.673787e-02 -2.435497e-02 372.9764 373.3375)">
						</image>
					</g>
				</g>
				<path class="st27" d="M426.8,255.3c0,1.4,0,2.7,0,4.1c-1.7,74.1-49.9,142.1-124.5,165.6l11,35.4
					c90.1-28.3,148.5-110.5,150.5-200.1c0-1.6,0.1-3.3,0.1-4.9H426.8z"/>
			</g>
			<g>
				<circle class="st28" cx="248.9" cy="255.3" r="86.2"/>
				<g>
					<line class="st29" x1="309.5" y1="194.9" x2="187.6" y2="314.6"/>
					<line class="st29" x1="309" y1="315.7" x2="189.3" y2="193.8"/>
					<line class="st29" x1="295.7" y1="183.3" x2="201.6" y2="326.1"/>
					<line class="st29" x1="320.6" y1="301.7" x2="177.8" y2="207.6"/>
					<line class="st29" x1="333" y1="237.3" x2="164.7" y2="271.5"/>
					<line class="st29" x1="265.9" y1="338.6" x2="232" y2="171.1"/>
					<line class="st29" x1="334.7" y1="253.2" x2="163" y2="253.9"/>
					<line class="st29" x1="248.3" y1="340.3" x2="249.4" y2="169.5"/>
					<line class="st29" x1="307.5" y1="215.6" x2="190.3" y2="293.2"/>
					<line class="st29" x1="287.7" y1="313" x2="210" y2="195.8"/>
					<line class="st29" x1="317.8" y1="268" x2="179.9" y2="240.8"/>
					<line class="st29" x1="235.3" y1="323.4" x2="262.5" y2="185.4"/>
					<line class="st29" x1="313.5" y1="282.1" x2="184.3" y2="226.7"/>
					<line class="st29" x1="221.2" y1="319" x2="276.6" y2="189.8"/>
					<line class="st29" x1="314.1" y1="228.3" x2="183.6" y2="280.5"/>
					<line class="st29" x1="275" y1="319.7" x2="222.7" y2="189.1"/>
					<g>
						<polygon class="st30" points="249.4,185.6 267.8,238.1 324.1,237.6 277.1,270.4 295.8,322.8 250.1,290.5 201.6,323.7 
							219.5,271 171.6,239 232,238.5 						"/>
						<polygon class="st28" points="249.6,203.3 263.7,243.6 306.4,243.2 270.4,268.3 284.7,308.6 250.1,283.8 212.4,309.3 
							226,268.8 189.4,244.3 236.3,243.9 						"/>
						<polygon class="st30" points="249.7,212 261.6,246.3 297.7,246 267,267.3 279.2,301.6 250,280.5 217.7,302.1 229.3,267.7 
							198.2,247 238.3,246.5 						"/>
						<g>
							<path d="M238.1,284.9c0-1.4-1.2-2.5-2.6-2.5l-5.6,0.1l0.1,8.7l1.2,0l0-3.5l3.3,0l2.4,3.5l1.4,0l-2.4-3.6
								C237.3,287.1,238.1,286.3,238.1,284.9z M236.4,286c-0.2,0.2-0.5,0.4-0.9,0.4l-4.4,0l0-2.8l4.5,0c1,0,1.2,0.8,1.2,1.4l0,0
								C236.8,285.3,236.7,285.7,236.4,286z"/>
							<path d="M246.9,288c0,1.2-1.4,1.9-2.8,1.9c-1.3,0-2.7-0.6-2.7-1.8l-0.1-5.8l-1.2,0l0.1,5.9c0,0.7,0.3,1.4,0.8,1.9
								c0.7,0.7,1.7,1,3,1c0,0,0,0,0.1,0c2.7-0.1,4-1,4-3l-0.1-5.9l-1.2,0L246.9,288z"/>
							<path d="M256.7,282.2l-5.6,0.1l0.1,8.7l1.2,0l0-3.6l4.3,0c1.2,0,2.2-1.1,2.2-2.4v0c0-0.7-0.3-1.5-0.9-2
								C257.6,282.4,257.1,282.2,256.7,282.2z M257.6,284.8L257.6,284.8c0,0.4-0.1,0.8-0.4,1c-0.1,0.1-0.3,0.2-0.4,0.2l-4.4,0l0-2.8
								l4.3,0C257.1,283.3,257.5,284.1,257.6,284.8z"/>
							<path d="M266.5,282.1l-5.6,0.1l0.1,8.7l1.2,0l0-3.6l4.3,0c1.2,0,2.2-1.1,2.2-2.4c0-0.7-0.3-1.5-0.9-2
								C267.4,282.3,266.9,282.1,266.5,282.1z M267.4,284.8L267.4,284.8c0,0.4-0.1,0.8-0.4,1c-0.1,0.1-0.3,0.2-0.4,0.2l-4.4,0l0-2.8
								l4.3,0C266.9,283.2,267.4,284,267.4,284.8z"/>
							<path d="M274.7,290.8c1.5,0,2.8-0.6,3.7-1.5c0.8-0.8,1.2-1.9,1.2-3c0-3.1-2.6-4.4-5-4.4c-1.4,0-2.7,0.6-3.6,1.5
								c-0.8,0.8-1.2,1.9-1.2,3C269.9,288.7,272.2,290.8,274.7,290.8z M271.1,286.4c0-1.8,1.9-3.3,3.6-3.3c0,0,0,0,0.1,0
								c1,0,2.1,0.4,2.8,1.1c0.6,0.6,0.9,1.3,0.9,2.1c0,0.8-0.3,1.6-0.9,2.2c-0.7,0.7-1.7,1.1-2.8,1.1c0,0,0,0,0,0
								C272.7,289.7,271.1,288.2,271.1,286.4z"/>
							<path d="M223.5,287.6l3,0l0,1.5c-0.2,0.2-1.2,1-2.9,1c-2.3,0-3.7-1.2-3.8-3.3c0-1.9,1.4-3.2,3.6-3.2c0,0,0.1,0,0.1,0
								c1.7,0,3.1,1,3.1,1l0.1,0.1l0.8-0.9l-0.2-0.1c-1.4-0.9-2.6-1.4-3.9-1.4c-1.4,0-2.7,0.5-3.7,1.5c-0.8,0.8-1.3,1.9-1.2,3
								c0,2.8,2,4.5,5,4.5c2.7,0,4-1.7,4.1-1.7l0,0l0-3l-4.2,0L223.5,287.6z"/>
							<g>
								<polygon class="st20" points="249.2,203.7 256.1,223.4 277.2,223.2 259.6,235.5 266.6,255.2 249.4,243.1 231.2,255.6 
									237.9,235.8 219.9,223.8 242.6,223.6 								"/>
								<polygon class="st28" points="249.2,210.3 254.5,225.5 270.6,225.3 257,234.8 262.4,249.9 249.4,240.6 235.3,250.1 
									240.4,234.9 226.6,225.8 244.2,225.6 								"/>
								<polygon class="st20" points="249.3,213.6 253.8,226.5 267.3,226.4 255.8,234.4 260.3,247.3 249.4,239.3 237.3,247.5 
									241.6,234.5 229.9,226.7 245,226.6 								"/>
							</g>
							<path d="M179.8,268c0-0.5,0.3-1.2,1.9-1.2c1.5,0,2.8,0.7,2.8,0.7l-0.3-3.1c-0.2,0.2-0.5,0.3-0.7,0.2
								c-0.5-0.1-1.3-0.2-2.2-0.2c-3.3,0-4.8,2-4.8,3.8c0,3.5,5.4,3.7,5.4,6.2c0,0.9-0.9,1.4-1.9,1.5c-2.2,0-3.7-1-3.7-1l0.4,3.1
								c0.3-0.1,0.5-0.1,0.8-0.1c0.7,0.2,1.8,0.4,2.9,0.4c3.2,0,4.8-1.8,4.8-3.9C185.1,269.9,179.8,270.1,179.8,268z"/>
							<path d="M291.6,264.9l0.1,12.1l3,0l-0.1-13.4l-3.6,0C291.1,263.6,291.6,263.9,291.6,264.9z"/>
							<path d="M289,268.1c0-2.4-2-4.4-4.4-4.4l-6.4,0.1c0,0,0.5,0.4,0.5,0.9l0.1,12.4l2.9,0l0-4.6l1.8,0l2.7,4.5l3.3,0l-2.9-5
								C288,271.3,289,269.8,289,268.1z M281.7,266.6l2.7,0c0.8,0,1.5,0.7,1.5,1.5c0,0.8-0.7,1.5-1.5,1.5l-2.7,0L281.7,266.6z"/>
							<path d="M273.9,270.4c0,0.3,0,2.2,0,2.2s-1.1,1.9-2.9,1.9c-1.4,0-3.5-1.3-3.5-3.8c0-2.5,1.8-4,3.4-4c1.6,0,2.6,1.1,2.6,1.1
								l1.3-2.7c0,0-1.5-1.6-4.1-1.5c-3.4,0-6.2,2.8-6.2,7s3.2,6.9,6.3,6.9s4.1-1.9,5.8-3.6l0-4.1l-3.3,0
								C273.4,269.8,273.9,270.1,273.9,270.4z"/>
							<path d="M315.5,263.1c-3.5,0-6.3,3.2-6.2,7c0,3.8,2.9,6.9,6.3,6.9c3.5,0,6.3-3.2,6.2-7C321.8,266.2,319,263.1,315.5,263.1z
								 M315.6,273.9c-1.7,0-3-1.6-3-3.8c0-2.2,1.3-3.8,3-3.8c1.7,0,3,1.6,3,3.8C318.6,272.2,317.3,273.8,315.6,273.9z"/>
							<path d="M304.6,270.6l-4-7l-3.9,0c0,0,0.5,0.3,0.6,1.2l0.1,12.1l2.8,0l-0.1-8.3l4.6,8.3l2.8,0l-0.1-13.4l-2.8,0L304.6,270.6z
								"/>
							<path d="M257.8,272l4,0l0-2.9l-4,0l0-2.3l5.2,0l-0.8-2.9l-7.8,0.1c0,0,0.5,0.3,0.5,1.2l0.1,12.2l7.7-0.1l0.7-3l-5.6,0.1
								L257.8,272z"/>
							<path d="M207,271.5l-4-7l-3.9,0c0,0,0.5,0.3,0.6,1.2l0.1,12.1l2.8,0l-0.1-8.3l4.6,8.3l2.8,0l-0.1-13.4l-2.8,0L207,271.5z"/>
							<path d="M247.8,264l-3.6,0c0,0,0.5,0.3,0.5,1.2l0.1,12.1l7.7-0.1l0.7-3l-5.3,0.1L247.8,264z"/>
							<path d="M189.1,264.6c0,0,0.7,0.4,0.5,1.2l-3.5,12.2l2.6,0l0.9-3.1l4.2,0l1,3.1l3.3,0l-4.5-13.3L189.1,264.6z M190.4,272.3
								l1.2-4.3l1.4,4.3L190.4,272.3z"/>
							<path d="M218.1,264.3l-6.4,0.1c0,0,0.5,0.3,0.5,1.2l0.1,12.1l2.9,0l0-4.6l2.9,0c2.4,0,4.4-2,4.4-4.4
								C222.5,266.3,220.5,264.3,218.1,264.3z M217.9,270.3l-2.7,0l0-3.1l2.7,0c0.8,0,1.5,0.7,1.5,1.5
								C219.5,269.6,218.8,270.3,217.9,270.3z"/>
							<path d="M237.6,264.1l-3.6,0c0,0,0.5,0.3,0.5,1.2l0.1,12.1l7.7-0.1l0.7-3l-5.3,0.1L237.6,264.1z"/>
							<path d="M226.9,272.3l4,0l0-2.9l-4,0l0-2.3l5.2,0l-0.8-2.9l-7.8,0.1c0,0,0.5,0.3,0.5,1.2l0.1,12.2l7.7-0.1l0.7-3l-5.6,0.1
								L226.9,272.3z"/>
						</g>
					</g>
				</g>
			</g>
		</g>
	</g>
	<g>
		<defs>
			<path id="SVGID_3_" d="M327.5,22.1l-78.6,233.2h273C521.8,255.3,440,16.8,327.5,22.1z"/>
		</defs>
		<clipPath id="SVGID_4_">
			<use xlink:href="#SVGID_3_"  style="overflow:visible;"/>
		</clipPath>
		<g class="st31">
			<g>
				<g>
					<path class="st32" d="M444.3,376c-0.3,0.5-0.6,0.9-0.9,1.4"/>
					<path class="st33" d="M441.6,380.3c-57.4,88.2-170.2,127.9-272.7,89.3C50.4,424.9-9.4,292.8,35.1,174.3
						C75.1,68.2,185.2,9.1,292.9,30"/>
					<path class="st32" d="M294.5,30.3c0.5,0.1,1.1,0.2,1.6,0.3"/>
				</g>
			</g>
			<circle class="st34" cx="444.3" cy="376" r="7"/>
			<polygon class="st34" points="298.3,31 297.5,23.1 308.8,32.8 294.9,38.3 			"/>
			<g>
				<g>
					<path class="st35" d="M248.9,46c114.7,0,208.1,92.4,209.2,207.3c1.1,115.6-91.7,210.1-207.3,211.2c-0.7,0-1.3,0-2,0
						c-114.7,0-208.1-92.4-209.2-207.3C38.5,141.7,131.3,47.1,246.9,46C247.6,46,248.3,46,248.9,46 M248.9,45.2
						C248.9,45.2,248.9,45.2,248.9,45.2C248.9,45.2,248.9,45.2,248.9,45.2C248.9,45.2,248.9,45.2,248.9,45.2L248.9,45.2
						c-0.7,0-1.3,0-2,0c-28.4,0.3-55.8,6.1-81.6,17.3c-24.9,10.8-47.2,26.2-66.4,45.7s-34,42.1-44.4,67.2
						c-10.7,26-16,53.6-15.7,81.9c0.3,28.2,6,55.5,17.1,81.2c10.7,24.8,25.9,47,45.2,66.1c19.3,19.1,41.7,34.1,66.6,44.5
						c25.8,10.8,53.1,16.3,81.2,16.3c0.7,0,1.3,0,2,0c28.4-0.3,55.8-6.1,81.6-17.3c24.9-10.8,47.2-26.2,66.4-45.7s34-42.1,44.4-67.2
						c10.7-26,16-53.6,15.7-81.9c-0.3-28.2-6-55.5-17.1-81.2c-10.7-24.8-25.9-47-45.2-66.1c-19.3-19.1-41.7-34.1-66.6-44.5
						C304.4,50.6,277.1,45.2,248.9,45.2L248.9,45.2L248.9,45.2z"/>
				</g>
				<line class="st36" x1="153.1" y1="224.4" x2="361.3" y2="291.5"/>
				<line class="st36" x1="258.8" y1="141.1" x2="238.7" y2="372.5"/>
				<line class="st36" x1="188.6" y1="174.8" x2="319.7" y2="349.8"/>
				<line class="st36" x1="316.8" y1="158.8" x2="188" y2="355.8"/>
				<line class="st36" x1="332.8" y1="173.4" x2="164.5" y2="337.5"/>
				<line class="st36" x1="235.6" y1="156.5" x2="264.5" y2="371.3"/>
				<line class="st37" x1="354.7" y1="203.3" x2="142.9" y2="307.3"/>
				<line class="st37" x1="365" y1="237.2" x2="135.1" y2="273"/>
				<g>
					<g>
						<path class="st38" d="M259.3,137c0.6,0.1,1.1,0.1,1.7,0.2"/>
						<path class="st39" d="M264.3,137.6c52.7,7.2,95.7,49.5,101.4,104.8c6.7,64.8-40.4,122.8-105.2,129.4
							c-57.5,5.9-109.6-30.5-125.3-84"/>
						<path class="st38" d="M134.7,286.2c-0.1-0.5-0.3-1.1-0.4-1.6"/>
					</g>
				</g>
				<circle class="st40" cx="259.3" cy="137" r="6.1"/>
				<polygon class="st40" points="134,283.7 128.4,287.2 131.4,275.2 140.7,283.5 				"/>
				<g>
					<path class="st41" d="M248.9,170.3c22.5,0,43.7,8.7,59.7,24.6c16,15.9,25,37,25.2,59.6c0.4,46.8-37.3,85.3-84.1,85.7
						c-0.3,0-0.5,0-0.8,0c-22.5,0-43.7-8.7-59.7-24.6c-16-15.9-25-37-25.2-59.6c-0.2-22.7,8.4-44.1,24.3-60.3
						c15.9-16.2,37.1-25.2,59.8-25.4C248.4,170.3,248.6,170.3,248.9,170.3L248.9,170.3 M248.9,162.3c-0.3,0-0.6,0-0.9,0
						c-51.3,0.5-92.5,42.5-92.1,93.8c0.5,51,42,92.1,92.9,92.1c0.3,0,0.6,0,0.9,0c51.3-0.5,92.5-42.5,92.1-93.8
						C341.3,203.4,299.8,162.3,248.9,162.3L248.9,162.3z"/>
				</g>
				<g>
					<g>
						<path class="st42" d="M248.9,162.7c24.5,0,47.7,9.5,65.1,26.8c17.5,17.3,27.2,40.3,27.4,64.9c0.2,24.7-9.2,48.1-26.5,65.7
							c-17.3,17.6-40.5,27.5-65.2,27.7c-0.3,0-0.6,0-0.9,0c-24.5,0-47.7-9.5-65.1-26.8c-17.5-17.3-27.2-40.3-27.4-64.9
							c-0.5-51,40.7-93,91.7-93.4C248.3,162.7,248.6,162.7,248.9,162.7L248.9,162.7 M248.9,154.7c-0.3,0-0.6,0-1,0
							c-55.5,0.5-100.1,46-99.6,101.5c0.5,55.2,45.4,99.6,100.5,99.6c0.3,0,0.6,0,1,0c55.5-0.5,100.1-46,99.6-101.5
							C348.9,199.1,304,154.7,248.9,154.7L248.9,154.7z"/>
					</g>
				</g>
				<g>
					<g>
						<path class="st43" d="M248.9,155.6c26.4,0,51.3,10.2,70.1,28.8c18.8,18.6,29.3,43.4,29.5,69.8c0.3,26.6-9.9,51.7-28.5,70.7
							c-18.6,19-43.6,29.6-70.2,29.8c-0.3,0-0.6,0-1,0c-26.4,0-51.3-10.2-70.1-28.8c-18.8-18.6-29.3-43.4-29.5-69.8
							c-0.3-26.6,9.9-51.7,28.5-70.7s43.6-29.6,70.2-29.8C248.3,155.6,248.6,155.6,248.9,155.6L248.9,155.6 M248.9,147.6
							c-0.3,0-0.7,0-1,0c-59.4,0.6-107.1,49.2-106.6,108.6c0.6,59.1,48.6,106.6,107.6,106.6c0.3,0,0.7,0,1,0
							c59.4-0.6,107.1-49.2,106.6-108.6C355.9,195.2,307.9,147.6,248.9,147.6L248.9,147.6z"/>
					</g>
				</g>
				<g>
					<path class="st44" d="M303.2,92.7c22.7,7.6,43.7,19.9,61.4,36.1c21.7,19.8,38.6,45.5,48,75.7c5.6,18.2,8.1,36.6,7.7,54.7"/>
					<path class="st45" d="M110.3,154.5c21-28.9,51.1-51.5,87.9-62.9c35.6-11.1,72.2-9.9,105,1.1"/>
					<path class="st46" d="M108.9,354.2c-10.1-14.3-18.2-30.5-23.7-48.2c-16.6-53.7-5.6-109.3,25.1-151.6"/>
					<path class="st47" d="M194.6,417.8c-34.2-11.5-64.5-33.6-85.7-63.7"/>
					<path class="st47" d="M300.4,418.7c-0.3,0.1-0.5,0.2-0.8,0.3c-35.6,11.1-72.2,9.9-105-1.1"/>
					<path class="st48" d="M420.2,259.2c-1.6,71.4-48.1,136.9-119.8,159.5"/>
					<line class="st36" x1="365" y1="258" x2="177.1" y2="253.8"/>
					<line class="st36" x1="276" y1="174.1" x2="180.7" y2="459.4"/>
					<line class="st49" x1="399" y1="149.1" x2="161.2" y2="316.6"/>
					<line class="st36" x1="332.4" y1="256.9" x2="62.9" y2="251.5"/>
					<line class="st36" x1="394.3" y1="361.1" x2="103.4" y2="149.4"/>
					<line class="st36" x1="302.4" y1="427" x2="195.3" y2="83.5"/>
					<g>
						<g id="XMLID_143_">
							<path class="st50" d="M394,211.3c-0.4,2.2-1.3,5-0.1,6.8c1.7,2.6,6.2,4.2,7.1,5.3c0,0,0.1,0.6-0.5,0.3
								c-4.8-2.7-10.3-1.7-12.9,0.9c0,0-1.2-0.7-1.6-1c-1.4-0.3-6.7,2-8.2,3c0,0-0.7-0.1-0.2-0.5c2.6-2.1,5.3-3.5,6.5-4
								c0.5-0.2,0.4-0.4-0.1-0.4c-1.8-0.1-4.1,0.2-8.1,1.2c0,0-0.7-0.2,0-0.6c3.6-1.7,15.6-4.3,15.6-4.6c0.4-2.6,1.5-5.3,2.2-6.4
								C393.8,211.1,394,211.3,394,211.3z"/>
						</g>
						<g id="XMLID_138_">
							<path class="st50" d="M390.4,202.3c0,0.4,0.2,0.7,0.5,0.9c0.4,0.4,1,0.6,1.7,0.5c0.7,0,1.3-0.3,1.6-0.7
								c0.3-0.3,0.4-0.6,0.4-1c0-0.3-0.2-0.7-0.5-0.9c-0.4-0.4-1-0.6-1.7-0.5c-0.7,0-1.3,0.3-1.6,0.7
								C390.5,201.6,390.4,202,390.4,202.3z"/>
						</g>
						<g id="XMLID_134_">
							<path class="st50" d="M396.9,218.3c0.5-0.3,0.8-0.8,1-1.2c0.1-0.3,0-0.7-0.1-0.9c-0.2-0.3-0.4-0.4-0.8-0.5
								c-0.5-0.1-1.1,0-1.6,0.3c-0.9,0.5-1.2,1.5-0.8,2.2C395,218.8,396,218.9,396.9,218.3z"/>
						</g>
						<g id="XMLID_130_">
							<path class="st50" d="M387.2,213c0.1,0.2,0.3,0.4,0.5,0.5c0.4,0.2,1,0.2,1.5,0c0.9-0.3,1.4-1.1,1.2-1.7
								c-0.1-0.2-0.3-0.4-0.5-0.5c-0.4-0.2-1-0.2-1.5,0C387.6,211.7,387,212.4,387.2,213z"/>
						</g>
						<g id="XMLID_126_">
							<path class="st50" d="M374.6,214.8L374.6,214.8L374.6,214.8c3.6-0.5,5.5-0.4,6-0.4c-0.8,0.3-3.7,1.9-4.6,2.6
								c-0.5,0.5,0,0.7,0,0.7c9.3-3.9,11.3-1.9,13.9-0.3c0.3,0.2,0.4-0.1,0.4-0.1c-0.2-0.4-1.7-2-1.9-2.1c-3.8-3.5-1.6-6.4-1.4-7.1
								c0,0-0.1-0.3-0.5,0c-0.5,0.4-1.7,2.2-2.1,4c-2.4,0-8.1,1.4-9.9,2.1C374,214.5,374.6,214.8,374.6,214.8z"/>
						</g>
						<g id="XMLID_122_">
							<path class="st50" d="M384.9,192.2c-0.6,3.1,0.2,8.1,0.8,10.2c-6.5,1.1-13.4,3.5-16.6,5.4c-0.8,0.5,0,0.8,0,0.8
								c3.5-1.3,9.2-2.3,10.8-1.6c-1.8,1-6,3.9-8.5,7c-0.5,0.6,0.1,0.8,0.1,0.8c13.4-9,18.1-8.4,23.1-7.7c1.6,0.2,3.2,0.4,5.1,0.4
								c0.9,0,0.3-0.8,0.3-0.8c-7.4-0.7-13.7-3.2-14.5-15C385.5,191.8,385.1,191.6,384.9,192.2z"/>
						</g>
					</g>
					<g>
						<g id="XMLID_95_">
							<path class="st50" d="M102.9,206.1c1.6-1.5,4-3.2,4.1-5.4c0.2-3.1-2.5-7.1-2.6-8.5c0,0,0.3-0.6,0.6,0.1
								c2.3,5,7.3,7.5,10.9,6.9c0,0,0.5,1.3,0.7,1.8c0.9,1.1,6.6,2.3,8.4,2.5c0,0,0.5,0.5-0.1,0.5c-3.3,0.2-6.3-0.3-7.6-0.6
								c-0.5-0.1-0.6,0.1-0.2,0.4c1.4,1.2,3.4,2.3,7.3,3.9c0,0,0.4,0.6-0.3,0.5c-3.9-0.7-15.1-5.8-15.3-5.5
								c-1.9,1.8-4.3,3.4-5.5,3.8C102.9,206.5,102.9,206.1,102.9,206.1z"/>
						</g>
						<g id="XMLID_87_">
							<path class="st50" d="M100.5,215.6c0.2-0.3,0.3-0.6,0.2-1c-0.1-0.5-0.5-1.1-1-1.4c-0.5-0.4-1.2-0.5-1.7-0.4
								c-0.4,0.1-0.7,0.3-0.9,0.6c-0.2,0.3-0.3,0.7-0.2,1c0.1,0.5,0.5,1.1,1,1.4c0.5,0.4,1.2,0.5,1.7,0.4
								C100,216.1,100.3,215.9,100.5,215.6z"/>
						</g>
						<g id="XMLID_79_">
							<path class="st50" d="M104.7,198.8c-0.6,0-1.1,0.1-1.5,0.4c-0.3,0.2-0.4,0.5-0.4,0.8c0,0.3,0.1,0.6,0.3,0.9
								c0.3,0.4,0.9,0.6,1.4,0.7c1,0.1,1.9-0.5,1.9-1.3C106.5,199.6,105.7,198.9,104.7,198.8z"/>
						</g>
						<g id="XMLID_74_">
							<path class="st50" d="M109.3,208.8c0.1-0.2,0-0.5-0.1-0.7c-0.2-0.4-0.7-0.7-1.2-0.9c-0.9-0.3-1.8,0-2,0.6
								c-0.1,0.2,0,0.5,0.1,0.7c0.2,0.4,0.7,0.7,1.2,0.9C108.3,209.7,109.1,209.4,109.3,208.8z"/>
						</g>
						<g id="XMLID_69_">
							<path class="st50" d="M120.6,214.9L120.6,214.9L120.6,214.9c-3.2-1.7-4.7-2.9-5.1-3.3c0.9,0.3,4.1,0.7,5.3,0.6
								c0.7-0.1,0.4-0.6,0.4-0.6c-9.8-2.4-10.3-5.2-11.4-8c-0.1-0.3-0.4-0.2-0.4-0.2c-0.1,0.5,0.2,2.6,0.3,2.9
								c1,5.1-2.5,6.1-3.1,6.6c0,0-0.1,0.3,0.4,0.3c0.6-0.1,2.7-0.8,4.1-2c1.9,1.4,7.3,3.7,9.2,4.2
								C120.9,215.5,120.6,214.9,120.6,214.9z"/>
						</g>
						<g id="XMLID_65_">
							<path class="st50" d="M98.9,226.9c2.3-2.1,4.6-6.6,5.4-8.7c5.9,2.9,12.9,5.1,16.6,5.5c1,0.1,0.5-0.6,0.5-0.6
								c-3.6-1-8.8-3.7-9.6-5.1c2,0.3,7.2,0.4,11-0.6c0.8-0.2,0.4-0.7,0.4-0.7c-16.1-0.7-19.6-4-23.1-7.5c-1.2-1.1-2.3-2.2-3.9-3.3
								c-0.8-0.5-0.7,0.4-0.7,0.4c5.6,4.9,9.2,10.7,2.8,20.7C98.1,226.9,98.4,227.4,98.9,226.9z"/>
						</g>
					</g>
					<g>
						<path class="st51" d="M253.8,414.7l-3-9.7l8.3-5.8l-10.1-0.1l-3-9.7l-3.3,9.6l-10.1-0.1l8.1,6.1l-3.3,9.6l8.3-5.8L253.8,414.7
							z M239,412.3l2.6-7.7l-6.6-4.9l8.2,0.1l2.6-7.8l2.4,7.8l8.2,0.1l-6.7,4.7l2.4,7.8l-6.6-4.9L239,412.3z"/>
						<polygon class="st51" points="245.9,394.2 243.7,400.5 237.1,400.4 242.4,404.4 240.3,410.6 245.7,406.8 251,410.8 251,410.7 
							249,404.5 254.5,400.6 247.8,400.5 245.9,394.2 						"/>
					</g>
					<g>
						<path class="st51" d="M175.6,151.4l-3-9.7l8.3-5.8l-10.1-0.1l-3-9.7l-3.3,9.6l-10.1-0.1l8.1,6.1l-3.3,9.6l8.3-5.8L175.6,151.4
							z M160.9,149l2.6-7.7l-6.6-4.9l8.2,0.1l2.6-7.8l2.4,7.8l8.2,0.1l-6.7,4.7l2.4,7.8l-6.6-4.9L160.9,149z"/>
						<polygon class="st51" points="167.7,130.9 165.6,137.2 159,137.1 164.3,141 162.1,147.3 167.6,143.5 172.9,147.4 172.9,147.4 
							170.9,141.1 176.4,137.3 169.7,137.2 167.7,130.9 						"/>
					</g>
					<path class="st52" d="M339.2,158.4c0.1-3,0.2-6,0.3-9c0.2-6.2,0.4-12.9,0.6-19l-26.8,10.1c0,0,0.1,0.1,0.2,0.1
						c1.6,1.2,3.2,2.3,4.9,3.5c0.2,0.2,0.2,0.2,0.2,0.2l14.2-5.2c1-0.4,1.5,0,1.5,1c-0.1,4.5-0.3,10.5-0.4,15c0,0,0.6,0.4,1.4,1
						c0.3,0.2,0.5,0.4,0.8,0.6c1.1,0.8,2.1,1.5,3.3,2.3C339.1,158.8,339.1,158.6,339.2,158.4z M337.8,138.3c0,0-0.7-0.5-0.7-0.5
						l-0.3-0.2c0-0.3,0-1.3,0-1.7c-0.1-0.7-0.5-1-1.2-0.8c-0.4,0.1-1.2,0.5-1.6,0.6c0,0-0.1-0.1-0.3-0.2c-0.4-0.3-0.9-0.7-1.5-1.1
						c2.2-0.8,4.3-1.6,6.5-2.4l-0.2,6.7C338.5,138.8,337.8,138.3,337.8,138.3z"/>
					<path class="st52" d="M116.1,280.9c-1.9,2.3-3.7,4.7-5.6,7c-3.9,4.8-8,10-11.9,14.9l27.5,8c0,0,0-0.2-0.1-0.2
						c-0.6-1.9-1.2-3.8-1.8-5.7c-0.1-0.3-0.1-0.3-0.1-0.3l-14.4-4.4c-1-0.3-1.2-0.9-0.6-1.7c2.8-3.6,6.5-8.2,9.4-11.8
						c0,0-0.2-0.6-0.5-1.6c-0.1-0.3-0.2-0.6-0.3-1c-0.4-1.2-0.8-2.5-1.2-3.8C116.3,280.6,116.2,280.8,116.1,280.9z M105.1,297.8
						c0,0,0.2,0.8,0.3,0.8l0.1,0.3c-0.2,0.2-0.8,1-1,1.4c-0.4,0.6-0.2,1.1,0.5,1.3c0.4,0.1,1.2,0.4,1.7,0.5c0,0,0,0.1,0.1,0.4
						c0.2,0.5,0.3,1.1,0.5,1.8c-2.3-0.7-4.4-1.3-6.6-2l4.2-5.2C104.8,296.9,105.1,297.8,105.1,297.8z"/>
					<g>
						<path class="st53" d="M155.5,382.3c-0.2-1.1-0.4-2.1-0.1-3.2c0.1-0.3,0-0.4-0.3-0.6c-0.9-0.4-1.6-1.1-2.2-2
							c2,0.6,4,0.6,6.1,0.2C157.4,378.4,156.4,380.3,155.5,382.3z"/>
						<path class="st53" d="M152.1,372.3c-0.5,1.2-0.1,2.8,1.1,3.5c0.9,0.5,1.8,0.8,2.8,0.8c2.3,0,4.2-0.9,5.9-2.4
							c0.8-0.7,1.5-1.5,2.1-2.4c0.2-0.3,0.2-0.3,0.5-0.1c0,0,0.1,0.1,0.1,0.1c-0.1,0.2-0.2,0.4-0.3,0.5c-0.5,0.8-1,1.6-1.7,2.3
							c-0.8,0.8-1.7,1.6-2.6,2.4c-0.8,0.8-1.6,1.6-2.2,2.5c-0.6,0.9-1.1,1.9-1.4,3c-0.5,1.8-0.7,3.5-0.4,5.3c0,0.3,0.1,0.5,0.1,0.8
							c0,0,0,0,0,0c1-0.4,1.9-0.9,2.8-1.5c1.1-0.8,2-1.8,2.7-2.9c0.5-0.8,1-1.7,1.3-2.6c0.4-1,0.5-2,0.7-3c0.2-1.7,0.4-3.4,1.1-5
							c0.2-0.5,0.4-0.9,0.6-1.4c0.2,0.1,0.3,0.1,0.5,0.2c0,0.1-0.1,0.2-0.1,0.2c-0.2,0.5-0.4,1-0.6,1.6c-0.6,2.3-0.5,4.6,0.5,6.8
							c0.6,1.2,1.4,2.2,2.7,2.8c0.5,0.2,0.9,0.3,1.4,0.2c1.3-0.1,2.4-1.2,2.6-2.6c0.2-1.1-0.1-2.1-0.6-3.1c-0.4-0.8-0.8-1.7-1.2-2.5
							c-0.3-0.7-0.6-1.4-0.5-2.2c0,0,0-0.1,0-0.1c-0.4,0.3-0.8,0.6-1.1,0.9c0.1,0.2,0.3,0.5,0.5,0.8c0.3,0.5,0.5,1,0.4,1.6
							c-0.1,1.1-1.1,1.8-2.1,1.4c-0.6-0.2-0.9-0.6-1.2-1.2c-0.5-1-0.6-2.1-0.3-3.1c0.1-0.4,0.3-0.8,0.4-1.2c0.4,0.1,0.7,0.2,1,0.3
							c0.6,0.1,0.6,0.1,0.8-0.4c0,0,0,0,0,0c0-0.1,0-0.2,0-0.2c-0.1-0.1-0.3-0.3-0.4-0.4c-0.2-0.2-0.4-0.3-0.6-0.5
							c0.3-0.4,0.7-0.6,1.1-0.7c0.7-0.2,1.4-0.2,2,0.3c0.2,0.1,0.3,0.3,0.4,0.5c0.2-0.2,0.4-0.5,0.5-0.9c0.2-0.8-0.1-1.5-0.9-1.8
							c-0.7-0.3-1.3-0.2-1.9,0.1c-0.8,0.4-1.4,1-2,1.7c-0.2,0.3-0.2,0.3-0.5,0.1c-0.1-0.1-0.1-0.1,0-0.3c0.5-0.6,1-1.2,1.5-1.7
							c0.4-0.4,0.7-0.8,0.9-1.4c0.3-0.9,0.4-1.7,0.2-2.6c-0.4,0.8-2.3,4.4-2.3,4.4s0.7-0.3,1.2-1c0.6-0.8,0.8-1.4,0.8-1.7
							c0-0.1,0-0.1,0-0.1s0,0,0,0.1c-0.1,0.3-0.3,1.2-0.7,1.7c-0.6,0.8-1.5,1.1-1.5,1.1s-0.4-1.3,0.4-2.7c0.4-0.6,1.4-1.3,1.9-1.9
							c0,0,0-0.1,0-0.1c0-0.1,0-0.1,0-0.2c-0.3,0.2-0.7,0.4-1,0.6c-0.7,0.5-1.3,1.1-1.6,1.9c-0.2,0.5-0.3,1-0.4,1.5
							c-0.1,0.6-0.3,1.2-0.5,1.8c-0.2-0.1-0.3-0.1-0.4-0.2c0,0,0,0,0-0.1c0-0.1,0.1-0.3,0.1-0.4c0.2-0.8,0.4-1.7,0.2-2.6
							c-0.1-0.7-0.5-1.3-1.2-1.6c-0.7-0.3-1.4-0.1-1.8,0.6c-0.2,0.3-0.3,0.5-0.4,0.8c1.3-0.3,2.5,1.4,2.1,2.9
							c-0.3-0.1-0.6-0.2-0.9-0.2c-0.6-0.1-0.5-0.1-0.8,0.4c-0.1,0.1-0.1,0.2,0.1,0.3c0.3,0.3,0.6,0.5,1,0.8c0.1,0.1,0.1,0.1,0,0.3
							c-0.5,0.8-1.1,1.4-1.8,1.9c-0.8,0.5-1.7,0.7-2.6,0.5c-0.6-0.1-1-0.5-1.2-1c-0.3-0.8,0.1-1.6,0.9-2c0.4-0.2,0.9-0.3,1.3-0.3
							c0.3,0,0.6,0,0.9-0.1c-0.1-0.5,0-0.9,0.1-1.3c0,0,0-0.1,0-0.1c-0.1,0-0.1,0-0.2,0c-0.4,0.3-0.8,0.5-1.3,0.6
							c-1.1,0.2-2.1,0.4-3.2,0.6c-0.7,0.1-1.3,0.2-1.9,0.5C153.3,370.7,152.5,371.3,152.1,372.3z M169.1,378.7
							c1.5-0.5,1.4-2.1,1.4-2.1s0.8,1.5,0.4,3.1c-0.1,0.4-0.4,1-1,1.3c-1,0.4-1.7-0.2-2.1-0.6c-2.1-1.9-2.2-4.8-2.2-4.8
							C166.6,378.6,168.1,379.1,169.1,378.7z M165.9,379.2c1.1,4,3.6,4.3,4.5,4.1c2-0.5,1.7-3.4,1.7-3.4s0.3,1.2-0.3,2.4
							c-0.1,0.2-0.6,1-1.2,1.2c-1,0.4-2.1,0-2.7-0.5c-3.6-2.8-2.3-7.4-2.3-7.4C165.6,377.1,165.6,378.3,165.9,379.2z M170.5,369.6
							c0.6,0.2,0.8,1.1,0.8,1.1c-1.5-1.5-3.3-0.1-3.3-0.1S169.2,369.3,170.5,369.6z M157,387.5c0,0,2.1-1,3.8-3.3
							c1.8-2.6,2.4-4.5,2.6-5.3c0.1-0.2,0.1-0.4,0.1-0.4s0,0.1-0.1,0.4c-0.2,1-1,3.8-2.2,5.5c-1.8,2.6-4.6,3.7-4.6,3.7
							s-1-4.1,1.6-8.4c1.2-2.1,4.7-4.5,6.2-6.5C164.4,373.1,157,387.5,157,387.5z M162.8,366.2c0,0,0.8-0.4,1.3,0
							c1,0.8,0.6,2.6,0.6,2.6S164.9,366.6,162.8,366.2z M155.3,371.5c1.2-1.2,2.8-1.4,2.8-1.4s-1.4,0.9-0.9,2.4c0.3,1,1.5,2,4.5,1.1
							c0,0-2.5,1.6-5.2,0.9c-0.5-0.1-1.4-0.3-1.6-1.4C154.7,372.4,155.1,371.8,155.3,371.5z M152.8,372.3c0.7-1.1,1.8-1.6,1.8-1.6
							s-2.5,1.4-1.8,3.3c0.3,0.8,2,2.8,5.9,1.4c0.9-0.3,1.9-1,3.1-1.8c0,0-3.1,3.7-7.4,2.3c-0.7-0.2-1.7-0.9-1.9-2
							C152.3,373.3,152.7,372.4,152.8,372.3z"/>
					</g>
					<path class="st54" d="M196.2,85.4c37.1-11.5,75.1-10.2,109.3,1.3l11.6-35.2c-41.3-13.9-87.2-15.4-131.9-1.5
						c-45.9,14.2-83.7,42.5-110,78.6l30,21.8C127,120.5,158.2,97.1,196.2,85.4z"/>
					<path class="st55" d="M79,308c-17.3-55.8-5.7-113.7,26.3-157.6l-30-21.8c-38.6,53-52.6,122.9-31.7,190.4
						c6.9,22.3,17.1,42.6,29.9,60.7l30.3-21.4C93.2,343.3,84.7,326.4,79,308z"/>
					<path class="st56" d="M463.9,255.3c0-21.1-3.1-42.5-9.7-63.7c-21.3-68.6-73.8-118.9-137-140.2l-11.6,35.2
						c52.3,17.6,95.7,59.2,113.3,115.9c5.4,17.5,8,35.3,8,52.7H463.9z"/>
					<path class="st57" d="M313.3,460.3l-11-35.4c-0.2,0.1-0.5,0.2-0.7,0.2c-75.4,23.4-154.5-5.9-197.8-66.9l-30.3,21.4
						c52.3,73.8,148,109.2,239.1,81C312.8,460.5,313,460.4,313.3,460.3z"/>
					<g>
						<g id="XMLID_60_">
							<path class="st50" d="M253.7,105.4c1.9,1.1,4.2,2.9,6.4,2.4c3-0.7,6.1-4.4,7.4-4.9c0,0,0.6,0.1,0.1,0.6
								c-4.2,3.6-5.1,9.1-3.5,12.4c0,0-1.1,0.9-1.5,1.2c-0.7,1.2-0.4,7,0,8.7c0,0-0.3,0.6-0.5,0.1c-1.1-3.2-1.5-6.2-1.6-7.5
								c0-0.5-0.2-0.5-0.5,0c-0.7,1.6-1.2,4-1.6,8.1c0,0-0.5,0.6-0.5-0.1c-0.4-4,1.3-16.1,1-16.3c-2.3-1.3-4.5-3.2-5.2-4.2
								C253.4,105.5,253.7,105.4,253.7,105.4z"/>
						</g>
						<g id="XMLID_56_">
							<path class="st50" d="M244,105.7c0.3,0.1,0.7,0.1,1-0.1c0.5-0.3,0.9-0.8,1.1-1.4c0.2-0.6,0.2-1.3-0.1-1.8
								c-0.2-0.4-0.5-0.6-0.8-0.7c-0.3-0.1-0.7-0.1-1.1,0.1c-0.5,0.3-0.9,0.8-1.1,1.4c-0.2,0.6-0.2,1.3,0.1,1.8
								C243.4,105.4,243.7,105.6,244,105.7z"/>
						</g>
						<g id="XMLID_51_">
							<path class="st50" d="M261.3,105.1c-0.1-0.6-0.4-1.1-0.8-1.3c-0.3-0.2-0.6-0.3-0.9-0.2c-0.3,0.1-0.6,0.3-0.8,0.6
								c-0.3,0.4-0.3,1-0.2,1.6c0.2,1,1,1.7,1.8,1.5C261.1,107,261.5,106.1,261.3,105.1z"/>
						</g>
						<g id="XMLID_76_">
							<path class="st50" d="M253,112.3c0.2,0,0.5-0.1,0.7-0.3c0.3-0.3,0.5-0.8,0.5-1.4c0-0.9-0.5-1.7-1.1-1.7
								c-0.2,0-0.5,0.1-0.7,0.3c-0.3,0.3-0.5,0.8-0.5,1.4C251.9,111.5,252.4,112.3,253,112.3z"/>
						</g>
						<g id="XMLID_64_">
							<path class="st50" d="M250.4,124.8L250.4,124.8L250.4,124.8c0.7-3.6,1.5-5.3,1.7-5.8c0,0.9,0.5,4.2,0.9,5.2
								c0.3,0.7,0.7,0.3,0.7,0.3c-0.5-10.1,2.1-11.3,4.5-13.2c0.3-0.2,0.1-0.4,0.1-0.4c-0.5,0-2.4,1-2.7,1.1
								c-4.6,2.4-6.6-0.7-7.2-1.1c0,0-0.3,0-0.2,0.4c0.2,0.6,1.5,2.3,3,3.4c-0.8,2.2-1.5,8.1-1.4,10
								C249.9,125.3,250.4,124.8,250.4,124.8z"/>
						</g>
						<g id="XMLID_2_">
							<path class="st50" d="M232.7,107.4c2.7,1.7,7.7,2.5,9.9,2.7c-1.2,6.5-1.3,13.8-0.6,17.4c0.2,1,0.8,0.3,0.8,0.3
								c0-3.7,1-9.5,2.2-10.7c0.3,2,1.6,7,3.7,10.3c0.4,0.7,0.8,0.2,0.8,0.2c-3.8-15.7-1.7-19.9,0.7-24.3c0.8-1.4,1.5-2.8,2.1-4.7
								c0.3-0.9-0.6-0.6-0.6-0.6c-3.2,6.7-7.7,11.8-19,8.5C232.5,106.6,232.1,107,232.7,107.4z"/>
						</g>
					</g>
					<path class="st52" d="M368.3,315.6c3-0.5,5.9-1,8.9-1.5c6.1-1,12.7-2.2,18.8-3.2l-15.2-24.3c0,0-0.1,0.1-0.1,0.2
						c-0.8,1.8-1.6,3.6-2.4,5.4c-0.1,0.3-0.1,0.3-0.1,0.3l7.8,12.9c0.6,0.9,0.3,1.4-0.7,1.6c-4.4,0.8-10.4,1.8-14.8,2.6
						c0,0-0.3,0.6-0.7,1.5c-0.1,0.3-0.3,0.6-0.4,0.9c-0.5,1.2-1.1,2.4-1.6,3.7C368,315.7,368.2,315.6,368.3,315.6z M387.8,310.3
						c0,0,0.3-0.7,0.3-0.8l0.1-0.3c0.3,0,1.3-0.2,1.7-0.3c0.7-0.2,0.9-0.7,0.5-1.3c-0.2-0.4-0.7-1.1-0.9-1.5c0,0,0-0.1,0.2-0.4
						c0.2-0.5,0.5-1,0.8-1.7c1.2,2,2.4,3.9,3.6,5.9l-6.6,1.1C387.4,311.2,387.8,310.3,387.8,310.3z"/>
					<g id="GoFPfz.tif_1_">
						
							<image style="overflow:visible;" width="2230" height="1476" id="Livello_1_1_" xlink:href="545CB6D963A6B586.png"  transform="matrix(-2.435497e-02 1.673787e-02 -1.673787e-02 -2.435497e-02 372.9764 373.3375)">
						</image>
					</g>
					<path class="st58" d="M426.8,255.3c0,1.4,0,2.7,0,4.1c-1.7,74.1-49.9,142.1-124.5,165.6l11,35.4
						c90.1-28.3,148.5-110.5,150.5-200.1c0-1.6,0.1-3.3,0.1-4.9H426.8z"/>
				</g>
				<g>
					<circle class="st28" cx="248.9" cy="255.3" r="86.2"/>
					<g>
						<line class="st59" x1="309.5" y1="194.9" x2="187.6" y2="314.6"/>
						<line class="st59" x1="309" y1="315.7" x2="189.3" y2="193.8"/>
						<line class="st59" x1="295.7" y1="183.3" x2="201.6" y2="326.1"/>
						<line class="st59" x1="320.6" y1="301.7" x2="177.8" y2="207.6"/>
						<line class="st59" x1="333" y1="237.3" x2="164.7" y2="271.5"/>
						<line class="st59" x1="265.9" y1="338.6" x2="232" y2="171.1"/>
						<line class="st59" x1="334.7" y1="253.2" x2="163" y2="253.9"/>
						<line class="st59" x1="248.3" y1="340.3" x2="249.4" y2="169.5"/>
						<line class="st59" x1="307.5" y1="215.6" x2="190.3" y2="293.2"/>
						<line class="st59" x1="287.7" y1="313" x2="210" y2="195.8"/>
						<line class="st59" x1="317.8" y1="268" x2="179.9" y2="240.8"/>
						<line class="st59" x1="235.3" y1="323.4" x2="262.5" y2="185.4"/>
						<line class="st59" x1="313.5" y1="282.1" x2="184.3" y2="226.7"/>
						<line class="st59" x1="221.2" y1="319" x2="276.6" y2="189.8"/>
						<line class="st59" x1="314.1" y1="228.3" x2="183.6" y2="280.5"/>
						<line class="st59" x1="275" y1="319.7" x2="222.7" y2="189.1"/>
						<g>
							<polygon class="st60" points="249.4,185.6 267.8,238.1 324.1,237.6 277.1,270.4 295.8,322.8 250.1,290.5 201.6,323.7 
								219.5,271 171.6,239 232,238.5 							"/>
							<polygon class="st28" points="249.6,203.3 263.7,243.6 306.4,243.2 270.4,268.3 284.7,308.6 250.1,283.8 212.4,309.3 
								226,268.8 189.4,244.3 236.3,243.9 							"/>
							<polygon class="st60" points="249.7,212 261.6,246.3 297.7,246 267,267.3 279.2,301.6 250,280.5 217.7,302.1 229.3,267.7 
								198.2,247 238.3,246.5 							"/>
							<g>
								<path class="st41" d="M238.1,284.9c0-1.4-1.2-2.5-2.6-2.5l-5.6,0.1l0.1,8.7l1.2,0l0-3.5l3.3,0l2.4,3.5l1.4,0l-2.4-3.6
									C237.3,287.1,238.1,286.3,238.1,284.9z M236.4,286c-0.2,0.2-0.5,0.4-0.9,0.4l-4.4,0l0-2.8l4.5,0c1,0,1.2,0.8,1.2,1.4l0,0
									C236.8,285.3,236.7,285.7,236.4,286z"/>
								<path class="st41" d="M246.9,288c0,1.2-1.4,1.9-2.8,1.9c-1.3,0-2.7-0.6-2.7-1.8l-0.1-5.8l-1.2,0l0.1,5.9
									c0,0.7,0.3,1.4,0.8,1.9c0.7,0.7,1.7,1,3,1c0,0,0,0,0.1,0c2.7-0.1,4-1,4-3l-0.1-5.9l-1.2,0L246.9,288z"/>
								<path class="st41" d="M256.7,282.2l-5.6,0.1l0.1,8.7l1.2,0l0-3.6l4.3,0c1.2,0,2.2-1.1,2.2-2.4v0c0-0.7-0.3-1.5-0.9-2
									C257.6,282.4,257.1,282.2,256.7,282.2z M257.6,284.8L257.6,284.8c0,0.4-0.1,0.8-0.4,1c-0.1,0.1-0.3,0.2-0.4,0.2l-4.4,0
									l0-2.8l4.3,0C257.1,283.3,257.5,284.1,257.6,284.8z"/>
								<path class="st41" d="M266.5,282.1l-5.6,0.1l0.1,8.7l1.2,0l0-3.6l4.3,0c1.2,0,2.2-1.1,2.2-2.4c0-0.7-0.3-1.5-0.9-2
									C267.4,282.3,266.9,282.1,266.5,282.1z M267.4,284.8L267.4,284.8c0,0.4-0.1,0.8-0.4,1c-0.1,0.1-0.3,0.2-0.4,0.2l-4.4,0
									l0-2.8l4.3,0C266.9,283.2,267.4,284,267.4,284.8z"/>
								<path class="st41" d="M274.7,290.8c1.5,0,2.8-0.6,3.7-1.5c0.8-0.8,1.2-1.9,1.2-3c0-3.1-2.6-4.4-5-4.4
									c-1.4,0-2.7,0.6-3.6,1.5c-0.8,0.8-1.2,1.9-1.2,3C269.9,288.7,272.2,290.8,274.7,290.8z M271.1,286.4c0-1.8,1.9-3.3,3.6-3.3
									c0,0,0,0,0.1,0c1,0,2.1,0.4,2.8,1.1c0.6,0.6,0.9,1.3,0.9,2.1c0,0.8-0.3,1.6-0.9,2.2c-0.7,0.7-1.7,1.1-2.8,1.1c0,0,0,0,0,0
									C272.7,289.7,271.1,288.2,271.1,286.4z"/>
								<path class="st41" d="M223.5,287.6l3,0l0,1.5c-0.2,0.2-1.2,1-2.9,1c-2.3,0-3.7-1.2-3.8-3.3c0-1.9,1.4-3.2,3.6-3.2
									c0,0,0.1,0,0.1,0c1.7,0,3.1,1,3.1,1l0.1,0.1l0.8-0.9l-0.2-0.1c-1.4-0.9-2.6-1.4-3.9-1.4c-1.4,0-2.7,0.5-3.7,1.5
									c-0.8,0.8-1.3,1.9-1.2,3c0,2.8,2,4.5,5,4.5c2.7,0,4-1.7,4.1-1.7l0,0l0-3l-4.2,0L223.5,287.6z"/>
								<g>
									<polygon class="st51" points="249.2,203.7 256.1,223.4 277.2,223.2 259.6,235.5 266.6,255.2 249.4,243.1 231.2,255.6 
										237.9,235.8 219.9,223.8 242.6,223.6 									"/>
									<polygon class="st28" points="249.2,210.3 254.5,225.5 270.6,225.3 257,234.8 262.4,249.9 249.4,240.6 235.3,250.1 
										240.4,234.9 226.6,225.8 244.2,225.6 									"/>
									<polygon class="st51" points="249.3,213.6 253.8,226.5 267.3,226.4 255.8,234.4 260.3,247.3 249.4,239.3 237.3,247.5 
										241.6,234.5 229.9,226.7 245,226.6 									"/>
								</g>
								<path class="st41" d="M179.8,268c0-0.5,0.3-1.2,1.9-1.2c1.5,0,2.8,0.7,2.8,0.7l-0.3-3.1c-0.2,0.2-0.5,0.3-0.7,0.2
									c-0.5-0.1-1.3-0.2-2.2-0.2c-3.3,0-4.8,2-4.8,3.8c0,3.5,5.4,3.7,5.4,6.2c0,0.9-0.9,1.4-1.9,1.5c-2.2,0-3.7-1-3.7-1l0.4,3.1
									c0.3-0.1,0.5-0.1,0.8-0.1c0.7,0.2,1.8,0.4,2.9,0.4c3.2,0,4.8-1.8,4.8-3.9C185.1,269.9,179.8,270.1,179.8,268z"/>
								<path class="st41" d="M291.6,264.9l0.1,12.1l3,0l-0.1-13.4l-3.6,0C291.1,263.6,291.6,263.9,291.6,264.9z"/>
								<path class="st41" d="M289,268.1c0-2.4-2-4.4-4.4-4.4l-6.4,0.1c0,0,0.5,0.4,0.5,0.9l0.1,12.4l2.9,0l0-4.6l1.8,0l2.7,4.5
									l3.3,0l-2.9-5C288,271.3,289,269.8,289,268.1z M281.7,266.6l2.7,0c0.8,0,1.5,0.7,1.5,1.5c0,0.8-0.7,1.5-1.5,1.5l-2.7,0
									L281.7,266.6z"/>
								<path class="st41" d="M273.9,270.4c0,0.3,0,2.2,0,2.2s-1.1,1.9-2.9,1.9c-1.4,0-3.5-1.3-3.5-3.8c0-2.5,1.8-4,3.4-4
									c1.6,0,2.6,1.1,2.6,1.1l1.3-2.7c0,0-1.5-1.6-4.1-1.5c-3.4,0-6.2,2.8-6.2,7s3.2,6.9,6.3,6.9s4.1-1.9,5.8-3.6l0-4.1l-3.3,0
									C273.4,269.8,273.9,270.1,273.9,270.4z"/>
								<path class="st41" d="M315.5,263.1c-3.5,0-6.3,3.2-6.2,7c0,3.8,2.9,6.9,6.3,6.9c3.5,0,6.3-3.2,6.2-7
									C321.8,266.2,319,263.1,315.5,263.1z M315.6,273.9c-1.7,0-3-1.6-3-3.8c0-2.2,1.3-3.8,3-3.8c1.7,0,3,1.6,3,3.8
									C318.6,272.2,317.3,273.8,315.6,273.9z"/>
								<path class="st41" d="M304.6,270.6l-4-7l-3.9,0c0,0,0.5,0.3,0.6,1.2l0.1,12.1l2.8,0l-0.1-8.3l4.6,8.3l2.8,0l-0.1-13.4
									l-2.8,0L304.6,270.6z"/>
								<path class="st41" d="M257.8,272l4,0l0-2.9l-4,0l0-2.3l5.2,0l-0.8-2.9l-7.8,0.1c0,0,0.5,0.3,0.5,1.2l0.1,12.2l7.7-0.1l0.7-3
									l-5.6,0.1L257.8,272z"/>
								<path class="st41" d="M207,271.5l-4-7l-3.9,0c0,0,0.5,0.3,0.6,1.2l0.1,12.1l2.8,0l-0.1-8.3l4.6,8.3l2.8,0l-0.1-13.4l-2.8,0
									L207,271.5z"/>
								<path class="st41" d="M247.8,264l-3.6,0c0,0,0.5,0.3,0.5,1.2l0.1,12.1l7.7-0.1l0.7-3l-5.3,0.1L247.8,264z"/>
								<path class="st41" d="M189.1,264.6c0,0,0.7,0.4,0.5,1.2l-3.5,12.2l2.6,0l0.9-3.1l4.2,0l1,3.1l3.3,0l-4.5-13.3L189.1,264.6z
									 M190.4,272.3l1.2-4.3l1.4,4.3L190.4,272.3z"/>
								<path class="st41" d="M218.1,264.3l-6.4,0.1c0,0,0.5,0.3,0.5,1.2l0.1,12.1l2.9,0l0-4.6l2.9,0c2.4,0,4.4-2,4.4-4.4
									C222.5,266.3,220.5,264.3,218.1,264.3z M217.9,270.3l-2.7,0l0-3.1l2.7,0c0.8,0,1.5,0.7,1.5,1.5
									C219.5,269.6,218.8,270.3,217.9,270.3z"/>
								<path class="st41" d="M237.6,264.1l-3.6,0c0,0,0.5,0.3,0.5,1.2l0.1,12.1l7.7-0.1l0.7-3l-5.3,0.1L237.6,264.1z"/>
								<path class="st41" d="M226.9,272.3l4,0l0-2.9l-4,0l0-2.3l5.2,0l-0.8-2.9l-7.8,0.1c0,0,0.5,0.3,0.5,1.2l0.1,12.2l7.7-0.1
									l0.7-3l-5.6,0.1L226.9,272.3z"/>
							</g>
						</g>
					</g>
				</g>
			</g>
		</g>
	</g>
	<polyline class="st44" points="1124.8,255.3 248.9,255.3 327.3,22 	"/>
</g>
<g>
	<path class="st61" d="M495.1,137.4h-3.6v-3.4H508c6.5,0,11.2,4.3,11.2,11c0,6-3.7,9.5-7.5,10.4v0.1c0,0,0.8,0.4,1.3,1.5l5.6,11
		c0.6,1.2,1.4,1.3,2.8,1.3h0.8v3.4h-1.7c-3.1,0-4.1-0.4-5.4-2.9l-5.6-11.1c-1-2-1.8-2.3-3.9-2.3H499v16.3h-3.9V137.4z M507.6,153
		c4.6,0,7.5-3,7.5-7.9c0-4.8-2.9-7.7-7.5-7.7H499V153H507.6z"/>
	<path class="st61" d="M530.7,169.3h3.6v-32h-3.6v-3.4h11.1v3.4h-3.7v32h3.7v3.4h-11.1V169.3z"/>
	<path class="st61" d="M571.1,133.3c5.5,0,14.5,2.4,14.5,8.2v3.2h-3.6v-2.2c0-3.6-6.3-5.6-10.8-5.6c-8.6,0-15.2,6.7-15.2,16.1
		c0,9.3,6.6,16.7,15.4,16.7c8,0,12.7-5.5,12.7-5.5l2.2,2.8c0,0-5.4,6.3-15,6.3c-11.4,0-19.4-9.1-19.4-20.4
		C551.9,141.8,560.1,133.3,571.1,133.3z"/>
	<path class="st61" d="M596.2,169.3h3.6v-32h-3.6v-3.4h11.1v3.4h-3.7v32h3.7v3.4h-11.1V169.3z"/>
	<path class="st61" d="M636.6,133.3c5.5,0,14.5,2.4,14.5,8.2v3.2h-3.6v-2.2c0-3.6-6.3-5.6-10.8-5.6c-8.6,0-15.2,6.7-15.2,16.1
		c0,9.3,6.6,16.7,15.4,16.7c8,0,12.7-5.5,12.7-5.5l2.2,2.8c0,0-5.4,6.3-15,6.3c-11.4,0-19.4-9.1-19.4-20.4
		C617.4,141.8,625.7,133.3,636.6,133.3z"/>
	<path class="st61" d="M665.1,138.6c0-0.8-0.4-1.2-1.2-1.2h-2.4v-3.4h4.1c2.4,0,3.4,1,3.4,3.4v30.8c0,0.8,0.4,1.2,1.2,1.2H683
		c0.8,0,1.2-0.4,1.2-1.2v-2.6h3.6v3.9c0,2.4-1,3.4-3.4,3.4h-16.1c-2.4,0-3.4-1-3.4-3.4V138.6z"/>
	<path class="st61" d="M714.7,133.3c11,0,19.8,8.7,19.8,19.8c0,11.4-8.8,20.3-19.8,20.3c-11,0-19.8-8.9-19.8-20.3
		C694.9,141.9,703.6,133.3,714.7,133.3z M714.7,169.8c8.7,0,15.7-7.3,15.7-16.7c0-9.2-7.1-16.2-15.7-16.2c-8.7,0-15.7,7-15.7,16.2
		C699,162.5,706,169.8,714.7,169.8z"/>
	<path class="st61" d="M749.7,168.2l-4,9.9h-3.1l3.1-9.9H749.7z"/>
	<path class="st61" d="M785.1,137.4h-3.6v-3.4H798c6.5,0,11.2,4.3,11.2,11c0,6-3.7,9.5-7.5,10.4v0.1c0,0,0.8,0.4,1.3,1.5l5.6,11
		c0.6,1.2,1.4,1.3,2.8,1.3h0.8v3.4h-1.7c-3.1,0-4.1-0.4-5.4-2.9l-5.6-11.1c-1-2-1.8-2.3-3.9-2.3H789v16.3h-3.9V137.4z M797.6,153
		c4.6,0,7.5-3,7.5-7.9c0-4.8-2.9-7.7-7.5-7.7H789V153H797.6z"/>
	<path class="st61" d="M820.7,169.3h3.6v-32h-3.6v-3.4h11.1v3.4h-3.7v32h3.7v3.4h-11.1V169.3z"/>
	<path class="st61" d="M844.2,165.1c0,0,3.9,4.7,10,4.7c4.3,0,7.7-2.8,7.7-6.9c0-9.6-19.2-7.7-19.2-19.7c0-5.4,4.7-9.9,11.9-9.9
		c3.8,0,10.5,1.6,10.5,6.7v2.8h-3.6v-1.8c0-2.3-3.2-4-6.8-4c-5,0-7.9,2.9-7.9,6.2c0,9,19.2,6.8,19.2,19.6c0,5.8-4.5,10.7-11.8,10.7
		c-7.9,0-12.3-5.5-12.3-5.5L844.2,165.1z"/>
	<path class="st61" d="M879.8,137.4h-3.6v-3.4h16.4c6.9,0,12,4.5,12,11.7c0,7.2-5.1,11.9-12,11.9h-8.9v15.2h-3.9V137.4z
		 M892.2,154.1c5.1,0,8.5-3.1,8.5-8.4c0-5.2-3.4-8.3-8.4-8.3h-8.5v16.7H892.2z"/>
	<path class="st61" d="M908.8,169.3h0.7c1,0,1.6-0.2,2-1.2l12.7-34.2h4.1l12.7,34.2c0.4,1,0.9,1.2,2,1.2h0.7v3.4h-1.8
		c-2.8,0-3.6-0.6-4.6-3.2l-3.4-9.2h-15.4l-3.4,9.2c-1,2.6-1.8,3.2-4.5,3.2h-1.8V169.3z M932.9,157l-5.1-13.9c-0.7-1.8-1.5-5-1.5-5
		h-0.1c0,0-0.8,3.2-1.5,5l-5.1,13.9H932.9z"/>
	<path class="st61" d="M955.9,137.4h-3.6v-3.4h16.5c6.5,0,11.2,4.3,11.2,11c0,6-3.7,9.5-7.5,10.4v0.1c0,0,0.8,0.4,1.3,1.5l5.6,11
		c0.6,1.2,1.4,1.3,2.8,1.3h0.8v3.4h-1.7c-3.1,0-4.1-0.4-5.4-2.9l-5.6-11.1c-1-2-1.8-2.3-3.9-2.3h-6.5v16.3h-3.9V137.4z M968.3,153
		c4.6,0,7.5-3,7.5-7.9c0-4.8-2.9-7.7-7.5-7.7h-8.7V153H968.3z"/>
	<path class="st61" d="M990.1,169.3h2c0.8,0,1.2-0.4,1.2-1.2l2.7-34.2h3.9l10.3,22.6c0.9,2,1.9,4.6,1.9,4.6h0.1c0,0,1-2.6,1.9-4.6
		l10.3-22.6h3.9l2.7,34.2c0.1,0.8,0.4,1.2,1.2,1.2h2.1v3.4h-3.8c-2.4,0-3.2-1-3.4-3.4l-1.8-23.6c-0.2-2.1-0.2-5.4-0.2-5.4h-0.1
		c0,0-1,3.4-2,5.4l-9.2,19.7h-3.5l-9.2-19.7c-0.9-1.9-2-5.5-2-5.5h-0.1c0,0,0,3.4-0.2,5.5l-1.8,23.6c-0.2,2.4-1,3.4-3.4,3.4h-3.7
		V169.3z"/>
	<path class="st61" d="M1043.6,169.3h3.6v-32h-3.6v-3.4h11.1v3.4h-3.7v32h3.7v3.4h-11.1V169.3z"/>
	<path class="st61" d="M1084.6,133.3c11,0,19.8,8.7,19.8,19.8c0,11.4-8.8,20.3-19.8,20.3c-11,0-19.8-8.9-19.8-20.3
		C1064.8,141.9,1073.5,133.3,1084.6,133.3z M1084.6,169.8c8.7,0,15.7-7.3,15.7-16.7c0-9.2-7.1-16.2-15.7-16.2
		c-8.7,0-15.7,7-15.7,16.2C1068.8,162.5,1075.9,169.8,1084.6,169.8z"/>
	<path class="st61" d="M1119.6,168.2l-4,9.9h-3.1l3.1-9.9H1119.6z"/>
	<path class="st61" d="M495.1,192.6h-3.6v-3.4H508c6.5,0,11.2,4.3,11.2,11c0,6-3.7,9.5-7.5,10.4v0.1c0,0,0.8,0.4,1.3,1.5l5.6,11
		c0.6,1.2,1.4,1.3,2.8,1.3h0.8v3.4h-1.7c-3.1,0-4.1-0.4-5.4-2.9l-5.6-11.1c-1-2-1.8-2.3-3.9-2.3H499v16.3h-3.9V192.6z M507.6,208.2
		c4.6,0,7.5-3,7.5-7.9c0-4.8-2.9-7.7-7.5-7.7H499v15.6H507.6z"/>
	<path class="st61" d="M534,192.6h-3.6v-3.4h22.2c2.4,0,3.4,1,3.4,3.4v3.9h-3.6v-2.6c0-0.8-0.4-1.2-1.2-1.2h-13.2v14.1h14.6v3.4
		h-14.6v13.2c0,0.8,0.4,1.2,1.2,1.2h13.6c0.8,0,1.2-0.4,1.2-1.2v-2.6h3.6v3.9c0,2.4-1,3.4-3.4,3.4h-16.8c-2.4,0-3.4-1-3.4-3.4V192.6
		z"/>
	<path class="st61" d="M585.7,188.5c5.5,0,14.5,2.4,14.5,8.2v3.2h-3.6v-2.2c0-3.6-6.3-5.6-10.8-5.6c-8.6,0-15.2,6.7-15.2,16.1
		c0,9.3,6.6,16.7,15.4,16.7c8,0,12.7-5.5,12.7-5.5l2.2,2.8c0,0-5.4,6.3-15,6.3c-11.4,0-19.4-9.1-19.4-20.4
		C566.5,197,574.8,188.5,585.7,188.5z"/>
	<path class="st61" d="M613.7,193.8c0-0.8-0.4-1.2-1.2-1.2h-2.4v-3.4h4.1c2.4,0,3.4,1,3.4,3.4v22c0,6.5,4.1,10.5,10.4,10.5
		c6.3,0,10.5-4,10.5-10.6v-21.9c0-2.4,1-3.4,3.4-3.4h4.1v3.4h-2.4c-0.8,0-1.2,0.4-1.2,1.2v20.9c0,8.4-5.7,14-14.3,14
		c-8.6,0-14.4-5.6-14.4-14V193.8z"/>
	<path class="st61" d="M659.3,192.6h-3.6v-3.4h16.4c6.9,0,12,4.5,12,11.7c0,7.2-5.1,11.9-12,11.9h-8.9v15.2h-3.9V192.6z
		 M671.6,209.3c5.1,0,8.5-3.1,8.5-8.4c0-5.2-3.4-8.3-8.4-8.3h-8.5v16.7H671.6z"/>
	<path class="st61" d="M696.7,192.6h-3.6v-3.4h22.2c2.4,0,3.4,1,3.4,3.4v3.9h-3.6v-2.6c0-0.8-0.4-1.2-1.2-1.2h-13.2v14.1h14.6v3.4
		h-14.6v13.2c0,0.8,0.4,1.2,1.2,1.2h13.6c0.8,0,1.2-0.4,1.2-1.2v-2.6h3.6v3.9c0,2.4-1,3.4-3.4,3.4h-16.8c-2.4,0-3.4-1-3.4-3.4V192.6
		z"/>
	<path class="st61" d="M733.1,192.6h-3.6v-3.4h16.5c6.5,0,11.2,4.3,11.2,11c0,6-3.7,9.5-7.5,10.4v0.1c0,0,0.8,0.4,1.3,1.5l5.6,11
		c0.6,1.2,1.4,1.3,2.8,1.3h0.8v3.4h-1.7c-3.1,0-4.1-0.4-5.4-2.9l-5.6-11.1c-1-2-1.8-2.3-3.9-2.3h-6.5v16.3h-3.9V192.6z M745.5,208.2
		c4.6,0,7.5-3,7.5-7.9c0-4.8-2.9-7.7-7.5-7.7h-8.7v15.6H745.5z"/>
	<path class="st61" d="M787.8,188.5c11,0,19.8,8.7,19.8,19.8c0,11.4-8.8,20.3-19.8,20.3c-11,0-19.8-8.9-19.8-20.3
		C768,197.1,776.7,188.5,787.8,188.5z M787.8,225c8.7,0,15.7-7.3,15.7-16.7c0-9.2-7.1-16.2-15.7-16.2c-8.7,0-15.7,7-15.7,16.2
		C772,217.7,779.1,225,787.8,225z"/>
	<path class="st61" d="M841.5,192.6h-3.6v-3.4h22.2c2.4,0,3.4,1,3.4,3.4v3.9h-3.6v-2.6c0-0.8-0.4-1.2-1.2-1.2h-13.2v14.1H860v3.4
		h-14.6v13.2c0,0.8,0.4,1.2,1.2,1.2h13.6c0.8,0,1.2-0.4,1.2-1.2v-2.6h3.6v3.9c0,2.4-1,3.4-3.4,3.4h-16.8c-2.4,0-3.4-1-3.4-3.4V192.6
		z"/>
	<path class="st61" d="M898.4,192.6h-3.6v-3.4h16.5c6.5,0,11.2,4.3,11.2,11c0,6-3.7,9.5-7.5,10.4v0.1c0,0,0.8,0.4,1.3,1.5l5.6,11
		c0.6,1.2,1.4,1.3,2.8,1.3h0.8v3.4h-1.7c-3.1,0-4.1-0.4-5.4-2.9l-5.6-11.1c-1-2-1.8-2.3-3.9-2.3h-6.5v16.3h-3.9V192.6z M910.9,208.2
		c4.6,0,7.5-3,7.5-7.9c0-4.8-2.9-7.7-7.5-7.7h-8.7v15.6H910.9z"/>
	<path class="st61" d="M933.9,224.5h3.6v-32h-3.6v-3.4H945v3.4h-3.7v32h3.7v3.4h-11.1V224.5z"/>
	<path class="st61" d="M958.6,193.8c0-0.8-0.4-1.2-1.2-1.2H955v-3.4h4.1c2.4,0,3.4,1,3.4,3.4v22c0,6.5,4.1,10.5,10.4,10.5
		c6.3,0,10.5-4,10.5-10.6v-21.9c0-2.4,1-3.4,3.4-3.4h4.1v3.4h-2.4c-0.8,0-1.2,0.4-1.2,1.2v20.9c0,8.4-5.7,14-14.3,14
		c-8.6,0-14.4-5.6-14.4-14V193.8z"/>
	<path class="st61" d="M1002.6,220.3c0,0,3.9,4.7,10,4.7c4.3,0,7.7-2.8,7.7-6.9c0-9.6-19.2-7.7-19.2-19.7c0-5.4,4.7-9.9,11.9-9.9
		c3.8,0,10.5,1.6,10.5,6.7v2.8h-3.6v-1.8c0-2.3-3.2-4-6.8-4c-5,0-7.9,2.9-7.9,6.2c0,9,19.2,6.8,19.2,19.6c0,5.8-4.5,10.7-11.8,10.7
		c-7.9,0-12.3-5.5-12.3-5.5L1002.6,220.3z"/>
	<path class="st61" d="M1054.2,188.5c11,0,19.8,8.7,19.8,19.8c0,11.4-8.8,20.3-19.8,20.3c-11,0-19.8-8.9-19.8-20.3
		C1034.4,197.1,1043.1,188.5,1054.2,188.5z M1054.2,225c8.7,0,15.7-7.3,15.7-16.7c0-9.2-7.1-16.2-15.7-16.2c-8.7,0-15.7,7-15.7,16.2
		C1038.4,217.7,1045.4,225,1054.2,225z"/>
</g>
</svg>
