<?xml version="1.0" encoding="utf-8"?>
<!-- Generator: Adobe Illustrator 23.0.0, SVG Export Plug-In . SVG Version: 6.00 Build 0)  -->
<svg version="1.1" id="Livello_1" xmlns="http://www.w3.org/2000/svg" xmlns:xlink="http://www.w3.org/1999/xlink" x="0px" y="0px"
	 viewBox="0 0 825.8 509.7" style="enable-background:new 0 0 825.8 509.7;" xml:space="preserve">
<style type="text/css">
	
		.st0{fill-rule:evenodd;clip-rule:evenodd;fill:none;stroke:#4E5594;stroke-width:3;stroke-linecap:round;stroke-miterlimit:10;stroke-dasharray:0,8;}
	.st1{fill-rule:evenodd;clip-rule:evenodd;fill:#D8B200;}
	.st2{fill-rule:evenodd;clip-rule:evenodd;fill:#4E5594;}
	.st3{fill:#4E5594;}
	.st4{fill-rule:evenodd;clip-rule:evenodd;fill:#00295A;}
	.st5{fill:#D8B200;}
	.st6{fill:#FFFFFF;}
</style>
<path class="st0" d="M726.4,125.9c52.3,0,94.8,42.4,94.8,94.8c0,52.3-42.4,94.8-94.8,94.8"/>
<path class="st1" d="M228,38.4c72.5,0,131.3,58.8,131.3,131.3c0,72.5-58.8,131.3-131.3,131.3S96.8,242.2,96.8,169.7
	C96.8,97.2,155.5,38.4,228,38.4z"/>
<path class="st2" d="M85.1,38.5c38.4,0,69.4,31.1,69.4,69.4s-31.1,69.4-69.4,69.4s-69.4-31.1-69.4-69.4S46.7,38.5,85.1,38.5z"/>
<g>
	<path class="st3" d="M433.2,480.2c-0.9,0-1.6-0.7-1.6-1.5l0,0c0-0.9,0.7-1.6,1.6-1.6l0,0c0.9,0,1.6,0.7,1.6,1.6l0,0
		C434.8,479.5,434.1,480.2,433.2,480.2L433.2,480.2C433.3,480.2,433.2,480.2,433.2,480.2z M423.6,480.2c-0.9,0-1.6-0.7-1.5-1.6l0,0
		c0-0.9,0.7-1.6,1.6-1.6l0,0c0.9,0,1.6,0.7,1.6,1.6l0,0C425.2,479.5,424.5,480.2,423.6,480.2L423.6,480.2
		C423.7,480.2,423.7,480.2,423.6,480.2z M414,479.9L414,479.9c-0.9,0-1.5-0.8-1.5-1.6l0,0c0-0.9,0.8-1.6,1.6-1.5l0,0
		c0.9,0.1,1.6,0.8,1.5,1.7l0,0c0,0.8-0.7,1.5-1.5,1.5l0,0C414.1,479.9,414.1,479.9,414,479.9z M404.4,479.3
		c-0.9-0.1-1.5-0.8-1.4-1.7l0,0c0.1-0.8,0.8-1.5,1.7-1.4l0,0c0.8,0.1,1.5,0.8,1.4,1.7l0,0c-0.1,0.8-0.7,1.4-1.5,1.5l0,0
		C404.6,479.3,404.5,479.4,404.4,479.3z M394.9,478.4L394.9,478.4c-0.9-0.1-1.5-0.9-1.4-1.8l0,0c0.1-0.9,0.9-1.5,1.7-1.4l0,0l0,0
		l0,0c0.8,0.1,1.5,0.9,1.4,1.7l0,0c-0.1,0.8-0.7,1.4-1.5,1.4l0,0C395,478.4,394.9,478.4,394.9,478.4z M385.3,477.2
		c-0.9-0.1-1.5-1-1.4-1.8l0,0c0.1-0.9,1-1.5,1.8-1.3l0,0c0.9,0.1,1.5,0.9,1.3,1.8l0,0c-0.1,0.8-0.7,1.3-1.5,1.3l0,0
		C385.5,477.2,385.4,477.2,385.3,477.2z M375.8,475.6L375.8,475.6c-0.9-0.2-1.4-1-1.3-1.8l0,0c0.2-0.9,1-1.4,1.8-1.3l0,0
		c0.9,0.2,1.4,1,1.3,1.8l0,0c-0.1,0.7-0.8,1.3-1.5,1.3l0,0C376.1,475.6,376,475.6,375.8,475.6z M366.4,473.7L366.4,473.7
		c-0.8-0.2-1.4-1-1.2-1.9l0,0c0.2-0.8,1-1.4,1.9-1.2l0,0c0.9,0.2,1.4,1,1.2,1.9l0,0c-0.2,0.7-0.8,1.2-1.5,1.2l0,0
		C366.7,473.7,366.6,473.7,366.4,473.7z M357.1,471.4c-0.9-0.2-1.3-1.1-1.1-1.9l0,0c0.2-0.8,1.1-1.3,1.9-1.1l0,0
		c0.8,0.2,1.3,1.1,1.1,1.9l0,0c-0.2,0.7-0.8,1.2-1.4,1.2l0,0C357.4,471.5,357.2,471.4,357.1,471.4z M347.8,468.8
		c-0.8-0.2-1.3-1.1-1-2l0,0c0.2-0.8,1.1-1.3,2-1l0,0c0.8,0.2,1.3,1.1,1,2l0,0c-0.2,0.7-0.8,1.1-1.4,1.1l0,0
		C348.2,468.9,348,468.8,347.8,468.8z M338.7,465.8c-0.8-0.3-1.3-1.2-1-2l0,0c0.3-0.8,1.2-1.3,2-1l0,0c0.8,0.3,1.2,1.2,1,2l0,0
		c-0.2,0.6-0.8,1-1.4,1.1l0,0C339,465.9,338.8,465.9,338.7,465.8z M329.6,462.5c-0.8-0.3-1.2-1.2-0.9-2l0,0c0.3-0.8,1.2-1.2,2-0.9
		l0,0c0,0,0,0,0,0l0,0c0.8,0.3,1.2,1.2,0.9,2l0,0c-0.2,0.6-0.8,1-1.4,1l0,0C330.1,462.6,329.8,462.6,329.6,462.5z M320.8,458.8
		c-0.8-0.3-1.2-1.3-0.8-2.1l0,0c0.4-0.8,1.3-1.2,2.1-0.8l0,0c0.8,0.3,1.2,1.3,0.8,2.1l0,0c-0.2,0.6-0.8,0.9-1.4,0.9l0,0
		C321.2,458.9,321,458.9,320.8,458.8z M312,454.7c-0.8-0.4-1.1-1.3-0.7-2.1l0,0c0.4-0.8,1.3-1.1,2.1-0.7l0,0
		c0.8,0.4,1.1,1.3,0.7,2.1l0,0c-0.2,0.5-0.8,0.9-1.3,0.9l0,0C312.5,454.8,312.3,454.8,312,454.7z M303.5,450.2L303.5,450.2
		c-0.7-0.4-1-1.4-0.6-2.2l0,0c0.4-0.8,1.4-1,2.1-0.6l0,0c0.8,0.4,1,1.4,0.6,2.1l0,0c-0.3,0.5-0.8,0.8-1.3,0.8l0,0
		C304.1,450.4,303.8,450.3,303.5,450.2z M295.2,445.3c-0.7-0.5-1-1.4-0.5-2.2l0,0c0.5-0.7,1.4-1,2.2-0.5l0,0c0.7,0.5,1,1.4,0.5,2.2
		l0,0c-0.3,0.5-0.8,0.7-1.3,0.8l0,0C295.8,445.5,295.5,445.5,295.2,445.3z M287.1,440c-0.7-0.5-0.9-1.5-0.4-2.2l0,0
		c0.5-0.7,1.5-0.9,2.2-0.4l0,0c0.7,0.5,0.9,1.5,0.4,2.2l0,0c-0.3,0.4-0.7,0.7-1.2,0.7l0,0C287.8,440.3,287.4,440.2,287.1,440z
		 M279.4,434.3c-0.7-0.5-0.8-1.5-0.3-2.2l0,0c0.5-0.7,1.5-0.8,2.2-0.3l0,0c0.7,0.5,0.8,1.5,0.3,2.2l0,0c-0.3,0.4-0.7,0.6-1.2,0.6
		l0,0C280,434.7,279.7,434.6,279.4,434.3z M271.9,428.2c-0.6-0.6-0.7-1.6-0.2-2.2l0,0c0.6-0.6,1.6-0.7,2.2-0.2l0,0
		c0.6,0.6,0.7,1.6,0.2,2.2l0,0c-0.3,0.3-0.7,0.5-1.1,0.5l0,0C272.6,428.6,272.2,428.5,271.9,428.2z M264.7,421.7
		c-0.6-0.6-0.6-1.6-0.1-2.2l0,0c0.6-0.6,1.6-0.6,2.2-0.1l0,0l0,0l0,0c0.6,0.6,0.6,1.6,0.1,2.2l0,0c-0.3,0.3-0.7,0.5-1.1,0.5l0,0
		C265.5,422.2,265.1,422.1,264.7,421.7z M258,414.8c-0.6-0.6-0.5-1.6,0.1-2.2l0,0c0.6-0.6,1.6-0.5,2.2,0.1l0,0
		c0.6,0.6,0.5,1.6-0.1,2.2l0,0c-0.3,0.3-0.6,0.4-1,0.4l0,0C258.8,415.4,258.3,415.2,258,414.8z M251.6,407.5L251.6,407.5
		c-0.6-0.7-0.5-1.7,0.2-2.2l0,0c0.7-0.6,1.7-0.5,2.2,0.2l0,0c0.6,0.7,0.5,1.7-0.2,2.2l0,0c-0.3,0.2-0.6,0.4-0.9,0.4l0,0
		C252.4,408.2,252,408,251.6,407.5z M245.8,399.9c-0.5-0.7-0.4-1.7,0.3-2.2l0,0c0.7-0.5,1.7-0.4,2.2,0.4l0,0
		c0.5,0.7,0.4,1.7-0.3,2.2l0,0c-0.3,0.2-0.6,0.3-0.9,0.3l0,0C246.6,400.6,246.1,400.4,245.8,399.9z M240.4,391.9
		c-0.5-0.8-0.2-1.7,0.5-2.2l0,0c0.7-0.5,1.7-0.3,2.2,0.5l0,0c0.5,0.7,0.2,1.7-0.5,2.2l0,0c-0.2,0.2-0.5,0.2-0.8,0.2l0,0
		C241.2,392.7,240.7,392.4,240.4,391.9z M235.5,383.6c-0.4-0.8-0.1-1.7,0.6-2.1l0,0c0.8-0.4,1.7-0.1,2.1,0.6l0,0
		c0.4,0.7,0.1,1.7-0.6,2.1l0,0c-0.2,0.1-0.4,0.2-0.7,0.2l0,0C236.4,384.4,235.8,384.1,235.5,383.6z M231.2,374.9
		c-0.4-0.8,0-1.7,0.8-2.1l0,0c0.8-0.4,1.7,0,2.1,0.8l0,0c0.4,0.8,0,1.7-0.8,2.1l0,0c-0.2,0.1-0.4,0.1-0.6,0.1l0,0
		C232.1,375.8,231.4,375.5,231.2,374.9z M227.4,366c-0.3-0.8,0.1-1.7,0.9-2l0,0c0.8-0.3,1.7,0.1,2,0.9l0,0c0.3,0.8-0.1,1.7-0.9,2
		l0,0c-0.1,0.1-0.3,0.1-0.5,0.1l0,0C228.3,367,227.7,366.6,227.4,366z M224.3,356.8c-0.3-0.8,0.2-1.7,1-2l0,0c0.8-0.2,1.7,0.2,2,1.1
		l0,0c0.3,0.8-0.2,1.7-1,2l0,0c-0.1,0-0.2,0.1-0.4,0.1l0,0C225.2,358,224.5,357.6,224.3,356.8z M221.7,347.5
		c-0.2-0.9,0.3-1.7,1.2-1.9l0,0c0.8-0.2,1.7,0.3,1.9,1.2l0,0l0,0l0,0c0.2,0.8-0.3,1.7-1.2,1.9l0,0c-0.1,0-0.2,0-0.3,0l0,0
		C222.6,348.8,221.9,348.3,221.7,347.5z M219.8,338.1c-0.1-0.9,0.4-1.7,1.3-1.8l0,0c0.8-0.2,1.7,0.4,1.8,1.3l0,0
		c0.2,0.9-0.4,1.7-1.3,1.8l0,0c0,0-0.1,0-0.2,0l0,0C220.6,339.4,219.9,338.9,219.8,338.1z M218.5,328.5c-0.1-0.9,0.5-1.7,1.4-1.8
		l0,0c0.9-0.1,1.6,0.5,1.8,1.4l0,0c0.1,0.9-0.5,1.6-1.4,1.7l0,0c0,0-0.1,0-0.1,0l0,0C219.3,329.9,218.6,329.3,218.5,328.5z"/>
	<path class="st3" d="M440.8,478.3c-0.1-0.9,0.6-1.6,1.4-1.7l0,0l0,0l0,0c0.9-0.1,1.6,0.6,1.7,1.4l0,0c0.1,0.9-0.6,1.6-1.5,1.7l0,0
		c0,0,0,0-0.1,0l0,0C441.6,479.8,440.9,479.2,440.8,478.3z M450.3,477.4c-0.1-0.9,0.5-1.7,1.4-1.8l0,0c0.9-0.1,1.6,0.5,1.8,1.4l0,0
		c0.1,0.8-0.5,1.6-1.4,1.7l0,0c0,0-0.1,0-0.1,0l0,0C451.2,478.8,450.4,478.2,450.3,477.4z M459.8,476.1c-0.1-0.9,0.4-1.7,1.3-1.8
		l0,0l0,0l0,0c0.9-0.1,1.7,0.4,1.8,1.3l0,0c0.1,0.9-0.4,1.7-1.3,1.8l0,0c0,0-0.1,0-0.2,0l0,0C460.6,477.5,459.9,476.9,459.8,476.1z
		 M469.2,474.5c-0.2-0.9,0.4-1.7,1.2-1.9l0,0l0,0l0,0c0.9-0.2,1.7,0.4,1.8,1.2l0,0c0.2,0.9-0.4,1.7-1.2,1.9l0,0c-0.1,0-0.1,0-0.2,0
		l0,0C470,475.8,469.3,475.3,469.2,474.5z M478.5,472.5c-0.2-0.8,0.3-1.7,1.2-1.9l0,0c0.9-0.2,1.7,0.3,1.9,1.2l0,0
		c0.2,0.9-0.3,1.7-1.2,1.9l0,0c-0.1,0-0.2,0.1-0.3,0.1l0,0C479.4,473.8,478.7,473.2,478.5,472.5z M487.7,470.1
		c-0.2-0.8,0.2-1.7,1.1-1.9l0,0c0.9-0.2,1.7,0.2,2,1.1l0,0c0.2,0.8-0.3,1.7-1.1,1.9l0,0c-0.1,0.1-0.2,0.1-0.3,0.1l0,0
		C488.6,471.3,487.9,470.9,487.7,470.1z M496.9,467.4c-0.3-0.8,0.2-1.7,1-2l0,0c0.8-0.3,1.7,0.2,2,1l0,0c0.3,0.8-0.2,1.7-1,2l0,0
		c-0.1,0-0.3,0.1-0.4,0.1l0,0C497.8,468.6,497.1,468.1,496.9,467.4z M505.9,464.4c-0.3-0.8,0.1-1.7,0.9-2l0,0c0.8-0.3,1.7,0.1,2,0.9
		l0,0c0.3,0.8-0.1,1.7-0.9,2l0,0c-0.2,0.1-0.3,0.1-0.5,0.1l0,0C506.8,465.4,506.1,465,505.9,464.4z M514.8,460.9
		c-0.3-0.8,0-1.7,0.8-2.1l0,0c0.8-0.4,1.7,0,2.1,0.8l0,0c0.3,0.8,0,1.7-0.8,2.1l0,0c-0.2,0.1-0.4,0.1-0.5,0.1l0,0
		C515.7,461.9,515.1,461.6,514.8,460.9z M523.6,457.1c-0.4-0.8,0-1.7,0.8-2.1l0,0c0.8-0.4,1.7,0,2.1,0.8l0,0c0.4,0.8,0,1.7-0.7,2.1
		l0,0c-0.2,0.1-0.4,0.1-0.6,0.2l0,0C524.5,458.1,523.8,457.7,523.6,457.1z M532.1,453c-0.4-0.8-0.1-1.7,0.7-2.1l0,0l0,0l0,0
		c0.8-0.4,1.7-0.1,2.1,0.7l0,0c0.4,0.8,0.1,1.7-0.7,2.1l0,0c-0.2,0.1-0.4,0.2-0.6,0.2l0,0C533,453.9,532.4,453.6,532.1,453z
		 M540.6,448.5c-0.4-0.8-0.2-1.7,0.6-2.1l0,0l0,0l0,0c0.8-0.4,1.7-0.2,2.1,0.6l0,0c0.4,0.8,0.2,1.7-0.6,2.1l0,0
		c-0.2,0.1-0.5,0.2-0.7,0.2l0,0C541.4,449.3,540.9,449,540.6,448.5z M548.8,443.6c-0.5-0.7-0.3-1.7,0.5-2.2l0,0
		c0.7-0.5,1.7-0.3,2.2,0.5l0,0c0.5,0.7,0.3,1.7-0.5,2.2l0,0c-0.2,0.2-0.5,0.2-0.8,0.2l0,0C549.6,444.4,549.1,444.2,548.8,443.6z
		 M556.8,438.5c-0.5-0.7-0.3-1.7,0.4-2.2l0,0c0.7-0.5,1.7-0.3,2.2,0.4l0,0c0.5,0.7,0.3,1.7-0.4,2.2l0,0c-0.2,0.2-0.5,0.3-0.8,0.3
		l0,0C557.6,439.2,557.1,438.9,556.8,438.5z M564.6,432.9c-0.5-0.7-0.4-1.7,0.3-2.2l0,0c0.7-0.5,1.7-0.4,2.2,0.3l0,0
		c0.5,0.7,0.4,1.7-0.3,2.2l0,0c-0.3,0.2-0.6,0.3-0.9,0.3l0,0C565.4,433.6,564.9,433.4,564.6,432.9z M572.1,427
		c-0.6-0.7-0.5-1.7,0.2-2.2l0,0l0,0l0,0c0.7-0.6,1.6-0.5,2.2,0.2l0,0c0.6,0.6,0.5,1.6-0.2,2.2l0,0c-0.3,0.2-0.6,0.3-0.9,0.3l0,0
		C572.9,427.6,572.4,427.4,572.1,427z M579.3,420.8c-0.6-0.6-0.5-1.6,0.1-2.2l0,0l0,0l0,0c0.6-0.6,1.6-0.6,2.2,0.1l0,0
		c0.6,0.6,0.5,1.6-0.1,2.2l0,0c-0.3,0.2-0.7,0.4-1,0.4l0,0C580.1,421.4,579.6,421.2,579.3,420.8z M586.3,414.3
		c-0.6-0.6-0.6-1.6,0-2.2l0,0l0,0l0,0c0.6-0.6,1.6-0.6,2.2,0l0,0c0.6,0.6,0.6,1.6,0,2.2l0,0c-0.3,0.3-0.7,0.4-1,0.4l0,0
		C587,414.8,586.6,414.6,586.3,414.3z M592.9,407.4c-0.6-0.6-0.7-1.6-0.1-2.2l0,0c0.6-0.6,1.6-0.7,2.2-0.1l0,0
		c0.6,0.6,0.7,1.6,0.1,2.2l0,0c-0.3,0.3-0.7,0.5-1.1,0.5l0,0C593.6,407.9,593.2,407.7,592.9,407.4z M599.2,400.2
		c-0.7-0.5-0.8-1.5-0.2-2.2l0,0l0,0l0,0c0.6-0.7,1.6-0.8,2.2-0.2l0,0c0.7,0.6,0.8,1.6,0.2,2.2l0,0c-0.3,0.4-0.7,0.6-1.1,0.6l0,0
		C599.9,400.6,599.5,400.5,599.2,400.2z M605.1,392.8c-0.7-0.5-0.9-1.5-0.3-2.2l0,0l0,0l0,0c0.5-0.7,1.5-0.8,2.2-0.3l0,0
		c0.7,0.5,0.8,1.5,0.3,2.2l0,0c-0.3,0.4-0.7,0.6-1.2,0.7l0,0C605.8,393.1,605.4,393,605.1,392.8z M610.7,385
		c-0.7-0.5-0.9-1.4-0.5-2.2l0,0c0,0,0,0,0,0l0,0c0.5-0.7,1.5-0.9,2.2-0.4l0,0c0.7,0.5,0.9,1.4,0.4,2.2l0,0c-0.3,0.4-0.8,0.7-1.3,0.7
		l0,0C611.3,385.3,611,385.2,610.7,385z M615.8,376.9c-0.7-0.4-1-1.4-0.5-2.2l0,0l0,0l0,0c0.4-0.7,1.4-1,2.2-0.6l0,0
		c0.7,0.4,1,1.4,0.6,2.2l0,0c-0.3,0.5-0.8,0.7-1.3,0.8l0,0C616.4,377.2,616.1,377.1,615.8,376.9z M620.5,368.6
		c-0.8-0.4-1.1-1.4-0.7-2.1l0,0c0.4-0.8,1.4-1.1,2.1-0.7l0,0c0.8,0.4,1.1,1.3,0.7,2.1l0,0c-0.3,0.5-0.8,0.8-1.3,0.8l0,0
		C621,368.8,620.8,368.8,620.5,368.6z M624.8,360.1c-0.8-0.4-1.2-1.3-0.8-2.1l0,0c0.4-0.8,1.3-1.2,2.1-0.8l0,0
		c0.8,0.4,1.1,1.3,0.8,2.1l0,0c-0.2,0.6-0.8,0.9-1.3,0.9l0,0C625.2,360.2,625,360.2,624.8,360.1z M628.5,351.3
		c-0.8-0.3-1.2-1.2-0.9-2l0,0c0.3-0.8,1.2-1.2,2-0.9l0,0c0.8,0.3,1.2,1.2,0.9,2l0,0c-0.2,0.6-0.8,1-1.4,1l0,0
		C628.9,351.4,628.7,351.4,628.5,351.3z M631.8,342.3c-0.8-0.3-1.3-1.2-1-2l0,0c0.3-0.8,1.2-1.3,2-1l0,0c0.8,0.3,1.3,1.2,1,2l0,0
		c-0.2,0.7-0.8,1.1-1.4,1.1l0,0C632.1,342.4,632,342.4,631.8,342.3z M634.5,333.2c-0.9-0.2-1.4-1.1-1.1-1.9l0,0
		c0.2-0.9,1.1-1.3,1.9-1.1l0,0c0.8,0.2,1.3,1.1,1.1,1.9l0,0c-0.2,0.7-0.8,1.2-1.5,1.2l0,0C634.8,333.2,634.7,333.2,634.5,333.2z
		 M636.7,323.9c-0.9-0.2-1.4-1-1.3-1.9l0,0c0.2-0.9,1-1.4,1.9-1.2l0,0c0.9,0.2,1.4,1,1.3,1.8l0,0c-0.1,0.7-0.8,1.3-1.5,1.3l0,0
		C636.9,323.9,636.8,323.9,636.7,323.9z M638.3,314.5c-0.9-0.1-1.5-0.9-1.4-1.8l0,0c0.1-0.9,0.9-1.5,1.8-1.4l0,0
		c0.9,0.1,1.5,0.9,1.4,1.8l0,0c-0.1,0.8-0.7,1.3-1.5,1.4l0,0C638.5,314.5,638.4,314.5,638.3,314.5z M639.4,305
		c-0.9-0.1-1.5-0.8-1.4-1.7l0,0c0.1-0.9,0.8-1.5,1.7-1.5l0,0c0.8,0.1,1.5,0.8,1.4,1.7l0,0c-0.1,0.8-0.7,1.4-1.5,1.5l0,0
		C639.5,305,639.4,305,639.4,305z M639.9,295.5c-0.9,0-1.6-0.7-1.5-1.6l0,0c0-0.9,0.7-1.6,1.6-1.6l0,0c0.9,0,1.6,0.7,1.6,1.6l0,0
		C641.5,294.8,640.8,295.4,639.9,295.5L639.9,295.5C639.9,295.5,639.9,295.5,639.9,295.5z"/>
	<path class="st3" d="M218.6,304.2l-6.4,20.5l7-5.9l7.6,5.2L218.6,304.2z"/>
</g>
<path class="st4" d="M652.6,222.5c44.7,0,80.9,36.2,80.9,80.9c0,44.7-36.2,80.9-80.9,80.9c-44.7,0-80.9-36.2-80.9-80.9
	C571.7,258.7,607.9,222.5,652.6,222.5z"/>
<path class="st4" d="M697.3,60.7c44.7,0,80.9,36.2,80.9,80.9s-36.2,80.9-80.9,80.9s-80.9-36.2-80.9-80.9S652.6,60.7,697.3,60.7z"/>
<g>
	<path class="st5" d="M57.5,102.3c0-2.5-1.9-4.5-4.9-4.5c-2.4,0-4.2,1.2-4.2,2.6v1.1h-2.2v-1.8c0-3,4.1-4.2,6.5-4.2
		c4.5,0,7.2,3,7.2,6.7c0,8.4-12.6,8.1-12.6,14.7c0,0.5,0.3,0.7,0.8,0.7h9.9c0.5,0,0.7-0.2,0.7-0.7v-1.6H61v2.4
		c0,1.5-0.6,2.1-2.1,2.1H47c-1.6,0-2.1-0.7-2.1-2.3C44.9,108.7,57.5,109.4,57.5,102.3z"/>
	<path class="st5" d="M67.8,107.9c0-6.8,2-12.3,8.2-12.3s8.2,5.4,8.2,12.3c0,6.9-2,12.3-8.2,12.3S67.8,114.8,67.8,107.9z
		 M81.7,107.9c0-5.6-1.3-10.1-5.8-10.1c-4.5,0-5.8,4.4-5.8,10.1c0,5.7,1.3,10.1,5.8,10.1C80.4,118,81.7,113.6,81.7,107.9z"/>
	<path class="st5" d="M91.2,117.7h5.3v-17.4c0-0.7,0-1.3,0-1.3h-0.1c0,0-0.2,0.5-1.2,1.4l-2.5,2.5l-1.5-1.5l5.4-5.3h2.2v21.7h5.2
		v2.1H91.2V117.7z"/>
	<path class="st5" d="M121.2,100.3c0.7-1.3,1.3-2.2,1.3-2.2v-0.1c0,0-0.6,0.1-1.8,0.1h-8.6c-0.5,0-0.7,0.2-0.7,0.7v1.6h-2.2v-2.4
		c0-1.5,0.6-2.1,2-2.1h14v1.6l-11.8,22.1h-2.6L121.2,100.3z"/>
</g>
<g>
	<path class="st6" d="M170.7,99.5c0,0,1.5,1.8,3.8,1.8c1.6,0,2.9-1,2.9-2.6c0-3.6-7.2-2.9-7.2-7.4c0-2,1.8-3.7,4.5-3.7
		c1.4,0,3.9,0.6,3.9,2.5v1h-1.4v-0.7c0-0.9-1.2-1.5-2.6-1.5c-1.9,0-3,1.1-3,2.3c0,3.4,7.2,2.6,7.2,7.4c0,2.2-1.7,4-4.4,4
		c-3,0-4.6-2.1-4.6-2.1L170.7,99.5z"/>
	<path class="st6" d="M188.2,91.7c3,0,5.5,2.3,5.5,5.4c0,3.2-2.5,5.5-5.5,5.5c-3,0-5.5-2.4-5.5-5.5C182.8,94,185.2,91.7,188.2,91.7z
		 M188.3,101.3c2.2,0,4-1.8,4-4.3c0-2.4-1.8-4.1-4-4.1c-2.2,0-4.1,1.8-4.1,4.1C184.2,99.5,186,101.3,188.3,101.3z"/>
	<path class="st6" d="M198.5,93.6c0-0.3-0.2-0.5-0.5-0.5h-0.9v-1.2h1.5c0.9,0,1.3,0.4,1.3,1.2v0.5c0,0.4,0,0.7,0,0.7h0
		c0.4-1,1.7-2.6,4.1-2.6c2.6,0,3.5,1.5,3.5,4v5c0,0.3,0.2,0.5,0.5,0.5h0.9v1.2h-1.5c-0.9,0-1.3-0.4-1.3-1.3v-5
		c0-1.6-0.2-3.1-2.3-3.1c-1.8,0-3.3,1.2-3.8,2.9c-0.1,0.4-0.2,0.9-0.2,1.4v5h-1.4V93.6z"/>
	<path class="st6" d="M217.7,91.7c3,0,5.5,2.3,5.5,5.4c0,3.2-2.5,5.5-5.5,5.5c-3,0-5.5-2.4-5.5-5.5C212.2,94,214.6,91.7,217.7,91.7z
		 M217.7,101.3c2.2,0,4-1.8,4-4.3c0-2.4-1.8-4.1-4-4.1c-2.2,0-4.1,1.8-4.1,4.1C213.6,99.5,215.5,101.3,217.7,101.3z"/>
	<path class="st6" d="M235.2,99.8c0,0,1.2,1.6,3.2,1.6c1.2,0,2.2-0.6,2.2-1.7c0-2.3-5.8-1.9-5.8-5.2c0-1.9,1.6-2.8,3.7-2.8
		c1.1,0,3.2,0.4,3.2,1.9v0.9h-1.3V94c0-0.8-1.1-1.1-1.8-1.1c-1.5,0-2.3,0.5-2.3,1.5c0,2.3,5.8,1.8,5.8,5.3c0,1.7-1.6,2.9-3.6,2.9
		c-2.7,0-4-1.8-4-1.8L235.2,99.8z"/>
	<path class="st6" d="M246.9,93.1h-1.4v-1.2h1.4V89h1.4v2.9h2.6v1.2h-2.6v5.3c0,2.4,1.6,2.8,2.3,2.8c0.3,0,0.5,0,0.5,0v1.3
		c0,0-0.2,0-0.6,0c-1.2,0-3.6-0.4-3.6-3.9V93.1z"/>
	<path class="st6" d="M261.1,95.9h0.6v-0.1c0-2.2-0.8-2.9-2.7-2.9c-0.5,0-2,0.1-2,0.9v0.7h-1.3v-1c0-1.5,2.5-1.8,3.4-1.8
		c3.3,0,4.1,1.8,4.1,4v5c0,0.3,0.2,0.5,0.5,0.5h0.9v1.2H263c-0.9,0-1.2-0.4-1.2-1.2c0-0.5,0-0.8,0-0.8h0c0,0-0.9,2.3-3.5,2.3
		c-1.7,0-3.5-1-3.5-3.1C254.7,96.1,259.3,95.9,261.1,95.9z M258.5,101.4c2,0,3.2-2.1,3.2-3.9V97h-0.6c-1.6,0-4.9,0-4.9,2.4
		C256.2,100.4,256.9,101.4,258.5,101.4z"/>
	<path class="st6" d="M268.8,93.1h-1.4v-1.2h1.4V89h1.4v2.9h2.6v1.2h-2.6v5.3c0,2.4,1.6,2.8,2.3,2.8c0.3,0,0.5,0,0.5,0v1.3
		c0,0-0.2,0-0.6,0c-1.2,0-3.6-0.4-3.6-3.9V93.1z"/>
	<path class="st6" d="M281.7,91.7c2.9,0,4.4,2.2,4.4,4.8c0,0.2,0,0.7,0,0.7h-8c0,2.6,1.9,4.1,4,4.1c1.9,0,3.1-1.3,3.1-1.3l0.7,1.1
		c0,0-1.5,1.5-3.9,1.5c-3.1,0-5.5-2.2-5.5-5.5C276.6,93.7,278.9,91.7,281.7,91.7z M284.6,96.1c-0.1-2.2-1.4-3.2-2.9-3.2
		c-1.7,0-3.2,1.1-3.6,3.2H284.6z"/>
	<path class="st6" d="M174.5,115.5c0-0.3-0.2-0.5-0.5-0.5h-0.9v-1.2h1.5c0.9,0,1.3,0.4,1.3,1.3v7.5c0,0.3,0.2,0.5,0.5,0.5h0.9v1.2
		h-1.5c-0.9,0-1.3-0.4-1.3-1.3V115.5z M174.5,109.7h1.4v1.8h-1.4V109.7z"/>
	<path class="st6" d="M181.7,115.5c0-0.3-0.2-0.5-0.5-0.5h-0.9v-1.2h1.5c0.9,0,1.3,0.4,1.3,1.2v0.5c0,0.4,0,0.7,0,0.7h0
		c0.5-1.4,2.2-2.6,3.8-2.6c1.9,0,2.9,0.9,3.2,2.6h0c0.6-1.4,2.1-2.6,3.8-2.6c2.5,0,3.5,1.5,3.5,4v5c0,0.3,0.2,0.5,0.5,0.5h0.9v1.2
		h-1.5c-0.9,0-1.3-0.4-1.3-1.3v-5c0-1.7-0.4-3.1-2.3-3.1c-1.6,0-2.9,1.4-3.3,2.9c-0.1,0.5-0.2,1-0.2,1.5v4.9h-1.4V118
		c0-1.6-0.2-3.1-2.2-3.1c-1.7,0-3,1.5-3.4,3.1c-0.1,0.4-0.2,0.9-0.2,1.4v4.9h-1.4V115.5z"/>
	<path class="st6" d="M203.1,115.5c0-0.3-0.2-0.5-0.5-0.5h-0.9v-1.2h1.4c0.9,0,1.2,0.4,1.2,1.1c0,0.4,0,0.7,0,0.7h0
		c0,0,0.8-2.1,3.6-2.1c2.8,0,4.5,2.2,4.5,5.5c0,3.3-2,5.5-4.7,5.5c-2.6,0-3.4-2-3.4-2h0c0,0,0,0.4,0,0.9v5h-1.4V115.5z M207.7,123.2
		c1.8,0,3.4-1.6,3.4-4.2c0-2.6-1.3-4.2-3.3-4.2c-1.7,0-3.4,1.2-3.4,4.2C204.4,121.1,205.6,123.2,207.7,123.2z"/>
	<path class="st6" d="M217.4,115.5c0-0.3-0.2-0.5-0.5-0.5h-0.9v-1.2h1.5c0.9,0,1.3,0.4,1.3,1.3v7.5c0,0.3,0.2,0.5,0.5,0.5h0.9v1.2
		h-1.5c-0.9,0-1.3-0.4-1.3-1.3V115.5z M217.4,109.7h1.4v1.8h-1.4V109.7z"/>
	<path class="st6" d="M228.7,113.6c2.9,0,4.4,2.2,4.4,4.8c0,0.2,0,0.7,0,0.7h-8c0,2.6,1.9,4.1,4,4.1c1.9,0,3.1-1.3,3.1-1.3l0.7,1.1
		c0,0-1.5,1.5-3.9,1.5c-3.1,0-5.5-2.2-5.5-5.5C223.6,115.6,225.9,113.6,228.7,113.6z M231.7,118c-0.1-2.2-1.4-3.2-2.9-3.2
		c-1.7,0-3.2,1.1-3.6,3.2H231.7z"/>
	<path class="st6" d="M241.6,113.6c2.8,0,3.5,1.8,3.5,1.8h0c0,0,0-0.2,0-0.4c0-0.7,0.3-1.1,1.2-1.1h1.5v1.2h-0.9
		c-0.3,0-0.5,0.1-0.5,0.5v8.5c0,3.3-2.4,4.6-5,4.6c-1.2,0-2.4-0.3-3.4-0.8l0.5-1.2c0,0,1.3,0.7,2.8,0.7c2,0,3.6-1,3.6-3.3v-0.9
		c0-0.4,0-0.7,0-0.7h0c-0.6,1.1-1.7,1.8-3.3,1.8c-2.8,0-4.6-2.2-4.6-5.4S238.8,113.6,241.6,113.6z M245,118.8c0-3-1.5-4-3.3-4
		c-2,0-3.2,1.5-3.2,4c0,2.5,1.3,4.1,3.4,4.1C243.6,122.9,245,121.9,245,118.8z"/>
	<path class="st6" d="M257.5,117.8h0.6v-0.1c0-2.2-0.8-2.9-2.7-2.9c-0.5,0-2,0.1-2,0.9v0.7H252v-1c0-1.5,2.5-1.8,3.4-1.8
		c3.3,0,4.1,1.8,4.1,4v5c0,0.3,0.2,0.5,0.5,0.5h0.9v1.2h-1.4c-0.9,0-1.2-0.4-1.2-1.2c0-0.5,0-0.8,0-0.8h0c0,0-0.9,2.3-3.5,2.3
		c-1.7,0-3.5-1-3.5-3.1C251.1,117.9,255.7,117.8,257.5,117.8z M254.9,123.3c2,0,3.2-2.1,3.2-3.9v-0.5h-0.6c-1.6,0-4.9,0-4.9,2.4
		C252.6,122.3,253.3,123.3,254.9,123.3z"/>
	<path class="st6" d="M265.3,115h-1.4v-1.2h1.4v-2.9h1.4v2.9h2.6v1.2h-2.6v5.3c0,2.4,1.6,2.8,2.3,2.8c0.3,0,0.5,0,0.5,0v1.3
		c0,0-0.2,0-0.6,0c-1.2,0-3.6-0.4-3.6-3.9V115z"/>
	<path class="st6" d="M278.1,113.6c2.9,0,4.4,2.2,4.4,4.8c0,0.2,0,0.7,0,0.7h-8c0,2.6,1.9,4.1,4,4.1c1.9,0,3.1-1.3,3.1-1.3l0.7,1.1
		c0,0-1.5,1.5-3.9,1.5c-3.1,0-5.5-2.2-5.5-5.5C273,115.6,275.3,113.6,278.1,113.6z M281,118c-0.1-2.2-1.4-3.2-2.9-3.2
		c-1.7,0-3.2,1.1-3.6,3.2H281z"/>
	<path class="st3" d="M189.8,158.5c0,0,2.3,2.7,5.9,2.7c2.7,0,5.1-2,5.1-4.9c0-3.1-2.6-4.8-5.5-4.8h-1.6l-0.5-1.3l5.6-6.7
		c0.5-0.7,1.2-1.3,1.2-1.3v-0.1c0,0-0.6,0.1-1.8,0.1h-5.9c-0.5,0-0.7,0.2-0.7,0.7v1.5h-2.1v-2.3c0-1.4,0.5-2,1.9-2h11.5v1.5
		l-6.7,7.8c2.8,0.2,7,1.8,7,6.7c0,3.8-3.2,7.1-7.5,7.1c-4.5,0-7.3-3.2-7.3-3.2L189.8,158.5z"/>
	<path class="st3" d="M206.9,160.4h2.5v2.6h-2.5V160.4z"/>
	<path class="st3" d="M224.9,146.3c0-2.4-1.8-4.3-4.6-4.3c-2.3,0-4,1.2-4,2.5v1.1h-2.1v-1.7c0-2.9,3.9-4,6.2-4
		c4.3,0,6.9,2.8,6.9,6.4c0,8-12,7.8-12,14.1c0,0.5,0.3,0.6,0.7,0.6h9.5c0.5,0,0.7-0.2,0.7-0.7v-1.5h2.1v2.3c0,1.4-0.6,2-2,2H215
		c-1.5,0-2-0.6-2-2.2C213,152.3,224.9,153,224.9,146.3z"/>
	<path class="st3" d="M231.5,151.6c0-6.5,1.9-11.7,7.8-11.7c5.9,0,7.8,5.2,7.8,11.7c0,6.6-1.9,11.7-7.8,11.7
		C233.4,163.3,231.5,158.2,231.5,151.6z M244.9,151.6c0-5.4-1.2-9.6-5.5-9.6c-4.3,0-5.5,4.2-5.5,9.6c0,5.4,1.2,9.6,5.5,9.6
		C243.6,161.2,244.9,157,244.9,151.6z"/>
	<path class="st3" d="M250.9,151.6c0-6.5,1.9-11.7,7.8-11.7c5.9,0,7.8,5.2,7.8,11.7c0,6.6-1.9,11.7-7.8,11.7
		C252.8,163.3,250.9,158.2,250.9,151.6z M264.3,151.6c0-5.4-1.2-9.6-5.5-9.6c-4.3,0-5.5,4.2-5.5,9.6c0,5.4,1.2,9.6,5.5,9.6
		C263,161.2,264.3,157,264.3,151.6z"/>
	<path class="st3" d="M139.1,178.5h-2.1v-1.8h2.2v-4.5h2.2v4.5h4.1v1.8h-4.1v8.3c0,3.8,2.4,4.3,3.6,4.3c0.5,0,0.7-0.1,0.7-0.1v2
		c0,0-0.4,0.1-0.9,0.1c-1.9,0-5.6-0.6-5.6-6V178.5z"/>
	<path class="st3" d="M156.4,176.3c4.7,0,8.6,3.6,8.6,8.4c0,4.9-3.8,8.6-8.5,8.6c-4.7,0-8.6-3.7-8.6-8.6
		C147.9,179.9,151.7,176.3,156.4,176.3z M156.4,191.3c3.5,0,6.3-2.8,6.3-6.6c0-3.7-2.8-6.4-6.3-6.4c-3.5,0-6.3,2.7-6.3,6.4
		C150.1,188.5,152.9,191.3,156.4,191.3z"/>
	<path class="st3" d="M169.1,179.3c0-0.5-0.3-0.7-0.7-0.7H167v-1.9h2.3c1.4,0,2,0.6,2,1.8v0.7c0,0.6-0.1,1.2-0.1,1.2h0.1
		c0.6-1.5,2.6-4.1,6.5-4.1c4,0,5.5,2.3,5.5,6.3v7.7c0,0.5,0.3,0.7,0.7,0.7h1.4v1.9h-2.3c-1.4,0-2-0.6-2-2v-7.8
		c0-2.5-0.4-4.8-3.5-4.8c-2.8,0-5.2,1.9-5.9,4.6c-0.2,0.7-0.3,1.4-0.3,2.2v7.8h-2.2V179.3z"/>
	<path class="st3" d="M188.7,179.3c0-0.5-0.3-0.7-0.7-0.7h-1.4v-1.9h2.3c1.4,0,2,0.6,2,1.8v0.7c0,0.6-0.1,1.2-0.1,1.2h0.1
		c0.6-1.5,2.6-4.1,6.5-4.1c4,0,5.5,2.3,5.5,6.3v7.7c0,0.5,0.3,0.7,0.7,0.7h1.4v1.9h-2.3c-1.4,0-2-0.6-2-2v-7.8
		c0-2.5-0.4-4.8-3.5-4.8c-2.8,0-5.2,1.9-5.9,4.6c-0.2,0.7-0.3,1.4-0.3,2.2v7.8h-2.2V179.3z"/>
	<path class="st3" d="M214.8,176.3c4.5,0,6.8,3.5,6.8,7.5c0,0.4-0.1,1.1-0.1,1.1h-12.5c0.1,4.1,2.9,6.5,6.3,6.5c3,0,4.9-2,4.9-2
		l1.1,1.6c0,0-2.4,2.3-6,2.3c-4.8,0-8.5-3.5-8.5-8.5C206.8,179.5,210.4,176.3,214.8,176.3z M219.3,183.1c-0.1-3.4-2.2-5-4.6-5
		c-2.7,0-5,1.7-5.6,5H219.3z"/>
	<path class="st3" d="M225.9,172.8c0-0.5-0.3-0.7-0.7-0.7h-1.4v-1.9h2.3c1.4,0,2,0.6,2,2v18.1c0,0.5,0.3,0.7,0.7,0.7h1.4v1.9h-2.3
		c-1.4,0-2-0.6-2-2V172.8z"/>
	<path class="st3" d="M233.8,172.8c0-0.5-0.3-0.7-0.7-0.7h-1.4v-1.9h2.3c1.4,0,2,0.6,2,2v18.1c0,0.5,0.3,0.7,0.7,0.7h1.4v1.9h-2.3
		c-1.4,0-2-0.6-2-2V172.8z"/>
	<path class="st3" d="M250.2,182.9h0.9v-0.2c0-3.4-1.2-4.6-4.2-4.6c-0.8,0-3.2,0.2-3.2,1.4v1h-2.1V179c0-2.3,3.9-2.7,5.3-2.7
		c5.1,0,6.4,2.7,6.4,6.2v7.8c0,0.5,0.3,0.7,0.7,0.7h1.4v1.9h-2.2c-1.4,0-1.9-0.6-1.9-1.9c0-0.7,0-1.2,0-1.2h-0.1
		c0,0-1.3,3.5-5.4,3.5c-2.7,0-5.5-1.6-5.5-4.8C240.3,183.1,247.4,182.9,250.2,182.9z M246.1,191.4c3.1,0,5-3.2,5-6v-0.7h-0.9
		c-2.5,0-7.6,0.1-7.6,3.7C242.5,189.9,243.7,191.4,246.1,191.4z"/>
	<path class="st3" d="M259,178.5h-2.1v-1.8h2.2v-4.5h2.2v4.5h4.1v1.8h-4.1v8.3c0,3.8,2.4,4.3,3.6,4.3c0.5,0,0.7-0.1,0.7-0.1v2
		c0,0-0.4,0.1-0.9,0.1c-1.9,0-5.6-0.6-5.6-6V178.5z"/>
	<path class="st3" d="M275.8,176.3c4.5,0,6.8,3.5,6.8,7.5c0,0.4-0.1,1.1-0.1,1.1h-12.4c0.1,4.1,2.9,6.5,6.3,6.5c3,0,4.9-2,4.9-2
		l1.1,1.6c0,0-2.4,2.3-6,2.3c-4.8,0-8.5-3.5-8.5-8.5C267.8,179.5,271.4,176.3,275.8,176.3z M280.3,183.1c-0.1-3.4-2.2-5-4.6-5
		c-2.7,0-5,1.7-5.6,5H280.3z"/>
	<path class="st3" d="M301.6,176.3c3.9,0,5.3,3,5.3,3h0.1c0,0-0.1-0.5-0.1-1.2v-5.3c0-0.5-0.3-0.7-0.7-0.7h-1.4v-1.9h2.3
		c1.4,0,2,0.6,2,2v18.1c0,0.5,0.3,0.7,0.7,0.7h1.4v1.9h-2.3c-1.4,0-1.9-0.6-1.9-1.8c0-0.6,0.1-1,0.1-1H307c0,0-1.3,3.2-5.6,3.2
		c-4.4,0-7.1-3.5-7.1-8.5C294.3,179.6,297.3,176.3,301.6,176.3z M307,184.8c0-3.3-1.7-6.5-5.2-6.5c-2.9,0-5.2,2.4-5.2,6.5
		c0,4,2.1,6.5,5.1,6.5C304.4,191.3,307,189.4,307,184.8z"/>
	<path class="st3" d="M314.9,179.3c0-0.5-0.3-0.7-0.7-0.7h-1.4v-1.9h2.3c1.4,0,2,0.6,2,2v11.6c0,0.5,0.3,0.7,0.7,0.7h1.4v1.9h-2.3
		c-1.4,0-2-0.6-2-2V179.3z M314.8,170.2h2.1v2.8h-2.1V170.2z"/>
	<path class="st3" d="M140.7,202.2h-2.1v-2h9.6c4,0,7,2.6,7,6.8c0,4.2-3,6.9-7,6.9H143v8.9h-2.3V202.2z M147.9,211.9
		c3,0,5-1.8,5-4.9c0-3.1-2-4.8-4.9-4.8h-5v9.8H147.9z"/>
	<path class="st3" d="M159.4,202.2h-2.1v-2h13c1.4,0,2,0.6,2,2v2.3h-2.1v-1.5c0-0.5-0.3-0.7-0.7-0.7h-7.7v8.3h8.5v2h-8.5v7.7
		c0,0.5,0.3,0.7,0.7,0.7h8c0.5,0,0.7-0.2,0.7-0.7v-1.5h2.1v2.3c0,1.4-0.6,2-2,2h-9.8c-1.4,0-2-0.6-2-2V202.2z"/>
	<path class="st3" d="M182.6,202.2H177c-0.5,0-0.7,0.2-0.7,0.7v1.5h-2.1V202c0-1.4,0.5-1.8,1.8-1.8h15.4c1.4,0,1.8,0.5,1.8,1.8v2.4
		h-2.1v-1.5c0-0.5-0.2-0.7-0.7-0.7h-5.6v20.7h-2.3V202.2z"/>
	<path class="st3" d="M204.6,209.2c0-0.5-0.3-0.7-0.7-0.7h-1.4v-1.9h2.3c1.4,0,2,0.5,2,1.8v1.1c0,0.7-0.1,1.2-0.1,1.2h0.1
		c0.8-2.5,2.6-4.3,5.1-4.3c0.5,0,0.9,0.1,0.9,0.1v2.2c0,0-0.4-0.1-0.8-0.1c-2.3,0-4,1.8-4.7,4.2c-0.3,1-0.5,2.1-0.5,3.2v6.8h-2.2
		V209.2z"/>
	<path class="st3" d="M216.5,209.2c0-0.5-0.3-0.7-0.7-0.7h-1.4v-1.9h2.3c1.4,0,2,0.6,2,2v11.6c0,0.5,0.3,0.7,0.7,0.7h1.4v1.9h-2.3
		c-1.4,0-2-0.6-2-2V209.2z M216.4,200.2h2.1v2.8h-2.1V200.2z"/>
	<path class="st3" d="M231.4,206.2c1.8,0,5.8,0.8,5.8,3.5v1.5h-2.1v-0.9c0-1.4-2.4-2-3.7-2c-3.5,0-6.3,2.6-6.3,6.5
		c0,4,2.9,6.5,6.4,6.5c3.3,0,5.2-2.3,5.2-2.3l1,1.6c0,0-2.2,2.6-6.4,2.6c-4.8,0-8.5-3.5-8.5-8.5
		C222.9,209.8,226.6,206.2,231.4,206.2z"/>
	<path class="st3" d="M241.6,209.2c0-0.5-0.3-0.7-0.7-0.7h-1.4v-1.9h2.3c1.4,0,2,0.6,2,2v11.6c0,0.5,0.3,0.7,0.7,0.7h1.4v1.9h-2.3
		c-1.4,0-2-0.6-2-2V209.2z M241.5,200.2h2.1v2.8h-2.1V200.2z"/>
	<path class="st3" d="M256.6,206.2c1.8,0,5.8,0.8,5.8,3.5v1.5h-2.1v-0.9c0-1.4-2.4-2-3.7-2c-3.5,0-6.3,2.6-6.3,6.5
		c0,4,2.9,6.5,6.4,6.5c3.3,0,5.2-2.3,5.2-2.3l1,1.6c0,0-2.2,2.6-6.4,2.6c-4.8,0-8.5-3.5-8.5-8.5C248,209.8,251.7,206.2,256.6,206.2z
		"/>
	<path class="st3" d="M266.4,202.8c0-0.5-0.3-0.7-0.7-0.7h-1.4v-1.9h2.3c1.4,0,2,0.6,2,2v18.1c0,0.5,0.3,0.7,0.7,0.7h1.4v1.9h-2.3
		c-1.4,0-2-0.6-2-2V202.8z"/>
	<path class="st3" d="M282.8,212.8h0.9v-0.2c0-3.4-1.2-4.6-4.2-4.6c-0.8,0-3.2,0.2-3.2,1.4v1h-2.1V209c0-2.3,3.9-2.7,5.3-2.7
		c5.1,0,6.4,2.7,6.4,6.2v7.8c0,0.5,0.3,0.7,0.7,0.7h1.4v1.9h-2.2c-1.4,0-1.9-0.6-1.9-1.9c0-0.7,0-1.2,0-1.2h-0.1
		c0,0-1.3,3.5-5.4,3.5c-2.7,0-5.5-1.6-5.5-4.8C272.9,213,280,212.8,282.8,212.8z M278.7,221.3c3.1,0,5-3.2,5-6v-0.7h-0.9
		c-2.5,0-7.6,0.1-7.6,3.7C275.1,219.8,276.3,221.3,278.7,221.3z"/>
	<path class="st3" d="M291.6,208.4h-2.1v-1.8h2.2v-4.5h2.2v4.5h4.1v1.8h-4.1v8.3c0,3.8,2.4,4.3,3.6,4.3c0.5,0,0.7-0.1,0.7-0.1v2
		c0,0-0.4,0.1-0.9,0.1c-1.9,0-5.6-0.6-5.6-6V208.4z"/>
	<path class="st3" d="M309,206.2c4.7,0,8.6,3.6,8.6,8.4c0,4.9-3.8,8.6-8.5,8.6c-4.7,0-8.6-3.7-8.6-8.6
		C300.4,209.8,304.2,206.2,309,206.2z M309,221.2c3.5,0,6.3-2.8,6.3-6.6c0-3.7-2.8-6.4-6.3-6.4c-3.5,0-6.3,2.7-6.3,6.4
		C302.7,218.4,305.5,221.2,309,221.2z"/>
	<path class="st6" d="M143.9,239c0-0.3-0.2-0.5-0.5-0.5h-0.9v-1.2h1.4c0.9,0,1.2,0.4,1.2,1.1c0,0.4,0,0.7,0,0.7h0
		c0,0,0.8-2.1,3.6-2.1c2.8,0,4.5,2.2,4.5,5.5c0,3.3-2,5.5-4.7,5.5c-2.6,0-3.4-2-3.4-2h0c0,0,0,0.4,0,0.9v5h-1.4V239z M148.6,246.7
		c1.8,0,3.4-1.6,3.4-4.2c0-2.6-1.3-4.2-3.3-4.2c-1.7,0-3.4,1.2-3.4,4.2C145.3,244.6,146.4,246.7,148.6,246.7z"/>
	<path class="st6" d="M162.3,237c2.9,0,4.4,2.2,4.4,4.8c0,0.2,0,0.7,0,0.7h-8c0,2.6,1.9,4.1,4,4.1c1.9,0,3.1-1.3,3.1-1.3l0.7,1.1
		c0,0-1.5,1.5-3.9,1.5c-3.1,0-5.5-2.2-5.5-5.5C157.2,239.1,159.5,237,162.3,237z M165.3,241.4c-0.1-2.2-1.4-3.2-2.9-3.2
		c-1.7,0-3.2,1.1-3.6,3.2H165.3z"/>
	<path class="st6" d="M171.6,239c0-0.3-0.2-0.5-0.5-0.5h-0.9v-1.2h1.5c0.9,0,1.3,0.4,1.3,1.2v0.7c0,0.4,0,0.8,0,0.8h0
		c0.5-1.6,1.7-2.8,3.3-2.8c0.3,0,0.6,0.1,0.6,0.1v1.4c0,0-0.2,0-0.5,0c-1.5,0-2.6,1.2-3,2.7c-0.2,0.7-0.3,1.4-0.3,2v4.4h-1.4V239z"
		/>
	<path class="st6" d="M188,246.4h0.9c0.3,0,0.5-0.1,0.5-0.5v-12.8h1.3l7.4,10.4c0.5,0.7,1.2,1.9,1.2,1.9h0c0,0-0.1-1.1-0.1-1.9v-9.1
		c0-0.9,0.4-1.3,1.3-1.3h1.5v1.3h-0.9c-0.3,0-0.5,0.1-0.5,0.5v12.8h-1.3l-7.4-10.4c-0.5-0.7-1.2-1.9-1.2-1.9h0c0,0,0.1,1.1,0.1,1.9
		v9.1c0,0.9-0.4,1.3-1.3,1.3H188V246.4z"/>
	<path class="st6" d="M210.8,237c2.9,0,4.4,2.2,4.4,4.8c0,0.2,0,0.7,0,0.7h-8c0,2.6,1.9,4.1,4,4.1c1.9,0,3.1-1.3,3.1-1.3l0.7,1.1
		c0,0-1.5,1.5-3.9,1.5c-3.1,0-5.5-2.2-5.5-5.5C205.7,239.1,208,237,210.8,237z M213.7,241.4c-0.1-2.2-1.4-3.2-2.9-3.2
		c-1.7,0-3.2,1.1-3.6,3.2H213.7z"/>
	<path class="st6" d="M219.7,245.2c0,0,1.2,1.6,3.2,1.6c1.2,0,2.2-0.6,2.2-1.7c0-2.3-5.8-1.9-5.8-5.2c0-1.9,1.6-2.8,3.7-2.8
		c1.1,0,3.2,0.4,3.2,1.9v0.9h-1.3v-0.5c0-0.8-1.1-1.1-1.8-1.1c-1.5,0-2.3,0.5-2.3,1.5c0,2.3,5.8,1.8,5.8,5.3c0,1.7-1.6,2.9-3.6,2.9
		c-2.7,0-4-1.8-4-1.8L219.7,245.2z"/>
	<path class="st6" d="M231.4,238.5H230v-1.2h1.4v-2.9h1.4v2.9h2.6v1.2h-2.6v5.3c0,2.4,1.6,2.8,2.3,2.8c0.3,0,0.5,0,0.5,0v1.3
		c0,0-0.2,0-0.6,0c-1.2,0-3.6-0.4-3.6-3.9V238.5z"/>
	<path class="st6" d="M240.1,234.8c0-0.3-0.2-0.5-0.5-0.5h-0.9v-1.2h1.5c0.9,0,1.3,0.4,1.3,1.3V246c0,0.3,0.2,0.5,0.5,0.5h0.9v1.2
		h-1.5c-0.9,0-1.3-0.4-1.3-1.3V234.8z"/>
	<path class="st6" d="M251.5,237c2.9,0,4.4,2.2,4.4,4.8c0,0.2,0,0.7,0,0.7h-8c0,2.6,1.9,4.1,4,4.1c1.9,0,3.1-1.3,3.1-1.3l0.7,1.1
		c0,0-1.5,1.5-3.9,1.5c-3.1,0-5.5-2.2-5.5-5.5C246.3,239.1,248.7,237,251.5,237z M254.4,241.4c-0.1-2.2-1.4-3.2-2.9-3.2
		c-1.7,0-3.2,1.1-3.6,3.2H254.4z M252.2,233.1h1.6l-1.8,2.5h-1.2L252.2,233.1z"/>
	<path class="st6" d="M267.4,234.9c-0.1-0.4-0.4-0.5-0.7-0.5h-0.2v-1.3h0.6c1,0,1.3,0.2,1.7,1.2l3.6,9.8c0.3,0.7,0.6,1.9,0.6,1.9h0
		c0,0,0.3-1.1,0.6-1.9l3.6-9.8c0.4-1,0.7-1.2,1.7-1.2h0.6v1.3h-0.2c-0.4,0-0.6,0.1-0.7,0.5l-4.8,12.8h-1.6L267.4,234.9z"/>
	<path class="st6" d="M286.6,237c2.9,0,4.4,2.2,4.4,4.8c0,0.2,0,0.7,0,0.7h-8c0,2.6,1.9,4.1,4,4.1c1.9,0,3.1-1.3,3.1-1.3l0.7,1.1
		c0,0-1.5,1.5-3.9,1.5c-3.1,0-5.5-2.2-5.5-5.5C281.5,239.1,283.8,237,286.6,237z M289.6,241.4c-0.1-2.2-1.4-3.2-2.9-3.2
		c-1.7,0-3.2,1.1-3.6,3.2H289.6z"/>
	<path class="st6" d="M295.9,239c0-0.3-0.2-0.5-0.5-0.5h-0.9v-1.2h1.5c0.9,0,1.3,0.4,1.3,1.2v0.7c0,0.4,0,0.8,0,0.8h0
		c0.5-1.6,1.7-2.8,3.3-2.8c0.3,0,0.6,0.1,0.6,0.1v1.4c0,0-0.2,0-0.5,0c-1.5,0-2.6,1.2-3,2.7c-0.2,0.7-0.3,1.4-0.3,2v4.4h-1.4V239z"
		/>
	<path class="st6" d="M310.2,241.3h0.6v-0.1c0-2.2-0.8-2.9-2.7-2.9c-0.5,0-2,0.1-2,0.9v0.7h-1.3v-1c0-1.5,2.5-1.8,3.4-1.8
		c3.3,0,4.1,1.8,4.1,4v5c0,0.3,0.2,0.5,0.5,0.5h0.9v1.2h-1.4c-0.9,0-1.2-0.4-1.2-1.2c0-0.5,0-0.8,0-0.8h0c0,0-0.9,2.3-3.5,2.3
		c-1.7,0-3.5-1-3.5-3.1C303.8,241.4,308.4,241.3,310.2,241.3z M307.6,246.8c2,0,3.2-2.1,3.2-3.9v-0.5h-0.6c-1.6,0-4.9,0-4.9,2.4
		C305.3,245.8,306,246.8,307.6,246.8z"/>
</g>
<g>
	<path class="st6" d="M609.3,265.3c0-2.1-1.5-3.7-4-3.7c-2,0-3.5,1-3.5,2.1v0.9h-1.8v-1.5c0-2.5,3.4-3.4,5.4-3.4c3.7,0,6,2.5,6,5.5
		c0,6.9-10.4,6.7-10.4,12.2c0,0.4,0.2,0.6,0.6,0.6h8.2c0.4,0,0.6-0.2,0.6-0.6v-1.3h1.8v2c0,1.2-0.5,1.7-1.7,1.7h-9.9
		c-1.3,0-1.8-0.6-1.8-1.9C598.9,270.5,609.3,271.1,609.3,265.3z"/>
	<path class="st6" d="M616.2,275.9c0,0,1.5,2.3,4.6,2.3c2.8,0,4.9-2,4.9-4.6c0-2.7-2.3-4.6-5.1-4.6c-2.2,0-3.8,1.1-3.8,1.1l-1-0.4
		l0.8-7.9c0.1-1.2,0.5-1.7,1.7-1.7h6.5c1.2,0,1.7,0.5,1.7,1.7v2h-1.8v-1.3c0-0.4-0.2-0.6-0.6-0.6h-5c-0.4,0-0.6,0.2-0.6,0.6
		l-0.5,4.4c-0.1,0.7-0.2,1.1-0.2,1.1h0.1c0,0,1.2-0.7,3-0.7c4,0,6.9,2.9,6.9,6.4c0,3.5-2.9,6.4-6.9,6.4c-3.9,0-5.8-2.8-5.8-2.8
		L616.2,275.9z"/>
	<path class="st6" d="M631.1,263.6c0-2.1,1.7-3.9,3.9-3.9s3.9,1.8,3.9,3.9c0,2.2-1.8,3.9-3.9,3.9S631.1,265.8,631.1,263.6z
		 M646.3,260.1h2l-15,19.7h-2L646.3,260.1z M637.4,263.6c0-1.3-1-2.3-2.3-2.3s-2.3,1.1-2.3,2.3c0,1.3,1,2.3,2.3,2.3
		S637.4,264.9,637.4,263.6z M644.5,272.3c2.2,0,3.9,1.8,3.9,3.9c0,2.1-1.8,3.9-3.9,3.9c-2.2,0-3.9-1.7-3.9-3.9
		C640.6,274.1,642.3,272.3,644.5,272.3z M644.5,278.5c1.3,0,2.3-1,2.3-2.3c0-1.3-1-2.3-2.3-2.3c-1.3,0-2.2,1.1-2.2,2.3
		C642.3,277.5,643.2,278.5,644.5,278.5z"/>
	<path class="st6" d="M660.8,261.8H659v-1.7h8.3c3.5,0,6.1,2.3,6.1,5.9c0,3.7-2.6,6-6.1,6h-4.5v7.7h-2V261.8z M667,270.3
		c2.6,0,4.3-1.6,4.3-4.3c0-2.7-1.7-4.2-4.3-4.2h-4.3v8.5H667z"/>
	<path class="st6" d="M677,261.8h-1.8v-1.7h11.2c1.2,0,1.7,0.5,1.7,1.7v2h-1.8v-1.3c0-0.4-0.2-0.6-0.6-0.6H679v7.2h7.4v1.7H679v6.7
		c0,0.4,0.2,0.6,0.6,0.6h6.9c0.4,0,0.6-0.2,0.6-0.6v-1.3h1.8v2c0,1.2-0.5,1.7-1.7,1.7h-8.5c-1.2,0-1.7-0.5-1.7-1.7V261.8z"/>
	<path class="st6" d="M697.1,261.8h-4.9c-0.4,0-0.6,0.2-0.6,0.6v1.3h-1.8v-2.1c0-1.2,0.4-1.6,1.6-1.6h13.3c1.2,0,1.6,0.4,1.6,1.6
		v2.1h-1.8v-1.3c0-0.4-0.2-0.6-0.6-0.6h-4.8v17.9h-2V261.8z"/>
	<path class="st6" d="M612.3,294.3c0-0.3-0.1-0.4-0.4-0.4h-0.8v-1.1h1.3c0.8,0,1.1,0.3,1.1,1.1v0.6c0,0.4,0,0.7,0,0.7h0
		c0.4-1.4,1.5-2.5,3-2.5c0.3,0,0.5,0.1,0.5,0.1v1.2c0,0-0.2,0-0.5,0c-1.3,0-2.3,1-2.7,2.4c-0.2,0.6-0.3,1.2-0.3,1.8v4h-1.3V294.3z"
		/>
	<path class="st6" d="M621,294.3c0-0.3-0.1-0.4-0.4-0.4h-0.8v-1.1h1.3c0.8,0,1.1,0.3,1.1,1.1v6.7c0,0.3,0.1,0.4,0.4,0.4h0.8v1.1
		h-1.3c-0.8,0-1.1-0.3-1.1-1.1V294.3z M621,289h1.2v1.6H621V289z"/>
	<path class="st6" d="M631.5,292.5c1.1,0,3.3,0.4,3.3,2v0.8h-1.2v-0.5c0-0.8-1.4-1.2-2.1-1.2c-2,0-3.6,1.5-3.6,3.8
		c0,2.3,1.7,3.7,3.7,3.7c1.9,0,3-1.3,3-1.3l0.6,1c0,0-1.3,1.5-3.7,1.5c-2.8,0-4.9-2-4.9-4.9C626.6,294.6,628.7,292.5,631.5,292.5z"
		/>
	<path class="st6" d="M639.3,294.3c0-0.3-0.1-0.4-0.4-0.4h-0.8v-1.1h1.3c0.8,0,1.1,0.3,1.1,1.1v6.7c0,0.3,0.1,0.4,0.4,0.4h0.8v1.1
		h-1.3c-0.8,0-1.1-0.3-1.1-1.1V294.3z M639.2,289h1.2v1.6h-1.2V289z"/>
	<path class="st6" d="M649.8,292.5c1.1,0,3.3,0.4,3.3,2v0.8h-1.2v-0.5c0-0.8-1.4-1.2-2.1-1.2c-2,0-3.6,1.5-3.6,3.8
		c0,2.3,1.7,3.7,3.7,3.7c1.9,0,3-1.3,3-1.3l0.6,1c0,0-1.3,1.5-3.7,1.5c-2.8,0-4.9-2-4.9-4.9C644.8,294.6,647,292.5,649.8,292.5z"/>
	<path class="st6" d="M657.4,290.5c0-0.3-0.1-0.4-0.4-0.4h-0.8V289h1.3c0.8,0,1.1,0.3,1.1,1.1v10.5c0,0.3,0.1,0.4,0.4,0.4h0.8v1.1
		h-1.3c-0.8,0-1.1-0.3-1.1-1.1V290.5z"/>
	<path class="st6" d="M668.7,296.3h0.5v-0.1c0-2-0.7-2.6-2.4-2.6c-0.5,0-1.8,0.1-1.8,0.8v0.6h-1.2v-0.9c0-1.3,2.2-1.6,3.1-1.6
		c3,0,3.7,1.6,3.7,3.6v4.5c0,0.3,0.1,0.4,0.4,0.4h0.8v1.1h-1.3c-0.8,0-1.1-0.4-1.1-1.1c0-0.4,0-0.7,0-0.7h0c0,0-0.8,2-3.1,2
		c-1.6,0-3.2-0.9-3.2-2.8C662.9,296.5,667.1,296.3,668.7,296.3z M666.3,301.3c1.8,0,2.9-1.9,2.9-3.5v-0.4h-0.5c-1.5,0-4.4,0-4.4,2.1
		C664.2,300.4,664.9,301.3,666.3,301.3z"/>
	<path class="st6" d="M675.7,293.8h-1.2v-1.1h1.3v-2.6h1.2v2.6h2.4v1.1h-2.4v4.8c0,2.2,1.4,2.5,2.1,2.5c0.3,0,0.4,0,0.4,0v1.1
		c0,0-0.2,0-0.5,0c-1.1,0-3.3-0.4-3.3-3.5V293.8z"/>
	<path class="st6" d="M687.6,292.5c2.7,0,5,2.1,5,4.9c0,2.8-2.2,5-4.9,5c-2.7,0-5-2.1-5-5C682.6,294.6,684.8,292.5,687.6,292.5z
		 M687.6,301.2c2,0,3.6-1.6,3.6-3.8c0-2.1-1.6-3.7-3.6-3.7c-2,0-3.7,1.6-3.7,3.7C683.9,299.6,685.6,301.2,687.6,301.2z"/>
	<path class="st6" d="M630.3,322.2c0,0,1,1.4,2.9,1.4c1,0,2-0.5,2-1.5c0-2.1-5.3-1.7-5.3-4.7c0-1.7,1.5-2.5,3.3-2.5
		c1,0,2.9,0.4,2.9,1.7v0.8h-1.2V317c0-0.7-1-1-1.6-1c-1.3,0-2.1,0.4-2.1,1.4c0,2.1,5.3,1.6,5.3,4.7c0,1.6-1.4,2.6-3.3,2.6
		c-2.4,0-3.6-1.6-3.6-1.6L630.3,322.2z"/>
	<path class="st6" d="M640.7,316.6c0-0.3-0.1-0.4-0.4-0.4h-0.8v-1.1h1.3c0.8,0,1.1,0.3,1.1,1.1v4.5c0,1.5,0.2,2.8,2.1,2.8
		c2.1,0,3.5-1.9,3.5-3.9v-4.5h1.3v7.9c0,0.3,0.1,0.4,0.4,0.4h0.8v1.1h-1.3c-0.8,0-1.1-0.3-1.1-1V323c0-0.4,0-0.7,0-0.7h0
		c-0.4,0.9-1.6,2.4-3.7,2.4c-2.2,0-3.2-1.2-3.2-3.6V316.6z"/>
	<path class="st6" d="M653.8,312.9c0-0.3-0.1-0.4-0.4-0.4h-0.8v-1.1h1.3c0.8,0,1.1,0.3,1.1,1.1V323c0,0.3,0.1,0.4,0.4,0.4h0.8v1.1
		h-1.3c-0.8,0-1.1-0.3-1.1-1.1V312.9z"/>
	<path class="st6" d="M660.2,312.9c0-0.3-0.1-0.4-0.4-0.4H659v-1.1h1.3c0.8,0,1.1,0.3,1.1,1.1V323c0,0.3,0.1,0.4,0.4,0.4h0.8v1.1
		h-1.3c-0.8,0-1.1-0.3-1.1-1.1V312.9z"/>
	<path class="st6" d="M671.6,318.7h0.5v-0.1c0-2-0.7-2.6-2.4-2.6c-0.5,0-1.8,0.1-1.8,0.8v0.6h-1.2v-0.9c0-1.3,2.2-1.6,3.1-1.6
		c3,0,3.7,1.6,3.7,3.6v4.5c0,0.3,0.1,0.4,0.4,0.4h0.8v1.1h-1.3c-0.8,0-1.1-0.4-1.1-1.1c0-0.4,0-0.7,0-0.7h0c0,0-0.8,2-3.1,2
		c-1.6,0-3.2-0.9-3.2-2.8C665.8,318.8,669.9,318.7,671.6,318.7z M669.2,323.7c1.8,0,2.9-1.9,2.9-3.5v-0.4h-0.5c-1.5,0-4.4,0-4.4,2.1
		C667.1,322.8,667.8,323.7,669.2,323.7z"/>
	<path class="st6" d="M612.3,339c0-0.3-0.1-0.4-0.4-0.4h-0.8v-1.1h1.3c0.8,0,1.1,0.3,1.1,1v0.4c0,0.4,0,0.7,0,0.7h0
		c0.3-0.9,1.5-2.4,3.7-2.4c2.3,0,3.2,1.3,3.2,3.6v4.5c0,0.3,0.1,0.4,0.4,0.4h0.8v1.1h-1.3c-0.8,0-1.1-0.3-1.1-1.1v-4.5
		c0-1.5-0.2-2.8-2-2.8c-1.6,0-3,1.1-3.4,2.6c-0.1,0.4-0.1,0.8-0.1,1.3v4.5h-1.3V339z"/>
	<path class="st6" d="M630.4,341.1h0.5V341c0-2-0.7-2.6-2.4-2.6c-0.5,0-1.8,0.1-1.8,0.8v0.6h-1.2v-0.9c0-1.3,2.2-1.6,3.1-1.6
		c3,0,3.7,1.6,3.7,3.6v4.5c0,0.3,0.1,0.4,0.4,0.4h0.8v1.1h-1.3c-0.8,0-1.1-0.4-1.1-1.1c0-0.4,0-0.7,0-0.7h0c0,0-0.8,2-3.1,2
		c-1.6,0-3.2-0.9-3.2-2.8C624.6,341.2,628.8,341.1,630.4,341.1z M628,346c1.8,0,2.9-1.9,2.9-3.5v-0.4h-0.5c-1.5,0-4.4,0-4.4,2.1
		C625.9,345.1,626.6,346,628,346z"/>
	<path class="st6" d="M637.4,338.6h-1.2v-1.1h1.3v-2.6h1.2v2.6h2.4v1.1h-2.4v4.8c0,2.2,1.4,2.5,2.1,2.5c0.3,0,0.4,0,0.4,0v1.1
		c0,0-0.2,0-0.5,0c-1.1,0-3.3-0.4-3.3-3.5V338.6z"/>
	<path class="st6" d="M645.3,339c0-0.3-0.1-0.4-0.4-0.4h-0.8v-1.1h1.3c0.8,0,1.1,0.3,1.1,1.1v4.5c0,1.5,0.2,2.8,2.1,2.8
		c2.1,0,3.5-1.9,3.5-3.9v-4.5h1.3v7.9c0,0.3,0.1,0.4,0.4,0.4h0.8v1.1h-1.3c-0.8,0-1.1-0.3-1.1-1v-0.4c0-0.4,0-0.7,0-0.7h0
		c-0.4,0.9-1.6,2.4-3.7,2.4c-2.2,0-3.2-1.2-3.2-3.6V339z"/>
	<path class="st6" d="M658.5,339c0-0.3-0.1-0.4-0.4-0.4h-0.8v-1.1h1.3c0.8,0,1.1,0.3,1.1,1.1v0.6c0,0.4,0,0.7,0,0.7h0
		c0.4-1.4,1.5-2.5,3-2.5c0.3,0,0.5,0.1,0.5,0.1v1.2c0,0-0.2,0-0.5,0c-1.3,0-2.3,1-2.7,2.4c-0.2,0.6-0.3,1.2-0.3,1.8v4h-1.3V339z"/>
	<path class="st6" d="M671.3,341.1h0.5V341c0-2-0.7-2.6-2.4-2.6c-0.5,0-1.8,0.1-1.8,0.8v0.6h-1.2v-0.9c0-1.3,2.2-1.6,3.1-1.6
		c3,0,3.7,1.6,3.7,3.6v4.5c0,0.3,0.1,0.4,0.4,0.4h0.8v1.1H673c-0.8,0-1.1-0.4-1.1-1.1c0-0.4,0-0.7,0-0.7h0c0,0-0.8,2-3.1,2
		c-1.6,0-3.2-0.9-3.2-2.8C665.6,341.2,669.7,341.1,671.3,341.1z M669,346c1.8,0,2.9-1.9,2.9-3.5v-0.4h-0.5c-1.5,0-4.4,0-4.4,2.1
		C666.9,345.1,667.6,346,669,346z"/>
	<path class="st6" d="M678.2,335.3c0-0.3-0.1-0.4-0.4-0.4H677v-1.1h1.3c0.8,0,1.1,0.3,1.1,1.1v10.5c0,0.3,0.1,0.4,0.4,0.4h0.8v1.1
		h-1.3c-0.8,0-1.1-0.3-1.1-1.1V335.3z"/>
	<path class="st6" d="M688.4,337.3c2.6,0,3.9,2,3.9,4.3c0,0.2,0,0.6,0,0.6h-7.2c0,2.4,1.7,3.7,3.6,3.7c1.7,0,2.8-1.2,2.8-1.2l0.6,1
		c0,0-1.4,1.3-3.5,1.3c-2.8,0-4.9-2-4.9-4.9C683.8,339.1,685.9,337.3,688.4,337.3z M691,341.2c-0.1-1.9-1.3-2.9-2.6-2.9
		c-1.5,0-2.9,1-3.2,2.9H691z"/>
</g>
<g>
	<path class="st6" d="M653.6,103.5c0-2.1-1.5-3.7-4-3.7c-2,0-3.5,1-3.5,2.1v0.9h-1.8v-1.5c0-2.5,3.4-3.4,5.4-3.4c3.7,0,6,2.5,6,5.5
		c0,6.9-10.4,6.7-10.4,12.2c0,0.4,0.2,0.6,0.6,0.6h8.2c0.4,0,0.6-0.2,0.6-0.6v-1.3h1.8v2c0,1.2-0.5,1.7-1.7,1.7h-9.9
		c-1.3,0-1.8-0.6-1.8-1.9C643.2,108.7,653.6,109.3,653.6,103.5z"/>
	<path class="st6" d="M659.3,108.1c0-5.7,1.7-10.2,6.8-10.2c5.1,0,6.8,4.5,6.8,10.2c0,5.7-1.7,10.2-6.8,10.2
		C660.9,118.3,659.3,113.8,659.3,108.1z M670.8,108.1c0-4.7-1.1-8.3-4.8-8.3c-3.7,0-4.8,3.7-4.8,8.3c0,4.7,1.1,8.4,4.8,8.4
		C669.8,116.5,670.8,112.8,670.8,108.1z"/>
	<path class="st6" d="M676.2,101.8c0-2.1,1.7-3.9,3.9-3.9c2.2,0,3.9,1.8,3.9,3.9c0,2.2-1.8,3.9-3.9,3.9
		C677.9,105.7,676.2,104,676.2,101.8z M691.4,98.3h2l-15,19.7h-2L691.4,98.3z M682.4,101.8c0-1.3-1-2.3-2.3-2.3
		c-1.3,0-2.3,1.1-2.3,2.3c0,1.3,1,2.3,2.3,2.3C681.4,104.2,682.4,103.1,682.4,101.8z M689.6,110.5c2.2,0,3.9,1.8,3.9,3.9
		c0,2.1-1.8,3.9-3.9,3.9c-2.2,0-3.9-1.7-3.9-3.9C685.7,112.3,687.4,110.5,689.6,110.5z M689.6,116.7c1.3,0,2.3-1,2.3-2.3
		c0-1.3-1-2.3-2.3-2.3c-1.3,0-2.2,1.1-2.2,2.3C687.3,115.7,688.3,116.7,689.6,116.7z"/>
	<path class="st6" d="M705.9,100H704v-1.7h8.3c3.5,0,6.1,2.3,6.1,5.9c0,3.7-2.6,6-6.1,6h-4.5v7.7h-2V100z M712.1,108.5
		c2.6,0,4.3-1.6,4.3-4.3c0-2.7-1.7-4.2-4.3-4.2h-4.3v8.5H712.1z"/>
	<path class="st6" d="M722.1,100h-1.8v-1.7h11.2c1.2,0,1.7,0.5,1.7,1.7v2h-1.8v-1.3c0-0.4-0.2-0.6-0.6-0.6H724v7.2h7.4v1.7H724v6.7
		c0,0.4,0.2,0.6,0.6,0.6h6.9c0.4,0,0.6-0.2,0.6-0.6v-1.3h1.8v2c0,1.2-0.5,1.7-1.7,1.7h-8.5c-1.2,0-1.7-0.5-1.7-1.7V100z"/>
	<path class="st6" d="M742.2,100h-4.9c-0.4,0-0.6,0.2-0.6,0.6v1.3h-1.8v-2.1c0-1.2,0.4-1.6,1.6-1.6h13.3c1.2,0,1.6,0.4,1.6,1.6v2.1
		h-1.8v-1.3c0-0.4-0.2-0.6-0.6-0.6h-4.8V118h-2V100z"/>
	<path class="st6" d="M657,132.5c0-0.3-0.1-0.4-0.4-0.4h-0.8V131h1.3c0.8,0,1.1,0.3,1.1,1.1v0.6c0,0.4,0,0.7,0,0.7h0
		c0.4-1.4,1.5-2.5,3-2.5c0.3,0,0.5,0.1,0.5,0.1v1.2c0,0-0.2,0-0.5,0c-1.3,0-2.3,1-2.7,2.4c-0.2,0.6-0.3,1.2-0.3,1.8v4H657V132.5z"/>
	<path class="st6" d="M665.7,132.5c0-0.3-0.1-0.4-0.4-0.4h-0.8V131h1.3c0.8,0,1.1,0.3,1.1,1.1v6.7c0,0.3,0.1,0.4,0.4,0.4h0.8v1.1
		h-1.3c-0.8,0-1.1-0.3-1.1-1.1V132.5z M665.6,127.2h1.2v1.6h-1.2V127.2z"/>
	<path class="st6" d="M676.2,130.7c1.1,0,3.3,0.4,3.3,2v0.8h-1.2V133c0-0.8-1.4-1.2-2.1-1.2c-2,0-3.6,1.5-3.6,3.8
		c0,2.3,1.7,3.7,3.7,3.7c1.9,0,3-1.3,3-1.3l0.6,1c0,0-1.3,1.5-3.7,1.5c-2.8,0-4.9-2-4.9-4.9C671.2,132.8,673.4,130.7,676.2,130.7z"
		/>
	<path class="st6" d="M683.9,132.5c0-0.3-0.1-0.4-0.4-0.4h-0.8V131h1.3c0.8,0,1.1,0.3,1.1,1.1v6.7c0,0.3,0.1,0.4,0.4,0.4h0.8v1.1
		h-1.3c-0.8,0-1.1-0.3-1.1-1.1V132.5z M683.9,127.2h1.2v1.6h-1.2V127.2z"/>
	<path class="st6" d="M694.5,130.7c1.1,0,3.3,0.4,3.3,2v0.8h-1.2V133c0-0.8-1.4-1.2-2.1-1.2c-2,0-3.6,1.5-3.6,3.8
		c0,2.3,1.7,3.7,3.7,3.7c1.9,0,3-1.3,3-1.3l0.6,1c0,0-1.3,1.5-3.7,1.5c-2.8,0-4.9-2-4.9-4.9C689.5,132.8,691.7,130.7,694.5,130.7z"
		/>
	<path class="st6" d="M702,128.7c0-0.3-0.1-0.4-0.4-0.4h-0.8v-1.1h1.3c0.8,0,1.1,0.3,1.1,1.1v10.5c0,0.3,0.1,0.4,0.4,0.4h0.8v1.1
		h-1.3c-0.8,0-1.1-0.3-1.1-1.1V128.7z"/>
	<path class="st6" d="M713.4,134.6h0.5v-0.1c0-2-0.7-2.6-2.4-2.6c-0.5,0-1.8,0.1-1.8,0.8v0.6h-1.2v-0.9c0-1.3,2.2-1.6,3.1-1.6
		c3,0,3.7,1.6,3.7,3.6v4.5c0,0.3,0.1,0.4,0.4,0.4h0.8v1.1h-1.3c-0.8,0-1.1-0.4-1.1-1.1c0-0.4,0-0.7,0-0.7h0c0,0-0.8,2-3.1,2
		c-1.6,0-3.2-0.9-3.2-2.8C707.6,134.7,711.7,134.6,713.4,134.6z M711,139.5c1.8,0,2.9-1.9,2.9-3.5v-0.4h-0.5c-1.5,0-4.4,0-4.4,2.1
		C708.9,138.6,709.6,139.5,711,139.5z"/>
	<path class="st6" d="M720.3,132h-1.2V131h1.3v-2.6h1.2v2.6h2.4v1.1h-2.4v4.8c0,2.2,1.4,2.5,2.1,2.5c0.3,0,0.4,0,0.4,0v1.1
		c0,0-0.2,0-0.5,0c-1.1,0-3.3-0.4-3.3-3.5V132z"/>
	<path class="st6" d="M732.2,130.7c2.7,0,5,2.1,5,4.9c0,2.8-2.2,5-4.9,5c-2.7,0-5-2.1-5-5C727.3,132.8,729.5,130.7,732.2,130.7z
		 M732.2,139.4c2,0,3.6-1.6,3.6-3.8c0-2.1-1.6-3.7-3.6-3.7c-2,0-3.7,1.6-3.7,3.7C728.6,137.8,730.2,139.4,732.2,139.4z"/>
	<path class="st6" d="M674.9,160.4c0,0,1,1.4,2.9,1.4c1,0,2-0.5,2-1.5c0-2.1-5.3-1.7-5.3-4.7c0-1.7,1.5-2.5,3.3-2.5
		c1,0,2.9,0.4,2.9,1.7v0.8h-1.2v-0.4c0-0.7-1-1-1.6-1c-1.3,0-2.1,0.4-2.1,1.4c0,2.1,5.3,1.6,5.3,4.7c0,1.6-1.4,2.6-3.3,2.6
		c-2.4,0-3.6-1.6-3.6-1.6L674.9,160.4z"/>
	<path class="st6" d="M685.3,154.9c0-0.3-0.1-0.4-0.4-0.4h-0.8v-1.1h1.3c0.8,0,1.1,0.3,1.1,1.1v4.5c0,1.5,0.2,2.8,2.1,2.8
		c2.1,0,3.5-1.9,3.5-3.9v-4.5h1.3v7.9c0,0.3,0.1,0.4,0.4,0.4h0.8v1.1h-1.3c-0.8,0-1.1-0.3-1.1-1v-0.4c0-0.4,0-0.7,0-0.7h0
		c-0.4,0.9-1.6,2.4-3.7,2.4c-2.2,0-3.2-1.2-3.2-3.6V154.9z"/>
	<path class="st6" d="M698.5,151.1c0-0.3-0.1-0.4-0.4-0.4h-0.8v-1.1h1.3c0.8,0,1.1,0.3,1.1,1.1v10.5c0,0.3,0.1,0.4,0.4,0.4h0.8v1.1
		h-1.3c-0.8,0-1.1-0.3-1.1-1.1V151.1z"/>
	<path class="st6" d="M704.9,151.1c0-0.3-0.1-0.4-0.4-0.4h-0.8v-1.1h1.3c0.8,0,1.1,0.3,1.1,1.1v10.5c0,0.3,0.1,0.4,0.4,0.4h0.8v1.1
		H706c-0.8,0-1.1-0.3-1.1-1.1V151.1z"/>
	<path class="st6" d="M716.2,157h0.5v-0.1c0-2-0.7-2.6-2.4-2.6c-0.5,0-1.8,0.1-1.8,0.8v0.6h-1.2v-0.9c0-1.3,2.2-1.6,3.1-1.6
		c3,0,3.7,1.6,3.7,3.6v4.5c0,0.3,0.1,0.4,0.4,0.4h0.8v1.1h-1.3c-0.8,0-1.1-0.4-1.1-1.1c0-0.4,0-0.7,0-0.7h0c0,0-0.8,2-3.1,2
		c-1.6,0-3.2-0.9-3.2-2.8C710.5,157.1,714.6,157,716.2,157z M713.9,161.9c1.8,0,2.9-1.9,2.9-3.5V158h-0.5c-1.5,0-4.4,0-4.4,2.1
		C711.8,161,712.5,161.9,713.9,161.9z"/>
	<path class="st6" d="M654.2,176.8H653v-1.1h1.2v-0.3c0-3.1,2.2-3.5,3.2-3.5c0.4,0,0.6,0,0.6,0v1.1c0,0-0.2,0-0.4,0
		c-0.7,0-2.1,0.3-2.1,2.4v0.3h2.4v1.1h-2.4v8.3h-1.3V176.8z"/>
	<path class="st6" d="M661.7,177.2c0-0.3-0.1-0.4-0.4-0.4h-0.8v-1.1h1.3c0.8,0,1.1,0.3,1.1,1.1v0.6c0,0.4,0,0.7,0,0.7h0
		c0.4-1.4,1.5-2.5,3-2.5c0.3,0,0.5,0.1,0.5,0.1v1.2c0,0-0.2,0-0.5,0c-1.3,0-2.3,1-2.7,2.4c-0.2,0.6-0.3,1.2-0.3,1.8v4h-1.3V177.2z"
		/>
	<path class="st6" d="M670.4,177.2c0-0.3-0.1-0.4-0.4-0.4h-0.8v-1.1h1.3c0.8,0,1.1,0.3,1.1,1.1v6.7c0,0.3,0.1,0.4,0.4,0.4h0.8v1.1
		h-1.3c-0.8,0-1.1-0.3-1.1-1.1V177.2z M670.4,172h1.2v1.6h-1.2V172z"/>
	<path class="st6" d="M676,184.3l5.3-6.6c0.4-0.4,0.7-0.9,0.7-0.9v0c0,0-0.3,0-0.9,0h-3.4c-0.3,0-0.4,0.1-0.4,0.4v0.7h-1.2v-1.1
		c0-0.8,0.3-1.1,1.1-1.1h6.5v0.8l-5.3,6.6c-0.4,0.4-0.8,0.9-0.8,0.9v0c0,0,0.3,0,1,0h3.9c0.3,0,0.4-0.1,0.4-0.4v-0.7h1.2v1.1
		c0,0.8-0.3,1.1-1.1,1.1h-7V184.3z"/>
	<path class="st6" d="M687.2,184.3l5.3-6.6c0.4-0.4,0.7-0.9,0.7-0.9v0c0,0-0.3,0-0.9,0h-3.4c-0.3,0-0.4,0.1-0.4,0.4v0.7h-1.2v-1.1
		c0-0.8,0.3-1.1,1.1-1.1h6.5v0.8l-5.3,6.6c-0.4,0.4-0.8,0.9-0.8,0.9v0c0,0,0.3,0,1,0h3.9c0.3,0,0.4-0.1,0.4-0.4v-0.7h1.2v1.1
		c0,0.8-0.3,1.1-1.1,1.1h-7V184.3z"/>
	<path class="st6" d="M704.1,179.3h0.5v-0.1c0-2-0.7-2.6-2.4-2.6c-0.5,0-1.8,0.1-1.8,0.8v0.6h-1.2v-0.9c0-1.3,2.2-1.6,3.1-1.6
		c3,0,3.7,1.6,3.7,3.6v4.5c0,0.3,0.1,0.4,0.4,0.4h0.8v1.1h-1.3c-0.8,0-1.1-0.4-1.1-1.1c0-0.4,0-0.7,0-0.7h0c0,0-0.8,2-3.1,2
		c-1.6,0-3.2-0.9-3.2-2.8C698.4,179.4,702.5,179.3,704.1,179.3z M701.8,184.3c1.8,0,2.9-1.9,2.9-3.5v-0.4h-0.5c-1.5,0-4.4,0-4.4,2.1
		C699.7,183.4,700.4,184.3,701.8,184.3z"/>
	<path class="st6" d="M711,177.2c0-0.3-0.1-0.4-0.4-0.4h-0.8v-1.1h1.3c0.8,0,1.1,0.3,1.1,1v0.4c0,0.4,0,0.7,0,0.7h0
		c0.3-0.9,1.5-2.4,3.7-2.4c2.3,0,3.2,1.3,3.2,3.6v4.5c0,0.3,0.1,0.4,0.4,0.4h0.8v1.1H719c-0.8,0-1.1-0.3-1.1-1.1v-4.5
		c0-1.5-0.2-2.8-2-2.8c-1.6,0-3,1.1-3.4,2.6c-0.1,0.4-0.1,0.8-0.1,1.3v4.5H711V177.2z"/>
	<path class="st6" d="M724.3,176.8h-1.2v-1.1h1.3v-2.6h1.2v2.6h2.4v1.1h-2.4v4.8c0,2.2,1.4,2.5,2.1,2.5c0.3,0,0.4,0,0.4,0v1.1
		c0,0-0.2,0-0.5,0c-1.1,0-3.3-0.4-3.3-3.5V176.8z"/>
	<path class="st6" d="M735.9,175.5c2.6,0,3.9,2,3.9,4.3c0,0.2,0,0.6,0,0.6h-7.2c0,2.4,1.7,3.7,3.6,3.7c1.7,0,2.8-1.2,2.8-1.2l0.6,1
		c0,0-1.4,1.3-3.5,1.3c-2.8,0-4.9-2-4.9-4.9C731.2,177.4,733.3,175.5,735.9,175.5z M738.5,179.5c-0.1-1.9-1.3-2.9-2.6-2.9
		c-1.5,0-2.9,1-3.2,2.9H738.5z"/>
</g>
</svg>
