<?xml version="1.0" encoding="utf-8"?>
<!-- Generator: Adobe Illustrator 23.0.0, SVG Export Plug-In . SVG Version: 6.00 Build 0)  -->
<svg version="1.1" id="Livello_1" xmlns="http://www.w3.org/2000/svg" xmlns:xlink="http://www.w3.org/1999/xlink" x="0px" y="0px"
	 viewBox="0 0 825.8 509.7" style="enable-background:new 0 0 825.8 509.7;" xml:space="preserve">
<style type="text/css">
	
		.st0{fill-rule:evenodd;clip-rule:evenodd;fill:none;stroke:#4E5594;stroke-width:3;stroke-linecap:round;stroke-miterlimit:10;stroke-dasharray:0,8;}
	.st1{fill-rule:evenodd;clip-rule:evenodd;fill:#D8B200;}
	.st2{fill-rule:evenodd;clip-rule:evenodd;fill:#4E5594;}
	.st3{fill:#4E5594;}
	.st4{fill-rule:evenodd;clip-rule:evenodd;fill:#00295A;}
	.st5{fill:#D8B200;}
	.st6{fill:#FFFFFF;}
</style>
<path class="st0" d="M724.7,125c52.3,0,94.8,42.4,94.8,94.8c0,52.3-42.4,94.8-94.8,94.8"/>
<path class="st1" d="M226.3,37.6c72.5,0,131.3,58.8,131.3,131.3c0,72.5-58.8,131.3-131.3,131.3S95,241.4,95,168.9
	C95,96.4,153.8,37.6,226.3,37.6z"/>
<path class="st2" d="M83.3,37.7c38.4,0,69.4,31.1,69.4,69.4s-31.1,69.4-69.4,69.4s-69.4-31.1-69.4-69.4S45,37.7,83.3,37.7z"/>
<g>
	<path class="st3" d="M431.5,479.4c-0.9,0-1.6-0.7-1.6-1.5l0,0c0-0.9,0.7-1.6,1.6-1.6l0,0c0.9,0,1.6,0.7,1.6,1.6l0,0
		C433.1,478.7,432.4,479.4,431.5,479.4L431.5,479.4C431.5,479.4,431.5,479.4,431.5,479.4z M421.9,479.4c-0.9,0-1.6-0.7-1.5-1.6l0,0
		c0-0.9,0.7-1.6,1.6-1.6l0,0c0.9,0,1.6,0.7,1.6,1.6l0,0C423.5,478.7,422.8,479.4,421.9,479.4L421.9,479.4
		C422,479.4,421.9,479.4,421.9,479.4z M412.3,479.1L412.3,479.1c-0.9,0-1.5-0.8-1.5-1.6l0,0c0-0.9,0.8-1.6,1.6-1.5l0,0
		c0.9,0.1,1.6,0.8,1.5,1.7l0,0c0,0.8-0.7,1.5-1.5,1.5l0,0C412.4,479.1,412.3,479.1,412.3,479.1z M402.7,478.5
		c-0.9-0.1-1.5-0.8-1.4-1.7l0,0c0.1-0.8,0.8-1.5,1.7-1.4l0,0c0.8,0.1,1.5,0.8,1.4,1.7l0,0c-0.1,0.8-0.7,1.4-1.5,1.5l0,0
		C402.8,478.5,402.8,478.5,402.7,478.5z M393.1,477.6L393.1,477.6c-0.9-0.1-1.5-0.9-1.4-1.8l0,0c0.1-0.9,0.9-1.5,1.7-1.4l0,0l0,0
		l0,0c0.8,0.1,1.5,0.9,1.4,1.7l0,0c-0.1,0.8-0.7,1.4-1.5,1.4l0,0C393.3,477.6,393.2,477.6,393.1,477.6z M383.6,476.3
		c-0.9-0.1-1.5-1-1.4-1.8l0,0c0.1-0.9,1-1.5,1.8-1.3l0,0c0.9,0.1,1.5,0.9,1.3,1.8l0,0c-0.1,0.8-0.7,1.3-1.5,1.3l0,0
		C383.8,476.4,383.7,476.3,383.6,476.3z M374.1,474.8L374.1,474.8c-0.9-0.2-1.4-1-1.3-1.8l0,0c0.2-0.9,1-1.4,1.8-1.3l0,0
		c0.9,0.2,1.4,1,1.3,1.8l0,0c-0.1,0.7-0.8,1.3-1.5,1.3l0,0C374.4,474.8,374.2,474.8,374.1,474.8z M364.7,472.8L364.7,472.8
		c-0.8-0.2-1.4-1-1.2-1.9l0,0c0.2-0.8,1-1.4,1.9-1.2l0,0c0.9,0.2,1.4,1,1.2,1.9l0,0c-0.2,0.7-0.8,1.2-1.5,1.2l0,0
		C365,472.9,364.8,472.9,364.7,472.8z M355.3,470.6c-0.9-0.2-1.3-1.1-1.1-1.9l0,0c0.2-0.8,1.1-1.3,1.9-1.1l0,0
		c0.8,0.2,1.3,1.1,1.1,1.9l0,0c-0.2,0.7-0.8,1.2-1.4,1.2l0,0C355.6,470.6,355.5,470.6,355.3,470.6z M346.1,468c-0.8-0.2-1.3-1.1-1-2
		l0,0c0.2-0.8,1.1-1.3,2-1l0,0c0.8,0.2,1.3,1.1,1,2l0,0c-0.2,0.7-0.8,1.1-1.4,1.1l0,0C346.4,468,346.3,468,346.1,468z M336.9,465
		c-0.8-0.3-1.3-1.2-1-2l0,0c0.3-0.8,1.2-1.3,2-1l0,0c0.8,0.3,1.2,1.2,1,2l0,0c-0.2,0.6-0.8,1-1.4,1.1l0,0
		C337.3,465.1,337.1,465.1,336.9,465z M327.9,461.6c-0.8-0.3-1.2-1.2-0.9-2l0,0c0.3-0.8,1.2-1.2,2-0.9l0,0c0,0,0,0,0,0l0,0
		c0.8,0.3,1.2,1.2,0.9,2l0,0c-0.2,0.6-0.8,1-1.4,1l0,0C328.3,461.8,328.1,461.7,327.9,461.6z M319,457.9c-0.8-0.3-1.2-1.3-0.8-2.1
		l0,0c0.4-0.8,1.3-1.2,2.1-0.8l0,0c0.8,0.3,1.2,1.3,0.8,2.1l0,0c-0.2,0.6-0.8,0.9-1.4,0.9l0,0C319.5,458.1,319.3,458,319,457.9z
		 M310.3,453.8c-0.8-0.4-1.1-1.3-0.7-2.1l0,0c0.4-0.8,1.3-1.1,2.1-0.7l0,0c0.8,0.4,1.1,1.3,0.7,2.1l0,0c-0.2,0.5-0.8,0.9-1.3,0.9
		l0,0C310.8,454,310.6,454,310.3,453.8z M301.8,449.4L301.8,449.4c-0.7-0.4-1-1.4-0.6-2.2l0,0c0.4-0.8,1.4-1,2.1-0.6l0,0
		c0.8,0.4,1,1.4,0.6,2.1l0,0c-0.3,0.5-0.8,0.8-1.3,0.8l0,0C302.3,449.6,302.1,449.5,301.8,449.4z M293.5,444.5
		c-0.7-0.5-1-1.4-0.5-2.2l0,0c0.5-0.7,1.4-1,2.2-0.5l0,0c0.7,0.5,1,1.4,0.5,2.2l0,0c-0.3,0.5-0.8,0.7-1.3,0.8l0,0
		C294.1,444.7,293.7,444.6,293.5,444.5z M285.4,439.2c-0.7-0.5-0.9-1.5-0.4-2.2l0,0c0.5-0.7,1.5-0.9,2.2-0.4l0,0
		c0.7,0.5,0.9,1.5,0.4,2.2l0,0c-0.3,0.4-0.7,0.7-1.2,0.7l0,0C286,439.5,285.7,439.4,285.4,439.2z M277.6,433.5
		c-0.7-0.5-0.8-1.5-0.3-2.2l0,0c0.5-0.7,1.5-0.8,2.2-0.3l0,0c0.7,0.5,0.8,1.5,0.3,2.2l0,0c-0.3,0.4-0.7,0.6-1.2,0.6l0,0
		C278.3,433.8,277.9,433.7,277.6,433.5z M270.1,427.4c-0.6-0.6-0.7-1.6-0.2-2.2l0,0c0.6-0.6,1.6-0.7,2.2-0.2l0,0
		c0.6,0.6,0.7,1.6,0.2,2.2l0,0c-0.3,0.3-0.7,0.5-1.1,0.5l0,0C270.9,427.8,270.5,427.7,270.1,427.4z M263,420.9
		c-0.6-0.6-0.6-1.6-0.1-2.2l0,0c0.6-0.6,1.6-0.6,2.2-0.1l0,0l0,0l0,0c0.6,0.6,0.6,1.6,0.1,2.2l0,0c-0.3,0.3-0.7,0.5-1.1,0.5l0,0
		C263.8,421.4,263.3,421.2,263,420.9z M256.3,414c-0.6-0.6-0.5-1.6,0.1-2.2l0,0c0.6-0.6,1.6-0.5,2.2,0.1l0,0
		c0.6,0.6,0.5,1.6-0.1,2.2l0,0c-0.3,0.3-0.6,0.4-1,0.4l0,0C257,414.5,256.6,414.4,256.3,414z M249.9,406.7L249.9,406.7
		c-0.6-0.7-0.5-1.7,0.2-2.2l0,0c0.7-0.6,1.7-0.5,2.2,0.2l0,0c0.6,0.7,0.5,1.7-0.2,2.2l0,0c-0.3,0.2-0.6,0.4-0.9,0.4l0,0
		C250.7,407.3,250.2,407.1,249.9,406.7z M244,399.1c-0.5-0.7-0.4-1.7,0.3-2.2l0,0c0.7-0.5,1.7-0.4,2.2,0.4l0,0
		c0.5,0.7,0.4,1.7-0.3,2.2l0,0c-0.3,0.2-0.6,0.3-0.9,0.3l0,0C244.9,399.8,244.4,399.5,244,399.1z M238.6,391.1
		c-0.5-0.8-0.2-1.7,0.5-2.2l0,0c0.7-0.5,1.7-0.3,2.2,0.5l0,0c0.5,0.7,0.2,1.7-0.5,2.2l0,0c-0.2,0.2-0.5,0.2-0.8,0.2l0,0
		C239.5,391.8,239,391.6,238.6,391.1z M233.8,382.7c-0.4-0.8-0.1-1.7,0.6-2.1l0,0c0.8-0.4,1.7-0.1,2.1,0.6l0,0
		c0.4,0.7,0.1,1.7-0.6,2.1l0,0c-0.2,0.1-0.4,0.2-0.7,0.2l0,0C234.7,383.6,234.1,383.3,233.8,382.7z M229.4,374.1
		c-0.4-0.8,0-1.7,0.8-2.1l0,0c0.8-0.4,1.7,0,2.1,0.8l0,0c0.4,0.8,0,1.7-0.8,2.1l0,0c-0.2,0.1-0.4,0.1-0.6,0.1l0,0
		C230.3,375,229.7,374.7,229.4,374.1z M225.7,365.2c-0.3-0.8,0.1-1.7,0.9-2l0,0c0.8-0.3,1.7,0.1,2,0.9l0,0c0.3,0.8-0.1,1.7-0.9,2
		l0,0c-0.1,0.1-0.3,0.1-0.5,0.1l0,0C226.6,366.2,225.9,365.8,225.7,365.2z M222.5,356c-0.3-0.8,0.2-1.7,1-2l0,0
		c0.8-0.2,1.7,0.2,2,1.1l0,0c0.3,0.8-0.2,1.7-1,2l0,0c-0.1,0-0.2,0.1-0.4,0.1l0,0C223.4,357.2,222.8,356.7,222.5,356z M220,346.7
		c-0.2-0.9,0.3-1.7,1.2-1.9l0,0c0.8-0.2,1.7,0.3,1.9,1.2l0,0l0,0l0,0c0.2,0.8-0.3,1.7-1.2,1.9l0,0c-0.1,0-0.2,0-0.3,0l0,0
		C220.9,347.9,220.2,347.4,220,346.7z M218.1,337.2c-0.1-0.9,0.4-1.7,1.3-1.8l0,0c0.8-0.2,1.7,0.4,1.8,1.3l0,0
		c0.2,0.9-0.4,1.7-1.3,1.8l0,0c0,0-0.1,0-0.2,0l0,0C218.9,338.6,218.2,338,218.1,337.2z M216.7,327.7c-0.1-0.9,0.5-1.7,1.4-1.8l0,0
		c0.9-0.1,1.6,0.5,1.8,1.4l0,0c0.1,0.9-0.5,1.6-1.4,1.7l0,0c0,0-0.1,0-0.1,0l0,0C217.5,329.1,216.8,328.5,216.7,327.7z"/>
	<path class="st3" d="M439.1,477.5c-0.1-0.9,0.6-1.6,1.4-1.7l0,0l0,0l0,0c0.9-0.1,1.6,0.6,1.7,1.4l0,0c0.1,0.9-0.6,1.6-1.5,1.7l0,0
		c0,0,0,0-0.1,0l0,0C439.9,479,439.2,478.4,439.1,477.5z M448.6,476.6c-0.1-0.9,0.5-1.7,1.4-1.8l0,0c0.9-0.1,1.6,0.5,1.8,1.4l0,0
		c0.1,0.8-0.5,1.6-1.4,1.7l0,0c0,0-0.1,0-0.1,0l0,0C449.4,478,448.7,477.4,448.6,476.6z M458.1,475.3c-0.1-0.9,0.4-1.7,1.3-1.8l0,0
		l0,0l0,0c0.9-0.1,1.7,0.4,1.8,1.3l0,0c0.1,0.9-0.4,1.7-1.3,1.8l0,0c0,0-0.1,0-0.2,0l0,0C458.9,476.7,458.2,476.1,458.1,475.3z
		 M467.5,473.7c-0.2-0.9,0.4-1.7,1.2-1.9l0,0l0,0l0,0c0.9-0.2,1.7,0.4,1.8,1.2l0,0c0.2,0.9-0.4,1.7-1.2,1.9l0,0c-0.1,0-0.1,0-0.2,0
		l0,0C468.3,475,467.6,474.4,467.5,473.7z M476.8,471.7c-0.2-0.8,0.3-1.7,1.2-1.9l0,0c0.9-0.2,1.7,0.3,1.9,1.2l0,0
		c0.2,0.9-0.3,1.7-1.2,1.9l0,0c-0.1,0-0.2,0.1-0.3,0.1l0,0C477.6,472.9,476.9,472.4,476.8,471.7z M486,469.3
		c-0.2-0.8,0.2-1.7,1.1-1.9l0,0c0.9-0.2,1.7,0.2,2,1.1l0,0c0.2,0.8-0.3,1.7-1.1,1.9l0,0c-0.1,0.1-0.2,0.1-0.3,0.1l0,0
		C486.9,470.5,486.2,470,486,469.3z M495.2,466.6c-0.3-0.8,0.2-1.7,1-2l0,0c0.8-0.3,1.7,0.2,2,1l0,0c0.3,0.8-0.2,1.7-1,2l0,0
		c-0.1,0-0.3,0.1-0.4,0.1l0,0C496,467.7,495.4,467.3,495.2,466.6z M504.2,463.5c-0.3-0.8,0.1-1.7,0.9-2l0,0c0.8-0.3,1.7,0.1,2,0.9
		l0,0c0.3,0.8-0.1,1.7-0.9,2l0,0c-0.2,0.1-0.3,0.1-0.5,0.1l0,0C505.1,464.6,504.4,464.2,504.2,463.5z M513.1,460.1
		c-0.3-0.8,0-1.7,0.8-2.1l0,0c0.8-0.4,1.7,0,2.1,0.8l0,0c0.3,0.8,0,1.7-0.8,2.1l0,0c-0.2,0.1-0.4,0.1-0.5,0.1l0,0
		C514,461.1,513.3,460.7,513.1,460.1z M521.8,456.3c-0.4-0.8,0-1.7,0.8-2.1l0,0c0.8-0.4,1.7,0,2.1,0.8l0,0c0.4,0.8,0,1.7-0.7,2.1
		l0,0c-0.2,0.1-0.4,0.1-0.6,0.2l0,0C522.7,457.3,522.1,456.9,521.8,456.3z M530.4,452.2c-0.4-0.8-0.1-1.7,0.7-2.1l0,0l0,0l0,0
		c0.8-0.4,1.7-0.1,2.1,0.7l0,0c0.4,0.8,0.1,1.7-0.7,2.1l0,0c-0.2,0.1-0.4,0.2-0.6,0.2l0,0C531.3,453.1,530.7,452.7,530.4,452.2z
		 M538.8,447.7c-0.4-0.8-0.2-1.7,0.6-2.1l0,0l0,0l0,0c0.8-0.4,1.7-0.2,2.1,0.6l0,0c0.4,0.8,0.2,1.7-0.6,2.1l0,0
		c-0.2,0.1-0.5,0.2-0.7,0.2l0,0C539.7,448.5,539.1,448.2,538.8,447.7z M547.1,442.8c-0.5-0.7-0.3-1.7,0.5-2.2l0,0
		c0.7-0.5,1.7-0.3,2.2,0.5l0,0c0.5,0.7,0.3,1.7-0.5,2.2l0,0c-0.2,0.2-0.5,0.2-0.8,0.2l0,0C547.9,443.6,547.4,443.3,547.1,442.8z
		 M555.1,437.6c-0.5-0.7-0.3-1.7,0.4-2.2l0,0c0.7-0.5,1.7-0.3,2.2,0.4l0,0c0.5,0.7,0.3,1.7-0.4,2.2l0,0c-0.2,0.2-0.5,0.3-0.8,0.3
		l0,0C555.9,438.4,555.4,438.1,555.1,437.6z M562.8,432.1c-0.5-0.7-0.4-1.7,0.3-2.2l0,0c0.7-0.5,1.7-0.4,2.2,0.3l0,0
		c0.5,0.7,0.4,1.7-0.3,2.2l0,0c-0.3,0.2-0.6,0.3-0.9,0.3l0,0C563.7,432.7,563.1,432.5,562.8,432.1z M570.3,426.2
		c-0.6-0.7-0.5-1.7,0.2-2.2l0,0l0,0l0,0c0.7-0.6,1.6-0.5,2.2,0.2l0,0c0.6,0.6,0.5,1.6-0.2,2.2l0,0c-0.3,0.2-0.6,0.3-0.9,0.3l0,0
		C571.2,426.8,570.7,426.6,570.3,426.2z M577.6,420c-0.6-0.6-0.5-1.6,0.1-2.2l0,0l0,0l0,0c0.6-0.6,1.6-0.6,2.2,0.1l0,0
		c0.6,0.6,0.5,1.6-0.1,2.2l0,0c-0.3,0.2-0.7,0.4-1,0.4l0,0C578.4,420.5,577.9,420.4,577.6,420z M584.5,413.5c-0.6-0.6-0.6-1.6,0-2.2
		l0,0l0,0l0,0c0.6-0.6,1.6-0.6,2.2,0l0,0c0.6,0.6,0.6,1.6,0,2.2l0,0c-0.3,0.3-0.7,0.4-1,0.4l0,0
		C585.3,413.9,584.9,413.8,584.5,413.5z M591.2,406.6c-0.6-0.6-0.7-1.6-0.1-2.2l0,0c0.6-0.6,1.6-0.7,2.2-0.1l0,0
		c0.6,0.6,0.7,1.6,0.1,2.2l0,0c-0.3,0.3-0.7,0.5-1.1,0.5l0,0C591.9,407,591.5,406.9,591.2,406.6z M597.5,399.4
		c-0.7-0.5-0.8-1.5-0.2-2.2l0,0l0,0l0,0c0.6-0.7,1.6-0.8,2.2-0.2l0,0c0.7,0.6,0.8,1.6,0.2,2.2l0,0c-0.3,0.4-0.7,0.6-1.1,0.6l0,0
		C598.1,399.8,597.8,399.7,597.5,399.4z M603.4,392c-0.7-0.5-0.9-1.5-0.3-2.2l0,0l0,0l0,0c0.5-0.7,1.5-0.8,2.2-0.3l0,0
		c0.7,0.5,0.8,1.5,0.3,2.2l0,0c-0.3,0.4-0.7,0.6-1.2,0.7l0,0C604.1,392.3,603.7,392.2,603.4,392z M608.9,384.2
		c-0.7-0.5-0.9-1.4-0.5-2.2l0,0c0,0,0,0,0,0l0,0c0.5-0.7,1.5-0.9,2.2-0.4l0,0c0.7,0.5,0.9,1.4,0.4,2.2l0,0c-0.3,0.4-0.8,0.7-1.3,0.7
		l0,0C609.6,384.4,609.2,384.4,608.9,384.2z M614.1,376.1c-0.7-0.4-1-1.4-0.5-2.2l0,0l0,0l0,0c0.4-0.7,1.4-1,2.2-0.6l0,0
		c0.7,0.4,1,1.4,0.5,2.2l0,0c-0.3,0.5-0.8,0.7-1.3,0.8l0,0C614.7,376.3,614.4,376.3,614.1,376.1z M618.8,367.8
		c-0.8-0.4-1.1-1.4-0.7-2.1l0,0c0.4-0.8,1.4-1.1,2.1-0.7l0,0c0.8,0.4,1.1,1.3,0.7,2.1l0,0c-0.3,0.5-0.8,0.8-1.3,0.8l0,0
		C619.3,368,619,367.9,618.8,367.8z M623,359.2c-0.8-0.4-1.2-1.3-0.8-2.1l0,0c0.4-0.8,1.3-1.2,2.1-0.8l0,0c0.8,0.4,1.1,1.3,0.8,2.1
		l0,0c-0.2,0.6-0.8,0.9-1.3,0.9l0,0C623.5,359.4,623.3,359.4,623,359.2z M626.8,350.5c-0.8-0.3-1.2-1.2-0.9-2l0,0
		c0.3-0.8,1.2-1.2,2-0.9l0,0c0.8,0.3,1.2,1.2,0.9,2l0,0c-0.2,0.6-0.8,1-1.4,1l0,0C627.2,350.6,627,350.5,626.8,350.5z M630,341.5
		c-0.8-0.3-1.3-1.2-1-2l0,0c0.3-0.8,1.2-1.3,2-1l0,0c0.8,0.3,1.3,1.2,1,2l0,0c-0.2,0.7-0.8,1.1-1.4,1.1l0,0
		C630.4,341.6,630.2,341.6,630,341.5z M632.8,332.3c-0.9-0.2-1.4-1.1-1.1-1.9l0,0c0.2-0.9,1.1-1.3,1.9-1.1l0,0
		c0.8,0.2,1.3,1.1,1.1,1.9l0,0c-0.2,0.7-0.8,1.2-1.5,1.2l0,0C633.1,332.4,632.9,332.4,632.8,332.3z M634.9,323.1
		c-0.9-0.2-1.4-1-1.3-1.9l0,0c0.2-0.9,1-1.4,1.9-1.2l0,0c0.9,0.2,1.4,1,1.3,1.8l0,0c-0.1,0.7-0.8,1.3-1.5,1.3l0,0
		C635.2,323.1,635.1,323.1,634.9,323.1z M636.6,313.7c-0.9-0.1-1.5-0.9-1.4-1.8l0,0c0.1-0.9,0.9-1.5,1.8-1.4l0,0
		c0.9,0.1,1.5,0.9,1.4,1.8l0,0c-0.1,0.8-0.7,1.3-1.5,1.4l0,0C636.8,313.7,636.7,313.7,636.6,313.7z M637.6,304.2
		c-0.9-0.1-1.5-0.8-1.4-1.7l0,0c0.1-0.9,0.8-1.5,1.7-1.5l0,0c0.8,0.1,1.5,0.8,1.4,1.7l0,0c-0.1,0.8-0.7,1.4-1.5,1.5l0,0
		C637.8,304.2,637.7,304.2,637.6,304.2z M638.1,294.7c-0.9,0-1.6-0.7-1.5-1.6l0,0c0-0.9,0.7-1.6,1.6-1.6l0,0c0.9,0,1.6,0.7,1.6,1.6
		l0,0C639.7,293.9,639.1,294.6,638.1,294.7L638.1,294.7C638.2,294.7,638.2,294.7,638.1,294.7z"/>
	<path class="st3" d="M216.9,303.4l-6.4,20.5l7-5.9l7.6,5.2L216.9,303.4z"/>
</g>
<path class="st4" d="M650.9,221.7c44.7,0,80.9,36.2,80.9,80.9c0,44.7-36.2,80.9-80.9,80.9c-44.7,0-80.9-36.2-80.9-80.9
	C570,257.9,606.2,221.7,650.9,221.7z"/>
<path class="st4" d="M695.6,59.9c44.7,0,80.9,36.2,80.9,80.9s-36.2,80.9-80.9,80.9c-44.7,0-80.9-36.2-80.9-80.9
	S650.9,59.9,695.6,59.9z"/>
<g>
	<path class="st5" d="M55.8,101.5c0-2.5-1.9-4.5-4.9-4.5c-2.4,0-4.2,1.2-4.2,2.6v1.1h-2.2V99c0-3,4.1-4.2,6.5-4.2
		c4.5,0,7.2,3,7.2,6.7c0,8.4-12.6,8.1-12.6,14.7c0,0.5,0.3,0.7,0.8,0.7h9.9c0.5,0,0.7-0.2,0.7-0.7v-1.6h2.2v2.4
		c0,1.5-0.6,2.1-2.1,2.1H45.3c-1.6,0-2.1-0.7-2.1-2.3C43.2,107.8,55.8,108.6,55.8,101.5z"/>
	<path class="st5" d="M66,107.1c0-6.8,2-12.3,8.2-12.3s8.2,5.4,8.2,12.3c0,6.9-2,12.3-8.2,12.3S66,114,66,107.1z M80,107.1
		c0-5.6-1.3-10.1-5.8-10.1s-5.8,4.4-5.8,10.1c0,5.7,1.3,10.1,5.8,10.1S80,112.8,80,107.1z"/>
	<path class="st5" d="M89.4,116.9h5.3V99.5c0-0.7,0-1.3,0-1.3h-0.1c0,0-0.2,0.5-1.2,1.4l-2.5,2.5l-1.5-1.5l5.4-5.3h2.2v21.7h5.2v2.1
		H89.4V116.9z"/>
	<path class="st5" d="M119.4,99.5c0.7-1.3,1.3-2.2,1.3-2.2v-0.1c0,0-0.6,0.1-1.8,0.1h-8.6c-0.5,0-0.7,0.2-0.7,0.7v1.6h-2.2v-2.4
		c0-1.5,0.6-2.1,2-2.1h14v1.6L111.7,119h-2.6L119.4,99.5z"/>
</g>
<g>
	<path class="st6" d="M170.2,100.4c0,0,1.4,1.7,3.7,1.7c1.6,0,2.8-1,2.8-2.5c0-3.5-7-2.8-7-7.2c0-2,1.7-3.6,4.3-3.6
		c1.4,0,3.8,0.6,3.8,2.4v1h-1.3v-0.7c0-0.8-1.2-1.5-2.5-1.5c-1.8,0-2.9,1.1-2.9,2.3c0,3.3,7,2.5,7,7.2c0,2.1-1.6,3.9-4.3,3.9
		c-2.9,0-4.5-2-4.5-2L170.2,100.4z"/>
	<path class="st6" d="M187.3,92.8c3,0,5.4,2.3,5.4,5.3c0,3.1-2.4,5.4-5.4,5.4c-3,0-5.4-2.3-5.4-5.4C182,95.1,184.4,92.8,187.3,92.8z
		 M187.4,102.3c2.2,0,3.9-1.8,3.9-4.1c0-2.3-1.8-4-3.9-4c-2.2,0-4,1.7-4,4C183.4,100.5,185.2,102.3,187.4,102.3z"/>
	<path class="st6" d="M197.3,94.7c0-0.3-0.2-0.4-0.4-0.4H196v-1.2h1.4c0.8,0,1.2,0.4,1.2,1.1v0.5c0,0.4,0,0.7,0,0.7h0
		c0.4-0.9,1.7-2.6,4-2.6c2.5,0,3.4,1.4,3.4,3.9v4.8c0,0.3,0.2,0.4,0.4,0.4h0.8v1.2H206c-0.9,0-1.2-0.4-1.2-1.2v-4.9
		c0-1.6-0.2-3-2.2-3c-1.7,0-3.2,1.2-3.7,2.9c-0.1,0.4-0.2,0.9-0.2,1.4v4.9h-1.4V94.7z"/>
	<path class="st6" d="M216,92.8c3,0,5.4,2.3,5.4,5.3c0,3.1-2.4,5.4-5.4,5.4c-3,0-5.4-2.3-5.4-5.4C210.7,95.1,213.1,92.8,216,92.8z
		 M216,102.3c2.2,0,3.9-1.8,3.9-4.1c0-2.3-1.8-4-3.9-4c-2.2,0-4,1.7-4,4C212.1,100.5,213.8,102.3,216,102.3z"/>
	<path class="st6" d="M233.1,100.8c0,0,1.1,1.5,3.1,1.5c1.1,0,2.1-0.5,2.1-1.6c0-2.2-5.7-1.8-5.7-5.1c0-1.8,1.6-2.7,3.6-2.7
		c1,0,3.1,0.4,3.1,1.8v0.9h-1.3v-0.5c0-0.7-1.1-1-1.8-1c-1.4,0-2.3,0.5-2.3,1.5c0,2.3,5.7,1.8,5.7,5.1c0,1.7-1.5,2.8-3.6,2.8
		c-2.6,0-3.9-1.8-3.9-1.8L233.1,100.8z"/>
	<path class="st6" d="M244.5,94.2h-1.3v-1.2h1.4v-2.8h1.4v2.8h2.5v1.2h-2.5v5.2c0,2.4,1.5,2.7,2.3,2.7c0.3,0,0.5,0,0.5,0v1.2
		c0,0-0.2,0-0.6,0c-1.2,0-3.5-0.4-3.5-3.8V94.2z"/>
	<path class="st6" d="M258.3,97h0.6v-0.1c0-2.1-0.8-2.9-2.6-2.9c-0.5,0-2,0.1-2,0.9v0.6H253v-1c0-1.4,2.4-1.7,3.3-1.7
		c3.2,0,4,1.7,4,3.9v4.9c0,0.3,0.2,0.4,0.4,0.4h0.8v1.2h-1.4c-0.9,0-1.2-0.4-1.2-1.2c0-0.4,0-0.7,0-0.7h0c0,0-0.8,2.2-3.4,2.2
		c-1.7,0-3.5-1-3.5-3C252.1,97.1,256.6,97,258.3,97z M255.8,102.3c1.9,0,3.1-2,3.1-3.8v-0.5h-0.6c-1.6,0-4.8,0-4.8,2.3
		C253.5,101.4,254.3,102.3,255.8,102.3z"/>
	<path class="st6" d="M265.9,94.2h-1.3v-1.2h1.4v-2.8h1.4v2.8h2.5v1.2h-2.5v5.2c0,2.4,1.5,2.7,2.3,2.7c0.3,0,0.5,0,0.5,0v1.2
		c0,0-0.2,0-0.6,0c-1.2,0-3.5-0.4-3.5-3.8V94.2z"/>
	<path class="st6" d="M278.4,92.8c2.8,0,4.3,2.2,4.3,4.7c0,0.2,0,0.7,0,0.7h-7.8c0,2.6,1.8,4,3.9,4c1.9,0,3.1-1.3,3.1-1.3l0.7,1
		c0,0-1.5,1.5-3.8,1.5c-3,0-5.3-2.2-5.3-5.3C273.4,94.8,275.7,92.8,278.4,92.8z M281.2,97.1c-0.1-2.1-1.4-3.1-2.9-3.1
		c-1.7,0-3.2,1.1-3.5,3.1H281.2z"/>
	<path class="st6" d="M177.5,116c0-0.3-0.2-0.4-0.4-0.4h-0.8v-1.2h1.4c0.9,0,1.2,0.4,1.2,1.2v4.9c0,1.6,0.3,3,2.2,3
		c2.3,0,3.7-2,3.7-4.2v-4.9h1.4v8.5c0,0.3,0.2,0.4,0.4,0.4h0.8v1.2h-1.4c-0.8,0-1.2-0.4-1.2-1.1V123c0-0.4,0-0.7,0-0.7h0
		c-0.4,1-1.7,2.6-4,2.6c-2.4,0-3.4-1.3-3.4-3.9V116z"/>
	<path class="st6" d="M191.8,115.6h-1.3v-1.2h1.4v-2.8h1.4v2.8h2.5v1.2h-2.5v5.2c0,2.4,1.5,2.7,2.3,2.7c0.3,0,0.5,0,0.5,0v1.2
		c0,0-0.2,0-0.6,0c-1.2,0-3.5-0.4-3.5-3.8V115.6z"/>
	<path class="st6" d="M200.6,116c0-0.3-0.2-0.4-0.4-0.4h-0.8v-1.2h1.4c0.9,0,1.2,0.4,1.2,1.2v7.3c0,0.3,0.2,0.4,0.4,0.4h0.8v1.2
		h-1.4c-0.9,0-1.2-0.4-1.2-1.2V116z M200.6,110.4h1.3v1.7h-1.3V110.4z"/>
	<path class="st6" d="M207.6,112c0-0.3-0.2-0.4-0.4-0.4h-0.8v-1.2h1.4c0.9,0,1.2,0.4,1.2,1.2v11.3c0,0.3,0.2,0.4,0.4,0.4h0.8v1.2
		h-1.4c-0.9,0-1.2-0.4-1.2-1.2V112z"/>
	<path class="st6" d="M214.7,116c0-0.3-0.2-0.4-0.4-0.4h-0.8v-1.2h1.4c0.9,0,1.2,0.4,1.2,1.2v7.3c0,0.3,0.2,0.4,0.4,0.4h0.8v1.2
		h-1.4c-0.9,0-1.2-0.4-1.2-1.2V116z M214.6,110.4h1.3v1.7h-1.3V110.4z"/>
	<path class="st6" d="M220.7,123.7l5.7-7.1c0.4-0.5,0.8-0.9,0.8-0.9v0c0,0-0.3,0-1,0h-3.7c-0.3,0-0.4,0.1-0.4,0.4v0.8h-1.3v-1.2
		c0-0.9,0.4-1.2,1.2-1.2h7.1v0.9l-5.7,7.1c-0.4,0.5-0.8,0.9-0.8,0.9v0c0,0,0.4,0,1,0h4.2c0.3,0,0.4-0.1,0.4-0.4v-0.8h1.3v1.2
		c0,0.9-0.4,1.2-1.2,1.2h-7.5V123.7z"/>
	<path class="st6" d="M232.8,123.7l5.7-7.1c0.4-0.5,0.8-0.9,0.8-0.9v0c0,0-0.3,0-1,0h-3.7c-0.3,0-0.4,0.1-0.4,0.4v0.8h-1.3v-1.2
		c0-0.9,0.4-1.2,1.2-1.2h7.1v0.9l-5.7,7.1c-0.4,0.5-0.8,0.9-0.8,0.9v0c0,0,0.4,0,1,0h4.2c0.3,0,0.4-0.1,0.4-0.4v-0.8h1.3v1.2
		c0,0.9-0.4,1.2-1.2,1.2h-7.5V123.7z"/>
	<path class="st6" d="M251.1,118.3h0.6v-0.1c0-2.1-0.8-2.9-2.6-2.9c-0.5,0-2,0.1-2,0.9v0.6h-1.3v-1c0-1.4,2.4-1.7,3.3-1.7
		c3.2,0,4,1.7,4,3.9v4.9c0,0.3,0.2,0.4,0.4,0.4h0.8v1.2H253c-0.9,0-1.2-0.4-1.2-1.2c0-0.4,0-0.7,0-0.7h0c0,0-0.8,2.2-3.4,2.2
		c-1.7,0-3.5-1-3.5-3C244.9,118.4,249.4,118.3,251.1,118.3z M248.6,123.6c1.9,0,3.1-2,3.1-3.8v-0.5h-0.6c-1.6,0-4.8,0-4.8,2.3
		C246.3,122.7,247.1,123.6,248.6,123.6z"/>
	<path class="st6" d="M258.7,115.6h-1.3v-1.2h1.4v-2.8h1.4v2.8h2.5v1.2h-2.5v5.2c0,2.4,1.5,2.7,2.3,2.7c0.3,0,0.5,0,0.5,0v1.2
		c0,0-0.2,0-0.6,0c-1.2,0-3.5-0.4-3.5-3.8V115.6z"/>
	<path class="st6" d="M271.2,114.2c2.8,0,4.3,2.2,4.3,4.7c0,0.2,0,0.7,0,0.7h-7.8c0,2.6,1.8,4,3.9,4c1.9,0,3.1-1.3,3.1-1.3l0.7,1
		c0,0-1.5,1.5-3.8,1.5c-3,0-5.3-2.2-5.3-5.3C266.2,116.2,268.5,114.2,271.2,114.2z M274.1,118.5c-0.1-2.1-1.4-3.1-2.9-3.1
		c-1.7,0-3.2,1.1-3.5,3.1H274.1z"/>
	<path class="st3" d="M170.6,146.1c1.8,0,5.6,0.8,5.6,3.4v1.4h-2V150c0-1.3-2.3-1.9-3.6-1.9c-3.4,0-6.1,2.5-6.1,6.4
		c0,3.9,2.9,6.3,6.2,6.3c3.2,0,5.1-2.2,5.1-2.2l1,1.6c0,0-2.1,2.6-6.2,2.6c-4.7,0-8.3-3.4-8.3-8.3
		C162.2,149.6,165.8,146.1,170.6,146.1z"/>
	<path class="st3" d="M180.5,149c0-0.4-0.3-0.7-0.7-0.7h-1.3v-1.9h2.2c1.4,0,1.9,0.6,1.9,1.9v11.3c0,0.5,0.3,0.7,0.7,0.7h1.3v1.9
		h-2.2c-1.4,0-1.9-0.6-1.9-1.9V149z M180.4,140.2h2.1v2.7h-2.1V140.2z"/>
	<path class="st3" d="M188.2,149c0-0.4-0.3-0.7-0.7-0.7h-1.3v-1.9h2.2c1.3,0,1.9,0.5,1.9,1.8v1.1c0,0.7-0.1,1.2-0.1,1.2h0.1
		c0.8-2.4,2.5-4.2,5-4.2c0.4,0,0.8,0.1,0.8,0.1v2.1c0,0-0.4-0.1-0.8-0.1c-2.2,0-3.9,1.8-4.6,4.1c-0.3,1-0.4,2.1-0.4,3.1v6.7h-2.1
		V149z"/>
	<path class="st3" d="M205.8,146.1c1.8,0,5.6,0.8,5.6,3.4v1.4h-2V150c0-1.3-2.3-1.9-3.6-1.9c-3.4,0-6.1,2.5-6.1,6.4
		c0,3.9,2.9,6.3,6.2,6.3c3.2,0,5.1-2.2,5.1-2.2l1,1.6c0,0-2.1,2.6-6.2,2.6c-4.7,0-8.3-3.4-8.3-8.3
		C197.5,149.6,201.1,146.1,205.8,146.1z"/>
	<path class="st3" d="M223.7,152.5h0.9v-0.2c0-3.3-1.2-4.5-4.1-4.5c-0.8,0-3.1,0.2-3.1,1.4v1h-2v-1.5c0-2.2,3.8-2.7,5.2-2.7
		c5,0,6.2,2.7,6.2,6.1v7.6c0,0.5,0.3,0.7,0.7,0.7h1.3v1.9h-2.2c-1.4,0-1.9-0.6-1.9-1.9c0-0.7,0-1.2,0-1.2h-0.1c0,0-1.3,3.4-5.2,3.4
		c-2.6,0-5.4-1.5-5.4-4.7C214,152.7,221,152.5,223.7,152.5z M219.8,160.8c3,0,4.8-3.1,4.8-5.9v-0.7h-0.9c-2.5,0-7.4,0.1-7.4,3.6
		C216.2,159.3,217.4,160.8,219.8,160.8z"/>
	<path class="st3" d="M250.1,144.2c0.6-1.2,1.2-2,1.2-2v-0.1c0,0-0.6,0.1-1.7,0.1h-8c-0.4,0-0.7,0.2-0.7,0.7v1.5h-2.1v-2.2
		c0-1.4,0.5-1.9,1.9-1.9h13v1.5l-10.9,20.6h-2.5L250.1,144.2z"/>
	<path class="st3" d="M255.3,151.2c0-6.3,1.9-11.4,7.6-11.4c5.8,0,7.6,5.1,7.6,11.4c0,6.4-1.9,11.4-7.6,11.4
		C257.1,162.7,255.3,157.6,255.3,151.2z M268.3,151.2c0-5.2-1.2-9.4-5.4-9.4c-4.2,0-5.4,4.1-5.4,9.4c0,5.3,1.2,9.4,5.4,9.4
		C267.1,160.6,268.3,156.5,268.3,151.2z"/>
	<path class="st3" d="M274.2,151.2c0-6.3,1.9-11.4,7.6-11.4s7.6,5.1,7.6,11.4c0,6.4-1.9,11.4-7.6,11.4S274.2,157.6,274.2,151.2z
		 M287.2,151.2c0-5.2-1.2-9.4-5.4-9.4s-5.4,4.1-5.4,9.4c0,5.3,1.2,9.4,5.4,9.4S287.2,156.5,287.2,151.2z"/>
	<path class="st3" d="M156.9,177.5h-2.1v-1.8h2.1v-4.4h2.1v4.4h4v1.8h-4v8c0,3.7,2.4,4.2,3.6,4.2c0.4,0,0.7-0.1,0.7-0.1v1.9
		c0,0-0.4,0.1-0.9,0.1c-1.8,0-5.5-0.6-5.5-5.9V177.5z"/>
	<path class="st3" d="M173.8,175.3c4.6,0,8.4,3.5,8.4,8.2c0,4.8-3.7,8.4-8.3,8.4c-4.6,0-8.4-3.6-8.4-8.4
		C165.4,178.8,169.2,175.3,173.8,175.3z M173.8,189.9c3.4,0,6.1-2.8,6.1-6.4c0-3.6-2.8-6.3-6.1-6.3c-3.4,0-6.2,2.7-6.2,6.3
		C167.6,187.2,170.4,189.9,173.8,189.9z"/>
	<path class="st3" d="M186.1,178.2c0-0.4-0.3-0.7-0.7-0.7h-1.3v-1.9h2.2c1.3,0,1.9,0.6,1.9,1.8v0.7c0,0.6-0.1,1.1-0.1,1.1h0.1
		c0.6-1.4,2.6-4,6.3-4c3.9,0,5.3,2.2,5.3,6.1v7.5c0,0.5,0.3,0.7,0.7,0.7h1.3v1.9h-2.2c-1.4,0-1.9-0.6-1.9-1.9V182
		c0-2.5-0.4-4.7-3.4-4.7c-2.7,0-5,1.9-5.8,4.5c-0.2,0.7-0.3,1.4-0.3,2.1v7.6h-2.1V178.2z"/>
	<path class="st3" d="M205.2,178.2c0-0.4-0.3-0.7-0.7-0.7h-1.3v-1.9h2.2c1.3,0,1.9,0.6,1.9,1.8v0.7c0,0.6-0.1,1.1-0.1,1.1h0.1
		c0.6-1.4,2.6-4,6.3-4c3.9,0,5.3,2.2,5.3,6.1v7.5c0,0.5,0.3,0.7,0.7,0.7h1.3v1.9h-2.2c-1.4,0-1.9-0.6-1.9-1.9V182
		c0-2.5-0.4-4.7-3.4-4.7c-2.7,0-5,1.9-5.8,4.5c-0.2,0.7-0.3,1.4-0.3,2.1v7.6h-2.1V178.2z"/>
	<path class="st3" d="M230.6,175.3c4.4,0,6.6,3.4,6.6,7.3c0,0.4-0.1,1.1-0.1,1.1h-12.1c0.1,4,2.9,6.3,6.1,6.3c2.9,0,4.7-1.9,4.7-1.9
		l1,1.6c0,0-2.3,2.3-5.9,2.3c-4.7,0-8.3-3.4-8.3-8.3C222.8,178.4,226.4,175.3,230.6,175.3z M235.1,181.9c-0.1-3.3-2.1-4.9-4.5-4.9
		c-2.6,0-4.9,1.7-5.4,4.9H235.1z"/>
	<path class="st3" d="M241.5,171.9c0-0.4-0.3-0.7-0.7-0.7h-1.3v-1.9h2.2c1.4,0,1.9,0.6,1.9,1.9v17.6c0,0.5,0.3,0.7,0.7,0.7h1.3v1.9
		h-2.2c-1.4,0-1.9-0.6-1.9-1.9V171.9z"/>
	<path class="st3" d="M249.2,171.9c0-0.4-0.3-0.7-0.7-0.7h-1.3v-1.9h2.2c1.4,0,1.9,0.6,1.9,1.9v17.6c0,0.5,0.3,0.7,0.7,0.7h1.3v1.9
		h-2.2c-1.4,0-1.9-0.6-1.9-1.9V171.9z"/>
	<path class="st3" d="M265.2,181.7h0.9v-0.2c0-3.3-1.2-4.5-4.1-4.5c-0.8,0-3.1,0.2-3.1,1.4v1h-2V178c0-2.2,3.8-2.7,5.2-2.7
		c5,0,6.2,2.7,6.2,6.1v7.6c0,0.5,0.3,0.7,0.7,0.7h1.3v1.9H268c-1.4,0-1.9-0.6-1.9-1.9c0-0.7,0-1.2,0-1.2h-0.1c0,0-1.3,3.4-5.2,3.4
		c-2.6,0-5.4-1.5-5.4-4.7C255.5,181.9,262.4,181.7,265.2,181.7z M261.2,190c3,0,4.8-3.1,4.8-5.9v-0.7h-0.9c-2.5,0-7.4,0.1-7.4,3.6
		C257.7,188.5,258.8,190,261.2,190z"/>
	<path class="st3" d="M273.8,177.5h-2.1v-1.8h2.1v-4.4h2.1v4.4h4v1.8h-4v8c0,3.7,2.4,4.2,3.6,4.2c0.4,0,0.7-0.1,0.7-0.1v1.9
		c0,0-0.4,0.1-0.9,0.1c-1.8,0-5.5-0.6-5.5-5.9V177.5z"/>
	<path class="st3" d="M290.1,175.3c4.4,0,6.6,3.4,6.6,7.3c0,0.4-0.1,1.1-0.1,1.1h-12.1c0.1,4,2.9,6.3,6.1,6.3c2.9,0,4.7-1.9,4.7-1.9
		l1,1.6c0,0-2.3,2.3-5.9,2.3c-4.7,0-8.3-3.4-8.3-8.3C282.3,178.4,285.9,175.3,290.1,175.3z M294.5,181.9c-0.1-3.3-2.1-4.9-4.5-4.9
		c-2.6,0-4.9,1.7-5.4,4.9H294.5z"/>
	<path class="st3" d="M160,204.5c3.8,0,5.2,3,5.2,3h0.1c0,0-0.1-0.5-0.1-1.2v-5.1c0-0.4-0.3-0.7-0.7-0.7h-1.3v-1.9h2.2
		c1.4,0,1.9,0.6,1.9,1.9v17.6c0,0.5,0.3,0.7,0.7,0.7h1.3v1.9h-2.2c-1.3,0-1.9-0.6-1.9-1.8c0-0.6,0.1-1,0.1-1h-0.1
		c0,0-1.3,3.1-5.4,3.1c-4.2,0-6.9-3.4-6.9-8.3C152.9,207.7,155.9,204.5,160,204.5z M165.3,212.7c0-3.2-1.6-6.3-5-6.3
		c-2.8,0-5.1,2.4-5.1,6.3c0,3.9,2,6.4,5,6.4C162.8,219.1,165.3,217.2,165.3,212.7z"/>
	<path class="st3" d="M173,207.4c0-0.4-0.3-0.7-0.7-0.7H171v-1.9h2.2c1.4,0,1.9,0.6,1.9,1.9v11.3c0,0.5,0.3,0.7,0.7,0.7h1.3v1.9
		h-2.2c-1.4,0-1.9-0.6-1.9-1.9V207.4z M172.9,198.6h2.1v2.7h-2.1V198.6z"/>
	<path class="st3" d="M189.8,200.5h-2v-1.9h9.4c3.5,0,6,2.1,6,5.6c0,2.4-1.2,4-2.8,4.8v0.1c2.3,0.6,3.7,2.8,3.7,5.5
		c0,3.9-2.9,6.2-6.6,6.2h-5.7c-1.4,0-1.9-0.6-1.9-1.9V200.5z M197.2,208.1c2.2,0,3.7-1.6,3.7-3.9c0-2.3-1.4-3.8-3.8-3.8H192v7.6
		H197.2z M192.7,218.7h4.7c2.7,0,4.3-1.7,4.3-4.3s-1.8-4.4-4.3-4.4H192v8C192,218.5,192.3,218.7,192.7,218.7z"/>
	<path class="st3" d="M208.5,207.4c0-0.4-0.3-0.7-0.7-0.7h-1.3v-1.9h2.2c1.4,0,1.9,0.6,1.9,1.9v11.3c0,0.5,0.3,0.7,0.7,0.7h1.3v1.9
		h-2.2c-1.4,0-1.9-0.6-1.9-1.9V207.4z M208.4,198.6h2.1v2.7h-2.1V198.6z"/>
	<path class="st3" d="M223.1,204.5c4.6,0,8.4,3.5,8.4,8.2c0,4.8-3.7,8.4-8.3,8.4c-4.6,0-8.4-3.6-8.4-8.4
		C214.7,208,218.5,204.5,223.1,204.5z M223.1,219.1c3.4,0,6.1-2.8,6.1-6.4c0-3.6-2.8-6.3-6.1-6.3c-3.4,0-6.2,2.7-6.2,6.3
		C216.9,216.3,219.7,219.1,223.1,219.1z"/>
	<path class="st3" d="M235,210.7h8.9v1.9H235V210.7z"/>
	<path class="st3" d="M249.6,200.5h-2v-1.9h9.3c3.9,0,6.8,2.6,6.8,6.7c0,4.1-2.9,6.8-6.8,6.8h-5.1v8.7h-2.2V200.5z M256.6,210
		c2.9,0,4.8-1.8,4.8-4.8c0-3-1.9-4.7-4.8-4.7h-4.8v9.5H256.6z"/>
	<path class="st3" d="M267.8,200.5h-2v-1.9h12.6c1.4,0,1.9,0.6,1.9,1.9v2.2h-2.1v-1.5c0-0.5-0.3-0.7-0.7-0.7H270v8h8.3v1.9H270v7.5
		c0,0.5,0.3,0.7,0.7,0.7h7.8c0.4,0,0.7-0.2,0.7-0.7v-1.5h2v2.2c0,1.4-0.6,1.9-1.9,1.9h-9.6c-1.4,0-1.9-0.6-1.9-1.9V200.5z"/>
	<path class="st3" d="M290.4,200.5h-5.5c-0.4,0-0.7,0.2-0.7,0.7v1.5h-2v-2.3c0-1.4,0.4-1.8,1.8-1.8h15c1.4,0,1.8,0.4,1.8,1.8v2.3h-2
		v-1.5c0-0.5-0.2-0.7-0.7-0.7h-5.4v20.1h-2.2V200.5z"/>
	<path class="st6" d="M153.2,236.4c0-0.3-0.2-0.4-0.4-0.4h-0.8v-1.2h1.4c0.9,0,1.2,0.4,1.2,1.1c0,0.4,0,0.7,0,0.7h0c0,0,0.8-2,3.5-2
		c2.7,0,4.4,2.2,4.4,5.3c0,3.2-1.9,5.3-4.5,5.3c-2.5,0-3.3-1.9-3.3-1.9h0c0,0,0,0.4,0,0.9v4.8h-1.4V236.4z M157.7,243.9
		c1.8,0,3.3-1.5,3.3-4.1c0-2.5-1.3-4.1-3.2-4.1c-1.7,0-3.3,1.2-3.3,4.1C154.5,241.9,155.6,243.9,157.7,243.9z"/>
	<path class="st6" d="M171.1,234.5c2.8,0,4.3,2.2,4.3,4.7c0,0.2,0,0.7,0,0.7h-7.8c0,2.6,1.8,4,3.9,4c1.9,0,3.1-1.3,3.1-1.3l0.7,1
		c0,0-1.5,1.5-3.8,1.5c-3,0-5.3-2.2-5.3-5.3C166.1,236.5,168.4,234.5,171.1,234.5z M173.9,238.8c-0.1-2.1-1.4-3.1-2.9-3.1
		c-1.7,0-3.2,1.1-3.5,3.1H173.9z"/>
	<path class="st6" d="M180.1,236.4c0-0.3-0.2-0.4-0.4-0.4h-0.8v-1.2h1.4c0.8,0,1.2,0.3,1.2,1.2v0.7c0,0.4,0,0.8,0,0.8h0
		c0.5-1.5,1.6-2.7,3.2-2.7c0.3,0,0.5,0.1,0.5,0.1v1.4c0,0-0.2,0-0.5,0c-1.4,0-2.5,1.1-3,2.6c-0.2,0.6-0.3,1.3-0.3,2v4.3h-1.4V236.4z
		"/>
	<path class="st6" d="M197.4,232.4c0-0.3-0.2-0.4-0.4-0.4h-0.9v-1.3h1.5c0.9,0,1.2,0.4,1.2,1.2v11.3c0,0.3,0.2,0.4,0.4,0.4h4.7
		c0.3,0,0.4-0.1,0.4-0.4v-0.9h1.3v1.4c0,0.9-0.4,1.2-1.2,1.2h-5.9c-0.9,0-1.2-0.4-1.2-1.2V232.4z"/>
	<path class="st6" d="M213.6,234.5c2.8,0,4.3,2.2,4.3,4.7c0,0.2,0,0.7,0,0.7H210c0,2.6,1.8,4,3.9,4c1.9,0,3.1-1.3,3.1-1.3l0.7,1
		c0,0-1.5,1.5-3.8,1.5c-3,0-5.3-2.2-5.3-5.3C208.6,236.5,210.8,234.5,213.6,234.5z M216.4,238.8c-0.1-2.1-1.4-3.1-2.9-3.1
		c-1.7,0-3.2,1.1-3.5,3.1H216.4z"/>
	<path class="st6" d="M222,236.4c-0.1-0.4-0.3-0.5-0.7-0.5h-0.2v-1.2h0.5c1,0,1.3,0.2,1.6,1.1l2.4,6.3c0.2,0.5,0.3,1.2,0.3,1.2h0
		c0,0,0.2-0.7,0.3-1.2l2.4-6.3c0.3-0.9,0.6-1.1,1.6-1.1h0.5v1.2h-0.2c-0.4,0-0.6,0.1-0.7,0.5l-3.3,8.5h-1.5L222,236.4z"/>
	<path class="st6" d="M235.2,236.4c0-0.3-0.2-0.4-0.4-0.4h-0.8v-1.2h1.4c0.9,0,1.2,0.4,1.2,1.2v7.3c0,0.3,0.2,0.4,0.4,0.4h0.8v1.2
		h-1.4c-0.9,0-1.2-0.4-1.2-1.2V236.4z M235.1,230.7h1.3v1.7h-1.3V230.7z"/>
	<path class="st6" d="M241.8,242.4c0,0,1.1,1.5,3.1,1.5c1.1,0,2.1-0.5,2.1-1.6c0-2.2-5.7-1.8-5.7-5.1c0-1.8,1.6-2.7,3.6-2.7
		c1,0,3.1,0.4,3.1,1.8v0.9h-1.3v-0.5c0-0.7-1.1-1-1.8-1c-1.4,0-2.3,0.5-2.3,1.5c0,2.3,5.7,1.8,5.7,5.1c0,1.7-1.5,2.8-3.6,2.8
		c-2.6,0-3.9-1.8-3.9-1.8L241.8,242.4z"/>
	<path class="st6" d="M252.7,242.4c0,0,1.1,1.5,3.1,1.5c1.1,0,2.1-0.5,2.1-1.6c0-2.2-5.7-1.8-5.7-5.1c0-1.8,1.6-2.7,3.6-2.7
		c1,0,3.1,0.4,3.1,1.8v0.9h-1.3v-0.5c0-0.7-1.1-1-1.8-1c-1.4,0-2.3,0.5-2.3,1.5c0,2.3,5.7,1.8,5.7,5.1c0,1.7-1.5,2.8-3.6,2.8
		c-2.6,0-3.9-1.8-3.9-1.8L252.7,242.4z"/>
	<path class="st6" d="M264.1,236.4c0-0.3-0.2-0.4-0.4-0.4h-0.8v-1.2h1.4c0.9,0,1.2,0.4,1.2,1.2v7.3c0,0.3,0.2,0.4,0.4,0.4h0.8v1.2
		h-1.4c-0.9,0-1.2-0.4-1.2-1.2V236.4z M264.1,230.7h1.3v1.7h-1.3V230.7z"/>
	<path class="st6" d="M271.1,236.4c0-0.3-0.2-0.4-0.4-0.4h-0.8v-1.2h1.4c0.8,0,1.2,0.4,1.2,1.1v0.5c0,0.4,0,0.7,0,0.7h0
		c0.5-1.4,2.1-2.6,3.7-2.6c1.9,0,2.8,0.9,3.2,2.5h0c0.5-1.4,2-2.5,3.7-2.5c2.5,0,3.4,1.4,3.4,3.9v4.8c0,0.3,0.2,0.4,0.4,0.4h0.8v1.2
		h-1.4c-0.9,0-1.2-0.4-1.2-1.2v-4.9c0-1.7-0.3-3-2.2-3c-1.5,0-2.8,1.4-3.2,2.9c-0.1,0.4-0.2,0.9-0.2,1.5v4.8h-1.4v-6.1
		c0-1.5-0.2-3-2.1-3c-1.7,0-2.9,1.4-3.3,3c-0.1,0.4-0.2,0.9-0.2,1.4v4.8h-1.4V236.4z"/>
	<path class="st6" d="M297.2,238.6h0.6v-0.1c0-2.1-0.8-2.9-2.6-2.9c-0.5,0-2,0.1-2,0.9v0.6h-1.3v-1c0-1.4,2.4-1.7,3.3-1.7
		c3.2,0,4,1.7,4,3.9v4.9c0,0.3,0.2,0.4,0.4,0.4h0.8v1.2H299c-0.9,0-1.2-0.4-1.2-1.2c0-0.4,0-0.7,0-0.7h0c0,0-0.8,2.2-3.4,2.2
		c-1.7,0-3.5-1-3.5-3C291,238.7,295.4,238.6,297.2,238.6z M294.6,244c1.9,0,3.1-2,3.1-3.8v-0.5h-0.6c-1.6,0-4.8,0-4.8,2.3
		C292.4,243,293.1,244,294.6,244z"/>
</g>
<g>
	<path class="st6" d="M645.1,137.9h4.2v-13.9c0-0.5,0-1,0-1h-0.1c0,0-0.2,0.4-0.9,1.1l-2,2l-1.2-1.2l4.3-4.2h1.8v17.2h4.1v1.7h-10.2
		V137.9z"/>
	<path class="st6" d="M657.1,131.3c0-4.8,2.5-10.9,8.3-10.9c2.1,0,3.5,0.8,3.5,0.8l-0.7,1.6c0,0-1.2-0.7-2.7-0.7
		c-3.9,0-6,3.9-6.3,7.8h0.1c0.9-1.5,2.8-2.3,4.8-2.3c3.4,0,5.9,2.5,5.9,6c0,3.9-2.6,6.3-5.9,6.3
		C659.8,139.9,657.1,136.2,657.1,131.3z M663.9,138.2c2.6,0,4.1-1.9,4.1-4.5c0-2.6-1.7-4.3-4.3-4.3c-2.5,0-4.6,1.7-4.6,3.2
		C659.1,135,661,138.2,663.9,138.2z"/>
	<path class="st6" d="M672.6,124.1c0-2,1.7-3.7,3.8-3.7c2.1,0,3.8,1.7,3.8,3.7c0,2.1-1.7,3.7-3.8,3.7
		C674.3,127.8,672.6,126.2,672.6,124.1z M687.2,120.7h1.9l-14.4,18.9h-1.9L687.2,120.7z M678.6,124.1c0-1.2-1-2.2-2.2-2.2
		c-1.2,0-2.2,1-2.2,2.2c0,1.2,0.9,2.2,2.2,2.2C677.6,126.3,678.6,125.3,678.6,124.1z M685.4,132.4c2.1,0,3.8,1.7,3.8,3.8
		c0,2-1.7,3.7-3.8,3.7c-2.1,0-3.8-1.7-3.8-3.7C681.7,134.1,683.3,132.4,685.4,132.4z M685.4,138.4c1.2,0,2.2-1,2.2-2.2
		c0-1.2-1-2.2-2.2-2.2c-1.2,0-2.1,1-2.1,2.2C683.3,137.4,684.2,138.4,685.4,138.4z"/>
	<path class="st6" d="M699.9,137.9h4.2v-13.9c0-0.5,0-1,0-1h-0.1c0,0-0.2,0.4-0.9,1.1l-2,2l-1.2-1.2l4.3-4.2h1.8v17.2h4.1v1.7h-10.2
		V137.9z"/>
	<path class="st6" d="M712.8,137.4h2.1v2.1h-2.1V137.4z"/>
	<path class="st6" d="M719.4,135.9c0,0,1.4,2.2,4.4,2.2c2.7,0,4.7-1.9,4.7-4.4c0-2.6-2.2-4.4-4.9-4.4c-2.1,0-3.6,1-3.6,1l-1-0.4
		l0.8-7.6c0.1-1.2,0.5-1.6,1.6-1.6h6.2c1.1,0,1.6,0.5,1.6,1.6v1.9h-1.7V123c0-0.4-0.2-0.6-0.6-0.6h-4.8c-0.4,0-0.5,0.2-0.6,0.6
		l-0.5,4.3c-0.1,0.7-0.2,1.1-0.2,1.1h0.1c0,0,1.2-0.7,2.8-0.7c3.8,0,6.6,2.7,6.6,6.1c0,3.4-2.8,6.1-6.6,6.1c-3.8,0-5.6-2.7-5.6-2.7
		L719.4,135.9z"/>
	<path class="st6" d="M734.9,123c0-0.4-0.2-0.6-0.6-0.6h-1.2v-1.7h2c1.2,0,1.6,0.5,1.6,1.6v15c0,0.4,0.2,0.6,0.6,0.6h6.3
		c0.4,0,0.6-0.2,0.6-0.6v-1.3h1.8v1.9c0,1.2-0.5,1.6-1.6,1.6h-7.8c-1.2,0-1.6-0.5-1.6-1.6V123z"/>
	<path class="st6" d="M654.1,153.1H653v-1h1.1v-0.3c0-3,2.1-3.3,3.1-3.3c0.3,0,0.6,0,0.6,0v1.1c0,0-0.2,0-0.4,0c-0.7,0-2,0.3-2,2.3
		v0.3h2.3v1h-2.3v8h-1.2V153.1z"/>
	<path class="st6" d="M661.3,153.5c0-0.3-0.1-0.4-0.4-0.4h-0.8v-1.1h1.3c0.8,0,1.1,0.3,1.1,1v0.6c0,0.4,0,0.7,0,0.7h0
		c0.4-1.4,1.4-2.4,2.8-2.4c0.3,0,0.5,0.1,0.5,0.1v1.2c0,0-0.2,0-0.4,0c-1.3,0-2.2,1-2.6,2.3c-0.2,0.6-0.3,1.2-0.3,1.8v3.8h-1.2
		V153.5z"/>
	<path class="st6" d="M669.7,153.5c0-0.3-0.1-0.4-0.4-0.4h-0.8v-1.1h1.3c0.8,0,1.1,0.3,1.1,1.1v6.5c0,0.3,0.1,0.4,0.4,0.4h0.8v1.1
		h-1.3c-0.8,0-1.1-0.3-1.1-1.1V153.5z M669.7,148.5h1.2v1.5h-1.2V148.5z"/>
	<path class="st6" d="M675,160.3l5.1-6.3c0.3-0.4,0.7-0.8,0.7-0.8v0c0,0-0.3,0-0.9,0h-3.3c-0.3,0-0.4,0.1-0.4,0.4v0.7h-1.1v-1.1
		c0-0.8,0.3-1.1,1.1-1.1h6.2v0.8l-5,6.3c-0.4,0.4-0.8,0.8-0.8,0.8v0c0,0,0.3,0,0.9,0h3.7c0.3,0,0.4-0.1,0.4-0.4v-0.7h1.1v1.1
		c0,0.8-0.3,1.1-1.1,1.1H675V160.3z"/>
	<path class="st6" d="M685.8,160.3l5.1-6.3c0.3-0.4,0.7-0.8,0.7-0.8v0c0,0-0.3,0-0.9,0h-3.3c-0.3,0-0.4,0.1-0.4,0.4v0.7h-1.1v-1.1
		c0-0.8,0.3-1.1,1.1-1.1h6.2v0.8l-5,6.3c-0.4,0.4-0.8,0.8-0.8,0.8v0c0,0,0.3,0,0.9,0h3.7c0.3,0,0.4-0.1,0.4-0.4v-0.7h1.1v1.1
		c0,0.8-0.3,1.1-1.1,1.1h-6.7V160.3z"/>
	<path class="st6" d="M702,155.5h0.5v-0.1c0-1.9-0.7-2.5-2.3-2.5c-0.4,0-1.8,0.1-1.8,0.8v0.6h-1.2v-0.9c0-1.3,2.1-1.5,2.9-1.5
		c2.8,0,3.5,1.5,3.5,3.5v4.3c0,0.3,0.1,0.4,0.4,0.4h0.8v1.1h-1.2c-0.8,0-1.1-0.3-1.1-1.1c0-0.4,0-0.7,0-0.7h0c0,0-0.7,2-3,2
		c-1.5,0-3.1-0.9-3.1-2.7C696.5,155.6,700.5,155.5,702,155.5z M699.8,160.2c1.7,0,2.8-1.8,2.8-3.3v-0.4H702c-1.4,0-4.2,0-4.2,2.1
		C697.8,159.4,698.4,160.2,699.8,160.2z"/>
	<path class="st6" d="M708.6,153.5c0-0.3-0.1-0.4-0.4-0.4h-0.8v-1.1h1.3c0.8,0,1.1,0.3,1.1,1v0.4c0,0.4,0,0.6,0,0.6h0
		c0.3-0.8,1.5-2.3,3.6-2.3c2.2,0,3,1.3,3,3.5v4.3c0,0.3,0.1,0.4,0.4,0.4h0.8v1.1h-1.3c-0.8,0-1.1-0.3-1.1-1.1v-4.3
		c0-1.4-0.2-2.7-2-2.7c-1.5,0-2.9,1.1-3.3,2.5c-0.1,0.4-0.1,0.8-0.1,1.2v4.3h-1.2V153.5z"/>
	<path class="st6" d="M721.4,153.1h-1.2v-1h1.2v-2.5h1.2v2.5h2.3v1h-2.3v4.6c0,2.1,1.3,2.4,2,2.4c0.3,0,0.4,0,0.4,0v1.1
		c0,0-0.2,0-0.5,0c-1,0-3.1-0.3-3.1-3.3V153.1z"/>
	<path class="st6" d="M732.5,151.8c2.5,0,3.8,1.9,3.8,4.2c0,0.2,0,0.6,0,0.6h-6.9c0,2.3,1.6,3.6,3.5,3.6c1.6,0,2.7-1.1,2.7-1.1
		l0.6,0.9c0,0-1.3,1.3-3.3,1.3c-2.7,0-4.7-1.9-4.7-4.7C728,153.6,730.1,151.8,732.5,151.8z M735,155.6c-0.1-1.9-1.2-2.8-2.5-2.8
		c-1.5,0-2.8,1-3.1,2.8H735z"/>
</g>
<g>
	<path class="st6" d="M587.7,299.5h4.5v-14.8c0-0.6,0-1.1,0-1.1h-0.1c0,0-0.2,0.4-1,1.2l-2.1,2.1l-1.3-1.3l4.6-4.5h1.9v18.4h4.4v1.8
		h-10.9V299.5z"/>
	<path class="st6" d="M600.8,291.2c0-5.8,1.7-10.4,6.9-10.4s7,4.6,7,10.4c0,5.8-1.7,10.4-7,10.4S600.8,297,600.8,291.2z
		 M612.6,291.2c0-4.8-1.1-8.5-4.9-8.5c-3.8,0-4.9,3.8-4.9,8.5c0,4.8,1.1,8.6,4.9,8.6C611.5,299.8,612.6,296,612.6,291.2z"/>
	<path class="st6" d="M618,291.2c0-5.8,1.7-10.4,6.9-10.4s7,4.6,7,10.4c0,5.8-1.7,10.4-7,10.4S618,297,618,291.2z M629.9,291.2
		c0-4.8-1.1-8.5-4.9-8.5c-3.8,0-4.9,3.8-4.9,8.5c0,4.8,1.1,8.6,4.9,8.6C628.8,299.8,629.9,296,629.9,291.2z"/>
	<path class="st6" d="M635.4,284.8c0-2.2,1.8-4,4-4c2.2,0,4,1.8,4,4c0,2.2-1.8,4-4,4C637.2,288.7,635.4,287,635.4,284.8z
		 M650.9,281.1h2l-15.3,20.1h-2.1L650.9,281.1z M641.7,284.8c0-1.3-1-2.4-2.3-2.4c-1.3,0-2.3,1.1-2.3,2.4c0,1.3,1,2.4,2.3,2.4
		C640.7,287.1,641.7,286.1,641.7,284.8z M649.1,293.6c2.2,0,4,1.8,4,4c0,2.2-1.8,4-4,4c-2.2,0-4-1.8-4-4
		C645.1,295.5,646.8,293.6,649.1,293.6z M649.1,300c1.3,0,2.4-1.1,2.4-2.4c0-1.3-1-2.4-2.4-2.4c-1.3,0-2.3,1.1-2.3,2.4
		C646.8,298.9,647.8,300,649.1,300z"/>
	<path class="st6" d="M664.5,299.5h4.5v-14.8c0-0.6,0-1.1,0-1.1H669c0,0-0.2,0.4-1,1.2l-2.1,2.1l-1.3-1.3l4.6-4.5h1.9v18.4h4.4v1.8
		h-10.9V299.5z"/>
	<path class="st6" d="M678.3,299h2.2v2.3h-2.2V299z"/>
	<path class="st6" d="M683.6,291.2c0-5.8,1.7-10.4,6.9-10.4c5.2,0,7,4.6,7,10.4c0,5.8-1.7,10.4-7,10.4
		C685.3,301.6,683.6,297,683.6,291.2z M695.4,291.2c0-4.8-1.1-8.5-4.9-8.5c-3.8,0-4.9,3.8-4.9,8.5c0,4.8,1.1,8.6,4.9,8.6
		C694.4,299.8,695.4,296,695.4,291.2z"/>
	<path class="st6" d="M702.2,283.5c0-0.4-0.2-0.6-0.6-0.6h-1.2v-1.8h2.1c1.2,0,1.7,0.5,1.7,1.7v16c0,0.4,0.2,0.6,0.6,0.6h6.7
		c0.4,0,0.6-0.2,0.6-0.6v-1.3h1.9v2c0,1.2-0.5,1.7-1.7,1.7H704c-1.2,0-1.7-0.5-1.7-1.7V283.5z"/>
	<path class="st6" d="M616.6,312.4c0-0.3-0.2-0.4-0.4-0.4h-0.8v-1.2h1.4c0.8,0,1.2,0.3,1.2,1.2v10.7c0,0.3,0.2,0.4,0.4,0.4h4.5
		c0.3,0,0.4-0.1,0.4-0.4v-0.9h1.3v1.3c0,0.8-0.3,1.2-1.2,1.2h-5.6c-0.8,0-1.2-0.3-1.2-1.2V312.4z"/>
	<path class="st6" d="M633.2,318.3h0.5v-0.1c0-2-0.7-2.7-2.5-2.7c-0.5,0-1.9,0.1-1.9,0.8v0.6h-1.2V316c0-1.3,2.3-1.6,3.1-1.6
		c3,0,3.8,1.6,3.8,3.7v4.6c0,0.3,0.2,0.4,0.4,0.4h0.8v1.1h-1.3c-0.8,0-1.1-0.4-1.1-1.1c0-0.4,0-0.7,0-0.7h0c0,0-0.8,2.1-3.2,2.1
		c-1.6,0-3.3-0.9-3.3-2.8C627.3,318.4,631.5,318.3,633.2,318.3z M630.8,323.3c1.8,0,2.9-1.9,2.9-3.6v-0.4h-0.6c-1.5,0-4.5,0-4.5,2.2
		C628.6,322.4,629.4,323.3,630.8,323.3z"/>
	<path class="st6" d="M640.6,312.4c0-0.3-0.2-0.4-0.4-0.4h-0.8v-1.2h1.4c0.8,0,1.2,0.3,1.2,1.2v10.7c0,0.3,0.2,0.4,0.4,0.4h4.5
		c0.3,0,0.4-0.1,0.4-0.4v-0.9h1.3v1.3c0,0.8-0.3,1.2-1.2,1.2h-5.6c-0.8,0-1.2-0.3-1.2-1.2V312.4z"/>
	<path class="st6" d="M652.4,316.1c0-0.3-0.2-0.4-0.4-0.4h-0.8v-1.1h1.4c0.8,0,1.2,0.3,1.2,1.2v6.9c0,0.3,0.2,0.4,0.4,0.4h0.8v1.1
		h-1.4c-0.8,0-1.2-0.3-1.2-1.2V316.1z M652.3,310.8h1.3v1.6h-1.3V310.8z"/>
	<path class="st6" d="M659.1,315.7h-1.3v-1.1h1.3v-2.7h1.3v2.7h2.4v1.1h-2.4v4.9c0,2.3,1.4,2.5,2.2,2.5c0.3,0,0.4,0,0.4,0v1.2
		c0,0-0.2,0-0.6,0c-1.1,0-3.3-0.4-3.3-3.6V315.7z"/>
	<path class="st6" d="M667.3,316.1c0-0.3-0.2-0.4-0.4-0.4h-0.8v-1.1h1.3c0.8,0,1.2,0.3,1.2,1.1v0.6c0,0.4,0,0.7,0,0.7h0
		c0.5-1.5,1.5-2.6,3-2.6c0.3,0,0.5,0.1,0.5,0.1v1.3c0,0-0.2,0-0.5,0c-1.4,0-2.4,1.1-2.8,2.5c-0.2,0.6-0.3,1.3-0.3,1.9v4.1h-1.3
		V316.1z"/>
	<path class="st6" d="M679.9,314.4c2.8,0,5.1,2.1,5.1,5c0,2.9-2.3,5.1-5.1,5.1c-2.8,0-5.1-2.2-5.1-5.1
		C674.8,316.5,677.1,314.4,679.9,314.4z M679.9,323.3c2,0,3.7-1.7,3.7-3.9c0-2.2-1.7-3.8-3.7-3.8c-2.1,0-3.7,1.6-3.7,3.8
		C676.2,321.6,677.8,323.3,679.9,323.3z"/>
</g>
</svg>
