<?xml version="1.0" encoding="utf-8"?>
<!-- Generator: Adobe Illustrator 22.0.0, SVG Export Plug-In . SVG Version: 6.00 Build 0)  -->
<svg version="1.1" baseProfile="basic" id="Livello_1"
	 xmlns="http://www.w3.org/2000/svg" xmlns:xlink="http://www.w3.org/1999/xlink" x="0px" y="0px" viewBox="0 0 1047 531"
	 xml:space="preserve">
<style type="text/css">
	.st0{fill:#8EA52F;}
	.st1{fill:#00295A;}
	.st2{fill:#FFFFFF;}
</style>
<g>
	<g>
		<path class="st0" d="M827,62.7c62.1,0,112.4,50.3,112.4,112.4S889.1,287.5,827,287.5s-112.4-50.3-112.4-112.4
			C714.6,113.1,764.9,62.7,827,62.7z"/>
	</g>
	<g>
		<g>
			<path class="st1" d="M756.6,157H775v4h-18.4V157z"/>
			<path class="st1" d="M784.3,168.5c0,0,3.4,5.4,10.5,5.4c6.5,0,11.3-4.6,11.3-10.6c0-6.3-5.2-10.7-11.8-10.7
				c-5.1,0-8.7,2.5-8.7,2.5l-2.3-1l1.9-18.3c0.3-2.8,1.2-3.9,3.9-3.9H804c2.7,0,3.9,1.2,3.9,3.9v4.5h-4.2v-3c0-1-0.5-1.4-1.4-1.4
				h-11.5c-0.9,0-1.3,0.5-1.4,1.4l-1.2,10.3c-0.2,1.6-0.4,2.6-0.4,2.6h0.1c0,0,2.8-1.7,6.9-1.7c9.3,0,15.9,6.6,15.9,14.8
				c0,8.1-6.7,14.8-16,14.8c-9.1,0-13.4-6.5-13.4-6.5L784.3,168.5z"/>
			<path class="st1" d="M818.1,154.6c0-13.1,3.8-23.5,15.7-23.5s15.7,10.4,15.7,23.5c0,13.2-3.9,23.5-15.7,23.5
				S818.1,167.8,818.1,154.6z M844.9,154.6c0-10.8-2.5-19.3-11.1-19.3s-11.1,8.5-11.1,19.3c0,10.9,2.5,19.3,11.1,19.3
				C842.4,174,844.9,165.5,844.9,154.6z"/>
			<path class="st1" d="M857.3,140.1c0-4.9,4-9,9.1-9c5,0,9.1,4.1,9.1,9c0,5-4.1,9-9.1,9C861.3,149.1,857.3,145.1,857.3,140.1z
				 M892.3,131.9h4.6l-34.6,45.5h-4.7L892.3,131.9z M871.6,140.1c0-2.9-2.3-5.4-5.3-5.4s-5.2,2.5-5.2,5.4c0,3,2.3,5.4,5.2,5.4
				C869.3,145.5,871.6,143.1,871.6,140.1z M888.2,160.2c5,0,9.1,4.1,9.1,9.1c0,4.9-4.1,8.9-9.1,8.9s-9.1-4-9.1-8.9
				C879.1,164.3,883.1,160.2,888.2,160.2z M888.2,174.5c3,0,5.3-2.4,5.3-5.4c0-2.9-2.3-5.4-5.3-5.4s-5.2,2.5-5.2,5.4
				C883,172.1,885.2,174.5,888.2,174.5z"/>
		</g>
		<g>
			<path class="st2" d="M779.7,203.9c3.5,0,4.7,2.7,4.7,2.7h0.1c0,0-0.1-0.5-0.1-1.1v-4.7c0-0.4-0.2-0.6-0.6-0.6h-1.2v-1.7h2
				c1.2,0,1.8,0.5,1.8,1.8v16.1c0,0.4,0.2,0.6,0.6,0.6h1.2v1.7h-2c-1.2,0-1.7-0.5-1.7-1.6c0-0.5,0.1-0.9,0.1-0.9h-0.1
				c0,0-1.2,2.9-5,2.9c-3.9,0-6.3-3.1-6.3-7.6C773.2,206.9,775.9,203.9,779.7,203.9z M784.4,211.5c0-2.9-1.5-5.8-4.6-5.8
				c-2.6,0-4.7,2.2-4.7,5.8s1.9,5.8,4.6,5.8C782.2,217.3,784.4,215.6,784.4,211.5z"/>
			<path class="st2" d="M798.9,209.8h0.8v-0.2c0-3-1.1-4.1-3.7-4.1c-0.7,0-2.8,0.2-2.8,1.3v0.9h-1.9v-1.4c0-2,3.5-2.4,4.7-2.4
				c4.6,0,5.7,2.4,5.7,5.5v6.9c0,0.4,0.2,0.6,0.6,0.6h1.2v1.7h-2c-1.2,0-1.7-0.5-1.7-1.7c0-0.6,0-1.1,0-1.1h-0.1
				c0,0-1.2,3.1-4.8,3.1c-2.4,0-4.9-1.4-4.9-4.3C790,210,796.4,209.8,798.9,209.8z M795.2,217.4c2.8,0,4.4-2.9,4.4-5.4v-0.7h-0.8
				c-2.3,0-6.8,0.1-6.8,3.3C792,216,793.1,217.4,795.2,217.4z"/>
			<path class="st2" d="M806.5,200.9c0-0.4-0.2-0.6-0.6-0.6h-1.2v-1.7h2c1.2,0,1.8,0.5,1.8,1.8v16.1c0,0.4,0.2,0.6,0.6,0.6h1.2v1.7
				h-2c-1.2,0-1.8-0.5-1.8-1.8V200.9z"/>
			<path class="st2" d="M830.8,203.9c0-2.2-1.6-3.8-4.1-3.8c-2,0-3.6,1-3.6,2.2v0.9h-1.9v-1.5c0-2.6,3.5-3.5,5.5-3.5
				c3.9,0,6.2,2.5,6.2,5.7c0,7.1-10.7,6.9-10.7,12.5c0,0.4,0.2,0.6,0.7,0.6h8.5c0.4,0,0.6-0.2,0.6-0.6V215h1.9v2
				c0,1.2-0.5,1.8-1.8,1.8H822c-1.4,0-1.8-0.6-1.8-2C820.1,209.3,830.8,209.9,830.8,203.9z"/>
			<path class="st2" d="M836.7,208.6c0-5.8,1.7-10.4,7-10.4s7,4.6,7,10.4c0,5.9-1.7,10.5-7,10.5S836.7,214.5,836.7,208.6z
				 M848.6,208.6c0-4.8-1.1-8.6-4.9-8.6c-3.8,0-4.9,3.8-4.9,8.6s1.1,8.6,4.9,8.6C847.5,217.2,848.6,213.4,848.6,208.6z"/>
			<path class="st2" d="M853.7,217h4.5v-14.8c0-0.6,0-1.1,0-1.1h-0.1c0,0-0.2,0.4-1,1.2l-2.2,2.2l-1.3-1.3l4.6-4.5h1.9V217h4.4v1.8
				h-11V217H853.7z"/>
			<path class="st2" d="M866.8,208.6c0-5.8,1.7-10.4,7-10.4s7,4.6,7,10.4c0,5.9-1.7,10.5-7,10.5S866.8,214.5,866.8,208.6z
				 M878.7,208.6c0-4.8-1.1-8.6-4.9-8.6c-3.8,0-4.9,3.8-4.9,8.6s1.1,8.6,4.9,8.6C877.6,217.2,878.7,213.4,878.7,208.6z"/>
		</g>
	</g>
</g>
</svg>
