<?xml version="1.0" encoding="utf-8"?>
<!-- Generator: Adobe Illustrator 22.0.0, SVG Export Plug-In . SVG Version: 6.00 Build 0)  -->
<svg version="1.1" baseProfile="basic" id="Livello_1"
	 xmlns="http://www.w3.org/2000/svg" xmlns:xlink="http://www.w3.org/1999/xlink" x="0px" y="0px" viewBox="0 0 1047 531"
	 xml:space="preserve">
<style type="text/css">
	.st0{fill:none;stroke:#8EA52F;stroke-linecap:round;stroke-miterlimit:10;stroke-dasharray:0,5;}
	.st1{fill:none;stroke:#8EA52F;stroke-miterlimit:10;}
	.st2{fill:#4E5594;}
</style>
<path class="st0" d="M108,98.2h852.1"/>
<path class="st0" d="M108,161.1h852.1"/>
<path class="st0" d="M108,223.9h852.1"/>
<path class="st0" d="M108,287.5h852.1"/>
<path class="st0" d="M108,350.3h852.1"/>
<path class="st0" d="M108,413.2h852.1"/>
<path class="st1" d="M1001.5,468.7h-951c-3.7,0-6.7-3-6.7-6.7V46.7"/>
<g>
	<path class="st2" d="M323.7,491.4c2.8,0,4.2,1.5,4.2,1.5l-1,1.2c0,0-1.3-1.1-3.3-1.1c-2.4,0-4.3,1.9-4.3,4.6c0,2.8,1.9,4.6,4.3,4.6
		c2.1,0,3.4-1.5,3.4-1.5v-1.2c0-0.2-0.1-0.4-0.4-0.4H326v-1.4h1.6c0.8,0,1.1,0.3,1.1,1.1v4.8h-1.5v-0.7c0-0.3,0-0.5,0-0.5l0,0
		c0,0-1.3,1.4-3.7,1.4c-3.2,0-5.8-2.5-5.8-6.2C317.7,494.1,320.3,491.4,323.7,491.4z"/>
	<path class="st2" d="M331.8,496.7c0-0.3-0.1-0.4-0.4-0.4h-0.7V495h1.6c0.7,0,1.1,0.3,1.1,1v0.5c0,0.3,0,0.6,0,0.6l0,0
		c0.4-1.2,1.4-2.2,2.7-2.2c0.2,0,0.4,0,0.4,0v1.6c0,0-0.2-0.1-0.5-0.1c-1,0-2,0.7-2.4,2c-0.2,0.5-0.2,1-0.2,1.5v3.5h-1.6V496.7z"/>
	<path class="st2" d="M342.8,498.2h0.4v-0.1c0-1.5-0.6-2-1.9-2c-0.4,0-1.4,0.1-1.4,0.7v0.5h-1.5v-0.8c0-1.4,2.1-1.6,2.9-1.6
		c2.8,0,3.5,1.4,3.5,3.3v3.6c0,0.3,0.1,0.4,0.4,0.4h0.7v1.4h-1.5c-0.8,0-1.1-0.4-1.1-1c0-0.3,0-0.5,0-0.5l0,0c0,0-0.7,1.7-2.7,1.7
		c-1.5,0-2.9-0.9-2.9-2.6C337.6,498.3,341.3,498.2,342.8,498.2z M340.9,502.4c1.4,0,2.3-1.4,2.3-2.7v-0.3h-0.4
		c-1.2,0-3.5,0.1-3.5,1.6C339.3,501.7,339.8,502.4,340.9,502.4z"/>
	<path class="st2" d="M348.3,496.7c0-0.3-0.1-0.4-0.4-0.4h-0.7V495h1.6c0.7,0,1.1,0.3,1.1,0.9v0.3c0,0.3,0,0.5,0,0.5l0,0
		c0.4-1,1.6-2,2.9-2c1.4,0,2.3,0.7,2.6,1.9l0,0c0.5-1,1.7-1.9,3-1.9c1.9,0,2.8,1.1,2.8,3.3v3.7c0,0.3,0.1,0.4,0.4,0.4h0.7v1.4h-1.6
		c-0.8,0-1.1-0.3-1.1-1.1v-4c0-1.2-0.2-2.1-1.5-2.1c-1.2,0-2.1,1-2.4,2.2c-0.1,0.4-0.1,0.7-0.1,1.2v3.9H354v-5.1
		c0-1.1-0.2-2.1-1.5-2.1c-1.2,0-2.1,1-2.4,2.3c-0.1,0.3-0.1,0.7-0.1,1.1v3.9h-1.6L348.3,496.7L348.3,496.7z"/>
	<path class="st2" d="M364.7,496.7c0-0.3-0.1-0.4-0.4-0.4h-0.7V495h1.6c0.7,0,1.1,0.3,1.1,0.9v0.3c0,0.3,0,0.5,0,0.5l0,0
		c0.4-1,1.6-2,2.9-2c1.4,0,2.3,0.7,2.6,1.9l0,0c0.5-1,1.7-1.9,3-1.9c1.9,0,2.8,1.1,2.8,3.3v3.7c0,0.3,0.1,0.4,0.4,0.4h0.7v1.4h-1.6
		c-0.8,0-1.1-0.3-1.1-1.1v-4c0-1.2-0.2-2.1-1.5-2.1c-1.2,0-2.1,1-2.4,2.2c-0.1,0.4-0.1,0.7-0.1,1.2v3.9h-1.6v-5.1
		c0-1.1-0.2-2.1-1.5-2.1c-1.2,0-2.1,1-2.4,2.3c-0.1,0.3-0.1,0.7-0.1,1.1v3.9h-1.6L364.7,496.7L364.7,496.7z"/>
	<path class="st2" d="M381.3,496.7c0-0.3-0.1-0.4-0.4-0.4h-0.7V495h1.6c0.8,0,1.1,0.3,1.1,1.1v5.7c0,0.3,0.1,0.4,0.4,0.4h0.7v1.4
		h-1.6c-0.8,0-1.1-0.3-1.1-1.1V496.7z M381.3,491.6h1.5v1.7h-1.5V491.6z"/>
	<path class="st2" d="M394.8,494.7c2,0,2.6,1.3,2.6,1.3l0,0c0,0,0-0.3,0-0.6v-2.1c0-0.3-0.1-0.4-0.4-0.4h-0.7v-1.4h1.6
		c0.8,0,1.1,0.3,1.1,1.1v9c0,0.3,0.1,0.4,0.4,0.4h0.7v1.4h-1.6c-0.7,0-1-0.3-1-0.9c0-0.3,0-0.4,0-0.4l0,0c0,0-0.7,1.6-2.8,1.6
		c-2.3,0-3.8-1.8-3.8-4.5C390.9,496.5,392.5,494.7,394.8,494.7z M397.5,499.2c0-1.5-0.8-3-2.4-3c-1.3,0-2.4,1.1-2.4,3.1
		c0,1.9,1,3,2.4,3C396.3,502.3,397.5,501.4,397.5,499.2z"/>
	<path class="st2" d="M402.7,496.7c0-0.3-0.1-0.4-0.4-0.4h-0.7V495h1.6c0.8,0,1.1,0.3,1.1,1.1v5.7c0,0.3,0.1,0.4,0.4,0.4h0.7v1.4
		h-1.6c-0.8,0-1.1-0.3-1.1-1.1V496.7z M402.7,491.6h1.5v1.7h-1.5V491.6z"/>
	<path class="st2" d="M418.2,491.4c1.6,0,4.5,0.7,4.5,2.6v1.2h-1.6v-0.7c0-1-1.7-1.5-2.9-1.5c-2.4,0-4.2,1.8-4.2,4.5
		c0,2.6,1.9,4.7,4.3,4.7s3.8-1.6,3.8-1.6l0.9,1.2c0,0-1.7,2-4.7,2c-3.6,0-6-2.7-6-6.3C412.3,494,414.8,491.4,418.2,491.4z"/>
	<path class="st2" d="M430.8,491.4c3.4,0,6.1,2.6,6.1,6.1s-2.7,6.2-6.1,6.2s-6.1-2.7-6.1-6.2C424.7,494,427.3,491.4,430.8,491.4z
		 M430.8,502.1c2.4,0,4.4-2,4.4-4.7c0-2.5-2-4.5-4.4-4.5s-4.3,2-4.3,4.5C426.4,500.1,428.4,502.1,430.8,502.1z"/>
	<path class="st2" d="M444.8,494.8c0-1.1-0.8-1.9-2.1-1.9c-1.1,0-1.8,0.5-1.8,1.1v0.5h-1.6v-1c0-1.6,2.1-2.2,3.5-2.2
		c2.2,0,3.7,1.4,3.7,3.4c0,4.1-6,4.2-6,6.9c0,0.2,0.1,0.3,0.4,0.3h4.2c0.2,0,0.4-0.1,0.4-0.4v-0.8h1.6v1.5c0,0.8-0.3,1.1-1.1,1.1
		h-6.1c-0.9,0-1.1-0.4-1.1-1.4C438.8,497.7,444.8,498,444.8,494.8z"/>
	<path class="st2" d="M455.1,496.7c0-0.3-0.1-0.4-0.4-0.4H454V495h1.5c0.8,0,1,0.3,1,0.9c0,0.3,0,0.5,0,0.5l0,0c0,0,0.7-1.5,2.8-1.5
		c2.3,0,3.8,1.8,3.8,4.5s-1.7,4.5-3.9,4.5c-1.9,0-2.6-1.4-2.6-1.4l0,0c0,0,0,0.3,0,0.7v3.8H455v-10.3H455.1z M459.1,502.3
		c1.3,0,2.5-1.1,2.5-3.1c0-1.9-1-3-2.4-3c-1.3,0-2.5,0.9-2.5,3.1C456.7,500.8,457.5,502.3,459.1,502.3z"/>
	<path class="st2" d="M469.4,494.7c2.4,0,3.7,1.8,3.7,4c0,0.2-0.1,0.7-0.1,0.7h-6.2c0.1,1.8,1.4,2.8,2.9,2.8s2.5-1,2.5-1l0.7,1.2
		c0,0-1.3,1.2-3.3,1.2c-2.7,0-4.5-1.9-4.5-4.5C465.1,496.5,467,494.7,469.4,494.7z M471.4,498.2c-0.1-1.4-0.9-2.2-2-2.2
		c-1.2,0-2.3,0.8-2.5,2.2H471.4z"/>
	<path class="st2" d="M475.9,496.7c0-0.3-0.1-0.4-0.4-0.4h-0.7V495h1.6c0.7,0,1.1,0.3,1.1,1v0.5c0,0.3,0,0.6,0,0.6l0,0
		c0.4-1.2,1.4-2.2,2.7-2.2c0.2,0,0.4,0,0.4,0v1.6c0,0-0.2-0.1-0.5-0.1c-1,0-2,0.7-2.4,2c-0.2,0.5-0.2,1-0.2,1.5v3.5h-1.6V496.7z"/>
	<path class="st2" d="M488.3,493.4c0-0.3-0.1-0.4-0.4-0.4h-0.7v-1.4h1.6c0.8,0,1.1,0.3,1.1,1.1v9c0,0.3,0.1,0.4,0.4,0.4h0.7v1.4
		h-1.6c-0.8,0-1.1-0.3-1.1-1.1V493.4z"/>
	<path class="st2" d="M493.6,496.7c0-0.3-0.1-0.4-0.4-0.4h-0.7V495h1.6c0.8,0,1.1,0.3,1.1,1.1v5.7c0,0.3,0.1,0.4,0.4,0.4h0.7v1.4
		h-1.6c-0.8,0-1.1-0.3-1.1-1.1V496.7z M493.7,491.6h1.5v1.7h-1.5V491.6z"/>
	<path class="st2" d="M498.9,496.3h-1.1V495h1.1v-2.3h1.6v2.3h2v1.3h-2v3.9c0,1.7,1.2,1.9,1.8,1.9c0.2,0,0.4,0,0.4,0v1.4
		c0,0-0.2,0-0.6,0c-1.1,0-3.3-0.3-3.3-3.2v-4H498.9z"/>
	<path class="st2" d="M505.5,496.7c0-0.3-0.1-0.4-0.4-0.4h-0.7V495h1.6c0.7,0,1.1,0.3,1.1,1v0.5c0,0.3,0,0.6,0,0.6l0,0
		c0.4-1.2,1.4-2.2,2.7-2.2c0.2,0,0.4,0,0.4,0v1.6c0,0-0.2-0.1-0.5-0.1c-1,0-2,0.7-2.4,2c-0.2,0.5-0.2,1-0.2,1.5v3.5h-1.6V496.7z"/>
	<path class="st2" d="M516.1,494.7c2.5,0,4.6,1.9,4.6,4.4c0,2.6-2.1,4.5-4.6,4.5s-4.6-1.9-4.6-4.5
		C511.5,496.6,513.5,494.7,516.1,494.7z M516.1,502.3c1.6,0,2.9-1.3,2.9-3.1c0-1.8-1.3-3-2.9-3c-1.6,0-2.9,1.3-2.9,3
		C513.2,501,514.5,502.3,516.1,502.3z"/>
	<path class="st2" d="M531.6,494.7c2,0,2.6,1.3,2.6,1.3l0,0c0,0,0-0.3,0-0.6v-2.1c0-0.3-0.1-0.4-0.4-0.4h-0.7v-1.4h1.6
		c0.8,0,1.1,0.3,1.1,1.1v9c0,0.3,0.1,0.4,0.4,0.4h0.7v1.4h-1.6c-0.7,0-1-0.3-1-0.9c0-0.3,0-0.4,0-0.4l0,0c0,0-0.7,1.6-2.8,1.6
		c-2.3,0-3.8-1.8-3.8-4.5C527.8,496.5,529.4,494.7,531.6,494.7z M534.3,499.2c0-1.5-0.8-3-2.4-3c-1.3,0-2.4,1.1-2.4,3.1
		c0,1.9,1,3,2.4,3C533.1,502.3,534.3,501.4,534.3,499.2z"/>
	<path class="st2" d="M539.6,496.7c0-0.3-0.1-0.4-0.4-0.4h-0.7V495h1.6c0.8,0,1.1,0.3,1.1,1.1v5.7c0,0.3,0.1,0.4,0.4,0.4h0.7v1.4
		h-1.6c-0.8,0-1.1-0.3-1.1-1.1V496.7z M539.6,491.6h1.5v1.7h-1.5V491.6z"/>
	<path class="st2" d="M554.3,498.2h0.4v-0.1c0-1.5-0.6-2-1.9-2c-0.4,0-1.4,0.1-1.4,0.7v0.5h-1.5v-0.8c0-1.4,2.1-1.6,2.9-1.6
		c2.8,0,3.5,1.4,3.5,3.3v3.6c0,0.3,0.1,0.4,0.4,0.4h0.7v1.4h-1.5c-0.8,0-1.1-0.4-1.1-1c0-0.3,0-0.5,0-0.5l0,0c0,0-0.7,1.7-2.7,1.7
		c-1.5,0-2.9-0.9-2.9-2.6C549.2,498.3,552.9,498.2,554.3,498.2z M552.4,502.4c1.4,0,2.3-1.4,2.3-2.7v-0.3h-0.4
		c-1.2,0-3.5,0.1-3.5,1.6C550.8,501.7,551.4,502.4,552.4,502.4z"/>
	<path class="st2" d="M563.6,494.7c1,0,3.1,0.4,3.1,1.9v0.9h-1.5V497c0-0.6-1-0.9-1.6-0.9c-1.7,0-2.9,1.2-2.9,3c0,1.9,1.4,3,3,3
		s2.6-1.2,2.6-1.2l0.7,1.2c0,0-1.2,1.5-3.5,1.5c-2.7,0-4.5-1.9-4.5-4.5C559,496.7,560.8,494.7,563.6,494.7z"/>
	<path class="st2" d="M572.5,494.7c2,0,2.7,1.4,2.7,1.4l0,0c0,0,0-0.2,0-0.4c0-0.5,0.3-0.8,1-0.8h1.5v1.4H577
		c-0.2,0-0.4,0.1-0.4,0.4v10.1H575V503c0-0.4,0-0.7,0-0.7l0,0c0,0-0.7,1.4-2.7,1.4c-2.3,0-3.7-1.8-3.7-4.5
		C568.7,496.5,570.3,494.7,572.5,494.7z M575.2,499.2c0-1.5-0.8-3-2.4-3c-1.3,0-2.5,1.1-2.5,3.1c0,1.9,1,3,2.4,3
		C574,502.3,575.2,501.4,575.2,499.2z"/>
	<path class="st2" d="M580.3,496.7c0-0.3-0.1-0.4-0.4-0.4h-0.7V495h1.6c0.8,0,1.1,0.3,1.1,1v4c0,1.2,0.2,2.1,1.6,2.1
		c1.8,0,2.8-1.5,2.8-3.2v-4h1.6v6.8c0,0.3,0.1,0.4,0.4,0.4h0.7v1.4h-1.6c-0.7,0-1.1-0.3-1.1-0.9v-0.3c0-0.3,0-0.5,0-0.5l0,0
		c-0.4,0.8-1.4,2-3.1,2c-1.9,0-2.9-1-2.9-3.3L580.3,496.7L580.3,496.7z"/>
	<path class="st2" d="M595.8,498.2h0.4v-0.1c0-1.5-0.6-2-1.9-2c-0.4,0-1.4,0.1-1.4,0.7v0.5h-1.5v-0.8c0-1.4,2.1-1.6,2.9-1.6
		c2.8,0,3.5,1.4,3.5,3.3v3.6c0,0.3,0.1,0.4,0.4,0.4h0.7v1.4h-1.5c-0.8,0-1.1-0.4-1.1-1c0-0.3,0-0.5,0-0.5l0,0c0,0-0.7,1.7-2.7,1.7
		c-1.5,0-2.9-0.9-2.9-2.6C590.7,498.3,594.4,498.2,595.8,498.2z M593.9,502.4c1.4,0,2.3-1.4,2.3-2.7v-0.3h-0.4
		c-1.2,0-3.5,0.1-3.5,1.6C592.3,501.7,592.9,502.4,593.9,502.4z"/>
	<path class="st2" d="M606.6,496.7c0-0.3-0.1-0.4-0.4-0.4h-0.7V495h1.6c0.8,0,1.1,0.3,1.1,1.1v5.7c0,0.3,0.1,0.4,0.4,0.4h0.7v1.4
		h-1.6c-0.8,0-1.1-0.3-1.1-1.1V496.7z M606.7,491.6h1.5v1.7h-1.5V491.6z"/>
	<path class="st2" d="M611.8,496.7c0-0.3-0.1-0.4-0.4-0.4h-0.7V495h1.6c0.7,0,1.1,0.3,1.1,0.9v0.3c0,0.3,0,0.5,0,0.5l0,0
		c0.4-1,1.6-2,2.9-2c1.4,0,2.3,0.7,2.6,1.9l0,0c0.5-1,1.7-1.9,3-1.9c1.9,0,2.8,1.1,2.8,3.3v3.7c0,0.3,0.1,0.4,0.4,0.4h0.7v1.4h-1.6
		c-0.8,0-1.1-0.3-1.1-1.1v-4c0-1.2-0.2-2.1-1.5-2.1c-1.2,0-2.1,1-2.4,2.2c-0.1,0.4-0.1,0.7-0.1,1.2v3.9h-1.6v-5.1
		c0-1.1-0.2-2.1-1.5-2.1c-1.2,0-2.1,1-2.4,2.3c-0.1,0.3-0.1,0.7-0.1,1.1v3.9h-1.6v-7H611.8z"/>
	<path class="st2" d="M628.2,493.4c0-0.3-0.1-0.4-0.4-0.4h-0.7v-1.4h1.6c0.8,0,1.1,0.3,1.1,1.1v2.8c0,0.4,0,0.7,0,0.7l0,0
		c0,0,0.7-1.4,2.7-1.4c2.3,0,3.7,1.8,3.7,4.5s-1.6,4.5-3.9,4.5c-1.9,0-2.7-1.4-2.7-1.4l0,0c0,0,0,0.3,0,0.6v0.6H628v-10.2H628.2z
		 M632.3,502.3c1.3,0,2.5-1.1,2.5-3.1c0-1.9-1-3-2.4-3c-1.3,0-2.4,0.9-2.4,3.1C629.8,500.8,630.6,502.3,632.3,502.3z"/>
	<path class="st2" d="M642.9,494.7c2.5,0,4.6,1.9,4.6,4.4c0,2.6-2.1,4.5-4.6,4.5s-4.6-1.9-4.6-4.5
		C638.3,496.6,640.3,494.7,642.9,494.7z M642.9,502.3c1.6,0,2.9-1.3,2.9-3.1c0-1.8-1.3-3-2.9-3c-1.6,0-2.9,1.3-2.9,3
		C639.9,501,641.3,502.3,642.9,502.3z"/>
	<path class="st2" d="M650.2,496.3h-1.1V495h1.1v-2.3h1.6v2.3h2v1.3h-2v3.9c0,1.7,1.2,1.9,1.8,1.9c0.2,0,0.4,0,0.4,0v1.4
		c0,0-0.2,0-0.6,0c-1.1,0-3.3-0.3-3.3-3.2L650.2,496.3L650.2,496.3z"/>
	<path class="st2" d="M656.9,496.3h-1.1V495h1.1v-2.3h1.6v2.3h2v1.3h-2v3.9c0,1.7,1.2,1.9,1.8,1.9c0.2,0,0.4,0,0.4,0v1.4
		c0,0-0.2,0-0.6,0c-1.1,0-3.3-0.3-3.3-3.2L656.9,496.3L656.9,496.3z"/>
	<path class="st2" d="M663.5,496.7c0-0.3-0.1-0.4-0.4-0.4h-0.7V495h1.6c0.8,0,1.1,0.3,1.1,1.1v5.7c0,0.3,0.1,0.4,0.4,0.4h0.7v1.4
		h-1.6c-0.8,0-1.1-0.3-1.1-1.1V496.7z M663.5,491.6h1.5v1.7h-1.5V491.6z"/>
	<path class="st2" d="M671.6,494.7c2.1,0,2.7,1.3,2.7,1.3l0,0c0,0,0-0.1,0-0.3c0-0.5,0.3-0.9,0.9-0.9h1.6v1.4h-0.7
		c-0.2,0-0.4,0.1-0.4,0.3v6.4c0,2.8-2.1,3.9-4.3,3.9c-1,0-2.1-0.3-2.9-0.7l0.6-1.3c0,0,1,0.6,2.3,0.6c1.5,0,2.7-0.7,2.7-2.4v-0.6
		c0-0.3,0-0.5,0-0.5l0,0c-0.5,0.8-1.3,1.3-2.5,1.3c-2.4,0-3.8-1.9-3.8-4.4C667.9,496.6,669.3,494.7,671.6,494.7z M674.3,499
		c0-2.2-1.1-2.9-2.4-2.9c-1.5,0-2.3,1.1-2.3,2.8c0,1.8,0.9,3,2.5,3C673.2,502,674.3,501.3,674.3,499z"/>
	<path class="st2" d="M679.4,493.4c0-0.3-0.1-0.4-0.4-0.4h-0.7v-1.4h1.6c0.8,0,1.1,0.3,1.1,1.1v9c0,0.3,0.1,0.4,0.4,0.4h0.7v1.4
		h-1.6c-0.8,0-1.1-0.3-1.1-1.1V493.4z"/>
	<path class="st2" d="M684.7,496.7c0-0.3-0.1-0.4-0.4-0.4h-0.7V495h1.6c0.8,0,1.1,0.3,1.1,1.1v5.7c0,0.3,0.1,0.4,0.4,0.4h0.7v1.4
		h-1.6c-0.8,0-1.1-0.3-1.1-1.1V496.7z M684.7,491.6h1.5v1.7h-1.5V491.6z"/>
	<path class="st2" d="M694.2,498.2h0.4v-0.1c0-1.5-0.6-2-1.9-2c-0.4,0-1.4,0.1-1.4,0.7v0.5h-1.5v-0.8c0-1.4,2.1-1.6,2.9-1.6
		c2.8,0,3.5,1.4,3.5,3.3v3.6c0,0.3,0.1,0.4,0.4,0.4h0.7v1.4h-1.5c-0.8,0-1.1-0.4-1.1-1c0-0.3,0-0.5,0-0.5l0,0c0,0-0.7,1.7-2.7,1.7
		c-1.5,0-2.9-0.9-2.9-2.6C689.1,498.3,692.8,498.2,694.2,498.2z M692.4,502.4c1.4,0,2.3-1.4,2.3-2.7v-0.3h-0.4
		c-1.2,0-3.5,0.1-3.5,1.6C690.7,501.7,691.3,502.4,692.4,502.4z"/>
	<path class="st2" d="M699.8,496.3h-1.1V495h1.1v-2.3h1.6v2.3h2v1.3h-2v3.9c0,1.7,1.2,1.9,1.8,1.9c0.2,0,0.4,0,0.4,0v1.4
		c0,0-0.2,0-0.6,0c-1.1,0-3.3-0.3-3.3-3.2L699.8,496.3L699.8,496.3z"/>
	<path class="st2" d="M710,494.7c2.5,0,4.6,1.9,4.6,4.4c0,2.6-2.1,4.5-4.6,4.5s-4.6-1.9-4.6-4.5C705.4,496.6,707.4,494.7,710,494.7z
		 M710,502.3c1.6,0,2.9-1.3,2.9-3.1c0-1.8-1.3-3-2.9-3c-1.6,0-2.9,1.3-2.9,3C707,501,708.4,502.3,710,502.3z"/>
	<path class="st2" d="M716.8,501.7h1.7v1.7h-1.7V501.7z"/>
</g>
<g>
	<path class="st2" d="M141.2,437.8c0-1.2-0.9-2-2.2-2c-1.1,0-1.9,0.6-1.9,1.2v0.5h-1.6v-1.1c0-1.6,2.2-2.3,3.6-2.3
		c2.3,0,3.9,1.5,3.9,3.6c0,4.3-6.3,4.4-6.3,7.3c0,0.2,0.1,0.3,0.4,0.3h4.4c0.2,0,0.4-0.1,0.4-0.4v-0.8h1.6v1.6
		c0,0.8-0.3,1.1-1.1,1.1H136c-1,0-1.2-0.4-1.2-1.4C134.9,440.9,141.2,441.2,141.2,437.8z"/>
	<path class="st2" d="M145.9,440.7c0-3.6,1.1-6.5,4.4-6.5c3.3,0,4.4,2.9,4.4,6.5s-1.1,6.5-4.4,6.5S145.9,444.3,145.9,440.7z
		 M153,440.7c0-2.7-0.6-4.8-2.6-4.8c-2.1,0-2.6,2.1-2.6,4.8c0,2.7,0.6,4.9,2.6,4.9S153,443.4,153,440.7z"/>
	<path class="st2" d="M157.3,445.4h2.7v-8.1c0-0.4,0-0.8,0-0.8l0,0c0,0-0.1,0.3-0.6,0.7l-1.2,1.2l-1.1-1.1l3-2.9h1.6v11h2.7v1.5
		h-7.2v-1.5H157.3z"/>
	<path class="st2" d="M166.5,440.7c0-3.6,1.1-6.5,4.4-6.5c3.3,0,4.4,2.9,4.4,6.5s-1.1,6.5-4.4,6.5S166.5,444.3,166.5,440.7z
		 M173.5,440.7c0-2.7-0.6-4.8-2.6-4.8c-2.1,0-2.6,2.1-2.6,4.8c0,2.7,0.6,4.9,2.6,4.9C173,445.6,173.5,443.4,173.5,440.7z"/>
</g>
<g>
	<path class="st2" d="M71.5,101c0,0,1.3,1.4,3.2,1.4c1.4,0,2.5-1,2.5-2.3c0-1.4-1.3-2.3-2.7-2.3h-0.9l-0.4-1l2.6-3.3
		c0.4-0.5,0.7-0.8,0.7-0.8l0,0c0,0-0.4,0.1-1.1,0.1H73c-0.3,0-0.4,0.1-0.4,0.4V94h-1.7v-1.6c0-0.8,0.3-1.2,1.1-1.2h6.7v1.1l-3.3,4
		c1.7,0.2,3.6,1.3,3.6,3.7c0,2.1-1.7,4-4.4,4c-2.6,0-4.2-1.8-4.2-1.8L71.5,101z"/>
	<path class="st2" d="M82.4,101.1c0,0,1,1.4,3,1.4c1.6,0,2.7-1.1,2.7-2.5c0-1.6-1.4-2.6-3-2.6c-1.4,0-2.4,0.6-2.4,0.6L82,97.6
		l0.5-5.3c0.1-0.8,0.3-1.2,1.2-1.2H88c0.8,0,1.2,0.3,1.2,1.2V94h-1.6v-0.8c0-0.3-0.1-0.4-0.4-0.4h-2.7c-0.3,0-0.4,0.1-0.4,0.4
		l-0.3,2.3c0,0.4-0.1,0.7-0.1,0.7l0,0c0,0,0.7-0.4,1.6-0.4c2.7,0,4.5,1.9,4.5,4.2c0,2.2-1.8,4.2-4.6,4.2c-2.6,0-3.9-1.8-3.9-1.8
		L82.4,101.1z"/>
	<path class="st2" d="M71.3,164c0,0,1.3,1.4,3.2,1.4c1.4,0,2.5-1,2.5-2.3c0-1.4-1.3-2.3-2.7-2.3h-0.9l-0.4-1l2.6-3.3
		c0.4-0.5,0.7-0.8,0.7-0.8l0,0c0,0-0.4,0.1-1.1,0.1h-2.4c-0.3,0-0.4,0.1-0.4,0.4v0.8h-1.7v-1.6c0-0.8,0.3-1.2,1.1-1.2h6.7v1.1
		l-3.3,4c1.7,0.2,3.6,1.3,3.6,3.7c0,2.1-1.7,4-4.4,4c-2.6,0-4.2-1.8-4.2-1.8L71.3,164z"/>
	<path class="st2" d="M81.3,160.6c0-3.7,1.1-6.6,4.5-6.6s4.5,2.9,4.5,6.6c0,3.7-1.1,6.6-4.5,6.6C82.4,167.1,81.3,164.2,81.3,160.6z
		 M88.4,160.6c0-2.8-0.6-4.9-2.7-4.9s-2.7,2.2-2.7,4.9c0,2.8,0.6,5,2.7,5C87.9,165.5,88.4,163.3,88.4,160.6z"/>
	<path class="st2" d="M76.9,220.7c0-1.2-0.9-2-2.2-2c-1.1,0-2,0.6-2,1.2v0.6H71v-1.1c0-1.7,2.2-2.3,3.7-2.3c2.3,0,4,1.5,4,3.7
		c0,4.4-6.4,4.4-6.4,7.4c0,0.3,0.1,0.3,0.5,0.3h4.5c0.3,0,0.4-0.1,0.4-0.4v-0.8h1.7v1.6c0,0.8-0.3,1.2-1.2,1.2h-6.5
		c-1,0-1.2-0.4-1.2-1.5C70.5,223.8,76.9,224.1,76.9,220.7z"/>
	<path class="st2" d="M82.7,227.1c0,0,1,1.4,3,1.4c1.6,0,2.7-1.1,2.7-2.5c0-1.6-1.4-2.6-3-2.6c-1.4,0-2.4,0.6-2.4,0.6l-0.7-0.3
		l0.5-5.3c0.1-0.8,0.3-1.2,1.2-1.2h4.4c0.8,0,1.2,0.3,1.2,1.2v1.6H88v-0.8c0-0.3-0.1-0.4-0.4-0.4h-2.7c-0.3,0-0.4,0.1-0.4,0.4
		l-0.3,2.3c0,0.4-0.1,0.7-0.1,0.7l0,0c0,0,0.7-0.4,1.6-0.4c2.7,0,4.5,1.9,4.5,4.2c0,2.2-1.8,4.2-4.6,4.2c-2.6,0-3.9-1.8-3.9-1.8
		L82.7,227.1z"/>
	<path class="st2" d="M76.8,283.7c0-1.2-0.9-2-2.2-2c-1.1,0-2,0.6-2,1.2v0.6h-1.7v-1.1c0-1.7,2.2-2.3,3.7-2.3c2.3,0,4,1.5,4,3.7
		c0,4.4-6.4,4.4-6.4,7.4c0,0.3,0.1,0.3,0.5,0.3h4.5c0.3,0,0.4-0.1,0.4-0.4v-0.8h1.7v1.6c0,0.8-0.3,1.2-1.2,1.2h-6.5
		c-1,0-1.2-0.4-1.2-1.5C70.3,286.8,76.8,287.1,76.8,283.7z"/>
	<path class="st2" d="M81.5,286.6c0-3.7,1.1-6.6,4.5-6.6s4.5,2.9,4.5,6.6s-1.1,6.6-4.5,6.6C82.6,293.1,81.5,290.2,81.5,286.6z
		 M88.7,286.6c0-2.8-0.6-4.9-2.7-4.9s-2.7,2.2-2.7,4.9c0,2.8,0.6,5,2.7,5C88.1,291.5,88.7,289.3,88.7,286.6z"/>
	<path class="st2" d="M71.6,354.4h2.8v-8.2c0-0.4,0-0.8,0-0.8l0,0c0,0-0.1,0.3-0.6,0.7l-1.2,1.2l-1.1-1.1l3-3h1.6v11.2H79v1.5h-7.4
		V354.4z"/>
	<path class="st2" d="M82,353.1c0,0,1,1.4,3,1.4c1.6,0,2.7-1.1,2.7-2.5c0-1.6-1.4-2.6-3-2.6c-1.4,0-2.4,0.6-2.4,0.6l-0.7-0.3
		l0.5-5.3c0.1-0.8,0.3-1.2,1.2-1.2h4.4c0.8,0,1.2,0.3,1.2,1.2v1.6h-1.6v-0.8c0-0.3-0.1-0.4-0.4-0.4h-2.7c-0.3,0-0.4,0.1-0.4,0.4
		l-0.3,2.3c0,0.4-0.1,0.7-0.1,0.7l0,0c0,0,0.7-0.4,1.6-0.4c2.7,0,4.5,1.9,4.5,4.2c0,2.2-1.8,4.2-4.6,4.2c-2.6,0-3.9-1.8-3.9-1.8
		L82,353.1z"/>
	<path class="st2" d="M71.5,417.4h2.8v-8.2c0-0.4,0-0.8,0-0.8l0,0c0,0-0.1,0.3-0.6,0.7l-1.2,1.2l-1.1-1.1l3-3H76v11.2h2.8v1.5h-7.4
		L71.5,417.4L71.5,417.4z"/>
	<path class="st2" d="M80.8,412.6c0-3.7,1.1-6.6,4.5-6.6s4.5,2.9,4.5,6.6s-1.1,6.6-4.5,6.6C81.9,419.1,80.8,416.2,80.8,412.6z
		 M88,412.6c0-2.8-0.6-4.9-2.7-4.9s-2.7,2.2-2.7,4.9c0,2.8,0.6,5,2.7,5C87.4,417.5,88,415.3,88,412.6z"/>
</g>
<g>
	<path class="st2" d="M252,437.8c0-1.2-0.9-2-2.2-2c-1.1,0-1.9,0.6-1.9,1.2v0.5h-1.6v-1.1c0-1.6,2.2-2.3,3.6-2.3
		c2.3,0,3.9,1.5,3.9,3.6c0,4.3-6.3,4.4-6.3,7.3c0,0.2,0.1,0.3,0.4,0.3h4.4c0.2,0,0.4-0.1,0.4-0.4v-0.8h1.6v1.6
		c0,0.8-0.3,1.1-1.1,1.1h-6.4c-1,0-1.2-0.4-1.2-1.4C245.7,440.9,252,441.2,252,437.8z"/>
	<path class="st2" d="M256.7,440.7c0-3.6,1.1-6.5,4.4-6.5s4.4,2.9,4.4,6.5s-1.1,6.5-4.4,6.5C257.8,447.2,256.7,444.3,256.7,440.7z
		 M263.8,440.7c0-2.7-0.6-4.8-2.6-4.8c-2.1,0-2.6,2.1-2.6,4.8c0,2.7,0.6,4.9,2.6,4.9C263.2,445.6,263.8,443.4,263.8,440.7z"/>
	<path class="st2" d="M268.1,445.4h2.7v-8.1c0-0.4,0-0.8,0-0.8l0,0c0,0-0.1,0.3-0.6,0.7l-1.2,1.2l-1.1-1.1l3-2.9h1.6v11h2.7v1.5H268
		v-1.5H268.1z"/>
	<path class="st2" d="M277.8,445.4h2.7v-8.1c0-0.4,0-0.8,0-0.8l0,0c0,0-0.1,0.3-0.6,0.7l-1.2,1.2l-1.1-1.1l3-2.9h1.6v11h2.7v1.5
		h-7.2v-1.5H277.8z"/>
</g>
<g>
	<path class="st2" d="M361.7,437.8c0-1.2-0.9-2-2.2-2c-1.1,0-1.9,0.6-1.9,1.2v0.5H356v-1.1c0-1.6,2.2-2.3,3.6-2.3
		c2.3,0,3.9,1.5,3.9,3.6c0,4.3-6.3,4.4-6.3,7.3c0,0.2,0.1,0.3,0.4,0.3h4.4c0.2,0,0.4-0.1,0.4-0.4v-0.8h1.6v1.6
		c0,0.8-0.3,1.1-1.1,1.1h-6.4c-1,0-1.2-0.4-1.2-1.4C355.3,440.9,361.7,441.2,361.7,437.8z"/>
	<path class="st2" d="M366.4,440.7c0-3.6,1.1-6.5,4.4-6.5s4.4,2.9,4.4,6.5s-1.1,6.5-4.4,6.5S366.4,444.3,366.4,440.7z M373.4,440.7
		c0-2.7-0.6-4.8-2.6-4.8c-2.1,0-2.6,2.1-2.6,4.8c0,2.7,0.6,4.9,2.6,4.9C372.9,445.6,373.4,443.4,373.4,440.7z"/>
	<path class="st2" d="M377.8,445.4h2.7v-8.1c0-0.4,0-0.8,0-0.8l0,0c0,0-0.1,0.3-0.6,0.7l-1.2,1.2l-1.1-1.1l3-2.9h1.6v11h2.7v1.5
		h-7.2v-1.5H377.8z"/>
	<path class="st2" d="M393.3,437.8c0-1.2-0.9-2-2.2-2c-1.1,0-1.9,0.6-1.9,1.2v0.5h-1.6v-1.1c0-1.6,2.2-2.3,3.6-2.3
		c2.3,0,3.9,1.5,3.9,3.6c0,4.3-6.3,4.4-6.3,7.3c0,0.2,0.1,0.3,0.4,0.3h4.4c0.2,0,0.4-0.1,0.4-0.4v-0.8h1.6v1.6
		c0,0.8-0.3,1.1-1.1,1.1h-6.4c-1,0-1.2-0.4-1.2-1.4C387,440.9,393.3,441.2,393.3,437.8z"/>
</g>
<g>
	<path class="st2" d="M472.4,437.8c0-1.2-0.9-2-2.2-2c-1.1,0-1.9,0.6-1.9,1.2v0.5h-1.6v-1.1c0-1.6,2.2-2.3,3.6-2.3
		c2.3,0,3.9,1.5,3.9,3.6c0,4.3-6.3,4.4-6.3,7.3c0,0.2,0.1,0.3,0.4,0.3h4.4c0.2,0,0.4-0.1,0.4-0.4v-0.8h1.6v1.6
		c0,0.8-0.3,1.1-1.1,1.1h-6.4c-1,0-1.2-0.4-1.2-1.4C466,440.9,472.4,441.2,472.4,437.8z"/>
	<path class="st2" d="M477.1,440.7c0-3.6,1.1-6.5,4.4-6.5s4.4,2.9,4.4,6.5s-1.1,6.5-4.4,6.5S477.1,444.3,477.1,440.7z M484.1,440.7
		c0-2.7-0.6-4.8-2.6-4.8c-2.1,0-2.6,2.1-2.6,4.8c0,2.7,0.6,4.9,2.6,4.9C483.6,445.6,484.1,443.4,484.1,440.7z"/>
	<path class="st2" d="M488.5,445.4h2.7v-8.1c0-0.4,0-0.8,0-0.8l0,0c0,0-0.1,0.3-0.6,0.7l-1.2,1.2l-1.1-1.1l3-2.9h1.6v11h2.7v1.5
		h-7.2v-1.5H488.5z"/>
	<path class="st2" d="M498.3,444.1c0,0,1.2,1.4,3.2,1.4c1.3,0,2.5-0.9,2.5-2.3s-1.2-2.2-2.7-2.2h-0.9l-0.4-1l2.6-3.3
		c0.4-0.5,0.7-0.8,0.7-0.8l0,0c0,0-0.4,0.1-1.1,0.1h-2.4c-0.2,0-0.4,0.1-0.4,0.4v0.8h-1.6v-1.6c0-0.8,0.3-1.1,1.1-1.1h6.6v1.1
		l-3.3,4c1.6,0.2,3.5,1.3,3.5,3.7c0,2.1-1.7,4-4.3,4c-2.6,0-4.1-1.8-4.1-1.8L498.3,444.1z"/>
</g>
<g>
	<path class="st2" d="M582.5,437.8c0-1.2-0.9-2-2.2-2c-1.1,0-1.9,0.6-1.9,1.2v0.5h-1.6v-1.1c0-1.6,2.2-2.3,3.6-2.3
		c2.3,0,3.9,1.5,3.9,3.6c0,4.3-6.3,4.4-6.3,7.3c0,0.2,0.1,0.3,0.4,0.3h4.4c0.2,0,0.4-0.1,0.4-0.4v-0.8h1.6v1.6
		c0,0.8-0.3,1.1-1.1,1.1h-6.4c-1,0-1.2-0.4-1.2-1.4C576.1,440.9,582.5,441.2,582.5,437.8z"/>
	<path class="st2" d="M587.2,440.7c0-3.6,1.1-6.5,4.4-6.5c3.3,0,4.4,2.9,4.4,6.5s-1.1,6.5-4.4,6.5S587.2,444.3,587.2,440.7z
		 M594.2,440.7c0-2.7-0.6-4.8-2.6-4.8c-2.1,0-2.6,2.1-2.6,4.8c0,2.7,0.6,4.9,2.6,4.9C593.6,445.6,594.2,443.4,594.2,440.7z"/>
	<path class="st2" d="M598.6,445.4h2.7v-8.1c0-0.4,0-0.8,0-0.8l0,0c0,0-0.1,0.3-0.6,0.7l-1.2,1.2l-1.1-1.1l3-2.9h1.6v11h2.7v1.5
		h-7.2L598.6,445.4L598.6,445.4z"/>
	<path class="st2" d="M607,442.5l5.6-8.1h2v7.7h1.9v1.5h-1.9v3.3h-1.8v-3.3H607V442.5z M612.9,437.8c0-0.6,0.1-1.3,0.1-1.3l0,0
		c0,0-0.3,0.6-0.6,1l-2.7,3.8c-0.3,0.4-0.7,0.8-0.7,0.8l0,0c0,0,0.5-0.1,1.1-0.1h2.9L612.9,437.8L612.9,437.8z"/>
</g>
<g>
	<path class="st2" d="M693.3,437.8c0-1.2-0.9-2-2.2-2c-1.1,0-1.9,0.6-1.9,1.2v0.5h-1.6v-1.1c0-1.6,2.2-2.3,3.6-2.3
		c2.3,0,3.9,1.5,3.9,3.6c0,4.3-6.3,4.4-6.3,7.3c0,0.2,0.1,0.3,0.4,0.3h4.4c0.2,0,0.4-0.1,0.4-0.4v-0.8h1.6v1.6
		c0,0.8-0.3,1.1-1.1,1.1h-6.4c-1,0-1.2-0.4-1.2-1.4C687,440.9,693.3,441.2,693.3,437.8z"/>
	<path class="st2" d="M698,440.7c0-3.6,1.1-6.5,4.4-6.5c3.3,0,4.4,2.9,4.4,6.5s-1.1,6.5-4.4,6.5S698,444.3,698,440.7z M705.1,440.7
		c0-2.7-0.6-4.8-2.6-4.8c-2.1,0-2.6,2.1-2.6,4.8c0,2.7,0.6,4.9,2.6,4.9S705.1,443.4,705.1,440.7z"/>
	<path class="st2" d="M709.4,445.4h2.7v-8.1c0-0.4,0-0.8,0-0.8l0,0c0,0-0.1,0.3-0.6,0.7l-1.2,1.2l-1.1-1.1l3-2.9h1.6v11h2.7v1.5
		h-7.3v-1.5H709.4z"/>
	<path class="st2" d="M719.7,444.1c0,0,1,1.4,2.9,1.4c1.6,0,2.7-1.1,2.7-2.5c0-1.6-1.3-2.6-3-2.6c-1.4,0-2.4,0.6-2.4,0.6l-0.7-0.3
		l0.5-5.2c0.1-0.8,0.3-1.1,1.1-1.1h4.4c0.8,0,1.1,0.3,1.1,1.1v1.6h-1.6v-0.8c0-0.3-0.1-0.4-0.4-0.4h-2.6c-0.2,0-0.4,0.1-0.4,0.4
		l-0.2,2.3c0,0.4-0.1,0.7-0.1,0.7l0,0c0,0,0.7-0.4,1.6-0.4c2.7,0,4.5,1.8,4.5,4.1c0,2.2-1.8,4.1-4.5,4.1c-2.6,0-3.9-1.8-3.9-1.8
		L719.7,444.1z"/>
</g>
<g>
	<path class="st2" d="M803.8,437.8c0-1.2-0.9-2-2.2-2c-1.1,0-1.9,0.6-1.9,1.2v0.5H798v-1.1c0-1.6,2.2-2.3,3.6-2.3
		c2.3,0,3.9,1.5,3.9,3.6c0,4.3-6.3,4.4-6.3,7.3c0,0.2,0.1,0.3,0.4,0.3h4.4c0.2,0,0.4-0.1,0.4-0.4v-0.8h1.6v1.6
		c0,0.8-0.3,1.1-1.1,1.1h-6.4c-1,0-1.2-0.4-1.2-1.4C797.4,440.9,803.8,441.2,803.8,437.8z"/>
	<path class="st2" d="M808.5,440.7c0-3.6,1.1-6.5,4.4-6.5c3.3,0,4.4,2.9,4.4,6.5s-1.1,6.5-4.4,6.5S808.5,444.3,808.5,440.7z
		 M815.5,440.7c0-2.7-0.6-4.8-2.6-4.8c-2.1,0-2.6,2.1-2.6,4.8c0,2.7,0.6,4.9,2.6,4.9C815,445.6,815.5,443.4,815.5,440.7z"/>
	<path class="st2" d="M819.9,445.4h2.7v-8.1c0-0.4,0-0.8,0-0.8l0,0c0,0-0.1,0.3-0.6,0.7l-1.2,1.2l-1.1-1.1l3-2.9h1.6v11h2.7v1.5
		h-7.3v-1.5H819.9z"/>
	<path class="st2" d="M828.8,441.4c0-3.3,1.8-7.2,5.6-7.2c1.5,0,2.4,0.5,2.4,0.5l-0.6,1.5c0,0-0.8-0.4-1.8-0.4
		c-2.3,0-3.5,2.1-3.8,4.3l0,0c0.5-0.8,1.7-1.2,2.8-1.2c2.4,0,4,1.8,4,4.1c0,2.5-1.7,4.2-4,4.2C830.9,447.2,828.8,444.9,828.8,441.4z
		 M833.5,445.6c1.5,0,2.3-1.1,2.3-2.6s-1-2.6-2.6-2.6c-1.4,0-2.5,0.9-2.5,1.8C830.7,443.7,831.9,445.6,833.5,445.6z"/>
</g>
<g>
	<path class="st2" d="M914.2,437.8c0-1.2-0.9-2-2.2-2c-1.1,0-1.9,0.6-1.9,1.2v0.5h-1.6v-1.1c0-1.6,2.2-2.3,3.6-2.3
		c2.3,0,3.9,1.5,3.9,3.6c0,4.3-6.3,4.4-6.3,7.3c0,0.2,0.1,0.3,0.4,0.3h4.4c0.2,0,0.4-0.1,0.4-0.4v-0.8h1.6v1.6
		c0,0.8-0.3,1.1-1.1,1.1H909c-1,0-1.2-0.4-1.2-1.4C907.9,440.9,914.2,441.2,914.2,437.8z"/>
	<path class="st2" d="M918.9,440.7c0-3.6,1.1-6.5,4.4-6.5c3.3,0,4.4,2.9,4.4,6.5s-1.1,6.5-4.4,6.5S918.9,444.3,918.9,440.7z
		 M926,440.7c0-2.7-0.6-4.8-2.6-4.8c-2.1,0-2.6,2.1-2.6,4.8c0,2.7,0.6,4.9,2.6,4.9S926,443.4,926,440.7z"/>
	<path class="st2" d="M930.3,445.4h2.7v-8.1c0-0.4,0-0.8,0-0.8l0,0c0,0-0.1,0.3-0.6,0.7l-1.2,1.2l-1.1-1.1l3-2.9h1.6v11h2.7v1.5
		h-7.2L930.3,445.4L930.3,445.4z"/>
	<path class="st2" d="M945.1,437.1c0.4-0.7,0.7-1.2,0.7-1.2l0,0c0,0-0.3,0.1-0.9,0.1h-3.8c-0.2,0-0.4,0.1-0.4,0.4v0.8h-1.6v-1.6
		c0-0.8,0.3-1.1,1.1-1.1h7.6v1.2l-6.1,11.3h-2L945.1,437.1z"/>
</g>
</svg>
