<?xml version="1.0" encoding="utf-8"?>
<!-- Generator: Adobe Illustrator 23.0.0, SVG Export Plug-In . SVG Version: 6.00 Build 0)  -->
<svg version="1.1" id="Livello_1" xmlns="http://www.w3.org/2000/svg" xmlns:xlink="http://www.w3.org/1999/xlink" x="0px" y="0px"
	 viewBox="0 0 848 373" style="enable-background:new 0 0 848 373;" xml:space="preserve">
<style type="text/css">
	.st0{fill-rule:evenodd;clip-rule:evenodd;fill:#8EA52F;}
	.st1{fill:#8EA52F;}
	
		.st2{fill-rule:evenodd;clip-rule:evenodd;fill:none;stroke:#8EA52F;stroke-width:2;stroke-linecap:round;stroke-miterlimit:10;stroke-dasharray:0,5;}
	.st3{fill-rule:evenodd;clip-rule:evenodd;fill:#B4CC6F;}
	.st4{fill:#00295A;}
	.st5{fill:#FFFFFF;}
</style>
<g>
	<g>
		<path class="st0" d="M689.1,49.6l-3.5,11.8l18-12.4l-18-12.4L689.1,49.6z M784.6,120.4l-3.5,11.9l18-12.4l-18-12.4L784.6,120.4z
			 M818.5,190.6l-18-12.4l3.5,12.9l-3.5,11.9L818.5,190.6z M783.2,262.6l-3.5,11.8l18-12.4l-18-12.4L783.2,262.6z M684.5,332.6
			l-3.5,11.8l18-12.4l-18-12.4L684.5,332.6z"/>
	</g>
</g>
<path class="st1" d="M153.7,82.9c59.6,0,108.1,48.5,108.1,108.1c0,59.6-48.5,108.1-108.1,108.1C94.1,299,45.6,250.6,45.6,191
	C45.6,131.4,94.1,82.9,153.7,82.9 M153.7,48.1c-78.9,0-142.8,64-142.8,142.8c0,78.9,64,142.8,142.8,142.8
	c78.9,0,142.8-64,142.8-142.8C296.5,112.1,232.6,48.1,153.7,48.1L153.7,48.1z"/>
<path class="st2" d="M586.6,330.5h104.1"/>
<path class="st2" d="M719.4,259.7h64"/>
<path class="st2" d="M679.3,189.6h130.8"/>
<path class="st2" d="M714,118.9h70.7"/>
<path class="st2" d="M653.3,48.1h37.3"/>
<path class="st2" d="M146,330.5h177.5"/>
<path class="st2" d="M238.8,259.7h177.5"/>
<path class="st2" d="M265.5,189.6H443"/>
<path class="st2" d="M240.1,118.9h177.5"/>
<path class="st2" d="M146,48.1h177.5"/>
<path class="st3" d="M334.9,310.4h240.3c10.5,0,19,8.5,19,19c0,10.5-8.5,19-19,19H334.9c-10.5,0-19-8.5-19-19
	C315.9,319,324.4,310.4,334.9,310.4z"/>
<path class="st3" d="M422.4,243H704c10.5,0,19,8.5,19,19c0,10.5-8.5,19-19,19H422.4c-10.5,0-19-8.5-19-19
	C403.3,251.5,411.9,243,422.4,243z"/>
<path class="st3" d="M460.4,169.6h204.2c10.5,0,19,8.5,19,19c0,10.5-8.5,19-19,19H460.4c-10.5,0-19-8.5-19-19
	C441.4,178.1,449.9,169.6,460.4,169.6z"/>
<path class="st3" d="M434.4,100.2H698c10.5,0,19,8.5,19,19c0,10.5-8.5,19-19,19H434.4c-10.5,0-19-8.5-19-19
	C415.3,108.7,423.9,100.2,434.4,100.2z"/>
<path class="st3" d="M332.9,27.4h305.7c10.5,0,19,8.5,19,19c0,10.5-8.5,19-19,19H332.9c-10.5,0-19-8.5-19-19
	C313.9,36,322.4,27.4,332.9,27.4z"/>
<g>
	<path class="st4" d="M90.6,167h-4c-0.4,0-0.6,0.2-0.6,0.6v1.3h-2.5v-2.6c0-1.3,0.4-1.7,1.7-1.7h13.6c1.3,0,1.7,0.4,1.7,1.7v2.6H98
		v-1.3c0-0.4-0.2-0.6-0.6-0.6h-4v17.4h-2.8V167z"/>
	<path class="st4" d="M106.7,167h-1.8v-2.4h11.6c1.3,0,1.8,0.5,1.8,1.8v2.5h-2.6v-1.3c0-0.4-0.2-0.6-0.6-0.6h-5.6v6.2h6.9v2.4h-6.9
		v5.8c0,0.4,0.2,0.6,0.6,0.6h5.8c0.4,0,0.6-0.2,0.6-0.6v-1.3h2.6v2.5c0,1.3-0.5,1.8-1.8,1.8h-8.8c-1.3,0-1.8-0.5-1.8-1.8V167z"/>
	<path class="st4" d="M123.6,182h1.2c0.4,0,0.6-0.2,0.6-0.6v-16.8h2.6l8.8,12.5c0.7,1.1,1.7,2.7,1.7,2.7h0.1c0,0-0.2-1.6-0.2-2.7
		v-10.7c0-1.3,0.5-1.8,1.8-1.8h2.8v2.4h-1.2c-0.4,0-0.6,0.2-0.6,0.6v16.8h-2.5l-8.8-12.5c-0.7-1.1-1.6-2.7-1.6-2.7h-0.1
		c0,0,0.2,1.6,0.2,2.7v10.7c0,1.3-0.5,1.8-1.8,1.8h-2.8V182z"/>
	<path class="st4" d="M149.7,167h-1.8v-2.4h8c6,0,10,3.6,10,9.9c0,6.3-4,9.9-10,9.9h-4.4c-1.3,0-1.8-0.5-1.8-1.8V167z M153.1,182
		h2.6c4.4,0,7.3-2.6,7.3-7.5c0-4.9-2.9-7.5-7.3-7.5h-3.2v14.4C152.5,181.7,152.7,182,153.1,182z"/>
	<path class="st4" d="M172.6,167h-1.8v-2.4h11.6c1.3,0,1.8,0.5,1.8,1.8v2.5h-2.6v-1.3c0-0.4-0.2-0.6-0.6-0.6h-5.6v6.2h6.9v2.4h-6.9
		v5.8c0,0.4,0.2,0.6,0.6,0.6h5.8c0.4,0,0.6-0.2,0.6-0.6v-1.3h2.6v2.5c0,1.3-0.5,1.8-1.8,1.8h-8.8c-1.3,0-1.8-0.5-1.8-1.8V167z"/>
	<path class="st4" d="M191.3,167h-1.8v-2.4h8.6c3.5,0,5.9,2.2,5.9,5.8c0,3.3-2.2,4.9-3.6,5.2v0.1c0,0,0.5,0.3,0.8,0.9l2.4,4.7
		c0.3,0.6,0.7,0.6,1.4,0.6h0.4v2.4h-1.4c-1.5,0-2.1-0.2-2.7-1.5l-2.7-5.3c-0.5-0.9-0.9-1.1-2-1.1h-2.6v7.9h-2.8V167z M197.8,174.1
		c2.1,0,3.4-1.4,3.4-3.6c0-2.2-1.3-3.5-3.3-3.5h-3.7v7.1H197.8z"/>
	<path class="st4" d="M211.5,167h-1.8v-2.4h11.6c1.3,0,1.8,0.5,1.8,1.8v2.5h-2.6v-1.3c0-0.4-0.2-0.6-0.6-0.6h-5.6v6.2h6.9v2.4h-6.9
		v5.8c0,0.4,0.2,0.6,0.6,0.6h5.8c0.4,0,0.6-0.2,0.6-0.6v-1.3h2.6v2.5c0,1.3-0.5,1.8-1.8,1.8h-8.8c-1.3,0-1.8-0.5-1.8-1.8V167z"/>
	<path class="st4" d="M98.1,214.6h0.4c0.5,0,0.8-0.1,0.9-0.6l6.2-16.8h2.9l6.2,16.8c0.2,0.5,0.4,0.6,0.9,0.6h0.4v2.4h-1.6
		c-1.4,0-1.9-0.3-2.3-1.6l-1.5-4.1h-7.3l-1.5,4.1c-0.5,1.3-0.9,1.6-2.3,1.6h-1.5V214.6z M110.1,209l-2.2-6c-0.4-1-0.8-2.8-0.8-2.8
		h-0.1c0,0-0.4,1.7-0.8,2.8l-2.2,6H110.1z"/>
	<path class="st4" d="M130.1,215.2l9.8-13.7c0.8-1.1,1.5-1.8,1.5-1.8v-0.1c0,0-0.5,0.1-1.5,0.1h-6.4c-0.4,0-0.6,0.2-0.6,0.6v1.3
		h-2.6V199c0-1.3,0.5-1.8,1.8-1.8h12.7v1.8l-9.8,13.8c-0.8,1.1-1.5,1.8-1.5,1.8v0.1c0,0,0.5-0.1,1.5-0.1h7c0.4,0,0.6-0.2,0.6-0.6
		v-1.3h2.6v2.5c0,1.3-0.5,1.8-1.8,1.8h-13.3V215.2z"/>
	<path class="st4" d="M151.7,199.7h-1.8v-2.4h11.6c1.3,0,1.8,0.5,1.8,1.8v2.5h-2.6v-1.3c0-0.4-0.2-0.6-0.6-0.6h-5.6v6.2h6.9v2.4
		h-6.9v5.8c0,0.4,0.2,0.6,0.6,0.6h5.8c0.4,0,0.6-0.2,0.6-0.6v-1.3h2.6v2.5c0,1.3-0.5,1.8-1.8,1.8h-8.8c-1.3,0-1.8-0.5-1.8-1.8V199.7
		z"/>
	<path class="st4" d="M170.4,199.7h-1.8v-2.4h8.6c3.5,0,5.9,2.2,5.9,5.8c0,3.3-2.2,4.9-3.6,5.2v0.1c0,0,0.5,0.3,0.8,0.9l2.4,4.7
		c0.3,0.6,0.7,0.6,1.4,0.6h0.4v2.4h-1.4c-1.5,0-2.1-0.2-2.7-1.5l-2.7-5.3c-0.5-0.9-0.9-1.1-2-1.1h-2.6v7.9h-2.8V199.7z M176.9,206.7
		c2.1,0,3.4-1.4,3.4-3.6c0-2.2-1.3-3.5-3.3-3.5h-3.7v7.1H176.9z"/>
	<path class="st4" d="M198.7,196.9c5.7,0,10.2,4.4,10.2,10.1c0,5.8-4.5,10.4-10.2,10.4c-5.7,0-10.2-4.5-10.2-10.4
		C188.5,201.3,193,196.9,198.7,196.9z M198.7,214.7c4,0,7.3-3.4,7.3-7.7c0-4.2-3.3-7.5-7.3-7.5c-4,0-7.2,3.3-7.2,7.5
		C191.5,211.4,194.7,214.7,198.7,214.7z"/>
</g>
<g>
	<path class="st5" d="M333.4,50.6c0,0,1.9,2.1,4.4,2.1c1.4,0,2.6-0.7,2.6-2.1c0-3.1-8.5-2.8-8.5-8.4c0-2.9,2.5-5.1,6-5.1
		c2.1,0,5.4,1,5.4,3.6v1.7h-3v-0.8c0-0.8-1.2-1.4-2.4-1.4c-1.5,0-2.6,0.8-2.6,1.9c0,3.1,8.5,2.5,8.5,8.4c0,2.9-2.2,5.3-6,5.3
		c-4,0-6.2-2.8-6.2-2.8L333.4,50.6z"/>
	<path class="st5" d="M348.1,52.7h1.8V40.3h-1.8v-2.8h6.7v2.8h-1.8v12.4h1.8v2.8h-6.7V52.7z"/>
	<path class="st5" d="M368.3,37.2c2.3,0,6.8,1,6.8,4v2h-3v-1c0-1.3-2.2-1.9-3.7-1.9c-3.2,0-5.8,2.3-5.8,6.1c0,3.5,2.6,6.4,5.9,6.4
		c3.4,0,5.5-2.4,5.5-2.4l1.8,2.4c0,0-2.6,3.1-7.3,3.1c-5.5,0-9.3-4.1-9.3-9.5C359.2,41.1,363.1,37.2,368.3,37.2z"/>
	<path class="st5" d="M381.2,40.8c0-0.4-0.2-0.6-0.6-0.6h-1.1v-2.8h3.2c1.2,0,1.7,0.5,1.7,1.7v9.8c0,2.4,1.5,3.7,3.8,3.7
		s3.8-1.4,3.8-3.8v-9.7c0-1.2,0.5-1.7,1.7-1.7h3.2v2.8h-1.1c-0.4,0-0.6,0.2-0.6,0.6v8.2c0,4-2.8,6.7-7.1,6.7c-4.3,0-7.1-2.7-7.1-6.7
		V40.8z"/>
	<path class="st5" d="M402.7,40.3h-1.6v-2.8h8.1c3.3,0,5.6,2,5.6,5.4c0,3.2-2.2,4.6-3,4.7v0.1c0,0,0.6,0.3,0.9,0.9l1.8,3.5
		c0.3,0.5,0.7,0.6,1.3,0.6h0.3v2.8h-1.8c-1.3,0-1.9-0.2-2.5-1.3l-2.3-4.5c-0.4-0.7-0.8-0.8-1.7-0.8h-1.7v6.7h-3.3V40.3z M408.7,45.9
		c1.7,0,2.7-1,2.7-2.8c0-1.8-1-2.8-2.6-2.8h-2.7v5.6H408.7z"/>
	<path class="st5" d="M421.3,40.3h-1.6v-2.8h10.9c1.2,0,1.7,0.5,1.7,1.7v2.7h-3v-1.1c0-0.4-0.2-0.6-0.6-0.6h-4.1V45h5.8v2.8h-5.8
		v4.3c0,0.4,0.2,0.6,0.6,0.6h4.2c0.4,0,0.6-0.2,0.6-0.6V51h3v2.7c0,1.2-0.5,1.7-1.7,1.7H423c-1.2,0-1.7-0.5-1.7-1.7V40.3z"/>
	<path class="st5" d="M436.4,53.4l8.1-11.5c0.7-1,1.4-1.6,1.4-1.6v-0.1c0,0-0.5,0.1-1.4,0.1h-4.4c-0.4,0-0.6,0.2-0.6,0.6v1.1h-3
		v-2.7c0-1.2,0.5-1.7,1.7-1.7H450v2.1L441.9,51c-0.7,1-1.4,1.6-1.4,1.6v0.1c0,0,0.5-0.1,1.4-0.1h4.9c0.4,0,0.6-0.2,0.6-0.6V51h3v2.7
		c0,1.2-0.5,1.7-1.7,1.7h-12.2V53.4z"/>
	<path class="st5" d="M453.9,53.4l8.1-11.5c0.7-1,1.4-1.6,1.4-1.6v-0.1c0,0-0.5,0.1-1.4,0.1h-4.4c-0.4,0-0.6,0.2-0.6,0.6v1.1h-3
		v-2.7c0-1.2,0.5-1.7,1.7-1.7h11.7v2.1L459.4,51c-0.7,1-1.4,1.6-1.4,1.6v0.1c0,0,0.5-0.1,1.4-0.1h4.9c0.4,0,0.6-0.2,0.6-0.6V51h3
		v2.7c0,1.2-0.5,1.7-1.7,1.7h-12.2V53.4z"/>
	<path class="st5" d="M471.2,52.7h0.4c0.4,0,0.6-0.1,0.8-0.6l5.4-14.6h3.5l5.3,14.6c0.2,0.5,0.4,0.6,0.8,0.6h0.4v2.8h-2
		c-1.3,0-1.7-0.3-2.1-1.5l-1.1-3.1h-6.1l-1.1,3.1c-0.4,1.1-0.8,1.5-2.1,1.5h-2V52.7z M481.7,48.1l-1.5-4.5c-0.3-1-0.7-2.7-0.7-2.7
		h-0.1c0,0-0.4,1.7-0.7,2.7l-1.5,4.5H481.7z"/>
	<path class="st5" d="M502.1,38.4h1.7l-0.9,4.3h-2.2L502.1,38.4z M505.2,38.4h1.7l-0.9,4.3h-2.2L505.2,38.4z"/>
	<path class="st5" d="M510.2,45.6c0-4,1.2-7.2,5.1-7.2c3.8,0,5.1,3.2,5.1,7.2s-1.2,7.3-5.1,7.3C511.5,52.9,510.2,49.7,510.2,45.6z
		 M517.8,45.6c0-2.7-0.6-4.9-2.5-4.9c-1.9,0-2.5,2.1-2.5,4.9c0,2.8,0.6,4.9,2.5,4.9C517.2,50.6,517.8,48.4,517.8,45.6z"/>
	<path class="st5" d="M525.1,38.4h2.2l-1.5,4.3h-1.7L525.1,38.4z M528.2,38.4h2.2l-1.5,4.3h-1.7L528.2,38.4z"/>
	<path class="st5" d="M542.2,45.2c0-0.3-0.2-0.4-0.4-0.4h-0.8v-2.1h2.4c0.9,0,1.3,0.4,1.3,1.3v6.2c0,0.3,0.2,0.4,0.4,0.4h0.8v2.1
		h-2.4c-0.9,0-1.3-0.4-1.3-1.3V45.2z M542.3,38.6h2.2V41h-2.2V38.6z"/>
	<path class="st5" d="M550,45.2c0-0.3-0.2-0.4-0.4-0.4h-0.8v-2.1h2.3c0.9,0,1.3,0.4,1.3,1.1V44c0,0.2,0,0.4,0,0.4h0
		c0.4-0.8,1.5-2.1,3.6-2.1c2.2,0,3.5,1.2,3.5,3.8v3.9c0,0.3,0.2,0.4,0.4,0.4h0.8v2.1h-2.4c-0.9,0-1.3-0.4-1.3-1.3v-4.6
		c0-1.2-0.3-2.1-1.6-2.1c-1.3,0-2.3,0.8-2.7,2.1c-0.1,0.4-0.2,0.9-0.2,1.3v4.6H550V45.2z"/>
	<path class="st5" d="M569.1,42.4c1.3,0,3.6,0.5,3.6,2.3v1.2h-2.2v-0.6c0-0.6-0.8-0.8-1.4-0.8c-1.7,0-3,1.3-3,3.1
		c0,2.1,1.5,3.1,3.1,3.1c1.7,0,3-1.4,3-1.4l1,1.7c0,0-1.5,1.8-4.2,1.8c-3.3,0-5.4-2.3-5.4-5.3C563.6,44.8,565.7,42.4,569.1,42.4z"/>
	<path class="st5" d="M577.3,45.2c0-0.3-0.2-0.4-0.4-0.4h-0.8v-2.1h2.4c0.9,0,1.3,0.4,1.3,1.3v6.2c0,0.3,0.2,0.4,0.4,0.4h0.8v2.1
		h-2.4c-0.9,0-1.3-0.4-1.3-1.3V45.2z M577.4,38.6h2.2V41h-2.2V38.6z"/>
	<path class="st5" d="M588.6,42.4c2.2,0,2.9,1.2,2.9,1.2h0c0,0,0-0.3,0-0.6v-1.8c0-0.3-0.2-0.4-0.4-0.4h-0.8v-2.1h2.4
		c0.9,0,1.3,0.4,1.3,1.3v10.1c0,0.3,0.2,0.4,0.4,0.4h0.8v2.1H593c-0.9,0-1.2-0.4-1.2-1c0-0.2,0-0.4,0-0.4h0c0,0-0.8,1.6-3.1,1.6
		c-2.7,0-4.5-2.1-4.5-5.3C584.1,44.4,586,42.4,588.6,42.4z M591.6,47.6c0-1.6-0.8-3.1-2.5-3.1c-1.4,0-2.5,1.1-2.5,3.1
		c0,1.9,1,3.2,2.5,3.2C590.4,50.8,591.6,49.8,591.6,47.6z"/>
	<path class="st5" d="M603.4,42.4c2.9,0,4.5,2.1,4.5,4.8c0,0.3-0.1,0.9-0.1,0.9h-6.9c0.2,1.8,1.5,2.7,3,2.7c1.6,0,2.8-1.1,2.8-1.1
		l1,1.7c0,0-1.5,1.5-4,1.5c-3.3,0-5.4-2.4-5.4-5.3C598.3,44.5,600.4,42.4,603.4,42.4z M605.3,46.3c0-1.2-0.9-2-1.9-2
		c-1.3,0-2.2,0.8-2.5,2H605.3z"/>
	<path class="st5" d="M612.3,45.2c0-0.3-0.2-0.4-0.4-0.4h-0.8v-2.1h2.3c0.9,0,1.3,0.4,1.3,1.1V44c0,0.2,0,0.4,0,0.4h0
		c0.4-0.8,1.5-2.1,3.6-2.1c2.2,0,3.5,1.2,3.5,3.8v3.9c0,0.3,0.2,0.4,0.4,0.4h0.8v2.1h-2.4c-0.9,0-1.3-0.4-1.3-1.3v-4.6
		c0-1.2-0.3-2.1-1.6-2.1c-1.3,0-2.3,0.8-2.7,2.1c-0.1,0.4-0.2,0.9-0.2,1.3v4.6h-2.5V45.2z"/>
	<path class="st5" d="M627,44.6h-1.3v-2h1.4v-2.7h2.4v2.7h2.3v2h-2.3v4.1c0,1.7,1.3,1.9,2,1.9c0.3,0,0.5,0,0.5,0v2.2
		c0,0-0.3,0.1-0.8,0.1c-1.4,0-4.2-0.4-4.2-3.8V44.6z"/>
	<path class="st5" d="M636.3,45.2c0-0.3-0.2-0.4-0.4-0.4h-0.8v-2.1h2.4c0.9,0,1.3,0.4,1.3,1.3v6.2c0,0.3,0.2,0.4,0.4,0.4h0.8v2.1
		h-2.4c-0.9,0-1.3-0.4-1.3-1.3V45.2z M636.4,38.6h2.2V41h-2.2V38.6z"/>
</g>
<g>
	<path class="st5" d="M436.2,109.9c2.3,0,6.8,1,6.8,4v2h-3v-1c0-1.3-2.2-1.9-3.7-1.9c-3.2,0-5.8,2.3-5.8,6.1c0,3.5,2.6,6.4,5.9,6.4
		c3.4,0,5.5-2.4,5.5-2.4l1.8,2.4c0,0-2.6,3.1-7.3,3.1c-5.5,0-9.3-4.1-9.3-9.5C427.1,113.9,431,109.9,436.2,109.9z"/>
	<path class="st5" d="M456.8,109.9c5.3,0,9.3,4,9.3,9.2c0,5.3-4,9.4-9.3,9.4s-9.3-4.1-9.3-9.4C447.5,113.9,451.5,109.9,456.8,109.9z
		 M456.8,125.4c3.2,0,5.9-2.7,5.9-6.3c0-3.5-2.6-6.1-5.9-6.1c-3.2,0-5.9,2.6-5.9,6.1C450.9,122.7,453.6,125.4,456.8,125.4z"/>
	<path class="st5" d="M470.3,125.4h1.1c0.4,0,0.6-0.2,0.6-0.6v-14.6h3l6.8,10c0.7,1,1.5,2.5,1.5,2.5h0.1c0,0-0.2-1.5-0.2-2.5v-8.2
		c0-1.2,0.5-1.7,1.7-1.7h3.2v2.8H487c-0.4,0-0.6,0.2-0.6,0.6v14.6h-3l-6.9-9.9c-0.7-1-1.5-2.5-1.5-2.5h-0.1c0,0,0.2,1.5,0.2,2.5v8.2
		c0,1.2-0.5,1.7-1.7,1.7h-3.2V125.4z"/>
	<path class="st5" d="M494.2,123.4c0,0,1.9,2.1,4.4,2.1c1.4,0,2.6-0.7,2.6-2.1c0-3.1-8.5-2.8-8.5-8.4c0-2.9,2.5-5.1,6-5.1
		c2.1,0,5.4,1,5.4,3.6v1.7h-3v-0.8c0-0.8-1.2-1.4-2.4-1.4c-1.5,0-2.6,0.8-2.6,1.9c0,3.1,8.5,2.5,8.5,8.4c0,2.9-2.2,5.3-6,5.3
		c-4,0-6.2-2.8-6.2-2.8L494.2,123.4z"/>
	<path class="st5" d="M510.5,113h-1.6v-2.8h10.9c1.2,0,1.7,0.5,1.7,1.7v2.7h-3v-1.1c0-0.4-0.2-0.6-0.6-0.6h-4.1v4.7h5.8v2.8h-5.8
		v4.3c0,0.4,0.2,0.6,0.6,0.6h4.2c0.4,0,0.6-0.2,0.6-0.6v-1.1h3v2.7c0,1.2-0.5,1.7-1.7,1.7h-8.2c-1.2,0-1.7-0.5-1.7-1.7V113z"/>
	<path class="st5" d="M535.1,109.9c4.4,0,6.6,2.3,6.6,2.3l-1.9,2.4c0,0-1.9-1.6-4.6-1.6c-3.1,0-5.8,2.5-5.8,6.1
		c0,3.9,2.7,6.3,5.9,6.3c2.9,0,4.6-1.9,4.6-1.9v-1.3c0-0.4-0.2-0.6-0.6-0.6h-1.1v-2.8h2.9c1.2,0,1.7,0.5,1.7,1.7v7.7H540v-0.9
		c0-0.4,0-0.8,0-0.8H540c0,0-1.9,1.9-5.3,1.9c-4.7,0-8.8-3.6-8.8-9.4C525.9,113.9,529.9,109.9,535.1,109.9z"/>
	<path class="st5" d="M547.4,125.4h1.1c0.4,0,0.6-0.2,0.6-0.6v-14.6h3l6.8,10c0.7,1,1.5,2.5,1.5,2.5h0.1c0,0-0.2-1.5-0.2-2.5v-8.2
		c0-1.2,0.5-1.7,1.7-1.7h3.2v2.8h-1.1c-0.4,0-0.6,0.2-0.6,0.6v14.6h-3l-6.9-9.9c-0.7-1-1.5-2.5-1.5-2.5h-0.1c0,0,0.2,1.5,0.2,2.5
		v8.2c0,1.2-0.5,1.7-1.7,1.7h-3.2V125.4z"/>
	<path class="st5" d="M571.1,113h-1.6v-2.8h10.9c1.2,0,1.7,0.5,1.7,1.7v2.7h-3v-1.1c0-0.4-0.2-0.6-0.6-0.6h-4.1v4.7h5.8v2.8h-5.8
		v4.3c0,0.4,0.2,0.6,0.6,0.6h4.2c0.4,0,0.6-0.2,0.6-0.6v-1.1h3v2.7c0,1.2-0.5,1.7-1.7,1.7h-8.2c-1.2,0-1.7-0.5-1.7-1.7V113z"/>
	<path class="st5" d="M597.3,111.2h1.7l-0.9,4.3h-2.2L597.3,111.2z M600.5,111.2h1.7l-0.9,4.3H599L600.5,111.2z"/>
	<path class="st5" d="M605.5,118.4c0-4,1.2-7.2,5.1-7.2c3.8,0,5.1,3.2,5.1,7.2s-1.2,7.3-5.1,7.3
		C606.7,125.6,605.5,122.4,605.5,118.4z M613,118.4c0-2.7-0.6-4.9-2.5-4.9c-1.9,0-2.5,2.1-2.5,4.9c0,2.8,0.6,4.9,2.5,4.9
		C612.4,123.3,613,121.1,613,118.4z"/>
	<path class="st5" d="M620.3,111.1h2.2l-1.5,4.3h-1.7L620.3,111.1z M623.5,111.1h2.2l-1.5,4.3h-1.7L623.5,111.1z"/>
	<path class="st5" d="M637.3,117.9c0-0.3-0.2-0.4-0.4-0.4h-0.8v-2.1h2.3c0.9,0,1.3,0.4,1.3,1.2v0.6c0,0.4,0,0.6,0,0.6h0
		c0.5-1.4,1.7-2.6,3.2-2.6c0.2,0,0.5,0,0.5,0v2.5c0,0-0.3,0-0.6,0c-1.1,0-2.3,0.6-2.7,2.1c-0.1,0.5-0.2,1-0.2,1.6v4h-2.5V117.9z"/>
	<path class="st5" d="M647.5,117.9c0-0.3-0.2-0.4-0.4-0.4h-0.8v-2.1h2.4c0.9,0,1.3,0.4,1.3,1.3v6.2c0,0.3,0.2,0.4,0.4,0.4h0.8v2.1
		h-2.4c-0.9,0-1.3-0.4-1.3-1.3V117.9z M647.6,111.4h2.2v2.3h-2.2V111.4z"/>
	<path class="st5" d="M655.3,117.3H654v-2h1.4v-2.7h2.4v2.7h2.3v2h-2.3v4.1c0,1.7,1.3,1.9,2,1.9c0.3,0,0.5,0,0.5,0v2.2
		c0,0-0.3,0.1-0.8,0.1c-1.4,0-4.2-0.4-4.2-3.8V117.3z"/>
	<path class="st5" d="M669.5,119.1h0.3V119c0-1.4-0.6-2-1.9-2c-0.5,0-1.3,0.1-1.3,0.7v0.5h-2.3v-1.1c0-1.9,2.6-2.1,3.7-2.1
		c3.4,0,4.3,1.8,4.3,4v3.7c0,0.3,0.2,0.4,0.4,0.4h0.8v2.1h-2.2c-0.9,0-1.3-0.5-1.3-1.1c0-0.3,0-0.4,0-0.4h0c0,0-0.8,1.8-3,1.8
		c-1.8,0-3.4-1.1-3.4-3.1C663.5,119.3,667.9,119.1,669.5,119.1z M667.6,123.7c1.3,0,2.3-1.4,2.3-2.6v-0.2h-0.4
		c-1.3,0-3.4,0.2-3.4,1.6C666,123.1,666.5,123.7,667.6,123.7z"/>
	<path class="st5" d="M677.5,117.9c0-0.3-0.2-0.4-0.4-0.4h-0.8v-2.1h2.3c0.9,0,1.3,0.4,1.3,1.2v0.6c0,0.4,0,0.6,0,0.6h0
		c0.5-1.4,1.7-2.6,3.2-2.6c0.2,0,0.5,0,0.5,0v2.5c0,0-0.3,0-0.6,0c-1.1,0-2.3,0.6-2.7,2.1c-0.1,0.5-0.2,1-0.2,1.6v4h-2.5V117.9z"/>
	<path class="st5" d="M690.8,115.1c2.2,0,2.9,1.2,2.9,1.2h0c0,0,0-0.3,0-0.6V114c0-0.3-0.2-0.4-0.4-0.4h-0.8v-2.1h2.4
		c0.9,0,1.3,0.4,1.3,1.3v10.1c0,0.3,0.2,0.4,0.4,0.4h0.8v2.1h-2.3c-0.9,0-1.2-0.4-1.2-1c0-0.2,0-0.4,0-0.4h0c0,0-0.8,1.6-3.1,1.6
		c-2.7,0-4.5-2.1-4.5-5.3C686.3,117.2,688.2,115.1,690.8,115.1z M693.8,120.4c0-1.6-0.8-3.1-2.5-3.1c-1.4,0-2.5,1.1-2.5,3.1
		c0,1.9,1,3.2,2.5,3.2C692.6,123.5,693.8,122.6,693.8,120.4z"/>
	<path class="st5" d="M701.6,117.9c0-0.3-0.2-0.4-0.4-0.4h-0.8v-2.1h2.4c0.9,0,1.3,0.4,1.3,1.3v6.2c0,0.3,0.2,0.4,0.4,0.4h0.8v2.1
		h-2.4c-0.9,0-1.3-0.4-1.3-1.3V117.9z M701.7,111.4h2.2v2.3h-2.2V111.4z"/>
</g>
<g>
	<path class="st5" d="M461.8,178.9c2.3,0,6.8,1,6.8,4v2h-3v-1c0-1.3-2.2-1.9-3.7-1.9c-3.2,0-5.8,2.3-5.8,6.1c0,3.5,2.6,6.4,5.9,6.4
		c3.4,0,5.5-2.4,5.5-2.4l1.8,2.4c0,0-2.6,3.1-7.3,3.1c-5.5,0-9.3-4.1-9.3-9.5C452.7,182.9,456.6,178.9,461.8,178.9z"/>
	<path class="st5" d="M482.4,178.9c5.3,0,9.3,4,9.3,9.2c0,5.3-4,9.4-9.3,9.4s-9.3-4.1-9.3-9.4C473.1,182.9,477.1,178.9,482.4,178.9z
		 M482.4,194.4c3.2,0,5.9-2.7,5.9-6.3c0-3.5-2.6-6.1-5.9-6.1c-3.2,0-5.9,2.6-5.9,6.1C476.5,191.7,479.1,194.4,482.4,194.4z"/>
	<path class="st5" d="M497.7,192.4c0,0,1.9,2.1,4.4,2.1c1.4,0,2.6-0.7,2.6-2.1c0-3.1-8.5-2.8-8.5-8.4c0-2.9,2.5-5.1,6-5.1
		c2.1,0,5.4,1,5.4,3.6v1.7h-3v-0.8c0-0.8-1.2-1.4-2.4-1.4c-1.5,0-2.6,0.8-2.6,1.9c0,3.1,8.5,2.5,8.5,8.4c0,2.9-2.2,5.3-6,5.3
		c-4,0-6.2-2.8-6.2-2.8L497.7,192.4z"/>
	<path class="st5" d="M518.1,182h-2.8c-0.4,0-0.6,0.2-0.6,0.6v1.1h-2.9v-2.8c0-1.2,0.4-1.6,1.6-1.6H526c1.2,0,1.6,0.4,1.6,1.6v2.8
		h-2.9v-1.1c0-0.4-0.2-0.6-0.6-0.6h-2.8v15.2h-3.3V182z"/>
	<path class="st5" d="M531.5,194.4h1.8V182h-1.8v-2.8h6.7v2.8h-1.8v12.4h1.8v2.8h-6.7V194.4z"/>
	<path class="st5" d="M553.3,180.2h1.7l-0.9,4.3h-2.2L553.3,180.2z M556.5,180.2h1.7l-0.9,4.3H555L556.5,180.2z"/>
	<path class="st5" d="M561.5,187.4c0-4,1.2-7.2,5.1-7.2c3.8,0,5.1,3.2,5.1,7.2s-1.2,7.3-5.1,7.3
		C562.7,194.6,561.5,191.4,561.5,187.4z M569,187.4c0-2.7-0.6-4.9-2.5-4.9c-1.9,0-2.5,2.1-2.5,4.9c0,2.8,0.6,4.9,2.5,4.9
		C568.4,192.3,569,190.1,569,187.4z"/>
	<path class="st5" d="M576.3,180.1h2.2l-1.5,4.3h-1.7L576.3,180.1z M579.5,180.1h2.2l-1.5,4.3h-1.7L579.5,180.1z"/>
	<path class="st5" d="M593.4,191.2c0,0,1.3,1.5,3,1.5c0.8,0,1.4-0.3,1.4-1c0-1.4-5.3-1.4-5.3-4.7c0-2,1.8-2.9,3.9-2.9
		c1.4,0,3.5,0.5,3.5,2.1v1h-2.2v-0.5c0-0.5-0.7-0.7-1.3-0.7c-0.9,0-1.5,0.3-1.5,0.9c0,1.6,5.3,1.3,5.3,4.6c0,1.9-1.7,3.1-3.9,3.1
		c-2.8,0-4.2-1.8-4.2-1.8L593.4,191.2z"/>
	<path class="st5" d="M604.5,186.9c0-0.3-0.2-0.4-0.4-0.4h-0.8v-2.1h2.2c0.9,0,1.3,0.4,1.3,1c0,0.2,0,0.4,0,0.4h0
		c0,0,0.8-1.6,3.2-1.6c2.7,0,4.5,2.2,4.5,5.3c0,3.2-2,5.3-4.6,5.3c-2,0-2.9-1.3-2.9-1.3h0c0,0,0,0.4,0,0.9v4.2h-2.5V186.9z
		 M609.4,192.5c1.4,0,2.5-1.1,2.5-3.1c0-1.9-1-3.2-2.5-3.2c-1.3,0-2.5,0.9-2.5,3.2C607,191,607.8,192.5,609.4,192.5z"/>
	<path class="st5" d="M618.8,186.9c0-0.3-0.2-0.4-0.4-0.4h-0.8v-2.1h2.3c0.9,0,1.3,0.4,1.3,1.2v0.6c0,0.4,0,0.6,0,0.6h0
		c0.5-1.4,1.7-2.6,3.2-2.6c0.2,0,0.5,0,0.5,0v2.5c0,0-0.3,0-0.6,0c-1.1,0-2.3,0.6-2.7,2.1c-0.1,0.5-0.2,1-0.2,1.6v4h-2.5V186.9z"/>
	<path class="st5" d="M632.6,184.1c2.9,0,4.5,2.1,4.5,4.8c0,0.3-0.1,0.9-0.1,0.9H630c0.2,1.8,1.5,2.7,3,2.7c1.6,0,2.8-1.1,2.8-1.1
		l1,1.7c0,0-1.5,1.5-4,1.5c-3.3,0-5.4-2.4-5.4-5.3C627.5,186.3,629.6,184.1,632.6,184.1z M634.5,188.1c0-1.2-0.9-2-1.9-2
		c-1.3,0-2.2,0.8-2.5,2H634.5z"/>
	<path class="st5" d="M645.9,184.1c1.3,0,3.6,0.5,3.6,2.3v1.2h-2.2V187c0-0.6-0.8-0.8-1.4-0.8c-1.7,0-3,1.3-3,3.1
		c0,2.1,1.5,3.1,3.1,3.1c1.7,0,3-1.4,3-1.4l1,1.7c0,0-1.5,1.8-4.2,1.8c-3.3,0-5.4-2.3-5.4-5.3C640.4,186.5,642.5,184.1,645.9,184.1z
		"/>
	<path class="st5" d="M653.9,183c0-0.3-0.2-0.4-0.4-0.4h-0.8v-2.1h2.4c0.9,0,1.3,0.4,1.3,1.3v3.5c0,0.5,0,0.8,0,0.8h0
		c0.5-1,1.7-2,3.5-2c2.2,0,3.5,1.2,3.5,3.8v3.9c0,0.3,0.2,0.4,0.4,0.4h0.8v2.1h-2.4c-0.9,0-1.3-0.4-1.3-1.3v-4.6
		c0-1.2-0.3-2.1-1.6-2.1c-1.3,0-2.3,0.9-2.7,2.1c-0.1,0.4-0.2,0.8-0.2,1.3v4.6h-2.5V183z"/>
	<path class="st5" d="M668.7,186.9c0-0.3-0.2-0.4-0.4-0.4h-0.8v-2.1h2.4c0.9,0,1.3,0.4,1.3,1.3v6.2c0,0.3,0.2,0.4,0.4,0.4h0.8v2.1
		H670c-0.9,0-1.3-0.4-1.3-1.3V186.9z M668.8,180.4h2.2v2.3h-2.2V180.4z"/>
</g>
<g>
	<path class="st5" d="M420.8,267.7h0.4c0.4,0,0.6-0.1,0.8-0.6l5.4-14.6h3.5l5.3,14.6c0.2,0.5,0.4,0.6,0.8,0.6h0.4v2.8h-2
		c-1.3,0-1.7-0.3-2.1-1.5l-1.1-3.1H426l-1.1,3.1c-0.4,1.1-0.8,1.5-2.1,1.5h-2V267.7z M431.3,263.1l-1.5-4.5c-0.3-1-0.7-2.7-0.7-2.7
		H429c0,0-0.4,1.7-0.7,2.7l-1.5,4.5H431.3z"/>
	<path class="st5" d="M440.6,267.7h0.8c0.4,0,0.5-0.2,0.6-0.6l1.2-14.6h3.5l3.7,8.6c0.4,1,0.9,2.4,0.9,2.4h0.1c0,0,0.5-1.4,0.9-2.4
		l3.7-8.6h3.5l1.2,14.6c0,0.4,0.2,0.6,0.6,0.6h0.8v2.8h-2.9c-1.2,0-1.6-0.5-1.7-1.7l-0.6-8c-0.1-1.2,0-2.8,0-2.8h-0.1
		c0,0-0.5,1.8-1,2.8l-3,6.6h-2.7l-3-6.6c-0.5-1-1-2.8-1-2.8h-0.1c0,0,0.1,1.6,0,2.8l-0.6,8c-0.1,1.2-0.5,1.7-1.7,1.7h-2.9V267.7z"/>
	<path class="st5" d="M467.2,255.3h-1.6v-2.8h7.8c3.2,0,5.6,1.7,5.6,4.6c0,2-1.1,3.3-2.2,3.9v0.1c2,0.6,2.9,2.4,2.9,4.2
		c0,3.6-2.9,5.2-6.2,5.2H469c-1.2,0-1.7-0.5-1.7-1.7V255.3z M473.4,259.8c1.4,0,2.2-1,2.2-2.3c0-1.3-0.8-2.2-2.2-2.2h-2.8v4.5H473.4
		z M471.1,267.7h2.6c1.6,0,2.5-1.1,2.5-2.6c0-1.5-0.9-2.6-2.5-2.6h-3.1v4.6C470.6,267.5,470.8,267.7,471.1,267.7z"/>
	<path class="st5" d="M484.2,267.7h1.8v-12.4h-1.8v-2.8h6.7v2.8h-1.8v12.4h1.8v2.8h-6.7V267.7z"/>
	<path class="st5" d="M497,255.3h-1.6v-2.8h10.9c1.2,0,1.7,0.5,1.7,1.7v2.7h-3v-1.1c0-0.4-0.2-0.6-0.6-0.6h-4.1v4.7h5.8v2.8h-5.8
		v4.3c0,0.4,0.2,0.6,0.6,0.6h4.2c0.4,0,0.6-0.2,0.6-0.6V266h3v2.7c0,1.2-0.5,1.7-1.7,1.7h-8.2c-1.2,0-1.7-0.5-1.7-1.7V255.3z"/>
	<path class="st5" d="M512.5,267.7h1.1c0.4,0,0.6-0.2,0.6-0.6v-14.6h3l6.8,10c0.7,1,1.5,2.5,1.5,2.5h0.1c0,0-0.2-1.5-0.2-2.5v-8.2
		c0-1.2,0.5-1.7,1.7-1.7h3.2v2.8h-1.1c-0.4,0-0.6,0.2-0.6,0.6v14.6h-3l-6.9-9.9c-0.7-1-1.5-2.5-1.5-2.5h-0.1c0,0,0.2,1.5,0.2,2.5
		v8.2c0,1.2-0.5,1.7-1.7,1.7h-3.2V267.7z"/>
	<path class="st5" d="M540.3,255.3h-2.8c-0.4,0-0.6,0.2-0.6,0.6v1.1h-2.9v-2.8c0-1.2,0.4-1.6,1.6-1.6h12.6c1.2,0,1.6,0.4,1.6,1.6
		v2.8H547v-1.1c0-0.4-0.2-0.6-0.6-0.6h-2.8v15.2h-3.3V255.3z"/>
	<path class="st5" d="M555.3,255.3h-1.6v-2.8h10.9c1.2,0,1.7,0.5,1.7,1.7v2.7h-3v-1.1c0-0.4-0.2-0.6-0.6-0.6h-4.1v4.7h5.8v2.8h-5.8
		v4.3c0,0.4,0.2,0.6,0.6,0.6h4.2c0.4,0,0.6-0.2,0.6-0.6V266h3v2.7c0,1.2-0.5,1.7-1.7,1.7h-8.2c-1.2,0-1.7-0.5-1.7-1.7V255.3z"/>
	<path class="st5" d="M581.6,253.4h1.7l-0.9,4.3h-2.2L581.6,253.4z M584.7,253.4h1.7l-0.9,4.3h-2.2L584.7,253.4z"/>
	<path class="st5" d="M589.7,260.7c0-4,1.2-7.2,5.1-7.2c3.8,0,5.1,3.2,5.1,7.2c0,4-1.2,7.3-5.1,7.3
		C591,267.9,589.7,264.7,589.7,260.7z M597.3,260.7c0-2.7-0.6-4.9-2.5-4.9s-2.5,2.1-2.5,4.9c0,2.8,0.6,4.9,2.5,4.9
		S597.3,263.4,597.3,260.7z"/>
	<path class="st5" d="M604.6,253.4h2.2l-1.5,4.3h-1.7L604.6,253.4z M607.7,253.4h2.2l-1.5,4.3h-1.7L607.7,253.4z"/>
	<path class="st5" d="M621.7,260.2c0-0.3-0.2-0.4-0.4-0.4h-0.8v-2.1h2.4c0.9,0,1.3,0.4,1.3,1.3v6.2c0,0.3,0.2,0.4,0.4,0.4h0.8v2.1
		H623c-0.9,0-1.3-0.4-1.3-1.3V260.2z M621.8,253.7h2.2v2.3h-2.2V253.7z"/>
	<path class="st5" d="M629.5,260.2c0-0.3-0.2-0.4-0.4-0.4h-0.8v-2.1h2.3c0.9,0,1.3,0.4,1.3,1.1v0.3c0,0.2,0,0.4,0,0.4h0
		c0.5-1,1.7-2.1,3.3-2.1c1.5,0,2.5,0.7,2.9,2.1h0c0.5-1.1,1.8-2.1,3.4-2.1c2.1,0,3.3,1.2,3.3,3.8v3.9c0,0.3,0.2,0.4,0.4,0.4h0.8v2.1
		h-2.4c-0.9,0-1.3-0.4-1.3-1.3v-4.7c0-1.1-0.2-2-1.4-2c-1.2,0-2.1,1-2.4,2.3c-0.1,0.4-0.2,0.8-0.2,1.3v4.4h-2.5v-6
		c0-1.1-0.2-2-1.4-2c-1.3,0-2.1,1-2.4,2.3c-0.1,0.4-0.2,0.8-0.2,1.3v4.4h-2.5V260.2z"/>
	<path class="st5" d="M650,260.2c0-0.3-0.2-0.4-0.4-0.4h-0.8v-2.1h2.2c0.9,0,1.3,0.4,1.3,1c0,0.2,0,0.4,0,0.4h0c0,0,0.8-1.6,3.2-1.6
		c2.7,0,4.5,2.2,4.5,5.3c0,3.2-2,5.3-4.6,5.3c-2,0-2.9-1.3-2.9-1.3h0c0,0,0,0.4,0,0.9v4.2H650V260.2z M654.9,265.8
		c1.4,0,2.5-1.1,2.5-3.1c0-1.9-1-3.2-2.5-3.2c-1.3,0-2.5,0.9-2.5,3.2C652.5,264.3,653.3,265.8,654.9,265.8z"/>
	<path class="st5" d="M669.1,261.4h0.3v-0.1c0-1.4-0.6-2-1.9-2c-0.5,0-1.3,0.1-1.3,0.7v0.5h-2.3v-1.1c0-1.9,2.6-2.1,3.7-2.1
		c3.4,0,4.3,1.8,4.3,4v3.7c0,0.3,0.2,0.4,0.4,0.4h0.8v2.1h-2.2c-0.9,0-1.3-0.5-1.3-1.1c0-0.3,0-0.4,0-0.4h0c0,0-0.8,1.8-3,1.8
		c-1.8,0-3.4-1.1-3.4-3.1C663.2,261.6,667.5,261.4,669.1,261.4z M667.2,266c1.3,0,2.3-1.4,2.3-2.6v-0.2h-0.4c-1.3,0-3.4,0.2-3.4,1.6
		C665.7,265.3,666.2,266,667.2,266z"/>
	<path class="st5" d="M677.2,259.6h-1.3v-2h1.4v-2.7h2.4v2.7h2.3v2h-2.3v4.1c0,1.7,1.3,1.9,2,1.9c0.3,0,0.5,0,0.5,0v2.2
		c0,0-0.3,0.1-0.8,0.1c-1.4,0-4.2-0.4-4.2-3.8V259.6z"/>
	<path class="st5" d="M686.5,259.6h-1.3v-2h1.4v-2.7h2.4v2.7h2.3v2H689v4.1c0,1.7,1.3,1.9,2,1.9c0.3,0,0.5,0,0.5,0v2.2
		c0,0-0.3,0.1-0.8,0.1c-1.4,0-4.2-0.4-4.2-3.8V259.6z"/>
	<path class="st5" d="M700.1,257.4c3.1,0,5.5,2.2,5.5,5.3c0,3.1-2.4,5.3-5.5,5.3c-3.1,0-5.5-2.2-5.5-5.3
		C694.6,259.6,697,257.4,700.1,257.4z M700.1,265.8c1.6,0,3-1.3,3-3.1c0-1.9-1.4-3.1-3-3.1c-1.6,0-3,1.3-3,3.1
		C697.1,264.5,698.4,265.8,700.1,265.8z"/>
</g>
<g>
	<path class="st5" d="M342.3,322.2c5.3,0,9.3,4,9.3,9.2c0,2.1-0.8,4.1-2,5.7l2,1.8l-2,2.2l-2-1.9c-1.5,1.2-3.4,1.7-5.4,1.7
		c-5.3,0-9.3-4.2-9.3-9.4C333,326.3,337,322.2,342.3,322.2z M342.3,337.8c1.9,0,3-0.9,3-0.9l-1.8-1.7l2-2.2l1.8,1.8
		c0.6-1,1-2.2,1-3.4c0-3.5-2.6-6.1-5.9-6.1c-3.2,0-5.8,2.6-5.8,6.1C336.5,335,339,337.8,342.3,337.8z"/>
	<path class="st5" d="M357.2,325.9c0-0.4-0.2-0.6-0.6-0.6h-1.1v-2.8h3.2c1.2,0,1.7,0.5,1.7,1.7v9.8c0,2.4,1.5,3.7,3.8,3.7
		s3.8-1.4,3.8-3.8v-9.7c0-1.2,0.5-1.7,1.7-1.7h3.2v2.8h-1.1c-0.4,0-0.6,0.2-0.6,0.6v8.2c0,4-2.8,6.7-7.1,6.7c-4.3,0-7.1-2.7-7.1-6.7
		V325.9z"/>
	<path class="st5" d="M376,337.7h0.4c0.4,0,0.6-0.1,0.8-0.6l5.4-14.6h3.5l5.3,14.6c0.2,0.5,0.4,0.6,0.8,0.6h0.4v2.8h-2
		c-1.3,0-1.7-0.3-2.1-1.5l-1.1-3.1h-6.1l-1.1,3.1c-0.4,1.1-0.8,1.5-2.1,1.5h-2V337.7z M386.6,333.2l-1.5-4.5c-0.3-1-0.7-2.7-0.7-2.7
		h-0.1c0,0-0.4,1.7-0.7,2.7l-1.5,4.5H386.6z"/>
	<path class="st5" d="M397.9,325.9c0-0.4-0.2-0.6-0.6-0.6h-1.1v-2.8h3.2c1.2,0,1.7,0.5,1.7,1.7v12.9c0,0.4,0.2,0.6,0.6,0.6h3.9
		c0.4,0,0.6-0.2,0.6-0.6v-1.1h3v2.7c0,1.2-0.5,1.7-1.7,1.7h-7.9c-1.2,0-1.7-0.5-1.7-1.7V325.9z"/>
	<path class="st5" d="M413,337.7h1.8v-12.4H413v-2.8h6.7v2.8H418v12.4h1.8v2.8H413V337.7z"/>
	<path class="st5" d="M429.9,325.3h-2.8c-0.4,0-0.6,0.2-0.6,0.6v1.1h-2.9v-2.8c0-1.2,0.4-1.6,1.6-1.6h12.6c1.2,0,1.6,0.4,1.6,1.6
		v2.8h-2.9v-1.1c0-0.4-0.2-0.6-0.6-0.6h-2.8v15.2h-3.3V325.3z"/>
	<path class="st5" d="M440.5,337.7h0.4c0.4,0,0.6-0.1,0.8-0.6l5.4-14.6h3.5l5.3,14.6c0.2,0.5,0.4,0.6,0.8,0.6h0.4v2.8h-2
		c-1.3,0-1.7-0.3-2.1-1.5l-1.1-3.1h-6.1l-1.1,3.1c-0.4,1.1-0.8,1.5-2.1,1.5h-2V337.7z M444.8,317.9h3.1l1.9,3.5h-2.4L444.8,317.9z
		 M451,333.2l-1.5-4.5c-0.3-1-0.7-2.7-0.7-2.7h-0.1c0,0-0.4,1.7-0.7,2.7l-1.5,4.5H451z"/>
	<path class="st5" d="M471.4,323.5h1.7l-0.9,4.3h-2.2L471.4,323.5z M474.5,323.5h1.7l-0.9,4.3h-2.2L474.5,323.5z"/>
	<path class="st5" d="M479.5,330.7c0-4,1.2-7.2,5.1-7.2s5.1,3.2,5.1,7.2c0,4-1.2,7.3-5.1,7.3S479.5,334.7,479.5,330.7z M487,330.7
		c0-2.7-0.6-4.9-2.5-4.9s-2.5,2.1-2.5,4.9c0,2.8,0.6,4.9,2.5,4.9S487,333.5,487,330.7z"/>
	<path class="st5" d="M494.3,323.5h2.2l-1.5,4.3h-1.7L494.3,323.5z M497.5,323.5h2.2l-1.5,4.3h-1.7L497.5,323.5z"/>
	<path class="st5" d="M514.9,327.4c2.2,0,2.9,1.2,2.9,1.2h0c0,0,0-0.3,0-0.6v-1.8c0-0.3-0.2-0.4-0.4-0.4h-0.8v-2.1h2.4
		c0.9,0,1.3,0.4,1.3,1.3v10.1c0,0.3,0.2,0.4,0.4,0.4h0.8v2.1h-2.3c-0.9,0-1.2-0.4-1.2-1c0-0.2,0-0.4,0-0.4h0c0,0-0.8,1.6-3.1,1.6
		c-2.7,0-4.5-2.1-4.5-5.3C510.4,329.5,512.3,327.4,514.9,327.4z M517.9,332.7c0-1.6-0.8-3.1-2.5-3.1c-1.4,0-2.5,1.1-2.5,3.1
		c0,1.9,1,3.2,2.5,3.2C516.7,335.8,517.9,334.9,517.9,332.7z"/>
	<path class="st5" d="M525.7,330.2c0-0.3-0.2-0.4-0.4-0.4h-0.8v-2.1h2.4c0.9,0,1.3,0.4,1.3,1.3v6.2c0,0.3,0.2,0.4,0.4,0.4h0.8v2.1
		H527c-0.9,0-1.3-0.4-1.3-1.3V330.2z M525.8,323.7h2.2v2.3h-2.2V323.7z"/>
	<path class="st5" d="M533.5,329.7h-1.2v-2h1.2v-0.3c0-3.3,2.7-3.7,4.1-3.7c0.5,0,0.8,0.1,0.8,0.1v2.1c0,0-0.2,0-0.5,0
		c-0.7,0-1.9,0.2-1.9,1.6v0.2h2.2v2H536v8.1h-2.5V329.7z"/>
	<path class="st5" d="M545.9,327.4c2.9,0,4.5,2.1,4.5,4.8c0,0.3-0.1,0.9-0.1,0.9h-6.9c0.2,1.8,1.5,2.7,3,2.7c1.6,0,2.8-1.1,2.8-1.1
		l1,1.7c0,0-1.5,1.5-4,1.5c-3.3,0-5.4-2.4-5.4-5.3C540.8,329.6,542.9,327.4,545.9,327.4z M547.8,331.4c0-1.2-0.9-2-1.9-2
		c-1.3,0-2.2,0.8-2.5,2H547.8z"/>
	<path class="st5" d="M554.8,329.7h-1.3v-2h1.4v-2.7h2.4v2.7h2.3v2h-2.3v4.1c0,1.7,1.3,1.9,2,1.9c0.3,0,0.5,0,0.5,0v2.2
		c0,0-0.3,0.1-0.8,0.1c-1.4,0-4.2-0.4-4.2-3.8V329.7z"/>
	<path class="st5" d="M564.1,329.7h-1.3v-2h1.4v-2.7h2.4v2.7h2.3v2h-2.3v4.1c0,1.7,1.3,1.9,2,1.9c0.3,0,0.5,0,0.5,0v2.2
		c0,0-0.3,0.1-0.8,0.1c-1.4,0-4.2-0.4-4.2-3.8V329.7z"/>
	<path class="st5" d="M573.4,330.2c0-0.3-0.2-0.4-0.4-0.4h-0.8v-2.1h2.4c0.9,0,1.3,0.4,1.3,1.3v6.2c0,0.3,0.2,0.4,0.4,0.4h0.8v2.1
		h-2.4c-0.9,0-1.3-0.4-1.3-1.3V330.2z M573.5,323.7h2.2v2.3h-2.2V323.7z"/>
</g>
</svg>
