<?xml version="1.0" encoding="utf-8"?>
<!-- Generator: Adobe Illustrator 23.0.0, SVG Export Plug-In . SVG Version: 6.00 Build 0)  -->
<svg version="1.1" id="Livello_1" xmlns="http://www.w3.org/2000/svg" xmlns:xlink="http://www.w3.org/1999/xlink" x="0px" y="0px"
	 viewBox="0 0 1163 504" style="enable-background:new 0 0 1163 504;" xml:space="preserve">
<style type="text/css">
	.st0{filter:url(#Adobe_OpacityMaskFilter);}
	.st1{fill:url(#SVGID_2_);}
	.st2{fill:url(#SVGID_3_);}
	.st3{opacity:0.1;mask:url(#SVGID_1_);}
	.st4{fill:none;stroke:#404040;stroke-width:1.2795;stroke-miterlimit:10;}
	.st5{fill:none;stroke:#404040;stroke-width:1.2795;stroke-miterlimit:10;stroke-dasharray:3.3312,3.3312;}
	.st6{fill:#404040;}
	.st7{fill:none;stroke:#000000;stroke-width:0.853;stroke-miterlimit:10;}
	.st8{fill:none;stroke:#000000;stroke-width:0.9789;stroke-miterlimit:10;}
	.st9{fill:none;stroke:#000000;stroke-width:1.2795;stroke-miterlimit:10;}
	.st10{fill:none;stroke:#000000;stroke-width:1.2795;stroke-miterlimit:10;stroke-dasharray:3.3404,3.3404;}
	.st11{fill:#868686;}
	.st12{fill:#9E9E9E;}
	.st13{fill:none;stroke:#CECECE;stroke-miterlimit:10;}
	.st14{fill:none;stroke:#A2A2A2;stroke-miterlimit:10;}
	.st15{fill:none;stroke:#DBDBDB;stroke-miterlimit:10;}
	.st16{fill:none;stroke:#D2D2D2;stroke-miterlimit:10;}
	.st17{fill:none;stroke:#CDCDCD;stroke-miterlimit:10;}
	.st18{fill:none;stroke:#000000;stroke-width:0.738;stroke-miterlimit:10;}
	.st19{fill:#666666;}
	.st20{fill:#4F4F4F;}
	.st21{fill:#7B7B7B;}
	.st22{fill-rule:evenodd;clip-rule:evenodd;fill:#777777;}
	.st23{fill:#A2A2A2;}
	.st24{fill:#CDCDCD;}
	.st25{fill:#DBDBDB;}
	.st26{fill:#CECECE;}
	.st27{fill:#D2D2D2;}
	.st28{fill:#FFFFFF;}
	.st29{fill:none;stroke:#EDEDED;stroke-width:0.853;stroke-miterlimit:10;}
	.st30{fill:#EBEBEB;}
	.st31{clip-path:url(#SVGID_5_);}
	.st32{fill:none;stroke:#636362;stroke-width:1.2795;stroke-miterlimit:10;}
	.st33{fill:none;stroke:#636362;stroke-width:1.2795;stroke-miterlimit:10;stroke-dasharray:3.3312,3.3312;}
	.st34{fill:#636362;}
	.st35{fill:#12100B;}
	.st36{fill:none;stroke:#1D1D1B;stroke-width:0.853;stroke-miterlimit:10;}
	.st37{fill:none;stroke:#12100B;stroke-width:0.9789;stroke-miterlimit:10;}
	.st38{fill:none;stroke:#1D1D1B;stroke-width:1.2795;stroke-miterlimit:10;}
	.st39{fill:none;stroke:#1D1D1B;stroke-width:1.2795;stroke-miterlimit:10;stroke-dasharray:3.3404,3.3404;}
	.st40{fill:#171513;}
	.st41{fill:#00295A;}
	.st42{fill:#EE7900;}
	.st43{fill:#009C3D;}
	.st44{fill:none;stroke:#F6CB37;stroke-miterlimit:10;}
	.st45{fill:none;stroke:#AC9EAD;stroke-miterlimit:10;}
	.st46{fill:none;stroke:#82C3E3;stroke-miterlimit:10;}
	.st47{fill:none;stroke:#B4CC6F;stroke-miterlimit:10;}
	.st48{fill:none;stroke:#D9C086;stroke-miterlimit:10;}
	.st49{fill:none;stroke:#1D1D1B;stroke-width:0.738;stroke-miterlimit:10;}
	.st50{fill:#E40077;}
	.st51{fill:#E30520;}
	.st52{fill:#00883D;}
	.st53{fill-rule:evenodd;clip-rule:evenodd;fill:#EA6508;}
	.st54{fill:#AC9EAD;}
	.st55{fill:#D9C086;}
	.st56{fill:#82C3E3;}
	.st57{fill:#F6CB37;}
	.st58{fill:#B4CC6F;}
	.st59{fill:none;stroke:#ECECEC;stroke-width:0.853;stroke-miterlimit:10;}
	.st60{fill:#EBEAE9;}
	.st61{fill:#DF0514;}
	.st62{fill:#A1B64B;}
</style>
<g>
	<defs>
		<filter id="Adobe_OpacityMaskFilter" filterUnits="userSpaceOnUse" x="22.1" y="24" width="444.1" height="461.9">
			<feColorMatrix  type="matrix" values="1 0 0 0 0  0 1 0 0 0  0 0 1 0 0  0 0 0 1 0"/>
		</filter>
	</defs>
	<mask maskUnits="userSpaceOnUse" x="22.1" y="24" width="444.1" height="461.9" id="SVGID_1_">
		<g class="st0">
			
				<radialGradient id="SVGID_2_" cx="227.3345" cy="194.3784" r="220.3333" gradientTransform="matrix(1.0847 0 0 1.0955 -9.401 38.3644)" gradientUnits="userSpaceOnUse">
				<stop  offset="0" style="stop-color:#FFFFFF"/>
				<stop  offset="1" style="stop-color:#000000"/>
			</radialGradient>
			<rect x="-1.8" y="9.9" class="st1" width="478" height="482.8"/>
			
				<radialGradient id="SVGID_3_" cx="227.3345" cy="194.3784" r="220.3333" gradientTransform="matrix(1.0847 0 0 1.0955 -9.401 38.3644)" gradientUnits="userSpaceOnUse">
				<stop  offset="0" style="stop-color:#FFFFFF"/>
				<stop  offset="1" style="stop-color:#000000"/>
			</radialGradient>
			<rect x="-1.8" y="9.9" class="st2" width="478" height="482.8"/>
		</g>
	</mask>
	<g class="st3">
		<g>
			<g>
				<path class="st4" d="M446.6,377c-0.3,0.5-0.6,0.9-0.9,1.4"/>
				<path class="st5" d="M443.9,381.2c-57.4,88.2-170.2,127.9-272.7,89.3C52.8,425.9-7.1,293.8,37.5,175.3
					C77.4,69.2,187.6,10.1,295.2,31"/>
				<path class="st4" d="M296.8,31.3c0.5,0.1,1.1,0.2,1.6,0.3"/>
			</g>
		</g>
		<circle class="st6" cx="446.6" cy="377" r="7"/>
		<polygon class="st6" points="300.6,32 299.8,24 311.1,33.8 297.3,39.3 		"/>
		<g>
			<g>
				<path d="M251.3,47c114.7,0,208.1,92.4,209.2,207.3c1.1,115.6-91.7,210.1-207.3,211.2c-0.7,0-1.3,0-2,0
					c-114.7,0-208.1-92.4-209.2-207.3C40.9,142.6,133.7,48.1,249.3,47C249.9,47,250.6,47,251.3,47 M251.3,46.2
					C251.3,46.2,251.3,46.2,251.3,46.2C251.3,46.2,251.3,46.2,251.3,46.2C251.3,46.2,251.3,46.2,251.3,46.2L251.3,46.2
					c-0.7,0-1.3,0-2,0c-28.4,0.3-55.8,6.1-81.6,17.3c-24.9,10.8-47.2,26.2-66.4,45.7s-34,42.1-44.4,67.2c-10.7,26-16,53.6-15.7,81.9
					c0.3,28.2,6,55.5,17.1,81.2c10.7,24.8,25.9,47,45.2,66.1c19.3,19.1,41.7,34.1,66.6,44.5c25.8,10.8,53.1,16.3,81.2,16.3
					c0.7,0,1.3,0,2,0c28.4-0.3,55.8-6.1,81.6-17.3c24.9-10.8,47.2-26.2,66.4-45.7c19.1-19.5,34-42.1,44.4-67.2
					c10.7-26,16-53.6,15.7-81.9c-0.3-28.2-6-55.5-17.1-81.2c-10.7-24.8-25.9-47-45.2-66.1c-19.3-19.1-41.7-34.1-66.6-44.5
					C306.7,51.6,279.4,46.2,251.3,46.2L251.3,46.2L251.3,46.2z"/>
			</g>
			<line class="st7" x1="155.5" y1="225.4" x2="363.7" y2="292.5"/>
			<line class="st7" x1="261.2" y1="142.1" x2="241" y2="373.5"/>
			<line class="st7" x1="190.9" y1="175.8" x2="322.1" y2="350.8"/>
			<line class="st7" x1="319.2" y1="159.8" x2="190.4" y2="356.8"/>
			<line class="st7" x1="335.2" y1="174.4" x2="166.9" y2="338.4"/>
			<line class="st7" x1="237.9" y1="157.5" x2="266.9" y2="372.3"/>
			<line class="st8" x1="357" y1="204.3" x2="145.2" y2="308.3"/>
			<line class="st8" x1="367.4" y1="238.2" x2="137.4" y2="274"/>
			<g>
				<g>
					<path class="st9" d="M261.7,138c0.6,0.1,1.1,0.1,1.7,0.2"/>
					<path class="st10" d="M266.7,138.6c52.7,7.2,95.7,49.5,101.4,104.8c6.7,64.8-40.4,122.8-105.2,129.4
						c-57.5,5.9-109.6-30.5-125.3-84"/>
					<path class="st9" d="M137.1,287.2c-0.1-0.5-0.3-1.1-0.4-1.6"/>
				</g>
			</g>
			<circle cx="261.7" cy="138" r="6.1"/>
			<polygon points="136.4,284.6 130.7,288.2 133.8,276.1 143.1,284.5 			"/>
			<g>
				<path d="M251.2,171.3c22.5,0,43.7,8.7,59.7,24.6c16,15.9,25,37,25.2,59.6c0.4,46.8-37.3,85.3-84.1,85.7c-0.3,0-0.5,0-0.8,0
					c-22.5,0-43.7-8.7-59.7-24.6c-16-15.9-25-37-25.2-59.6c-0.4-46.8,37.3-85.3,84.1-85.7C250.7,171.3,251,171.3,251.2,171.3
					L251.2,171.3 M251.2,163.3c-0.3,0-0.6,0-0.9,0c-51.3,0.5-92.5,42.5-92.1,93.8c0.5,51,42,92.1,92.9,92.1c0.3,0,0.6,0,0.9,0
					c51.3-0.5,92.5-42.5,92.1-93.8C343.7,204.3,302.2,163.3,251.2,163.3L251.2,163.3z"/>
			</g>
			<g>
				<path class="st11" d="M251.2,163.7c24.5,0,47.7,9.5,65.1,26.8c17.5,17.3,27.2,40.3,27.4,64.9c0.5,51-40.7,93-91.7,93.4
					c-0.3,0-0.6,0-0.9,0c-24.5,0-47.7-9.5-65.1-26.8c-17.5-17.3-27.2-40.3-27.4-64.9c-0.2-24.7,9.2-48.1,26.5-65.7
					c17.3-17.6,40.5-27.5,65.2-27.7C250.7,163.7,251,163.7,251.2,163.7L251.2,163.7 M251.2,155.7c-0.3,0-0.6,0-1,0
					c-55.5,0.5-100.1,46-99.6,101.5c0.5,55.2,45.4,99.6,100.5,99.6c0.3,0,0.6,0,1,0c55.5-0.5,100.1-46,99.6-101.5
					C351.3,200.1,306.3,155.7,251.2,155.7L251.2,155.7z"/>
			</g>
			<g>
				<path class="st12" d="M251.2,156.6c26.4,0,51.3,10.2,70.1,28.8c18.8,18.6,29.3,43.4,29.5,69.8c0.3,26.6-9.9,51.7-28.5,70.7
					c-18.6,19-43.6,29.6-70.2,29.8c-0.3,0-0.6,0-1,0c-26.4,0-51.3-10.2-70.1-28.8c-18.8-18.6-29.3-43.4-29.5-69.8
					c-0.5-54.9,43.7-100,98.7-100.5C250.6,156.6,250.9,156.6,251.2,156.6L251.2,156.6 M251.2,148.6c-0.3,0-0.7,0-1,0
					c-59.4,0.6-107.1,49.2-106.6,108.6c0.6,59.1,48.6,106.6,107.6,106.6c0.3,0,0.7,0,1,0c59.4-0.6,107.1-49.2,106.6-108.6
					C358.3,196.1,310.2,148.6,251.2,148.6L251.2,148.6z"/>
			</g>
			<g>
				<path class="st13" d="M112.8,357.3c-14.1-19.4-24.1-41.5-29.2-65c-6.2-28.8-5.1-59.5,4.7-89.5c5.9-18.1,14.6-34.5,25.4-49"/>
				<path class="st14" d="M305.8,418.7c-33.8,11.4-71.5,12.4-108,0.4c-35.5-11.6-64.6-33.7-85-61.8"/>
				<path class="st15" d="M422.6,256.7c-0.1,17.6-2.8,35.4-8.6,53c-17.5,53.4-58.8,92.4-108.2,109"/>
				<path class="st16" d="M389.6,155.2c21.2,29.1,33.1,64.7,33,101.5"/>
				<path class="st16" d="M303.8,93.1c0.3,0.1,0.5,0.2,0.8,0.3c35.5,11.6,64.6,33.7,85,61.8"/>
				<path class="st17" d="M113.8,153.8C156.4,96.6,232.3,70,303.8,93.1"/>
				<line class="st7" x1="78.8" y1="127.7" x2="308.9" y2="299"/>
				<line class="st7" x1="77.4" y1="383.2" x2="425" y2="129.3"/>
				<line class="st7" x1="184" y1="460.7" x2="256.5" y2="240.2"/>
				<line class="st18" x1="67.4" y1="255.8" x2="358.2" y2="257"/>
				<line class="st7" x1="184.1" y1="206.5" x2="400.7" y2="367"/>
				<line class="st7" x1="194" y1="85.7" x2="308.5" y2="426.8"/>
				<g>
					<g id="XMLID_390_">
						<path class="st19" d="M107.4,208c1.5-1.6,3.9-3.3,4-5.5c0.1-3.1-2.6-7.1-2.8-8.4c0,0,0.3-0.6,0.6,0.1c2.3,5,7.4,7.3,11,6.7
							c0,0,0.6,1.3,0.7,1.7c0.9,1,6.6,2.2,8.4,2.3c0,0,0.5,0.5-0.1,0.5c-3.3,0.2-6.3-0.2-7.6-0.5c-0.5-0.1-0.6,0.1-0.2,0.4
							c1.4,1.1,3.5,2.2,7.3,3.7c0,0,0.4,0.6-0.3,0.5c-3.9-0.7-15.2-5.5-15.4-5.3c-1.8,1.8-4.2,3.5-5.5,3.9
							C107.5,208.3,107.4,208,107.4,208z"/>
					</g>
					<g id="XMLID_386_">
						<path class="st19" d="M105.2,217.4c0.2-0.3,0.3-0.7,0.2-1c-0.1-0.5-0.5-1.1-1.1-1.4c-0.6-0.4-1.2-0.5-1.7-0.4
							c-0.4,0.1-0.7,0.3-0.9,0.6c-0.2,0.3-0.3,0.7-0.2,1c0.1,0.5,0.5,1.1,1.1,1.4c0.6,0.4,1.2,0.5,1.7,0.4
							C104.7,217.9,105,217.7,105.2,217.4z"/>
					</g>
					<g id="XMLID_382_">
						<path class="st19" d="M109.2,200.6c-0.6,0-1.1,0.1-1.5,0.5c-0.3,0.2-0.4,0.5-0.4,0.8c0,0.3,0.1,0.6,0.3,0.9
							c0.3,0.4,0.9,0.6,1.5,0.6c1,0.1,1.9-0.5,1.9-1.3C111,201.4,110.2,200.7,109.2,200.6z"/>
					</g>
					<g id="XMLID_378_">
						<path class="st19" d="M114,210.5c0.1-0.2,0-0.5-0.1-0.7c-0.2-0.4-0.7-0.7-1.2-0.9c-0.9-0.3-1.8,0-2,0.6
							c-0.1,0.2,0,0.5,0.1,0.7c0.2,0.4,0.7,0.7,1.2,0.9C112.9,211.4,113.8,211.1,114,210.5z"/>
					</g>
					<g id="XMLID_374_">
						<path class="st19" d="M125.3,216.4L125.3,216.4L125.3,216.4c-3.3-1.7-4.7-2.8-5.1-3.2c0.9,0.2,4.1,0.6,5.3,0.5
							c0.7-0.1,0.4-0.6,0.4-0.6c-9.9-2.2-10.4-5-11.5-7.8c-0.1-0.3-0.4-0.2-0.4-0.2c-0.1,0.5,0.3,2.6,0.3,2.9c1.1,5-2.4,6.2-3,6.6
							c0,0-0.1,0.3,0.4,0.3c0.6-0.1,2.6-0.8,4-2c1.9,1.4,7.4,3.5,9.3,4C125.6,217,125.3,216.4,125.3,216.4z"/>
					</g>
					<g id="XMLID_370_">
						<path class="st19" d="M103.8,228.8c2.3-2.1,4.5-6.7,5.2-8.8c5.9,2.8,13,4.9,16.6,5.2c1,0.1,0.5-0.7,0.5-0.7
							c-3.6-1-8.9-3.5-9.7-4.9c2,0.2,7.2,0.3,10.9-0.8c0.8-0.2,0.4-0.7,0.4-0.7c-16.1-0.4-19.6-3.7-23.2-7.1c-1.2-1.1-2.3-2.2-4-3.3
							c-0.8-0.5-0.7,0.4-0.7,0.4c5.7,4.8,9.3,10.6,3.2,20.6C103.1,228.8,103.3,229.3,103.8,228.8z"/>
					</g>
				</g>
				<g>
					<g id="XMLID_366_">
						<path class="st19" d="M341.8,380.9c-2.2,0.3-5.1,0.3-6.5,2c-1.9,2.4-2.1,7.2-2.8,8.4c0,0-0.6,0.3-0.4-0.4
							c1.1-5.4-1.6-10.3-4.9-11.9c0,0,0.3-1.4,0.4-1.8c-0.1-1.4-4-5.7-5.4-6.9c0,0-0.1-0.7,0.4-0.4c2.8,1.8,5,3.9,5.9,4.9
							c0.3,0.4,0.5,0.3,0.4-0.3c-0.4-1.7-1.5-3.9-3.7-7.4c0,0,0-0.7,0.5-0.2c2.8,2.9,9,13.4,9.3,13.4c2.6-0.4,5.5-0.3,6.7,0.1
							C341.9,380.5,341.8,380.9,341.8,380.9z"/>
					</g>
					<g id="XMLID_362_">
						<path class="st19" d="M349.2,374.5c-0.3,0.1-0.6,0.4-0.8,0.7c-0.2,0.5-0.2,1.2,0,1.8c0.2,0.6,0.7,1.1,1.2,1.3
							c0.4,0.2,0.7,0.2,1.1,0.1c0.3-0.1,0.6-0.4,0.8-0.7c0.2-0.5,0.2-1.2,0-1.8c-0.2-0.6-0.7-1.1-1.2-1.3
							C349.9,374.4,349.5,374.4,349.2,374.5z"/>
					</g>
					<g id="XMLID_358_">
						<path class="st19" d="M336.1,385.7c0.4,0.4,1,0.6,1.5,0.5c0.4,0,0.6-0.2,0.8-0.4c0.2-0.2,0.3-0.6,0.2-0.9
							c-0.1-0.5-0.3-1-0.8-1.4c-0.8-0.7-1.8-0.7-2.3-0.1C335,384.1,335.3,385.1,336.1,385.7z"/>
					</g>
					<g id="XMLID_354_">
						<path class="st19" d="M338.1,374.9c-0.2,0.1-0.3,0.4-0.3,0.6c-0.1,0.4,0.1,1,0.5,1.4c0.6,0.7,1.5,1,2,0.6
							c0.2-0.1,0.3-0.4,0.3-0.6c0.1-0.4-0.1-1-0.5-1.4C339.5,374.8,338.6,374.5,338.1,374.9z"/>
					</g>
					<g id="XMLID_350_">
						<path class="st19" d="M332.4,363.5L332.4,363.5L332.4,363.5c1.6,3.3,2.1,5.1,2.2,5.6c-0.6-0.7-3-3-3.9-3.5
							c-0.6-0.4-0.7,0.2-0.7,0.2c6.6,7.6,5.4,10.2,4.6,13.1c-0.1,0.4,0.2,0.4,0.2,0.4c0.4-0.3,1.3-2.3,1.4-2.5
							c2.1-4.7,5.6-3.5,6.3-3.6c0,0,0.2-0.2-0.1-0.4c-0.6-0.3-2.6-0.9-4.5-0.8c-0.7-2.3-3.9-7.2-5.1-8.7
							C332.5,362.8,332.4,363.5,332.4,363.5z"/>
					</g>
					<g id="XMLID_346_">
						<path class="st19" d="M357.1,366.2c-3.1,0.4-7.6,2.8-9.4,4c-3.1-5.8-7.5-11.7-10.3-14c-0.7-0.6-0.8,0.2-0.8,0.2
							c2.3,2.9,5.1,8.1,4.9,9.7c-1.5-1.4-5.6-4.5-9.3-5.8c-0.8-0.3-0.7,0.3-0.7,0.3c12.7,9.9,13.6,14.6,14.5,19.5
							c0.3,1.6,0.6,3.1,1.3,5c0.3,0.9,0.8,0.1,0.8,0.1c-1.7-7.3-1.2-14.1,9.7-18.5C357.7,366.7,357.7,366.1,357.1,366.2z"/>
					</g>
				</g>
				<g>
					<path class="st20" d="M339.6,123.4l-3.1,9.6l-10.1,0l8.2,6l-3.1,9.6l8.2-5.9l8.2,6l-3.1-9.6l8.2-5.9l-10.1,0L339.6,123.4z
						 M350.3,133.9l-6.6,4.8l2.5,7.8l-6.6-4.8l-6.6,4.8l2.6-7.8l-6.6-4.8l8.2,0l2.5-7.8l2.5,7.8L350.3,133.9z"/>
					<polygon class="st20" points="334.2,144.7 339.5,140.8 344.9,144.8 342.9,138.4 348.2,134.6 341.6,134.5 339.6,128.3 
						339.5,128.3 337.5,134.5 330.8,134.5 336.2,138.4 334.2,144.7 					"/>
				</g>
				<g>
					<path class="st20" d="M250.7,383.4l-3.1,9.6l-10.1,0l8.2,6l-3.1,9.6l8.2-5.9l8.2,6l-3.1-9.6l8.2-5.9l-10.1,0L250.7,383.4z
						 M261.4,393.8l-6.6,4.8l2.5,7.8l-6.6-4.8l-6.6,4.8l2.6-7.8l-6.6-4.8l8.2,0l2.5-7.8l2.5,7.8L261.4,393.8z"/>
					<polygon class="st20" points="245.3,404.6 250.7,400.8 256.1,404.7 254,398.4 259.4,394.5 252.8,394.5 250.7,388.2 
						250.7,388.2 248.7,394.4 242,394.4 247.4,398.3 245.3,404.6 					"/>
				</g>
				<path class="st21" d="M121.5,282.9c-1.8,2.4-3.6,4.8-5.4,7.2c-3.7,4.9-7.7,10.3-11.5,15.2l27.7,7.3c0,0-0.1-0.2-0.1-0.2
					c-0.6-1.9-1.3-3.8-2-5.6c-0.1-0.3-0.1-0.3-0.1-0.3l-14.5-4c-1-0.3-1.2-0.8-0.6-1.7c2.7-3.6,6.3-8.4,9-12c0,0-0.2-0.6-0.5-1.6
					c-0.1-0.3-0.2-0.6-0.3-1c-0.4-1.2-0.9-2.5-1.3-3.8C121.7,282.6,121.6,282.8,121.5,282.9z M111,300.1c0,0,0.3,0.8,0.3,0.8
					l0.1,0.3c-0.2,0.2-0.8,1.1-1,1.4c-0.4,0.6-0.2,1.1,0.5,1.3c0.4,0.1,1.2,0.3,1.7,0.4c0,0,0,0.1,0.1,0.4c0.2,0.5,0.4,1.1,0.6,1.7
					c-2.3-0.6-4.4-1.2-6.7-1.8l4.1-5.3C110.7,299.2,111,300.1,111,300.1z"/>
				<path class="st21" d="M374.3,312.2c2.9-0.8,5.8-1.7,8.7-2.5c5.9-1.7,12.4-3.5,18.3-5.2l-17.8-22.5c0,0,0,0.2-0.1,0.2
					c-0.6,1.9-1.2,3.8-1.8,5.7c-0.1,0.3-0.1,0.3-0.1,0.3l9.2,11.9c0.7,0.9,0.5,1.4-0.5,1.7c-4.3,1.3-10.1,2.9-14.4,4.2
					c0,0-0.2,0.6-0.5,1.6c-0.1,0.3-0.2,0.6-0.3,1c-0.4,1.2-0.8,2.5-1.2,3.8C374,312.3,374.1,312.3,374.3,312.2z M393.1,304.8
					c0,0,0.3-0.8,0.3-0.8l0.1-0.3c0.3-0.1,1.3-0.4,1.6-0.5c0.7-0.3,0.8-0.8,0.4-1.3c-0.3-0.4-0.8-1-1.1-1.4c0,0,0-0.1,0.1-0.4
					c0.2-0.5,0.3-1.1,0.6-1.7c1.4,1.9,2.8,3.6,4.2,5.5l-6.5,1.8C392.8,305.7,393.1,304.8,393.1,304.8z"/>
				<g>
					<path class="st22" d="M400.9,206.8c-0.4,1-0.9,2-1.8,2.7c-0.2,0.2-0.2,0.4-0.1,0.6c0.5,0.9,0.7,1.8,0.7,2.9
						c-1.3-1.6-2.9-2.8-4.8-3.7C397.1,208.8,399.1,207.9,400.9,206.8z"/>
					<path class="st22" d="M397.9,216.9c1.2-0.7,1.7-2.2,1.1-3.5c-0.4-0.9-1-1.7-1.9-2.3c-1.9-1.3-3.9-1.7-6.2-1.5
						c-1.1,0.1-2.1,0.4-3.1,0.8c-0.3,0.1-0.3,0.1-0.5-0.2c0,0,0-0.1,0-0.1c0.2-0.1,0.4-0.2,0.6-0.2c0.9-0.4,1.8-0.7,2.7-0.9
						c1.2-0.2,2.3-0.3,3.5-0.5c1.1-0.1,2.2-0.4,3.2-0.8c1-0.4,2-0.9,2.9-1.6c1.5-1.1,2.6-2.5,3.4-4.1c0.1-0.2,0.2-0.5,0.3-0.7
						c0,0,0,0,0,0c-1-0.3-2.1-0.4-3.2-0.4c-1.3,0-2.7,0.3-3.9,0.8c-0.9,0.4-1.7,0.8-2.5,1.4c-0.9,0.6-1.6,1.3-2.3,2.1
						c-1.1,1.3-2.3,2.5-3.7,3.4c-0.4,0.3-0.9,0.5-1.3,0.8c-0.1-0.2-0.2-0.3-0.3-0.4c0.1-0.1,0.1-0.1,0.2-0.1c0.5-0.3,0.9-0.6,1.4-1
						c1.9-1.5,3.1-3.5,3.5-5.9c0.2-1.3,0.1-2.6-0.6-3.9c-0.3-0.4-0.6-0.8-1-1c-1.1-0.7-2.6-0.4-3.6,0.6c-0.8,0.8-1.2,1.8-1.3,2.9
						c-0.2,0.9-0.3,1.9-0.5,2.8c-0.1,0.7-0.4,1.5-0.8,2.1c0,0,0,0.1,0,0.1c0.5,0,1-0.1,1.5-0.1c0-0.3,0-0.6,0.1-0.9
						c0.1-0.6,0.2-1.1,0.5-1.5c0.7-0.9,1.9-0.8,2.5,0.1c0.3,0.5,0.4,1.1,0.3,1.7c-0.2,1.1-0.7,2-1.6,2.7c-0.3,0.3-0.7,0.5-1,0.7
						c-0.3-0.3-0.5-0.6-0.7-0.8c-0.4-0.4-0.4-0.4-0.9-0.2c0,0,0,0,0,0c0,0.1-0.1,0.1-0.1,0.2c0,0.2,0.1,0.4,0.1,0.6
						c0.1,0.3,0.1,0.5,0.2,0.8c-0.5,0.1-0.9,0.1-1.4-0.1c-0.7-0.2-1.2-0.7-1.5-1.4c-0.1-0.2,0-0.4-0.1-0.7c-0.3,0-0.7,0.2-1,0.4
						c-0.6,0.5-0.8,1.3-0.3,2c0.4,0.6,1,0.9,1.6,1c0.9,0.1,1.7,0,2.6-0.3c0.3-0.1,0.3-0.1,0.5,0.2c0.1,0.1,0,0.2-0.1,0.2
						c-0.7,0.2-1.5,0.4-2.2,0.6c-0.5,0.1-1.1,0.3-1.5,0.6c-0.8,0.5-1.3,1.2-1.7,2c0.8-0.4,4.4-2.3,4.4-2.3s-0.7-0.2-1.6,0.1
						c-0.9,0.3-1.4,0.7-1.6,0.9c-0.1,0.1-0.1,0.1-0.1,0.1s0,0,0.1-0.1c0.2-0.2,0.9-0.8,1.6-1c1-0.3,1.9-0.1,1.9-0.1
						s-0.5,1.3-1.9,1.9c-0.7,0.3-1.9,0.3-2.7,0.5c0,0,0,0.1,0,0.1c0,0.1,0,0.1-0.1,0.2c0.4,0,0.8,0.1,1.1,0.1c0.9,0,1.7-0.1,2.4-0.6
						c0.4-0.3,0.8-0.6,1.2-1c0.5-0.4,0.9-0.8,1.5-1.1c0.1,0.1,0.2,0.3,0.2,0.4c0,0,0,0,0,0c-0.1,0.1-0.2,0.2-0.4,0.3
						c-0.7,0.6-1.3,1.2-1.7,2c-0.3,0.7-0.4,1.4,0,2c0.4,0.6,1.1,0.9,1.8,0.6c0.3-0.1,0.6-0.2,0.8-0.5c-1.2-0.6-1.2-2.6,0-3.5
						c0.2,0.2,0.4,0.5,0.6,0.7c0.4,0.4,0.4,0.4,0.9,0.2c0.1-0.1,0.2-0.1,0.1-0.3c-0.1-0.4-0.2-0.8-0.3-1.2c0-0.1,0-0.2,0.1-0.2
						c0.8-0.3,1.7-0.5,2.6-0.5c0.9,0.1,1.8,0.4,2.4,1.1c0.4,0.5,0.6,1,0.4,1.6c-0.2,0.8-1,1.2-1.9,1.1c-0.5-0.1-0.9-0.3-1.2-0.5
						c-0.2-0.1-0.5-0.3-0.7-0.5c-0.2,0.4-0.5,0.8-0.8,1c0,0-0.1,0.1-0.1,0.1c0.1,0,0.1,0.1,0.2,0.1c0.5,0,1,0.1,1.4,0.3
						c1,0.4,1.9,0.9,2.9,1.4c0.6,0.3,1.2,0.6,1.9,0.7C396,217.5,397,217.5,397.9,216.9z M387.7,201.8c-1.5-0.5-2.4,0.9-2.4,0.9
						s0.3-1.7,1.5-2.8c0.3-0.3,0.9-0.6,1.6-0.5c1,0.3,1.2,1.1,1.3,1.7c0.6,2.8-1,5.2-1,5.2C389.7,203.3,388.8,202.1,387.7,201.8z
						 M390.7,203.3c1.4-3.9-0.5-5.6-1.3-5.9c-1.9-0.7-3.4,1.7-3.4,1.7s0.5-1.1,1.6-1.8c0.2-0.1,1-0.5,1.7-0.3c1,0.3,1.7,1.2,1.9,2
						c1.3,4.3-2.4,7.4-2.4,7.4C389.6,205.2,390.3,204.2,390.7,203.3z M381.3,208.4c-0.4-0.5,0-1.3,0-1.3c0.3,2.1,2.6,2,2.6,2
						S382.2,209.4,381.3,208.4z M402.7,201.7c0,0-2.3-0.4-5,0.5c-3,1-4.6,2.2-5.2,2.8c-0.2,0.2-0.3,0.3-0.3,0.3s0.1-0.1,0.3-0.3
						c0.8-0.7,3-2.5,5-3.2c3-1.1,5.9-0.3,5.9-0.3s-1.6,3.9-6.2,5.9c-2.2,1-6.4,1-8.8,1.8C388.3,209.1,402.7,201.7,402.7,201.7z
						 M385.6,215.6c0,0-0.9-0.2-1.1-0.8c-0.3-1.3,1-2.5,1-2.5S384.1,214.1,385.6,215.6z M394.8,215.6c-1.7,0.3-3.1-0.5-3.1-0.5
						s1.6,0,2.1-1.4c0.4-1,0-2.5-3-3.5c0,0,2.9,0.2,4.8,2.3c0.4,0.4,0.9,1.1,0.5,2.1C395.9,215.3,395.2,215.6,394.8,215.6z
						 M397.3,216.5c-1.2,0.5-2.4,0.3-2.4,0.3s2.8,0.3,3.4-1.7c0.2-0.8,0-3.5-4-4.6c-1-0.3-2.2-0.3-3.6-0.3c0,0,4.7-1.2,7.4,2.4
						c0.5,0.6,0.8,1.7,0.4,2.7C398.3,216,397.5,216.4,397.3,216.5z"/>
				</g>
				<path class="st23" d="M195.8,425.3c-36.9-12.1-67.2-35.2-88.4-64.4l-29.9,21.9c25.6,35.2,62.2,63,106.7,77.6
					c45.7,15,92.8,13.8,135.2-0.4L307.6,425C272.5,436.7,233.6,437.7,195.8,425.3z"/>
				<path class="st24" d="M305.9,87l11.6-35.2c-89.9-29.1-185.1,4.1-238.6,75.9l29.7,22.2C152.9,90.5,231.6,63,305.9,87z"/>
				<path class="st25" d="M420.3,311.7C402,367.3,359,407.8,307.6,425l11.8,35.1c62.2-20.8,114.1-69.8,136.1-136.9
					c7.3-22.2,10.7-44.7,10.8-66.8l-37.1-0.1C429.1,274.7,426.3,293.3,420.3,311.7z"/>
				<path class="st26" d="M82.2,200.8c6.2-18.8,15.2-35.9,26.4-50.9l-29.7-22.2c-13.5,18.2-24.4,38.8-31.9,61.5
					c-22.4,68.3-8.7,139.7,30.5,193.6l29.9-21.9C75,316.3,63.7,257.2,82.2,200.8z"/>
				<path class="st27" d="M317.5,51.8L305.9,87c0.2,0.1,0.5,0.2,0.7,0.2c75,24.6,122.5,94.3,122.5,169.1l37.1,0.1
					c0.1-90.5-57.4-174.7-148-204.5C318,51.9,317.7,51.8,317.5,51.8z"/>
				<g>
					<g id="XMLID_342_">
						<path class="st19" d="M160.4,375.6c-0.9-2-1.8-4.8-3.8-5.7c-2.8-1.2-7.5,0.1-8.9-0.3c0,0-0.4-0.5,0.3-0.5
							c5.5-0.5,9.4-4.5,10.1-8.1c0,0,1.4-0.1,1.9-0.1c1.3-0.5,4.4-5.5,5.1-7.1c0,0,0.6-0.3,0.5,0.2c-0.9,3.2-2.4,5.9-3.1,7
							c-0.3,0.4-0.1,0.6,0.3,0.3c1.5-0.9,3.3-2.5,6-5.6c0,0,0.7-0.2,0.4,0.4c-2,3.5-10.4,12.4-10.2,12.7c1.1,2.4,1.8,5.2,1.8,6.5
							C160.8,375.7,160.4,375.6,160.4,375.6z"/>
					</g>
					<g id="XMLID_338_">
						<path class="st19" d="M168.6,381c-0.2-0.3-0.5-0.5-0.9-0.5c-0.6-0.1-1.2,0.1-1.7,0.5c-0.5,0.4-0.9,0.9-1,1.5
							c-0.1,0.4,0,0.8,0.2,1c0.2,0.3,0.5,0.5,0.9,0.5c0.6,0.1,1.2-0.1,1.7-0.5c0.5-0.4,0.9-0.9,1-1.5
							C168.8,381.6,168.8,381.2,168.6,381z"/>
					</g>
					<g id="XMLID_334_">
						<path class="st19" d="M154.1,371.5c-0.2,0.5-0.3,1.1-0.1,1.6c0.1,0.3,0.4,0.6,0.6,0.7c0.3,0.1,0.6,0.1,0.9,0
							c0.5-0.2,0.9-0.6,1.1-1.1c0.4-0.9,0.2-2-0.6-2.3C155.4,370,154.5,370.5,154.1,371.5z"/>
					</g>
					<g id="XMLID_330_">
						<path class="st19" d="M165,370.4c-0.2-0.1-0.4-0.2-0.7-0.1c-0.4,0.1-0.9,0.4-1.2,0.8c-0.6,0.8-0.6,1.7-0.1,2.1
							c0.2,0.1,0.4,0.2,0.7,0.1c0.4-0.1,0.9-0.4,1.2-0.8C165.5,371.7,165.6,370.8,165,370.4z"/>
					</g>
					<g id="XMLID_326_">
						<path class="st19" d="M174.4,361.7L174.4,361.7L174.4,361.7c-2.7,2.5-4.3,3.4-4.8,3.7c0.5-0.7,2-3.7,2.3-4.8
							c0.2-0.7-0.4-0.6-0.4-0.6c-5.5,8.5-8.3,8-11.3,8.1c-0.4,0-0.3,0.3-0.3,0.3c0.4,0.3,2.5,0.6,2.8,0.7c5.1,0.7,5,4.4,5.2,5.1
							c0,0,0.3,0.2,0.4-0.3c0.2-0.6,0.1-2.8-0.5-4.5c2-1.4,5.9-5.7,6.9-7.3C175.1,361.6,174.4,361.7,174.4,361.7z"/>
					</g>
					<g id="XMLID_322_">
						<path class="st19" d="M178.8,386.2c-1.2-2.9-4.8-6.5-6.5-7.9c4.7-4.6,9.1-10.5,10.6-13.9c0.4-0.9-0.4-0.7-0.4-0.7
							c-2.1,3-6.3,7.1-7.9,7.4c0.9-1.8,2.7-6.6,3-10.6c0.1-0.8-0.5-0.6-0.5-0.6c-5.9,15-10.2,17.2-14.6,19.4
							c-1.4,0.7-2.8,1.5-4.4,2.6c-0.7,0.5,0.2,0.8,0.2,0.8c6.5-3.7,13.1-5.1,20.5,4.1C178.5,386.9,179,386.8,178.8,386.2z"/>
					</g>
				</g>
				<path class="st21" d="M188.8,137.9c-2.7-1.3-5.4-2.6-8.1-3.9c-5.6-2.7-11.6-5.6-17.1-8.3l-1.7,28.6c0,0,0.1-0.1,0.2-0.1
					c1.7-1,3.4-2,5.1-3c0.3-0.2,0.3-0.2,0.3-0.2l1.1-15c0.1-1.1,0.6-1.4,1.5-0.9c4.1,1.9,9.5,4.5,13.6,6.5c0,0,0.6-0.4,1.4-0.8
					c0.3-0.2,0.6-0.3,0.9-0.5c1.1-0.7,2.2-1.3,3.4-2C189.1,138,189,137.9,188.8,137.9z M169.9,130.9c0,0-0.7,0.4-0.7,0.4l-0.3,0.2
					c-0.3-0.1-1.2-0.6-1.6-0.7c-0.7-0.2-1.1,0-1.2,0.8c0,0.5-0.1,1.3-0.1,1.7c0,0-0.1,0.1-0.3,0.2c-0.5,0.3-1,0.6-1.6,0.9
					c0.2-2.4,0.3-4.6,0.5-6.9l6,2.9C170.7,130.4,169.9,130.9,169.9,130.9z"/>
				<g id="GoFPfz.tif_4_">
					<g transform="matrix(1 -1.862645e-09 1.862645e-09 1 0 -7.629395e-06)">
						
							<image style="overflow:visible;" width="2230" height="1476" id="Livello_1_4_" xlink:href="D896A3DE49F15685.png"  transform="matrix(2.954838e-02 4.622155e-04 -4.622155e-04 2.954838e-02 218.4465 88.1076)">
						</image>
					</g>
				</g>
			</g>
			<g>
				<circle class="st28" cx="251.2" cy="256.2" r="86.2"/>
				<g>
					<line class="st29" x1="311.9" y1="195.9" x2="189.9" y2="315.6"/>
					<line class="st29" x1="311.4" y1="316.7" x2="191.7" y2="194.7"/>
					<line class="st29" x1="298.1" y1="184.3" x2="204" y2="327.1"/>
					<line class="st29" x1="322.9" y1="302.6" x2="180.2" y2="208.6"/>
					<line class="st29" x1="335.4" y1="238.3" x2="167.1" y2="272.5"/>
					<line class="st29" x1="268.3" y1="339.5" x2="234.3" y2="172.1"/>
					<line class="st29" x1="337.1" y1="254.2" x2="165.4" y2="254.9"/>
					<line class="st29" x1="250.7" y1="341.3" x2="251.8" y2="170.5"/>
					<line class="st29" x1="309.8" y1="216.6" x2="192.6" y2="294.2"/>
					<line class="st29" x1="290" y1="314" x2="212.4" y2="196.8"/>
					<line class="st29" x1="320.2" y1="269" x2="182.2" y2="241.8"/>
					<line class="st29" x1="237.6" y1="324.4" x2="264.8" y2="186.4"/>
					<line class="st29" x1="315.8" y1="283.1" x2="186.6" y2="227.7"/>
					<line class="st29" x1="223.5" y1="320" x2="278.9" y2="190.8"/>
					<line class="st29" x1="316.5" y1="229.3" x2="186" y2="281.5"/>
					<line class="st29" x1="277.4" y1="320.6" x2="225.1" y2="190.1"/>
					<g>
						<polygon class="st30" points="251.8,186.5 270.2,239.1 326.4,238.6 279.5,271.4 298.1,323.8 252.5,291.5 203.9,324.7 
							221.8,272 174,240 234.4,239.5 						"/>
						<polygon class="st28" points="252,204.2 266,244.6 308.8,244.2 272.7,269.3 287,309.6 252.4,284.8 214.7,310.2 228.3,269.7 
							191.8,245.3 238.6,244.8 						"/>
						<polygon class="st30" points="252,213 264,247.3 300,247 269.3,268.3 281.5,302.6 252.4,281.5 220.1,303.1 231.6,268.7 
							200.6,248 240.7,247.5 						"/>
						<g>
							<path d="M240.4,285.9c0-1.4-1.2-2.5-2.6-2.5l-5.6,0.1l0.1,8.7l1.2,0l0-3.5l3.3,0l2.4,3.5l1.4,0l-2.4-3.6
								C239.7,288.1,240.4,287.3,240.4,285.9z M238.8,287c-0.2,0.2-0.5,0.4-0.9,0.4l-4.4,0l0-2.8l4.5,0c1,0,1.2,0.8,1.2,1.4l0,0
								C239.2,286.3,239,286.7,238.8,287z"/>
							<path d="M249.3,289c0,1.2-1.4,1.9-2.8,1.9c-1.3,0-2.7-0.6-2.7-1.8l-0.1-5.8l-1.2,0l0.1,5.9c0,0.7,0.3,1.4,0.8,1.9
								c0.7,0.7,1.7,1,3,1c0,0,0,0,0.1,0c2.7-0.1,4-1,4-3l-0.1-5.9l-1.2,0L249.3,289z"/>
							<path d="M259,283.2l-5.6,0.1l0.1,8.7l1.2,0l0-3.6l4.3,0c1.2,0,2.2-1.1,2.2-2.4v0c0-0.7-0.3-1.5-0.9-2
								C259.9,283.4,259.4,283.2,259,283.2z M259.9,285.8L259.9,285.8c0,0.4-0.1,0.8-0.4,1c-0.1,0.1-0.3,0.2-0.4,0.2l-4.4,0l0-2.8
								l4.3,0C259.4,284.3,259.9,285.1,259.9,285.8z"/>
							<path d="M268.8,283.1l-5.6,0.1l0.1,8.7l1.2,0l0-3.6l4.3,0c1.2,0,2.2-1.1,2.2-2.4c0-0.7-0.3-1.5-0.9-2
								C269.7,283.3,269.3,283.1,268.8,283.1z M269.7,285.7L269.7,285.7c0,0.4-0.1,0.8-0.4,1c-0.1,0.1-0.3,0.2-0.4,0.2l-4.4,0l0-2.8
								l4.3,0C269.2,284.2,269.7,285,269.7,285.7z"/>
							<path d="M277.1,291.8c1.5,0,2.8-0.6,3.7-1.5c0.8-0.8,1.2-1.9,1.2-3c0-3.1-2.6-4.4-5-4.4c-1.4,0-2.7,0.6-3.6,1.5
								c-0.8,0.8-1.2,1.9-1.2,3C272.2,289.7,274.5,291.8,277.1,291.8z M273.4,287.3c0-1.8,1.9-3.3,3.6-3.3c0,0,0,0,0.1,0
								c1,0,2.1,0.4,2.8,1.1c0.6,0.6,0.9,1.3,0.9,2.1c0,0.8-0.3,1.6-0.9,2.2c-0.7,0.7-1.7,1.1-2.8,1.1c0,0,0,0,0,0
								C275.1,290.7,273.5,289.2,273.4,287.3z"/>
							<path d="M225.9,288.6l3,0l0,1.5c-0.2,0.2-1.2,1-2.9,1c-2.3,0-3.7-1.2-3.8-3.3c0-1.9,1.4-3.2,3.6-3.2c0,0,0.1,0,0.1,0
								c1.7,0,3.1,1,3.1,1l0.1,0.1l0.8-0.9l-0.2-0.1c-1.4-0.9-2.6-1.4-3.9-1.4c-1.4,0-2.7,0.5-3.7,1.5c-0.8,0.8-1.3,1.9-1.2,3
								c0,2.8,2,4.5,5,4.5c2.7,0,4-1.7,4.1-1.7l0,0l0-3l-4.2,0L225.9,288.6z"/>
							<g>
								<polygon class="st20" points="251.5,204.7 258.4,224.4 279.6,224.2 261.9,236.5 268.9,256.2 251.8,244.1 233.5,256.6 
									240.3,236.8 222.3,224.7 245,224.5 								"/>
								<polygon class="st28" points="251.6,211.3 256.9,226.5 272.9,226.3 259.4,235.8 264.8,250.9 251.8,241.6 237.6,251.1 
									242.7,235.9 229,226.7 246.6,226.6 								"/>
								<polygon class="st20" points="251.6,214.6 256.1,227.5 269.6,227.4 258.1,235.4 262.7,248.2 251.7,240.3 239.6,248.5 
									244,235.5 232.3,227.7 247.3,227.6 								"/>
							</g>
							<path d="M182.1,269c0-0.5,0.3-1.2,1.9-1.2c1.5,0,2.8,0.7,2.8,0.7l-0.3-3.1c-0.2,0.2-0.5,0.3-0.7,0.2
								c-0.5-0.1-1.3-0.2-2.2-0.2c-3.3,0-4.8,2-4.8,3.8c0,3.5,5.4,3.7,5.4,6.2c0,0.9-0.9,1.4-1.9,1.5c-2.2,0-3.7-1-3.7-1l0.4,3.1
								c0.3-0.1,0.5-0.1,0.8-0.1c0.7,0.2,1.8,0.4,2.9,0.4c3.2,0,4.8-1.8,4.8-3.9C187.5,270.9,182.1,271.1,182.1,269z"/>
							<path d="M294,265.8l0.1,12.1l3,0l-0.1-13.4l-3.6,0C293.4,264.6,293.9,264.9,294,265.8z"/>
							<path d="M291.3,269.1c0-2.4-2-4.4-4.4-4.4l-6.4,0.1c0,0,0.5,0.4,0.5,0.9l0.1,12.4l2.9,0l0-4.6l1.8,0l2.7,4.5l3.3,0l-2.9-5
								C290.4,272.3,291.4,270.8,291.3,269.1z M284,267.6l2.7,0c0.8,0,1.5,0.7,1.5,1.5c0,0.8-0.7,1.5-1.5,1.5l-2.7,0L284,267.6z"/>
							<path d="M276.2,271.4c0,0.3,0,2.2,0,2.2s-1.1,1.9-2.9,1.9c-1.4,0-3.5-1.3-3.5-3.8s1.8-4,3.4-4s2.6,1.1,2.6,1.1l1.3-2.7
								c0,0-1.5-1.6-4.1-1.5c-3.4,0-6.2,2.8-6.2,7s3.2,6.9,6.3,6.9s4.1-1.9,5.8-3.6l0-4.1l-3.3,0
								C275.7,270.8,276.2,271.1,276.2,271.4z"/>
							<path d="M317.9,264.1c-3.5,0-6.3,3.2-6.2,7c0,3.8,2.9,6.9,6.3,6.9c3.5,0,6.3-3.2,6.2-7C324.2,267.2,321.3,264.1,317.9,264.1z
								 M318,274.9c-1.7,0-3-1.6-3-3.8c0-2.2,1.3-3.8,3-3.8c1.7,0,3,1.6,3,3.8C321,273.2,319.6,274.8,318,274.9z"/>
							<path d="M307,271.6l-4-7l-3.9,0c0,0,0.5,0.3,0.6,1.2l0.1,12.1l2.8,0l-0.1-8.3l4.6,8.3l2.8,0l-0.1-13.4l-2.8,0L307,271.6z"/>
							<path d="M260.2,273l4,0l0-2.9l-4,0l0-2.3l5.2,0l-0.8-2.9l-7.8,0.1c0,0,0.5,0.3,0.5,1.2l0.1,12.2l7.7-0.1l0.7-3l-5.6,0.1
								L260.2,273z"/>
							<path d="M209.4,272.5l-4-7l-3.9,0c0,0,0.5,0.3,0.6,1.2l0.1,12.1l2.8,0l-0.1-8.3l4.6,8.3l2.8,0l-0.1-13.4l-2.8,0L209.4,272.5z
								"/>
							<path d="M250.1,265l-3.6,0c0,0,0.5,0.3,0.5,1.2l0.1,12.1l7.7-0.1l0.7-3l-5.3,0.1L250.1,265z"/>
							<path d="M191.5,265.6c0,0,0.7,0.4,0.5,1.2l-3.5,12.2l2.6,0l0.9-3.1l4.2,0l1,3.1l3.3,0l-4.5-13.3L191.5,265.6z M192.7,273.3
								l1.2-4.3l1.4,4.3L192.7,273.3z"/>
							<path d="M220.5,265.3l-6.4,0.1c0,0,0.5,0.3,0.5,1.2l0.1,12.1l2.9,0l0-4.6l2.9,0c2.4,0,4.4-2,4.4-4.4
								C224.9,267.2,222.9,265.3,220.5,265.3z M220.3,271.3l-2.7,0l0-3.1l2.7,0c0.8,0,1.5,0.7,1.5,1.5
								C221.8,270.6,221.1,271.2,220.3,271.3z"/>
							<path d="M239.9,265.1l-3.6,0c0,0,0.5,0.3,0.5,1.2l0.1,12.1l7.7-0.1l0.7-3l-5.3,0.1L239.9,265.1z"/>
							<path d="M229.3,273.3l4,0l0-2.9l-4,0l0-2.3l5.2,0l-0.8-2.9l-7.8,0.1c0,0,0.5,0.3,0.5,1.2l0.1,12.2l7.7-0.1l0.7-3l-5.6,0.1
								L229.3,273.3z"/>
						</g>
					</g>
				</g>
			</g>
		</g>
	</g>
	<g>
		<defs>
			<path id="SVGID_4_" d="M329.8,23l-78.6,233.2h273C524.2,256.2,442.4,17.8,329.8,23z"/>
		</defs>
		<clipPath id="SVGID_5_">
			<use xlink:href="#SVGID_4_"  style="overflow:visible;"/>
		</clipPath>
		<g class="st31">
			<g>
				<g>
					<path class="st32" d="M446.6,377c-0.3,0.5-0.6,0.9-0.9,1.4"/>
					<path class="st33" d="M443.9,381.2c-57.4,88.2-170.2,127.9-272.7,89.3C52.8,425.9-7.1,293.8,37.5,175.3
						C77.4,69.2,187.6,10.1,295.2,31"/>
					<path class="st32" d="M296.8,31.3c0.5,0.1,1.1,0.2,1.6,0.3"/>
				</g>
			</g>
			<circle class="st34" cx="446.6" cy="377" r="7"/>
			<polygon class="st34" points="300.6,32 299.8,24 311.1,33.8 297.3,39.3 			"/>
			<g>
				<g>
					<path class="st35" d="M251.3,47c114.7,0,208.1,92.4,209.2,207.3c1.1,115.6-91.7,210.1-207.3,211.2c-0.7,0-1.3,0-2,0
						c-114.7,0-208.1-92.4-209.2-207.3C40.9,142.6,133.7,48.1,249.3,47C249.9,47,250.6,47,251.3,47 M251.3,46.2
						C251.3,46.2,251.3,46.2,251.3,46.2C251.3,46.2,251.3,46.2,251.3,46.2C251.3,46.2,251.3,46.2,251.3,46.2L251.3,46.2
						c-0.7,0-1.3,0-2,0c-28.4,0.3-55.8,6.1-81.6,17.3c-24.9,10.8-47.2,26.2-66.4,45.7s-34,42.1-44.4,67.2
						c-10.7,26-16,53.6-15.7,81.9c0.3,28.2,6,55.5,17.1,81.2c10.7,24.8,25.9,47,45.2,66.1c19.3,19.1,41.7,34.1,66.6,44.5
						c25.8,10.8,53.1,16.3,81.2,16.3c0.7,0,1.3,0,2,0c28.4-0.3,55.8-6.1,81.6-17.3c24.9-10.8,47.2-26.2,66.4-45.7
						c19.1-19.5,34-42.1,44.4-67.2c10.7-26,16-53.6,15.7-81.9c-0.3-28.2-6-55.5-17.1-81.2c-10.7-24.8-25.9-47-45.2-66.1
						c-19.3-19.1-41.7-34.1-66.6-44.5C306.7,51.6,279.4,46.2,251.3,46.2L251.3,46.2L251.3,46.2z"/>
				</g>
				<line class="st36" x1="155.5" y1="225.4" x2="363.7" y2="292.5"/>
				<line class="st36" x1="261.2" y1="142.1" x2="241" y2="373.5"/>
				<line class="st36" x1="190.9" y1="175.8" x2="322.1" y2="350.8"/>
				<line class="st36" x1="319.2" y1="159.8" x2="190.4" y2="356.8"/>
				<line class="st36" x1="335.2" y1="174.4" x2="166.9" y2="338.4"/>
				<line class="st36" x1="237.9" y1="157.5" x2="266.9" y2="372.3"/>
				<line class="st37" x1="357" y1="204.3" x2="145.2" y2="308.3"/>
				<line class="st37" x1="367.4" y1="238.2" x2="137.4" y2="274"/>
				<g>
					<g>
						<path class="st38" d="M261.7,138c0.6,0.1,1.1,0.1,1.7,0.2"/>
						<path class="st39" d="M266.7,138.6c52.7,7.2,95.7,49.5,101.4,104.8c6.7,64.8-40.4,122.8-105.2,129.4
							c-57.5,5.9-109.6-30.5-125.3-84"/>
						<path class="st38" d="M137.1,287.2c-0.1-0.5-0.3-1.1-0.4-1.6"/>
					</g>
				</g>
				<circle class="st40" cx="261.7" cy="138" r="6.1"/>
				<polygon class="st40" points="136.4,284.6 130.7,288.2 133.8,276.1 143.1,284.5 				"/>
				<g>
					<path class="st41" d="M251.2,171.3c22.5,0,43.7,8.7,59.7,24.6c16,15.9,25,37,25.2,59.6c0.4,46.8-37.3,85.3-84.1,85.7
						c-0.3,0-0.5,0-0.8,0c-22.5,0-43.7-8.7-59.7-24.6c-16-15.9-25-37-25.2-59.6c-0.4-46.8,37.3-85.3,84.1-85.7
						C250.7,171.3,251,171.3,251.2,171.3L251.2,171.3 M251.2,163.3c-0.3,0-0.6,0-0.9,0c-51.3,0.5-92.5,42.5-92.1,93.8
						c0.5,51,42,92.1,92.9,92.1c0.3,0,0.6,0,0.9,0c51.3-0.5,92.5-42.5,92.1-93.8C343.7,204.3,302.2,163.3,251.2,163.3L251.2,163.3z"
						/>
				</g>
				<g>
					<g>
						<path class="st42" d="M251.2,163.7c24.5,0,47.7,9.5,65.1,26.8c17.5,17.3,27.2,40.3,27.4,64.9c0.5,51-40.7,93-91.7,93.4
							c-0.3,0-0.6,0-0.9,0c-24.5,0-47.7-9.5-65.1-26.8c-17.5-17.3-27.2-40.3-27.4-64.9c-0.2-24.7,9.2-48.1,26.5-65.7
							c17.3-17.6,40.5-27.5,65.2-27.7C250.7,163.7,251,163.7,251.2,163.7L251.2,163.7 M251.2,155.7c-0.3,0-0.6,0-1,0
							c-55.5,0.5-100.1,46-99.6,101.5c0.5,55.2,45.4,99.6,100.5,99.6c0.3,0,0.6,0,1,0c55.5-0.5,100.1-46,99.6-101.5
							C351.3,200.1,306.3,155.7,251.2,155.7L251.2,155.7z"/>
					</g>
				</g>
				<g>
					<g>
						<path class="st43" d="M251.2,156.6c26.4,0,51.3,10.2,70.1,28.8c18.8,18.6,29.3,43.4,29.5,69.8c0.3,26.6-9.9,51.7-28.5,70.7
							c-18.6,19-43.6,29.6-70.2,29.8c-0.3,0-0.6,0-1,0c-26.4,0-51.3-10.2-70.1-28.8c-18.8-18.6-29.3-43.4-29.5-69.8
							c-0.5-54.9,43.7-100,98.7-100.5C250.6,156.6,250.9,156.6,251.2,156.6L251.2,156.6 M251.2,148.6c-0.3,0-0.7,0-1,0
							c-59.4,0.6-107.1,49.2-106.6,108.6c0.6,59.1,48.6,106.6,107.6,106.6c0.3,0,0.7,0,1,0c59.4-0.6,107.1-49.2,106.6-108.6
							C358.3,196.1,310.2,148.6,251.2,148.6L251.2,148.6z"/>
					</g>
				</g>
				<g>
					<path class="st44" d="M112.8,357.3c-14.1-19.4-24.1-41.5-29.2-65c-6.2-28.8-5.1-59.5,4.7-89.5c5.9-18.1,14.6-34.5,25.4-49"/>
					<path class="st45" d="M305.8,418.7c-33.8,11.4-71.5,12.4-108,0.4c-35.5-11.6-64.6-33.7-85-61.8"/>
					<path class="st46" d="M422.6,256.7c-0.1,17.6-2.8,35.4-8.6,53c-17.5,53.4-58.8,92.4-108.2,109"/>
					<path class="st47" d="M389.6,155.2c21.2,29.1,33.1,64.7,33,101.5"/>
					<path class="st47" d="M303.8,93.1c0.3,0.1,0.5,0.2,0.8,0.3c35.5,11.6,64.6,33.7,85,61.8"/>
					<path class="st48" d="M113.8,153.8C156.4,96.6,232.3,70,303.8,93.1"/>
					<line class="st36" x1="78.8" y1="127.7" x2="308.9" y2="299"/>
					<line class="st36" x1="77.4" y1="383.2" x2="425" y2="129.3"/>
					<line class="st36" x1="77.4" y1="383.2" x2="425" y2="129.3"/>
					<line class="st49" x1="67.4" y1="255.8" x2="358.2" y2="257"/>
					<line class="st36" x1="184.1" y1="206.5" x2="400.7" y2="367"/>
					<line class="st36" x1="194" y1="85.7" x2="308.5" y2="426.8"/>
					<g>
						<g id="XMLID_318_">
							<path class="st50" d="M107.4,208c1.5-1.6,3.9-3.3,4-5.5c0.1-3.1-2.6-7.1-2.8-8.4c0,0,0.3-0.6,0.6,0.1c2.3,5,7.4,7.3,11,6.7
								c0,0,0.6,1.3,0.7,1.7c0.9,1,6.6,2.2,8.4,2.3c0,0,0.5,0.5-0.1,0.5c-3.3,0.2-6.3-0.2-7.6-0.5c-0.5-0.1-0.6,0.1-0.2,0.4
								c1.4,1.1,3.5,2.2,7.3,3.7c0,0,0.4,0.6-0.3,0.5c-3.9-0.7-15.2-5.5-15.4-5.3c-1.8,1.8-4.2,3.5-5.5,3.9
								C107.5,208.3,107.4,208,107.4,208z"/>
						</g>
						<g id="XMLID_314_">
							<path class="st50" d="M105.2,217.4c0.2-0.3,0.3-0.7,0.2-1c-0.1-0.5-0.5-1.1-1.1-1.4c-0.6-0.4-1.2-0.5-1.7-0.4
								c-0.4,0.1-0.7,0.3-0.9,0.6c-0.2,0.3-0.3,0.7-0.2,1c0.1,0.5,0.5,1.1,1.1,1.4c0.6,0.4,1.2,0.5,1.7,0.4
								C104.7,217.9,105,217.7,105.2,217.4z"/>
						</g>
						<g id="XMLID_310_">
							<path class="st50" d="M109.2,200.6c-0.6,0-1.1,0.1-1.5,0.5c-0.3,0.2-0.4,0.5-0.4,0.8c0,0.3,0.1,0.6,0.3,0.9
								c0.3,0.4,0.9,0.6,1.5,0.6c1,0.1,1.9-0.5,1.9-1.3C111,201.4,110.2,200.7,109.2,200.6z"/>
						</g>
						<g id="XMLID_306_">
							<path class="st50" d="M114,210.5c0.1-0.2,0-0.5-0.1-0.7c-0.2-0.4-0.7-0.7-1.2-0.9c-0.9-0.3-1.8,0-2,0.6
								c-0.1,0.2,0,0.5,0.1,0.7c0.2,0.4,0.7,0.7,1.2,0.9C112.9,211.4,113.8,211.1,114,210.5z"/>
						</g>
						<g id="XMLID_302_">
							<path class="st50" d="M125.3,216.4L125.3,216.4L125.3,216.4c-3.3-1.7-4.7-2.8-5.1-3.2c0.9,0.2,4.1,0.6,5.3,0.5
								c0.7-0.1,0.4-0.6,0.4-0.6c-9.9-2.2-10.4-5-11.5-7.8c-0.1-0.3-0.4-0.2-0.4-0.2c-0.1,0.5,0.3,2.6,0.3,2.9c1.1,5-2.4,6.2-3,6.6
								c0,0-0.1,0.3,0.4,0.3c0.6-0.1,2.6-0.8,4-2c1.9,1.4,7.4,3.5,9.3,4C125.6,217,125.3,216.4,125.3,216.4z"/>
						</g>
						<g id="XMLID_298_">
							<path class="st50" d="M103.8,228.8c2.3-2.1,4.5-6.7,5.2-8.8c5.9,2.8,13,4.9,16.6,5.2c1,0.1,0.5-0.7,0.5-0.7
								c-3.6-1-8.9-3.5-9.7-4.9c2,0.2,7.2,0.3,10.9-0.8c0.8-0.2,0.4-0.7,0.4-0.7c-16.1-0.4-19.6-3.7-23.2-7.1
								c-1.2-1.1-2.3-2.2-4-3.3c-0.8-0.5-0.7,0.4-0.7,0.4c5.7,4.8,9.3,10.6,3.2,20.6C103.1,228.8,103.3,229.3,103.8,228.8z"/>
						</g>
					</g>
					<g>
						<g id="XMLID_294_">
							<path class="st50" d="M341.8,380.9c-2.2,0.3-5.1,0.3-6.5,2c-1.9,2.4-2.1,7.2-2.8,8.4c0,0-0.6,0.3-0.4-0.4
								c1.1-5.4-1.6-10.3-4.9-11.9c0,0,0.3-1.4,0.4-1.8c-0.1-1.4-4-5.7-5.4-6.9c0,0-0.1-0.7,0.4-0.4c2.8,1.8,5,3.9,5.9,4.9
								c0.3,0.4,0.5,0.3,0.4-0.3c-0.4-1.7-1.5-3.9-3.7-7.4c0,0,0-0.7,0.5-0.2c2.8,2.9,9,13.4,9.3,13.4c2.6-0.4,5.5-0.3,6.7,0.1
								C341.9,380.5,341.8,380.9,341.8,380.9z"/>
						</g>
						<g id="XMLID_290_">
							<path class="st50" d="M349.2,374.5c-0.3,0.1-0.6,0.4-0.8,0.7c-0.2,0.5-0.2,1.2,0,1.8c0.2,0.6,0.7,1.1,1.2,1.3
								c0.4,0.2,0.7,0.2,1.1,0.1c0.3-0.1,0.6-0.4,0.8-0.7c0.2-0.5,0.2-1.2,0-1.8c-0.2-0.6-0.7-1.1-1.2-1.3
								C349.9,374.4,349.5,374.4,349.2,374.5z"/>
						</g>
						<g id="XMLID_286_">
							<path class="st50" d="M336.1,385.7c0.4,0.4,1,0.6,1.5,0.5c0.4,0,0.6-0.2,0.8-0.4c0.2-0.2,0.3-0.6,0.2-0.9
								c-0.1-0.5-0.3-1-0.8-1.4c-0.8-0.7-1.8-0.7-2.3-0.1C335,384.1,335.3,385.1,336.1,385.7z"/>
						</g>
						<g id="XMLID_282_">
							<path class="st50" d="M338.1,374.9c-0.2,0.1-0.3,0.4-0.3,0.6c-0.1,0.4,0.1,1,0.5,1.4c0.6,0.7,1.5,1,2,0.6
								c0.2-0.1,0.3-0.4,0.3-0.6c0.1-0.4-0.1-1-0.5-1.4C339.5,374.8,338.6,374.5,338.1,374.9z"/>
						</g>
						<g id="XMLID_278_">
							<path class="st50" d="M332.4,363.5L332.4,363.5L332.4,363.5c1.6,3.3,2.1,5.1,2.2,5.6c-0.6-0.7-3-3-3.9-3.5
								c-0.6-0.4-0.7,0.2-0.7,0.2c6.6,7.6,5.4,10.2,4.6,13.1c-0.1,0.4,0.2,0.4,0.2,0.4c0.4-0.3,1.3-2.3,1.4-2.5
								c2.1-4.7,5.6-3.5,6.3-3.6c0,0,0.2-0.2-0.1-0.4c-0.6-0.3-2.6-0.9-4.5-0.8c-0.7-2.3-3.9-7.2-5.1-8.7
								C332.5,362.8,332.4,363.5,332.4,363.5z"/>
						</g>
						<g id="XMLID_274_">
							<path class="st50" d="M357.1,366.2c-3.1,0.4-7.6,2.8-9.4,4c-3.1-5.8-7.5-11.7-10.3-14c-0.7-0.6-0.8,0.2-0.8,0.2
								c2.3,2.9,5.1,8.1,4.9,9.7c-1.5-1.4-5.6-4.5-9.3-5.8c-0.8-0.3-0.7,0.3-0.7,0.3c12.7,9.9,13.6,14.6,14.5,19.5
								c0.3,1.6,0.6,3.1,1.3,5c0.3,0.9,0.8,0.1,0.8,0.1c-1.7-7.3-1.2-14.1,9.7-18.5C357.7,366.7,357.7,366.1,357.1,366.2z"/>
						</g>
					</g>
					<g>
						<path class="st51" d="M339.6,123.4l-3.1,9.6l-10.1,0l8.2,6l-3.1,9.6l8.2-5.9l8.2,6l-3.1-9.6l8.2-5.9l-10.1,0L339.6,123.4z
							 M350.3,133.9l-6.6,4.8l2.5,7.8l-6.6-4.8l-6.6,4.8l2.6-7.8l-6.6-4.8l8.2,0l2.5-7.8l2.5,7.8L350.3,133.9z"/>
						<polygon class="st51" points="334.2,144.7 339.5,140.8 344.9,144.8 342.9,138.4 348.2,134.6 341.6,134.5 339.6,128.3 
							339.5,128.3 337.5,134.5 330.8,134.5 336.2,138.4 334.2,144.7 						"/>
					</g>
					<g>
						<path class="st51" d="M250.7,383.4l-3.1,9.6l-10.1,0l8.2,6l-3.1,9.6l8.2-5.9l8.2,6l-3.1-9.6l8.2-5.9l-10.1,0L250.7,383.4z
							 M261.4,393.8l-6.6,4.8l2.5,7.8l-6.6-4.8l-6.6,4.8l2.6-7.8l-6.6-4.8l8.2,0l2.5-7.8l2.5,7.8L261.4,393.8z"/>
						<polygon class="st51" points="245.3,404.6 250.7,400.8 256.1,404.7 254,398.4 259.4,394.5 252.8,394.5 250.7,388.2 
							250.7,388.2 248.7,394.4 242,394.4 247.4,398.3 245.3,404.6 						"/>
					</g>
					<path class="st52" d="M121.5,282.9c-1.8,2.4-3.6,4.8-5.4,7.2c-3.7,4.9-7.7,10.3-11.5,15.2l27.7,7.3c0,0-0.1-0.2-0.1-0.2
						c-0.6-1.9-1.3-3.8-2-5.6c-0.1-0.3-0.1-0.3-0.1-0.3l-14.5-4c-1-0.3-1.2-0.8-0.6-1.7c2.7-3.6,6.3-8.4,9-12c0,0-0.2-0.6-0.5-1.6
						c-0.1-0.3-0.2-0.6-0.3-1c-0.4-1.2-0.9-2.5-1.3-3.8C121.7,282.6,121.6,282.8,121.5,282.9z M111,300.1c0,0,0.3,0.8,0.3,0.8
						l0.1,0.3c-0.2,0.2-0.8,1.1-1,1.4c-0.4,0.6-0.2,1.1,0.5,1.3c0.4,0.1,1.2,0.3,1.7,0.4c0,0,0,0.1,0.1,0.4c0.2,0.5,0.4,1.1,0.6,1.7
						c-2.3-0.6-4.4-1.2-6.7-1.8l4.1-5.3C110.7,299.2,111,300.1,111,300.1z"/>
					<path class="st52" d="M374.3,312.2c2.9-0.8,5.8-1.7,8.7-2.5c5.9-1.7,12.4-3.5,18.3-5.2l-17.8-22.5c0,0,0,0.2-0.1,0.2
						c-0.6,1.9-1.2,3.8-1.8,5.7c-0.1,0.3-0.1,0.3-0.1,0.3l9.2,11.9c0.7,0.9,0.5,1.4-0.5,1.7c-4.3,1.3-10.1,2.9-14.4,4.2
						c0,0-0.2,0.6-0.5,1.6c-0.1,0.3-0.2,0.6-0.3,1c-0.4,1.2-0.8,2.5-1.2,3.8C374,312.3,374.1,312.3,374.3,312.2z M393.1,304.8
						c0,0,0.3-0.8,0.3-0.8l0.1-0.3c0.3-0.1,1.3-0.4,1.6-0.5c0.7-0.3,0.8-0.8,0.4-1.3c-0.3-0.4-0.8-1-1.1-1.4c0,0,0-0.1,0.1-0.4
						c0.2-0.5,0.3-1.1,0.6-1.7c1.4,1.9,2.8,3.6,4.2,5.5l-6.5,1.8C392.8,305.7,393.1,304.8,393.1,304.8z"/>
					<g>
						<path class="st53" d="M400.9,206.8c-0.4,1-0.9,2-1.8,2.7c-0.2,0.2-0.2,0.4-0.1,0.6c0.5,0.9,0.7,1.8,0.7,2.9
							c-1.3-1.6-2.9-2.8-4.8-3.7C397.1,208.8,399.1,207.9,400.9,206.8z"/>
						<path class="st53" d="M397.9,216.9c1.2-0.7,1.7-2.2,1.1-3.5c-0.4-0.9-1-1.7-1.9-2.3c-1.9-1.3-3.9-1.7-6.2-1.5
							c-1.1,0.1-2.1,0.4-3.1,0.8c-0.3,0.1-0.3,0.1-0.5-0.2c0,0,0-0.1,0-0.1c0.2-0.1,0.4-0.2,0.6-0.2c0.9-0.4,1.8-0.7,2.7-0.9
							c1.2-0.2,2.3-0.3,3.5-0.5c1.1-0.1,2.2-0.4,3.2-0.8c1-0.4,2-0.9,2.9-1.6c1.5-1.1,2.6-2.5,3.4-4.1c0.1-0.2,0.2-0.5,0.3-0.7
							c0,0,0,0,0,0c-1-0.3-2.1-0.4-3.2-0.4c-1.3,0-2.7,0.3-3.9,0.8c-0.9,0.4-1.7,0.8-2.5,1.4c-0.9,0.6-1.6,1.3-2.3,2.1
							c-1.1,1.3-2.3,2.5-3.7,3.4c-0.4,0.3-0.9,0.5-1.3,0.8c-0.1-0.2-0.2-0.3-0.3-0.4c0.1-0.1,0.1-0.1,0.2-0.1c0.5-0.3,0.9-0.6,1.4-1
							c1.9-1.5,3.1-3.5,3.5-5.9c0.2-1.3,0.1-2.6-0.6-3.9c-0.3-0.4-0.6-0.8-1-1c-1.1-0.7-2.6-0.4-3.6,0.6c-0.8,0.8-1.2,1.8-1.3,2.9
							c-0.2,0.9-0.3,1.9-0.5,2.8c-0.1,0.7-0.4,1.5-0.8,2.1c0,0,0,0.1,0,0.1c0.5,0,1-0.1,1.5-0.1c0-0.3,0-0.6,0.1-0.9
							c0.1-0.6,0.2-1.1,0.5-1.5c0.7-0.9,1.9-0.8,2.5,0.1c0.3,0.5,0.4,1.1,0.3,1.7c-0.2,1.1-0.7,2-1.6,2.7c-0.3,0.3-0.7,0.5-1,0.7
							c-0.3-0.3-0.5-0.6-0.7-0.8c-0.4-0.4-0.4-0.4-0.9-0.2c0,0,0,0,0,0c0,0.1-0.1,0.1-0.1,0.2c0,0.2,0.1,0.4,0.1,0.6
							c0.1,0.3,0.1,0.5,0.2,0.8c-0.5,0.1-0.9,0.1-1.4-0.1c-0.7-0.2-1.2-0.7-1.5-1.4c-0.1-0.2,0-0.4-0.1-0.7c-0.3,0-0.7,0.2-1,0.4
							c-0.6,0.5-0.8,1.3-0.3,2c0.4,0.6,1,0.9,1.6,1c0.9,0.1,1.7,0,2.6-0.3c0.3-0.1,0.3-0.1,0.5,0.2c0.1,0.1,0,0.2-0.1,0.2
							c-0.7,0.2-1.5,0.4-2.2,0.6c-0.5,0.1-1.1,0.3-1.5,0.6c-0.8,0.5-1.3,1.2-1.7,2c0.8-0.4,4.4-2.3,4.4-2.3s-0.7-0.2-1.6,0.1
							c-0.9,0.3-1.4,0.7-1.6,0.9c-0.1,0.1-0.1,0.1-0.1,0.1s0,0,0.1-0.1c0.2-0.2,0.9-0.8,1.6-1c1-0.3,1.9-0.1,1.9-0.1
							s-0.5,1.3-1.9,1.9c-0.7,0.3-1.9,0.3-2.7,0.5c0,0,0,0.1,0,0.1c0,0.1,0,0.1-0.1,0.2c0.4,0,0.8,0.1,1.1,0.1
							c0.9,0,1.7-0.1,2.4-0.6c0.4-0.3,0.8-0.6,1.2-1c0.5-0.4,0.9-0.8,1.5-1.1c0.1,0.1,0.2,0.3,0.2,0.4c0,0,0,0,0,0
							c-0.1,0.1-0.2,0.2-0.4,0.3c-0.7,0.6-1.3,1.2-1.7,2c-0.3,0.7-0.4,1.4,0,2c0.4,0.6,1.1,0.9,1.8,0.6c0.3-0.1,0.6-0.2,0.8-0.5
							c-1.2-0.6-1.2-2.6,0-3.5c0.2,0.2,0.4,0.5,0.6,0.7c0.4,0.4,0.4,0.4,0.9,0.2c0.1-0.1,0.2-0.1,0.1-0.3c-0.1-0.4-0.2-0.8-0.3-1.2
							c0-0.1,0-0.2,0.1-0.2c0.8-0.3,1.7-0.5,2.6-0.5c0.9,0.1,1.8,0.4,2.4,1.1c0.4,0.5,0.6,1,0.4,1.6c-0.2,0.8-1,1.2-1.9,1.1
							c-0.5-0.1-0.9-0.3-1.2-0.5c-0.2-0.1-0.5-0.3-0.7-0.5c-0.2,0.4-0.5,0.8-0.8,1c0,0-0.1,0.1-0.1,0.1c0.1,0,0.1,0.1,0.2,0.1
							c0.5,0,1,0.1,1.4,0.3c1,0.4,1.9,0.9,2.9,1.4c0.6,0.3,1.2,0.6,1.9,0.7C396,217.5,397,217.5,397.9,216.9z M387.7,201.8
							c-1.5-0.5-2.4,0.9-2.4,0.9s0.3-1.7,1.5-2.8c0.3-0.3,0.9-0.6,1.6-0.5c1,0.3,1.2,1.1,1.3,1.7c0.6,2.8-1,5.2-1,5.2
							C389.7,203.3,388.8,202.1,387.7,201.8z M390.7,203.3c1.4-3.9-0.5-5.6-1.3-5.9c-1.9-0.7-3.4,1.7-3.4,1.7s0.5-1.1,1.6-1.8
							c0.2-0.1,1-0.5,1.7-0.3c1,0.3,1.7,1.2,1.9,2c1.3,4.3-2.4,7.4-2.4,7.4C389.6,205.2,390.3,204.2,390.7,203.3z M381.3,208.4
							c-0.4-0.5,0-1.3,0-1.3c0.3,2.1,2.6,2,2.6,2S382.2,209.4,381.3,208.4z M402.7,201.7c0,0-2.3-0.4-5,0.5c-3,1-4.6,2.2-5.2,2.8
							c-0.2,0.2-0.3,0.3-0.3,0.3s0.1-0.1,0.3-0.3c0.8-0.7,3-2.5,5-3.2c3-1.1,5.9-0.3,5.9-0.3s-1.6,3.9-6.2,5.9c-2.2,1-6.4,1-8.8,1.8
							C388.3,209.1,402.7,201.7,402.7,201.7z M385.6,215.6c0,0-0.9-0.2-1.1-0.8c-0.3-1.3,1-2.5,1-2.5S384.1,214.1,385.6,215.6z
							 M394.8,215.6c-1.7,0.3-3.1-0.5-3.1-0.5s1.6,0,2.1-1.4c0.4-1,0-2.5-3-3.5c0,0,2.9,0.2,4.8,2.3c0.4,0.4,0.9,1.1,0.5,2.1
							C395.9,215.3,395.2,215.6,394.8,215.6z M397.3,216.5c-1.2,0.5-2.4,0.3-2.4,0.3s2.8,0.3,3.4-1.7c0.2-0.8,0-3.5-4-4.6
							c-1-0.3-2.2-0.3-3.6-0.3c0,0,4.7-1.2,7.4,2.4c0.5,0.6,0.8,1.7,0.4,2.7C398.3,216,397.5,216.4,397.3,216.5z"/>
					</g>
					<path class="st54" d="M195.8,425.3c-36.9-12.1-67.2-35.2-88.4-64.4l-29.9,21.9c25.6,35.2,62.2,63,106.7,77.6
						c45.7,15,92.8,13.8,135.2-0.4L307.6,425C272.5,436.7,233.6,437.7,195.8,425.3z"/>
					<path class="st55" d="M305.9,87l11.6-35.2c-89.9-29.1-185.1,4.1-238.6,75.9l29.7,22.2C152.9,90.5,231.6,63,305.9,87z"/>
					<path class="st56" d="M420.3,311.7C402,367.3,359,407.8,307.6,425l11.8,35.1c62.2-20.8,114.1-69.8,136.1-136.9
						c7.3-22.2,10.7-44.7,10.8-66.8l-37.1-0.1C429.1,274.7,426.3,293.3,420.3,311.7z"/>
					<path class="st57" d="M82.2,200.8c6.2-18.8,15.2-35.9,26.4-50.9l-29.7-22.2c-13.5,18.2-24.4,38.8-31.9,61.5
						c-22.4,68.3-8.7,139.7,30.5,193.6l29.9-21.9C75,316.3,63.7,257.2,82.2,200.8z"/>
					<path class="st58" d="M317.5,51.8L305.9,87c0.2,0.1,0.5,0.2,0.7,0.2c75,24.6,122.5,94.3,122.5,169.1l37.1,0.1
						c0.1-90.5-57.4-174.7-148-204.5C318,51.9,317.7,51.8,317.5,51.8z"/>
					<g>
						<g id="XMLID_270_">
							<path class="st50" d="M160.4,375.6c-0.9-2-1.8-4.8-3.8-5.7c-2.8-1.2-7.5,0.1-8.9-0.3c0,0-0.4-0.5,0.3-0.5
								c5.5-0.5,9.4-4.5,10.1-8.1c0,0,1.4-0.1,1.9-0.1c1.3-0.5,4.4-5.5,5.1-7.1c0,0,0.6-0.3,0.5,0.2c-0.9,3.2-2.4,5.9-3.1,7
								c-0.3,0.4-0.1,0.6,0.3,0.3c1.5-0.9,3.3-2.5,6-5.6c0,0,0.7-0.2,0.4,0.4c-2,3.5-10.4,12.4-10.2,12.7c1.1,2.4,1.8,5.2,1.8,6.5
								C160.8,375.7,160.4,375.6,160.4,375.6z"/>
						</g>
						<g id="XMLID_266_">
							<path class="st50" d="M168.6,381c-0.2-0.3-0.5-0.5-0.9-0.5c-0.6-0.1-1.2,0.1-1.7,0.5c-0.5,0.4-0.9,0.9-1,1.5
								c-0.1,0.4,0,0.8,0.2,1c0.2,0.3,0.5,0.5,0.9,0.5c0.6,0.1,1.2-0.1,1.7-0.5c0.5-0.4,0.9-0.9,1-1.5
								C168.8,381.6,168.8,381.2,168.6,381z"/>
						</g>
						<g id="XMLID_262_">
							<path class="st50" d="M154.1,371.5c-0.2,0.5-0.3,1.1-0.1,1.6c0.1,0.3,0.4,0.6,0.6,0.7c0.3,0.1,0.6,0.1,0.9,0
								c0.5-0.2,0.9-0.6,1.1-1.1c0.4-0.9,0.2-2-0.6-2.3C155.4,370,154.5,370.5,154.1,371.5z"/>
						</g>
						<g id="XMLID_258_">
							<path class="st50" d="M165,370.4c-0.2-0.1-0.4-0.2-0.7-0.1c-0.4,0.1-0.9,0.4-1.2,0.8c-0.6,0.8-0.6,1.7-0.1,2.1
								c0.2,0.1,0.4,0.2,0.7,0.1c0.4-0.1,0.9-0.4,1.2-0.8C165.5,371.7,165.6,370.8,165,370.4z"/>
						</g>
						<g id="XMLID_250_">
							<path class="st50" d="M174.4,361.7L174.4,361.7L174.4,361.7c-2.7,2.5-4.3,3.4-4.8,3.7c0.5-0.7,2-3.7,2.3-4.8
								c0.2-0.7-0.4-0.6-0.4-0.6c-5.5,8.5-8.3,8-11.3,8.1c-0.4,0-0.3,0.3-0.3,0.3c0.4,0.3,2.5,0.6,2.8,0.7c5.1,0.7,5,4.4,5.2,5.1
								c0,0,0.3,0.2,0.4-0.3c0.2-0.6,0.1-2.8-0.5-4.5c2-1.4,5.9-5.7,6.9-7.3C175.1,361.6,174.4,361.7,174.4,361.7z"/>
						</g>
						<g id="XMLID_246_">
							<path class="st50" d="M178.8,386.2c-1.2-2.9-4.8-6.5-6.5-7.9c4.7-4.6,9.1-10.5,10.6-13.9c0.4-0.9-0.4-0.7-0.4-0.7
								c-2.1,3-6.3,7.1-7.9,7.4c0.9-1.8,2.7-6.6,3-10.6c0.1-0.8-0.5-0.6-0.5-0.6c-5.9,15-10.2,17.2-14.6,19.4
								c-1.4,0.7-2.8,1.5-4.4,2.6c-0.7,0.5,0.2,0.8,0.2,0.8c6.5-3.7,13.1-5.1,20.5,4.1C178.5,386.9,179,386.8,178.8,386.2z"/>
						</g>
					</g>
					<path class="st52" d="M188.8,137.9c-2.7-1.3-5.4-2.6-8.1-3.9c-5.6-2.7-11.6-5.6-17.1-8.3l-1.7,28.6c0,0,0.1-0.1,0.2-0.1
						c1.7-1,3.4-2,5.1-3c0.3-0.2,0.3-0.2,0.3-0.2l1.1-15c0.1-1.1,0.6-1.4,1.5-0.9c4.1,1.9,9.5,4.5,13.6,6.5c0,0,0.6-0.4,1.4-0.8
						c0.3-0.2,0.6-0.3,0.9-0.5c1.1-0.7,2.2-1.3,3.4-2C189.1,138,189,137.9,188.8,137.9z M169.9,130.9c0,0-0.7,0.4-0.7,0.4l-0.3,0.2
						c-0.3-0.1-1.2-0.6-1.6-0.7c-0.7-0.2-1.1,0-1.2,0.8c0,0.5-0.1,1.3-0.1,1.7c0,0-0.1,0.1-0.3,0.2c-0.5,0.3-1,0.6-1.6,0.9
						c0.2-2.4,0.3-4.6,0.5-6.9l6,2.9C170.7,130.4,169.9,130.9,169.9,130.9z"/>
					<g id="GoFPfz.tif_3_">
						
							<image style="overflow:visible;" width="2230" height="1476" id="Livello_1_3_" xlink:href="D896A3DE49F15687.png"  transform="matrix(2.954838e-02 4.622155e-04 -4.622155e-04 2.954838e-02 218.4465 88.1076)">
						</image>
					</g>
				</g>
				<g>
					<circle class="st28" cx="251.2" cy="256.2" r="86.2"/>
					<g>
						<line class="st59" x1="311.9" y1="195.9" x2="189.9" y2="315.6"/>
						<line class="st59" x1="311.4" y1="316.7" x2="191.7" y2="194.7"/>
						<line class="st59" x1="298.1" y1="184.3" x2="204" y2="327.1"/>
						<line class="st59" x1="322.9" y1="302.6" x2="180.2" y2="208.6"/>
						<line class="st59" x1="335.4" y1="238.3" x2="167.1" y2="272.5"/>
						<line class="st59" x1="268.3" y1="339.5" x2="234.3" y2="172.1"/>
						<line class="st59" x1="337.1" y1="254.2" x2="165.4" y2="254.9"/>
						<line class="st59" x1="250.7" y1="341.3" x2="251.8" y2="170.5"/>
						<line class="st59" x1="309.8" y1="216.6" x2="192.6" y2="294.2"/>
						<line class="st59" x1="290" y1="314" x2="212.4" y2="196.8"/>
						<line class="st59" x1="320.2" y1="269" x2="182.2" y2="241.8"/>
						<line class="st59" x1="237.6" y1="324.4" x2="264.8" y2="186.4"/>
						<line class="st59" x1="315.8" y1="283.1" x2="186.6" y2="227.7"/>
						<line class="st59" x1="223.5" y1="320" x2="278.9" y2="190.8"/>
						<line class="st59" x1="316.5" y1="229.3" x2="186" y2="281.5"/>
						<line class="st59" x1="277.4" y1="320.6" x2="225.1" y2="190.1"/>
						<g>
							<polygon class="st60" points="251.8,186.5 270.2,239.1 326.4,238.6 279.5,271.4 298.1,323.8 252.5,291.5 203.9,324.7 
								221.8,272 174,240 234.4,239.5 							"/>
							<polygon class="st28" points="252,204.2 266,244.6 308.8,244.2 272.7,269.3 287,309.6 252.4,284.8 214.7,310.2 228.3,269.7 
								191.8,245.3 238.6,244.8 							"/>
							<polygon class="st60" points="252,213 264,247.3 300,247 269.3,268.3 281.5,302.6 252.4,281.5 220.1,303.1 231.6,268.7 
								200.6,248 240.7,247.5 							"/>
							<g>
								<path class="st41" d="M240.4,285.9c0-1.4-1.2-2.5-2.6-2.5l-5.6,0.1l0.1,8.7l1.2,0l0-3.5l3.3,0l2.4,3.5l1.4,0l-2.4-3.6
									C239.7,288.1,240.4,287.3,240.4,285.9z M238.8,287c-0.2,0.2-0.5,0.4-0.9,0.4l-4.4,0l0-2.8l4.5,0c1,0,1.2,0.8,1.2,1.4l0,0
									C239.2,286.3,239,286.7,238.8,287z"/>
								<path class="st41" d="M249.3,289c0,1.2-1.4,1.9-2.8,1.9c-1.3,0-2.7-0.6-2.7-1.8l-0.1-5.8l-1.2,0l0.1,5.9
									c0,0.7,0.3,1.4,0.8,1.9c0.7,0.7,1.7,1,3,1c0,0,0,0,0.1,0c2.7-0.1,4-1,4-3l-0.1-5.9l-1.2,0L249.3,289z"/>
								<path class="st41" d="M259,283.2l-5.6,0.1l0.1,8.7l1.2,0l0-3.6l4.3,0c1.2,0,2.2-1.1,2.2-2.4v0c0-0.7-0.3-1.5-0.9-2
									C259.9,283.4,259.4,283.2,259,283.2z M259.9,285.8L259.9,285.8c0,0.4-0.1,0.8-0.4,1c-0.1,0.1-0.3,0.2-0.4,0.2l-4.4,0l0-2.8
									l4.3,0C259.4,284.3,259.9,285.1,259.9,285.8z"/>
								<path class="st41" d="M268.8,283.1l-5.6,0.1l0.1,8.7l1.2,0l0-3.6l4.3,0c1.2,0,2.2-1.1,2.2-2.4c0-0.7-0.3-1.5-0.9-2
									C269.7,283.3,269.3,283.1,268.8,283.1z M269.7,285.7L269.7,285.7c0,0.4-0.1,0.8-0.4,1c-0.1,0.1-0.3,0.2-0.4,0.2l-4.4,0
									l0-2.8l4.3,0C269.2,284.2,269.7,285,269.7,285.7z"/>
								<path class="st41" d="M277.1,291.8c1.5,0,2.8-0.6,3.7-1.5c0.8-0.8,1.2-1.9,1.2-3c0-3.1-2.6-4.4-5-4.4
									c-1.4,0-2.7,0.6-3.6,1.5c-0.8,0.8-1.2,1.9-1.2,3C272.2,289.7,274.5,291.8,277.1,291.8z M273.4,287.3c0-1.8,1.9-3.3,3.6-3.3
									c0,0,0,0,0.1,0c1,0,2.1,0.4,2.8,1.1c0.6,0.6,0.9,1.3,0.9,2.1c0,0.8-0.3,1.6-0.9,2.2c-0.7,0.7-1.7,1.1-2.8,1.1c0,0,0,0,0,0
									C275.1,290.7,273.5,289.2,273.4,287.3z"/>
								<path class="st41" d="M225.9,288.6l3,0l0,1.5c-0.2,0.2-1.2,1-2.9,1c-2.3,0-3.7-1.2-3.8-3.3c0-1.9,1.4-3.2,3.6-3.2
									c0,0,0.1,0,0.1,0c1.7,0,3.1,1,3.1,1l0.1,0.1l0.8-0.9l-0.2-0.1c-1.4-0.9-2.6-1.4-3.9-1.4c-1.4,0-2.7,0.5-3.7,1.5
									c-0.8,0.8-1.3,1.9-1.2,3c0,2.8,2,4.5,5,4.5c2.7,0,4-1.7,4.1-1.7l0,0l0-3l-4.2,0L225.9,288.6z"/>
								<g>
									<polygon class="st51" points="251.5,204.7 258.4,224.4 279.6,224.2 261.9,236.5 268.9,256.2 251.8,244.1 233.5,256.6 
										240.3,236.8 222.3,224.7 245,224.5 									"/>
									<polygon class="st28" points="251.6,211.3 256.9,226.5 272.9,226.3 259.4,235.8 264.8,250.9 251.8,241.6 237.6,251.1 
										242.7,235.9 229,226.7 246.6,226.6 									"/>
									<polygon class="st51" points="251.6,214.6 256.1,227.5 269.6,227.4 258.1,235.4 262.7,248.2 251.7,240.3 239.6,248.5 
										244,235.5 232.3,227.7 247.3,227.6 									"/>
								</g>
								<path class="st41" d="M182.1,269c0-0.5,0.3-1.2,1.9-1.2c1.5,0,2.8,0.7,2.8,0.7l-0.3-3.1c-0.2,0.2-0.5,0.3-0.7,0.2
									c-0.5-0.1-1.3-0.2-2.2-0.2c-3.3,0-4.8,2-4.8,3.8c0,3.5,5.4,3.7,5.4,6.2c0,0.9-0.9,1.4-1.9,1.5c-2.2,0-3.7-1-3.7-1l0.4,3.1
									c0.3-0.1,0.5-0.1,0.8-0.1c0.7,0.2,1.8,0.4,2.9,0.4c3.2,0,4.8-1.8,4.8-3.9C187.5,270.9,182.1,271.1,182.1,269z"/>
								<path class="st41" d="M294,265.8l0.1,12.1l3,0l-0.1-13.4l-3.6,0C293.4,264.6,293.9,264.9,294,265.8z"/>
								<path class="st41" d="M291.3,269.1c0-2.4-2-4.4-4.4-4.4l-6.4,0.1c0,0,0.5,0.4,0.5,0.9l0.1,12.4l2.9,0l0-4.6l1.8,0l2.7,4.5
									l3.3,0l-2.9-5C290.4,272.3,291.4,270.8,291.3,269.1z M284,267.6l2.7,0c0.8,0,1.5,0.7,1.5,1.5c0,0.8-0.7,1.5-1.5,1.5l-2.7,0
									L284,267.6z"/>
								<path class="st41" d="M276.2,271.4c0,0.3,0,2.2,0,2.2s-1.1,1.9-2.9,1.9c-1.4,0-3.5-1.3-3.5-3.8s1.8-4,3.4-4s2.6,1.1,2.6,1.1
									l1.3-2.7c0,0-1.5-1.6-4.1-1.5c-3.4,0-6.2,2.8-6.2,7s3.2,6.9,6.3,6.9s4.1-1.9,5.8-3.6l0-4.1l-3.3,0
									C275.7,270.8,276.2,271.1,276.2,271.4z"/>
								<path class="st41" d="M317.9,264.1c-3.5,0-6.3,3.2-6.2,7c0,3.8,2.9,6.9,6.3,6.9c3.5,0,6.3-3.2,6.2-7
									C324.2,267.2,321.3,264.1,317.9,264.1z M318,274.9c-1.7,0-3-1.6-3-3.8c0-2.2,1.3-3.8,3-3.8c1.7,0,3,1.6,3,3.8
									C321,273.2,319.6,274.8,318,274.9z"/>
								<path class="st41" d="M307,271.6l-4-7l-3.9,0c0,0,0.5,0.3,0.6,1.2l0.1,12.1l2.8,0l-0.1-8.3l4.6,8.3l2.8,0l-0.1-13.4l-2.8,0
									L307,271.6z"/>
								<path class="st41" d="M260.2,273l4,0l0-2.9l-4,0l0-2.3l5.2,0l-0.8-2.9l-7.8,0.1c0,0,0.5,0.3,0.5,1.2l0.1,12.2l7.7-0.1l0.7-3
									l-5.6,0.1L260.2,273z"/>
								<path class="st41" d="M209.4,272.5l-4-7l-3.9,0c0,0,0.5,0.3,0.6,1.2l0.1,12.1l2.8,0l-0.1-8.3l4.6,8.3l2.8,0l-0.1-13.4
									l-2.8,0L209.4,272.5z"/>
								<path class="st41" d="M250.1,265l-3.6,0c0,0,0.5,0.3,0.5,1.2l0.1,12.1l7.7-0.1l0.7-3l-5.3,0.1L250.1,265z"/>
								<path class="st41" d="M191.5,265.6c0,0,0.7,0.4,0.5,1.2l-3.5,12.2l2.6,0l0.9-3.1l4.2,0l1,3.1l3.3,0l-4.5-13.3L191.5,265.6z
									 M192.7,273.3l1.2-4.3l1.4,4.3L192.7,273.3z"/>
								<path class="st41" d="M220.5,265.3l-6.4,0.1c0,0,0.5,0.3,0.5,1.2l0.1,12.1l2.9,0l0-4.6l2.9,0c2.4,0,4.4-2,4.4-4.4
									C224.9,267.2,222.9,265.3,220.5,265.3z M220.3,271.3l-2.7,0l0-3.1l2.7,0c0.8,0,1.5,0.7,1.5,1.5
									C221.8,270.6,221.1,271.2,220.3,271.3z"/>
								<path class="st41" d="M239.9,265.1l-3.6,0c0,0,0.5,0.3,0.5,1.2l0.1,12.1l7.7-0.1l0.7-3l-5.3,0.1L239.9,265.1z"/>
								<path class="st41" d="M229.3,273.3l4,0l0-2.9l-4,0l0-2.3l5.2,0l-0.8-2.9l-7.8,0.1c0,0,0.5,0.3,0.5,1.2l0.1,12.2l7.7-0.1
									l0.7-3l-5.6,0.1L229.3,273.3z"/>
							</g>
						</g>
					</g>
				</g>
			</g>
		</g>
	</g>
	<polyline class="st47" points="1127.2,256.2 251.2,256.2 329.7,23 	"/>
</g>
<g>
	<g>
		<g>
			<path class="st61" d="M1145.2,250.1l-10.8,0l-3.4-10.1l-3.4,10.1l-11.6,0l9.1,6.2l-3.5,10.1l9.4-6.3l8.7,6.3l-3.5-10.1
				L1145.2,250.1z M1137.5,263.6l-6.6-4.8l-7.3,4.8l2.7-7.7l-7-4.8l9,0l2.6-7.8l2.6,7.8l8.2,0l-7,4.8L1137.5,263.6z M1140.1,251.7
				l-6.9,0l-2.2-6.6l-2.2,6.6l-7.7,0l5.9,4l-2.3,6.6l6.2-4.1l5.6,4.1l-2.3-6.6L1140.1,251.7z"/>
		</g>
	</g>
</g>
<g>
	<path class="st62" d="M479.9,130.6h-3.5v-3.3h15.9c6.7,0,11.7,4.4,11.7,11.4c0,7-4.9,11.5-11.7,11.5h-8.7V165h-3.8V130.6z
		 M491.8,146.9c5,0,8.3-3.1,8.3-8.2c0-5.1-3.3-8.1-8.2-8.1h-8.3v16.3H491.8z"/>
	<path class="st62" d="M516.3,130.6h-3.5v-3.3h16c6.3,0,10.8,4.2,10.8,10.7c0,5.9-3.6,9.3-7.3,10.1v0.1c0,0,0.8,0.4,1.3,1.5
		l5.4,10.7c0.5,1.1,1.3,1.2,2.7,1.2h0.8v3.3h-1.7c-3.1,0-4-0.4-5.2-2.8l-5.4-10.8c-1-2-1.7-2.3-3.8-2.3h-6.3V165h-3.8V130.6z
		 M528.4,145.8c4.5,0,7.3-3,7.3-7.7c0-4.7-2.8-7.5-7.2-7.5h-8.4v15.2H528.4z"/>
	<path class="st62" d="M569.5,126.6c10.7,0,19.2,8.4,19.2,19.3c0,11.1-8.5,19.8-19.2,19.8c-10.7,0-19.2-8.7-19.2-19.8
		C550.3,135,558.8,126.6,569.5,126.6z M569.5,162.1c8.4,0,15.3-7.1,15.3-16.2c0-8.9-6.9-15.7-15.3-15.7c-8.5,0-15.3,6.8-15.3,15.7
		C554.2,155,561,162.1,569.5,162.1z"/>
	<path class="st62" d="M601.8,130.6h-3.5v-3.3h15.1c11.4,0,19,6.9,19,18.8c0,12-7.6,18.9-19,18.9h-8.4c-2.3,0-3.3-1-3.3-3.3V130.6z
		 M606.8,161.7h6.3c9.3,0,15.4-5.5,15.4-15.6c0-10-6.2-15.5-15.4-15.5h-7.5v29.9C605.6,161.3,606,161.7,606.8,161.7z"/>
	<path class="st62" d="M645.2,131.8c0-0.8-0.4-1.2-1.2-1.2h-2.3v-3.3h4c2.3,0,3.3,1,3.3,3.3v21.4c0,6.3,4,10.2,10.1,10.2
		c6.2,0,10.2-3.9,10.2-10.3v-21.3c0-2.3,1-3.3,3.3-3.3h4v3.3h-2.3c-0.8,0-1.2,0.4-1.2,1.2v20.3c0,8.2-5.6,13.6-13.9,13.6
		c-8.3,0-14-5.4-14-13.6V131.8z"/>
	<path class="st62" d="M684.7,162.4L705,134c1.4-2,2.7-3.4,2.7-3.4v-0.1c0,0-0.9,0.1-2.7,0.1h-15c-0.8,0-1.2,0.4-1.2,1.2v2.5h-3.5
		v-3.8c0-2.3,1-3.3,3.3-3.3h23.8v2.6l-20.2,28.3c-1.4,2-2.8,3.4-2.8,3.4v0.1c0,0,0.9-0.1,2.8-0.1h16.3c0.8,0,1.2-0.4,1.2-1.2V158
		h3.5v3.8c0,2.3-1,3.3-3.3,3.3h-25.1V162.4z"/>
	<path class="st62" d="M722.4,161.7h3.5v-31.1h-3.5v-3.3h10.8v3.3h-3.6v31.1h3.6v3.3h-10.8V161.7z"/>
	<path class="st62" d="M762.3,126.6c10.7,0,19.2,8.4,19.2,19.3c0,11.1-8.5,19.8-19.2,19.8c-10.7,0-19.2-8.7-19.2-19.8
		C743.1,135,751.6,126.6,762.3,126.6z M762.3,162.1c8.4,0,15.3-7.1,15.3-16.2c0-8.9-6.9-15.7-15.3-15.7c-8.5,0-15.3,6.8-15.3,15.7
		C747,155,753.8,162.1,762.3,162.1z"/>
	<path class="st62" d="M791.1,161.7h2.3c0.8,0,1.2-0.4,1.2-1.2v-33.2h3.4l19.3,26.9c1.3,1.9,3.1,4.9,3.1,4.9h0.1c0,0-0.3-3-0.3-4.9
		v-23.6c0-2.3,1-3.3,3.3-3.3h4v3.3h-2.3c-0.8,0-1.2,0.4-1.2,1.2V165h-3.4l-19.3-26.9c-1.3-1.8-3.1-4.9-3.1-4.9h-0.1
		c0,0,0.3,2.9,0.3,4.9v23.6c0,2.3-1,3.3-3.3,3.3h-4V161.7z"/>
	<path class="st62" d="M840.8,130.6h-3.5v-3.3h21.6c2.3,0,3.3,1,3.3,3.3v3.8h-3.5v-2.5c0-0.8-0.4-1.2-1.2-1.2h-12.9v13.7h14.2v3.3
		h-14.2v12.8c0,0.8,0.4,1.2,1.2,1.2H859c0.8,0,1.2-0.4,1.2-1.2V158h3.5v3.8c0,2.3-1,3.3-3.3,3.3h-16.3c-2.3,0-3.3-1-3.3-3.3V130.6z"
		/>
	<path class="st62" d="M479.9,184.3h-3.5V181H498c2.3,0,3.3,1,3.3,3.3v3.8h-3.5v-2.5c0-0.8-0.4-1.2-1.2-1.2h-12.9V198h14.2v3.3
		h-14.2v12.8c0,0.8,0.4,1.2,1.2,1.2h13.3c0.8,0,1.2-0.4,1.2-1.2v-2.5h3.5v3.8c0,2.3-1,3.3-3.3,3.3h-16.3c-2.3,0-3.3-1-3.3-3.3V184.3
		z"/>
	<path class="st62" d="M531.9,215.4h3.5v-31.1h-3.5V181h10.8v3.3h-3.6v31.1h3.6v3.3h-10.8V215.4z"/>
	<path class="st62" d="M551.7,215.4h2c0.8,0,1.1-0.4,1.2-1.2l2.6-33.2h3.8l10,22c0.9,1.9,1.9,4.5,1.9,4.5h0.1c0,0,1-2.5,1.8-4.5
		l10-22h3.8l2.6,33.2c0.1,0.8,0.4,1.2,1.2,1.2h2v3.3h-3.7c-2.3,0-3.1-1-3.3-3.3l-1.8-22.9c-0.2-2-0.2-5.3-0.2-5.3h-0.1
		c0,0-1,3.3-1.9,5.3l-9,19.2h-3.4l-8.9-19.2c-0.9-1.9-2-5.4-2-5.4h-0.1c0,0,0,3.3-0.2,5.4l-1.8,22.9c-0.2,2.3-1,3.3-3.3,3.3h-3.6
		V215.4z"/>
	<path class="st62" d="M606.9,184.3h-3.5V181h16.1c5.9,0,10.2,3.6,10.2,9.5c0,4.1-2.1,6.9-4.8,8.2v0.1c3.9,1.1,6.3,4.8,6.3,9.3
		c0,6.7-4.9,10.6-11.3,10.6h-9.7c-2.3,0-3.3-1-3.3-3.3V184.3z M619.4,197.3c3.8,0,6.4-2.7,6.4-6.6c0-3.9-2.5-6.4-6.4-6.4h-8.7v13
		H619.4z M611.8,215.4h8.1c4.6,0,7.4-2.8,7.4-7.4c0-4.5-3-7.5-7.4-7.5h-9.2v13.6C610.6,215,611.1,215.4,611.8,215.4z"/>
	<path class="st62" d="M660.4,180.3c10.7,0,19.2,8.4,19.2,19.3c0,11.1-8.5,19.8-19.2,19.8c-10.7,0-19.2-8.7-19.2-19.8
		C641.2,188.7,649.7,180.3,660.4,180.3z M660.4,215.8c8.4,0,15.3-7.1,15.3-16.2c0-8.9-6.9-15.7-15.3-15.7c-8.5,0-15.3,6.8-15.3,15.7
		C645.1,208.7,651.9,215.8,660.4,215.8z"/>
	<path class="st62" d="M700.7,184.3h-9.3c-0.8,0-1.2,0.3-1.2,1.2v2.5h-3.4v-4c0-2.3,0.8-3.1,3.1-3.1h25.6c2.3,0,3.1,0.8,3.1,3.1v4
		H715v-2.5c0-0.9-0.4-1.2-1.2-1.2h-9.3v34.4h-3.8V184.3z"/>
	<path class="st62" d="M739.4,184.3H730c-0.8,0-1.2,0.3-1.2,1.2v2.5h-3.4v-4c0-2.3,0.8-3.1,3.1-3.1H754c2.3,0,3.1,0.8,3.1,3.1v4
		h-3.5v-2.5c0-0.9-0.4-1.2-1.2-1.2h-9.3v34.4h-3.8V184.3z"/>
	<path class="st62" d="M765.7,215.4h3.5v-31.1h-3.5V181h10.8v3.3h-3.6v31.1h3.6v3.3h-10.8V215.4z"/>
	<path class="st62" d="M805.3,180.3c8.8,0,13.2,4.6,13.2,4.6l-2.2,2.8c0,0-4.2-3.9-11-3.9c-8.5,0-15,6.8-15,15.9
		c0,9.3,6.4,16.1,14.9,16.1c7.5,0,11.9-5.5,11.9-5.5v-4.7c0-0.8-0.4-1.2-1.2-1.2h-2.3v-3.3h3.8c2.3,0,3.3,1,3.3,3.3v14.3h-3.4v-2.8
		c0-0.8,0.1-1.6,0.1-1.6h-0.1c0,0-4.4,5.1-12.3,5.1c-10.3,0-18.5-8.3-18.5-19.6C786.5,188.9,794.6,180.3,805.3,180.3z"/>
	<path class="st62" d="M834.4,185.5c0-0.8-0.4-1.2-1.2-1.2h-2.3V181h4c2.3,0,3.3,1,3.3,3.3v30c0,0.8,0.4,1.2,1.2,1.2h12.5
		c0.8,0,1.2-0.4,1.2-1.2v-2.5h3.5v3.8c0,2.3-1,3.3-3.3,3.3h-15.6c-2.3,0-3.3-1-3.3-3.3V185.5z"/>
	<path class="st62" d="M864.9,215.4h3.5v-31.1h-3.5V181h10.8v3.3h-3.6v31.1h3.6v3.3h-10.8V215.4z"/>
	<path class="st62" d="M884.2,215.4h0.7c1,0,1.6-0.2,1.9-1.2l12.3-33.2h4l12.3,33.2c0.4,1,0.9,1.2,1.9,1.2h0.6v3.3h-1.7
		c-2.7,0-3.5-0.5-4.5-3.1l-3.3-8.9h-15l-3.3,8.9c-1,2.6-1.7,3.1-4.4,3.1h-1.8V215.4z M907.6,203.4l-5-13.5c-0.6-1.8-1.4-4.9-1.4-4.9
		h-0.1c0,0-0.8,3.1-1.4,4.9l-4.9,13.5H907.6z"/>
	<path class="st62" d="M925.4,215.4h2c0.8,0,1.1-0.4,1.2-1.2l2.6-33.2h3.8l10,22c0.9,1.9,1.9,4.5,1.9,4.5h0.1c0,0,1-2.5,1.8-4.5
		l10-22h3.8l2.6,33.2c0.1,0.8,0.4,1.2,1.2,1.2h2v3.3h-3.7c-2.3,0-3.1-1-3.3-3.3l-1.8-22.9c-0.2-2-0.2-5.3-0.2-5.3h-0.1
		c0,0-1,3.3-1.9,5.3l-9,19.2h-3.4l-8.9-19.2c-0.9-1.9-2-5.4-2-5.4h-0.1c0,0,0,3.3-0.2,5.4l-1.8,22.9c-0.2,2.3-1,3.3-3.3,3.3h-3.6
		V215.4z"/>
	<path class="st62" d="M980.7,184.3h-3.5V181h21.6c2.3,0,3.3,1,3.3,3.3v3.8h-3.5v-2.5c0-0.8-0.4-1.2-1.2-1.2h-12.9V198h14.2v3.3
		h-14.2v12.8c0,0.8,0.4,1.2,1.2,1.2h13.3c0.8,0,1.2-0.4,1.2-1.2v-2.5h3.5v3.8c0,2.3-1,3.3-3.3,3.3h-16.3c-2.3,0-3.3-1-3.3-3.3V184.3
		z"/>
	<path class="st62" d="M1012.5,215.4h2.3c0.8,0,1.2-0.4,1.2-1.2V181h3.4l19.3,26.9c1.3,1.9,3.1,4.9,3.1,4.9h0.1c0,0-0.3-3-0.3-4.9
		v-23.6c0-2.3,1-3.3,3.3-3.3h4v3.3h-2.3c-0.8,0-1.2,0.4-1.2,1.2v33.2h-3.4l-19.3-26.9c-1.3-1.8-3.1-4.9-3.1-4.9h-0.1
		c0,0,0.3,2.9,0.3,4.9v23.6c0,2.3-1,3.3-3.3,3.3h-4V215.4z"/>
	<path class="st62" d="M1071.2,184.3h-9.3c-0.8,0-1.2,0.3-1.2,1.2v2.5h-3.4v-4c0-2.3,0.8-3.1,3.1-3.1h25.6c2.3,0,3.1,0.8,3.1,3.1v4
		h-3.5v-2.5c0-0.9-0.4-1.2-1.2-1.2h-9.3v34.4h-3.8V184.3z"/>
	<path class="st62" d="M1115.3,180.3c10.7,0,19.2,8.4,19.2,19.3c0,11.1-8.5,19.8-19.2,19.8c-10.7,0-19.2-8.7-19.2-19.8
		C1096.1,188.7,1104.6,180.3,1115.3,180.3z M1115.3,215.8c8.4,0,15.3-7.1,15.3-16.2c0-8.9-6.9-15.7-15.3-15.7
		c-8.5,0-15.3,6.8-15.3,15.7C1100,208.7,1106.8,215.8,1115.3,215.8z"/>
</g>
</svg>
