<svg baseProfile="basic" xmlns="http://www.w3.org/2000/svg" viewBox="0 0 880 476"><style type="text/css">.st0{fill:#E8E2DD;} .st1{fill:#AFA0AE;} .st2{fill:#FFFFFF;} .st3{fill:none;stroke:#AFA0AE;stroke-width:2;stroke-miterlimit:10;} .st4{fill:#AEA0AE;} .st5{fill:#AC9EAD;} .st6{fill:none;stroke:#AC9EAD;stroke-width:2;stroke-linecap:round;stroke-linejoin:round;stroke-miterlimit:10;stroke-dasharray:0,3.8487;}</style><path class="st0" d="M775.5 246.2h-764.8c-4.5 0-8.2-3.7-8.2-8.2v-.8c0-4.5 3.7-8.2 8.2-8.2h764.8c4.5 0 8.2 3.7 8.2 8.2v.8c0 4.5-3.7 8.2-8.2 8.2z"/><circle class="st1" cx="557" cy="128.3" r="101.5"/><path class="st2" d="M510.5 96.4h1c.3 0 .5-.2.5-.5v-14.9h1.5l8.6 12c.6.8 1.4 2.2 1.4 2.2s-.1-1.3-.1-2.2v-10.6c0-1 .4-1.5 1.5-1.5h1.8v1.5h-1c-.3 0-.5.2-.5.5v14.9h-1.5l-8.6-12c-.6-.8-1.4-2.2-1.4-2.2s.1 1.3.1 2.2v10.6c0 1-.4 1.5-1.5 1.5h-1.8v-1.5zM534.5 85.5c3.3 0 5.1 2.6 5.1 5.6v.8h-9.3c0 3 2.2 4.8 4.7 4.8 2.2 0 3.6-1.5 3.6-1.5l.8 1.2s-1.8 1.7-4.5 1.7c-3.6 0-6.3-2.6-6.3-6.3-.1-3.9 2.6-6.3 5.9-6.3zm3.4 5.1c-.1-2.5-1.6-3.7-3.4-3.7-2 0-3.7 1.3-4.2 3.7h7.6zM542.8 82.9c0-.3-.2-.5-.5-.5h-1v-1.4h1.7c1 0 1.5.4 1.5 1.5v13.5c0 .4.2.5.5.5h1v1.4h-1.7c-1 0-1.5-.4-1.5-1.5v-13.5zM563.1 85.4c0-1.8-1.3-3.2-3.5-3.2-1.7 0-3 .9-3 1.8v.8h-1.6v-1.2c0-2.1 2.9-3 4.6-3 3.2 0 5.1 2.1 5.1 4.7 0 5.9-8.9 5.8-8.9 10.5 0 .3.2.5.6.5h7.1c.3 0 .5-.2.5-.5v-1.1h1.6v1.7c0 1-.4 1.5-1.5 1.5h-8.4c-1.2 0-1.5-.5-1.5-1.7-.1-6.3 8.9-5.8 8.9-10.8zM568 89.4c0-4.8 1.4-8.7 5.8-8.7s5.8 3.9 5.8 8.7c0 4.9-1.4 8.7-5.8 8.7s-5.8-3.8-5.8-8.7zm9.9 0c0-4-.9-7.2-4.1-7.2s-4.1 3.1-4.1 7.2c0 4 .9 7.2 4.1 7.2s4.1-3.2 4.1-7.2zM582.2 96.4h3.8v-13.3s-.2.4-.8 1l-1.8 1.8-1.1-1.1 3.8-3.8h1.6v15.4h3.7v1.5h-9.1v-1.5h-.1zM592.8 90.4c0-4.3 2.2-9.7 7.4-9.7 1.8 0 3.1.7 3.1.7l-.6 1.5s-1.1-.6-2.4-.6c-3.5 0-5.3 3.5-5.6 6.9.8-1.3 2.5-2 4.3-2 3.1 0 5.3 2.2 5.3 5.4 0 3.5-2.4 5.6-5.3 5.6-3.8-.1-6.2-3.4-6.2-7.8zm6.1 6.2c2.3 0 3.6-1.7 3.6-4.1s-1.5-3.9-3.8-3.9-4.1 1.5-4.1 2.9c0 2.2 1.8 5.1 4.3 5.1zM490.7 143h7.2v-25.5h-.1s-.3.7-1.6 1.9l-3.5 3.5-2-2.1 7.3-7.3h3v29.5h7.1v2.9h-17.5l.1-2.9zM511.7 129.7c0-9.3 2.7-16.7 11.1-16.7 8.4 0 11.2 7.4 11.2 16.7 0 9.4-2.8 16.7-11.2 16.7-8.4 0-11.1-7.4-11.1-16.7zm19 0c0-7.7-1.7-13.7-7.9-13.7-6.1 0-7.9 6-7.9 13.7s1.7 13.8 7.9 13.8c6.2-.1 7.9-6.1 7.9-13.8zM538 142.2h3.5v3.7h-3.5v-3.7zM546.5 129.7c0-9.3 2.7-16.7 11.1-16.7 8.4 0 11.2 7.4 11.2 16.7 0 9.4-2.8 16.7-11.2 16.7-8.4 0-11.1-7.4-11.1-16.7zm19 0c0-7.7-1.7-13.7-7.9-13.7-6.1 0-7.9 6-7.9 13.7s1.7 13.8 7.9 13.8c6.2-.1 7.9-6.1 7.9-13.8zM574.2 129.7c0-9.3 2.7-16.7 11.1-16.7 8.4 0 11.2 7.4 11.2 16.7 0 9.4-2.8 16.7-11.2 16.7-8.4 0-11.1-7.4-11.1-16.7zm19 0c0-7.7-1.7-13.7-7.9-13.7-6.1 0-7.9 6-7.9 13.7s1.7 13.8 7.9 13.8c6.2-.1 7.9-6.1 7.9-13.8zM601.9 129.7c0-9.3 2.7-16.7 11.1-16.7 8.4 0 11.2 7.4 11.2 16.7 0 9.4-2.8 16.7-11.2 16.7s-11.1-7.4-11.1-16.7zm19 0c0-7.7-1.7-13.7-7.9-13.7-6.1 0-7.9 6-7.9 13.7s1.7 13.8 7.9 13.8c6.2-.1 7.9-6.1 7.9-13.8zM514.7 166.1c0-.4-.2-.6-.6-.6h-1.1v-1.5h1.8c1.1 0 1.6.5 1.6 1.4v.9h.1s1-2.6 4.5-2.6 5.7 2.8 5.7 6.9-2.5 6.8-5.8 6.8c-3.2 0-4.3-2.5-4.3-2.5h-.1s.1.5.1 1.1v6.2h-1.8v-16.1h-.1zm5.9 9.7c2.3 0 4.2-2 4.2-5.3 0-3.2-1.7-5.3-4.1-5.3-2.2 0-4.2 1.6-4.2 5.3 0 2.7 1.4 5.3 4.1 5.3zM535.2 163.7c3.6 0 5.5 2.8 5.5 6 0 .3-.1.9-.1.9h-10c.1 3.3 2.4 5.2 5.1 5.2 2.4 0 3.9-1.6 3.9-1.6l.9 1.3s-1.9 1.9-4.9 1.9c-3.9 0-6.8-2.8-6.8-6.8 0-4.4 2.9-6.9 6.4-6.9zm3.7 5.5c-.1-2.7-1.8-4-3.7-4-2.2 0-4.1 1.4-4.5 4h8.2zM549 163.7c3.2 0 4.3 2.4 4.3 2.4h.1s-.1-.4-.1-1v-4.2c0-.4-.2-.6-.6-.6h-1.1v-1.5h1.8c1.1 0 1.6.5 1.6 1.6v14.6c0 .4.2.6.6.6h1.1v1.5h-1.8c-1.1 0-1.6-.5-1.6-1.5 0-.5.1-.8.1-.8h-.1s-1.1 2.6-4.5 2.6c-3.5 0-5.7-2.8-5.7-6.9s2.4-6.8 5.9-6.8zm4.3 6.8c0-2.7-1.4-5.3-4.2-5.3-2.3 0-4.2 2-4.2 5.3 0 3.2 1.7 5.3 4.1 5.3 2.2 0 4.3-1.6 4.3-5.3zM559.7 166.1c0-.4-.2-.6-.6-.6h-1.1v-1.5h1.8c1.1 0 1.6.5 1.6 1.6v9.4c0 .4.2.6.6.6h1.1v1.5h-1.8c-1.1 0-1.6-.5-1.6-1.6v-9.4zm-.1-7.3h1.7v2.2h-1.7v-2.2zM572.8 169h.7v-.2c0-2.7-1-3.7-3.4-3.7-.7 0-2.5.2-2.5 1.1v.8h-1.6v-1.2c0-1.8 3.1-2.2 4.3-2.2 4.1 0 5.1 2.2 5.1 5v6.3c0 .4.2.6.6.6h1.1v1.5h-1.8c-1.1 0-1.6-.5-1.6-1.6v-1h-.1s-1.1 2.8-4.3 2.8c-2.2 0-4.4-1.3-4.4-3.9-.1-4.2 5.7-4.3 7.9-4.3zm-3.2 6.9c2.5 0 4-2.6 4-4.9v-.6h-.8c-2.1 0-6.2.1-6.2 3 .1 1.2 1 2.5 3 2.5zM580 165.5h-1.7v-1.5h1.7v-3.6h1.7v3.6h3.3v1.5h-3.3v6.7c0 3.1 1.9 3.5 2.9 3.5.4 0 .6-.1.6-.1v1.6s-.3.1-.8.1c-1.5 0-4.5-.5-4.5-4.9l.1-6.9zM588.5 166.1c0-.4-.2-.6-.6-.6h-1.1v-1.5h1.8c1.1 0 1.6.4 1.6 1.5v.9c0 .5-.1 1-.1 1h.1c.6-2 2.1-3.5 4.1-3.5.4 0 .7.1.7.1v1.7s-.3-.1-.7-.1c-1.8 0-3.2 1.5-3.8 3.4-.3.8-.4 1.7-.4 2.5v5.5h-1.8v-10.9h.2zM598.1 166.1c0-.4-.2-.6-.6-.6h-1.1v-1.5h1.8c1.1 0 1.6.5 1.6 1.6v9.4c0 .4.2.6.6.6h1.1v1.5h-1.8c-1.1 0-1.6-.5-1.6-1.6v-9.4zm-.1-7.3h1.7v2.2h-1.7v-2.2z"/><circle class="st1" cx="776" cy="128.3" r="101.5"/><path class="st2" d="M730 96.4h1c.3 0 .5-.2.5-.5v-14.9h1.5l8.6 12c.6.8 1.4 2.2 1.4 2.2s-.1-1.3-.1-2.2v-10.6c0-1 .4-1.5 1.5-1.5h1.8v1.5h-1c-.3 0-.5.2-.5.5v14.9h-1.5l-8.6-12c-.6-.8-1.4-2.2-1.4-2.2s.1 1.3.1 2.2v10.6c0 1-.4 1.5-1.5 1.5h-1.8v-1.5zM754 85.5c3.3 0 5.1 2.6 5.1 5.6v.8h-9.3c0 3 2.2 4.8 4.7 4.8 2.2 0 3.6-1.5 3.6-1.5l.8 1.2s-1.8 1.7-4.5 1.7c-3.6 0-6.3-2.6-6.3-6.3 0-3.9 2.7-6.3 5.9-6.3zm3.4 5.1c-.1-2.5-1.6-3.7-3.4-3.7-2 0-3.7 1.3-4.2 3.7h7.6zM762.3 82.9c0-.3-.2-.5-.5-.5h-1v-1.4h1.7c1 0 1.5.4 1.5 1.5v13.5c0 .4.2.5.5.5h1v1.4h-1.7c-1 0-1.5-.4-1.5-1.5v-13.5zM782.6 85.4c0-1.8-1.3-3.2-3.5-3.2-1.7 0-3 .9-3 1.8v.8h-1.6v-1.2c0-2.1 2.9-3 4.6-3 3.2 0 5.1 2.1 5.1 4.7 0 5.9-8.9 5.8-8.9 10.5 0 .3.2.5.6.5h7.1c.3 0 .5-.2.5-.5v-1.1h1.6v1.7c0 1-.4 1.5-1.5 1.5h-8.4c-1.2 0-1.5-.5-1.5-1.7 0-6.3 8.9-5.8 8.9-10.8zM787.5 89.4c0-4.8 1.4-8.7 5.8-8.7s5.8 3.9 5.8 8.7c0 4.9-1.4 8.7-5.8 8.7s-5.8-3.8-5.8-8.7zm9.9 0c0-4-.9-7.2-4.1-7.2-3.2 0-4.1 3.1-4.1 7.2 0 4 .9 7.2 4.1 7.2 3.2 0 4.1-3.2 4.1-7.2zM801.7 96.4h3.8v-13.3s-.2.4-.8 1l-1.8 1.8-1.1-1.1 3.8-3.8h1.6v15.4h3.7v1.5h-9.1v-1.5h-.1zM820.6 84c.5-.9.9-1.6.9-1.6h-7.3999999999999995c-.3 0-.5.2-.5.5v1.1h-1.6v-1.7c0-1 .4-1.5 1.4-1.5h10v1.2l-8.4 15.7h-1.9l7.5-13.7zM709.4 143h7.2v-25.5h-.1s-.3.7-1.6 1.9l-3.4 3.5-2-2.1 7.3-7.3h3v29.5h7.1v2.9h-17.5v-2.9zM735.9 128.2c0-.1-4.4-2.2-4.4-6.8 0-4.5 3.5-8.5 9.8-8.5 6.1 0 9.9 3.6 9.9 8.6 0 4.9-4.3 8-4.3 8v.1c3 1.6 5.2 3.6 5.2 7.4 0 5.1-4.7 9.3-10.9 9.3-5.7 0-11-3.5-11-9.7 0-5.5 5.7-8.4 5.7-8.4zm5.3 15.2c3.8 0 7.5-2.6 7.5-6.4 0-3.4-2.8-4.7-6.2-6.1-1.2-.5-3.4-1.3-3.8-1.3-1.2 0-5.3 2.9-5.3 6.9.1 4.3 3.8 6.9 7.8 6.9zm2.6-15.2c1.2 0 4.1-3.2 4.1-6.5 0-3.5-2.8-5.7-6.7-5.7-4.1 0-6.5 2.4-6.5 5.5 0 3.4 2.9 4.6 6.2 5.9.8.2 2.3.8 2.9.8zM757.4 142.2h3.5v3.7h-3.5v-3.7zM765.9 129.7c0-9.3 2.7-16.7 11.1-16.7s11.2 7.4 11.2 16.7c0 9.4-2.8 16.7-11.2 16.7s-11.1-7.4-11.1-16.7zm19 0c0-7.7-1.7-13.7-7.9-13.7s-7.9 6-7.9 13.7 1.7 13.8 7.9 13.8 7.9-6.1 7.9-13.8zM793.6 129.7c0-9.3 2.7-16.7 11.1-16.7 8.4 0 11.2 7.4 11.2 16.7 0 9.4-2.8 16.7-11.2 16.7-8.4 0-11.1-7.4-11.1-16.7zm19 0c0-7.7-1.7-13.7-7.9-13.7-6.1 0-7.9 6-7.9 13.7s1.7 13.8 7.9 13.8c6.1-.1 7.9-6.1 7.9-13.8zM821.3 129.7c0-9.3 2.7-16.7 11.1-16.7 8.4 0 11.2 7.4 11.2 16.7 0 9.4-2.8 16.7-11.2 16.7-8.4 0-11.1-7.4-11.1-16.7zm19 0c0-7.7-1.7-13.7-7.9-13.7-6.1 0-7.9 6-7.9 13.7s1.7 13.8 7.9 13.8c6.1-.1 7.9-6.1 7.9-13.8zM733.7 166.1c0-.4-.2-.6-.6-.6h-1.1v-1.5h1.8c1.1 0 1.6.5 1.6 1.4v.9h.1s1-2.6 4.5-2.6 5.7 2.8 5.7 6.9-2.5 6.8-5.8 6.8c-3.2 0-4.3-2.5-4.3-2.5h-.1s.1.5.1 1.1v6.2h-1.8v-16.1h-.1zm5.9 9.7c2.3 0 4.2-2 4.2-5.3 0-3.2-1.7-5.3-4.1-5.3-2.2 0-4.2 1.6-4.2 5.3 0 2.7 1.4 5.3 4.1 5.3zM754.2 163.7c3.6 0 5.5 2.8 5.5 6 0 .3-.1.9-.1.9h-10c.1 3.3 2.4 5.2 5.1 5.2 2.4 0 3.9-1.6 3.9-1.6l.9 1.3s-1.9 1.9-4.9 1.9c-3.9 0-6.8-2.8-6.8-6.8 0-4.4 2.9-6.9 6.4-6.9zm3.7 5.5c-.1-2.7-1.8-4-3.7-4-2.2 0-4.1 1.4-4.5 4h8.2zM768 163.7c3.2 0 4.3 2.4 4.3 2.4h.1s-.1-.4-.1-1v-4.2c0-.4-.2-.6-.6-.6h-1.1v-1.5h1.8c1.1 0 1.6.5 1.6 1.6v14.6c0 .4.2.6.6.6h1.1v1.5h-1.8c-1.1 0-1.6-.5-1.6-1.5 0-.5.1-.8.1-.8h-.1s-1.1 2.6-4.5 2.6c-3.5 0-5.7-2.8-5.7-6.9s2.4-6.8 5.9-6.8zm4.3 6.8c0-2.7-1.4-5.3-4.2-5.3-2.3 0-4.2 2-4.2 5.3 0 3.2 1.7 5.3 4.1 5.3 2.2 0 4.3-1.6 4.3-5.3zM778.7 166.1c0-.4-.2-.6-.6-.6h-1.1v-1.5h1.8c1.1 0 1.6.5 1.6 1.6v9.4c0 .4.2.6.6.6h1.1v1.5h-1.8c-1.1 0-1.6-.5-1.6-1.6v-9.4zm-.1-7.3h1.7v2.2h-1.7v-2.2zM791.8 169h.7v-.2c0-2.7-1-3.7-3.4-3.7-.7 0-2.5.2-2.5 1.1v.8h-1.6v-1.2c0-1.8 3.1-2.2 4.3-2.2 4.1 0 5.1 2.2 5.1 5v6.3c0 .4.2.6.6.6h1.1v1.5h-1.8c-1.1 0-1.6-.5-1.6-1.6v-1h-.1s-1.1 2.8-4.3 2.8c-2.2 0-4.4-1.3-4.4-3.9-.1-4.2 5.7-4.3 7.9-4.3zm-3.2 6.9c2.5 0 4-2.6 4-4.9v-.6h-.8c-2.1 0-6.2.1-6.2 3 .1 1.2 1 2.5 3 2.5zM799 165.5h-1.7v-1.5h1.7v-3.6h1.7v3.6h3.3v1.5h-3.3v6.7c0 3.1 1.9 3.5 2.9 3.5.4 0 .6-.1.6-.1v1.6s-.3.1-.8.1c-1.5 0-4.5-.5-4.5-4.9l.1-6.9zM807.5 166.1c0-.4-.2-.6-.6-.6h-1.1v-1.5h1.8c1.1 0 1.6.4 1.6 1.5v.9c0 .5-.1 1-.1 1h.1c.6-2 2.1-3.5 4.1-3.5.4 0 .7.1.7.1v1.7s-.3-.1-.7-.1c-1.8 0-3.2 1.5-3.8 3.4-.3.8-.4 1.7-.4 2.5v5.5h-1.8v-10.9h.2zM817.1 166.1c0-.4-.2-.6-.6-.6h-1.1v-1.5h1.8c1.1 0 1.6.5 1.6 1.6v9.4c0 .4.2.6.6.6h1.1v1.5h-1.8c-1.1 0-1.6-.5-1.6-1.6v-9.4zm-.1-7.3h1.7v2.2h-1.7v-2.2z"/><ellipse transform="matrix(.16 -.987 .987 .16 214.323 508.506)" class="st3" cx="406" cy="128.3" rx="25.6" ry="25.6"/><path class="st4" d="M408.9 120.7c-.4-.4-1-.4-1.3 0-.4.4-.4.9 0 1.3l6.7 6.6h-22.3c-.5 0-.9.4-.9.9s.4.9.9.9h22.3l-6.7 6.6c-.4.4-.4 1 0 1.3.4.4 1 .4 1.3 0l8.3-8.2c.4-.4.4-.9 0-1.3l-8.3-8.1z"/><circle class="st1" cx="557" cy="347.7" r="101.5"/><path class="st2" d="M490.9 327.7c.9-1.7 1.8-3 1.8-3v-.1s-.8.1-2.4.1h-11.6c-.6 0-1 .3-1 1v2.2h-3v-3.2c0-2 .8-2.8 2.8-2.8h19.1v2.2l-16 30.1h-3.6l13.9-26.5zM498.6 338c0-9.3 2.7-16.7 11.1-16.7 8.4 0 11.2 7.4 11.2 16.7 0 9.4-2.8 16.7-11.2 16.7-8.4 0-11.1-7.3-11.1-16.7zm19 0c0-7.7-1.7-13.7-7.9-13.7-6.1 0-7.9 6-7.9 13.7s1.7 13.8 7.9 13.8c6.1 0 7.9-6.1 7.9-13.8zM526.3 338c0-9.3 2.7-16.7 11.1-16.7 8.4 0 11.2 7.4 11.2 16.7 0 9.4-2.8 16.7-11.2 16.7-8.4 0-11.1-7.3-11.1-16.7zm19 0c0-7.7-1.7-13.7-7.9-13.7-6.1 0-7.9 6-7.9 13.7s1.7 13.8 7.9 13.8c6.1 0 7.9-6.1 7.9-13.8zM552.6 350.5h3.5v3.7h-3.5v-3.7zM561.1 338c0-9.3 2.7-16.7 11.1-16.7 8.4 0 11.2 7.4 11.2 16.7 0 9.4-2.8 16.7-11.2 16.7-8.4 0-11.1-7.3-11.1-16.7zm19 0c0-7.7-1.7-13.7-7.9-13.7-6.1 0-7.9 6-7.9 13.7s1.7 13.8 7.9 13.8c6.1 0 7.9-6.1 7.9-13.8zM588.8 338c0-9.3 2.7-16.7 11.1-16.7 8.4 0 11.2 7.4 11.2 16.7 0 9.4-2.8 16.7-11.2 16.7-8.4 0-11.1-7.3-11.1-16.7zm19 0c0-7.7-1.7-13.7-7.9-13.7-6.1 0-7.9 6-7.9 13.7s1.7 13.8 7.9 13.8c6.1 0 7.9-6.1 7.9-13.8zM616.5 338c0-9.3 2.7-16.7 11.1-16.7 8.4 0 11.2 7.4 11.2 16.7 0 9.4-2.8 16.7-11.2 16.7-8.4 0-11.1-7.3-11.1-16.7zm19 0c0-7.7-1.7-13.7-7.9-13.7-6.1 0-7.9 6-7.9 13.7s1.7 13.8 7.9 13.8c6.1 0 7.9-6.1 7.9-13.8zM498 382.2s1.5 2 4 2c1.5 0 2.8-.7 2.8-2.1 0-2.9-7.3-2.3-7.3-6.6 0-2.4 2-3.5 4.7-3.5 1.3 0 4 .5 4 2.4v1.1h-1.7v-.6c0-1-1.4-1.3-2.3-1.3-1.8 0-2.9.6-2.9 1.9 0 2.9 7.3 2.3 7.3 6.6 0 2.2-2 3.7-4.6 3.7-3.4 0-5-2.3-5-2.3l1-1.3zM515.2 372c3.6 0 5.5 2.8 5.5 6 0 .3-.1.9-.1.9h-10c.1 3.3 2.4 5.2 5.1 5.2 2.4 0 3.9-1.6 3.9-1.6l.9 1.3s-1.9 1.9-4.9 1.9c-3.9 0-6.8-2.8-6.8-6.8-.1-4.3 2.9-6.9 6.4-6.9zm3.6 5.5c-.1-2.7-1.8-4-3.7-4-2.2 0-4.1 1.4-4.5 4h8.2zM523.7 382.2s1.5 2 4 2c1.5 0 2.8-.7 2.8-2.1 0-2.9-7.3-2.3-7.3-6.6 0-2.4 2-3.5 4.7-3.5 1.3 0 4 .5 4 2.4v1.1h-1.7v-.6c0-1-1.4-1.3-2.3-1.3-1.8 0-2.9.6-2.9 1.9 0 2.9 7.3 2.3 7.3 6.6 0 2.2-2 3.7-4.6 3.7-3.4 0-5-2.3-5-2.3l1-1.3zM535.1 382.2s1.5 2 4 2c1.5 0 2.8-.7 2.8-2.1 0-2.9-7.3-2.3-7.3-6.6 0-2.4 2-3.5 4.7-3.5 1.3 0 4 .5 4 2.4v1.1h-1.7v-.6c0-1-1.4-1.3-2.3-1.3-1.8 0-2.9.6-2.9 1.9 0 2.9 7.3 2.3 7.3 6.6 0 2.2-2 3.7-4.6 3.7-3.4 0-5-2.3-5-2.3l1-1.3zM547.2 374.4c0-.4-.2-.6-.6-.6h-1.1v-1.5h1.8c1.1 0 1.6.5 1.6 1.6v9.4c0 .4.2.6.6.6h1.1v1.5h-1.8c-1.1 0-1.6-.5-1.6-1.6v-9.4zm-.1-7.3h1.7v2.2h-1.7v-2.2zM559.3 372c3.8 0 6.9 2.9 6.9 6.8 0 4-3.1 6.9-6.9 6.9-3.8 0-6.9-3-6.9-6.9 0-3.9 3.1-6.8 6.9-6.8zm0 12.1c2.8 0 5.1-2.3 5.1-5.3s-2.3-5.2-5.1-5.2-5.1 2.2-5.1 5.2 2.3 5.3 5.1 5.3zM569.5 374.4c0-.4-.2-.6-.6-.6h-1.1v-1.5h1.8c1.1 0 1.6.5 1.6 1.5v.6c0 .5-.1.9-.1.9h.1c.5-1.2 2.1-3.3 5.2-3.3 3.3 0 4.4 1.8 4.4 5.1v6.2c0 .4.2.6.6.6h1.1v1.5h-1.8c-1.1 0-1.6-.5-1.6-1.6v-6.3c0-2.1-.3-3.9-2.8-3.9-2.2 0-4.2 1.5-4.8 3.7-.2.5-.2 1.1-.2 1.8v6.3h-1.8v-11zM585.4 374.4c0-.4-.2-.6-.6-.6h-1.1v-1.5h1.8c1.1 0 1.6.5 1.6 1.6v9.4c0 .4.2.6.6.6h1.1v1.5h-1.8c-1.1 0-1.6-.5-1.6-1.6v-9.4zm0-7.3h1.7v2.2h-1.7v-2.2zM603.6 372c3.2 0 4.3 2.4 4.3 2.4h.1s-.1-.4-.1-1v-4.2c0-.4-.2-.6-.6-.6h-1.1v-1.5h1.8c1.1 0 1.6.5 1.6 1.6v14.6c0 .4.2.6.6.6h1.1v1.5h-1.8c-1.1 0-1.6-.5-1.6-1.5 0-.5.1-.8.1-.8h-.1s-1.1 2.6-4.5 2.6c-3.5 0-5.7-2.8-5.7-6.9 0-4.1 2.5-6.8 5.9-6.8zm4.3 6.8c0-2.7-1.4-5.3-4.2-5.3-2.3 0-4.2 2-4.2 5.3 0 3.2 1.7 5.3 4.1 5.3 2.3 0 4.3-1.5 4.3-5.3zM614.3 374.4c0-.4-.2-.6-.6-.6h-1.1v-1.5h1.8c1.1 0 1.6.5 1.6 1.6v9.4c0 .4.2.6.6.6h1.1v1.5h-1.8c-1.1 0-1.6-.5-1.6-1.6v-9.4zm0-7.3h1.7v2.2h-1.7v-2.2zM521.6 393.2c0-.4-.2-.6-.6-.6h-1.1v-1.5h1.8c1.1 0 1.6.5 1.6 1.6v14.6c0 .4.2.6.6.6h1.1v1.5h-1.8c-1.1 0-1.6-.5-1.6-1.6v-14.6zM533.2 396c3.6 0 5.5 2.8 5.5 6 0 .3-.1.9-.1.9h-10c.1 3.3 2.4 5.2 5.1 5.2 2.4 0 3.9-1.6 3.9-1.6l.9 1.3s-1.9 1.9-4.9 1.9c-3.9 0-6.8-2.8-6.8-6.8-.1-4.3 2.9-6.9 6.4-6.9zm3.7 5.5c-.1-2.7-1.8-4-3.7-4-2.2 0-4.1 1.4-4.5 4h8.2zM542.4 397.8h-1.7v-1.5h1.7v-3.6h1.7v3.6h3.3v1.5h-3.3v6.7c0 3.1 2 3.5 2.9 3.5.4 0 .6-.1.6-.1v1.6s-.3.1-.8.1c-1.5 0-4.5-.5-4.5-4.9l.1-6.9zM551.1 397.8h-1.7v-1.5h1.7v-3.6h1.7v3.6h3.3v1.5h-3.3v6.7c0 3.1 2 3.5 2.9 3.5.4 0 .6-.1.6-.1v1.6s-.3.1-.8.1c-1.5 0-4.6-.5-4.6-4.9v-6.9h.2zM559.6 398.4c0-.4-.2-.6-.6-.6h-1.1v-1.5h1.8c1.1 0 1.6.5 1.6 1.5v6.3c0 2.1.3 3.9 2.9 3.9 3 0 4.8-2.6 4.8-5.5v-6.3h1.8v11c0 .4.2.6.6.6h1.1v1.5h-1.8c-1.1 0-1.6-.5-1.6-1.5v-.6c0-.5.1-.9.1-.9h-.1c-.5 1.3-2.2 3.3-5.1 3.3-3.1 0-4.4-1.7-4.4-5.1v-6.1zM575.3 398.4c0-.4-.2-.6-.6-.6h-1.1v-1.5h1.8c1.1 0 1.6.4 1.6 1.5v.9c0 .5-.1 1-.1 1h.1c.6-2 2.1-3.5 4.1-3.5.4 0 .7.1.7.1v1.7s-.3-.1-.7-.1c-1.8 0-3.2 1.5-3.8 3.4-.3.8-.4 1.7-.4 2.5v5.5h-1.8v-10.9h.2zM590.6 401.3h.7v-.2c0-2.7-1-3.7-3.4-3.7-.7 0-2.5.2-2.5 1.1v.8h-1.7v-1.2c0-1.8 3.1-2.2 4.3-2.2 4.1 0 5.1 2.2 5.1 5v6.3c0 .4.2.6.6.6h1.1v1.5h-1.8c-1.1 0-1.6-.5-1.6-1.6v-1h-.1s-1.1 2.8-4.3 2.8c-2.2 0-4.4-1.3-4.4-3.9 0-4.1 5.8-4.3 8-4.3zm-3.2 6.9c2.5 0 4-2.6 4-4.9v-.6h-.8c-2.1 0-6.2.1-6.2 3 .1 1.2 1 2.5 3 2.5z"/><circle class="st1" cx="776" cy="347.7" r="101.5"/><path class="st2" d="M724.8 351.3h7.2v-25.5s-.3.7-1.6 1.9l-3.5 3.5-2-2.1 7.3-7.3h3v29.5h7.1v2.9h-17.5v-2.9zM746.9 350.5h3.5v3.7h-3.5v-3.7zM770.5 327.7c.9-1.7 1.8-3 1.8-3v-.1s-.8.1-2.4.1h-11.6c-.6 0-1 .3-1 1v2.2h-3v-3.2c0-2 .8-2.8 2.8-2.8h18.9v2.2l-16 30.1h-3.6l14.1-26.5zM778.1 338c0-9.3 2.7-16.7 11.1-16.7 8.4 0 11.2 7.4 11.2 16.7 0 9.4-2.8 16.7-11.2 16.7-8.4 0-11.1-7.3-11.1-16.7zm19 0c0-7.7-1.7-13.7-7.9-13.7-6.1 0-7.9 6-7.9 13.7s1.7 13.8 7.9 13.8 7.9-6.1 7.9-13.8zM805.8 338c0-9.3 2.7-16.7 11.1-16.7s11.2 7.4 11.2 16.7c0 9.4-2.8 16.7-11.2 16.7s-11.1-7.3-11.1-16.7zm19 0c0-7.7-1.7-13.7-7.9-13.7s-7.9 6-7.9 13.7 1.7 13.8 7.9 13.8 7.9-6.1 7.9-13.8zM745.1 377.3h.7v-.2c0-2.7-1-3.7-3.4-3.7-.7 0-2.5.2-2.5 1.1v.8h-1.7v-1.2c0-1.8 3.1-2.2 4.3-2.2 4.1 0 5.1 2.2 5.1 5v6.3c0 .4.2.6.6.6h1.1v1.5h-1.8c-1.1 0-1.6-.5-1.6-1.6v-1h-.1s-1.1 2.8-4.3 2.8c-2.2 0-4.4-1.3-4.4-3.9-.1-4.1 5.7-4.3 8-4.3zm-3.3 6.9c2.5 0 4-2.6 4-4.9v-.6h-.8c-2.1 0-6.2.1-6.2 3 .1 1.2 1 2.5 3 2.5zM752 374.4c0-.4-.2-.6-.6-.6h-1.1v-1.5h1.8c1.1 0 1.6.4 1.6 1.5v.9c0 .5-.1 1-.1 1h.1c.6-2 2.1-3.5 4.1-3.5.4 0 .7.1.7.1v1.7s-.3-.1-.6-.1c-1.8 0-3.2 1.5-3.8 3.4-.3.8-.4 1.7-.4 2.5v5.5h-1.7v-10.9zM761.6 373.8h-1.7v-1.5h1.7v-3.6h1.7v3.6h3.3v1.5h-3.3v6.7c0 3.1 2 3.5 2.9 3.5.4 0 .6-.1.6-.1v1.6s-.3.1-.8.1c-1.5 0-4.6-.5-4.6-4.9v-6.9h.2zM770.3 374.4c0-.4-.2-.6-.6-.6h-1.1v-1.5h1.8c1.1 0 1.6.5 1.6 1.6v9.4c0 .4.2.6.6.6h1.1v1.5h-1.8c-1.1 0-1.6-.5-1.6-1.6v-9.4zm-.1-7.3h1.7v2.2h-1.7v-2.2zM782.3 372c1.5 0 4.7.6 4.7 2.8v1.2h-1.7v-.8c0-1.1-1.9-1.6-3-1.6-2.8 0-5.1 2.1-5.1 5.3s2.4 5.2 5.1 5.2c2.7 0 4.2-1.8 4.2-1.8l.8 1.3s-1.8 2.1-5.1 2.1c-3.9 0-6.9-2.8-6.9-6.8.1-4 3.1-6.9 7-6.9zM796.1 372c3.8 0 6.9 2.9 6.9 6.8 0 4-3.1 6.9-6.9 6.9-3.8 0-6.9-3-6.9-6.9 0-3.9 3.1-6.8 6.9-6.8zm0 12.1c2.8 0 5.1-2.3 5.1-5.3s-2.3-5.2-5.1-5.2-5.1 2.2-5.1 5.2 2.3 5.3 5.1 5.3zM806 369.2c0-.4-.2-.6-.6-.6h-1.1v-1.5h1.8c1.1 0 1.6.5 1.6 1.6v14.6c0 .4.2.6.6.6h1.1v1.5h-1.8c-1.1 0-1.6-.5-1.6-1.6v-14.6zM812.5 374.4c0-.4-.2-.6-.6-.6h-1.1v-1.5h1.8c1.1 0 1.6.5 1.6 1.6v9.4c0 .4.2.6.6.6h1.1v1.5h-1.8c-1.1 0-1.6-.5-1.6-1.6v-9.4zm0-7.3h1.7v2.2h-1.7v-2.2z"/><ellipse transform="matrix(.924 -.383 .383 .924 -102.154 181.837)" class="st3" cx="406" cy="347.7" rx="25.6" ry="25.6"/><path class="st4" d="M408.9 340.1c-.4-.4-1-.4-1.3 0-.4.4-.4.9 0 1.3l6.7 6.6h-22.3c-.5 0-.9.4-.9.9s.4.9.9.9h22.3l-6.7 6.6c-.4.4-.4 1 0 1.3.4.4 1 .4 1.3 0l8.3-8.2c.4-.4.4-.9 0-1.3l-8.3-8.1z"/><path class="st5" d="M27.4 87.6h3.1v-10s-.2.3-.7.8l-1.3 1.3-1.2-1.2 3.4-3.3h1.8v12.4h3.1v1.7h-8.2v-1.7zM35.7 77.9c0-1.6 1.3-3 3-3s3 1.3 3 3c0 1.6-1.4 3-3 3s-3-1.4-3-3zm4.5 0c0-.8-.6-1.5-1.5-1.5-.8 0-1.5.7-1.5 1.5s.6 1.5 1.5 1.5 1.5-.7 1.5-1.5zM53.4 78.9c2.3 0 3.1 1.6 3.1 1.6v-3.2c0-.3-.2-.4-.4-.4h-.8v-1.7h1.9c.9 0 1.3.4 1.3 1.3v10.7c0 .3.2.4.4.4h.8v1.7h-1.9c-.9 0-1.2-.4-1.2-1.1v-.5s-.8 1.8-3.3 1.8c-2.7 0-4.5-2.2-4.5-5.3 0-3.2 1.9-5.3 4.6-5.3zm3.2 5.3c0-1.8-.9-3.6-2.9-3.6-1.6 0-2.9 1.3-2.9 3.6 0 2.2 1.2 3.6 2.9 3.6 1.5.1 2.9-1 2.9-3.6zM66 78.9c2.8 0 4.4 2.1 4.4 4.7 0 .3-.1.8-.1.8h-7.4c.1 2.2 1.7 3.4 3.5 3.4 1.7 0 3-1.2 3-1.2l.8 1.4s-1.5 1.5-3.9 1.5c-3.2 0-5.4-2.3-5.4-5.3 0-3.2 2.2-5.3 5.1-5.3zm2.4 4.2c-.1-1.7-1.1-2.6-2.4-2.6-1.5 0-2.7.9-3 2.6h5.4zM77.4 78.9c1.2 0 3.6.5 3.6 2.2v1h-1.8v-.6c0-.7-1.1-1-1.9-1-2 0-3.5 1.5-3.5 3.6 0 2.3 1.7 3.6 3.6 3.6 1.9 0 3.1-1.4 3.1-1.4l.8 1.4s-1.4 1.7-4.1 1.7c-3.2 0-5.4-2.3-5.4-5.3.2-2.8 2.3-5.2 5.6-5.2zM88.7 83h.4v-.1c0-1.8-.7-2.4-2.2-2.4-.5 0-1.7.1-1.7.8v.6h-1.8v-1c0-1.7 2.5-1.9 3.5-1.9 3.3 0 4.2 1.7 4.2 4v4.3c0 .3.2.4.4.4h.8v1.7h-1.8c-.9 0-1.3-.4-1.3-1.2v-.6s-.8 2-3.2 2c-1.7 0-3.4-1.1-3.4-3.1 0-3.3 4.4-3.5 6.1-3.5zm-2.2 5c1.6 0 2.7-1.7 2.7-3.2v-.3h-.5c-1.5 0-4.1.1-4.1 1.9 0 .8.6 1.6 1.9 1.6zM94.4 77.3c0-.3-.2-.4-.4-.4h-.8v-1.7h1.9c.9 0 1.3.4 1.3 1.3v10.7c0 .3.2.4.4.4h.8v1.7h-1.9c-.9 0-1.3-.4-1.3-1.3v-10.7zM104.3 78.9c3 0 5.5 2.2 5.5 5.3 0 3.1-2.4 5.3-5.5 5.3s-5.4-2.2-5.4-5.3c0-3 2.4-5.3 5.4-5.3zm0 9c1.9 0 3.5-1.5 3.5-3.6s-1.6-3.6-3.5-3.6-3.5 1.5-3.5 3.6c0 2 1.6 3.6 3.5 3.6zM115.7 78.9c2.5 0 3.2 1.6 3.2 1.6v-.3c0-.6.3-1 1.1-1h1.9v1.7h-.8c-.3 0-.4.1-.4.4v7.6c0 3.3-2.5 4.6-5.1 4.6-1.2 0-2.5-.3-3.5-.8l.7-1.6s1.2.7 2.8.7c1.8 0 3.2-.8 3.2-2.8v-1.2999999999999998c-.6 1-1.5 1.5-3 1.5-2.8 0-4.5-2.3-4.5-5.2-.1-2.9 1.5-5.1 4.4-5.1zm3.1 5.1c0-2.6-1.3-3.4-2.9-3.4-1.8 0-2.8 1.3-2.8 3.3 0 2.1 1.1 3.5 2.9 3.5 1.5.1 2.8-.7 2.8-3.4zM128.5 78.9c3 0 5.5 2.2 5.5 5.3 0 3.1-2.4 5.3-5.5 5.3-3 0-5.4-2.2-5.4-5.3 0-3 2.4-5.3 5.4-5.3zm0 9c1.9 0 3.5-1.5 3.5-3.6s-1.6-3.6-3.5-3.6-3.5 1.5-3.5 3.6c.1 2 1.6 3.6 3.5 3.6zM141.6 86.5s1.2 1.5 3.1 1.5c.9 0 1.8-.4 1.8-1.3 0-1.8-5.5-1.6-5.5-4.9 0-1.9 1.7-2.8 3.8-2.8 1.2 0 3.3.4 3.3 2v1h-1.7v-.5c0-.6-.9-.9-1.5-.9-1.1 0-1.9.4-1.9 1.2 0 1.9 5.5 1.5 5.5 4.9 0 1.8-1.6 3-3.7 3-2.7 0-4-1.8-4-1.8l.8-1.4zM150.8 81.3c0-.3-.2-.4-.4-.4h-.8v-1.7h1.9c.9 0 1.3.4 1.3 1.2v4.8c0 1.4.3 2.5 1.9 2.5 2.1 0 3.3-1.8 3.3-3.8v-4.7h1.9v8c0 .3.2.4.4.4h.8v1.7h-1.9c-.9 0-1.3-.4-1.3-1.1v-1c-.4 1-1.7 2.3-3.7 2.3-2.3 0-3.4-1.2-3.4-3.9v-4.3zM163.3 77.3c0-.3-.2-.4-.4-.4h-.9v-1.7h1.9c.9 0 1.3.4 1.3 1.3v10.7c0 .3.2.4.4.4h.8v1.7h-1.9c-.9 0-1.3-.4-1.3-1.3v-10.7h.1zM168.6 77.3c0-.3-.2-.4-.4-.4h-.8v-1.7h1.9c.9 0 1.3.4 1.3 1.3v10.7c0 .3.2.4.4.4h.8v1.7h-1.9c-.9 0-1.3-.4-1.3-1.3v-10.7zM179.2 83h.4v-.1c0-1.8-.7-2.4-2.2-2.4-.5 0-1.7.1-1.7.8v.6h-1.8v-1c0-1.7 2.5-1.9 3.5-1.9 3.3 0 4.2 1.7 4.2 4v4.3c0 .3.2.4.4.4h.8v1.7h-1.8c-.9 0-1.3-.4-1.3-1.2v-.6s-.8 2-3.2 2c-1.7 0-3.4-1.1-3.4-3.1 0-3.3 4.4-3.5 6.1-3.5zm-2.3 5c1.6 0 2.7-1.7 2.7-3.2v-.3h-.5c-1.5 0-4.1.1-4.1 1.9 0 .8.6 1.6 1.9 1.6zM194.7 78.9c1.2 0 3.6.5 3.6 2.2v1h-1.8v-.6c0-.7-1.1-1-1.9-1-2 0-3.5 1.5-3.5 3.6 0 2.3 1.7 3.6 3.6 3.6l3.1-1.4.8 1.4s-1.4 1.7-4.1 1.7c-3.2 0-5.4-2.3-5.4-5.3.2-2.8 2.4-5.2 5.6-5.2zM205.4 78.9c3 0 5.5 2.2 5.5 5.3 0 3.1-2.4 5.3-5.5 5.3s-5.4-2.2-5.4-5.3c0-3 2.4-5.3 5.4-5.3zm0 9c1.9 0 3.5-1.5 3.5-3.6s-1.6-3.6-3.5-3.6-3.5 1.5-3.5 3.6c0 2 1.6 3.6 3.5 3.6zM213.3 81.3c0-.3-.2-.4-.4-.4h-.9v-1.7h1.8c.9 0 1.3.4 1.3 1.2v1.2999999999999998c.5-1.5 1.6-2.6 3.2-2.6h.5v1.9s-.3-.1-.6-.1c-1.2 0-2.4.9-2.8 2.4-.2.6-.2 1.2-.2 1.8v4.1h-1.9v-7.9zM221.2 81.3c0-.3-.2-.4-.4-.4h-.8v-1.7h1.8c.9 0 1.3.4 1.3 1.2v1.2999999999999998c.5-1.5 1.6-2.6 3.2-2.6h.5v1.9s-.3-.1-.6-.1c-1.2 0-2.4.9-2.8 2.4-.2.6-.2 1.2-.2 1.8v4.1h-1.9v-7.9h-.1zM232.6 78.9c2.8 0 4.4 2.1 4.4 4.7 0 .3-.1.8-.1.8h-7.4c.1 2.2 1.7 3.4 3.5 3.4 1.7 0 3-1.2 3-1.2l.8 1.4s-1.5 1.5-3.9 1.5c-3.2 0-5.4-2.3-5.4-5.3 0-3.2 2.2-5.3 5.1-5.3zm2.4 4.2c-.1-1.7-1.1-2.6-2.4-2.6-1.5 0-2.7.9-3 2.6h5.4zM239.6 80.7h-1.3v-1.6h1.4v-2.8h1.9v2.8h2.4v1.6h-2.4v4.6c0 2 1.4 2.3 2.1 2.3h.5v1.7h-.7c-1.3 0-3.9-.4-3.9-3.8v-4.8zM246.7 80.7h-1.3v-1.6h1.4v-2.8h1.9v2.8h2.4v1.6h-2.4v4.6c0 2 1.4 2.3 2.1 2.3h.5v1.7h-.7c-1.3 0-3.9-.4-3.9-3.8v-4.8zM258.7 83h.4v-.1c0-1.8-.7-2.4-2.2-2.4-.5 0-1.7.1-1.7.8v.6h-1.8v-1c0-1.7 2.5-1.9 3.5-1.9 3.3 0 4.2 1.7 4.2 4v4.3c0 .3.2.4.4.4h.8v1.7h-1.8c-.9 0-1.3-.4-1.3-1.2v-.6s-.8 2-3.2 2c-1.7 0-3.4-1.1-3.4-3.1 0-3.3 4.4-3.5 6.1-3.5zm-2.3 5c1.6 0 2.7-1.7 2.7-3.2v-.3h-.5c-1.5 0-4.1.1-4.1 1.9 0 .8.6 1.6 1.9 1.6zM27.9 105.3c0-.3-.2-.4-.4-.4h-.8v-1.7h1.9c.9 0 1.3.4 1.3 1.3v6.7c0 .3.2.4.4.4h.8v1.7h-1.9c-.9 0-1.3-.4-1.3-1.3v-6.7zm0-6.1h1.7v2h-1.7v-2zM36.9 102.9c2.3 0 3.1 1.6 3.1 1.6v-3.2c0-.3-.2-.4-.4-.4h-.8v-1.7h1.9c.9 0 1.3.4 1.3 1.3v10.7c0 .3.2.4.4.4h.8v1.7h-1.9c-.9 0-1.2-.4-1.2-1.1v-.5s-.8 1.8-3.3 1.8c-2.7 0-4.5-2.2-4.5-5.3 0-3.2 1.9-5.3 4.6-5.3zm3.2 5.3c0-1.8-.9-3.6-2.9-3.6-1.6 0-2.9 1.3-2.9 3.6 0 2.2 1.2 3.6 2.9 3.6 1.5.1 2.9-1 2.9-3.6zM45.4 105.3c0-.3-.2-.4-.4-.4h-.8v-1.7h1.8c.9 0 1.3.4 1.3 1.2v1.2999999999999998c.5-1.5 1.6-2.6 3.2-2.6h.5v1.9s-.3-.1-.6-.1c-1.2 0-2.4.9-2.8 2.4-.2.6-.2 1.2-.2 1.8v4.1h-1.9v-7.9h-.1zM57.7 107h.4v-.1c0-1.8-.7-2.4-2.2-2.4-.5 0-1.7.1-1.7.8v.6h-1.8v-1c0-1.7 2.5-1.9 3.5-1.9 3.3 0 4.2 1.7 4.2 4v4.3c0 .3.2.4.4.4h.8v1.7h-1.8c-.9 0-1.3-.4-1.3-1.2v-.6s-.8 2-3.2 2c-1.7 0-3.4-1.1-3.4-3.1 0-3.3 4.4-3.5 6.1-3.5zm-2.3 5c1.6 0 2.7-1.7 2.7-3.2v-.3h-.5c-1.5 0-4.1.1-4.1 1.9 0 .8.6 1.6 1.9 1.6zM63.5 104.7h-1.3v-1.6h1.4v-2.8h1.9v2.8h2.4v1.6h-2.4v4.6c0 2 1.4 2.3 2.1 2.3h.5v1.7h-.7c-1.3 0-3.9-.4-3.9-3.8v-4.8zM75.5 107h.4v-.1c0-1.8-.7-2.4-2.2-2.4-.5 0-1.7.1-1.7.8v.6h-1.8v-1c0-1.7 2.5-1.9 3.5-1.9 3.3 0 4.2 1.7 4.2 4v4.3c0 .3.2.4.4.4h.8v1.7h-1.8c-.9 0-1.3-.4-1.3-1.2v-.6s-.8 2-3.2 2c-1.7 0-3.4-1.1-3.4-3.1 0-3.3 4.4-3.5 6.1-3.5zm-2.3 5c1.6 0 2.7-1.7 2.7-3.2v-.3h-.5c-1.5 0-4.1.1-4.1 1.9 0 .8.7 1.6 1.9 1.6zM80.2 112.2l5.2-6.4c.4-.5.8-.9.8-.9h-3.8c-.3 0-.4.2-.4.4v.7h-1.8v-1.5c0-.9.4-1.3 1.3-1.3h7.2v1.1l-5.2 6.4c-.4.5-.8.9-.8.9h4.2c.3 0 .4-.2.4-.4v-.7h1.8v1.5c0 .9-.4 1.3-1.3 1.3h-7.7v-1.1h.1zM91.4 105.3c0-.3-.2-.4-.4-.4h-.8v-1.7h1.9c.9 0 1.3.4 1.3 1.3v6.7c0 .3.2.4.4.4h.8v1.7h-1.9c-.9 0-1.3-.4-1.3-1.3v-6.7zm.1-6.1h1.7v2h-1.7v-2zM101.3 102.9c3 0 5.5 2.2 5.5 5.3 0 3.1-2.4 5.3-5.5 5.3s-5.4-2.2-5.4-5.3c-.1-3 2.4-5.3 5.4-5.3zm0 9c1.9 0 3.5-1.5 3.5-3.6s-1.6-3.6-3.5-3.6-3.5 1.5-3.5 3.6c0 2 1.6 3.6 3.5 3.6zM109.2 105.3c0-.3-.2-.4-.4-.4h-.8v-1.7h1.9c.9 0 1.3.4 1.3 1.1v1c.4-.9 1.6-2.3 3.8-2.3 2.4 0 3.5 1.3 3.5 3.9v4.4c0 .3.2.4.4.4h.8v1.7h-1.9c-.9 0-1.3-.4-1.3-1.3v-4.8c0-1.4-.3-2.5-1.9-2.5-1.6 0-2.8 1-3.2 2.5-.1.4-.2.9-.2 1.4v4.7h-1.9v-8.1h-.1zM125.8 102.9c2.8 0 4.4 2.1 4.4 4.7 0 .3-.1.8-.1.8h-7.4c.1 2.2 1.7 3.4 3.5 3.4 1.7 0 3-1.2 3-1.2l.8 1.4s-1.5 1.5-3.9 1.5c-3.2 0-5.4-2.3-5.4-5.3 0-3.2 2.2-5.3 5.1-5.3zm2.3 4.2c-.1-1.7-1.1-2.6-2.4-2.6-1.5 0-2.7.9-3 2.6h5.4zM141.7 102.9c2.3 0 3.1 1.6 3.1 1.6v-3.2c0-.3-.2-.4-.4-.4h-.8v-1.7h1.9c.9 0 1.3.4 1.3 1.3v10.7c0 .3.2.4.4.4h.8v1.7h-1.9c-.9 0-1.2-.4-1.2-1.1v-.5s-.8 1.8-3.3 1.8c-2.7 0-4.5-2.2-4.5-5.3 0-3.2 1.9-5.3 4.6-5.3zm3.2 5.3c0-1.8-.9-3.6-2.9-3.6-1.6 0-2.9 1.3-2.9 3.6 0 2.2 1.2 3.6 2.9 3.6 1.5.1 2.9-1 2.9-3.6zM154.3 102.9c2.8 0 4.4 2.1 4.4 4.7 0 .3-.1.8-.1.8h-7.4c.1 2.2 1.7 3.4 3.5 3.4 1.7 0 3-1.2 3-1.2l.8 1.4s-1.5 1.5-3.9 1.5c-3.2 0-5.4-2.3-5.4-5.3 0-3.2 2.2-5.3 5.1-5.3zm2.4 4.2c-.1-1.7-1.1-2.6-2.4-2.6-1.5 0-2.7.9-3 2.6h5.4zM161.3 105.3c0-.3-.2-.4-.4-.4h-.8v-1.7h1.9c.9 0 1.3.4 1.3 1.3v6.7c0 .3.2.4.4.4h.8v1.7h-1.9c-.9 0-1.3-.4-1.3-1.3v-6.7zm.1-6.1h1.7v2h-1.7v-2zM172 101.3c0-.3-.2-.4-.4-.4h-.8v-1.7h1.9c.9 0 1.3.4 1.3 1.3v4.1s.9-1.7 3.3-1.7c2.7 0 4.4 2.2 4.4 5.3 0 3.2-1.9 5.3-4.6 5.3-2.3 0-3.2-1.7-3.2-1.7v1.5h-1.9v-12zm4.8 10.6c1.6 0 2.9-1.3 2.9-3.6 0-2.2-1.2-3.6-2.9-3.6-1.5 0-2.9 1.1-2.9 3.6 0 1.8 1 3.6 2.9 3.6zM189.2 107h.4v-.1c0-1.8-.7-2.4-2.2-2.4-.5 0-1.7.1-1.7.8v.6h-1.8v-1c0-1.7 2.5-1.9 3.5-1.9 3.3 0 4.2 1.7 4.2 4v4.3c0 .3.2.4.4.4h.8v1.7h-1.8c-.9 0-1.3-.4-1.3-1.2v-.6s-.8 2-3.2 2c-1.7 0-3.4-1.1-3.4-3.1 0-3.3 4.4-3.5 6.1-3.5zm-2.3 5c1.6 0 2.7-1.7 2.7-3.2v-.3h-.5c-1.5 0-4.1.1-4.1 1.9 0 .8.6 1.6 1.9 1.6zM194.9 105.3c0-.3-.2-.4-.4-.4h-.8v-1.7h1.9c.9 0 1.3.4 1.3 1.1v1c.5-1.2 1.9-2.3 3.5-2.3 1.7 0 2.7.8 3 2.3.6-1.2 2-2.3 3.6-2.3 2.3 0 3.3 1.3 3.3 3.9v4.4c0 .3.2.4.4.4h.8v1.7h-1.9c-.9 0-1.3-.4-1.3-1.3v-4.8c0-1.4-.3-2.5-1.8-2.5-1.4 0-2.5 1.2-2.8 2.6-.1.4-.2.9-.2 1.4v4.6h-1.9v-6.1c0-1.3-.2-2.5-1.7-2.5s-2.5 1.2-2.9 2.7c-.1.4-.1.8-.1 1.3v4.6h-1.9v-8.1h-.1zM213.6 101.3c0-.3-.2-.4-.4-.4h-.8v-1.7h1.9c.9 0 1.3.4 1.3 1.3v4.1s.9-1.7 3.3-1.7c2.7 0 4.4 2.2 4.4 5.3 0 3.2-1.9 5.3-4.6 5.3-2.3 0-3.2-1.7-3.2-1.7v1.5h-1.9v-12zm4.7 10.6c1.6 0 2.9-1.3 2.9-3.6 0-2.2-1.2-3.6-2.9-3.6-1.5 0-2.9 1.1-2.9 3.6.1 1.8 1 3.6 2.9 3.6zM225.7 105.3c0-.3-.2-.4-.4-.4h-.8v-1.7h1.9c.9 0 1.3.4 1.3 1.3v6.7c0 .3.2.4.4.4h.8v1.7h-1.9c-.9 0-1.3-.4-1.3-1.3v-6.7zm.1-6.1h1.7v2h-1.7v-2zM231.1 105.3c0-.3-.2-.4-.4-.4h-.8v-1.7h1.9c.9 0 1.3.4 1.3 1.1v1c.4-.9 1.6-2.3 3.8-2.3 2.4 0 3.5 1.3 3.5 3.9v4.4c0 .3.2.4.4.4h.8v1.7h-1.9c-.9 0-1.3-.4-1.3-1.3v-4.8c0-1.4-.3-2.5-1.9-2.5s-2.8 1-3.2 2.5c-.1.4-.2.9-.2 1.4v4.7h-1.9l-.1-8.1zM243.8 105.3c0-.3-.2-.4-.4-.4h-.8v-1.7h1.9c.9 0 1.3.4 1.3 1.3v6.7c0 .3.2.4.4.4h.8v1.7h-2c-.9 0-1.3-.4-1.3-1.3l.1-6.7zm0-6.1h1.7v2h-1.7v-2zM27.9 129.3c0-.3-.2-.4-.4-.4h-.8v-1.7h1.9c.9 0 1.3.4 1.3 1.3v6.7c0 .3.2.4.4.4h.8v1.7h-1.9c-.9 0-1.3-.4-1.3-1.3v-6.7zm0-6.1h1.7v2h-1.7v-2zM33.3 129.3c0-.3-.2-.4-.4-.4h-.9v-1.7h1.9c.9 0 1.3.4 1.3 1.1v1c.4-.9 1.6-2.3 3.8-2.3 2.4 0 3.5 1.3 3.5 3.9v4.4c0 .3.2.4.4.4h.8v1.7h-1.9c-.9 0-1.3-.4-1.3-1.3v-4.8c0-1.4-.3-2.5-1.9-2.5-1.6 0-2.8 1-3.2 2.5-.1.4-.2.9-.2 1.4v4.7h-1.9v-8.1zM55.7 126.9c1.2 0 3.6.5 3.6 2.2v1h-1.8v-.6c0-.7-1.1-1-1.9-1-2 0-3.5 1.5-3.5 3.6 0 2.3 1.7 3.6 3.6 3.6 1.9 0 3.1-1.4 3.1-1.4l.8 1.4s-1.4 1.7-4.1 1.7c-3.2 0-5.4-2.3-5.4-5.3.1-2.8 2.3-5.2 5.6-5.2zM66.3 126.9c3 0 5.5 2.2 5.5 5.3 0 3.1-2.4 5.3-5.5 5.3s-5.4-2.2-5.4-5.3c0-3 2.4-5.3 5.4-5.3zm0 9c1.9 0 3.5-1.5 3.5-3.6s-1.6-3.6-3.5-3.6-3.5 1.5-3.5 3.6c.1 2 1.6 3.6 3.5 3.6zM74 125.3c0-.3-.2-.4-.4-.4h-.8v-1.7h1.9c.9 0 1.3.4 1.3 1.3v10.7c0 .3.2.4.4.4h.8v1.7h-1.9c-.9 0-1.3-.4-1.3-1.3v-10.7zM79.3 125.3c0-.3-.2-.4-.4-.4h-.8v-1.7h1.9c.9 0 1.3.4 1.3 1.3v10.7c0 .3.2.4.4.4h.8v1.7h-1.9c-.9 0-1.3-.4-1.3-1.3v-10.7zM89.9 131h.4v-.1c0-1.8-.7-2.4-2.2-2.4-.5 0-1.7.1-1.7.8v.6h-1.8v-1c0-1.7 2.5-1.9 3.5-1.9 3.3 0 4.2 1.7 4.2 4v4.3c0 .3.2.4.4.4h.8v1.7h-1.8c-.9 0-1.3-.4-1.3-1.2v-.6s-.8 2-3.2 2c-1.7 0-3.4-1.1-3.4-3.1 0-3.3 4.4-3.5 6.1-3.5zm-2.3 5c1.6 0 2.7-1.7 2.7-3.2v-.3h-.5c-1.5 0-4.1.1-4.1 1.9 0 .8.7 1.6 1.9 1.6zM95.5 125.3c0-.3-.2-.4-.4-.4h-.8v-1.7h1.9c.9 0 1.3.4 1.3 1.3v4.1s.9-1.7 3.3-1.7c2.7 0 4.4 2.2 4.4 5.3 0 3.2-1.9 5.3-4.6 5.3-2.3 0-3.2-1.7-3.2-1.7v1.5h-1.9v-12zm4.8 10.6c1.6 0 2.9-1.3 2.9-3.6 0-2.2-1.2-3.6-2.9-3.6-1.5 0-2.9 1.1-2.9 3.6 0 1.8 1 3.6 2.9 3.6zM112.1 126.9c3 0 5.5 2.2 5.5 5.3 0 3.1-2.4 5.3-5.5 5.3s-5.4-2.2-5.4-5.3c-.1-3 2.4-5.3 5.4-5.3zm0 9c1.9 0 3.5-1.5 3.5-3.6s-1.6-3.6-3.5-3.6-3.5 1.5-3.5 3.6c0 2 1.6 3.6 3.5 3.6zM120 129.3c0-.3-.2-.4-.4-.4h-.8v-1.7h1.8c.9 0 1.3.4 1.3 1.2v1.2999999999999998c.5-1.5 1.6-2.6 3.2-2.6h.5v1.9s-.3-.1-.6-.1c-1.2 0-2.4.9-2.8 2.4-.2.6-.2 1.2-.2 1.8v4.1h-2v-7.9zM132.2 131h.4v-.1c0-1.8-.7-2.4-2.2-2.4-.5 0-1.7.1-1.7.8v.6h-1.8v-1c0-1.7 2.5-1.9 3.5-1.9 3.3 0 4.2 1.7 4.2 4v4.3c0 .3.2.4.4.4h.8v1.7h-1.8c-.9 0-1.3-.4-1.3-1.2v-.6s-.8 2-3.2 2c-1.7 0-3.4-1.1-3.4-3.1 0-3.3 4.4-3.5 6.1-3.5zm-2.2 5c1.6 0 2.7-1.7 2.7-3.2v-.3h-.5c-1.5 0-4.1.1-4.1 1.9 0 .8.6 1.6 1.9 1.6zM136.9 136.2l5.2-6.4c.4-.5.8-.9.8-.9h-3.8c-.3 0-.4.2-.4.4v.7h-1.7v-1.5c0-.9.4-1.3 1.3-1.3h7.2v1.1l-5.2 6.4c-.4.5-.8.9-.8.9h4.2c.3 0 .4-.2.4-.4v-.7h1.8v1.5c0 .9-.4 1.3-1.3 1.3h-7.7v-1.1zM148.2 129.3c0-.3-.2-.4-.4-.4h-.8v-1.7h1.9c.9 0 1.3.4 1.3 1.3v6.7c0 .3.2.4.4.4h.8v1.7h-1.9c-.9 0-1.3-.4-1.3-1.3v-6.7zm0-6.1h1.7v2h-1.7v-2zM158 126.9c3 0 5.5 2.2 5.5 5.3 0 3.1-2.4 5.3-5.5 5.3-3 0-5.4-2.2-5.4-5.3 0-3 2.4-5.3 5.4-5.3zm0 9c1.9 0 3.5-1.5 3.5-3.6s-1.6-3.6-3.5-3.6-3.5 1.5-3.5 3.6c.1 2 1.6 3.6 3.5 3.6zM165.9 129.3c0-.3-.2-.4-.4-.4h-.8v-1.7h1.9c.9 0 1.3.4 1.3 1.1v1c.4-.9 1.6-2.3 3.8-2.3 2.4 0 3.5 1.3 3.5 3.9v4.4c0 .3.2.4.4.4h.8v1.7h-1.9c-.9 0-1.3-.4-1.3-1.3v-4.8c0-1.4-.3-2.5-1.9-2.5s-2.8 1-3.2 2.5c-.1.4-.2.9-.2 1.4v4.7h-1.9l-.1-8.1zM182.5 126.9c2.8 0 4.4 2.1 4.4 4.7 0 .3-.1.8-.1.8h-7.4c.1 2.2 1.7 3.4 3.5 3.4 1.7 0 3-1.2 3-1.2l.8 1.4s-1.5 1.5-3.9 1.5c-3.2 0-5.4-2.3-5.4-5.3 0-3.2 2.2-5.3 5.1-5.3zm2.4 4.2c-.1-1.7-1.1-2.6-2.4-2.6-1.5 0-2.7.9-3 2.6h5.4zM199.3 126.9c1.2 0 3.6.5 3.6 2.2v1h-1.8v-.6c0-.7-1.1-1-1.9-1-2 0-3.5 1.5-3.5 3.6 0 2.3 1.7 3.6 3.6 3.6l3.1-1.4.8 1.4s-1.4 1.7-4.1 1.7c-3.2 0-5.4-2.3-5.4-5.3.2-2.8 2.3-5.2 5.6-5.2zM210 126.9c3 0 5.5 2.2 5.5 5.3 0 3.1-2.4 5.3-5.5 5.3s-5.4-2.2-5.4-5.3c-.1-3 2.3-5.3 5.4-5.3zm0 9c1.9 0 3.5-1.5 3.5-3.6s-1.6-3.6-3.5-3.6-3.5 1.5-3.5 3.6c0 2 1.6 3.6 3.5 3.6zM217.8 129.3c0-.3-.2-.4-.4-.4h-.8v-1.7h1.9c.9 0 1.3.4 1.3 1.1v1c.4-.9 1.6-2.3 3.8-2.3 2.4 0 3.5 1.3 3.5 3.9v4.4c0 .3.2.4.4.4h.8v1.7h-1.9c-.9 0-1.3-.4-1.3-1.3v-4.8c0-1.4-.3-2.5-1.9-2.5s-2.8 1-3.2 2.5c-.1.4-.2.9-.2 1.4v4.7h-1.9l-.1-8.1zM235.7 125.3c0-.3-.2-.4-.4-.4h-.8v-1.7h1.9c.9 0 1.3.4 1.3 1.3v10.7c0 .3.2.4.4.4h.8v1.7h-1.9c-.9 0-1.3-.4-1.3-1.3v-10.7zM246.2 131h.4v-.1c0-1.8-.7-2.4-2.2-2.4-.5 0-1.7.1-1.7.8v.6h-1.7v-1c0-1.7 2.5-1.9 3.5-1.9 3.3 0 4.2 1.7 4.2 4v4.3c0 .3.2.4.4.4h.8v1.7h-1.8c-.9 0-1.3-.4-1.3-1.2v-.6s-.8 2-3.2 2c-1.7 0-3.4-1.1-3.4-3.1-.1-3.3 4.3-3.5 6-3.5zm-2.2 5c1.6 0 2.7-1.7 2.7-3.2v-.3h-.5c-1.5 0-4.1.1-4.1 1.9 0 .8.6 1.6 1.9 1.6zM257.5 134s1.4 1.7 3.5 1.7c1.3 0 2.4-.8 2.4-2.1 0-3-6.8-2.5-6.8-6.9 0-2.1 1.9-3.8 4.5-3.8 1.5 0 4 .7 4 2.6v1.2h-1.8v-.7c0-.7-1.1-1.3-2.2-1.3-1.5 0-2.5.8-2.5 1.9 0 2.9 6.8 2.2 6.8 6.9 0 2.2-1.7 4-4.5 4-3 0-4.7-2.1-4.7-2.1l1.3-1.4zM272.6 126.9c3 0 5.5 2.2 5.5 5.3 0 3.1-2.4 5.3-5.5 5.3s-5.4-2.2-5.4-5.3c-.1-3 2.4-5.3 5.4-5.3zm0 9c1.9 0 3.5-1.5 3.5-3.6s-1.6-3.6-3.5-3.6-3.5 1.5-3.5 3.6c0 2 1.6 3.6 3.5 3.6zM284.9 126.9c1.2 0 3.6.5 3.6 2.2v1h-1.8v-.6c0-.7-1.1-1-1.9-1-2 0-3.5 1.5-3.5 3.6 0 2.3 1.7 3.6 3.6 3.6l3.1-1.4.8 1.4s-1.4 1.7-4.1 1.7c-3.2 0-5.4-2.3-5.4-5.3.2-2.8 2.4-5.2 5.6-5.2zM291.2 129.3c0-.3-.2-.4-.4-.4h-.8v-1.7h1.9c.9 0 1.3.4 1.3 1.3v6.7c0 .3.2.4.4.4h.8v1.7h-1.9c-.9 0-1.3-.4-1.3-1.3v-6.7zm.1-6.1h1.7v2h-1.7v-2zM300.7 126.9c2.8 0 4.4 2.1 4.4 4.7 0 .3-.1.8-.1.8h-7.4c.1 2.2 1.7 3.4 3.5 3.4 1.7 0 3-1.2 3-1.2l.8 1.4s-1.5 1.5-3.9 1.5c-3.2 0-5.4-2.3-5.4-5.3 0-3.2 2.2-5.3 5.1-5.3zm2.4 4.2c-.1-1.7-1.1-2.6-2.4-2.6-1.5 0-2.7.9-3 2.6h5.4zM307.7 128.7h-1.3v-1.6h1.4v-2.8h1.9v2.8h2.4v1.6h-2.4v4.6c0 2 1.4 2.3 2.1 2.3h.5v1.7h-.7c-1.3 0-3.9-.4-3.9-3.8v-4.8zM319.7 131h.4v-.1c0-1.8-.7-2.4-2.2-2.4-.5 0-1.7.1-1.7.8v.6h-1.8v-1c0-1.7 2.5-1.9 3.5-1.9 3.3 0 4.2 1.7 4.2 4v4.3c0 .3.2.4.4.4h.8v1.7h-1.8c-.9 0-1.3-.4-1.3-1.2v-.6s-.8 2-3.2 2c-1.7 0-3.4-1.1-3.4-3.1 0-3.3 4.4-3.5 6.1-3.5zm-4.2-7.8h2l1.5 2.5h-1.5l-2-2.5zm2 12.8c1.6 0 2.7-1.7 2.7-3.2v-.3h-.5c-1.5 0-4.1.1-4.1 1.9 0 .8.6 1.6 1.9 1.6zM26.9 159.6h1.4v-10.7h-1.4v-1.7h4.7v1.7h-1.4v10.7h1.4v1.7h-4.7v-1.7zM34.2 152.7h-1.3v-1.6h1.4v-2.8h1.9v2.8h2.4v1.6h-2.4v4.6c0 2 1.4 2.3 2.1 2.3h.5v1.7h-.7c-1.3 0-3.9-.4-3.9-3.8v-4.8zM46.2 155h.4v-.1c0-1.8-.7-2.4-2.2-2.4-.5 0-1.7.1-1.7.8v.6h-1.8v-1c0-1.7 2.5-1.9 3.5-1.9 3.3 0 4.2 1.7 4.2 4v4.3c0 .3.2.4.4.4h.8v1.7h-1.8c-.9 0-1.3-.4-1.3-1.2v-.6s-.8 2-3.2 2c-1.7 0-3.4-1.1-3.4-3.1 0-3.3 4.4-3.5 6.1-3.5zm-2.2 5c1.6 0 2.7-1.7 2.7-3.2v-.3h-.5c-1.5 0-4.1.1-4.1 1.9 0 .8.6 1.6 1.9 1.6zM51.9 149.3c0-.3-.2-.4-.4-.4h-.8v-1.7h1.9c.9 0 1.3.4 1.3 1.3v10.7c0 .3.2.4.4.4h.8v1.7h-1.9c-.9 0-1.3-.4-1.3-1.3v-10.7zM57.4 153.3c0-.3-.2-.4-.4-.4h-.8v-1.7h1.9c.9 0 1.3.4 1.3 1.3v6.7c0 .3.2.4.4.4h.8v1.7h-1.9c-.9 0-1.3-.4-1.3-1.3v-6.7zm.1-6.1h1.7v2h-1.7v-2zM68 155h.4v-.1c0-1.8-.7-2.4-2.2-2.4-.5 0-1.7.1-1.7.8v.6h-1.8v-1c0-1.7 2.5-1.9 3.5-1.9 3.3 0 4.2 1.7 4.2 4v4.3c0 .3.2.4.4.4h.8v1.7h-1.8c-.9 0-1.3-.4-1.3-1.2v-.6s-.8 2-3.2 2c-1.7 0-3.4-1.1-3.4-3.1 0-3.3 4.4-3.5 6.1-3.5zm-2.3 5c1.6 0 2.7-1.7 2.7-3.2v-.3h-.5c-1.5 0-4.1.1-4.1 1.9 0 .8.6 1.6 1.9 1.6zM73.7 153.3c0-.3-.2-.4-.4-.4h-.8v-1.7h1.9c.9 0 1.3.4 1.3 1.1v1c.4-.9 1.6-2.3 3.8-2.3 2.4 0 3.5 1.3 3.5 3.9v4.4c0 .3.2.4.4.4h.8v1.7h-1.9c-.9 0-1.3-.4-1.3-1.3v-4.8c0-1.4-.3-2.5-1.9-2.5-1.6 0-2.8 1-3.2 2.5-.1.4-.2.9-.2 1.4v4.7h-1.9v-8.1h-.1zM91.4 155h.4v-.1c0-1.8-.7-2.4-2.2-2.4-.5 0-1.7.1-1.7.8v.6h-1.8v-1c0-1.7 2.5-1.9 3.5-1.9 3.3 0 4.2 1.7 4.2 4v4.3c0 .3.2.4.4.4h.8v1.7h-1.8c-.9 0-1.3-.4-1.3-1.2v-.6s-.8 2-3.2 2c-1.7 0-3.4-1.1-3.4-3.1 0-3.3 4.4-3.5 6.1-3.5zm-2.3 5c1.6 0 2.7-1.7 2.7-3.2v-.3h-.5c-1.5 0-4.1.1-4.1 1.9 0 .8.6 1.6 1.9 1.6zM106.1 150.9c2.3 0 3.1 1.6 3.1 1.6v-3.2c0-.3-.2-.4-.4-.4h-.8v-1.7h1.9c.9 0 1.3.4 1.3 1.3v10.7c0 .3.2.4.4.4h.8v1.7h-1.9c-.9 0-1.2-.4-1.2-1.1v-.5s-.8 1.8-3.3 1.8c-2.7 0-4.5-2.2-4.5-5.3 0-3.2 1.9-5.3 4.6-5.3zm3.2 5.3c0-1.8-.9-3.6-2.9-3.6-1.6 0-2.9 1.3-2.9 3.6 0 2.2 1.2 3.6 2.9 3.6 1.5.1 2.9-1 2.9-3.6zM114.7 153.3c0-.3-.2-.4-.4-.4h-.8v-1.7h1.9c.9 0 1.3.4 1.3 1.3v6.7c0 .3.2.4.4.4h.8v1.7h-1.9c-.9 0-1.3-.4-1.3-1.3v-6.7zm0-6.1h1.7v2h-1.7v-2zM125.8 148.9h-1.3v-1.7h6.2c2.6 0 4.4 1.7 4.4 4.4s-1.8 4.5-4.4 4.5h-2.9v5.2h-2v-12.4zm4.6 5.5c1.7 0 2.7-1.1 2.7-2.8s-1-2.7-2.7-2.7h-2.6v5.5h2.6zM141 150.9c2.8 0 4.4 2.1 4.4 4.7 0 .3-.1.8-.1.8h-7.4c.1 2.2 1.7 3.4 3.5 3.4 1.7 0 3-1.2 3-1.2l.8 1.4s-1.5 1.5-3.9 1.5c-3.2 0-5.4-2.3-5.4-5.3 0-3.2 2.2-5.3 5.1-5.3zm2.4 4.2c-.1-1.7-1.1-2.6-2.4-2.6-1.5 0-2.7.9-3 2.6h5.4zM151.6 150.9c2.3 0 3.1 1.6 3.1 1.6v-3.2c0-.3-.2-.4-.4-.4h-.8v-1.7h1.9c.9 0 1.3.4 1.3 1.3v10.7c0 .3.2.4.4.4h.8v1.7h-1.9c-.9 0-1.2-.4-1.2-1.1v-.5s-.8 1.8-3.3 1.8c-2.7 0-4.5-2.2-4.5-5.3 0-3.2 1.9-5.3 4.6-5.3zm3.1 5.3c0-1.8-.9-3.6-2.9-3.6-1.6 0-2.9 1.3-2.9 3.6 0 2.2 1.2 3.6 2.9 3.6 1.5.1 2.9-1 2.9-3.6zM160.1 153.3c0-.3-.2-.4-.4-.4h-.8v-1.7h1.9c.9 0 1.3.4 1.3 1.3v6.7c0 .3.2.4.4.4h.8v1.7h-1.9c-.9 0-1.3-.4-1.3-1.3v-6.7zm.1-6.1h1.7v2h-1.7v-2zM170.7 155h.4v-.1c0-1.8-.7-2.4-2.2-2.4-.5 0-1.7.1-1.7.8v.6h-1.8v-1c0-1.7 2.5-1.9 3.5-1.9 3.3 0 4.2 1.7 4.2 4v4.3c0 .3.2.4.4.4h.8v1.7h-1.8c-.9 0-1.3-.4-1.3-1.2v-.6s-.8 2-3.2 2c-1.7 0-3.4-1.1-3.4-3.1 0-3.3 4.4-3.5 6.1-3.5zm-2.3 5c1.6 0 2.7-1.7 2.7-3.2v-.3h-.5c-1.5 0-4.1.1-4.1 1.9 0 .8.7 1.6 1.9 1.6zM176.5 152.7h-1.3v-1.6h1.4v-2.8h1.9v2.8h2.4v1.6h-2.4v4.6c0 2 1.4 2.3 2.1 2.3h.5v1.7h-.7c-1.3 0-3.9-.4-3.9-3.8v-4.8zM183.5 153.3c0-.3-.2-.4-.4-.4h-.8v-1.7h1.8c.9 0 1.3.4 1.3 1.2v1.2999999999999998c.5-1.5 1.6-2.6 3.2-2.6h.5v1.9s-.3-.1-.6-.1c-1.2 0-2.4.9-2.8 2.4-.2.6-.2 1.2-.2 1.8v4.1h-1.9v-7.9h-.1zM191.3 153.3c0-.3-.2-.4-.4-.4h-.9v-1.7h1.9c.9 0 1.3.4 1.3 1.3v6.7c0 .3.2.4.4.4h.8v1.7h-1.9c-.9 0-1.3-.4-1.3-1.3v-6.7h.1zm0-6.1h1.7v2h-1.7v-2zM201.8 155h.4v-.1c0-1.8-.7-2.4-2.2-2.4-.5 0-1.7.1-1.7.8v.6h-1.8v-1c0-1.7 2.5-1.9 3.5-1.9 3.3 0 4.2 1.7 4.2 4v4.3c0 .3.2.4.4.4h.8v1.7h-1.8c-.9 0-1.3-.4-1.3-1.2v-.6s-.8 2-3.2 2c-1.7 0-3.4-1.1-3.4-3.1 0-3.3 4.4-3.5 6.1-3.5zm-2.2 5c1.6 0 2.7-1.7 2.7-3.2v-.3h-.5c-1.5 0-4.1.1-4.1 1.9 0 .8.6 1.6 1.9 1.6zM213.3 148.9h-1.3v-1.7h6.2c2.6 0 4.4 1.7 4.4 4.4s-1.8 4.5-4.4 4.5h-2.9v5.2h-2v-12.4zm4.6 5.5c1.7 0 2.7-1.1 2.7-2.8s-1-2.7-2.7-2.7h-2.6v5.5h2.6zM224.8 153.3c0-.3-.2-.4-.4-.4h-.8v-1.7h1.8c.9 0 1.3.4 1.3 1.2v1.2999999999999998c.5-1.5 1.6-2.6 3.2-2.6h.5v1.9s-.3-.1-.6-.1c-1.2 0-2.4.9-2.8 2.4-.2.6-.2 1.2-.2 1.8v4.1h-1.9v-7.9h-.1zM236.2 150.9c2.8 0 4.4 2.1 4.4 4.7 0 .3-.1.8-.1.8h-7.4c.1 2.2 1.7 3.4 3.5 3.4 1.7 0 3-1.2 3-1.2l.8 1.4s-1.5 1.5-3.9 1.5c-3.2 0-5.4-2.3-5.4-5.3.1-3.2 2.3-5.3 5.1-5.3zm2.4 4.2c-.1-1.7-1.1-2.6-2.4-2.6-1.5 0-2.7.9-3 2.6h5.4zM242.6 153.2c-.1-.3-.3-.4-.6-.4h-.2v-1.7h1c.9 0 1.2.2 1.5 1l2.2 5.8c.2.6.4 1.3.4 1.3s.2-.8.4-1.3l2.2-5.8c.3-.8.7-1 1.5-1h.9v1.7h-.2c-.3 0-.5.1-.7.4l-3.1 8.1h-2.2l-3.1-8.1zM257.7 150.9c2.8 0 4.4 2.1 4.4 4.7 0 .3-.1.8-.1.8h-7.4c.1 2.2 1.7 3.4 3.5 3.4 1.7 0 3-1.2 3-1.2l.8 1.4s-1.5 1.5-3.9 1.5c-3.2 0-5.4-2.3-5.4-5.3 0-3.2 2.2-5.3 5.1-5.3zm2.4 4.2c-.1-1.7-1.1-2.6-2.4-2.6-1.5 0-2.7.9-3 2.6h5.4zM264.7 153.3c0-.3-.2-.4-.4-.4h-.8v-1.7h1.9c.9 0 1.3.4 1.3 1.1v1c.4-.9 1.6-2.3 3.8-2.3 2.4 0 3.5 1.3 3.5 3.9v4.4c0 .3.2.4.4.4h.8v1.7h-1.9c-.9 0-1.3-.4-1.3-1.3v-4.8c0-1.4-.3-2.5-1.9-2.5s-2.8 1-3.2 2.5c-.1.4-.2.9-.2 1.4v4.7h-1.9l-.1-8.1zM277.3 152.7h-1.3v-1.6h1.4v-2.8h1.9v2.8h2.4v1.6h-2.4v4.6c0 2 1.4 2.3 2.1 2.3h.5v1.7h-.7c-1.3 0-3.9-.4-3.9-3.8v-4.8zM284.3 153.3c0-.3-.2-.4-.4-.4h-.8v-1.7h1.9c.9 0 1.3.4 1.3 1.3v6.7c0 .3.2.4.4.4h.8v1.7h-1.9c-.9 0-1.3-.4-1.3-1.3v-6.7zm.1-6.1h1.7v2h-1.7v-2zM289 153.2c-.1-.3-.3-.4-.6-.4h-.2v-1.7h1c.9 0 1.2.2 1.5 1l2.2 5.8c.2.6.4 1.3.4 1.3s.2-.8.4-1.3l2.2-5.8c.3-.8.7-1 1.5-1h.9v1.7h-.2c-.3 0-.5.1-.7.4l-3.1 8.1h-2.2l-3.1-8.1zM305.3 155h.4v-.1c0-1.8-.7-2.4-2.2-2.4-.5 0-1.7.1-1.7.8v.6h-1.8v-1c0-1.7 2.5-1.9 3.5-1.9 3.3 0 4.2 1.7 4.2 4v4.3c0 .3.2.4.4.4h.8v1.7h-1.8c-.9 0-1.3-.4-1.3-1.2v-.6s-.8 2-3.2 2c-1.7 0-3.4-1.1-3.4-3.1 0-3.3 4.4-3.5 6.1-3.5zm-2.2 5c1.6 0 2.7-1.7 2.7-3.2v-.3h-.5c-1.5 0-4.1.1-4.1 1.9 0 .8.6 1.6 1.9 1.6zM31.9 174.9c2.8 0 4.4 2.1 4.4 4.7 0 .3-.1.8-.1.8h-7.4c.1 2.2 1.7 3.4 3.5 3.4 1.7 0 3-1.2 3-1.2l.8 1.4s-1.5 1.5-3.9 1.5c-3.2 0-5.4-2.3-5.4-5.3 0-3.2 2.2-5.3 5.1-5.3zm2.4 4.2c-.1-1.7-1.1-2.6-2.4-2.6-1.5 0-2.7.9-3 2.6h5.4zM44.4 182s1.4 1.7 3.5 1.7c1.3 0 2.4-.8 2.4-2.1 0-3-6.8-2.5-6.8-6.9 0-2.1 1.9-3.8 4.5-3.8 1.5 0 4 .7 4 2.6v1.2h-1.8v-.7c0-.7-1.1-1.3-2.2-1.3-1.5 0-2.5.8-2.5 1.9 0 2.9 6.8 2.2 6.8 6.9 0 2.2-1.7 4-4.5 4-3 0-4.7-2.1-4.7-2.1l1.3-1.4zM59.4 174.9c3 0 5.5 2.2 5.5 5.3 0 3.1-2.4 5.3-5.5 5.3s-5.4-2.2-5.4-5.3c0-3 2.4-5.3 5.4-5.3zm0 9c1.9 0 3.5-1.5 3.5-3.6s-1.6-3.6-3.5-3.6-3.5 1.5-3.5 3.6c.1 2 1.6 3.6 3.5 3.6zM71.8 174.9c1.2 0 3.6.5 3.6 2.2v1h-1.8v-.6c0-.7-1.1-1-1.9-1-2 0-3.5 1.5-3.5 3.6 0 2.3 1.7 3.6 3.6 3.6 1.9 0 3.1-1.4 3.1-1.4l.8 1.4s-1.4 1.7-4.1 1.7c-3.2 0-5.4-2.3-5.4-5.3.1-2.8 2.3-5.2 5.6-5.2zM78.1 177.3c0-.3-.2-.4-.4-.4h-.8v-1.7h1.9c.9 0 1.3.4 1.3 1.3v6.7c0 .3.2.4.4.4h.8v1.7h-1.9c-.9 0-1.3-.4-1.3-1.3v-6.7zm0-6.1h1.7v2h-1.7v-2zM88.6 179h.4v-.1c0-1.8-.7-2.4-2.2-2.4-.5 0-1.7.1-1.7.8v.6h-1.8v-1c0-1.7 2.5-1.9 3.5-1.9 3.3 0 4.2 1.7 4.2 4v4.3c0 .3.2.4.4.4h.8v1.7h-1.8c-.9 0-1.3-.4-1.3-1.2v-.6s-.8 2-3.2 2c-1.7 0-3.4-1.1-3.4-3.1 0-3.3 4.4-3.5 6.1-3.5zm-2.2 5c1.6 0 2.7-1.7 2.7-3.2v-.3h-.5c-1.5 0-4.1.1-4.1 1.9 0 .8.6 1.6 1.9 1.6zM94.3 173.3c0-.3-.2-.4-.4-.4h-.8v-1.7h1.9c.9 0 1.3.4 1.3 1.3v10.7c0 .3.2.4.4.4h.8v1.7h-1.9c-.9 0-1.3-.4-1.3-1.3v-10.7zM103.8 174.9c2.8 0 4.4 2.1 4.4 4.7 0 .3-.1.8-.1.8h-7.4c.1 2.2 1.7 3.4 3.5 3.4 1.7 0 3-1.2 3-1.2l.8 1.4s-1.5 1.5-3.9 1.5c-3.2 0-5.4-2.3-5.4-5.3 0-3.2 2.2-5.3 5.1-5.3zm2.4 4.2c-.1-1.7-1.1-2.6-2.4-2.6-1.5 0-2.7.9-3 2.6h5.4zM118.4 170.6h1.7c-1.5 2.5-2.2 5.1-2.2 8 0 3 .8 6 2.3 8.6h-1.7c-1.5-2.3-2.3-5.4-2.3-8.5-.1-3 .6-5.8 2.2-8.1zM122.9 182s1.4 1.7 3.5 1.7c1.3 0 2.4-.8 2.4-2.1 0-3-6.8-2.5-6.8-6.9 0-2.1 1.9-3.8 4.5-3.8 1.5 0 4 .7 4 2.6v1.2h-1.8v-.7c0-.7-1.1-1.3-2.2-1.3-1.5 0-2.5.8-2.5 1.9 0 2.9 6.8 2.2 6.8 6.9 0 2.2-1.7 4-4.5 4-3 0-4.7-2.1-4.7-2.1l1.3-1.4zM132.5 183.6h1.4v-10.7h-1.4v-1.7h4.7v1.7h-1.4v10.7h1.4v1.7h-4.7v-1.7zM140.1 172.9h-1.3v-1.7h6.2c2.6 0 4.4 1.7 4.4 4.4s-1.8 4.5-4.4 4.5h-2.9v5.2h-2v-12.4zm4.6 5.5c1.7 0 2.7-1.1 2.7-2.8s-1-2.7-2.7-2.7h-2.6v5.5h2.6zM151.9 172.9h-1.3v-1.7h6.2c2.6 0 4.4 1.7 4.4 4.4s-1.8 4.5-4.4 4.5h-2.9v5.2h-2v-12.4zm4.6 5.5c1.7 0 2.7-1.1 2.7-2.8s-1-2.7-2.7-2.7h-2.6v5.5h2.6zM163.6 182s1.4 1.7 3.5 1.7c1.3 0 2.4-.8 2.4-2.1 0-3-6.8-2.5-6.8-6.9 0-2.1 1.9-3.8 4.5-3.8 1.5 0 4 .7 4 2.6v1.2h-1.8v-.7c0-.7-1.1-1.3-2.2-1.3-1.5 0-2.5.8-2.5 1.9 0 2.9 6.8 2.2 6.8 6.9 0 2.2-1.7 4-4.5 4-3 0-4.7-2.1-4.7-2.1l1.3-1.4zM175.6 178.6c0-2.8-.7-5.5-2.2-8h1.7c1.5 2.3 2.3 5.1 2.3 8.1 0 3.1-.8 6.1-2.3 8.5h-1.7c1.4-2.7 2.2-5.7 2.2-8.6zM26.9 329.1h.9c.3 0 .4-.2.4-.4v-12h1.8l6.3 8.9c.5.8 1.2 1.9 1.2 1.9s-.1-1.1-.1-1.9v-7.7c0-.9.4-1.3 1.3-1.3h2v1.7h-.9c-.3 0-.4.1-.4.4v12h-1.8l-6.3-8.9c-.5-.8-1.2-1.9-1.2-1.9s.1 1.1.1 1.9v7.7c0 .9-.4 1.3-1.3 1.3h-2v-1.7zM47.1 320.4c2.8 0 4.4 2.1 4.4 4.7 0 .3-.1.8-.1.8h-7.4c.1 2.2 1.7 3.4 3.5 3.4 1.7 0 3-1.2 3-1.2l.8 1.4s-1.5 1.5-3.9 1.5c-3.2 0-5.4-2.3-5.4-5.3 0-3.2 2.2-5.3 5.1-5.3zm2.4 4.2c-.1-1.7-1.1-2.6-2.4-2.6-1.5 0-2.7.9-3 2.6h5.4zM54 318.8c0-.3-.2-.4-.4-.4h-.8v-1.7h1.9c.9 0 1.3.4 1.3 1.3v10.7c0 .3.2.4.4.4h.8v1.7h-1.9c-.9 0-1.3-.4-1.3-1.3v-10.7zM71 320.5c0-1.3-1-2.2-2.5-2.2-1.3 0-2.2.6-2.2 1.3v.6h-1.8v-1.2c0-1.8 2.5-2.6 4.1-2.6 2.6 0 4.4 1.6 4.4 4.1 0 4.9-7.2 4.9-7.2 8.2 0 .3.2.4.5.4h5c.3 0 .4-.2.4-.4v-1h1.8v1.8c0 .9-.4 1.3-1.3 1.3h-7.2c-1.1 0-1.3-.5-1.3-1.6.1-5.2 7.3-4.9 7.3-8.7zM75.5 323.7c0-4.1 1.2-7.3 5-7.3s5 3.2 5 7.3-1.2 7.3-5 7.3-5-3.2-5-7.3zm8 0c0-3.1-.7-5.5-3-5.5s-3 2.4-3 5.5.7 5.5 3 5.5 3-2.4 3-5.5zM87.6 329.1h3.1v-10s-.2.3-.7.8l-1.3 1.3-1.2-1.2 3.4-3.3h1.8v12.4h3.1v1.7h-8.2v-1.7zM103.4 319.7c.4-.8.8-1.3.8-1.3s-.3.1-1 .1h-4.2c-.3 0-.4.1-.4.4v.9h-1.8v-1.8c0-.9.3-1.3 1.2-1.3h8.6v1.4l-6.8 12.8h-2.2l5.8-11.2zM113.7 318.8c0-.3-.2-.4-.4-.4h-.8v-1.7h1.9c.9 0 1.3.4 1.3 1.3v10.7c0 .3.2.4.4.4h.8v1.7h-1.9c-.9 0-1.3-.4-1.3-1.3v-10.7zM119.2 316.4h1.8l-1.3 3.9h-1.4l.9-3.9zM129.2 316.4c4.1 0 7.3 3.1 7.3 7.2 0 4.2-3.2 7.4-7.3 7.4s-7.2-3.2-7.2-7.4c-.1-4 3.1-7.2 7.2-7.2zm0 12.8c2.9 0 5.2-2.4 5.2-5.5 0-3-2.3-5.3-5.2-5.3s-5.2 2.3-5.2 5.3c0 3.1 2.3 5.5 5.2 5.5zM138.7 328s1.2 1.5 3.1 1.5c.9 0 1.8-.4 1.8-1.3 0-1.8-5.5-1.6-5.5-4.9 0-1.9 1.7-2.8 3.8-2.8 1.2 0 3.3.4 3.3 2v1h-1.7v-.5c0-.6-.9-.9-1.5-.9-1.1 0-1.9.4-1.9 1.2 0 1.9 5.5 1.5 5.5 4.9 0 1.8-1.6 3-3.7 3-2.7 0-4-1.8-4-1.8l.8-1.4zM147.7 328s1.2 1.5 3.1 1.5c.9 0 1.8-.4 1.8-1.3 0-1.8-5.5-1.6-5.5-4.9 0-1.9 1.7-2.8 3.8-2.8 1.2 0 3.3.4 3.3 2v1h-1.7v-.5c0-.6-.9-.9-1.5-.9-1.1 0-1.9.4-1.9 1.2 0 1.9 5.5 1.5 5.5 4.9 0 1.8-1.6 3-3.7 3-2.7 0-4-1.8-4-1.8l.8-1.4zM161.1 320.4c2.8 0 4.4 2.1 4.4 4.7 0 .3-.1.8-.1.8h-7.4c.1 2.2 1.7 3.4 3.5 3.4 1.7 0 3-1.2 3-1.2l.8 1.4s-1.5 1.5-3.9 1.5c-3.2 0-5.4-2.3-5.4-5.3 0-3.2 2.2-5.3 5.1-5.3zm2.3 4.2c-.1-1.7-1.1-2.6-2.4-2.6-1.5 0-2.7.9-3 2.6h5.4zM168 322.8c0-.3-.2-.4-.4-.4h-.8v-1.7h1.8c.9 0 1.3.4 1.3 1.2v1.2999999999999998c.5-1.5 1.6-2.6 3.2-2.6h.5v1.9s-.3-.1-.6-.1c-1.2 0-2.4.9-2.8 2.4-.2.6-.2 1.2-.2 1.8v4.1h-2v-7.9zM175.4 322.7c-.1-.3-.3-.4-.6-.4h-.2v-1.6h1c.9 0 1.2.2 1.5 1l2.2 5.8c.2.6.4 1.3.4 1.3s.2-.8.4-1.3l2.2-5.8c.3-.8.7-1 1.5-1h.9v1.7h-.2c-.3 0-.5.1-.7.4l-3.1 8.1h-2.2l-3.1-8.2zM191.7 324.5h.4v-.1c0-1.8-.7-2.4-2.2-2.4-.5 0-1.7.1-1.7.8v.6h-1.8v-1c0-1.7 2.5-1.9 3.5-1.9 3.3 0 4.2 1.7 4.2 4v4.3c0 .3.2.4.4.4h.8v1.7h-1.8c-.9 0-1.3-.4-1.3-1.2v-.6s-.8 2-3.2 2c-1.7 0-3.4-1.1-3.4-3.1 0-3.3 4.4-3.5 6.1-3.5zm-2.2 5c1.6 0 2.7-1.7 2.7-3.2v-.3h-.5c-1.5 0-4.1.1-4.1 1.9 0 .8.6 1.6 1.9 1.6zM197.5 322.2h-1.3v-1.5h1.4v-2.8h1.9v2.8h2.4v1.6h-2.4v4.6c0 2 1.4 2.3 2.1 2.3h.5v1.7h-.7c-1.3 0-3.9-.4-3.9-3.8v-4.9zM208.8 320.4c3 0 5.5 2.2 5.5 5.3s-2.4 5.3-5.5 5.3-5.4-2.2-5.4-5.3c-.1-3 2.3-5.3 5.4-5.3zm0 9c1.9 0 3.5-1.5 3.5-3.6s-1.6-3.6-3.5-3.6-3.5 1.5-3.5 3.6c0 2 1.6 3.6 3.5 3.6zM216.6 322.8c0-.3-.2-.4-.4-.4h-.8v-1.7h1.8c.9 0 1.3.4 1.3 1.2v1.2999999999999998c.5-1.5 1.6-2.6 3.2-2.6h.5v1.9s-.3-.1-.6-.1c-1.2 0-2.4.9-2.8 2.4-.2.6-.2 1.2-.2 1.8v4.1h-1.9v-7.9h-.1zM224.5 322.8c0-.3-.2-.4-.4-.4h-.8v-1.7h1.9c.9 0 1.3.4 1.3 1.3v6.7c0 .3.2.4.4.4h.8v1.7h-1.9c-.9 0-1.3-.4-1.3-1.3v-6.7zm0-6.1h1.7v2h-1.7v-2zM234.3 320.4c3 0 5.5 2.2 5.5 5.3s-2.4 5.3-5.5 5.3-5.4-2.2-5.4-5.3c0-3 2.4-5.3 5.4-5.3zm0 9c1.9 0 3.5-1.5 3.5-3.6s-1.6-3.6-3.5-3.6-3.5 1.5-3.5 3.6c.1 2 1.6 3.6 3.5 3.6zM28 351.5s1.4 1.7 3.5 1.7c1.3 0 2.4-.8 2.4-2.1 0-3-6.8-2.5-6.8-6.9 0-2.1 1.9-3.8 4.5-3.8 1.5 0 4 .7 4 2.6v1.2h-1.8v-.7c0-.7-1.1-1.3-2.2-1.3-1.5 0-2.5.8-2.5 1.9 0 2.9 6.8 2.2 6.8 6.9 0 2.2-1.7 4-4.5 4-3 0-4.7-2.1-4.7-2.1l1.3-1.4zM43.6 348.5h.4v-.1c0-1.8-.7-2.4-2.2-2.4-.5 0-1.7.1-1.7.8v.6h-1.8v-1c0-1.7 2.5-1.9 3.5-1.9 3.3 0 4.2 1.7 4.2 4v4.3c0 .3.2.4.4.4h.8v1.7h-1.8c-.9 0-1.3-.4-1.3-1.2v-.6s-.8 2-3.2 2c-1.7 0-3.4-1.1-3.4-3.1 0-3.3 4.4-3.5 6.1-3.5zm-2.2 5c1.6 0 2.7-1.7 2.7-3.2v-.3h-.5c-1.5 0-4.1.1-4.1 1.9 0 .8.6 1.6 1.9 1.6zM49.3 346.8c0-.3-.2-.4-.4-.4h-.8v-1.7h1.9c.9 0 1.3.4 1.3 1.1v1c.4-.9 1.6-2.3 3.8-2.3 2.4 0 3.5 1.3 3.5 3.9v4.4c0 .3.2.4.4.4h.8v1.7h-1.9c-.9 0-1.3-.4-1.3-1.3v-4.8c0-1.4-.3-2.5-1.9-2.5-1.6 0-2.8 1-3.2 2.5-.1.4-.2.9-.2 1.4v4.7h-1.9v-8.1h-.1zM61.9 346.8c0-.3-.2-.4-.4-.4h-.8v-1.7h1.8c.9 0 1.2.4 1.2 1v.5s.8-1.8 3.4-1.8c2.7 0 4.5 2.2 4.5 5.3 0 3.2-2 5.3-4.6 5.3-2.2 0-3.1-1.6-3.1-1.6v5.4h-1.9l-.1-12zm4.7 6.6c1.6 0 2.9-1.3 2.9-3.6 0-2.2-1.2-3.6-2.9-3.6-1.5 0-2.9 1.1-2.9 3.6 0 1.8 1 3.6 2.9 3.6zM78 344.4c2.8 0 4.4 2.1 4.4 4.7 0 .3-.1.8-.1.8h-7.3c.1 2.2 1.7 3.4 3.5 3.4 1.7 0 3-1.2 3-1.2l.8 1.4s-1.5 1.5-3.9 1.5c-3.2 0-5.4-2.3-5.4-5.3 0-3.2 2.2-5.3 5-5.3zm2.4 4.2c-.1-1.7-1.1-2.6-2.4-2.6-1.5 0-2.7.9-3 2.6h5.4zM84.9 342.8c0-.3-.2-.4-.4-.4h-.8v-1.7h1.9c.9 0 1.3.4 1.3 1.3v10.7c0 .3.2.4.4.4h.8v1.7h-1.9c-.9 0-1.3-.4-1.3-1.3v-10.7zM90.3 342.8c0-.3-.2-.4-.4-.4h-.9v-1.7h1.9c.9 0 1.3.4 1.3 1.3v10.7c0 .3.2.4.4.4h.8v1.7h-1.9c-.9 0-1.3-.4-1.3-1.3v-10.7h.1zM99.8 344.4c2.8 0 4.4 2.1 4.4 4.7 0 .3-.1.8-.1.8h-7.4c.1 2.2 1.7 3.4 3.5 3.4 1.7 0 3-1.2 3-1.2l.8 1.4s-1.5 1.5-3.9 1.5c-3.2 0-5.4-2.3-5.4-5.3 0-3.2 2.2-5.3 5.1-5.3zm2.4 4.2c-.1-1.7-1.1-2.6-2.4-2.6-1.5 0-2.7.9-3 2.6h5.4zM110.2 344.4c2.5 0 3.2 1.6 3.2 1.6v-.3c0-.6.3-1 1.1-1h1.9v1.7h-.8c-.3 0-.4.1-.4.4v7.6c0 3.3-2.5 4.6-5.1 4.6-1.2 0-2.5-.3-3.5-.8l.7-1.6s1.2.7 2.8.7c1.8 0 3.2-.8 3.2-2.8v-1.2999999999999998c-.6 1-1.5 1.5-3 1.5-2.8 0-4.5-2.3-4.5-5.2 0-2.9 1.6-5.1 4.4-5.1zm3.2 5.1c0-2.6-1.3-3.4-2.9-3.4-1.8 0-2.8 1.3-2.8 3.3 0 2.1 1.1 3.5 2.9 3.5 1.5.1 2.8-.7 2.8-3.4zM118.6 346.8c0-.3-.2-.4-.4-.4h-.8v-1.7h1.8c.9 0 1.3.4 1.3 1.2v1.2999999999999998c.5-1.5 1.6-2.6 3.2-2.6h.5v1.9s-.3-.1-.6-.1c-1.2 0-2.4.9-2.8 2.4-.2.6-.2 1.2-.2 1.8v4.1h-1.9v-7.9h-.1zM126.5 346.8c0-.3-.2-.4-.4-.4h-.8v-1.7h1.9c.9 0 1.3.4 1.3 1.3v6.7c0 .3.2.4.4.4h.8v1.7h-1.9c-.9 0-1.3-.4-1.3-1.3v-6.7zm0-6.1h1.7v2h-1.7v-2zM131.9 346.8c0-.3-.2-.4-.4-.4h-.8v-1.7h1.9c.9 0 1.3.4 1.3 1.1v1c.4-.9 1.6-2.3 3.8-2.3 2.4 0 3.5 1.3 3.5 3.9v4.4c0 .3.2.4.4.4h.8v1.7h-1.9c-.9 0-1.3-.4-1.3-1.3v-4.8c0-1.4-.3-2.5-1.9-2.5-1.6 0-2.8 1-3.2 2.5-.1.4-.2.9-.2 1.4v4.7h-1.9v-8.1h-.1zM148.9 344.4c3 0 5.5 2.2 5.5 5.3s-2.4 5.3-5.5 5.3-5.4-2.2-5.4-5.3c-.1-3 2.3-5.3 5.4-5.3zm0 9c1.9 0 3.5-1.5 3.5-3.6s-1.6-3.6-3.5-3.6-3.5 1.5-3.5 3.6c0 2 1.6 3.6 3.5 3.6zM158.4 352.7l-1.7 4.1h-1.5l1.2-4.1h2zM166.7 346.8c0-.3-.2-.4-.4-.4h-.8v-1.7h1.8c.9 0 1.2.4 1.2 1v.5s.8-1.8 3.4-1.8c2.7 0 4.5 2.2 4.5 5.3 0 3.2-2 5.3-4.6 5.3-2.2 0-3.1-1.6-3.1-1.6v5.4h-1.9v-12h-.1zm4.7 6.6c1.6 0 2.9-1.3 2.9-3.6 0-2.2-1.2-3.6-2.9-3.6-1.5 0-2.9 1.1-2.9 3.6 0 1.8 1 3.6 2.9 3.6zM183.2 344.4c3 0 5.5 2.2 5.5 5.3s-2.4 5.3-5.5 5.3-5.4-2.2-5.4-5.3c0-3 2.4-5.3 5.4-5.3zm0 9c1.9 0 3.5-1.5 3.5-3.6s-1.6-3.6-3.5-3.6-3.5 1.5-3.5 3.6c0 2 1.6 3.6 3.5 3.6zM191.1 346.8c0-.3-.2-.4-.4-.4h-.8v-1.7h1.8c.9 0 1.3.4 1.3 1.2v1.2999999999999998c.5-1.5 1.6-2.6 3.2-2.6h.5v1.9s-.3-.1-.6-.1c-1.2 0-2.4.9-2.8 2.4-.2.6-.2 1.2-.2 1.8v4.1h-1.9v-7.9h-.1zM198.9 346.2h-1.3v-1.5h1.4v-2.8h1.9v2.8h2.4v1.6h-2.4v4.6c0 2 1.4 2.3 2.1 2.3h.5v1.7h-.7c-1.3 0-3.9-.4-3.9-3.8v-4.9zM210.9 348.5h.4v-.1c0-1.8-.7-2.4-2.2-2.4-.5 0-1.7.1-1.7.8v.6h-1.8v-1c0-1.7 2.5-1.9 3.5-1.9 3.3 0 4.2 1.7 4.2 4v4.3c0 .3.2.4.4.4h.8v1.7h-1.8c-.9 0-1.3-.4-1.3-1.2v-.6s-.8 2-3.2 2c-1.7 0-3.4-1.1-3.4-3.1 0-3.3 4.4-3.5 6.1-3.5zm-2.2 5c1.6 0 2.7-1.7 2.7-3.2v-.3h-.5c-1.5 0-4.1.1-4.1 1.9 0 .8.6 1.6 1.9 1.6zM216.6 342.8c0-.3-.2-.4-.4-.4h-.8v-1.7h1.9c.9 0 1.3.4 1.3 1.3v10.7c0 .3.2.4.4.4h.8v1.7h-1.9c-.9 0-1.3-.4-1.3-1.3v-10.7zM226.1 344.4c2.8 0 4.4 2.1 4.4 4.7 0 .3-.1.8-.1.8h-7.4c.1 2.2 1.7 3.4 3.5 3.4 1.7 0 3-1.2 3-1.2l.8 1.4s-1.5 1.5-3.9 1.5c-3.2 0-5.4-2.3-5.4-5.3 0-3.2 2.2-5.3 5.1-5.3zm2.4 4.2c-.1-1.7-1.1-2.6-2.4-2.6-1.5 0-2.7.9-3 2.6h5.4zM238.8 342.8c0-.3-.2-.4-.4-.4h-.9v-1.7h2c.9 0 1.3.4 1.3 1.3v4.9h7.2v-4.9c0-.9.4-1.3 1.3-1.3h2v1.7h-.9c-.3 0-.4.1-.4.4v12h-2v-6.2h-7.2v6.2h-2v-12zM254.2 357.3c.8 0 1.4-.6 1.8-1.5l.5-1.1-3.5-8c-.1-.3-.3-.4-.6-.4h-.2v-1.6h1.1c.8 0 1.1.2 1.4 1l2.3 5.7c.2.5.4 1.2.4 1.2s.1-.7.3-1.2l2.1-5.7c.3-.8.7-1 1.5-1h1.2v1.7h-.3c-.3 0-.5.1-.6.4l-4 9.9c-.6 1.6-1.8 2.4-3.3 2.4l-2.4-1 .8-1.4c0-.1.6.6 1.5.6zM267.9 344.4c2.3 0 3.1 1.6 3.1 1.6v-3.2c0-.3-.2-.4-.4-.4h-.8v-1.7h1.9c.9 0 1.3.4 1.3 1.3v10.7c0 .3.2.4.4.4h.8v1.7h-1.9c-.9 0-1.2-.4-1.2-1.1v-.5s-.8 1.8-3.3 1.8c-2.7 0-4.5-2.2-4.5-5.3 0-3.2 1.9-5.3 4.6-5.3zm3.1 5.3c0-1.8-.9-3.6-2.9-3.6-1.6 0-2.9 1.3-2.9 3.6 0 2.2 1.2 3.6 2.9 3.6 1.5.1 2.9-1 2.9-3.6zM276.3 346.8c0-.3-.2-.4-.4-.4h-.8v-1.7h1.8c.9 0 1.3.4 1.3 1.2v1.2999999999999998c.5-1.5 1.6-2.6 3.2-2.6h.5v1.9s-.3-.1-.6-.1c-1.2 0-2.4.9-2.8 2.4-.2.6-.2 1.2-.2 1.8v4.1h-1.9v-7.9h-.1zM288.6 348.5h.4v-.1c0-1.8-.7-2.4-2.2-2.4-.5 0-1.7.1-1.7.8v.6h-1.8v-1c0-1.7 2.5-1.9 3.5-1.9 3.3 0 4.2 1.7 4.2 4v4.3c0 .3.2.4.4.4h.8v1.7h-1.8c-.9 0-1.3-.4-1.3-1.2v-.6s-.8 2-3.2 2c-1.7 0-3.4-1.1-3.4-3.1 0-3.3 4.4-3.5 6.1-3.5zm-2.2 5c1.6 0 2.7-1.7 2.7-3.2v-.3h-.5c-1.5 0-4.1.1-4.1 1.9 0 .8.6 1.6 1.9 1.6zM294.4 346.2h-1.3v-1.5h1.4v-2.8h1.9v2.8h2.4v1.6h-2.4v4.6c0 2 1.4 2.3 2.1 2.3h.5v1.7h-.7c-1.3 0-3.9-.4-3.9-3.8v-4.9zM301.5 346.8c0-.3-.2-.4-.4-.4h-.8v-1.7h1.9c.9 0 1.3.4 1.3 1.3v6.7c0 .3.2.4.4.4h.8v1.7h-1.9c-.9 0-1.3-.4-1.3-1.3v-6.7zm0-6.1h1.7v2h-1.7v-2zM311.3 344.4c3 0 5.5 2.2 5.5 5.3s-2.4 5.3-5.5 5.3-5.4-2.2-5.4-5.3c0-3 2.4-5.3 5.4-5.3zm0 9c1.9 0 3.5-1.5 3.5-3.6s-1.6-3.6-3.5-3.6-3.5 1.5-3.5 3.6c.1 2 1.6 3.6 3.5 3.6zM319.2 346.8c0-.3-.2-.4-.4-.4h-.8v-1.7h1.9c.9 0 1.3.4 1.3 1.1v1c.4-.9 1.6-2.3 3.8-2.3 2.4 0 3.5 1.3 3.5 3.9v4.4c0 .3.2.4.4.4h.8v1.7h-1.9c-.9 0-1.3-.4-1.3-1.3v-4.8c0-1.4-.3-2.5-1.9-2.5s-2.8 1-3.2 2.5c-.1.4-.2.9-.2 1.4v4.7h-1.9l-.1-8.1zM28.2 366.8c0-.3-.2-.4-.4-.4h-.9v-1.7h2c.9 0 1.3.4 1.3 1.3v10.7c0 .3.2.4.4.4h3.9c.3 0 .4-.2.4-.4v-1h1.8v1.8c0 .9-.4 1.3-1.3 1.3h-6c-.9 0-1.3-.4-1.3-1.3v-10.7h.1zM43.8 372.5h.4v-.1c0-1.8-.7-2.4-2.2-2.4-.5 0-1.7.1-1.7.8v.6h-1.8v-1c0-1.7 2.5-1.9 3.5-1.9 3.3 0 4.2 1.7 4.2 4v4.3c0 .3.2.4.4.4h.8v1.7h-1.8c-.9 0-1.3-.4-1.3-1.2v-.6s-.8 2-3.2 2c-1.7 0-3.4-1.1-3.4-3.1 0-3.3 4.4-3.5 6.1-3.5zm-2.2 5c1.6 0 2.7-1.7 2.7-3.2v-.3h-.5c-1.5 0-4.1.1-4.1 1.9 0 .8.6 1.6 1.9 1.6zM49.5 366.8c0-.3-.2-.4-.4-.4h-.8v-1.7h1.9c.9 0 1.3.4 1.3 1.3v4.1s.9-1.7 3.3-1.7c2.7 0 4.4 2.2 4.4 5.3 0 3.2-1.9 5.3-4.6 5.3-2.3 0-3.2-1.7-3.2-1.7v1.5h-1.9v-12zm4.7 10.6c1.6 0 2.9-1.3 2.9-3.6 0-2.2-1.2-3.6-2.9-3.6-1.5 0-2.9 1.1-2.9 3.6.1 1.8 1 3.6 2.9 3.6zM71 368.4c2.8 0 4.4 2.1 4.4 4.7 0 .3-.1.8-.1.8h-7.4c.1 2.2 1.7 3.4 3.5 3.4 1.7 0 3-1.2 3-1.2l.8 1.4s-1.5 1.5-3.9 1.5c-3.2 0-5.4-2.3-5.4-5.3 0-3.2 2.2-5.3 5.1-5.3zm2.4 4.2c-.1-1.7-1.1-2.6-2.4-2.6-1.5 0-2.7.9-3 2.6h5.4zM82.5 364.5h1.4l-.9 3.9h-1.8l1.3-3.9zm2.7 0h1.4l-.9 3.9h-1.8l1.3-3.9zM88.4 377.1h1.4v-10.7h-1.4v-1.7h4.7v1.7h-1.4v10.7h1.4v1.7h-4.7v-1.7zM95.6 370.8c0-.3-.2-.4-.4-.4h-.8v-1.7h1.9c.9 0 1.3.4 1.3 1.1v1c.4-.9 1.6-2.3 3.8-2.3 2.4 0 3.5 1.3 3.5 3.9v4.4c0 .3.2.4.4.4h.8v1.7h-1.9c-.9 0-1.3-.4-1.3-1.3v-4.8c0-1.4-.3-2.5-1.9-2.5-1.6 0-2.8 1-3.2 2.5-.1.4-.2.9-.2 1.4v4.7h-1.9v-8.1h-.1zM118.7 372.5h.4v-.1c0-1.8-.7-2.4-2.2-2.4-.5 0-1.7.1-1.7.8v.6h-1.8v-1c0-1.7 2.5-1.9 3.5-1.9 3.3 0 4.2 1.7 4.2 4v4.3c0 .3.2.4.4.4h.8v1.7h-1.8c-.9 0-1.3-.4-1.3-1.2v-.6s-.8 2-3.2 2c-1.7 0-3.4-1.1-3.4-3.1 0-3.3 4.4-3.5 6.1-3.5zm-2.3 5c1.6 0 2.7-1.7 2.7-3.2v-.3h-.5c-1.5 0-4.1.1-4.1 1.9 0 .8.6 1.6 1.9 1.6zM130.1 366.4h-1.3v-1.7h6c2.4 0 4.1 1.3 4.1 3.6 0 1.5-.8 2.6-1.8 3 1.5.4 2.3 1.8 2.3 3.4 0 2.7-2 4-4.5 4h-3.6c-.9 0-1.3-.4-1.3-1.3v-11h.1zm4.8 4.2c1.2 0 2-.9 2-2.1s-.8-2.1-2.1-2.1h-2.7v4.2h2.8zm-2.3 6.5h2.5c1.5 0 2.4-1 2.4-2.4s-.9-2.4-2.4-2.4h-3v4.4c0 .2.2.4.5.4zM146.6 368.4c3 0 5.5 2.2 5.5 5.3s-2.4 5.3-5.5 5.3-5.4-2.2-5.4-5.3c-.1-3 2.4-5.3 5.4-5.3zm0 9c1.9 0 3.5-1.5 3.5-3.6s-1.6-3.6-3.5-3.6-3.5 1.5-3.5 3.6c0 2 1.6 3.6 3.5 3.6zM154.5 370.2h-1.3v-1.5h1.4v-2.8h1.9v2.8h2.4v1.6h-2.4v4.6c0 2 1.4 2.3 2.1 2.3h.5v1.7h-.7c-1.3 0-3.9-.4-3.9-3.8v-4.9zM161.6 370.2h-1.3v-1.5h1.4v-2.8h1.9v2.8h2.4v1.6h-2.4v4.6c0 2 1.4 2.3 2.1 2.3h.5v1.7h-.7c-1.3 0-3.9-.4-3.9-3.8v-4.9zM168.4 366.8c0-.3-.2-.4-.4-.4h-.8v-1.7h1.9c.9 0 1.3.4 1.3 1.3v10.7c0 .3.2.4.4.4h.8v1.7h-1.9c-.9 0-1.3-.4-1.3-1.3v-10.7zM177.9 368.4c2.8 0 4.4 2.1 4.4 4.7 0 .3-.1.8-.1.8h-7.4c.1 2.2 1.7 3.4 3.5 3.4 1.7 0 3-1.2 3-1.2l.8 1.4s-1.5 1.5-3.9 1.5c-3.2 0-5.4-2.3-5.4-5.3 0-3.2 2.2-5.3 5.1-5.3zm2.3 4.2c-.1-1.7-1.1-2.6-2.4-2.6-1.5 0-2.7.9-3 2.6h5.4zM184.4 364.4h1.8l-1.3 3.9h-1.4l.9-3.9zm2.7 0h1.8l-1.3 3.9h-1.4l.9-3.9zM191.9 368.7h2v2.1h-2v-2.1zm0 8h2v2.1h-2v-2.1z"/><path class="st6" d="M759.2 205.5h-732.1c-13.5 0-24.5-11-24.5-24.5v-104.3c0-13.5 11-24.5 24.5-24.5h732.1c13.5 0 24.5 11 24.5 24.5v104.3c0 13.5-11 24.5-24.5 24.5zM759.2 423h-732.1c-13.5 0-24.5-11-24.5-24.5v-104.3c0-13.5 11-24.5 24.5-24.5h732.1c13.5 0 24.5 11 24.5 24.5v104.3c0 13.4-11 24.5-24.5 24.5z"/></svg>