<?xml version="1.0" encoding="utf-8"?>
<!-- Generator: Adobe Illustrator 23.0.0, SVG Export Plug-In . SVG Version: 6.00 Build 0)  -->
<svg version="1.1" id="Livello_1" xmlns="http://www.w3.org/2000/svg" xmlns:xlink="http://www.w3.org/1999/xlink" x="0px" y="0px"
	 viewBox="0 0 1147 508" style="enable-background:new 0 0 1147 508;" xml:space="preserve">
<style type="text/css">
	.st0{fill:none;stroke:#AC9EAD;stroke-miterlimit:10;}
	.st1{filter:url(#Adobe_OpacityMaskFilter);}
	.st2{fill:url(#SVGID_2_);}
	.st3{opacity:0.1;mask:url(#SVGID_1_);}
	.st4{fill:none;stroke:#404040;stroke-width:1.2795;stroke-miterlimit:10;}
	.st5{fill:none;stroke:#404040;stroke-width:1.2795;stroke-miterlimit:10;stroke-dasharray:3.3312,3.3312;}
	.st6{fill:#404040;}
	.st7{fill:none;stroke:#000000;stroke-width:0.853;stroke-miterlimit:10;}
	.st8{fill:none;stroke:#000000;stroke-width:0.9789;stroke-miterlimit:10;}
	.st9{fill:none;stroke:#000000;stroke-width:1.2795;stroke-miterlimit:10;}
	.st10{fill:none;stroke:#000000;stroke-width:1.2795;stroke-miterlimit:10;stroke-dasharray:3.3404,3.3404;}
	.st11{fill:#868686;}
	.st12{fill:#9E9E9E;}
	.st13{fill:none;stroke:#CECECE;stroke-miterlimit:10;}
	.st14{fill:none;stroke:#A2A2A2;stroke-miterlimit:10;}
	.st15{fill:none;stroke:#DBDBDB;stroke-miterlimit:10;}
	.st16{fill:none;stroke:#D2D2D2;stroke-miterlimit:10;}
	.st17{fill:none;stroke:#CDCDCD;stroke-miterlimit:10;}
	.st18{fill:none;stroke:#000000;stroke-width:0.738;stroke-miterlimit:10;}
	.st19{fill:#666666;}
	.st20{fill:#4F4F4F;}
	.st21{fill:#7B7B7B;}
	.st22{fill-rule:evenodd;clip-rule:evenodd;fill:#777777;}
	.st23{fill:#A2A2A2;}
	.st24{fill:#CDCDCD;}
	.st25{fill:#DBDBDB;}
	.st26{fill:#CECECE;}
	.st27{fill:#D2D2D2;}
	.st28{fill:#FFFFFF;}
	.st29{fill:none;stroke:#EDEDED;stroke-width:0.853;stroke-miterlimit:10;}
	.st30{fill:#EBEBEB;}
	.st31{fill:none;}
	.st32{clip-path:url(#SVGID_4_);}
	.st33{fill:none;stroke:#636362;stroke-width:1.2795;stroke-miterlimit:10;}
	.st34{fill:none;stroke:#636362;stroke-width:1.2795;stroke-miterlimit:10;stroke-dasharray:3.3312,3.3312;}
	.st35{fill:#636362;}
	.st36{fill:#12100B;}
	.st37{fill:none;stroke:#1D1D1B;stroke-width:0.853;stroke-miterlimit:10;}
	.st38{fill:none;stroke:#12100B;stroke-width:0.9789;stroke-miterlimit:10;}
	.st39{fill:none;stroke:#1D1D1B;stroke-width:1.2795;stroke-miterlimit:10;}
	.st40{fill:none;stroke:#1D1D1B;stroke-width:1.2795;stroke-miterlimit:10;stroke-dasharray:3.3404,3.3404;}
	.st41{fill:#1D1D1B;}
	.st42{fill:#00295A;}
	.st43{fill:#EE7900;}
	.st44{fill:#009C3D;}
	.st45{fill:none;stroke:#F6CB37;stroke-miterlimit:10;}
	.st46{fill:none;stroke:#82C3E3;stroke-miterlimit:10;}
	.st47{fill:none;stroke:#B4CC6F;stroke-miterlimit:10;}
	.st48{fill:none;stroke:#D9C086;stroke-miterlimit:10;}
	.st49{fill:none;stroke:#1D1D1B;stroke-width:0.738;stroke-miterlimit:10;}
	.st50{fill:#E40077;}
	.st51{fill:#E30520;}
	.st52{fill:#00883D;}
	.st53{fill-rule:evenodd;clip-rule:evenodd;fill:#EA6508;}
	.st54{fill:#AC9EAD;}
	.st55{fill:#D9C086;}
	.st56{fill:#82C3E3;}
	.st57{fill:#F6CB37;}
	.st58{fill:#B4CC6F;}
	.st59{fill:none;stroke:#ECECEC;stroke-width:0.853;stroke-miterlimit:10;}
	.st60{fill:#EBEAE9;}
	.st61{fill:#DF0514;}
</style>
<g>
	<polyline class="st0" points="1125.2,257 249.2,257 327.7,23.7 	"/>
	<defs>
		<filter id="Adobe_OpacityMaskFilter" filterUnits="userSpaceOnUse" x="20.1" y="24.8" width="444.3" height="461.9">
			<feColorMatrix  type="matrix" values="1 0 0 0 0  0 1 0 0 0  0 0 1 0 0  0 0 0 1 0"/>
		</filter>
	</defs>
	<mask maskUnits="userSpaceOnUse" x="20.1" y="24.8" width="444.3" height="461.9" id="SVGID_1_">
		<g class="st1">
			
				<radialGradient id="SVGID_2_" cx="239.9768" cy="194.4645" r="220.3333" gradientTransform="matrix(1.0847 0 0 1.0955 -25.0693 39.033)" gradientUnits="userSpaceOnUse">
				<stop  offset="0" style="stop-color:#FFFFFF"/>
				<stop  offset="1" style="stop-color:#000000"/>
			</radialGradient>
			<rect x="-3.8" y="10.7" class="st2" width="478" height="482.8"/>
		</g>
	</mask>
	<g class="st3">
		<g>
			<g>
				<path class="st4" d="M444.7,377.8c-0.3,0.5-0.6,0.9-0.9,1.4"/>
				<path class="st5" d="M442,382c-57.4,88.2-170.2,127.9-272.7,89.3C50.8,426.7-9.1,294.5,35.5,176.1
					C75.5,70,185.6,10.9,293.3,31.7"/>
				<path class="st4" d="M294.9,32c0.5,0.1,1.1,0.2,1.6,0.3"/>
			</g>
		</g>
		<circle class="st6" cx="444.7" cy="377.8" r="7"/>
		<polygon class="st6" points="298.7,32.8 297.9,24.8 309.2,34.6 295.3,40.1 		"/>
		<g>
			<path d="M249.3,47.7c114.7,0,208.1,92.4,209.2,207.3c1.1,115.6-91.7,210.1-207.3,211.2c-0.7,0-1.3,0-2,0
				C134.6,466.3,41.1,373.9,40,259C38.9,143.4,131.7,48.8,247.3,47.8C248,47.7,248.6,47.7,249.3,47.7 M249.3,46.9
				C249.3,46.9,249.3,46.9,249.3,46.9C249.3,46.9,249.3,46.9,249.3,46.9C249.3,46.9,249.3,46.9,249.3,46.9L249.3,46.9
				c-0.7,0-1.3,0-2,0c-28.4,0.3-55.8,6.1-81.6,17.3c-24.9,10.8-47.2,26.2-66.4,45.7c-19.1,19.5-34,42.1-44.4,67.2
				c-10.7,26-16,53.6-15.7,81.9c0.3,28.2,6,55.5,17.1,81.2c10.7,24.8,25.9,47,45.2,66.1c19.3,19.1,41.7,34.1,66.6,44.5
				c25.8,10.8,53.1,16.3,81.2,16.3c0.7,0,1.3,0,2,0c28.4-0.3,55.8-6.1,81.6-17.3c24.9-10.8,47.2-26.2,66.4-45.7
				c19.1-19.5,34-42.1,44.4-67.2c10.7-26,16-53.6,15.7-81.9c-0.3-28.2-6-55.5-17.1-81.2c-10.7-24.8-25.9-47-45.2-66.1
				c-19.3-19.1-41.7-34.1-66.6-44.5C304.8,52.4,277.5,46.9,249.3,46.9L249.3,46.9L249.3,46.9z"/>
		</g>
		<line class="st7" x1="153.5" y1="226.2" x2="361.7" y2="293.2"/>
		<line class="st7" x1="259.2" y1="142.9" x2="239.1" y2="374.3"/>
		<line class="st7" x1="189" y1="176.5" x2="320.1" y2="351.5"/>
		<line class="st7" x1="317.2" y1="160.5" x2="188.4" y2="357.6"/>
		<line class="st7" x1="333.2" y1="175.2" x2="164.9" y2="339.2"/>
		<line class="st7" x1="236" y1="158.3" x2="264.9" y2="373.1"/>
		<line class="st8" x1="355.1" y1="205.1" x2="143.2" y2="309"/>
		<line class="st8" x1="365.4" y1="238.9" x2="135.5" y2="274.7"/>
		<g>
			<g>
				<path class="st9" d="M259.7,138.8c0.6,0.1,1.1,0.1,1.7,0.2"/>
				<path class="st10" d="M264.7,139.3c52.7,7.2,95.7,49.5,101.4,104.8c6.7,64.8-40.4,122.8-105.2,129.4
					c-57.5,5.9-109.6-30.5-125.3-84"/>
				<path class="st9" d="M135.1,288c-0.1-0.5-0.3-1.1-0.4-1.6"/>
			</g>
		</g>
		<circle cx="259.7" cy="138.8" r="6.1"/>
		<polygon points="134.4,285.4 128.8,289 131.8,276.9 141.1,285.2 		"/>
		<g>
			<path d="M249.3,172.1c22.5,0,43.7,8.7,59.7,24.6c16,15.9,25,37,25.2,59.6c0.4,46.8-37.3,85.3-84.1,85.7c-0.3,0-0.5,0-0.8,0
				c-22.5,0-43.7-8.7-59.7-24.6c-16-15.9-25-37-25.2-59.6c-0.4-46.8,37.3-85.3,84.1-85.7C248.7,172.1,249,172.1,249.3,172.1
				L249.3,172.1 M249.3,164.1c-0.3,0-0.6,0-0.9,0c-51.3,0.5-92.5,42.5-92.1,93.8c0.5,51,42,92.1,92.9,92.1c0.3,0,0.6,0,0.9,0
				c51.3-0.5,92.5-42.5,92.1-93.8C341.7,205.1,300.2,164.1,249.3,164.1L249.3,164.1z"/>
		</g>
		<g>
			<path class="st11" d="M249.3,164.4c24.5,0,47.7,9.5,65.1,26.8c17.5,17.3,27.2,40.3,27.4,64.9c0.2,24.7-9.2,48.1-26.5,65.7
				c-17.3,17.6-40.5,27.5-65.2,27.7c-0.3,0-0.6,0-0.9,0c-24.5,0-47.7-9.5-65.1-26.8c-17.5-17.3-27.2-40.3-27.4-64.9
				c-0.2-24.7,9.2-48.1,26.5-65.7s40.5-27.5,65.2-27.7C248.7,164.4,249,164.4,249.3,164.4L249.3,164.4 M249.3,156.4
				c-0.3,0-0.6,0-1,0c-55.5,0.5-100.1,46-99.6,101.5c0.5,55.2,45.4,99.6,100.5,99.6c0.3,0,0.6,0,1,0c55.5-0.5,100.1-46,99.6-101.5
				C349.3,200.8,304.4,156.4,249.3,156.4L249.3,156.4z"/>
		</g>
		<g>
			<path class="st12" d="M249.3,157.4c26.4,0,51.3,10.2,70.1,28.8c18.8,18.6,29.3,43.4,29.5,69.8c0.3,26.6-9.9,51.7-28.5,70.7
				c-18.6,19-43.6,29.6-70.2,29.8c-0.3,0-0.6,0-1,0c-26.4,0-51.3-10.2-70.1-28.8c-18.8-18.6-29.3-43.4-29.5-69.8
				c-0.5-54.9,43.7-100,98.7-100.5C248.7,157.4,249,157.4,249.3,157.4L249.3,157.4 M249.3,149.4c-0.3,0-0.7,0-1,0
				C188.8,150,141.1,198.6,141.7,258c0.6,59.1,48.6,106.6,107.6,106.6c0.3,0,0.7,0,1,0c59.4-0.6,107.1-49.2,106.6-108.6
				C356.3,196.9,308.3,149.4,249.3,149.4L249.3,149.4z"/>
		</g>
		<g>
			<path class="st13" d="M420.6,258.8c-0.3,24-5.6,47.7-15.6,69.6c-12.2,26.8-31.5,50.7-57.3,68.8c-15.6,11-32.4,18.9-49.7,24.1"/>
			<path class="st14" d="M302.7,94.2c33.9,11.1,64.7,32.9,86.8,64.3c21.5,30.5,31.5,65.7,31.1,100.3"/>
			<path class="st15" d="M112.2,154.1c10.5-14,23.4-26.7,38.6-37.3c46-32.3,102.4-38.8,151.9-22.6"/>
			<path class="st16" d="M77.9,255.2c0.4-36.1,12.2-71.7,34.3-101.1"/>
			<path class="st16" d="M109.5,356.2c-0.2-0.2-0.3-0.5-0.5-0.7C87.6,325,77.5,289.9,77.9,255.2"/>
			<path class="st17" d="M298.1,421.3c-68.4,20.3-145-3.8-188.6-65.1"/>
			<line class="st7" x1="310.5" y1="463.2" x2="228.7" y2="188.3"/>
			<line class="st7" x1="464.4" y1="259.3" x2="34.1" y2="254.7"/>
			<line class="st18" x1="396.3" y1="367.3" x2="164" y2="192.4"/>
			<line class="st7" x1="273.3" y1="337" x2="195.8" y2="78.9"/>
			<line class="st7" x1="193.1" y1="427.9" x2="305.4" y2="86.1"/>
			<line class="st7" x1="102.2" y1="360.6" x2="396.4" y2="153.4"/>
			<g>
				<g id="XMLID_390_">
					<path class="st19" d="M335.6,381.7c-2.2,0.3-5.1,0.3-6.5,2c-1.9,2.4-2.1,7.2-2.8,8.4c0,0-0.6,0.3-0.4-0.4
						c1.1-5.4-1.6-10.3-4.8-12c0,0,0.3-1.3,0.4-1.8c-0.1-1.4-4-5.8-5.3-6.9c0,0-0.1-0.7,0.4-0.4c2.8,1.8,4.9,3.9,5.8,4.9
						c0.3,0.4,0.5,0.3,0.4-0.2c-0.4-1.7-1.5-3.9-3.7-7.4c0,0,0-0.7,0.5-0.2c2.8,2.9,8.9,13.5,9.2,13.4c2.6-0.4,5.5-0.2,6.7,0.1
						C335.7,381.4,335.6,381.7,335.6,381.7z"/>
				</g>
				<g id="XMLID_386_">
					<path class="st19" d="M343,375.5c-0.3,0.1-0.6,0.4-0.8,0.7c-0.2,0.5-0.2,1.2,0,1.8c0.2,0.6,0.7,1.1,1.2,1.3
						c0.4,0.2,0.7,0.2,1.1,0.1c0.3-0.1,0.6-0.4,0.8-0.7c0.2-0.5,0.2-1.2,0-1.8c-0.2-0.6-0.7-1.1-1.2-1.4
						C343.7,375.4,343.4,375.3,343,375.5z"/>
				</g>
				<g id="XMLID_381_">
					<path class="st19" d="M329.8,386.6c0.4,0.4,1,0.6,1.5,0.5c0.4,0,0.6-0.2,0.8-0.4c0.2-0.2,0.3-0.6,0.2-0.9
						c-0.1-0.5-0.3-1-0.8-1.4c-0.8-0.7-1.8-0.7-2.3-0.1C328.8,384.9,329,385.9,329.8,386.6z"/>
				</g>
				<g id="XMLID_377_">
					<path class="st19" d="M331.9,375.8c-0.2,0.1-0.3,0.4-0.3,0.6c-0.1,0.4,0.1,1,0.5,1.4c0.6,0.8,1.5,1,2,0.7
						c0.2-0.1,0.3-0.4,0.3-0.6c0.1-0.4-0.1-1-0.5-1.4C333.3,375.7,332.4,375.4,331.9,375.8z"/>
				</g>
				<g id="XMLID_373_">
					<path class="st19" d="M326.3,364.3L326.3,364.3L326.3,364.3c1.6,3.3,2.1,5.1,2.2,5.6c-0.6-0.7-2.9-3-3.9-3.6
						c-0.6-0.4-0.7,0.2-0.7,0.2c6.6,7.7,5.3,10.2,4.5,13.2c-0.1,0.4,0.2,0.4,0.2,0.4c0.4-0.3,1.3-2.3,1.4-2.5
						c2.1-4.7,5.6-3.5,6.3-3.5c0,0,0.2-0.2-0.1-0.4c-0.6-0.3-2.6-0.9-4.5-0.8c-0.7-2.3-3.8-7.3-5-8.8
						C326.4,363.6,326.3,364.3,326.3,364.3z"/>
				</g>
				<g id="XMLID_369_">
					<path class="st19" d="M351,367.2c-3.1,0.3-7.6,2.7-9.5,3.9c-3.1-5.8-7.5-11.7-10.2-14.1c-0.7-0.6-0.8,0.2-0.8,0.2
						c2.3,2.9,5,8.1,4.8,9.7c-1.5-1.4-5.6-4.5-9.3-5.9c-0.8-0.3-0.7,0.3-0.7,0.3c12.7,10,13.5,14.7,14.4,19.6c0.3,1.6,0.6,3.1,1.2,5
						c0.3,0.9,0.8,0.1,0.8,0.1c-1.6-7.3-1.1-14.1,9.8-18.4C351.6,367.6,351.6,367.1,351,367.2z"/>
				</g>
			</g>
			<g>
				<g id="XMLID_365_">
					<path class="st19" d="M251.2,103c1.9,1,4.3,2.8,6.4,2.3c3-0.8,6-4.6,7.3-5.1c0,0,0.6,0.1,0.1,0.6c-4.1,3.7-4.9,9.2-3.2,12.5
						c0,0-1.1,0.9-1.4,1.2c-0.7,1.2-0.2,7,0.2,8.7c0,0-0.3,0.6-0.5,0.1c-1.2-3.1-1.6-6.1-1.8-7.4c0-0.5-0.2-0.5-0.5,0
						c-0.7,1.6-1.1,4-1.4,8.1c0,0-0.4,0.6-0.5-0.1c-0.5-3.9,0.9-16.1,0.6-16.3c-2.3-1.2-4.6-3.1-5.3-4.1
						C250.9,103.1,251.2,103,251.2,103z"/>
				</g>
				<g id="XMLID_361_">
					<path class="st19" d="M241.5,103.6c0.3,0.1,0.7,0.1,1-0.1c0.5-0.3,0.9-0.8,1.1-1.4c0.2-0.6,0.1-1.3-0.1-1.8
						c-0.2-0.4-0.5-0.6-0.8-0.7c-0.3-0.1-0.7-0.1-1,0.1c-0.5,0.3-0.9,0.8-1,1.4c-0.2,0.6-0.1,1.3,0.1,1.8
						C240.9,103.3,241.2,103.5,241.5,103.6z"/>
				</g>
				<g id="XMLID_357_">
					<path class="st19" d="M258.8,102.5c-0.1-0.6-0.5-1-0.9-1.3c-0.3-0.2-0.6-0.2-0.9-0.2c-0.3,0.1-0.6,0.3-0.7,0.6
						c-0.3,0.4-0.3,1-0.2,1.6c0.2,1,1.1,1.7,1.8,1.5C258.6,104.4,259,103.5,258.8,102.5z"/>
				</g>
				<g id="XMLID_353_">
					<path class="st19" d="M250.7,110c0.2,0,0.5-0.1,0.7-0.3c0.3-0.3,0.5-0.9,0.5-1.4c0-0.9-0.5-1.7-1.2-1.7c-0.2,0-0.5,0.1-0.7,0.3
						c-0.3,0.3-0.5,0.9-0.5,1.4C249.5,109.2,250.1,110,250.7,110z"/>
				</g>
				<g id="XMLID_349_">
					<path class="st19" d="M248.4,122.5L248.4,122.5L248.4,122.5c0.6-3.6,1.4-5.3,1.6-5.8c0,0.9,0.6,4.1,1,5.2
						c0.3,0.7,0.7,0.2,0.7,0.2c-0.7-10.1,1.8-11.4,4.1-13.3c0.3-0.2,0-0.4,0-0.4c-0.5,0-2.4,1-2.6,1.1c-4.5,2.5-6.6-0.5-7.2-0.9
						c0,0-0.3,0-0.2,0.4c0.3,0.6,1.6,2.3,3.1,3.3c-0.8,2.3-1.2,8.1-1.1,10C247.9,123,248.4,122.5,248.4,122.5z"/>
				</g>
				<g id="XMLID_345_">
					<path class="st19" d="M230.2,105.6c2.7,1.6,7.7,2.3,9.9,2.5c-1,6.5-0.9,13.9-0.1,17.4c0.2,0.9,0.8,0.3,0.8,0.3
						c-0.1-3.7,0.8-9.5,1.9-10.7c0.4,2,1.8,6.9,4,10.2c0.4,0.7,0.8,0.2,0.8,0.2c-4.3-15.6-2.2-19.8,0-24.3c0.7-1.4,1.4-2.9,2-4.8
						c0.3-0.9-0.6-0.6-0.6-0.6c-3,6.8-7.4,12-18.8,9C230,104.8,229.7,105.2,230.2,105.6z"/>
				</g>
			</g>
			<g>
				<path class="st20" d="M99,310.6l8.3-5.8l8.1,6.1l-3-9.7l8.3-5.8l-10.1-0.2l-3-9.7l-3.3,9.6l-10.1-0.2l8.1,6.1L99,310.6z
					 M96.7,295.8l8.2,0.1l2.7-7.8l2.4,7.8l8.2,0.1l-6.7,4.7l2.4,7.9l-6.6-4.9l-6.7,4.7l2.6-7.7L96.7,295.8z"/>
				<polygon class="st20" points="116.1,296.8 109.5,296.6 107.5,290.3 105.4,296.6 98.7,296.5 104,300.5 101.9,306.7 101.9,306.7 
					107.3,302.9 112.6,306.9 110.7,300.6 116.1,296.8 				"/>
			</g>
			<g>
				<path class="st20" d="M325.7,155.5l8.3-5.8l8.1,6.1l-3-9.7l8.3-5.8l-10.1-0.2l-3-9.7L331,140l-10.1-0.2l8.1,6.1L325.7,155.5z
					 M323.4,140.7l8.2,0.1l2.7-7.8l2.4,7.8l8.2,0.1l-6.7,4.7l2.4,7.9l-6.6-4.9l-6.7,4.7l2.6-7.7L323.4,140.7z"/>
				<polygon class="st20" points="342.8,141.7 336.2,141.5 334.2,135.2 332,141.5 325.4,141.4 330.7,145.4 328.6,151.6 328.6,151.6 
					334,147.8 339.3,151.8 337.3,145.5 342.8,141.7 				"/>
			</g>
			<path class="st21" d="M369.1,313.2c2.9-0.8,5.8-1.7,8.6-2.5c5.9-1.7,12.3-3.6,18.3-5.3L378.2,283c0,0,0,0.2-0.1,0.2
				c-0.6,1.9-1.2,3.8-1.8,5.7c-0.1,0.3-0.1,0.3-0.1,0.3l9.3,11.9c0.7,0.9,0.5,1.4-0.5,1.7c-4.3,1.3-10.1,3-14.4,4.2
				c0,0-0.2,0.6-0.5,1.6c-0.1,0.3-0.2,0.6-0.3,1c-0.4,1.2-0.8,2.5-1.2,3.8C368.8,313.3,369,313.3,369.1,313.2z M387.8,305.8
				c0,0,0.3-0.8,0.3-0.8l0.1-0.3c0.3-0.1,1.3-0.4,1.6-0.5c0.7-0.3,0.8-0.8,0.4-1.3c-0.3-0.4-0.8-1-1.1-1.4c0,0,0-0.1,0.1-0.4
				c0.2-0.5,0.3-1.1,0.6-1.7c1.5,1.9,2.8,3.6,4.2,5.5l-6.4,1.8C387.6,306.6,387.8,305.8,387.8,305.8z"/>
			<path class="st21" d="M184.1,138.5c-2.8-1.1-5.6-2.1-8.4-3.2c-5.8-2.2-12-4.6-17.8-6.8l0.8,28.7c0,0,0.1-0.1,0.2-0.1
				c1.6-1.1,3.2-2.3,4.9-3.5c0.2-0.2,0.2-0.2,0.2-0.2l-0.2-15.1c0-1.1,0.4-1.4,1.4-1.1c4.2,1.6,9.9,3.7,14.1,5.3c0,0,0.5-0.4,1.4-1
				c0.3-0.2,0.5-0.4,0.8-0.6c1.1-0.8,2.1-1.5,3.3-2.3C184.5,138.6,184.3,138.6,184.1,138.5z M164.7,133.2c0,0-0.7,0.5-0.7,0.5
				l-0.3,0.2c-0.3-0.1-1.2-0.5-1.6-0.6c-0.7-0.2-1.1,0.1-1.1,0.9c0,0.5,0,1.3,0.1,1.7c0,0-0.1,0.1-0.3,0.2c-0.5,0.3-0.9,0.6-1.5,1.1
				c0-2.4-0.1-4.6-0.1-6.9l6.3,2.4C165.4,132.7,164.7,133.2,164.7,133.2z"/>
			<g>
				<path class="st22" d="M99.7,207.1c0.9-0.6,1.9-1,3-1.1c0.3,0,0.4-0.1,0.4-0.4c0.1-1,0.6-1.8,1.2-2.7c0.1,2.1,0.7,4,1.7,5.8
					C104,207.8,101.9,207.3,99.7,207.1z"/>
				<path class="st22" d="M108.2,200.8c-1.3-0.1-2.7,0.8-3,2.1c-0.2,1-0.2,2,0.1,2.9c0.7,2.2,2.1,3.7,4.1,4.9
					c0.9,0.6,1.9,0.9,2.9,1.2c0.3,0.1,0.3,0.1,0.2,0.4c0,0,0,0.1-0.1,0.1c-0.2-0.1-0.4-0.1-0.6-0.1c-0.9-0.2-1.8-0.5-2.7-0.9
					c-1-0.5-2.1-1.1-3.1-1.7c-1-0.6-2-1-3.1-1.3c-1.1-0.3-2.2-0.4-3.3-0.4c-1.8,0-3.6,0.4-5.2,1.3c-0.2,0.1-0.5,0.3-0.7,0.4
					c0,0,0,0,0,0c0.7,0.9,1.4,1.6,2.3,2.2c1.1,0.8,2.3,1.3,3.6,1.7c0.9,0.3,1.9,0.4,2.9,0.4c1,0,2.1-0.1,3.1-0.3
					c1.7-0.3,3.3-0.6,5-0.5c0.5,0,1,0.1,1.5,0.1c0,0.2,0,0.3,0,0.5c-0.1,0-0.2,0-0.3,0c-0.6,0-1.1-0.1-1.7,0
					c-2.4,0.1-4.6,0.9-6.3,2.6c-1,0.9-1.7,2.1-1.8,3.4c-0.1,0.5,0,1,0.2,1.5c0.5,1.2,1.9,1.9,3.2,1.7c1.1-0.2,2-0.7,2.8-1.5
					c0.7-0.6,1.3-1.3,2-1.9c0.6-0.5,1.2-1,1.9-1.2c0,0,0.1-0.1,0.1-0.1c-0.4-0.3-0.8-0.5-1.2-0.8c-0.2,0.2-0.4,0.4-0.6,0.7
					c-0.4,0.4-0.8,0.8-1.4,0.9c-1.1,0.3-2-0.5-2-1.6c0-0.6,0.3-1.1,0.7-1.5c0.8-0.8,1.8-1.2,2.9-1.2c0.4,0,0.8,0,1.2,0
					c0,0.4,0,0.7,0,1.1c0,0.6,0,0.6,0.6,0.7c0,0,0,0,0,0c0.1,0,0.1,0,0.2-0.1c0.1-0.2,0.2-0.3,0.2-0.5c0.1-0.2,0.2-0.5,0.3-0.7
					c0.4,0.2,0.8,0.5,1.1,0.9c0.4,0.6,0.6,1.3,0.3,2c-0.1,0.2-0.2,0.4-0.3,0.6c0.2,0.1,0.6,0.2,1.1,0.2c0.8,0,1.4-0.6,1.5-1.4
					c0.1-0.7-0.2-1.3-0.7-1.8c-0.6-0.6-1.4-1-2.2-1.3c-0.3-0.1-0.3-0.1-0.3-0.4c0-0.2,0.1-0.2,0.2-0.1c0.7,0.3,1.4,0.6,2.1,0.9
					c0.5,0.2,1,0.4,1.6,0.4c0.9,0.1,1.8-0.2,2.6-0.6c-0.9-0.1-4.8-0.8-4.8-0.8s0.5,0.6,1.4,0.8c0.9,0.3,1.6,0.3,1.8,0.3
					c0.1,0,0.1,0,0.1,0s0,0-0.1,0c-0.3,0-1.2,0.1-1.9-0.1c-1-0.3-1.5-1.1-1.5-1.1s1.1-0.8,2.7-0.4c0.7,0.2,1.7,0.9,2.4,1.2
					c0,0,0.1,0,0.1,0c0.1,0,0.1-0.1,0.2-0.1c-0.3-0.3-0.6-0.5-0.9-0.8c-0.7-0.5-1.4-0.9-2.3-1c-0.5,0-1,0-1.6,0.1
					c-0.6,0-1.2,0.1-1.9,0c0-0.2,0-0.3,0-0.5c0,0,0,0,0.1,0c0.2,0,0.3,0,0.5,0c0.9,0,1.7-0.2,2.5-0.6c0.7-0.3,1.1-0.9,1.2-1.6
					c0.1-0.8-0.4-1.4-1.1-1.5c-0.3-0.1-0.6-0.1-0.9-0.1c0.7,1.2-0.6,2.8-2.1,2.8c0-0.3,0-0.6,0-0.9c0-0.6,0-0.6-0.6-0.7
					c-0.2,0-0.2,0-0.3,0.1c-0.2,0.4-0.3,0.8-0.5,1.2c0,0.1-0.1,0.2-0.2,0.1c-0.9-0.2-1.7-0.6-2.3-1.2c-0.7-0.6-1.2-1.4-1.2-2.3
					c0-0.6,0.1-1.1,0.6-1.5c0.7-0.5,1.5-0.4,2.2,0.2c0.3,0.3,0.5,0.7,0.7,1.1c0.1,0.3,0.2,0.5,0.3,0.8c0.4-0.2,0.8-0.3,1.3-0.4
					c0,0,0.1,0,0.1,0c0,0,0-0.1-0.1-0.1c-0.4-0.3-0.7-0.6-1-1.1c-0.5-0.9-1-1.9-1.5-2.9c-0.3-0.6-0.6-1.2-1.1-1.7
					C110.1,201.4,109.3,200.9,108.2,200.8z M107.3,219c0.9,1.2,2.5,0.7,2.5,0.7s-1.2,1.2-2.9,1.4c-0.4,0-1.1-0.1-1.5-0.6
					c-0.7-0.8-0.3-1.6-0.1-2.1c1.2-2.6,3.9-3.6,3.9-3.6C106.6,216.6,106.7,218.1,107.3,219z M105.8,216c-3.5,2.2-3,4.8-2.5,5.5
					c1.1,1.7,3.7,0.6,3.7,0.6s-1,0.6-2.3,0.4c-0.2,0-1.1-0.2-1.5-0.8c-0.7-0.8-0.6-2-0.4-2.7c1.5-4.2,6.4-4.5,6.4-4.5
					C107.8,215.1,106.7,215.5,105.8,216z M116.4,217.5c0,0.6-0.8,1.1-0.8,1.1c1-1.8-0.9-3.1-0.9-3.1S116.3,216.2,116.4,217.5z
					 M95.2,210.1c0,0,1.6,1.7,4.3,2.6c3,0.9,5,0.9,5.8,0.9c0.3,0,0.4,0,0.4,0s-0.1,0-0.4,0c-1,0.1-3.9,0.2-5.9-0.4
					c-3.1-0.9-4.9-3.2-4.9-3.2s3.6-2.2,8.5-1.1c2.4,0.5,5.7,3,8.1,3.9C111.2,212.8,95.2,210.1,95.2,210.1z M117.2,209.1
					c0,0,0.6,0.7,0.4,1.3c-0.5,1.2-2.3,1.4-2.3,1.4S117.6,211.2,117.2,209.1z M109.9,203.6c1.5,0.7,2.2,2.3,2.2,2.3s-1.3-1-2.6-0.1
					c-0.9,0.6-1.5,2,0.4,4.6c0,0-2.3-1.9-2.5-4.7c0-0.5-0.1-1.4,0.8-2C108.9,203.3,109.6,203.5,109.9,203.6z M108.4,201.4
					c1.3,0.3,2,1.2,2,1.2s-2.1-1.9-3.7-0.7c-0.7,0.5-2,2.8,0.5,6.1c0.6,0.8,1.5,1.5,2.7,2.4c0,0-4.5-1.8-4.5-6.4
					c0-0.8,0.4-1.9,1.3-2.4C107.3,201.3,108.2,201.4,108.4,201.4z"/>
			</g>
			<path class="st23" d="M394.8,154.8c22.3,31.8,32.8,68.4,32.3,104.4l37.1,0.3c0.5-43.6-12.1-87.7-39-126
				c-27.6-39.4-66.1-66.6-108.5-80.6l-11.5,35.2C340.2,99.7,372,122.2,394.8,154.8z"/>
			<path class="st24" d="M104.1,359.9l-30.3,21.3c54.6,77.1,150.7,107.4,236.6,81.9l-10.6-35.5C228.9,448.7,149.3,423.6,104.1,359.9
				z"/>
			<path class="st25" d="M147,111.4c47.8-33.6,106.5-40.3,158.1-23.3l11.5-35.2c-62.3-20.5-133.1-12.4-190.9,28.2
				c-19.1,13.4-35.3,29.4-48.6,47.1l29.6,22.3C117.7,135.8,131.2,122.6,147,111.4z"/>
			<path class="st26" d="M351.5,402.6c-16.2,11.4-33.6,19.7-51.6,25l10.6,35.5c21.7-6.5,42.8-16.5,62.4-30.2
				c58.8-41.3,90.6-106.7,91.4-173.4l-37.1-0.3C426.4,314.4,400.1,368.4,351.5,402.6z"/>
			<path class="st27" d="M73.8,381.2l30.3-21.3c-0.2-0.2-0.3-0.4-0.5-0.6c-45.4-64.6-41.8-148.8,3.1-208.8l-29.6-22.3
				c-54.2,72.4-58.6,174.3-3.8,252.4C73.5,380.8,73.7,381,73.8,381.2z"/>
			<g>
				<g id="XMLID_341_">
					<path class="st19" d="M393.4,215.7c-0.4,2.1-1.5,4.9-0.4,6.8c1.6,2.6,6.1,4.5,6.9,5.5c0,0,0.1,0.6-0.5,0.3
						c-4.7-2.9-10.2-2.1-12.9,0.5c0,0-1.2-0.8-1.6-1c-1.4-0.3-6.8,1.8-8.3,2.7c0,0-0.7-0.1-0.2-0.5c2.7-2,5.4-3.3,6.6-3.8
						c0.5-0.2,0.4-0.4-0.1-0.5c-1.8-0.2-4.1,0-8.2,0.9c0,0-0.7-0.3,0-0.6c3.6-1.6,15.7-3.7,15.8-4c0.5-2.6,1.7-5.2,2.4-6.3
						C393.2,215.4,393.4,215.7,393.4,215.7z"/>
				</g>
				<g id="XMLID_337_">
					<path class="st19" d="M390.1,206.6c0,0.4,0.1,0.7,0.4,1c0.4,0.4,1,0.6,1.7,0.6c0.7,0,1.3-0.2,1.7-0.6c0.3-0.3,0.4-0.6,0.4-1
						c0-0.3-0.1-0.7-0.4-1c-0.4-0.4-1-0.6-1.7-0.6c-0.7,0-1.3,0.2-1.7,0.6C390.3,205.9,390.1,206.2,390.1,206.6z"/>
				</g>
				<g id="XMLID_333_">
					<path class="st19" d="M396,222.8c0.5-0.3,0.9-0.7,1-1.2c0.1-0.3,0.1-0.7-0.1-0.9c-0.2-0.3-0.4-0.5-0.8-0.5
						c-0.5-0.1-1.1,0-1.6,0.3c-0.9,0.5-1.3,1.5-0.9,2.1C394.1,223.2,395.1,223.3,396,222.8z"/>
				</g>
				<g id="XMLID_329_">
					<path class="st19" d="M386.6,217.1c0.1,0.2,0.2,0.4,0.5,0.5c0.4,0.2,1,0.2,1.5,0.1c0.9-0.3,1.5-1,1.3-1.6
						c-0.1-0.2-0.2-0.4-0.5-0.5c-0.4-0.2-1-0.2-1.5-0.1C387,215.8,386.4,216.5,386.6,217.1z"/>
				</g>
				<g id="XMLID_325_">
					<path class="st19" d="M373.9,218.4L373.9,218.4L373.9,218.4c3.6-0.4,5.5-0.2,6-0.1c-0.9,0.3-3.8,1.7-4.7,2.5
						c-0.6,0.5,0,0.7,0,0.7c9.5-3.5,11.4-1.5,13.9,0.2c0.3,0.2,0.4-0.1,0.4-0.1c-0.2-0.4-1.7-2-1.8-2.2c-3.7-3.6-1.3-6.5-1.1-7.2
						c0,0-0.1-0.3-0.5,0c-0.5,0.4-1.7,2.2-2.3,3.9c-2.4-0.1-8.1,1.1-10,1.7C373.3,218.1,373.9,218.4,373.9,218.4z"/>
				</g>
				<g id="XMLID_321_">
					<path class="st19" d="M385.1,196.3c-0.8,3.1-0.1,8.1,0.4,10.2c-6.5,0.9-13.6,3-16.8,4.8c-0.8,0.5-0.1,0.8-0.1,0.8
						c3.5-1.1,9.3-1.9,10.8-1.2c-1.8,0.9-6.1,3.7-8.7,6.7c-0.5,0.6,0.1,0.8,0.1,0.8c13.7-8.5,18.4-7.7,23.3-6.8
						c1.6,0.3,3.1,0.5,5.1,0.6c0.9,0,0.4-0.8,0.4-0.8c-7.4-0.9-13.6-3.7-13.9-15.5C385.7,195.8,385.2,195.6,385.1,196.3z"/>
				</g>
			</g>
			<path class="st21" d="M228.4,389.2c1.4,2.7,2.8,5.3,4.2,8c2.8,5.5,5.9,11.4,8.8,16.9l18.5-21.9c0,0-0.2,0-0.2,0
				c-2-0.2-4-0.4-5.9-0.7c-0.3,0-0.3,0-0.3,0l-9.9,11.4c-0.7,0.8-1.3,0.8-1.8-0.2c-2.1-4-4.9-9.3-7-13.3c0,0-0.7-0.1-1.7-0.2
				c-0.3,0-0.7-0.1-1-0.1c-1.3-0.1-2.6-0.3-4-0.4C228.3,388.9,228.4,389.1,228.4,389.2z M239.4,406.1c0,0,0.8,0.1,0.8,0.1l0.3,0
				c0.1,0.3,0.6,1.2,0.8,1.5c0.4,0.6,0.9,0.6,1.4,0.1c0.3-0.3,0.8-1,1.1-1.3c0,0,0.1,0,0.4,0c0.6,0.1,1.1,0.1,1.8,0.2
				c-1.6,1.8-3,3.5-4.5,5.2l-3.1-6C238.5,406,239.4,406.1,239.4,406.1z"/>
			<g id="GoFPfz.tif_4_">
				<g transform="matrix(1 -2.980232e-08 2.980232e-08 1 1.525879e-05 0)">
					
						<image style="overflow:visible;" width="2230" height="1476" id="Livello_1_4_" xlink:href="A0B56B822BF3BACD.png"  transform="matrix(-2.339909e-02 -1.805001e-02 1.805001e-02 -2.339909e-02 174.9236 411.3428)">
					</image>
				</g>
			</g>
		</g>
		<g>
			<circle class="st28" cx="249.3" cy="257" r="86.2"/>
			<g>
				<line class="st29" x1="309.9" y1="196.6" x2="188" y2="316.3"/>
				<line class="st29" x1="309.4" y1="317.4" x2="189.7" y2="195.5"/>
				<line class="st29" x1="296.1" y1="185.1" x2="202" y2="327.9"/>
				<line class="st29" x1="321" y1="303.4" x2="178.2" y2="209.3"/>
				<line class="st29" x1="333.4" y1="239.1" x2="165.1" y2="273.2"/>
				<line class="st29" x1="266.3" y1="340.3" x2="232.4" y2="172.9"/>
				<line class="st29" x1="335.1" y1="254.9" x2="163.4" y2="255.6"/>
				<line class="st29" x1="248.7" y1="342" x2="249.8" y2="171.3"/>
				<line class="st29" x1="307.9" y1="217.3" x2="190.7" y2="295"/>
				<line class="st29" x1="288.1" y1="314.8" x2="210.4" y2="197.6"/>
				<line class="st29" x1="318.2" y1="269.8" x2="180.3" y2="242.6"/>
				<line class="st29" x1="235.7" y1="325.1" x2="262.9" y2="187.2"/>
				<line class="st29" x1="313.9" y1="283.8" x2="184.7" y2="228.5"/>
				<line class="st29" x1="221.6" y1="320.8" x2="277" y2="191.5"/>
				<line class="st29" x1="314.5" y1="230" x2="184" y2="282.3"/>
				<line class="st29" x1="275.4" y1="321.4" x2="223.1" y2="190.9"/>
				<g>
					<polygon class="st30" points="249.8,187.3 268.2,239.9 324.5,239.3 277.5,272.1 296.2,324.6 250.5,292.3 202,325.4 
						219.9,272.8 172,240.7 232.4,240.2 					"/>
					<polygon class="st28" points="250,205 264.1,245.3 306.8,245 270.8,270.1 285.1,310.3 250.5,285.6 212.8,311 226.4,270.5 
						189.8,246.1 236.7,245.6 					"/>
					<polygon class="st30" points="250.1,213.8 262,248.1 298.1,247.8 267.4,269.1 279.6,303.3 250.4,282.2 218.1,303.9 
						229.7,269.4 198.6,248.7 238.7,248.3 					"/>
					<g>
						<path d="M238.5,286.6c0-1.4-1.2-2.5-2.6-2.5l-5.6,0.1l0.1,8.7l1.2,0l0-3.5l3.3,0l2.4,3.5l1.4,0l-2.4-3.6
							C237.7,288.8,238.5,288,238.5,286.6z M236.8,287.7c-0.2,0.2-0.5,0.4-0.9,0.4l-4.4,0l0-2.8l4.5,0c1,0,1.2,0.8,1.2,1.4l0,0
							C237.2,287.1,237.1,287.5,236.8,287.7z"/>
						<path d="M247.3,289.8c0,1.2-1.4,1.9-2.8,1.9c-1.3,0-2.7-0.6-2.7-1.8l-0.1-5.8l-1.2,0l0.1,5.9c0,0.7,0.3,1.4,0.8,1.9
							c0.7,0.7,1.7,1,3,1c0,0,0,0,0.1,0c2.7-0.1,4-1,4-3l-0.1-5.9l-1.2,0L247.3,289.8z"/>
						<path d="M257.1,283.9l-5.6,0.1l0.1,8.7l1.2,0l0-3.6l4.3,0c1.2,0,2.2-1.1,2.2-2.4v0c0-0.7-0.3-1.5-0.9-2
							C258,284.1,257.5,283.9,257.1,283.9z M258,286.6L258,286.6c0,0.4-0.1,0.8-0.4,1c-0.1,0.1-0.3,0.2-0.4,0.2l-4.4,0l0-2.8l4.3,0
							C257.4,285.1,257.9,285.8,258,286.6z"/>
						<path d="M266.9,283.8l-5.6,0.1l0.1,8.7l1.2,0l0-3.6l4.3,0c1.2,0,2.2-1.1,2.2-2.4c0-0.7-0.3-1.5-0.9-2
							C267.8,284,267.3,283.8,266.9,283.8z M267.8,286.5L267.8,286.5c0,0.4-0.1,0.8-0.4,1c-0.1,0.1-0.3,0.2-0.4,0.2l-4.4,0l0-2.8
							l4.3,0C267.3,285,267.8,285.7,267.8,286.5z"/>
						<path d="M275.1,292.5c1.5,0,2.8-0.6,3.7-1.5c0.8-0.8,1.2-1.9,1.2-3c0-3.1-2.6-4.4-5-4.4c-1.4,0-2.7,0.6-3.6,1.5
							c-0.8,0.8-1.2,1.9-1.2,3C270.2,290.5,272.6,292.6,275.1,292.5z M271.5,288.1c0-1.8,1.9-3.3,3.6-3.3c0,0,0,0,0.1,0
							c1,0,2.1,0.4,2.8,1.1c0.6,0.6,0.9,1.3,0.9,2.1c0,0.8-0.3,1.6-0.9,2.2c-0.7,0.7-1.7,1.1-2.8,1.1c0,0,0,0,0,0
							C273.1,291.4,271.5,290,271.5,288.1z"/>
						<path d="M223.9,289.4l3,0l0,1.5c-0.2,0.2-1.2,1-2.9,1c-2.3,0-3.7-1.2-3.8-3.3c0-1.9,1.4-3.2,3.6-3.2c0,0,0.1,0,0.1,0
							c1.7,0,3.1,1,3.1,1l0.1,0.1l0.8-0.9l-0.2-0.1c-1.4-0.9-2.6-1.4-3.9-1.4c-1.4,0-2.7,0.5-3.7,1.5c-0.8,0.8-1.3,1.9-1.2,3
							c0,2.8,2,4.5,5,4.5c2.7,0,4-1.7,4.1-1.7l0,0l0-3l-4.2,0L223.9,289.4z"/>
						<g>
							<polygon class="st20" points="249.6,205.4 256.5,225.2 277.6,225 260,237.3 267,257 249.8,244.9 231.6,257.3 238.3,237.5 
								220.3,225.5 243,225.3 							"/>
							<polygon class="st28" points="249.6,212.1 254.9,227.2 271,227.1 257.4,236.5 262.8,251.6 249.8,242.3 235.6,251.9 
								240.7,236.7 227,227.5 244.6,227.3 							"/>
							<polygon class="st20" points="249.7,215.4 254.1,228.3 267.7,228.1 256.2,236.1 260.7,249 249.8,241.1 237.7,249.2 
								242,236.3 230.3,228.5 245.4,228.3 							"/>
						</g>
						<path d="M180.2,269.8c0-0.5,0.3-1.2,1.9-1.2c1.5,0,2.8,0.7,2.8,0.7l-0.3-3.1c-0.2,0.2-0.5,0.3-0.7,0.2
							c-0.5-0.1-1.3-0.2-2.2-0.2c-3.3,0-4.8,2-4.8,3.8c0,3.5,5.4,3.7,5.4,6.2c0,0.9-0.9,1.4-1.9,1.5c-2.2,0-3.7-1-3.7-1l0.4,3.1
							c0.3-0.1,0.5-0.1,0.8-0.1c0.7,0.2,1.8,0.4,2.9,0.4c3.2,0,4.8-1.8,4.8-3.9C185.5,271.7,180.2,271.8,180.2,269.8z"/>
						<path d="M292,266.6l0.1,12.1l3,0l-0.1-13.4l-3.6,0C291.5,265.4,292,265.7,292,266.6z"/>
						<path d="M289.4,269.8c0-2.4-2-4.4-4.4-4.4l-6.4,0.1c0,0,0.5,0.4,0.5,0.9l0.1,12.4l2.9,0l0-4.6l1.8,0l2.7,4.5l3.3,0l-2.9-5
							C288.4,273,289.4,271.5,289.4,269.8z M282.1,268.3l2.7,0c0.8,0,1.5,0.7,1.5,1.5c0,0.8-0.7,1.5-1.5,1.5l-2.7,0L282.1,268.3z"/>
						<path d="M274.3,272.2c0,0.3,0,2.2,0,2.2s-1.1,1.9-2.9,1.9c-1.4,0-3.5-1.3-3.5-3.8s1.8-4,3.4-4c1.6,0,2.6,1.1,2.6,1.1l1.3-2.7
							c0,0-1.5-1.6-4.1-1.5c-3.4,0-6.2,2.8-6.2,7s3.2,6.9,6.3,6.9c3.1,0,4.1-1.9,5.8-3.6l0-4.1l-3.3,0
							C273.8,271.6,274.3,271.8,274.3,272.2z"/>
						<path d="M315.9,264.9c-3.5,0-6.3,3.2-6.2,7c0,3.8,2.9,6.9,6.3,6.9c3.5,0,6.3-3.2,6.2-7C322.2,267.9,319.4,264.9,315.9,264.9z
							 M316,275.6c-1.7,0-3-1.6-3-3.8c0-2.2,1.3-3.8,3-3.8c1.7,0,3,1.6,3,3.8S317.7,275.6,316,275.6z"/>
						<path d="M305,272.3l-4-7l-3.9,0c0,0,0.5,0.3,0.6,1.2l0.1,12.1l2.8,0l-0.1-8.3l4.6,8.3l2.8,0l-0.1-13.4l-2.8,0L305,272.3z"/>
						<path d="M258.2,273.7l4,0l0-2.9l-4,0l0-2.3l5.2,0l-0.8-2.9l-7.8,0.1c0,0,0.5,0.3,0.5,1.2l0.1,12.2l7.7-0.1l0.7-3l-5.6,0.1
							L258.2,273.7z"/>
						<path d="M207.4,273.3l-4-7l-3.9,0c0,0,0.5,0.3,0.6,1.2l0.1,12.1l2.8,0l-0.1-8.3l4.6,8.3l2.8,0l-0.1-13.4l-2.8,0L207.4,273.3z"
							/>
						<path d="M248.2,265.8l-3.6,0c0,0,0.5,0.3,0.5,1.2l0.1,12.1l7.7-0.1l0.7-3l-5.3,0.1L248.2,265.8z"/>
						<path d="M189.5,266.4c0,0,0.7,0.4,0.5,1.2l-3.5,12.2l2.6,0l0.9-3.1l4.2,0l1,3.1l3.3,0l-4.5-13.3L189.5,266.4z M190.8,274
							l1.2-4.3l1.4,4.3L190.8,274z"/>
						<path d="M218.5,266.1l-6.4,0.1c0,0,0.5,0.3,0.5,1.2l0.1,12.1l2.9,0l0-4.6l2.9,0c2.4,0,4.4-2,4.4-4.4
							C222.9,268,220.9,266.1,218.5,266.1z M218.3,272l-2.7,0l0-3.1l2.7,0c0.8,0,1.5,0.7,1.5,1.5C219.9,271.3,219.2,272,218.3,272z"
							/>
						<path d="M238,265.9l-3.6,0c0,0,0.5,0.3,0.5,1.2l0.1,12.1l7.7-0.1l0.7-3l-5.3,0.1L238,265.9z"/>
						<path d="M227.3,274l4,0l0-2.9l-4,0l0-2.3l5.2,0l-0.8-2.9l-7.8,0.1c0,0,0.5,0.3,0.5,1.2l0.1,12.2l7.7-0.1l0.7-3l-5.6,0.1
							L227.3,274z"/>
					</g>
				</g>
			</g>
		</g>
	</g>
	<path class="st31" d="M327.9,23.8L249.3,257h273C522.2,257,440.4,18.5,327.9,23.8z"/>
	<g>
		<defs>
			<path id="SVGID_3_" d="M327.9,23.8L249.3,257h273C522.2,257,440.4,18.5,327.9,23.8z"/>
		</defs>
		<clipPath id="SVGID_4_">
			<use xlink:href="#SVGID_3_"  style="overflow:visible;"/>
		</clipPath>
		<g class="st32">
			<g>
				<g>
					<path class="st33" d="M444.7,377.8c-0.3,0.5-0.6,0.9-0.9,1.4"/>
					<path class="st34" d="M442,382c-57.4,88.2-170.2,127.9-272.7,89.3C50.8,426.7-9.1,294.5,35.5,176.1
						C75.5,70,185.6,10.9,293.3,31.7"/>
					<path class="st33" d="M294.9,32c0.5,0.1,1.1,0.2,1.6,0.3"/>
				</g>
			</g>
			<circle class="st35" cx="444.7" cy="377.8" r="7"/>
			<polygon class="st35" points="298.7,32.8 297.9,24.8 309.2,34.6 295.3,40.1 			"/>
			<g>
				<path class="st36" d="M249.3,47.7c114.7,0,208.1,92.4,209.2,207.3c1.1,115.6-91.7,210.1-207.3,211.2c-0.7,0-1.3,0-2,0
					C134.6,466.3,41.1,373.9,40,259C38.9,143.4,131.7,48.8,247.3,47.8C248,47.7,248.6,47.7,249.3,47.7 M249.3,46.9
					C249.3,46.9,249.3,46.9,249.3,46.9C249.3,46.9,249.3,46.9,249.3,46.9C249.3,46.9,249.3,46.9,249.3,46.9L249.3,46.9
					c-0.7,0-1.3,0-2,0c-28.4,0.3-55.8,6.1-81.6,17.3c-24.9,10.8-47.2,26.2-66.4,45.7c-19.1,19.5-34,42.1-44.4,67.2
					c-10.7,26-16,53.6-15.7,81.9c0.3,28.2,6,55.5,17.1,81.2c10.7,24.8,25.9,47,45.2,66.1c19.3,19.1,41.7,34.1,66.6,44.5
					c25.8,10.8,53.1,16.3,81.2,16.3c0.7,0,1.3,0,2,0c28.4-0.3,55.8-6.1,81.6-17.3c24.9-10.8,47.2-26.2,66.4-45.7
					c19.1-19.5,34-42.1,44.4-67.2c10.7-26,16-53.6,15.7-81.9c-0.3-28.2-6-55.5-17.1-81.2c-10.7-24.8-25.9-47-45.2-66.1
					c-19.3-19.1-41.7-34.1-66.6-44.5C304.8,52.4,277.5,46.9,249.3,46.9L249.3,46.9L249.3,46.9z"/>
			</g>
			<line class="st37" x1="153.5" y1="226.2" x2="361.7" y2="293.2"/>
			<line class="st37" x1="259.2" y1="142.9" x2="239.1" y2="374.3"/>
			<line class="st37" x1="189" y1="176.5" x2="320.1" y2="351.5"/>
			<line class="st37" x1="317.2" y1="160.5" x2="188.4" y2="357.6"/>
			<line class="st37" x1="333.2" y1="175.2" x2="164.9" y2="339.2"/>
			<line class="st37" x1="236" y1="158.3" x2="264.9" y2="373.1"/>
			<line class="st38" x1="355.1" y1="205.1" x2="143.2" y2="309"/>
			<line class="st38" x1="365.4" y1="238.9" x2="135.5" y2="274.7"/>
			<g>
				<g>
					<path class="st39" d="M259.7,138.8c0.6,0.1,1.1,0.1,1.7,0.2"/>
					<path class="st40" d="M264.7,139.3c52.7,7.2,95.7,49.5,101.4,104.8c6.7,64.8-40.4,122.8-105.2,129.4
						c-57.5,5.9-109.6-30.5-125.3-84"/>
					<path class="st39" d="M135.1,288c-0.1-0.5-0.3-1.1-0.4-1.6"/>
				</g>
			</g>
			<circle class="st41" cx="259.7" cy="138.8" r="6.1"/>
			<polygon class="st41" points="134.4,285.4 128.8,289 131.8,276.9 141.1,285.2 			"/>
			<g>
				<path class="st42" d="M249.3,172.1c22.5,0,43.7,8.7,59.7,24.6c16,15.9,25,37,25.2,59.6c0.4,46.8-37.3,85.3-84.1,85.7
					c-0.3,0-0.5,0-0.8,0c-22.5,0-43.7-8.7-59.7-24.6c-16-15.9-25-37-25.2-59.6c-0.4-46.8,37.3-85.3,84.1-85.7
					C248.7,172.1,249,172.1,249.3,172.1L249.3,172.1 M249.3,164.1c-0.3,0-0.6,0-0.9,0c-51.3,0.5-92.5,42.5-92.1,93.8
					c0.5,51,42,92.1,92.9,92.1c0.3,0,0.6,0,0.9,0c51.3-0.5,92.5-42.5,92.1-93.8C341.7,205.1,300.2,164.1,249.3,164.1L249.3,164.1z"
					/>
			</g>
			<g>
				<g>
					<path class="st43" d="M249.3,164.4c24.5,0,47.7,9.5,65.1,26.8c17.5,17.3,27.2,40.3,27.4,64.9c0.2,24.7-9.2,48.1-26.5,65.7
						c-17.3,17.6-40.5,27.5-65.2,27.7c-0.3,0-0.6,0-0.9,0c-24.5,0-47.7-9.5-65.1-26.8c-17.5-17.3-27.2-40.3-27.4-64.9
						c-0.2-24.7,9.2-48.1,26.5-65.7s40.5-27.5,65.2-27.7C248.7,164.4,249,164.4,249.3,164.4L249.3,164.4 M249.3,156.4
						c-0.3,0-0.6,0-1,0c-55.5,0.5-100.1,46-99.6,101.5c0.5,55.2,45.4,99.6,100.5,99.6c0.3,0,0.6,0,1,0c55.5-0.5,100.1-46,99.6-101.5
						C349.3,200.8,304.4,156.4,249.3,156.4L249.3,156.4z"/>
				</g>
			</g>
			<g>
				<g>
					<path class="st44" d="M249.3,157.4c26.4,0,51.3,10.2,70.1,28.8c18.8,18.6,29.3,43.4,29.5,69.8c0.3,26.6-9.9,51.7-28.5,70.7
						c-18.6,19-43.6,29.6-70.2,29.8c-0.3,0-0.6,0-1,0c-26.4,0-51.3-10.2-70.1-28.8c-18.8-18.6-29.3-43.4-29.5-69.8
						c-0.5-54.9,43.7-100,98.7-100.5C248.7,157.4,249,157.4,249.3,157.4L249.3,157.4 M249.3,149.4c-0.3,0-0.7,0-1,0
						C188.8,150,141.1,198.6,141.7,258c0.6,59.1,48.6,106.6,107.6,106.6c0.3,0,0.7,0,1,0c59.4-0.6,107.1-49.2,106.6-108.6
						C356.3,196.9,308.3,149.4,249.3,149.4L249.3,149.4z"/>
				</g>
			</g>
			<g>
				<path class="st45" d="M420.6,258.8c-0.3,24-5.6,47.7-15.6,69.6c-12.2,26.8-31.5,50.7-57.3,68.8c-15.6,11-32.4,18.9-49.7,24.1"/>
				<path class="st0" d="M302.7,94.2c33.9,11.1,64.7,32.9,86.8,64.3c21.5,30.5,31.5,65.7,31.1,100.3"/>
				<path class="st46" d="M112.2,154.1c10.5-14,23.4-26.7,38.6-37.3c46-32.3,102.4-38.8,151.9-22.6"/>
				<path class="st47" d="M77.9,255.2c0.4-36.1,12.2-71.7,34.3-101.1"/>
				<path class="st47" d="M109.5,356.2c-0.2-0.2-0.3-0.5-0.5-0.7C87.6,325,77.5,289.9,77.9,255.2"/>
				<path class="st48" d="M298.1,421.3c-68.4,20.3-145-3.8-188.6-65.1"/>
				<line class="st37" x1="310.5" y1="463.2" x2="228.7" y2="188.3"/>
				<line class="st37" x1="464.4" y1="259.3" x2="34.1" y2="254.7"/>
				<line class="st49" x1="396.3" y1="367.3" x2="164" y2="192.4"/>
				<line class="st37" x1="273.3" y1="337" x2="195.8" y2="78.9"/>
				<line class="st37" x1="193.1" y1="427.9" x2="305.4" y2="86.1"/>
				<line class="st37" x1="102.2" y1="360.6" x2="396.4" y2="153.4"/>
				<g>
					<g id="XMLID_317_">
						<path class="st50" d="M335.6,381.7c-2.2,0.3-5.1,0.3-6.5,2c-1.9,2.4-2.1,7.2-2.8,8.4c0,0-0.6,0.3-0.4-0.4
							c1.1-5.4-1.6-10.3-4.8-12c0,0,0.3-1.3,0.4-1.8c-0.1-1.4-4-5.8-5.3-6.9c0,0-0.1-0.7,0.4-0.4c2.8,1.8,4.9,3.9,5.8,4.9
							c0.3,0.4,0.5,0.3,0.4-0.2c-0.4-1.7-1.5-3.9-3.7-7.4c0,0,0-0.7,0.5-0.2c2.8,2.9,8.9,13.5,9.2,13.4c2.6-0.4,5.5-0.2,6.7,0.1
							C335.7,381.4,335.6,381.7,335.6,381.7z"/>
					</g>
					<g id="XMLID_313_">
						<path class="st50" d="M343,375.5c-0.3,0.1-0.6,0.4-0.8,0.7c-0.2,0.5-0.2,1.2,0,1.8c0.2,0.6,0.7,1.1,1.2,1.3
							c0.4,0.2,0.7,0.2,1.1,0.1c0.3-0.1,0.6-0.4,0.8-0.7c0.2-0.5,0.2-1.2,0-1.8c-0.2-0.6-0.7-1.1-1.2-1.4
							C343.7,375.4,343.4,375.3,343,375.5z"/>
					</g>
					<g id="XMLID_309_">
						<path class="st50" d="M329.8,386.6c0.4,0.4,1,0.6,1.5,0.5c0.4,0,0.6-0.2,0.8-0.4c0.2-0.2,0.3-0.6,0.2-0.9
							c-0.1-0.5-0.3-1-0.8-1.4c-0.8-0.7-1.8-0.7-2.3-0.1C328.8,384.9,329,385.9,329.8,386.6z"/>
					</g>
					<g id="XMLID_305_">
						<path class="st50" d="M331.9,375.8c-0.2,0.1-0.3,0.4-0.3,0.6c-0.1,0.4,0.1,1,0.5,1.4c0.6,0.8,1.5,1,2,0.7
							c0.2-0.1,0.3-0.4,0.3-0.6c0.1-0.4-0.1-1-0.5-1.4C333.3,375.7,332.4,375.4,331.9,375.8z"/>
					</g>
					<g id="XMLID_301_">
						<path class="st50" d="M326.3,364.3L326.3,364.3L326.3,364.3c1.6,3.3,2.1,5.1,2.2,5.6c-0.6-0.7-2.9-3-3.9-3.6
							c-0.6-0.4-0.7,0.2-0.7,0.2c6.6,7.7,5.3,10.2,4.5,13.2c-0.1,0.4,0.2,0.4,0.2,0.4c0.4-0.3,1.3-2.3,1.4-2.5
							c2.1-4.7,5.6-3.5,6.3-3.5c0,0,0.2-0.2-0.1-0.4c-0.6-0.3-2.6-0.9-4.5-0.8c-0.7-2.3-3.8-7.3-5-8.8
							C326.4,363.6,326.3,364.3,326.3,364.3z"/>
					</g>
					<g id="XMLID_297_">
						<path class="st50" d="M351,367.2c-3.1,0.3-7.6,2.7-9.5,3.9c-3.1-5.8-7.5-11.7-10.2-14.1c-0.7-0.6-0.8,0.2-0.8,0.2
							c2.3,2.9,5,8.1,4.8,9.7c-1.5-1.4-5.6-4.5-9.3-5.9c-0.8-0.3-0.7,0.3-0.7,0.3c12.7,10,13.5,14.7,14.4,19.6
							c0.3,1.6,0.6,3.1,1.2,5c0.3,0.9,0.8,0.1,0.8,0.1c-1.6-7.3-1.1-14.1,9.8-18.4C351.6,367.6,351.6,367.1,351,367.2z"/>
					</g>
				</g>
				<g>
					<g id="XMLID_293_">
						<path class="st50" d="M251.2,103c1.9,1,4.3,2.8,6.4,2.3c3-0.8,6-4.6,7.3-5.1c0,0,0.6,0.1,0.1,0.6c-4.1,3.7-4.9,9.2-3.2,12.5
							c0,0-1.1,0.9-1.4,1.2c-0.7,1.2-0.2,7,0.2,8.7c0,0-0.3,0.6-0.5,0.1c-1.2-3.1-1.6-6.1-1.8-7.4c0-0.5-0.2-0.5-0.5,0
							c-0.7,1.6-1.1,4-1.4,8.1c0,0-0.4,0.6-0.5-0.1c-0.5-3.9,0.9-16.1,0.6-16.3c-2.3-1.2-4.6-3.1-5.3-4.1
							C250.9,103.1,251.2,103,251.2,103z"/>
					</g>
					<g id="XMLID_289_">
						<path class="st50" d="M241.5,103.6c0.3,0.1,0.7,0.1,1-0.1c0.5-0.3,0.9-0.8,1.1-1.4c0.2-0.6,0.1-1.3-0.1-1.8
							c-0.2-0.4-0.5-0.6-0.8-0.7c-0.3-0.1-0.7-0.1-1,0.1c-0.5,0.3-0.9,0.8-1,1.4c-0.2,0.6-0.1,1.3,0.1,1.8
							C240.9,103.3,241.2,103.5,241.5,103.6z"/>
					</g>
					<g id="XMLID_285_">
						<path class="st50" d="M258.8,102.5c-0.1-0.6-0.5-1-0.9-1.3c-0.3-0.2-0.6-0.2-0.9-0.2c-0.3,0.1-0.6,0.3-0.7,0.6
							c-0.3,0.4-0.3,1-0.2,1.6c0.2,1,1.1,1.7,1.8,1.5C258.6,104.4,259,103.5,258.8,102.5z"/>
					</g>
					<g id="XMLID_281_">
						<path class="st50" d="M250.7,110c0.2,0,0.5-0.1,0.7-0.3c0.3-0.3,0.5-0.9,0.5-1.4c0-0.9-0.5-1.7-1.2-1.7
							c-0.2,0-0.5,0.1-0.7,0.3c-0.3,0.3-0.5,0.9-0.5,1.4C249.5,109.2,250.1,110,250.7,110z"/>
					</g>
					<g id="XMLID_277_">
						<path class="st50" d="M248.4,122.5L248.4,122.5L248.4,122.5c0.6-3.6,1.4-5.3,1.6-5.8c0,0.9,0.6,4.1,1,5.2
							c0.3,0.7,0.7,0.2,0.7,0.2c-0.7-10.1,1.8-11.4,4.1-13.3c0.3-0.2,0-0.4,0-0.4c-0.5,0-2.4,1-2.6,1.1c-4.5,2.5-6.6-0.5-7.2-0.9
							c0,0-0.3,0-0.2,0.4c0.3,0.6,1.6,2.3,3.1,3.3c-0.8,2.3-1.2,8.1-1.1,10C247.9,123,248.4,122.5,248.4,122.5z"/>
					</g>
					<g id="XMLID_273_">
						<path class="st50" d="M230.2,105.6c2.7,1.6,7.7,2.3,9.9,2.5c-1,6.5-0.9,13.9-0.1,17.4c0.2,0.9,0.8,0.3,0.8,0.3
							c-0.1-3.7,0.8-9.5,1.9-10.7c0.4,2,1.8,6.9,4,10.2c0.4,0.7,0.8,0.2,0.8,0.2c-4.3-15.6-2.2-19.8,0-24.3c0.7-1.4,1.4-2.9,2-4.8
							c0.3-0.9-0.6-0.6-0.6-0.6c-3,6.8-7.4,12-18.8,9C230,104.8,229.7,105.2,230.2,105.6z"/>
					</g>
				</g>
				<g>
					<path class="st51" d="M99,310.6l8.3-5.8l8.1,6.1l-3-9.7l8.3-5.8l-10.1-0.2l-3-9.7l-3.3,9.6l-10.1-0.2l8.1,6.1L99,310.6z
						 M96.7,295.8l8.2,0.1l2.7-7.8l2.4,7.8l8.2,0.1l-6.7,4.7l2.4,7.9l-6.6-4.9l-6.7,4.7l2.6-7.7L96.7,295.8z"/>
					<polygon class="st51" points="116.1,296.8 109.5,296.6 107.5,290.3 105.4,296.6 98.7,296.5 104,300.5 101.9,306.7 101.9,306.7 
						107.3,302.9 112.6,306.9 110.7,300.6 116.1,296.8 					"/>
				</g>
				<g>
					<path class="st51" d="M325.7,155.5l8.3-5.8l8.1,6.1l-3-9.7l8.3-5.8l-10.1-0.2l-3-9.7L331,140l-10.1-0.2l8.1,6.1L325.7,155.5z
						 M323.4,140.7l8.2,0.1l2.7-7.8l2.4,7.8l8.2,0.1l-6.7,4.7l2.4,7.9l-6.6-4.9l-6.7,4.7l2.6-7.7L323.4,140.7z"/>
					<polygon class="st51" points="342.8,141.7 336.2,141.5 334.2,135.2 332,141.5 325.4,141.4 330.7,145.4 328.6,151.6 
						328.6,151.6 334,147.8 339.3,151.8 337.3,145.5 342.8,141.7 					"/>
				</g>
				<path class="st52" d="M369.1,313.2c2.9-0.8,5.8-1.7,8.6-2.5c5.9-1.7,12.3-3.6,18.3-5.3L378.2,283c0,0,0,0.2-0.1,0.2
					c-0.6,1.9-1.2,3.8-1.8,5.7c-0.1,0.3-0.1,0.3-0.1,0.3l9.3,11.9c0.7,0.9,0.5,1.4-0.5,1.7c-4.3,1.3-10.1,3-14.4,4.2
					c0,0-0.2,0.6-0.5,1.6c-0.1,0.3-0.2,0.6-0.3,1c-0.4,1.2-0.8,2.5-1.2,3.8C368.8,313.3,369,313.3,369.1,313.2z M387.8,305.8
					c0,0,0.3-0.8,0.3-0.8l0.1-0.3c0.3-0.1,1.3-0.4,1.6-0.5c0.7-0.3,0.8-0.8,0.4-1.3c-0.3-0.4-0.8-1-1.1-1.4c0,0,0-0.1,0.1-0.4
					c0.2-0.5,0.3-1.1,0.6-1.7c1.5,1.9,2.8,3.6,4.2,5.5l-6.4,1.8C387.6,306.6,387.8,305.8,387.8,305.8z"/>
				<path class="st52" d="M184.1,138.5c-2.8-1.1-5.6-2.1-8.4-3.2c-5.8-2.2-12-4.6-17.8-6.8l0.8,28.7c0,0,0.1-0.1,0.2-0.1
					c1.6-1.1,3.2-2.3,4.9-3.5c0.2-0.2,0.2-0.2,0.2-0.2l-0.2-15.1c0-1.1,0.4-1.4,1.4-1.1c4.2,1.6,9.9,3.7,14.1,5.3c0,0,0.5-0.4,1.4-1
					c0.3-0.2,0.5-0.4,0.8-0.6c1.1-0.8,2.1-1.5,3.3-2.3C184.5,138.6,184.3,138.6,184.1,138.5z M164.7,133.2c0,0-0.7,0.5-0.7,0.5
					l-0.3,0.2c-0.3-0.1-1.2-0.5-1.6-0.6c-0.7-0.2-1.1,0.1-1.1,0.9c0,0.5,0,1.3,0.1,1.7c0,0-0.1,0.1-0.3,0.2
					c-0.5,0.3-0.9,0.6-1.5,1.1c0-2.4-0.1-4.6-0.1-6.9l6.3,2.4C165.4,132.7,164.7,133.2,164.7,133.2z"/>
				<g>
					<path class="st53" d="M99.7,207.1c0.9-0.6,1.9-1,3-1.1c0.3,0,0.4-0.1,0.4-0.4c0.1-1,0.6-1.8,1.2-2.7c0.1,2.1,0.7,4,1.7,5.8
						C104,207.8,101.9,207.3,99.7,207.1z"/>
					<path class="st53" d="M108.2,200.8c-1.3-0.1-2.7,0.8-3,2.1c-0.2,1-0.2,2,0.1,2.9c0.7,2.2,2.1,3.7,4.1,4.9
						c0.9,0.6,1.9,0.9,2.9,1.2c0.3,0.1,0.3,0.1,0.2,0.4c0,0,0,0.1-0.1,0.1c-0.2-0.1-0.4-0.1-0.6-0.1c-0.9-0.2-1.8-0.5-2.7-0.9
						c-1-0.5-2.1-1.1-3.1-1.7c-1-0.6-2-1-3.1-1.3c-1.1-0.3-2.2-0.4-3.3-0.4c-1.8,0-3.6,0.4-5.2,1.3c-0.2,0.1-0.5,0.3-0.7,0.4
						c0,0,0,0,0,0c0.7,0.9,1.4,1.6,2.3,2.2c1.1,0.8,2.3,1.3,3.6,1.7c0.9,0.3,1.9,0.4,2.9,0.4c1,0,2.1-0.1,3.1-0.3
						c1.7-0.3,3.3-0.6,5-0.5c0.5,0,1,0.1,1.5,0.1c0,0.2,0,0.3,0,0.5c-0.1,0-0.2,0-0.3,0c-0.6,0-1.1-0.1-1.7,0
						c-2.4,0.1-4.6,0.9-6.3,2.6c-1,0.9-1.7,2.1-1.8,3.4c-0.1,0.5,0,1,0.2,1.5c0.5,1.2,1.9,1.9,3.2,1.7c1.1-0.2,2-0.7,2.8-1.5
						c0.7-0.6,1.3-1.3,2-1.9c0.6-0.5,1.2-1,1.9-1.2c0,0,0.1-0.1,0.1-0.1c-0.4-0.3-0.8-0.5-1.2-0.8c-0.2,0.2-0.4,0.4-0.6,0.7
						c-0.4,0.4-0.8,0.8-1.4,0.9c-1.1,0.3-2-0.5-2-1.6c0-0.6,0.3-1.1,0.7-1.5c0.8-0.8,1.8-1.2,2.9-1.2c0.4,0,0.8,0,1.2,0
						c0,0.4,0,0.7,0,1.1c0,0.6,0,0.6,0.6,0.7c0,0,0,0,0,0c0.1,0,0.1,0,0.2-0.1c0.1-0.2,0.2-0.3,0.2-0.5c0.1-0.2,0.2-0.5,0.3-0.7
						c0.4,0.2,0.8,0.5,1.1,0.9c0.4,0.6,0.6,1.3,0.3,2c-0.1,0.2-0.2,0.4-0.3,0.6c0.2,0.1,0.6,0.2,1.1,0.2c0.8,0,1.4-0.6,1.5-1.4
						c0.1-0.7-0.2-1.3-0.7-1.8c-0.6-0.6-1.4-1-2.2-1.3c-0.3-0.1-0.3-0.1-0.3-0.4c0-0.2,0.1-0.2,0.2-0.1c0.7,0.3,1.4,0.6,2.1,0.9
						c0.5,0.2,1,0.4,1.6,0.4c0.9,0.1,1.8-0.2,2.6-0.6c-0.9-0.1-4.8-0.8-4.8-0.8s0.5,0.6,1.4,0.8c0.9,0.3,1.6,0.3,1.8,0.3
						c0.1,0,0.1,0,0.1,0s0,0-0.1,0c-0.3,0-1.2,0.1-1.9-0.1c-1-0.3-1.5-1.1-1.5-1.1s1.1-0.8,2.7-0.4c0.7,0.2,1.7,0.9,2.4,1.2
						c0,0,0.1,0,0.1,0c0.1,0,0.1-0.1,0.2-0.1c-0.3-0.3-0.6-0.5-0.9-0.8c-0.7-0.5-1.4-0.9-2.3-1c-0.5,0-1,0-1.6,0.1
						c-0.6,0-1.2,0.1-1.9,0c0-0.2,0-0.3,0-0.5c0,0,0,0,0.1,0c0.2,0,0.3,0,0.5,0c0.9,0,1.7-0.2,2.5-0.6c0.7-0.3,1.1-0.9,1.2-1.6
						c0.1-0.8-0.4-1.4-1.1-1.5c-0.3-0.1-0.6-0.1-0.9-0.1c0.7,1.2-0.6,2.8-2.1,2.8c0-0.3,0-0.6,0-0.9c0-0.6,0-0.6-0.6-0.7
						c-0.2,0-0.2,0-0.3,0.1c-0.2,0.4-0.3,0.8-0.5,1.2c0,0.1-0.1,0.2-0.2,0.1c-0.9-0.2-1.7-0.6-2.3-1.2c-0.7-0.6-1.2-1.4-1.2-2.3
						c0-0.6,0.1-1.1,0.6-1.5c0.7-0.5,1.5-0.4,2.2,0.2c0.3,0.3,0.5,0.7,0.7,1.1c0.1,0.3,0.2,0.5,0.3,0.8c0.4-0.2,0.8-0.3,1.3-0.4
						c0,0,0.1,0,0.1,0c0,0,0-0.1-0.1-0.1c-0.4-0.3-0.7-0.6-1-1.1c-0.5-0.9-1-1.9-1.5-2.9c-0.3-0.6-0.6-1.2-1.1-1.7
						C110.1,201.4,109.3,200.9,108.2,200.8z M107.3,219c0.9,1.2,2.5,0.7,2.5,0.7s-1.2,1.2-2.9,1.4c-0.4,0-1.1-0.1-1.5-0.6
						c-0.7-0.8-0.3-1.6-0.1-2.1c1.2-2.6,3.9-3.6,3.9-3.6C106.6,216.6,106.7,218.1,107.3,219z M105.8,216c-3.5,2.2-3,4.8-2.5,5.5
						c1.1,1.7,3.7,0.6,3.7,0.6s-1,0.6-2.3,0.4c-0.2,0-1.1-0.2-1.5-0.8c-0.7-0.8-0.6-2-0.4-2.7c1.5-4.2,6.4-4.5,6.4-4.5
						C107.8,215.1,106.7,215.5,105.8,216z M116.4,217.5c0,0.6-0.8,1.1-0.8,1.1c1-1.8-0.9-3.1-0.9-3.1S116.3,216.2,116.4,217.5z
						 M95.2,210.1c0,0,1.6,1.7,4.3,2.6c3,0.9,5,0.9,5.8,0.9c0.3,0,0.4,0,0.4,0s-0.1,0-0.4,0c-1,0.1-3.9,0.2-5.9-0.4
						c-3.1-0.9-4.9-3.2-4.9-3.2s3.6-2.2,8.5-1.1c2.4,0.5,5.7,3,8.1,3.9C111.2,212.8,95.2,210.1,95.2,210.1z M117.2,209.1
						c0,0,0.6,0.7,0.4,1.3c-0.5,1.2-2.3,1.4-2.3,1.4S117.6,211.2,117.2,209.1z M109.9,203.6c1.5,0.7,2.2,2.3,2.2,2.3s-1.3-1-2.6-0.1
						c-0.9,0.6-1.5,2,0.4,4.6c0,0-2.3-1.9-2.5-4.7c0-0.5-0.1-1.4,0.8-2C108.9,203.3,109.6,203.5,109.9,203.6z M108.4,201.4
						c1.3,0.3,2,1.2,2,1.2s-2.1-1.9-3.7-0.7c-0.7,0.5-2,2.8,0.5,6.1c0.6,0.8,1.5,1.5,2.7,2.4c0,0-4.5-1.8-4.5-6.4
						c0-0.8,0.4-1.9,1.3-2.4C107.3,201.3,108.2,201.4,108.4,201.4z"/>
				</g>
				<path class="st54" d="M394.8,154.8c22.3,31.8,32.8,68.4,32.3,104.4l37.1,0.3c0.5-43.6-12.1-87.7-39-126
					c-27.6-39.4-66.1-66.6-108.5-80.6l-11.5,35.2C340.2,99.7,372,122.2,394.8,154.8z"/>
				<path class="st55" d="M104.1,359.9l-30.3,21.3c54.6,77.1,150.7,107.4,236.6,81.9l-10.6-35.5
					C228.9,448.7,149.3,423.6,104.1,359.9z"/>
				<path class="st56" d="M147,111.4c47.8-33.6,106.5-40.3,158.1-23.3l11.5-35.2c-62.3-20.5-133.1-12.4-190.9,28.2
					c-19.1,13.4-35.3,29.4-48.6,47.1l29.6,22.3C117.7,135.8,131.2,122.6,147,111.4z"/>
				<path class="st57" d="M351.5,402.6c-16.2,11.4-33.6,19.7-51.6,25l10.6,35.5c21.7-6.5,42.8-16.5,62.4-30.2
					c58.8-41.3,90.6-106.7,91.4-173.4l-37.1-0.3C426.4,314.4,400.1,368.4,351.5,402.6z"/>
				<path class="st58" d="M73.8,381.2l30.3-21.3c-0.2-0.2-0.3-0.4-0.5-0.6c-45.4-64.6-41.8-148.8,3.1-208.8l-29.6-22.3
					c-54.2,72.4-58.6,174.3-3.8,252.4C73.5,380.8,73.7,381,73.8,381.2z"/>
				<g>
					<g id="XMLID_269_">
						<path class="st50" d="M393.4,215.7c-0.4,2.1-1.5,4.9-0.4,6.8c1.6,2.6,6.1,4.5,6.9,5.5c0,0,0.1,0.6-0.5,0.3
							c-4.7-2.9-10.2-2.1-12.9,0.5c0,0-1.2-0.8-1.6-1c-1.4-0.3-6.8,1.8-8.3,2.7c0,0-0.7-0.1-0.2-0.5c2.7-2,5.4-3.3,6.6-3.8
							c0.5-0.2,0.4-0.4-0.1-0.5c-1.8-0.2-4.1,0-8.2,0.9c0,0-0.7-0.3,0-0.6c3.6-1.6,15.7-3.7,15.8-4c0.5-2.6,1.7-5.2,2.4-6.3
							C393.2,215.4,393.4,215.7,393.4,215.7z"/>
					</g>
					<g id="XMLID_265_">
						<path class="st50" d="M390.1,206.6c0,0.4,0.1,0.7,0.4,1c0.4,0.4,1,0.6,1.7,0.6c0.7,0,1.3-0.2,1.7-0.6c0.3-0.3,0.4-0.6,0.4-1
							c0-0.3-0.1-0.7-0.4-1c-0.4-0.4-1-0.6-1.7-0.6c-0.7,0-1.3,0.2-1.7,0.6C390.3,205.9,390.1,206.2,390.1,206.6z"/>
					</g>
					<g id="XMLID_261_">
						<path class="st50" d="M396,222.8c0.5-0.3,0.9-0.7,1-1.2c0.1-0.3,0.1-0.7-0.1-0.9c-0.2-0.3-0.4-0.5-0.8-0.5
							c-0.5-0.1-1.1,0-1.6,0.3c-0.9,0.5-1.3,1.5-0.9,2.1C394.1,223.2,395.1,223.3,396,222.8z"/>
					</g>
					<g id="XMLID_250_">
						<path class="st50" d="M386.6,217.1c0.1,0.2,0.2,0.4,0.5,0.5c0.4,0.2,1,0.2,1.5,0.1c0.9-0.3,1.5-1,1.3-1.6
							c-0.1-0.2-0.2-0.4-0.5-0.5c-0.4-0.2-1-0.2-1.5-0.1C387,215.8,386.4,216.5,386.6,217.1z"/>
					</g>
					<g id="XMLID_40_">
						<path class="st50" d="M373.9,218.4L373.9,218.4L373.9,218.4c3.6-0.4,5.5-0.2,6-0.1c-0.9,0.3-3.8,1.7-4.7,2.5
							c-0.6,0.5,0,0.7,0,0.7c9.5-3.5,11.4-1.5,13.9,0.2c0.3,0.2,0.4-0.1,0.4-0.1c-0.2-0.4-1.7-2-1.8-2.2c-3.7-3.6-1.3-6.5-1.1-7.2
							c0,0-0.1-0.3-0.5,0c-0.5,0.4-1.7,2.2-2.3,3.9c-2.4-0.1-8.1,1.1-10,1.7C373.3,218.1,373.9,218.4,373.9,218.4z"/>
					</g>
					<g id="XMLID_4_">
						<path class="st50" d="M385.1,196.3c-0.8,3.1-0.1,8.1,0.4,10.2c-6.5,0.9-13.6,3-16.8,4.8c-0.8,0.5-0.1,0.8-0.1,0.8
							c3.5-1.1,9.3-1.9,10.8-1.2c-1.8,0.9-6.1,3.7-8.7,6.7c-0.5,0.6,0.1,0.8,0.1,0.8c13.7-8.5,18.4-7.7,23.3-6.8
							c1.6,0.3,3.1,0.5,5.1,0.6c0.9,0,0.4-0.8,0.4-0.8c-7.4-0.9-13.6-3.7-13.9-15.5C385.7,195.8,385.2,195.6,385.1,196.3z"/>
					</g>
				</g>
				<path class="st52" d="M228.4,389.2c1.4,2.7,2.8,5.3,4.2,8c2.8,5.5,5.9,11.4,8.8,16.9l18.5-21.9c0,0-0.2,0-0.2,0
					c-2-0.2-4-0.4-5.9-0.7c-0.3,0-0.3,0-0.3,0l-9.9,11.4c-0.7,0.8-1.3,0.8-1.8-0.2c-2.1-4-4.9-9.3-7-13.3c0,0-0.7-0.1-1.7-0.2
					c-0.3,0-0.7-0.1-1-0.1c-1.3-0.1-2.6-0.3-4-0.4C228.3,388.9,228.4,389.1,228.4,389.2z M239.4,406.1c0,0,0.8,0.1,0.8,0.1l0.3,0
					c0.1,0.3,0.6,1.2,0.8,1.5c0.4,0.6,0.9,0.6,1.4,0.1c0.3-0.3,0.8-1,1.1-1.3c0,0,0.1,0,0.4,0c0.6,0.1,1.1,0.1,1.8,0.2
					c-1.6,1.8-3,3.5-4.5,5.2l-3.1-6C238.5,406,239.4,406.1,239.4,406.1z"/>
				<g id="GoFPfz.tif_3_">
					
						<image style="overflow:visible;" width="2230" height="1476" id="Livello_1_3_" xlink:href="A0B56B822BF3BACF.png"  transform="matrix(-2.339909e-02 -1.805001e-02 1.805001e-02 -2.339909e-02 174.9236 411.3428)">
					</image>
				</g>
			</g>
			<g>
				<circle class="st28" cx="249.3" cy="257" r="86.2"/>
				<g>
					<line class="st59" x1="309.9" y1="196.6" x2="188" y2="316.3"/>
					<line class="st59" x1="309.4" y1="317.4" x2="189.7" y2="195.5"/>
					<line class="st59" x1="296.1" y1="185.1" x2="202" y2="327.9"/>
					<line class="st59" x1="321" y1="303.4" x2="178.2" y2="209.3"/>
					<line class="st59" x1="333.4" y1="239.1" x2="165.1" y2="273.2"/>
					<line class="st59" x1="266.3" y1="340.3" x2="232.4" y2="172.9"/>
					<line class="st59" x1="335.1" y1="254.9" x2="163.4" y2="255.6"/>
					<line class="st59" x1="248.7" y1="342" x2="249.8" y2="171.3"/>
					<line class="st59" x1="307.9" y1="217.3" x2="190.7" y2="295"/>
					<line class="st59" x1="288.1" y1="314.8" x2="210.4" y2="197.6"/>
					<line class="st59" x1="318.2" y1="269.8" x2="180.3" y2="242.6"/>
					<line class="st59" x1="235.7" y1="325.1" x2="262.9" y2="187.2"/>
					<line class="st59" x1="313.9" y1="283.8" x2="184.7" y2="228.5"/>
					<line class="st59" x1="221.6" y1="320.8" x2="277" y2="191.5"/>
					<line class="st59" x1="314.5" y1="230" x2="184" y2="282.3"/>
					<line class="st59" x1="275.4" y1="321.4" x2="223.1" y2="190.9"/>
					<g>
						<polygon class="st60" points="249.8,187.3 268.2,239.9 324.5,239.3 277.5,272.1 296.2,324.6 250.5,292.3 202,325.4 
							219.9,272.8 172,240.7 232.4,240.2 						"/>
						<polygon class="st28" points="250,205 264.1,245.3 306.8,245 270.8,270.1 285.1,310.3 250.5,285.6 212.8,311 226.4,270.5 
							189.8,246.1 236.7,245.6 						"/>
						<polygon class="st60" points="250.1,213.8 262,248.1 298.1,247.8 267.4,269.1 279.6,303.3 250.4,282.2 218.1,303.9 
							229.7,269.4 198.6,248.7 238.7,248.3 						"/>
						<g>
							<path class="st42" d="M238.5,286.6c0-1.4-1.2-2.5-2.6-2.5l-5.6,0.1l0.1,8.7l1.2,0l0-3.5l3.3,0l2.4,3.5l1.4,0l-2.4-3.6
								C237.7,288.8,238.5,288,238.5,286.6z M236.8,287.7c-0.2,0.2-0.5,0.4-0.9,0.4l-4.4,0l0-2.8l4.5,0c1,0,1.2,0.8,1.2,1.4l0,0
								C237.2,287.1,237.1,287.5,236.8,287.7z"/>
							<path class="st42" d="M247.3,289.8c0,1.2-1.4,1.9-2.8,1.9c-1.3,0-2.7-0.6-2.7-1.8l-0.1-5.8l-1.2,0l0.1,5.9
								c0,0.7,0.3,1.4,0.8,1.9c0.7,0.7,1.7,1,3,1c0,0,0,0,0.1,0c2.7-0.1,4-1,4-3l-0.1-5.9l-1.2,0L247.3,289.8z"/>
							<path class="st42" d="M257.1,283.9l-5.6,0.1l0.1,8.7l1.2,0l0-3.6l4.3,0c1.2,0,2.2-1.1,2.2-2.4v0c0-0.7-0.3-1.5-0.9-2
								C258,284.1,257.5,283.9,257.1,283.9z M258,286.6L258,286.6c0,0.4-0.1,0.8-0.4,1c-0.1,0.1-0.3,0.2-0.4,0.2l-4.4,0l0-2.8l4.3,0
								C257.4,285.1,257.9,285.8,258,286.6z"/>
							<path class="st42" d="M266.9,283.8l-5.6,0.1l0.1,8.7l1.2,0l0-3.6l4.3,0c1.2,0,2.2-1.1,2.2-2.4c0-0.7-0.3-1.5-0.9-2
								C267.8,284,267.3,283.8,266.9,283.8z M267.8,286.5L267.8,286.5c0,0.4-0.1,0.8-0.4,1c-0.1,0.1-0.3,0.2-0.4,0.2l-4.4,0l0-2.8
								l4.3,0C267.3,285,267.8,285.7,267.8,286.5z"/>
							<path class="st42" d="M275.1,292.5c1.5,0,2.8-0.6,3.7-1.5c0.8-0.8,1.2-1.9,1.2-3c0-3.1-2.6-4.4-5-4.4c-1.4,0-2.7,0.6-3.6,1.5
								c-0.8,0.8-1.2,1.9-1.2,3C270.2,290.5,272.6,292.6,275.1,292.5z M271.5,288.1c0-1.8,1.9-3.3,3.6-3.3c0,0,0,0,0.1,0
								c1,0,2.1,0.4,2.8,1.1c0.6,0.6,0.9,1.3,0.9,2.1c0,0.8-0.3,1.6-0.9,2.2c-0.7,0.7-1.7,1.1-2.8,1.1c0,0,0,0,0,0
								C273.1,291.4,271.5,290,271.5,288.1z"/>
							<path class="st42" d="M223.9,289.4l3,0l0,1.5c-0.2,0.2-1.2,1-2.9,1c-2.3,0-3.7-1.2-3.8-3.3c0-1.9,1.4-3.2,3.6-3.2
								c0,0,0.1,0,0.1,0c1.7,0,3.1,1,3.1,1l0.1,0.1l0.8-0.9l-0.2-0.1c-1.4-0.9-2.6-1.4-3.9-1.4c-1.4,0-2.7,0.5-3.7,1.5
								c-0.8,0.8-1.3,1.9-1.2,3c0,2.8,2,4.5,5,4.5c2.7,0,4-1.7,4.1-1.7l0,0l0-3l-4.2,0L223.9,289.4z"/>
							<g>
								<polygon class="st51" points="249.6,205.4 256.5,225.2 277.6,225 260,237.3 267,257 249.8,244.9 231.6,257.3 238.3,237.5 
									220.3,225.5 243,225.3 								"/>
								<polygon class="st28" points="249.6,212.1 254.9,227.2 271,227.1 257.4,236.5 262.8,251.6 249.8,242.3 235.6,251.9 
									240.7,236.7 227,227.5 244.6,227.3 								"/>
								<polygon class="st51" points="249.7,215.4 254.1,228.3 267.7,228.1 256.2,236.1 260.7,249 249.8,241.1 237.7,249.2 
									242,236.3 230.3,228.5 245.4,228.3 								"/>
							</g>
							<path class="st42" d="M180.2,269.8c0-0.5,0.3-1.2,1.9-1.2c1.5,0,2.8,0.7,2.8,0.7l-0.3-3.1c-0.2,0.2-0.5,0.3-0.7,0.2
								c-0.5-0.1-1.3-0.2-2.2-0.2c-3.3,0-4.8,2-4.8,3.8c0,3.5,5.4,3.7,5.4,6.2c0,0.9-0.9,1.4-1.9,1.5c-2.2,0-3.7-1-3.7-1l0.4,3.1
								c0.3-0.1,0.5-0.1,0.8-0.1c0.7,0.2,1.8,0.4,2.9,0.4c3.2,0,4.8-1.8,4.8-3.9C185.5,271.7,180.2,271.8,180.2,269.8z"/>
							<path class="st42" d="M292,266.6l0.1,12.1l3,0l-0.1-13.4l-3.6,0C291.5,265.4,292,265.7,292,266.6z"/>
							<path class="st42" d="M289.4,269.8c0-2.4-2-4.4-4.4-4.4l-6.4,0.1c0,0,0.5,0.4,0.5,0.9l0.1,12.4l2.9,0l0-4.6l1.8,0l2.7,4.5
								l3.3,0l-2.9-5C288.4,273,289.4,271.5,289.4,269.8z M282.1,268.3l2.7,0c0.8,0,1.5,0.7,1.5,1.5c0,0.8-0.7,1.5-1.5,1.5l-2.7,0
								L282.1,268.3z"/>
							<path class="st42" d="M274.3,272.2c0,0.3,0,2.2,0,2.2s-1.1,1.9-2.9,1.9c-1.4,0-3.5-1.3-3.5-3.8s1.8-4,3.4-4
								c1.6,0,2.6,1.1,2.6,1.1l1.3-2.7c0,0-1.5-1.6-4.1-1.5c-3.4,0-6.2,2.8-6.2,7s3.2,6.9,6.3,6.9c3.1,0,4.1-1.9,5.8-3.6l0-4.1
								l-3.3,0C273.8,271.6,274.3,271.8,274.3,272.2z"/>
							<path class="st42" d="M315.9,264.9c-3.5,0-6.3,3.2-6.2,7c0,3.8,2.9,6.9,6.3,6.9c3.5,0,6.3-3.2,6.2-7
								C322.2,267.9,319.4,264.9,315.9,264.9z M316,275.6c-1.7,0-3-1.6-3-3.8c0-2.2,1.3-3.8,3-3.8c1.7,0,3,1.6,3,3.8
								S317.7,275.6,316,275.6z"/>
							<path class="st42" d="M305,272.3l-4-7l-3.9,0c0,0,0.5,0.3,0.6,1.2l0.1,12.1l2.8,0l-0.1-8.3l4.6,8.3l2.8,0l-0.1-13.4l-2.8,0
								L305,272.3z"/>
							<path class="st42" d="M258.2,273.7l4,0l0-2.9l-4,0l0-2.3l5.2,0l-0.8-2.9l-7.8,0.1c0,0,0.5,0.3,0.5,1.2l0.1,12.2l7.7-0.1
								l0.7-3l-5.6,0.1L258.2,273.7z"/>
							<path class="st42" d="M207.4,273.3l-4-7l-3.9,0c0,0,0.5,0.3,0.6,1.2l0.1,12.1l2.8,0l-0.1-8.3l4.6,8.3l2.8,0l-0.1-13.4l-2.8,0
								L207.4,273.3z"/>
							<path class="st42" d="M248.2,265.8l-3.6,0c0,0,0.5,0.3,0.5,1.2l0.1,12.1l7.7-0.1l0.7-3l-5.3,0.1L248.2,265.8z"/>
							<path class="st42" d="M189.5,266.4c0,0,0.7,0.4,0.5,1.2l-3.5,12.2l2.6,0l0.9-3.1l4.2,0l1,3.1l3.3,0l-4.5-13.3L189.5,266.4z
								 M190.8,274l1.2-4.3l1.4,4.3L190.8,274z"/>
							<path class="st42" d="M218.5,266.1l-6.4,0.1c0,0,0.5,0.3,0.5,1.2l0.1,12.1l2.9,0l0-4.6l2.9,0c2.4,0,4.4-2,4.4-4.4
								C222.9,268,220.9,266.1,218.5,266.1z M218.3,272l-2.7,0l0-3.1l2.7,0c0.8,0,1.5,0.7,1.5,1.5C219.9,271.3,219.2,272,218.3,272z
								"/>
							<path class="st42" d="M238,265.9l-3.6,0c0,0,0.5,0.3,0.5,1.2l0.1,12.1l7.7-0.1l0.7-3l-5.3,0.1L238,265.9z"/>
							<path class="st42" d="M227.3,274l4,0l0-2.9l-4,0l0-2.3l5.2,0l-0.8-2.9l-7.8,0.1c0,0,0.5,0.3,0.5,1.2l0.1,12.2l7.7-0.1l0.7-3
								l-5.6,0.1L227.3,274z"/>
						</g>
					</g>
				</g>
			</g>
		</g>
	</g>
</g>
<g>
	<g>
		<g>
			<path class="st61" d="M1143.2,250.9l-10.8,0l-3.4-10.1l-3.4,10.1l-11.6,0l9.1,6.2l-3.5,10.1l9.4-6.3l8.7,6.3l-3.5-10.1
				L1143.2,250.9z M1135.5,264.4l-6.6-4.8l-7.3,4.8l2.7-7.7l-7-4.8l9,0l2.6-7.8l2.6,7.8l8.2,0l-7,4.8L1135.5,264.4z M1138.1,252.4
				l-6.9,0l-2.2-6.6l-2.2,6.6l-7.7,0l5.9,4l-2.3,6.6l6.2-4.1l5.6,4.1l-2.3-6.6L1138.1,252.4z"/>
		</g>
	</g>
</g>
<g>
	<path class="st54" d="M491.7,194.5c5,0,13.3,2.2,13.3,7.5v2.9h-3.3v-2c0-3.3-5.7-5.1-9.8-5.1c-7.9,0-13.9,6.1-13.9,14.7
		c0,8.5,6,15.3,14.1,15.3c7.3,0,11.6-5,11.6-5l2,2.6c0,0-4.9,5.7-13.7,5.7c-10.4,0-17.7-8.3-17.7-18.6
		C474.2,202.3,481.7,194.5,491.7,194.5z"/>
	<path class="st54" d="M529.5,194.5c10,0,18,7.9,18,18.1c0,10.4-8,18.5-18,18.5c-10.1,0-18-8.2-18-18.5
		C511.4,202.4,519.4,194.5,529.5,194.5z M529.5,227.8c7.9,0,14.4-6.7,14.4-15.2c0-8.4-6.5-14.8-14.4-14.8c-8,0-14.4,6.4-14.4,14.8
		C515.1,221.1,521.5,227.8,529.5,227.8z"/>
	<path class="st54" d="M554,227.4h2.2c0.7,0,1.1-0.4,1.1-1.1v-31.2h3.2l18.1,25.2c1.2,1.8,2.9,4.6,2.9,4.6h0.1c0,0-0.3-2.8-0.3-4.6
		v-22.2c0-2.2,0.9-3.1,3.1-3.1h3.7v3.1H586c-0.7,0-1.1,0.4-1.1,1.1v31.2h-3.2l-18.1-25.2c-1.3-1.7-2.9-4.6-2.9-4.6h-0.1
		c0,0,0.3,2.7,0.3,4.6v22.2c0,2.2-0.9,3.1-3.1,3.1H554V227.4z"/>
	<path class="st54" d="M596.7,223.5c0,0,3.6,4.3,9.2,4.3c3.9,0,7-2.5,7-6.3c0-8.8-17.5-7-17.5-18c0-4.9,4.3-9.1,10.8-9.1
		c3.4,0,9.6,1.5,9.6,6.1v2.5h-3.3v-1.7c0-2.1-2.9-3.7-6.2-3.7c-4.6,0-7.3,2.7-7.3,5.7c0,8.2,17.5,6.2,17.5,17.9
		c0,5.3-4.1,9.8-10.7,9.8c-7.3,0-11.2-5-11.2-5L596.7,223.5z"/>
	<path class="st54" d="M626.3,199.3c0-0.8-0.4-1.1-1.1-1.1H623v-3.1h3.7c2.2,0,3.1,0.9,3.1,3.1v20.1c0,5.9,3.7,9.6,9.5,9.6
		c5.8,0,9.6-3.7,9.6-9.7v-20c0-2.2,0.9-3.1,3.1-3.1h3.7v3.1h-2.2c-0.7,0-1.1,0.4-1.1,1.1v19c0,7.7-5.2,12.7-13.1,12.7
		c-7.8,0-13.1-5.1-13.1-12.7V199.3z"/>
	<path class="st54" d="M660.8,227.4h1.9c0.7,0,1.1-0.4,1.1-1.1l2.5-31.2h3.6l9.4,20.6c0.9,1.8,1.8,4.2,1.8,4.2h0.1
		c0,0,0.9-2.4,1.7-4.2l9.4-20.6h3.6l2.5,31.2c0.1,0.8,0.4,1.1,1.1,1.1h1.9v3.1h-3.4c-2.2,0-2.9-0.9-3.1-3.1l-1.7-21.5
		c-0.2-1.9-0.2-4.9-0.2-4.9h-0.1c0,0-1,3.1-1.8,4.9l-8.4,18h-3.2l-8.4-18c-0.8-1.8-1.9-5-1.9-5h-0.1c0,0,0,3.1-0.2,5l-1.7,21.5
		c-0.2,2.2-0.9,3.1-3.1,3.1h-3.4V227.4z"/>
	<path class="st54" d="M724.8,194.5c10,0,18,7.9,18,18.1c0,10.4-8,18.5-18,18.5c-10.1,0-18-8.2-18-18.5
		C706.7,202.4,714.7,194.5,724.8,194.5z M724.8,227.8c7.9,0,14.4-6.7,14.4-15.2c0-8.4-6.5-14.8-14.4-14.8c-8,0-14.4,6.4-14.4,14.8
		C710.4,221.1,716.8,227.8,724.8,227.8z"/>
	<path class="st54" d="M768.8,198.2h-3.3v-3.1h20.3c2.2,0,3.1,0.9,3.1,3.1v3.5h-3.3v-2.4c0-0.8-0.4-1.1-1.1-1.1h-12.1v12.9h13.3v3.1
		h-13.3v12c0,0.8,0.4,1.1,1.1,1.1h12.4c0.7,0,1.1-0.4,1.1-1.1v-2.4h3.3v3.5c0,2.2-0.9,3.1-3.1,3.1h-15.3c-2.2,0-3.1-0.9-3.1-3.1
		V198.2z"/>
	<path class="st54" d="M829.7,194.5c5,0,13.3,2.2,13.3,7.5v2.9h-3.3v-2c0-3.3-5.7-5.1-9.8-5.1c-7.9,0-13.9,6.1-13.9,14.7
		c0,8.5,6,15.3,14.1,15.3c7.3,0,11.6-5,11.6-5l2,2.6c0,0-4.9,5.7-13.7,5.7c-10.4,0-17.7-8.3-17.7-18.6
		C812.2,202.3,819.7,194.5,829.7,194.5z"/>
	<path class="st54" d="M850.1,227.4h3.3v-29.2h-3.3v-3.1h10.1v3.1h-3.4v29.2h3.4v3.1h-10.1V227.4z"/>
	<path class="st54" d="M878.9,198.2h-8.8c-0.7,0-1.1,0.3-1.1,1.1v2.4h-3.2v-3.7c0-2.2,0.7-2.9,2.9-2.9h24c2.2,0,2.9,0.7,2.9,2.9v3.7
		h-3.3v-2.4c0-0.8-0.4-1.1-1.1-1.1h-8.7v32.3h-3.5V198.2z"/>
	<path class="st54" d="M912.7,198.2h-8.8c-0.7,0-1.1,0.3-1.1,1.1v2.4h-3.2v-3.7c0-2.2,0.7-2.9,2.9-2.9h24c2.2,0,2.9,0.7,2.9,2.9v3.7
		H926v-2.4c0-0.8-0.4-1.1-1.1-1.1h-8.7v32.3h-3.5V198.2z"/>
	<path class="st54" d="M928.8,227.4h0.7c0.9,0,1.5-0.2,1.8-1.1l11.6-31.2h3.8l11.6,31.2c0.4,1,0.9,1.1,1.8,1.1h0.6v3.1h-1.6
		c-2.5,0-3.3-0.5-4.2-2.9l-3.1-8.4h-14.1l-3.1,8.4c-0.9,2.4-1.6,2.9-4.1,2.9h-1.7V227.4z M950.8,216.1l-4.7-12.6
		c-0.6-1.7-1.4-4.6-1.4-4.6h-0.1c0,0-0.8,2.9-1.4,4.6l-4.6,12.6H950.8z"/>
	<path class="st54" d="M969.2,198.2H966v-3.1h14.2c10.7,0,17.8,6.5,17.8,17.7c0,11.3-7.1,17.7-17.8,17.7h-7.9
		c-2.2,0-3.1-0.9-3.1-3.1V198.2z M973.9,227.4h5.9c8.7,0,14.5-5.1,14.5-14.6c0-9.4-5.8-14.6-14.5-14.6h-7.1v28.1
		C972.8,227,973.2,227.4,973.9,227.4z"/>
	<path class="st54" d="M1004.7,227.4h3.3v-29.2h-3.3v-3.1h10.1v3.1h-3.4v29.2h3.4v3.1h-10.1V227.4z"/>
	<path class="st54" d="M1021.8,227.4h2.2c0.7,0,1.1-0.4,1.1-1.1v-31.2h3.2l18.1,25.2c1.2,1.8,2.9,4.6,2.9,4.6h0.1
		c0,0-0.3-2.8-0.3-4.6v-22.2c0-2.2,0.9-3.1,3.1-3.1h3.7v3.1h-2.2c-0.7,0-1.1,0.4-1.1,1.1v31.2h-3.2l-18.1-25.2
		c-1.3-1.7-2.9-4.6-2.9-4.6h-0.1c0,0,0.3,2.7,0.3,4.6v22.2c0,2.2-0.9,3.1-3.1,3.1h-3.7V227.4z"/>
	<path class="st54" d="M1062.8,227.4h3.3v-29.2h-3.3v-3.1h10.1v3.1h-3.4v29.2h3.4v3.1h-10.1V227.4z"/>
</g>
</svg>
