<svg baseProfile="basic" id="Livello_1" xmlns="http://www.w3.org/2000/svg" viewBox="0 0 1047 531"><style>.st0{fill:#8ea52f}.st1{fill:#00295a}.st2{fill:#fff}</style><path class="st0" d="M827 62.7c62.1 0 112.4 50.3 112.4 112.4S889.1 287.5 827 287.5s-112.4-50.3-112.4-112.4c0-62 50.3-112.4 112.4-112.4z"/><path class="st1" d="M756.6 157H775v4h-18.4v-4zm27.7 11.5s3.4 5.4 10.5 5.4c6.5 0 11.3-4.6 11.3-10.6 0-6.3-5.2-10.7-11.8-10.7-5.1 0-8.7 2.5-8.7 2.5l-2.3-1 1.9-18.3c.3-2.8 1.2-3.9 3.9-3.9H804c2.7 0 3.9 1.2 3.9 3.9v4.5h-4.2v-3c0-1-.5-1.4-1.4-1.4h-11.5c-.9 0-1.3.5-1.4 1.4l-1.2 10.3c-.2 1.6-.4 2.6-.4 2.6h.1s2.8-1.7 6.9-1.7c9.3 0 15.9 6.6 15.9 14.8 0 8.1-6.7 14.8-16 14.8-9.1 0-13.4-6.5-13.4-6.5l3-3.1zm33.8-13.9c0-13.1 3.8-23.5 15.7-23.5s15.7 10.4 15.7 23.5c0 13.2-3.9 23.5-15.7 23.5s-15.7-10.3-15.7-23.5zm26.8 0c0-10.8-2.5-19.3-11.1-19.3s-11.1 8.5-11.1 19.3c0 10.9 2.5 19.3 11.1 19.3 8.6.1 11.1-8.4 11.1-19.3zm12.4-14.5c0-4.9 4-9 9.1-9 5 0 9.1 4.1 9.1 9 0 5-4.1 9-9.1 9-5.1 0-9.1-4-9.1-9zm35-8.2h4.6l-34.6 45.5h-4.7l34.7-45.5zm-20.7 8.2c0-2.9-2.3-5.4-5.3-5.4s-5.2 2.5-5.2 5.4c0 3 2.3 5.4 5.2 5.4 3 0 5.3-2.4 5.3-5.4zm16.6 20.1c5 0 9.1 4.1 9.1 9.1 0 4.9-4.1 8.9-9.1 8.9s-9.1-4-9.1-8.9c0-5 4-9.1 9.1-9.1zm0 14.3c3 0 5.3-2.4 5.3-5.4 0-2.9-2.3-5.4-5.3-5.4s-5.2 2.5-5.2 5.4c0 3 2.2 5.4 5.2 5.4z"/><path class="st2" d="M779.7 203.9c3.5 0 4.7 2.7 4.7 2.7h.1s-.1-.5-.1-1.1v-4.7c0-.4-.2-.6-.6-.6h-1.2v-1.7h2c1.2 0 1.8.5 1.8 1.8v16.1c0 .4.2.6.6.6h1.2v1.7h-2c-1.2 0-1.7-.5-1.7-1.6 0-.5.1-.9.1-.9h-.1s-1.2 2.9-5 2.9c-3.9 0-6.3-3.1-6.3-7.6 0-4.6 2.7-7.6 6.5-7.6zm4.7 7.6c0-2.9-1.5-5.8-4.6-5.8-2.6 0-4.7 2.2-4.7 5.8s1.9 5.8 4.6 5.8c2.5 0 4.7-1.7 4.7-5.8zm14.5-1.7h.8v-.2c0-3-1.1-4.1-3.7-4.1-.7 0-2.8.2-2.8 1.3v.9h-1.9v-1.4c0-2 3.5-2.4 4.7-2.4 4.6 0 5.7 2.4 5.7 5.5v6.9c0 .4.2.6.6.6h1.2v1.7h-2c-1.2 0-1.7-.5-1.7-1.7v-1.1h-.1s-1.2 3.1-4.8 3.1c-2.4 0-4.9-1.4-4.9-4.3 0-4.6 6.4-4.8 8.9-4.8zm-3.7 7.6c2.8 0 4.4-2.9 4.4-5.4v-.7h-.8c-2.3 0-6.8.1-6.8 3.3 0 1.4 1.1 2.8 3.2 2.8zm11.3-16.5c0-.4-.2-.6-.6-.6h-1.2v-1.7h2c1.2 0 1.8.5 1.8 1.8v16.1c0 .4.2.6.6.6h1.2v1.7h-2c-1.2 0-1.8-.5-1.8-1.8v-16.1zm24.3 3c0-2.2-1.6-3.8-4.1-3.8-2 0-3.6 1-3.6 2.2v.9h-1.9v-1.5c0-2.6 3.5-3.5 5.5-3.5 3.9 0 6.2 2.5 6.2 5.7 0 7.1-10.7 6.9-10.7 12.5 0 .4.2.6.7.6h8.5c.4 0 .6-.2.6-.6V215h1.9v2c0 1.2-.5 1.8-1.8 1.8H822c-1.4 0-1.8-.6-1.8-2-.1-7.5 10.6-6.9 10.6-12.9zm5.9 4.7c0-5.8 1.7-10.4 7-10.4s7 4.6 7 10.4c0 5.9-1.7 10.5-7 10.5s-7-4.6-7-10.5zm11.9 0c0-4.8-1.1-8.6-4.9-8.6-3.8 0-4.9 3.8-4.9 8.6s1.1 8.6 4.9 8.6c3.8 0 4.9-3.8 4.9-8.6zm5.1 8.4h4.5v-15.9h-.1s-.2.4-1 1.2l-2.2 2.2-1.3-1.3 4.6-4.5h1.9V217h4.4v1.8h-11V217h.2zm13.1-8.4c0-5.8 1.7-10.4 7-10.4s7 4.6 7 10.4c0 5.9-1.7 10.5-7 10.5s-7-4.6-7-10.5zm11.9 0c0-4.8-1.1-8.6-4.9-8.6-3.8 0-4.9 3.8-4.9 8.6s1.1 8.6 4.9 8.6c3.8 0 4.9-3.8 4.9-8.6z"/></svg>