<svg baseProfile="basic" xmlns="http://www.w3.org/2000/svg" viewBox="0 0 1047 531"><style>.st0{stroke-linecap:round;stroke-dasharray:0,5}.st0,.st1{fill:none;stroke:#8ea52f;stroke-miterlimit:10}.st2{fill:#4e5594}</style><path class="st0" d="M108 98.2h852.1m-852.1 62.9h852.1m-852.1 62.8h852.1m-852.1 63.6h852.1m-852.1 62.8h852.1m-852.1 62.9h852.1"/><path class="st1" d="M1001.5 468.7h-951c-3.7 0-6.7-3-6.7-6.7v-415.3"/><path class="st2" d="M323.7 491.4c2.8 0 4.2 1.5 4.2 1.5l-1 1.2s-1.3-1.1-3.3-1.1c-2.4 0-4.3 1.9-4.3 4.6 0 2.8 1.9 4.6 4.3 4.6 2.1 0 3.4-1.5 3.4-1.5v-1.2c0-.2-.1-.4-.4-.4h-.6v-1.4h1.6c.8 0 1.1.3 1.1 1.1v4.8h-1.5v-1.2s-1.3 1.4-3.7 1.4c-3.2 0-5.8-2.5-5.8-6.2 0-3.5 2.6-6.2 6-6.2zm8.1 5.3c0-.3-.1-.4-.4-.4h-.7v-1.3h1.6c.7 0 1.1.3 1.1 1v1.1c.4-1.2 1.4-2.2 2.7-2.2h.4v1.6s-.2-.1-.5-.1c-1 0-2 .7-2.4 2-.2.5-.2 1-.2 1.5v3.5h-1.6v-6.7zm11 1.5h.4v-.1c0-1.5-.6-2-1.9-2-.4 0-1.4.1-1.4.7v.5h-1.5v-.8c0-1.4 2.1-1.6 2.9-1.6 2.8 0 3.5 1.4 3.5 3.3v3.6c0 .3.1.4.4.4h.7v1.4h-1.5c-.8 0-1.1-.4-1.1-1v-.5s-.7 1.7-2.7 1.7c-1.5 0-2.9-.9-2.9-2.6-.1-2.9 3.6-3 5.1-3zm-1.9 4.2c1.4 0 2.3-1.4 2.3-2.7v-.3h-.4c-1.2 0-3.5.1-3.5 1.6 0 .7.5 1.4 1.6 1.4zm7.4-5.7c0-.3-.1-.4-.4-.4h-.7v-1.3h1.6c.7 0 1.1.3 1.1.9v.8c.4-1 1.6-2 2.9-2 1.4 0 2.3.7 2.6 1.9.5-1 1.7-1.9 3-1.9 1.9 0 2.8 1.1 2.8 3.3v3.7c0 .3.1.4.4.4h.7v1.4h-1.6c-.8 0-1.1-.3-1.1-1.1v-4c0-1.2-.2-2.1-1.5-2.1-1.2 0-2.1 1-2.4 2.2-.1.4-.1.7-.1 1.2v3.9h-1.6v-5.1c0-1.1-.2-2.1-1.5-2.1-1.2 0-2.1 1-2.4 2.3-.1.3-.1.7-.1 1.1v3.9h-1.6l-.1-7zm16.4 0c0-.3-.1-.4-.4-.4h-.7v-1.3h1.6c.7 0 1.1.3 1.1.9v.8c.4-1 1.6-2 2.9-2 1.4 0 2.3.7 2.6 1.9.5-1 1.7-1.9 3-1.9 1.9 0 2.8 1.1 2.8 3.3v3.7c0 .3.1.4.4.4h.7v1.4h-1.6c-.8 0-1.1-.3-1.1-1.1v-4c0-1.2-.2-2.1-1.5-2.1-1.2 0-2.1 1-2.4 2.2-.1.4-.1.7-.1 1.2v3.9h-1.6v-5.1c0-1.1-.2-2.1-1.5-2.1-1.2 0-2.1 1-2.4 2.3-.1.3-.1.7-.1 1.1v3.9h-1.6l-.1-7zm16.6 0c0-.3-.1-.4-.4-.4h-.7v-1.3h1.6c.8 0 1.1.3 1.1 1.1v5.7c0 .3.1.4.4.4h.7v1.4h-1.6c-.8 0-1.1-.3-1.1-1.1v-5.8zm0-5.1h1.5v1.7h-1.5v-1.7zm13.5 3.1c2 0 2.6 1.3 2.6 1.3v-2.7c0-.3-.1-.4-.4-.4h-.7v-1.4h1.6c.8 0 1.1.3 1.1 1.1v9c0 .3.1.4.4.4h.7v1.4h-1.6c-.7 0-1-.3-1-.9v-.4s-.7 1.6-2.8 1.6c-2.3 0-3.8-1.8-3.8-4.5s1.6-4.5 3.9-4.5zm2.7 4.5c0-1.5-.8-3-2.4-3-1.3 0-2.4 1.1-2.4 3.1 0 1.9 1 3 2.4 3 1.2 0 2.4-.9 2.4-3.1zm5.2-2.5c0-.3-.1-.4-.4-.4h-.7v-1.3h1.6c.8 0 1.1.3 1.1 1.1v5.7c0 .3.1.4.4.4h.7v1.4h-1.6c-.8 0-1.1-.3-1.1-1.1v-5.8zm0-5.1h1.5v1.7h-1.5v-1.7zm15.5-.2c1.6 0 4.5.7 4.5 2.6v1.2h-1.6v-.7c0-1-1.7-1.5-2.9-1.5-2.4 0-4.2 1.8-4.2 4.5 0 2.6 1.9 4.7 4.3 4.7l3.8-1.6.9 1.2s-1.7 2-4.7 2c-3.6 0-6-2.7-6-6.3 0-3.5 2.5-6.1 5.9-6.1zm12.6 0c3.4 0 6.1 2.6 6.1 6.1s-2.7 6.2-6.1 6.2-6.1-2.7-6.1-6.2 2.6-6.1 6.1-6.1zm0 10.7c2.4 0 4.4-2 4.4-4.7 0-2.5-2-4.5-4.4-4.5s-4.3 2-4.3 4.5c-.1 2.7 1.9 4.7 4.3 4.7zm14-7.3c0-1.1-.8-1.9-2.1-1.9-1.1 0-1.8.5-1.8 1.1v.5h-1.6v-1c0-1.6 2.1-2.2 3.5-2.2 2.2 0 3.7 1.4 3.7 3.4 0 4.1-6 4.2-6 6.9 0 .2.1.3.4.3h4.2c.2 0 .4-.1.4-.4v-.8h1.6v1.5c0 .8-.3 1.1-1.1 1.1h-6.1c-.9 0-1.1-.4-1.1-1.4 0-4.2 6-3.9 6-7.1zm10.3 1.9c0-.3-.1-.4-.4-.4h-.7v-1.3h1.5c.8 0 1 .3 1 .9v.5s.7-1.5 2.8-1.5c2.3 0 3.8 1.8 3.8 4.5s-1.7 4.5-3.9 4.5c-1.9 0-2.6-1.4-2.6-1.4v4.5h-1.6v-10.3h.1zm4 5.6c1.3 0 2.5-1.1 2.5-3.1 0-1.9-1-3-2.4-3-1.3 0-2.5.9-2.5 3.1 0 1.5.8 3 2.4 3zm10.3-7.6c2.4 0 3.7 1.8 3.7 4 0 .2-.1.7-.1.7h-6.2c.1 1.8 1.4 2.8 2.9 2.8l2.5-1 .7 1.2s-1.3 1.2-3.3 1.2c-2.7 0-4.5-1.9-4.5-4.5s1.9-4.4 4.3-4.4zm2 3.5c-.1-1.4-.9-2.2-2-2.2-1.2 0-2.3.8-2.5 2.2h4.5zm4.5-1.5c0-.3-.1-.4-.4-.4h-.7v-1.3h1.6c.7 0 1.1.3 1.1 1v1.1c.4-1.2 1.4-2.2 2.7-2.2h.4v1.6s-.2-.1-.5-.1c-1 0-2 .7-2.4 2-.2.5-.2 1-.2 1.5v3.5h-1.6v-6.7zm12.4-3.3c0-.3-.1-.4-.4-.4h-.7v-1.4h1.6c.8 0 1.1.3 1.1 1.1v9c0 .3.1.4.4.4h.7v1.4h-1.6c-.8 0-1.1-.3-1.1-1.1v-9zm5.3 3.3c0-.3-.1-.4-.4-.4h-.7v-1.3h1.6c.8 0 1.1.3 1.1 1.1v5.7c0 .3.1.4.4.4h.7v1.4h-1.6c-.8 0-1.1-.3-1.1-1.1v-5.8zm.1-5.1h1.5v1.7h-1.5v-1.7zm5.2 4.7h-1.1v-1.3h1.1v-2.3h1.6v2.3h2v1.3h-2v3.9c0 1.7 1.2 1.9 1.8 1.9h.4v1.4h-.6c-1.1 0-3.3-.3-3.3-3.2v-4h.1zm6.6.4c0-.3-.1-.4-.4-.4h-.7v-1.3h1.6c.7 0 1.1.3 1.1 1v1.1c.4-1.2 1.4-2.2 2.7-2.2h.4v1.6s-.2-.1-.5-.1c-1 0-2 .7-2.4 2-.2.5-.2 1-.2 1.5v3.5h-1.6v-6.7zm10.6-2c2.5 0 4.6 1.9 4.6 4.4 0 2.6-2.1 4.5-4.6 4.5s-4.6-1.9-4.6-4.5c0-2.5 2-4.4 4.6-4.4zm0 7.6c1.6 0 2.9-1.3 2.9-3.1s-1.3-3-2.9-3c-1.6 0-2.9 1.3-2.9 3 0 1.8 1.3 3.1 2.9 3.1zm15.5-7.6c2 0 2.6 1.3 2.6 1.3v-2.7c0-.3-.1-.4-.4-.4h-.7v-1.4h1.6c.8 0 1.1.3 1.1 1.1v9c0 .3.1.4.4.4h.7v1.4h-1.6c-.7 0-1-.3-1-.9v-.4s-.7 1.6-2.8 1.6c-2.3 0-3.8-1.8-3.8-4.5.1-2.7 1.7-4.5 3.9-4.5zm2.7 4.5c0-1.5-.8-3-2.4-3-1.3 0-2.4 1.1-2.4 3.1 0 1.9 1 3 2.4 3 1.2 0 2.4-.9 2.4-3.1zm5.3-2.5c0-.3-.1-.4-.4-.4h-.7v-1.3h1.6c.8 0 1.1.3 1.1 1.1v5.7c0 .3.1.4.4.4h.7v1.4h-1.6c-.8 0-1.1-.3-1.1-1.1v-5.8zm0-5.1h1.5v1.7h-1.5v-1.7zm14.7 6.6h.4v-.1c0-1.5-.6-2-1.9-2-.4 0-1.4.1-1.4.7v.5h-1.5v-.8c0-1.4 2.1-1.6 2.9-1.6 2.8 0 3.5 1.4 3.5 3.3v3.6c0 .3.1.4.4.4h.7v1.4h-1.5c-.8 0-1.1-.4-1.1-1v-.5s-.7 1.7-2.7 1.7c-1.5 0-2.9-.9-2.9-2.6 0-2.9 3.7-3 5.1-3zm-1.9 4.2c1.4 0 2.3-1.4 2.3-2.7v-.3h-.4c-1.2 0-3.5.1-3.5 1.6 0 .7.6 1.4 1.6 1.4zm11.2-7.7c1 0 3.1.4 3.1 1.9v.9h-1.5v-.5c0-.6-1-.9-1.6-.9-1.7 0-2.9 1.2-2.9 3 0 1.9 1.4 3 3 3l2.6-1.2.7 1.2s-1.2 1.5-3.5 1.5c-2.7 0-4.5-1.9-4.5-4.5 0-2.4 1.8-4.4 4.6-4.4zm8.9 0c2 0 2.7 1.4 2.7 1.4v-.4c0-.5.3-.8 1-.8h1.5v1.4h-.7c-.2 0-.4.1-.4.4v10.1h-1.6v-4.5s-.7 1.4-2.7 1.4c-2.3 0-3.7-1.8-3.7-4.5.1-2.7 1.7-4.5 3.9-4.5zm2.7 4.5c0-1.5-.8-3-2.4-3-1.3 0-2.5 1.1-2.5 3.1 0 1.9 1 3 2.4 3 1.3 0 2.5-.9 2.5-3.1zm5.1-2.5c0-.3-.1-.4-.4-.4h-.7v-1.3h1.6c.8 0 1.1.3 1.1 1v4c0 1.2.2 2.1 1.6 2.1 1.8 0 2.8-1.5 2.8-3.2v-4h1.6v6.8c0 .3.1.4.4.4h.7v1.4h-1.6c-.7 0-1.1-.3-1.1-.9v-.8c-.4.8-1.4 2-3.1 2-1.9 0-2.9-1-2.9-3.3v-3.8zm15.5 1.5h.4v-.1c0-1.5-.6-2-1.9-2-.4 0-1.4.1-1.4.7v.5h-1.5v-.8c0-1.4 2.1-1.6 2.9-1.6 2.8 0 3.5 1.4 3.5 3.3v3.6c0 .3.1.4.4.4h.7v1.4h-1.5c-.8 0-1.1-.4-1.1-1v-.5s-.7 1.7-2.7 1.7c-1.5 0-2.9-.9-2.9-2.6 0-2.9 3.7-3 5.1-3zm-1.9 4.2c1.4 0 2.3-1.4 2.3-2.7v-.3h-.4c-1.2 0-3.5.1-3.5 1.6 0 .7.6 1.4 1.6 1.4zm12.7-5.7c0-.3-.1-.4-.4-.4h-.7v-1.3h1.6c.8 0 1.1.3 1.1 1.1v5.7c0 .3.1.4.4.4h.7v1.4h-1.6c-.8 0-1.1-.3-1.1-1.1v-5.8zm.1-5.1h1.5v1.7h-1.5v-1.7zm5.1 5.1c0-.3-.1-.4-.4-.4h-.7v-1.3h1.6c.7 0 1.1.3 1.1.9v.8c.4-1 1.6-2 2.9-2 1.4 0 2.3.7 2.6 1.9.5-1 1.7-1.9 3-1.9 1.9 0 2.8 1.1 2.8 3.3v3.7c0 .3.1.4.4.4h.7v1.4h-1.6c-.8 0-1.1-.3-1.1-1.1v-4c0-1.2-.2-2.1-1.5-2.1-1.2 0-2.1 1-2.4 2.2-.1.4-.1.7-.1 1.2v3.9h-1.6v-5.1c0-1.1-.2-2.1-1.5-2.1-1.2 0-2.1 1-2.4 2.3-.1.3-.1.7-.1 1.1v3.9h-1.6v-7h-.1zm16.4-3.3c0-.3-.1-.4-.4-.4h-.7v-1.4h1.6c.8 0 1.1.3 1.1 1.1v3.5s.7-1.4 2.7-1.4c2.3 0 3.7 1.8 3.7 4.5s-1.6 4.5-3.9 4.5c-1.9 0-2.7-1.4-2.7-1.4v1.2h-1.6v-10.2h.2zm4.1 8.9c1.3 0 2.5-1.1 2.5-3.1 0-1.9-1-3-2.4-3-1.3 0-2.4.9-2.4 3.1-.2 1.5.6 3 2.3 3zm10.6-7.6c2.5 0 4.6 1.9 4.6 4.4 0 2.6-2.1 4.5-4.6 4.5s-4.6-1.9-4.6-4.5c0-2.5 2-4.4 4.6-4.4zm0 7.6c1.6 0 2.9-1.3 2.9-3.1s-1.3-3-2.9-3c-1.6 0-2.9 1.3-2.9 3-.1 1.8 1.3 3.1 2.9 3.1zm7.3-6h-1.1v-1.3h1.1v-2.3h1.6v2.3h2v1.3h-2v3.9c0 1.7 1.2 1.9 1.8 1.9h.4v1.4h-.6c-1.1 0-3.3-.3-3.3-3.2l.1-4zm6.7 0h-1.1v-1.3h1.1v-2.3h1.6v2.3h2v1.3h-2v3.9c0 1.7 1.2 1.9 1.8 1.9h.4v1.4h-.6c-1.1 0-3.3-.3-3.3-3.2l.1-4zm6.6.4c0-.3-.1-.4-.4-.4h-.7v-1.3h1.6c.8 0 1.1.3 1.1 1.1v5.7c0 .3.1.4.4.4h.7v1.4h-1.6c-.8 0-1.1-.3-1.1-1.1v-5.8zm0-5.1h1.5v1.7h-1.5v-1.7zm8.1 3.1c2.1 0 2.7 1.3 2.7 1.3v-.3c0-.5.3-.9.9-.9h1.6v1.4h-.7c-.2 0-.4.1-.4.3v6.4c0 2.8-2.1 3.9-4.3 3.9-1 0-2.1-.3-2.9-.7l.6-1.3s1 .6 2.3.6c1.5 0 2.7-.7 2.7-2.4v-1.1c-.5.8-1.3 1.3-2.5 1.3-2.4 0-3.8-1.9-3.8-4.4.1-2.2 1.5-4.1 3.8-4.1zm2.7 4.3c0-2.2-1.1-2.9-2.4-2.9-1.5 0-2.3 1.1-2.3 2.8 0 1.8.9 3 2.5 3 1.1.1 2.2-.6 2.2-2.9zm5.1-5.6c0-.3-.1-.4-.4-.4h-.7v-1.4h1.6c.8 0 1.1.3 1.1 1.1v9c0 .3.1.4.4.4h.7v1.4h-1.6c-.8 0-1.1-.3-1.1-1.1v-9zm5.3 3.3c0-.3-.1-.4-.4-.4h-.7v-1.3h1.6c.8 0 1.1.3 1.1 1.1v5.7c0 .3.1.4.4.4h.7v1.4h-1.6c-.8 0-1.1-.3-1.1-1.1v-5.8zm0-5.1h1.5v1.7h-1.5v-1.7zm9.5 6.6h.4v-.1c0-1.5-.6-2-1.9-2-.4 0-1.4.1-1.4.7v.5h-1.5v-.8c0-1.4 2.1-1.6 2.9-1.6 2.8 0 3.5 1.4 3.5 3.3v3.6c0 .3.1.4.4.4h.7v1.4h-1.5c-.8 0-1.1-.4-1.1-1v-.5s-.7 1.7-2.7 1.7c-1.5 0-2.9-.9-2.9-2.6 0-2.9 3.7-3 5.1-3zm-1.8 4.2c1.4 0 2.3-1.4 2.3-2.7v-.3h-.4c-1.2 0-3.5.1-3.5 1.6-.1.7.5 1.4 1.6 1.4zm7.4-6.1h-1.1v-1.3h1.1v-2.3h1.6v2.3h2v1.3h-2v3.9c0 1.7 1.2 1.9 1.8 1.9h.4v1.4h-.6c-1.1 0-3.3-.3-3.3-3.2l.1-4zm10.2-1.6c2.5 0 4.6 1.9 4.6 4.4 0 2.6-2.1 4.5-4.6 4.5s-4.6-1.9-4.6-4.5c0-2.5 2-4.4 4.6-4.4zm0 7.6c1.6 0 2.9-1.3 2.9-3.1s-1.3-3-2.9-3c-1.6 0-2.9 1.3-2.9 3-.1 1.8 1.3 3.1 2.9 3.1zm6.8-.6h1.7v1.7h-1.7v-1.7zm-575.6-63.9c0-1.2-.9-2-2.2-2-1.1 0-1.9.6-1.9 1.2v.5h-1.6v-1.1c0-1.6 2.2-2.3 3.6-2.3 2.3 0 3.9 1.5 3.9 3.6 0 4.3-6.3 4.4-6.3 7.3 0 .2.1.3.4.3h4.4c.2 0 .4-.1.4-.4v-.8h1.6v1.6c0 .8-.3 1.1-1.1 1.1h-6.4c-1 0-1.2-.4-1.2-1.4.1-4.5 6.4-4.2 6.4-7.6zm4.7 2.9c0-3.6 1.1-6.5 4.4-6.5 3.3 0 4.4 2.9 4.4 6.5s-1.1 6.5-4.4 6.5-4.4-2.9-4.4-6.5zm7.1 0c0-2.7-.6-4.8-2.6-4.8-2.1 0-2.6 2.1-2.6 4.8 0 2.7.6 4.9 2.6 4.9s2.6-2.2 2.6-4.9zm4.3 4.7h2.7v-8.9s-.1.3-.6.7l-1.2 1.2-1.1-1.1 3-2.9h1.6v11h2.7v1.5h-7.2v-1.5h.1zm9.2-4.7c0-3.6 1.1-6.5 4.4-6.5 3.3 0 4.4 2.9 4.4 6.5s-1.1 6.5-4.4 6.5-4.4-2.9-4.4-6.5zm7 0c0-2.7-.6-4.8-2.6-4.8-2.1 0-2.6 2.1-2.6 4.8 0 2.7.6 4.9 2.6 4.9 2.1 0 2.6-2.2 2.6-4.9zm-102-339.7s1.3 1.4 3.2 1.4c1.4 0 2.5-1 2.5-2.3 0-1.4-1.3-2.3-2.7-2.3h-.9l-.4-1 2.6-3.3c.4-.5.7-.8.7-.8s-.4.1-1.1.1h-2.4c-.3 0-.4.1-.4.4v.8h-1.7v-1.6c0-.8.3-1.2 1.1-1.2h6.7v1.1l-3.3 4c1.7.2 3.6 1.3 3.6 3.7 0 2.1-1.7 4-4.4 4-2.6 0-4.2-1.8-4.2-1.8l1.1-1.2zm10.9.1s1 1.4 3 1.4c1.6 0 2.7-1.1 2.7-2.5 0-1.6-1.4-2.6-3-2.6-1.4 0-2.4.6-2.4.6l-.7-.4.5-5.3c.1-.8.3-1.2 1.2-1.2h4.3c.8 0 1.2.3 1.2 1.2v1.7h-1.6v-.8c0-.3-.1-.4-.4-.4h-2.7c-.3 0-.4.1-.4.4l-.3 2.3c0 .4-.1.7-.1.7s.7-.4 1.6-.4c2.7 0 4.5 1.9 4.5 4.2 0 2.2-1.8 4.2-4.6 4.2-2.6 0-3.9-1.8-3.9-1.8l1.1-1.3zm-11.1 62.9s1.3 1.4 3.2 1.4c1.4 0 2.5-1 2.5-2.3 0-1.4-1.3-2.3-2.7-2.3h-.9l-.4-1 2.6-3.3c.4-.5.7-.8.7-.8s-.4.1-1.1.1h-2.4c-.3 0-.4.1-.4.4v.8h-1.7v-1.6c0-.8.3-1.2 1.1-1.2h6.7v1.1l-3.3 4c1.7.2 3.6 1.3 3.6 3.7 0 2.1-1.7 4-4.4 4-2.6 0-4.2-1.8-4.2-1.8l1.1-1.2zm10-3.4c0-3.7 1.1-6.6 4.5-6.6s4.5 2.9 4.5 6.6c0 3.7-1.1 6.6-4.5 6.6-3.4-.1-4.5-3-4.5-6.6zm7.1 0c0-2.8-.6-4.9-2.7-4.9s-2.7 2.2-2.7 4.9c0 2.8.6 5 2.7 5 2.2-.1 2.7-2.3 2.7-5zm-11.5 60.1c0-1.2-.9-2-2.2-2-1.1 0-2 .6-2 1.2v.6h-1.7v-1.1c0-1.7 2.2-2.3 3.7-2.3 2.3 0 4 1.5 4 3.7 0 4.4-6.4 4.4-6.4 7.4 0 .3.1.3.5.3h4.5c.3 0 .4-.1.4-.4v-.8h1.7v1.6c0 .8-.3 1.2-1.2 1.2h-6.5c-1 0-1.2-.4-1.2-1.5 0-4.8 6.4-4.5 6.4-7.9zm5.8 6.4s1 1.4 3 1.4c1.6 0 2.7-1.1 2.7-2.5 0-1.6-1.4-2.6-3-2.6-1.4 0-2.4.6-2.4.6l-.7-.3.5-5.3c.1-.8.3-1.2 1.2-1.2h4.4c.8 0 1.2.3 1.2 1.2v1.6h-1.6v-.8c0-.3-.1-.4-.4-.4h-2.7c-.3 0-.4.1-.4.4l-.3 2.3c0 .4-.1.7-.1.7s.7-.4 1.6-.4c2.7 0 4.5 1.9 4.5 4.2 0 2.2-1.8 4.2-4.6 4.2-2.6 0-3.9-1.8-3.9-1.8l1-1.3zm-5.9 56.6c0-1.2-.9-2-2.2-2-1.1 0-2 .6-2 1.2v.6h-1.7v-1.1c0-1.7 2.2-2.3 3.7-2.3 2.3 0 4 1.5 4 3.7 0 4.4-6.4 4.4-6.4 7.4 0 .3.1.3.5.3h4.5c.3 0 .4-.1.4-.4v-.8h1.7v1.6c0 .8-.3 1.2-1.2 1.2h-6.5c-1 0-1.2-.4-1.2-1.5-.1-4.8 6.4-4.5 6.4-7.9zm4.7 2.9c0-3.7 1.1-6.6 4.5-6.6s4.5 2.9 4.5 6.6-1.1 6.6-4.5 6.6c-3.4-.1-4.5-3-4.5-6.6zm7.2 0c0-2.8-.6-4.9-2.7-4.9s-2.7 2.2-2.7 4.9c0 2.8.6 5 2.7 5 2.1-.1 2.7-2.3 2.7-5zm-17.1 67.8h2.8v-9s-.1.3-.6.7l-1.2 1.2-1.1-1.1 3-3h1.6v11.2h2.9v1.5h-7.4v-1.5zm10.4-1.3s1 1.4 3 1.4c1.6 0 2.7-1.1 2.7-2.5 0-1.6-1.4-2.6-3-2.6-1.4 0-2.4.6-2.4.6l-.7-.3.5-5.3c.1-.8.3-1.2 1.2-1.2h4.4c.8 0 1.2.3 1.2 1.2v1.6h-1.6v-.8c0-.3-.1-.4-.4-.4h-2.7c-.3 0-.4.1-.4.4l-.3 2.3c0 .4-.1.7-.1.7s.7-.4 1.6-.4c2.7 0 4.5 1.9 4.5 4.2 0 2.2-1.8 4.2-4.6 4.2-2.6 0-3.9-1.8-3.9-1.8l1-1.3zm-10.5 64.3h2.8v-9s-.1.3-.6.7l-1.2 1.2-1.1-1.1 3-3h1.6v11.2h2.8v1.5h-7.4l.1-1.5zm9.3-4.8c0-3.7 1.1-6.6 4.5-6.6s4.5 2.9 4.5 6.6-1.1 6.6-4.5 6.6c-3.4-.1-4.5-3-4.5-6.6zm7.2 0c0-2.8-.6-4.9-2.7-4.9s-2.7 2.2-2.7 4.9c0 2.8.6 5 2.7 5 2.1-.1 2.7-2.3 2.7-5zm164 25.2c0-1.2-.9-2-2.2-2-1.1 0-1.9.6-1.9 1.2v.5h-1.6v-1.1c0-1.6 2.2-2.3 3.6-2.3 2.3 0 3.9 1.5 3.9 3.6 0 4.3-6.3 4.4-6.3 7.3 0 .2.1.3.4.3h4.4c.2 0 .4-.1.4-.4v-.8h1.6v1.6c0 .8-.3 1.1-1.1 1.1h-6.4c-1 0-1.2-.4-1.2-1.4.1-4.5 6.4-4.2 6.4-7.6zm4.7 2.9c0-3.6 1.1-6.5 4.4-6.5s4.4 2.9 4.4 6.5-1.1 6.5-4.4 6.5c-3.3 0-4.4-2.9-4.4-6.5zm7.1 0c0-2.7-.6-4.8-2.6-4.8-2.1 0-2.6 2.1-2.6 4.8 0 2.7.6 4.9 2.6 4.9s2.6-2.2 2.6-4.9zm4.3 4.7h2.7v-8.9s-.1.3-.6.7l-1.2 1.2-1.1-1.1 3-2.9h1.6v11h2.7v1.5h-7.2v-1.5h.1zm9.7 0h2.7v-8.9s-.1.3-.6.7l-1.2 1.2-1.1-1.1 3-2.9h1.6v11h2.7v1.5h-7.2v-1.5h.1zm83.9-7.6c0-1.2-.9-2-2.2-2-1.1 0-1.9.6-1.9 1.2v.5h-1.6v-1.1c0-1.6 2.2-2.3 3.6-2.3 2.3 0 3.9 1.5 3.9 3.6 0 4.3-6.3 4.4-6.3 7.3 0 .2.1.3.4.3h4.4c.2 0 .4-.1.4-.4v-.8h1.6v1.6c0 .8-.3 1.1-1.1 1.1h-6.4c-1 0-1.2-.4-1.2-1.4 0-4.5 6.4-4.2 6.4-7.6zm4.7 2.9c0-3.6 1.1-6.5 4.4-6.5s4.4 2.9 4.4 6.5-1.1 6.5-4.4 6.5-4.4-2.9-4.4-6.5zm7 0c0-2.7-.6-4.8-2.6-4.8-2.1 0-2.6 2.1-2.6 4.8 0 2.7.6 4.9 2.6 4.9 2.1 0 2.6-2.2 2.6-4.9zm4.4 4.7h2.7v-8.9s-.1.3-.6.7l-1.2 1.2-1.1-1.1 3-2.9h1.6v11h2.7v1.5h-7.2v-1.5h.1zm15.5-7.6c0-1.2-.9-2-2.2-2-1.1 0-1.9.6-1.9 1.2v.5h-1.6v-1.1c0-1.6 2.2-2.3 3.6-2.3 2.3 0 3.9 1.5 3.9 3.6 0 4.3-6.3 4.4-6.3 7.3 0 .2.1.3.4.3h4.4c.2 0 .4-.1.4-.4v-.8h1.6v1.6c0 .8-.3 1.1-1.1 1.1h-6.4c-1 0-1.2-.4-1.2-1.4.1-4.5 6.4-4.2 6.4-7.6zm79.1 0c0-1.2-.9-2-2.2-2-1.1 0-1.9.6-1.9 1.2v.5h-1.6v-1.1c0-1.6 2.2-2.3 3.6-2.3 2.3 0 3.9 1.5 3.9 3.6 0 4.3-6.3 4.4-6.3 7.3 0 .2.1.3.4.3h4.4c.2 0 .4-.1.4-.4v-.8h1.6v1.6c0 .8-.3 1.1-1.1 1.1h-6.4c-1 0-1.2-.4-1.2-1.4 0-4.5 6.4-4.2 6.4-7.6zm4.7 2.9c0-3.6 1.1-6.5 4.4-6.5s4.4 2.9 4.4 6.5-1.1 6.5-4.4 6.5-4.4-2.9-4.4-6.5zm7 0c0-2.7-.6-4.8-2.6-4.8-2.1 0-2.6 2.1-2.6 4.8 0 2.7.6 4.9 2.6 4.9 2.1 0 2.6-2.2 2.6-4.9zm4.4 4.7h2.7v-8.9s-.1.3-.6.7l-1.2 1.2-1.1-1.1 3-2.9h1.6v11h2.7v1.5h-7.2v-1.5h.1zm9.8-1.3s1.2 1.4 3.2 1.4c1.3 0 2.5-.9 2.5-2.3s-1.2-2.2-2.7-2.2h-.9l-.4-1 2.6-3.3c.4-.5.7-.8.7-.8s-.4.1-1.1.1h-2.4c-.2 0-.4.1-.4.4v.8h-1.6v-1.6c0-.8.3-1.1 1.1-1.1h6.6v1.1l-3.3 4c1.6.2 3.5 1.3 3.5 3.7 0 2.1-1.7 4-4.3 4-2.6 0-4.1-1.8-4.1-1.8l1-1.4zm84.2-6.3c0-1.2-.9-2-2.2-2-1.1 0-1.9.6-1.9 1.2v.5h-1.6v-1.1c0-1.6 2.2-2.3 3.6-2.3 2.3 0 3.9 1.5 3.9 3.6 0 4.3-6.3 4.4-6.3 7.3 0 .2.1.3.4.3h4.4c.2 0 .4-.1.4-.4v-.8h1.6v1.6c0 .8-.3 1.1-1.1 1.1h-6.4c-1 0-1.2-.4-1.2-1.4 0-4.5 6.4-4.2 6.4-7.6zm4.7 2.9c0-3.6 1.1-6.5 4.4-6.5 3.3 0 4.4 2.9 4.4 6.5s-1.1 6.5-4.4 6.5-4.4-2.9-4.4-6.5zm7 0c0-2.7-.6-4.8-2.6-4.8-2.1 0-2.6 2.1-2.6 4.8 0 2.7.6 4.9 2.6 4.9s2.6-2.2 2.6-4.9zm4.4 4.7h2.7v-8.9s-.1.3-.6.7l-1.2 1.2-1.1-1.1 3-2.9h1.6v11h2.7v1.5h-7.2l.1-1.5zm8.4-2.9l5.6-8.1h2v7.7h1.9v1.5h-1.9v3.3h-1.8v-3.3h-5.8v-1.1zm5.9-4.7c0-.6.1-1.3.1-1.3s-.3.6-.6 1l-2.7 3.8c-.3.4-.7.8-.7.8s.5-.1 1.1-.1h2.9l-.1-4.2zm80.4 0c0-1.2-.9-2-2.2-2-1.1 0-1.9.6-1.9 1.2v.5h-1.6v-1.1c0-1.6 2.2-2.3 3.6-2.3 2.3 0 3.9 1.5 3.9 3.6 0 4.3-6.3 4.4-6.3 7.3 0 .2.1.3.4.3h4.4c.2 0 .4-.1.4-.4v-.8h1.6v1.6c0 .8-.3 1.1-1.1 1.1h-6.4c-1 0-1.2-.4-1.2-1.4.1-4.5 6.4-4.2 6.4-7.6zm4.7 2.9c0-3.6 1.1-6.5 4.4-6.5 3.3 0 4.4 2.9 4.4 6.5s-1.1 6.5-4.4 6.5-4.4-2.9-4.4-6.5zm7.1 0c0-2.7-.6-4.8-2.6-4.8-2.1 0-2.6 2.1-2.6 4.8 0 2.7.6 4.9 2.6 4.9s2.6-2.2 2.6-4.9zm4.3 4.7h2.7v-8.9s-.1.3-.6.7l-1.2 1.2-1.1-1.1 3-2.9h1.6v11h2.7v1.5h-7.3v-1.5h.2zm10.3-1.3s1 1.4 2.9 1.4c1.6 0 2.7-1.1 2.7-2.5 0-1.6-1.3-2.6-3-2.6-1.4 0-2.4.6-2.4.6l-.7-.3.5-5.2c.1-.8.3-1.1 1.1-1.1h4.4c.8 0 1.1.3 1.1 1.1v1.6h-1.6v-.8c0-.3-.1-.4-.4-.4h-2.6c-.2 0-.4.1-.4.4l-.2 2.3c0 .4-.1.7-.1.7s.7-.4 1.6-.4c2.7 0 4.5 1.8 4.5 4.1 0 2.2-1.8 4.1-4.5 4.1-2.6 0-3.9-1.8-3.9-1.8l1-1.2zm84.1-6.3c0-1.2-.9-2-2.2-2-1.1 0-1.9.6-1.9 1.2v.5h-1.7v-1.1c0-1.6 2.2-2.3 3.6-2.3 2.3 0 3.9 1.5 3.9 3.6 0 4.3-6.3 4.4-6.3 7.3 0 .2.1.3.4.3h4.4c.2 0 .4-.1.4-.4v-.8h1.6v1.6c0 .8-.3 1.1-1.1 1.1h-6.4c-1 0-1.2-.4-1.2-1.4.1-4.5 6.5-4.2 6.5-7.6zm4.7 2.9c0-3.6 1.1-6.5 4.4-6.5 3.3 0 4.4 2.9 4.4 6.5s-1.1 6.5-4.4 6.5-4.4-2.9-4.4-6.5zm7 0c0-2.7-.6-4.8-2.6-4.8-2.1 0-2.6 2.1-2.6 4.8 0 2.7.6 4.9 2.6 4.9 2.1 0 2.6-2.2 2.6-4.9zm4.4 4.7h2.7v-8.9s-.1.3-.6.7l-1.2 1.2-1.1-1.1 3-2.9h1.6v11h2.7v1.5h-7.3v-1.5h.2zm8.9-4c0-3.3 1.8-7.2 5.6-7.2 1.5 0 2.4.5 2.4.5l-.6 1.5s-.8-.4-1.8-.4c-2.3 0-3.5 2.1-3.8 4.3.5-.8 1.7-1.2 2.8-1.2 2.4 0 4 1.8 4 4.1 0 2.5-1.7 4.2-4 4.2-2.5 0-4.6-2.3-4.6-5.8zm4.7 4.2c1.5 0 2.3-1.1 2.3-2.6s-1-2.6-2.6-2.6c-1.4 0-2.5.9-2.5 1.8 0 1.5 1.2 3.4 2.8 3.4zm80.7-7.8c0-1.2-.9-2-2.2-2-1.1 0-1.9.6-1.9 1.2v.5h-1.6v-1.1c0-1.6 2.2-2.3 3.6-2.3 2.3 0 3.9 1.5 3.9 3.6 0 4.3-6.3 4.4-6.3 7.3 0 .2.1.3.4.3h4.4c.2 0 .4-.1.4-.4v-.8h1.6v1.6c0 .8-.3 1.1-1.1 1.1h-6.4c-1 0-1.2-.4-1.2-1.4.1-4.5 6.4-4.2 6.4-7.6zm4.7 2.9c0-3.6 1.1-6.5 4.4-6.5 3.3 0 4.4 2.9 4.4 6.5s-1.1 6.5-4.4 6.5-4.4-2.9-4.4-6.5zm7.1 0c0-2.7-.6-4.8-2.6-4.8-2.1 0-2.6 2.1-2.6 4.8 0 2.7.6 4.9 2.6 4.9s2.6-2.2 2.6-4.9zm4.3 4.7h2.7v-8.9s-.1.3-.6.7l-1.2 1.2-1.1-1.1 3-2.9h1.6v11h2.7v1.5h-7.2l.1-1.5zm14.8-8.3c.4-.7.7-1.2.7-1.2s-.3.1-.9.1h-3.8c-.2 0-.4.1-.4.4v.8h-1.6v-1.6c0-.8.3-1.1 1.1-1.1h7.6v1.2l-6.1 11.3h-2l5.4-9.9z"/></svg>