<svg xmlns="http://www.w3.org/2000/svg" viewBox="0 0 848 373"><style>.st0{fill-rule:evenodd;clip-rule:evenodd}.st0,.st1{fill:#8ea52f}.st2,.st3{fill-rule:evenodd;clip-rule:evenodd}.st2{stroke:#8ea52f;stroke-width:2;stroke-linecap:round;stroke-miterlimit:10;stroke-dasharray:0,5;fill:none}.st3{fill:#b4cc6f}.st4{fill:#00295a}.st5{fill:#fff}</style><path class="st0" d="M689.1 49.6l-3.5 11.8 18-12.4-18-12.4 3.5 13zm95.5 70.8l-3.5 11.9 18-12.4-18-12.4 3.5 12.9zm33.9 70.2l-18-12.4 3.5 12.9-3.5 11.9 18-12.4zm-35.3 72l-3.5 11.8 18-12.4-18-12.4 3.5 13zm-98.7 70l-3.5 11.8 18-12.4-18-12.4 3.5 13z"/><path class="st1" d="M153.7 82.9c59.6 0 108.1 48.5 108.1 108.1 0 59.6-48.5 108.1-108.1 108.1-59.6-.1-108.1-48.5-108.1-108.1 0-59.6 48.5-108.1 108.1-108.1m0-34.8c-78.9 0-142.8 64-142.8 142.8 0 78.9 64 142.8 142.8 142.8 78.9 0 142.8-64 142.8-142.8 0-78.8-63.9-142.8-142.8-142.8z"/><path class="st2" d="M586.6 330.5h104.1m28.7-70.8h64m-104.1-70.1h130.8m-96.1-70.7h70.7m-131.4-70.8h37.3m-544.6 282.4h177.5m-84.7-70.8h177.5m-150.8-70.1h177.5m-202.9-70.7h177.5m-271.6-70.8h177.5"/><path class="st3" d="M334.9 310.4h240.3c10.5 0 19 8.5 19 19s-8.5 19-19 19h-240.3c-10.5 0-19-8.5-19-19 0-10.4 8.5-19 19-19zm87.5-67.4h281.6c10.5 0 19 8.5 19 19s-8.5 19-19 19h-281.6c-10.5 0-19-8.5-19-19-.1-10.5 8.5-19 19-19zm38-73.4h204.2c10.5 0 19 8.5 19 19s-8.5 19-19 19h-204.2c-10.5 0-19-8.5-19-19s8.5-19 19-19zm-26-69.4h263.6c10.5 0 19 8.5 19 19s-8.5 19-19 19h-263.6c-10.5 0-19-8.5-19-19-.1-10.5 8.5-19 19-19zm-101.5-72.8h305.7c10.5 0 19 8.5 19 19s-8.5 19-19 19h-305.7c-10.5 0-19-8.5-19-19 0-10.4 8.5-19 19-19z"/><path class="st4" d="M90.6 167h-4c-.4 0-.6.2-.6.6v1.3h-2.5v-2.6c0-1.3.4-1.7 1.7-1.7h13.6c1.3 0 1.7.4 1.7 1.7v2.6h-2.5v-1.3c0-.4-.2-.6-.6-.6h-4v17.4h-2.8v-17.4zm16.1 0h-1.8v-2.4h11.6c1.3 0 1.8.5 1.8 1.8v2.5h-2.6v-1.3c0-.4-.2-.6-.6-.6h-5.6v6.2h6.9v2.4h-6.9v5.8c0 .4.2.6.6.6h5.8c.4 0 .6-.2.6-.6v-1.3h2.6v2.5c0 1.3-.5 1.8-1.8 1.8h-8.8c-1.3 0-1.8-.5-1.8-1.8v-15.6zm16.9 15h1.2c.4 0 .6-.2.6-.6v-16.8h2.6l8.8 12.5c.7 1.1 1.7 2.7 1.7 2.7h.1s-.2-1.6-.2-2.7v-10.7c0-1.3.5-1.8 1.8-1.8h2.8v2.4h-1.2c-.4 0-.6.2-.6.6v16.8h-2.5l-8.8-12.5c-.7-1.1-1.6-2.7-1.6-2.7h-.1s.2 1.6.2 2.7v10.7c0 1.3-.5 1.8-1.8 1.8h-2.8v-2.4zm26.1-15h-1.8v-2.4h8c6 0 10 3.6 10 9.9 0 6.3-4 9.9-10 9.9h-4.4c-1.3 0-1.8-.5-1.8-1.8v-15.6zm3.4 15h2.6c4.4 0 7.3-2.6 7.3-7.5s-2.9-7.5-7.3-7.5h-3.2v14.4c0 .3.2.6.6.6zm19.5-15h-1.8v-2.4h11.6c1.3 0 1.8.5 1.8 1.8v2.5h-2.6v-1.3c0-.4-.2-.6-.6-.6h-5.6v6.2h6.9v2.4h-6.9v5.8c0 .4.2.6.6.6h5.8c.4 0 .6-.2.6-.6v-1.3h2.6v2.5c0 1.3-.5 1.8-1.8 1.8h-8.8c-1.3 0-1.8-.5-1.8-1.8v-15.6zm18.7 0h-1.8v-2.4h8.6c3.5 0 5.9 2.2 5.9 5.8 0 3.3-2.2 4.9-3.6 5.2v.1s.5.3.8.9l2.4 4.7c.3.6.7.6 1.4.6h.4v2.4h-1.4c-1.5 0-2.1-.2-2.7-1.5l-2.7-5.3c-.5-.9-.9-1.1-2-1.1h-2.6v7.9h-2.8v-17.3zm6.5 7.1c2.1 0 3.4-1.4 3.4-3.6s-1.3-3.5-3.3-3.5h-3.7v7.1h3.6zm13.7-7.1h-1.8v-2.4h11.6c1.3 0 1.8.5 1.8 1.8v2.5h-2.6v-1.3c0-.4-.2-.6-.6-.6h-5.6v6.2h6.9v2.4h-6.9v5.8c0 .4.2.6.6.6h5.8c.4 0 .6-.2.6-.6v-1.3h2.6v2.5c0 1.3-.5 1.8-1.8 1.8h-8.8c-1.3 0-1.8-.5-1.8-1.8v-15.6zm-113.4 47.6h.4c.5 0 .8-.1.9-.6l6.2-16.8h2.9l6.2 16.8c.2.5.4.6.9.6h.4v2.4h-1.6c-1.4 0-1.9-.3-2.3-1.6l-1.5-4.1h-7.3l-1.5 4.1c-.5 1.3-.9 1.6-2.3 1.6h-1.5v-2.4zm12-5.6l-2.2-6c-.4-1-.8-2.8-.8-2.8h-.1s-.4 1.7-.8 2.8l-2.2 6h6.1zm20 6.2l9.8-13.7c.8-1.1 1.5-1.8 1.5-1.8v-.1s-.5.1-1.5.1h-6.4c-.4 0-.6.2-.6.6v1.3h-2.6v-2.6c0-1.3.5-1.8 1.8-1.8h12.7v1.8l-9.8 13.8c-.8 1.1-1.5 1.8-1.5 1.8v.1s.5-.1 1.5-.1h7c.4 0 .6-.2.6-.6v-1.3h2.6v2.5c0 1.3-.5 1.8-1.8 1.8h-13.3v-1.8zm21.6-15.5h-1.8v-2.4h11.6c1.3 0 1.8.5 1.8 1.8v2.5h-2.6v-1.3c0-.4-.2-.6-.6-.6h-5.6v6.2h6.9v2.4h-6.9v5.8c0 .4.2.6.6.6h5.8c.4 0 .6-.2.6-.6v-1.3h2.6v2.5c0 1.3-.5 1.8-1.8 1.8h-8.8c-1.3 0-1.8-.5-1.8-1.8v-15.6zm18.7 0h-1.8v-2.4h8.6c3.5 0 5.9 2.2 5.9 5.8 0 3.3-2.2 4.9-3.6 5.2v.1s.5.3.8.9l2.4 4.7c.3.6.7.6 1.4.6h.4v2.4h-1.4c-1.5 0-2.1-.2-2.7-1.5l-2.7-5.3c-.5-.9-.9-1.1-2-1.1h-2.6v7.9h-2.8v-17.3zm6.5 7c2.1 0 3.4-1.4 3.4-3.6s-1.3-3.5-3.3-3.5h-3.7v7.1h3.6zm21.8-9.8c5.7 0 10.2 4.4 10.2 10.1 0 5.8-4.5 10.4-10.2 10.4-5.7 0-10.2-4.5-10.2-10.4 0-5.7 4.5-10.1 10.2-10.1zm0 17.8c4 0 7.3-3.4 7.3-7.7 0-4.2-3.3-7.5-7.3-7.5s-7.2 3.3-7.2 7.5c0 4.4 3.2 7.7 7.2 7.7z"/><path class="st5" d="M333.4 50.6s1.9 2.1 4.4 2.1c1.4 0 2.6-.7 2.6-2.1 0-3.1-8.5-2.8-8.5-8.4 0-2.9 2.5-5.1 6-5.1 2.1 0 5.4 1 5.4 3.6v1.7h-3v-.8c0-.8-1.2-1.4-2.4-1.4-1.5 0-2.6.8-2.6 1.9 0 3.1 8.5 2.5 8.5 8.4 0 2.9-2.2 5.3-6 5.3-4 0-6.2-2.8-6.2-2.8l1.8-2.4zm14.7 2.1h1.8v-12.4h-1.8v-2.8h6.7v2.8h-1.8v12.4h1.8v2.8h-6.7v-2.8zm20.2-15.5c2.3 0 6.8 1 6.8 4v2h-3v-1c0-1.3-2.2-1.9-3.7-1.9-3.2 0-5.8 2.3-5.8 6.1 0 3.5 2.6 6.4 5.9 6.4 3.4 0 5.5-2.4 5.5-2.4l1.8 2.4s-2.6 3.1-7.3 3.1c-5.5 0-9.3-4.1-9.3-9.5 0-5.3 3.9-9.2 9.1-9.2zm12.9 3.6c0-.4-.2-.6-.6-.6h-1.1v-2.8h3.2c1.2 0 1.7.5 1.7 1.7v9.8c0 2.4 1.5 3.7 3.8 3.7s3.8-1.4 3.8-3.8v-9.7c0-1.2.5-1.7 1.7-1.7h3.2v2.8h-1.1c-.4 0-.6.2-.6.6v8.2c0 4-2.8 6.7-7.1 6.7s-7.1-2.7-7.1-6.7v-8.2zm21.5-.5h-1.6v-2.8h8.1c3.3 0 5.6 2 5.6 5.4 0 3.2-2.2 4.6-3 4.7v.1s.6.3.9.9l1.8 3.5c.3.5.7.6 1.3.6h.3v2.8h-1.8c-1.3 0-1.9-.2-2.5-1.3l-2.3-4.5c-.4-.7-.8-.8-1.7-.8h-1.7v6.7h-3.3v-15.3zm6 5.6c1.7 0 2.7-1 2.7-2.8 0-1.8-1-2.8-2.6-2.8h-2.7v5.6h2.6zm12.6-5.6h-1.6v-2.8h10.9c1.2 0 1.7.5 1.7 1.7v2.7h-3v-1.1c0-.4-.2-.6-.6-.6h-4.1v4.8h5.8v2.8h-5.8v4.3c0 .4.2.6.6.6h4.2c.4 0 .6-.2.6-.6v-1.1h3v2.7c0 1.2-.5 1.7-1.7 1.7h-8.3c-1.2 0-1.7-.5-1.7-1.7v-13.4zm15.1 13.1l8.1-11.5c.7-1 1.4-1.6 1.4-1.6v-.1s-.5.1-1.4.1h-4.4c-.4 0-.6.2-.6.6v1.1h-3v-2.7c0-1.2.5-1.7 1.7-1.7h11.8v2.1l-8.1 11.3c-.7 1-1.4 1.6-1.4 1.6v.1s.5-.1 1.4-.1h4.9c.4 0 .6-.2.6-.6v-1h3v2.7c0 1.2-.5 1.7-1.7 1.7h-12.2v-2zm17.5 0l8.1-11.5c.7-1 1.4-1.6 1.4-1.6v-.1s-.5.1-1.4.1h-4.4c-.4 0-.6.2-.6.6v1.1h-3v-2.7c0-1.2.5-1.7 1.7-1.7h11.7v2.1l-8 11.3c-.7 1-1.4 1.6-1.4 1.6v.1s.5-.1 1.4-.1h4.9c.4 0 .6-.2.6-.6v-1h3v2.7c0 1.2-.5 1.7-1.7 1.7h-12.2v-2zm17.3-.7h.4c.4 0 .6-.1.8-.6l5.4-14.6h3.5l5.3 14.6c.2.5.4.6.8.6h.4v2.8h-2c-1.3 0-1.7-.3-2.1-1.5l-1.1-3.1h-6.1l-1.1 3.1c-.4 1.1-.8 1.5-2.1 1.5h-2v-2.8zm10.5-4.6l-1.5-4.5c-.3-1-.7-2.7-.7-2.7h-.1s-.4 1.7-.7 2.7l-1.5 4.5h4.5zm20.4-9.7h1.7l-.9 4.3h-2.2l1.4-4.3zm3.1 0h1.7l-.9 4.3h-2.2l1.4-4.3zm5 7.2c0-4 1.2-7.2 5.1-7.2 3.8 0 5.1 3.2 5.1 7.2s-1.2 7.3-5.1 7.3c-3.8 0-5.1-3.2-5.1-7.3zm7.6 0c0-2.7-.6-4.9-2.5-4.9s-2.5 2.1-2.5 4.9c0 2.8.6 4.9 2.5 4.9 1.9.1 2.5-2.1 2.5-4.9zm7.3-7.2h2.2l-1.5 4.3h-1.7l1-4.3zm3.1 0h2.2l-1.5 4.3h-1.7l1-4.3zm14 6.8c0-.3-.2-.4-.4-.4h-.8v-2.1h2.4c.9 0 1.3.4 1.3 1.3v6.2c0 .3.2.4.4.4h.8v2.1h-2.4c-.9 0-1.3-.4-1.3-1.3v-6.2zm.1-6.6h2.2v2.4h-2.2v-2.4zm7.7 6.6c0-.3-.2-.4-.4-.4h-.8v-2.1h2.3c.9 0 1.3.4 1.3 1.1v.6c.4-.8 1.5-2.1 3.6-2.1 2.2 0 3.5 1.2 3.5 3.8v3.9c0 .3.2.4.4.4h.8v2.1h-2.4c-.9 0-1.3-.4-1.3-1.3v-4.6c0-1.2-.3-2.1-1.6-2.1s-2.3.8-2.7 2.1c-.1.4-.2.9-.2 1.3v4.6h-2.5v-7.3zm19.1-2.8c1.3 0 3.6.5 3.6 2.3v1.2h-2.2v-.6c0-.6-.8-.8-1.4-.8-1.7 0-3 1.3-3 3.1 0 2.1 1.5 3.1 3.1 3.1 1.7 0 3-1.4 3-1.4l1 1.7s-1.5 1.8-4.2 1.8c-3.3 0-5.4-2.3-5.4-5.3 0-2.7 2.1-5.1 5.5-5.1zm8.2 2.8c0-.3-.2-.4-.4-.4h-.8v-2.1h2.4c.9 0 1.3.4 1.3 1.3v6.2c0 .3.2.4.4.4h.8v2.1h-2.4c-.9 0-1.3-.4-1.3-1.3v-6.2zm.1-6.6h2.2v2.4h-2.2v-2.4zm11.2 3.8c2.2 0 2.9 1.2 2.9 1.2v-2.4c0-.3-.2-.4-.4-.4h-.8v-2.1h2.4c.9 0 1.3.4 1.3 1.3v10.1c0 .3.2.4.4.4h.8v2.1h-2.2c-.9 0-1.2-.4-1.2-1v-.4s-.8 1.6-3.1 1.6c-2.7 0-4.5-2.1-4.5-5.3-.1-3.1 1.8-5.1 4.4-5.1zm3 5.2c0-1.6-.8-3.1-2.5-3.1-1.4 0-2.5 1.1-2.5 3.1 0 1.9 1 3.2 2.5 3.2 1.3 0 2.5-1 2.5-3.2zm11.8-5.2c2.9 0 4.5 2.1 4.5 4.8 0 .3-.1.9-.1.9h-6.9c.2 1.8 1.5 2.7 3 2.7 1.6 0 2.8-1.1 2.8-1.1l1 1.7s-1.5 1.5-4 1.5c-3.3 0-5.4-2.4-5.4-5.3 0-3.1 2.1-5.2 5.1-5.2zm1.9 3.9c0-1.2-.9-2-1.9-2-1.3 0-2.2.8-2.5 2h4.4zm7-1.1c0-.3-.2-.4-.4-.4h-.8v-2.1h2.3c.9 0 1.3.4 1.3 1.1v.6c.4-.8 1.5-2.1 3.6-2.1 2.2 0 3.5 1.2 3.5 3.8v3.9c0 .3.2.4.4.4h.8v2.1h-2.4c-.9 0-1.3-.4-1.3-1.3v-4.6c0-1.2-.3-2.1-1.6-2.1s-2.3.8-2.7 2.1c-.1.4-.2.9-.2 1.3v4.6h-2.5v-7.3zm14.7-.6h-1.3v-2h1.4v-2.7h2.4v2.7h2.3v2h-2.3v4.1c0 1.7 1.3 1.9 2 1.9h.5v2.2s-.3.1-.8.1c-1.4 0-4.2-.4-4.2-3.8v-4.5zm9.3.6c0-.3-.2-.4-.4-.4h-.8v-2.1h2.4c.9 0 1.3.4 1.3 1.3v6.2c0 .3.2.4.4.4h.8v2.1h-2.4c-.9 0-1.3-.4-1.3-1.3v-6.2zm.1-6.6h2.2v2.4h-2.2v-2.4zm-200.2 71.3c2.3 0 6.8 1 6.8 4v2h-3v-1c0-1.3-2.2-1.9-3.7-1.9-3.2 0-5.8 2.3-5.8 6.1 0 3.5 2.6 6.4 5.9 6.4 3.4 0 5.5-2.4 5.5-2.4l1.8 2.4s-2.6 3.1-7.3 3.1c-5.5 0-9.3-4.1-9.3-9.5 0-5.2 3.9-9.2 9.1-9.2zm20.6 0c5.3 0 9.3 4 9.3 9.2 0 5.3-4 9.4-9.3 9.4s-9.3-4.1-9.3-9.4c0-5.2 4-9.2 9.3-9.2zm0 15.5c3.2 0 5.9-2.7 5.9-6.3 0-3.5-2.6-6.1-5.9-6.1-3.2 0-5.9 2.6-5.9 6.1 0 3.6 2.7 6.3 5.9 6.3zm13.5 0h1.1c.4 0 .6-.2.6-.6v-14.6h3l6.8 10c.7 1 1.5 2.5 1.5 2.5h.1s-.2-1.5-.2-2.5v-8.2c0-1.2.5-1.7 1.7-1.7h3.2v2.8h-1.1c-.4 0-.6.2-.6.6v14.6h-3l-6.9-9.9c-.7-1-1.5-2.5-1.5-2.5h-.1s.2 1.5.2 2.5v8.2c0 1.2-.5 1.7-1.7 1.7h-3.2v-2.9zm23.9-2s1.9 2.1 4.4 2.1c1.4 0 2.6-.7 2.6-2.1 0-3.1-8.5-2.8-8.5-8.4 0-2.9 2.5-5.1 6-5.1 2.1 0 5.4 1 5.4 3.6v1.7h-3v-.8c0-.8-1.2-1.4-2.4-1.4-1.5 0-2.6.8-2.6 1.9 0 3.1 8.5 2.5 8.5 8.4 0 2.9-2.2 5.3-6 5.3-4 0-6.2-2.8-6.2-2.8l1.8-2.4zm16.3-10.4h-1.6v-2.8h10.9c1.2 0 1.7.5 1.7 1.7v2.7h-3v-1.1c0-.4-.2-.6-.6-.6h-4.1v4.7h5.8v2.8h-5.8v4.3c0 .4.2.6.6.6h4.2c.4 0 .6-.2.6-.6v-1.1h3v2.7c0 1.2-.5 1.7-1.7 1.7h-8.2c-1.2 0-1.7-.5-1.7-1.7v-13.3zm24.6-3.1c4.4 0 6.6 2.3 6.6 2.3l-1.9 2.4s-1.9-1.6-4.6-1.6c-3.1 0-5.8 2.5-5.8 6.1 0 3.9 2.7 6.3 5.9 6.3 2.9 0 4.6-1.9 4.6-1.9v-1.3c0-.4-.2-.6-.6-.6h-1.1v-2.8h2.9c1.2 0 1.7.5 1.7 1.7v7.7h-2.8v-1.7s-1.9 1.9-5.3 1.9c-4.7 0-8.8-3.6-8.8-9.4 0-5.1 4-9.1 9.2-9.1zm12.3 15.5h1.1c.4 0 .6-.2.6-.6v-14.6h3l6.8 10c.7 1 1.5 2.5 1.5 2.5h.1s-.2-1.5-.2-2.5v-8.2c0-1.2.5-1.7 1.7-1.7h3.2v2.8h-1.1c-.4 0-.6.2-.6.6v14.6h-3l-6.9-9.9c-.7-1-1.5-2.5-1.5-2.5h-.1s.2 1.5.2 2.5v8.2c0 1.2-.5 1.7-1.7 1.7h-3.2v-2.9zm23.7-12.4h-1.6v-2.8h10.9c1.2 0 1.7.5 1.7 1.7v2.7h-3v-1.1c0-.4-.2-.6-.6-.6h-4.1v4.7h5.8v2.8h-5.8v4.3c0 .4.2.6.6.6h4.2c.4 0 .6-.2.6-.6v-1.1h3v2.7c0 1.2-.5 1.7-1.7 1.7h-8.2c-1.2 0-1.7-.5-1.7-1.7v-13.3zm26.2-1.8h1.7l-.9 4.3h-2.2l1.4-4.3zm3.2 0h1.7l-.9 4.3h-2.3l1.5-4.3zm5 7.2c0-4 1.2-7.2 5.1-7.2 3.8 0 5.1 3.2 5.1 7.2s-1.2 7.3-5.1 7.3c-3.9-.1-5.1-3.3-5.1-7.3zm7.5 0c0-2.7-.6-4.9-2.5-4.9s-2.5 2.1-2.5 4.9c0 2.8.6 4.9 2.5 4.9s2.5-2.2 2.5-4.9zm7.3-7.3h2.2l-1.5 4.3h-1.7l1-4.3zm3.2 0h2.2l-1.5 4.3h-1.7l1-4.3zm13.8 6.8c0-.3-.2-.4-.4-.4h-.8v-2.1h2.3c.9 0 1.3.4 1.3 1.2v1.2c.5-1.4 1.7-2.6 3.2-2.6h.5v2.5h-.6c-1.1 0-2.3.6-2.7 2.1-.1.5-.2 1-.2 1.6v4h-2.5v-7.5zm10.2 0c0-.3-.2-.4-.4-.4h-.8v-2.1h2.4c.9 0 1.3.4 1.3 1.3v6.2c0 .3.2.4.4.4h.8v2.1h-2.4c-.9 0-1.3-.4-1.3-1.3v-6.2zm.1-6.5h2.2v2.3h-2.2v-2.3zm7.7 5.9h-1.3v-2h1.4v-2.7h2.4v2.7h2.3v2h-2.3v4.1c0 1.7 1.3 1.9 2 1.9h.5v2.2s-.3.1-.8.1c-1.4 0-4.2-.4-4.2-3.8v-4.5zm14.2 1.8h.3v-.1c0-1.4-.6-2-1.9-2-.5 0-1.3.1-1.3.7v.5h-2.3v-1.1c0-1.9 2.6-2.1 3.7-2.1 3.4 0 4.3 1.8 4.3 4v3.7c0 .3.2.4.4.4h.8v2.1h-2.2c-.9 0-1.3-.5-1.3-1.1v-.4s-.8 1.8-3 1.8c-1.8 0-3.4-1.1-3.4-3.1-.1-3.1 4.3-3.3 5.9-3.3zm-1.9 4.6c1.3 0 2.3-1.4 2.3-2.6v-.2h-.4c-1.3 0-3.4.2-3.4 1.6-.1.6.4 1.2 1.5 1.2zm9.9-5.8c0-.3-.2-.4-.4-.4h-.8v-2.1h2.3c.9 0 1.3.4 1.3 1.2v1.2c.5-1.4 1.7-2.6 3.2-2.6h.5v2.5h-.6c-1.1 0-2.3.6-2.7 2.1-.1.5-.2 1-.2 1.6v4h-2.5v-7.5zm13.3-2.8c2.2 0 2.9 1.2 2.9 1.2v-2.3c0-.3-.2-.4-.4-.4h-.8v-2.1h2.4c.9 0 1.3.4 1.3 1.3v10.1c0 .3.2.4.4.4h.8v2.1h-2.3c-.9 0-1.2-.4-1.2-1v-.4s-.8 1.6-3.1 1.6c-2.7 0-4.5-2.1-4.5-5.3 0-3.1 1.9-5.2 4.5-5.2zm3 5.3c0-1.6-.8-3.1-2.5-3.1-1.4 0-2.5 1.1-2.5 3.1 0 1.9 1 3.2 2.5 3.2 1.3-.1 2.5-1 2.5-3.2zm7.8-2.5c0-.3-.2-.4-.4-.4h-.8v-2.1h2.4c.9 0 1.3.4 1.3 1.3v6.2c0 .3.2.4.4.4h.8v2.1h-2.4c-.9 0-1.3-.4-1.3-1.3v-6.2zm.1-6.5h2.2v2.3h-2.2v-2.3zm-239.9 67.5c2.3 0 6.8 1 6.8 4v2h-3v-1c0-1.3-2.2-1.9-3.7-1.9-3.2 0-5.8 2.3-5.8 6.1 0 3.5 2.6 6.4 5.9 6.4 3.4 0 5.5-2.4 5.5-2.4l1.8 2.4s-2.6 3.1-7.3 3.1c-5.5 0-9.3-4.1-9.3-9.5 0-5.2 3.9-9.2 9.1-9.2zm20.6 0c5.3 0 9.3 4 9.3 9.2 0 5.3-4 9.4-9.3 9.4s-9.3-4.1-9.3-9.4c0-5.2 4-9.2 9.3-9.2zm0 15.5c3.2 0 5.9-2.7 5.9-6.3 0-3.5-2.6-6.1-5.9-6.1-3.2 0-5.9 2.6-5.9 6.1 0 3.6 2.6 6.3 5.9 6.3zm15.3-2s1.9 2.1 4.4 2.1c1.4 0 2.6-.7 2.6-2.1 0-3.1-8.5-2.8-8.5-8.4 0-2.9 2.5-5.1 6-5.1 2.1 0 5.4 1 5.4 3.6v1.7h-3v-.8c0-.8-1.2-1.4-2.4-1.4-1.5 0-2.6.8-2.6 1.9 0 3.1 8.5 2.5 8.5 8.4 0 2.9-2.2 5.3-6 5.3-4 0-6.2-2.8-6.2-2.8l1.8-2.4zm20.4-10.4h-2.8c-.4 0-.6.2-.6.6v1.1h-2.9v-2.8c0-1.2.4-1.6 1.6-1.6h12.6c1.2 0 1.6.4 1.6 1.6v2.8h-2.9v-1.1c0-.4-.2-.6-.6-.6h-2.8v15.2h-3.3v-15.2zm13.4 12.4h1.8v-12.4h-1.8v-2.8h6.7v2.8h-1.8v12.4h1.8v2.8h-6.7v-2.8zm21.8-14.2h1.7l-.9 4.3h-2.2l1.4-4.3zm3.2 0h1.7l-.9 4.3h-2.3l1.5-4.3zm5 7.2c0-4 1.2-7.2 5.1-7.2 3.8 0 5.1 3.2 5.1 7.2s-1.2 7.3-5.1 7.3c-3.9-.1-5.1-3.3-5.1-7.3zm7.5 0c0-2.7-.6-4.9-2.5-4.9s-2.5 2.1-2.5 4.9c0 2.8.6 4.9 2.5 4.9s2.5-2.2 2.5-4.9zm7.3-7.3h2.2l-1.5 4.3h-1.7l1-4.3zm3.2 0h2.2l-1.5 4.3h-1.7l1-4.3zm13.9 11.1s1.3 1.5 3 1.5c.8 0 1.4-.3 1.4-1 0-1.4-5.3-1.4-5.3-4.7 0-2 1.8-2.9 3.9-2.9 1.4 0 3.5.5 3.5 2.1v1h-2.2v-.5c0-.5-.7-.7-1.3-.7-.9 0-1.5.3-1.5.9 0 1.6 5.3 1.3 5.3 4.6 0 1.9-1.7 3.1-3.9 3.1-2.8 0-4.2-1.8-4.2-1.8l1.3-1.6zm11.1-4.3c0-.3-.2-.4-.4-.4h-.8v-2.1h2.2c.9 0 1.3.4 1.3 1v.4s.8-1.6 3.2-1.6c2.7 0 4.5 2.2 4.5 5.3 0 3.2-2 5.3-4.6 5.3-2 0-2.9-1.3-2.9-1.3v5.1h-2.5v-11.7zm4.9 5.6c1.4 0 2.5-1.1 2.5-3.1 0-1.9-1-3.2-2.5-3.2-1.3 0-2.5.9-2.5 3.2.1 1.6.9 3.1 2.5 3.1zm9.4-5.6c0-.3-.2-.4-.4-.4h-.8v-2.1h2.3c.9 0 1.3.4 1.3 1.2v1.2c.5-1.4 1.7-2.6 3.2-2.6h.5v2.5h-.6c-1.1 0-2.3.6-2.7 2.1-.1.5-.2 1-.2 1.6v4h-2.5v-7.5zm13.8-2.8c2.9 0 4.5 2.1 4.5 4.8 0 .3-.1.9-.1.9h-7c.2 1.8 1.5 2.7 3 2.7 1.6 0 2.8-1.1 2.8-1.1l1 1.7s-1.5 1.5-4 1.5c-3.3 0-5.4-2.4-5.4-5.3.1-3 2.2-5.2 5.2-5.2zm1.9 4c0-1.2-.9-2-1.9-2-1.3 0-2.2.8-2.5 2h4.4zm11.4-4c1.3 0 3.6.5 3.6 2.3v1.2h-2.2v-.6c0-.6-.8-.8-1.4-.8-1.7 0-3 1.3-3 3.1 0 2.1 1.5 3.1 3.1 3.1 1.7 0 3-1.4 3-1.4l1 1.7s-1.5 1.8-4.2 1.8c-3.3 0-5.4-2.3-5.4-5.3 0-2.7 2.1-5.1 5.5-5.1zm8-1.1c0-.3-.2-.4-.4-.4h-.8v-2.1h2.4c.9 0 1.3.4 1.3 1.3v4.3c.5-1 1.7-2 3.5-2 2.2 0 3.5 1.2 3.5 3.8v3.9c0 .3.2.4.4.4h.8v2.1h-2.4c-.9 0-1.3-.4-1.3-1.3v-4.6c0-1.2-.3-2.1-1.6-2.1s-2.3.9-2.7 2.1c-.1.4-.2.8-.2 1.3v4.6h-2.5v-11.3zm14.8 3.9c0-.3-.2-.4-.4-.4h-.8v-2.1h2.4c.9 0 1.3.4 1.3 1.3v6.2c0 .3.2.4.4.4h.8v2.1h-2.4c-.9 0-1.3-.4-1.3-1.3v-6.2zm.1-6.5h2.2v2.3h-2.2v-2.3zm-248 87.3h.4c.4 0 .6-.1.8-.6l5.4-14.6h3.5l5.3 14.6c.2.5.4.6.8.6h.4v2.8h-2c-1.3 0-1.7-.3-2.1-1.5l-1.1-3.1h-6.2l-1.1 3.1c-.4 1.1-.8 1.5-2.1 1.5h-2v-2.8zm10.5-4.6l-1.5-4.5c-.3-1-.7-2.7-.7-2.7h-.1s-.4 1.7-.7 2.7l-1.5 4.5h4.5zm9.3 4.6h.8c.4 0 .5-.2.6-.6l1.2-14.6h3.5l3.7 8.6c.4 1 .9 2.4.9 2.4h.1s.5-1.4.9-2.4l3.7-8.6h3.5l1.2 14.6c0 .4.2.6.6.6h.8v2.8h-2.9c-1.2 0-1.6-.5-1.7-1.7l-.6-8c-.1-1.2 0-2.8 0-2.8h-.1s-.5 1.8-1 2.8l-3 6.6h-2.7l-3-6.6c-.5-1-1-2.8-1-2.8h-.1s.1 1.6 0 2.8l-.6 8c-.1 1.2-.5 1.7-1.7 1.7h-2.9v-2.8zm26.6-12.4h-1.6v-2.8h7.8c3.2 0 5.6 1.7 5.6 4.6 0 2-1.1 3.3-2.2 3.9v.1c2 .6 2.9 2.4 2.9 4.2 0 3.6-2.9 5.2-6.2 5.2h-4.5c-1.2 0-1.7-.5-1.7-1.7v-13.5zm6.2 4.5c1.4 0 2.2-1 2.2-2.3 0-1.3-.8-2.2-2.2-2.2h-2.8v4.5h2.8zm-2.3 7.9h2.6c1.6 0 2.5-1.1 2.5-2.6s-.9-2.6-2.5-2.6h-3.1v4.6c0 .4.2.6.5.6zm13.1 0h1.8v-12.4h-1.8v-2.8h6.7v2.8h-1.8v12.4h1.8v2.8h-6.7v-2.8zm12.8-12.4h-1.6v-2.8h10.9c1.2 0 1.7.5 1.7 1.7v2.7h-3v-1.1c0-.4-.2-.6-.6-.6h-4.1v4.7h5.8v2.8h-5.8v4.3c0 .4.2.6.6.6h4.2c.4 0 .6-.2.6-.6v-1h3v2.7c0 1.2-.5 1.7-1.7 1.7h-8.2c-1.2 0-1.7-.5-1.7-1.7v-13.4zm15.5 12.4h1.1c.4 0 .6-.2.6-.6v-14.6h3l6.8 10c.7 1 1.5 2.5 1.5 2.5h.1s-.2-1.5-.2-2.5v-8.2c0-1.2.5-1.7 1.7-1.7h3.2v2.8h-1.1c-.4 0-.6.2-.6.6v14.6h-3l-6.9-9.9c-.7-1-1.5-2.5-1.5-2.5h-.1s.2 1.5.2 2.5v8.2c0 1.2-.5 1.7-1.7 1.7h-3.2v-2.9zm27.8-12.4h-2.8c-.4 0-.6.2-.6.6v1.1h-2.9v-2.8c0-1.2.4-1.6 1.6-1.6h12.6c1.2 0 1.6.4 1.6 1.6v2.8h-2.8v-1.1c0-.4-.2-.6-.6-.6h-2.8v15.2h-3.3v-15.2zm15 0h-1.6v-2.8h10.9c1.2 0 1.7.5 1.7 1.7v2.7h-3v-1.1c0-.4-.2-.6-.6-.6h-4.1v4.7h5.8v2.8h-5.8v4.3c0 .4.2.6.6.6h4.2c.4 0 .6-.2.6-.6v-1h3v2.7c0 1.2-.5 1.7-1.7 1.7h-8.2c-1.2 0-1.7-.5-1.7-1.7v-13.4zm26.3-1.9h1.7l-.9 4.3h-2.2l1.4-4.3zm3.1 0h1.7l-.9 4.3h-2.2l1.4-4.3zm5 7.3c0-4 1.2-7.2 5.1-7.2 3.8 0 5.1 3.2 5.1 7.2s-1.2 7.3-5.1 7.3c-3.8-.1-5.1-3.3-5.1-7.3zm7.6 0c0-2.7-.6-4.9-2.5-4.9s-2.5 2.1-2.5 4.9c0 2.8.6 4.9 2.5 4.9s2.5-2.2 2.5-4.9zm7.3-7.3h2.2l-1.5 4.3h-1.7l1-4.3zm3.1 0h2.2l-1.5 4.3h-1.7l1-4.3zm14 6.8c0-.3-.2-.4-.4-.4h-.8v-2.1h2.4c.9 0 1.3.4 1.3 1.3v6.2c0 .3.2.4.4.4h.8v2.1h-2.4c-.9 0-1.3-.4-1.3-1.3v-6.2zm.1-6.5h2.2v2.3h-2.2v-2.3zm7.7 6.5c0-.3-.2-.4-.4-.4h-.8v-2.1h2.3c.9 0 1.3.4 1.3 1.1v.7c.5-1 1.7-2.1 3.3-2.1 1.5 0 2.5.7 2.9 2.1.5-1.1 1.8-2.1 3.4-2.1 2.1 0 3.3 1.2 3.3 3.8v3.9c0 .3.2.4.4.4h.8v2.1h-2.4c-.9 0-1.3-.4-1.3-1.3v-4.7c0-1.1-.2-2-1.4-2s-2.1 1-2.4 2.3c-.1.4-.2.8-.2 1.3v4.4h-2.5v-6c0-1.1-.2-2-1.4-2-1.3 0-2.1 1-2.4 2.3-.1.4-.2.8-.2 1.3v4.4h-2.5v-7.4zm20.5 0c0-.3-.2-.4-.4-.4h-.8v-2.1h2.2c.9 0 1.3.4 1.3 1v.4s.8-1.6 3.2-1.6c2.7 0 4.5 2.2 4.5 5.3 0 3.2-2 5.3-4.6 5.3-2 0-2.9-1.3-2.9-1.3v5.1h-2.5v-11.7zm4.9 5.6c1.4 0 2.5-1.1 2.5-3.1 0-1.9-1-3.2-2.5-3.2-1.3 0-2.5.9-2.5 3.2.1 1.6.9 3.1 2.5 3.1zm14.2-4.4h.3v-.1c0-1.4-.6-2-1.9-2-.5 0-1.3.1-1.3.7v.5h-2.3v-1.1c0-1.9 2.6-2.1 3.7-2.1 3.4 0 4.3 1.8 4.3 4v3.7c0 .3.2.4.4.4h.8v2.1h-2.2c-.9 0-1.3-.5-1.3-1.1v-.4s-.8 1.8-3 1.8c-1.8 0-3.4-1.1-3.4-3.1 0-3.1 4.3-3.3 5.9-3.3zm-1.9 4.6c1.3 0 2.3-1.4 2.3-2.6v-.2h-.4c-1.3 0-3.4.2-3.4 1.6 0 .5.5 1.2 1.5 1.2zm10-6.4h-1.3v-2h1.4v-2.7h2.4v2.7h2.3v2h-2.3v4.1c0 1.7 1.3 1.9 2 1.9h.5v2.2s-.3.1-.8.1c-1.4 0-4.2-.4-4.2-3.8v-4.5zm9.3 0h-1.3v-2h1.4v-2.7h2.4v2.7h2.3v2h-2.3v4.1c0 1.7 1.3 1.9 2 1.9h.5v2.2s-.3.1-.8.1c-1.4 0-4.2-.4-4.2-3.8v-4.5zm13.6-2.2c3.1 0 5.5 2.2 5.5 5.3 0 3.1-2.4 5.3-5.5 5.3s-5.5-2.2-5.5-5.3c0-3.1 2.4-5.3 5.5-5.3zm0 8.4c1.6 0 3-1.3 3-3.1 0-1.9-1.4-3.1-3-3.1s-3 1.3-3 3.1 1.3 3.1 3 3.1zm-357.8 56.4c5.3 0 9.3 4 9.3 9.2 0 2.1-.8 4.1-2 5.7l2 1.8-2 2.2-2-1.9c-1.5 1.2-3.4 1.7-5.4 1.7-5.3 0-9.3-4.2-9.3-9.4.1-5.2 4.1-9.3 9.4-9.3zm0 15.6c1.9 0 3-.9 3-.9l-1.8-1.7 2-2.2 1.8 1.8c.6-1 1-2.2 1-3.4 0-3.5-2.6-6.1-5.9-6.1-3.2 0-5.8 2.6-5.8 6.1-.1 3.6 2.4 6.4 5.7 6.4zm14.9-11.9c0-.4-.2-.6-.6-.6h-1.1v-2.8h3.2c1.2 0 1.7.5 1.7 1.7v9.8c0 2.4 1.5 3.7 3.8 3.7s3.8-1.4 3.8-3.8v-9.7c0-1.2.5-1.7 1.7-1.7h3.2v2.8h-1.1c-.4 0-.6.2-.6.6v8.2c0 4-2.8 6.7-7.1 6.7s-7.1-2.7-7.1-6.7v-8.2zm18.8 11.8h.4c.4 0 .6-.1.8-.6l5.4-14.6h3.5l5.3 14.6c.2.5.4.6.8.6h.4v2.8h-2c-1.3 0-1.7-.3-2.1-1.5l-1.1-3.1h-6.1l-1.1 3.1c-.4 1.1-.8 1.5-2.1 1.5h-2v-2.8zm10.6-4.5l-1.5-4.5c-.3-1-.7-2.7-.7-2.7h-.1s-.4 1.7-.7 2.7l-1.5 4.5h4.5zm11.3-7.3c0-.4-.2-.6-.6-.6h-1.1v-2.8h3.2c1.2 0 1.7.5 1.7 1.7v12.9c0 .4.2.6.6.6h3.9c.4 0 .6-.2.6-.6v-1.1h3v2.7c0 1.2-.5 1.7-1.7 1.7h-7.9c-1.2 0-1.7-.5-1.7-1.7v-12.8zm15.1 11.8h1.8v-12.4h-1.8v-2.8h6.7v2.8h-1.7v12.4h1.8v2.8h-6.8v-2.8zm16.9-12.4h-2.8c-.4 0-.6.2-.6.6v1.1h-2.9v-2.8c0-1.2.4-1.6 1.6-1.6h12.6c1.2 0 1.6.4 1.6 1.6v2.8h-2.9v-1.1c0-.4-.2-.6-.6-.6h-2.8v15.2h-3.3v-15.2zm10.6 12.4h.4c.4 0 .6-.1.8-.6l5.4-14.6h3.5l5.3 14.6c.2.5.4.6.8.6h.4v2.8h-2c-1.3 0-1.7-.3-2.1-1.5l-1.1-3.1h-6.1l-1.1 3.1c-.4 1.1-.8 1.5-2.1 1.5h-2v-2.8zm4.3-19.8h3.1l1.9 3.5h-2.4l-2.6-3.5zm6.2 15.3l-1.5-4.5c-.3-1-.7-2.7-.7-2.7h-.1s-.4 1.7-.7 2.7l-1.5 4.5h4.5zm20.4-9.7h1.7l-.9 4.3h-2.2l1.4-4.3zm3.1 0h1.7l-.9 4.3h-2.2l1.4-4.3zm5 7.2c0-4 1.2-7.2 5.1-7.2s5.1 3.2 5.1 7.2-1.2 7.3-5.1 7.3-5.1-3.3-5.1-7.3zm7.5 0c0-2.7-.6-4.9-2.5-4.9s-2.5 2.1-2.5 4.9c0 2.8.6 4.9 2.5 4.9s2.5-2.1 2.5-4.9zm7.3-7.2h2.2l-1.5 4.3h-1.7l1-4.3zm3.2 0h2.2l-1.5 4.3h-1.7l1-4.3zm17.4 3.9c2.2 0 2.9 1.2 2.9 1.2v-2.4c0-.3-.2-.4-.4-.4h-.8v-2.1h2.4c.9 0 1.3.4 1.3 1.3v10.1c0 .3.2.4.4.4h.8v2.1h-2.3c-.9 0-1.2-.4-1.2-1v-.4s-.8 1.6-3.1 1.6c-2.7 0-4.5-2.1-4.5-5.3 0-3 1.9-5.1 4.5-5.1zm3 5.3c0-1.6-.8-3.1-2.5-3.1-1.4 0-2.5 1.1-2.5 3.1 0 1.9 1 3.2 2.5 3.2 1.3-.1 2.5-1 2.5-3.2zm7.8-2.5c0-.3-.2-.4-.4-.4h-.8v-2.1h2.4c.9 0 1.3.4 1.3 1.3v6.2c0 .3.2.4.4.4h.8v2.1h-2.4c-.9 0-1.3-.4-1.3-1.3v-6.2zm.1-6.5h2.2v2.3h-2.2v-2.3zm7.7 6h-1.2v-2h1.2v-.3c0-3.3 2.7-3.7 4.1-3.7.5 0 .8.1.8.1v2.1h-.5c-.7 0-1.9.2-1.9 1.6v.2h2.2v2h-2.2v8.1h-2.5v-8.1zm12.4-2.3c2.9 0 4.5 2.1 4.5 4.8 0 .3-.1.9-.1.9h-6.9c.2 1.8 1.5 2.7 3 2.7 1.6 0 2.8-1.1 2.8-1.1l1 1.7s-1.5 1.5-4 1.5c-3.3 0-5.4-2.4-5.4-5.3 0-3 2.1-5.2 5.1-5.2zm1.9 4c0-1.2-.9-2-1.9-2-1.3 0-2.2.8-2.5 2h4.4zm7-1.7h-1.3v-2h1.4v-2.7h2.4v2.7h2.3v2h-2.3v4.1c0 1.7 1.3 1.9 2 1.9h.5v2.2s-.3.1-.8.1c-1.4 0-4.2-.4-4.2-3.8v-4.5zm9.3 0h-1.3v-2h1.4v-2.7h2.4v2.7h2.3v2h-2.3v4.1c0 1.7 1.3 1.9 2 1.9h.5v2.2s-.3.1-.8.1c-1.4 0-4.2-.4-4.2-3.8v-4.5zm9.3.5c0-.3-.2-.4-.4-.4h-.8v-2.1h2.4c.9 0 1.3.4 1.3 1.3v6.2c0 .3.2.4.4.4h.8v2.1h-2.4c-.9 0-1.3-.4-1.3-1.3v-6.2zm.1-6.5h2.2v2.3h-2.2v-2.3z"/></svg>