<svg id="Livello_1" xmlns="http://www.w3.org/2000/svg" xmlns:xlink="http://www.w3.org/1999/xlink" viewBox="0 0 1163 504" enable-background="new 0 0 1163 504"><style>.st0{filter:url(#Adobe_OpacityMaskFilter)}.st1{fill:url(#SVGID_2_)}.st2{fill:url(#SVGID_3_)}.st3{opacity:.1;mask:url(#SVGID_1_)}.st4,.st5{fill:none;stroke:#404040;stroke-width:1.2795;stroke-miterlimit:10}.st5{stroke-dasharray:3.3312,3.3312}.st6{fill:#404040}.st10{fill:none;stroke:#000;stroke-miterlimit:10}.st7{stroke-width:.853}.st7,.st8,.st9{fill:none;stroke:#000;stroke-miterlimit:10}.st8{stroke-width:.9789}.st10,.st9{stroke-width:1.2795}.st10{stroke-dasharray:3.3404,3.3404}.st11{fill:#868686}.st12{fill:#9e9e9e}.st13{stroke:#cecece}.st13,.st14,.st15,.st16,.st17,.st18{fill:none;stroke-miterlimit:10}.st14{stroke:#a2a2a2}.st15{stroke:#dbdbdb}.st16{stroke:#d2d2d2}.st17{stroke:#cdcdcd}.st18{stroke:#000;stroke-width:.738}.st19{fill:#666}.st20{fill:#4f4f4f}.st21{fill:#7b7b7b}.st22{fill-rule:evenodd;clip-rule:evenodd;fill:#777}.st23{fill:#a2a2a2}.st24{fill:#cdcdcd}.st25{fill:#dbdbdb}.st26{fill:#cecece}.st27{fill:#d2d2d2}.st28{fill:#fff}.st29{fill:none;stroke:#ededed;stroke-width:.853;stroke-miterlimit:10}.st30{fill:#ebebeb}.st31{clip-path:url(#SVGID_5_)}.st32,.st33{fill:none;stroke:#636362;stroke-width:1.2795;stroke-miterlimit:10}.st33{stroke-dasharray:3.3312,3.3312}.st34{fill:#636362}.st35{fill:#12100b}.st36{stroke:#1d1d1b;stroke-width:.853}.st36,.st37,.st38,.st39{fill:none;stroke-miterlimit:10}.st37{stroke:#12100b;stroke-width:.9789}.st38,.st39{stroke:#1d1d1b;stroke-width:1.2795}.st39{stroke-dasharray:3.3404,3.3404}.st40{fill:#171513}.st41{fill:#00295a}.st42{fill:#ee7900}.st43{fill:#009c3d}.st44{stroke:#f6cb37}.st44,.st45,.st46,.st47,.st48,.st49{fill:none;stroke-miterlimit:10}.st45{stroke:#ac9ead}.st46{stroke:#82c3e3}.st47{stroke:#b4cc6f}.st48{stroke:#d9c086}.st49{stroke:#1d1d1b;stroke-width:.738}.st50{fill:#e40077}.st51{fill:#e30520}.st52{fill:#00883d}.st53{fill-rule:evenodd;clip-rule:evenodd;fill:#ea6508}.st54{fill:#ac9ead}.st55{fill:#d9c086}.st56{fill:#82c3e3}.st57{fill:#f6cb37}.st58{fill:#b4cc6f}.st59{fill:none;stroke:#ececec;stroke-width:.853;stroke-miterlimit:10}.st60{fill:#ebeae9}.st61{fill:#df0514}.st62{fill:#a1b64b}</style><defs><filter id="Adobe_OpacityMaskFilter" filterUnits="userSpaceOnUse" x="22.1" y="24" width="444.1" height="461.9"><feColorMatrix values="1 0 0 0 0 0 1 0 0 0 0 0 1 0 0 0 0 0 1 0"/></filter></defs><mask maskUnits="userSpaceOnUse" x="22.1" y="24" width="444.1" height="461.9" id="SVGID_1_"><g class="st0"><radialGradient id="SVGID_2_" cx="227.334" cy="194.378" r="220.333" gradientTransform="matrix(1.0847 0 0 1.0955 -9.401 38.364)" gradientUnits="userSpaceOnUse"><stop offset="0" stop-color="#fff"/><stop offset="1"/></radialGradient><path class="st1" d="M-1.8 9.9h478v482.8h-478z"/><radialGradient id="SVGID_3_" cx="227.334" cy="194.378" r="220.333" gradientTransform="matrix(1.0847 0 0 1.0955 -9.401 38.364)" gradientUnits="userSpaceOnUse"><stop offset="0" stop-color="#fff"/><stop offset="1"/></radialGradient><path class="st2" d="M-1.8 9.9h478v482.8h-478z"/></g></mask><g class="st3"><path class="st4" d="M446.6 377c-.3.5-.6.9-.9 1.4"/><path class="st5" d="M443.9 381.2c-57.4 88.2-170.2 127.9-272.7 89.3C52.8 425.9-7.1 293.8 37.5 175.3 77.4 69.2 187.6 10.1 295.2 31"/><path class="st4" d="M296.8 31.3c.5.1 1.1.2 1.6.3"/><circle class="st6" cx="446.6" cy="377" r="7"/><path class="st6" d="M300.6 32l-.8-8 11.3 9.8-13.8 5.5z"/><path d="M251.3 47c114.7 0 208.1 92.4 209.2 207.3 1.1 115.6-91.7 210.1-207.3 211.2h-2c-114.7 0-208.1-92.4-209.2-207.3C40.9 142.6 133.7 48.1 249.3 47h2m0-.8h-2c-28.4.3-55.8 6.1-81.6 17.3-24.9 10.8-47.2 26.2-66.4 45.7s-34 42.1-44.4 67.2c-10.7 26-16 53.6-15.7 81.9.3 28.2 6 55.5 17.1 81.2 10.7 24.8 25.9 47 45.2 66.1 19.3 19.1 41.7 34.1 66.6 44.5 25.8 10.8 53.1 16.3 81.2 16.3h2c28.4-.3 55.8-6.1 81.6-17.3 24.9-10.8 47.2-26.2 66.4-45.7 19.1-19.5 34-42.1 44.4-67.2 10.7-26 16-53.6 15.7-81.9-.3-28.2-6-55.5-17.1-81.2-10.7-24.8-25.9-47-45.2-66.1-19.3-19.1-41.7-34.1-66.6-44.5-25.8-10.9-53.1-16.3-81.2-16.3z"/><path class="st7" d="M155.5 225.4l208.2 67.1M261.2 142.1L241 373.5m-50.1-197.7l131.2 175m-2.9-191l-128.8 197m144.8-182.4l-168.3 164m71-180.9l29 214.8"/><path class="st8" d="M357 204.3l-211.8 104m222.2-70.1l-230 35.8"/><path class="st9" d="M261.7 138c.6.1 1.1.1 1.7.2"/><path class="st10" d="M266.7 138.6c52.7 7.2 95.7 49.5 101.4 104.8 6.7 64.8-40.4 122.8-105.2 129.4-57.5 5.9-109.6-30.5-125.3-84"/><path class="st9" d="M137.1 287.2c-.1-.5-.3-1.1-.4-1.6"/><circle cx="261.7" cy="138" r="6.1"/><path d="M136.4 284.6l-5.7 3.6 3.1-12.1 9.3 8.4zm114.8-113.3c22.5 0 43.7 8.7 59.7 24.6 16 15.9 25 37 25.2 59.6.4 46.8-37.3 85.3-84.1 85.7h-.8c-22.5 0-43.7-8.7-59.7-24.6-16-15.9-25-37-25.2-59.6-.4-46.8 37.3-85.3 84.1-85.7h.8m0-8h-.9c-51.3.5-92.5 42.5-92.1 93.8.5 51 42 92.1 92.9 92.1h.9c51.3-.5 92.5-42.5 92.1-93.8-.4-51.1-41.9-92.1-92.9-92.1z"/><path class="st11" d="M251.2 163.7c24.5 0 47.7 9.5 65.1 26.8 17.5 17.3 27.2 40.3 27.4 64.9.5 51-40.7 93-91.7 93.4h-.9c-24.5 0-47.7-9.5-65.1-26.8-17.5-17.3-27.2-40.3-27.4-64.9-.2-24.7 9.2-48.1 26.5-65.7s40.5-27.5 65.2-27.7h.9m0-8h-1c-55.5.5-100.1 46-99.6 101.5.5 55.2 45.4 99.6 100.5 99.6h1c55.5-.5 100.1-46 99.6-101.5-.4-55.2-45.4-99.6-100.5-99.6z"/><path class="st12" d="M251.2 156.6c26.4 0 51.3 10.2 70.1 28.8 18.8 18.6 29.3 43.4 29.5 69.8.3 26.6-9.9 51.7-28.5 70.7s-43.6 29.6-70.2 29.8h-1c-26.4 0-51.3-10.2-70.1-28.8-18.8-18.6-29.3-43.4-29.5-69.8-.5-54.9 43.7-100 98.7-100.5h1m0-8h-1c-59.4.6-107.1 49.2-106.6 108.6.6 59.1 48.6 106.6 107.6 106.6h1c59.4-.6 107.1-49.2 106.6-108.6-.5-59.1-48.6-106.6-107.6-106.6z"/><path class="st13" d="M112.8 357.3c-14.1-19.4-24.1-41.5-29.2-65-6.2-28.8-5.1-59.5 4.7-89.5 5.9-18.1 14.6-34.5 25.4-49"/><path class="st14" d="M305.8 418.7c-33.8 11.4-71.5 12.4-108 .4-35.5-11.6-64.6-33.7-85-61.8"/><path class="st15" d="M422.6 256.7c-.1 17.6-2.8 35.4-8.6 53-17.5 53.4-58.8 92.4-108.2 109"/><path class="st16" d="M389.6 155.2c21.2 29.1 33.1 64.7 33 101.5M303.8 93.1c.3.1.5.2.8.3 35.5 11.6 64.6 33.7 85 61.8"/><path class="st17" d="M113.8 153.8c42.6-57.2 118.5-83.8 190-60.7"/><path class="st7" d="M78.8 127.7L308.9 299M77.4 383.2L425 129.3M184 460.7l72.5-220.5"/><path class="st18" d="M67.4 255.8l290.8 1.2"/><path class="st7" d="M184.1 206.5L400.7 367M194 85.7l114.5 341.1"/><path class="st19" d="M107.4 208c1.5-1.6 3.9-3.3 4-5.5.1-3.1-2.6-7.1-2.8-8.4 0 0 .3-.6.6.1 2.3 5 7.4 7.3 11 6.7 0 0 .6 1.3.7 1.7.9 1 6.6 2.2 8.4 2.3 0 0 .5.5-.1.5-3.3.2-6.3-.2-7.6-.5-.5-.1-.6.1-.2.4 1.4 1.1 3.5 2.2 7.3 3.7 0 0 .4.6-.3.5-3.9-.7-15.2-5.5-15.4-5.3-1.8 1.8-4.2 3.5-5.5 3.9 0 .2-.1-.1-.1-.1z" id="XMLID_390_"/><path class="st19" d="M105.2 217.4c.2-.3.3-.7.2-1-.1-.5-.5-1.1-1.1-1.4-.6-.4-1.2-.5-1.7-.4-.4.1-.7.3-.9.6-.2.3-.3.7-.2 1 .1.5.5 1.1 1.1 1.4.6.4 1.2.5 1.7.4.4-.1.7-.3.9-.6z" id="XMLID_386_"/><path class="st19" d="M109.2 200.6c-.6 0-1.1.1-1.5.5-.3.2-.4.5-.4.8 0 .3.1.6.3.9.3.4.9.6 1.5.6 1 .1 1.9-.5 1.9-1.3 0-.7-.8-1.4-1.8-1.5z" id="XMLID_382_"/><path class="st19" d="M114 210.5c.1-.2 0-.5-.1-.7-.2-.4-.7-.7-1.2-.9-.9-.3-1.8 0-2 .6-.1.2 0 .5.1.7.2.4.7.7 1.2.9.9.3 1.8 0 2-.6z" id="XMLID_378_"/><path class="st19" d="M125.3 216.4c-3.3-1.7-4.7-2.8-5.1-3.2.9.2 4.1.6 5.3.5.7-.1.4-.6.4-.6-9.9-2.2-10.4-5-11.5-7.8-.1-.3-.4-.2-.4-.2-.1.5.3 2.6.3 2.9 1.1 5-2.4 6.2-3 6.6 0 0-.1.3.4.3.6-.1 2.6-.8 4-2 1.9 1.4 7.4 3.5 9.3 4 .6.1.3-.5.3-.5z" id="XMLID_374_"/><path class="st19" d="M103.8 228.8c2.3-2.1 4.5-6.7 5.2-8.8 5.9 2.8 13 4.9 16.6 5.2 1 .1.5-.7.5-.7-3.6-1-8.9-3.5-9.7-4.9 2 .2 7.2.3 10.9-.8.8-.2.4-.7.4-.7-16.1-.4-19.6-3.7-23.2-7.1-1.2-1.1-2.3-2.2-4-3.3-.8-.5-.7.4-.7.4 5.7 4.8 9.3 10.6 3.2 20.6.1.1.3.6.8.1z" id="XMLID_370_"/><path class="st19" d="M341.8 380.9c-2.2.3-5.1.3-6.5 2-1.9 2.4-2.1 7.2-2.8 8.4 0 0-.6.3-.4-.4 1.1-5.4-1.6-10.3-4.9-11.9 0 0 .3-1.4.4-1.8-.1-1.4-4-5.7-5.4-6.9 0 0-.1-.7.4-.4 2.8 1.8 5 3.9 5.9 4.9.3.4.5.3.4-.3-.4-1.7-1.5-3.9-3.7-7.4 0 0 0-.7.5-.2 2.8 2.9 9 13.4 9.3 13.4 2.6-.4 5.5-.3 6.7.1.2.1.1.5.1.5z" id="XMLID_366_"/><path class="st19" d="M349.2 374.5c-.3.1-.6.4-.8.7-.2.5-.2 1.2 0 1.8.2.6.7 1.1 1.2 1.3.4.2.7.2 1.1.1.3-.1.6-.4.8-.7.2-.5.2-1.2 0-1.8-.2-.6-.7-1.1-1.2-1.3-.4-.2-.8-.2-1.1-.1z" id="XMLID_362_"/><path class="st19" d="M336.1 385.7c.4.4 1 .6 1.5.5.4 0 .6-.2.8-.4.2-.2.3-.6.2-.9-.1-.5-.3-1-.8-1.4-.8-.7-1.8-.7-2.3-.1-.5.7-.2 1.7.6 2.3z" id="XMLID_358_"/><path class="st19" d="M338.1 374.9c-.2.1-.3.4-.3.6-.1.4.1 1 .5 1.4.6.7 1.5 1 2 .6.2-.1.3-.4.3-.6.1-.4-.1-1-.5-1.4-.6-.7-1.5-1-2-.6z" id="XMLID_354_"/><path class="st19" d="M332.4 363.5c1.6 3.3 2.1 5.1 2.2 5.6-.6-.7-3-3-3.9-3.5-.6-.4-.7.2-.7.2 6.6 7.6 5.4 10.2 4.6 13.1-.1.4.2.4.2.4.4-.3 1.3-2.3 1.4-2.5 2.1-4.7 5.6-3.5 6.3-3.6 0 0 .2-.2-.1-.4-.6-.3-2.6-.9-4.5-.8-.7-2.3-3.9-7.2-5.1-8.7-.3-.5-.4.2-.4.2z" id="XMLID_350_"/><path class="st19" d="M357.1 366.2c-3.1.4-7.6 2.8-9.4 4-3.1-5.8-7.5-11.7-10.3-14-.7-.6-.8.2-.8.2 2.3 2.9 5.1 8.1 4.9 9.7-1.5-1.4-5.6-4.5-9.3-5.8-.8-.3-.7.3-.7.3 12.7 9.9 13.6 14.6 14.5 19.5.3 1.6.6 3.1 1.3 5 .3.9.8.1.8.1-1.7-7.3-1.2-14.1 9.7-18.5-.1 0-.1-.6-.7-.5z" id="XMLID_346_"/><path class="st20" d="M339.6 123.4l-3.1 9.6h-10.1l8.2 6-3.1 9.6 8.2-5.9 8.2 6-3.1-9.6 8.2-5.9h-10.1l-3.3-9.8zm10.7 10.5l-6.6 4.8 2.5 7.8-6.6-4.8-6.6 4.8 2.6-7.8-6.6-4.8h8.2l2.5-7.8 2.5 7.8h8.1z"/><path class="st20" d="M334.2 144.7l5.3-3.9 5.4 4-2-6.4 5.3-3.8-6.6-.1-2-6.2h-.1l-2 6.2h-6.7l5.4 3.9-2 6.3zm-83.5 238.7l-3.1 9.6h-10.1l8.2 6-3.1 9.6 8.2-5.9 8.2 6-3.1-9.6 8.2-5.9H254l-3.3-9.8zm10.7 10.4l-6.6 4.8 2.5 7.8-6.6-4.8-6.6 4.8 2.6-7.8-6.6-4.8h8.2l2.5-7.8 2.5 7.8h8.1z"/><path class="st20" d="M245.3 404.6l5.4-3.8 5.4 3.9-2.1-6.3 5.4-3.9h-6.6l-2.1-6.3-2 6.2H242l5.4 3.9-2.1 6.3z"/><path class="st21" d="M121.5 282.9l-5.4 7.2c-3.7 4.9-7.7 10.3-11.5 15.2l27.7 7.3-.1-.2c-.6-1.9-1.3-3.8-2-5.6l-.1-.3-14.5-4c-1-.3-1.2-.8-.6-1.7l9-12s-.2-.6-.5-1.6c-.1-.3-.2-.6-.3-1-.4-1.2-.9-2.5-1.3-3.8-.2.2-.3.4-.4.5zM111 300.1l.3.8.1.3c-.2.2-.8 1.1-1 1.4-.4.6-.2 1.1.5 1.3.4.1 1.2.3 1.7.4 0 0 0 .1.1.4.2.5.4 1.1.6 1.7-2.3-.6-4.4-1.2-6.7-1.8l4.1-5.3c0-.1.3.8.3.8zm263.3 12.1c2.9-.8 5.8-1.7 8.7-2.5 5.9-1.7 12.4-3.5 18.3-5.2L383.5 282s0 .2-.1.2l-1.8 5.7-.1.3 9.2 11.9c.7.9.5 1.4-.5 1.7-4.3 1.3-10.1 2.9-14.4 4.2 0 0-.2.6-.5 1.6-.1.3-.2.6-.3 1-.4 1.2-.8 2.5-1.2 3.8.2-.1.3-.1.5-.2zm18.8-7.4l.3-.8.1-.3c.3-.1 1.3-.4 1.6-.5.7-.3.8-.8.4-1.3-.3-.4-.8-1-1.1-1.4 0 0 0-.1.1-.4.2-.5.3-1.1.6-1.7 1.4 1.9 2.8 3.6 4.2 5.5l-6.5 1.8.3-.9z"/><path class="st22" d="M400.9 206.8c-.4 1-.9 2-1.8 2.7-.2.2-.2.4-.1.6.5.9.7 1.8.7 2.9-1.3-1.6-2.9-2.8-4.8-3.7 2.2-.5 4.2-1.4 6-2.5z"/><path class="st22" d="M397.9 216.9c1.2-.7 1.7-2.2 1.1-3.5-.4-.9-1-1.7-1.9-2.3-1.9-1.3-3.9-1.7-6.2-1.5-1.1.1-2.1.4-3.1.8-.3.1-.3.1-.5-.2v-.1c.2-.1.4-.2.6-.2.9-.4 1.8-.7 2.7-.9 1.2-.2 2.3-.3 3.5-.5 1.1-.1 2.2-.4 3.2-.8s2-.9 2.9-1.6c1.5-1.1 2.6-2.5 3.4-4.1.1-.2.2-.5.3-.7-1-.3-2.1-.4-3.2-.4-1.3 0-2.7.3-3.9.8-.9.4-1.7.8-2.5 1.4-.9.6-1.6 1.3-2.3 2.1-1.1 1.3-2.3 2.5-3.7 3.4-.4.3-.9.5-1.3.8-.1-.2-.2-.3-.3-.4.1-.1.1-.1.2-.1.5-.3.9-.6 1.4-1 1.9-1.5 3.1-3.5 3.5-5.9.2-1.3.1-2.6-.6-3.9-.3-.4-.6-.8-1-1-1.1-.7-2.6-.4-3.6.6-.8.8-1.2 1.8-1.3 2.9-.2.9-.3 1.9-.5 2.8-.1.7-.4 1.5-.8 2.1v.1c.5 0 1-.1 1.5-.1 0-.3 0-.6.1-.9.1-.6.2-1.1.5-1.5.7-.9 1.9-.8 2.5.1.3.5.4 1.1.3 1.7-.2 1.1-.7 2-1.6 2.7-.3.3-.7.5-1 .7-.3-.3-.5-.6-.7-.8-.4-.4-.4-.4-.9-.2 0 .1-.1.1-.1.2 0 .2.1.4.1.6.1.3.1.5.2.8-.5.1-.9.1-1.4-.1-.7-.2-1.2-.7-1.5-1.4-.1-.2 0-.4-.1-.7-.3 0-.7.2-1 .4-.6.5-.8 1.3-.3 2 .4.6 1 .9 1.6 1 .9.1 1.7 0 2.6-.3.3-.1.3-.1.5.2.1.1 0 .2-.1.2-.7.2-1.5.4-2.2.6-.5.1-1.1.3-1.5.6-.8.5-1.3 1.2-1.7 2 .8-.4 4.4-2.3 4.4-2.3s-.7-.2-1.6.1c-.9.3-1.4.7-1.6.9l-.1.1.1-.1c.2-.2.9-.8 1.6-1 1-.3 1.9-.1 1.9-.1s-.5 1.3-1.9 1.9c-.7.3-1.9.3-2.7.5v.1c0 .1 0 .1-.1.2.4 0 .8.1 1.1.1.9 0 1.7-.1 2.4-.6.4-.3.8-.6 1.2-1 .5-.4.9-.8 1.5-1.1.1.1.2.3.2.4-.1.1-.2.2-.4.3-.7.6-1.3 1.2-1.7 2-.3.7-.4 1.4 0 2 .4.6 1.1.9 1.8.6.3-.1.6-.2.8-.5-1.2-.6-1.2-2.6 0-3.5.2.2.4.5.6.7.4.4.4.4.9.2.1-.1.2-.1.1-.3l-.3-1.2c0-.1 0-.2.1-.2.8-.3 1.7-.5 2.6-.5.9.1 1.8.4 2.4 1.1.4.5.6 1 .4 1.6-.2.8-1 1.2-1.9 1.1-.5-.1-.9-.3-1.2-.5-.2-.1-.5-.3-.7-.5-.2.4-.5.8-.8 1l-.1.1c.1 0 .1.1.2.1.5 0 1 .1 1.4.3 1 .4 1.9.9 2.9 1.4.6.3 1.2.6 1.9.7.8 0 1.8 0 2.7-.6zm-10.2-15.1c-1.5-.5-2.4.9-2.4.9s.3-1.7 1.5-2.8c.3-.3.9-.6 1.6-.5 1 .3 1.2 1.1 1.3 1.7.6 2.8-1 5.2-1 5.2 1-3 .1-4.2-1-4.5zm3 1.5c1.4-3.9-.5-5.6-1.3-5.9-1.9-.7-3.4 1.7-3.4 1.7s.5-1.1 1.6-1.8c.2-.1 1-.5 1.7-.3 1 .3 1.7 1.2 1.9 2 1.3 4.3-2.4 7.4-2.4 7.4.8-1.2 1.5-2.2 1.9-3.1zm-9.4 5.1c-.4-.5 0-1.3 0-1.3.3 2.1 2.6 2 2.6 2s-1.7.3-2.6-.7zm21.4-6.7s-2.3-.4-5 .5c-3 1-4.6 2.2-5.2 2.8l-.3.3.3-.3c.8-.7 3-2.5 5-3.2 3-1.1 5.9-.3 5.9-.3s-1.6 3.9-6.2 5.9c-2.2 1-6.4 1-8.8 1.8-.1-.1 14.3-7.5 14.3-7.5zm-17.1 13.9s-.9-.2-1.1-.8c-.3-1.3 1-2.5 1-2.5s-1.4 1.8.1 3.3zm9.2 0c-1.7.3-3.1-.5-3.1-.5s1.6 0 2.1-1.4c.4-1 0-2.5-3-3.5 0 0 2.9.2 4.8 2.3.4.4.9 1.1.5 2.1-.2.7-.9 1-1.3 1zm2.5.9c-1.2.5-2.4.3-2.4.3s2.8.3 3.4-1.7c.2-.8 0-3.5-4-4.6-1-.3-2.2-.3-3.6-.3 0 0 4.7-1.2 7.4 2.4.5.6.8 1.7.4 2.7-.2.7-1 1.1-1.2 1.2z"/><path class="st23" d="M195.8 425.3c-36.9-12.1-67.2-35.2-88.4-64.4l-29.9 21.9c25.6 35.2 62.2 63 106.7 77.6 45.7 15 92.8 13.8 135.2-.4l-11.8-35c-35.1 11.7-74 12.7-111.8.3z"/><path class="st24" d="M305.9 87l11.6-35.2c-89.9-29.1-185.1 4.1-238.6 75.9l29.7 22.2C152.9 90.5 231.6 63 305.9 87z"/><path class="st25" d="M420.3 311.7C402 367.3 359 407.8 307.6 425l11.8 35.1c62.2-20.8 114.1-69.8 136.1-136.9 7.3-22.2 10.7-44.7 10.8-66.8l-37.1-.1c-.1 18.4-2.9 37-8.9 55.4z"/><path class="st26" d="M82.2 200.8c6.2-18.8 15.2-35.9 26.4-50.9l-29.7-22.2c-13.5 18.2-24.4 38.8-31.9 61.5-22.4 68.3-8.7 139.7 30.5 193.6l29.9-21.9C75 316.3 63.7 257.2 82.2 200.8z"/><path class="st27" d="M317.5 51.8L305.9 87c.2.1.5.2.7.2 75 24.6 122.5 94.3 122.5 169.1l37.1.1c.1-90.5-57.4-174.7-148-204.5-.2 0-.5-.1-.7-.1z"/><path class="st19" d="M160.4 375.6c-.9-2-1.8-4.8-3.8-5.7-2.8-1.2-7.5.1-8.9-.3 0 0-.4-.5.3-.5 5.5-.5 9.4-4.5 10.1-8.1 0 0 1.4-.1 1.9-.1 1.3-.5 4.4-5.5 5.1-7.1 0 0 .6-.3.5.2-.9 3.2-2.4 5.9-3.1 7-.3.4-.1.6.3.3 1.5-.9 3.3-2.5 6-5.6 0 0 .7-.2.4.4-2 3.5-10.4 12.4-10.2 12.7 1.1 2.4 1.8 5.2 1.8 6.5 0 .4-.4.3-.4.3z" id="XMLID_342_"/><path class="st19" d="M168.6 381c-.2-.3-.5-.5-.9-.5-.6-.1-1.2.1-1.7.5s-.9.9-1 1.5c-.1.4 0 .8.2 1 .2.3.5.5.9.5.6.1 1.2-.1 1.7-.5s.9-.9 1-1.5c0-.4 0-.8-.2-1z" id="XMLID_338_"/><path class="st19" d="M154.1 371.5c-.2.5-.3 1.1-.1 1.6.1.3.4.6.6.7.3.1.6.1.9 0 .5-.2.9-.6 1.1-1.1.4-.9.2-2-.6-2.3-.6-.4-1.5.1-1.9 1.1z" id="XMLID_334_"/><path class="st19" d="M165 370.4c-.2-.1-.4-.2-.7-.1-.4.1-.9.4-1.2.8-.6.8-.6 1.7-.1 2.1.2.1.4.2.7.1.4-.1.9-.4 1.2-.8.6-.8.7-1.7.1-2.1z" id="XMLID_330_"/><path class="st19" d="M174.4 361.7c-2.7 2.5-4.3 3.4-4.8 3.7.5-.7 2-3.7 2.3-4.8.2-.7-.4-.6-.4-.6-5.5 8.5-8.3 8-11.3 8.1-.4 0-.3.3-.3.3.4.3 2.5.6 2.8.7 5.1.7 5 4.4 5.2 5.1 0 0 .3.2.4-.3.2-.6.1-2.8-.5-4.5 2-1.4 5.9-5.7 6.9-7.3.4-.5-.3-.4-.3-.4z" id="XMLID_326_"/><path class="st19" d="M178.8 386.2c-1.2-2.9-4.8-6.5-6.5-7.9 4.7-4.6 9.1-10.5 10.6-13.9.4-.9-.4-.7-.4-.7-2.1 3-6.3 7.1-7.9 7.4.9-1.8 2.7-6.6 3-10.6.1-.8-.5-.6-.5-.6-5.9 15-10.2 17.2-14.6 19.4-1.4.7-2.8 1.5-4.4 2.6-.7.5.2.8.2.8 6.5-3.7 13.1-5.1 20.5 4.1-.3.1.2 0 0-.6z" id="XMLID_322_"/><path class="st21" d="M188.8 137.9l-8.1-3.9c-5.6-2.7-11.6-5.6-17.1-8.3l-1.7 28.6s.1-.1.2-.1l5.1-3 .3-.2 1.1-15c.1-1.1.6-1.4 1.5-.9 4.1 1.9 9.5 4.5 13.6 6.5 0 0 .6-.4 1.4-.8.3-.2.6-.3.9-.5 1.1-.7 2.2-1.3 3.4-2-.3-.3-.4-.4-.6-.4zm-18.9-7l-.7.4-.3.2c-.3-.1-1.2-.6-1.6-.7-.7-.2-1.1 0-1.2.8 0 .5-.1 1.3-.1 1.7 0 0-.1.1-.3.2-.5.3-1 .6-1.6.9.2-2.4.3-4.6.5-6.9l6 2.9c.1 0-.7.5-.7.5z"/><g id="GoFPfz.tif_4_"><image width="2230" height="1476" id="Livello_1_4_" xlink:href="D896A3DE49F15685.png" transform="rotate(.6 -5583.81 13985.121) scale(.02955)" overflow="visible"/></g><circle class="st28" cx="251.2" cy="256.2" r="86.2"/><path class="st29" d="M311.9 195.9l-122 119.7m121.5 1.1l-119.7-122m106.4-10.4L204 327.1m118.9-24.5l-142.7-94m155.2 29.7l-168.3 34.2m101.2 67l-34-167.4m102.8 82.1l-171.7.7m85.3 86.4l1.1-170.8m58 46.1l-117.2 77.6M290 314l-77.6-117.2M320.2 269l-138-27.2m55.4 82.6l27.2-138m51 96.7l-129.2-55.4m36.9 92.3l55.4-129.2m37.6 38.5L186 281.5m91.4 39.1l-52.3-130.5"/><path class="st30" d="M251.8 186.5l18.4 52.6 56.2-.5-46.9 32.8 18.6 52.4-45.6-32.3-48.6 33.2 17.9-52.7-47.8-32 60.4-.5z"/><path class="st28" d="M252 204.2l14 40.4 42.8-.4-36.1 25.1 14.3 40.3-34.6-24.8-37.7 25.4 13.6-40.5-36.5-24.4 46.8-.5z"/><path class="st30" d="M252 213l12 34.3 36-.3-30.7 21.3 12.2 34.3-29.1-21.1-32.3 21.6 11.5-34.4-31-20.7 40.1-.5z"/><path d="M240.4 285.9c0-1.4-1.2-2.5-2.6-2.5l-5.6.1.1 8.7h1.2v-3.5h3.3l2.4 3.5h1.4l-2.4-3.6c1.5-.5 2.2-1.3 2.2-2.7zm-1.6 1.1c-.2.2-.5.4-.9.4h-4.4v-2.8h4.5c1 0 1.2.8 1.2 1.4 0 .3-.2.7-.4 1zm10.5 2c0 1.2-1.4 1.9-2.8 1.9-1.3 0-2.7-.6-2.7-1.8l-.1-5.8h-1.2l.1 5.9c0 .7.3 1.4.8 1.9.7.7 1.7 1 3 1h.1c2.7-.1 4-1 4-3l-.1-5.9h-1.2l.1 5.8zm9.7-5.8l-5.6.1.1 8.7h1.2v-3.6h4.3c1.2 0 2.2-1.1 2.2-2.4 0-.7-.3-1.5-.9-2-.4-.6-.9-.8-1.3-.8zm.9 2.6c0 .4-.1.8-.4 1-.1.1-.3.2-.4.2h-4.4v-2.8h4.3c.4.1.9.9.9 1.6zm8.9-2.7l-5.6.1.1 8.7h1.2v-3.6h4.3c1.2 0 2.2-1.1 2.2-2.4 0-.7-.3-1.5-.9-2-.4-.6-.8-.8-1.3-.8zm.9 2.6c0 .4-.1.8-.4 1-.1.1-.3.2-.4.2h-4.4v-2.8h4.3c.4.1.9.9.9 1.6zm7.4 6.1c1.5 0 2.8-.6 3.7-1.5.8-.8 1.2-1.9 1.2-3 0-3.1-2.6-4.4-5-4.4-1.4 0-2.7.6-3.6 1.5-.8.8-1.2 1.9-1.2 3 0 2.3 2.3 4.4 4.9 4.4zm-3.7-4.5c0-1.8 1.9-3.3 3.6-3.3h.1c1 0 2.1.4 2.8 1.1.6.6.9 1.3.9 2.1s-.3 1.6-.9 2.2c-.7.7-1.7 1.1-2.8 1.1-2 .2-3.6-1.3-3.7-3.2zm-47.5 1.3h3v1.5c-.2.2-1.2 1-2.9 1-2.3 0-3.7-1.2-3.8-3.3 0-1.9 1.4-3.2 3.6-3.2h.1c1.7 0 3.1 1 3.1 1l.1.1.8-.9-.2-.1c-1.4-.9-2.6-1.4-3.9-1.4-1.4 0-2.7.5-3.7 1.5-.8.8-1.3 1.9-1.2 3 0 2.8 2 4.5 5 4.5 2.7 0 4-1.7 4.1-1.7v-3h-4.2l.1 1z"/><path class="st20" d="M251.5 204.7l6.9 19.7 21.2-.2-17.7 12.3 7 19.7-17.1-12.1-18.3 12.5 6.8-19.8-18-12.1 22.7-.2z"/><path class="st28" d="M251.6 211.3l5.3 15.2 16-.2-13.5 9.5 5.4 15.1-13-9.3-14.2 9.5 5.1-15.2-13.7-9.2 17.6-.1z"/><path class="st20" d="M251.6 214.6l4.5 12.9 13.5-.1-11.5 8 4.6 12.8-11-7.9-12.1 8.2 4.4-13-11.7-7.8 15-.1z"/><path d="M182.1 269c0-.5.3-1.2 1.9-1.2 1.5 0 2.8.7 2.8.7l-.3-3.1c-.2.2-.5.3-.7.2-.5-.1-1.3-.2-2.2-.2-3.3 0-4.8 2-4.8 3.8 0 3.5 5.4 3.7 5.4 6.2 0 .9-.9 1.4-1.9 1.5-2.2 0-3.7-1-3.7-1l.4 3.1c.3-.1.5-.1.8-.1.7.2 1.8.4 2.9.4 3.2 0 4.8-1.8 4.8-3.9 0-4.5-5.4-4.3-5.4-6.4zm111.9-3.2l.1 12.1h3l-.1-13.4h-3.6c0 .1.5.4.6 1.3zm-2.7 3.3c0-2.4-2-4.4-4.4-4.4l-6.4.1s.5.4.5.9l.1 12.4h2.9v-4.6h1.8l2.7 4.5h3.3l-2.9-5c1.5-.7 2.5-2.2 2.4-3.9zm-7.3-1.5h2.7c.8 0 1.5.7 1.5 1.5s-.7 1.5-1.5 1.5H284v-3zm-7.8 3.8v2.2s-1.1 1.9-2.9 1.9c-1.4 0-3.5-1.3-3.5-3.8s1.8-4 3.4-4 2.6 1.1 2.6 1.1l1.3-2.7s-1.5-1.6-4.1-1.5c-3.4 0-6.2 2.8-6.2 7s3.2 6.9 6.3 6.9 4.1-1.9 5.8-3.6v-4.1h-3.3c.1 0 .6.3.6.6zm41.7-7.3c-3.5 0-6.3 3.2-6.2 7 0 3.8 2.9 6.9 6.3 6.9 3.5 0 6.3-3.2 6.2-7 0-3.8-2.9-6.9-6.3-6.9zm.1 10.8c-1.7 0-3-1.6-3-3.8 0-2.2 1.3-3.8 3-3.8s3 1.6 3 3.8c0 2.1-1.4 3.7-3 3.8zm-11-3.3l-4-7h-3.9s.5.3.6 1.2l.1 12.1h2.8l-.1-8.3 4.6 8.3h2.8l-.1-13.4H307v7.1zm-46.8 1.4h4v-2.9h-4v-2.3h5.2l-.8-2.9-7.8.1s.5.3.5 1.2l.1 12.2 7.7-.1.7-3-5.6.1V273zm-50.8-.5l-4-7h-3.9s.5.3.6 1.2l.1 12.1h2.8l-.1-8.3 4.6 8.3h2.8l-.1-13.4h-2.8v7.1zm40.7-7.5h-3.6s.5.3.5 1.2l.1 12.1 7.7-.1.7-3-5.3.1-.1-10.3zm-58.6.6s.7.4.5 1.2l-3.5 12.2h2.6l.9-3.1h4.2l1 3.1h3.3l-4.5-13.3-4.5-.1zm1.2 7.7l1.2-4.3 1.4 4.3h-2.6zm27.8-8l-6.4.1s.5.3.5 1.2l.1 12.1h2.9v-4.6h2.9c2.4 0 4.4-2 4.4-4.4 0-2.5-2-4.4-4.4-4.4zm-.2 6h-2.7v-3.1h2.7c.8 0 1.5.7 1.5 1.5 0 .9-.7 1.5-1.5 1.6zm19.6-6.2h-3.6s.5.3.5 1.2l.1 12.1 7.7-.1.7-3-5.3.1-.1-10.3zm-10.6 8.2h4v-2.9h-4v-2.3h5.2l-.8-2.9-7.8.1s.5.3.5 1.2l.1 12.2 7.7-.1.7-3-5.6.1v-2.4z"/></g><defs><path id="SVGID_4_" d="M329.8 23l-78.6 233.2h273S442.4 17.8 329.8 23z"/></defs><clipPath id="SVGID_5_"><use xlink:href="#SVGID_4_" overflow="visible"/></clipPath><g class="st31"><path class="st32" d="M446.6 377c-.3.5-.6.9-.9 1.4"/><path class="st33" d="M443.9 381.2c-57.4 88.2-170.2 127.9-272.7 89.3C52.8 425.9-7.1 293.8 37.5 175.3 77.4 69.2 187.6 10.1 295.2 31"/><path class="st32" d="M296.8 31.3c.5.1 1.1.2 1.6.3"/><circle class="st34" cx="446.6" cy="377" r="7"/><path class="st34" d="M300.6 32l-.8-8 11.3 9.8-13.8 5.5z"/><path class="st35" d="M251.3 47c114.7 0 208.1 92.4 209.2 207.3 1.1 115.6-91.7 210.1-207.3 211.2h-2c-114.7 0-208.1-92.4-209.2-207.3C40.9 142.6 133.7 48.1 249.3 47h2m0-.8h-2c-28.4.3-55.8 6.1-81.6 17.3-24.9 10.8-47.2 26.2-66.4 45.7s-34 42.1-44.4 67.2c-10.7 26-16 53.6-15.7 81.9.3 28.2 6 55.5 17.1 81.2 10.7 24.8 25.9 47 45.2 66.1 19.3 19.1 41.7 34.1 66.6 44.5 25.8 10.8 53.1 16.3 81.2 16.3h2c28.4-.3 55.8-6.1 81.6-17.3 24.9-10.8 47.2-26.2 66.4-45.7 19.1-19.5 34-42.1 44.4-67.2 10.7-26 16-53.6 15.7-81.9-.3-28.2-6-55.5-17.1-81.2-10.7-24.8-25.9-47-45.2-66.1-19.3-19.1-41.7-34.1-66.6-44.5-25.8-10.9-53.1-16.3-81.2-16.3z"/><path class="st36" d="M155.5 225.4l208.2 67.1M261.2 142.1L241 373.5m-50.1-197.7l131.2 175m-2.9-191l-128.8 197m144.8-182.4l-168.3 164m71-180.9l29 214.8"/><path class="st37" d="M357 204.3l-211.8 104m222.2-70.1l-230 35.8"/><path class="st38" d="M261.7 138c.6.1 1.1.1 1.7.2"/><path class="st39" d="M266.7 138.6c52.7 7.2 95.7 49.5 101.4 104.8 6.7 64.8-40.4 122.8-105.2 129.4-57.5 5.9-109.6-30.5-125.3-84"/><path class="st38" d="M137.1 287.2c-.1-.5-.3-1.1-.4-1.6"/><circle class="st40" cx="261.7" cy="138" r="6.1"/><path class="st40" d="M136.4 284.6l-5.7 3.6 3.1-12.1 9.3 8.4z"/><path class="st41" d="M251.2 171.3c22.5 0 43.7 8.7 59.7 24.6 16 15.9 25 37 25.2 59.6.4 46.8-37.3 85.3-84.1 85.7h-.8c-22.5 0-43.7-8.7-59.7-24.6-16-15.9-25-37-25.2-59.6-.4-46.8 37.3-85.3 84.1-85.7h.8m0-8h-.9c-51.3.5-92.5 42.5-92.1 93.8.5 51 42 92.1 92.9 92.1h.9c51.3-.5 92.5-42.5 92.1-93.8-.4-51.1-41.9-92.1-92.9-92.1z"/><path class="st42" d="M251.2 163.7c24.5 0 47.7 9.5 65.1 26.8 17.5 17.3 27.2 40.3 27.4 64.9.5 51-40.7 93-91.7 93.4h-.9c-24.5 0-47.7-9.5-65.1-26.8-17.5-17.3-27.2-40.3-27.4-64.9-.2-24.7 9.2-48.1 26.5-65.7s40.5-27.5 65.2-27.7h.9m0-8h-1c-55.5.5-100.1 46-99.6 101.5.5 55.2 45.4 99.6 100.5 99.6h1c55.5-.5 100.1-46 99.6-101.5-.4-55.2-45.4-99.6-100.5-99.6z"/><path class="st43" d="M251.2 156.6c26.4 0 51.3 10.2 70.1 28.8 18.8 18.6 29.3 43.4 29.5 69.8.3 26.6-9.9 51.7-28.5 70.7s-43.6 29.6-70.2 29.8h-1c-26.4 0-51.3-10.2-70.1-28.8-18.8-18.6-29.3-43.4-29.5-69.8-.5-54.9 43.7-100 98.7-100.5h1m0-8h-1c-59.4.6-107.1 49.2-106.6 108.6.6 59.1 48.6 106.6 107.6 106.6h1c59.4-.6 107.1-49.2 106.6-108.6-.5-59.1-48.6-106.6-107.6-106.6z"/><path class="st44" d="M112.8 357.3c-14.1-19.4-24.1-41.5-29.2-65-6.2-28.8-5.1-59.5 4.7-89.5 5.9-18.1 14.6-34.5 25.4-49"/><path class="st45" d="M305.8 418.7c-33.8 11.4-71.5 12.4-108 .4-35.5-11.6-64.6-33.7-85-61.8"/><path class="st46" d="M422.6 256.7c-.1 17.6-2.8 35.4-8.6 53-17.5 53.4-58.8 92.4-108.2 109"/><path class="st47" d="M389.6 155.2c21.2 29.1 33.1 64.7 33 101.5M303.8 93.1c.3.1.5.2.8.3 35.5 11.6 64.6 33.7 85 61.8"/><path class="st48" d="M113.8 153.8c42.6-57.2 118.5-83.8 190-60.7"/><path class="st36" d="M78.8 127.7L308.9 299M77.4 383.2L425 129.3M77.4 383.2L425 129.3"/><path class="st49" d="M67.4 255.8l290.8 1.2"/><path class="st36" d="M184.1 206.5L400.7 367M194 85.7l114.5 341.1"/><path class="st50" d="M107.4 208c1.5-1.6 3.9-3.3 4-5.5.1-3.1-2.6-7.1-2.8-8.4 0 0 .3-.6.6.1 2.3 5 7.4 7.3 11 6.7 0 0 .6 1.3.7 1.7.9 1 6.6 2.2 8.4 2.3 0 0 .5.5-.1.5-3.3.2-6.3-.2-7.6-.5-.5-.1-.6.1-.2.4 1.4 1.1 3.5 2.2 7.3 3.7 0 0 .4.6-.3.5-3.9-.7-15.2-5.5-15.4-5.3-1.8 1.8-4.2 3.5-5.5 3.9 0 .2-.1-.1-.1-.1z" id="XMLID_318_"/><path class="st50" d="M105.2 217.4c.2-.3.3-.7.2-1-.1-.5-.5-1.1-1.1-1.4-.6-.4-1.2-.5-1.7-.4-.4.1-.7.3-.9.6-.2.3-.3.7-.2 1 .1.5.5 1.1 1.1 1.4.6.4 1.2.5 1.7.4.4-.1.7-.3.9-.6z" id="XMLID_314_"/><path class="st50" d="M109.2 200.6c-.6 0-1.1.1-1.5.5-.3.2-.4.5-.4.8 0 .3.1.6.3.9.3.4.9.6 1.5.6 1 .1 1.9-.5 1.9-1.3 0-.7-.8-1.4-1.8-1.5z" id="XMLID_310_"/><path class="st50" d="M114 210.5c.1-.2 0-.5-.1-.7-.2-.4-.7-.7-1.2-.9-.9-.3-1.8 0-2 .6-.1.2 0 .5.1.7.2.4.7.7 1.2.9.9.3 1.8 0 2-.6z" id="XMLID_306_"/><path class="st50" d="M125.3 216.4c-3.3-1.7-4.7-2.8-5.1-3.2.9.2 4.1.6 5.3.5.7-.1.4-.6.4-.6-9.9-2.2-10.4-5-11.5-7.8-.1-.3-.4-.2-.4-.2-.1.5.3 2.6.3 2.9 1.1 5-2.4 6.2-3 6.6 0 0-.1.3.4.3.6-.1 2.6-.8 4-2 1.9 1.4 7.4 3.5 9.3 4 .6.1.3-.5.3-.5z" id="XMLID_302_"/><path class="st50" d="M103.8 228.8c2.3-2.1 4.5-6.7 5.2-8.8 5.9 2.8 13 4.9 16.6 5.2 1 .1.5-.7.5-.7-3.6-1-8.9-3.5-9.7-4.9 2 .2 7.2.3 10.9-.8.8-.2.4-.7.4-.7-16.1-.4-19.6-3.7-23.2-7.1-1.2-1.1-2.3-2.2-4-3.3-.8-.5-.7.4-.7.4 5.7 4.8 9.3 10.6 3.2 20.6.1.1.3.6.8.1z" id="XMLID_298_"/><path class="st50" d="M341.8 380.9c-2.2.3-5.1.3-6.5 2-1.9 2.4-2.1 7.2-2.8 8.4 0 0-.6.3-.4-.4 1.1-5.4-1.6-10.3-4.9-11.9 0 0 .3-1.4.4-1.8-.1-1.4-4-5.7-5.4-6.9 0 0-.1-.7.4-.4 2.8 1.8 5 3.9 5.9 4.9.3.4.5.3.4-.3-.4-1.7-1.5-3.9-3.7-7.4 0 0 0-.7.5-.2 2.8 2.9 9 13.4 9.3 13.4 2.6-.4 5.5-.3 6.7.1.2.1.1.5.1.5z" id="XMLID_294_"/><path class="st50" d="M349.2 374.5c-.3.1-.6.4-.8.7-.2.5-.2 1.2 0 1.8.2.6.7 1.1 1.2 1.3.4.2.7.2 1.1.1.3-.1.6-.4.8-.7.2-.5.2-1.2 0-1.8-.2-.6-.7-1.1-1.2-1.3-.4-.2-.8-.2-1.1-.1z" id="XMLID_290_"/><path class="st50" d="M336.1 385.7c.4.4 1 .6 1.5.5.4 0 .6-.2.8-.4.2-.2.3-.6.2-.9-.1-.5-.3-1-.8-1.4-.8-.7-1.8-.7-2.3-.1-.5.7-.2 1.7.6 2.3z" id="XMLID_286_"/><path class="st50" d="M338.1 374.9c-.2.1-.3.4-.3.6-.1.4.1 1 .5 1.4.6.7 1.5 1 2 .6.2-.1.3-.4.3-.6.1-.4-.1-1-.5-1.4-.6-.7-1.5-1-2-.6z" id="XMLID_282_"/><path class="st50" d="M332.4 363.5c1.6 3.3 2.1 5.1 2.2 5.6-.6-.7-3-3-3.9-3.5-.6-.4-.7.2-.7.2 6.6 7.6 5.4 10.2 4.6 13.1-.1.4.2.4.2.4.4-.3 1.3-2.3 1.4-2.5 2.1-4.7 5.6-3.5 6.3-3.6 0 0 .2-.2-.1-.4-.6-.3-2.6-.9-4.5-.8-.7-2.3-3.9-7.2-5.1-8.7-.3-.5-.4.2-.4.2z" id="XMLID_278_"/><path class="st50" d="M357.1 366.2c-3.1.4-7.6 2.8-9.4 4-3.1-5.8-7.5-11.7-10.3-14-.7-.6-.8.2-.8.2 2.3 2.9 5.1 8.1 4.9 9.7-1.5-1.4-5.6-4.5-9.3-5.8-.8-.3-.7.3-.7.3 12.7 9.9 13.6 14.6 14.5 19.5.3 1.6.6 3.1 1.3 5 .3.9.8.1.8.1-1.7-7.3-1.2-14.1 9.7-18.5-.1 0-.1-.6-.7-.5z" id="XMLID_274_"/><path class="st51" d="M339.6 123.4l-3.1 9.6h-10.1l8.2 6-3.1 9.6 8.2-5.9 8.2 6-3.1-9.6 8.2-5.9h-10.1l-3.3-9.8zm10.7 10.5l-6.6 4.8 2.5 7.8-6.6-4.8-6.6 4.8 2.6-7.8-6.6-4.8h8.2l2.5-7.8 2.5 7.8h8.1z"/><path class="st51" d="M334.2 144.7l5.3-3.9 5.4 4-2-6.4 5.3-3.8-6.6-.1-2-6.2h-.1l-2 6.2h-6.7l5.4 3.9-2 6.3zm-83.5 238.7l-3.1 9.6h-10.1l8.2 6-3.1 9.6 8.2-5.9 8.2 6-3.1-9.6 8.2-5.9H254l-3.3-9.8zm10.7 10.4l-6.6 4.8 2.5 7.8-6.6-4.8-6.6 4.8 2.6-7.8-6.6-4.8h8.2l2.5-7.8 2.5 7.8h8.1z"/><path class="st51" d="M245.3 404.6l5.4-3.8 5.4 3.9-2.1-6.3 5.4-3.9h-6.6l-2.1-6.3-2 6.2H242l5.4 3.9-2.1 6.3z"/><path class="st52" d="M121.5 282.9l-5.4 7.2c-3.7 4.9-7.7 10.3-11.5 15.2l27.7 7.3-.1-.2c-.6-1.9-1.3-3.8-2-5.6l-.1-.3-14.5-4c-1-.3-1.2-.8-.6-1.7l9-12s-.2-.6-.5-1.6c-.1-.3-.2-.6-.3-1-.4-1.2-.9-2.5-1.3-3.8-.2.2-.3.4-.4.5zM111 300.1l.3.8.1.3c-.2.2-.8 1.1-1 1.4-.4.6-.2 1.1.5 1.3.4.1 1.2.3 1.7.4 0 0 0 .1.1.4.2.5.4 1.1.6 1.7-2.3-.6-4.4-1.2-6.7-1.8l4.1-5.3c0-.1.3.8.3.8zm263.3 12.1c2.9-.8 5.8-1.7 8.7-2.5 5.9-1.7 12.4-3.5 18.3-5.2L383.5 282s0 .2-.1.2l-1.8 5.7-.1.3 9.2 11.9c.7.9.5 1.4-.5 1.7-4.3 1.3-10.1 2.9-14.4 4.2 0 0-.2.6-.5 1.6-.1.3-.2.6-.3 1-.4 1.2-.8 2.5-1.2 3.8.2-.1.3-.1.5-.2zm18.8-7.4l.3-.8.1-.3c.3-.1 1.3-.4 1.6-.5.7-.3.8-.8.4-1.3-.3-.4-.8-1-1.1-1.4 0 0 0-.1.1-.4.2-.5.3-1.1.6-1.7 1.4 1.9 2.8 3.6 4.2 5.5l-6.5 1.8.3-.9z"/><path class="st53" d="M400.9 206.8c-.4 1-.9 2-1.8 2.7-.2.2-.2.4-.1.6.5.9.7 1.8.7 2.9-1.3-1.6-2.9-2.8-4.8-3.7 2.2-.5 4.2-1.4 6-2.5z"/><path class="st53" d="M397.9 216.9c1.2-.7 1.7-2.2 1.1-3.5-.4-.9-1-1.7-1.9-2.3-1.9-1.3-3.9-1.7-6.2-1.5-1.1.1-2.1.4-3.1.8-.3.1-.3.1-.5-.2v-.1c.2-.1.4-.2.6-.2.9-.4 1.8-.7 2.7-.9 1.2-.2 2.3-.3 3.5-.5 1.1-.1 2.2-.4 3.2-.8s2-.9 2.9-1.6c1.5-1.1 2.6-2.5 3.4-4.1.1-.2.2-.5.3-.7-1-.3-2.1-.4-3.2-.4-1.3 0-2.7.3-3.9.8-.9.4-1.7.8-2.5 1.4-.9.6-1.6 1.3-2.3 2.1-1.1 1.3-2.3 2.5-3.7 3.4-.4.3-.9.5-1.3.8-.1-.2-.2-.3-.3-.4.1-.1.1-.1.2-.1.5-.3.9-.6 1.4-1 1.9-1.5 3.1-3.5 3.5-5.9.2-1.3.1-2.6-.6-3.9-.3-.4-.6-.8-1-1-1.1-.7-2.6-.4-3.6.6-.8.8-1.2 1.8-1.3 2.9-.2.9-.3 1.9-.5 2.8-.1.7-.4 1.5-.8 2.1v.1c.5 0 1-.1 1.5-.1 0-.3 0-.6.1-.9.1-.6.2-1.1.5-1.5.7-.9 1.9-.8 2.5.1.3.5.4 1.1.3 1.7-.2 1.1-.7 2-1.6 2.7-.3.3-.7.5-1 .7-.3-.3-.5-.6-.7-.8-.4-.4-.4-.4-.9-.2 0 .1-.1.1-.1.2 0 .2.1.4.1.6.1.3.1.5.2.8-.5.1-.9.1-1.4-.1-.7-.2-1.2-.7-1.5-1.4-.1-.2 0-.4-.1-.7-.3 0-.7.2-1 .4-.6.5-.8 1.3-.3 2 .4.6 1 .9 1.6 1 .9.1 1.7 0 2.6-.3.3-.1.3-.1.5.2.1.1 0 .2-.1.2-.7.2-1.5.4-2.2.6-.5.1-1.1.3-1.5.6-.8.5-1.3 1.2-1.7 2 .8-.4 4.4-2.3 4.4-2.3s-.7-.2-1.6.1c-.9.3-1.4.7-1.6.9l-.1.1.1-.1c.2-.2.9-.8 1.6-1 1-.3 1.9-.1 1.9-.1s-.5 1.3-1.9 1.9c-.7.3-1.9.3-2.7.5v.1c0 .1 0 .1-.1.2.4 0 .8.1 1.1.1.9 0 1.7-.1 2.4-.6.4-.3.8-.6 1.2-1 .5-.4.9-.8 1.5-1.1.1.1.2.3.2.4-.1.1-.2.2-.4.3-.7.6-1.3 1.2-1.7 2-.3.7-.4 1.4 0 2 .4.6 1.1.9 1.8.6.3-.1.6-.2.8-.5-1.2-.6-1.2-2.6 0-3.5.2.2.4.5.6.7.4.4.4.4.9.2.1-.1.2-.1.1-.3l-.3-1.2c0-.1 0-.2.1-.2.8-.3 1.7-.5 2.6-.5.9.1 1.8.4 2.4 1.1.4.5.6 1 .4 1.6-.2.8-1 1.2-1.9 1.1-.5-.1-.9-.3-1.2-.5-.2-.1-.5-.3-.7-.5-.2.4-.5.8-.8 1l-.1.1c.1 0 .1.1.2.1.5 0 1 .1 1.4.3 1 .4 1.9.9 2.9 1.4.6.3 1.2.6 1.9.7.8 0 1.8 0 2.7-.6zm-10.2-15.1c-1.5-.5-2.4.9-2.4.9s.3-1.7 1.5-2.8c.3-.3.9-.6 1.6-.5 1 .3 1.2 1.1 1.3 1.7.6 2.8-1 5.2-1 5.2 1-3 .1-4.2-1-4.5zm3 1.5c1.4-3.9-.5-5.6-1.3-5.9-1.9-.7-3.4 1.7-3.4 1.7s.5-1.1 1.6-1.8c.2-.1 1-.5 1.7-.3 1 .3 1.7 1.2 1.9 2 1.3 4.3-2.4 7.4-2.4 7.4.8-1.2 1.5-2.2 1.9-3.1zm-9.4 5.1c-.4-.5 0-1.3 0-1.3.3 2.1 2.6 2 2.6 2s-1.7.3-2.6-.7zm21.4-6.7s-2.3-.4-5 .5c-3 1-4.6 2.2-5.2 2.8l-.3.3.3-.3c.8-.7 3-2.5 5-3.2 3-1.1 5.9-.3 5.9-.3s-1.6 3.9-6.2 5.9c-2.2 1-6.4 1-8.8 1.8-.1-.1 14.3-7.5 14.3-7.5zm-17.1 13.9s-.9-.2-1.1-.8c-.3-1.3 1-2.5 1-2.5s-1.4 1.8.1 3.3zm9.2 0c-1.7.3-3.1-.5-3.1-.5s1.6 0 2.1-1.4c.4-1 0-2.5-3-3.5 0 0 2.9.2 4.8 2.3.4.4.9 1.1.5 2.1-.2.7-.9 1-1.3 1zm2.5.9c-1.2.5-2.4.3-2.4.3s2.8.3 3.4-1.7c.2-.8 0-3.5-4-4.6-1-.3-2.2-.3-3.6-.3 0 0 4.7-1.2 7.4 2.4.5.6.8 1.7.4 2.7-.2.7-1 1.1-1.2 1.2z"/><path class="st54" d="M195.8 425.3c-36.9-12.1-67.2-35.2-88.4-64.4l-29.9 21.9c25.6 35.2 62.2 63 106.7 77.6 45.7 15 92.8 13.8 135.2-.4l-11.8-35c-35.1 11.7-74 12.7-111.8.3z"/><path class="st55" d="M305.9 87l11.6-35.2c-89.9-29.1-185.1 4.1-238.6 75.9l29.7 22.2C152.9 90.5 231.6 63 305.9 87z"/><path class="st56" d="M420.3 311.7C402 367.3 359 407.8 307.6 425l11.8 35.1c62.2-20.8 114.1-69.8 136.1-136.9 7.3-22.2 10.7-44.7 10.8-66.8l-37.1-.1c-.1 18.4-2.9 37-8.9 55.4z"/><path class="st57" d="M82.2 200.8c6.2-18.8 15.2-35.9 26.4-50.9l-29.7-22.2c-13.5 18.2-24.4 38.8-31.9 61.5-22.4 68.3-8.7 139.7 30.5 193.6l29.9-21.9C75 316.3 63.7 257.2 82.2 200.8z"/><path class="st58" d="M317.5 51.8L305.9 87c.2.1.5.2.7.2 75 24.6 122.5 94.3 122.5 169.1l37.1.1c.1-90.5-57.4-174.7-148-204.5-.2 0-.5-.1-.7-.1z"/><path class="st50" d="M160.4 375.6c-.9-2-1.8-4.8-3.8-5.7-2.8-1.2-7.5.1-8.9-.3 0 0-.4-.5.3-.5 5.5-.5 9.4-4.5 10.1-8.1 0 0 1.4-.1 1.9-.1 1.3-.5 4.4-5.5 5.1-7.1 0 0 .6-.3.5.2-.9 3.2-2.4 5.9-3.1 7-.3.4-.1.6.3.3 1.5-.9 3.3-2.5 6-5.6 0 0 .7-.2.4.4-2 3.5-10.4 12.4-10.2 12.7 1.1 2.4 1.8 5.2 1.8 6.5 0 .4-.4.3-.4.3z" id="XMLID_270_"/><path class="st50" d="M168.6 381c-.2-.3-.5-.5-.9-.5-.6-.1-1.2.1-1.7.5s-.9.9-1 1.5c-.1.4 0 .8.2 1 .2.3.5.5.9.5.6.1 1.2-.1 1.7-.5s.9-.9 1-1.5c0-.4 0-.8-.2-1z" id="XMLID_266_"/><path class="st50" d="M154.1 371.5c-.2.5-.3 1.1-.1 1.6.1.3.4.6.6.7.3.1.6.1.9 0 .5-.2.9-.6 1.1-1.1.4-.9.2-2-.6-2.3-.6-.4-1.5.1-1.9 1.1z" id="XMLID_262_"/><path class="st50" d="M165 370.4c-.2-.1-.4-.2-.7-.1-.4.1-.9.4-1.2.8-.6.8-.6 1.7-.1 2.1.2.1.4.2.7.1.4-.1.9-.4 1.2-.8.6-.8.7-1.7.1-2.1z" id="XMLID_258_"/><path class="st50" d="M174.4 361.7c-2.7 2.5-4.3 3.4-4.8 3.7.5-.7 2-3.7 2.3-4.8.2-.7-.4-.6-.4-.6-5.5 8.5-8.3 8-11.3 8.1-.4 0-.3.3-.3.3.4.3 2.5.6 2.8.7 5.1.7 5 4.4 5.2 5.1 0 0 .3.2.4-.3.2-.6.1-2.8-.5-4.5 2-1.4 5.9-5.7 6.9-7.3.4-.5-.3-.4-.3-.4z" id="XMLID_250_"/><path class="st50" d="M178.8 386.2c-1.2-2.9-4.8-6.5-6.5-7.9 4.7-4.6 9.1-10.5 10.6-13.9.4-.9-.4-.7-.4-.7-2.1 3-6.3 7.1-7.9 7.4.9-1.8 2.7-6.6 3-10.6.1-.8-.5-.6-.5-.6-5.9 15-10.2 17.2-14.6 19.4-1.4.7-2.8 1.5-4.4 2.6-.7.5.2.8.2.8 6.5-3.7 13.1-5.1 20.5 4.1-.3.1.2 0 0-.6z" id="XMLID_246_"/><path class="st52" d="M188.8 137.9l-8.1-3.9c-5.6-2.7-11.6-5.6-17.1-8.3l-1.7 28.6s.1-.1.2-.1l5.1-3 .3-.2 1.1-15c.1-1.1.6-1.4 1.5-.9 4.1 1.9 9.5 4.5 13.6 6.5 0 0 .6-.4 1.4-.8.3-.2.6-.3.9-.5 1.1-.7 2.2-1.3 3.4-2-.3-.3-.4-.4-.6-.4zm-18.9-7l-.7.4-.3.2c-.3-.1-1.2-.6-1.6-.7-.7-.2-1.1 0-1.2.8 0 .5-.1 1.3-.1 1.7 0 0-.1.1-.3.2-.5.3-1 .6-1.6.9.2-2.4.3-4.6.5-6.9l6 2.9c.1 0-.7.5-.7.5z"/><g id="GoFPfz.tif_3_"><image width="2230" height="1476" id="Livello_1_3_" xlink:href="D896A3DE49F15687.png" transform="rotate(.6 -5583.81 13985.121) scale(.02955)" overflow="visible"/></g><circle class="st28" cx="251.2" cy="256.2" r="86.2"/><path class="st59" d="M311.9 195.9l-122 119.7m121.5 1.1l-119.7-122m106.4-10.4L204 327.1m118.9-24.5l-142.7-94m155.2 29.7l-168.3 34.2m101.2 67l-34-167.4m102.8 82.1l-171.7.7m85.3 86.4l1.1-170.8m58 46.1l-117.2 77.6M290 314l-77.6-117.2M320.2 269l-138-27.2m55.4 82.6l27.2-138m51 96.7l-129.2-55.4m36.9 92.3l55.4-129.2m37.6 38.5L186 281.5m91.4 39.1l-52.3-130.5"/><path class="st60" d="M251.8 186.5l18.4 52.6 56.2-.5-46.9 32.8 18.6 52.4-45.6-32.3-48.6 33.2 17.9-52.7-47.8-32 60.4-.5z"/><path class="st28" d="M252 204.2l14 40.4 42.8-.4-36.1 25.1 14.3 40.3-34.6-24.8-37.7 25.4 13.6-40.5-36.5-24.4 46.8-.5z"/><path class="st60" d="M252 213l12 34.3 36-.3-30.7 21.3 12.2 34.3-29.1-21.1-32.3 21.6 11.5-34.4-31-20.7 40.1-.5z"/><path class="st41" d="M240.4 285.9c0-1.4-1.2-2.5-2.6-2.5l-5.6.1.1 8.7h1.2v-3.5h3.3l2.4 3.5h1.4l-2.4-3.6c1.5-.5 2.2-1.3 2.2-2.7zm-1.6 1.1c-.2.2-.5.4-.9.4h-4.4v-2.8h4.5c1 0 1.2.8 1.2 1.4 0 .3-.2.7-.4 1zm10.5 2c0 1.2-1.4 1.9-2.8 1.9-1.3 0-2.7-.6-2.7-1.8l-.1-5.8h-1.2l.1 5.9c0 .7.3 1.4.8 1.9.7.7 1.7 1 3 1h.1c2.7-.1 4-1 4-3l-.1-5.9h-1.2l.1 5.8zm9.7-5.8l-5.6.1.1 8.7h1.2v-3.6h4.3c1.2 0 2.2-1.1 2.2-2.4 0-.7-.3-1.5-.9-2-.4-.6-.9-.8-1.3-.8zm.9 2.6c0 .4-.1.8-.4 1-.1.1-.3.2-.4.2h-4.4v-2.8h4.3c.4.1.9.9.9 1.6zm8.9-2.7l-5.6.1.1 8.7h1.2v-3.6h4.3c1.2 0 2.2-1.1 2.2-2.4 0-.7-.3-1.5-.9-2-.4-.6-.8-.8-1.3-.8zm.9 2.6c0 .4-.1.8-.4 1-.1.1-.3.2-.4.2h-4.4v-2.8h4.3c.4.1.9.9.9 1.6zm7.4 6.1c1.5 0 2.8-.6 3.7-1.5.8-.8 1.2-1.9 1.2-3 0-3.1-2.6-4.4-5-4.4-1.4 0-2.7.6-3.6 1.5-.8.8-1.2 1.9-1.2 3 0 2.3 2.3 4.4 4.9 4.4zm-3.7-4.5c0-1.8 1.9-3.3 3.6-3.3h.1c1 0 2.1.4 2.8 1.1.6.6.9 1.3.9 2.1s-.3 1.6-.9 2.2c-.7.7-1.7 1.1-2.8 1.1-2 .2-3.6-1.3-3.7-3.2zm-47.5 1.3h3v1.5c-.2.2-1.2 1-2.9 1-2.3 0-3.7-1.2-3.8-3.3 0-1.9 1.4-3.2 3.6-3.2h.1c1.7 0 3.1 1 3.1 1l.1.1.8-.9-.2-.1c-1.4-.9-2.6-1.4-3.9-1.4-1.4 0-2.7.5-3.7 1.5-.8.8-1.3 1.9-1.2 3 0 2.8 2 4.5 5 4.5 2.7 0 4-1.7 4.1-1.7v-3h-4.2l.1 1z"/><path class="st51" d="M251.5 204.7l6.9 19.7 21.2-.2-17.7 12.3 7 19.7-17.1-12.1-18.3 12.5 6.8-19.8-18-12.1 22.7-.2z"/><path class="st28" d="M251.6 211.3l5.3 15.2 16-.2-13.5 9.5 5.4 15.1-13-9.3-14.2 9.5 5.1-15.2-13.7-9.2 17.6-.1z"/><path class="st51" d="M251.6 214.6l4.5 12.9 13.5-.1-11.5 8 4.6 12.8-11-7.9-12.1 8.2 4.4-13-11.7-7.8 15-.1z"/><path class="st41" d="M182.1 269c0-.5.3-1.2 1.9-1.2 1.5 0 2.8.7 2.8.7l-.3-3.1c-.2.2-.5.3-.7.2-.5-.1-1.3-.2-2.2-.2-3.3 0-4.8 2-4.8 3.8 0 3.5 5.4 3.7 5.4 6.2 0 .9-.9 1.4-1.9 1.5-2.2 0-3.7-1-3.7-1l.4 3.1c.3-.1.5-.1.8-.1.7.2 1.8.4 2.9.4 3.2 0 4.8-1.8 4.8-3.9 0-4.5-5.4-4.3-5.4-6.4zm111.9-3.2l.1 12.1h3l-.1-13.4h-3.6c0 .1.5.4.6 1.3zm-2.7 3.3c0-2.4-2-4.4-4.4-4.4l-6.4.1s.5.4.5.9l.1 12.4h2.9v-4.6h1.8l2.7 4.5h3.3l-2.9-5c1.5-.7 2.5-2.2 2.4-3.9zm-7.3-1.5h2.7c.8 0 1.5.7 1.5 1.5s-.7 1.5-1.5 1.5H284v-3zm-7.8 3.8v2.2s-1.1 1.9-2.9 1.9c-1.4 0-3.5-1.3-3.5-3.8s1.8-4 3.4-4 2.6 1.1 2.6 1.1l1.3-2.7s-1.5-1.6-4.1-1.5c-3.4 0-6.2 2.8-6.2 7s3.2 6.9 6.3 6.9 4.1-1.9 5.8-3.6v-4.1h-3.3c.1 0 .6.3.6.6zm41.7-7.3c-3.5 0-6.3 3.2-6.2 7 0 3.8 2.9 6.9 6.3 6.9 3.5 0 6.3-3.2 6.2-7 0-3.8-2.9-6.9-6.3-6.9zm.1 10.8c-1.7 0-3-1.6-3-3.8 0-2.2 1.3-3.8 3-3.8s3 1.6 3 3.8c0 2.1-1.4 3.7-3 3.8zm-11-3.3l-4-7h-3.9s.5.3.6 1.2l.1 12.1h2.8l-.1-8.3 4.6 8.3h2.8l-.1-13.4H307v7.1zm-46.8 1.4h4v-2.9h-4v-2.3h5.2l-.8-2.9-7.8.1s.5.3.5 1.2l.1 12.2 7.7-.1.7-3-5.6.1V273zm-50.8-.5l-4-7h-3.9s.5.3.6 1.2l.1 12.1h2.8l-.1-8.3 4.6 8.3h2.8l-.1-13.4h-2.8v7.1zm40.7-7.5h-3.6s.5.3.5 1.2l.1 12.1 7.7-.1.7-3-5.3.1-.1-10.3zm-58.6.6s.7.4.5 1.2l-3.5 12.2h2.6l.9-3.1h4.2l1 3.1h3.3l-4.5-13.3-4.5-.1zm1.2 7.7l1.2-4.3 1.4 4.3h-2.6zm27.8-8l-6.4.1s.5.3.5 1.2l.1 12.1h2.9v-4.6h2.9c2.4 0 4.4-2 4.4-4.4 0-2.5-2-4.4-4.4-4.4zm-.2 6h-2.7v-3.1h2.7c.8 0 1.5.7 1.5 1.5 0 .9-.7 1.5-1.5 1.6zm19.6-6.2h-3.6s.5.3.5 1.2l.1 12.1 7.7-.1.7-3-5.3.1-.1-10.3zm-10.6 8.2h4v-2.9h-4v-2.3h5.2l-.8-2.9-7.8.1s.5.3.5 1.2l.1 12.2 7.7-.1.7-3-5.6.1v-2.4z"/></g><path class="st47" d="M1127.2 256.2h-876L329.7 23"/><path class="st61" d="M1145.2 250.1h-10.8L1131 240l-3.4 10.1H1116l9.1 6.2-3.5 10.1 9.4-6.3 8.7 6.3-3.5-10.1 9-6.2zm-7.7 13.5l-6.6-4.8-7.3 4.8 2.7-7.7-7-4.8h9l2.6-7.8 2.6 7.8h8.2l-7 4.8 2.8 7.7zm2.6-11.9h-6.9l-2.2-6.6-2.2 6.6h-7.7l5.9 4-2.3 6.6 6.2-4.1 5.6 4.1-2.3-6.6 5.9-4z"/><path class="st62" d="M479.9 130.6h-3.5v-3.3h15.9c6.7 0 11.7 4.4 11.7 11.4s-4.9 11.5-11.7 11.5h-8.7V165h-3.8v-34.4zm11.9 16.3c5 0 8.3-3.1 8.3-8.2s-3.3-8.1-8.2-8.1h-8.3v16.3h8.2zm24.5-16.3h-3.5v-3.3h16c6.3 0 10.8 4.2 10.8 10.7 0 5.9-3.6 9.3-7.3 10.1v.1s.8.4 1.3 1.5l5.4 10.7c.5 1.1 1.3 1.2 2.7 1.2h.8v3.3h-1.7c-3.1 0-4-.4-5.2-2.8l-5.4-10.8c-1-2-1.7-2.3-3.8-2.3h-6.3v16h-3.8v-34.4zm12.1 15.2c4.5 0 7.3-3 7.3-7.7s-2.8-7.5-7.2-7.5h-8.4v15.2h8.3zm41.1-19.2c10.7 0 19.2 8.4 19.2 19.3 0 11.1-8.5 19.8-19.2 19.8s-19.2-8.7-19.2-19.8c0-10.9 8.5-19.3 19.2-19.3zm0 35.5c8.4 0 15.3-7.1 15.3-16.2 0-8.9-6.9-15.7-15.3-15.7-8.5 0-15.3 6.8-15.3 15.7 0 9.1 6.8 16.2 15.3 16.2zm32.3-31.5h-3.5v-3.3h15.1c11.4 0 19 6.9 19 18.8 0 12-7.6 18.9-19 18.9H605c-2.3 0-3.3-1-3.3-3.3v-31.1zm5 31.1h6.3c9.3 0 15.4-5.5 15.4-15.6 0-10-6.2-15.5-15.4-15.5h-7.5v29.9c0 .8.4 1.2 1.2 1.2zm38.4-29.9c0-.8-.4-1.2-1.2-1.2h-2.3v-3.3h4c2.3 0 3.3 1 3.3 3.3V152c0 6.3 4 10.2 10.1 10.2 6.2 0 10.2-3.9 10.2-10.3v-21.3c0-2.3 1-3.3 3.3-3.3h4v3.3h-2.3c-.8 0-1.2.4-1.2 1.2v20.3c0 8.2-5.6 13.6-13.9 13.6s-14-5.4-14-13.6v-20.3zm39.5 30.6L705 134c1.4-2 2.7-3.4 2.7-3.4v-.1s-.9.1-2.7.1h-15c-.8 0-1.2.4-1.2 1.2v2.5h-3.5v-3.8c0-2.3 1-3.3 3.3-3.3h23.8v2.6l-20.2 28.3c-1.4 2-2.8 3.4-2.8 3.4v.1s.9-.1 2.8-.1h16.3c.8 0 1.2-.4 1.2-1.2V158h3.5v3.8c0 2.3-1 3.3-3.3 3.3h-25.1v-2.7zm37.7-.7h3.5v-31.1h-3.5v-3.3h10.8v3.3h-3.6v31.1h3.6v3.3h-10.8v-3.3zm39.9-35.1c10.7 0 19.2 8.4 19.2 19.3 0 11.1-8.5 19.8-19.2 19.8s-19.2-8.7-19.2-19.8c0-10.9 8.5-19.3 19.2-19.3zm0 35.5c8.4 0 15.3-7.1 15.3-16.2 0-8.9-6.9-15.7-15.3-15.7-8.5 0-15.3 6.8-15.3 15.7 0 9.1 6.8 16.2 15.3 16.2zm28.8-.4h2.3c.8 0 1.2-.4 1.2-1.2v-33.2h3.4l19.3 26.9c1.3 1.9 3.1 4.9 3.1 4.9h.1s-.3-3-.3-4.9v-23.6c0-2.3 1-3.3 3.3-3.3h4v3.3h-2.3c-.8 0-1.2.4-1.2 1.2V165h-3.4l-19.3-26.9c-1.3-1.8-3.1-4.9-3.1-4.9h-.1s.3 2.9.3 4.9v23.6c0 2.3-1 3.3-3.3 3.3h-4v-3.3zm49.7-31.1h-3.5v-3.3h21.6c2.3 0 3.3 1 3.3 3.3v3.8h-3.5v-2.5c0-.8-.4-1.2-1.2-1.2h-12.9v13.7h14.2v3.3h-14.2v12.8c0 .8.4 1.2 1.2 1.2H859c.8 0 1.2-.4 1.2-1.2V158h3.5v3.8c0 2.3-1 3.3-3.3 3.3h-16.3c-2.3 0-3.3-1-3.3-3.3v-31.2zm-360.9 53.7h-3.5V181H498c2.3 0 3.3 1 3.3 3.3v3.8h-3.5v-2.5c0-.8-.4-1.2-1.2-1.2h-12.9V198h14.2v3.3h-14.2v12.8c0 .8.4 1.2 1.2 1.2h13.3c.8 0 1.2-.4 1.2-1.2v-2.5h3.5v3.8c0 2.3-1 3.3-3.3 3.3h-16.3c-2.3 0-3.3-1-3.3-3.3v-31.1zm52 31.1h3.5v-31.1h-3.5V181h10.8v3.3h-3.6v31.1h3.6v3.3h-10.8v-3.3zm19.8 0h2c.8 0 1.1-.4 1.2-1.2l2.6-33.2h3.8l10 22c.9 1.9 1.9 4.5 1.9 4.5h.1l1.8-4.5 10-22h3.8l2.6 33.2c.1.8.4 1.2 1.2 1.2h2v3.3H591c-2.3 0-3.1-1-3.3-3.3l-1.8-22.9c-.2-2-.2-5.3-.2-5.3h-.1s-1 3.3-1.9 5.3l-9 19.2h-3.4l-8.9-19.2c-.9-1.9-2-5.4-2-5.4h-.1s0 3.3-.2 5.4l-1.8 22.9c-.2 2.3-1 3.3-3.3 3.3h-3.6v-3.3zm55.2-31.1h-3.5V181h16.1c5.9 0 10.2 3.6 10.2 9.5 0 4.1-2.1 6.9-4.8 8.2v.1c3.9 1.1 6.3 4.8 6.3 9.3 0 6.7-4.9 10.6-11.3 10.6h-9.7c-2.3 0-3.3-1-3.3-3.3v-31.1zm12.5 13c3.8 0 6.4-2.7 6.4-6.6 0-3.9-2.5-6.4-6.4-6.4h-8.7v13h8.7zm-7.6 18.1h8.1c4.6 0 7.4-2.8 7.4-7.4 0-4.5-3-7.5-7.4-7.5h-9.2v13.6c-.1.9.4 1.3 1.1 1.3zm48.6-35.1c10.7 0 19.2 8.4 19.2 19.3 0 11.1-8.5 19.8-19.2 19.8s-19.2-8.7-19.2-19.8c0-10.9 8.5-19.3 19.2-19.3zm0 35.5c8.4 0 15.3-7.1 15.3-16.2 0-8.9-6.9-15.7-15.3-15.7-8.5 0-15.3 6.8-15.3 15.7 0 9.1 6.8 16.2 15.3 16.2zm40.3-31.5h-9.3c-.8 0-1.2.3-1.2 1.2v2.5h-3.4v-4c0-2.3.8-3.1 3.1-3.1h25.6c2.3 0 3.1.8 3.1 3.1v4H715v-2.5c0-.9-.4-1.2-1.2-1.2h-9.3v34.4h-3.8v-34.4zm38.7 0H730c-.8 0-1.2.3-1.2 1.2v2.5h-3.4v-4c0-2.3.8-3.1 3.1-3.1H754c2.3 0 3.1.8 3.1 3.1v4h-3.5v-2.5c0-.9-.4-1.2-1.2-1.2h-9.3v34.4h-3.8v-34.4zm26.3 31.1h3.5v-31.1h-3.5V181h10.8v3.3h-3.6v31.1h3.6v3.3h-10.8v-3.3zm39.6-35.1c8.8 0 13.2 4.6 13.2 4.6l-2.2 2.8s-4.2-3.9-11-3.9c-8.5 0-15 6.8-15 15.9 0 9.3 6.4 16.1 14.9 16.1 7.5 0 11.9-5.5 11.9-5.5v-4.7c0-.8-.4-1.2-1.2-1.2h-2.3v-3.3h3.8c2.3 0 3.3 1 3.3 3.3v14.3h-3.4v-2.8c0-.8.1-1.6.1-1.6h-.1s-4.4 5.1-12.3 5.1c-10.3 0-18.5-8.3-18.5-19.6 0-10.9 8.1-19.5 18.8-19.5zm29.1 5.2c0-.8-.4-1.2-1.2-1.2h-2.3V181h4c2.3 0 3.3 1 3.3 3.3v30c0 .8.4 1.2 1.2 1.2h12.5c.8 0 1.2-.4 1.2-1.2v-2.5h3.5v3.8c0 2.3-1 3.3-3.3 3.3h-15.6c-2.3 0-3.3-1-3.3-3.3v-30.1zm30.5 29.9h3.5v-31.1h-3.5V181h10.8v3.3h-3.6v31.1h3.6v3.3h-10.8v-3.3zm19.3 0h.7c1 0 1.6-.2 1.9-1.2l12.3-33.2h4l12.3 33.2c.4 1 .9 1.2 1.9 1.2h.6v3.3h-1.7c-2.7 0-3.5-.5-4.5-3.1l-3.3-8.9h-15l-3.3 8.9c-1 2.6-1.7 3.1-4.4 3.1h-1.8v-3.3zm23.4-12l-5-13.5c-.6-1.8-1.4-4.9-1.4-4.9h-.1s-.8 3.1-1.4 4.9l-4.9 13.5h12.8zm17.8 12h2c.8 0 1.1-.4 1.2-1.2l2.6-33.2h3.8l10 22c.9 1.9 1.9 4.5 1.9 4.5h.1l1.8-4.5 10-22h3.8l2.6 33.2c.1.8.4 1.2 1.2 1.2h2v3.3h-3.7c-2.3 0-3.1-1-3.3-3.3l-1.8-22.9c-.2-2-.2-5.3-.2-5.3h-.1s-1 3.3-1.9 5.3l-9 19.2H945l-8.9-19.2c-.9-1.9-2-5.4-2-5.4h-.1s0 3.3-.2 5.4l-1.8 22.9c-.2 2.3-1 3.3-3.3 3.3h-3.6v-3.3zm55.3-31.1h-3.5V181h21.6c2.3 0 3.3 1 3.3 3.3v3.8h-3.5v-2.5c0-.8-.4-1.2-1.2-1.2h-12.9V198h14.2v3.3h-14.2v12.8c0 .8.4 1.2 1.2 1.2H999c.8 0 1.2-.4 1.2-1.2v-2.5h3.5v3.8c0 2.3-1 3.3-3.3 3.3h-16.3c-2.3 0-3.3-1-3.3-3.3v-31.1zm31.8 31.1h2.3c.8 0 1.2-.4 1.2-1.2V181h3.4l19.3 26.9c1.3 1.9 3.1 4.9 3.1 4.9h.1s-.3-3-.3-4.9v-23.6c0-2.3 1-3.3 3.3-3.3h4v3.3h-2.3c-.8 0-1.2.4-1.2 1.2v33.2h-3.4l-19.3-26.9c-1.3-1.8-3.1-4.9-3.1-4.9h-.1s.3 2.9.3 4.9v23.6c0 2.3-1 3.3-3.3 3.3h-4v-3.3zm58.7-31.1h-9.3c-.8 0-1.2.3-1.2 1.2v2.5h-3.4v-4c0-2.3.8-3.1 3.1-3.1h25.6c2.3 0 3.1.8 3.1 3.1v4h-3.5v-2.5c0-.9-.4-1.2-1.2-1.2h-9.3v34.4h-3.8v-34.4zm44.1-4c10.7 0 19.2 8.4 19.2 19.3 0 11.1-8.5 19.8-19.2 19.8s-19.2-8.7-19.2-19.8c0-10.9 8.5-19.3 19.2-19.3zm0 35.5c8.4 0 15.3-7.1 15.3-16.2 0-8.9-6.9-15.7-15.3-15.7-8.5 0-15.3 6.8-15.3 15.7 0 9.1 6.8 16.2 15.3 16.2z"/></svg>