<?xml version="1.0" encoding="utf-8"?>
<!-- Generator: Adobe Illustrator 22.0.0, SVG Export Plug-In . SVG Version: 6.00 Build 0)  -->
<svg version="1.1" baseProfile="basic" id="Livello_1"
	 xmlns="http://www.w3.org/2000/svg" xmlns:xlink="http://www.w3.org/1999/xlink" x="0px" y="0px" viewBox="0 0 1008 523"
	 xml:space="preserve">
<style type="text/css">
	.st0{fill:none;stroke:#00295A;stroke-miterlimit:10;}
	.st1{fill:none;stroke:#00295A;stroke-linecap:round;stroke-miterlimit:10;stroke-dasharray:0,5;}
	.st2{fill:#4E5594;}
	.st3{fill:#72C2E1;}
</style>
<path class="st0" d="M939.6,474.8H73.8c-3.4,0-6.1-2.7-6.1-6.1V15.1"/>
<path class="st1" d="M126.1,19.3h775.7"/>
<path class="st1" d="M126.1,77.2h775.7"/>
<path class="st1" d="M126.1,135h775.7"/>
<path class="st1" d="M126.1,192.9h775.7"/>
<path class="st1" d="M126.1,250.7h775.7"/>
<path class="st1" d="M126.1,308.5h775.7"/>
<path class="st1" d="M126.1,366.4h775.7"/>
<path class="st1" d="M126.1,424.2h775.7"/>
<g>
	<path class="st2" d="M334.2,493.3c2.6,0,3.9,1.3,3.9,1.3l-0.9,1.1c0,0-1.2-1.1-3-1.1c-2.2,0-3.9,1.8-3.9,4.2c0,2.5,1.8,4.3,4,4.3
		c2,0,3.1-1.4,3.1-1.4v-1.1c0-0.2-0.1-0.3-0.3-0.3h-0.7V499h1.4c0.7,0,1,0.3,1,1v4.4h-1.4v-0.7c0-0.2,0-0.5,0-0.5l0,0
		c0,0-1.2,1.3-3.4,1.3c-2.9,0-5.3-2.3-5.3-5.7C328.6,495.8,331,493.3,334.2,493.3z"/>
	<path class="st2" d="M341.6,498.2c0-0.2-0.1-0.3-0.3-0.3h-0.6v-1.3h1.4c0.7,0,1,0.3,1,0.9v0.5c0,0.3,0,0.5,0,0.5l0,0
		c0.4-1.1,1.3-2,2.5-2c0.2,0,0.4,0,0.4,0v1.5c0,0-0.2,0-0.5,0c-1,0-1.8,0.7-2.2,1.8c-0.1,0.4-0.2,0.9-0.2,1.4v3.2h-1.5L341.6,498.2
		L341.6,498.2z"/>
	<path class="st2" d="M351.7,499.5h0.3v-0.1c0-1.4-0.5-1.9-1.7-1.9c-0.4,0-1.3,0.1-1.3,0.6v0.5h-1.4v-0.8c0-1.3,2-1.5,2.7-1.5
		c2.5,0,3.2,1.3,3.2,3.1v3.3c0,0.2,0.1,0.3,0.3,0.3h0.6v1.3H353c-0.7,0-1-0.3-1-0.9c0-0.3,0-0.5,0-0.5l0,0c0,0-0.6,1.6-2.5,1.6
		c-1.4,0-2.7-0.8-2.7-2.4C347,499.7,350.4,499.5,351.7,499.5z M350,503.4c1.3,0,2.1-1.3,2.1-2.5v-0.3h-0.4c-1.1,0-3.2,0.1-3.2,1.5
		C348.5,502.8,349,503.4,350,503.4z"/>
	<path class="st2" d="M356.8,498.2c0-0.2-0.1-0.3-0.3-0.3h-0.6v-1.3h1.4c0.7,0,1,0.3,1,0.9v0.3c0,0.2,0,0.4,0,0.4l0,0
		c0.4-0.9,1.5-1.8,2.7-1.8c1.3,0,2.1,0.6,2.4,1.8l0,0c0.4-0.9,1.5-1.8,2.8-1.8c1.8,0,2.6,1,2.6,3v3.4c0,0.2,0.1,0.3,0.3,0.3h0.6v1.3
		h-1.5c-0.7,0-1-0.3-1-1v-3.7c0-1.1-0.2-2-1.4-2c-1.1,0-1.9,0.9-2.2,2c-0.1,0.3-0.1,0.7-0.1,1.1v3.6H362v-4.7c0-1-0.2-2-1.4-2
		c-1.1,0-2,1-2.2,2.1c-0.1,0.3-0.1,0.7-0.1,1v3.6h-1.5V498.2z"/>
	<path class="st2" d="M372,498.2c0-0.2-0.1-0.3-0.3-0.3H371v-1.3h1.4c0.7,0,1,0.3,1,0.9v0.3c0,0.2,0,0.4,0,0.4l0,0
		c0.4-0.9,1.5-1.8,2.7-1.8c1.3,0,2.1,0.6,2.4,1.8l0,0c0.4-0.9,1.5-1.8,2.8-1.8c1.8,0,2.6,1,2.6,3v3.4c0,0.2,0.1,0.3,0.3,0.3h0.6v1.3
		h-1.5c-0.7,0-1-0.3-1-1v-3.7c0-1.1-0.2-2-1.4-2c-1.1,0-1.9,0.9-2.2,2c-0.1,0.3-0.1,0.7-0.1,1.1v3.6h-1.5v-4.7c0-1-0.2-2-1.4-2
		c-1.1,0-2,1-2.2,2.1c-0.1,0.3-0.1,0.7-0.1,1v3.6H372V498.2z"/>
	<path class="st2" d="M387.2,498.2c0-0.2-0.1-0.3-0.3-0.3h-0.6v-1.3h1.5c0.7,0,1,0.3,1,1v5.2c0,0.2,0.1,0.3,0.3,0.3h0.6v1.3h-1.5
		c-0.7,0-1-0.3-1-1V498.2z M387.2,493.5h1.3v1.6h-1.3V493.5z"/>
	<path class="st2" d="M399.6,496.4c1.8,0,2.4,1.2,2.4,1.2l0,0c0,0,0-0.2,0-0.5v-2c0-0.2-0.1-0.3-0.3-0.3h-0.6v-1.3h1.5
		c0.7,0,1,0.3,1,1v8.3c0,0.2,0.1,0.3,0.3,0.3h0.6v1.3h-1.4c-0.7,0-1-0.3-1-0.8c0-0.2,0-0.4,0-0.4l0,0c0,0-0.7,1.4-2.6,1.4
		c-2.1,0-3.5-1.7-3.5-4.1C396.1,498,397.5,496.4,399.6,496.4z M402.1,500.5c0-1.4-0.7-2.8-2.2-2.8c-1.2,0-2.2,1-2.2,2.8
		c0,1.7,0.9,2.8,2.2,2.8C401,503.3,402.1,502.5,402.1,500.5z"/>
	<path class="st2" d="M406.9,498.2c0-0.2-0.1-0.3-0.3-0.3H406v-1.3h1.5c0.7,0,1,0.3,1,1v5.2c0,0.2,0.1,0.3,0.3,0.3h0.6v1.3h-1.5
		c-0.7,0-1-0.3-1-1V498.2z M406.9,493.5h1.3v1.6h-1.3V493.5z"/>
	<path class="st2" d="M421.2,493.3c1.5,0,4.1,0.6,4.1,2.4v1.1h-1.4v-0.6c0-0.9-1.6-1.4-2.7-1.4c-2.2,0-3.9,1.7-3.9,4.1
		s1.7,4.3,4,4.3c2.2,0,3.5-1.5,3.5-1.5l0.8,1.1c0,0-1.6,1.8-4.3,1.8c-3.3,0-5.6-2.5-5.6-5.8C415.7,495.7,418.1,493.3,421.2,493.3z"
		/>
	<path class="st2" d="M432.8,493.3c3.2,0,5.6,2.4,5.6,5.6s-2.5,5.7-5.6,5.7s-5.6-2.5-5.6-5.7C427.1,495.7,429.6,493.3,432.8,493.3z
		 M432.8,503.2c2.2,0,4-1.9,4-4.3c0-2.3-1.8-4.1-4-4.1s-4,1.8-4,4.1C428.8,501.3,430.5,503.2,432.8,503.2z"/>
	<path class="st2" d="M445.7,496.5c0-1-0.7-1.7-1.9-1.7c-1,0-1.7,0.5-1.7,1v0.5h-1.4v-0.9c0-1.4,1.9-2,3.2-2c2,0,3.4,1.3,3.4,3.1
		c0,3.8-5.6,3.8-5.6,6.4c0,0.2,0.1,0.3,0.4,0.3h3.9c0.2,0,0.3-0.1,0.3-0.3v-0.7h1.4v1.4c0,0.7-0.3,1-1,1h-5.6c-0.9,0-1-0.4-1-1.3
		C440.1,499.1,445.7,499.4,445.7,496.5z"/>
	<path class="st2" d="M455.2,498.2c0-0.2-0.1-0.3-0.3-0.3h-0.6v-1.3h1.4c0.7,0,1,0.3,1,0.8c0,0.2,0,0.4,0,0.4l0,0
		c0,0,0.7-1.4,2.6-1.4c2.1,0,3.5,1.7,3.5,4.1c0,2.5-1.5,4.1-3.6,4.1c-1.7,0-2.4-1.3-2.4-1.3l0,0c0,0,0,0.3,0,0.7v3.5h-1.5v-9.3
		H455.2z M458.9,503.3c1.2,0,2.3-1,2.3-2.8c0-1.7-0.9-2.8-2.2-2.8c-1.2,0-2.3,0.8-2.3,2.8C456.6,501.9,457.4,503.3,458.9,503.3z"/>
	<path class="st2" d="M468.4,496.4c2.2,0,3.4,1.6,3.4,3.7c0,0.2,0,0.6,0,0.6H466c0.1,1.7,1.3,2.6,2.7,2.6c1.4,0,2.3-0.9,2.3-0.9
		l0.7,1.1c0,0-1.2,1.1-3,1.1c-2.5,0-4.2-1.8-4.2-4.1C464.4,498,466.1,496.4,468.4,496.4z M470.2,499.6c0-1.3-0.9-2-1.8-2
		c-1.1,0-2.1,0.7-2.3,2H470.2z"/>
	<path class="st2" d="M474.4,498.2c0-0.2-0.1-0.3-0.3-0.3h-0.6v-1.3h1.4c0.7,0,1,0.3,1,0.9v0.5c0,0.3,0,0.5,0,0.5l0,0
		c0.4-1.1,1.3-2,2.5-2c0.2,0,0.4,0,0.4,0v1.5c0,0-0.2,0-0.5,0c-1,0-1.8,0.7-2.2,1.8c-0.1,0.4-0.2,0.9-0.2,1.4v3.2h-1.5L474.4,498.2
		L474.4,498.2z"/>
	<path class="st2" d="M485.8,495.1c0-0.2-0.1-0.3-0.3-0.3h-0.6v-1.3h1.5c0.7,0,1,0.3,1,1v8.3c0,0.2,0.1,0.3,0.3,0.3h0.6v1.3h-1.5
		c-0.7,0-1-0.3-1-1V495.1z"/>
	<path class="st2" d="M490.6,498.2c0-0.2-0.1-0.3-0.3-0.3h-0.6v-1.3h1.5c0.7,0,1,0.3,1,1v5.2c0,0.2,0.1,0.3,0.3,0.3h0.6v1.3h-1.5
		c-0.7,0-1-0.3-1-1V498.2z M490.7,493.5h1.3v1.6h-1.3V493.5z"/>
	<path class="st2" d="M495.5,497.8h-1v-1.2h1.1v-2.2h1.5v2.2h1.9v1.2h-2v3.6c0,1.6,1.1,1.8,1.7,1.8c0.2,0,0.4,0,0.4,0v1.3
		c0,0-0.2,0-0.5,0c-1,0-3-0.3-3-2.9v-3.8H495.5z"/>
	<path class="st2" d="M501.5,498.2c0-0.2-0.1-0.3-0.3-0.3h-0.6v-1.3h1.4c0.7,0,1,0.3,1,0.9v0.5c0,0.3,0,0.5,0,0.5l0,0
		c0.4-1.1,1.3-2,2.5-2c0.2,0,0.4,0,0.4,0v1.5c0,0-0.2,0-0.4,0c-1,0-1.8,0.7-2.2,1.8c-0.1,0.4-0.2,0.9-0.2,1.4v3.2h-1.5L501.5,498.2
		L501.5,498.2z"/>
	<path class="st2" d="M511.3,496.4c2.3,0,4.2,1.7,4.2,4.1s-1.9,4.1-4.2,4.1s-4.2-1.7-4.2-4.1C507.1,498.1,509,496.4,511.3,496.4z
		 M511.3,503.3c1.5,0,2.7-1.2,2.7-2.8c0-1.6-1.2-2.8-2.7-2.8s-2.7,1.2-2.7,2.8C508.6,502.1,509.8,503.3,511.3,503.3z"/>
	<path class="st2" d="M525.7,496.4c1.8,0,2.4,1.2,2.4,1.2l0,0c0,0,0-0.2,0-0.5v-2c0-0.2-0.1-0.3-0.3-0.3h-0.6v-1.3h1.5
		c0.7,0,1,0.3,1,1v8.3c0,0.2,0.1,0.3,0.3,0.3h0.6v1.3h-1.4c-0.7,0-1-0.3-1-0.8c0-0.2,0-0.4,0-0.4l0,0c0,0-0.7,1.4-2.6,1.4
		c-2.1,0-3.5-1.7-3.5-4.1C522.1,498,523.6,496.4,525.7,496.4z M528.1,500.5c0-1.4-0.7-2.8-2.2-2.8c-1.2,0-2.2,1-2.2,2.8
		c0,1.7,0.9,2.8,2.2,2.8C527,503.3,528.1,502.5,528.1,500.5z"/>
	<path class="st2" d="M532.9,498.2c0-0.2-0.1-0.3-0.3-0.3H532v-1.3h1.5c0.7,0,1,0.3,1,1v5.2c0,0.2,0.1,0.3,0.3,0.3h0.6v1.3h-1.5
		c-0.7,0-1-0.3-1-1L532.9,498.2L532.9,498.2z M533,493.5h1.3v1.6H533V493.5z"/>
	<path class="st2" d="M546.5,499.5h0.3v-0.1c0-1.4-0.5-1.9-1.7-1.9c-0.4,0-1.3,0.1-1.3,0.6v0.5h-1.4v-0.8c0-1.3,2-1.5,2.7-1.5
		c2.5,0,3.2,1.3,3.2,3.1v3.3c0,0.2,0.1,0.3,0.3,0.3h0.6v1.3h-1.4c-0.7,0-1-0.3-1-0.9c0-0.3,0-0.5,0-0.5l0,0c0,0-0.6,1.6-2.5,1.6
		c-1.4,0-2.7-0.8-2.7-2.4C541.8,499.7,545.2,499.5,546.5,499.5z M544.8,503.4c1.3,0,2.1-1.3,2.1-2.5v-0.3h-0.4
		c-1.1,0-3.2,0.1-3.2,1.5C543.3,502.8,543.8,503.4,544.8,503.4z"/>
	<path class="st2" d="M555.1,496.4c0.9,0,2.8,0.4,2.8,1.7v0.8h-1.4v-0.4c0-0.6-0.9-0.8-1.5-0.8c-1.5,0-2.7,1.1-2.7,2.8
		c0,1.8,1.3,2.8,2.8,2.8s2.4-1.1,2.4-1.1l0.7,1.1c0,0-1.1,1.4-3.2,1.4c-2.5,0-4.2-1.8-4.2-4.1C550.8,498.2,552.5,496.4,555.1,496.4z
		"/>
	<path class="st2" d="M563.3,496.4c1.9,0,2.5,1.3,2.5,1.3l0,0c0,0,0-0.2,0-0.4c0-0.5,0.3-0.7,1-0.7h1.4v1.3h-0.6
		c-0.2,0-0.3,0.1-0.3,0.3v9.3h-1.5V504c0-0.4,0-0.7,0-0.7l0,0c0,0-0.7,1.3-2.5,1.3c-2.1,0-3.4-1.7-3.4-4.1
		C559.8,498,561.2,496.4,563.3,496.4z M565.8,500.5c0-1.4-0.7-2.8-2.2-2.8c-1.2,0-2.3,1-2.3,2.8c0,1.7,0.9,2.8,2.2,2.8
		C564.7,503.3,565.8,502.5,565.8,500.5z"/>
	<path class="st2" d="M570.5,498.2c0-0.2-0.1-0.3-0.3-0.3h-0.6v-1.3h1.5c0.7,0,1,0.3,1,1v3.7c0,1.1,0.2,2,1.5,2c1.6,0,2.6-1.4,2.6-3
		v-3.7h1.5v6.2c0,0.2,0.1,0.3,0.3,0.3h0.6v1.3H577c-0.7,0-1-0.3-1-0.9v-0.3c0-0.2,0-0.4,0-0.4l0,0c-0.3,0.8-1.3,1.8-2.9,1.8
		c-1.8,0-2.7-0.9-2.7-3v-3.4H570.5z"/>
	<path class="st2" d="M584.7,499.5h0.3v-0.1c0-1.4-0.5-1.9-1.7-1.9c-0.4,0-1.3,0.1-1.3,0.6v0.5h-1.4v-0.8c0-1.3,2-1.5,2.7-1.5
		c2.5,0,3.2,1.3,3.2,3.1v3.3c0,0.2,0.1,0.3,0.3,0.3h0.6v1.3H586c-0.7,0-1-0.3-1-0.9c0-0.3,0-0.5,0-0.5l0,0c0,0-0.6,1.6-2.5,1.6
		c-1.4,0-2.7-0.8-2.7-2.4C580,499.7,583.4,499.5,584.7,499.5z M583,503.4c1.3,0,2.1-1.3,2.1-2.5v-0.3h-0.4c-1.1,0-3.2,0.1-3.2,1.5
		C581.5,502.8,582,503.4,583,503.4z"/>
	<path class="st2" d="M594.7,497.8h-1v-1.2h1.1v-2.2h1.5v2.2h1.9v1.2h-1.9v3.6c0,1.6,1.1,1.8,1.7,1.8c0.2,0,0.4,0,0.4,0v1.3
		c0,0-0.2,0-0.5,0c-1,0-3-0.3-3-2.9v-3.8H594.7z"/>
	<path class="st2" d="M600.7,498.2c0-0.2-0.1-0.3-0.3-0.3h-0.6v-1.3h1.4c0.7,0,1,0.3,1,0.9v0.5c0,0.3,0,0.5,0,0.5l0,0
		c0.4-1.1,1.3-2,2.5-2c0.2,0,0.4,0,0.4,0v1.5c0,0-0.2,0-0.5,0c-1,0-1.8,0.7-2.2,1.8c-0.1,0.4-0.2,0.9-0.2,1.4v3.2h-1.5L600.7,498.2
		L600.7,498.2z"/>
	<path class="st2" d="M610.8,499.5h0.3v-0.1c0-1.4-0.5-1.9-1.7-1.9c-0.4,0-1.3,0.1-1.3,0.6v0.5h-1.4v-0.8c0-1.3,2-1.5,2.7-1.5
		c2.5,0,3.2,1.3,3.2,3.1v3.3c0,0.2,0.1,0.3,0.3,0.3h0.6v1.3h-1.4c-0.7,0-1-0.3-1-0.9c0-0.3,0-0.5,0-0.5l0,0c0,0-0.6,1.6-2.5,1.6
		c-1.4,0-2.7-0.8-2.7-2.4C606.1,499.7,609.5,499.5,610.8,499.5z M609.1,503.4c1.3,0,2.1-1.3,2.1-2.5v-0.3h-0.4
		c-1.1,0-3.2,0.1-3.2,1.5C607.6,502.8,608.1,503.4,609.1,503.4z"/>
	<path class="st2" d="M615.8,502.2c0,0,0.9,1.2,2.4,1.2c0.7,0,1.4-0.3,1.4-1c0-1.4-4.3-1.3-4.3-3.8c0-1.5,1.3-2.2,2.9-2.2
		c0.9,0,2.6,0.3,2.6,1.5v0.7h-1.4v-0.4c0-0.5-0.7-0.7-1.2-0.7c-0.9,0-1.5,0.3-1.5,0.9c0,1.5,4.3,1.2,4.3,3.8c0,1.4-1.2,2.3-2.9,2.3
		c-2.1,0-3.1-1.4-3.1-1.4L615.8,502.2z"/>
	<path class="st2" d="M623.6,498.2c0-0.2-0.1-0.3-0.3-0.3h-0.6v-1.3h1.4c0.7,0,1,0.3,1,0.8c0,0.2,0,0.4,0,0.4l0,0
		c0,0,0.7-1.4,2.6-1.4c2.1,0,3.5,1.7,3.5,4.1c0,2.5-1.5,4.1-3.6,4.1c-1.7,0-2.4-1.3-2.4-1.3l0,0c0,0,0,0.3,0,0.7v3.5h-1.5v-9.3
		H623.6z M627.3,503.3c1.2,0,2.3-1,2.3-2.8c0-1.7-0.9-2.8-2.2-2.8c-1.2,0-2.3,0.8-2.3,2.8C625,501.9,625.8,503.3,627.3,503.3z"/>
	<path class="st2" d="M637,496.4c2.3,0,4.2,1.7,4.2,4.1s-1.9,4.1-4.2,4.1s-4.2-1.7-4.2-4.1S634.7,496.4,637,496.4z M637,503.3
		c1.5,0,2.7-1.2,2.7-2.8c0-1.6-1.2-2.8-2.7-2.8s-2.7,1.2-2.7,2.8C634.3,502.1,635.6,503.3,637,503.3z"/>
	<path class="st2" d="M643.8,498.2c0-0.2-0.1-0.3-0.3-0.3h-0.6v-1.3h1.4c0.7,0,1,0.3,1,0.9v0.5c0,0.3,0,0.5,0,0.5l0,0
		c0.4-1.1,1.3-2,2.5-2c0.2,0,0.4,0,0.4,0v1.5c0,0-0.2,0-0.4,0c-1,0-1.8,0.7-2.2,1.8c-0.1,0.4-0.2,0.9-0.2,1.4v3.2h-1.5v-6.2H643.8z"
		/>
	<path class="st2" d="M650.5,497.8h-1v-1.2h1.1v-2.2h1.5v2.2h1.9v1.2h-2v3.6c0,1.6,1.1,1.8,1.7,1.8c0.2,0,0.4,0,0.4,0v1.3
		c0,0-0.2,0-0.5,0c-1,0-3-0.3-3-2.9v-3.8H650.5z"/>
	<path class="st2" d="M660.4,499.5h0.3v-0.1c0-1.4-0.5-1.9-1.7-1.9c-0.4,0-1.3,0.1-1.3,0.6v0.5h-1.4v-0.8c0-1.3,2-1.5,2.7-1.5
		c2.5,0,3.2,1.3,3.2,3.1v3.3c0,0.2,0.1,0.3,0.3,0.3h0.6v1.3h-1.4c-0.7,0-1-0.3-1-0.9c0-0.3,0-0.5,0-0.5l0,0c0,0-0.6,1.6-2.5,1.6
		c-1.4,0-2.7-0.8-2.7-2.4C655.7,499.7,659.1,499.5,660.4,499.5z M658.7,503.4c1.3,0,2.1-1.3,2.1-2.5v-0.3h-0.4
		c-1.1,0-3.2,0.1-3.2,1.5C657.2,502.8,657.7,503.4,658.7,503.4z"/>
	<path class="st2" d="M665.5,497.8h-1v-1.2h1.1v-2.2h1.5v2.2h1.9v1.2h-2v3.6c0,1.6,1.1,1.8,1.7,1.8c0.2,0,0.4,0,0.4,0v1.3
		c0,0-0.2,0-0.5,0c-1,0-3-0.3-3-2.9v-3.8H665.5z"/>
	<path class="st2" d="M674.9,496.4c2.3,0,4.2,1.7,4.2,4.1s-1.9,4.1-4.2,4.1s-4.2-1.7-4.2-4.1S672.5,496.4,674.9,496.4z M674.9,503.3
		c1.5,0,2.7-1.2,2.7-2.8c0-1.6-1.2-2.8-2.7-2.8s-2.7,1.2-2.7,2.8C672.2,502.1,673.4,503.3,674.9,503.3z"/>
	<path class="st2" d="M681.2,502.8h1.5v1.6h-1.5V502.8z"/>
</g>
<g>
	<path class="st3" d="M159.4,444c0-1.2-0.9-2.1-2.3-2.1c-1.2,0-2.1,0.6-2.1,1.3v0.6h-1.7v-1.1c0-1.7,2.3-2.5,3.9-2.5
		c2.4,0,4.2,1.6,4.2,3.8c0,4.6-6.8,4.7-6.8,7.8c0,0.3,0.2,0.4,0.5,0.4h4.7c0.3,0,0.4-0.2,0.4-0.4v-0.9h1.7v1.7
		c0,0.9-0.4,1.2-1.2,1.2h-6.8c-1,0-1.3-0.5-1.3-1.5C152.6,447.2,159.4,447.6,159.4,444z"/>
	<path class="st3" d="M163.7,447c0-3.8,1.2-6.9,4.7-6.9c3.6,0,4.7,3,4.7,6.9s-1.2,6.9-4.7,6.9C164.8,453.9,163.7,450.8,163.7,447z
		 M171.2,447c0-2.9-0.6-5.2-2.8-5.2s-2.8,2.3-2.8,5.2c0,2.9,0.6,5.2,2.8,5.2C170.6,452.2,171.2,449.9,171.2,447z"/>
	<path class="st3" d="M175.1,452.1h2.9v-8.6c0-0.4,0-0.8,0-0.8l0,0c0,0-0.2,0.3-0.6,0.8l-1.2,1.2l-1.1-1.2l3.2-3.1h1.7v11.7h2.9v1.6
		h-7.7L175.1,452.1L175.1,452.1z"/>
	<path class="st3" d="M190.9,444c0-1.2-0.9-2.1-2.3-2.1c-1.2,0-2.1,0.6-2.1,1.3v0.6h-1.7v-1.1c0-1.7,2.3-2.5,3.9-2.5
		c2.4,0,4.2,1.6,4.2,3.8c0,4.6-6.8,4.7-6.8,7.8c0,0.3,0.2,0.4,0.5,0.4h4.7c0.3,0,0.4-0.2,0.4-0.4v-0.9h1.7v1.7
		c0,0.9-0.4,1.2-1.2,1.2h-6.8c-1,0-1.3-0.5-1.3-1.5C184.1,447.2,190.9,447.6,190.9,444z"/>
</g>
<g>
	<path class="st3" d="M100.3,9.7c0-1.2-0.9-2-2.2-2c-1.1,0-2,0.6-2,1.2v0.6h-1.7V8.4c0-1.7,2.2-2.3,3.7-2.3c2.3,0,4,1.5,4,3.7
		c0,4.4-6.4,4.4-6.4,7.4c0,0.3,0.1,0.3,0.5,0.3h4.5c0.3,0,0.4-0.1,0.4-0.4v-0.8h1.7v1.6c0,0.8-0.3,1.2-1.2,1.2H95
		c-1,0-1.2-0.4-1.2-1.5C93.8,12.8,100.3,13.2,100.3,9.7z"/>
	<path class="st3" d="M106.3,12.1L106.3,12.1c0,0-1.6-0.9-1.6-2.6c0-1.8,1.4-3.4,4-3.4c2.4,0,4,1.5,4,3.4s-1.5,3-1.5,3l0,0
		c1.2,0.7,1.9,1.5,1.9,2.9c0,2-1.8,3.7-4.4,3.7c-2.4,0-4.4-1.5-4.4-3.9C104.2,13.2,106.3,12.1,106.3,12.1z M108.7,17.6
		c1.3,0,2.6-0.9,2.6-2.1c0-1.1-1-1.6-2.1-2.1c-0.5-0.2-1.2-0.5-1.3-0.5c-0.5,0-1.7,1-1.7,2.4C106,16.7,107.3,17.6,108.7,17.6z
		 M109.6,11.8c0.4,0,1.4-1.1,1.4-2.2c0-1.2-0.9-1.9-2.2-1.9c-1.4,0-2.2,0.8-2.2,1.8c0,1.1,1,1.5,2.1,2
		C108.9,11.6,109.4,11.8,109.6,11.8z"/>
	<path class="st3" d="M101.3,67.7c0-1.2-0.9-2-2.2-2c-1.1,0-2,0.6-2,1.2v0.6h-1.7v-1.1c0-1.7,2.2-2.3,3.7-2.3c2.3,0,4,1.5,4,3.7
		c0,4.4-6.4,4.4-6.4,7.4c0,0.3,0.1,0.3,0.5,0.3h4.5c0.3,0,0.4-0.1,0.4-0.4v-0.8h1.7v1.6c0,0.8-0.3,1.2-1.2,1.2H96
		c-1,0-1.2-0.4-1.2-1.5C94.8,70.8,101.3,71.2,101.3,67.7z"/>
	<path class="st3" d="M110.9,67c0.4-0.7,0.7-1.2,0.7-1.2l0,0c0,0-0.3,0.1-0.9,0.1h-3.8c-0.3,0-0.4,0.1-0.4,0.4V67h-1.7v-1.6
		c0-0.8,0.3-1.2,1.1-1.2h7.7v1.2L107.5,77h-2L110.9,67z"/>
	<path class="st3" d="M100.5,125.7c0-1.2-0.9-2-2.2-2c-1.1,0-2,0.6-2,1.2v0.6h-1.7v-1.1c0-1.7,2.2-2.3,3.7-2.3c2.3,0,4,1.5,4,3.7
		c0,4.4-6.4,4.4-6.4,7.4c0,0.3,0.1,0.3,0.5,0.3h4.5c0.3,0,0.4-0.1,0.4-0.4v-0.8h1.7v1.6c0,0.8-0.3,1.2-1.2,1.2h-6.5
		c-1,0-1.2-0.4-1.2-1.5C94,128.8,100.5,129.2,100.5,125.7z"/>
	<path class="st3" d="M104.3,129.3c0-3.3,1.8-7.3,5.7-7.3c1.5,0,2.5,0.5,2.5,0.5l-0.6,1.5c0,0-0.8-0.4-1.8-0.4
		c-2.3,0-3.5,2.2-3.8,4.4l0,0c0.5-0.8,1.7-1.2,2.8-1.2c2.4,0,4,1.8,4,4.1c0,2.5-1.7,4.2-4.1,4.2
		C106.4,135.2,104.3,132.9,104.3,129.3z M109.1,133.6c1.5,0,2.3-1.1,2.3-2.6s-1-2.6-2.6-2.6c-1.4,0-2.6,0.9-2.6,1.8
		C106.2,131.7,107.4,133.6,109.1,133.6z"/>
	<path class="st3" d="M100.2,183.7c0-1.2-0.9-2-2.2-2c-1.1,0-2,0.6-2,1.2v0.6h-1.7v-1.1c0-1.7,2.2-2.3,3.7-2.3c2.3,0,4,1.5,4,3.7
		c0,4.4-6.4,4.4-6.4,7.4c0,0.3,0.1,0.3,0.5,0.3h4.5c0.3,0,0.4-0.1,0.4-0.4v-0.8h1.7v1.6c0,0.8-0.3,1.2-1.2,1.2H95
		c-1,0-1.2-0.4-1.2-1.5C93.7,186.8,100.2,187.2,100.2,183.7z"/>
	<path class="st3" d="M105.3,190.1c0,0,1,1.4,3,1.4c1.6,0,2.7-1.1,2.7-2.5c0-1.6-1.4-2.6-3-2.6c-1.4,0-2.4,0.6-2.4,0.6l-0.7-0.3
		l0.5-5.3c0.1-0.8,0.3-1.2,1.2-1.2h4.4c0.8,0,1.2,0.3,1.2,1.2v1.6h-1.6v-0.8c0-0.3-0.1-0.4-0.4-0.4h-2.7c-0.3,0-0.4,0.1-0.4,0.4
		l-0.3,2.3c0,0.4-0.1,0.7-0.1,0.7l0,0c0,0,0.7-0.4,1.6-0.4c2.7,0,4.5,1.9,4.5,4.2c0,2.2-1.8,4.2-4.6,4.2c-2.6,0-3.9-1.8-3.9-1.8
		L105.3,190.1z"/>
	<path class="st3" d="M100.7,241.7c0-1.2-0.9-2-2.2-2c-1.1,0-2,0.6-2,1.2v0.6h-1.7v-1.1c0-1.7,2.2-2.3,3.7-2.3c2.3,0,4,1.5,4,3.7
		c0,4.4-6.4,4.4-6.4,7.4c0,0.3,0.1,0.3,0.5,0.3h4.5c0.3,0,0.4-0.1,0.4-0.4v-0.8h1.7v1.6c0,0.8-0.3,1.2-1.2,1.2h-6.5
		c-1,0-1.2-0.4-1.2-1.5C94.2,244.8,100.7,245.2,100.7,241.7z"/>
	<path class="st3" d="M103.8,246.5l5.7-8.2h2.1v7.8h2v1.5h-2v3.4h-1.8v-3.4h-6C103.8,247.6,103.8,246.5,103.8,246.5z M109.8,241.7
		c0-0.6,0.1-1.3,0.1-1.3l0,0c0,0-0.3,0.6-0.6,1.1l-2.8,3.8c-0.3,0.5-0.7,0.8-0.7,0.8l0,0c0,0,0.5-0.1,1.1-0.1h3L109.8,241.7
		L109.8,241.7z"/>
	<path class="st3" d="M100.9,299.7c0-1.2-0.9-2-2.2-2c-1.1,0-2,0.6-2,1.2v0.6H95v-1.1c0-1.7,2.2-2.3,3.7-2.3c2.3,0,4,1.5,4,3.7
		c0,4.4-6.4,4.4-6.4,7.4c0,0.3,0.1,0.3,0.5,0.3h4.5c0.3,0,0.4-0.1,0.4-0.4v-0.8h1.7v1.6c0,0.8-0.3,1.2-1.2,1.2h-6.5
		c-1,0-1.2-0.4-1.2-1.5C94.5,302.8,100.9,303.2,100.9,299.7z"/>
	<path class="st3" d="M105.5,306.1c0,0,1.3,1.4,3.2,1.4c1.4,0,2.5-1,2.5-2.3c0-1.4-1.3-2.3-2.7-2.3h-0.9l-0.4-1l2.6-3.3
		c0.4-0.5,0.7-0.8,0.7-0.8l0,0c0,0-0.4,0.1-1.1,0.1H107c-0.3,0-0.4,0.1-0.4,0.4v0.8h-1.7v-1.6c0-0.8,0.3-1.2,1.1-1.2h6.7v1.1l-3.3,4
		c1.7,0.2,3.6,1.3,3.6,3.7c0,2.1-1.7,4-4.4,4c-2.6,0-4.2-1.8-4.2-1.8L105.5,306.1z"/>
	<path class="st3" d="M100.4,357.7c0-1.2-0.9-2-2.2-2c-1.1,0-2,0.6-2,1.2v0.6h-1.7v-1.1c0-1.7,2.2-2.3,3.7-2.3c2.3,0,4,1.5,4,3.7
		c0,4.4-6.4,4.4-6.4,7.4c0,0.3,0.1,0.3,0.5,0.3h4.5c0.3,0,0.4-0.1,0.4-0.4v-0.8h1.7v1.6c0,0.8-0.3,1.2-1.2,1.2h-6.5
		c-1,0-1.2-0.4-1.2-1.5C93.9,360.8,100.4,361.2,100.4,357.7z"/>
	<path class="st3" d="M110.7,357.7c0-1.2-0.9-2-2.2-2c-1.1,0-2,0.6-2,1.2v0.6h-1.7v-1.1c0-1.7,2.2-2.3,3.7-2.3c2.3,0,4,1.5,4,3.7
		c0,4.4-6.4,4.4-6.4,7.4c0,0.3,0.1,0.3,0.5,0.3h4.5c0.3,0,0.4-0.1,0.4-0.4v-0.8h1.7v1.6c0,0.8-0.3,1.2-1.2,1.2h-6.5
		c-1,0-1.2-0.4-1.2-1.5C104.2,360.8,110.7,361.2,110.7,357.7z"/>
	<path class="st3" d="M101.6,415.7c0-1.2-0.9-2-2.2-2c-1.1,0-2,0.6-2,1.2v0.6h-1.7v-1.1c0-1.7,2.2-2.3,3.7-2.3c2.3,0,4,1.5,4,3.7
		c0,4.4-6.4,4.4-6.4,7.4c0,0.3,0.1,0.3,0.5,0.3h4.5c0.3,0,0.4-0.1,0.4-0.4v-0.8h1.7v1.6c0,0.8-0.3,1.2-1.2,1.2h-6.5
		c-1,0-1.2-0.4-1.2-1.5C95.1,418.8,101.6,419.2,101.6,415.7z"/>
	<path class="st3" d="M105.9,423.4h2.8v-8.2c0-0.4,0-0.8,0-0.8l0,0c0,0-0.1,0.3-0.6,0.7l-1.2,1.2l-1.1-1.1l3-3h1.6v11.2h2.8v1.5
		h-7.4L105.9,423.4L105.9,423.4z"/>
</g>
<g>
	<path class="st3" d="M299.4,443.6c0-1.2-0.9-2.1-2.3-2.1c-1.2,0-2.1,0.6-2.1,1.3v0.6h-1.7v-1.1c0-1.7,2.3-2.5,3.9-2.5
		c2.4,0,4.2,1.6,4.2,3.8c0,4.6-6.8,4.7-6.8,7.8c0,0.3,0.2,0.4,0.5,0.4h4.7c0.3,0,0.4-0.2,0.4-0.4v-0.9h1.7v1.7
		c0,0.9-0.4,1.2-1.2,1.2h-6.8c-1,0-1.3-0.5-1.3-1.5C292.6,446.9,299.4,447.3,299.4,443.6z"/>
	<path class="st3" d="M303.7,446.7c0-3.8,1.2-6.9,4.7-6.9c3.6,0,4.7,3,4.7,6.9s-1.2,6.9-4.7,6.9
		C304.8,453.6,303.7,450.5,303.7,446.7z M311.2,446.7c0-2.9-0.6-5.2-2.8-5.2c-2.2,0-2.8,2.3-2.8,5.2c0,2.9,0.6,5.2,2.8,5.2
		C310.6,451.9,311.2,449.6,311.2,446.7z"/>
	<path class="st3" d="M315.1,451.7h2.9v-8.6c0-0.4,0-0.8,0-0.8l0,0c0,0-0.2,0.3-0.6,0.8l-1.2,1.2l-1.1-1.2l3.2-3.1h1.7v11.7h2.9v1.6
		h-7.7L315.1,451.7L315.1,451.7z"/>
	<path class="st3" d="M324.8,450.3c0,0,1.3,1.5,3.4,1.5c1.4,0,2.6-1,2.6-2.4c0-1.5-1.3-2.4-2.9-2.4H327l-0.4-1l2.8-3.5
		c0.4-0.6,0.8-0.9,0.8-0.9l0,0c0,0-0.4,0.1-1.1,0.1h-2.6c-0.3,0-0.4,0.1-0.4,0.4v0.9h-1.7v-1.7c0-0.9,0.3-1.2,1.2-1.2h7v1.2
		l-3.5,4.2c1.7,0.2,3.8,1.3,3.8,3.9c0,2.2-1.8,4.2-4.6,4.2c-2.8,0-4.4-1.9-4.4-1.9L324.8,450.3z"/>
</g>
<g>
	<path class="st3" d="M440.1,444c0-1.2-0.9-2.1-2.3-2.1c-1.2,0-2.1,0.6-2.1,1.3v0.6H434v-1.1c0-1.7,2.3-2.5,3.9-2.5
		c2.4,0,4.2,1.6,4.2,3.8c0,4.6-6.8,4.7-6.8,7.8c0,0.3,0.2,0.4,0.5,0.4h4.7c0.3,0,0.4-0.2,0.4-0.4v-0.9h1.7v1.7
		c0,0.9-0.4,1.2-1.2,1.2h-6.8c-1,0-1.3-0.5-1.3-1.5C433.3,447.2,440.1,447.6,440.1,444z"/>
	<path class="st3" d="M444.4,447c0-3.8,1.2-6.9,4.7-6.9c3.6,0,4.7,3,4.7,6.9s-1.2,6.9-4.7,6.9C445.5,453.9,444.4,450.8,444.4,447z
		 M451.9,447c0-2.9-0.6-5.2-2.8-5.2c-2.2,0-2.8,2.3-2.8,5.2c0,2.9,0.6,5.2,2.8,5.2S451.9,449.9,451.9,447z"/>
	<path class="st3" d="M455.7,452.1h2.9v-8.6c0-0.4,0-0.8,0-0.8l0,0c0,0-0.2,0.3-0.6,0.8l-1.2,1.2l-1.1-1.2l3.2-3.1h1.7v11.7h2.9v1.6
		h-7.7L455.7,452.1L455.7,452.1z"/>
	<path class="st3" d="M464.1,448.9l6-8.6h2.2v8.2h2.1v1.6h-2.1v3.5h-1.9v-3.5h-6.3L464.1,448.9L464.1,448.9z M470.4,443.9
		c0-0.6,0.1-1.4,0.1-1.4l0,0c0,0-0.3,0.6-0.7,1.1l-2.9,4c-0.3,0.5-0.7,0.9-0.7,0.9l0,0c0,0,0.5-0.1,1.1-0.1h3.1V443.9z"/>
</g>
<g>
	<path class="st3" d="M581.8,444c0-1.2-0.9-2.1-2.3-2.1c-1.2,0-2.1,0.6-2.1,1.3v0.6h-1.7v-1.1c0-1.7,2.3-2.5,3.9-2.5
		c2.4,0,4.2,1.6,4.2,3.8c0,4.6-6.8,4.7-6.8,7.8c0,0.3,0.2,0.4,0.5,0.4h4.7c0.3,0,0.4-0.2,0.4-0.4v-0.9h1.7v1.7
		c0,0.9-0.4,1.2-1.2,1.2h-6.8c-1,0-1.3-0.5-1.3-1.5C575,447.2,581.8,447.6,581.8,444z"/>
	<path class="st3" d="M586,447c0-3.8,1.2-6.9,4.7-6.9c3.6,0,4.7,3,4.7,6.9s-1.2,6.9-4.7,6.9S586,450.8,586,447z M593.6,447
		c0-2.9-0.6-5.2-2.8-5.2s-2.8,2.3-2.8,5.2c0,2.9,0.6,5.2,2.8,5.2C592.9,452.2,593.6,449.9,593.6,447z"/>
	<path class="st3" d="M597.4,452.1h2.9v-8.6c0-0.4,0-0.8,0-0.8l0,0c0,0-0.2,0.3-0.6,0.8l-1.2,1.2l-1.1-1.2l3.2-3.1h1.7v11.7h2.9v1.6
		h-7.7v-1.6H597.4z"/>
	<path class="st3" d="M607.6,450.7c0,0,1.1,1.5,3.1,1.5c1.7,0,2.9-1.2,2.9-2.7c0-1.7-1.4-2.7-3.2-2.7c-1.5,0-2.5,0.7-2.5,0.7
		l-0.8-0.4l0.5-5.5c0.1-0.9,0.4-1.2,1.2-1.2h4.7c0.9,0,1.2,0.4,1.2,1.2v1.7H613v-0.9c0-0.3-0.2-0.4-0.4-0.4h-2.8
		c-0.3,0-0.4,0.1-0.4,0.4l-0.3,2.4c0,0.4-0.1,0.7-0.1,0.7l0,0c0,0,0.7-0.4,1.7-0.4c2.9,0,4.8,1.9,4.8,4.4c0,2.3-1.9,4.4-4.8,4.4
		c-2.8,0-4.1-1.9-4.1-1.9L607.6,450.7z"/>
</g>
<g>
	<path class="st3" d="M722.5,444c0-1.2-0.9-2.1-2.3-2.1c-1.2,0-2.1,0.6-2.1,1.3v0.6h-1.7v-1.1c0-1.7,2.3-2.5,3.9-2.5
		c2.4,0,4.2,1.6,4.2,3.8c0,4.6-6.8,4.7-6.8,7.8c0,0.3,0.2,0.4,0.5,0.4h4.7c0.3,0,0.4-0.2,0.4-0.4v-0.9h1.7v1.7
		c0,0.9-0.4,1.2-1.2,1.2H717c-1,0-1.3-0.5-1.3-1.5C715.7,447.2,722.5,447.6,722.5,444z"/>
	<path class="st3" d="M726.8,447c0-3.8,1.2-6.9,4.7-6.9c3.6,0,4.7,3,4.7,6.9s-1.2,6.9-4.7,6.9C727.9,453.9,726.8,450.8,726.8,447z
		 M734.3,447c0-2.9-0.6-5.2-2.8-5.2s-2.8,2.3-2.8,5.2c0,2.9,0.6,5.2,2.8,5.2S734.3,449.9,734.3,447z"/>
	<path class="st3" d="M738.2,452.1h2.9v-8.6c0-0.4,0-0.8,0-0.8l0,0c0,0-0.2,0.3-0.6,0.8l-1.2,1.2l-1.1-1.2l3.2-3.1h1.7v11.7h2.9v1.6
		h-7.7v-1.6H738.2z"/>
	<path class="st3" d="M747,447.8c0-3.5,1.9-7.7,6-7.7c1.6,0,2.6,0.5,2.6,0.5l-0.6,1.6c0,0-0.9-0.4-1.9-0.4c-2.4,0-3.7,2.3-4,4.6l0,0
		c0.5-0.8,1.8-1.3,3-1.3c2.5,0,4.2,1.9,4.2,4.4c0,2.6-1.8,4.5-4.3,4.5C749.2,453.9,747,451.5,747,447.8z M752,452.2
		c1.6,0,2.5-1.2,2.5-2.7c0-1.6-1-2.8-2.7-2.8c-1.5,0-2.7,0.9-2.7,1.9C749,450.3,750.3,452.2,752,452.2z"/>
</g>
<g>
	<path class="st3" d="M867.1,444c0-1.2-0.9-2.1-2.3-2.1c-1.2,0-2.1,0.6-2.1,1.3v0.6H861v-1.1c0-1.7,2.3-2.5,3.9-2.5
		c2.4,0,4.2,1.6,4.2,3.8c0,4.6-6.8,4.7-6.8,7.8c0,0.3,0.2,0.4,0.5,0.4h4.7c0.3,0,0.4-0.2,0.4-0.4v-0.9h1.7v1.7
		c0,0.9-0.4,1.2-1.2,1.2h-6.8c-1,0-1.3-0.5-1.3-1.5C860.3,447.2,867.1,447.6,867.1,444z"/>
	<path class="st3" d="M871.3,447c0-3.8,1.2-6.9,4.7-6.9c3.6,0,4.7,3,4.7,6.9s-1.2,6.9-4.7,6.9S871.3,450.8,871.3,447z M878.9,447
		c0-2.9-0.6-5.2-2.8-5.2s-2.8,2.3-2.8,5.2c0,2.9,0.6,5.2,2.8,5.2C878.2,452.2,878.9,449.9,878.9,447z"/>
	<path class="st3" d="M882.7,452.1h2.9v-8.6c0-0.4,0-0.8,0-0.8l0,0c0,0-0.2,0.3-0.6,0.8l-1.2,1.2l-1.1-1.2l3.2-3.1h1.7v11.7h2.9v1.6
		h-7.7v-1.6H882.7z"/>
	<path class="st3" d="M897.7,443.2c0.4-0.8,0.8-1.2,0.8-1.2l0,0c0,0-0.3,0.1-1,0.1h-4c-0.3,0-0.4,0.1-0.4,0.4v0.9h-1.7v-1.7
		c0-0.9,0.3-1.2,1.2-1.2h8.1v1.3l-6.5,12.1h-2.1L897.7,443.2z"/>
</g>
</svg>
