<?xml version="1.0" encoding="utf-8"?>
<!-- Generator: Adobe Illustrator 22.0.0, SVG Export Plug-In . SVG Version: 6.00 Build 0)  -->
<svg version="1.1" baseProfile="basic" id="Livello_1"
	 xmlns="http://www.w3.org/2000/svg" xmlns:xlink="http://www.w3.org/1999/xlink" x="0px" y="0px" viewBox="0 0 1008 523"
	 xml:space="preserve">
<style type="text/css">
	.st0{fill:#72C2E1;}
	.st1{fill:#00295A;}
	.st2{fill:#FFFFFF;}
</style>
<g>
	<path class="st0" d="M716.7,9C773.2,9,819,54.8,819,111.3s-45.8,102.3-102.3,102.3s-102.3-45.8-102.3-102.3S660.2,9,716.7,9z"/>
	<g>
		<path class="st1" d="M631.2,93.3h16.6v4.9h-16.6V93.3z"/>
		<path class="st1" d="M653.7,107.1h8.8v-26c0-1.3,0.1-2.5,0.1-2.5h-0.1c0,0-0.5,0.9-1.9,2.3l-3.8,3.7l-3.4-3.5l9.6-9.3h5.2V107h8.8
			v4.9h-23.3L653.7,107.1L653.7,107.1z"/>
		<path class="st1" d="M678.6,97.7l18.1-25.9h6.5v24.6h6.3v4.9h-6.3v10.6h-5.7v-10.6h-18.9L678.6,97.7L678.6,97.7z M697.6,82.6
			c0-1.8,0.2-4.1,0.2-4.1h-0.1c0,0-1,1.9-2,3.4L686.9,94c-1,1.4-2.1,2.6-2.1,2.6v0.1c0,0,1.6-0.2,3.4-0.2h9.4L697.6,82.6L697.6,82.6
			z"/>
		<path class="st1" d="M720.1,106l-4.8,11.7H711l3.5-11.7H720.1z"/>
		<path class="st1" d="M732.4,90.2L732.4,90.2c0-0.1-4.9-2.7-4.9-8.3s4.4-10.7,12.5-10.7c7.7,0,12.6,4.6,12.6,10.9
			c0,5.9-4.8,9.6-4.8,9.6v0.1c3.6,2.1,6,4.9,6,9.2c0,6.3-5.7,11.8-13.9,11.8c-7.6,0-14-4.7-14-12.2
			C725.8,93.9,732.4,90.2,732.4,90.2z M739.8,107.5c4.2,0,8.1-2.8,8.1-6.8c0-3.5-3-5.1-6.8-6.6c-1.5-0.6-3.7-1.5-4.2-1.5
			c-1.4,0-5.5,3.3-5.5,7.6C731.6,104.7,735.4,107.5,739.8,107.5z M742.8,89.3c1.4,0,4.3-3.4,4.3-6.9c0-3.7-3-6-7.1-6
			c-4.4,0-6.9,2.5-6.9,5.7c0,3.5,3,4.9,6.6,6.3C740.4,88.6,742.1,89.3,742.8,89.3z"/>
		<path class="st1" d="M759.5,79.5c0-4.6,3.8-8.4,8.6-8.4s8.6,3.8,8.6,8.4c0,4.7-3.9,8.4-8.6,8.4S759.5,84.2,759.5,79.5z
			 M791.1,71.8h5.3l-30.7,40.1h-5.3L791.1,71.8z M772.3,79.5c0-2.3-1.8-4.3-4.2-4.3s-4.2,1.9-4.2,4.3s1.8,4.2,4.2,4.2
			S772.3,81.9,772.3,79.5z M788.8,95.8c4.7,0,8.6,3.8,8.6,8.4c0,4.7-3.9,8.4-8.6,8.4c-4.8,0-8.6-3.8-8.6-8.4
			C780.1,99.6,783.9,95.8,788.8,95.8z M788.8,108.4c2.3,0,4.2-1.8,4.2-4.2c0-2.3-1.9-4.3-4.2-4.3c-2.4,0-4.2,1.9-4.2,4.3
			C784.5,106.6,786.4,108.4,788.8,108.4z"/>
		<path class="st2" d="M634.7,136.3c2.8,0,3.7,1.8,3.7,1.8l0,0c0,0,0-0.4,0-0.8v-3c0-0.4-0.2-0.5-0.5-0.5h-1v-2h2.3
			c1.1,0,1.5,0.4,1.5,1.5V146c0,0.4,0.2,0.5,0.5,0.5h1v2H640c-1,0-1.5-0.5-1.5-1.3c0-0.4,0-0.6,0-0.6l0,0c0,0-1,2.2-3.9,2.2
			c-3.2,0-5.3-2.5-5.3-6.3C629.3,138.8,631.5,136.3,634.7,136.3z M638.4,142.6c0-2.1-1.1-4.2-3.4-4.2c-1.9,0-3.4,1.6-3.4,4.3
			c0,2.6,1.4,4.3,3.4,4.3C636.8,146.9,638.4,145.6,638.4,142.6z"/>
		<path class="st2" d="M650.7,141.1h0.5V141c0-2.1-0.8-2.9-2.6-2.9c-0.6,0-2,0.1-2,0.9v0.7h-2.1v-1.2c0-2,3-2.2,4.1-2.2
			c3.9,0,4.9,2,4.9,4.7v5.1c0,0.4,0.2,0.5,0.5,0.5h1v2h-2.1c-1.1,0-1.5-0.5-1.5-1.4c0-0.4,0-0.7,0-0.7l0,0c0,0-0.9,2.4-3.8,2.4
			c-2.1,0-4.1-1.3-4.1-3.6C643.5,141.4,648.7,141.1,650.7,141.1z M648.1,147c1.9,0,3.2-2,3.2-3.8v-0.4h-0.6c-1.7,0-4.8,0.1-4.8,2.3
			C645.9,146.1,646.6,147,648.1,147z"/>
		<path class="st2" d="M657.5,134.4c0-0.4-0.2-0.5-0.5-0.5h-1v-2h2.3c1.1,0,1.5,0.4,1.5,1.5v12.7c0,0.4,0.2,0.5,0.5,0.5h1v2H659
			c-1.1,0-1.5-0.4-1.5-1.5V134.4z"/>
		<path class="st2" d="M677.5,136.4c0-1.5-1.1-2.6-2.9-2.6c-1.5,0-2.6,0.8-2.6,1.6v0.7h-2.2v-1.4c0-2.2,2.9-3.1,4.8-3.1
			c3,0,5.2,1.9,5.2,4.8c0,5.7-8.4,5.8-8.4,9.7c0,0.3,0.2,0.4,0.6,0.4h5.9c0.3,0,0.5-0.2,0.5-0.5v-1.1h2.2v2.1c0,1.1-0.4,1.5-1.5,1.5
			h-8.5c-1.3,0-1.6-0.6-1.6-1.9C669.1,140.5,677.5,140.9,677.5,136.4z"/>
		<path class="st2" d="M682.8,140.2c0-4.8,1.4-8.6,5.9-8.6c4.4,0,5.9,3.8,5.9,8.6s-1.4,8.6-5.9,8.6
			C684.3,148.8,682.8,145,682.8,140.2z M692.2,140.2c0-3.6-0.8-6.4-3.5-6.4s-3.5,2.8-3.5,6.4c0,3.6,0.8,6.5,3.5,6.5
			S692.2,143.8,692.2,140.2z"/>
		<path class="st2" d="M697,146.5h3.7v-10.8c0-0.5,0-1,0-1l0,0c0,0-0.2,0.4-0.8,1l-1.6,1.5l-1.4-1.5l4-3.9h2.1v14.6h3.6v2H697V146.5
			z"/>
		<path class="st2" d="M716.8,136.4c0-1.5-1.1-2.6-2.9-2.6c-1.5,0-2.6,0.8-2.6,1.6v0.7h-2.2v-1.4c0-2.2,2.9-3.1,4.8-3.1
			c3,0,5.2,1.9,5.2,4.8c0,5.7-8.4,5.8-8.4,9.7c0,0.3,0.2,0.4,0.6,0.4h5.9c0.3,0,0.5-0.2,0.5-0.5v-1.1h2.2v2.1c0,1.1-0.4,1.5-1.5,1.5
			h-8.5c-1.3,0-1.6-0.6-1.6-1.9C708.3,140.5,716.8,140.9,716.8,136.4z"/>
		<path class="st2" d="M735.3,141.1h0.5V141c0-2.1-0.8-2.9-2.6-2.9c-0.6,0-2,0.1-2,0.9v0.7h-2.1v-1.2c0-2,3-2.2,4.1-2.2
			c3.9,0,4.9,2,4.9,4.7v5.1c0,0.4,0.2,0.5,0.5,0.5h1v2h-2.1c-1.1,0-1.5-0.5-1.5-1.4c0-0.4,0-0.7,0-0.7l0,0c0,0-0.9,2.4-3.8,2.4
			c-2.1,0-4.1-1.3-4.1-3.6C728.1,141.4,733.3,141.1,735.3,141.1z M732.7,147c1.9,0,3.2-2,3.2-3.8v-0.4h-0.6c-1.7,0-4.8,0.1-4.8,2.3
			C730.5,146.1,731.2,147,732.7,147z"/>
		<path class="st2" d="M742.1,134.4c0-0.4-0.2-0.5-0.5-0.5h-1v-2h2.3c1.1,0,1.5,0.4,1.5,1.5v12.7c0,0.4,0.2,0.5,0.5,0.5h1v2h-2.3
			c-1.1,0-1.5-0.4-1.5-1.5V134.4z"/>
		<path class="st2" d="M762.1,136.4c0-1.5-1.1-2.6-2.9-2.6c-1.5,0-2.6,0.8-2.6,1.6v0.7h-2.2v-1.4c0-2.2,2.9-3.1,4.8-3.1
			c3,0,5.2,1.9,5.2,4.8c0,5.7-8.4,5.8-8.4,9.7c0,0.3,0.2,0.4,0.6,0.4h5.9c0.3,0,0.5-0.2,0.5-0.5v-1.1h2.2v2.1c0,1.1-0.4,1.5-1.5,1.5
			h-8.5c-1.3,0-1.6-0.6-1.6-1.9C753.7,140.5,762.1,140.9,762.1,136.4z"/>
		<path class="st2" d="M767.4,140.2c0-4.8,1.4-8.6,5.9-8.6c4.4,0,5.9,3.8,5.9,8.6s-1.4,8.6-5.9,8.6
			C768.9,148.8,767.4,145,767.4,140.2z M776.8,140.2c0-3.6-0.8-6.4-3.5-6.4s-3.5,2.8-3.5,6.4c0,3.6,0.8,6.5,3.5,6.5
			S776.8,143.8,776.8,140.2z"/>
		<path class="st2" d="M781.6,146.5h3.7v-10.8c0-0.5,0-1,0-1l0,0c0,0-0.2,0.4-0.8,1l-1.6,1.5l-1.4-1.5l4-3.9h2.1v14.6h3.6v2h-9.6
			V146.5z"/>
		<path class="st2" d="M792.6,141.2c0-4.3,2.3-9.6,7.5-9.6c2,0,3.2,0.7,3.2,0.7l-0.8,2c0,0-1.1-0.5-2.4-0.5c-3,0-4.6,2.9-5,5.7l0,0
			c0.7-1,2.2-1.6,3.7-1.6c3.2,0,5.3,2.4,5.3,5.4c0,3.3-2.2,5.6-5.4,5.6C795.3,148.8,792.6,145.8,792.6,141.2z M798.8,146.7
			c1.9,0,3.1-1.5,3.1-3.4c0-2-1.3-3.4-3.4-3.4c-1.9,0-3.4,1.1-3.4,2.3C795.1,144.3,796.7,146.7,798.8,146.7z"/>
	</g>
</g>
</svg>
