<?xml version="1.0" encoding="utf-8"?>
<!-- Generator: Adobe Illustrator 22.0.0, SVG Export Plug-In . SVG Version: 6.00 Build 0)  -->
<svg version="1.1" baseProfile="basic" id="Layer_1"
	 xmlns="http://www.w3.org/2000/svg" xmlns:xlink="http://www.w3.org/1999/xlink" x="0px" y="0px" viewBox="0 0 47 47"
	 xml:space="preserve">
<style type="text/css">
	.st0{fill:#72C2E1;}
</style>
<g id="rotaia1">
	<path class="st0" d="M23,11.8c-6.4,0-11.6,5.2-11.6,11.6C11.4,29.8,16.6,35,23,35c6.4,0,11.6-5.2,11.6-11.6S29.4,11.8,23,11.8z
		 M23,33.3c-5.5,0-9.9-4.5-9.9-9.9c0-5.5,4.4-9.9,9.9-9.9s9.9,4.4,9.9,9.9C32.9,28.9,28.5,33.3,23,33.3z"/>
	<path class="st0" d="M43,18.4h-1.7c-0.4-1.6-1.1-3.1-1.9-4.5l1.2-1.2c0.4-0.4,0.7-1,0.7-1.6s-0.2-1.2-0.7-1.6l-3.8-3.8
		c-0.9-0.9-2.4-0.9-3.3,0l-1.2,1.2c-1.4-0.8-2.9-1.4-4.5-1.9V3.3c0-1.3-1-2.3-2.3-2.3h-5.3c-1.3,0-2.3,1-2.3,2.3V5
		c-1.6,0.4-3.1,1.1-4.5,1.9l-1.2-1.2c-0.9-0.9-2.4-0.9-3.3,0L5.1,9.5c-0.4,0.4-0.7,1-0.7,1.6s0.2,1.2,0.7,1.6l1.2,1.2
		c-0.8,1.4-1.4,2.9-1.9,4.5H3c-1.3,0-2.3,1-2.3,2.3V26c0,1.3,1,2.3,2.3,2.3h1.7c0.4,1.6,1.1,3.1,1.9,4.5L5.4,34
		c-0.4,0.4-0.7,1-0.7,1.6s0.2,1.2,0.7,1.6L9.2,41c0.9,0.9,2.4,0.9,3.3,0l1.2-1.2c1.4,0.8,2.9,1.4,4.5,1.9v1.7c0,1.3,1,2.3,2.3,2.3
		h5.3c1.3,0,2.3-1,2.3-2.3v-1.7c1.6-0.4,3.1-1.1,4.5-1.9l1.2,1.2c0.9,0.9,2.4,0.9,3.3,0l3.8-3.8c0.4-0.4,0.7-1,0.7-1.6
		s-0.2-1.2-0.7-1.6l-1.2-1.2c0.8-1.4,1.4-2.9,1.9-4.5h1.7c1.3,0,2.3-1,2.3-2.3v-5.3C45.3,19.5,44.3,18.4,43,18.4z M43.7,26.1
		c0,0.4-0.3,0.6-0.6,0.6h-3L40,27.3c-0.4,1.8-1.2,3.6-2.2,5.2l-0.3,0.6l2.1,2.1c0.3,0.3,0.3,0.7,0,0.9l-3.8,3.8
		c-0.3,0.3-0.7,0.3-0.9,0l-2.1-2.1l-0.6,0.3c-1.6,1-3.4,1.7-5.2,2.2l-0.6,0.1v3c0,0.4-0.3,0.6-0.6,0.6h-5.3c-0.4,0-0.6-0.3-0.6-0.6
		v-3l-0.6-0.1c-1.8-0.4-3.6-1.2-5.2-2.2l-0.6-0.3l-2.1,2.1c-0.3,0.3-0.7,0.3-0.9,0l-3.8-3.8c-0.3-0.3-0.3-0.7,0-0.9l2.1-2.1
		l-0.3-0.6c-1-1.6-1.7-3.4-2.2-5.2l-0.1-0.6h-3c-0.4,0-0.6-0.3-0.6-0.6v-5.3c0-0.4,0.3-0.6,0.6-0.6h3l0.1-0.6
		c0.4-1.8,1.2-3.6,2.2-5.2l0.3-0.6l-2.1-2.1c-0.3-0.3-0.3-0.7,0-0.9L10.5,7c0.3-0.3,0.7-0.3,0.9,0l2.1,2.1l0.6-0.3
		c1.6-1,3.4-1.7,5.2-2.2l0.6-0.1v-3c0-0.4,0.3-0.6,0.6-0.6h5.3c0.4,0,0.6,0.3,0.6,0.6v3L27,6.6c1.8,0.4,3.6,1.2,5.2,2.2l0.6,0.3
		L34.9,7c0.3-0.3,0.7-0.3,0.9,0l3.8,3.8c0.3,0.3,0.3,0.7,0,0.9l-2.1,2.1l0.3,0.6c1,1.6,1.7,3.4,2.2,5.2l0.1,0.6h3
		c0.4,0,0.6,0.3,0.6,0.6V26.1z"/>
	<path class="st0" d="M23,15.1c-4.6,0-8.3,3.7-8.3,8.3s3.7,8.3,8.3,8.3s8.3-3.7,8.3-8.3S27.6,15.1,23,15.1z M23,30
		c-3.6,0-6.6-3-6.6-6.6s3-6.6,6.6-6.6s6.6,3,6.6,6.6S26.6,30,23,30z"/>
</g>
</svg>
