<?xml version="1.0" encoding="utf-8"?>
<!-- Generator: Adobe Illustrator 23.0.0, SVG Export Plug-In . SVG Version: 6.00 Build 0)  -->
<svg version="1.1" id="Livello_1" xmlns="http://www.w3.org/2000/svg" xmlns:xlink="http://www.w3.org/1999/xlink" x="0px" y="0px"
	 viewBox="0 0 1164 509" style="enable-background:new 0 0 1164 509;" xml:space="preserve">
<style type="text/css">
	.st0{filter:url(#Adobe_OpacityMaskFilter);}
	.st1{fill:url(#SVGID_2_);}
	.st2{fill:url(#SVGID_3_);}
	.st3{opacity:0.1;mask:url(#SVGID_1_);}
	.st4{fill:none;stroke:#404040;stroke-width:1.2795;stroke-miterlimit:10;}
	.st5{fill:none;stroke:#404040;stroke-width:1.2795;stroke-miterlimit:10;stroke-dasharray:3.3312,3.3312;}
	.st6{fill:#404040;}
	.st7{fill:none;stroke:#000000;stroke-width:0.853;stroke-miterlimit:10;}
	.st8{fill:none;stroke:#000000;stroke-width:0.9789;stroke-miterlimit:10;}
	.st9{fill:none;stroke:#000000;stroke-width:1.2795;stroke-miterlimit:10;}
	.st10{fill:none;stroke:#000000;stroke-width:1.2795;stroke-miterlimit:10;stroke-dasharray:3.3404,3.3404;}
	.st11{fill:#868686;}
	.st12{fill:#9E9E9E;}
	.st13{fill:none;stroke:#CECECE;stroke-miterlimit:10;}
	.st14{fill:none;stroke:#A2A2A2;stroke-miterlimit:10;}
	.st15{fill:none;stroke:#DBDBDB;stroke-miterlimit:10;}
	.st16{fill:none;stroke:#D2D2D2;stroke-miterlimit:10;}
	.st17{fill:none;stroke:#CDCDCD;stroke-miterlimit:10;}
	.st18{fill:none;stroke:#000000;stroke-width:0.738;stroke-miterlimit:10;}
	.st19{fill:#666666;}
	.st20{fill:#4F4F4F;}
	.st21{fill:#7B7B7B;}
	.st22{fill-rule:evenodd;clip-rule:evenodd;fill:#777777;}
	.st23{fill:#A2A2A2;}
	.st24{fill:#CDCDCD;}
	.st25{fill:#DBDBDB;}
	.st26{fill:#CECECE;}
	.st27{fill:#D2D2D2;}
	.st28{fill:#FFFFFF;}
	.st29{fill:none;stroke:#EDEDED;stroke-width:0.853;stroke-miterlimit:10;}
	.st30{fill:#EBEBEB;}
	.st31{clip-path:url(#SVGID_5_);}
	.st32{fill:none;stroke:#636362;stroke-width:1.2795;stroke-miterlimit:10;}
	.st33{fill:none;stroke:#636362;stroke-width:1.2795;stroke-miterlimit:10;stroke-dasharray:3.3312,3.3312;}
	.st34{fill:#636362;}
	.st35{fill:#12100B;}
	.st36{fill:none;stroke:#1D1D1B;stroke-width:0.853;stroke-miterlimit:10;}
	.st37{fill:none;stroke:#12100B;stroke-width:0.9789;stroke-miterlimit:10;}
	.st38{fill:none;stroke:#1D1D1B;stroke-width:1.2795;stroke-miterlimit:10;}
	.st39{fill:none;stroke:#1D1D1B;stroke-width:1.2795;stroke-miterlimit:10;stroke-dasharray:3.3404,3.3404;}
	.st40{fill:#1D1D1B;}
	.st41{fill:#00295A;}
	.st42{fill:#EE7900;}
	.st43{fill:#009C3D;}
	.st44{fill:none;stroke:#F6CB37;stroke-miterlimit:10;}
	.st45{fill:none;stroke:#AC9EAD;stroke-miterlimit:10;}
	.st46{fill:none;stroke:#82C3E3;stroke-miterlimit:10;}
	.st47{fill:none;stroke:#B4CC6F;stroke-miterlimit:10;}
	.st48{fill:none;stroke:#D9C086;stroke-miterlimit:10;}
	.st49{fill:none;stroke:#1D1D1B;stroke-width:0.738;stroke-miterlimit:10;}
	.st50{fill:none;stroke:#1D1D1B;stroke-width:0.7601;stroke-miterlimit:10;}
	.st51{fill:#E40077;}
	.st52{fill:#E30520;}
	.st53{fill:#00883D;}
	.st54{fill-rule:evenodd;clip-rule:evenodd;fill:#EA6508;}
	.st55{fill:#AC9EAD;}
	.st56{fill:#D9C086;}
	.st57{fill:#72C2E1;}
	.st58{fill:#F6CB37;}
	.st59{fill:#B4CC6F;}
	.st60{fill:none;stroke:#ECECEC;stroke-width:0.853;stroke-miterlimit:10;}
	.st61{fill:#EBEAE9;}
	.st62{fill:none;stroke:#72C2E1;stroke-miterlimit:10;}
	.st63{fill:#DF0514;}
</style>
<g>
	<defs>
		<filter id="Adobe_OpacityMaskFilter" filterUnits="userSpaceOnUse" x="18.1" y="27" width="444.1" height="461.9">
			<feColorMatrix  type="matrix" values="1 0 0 0 0  0 1 0 0 0  0 0 1 0 0  0 0 0 1 0"/>
		</filter>
	</defs>
	<mask maskUnits="userSpaceOnUse" x="18.1" y="27" width="444.1" height="461.9" id="SVGID_1_">
		<g class="st0">
			<g>
				
					<radialGradient id="SVGID_2_" cx="229.5029" cy="200.6913" r="220.3333" gradientTransform="matrix(1.0847 0 0 1.0955 -15.753 34.4486)" gradientUnits="userSpaceOnUse">
					<stop  offset="0" style="stop-color:#FFFFFF"/>
					<stop  offset="1" style="stop-color:#000000"/>
				</radialGradient>
				<rect x="-5.8" y="12.9" class="st1" width="478" height="482.8"/>
				
					<radialGradient id="SVGID_3_" cx="229.5029" cy="200.6913" r="220.3333" gradientTransform="matrix(1.0847 0 0 1.0955 -15.753 34.4486)" gradientUnits="userSpaceOnUse">
					<stop  offset="0" style="stop-color:#FFFFFF"/>
					<stop  offset="1" style="stop-color:#000000"/>
				</radialGradient>
				<rect x="-5.8" y="12.9" class="st2" width="478" height="482.8"/>
			</g>
		</g>
	</mask>
	<g class="st3">
		<g>
			<g>
				<path class="st4" d="M442.6,380c-0.3,0.5-0.6,0.9-0.9,1.4"/>
				<path class="st5" d="M439.9,384.2c-57.4,88.2-170.2,127.9-272.7,89.3C48.8,428.9-11.1,296.8,33.5,178.3
					C73.4,72.2,183.6,13.1,291.2,34"/>
				<path class="st4" d="M292.8,34.3c0.5,0.1,1.1,0.2,1.6,0.3"/>
			</g>
		</g>
		<circle class="st6" cx="442.6" cy="380" r="7"/>
		<polygon class="st6" points="296.6,35 295.8,27 307.1,36.8 293.3,42.3 		"/>
		<g>
			<g>
				<path d="M247.3,50c114.7,0,208.1,92.4,209.2,207.3c1.1,115.6-91.7,210.1-207.3,211.2c-0.7,0-1.3,0-2,0
					c-114.7,0-208.1-92.4-209.2-207.3C36.9,145.6,129.7,51.1,245.3,50C245.9,50,246.6,50,247.3,50 M247.3,49.2
					C247.3,49.2,247.3,49.2,247.3,49.2C247.3,49.2,247.3,49.2,247.3,49.2C247.3,49.2,247.3,49.2,247.3,49.2L247.3,49.2
					c-0.7,0-1.3,0-2,0c-28.4,0.3-55.8,6.1-81.6,17.3c-24.9,10.8-47.2,26.2-66.4,45.7s-34,42.1-44.4,67.2c-10.7,26-16,53.6-15.7,81.9
					c0.3,28.2,6,55.5,17.1,81.2c10.7,24.8,25.9,47,45.2,66.1c19.3,19.1,41.7,34.1,66.6,44.5c25.8,10.8,53.1,16.3,81.2,16.3
					c0.7,0,1.3,0,2,0c28.4-0.3,55.8-6.1,81.6-17.3c24.9-10.8,47.2-26.2,66.4-45.7c19.1-19.5,34-42.1,44.4-67.2
					c10.7-26,16-53.6,15.7-81.9c-0.3-28.2-6-55.5-17.1-81.2c-10.7-24.8-25.9-47-45.2-66.1c-19.3-19.1-41.7-34.1-66.6-44.5
					C302.7,54.6,275.4,49.2,247.3,49.2L247.3,49.2L247.3,49.2z"/>
			</g>
			<line class="st7" x1="151.5" y1="228.4" x2="359.7" y2="295.5"/>
			<line class="st7" x1="257.2" y1="145.1" x2="237" y2="376.5"/>
			<line class="st7" x1="186.9" y1="178.8" x2="318.1" y2="353.8"/>
			<line class="st7" x1="315.2" y1="162.8" x2="186.4" y2="359.8"/>
			<line class="st7" x1="331.2" y1="177.4" x2="162.9" y2="341.4"/>
			<line class="st7" x1="233.9" y1="160.5" x2="262.9" y2="375.3"/>
			<line class="st8" x1="353" y1="207.3" x2="141.2" y2="311.3"/>
			<line class="st8" x1="363.4" y1="241.2" x2="133.4" y2="277"/>
			<g>
				<g>
					<path class="st9" d="M257.7,141c0.6,0.1,1.1,0.1,1.7,0.2"/>
					<path class="st10" d="M262.7,141.6c52.7,7.2,95.7,49.5,101.4,104.8c6.7,64.8-40.4,122.8-105.2,129.4
						c-57.5,5.9-109.6-30.5-125.3-84"/>
					<path class="st9" d="M133.1,290.2c-0.1-0.5-0.3-1.1-0.4-1.6"/>
				</g>
			</g>
			<circle cx="257.7" cy="141" r="6.1"/>
			<polygon points="132.4,287.6 126.7,291.2 129.8,279.1 139.1,287.5 			"/>
			<g>
				<path d="M247.2,174.3c22.5,0,43.7,8.7,59.7,24.6c16,15.9,25,37,25.2,59.6c0.4,46.8-37.3,85.3-84.1,85.7c-0.3,0-0.5,0-0.8,0
					c-22.5,0-43.7-8.7-59.7-24.6c-16-15.9-25-37-25.2-59.6c-0.4-46.8,37.3-85.3,84.1-85.7C246.7,174.3,247,174.3,247.2,174.3
					L247.2,174.3 M247.2,166.3c-0.3,0-0.6,0-0.9,0c-51.3,0.5-92.5,42.5-92.1,93.8c0.5,51,42,92.1,92.9,92.1c0.3,0,0.6,0,0.9,0
					c51.3-0.5,92.5-42.5,92.1-93.8C339.7,207.3,298.2,166.3,247.2,166.3L247.2,166.3z"/>
			</g>
			<g>
				<path class="st11" d="M247.2,166.7c24.5,0,47.7,9.5,65.1,26.8c17.5,17.3,27.2,40.3,27.4,64.9c0.5,51-40.7,93-91.7,93.4
					c-0.3,0-0.6,0-0.9,0c-24.5,0-47.7-9.5-65.1-26.8c-17.5-17.3-27.2-40.3-27.4-64.9c-0.2-24.7,9.2-48.1,26.5-65.7
					c17.3-17.6,40.5-27.5,65.2-27.7C246.7,166.7,247,166.7,247.2,166.7L247.2,166.7 M247.2,158.7c-0.3,0-0.6,0-1,0
					c-55.5,0.5-100.1,46-99.6,101.5c0.5,55.2,45.4,99.6,100.5,99.6c0.3,0,0.6,0,1,0c55.5-0.5,100.1-46,99.6-101.5
					C347.3,203.1,302.3,158.7,247.2,158.7L247.2,158.7z"/>
			</g>
			<g>
				<path class="st12" d="M247.2,159.6c26.4,0,51.3,10.2,70.1,28.8c18.8,18.6,29.3,43.4,29.5,69.8c0.3,26.6-9.9,51.7-28.5,70.7
					c-18.6,19-43.6,29.6-70.2,29.8c-0.3,0-0.6,0-1,0c-26.4,0-51.3-10.2-70.1-28.8c-18.8-18.6-29.3-43.4-29.5-69.8
					c-0.5-54.9,43.7-100,98.7-100.5C246.6,159.6,246.9,159.6,247.2,159.6L247.2,159.6 M247.2,151.6c-0.3,0-0.7,0-1,0
					c-59.4,0.6-107.1,49.2-106.6,108.6c0.6,59.1,48.6,106.6,107.6,106.6c0.3,0,0.7,0,1,0c59.4-0.6,107.1-49.2,106.6-108.6
					C354.3,199.1,306.2,151.6,247.2,151.6L247.2,151.6z"/>
			</g>
			<g>
				<path class="st13" d="M299.3,422.5c-22.8,7.3-47,9.7-70.9,7.1c-29.2-3.2-58-14-83.4-32.8c-15.3-11.4-28.1-24.8-38.5-39.6"/>
				<path class="st14" d="M418.6,258.9c0.1,35.7-10.9,71.7-33.8,102.6c-22.3,30-52.4,50.6-85.5,61.1"/>
				<path class="st15" d="M301.9,96.8c16.6,5.6,32.7,13.9,47.5,24.9c45.1,33.5,69,85,69.2,137.2"/>
				<path class="st16" d="M195.2,95.9C229.5,85,267,85,301.9,96.8"/>
				<path class="st16" d="M109.2,157.7c0.2-0.2,0.3-0.5,0.5-0.7c22.3-30,52.4-50.6,85.5-61.1"/>
				<path class="st17" d="M106.5,357.2c-40.8-58.6-41.9-138.9,2.6-199.5"/>
				<line class="st7" x1="70.7" y1="382.1" x2="306" y2="218.1"/>
				<line class="st7" x1="312.6" y1="464.3" x2="181.9" y2="54.2"/>
				<line class="st7" x1="417.4" y1="390.9" x2="77" y2="127.5"/>
				<line class="st18" x1="188.6" y1="433.5" x2="281.8" y2="158.1"/>
				<line class="st7" x1="178.8" y1="307.1" x2="399.6" y2="152.6"/>
				<line class="st7" x1="67.3" y1="259.5" x2="427.1" y2="258.9"/>
				<g>
					<g id="XMLID_219_">
						<path class="st19" d="M155.9,380.3c-1-2-1.9-4.8-3.9-5.6c-2.9-1.1-7.5,0.3-8.9-0.1c0,0-0.4-0.5,0.3-0.6
							c5.5-0.6,9.3-4.7,9.8-8.3c0,0,1.4-0.1,1.9-0.1c1.3-0.6,4.2-5.6,4.9-7.2c0,0,0.6-0.3,0.5,0.2c-0.8,3.2-2.2,5.9-2.9,7.1
							c-0.3,0.4-0.1,0.6,0.4,0.3c1.5-0.9,3.2-2.6,5.9-5.8c0,0,0.7-0.2,0.4,0.4c-1.9,3.5-10,12.7-9.9,13c1.2,2.3,1.9,5.1,2,6.4
							C156.3,380.4,155.9,380.3,155.9,380.3z"/>
					</g>
					<g id="XMLID_215_">
						<path class="st19" d="M164.2,385.5c-0.2-0.3-0.5-0.4-0.9-0.5c-0.6-0.1-1.2,0.1-1.7,0.6c-0.5,0.4-0.8,1-0.9,1.5
							c0,0.4,0,0.8,0.3,1c0.2,0.3,0.5,0.4,0.9,0.5c0.6,0.1,1.2-0.1,1.7-0.6c0.5-0.4,0.9-1,0.9-1.5
							C164.5,386.1,164.4,385.7,164.2,385.5z"/>
					</g>
					<g id="XMLID_210_">
						<path class="st19" d="M149.5,376.4c-0.2,0.5-0.2,1.1,0,1.6c0.1,0.3,0.4,0.6,0.7,0.7c0.3,0.1,0.6,0.1,0.9,0
							c0.5-0.2,0.8-0.6,1.1-1.2c0.4-1,0.1-2-0.6-2.2C150.8,374.9,149.9,375.4,149.5,376.4z"/>
					</g>
					<g id="XMLID_206_">
						<path class="st19" d="M160.4,375c-0.2-0.1-0.4-0.2-0.7-0.1c-0.4,0.1-0.9,0.4-1.2,0.9c-0.5,0.8-0.5,1.7,0,2.1
							c0.2,0.1,0.4,0.2,0.7,0.1c0.4-0.1,0.9-0.4,1.2-0.9C160.9,376.3,160.9,375.3,160.4,375z"/>
					</g>
					<g id="XMLID_202_">
						<path class="st19" d="M169.5,366.1L169.5,366.1L169.5,366.1c-2.6,2.6-4.2,3.6-4.6,3.9c0.5-0.7,1.9-3.7,2.2-4.8
							c0.2-0.7-0.4-0.6-0.4-0.6c-5.2,8.6-8,8.2-11.1,8.5c-0.4,0-0.3,0.3-0.3,0.3c0.4,0.2,2.6,0.6,2.8,0.6c5.1,0.5,5.1,4.3,5.3,4.9
							c0,0,0.3,0.2,0.4-0.3c0.1-0.6,0-2.8-0.7-4.5c1.9-1.4,5.7-5.9,6.7-7.5C170.2,366,169.5,366.1,169.5,366.1z"/>
					</g>
					<g id="XMLID_198_">
						<path class="st19" d="M174.5,390.4c-1.3-2.9-5-6.4-6.7-7.8c4.6-4.7,8.8-10.8,10.2-14.2c0.4-0.9-0.5-0.7-0.5-0.7
							c-2.1,3.1-6.1,7.3-7.7,7.7c0.8-1.8,2.5-6.7,2.7-10.6c0-0.8-0.5-0.6-0.5-0.6c-5.5,15.2-9.7,17.4-14.1,19.8
							c-1.4,0.8-2.8,1.5-4.4,2.7c-0.7,0.6,0.2,0.8,0.2,0.8c6.4-3.8,13-5.5,20.6,3.5C174.3,391.1,174.8,391,174.5,390.4z"/>
					</g>
				</g>
				<g>
					<g id="XMLID_194_">
						<path class="st19" d="M394.1,212.8c-0.4,2.2-1.3,5-0.1,6.8c1.7,2.6,6.2,4.3,7.1,5.3c0,0,0.1,0.6-0.5,0.3
							c-4.8-2.7-10.3-1.7-12.9,0.9c0,0-1.2-0.7-1.6-1c-1.4-0.3-6.7,2-8.2,2.9c0,0-0.7-0.1-0.2-0.5c2.6-2.1,5.3-3.5,6.5-4
							c0.5-0.2,0.4-0.4-0.1-0.4c-1.8-0.1-4.1,0.2-8.1,1.2c0,0-0.7-0.2,0-0.6c3.6-1.7,15.6-4.3,15.6-4.6c0.4-2.6,1.5-5.3,2.2-6.4
							C393.8,212.5,394.1,212.8,394.1,212.8z"/>
					</g>
					<g id="XMLID_190_">
						<path class="st19" d="M390.5,203.8c0,0.4,0.2,0.7,0.5,0.9c0.4,0.4,1,0.6,1.7,0.6c0.7,0,1.3-0.3,1.6-0.7c0.3-0.3,0.4-0.6,0.4-1
							c0-0.3-0.2-0.7-0.5-1c-0.4-0.4-1-0.6-1.7-0.5c-0.7,0-1.3,0.3-1.6,0.7C390.6,203.1,390.4,203.4,390.5,203.8z"/>
					</g>
					<g id="XMLID_186_">
						<path class="st19" d="M396.9,219.8c0.5-0.3,0.8-0.8,1-1.2c0.1-0.3,0-0.7-0.1-0.9c-0.2-0.3-0.4-0.4-0.8-0.5
							c-0.5-0.1-1.1,0-1.6,0.3c-0.9,0.5-1.2,1.5-0.8,2.2C395,220.2,396,220.3,396.9,219.8z"/>
					</g>
					<g id="XMLID_182_">
						<path class="st19" d="M387.3,214.4c0.1,0.2,0.3,0.4,0.5,0.5c0.4,0.2,1,0.2,1.5,0c0.9-0.3,1.4-1.1,1.2-1.7
							c-0.1-0.2-0.3-0.4-0.5-0.5c-0.4-0.2-1-0.2-1.5,0C387.6,213.1,387.1,213.8,387.3,214.4z"/>
					</g>
					<g id="XMLID_178_">
						<path class="st19" d="M374.6,216.2L374.6,216.2L374.6,216.2c3.6-0.5,5.5-0.4,6-0.4c-0.8,0.3-3.8,1.9-4.6,2.6
							c-0.5,0.5,0,0.7,0,0.7c9.3-3.8,11.4-1.9,13.9-0.2c0.3,0.2,0.4-0.1,0.4-0.1c-0.2-0.4-1.7-2-1.9-2.1c-3.8-3.5-1.6-6.4-1.4-7.1
							c0,0-0.1-0.3-0.5,0c-0.5,0.4-1.7,2.2-2.1,4c-2.4,0-8.1,1.4-9.9,2.1C374,215.9,374.6,216.2,374.6,216.2z"/>
					</g>
					<g id="XMLID_174_">
						<path class="st19" d="M385,193.6c-0.6,3.1,0.2,8.1,0.8,10.2c-6.5,1.1-13.5,3.5-16.6,5.4c-0.8,0.5,0,0.8,0,0.8
							c3.5-1.3,9.3-2.2,10.8-1.6c-1.8,1-6,3.9-8.5,7c-0.5,0.6,0.1,0.8,0.1,0.8c13.4-8.9,18.2-8.3,23.1-7.6c1.6,0.2,3.2,0.4,5.1,0.4
							c0.9,0,0.3-0.8,0.3-0.8c-7.4-0.7-13.7-3.3-14.5-15C385.7,193.2,385.2,193,385,193.6z"/>
					</g>
				</g>
				<g>
					<path class="st20" d="M149.2,133.4l8.1,6l-3.2,9.6l8.2-5.8l8.1,6l-3-9.7l8.2-5.9l-10.1-0.1l-3-9.6l-3.2,9.6L149.2,133.4z
						 M162.5,126.6l2.4,7.8l8.2,0.1l-6.7,4.8l2.4,7.8l-6.6-4.9l-6.7,4.8l2.6-7.8l-6.6-4.9l8.2,0.1L162.5,126.6z"/>
					<polygon class="st20" points="167.7,145.3 165.7,139 171.1,135.1 164.5,135 162.5,128.7 160.4,135 153.8,134.9 153.8,135 
						159.1,138.9 156.9,145.2 162.4,141.3 167.7,145.3 					"/>
				</g>
				<g>
					<path class="st20" d="M367.6,300l8.1,6l-3.2,9.6l8.2-5.8l8.1,6l-3-9.7l8.2-5.9l-10.1-0.1l-3-9.6l-3.2,9.6L367.6,300z
						 M381,293.1l2.4,7.8l8.2,0.1l-6.7,4.8l2.4,7.8l-6.6-4.9l-6.7,4.8l2.6-7.8l-6.6-4.9l8.2,0.1L381,293.1z"/>
					<polygon class="st20" points="386.1,311.8 384.1,305.5 389.5,301.7 382.9,301.6 380.9,295.2 378.8,301.5 372.2,301.5 
						372.2,301.5 377.5,305.4 375.4,311.7 380.8,307.9 386.1,311.8 					"/>
				</g>
				<path class="st21" d="M231.5,390.7c1.7,2.5,3.4,4.9,5.1,7.4c3.5,5.1,7.3,10.6,10.8,15.7l15.7-24c0,0-0.2,0-0.2,0
					c-2,0-4,0.1-6,0.1c-0.3,0-0.3,0-0.3,0l-8.4,12.5c-0.6,0.9-1.2,0.9-1.8,0.1c-2.6-3.7-6-8.6-8.5-12.4c0,0-0.7,0-1.7,0
					c-0.3,0-0.7,0-1,0c-1.3,0-2.6,0-4,0.1C231.3,390.4,231.4,390.6,231.5,390.7z M244.4,406.1c0,0,0.8,0,0.8,0l0.3,0
					c0.2,0.3,0.8,1.1,1,1.4c0.5,0.5,1,0.5,1.4-0.1c0.3-0.4,0.7-1.1,0.9-1.5c0,0,0.1,0,0.4,0c0.6,0,1.1,0,1.8,0
					c-1.3,2-2.6,3.8-3.9,5.7l-3.8-5.5C243.5,406.1,244.4,406.1,244.4,406.1z"/>
				<path class="st21" d="M339.3,160.2c0.1-3,0.3-6,0.4-9c0.3-6.2,0.5-12.8,0.8-19l-27,9.7c0,0,0.1,0.1,0.2,0.1
					c1.6,1.2,3.2,2.3,4.8,3.5c0.2,0.2,0.2,0.2,0.2,0.2l14.2-5c1-0.4,1.5,0,1.5,1c-0.1,4.5-0.4,10.5-0.6,15c0,0,0.5,0.4,1.3,1
					c0.3,0.2,0.5,0.4,0.8,0.6c1.1,0.8,2.1,1.5,3.2,2.4C339.3,160.6,339.3,160.4,339.3,160.2z M338.2,140.1c0,0-0.7-0.5-0.7-0.5
					l-0.3-0.2c0-0.3,0-1.3,0-1.7c-0.1-0.7-0.5-1-1.2-0.8c-0.4,0.1-1.2,0.4-1.6,0.6c0,0-0.1-0.1-0.3-0.2c-0.4-0.3-0.9-0.7-1.5-1.1
					c2.2-0.8,4.4-1.5,6.5-2.3l-0.3,6.7C339,140.6,338.2,140.1,338.2,140.1z"/>
				<g>
					<path class="st22" d="M247.7,101.6c0.8,0.7,1.6,1.5,2,2.5c0.1,0.3,0.3,0.3,0.5,0.3c1-0.2,1.9,0,3,0.3c-2,0.7-3.6,1.9-5,3.4
						C248.4,105.8,248.2,103.7,247.7,101.6z"/>
					<path class="st22" d="M256.4,107.7c-0.3-1.3-1.6-2.3-2.9-2.2c-1,0.1-1.9,0.4-2.7,1c-1.8,1.4-2.9,3.2-3.4,5.4
						c-0.2,1-0.3,2.1-0.2,3.1c0,0.4,0,0.4-0.3,0.4c0,0-0.1,0-0.2,0c0-0.2,0-0.4,0-0.6c-0.1-0.9-0.1-1.9,0-2.8
						c0.2-1.2,0.4-2.3,0.6-3.5c0.2-1.1,0.4-2.2,0.3-3.3c-0.1-1.1-0.3-2.2-0.6-3.2c-0.6-1.7-1.5-3.3-2.9-4.5
						c-0.2-0.2-0.4-0.4-0.6-0.5c0,0,0,0,0,0c-0.6,0.9-1.1,1.9-1.4,2.9c-0.4,1.3-0.5,2.6-0.5,4c0.1,1,0.2,1.9,0.5,2.8
						c0.3,1,0.7,1.9,1.3,2.8c0.8,1.5,1.6,3,2.1,4.6c0.1,0.5,0.2,1,0.4,1.5c-0.2,0-0.3,0.1-0.5,0.1c0-0.1-0.1-0.2-0.1-0.2
						c-0.2-0.5-0.3-1.1-0.5-1.6c-0.9-2.2-2.3-4-4.5-5.2c-1.2-0.6-2.5-0.9-3.8-0.7c-0.5,0.1-0.9,0.3-1.3,0.7c-1,0.9-1.2,2.4-0.6,3.6
						c0.5,1,1.3,1.7,2.3,2.2c0.8,0.4,1.7,0.9,2.5,1.3c0.7,0.4,1.3,0.8,1.7,1.5c0,0,0.1,0.1,0.1,0.1c0.1-0.5,0.3-0.9,0.4-1.4
						c-0.2-0.1-0.5-0.2-0.8-0.3c-0.5-0.2-1-0.5-1.3-1c-0.6-0.9-0.2-2.1,0.9-2.4c0.6-0.2,1.1,0,1.7,0.2c1,0.5,1.7,1.3,2.1,2.4
						c0.2,0.4,0.3,0.8,0.4,1.2c-0.4,0.1-0.7,0.3-1,0.4c-0.5,0.2-0.5,0.2-0.5,0.8c0,0,0,0,0,0c0,0,0.1,0.1,0.1,0.1
						c0.2,0,0.4,0.1,0.6,0.1c0.3,0,0.5,0,0.8,0.1c-0.1,0.5-0.2,0.9-0.5,1.3c-0.4,0.6-1,1-1.8,0.9c-0.2,0-0.4-0.1-0.7-0.2
						c-0.1,0.3,0,0.7,0.1,1.1c0.3,0.8,1,1.1,1.8,1c0.7-0.2,1.1-0.6,1.4-1.2c0.4-0.8,0.5-1.6,0.6-2.5c0-0.3,0-0.3,0.3-0.4
						c0.2,0,0.2,0,0.2,0.2c-0.1,0.8-0.1,1.5-0.2,2.3c0,0.5-0.1,1.1,0.1,1.6c0.2,0.9,0.7,1.6,1.3,2.3c-0.1-0.9-0.8-4.8-0.8-4.8
						s-0.4,0.6-0.4,1.6c0,1,0.2,1.6,0.3,1.8c0,0.1,0.1,0.1,0.1,0.1s0,0-0.1-0.1c-0.1-0.3-0.5-1.1-0.5-1.8c0-1,0.5-1.8,0.5-1.8
						s1.1,0.8,1.2,2.4c0.1,0.7-0.3,1.9-0.4,2.7c0,0,0,0,0.1,0.1c0,0,0.1,0.1,0.2,0.1c0.2-0.4,0.3-0.7,0.5-1.1
						c0.3-0.8,0.4-1.6,0.2-2.5c-0.1-0.5-0.3-1-0.5-1.5c-0.2-0.6-0.5-1.1-0.6-1.8c0.2,0,0.3-0.1,0.5-0.1c0,0,0,0,0,0
						c0.1,0.1,0.1,0.3,0.2,0.4c0.3,0.8,0.7,1.6,1.3,2.2c0.5,0.5,1.2,0.8,1.9,0.6c0.7-0.2,1.2-0.8,1.1-1.6c0-0.3-0.1-0.6-0.2-0.9
						c-0.9,1-2.9,0.3-3.4-1.1c0.3-0.1,0.6-0.2,0.8-0.3c0.5-0.2,0.5-0.2,0.4-0.8c0-0.2-0.1-0.2-0.2-0.2c-0.4,0-0.8-0.1-1.3-0.1
						c-0.1,0-0.2,0-0.2-0.2c-0.1-0.9,0-1.8,0.4-2.6c0.4-0.9,0.9-1.5,1.8-1.9c0.5-0.2,1.1-0.2,1.6,0.1c0.7,0.5,0.9,1.3,0.4,2.1
						c-0.2,0.4-0.5,0.7-0.9,1c-0.2,0.2-0.4,0.4-0.7,0.6c0.4,0.3,0.6,0.7,0.7,1.1c0,0,0.1,0.1,0.1,0.1c0,0,0.1-0.1,0.1-0.1
						c0.1-0.5,0.4-0.9,0.7-1.2c0.7-0.8,1.5-1.6,2.2-2.3c0.5-0.5,0.9-0.9,1.3-1.5C256.3,109.6,256.6,108.7,256.4,107.7z M238.8,112.5
						c-0.9,1.2,0.1,2.6,0.1,2.6s-1.5-0.8-2.2-2.3c-0.2-0.4-0.3-1.1,0.1-1.6c0.6-0.9,1.5-0.8,2-0.7c2.8,0.3,4.6,2.6,4.6,2.6
						C240.8,111.1,239.4,111.6,238.8,112.5z M241.1,110.2c-3.2-2.6-5.5-1.3-6-0.6c-1.3,1.6,0.6,3.7,0.6,3.7s-0.9-0.8-1.2-2.1
						c0-0.2-0.1-1.1,0.2-1.7c0.6-0.9,1.7-1.2,2.5-1.2c4.5,0.1,6.2,4.7,6.2,4.7C242.6,111.8,241.9,110.8,241.1,110.2z M243.1,120.7
						c-0.6,0.2-1.2-0.4-1.2-0.4c2.1,0.4,2.7-1.8,2.7-1.8S244.3,120.2,243.1,120.7z M243.4,98.3c0,0-1.1,2-1.1,4.9
						c0.1,3.1,0.7,5.1,1,5.8c0.1,0.2,0.2,0.4,0.2,0.4s-0.1-0.1-0.2-0.4c-0.4-1-1.5-3.6-1.5-5.7c-0.1-3.2,1.5-5.7,1.5-5.7
						s3.2,2.7,3.7,7.7c0.2,2.5-1.1,6.4-1.1,8.9C245.9,114.3,243.4,98.3,243.4,98.3z M251.2,118.9c0,0-0.5,0.8-1.1,0.8
						c-1.3-0.1-2-1.8-2-1.8S249.3,119.8,251.2,118.9z M254.2,110.2c-0.2,1.7-1.4,2.8-1.4,2.8s0.6-1.5-0.7-2.5
						c-0.9-0.7-2.4-0.8-4.3,1.8c0,0,1.1-2.7,3.7-3.8c0.5-0.2,1.3-0.6,2.1,0.1C254.1,109.1,254.2,109.8,254.2,110.2z M255.8,108.1
						c0.1,1.3-0.5,2.3-0.5,2.3s1.2-2.6-0.5-3.8c-0.7-0.5-3.3-1-5.6,2.4c-0.6,0.8-1,1.9-1.4,3.3c0,0,0.3-4.8,4.6-6.3
						c0.7-0.2,1.9-0.2,2.7,0.5C255.6,107,255.8,107.9,255.8,108.1z"/>
				</g>
				<path class="st23" d="M390,365.4c-23.2,31.2-54.6,52.6-89,63.5l11.4,35.3c41.5-13.2,79.5-39,107.4-76.6
					c28.7-38.6,42.5-83.7,42.4-128.3l-37.1,0.1C425.1,296.2,413.7,333.4,390,365.4z"/>
				<path class="st24" d="M104,153.8l-29.8-22.1c-56.1,76-54.7,176.9-3.5,250.4l30.4-21.2C58.8,300,57.7,216.7,104,153.8z"/>
				<path class="st25" d="M353.3,116.5c46.9,34.9,71.7,88.5,71.8,142.8l37.1-0.1c-0.1-65.6-30.1-130.3-86.7-172.4
					c-18.7-13.9-39-24.3-60-31.4l-11.9,35.1C321,96.3,337.8,104.9,353.3,116.5z"/>
				<path class="st26" d="M141.1,402c-15.9-11.8-29.2-25.8-39.9-41.2L70.7,382c12.9,18.6,29.1,35.5,48.3,49.7
					c57.7,42.9,129.7,52.5,193.3,32.3L301,428.8C248.4,445.4,188.8,437.4,141.1,402z"/>
				<path class="st27" d="M74.2,131.6l29.8,22.1c0.2-0.2,0.3-0.4,0.5-0.6c47.1-63.3,128.2-86.4,199.2-62.6l11.9-35.1
					C229.7,26.6,131.6,54.5,74.7,131C74.5,131.2,74.4,131.4,74.2,131.6z"/>
				<g>
					<g id="XMLID_170_">
						<path class="st19" d="M331.7,383.2c-2.2,0.3-5.1,0.1-6.6,1.8c-2,2.3-2.3,7.2-3.1,8.3c0,0-0.6,0.3-0.4-0.4
							c1.3-5.4-1.2-10.4-4.5-12.1c0,0,0.4-1.3,0.5-1.8c-0.1-1.4-3.8-5.9-5.1-7.1c0,0-0.1-0.7,0.4-0.4c2.7,1.9,4.8,4.1,5.7,5.1
							c0.3,0.4,0.5,0.3,0.4-0.2c-0.4-1.7-1.3-3.9-3.4-7.5c0,0,0-0.7,0.5-0.2c2.7,3,8.5,13.8,8.8,13.7c2.6-0.3,5.5-0.1,6.7,0.3
							C331.9,382.9,331.7,383.2,331.7,383.2z"/>
					</g>
					<g id="XMLID_166_">
						<path class="st19" d="M339.3,377.1c-0.3,0.1-0.6,0.4-0.8,0.7c-0.2,0.5-0.3,1.1-0.1,1.8c0.2,0.6,0.6,1.1,1.1,1.4
							c0.4,0.2,0.7,0.2,1.1,0.1c0.3-0.1,0.6-0.4,0.8-0.7c0.2-0.5,0.3-1.1,0.1-1.8c-0.2-0.6-0.6-1.1-1.1-1.4
							C340,377.1,339.7,377,339.3,377.1z"/>
					</g>
					<g id="XMLID_162_">
						<path class="st19" d="M325.8,387.9c0.4,0.4,1,0.6,1.5,0.6c0.4,0,0.6-0.2,0.9-0.4c0.2-0.2,0.3-0.5,0.3-0.9c0-0.5-0.3-1-0.7-1.4
							c-0.8-0.7-1.8-0.8-2.3-0.2C324.8,386.1,325,387.2,325.8,387.9z"/>
					</g>
					<g id="XMLID_158_">
						<path class="st19" d="M328.2,377.1c-0.2,0.1-0.3,0.4-0.4,0.6c-0.1,0.4,0.1,1,0.4,1.4c0.5,0.8,1.4,1.1,1.9,0.7
							c0.2-0.1,0.3-0.4,0.4-0.6c0.1-0.4-0.1-1-0.4-1.4C329.6,377.1,328.7,376.7,328.2,377.1z"/>
					</g>
					<g id="XMLID_154_">
						<path class="st19" d="M323,365.5L323,365.5L323,365.5c1.5,3.3,1.9,5.2,2,5.7c-0.5-0.7-2.9-3.1-3.8-3.7
							c-0.6-0.4-0.7,0.2-0.7,0.2c6.3,7.9,5,10.4,4.1,13.3c-0.1,0.4,0.2,0.4,0.2,0.4c0.4-0.3,1.4-2.2,1.5-2.4
							c2.3-4.6,5.7-3.3,6.4-3.3c0,0,0.2-0.2-0.1-0.5c-0.5-0.3-2.6-1-4.4-0.9c-0.7-2.3-3.6-7.4-4.8-8.9
							C323.1,364.8,323,365.5,323,365.5z"/>
					</g>
					<g id="XMLID_150_">
						<path class="st19" d="M347.5,369.1c-3.1,0.2-7.7,2.5-9.6,3.6c-2.9-5.9-7.1-11.9-9.8-14.4c-0.7-0.7-0.8,0.2-0.8,0.2
							c2.2,3,4.7,8.2,4.5,9.9c-1.4-1.4-5.4-4.7-9.1-6.2c-0.8-0.3-0.7,0.3-0.7,0.3c12.4,10.4,13.1,15.1,13.8,20
							c0.2,1.6,0.5,3.2,1.1,5c0.3,0.9,0.8,0.1,0.8,0.1c-1.4-7.3-0.7-14.1,10.4-18.1C348.1,369.6,348.2,369.1,347.5,369.1z"/>
					</g>
				</g>
				<path class="st21" d="M115.2,281c-2.1,2.1-4.2,4.3-6.3,6.4c-4.3,4.4-9,9.2-13.3,13.6l26.6,10.7c0,0,0-0.2,0-0.2
					c-0.4-1.9-0.8-3.9-1.2-5.8c-0.1-0.3-0.1-0.3-0.1-0.3l-13.9-5.8c-1-0.4-1.1-1-0.4-1.7c3.1-3.3,7.3-7.6,10.5-10.8
					c0,0-0.2-0.6-0.3-1.6c-0.1-0.3-0.1-0.7-0.2-1c-0.3-1.3-0.5-2.6-0.8-3.9C115.4,280.7,115.3,280.9,115.2,281z M102.6,296.7
					c0,0,0.2,0.8,0.2,0.8l0.1,0.3c-0.2,0.2-0.9,1-1.2,1.3c-0.4,0.6-0.3,1.1,0.3,1.4c0.4,0.2,1.2,0.5,1.6,0.6c0,0,0,0.1,0.1,0.4
					c0.1,0.6,0.2,1.1,0.4,1.8c-2.2-0.9-4.3-1.8-6.4-2.7l4.7-4.8C102.4,295.8,102.6,296.7,102.6,296.7z"/>
				<g id="GoFPfz.tif_2_">
					<g transform="matrix(1 -2.980232e-08 2.980232e-08 1 7.629395e-06 0)">
						
							<image style="overflow:visible;" width="2230" height="1476" id="Livello_1_2_" xlink:href="C859B23556CA199D.png"  transform="matrix(9.792618e-03 -2.788235e-02 2.788235e-02 9.792618e-03 77.3534 237.1083)">
						</image>
					</g>
				</g>
			</g>
			<g>
				<circle class="st28" cx="247.2" cy="259.2" r="86.2"/>
				<g>
					<line class="st29" x1="307.9" y1="198.9" x2="185.9" y2="318.6"/>
					<line class="st29" x1="307.4" y1="319.7" x2="187.7" y2="197.7"/>
					<line class="st29" x1="294.1" y1="187.3" x2="200" y2="330.1"/>
					<line class="st29" x1="318.9" y1="305.6" x2="176.2" y2="211.6"/>
					<line class="st29" x1="331.4" y1="241.3" x2="163.1" y2="275.5"/>
					<line class="st29" x1="264.3" y1="342.5" x2="230.3" y2="175.1"/>
					<line class="st29" x1="333.1" y1="257.2" x2="161.4" y2="257.9"/>
					<line class="st29" x1="246.7" y1="344.3" x2="247.8" y2="173.5"/>
					<line class="st29" x1="305.8" y1="219.6" x2="188.6" y2="297.2"/>
					<line class="st29" x1="286" y1="317" x2="208.4" y2="199.8"/>
					<line class="st29" x1="316.2" y1="272" x2="178.2" y2="244.8"/>
					<line class="st29" x1="233.6" y1="327.4" x2="260.8" y2="189.4"/>
					<line class="st29" x1="311.8" y1="286.1" x2="182.6" y2="230.7"/>
					<line class="st29" x1="219.5" y1="323" x2="274.9" y2="193.8"/>
					<line class="st29" x1="312.5" y1="232.3" x2="182" y2="284.5"/>
					<line class="st29" x1="273.4" y1="323.6" x2="221.1" y2="193.1"/>
					<g>
						<polygon class="st30" points="247.8,189.5 266.2,242.1 322.4,241.6 275.5,274.4 294.1,326.8 248.5,294.5 199.9,327.7 
							217.8,275 170,243 230.4,242.5 						"/>
						<polygon class="st28" points="248,207.2 262,247.6 304.8,247.2 268.7,272.3 283,312.6 248.4,287.8 210.7,313.2 224.3,272.7 
							187.8,248.3 234.6,247.8 						"/>
						<polygon class="st30" points="248,216 260,250.3 296,250 265.3,271.3 277.5,305.6 248.4,284.5 216.1,306.1 227.6,271.7 
							196.6,251 236.7,250.5 						"/>
						<g>
							<path d="M236.4,288.9c0-1.4-1.2-2.5-2.6-2.5l-5.6,0.1l0.1,8.7l1.2,0l0-3.5l3.3,0l2.4,3.5l1.4,0l-2.4-3.6
								C235.7,291.1,236.4,290.3,236.4,288.9z M234.8,290c-0.2,0.2-0.5,0.4-0.9,0.4l-4.4,0l0-2.8l4.5,0c1,0,1.2,0.8,1.2,1.4l0,0
								C235.2,289.3,235,289.7,234.8,290z"/>
							<path d="M245.3,292c0,1.2-1.4,1.9-2.8,1.9c-1.3,0-2.7-0.6-2.7-1.8l-0.1-5.8l-1.2,0l0.1,5.9c0,0.7,0.3,1.4,0.8,1.9
								c0.7,0.7,1.7,1,3,1c0,0,0,0,0.1,0c2.7-0.1,4-1,4-3l-0.1-5.9l-1.2,0L245.3,292z"/>
							<path d="M255,286.2l-5.6,0.1l0.1,8.7l1.2,0l0-3.6l4.3,0c1.2,0,2.2-1.1,2.2-2.4v0c0-0.7-0.3-1.5-0.9-2
								C255.9,286.4,255.4,286.2,255,286.2z M255.9,288.8L255.9,288.8c0,0.4-0.1,0.8-0.4,1c-0.1,0.1-0.3,0.2-0.4,0.2l-4.4,0l0-2.8
								l4.3,0C255.4,287.3,255.9,288.1,255.9,288.8z"/>
							<path d="M264.8,286.1l-5.6,0.1l0.1,8.7l1.2,0l0-3.6l4.3,0c1.2,0,2.2-1.1,2.2-2.4c0-0.7-0.3-1.5-0.9-2
								C265.7,286.3,265.3,286.1,264.8,286.1z M265.7,288.7L265.7,288.7c0,0.4-0.1,0.8-0.4,1c-0.1,0.1-0.3,0.2-0.4,0.2l-4.4,0l0-2.8
								l4.3,0C265.2,287.2,265.7,288,265.7,288.7z"/>
							<path d="M273.1,294.8c1.5,0,2.8-0.6,3.7-1.5c0.8-0.8,1.2-1.9,1.2-3c0-3.1-2.6-4.4-5-4.4c-1.4,0-2.7,0.6-3.6,1.5
								c-0.8,0.8-1.2,1.9-1.2,3C268.2,292.7,270.5,294.8,273.1,294.8z M269.4,290.3c0-1.8,1.9-3.3,3.6-3.3c0,0,0,0,0.1,0
								c1,0,2.1,0.4,2.8,1.1c0.6,0.6,0.9,1.3,0.9,2.1c0,0.8-0.3,1.6-0.9,2.2c-0.7,0.7-1.7,1.1-2.8,1.1c0,0,0,0,0,0
								C271.1,293.7,269.5,292.2,269.4,290.3z"/>
							<path d="M221.9,291.6l3,0l0,1.5c-0.2,0.2-1.2,1-2.9,1c-2.3,0-3.7-1.2-3.8-3.3c0-1.9,1.4-3.2,3.6-3.2c0,0,0.1,0,0.1,0
								c1.7,0,3.1,1,3.1,1l0.1,0.1l0.8-0.9l-0.2-0.1c-1.4-0.9-2.6-1.4-3.9-1.4c-1.4,0-2.7,0.5-3.7,1.5c-0.8,0.8-1.3,1.9-1.2,3
								c0,2.8,2,4.5,5,4.5c2.7,0,4-1.7,4.1-1.7l0,0l0-3l-4.2,0L221.9,291.6z"/>
							<g>
								<polygon class="st20" points="247.5,207.7 254.4,227.4 275.6,227.2 257.9,239.5 264.9,259.2 247.8,247.1 229.5,259.6 
									236.3,239.8 218.3,227.7 241,227.5 								"/>
								<polygon class="st28" points="247.6,214.3 252.9,229.5 268.9,229.3 255.4,238.8 260.8,253.9 247.8,244.6 233.6,254.1 
									238.7,238.9 225,229.7 242.6,229.6 								"/>
								<polygon class="st20" points="247.6,217.6 252.1,230.5 265.6,230.4 254.1,238.4 258.7,251.2 247.7,243.3 235.6,251.5 
									240,238.5 228.3,230.7 243.3,230.6 								"/>
							</g>
							<path d="M178.1,272c0-0.5,0.3-1.2,1.9-1.2c1.5,0,2.8,0.7,2.8,0.7l-0.3-3.1c-0.2,0.2-0.5,0.3-0.7,0.2
								c-0.5-0.1-1.3-0.2-2.2-0.2c-3.3,0-4.8,2-4.8,3.8c0,3.5,5.4,3.7,5.4,6.2c0,0.9-0.9,1.4-1.9,1.5c-2.2,0-3.7-1-3.7-1l0.4,3.1
								c0.3-0.1,0.5-0.1,0.8-0.1c0.7,0.2,1.8,0.4,2.9,0.4c3.2,0,4.8-1.8,4.8-3.9C183.5,273.9,178.1,274.1,178.1,272z"/>
							<path d="M290,268.8l0.1,12.1l3,0l-0.1-13.4l-3.6,0C289.4,267.6,289.9,267.9,290,268.8z"/>
							<path d="M287.3,272.1c0-2.4-2-4.4-4.4-4.4l-6.4,0.1c0,0,0.5,0.4,0.5,0.9l0.1,12.4l2.9,0l0-4.6l1.8,0l2.7,4.5l3.3,0l-2.9-5
								C286.4,275.3,287.4,273.8,287.3,272.1z M280,270.6l2.7,0c0.8,0,1.5,0.7,1.5,1.5c0,0.8-0.7,1.5-1.5,1.5l-2.7,0L280,270.6z"/>
							<path d="M272.2,274.4c0,0.3,0,2.2,0,2.2s-1.1,1.9-2.9,1.9c-1.4,0-3.5-1.3-3.5-3.8s1.8-4,3.4-4s2.6,1.1,2.6,1.1l1.3-2.7
								c0,0-1.5-1.6-4.1-1.5c-3.4,0-6.2,2.8-6.2,7s3.2,6.9,6.3,6.9s4.1-1.9,5.8-3.6l0-4.1l-3.3,0
								C271.7,273.8,272.2,274.1,272.2,274.4z"/>
							<path d="M313.9,267.1c-3.5,0-6.3,3.2-6.2,7c0,3.8,2.9,6.9,6.3,6.9c3.5,0,6.3-3.2,6.2-7C320.2,270.2,317.3,267.1,313.9,267.1z
								 M314,277.9c-1.7,0-3-1.6-3-3.8c0-2.2,1.3-3.8,3-3.8c1.7,0,3,1.6,3,3.8C317,276.2,315.6,277.8,314,277.9z"/>
							<path d="M303,274.6l-4-7l-3.9,0c0,0,0.5,0.3,0.6,1.2l0.1,12.1l2.8,0l-0.1-8.3l4.6,8.3l2.8,0l-0.1-13.4l-2.8,0L303,274.6z"/>
							<path d="M256.2,276l4,0l0-2.9l-4,0l0-2.3l5.2,0l-0.8-2.9l-7.8,0.1c0,0,0.5,0.3,0.5,1.2l0.1,12.2l7.7-0.1l0.7-3l-5.6,0.1
								L256.2,276z"/>
							<path d="M205.4,275.5l-4-7l-3.9,0c0,0,0.5,0.3,0.6,1.2l0.1,12.1l2.8,0l-0.1-8.3l4.6,8.3l2.8,0l-0.1-13.4l-2.8,0L205.4,275.5z
								"/>
							<path d="M246.1,268l-3.6,0c0,0,0.5,0.3,0.5,1.2l0.1,12.1l7.7-0.1l0.7-3l-5.3,0.1L246.1,268z"/>
							<path d="M187.5,268.6c0,0,0.7,0.4,0.5,1.2l-3.5,12.2l2.6,0l0.9-3.1l4.2,0l1,3.1l3.3,0l-4.5-13.3L187.5,268.6z M188.7,276.3
								l1.2-4.3l1.4,4.3L188.7,276.3z"/>
							<path d="M216.5,268.3l-6.4,0.1c0,0,0.5,0.3,0.5,1.2l0.1,12.1l2.9,0l0-4.6l2.9,0c2.4,0,4.4-2,4.4-4.4
								C220.9,270.2,218.9,268.3,216.5,268.3z M216.3,274.3l-2.7,0l0-3.1l2.7,0c0.8,0,1.5,0.7,1.5,1.5
								C217.8,273.6,217.1,274.2,216.3,274.3z"/>
							<path d="M235.9,268.1l-3.6,0c0,0,0.5,0.3,0.5,1.2l0.1,12.1l7.7-0.1l0.7-3l-5.3,0.1L235.9,268.1z"/>
							<path d="M225.3,276.3l4,0l0-2.9l-4,0l0-2.3l5.2,0l-0.8-2.9l-7.8,0.1c0,0,0.5,0.3,0.5,1.2l0.1,12.2l7.7-0.1l0.7-3l-5.6,0.1
								L225.3,276.3z"/>
						</g>
					</g>
				</g>
			</g>
		</g>
	</g>
	<g>
		<defs>
			<path id="SVGID_4_" d="M325.8,26l-78.6,233.2h273C520.2,259.2,438.4,20.8,325.8,26z"/>
		</defs>
		<clipPath id="SVGID_5_">
			<use xlink:href="#SVGID_4_"  style="overflow:visible;"/>
		</clipPath>
		<g class="st31">
			<g>
				<g>
					<path class="st32" d="M442.6,380c-0.3,0.5-0.6,0.9-0.9,1.4"/>
					<path class="st33" d="M439.9,384.2c-57.4,88.2-170.2,127.9-272.7,89.3C48.8,428.9-11.1,296.8,33.5,178.3
						C73.4,72.2,183.6,13.1,291.2,34"/>
					<path class="st32" d="M292.8,34.3c0.5,0.1,1.1,0.2,1.6,0.3"/>
				</g>
			</g>
			<circle class="st34" cx="442.6" cy="380" r="7"/>
			<polygon class="st34" points="296.6,35 295.8,27 307.1,36.8 293.3,42.3 			"/>
			<g>
				<g>
					<path class="st35" d="M247.3,50c114.7,0,208.1,92.4,209.2,207.3c1.1,115.6-91.7,210.1-207.3,211.2c-0.7,0-1.3,0-2,0
						c-114.7,0-208.1-92.4-209.2-207.3C36.9,145.6,129.7,51.1,245.3,50C245.9,50,246.6,50,247.3,50 M247.3,49.2
						C247.3,49.2,247.3,49.2,247.3,49.2C247.3,49.2,247.3,49.2,247.3,49.2C247.3,49.2,247.3,49.2,247.3,49.2L247.3,49.2
						c-0.7,0-1.3,0-2,0c-28.4,0.3-55.8,6.1-81.6,17.3c-24.9,10.8-47.2,26.2-66.4,45.7s-34,42.1-44.4,67.2
						c-10.7,26-16,53.6-15.7,81.9c0.3,28.2,6,55.5,17.1,81.2c10.7,24.8,25.9,47,45.2,66.1c19.3,19.1,41.7,34.1,66.6,44.5
						c25.8,10.8,53.1,16.3,81.2,16.3c0.7,0,1.3,0,2,0c28.4-0.3,55.8-6.1,81.6-17.3c24.9-10.8,47.2-26.2,66.4-45.7
						c19.1-19.5,34-42.1,44.4-67.2c10.7-26,16-53.6,15.7-81.9c-0.3-28.2-6-55.5-17.1-81.2c-10.7-24.8-25.9-47-45.2-66.1
						c-19.3-19.1-41.7-34.1-66.6-44.5C302.7,54.6,275.4,49.2,247.3,49.2L247.3,49.2L247.3,49.2z"/>
				</g>
				<line class="st36" x1="151.5" y1="228.4" x2="359.7" y2="295.5"/>
				<line class="st36" x1="257.2" y1="145.1" x2="237" y2="376.5"/>
				<line class="st36" x1="186.9" y1="178.8" x2="318.1" y2="353.8"/>
				<line class="st36" x1="315.2" y1="162.8" x2="186.4" y2="359.8"/>
				<line class="st36" x1="331.2" y1="177.4" x2="162.9" y2="341.4"/>
				<line class="st36" x1="233.9" y1="160.5" x2="262.9" y2="375.3"/>
				<line class="st37" x1="353" y1="207.3" x2="141.2" y2="311.3"/>
				<line class="st37" x1="363.4" y1="241.2" x2="133.4" y2="277"/>
				<g>
					<g>
						<path class="st38" d="M257.7,141c0.6,0.1,1.1,0.1,1.7,0.2"/>
						<path class="st39" d="M262.7,141.6c52.7,7.2,95.7,49.5,101.4,104.8c6.7,64.8-40.4,122.8-105.2,129.4
							c-57.5,5.9-109.6-30.5-125.3-84"/>
						<path class="st38" d="M133.1,290.2c-0.1-0.5-0.3-1.1-0.4-1.6"/>
					</g>
				</g>
				<circle class="st40" cx="257.7" cy="141" r="6.1"/>
				<polygon class="st40" points="132.4,287.6 126.7,291.2 129.8,279.1 139.1,287.5 				"/>
				<g>
					<path class="st41" d="M247.2,174.3c22.5,0,43.7,8.7,59.7,24.6c16,15.9,25,37,25.2,59.6c0.4,46.8-37.3,85.3-84.1,85.7
						c-0.3,0-0.5,0-0.8,0c-22.5,0-43.7-8.7-59.7-24.6c-16-15.9-25-37-25.2-59.6c-0.4-46.8,37.3-85.3,84.1-85.7
						C246.7,174.3,247,174.3,247.2,174.3L247.2,174.3 M247.2,166.3c-0.3,0-0.6,0-0.9,0c-51.3,0.5-92.5,42.5-92.1,93.8
						c0.5,51,42,92.1,92.9,92.1c0.3,0,0.6,0,0.9,0c51.3-0.5,92.5-42.5,92.1-93.8C339.7,207.3,298.2,166.3,247.2,166.3L247.2,166.3z"
						/>
				</g>
				<g>
					<g>
						<path class="st42" d="M247.2,166.7c24.5,0,47.7,9.5,65.1,26.8c17.5,17.3,27.2,40.3,27.4,64.9c0.5,51-40.7,93-91.7,93.4
							c-0.3,0-0.6,0-0.9,0c-24.5,0-47.7-9.5-65.1-26.8c-17.5-17.3-27.2-40.3-27.4-64.9c-0.2-24.7,9.2-48.1,26.5-65.7
							c17.3-17.6,40.5-27.5,65.2-27.7C246.7,166.7,247,166.7,247.2,166.7L247.2,166.7 M247.2,158.7c-0.3,0-0.6,0-1,0
							c-55.5,0.5-100.1,46-99.6,101.5c0.5,55.2,45.4,99.6,100.5,99.6c0.3,0,0.6,0,1,0c55.5-0.5,100.1-46,99.6-101.5
							C347.3,203.1,302.3,158.7,247.2,158.7L247.2,158.7z"/>
					</g>
				</g>
				<g>
					<g>
						<path class="st43" d="M247.2,159.6c26.4,0,51.3,10.2,70.1,28.8c18.8,18.6,29.3,43.4,29.5,69.8c0.3,26.6-9.9,51.7-28.5,70.7
							c-18.6,19-43.6,29.6-70.2,29.8c-0.3,0-0.6,0-1,0c-26.4,0-51.3-10.2-70.1-28.8c-18.8-18.6-29.3-43.4-29.5-69.8
							c-0.5-54.9,43.7-100,98.7-100.5C246.6,159.6,246.9,159.6,247.2,159.6L247.2,159.6 M247.2,151.6c-0.3,0-0.7,0-1,0
							c-59.4,0.6-107.1,49.2-106.6,108.6c0.6,59.1,48.6,106.6,107.6,106.6c0.3,0,0.7,0,1,0c59.4-0.6,107.1-49.2,106.6-108.6
							C354.3,199.1,306.2,151.6,247.2,151.6L247.2,151.6z"/>
					</g>
				</g>
				<g>
					<path class="st44" d="M299.3,422.5c-22.8,7.3-47,9.7-70.9,7.1c-29.2-3.2-58-14-83.4-32.8c-15.3-11.4-28.1-24.8-38.5-39.6"/>
					<path class="st45" d="M418.6,258.9c0.1,35.7-10.9,71.7-33.8,102.6c-22.3,30-52.4,50.6-85.5,61.1"/>
					<path class="st46" d="M301.9,96.8c16.6,5.6,32.7,13.9,47.5,24.9c45.1,33.5,69,85,69.2,137.2"/>
					<path class="st47" d="M195.2,95.9C229.5,85,267,85,301.9,96.8"/>
					<path class="st47" d="M109.2,157.7c0.2-0.2,0.3-0.5,0.5-0.7c22.3-30,52.4-50.6,85.5-61.1"/>
					<path class="st48" d="M106.5,357.2c-40.8-58.6-41.9-138.9,2.6-199.5"/>
					<line class="st36" x1="70.7" y1="382.1" x2="306" y2="218.1"/>
					<line class="st36" x1="312.6" y1="464.3" x2="181.9" y2="54.2"/>
					<line class="st49" x1="188.6" y1="433.5" x2="281.8" y2="158.1"/>
					<line class="st36" x1="178.8" y1="307.1" x2="399.6" y2="152.6"/>
					<line class="st50" x1="67.3" y1="259.5" x2="353" y2="259.4"/>
					<g>
						<g id="XMLID_146_">
							<path class="st51" d="M155.9,380.3c-1-2-1.9-4.8-3.9-5.6c-2.9-1.1-7.5,0.3-8.9-0.1c0,0-0.4-0.5,0.3-0.6
								c5.5-0.6,9.3-4.7,9.8-8.3c0,0,1.4-0.1,1.9-0.1c1.3-0.6,4.2-5.6,4.9-7.2c0,0,0.6-0.3,0.5,0.2c-0.8,3.2-2.2,5.9-2.9,7.1
								c-0.3,0.4-0.1,0.6,0.4,0.3c1.5-0.9,3.2-2.6,5.9-5.8c0,0,0.7-0.2,0.4,0.4c-1.9,3.5-10,12.7-9.9,13c1.2,2.3,1.9,5.1,2,6.4
								C156.3,380.4,155.9,380.3,155.9,380.3z"/>
						</g>
						<g id="XMLID_139_">
							<path class="st51" d="M164.2,385.5c-0.2-0.3-0.5-0.4-0.9-0.5c-0.6-0.1-1.2,0.1-1.7,0.6c-0.5,0.4-0.8,1-0.9,1.5
								c0,0.4,0,0.8,0.3,1c0.2,0.3,0.5,0.4,0.9,0.5c0.6,0.1,1.2-0.1,1.7-0.6c0.5-0.4,0.9-1,0.9-1.5
								C164.5,386.1,164.4,385.7,164.2,385.5z"/>
						</g>
						<g id="XMLID_134_">
							<path class="st51" d="M149.5,376.4c-0.2,0.5-0.2,1.1,0,1.6c0.1,0.3,0.4,0.6,0.7,0.7c0.3,0.1,0.6,0.1,0.9,0
								c0.5-0.2,0.8-0.6,1.1-1.2c0.4-1,0.1-2-0.6-2.2C150.8,374.9,149.9,375.4,149.5,376.4z"/>
						</g>
						<g id="XMLID_130_">
							<path class="st51" d="M160.4,375c-0.2-0.1-0.4-0.2-0.7-0.1c-0.4,0.1-0.9,0.4-1.2,0.9c-0.5,0.8-0.5,1.7,0,2.1
								c0.2,0.1,0.4,0.2,0.7,0.1c0.4-0.1,0.9-0.4,1.2-0.9C160.9,376.3,160.9,375.3,160.4,375z"/>
						</g>
						<g id="XMLID_126_">
							<path class="st51" d="M169.5,366.1L169.5,366.1L169.5,366.1c-2.6,2.6-4.2,3.6-4.6,3.9c0.5-0.7,1.9-3.7,2.2-4.8
								c0.2-0.7-0.4-0.6-0.4-0.6c-5.2,8.6-8,8.2-11.1,8.5c-0.4,0-0.3,0.3-0.3,0.3c0.4,0.2,2.6,0.6,2.8,0.6c5.1,0.5,5.1,4.3,5.3,4.9
								c0,0,0.3,0.2,0.4-0.3c0.1-0.6,0-2.8-0.7-4.5c1.9-1.4,5.7-5.9,6.7-7.5C170.2,366,169.5,366.1,169.5,366.1z"/>
						</g>
						<g id="XMLID_122_">
							<path class="st51" d="M174.5,390.4c-1.3-2.9-5-6.4-6.7-7.8c4.6-4.7,8.8-10.8,10.2-14.2c0.4-0.9-0.5-0.7-0.5-0.7
								c-2.1,3.1-6.1,7.3-7.7,7.7c0.8-1.8,2.5-6.7,2.7-10.6c0-0.8-0.5-0.6-0.5-0.6c-5.5,15.2-9.7,17.4-14.1,19.8
								c-1.4,0.8-2.8,1.5-4.4,2.7c-0.7,0.6,0.2,0.8,0.2,0.8c6.4-3.8,13-5.5,20.6,3.5C174.3,391.1,174.8,391,174.5,390.4z"/>
						</g>
					</g>
					<g>
						<g id="XMLID_99_">
							<path class="st51" d="M394.1,212.8c-0.4,2.2-1.3,5-0.1,6.8c1.7,2.6,6.2,4.3,7.1,5.3c0,0,0.1,0.6-0.5,0.3
								c-4.8-2.7-10.3-1.7-12.9,0.9c0,0-1.2-0.7-1.6-1c-1.4-0.3-6.7,2-8.2,2.9c0,0-0.7-0.1-0.2-0.5c2.6-2.1,5.3-3.5,6.5-4
								c0.5-0.2,0.4-0.4-0.1-0.4c-1.8-0.1-4.1,0.2-8.1,1.2c0,0-0.7-0.2,0-0.6c3.6-1.7,15.6-4.3,15.6-4.6c0.4-2.6,1.5-5.3,2.2-6.4
								C393.8,212.5,394.1,212.8,394.1,212.8z"/>
						</g>
						<g id="XMLID_91_">
							<path class="st51" d="M390.5,203.8c0,0.4,0.2,0.7,0.5,0.9c0.4,0.4,1,0.6,1.7,0.6c0.7,0,1.3-0.3,1.6-0.7
								c0.3-0.3,0.4-0.6,0.4-1c0-0.3-0.2-0.7-0.5-1c-0.4-0.4-1-0.6-1.7-0.5c-0.7,0-1.3,0.3-1.6,0.7
								C390.6,203.1,390.4,203.4,390.5,203.8z"/>
						</g>
						<g id="XMLID_83_">
							<path class="st51" d="M396.9,219.8c0.5-0.3,0.8-0.8,1-1.2c0.1-0.3,0-0.7-0.1-0.9c-0.2-0.3-0.4-0.4-0.8-0.5
								c-0.5-0.1-1.1,0-1.6,0.3c-0.9,0.5-1.2,1.5-0.8,2.2C395,220.2,396,220.3,396.9,219.8z"/>
						</g>
						<g id="XMLID_77_">
							<path class="st51" d="M387.3,214.4c0.1,0.2,0.3,0.4,0.5,0.5c0.4,0.2,1,0.2,1.5,0c0.9-0.3,1.4-1.1,1.2-1.7
								c-0.1-0.2-0.3-0.4-0.5-0.5c-0.4-0.2-1-0.2-1.5,0C387.6,213.1,387.1,213.8,387.3,214.4z"/>
						</g>
						<g id="XMLID_71_">
							<path class="st51" d="M374.6,216.2L374.6,216.2L374.6,216.2c3.6-0.5,5.5-0.4,6-0.4c-0.8,0.3-3.8,1.9-4.6,2.6
								c-0.5,0.5,0,0.7,0,0.7c9.3-3.8,11.4-1.9,13.9-0.2c0.3,0.2,0.4-0.1,0.4-0.1c-0.2-0.4-1.7-2-1.9-2.1c-3.8-3.5-1.6-6.4-1.4-7.1
								c0,0-0.1-0.3-0.5,0c-0.5,0.4-1.7,2.2-2.1,4c-2.4,0-8.1,1.4-9.9,2.1C374,215.9,374.6,216.2,374.6,216.2z"/>
						</g>
						<g id="XMLID_67_">
							<path class="st51" d="M385,193.6c-0.6,3.1,0.2,8.1,0.8,10.2c-6.5,1.1-13.5,3.5-16.6,5.4c-0.8,0.5,0,0.8,0,0.8
								c3.5-1.3,9.3-2.2,10.8-1.6c-1.8,1-6,3.9-8.5,7c-0.5,0.6,0.1,0.8,0.1,0.8c13.4-8.9,18.2-8.3,23.1-7.6c1.6,0.2,3.2,0.4,5.1,0.4
								c0.9,0,0.3-0.8,0.3-0.8c-7.4-0.7-13.7-3.3-14.5-15C385.7,193.2,385.2,193,385,193.6z"/>
						</g>
					</g>
					<g>
						<path class="st52" d="M149.2,133.4l8.1,6l-3.2,9.6l8.2-5.8l8.1,6l-3-9.7l8.2-5.9l-10.1-0.1l-3-9.6l-3.2,9.6L149.2,133.4z
							 M162.5,126.6l2.4,7.8l8.2,0.1l-6.7,4.8l2.4,7.8l-6.6-4.9l-6.7,4.8l2.6-7.8l-6.6-4.9l8.2,0.1L162.5,126.6z"/>
						<polygon class="st52" points="167.7,145.3 165.7,139 171.1,135.1 164.5,135 162.5,128.7 160.4,135 153.8,134.9 153.8,135 
							159.1,138.9 156.9,145.2 162.4,141.3 167.7,145.3 						"/>
					</g>
					<g>
						<path class="st52" d="M367.6,300l8.1,6l-3.2,9.6l8.2-5.8l8.1,6l-3-9.7l8.2-5.9l-10.1-0.1l-3-9.6l-3.2,9.6L367.6,300z
							 M381,293.1l2.4,7.8l8.2,0.1l-6.7,4.8l2.4,7.8l-6.6-4.9l-6.7,4.8l2.6-7.8l-6.6-4.9l8.2,0.1L381,293.1z"/>
						<polygon class="st52" points="386.1,311.8 384.1,305.5 389.5,301.7 382.9,301.6 380.9,295.2 378.8,301.5 372.2,301.5 
							372.2,301.5 377.5,305.4 375.4,311.7 380.8,307.9 386.1,311.8 						"/>
					</g>
					<path class="st53" d="M231.5,390.7c1.7,2.5,3.4,4.9,5.1,7.4c3.5,5.1,7.3,10.6,10.8,15.7l15.7-24c0,0-0.2,0-0.2,0
						c-2,0-4,0.1-6,0.1c-0.3,0-0.3,0-0.3,0l-8.4,12.5c-0.6,0.9-1.2,0.9-1.8,0.1c-2.6-3.7-6-8.6-8.5-12.4c0,0-0.7,0-1.7,0
						c-0.3,0-0.7,0-1,0c-1.3,0-2.6,0-4,0.1C231.3,390.4,231.4,390.6,231.5,390.7z M244.4,406.1c0,0,0.8,0,0.8,0l0.3,0
						c0.2,0.3,0.8,1.1,1,1.4c0.5,0.5,1,0.5,1.4-0.1c0.3-0.4,0.7-1.1,0.9-1.5c0,0,0.1,0,0.4,0c0.6,0,1.1,0,1.8,0
						c-1.3,2-2.6,3.8-3.9,5.7l-3.8-5.5C243.5,406.1,244.4,406.1,244.4,406.1z"/>
					<path class="st53" d="M339.3,160.2c0.1-3,0.3-6,0.4-9c0.3-6.2,0.5-12.8,0.8-19l-27,9.7c0,0,0.1,0.1,0.2,0.1
						c1.6,1.2,3.2,2.3,4.8,3.5c0.2,0.2,0.2,0.2,0.2,0.2l14.2-5c1-0.4,1.5,0,1.5,1c-0.1,4.5-0.4,10.5-0.6,15c0,0,0.5,0.4,1.3,1
						c0.3,0.2,0.5,0.4,0.8,0.6c1.1,0.8,2.1,1.5,3.2,2.4C339.3,160.6,339.3,160.4,339.3,160.2z M338.2,140.1c0,0-0.7-0.5-0.7-0.5
						l-0.3-0.2c0-0.3,0-1.3,0-1.7c-0.1-0.7-0.5-1-1.2-0.8c-0.4,0.1-1.2,0.4-1.6,0.6c0,0-0.1-0.1-0.3-0.2c-0.4-0.3-0.9-0.7-1.5-1.1
						c2.2-0.8,4.4-1.5,6.5-2.3l-0.3,6.7C339,140.6,338.2,140.1,338.2,140.1z"/>
					<g>
						<path class="st54" d="M247.7,101.6c0.8,0.7,1.6,1.5,2,2.5c0.1,0.3,0.3,0.3,0.5,0.3c1-0.2,1.9,0,3,0.3c-2,0.7-3.6,1.9-5,3.4
							C248.4,105.8,248.2,103.7,247.7,101.6z"/>
						<path class="st54" d="M256.4,107.7c-0.3-1.3-1.6-2.3-2.9-2.2c-1,0.1-1.9,0.4-2.7,1c-1.8,1.4-2.9,3.2-3.4,5.4
							c-0.2,1-0.3,2.1-0.2,3.1c0,0.4,0,0.4-0.3,0.4c0,0-0.1,0-0.2,0c0-0.2,0-0.4,0-0.6c-0.1-0.9-0.1-1.9,0-2.8
							c0.2-1.2,0.4-2.3,0.6-3.5c0.2-1.1,0.4-2.2,0.3-3.3c-0.1-1.1-0.3-2.2-0.6-3.2c-0.6-1.7-1.5-3.3-2.9-4.5
							c-0.2-0.2-0.4-0.4-0.6-0.5c0,0,0,0,0,0c-0.6,0.9-1.1,1.9-1.4,2.9c-0.4,1.3-0.5,2.6-0.5,4c0.1,1,0.2,1.9,0.5,2.8
							c0.3,1,0.7,1.9,1.3,2.8c0.8,1.5,1.6,3,2.1,4.6c0.1,0.5,0.2,1,0.4,1.5c-0.2,0-0.3,0.1-0.5,0.1c0-0.1-0.1-0.2-0.1-0.2
							c-0.2-0.5-0.3-1.1-0.5-1.6c-0.9-2.2-2.3-4-4.5-5.2c-1.2-0.6-2.5-0.9-3.8-0.7c-0.5,0.1-0.9,0.3-1.3,0.7c-1,0.9-1.2,2.4-0.6,3.6
							c0.5,1,1.3,1.7,2.3,2.2c0.8,0.4,1.7,0.9,2.5,1.3c0.7,0.4,1.3,0.8,1.7,1.5c0,0,0.1,0.1,0.1,0.1c0.1-0.5,0.3-0.9,0.4-1.4
							c-0.2-0.1-0.5-0.2-0.8-0.3c-0.5-0.2-1-0.5-1.3-1c-0.6-0.9-0.2-2.1,0.9-2.4c0.6-0.2,1.1,0,1.7,0.2c1,0.5,1.7,1.3,2.1,2.4
							c0.2,0.4,0.3,0.8,0.4,1.2c-0.4,0.1-0.7,0.3-1,0.4c-0.5,0.2-0.5,0.2-0.5,0.8c0,0,0,0,0,0c0,0,0.1,0.1,0.1,0.1
							c0.2,0,0.4,0.1,0.6,0.1c0.3,0,0.5,0,0.8,0.1c-0.1,0.5-0.2,0.9-0.5,1.3c-0.4,0.6-1,1-1.8,0.9c-0.2,0-0.4-0.1-0.7-0.2
							c-0.1,0.3,0,0.7,0.1,1.1c0.3,0.8,1,1.1,1.8,1c0.7-0.2,1.1-0.6,1.4-1.2c0.4-0.8,0.5-1.6,0.6-2.5c0-0.3,0-0.3,0.3-0.4
							c0.2,0,0.2,0,0.2,0.2c-0.1,0.8-0.1,1.5-0.2,2.3c0,0.5-0.1,1.1,0.1,1.6c0.2,0.9,0.7,1.6,1.3,2.3c-0.1-0.9-0.8-4.8-0.8-4.8
							s-0.4,0.6-0.4,1.6c0,1,0.2,1.6,0.3,1.8c0,0.1,0.1,0.1,0.1,0.1s0,0-0.1-0.1c-0.1-0.3-0.5-1.1-0.5-1.8c0-1,0.5-1.8,0.5-1.8
							s1.1,0.8,1.2,2.4c0.1,0.7-0.3,1.9-0.4,2.7c0,0,0,0,0.1,0.1c0,0,0.1,0.1,0.2,0.1c0.2-0.4,0.3-0.7,0.5-1.1
							c0.3-0.8,0.4-1.6,0.2-2.5c-0.1-0.5-0.3-1-0.5-1.5c-0.2-0.6-0.5-1.1-0.6-1.8c0.2,0,0.3-0.1,0.5-0.1c0,0,0,0,0,0
							c0.1,0.1,0.1,0.3,0.2,0.4c0.3,0.8,0.7,1.6,1.3,2.2c0.5,0.5,1.2,0.8,1.9,0.6c0.7-0.2,1.2-0.8,1.1-1.6c0-0.3-0.1-0.6-0.2-0.9
							c-0.9,1-2.9,0.3-3.4-1.1c0.3-0.1,0.6-0.2,0.8-0.3c0.5-0.2,0.5-0.2,0.4-0.8c0-0.2-0.1-0.2-0.2-0.2c-0.4,0-0.8-0.1-1.3-0.1
							c-0.1,0-0.2,0-0.2-0.2c-0.1-0.9,0-1.8,0.4-2.6c0.4-0.9,0.9-1.5,1.8-1.9c0.5-0.2,1.1-0.2,1.6,0.1c0.7,0.5,0.9,1.3,0.4,2.1
							c-0.2,0.4-0.5,0.7-0.9,1c-0.2,0.2-0.4,0.4-0.7,0.6c0.4,0.3,0.6,0.7,0.7,1.1c0,0,0.1,0.1,0.1,0.1c0,0,0.1-0.1,0.1-0.1
							c0.1-0.5,0.4-0.9,0.7-1.2c0.7-0.8,1.5-1.6,2.2-2.3c0.5-0.5,0.9-0.9,1.3-1.5C256.3,109.6,256.6,108.7,256.4,107.7z
							 M238.8,112.5c-0.9,1.2,0.1,2.6,0.1,2.6s-1.5-0.8-2.2-2.3c-0.2-0.4-0.3-1.1,0.1-1.6c0.6-0.9,1.5-0.8,2-0.7
							c2.8,0.3,4.6,2.6,4.6,2.6C240.8,111.1,239.4,111.6,238.8,112.5z M241.1,110.2c-3.2-2.6-5.5-1.3-6-0.6
							c-1.3,1.6,0.6,3.7,0.6,3.7s-0.9-0.8-1.2-2.1c0-0.2-0.1-1.1,0.2-1.7c0.6-0.9,1.7-1.2,2.5-1.2c4.5,0.1,6.2,4.7,6.2,4.7
							C242.6,111.8,241.9,110.8,241.1,110.2z M243.1,120.7c-0.6,0.2-1.2-0.4-1.2-0.4c2.1,0.4,2.7-1.8,2.7-1.8
							S244.3,120.2,243.1,120.7z M243.4,98.3c0,0-1.1,2-1.1,4.9c0.1,3.1,0.7,5.1,1,5.8c0.1,0.2,0.2,0.4,0.2,0.4s-0.1-0.1-0.2-0.4
							c-0.4-1-1.5-3.6-1.5-5.7c-0.1-3.2,1.5-5.7,1.5-5.7s3.2,2.7,3.7,7.7c0.2,2.5-1.1,6.4-1.1,8.9
							C245.9,114.3,243.4,98.3,243.4,98.3z M251.2,118.9c0,0-0.5,0.8-1.1,0.8c-1.3-0.1-2-1.8-2-1.8S249.3,119.8,251.2,118.9z
							 M254.2,110.2c-0.2,1.7-1.4,2.8-1.4,2.8s0.6-1.5-0.7-2.5c-0.9-0.7-2.4-0.8-4.3,1.8c0,0,1.1-2.7,3.7-3.8
							c0.5-0.2,1.3-0.6,2.1,0.1C254.1,109.1,254.2,109.8,254.2,110.2z M255.8,108.1c0.1,1.3-0.5,2.3-0.5,2.3s1.2-2.6-0.5-3.8
							c-0.7-0.5-3.3-1-5.6,2.4c-0.6,0.8-1,1.9-1.4,3.3c0,0,0.3-4.8,4.6-6.3c0.7-0.2,1.9-0.2,2.7,0.5
							C255.6,107,255.8,107.9,255.8,108.1z"/>
					</g>
					<path class="st55" d="M390,365.4c-23.2,31.2-54.6,52.6-89,63.5l11.4,35.3c41.5-13.2,79.5-39,107.4-76.6
						c28.7-38.6,42.5-83.7,42.4-128.3l-37.1,0.1C425.1,296.2,413.7,333.4,390,365.4z"/>
					<path class="st56" d="M104,153.8l-29.8-22.1c-56.1,76-54.7,176.9-3.5,250.4l30.4-21.2C58.8,300,57.7,216.7,104,153.8z"/>
					<path class="st57" d="M353.3,116.5c46.9,34.9,71.7,88.5,71.8,142.8l37.1-0.1c-0.1-65.6-30.1-130.3-86.7-172.4
						c-18.7-13.9-39-24.3-60-31.4l-11.9,35.1C321,96.3,337.8,104.9,353.3,116.5z"/>
					<path class="st58" d="M141.1,402c-15.9-11.8-29.2-25.8-39.9-41.2L70.7,382c12.9,18.6,29.1,35.5,48.3,49.7
						c57.7,42.9,129.7,52.5,193.3,32.3L301,428.8C248.4,445.4,188.8,437.4,141.1,402z"/>
					<path class="st59" d="M74.2,131.6l29.8,22.1c0.2-0.2,0.3-0.4,0.5-0.6c47.1-63.3,128.2-86.4,199.2-62.6l11.9-35.1
						C229.7,26.6,131.6,54.5,74.7,131C74.5,131.2,74.4,131.4,74.2,131.6z"/>
					<g>
						<g id="XMLID_62_">
							<path class="st51" d="M331.7,383.2c-2.2,0.3-5.1,0.1-6.6,1.8c-2,2.3-2.3,7.2-3.1,8.3c0,0-0.6,0.3-0.4-0.4
								c1.3-5.4-1.2-10.4-4.5-12.1c0,0,0.4-1.3,0.5-1.8c-0.1-1.4-3.8-5.9-5.1-7.1c0,0-0.1-0.7,0.4-0.4c2.7,1.9,4.8,4.1,5.7,5.1
								c0.3,0.4,0.5,0.3,0.4-0.2c-0.4-1.7-1.3-3.9-3.4-7.5c0,0,0-0.7,0.5-0.2c2.7,3,8.5,13.8,8.8,13.7c2.6-0.3,5.5-0.1,6.7,0.3
								C331.9,382.9,331.7,383.2,331.7,383.2z"/>
						</g>
						<g id="XMLID_58_">
							<path class="st51" d="M339.3,377.1c-0.3,0.1-0.6,0.4-0.8,0.7c-0.2,0.5-0.3,1.1-0.1,1.8c0.2,0.6,0.6,1.1,1.1,1.4
								c0.4,0.2,0.7,0.2,1.1,0.1c0.3-0.1,0.6-0.4,0.8-0.7c0.2-0.5,0.3-1.1,0.1-1.8c-0.2-0.6-0.6-1.1-1.1-1.4
								C340,377.1,339.7,377,339.3,377.1z"/>
						</g>
						<g id="XMLID_54_">
							<path class="st51" d="M325.8,387.9c0.4,0.4,1,0.6,1.5,0.6c0.4,0,0.6-0.2,0.9-0.4c0.2-0.2,0.3-0.5,0.3-0.9
								c0-0.5-0.3-1-0.7-1.4c-0.8-0.7-1.8-0.8-2.3-0.2C324.8,386.1,325,387.2,325.8,387.9z"/>
						</g>
						<g id="XMLID_76_">
							<path class="st51" d="M328.2,377.1c-0.2,0.1-0.3,0.4-0.4,0.6c-0.1,0.4,0.1,1,0.4,1.4c0.5,0.8,1.4,1.1,1.9,0.7
								c0.2-0.1,0.3-0.4,0.4-0.6c0.1-0.4-0.1-1-0.4-1.4C329.6,377.1,328.7,376.7,328.2,377.1z"/>
						</g>
						<g id="XMLID_64_">
							<path class="st51" d="M323,365.5L323,365.5L323,365.5c1.5,3.3,1.9,5.2,2,5.7c-0.5-0.7-2.9-3.1-3.8-3.7
								c-0.6-0.4-0.7,0.2-0.7,0.2c6.3,7.9,5,10.4,4.1,13.3c-0.1,0.4,0.2,0.4,0.2,0.4c0.4-0.3,1.4-2.2,1.5-2.4
								c2.3-4.6,5.7-3.3,6.4-3.3c0,0,0.2-0.2-0.1-0.5c-0.5-0.3-2.6-1-4.4-0.9c-0.7-2.3-3.6-7.4-4.8-8.9
								C323.1,364.8,323,365.5,323,365.5z"/>
						</g>
						<g id="XMLID_2_">
							<path class="st51" d="M347.5,369.1c-3.1,0.2-7.7,2.5-9.6,3.6c-2.9-5.9-7.1-11.9-9.8-14.4c-0.7-0.7-0.8,0.2-0.8,0.2
								c2.2,3,4.7,8.2,4.5,9.9c-1.4-1.4-5.4-4.7-9.1-6.2c-0.8-0.3-0.7,0.3-0.7,0.3c12.4,10.4,13.1,15.1,13.8,20
								c0.2,1.6,0.5,3.2,1.1,5c0.3,0.9,0.8,0.1,0.8,0.1c-1.4-7.3-0.7-14.1,10.4-18.1C348.1,369.6,348.2,369.1,347.5,369.1z"/>
						</g>
					</g>
					<path class="st53" d="M115.2,281c-2.1,2.1-4.2,4.3-6.3,6.4c-4.3,4.4-9,9.2-13.3,13.6l26.6,10.7c0,0,0-0.2,0-0.2
						c-0.4-1.9-0.8-3.9-1.2-5.8c-0.1-0.3-0.1-0.3-0.1-0.3l-13.9-5.8c-1-0.4-1.1-1-0.4-1.7c3.1-3.3,7.3-7.6,10.5-10.8
						c0,0-0.2-0.6-0.3-1.6c-0.1-0.3-0.1-0.7-0.2-1c-0.3-1.3-0.5-2.6-0.8-3.9C115.4,280.7,115.3,280.9,115.2,281z M102.6,296.7
						c0,0,0.2,0.8,0.2,0.8l0.1,0.3c-0.2,0.2-0.9,1-1.2,1.3c-0.4,0.6-0.3,1.1,0.3,1.4c0.4,0.2,1.2,0.5,1.6,0.6c0,0,0,0.1,0.1,0.4
						c0.1,0.6,0.2,1.1,0.4,1.8c-2.2-0.9-4.3-1.8-6.4-2.7l4.7-4.8C102.4,295.8,102.6,296.7,102.6,296.7z"/>
					<g id="GoFPfz.tif_1_">
						
							<image style="overflow:visible;" width="2230" height="1476" id="Livello_1_1_" xlink:href="C859B23556CA199F.png"  transform="matrix(9.792618e-03 -2.788235e-02 2.788235e-02 9.792618e-03 77.3534 237.1083)">
						</image>
					</g>
				</g>
				<g>
					<circle class="st28" cx="247.2" cy="259.2" r="86.2"/>
					<g>
						<line class="st60" x1="307.9" y1="198.9" x2="185.9" y2="318.6"/>
						<line class="st60" x1="307.4" y1="319.7" x2="187.7" y2="197.7"/>
						<line class="st60" x1="294.1" y1="187.3" x2="200" y2="330.1"/>
						<line class="st60" x1="318.9" y1="305.6" x2="176.2" y2="211.6"/>
						<line class="st60" x1="331.4" y1="241.3" x2="163.1" y2="275.5"/>
						<line class="st60" x1="264.3" y1="342.5" x2="230.3" y2="175.1"/>
						<line class="st60" x1="333.1" y1="257.2" x2="161.4" y2="257.9"/>
						<line class="st60" x1="246.7" y1="344.3" x2="247.8" y2="173.5"/>
						<line class="st60" x1="305.8" y1="219.6" x2="188.6" y2="297.2"/>
						<line class="st60" x1="286" y1="317" x2="208.4" y2="199.8"/>
						<line class="st60" x1="316.2" y1="272" x2="178.2" y2="244.8"/>
						<line class="st60" x1="233.6" y1="327.4" x2="260.8" y2="189.4"/>
						<line class="st60" x1="311.8" y1="286.1" x2="182.6" y2="230.7"/>
						<line class="st60" x1="219.5" y1="323" x2="274.9" y2="193.8"/>
						<line class="st60" x1="312.5" y1="232.3" x2="182" y2="284.5"/>
						<line class="st60" x1="273.4" y1="323.6" x2="221.1" y2="193.1"/>
						<g>
							<polygon class="st61" points="247.8,189.5 266.2,242.1 322.4,241.6 275.5,274.4 294.1,326.8 248.5,294.5 199.9,327.7 
								217.8,275 170,243 230.4,242.5 							"/>
							<polygon class="st28" points="248,207.2 262,247.6 304.8,247.2 268.7,272.3 283,312.6 248.4,287.8 210.7,313.2 224.3,272.7 
								187.8,248.3 234.6,247.8 							"/>
							<polygon class="st61" points="248,216 260,250.3 296,250 265.3,271.3 277.5,305.6 248.4,284.5 216.1,306.1 227.6,271.7 
								196.6,251 236.7,250.5 							"/>
							<g>
								<path class="st41" d="M236.4,288.9c0-1.4-1.2-2.5-2.6-2.5l-5.6,0.1l0.1,8.7l1.2,0l0-3.5l3.3,0l2.4,3.5l1.4,0l-2.4-3.6
									C235.7,291.1,236.4,290.3,236.4,288.9z M234.8,290c-0.2,0.2-0.5,0.4-0.9,0.4l-4.4,0l0-2.8l4.5,0c1,0,1.2,0.8,1.2,1.4l0,0
									C235.2,289.3,235,289.7,234.8,290z"/>
								<path class="st41" d="M245.3,292c0,1.2-1.4,1.9-2.8,1.9c-1.3,0-2.7-0.6-2.7-1.8l-0.1-5.8l-1.2,0l0.1,5.9
									c0,0.7,0.3,1.4,0.8,1.9c0.7,0.7,1.7,1,3,1c0,0,0,0,0.1,0c2.7-0.1,4-1,4-3l-0.1-5.9l-1.2,0L245.3,292z"/>
								<path class="st41" d="M255,286.2l-5.6,0.1l0.1,8.7l1.2,0l0-3.6l4.3,0c1.2,0,2.2-1.1,2.2-2.4v0c0-0.7-0.3-1.5-0.9-2
									C255.9,286.4,255.4,286.2,255,286.2z M255.9,288.8L255.9,288.8c0,0.4-0.1,0.8-0.4,1c-0.1,0.1-0.3,0.2-0.4,0.2l-4.4,0l0-2.8
									l4.3,0C255.4,287.3,255.9,288.1,255.9,288.8z"/>
								<path class="st41" d="M264.8,286.1l-5.6,0.1l0.1,8.7l1.2,0l0-3.6l4.3,0c1.2,0,2.2-1.1,2.2-2.4c0-0.7-0.3-1.5-0.9-2
									C265.7,286.3,265.3,286.1,264.8,286.1z M265.7,288.7L265.7,288.7c0,0.4-0.1,0.8-0.4,1c-0.1,0.1-0.3,0.2-0.4,0.2l-4.4,0
									l0-2.8l4.3,0C265.2,287.2,265.7,288,265.7,288.7z"/>
								<path class="st41" d="M273.1,294.8c1.5,0,2.8-0.6,3.7-1.5c0.8-0.8,1.2-1.9,1.2-3c0-3.1-2.6-4.4-5-4.4
									c-1.4,0-2.7,0.6-3.6,1.5c-0.8,0.8-1.2,1.9-1.2,3C268.2,292.7,270.5,294.8,273.1,294.8z M269.4,290.3c0-1.8,1.9-3.3,3.6-3.3
									c0,0,0,0,0.1,0c1,0,2.1,0.4,2.8,1.1c0.6,0.6,0.9,1.3,0.9,2.1c0,0.8-0.3,1.6-0.9,2.2c-0.7,0.7-1.7,1.1-2.8,1.1c0,0,0,0,0,0
									C271.1,293.7,269.5,292.2,269.4,290.3z"/>
								<path class="st41" d="M221.9,291.6l3,0l0,1.5c-0.2,0.2-1.2,1-2.9,1c-2.3,0-3.7-1.2-3.8-3.3c0-1.9,1.4-3.2,3.6-3.2
									c0,0,0.1,0,0.1,0c1.7,0,3.1,1,3.1,1l0.1,0.1l0.8-0.9l-0.2-0.1c-1.4-0.9-2.6-1.4-3.9-1.4c-1.4,0-2.7,0.5-3.7,1.5
									c-0.8,0.8-1.3,1.9-1.2,3c0,2.8,2,4.5,5,4.5c2.7,0,4-1.7,4.1-1.7l0,0l0-3l-4.2,0L221.9,291.6z"/>
								<g>
									<polygon class="st52" points="247.5,207.7 254.4,227.4 275.6,227.2 257.9,239.5 264.9,259.2 247.8,247.1 229.5,259.6 
										236.3,239.8 218.3,227.7 241,227.5 									"/>
									<polygon class="st28" points="247.6,214.3 252.9,229.5 268.9,229.3 255.4,238.8 260.8,253.9 247.8,244.6 233.6,254.1 
										238.7,238.9 225,229.7 242.6,229.6 									"/>
									<polygon class="st52" points="247.6,217.6 252.1,230.5 265.6,230.4 254.1,238.4 258.7,251.2 247.7,243.3 235.6,251.5 
										240,238.5 228.3,230.7 243.3,230.6 									"/>
								</g>
								<path class="st41" d="M178.1,272c0-0.5,0.3-1.2,1.9-1.2c1.5,0,2.8,0.7,2.8,0.7l-0.3-3.1c-0.2,0.2-0.5,0.3-0.7,0.2
									c-0.5-0.1-1.3-0.2-2.2-0.2c-3.3,0-4.8,2-4.8,3.8c0,3.5,5.4,3.7,5.4,6.2c0,0.9-0.9,1.4-1.9,1.5c-2.2,0-3.7-1-3.7-1l0.4,3.1
									c0.3-0.1,0.5-0.1,0.8-0.1c0.7,0.2,1.8,0.4,2.9,0.4c3.2,0,4.8-1.8,4.8-3.9C183.5,273.9,178.1,274.1,178.1,272z"/>
								<path class="st41" d="M290,268.8l0.1,12.1l3,0l-0.1-13.4l-3.6,0C289.4,267.6,289.9,267.9,290,268.8z"/>
								<path class="st41" d="M287.3,272.1c0-2.4-2-4.4-4.4-4.4l-6.4,0.1c0,0,0.5,0.4,0.5,0.9l0.1,12.4l2.9,0l0-4.6l1.8,0l2.7,4.5
									l3.3,0l-2.9-5C286.4,275.3,287.4,273.8,287.3,272.1z M280,270.6l2.7,0c0.8,0,1.5,0.7,1.5,1.5c0,0.8-0.7,1.5-1.5,1.5l-2.7,0
									L280,270.6z"/>
								<path class="st41" d="M272.2,274.4c0,0.3,0,2.2,0,2.2s-1.1,1.9-2.9,1.9c-1.4,0-3.5-1.3-3.5-3.8s1.8-4,3.4-4s2.6,1.1,2.6,1.1
									l1.3-2.7c0,0-1.5-1.6-4.1-1.5c-3.4,0-6.2,2.8-6.2,7s3.2,6.9,6.3,6.9s4.1-1.9,5.8-3.6l0-4.1l-3.3,0
									C271.7,273.8,272.2,274.1,272.2,274.4z"/>
								<path class="st41" d="M313.9,267.1c-3.5,0-6.3,3.2-6.2,7c0,3.8,2.9,6.9,6.3,6.9c3.5,0,6.3-3.2,6.2-7
									C320.2,270.2,317.3,267.1,313.9,267.1z M314,277.9c-1.7,0-3-1.6-3-3.8c0-2.2,1.3-3.8,3-3.8c1.7,0,3,1.6,3,3.8
									C317,276.2,315.6,277.8,314,277.9z"/>
								<path class="st41" d="M303,274.6l-4-7l-3.9,0c0,0,0.5,0.3,0.6,1.2l0.1,12.1l2.8,0l-0.1-8.3l4.6,8.3l2.8,0l-0.1-13.4l-2.8,0
									L303,274.6z"/>
								<path class="st41" d="M256.2,276l4,0l0-2.9l-4,0l0-2.3l5.2,0l-0.8-2.9l-7.8,0.1c0,0,0.5,0.3,0.5,1.2l0.1,12.2l7.7-0.1l0.7-3
									l-5.6,0.1L256.2,276z"/>
								<path class="st41" d="M205.4,275.5l-4-7l-3.9,0c0,0,0.5,0.3,0.6,1.2l0.1,12.1l2.8,0l-0.1-8.3l4.6,8.3l2.8,0l-0.1-13.4
									l-2.8,0L205.4,275.5z"/>
								<path class="st41" d="M246.1,268l-3.6,0c0,0,0.5,0.3,0.5,1.2l0.1,12.1l7.7-0.1l0.7-3l-5.3,0.1L246.1,268z"/>
								<path class="st41" d="M187.5,268.6c0,0,0.7,0.4,0.5,1.2l-3.5,12.2l2.6,0l0.9-3.1l4.2,0l1,3.1l3.3,0l-4.5-13.3L187.5,268.6z
									 M188.7,276.3l1.2-4.3l1.4,4.3L188.7,276.3z"/>
								<path class="st41" d="M216.5,268.3l-6.4,0.1c0,0,0.5,0.3,0.5,1.2l0.1,12.1l2.9,0l0-4.6l2.9,0c2.4,0,4.4-2,4.4-4.4
									C220.9,270.2,218.9,268.3,216.5,268.3z M216.3,274.3l-2.7,0l0-3.1l2.7,0c0.8,0,1.5,0.7,1.5,1.5
									C217.8,273.6,217.1,274.2,216.3,274.3z"/>
								<path class="st41" d="M235.9,268.1l-3.6,0c0,0,0.5,0.3,0.5,1.2l0.1,12.1l7.7-0.1l0.7-3l-5.3,0.1L235.9,268.1z"/>
								<path class="st41" d="M225.3,276.3l4,0l0-2.9l-4,0l0-2.3l5.2,0l-0.8-2.9l-7.8,0.1c0,0,0.5,0.3,0.5,1.2l0.1,12.2l7.7-0.1
									l0.7-3l-5.6,0.1L225.3,276.3z"/>
							</g>
						</g>
					</g>
				</g>
			</g>
		</g>
	</g>
	<polyline class="st62" points="1123.2,259.2 247.2,259.2 325.7,26 	"/>
</g>
<g>
	<g>
		<g>
			<path class="st63" d="M1141.2,253.1l-10.8,0l-3.4-10.1l-3.4,10.1l-11.6,0l9.1,6.2l-3.5,10.1l9.4-6.3l8.7,6.3l-3.5-10.1
				L1141.2,253.1z M1133.5,266.6l-6.6-4.8l-7.3,4.8l2.7-7.7l-7-4.8l9,0l2.6-7.8l2.6,7.8l8.2,0l-7,4.8L1133.5,266.6z M1136.1,254.7
				l-6.9,0l-2.2-6.6l-2.2,6.6l-7.7,0l5.9,4l-2.3,6.6l6.2-4.1l5.6,4.1l-2.3-6.6L1136.1,254.7z"/>
		</g>
	</g>
</g>
<g>
	<path class="st57" d="M483.3,199h-9.4c-0.8,0-1.2,0.3-1.2,1.2v2.5h-3.5v-4c0-2.3,0.8-3.1,3.1-3.1h25.8c2.3,0,3.1,0.8,3.1,3.1v4
		h-3.5v-2.5c0-0.9-0.4-1.2-1.2-1.2h-9.4v34.7h-3.8V199z"/>
	<path class="st57" d="M507.8,199h-3.5v-3.4h16.1c6.4,0,10.9,4.2,10.9,10.8c0,5.9-3.6,9.4-7.4,10.2v0.1c0,0,0.8,0.4,1.3,1.5
		l5.5,10.8c0.5,1.1,1.4,1.2,2.7,1.2h0.8v3.4h-1.7c-3.1,0-4-0.4-5.3-2.9l-5.5-10.9c-1-2-1.7-2.3-3.8-2.3h-6.4v16h-3.8V199z
		 M520,214.3c4.6,0,7.4-3,7.4-7.7c0-4.7-2.8-7.6-7.3-7.6h-8.5v15.3H520z"/>
	<path class="st57" d="M536,230.3h0.7c1,0,1.6-0.2,1.9-1.2l12.5-33.5h4.1l12.5,33.5c0.4,1,0.9,1.2,1.9,1.2h0.7v3.4h-1.7
		c-2.7,0-3.5-0.5-4.5-3.1l-3.3-9h-15.1l-3.4,9c-1,2.6-1.7,3.1-4.4,3.1H536V230.3z M559.6,218.2l-5-13.6c-0.7-1.8-1.5-4.9-1.5-4.9
		H553c0,0-0.8,3.1-1.5,4.9l-5,13.6H559.6z"/>
	<path class="st57" d="M575.3,226.2c0,0,3.8,4.7,9.9,4.7c4.2,0,7.5-2.7,7.5-6.8c0-9.4-18.8-7.5-18.8-19.3c0-5.3,4.6-9.7,11.6-9.7
		c3.7,0,10.3,1.6,10.3,6.6v2.7h-3.6v-1.8c0-2.3-3.1-4-6.7-4c-4.9,0-7.8,2.9-7.8,6.1c0,8.8,18.8,6.7,18.8,19.2
		c0,5.7-4.4,10.5-11.5,10.5c-7.8,0-12.1-5.4-12.1-5.4L575.3,226.2z"/>
	<path class="st57" d="M604.8,199h-3.5v-3.4h16.1c6.8,0,11.8,4.4,11.8,11.5c0,7.1-5,11.6-11.8,11.6h-8.8v14.9h-3.8V199z
		 M616.9,215.4c5,0,8.3-3.1,8.3-8.3c0-5.1-3.3-8.1-8.3-8.1h-8.3v16.4H616.9z"/>
	<path class="st57" d="M651.8,195c10.8,0,19.4,8.5,19.4,19.4c0,11.2-8.6,19.9-19.4,19.9c-10.8,0-19.4-8.8-19.4-19.9
		C632.4,203.5,641,195,651.8,195z M651.8,230.8c8.5,0,15.4-7.2,15.4-16.4c0-9-6.9-15.9-15.4-15.9c-8.6,0-15.4,6.9-15.4,15.9
		C636.4,223.6,643.3,230.8,651.8,230.8z"/>
	<path class="st57" d="M679,199h-3.5v-3.4h16.1c6.4,0,10.9,4.2,10.9,10.8c0,5.9-3.6,9.4-7.4,10.2v0.1c0,0,0.8,0.4,1.3,1.5l5.5,10.8
		c0.5,1.1,1.4,1.2,2.7,1.2h0.8v3.4h-1.7c-3.1,0-4-0.4-5.3-2.9l-5.5-10.9c-1-2-1.7-2.3-3.8-2.3h-6.4v16H679V199z M691.3,214.3
		c4.6,0,7.4-3,7.4-7.7c0-4.7-2.8-7.6-7.3-7.6h-8.5v15.3H691.3z"/>
	<path class="st57" d="M719.7,199h-9.4c-0.8,0-1.2,0.3-1.2,1.2v2.5h-3.5v-4c0-2.3,0.8-3.1,3.1-3.1h25.8c2.3,0,3.1,0.8,3.1,3.1v4H734
		v-2.5c0-0.9-0.4-1.2-1.2-1.2h-9.4v34.7h-3.8V199z"/>
	<path class="st57" d="M740.9,230.3h3.6V199h-3.6v-3.4h10.9v3.4h-3.6v31.4h3.6v3.4h-10.9V230.3z"/>
	<path class="st57" d="M774.8,199h-3.5v-3.4H793c2.3,0,3.3,1,3.3,3.3v3.8h-3.6v-2.5c0-0.8-0.4-1.2-1.2-1.2h-13v13.9h14.3v3.4h-14.3
		v12.9c0,0.8,0.4,1.2,1.2,1.2h13.4c0.8,0,1.2-0.4,1.2-1.2v-2.5h3.5v3.8c0,2.3-1,3.3-3.3,3.3h-16.5c-2.3,0-3.3-1-3.3-3.3V199z"/>
	<path class="st57" d="M819.8,200.2c0-0.8-0.4-1.2-1.2-1.2h-2.3v-3.4h4c2.3,0,3.3,1,3.3,3.3v30.2c0,0.8,0.4,1.2,1.2,1.2h12.6
		c0.8,0,1.2-0.4,1.2-1.2v-2.5h3.6v3.8c0,2.3-1,3.3-3.3,3.3h-15.8c-2.3,0-3.3-1-3.3-3.3V200.2z"/>
	<path class="st57" d="M863.1,195c10.8,0,19.4,8.5,19.4,19.4c0,11.2-8.6,19.9-19.4,19.9c-10.8,0-19.4-8.8-19.4-19.9
		C843.7,203.5,852.2,195,863.1,195z M863.1,230.8c8.5,0,15.4-7.2,15.4-16.4c0-9-6.9-15.9-15.4-15.9c-8.6,0-15.4,6.9-15.4,15.9
		C847.6,223.6,854.5,230.8,863.1,230.8z"/>
	<path class="st57" d="M905.6,195c8.8,0,13.3,4.7,13.3,4.7l-2.2,2.8c0,0-4.2-3.9-11-3.9c-8.6,0-15.1,6.9-15.1,16
		c0,9.4,6.4,16.2,15.1,16.2c7.5,0,12-5.6,12-5.6v-4.7c0-0.8-0.4-1.2-1.2-1.2h-2.3v-3.4h3.8c2.3,0,3.3,1,3.3,3.3v14.5h-3.5v-2.9
		c0-0.8,0.1-1.6,0.1-1.6h-0.1c0,0-4.4,5.1-12.5,5.1c-10.4,0-18.6-8.3-18.6-19.8C886.6,203.6,894.8,195,905.6,195z"/>
	<path class="st57" d="M926.5,230.3h3.6V199h-3.6v-3.4h10.9v3.4h-3.6v31.4h3.6v3.4h-10.9V230.3z"/>
	<path class="st57" d="M944.2,226.2c0,0,3.8,4.7,9.9,4.7c4.2,0,7.5-2.7,7.5-6.8c0-9.4-18.8-7.5-18.8-19.3c0-5.3,4.6-9.7,11.6-9.7
		c3.7,0,10.3,1.6,10.3,6.6v2.7h-3.6v-1.8c0-2.3-3.1-4-6.7-4c-4.9,0-7.8,2.9-7.8,6.1c0,8.8,18.8,6.7,18.8,19.2
		c0,5.7-4.4,10.5-11.5,10.5c-7.8,0-12.1-5.4-12.1-5.4L944.2,226.2z"/>
	<path class="st57" d="M982.9,199h-9.4c-0.8,0-1.2,0.3-1.2,1.2v2.5h-3.5v-4c0-2.3,0.8-3.1,3.1-3.1h25.8c2.3,0,3.1,0.8,3.1,3.1v4
		h-3.5v-2.5c0-0.9-0.4-1.2-1.2-1.2h-9.4v34.7h-3.8V199z"/>
	<path class="st57" d="M1004.1,230.3h3.6V199h-3.6v-3.4h10.9v3.4h-3.6v31.4h3.6v3.4h-10.9V230.3z"/>
	<path class="st57" d="M1038.3,195c5.4,0,14.2,2.3,14.2,8.1v3.1h-3.6v-2.1c0-3.6-6.2-5.5-10.6-5.5c-8.4,0-15,6.6-15,15.8
		c0,9.1,6.4,16.4,15.1,16.4c7.9,0,12.5-5.4,12.5-5.4l2.2,2.8c0,0-5.3,6.2-14.7,6.2c-11.2,0-19-8.9-19-20
		C1019.5,203.4,1027.6,195,1038.3,195z"/>
	<path class="st57" d="M1055.7,230.3h0.7c1,0,1.6-0.2,1.9-1.2l12.5-33.5h4.1l12.5,33.5c0.4,1,0.9,1.2,1.9,1.2h0.7v3.4h-1.7
		c-2.7,0-3.5-0.5-4.5-3.1l-3.3-9h-15.1l-3.4,9c-1,2.6-1.7,3.1-4.4,3.1h-1.8V230.3z M1079.4,218.2l-5-13.6c-0.7-1.8-1.5-4.9-1.5-4.9
		h-0.1c0,0-0.8,3.1-1.5,4.9l-5,13.6H1079.4z"/>
</g>
</svg>
