<?xml version="1.0" encoding="utf-8"?>
<!-- Generator: Adobe Illustrator 23.0.0, SVG Export Plug-In . SVG Version: 6.00 Build 0)  -->
<svg version="1.1" id="Livello_1" xmlns="http://www.w3.org/2000/svg" xmlns:xlink="http://www.w3.org/1999/xlink" x="0px" y="0px"
	 viewBox="0 0 705 281" style="enable-background:new 0 0 705 281;" xml:space="preserve">
<style type="text/css">
	.st0{fill:#00295A;}
	.st1{fill-rule:evenodd;clip-rule:evenodd;fill:#72C2E1;}
</style>
<g>
	<g>
		<path class="st0" d="M32.3,170.2v5.4h636.2v-5.4H32.3z M607.2,133.4h37.2l6.7,6.7c2,2.1,3.2,4.8,3.2,7.7c0,2.9-1.1,5.6-3.2,7.7
			c-2,2.1-4.8,3.2-7.7,3.2H530.6v5.4h112.9c4.3,0,8.4-1.7,11.5-4.8c3.1-3.1,4.8-7.2,4.8-11.5c0-4.3-1.7-8.4-4.8-11.5l-22.2-22.2
			c-5.9-5.9-13.7-9.1-22-9.1H498.1v0h-5.7v0h-411v5.4h500.4C583,123.3,594,133.4,607.2,133.4z M610.8,110.4c6.9,0,13.3,2.7,18.1,7.5
			L639,128h-31.8c-10.3,0-18.8-7.7-20.1-17.6H610.8z M550.9,116.5v16.9h24.5v-16.9H550.9z M570.1,128h-13.8v-6.1h13.8V128z
			 M520.3,116.5v16.9h24.5v-16.9H520.3z M539.4,128h-13.8v-6.1h13.8V128z M514.2,116.5h-21.9v5.4h16.5v6.1h-16.5v5.4h21.9V116.5z
			 M523,158.7h-19.2v5.4H523V158.7z M492.3,164.1h5.7v-5.4h-5.7V164.1z M549.8,147.2h-34.5v5.4h34.5V147.2z M509.5,152.6v-5.4h-5.7
			v5.4H509.5z M557.4,98.9h34.5v-5.4h-34.5V98.9z M551.7,98.9v-5.4h-5.7v5.4H551.7z M561.3,82h-23v5.4h23V82z M532.5,82h-5.7v5.4
			h5.7V82z M614.7,139.5v5.4h5.4v-5.4H614.7z M604,139.5v5.4h5.4v-5.4H604z M636.3,139.5v5.4h5.4v-5.4H636.3z M625.5,139.5v5.4h5.4
			v-5.4H625.5z"/>
	</g>
</g>
<path class="st1" d="M177.3,45.2c52.5,0,95,42.6,95,95c0,52.5-42.6,95-95,95c-52.5,0-95-42.6-95-95C82.3,87.8,124.9,45.2,177.3,45.2
	z"/>
<path class="st1" d="M379.2,45.2c52.5,0,95,42.6,95,95c0,52.5-42.6,95-95,95c-52.5,0-95-42.6-95-95
	C284.2,87.8,326.7,45.2,379.2,45.2z"/>
<g>
	<path class="st0" d="M140.6,117.4h8.9v2.6h-8.9V117.4z"/>
	<path class="st0" d="M163.8,110.5c0.7-1.2,1.2-2,1.2-2v-0.1c0,0-0.5,0.1-1.6,0.1H157c-0.4,0-0.7,0.2-0.7,0.7v1.4h-2.8v-2.7
		c0-1.4,0.5-2,1.9-2h13.1v2.1L158,127.4h-3.4L163.8,110.5z"/>
	<path class="st0" d="M176.4,115.8L176.4,115.8c0-0.1-2.7-1.5-2.7-4.5c0-3,2.4-5.8,6.7-5.8c4.1,0,6.7,2.5,6.7,5.8
		c0,3.2-2.6,5.1-2.6,5.1v0.1c2,1.1,3.2,2.6,3.2,4.9c0,3.4-3,6.3-7.4,6.3c-4.1,0-7.5-2.5-7.5-6.5
		C172.8,117.7,176.4,115.8,176.4,115.8z M180.3,125c2.3,0,4.4-1.5,4.4-3.6c0-1.9-1.6-2.7-3.6-3.5c-0.8-0.3-2-0.8-2.2-0.8
		c-0.8,0-2.9,1.8-2.9,4.1C175.9,123.5,178,125,180.3,125z M181.9,115.3c0.7,0,2.3-1.8,2.3-3.7c0-2-1.6-3.2-3.8-3.2
		c-2.3,0-3.7,1.3-3.7,3c0,1.9,1.6,2.6,3.5,3.4C180.7,114.9,181.5,115.3,181.9,115.3z"/>
	<path class="st0" d="M193.9,110.1c0-2.5,2-4.5,4.6-4.5c2.6,0,4.6,2,4.6,4.5c0,2.5-2.1,4.5-4.6,4.5
		C196,114.6,193.9,112.6,193.9,110.1z M210.9,105.9h2.9l-16.5,21.5h-2.9L210.9,105.9z M200.8,110.1c0-1.3-1-2.3-2.3-2.3
		s-2.3,1-2.3,2.3c0,1.3,1,2.3,2.3,2.3S200.8,111.3,200.8,110.1z M209.6,118.8c2.5,0,4.6,2,4.6,4.5c0,2.5-2.1,4.5-4.6,4.5
		c-2.6,0-4.6-2-4.6-4.5C205,120.8,207,118.8,209.6,118.8z M209.6,125.5c1.3,0,2.3-1,2.3-2.3c0-1.3-1-2.3-2.3-2.3
		c-1.3,0-2.3,1-2.3,2.3C207.4,124.6,208.3,125.5,209.6,125.5z"/>
	<path class="st0" d="M133,139.4c2.7,0,4.1,2,4.1,4.5c0,0.2-0.1,0.8-0.1,0.8h-7c0.1,2,1.6,3.2,3.3,3.2c1.6,0,2.8-1.1,2.8-1.1
		l0.8,1.3c0,0-1.4,1.4-3.7,1.4c-3,0-5.1-2.2-5.1-5C128.2,141.4,130.3,139.4,133,139.4z M135.3,143.3c-0.1-1.6-1.1-2.4-2.2-2.4
		c-1.4,0-2.5,0.8-2.8,2.4H135.3z"/>
	<path class="st0" d="M141.5,141.6c0-0.3-0.2-0.4-0.4-0.4h-0.8v-1.6h1.8c0.8,0,1.2,0.4,1.2,1.1v0.4c0,0.3,0,0.5,0,0.5h0
		c0.5-1.1,1.8-2.2,3.3-2.2c1.6,0,2.5,0.7,2.9,2.2h0c0.5-1.2,1.8-2.2,3.4-2.2c2.2,0,3.2,1.2,3.2,3.7v4.1c0,0.3,0.2,0.4,0.4,0.4h0.8
		v1.6h-1.8c-0.8,0-1.2-0.4-1.2-1.2v-4.5c0-1.3-0.3-2.4-1.7-2.4c-1.3,0-2.3,1.2-2.7,2.5c-0.1,0.4-0.2,0.8-0.2,1.3v4.4h-1.8v-5.7
		c0-1.2-0.2-2.4-1.6-2.4c-1.4,0-2.4,1.2-2.7,2.5c-0.1,0.4-0.1,0.8-0.1,1.2v4.4h-1.8V141.6z"/>
	<path class="st0" d="M161.1,141.6c0-0.3-0.2-0.4-0.4-0.4H160v-1.6h1.8c0.8,0,1.2,0.4,1.2,1.2v6.4c0,0.3,0.2,0.4,0.4,0.4h0.8v1.6
		h-1.8c-0.8,0-1.2-0.4-1.2-1.2V141.6z M161.2,135.9h1.6v1.9h-1.6V135.9z"/>
	<path class="st0" d="M168,146.5c0,0,1.1,1.4,2.9,1.4c0.9,0,1.7-0.4,1.7-1.2c0-1.7-5.2-1.5-5.2-4.6c0-1.8,1.6-2.7,3.5-2.7
		c1.2,0,3.1,0.4,3.1,1.8v0.9h-1.6v-0.5c0-0.6-0.8-0.8-1.4-0.8c-1.1,0-1.8,0.4-1.8,1.1c0,1.8,5.2,1.4,5.2,4.6c0,1.7-1.5,2.8-3.5,2.8
		c-2.5,0-3.8-1.7-3.8-1.7L168,146.5z"/>
	<path class="st0" d="M178.4,146.5c0,0,1.1,1.4,2.9,1.4c0.9,0,1.7-0.4,1.7-1.2c0-1.7-5.2-1.5-5.2-4.6c0-1.8,1.6-2.7,3.5-2.7
		c1.2,0,3.1,0.4,3.1,1.8v0.9h-1.6v-0.5c0-0.6-0.8-0.8-1.4-0.8c-1.1,0-1.8,0.4-1.8,1.1c0,1.8,5.2,1.4,5.2,4.6c0,1.7-1.5,2.8-3.5,2.8
		c-2.5,0-3.8-1.7-3.8-1.7L178.4,146.5z"/>
	<path class="st0" d="M189.1,141.6c0-0.3-0.2-0.4-0.4-0.4h-0.8v-1.6h1.8c0.8,0,1.2,0.4,1.2,1.2v6.4c0,0.3,0.2,0.4,0.4,0.4h0.8v1.6
		h-1.8c-0.8,0-1.2-0.4-1.2-1.2V141.6z M189.2,135.9h1.6v1.9h-1.6V135.9z"/>
	<path class="st0" d="M200.3,139.4c2.9,0,5.2,2.1,5.2,5c0,2.9-2.3,5-5.2,5c-2.9,0-5.1-2.1-5.1-5
		C195.2,141.5,197.5,139.4,200.3,139.4z M200.3,147.9c1.8,0,3.3-1.4,3.3-3.4c0-2-1.5-3.4-3.3-3.4c-1.8,0-3.3,1.4-3.3,3.4
		C197.1,146.4,198.5,147.9,200.3,147.9z"/>
	<path class="st0" d="M209.7,141.6c0-0.3-0.2-0.4-0.4-0.4h-0.8v-1.6h1.8c0.8,0,1.2,0.4,1.2,1.1v0.4c0,0.3,0,0.5,0,0.5h0
		c0.4-0.8,1.5-2.2,3.6-2.2c2.3,0,3.3,1.2,3.3,3.7v4.1c0,0.3,0.2,0.4,0.4,0.4h0.8v1.6h-1.8c-0.8,0-1.2-0.4-1.2-1.2v-4.5
		c0-1.3-0.3-2.4-1.8-2.4c-1.5,0-2.6,1-3,2.3c-0.1,0.4-0.2,0.8-0.2,1.3v4.5h-1.8V141.6z"/>
	<path class="st0" d="M223.5,141.6c0-0.3-0.2-0.4-0.4-0.4h-0.8v-1.6h1.8c0.8,0,1.2,0.4,1.2,1.2v6.4c0,0.3,0.2,0.4,0.4,0.4h0.8v1.6
		h-1.8c-0.8,0-1.2-0.4-1.2-1.2V141.6z M223.5,135.9h1.6v1.9h-1.6V135.9z"/>
	<path class="st0" d="M135.3,161.2c2.4,0,3.1,1.5,3.1,1.5h0c0,0,0-0.2,0-0.3c0-0.6,0.3-1,1.1-1h1.8v1.6h-0.8c-0.2,0-0.4,0.1-0.4,0.4
		v7.2c0,3.2-2.4,4.4-4.8,4.4c-1.2,0-2.3-0.3-3.3-0.8l0.6-1.5c0,0,1.2,0.6,2.6,0.6c1.7,0,3-0.7,3-2.7V170c0-0.3,0-0.6,0-0.6h0
		c-0.6,0.9-1.5,1.5-2.9,1.5c-2.6,0-4.3-2.1-4.3-4.9C131.1,163.3,132.6,161.2,135.3,161.2z M138.3,166c0-2.5-1.2-3.2-2.7-3.2
		c-1.7,0-2.6,1.2-2.6,3.2c0,2,1,3.3,2.8,3.3C137.1,169.3,138.3,168.5,138.3,166z"/>
	<path class="st0" d="M150,165h0.4V165c0-1.7-0.6-2.3-2.1-2.3c-0.5,0-1.6,0.1-1.6,0.7v0.5H145V163c0-1.6,2.4-1.8,3.3-1.8
		c3.1,0,3.9,1.6,3.9,3.7v4.1c0,0.3,0.2,0.4,0.4,0.4h0.8v1.6h-1.7c-0.8,0-1.2-0.4-1.2-1.1c0-0.3,0-0.6,0-0.6h0c0,0-0.8,1.9-3,1.9
		c-1.6,0-3.2-1-3.2-2.9C144.2,165.2,148.4,165,150,165z M147.9,169.7c1.5,0,2.5-1.6,2.5-3v-0.3H150c-1.4,0-3.9,0.1-3.9,1.8
		C146.1,169,146.7,169.7,147.9,169.7z"/>
	<path class="st0" d="M157.1,168.3c0,0,1.1,1.4,2.9,1.4c0.9,0,1.7-0.4,1.7-1.2c0-1.7-5.2-1.5-5.2-4.6c0-1.8,1.6-2.7,3.5-2.7
		c1.2,0,3.1,0.4,3.1,1.9v0.9h-1.6v-0.5c0-0.6-0.8-0.8-1.4-0.8c-1.1,0-1.8,0.4-1.8,1.1c0,1.8,5.2,1.4,5.2,4.6c0,1.7-1.5,2.8-3.5,2.8
		c-2.5,0-3.8-1.7-3.8-1.7L157.1,168.3z"/>
	<path class="st0" d="M174.6,168.3c0,0,1.1,1.4,2.9,1.4c0.9,0,1.7-0.4,1.7-1.2c0-1.7-5.2-1.5-5.2-4.6c0-1.8,1.6-2.7,3.5-2.7
		c1.2,0,3.1,0.4,3.1,1.9v0.9h-1.6v-0.5c0-0.6-0.8-0.8-1.4-0.8c-1.1,0-1.8,0.4-1.8,1.1c0,1.8,5.2,1.4,5.2,4.6c0,1.7-1.5,2.8-3.5,2.8
		c-2.5,0-3.8-1.7-3.8-1.7L174.6,168.3z"/>
	<path class="st0" d="M189,161.2c2.7,0,4.1,2,4.1,4.5c0,0.2-0.1,0.8-0.1,0.8h-7c0.1,2,1.6,3.2,3.3,3.2c1.6,0,2.8-1.1,2.8-1.1
		l0.8,1.3c0,0-1.4,1.4-3.7,1.4c-3,0-5.1-2.2-5.1-5C184.3,163.2,186.3,161.2,189,161.2z M191.3,165.1c-0.1-1.6-1.1-2.4-2.2-2.4
		c-1.4,0-2.5,0.8-2.8,2.4H191.3z"/>
	<path class="st0" d="M197.5,163.4c0-0.3-0.2-0.4-0.4-0.4h-0.8v-1.6h1.7c0.8,0,1.2,0.3,1.2,1.1v0.6c0,0.4,0,0.7,0,0.7h0
		c0.5-1.4,1.5-2.5,3-2.5c0.2,0,0.5,0,0.5,0v1.8c0,0-0.2-0.1-0.5-0.1c-1.2,0-2.2,0.8-2.7,2.2c-0.2,0.5-0.2,1.1-0.2,1.7v3.9h-1.8
		V163.4z"/>
	<path class="st0" d="M206.8,163.4c0-0.3-0.2-0.4-0.4-0.4h-0.8v-1.6h1.7c0.8,0,1.2,0.3,1.2,1.1v0.6c0,0.4,0,0.7,0,0.7h0
		c0.5-1.4,1.5-2.5,3-2.5c0.2,0,0.5,0,0.5,0v1.8c0,0-0.2-0.1-0.5-0.1c-1.2,0-2.2,0.8-2.7,2.2c-0.2,0.5-0.2,1.1-0.2,1.7v3.9h-1.8
		V163.4z"/>
	<path class="st0" d="M220.3,165h0.4V165c0-1.7-0.6-2.3-2.1-2.3c-0.5,0-1.6,0.1-1.6,0.7v0.5h-1.7V163c0-1.6,2.4-1.8,3.3-1.8
		c3.1,0,3.9,1.6,3.9,3.7v4.1c0,0.3,0.2,0.4,0.4,0.4h0.8v1.6H222c-0.8,0-1.2-0.4-1.2-1.1c0-0.3,0-0.6,0-0.6h0c0,0-0.8,1.9-3,1.9
		c-1.6,0-3.2-1-3.2-2.9C214.5,165.2,218.7,165,220.3,165z M218.2,169.7c1.5,0,2.5-1.6,2.5-3v-0.3h-0.5c-1.4,0-3.9,0.1-3.9,1.8
		C216.4,169,216.9,169.7,218.2,169.7z"/>
</g>
<g>
	<path class="st0" d="M343.3,117.4h8.9v2.6h-8.9V117.4z"/>
	<path class="st0" d="M366.4,110.5c0.7-1.2,1.2-2,1.2-2v-0.1c0,0-0.5,0.1-1.6,0.1h-6.5c-0.4,0-0.7,0.2-0.7,0.7v1.4h-2.8v-2.7
		c0-1.4,0.5-2,1.9-2h13.1v2.1l-10.4,19.5h-3.4L366.4,110.5z"/>
	<path class="st0" d="M373.2,119.8l9.7-13.9h3.5v13.2h3.4v2.6h-3.4v5.7h-3v-5.7h-10.1V119.8z M383.3,111.7c0-1,0.1-2.2,0.1-2.2h-0.1
		c0,0-0.5,1-1.1,1.8l-4.7,6.5c-0.5,0.8-1.1,1.4-1.1,1.4v0.1c0,0,0.9-0.1,1.8-0.1h5V111.7z"/>
	<path class="st0" d="M395,110.1c0-2.5,2-4.5,4.6-4.5c2.6,0,4.6,2,4.6,4.5c0,2.5-2.1,4.5-4.6,4.5C397.1,114.6,395,112.6,395,110.1z
		 M412,105.9h2.9l-16.5,21.5h-2.9L412,105.9z M401.9,110.1c0-1.3-1-2.3-2.3-2.3c-1.3,0-2.3,1-2.3,2.3c0,1.3,1,2.3,2.3,2.3
		C400.9,112.3,401.9,111.3,401.9,110.1z M410.7,118.8c2.5,0,4.6,2,4.6,4.5c0,2.5-2.1,4.5-4.6,4.5c-2.6,0-4.6-2-4.6-4.5
		C406.1,120.8,408.1,118.8,410.7,118.8z M410.7,125.5c1.3,0,2.3-1,2.3-2.3c0-1.3-1-2.3-2.3-2.3c-1.3,0-2.3,1-2.3,2.3
		C408.5,124.6,409.4,125.5,410.7,125.5z"/>
	<path class="st0" d="M340.9,139.4c1.2,0,3.4,0.5,3.4,2.1v1h-1.7V142c0-0.7-1.1-1-1.8-1c-1.9,0-3.3,1.4-3.3,3.4
		c0,2.2,1.6,3.4,3.4,3.4c1.8,0,3-1.3,3-1.3l0.8,1.3c0,0-1.4,1.6-3.9,1.6c-3,0-5.1-2.1-5.1-5C335.8,141.6,337.9,139.4,340.9,139.4z"
		/>
	<path class="st0" d="M352.9,139.4c2.9,0,5.2,2.1,5.2,5c0,2.9-2.3,5-5.2,5c-2.9,0-5.1-2.1-5.1-5C347.8,141.5,350,139.4,352.9,139.4z
		 M352.9,147.9c1.8,0,3.3-1.4,3.3-3.4c0-2-1.5-3.4-3.3-3.4c-1.8,0-3.3,1.4-3.3,3.4C349.6,146.4,351.1,147.9,352.9,147.9z"/>
	<path class="st0" d="M362.2,141.6c0-0.3-0.2-0.4-0.4-0.4H361v-1.6h1.8c0.8,0,1.2,0.4,1.2,1.1v0.4c0,0.3,0,0.5,0,0.5h0
		c0.4-0.8,1.5-2.2,3.6-2.2c2.3,0,3.3,1.2,3.3,3.7v4.1c0,0.3,0.2,0.4,0.4,0.4h0.8v1.6h-1.8c-0.8,0-1.2-0.4-1.2-1.2v-4.5
		c0-1.3-0.3-2.4-1.8-2.4c-1.5,0-2.6,1-3,2.3c-0.1,0.4-0.2,0.8-0.2,1.3v4.5h-1.8V141.6z"/>
	<path class="st0" d="M375.8,146.5c0,0,1.1,1.4,2.9,1.4c0.9,0,1.7-0.4,1.7-1.2c0-1.7-5.2-1.5-5.2-4.6c0-1.8,1.6-2.7,3.5-2.7
		c1.2,0,3.1,0.4,3.1,1.8v0.9h-1.6v-0.5c0-0.6-0.8-0.8-1.4-0.8c-1.1,0-1.8,0.4-1.8,1.1c0,1.8,5.2,1.4,5.2,4.6c0,1.7-1.5,2.8-3.5,2.8
		c-2.5,0-3.8-1.7-3.8-1.7L375.8,146.5z"/>
	<path class="st0" d="M386.3,141.6c0-0.3-0.2-0.4-0.4-0.4h-0.8v-1.6h1.8c0.9,0,1.2,0.4,1.2,1.2v4.5c0,1.3,0.3,2.4,1.8,2.4
		c2,0,3.1-1.7,3.1-3.6v-4.5h1.8v7.6c0,0.3,0.2,0.4,0.4,0.4h0.8v1.6h-1.8c-0.8,0-1.2-0.4-1.2-1.1v-0.4c0-0.3,0-0.5,0-0.5h0
		c-0.4,0.9-1.6,2.2-3.5,2.2c-2.2,0-3.2-1.1-3.2-3.7V141.6z"/>
	<path class="st0" d="M400,141.6c0-0.3-0.2-0.4-0.4-0.4h-0.8v-1.6h1.8c0.8,0,1.2,0.4,1.2,1.1v0.4c0,0.3,0,0.5,0,0.5h0
		c0.5-1.1,1.8-2.2,3.3-2.2c1.6,0,2.5,0.7,2.9,2.2h0c0.5-1.2,1.9-2.2,3.4-2.2c2.2,0,3.2,1.2,3.2,3.7v4.1c0,0.3,0.2,0.4,0.4,0.4h0.8
		v1.6h-1.8c-0.8,0-1.2-0.4-1.2-1.2v-4.5c0-1.3-0.3-2.4-1.7-2.4c-1.3,0-2.3,1.2-2.7,2.5c-0.1,0.4-0.2,0.8-0.2,1.3v4.4h-1.8v-5.7
		c0-1.2-0.2-2.4-1.6-2.4c-1.4,0-2.4,1.2-2.7,2.5c-0.1,0.4-0.1,0.8-0.1,1.2v4.4H400V141.6z"/>
	<path class="st0" d="M419.7,141.6c0-0.3-0.2-0.4-0.4-0.4h-0.8v-1.6h1.8c0.8,0,1.2,0.4,1.2,1.2v6.4c0,0.3,0.2,0.4,0.4,0.4h0.8v1.6
		h-1.8c-0.8,0-1.2-0.4-1.2-1.2V141.6z M419.7,135.9h1.6v1.9h-1.6V135.9z"/>
	<path class="st0" d="M332,161.2c2.7,0,4.1,2,4.1,4.5c0,0.2-0.1,0.8-0.1,0.8h-7c0.1,2,1.6,3.2,3.3,3.2c1.6,0,2.8-1.1,2.8-1.1
		l0.8,1.3c0,0-1.4,1.4-3.7,1.4c-3,0-5.1-2.2-5.1-5C327.2,163.2,329.2,161.2,332,161.2z M334.2,165.1c-0.1-1.6-1.1-2.4-2.2-2.4
		c-1.4,0-2.5,0.8-2.8,2.4H334.2z"/>
	<path class="st0" d="M340.4,163.4c0-0.3-0.2-0.4-0.4-0.4h-0.8v-1.6h1.8c0.8,0,1.2,0.4,1.2,1.1v0.4c0,0.3,0,0.5,0,0.5h0
		c0.4-0.8,1.5-2.2,3.6-2.2c2.3,0,3.3,1.2,3.3,3.7v4.1c0,0.3,0.2,0.4,0.4,0.4h0.8v1.6h-1.8c-0.8,0-1.2-0.4-1.2-1.2v-4.5
		c0-1.3-0.3-2.4-1.8-2.4c-1.5,0-2.6,1-3,2.3c-0.1,0.4-0.2,0.8-0.2,1.3v4.5h-1.8V163.4z"/>
	<path class="st0" d="M358,161.2c2.7,0,4.1,2,4.1,4.5c0,0.2-0.1,0.8-0.1,0.8h-7c0.1,2,1.6,3.2,3.3,3.2c1.6,0,2.8-1.1,2.8-1.1
		l0.8,1.3c0,0-1.4,1.4-3.7,1.4c-3,0-5.1-2.2-5.1-5C353.2,163.2,355.2,161.2,358,161.2z M360.2,165.1c-0.1-1.6-1.1-2.4-2.2-2.4
		c-1.4,0-2.5,0.8-2.8,2.4H360.2z"/>
	<path class="st0" d="M366.4,163.4c0-0.3-0.2-0.4-0.4-0.4h-0.8v-1.6h1.7c0.8,0,1.2,0.3,1.2,1.1v0.6c0,0.4,0,0.7,0,0.7h0
		c0.5-1.4,1.5-2.5,3-2.5c0.2,0,0.5,0,0.5,0v1.8c0,0-0.2-0.1-0.5-0.1c-1.2,0-2.2,0.8-2.7,2.2c-0.2,0.5-0.2,1.1-0.2,1.7v3.9h-1.8
		V163.4z"/>
	<path class="st0" d="M378.5,161.2c2.4,0,3.1,1.5,3.1,1.5h0c0,0,0-0.2,0-0.3c0-0.6,0.3-1,1.1-1h1.8v1.6h-0.8c-0.2,0-0.4,0.1-0.4,0.4
		v7.2c0,3.2-2.4,4.4-4.8,4.4c-1.2,0-2.3-0.3-3.3-0.8l0.6-1.5c0,0,1.2,0.6,2.6,0.6c1.7,0,3-0.7,3-2.7V170c0-0.3,0-0.6,0-0.6h0
		c-0.6,0.9-1.5,1.5-2.9,1.5c-2.6,0-4.3-2.1-4.3-4.9C374.3,163.3,375.8,161.2,378.5,161.2z M381.5,166c0-2.5-1.2-3.2-2.7-3.2
		c-1.7,0-2.6,1.2-2.6,3.2c0,2,1,3.3,2.8,3.3C380.3,169.3,381.5,168.5,381.5,166z"/>
	<path class="st0" d="M392.2,161.2c2.7,0,4.1,2,4.1,4.5c0,0.2-0.1,0.8-0.1,0.8h-7c0.1,2,1.6,3.2,3.3,3.2c1.6,0,2.8-1.1,2.8-1.1
		l0.8,1.3c0,0-1.4,1.4-3.7,1.4c-3,0-5.1-2.2-5.1-5C387.4,163.2,389.5,161.2,392.2,161.2z M394.4,165.1c-0.1-1.6-1.1-2.4-2.2-2.4
		c-1.4,0-2.5,0.8-2.8,2.4H394.4z"/>
	<path class="st0" d="M400.7,162.9h-1.2v-1.5h1.3v-2.6h1.8v2.6h2.3v1.5h-2.3v4.4c0,1.9,1.3,2.2,2,2.2c0.3,0,0.4,0,0.4,0v1.6
		c0,0-0.2,0-0.6,0c-1.2,0-3.6-0.4-3.6-3.6V162.9z"/>
	<path class="st0" d="M409.3,163.4c0-0.3-0.2-0.4-0.4-0.4h-0.8v-1.6h1.8c0.8,0,1.2,0.4,1.2,1.2v6.4c0,0.3,0.2,0.4,0.4,0.4h0.8v1.6
		h-1.8c-0.8,0-1.2-0.4-1.2-1.2V163.4z M409.3,157.7h1.6v1.9h-1.6V157.7z"/>
	<path class="st0" d="M420.5,161.2c1.2,0,3.4,0.5,3.4,2.1v1h-1.7v-0.5c0-0.7-1.1-1-1.8-1c-1.9,0-3.3,1.4-3.3,3.4
		c0,2.2,1.6,3.4,3.4,3.4c1.8,0,3-1.3,3-1.3l0.8,1.3c0,0-1.4,1.6-3.9,1.6c-3,0-5.1-2.1-5.1-5C415.3,163.4,417.4,161.2,420.5,161.2z"
		/>
	<path class="st0" d="M428.3,163.4c0-0.3-0.2-0.4-0.4-0.4h-0.8v-1.6h1.8c0.8,0,1.2,0.4,1.2,1.2v6.4c0,0.3,0.2,0.4,0.4,0.4h0.8v1.6
		h-1.8c-0.8,0-1.2-0.4-1.2-1.2V163.4z M428.3,157.7h1.6v1.9h-1.6V157.7z"/>
</g>
</svg>
