<?xml version="1.0" encoding="utf-8"?>
<!-- Generator: Adobe Illustrator 22.0.0, SVG Export Plug-In . SVG Version: 6.00 Build 0)  -->
<svg version="1.1" baseProfile="basic" id="Livello_1"
	 xmlns="http://www.w3.org/2000/svg" xmlns:xlink="http://www.w3.org/1999/xlink" x="0px" y="0px" viewBox="0 0 1008 523"
	 xml:space="preserve">
<style type="text/css">
	.st0{fill:none;stroke:#00295A;stroke-width:2;stroke-linecap:round;stroke-miterlimit:10;stroke-dasharray:0,5;}
	.st1{fill:#72C2E1;}
	.st2{fill:#00295A;}
	.st3{fill:#FFFFFF;}
</style>
<path class="st0" d="M352.8,410.9c-82.2,0-148.8-66.6-148.8-148.8s66.6-148.8,148.8-148.8s148.8,66.6,148.8,148.8"/>
<path class="st1" d="M216.1,125.3c68.3,0,123.6,55.3,123.6,123.6s-55.3,123.6-123.6,123.6S92.5,317.1,92.5,248.9
	C92.5,180.6,147.8,125.3,216.1,125.3z"/>
<g>
	<path class="st2" d="M106.5,94.2c38.1,0,68.9,30.9,68.9,68.9S144.5,232,106.5,232s-68.9-30.9-68.9-68.9S68.4,94.2,106.5,94.2z"/>
	<g>
		<path class="st1" d="M92.2,159H75.8c-0.8,0-1.4,0.6-1.4,1.4v11.5c0,0.8,0.6,1.4,1.4,1.4h16.4c0.8,0,1.4-0.6,1.4-1.4v-11.5
			C93.6,159.6,92.9,159,92.2,159z M77.2,161.8h5.4v8.7h-5.4V161.8z M90.8,170.5h-5.4v-8.7h5.4V170.5z"/>
		<path class="st1" d="M93.8,147c3,0,5.9-1.2,8-3.4c1.7,3,4.9,5,8.4,5l0,0c0.4,0,0.8,0,1.1-0.1c0.1,0,0.2,0,0.2,0
			c1.3-0.2,2.5-0.6,3.5-1.3c0.6,1.1,1.5,2,2.4,2.7c0.6,0.5,1.5,0.3,1.9-0.3c0.5-0.6,0.3-1.5-0.3-2c-0.8-0.6-1.5-1.4-1.9-2.3
			c1.1-1.2,1.9-2.8,2.3-4.5c0.2-0.8-0.3-1.5-1.1-1.6c-0.7-0.2-1.5,0.3-1.6,1.1c-0.3,1.5-1.1,2.7-2.1,3.7l0,0
			c-1.3,1.1-2.9,1.8-4.5,1.8c-2.8,0-5.4-1.8-6.4-4.5c-0.2-0.6-0.8-1.1-1.5-1.2c-0.7-0.1-1.4,0.2-1.8,0.7c-1.6,2.1-4.1,3.4-6.7,3.4
			s-4.9-1.1-6.5-3.1s-2.2-4.6-1.7-7.2c0.6-3.1,3.2-5.7,6.3-6.4c0.7-0.2,1.4-0.2,2.1-0.2c0.3,0,0.6,0,0.8,0.1c0.1,0,0.2,0,0.2,0
			c0.3,0,0.6,0.1,0.9,0.2h0.1c0.7,0.2,1.3,0.5,1.9,0.8c0.1,0,0.1,0.1,0.2,0.1c1.2,0.7,2.2,1.7,3,3c0.3,0.4,0.7,0.7,1.2,0.7
			c0.2,0,0.5-0.1,0.7-0.2c0.7-0.4,0.9-1.2,0.5-1.9c-0.6-1.1-1.5-2.1-2.4-2.9c1.2-2,3.4-3.2,5.8-3.2c2.6,0,4.9,1.5,6.1,3.8
			c-0.9,0.6-1.6,1.3-2.3,2.1c-0.5,0.6-0.3,1.5,0.3,2c0.3,0.2,0.5,0.3,0.8,0.3c0.4,0,0.8-0.2,1.1-0.6c0.6-0.8,1.4-1.5,2.3-1.9h0.1
			c1-0.5,2-0.8,3-0.8c3.4,0,6.3,2.6,6.7,6c0.1,0.5,0.4,0.9,0.8,1.1c2.5,1.1,4.2,3.5,4.2,6.3c0,2.2-1,4.1-2.7,5.4
			c-0.6,0.5-0.7,1.3-0.3,2c0.3,0.4,0.7,0.6,1.1,0.6c0.3,0,0.6-0.1,0.8-0.3c2.4-1.8,3.8-4.6,3.8-7.7c0-3.6-2-6.9-5.2-8.5
			c-0.9-4.4-4.8-7.6-9.3-7.6c-1,0-1.9,0.2-2.9,0.5c-1.6-3.3-4.9-5.4-8.6-5.4c-3.3,0-6.4,1.7-8.1,4.5c-1.5-0.8-3.2-1.2-4.9-1.2h-0.1
			l0,0c-0.8,0-1.7,0.1-2.5,0.3c-4.1,0.9-7.5,4.4-8.4,8.5c-0.7,3.4,0.1,6.8,2.3,9.5C87.2,145.5,90.4,147,93.8,147z"/>
		<path class="st1" d="M142.7,173.5c0-5.3-4.3-9.6-9.6-9.6h-2.4l-1-1.9l3-7.6c0.2-0.4,0.1-0.9-0.1-1.3c-0.3-0.4-0.7-0.6-1.2-0.6H120
			c-0.5,0-0.9,0.2-1.2,0.6c-0.3,0.4-0.3,0.9-0.1,1.3l3,7.6l-1,1.9h-5.9v-2.1h1.9c0.8,0,1.4-0.6,1.4-1.4c0-0.8-0.6-1.4-1.4-1.4h-3.3
			l0,0l0,0h-3.3c-0.8,0-1.4,0.6-1.4,1.4c0,0.8,0.6,1.4,1.4,1.4h1.9v2.1h-8.7v-2.1h1.9c0.8,0,1.4-0.6,1.4-1.4v-3.3
			c0-3.5-2.8-6.3-6.3-6.3H70.9c-3.5,0-6.3,2.8-6.3,6.3v3.3c0,0.8,0.6,1.4,1.4,1.4h1.9V185c0,0.8,0.6,1.4,1.4,1.4h0.3
			c0,0.1,0,0.2,0,0.2c0,4.4,3.6,8,7.9,8c2.7,0,5.1-1.4,6.6-3.5c1.4,2.1,3.8,3.5,6.6,3.5c2.7,0,5.1-1.4,6.6-3.5
			c1.4,2.1,3.8,3.5,6.6,3.5c2.7,0,5.1-1.4,6.6-3.5c1.4,2.1,3.8,3.5,6.6,3.5c2.6,0,5-1.3,6.4-3.3h0.1h15.1c0.5,0,1-0.3,1.2-0.7
			s0.2-1,0-1.4l-4.1-6.3C139.6,181.7,142.7,178,142.7,173.5z M77.4,191.8c-2.8,0-5.2-2.3-5.2-5.2c0-0.1,0-0.2,0-0.2h10.3
			c0,0.1,0,0.2,0,0.2l0,0l0,0C82.6,189.5,80.3,191.8,77.4,191.8z M90.5,191.8c-2.8,0-5.2-2.3-5.2-5.2l0,0l0,0c0-0.1,0-0.2,0-0.2
			h10.3c0,0.1,0,0.2,0,0.2l0,0l0,0C95.7,189.5,93.4,191.8,90.5,191.8z M103.6,191.8c-2.8,0-5.2-2.3-5.2-5.2l0,0l0,0
			c0-0.1,0-0.2,0-0.2h10.3c0,0.1,0,0.2,0,0.2l0,0l0,0C108.8,189.5,106.5,191.8,103.6,191.8z M116.7,191.8c-2.8,0-5.2-2.3-5.2-5.2
			l0,0l0,0c0-0.1,0-0.2,0-0.2h10.3c0,0.1,0,0.2,0,0.2l0,0C121.9,189.5,119.6,191.8,116.7,191.8z M133.1,180.3c-0.5,0-1,0.3-1.2,0.7
			s-0.2,1,0.1,1.4l3.9,6.1h-11.1v-1.9l0,0l0,0v-0.2h1.9c0.8,0,1.4-0.6,1.4-1.4c0-0.8-0.6-1.4-1.4-1.4h-3.3l0,0H70.6v-23.2
			c0-0.8-0.6-1.4-1.4-1.4h-1.9v-1.9c0-1.9,1.6-3.5,3.5-3.5h29.5c1.9,0,3.5,1.6,3.5,3.5v1.9H102l0,0h-3.3c-0.8,0-1.4,0.6-1.4,1.4
			c0,0.8,0.6,1.4,1.4,1.4h1.9v3.5c0,0.8,0.6,1.4,1.4,1.4h11.5l0,0l0,0h8.2c0.5,0,1-0.3,1.2-0.8l1.6-3.3c0.2-0.4,0.2-0.8,0-1.1
			l-2.5-6.3h7.4l-2.5,6.3c-0.1,0.4-0.1,0.8,0,1.1l1.6,3.3c0.2,0.5,0.7,0.8,1.2,0.8h3.3c3.7,0,6.8,3.1,6.8,6.8
			C139.9,177.2,136.9,180.3,133.1,180.3z"/>
	</g>
</g>
<path class="st1" d="M477.8,19.9c68.3,0,123.6,55.3,123.6,123.6s-55.3,123.6-123.6,123.6s-123.6-55.3-123.6-123.6
	C354.2,75.2,409.5,19.9,477.8,19.9z"/>
<path class="st1" d="M430.1,293.2c54.9,0,99.5,44.5,99.5,99.5c0,54.9-44.5,99.5-99.5,99.5s-99.5-44.5-99.5-99.5
	C330.7,337.7,375.2,293.2,430.1,293.2z"/>
<g>
	<path class="st3" d="M392.4,424.4h0.6v-0.1c0-2.4-0.9-3.3-3-3.3c-0.6,0-2.2,0.2-2.2,1v0.7h-1.5v-1.1c0-1.6,2.7-1.9,3.8-1.9
		c3.6,0,4.5,1.9,4.5,4.4v5.5c0,0.3,0.2,0.5,0.5,0.5h1v1.4h-1.6c-1,0-1.4-0.4-1.4-1.4c0-0.5,0-0.8,0-0.8l0,0c0,0-0.9,2.5-3.8,2.5
		c-1.9,0-3.9-1.1-3.9-3.4C385.3,424.5,390.4,424.4,392.4,424.4z M389.5,430.5c2.2,0,3.5-2.3,3.5-4.3v-0.5h-0.7c-1.8,0-5.4,0-5.4,2.6
		C386.9,429.4,387.8,430.5,389.5,430.5z"/>
	<path class="st3" d="M404.8,421.8c0-0.3-0.2-0.5-0.5-0.5h-1V420h1.6c1,0,1.4,0.4,1.4,1.3v0.8c0,0.5,0,0.9,0,0.9l0,0
		c0.5-1.7,1.8-3.1,3.6-3.1c0.3,0,0.6,0.1,0.6,0.1v1.5c0,0-0.3,0-0.6,0c-1.6,0-2.8,1.3-3.3,3c-0.2,0.7-0.3,1.5-0.3,2.2v4.9h-1.6
		L404.8,421.8L404.8,421.8z"/>
	<path class="st3" d="M417.2,419.7c3.2,0,4.8,2.5,4.8,5.3c0,0.3,0,0.8,0,0.8h-8.8c0,2.9,2.1,4.6,4.5,4.6c2.1,0,3.5-1.4,3.5-1.4
		l0.8,1.2c0,0-1.7,1.6-4.3,1.6c-3.4,0-6-2.5-6-6C411.5,422,414.1,419.7,417.2,419.7z M420.4,424.6c-0.1-2.4-1.6-3.6-3.3-3.6
		c-1.9,0-3.6,1.2-4,3.6H420.4z"/>
	<path class="st3" d="M429.1,419.7c3.1,0,3.8,2,3.8,2l0,0c0,0,0-0.2,0-0.4c0-0.8,0.4-1.3,1.3-1.3h1.6v1.4H435
		c-0.3,0-0.5,0.2-0.5,0.5v9.4c0,3.7-2.7,5.1-5.5,5.1c-1.3,0-2.6-0.3-3.8-0.9l0.6-1.3c0,0,1.4,0.8,3.1,0.8c2.2,0,4-1.1,4-3.6v-1
		c0-0.4,0-0.8,0-0.8l0,0c-0.7,1.3-1.8,2-3.6,2c-3.1,0-5.1-2.5-5.1-5.9C424.1,422.1,426,419.7,429.1,419.7z M432.9,425.5
		c0-3.4-1.6-4.4-3.6-4.4c-2.2,0-3.6,1.6-3.6,4.4c0,2.7,1.5,4.5,3.8,4.5C431.3,430,432.9,428.9,432.9,425.5z"/>
	<path class="st3" d="M438.5,421.8c0-0.3-0.2-0.5-0.5-0.5h-1V420h1.6c1,0,1.4,0.4,1.4,1.4v8.3c0,0.3,0.2,0.5,0.5,0.5h1v1.4h-1.6
		c-1,0-1.4-0.4-1.4-1.4V421.8z M438.5,415.4h1.5v2h-1.5V415.4z"/>
	<path class="st3" d="M444.2,421.8c0-0.3-0.2-0.5-0.5-0.5h-1V420h1.6c1,0,1.4,0.4,1.4,1.3v0.5c0,0.5,0,0.8,0,0.8l0,0
		c0.6-1.6,2.4-2.9,4.2-2.9c2.1,0,3.2,1,3.6,2.9l0,0c0.6-1.6,2.3-2.9,4.2-2.9c2.8,0,3.8,1.6,3.8,4.5v5.5c0,0.3,0.2,0.5,0.5,0.5h1v1.4
		h-1.6c-1,0-1.4-0.4-1.4-1.4v-5.5c0-1.9-0.4-3.4-2.5-3.4c-1.7,0-3.2,1.6-3.6,3.3c-0.2,0.5-0.2,1.1-0.2,1.7v5.5h-1.6v-6.9
		c0-1.7-0.3-3.4-2.4-3.4c-1.9,0-3.3,1.6-3.8,3.4c-0.1,0.5-0.2,1-0.2,1.5v5.5h-1.6v-10.1H444.2z"/>
	<path class="st3" d="M470.1,419.7c3.2,0,4.8,2.5,4.8,5.3c0,0.3,0,0.8,0,0.8H466c0,2.9,2.1,4.6,4.5,4.6c2.1,0,3.5-1.4,3.5-1.4
		l0.8,1.2c0,0-1.7,1.6-4.3,1.6c-3.4,0-6-2.5-6-6C464.4,422,467,419.7,470.1,419.7z M473.3,424.6c-0.1-2.4-1.6-3.6-3.3-3.6
		c-1.9,0-3.6,1.2-4,3.6H473.3z"/>
</g>
<g>
	<path class="st3" d="M403.8,96.1c2.8,0,3.8,2.2,3.8,2.2l0,0c0,0,0-0.4,0-0.9v-3.8c0-0.3-0.2-0.5-0.5-0.5h-1v-1.4h1.7
		c1,0,1.4,0.4,1.4,1.4v13.1c0,0.4,0.2,0.5,0.5,0.5h1v1.4h-1.6c-1,0-1.4-0.4-1.4-1.3c0-0.4,0-0.7,0-0.7l0,0c0,0-1,2.3-4,2.3
		c-3.1,0-5.1-2.5-5.1-6.2C398.6,98.5,400.8,96.1,403.8,96.1z M407.7,102.2c0-2.4-1.2-4.7-3.7-4.7c-2.1,0-3.8,1.7-3.8,4.7
		c0,2.9,1.5,4.7,3.7,4.7C405.9,107,407.7,105.6,407.7,102.2z"/>
	<path class="st3" d="M413.4,98.3c0-0.3-0.2-0.5-0.5-0.5h-1v-1.4h1.7c1,0,1.4,0.4,1.4,1.4v8.4c0,0.4,0.2,0.5,0.5,0.5h1v1.4h-1.7
		c-1,0-1.4-0.4-1.4-1.4V98.3z M413.4,91.7h1.5v2h-1.5V91.7z"/>
	<path class="st3" d="M418.7,105.2c0,0,1.3,1.8,3.6,1.8c1.3,0,2.5-0.6,2.5-1.9c0-2.6-6.6-2.1-6.6-5.9c0-2.1,1.8-3.2,4.2-3.2
		c1.2,0,3.6,0.5,3.6,2.1v1h-1.5v-0.6c0-0.9-1.3-1.2-2-1.2c-1.6,0-2.6,0.6-2.6,1.7c0,2.6,6.6,2,6.6,5.9c0,2-1.8,3.3-4.1,3.3
		c-3.1,0-4.5-2-4.5-2L418.7,105.2z"/>
	<path class="st3" d="M429.6,97.7H428v-1.3h1.6v-3.2h1.6v3.2h2.9v1.3h-2.9v6c0,2.7,1.7,3.1,2.6,3.1c0.3,0,0.5,0,0.5,0v1.4
		c0,0-0.3,0-0.7,0c-1.4,0-4.1-0.4-4.1-4.4v-6.1H429.6z"/>
	<path class="st3" d="M443.1,100.9h0.7v-0.1c0-2.4-0.9-3.3-3-3.3c-0.6,0-2.3,0.2-2.3,1v0.7H437v-1.1c0-1.6,2.8-2,3.8-2
		c3.7,0,4.6,2,4.6,4.5v5.6c0,0.4,0.2,0.5,0.5,0.5h1v1.4h-1.6c-1,0-1.4-0.4-1.4-1.4c0-0.5,0-0.9,0-0.9l0,0c0,0-1,2.5-3.9,2.5
		c-2,0-4-1.1-4-3.5C436,101,441.1,100.9,443.1,100.9z M440.2,107c2.2,0,3.6-2.3,3.6-4.4v-0.5h-0.7c-1.8,0-5.5,0-5.5,2.7
		C437.6,105.9,438.5,107,440.2,107z"/>
	<path class="st3" d="M449.4,98.3c0-0.3-0.2-0.5-0.5-0.5h-1v-1.4h1.6c1,0,1.4,0.4,1.4,1.3v0.5c0,0.5,0,0.8,0,0.8l0,0
		c0.4-1.1,1.9-3,4.7-3c2.9,0,3.9,1.7,3.9,4.5v5.6c0,0.4,0.2,0.5,0.5,0.5h1v1.4h-1.7c-1,0-1.4-0.4-1.4-1.4V101c0-1.8-0.3-3.5-2.5-3.5
		c-2,0-3.7,1.4-4.3,3.3c-0.1,0.5-0.2,1-0.2,1.6v5.6h-1.6v-9.7H449.4z"/>
	<path class="st3" d="M462.4,107.1l6.6-8.2c0.4-0.6,0.9-1.1,0.9-1.1l0,0c0,0-0.4,0-1.2,0h-4.3c-0.3,0-0.5,0.2-0.5,0.5v0.9h-1.5v-1.4
		c0-1,0.4-1.4,1.4-1.4h8.1v1l-6.6,8.2c-0.5,0.6-1,1.1-1,1.1l0,0c0,0,0.4,0,1.2,0h4.8c0.3,0,0.5-0.2,0.5-0.5v-0.9h1.5v1.4
		c0,1-0.4,1.4-1.4,1.4h-8.7v-1H462.4z"/>
	<path class="st3" d="M481.2,100.9h0.7v-0.1c0-2.4-0.9-3.3-3-3.3c-0.6,0-2.3,0.2-2.3,1v0.7h-1.5v-1.1c0-1.6,2.8-2,3.8-2
		c3.7,0,4.6,2,4.6,4.5v5.6c0,0.4,0.2,0.5,0.5,0.5h1v1.4h-1.6c-1,0-1.4-0.4-1.4-1.4c0-0.5,0-0.9,0-0.9l0,0c0,0-1,2.5-3.9,2.5
		c-2,0-4-1.1-4-3.5C474.1,101,479.2,100.9,481.2,100.9z M478.3,107c2.2,0,3.6-2.3,3.6-4.4v-0.5h-0.7c-1.8,0-5.5,0-5.5,2.7
		C475.7,105.9,476.6,107,478.3,107z"/>
	<path class="st3" d="M493.8,98.3c0-0.3-0.2-0.5-0.5-0.5h-1v-1.4h1.6c1,0,1.4,0.4,1.4,1.3v0.5c0,0.5,0,0.8,0,0.8l0,0
		c0.6-1.6,2.4-3,4.2-3c2.2,0,3.3,1,3.6,2.9l0,0c0.6-1.6,2.3-2.9,4.3-2.9c2.8,0,3.9,1.7,3.9,4.5v5.6c0,0.4,0.2,0.5,0.5,0.5h1v1.4
		h-1.7c-1,0-1.4-0.4-1.4-1.4V101c0-1.9-0.4-3.5-2.5-3.5c-1.8,0-3.2,1.6-3.7,3.3c-0.2,0.5-0.2,1.1-0.2,1.7v5.5h-1.6v-7
		c0-1.8-0.3-3.5-2.5-3.5c-1.9,0-3.3,1.7-3.8,3.4c-0.1,0.5-0.2,1-0.2,1.6v5.5h-1.6v-9.7H493.8z"/>
	<path class="st3" d="M520.2,96.1c3.2,0,4.9,2.5,4.9,5.4c0,0.3,0,0.8,0,0.8h-9c0,3,2.1,4.7,4.5,4.7c2.1,0,3.5-1.4,3.5-1.4l0.8,1.2
		c0,0-1.7,1.7-4.4,1.7c-3.5,0-6.1-2.5-6.1-6.1C514.4,98.4,517.1,96.1,520.2,96.1z M523.5,101c-0.1-2.4-1.6-3.6-3.3-3.6
		c-1.9,0-3.6,1.3-4,3.6H523.5z"/>
	<path class="st3" d="M532.5,96.1c2.8,0,3.8,2.2,3.8,2.2l0,0c0,0,0-0.4,0-0.9v-3.8c0-0.3-0.2-0.5-0.5-0.5h-1v-1.4h1.7
		c1,0,1.4,0.4,1.4,1.4v13.1c0,0.4,0.2,0.5,0.5,0.5h1v1.4h-1.6c-1,0-1.4-0.4-1.4-1.3c0-0.4,0-0.7,0-0.7l0,0c0,0-1,2.3-4,2.3
		c-3.1,0-5.1-2.5-5.1-6.2C527.2,98.5,529.4,96.1,532.5,96.1z M536.4,102.2c0-2.4-1.2-4.7-3.7-4.7c-2.1,0-3.8,1.7-3.8,4.7
		c0,2.9,1.5,4.7,3.7,4.7C534.5,107,536.4,105.6,536.4,102.2z"/>
	<path class="st3" d="M542.1,98.3c0-0.3-0.2-0.5-0.5-0.5h-1v-1.4h1.7c1,0,1.4,0.4,1.4,1.4v8.4c0,0.4,0.2,0.5,0.5,0.5h1v1.4h-1.7
		c-1,0-1.4-0.4-1.4-1.4V98.3z M542,91.7h1.5v2H542V91.7z"/>
	<path class="st3" d="M553.9,100.9h0.7v-0.1c0-2.4-0.9-3.3-3-3.3c-0.6,0-2.3,0.2-2.3,1v0.7h-1.5v-1.1c0-1.6,2.8-2,3.8-2
		c3.7,0,4.6,2,4.6,4.5v5.6c0,0.4,0.2,0.5,0.5,0.5h1v1.4H556c-1,0-1.4-0.4-1.4-1.4c0-0.5,0-0.9,0-0.9l0,0c0,0-1,2.5-3.9,2.5
		c-2,0-4-1.1-4-3.5C546.7,101,551.9,100.9,553.9,100.9z M551,107c2.2,0,3.6-2.3,3.6-4.4v-0.5h-0.7c-1.8,0-5.5,0-5.5,2.7
		C548.4,105.9,549.2,107,551,107z"/>
	<path class="st3" d="M417.7,123.9c0-0.3-0.2-0.5-0.5-0.5h-1V122h1.6c1,0,1.4,0.4,1.4,1.2c0,0.5,0,0.8,0,0.8l0,0c0,0,0.9-2.3,4-2.3
		s5.1,2.5,5.1,6.2s-2.2,6.1-5.2,6.1c-2.9,0-3.8-2.2-3.8-2.2l0,0c0,0,0,0.4,0,1v5.6h-1.6V123.9z M423,132.6c2.1,0,3.8-1.7,3.8-4.7
		c0-2.9-1.5-4.7-3.7-4.7c-2,0-3.8,1.4-3.8,4.7C419.3,130.3,420.6,132.6,423,132.6z"/>
	<path class="st3" d="M436.1,121.7c3.2,0,4.9,2.5,4.9,5.4c0,0.3,0,0.8,0,0.8h-9c0,3,2.1,4.7,4.5,4.7c2.1,0,3.5-1.4,3.5-1.4l0.8,1.2
		c0,0-1.7,1.7-4.4,1.7c-3.5,0-6.1-2.5-6.1-6.1C430.3,124,432.9,121.7,436.1,121.7z M439.4,126.7c-0.1-2.4-1.6-3.6-3.3-3.6
		c-1.9,0-3.6,1.3-4,3.6H439.4z"/>
	<path class="st3" d="M444.2,123.9c0-0.3-0.2-0.5-0.5-0.5h-1V122h1.6c1,0,1.4,0.4,1.4,1.3v0.8c0,0.5,0,0.9,0,0.9l0,0
		c0.6-1.8,1.9-3.1,3.7-3.1c0.3,0,0.6,0.1,0.6,0.1v1.6c0,0-0.3,0-0.6,0c-1.7,0-2.9,1.3-3.4,3c-0.2,0.7-0.3,1.5-0.3,2.3v4.9h-1.6
		L444.2,123.9L444.2,123.9z"/>
	<path class="st3" d="M457.2,121.7c1.3,0,4.2,0.6,4.2,2.5v1h-1.5v-0.7c0-1-1.7-1.4-2.7-1.4c-2.5,0-4.5,1.9-4.5,4.7
		c0,2.9,2.1,4.7,4.6,4.7c2.4,0,3.8-1.7,3.8-1.7l0.7,1.2c0,0-1.6,1.9-4.6,1.9c-3.5,0-6.2-2.5-6.2-6.1
		C451,124.3,453.7,121.7,457.2,121.7z"/>
	<path class="st3" d="M469.5,121.7c3.4,0,6.2,2.6,6.2,6.1c0,3.5-2.8,6.2-6.2,6.2c-3.4,0-6.2-2.7-6.2-6.2S466.1,121.7,469.5,121.7z
		 M469.5,132.6c2.5,0,4.5-2,4.5-4.8c0-2.7-2.1-4.6-4.5-4.6c-2.5,0-4.6,2-4.6,4.6C465,130.5,467,132.6,469.5,132.6z"/>
	<path class="st3" d="M478.7,123.9c0-0.3-0.2-0.5-0.5-0.5h-1V122h1.6c1,0,1.4,0.4,1.4,1.3v0.8c0,0.5,0,0.9,0,0.9l0,0
		c0.6-1.8,1.9-3.1,3.7-3.1c0.3,0,0.6,0.1,0.6,0.1v1.6c0,0-0.3,0-0.6,0c-1.7,0-2.9,1.3-3.4,3c-0.2,0.7-0.3,1.5-0.3,2.3v4.9h-1.6
		L478.7,123.9L478.7,123.9z"/>
	<path class="st3" d="M486.7,130.9c0,0,1.3,1.8,3.6,1.8c1.3,0,2.5-0.6,2.5-1.9c0-2.6-6.6-2.1-6.6-5.9c0-2.1,1.8-3.2,4.2-3.2
		c1.2,0,3.6,0.5,3.6,2.1v1h-1.5v-0.6c0-0.9-1.3-1.2-2-1.2c-1.6,0-2.6,0.6-2.6,1.7c0,2.6,6.6,2,6.6,5.9c0,2-1.8,3.3-4.1,3.3
		c-3.1,0-4.5-2-4.5-2L486.7,130.9z"/>
	<path class="st3" d="M503.4,126.5h0.7v-0.1c0-2.4-0.9-3.3-3-3.3c-0.6,0-2.3,0.2-2.3,1v0.7h-1.5v-1.1c0-1.6,2.8-2,3.8-2
		c3.7,0,4.6,2,4.6,4.5v5.6c0,0.4,0.2,0.5,0.5,0.5h1v1.4h-1.6c-1,0-1.4-0.4-1.4-1.4c0-0.5,0-0.9,0-0.9l0,0c0,0-1,2.5-3.9,2.5
		c-2,0-4-1.1-4-3.5C496.3,126.6,501.4,126.5,503.4,126.5z M500.5,132.7c2.2,0,3.6-2.3,3.6-4.4v-0.5h-0.7c-1.8,0-5.5,0-5.5,2.7
		C497.9,131.5,498.8,132.7,500.5,132.7z"/>
	<path class="st3" d="M520.2,121.7c2.8,0,3.8,2.2,3.8,2.2l0,0c0,0,0-0.4,0-0.9v-3.8c0-0.3-0.2-0.5-0.5-0.5h-1v-1.4h1.7
		c1,0,1.4,0.4,1.4,1.4v13.1c0,0.4,0.2,0.5,0.5,0.5h1v1.4h-1.6c-1,0-1.4-0.4-1.4-1.3c0-0.4,0-0.7,0-0.7l0,0c0,0-1,2.3-4,2.3
		c-3.1,0-5.1-2.5-5.1-6.2C515,124.1,517.2,121.7,520.2,121.7z M524.1,127.9c0-2.4-1.2-4.7-3.7-4.7c-2.1,0-3.8,1.7-3.8,4.7
		c0,2.9,1.5,4.7,3.7,4.7C522.3,132.6,524.1,131.2,524.1,127.9z"/>
	<path class="st3" d="M535.8,126.5h0.7v-0.1c0-2.4-0.9-3.3-3-3.3c-0.6,0-2.3,0.2-2.3,1v0.7h-1.5v-1.1c0-1.6,2.8-2,3.8-2
		c3.7,0,4.6,2,4.6,4.5v5.6c0,0.4,0.2,0.5,0.5,0.5h1v1.4H538c-1,0-1.4-0.4-1.4-1.4c0-0.5,0-0.9,0-0.9l0,0c0,0-1,2.5-3.9,2.5
		c-2,0-4-1.1-4-3.5C528.6,126.6,533.8,126.5,535.8,126.5z M532.9,132.7c2.2,0,3.6-2.3,3.6-4.4v-0.5h-0.7c-1.8,0-5.5,0-5.5,2.7
		C530.2,131.5,531.1,132.7,532.9,132.7z"/>
	<path class="st3" d="M384.2,157.9h1c0.3,0,0.5-0.2,0.5-0.5V143h1.5l8.4,11.7c0.6,0.8,1.3,2.1,1.3,2.1l0,0c0,0-0.1-1.3-0.1-2.1
		v-10.3c0-1,0.4-1.4,1.4-1.4h1.7v1.4h-1c-0.3,0-0.5,0.2-0.5,0.5v14.4H397l-8.4-11.7c-0.6-0.8-1.4-2.1-1.4-2.1l0,0
		c0,0,0.1,1.3,0.1,2.1v10.3c0,1-0.4,1.4-1.4,1.4h-1.7V157.9z"/>
	<path class="st3" d="M407.5,147.3c3.2,0,4.9,2.5,4.9,5.4c0,0.3,0,0.8,0,0.8h-9c0,3,2.1,4.7,4.5,4.7c2.1,0,3.5-1.4,3.5-1.4l0.8,1.2
		c0,0-1.7,1.7-4.4,1.7c-3.5,0-6.1-2.5-6.1-6.1C401.7,149.7,404.4,147.3,407.5,147.3z M410.8,152.3c-0.1-2.4-1.6-3.6-3.3-3.6
		c-1.9,0-3.6,1.3-4,3.6H410.8z"/>
	<path class="st3" d="M415.1,156.5c0,0,1.3,1.8,3.6,1.8c1.3,0,2.5-0.6,2.5-1.9c0-2.6-6.6-2.1-6.6-5.9c0-2.1,1.8-3.2,4.2-3.2
		c1.2,0,3.6,0.5,3.6,2.1v1h-1.5v-0.6c0-0.9-1.3-1.2-2-1.2c-1.6,0-2.6,0.6-2.6,1.7c0,2.6,6.6,2,6.6,5.9c0,2-1.8,3.3-4.1,3.3
		c-3.1,0-4.5-2-4.5-2L415.1,156.5z"/>
	<path class="st3" d="M426,149h-1.5v-1.3h1.6v-3.2h1.6v3.2h2.9v1.3h-2.9v6c0,2.7,1.7,3.1,2.6,3.1c0.3,0,0.5,0,0.5,0v1.4
		c0,0-0.3,0-0.7,0c-1.4,0-4.1-0.4-4.1-4.4V149z"/>
	<path class="st3" d="M433.5,144.9c0-0.3-0.2-0.5-0.5-0.5h-1V143h1.7c1,0,1.4,0.4,1.4,1.4v13.1c0,0.4,0.2,0.5,0.5,0.5h1v1.4h-1.7
		c-1,0-1.4-0.4-1.4-1.4V144.9z"/>
	<path class="st3" d="M443.9,147.3c3.2,0,4.9,2.5,4.9,5.4c0,0.3,0,0.8,0,0.8h-9c0,3,2.1,4.7,4.5,4.7c2.1,0,3.5-1.4,3.5-1.4l0.8,1.2
		c0,0-1.7,1.7-4.4,1.7c-3.5,0-6.1-2.5-6.1-6.1C438.1,149.7,440.7,147.3,443.9,147.3z M447.2,152.3c-0.1-2.4-1.6-3.6-3.3-3.6
		c-1.9,0-3.6,1.3-4,3.6H447.2z M444.8,143h1.8l-2,2.8h-1.4L444.8,143z"/>
	<path class="st3" d="M457.1,144.9c-0.2-0.4-0.4-0.5-0.8-0.5H456V143h0.7c1.2,0,1.5,0.2,1.9,1.4l4,11c0.3,0.8,0.6,2.1,0.6,2.1l0,0
		c0,0,0.3-1.3,0.6-2.1l4-11c0.4-1.1,0.8-1.4,1.9-1.4h0.7v1.4h-0.2c-0.4,0-0.7,0.1-0.8,0.5l-5.4,14.4h-1.7L457.1,144.9z"/>
	<path class="st3" d="M476.4,147.3c3.2,0,4.9,2.5,4.9,5.4c0,0.3,0,0.8,0,0.8h-9c0,3,2.1,4.7,4.5,4.7c2.1,0,3.5-1.4,3.5-1.4l0.8,1.2
		c0,0-1.7,1.7-4.4,1.7c-3.5,0-6.1-2.5-6.1-6.1C470.6,149.7,473.3,147.3,476.4,147.3z M479.7,152.3c-0.1-2.4-1.6-3.6-3.3-3.6
		c-1.9,0-3.6,1.3-4,3.6H479.7z"/>
	<path class="st3" d="M484.5,149.5c0-0.3-0.2-0.5-0.5-0.5h-1v-1.4h1.6c1,0,1.4,0.4,1.4,1.3v0.8c0,0.5,0,0.9,0,0.9l0,0
		c0.6-1.8,1.9-3.1,3.7-3.1c0.3,0,0.6,0.1,0.6,0.1v1.6c0,0-0.3,0-0.6,0c-1.7,0-2.9,1.3-3.4,3c-0.2,0.7-0.3,1.5-0.3,2.3v4.9h-1.6
		L484.5,149.5L484.5,149.5z"/>
	<path class="st3" d="M498.2,152.1h0.7V152c0-2.4-0.9-3.3-3-3.3c-0.6,0-2.3,0.2-2.3,1v0.7h-1.5v-1.1c0-1.6,2.8-2,3.8-2
		c3.7,0,4.6,2,4.6,4.5v5.6c0,0.4,0.2,0.5,0.5,0.5h1v1.4h-1.6c-1,0-1.4-0.4-1.4-1.4c0-0.5,0-0.9,0-0.9l0,0c0,0-1,2.5-3.9,2.5
		c-2,0-4-1.1-4-3.5C491.1,152.3,496.2,152.1,498.2,152.1z M495.3,158.3c2.2,0,3.6-2.3,3.6-4.4v-0.5h-0.7c-1.8,0-5.5,0-5.5,2.7
		C492.7,157.2,493.6,158.3,495.3,158.3z"/>
	<path class="st3" d="M514.9,147.3c3.1,0,3.9,2,3.9,2l0,0c0,0,0-0.2,0-0.4c0-0.8,0.4-1.3,1.3-1.3h1.6v1.4h-1c-0.3,0-0.5,0.2-0.5,0.5
		v9.6c0,3.7-2.7,5.2-5.6,5.2c-1.3,0-2.7-0.3-3.8-0.9l0.6-1.3c0,0,1.4,0.8,3.2,0.8c2.3,0,4.1-1.1,4.1-3.7v-1c0-0.4,0-0.8,0-0.8l0,0
		c-0.7,1.3-1.9,2-3.7,2c-3.1,0-5.2-2.5-5.2-6C509.8,149.7,511.7,147.3,514.9,147.3z M518.7,153.3c0-3.4-1.6-4.5-3.7-4.5
		c-2.3,0-3.6,1.7-3.6,4.4c0,2.8,1.5,4.6,3.8,4.6C517.1,157.9,518.7,156.7,518.7,153.3z"/>
	<path class="st3" d="M524.3,149.5c0-0.3-0.2-0.5-0.5-0.5h-1v-1.4h1.6c1,0,1.4,0.4,1.4,1.3v0.8c0,0.5,0,0.9,0,0.9l0,0
		c0.6-1.8,1.9-3.1,3.7-3.1c0.3,0,0.6,0.1,0.6,0.1v1.6c0,0-0.3,0-0.6,0c-1.7,0-2.9,1.3-3.4,3c-0.2,0.7-0.3,1.5-0.3,2.3v4.9h-1.6
		L524.3,149.5L524.3,149.5z"/>
	<path class="st3" d="M538.1,152.1h0.7V152c0-2.4-0.9-3.3-3-3.3c-0.6,0-2.3,0.2-2.3,1v0.7H532v-1.1c0-1.6,2.8-2,3.8-2
		c3.7,0,4.6,2,4.6,4.5v5.6c0,0.4,0.2,0.5,0.5,0.5h1v1.4h-1.6c-1,0-1.4-0.4-1.4-1.4c0-0.5,0-0.9,0-0.9l0,0c0,0-1,2.5-3.9,2.5
		c-2,0-4-1.1-4-3.5C530.9,152.3,536,152.1,538.1,152.1z M535.1,158.3c2.2,0,3.6-2.3,3.6-4.4v-0.5H538c-1.8,0-5.5,0-5.5,2.7
		C532.5,157.2,533.4,158.3,535.1,158.3z"/>
	<path class="st3" d="M543.2,158.3l6.6-8.2c0.4-0.6,0.9-1.1,0.9-1.1l0,0c0,0-0.4,0-1.2,0h-4.3c-0.3,0-0.5,0.2-0.5,0.5v0.9h-1.5V149
		c0-1,0.4-1.4,1.4-1.4h8.1v1l-6.6,8.2c-0.5,0.6-1,1.1-1,1.1l0,0c0,0,0.4,0,1.2,0h4.8c0.3,0,0.5-0.2,0.5-0.5v-0.9h1.5v1.4
		c0,1-0.4,1.4-1.4,1.4H543v-1H543.2z"/>
	<path class="st3" d="M556,149.5c0-0.3-0.2-0.5-0.5-0.5h-1v-1.4h1.7c1,0,1.4,0.4,1.4,1.4v8.4c0,0.4,0.2,0.5,0.5,0.5h1v1.4h-1.7
		c-1,0-1.4-0.4-1.4-1.4V149.5z M556,143h1.5v2H556V143z"/>
	<path class="st3" d="M566.4,147.3c3.2,0,4.9,2.5,4.9,5.4c0,0.3,0,0.8,0,0.8h-9c0,3,2.1,4.7,4.5,4.7c2.1,0,3.5-1.4,3.5-1.4l0.8,1.2
		c0,0-1.7,1.7-4.4,1.7c-3.5,0-6.1-2.5-6.1-6.1C560.7,149.7,563.3,147.3,566.4,147.3z M569.7,152.3c-0.1-2.4-1.6-3.6-3.3-3.6
		c-1.9,0-3.6,1.3-4,3.6H569.7z"/>
	<path class="st3" d="M422.8,177.7h0.7v-0.1c0-2.4-0.9-3.3-3-3.3c-0.6,0-2.3,0.2-2.3,1v0.7h-1.5v-1c0-1.6,2.8-2,3.8-2
		c3.7,0,4.6,2,4.6,4.5v5.6c0,0.4,0.2,0.5,0.5,0.5h1v1.4H425c-1,0-1.4-0.4-1.4-1.4c0-0.5,0-0.9,0-0.9l0,0c0,0-1,2.5-3.9,2.5
		c-2,0-4-1.1-4-3.5C415.7,177.9,420.8,177.7,422.8,177.7z M419.9,183.9c2.2,0,3.6-2.3,3.6-4.4V179h-0.7c-1.8,0-5.5,0-5.5,2.7
		C417.3,182.8,418.1,183.9,419.9,183.9z"/>
	<path class="st3" d="M429,170.5c0-0.3-0.2-0.5-0.5-0.5h-1v-1.4h1.7c1,0,1.4,0.4,1.4,1.4v13.1c0,0.4,0.2,0.5,0.5,0.5h1v1.4h-1.7
		c-1,0-1.4-0.4-1.4-1.4V170.5z"/>
	<path class="st3" d="M434.8,170.5c0-0.3-0.2-0.5-0.5-0.5h-1v-1.4h1.7c1,0,1.4,0.4,1.4,1.4v13.1c0,0.4,0.2,0.5,0.5,0.5h1v1.4h-1.7
		c-1,0-1.4-0.4-1.4-1.4V170.5z"/>
	<path class="st3" d="M440.6,168.4h1.7l-1.3,4h-1.3L440.6,168.4z"/>
	<path class="st3" d="M450.5,177.7h0.7v-0.1c0-2.4-0.9-3.3-3-3.3c-0.6,0-2.3,0.2-2.3,1v0.7h-1.5v-1c0-1.6,2.8-2,3.8-2
		c3.7,0,4.6,2,4.6,4.5v5.6c0,0.4,0.2,0.5,0.5,0.5h1v1.4h-1.6c-1,0-1.4-0.4-1.4-1.4c0-0.5,0-0.9,0-0.9l0,0c0,0-1,2.5-3.9,2.5
		c-2,0-4-1.1-4-3.5C443.3,177.9,448.4,177.7,450.5,177.7z M447.5,183.9c2.2,0,3.6-2.3,3.6-4.4V179h-0.7c-1.8,0-5.5,0-5.5,2.7
		C444.9,182.8,445.8,183.9,447.5,183.9z"/>
	<path class="st3" d="M460.9,173c2.8,0,3.8,2.2,3.8,2.2l0,0c0,0,0-0.4,0-0.9v-3.8c0-0.3-0.2-0.5-0.5-0.5h-1v-1.4h1.7
		c1,0,1.4,0.4,1.4,1.4v13.1c0,0.4,0.2,0.5,0.5,0.5h1v1.4h-1.6c-1,0-1.4-0.4-1.4-1.3c0-0.4,0-0.7,0-0.7l0,0c0,0-1,2.3-4,2.3
		c-3.1,0-5.1-2.5-5.1-6.2C455.6,175.4,457.8,173,460.9,173z M464.8,179.1c0-2.4-1.2-4.7-3.7-4.7c-2.1,0-3.8,1.7-3.8,4.7
		c0,2.9,1.5,4.7,3.7,4.7C462.9,183.8,464.8,182.4,464.8,179.1z"/>
	<path class="st3" d="M475.5,173c3.4,0,6.2,2.6,6.2,6.1s-2.8,6.2-6.2,6.2c-3.4,0-6.2-2.7-6.2-6.2S472.1,173,475.5,173z M475.5,183.8
		c2.5,0,4.5-2,4.5-4.8c0-2.7-2.1-4.6-4.5-4.6c-2.5,0-4.6,2-4.6,4.6C470.9,181.8,473,183.8,475.5,183.8z"/>
	<path class="st3" d="M483.3,183.9l6.6-8.2c0.4-0.6,0.9-1.1,0.9-1.1l0,0c0,0-0.4,0-1.2,0h-4.3c-0.3,0-0.5,0.2-0.5,0.5v0.9h-1.5v-1.4
		c0-1,0.4-1.4,1.4-1.4h8.1v1l-6.6,8.2c-0.5,0.6-1,1.1-1,1.1l0,0c0,0,0.4,0,1.2,0h4.8c0.3,0,0.5-0.2,0.5-0.5v-0.9h1.5v1.4
		c0,1-0.4,1.4-1.4,1.4h-8.7v-1H483.3z"/>
	<path class="st3" d="M496.1,175.1c0-0.3-0.2-0.5-0.5-0.5h-1v-1.4h1.7c1,0,1.4,0.4,1.4,1.4v8.4c0,0.4,0.2,0.5,0.5,0.5h1v1.4h-1.7
		c-1,0-1.4-0.4-1.4-1.4V175.1z M496.1,168.6h1.5v2h-1.5V168.6z"/>
	<path class="st3" d="M506.9,173c3.4,0,6.2,2.6,6.2,6.1s-2.8,6.2-6.2,6.2c-3.4,0-6.2-2.7-6.2-6.2C500.8,175.6,503.5,173,506.9,173z
		 M507,183.8c2.5,0,4.5-2,4.5-4.8c0-2.7-2.1-4.6-4.5-4.6c-2.5,0-4.6,2-4.6,4.6C502.4,181.8,504.4,183.8,507,183.8z"/>
	<path class="st3" d="M516.1,175.1c0-0.3-0.2-0.5-0.5-0.5h-1v-1.4h1.6c1,0,1.4,0.4,1.4,1.3v0.5c0,0.5,0,0.8,0,0.8l0,0
		c0.4-1.1,1.9-3,4.7-3c2.9,0,3.9,1.7,3.9,4.5v5.6c0,0.4,0.2,0.5,0.5,0.5h1v1.4H526c-1,0-1.4-0.4-1.4-1.4v-5.6c0-1.8-0.3-3.5-2.5-3.5
		c-2,0-3.7,1.4-4.3,3.3c-0.1,0.5-0.2,1-0.2,1.6v5.6H516L516.1,175.1L516.1,175.1z"/>
	<path class="st3" d="M534.9,173c3.2,0,4.9,2.5,4.9,5.4c0,0.3,0,0.8,0,0.8h-9c0,3,2.1,4.7,4.5,4.7c2.1,0,3.5-1.4,3.5-1.4l0.8,1.2
		c0,0-1.7,1.7-4.4,1.7c-3.5,0-6.1-2.5-6.1-6.1C529.2,175.3,531.8,173,534.9,173z M538.2,177.9c-0.1-2.4-1.6-3.6-3.3-3.6
		c-1.9,0-3.6,1.3-4,3.6H538.2z"/>
	<path class="st3" d="M420.8,198.6c2.8,0,3.8,2.2,3.8,2.2l0,0c0,0,0-0.4,0-0.9v-3.8c0-0.3-0.2-0.5-0.5-0.5h-1v-1.4h1.7
		c1,0,1.4,0.4,1.4,1.4v13.1c0,0.4,0.2,0.5,0.5,0.5h1v1.4h-1.6c-1,0-1.4-0.4-1.4-1.3c0-0.4,0-0.7,0-0.7l0,0c0,0-1,2.3-4,2.3
		c-3.1,0-5.1-2.5-5.1-6.2C415.6,201,417.8,198.6,420.8,198.6z M424.7,204.7c0-2.4-1.2-4.7-3.7-4.7c-2.1,0-3.8,1.7-3.8,4.7
		c0,2.9,1.5,4.7,3.7,4.7C422.9,209.5,424.7,208.1,424.7,204.7z"/>
	<path class="st3" d="M435,198.6c3.2,0,4.9,2.5,4.9,5.4c0,0.3,0,0.8,0,0.8h-9c0,3,2.1,4.7,4.5,4.7c2.1,0,3.5-1.4,3.5-1.4l0.8,1.2
		c0,0-1.7,1.7-4.4,1.7c-3.5,0-6.1-2.5-6.1-6.1C429.2,200.9,431.9,198.6,435,198.6z M438.3,203.5c-0.1-2.4-1.6-3.6-3.3-3.6
		c-1.9,0-3.6,1.3-4,3.6H438.3z"/>
	<path class="st3" d="M443.1,196.1c0-0.3-0.2-0.5-0.5-0.5h-1v-1.4h1.7c1,0,1.4,0.4,1.4,1.4v13.1c0,0.4,0.2,0.5,0.5,0.5h1v1.4h-1.7
		c-1,0-1.4-0.4-1.4-1.4V196.1z"/>
	<path class="st3" d="M455.1,200.8c0-0.3-0.2-0.5-0.5-0.5h-1v-1.4h1.6c1,0,1.4,0.4,1.4,1.3v0.5c0,0.5,0,0.8,0,0.8l0,0
		c0.6-1.6,2.4-3,4.2-3c2.2,0,3.3,1,3.6,2.9l0,0c0.6-1.6,2.3-2.9,4.3-2.9c2.8,0,3.9,1.7,3.9,4.5v5.6c0,0.4,0.2,0.5,0.5,0.5h1v1.4
		h-1.7c-1,0-1.4-0.4-1.4-1.4v-5.6c0-1.9-0.4-3.5-2.5-3.5c-1.8,0-3.2,1.6-3.7,3.3c-0.2,0.5-0.2,1.1-0.2,1.7v5.5H463v-7.1
		c0-1.8-0.3-3.5-2.5-3.5c-1.9,0-3.3,1.7-3.8,3.4c-0.1,0.5-0.2,1-0.2,1.6v5.5h-1.6v-9.6H455.1z"/>
	<path class="st3" d="M481.9,198.6c3.4,0,6.2,2.6,6.2,6.1s-2.8,6.2-6.2,6.2c-3.4,0-6.2-2.7-6.2-6.2
		C475.7,201.2,478.5,198.6,481.9,198.6z M481.9,209.5c2.5,0,4.5-2,4.5-4.8c0-2.7-2.1-4.6-4.5-4.6c-2.5,0-4.6,2-4.6,4.6
		C477.3,207.4,479.4,209.5,481.9,209.5z"/>
	<path class="st3" d="M495.3,198.6c2.8,0,3.8,2.2,3.8,2.2l0,0c0,0,0-0.4,0-0.9v-3.8c0-0.3-0.2-0.5-0.5-0.5h-1v-1.4h1.7
		c1,0,1.4,0.4,1.4,1.4v13.1c0,0.4,0.2,0.5,0.5,0.5h1v1.4h-1.6c-1,0-1.4-0.4-1.4-1.3c0-0.4,0-0.7,0-0.7l0,0c0,0-1,2.3-4,2.3
		c-3.1,0-5.1-2.5-5.1-6.2C490,201,492.2,198.6,495.3,198.6z M499.1,204.7c0-2.4-1.2-4.7-3.7-4.7c-2.1,0-3.8,1.7-3.8,4.7
		c0,2.9,1.5,4.7,3.7,4.7C497.3,209.5,499.1,208.1,499.1,204.7z"/>
	<path class="st3" d="M509.4,198.6c3.2,0,4.9,2.5,4.9,5.4c0,0.3,0,0.8,0,0.8h-9c0,3,2.1,4.7,4.5,4.7c2.1,0,3.5-1.4,3.5-1.4l0.8,1.2
		c0,0-1.7,1.7-4.4,1.7c-3.5,0-6.1-2.5-6.1-6.1C503.6,200.9,506.3,198.6,509.4,198.6z M512.7,203.5c-0.1-2.4-1.6-3.6-3.3-3.6
		c-1.9,0-3.6,1.3-4,3.6H512.7z"/>
	<path class="st3" d="M517.5,196.1c0-0.3-0.2-0.5-0.5-0.5h-1v-1.4h1.7c1,0,1.4,0.4,1.4,1.4v13.1c0,0.4,0.2,0.5,0.5,0.5h1v1.4h-1.7
		c-1,0-1.4-0.4-1.4-1.4V196.1z"/>
	<path class="st3" d="M523.2,196.1c0-0.3-0.2-0.5-0.5-0.5h-1v-1.4h1.7c1,0,1.4,0.4,1.4,1.4v13.1c0,0.4,0.2,0.5,0.5,0.5h1v1.4h-1.7
		c-1,0-1.4-0.4-1.4-1.4V196.1z"/>
	<path class="st3" d="M534,198.6c3.4,0,6.2,2.6,6.2,6.1s-2.8,6.2-6.2,6.2s-6.2-2.7-6.2-6.2C527.8,201.2,530.6,198.6,534,198.6z
		 M534,209.5c2.5,0,4.5-2,4.5-4.8c0-2.7-2.1-4.6-4.5-4.6c-2.5,0-4.6,2-4.6,4.6C529.5,207.4,531.5,209.5,534,209.5z"/>
	<path class="st3" d="M424.7,226.4c0-0.3-0.2-0.5-0.5-0.5h-1v-1.4h1.6c1,0,1.4,0.4,1.4,1.3v0.5c0,0.5,0,0.8,0,0.8l0,0
		c0.6-1.6,2.4-3,4.2-3c2.2,0,3.3,1,3.6,2.9l0,0c0.6-1.6,2.3-2.9,4.3-2.9c2.8,0,3.9,1.7,3.9,4.5v5.6c0,0.4,0.2,0.5,0.5,0.5h1v1.4H442
		c-1,0-1.4-0.4-1.4-1.4v-5.6c0-1.9-0.4-3.5-2.5-3.5c-1.8,0-3.2,1.6-3.7,3.3c-0.2,0.5-0.2,1.1-0.2,1.7v5.5h-1.6V229
		c0-1.8-0.3-3.5-2.5-3.5c-1.9,0-3.3,1.7-3.8,3.4c-0.1,0.5-0.2,1-0.2,1.6v5.5h-1.6v-9.6H424.7z"/>
	<path class="st3" d="M446.3,226.4c0-0.3-0.2-0.5-0.5-0.5h-1v-1.4h1.7c1,0,1.4,0.4,1.4,1.4v5.7c0,1.8,0.3,3.5,2.6,3.5
		c2.7,0,4.3-2.4,4.3-4.9v-5.6h1.6v9.8c0,0.4,0.2,0.5,0.5,0.5h1v1.4h-1.6c-1,0-1.4-0.4-1.4-1.3v-0.5c0-0.5,0-0.8,0-0.8l0,0
		c-0.5,1.1-2,3-4.6,3c-2.8,0-3.9-1.5-3.9-4.5v-5.8H446.3z"/>
	<path class="st3" d="M460.4,221.7c0-0.3-0.2-0.5-0.5-0.5h-1v-1.4h1.7c1,0,1.4,0.4,1.4,1.4v13.1c0,0.4,0.2,0.5,0.5,0.5h1v1.4h-1.7
		c-1,0-1.4-0.4-1.4-1.4V221.7z"/>
	<path class="st3" d="M466.3,225.8h-1.5v-1.3h1.6v-3.2h1.6v3.2h2.9v1.3H468v6c0,2.7,1.7,3.1,2.6,3.1c0.3,0,0.5,0,0.5,0v1.4
		c0,0-0.3,0-0.7,0c-1.4,0-4.1-0.4-4.1-4.4V225.8z"/>
	<path class="st3" d="M474,226.4c0-0.3-0.2-0.5-0.5-0.5h-1v-1.4h1.7c1,0,1.4,0.4,1.4,1.4v8.4c0,0.4,0.2,0.5,0.5,0.5h1v1.4h-1.7
		c-1,0-1.4-0.4-1.4-1.4V226.4z M474,219.8h1.5v2H474V219.8z"/>
	<path class="st3" d="M479.8,225.8h-1.5v-1.3h1.5v-0.4c0-3.9,2.7-4.4,4-4.4c0.4,0,0.7,0,0.7,0v1.4c0,0-0.2,0-0.6,0
		c-0.9,0-2.6,0.3-2.6,2.9v0.4h3v1.3h-3v10.4h-1.6v-10.3H479.8z"/>
	<path class="st3" d="M491.4,224.2c3.4,0,6.2,2.6,6.2,6.1s-2.8,6.2-6.2,6.2c-3.4,0-6.2-2.7-6.2-6.2
		C485.3,226.8,488,224.2,491.4,224.2z M491.5,235.1c2.5,0,4.5-2,4.5-4.8c0-2.7-2.1-4.6-4.5-4.6c-2.5,0-4.6,2-4.6,4.6
		C486.9,233,488.9,235.1,491.5,235.1z"/>
	<path class="st3" d="M500.6,226.4c0-0.3-0.2-0.5-0.5-0.5h-1v-1.4h1.6c1,0,1.4,0.4,1.4,1.3v0.5c0,0.5,0,0.8,0,0.8l0,0
		c0.4-1.1,1.9-3,4.7-3c2.9,0,3.9,1.7,3.9,4.5v5.6c0,0.4,0.2,0.5,0.5,0.5h1v1.4h-1.7c-1,0-1.4-0.4-1.4-1.4v-5.6
		c0-1.8-0.3-3.5-2.5-3.5c-2,0-3.7,1.4-4.3,3.3c-0.1,0.5-0.2,1-0.2,1.6v5.6h-1.6v-9.7H500.6z"/>
	<path class="st3" d="M514.9,225.8h-1.5v-1.3h1.6v-3.2h1.6v3.2h2.9v1.3h-2.9v6c0,2.7,1.7,3.1,2.6,3.1c0.3,0,0.5,0,0.5,0v1.4
		c0,0-0.3,0-0.7,0c-1.4,0-4.1-0.4-4.1-4.4L514.9,225.8L514.9,225.8z"/>
	<path class="st3" d="M527,224.2c3.2,0,4.9,2.5,4.9,5.4c0,0.3,0,0.8,0,0.8h-9c0,3,2.1,4.7,4.5,4.7c2.1,0,3.5-1.4,3.5-1.4l0.8,1.2
		c0,0-1.7,1.7-4.4,1.7c-3.5,0-6.1-2.5-6.1-6.1C521.2,226.5,523.9,224.2,527,224.2z M530.3,229.2c-0.1-2.4-1.6-3.6-3.3-3.6
		c-1.9,0-3.6,1.3-4,3.6H530.3z"/>
</g>
<g>
	<g>
		<path class="st3" d="M131.3,252.8h0.7v-0.1c0-2.4-0.9-3.3-3-3.3c-0.6,0-2.3,0.2-2.3,1v0.7h-1.5V250c0-1.6,2.8-2,3.8-2
			c3.7,0,4.6,2,4.6,4.5v5.6c0,0.3,0.2,0.5,0.5,0.5h1v1.4h-1.6c-1,0-1.4-0.4-1.4-1.4c0-0.5,0-0.9,0-0.9l0,0c0,0-1,2.5-3.9,2.5
			c-2,0-4-1.1-4-3.5C124.2,252.9,129.3,252.8,131.3,252.8z M128.4,258.9c2.2,0,3.6-2.3,3.6-4.4V254h-0.7c-1.8,0-5.5,0-5.5,2.7
			C125.8,257.8,126.7,258.9,128.4,258.9z"/>
		<path class="st3" d="M142.7,248c1.3,0,4.2,0.6,4.2,2.5v1h-1.5v-0.7c0-1-1.7-1.4-2.7-1.4c-2.5,0-4.5,1.9-4.5,4.7
			c0,2.9,2.1,4.7,4.6,4.7c2.4,0,3.8-1.7,3.8-1.7l0.7,1.2c0,0-1.6,1.9-4.6,1.9c-3.5,0-6.1-2.5-6.1-6.1
			C136.5,250.6,139.2,248,142.7,248z"/>
		<path class="st3" d="M154.1,248c2.9,0,3.9,2.3,3.9,2.3l0,0c0,0,0-0.3,0-0.8c0-0.8,0.4-1.2,1.4-1.2h1.6v1.4h-1
			c-0.3,0-0.5,0.2-0.5,0.5v14.5h-1.6v-5.6c0-0.6,0-1,0-1l0,0c0,0-1,2.3-4,2.3c-3.1,0-5.1-2.5-5.1-6.1C148.8,250.4,151,248,154.1,248
			z M158,254.2c0-2.4-1.2-4.7-3.7-4.7c-2.1,0-3.8,1.7-3.8,4.7c0,2.9,1.5,4.7,3.7,4.7C156.1,258.9,158,257.5,158,254.2z"/>
		<path class="st3" d="M163.5,250.2c0-0.3-0.2-0.5-0.5-0.5h-1v-1.4h1.7c1,0,1.4,0.4,1.4,1.4v5.7c0,1.8,0.3,3.5,2.6,3.5
			c2.7,0,4.3-2.4,4.3-4.9v-5.6h1.6v9.8c0,0.3,0.2,0.5,0.5,0.5h1v1.4h-1.6c-1,0-1.4-0.4-1.4-1.3v-0.5c0-0.5,0-0.8,0-0.8l0,0
			c-0.5,1.1-2,3-4.6,3c-2.8,0-3.9-1.5-3.9-4.5v-5.8H163.5z"/>
		<path class="st3" d="M183.7,252.8h0.7v-0.1c0-2.4-0.9-3.3-3-3.3c-0.6,0-2.3,0.2-2.3,1v0.7h-1.5V250c0-1.6,2.8-2,3.8-2
			c3.7,0,4.6,2,4.6,4.5v5.6c0,0.3,0.2,0.5,0.5,0.5h1v1.4h-1.6c-1,0-1.4-0.4-1.4-1.4c0-0.5,0-0.9,0-0.9l0,0c0,0-1,2.5-3.9,2.5
			c-2,0-4-1.1-4-3.5C176.5,252.9,181.6,252.8,183.7,252.8z M180.7,258.9c2.2,0,3.6-2.3,3.6-4.4V254h-0.7c-1.8,0-5.5,0-5.5,2.7
			C178.1,257.8,179,258.9,180.7,258.9z"/>
		<path class="st3" d="M196.4,249.6h-1.5v-1.3h1.6v-3.2h1.6v3.2h2.9v1.3h-3v6c0,2.7,1.7,3.1,2.6,3.1c0.3,0,0.5,0,0.5,0v1.4
			c0,0-0.3,0-0.7,0c-1.4,0-4.1-0.4-4.1-4.4L196.4,249.6L196.4,249.6z"/>
		<path class="st3" d="M204,250.2c0-0.3-0.2-0.5-0.5-0.5h-1v-1.4h1.6c1,0,1.4,0.4,1.4,1.3v0.8c0,0.5,0,0.9,0,0.9l0,0
			c0.6-1.8,1.9-3.1,3.7-3.1c0.3,0,0.6,0.1,0.6,0.1v1.6c0,0-0.3,0-0.6,0c-1.7,0-2.9,1.3-3.4,3c-0.2,0.7-0.3,1.5-0.3,2.3v4.9H204
			V250.2z"/>
		<path class="st3" d="M217.8,252.8h0.7v-0.1c0-2.4-0.9-3.3-3-3.3c-0.6,0-2.3,0.2-2.3,1v0.7h-1.5V250c0-1.6,2.8-2,3.8-2
			c3.7,0,4.6,2,4.6,4.5v5.6c0,0.3,0.2,0.5,0.5,0.5h1v1.4H220c-1,0-1.4-0.4-1.4-1.4c0-0.5,0-0.9,0-0.9l0,0c0,0-1,2.5-3.9,2.5
			c-2,0-4-1.1-4-3.5C210.6,252.9,215.7,252.8,217.8,252.8z M214.8,258.9c2.2,0,3.6-2.3,3.6-4.4V254h-0.7c-1.8,0-5.5,0-5.5,2.7
			C212.2,257.8,213.1,258.9,214.8,258.9z"/>
		<path class="st3" d="M223.6,257.2c0,0,1.3,1.8,3.6,1.8c1.3,0,2.5-0.6,2.5-1.9c0-2.6-6.6-2.1-6.6-5.9c0-2.1,1.8-3.2,4.2-3.2
			c1.2,0,3.6,0.5,3.6,2.1v1h-1.5v-0.6c0-0.9-1.3-1.2-2-1.2c-1.6,0-2.6,0.6-2.6,1.7c0,2.6,6.6,2,6.6,5.9c0,2-1.8,3.3-4.1,3.3
			c-3,0-4.5-2-4.5-2L223.6,257.2z"/>
		<path class="st3" d="M234.2,250.2c0-0.3-0.2-0.5-0.5-0.5h-1v-1.4h1.6c1,0,1.4,0.4,1.4,1.2c0,0.5,0,0.8,0,0.8l0,0
			c0,0,0.9-2.3,4-2.3s5.1,2.5,5.1,6.1c0,3.7-2.2,6.1-5.2,6.1c-2.9,0-3.8-2.2-3.8-2.2l0,0c0,0,0,0.4,0,1v5.6h-1.6V250.2z
			 M239.5,258.9c2.1,0,3.8-1.7,3.8-4.7c0-2.9-1.5-4.7-3.7-4.7c-2,0-3.8,1.4-3.8,4.7C235.8,256.5,237.1,258.9,239.5,258.9z"/>
		<path class="st3" d="M253,248c3.4,0,6.2,2.6,6.2,6.1s-2.8,6.2-6.2,6.2c-3.4,0-6.2-2.7-6.2-6.2C246.8,250.6,249.6,248,253,248z
			 M253,258.9c2.5,0,4.5-2,4.5-4.8c0-2.7-2-4.6-4.5-4.6s-4.6,2-4.6,4.6C248.4,256.8,250.5,258.9,253,258.9z"/>
		<path class="st3" d="M262.1,250.2c0-0.3-0.2-0.5-0.5-0.5h-1v-1.4h1.6c1,0,1.4,0.4,1.4,1.3v0.8c0,0.5,0,0.9,0,0.9l0,0
			c0.6-1.8,1.9-3.1,3.7-3.1c0.3,0,0.6,0.1,0.6,0.1v1.6c0,0-0.3,0-0.6,0c-1.7,0-2.9,1.3-3.4,3c-0.2,0.7-0.3,1.5-0.3,2.3v4.9H262
			L262.1,250.2L262.1,250.2z"/>
		<path class="st3" d="M270.7,249.6h-1.5v-1.3h1.6v-3.2h1.6v3.2h2.9v1.3h-2.9v6c0,2.7,1.7,3.1,2.6,3.1c0.3,0,0.5,0,0.5,0v1.4
			c0,0-0.3,0-0.7,0c-1.3,0-4.1-0.4-4.1-4.4V249.6z"/>
		<path class="st3" d="M284.3,252.8h0.7v-0.1c0-2.4-0.9-3.3-3-3.3c-0.6,0-2.3,0.2-2.3,1v0.7h-1.5V250c0-1.6,2.8-2,3.8-2
			c3.7,0,4.6,2,4.6,4.5v5.6c0,0.3,0.2,0.5,0.5,0.5h1v1.4h-1.6c-1,0-1.4-0.4-1.4-1.4c0-0.5,0-0.9,0-0.9l0,0c0,0-1,2.5-3.9,2.5
			c-2,0-4-1.1-4-3.5C277.1,252.9,282.2,252.8,284.3,252.8z M281.3,258.9c2.2,0,3.6-2.3,3.6-4.4V254h-0.7c-1.8,0-5.5,0-5.5,2.7
			C278.7,257.8,279.6,258.9,281.3,258.9z"/>
		<path class="st3" d="M290.6,249.6h-1.5v-1.3h1.6v-3.2h1.6v3.2h2.9v1.3h-2.9v6c0,2.7,1.7,3.1,2.6,3.1c0.3,0,0.5,0,0.5,0v1.4
			c0,0-0.3,0-0.7,0c-1.3,0-4.1-0.4-4.1-4.4V249.6z"/>
		<path class="st3" d="M304.2,252.8h0.7v-0.1c0-2.4-0.9-3.3-3-3.3c-0.6,0-2.3,0.2-2.3,1v0.7H298V250c0-1.6,2.8-2,3.8-2
			c3.7,0,4.6,2,4.6,4.5v5.6c0,0.3,0.2,0.5,0.5,0.5h1v1.4h-1.6c-1,0-1.4-0.4-1.4-1.4c0-0.5,0-0.9,0-0.9l0,0c0,0-1,2.5-3.9,2.5
			c-2,0-4-1.1-4-3.5C297,252.9,302.2,252.8,304.2,252.8z M301.3,258.9c2.2,0,3.6-2.3,3.6-4.4V254h-0.7c-1.8,0-5.5,0-5.5,2.7
			C298.7,257.8,299.5,258.9,301.3,258.9z"/>
		<path class="st3" d="M132.4,275.8c-0.2-0.4-0.4-0.5-0.8-0.5h-0.2v-1.4h0.6c1.1,0,1.5,0.2,1.9,1.3l2.8,7.3c0.2,0.6,0.4,1.4,0.4,1.4
			l0,0c0,0,0.2-0.8,0.4-1.4l2.8-7.3c0.4-1,0.7-1.3,1.8-1.3h0.6v1.4h-0.2c-0.4,0-0.7,0.1-0.8,0.5l-3.8,9.8h-1.7L132.4,275.8z"/>
		<path class="st3" d="M145.2,275.8c0-0.3-0.2-0.5-0.5-0.5h-1v-1.4h1.7c1,0,1.4,0.4,1.4,1.4v8.4c0,0.3,0.2,0.5,0.5,0.5h1v1.4h-1.7
			c-1,0-1.4-0.4-1.4-1.4V275.8z M145.2,269.3h1.5v2h-1.5V269.3z"/>
		<path class="st3" d="M157,278.4h0.7v-0.1c0-2.4-0.9-3.3-3-3.3c-0.6,0-2.3,0.2-2.3,1v0.7h-1.5v-1.1c0-1.6,2.8-2,3.8-2
			c3.7,0,4.6,2,4.6,4.5v5.6c0,0.3,0.2,0.5,0.5,0.5h1v1.4h-1.6c-1,0-1.4-0.4-1.4-1.4c0-0.5,0-0.9,0-0.9l0,0c0,0-1,2.5-3.9,2.5
			c-2,0-4-1.1-4-3.5C149.9,278.5,155,278.4,157,278.4z M154.1,284.5c2.2,0,3.6-2.3,3.6-4.4v-0.5H157c-1.8,0-5.5,0-5.5,2.7
			C151.5,283.4,152.3,284.5,154.1,284.5z"/>
		<path class="st3" d="M169.6,275.8c0-0.3-0.2-0.5-0.5-0.5h-1v-1.4h1.6c1,0,1.4,0.4,1.4,1.3v0.5c0,0.5,0,0.8,0,0.8l0,0
			c0.4-1.1,1.9-3,4.7-3c2.9,0,3.9,1.7,3.9,4.5v5.6c0,0.3,0.2,0.5,0.5,0.5h1v1.4h-1.7c-1,0-1.4-0.4-1.4-1.4v-5.6
			c0-1.8-0.3-3.5-2.5-3.5c-2,0-3.7,1.4-4.3,3.3c-0.1,0.5-0.2,1-0.2,1.6v5.6h-1.6v-9.7H169.6z"/>
		<path class="st3" d="M189.8,278.4h0.7v-0.1c0-2.4-0.9-3.3-3-3.3c-0.6,0-2.3,0.2-2.3,1v0.7h-1.5v-1.1c0-1.6,2.8-2,3.8-2
			c3.7,0,4.6,2,4.6,4.5v5.6c0,0.3,0.2,0.5,0.5,0.5h1v1.4H192c-1,0-1.4-0.4-1.4-1.4c0-0.5,0-0.9,0-0.9l0,0c0,0-1,2.5-3.9,2.5
			c-2,0-4-1.1-4-3.5C182.7,278.5,187.8,278.4,189.8,278.4z M186.9,284.5c2.2,0,3.6-2.3,3.6-4.4v-0.5h-0.7c-1.8,0-5.5,0-5.5,2.7
			C184.3,283.4,185.1,284.5,186.9,284.5z"/>
		<path class="st3" d="M195.1,275.8c-0.2-0.4-0.4-0.5-0.8-0.5h-0.2v-1.4h0.6c1.1,0,1.5,0.2,1.9,1.3l2.8,7.3c0.2,0.6,0.4,1.4,0.4,1.4
			l0,0c0,0,0.2-0.8,0.4-1.4l2.8-7.3c0.4-1,0.7-1.3,1.8-1.3h0.6v1.4h-0.2c-0.4,0-0.7,0.1-0.8,0.5l-3.8,9.8h-1.7L195.1,275.8z"/>
		<path class="st3" d="M212.3,273.6c3.2,0,4.9,2.5,4.9,5.4c0,0.3,0,0.8,0,0.8h-9c0,3,2.1,4.7,4.5,4.7c2.1,0,3.5-1.4,3.5-1.4l0.8,1.2
			c0,0-1.7,1.7-4.4,1.7c-3.5,0-6.1-2.5-6.1-6.1C206.5,275.9,209.1,273.6,212.3,273.6z M215.6,278.6c-0.1-2.4-1.6-3.6-3.3-3.6
			c-1.9,0-3.6,1.3-4,3.6H215.6z"/>
		<path class="st3" d="M231.4,273.6c3.2,0,4.9,2.5,4.9,5.4c0,0.3,0,0.8,0,0.8h-9c0,3,2.1,4.7,4.5,4.7c2.1,0,3.5-1.4,3.5-1.4l0.8,1.2
			c0,0-1.7,1.7-4.4,1.7c-3.5,0-6.1-2.5-6.1-6.1C225.6,275.9,228.2,273.6,231.4,273.6z M234.6,278.6c-0.1-2.4-1.6-3.6-3.3-3.6
			c-1.9,0-3.6,1.3-4,3.6H234.6z"/>
		<path class="st3" d="M245.9,275.2h-1.5v-1.3h1.6v-3.2h1.6v3.2h2.9v1.3h-2.9v6c0,2.7,1.7,3.1,2.6,3.1c0.3,0,0.5,0,0.5,0v1.4
			c0,0-0.3,0-0.7,0c-1.3,0-4.1-0.4-4.1-4.4L245.9,275.2L245.9,275.2z"/>
		<path class="st3" d="M253.6,275.8c0-0.3-0.2-0.5-0.5-0.5h-1v-1.4h1.6c1,0,1.4,0.4,1.4,1.3v0.8c0,0.5,0,0.9,0,0.9l0,0
			c0.6-1.8,1.9-3.1,3.7-3.1c0.3,0,0.6,0.1,0.6,0.1v1.6c0,0-0.3,0-0.6,0c-1.7,0-2.9,1.3-3.4,3c-0.2,0.7-0.3,1.5-0.3,2.3v4.9h-1.6
			L253.6,275.8L253.6,275.8z"/>
		<path class="st3" d="M266.2,273.6c3.2,0,4.9,2.5,4.9,5.4c0,0.3,0,0.8,0,0.8h-9c0,3,2.1,4.7,4.5,4.7c2.1,0,3.5-1.4,3.5-1.4l0.8,1.2
			c0,0-1.7,1.7-4.4,1.7c-3.5,0-6.1-2.5-6.1-6.1C260.4,275.9,263.1,273.6,266.2,273.6z M269.5,278.6c-0.1-2.4-1.6-3.6-3.3-3.6
			c-1.9,0-3.6,1.3-4,3.6H269.5z"/>
		<path class="st3" d="M274.3,275.8c0-0.3-0.2-0.5-0.5-0.5h-1v-1.4h1.6c1,0,1.4,0.4,1.4,1.3v0.5c0,0.5,0,0.8,0,0.8l0,0
			c0.4-1.1,1.9-3,4.7-3c2.9,0,3.9,1.7,3.9,4.5v5.6c0,0.3,0.2,0.5,0.5,0.5h1v1.4h-1.7c-1,0-1.4-0.4-1.4-1.4v-5.6
			c0-1.8-0.3-3.5-2.5-3.5c-2,0-3.7,1.4-4.3,3.3c-0.1,0.5-0.2,1-0.2,1.6v5.6h-1.6v-9.7H274.3z"/>
		<path class="st3" d="M293.5,273.6c3.4,0,6.2,2.6,6.2,6.1s-2.8,6.2-6.2,6.2c-3.4,0-6.2-2.7-6.2-6.2S290.1,273.6,293.5,273.6z
			 M293.5,284.5c2.5,0,4.5-2,4.5-4.8c0-2.7-2-4.6-4.5-4.6s-4.6,2-4.6,4.6C289,282.4,291,284.5,293.5,284.5z"/>
		<path class="st3" d="M173.7,301.4c0-0.3-0.2-0.5-0.5-0.5h-1v-1.4h1.6c1,0,1.4,0.4,1.4,1.3v0.5c0,0.5,0,0.8,0,0.8l0,0
			c0.4-1.1,1.9-3,4.7-3c2.9,0,3.9,1.7,3.9,4.5v5.6c0,0.3,0.2,0.5,0.5,0.5h1v1.4h-1.7c-1,0-1.4-0.4-1.4-1.4v-5.6
			c0-1.8-0.3-3.5-2.5-3.5c-2,0-3.7,1.4-4.3,3.3c-0.1,0.5-0.2,1-0.2,1.6v5.6h-1.6v-9.7H173.7z"/>
		<path class="st3" d="M192.5,299.2c3.2,0,4.9,2.5,4.9,5.4c0,0.3,0,0.8,0,0.8h-9c0,3,2.1,4.7,4.5,4.7c2.1,0,3.5-1.4,3.5-1.4l0.8,1.2
			c0,0-1.7,1.7-4.4,1.7c-3.5,0-6.1-2.5-6.1-6.1C186.7,301.5,189.4,299.2,192.5,299.2z M195.8,304.2c-0.1-2.4-1.6-3.6-3.3-3.6
			c-1.9,0-3.6,1.3-4,3.6H195.8z"/>
		<path class="st3" d="M200.5,296.7c0-0.3-0.2-0.5-0.5-0.5h-1v-1.4h1.7c1,0,1.4,0.4,1.4,1.4v13.1c0,0.3,0.2,0.5,0.5,0.5h1v1.4H202
			c-1,0-1.4-0.4-1.4-1.4v-13.1H200.5z"/>
		<path class="st3" d="M220.2,299.2c0-1.7-1.3-3.1-3.4-3.1c-1.6,0-2.9,0.8-2.9,1.8v0.8h-1.5v-1.2c0-2.1,2.8-2.9,4.5-2.9
			c3.1,0,5,2,5,4.6c0,5.8-8.7,5.6-8.7,10.1c0,0.3,0.2,0.5,0.5,0.5h6.8c0.3,0,0.5-0.2,0.5-0.5v-1.1h1.5v1.6c0,1-0.4,1.4-1.4,1.4H213
			c-1.1,0-1.5-0.5-1.5-1.6C211.6,303.5,220.2,304,220.2,299.2z"/>
		<path class="st3" d="M225,303c0-4.7,1.4-8.5,5.6-8.5s5.7,3.7,5.7,8.5c0,4.7-1.4,8.5-5.7,8.5S225,307.8,225,303z M234.6,303
			c0-3.9-0.9-6.9-4-6.9s-4,3-4,6.9s0.9,7,4,7C233.7,310,234.6,306.9,234.6,303z"/>
		<path class="st3" d="M238.7,309.8h3.7v-12c0-0.5,0-0.9,0-0.9l0,0c0,0-0.2,0.3-0.8,1l-1.7,1.7l-1-1l3.7-3.7h1.5v14.9h3.6v1.4h-8.9
			v-1.4H238.7z"/>
		<path class="st3" d="M257.1,297.8c0.5-0.9,0.9-1.5,0.9-1.5l0,0c0,0-0.4,0-1.2,0h-5.9c-0.3,0-0.5,0.2-0.5,0.5v1.1h-1.5v-1.6
			c0-1,0.4-1.4,1.4-1.4h9.7v1.1l-8.1,15.2h-1.8L257.1,297.8z"/>
	</g>
	<g>
		<path class="st3" d="M184.7,218.5c0,0,2.8,3.3,7.1,3.3c3.2,0,6.2-2.4,6.2-5.9c0-3.7-3.2-5.7-6.6-5.7h-1.9l-0.6-1.6l6.7-8.1
			c0.7-0.9,1.4-1.5,1.4-1.5v-0.1c0,0-0.8,0.1-2.2,0.1h-7.1c-0.5,0-0.9,0.3-0.9,0.9v1.8h-2.5V199c0-1.7,0.6-2.4,2.3-2.4h13.8v1.8
			l-8,9.4c3.4,0.2,8.4,2.2,8.4,8c0,4.6-3.8,8.5-9,8.5c-5.4,0-8.7-3.8-8.7-3.8L184.7,218.5z"/>
		<path class="st3" d="M204.2,211.9c0-6.9,3.6-15.7,12-15.7c3,0,5,1.1,5,1.1l-1,2.4c0,0-1.7-1-3.9-1c-5.7,0-8.6,5.7-9.1,11.2h0.1
			c1.3-2.1,4.1-3.3,6.9-3.3c5,0,8.5,3.6,8.5,8.6c0,5.7-3.8,9.1-8.6,9.1C208.1,224.3,204.2,219,204.2,211.9z M214,221.8
			c3.7,0,5.8-2.8,5.8-6.5c0-3.8-2.4-6.3-6.2-6.3c-3.6,0-6.6,2.4-6.6,4.6C207.1,217.3,209.9,221.8,214,221.8z"/>
		<path class="st3" d="M226.6,201.6c0-2.9,2.4-5.4,5.4-5.4s5.5,2.4,5.5,5.4s-2.4,5.4-5.5,5.4C229,207,226.6,204.6,226.6,201.6z
			 M247.6,196.7h2.7l-20.7,27.2h-2.8L247.6,196.7z M235.2,201.6c0-1.7-1.4-3.2-3.2-3.2s-3.1,1.5-3.1,3.2c0,1.8,1.4,3.2,3.1,3.2
			C233.8,204.8,235.2,203.4,235.2,201.6z M245.1,213.6c3,0,5.5,2.4,5.5,5.4c0,2.9-2.4,5.3-5.5,5.3c-3,0-5.4-2.4-5.4-5.3
			C239.7,216,242.1,213.6,245.1,213.6z M245.1,222.2c1.8,0,3.2-1.4,3.2-3.2c0-1.7-1.4-3.2-3.2-3.2s-3.1,1.5-3.1,3.2
			S243.3,222.2,245.1,222.2z"/>
	</g>
</g>
<g>
	<path class="st3" d="M431.7,55.2c0-3-2.2-5.3-5.7-5.3c-2.8,0-5,1.4-5,3v1.3h-2.6v-2.1c0-3.6,4.8-4.9,7.7-4.9c5.3,0,8.5,3.5,8.5,7.9
		c0,9.9-14.8,9.6-14.8,17.4c0,0.6,0.3,0.8,0.9,0.8h11.7c0.6,0,0.9-0.3,0.9-0.9v-1.9h2.6v2.8c0,1.7-0.7,2.4-2.4,2.4h-14
		c-1.9,0-2.5-0.8-2.5-2.7C416.9,62.6,431.7,63.5,431.7,55.2z"/>
	<path class="st3" d="M444.6,60.5L444.6,60.5c0-0.1-3.8-1.9-3.8-5.9c0-3.9,3-7.3,8.5-7.3c5.3,0,8.6,3.1,8.6,7.5
		c0,4.3-3.7,6.9-3.7,6.9v0.1c2.6,1.4,4.5,3.1,4.5,6.4c0,4.4-4.1,8.1-9.4,8.1c-4.9,0-9.5-3.1-9.5-8.4C439.6,63,444.6,60.5,444.6,60.5
		z M449.1,73.7c3.3,0,6.5-2.3,6.5-5.5c0-2.9-2.4-4.1-5.3-5.3c-1-0.4-3-1.1-3.3-1.1c-1.1,0-4.6,2.6-4.6,6
		C442.5,71.4,445.7,73.7,449.1,73.7z M451.4,60.5c1,0,3.5-2.7,3.5-5.7s-2.4-4.9-5.8-4.9c-3.5,0-5.7,2.1-5.7,4.7c0,2.9,2.5,4,5.4,5.1
		C449.6,59.9,450.9,60.5,451.4,60.5z"/>
	<path class="st3" d="M464.4,72.7c0,0,1.8,1,4.1,1c5.9,0,8.9-5.9,9.4-11.6h-0.1c-1.3,2.2-4.2,3.4-7.1,3.4c-5.1,0-8.7-3.7-8.7-8.9
		c0-5.8,3.9-9.4,8.8-9.4c6.1,0,10.1,5.5,10.1,12.8c0,7.1-3.6,16.2-12.3,16.2c-3.1,0-5.1-1.2-5.1-1.2L464.4,72.7z M477.8,58.3
		c0-3.7-2.9-8.4-7.1-8.4c-3.8,0-6,2.9-6,6.7c0,3.9,2.5,6.5,6.3,6.5C474.8,63.1,477.8,60.5,477.8,58.3z"/>
	<path class="st3" d="M485.9,51c0-0.6-0.3-0.9-0.9-0.9h-1.7v-2.4h2.8c1.7,0,2.4,0.6,2.4,2.3v13.3h2.1c0.8,0,1.7-0.2,2.3-1l5.1-6.7
		h3.3l-5.8,7.3c-1,1.2-1.5,1.4-1.5,1.4v0.1c0,0,0.6,0.3,1.2,1.5l3.6,6.5c0.4,0.7,0.8,0.9,1.8,0.9h1.1v2.4H500c-2,0-2.6-0.3-3.5-2
		l-4-7.2c-0.4-0.8-1.4-0.9-2.1-0.9h-1.8v10h-2.7V51z"/>
	<path class="st3" d="M505.9,58.9c0-0.6-0.3-0.9-0.9-0.9h-1.7v-2.4h2.8c1.7,0,2.4,0.7,2.4,2.2v0.9c0,0.8-0.1,1.4-0.1,1.4h0.1
		c1-2.7,4.1-5.1,7.3-5.1c3.7,0,5.6,1.7,6.2,5h0.1c1.1-2.7,4-5,7.4-5c4.9,0,6.7,2.8,6.7,7.8v9.5c0,0.6,0.3,0.9,0.9,0.9h1.7v2.4H536
		c-1.7,0-2.4-0.7-2.4-2.4v-9.6c0-3.3-0.7-6-4.3-6c-3,0-5.5,2.7-6.3,5.7c-0.3,0.9-0.4,1.8-0.4,2.9v9.5h-2.7v-12c0-3-0.4-6-4.2-6
		c-3.3,0-5.7,2.8-6.5,5.9c-0.2,0.8-0.3,1.8-0.3,2.7v9.5h-2.7V58.9H505.9z"/>
</g>
<g>
	<path class="st3" d="M354.2,390.6l18.5-8.3v2.7l-15,6.5v0.1l15,6.5v2.7l-18.5-8.3V390.6z"/>
	<path class="st3" d="M393.2,382c0-3.1-2.3-5.4-5.9-5.4c-2.9,0-5.1,1.5-5.1,3.1v1.3h-2.7v-2c0-3.6,5-5,7.9-5c5.5,0,8.8,3.6,8.8,8.1
		c0,10.1-15.2,9.9-15.2,17.8c0,0.6,0.3,0.8,0.9,0.8h12c0.6,0,0.9-0.3,0.9-0.9v-1.9h2.7v2.9c0,1.8-0.7,2.5-2.5,2.5h-14.4
		c-2,0-2.6-0.8-2.6-2.8C377.9,389.7,393.2,390.6,393.2,382z"/>
	<path class="st3" d="M401.5,388.8c0-8.3,2.4-14.9,9.9-14.9s9.9,6.6,9.9,14.9s-2.5,14.9-9.9,14.9
		C403.9,403.7,401.5,397.1,401.5,388.8z M418.4,388.8c0-6.8-1.6-12.2-7-12.2s-7,5.4-7,12.2c0,6.9,1.6,12.2,7,12.2
		S418.4,395.7,418.4,388.8z"/>
	<path class="st3" d="M426.2,388.8c0-8.3,2.4-14.9,9.9-14.9s9.9,6.6,9.9,14.9s-2.5,14.9-9.9,14.9
		C428.6,403.7,426.2,397.1,426.2,388.8z M443.1,388.8c0-6.8-1.6-12.2-7-12.2s-7,5.4-7,12.2c0,6.9,1.6,12.2,7,12.2
		S443.1,395.7,443.1,388.8z"/>
	<path class="st3" d="M451.8,377.7c0-0.6-0.3-0.9-0.9-0.9h-1.7v-2.4h2.9c1.8,0,2.5,0.6,2.5,2.4v13.7h2.1c0.8,0,1.8-0.2,2.3-1
		l5.3-6.9h3.4l-5.9,7.5c-1,1.3-1.6,1.5-1.6,1.5v0.1c0,0,0.6,0.3,1.3,1.5l3.7,6.7c0.4,0.7,0.8,0.9,1.9,0.9h1.1v2.4h-1.9
		c-2,0-2.6-0.3-3.6-2l-4.1-7.4c-0.4-0.8-1.4-0.9-2.2-0.9h-1.9v10.3h-2.8v-25.5H451.8z"/>
	<path class="st3" d="M472.4,385.9c0-0.6-0.3-0.9-0.9-0.9h-1.7v-2.4h2.9c1.7,0,2.5,0.7,2.5,2.3v0.9c0,0.8-0.1,1.5-0.1,1.5h0.1
		c1-2.8,4.3-5.2,7.4-5.2c3.8,0,5.8,1.8,6.4,5.2h0.1c1.1-2.8,4.1-5.2,7.6-5.2c5,0,6.8,2.9,6.8,8v9.8c0,0.6,0.3,0.9,0.9,0.9h1.7v2.4
		h-2.9c-1.8,0-2.5-0.7-2.5-2.5v-9.9c0-3.4-0.7-6.1-4.5-6.1c-3.1,0-5.7,2.8-6.5,5.8c-0.3,0.9-0.4,1.9-0.4,3v9.7h-2.8v-12.4
		c0-3.1-0.5-6.1-4.3-6.1c-3.4,0-5.9,2.9-6.7,6.1c-0.2,0.9-0.3,1.8-0.3,2.7v9.7h-2.8L472.4,385.9L472.4,385.9z"/>
</g>
</svg>
