<svg xmlns="http://www.w3.org/2000/svg" viewBox="0 0 825.8 718.8"><style>.st0{fill:#00295a}.st1,.st2{fill-rule:evenodd;clip-rule:evenodd;fill:#d8b200}.st2{fill:none;stroke:#4e5594;stroke-width:3;stroke-linecap:round;stroke-miterlimit:10;stroke-dasharray:0,8}.st3{fill:#4e5594}.st4{fill:#fff}</style><path class="st0" d="M484.6 695.4c8.7 0 16.9-3.4 23.2-9.5 6.1-6.3 9.5-14.5 9.5-23.1v-19.1l.5-.3c4.4-2.7 8.2-6.4 11-10.7 3.7-5.8 5.7-12.4 5.7-19v-232.7c0-6.7-2-13.2-5.7-19-1.6-2.5-3.5-4.7-6-7l-.9-.8 1-.7c1.9-1.4 3.6-3 5.3-5.1 4.1-4.9 6.3-11.1 6.3-17.6v-105.4c0-21.8-6.4-44-18.4-64.2-11.6-19.5-28.2-36.9-46.7-49.2l-.5-.3v-41c0-6.7-2.6-13.1-7.3-17.8-4.8-4.7-11.3-7.5-18-7.5h-48.6c-6.8 0-13.1 2.6-18 7.5-4.8 4.8-7.5 11.1-7.5 17.8v40.9l-.5.3c-18.6 12.3-35.1 29.8-46.6 49.2-12.1 20.2-18.5 42.4-18.5 64.2v105.3c0 6.5 2.2 12.7 6.3 17.6 1.5 1.9 3.3 3.6 5.4 5.1l1 .8-1 .8c-2.2 1.9-4.2 4.1-6.1 7-3.7 5.8-5.7 12.4-5.7 19v232.7c0 6.6 1.9 13 5.4 18.6.1.1.3.3.4.5 3 4.4 6.7 8 10.9 10.6l.5.3v19.1c0 8.3 3.4 16.5 9.3 22.6.2.2.3.3.5.6 6.3 6.1 14.4 9.4 22.9 9.4h130.9zm-102.3-624.7c0-3.2 1.3-6.3 3.7-8.9 2.6-2.4 5.8-3.7 9.1-3.7h48.5c3.2 0 6.3 1.3 8.9 3.7 2.4 2.6 3.7 5.7 3.7 8.9v38h-73.9v-38zm-42.5 606.2l-.3-.3c-.7-.7-1.3-1.5-2-2.6-1.4-2.1-2.4-4.4-2.9-6.8-.1-.2-.1-.3-.1-.4-.3-1.3-.4-2.7-.4-4v-22.8c0-1.3-.4-2.6-1.2-3.7-.7-1-1.8-1.9-3-2.3-2-.8-3.8-2.1-5.6-3.7-1.6-1.4-2.9-2.9-3.9-4.5l-.1-.1c-2.3-3.6-3.4-7.7-3.4-12v-232.7c0-4.3 1.2-8.5 3.6-12.1 1.4-2 2.7-3.4 3.8-4.3.3-.3.6-.6.9-.8 1.5-1.1 2.9-2 4.1-2.7 1.2-.7 2.2-1.3 2.9-1.9 1.2-1.2 1.8-2.8 1.8-4.4v-1.6c0-1.6-.3-3-.9-4.3l-.2-.4c-.1-.2-.1-.3-.2-.4 0-.1-.1-.1-.2-.2l-.3-.3c-.4-.4-.8-.8-1.1-1-.7-.4-1.4-.7-2.2-.8l-.3-.1c-3-.6-6-2.5-8.2-5.3-2.2-2.6-3.4-6-3.4-9.6v-113.9h.3c1.3-16.6 6.8-33.2 16.3-49.3 2.8-4.7 5.9-9.3 9.4-13.8 9.8-12.7 21.8-23.8 34.7-32.3l.3-.2h82.8l.3.2c2 1.3 4 2.7 5.9 4.1.8.6 1.6 1.2 2.3 1.8l1.6 1.3c.7.5 1.4 1 2 1.6.5.4 1 .8 1.5 1.3l.7.6c1.3 1.1 2.6 2.2 3.8 3.3l1.3 1.2c1.6 1.5 3.2 3 4.7 4.6l.3.3c11 11.3 19.7 23.8 26 37.4l.3.6c1.7 3.8 3.3 7.6 4.6 11.4l.4 1.4c1.4 4.1 2.4 8 3.2 11.8l.1.8c.8 4.2 1.4 8.1 1.7 11.9h.3v113.8c0 5.1-2.6 9.8-7 12.7-1.7 1.2-3.5 1.9-5.3 2.3-3 .7-5.2 3.5-5.1 6.7l.1.5v1.8c0 2 .9 3.8 2.4 5 .5.4 1 .7 1.6 1 7.8 3.3 13.2 11.6 13.2 20.3v232.7c0 4.2-1.3 8.5-3.7 12.1-1.1 1.6-2.2 3-3.8 4.3l-.2.2-.6.5c-1.5 1.2-2.9 2-4.2 2.8-1.2.7-2.3 1.4-3.1 2.1-1 1.2-1.6 2.7-1.6 4.2v23.2c-.1 3.9-1.3 7.6-3.4 10.7-.7 1.1-1.5 2-2.4 2.9-.5.5-1 .9-1.5 1.3l-.4.3c-3.6 2.8-7.8 4.3-12.2 4.3h-130.8c-5.2.2-10.2-1.9-14-5.7z"/><path class="st1" d="M686.1 465.1c57.5 0 104.1 46.6 104.1 104.1 0 57.5-46.6 104.1-104.1 104.1s-104.1-46.6-104.1-104.1c0-57.5 46.6-104.1 104.1-104.1zm-529 0c57.5 0 104.1 46.6 104.1 104.1 0 57.5-46.6 104.1-104.1 104.1s-104.1-46.6-104.1-104.1c0-57.5 46.6-104.1 104.1-104.1zm529-214.1c57.5 0 104.1 46.6 104.1 104.1 0 57.5-46.6 104.1-104.1 104.1s-104.1-46.6-104.1-104.1c0-57.5 46.6-104.1 104.1-104.1zm-529 0c57.5 0 104.1 46.6 104.1 104.1 0 57.5-46.6 104.1-104.1 104.1s-104.1-46.6-104.1-104.1c0-57.5 46.6-104.1 104.1-104.1zm529-214.6c57.5 0 104.1 46.6 104.1 104.1 0 57.5-46.6 104.1-104.1 104.1s-104.1-46.5-104.1-104 46.6-104.2 104.1-104.2zm-529 0c57.5 0 104.1 46.6 104.1 104.1 0 57.5-46.6 104.1-104.1 104.1s-104.1-46.5-104.1-104 46.6-104.2 104.1-104.2z"/><path class="st2" d="M686.6 17.7c66.8 0 121 52.7 121 117.6v439.7c0 65-54.2 117.6-121 117.6s-121-52.7-121-117.6v-439.7c0-65 54.2-117.6 121-117.6zm-529.9 0c66.8 0 121 52.7 121 117.6v439.7c0 65-54.2 117.6-121 117.6s-121-52.7-121-117.6v-439.7c0-65 54.2-117.6 121-117.6zm108.7 336.5h312.1m-312.1 230.4h312.1m-312.1-464.7h312.1"/><path class="st3" d="M647.4 112.4s1.8 1 4.2 1c6.1 0 9.2-6.1 9.7-11.9h-.1c-1.4 2.3-4.4 3.5-7.4 3.5-5.3 0-9-3.8-9-9.2 0-6 4-9.7 9.1-9.7 6.3 0 10.5 5.6 10.5 13.2 0 7.4-3.7 16.7-12.7 16.7-3.2 0-5.3-1.2-5.3-1.2l1-2.4zm13.9-14.8c0-3.8-3-8.7-7.3-8.7-3.9 0-6.2 3-6.2 7s2.6 6.7 6.5 6.7c3.8-.1 7-2.7 7-5zm13 12.4s2.2 3.4 6.7 3.4c4.1 0 7.2-2.9 7.2-6.8 0-4-3.3-6.8-7.5-6.8-3.3 0-5.6 1.6-5.6 1.6l-1.5-.6 1.2-11.7c.2-1.8.7-2.5 2.5-2.5h9.5c1.7 0 2.5.7 2.5 2.5v2.9h-2.7v-1.9c0-.6-.3-.9-.9-.9h-7.3c-.6 0-.8.3-.9.9l-.7 6.5c-.1 1-.2 1.6-.2 1.6h.1s1.8-1.1 4.4-1.1c5.9 0 10.1 4.2 10.1 9.4 0 5.1-4.3 9.4-10.2 9.4-5.8 0-8.5-4.1-8.5-4.1l1.8-1.8zm26-18.1c0-3.1 2.6-5.7 5.8-5.7 3.2 0 5.8 2.6 5.8 5.7 0 3.2-2.6 5.7-5.8 5.7-3.2.1-5.8-2.5-5.8-5.7zm22.4-5.2h2.9l-22 28.9h-3l22.1-28.9zm-13.2 5.2c0-1.9-1.5-3.4-3.4-3.4s-3.3 1.6-3.3 3.4c0 1.9 1.4 3.4 3.3 3.4s3.4-1.5 3.4-3.4zm10.5 12.8c3.2 0 5.8 2.6 5.8 5.8 0 3.1-2.6 5.7-5.8 5.7-3.2 0-5.8-2.6-5.8-5.7.1-3.2 2.6-5.8 5.8-5.8zm0 9.1c1.9 0 3.4-1.5 3.4-3.4s-1.5-3.4-3.4-3.4-3.3 1.6-3.3 3.4c0 1.9 1.4 3.4 3.3 3.4z"/><path class="st4" d="M647.8 123.6c3.3 0 5.9 2.6 5.9 5.9 0 3.4-2.6 6.1-5.9 6.1-3.3 0-5.9-2.7-5.9-6.1 0-3.3 2.6-5.9 5.9-5.9zm0 10.9c2.6 0 4.7-2.2 4.7-5 0-2.7-2.1-4.8-4.7-4.8s-4.7 2.1-4.7 4.8c0 2.8 2.1 5 4.7 5zm9.6-9.3c0-.2-.1-.4-.4-.4h-.7v-1h1.2c.7 0 1 .3 1 1v3.7s.7-1.6 2.8-1.6c2.2 0 3.6 1.8 3.6 4.3 0 2.6-1.6 4.3-3.7 4.3-2 0-2.7-1.6-2.7-1.6v1.4h-1.1v-10.1zm3.7 9.4c1.5 0 2.7-1.2 2.7-3.3 0-2-1.1-3.3-2.6-3.3-1.4 0-2.7 1-2.7 3.3 0 1.7.8 3.3 2.6 3.3zm7.7-6.1c0-.2-.1-.4-.4-.4h-.7v-1h1.2c.7 0 1 .3 1 1v5.9c0 .2.1.4.4.4h.7v1h-1.2c-.7 0-1-.3-1-1v-5.9zm-.1-4.7h1.1v1.4h-1.1v-1.4zm9.1 3.1c2.3 0 3.5 1.8 3.5 3.8v.6h-6.4c0 2.1 1.5 3.3 3.2 3.3 1.5 0 2.5-1 2.5-1l.5.8s-1.2 1.2-3.1 1.2c-2.5 0-4.3-1.8-4.3-4.3 0-2.7 1.9-4.4 4.1-4.4zm2.3 3.5c-.1-1.7-1.1-2.6-2.3-2.6-1.4 0-2.6.9-2.9 2.6h5.2zm5.1-2.3h-1.1v-.9h1.1v-2.3h1.1v2.3h2.1v.9h-2.1v4.2c0 1.9 1.2 2.2 1.9 2.2h.4v1h-.5c-1 0-2.9-.3-2.9-3.1v-4.3zm7.2 0h-1.1v-.9h1.1v-2.3h1.1v2.3h2.1v.9h-2.1v4.2c0 1.9 1.2 2.2 1.9 2.2h.4v1h-.5c-1 0-2.9-.3-2.9-3.1v-4.3zm7.2.4c0-.2-.1-.4-.4-.4h-.7v-1h1.2c.7 0 1 .3 1 1v5.9c0 .2.1.4.4.4h.7v1h-1.2c-.7 0-1-.3-1-1v-5.9zm-.1-4.7h1.1v1.4h-1.1v-1.4zm5.2 4.7c-.1-.3-.3-.4-.6-.4h-.1v-1h.4c.8 0 1 .2 1.3.9l2 5.2c.1.4.3 1 .3 1s.1-.6.3-1l2-5.2c.3-.7.5-.9 1.3-.9h.4v1h-.1c-.3 0-.5.1-.6.4l-2.7 6.9h-1.2l-2.7-6.9zm14.1-1.6c2.4 0 4.4 1.8 4.4 4.3s-2 4.4-4.4 4.4c-2.4 0-4.4-1.9-4.4-4.4 0-2.4 2-4.3 4.4-4.3zm0 7.7c1.8 0 3.2-1.4 3.2-3.4 0-1.9-1.4-3.3-3.2-3.3-1.8 0-3.2 1.4-3.2 3.3 0 2 1.4 3.4 3.2 3.4zm8.4-7.5h1.3v1.3h-1.3v-1.3zm0 7h1.3v1.3h-1.3v-1.3zm-69.8 16h.5v-.1c0-1.7-.6-2.3-2.1-2.3-.4 0-1.6.1-1.6.7v.5h-1.2v-.8c0-1.2 2-1.4 2.7-1.4 2.6 0 3.2 1.4 3.2 3.2v4c0 .2.1.4.4.4h.7v1h-1.1c-.7 0-1-.3-1-1v-.6s-.7 1.8-2.8 1.8c-1.4 0-2.8-.8-2.8-2.5 0-2.8 3.6-2.9 5.1-2.9zm-2.1 4.3c1.6 0 2.5-1.6 2.5-3.1v-.3h-.5c-1.3 0-3.9 0-3.9 1.9.1.7.7 1.5 1.9 1.5zm8.1-6.2c0-.2-.1-.4-.4-.4h-.7v-1h1.2c.7 0 1 .3 1 .9v1.2c.4-1.3 1.3-2.2 2.6-2.2h.4v1.1h-.4c-1.2 0-2 .9-2.4 2.1-.2.5-.2 1.1-.2 1.6v3.5h-1.1v-6.8zm7.8 0c0-.2-.1-.4-.4-.4h-.7v-1h1.2c.7 0 1 .3 1 .9v1.2c.4-1.3 1.3-2.2 2.6-2.2h.4v1.1h-.4c-1.2 0-2 .9-2.4 2.1-.2.5-.2 1.1-.2 1.6v3.5h-1.1v-6.8zm7.7 0c0-.2-.1-.4-.4-.4h-.7v-1h1.2c.7 0 1 .3 1 1v5.9c0 .2.1.4.4.4h.7v1h-1.2c-.7 0-1-.3-1-1v-5.9zm-.1-4.6h1.1v1.4h-1.1v-1.4zm5.2 4.6c-.1-.3-.3-.4-.6-.4h-.1v-1h.4c.8 0 1 .2 1.3.9l2 5.2c.1.4.3 1 .3 1s.1-.6.3-1l2-5.2c.3-.7.5-.9 1.3-.9h.4v1h-.1c-.3 0-.5.1-.6.4l-2.7 6.9h-1.2l-2.7-6.9zm14.9 1.9h.5v-.1c0-1.7-.6-2.3-2.1-2.3-.4 0-1.6.1-1.6.7v.5h-1.1v-.8c0-1.2 2-1.4 2.7-1.4 2.6 0 3.2 1.4 3.2 3.2v4c0 .2.1.4.4.4h.7v1h-1.1c-.7 0-1-.3-1-1v-.6s-.7 1.8-2.8 1.8c-1.4 0-2.8-.8-2.8-2.5-.1-2.8 3.5-2.9 5-2.9zm-2.1 4.3c1.6 0 2.5-1.6 2.5-3.1v-.3h-.5c-1.3 0-3.9 0-3.9 1.9 0 .7.7 1.5 1.9 1.5zm8.1-6.2c0-.2-.1-.4-.4-.4h-.7v-1h1.2c.7 0 1 .3 1 .9v1.2c.4-1.3 1.3-2.2 2.6-2.2h.4v1.1h-.4c-1.2 0-2 .9-2.4 2.1-.2.5-.2 1.1-.2 1.6v3.5h-1.1v-6.8zm10.6-1.5c2.3 0 3.5 1.8 3.5 3.8v.6h-6.4c0 2.1 1.5 3.3 3.2 3.3 1.5 0 2.5-1 2.5-1l.5.8s-1.2 1.2-3.1 1.2c-2.5 0-4.3-1.8-4.3-4.3 0-2.8 1.9-4.4 4.1-4.4zm2.3 3.5c-.1-1.7-1.1-2.6-2.3-2.6-1.4 0-2.6.9-2.9 2.6h5.2zm-93 19.6h.5v-.1c0-1.7-.6-2.3-2.1-2.3-.4 0-1.6.1-1.6.7v.5h-1.1v-.8c0-1.2 2-1.4 2.7-1.4 2.6 0 3.2 1.4 3.2 3.2v4c0 .2.1.4.4.4h.7v1h-1.1c-.7 0-1-.3-1-1v-.6s-.7 1.8-2.8 1.8c-1.4 0-2.8-.8-2.8-2.5-.1-2.8 3.6-2.9 5-2.9zm-2.1 4.4c1.6 0 2.5-1.6 2.5-3.1v-.4h-.5c-1.3 0-3.9 0-3.9 1.9.1.8.7 1.6 1.9 1.6zm14.3-6.2c0-.2-.1-.4-.4-.4h-.7v-1h1.1c.7 0 1 .3 1 .9v.6s.7-1.6 2.9-1.6 3.6 1.8 3.6 4.3c0 2.6-1.6 4.3-3.7 4.3-2 0-2.7-1.6-2.7-1.6v4.6h-1.1v-10.1zm3.7 6.2c1.5 0 2.7-1.2 2.7-3.3 0-2-1.1-3.3-2.6-3.3-1.4 0-2.7 1-2.7 3.3 0 1.6.9 3.3 2.6 3.3zm7.6-6.2c0-.2-.1-.4-.4-.4h-.7v-1h1.2c.7 0 1 .3 1 .9v1.2c.4-1.3 1.3-2.2 2.6-2.2h.4v1.1h-.4c-1.2 0-2 .9-2.4 2.1-.2.5-.2 1.1-.2 1.6v3.5h-1.1v-6.8zm10.9-1.5c2.4 0 4.4 1.8 4.4 4.3s-2 4.4-4.4 4.4c-2.4 0-4.4-1.9-4.4-4.4 0-2.5 2-4.3 4.4-4.3zm0 7.6c1.8 0 3.2-1.4 3.2-3.4 0-1.9-1.4-3.3-3.2-3.3-1.8 0-3.2 1.4-3.2 3.3 0 2 1.4 3.4 3.2 3.4zm11.1-7.6c2 0 2.7 1.5 2.7 1.5v-3.3c0-.2-.1-.4-.4-.4h-.7v-1h1.2c.7 0 1 .3 1 1v9.2c0 .2.1.4.4.4h.7v1h-1.2c-.7 0-1-.3-1-.9v-.5s-.7 1.6-2.9 1.6-3.6-1.8-3.6-4.3c.1-2.6 1.6-4.3 3.8-4.3zm2.7 4.3c0-1.7-.9-3.3-2.6-3.3-1.5 0-2.7 1.2-2.7 3.3 0 2 1.1 3.3 2.6 3.3 1.4 0 2.7-.9 2.7-3.3zm5.6-2.8c0-.2-.1-.4-.4-.4h-.7v-1h1.2c.7 0 1 .3 1 1v4c0 1.3.2 2.5 1.8 2.5 1.9 0 3-1.7 3-3.5v-4h1.1v7c0 .2.1.4.4.4h.7v1h-1.1c-.7 0-1-.3-1-.9v-1c-.3.8-1.4 2.1-3.2 2.1-2 0-2.8-1.1-2.8-3.2v-4zm11.6 0c0-.2-.1-.4-.4-.4h-.7v-1h1.2c.7 0 1 .3 1 .9v1.2c.4-1.3 1.3-2.2 2.6-2.2h.4v1.1h-.4c-1.2 0-2 .9-2.4 2.1-.2.5-.2 1.1-.2 1.6v3.5h-1.1v-6.8zm7.7 0c0-.2-.1-.4-.4-.4h-.7v-1h1.2c.7 0 1 .3 1 .9v1.2c.4-1.3 1.3-2.2 2.6-2.2h.4v1.1h-.4c-1.2 0-2 .9-2.4 2.1-.2.5-.2 1.1-.2 1.6v3.5h-1.1v-6.8zm10.6-1.5c2.3 0 3.5 1.8 3.5 3.8v.6h-6.4c0 2.1 1.5 3.3 3.2 3.3 1.5 0 2.5-1 2.5-1l.5.8s-1.2 1.2-3.1 1.2c-2.5 0-4.3-1.8-4.3-4.3 0-2.8 1.9-4.4 4.1-4.4zm2.4 3.5c-.1-1.7-1.1-2.6-2.3-2.6-1.4 0-2.6.9-2.9 2.6h5.2zm11.5-5.6h-1.1v-1h4.9c2.1 0 3.6 1.4 3.6 3.5 0 2.2-1.5 3.5-3.6 3.5h-2.7v4.5h-1.2v-10.5zm3.6 5c1.5 0 2.5-.9 2.5-2.5s-1-2.5-2.5-2.5h-2.5v5h2.5zm7.5-5h-1.1v-1h6.6c.7 0 1 .3 1 1v1.2h-1v-.8c0-.2-.1-.4-.4-.4h-4v4.2h4.3v1h-4.3v3.9c0 .2.1.4.4.4h4.1c.2 0 .4-.1.4-.4v-.8h1.1v1.2c0 .7-.3 1-1 1h-5c-.7 0-1-.3-1-1v-9.5zm13.5 0h-2.9c-.2 0-.4.1-.4.4v.8h-1.1v-1.2c0-.7.2-.9.9-.9h7.8c.7 0 .9.2.9.9v1.2h-1.1v-.8c0-.3-.1-.4-.4-.4h-2.9v10.6h-.8v-10.6zm-105.5 20.1c0-.2-.1-.4-.4-.4h-.7v-1h1.2c.7 0 1 .3 1 1v3.7s.7-1.6 2.8-1.6c2.2 0 3.6 1.8 3.6 4.3 0 2.6-1.6 4.3-3.7 4.3-2 0-2.7-1.6-2.7-1.6v1.4h-1.1v-10.1zm3.7 9.4c1.5 0 2.7-1.2 2.7-3.3 0-2-1.1-3.3-2.6-3.3-1.4 0-2.7 1-2.7 3.3 0 1.7.9 3.3 2.6 3.3zm7.7-6.1c0-.2-.1-.4-.4-.4h-.7v-1h1.2c.7 0 1 .3 1 1v5.9c0 .2.1.4.4.4h.7v1h-1.2c-.7 0-1-.3-1-1v-5.9zm0-4.7h1.1v1.4h-1.1v-1.4zm9.3 3.1c2.4 0 4.4 1.8 4.4 4.3s-2 4.4-4.4 4.4c-2.4 0-4.4-1.9-4.4-4.4 0-2.4 2-4.3 4.4-4.3zm0 7.7c1.8 0 3.2-1.4 3.2-3.4 0-1.9-1.4-3.3-3.2-3.3-1.8 0-3.2 1.4-3.2 3.3 0 2 1.4 3.4 3.2 3.4zm18.6-4.3h.5v-.1c0-1.7-.6-2.3-2.1-2.3-.4 0-1.6.1-1.6.7v.5h-1.1v-.8c0-1.2 2-1.4 2.7-1.4 2.6 0 3.2 1.4 3.2 3.2v4c0 .2.1.4.4.4h.7v1h-1.1c-.7 0-1-.3-1-1v-.6s-.7 1.8-2.8 1.8c-1.4 0-2.8-.8-2.8-2.5-.1-2.8 3.5-2.9 5-2.9zm-2.1 4.4c1.6 0 2.5-1.6 2.5-3.1v-.4h-.5c-1.3 0-3.9 0-3.9 1.9 0 .8.6 1.6 1.9 1.6zm8.1-9.5c0-.2-.1-.4-.4-.4h-.7v-1h1.2c.7 0 1 .3 1 1v9.2c0 .2.1.4.4.4h.7v1h-1.2c-.7 0-1-.3-1-1v-9.2zm12.1 8.9s.7.4 1.7.4c2.4 0 3.7-2.4 3.9-4.8-.5.9-1.7 1.4-2.9 1.4-2.1 0-3.6-1.5-3.6-3.7 0-2.4 1.6-3.9 3.6-3.9 2.5 0 4.2 2.3 4.2 5.3 0 2.9-1.5 6.7-5.1 6.7-1.3 0-2.1-.5-2.1-.5l.3-.9zm5.6-5.9c0-1.5-1.2-3.5-2.9-3.5-1.6 0-2.5 1.2-2.5 2.8 0 1.6 1 2.7 2.6 2.7 1.5 0 2.8-1.1 2.8-2zm5.2 5s.9 1.4 2.7 1.4c1.6 0 2.9-1.2 2.9-2.7 0-1.6-1.3-2.7-3-2.7-1.3 0-2.2.6-2.2.6l-.6-.2.5-4.7c.1-.7.3-1 1-1h3.8c.7 0 1 .3 1 1v1.2h-1.1v-.8c0-.2-.1-.4-.4-.4h-2.9c-.2 0-.3.1-.4.4l-.3 2.6c0 .4-.1.7-.1.7s.7-.4 1.7-.4c2.4 0 4.1 1.7 4.1 3.8 0 2.1-1.7 3.8-4.1 3.8-2.3 0-3.4-1.6-3.4-1.6l.8-1zm10.4-7.3c0-1.3 1-2.3 2.3-2.3s2.3 1 2.3 2.3c0 1.3-1 2.3-2.3 2.3s-2.3-1-2.3-2.3zm8.9-2.1h1.2l-8.8 11.6h-1.2l8.8-11.6zm-5.2 2.1c0-.7-.6-1.4-1.4-1.4-.8 0-1.3.6-1.3 1.4 0 .8.6 1.4 1.3 1.4.8 0 1.4-.6 1.4-1.4zm4.2 5.1c1.3 0 2.3 1 2.3 2.3 0 1.3-1 2.3-2.3 2.3s-2.3-1-2.3-2.3c0-1.2 1-2.3 2.3-2.3zm0 3.7c.8 0 1.4-.6 1.4-1.4 0-.7-.6-1.4-1.4-1.4-.8 0-1.3.6-1.3 1.4 0 .8.5 1.4 1.3 1.4z"/><path class="st3" d="M660.3 286.7c.8-1.6 1.6-2.7 1.6-2.7s-.7.1-2.2.1h-10.4c-.6 0-.9.3-.9.9v1.9h-2.7v-2.9c0-1.8.7-2.5 2.5-2.5h17.1v2l-14.3 27h-3.2l12.5-23.8zm13.3 18.1s2.2 3.4 6.7 3.4c4.1 0 7.2-2.9 7.2-6.8 0-4-3.3-6.8-7.5-6.8-3.3 0-5.6 1.6-5.6 1.6l-1.5-.6 1.2-11.7c.2-1.8.7-2.5 2.5-2.5h9.5c1.7 0 2.5.7 2.5 2.5v2.9h-2.6v-1.9c0-.6-.3-.9-.9-.9h-7.3c-.6 0-.8.3-.9.9l-.7 6.5c-.1 1-.2 1.6-.2 1.6h.1s1.8-1.1 4.4-1.1c5.9 0 10.1 4.2 10.1 9.4 0 5.1-4.3 9.4-10.2 9.4-5.8 0-8.5-4.1-8.5-4.1l1.7-1.8zm26-18.1c0-3.1 2.6-5.7 5.8-5.7 3.2 0 5.8 2.6 5.8 5.7 0 3.2-2.6 5.7-5.8 5.7-3.2 0-5.8-2.5-5.8-5.7zm22.4-5.2h2.9l-22 28.9h-3l22.1-28.9zm-13.2 5.2c0-1.9-1.5-3.4-3.4-3.4s-3.3 1.6-3.3 3.4c0 1.9 1.4 3.4 3.3 3.4s3.4-1.5 3.4-3.4zm10.5 12.8c3.2 0 5.8 2.6 5.8 5.8 0 3.1-2.6 5.7-5.8 5.7-3.2 0-5.8-2.6-5.8-5.7.1-3.2 2.6-5.8 5.8-5.8zm0 9.1c1.9 0 3.4-1.5 3.4-3.4s-1.5-3.4-3.4-3.4-3.3 1.6-3.3 3.4c0 1.9 1.4 3.4 3.3 3.4z"/><path class="st4" d="M648.2 318.4c3.3 0 5.9 2.6 5.9 5.9 0 3.4-2.6 6.1-5.9 6.1-3.3 0-5.9-2.7-5.9-6.1 0-3.3 2.6-5.9 5.9-5.9zm0 10.9c2.6 0 4.7-2.2 4.7-5 0-2.7-2.1-4.8-4.7-4.8s-4.7 2.1-4.7 4.8c0 2.8 2.1 5 4.7 5zm9.5-9.3c0-.2-.1-.4-.4-.4h-.7v-1h1.2c.7 0 1 .3 1 1v3.7s.7-1.6 2.8-1.6c2.2 0 3.6 1.8 3.6 4.3 0 2.6-1.6 4.3-3.7 4.3-2 0-2.7-1.6-2.7-1.6v1.4h-1.1v-10.1zm3.8 9.4c1.5 0 2.7-1.2 2.7-3.3 0-2-1.1-3.3-2.6-3.3-1.4 0-2.7 1-2.7 3.3-.1 1.7.8 3.3 2.6 3.3zm7.6-6.1c0-.2-.1-.4-.4-.4h-.7v-1h1.2c.7 0 1 .3 1 1v5.9c0 .2.1.4.4.4h.7v1h-1.2c-.7 0-1-.3-1-1v-5.9zm0-4.7h1.1v1.4h-1.1v-1.4zm9 3.1c2.3 0 3.5 1.8 3.5 3.8v.6h-6.4c0 2.1 1.5 3.3 3.2 3.3 1.5 0 2.5-1 2.5-1l.5.8s-1.2 1.2-3.1 1.2c-2.5 0-4.3-1.8-4.3-4.3.1-2.7 1.9-4.4 4.1-4.4zm2.4 3.5c-.1-1.7-1.1-2.6-2.3-2.6-1.4 0-2.6.9-2.9 2.6h5.2zm5.1-2.3h-1.1v-.9h1.1v-2.3h1.1v2.3h2.1v.9h-2.1v4.2c0 1.9 1.2 2.2 1.9 2.2h.4v1h-.5c-1 0-2.9-.3-2.9-3.1v-4.3zm7.2 0h-1.1v-.9h1.1v-2.3h1.1v2.3h2.1v.9h-2.1v4.2c0 1.9 1.2 2.2 1.9 2.2h.4v1h-.5c-1 0-2.9-.3-2.9-3.1v-4.3zm7.1.4c0-.2-.1-.4-.4-.4h-.7v-1h1.2c.7 0 1 .3 1 1v5.9c0 .2.1.4.4.4h.7v1h-1.2c-.7 0-1-.3-1-1v-5.9zm0-4.7h1.1v1.4h-1.1v-1.4zm5.2 4.7c-.1-.3-.3-.4-.6-.4h-.1v-1h.4c.8 0 1 .2 1.3.9l2 5.2c.1.4.3 1 .3 1s.1-.6.3-1l2-5.2c.3-.7.5-.9 1.3-.9h.4v1h-.1c-.3 0-.5.1-.6.4l-2.7 6.9h-1.2l-2.7-6.9zm14-1.6c2.4 0 4.4 1.8 4.4 4.3s-2 4.4-4.4 4.4c-2.4 0-4.4-1.9-4.4-4.4.1-2.4 2-4.3 4.4-4.3zm.1 7.7c1.8 0 3.2-1.4 3.2-3.4 0-1.9-1.4-3.3-3.2-3.3-1.8 0-3.2 1.4-3.2 3.3-.1 1.9 1.4 3.4 3.2 3.4zm8.3-7.5h1.3v1.3h-1.3v-1.3zm0 7h1.3v1.3h-1.3v-1.3zm-117.8 14.1c0-.2-.1-.4-.4-.4h-.7v-1h1.1c.7 0 1 .3 1 .9v.6s.7-1.6 2.9-1.6 3.6 1.8 3.6 4.3c0 2.6-1.6 4.3-3.7 4.3-2 0-2.7-1.6-2.7-1.6v4.6h-1.1v-10.1zm3.7 6.2c1.5 0 2.7-1.2 2.7-3.3 0-2-1.1-3.3-2.6-3.3-1.4 0-2.7 1-2.7 3.3 0 1.6.9 3.3 2.6 3.3zm7.6-6.2c0-.2-.1-.4-.4-.4h-.6v-1h1.2c.7 0 1 .3 1 .9v1.2c.4-1.3 1.3-2.2 2.6-2.2h.4v1.1h-.4c-1.2 0-2 .9-2.4 2.1-.2.5-.2 1.1-.2 1.6v3.5h-1.2v-6.8zm10.9-1.5c2.4 0 4.4 1.8 4.4 4.3s-2 4.4-4.4 4.4c-2.4 0-4.4-1.9-4.4-4.4 0-2.5 2-4.3 4.4-4.3zm0 7.7c1.8 0 3.2-1.4 3.2-3.4 0-1.9-1.4-3.3-3.2-3.3-1.8 0-3.2 1.4-3.2 3.3s1.4 3.4 3.2 3.4zm11.1-7.7c2 0 2.7 1.5 2.7 1.5v-3.3c0-.2-.1-.4-.4-.4h-.7v-1h1.2c.7 0 1 .3 1 1v9.2c0 .2.1.4.4.4h.7v1h-1.2c-.7 0-1-.3-1-.9v-.5s-.7 1.6-2.9 1.6-3.6-1.8-3.6-4.3c.1-2.6 1.6-4.3 3.8-4.3zm2.7 4.3c0-1.7-.9-3.3-2.6-3.3-1.5 0-2.7 1.2-2.7 3.3 0 2 1.1 3.3 2.6 3.3 1.4.1 2.7-.9 2.7-3.3zm5.6-2.8c0-.2-.1-.4-.4-.4h-.7v-1h1.2c.7 0 1 .3 1 1v4c0 1.3.2 2.5 1.8 2.5 1.9 0 3-1.7 3-3.5v-4h1.1v7c0 .2.1.4.4.4h.7v1h-1.1c-.7 0-1-.3-1-.9v-1c-.3.8-1.4 2.1-3.2 2.1-2 0-2.8-1.1-2.8-3.2v-4zm11.6 0c0-.2-.1-.4-.4-.4h-.7v-1h1.2c.7 0 1 .3 1 .9v1.2c.4-1.3 1.3-2.2 2.6-2.2h.4v1.1h-.4c-1.2 0-2 .9-2.4 2.1-.2.5-.2 1.1-.2 1.6v3.5h-1.1v-6.8zm7.7 0c0-.2-.1-.4-.4-.4h-.7v-1h1.2c.7 0 1 .3 1 .9v1.2c.4-1.3 1.3-2.2 2.6-2.2h.4v1.1h-.4c-1.2 0-2 .9-2.4 2.1-.2.5-.2 1.1-.2 1.6v3.5h-1.1v-6.8zm10.6-1.5c2.3 0 3.5 1.8 3.5 3.8v.6h-6.4c0 2.1 1.5 3.3 3.2 3.3 1.5 0 2.5-1 2.5-1l.5.8s-1.2 1.2-3.1 1.2c-2.5 0-4.3-1.8-4.3-4.3.1-2.8 1.9-4.4 4.1-4.4zm2.4 3.5c-.1-1.7-1.1-2.6-2.3-2.6-1.4 0-2.6.9-2.9 2.6h5.2zm10.8 2.9s.9 1.3 2.6 1.3c.9 0 1.7-.4 1.7-1.3 0-1.8-4.6-1.5-4.6-4.2 0-1.5 1.3-2.2 2.9-2.2.8 0 2.5.3 2.5 1.5v.7h-1.1v-.4c0-.6-.9-.8-1.4-.8-1.2 0-1.8.4-1.8 1.2 0 1.9 4.6 1.4 4.6 4.2 0 1.4-1.3 2.3-2.9 2.3-2.2 0-3.2-1.5-3.2-1.5l.7-.8zm9.2-4.9c0-.2-.1-.4-.4-.4h-.7v-1h1.2c.7 0 1 .3 1 1v4c0 1.3.2 2.5 1.8 2.5 1.9 0 3-1.7 3-3.5v-4h1.1v7c0 .2.1.4.4.4h.7v1h-1.1c-.7 0-1-.3-1-.9v-1c-.3.8-1.4 2.1-3.2 2.1-2 0-2.8-1.1-2.8-3.2v-4zm17.4 4.9s.9 1.3 2.6 1.3c.9 0 1.7-.4 1.7-1.3 0-1.8-4.6-1.5-4.6-4.2 0-1.5 1.3-2.2 2.9-2.2.8 0 2.5.3 2.5 1.5v.7h-1.1v-.4c0-.6-.9-.8-1.4-.8-1.2 0-1.8.4-1.8 1.2 0 1.9 4.6 1.4 4.6 4.2 0 1.4-1.3 2.3-2.9 2.3-2.2 0-3.2-1.5-3.2-1.5l.7-.8zm12.8-6.4c.9 0 2.9.4 2.9 1.8v.7h-1.1v-.5c0-.7-1.2-1-1.9-1-1.8 0-3.2 1.3-3.2 3.3 0 2 1.5 3.3 3.2 3.3 1.7 0 2.7-1.2 2.7-1.2l.5.8s-1.1 1.4-3.2 1.4c-2.5 0-4.3-1.8-4.3-4.3.1-2.5 1.9-4.3 4.4-4.3zm11.1 3.4h.5v-.1c0-1.7-.6-2.3-2.1-2.3-.4 0-1.6.1-1.6.7v.5h-1.1v-.8c0-1.2 2-1.4 2.7-1.4 2.6 0 3.2 1.4 3.2 3.2v4c0 .2.1.4.4.4h.7v1h-1.1c-.7 0-1-.3-1-1v-.6s-.7 1.8-2.8 1.8c-1.4 0-2.8-.8-2.8-2.5-.1-2.8 3.5-2.9 5-2.9zm-2.1 4.3c1.6 0 2.5-1.6 2.5-3.1v-.4h-.5c-1.3 0-3.9 0-3.9 1.9 0 .8.7 1.6 1.9 1.6zm8.1-9.5c0-.2-.1-.4-.4-.4h-.7v-1h1.2c.7 0 1 .3 1 1v9.2c0 .2.1.4.4.4h.7v1h-1.2c-.7 0-1-.3-1-1v-9.2zm10 5.2h.5v-.1c0-1.7-.6-2.3-2.1-2.3-.4 0-1.6.1-1.6.7v.5h-1.1v-.8c0-1.2 2-1.4 2.7-1.4 2.6 0 3.2 1.4 3.2 3.2v4c0 .2.1.4.4.4h.7v1h-1.1c-.7 0-1-.3-1-1v-.6s-.7 1.8-2.8 1.8c-1.4 0-2.8-.8-2.8-2.5-.1-2.8 3.6-2.9 5-2.9zm-2.1 4.3c1.6 0 2.5-1.6 2.5-3.1v-.4h-.5c-1.3 0-3.9 0-3.9 1.9.1.8.7 1.6 1.9 1.6zm-125.3 12.1c.9 0 2.9.4 2.9 1.8v.7h-1.1v-.5c0-.7-1.2-1-1.9-1-1.8 0-3.2 1.3-3.2 3.3 0 2 1.5 3.3 3.2 3.3 1.7 0 2.7-1.2 2.7-1.2l.5.8s-1.1 1.4-3.2 1.4c-2.5 0-4.3-1.8-4.3-4.3.1-2.5 1.9-4.3 4.4-4.3zm10.4 0c2.4 0 4.4 1.8 4.4 4.3s-2 4.4-4.4 4.4c-2.4 0-4.4-1.9-4.4-4.4 0-2.5 2-4.3 4.4-4.3zm0 7.6c1.8 0 3.2-1.4 3.2-3.4 0-1.9-1.4-3.3-3.2-3.3-1.8 0-3.2 1.4-3.2 3.3-.1 2 1.4 3.4 3.2 3.4zm8.1-6.1c0-.2-.1-.4-.4-.4h-.7v-1h1.2c.7 0 1 .3 1 .9v1c.4-1.1 1.7-2.1 3-2.1 1.5 0 2.3.7 2.6 2.1.4-1.1 1.6-2.1 3-2.1 2 0 2.8 1.2 2.8 3.2v3.9c0 .2.1.4.4.4h.7v1h-1.2c-.7 0-1-.3-1-1v-4c0-1.4-.3-2.5-1.8-2.5-1.3 0-2.3 1.1-2.6 2.3-.1.4-.1.8-.1 1.2v3.9h-1.1v-5c0-1.3-.2-2.5-1.7-2.5-1.4 0-2.4 1.2-2.7 2.4-.1.3-.1.7-.1 1.1v3.9h-1.3v-6.7zm17 0c0-.2-.1-.4-.4-.4h-.7v-1h1.2c.7 0 1 .3 1 .9v1c.4-1.1 1.7-2.1 3-2.1 1.5 0 2.3.7 2.6 2.1.4-1.1 1.6-2.1 3-2.1 2 0 2.8 1.2 2.8 3.2v3.9c0 .2.1.4.4.4h.7v1h-1.2c-.7 0-1-.3-1-1v-4c0-1.4-.3-2.5-1.8-2.5-1.3 0-2.3 1.1-2.6 2.3-.1.4-.1.8-.1 1.2v3.9h-1.1v-5c0-1.3-.2-2.5-1.7-2.5-1.4 0-2.4 1.2-2.7 2.4-.1.3-.1.7-.1 1.1v3.9h-1.3v-6.7zm20.3-1.5c2.3 0 3.5 1.8 3.5 3.8v.6h-6.4c0 2.1 1.5 3.3 3.2 3.3 1.5 0 2.5-1 2.5-1l.5.8s-1.2 1.2-3.1 1.2c-2.5 0-4.3-1.8-4.3-4.3 0-2.8 1.8-4.4 4.1-4.4zm2.3 3.4c-.1-1.7-1.1-2.6-2.3-2.6-1.4 0-2.6.9-2.9 2.6h5.2zm5-1.9c0-.2-.1-.4-.4-.4h-.7v-1h1.2c.7 0 1 .3 1 .9v1.2c.4-1.3 1.3-2.2 2.6-2.2h.4v1.1h-.4c-1.2 0-2 .9-2.4 2.1-.2.5-.2 1.1-.2 1.6v3.5h-1.1v-6.8zm10.9-1.5c.9 0 2.9.4 2.9 1.8v.7h-1.1v-.5c0-.7-1.2-1-1.9-1-1.8 0-3.2 1.3-3.2 3.3 0 2 1.5 3.3 3.2 3.3 1.7 0 2.7-1.2 2.7-1.2l.5.8s-1.1 1.4-3.2 1.4c-2.5 0-4.3-1.8-4.3-4.3s1.9-4.3 4.4-4.3zm6.8 1.5c0-.2-.1-.4-.4-.4h-.7v-1h1.2c.7 0 1 .3 1 1v5.9c0 .2.1.4.4.4h.7v1h-1.2c-.7 0-1-.3-1-1v-5.9zm0-4.6h1.1v1.4h-1.1v-1.4zm10 6.4h.5v-.1c0-1.7-.6-2.3-2.1-2.3-.4 0-1.6.1-1.6.7v.5h-1.1v-.8c0-1.2 2-1.4 2.7-1.4 2.6 0 3.2 1.4 3.2 3.2v4c0 .2.1.4.4.4h.7v1h-1.1c-.7 0-1-.3-1-1v-.6s-.7 1.8-2.8 1.8c-1.4 0-2.8-.8-2.8-2.5 0-2.8 3.6-2.9 5-2.9zm-2 4.4c1.6 0 2.5-1.6 2.5-3.1v-.4h-.5c-1.3 0-3.9 0-3.9 1.9 0 .8.6 1.6 1.9 1.6zm8.1-9.5c0-.2-.1-.4-.4-.4h-.7v-1h1.2c.7 0 1 .3 1 1v9.2c0 .2.1.4.4.4h.7v1h-1.2c-.7 0-1-.3-1-1v-9.2zm9 1.8c2.3 0 3.5 1.8 3.5 3.8v.6h-6.4c0 2.1 1.5 3.3 3.2 3.3 1.5 0 2.5-1 2.5-1l.5.8s-1.2 1.2-3.1 1.2c-2.5 0-4.3-1.8-4.3-4.3 0-2.8 1.9-4.4 4.1-4.4zm2.3 3.4c-.1-1.7-1.1-2.6-2.3-2.6-1.4 0-2.6.9-2.9 2.6h5.2zm-103.4 14.6c0-.2-.1-.4-.4-.4h-.7v-1h1.2c.7 0 1 .3 1 1v3.7s.7-1.6 2.8-1.6c2.2 0 3.6 1.8 3.6 4.3 0 2.6-1.6 4.3-3.7 4.3-2 0-2.7-1.6-2.7-1.6v1.4h-1.1v-10.1zm3.7 9.4c1.5 0 2.7-1.2 2.7-3.3 0-2-1.1-3.3-2.6-3.3-1.4 0-2.7 1-2.7 3.3 0 1.7.8 3.3 2.6 3.3zm11.2-7.7c2.4 0 4.4 1.8 4.4 4.3s-2 4.4-4.4 4.4c-2.4 0-4.4-1.9-4.4-4.4 0-2.4 2-4.3 4.4-4.3zm0 7.7c1.8 0 3.2-1.4 3.2-3.4 0-1.9-1.4-3.3-3.2-3.3-1.8 0-3.2 1.4-3.2 3.3 0 2 1.4 3.4 3.2 3.4zm8.2-6.5h-1.1v-.9h1.1v-2.3h1.1v2.3h2.1v.9h-2.1v4.2c0 1.9 1.2 2.2 1.9 2.2h.4v1h-.5c-1 0-2.9-.3-2.9-3.1v-4.3zm7.2 0h-1.1v-.9h1.1v-2.3h1.1v2.3h2.1v.9h-2.1v4.2c0 1.9 1.2 2.2 1.9 2.2h.4v1h-.5c-1 0-2.9-.3-2.9-3.1v-4.3zm7.1.4c0-.2-.1-.4-.4-.4h-.7v-1h1.2c.7 0 1 .3 1 1v5.9c0 .2.1.4.4.4h.7v1h-1.2c-.7 0-1-.3-1-1v-5.9zm0-4.7h1.1v1.4h-1.1v-1.4zm8.6 3.1c2.2 0 2.8 1.4 2.8 1.4v-.3c0-.6.3-.9.9-.9h1.2v1h-.7c-.2 0-.4.1-.4.4v6.8c0 2.6-1.9 3.7-4 3.7-.9 0-1.9-.2-2.7-.7l.4-.9s1 .6 2.2.6c1.6 0 2.9-.8 2.9-2.6v-1.3c-.5.9-1.3 1.4-2.6 1.4-2.2 0-3.7-1.8-3.7-4.3.1-2.6 1.5-4.3 3.7-4.3zm2.7 4.2c0-2.4-1.2-3.2-2.6-3.2-1.6 0-2.6 1.2-2.6 3.1s1.1 3.3 2.7 3.3c1.4.1 2.5-.8 2.5-3.2zm5.6-5.9c0-.2-.1-.4-.4-.4h-.7v-1h1.2c.7 0 1 .3 1 1v9.2c0 .2.1.4.4.4h.7v1h-1.2c-.7 0-1-.3-1-1v-9.2zm5.8 3.3c0-.2-.1-.4-.4-.4h-.7v-1h1.2c.7 0 1 .3 1 1v5.9c0 .2.1.4.4.4h.7v1h-1.2c-.7 0-1-.3-1-1v-5.9zm0-4.7h1.1v1.4h-1.1v-1.4zm9 3.1c2.3 0 3.5 1.8 3.5 3.8v.6h-6.4c0 2.1 1.5 3.3 3.2 3.3 1.5 0 2.5-1 2.5-1l.5.8s-1.2 1.2-3.1 1.2c-2.5 0-4.3-1.8-4.3-4.3 0-2.7 1.9-4.4 4.1-4.4zm2.3 3.5c-.1-1.7-1.1-2.6-2.3-2.6-1.4 0-2.6.9-2.9 2.6h5.2zm11.3-1.9c0-.2-.1-.4-.4-.4h-.7v-1h1.2c.7 0 1 .3 1 1v5.9c0 .2.1.4.4.4h.7v1h-1.2c-.7 0-1-.3-1-1v-5.9zm-.1-4.7h1.1v1.4h-1.1v-1.4zm5.8 4.7c0-.2-.1-.4-.4-.4h-.7v-1h1.2c.7 0 1 .3 1 .9v1c.3-.8 1.4-2.1 3.3-2.1 2.1 0 2.8 1.2 2.8 3.2v3.9c0 .2.1.4.4.4h.7v1h-1.2c-.7 0-1-.3-1-1v-4c0-1.3-.2-2.5-1.8-2.5-1.4 0-2.6 1-3 2.3-.1.3-.1.7-.1 1.1v4h-1.1v-6.8zm-93 19.7c0-.2-.1-.4-.4-.4h-.7v-1h1.1c.7 0 1 .3 1 .9v.6s.7-1.6 2.9-1.6 3.6 1.8 3.6 4.3c0 2.6-1.6 4.3-3.7 4.3-2 0-2.7-1.6-2.7-1.6v4.6h-1.1v-10.1zm3.7 6.2c1.5 0 2.7-1.2 2.7-3.3 0-2-1.1-3.3-2.6-3.3-1.4 0-2.7 1-2.7 3.3 0 1.6.9 3.3 2.6 3.3zm7.4-9.5c0-.2-.1-.4-.4-.4h-.7v-1h1.2c.7 0 1 .3 1 1v9.2c0 .2.1.4.4.4h.7v1h-1.2c-.7 0-1-.3-1-1v-9.2zm10 5.2h.5v-.1c0-1.7-.6-2.3-2.1-2.3-.4 0-1.6.1-1.6.7v.5h-1.1v-.8c0-1.2 2-1.4 2.7-1.4 2.6 0 3.2 1.4 3.2 3.2v4c0 .2.1.4.4.4h.7v1h-1.1c-.7 0-1-.3-1-1v-.6s-.7 1.8-2.8 1.8c-1.4 0-2.8-.8-2.8-2.5-.1-2.8 3.6-2.9 5-2.9zm-2.1 4.3c1.6 0 2.5-1.6 2.5-3.1v-.4h-.5c-1.3 0-3.9 0-3.9 1.9.1.8.7 1.6 1.9 1.6zm7.9-1.3s.9 1.3 2.6 1.3c.9 0 1.7-.4 1.7-1.3 0-1.8-4.6-1.5-4.6-4.2 0-1.5 1.3-2.2 2.9-2.2.8 0 2.5.3 2.5 1.5v.7h-1.1v-.4c0-.6-.9-.8-1.4-.8-1.2 0-1.8.4-1.8 1.2 0 1.9 4.6 1.4 4.6 4.2 0 1.4-1.3 2.3-2.9 2.3-2.2 0-3.2-1.5-3.2-1.5l.7-.8zm9.3-5.3h-1.1v-.9h1.1v-2.3h1.1v2.3h2.1v.9h-2.1v4.2c0 1.9 1.2 2.2 1.9 2.2h.4v1h-.5c-1 0-2.9-.3-2.9-3.1v-4.3zm7.1.4c0-.2-.1-.4-.4-.4h-.6v-1h1.2c.7 0 1 .3 1 1v5.9c0 .2.1.4.4.4h.7v1h-1.3c-.7 0-1-.3-1-1v-5.9zm0-4.6h1.1v1.4h-1.1v-1.4zm9.3 3.1c.9 0 2.9.4 2.9 1.8v.7h-1.1v-.5c0-.7-1.2-1-1.9-1-1.8 0-3.2 1.3-3.2 3.3 0 2 1.5 3.3 3.2 3.3 1.7 0 2.7-1.2 2.7-1.2l.5.8s-1.1 1.4-3.2 1.4c-2.5 0-4.3-1.8-4.3-4.3.1-2.5 1.9-4.3 4.4-4.3zm11.1 3.4h.5v-.1c0-1.7-.6-2.3-2.1-2.3-.4 0-1.6.1-1.6.7v.5h-1.2v-.8c0-1.2 2-1.4 2.7-1.4 2.6 0 3.2 1.4 3.2 3.2v4c0 .2.1.4.4.4h.7v1h-1.1c-.7 0-1-.3-1-1v-.6s-.7 1.8-2.8 1.8c-1.4 0-2.8-.8-2.8-2.5 0-2.8 3.6-2.9 5.1-2.9zm-2.1 4.3c1.6 0 2.5-1.6 2.5-3.1v-.4h-.5c-1.3 0-3.9 0-3.9 1.9 0 .8.7 1.6 1.9 1.6zm14.6-9.8h-1.1v-1h4.9c2.1 0 3.6 1.4 3.6 3.5 0 2.2-1.5 3.5-3.6 3.5h-2.7v4.5h-1.2v-10.5zm3.7 5c1.5 0 2.5-.9 2.5-2.5s-1-2.5-2.5-2.5h-2.6v5h2.6zm7.5-5h-1.1v-1h6.6c.7 0 1 .3 1 1v1.2h-1.1v-.8c0-.2-.1-.4-.4-.4h-4v4.2h4.3v1h-4.3v3.9c0 .2.1.4.4.4h4.1c.2 0 .4-.1.4-.4v-.8h1.1v1.2c0 .7-.3 1-1 1h-5c-.7 0-1-.3-1-1v-9.5zm13.5 0h-2.9c-.2 0-.4.1-.4.4v.8h-1.1v-1.2c0-.7.2-.9.9-.9h7.8c.7 0 .9.2.9.9v1.2h-1.1v-.8c0-.3-.1-.4-.4-.4h-2.9v10.6h-1.2v-10.6zm-92.3 20.1c0-.2-.1-.4-.4-.4h-.7v-1h1.2c.7 0 1 .3 1 1v3.7s.7-1.6 2.8-1.6c2.2 0 3.6 1.8 3.6 4.3 0 2.6-1.6 4.3-3.7 4.3-2 0-2.7-1.6-2.7-1.6v1.4h-1.1v-10.1zm3.7 9.5c1.5 0 2.7-1.2 2.7-3.3 0-2-1.1-3.3-2.6-3.3-1.4 0-2.7 1-2.7 3.3 0 1.6.8 3.3 2.6 3.3zm7.7-6.2c0-.2-.1-.4-.4-.4h-.7v-1h1.2c.7 0 1 .3 1 1v5.9c0 .2.1.4.4.4h.7v1h-1.2c-.7 0-1-.3-1-1v-5.9zm0-4.6h1.1v1.4h-1.1v-1.4zm9.3 3.1c2.4 0 4.4 1.8 4.4 4.3s-2 4.4-4.4 4.4c-2.4 0-4.4-1.9-4.4-4.4 0-2.5 2-4.3 4.4-4.3zm0 7.6c1.8 0 3.2-1.4 3.2-3.4 0-1.9-1.4-3.3-3.2-3.3-1.8 0-3.2 1.4-3.2 3.3 0 2 1.4 3.4 3.2 3.4zm18.5-4.3h.5v-.1c0-1.7-.6-2.3-2.1-2.3-.4 0-1.6.1-1.6.7v.5h-1.1v-.7c0-1.2 2-1.4 2.7-1.4 2.6 0 3.2 1.4 3.2 3.2v4c0 .2.1.4.4.4h.7v1h-1.2c-.7 0-1-.3-1-1v-.6s-.7 1.8-2.8 1.8c-1.4 0-2.8-.8-2.8-2.5.1-2.9 3.7-3 5.1-3zm-2.1 4.4c1.6 0 2.5-1.6 2.5-3.1v-.4h-.5c-1.3 0-3.9 0-3.9 1.9.1.8.7 1.6 1.9 1.6zm8.2-9.5c0-.2-.1-.4-.4-.4h-.7v-1h1.2c.7 0 1 .3 1 1v9.2c0 .2.1.4.4.4h.7v1h-1.2c-.7 0-1-.3-1-1v-9.2zm16.7.8c.3-.6.6-1.1.6-1.1h-5.1c-.2 0-.4.1-.4.4v.8h-1.1v-1.2c0-.7.3-1 1-1h6.8v.8l-5.7 10.8h-1.3l5.2-9.5zm5.3 7.2s.9 1.4 2.7 1.4c1.6 0 2.9-1.2 2.9-2.7 0-1.6-1.3-2.7-3-2.7-1.3 0-2.2.6-2.2.6l-.6-.2.5-4.7c.1-.7.3-1 1-1h3.8c.7 0 1 .3 1 1v1.2h-1.1v-.8c0-.2-.1-.4-.4-.4h-2.9c-.2 0-.3.1-.4.4l-.3 2.6c0 .4-.1.7-.1.7s.7-.4 1.7-.4c2.4 0 4.1 1.7 4.1 3.8 0 2.1-1.7 3.8-4.1 3.8-2.3 0-3.4-1.6-3.4-1.6l.8-1zm10.4-7.2c0-1.3 1-2.3 2.3-2.3s2.3 1 2.3 2.3c0 1.3-1 2.3-2.3 2.3s-2.3-1.1-2.3-2.3zm9-2.1h1.2l-8.8 11.6h-1.2l8.8-11.6zm-5.3 2.1c0-.7-.6-1.4-1.4-1.4-.8 0-1.3.6-1.3 1.4 0 .8.6 1.4 1.3 1.4.8-.1 1.4-.7 1.4-1.4zm4.2 5.1c1.3 0 2.3 1 2.3 2.3 0 1.3-1 2.3-2.3 2.3s-2.3-1-2.3-2.3c0-1.3 1-2.3 2.3-2.3zm0 3.6c.8 0 1.4-.6 1.4-1.4 0-.7-.6-1.4-1.4-1.4-.8 0-1.3.6-1.3 1.4 0 .8.6 1.4 1.3 1.4z"/><path class="st3" d="M646.3 528.7s3 3.5 7.6 3.5c3.4 0 6.5-2.6 6.5-6.3 0-3.9-3.4-6.1-7-6.1h-2l-.7-1.7 7.1-8.6c.7-.9 1.5-1.6 1.5-1.6v-.1s-.8.1-2.3.1h-7.5c-.6 0-.9.3-.9.9v1.9h-2.7v-2.7c0-1.8.7-2.5 2.4-2.5h14.7v1.9l-8.5 10c3.6.2 8.9 2.3 8.9 8.5 0 4.9-4.1 9-9.6 9-5.7 0-9.3-4-9.3-4l1.8-2.2zm25.5-8.8c0-8.3 2.4-14.9 10-14.9 7.5 0 10 6.6 10 14.9 0 8.4-2.5 15-10 15-7.6 0-10-6.6-10-15zm17 0c0-6.9-1.6-12.3-7-12.3-5.5 0-7 5.4-7 12.3s1.6 12.3 7 12.3 7-5.4 7-12.3zm12-9.2c0-3.1 2.6-5.7 5.8-5.7 3.2 0 5.8 2.6 5.8 5.7 0 3.2-2.6 5.7-5.8 5.7-3.2 0-5.8-2.5-5.8-5.7zm22.3-5.2h2.9l-22 28.9h-3l22.1-28.9zm-13.1 5.2c0-1.9-1.5-3.4-3.4-3.4s-3.3 1.6-3.3 3.4c0 1.9 1.4 3.4 3.3 3.4s3.4-1.5 3.4-3.4zm10.5 12.7c3.2 0 5.8 2.6 5.8 5.8 0 3.1-2.6 5.7-5.8 5.7-3.2 0-5.8-2.6-5.8-5.7 0-3.2 2.6-5.8 5.8-5.8zm0 9.2c1.9 0 3.4-1.5 3.4-3.4s-1.5-3.4-3.4-3.4-3.3 1.6-3.3 3.4c0 1.9 1.4 3.4 3.3 3.4z"/><path class="st4" d="M641.7 543.6h-2.9c-.2 0-.4.1-.4.4v.8h-1.1v-1.2c0-.7.2-.9.9-.9h7.8c.7 0 .9.2.9.9v1.2h-1.1v-.8c0-.3-.1-.4-.4-.4h-2.9v10.6h-1.2v-10.6zm10.9 2.1c2.3 0 3.5 1.8 3.5 3.8v.6h-6.4c0 2.1 1.5 3.3 3.2 3.3 1.5 0 2.5-1 2.5-1l.5.8s-1.2 1.2-3.1 1.2c-2.5 0-4.3-1.8-4.3-4.3 0-2.8 1.8-4.4 4.1-4.4zm2.3 3.5c-.1-1.7-1.1-2.6-2.3-2.6-1.4 0-2.6.9-2.9 2.6h5.2zm8.6-3.5c.9 0 2.9.4 2.9 1.8v.7h-1.1v-.5c0-.7-1.2-1-1.9-1-1.8 0-3.2 1.3-3.2 3.3 0 2 1.5 3.3 3.2 3.3 1.7 0 2.7-1.2 2.7-1.2l.5.8s-1.1 1.4-3.2 1.4c-2.5 0-4.3-1.8-4.3-4.3.1-2.5 1.9-4.3 4.4-4.3zm6.8 1.5c0-.2-.1-.4-.4-.4h-.7v-1h1.2c.7 0 1 .3 1 .9v1c.3-.8 1.4-2.1 3.3-2.1 2.1 0 2.8 1.2 2.8 3.2v3.9c0 .2.1.4.4.4h.7v1h-1.2c-.7 0-1-.3-1-1v-4c0-1.3-.2-2.5-1.8-2.5-1.4 0-2.6 1-3 2.3-.1.3-.1.7-.1 1.1v4h-1.1v-6.8zm15.2-1.5c2.4 0 4.4 1.8 4.4 4.3s-2 4.4-4.4 4.4c-2.4 0-4.4-1.9-4.4-4.4.1-2.5 2-4.3 4.4-4.3zm0 7.7c1.8 0 3.2-1.4 3.2-3.4 0-1.9-1.4-3.3-3.2-3.3-1.8 0-3.2 1.4-3.2 3.3s1.5 3.4 3.2 3.4zm8-9.5c0-.2-.1-.4-.4-.4h-.7v-1h1.2c.7 0 1 .3 1 1v9.2c0 .2.1.4.4.4h.7v1h-1.2c-.7 0-1-.3-1-1v-9.2zm9.3 1.8c2.4 0 4.4 1.8 4.4 4.3s-2 4.4-4.4 4.4c-2.4 0-4.4-1.9-4.4-4.4 0-2.5 2-4.3 4.4-4.3zm0 7.7c1.8 0 3.2-1.4 3.2-3.4 0-1.9-1.4-3.3-3.2-3.3-1.8 0-3.2 1.4-3.2 3.3s1.4 3.4 3.2 3.4zm10.9-7.7c2.2 0 2.8 1.4 2.8 1.4v-.3c0-.6.3-.9.9-.9h1.2v1h-.7c-.2 0-.4.1-.4.4v6.8c0 2.6-1.9 3.7-4 3.7-.9 0-1.9-.2-2.7-.7l.4-.9s1 .6 2.2.6c1.6 0 2.9-.8 2.9-2.6v-1.3c-.5.9-1.3 1.4-2.6 1.4-2.2 0-3.7-1.8-3.7-4.3.2-2.6 1.5-4.3 3.7-4.3zm2.8 4.2c0-2.4-1.2-3.2-2.6-3.2-1.6 0-2.6 1.2-2.6 3.1 0 2 1.1 3.3 2.7 3.3 1.3 0 2.5-.8 2.5-3.2zm5.7-2.7c0-.2-.1-.4-.4-.4h-.7v-1h1.2c.7 0 1 .3 1 1v5.9c0 .2.1.4.4.4h.7v1h-1.2c-.7 0-1-.3-1-1v-5.9zm-.1-4.6h1.1v1.4h-1.1v-1.4zm10.1 6.5h.5v-.1c0-1.7-.6-2.3-2.1-2.3-.4 0-1.6.1-1.6.7v.5h-1.1v-.8c0-1.2 2-1.4 2.7-1.4 2.6 0 3.2 1.4 3.2 3.2v4c0 .2.1.4.4.4h.7v1h-1.1c-.7 0-1-.3-1-1v-.6s-.7 1.8-2.8 1.8c-1.4 0-2.8-.8-2.8-2.5-.1-2.8 3.5-2.9 5-2.9zm-2.1 4.3c1.6 0 2.5-1.6 2.5-3.1v-.3h-.5c-1.3 0-3.9 0-3.9 1.9 0 .7.6 1.5 1.9 1.5zm-72 15.4h.5v-.1c0-1.7-.6-2.3-2.1-2.3-.4 0-1.6.1-1.6.7v.5h-1.1v-.8c0-1.2 2-1.4 2.7-1.4 2.6 0 3.2 1.4 3.2 3.2v4c0 .2.1.4.4.4h.7v1h-1.1c-.7 0-1-.3-1-1v-.6s-.7 1.8-2.8 1.8c-1.4 0-2.8-.8-2.8-2.5-.1-2.8 3.5-2.9 5-2.9zm-2.1 4.4c1.6 0 2.5-1.6 2.5-3.1v-.4h-.5c-1.3 0-3.9 0-3.9 1.9.1.8.7 1.6 1.9 1.6zm8.2-6.6h-1.1v-.9h1.1v-2.3h1.1v2.3h2.1v.9h-2.1v4.2c0 1.9 1.2 2.2 1.9 2.2h.4v1h-.5c-1 0-2.9-.3-2.9-3.1v-4.3zm7.2 0h-1.1v-.9h1.1v-2.3h1.1v2.3h2.1v.9h-2.1v4.2c0 1.9 1.2 2.2 1.9 2.2h.4v1h-.5c-1 0-2.9-.3-2.9-3.1v-4.3zm7 .4c0-.2-.1-.4-.4-.4h-.7v-1h1.2c.7 0 1 .3 1 1v4c0 1.3.2 2.5 1.8 2.5 1.9 0 3-1.7 3-3.5v-4h1.1v7c0 .2.1.4.4.4h.7v1h-1.1c-.7 0-1-.3-1-.9v-1c-.3.8-1.4 2.1-3.2 2.1-2 0-2.8-1.1-2.8-3.2v-4zm15.9 1.8h.5v-.1c0-1.7-.6-2.3-2.1-2.3-.4 0-1.6.1-1.6.7v.5h-1.1v-.8c0-1.2 2-1.4 2.7-1.4 2.6 0 3.2 1.4 3.2 3.2v4c0 .2.1.4.4.4h.7v1h-1.1c-.7 0-1-.3-1-1v-.6s-.7 1.8-2.8 1.8c-1.4 0-2.8-.8-2.8-2.5 0-2.8 3.6-2.9 5-2.9zm-2 4.4c1.6 0 2.5-1.6 2.5-3.1v-.4h-.5c-1.3 0-3.9 0-3.9 1.9 0 .8.6 1.6 1.9 1.6zm8.1-9.5c0-.2-.1-.4-.4-.4h-.7v-1h1.2c.7 0 1 .3 1 1v9.2c0 .2.1.4.4.4h.7v1h-1.2c-.7 0-1-.3-1-1v-9.2zm9 1.8c2.3 0 3.5 1.8 3.5 3.8v.6h-6.4c0 2.1 1.5 3.3 3.2 3.3 1.5 0 2.5-1 2.5-1l.5.8s-1.2 1.2-3.1 1.2c-2.5 0-4.3-1.8-4.3-4.3 0-2.8 1.9-4.4 4.1-4.4zm2.3 3.4c-.1-1.7-1.1-2.6-2.3-2.6-1.4 0-2.6.9-2.9 2.6h5.2zm5.3-3.3h1.3v1.3h-1.3v-1.3zm0 7h1.3v1.3h-1.3v-1.3zm-92.3 10.5h-1.1v-1h4.9c2.1 0 3.6 1.4 3.6 3.5 0 2.2-1.5 3.5-3.6 3.5h-2.7v4.5h-1.2v-10.5zm3.7 5c1.5 0 2.5-.9 2.5-2.5s-1-2.5-2.5-2.5h-2.5v5h2.5zm7.5-5h-1.1v-1h6.6c.7 0 1 .3 1 1v1.2h-1.1v-.8c0-.2-.1-.4-.4-.4h-4v4.2h4.3v1h-4.2v3.9c0 .2.1.4.4.4h4.1c.2 0 .4-.1.4-.4v-.8h1.1v1.2c0 .7-.3 1-1 1h-5c-.7 0-1-.3-1-1v-9.5zm13.5 0h-2.9c-.2 0-.4.1-.4.4v.8h-1.1v-1.2c0-.7.2-.9.9-.9h7.8c.7 0 .9.2.9.9v1.2h-1.1v-.8c0-.3-.1-.4-.4-.4h-2.9v10.6h-1.2v-10.6zm14.5 3.7c0-.2-.1-.4-.4-.4h-.7v-1h1.2c.7 0 1 .3 1 .9v1.2c.4-1.3 1.3-2.2 2.6-2.2h.4v1.1h-.4c-1.2 0-2 .9-2.4 2.1-.2.5-.2 1.1-.2 1.6v3.5h-1.1v-6.8zm10.6-1.6c2.3 0 3.5 1.8 3.5 3.8v.6h-6.4c0 2.1 1.5 3.3 3.2 3.3 1.5 0 2.5-1 2.5-1l.5.8s-1.2 1.2-3.1 1.2c-2.5 0-4.3-1.8-4.3-4.3 0-2.7 1.9-4.4 4.1-4.4zm2.3 3.5c-.1-1.7-1.1-2.6-2.3-2.6-1.4 0-2.6.9-2.9 2.6h5.2zm9.4-.1h.5v-.1c0-1.7-.6-2.3-2.1-2.3-.4 0-1.6.1-1.6.7v.5h-1.1v-.8c0-1.2 2-1.4 2.7-1.4 2.6 0 3.2 1.4 3.2 3.2v4c0 .2.1.4.4.4h.7v1h-1.1c-.7 0-1-.3-1-1v-.6s-.7 1.8-2.8 1.8c-1.4 0-2.8-.8-2.8-2.5-.1-2.8 3.5-2.9 5-2.9zm-2.1 4.3c1.6 0 2.5-1.6 2.5-3.1v-.4h-.5c-1.3 0-3.9 0-3.9 1.9 0 .9.7 1.6 1.9 1.6zm8.1-9.4c0-.2-.1-.4-.4-.4h-.7v-1h1.2c.7 0 1 .3 1 1v9.2c0 .2.1.4.4.4h.7v1h-1.2c-.7 0-1-.3-1-1v-9.2zm5.8 3.3c0-.2-.1-.4-.4-.4h-.7v-1h1.2c.7 0 1 .3 1 1v5.9c0 .2.1.4.4.4h.7v1h-1.2c-.7 0-1-.3-1-1v-5.9zm0-4.7h1.1v1.4h-1.1v-1.4zm4.9 10.9l4.7-5.8c.3-.4.7-.8.7-.8h-3.8c-.2 0-.4.1-.4.4v.6h-1.1v-1c0-.7.3-1 1-1h5.8v.7l-4.6 5.8c-.3.4-.7.8-.7.8h4.2c.2 0 .4-.1.4-.4v-.6h1.1v1c0 .7-.3 1-1 1h-6.1v-.7zm9.9 0l4.7-5.8c.3-.4.7-.8.7-.8h-3.8c-.2 0-.4.1-.4.4v.6h-1.1v-1c0-.7.3-1 1-1h5.8v.7l-4.6 5.8c-.3.4-.7.8-.7.8h4.2c.2 0 .4-.1.4-.4v-.6h1.1v1c0 .7-.3 1-1 1h-6.1v-.7zm14.9-4.4h.5v-.1c0-1.7-.6-2.3-2.1-2.3-.4 0-1.6.1-1.6.7v.5h-1.1v-.8c0-1.2 2-1.4 2.7-1.4 2.6 0 3.2 1.4 3.2 3.2v4c0 .2.1.4.4.4h.7v1h-1.1c-.7 0-1-.3-1-1v-.6s-.7 1.8-2.8 1.8c-1.4 0-2.8-.8-2.8-2.5 0-2.8 3.6-2.9 5-2.9zm-2 4.3c1.6 0 2.5-1.6 2.5-3.1v-.4h-.5c-1.3 0-3.9 0-3.9 1.9 0 .9.6 1.6 1.9 1.6zm8.2-6.5h-1.1v-.9h1.1v-2.3h1.1v2.3h2.1v.9h-2.1v4.2c0 1.9 1.2 2.2 1.9 2.2h.4v1h-.5c-1 0-2.9-.3-2.9-3.1v-4.3zm10.5-1.2c2.4 0 4.4 1.8 4.4 4.3s-2 4.4-4.4 4.4c-2.4 0-4.4-1.9-4.4-4.4 0-2.4 2-4.3 4.4-4.3zm0 7.7c1.8 0 3.2-1.4 3.2-3.4 0-1.9-1.4-3.3-3.2-3.3-1.8 0-3.2 1.4-3.2 3.3s1.4 3.4 3.2 3.4zm-144.3 12.1c.9 0 2.9.4 2.9 1.8v.7h-1v-.5c0-.7-1.2-1-1.9-1-1.8 0-3.2 1.3-3.2 3.3 0 2 1.5 3.3 3.2 3.3 1.7 0 2.7-1.2 2.7-1.2l.5.8s-1.1 1.4-3.2 1.4c-2.5 0-4.3-1.8-4.3-4.3s1.9-4.3 4.3-4.3zm10.4 0c2.4 0 4.4 1.8 4.4 4.3s-2 4.4-4.4 4.4c-2.4 0-4.4-1.9-4.4-4.4 0-2.5 2-4.3 4.4-4.3zm0 7.7c1.8 0 3.2-1.4 3.2-3.4 0-1.9-1.4-3.3-3.2-3.3-1.8 0-3.2 1.4-3.2 3.3s1.4 3.4 3.2 3.4zm8.1-6.2c0-.2-.1-.4-.4-.4h-.7v-1h1.2c.7 0 1 .3 1 .9v1c.3-.8 1.4-2.1 3.3-2.1 2.1 0 2.8 1.2 2.8 3.2v3.9c0 .2.1.4.4.4h.7v1h-1.2c-.7 0-1-.3-1-1v-4c0-1.3-.2-2.5-1.8-2.5-1.4 0-2.6 1-3 2.3-.1.3-.1.7-.1 1.1v4h-1.1v-6.8zm17.9 0c0-.2-.1-.4-.4-.4h-.7v-1h1.2c.7 0 1 .3 1 1v5.9c0 .2.1.4.4.4h.7v1h-1.2c-.7 0-1-.3-1-1v-5.9zm-.1-4.6h1.1v1.4h-1.1v-1.4zm5.7 1.3c0-.2-.1-.4-.4-.4h-.7v-1h1.2c.7 0 1 .3 1 1v9.2c0 .2.1.4.4.4h.7v1h-1.2c-.7 0-1-.3-1-1v-9.2zm11.6 8s1.2 1.4 3 1.4c1.4 0 2.6-1 2.6-2.5 0-1.6-1.4-2.4-2.8-2.4h-.8l-.3-.7 2.9-3.4c.3-.4.6-.6.6-.6h-3.9c-.2 0-.4.1-.4.4v.8h-1.1v-1.2c0-.7.3-1 1-1h5.9v.8l-3.4 4c1.5.1 3.6.9 3.6 3.4 0 2-1.6 3.6-3.8 3.6-2.3 0-3.7-1.6-3.7-1.6l.6-1zm10.2-3.5c0-3.3 1-6 4-6s4 2.7 4 6c0 3.4-1 6-4 6-3.1 0-4-2.7-4-6zm6.8 0c0-2.8-.6-4.9-2.8-4.9-2.2 0-2.8 2.2-2.8 4.9 0 2.8.6 4.9 2.8 4.9 2.1 0 2.8-2.2 2.8-4.9zm4.8-3.7c0-1.3 1-2.3 2.3-2.3s2.3 1 2.3 2.3c0 1.3-1 2.3-2.3 2.3s-2.3-1-2.3-2.3zm8.9-2.1h1.2l-8.8 11.6h-1.2l8.8-11.6zm-5.3 2.1c0-.7-.6-1.4-1.4-1.4-.8 0-1.3.6-1.3 1.4 0 .8.6 1.4 1.3 1.4.8-.1 1.4-.7 1.4-1.4zm4.2 5.1c1.3 0 2.3 1 2.3 2.3 0 1.3-1 2.3-2.3 2.3s-2.3-1-2.3-2.3c0-1.3 1.1-2.3 2.3-2.3zm0 3.6c.8 0 1.4-.6 1.4-1.4 0-.7-.6-1.4-1.4-1.4-.8 0-1.3.6-1.3 1.4 0 .8.6 1.4 1.3 1.4zm15.6-7.7c2 0 2.7 1.5 2.7 1.5v-3.3c0-.2-.1-.4-.4-.4h-.7v-1h1.2c.7 0 1 .3 1 1v9.2c0 .2.1.4.4.4h.7v1h-1.2c-.7 0-1-.3-1-.9v-.5s-.7 1.6-2.9 1.6-3.6-1.8-3.6-4.3c.1-2.6 1.6-4.3 3.8-4.3zm2.7 4.3c0-1.7-.9-3.3-2.6-3.3-1.5 0-2.7 1.2-2.7 3.3 0 2 1.1 3.3 2.6 3.3 1.4.1 2.7-.9 2.7-3.3zm5.7-2.8c0-.2-.1-.4-.4-.4h-.7v-1h1.2c.7 0 1 .3 1 1v5.9c0 .2.1.4.4.4h.7v1h-1.2c-.7 0-1-.3-1-1v-5.9zm0-4.6h1.1v1.4h-1.1v-1.4zm11.8 4.6c0-.2-.1-.4-.4-.4h-.7v-1h1.2c.7 0 1 .3 1 .9v1.2c.4-1.3 1.3-2.2 2.6-2.2h.4v1.1h-.4c-1.2 0-2 .9-2.4 2.1-.2.5-.2 1.1-.2 1.6v3.5h-1.1v-6.8zm7.7 0c0-.2-.1-.4-.4-.4h-.7v-1h1.2c.7 0 1 .3 1 1v5.9c0 .2.1.4.4.4h.7v1h-1.2c-.7 0-1-.3-1-1v-5.9zm0-4.6h1.1v1.4h-1.1v-1.4zm5.4 9.5s.9 1.3 2.6 1.3c.9 0 1.7-.4 1.7-1.3 0-1.8-4.6-1.5-4.6-4.2 0-1.5 1.3-2.2 2.9-2.2.8 0 2.5.3 2.5 1.5v.7h-1.1v-.4c0-.6-.9-.8-1.4-.8-1.2 0-1.8.4-1.8 1.2 0 1.9 4.6 1.4 4.6 4.2 0 1.4-1.3 2.3-2.9 2.3-2.2 0-3.2-1.5-3.2-1.5l.7-.8zm12.8-6.4c2.4 0 4.4 1.8 4.4 4.3s-2 4.4-4.4 4.4c-2.4 0-4.4-1.9-4.4-4.4.1-2.5 2-4.3 4.4-4.3zm0 7.7c1.8 0 3.2-1.4 3.2-3.4 0-1.9-1.4-3.3-3.2-3.3-1.8 0-3.2 1.4-3.2 3.3s1.5 3.4 3.2 3.4zm8.1-6.2c0-.2-.1-.4-.4-.4h-.7v-1h1.2c.7 0 1 .3 1 .9v1.2c.4-1.3 1.3-2.2 2.6-2.2h.4v1.1h-.4c-1.2 0-2 .9-2.4 2.1-.2.5-.2 1.1-.2 1.6v3.5h-1.1v-6.8zm7.3 4.9s.9 1.3 2.6 1.3c.9 0 1.7-.4 1.7-1.3 0-1.8-4.6-1.5-4.6-4.2 0-1.5 1.3-2.2 2.9-2.2.8 0 2.5.3 2.5 1.5v.7h-1.1v-.4c0-.6-.9-.8-1.4-.8-1.2 0-1.8.4-1.8 1.2 0 1.9 4.6 1.4 4.6 4.2 0 1.4-1.3 2.3-2.9 2.3-2.2 0-3.2-1.5-3.2-1.5l.7-.8zm12.6-6.4c2.3 0 3.5 1.8 3.5 3.8v.6h-6.5c0 2.1 1.5 3.3 3.2 3.3 1.5 0 2.5-1 2.5-1l.5.8s-1.2 1.2-3.1 1.2c-2.5 0-4.3-1.8-4.3-4.3.1-2.8 1.9-4.4 4.2-4.4zm2.3 3.5c-.1-1.7-1.1-2.6-2.3-2.6-1.4 0-2.6.9-2.9 2.6h5.2zm-135.5 17.8c0-.2-.1-.4-.4-.4h-.7v-1h1.2c.7 0 1 .3 1 .9v1.2c.4-1.3 1.3-2.2 2.6-2.2h.4v1.1h-.4c-1.2 0-2 .9-2.4 2.1-.2.5-.2 1.1-.2 1.6v3.5h-1.1v-6.8zm7.7 0c0-.2-.1-.4-.4-.4h-.7v-1h1.2c.7 0 1 .3 1 1v5.9c0 .2.1.4.4.4h.7v1h-1.2c-.7 0-1-.3-1-1v-5.9zm0-4.6h1.1v1.4h-1.1v-1.4zm5.7 4.6c0-.2-.1-.4-.4-.4h-.7v-1h1.2c.7 0 1 .3 1 .9v1c.3-.8 1.4-2.1 3.3-2.1 2.1 0 2.8 1.2 2.8 3.2v3.9c0 .2.1.4.4.4h.7v1h-1.2c-.7 0-1-.3-1-1v-4c0-1.3-.2-2.5-1.8-2.5-1.4 0-2.6 1-3 2.3-.1.3-.1.7-.1 1.1v4h-1.1v-6.8zm11.7 0c0-.2-.1-.4-.4-.4h-.7v-1h1.2c.7 0 1 .3 1 .9v1c.3-.8 1.4-2.1 3.3-2.1 2.1 0 2.8 1.2 2.8 3.2v3.9c0 .2.1.4.4.4h.7v1h-1.2c-.7 0-1-.3-1-1v-4c0-1.3-.2-2.5-1.8-2.5-1.4 0-2.6 1-3 2.3-.1.3-.1.7-.1 1.1v4h-1.1v-6.8zm15.2-1.5c2.4 0 4.4 1.8 4.4 4.3s-2 4.4-4.4 4.4c-2.4 0-4.4-1.9-4.4-4.4 0-2.5 2-4.3 4.4-4.3zm0 7.6c1.8 0 3.2-1.4 3.2-3.4 0-1.9-1.4-3.3-3.2-3.3-1.8 0-3.2 1.4-3.2 3.3 0 2 1.5 3.4 3.2 3.4zm7.5-6.1c-.1-.3-.3-.4-.6-.4h-.1v-1h.4c.8 0 1 .2 1.3.9l2 5.2c.1.4.3 1 .3 1s.1-.6.3-1l2-5.2c.3-.7.5-.9 1.3-.9h.4v1h-.1c-.3 0-.5.1-.6.4l-2.7 6.9h-1.2l-2.7-6.9zm14.9 1.8h.5v-.1c0-1.7-.6-2.3-2.1-2.3-.4 0-1.6.1-1.6.7v.5h-1.1v-.8c0-1.2 2-1.4 2.7-1.4 2.6 0 3.2 1.4 3.2 3.2v4c0 .2.1.4.4.4h.7v1h-1.2c-.7 0-1-.3-1-1v-.6s-.7 1.8-2.8 1.8c-1.4 0-2.8-.8-2.8-2.5 0-2.8 3.6-2.9 5.1-2.9zm-2.1 4.4c1.6 0 2.5-1.6 2.5-3.1v-.4h-.5c-1.3 0-3.9 0-3.9 1.9 0 .8.7 1.6 1.9 1.6zm8.1-9.5c0-.2-.1-.4-.4-.4h-.7v-1h1.2c.7 0 1 .3 1 1v3.7s.7-1.6 2.8-1.6c2.2 0 3.6 1.8 3.6 4.3 0 2.6-1.6 4.3-3.7 4.3-2 0-2.7-1.6-2.7-1.6v1.4h-1.1v-10.1zm3.7 9.4c1.5 0 2.7-1.2 2.7-3.3 0-2-1.1-3.3-2.6-3.3-1.4 0-2.7 1-2.7 3.3 0 1.7.8 3.3 2.6 3.3zm7.7-6.1c0-.2-.1-.4-.4-.4h-.7v-1h1.2c.7 0 1 .3 1 1v5.9c0 .2.1.4.4.4h.7v1h-1.2c-.7 0-1-.3-1-1v-5.9zm-.1-4.6h1.1v1.4h-1.1v-1.4zm5.8 1.3c0-.2-.1-.4-.4-.4h-.7v-1h1.2c.7 0 1 .3 1 1v9.2c0 .2.1.4.4.4h.7v1h-1.2c-.7 0-1-.3-1-1v-9.2zm5.7 3.3c0-.2-.1-.4-.4-.4h-.7v-1h1.2c.7 0 1 .3 1 1v5.9c0 .2.1.4.4.4h.7v1h-1.2c-.7 0-1-.3-1-1v-5.9zm0-4.6h1.1v1.4h-1.1v-1.4z"/><path class="st3" d="M121.9 133.9c0-3-2.2-5.3-5.8-5.3-2.8 0-5 1.5-5 3.1v1.3h-2.7v-2.1c0-3.6 4.9-5 7.8-5 5.4 0 8.6 3.6 8.6 8 0 10-15 9.7-15 17.6 0 .6.3.8.9.8h11.9c.6 0 .9-.3.9-.9v-1.9h2.6v2.8c0 1.7-.7 2.5-2.5 2.5h-14.2c-1.9 0-2.5-.8-2.5-2.8-.1-10.6 15-9.7 15-18.1zm12.3 6.6c0-8.2 2.4-14.7 9.8-14.7s9.8 6.5 9.8 14.7-2.4 14.7-9.8 14.7-9.8-6.4-9.8-14.7zm16.6 0c0-6.7-1.5-12-6.9-12s-6.9 5.3-6.9 12c0 6.8 1.5 12.1 6.9 12.1s6.9-5.3 6.9-12.1zm25.6-6.6c0-3-2.2-5.3-5.8-5.3-2.8 0-5 1.5-5 3.1v1.3h-2.7v-2.1c0-3.6 4.9-5 7.8-5 5.4 0 8.6 3.6 8.6 8 0 10-15 9.7-15 17.6 0 .6.3.8.9.8h11.9c.6 0 .9-.3.9-.9v-1.9h2.6v2.8c0 1.7-.7 2.5-2.5 2.5h-14.2c-1.9 0-2.5-.8-2.5-2.8 0-10.6 15-9.7 15-18.1zm26.8 0c0-3-2.2-5.3-5.8-5.3-2.8 0-5 1.5-5 3.1v1.3h-2.7v-2.1c0-3.6 4.9-5 7.8-5 5.4 0 8.6 3.6 8.6 8 0 10-15 9.7-15 17.6 0 .6.3.8.9.8h11.9c.6 0 .9-.3.9-.9v-1.9h2.6v2.8c0 1.7-.7 2.5-2.5 2.5h-14.2c-1.9 0-2.5-.8-2.5-2.8 0-10.6 15-9.7 15-18.1zm-81.8 214.5c0-3-2.2-5.3-5.8-5.3-2.8 0-5 1.5-5 3.1v1.3h-2.7v-2.1c0-3.6 4.9-5 7.8-5 5.4 0 8.6 3.6 8.6 8 0 10-15 9.7-15 17.6 0 .6.3.8.9.8h11.9c.6 0 .9-.3.9-.9v-1.9h2.6v2.8c0 1.7-.7 2.5-2.5 2.5h-14.1c-1.9 0-2.5-.8-2.5-2.8-.1-10.5 14.9-9.7 14.9-18.1zm12.3 6.7c0-8.2 2.4-14.7 9.8-14.7s9.8 6.5 9.8 14.7-2.4 14.7-9.8 14.7-9.8-6.5-9.8-14.7zm16.7 0c0-6.7-1.5-12-6.9-12s-6.9 5.3-6.9 12c0 6.8 1.5 12.1 6.9 12.1s6.9-5.3 6.9-12.1zm25.6-6.7c0-3-2.2-5.3-5.8-5.3-2.8 0-5 1.5-5 3.1v1.3h-2.7v-2.1c0-3.6 4.9-5 7.8-5 5.4 0 8.6 3.6 8.6 8 0 10-15 9.7-15 17.6 0 .6.3.8.9.8h11.9c.6 0 .9-.3.9-.9v-1.9h2.6v2.8c0 1.7-.7 2.5-2.5 2.5h-14.2c-1.9 0-2.5-.8-2.5-2.8 0-10.5 15-9.7 15-18.1zm12.3 6.7c0-8.2 2.4-14.7 9.8-14.7s9.8 6.5 9.8 14.7-2.4 14.7-9.8 14.7-9.8-6.5-9.8-14.7zm16.6 0c0-6.7-1.5-12-6.9-12s-6.9 5.3-6.9 12c0 6.8 1.5 12.1 6.9 12.1s6.9-5.3 6.9-12.1zm-80.7 207.4c0-3-2.2-5.3-5.8-5.3-2.8 0-5 1.5-5 3.1v1.3h-2.7v-2.1c0-3.6 4.9-5 7.8-5 5.4 0 8.6 3.6 8.6 8 0 10-15 9.7-15 17.6 0 .6.3.8.9.8h11.9c.6 0 .9-.3.9-.9v-1.9h2.6v2.8c0 1.7-.7 2.5-2.5 2.5h-14.2c-1.9 0-2.5-.8-2.5-2.8 0-10.5 15-9.7 15-18.1zm12.3 6.7c0-8.2 2.4-14.7 9.8-14.7s9.8 6.5 9.8 14.7-2.4 14.7-9.8 14.7-9.8-6.5-9.8-14.7zm16.7 0c0-6.7-1.5-12-6.9-12s-6.9 5.3-6.9 12c0 6.8 1.5 12.1 6.9 12.1s6.9-5.3 6.9-12.1zm11.2 11.7h6.3v-22.5h-.1s-.3.6-1.4 1.7l-3 3-1.8-1.8 6.4-6.4h2.7v25.9h6.2v2.5h-15.4v-2.4zm35.9-20.8c.8-1.5 1.6-2.6 1.6-2.6v-.1s-.7.1-2.1.1h-10.2c-.6 0-.9.3-.9.9v1.9h-2.7v-2.8c0-1.7.7-2.5 2.4-2.5h16.8v1.9l-14.2 26.5h-3.2l12.5-23.3z"/></svg>