<svg id="Livello_1" xmlns="http://www.w3.org/2000/svg" viewBox="0 0 459.7 325.3"><style>.st0{fill-rule:evenodd;clip-rule:evenodd;fill:#4e5594}.st1,.st2{fill:#d8b200}.st2{fill-rule:evenodd;clip-rule:evenodd}.st3{fill:#4e5594}.st4{fill:#fff}</style><path class="st0" d="M321.8 58.3c54.7 0 99.1 44.4 99.1 99.1s-44.4 99.1-99.1 99.1c-54.7 0-99.1-44.4-99.1-99.1s44.3-99.1 99.1-99.1z"/><path class="st1" d="M338.5 164.1l4.9 8.2-3.8 7.1h-9v1.7l-5.3-4.4 5.3-4.6v1.7h8.2V171h-5.3v-5.1l-12.6 11 12.6 10.5v-5h7.9l5.3-10.1-5.7-9.6-2.5 1.4zm-33.2 10.1l4.5-7.8-1.5-.9 6.4-2.4 1.4 6.9-1.4-.8-4.1 7.1 2.5 1.4 2.7-4.6 4.4 2.6-3.2-16.4-15.3 5.6 4.3 2.5-3.9 6.8 5.6 9.8h12.7v-2.9h-11l-4.1-6.9zm31.3-9.1l2.8-16.1-4.4 2.5-3.8-5.9h-11.8l-5.2 9.2 2.5 1.4 4.4-7.7h8.5l4.4 6.9 1.5-.8-1.2 6.7-6.6-2.3 1.4-.8-4.1-7.1-2.5 1.4 2.7 4.6-4.4 2.6 15.8 5.4zm17.3 16.3v-.6c-.5-6.6-.4-11.8-.2-16.8.1-6.1.3-11.8-.7-19.1-.5-3.3-.2-9 .8-16.6.7-5.2-.2-9.9-.8-12.2-.4-1.5-1.7-2.5-3.2-2.5H341c-1 0-1.9.4-2.6 1.2-.6.7-.9 1.7-.8 2.7.4 2.2.8 6.9.1 13-.3 2.1-.2 3.1-.2 4.6 0 .6 0 1.3.1 2.2H310c0-.9 0-1.6.1-2.2 0-1.5.1-2.5-.2-4.6-.7-5.8-.3-10.2.1-13 .2-1-.1-1.9-.8-2.7-.6-.7-1.6-1.2-2.6-1.2h-8.8c-1.5 0-2.9 1-3.2 2.5-.6 2.3-1.5 7-.8 12.2 1 7.5 1.2 13.3.8 16.6-1 7.3-.9 13.1-.7 19.1.1 5 .2 10.2-.2 16.8v.6c-.4 4.8-.6 8.7 1.5 11 1.1 1.2 2.8 1.8 5 1.8h47.4c2.2 0 3.9-.6 5-1.8 1.9-2.4 1.7-6.2 1.3-11zm-3.6 9c-.6.6-1.5.9-2.9.9H300c-1.4 0-2.4-.3-2.9-.9-1.3-1.4-1-4.8-.8-8.8v-.6c.5-6.8.4-12 .2-17.1-.1-6-.3-11.6.7-18.7.5-3.6.2-9.4-.8-17.3-.6-4.7.2-9 .8-11.2.1-.2.2-.4.5-.4h8.8c.2 0 .3.1.4.2.1.1.1.2.1.4-.5 2.9-.9 7.7-.1 13.8.2 1.9.2 2.7.2 4.2 0 .9-.1 2.1-.1 3.8v1.4h33.4v-1.4c0-1.7 0-2.9-.1-3.8 0-1.5-.1-2.3.2-4.2.7-6.1.4-10.8-.1-13.8 0-.2 0-.3.1-.4.1-.1.2-.2.4-.2h8.8c.2 0 .4.1.5.4.5 2.1 1.4 6.4.8 11.2-1 7.9-1.3 13.7-.8 17.3 1 7.1.8 12.7.7 18.7-.1 5.1-.2 10.3.2 17.1v.6c.2 4 .5 7.4-.8 8.8z"/><path class="st2" d="M134.8 82.3c63.9 0 115.7 51.8 115.7 115.7 0 63.9-51.8 115.7-115.7 115.7-63.9 0-115.7-51.8-115.7-115.7 0-63.9 51.8-115.7 115.7-115.7z"/><path class="st3" d="M245.2 270.2l.1-.7-.9-.2-.2.7 1 .2zm118.6-36.7c-.4-.4-1.1-.4-1.5 0-.4.4-.4 1.1 0 1.5.4.4 1.1.4 1.5 0 .5-.4.4-1.1 0-1.5zm4.6-3.4c.4-.5.4-1.1-.1-1.5-.4-.4-1.1-.3-1.5.1-.4.4-.4 1.1.1 1.5.4.4 1.1.3 1.5-.1zm-9.3 8c-.4-.5-1.1-.5-1.5-.1-.4.4-.5 1.1-.1 1.5.4.4 1.1.5 1.5.1l.1-.1c.3-.3.4-.9 0-1.4zm13.6-13.1c.4-.5.3-1.2-.2-1.5-.5-.4-1.2-.3-1.5.2-.4.5-.3 1.2.2 1.5.4.3 1.1.2 1.5-.2zm-18.6 17.5c-.4-.5-1.1-.5-1.5-.1-.5.4-.5 1.1-.2 1.5.4.5 1.1.5 1.5.1l.1-.1c.4-.3.4-.9.1-1.4zm22.7-22.9c.4-.5.2-1.2-.3-1.5-.5-.4-1.2-.2-1.5.3-.3.5-.2 1.2.3 1.5.4.3 1.1.2 1.4-.1 0-.1 0-.2.1-.2zm-27.9 27.1c-.3-.5-1-.6-1.5-.2-.5.4-.6 1-.2 1.5.4.5 1 .6 1.5.2.1 0 .1-.1.1-.1.4-.4.4-1 .1-1.4zm31.6-32.7c.3-.5.2-1.2-.3-1.5-.5-.3-1.2-.2-1.5.4-.3.5-.2 1.2.3 1.5.4.3 1 .2 1.3-.2.1 0 .2-.1.2-.2zm-37 36.6c-.3-.5-1-.6-1.5-.3s-.6 1-.3 1.5 1 .6 1.5.3c.1-.1.1-.1.2-.1.3-.4.3-1 .1-1.4zm40.5-42.3c.3-.5.1-1.2-.4-1.5-.5-.3-1.2-.1-1.5.4-.3.5-.1 1.2.4 1.5.4.2 1 .1 1.3-.2.1-.1.2-.1.2-.2zm-46.2 45.8c-.3-.5-1-.7-1.5-.4-.5.3-.7 1-.4 1.5.3.5 1 .7 1.5.4.1 0 .1-.1.2-.2.4-.3.5-.8.2-1.3zm49.4-51.7c.3-.6.1-1.2-.5-1.5-.6-.3-1.2-.1-1.5.5-.3.5 0 1.2.5 1.5.4.2.9.1 1.3-.2 0-.1.1-.2.2-.3zm-55.1 55c-.3-.5-1-.7-1.5-.5-.5.3-.7 1-.5 1.5.3.5 1 .7 1.5.5.1-.1.2-.1.3-.2.3-.3.4-.8.2-1.3zm-6 3c-.3-.5-.9-.8-1.5-.5-.5.3-.8.9-.5 1.4.3.5.9.8 1.4.5l.3-.3c.4-.2.5-.7.3-1.1zm-6.1 2.7c-.2-.6-.8-.8-1.4-.6-.6.2-.8.9-.6 1.4.2.6.9.8 1.4.6.2-.1.3-.1.4-.3.3-.3.4-.7.2-1.1zm-6.2 2.3c-.2-.6-.8-.9-1.4-.7-.6.2-.9.8-.7 1.4.2.6.8.9 1.4.7.2-.1.3-.2.4-.3.3-.2.4-.7.3-1.1zm-6.3 2.1c-.2-.6-.8-.9-1.4-.8-.6.2-.9.7-.8 1.4.2.6.8.9 1.4.8.2-.1.4-.2.5-.3.2-.4.4-.8.3-1.1zm-6.5 1.6c-.1-.6-.7-.9-1.3-.8-.6.1-1 .7-.8 1.3.1.6.7 1 1.3.8.2-.1.4-.2.5-.3.3-.2.4-.6.3-1zm-6.5 1.4c-.1-.6-.7-1-1.3-.9-.6.1-1 .7-.9 1.3.1.6.7 1 1.3.9.2 0 .5-.2.6-.3.3-.3.4-.6.3-1zm-6.6 1c-.1-.6-.6-1-1.2-.9-.6.1-1 .6-1 1.2.1.6.6 1 1.2 1 .2 0 .5-.1.6-.3.4-.3.5-.6.4-1zm-6.6.7c0-.6-.6-1.1-1.2-1-.6 0-1.1.5-1 1.1 0 .6.6 1.1 1.2 1 .3 0 .5-.1.7-.3.2-.2.3-.4.3-.8zm-6.6.4c0-.6-.5-1.1-1.1-1.1-.6 0-1.1.5-1.1 1.1 0 .6.5 1.1 1.1 1.1.3 0 .6-.1.8-.3.2-.3.3-.5.3-.8zm-6.7-.1c0-.6-.4-1.1-1.1-1.1-.6 0-1.1.5-1.1 1.1 0 .6.4 1.1 1.1 1.1.3 0 .6-.1.8-.3.2-.2.3-.5.3-.8zm-6.6-.3c.1-.6-.4-1.1-1-1.2-.6-.1-1.1.4-1.2 1-.1.6.4 1.1 1 1.2.3 0 .7-.1.9-.3.1-.3.2-.5.3-.7zm-6.6-.7c.1-.6-.3-1.1-.9-1.2-.6-.1-1.1.3-1.2.9-.1.6.3 1.2.9 1.2.4.1.7-.1.9-.3l.3-.6zm137.7-81.3c.2-.6-.1-1.2-.6-1.4-.6-.2-1.2.1-1.4.6-.2.6.1 1.2.6 1.4.4.2.9.1 1.2-.2.1-.1.1-.2.2-.4zm2.2-6.2c.2-.6-.1-1.2-.7-1.4-.6-.2-1.2.1-1.4.7-.2.6.1 1.2.7 1.4.4.1.8 0 1.1-.3.1 0 .2-.2.3-.4zm1.8-6.2c.2-.6-.2-1.2-.8-1.4-.6-.1-1.2.2-1.3.8-.1.6.2 1.2.8 1.3.4.1.8 0 1.1-.3.1-.1.2-.2.2-.4zm1.6-6.4c.1-.6-.3-1.1-.8-1.3-.6-.1-1.2.2-1.3.8-.1.6.2 1.2.8 1.3.4.1.8 0 1-.3.1-.1.2-.3.3-.5zm1.2-6.4c.1-.6-.3-1.1-.9-1.3-.6-.1-1.1.3-1.3.9-.1.6.3 1.2.9 1.3.4.1.7-.1 1-.3l.3-.6zm.9-6.5c.1-.6-.4-1.1-1-1.2-.6-.1-1.1.4-1.2 1-.1.6.4 1.1.9 1.2.4 0 .7-.1.9-.3.2-.2.3-.4.4-.7zm.5-6.5c.1-.6-.4-1.1-1-1.1s-1.1.4-1.2 1c0 .6.4 1.1 1 1.1.3 0 .6-.1.8-.3.3-.2.4-.4.4-.7zm.2-6.5c0-.6-.5-1.1-1.1-1.1-.6 0-1.1.5-1.1 1.1 0 .6.5 1.1 1.1 1.1.3 0 .6-.1.8-.3.2-.3.3-.5.3-.8zm-.1-6.6c0-.6-.5-1.1-1.1-1-.6 0-1.1.5-1 1.1 0 .6.5 1.1 1.1 1 .3 0 .5-.1.7-.3.2-.2.3-.5.3-.8zm-.5-6.5c-.1-.6-.6-1.1-1.2-1-.6 0-1 .6-1 1.2s.6 1 1.2 1c.3 0 .5-.1.7-.3.3-.3.4-.6.3-.9zm-.7-6.5c-.1-.6-.7-1-1.2-.9-.6.1-1 .7-.9 1.2.1.6.6 1 1.2.9.2-.1.5-.2.6-.3.2-.2.3-.6.3-.9zm-1.1-6.4c-.1-.6-.7-1-1.3-.9-.6.1-1 .7-.8 1.3.1.6.7 1 1.3.9l.6-.3c.1-.3.2-.7.2-1zm-1.5-6.4c-.1-.6-.7-1-1.3-.8-.6.1-.9.7-.8 1.3.1.6.7.9 1.3.8.2-.1.4-.2.5-.3.3-.2.4-.6.3-1zm-1.7-6.3c-.2-.6-.8-.9-1.3-.7-.6.2-.9.8-.7 1.4.2.6.8.9 1.4.7.2-.1.3-.2.5-.3.1-.3.2-.7.1-1.1zm-2.1-6.2c-.2-.6-.8-.9-1.4-.7-.5.2-.9.8-.6 1.4.2.6.8.9 1.4.7.2 0 .3-.1.4-.3.2-.2.3-.7.2-1.1zm-2.4-6.1c-.2-.6-.9-.8-1.4-.6-.6.2-.8.9-.6 1.4.2.5.9.8 1.4.6.1-.1.2-.1.3-.2.4-.3.5-.7.3-1.2zm-2.7-5.9c-.3-.5-.9-.8-1.5-.5-.5.3-.7.9-.5 1.5.3.5.9.8 1.4.5.1-.1.2-.1.3-.2.5-.4.5-.9.3-1.3zm-2.9-5.8c-.3-.5-.9-.7-1.5-.4-.5.3-.7.9-.4 1.5.3.5 1 .7 1.5.4.1-.1.2-.1.3-.2.2-.4.3-.9.1-1.3zm-3.3-5.7c-.3-.5-1-.7-1.5-.4-.5.3-.7 1-.4 1.5.3.5 1 .7 1.5.4.1 0 .1-.1.2-.2.4-.3.5-.8.2-1.3zm-3.5-5.5c-.3-.5-1-.6-1.5-.3s-.6 1-.3 1.5 1 .6 1.5.3c.1 0 .1-.1.2-.1.3-.3.4-.9.1-1.4zm-3.8-5.2c-.4-.5-1-.6-1.6-.2-.5.4-.6 1-.2 1.5.4.5 1 .6 1.5.2l.1-.1c.4-.4.5-1 .2-1.4zm-4.1-5.1c-.4-.4-1.1-.5-1.5-.1-.5.4-.5 1.1-.2 1.5.4.5 1.1.5 1.6.1l.1-.1c.3-.4.3-1 0-1.4zm-4.4-4.9c-.4-.4-1.1-.5-1.5 0-.4.4-.5 1.1-.1 1.6.4.4 1.1.4 1.5 0h.1c.4-.5.4-1.2 0-1.6zm-4.5-4.6c-.4-.4-1.1-.4-1.5 0-.4.4-.4 1.1 0 1.5.4.4 1.1.4 1.5 0 .4-.4.4-1.1 0-1.5zm-4.7-2.9c.4-.5.3-1.2-.1-1.5-.5-.4-1.1-.4-1.5.1-.4.4-.3 1.1.1 1.5.4.4 1 .4 1.5-.1-.1 0-.1 0 0 0zm-5-4.2c.4-.5.3-1.2-.2-1.5-.5-.4-1.2-.3-1.5.2-.4.5-.3 1.2.2 1.5.4.4 1.1.3 1.5-.2 0 .1 0 .1 0 0zm-5.2-3.9c.4-.5.3-1.2-.2-1.5-.5-.4-1.2-.2-1.5.2-.4.5-.2 1.2.2 1.5.5.3 1.1.2 1.4-.1.1 0 .1 0 .1-.1zm-5.3-3.6c.3-.5.2-1.2-.3-1.5-.5-.3-1.2-.2-1.5.4-.3.5-.2 1.2.3 1.5.4.3 1 .2 1.4-.2 0-.1 0-.2.1-.2zm-5.5-3.4c.3-.5.1-1.2-.4-1.5-.5-.3-1.2-.1-1.5.4-.3.5-.1 1.2.4 1.5.5.3 1 .2 1.3-.2.1 0 .1-.1.2-.2zm-5.7-3.1c.3-.5 0-1.2-.5-1.4-.6-.3-1.2-.1-1.5.5-.3.6-.1 1.2.5 1.5.4.2.9.1 1.3-.2 0-.2.1-.3.2-.4zm-12-5.3c.2-.6-.1-1.2-.6-1.4-.5-.2-1.2.1-1.4.6-.2.6.1 1.2.6 1.4.4.1.9 0 1.2-.3 0 0 .1-.2.2-.3zm-6.2-2.2c.2-.6-.1-1.2-.7-1.4-.6-.2-1.2.1-1.4.7-.2.6.1 1.2.7 1.4.4.1.8 0 1.1-.3.1-.1.2-.3.3-.4zm-6.4-1.9c.2-.6-.2-1.2-.8-1.3-.6-.1-1.2.2-1.3.8-.2.6.2 1.2.8 1.3.4.1.8 0 1-.3.2-.2.3-.3.3-.5zm-6.4-1.6c.1-.6-.3-1.1-.8-1.3-.6-.1-1.2.2-1.3.8-.1.6.3 1.2.8 1.3.4.1.7-.1 1-.3.1-.1.2-.3.3-.5zm-6.6-1.2c.1-.6-.3-1.2-.9-1.3-.6-.1-1.2.3-1.3.9-.1.6.3 1.2.9 1.3.4.1.7-.1 1-.3.2-.2.3-.4.3-.6zm-6.5-.9c.1-.6-.4-1.1-1-1.2-.6 0-1.1.4-1.2 1-.1.6.4 1.1 1 1.2.3 0 .7-.1.9-.3.1-.2.2-.5.3-.7zm-6.6-.6c0-.6-.4-1.1-1.1-1.1-.6 0-1.1.4-1.1 1s.4 1.1 1 1.1c.3 0 .6-.1.8-.3.2-.2.3-.4.4-.7zm-6.7-.2c0-.6-.5-1.1-1.1-1.1-.6 0-1.1.5-1.1 1.1 0 .6.5 1.1 1.1 1.1.3 0 .6-.1.8-.3.2-.2.3-.5.3-.8zm-6.6.2c0-.6-.5-1-1.1-1-.6 0-1.1.5-1 1.1 0 .6.6 1.1 1.1 1 .3 0 .5-.2.7-.4.2-.1.3-.4.3-.7zm-6.6.4c-.1-.6-.6-1-1.2-1-.6.1-1 .6-1 1.2.1.6.6 1 1.2.9.2 0 .5-.1.7-.3.2-.1.3-.4.3-.8zm-6.6.9c-.1-.6-.7-1-1.3-.9-.6.1-1 .7-.9 1.3.1.6.7 1 1.3.9.2 0 .5-.2.6-.3.2-.3.3-.7.3-1zm-6.5 1.2c-.1-.6-.7-1-1.3-.9-.6.1-1 .7-.8 1.3.1.6.7 1 1.3.8.2 0 .4-.2.6-.3.1-.2.2-.6.2-.9zM240 21c-.1-.6-.7-.9-1.3-.8-.6.2-.9.8-.8 1.3.2.6.8.9 1.3.8.2-.1.4-.2.5-.3.3-.3.4-.6.3-1zm-6.4 1.8c-.2-.6-.8-.9-1.4-.7-.6.2-.9.8-.7 1.4.2.6.8.9 1.4.7.2-.1.3-.2.5-.3.2-.3.3-.7.2-1.1zm-6.3 2.2c-.2-.5-.8-.8-1.4-.6-.6.2-.8.9-.6 1.4.2.6.9.8 1.4.6.2-.1.3-.2.4-.3.3-.3.4-.7.2-1.1zm-6.1 2.5c-.2-.6-.9-.8-1.4-.6-.5.3-.8.9-.6 1.4.2.6.9.8 1.4.6.1-.1.2-.1.3-.2.4-.3.5-.8.3-1.2zm-6 2.8c-.3-.5-.9-.8-1.5-.5-.5.3-.8.9-.5 1.5.3.5.9.7 1.5.5.1 0 .2-.1.3-.2.3-.4.4-.9.2-1.3zm-5.9 3.1c-.3-.5-1-.7-1.5-.4-.5.3-.7 1-.4 1.5.3.5 1 .7 1.5.4.1 0 .2-.1.2-.2.4-.4.5-.9.2-1.3zm-5.7 3.4c-.3-.5-1-.7-1.5-.3-.5.3-.6 1-.3 1.5s1 .7 1.5.3l.2-.2c.3-.3.4-.9.1-1.3zm-5.5 3.7c-.4-.5-1-.6-1.5-.2-.5.3-.6 1-.2 1.5.3.5 1 .6 1.5.2l.1-.1c.4-.4.4-1 .1-1.4zm-28.2 29.2c.4-.5.3-1.2-.2-1.5-.5-.4-1.2-.2-1.5.2-.4.5-.3 1.2.2 1.5.5.3 1.1.3 1.5-.2-.1.1 0 0 0 0zm22.9-25.3c-.4-.4-1.1-.5-1.5-.1-.5.4-.6 1.1-.2 1.5.4.4 1.1.5 1.6.2l.1-.1c.3-.4.3-1 0-1.5zM174 64.5c.4-.5.3-1.2-.2-1.5-.5-.4-1.2-.3-1.5.2-.4.5-.3 1.2.1 1.5.5.3 1.1.2 1.6-.2-.1 0-.1 0 0 0zm13.7-15.8c-.4-.4-1.1-.5-1.5-.1-.4.4-.5 1.1-.1 1.5.4.4 1.1.5 1.5.1l.1-.1c.3-.3.4-1 0-1.4zm-9.5 10.8c.4-.4.4-1.1-.1-1.5-.4-.4-1.1-.4-1.5.1-.4.4-.4 1.1.1 1.5.5.4 1.1.3 1.5-.1zm4.6-6.3c-.4-.4-1.1-.4-1.5 0-.4.4-.4 1.1 0 1.6.4.4 1.1.4 1.5 0 .4-.5.4-1.2 0-1.6zm-16.8 22c.1-.1.2-.2.2-.4.1-.1.1-.3.1-.4 0-.2 0-.3-.1-.4-.1-.1-.1-.2-.2-.4-.2-.2-.5-.3-.8-.3-.5 0-1.1.5-1.1 1.1 0 .3.1.6.3.8.1.1.2.2.4.2s.3.1.4.1c.4.1.6-.1.8-.3zm158.1-46.9c.2-.2.3-.5.3-.8 0-.3-.1-.5-.3-.8-.1-.1-.2-.2-.4-.2-.1-.1-.3-.1-.4-.1-.2 0-.3 0-.4.1-.3.1-.5.3-.6.6-.1.1-.1.3-.1.4 0 .1 0 .3.1.4.1.1.1.2.2.4.2.2.5.3.8.3.3 0 .6-.1.8-.3zm65.7 168.3c.1-.1.2-.2.2-.4.1-.1.1-.3.1-.4 0-.2 0-.3-.1-.4-.1-.1-.1-.2-.2-.4-.1-.1-.2-.2-.4-.2-.1-.1-.3-.1-.4-.1-.6 0-1.1.5-1.1 1.1 0 .3.1.6.3.8.1.1.2.2.4.2.1 0 .3.1.4.1.1 0 .3 0 .4-.1.2 0 .3-.1.4-.2zM247.9 271c.1-.1.2-.2.2-.4.1-.1.1-.3.1-.4 0-.3-.1-.6-.3-.8-.1-.1-.2-.2-.4-.2-.1-.1-.3-.1-.4-.1-.6 0-1.1.5-1.1 1.1 0 .1 0 .3.1.4.1.1.1.3.2.4.2.2.5.3.8.3.2 0 .3 0 .4-.1.2-.1.3-.1.4-.2z"/><path class="st3" d="M248 271.2c.9-2 0-4.3-2-5.1-2-.9-4.3 0-5.1 2-.9 2 0 4.3 2 5.1 1.9.9 4.2 0 5.1-2M163.6 77.1l-2.9-3.4-.5 8.3 7.6-3.4-4.2-1.5zm-82.7 57.7h-1.4v-1.3H88c.9 0 1.3.4 1.3 1.3v1.5h-1.4v-1c0-.3-.2-.5-.5-.5h-5v5.4H88v1.3h-5.6v5c0 .3.2.5.5.5H88c.3 0 .5-.1.5-.5v-1h1.4v1.5c0 .9-.4 1.3-1.3 1.3h-6.4c-.9 0-1.3-.4-1.3-1.3v-12.2zm13.6.4c0-.3-.2-.5-.5-.5h-.9v-1.3h1.6c.9 0 1.3.4 1.3 1.3v8.4c0 2.5 1.6 4 4 4s4-1.5 4-4v-8.3c0-.9.4-1.3 1.3-1.3h1.6v1.3h-.9c-.3 0-.5.1-.5.5v7.9c0 3.2-2.2 5.3-5.4 5.3s-5.5-2.1-5.5-5.3v-8zm24.8 4.2c0-.3-.2-.5-.5-.5h-.9v-1.2h1.5c.9 0 1.3.4 1.3 1.1v.7s.8-2.1 3.6-2.1 4.6 2.3 4.6 5.6-2 5.5-4.7 5.5c-2.6 0-3.5-2-3.5-2v5.9h-1.4v-13zm4.7 7.8c1.9 0 3.4-1.6 3.4-4.3 0-2.6-1.4-4.2-3.3-4.2-1.8 0-3.4 1.3-3.4 4.3 0 2.1 1.1 4.2 3.3 4.2zm9.5-12c0-.3-.2-.5-.5-.5h-.9v-1.2h1.5c.9 0 1.3.4 1.3 1.3v11.8c0 .3.2.5.5.5h.9v1.2h-1.5c-.9 0-1.3-.4-1.3-1.3v-11.8zm12.8 6.5h.6v-.1c0-2.2-.8-3-2.7-3-.5 0-2.1.1-2.1.9v.7h-1.4v-1c0-1.5 2.5-1.8 3.4-1.8 3.3 0 4.1 1.8 4.1 4.1v5.1c0 .3.2.5.5.5h.9v1.2h-1.5c-.9 0-1.3-.4-1.3-1.3v-.8s-.9 2.3-3.5 2.3c-1.8 0-3.6-1-3.6-3.1.1-3.6 4.8-3.7 6.6-3.7zm-2.7 5.6c2 0 3.2-2.1 3.2-3.9v-.5h-.6c-1.7 0-5 0-5 2.4.1 1 .9 2 2.4 2zm10-1.7s1.2 1.6 3.3 1.6c1.2 0 2.2-.6 2.2-1.7 0-2.3-5.9-1.9-5.9-5.3 0-1.9 1.6-2.9 3.8-2.9 1.1 0 3.2.4 3.2 1.9v.9h-1.3v-.5c0-.8-1.1-1.1-1.8-1.1-1.5 0-2.4.5-2.4 1.5 0 2.4 5.9 1.8 5.9 5.3 0 1.8-1.6 3-3.7 3-2.8 0-4.1-1.9-4.1-1.9l.8-.8zm11.9-6.7h-1.4v-1.2h1.4v-2.9h1.4v2.9h2.6v1.2H167v5.4c0 2.5 1.6 2.8 2.4 2.8h.5v1.3h-.6c-1.2 0-3.7-.4-3.7-3.9v-5.6zm9.1.5c0-.3-.2-.5-.5-.5h-.9v-1.2h1.5c.9 0 1.3.4 1.3 1.3v7.6c0 .3.2.5.5.5h.9v1.2h-1.5c-.9 0-1.3-.4-1.3-1.3v-7.6zm0-6h1.4v1.8h-1.4v-1.8zm11.9 4c1.2 0 3.8.5 3.8 2.3v.9H189v-.6c0-.9-1.5-1.3-2.4-1.3-2.3 0-4.1 1.7-4.1 4.3 0 2.6 1.9 4.2 4.1 4.2 2.2 0 3.4-1.5 3.4-1.5l.7 1.1s-1.4 1.7-4.1 1.7c-3.2 0-5.6-2.2-5.6-5.5-.1-3.3 2.4-5.6 5.5-5.6zm-95.6 30.3s1.2 1.6 3.3 1.6c1.2 0 2.2-.6 2.2-1.7 0-2.3-5.9-1.9-5.9-5.3 0-1.9 1.6-2.9 3.8-2.9 1.1 0 3.2.4 3.2 1.9v.9h-1.3v-.5c0-.8-1.1-1.1-1.8-1.1-1.5 0-2.4.5-2.4 1.5 0 2.4 5.9 1.8 5.9 5.3 0 1.8-1.6 3-3.7 3-2.8 0-4.1-1.9-4.1-1.9l.8-.8zm11.9-6.8h-1.4v-1.2h1.4v-2.9h1.4v2.9h2.6v1.2h-2.6v5.4c0 2.5 1.6 2.8 2.4 2.8h.5v1.3h-.6c-1.2 0-3.7-.4-3.7-3.9v-5.6zm9 .5c0-.3-.2-.5-.5-.5h-.9v-1.2h1.5c.9 0 1.3.4 1.3 1.2v1.5c.5-1.6 1.7-2.8 3.3-2.8.3 0 .6.1.6.1v1.4h-.5c-1.5 0-2.6 1.2-3.1 2.7-.2.7-.3 1.4-.3 2.1v4.5h-1.4v-9zm14.5 2.3h.6v-.1c0-2.2-.8-3-2.7-3-.5 0-2.1.1-2.1.9v.7h-1.4v-1c0-1.5 2.5-1.8 3.4-1.8 3.3 0 4.1 1.8 4.1 4.1v5.1c0 .3.2.5.5.5h.9v1.2h-1.5c-.9 0-1.3-.4-1.3-1.3v-.8s-.9 2.3-3.5 2.3c-1.8 0-3.6-1-3.6-3.1.1-3.5 4.8-3.7 6.6-3.7zm-2.7 5.6c2 0 3.2-2.1 3.2-3.9v-.5h-.6c-1.7 0-5 0-5 2.4.1 1 .9 2 2.4 2zm10.6-8.4h-1.4v-1.2h1.4v-2.9h1.4v2.9h2.6v1.2h-2.6v5.4c0 2.5 1.6 2.8 2.4 2.8h.5v1.3h-.6c-1.2 0-3.7-.4-3.7-3.9v-5.6zm13-1.5c2.9 0 4.4 2.3 4.4 4.9v.7h-8.1c0 2.7 1.9 4.2 4.1 4.2 1.9 0 3.2-1.3 3.2-1.3l.7 1.1s-1.5 1.5-3.9 1.5c-3.1 0-5.5-2.3-5.5-5.5-.1-3.5 2.3-5.6 5.1-5.6zm3 4.5c-.1-2.2-1.4-3.3-3-3.3-1.7 0-3.3 1.1-3.6 3.3h6.6zm10-4.5c2.8 0 3.5 1.8 3.5 1.8v-.4c0-.8.3-1.2 1.2-1.2h1.5v1.2h-.9c-.3 0-.5.1-.5.5v8.6c0 3.4-2.5 4.7-5.1 4.7-1.2 0-2.4-.3-3.4-.8l.5-1.2s1.3.7 2.9.7c2.1 0 3.7-1 3.7-3.3v-1.7c-.6 1.2-1.7 1.8-3.3 1.8-2.8 0-4.7-2.2-4.7-5.4 0-3.1 1.8-5.3 4.6-5.3zm3.5 5.4c0-3.1-1.5-4-3.3-4-2.1 0-3.3 1.5-3.3 4s1.4 4.2 3.4 4.2c1.8-.1 3.2-1.1 3.2-4.2zm7.8 8.6c.9 0 1.6-.8 2-1.7l.6-1.5-3.7-8.8c-.2-.4-.4-.5-.7-.5h-.2v-1.2h.7c.9 0 1.2.2 1.6 1.2l2.7 6.6c.2.5.4 1.1.4 1.1s.1-.6.4-1.1l2.6-6.6c.4-.9.7-1.2 1.6-1.2h.7v1.2h-.2c-.4 0-.6.1-.7.5l-4.6 11.1c-.5 1.3-1.6 2.2-3 2.2-1.5 0-2.3-1-2.3-1l.7-1.1c-.2 0 .5.8 1.4.8z"/><path class="st4" d="M56.5 179.2h-2.8c-.2 0-.4.1-.4.4v.8h-1v-1.2c0-.7.2-.9.9-.9h7.6c.7 0 .9.2.9.9v1.2h-1v-.8c0-.3-.1-.4-.4-.4h-2.8v10.3h-1.1v-10.3zm7.8 3.5c0-.2-.1-.4-.4-.4h-.7v-.9h1.1c.7 0 1 .3 1 .9v3.9c0 1.3.2 2.4 1.8 2.4 1.8 0 3-1.6 3-3.4v-3.9h1.1v6.8c0 .2.1.4.4.4h.7v.9h-1.1c-.7 0-1-.3-1-.9v-1c-.3.8-1.4 2-3.1 2-1.9 0-2.7-1-2.7-3.1v-3.7zm11.4-.4h-1.1v-.9h1.1v-2.2h1.1v2.2h2v.9h-2v4.1c0 1.9 1.2 2.1 1.8 2.1h.4v1h-.5c-.9 0-2.8-.3-2.8-3v-4.2zm6.9 0h-1.1v-.9h1.1v-2.2h1.1v2.2h2v.9h-2v4.1c0 1.9 1.2 2.1 1.8 2.1h.4v1h-.5c-.9 0-2.8-.3-2.8-3v-4.2zm7 .4c0-.2-.1-.4-.4-.4h-.7v-.9h1.1c.7 0 1 .3 1 1v5.8c0 .2.1.4.4.4h.7v.9h-1.1c-.7 0-1-.3-1-1v-5.8zm0-4.5h1.1v1.4h-1.1v-1.4zm14.3 3c2.2 0 2.7 1.4 2.7 1.4v-.3c0-.6.3-.9.9-.9h1.1v.9h-.6c-.2 0-.4.1-.4.4v6.6c0 2.6-1.9 3.6-3.9 3.6-.9 0-1.8-.2-2.6-.6l.4-.9s1 .6 2.2.6c1.6 0 2.8-.7 2.8-2.5v-1.3c-.5.9-1.3 1.4-2.5 1.4-2.2 0-3.6-1.7-3.6-4.1 0-2.6 1.3-4.3 3.5-4.3zm2.6 4.1c0-2.4-1.1-3.1-2.5-3.1-1.6 0-2.5 1.1-2.5 3.1 0 1.9 1 3.2 2.6 3.2 1.3 0 2.4-.8 2.4-3.2zm5.5-5.8c0-.2-.1-.4-.4-.4h-.7v-.9h1.1c.7 0 1 .3 1 1v9c0 .2.1.4.4.4h.7v.9H113c-.7 0-1-.3-1-1v-9zm5.6 3.2c0-.2-.1-.4-.4-.4h-.7v-.9h1.1c.7 0 1 .3 1 1v5.8c0 .2.1.4.4.4h.7v.9h-1.1c-.7 0-1-.3-1-1v-5.8zm0-4.5h1.1v1.4h-1.1v-1.4zm11.6 4.5c0-.2-.1-.4-.4-.4h-.7v-.9h1.1c.7 0 1 .3 1 1v5.8c0 .2.1.4.4.4h.7v.9h-1.1c-.7 0-1-.3-1-1v-5.8zm-.1-4.5h1.1v1.4h-1.1v-1.4zm5.6 4.5c0-.2-.1-.4-.4-.4h-.7v-.9h1.1c.7 0 1 .3 1 .9v1c.4-1.1 1.7-2 2.9-2 1.5 0 2.3.7 2.5 2 .4-1.1 1.6-2 3-2 2 0 2.7 1.1 2.7 3.1v3.8c0 .2.1.4.4.4h.7v.9h-1.1c-.7 0-1-.3-1-1v-3.9c0-1.3-.3-2.4-1.7-2.4-1.2 0-2.2 1.1-2.5 2.3-.1.4-.1.7-.1 1.2v3.8h-1.1v-4.9c0-1.2-.2-2.4-1.7-2.4-1.3 0-2.3 1.1-2.6 2.4-.1.3-.1.7-.1 1.1v3.8h-1.1v-6.8zm16.5-3.2c0-.2-.1-.4-.4-.4h-.7v-.9h1.1c.7 0 1 .3 1 1v3.6s.7-1.5 2.7-1.5c2.2 0 3.5 1.7 3.5 4.2s-1.5 4.2-3.6 4.2c-1.9 0-2.6-1.6-2.6-1.6v1.4h-1.1v-10zm3.6 9.2c1.4 0 2.6-1.2 2.6-3.3 0-2-1.1-3.2-2.5-3.2-1.3 0-2.6 1-2.6 3.3-.1 1.6.8 3.2 2.5 3.2zm11.5-4.2h.4v-.1c0-1.7-.6-2.3-2.1-2.3-.4 0-1.6.1-1.6.7v.5h-1v-.8c0-1.1 1.9-1.4 2.6-1.4 2.5 0 3.2 1.4 3.2 3.1v3.9c0 .2.1.4.4.4h.7v.9h-1.1c-.7 0-1-.3-1-1v-.6s-.7 1.7-2.7 1.7c-1.3 0-2.7-.8-2.7-2.4 0-2.5 3.5-2.6 4.9-2.6zm-2 4.3c1.5 0 2.5-1.6 2.5-3v-.4h-.5c-1.3 0-3.8 0-3.8 1.8 0 .8.6 1.6 1.8 1.6zm7.9-9.3c0-.2-.1-.4-.4-.4h-.7v-.9h1.1c.7 0 1 .3 1 1v9c0 .2.1.4.4.4h.7v.9h-1.1c-.7 0-1-.3-1-1v-9zm5.5 0c0-.2-.1-.4-.4-.4h-.7v-.9h1.1c.7 0 1 .3 1 1v9c0 .2.1.4.4.4h.7v.9h-1.1c-.7 0-1-.3-1-1v-9zm9.7 5h.4v-.1c0-1.7-.6-2.3-2.1-2.3-.4 0-1.6.1-1.6.7v.5h-1v-.8c0-1.1 1.9-1.4 2.6-1.4 2.5 0 3.2 1.4 3.2 3.1v3.9c0 .2.1.4.4.4h.7v.9h-1.1c-.7 0-1-.3-1-1v-.6s-.7 1.7-2.7 1.7c-1.3 0-2.7-.8-2.7-2.4 0-2.5 3.5-2.6 4.9-2.6zm-2 4.3c1.5 0 2.5-1.6 2.5-3v-.4h-.5c-1.3 0-3.8 0-3.8 1.8 0 .8.6 1.6 1.8 1.6zm10.7-7.6c2.2 0 2.7 1.4 2.7 1.4v-.3c0-.6.3-.9.9-.9h1.1v.9h-.7c-.2 0-.4.1-.4.4v6.6c0 2.6-1.9 3.6-3.9 3.6-.9 0-1.8-.2-2.6-.6l.4-.9s1 .6 2.2.6c1.6 0 2.8-.7 2.8-2.5v-1.3c-.5.9-1.3 1.4-2.5 1.4-2.2 0-3.6-1.7-3.6-4.1.1-2.6 1.4-4.3 3.6-4.3zm2.7 4.1c0-2.4-1.1-3.1-2.5-3.1-1.6 0-2.5 1.1-2.5 3.1 0 1.9 1 3.2 2.6 3.2 1.2 0 2.4-.8 2.4-3.2zm8.2-4.1c2.2 0 2.7 1.4 2.7 1.4v-.3c0-.6.3-.9.9-.9h1.1v.9h-.7c-.2 0-.4.1-.4.4v6.6c0 2.6-1.9 3.6-3.9 3.6-.9 0-1.8-.2-2.6-.6l.4-.9s1 .6 2.2.6c1.6 0 2.8-.7 2.8-2.5v-1.3c-.5.9-1.3 1.4-2.5 1.4-2.2 0-3.6-1.7-3.6-4.1.1-2.6 1.4-4.3 3.6-4.3zm2.6 4.1c0-2.4-1.1-3.1-2.5-3.1-1.6 0-2.5 1.1-2.5 3.1 0 1.9 1 3.2 2.6 3.2 1.3 0 2.4-.8 2.4-3.2zm5.6-2.6c0-.2-.1-.4-.4-.4h-.7v-.9h1.1c.7 0 1 .3 1 1v5.8c0 .2.1.4.4.4h.7v.9h-1.1c-.7 0-1-.3-1-1v-5.8zm-.1-4.5h1.1v1.4h-1.1v-1.4zM47.2 202c0-.2-.1-.4-.4-.4h-.7v-.9h1.1c.7 0 1 .3 1 1v5.8c0 .2.1.4.4.4h.7v.9h-1.1c-.7 0-1-.3-1-1V202zm0-4.5h1.1v1.4h-1.1v-1.4zm5.6 4.5c0-.2-.1-.4-.4-.4h-.7v-.9h1.1c.7 0 1 .3 1 .9v1c.3-.7 1.3-2 3.2-2 2 0 2.7 1.1 2.7 3.1v3.8c0 .2.1.4.4.4h.7v.9h-1.1c-.7 0-1-.3-1-1v-3.9c0-1.3-.2-2.4-1.7-2.4-1.4 0-2.6.9-2.9 2.3-.1.3-.1.7-.1 1.1v3.9h-1.1V202zm17.3 0c0-.2-.1-.4-.4-.4H69v-.9h1.1c.7 0 1 .3 1 .8v.5s.6-1.6 2.8-1.6c2.2 0 3.5 1.7 3.5 4.2s-1.5 4.2-3.6 4.2c-2 0-2.6-1.5-2.6-1.5v4.5h-1.1V202zm3.6 5.9c1.4 0 2.6-1.2 2.6-3.3 0-2-1-3.2-2.5-3.2-1.3 0-2.6 1-2.6 3.3-.1 1.6.8 3.2 2.5 3.2zm7.2-9.1c0-.2-.1-.4-.4-.4h-.7v-.9H81c.7 0 1 .3 1 1v9c0 .2.1.4.4.4h.6v.9h-1.1c-.7 0-1-.3-1-1v-9zm9.7 5h.4v-.1c0-1.7-.6-2.3-2.1-2.3-.4 0-1.6.1-1.6.7v.5h-1v-.8c0-1.1 1.9-1.4 2.6-1.4 2.5 0 3.2 1.4 3.2 3.1v3.9c0 .2.1.4.4.4h.7v.9h-1.1c-.7 0-1-.3-1-1v-.6s-.7 1.7-2.7 1.7c-1.3 0-2.7-.8-2.7-2.4 0-2.6 3.5-2.6 4.9-2.6zm-2 4.2c1.5 0 2.5-1.6 2.5-3v-.4h-.5c-1.3 0-3.8 0-3.8 1.8 0 .8.6 1.6 1.8 1.6zm7.6-1.3s.9 1.2 2.5 1.2c.9 0 1.7-.4 1.7-1.3 0-1.8-4.5-1.4-4.5-4 0-1.5 1.3-2.2 2.9-2.2.8 0 2.5.3 2.5 1.5v.7h-1v-.4c0-.6-.9-.8-1.4-.8-1.1 0-1.8.4-1.8 1.2 0 1.8 4.5 1.4 4.5 4.1 0 1.3-1.2 2.3-2.8 2.3-2.1 0-3.1-1.4-3.1-1.4l.5-.9zm9.1-5.1h-1.1v-.9h1.1v-2.2h1.1v2.2h2v.9h-2v4.1c0 1.9 1.2 2.1 1.8 2.1h.4v1h-.5c-.9 0-2.8-.3-2.8-3v-4.2zm6.9.4c0-.2-.1-.4-.4-.4h-.7v-.9h1.1c.7 0 1 .3 1 1v5.8c0 .2.1.4.4.4h.7v.9h-1.1c-.7 0-1-.3-1-1V202zm0-4.5h1.1v1.4h-1.1v-1.4zm9.1 3c.9 0 2.9.4 2.9 1.7v.7h-1v-.5c0-.7-1.2-1-1.8-1-1.7 0-3.1 1.3-3.1 3.3 0 2 1.5 3.2 3.2 3.2 1.7 0 2.6-1.1 2.6-1.1l.5.8s-1.1 1.3-3.2 1.3c-2.4 0-4.2-1.7-4.2-4.2-.2-2.5 1.7-4.2 4.1-4.2zm10.7 3.3h.4v-.1c0-1.7-.6-2.3-2.1-2.3-.4 0-1.6.1-1.6.7v.5h-1v-.8c0-1.1 1.9-1.4 2.6-1.4 2.5 0 3.2 1.4 3.2 3.1v3.9c0 .2.1.4.4.4h.7v.9h-1.1c-.7 0-1-.3-1-1v-.6s-.7 1.7-2.7 1.7c-1.3 0-2.7-.8-2.7-2.4 0-2.6 3.5-2.6 4.9-2.6zm-2 4.2c1.5 0 2.5-1.6 2.5-3v-.4h-.5c-1.3 0-3.8 0-3.8 1.8 0 .8.6 1.6 1.8 1.6zm16.8-7.5c2 0 2.6 1.5 2.6 1.5v-3.2c0-.2-.1-.4-.4-.4h-.7v-.9h1.1c.7 0 1 .3 1 1v9c0 .2.1.4.4.4h.7v.9h-1.1c-.7 0-1-.3-1-.9v-.5s-.7 1.6-2.8 1.6c-2.2 0-3.5-1.7-3.5-4.2.1-2.7 1.6-4.3 3.7-4.3zm2.6 4.2c0-1.6-.8-3.2-2.6-3.2-1.4 0-2.6 1.2-2.6 3.2s1 3.3 2.5 3.3c1.5-.1 2.7-1 2.7-3.3zm9-4.2c2.4 0 4.3 1.8 4.3 4.2 0 2.4-1.9 4.3-4.2 4.3-2.4 0-4.3-1.8-4.3-4.3 0-2.4 1.9-4.2 4.2-4.2zm0 7.4c1.7 0 3.1-1.4 3.1-3.3 0-1.8-1.4-3.2-3.1-3.2-1.7 0-3.1 1.4-3.1 3.2 0 1.9 1.4 3.3 3.1 3.3zm7.3-5.9c-.1-.3-.3-.4-.6-.4h-.1v-.9h.4c.8 0 1 .2 1.3.9l1.9 5c.1.4.3.9.3.9s.1-.5.3-.9l1.9-5c.3-.7.5-.9 1.3-.9h.4v.9h-.1c-.3 0-.5.1-.6.4l-2.6 6.7h-1.2l-2.6-6.7zm10.3 0c0-.2-.1-.4-.4-.4h-.6v-.9h1.1c.7 0 1 .3 1 .9v1.1c.4-1.2 1.3-2.1 2.5-2.1h.4v1.1h-.4c-1.1 0-2 .9-2.3 2.1-.2.5-.2 1.1-.2 1.6v3.4H176V202zm11.1 1.8h.4v-.1c0-1.7-.6-2.3-2.1-2.3-.4 0-1.6.1-1.6.7v.5h-1v-.8c0-1.1 1.9-1.4 2.6-1.4 2.5 0 3.2 1.4 3.2 3.1v3.9c0 .2.1.4.4.4h.7v.9h-1.1c-.7 0-1-.3-1-1v-.6s-.7 1.7-2.7 1.7c-1.3 0-2.7-.8-2.7-2.4 0-2.6 3.5-2.6 4.9-2.6zm-2 4.2c1.5 0 2.5-1.6 2.5-3v-.4h-.5c-1.3 0-3.8 0-3.8 1.8 0 .8.6 1.6 1.8 1.6zm7.9-6c0-.2-.1-.4-.4-.4h-.6v-.9h1.1c.7 0 1 .3 1 .9v1c.3-.7 1.3-2 3.2-2 2 0 2.7 1.1 2.7 3.1v3.8c0 .2.1.4.4.4h.7v.9H200c-.7 0-1-.3-1-1v-3.9c0-1.3-.2-2.4-1.7-2.4-1.4 0-2.6.9-2.9 2.3-.1.3-.1.7-.1 1.1v3.9H193V202zm11.3 0c0-.2-.1-.4-.4-.4h-.7v-.9h1.1c.7 0 1 .3 1 .9v1c.3-.7 1.3-2 3.2-2 2 0 2.7 1.1 2.7 3.1v3.8c0 .2.1.4.4.4h.7v.9h-1.1c-.7 0-1-.3-1-1v-3.9c0-1.3-.2-2.4-1.7-2.4-1.4 0-2.6.9-2.9 2.3-.1.3-.1.7-.1 1.1v3.9h-1.1V202zm14.9-1.5c2.4 0 4.3 1.8 4.3 4.2 0 2.4-1.9 4.3-4.2 4.3-2.4 0-4.3-1.8-4.3-4.3-.1-2.4 1.8-4.2 4.2-4.2zm0 7.4c1.7 0 3.1-1.4 3.1-3.3 0-1.8-1.4-3.2-3.1-3.2-1.7 0-3.1 1.4-3.1 3.2 0 1.9 1.4 3.3 3.1 3.3zM68.5 219.7c2.2 0 3.4 1.7 3.4 3.7v.5h-6.2c0 2 1.5 3.2 3.1 3.2 1.5 0 2.4-1 2.4-1l.5.8s-1.2 1.2-3 1.2c-2.4 0-4.2-1.7-4.2-4.2.1-2.6 1.9-4.2 4-4.2zm2.3 3.4c-.1-1.7-1.1-2.5-2.3-2.5-1.3 0-2.5.9-2.8 2.5h5.1zm4.6 2.9s.9 1.2 2.5 1.2c.9 0 1.7-.4 1.7-1.3 0-1.8-4.5-1.4-4.5-4 0-1.5 1.3-2.2 2.9-2.2.8 0 2.5.3 2.5 1.5v.7h-1v-.4c0-.6-.9-.8-1.4-.8-1.1 0-1.8.4-1.8 1.2 0 1.8 4.5 1.4 4.5 4.1 0 1.3-1.2 2.3-2.8 2.3-2.1 0-3.1-1.4-3.1-1.4l.5-.9zm8.7 0s.9 1.2 2.5 1.2c.9 0 1.7-.4 1.7-1.3 0-1.8-4.5-1.4-4.5-4 0-1.5 1.3-2.2 2.9-2.2.8 0 2.5.3 2.5 1.5v.7h-1v-.4c0-.6-.9-.8-1.4-.8-1.1 0-1.8.4-1.8 1.2 0 1.8 4.5 1.4 4.5 4.1 0 1.3-1.2 2.3-2.8 2.3-2.1 0-3.1-1.4-3.1-1.4l.5-.9zm12.1-6.3c2.2 0 3.4 1.7 3.4 3.7v.5h-6.2c0 2 1.5 3.2 3.1 3.2 1.5 0 2.4-1 2.4-1l.5.8s-1.2 1.2-3 1.2c-2.4 0-4.2-1.7-4.2-4.2.1-2.6 1.9-4.2 4-4.2zm2.3 3.4c-.1-1.7-1.1-2.5-2.3-2.5-1.3 0-2.5.9-2.8 2.5h5.1zm4.9-1.9c0-.2-.1-.4-.4-.4h-.7v-.9h1.1c.7 0 1 .3 1 .9v1.1c.4-1.2 1.3-2.1 2.5-2.1h.4v1.1h-.4c-1.1 0-2 .9-2.3 2.1-.2.5-.2 1.1-.2 1.6v3.4h-1.1v-6.8zm10.3-1.5c2.2 0 3.4 1.7 3.4 3.7v.5h-6.2c0 2 1.5 3.2 3.1 3.2 1.5 0 2.4-1 2.4-1l.5.8s-1.2 1.2-3 1.2c-2.4 0-4.2-1.7-4.2-4.2 0-2.6 1.8-4.2 4-4.2zm2.3 3.4c-.1-1.7-1.1-2.5-2.3-2.5-1.3 0-2.5.9-2.8 2.5h5.1zm10.8-1.9c0-.2-.1-.4-.4-.4h-.7v-.9h1.1c.7 0 1 .3 1 .9v1.1c.4-1.2 1.3-2.1 2.5-2.1h.4v1.1h-.4c-1.1 0-2 .9-2.3 2.1-.2.5-.2 1.1-.2 1.6v3.4h-1.1v-6.8zm7.5 0c0-.2-.1-.4-.4-.4h-.7v-.9h1.1c.7 0 1 .3 1 1v5.8c0 .2.1.4.4.4h.7v.9h-1.1c-.7 0-1-.3-1-1v-5.8zm0-4.5h1.1v1.4h-1.1v-1.4zm9 3c.9 0 2.9.4 2.9 1.7v.7h-1v-.5c0-.7-1.2-1-1.8-1-1.7 0-3.1 1.3-3.1 3.3 0 2 1.5 3.2 3.2 3.2 1.7 0 2.6-1.1 2.6-1.1l.5.8s-1.1 1.3-3.2 1.3c-2.4 0-4.2-1.7-4.2-4.2-.1-2.4 1.7-4.2 4.1-4.2zm6.7 1.5c0-.2-.1-.4-.4-.4h-.6v-.9h1.1c.7 0 1 .3 1 1v5.8c0 .2.1.4.4.4h.7v.9H151c-.7 0-1-.3-1-1v-5.8zm0-4.5h1.1v1.4H150v-1.4zm9 3c.9 0 2.9.4 2.9 1.7v.7h-1v-.5c0-.7-1.2-1-1.8-1-1.7 0-3.1 1.3-3.1 3.3 0 2 1.5 3.2 3.2 3.2 1.7 0 2.6-1.1 2.6-1.1l.5.8s-1.1 1.3-3.2 1.3c-2.4 0-4.2-1.7-4.2-4.2-.1-2.4 1.7-4.2 4.1-4.2zm6.5-1.7c0-.2-.1-.4-.4-.4h-.7v-.9h1.1c.7 0 1 .3 1 1v9c0 .2.1.4.4.4h.7v.9h-1.1c-.7 0-1-.3-1-1v-9zm9.8 5h.4v-.1c0-1.7-.6-2.3-2.1-2.3-.4 0-1.6.1-1.6.7v.5h-1v-.8c0-1.1 1.9-1.4 2.6-1.4 2.5 0 3.2 1.4 3.2 3.1v3.9c0 .2.1.4.4.4h.7v.9h-1.1c-.7 0-1-.3-1-1v-.6s-.7 1.7-2.7 1.7c-1.3 0-2.7-.8-2.7-2.4-.1-2.5 3.5-2.6 4.9-2.6zm-2.1 4.2c1.5 0 2.5-1.6 2.5-3v-.4h-.5c-1.3 0-3.8 0-3.8 1.8 0 .8.6 1.6 1.8 1.6zm7.9-9.2c0-.2-.1-.4-.4-.4h-.7v-.9h1.1c.7 0 1 .3 1 1v3.6s.7-1.5 2.7-1.5c2.2 0 3.5 1.7 3.5 4.2s-1.5 4.2-3.6 4.2c-1.9 0-2.6-1.6-2.6-1.6v1.4H181v-10zm3.6 9.2c1.4 0 2.6-1.2 2.6-3.3 0-2-1.1-3.2-2.5-3.2-1.3 0-2.6 1-2.6 3.3 0 1.6.8 3.2 2.5 3.2zm7.5-6c0-.2-.1-.4-.4-.4h-.7v-.9h1.1c.7 0 1 .3 1 1v5.8c0 .2.1.4.4.4h.7v.9h-1.1c-.7 0-1-.3-1-1v-5.8zm0-4.5h1.1v1.4h-1.1v-1.4zm5.5 1.3c0-.2-.1-.4-.4-.4h-.7v-.9h1.1c.7 0 1 .3 1 1v9c0 .2.1.4.4.4h.7v.9h-1.1c-.7 0-1-.3-1-1v-9zm5.6 3.2c0-.2-.1-.4-.4-.4h-.7v-.9h1.1c.7 0 1 .3 1 1v5.8c0 .2.1.4.4.4h.7v.9h-1.1c-.7 0-1-.3-1-1v-5.8zm0-4.5h1.1v1.4h-1.1v-1.4zM53.1 238.9c2.2 0 3.4 1.7 3.4 3.7v.5h-6.2c0 2 1.5 3.2 3.1 3.2 1.5 0 2.4-1 2.4-1l.5.8s-1.2 1.2-3 1.2c-2.4 0-4.2-1.7-4.2-4.2 0-2.6 1.8-4.2 4-4.2zm2.2 3.4c-.1-1.7-1.1-2.5-2.3-2.5-1.3 0-2.5.9-2.8 2.5h5.1zm10.9-1.9c0-.2-.1-.4-.4-.4h-.7v-.9h1.1c.7 0 1 .3 1 .9v1.1c.4-1.2 1.3-2.1 2.5-2.1h.4v1.1h-.4c-1.1 0-2 .9-2.3 2.1-.2.5-.2 1.1-.2 1.6v3.4h-1.1v-6.8zm7.5 0c0-.2-.1-.4-.4-.4h-.7v-.9h1.1c.7 0 1 .3 1 1v5.8c0 .2.1.4.4.4h.7v.9h-1.1c-.7 0-1-.3-1-1v-5.8zm-.1-4.5h1.1v1.4h-1.1v-1.4zm5.6 4.5c0-.2-.1-.4-.4-.4h-.7v-.9h1.1c.7 0 1 .3 1 .9v3.9c0 1.3.2 2.4 1.8 2.4 1.8 0 3-1.6 3-3.4V239h1.1v6.8c0 .2.1.4.4.4h.7v.9H86c-.7 0-1-.3-1-.9v-1c-.3.8-1.4 2-3.1 2-1.9 0-2.7-1-2.7-3.1v-3.7zm11.4-.4h-1.1v-.9h1.1v-2.2h1.1v2.2h2v.9h-2v4.1c0 1.9 1.2 2.1 1.8 2.1h.4v1h-.5c-.9 0-2.8-.3-2.8-3V240zm6.9.4c0-.2-.1-.4-.4-.4h-.7v-.9h1.1c.7 0 1 .3 1 1v5.8c0 .2.1.4.4.4h.7v.9h-1.1c-.7 0-1-.3-1-1v-5.8zm0-4.5h1.1v1.4h-1.1v-1.4zm5.6 1.3c0-.2-.1-.4-.4-.4h-.7v-.9h1.1c.7 0 1 .3 1 1v9c0 .2.1.4.4.4h.7v.9H104c-.7 0-1-.3-1-1v-9zm5.6 3.2c0-.2-.1-.4-.4-.4h-.7v-.9h1.1c.7 0 1 .3 1 1v5.8c0 .2.1.4.4.4h.7v.9h-1.1c-.7 0-1-.3-1-1v-5.8zm-.1-4.5h1.1v1.4h-1.1v-1.4zm4.9 10.6l4.5-5.7c.3-.4.6-.7.6-.7h-3.7c-.2 0-.4.1-.4.4v.6h-1v-1c0-.7.3-1 1-1h5.6v.7l-4.5 5.6c-.3.4-.7.7-.7.7h4.1c.2 0 .4-.1.4-.4v-.6h1v1c0 .7-.3 1-1 1h-6v-.6zm9.6 0l4.5-5.7c.3-.4.6-.7.6-.7h-3.7c-.2 0-.4.1-.4.4v.6h-1v-1c0-.7.3-1 1-1h5.6v.7l-4.5 5.6c-.3.4-.7.7-.7.7h4.1c.2 0 .4-.1.4-.4v-.6h1v1c0 .7-.3 1-1 1h-6v-.6zm14.5-4.3h.4v-.1c0-1.7-.6-2.3-2.1-2.3-.4 0-1.6.1-1.6.7v.5h-1v-.8c0-1.1 1.9-1.4 2.6-1.4 2.5 0 3.2 1.4 3.2 3.1v3.9c0 .2.1.4.4.4h.7v.9h-1.1c-.7 0-1-.3-1-1v-.6s-.7 1.7-2.7 1.7c-1.3 0-2.7-.8-2.7-2.4 0-2.5 3.5-2.6 4.9-2.6zm-2 4.2c1.5 0 2.5-1.6 2.5-3v-.4h-.5c-1.3 0-3.8 0-3.8 1.8 0 .9.6 1.6 1.8 1.6zm7.9-9.2c0-.2-.1-.4-.4-.4h-.7v-.9h1.1c.7 0 1 .3 1 1v3.6s.7-1.5 2.7-1.5c2.2 0 3.5 1.7 3.5 4.2s-1.5 4.2-3.6 4.2c-1.9 0-2.6-1.6-2.6-1.6v1.4h-1.1v-10zm3.6 9.2c1.4 0 2.6-1.2 2.6-3.3 0-2-1.1-3.2-2.5-3.2-1.3 0-2.6 1-2.6 3.3-.1 1.6.7 3.2 2.5 3.2zm7.4-6c0-.2-.1-.4-.4-.4h-.7v-.9h1.1c.7 0 1 .3 1 1v5.8c0 .2.1.4.4.4h.7v.9h-1.1c-.7 0-1-.3-1-1v-5.8zm0-4.5h1.1v1.4h-1.1v-1.4zm5.6 1.3c0-.2-.1-.4-.4-.4h-.7v-.9h1.1c.7 0 1 .3 1 1v9c0 .2.1.4.4.4h.7v.9H161c-.7 0-1-.3-1-1v-9zm5.6 3.2c0-.2-.1-.4-.4-.4h-.7v-.9h1.1c.7 0 1 .3 1 1v5.8c0 .2.1.4.4.4h.7v.9h-1.1c-.7 0-1-.3-1-1v-5.8zm0-4.5h1.1v1.4h-1.1v-1.4zm14.7 3c2.2 0 3.4 1.7 3.4 3.7v.5h-6.2c0 2 1.5 3.2 3.1 3.2 1.5 0 2.4-1 2.4-1l.5.8s-1.2 1.2-3 1.2c-2.4 0-4.2-1.7-4.2-4.2 0-2.6 1.9-4.2 4-4.2zm2.3 3.4c-.1-1.7-1.1-2.5-2.3-2.5-1.3 0-2.5.9-2.8 2.5h5.1zm4.9-1.9c0-.2-.1-.4-.4-.4h-.7v-.9h1.1c.7 0 1 .3 1 .9v1c.3-.7 1.3-2 3.2-2 2 0 2.7 1.1 2.7 3.1v3.8c0 .2.1.4.4.4h.7v.9h-1.1c-.7 0-1-.3-1-1v-3.9c0-1.3-.2-2.4-1.7-2.4-1.4 0-2.6.9-2.9 2.3-.1.3-.1.7-.1 1.1v3.9h-1.1v-6.8zm11.4-.4h-1v-.9h1.1v-2.2h1.1v2.2h2v.9h-2v4.1c0 1.9 1.2 2.1 1.8 2.1h.4v1h-.5c-.9 0-2.8-.3-2.8-3V240zm6.9.4c0-.2-.1-.4-.4-.4h-.7v-.9h1.1c.7 0 1 .3 1 .9v1.1c.4-1.2 1.3-2.1 2.5-2.1h.4v1.1h-.4c-1.1 0-2 .9-2.3 2.1-.2.5-.2 1.1-.2 1.6v3.4h-1.1v-6.8zm10.6-1.5c2.4 0 4.3 1.8 4.3 4.2 0 2.4-1.9 4.3-4.2 4.3-2.4 0-4.3-1.8-4.3-4.3-.1-2.4 1.8-4.2 4.2-4.2zm0 7.5c1.7 0 3.1-1.4 3.1-3.3 0-1.8-1.4-3.2-3.1-3.2-1.7 0-3.1 1.4-3.1 3.2-.1 1.9 1.4 3.3 3.1 3.3zm-109.4 13.2c0-.2-.1-.4-.4-.4h-.7v-.9h1.1c.7 0 1 .3 1 1v5.8c0 .2.1.4.4.4h.7v.9h-1.1c-.7 0-1-.3-1-1v-5.8zm0-4.5h1.1v1.4h-1.1v-1.4zm5.6 1.3c0-.2-.1-.4-.4-.4h-.7v-.9h1.1c.7 0 1 .3 1 1v9c0 .2.1.4.4.4h.7v.9h-1.1c-.7 0-1-.3-1-1v-9zm16.7 1.7c0-1.2-.9-2.1-2.3-2.1-1.1 0-2 .6-2 1.2v.5H124v-.8c0-1.4 1.9-2 3.1-2 2.1 0 3.4 1.4 3.4 3.2 0 4-6 3.9-6 7 0 .2.1.3.4.3h4.7c.2 0 .4-.1.4-.4v-.8h1v1.1c0 .7-.3 1-1 1h-5.6c-.8 0-1-.3-1-1.1 0-4.1 6-3.7 6-7.1zm4.9 2.7c0-3.2.9-5.8 3.9-5.8 2.9 0 3.9 2.6 3.9 5.8 0 3.3-1 5.8-3.9 5.8-3 0-3.9-2.6-3.9-5.8zm6.6 0c0-2.7-.6-4.8-2.7-4.8s-2.7 2.1-2.7 4.8c0 2.7.6 4.8 2.7 4.8s2.7-2.1 2.7-4.8zm4.6 3.4s1.2 1.3 2.9 1.3c1.3 0 2.5-1 2.5-2.4 0-1.5-1.3-2.4-2.7-2.4h-.8l-.3-.7 2.8-3.3c.3-.4.6-.6.6-.6h-3.8c-.2 0-.4.1-.4.4v.8h-1v-1.1c0-.7.3-1 .9-1h5.7v.7l-3.3 3.9c1.4.1 3.5.9 3.5 3.3 0 1.9-1.6 3.5-3.7 3.5-2.2 0-3.6-1.6-3.6-1.6l.7-.8zm10-3.4c0-3.2.9-5.8 3.9-5.8 2.9 0 3.9 2.6 3.9 5.8 0 3.3-1 5.8-3.9 5.8-3 0-3.9-2.6-3.9-5.8zm6.6 0c0-2.7-.6-4.8-2.7-4.8s-2.7 2.1-2.7 4.8c0 2.7.6 4.8 2.7 4.8s2.7-2.1 2.7-4.8z"/></svg>