<svg id="Livello_1" xmlns="http://www.w3.org/2000/svg" xmlns:xlink="http://www.w3.org/1999/xlink" viewBox="0 0 1169.9 532.6" enable-background="new 0 0 1169.9 532.6"><style>.st0{fill:#df0514}.st1{filter:url(#Adobe_OpacityMaskFilter)}.st2{fill:url(#SVGID_2_)}.st3{opacity:.1;mask:url(#SVGID_1_)}.st4,.st5{fill:none;stroke:#404040;stroke-width:1.2795;stroke-miterlimit:10}.st5{stroke-dasharray:3.3312,3.3312}.st6{fill:#404040}.st10{fill:none;stroke:#000;stroke-miterlimit:10}.st7{stroke-width:.853}.st7,.st8,.st9{fill:none;stroke:#000;stroke-miterlimit:10}.st8{stroke-width:.9789}.st10,.st9{stroke-width:1.2795}.st10{stroke-dasharray:3.3404,3.3404}.st11{fill:#868686}.st12{fill:#9e9e9e}.st13{stroke:#cecece}.st13,.st14,.st15,.st16,.st17,.st18{fill:none;stroke-miterlimit:10}.st14{stroke:#a2a2a2}.st15{stroke:#dbdbdb}.st16{stroke:#d2d2d2}.st17{stroke:#cdcdcd}.st18{stroke:#000;stroke-width:.738}.st19{fill:#666}.st20{fill:#4f4f4f}.st21{fill:#7b7b7b}.st22{fill-rule:evenodd;clip-rule:evenodd;fill:#777}.st23{fill:#a2a2a2}.st24{fill:#dbdbdb}.st25{fill:#cecece}.st26{fill:#d2d2d2}.st27{fill:#cdcdcd}.st28{fill:#fff}.st29{fill:none;stroke:#ededed;stroke-width:.853;stroke-miterlimit:10}.st30{fill:#ebebeb}.st31{clip-path:url(#SVGID_4_)}.st32,.st33{fill:none;stroke:#636362;stroke-width:1.2795;stroke-miterlimit:10}.st33{stroke-dasharray:3.3312,3.3312}.st34{fill:#636362}.st35{fill:#12100b}.st36{stroke:#1d1d1b;stroke-width:.853}.st36,.st37,.st38,.st39{fill:none;stroke-miterlimit:10}.st37{stroke:#12100b;stroke-width:.9789}.st38,.st39{stroke:#1d1d1b;stroke-width:1.2795}.st39{stroke-dasharray:3.3404,3.3404}.st40{fill:#1d1d1b}.st41{fill:#00295a}.st42{fill:#ee7900}.st43{fill:#009c3d}.st44{stroke:#d8b200}.st44,.st45,.st46,.st47,.st48,.st49{fill:none;stroke-miterlimit:10}.st45{stroke:#ac9ead}.st46{stroke:#82c3e3}.st47{stroke:#b4cc6f}.st48{stroke:#d9c086}.st49{stroke:#1d1d1b;stroke-width:.738}.st50{fill:#e40077}.st51{fill:#e30520}.st52{fill:#00883d}.st53{fill-rule:evenodd;clip-rule:evenodd;fill:#ea6508}.st54{fill:#ac9ead}.st55{fill:#82c3e3}.st56{fill:#d8b200}.st57{fill:#b4cc6f}.st58{fill:#d9c086}.st59{fill:none;stroke:#ececec;stroke-width:.853;stroke-miterlimit:10}.st60{fill:#ebeae9}.st61{fill:#ceb112}</style><path class="st0" d="M1142.8 249.1H1132l-3.4-10.1-3.4 10.1h-11.6l9.1 6.2-3.5 10.1 9.4-6.3 8.7 6.3-3.5-10.1 9-6.2zm-7.7 13.6l-6.6-4.8-7.3 4.8 2.7-7.7-7-4.8h9l2.6-7.8 2.6 7.8h8.2l-7 4.8 2.8 7.7zm2.6-12h-6.9l-2.2-6.6-2.2 6.6h-7.7l5.9 4-2.3 6.6 6.2-4.1 5.6 4.1-2.3-6.6 5.9-4z"/><defs><filter id="Adobe_OpacityMaskFilter" filterUnits="userSpaceOnUse" x="19.7" y="23.1" width="444.1" height="461.9"><feColorMatrix values="1 0 0 0 0 0 1 0 0 0 0 0 1 0 0 0 0 0 1 0"/></filter></defs><mask maskUnits="userSpaceOnUse" x="19.7" y="23.1" width="444.1" height="461.9" id="SVGID_1_"><g class="st1"><radialGradient id="SVGID_2_" cx="266.466" cy="189.994" r="220.333" gradientTransform="matrix(1.0847 0 0 1.0955 -54.197 42.176)" gradientUnits="userSpaceOnUse"><stop offset="0" stop-color="#fff"/><stop offset="1"/></radialGradient><path class="st2" d="M-4.2 8.9h478v482.8h-478z"/></g></mask><g class="st3"><path class="st4" d="M444.3 376c-.3.5-.6.9-.9 1.4"/><path class="st5" d="M441.6 380.3c-57.4 88.2-170.2 127.9-272.7 89.3C50.4 424.9-9.4 292.8 35.1 174.3 75.1 68.2 185.2 9.1 292.9 30"/><path class="st4" d="M294.5 30.3c.5.1 1.1.2 1.6.3"/><circle class="st6" cx="444.3" cy="376" r="7"/><path class="st6" d="M298.3 31l-.8-7.9 11.3 9.7-13.9 5.5z"/><path d="M248.9 46c114.7 0 208.1 92.4 209.2 207.3 1.1 115.6-91.7 210.1-207.3 211.2h-2c-114.7 0-208.1-92.4-209.2-207.3C38.5 141.7 131.3 47.1 246.9 46h2m0-.8h-2c-28.4.3-55.8 6.1-81.6 17.3-24.9 10.8-47.2 26.2-66.4 45.7s-34 42.1-44.4 67.2c-10.7 26-16 53.6-15.7 81.9.3 28.2 6 55.5 17.1 81.2 10.7 24.8 25.9 47 45.2 66.1 19.3 19.1 41.7 34.1 66.6 44.5 25.8 10.8 53.1 16.3 81.2 16.3h2c28.4-.3 55.8-6.1 81.6-17.3 24.9-10.8 47.2-26.2 66.4-45.7s34-42.1 44.4-67.2c10.7-26 16-53.6 15.7-81.9-.3-28.2-6-55.5-17.1-81.2-10.7-24.8-25.9-47-45.2-66.1-19.3-19.1-41.7-34.1-66.6-44.5-25.7-10.9-53-16.3-81.2-16.3z"/><path class="st7" d="M153.1 224.4l208.2 67.1M258.8 141.1l-20.1 231.4m-50.1-197.7l131.1 175m-2.9-191L188 355.8m144.8-182.4L164.5 337.5m71.1-181l28.9 214.8"/><path class="st8" d="M354.7 203.3l-211.8 104M365 237.2L135.1 273"/><path class="st9" d="M259.3 137c.6.1 1.1.1 1.7.2"/><path class="st10" d="M264.3 137.6c52.7 7.2 95.7 49.5 101.4 104.8 6.7 64.8-40.4 122.8-105.2 129.4-57.5 5.9-109.6-30.5-125.3-84"/><path class="st9" d="M134.7 286.2c-.1-.5-.3-1.1-.4-1.6"/><circle cx="259.3" cy="137" r="6.1"/><path d="M134 283.7l-5.6 3.5 3-12 9.3 8.3zm114.9-113.4c22.5 0 43.7 8.7 59.7 24.6 16 15.9 25 37 25.2 59.6.4 46.8-37.3 85.3-84.1 85.7h-.8c-22.5 0-43.7-8.7-59.7-24.6-16-15.9-25-37-25.2-59.6-.2-22.7 8.4-44.1 24.3-60.3 15.9-16.2 37.1-25.2 59.8-25.4h.8m0-8h-.9c-51.3.5-92.5 42.5-92.1 93.8.5 51 42 92.1 92.9 92.1h.9c51.3-.5 92.5-42.5 92.1-93.8-.5-51-42-92.1-92.9-92.1z"/><path class="st11" d="M248.9 162.7c24.5 0 47.7 9.5 65.1 26.8 17.5 17.3 27.2 40.3 27.4 64.9.2 24.7-9.2 48.1-26.5 65.7s-40.5 27.5-65.2 27.7h-.9c-24.5 0-47.7-9.5-65.1-26.8-17.5-17.3-27.2-40.3-27.4-64.9-.5-51 40.7-93 91.7-93.4h.9m0-8h-1c-55.5.5-100.1 46-99.6 101.5.5 55.2 45.4 99.6 100.5 99.6h1c55.5-.5 100.1-46 99.6-101.5-.5-55.2-45.4-99.6-100.5-99.6z"/><path class="st12" d="M248.9 155.6c26.4 0 51.3 10.2 70.1 28.8 18.8 18.6 29.3 43.4 29.5 69.8.3 26.6-9.9 51.7-28.5 70.7s-43.6 29.6-70.2 29.8h-1c-26.4 0-51.3-10.2-70.1-28.8-18.8-18.6-29.3-43.4-29.5-69.8-.3-26.6 9.9-51.7 28.5-70.7s43.6-29.6 70.2-29.8h1m0-8h-1c-59.4.6-107.1 49.2-106.6 108.6.6 59.1 48.6 106.6 107.6 106.6h1c59.4-.6 107.1-49.2 106.6-108.6-.6-59-48.6-106.6-107.6-106.6z"/><path class="st13" d="M303.2 92.7c22.7 7.6 43.7 19.9 61.4 36.1 21.7 19.8 38.6 45.5 48 75.7 5.6 18.2 8.1 36.6 7.7 54.7"/><path class="st14" d="M110.3 154.5c21-28.9 51.1-51.5 87.9-62.9 35.6-11.1 72.2-9.9 105 1.1"/><path class="st15" d="M108.9 354.2c-10.1-14.3-18.2-30.5-23.7-48.2-16.6-53.7-5.6-109.3 25.1-151.6"/><path class="st16" d="M194.6 417.8c-34.2-11.5-64.5-33.6-85.7-63.7m191.5 64.6c-.3.1-.5.2-.8.3-35.6 11.1-72.2 9.9-105-1.1"/><path class="st17" d="M420.2 259.2c-1.6 71.4-48.1 136.9-119.8 159.5"/><path class="st7" d="M365 258l-187.9-4.2m98.9-79.7l-95.3 285.3"/><path class="st18" d="M399 149.1L161.2 316.6"/><path class="st7" d="M332.4 256.9l-269.5-5.4m331.4 109.6L103.4 149.4m199 277.6L195.3 83.5"/><path class="st19" d="M394 211.3c-.4 2.2-1.3 5-.1 6.8 1.7 2.6 6.2 4.2 7.1 5.3 0 0 .1.6-.5.3-4.8-2.7-10.3-1.7-12.9.9 0 0-1.2-.7-1.6-1-1.4-.3-6.7 2-8.2 3 0 0-.7-.1-.2-.5 2.6-2.1 5.3-3.5 6.5-4 .5-.2.4-.4-.1-.4-1.8-.1-4.1.2-8.1 1.2 0 0-.7-.2 0-.6 3.6-1.7 15.6-4.3 15.6-4.6.4-2.6 1.5-5.3 2.2-6.4.1-.2.3 0 .3 0z" id="XMLID_216_"/><path class="st19" d="M390.4 202.3c0 .4.2.7.5.9.4.4 1 .6 1.7.5.7 0 1.3-.3 1.6-.7.3-.3.4-.6.4-1 0-.3-.2-.7-.5-.9-.4-.4-1-.6-1.7-.5-.7 0-1.3.3-1.6.7-.3.3-.4.7-.4 1z" id="XMLID_212_"/><path class="st19" d="M396.9 218.3c.5-.3.8-.8 1-1.2.1-.3 0-.7-.1-.9-.2-.3-.4-.4-.8-.5-.5-.1-1.1 0-1.6.3-.9.5-1.2 1.5-.8 2.2.4.6 1.4.7 2.3.1z" id="XMLID_208_"/><path class="st19" d="M387.2 213c.1.2.3.4.5.5.4.2 1 .2 1.5 0 .9-.3 1.4-1.1 1.2-1.7-.1-.2-.3-.4-.5-.5-.4-.2-1-.2-1.5 0-.8.4-1.4 1.1-1.2 1.7z" id="XMLID_204_"/><path class="st19" d="M374.6 214.8c3.6-.5 5.5-.4 6-.4-.8.3-3.7 1.9-4.6 2.6-.5.5 0 .7 0 .7 9.3-3.9 11.3-1.9 13.9-.3.3.2.4-.1.4-.1-.2-.4-1.7-2-1.9-2.1-3.8-3.5-1.6-6.4-1.4-7.1 0 0-.1-.3-.5 0-.5.4-1.7 2.2-2.1 4-2.4 0-8.1 1.4-9.9 2.1-.5.3.1.6.1.6z" id="XMLID_200_"/><path class="st19" d="M384.9 192.2c-.6 3.1.2 8.1.8 10.2-6.5 1.1-13.4 3.5-16.6 5.4-.8.5 0 .8 0 .8 3.5-1.3 9.2-2.3 10.8-1.6-1.8 1-6 3.9-8.5 7-.5.6.1.8.1.8 13.4-9 18.1-8.4 23.1-7.7 1.6.2 3.2.4 5.1.4.9 0 .3-.8.3-.8-7.4-.7-13.7-3.2-14.5-15 0 .1-.4-.1-.6.5z" id="XMLID_196_"/><path class="st19" d="M102.9 206.1c1.6-1.5 4-3.2 4.1-5.4.2-3.1-2.5-7.1-2.6-8.5 0 0 .3-.6.6.1 2.3 5 7.3 7.5 10.9 6.9 0 0 .5 1.3.7 1.8.9 1.1 6.6 2.3 8.4 2.5 0 0 .5.5-.1.5-3.3.2-6.3-.3-7.6-.6-.5-.1-.6.1-.2.4 1.4 1.2 3.4 2.3 7.3 3.9 0 0 .4.6-.3.5-3.9-.7-15.1-5.8-15.3-5.5-1.9 1.8-4.3 3.4-5.5 3.8-.4 0-.4-.4-.4-.4z" id="XMLID_192_"/><path class="st19" d="M100.5 215.6c.2-.3.3-.6.2-1-.1-.5-.5-1.1-1-1.4-.5-.4-1.2-.5-1.7-.4-.4.1-.7.3-.9.6-.2.3-.3.7-.2 1 .1.5.5 1.1 1 1.4.5.4 1.2.5 1.7.4.4-.1.7-.3.9-.6z" id="XMLID_188_"/><path class="st19" d="M104.7 198.8c-.6 0-1.1.1-1.5.4-.3.2-.4.5-.4.8 0 .3.1.6.3.9.3.4.9.6 1.4.7 1 .1 1.9-.5 1.9-1.3.1-.7-.7-1.4-1.7-1.5z" id="XMLID_184_"/><path class="st19" d="M109.3 208.8c.1-.2 0-.5-.1-.7-.2-.4-.7-.7-1.2-.9-.9-.3-1.8 0-2 .6-.1.2 0 .5.1.7.2.4.7.7 1.2.9 1 .3 1.8 0 2-.6z" id="XMLID_180_"/><path class="st19" d="M120.6 214.9c-3.2-1.7-4.7-2.9-5.1-3.3.9.3 4.1.7 5.3.6.7-.1.4-.6.4-.6-9.8-2.4-10.3-5.2-11.4-8-.1-.3-.4-.2-.4-.2-.1.5.2 2.6.3 2.9 1 5.1-2.5 6.1-3.1 6.6 0 0-.1.3.4.3.6-.1 2.7-.8 4.1-2 1.9 1.4 7.3 3.7 9.2 4.2.6.1.3-.5.3-.5z" id="XMLID_176_"/><path class="st19" d="M98.9 226.9c2.3-2.1 4.6-6.6 5.4-8.7 5.9 2.9 12.9 5.1 16.6 5.5 1 .1.5-.6.5-.6-3.6-1-8.8-3.7-9.6-5.1 2 .3 7.2.4 11-.6.8-.2.4-.7.4-.7-16.1-.7-19.6-4-23.1-7.5-1.2-1.1-2.3-2.2-3.9-3.3-.8-.5-.7.4-.7.4 5.6 4.9 9.2 10.7 2.8 20.7-.2-.1.1.4.6-.1z" id="XMLID_172_"/><path class="st20" d="M253.8 414.7l-3-9.7 8.3-5.8-10.1-.1-3-9.7-3.3 9.6-10.1-.1 8.1 6.1-3.3 9.6 8.3-5.8 8.1 5.9zm-14.8-2.4l2.6-7.7-6.6-4.9 8.2.1 2.6-7.8 2.4 7.8 8.2.1-6.7 4.7 2.4 7.8-6.6-4.9-6.5 4.8z"/><path class="st20" d="M245.9 394.2l-2.2 6.3-6.6-.1 5.3 4-2.1 6.2 5.4-3.8 5.3 4v-.1l-2-6.2 5.5-3.9-6.7-.1-1.9-6.3zm-70.3-242.8l-3-9.7 8.3-5.8-10.1-.1-3-9.7-3.3 9.6-10.1-.1 8.1 6.1-3.3 9.6 8.3-5.8 8.1 5.9zm-14.7-2.4l2.6-7.7-6.6-4.9 8.2.1 2.6-7.8 2.4 7.8 8.2.1-6.7 4.7 2.4 7.8-6.6-4.9-6.5 4.8z"/><path class="st20" d="M167.7 130.9l-2.1 6.3-6.6-.1 5.3 3.9-2.2 6.3 5.5-3.8 5.3 3.9-2-6.3 5.5-3.8-6.7-.1-2-6.3z"/><path class="st21" d="M339.2 158.4l.3-9c.2-6.2.4-12.9.6-19l-26.8 10.1s.1.1.2.1c1.6 1.2 3.2 2.3 4.9 3.5l.2.2 14.2-5.2c1-.4 1.5 0 1.5 1-.1 4.5-.3 10.5-.4 15 0 0 .6.4 1.4 1 .3.2.5.4.8.6 1.1.8 2.1 1.5 3.3 2.3-.3-.2-.3-.4-.2-.6zm-1.4-20.1l-.7-.5-.3-.2v-1.7c-.1-.7-.5-1-1.2-.8-.4.1-1.2.5-1.6.6 0 0-.1-.1-.3-.2-.4-.3-.9-.7-1.5-1.1 2.2-.8 4.3-1.6 6.5-2.4l-.2 6.7c0 .1-.7-.4-.7-.4zM116.1 280.9c-1.9 2.3-3.7 4.7-5.6 7-3.9 4.8-8 10-11.9 14.9l27.5 8s0-.2-.1-.2l-1.8-5.7-.1-.3-14.4-4.4c-1-.3-1.2-.9-.6-1.7 2.8-3.6 6.5-8.2 9.4-11.8 0 0-.2-.6-.5-1.6-.1-.3-.2-.6-.3-1-.4-1.2-.8-2.5-1.2-3.8-.2.3-.3.5-.4.6zm-11 16.9s.2.8.3.8l.1.3c-.2.2-.8 1-1 1.4-.4.6-.2 1.1.5 1.3.4.1 1.2.4 1.7.5 0 0 0 .1.1.4.2.5.3 1.1.5 1.8-2.3-.7-4.4-1.3-6.6-2l4.2-5.2c-.1-.2.2.7.2.7z"/><path class="st22" d="M155.5 382.3c-.2-1.1-.4-2.1-.1-3.2.1-.3 0-.4-.3-.6-.9-.4-1.6-1.1-2.2-2 2 .6 4 .6 6.1.2-1.6 1.7-2.6 3.6-3.5 5.6z"/><path class="st22" d="M152.1 372.3c-.5 1.2-.1 2.8 1.1 3.5.9.5 1.8.8 2.8.8 2.3 0 4.2-.9 5.9-2.4.8-.7 1.5-1.5 2.1-2.4.2-.3.2-.3.5-.1l.1.1c-.1.2-.2.4-.3.5-.5.8-1 1.6-1.7 2.3-.8.8-1.7 1.6-2.6 2.4-.8.8-1.6 1.6-2.2 2.5-.6.9-1.1 1.9-1.4 3-.5 1.8-.7 3.5-.4 5.3 0 .3.1.5.1.8 1-.4 1.9-.9 2.8-1.5 1.1-.8 2-1.8 2.7-2.9.5-.8 1-1.7 1.3-2.6.4-1 .5-2 .7-3 .2-1.7.4-3.4 1.1-5 .2-.5.4-.9.6-1.4.2.1.3.1.5.2 0 .1-.1.2-.1.2-.2.5-.4 1-.6 1.6-.6 2.3-.5 4.6.5 6.8.6 1.2 1.4 2.2 2.7 2.8.5.2.9.3 1.4.2 1.3-.1 2.4-1.2 2.6-2.6.2-1.1-.1-2.1-.6-3.1-.4-.8-.8-1.7-1.2-2.5-.3-.7-.6-1.4-.5-2.2v-.1c-.4.3-.8.6-1.1.9.1.2.3.5.5.8.3.5.5 1 .4 1.6-.1 1.1-1.1 1.8-2.1 1.4-.6-.2-.9-.6-1.2-1.2-.5-1-.6-2.1-.3-3.1.1-.4.3-.8.4-1.2.4.1.7.2 1 .3.6.1.6.1.8-.4v-.2l-.4-.4c-.2-.2-.4-.3-.6-.5.3-.4.7-.6 1.1-.7.7-.2 1.4-.2 2 .3.2.1.3.3.4.5.2-.2.4-.5.5-.9.2-.8-.1-1.5-.9-1.8-.7-.3-1.3-.2-1.9.1-.8.4-1.4 1-2 1.7-.2.3-.2.3-.5.1-.1-.1-.1-.1 0-.3.5-.6 1-1.2 1.5-1.7.4-.4.7-.8.9-1.4.3-.9.4-1.7.2-2.6-.4.8-2.3 4.4-2.3 4.4s.7-.3 1.2-1c.6-.8.8-1.4.8-1.7v-.1.1c-.1.3-.3 1.2-.7 1.7-.6.8-1.5 1.1-1.5 1.1s-.4-1.3.4-2.7c.4-.6 1.4-1.3 1.9-1.9v-.3c-.3.2-.7.4-1 .6-.7.5-1.3 1.1-1.6 1.9-.2.5-.3 1-.4 1.5-.1.6-.3 1.2-.5 1.8-.2-.1-.3-.1-.4-.2v-.1c0-.1.1-.3.1-.4.2-.8.4-1.7.2-2.6-.1-.7-.5-1.3-1.2-1.6-.7-.3-1.4-.1-1.8.6-.2.3-.3.5-.4.8 1.3-.3 2.5 1.4 2.1 2.9-.3-.1-.6-.2-.9-.2-.6-.1-.5-.1-.8.4-.1.1-.1.2.1.3.3.3.6.5 1 .8.1.1.1.1 0 .3-.5.8-1.1 1.4-1.8 1.9-.8.5-1.7.7-2.6.5-.6-.1-1-.5-1.2-1-.3-.8.1-1.6.9-2 .4-.2.9-.3 1.3-.3.3 0 .6 0 .9-.1-.1-.5 0-.9.1-1.3v-.1h-.2c-.4.3-.8.5-1.3.6-1.1.2-2.1.4-3.2.6-.7.1-1.3.2-1.9.5-.7.2-1.5.8-1.9 1.8zm17 6.4c1.5-.5 1.4-2.1 1.4-2.1s.8 1.5.4 3.1c-.1.4-.4 1-1 1.3-1 .4-1.7-.2-2.1-.6-2.1-1.9-2.2-4.8-2.2-4.8 1 3 2.5 3.5 3.5 3.1zm-3.2.5c1.1 4 3.6 4.3 4.5 4.1 2-.5 1.7-3.4 1.7-3.4s.3 1.2-.3 2.4c-.1.2-.6 1-1.2 1.2-1 .4-2.1 0-2.7-.5-3.6-2.8-2.3-7.4-2.3-7.4 0 1.5 0 2.7.3 3.6zm4.6-9.6c.6.2.8 1.1.8 1.1-1.5-1.5-3.3-.1-3.3-.1s1.2-1.3 2.5-1zM157 387.5s2.1-1 3.8-3.3c1.8-2.6 2.4-4.5 2.6-5.3.1-.2.1-.4.1-.4s0 .1-.1.4c-.2 1-1 3.8-2.2 5.5-1.8 2.6-4.6 3.7-4.6 3.7s-1-4.1 1.6-8.4c1.2-2.1 4.7-4.5 6.2-6.5 0-.1-7.4 14.3-7.4 14.3zm5.8-21.3s.8-.4 1.3 0c1 .8.6 2.6.6 2.6s.2-2.2-1.9-2.6zm-7.5 5.3c1.2-1.2 2.8-1.4 2.8-1.4s-1.4.9-.9 2.4c.3 1 1.5 2 4.5 1.1 0 0-2.5 1.6-5.2.9-.5-.1-1.4-.3-1.6-1.4-.2-.7.2-1.3.4-1.6zm-2.5.8c.7-1.1 1.8-1.6 1.8-1.6s-2.5 1.4-1.8 3.3c.3.8 2 2.8 5.9 1.4.9-.3 1.9-1 3.1-1.8 0 0-3.1 3.7-7.4 2.3-.7-.2-1.7-.9-1.9-2-.2-.6.2-1.5.3-1.6z"/><path class="st23" d="M196.2 85.4c37.1-11.5 75.1-10.2 109.3 1.3l11.6-35.2c-41.3-13.9-87.2-15.4-131.9-1.5-45.9 14.2-83.7 42.5-110 78.6l30 21.8c21.8-29.9 53-53.3 91-65z"/><path class="st24" d="M79 308c-17.3-55.8-5.7-113.7 26.3-157.6l-30-21.8c-38.6 53-52.6 122.9-31.7 190.4 6.9 22.3 17.1 42.6 29.9 60.7l30.3-21.4c-10.6-15-19.1-31.9-24.8-50.3z"/><path class="st25" d="M463.9 255.3c0-21.1-3.1-42.5-9.7-63.7-21.3-68.6-73.8-118.9-137-140.2l-11.6 35.2c52.3 17.6 95.7 59.2 113.3 115.9 5.4 17.5 8 35.3 8 52.7h37z"/><path class="st26" d="M313.3 460.3l-11-35.4c-.2.1-.5.2-.7.2-75.4 23.4-154.5-5.9-197.8-66.9l-30.3 21.4c52.3 73.8 148 109.2 239.1 81 .2-.1.4-.2.7-.3z"/><path class="st19" d="M253.7 105.4c1.9 1.1 4.2 2.9 6.4 2.4 3-.7 6.1-4.4 7.4-4.9 0 0 .6.1.1.6-4.2 3.6-5.1 9.1-3.5 12.4 0 0-1.1.9-1.5 1.2-.7 1.2-.4 7 0 8.7 0 0-.3.6-.5.1-1.1-3.2-1.5-6.2-1.6-7.5 0-.5-.2-.5-.5 0-.7 1.6-1.2 4-1.6 8.1 0 0-.5.6-.5-.1-.4-4 1.3-16.1 1-16.3-2.3-1.3-4.5-3.2-5.2-4.2-.3-.4 0-.5 0-.5z" id="XMLID_168_"/><path class="st19" d="M244 105.7c.3.1.7.1 1-.1.5-.3.9-.8 1.1-1.4.2-.6.2-1.3-.1-1.8-.2-.4-.5-.6-.8-.7-.3-.1-.7-.1-1.1.1-.5.3-.9.8-1.1 1.4-.2.6-.2 1.3.1 1.8.3.4.6.6.9.7z" id="XMLID_164_"/><path class="st19" d="M261.3 105.1c-.1-.6-.4-1.1-.8-1.3-.3-.2-.6-.3-.9-.2-.3.1-.6.3-.8.6-.3.4-.3 1-.2 1.6.2 1 1 1.7 1.8 1.5.7-.3 1.1-1.2.9-2.2z" id="XMLID_160_"/><path class="st19" d="M253 112.3c.2 0 .5-.1.7-.3.3-.3.5-.8.5-1.4 0-.9-.5-1.7-1.1-1.7-.2 0-.5.1-.7.3-.3.3-.5.8-.5 1.4 0 .9.5 1.7 1.1 1.7z" id="XMLID_156_"/><path class="st19" d="M250.4 124.8c.7-3.6 1.5-5.3 1.7-5.8 0 .9.5 4.2.9 5.2.3.7.7.3.7.3-.5-10.1 2.1-11.3 4.5-13.2.3-.2.1-.4.1-.4-.5 0-2.4 1-2.7 1.1-4.6 2.4-6.6-.7-7.2-1.1 0 0-.3 0-.2.4.2.6 1.5 2.3 3 3.4-.8 2.2-1.5 8.1-1.4 10 .1.6.6.1.6.1z" id="XMLID_152_"/><path class="st19" d="M232.7 107.4c2.7 1.7 7.7 2.5 9.9 2.7-1.2 6.5-1.3 13.8-.6 17.4.2 1 .8.3.8.3 0-3.7 1-9.5 2.2-10.7.3 2 1.6 7 3.7 10.3.4.7.8.2.8.2-3.8-15.7-1.7-19.9.7-24.3.8-1.4 1.5-2.8 2.1-4.7.3-.9-.6-.6-.6-.6-3.2 6.7-7.7 11.8-19 8.5-.2.1-.6.5 0 .9z" id="XMLID_147_"/><path class="st21" d="M368.3 315.6c3-.5 5.9-1 8.9-1.5 6.1-1 12.7-2.2 18.8-3.2l-15.2-24.3s-.1.1-.1.2l-2.4 5.4-.1.3 7.8 12.9c.6.9.3 1.4-.7 1.6-4.4.8-10.4 1.8-14.8 2.6 0 0-.3.6-.7 1.5-.1.3-.3.6-.4.9-.5 1.2-1.1 2.4-1.6 3.7.2 0 .4-.1.5-.1zm19.5-5.3s.3-.7.3-.8l.1-.3c.3 0 1.3-.2 1.7-.3.7-.2.9-.7.5-1.3-.2-.4-.7-1.1-.9-1.5 0 0 0-.1.2-.4.2-.5.5-1 .8-1.7 1.2 2 2.4 3.9 3.6 5.9l-6.6 1.1c-.1.2.3-.7.3-.7z"/><g id="GoFPfz.tif_2_"><image width="2230" height="1476" id="Livello_1_2_" xlink:href="545CB6D963A6B582.png" transform="rotate(145.507 128.521 244.566) scale(.02955)" overflow="visible"/></g><path class="st27" d="M426.8 255.3v4.1c-1.7 74.1-49.9 142.1-124.5 165.6l11 35.4c90.1-28.3 148.5-110.5 150.5-200.1 0-1.6.1-3.3.1-4.9h-37.1z"/><circle class="st28" cx="248.9" cy="255.3" r="86.2"/><path class="st29" d="M309.5 194.9L187.6 314.6m121.4 1.1L189.3 193.8m106.4-10.5l-94.1 142.8m119-24.4l-142.8-94.1M333 237.3l-168.3 34.2m101.2 67.1L232 171.1m102.7 82.1l-171.7.7m85.3 86.4l1.1-170.8m58.1 46.1l-117.2 77.6m97.4 19.8L210 195.8M317.8 268l-137.9-27.2m55.4 82.6l27.2-138m51 96.7l-129.2-55.4m36.9 92.3l55.4-129.2m37.5 38.5l-130.5 52.2m91.4 39.2l-52.3-130.6"/><path class="st30" d="M249.4 185.6l18.4 52.5 56.3-.5-47 32.8 18.7 52.4-45.7-32.3-48.5 33.2 17.9-52.7-47.9-32 60.4-.5z"/><path class="st28" d="M249.6 203.3l14.1 40.3 42.7-.4-36 25.1 14.3 40.3-34.6-24.8-37.7 25.5 13.6-40.5-36.6-24.5 46.9-.4z"/><path class="st30" d="M249.7 212l11.9 34.3 36.1-.3-30.7 21.3 12.2 34.3-29.2-21.1-32.3 21.6 11.6-34.4-31.1-20.7 40.1-.5z"/><path d="M238.1 284.9c0-1.4-1.2-2.5-2.6-2.5l-5.6.1.1 8.7h1.2v-3.5h3.3l2.4 3.5h1.4l-2.4-3.6c1.4-.5 2.2-1.3 2.2-2.7zm-1.7 1.1c-.2.2-.5.4-.9.4h-4.4v-2.8h4.5c1 0 1.2.8 1.2 1.4 0 .3-.1.7-.4 1zm10.5 2c0 1.2-1.4 1.9-2.8 1.9-1.3 0-2.7-.6-2.7-1.8l-.1-5.8h-1.2l.1 5.9c0 .7.3 1.4.8 1.9.7.7 1.7 1 3 1h.1c2.7-.1 4-1 4-3l-.1-5.9h-1.2l.1 5.8zm9.8-5.8l-5.6.1.1 8.7h1.2v-3.6h4.3c1.2 0 2.2-1.1 2.2-2.4 0-.7-.3-1.5-.9-2-.4-.6-.9-.8-1.3-.8zm.9 2.6c0 .4-.1.8-.4 1-.1.1-.3.2-.4.2h-4.4v-2.8h4.3c.4.1.8.9.9 1.6zm8.9-2.7l-5.6.1.1 8.7h1.2v-3.6h4.3c1.2 0 2.2-1.1 2.2-2.4 0-.7-.3-1.5-.9-2-.4-.6-.9-.8-1.3-.8zm.9 2.7c0 .4-.1.8-.4 1-.1.1-.3.2-.4.2h-4.4v-2.8h4.3c.4 0 .9.8.9 1.6zm7.3 6c1.5 0 2.8-.6 3.7-1.5.8-.8 1.2-1.9 1.2-3 0-3.1-2.6-4.4-5-4.4-1.4 0-2.7.6-3.6 1.5-.8.8-1.2 1.9-1.2 3 .1 2.3 2.4 4.4 4.9 4.4zm-3.6-4.4c0-1.8 1.9-3.3 3.6-3.3h.1c1 0 2.1.4 2.8 1.1.6.6.9 1.3.9 2.1s-.3 1.6-.9 2.2c-.7.7-1.7 1.1-2.8 1.1-2.1.1-3.7-1.4-3.7-3.2zm-47.6 1.2h3v1.5c-.2.2-1.2 1-2.9 1-2.3 0-3.7-1.2-3.8-3.3 0-1.9 1.4-3.2 3.6-3.2h.1c1.7 0 3.1 1 3.1 1l.1.1.8-.9-.2-.1c-1.4-.9-2.6-1.4-3.9-1.4-1.4 0-2.7.5-3.7 1.5-.8.8-1.3 1.9-1.2 3 0 2.8 2 4.5 5 4.5 2.7 0 4-1.7 4.1-1.7v-3h-4.2l.1 1z"/><path class="st20" d="M249.2 203.7l6.9 19.7 21.1-.2-17.6 12.3 7 19.7-17.2-12.1-18.2 12.5 6.7-19.8-18-12 22.7-.2z"/><path class="st28" d="M249.2 210.3l5.3 15.2 16.1-.2-13.6 9.5 5.4 15.1-13-9.3-14.1 9.5 5.1-15.2-13.8-9.1 17.6-.2z"/><path class="st20" d="M249.3 213.6l4.5 12.9 13.5-.1-11.5 8 4.5 12.9-10.9-8-12.1 8.2 4.3-13-11.7-7.8 15.1-.1z"/><path d="M179.8 268c0-.5.3-1.2 1.9-1.2 1.5 0 2.8.7 2.8.7l-.3-3.1c-.2.2-.5.3-.7.2-.5-.1-1.3-.2-2.2-.2-3.3 0-4.8 2-4.8 3.8 0 3.5 5.4 3.7 5.4 6.2 0 .9-.9 1.4-1.9 1.5-2.2 0-3.7-1-3.7-1l.4 3.1c.3-.1.5-.1.8-.1.7.2 1.8.4 2.9.4 3.2 0 4.8-1.8 4.8-3.9-.1-4.5-5.4-4.3-5.4-6.4zm111.8-3.1l.1 12.1h3l-.1-13.4H291c.1 0 .6.3.6 1.3zm-2.6 3.2c0-2.4-2-4.4-4.4-4.4l-6.4.1s.5.4.5.9l.1 12.4h2.9v-4.6h1.8l2.7 4.5h3.3l-2.9-5c1.4-.7 2.4-2.2 2.4-3.9zm-7.3-1.5h2.7c.8 0 1.5.7 1.5 1.5s-.7 1.5-1.5 1.5h-2.7v-3zm-7.8 3.8v2.2s-1.1 1.9-2.9 1.9c-1.4 0-3.5-1.3-3.5-3.8s1.8-4 3.4-4c1.6 0 2.6 1.1 2.6 1.1l1.3-2.7s-1.5-1.6-4.1-1.5c-3.4 0-6.2 2.8-6.2 7s3.2 6.9 6.3 6.9 4.1-1.9 5.8-3.6v-4.1h-3.3c.1 0 .6.3.6.6zm41.6-7.3c-3.5 0-6.3 3.2-6.2 7 0 3.8 2.9 6.9 6.3 6.9 3.5 0 6.3-3.2 6.2-7 0-3.8-2.8-6.9-6.3-6.9zm.1 10.8c-1.7 0-3-1.6-3-3.8 0-2.2 1.3-3.8 3-3.8s3 1.6 3 3.8c0 2.1-1.3 3.7-3 3.8zm-11-3.3l-4-7h-3.9s.5.3.6 1.2l.1 12.1h2.8l-.1-8.3 4.6 8.3h2.8l-.1-13.4h-2.8v7.1zm-46.8 1.4h4v-2.9h-4v-2.3h5.2l-.8-2.9-7.8.1s.5.3.5 1.2l.1 12.2 7.7-.1.7-3-5.6.1V272zm-50.8-.5l-4-7h-3.9s.5.3.6 1.2l.1 12.1h2.8l-.1-8.3 4.6 8.3h2.8l-.1-13.4H207v7.1zm40.8-7.5h-3.6s.5.3.5 1.2l.1 12.1 7.7-.1.7-3-5.3.1-.1-10.3zm-58.7.6s.7.4.5 1.2l-3.5 12.2h2.6l.9-3.1h4.2l1 3.1h3.3l-4.5-13.3-4.5-.1zm1.3 7.7l1.2-4.3 1.4 4.3h-2.6zm27.7-8l-6.4.1s.5.3.5 1.2l.1 12.1h2.9v-4.6h2.9c2.4 0 4.4-2 4.4-4.4 0-2.4-2-4.4-4.4-4.4zm-.2 6h-2.7v-3.1h2.7c.8 0 1.5.7 1.5 1.5.1.9-.6 1.6-1.5 1.6zm19.7-6.2H234s.5.3.5 1.2l.1 12.1 7.7-.1.7-3-5.3.1-.1-10.3zm-10.7 8.2h4v-2.9h-4v-2.3h5.2l-.8-2.9-7.8.1s.5.3.5 1.2l.1 12.2 7.7-.1.7-3-5.6.1v-2.4z"/></g><defs><path id="SVGID_3_" d="M327.5 22.1l-78.6 233.2h273c-.1 0-81.9-238.5-194.4-233.2z"/></defs><clipPath id="SVGID_4_"><use xlink:href="#SVGID_3_" overflow="visible"/></clipPath><g class="st31"><path class="st32" d="M444.3 376c-.3.5-.6.9-.9 1.4"/><path class="st33" d="M441.6 380.3c-57.4 88.2-170.2 127.9-272.7 89.3C50.4 424.9-9.4 292.8 35.1 174.3 75.1 68.2 185.2 9.1 292.9 30"/><path class="st32" d="M294.5 30.3c.5.1 1.1.2 1.6.3"/><circle class="st34" cx="444.3" cy="376" r="7"/><path class="st34" d="M298.3 31l-.8-7.9 11.3 9.7-13.9 5.5z"/><path class="st35" d="M248.9 46c114.7 0 208.1 92.4 209.2 207.3 1.1 115.6-91.7 210.1-207.3 211.2h-2c-114.7 0-208.1-92.4-209.2-207.3C38.5 141.7 131.3 47.1 246.9 46h2m0-.8h-2c-28.4.3-55.8 6.1-81.6 17.3-24.9 10.8-47.2 26.2-66.4 45.7s-34 42.1-44.4 67.2c-10.7 26-16 53.6-15.7 81.9.3 28.2 6 55.5 17.1 81.2 10.7 24.8 25.9 47 45.2 66.1 19.3 19.1 41.7 34.1 66.6 44.5 25.8 10.8 53.1 16.3 81.2 16.3h2c28.4-.3 55.8-6.1 81.6-17.3 24.9-10.8 47.2-26.2 66.4-45.7s34-42.1 44.4-67.2c10.7-26 16-53.6 15.7-81.9-.3-28.2-6-55.5-17.1-81.2-10.7-24.8-25.9-47-45.2-66.1-19.3-19.1-41.7-34.1-66.6-44.5-25.7-10.9-53-16.3-81.2-16.3z"/><path class="st36" d="M153.1 224.4l208.2 67.1M258.8 141.1l-20.1 231.4m-50.1-197.7l131.1 175m-2.9-191L188 355.8m144.8-182.4L164.5 337.5m71.1-181l28.9 214.8"/><path class="st37" d="M354.7 203.3l-211.8 104M365 237.2L135.1 273"/><path class="st38" d="M259.3 137c.6.1 1.1.1 1.7.2"/><path class="st39" d="M264.3 137.6c52.7 7.2 95.7 49.5 101.4 104.8 6.7 64.8-40.4 122.8-105.2 129.4-57.5 5.9-109.6-30.5-125.3-84"/><path class="st38" d="M134.7 286.2c-.1-.5-.3-1.1-.4-1.6"/><circle class="st40" cx="259.3" cy="137" r="6.1"/><path class="st40" d="M134 283.7l-5.6 3.5 3-12 9.3 8.3z"/><path class="st41" d="M248.9 170.3c22.5 0 43.7 8.7 59.7 24.6 16 15.9 25 37 25.2 59.6.4 46.8-37.3 85.3-84.1 85.7h-.8c-22.5 0-43.7-8.7-59.7-24.6-16-15.9-25-37-25.2-59.6-.2-22.7 8.4-44.1 24.3-60.3 15.9-16.2 37.1-25.2 59.8-25.4h.8m0-8h-.9c-51.3.5-92.5 42.5-92.1 93.8.5 51 42 92.1 92.9 92.1h.9c51.3-.5 92.5-42.5 92.1-93.8-.5-51-42-92.1-92.9-92.1z"/><path class="st42" d="M248.9 162.7c24.5 0 47.7 9.5 65.1 26.8 17.5 17.3 27.2 40.3 27.4 64.9.2 24.7-9.2 48.1-26.5 65.7s-40.5 27.5-65.2 27.7h-.9c-24.5 0-47.7-9.5-65.1-26.8-17.5-17.3-27.2-40.3-27.4-64.9-.5-51 40.7-93 91.7-93.4h.9m0-8h-1c-55.5.5-100.1 46-99.6 101.5.5 55.2 45.4 99.6 100.5 99.6h1c55.5-.5 100.1-46 99.6-101.5-.5-55.2-45.4-99.6-100.5-99.6z"/><path class="st43" d="M248.9 155.6c26.4 0 51.3 10.2 70.1 28.8 18.8 18.6 29.3 43.4 29.5 69.8.3 26.6-9.9 51.7-28.5 70.7s-43.6 29.6-70.2 29.8h-1c-26.4 0-51.3-10.2-70.1-28.8-18.8-18.6-29.3-43.4-29.5-69.8-.3-26.6 9.9-51.7 28.5-70.7s43.6-29.6 70.2-29.8h1m0-8h-1c-59.4.6-107.1 49.2-106.6 108.6.6 59.1 48.6 106.6 107.6 106.6h1c59.4-.6 107.1-49.2 106.6-108.6-.6-59-48.6-106.6-107.6-106.6z"/><path class="st44" d="M303.2 92.7c22.7 7.6 43.7 19.9 61.4 36.1 21.7 19.8 38.6 45.5 48 75.7 5.6 18.2 8.1 36.6 7.7 54.7"/><path class="st45" d="M110.3 154.5c21-28.9 51.1-51.5 87.9-62.9 35.6-11.1 72.2-9.9 105 1.1"/><path class="st46" d="M108.9 354.2c-10.1-14.3-18.2-30.5-23.7-48.2-16.6-53.7-5.6-109.3 25.1-151.6"/><path class="st47" d="M194.6 417.8c-34.2-11.5-64.5-33.6-85.7-63.7m191.5 64.6c-.3.1-.5.2-.8.3-35.6 11.1-72.2 9.9-105-1.1"/><path class="st48" d="M420.2 259.2c-1.6 71.4-48.1 136.9-119.8 159.5"/><path class="st36" d="M365 258l-187.9-4.2m98.9-79.7l-95.3 285.3"/><path class="st49" d="M399 149.1L161.2 316.6"/><path class="st36" d="M332.4 256.9l-269.5-5.4m331.4 109.6L103.4 149.4m199 277.6L195.3 83.5"/><path class="st50" d="M394 211.3c-.4 2.2-1.3 5-.1 6.8 1.7 2.6 6.2 4.2 7.1 5.3 0 0 .1.6-.5.3-4.8-2.7-10.3-1.7-12.9.9 0 0-1.2-.7-1.6-1-1.4-.3-6.7 2-8.2 3 0 0-.7-.1-.2-.5 2.6-2.1 5.3-3.5 6.5-4 .5-.2.4-.4-.1-.4-1.8-.1-4.1.2-8.1 1.2 0 0-.7-.2 0-.6 3.6-1.7 15.6-4.3 15.6-4.6.4-2.6 1.5-5.3 2.2-6.4.1-.2.3 0 .3 0z" id="XMLID_143_"/><path class="st50" d="M390.4 202.3c0 .4.2.7.5.9.4.4 1 .6 1.7.5.7 0 1.3-.3 1.6-.7.3-.3.4-.6.4-1 0-.3-.2-.7-.5-.9-.4-.4-1-.6-1.7-.5-.7 0-1.3.3-1.6.7-.3.3-.4.7-.4 1z" id="XMLID_138_"/><path class="st50" d="M396.9 218.3c.5-.3.8-.8 1-1.2.1-.3 0-.7-.1-.9-.2-.3-.4-.4-.8-.5-.5-.1-1.1 0-1.6.3-.9.5-1.2 1.5-.8 2.2.4.6 1.4.7 2.3.1z" id="XMLID_134_"/><path class="st50" d="M387.2 213c.1.2.3.4.5.5.4.2 1 .2 1.5 0 .9-.3 1.4-1.1 1.2-1.7-.1-.2-.3-.4-.5-.5-.4-.2-1-.2-1.5 0-.8.4-1.4 1.1-1.2 1.7z" id="XMLID_130_"/><path class="st50" d="M374.6 214.8c3.6-.5 5.5-.4 6-.4-.8.3-3.7 1.9-4.6 2.6-.5.5 0 .7 0 .7 9.3-3.9 11.3-1.9 13.9-.3.3.2.4-.1.4-.1-.2-.4-1.7-2-1.9-2.1-3.8-3.5-1.6-6.4-1.4-7.1 0 0-.1-.3-.5 0-.5.4-1.7 2.2-2.1 4-2.4 0-8.1 1.4-9.9 2.1-.5.3.1.6.1.6z" id="XMLID_126_"/><path class="st50" d="M384.9 192.2c-.6 3.1.2 8.1.8 10.2-6.5 1.1-13.4 3.5-16.6 5.4-.8.5 0 .8 0 .8 3.5-1.3 9.2-2.3 10.8-1.6-1.8 1-6 3.9-8.5 7-.5.6.1.8.1.8 13.4-9 18.1-8.4 23.1-7.7 1.6.2 3.2.4 5.1.4.9 0 .3-.8.3-.8-7.4-.7-13.7-3.2-14.5-15 0 .1-.4-.1-.6.5z" id="XMLID_122_"/><path class="st50" d="M102.9 206.1c1.6-1.5 4-3.2 4.1-5.4.2-3.1-2.5-7.1-2.6-8.5 0 0 .3-.6.6.1 2.3 5 7.3 7.5 10.9 6.9 0 0 .5 1.3.7 1.8.9 1.1 6.6 2.3 8.4 2.5 0 0 .5.5-.1.5-3.3.2-6.3-.3-7.6-.6-.5-.1-.6.1-.2.4 1.4 1.2 3.4 2.3 7.3 3.9 0 0 .4.6-.3.5-3.9-.7-15.1-5.8-15.3-5.5-1.9 1.8-4.3 3.4-5.5 3.8-.4 0-.4-.4-.4-.4z" id="XMLID_95_"/><path class="st50" d="M100.5 215.6c.2-.3.3-.6.2-1-.1-.5-.5-1.1-1-1.4-.5-.4-1.2-.5-1.7-.4-.4.1-.7.3-.9.6-.2.3-.3.7-.2 1 .1.5.5 1.1 1 1.4.5.4 1.2.5 1.7.4.4-.1.7-.3.9-.6z" id="XMLID_87_"/><path class="st50" d="M104.7 198.8c-.6 0-1.1.1-1.5.4-.3.2-.4.5-.4.8 0 .3.1.6.3.9.3.4.9.6 1.4.7 1 .1 1.9-.5 1.9-1.3.1-.7-.7-1.4-1.7-1.5z" id="XMLID_79_"/><path class="st50" d="M109.3 208.8c.1-.2 0-.5-.1-.7-.2-.4-.7-.7-1.2-.9-.9-.3-1.8 0-2 .6-.1.2 0 .5.1.7.2.4.7.7 1.2.9 1 .3 1.8 0 2-.6z" id="XMLID_74_"/><path class="st50" d="M120.6 214.9c-3.2-1.7-4.7-2.9-5.1-3.3.9.3 4.1.7 5.3.6.7-.1.4-.6.4-.6-9.8-2.4-10.3-5.2-11.4-8-.1-.3-.4-.2-.4-.2-.1.5.2 2.6.3 2.9 1 5.1-2.5 6.1-3.1 6.6 0 0-.1.3.4.3.6-.1 2.7-.8 4.1-2 1.9 1.4 7.3 3.7 9.2 4.2.6.1.3-.5.3-.5z" id="XMLID_69_"/><path class="st50" d="M98.9 226.9c2.3-2.1 4.6-6.6 5.4-8.7 5.9 2.9 12.9 5.1 16.6 5.5 1 .1.5-.6.5-.6-3.6-1-8.8-3.7-9.6-5.1 2 .3 7.2.4 11-.6.8-.2.4-.7.4-.7-16.1-.7-19.6-4-23.1-7.5-1.2-1.1-2.3-2.2-3.9-3.3-.8-.5-.7.4-.7.4 5.6 4.9 9.2 10.7 2.8 20.7-.2-.1.1.4.6-.1z" id="XMLID_65_"/><path class="st51" d="M253.8 414.7l-3-9.7 8.3-5.8-10.1-.1-3-9.7-3.3 9.6-10.1-.1 8.1 6.1-3.3 9.6 8.3-5.8 8.1 5.9zm-14.8-2.4l2.6-7.7-6.6-4.9 8.2.1 2.6-7.8 2.4 7.8 8.2.1-6.7 4.7 2.4 7.8-6.6-4.9-6.5 4.8z"/><path class="st51" d="M245.9 394.2l-2.2 6.3-6.6-.1 5.3 4-2.1 6.2 5.4-3.8 5.3 4v-.1l-2-6.2 5.5-3.9-6.7-.1-1.9-6.3zm-70.3-242.8l-3-9.7 8.3-5.8-10.1-.1-3-9.7-3.3 9.6-10.1-.1 8.1 6.1-3.3 9.6 8.3-5.8 8.1 5.9zm-14.7-2.4l2.6-7.7-6.6-4.9 8.2.1 2.6-7.8 2.4 7.8 8.2.1-6.7 4.7 2.4 7.8-6.6-4.9-6.5 4.8z"/><path class="st51" d="M167.7 130.9l-2.1 6.3-6.6-.1 5.3 3.9-2.2 6.3 5.5-3.8 5.3 3.9-2-6.3 5.5-3.8-6.7-.1-2-6.3z"/><path class="st52" d="M339.2 158.4l.3-9c.2-6.2.4-12.9.6-19l-26.8 10.1s.1.1.2.1c1.6 1.2 3.2 2.3 4.9 3.5l.2.2 14.2-5.2c1-.4 1.5 0 1.5 1-.1 4.5-.3 10.5-.4 15 0 0 .6.4 1.4 1 .3.2.5.4.8.6 1.1.8 2.1 1.5 3.3 2.3-.3-.2-.3-.4-.2-.6zm-1.4-20.1l-.7-.5-.3-.2v-1.7c-.1-.7-.5-1-1.2-.8-.4.1-1.2.5-1.6.6 0 0-.1-.1-.3-.2-.4-.3-.9-.7-1.5-1.1 2.2-.8 4.3-1.6 6.5-2.4l-.2 6.7c0 .1-.7-.4-.7-.4zM116.1 280.9c-1.9 2.3-3.7 4.7-5.6 7-3.9 4.8-8 10-11.9 14.9l27.5 8s0-.2-.1-.2l-1.8-5.7-.1-.3-14.4-4.4c-1-.3-1.2-.9-.6-1.7 2.8-3.6 6.5-8.2 9.4-11.8 0 0-.2-.6-.5-1.6-.1-.3-.2-.6-.3-1-.4-1.2-.8-2.5-1.2-3.8-.2.3-.3.5-.4.6zm-11 16.9s.2.8.3.8l.1.3c-.2.2-.8 1-1 1.4-.4.6-.2 1.1.5 1.3.4.1 1.2.4 1.7.5 0 0 0 .1.1.4.2.5.3 1.1.5 1.8-2.3-.7-4.4-1.3-6.6-2l4.2-5.2c-.1-.2.2.7.2.7z"/><path class="st53" d="M155.5 382.3c-.2-1.1-.4-2.1-.1-3.2.1-.3 0-.4-.3-.6-.9-.4-1.6-1.1-2.2-2 2 .6 4 .6 6.1.2-1.6 1.7-2.6 3.6-3.5 5.6z"/><path class="st53" d="M152.1 372.3c-.5 1.2-.1 2.8 1.1 3.5.9.5 1.8.8 2.8.8 2.3 0 4.2-.9 5.9-2.4.8-.7 1.5-1.5 2.1-2.4.2-.3.2-.3.5-.1l.1.1c-.1.2-.2.4-.3.5-.5.8-1 1.6-1.7 2.3-.8.8-1.7 1.6-2.6 2.4-.8.8-1.6 1.6-2.2 2.5-.6.9-1.1 1.9-1.4 3-.5 1.8-.7 3.5-.4 5.3 0 .3.1.5.1.8 1-.4 1.9-.9 2.8-1.5 1.1-.8 2-1.8 2.7-2.9.5-.8 1-1.7 1.3-2.6.4-1 .5-2 .7-3 .2-1.7.4-3.4 1.1-5 .2-.5.4-.9.6-1.4.2.1.3.1.5.2 0 .1-.1.2-.1.2-.2.5-.4 1-.6 1.6-.6 2.3-.5 4.6.5 6.8.6 1.2 1.4 2.2 2.7 2.8.5.2.9.3 1.4.2 1.3-.1 2.4-1.2 2.6-2.6.2-1.1-.1-2.1-.6-3.1-.4-.8-.8-1.7-1.2-2.5-.3-.7-.6-1.4-.5-2.2v-.1c-.4.3-.8.6-1.1.9.1.2.3.5.5.8.3.5.5 1 .4 1.6-.1 1.1-1.1 1.8-2.1 1.4-.6-.2-.9-.6-1.2-1.2-.5-1-.6-2.1-.3-3.1.1-.4.3-.8.4-1.2.4.1.7.2 1 .3.6.1.6.1.8-.4v-.2l-.4-.4c-.2-.2-.4-.3-.6-.5.3-.4.7-.6 1.1-.7.7-.2 1.4-.2 2 .3.2.1.3.3.4.5.2-.2.4-.5.5-.9.2-.8-.1-1.5-.9-1.8-.7-.3-1.3-.2-1.9.1-.8.4-1.4 1-2 1.7-.2.3-.2.3-.5.1-.1-.1-.1-.1 0-.3.5-.6 1-1.2 1.5-1.7.4-.4.7-.8.9-1.4.3-.9.4-1.7.2-2.6-.4.8-2.3 4.4-2.3 4.4s.7-.3 1.2-1c.6-.8.8-1.4.8-1.7v-.1.1c-.1.3-.3 1.2-.7 1.7-.6.8-1.5 1.1-1.5 1.1s-.4-1.3.4-2.7c.4-.6 1.4-1.3 1.9-1.9v-.3c-.3.2-.7.4-1 .6-.7.5-1.3 1.1-1.6 1.9-.2.5-.3 1-.4 1.5-.1.6-.3 1.2-.5 1.8-.2-.1-.3-.1-.4-.2v-.1c0-.1.1-.3.1-.4.2-.8.4-1.7.2-2.6-.1-.7-.5-1.3-1.2-1.6-.7-.3-1.4-.1-1.8.6-.2.3-.3.5-.4.8 1.3-.3 2.5 1.4 2.1 2.9-.3-.1-.6-.2-.9-.2-.6-.1-.5-.1-.8.4-.1.1-.1.2.1.3.3.3.6.5 1 .8.1.1.1.1 0 .3-.5.8-1.1 1.4-1.8 1.9-.8.5-1.7.7-2.6.5-.6-.1-1-.5-1.2-1-.3-.8.1-1.6.9-2 .4-.2.9-.3 1.3-.3.3 0 .6 0 .9-.1-.1-.5 0-.9.1-1.3v-.1h-.2c-.4.3-.8.5-1.3.6-1.1.2-2.1.4-3.2.6-.7.1-1.3.2-1.9.5-.7.2-1.5.8-1.9 1.8zm17 6.4c1.5-.5 1.4-2.1 1.4-2.1s.8 1.5.4 3.1c-.1.4-.4 1-1 1.3-1 .4-1.7-.2-2.1-.6-2.1-1.9-2.2-4.8-2.2-4.8 1 3 2.5 3.5 3.5 3.1zm-3.2.5c1.1 4 3.6 4.3 4.5 4.1 2-.5 1.7-3.4 1.7-3.4s.3 1.2-.3 2.4c-.1.2-.6 1-1.2 1.2-1 .4-2.1 0-2.7-.5-3.6-2.8-2.3-7.4-2.3-7.4 0 1.5 0 2.7.3 3.6zm4.6-9.6c.6.2.8 1.1.8 1.1-1.5-1.5-3.3-.1-3.3-.1s1.2-1.3 2.5-1zM157 387.5s2.1-1 3.8-3.3c1.8-2.6 2.4-4.5 2.6-5.3.1-.2.1-.4.1-.4s0 .1-.1.4c-.2 1-1 3.8-2.2 5.5-1.8 2.6-4.6 3.7-4.6 3.7s-1-4.1 1.6-8.4c1.2-2.1 4.7-4.5 6.2-6.5 0-.1-7.4 14.3-7.4 14.3zm5.8-21.3s.8-.4 1.3 0c1 .8.6 2.6.6 2.6s.2-2.2-1.9-2.6zm-7.5 5.3c1.2-1.2 2.8-1.4 2.8-1.4s-1.4.9-.9 2.4c.3 1 1.5 2 4.5 1.1 0 0-2.5 1.6-5.2.9-.5-.1-1.4-.3-1.6-1.4-.2-.7.2-1.3.4-1.6zm-2.5.8c.7-1.1 1.8-1.6 1.8-1.6s-2.5 1.4-1.8 3.3c.3.8 2 2.8 5.9 1.4.9-.3 1.9-1 3.1-1.8 0 0-3.1 3.7-7.4 2.3-.7-.2-1.7-.9-1.9-2-.2-.6.2-1.5.3-1.6z"/><path class="st54" d="M196.2 85.4c37.1-11.5 75.1-10.2 109.3 1.3l11.6-35.2c-41.3-13.9-87.2-15.4-131.9-1.5-45.9 14.2-83.7 42.5-110 78.6l30 21.8c21.8-29.9 53-53.3 91-65z"/><path class="st55" d="M79 308c-17.3-55.8-5.7-113.7 26.3-157.6l-30-21.8c-38.6 53-52.6 122.9-31.7 190.4 6.9 22.3 17.1 42.6 29.9 60.7l30.3-21.4c-10.6-15-19.1-31.9-24.8-50.3z"/><path class="st56" d="M463.9 255.3c0-21.1-3.1-42.5-9.7-63.7-21.3-68.6-73.8-118.9-137-140.2l-11.6 35.2c52.3 17.6 95.7 59.2 113.3 115.9 5.4 17.5 8 35.3 8 52.7h37z"/><path class="st57" d="M313.3 460.3l-11-35.4c-.2.1-.5.2-.7.2-75.4 23.4-154.5-5.9-197.8-66.9l-30.3 21.4c52.3 73.8 148 109.2 239.1 81 .2-.1.4-.2.7-.3z"/><path class="st50" d="M253.7 105.4c1.9 1.1 4.2 2.9 6.4 2.4 3-.7 6.1-4.4 7.4-4.9 0 0 .6.1.1.6-4.2 3.6-5.1 9.1-3.5 12.4 0 0-1.1.9-1.5 1.2-.7 1.2-.4 7 0 8.7 0 0-.3.6-.5.1-1.1-3.2-1.5-6.2-1.6-7.5 0-.5-.2-.5-.5 0-.7 1.6-1.2 4-1.6 8.1 0 0-.5.6-.5-.1-.4-4 1.3-16.1 1-16.3-2.3-1.3-4.5-3.2-5.2-4.2-.3-.4 0-.5 0-.5z" id="XMLID_60_"/><path class="st50" d="M244 105.7c.3.1.7.1 1-.1.5-.3.9-.8 1.1-1.4.2-.6.2-1.3-.1-1.8-.2-.4-.5-.6-.8-.7-.3-.1-.7-.1-1.1.1-.5.3-.9.8-1.1 1.4-.2.6-.2 1.3.1 1.8.3.4.6.6.9.7z" id="XMLID_56_"/><path class="st50" d="M261.3 105.1c-.1-.6-.4-1.1-.8-1.3-.3-.2-.6-.3-.9-.2-.3.1-.6.3-.8.6-.3.4-.3 1-.2 1.6.2 1 1 1.7 1.8 1.5.7-.3 1.1-1.2.9-2.2z" id="XMLID_51_"/><path class="st50" d="M253 112.3c.2 0 .5-.1.7-.3.3-.3.5-.8.5-1.4 0-.9-.5-1.7-1.1-1.7-.2 0-.5.1-.7.3-.3.3-.5.8-.5 1.4 0 .9.5 1.7 1.1 1.7z" id="XMLID_76_"/><path class="st50" d="M250.4 124.8c.7-3.6 1.5-5.3 1.7-5.8 0 .9.5 4.2.9 5.2.3.7.7.3.7.3-.5-10.1 2.1-11.3 4.5-13.2.3-.2.1-.4.1-.4-.5 0-2.4 1-2.7 1.1-4.6 2.4-6.6-.7-7.2-1.1 0 0-.3 0-.2.4.2.6 1.5 2.3 3 3.4-.8 2.2-1.5 8.1-1.4 10 .1.6.6.1.6.1z" id="XMLID_64_"/><path class="st50" d="M232.7 107.4c2.7 1.7 7.7 2.5 9.9 2.7-1.2 6.5-1.3 13.8-.6 17.4.2 1 .8.3.8.3 0-3.7 1-9.5 2.2-10.7.3 2 1.6 7 3.7 10.3.4.7.8.2.8.2-3.8-15.7-1.7-19.9.7-24.3.8-1.4 1.5-2.8 2.1-4.7.3-.9-.6-.6-.6-.6-3.2 6.7-7.7 11.8-19 8.5-.2.1-.6.5 0 .9z" id="XMLID_2_"/><path class="st52" d="M368.3 315.6c3-.5 5.9-1 8.9-1.5 6.1-1 12.7-2.2 18.8-3.2l-15.2-24.3s-.1.1-.1.2l-2.4 5.4-.1.3 7.8 12.9c.6.9.3 1.4-.7 1.6-4.4.8-10.4 1.8-14.8 2.6 0 0-.3.6-.7 1.5-.1.3-.3.6-.4.9-.5 1.2-1.1 2.4-1.6 3.7.2 0 .4-.1.5-.1zm19.5-5.3s.3-.7.3-.8l.1-.3c.3 0 1.3-.2 1.7-.3.7-.2.9-.7.5-1.3-.2-.4-.7-1.1-.9-1.5 0 0 0-.1.2-.4.2-.5.5-1 .8-1.7 1.2 2 2.4 3.9 3.6 5.9l-6.6 1.1c-.1.2.3-.7.3-.7z"/><g id="GoFPfz.tif_1_"><image width="2230" height="1476" id="Livello_1_1_" xlink:href="545CB6D963A6B586.png" transform="rotate(145.507 128.521 244.566) scale(.02955)" overflow="visible"/></g><path class="st58" d="M426.8 255.3v4.1c-1.7 74.1-49.9 142.1-124.5 165.6l11 35.4c90.1-28.3 148.5-110.5 150.5-200.1 0-1.6.1-3.3.1-4.9h-37.1z"/><circle class="st28" cx="248.9" cy="255.3" r="86.2"/><path class="st59" d="M309.5 194.9L187.6 314.6m121.4 1.1L189.3 193.8m106.4-10.5l-94.1 142.8m119-24.4l-142.8-94.1M333 237.3l-168.3 34.2m101.2 67.1L232 171.1m102.7 82.1l-171.7.7m85.3 86.4l1.1-170.8m58.1 46.1l-117.2 77.6m97.4 19.8L210 195.8M317.8 268l-137.9-27.2m55.4 82.6l27.2-138m51 96.7l-129.2-55.4m36.9 92.3l55.4-129.2m37.5 38.5l-130.5 52.2m91.4 39.2l-52.3-130.6"/><path class="st60" d="M249.4 185.6l18.4 52.5 56.3-.5-47 32.8 18.7 52.4-45.7-32.3-48.5 33.2 17.9-52.7-47.9-32 60.4-.5z"/><path class="st28" d="M249.6 203.3l14.1 40.3 42.7-.4-36 25.1 14.3 40.3-34.6-24.8-37.7 25.5 13.6-40.5-36.6-24.5 46.9-.4z"/><path class="st60" d="M249.7 212l11.9 34.3 36.1-.3-30.7 21.3 12.2 34.3-29.2-21.1-32.3 21.6 11.6-34.4-31.1-20.7 40.1-.5z"/><path class="st41" d="M238.1 284.9c0-1.4-1.2-2.5-2.6-2.5l-5.6.1.1 8.7h1.2v-3.5h3.3l2.4 3.5h1.4l-2.4-3.6c1.4-.5 2.2-1.3 2.2-2.7zm-1.7 1.1c-.2.2-.5.4-.9.4h-4.4v-2.8h4.5c1 0 1.2.8 1.2 1.4 0 .3-.1.7-.4 1zm10.5 2c0 1.2-1.4 1.9-2.8 1.9-1.3 0-2.7-.6-2.7-1.8l-.1-5.8h-1.2l.1 5.9c0 .7.3 1.4.8 1.9.7.7 1.7 1 3 1h.1c2.7-.1 4-1 4-3l-.1-5.9h-1.2l.1 5.8zm9.8-5.8l-5.6.1.1 8.7h1.2v-3.6h4.3c1.2 0 2.2-1.1 2.2-2.4 0-.7-.3-1.5-.9-2-.4-.6-.9-.8-1.3-.8zm.9 2.6c0 .4-.1.8-.4 1-.1.1-.3.2-.4.2h-4.4v-2.8h4.3c.4.1.8.9.9 1.6zm8.9-2.7l-5.6.1.1 8.7h1.2v-3.6h4.3c1.2 0 2.2-1.1 2.2-2.4 0-.7-.3-1.5-.9-2-.4-.6-.9-.8-1.3-.8zm.9 2.7c0 .4-.1.8-.4 1-.1.1-.3.2-.4.2h-4.4v-2.8h4.3c.4 0 .9.8.9 1.6zm7.3 6c1.5 0 2.8-.6 3.7-1.5.8-.8 1.2-1.9 1.2-3 0-3.1-2.6-4.4-5-4.4-1.4 0-2.7.6-3.6 1.5-.8.8-1.2 1.9-1.2 3 .1 2.3 2.4 4.4 4.9 4.4zm-3.6-4.4c0-1.8 1.9-3.3 3.6-3.3h.1c1 0 2.1.4 2.8 1.1.6.6.9 1.3.9 2.1s-.3 1.6-.9 2.2c-.7.7-1.7 1.1-2.8 1.1-2.1.1-3.7-1.4-3.7-3.2zm-47.6 1.2h3v1.5c-.2.2-1.2 1-2.9 1-2.3 0-3.7-1.2-3.8-3.3 0-1.9 1.4-3.2 3.6-3.2h.1c1.7 0 3.1 1 3.1 1l.1.1.8-.9-.2-.1c-1.4-.9-2.6-1.4-3.9-1.4-1.4 0-2.7.5-3.7 1.5-.8.8-1.3 1.9-1.2 3 0 2.8 2 4.5 5 4.5 2.7 0 4-1.7 4.1-1.7v-3h-4.2l.1 1z"/><path class="st51" d="M249.2 203.7l6.9 19.7 21.1-.2-17.6 12.3 7 19.7-17.2-12.1-18.2 12.5 6.7-19.8-18-12 22.7-.2z"/><path class="st28" d="M249.2 210.3l5.3 15.2 16.1-.2-13.6 9.5 5.4 15.1-13-9.3-14.1 9.5 5.1-15.2-13.8-9.1 17.6-.2z"/><path class="st51" d="M249.3 213.6l4.5 12.9 13.5-.1-11.5 8 4.5 12.9-10.9-8-12.1 8.2 4.3-13-11.7-7.8 15.1-.1z"/><path class="st41" d="M179.8 268c0-.5.3-1.2 1.9-1.2 1.5 0 2.8.7 2.8.7l-.3-3.1c-.2.2-.5.3-.7.2-.5-.1-1.3-.2-2.2-.2-3.3 0-4.8 2-4.8 3.8 0 3.5 5.4 3.7 5.4 6.2 0 .9-.9 1.4-1.9 1.5-2.2 0-3.7-1-3.7-1l.4 3.1c.3-.1.5-.1.8-.1.7.2 1.8.4 2.9.4 3.2 0 4.8-1.8 4.8-3.9-.1-4.5-5.4-4.3-5.4-6.4zm111.8-3.1l.1 12.1h3l-.1-13.4H291c.1 0 .6.3.6 1.3zm-2.6 3.2c0-2.4-2-4.4-4.4-4.4l-6.4.1s.5.4.5.9l.1 12.4h2.9v-4.6h1.8l2.7 4.5h3.3l-2.9-5c1.4-.7 2.4-2.2 2.4-3.9zm-7.3-1.5h2.7c.8 0 1.5.7 1.5 1.5s-.7 1.5-1.5 1.5h-2.7v-3zm-7.8 3.8v2.2s-1.1 1.9-2.9 1.9c-1.4 0-3.5-1.3-3.5-3.8s1.8-4 3.4-4c1.6 0 2.6 1.1 2.6 1.1l1.3-2.7s-1.5-1.6-4.1-1.5c-3.4 0-6.2 2.8-6.2 7s3.2 6.9 6.3 6.9 4.1-1.9 5.8-3.6v-4.1h-3.3c.1 0 .6.3.6.6zm41.6-7.3c-3.5 0-6.3 3.2-6.2 7 0 3.8 2.9 6.9 6.3 6.9 3.5 0 6.3-3.2 6.2-7 0-3.8-2.8-6.9-6.3-6.9zm.1 10.8c-1.7 0-3-1.6-3-3.8 0-2.2 1.3-3.8 3-3.8s3 1.6 3 3.8c0 2.1-1.3 3.7-3 3.8zm-11-3.3l-4-7h-3.9s.5.3.6 1.2l.1 12.1h2.8l-.1-8.3 4.6 8.3h2.8l-.1-13.4h-2.8v7.1zm-46.8 1.4h4v-2.9h-4v-2.3h5.2l-.8-2.9-7.8.1s.5.3.5 1.2l.1 12.2 7.7-.1.7-3-5.6.1V272zm-50.8-.5l-4-7h-3.9s.5.3.6 1.2l.1 12.1h2.8l-.1-8.3 4.6 8.3h2.8l-.1-13.4H207v7.1zm40.8-7.5h-3.6s.5.3.5 1.2l.1 12.1 7.7-.1.7-3-5.3.1-.1-10.3zm-58.7.6s.7.4.5 1.2l-3.5 12.2h2.6l.9-3.1h4.2l1 3.1h3.3l-4.5-13.3-4.5-.1zm1.3 7.7l1.2-4.3 1.4 4.3h-2.6zm27.7-8l-6.4.1s.5.3.5 1.2l.1 12.1h2.9v-4.6h2.9c2.4 0 4.4-2 4.4-4.4 0-2.4-2-4.4-4.4-4.4zm-.2 6h-2.7v-3.1h2.7c.8 0 1.5.7 1.5 1.5.1.9-.6 1.6-1.5 1.6zm19.7-6.2H234s.5.3.5 1.2l.1 12.1 7.7-.1.7-3-5.3.1-.1-10.3zm-10.7 8.2h4v-2.9h-4v-2.3h5.2l-.8-2.9-7.8.1s.5.3.5 1.2l.1 12.2 7.7-.1.7-3-5.6.1v-2.4z"/></g><path class="st44" d="M1124.8 255.3H248.9L327.3 22"/><path class="st61" d="M495.1 137.4h-3.6V134H508c6.5 0 11.2 4.3 11.2 11 0 6-3.7 9.5-7.5 10.4v.1s.8.4 1.3 1.5l5.6 11c.6 1.2 1.4 1.3 2.8 1.3h.8v3.4h-1.7c-3.1 0-4.1-.4-5.4-2.9l-5.6-11.1c-1-2-1.8-2.3-3.9-2.3H499v16.3h-3.9v-35.3zm12.5 15.6c4.6 0 7.5-3 7.5-7.9 0-4.8-2.9-7.7-7.5-7.7H499V153h8.6zm23.1 16.3h3.6v-32h-3.6v-3.4h11.1v3.4h-3.7v32h3.7v3.4h-11.1v-3.4zm40.4-36c5.5 0 14.5 2.4 14.5 8.2v3.2H582v-2.2c0-3.6-6.3-5.6-10.8-5.6-8.6 0-15.2 6.7-15.2 16.1 0 9.3 6.6 16.7 15.4 16.7 8 0 12.7-5.5 12.7-5.5l2.2 2.8s-5.4 6.3-15 6.3c-11.4 0-19.4-9.1-19.4-20.4 0-11.1 8.2-19.6 19.2-19.6zm25.1 36h3.6v-32h-3.6v-3.4h11.1v3.4h-3.7v32h3.7v3.4h-11.1v-3.4zm40.4-36c5.5 0 14.5 2.4 14.5 8.2v3.2h-3.6v-2.2c0-3.6-6.3-5.6-10.8-5.6-8.6 0-15.2 6.7-15.2 16.1 0 9.3 6.6 16.7 15.4 16.7 8 0 12.7-5.5 12.7-5.5l2.2 2.8s-5.4 6.3-15 6.3c-11.4 0-19.4-9.1-19.4-20.4 0-11.1 8.3-19.6 19.2-19.6zm28.5 5.3c0-.8-.4-1.2-1.2-1.2h-2.4V134h4.1c2.4 0 3.4 1 3.4 3.4v30.8c0 .8.4 1.2 1.2 1.2H683c.8 0 1.2-.4 1.2-1.2v-2.6h3.6v3.9c0 2.4-1 3.4-3.4 3.4h-16.1c-2.4 0-3.4-1-3.4-3.4v-30.9zm49.6-5.3c11 0 19.8 8.7 19.8 19.8 0 11.4-8.8 20.3-19.8 20.3s-19.8-8.9-19.8-20.3c0-11.2 8.7-19.8 19.8-19.8zm0 36.5c8.7 0 15.7-7.3 15.7-16.7 0-9.2-7.1-16.2-15.7-16.2-8.7 0-15.7 7-15.7 16.2 0 9.4 7 16.7 15.7 16.7zm35-1.6l-4 9.9h-3.1l3.1-9.9h4zm35.4-30.8h-3.6V134H798c6.5 0 11.2 4.3 11.2 11 0 6-3.7 9.5-7.5 10.4v.1s.8.4 1.3 1.5l5.6 11c.6 1.2 1.4 1.3 2.8 1.3h.8v3.4h-1.7c-3.1 0-4.1-.4-5.4-2.9l-5.6-11.1c-1-2-1.8-2.3-3.9-2.3H789v16.3h-3.9v-35.3zm12.5 15.6c4.6 0 7.5-3 7.5-7.9 0-4.8-2.9-7.7-7.5-7.7H789V153h8.6zm23.1 16.3h3.6v-32h-3.6v-3.4h11.1v3.4h-3.7v32h3.7v3.4h-11.1v-3.4zm23.5-4.2s3.9 4.7 10 4.7c4.3 0 7.7-2.8 7.7-6.9 0-9.6-19.2-7.7-19.2-19.7 0-5.4 4.7-9.9 11.9-9.9 3.8 0 10.5 1.6 10.5 6.7v2.8h-3.6V141c0-2.3-3.2-4-6.8-4-5 0-7.9 2.9-7.9 6.2 0 9 19.2 6.8 19.2 19.6 0 5.8-4.5 10.7-11.8 10.7-7.9 0-12.3-5.5-12.3-5.5l2.3-2.9zm35.6-27.7h-3.6V134h16.4c6.9 0 12 4.5 12 11.7 0 7.2-5.1 11.9-12 11.9h-8.9v15.2h-3.9v-35.4zm12.4 16.7c5.1 0 8.5-3.1 8.5-8.4 0-5.2-3.4-8.3-8.4-8.3h-8.5v16.7h8.4zm16.6 15.2h.7c1 0 1.6-.2 2-1.2l12.7-34.2h4.1l12.7 34.2c.4 1 .9 1.2 2 1.2h.7v3.4h-1.8c-2.8 0-3.6-.6-4.6-3.2l-3.4-9.2h-15.4l-3.4 9.2c-1 2.6-1.8 3.2-4.5 3.2h-1.8v-3.4zm24.1-12.3l-5.1-13.9c-.7-1.8-1.5-5-1.5-5h-.1s-.8 3.2-1.5 5l-5.1 13.9h13.3zm23-19.6h-3.6V134h16.5c6.5 0 11.2 4.3 11.2 11 0 6-3.7 9.5-7.5 10.4v.1s.8.4 1.3 1.5l5.6 11c.6 1.2 1.4 1.3 2.8 1.3h.8v3.4h-1.7c-3.1 0-4.1-.4-5.4-2.9l-5.6-11.1c-1-2-1.8-2.3-3.9-2.3h-6.5v16.3H956v-35.3zm12.4 15.6c4.6 0 7.5-3 7.5-7.9 0-4.8-2.9-7.7-7.5-7.7h-8.7V153h8.7zm21.8 16.3h2c.8 0 1.2-.4 1.2-1.2l2.7-34.2h3.9l10.3 22.6c.9 2 1.9 4.6 1.9 4.6h.1s1-2.6 1.9-4.6l10.3-22.6h3.9l2.7 34.2c.1.8.4 1.2 1.2 1.2h2.1v3.4h-3.8c-2.4 0-3.2-1-3.4-3.4l-1.8-23.6c-.2-2.1-.2-5.4-.2-5.4h-.1s-1 3.4-2 5.4l-9.2 19.7h-3.5l-9.2-19.7c-.9-1.9-2-5.5-2-5.5h-.1s0 3.4-.2 5.5l-1.8 23.6c-.2 2.4-1 3.4-3.4 3.4h-3.7v-3.4zm53.5 0h3.6v-32h-3.6v-3.4h11.1v3.4h-3.7v32h3.7v3.4h-11.1v-3.4zm41-36c11 0 19.8 8.7 19.8 19.8 0 11.4-8.8 20.3-19.8 20.3s-19.8-8.9-19.8-20.3c0-11.2 8.7-19.8 19.8-19.8zm0 36.5c8.7 0 15.7-7.3 15.7-16.7 0-9.2-7.1-16.2-15.7-16.2-8.7 0-15.7 7-15.7 16.2-.1 9.4 7 16.7 15.7 16.7zm35-1.6l-4 9.9h-3.1l3.1-9.9h4zm-624.5 24.4h-3.6v-3.4H508c6.5 0 11.2 4.3 11.2 11 0 6-3.7 9.5-7.5 10.4v.1s.8.4 1.3 1.5l5.6 11c.6 1.2 1.4 1.3 2.8 1.3h.8v3.4h-1.7c-3.1 0-4.1-.4-5.4-2.9l-5.6-11.1c-1-2-1.8-2.3-3.9-2.3H499v16.3h-3.9v-35.3zm12.5 15.6c4.6 0 7.5-3 7.5-7.9 0-4.8-2.9-7.7-7.5-7.7H499v15.6h8.6zm26.4-15.6h-3.6v-3.4h22.2c2.4 0 3.4 1 3.4 3.4v3.9h-3.6v-2.6c0-.8-.4-1.2-1.2-1.2H538v14.1h14.6v3.4H538v13.2c0 .8.4 1.2 1.2 1.2h13.6c.8 0 1.2-.4 1.2-1.2v-2.6h3.6v3.9c0 2.4-1 3.4-3.4 3.4h-16.8c-2.4 0-3.4-1-3.4-3.4v-32.1zm51.7-4.1c5.5 0 14.5 2.4 14.5 8.2v3.2h-3.6v-2.2c0-3.6-6.3-5.6-10.8-5.6-8.6 0-15.2 6.7-15.2 16.1 0 9.3 6.6 16.7 15.4 16.7 8 0 12.7-5.5 12.7-5.5l2.2 2.8s-5.4 6.3-15 6.3c-11.4 0-19.4-9.1-19.4-20.4 0-11.1 8.3-19.6 19.2-19.6zm28 5.3c0-.8-.4-1.2-1.2-1.2h-2.4v-3.4h4.1c2.4 0 3.4 1 3.4 3.4v22c0 6.5 4.1 10.5 10.4 10.5 6.3 0 10.5-4 10.5-10.6v-21.9c0-2.4 1-3.4 3.4-3.4h4.1v3.4h-2.4c-.8 0-1.2.4-1.2 1.2v20.9c0 8.4-5.7 14-14.3 14-8.6 0-14.4-5.6-14.4-14v-20.9zm45.6-1.2h-3.6v-3.4h16.4c6.9 0 12 4.5 12 11.7 0 7.2-5.1 11.9-12 11.9h-8.9V228h-3.9v-35.4zm12.3 16.7c5.1 0 8.5-3.1 8.5-8.4 0-5.2-3.4-8.3-8.4-8.3h-8.5v16.7h8.4zm25.1-16.7h-3.6v-3.4h22.2c2.4 0 3.4 1 3.4 3.4v3.9h-3.6v-2.6c0-.8-.4-1.2-1.2-1.2h-13.2v14.1h14.6v3.4h-14.6v13.2c0 .8.4 1.2 1.2 1.2h13.6c.8 0 1.2-.4 1.2-1.2v-2.6h3.6v3.9c0 2.4-1 3.4-3.4 3.4h-16.8c-2.4 0-3.4-1-3.4-3.4v-32.1zm36.4 0h-3.6v-3.4H746c6.5 0 11.2 4.3 11.2 11 0 6-3.7 9.5-7.5 10.4v.1s.8.4 1.3 1.5l5.6 11c.6 1.2 1.4 1.3 2.8 1.3h.8v3.4h-1.7c-3.1 0-4.1-.4-5.4-2.9l-5.6-11.1c-1-2-1.8-2.3-3.9-2.3h-6.5v16.3h-3.9v-35.3zm12.4 15.6c4.6 0 7.5-3 7.5-7.9 0-4.8-2.9-7.7-7.5-7.7h-8.7v15.6h8.7zm42.3-19.7c11 0 19.8 8.7 19.8 19.8 0 11.4-8.8 20.3-19.8 20.3s-19.8-8.9-19.8-20.3c0-11.2 8.7-19.8 19.8-19.8zm0 36.5c8.7 0 15.7-7.3 15.7-16.7 0-9.2-7.1-16.2-15.7-16.2-8.7 0-15.7 7-15.7 16.2-.1 9.4 7 16.7 15.7 16.7zm53.7-32.4h-3.6v-3.4h22.2c2.4 0 3.4 1 3.4 3.4v3.9h-3.6v-2.6c0-.8-.4-1.2-1.2-1.2h-13.2v14.1H860v3.4h-14.6v13.2c0 .8.4 1.2 1.2 1.2h13.6c.8 0 1.2-.4 1.2-1.2v-2.6h3.6v3.9c0 2.4-1 3.4-3.4 3.4h-16.8c-2.4 0-3.4-1-3.4-3.4v-32.1zm56.9 0h-3.6v-3.4h16.5c6.5 0 11.2 4.3 11.2 11 0 6-3.7 9.5-7.5 10.4v.1s.8.4 1.3 1.5l5.6 11c.6 1.2 1.4 1.3 2.8 1.3h.8v3.4h-1.7c-3.1 0-4.1-.4-5.4-2.9l-5.6-11.1c-1-2-1.8-2.3-3.9-2.3h-6.5v16.3h-3.9v-35.3zm12.5 15.6c4.6 0 7.5-3 7.5-7.9 0-4.8-2.9-7.7-7.5-7.7h-8.7v15.6h8.7zm23 16.3h3.6v-32h-3.6v-3.4H945v3.4h-3.7v32h3.7v3.4h-11.1v-3.4zm24.7-30.7c0-.8-.4-1.2-1.2-1.2H955v-3.4h4.1c2.4 0 3.4 1 3.4 3.4v22c0 6.5 4.1 10.5 10.4 10.5 6.3 0 10.5-4 10.5-10.6v-21.9c0-2.4 1-3.4 3.4-3.4h4.1v3.4h-2.4c-.8 0-1.2.4-1.2 1.2v20.9c0 8.4-5.7 14-14.3 14-8.6 0-14.4-5.6-14.4-14v-20.9zm44 26.5s3.9 4.7 10 4.7c4.3 0 7.7-2.8 7.7-6.9 0-9.6-19.2-7.7-19.2-19.7 0-5.4 4.7-9.9 11.9-9.9 3.8 0 10.5 1.6 10.5 6.7v2.8h-3.6v-1.8c0-2.3-3.2-4-6.8-4-5 0-7.9 2.9-7.9 6.2 0 9 19.2 6.8 19.2 19.6 0 5.8-4.5 10.7-11.8 10.7-7.9 0-12.3-5.5-12.3-5.5l2.3-2.9zm51.6-31.8c11 0 19.8 8.7 19.8 19.8 0 11.4-8.8 20.3-19.8 20.3s-19.8-8.9-19.8-20.3c0-11.2 8.7-19.8 19.8-19.8zm0 36.5c8.7 0 15.7-7.3 15.7-16.7 0-9.2-7.1-16.2-15.7-16.2-8.7 0-15.7 7-15.7 16.2-.1 9.4 6.9 16.7 15.7 16.7z"/></svg>