<svg id="Livello_1" xmlns="http://www.w3.org/2000/svg" viewBox="0 0 825.8 509.7"><style>.st0{fill-rule:evenodd;clip-rule:evenodd;fill:none;stroke:#4e5594;stroke-width:3;stroke-linecap:round;stroke-miterlimit:10;stroke-dasharray:0,8}.st1{fill:#d8b200}.st1,.st2{fill-rule:evenodd;clip-rule:evenodd}.st2,.st3{fill:#4e5594}.st4{fill-rule:evenodd;clip-rule:evenodd;fill:#00295a}.st5{fill:#d8b200}.st6{fill:#fff}</style><path class="st0" d="M726.4 125.9c52.3 0 94.8 42.4 94.8 94.8 0 52.3-42.4 94.8-94.8 94.8"/><path class="st1" d="M228 38.4c72.5 0 131.3 58.8 131.3 131.3 0 72.5-58.8 131.3-131.3 131.3S96.8 242.2 96.8 169.7c0-72.5 58.7-131.3 131.2-131.3z"/><path class="st2" d="M85.1 38.5c38.4 0 69.4 31.1 69.4 69.4s-31.1 69.4-69.4 69.4-69.4-31.1-69.4-69.4 31-69.4 69.4-69.4z"/><path class="st3" d="M433.2 480.2c-.9 0-1.6-.7-1.6-1.5 0-.9.7-1.6 1.6-1.6.9 0 1.6.7 1.6 1.6 0 .8-.7 1.5-1.6 1.5.1 0 0 0 0 0zm-9.6 0c-.9 0-1.6-.7-1.5-1.6 0-.9.7-1.6 1.6-1.6.9 0 1.6.7 1.6 1.6-.1.9-.8 1.6-1.7 1.6.1 0 .1 0 0 0zm-9.6-.3c-.9 0-1.5-.8-1.5-1.6 0-.9.8-1.6 1.6-1.5.9.1 1.6.8 1.5 1.7 0 .8-.7 1.5-1.5 1.5 0-.1 0-.1-.1-.1zm-9.6-.6c-.9-.1-1.5-.8-1.4-1.7.1-.8.8-1.5 1.7-1.4.8.1 1.5.8 1.4 1.7-.1.8-.7 1.4-1.5 1.5 0-.1-.1 0-.2-.1zm-9.5-.9c-.9-.1-1.5-.9-1.4-1.8.1-.9.9-1.5 1.7-1.4.8.1 1.5.9 1.4 1.7-.1.8-.7 1.4-1.5 1.4-.1.1-.2.1-.2.1zm-9.6-1.2c-.9-.1-1.5-1-1.4-1.8.1-.9 1-1.5 1.8-1.3.9.1 1.5.9 1.3 1.8-.1.8-.7 1.3-1.5 1.3h-.2zm-9.5-1.6c-.9-.2-1.4-1-1.3-1.8.2-.9 1-1.4 1.8-1.3.9.2 1.4 1 1.3 1.8-.1.7-.8 1.3-1.5 1.3h-.3zm-9.4-1.9c-.8-.2-1.4-1-1.2-1.9.2-.8 1-1.4 1.9-1.2.9.2 1.4 1 1.2 1.9-.2.7-.8 1.2-1.5 1.2h-.4zm-9.3-2.3c-.9-.2-1.3-1.1-1.1-1.9.2-.8 1.1-1.3 1.9-1.1.8.2 1.3 1.1 1.1 1.9-.2.7-.8 1.2-1.4 1.2-.2 0-.4-.1-.5-.1zm-9.3-2.6c-.8-.2-1.3-1.1-1-2 .2-.8 1.1-1.3 2-1 .8.2 1.3 1.1 1 2-.2.7-.8 1.1-1.4 1.1-.2 0-.4-.1-.6-.1zm-9.1-3c-.8-.3-1.3-1.2-1-2 .3-.8 1.2-1.3 2-1 .8.3 1.2 1.2 1 2-.2.6-.8 1-1.4 1.1-.3 0-.5 0-.6-.1zm-9.1-3.3c-.8-.3-1.2-1.2-.9-2 .3-.8 1.2-1.2 2-.9.8.3 1.2 1.2.9 2-.2.6-.8 1-1.4 1-.1 0-.4 0-.6-.1zm-8.8-3.7c-.8-.3-1.2-1.3-.8-2.1.4-.8 1.3-1.2 2.1-.8.8.3 1.2 1.3.8 2.1-.2.6-.8.9-1.4.9-.3 0-.5 0-.7-.1zm-8.8-4.1c-.8-.4-1.1-1.3-.7-2.1.4-.8 1.3-1.1 2.1-.7.8.4 1.1 1.3.7 2.1-.2.5-.8.9-1.3.9-.3-.1-.5-.1-.8-.2zm-8.5-4.5c-.7-.4-1-1.4-.6-2.2.4-.8 1.4-1 2.1-.6.8.4 1 1.4.6 2.1-.3.5-.8.8-1.3.8-.2.1-.5 0-.8-.1zm-8.3-4.9c-.7-.5-1-1.4-.5-2.2.5-.7 1.4-1 2.2-.5.7.5 1 1.4.5 2.2-.3.5-.8.7-1.3.8-.3-.1-.6-.1-.9-.3zm-8.1-5.3c-.7-.5-.9-1.5-.4-2.2.5-.7 1.5-.9 2.2-.4.7.5.9 1.5.4 2.2-.3.4-.7.7-1.2.7-.3 0-.7-.1-1-.3zm-7.7-5.7c-.7-.5-.8-1.5-.3-2.2.5-.7 1.5-.8 2.2-.3.7.5.8 1.5.3 2.2-.3.4-.7.6-1.2.6-.4.1-.7 0-1-.3zm-7.5-6.1c-.6-.6-.7-1.6-.2-2.2.6-.6 1.6-.7 2.2-.2.6.6.7 1.6.2 2.2-.3.3-.7.5-1.1.5-.4.1-.8 0-1.1-.3zm-7.2-6.5c-.6-.6-.6-1.6-.1-2.2.6-.6 1.6-.6 2.2-.1.6.6.6 1.6.1 2.2-.3.3-.7.5-1.1.5-.3.1-.7 0-1.1-.4zm-6.7-6.9c-.6-.6-.5-1.6.1-2.2.6-.6 1.6-.5 2.2.1.6.6.5 1.6-.1 2.2-.3.3-.6.4-1 .4-.4.1-.9-.1-1.2-.5zm-6.4-7.3c-.6-.7-.5-1.7.2-2.2.7-.6 1.7-.5 2.2.2.6.7.5 1.7-.2 2.2-.3.2-.6.4-.9.4-.5.1-.9-.1-1.3-.6zm-5.8-7.6c-.5-.7-.4-1.7.3-2.2.7-.5 1.7-.4 2.2.4.5.7.4 1.7-.3 2.2-.3.2-.6.3-.9.3-.5 0-1-.2-1.3-.7zm-5.4-8c-.5-.8-.2-1.7.5-2.2.7-.5 1.7-.3 2.2.5.5.7.2 1.7-.5 2.2-.2.2-.5.2-.8.2-.6.1-1.1-.2-1.4-.7zm-4.9-8.3c-.4-.8-.1-1.7.6-2.1.8-.4 1.7-.1 2.1.6.4.7.1 1.7-.6 2.1-.2.1-.4.2-.7.2-.5 0-1.1-.3-1.4-.8zm-4.3-8.7c-.4-.8 0-1.7.8-2.1.8-.4 1.7 0 2.1.8.4.8 0 1.7-.8 2.1-.2.1-.4.1-.6.1-.6 0-1.3-.3-1.5-.9zm-3.8-8.9c-.3-.8.1-1.7.9-2 .8-.3 1.7.1 2 .9.3.8-.1 1.7-.9 2-.1.1-.3.1-.5.1-.6 0-1.2-.4-1.5-1zm-3.1-9.2c-.3-.8.2-1.7 1-2 .8-.2 1.7.2 2 1.1.3.8-.2 1.7-1 2-.1 0-.2.1-.4.1-.7 0-1.4-.4-1.6-1.2zm-2.6-9.3c-.2-.9.3-1.7 1.2-1.9.8-.2 1.7.3 1.9 1.2.2.8-.3 1.7-1.2 1.9h-.3c-.7.1-1.4-.4-1.6-1.2zm-1.9-9.4c-.1-.9.4-1.7 1.3-1.8.8-.2 1.7.4 1.8 1.3.2.9-.4 1.7-1.3 1.8h-.2c-.8 0-1.5-.5-1.6-1.3zm-1.3-9.6c-.1-.9.5-1.7 1.4-1.8.9-.1 1.6.5 1.8 1.4.1.9-.5 1.6-1.4 1.7h-.1c-.9.1-1.6-.5-1.7-1.3zm222.3 149.8c-.1-.9.6-1.6 1.4-1.7.9-.1 1.6.6 1.7 1.4.1.9-.6 1.6-1.5 1.7h-.1c-.7.1-1.4-.5-1.5-1.4zm9.5-.9c-.1-.9.5-1.7 1.4-1.8.9-.1 1.6.5 1.8 1.4.1.8-.5 1.6-1.4 1.7h-.1c-.8.1-1.6-.5-1.7-1.3zm9.5-1.3c-.1-.9.4-1.7 1.3-1.8.9-.1 1.7.4 1.8 1.3.1.9-.4 1.7-1.3 1.8h-.2c-.8.1-1.5-.5-1.6-1.3zm9.4-1.6c-.2-.9.4-1.7 1.2-1.9.9-.2 1.7.4 1.8 1.2.2.9-.4 1.7-1.2 1.9h-.2c-.8.1-1.5-.4-1.6-1.2zm9.3-2c-.2-.8.3-1.7 1.2-1.9.9-.2 1.7.3 1.9 1.2.2.9-.3 1.7-1.2 1.9-.1 0-.2.1-.3.1-.7 0-1.4-.6-1.6-1.3zm9.2-2.4c-.2-.8.2-1.7 1.1-1.9.9-.2 1.7.2 2 1.1.2.8-.3 1.7-1.1 1.9-.1.1-.2.1-.3.1-.8 0-1.5-.4-1.7-1.2zm9.2-2.7c-.3-.8.2-1.7 1-2 .8-.3 1.7.2 2 1 .3.8-.2 1.7-1 2-.1 0-.3.1-.4.1-.7.1-1.4-.4-1.6-1.1zm9-3c-.3-.8.1-1.7.9-2 .8-.3 1.7.1 2 .9.3.8-.1 1.7-.9 2-.2.1-.3.1-.5.1-.6 0-1.3-.4-1.5-1zm8.9-3.5c-.3-.8 0-1.7.8-2.1.8-.4 1.7 0 2.1.8.3.8 0 1.7-.8 2.1-.2.1-.4.1-.5.1-.7.1-1.3-.2-1.6-.9zm8.8-3.8c-.4-.8 0-1.7.8-2.1.8-.4 1.7 0 2.1.8.4.8 0 1.7-.7 2.1-.2.1-.4.1-.6.2-.7 0-1.4-.4-1.6-1zm8.5-4.1c-.4-.8-.1-1.7.7-2.1.8-.4 1.7-.1 2.1.7.4.8.1 1.7-.7 2.1-.2.1-.4.2-.6.2-.6 0-1.2-.3-1.5-.9zm8.5-4.5c-.4-.8-.2-1.7.6-2.1.8-.4 1.7-.2 2.1.6.4.8.2 1.7-.6 2.1-.2.1-.5.2-.7.2-.6 0-1.1-.3-1.4-.8zm8.2-4.9c-.5-.7-.3-1.7.5-2.2.7-.5 1.7-.3 2.2.5.5.7.3 1.7-.5 2.2-.2.2-.5.2-.8.2-.6.1-1.1-.1-1.4-.7zm8-5.1c-.5-.7-.3-1.7.4-2.2.7-.5 1.7-.3 2.2.4.5.7.3 1.7-.4 2.2-.2.2-.5.3-.8.3-.6 0-1.1-.3-1.4-.7zm7.8-5.6c-.5-.7-.4-1.7.3-2.2.7-.5 1.7-.4 2.2.3.5.7.4 1.7-.3 2.2-.3.2-.6.3-.9.3-.5.1-1-.1-1.3-.6zm7.5-5.9c-.6-.7-.5-1.7.2-2.2.7-.6 1.6-.5 2.2.2.6.6.5 1.6-.2 2.2-.3.2-.6.3-.9.3-.5.1-1-.1-1.3-.5zm7.2-6.2c-.6-.6-.5-1.6.1-2.2.6-.6 1.6-.6 2.2.1.6.6.5 1.6-.1 2.2-.3.2-.7.4-1 .4-.4.1-.9-.1-1.2-.5zm7-6.5c-.6-.6-.6-1.6 0-2.2.6-.6 1.6-.6 2.2 0 .6.6.6 1.6 0 2.2-.3.3-.7.4-1 .4-.5.1-.9-.1-1.2-.4zm6.6-6.9c-.6-.6-.7-1.6-.1-2.2.6-.6 1.6-.7 2.2-.1.6.6.7 1.6.1 2.2-.3.3-.7.5-1.1.5-.4.1-.8-.1-1.1-.4zm6.3-7.2c-.7-.5-.8-1.5-.2-2.2.6-.7 1.6-.8 2.2-.2.7.6.8 1.6.2 2.2-.3.4-.7.6-1.1.6-.4 0-.8-.1-1.1-.4zm5.9-7.4c-.7-.5-.9-1.5-.3-2.2.5-.7 1.5-.8 2.2-.3.7.5.8 1.5.3 2.2-.3.4-.7.6-1.2.7-.3-.1-.7-.2-1-.4zm5.6-7.8c-.7-.5-.9-1.4-.5-2.2.5-.7 1.5-.9 2.2-.4.7.5.9 1.4.4 2.2-.3.4-.8.7-1.3.7-.2 0-.5-.1-.8-.3zm5.1-8.1c-.7-.4-1-1.4-.5-2.2.4-.7 1.4-1 2.2-.6.7.4 1 1.4.6 2.2-.3.5-.8.7-1.3.8-.4.1-.7 0-1-.2zm4.7-8.3c-.8-.4-1.1-1.4-.7-2.1.4-.8 1.4-1.1 2.1-.7.8.4 1.1 1.3.7 2.1-.3.5-.8.8-1.3.8-.3.1-.5.1-.8-.1zm4.3-8.5c-.8-.4-1.2-1.3-.8-2.1.4-.8 1.3-1.2 2.1-.8.8.4 1.1 1.3.8 2.1-.2.6-.8.9-1.3.9-.4 0-.6 0-.8-.1zm3.7-8.8c-.8-.3-1.2-1.2-.9-2 .3-.8 1.2-1.2 2-.9.8.3 1.2 1.2.9 2-.2.6-.8 1-1.4 1-.2 0-.4 0-.6-.1zm3.3-9c-.8-.3-1.3-1.2-1-2 .3-.8 1.2-1.3 2-1 .8.3 1.3 1.2 1 2-.2.7-.8 1.1-1.4 1.1-.3 0-.4 0-.6-.1zm2.7-9.1c-.9-.2-1.4-1.1-1.1-1.9.2-.9 1.1-1.3 1.9-1.1.8.2 1.3 1.1 1.1 1.9-.2.7-.8 1.2-1.5 1.2-.1-.1-.2-.1-.4-.1zm2.2-9.3c-.9-.2-1.4-1-1.3-1.9.2-.9 1-1.4 1.9-1.2.9.2 1.4 1 1.3 1.8-.1.7-.8 1.3-1.5 1.3h-.4zm1.6-9.4c-.9-.1-1.5-.9-1.4-1.8.1-.9.9-1.5 1.8-1.4.9.1 1.5.9 1.4 1.8-.1.8-.7 1.3-1.5 1.4h-.3zm1.1-9.5c-.9-.1-1.5-.8-1.4-1.7.1-.9.8-1.5 1.7-1.5.8.1 1.5.8 1.4 1.7-.1.8-.7 1.4-1.5 1.5h-.2zm.5-9.5c-.9 0-1.6-.7-1.5-1.6 0-.9.7-1.6 1.6-1.6.9 0 1.6.7 1.6 1.6-.1.9-.8 1.5-1.7 1.6zm-421.3 8.7l-6.4 20.5 7-5.9 7.6 5.2-8.2-19.8z"/><path class="st4" d="M652.6 222.5c44.7 0 80.9 36.2 80.9 80.9s-36.2 80.9-80.9 80.9-80.9-36.2-80.9-80.9 36.2-80.9 80.9-80.9zm44.7-161.8c44.7 0 80.9 36.2 80.9 80.9s-36.2 80.9-80.9 80.9-80.9-36.2-80.9-80.9 36.2-80.9 80.9-80.9z"/><path class="st5" d="M57.5 102.3c0-2.5-1.9-4.5-4.9-4.5-2.4 0-4.2 1.2-4.2 2.6v1.1h-2.2v-1.8c0-3 4.1-4.2 6.5-4.2 4.5 0 7.2 3 7.2 6.7 0 8.4-12.6 8.1-12.6 14.7 0 .5.3.7.8.7H58c.5 0 .7-.2.7-.7v-1.6H61v2.4c0 1.5-.6 2.1-2.1 2.1H47c-1.6 0-2.1-.7-2.1-2.3 0-8.8 12.6-8.1 12.6-15.2zm10.3 5.6c0-6.8 2-12.3 8.2-12.3s8.2 5.4 8.2 12.3-2 12.3-8.2 12.3-8.2-5.4-8.2-12.3zm13.9 0c0-5.6-1.3-10.1-5.8-10.1s-5.8 4.4-5.8 10.1c0 5.7 1.3 10.1 5.8 10.1s5.8-4.4 5.8-10.1zm9.5 9.8h5.3V99h-.1s-.2.5-1.2 1.4l-2.5 2.5-1.5-1.5 5.4-5.3h2.2v21.7h5.2v2.1H91.2v-2.2zm30-17.4c.7-1.3 1.3-2.2 1.3-2.2V98s-.6.1-1.8.1h-8.6c-.5 0-.7.2-.7.7v1.6h-2.2V98c0-1.5.6-2.1 2-2.1h14v1.6l-11.8 22.1h-2.6l10.4-19.3z"/><path class="st6" d="M170.7 99.5s1.5 1.8 3.8 1.8c1.6 0 2.9-1 2.9-2.6 0-3.6-7.2-2.9-7.2-7.4 0-2 1.8-3.7 4.5-3.7 1.4 0 3.9.6 3.9 2.5v1h-1.4v-.7c0-.9-1.2-1.5-2.6-1.5-1.9 0-3 1.1-3 2.3 0 3.4 7.2 2.6 7.2 7.4 0 2.2-1.7 4-4.4 4-3 0-4.6-2.1-4.6-2.1l.9-1zm17.5-7.8c3 0 5.5 2.3 5.5 5.4 0 3.2-2.5 5.5-5.5 5.5s-5.5-2.4-5.5-5.5c.1-3.1 2.5-5.4 5.5-5.4zm.1 9.6c2.2 0 4-1.8 4-4.3 0-2.4-1.8-4.1-4-4.1s-4.1 1.8-4.1 4.1c0 2.5 1.8 4.3 4.1 4.3zm10.2-7.7c0-.3-.2-.5-.5-.5h-.9v-1.2h1.5c.9 0 1.3.4 1.3 1.2v1.2c.4-1 1.7-2.6 4.1-2.6 2.6 0 3.5 1.5 3.5 4v5c0 .3.2.5.5.5h.9v1.2h-1.5c-.9 0-1.3-.4-1.3-1.3v-5c0-1.6-.2-3.1-2.3-3.1-1.8 0-3.3 1.2-3.8 2.9-.1.4-.2.9-.2 1.4v5h-1.4v-8.7zm19.2-1.9c3 0 5.5 2.3 5.5 5.4 0 3.2-2.5 5.5-5.5 5.5s-5.5-2.4-5.5-5.5 2.4-5.4 5.5-5.4zm0 9.6c2.2 0 4-1.8 4-4.3 0-2.4-1.8-4.1-4-4.1s-4.1 1.8-4.1 4.1c0 2.5 1.9 4.3 4.1 4.3zm17.5-1.5s1.2 1.6 3.2 1.6c1.2 0 2.2-.6 2.2-1.7 0-2.3-5.8-1.9-5.8-5.2 0-1.9 1.6-2.8 3.7-2.8 1.1 0 3.2.4 3.2 1.9v.9h-1.3V94c0-.8-1.1-1.1-1.8-1.1-1.5 0-2.3.5-2.3 1.5 0 2.3 5.8 1.8 5.8 5.3 0 1.7-1.6 2.9-3.6 2.9-2.7 0-4-1.8-4-1.8l.7-1zm11.7-6.7h-1.4v-1.2h1.4V89h1.4v2.9h2.6v1.2h-2.6v5.3c0 2.4 1.6 2.8 2.3 2.8h.5v1.3h-.6c-1.2 0-3.6-.4-3.6-3.9v-5.5zm14.2 2.8h.6v-.1c0-2.2-.8-2.9-2.7-2.9-.5 0-2 .1-2 .9v.7h-1.3v-1c0-1.5 2.5-1.8 3.4-1.8 3.3 0 4.1 1.8 4.1 4v5c0 .3.2.5.5.5h.9v1.2H263c-.9 0-1.2-.4-1.2-1.2v-.8s-.9 2.3-3.5 2.3c-1.7 0-3.5-1-3.5-3.1-.1-3.5 4.5-3.7 6.3-3.7zm-2.6 5.5c2 0 3.2-2.1 3.2-3.9V97h-.6c-1.6 0-4.9 0-4.9 2.4 0 1 .7 2 2.3 2zm10.3-8.3h-1.4v-1.2h1.4V89h1.4v2.9h2.6v1.2h-2.6v5.3c0 2.4 1.6 2.8 2.3 2.8h.5v1.3h-.6c-1.2 0-3.6-.4-3.6-3.9v-5.5zm12.9-1.4c2.9 0 4.4 2.2 4.4 4.8v.7h-8c0 2.6 1.9 4.1 4 4.1 1.9 0 3.1-1.3 3.1-1.3l.7 1.1s-1.5 1.5-3.9 1.5c-3.1 0-5.5-2.2-5.5-5.5.1-3.4 2.4-5.4 5.2-5.4zm2.9 4.4c-.1-2.2-1.4-3.2-2.9-3.2-1.7 0-3.2 1.1-3.6 3.2h6.5zm-110.1 19.4c0-.3-.2-.5-.5-.5h-.9v-1.2h1.5c.9 0 1.3.4 1.3 1.3v7.5c0 .3.2.5.5.5h.9v1.2h-1.5c-.9 0-1.3-.4-1.3-1.3v-7.5zm0-5.8h1.4v1.8h-1.4v-1.8zm7.2 5.8c0-.3-.2-.5-.5-.5h-.9v-1.2h1.5c.9 0 1.3.4 1.3 1.2v1.2c.5-1.4 2.2-2.6 3.8-2.6 1.9 0 2.9.9 3.2 2.6.6-1.4 2.1-2.6 3.8-2.6 2.5 0 3.5 1.5 3.5 4v5c0 .3.2.5.5.5h.9v1.2h-1.5c-.9 0-1.3-.4-1.3-1.3v-5c0-1.7-.4-3.1-2.3-3.1-1.6 0-2.9 1.4-3.3 2.9-.1.5-.2 1-.2 1.5v4.9h-1.4V118c0-1.6-.2-3.1-2.2-3.1-1.7 0-3 1.5-3.4 3.1-.1.4-.2.9-.2 1.4v4.9h-1.4v-8.8zm21.4 0c0-.3-.2-.5-.5-.5h-.9v-1.2h1.4c.9 0 1.2.4 1.2 1.1v.7s.8-2.1 3.6-2.1 4.5 2.2 4.5 5.5-2 5.5-4.7 5.5c-2.6 0-3.4-2-3.4-2v5.9h-1.4v-12.9zm4.6 7.7c1.8 0 3.4-1.6 3.4-4.2s-1.3-4.2-3.3-4.2c-1.7 0-3.4 1.2-3.4 4.2 0 2.1 1.2 4.2 3.3 4.2zm9.7-7.7c0-.3-.2-.5-.5-.5h-.9v-1.2h1.5c.9 0 1.3.4 1.3 1.3v7.5c0 .3.2.5.5.5h.9v1.2h-1.5c-.9 0-1.3-.4-1.3-1.3v-7.5zm0-5.8h1.4v1.8h-1.4v-1.8zm11.3 3.9c2.9 0 4.4 2.2 4.4 4.8v.7h-8c0 2.6 1.9 4.1 4 4.1 1.9 0 3.1-1.3 3.1-1.3l.7 1.1s-1.5 1.5-3.9 1.5c-3.1 0-5.5-2.2-5.5-5.5.1-3.4 2.4-5.4 5.2-5.4zm3 4.4c-.1-2.2-1.4-3.2-2.9-3.2-1.7 0-3.2 1.1-3.6 3.2h6.5zm9.9-4.4c2.8 0 3.5 1.8 3.5 1.8v-.4c0-.7.3-1.1 1.2-1.1h1.5v1.2h-.9c-.3 0-.5.1-.5.5v8.5c0 3.3-2.4 4.6-5 4.6-1.2 0-2.4-.3-3.4-.8l.5-1.2s1.3.7 2.8.7c2 0 3.6-1 3.6-3.3v-1.6c-.6 1.1-1.7 1.8-3.3 1.8-2.8 0-4.6-2.2-4.6-5.4s1.8-5.3 4.6-5.3zm3.4 5.2c0-3-1.5-4-3.3-4-2 0-3.2 1.5-3.2 4s1.3 4.1 3.4 4.1c1.7 0 3.1-1 3.1-4.1zm12.5-1h.6v-.1c0-2.2-.8-2.9-2.7-2.9-.5 0-2 .1-2 .9v.7H252v-1c0-1.5 2.5-1.8 3.4-1.8 3.3 0 4.1 1.8 4.1 4v5c0 .3.2.5.5.5h.9v1.2h-1.4c-.9 0-1.2-.4-1.2-1.2v-.8s-.9 2.3-3.5 2.3c-1.7 0-3.5-1-3.5-3.1-.2-3.6 4.4-3.7 6.2-3.7zm-2.6 5.5c2 0 3.2-2.1 3.2-3.9v-.5h-.6c-1.6 0-4.9 0-4.9 2.4 0 1 .7 2 2.3 2zm10.4-8.3h-1.4v-1.2h1.4v-2.9h1.4v2.9h2.6v1.2h-2.6v5.3c0 2.4 1.6 2.8 2.3 2.8h.5v1.3h-.6c-1.2 0-3.6-.4-3.6-3.9V115zm12.8-1.4c2.9 0 4.4 2.2 4.4 4.8v.7h-8c0 2.6 1.9 4.1 4 4.1 1.9 0 3.1-1.3 3.1-1.3l.7 1.1s-1.5 1.5-3.9 1.5c-3.1 0-5.5-2.2-5.5-5.5.1-3.4 2.4-5.4 5.2-5.4zm2.9 4.4c-.1-2.2-1.4-3.2-2.9-3.2-1.7 0-3.2 1.1-3.6 3.2h6.5z"/><path class="st3" d="M189.8 158.5s2.3 2.7 5.9 2.7c2.7 0 5.1-2 5.1-4.9 0-3.1-2.6-4.8-5.5-4.8h-1.6l-.5-1.3 5.6-6.7c.5-.7 1.2-1.3 1.2-1.3v-.1s-.6.1-1.8.1h-5.9c-.5 0-.7.2-.7.7v1.5h-2.1v-2.3c0-1.4.5-2 1.9-2h11.5v1.5l-6.7 7.8c2.8.2 7 1.8 7 6.7 0 3.8-3.2 7.1-7.5 7.1-4.5 0-7.3-3.2-7.3-3.2l1.4-1.5zm17.1 1.9h2.5v2.6h-2.5v-2.6zm18-14.1c0-2.4-1.8-4.3-4.6-4.3-2.3 0-4 1.2-4 2.5v1.1h-2.1v-1.7c0-2.9 3.9-4 6.2-4 4.3 0 6.9 2.8 6.9 6.4 0 8-12 7.8-12 14.1 0 .5.3.6.7.6h9.5c.5 0 .7-.2.7-.7v-1.5h2.1v2.3c0 1.4-.6 2-2 2H215c-1.5 0-2-.6-2-2.2 0-8.6 11.9-7.9 11.9-14.6zm6.6 5.3c0-6.5 1.9-11.7 7.8-11.7s7.8 5.2 7.8 11.7c0 6.6-1.9 11.7-7.8 11.7s-7.8-5.1-7.8-11.7zm13.4 0c0-5.4-1.2-9.6-5.5-9.6s-5.5 4.2-5.5 9.6c0 5.4 1.2 9.6 5.5 9.6 4.2 0 5.5-4.2 5.5-9.6zm6 0c0-6.5 1.9-11.7 7.8-11.7s7.8 5.2 7.8 11.7c0 6.6-1.9 11.7-7.8 11.7s-7.8-5.1-7.8-11.7zm13.4 0c0-5.4-1.2-9.6-5.5-9.6s-5.5 4.2-5.5 9.6c0 5.4 1.2 9.6 5.5 9.6 4.2 0 5.5-4.2 5.5-9.6zm-125.2 26.9H137v-1.8h2.2v-4.5h2.2v4.5h4.1v1.8h-4.1v8.3c0 3.8 2.4 4.3 3.6 4.3.5 0 .7-.1.7-.1v2s-.4.1-.9.1c-1.9 0-5.6-.6-5.6-6v-8.6zm17.3-2.2c4.7 0 8.6 3.6 8.6 8.4 0 4.9-3.8 8.6-8.5 8.6s-8.6-3.7-8.6-8.6c0-4.8 3.8-8.4 8.5-8.4zm0 15c3.5 0 6.3-2.8 6.3-6.6 0-3.7-2.8-6.4-6.3-6.4s-6.3 2.7-6.3 6.4c0 3.8 2.8 6.6 6.3 6.6zm12.7-12c0-.5-.3-.7-.7-.7H167v-1.9h2.3c1.4 0 2 .6 2 1.8v.7c0 .6-.1 1.2-.1 1.2h.1c.6-1.5 2.6-4.1 6.5-4.1 4 0 5.5 2.3 5.5 6.3v7.7c0 .5.3.7.7.7h1.4v1.9h-2.3c-1.4 0-2-.6-2-2v-7.8c0-2.5-.4-4.8-3.5-4.8-2.8 0-5.2 1.9-5.9 4.6-.2.7-.3 1.4-.3 2.2v7.8h-2.2v-13.6zm19.6 0c0-.5-.3-.7-.7-.7h-1.4v-1.9h2.3c1.4 0 2 .6 2 1.8v.7c0 .6-.1 1.2-.1 1.2h.1c.6-1.5 2.6-4.1 6.5-4.1 4 0 5.5 2.3 5.5 6.3v7.7c0 .5.3.7.7.7h1.4v1.9h-2.3c-1.4 0-2-.6-2-2v-7.8c0-2.5-.4-4.8-3.5-4.8-2.8 0-5.2 1.9-5.9 4.6-.2.7-.3 1.4-.3 2.2v7.8h-2.2v-13.6zm26.1-3c4.5 0 6.8 3.5 6.8 7.5 0 .4-.1 1.1-.1 1.1H209c.1 4.1 2.9 6.5 6.3 6.5 3 0 4.9-2 4.9-2l1.1 1.6s-2.4 2.3-6 2.3c-4.8 0-8.5-3.5-8.5-8.5 0-5.3 3.6-8.5 8-8.5zm4.5 6.8c-.1-3.4-2.2-5-4.6-5-2.7 0-5 1.7-5.6 5h10.2zm6.6-10.3c0-.5-.3-.7-.7-.7h-1.4v-1.9h2.3c1.4 0 2 .6 2 2v18.1c0 .5.3.7.7.7h1.4v1.9h-2.3c-1.4 0-2-.6-2-2v-18.1zm7.9 0c0-.5-.3-.7-.7-.7h-1.4v-1.9h2.3c1.4 0 2 .6 2 2v18.1c0 .5.3.7.7.7h1.4v1.9h-2.3c-1.4 0-2-.6-2-2v-18.1zm16.4 10.1h.9v-.2c0-3.4-1.2-4.6-4.2-4.6-.8 0-3.2.2-3.2 1.4v1h-2.1V179c0-2.3 3.9-2.7 5.3-2.7 5.1 0 6.4 2.7 6.4 6.2v7.8c0 .5.3.7.7.7h1.4v1.9h-2.2c-1.4 0-1.9-.6-1.9-1.9v-1.2h-.1s-1.3 3.5-5.4 3.5c-2.7 0-5.5-1.6-5.5-4.8 0-5.4 7.1-5.6 9.9-5.6zm-4.1 8.5c3.1 0 5-3.2 5-6v-.7h-.9c-2.5 0-7.6.1-7.6 3.7-.1 1.5 1.1 3 3.5 3zm12.9-12.9h-2.1v-1.8h2.2v-4.5h2.2v4.5h4.1v1.8h-4.1v8.3c0 3.8 2.4 4.3 3.6 4.3.5 0 .7-.1.7-.1v2s-.4.1-.9.1c-1.9 0-5.6-.6-5.6-6v-8.6zm16.8-2.2c4.5 0 6.8 3.5 6.8 7.5 0 .4-.1 1.1-.1 1.1h-12.4c.1 4.1 2.9 6.5 6.3 6.5 3 0 4.9-2 4.9-2l1.1 1.6s-2.4 2.3-6 2.3c-4.8 0-8.5-3.5-8.5-8.5-.1-5.3 3.5-8.5 7.9-8.5zm4.5 6.8c-.1-3.4-2.2-5-4.6-5-2.7 0-5 1.7-5.6 5h10.2zm21.3-6.8c3.9 0 5.3 3 5.3 3h.1s-.1-.5-.1-1.2v-5.3c0-.5-.3-.7-.7-.7h-1.4v-1.9h2.3c1.4 0 2 .6 2 2v18.1c0 .5.3.7.7.7h1.4v1.9h-2.3c-1.4 0-1.9-.6-1.9-1.8 0-.6.1-1 .1-1h-.1s-1.3 3.2-5.6 3.2c-4.4 0-7.1-3.5-7.1-8.5 0-5.2 3-8.5 7.3-8.5zm5.4 8.5c0-3.3-1.7-6.5-5.2-6.5-2.9 0-5.2 2.4-5.2 6.5 0 4 2.1 6.5 5.1 6.5 2.7 0 5.3-1.9 5.3-6.5zm7.9-5.5c0-.5-.3-.7-.7-.7h-1.4v-1.9h2.3c1.4 0 2 .6 2 2v11.6c0 .5.3.7.7.7h1.4v1.9h-2.3c-1.4 0-2-.6-2-2v-11.6zm-.1-9.1h2.1v2.8h-2.1v-2.8zm-174.1 32h-2.1v-2h9.6c4 0 7 2.6 7 6.8 0 4.2-3 6.9-7 6.9H143v8.9h-2.3v-20.6zm7.2 9.7c3 0 5-1.8 5-4.9 0-3.1-2-4.8-4.9-4.8h-5v9.8h4.9zm11.5-9.7h-2.1v-2h13c1.4 0 2 .6 2 2v2.3h-2.1V203c0-.5-.3-.7-.7-.7h-7.7v8.3h8.5v2h-8.5v7.7c0 .5.3.7.7.7h8c.5 0 .7-.2.7-.7v-1.5h2.1v2.3c0 1.4-.6 2-2 2h-9.8c-1.4 0-2-.6-2-2v-18.9zm23.2 0H177c-.5 0-.7.2-.7.7v1.5h-2.1V202c0-1.4.5-1.8 1.8-1.8h15.4c1.4 0 1.8.5 1.8 1.8v2.4h-2.1v-1.5c0-.5-.2-.7-.7-.7h-5.6v20.7h-2.3v-20.7zm22 7c0-.5-.3-.7-.7-.7h-1.4v-1.9h2.3c1.4 0 2 .5 2 1.8v1.1c0 .7-.1 1.2-.1 1.2h.1c.8-2.5 2.6-4.3 5.1-4.3.5 0 .9.1.9.1v2.2s-.4-.1-.8-.1c-2.3 0-4 1.8-4.7 4.2-.3 1-.5 2.1-.5 3.2v6.8h-2.2v-13.6zm11.9 0c0-.5-.3-.7-.7-.7h-1.4v-1.9h2.3c1.4 0 2 .6 2 2v11.6c0 .5.3.7.7.7h1.4v1.9h-2.3c-1.4 0-2-.6-2-2v-11.6zm-.1-9h2.1v2.8h-2.1v-2.8zm15 6c1.8 0 5.8.8 5.8 3.5v1.5h-2.1v-.9c0-1.4-2.4-2-3.7-2-3.5 0-6.3 2.6-6.3 6.5 0 4 2.9 6.5 6.4 6.5 3.3 0 5.2-2.3 5.2-2.3l1 1.6s-2.2 2.6-6.4 2.6c-4.8 0-8.5-3.5-8.5-8.5.1-4.9 3.8-8.5 8.6-8.5zm10.2 3c0-.5-.3-.7-.7-.7h-1.4v-1.9h2.3c1.4 0 2 .6 2 2v11.6c0 .5.3.7.7.7h1.4v1.9h-2.3c-1.4 0-2-.6-2-2v-11.6zm-.1-9h2.1v2.8h-2.1v-2.8zm15.1 6c1.8 0 5.8.8 5.8 3.5v1.5h-2.1v-.9c0-1.4-2.4-2-3.7-2-3.5 0-6.3 2.6-6.3 6.5 0 4 2.9 6.5 6.4 6.5 3.3 0 5.2-2.3 5.2-2.3l1 1.6s-2.2 2.6-6.4 2.6c-4.8 0-8.5-3.5-8.5-8.5 0-4.9 3.7-8.5 8.6-8.5zm9.8-3.4c0-.5-.3-.7-.7-.7h-1.4v-1.9h2.3c1.4 0 2 .6 2 2v18.1c0 .5.3.7.7.7h1.4v1.9h-2.3c-1.4 0-2-.6-2-2v-18.1zm16.4 10h.9v-.2c0-3.4-1.2-4.6-4.2-4.6-.8 0-3.2.2-3.2 1.4v1h-2.1V209c0-2.3 3.9-2.7 5.3-2.7 5.1 0 6.4 2.7 6.4 6.2v7.8c0 .5.3.7.7.7h1.4v1.9h-2.2c-1.4 0-1.9-.6-1.9-1.9v-1.2h-.1s-1.3 3.5-5.4 3.5c-2.7 0-5.5-1.6-5.5-4.8 0-5.5 7.1-5.7 9.9-5.7zm-4.1 8.5c3.1 0 5-3.2 5-6v-.7h-.9c-2.5 0-7.6.1-7.6 3.7-.1 1.5 1.1 3 3.5 3zm12.9-12.9h-2.1v-1.8h2.2v-4.5h2.2v4.5h4.1v1.8h-4.1v8.3c0 3.8 2.4 4.3 3.6 4.3.5 0 .7-.1.7-.1v2s-.4.1-.9.1c-1.9 0-5.6-.6-5.6-6v-8.6zm17.4-2.2c4.7 0 8.6 3.6 8.6 8.4 0 4.9-3.8 8.6-8.5 8.6s-8.6-3.7-8.6-8.6c-.1-4.8 3.7-8.4 8.5-8.4zm0 15c3.5 0 6.3-2.8 6.3-6.6 0-3.7-2.8-6.4-6.3-6.4s-6.3 2.7-6.3 6.4c0 3.8 2.8 6.6 6.3 6.6z"/><path class="st6" d="M143.9 239c0-.3-.2-.5-.5-.5h-.9v-1.2h1.4c.9 0 1.2.4 1.2 1.1v.7s.8-2.1 3.6-2.1 4.5 2.2 4.5 5.5-2 5.5-4.7 5.5c-2.6 0-3.4-2-3.4-2v5.9h-1.4V239zm4.7 7.7c1.8 0 3.4-1.6 3.4-4.2s-1.3-4.2-3.3-4.2c-1.7 0-3.4 1.2-3.4 4.2 0 2.1 1.1 4.2 3.3 4.2zm13.7-9.7c2.9 0 4.4 2.2 4.4 4.8v.7h-8c0 2.6 1.9 4.1 4 4.1 1.9 0 3.1-1.3 3.1-1.3l.7 1.1s-1.5 1.5-3.9 1.5c-3.1 0-5.5-2.2-5.5-5.5.1-3.3 2.4-5.4 5.2-5.4zm3 4.4c-.1-2.2-1.4-3.2-2.9-3.2-1.7 0-3.2 1.1-3.6 3.2h6.5zm6.3-2.4c0-.3-.2-.5-.5-.5h-.9v-1.2h1.5c.9 0 1.3.4 1.3 1.2v1.5c.5-1.6 1.7-2.8 3.3-2.8.3 0 .6.1.6.1v1.4h-.5c-1.5 0-2.6 1.2-3 2.7-.2.7-.3 1.4-.3 2v4.4h-1.4V239zm16.4 7.4h.9c.3 0 .5-.1.5-.5v-12.8h1.3l7.4 10.4c.5.7 1.2 1.9 1.2 1.9s-.1-1.1-.1-1.9v-9.1c0-.9.4-1.3 1.3-1.3h1.5v1.3h-.9c-.3 0-.5.1-.5.5v12.8h-1.3l-7.4-10.4c-.5-.7-1.2-1.9-1.2-1.9s.1 1.1.1 1.9v9.1c0 .9-.4 1.3-1.3 1.3H188v-1.3zm22.8-9.4c2.9 0 4.4 2.2 4.4 4.8v.7h-8c0 2.6 1.9 4.1 4 4.1 1.9 0 3.1-1.3 3.1-1.3l.7 1.1s-1.5 1.5-3.9 1.5c-3.1 0-5.5-2.2-5.5-5.5.1-3.3 2.4-5.4 5.2-5.4zm2.9 4.4c-.1-2.2-1.4-3.2-2.9-3.2-1.7 0-3.2 1.1-3.6 3.2h6.5zm6 3.8s1.2 1.6 3.2 1.6c1.2 0 2.2-.6 2.2-1.7 0-2.3-5.8-1.9-5.8-5.2 0-1.9 1.6-2.8 3.7-2.8 1.1 0 3.2.4 3.2 1.9v.9h-1.3v-.5c0-.8-1.1-1.1-1.8-1.1-1.5 0-2.3.5-2.3 1.5 0 2.3 5.8 1.8 5.8 5.3 0 1.7-1.6 2.9-3.6 2.9-2.7 0-4-1.8-4-1.8l.7-1zm11.7-6.7H230v-1.2h1.4v-2.9h1.4v2.9h2.6v1.2h-2.6v5.3c0 2.4 1.6 2.8 2.3 2.8h.5v1.3h-.6c-1.2 0-3.6-.4-3.6-3.9v-5.5zm8.7-3.7c0-.3-.2-.5-.5-.5h-.9v-1.2h1.5c.9 0 1.3.4 1.3 1.3V246c0 .3.2.5.5.5h.9v1.2h-1.5c-.9 0-1.3-.4-1.3-1.3v-11.6zm11.4 2.2c2.9 0 4.4 2.2 4.4 4.8v.7h-8c0 2.6 1.9 4.1 4 4.1 1.9 0 3.1-1.3 3.1-1.3l.7 1.1s-1.5 1.5-3.9 1.5c-3.1 0-5.5-2.2-5.5-5.5s2.4-5.4 5.2-5.4zm2.9 4.4c-.1-2.2-1.4-3.2-2.9-3.2-1.7 0-3.2 1.1-3.6 3.2h6.5zm-2.2-8.3h1.6l-1.8 2.5h-1.2l1.4-2.5zm15.2 1.8c-.1-.4-.4-.5-.7-.5h-.2v-1.3h.6c1 0 1.3.2 1.7 1.2l3.6 9.8c.3.7.6 1.9.6 1.9s.3-1.1.6-1.9l3.6-9.8c.4-1 .7-1.2 1.7-1.2h.6v1.3h-.2c-.4 0-.6.1-.7.5l-4.8 12.8h-1.6l-4.8-12.8zm19.2 2.1c2.9 0 4.4 2.2 4.4 4.8v.7h-8c0 2.6 1.9 4.1 4 4.1 1.9 0 3.1-1.3 3.1-1.3l.7 1.1s-1.5 1.5-3.9 1.5c-3.1 0-5.5-2.2-5.5-5.5.1-3.3 2.4-5.4 5.2-5.4zm3 4.4c-.1-2.2-1.4-3.2-2.9-3.2-1.7 0-3.2 1.1-3.6 3.2h6.5zm6.3-2.4c0-.3-.2-.5-.5-.5h-.9v-1.2h1.5c.9 0 1.3.4 1.3 1.2v1.5c.5-1.6 1.7-2.8 3.3-2.8.3 0 .6.1.6.1v1.4h-.5c-1.5 0-2.6 1.2-3 2.7-.2.7-.3 1.4-.3 2v4.4H296V239zm14.3 2.3h.6v-.1c0-2.2-.8-2.9-2.7-2.9-.5 0-2 .1-2 .9v.7h-1.3v-1c0-1.5 2.5-1.8 3.4-1.8 3.3 0 4.1 1.8 4.1 4v5c0 .3.2.5.5.5h.9v1.2h-1.4c-.9 0-1.2-.4-1.2-1.2v-.8s-.9 2.3-3.5 2.3c-1.7 0-3.5-1-3.5-3.1-.3-3.6 4.3-3.7 6.1-3.7zm-2.6 5.5c2 0 3.2-2.1 3.2-3.9v-.5h-.6c-1.6 0-4.9 0-4.9 2.4 0 1 .7 2 2.3 2zm301.7 18.5c0-2.1-1.5-3.7-4-3.7-2 0-3.5 1-3.5 2.1v.9H600v-1.5c0-2.5 3.4-3.4 5.4-3.4 3.7 0 6 2.5 6 5.5 0 6.9-10.4 6.7-10.4 12.2 0 .4.2.6.6.6h8.2c.4 0 .6-.2.6-.6v-1.3h1.8v2c0 1.2-.5 1.7-1.7 1.7h-9.9c-1.3 0-1.8-.6-1.8-1.9.1-7.4 10.5-6.8 10.5-12.6zm6.9 10.6s1.5 2.3 4.6 2.3c2.8 0 4.9-2 4.9-4.6 0-2.7-2.3-4.6-5.1-4.6-2.2 0-3.8 1.1-3.8 1.1l-1-.4.8-7.9c.1-1.2.5-1.7 1.7-1.7h6.5c1.2 0 1.7.5 1.7 1.7v2h-1.8v-1.3c0-.4-.2-.6-.6-.6h-5c-.4 0-.6.2-.6.6l-.5 4.4c-.1.7-.2 1.1-.2 1.1h.1s1.2-.7 3-.7c4 0 6.9 2.9 6.9 6.4 0 3.5-2.9 6.4-6.9 6.4-3.9 0-5.8-2.8-5.8-2.8l1.1-1.4zm14.9-12.3c0-2.1 1.7-3.9 3.9-3.9s3.9 1.8 3.9 3.9c0 2.2-1.8 3.9-3.9 3.9s-3.9-1.7-3.9-3.9zm15.2-3.5h2l-15 19.7h-2l15-19.7zm-8.9 3.5c0-1.3-1-2.3-2.3-2.3s-2.3 1.1-2.3 2.3c0 1.3 1 2.3 2.3 2.3s2.3-1 2.3-2.3zm7.1 8.7c2.2 0 3.9 1.8 3.9 3.9 0 2.1-1.8 3.9-3.9 3.9-2.2 0-3.9-1.7-3.9-3.9 0-2.1 1.7-3.9 3.9-3.9zm0 6.2c1.3 0 2.3-1 2.3-2.3 0-1.3-1-2.3-2.3-2.3-1.3 0-2.2 1.1-2.2 2.3 0 1.3.9 2.3 2.2 2.3zm16.3-16.7H659v-1.7h8.3c3.5 0 6.1 2.3 6.1 5.9 0 3.7-2.6 6-6.1 6h-4.5v7.7h-2v-17.9zm6.2 8.5c2.6 0 4.3-1.6 4.3-4.3 0-2.7-1.7-4.2-4.3-4.2h-4.3v8.5h4.3zm10-8.5h-1.8v-1.7h11.2c1.2 0 1.7.5 1.7 1.7v2h-1.8v-1.3c0-.4-.2-.6-.6-.6H679v7.2h7.4v1.7H679v6.7c0 .4.2.6.6.6h6.9c.4 0 .6-.2.6-.6v-1.3h1.8v2c0 1.2-.5 1.7-1.7 1.7h-8.5c-1.2 0-1.7-.5-1.7-1.7v-16.4zm20.1 0h-4.9c-.4 0-.6.2-.6.6v1.3h-1.8v-2.1c0-1.2.4-1.6 1.6-1.6h13.3c1.2 0 1.6.4 1.6 1.6v2.1h-1.8v-1.3c0-.4-.2-.6-.6-.6h-4.8v17.9h-2v-17.9zm-84.8 32.5c0-.3-.1-.4-.4-.4h-.8v-1.1h1.3c.8 0 1.1.3 1.1 1.1v1.3c.4-1.4 1.5-2.5 3-2.5.3 0 .5.1.5.1v1.2h-.5c-1.3 0-2.3 1-2.7 2.4-.2.6-.3 1.2-.3 1.8v4h-1.3v-7.9zm8.7 0c0-.3-.1-.4-.4-.4h-.8v-1.1h1.3c.8 0 1.1.3 1.1 1.1v6.7c0 .3.1.4.4.4h.8v1.1h-1.3c-.8 0-1.1-.3-1.1-1.1v-6.7zm0-5.3h1.2v1.6H621V289zm10.5 3.5c1.1 0 3.3.4 3.3 2v.8h-1.2v-.5c0-.8-1.4-1.2-2.1-1.2-2 0-3.6 1.5-3.6 3.8s1.7 3.7 3.7 3.7c1.9 0 3-1.3 3-1.3l.6 1s-1.3 1.5-3.7 1.5c-2.8 0-4.9-2-4.9-4.9 0-2.8 2.1-4.9 4.9-4.9zm7.8 1.8c0-.3-.1-.4-.4-.4h-.8v-1.1h1.3c.8 0 1.1.3 1.1 1.1v6.7c0 .3.1.4.4.4h.8v1.1h-1.3c-.8 0-1.1-.3-1.1-1.1v-6.7zm-.1-5.3h1.2v1.6h-1.2V289zm10.6 3.5c1.1 0 3.3.4 3.3 2v.8h-1.2v-.5c0-.8-1.4-1.2-2.1-1.2-2 0-3.6 1.5-3.6 3.8s1.7 3.7 3.7 3.7c1.9 0 3-1.3 3-1.3l.6 1s-1.3 1.5-3.7 1.5c-2.8 0-4.9-2-4.9-4.9-.1-2.8 2.1-4.9 4.9-4.9zm7.6-2c0-.3-.1-.4-.4-.4h-.8V289h1.3c.8 0 1.1.3 1.1 1.1v10.5c0 .3.1.4.4.4h.8v1.1h-1.3c-.8 0-1.1-.3-1.1-1.1v-10.5zm11.3 5.8h.5v-.1c0-2-.7-2.6-2.4-2.6-.5 0-1.8.1-1.8.8v.6h-1.2v-.9c0-1.3 2.2-1.6 3.1-1.6 3 0 3.7 1.6 3.7 3.6v4.5c0 .3.1.4.4.4h.8v1.1h-1.3c-.8 0-1.1-.4-1.1-1.1v-.7s-.8 2-3.1 2c-1.6 0-3.2-.9-3.2-2.8-.2-3 4-3.2 5.6-3.2zm-2.4 5c1.8 0 2.9-1.9 2.9-3.5v-.4h-.5c-1.5 0-4.4 0-4.4 2.1-.1.9.6 1.8 2 1.8zm9.4-7.5h-1.2v-1.1h1.3v-2.6h1.2v2.6h2.4v1.1H677v4.8c0 2.2 1.4 2.5 2.1 2.5h.4v1.1h-.5c-1.1 0-3.3-.4-3.3-3.5v-4.9zm11.9-1.3c2.7 0 5 2.1 5 4.9 0 2.8-2.2 5-4.9 5s-5-2.1-5-5c-.1-2.8 2.1-4.9 4.9-4.9zm0 8.7c2 0 3.6-1.6 3.6-3.8 0-2.1-1.6-3.7-3.6-3.7s-3.7 1.6-3.7 3.7c0 2.2 1.7 3.8 3.7 3.8zm-57.3 21s1 1.4 2.9 1.4c1 0 2-.5 2-1.5 0-2.1-5.3-1.7-5.3-4.7 0-1.7 1.5-2.5 3.3-2.5 1 0 2.9.4 2.9 1.7v.8h-1.2v-.4c0-.7-1-1-1.6-1-1.3 0-2.1.4-2.1 1.4 0 2.1 5.3 1.6 5.3 4.7 0 1.6-1.4 2.6-3.3 2.6-2.4 0-3.6-1.6-3.6-1.6l.7-.9zm10.4-5.6c0-.3-.1-.4-.4-.4h-.8v-1.1h1.3c.8 0 1.1.3 1.1 1.1v4.5c0 1.5.2 2.8 2.1 2.8 2.1 0 3.5-1.9 3.5-3.9v-4.5h1.3v7.9c0 .3.1.4.4.4h.8v1.1h-1.3c-.8 0-1.1-.3-1.1-1v-1.2c-.4.9-1.6 2.4-3.7 2.4-2.2 0-3.2-1.2-3.2-3.6v-4.5zm13.1-3.7c0-.3-.1-.4-.4-.4h-.8v-1.1h1.3c.8 0 1.1.3 1.1 1.1V323c0 .3.1.4.4.4h.8v1.1h-1.3c-.8 0-1.1-.3-1.1-1.1v-10.5zm6.4 0c0-.3-.1-.4-.4-.4h-.8v-1.1h1.3c.8 0 1.1.3 1.1 1.1V323c0 .3.1.4.4.4h.8v1.1h-1.3c-.8 0-1.1-.3-1.1-1.1v-10.5zm11.4 5.8h.5v-.1c0-2-.7-2.6-2.4-2.6-.5 0-1.8.1-1.8.8v.6h-1.2v-.9c0-1.3 2.2-1.6 3.1-1.6 3 0 3.7 1.6 3.7 3.6v4.5c0 .3.1.4.4.4h.8v1.1h-1.3c-.8 0-1.1-.4-1.1-1.1v-.7s-.8 2-3.1 2c-1.6 0-3.2-.9-3.2-2.8-.2-3.1 3.9-3.2 5.6-3.2zm-2.4 5c1.8 0 2.9-1.9 2.9-3.5v-.4h-.5c-1.5 0-4.4 0-4.4 2.1-.1.9.6 1.8 2 1.8zM612.3 339c0-.3-.1-.4-.4-.4h-.8v-1.1h1.3c.8 0 1.1.3 1.1 1v1.1c.3-.9 1.5-2.4 3.7-2.4 2.3 0 3.2 1.3 3.2 3.6v4.5c0 .3.1.4.4.4h.8v1.1h-1.3c-.8 0-1.1-.3-1.1-1.1v-4.5c0-1.5-.2-2.8-2-2.8-1.6 0-3 1.1-3.4 2.6-.1.4-.1.8-.1 1.3v4.5h-1.3V339zm18.1 2.1h.5v-.1c0-2-.7-2.6-2.4-2.6-.5 0-1.8.1-1.8.8v.6h-1.2v-.9c0-1.3 2.2-1.6 3.1-1.6 3 0 3.7 1.6 3.7 3.6v4.5c0 .3.1.4.4.4h.8v1.1h-1.3c-.8 0-1.1-.4-1.1-1.1v-.7s-.8 2-3.1 2c-1.6 0-3.2-.9-3.2-2.8-.2-3.1 4-3.2 5.6-3.2zM628 346c1.8 0 2.9-1.9 2.9-3.5v-.4h-.5c-1.5 0-4.4 0-4.4 2.1-.1.9.6 1.8 2 1.8zm9.4-7.4h-1.2v-1.1h1.3v-2.6h1.2v2.6h2.4v1.1h-2.4v4.8c0 2.2 1.4 2.5 2.1 2.5h.4v1.1h-.5c-1.1 0-3.3-.4-3.3-3.5v-4.9zm7.9.4c0-.3-.1-.4-.4-.4h-.8v-1.1h1.3c.8 0 1.1.3 1.1 1.1v4.5c0 1.5.2 2.8 2.1 2.8 2.1 0 3.5-1.9 3.5-3.9v-4.5h1.3v7.9c0 .3.1.4.4.4h.8v1.1h-1.3c-.8 0-1.1-.3-1.1-1v-1.1c-.4.9-1.6 2.4-3.7 2.4-2.2 0-3.2-1.2-3.2-3.6V339zm13.2 0c0-.3-.1-.4-.4-.4h-.8v-1.1h1.3c.8 0 1.1.3 1.1 1.1v1.3c.4-1.4 1.5-2.5 3-2.5.3 0 .5.1.5.1v1.2h-.5c-1.3 0-2.3 1-2.7 2.4-.2.6-.3 1.2-.3 1.8v4h-1.3V339zm12.8 2.1h.5v-.1c0-2-.7-2.6-2.4-2.6-.5 0-1.8.1-1.8.8v.6h-1.2v-.9c0-1.3 2.2-1.6 3.1-1.6 3 0 3.7 1.6 3.7 3.6v4.5c0 .3.1.4.4.4h.8v1.1H673c-.8 0-1.1-.4-1.1-1.1v-.7s-.8 2-3.1 2c-1.6 0-3.2-.9-3.2-2.8 0-3.1 4.1-3.2 5.7-3.2zM669 346c1.8 0 2.9-1.9 2.9-3.5v-.4h-.5c-1.5 0-4.4 0-4.4 2.1-.1.9.6 1.8 2 1.8zm9.2-10.7c0-.3-.1-.4-.4-.4h-.8v-1.1h1.3c.8 0 1.1.3 1.1 1.1v10.5c0 .3.1.4.4.4h.8v1.1h-1.3c-.8 0-1.1-.3-1.1-1.1v-10.5zm10.2 2c2.6 0 3.9 2 3.9 4.3v.6h-7.2c0 2.4 1.7 3.7 3.6 3.7 1.7 0 2.8-1.2 2.8-1.2l.6 1s-1.4 1.3-3.5 1.3c-2.8 0-4.9-2-4.9-4.9.1-3 2.2-4.8 4.7-4.8zm2.6 3.9c-.1-1.9-1.3-2.9-2.6-2.9-1.5 0-2.9 1-3.2 2.9h5.8zm-37.4-237.7c0-2.1-1.5-3.7-4-3.7-2 0-3.5 1-3.5 2.1v.9h-1.8v-1.5c0-2.5 3.4-3.4 5.4-3.4 3.7 0 6 2.5 6 5.5 0 6.9-10.4 6.7-10.4 12.2 0 .4.2.6.6.6h8.2c.4 0 .6-.2.6-.6v-1.3h1.8v2c0 1.2-.5 1.7-1.7 1.7h-9.9c-1.3 0-1.8-.6-1.8-1.9.1-7.4 10.5-6.8 10.5-12.6zm5.7 4.6c0-5.7 1.7-10.2 6.8-10.2s6.8 4.5 6.8 10.2c0 5.7-1.7 10.2-6.8 10.2-5.2 0-6.8-4.5-6.8-10.2zm11.5 0c0-4.7-1.1-8.3-4.8-8.3-3.7 0-4.8 3.7-4.8 8.3 0 4.7 1.1 8.4 4.8 8.4 3.8 0 4.8-3.7 4.8-8.4zm5.4-6.3c0-2.1 1.7-3.9 3.9-3.9s3.9 1.8 3.9 3.9c0 2.2-1.8 3.9-3.9 3.9-2.2 0-3.9-1.7-3.9-3.9zm15.2-3.5h2l-15 19.7h-2l15-19.7zm-9 3.5c0-1.3-1-2.3-2.3-2.3-1.3 0-2.3 1.1-2.3 2.3 0 1.3 1 2.3 2.3 2.3 1.3.1 2.3-1 2.3-2.3zm7.2 8.7c2.2 0 3.9 1.8 3.9 3.9 0 2.1-1.8 3.9-3.9 3.9-2.2 0-3.9-1.7-3.9-3.9 0-2.1 1.7-3.9 3.9-3.9zm0 6.2c1.3 0 2.3-1 2.3-2.3 0-1.3-1-2.3-2.3-2.3-1.3 0-2.2 1.1-2.2 2.3-.1 1.3.9 2.3 2.2 2.3zm16.3-16.7H704v-1.7h8.3c3.5 0 6.1 2.3 6.1 5.9 0 3.7-2.6 6-6.1 6h-4.5v7.7h-2V100zm6.2 8.5c2.6 0 4.3-1.6 4.3-4.3 0-2.7-1.7-4.2-4.3-4.2h-4.3v8.5h4.3zm10-8.5h-1.8v-1.7h11.2c1.2 0 1.7.5 1.7 1.7v2h-1.8v-1.3c0-.4-.2-.6-.6-.6H724v7.2h7.4v1.7H724v6.7c0 .4.2.6.6.6h6.9c.4 0 .6-.2.6-.6v-1.3h1.8v2c0 1.2-.5 1.7-1.7 1.7h-8.5c-1.2 0-1.7-.5-1.7-1.7V100zm20.1 0h-4.9c-.4 0-.6.2-.6.6v1.3h-1.8v-2.1c0-1.2.4-1.6 1.6-1.6h13.3c1.2 0 1.6.4 1.6 1.6v2.1h-1.8v-1.3c0-.4-.2-.6-.6-.6h-4.8v18h-2v-18zM657 132.5c0-.3-.1-.4-.4-.4h-.8V131h1.3c.8 0 1.1.3 1.1 1.1v1.3c.4-1.4 1.5-2.5 3-2.5.3 0 .5.1.5.1v1.2h-.5c-1.3 0-2.3 1-2.7 2.4-.2.6-.3 1.2-.3 1.8v4H657v-7.9zm8.7 0c0-.3-.1-.4-.4-.4h-.8V131h1.3c.8 0 1.1.3 1.1 1.1v6.7c0 .3.1.4.4.4h.8v1.1h-1.3c-.8 0-1.1-.3-1.1-1.1v-6.7zm-.1-5.3h1.2v1.6h-1.2v-1.6zm10.6 3.5c1.1 0 3.3.4 3.3 2v.8h-1.2v-.5c0-.8-1.4-1.2-2.1-1.2-2 0-3.6 1.5-3.6 3.8s1.7 3.7 3.7 3.7c1.9 0 3-1.3 3-1.3l.6 1s-1.3 1.5-3.7 1.5c-2.8 0-4.9-2-4.9-4.9-.1-2.8 2.1-4.9 4.9-4.9zm7.7 1.8c0-.3-.1-.4-.4-.4h-.8V131h1.3c.8 0 1.1.3 1.1 1.1v6.7c0 .3.1.4.4.4h.8v1.1H685c-.8 0-1.1-.3-1.1-1.1v-6.7zm0-5.3h1.2v1.6h-1.2v-1.6zm10.6 3.5c1.1 0 3.3.4 3.3 2v.8h-1.2v-.5c0-.8-1.4-1.2-2.1-1.2-2 0-3.6 1.5-3.6 3.8s1.7 3.7 3.7 3.7c1.9 0 3-1.3 3-1.3l.6 1s-1.3 1.5-3.7 1.5c-2.8 0-4.9-2-4.9-4.9-.1-2.8 2.1-4.9 4.9-4.9zm7.5-2c0-.3-.1-.4-.4-.4h-.8v-1.1h1.3c.8 0 1.1.3 1.1 1.1v10.5c0 .3.1.4.4.4h.8v1.1h-1.3c-.8 0-1.1-.3-1.1-1.1v-10.5zm11.4 5.9h.5v-.1c0-2-.7-2.6-2.4-2.6-.5 0-1.8.1-1.8.8v.6h-1.2v-.9c0-1.3 2.2-1.6 3.1-1.6 3 0 3.7 1.6 3.7 3.6v4.5c0 .3.1.4.4.4h.8v1.1h-1.3c-.8 0-1.1-.4-1.1-1.1v-.7s-.8 2-3.1 2c-1.6 0-3.2-.9-3.2-2.8-.2-3.1 3.9-3.2 5.6-3.2zm-2.4 4.9c1.8 0 2.9-1.9 2.9-3.5v-.4h-.5c-1.5 0-4.4 0-4.4 2.1-.1.9.6 1.8 2 1.8zm9.3-7.5h-1.2v-1h1.3v-2.6h1.2v2.6h2.4v1.1h-2.4v4.8c0 2.2 1.4 2.5 2.1 2.5h.4v1.1h-.5c-1.1 0-3.3-.4-3.3-3.5v-5zm11.9-1.3c2.7 0 5 2.1 5 4.9 0 2.8-2.2 5-4.9 5s-5-2.1-5-5c0-2.8 2.2-4.9 4.9-4.9zm0 8.7c2 0 3.6-1.6 3.6-3.8 0-2.1-1.6-3.7-3.6-3.7s-3.7 1.6-3.7 3.7c.1 2.2 1.7 3.8 3.7 3.8zm-57.3 21s1 1.4 2.9 1.4c1 0 2-.5 2-1.5 0-2.1-5.3-1.7-5.3-4.7 0-1.7 1.5-2.5 3.3-2.5 1 0 2.9.4 2.9 1.7v.8h-1.2v-.4c0-.7-1-1-1.6-1-1.3 0-2.1.4-2.1 1.4 0 2.1 5.3 1.6 5.3 4.7 0 1.6-1.4 2.6-3.3 2.6-2.4 0-3.6-1.6-3.6-1.6l.7-.9zm10.4-5.5c0-.3-.1-.4-.4-.4h-.8v-1.1h1.3c.8 0 1.1.3 1.1 1.1v4.5c0 1.5.2 2.8 2.1 2.8 2.1 0 3.5-1.9 3.5-3.9v-4.5h1.3v7.9c0 .3.1.4.4.4h.8v1.1h-1.3c-.8 0-1.1-.3-1.1-1v-1.1c-.4.9-1.6 2.4-3.7 2.4-2.2 0-3.2-1.2-3.2-3.6v-4.6zm13.2-3.8c0-.3-.1-.4-.4-.4h-.8v-1.1h1.3c.8 0 1.1.3 1.1 1.1v10.5c0 .3.1.4.4.4h.8v1.1h-1.3c-.8 0-1.1-.3-1.1-1.1v-10.5zm6.4 0c0-.3-.1-.4-.4-.4h-.8v-1.1h1.3c.8 0 1.1.3 1.1 1.1v10.5c0 .3.1.4.4.4h.8v1.1H706c-.8 0-1.1-.3-1.1-1.1v-10.5zm11.3 5.9h.5v-.1c0-2-.7-2.6-2.4-2.6-.5 0-1.8.1-1.8.8v.6h-1.2v-.9c0-1.3 2.2-1.6 3.1-1.6 3 0 3.7 1.6 3.7 3.6v4.5c0 .3.1.4.4.4h.8v1.1H718c-.8 0-1.1-.4-1.1-1.1v-.7s-.8 2-3.1 2c-1.6 0-3.2-.9-3.2-2.8-.1-3.1 4-3.2 5.6-3.2zm-2.3 4.9c1.8 0 2.9-1.9 2.9-3.5v-.4h-.5c-1.5 0-4.4 0-4.4 2.1-.1.9.6 1.8 2 1.8zm-59.7 14.9H653v-1.1h1.2v-.3c0-3.1 2.2-3.5 3.2-3.5h.6v1.1h-.4c-.7 0-2.1.3-2.1 2.4v.3h2.4v1.1h-2.4v8.3h-1.3v-8.3zm7.5.4c0-.3-.1-.4-.4-.4h-.8v-1.1h1.3c.8 0 1.1.3 1.1 1.1v1.3c.4-1.4 1.5-2.5 3-2.5.3 0 .5.1.5.1v1.2h-.5c-1.3 0-2.3 1-2.7 2.4-.2.6-.3 1.2-.3 1.8v4h-1.3v-7.9zm8.7 0c0-.3-.1-.4-.4-.4h-.8v-1.1h1.3c.8 0 1.1.3 1.1 1.1v6.7c0 .3.1.4.4.4h.8v1.1h-1.3c-.8 0-1.1-.3-1.1-1.1v-6.7zm0-5.2h1.2v1.6h-1.2V172zm5.6 12.3l5.3-6.6c.4-.4.7-.9.7-.9h-4.3c-.3 0-.4.1-.4.4v.7h-1.2v-1.1c0-.8.3-1.1 1.1-1.1h6.5v.8l-5.3 6.6c-.4.4-.8.9-.8.9h4.9c.3 0 .4-.1.4-.4v-.7h1.2v1.1c0 .8-.3 1.1-1.1 1.1h-7v-.8zm11.2 0l5.3-6.6c.4-.4.7-.9.7-.9h-4.3c-.3 0-.4.1-.4.4v.7h-1.2v-1.1c0-.8.3-1.1 1.1-1.1h6.5v.8l-5.3 6.6c-.4.4-.8.9-.8.9h4.9c.3 0 .4-.1.4-.4v-.7h1.2v1.1c0 .8-.3 1.1-1.1 1.1h-7v-.8zm16.9-5h.5v-.1c0-2-.7-2.6-2.4-2.6-.5 0-1.8.1-1.8.8v.6h-1.2v-.9c0-1.3 2.2-1.6 3.1-1.6 3 0 3.7 1.6 3.7 3.6v4.5c0 .3.1.4.4.4h.8v1.1h-1.3c-.8 0-1.1-.4-1.1-1.1v-.7s-.8 2-3.1 2c-1.6 0-3.2-.9-3.2-2.8-.1-3.1 4-3.2 5.6-3.2zm-2.3 5c1.8 0 2.9-1.9 2.9-3.5v-.4h-.5c-1.5 0-4.4 0-4.4 2.1-.1.9.6 1.8 2 1.8zm9.2-7.1c0-.3-.1-.4-.4-.4h-.8v-1.1h1.3c.8 0 1.1.3 1.1 1v1.1c.3-.9 1.5-2.4 3.7-2.4 2.3 0 3.2 1.3 3.2 3.6v4.5c0 .3.1.4.4.4h.8v1.1H719c-.8 0-1.1-.3-1.1-1.1v-4.5c0-1.5-.2-2.8-2-2.8-1.6 0-3 1.1-3.4 2.6-.1.4-.1.8-.1 1.3v4.5H711v-7.8zm13.3-.4h-1.2v-1.1h1.3v-2.6h1.2v2.6h2.4v1.1h-2.4v4.8c0 2.2 1.4 2.5 2.1 2.5h.4v1.1h-.5c-1.1 0-3.3-.4-3.3-3.5v-4.9zm11.6-1.3c2.6 0 3.9 2 3.9 4.3v.6h-7.2c0 2.4 1.7 3.7 3.6 3.7 1.7 0 2.8-1.2 2.8-1.2l.6 1s-1.4 1.3-3.5 1.3c-2.8 0-4.9-2-4.9-4.9 0-2.9 2.1-4.8 4.7-4.8zm2.6 4c-.1-1.9-1.3-2.9-2.6-2.9-1.5 0-2.9 1-3.2 2.9h5.8z"/></svg>