<svg id="Livello_1" xmlns="http://www.w3.org/2000/svg" viewBox="0 0 825.8 509.7"><style>.st0{fill-rule:evenodd;clip-rule:evenodd;fill:none;stroke:#4e5594;stroke-width:3;stroke-linecap:round;stroke-miterlimit:10;stroke-dasharray:0,8}.st1{fill:#d8b200}.st1,.st2{fill-rule:evenodd;clip-rule:evenodd}.st2,.st3{fill:#4e5594}.st4{fill-rule:evenodd;clip-rule:evenodd;fill:#00295a}.st5{fill:#d8b200}.st6{fill:#fff}</style><path class="st0" d="M724.7 125c52.3 0 94.8 42.4 94.8 94.8 0 52.3-42.4 94.8-94.8 94.8"/><path class="st1" d="M226.3 37.6c72.5 0 131.3 58.8 131.3 131.3 0 72.5-58.8 131.3-131.3 131.3S95 241.4 95 168.9c0-72.5 58.8-131.3 131.3-131.3z"/><path class="st2" d="M83.3 37.7c38.4 0 69.4 31.1 69.4 69.4s-31.1 69.4-69.4 69.4-69.4-31.1-69.4-69.4S45 37.7 83.3 37.7z"/><path class="st3" d="M431.5 479.4c-.9 0-1.6-.7-1.6-1.5 0-.9.7-1.6 1.6-1.6.9 0 1.6.7 1.6 1.6 0 .8-.7 1.5-1.6 1.5zm-9.6 0c-.9 0-1.6-.7-1.5-1.6 0-.9.7-1.6 1.6-1.6.9 0 1.6.7 1.6 1.6-.1.9-.8 1.6-1.7 1.6.1 0 0 0 0 0zm-9.6-.3c-.9 0-1.5-.8-1.5-1.6 0-.9.8-1.6 1.6-1.5.9.1 1.6.8 1.5 1.7 0 .8-.7 1.5-1.5 1.5 0-.1-.1-.1-.1-.1zm-9.6-.6c-.9-.1-1.5-.8-1.4-1.7.1-.8.8-1.5 1.7-1.4.8.1 1.5.8 1.4 1.7-.1.8-.7 1.4-1.5 1.5-.1-.1-.1-.1-.2-.1zm-9.6-.9c-.9-.1-1.5-.9-1.4-1.8.1-.9.9-1.5 1.7-1.4.8.1 1.5.9 1.4 1.7-.1.8-.7 1.4-1.5 1.4 0 .1-.1.1-.2.1zm-9.5-1.3c-.9-.1-1.5-1-1.4-1.8.1-.9 1-1.5 1.8-1.3.9.1 1.5.9 1.3 1.8-.1.8-.7 1.3-1.5 1.3 0 .1-.1 0-.2 0zm-9.5-1.5c-.9-.2-1.4-1-1.3-1.8.2-.9 1-1.4 1.8-1.3.9.2 1.4 1 1.3 1.8-.1.7-.8 1.3-1.5 1.3h-.3zm-9.4-2c-.8-.2-1.4-1-1.2-1.9.2-.8 1-1.4 1.9-1.2.9.2 1.4 1 1.2 1.9-.2.7-.8 1.2-1.5 1.2-.1.1-.3.1-.4 0zm-9.4-2.2c-.9-.2-1.3-1.1-1.1-1.9.2-.8 1.1-1.3 1.9-1.1.8.2 1.3 1.1 1.1 1.9-.2.7-.8 1.2-1.4 1.2-.2-.1-.3-.1-.5-.1zm-9.2-2.6c-.8-.2-1.3-1.1-1-2 .2-.8 1.1-1.3 2-1 .8.2 1.3 1.1 1 2-.2.7-.8 1.1-1.4 1.1-.3-.1-.4-.1-.6-.1zm-9.2-3c-.8-.3-1.3-1.2-1-2 .3-.8 1.2-1.3 2-1 .8.3 1.2 1.2 1 2-.2.6-.8 1-1.4 1.1-.2 0-.4 0-.6-.1zm-9-3.4c-.8-.3-1.2-1.2-.9-2 .3-.8 1.2-1.2 2-.9.8.3 1.2 1.2.9 2-.2.6-.8 1-1.4 1-.2.1-.4 0-.6-.1zm-8.9-3.7c-.8-.3-1.2-1.3-.8-2.1.4-.8 1.3-1.2 2.1-.8.8.3 1.2 1.3.8 2.1-.2.6-.8.9-1.4.9-.2.1-.4 0-.7-.1zm-8.7-4.1c-.8-.4-1.1-1.3-.7-2.1.4-.8 1.3-1.1 2.1-.7.8.4 1.1 1.3.7 2.1-.2.5-.8.9-1.3.9-.3 0-.5 0-.8-.2zm-8.5-4.4c-.7-.4-1-1.4-.6-2.2.4-.8 1.4-1 2.1-.6.8.4 1 1.4.6 2.1-.3.5-.8.8-1.3.8-.3.1-.5 0-.8-.1zm-8.3-4.9c-.7-.5-1-1.4-.5-2.2.5-.7 1.4-1 2.2-.5.7.5 1 1.4.5 2.2-.3.5-.8.7-1.3.8-.3-.1-.7-.2-.9-.3zm-8.1-5.3c-.7-.5-.9-1.5-.4-2.2.5-.7 1.5-.9 2.2-.4.7.5.9 1.5.4 2.2-.3.4-.7.7-1.2.7-.4 0-.7-.1-1-.3zm-7.8-5.7c-.7-.5-.8-1.5-.3-2.2.5-.7 1.5-.8 2.2-.3.7.5.8 1.5.3 2.2-.3.4-.7.6-1.2.6-.3 0-.7-.1-1-.3zm-7.5-6.1c-.6-.6-.7-1.6-.2-2.2.6-.6 1.6-.7 2.2-.2.6.6.7 1.6.2 2.2-.3.3-.7.5-1.1.5-.3.1-.7 0-1.1-.3zm-7.1-6.5c-.6-.6-.6-1.6-.1-2.2.6-.6 1.6-.6 2.2-.1.6.6.6 1.6.1 2.2-.3.3-.7.5-1.1.5-.3.1-.8-.1-1.1-.4zm-6.7-6.9c-.6-.6-.5-1.6.1-2.2.6-.6 1.6-.5 2.2.1.6.6.5 1.6-.1 2.2-.3.3-.6.4-1 .4-.5 0-.9-.1-1.2-.5zm-6.4-7.3c-.6-.7-.5-1.7.2-2.2.7-.6 1.7-.5 2.2.2.6.7.5 1.7-.2 2.2-.3.2-.6.4-.9.4-.5 0-1-.2-1.3-.6zm-5.9-7.6c-.5-.7-.4-1.7.3-2.2.7-.5 1.7-.4 2.2.4.5.7.4 1.7-.3 2.2-.3.2-.6.3-.9.3-.4 0-.9-.3-1.3-.7zm-5.4-8c-.5-.8-.2-1.7.5-2.2.7-.5 1.7-.3 2.2.5.5.7.2 1.7-.5 2.2-.2.2-.5.2-.8.2-.5 0-1-.2-1.4-.7zm-4.8-8.4c-.4-.8-.1-1.7.6-2.1.8-.4 1.7-.1 2.1.6.4.7.1 1.7-.6 2.1-.2.1-.4.2-.7.2-.5.1-1.1-.2-1.4-.8zm-4.4-8.6c-.4-.8 0-1.7.8-2.1.8-.4 1.7 0 2.1.8.4.8 0 1.7-.8 2.1-.2.1-.4.1-.6.1-.6 0-1.2-.3-1.5-.9zm-3.7-8.9c-.3-.8.1-1.7.9-2 .8-.3 1.7.1 2 .9.3.8-.1 1.7-.9 2-.1.1-.3.1-.5.1-.6 0-1.3-.4-1.5-1zm-3.2-9.2c-.3-.8.2-1.7 1-2 .8-.2 1.7.2 2 1.1.3.8-.2 1.7-1 2-.1 0-.2.1-.4.1-.7 0-1.3-.5-1.6-1.2zm-2.5-9.3c-.2-.9.3-1.7 1.2-1.9.8-.2 1.7.3 1.9 1.2.2.8-.3 1.7-1.2 1.9h-.3c-.7 0-1.4-.5-1.6-1.2zm-1.9-9.5c-.1-.9.4-1.7 1.3-1.8.8-.2 1.7.4 1.8 1.3.2.9-.4 1.7-1.3 1.8h-.2c-.8.1-1.5-.5-1.6-1.3zm-1.4-9.5c-.1-.9.5-1.7 1.4-1.8.9-.1 1.6.5 1.8 1.4.1.9-.5 1.6-1.4 1.7h-.1c-.9.1-1.6-.5-1.7-1.3zm222.4 149.8c-.1-.9.6-1.6 1.4-1.7.9-.1 1.6.6 1.7 1.4.1.9-.6 1.6-1.5 1.7h-.1c-.7.1-1.4-.5-1.5-1.4zm9.5-.9c-.1-.9.5-1.7 1.4-1.8.9-.1 1.6.5 1.8 1.4.1.8-.5 1.6-1.4 1.7h-.1c-.9.1-1.6-.5-1.7-1.3zm9.5-1.3c-.1-.9.4-1.7 1.3-1.8.9-.1 1.7.4 1.8 1.3.1.9-.4 1.7-1.3 1.8h-.2c-.8.1-1.5-.5-1.6-1.3zm9.4-1.6c-.2-.9.4-1.7 1.2-1.9.9-.2 1.7.4 1.8 1.2.2.9-.4 1.7-1.2 1.9h-.2c-.8.1-1.5-.5-1.6-1.2zm9.3-2c-.2-.8.3-1.7 1.2-1.9.9-.2 1.7.3 1.9 1.2.2.9-.3 1.7-1.2 1.9-.1 0-.2.1-.3.1-.8-.1-1.5-.6-1.6-1.3zm9.2-2.4c-.2-.8.2-1.7 1.1-1.9.9-.2 1.7.2 2 1.1.2.8-.3 1.7-1.1 1.9-.1.1-.2.1-.3.1-.8 0-1.5-.5-1.7-1.2zm9.2-2.7c-.3-.8.2-1.7 1-2 .8-.3 1.7.2 2 1 .3.8-.2 1.7-1 2-.1 0-.3.1-.4.1-.8 0-1.4-.4-1.6-1.1zm9-3.1c-.3-.8.1-1.7.9-2 .8-.3 1.7.1 2 .9.3.8-.1 1.7-.9 2-.2.1-.3.1-.5.1-.6.1-1.3-.3-1.5-1zm8.9-3.4c-.3-.8 0-1.7.8-2.1.8-.4 1.7 0 2.1.8.3.8 0 1.7-.8 2.1-.2.1-.4.1-.5.1-.7.1-1.4-.3-1.6-.9zm8.7-3.8c-.4-.8 0-1.7.8-2.1.8-.4 1.7 0 2.1.8.4.8 0 1.7-.7 2.1-.2.1-.4.1-.6.2-.7 0-1.3-.4-1.6-1zm8.6-4.1c-.4-.8-.1-1.7.7-2.1.8-.4 1.7-.1 2.1.7.4.8.1 1.7-.7 2.1-.2.1-.4.2-.6.2-.6 0-1.2-.4-1.5-.9zm8.4-4.5c-.4-.8-.2-1.7.6-2.1.8-.4 1.7-.2 2.1.6.4.8.2 1.7-.6 2.1-.2.1-.5.2-.7.2-.5 0-1.1-.3-1.4-.8zm8.3-4.9c-.5-.7-.3-1.7.5-2.2.7-.5 1.7-.3 2.2.5.5.7.3 1.7-.5 2.2-.2.2-.5.2-.8.2-.6.1-1.1-.2-1.4-.7zm8-5.2c-.5-.7-.3-1.7.4-2.2.7-.5 1.7-.3 2.2.4.5.7.3 1.7-.4 2.2-.2.2-.5.3-.8.3-.6.1-1.1-.2-1.4-.7zm7.7-5.5c-.5-.7-.4-1.7.3-2.2.7-.5 1.7-.4 2.2.3.5.7.4 1.7-.3 2.2-.3.2-.6.3-.9.3-.4 0-1-.2-1.3-.6zm7.5-5.9c-.6-.7-.5-1.7.2-2.2.7-.6 1.6-.5 2.2.2.6.6.5 1.6-.2 2.2-.3.2-.6.3-.9.3-.4.1-.9-.1-1.3-.5zm7.3-6.2c-.6-.6-.5-1.6.1-2.2.6-.6 1.6-.6 2.2.1.6.6.5 1.6-.1 2.2-.3.2-.7.4-1 .4-.4 0-.9-.1-1.2-.5zm6.9-6.5c-.6-.6-.6-1.6 0-2.2.6-.6 1.6-.6 2.2 0 .6.6.6 1.6 0 2.2-.3.3-.7.4-1 .4-.4 0-.8-.1-1.2-.4zm6.7-6.9c-.6-.6-.7-1.6-.1-2.2.6-.6 1.6-.7 2.2-.1.6.6.7 1.6.1 2.2-.3.3-.7.5-1.1.5-.4 0-.8-.1-1.1-.4zm6.3-7.2c-.7-.5-.8-1.5-.2-2.2.6-.7 1.6-.8 2.2-.2.7.6.8 1.6.2 2.2-.3.4-.7.6-1.1.6-.5 0-.8-.1-1.1-.4zm5.9-7.4c-.7-.5-.9-1.5-.3-2.2.5-.7 1.5-.8 2.2-.3.7.5.8 1.5.3 2.2-.3.4-.7.6-1.2.7-.3-.1-.7-.2-1-.4zm5.5-7.8c-.7-.5-.9-1.4-.5-2.2.5-.7 1.5-.9 2.2-.4.7.5.9 1.4.4 2.2-.3.4-.8.7-1.3.7-.1-.1-.5-.1-.8-.3zm5.2-8.1c-.7-.4-1-1.4-.5-2.2.4-.7 1.4-1 2.2-.6.7.4 1 1.4.5 2.2-.3.5-.8.7-1.3.8-.3 0-.6 0-.9-.2zm4.7-8.3c-.8-.4-1.1-1.4-.7-2.1.4-.8 1.4-1.1 2.1-.7.8.4 1.1 1.3.7 2.1-.3.5-.8.8-1.3.8-.3.1-.6 0-.8-.1zm4.2-8.6c-.8-.4-1.2-1.3-.8-2.1.4-.8 1.3-1.2 2.1-.8.8.4 1.1 1.3.8 2.1-.2.6-.8.9-1.3.9-.3.1-.5.1-.8-.1zm3.8-8.7c-.8-.3-1.2-1.2-.9-2 .3-.8 1.2-1.2 2-.9.8.3 1.2 1.2.9 2-.2.6-.8 1-1.4 1-.2 0-.4-.1-.6-.1zm3.2-9c-.8-.3-1.3-1.2-1-2 .3-.8 1.2-1.3 2-1 .8.3 1.3 1.2 1 2-.2.7-.8 1.1-1.4 1.1-.2 0-.4 0-.6-.1zm2.8-9.2c-.9-.2-1.4-1.1-1.1-1.9.2-.9 1.1-1.3 1.9-1.1.8.2 1.3 1.1 1.1 1.9-.2.7-.8 1.2-1.5 1.2-.1 0-.3 0-.4-.1zm2.1-9.2c-.9-.2-1.4-1-1.3-1.9.2-.9 1-1.4 1.9-1.2.9.2 1.4 1 1.3 1.8-.1.7-.8 1.3-1.5 1.3h-.4zm1.7-9.4c-.9-.1-1.5-.9-1.4-1.8.1-.9.9-1.5 1.8-1.4.9.1 1.5.9 1.4 1.8-.1.8-.7 1.3-1.5 1.4h-.3zm1-9.5c-.9-.1-1.5-.8-1.4-1.7.1-.9.8-1.5 1.7-1.5.8.1 1.5.8 1.4 1.7-.1.8-.7 1.4-1.5 1.5h-.2zm.5-9.5c-.9 0-1.6-.7-1.5-1.6 0-.9.7-1.6 1.6-1.6.9 0 1.6.7 1.6 1.6-.1.8-.7 1.5-1.7 1.6.1 0 .1 0 0 0zm-421.2 8.7l-6.4 20.5 7-5.9 7.6 5.2-8.2-19.8z"/><path class="st4" d="M650.9 221.7c44.7 0 80.9 36.2 80.9 80.9s-36.2 80.9-80.9 80.9-80.9-36.2-80.9-80.9 36.2-80.9 80.9-80.9zm44.7-161.8c44.7 0 80.9 36.2 80.9 80.9s-36.2 80.9-80.9 80.9-80.9-36.2-80.9-80.9 36.2-80.9 80.9-80.9z"/><path class="st5" d="M55.8 101.5c0-2.5-1.9-4.5-4.9-4.5-2.4 0-4.2 1.2-4.2 2.6v1.1h-2.2V99c0-3 4.1-4.2 6.5-4.2 4.5 0 7.2 3 7.2 6.7 0 8.4-12.6 8.1-12.6 14.7 0 .5.3.7.8.7h9.9c.5 0 .7-.2.7-.7v-1.6h2.2v2.4c0 1.5-.6 2.1-2.1 2.1H45.3c-1.6 0-2.1-.7-2.1-2.3 0-9 12.6-8.2 12.6-15.3zm10.2 5.6c0-6.8 2-12.3 8.2-12.3s8.2 5.4 8.2 12.3-2 12.3-8.2 12.3S66 114 66 107.1zm14 0c0-5.6-1.3-10.1-5.8-10.1s-5.8 4.4-5.8 10.1c0 5.7 1.3 10.1 5.8 10.1s5.8-4.4 5.8-10.1zm9.4 9.8h5.3V98.2h-.1s-.2.5-1.2 1.4l-2.5 2.5-1.5-1.5 5.4-5.3H97V117h5.2v2.1H89.4v-2.2zm30-17.4c.7-1.3 1.3-2.2 1.3-2.2v-.1s-.6.1-1.8.1h-8.6c-.5 0-.7.2-.7.7v1.6h-2.2v-2.4c0-1.5.6-2.1 2-2.1h14v1.6L111.7 119h-2.6l10.3-19.5z"/><path class="st6" d="M170.2 100.4s1.4 1.7 3.7 1.7c1.6 0 2.8-1 2.8-2.5 0-3.5-7-2.8-7-7.2 0-2 1.7-3.6 4.3-3.6 1.4 0 3.8.6 3.8 2.4v1h-1.3v-.7c0-.8-1.2-1.5-2.5-1.5-1.8 0-2.9 1.1-2.9 2.3 0 3.3 7 2.5 7 7.2 0 2.1-1.6 3.9-4.3 3.9-2.9 0-4.5-2-4.5-2l.9-1zm17.1-7.6c3 0 5.4 2.3 5.4 5.3 0 3.1-2.4 5.4-5.4 5.4-3 0-5.4-2.3-5.4-5.4.1-3 2.5-5.3 5.4-5.3zm.1 9.5c2.2 0 3.9-1.8 3.9-4.1s-1.8-4-3.9-4c-2.2 0-4 1.7-4 4s1.8 4.1 4 4.1zm9.9-7.6c0-.3-.2-.4-.4-.4h-.9v-1.2h1.4c.8 0 1.2.4 1.2 1.1v1.2c.4-.9 1.7-2.6 4-2.6 2.5 0 3.4 1.4 3.4 3.9v4.8c0 .3.2.4.4.4h.8v1.2H206c-.9 0-1.2-.4-1.2-1.2V97c0-1.6-.2-3-2.2-3-1.7 0-3.2 1.2-3.7 2.9-.1.4-.2.9-.2 1.4v4.9h-1.4v-8.5zm18.7-1.9c3 0 5.4 2.3 5.4 5.3 0 3.1-2.4 5.4-5.4 5.4-3 0-5.4-2.3-5.4-5.4.1-3 2.5-5.3 5.4-5.3zm0 9.5c2.2 0 3.9-1.8 3.9-4.1s-1.8-4-3.9-4c-2.2 0-4 1.7-4 4 .1 2.3 1.8 4.1 4 4.1zm17.1-1.5s1.1 1.5 3.1 1.5c1.1 0 2.1-.5 2.1-1.6 0-2.2-5.7-1.8-5.7-5.1 0-1.8 1.6-2.7 3.6-2.7 1 0 3.1.4 3.1 1.8v.9H238v-.5c0-.7-1.1-1-1.8-1-1.4 0-2.3.5-2.3 1.5 0 2.3 5.7 1.8 5.7 5.1 0 1.7-1.5 2.8-3.6 2.8-2.6 0-3.9-1.8-3.9-1.8l1-.9zm11.4-6.6h-1.3V93h1.4v-2.8h1.4V93h2.5v1.2H246v5.2c0 2.4 1.5 2.7 2.3 2.7h.5v1.2h-.6c-1.2 0-3.5-.4-3.5-3.8v-5.3zm13.8 2.8h.6v-.1c0-2.1-.8-2.9-2.6-2.9-.5 0-2 .1-2 .9v.6H253v-1c0-1.4 2.4-1.7 3.3-1.7 3.2 0 4 1.7 4 3.9v4.9c0 .3.2.4.4.4h.8v1.2h-1.4c-.9 0-1.2-.4-1.2-1.2v-.7s-.8 2.2-3.4 2.2c-1.7 0-3.5-1-3.5-3 .1-3.4 4.6-3.5 6.3-3.5zm-2.5 5.3c1.9 0 3.1-2 3.1-3.8V98h-.6c-1.6 0-4.8 0-4.8 2.3 0 1.1.8 2 2.3 2zm10.1-8.1h-1.3V93h1.4v-2.8h1.4V93h2.5v1.2h-2.5v5.2c0 2.4 1.5 2.7 2.3 2.7h.5v1.2h-.6c-1.2 0-3.5-.4-3.5-3.8v-5.3zm12.5-1.4c2.8 0 4.3 2.2 4.3 4.7v.7h-7.8c0 2.6 1.8 4 3.9 4 1.9 0 3.1-1.3 3.1-1.3l.7 1s-1.5 1.5-3.8 1.5c-3 0-5.3-2.2-5.3-5.3-.1-3.3 2.2-5.3 4.9-5.3zm2.8 4.3c-.1-2.1-1.4-3.1-2.9-3.1-1.7 0-3.2 1.1-3.5 3.1h6.4zM177.5 116c0-.3-.2-.4-.4-.4h-.8v-1.2h1.4c.9 0 1.2.4 1.2 1.2v4.9c0 1.6.3 3 2.2 3 2.3 0 3.7-2 3.7-4.2v-4.9h1.4v8.5c0 .3.2.4.4.4h.8v1.2H186c-.8 0-1.2-.4-1.2-1.1v-1.1c-.4 1-1.7 2.6-4 2.6-2.4 0-3.4-1.3-3.4-3.9v-5zm14.3-.4h-1.3v-1.2h1.4v-2.8h1.4v2.8h2.5v1.2h-2.5v5.2c0 2.4 1.5 2.7 2.3 2.7h.5v1.2h-.6c-1.2 0-3.5-.4-3.5-3.8v-5.3zm8.8.4c0-.3-.2-.4-.4-.4h-.8v-1.2h1.4c.9 0 1.2.4 1.2 1.2v7.3c0 .3.2.4.4.4h.8v1.2h-1.4c-.9 0-1.2-.4-1.2-1.2V116zm0-5.6h1.3v1.7h-1.3v-1.7zm7 1.6c0-.3-.2-.4-.4-.4h-.8v-1.2h1.4c.9 0 1.2.4 1.2 1.2v11.3c0 .3.2.4.4.4h.8v1.2h-1.4c-.9 0-1.2-.4-1.2-1.2V112zm7.1 4c0-.3-.2-.4-.4-.4h-.8v-1.2h1.4c.9 0 1.2.4 1.2 1.2v7.3c0 .3.2.4.4.4h.8v1.2h-1.4c-.9 0-1.2-.4-1.2-1.2V116zm-.1-5.6h1.3v1.7h-1.3v-1.7zm6.1 13.3l5.7-7.1c.4-.5.8-.9.8-.9h-4.7c-.3 0-.4.1-.4.4v.8h-1.3v-1.2c0-.9.4-1.2 1.2-1.2h7.1v.9l-5.7 7.1c-.4.5-.8.9-.8.9h5.2c.3 0 .4-.1.4-.4v-.8h1.3v1.2c0 .9-.4 1.2-1.2 1.2h-7.5v-.9zm12.1 0l5.7-7.1c.4-.5.8-.9.8-.9h-4.7c-.3 0-.4.1-.4.4v.8h-1.3v-1.2c0-.9.4-1.2 1.2-1.2h7.1v.9l-5.7 7.1c-.4.5-.8.9-.8.9h5.2c.3 0 .4-.1.4-.4v-.8h1.3v1.2c0 .9-.4 1.2-1.2 1.2h-7.5v-.9zm18.3-5.4h.6v-.1c0-2.1-.8-2.9-2.6-2.9-.5 0-2 .1-2 .9v.6h-1.3v-1c0-1.4 2.4-1.7 3.3-1.7 3.2 0 4 1.7 4 3.9v4.9c0 .3.2.4.4.4h.8v1.2H253c-.9 0-1.2-.4-1.2-1.2v-.7s-.8 2.2-3.4 2.2c-1.7 0-3.5-1-3.5-3 0-3.4 4.5-3.5 6.2-3.5zm-2.5 5.3c1.9 0 3.1-2 3.1-3.8v-.5h-.6c-1.6 0-4.8 0-4.8 2.3 0 1.1.8 2 2.3 2zm10.1-8h-1.3v-1.2h1.4v-2.8h1.4v2.8h2.5v1.2h-2.5v5.2c0 2.4 1.5 2.7 2.3 2.7h.5v1.2h-.6c-1.2 0-3.5-.4-3.5-3.8v-5.3zm12.5-1.4c2.8 0 4.3 2.2 4.3 4.7v.7h-7.8c0 2.6 1.8 4 3.9 4 1.9 0 3.1-1.3 3.1-1.3l.7 1s-1.5 1.5-3.8 1.5c-3 0-5.3-2.2-5.3-5.3-.1-3.3 2.2-5.3 4.9-5.3zm2.9 4.3c-.1-2.1-1.4-3.1-2.9-3.1-1.7 0-3.2 1.1-3.5 3.1h6.4z"/><path class="st3" d="M170.6 146.1c1.8 0 5.6.8 5.6 3.4v1.4h-2v-.9c0-1.3-2.3-1.9-3.6-1.9-3.4 0-6.1 2.5-6.1 6.4 0 3.9 2.9 6.3 6.2 6.3 3.2 0 5.1-2.2 5.1-2.2l1 1.6s-2.1 2.6-6.2 2.6c-4.7 0-8.3-3.4-8.3-8.3-.1-4.9 3.5-8.4 8.3-8.4zm9.9 2.9c0-.4-.3-.7-.7-.7h-1.3v-1.9h2.2c1.4 0 1.9.6 1.9 1.9v11.3c0 .5.3.7.7.7h1.3v1.9h-2.2c-1.4 0-1.9-.6-1.9-1.9V149zm-.1-8.8h2.1v2.7h-2.1v-2.7zm7.8 8.8c0-.4-.3-.7-.7-.7h-1.3v-1.9h2.2c1.3 0 1.9.5 1.9 1.8v1.1c0 .7-.1 1.2-.1 1.2h.1c.8-2.4 2.5-4.2 5-4.2.4 0 .8.1.8.1v2.1s-.4-.1-.8-.1c-2.2 0-3.9 1.8-4.6 4.1-.3 1-.4 2.1-.4 3.1v6.7h-2.1V149zm17.6-2.9c1.8 0 5.6.8 5.6 3.4v1.4h-2v-.9c0-1.3-2.3-1.9-3.6-1.9-3.4 0-6.1 2.5-6.1 6.4 0 3.9 2.9 6.3 6.2 6.3 3.2 0 5.1-2.2 5.1-2.2l1 1.6s-2.1 2.6-6.2 2.6c-4.7 0-8.3-3.4-8.3-8.3s3.6-8.4 8.3-8.4zm17.9 6.4h.9v-.2c0-3.3-1.2-4.5-4.1-4.5-.8 0-3.1.2-3.1 1.4v1h-2v-1.5c0-2.2 3.8-2.7 5.2-2.7 5 0 6.2 2.7 6.2 6.1v7.6c0 .5.3.7.7.7h1.3v1.9h-2.2c-1.4 0-1.9-.6-1.9-1.9v-1.2h-.1s-1.3 3.4-5.2 3.4c-2.6 0-5.4-1.5-5.4-4.7 0-5.2 7-5.4 9.7-5.4zm-3.9 8.3c3 0 4.8-3.1 4.8-5.9v-.7h-.9c-2.5 0-7.4.1-7.4 3.6-.1 1.5 1.1 3 3.5 3zm30.3-16.6c.6-1.2 1.2-2 1.2-2v-.1s-.6.1-1.7.1h-8c-.4 0-.7.2-.7.7v1.5h-2.1v-2.2c0-1.4.5-1.9 1.9-1.9h13v1.5l-10.9 20.6h-2.5l9.8-18.2zm5.2 7c0-6.3 1.9-11.4 7.6-11.4 5.8 0 7.6 5.1 7.6 11.4 0 6.4-1.9 11.4-7.6 11.4-5.8.1-7.6-5-7.6-11.4zm13 0c0-5.2-1.2-9.4-5.4-9.4s-5.4 4.1-5.4 9.4c0 5.3 1.2 9.4 5.4 9.4s5.4-4.1 5.4-9.4zm5.9 0c0-6.3 1.9-11.4 7.6-11.4s7.6 5.1 7.6 11.4c0 6.4-1.9 11.4-7.6 11.4s-7.6-5-7.6-11.4zm13 0c0-5.2-1.2-9.4-5.4-9.4s-5.4 4.1-5.4 9.4c0 5.3 1.2 9.4 5.4 9.4s5.4-4.1 5.4-9.4zm-130.3 26.3h-2.1v-1.8h2.1v-4.4h2.1v4.4h4v1.8h-4v8c0 3.7 2.4 4.2 3.6 4.2.4 0 .7-.1.7-.1v1.9s-.4.1-.9.1c-1.8 0-5.5-.6-5.5-5.9v-8.2zm16.9-2.2c4.6 0 8.4 3.5 8.4 8.2 0 4.8-3.7 8.4-8.3 8.4-4.6 0-8.4-3.6-8.4-8.4-.1-4.7 3.7-8.2 8.3-8.2zm0 14.6c3.4 0 6.1-2.8 6.1-6.4 0-3.6-2.8-6.3-6.1-6.3-3.4 0-6.2 2.7-6.2 6.3 0 3.7 2.8 6.4 6.2 6.4zm12.3-11.7c0-.4-.3-.7-.7-.7h-1.3v-1.9h2.2c1.3 0 1.9.6 1.9 1.8v.7c0 .6-.1 1.1-.1 1.1h.1c.6-1.4 2.6-4 6.3-4 3.9 0 5.3 2.2 5.3 6.1v7.5c0 .5.3.7.7.7h1.3v1.9h-2.2c-1.4 0-1.9-.6-1.9-1.9V182c0-2.5-.4-4.7-3.4-4.7-2.7 0-5 1.9-5.8 4.5-.2.7-.3 1.4-.3 2.1v7.6h-2.1v-13.3zm19.1 0c0-.4-.3-.7-.7-.7h-1.3v-1.9h2.2c1.3 0 1.9.6 1.9 1.8v.7c0 .6-.1 1.1-.1 1.1h.1c.6-1.4 2.6-4 6.3-4 3.9 0 5.3 2.2 5.3 6.1v7.5c0 .5.3.7.7.7h1.3v1.9h-2.2c-1.4 0-1.9-.6-1.9-1.9V182c0-2.5-.4-4.7-3.4-4.7-2.7 0-5 1.9-5.8 4.5-.2.7-.3 1.4-.3 2.1v7.6h-2.1v-13.3zm25.4-2.9c4.4 0 6.6 3.4 6.6 7.3 0 .4-.1 1.1-.1 1.1H225c.1 4 2.9 6.3 6.1 6.3 2.9 0 4.7-1.9 4.7-1.9l1 1.6s-2.3 2.3-5.9 2.3c-4.7 0-8.3-3.4-8.3-8.3.2-5.3 3.8-8.4 8-8.4zm4.5 6.6c-.1-3.3-2.1-4.9-4.5-4.9-2.6 0-4.9 1.7-5.4 4.9h9.9zm6.4-10c0-.4-.3-.7-.7-.7h-1.3v-1.9h2.2c1.4 0 1.9.6 1.9 1.9v17.6c0 .5.3.7.7.7h1.3v1.9h-2.2c-1.4 0-1.9-.6-1.9-1.9v-17.6zm7.7 0c0-.4-.3-.7-.7-.7h-1.3v-1.9h2.2c1.4 0 1.9.6 1.9 1.9v17.6c0 .5.3.7.7.7h1.3v1.9h-2.2c-1.4 0-1.9-.6-1.9-1.9v-17.6zm16 9.8h.9v-.2c0-3.3-1.2-4.5-4.1-4.5-.8 0-3.1.2-3.1 1.4v1h-2V178c0-2.2 3.8-2.7 5.2-2.7 5 0 6.2 2.7 6.2 6.1v7.6c0 .5.3.7.7.7h1.3v1.9H268c-1.4 0-1.9-.6-1.9-1.9v-1.2h-.1s-1.3 3.4-5.2 3.4c-2.6 0-5.4-1.5-5.4-4.7.1-5.3 7-5.5 9.8-5.5zm-4 8.3c3 0 4.8-3.1 4.8-5.9v-.7h-.9c-2.5 0-7.4.1-7.4 3.6 0 1.5 1.1 3 3.5 3zm12.6-12.5h-2.1v-1.8h2.1v-4.4h2.1v4.4h4v1.8h-4v8c0 3.7 2.4 4.2 3.6 4.2.4 0 .7-.1.7-.1v1.9s-.4.1-.9.1c-1.8 0-5.5-.6-5.5-5.9v-8.2zm16.3-2.2c4.4 0 6.6 3.4 6.6 7.3 0 .4-.1 1.1-.1 1.1h-12.1c.1 4 2.9 6.3 6.1 6.3 2.9 0 4.7-1.9 4.7-1.9l1 1.6s-2.3 2.3-5.9 2.3c-4.7 0-8.3-3.4-8.3-8.3.2-5.3 3.8-8.4 8-8.4zm4.4 6.6c-.1-3.3-2.1-4.9-4.5-4.9-2.6 0-4.9 1.7-5.4 4.9h9.9zM160 204.5c3.8 0 5.2 3 5.2 3h.1s-.1-.5-.1-1.2v-5.1c0-.4-.3-.7-.7-.7h-1.3v-1.9h2.2c1.4 0 1.9.6 1.9 1.9v17.6c0 .5.3.7.7.7h1.3v1.9h-2.2c-1.3 0-1.9-.6-1.9-1.8 0-.6.1-1 .1-1h-.1s-1.3 3.1-5.4 3.1c-4.2 0-6.9-3.4-6.9-8.3 0-5 3-8.2 7.1-8.2zm5.3 8.2c0-3.2-1.6-6.3-5-6.3-2.8 0-5.1 2.4-5.1 6.3s2 6.4 5 6.4c2.6 0 5.1-1.9 5.1-6.4zm7.7-5.3c0-.4-.3-.7-.7-.7H171v-1.9h2.2c1.4 0 1.9.6 1.9 1.9V218c0 .5.3.7.7.7h1.3v1.9h-2.2c-1.4 0-1.9-.6-1.9-1.9v-11.3zm-.1-8.8h2.1v2.7h-2.1v-2.7zm16.9 1.9h-2v-1.9h9.4c3.5 0 6 2.1 6 5.6 0 2.4-1.2 4-2.8 4.8v.1c2.3.6 3.7 2.8 3.7 5.5 0 3.9-2.9 6.2-6.6 6.2h-5.7c-1.4 0-1.9-.6-1.9-1.9v-18.4zm7.4 7.6c2.2 0 3.7-1.6 3.7-3.9s-1.4-3.8-3.8-3.8H192v7.6h5.2zm-4.5 10.6h4.7c2.7 0 4.3-1.7 4.3-4.3s-1.8-4.4-4.3-4.4H192v8c0 .5.3.7.7.7zm15.8-11.3c0-.4-.3-.7-.7-.7h-1.3v-1.9h2.2c1.4 0 1.9.6 1.9 1.9V218c0 .5.3.7.7.7h1.3v1.9h-2.2c-1.4 0-1.9-.6-1.9-1.9v-11.3zm-.1-8.8h2.1v2.7h-2.1v-2.7zm14.7 5.9c4.6 0 8.4 3.5 8.4 8.2 0 4.8-3.7 8.4-8.3 8.4-4.6 0-8.4-3.6-8.4-8.4-.1-4.7 3.7-8.2 8.3-8.2zm0 14.6c3.4 0 6.1-2.8 6.1-6.4 0-3.6-2.8-6.3-6.1-6.3-3.4 0-6.2 2.7-6.2 6.3 0 3.6 2.8 6.4 6.2 6.4zm11.9-8.4h8.9v1.9H235v-1.9zm14.6-10.2h-2v-1.9h9.3c3.9 0 6.8 2.6 6.8 6.7s-2.9 6.8-6.8 6.8h-5.1v8.7h-2.2v-20.3zm7 9.5c2.9 0 4.8-1.8 4.8-4.8s-1.9-4.7-4.8-4.7h-4.8v9.5h4.8zm11.2-9.5h-2v-1.9h12.6c1.4 0 1.9.6 1.9 1.9v2.2h-2.1v-1.5c0-.5-.3-.7-.7-.7H270v8h8.3v1.9H270v7.5c0 .5.3.7.7.7h7.8c.4 0 .7-.2.7-.7v-1.5h2v2.2c0 1.4-.6 1.9-1.9 1.9h-9.6c-1.4 0-1.9-.6-1.9-1.9v-18.1zm22.6 0h-5.5c-.4 0-.7.2-.7.7v1.5h-2v-2.3c0-1.4.4-1.8 1.8-1.8h15c1.4 0 1.8.4 1.8 1.8v2.3h-2v-1.5c0-.5-.2-.7-.7-.7h-5.4v20.1h-2.2v-20.1z"/><path class="st6" d="M153.2 236.4c0-.3-.2-.4-.4-.4h-.8v-1.2h1.4c.9 0 1.2.4 1.2 1.1v.7s.8-2 3.5-2 4.4 2.2 4.4 5.3c0 3.2-1.9 5.3-4.5 5.3-2.5 0-3.3-1.9-3.3-1.9v5.7h-1.4v-12.6zm4.5 7.5c1.8 0 3.3-1.5 3.3-4.1 0-2.5-1.3-4.1-3.2-4.1-1.7 0-3.3 1.2-3.3 4.1 0 2.1 1.1 4.1 3.2 4.1zm13.4-9.4c2.8 0 4.3 2.2 4.3 4.7v.7h-7.8c0 2.6 1.8 4 3.9 4 1.9 0 3.1-1.3 3.1-1.3l.7 1s-1.5 1.5-3.8 1.5c-3 0-5.3-2.2-5.3-5.3-.1-3.3 2.2-5.3 4.9-5.3zm2.8 4.3c-.1-2.1-1.4-3.1-2.9-3.1-1.7 0-3.2 1.1-3.5 3.1h6.4zm6.2-2.4c0-.3-.2-.4-.4-.4h-.8v-1.2h1.4c.8 0 1.2.3 1.2 1.2v1.5c.5-1.5 1.6-2.7 3.2-2.7.3 0 .5.1.5.1v1.4h-.5c-1.4 0-2.5 1.1-3 2.6-.2.6-.3 1.3-.3 2v4.3H180v-8.8zm17.3-4c0-.3-.2-.4-.4-.4h-.9v-1.3h1.5c.9 0 1.2.4 1.2 1.2v11.3c0 .3.2.4.4.4h4.7c.3 0 .4-.1.4-.4v-.9h1.3v1.4c0 .9-.4 1.2-1.2 1.2h-5.9c-.9 0-1.2-.4-1.2-1.2v-11.3zm16.2 2.1c2.8 0 4.3 2.2 4.3 4.7v.7H210c0 2.6 1.8 4 3.9 4 1.9 0 3.1-1.3 3.1-1.3l.7 1s-1.5 1.5-3.8 1.5c-3 0-5.3-2.2-5.3-5.3 0-3.3 2.2-5.3 5-5.3zm2.8 4.3c-.1-2.1-1.4-3.1-2.9-3.1-1.7 0-3.2 1.1-3.5 3.1h6.4zm5.6-2.4c-.1-.4-.3-.5-.7-.5h-.2v-1.2h.5c1 0 1.3.2 1.6 1.1l2.4 6.3c.2.5.3 1.2.3 1.2s.2-.7.3-1.2l2.4-6.3c.3-.9.6-1.1 1.6-1.1h.5v1.2h-.2c-.4 0-.6.1-.7.5l-3.3 8.5H225l-3-8.5zm13.2 0c0-.3-.2-.4-.4-.4h-.8v-1.2h1.4c.9 0 1.2.4 1.2 1.2v7.3c0 .3.2.4.4.4h.8v1.2h-1.4c-.9 0-1.2-.4-1.2-1.2v-7.3zm-.1-5.7h1.3v1.7h-1.3v-1.7zm6.7 11.7s1.1 1.5 3.1 1.5c1.1 0 2.1-.5 2.1-1.6 0-2.2-5.7-1.8-5.7-5.1 0-1.8 1.6-2.7 3.6-2.7 1 0 3.1.4 3.1 1.8v.9h-1.3v-.5c0-.7-1.1-1-1.8-1-1.4 0-2.3.5-2.3 1.5 0 2.3 5.7 1.8 5.7 5.1 0 1.7-1.5 2.8-3.6 2.8-2.6 0-3.9-1.8-3.9-1.8l1-.9zm10.9 0s1.1 1.5 3.1 1.5c1.1 0 2.1-.5 2.1-1.6 0-2.2-5.7-1.8-5.7-5.1 0-1.8 1.6-2.7 3.6-2.7 1 0 3.1.4 3.1 1.8v.9h-1.3v-.5c0-.7-1.1-1-1.8-1-1.4 0-2.3.5-2.3 1.5 0 2.3 5.7 1.8 5.7 5.1 0 1.7-1.5 2.8-3.6 2.8-2.6 0-3.9-1.8-3.9-1.8l1-.9zm11.4-6c0-.3-.2-.4-.4-.4h-.8v-1.2h1.4c.9 0 1.2.4 1.2 1.2v7.3c0 .3.2.4.4.4h.8v1.2h-1.4c-.9 0-1.2-.4-1.2-1.2v-7.3zm0-5.7h1.3v1.7h-1.3v-1.7zm7 5.7c0-.3-.2-.4-.4-.4h-.8v-1.2h1.4c.8 0 1.2.4 1.2 1.1v1.2c.5-1.4 2.1-2.6 3.7-2.6 1.9 0 2.8.9 3.2 2.5.5-1.4 2-2.5 3.7-2.5 2.5 0 3.4 1.4 3.4 3.9v4.8c0 .3.2.4.4.4h.8v1.2h-1.4c-.9 0-1.2-.4-1.2-1.2v-4.9c0-1.7-.3-3-2.2-3-1.5 0-2.8 1.4-3.2 2.9-.1.4-.2.9-.2 1.5v4.8h-1.4v-6.1c0-1.5-.2-3-2.1-3-1.7 0-2.9 1.4-3.3 3-.1.4-.2.9-.2 1.4v4.8h-1.4v-8.6zm26.1 2.2h.6v-.1c0-2.1-.8-2.9-2.6-2.9-.5 0-2 .1-2 .9v.6h-1.3v-1c0-1.4 2.4-1.7 3.3-1.7 3.2 0 4 1.7 4 3.9v4.9c0 .3.2.4.4.4h.8v1.2H299c-.9 0-1.2-.4-1.2-1.2v-.7s-.8 2.2-3.4 2.2c-1.7 0-3.5-1-3.5-3 .1-3.4 4.5-3.5 6.3-3.5zm-2.6 5.4c1.9 0 3.1-2 3.1-3.8v-.5h-.6c-1.6 0-4.8 0-4.8 2.3.1 1 .8 2 2.3 2zm350.5-106.1h4.2V123h-.1s-.2.4-.9 1.1l-2 2-1.2-1.2 4.3-4.2h1.8v17.2h4.1v1.7h-10.2v-1.7zm12-6.6c0-4.8 2.5-10.9 8.3-10.9 2.1 0 3.5.8 3.5.8l-.7 1.6s-1.2-.7-2.7-.7c-3.9 0-6 3.9-6.3 7.8h.1c.9-1.5 2.8-2.3 4.8-2.3 3.4 0 5.9 2.5 5.9 6 0 3.9-2.6 6.3-5.9 6.3-4.3 0-7-3.7-7-8.6zm6.8 6.9c2.6 0 4.1-1.9 4.1-4.5s-1.7-4.3-4.3-4.3c-2.5 0-4.6 1.7-4.6 3.2 0 2.4 1.9 5.6 4.8 5.6zm8.7-14.1c0-2 1.7-3.7 3.8-3.7 2.1 0 3.8 1.7 3.8 3.7 0 2.1-1.7 3.7-3.8 3.7-2.1 0-3.8-1.6-3.8-3.7zm14.6-3.4h1.9l-14.4 18.9h-1.9l14.4-18.9zm-8.6 3.4c0-1.2-1-2.2-2.2-2.2-1.2 0-2.2 1-2.2 2.2 0 1.2.9 2.2 2.2 2.2 1.2 0 2.2-1 2.2-2.2zm6.8 8.3c2.1 0 3.8 1.7 3.8 3.8 0 2-1.7 3.7-3.8 3.7-2.1 0-3.8-1.7-3.8-3.7.1-2.1 1.7-3.8 3.8-3.8zm0 6c1.2 0 2.2-1 2.2-2.2 0-1.2-1-2.2-2.2-2.2-1.2 0-2.1 1-2.1 2.2 0 1.2.9 2.2 2.1 2.2zm14.5-.5h4.2V123h-.1s-.2.4-.9 1.1l-2 2-1.2-1.2 4.3-4.2h1.8v17.2h4.1v1.7h-10.2v-1.7zm12.9-.5h2.1v2.1h-2.1v-2.1zm6.6-1.5s1.4 2.2 4.4 2.2c2.7 0 4.7-1.9 4.7-4.4 0-2.6-2.2-4.4-4.9-4.4-2.1 0-3.6 1-3.6 1l-1-.4.8-7.6c.1-1.2.5-1.6 1.6-1.6h6.2c1.1 0 1.6.5 1.6 1.6v1.9h-1.7V123c0-.4-.2-.6-.6-.6h-4.8c-.4 0-.5.2-.6.6l-.5 4.3c-.1.7-.2 1.1-.2 1.1h.1s1.2-.7 2.8-.7c3.8 0 6.6 2.7 6.6 6.1 0 3.4-2.8 6.1-6.6 6.1s-5.6-2.7-5.6-2.7l1.3-1.3zm15.5-12.9c0-.4-.2-.6-.6-.6h-1.2v-1.7h2c1.2 0 1.6.5 1.6 1.6v15c0 .4.2.6.6.6h6.3c.4 0 .6-.2.6-.6V136h1.8v1.9c0 1.2-.5 1.6-1.6 1.6h-7.8c-1.2 0-1.6-.5-1.6-1.6V123zm-80.8 30.1H653v-1h1.1v-.3c0-3 2.1-3.3 3.1-3.3h.6v1.1h-.4c-.7 0-2 .3-2 2.3v.3h2.3v1h-2.3v8h-1.2v-8.1zm7.2.4c0-.3-.1-.4-.4-.4h-.8V152h1.3c.8 0 1.1.3 1.1 1v1.3c.4-1.4 1.4-2.4 2.8-2.4.3 0 .5.1.5.1v1.2h-.4c-1.3 0-2.2 1-2.6 2.3-.2.6-.3 1.2-.3 1.8v3.8h-1.2v-7.6zm8.4 0c0-.3-.1-.4-.4-.4h-.8V152h1.3c.8 0 1.1.3 1.1 1.1v6.5c0 .3.1.4.4.4h.8v1.1h-1.3c-.8 0-1.1-.3-1.1-1.1v-6.5zm0-5h1.2v1.5h-1.2v-1.5zm5.3 11.8l5.1-6.3c.3-.4.7-.8.7-.8h-4.2c-.3 0-.4.1-.4.4v.7h-1.1v-1.1c0-.8.3-1.1 1.1-1.1h6.2v.8l-5 6.3-.8.8h4.6c.3 0 .4-.1.4-.4v-.7h1.1v1.1c0 .8-.3 1.1-1.1 1.1H675v-.8zm10.8 0l5.1-6.3c.3-.4.7-.8.7-.8h-4.2c-.3 0-.4.1-.4.4v.7h-1.1v-1.1c0-.8.3-1.1 1.1-1.1h6.2v.8l-5 6.3-.8.8h4.6c.3 0 .4-.1.4-.4v-.7h1.1v1.1c0 .8-.3 1.1-1.1 1.1h-6.7v-.8zm16.2-4.8h.5v-.1c0-1.9-.7-2.5-2.3-2.5-.4 0-1.8.1-1.8.8v.6h-1.2v-.9c0-1.3 2.1-1.5 2.9-1.5 2.8 0 3.5 1.5 3.5 3.5v4.3c0 .3.1.4.4.4h.8v1.1h-1.2c-.8 0-1.1-.3-1.1-1.1v-.7s-.7 2-3 2c-1.5 0-3.1-.9-3.1-2.7.1-3.1 4.1-3.2 5.6-3.2zm-2.2 4.7c1.7 0 2.8-1.8 2.8-3.3v-.4h-.6c-1.4 0-4.2 0-4.2 2.1 0 .8.6 1.6 2 1.6zm8.8-6.7c0-.3-.1-.4-.4-.4h-.8V152h1.3c.8 0 1.1.3 1.1 1v1c.3-.8 1.5-2.3 3.6-2.3 2.2 0 3 1.3 3 3.5v4.3c0 .3.1.4.4.4h.8v1.1h-1.3c-.8 0-1.1-.3-1.1-1.1v-4.3c0-1.4-.2-2.7-2-2.7-1.5 0-2.9 1.1-3.3 2.5-.1.4-.1.8-.1 1.2v4.3h-1.2v-7.4zm12.8-.4h-1.2v-1h1.2v-2.5h1.2v2.5h2.3v1h-2.3v4.6c0 2.1 1.3 2.4 2 2.4h.4v1.1h-.5c-1 0-3.1-.3-3.1-3.3v-4.8zm11.1-1.3c2.5 0 3.8 1.9 3.8 4.2v.6h-6.9c0 2.3 1.6 3.6 3.5 3.6 1.6 0 2.7-1.1 2.7-1.1l.6.9s-1.3 1.3-3.3 1.3c-2.7 0-4.7-1.9-4.7-4.7-.2-3 1.9-4.8 4.3-4.8zm2.5 3.8c-.1-1.9-1.2-2.8-2.5-2.8-1.5 0-2.8 1-3.1 2.8h5.6zM587.7 299.5h4.5v-15.9h-.1s-.2.4-1 1.2l-2.1 2.1-1.3-1.3 4.6-4.5h1.9v18.4h4.4v1.8h-10.9v-1.8zm13.1-8.3c0-5.8 1.7-10.4 6.9-10.4s7 4.6 7 10.4c0 5.8-1.7 10.4-7 10.4s-6.9-4.6-6.9-10.4zm11.8 0c0-4.8-1.1-8.5-4.9-8.5-3.8 0-4.9 3.8-4.9 8.5 0 4.8 1.1 8.6 4.9 8.6 3.8 0 4.9-3.8 4.9-8.6zm5.4 0c0-5.8 1.7-10.4 6.9-10.4s7 4.6 7 10.4c0 5.8-1.7 10.4-7 10.4s-6.9-4.6-6.9-10.4zm11.9 0c0-4.8-1.1-8.5-4.9-8.5-3.8 0-4.9 3.8-4.9 8.5 0 4.8 1.1 8.6 4.9 8.6 3.8 0 4.9-3.8 4.9-8.6zm5.5-6.4c0-2.2 1.8-4 4-4s4 1.8 4 4-1.8 4-4 4c-2.2-.1-4-1.8-4-4zm15.5-3.7h2l-15.3 20.1h-2.1l15.4-20.1zm-9.2 3.7c0-1.3-1-2.4-2.3-2.4-1.3 0-2.3 1.1-2.3 2.4 0 1.3 1 2.4 2.3 2.4 1.3-.1 2.3-1.1 2.3-2.4zm7.4 8.8c2.2 0 4 1.8 4 4s-1.8 4-4 4-4-1.8-4-4c0-2.1 1.7-4 4-4zm0 6.4c1.3 0 2.4-1.1 2.4-2.4 0-1.3-1-2.4-2.4-2.4-1.3 0-2.3 1.1-2.3 2.4 0 1.3 1 2.4 2.3 2.4zm15.4-.5h4.5v-15.9s-.2.4-1 1.2l-2.1 2.1-1.3-1.3 4.6-4.5h1.9v18.4h4.4v1.8h-10.9v-1.8zm13.8-.5h2.2v2.3h-2.2V299zm5.3-7.8c0-5.8 1.7-10.4 6.9-10.4s7 4.6 7 10.4c0 5.8-1.7 10.4-7 10.4-5.2 0-6.9-4.6-6.9-10.4zm11.8 0c0-4.8-1.1-8.5-4.9-8.5-3.8 0-4.9 3.8-4.9 8.5 0 4.8 1.1 8.6 4.9 8.6 3.9 0 4.9-3.8 4.9-8.6zm6.8-7.7c0-.4-.2-.6-.6-.6h-1.2v-1.8h2.1c1.2 0 1.7.5 1.7 1.7v16c0 .4.2.6.6.6h6.7c.4 0 .6-.2.6-.6v-1.3h1.9v2c0 1.2-.5 1.7-1.7 1.7H704c-1.2 0-1.7-.5-1.7-1.7v-16zm-85.6 28.9c0-.3-.2-.4-.4-.4h-.8v-1.2h1.4c.8 0 1.2.3 1.2 1.2v10.7c0 .3.2.4.4.4h4.5c.3 0 .4-.1.4-.4v-.9h1.3v1.3c0 .8-.3 1.2-1.2 1.2h-5.6c-.8 0-1.2-.3-1.2-1.2v-10.7zm16.6 5.9h.5v-.1c0-2-.7-2.7-2.5-2.7-.5 0-1.9.1-1.9.8v.6h-1.2v-.9c0-1.3 2.3-1.6 3.1-1.6 3 0 3.8 1.6 3.8 3.7v4.6c0 .3.2.4.4.4h.8v1.1h-1.3c-.8 0-1.1-.4-1.1-1.1v-.7s-.8 2.1-3.2 2.1c-1.6 0-3.3-.9-3.3-2.8 0-3.3 4.2-3.4 5.9-3.4zm-2.4 5c1.8 0 2.9-1.9 2.9-3.6v-.4h-.6c-1.5 0-4.5 0-4.5 2.2 0 .9.8 1.8 2.2 1.8zm9.8-10.9c0-.3-.2-.4-.4-.4h-.8v-1.2h1.4c.8 0 1.2.3 1.2 1.2v10.7c0 .3.2.4.4.4h4.5c.3 0 .4-.1.4-.4v-.9h1.3v1.3c0 .8-.3 1.2-1.2 1.2h-5.6c-.8 0-1.2-.3-1.2-1.2v-10.7zm11.8 3.7c0-.3-.2-.4-.4-.4h-.8v-1.1h1.4c.8 0 1.2.3 1.2 1.2v6.9c0 .3.2.4.4.4h.8v1.1h-1.4c-.8 0-1.2-.3-1.2-1.2v-6.9zm-.1-5.3h1.3v1.6h-1.3v-1.6zm6.8 4.9h-1.3v-1.1h1.3v-2.7h1.3v2.7h2.4v1.1h-2.4v4.9c0 2.3 1.4 2.5 2.2 2.5h.4v1.2h-.6c-1.1 0-3.3-.4-3.3-3.6v-5zm8.2.4c0-.3-.2-.4-.4-.4h-.8v-1.1h1.3c.8 0 1.2.3 1.2 1.1v1.3c.5-1.5 1.5-2.6 3-2.6.3 0 .5.1.5.1v1.3h-.5c-1.4 0-2.4 1.1-2.8 2.5-.2.6-.3 1.3-.3 1.9v4.1h-1.3v-8.2zm12.6-1.7c2.8 0 5.1 2.1 5.1 5s-2.3 5.1-5.1 5.1-5.1-2.2-5.1-5.1c0-2.9 2.3-5 5.1-5zm0 8.9c2 0 3.7-1.7 3.7-3.9s-1.7-3.8-3.7-3.8c-2.1 0-3.7 1.6-3.7 3.8 0 2.2 1.6 3.9 3.7 3.9z"/></svg>