<?xml version="1.0" encoding="utf-8"?>
<!-- Generator: Adobe Illustrator 22.0.0, SVG Export Plug-In . SVG Version: 6.00 Build 0)  -->
<svg version="1.1" id="Livello_1" xmlns="http://www.w3.org/2000/svg" xmlns:xlink="http://www.w3.org/1999/xlink" x="0px" y="0px"
	 viewBox="0 0 54 43" style="enable-background:new 0 0 54 43;" xml:space="preserve">
<style type="text/css">
	.st0{fill:#FFFFFF;stroke:#000000;stroke-miterlimit:10;}
	.st1{fill:#F3352F;}
</style>
<path class="st0" d="M35.9,3.7"/>
<path class="st1" d="M52.8,21.7l0.4-0.4l-20.9-21c-0.4-0.4-1-0.4-1.4,0s-0.4,1,0,1.4l18.9,18.9H2c-0.6,0-1,0.4-1,1s0.4,1,1,1h46.9
	L30.5,41.2c-0.4,0.4-0.4,1,0,1.4c0.2,0.2,0.5,0.3,0.7,0.3s0.5-0.1,0.7-0.3l19.9-19.9C52.3,22.6,52.8,22.2,52.8,21.7z"/>
</svg>
