<?xml version="1.0" encoding="utf-8"?>
<!-- Generator: Adobe Illustrator 23.0.0, SVG Export Plug-In . SVG Version: 6.00 Build 0)  -->
<svg version="1.1" id="Livello_1" xmlns="http://www.w3.org/2000/svg" xmlns:xlink="http://www.w3.org/1999/xlink" x="0px" y="0px"
	 viewBox="0 0 214.4 137.4" style="enable-background:new 0 0 214.4 137.4;" xml:space="preserve">
<style type="text/css">
	.st0{fill:#002A5A;}
	.st1{fill:#E40520;}
	.st2{fill:#FFFFFF;}
</style>
<g>
	<g>
		<path class="st0" d="M93.3,116.1c0-1.7-1.5-3.2-3.2-3.2H83v11h1.5v-4.5h4.1l3,4.5h1.7l-3-4.6C92.3,118.9,93.3,117.9,93.3,116.1z
			 M91.2,117.5c-0.3,0.3-0.7,0.4-1.1,0.4h-5.6v-3.5h5.7c1.2,0,1.5,1.1,1.5,1.7v0C91.7,116.7,91.5,117.2,91.2,117.5z"/>
		<path class="st0" d="M104.5,120.2c0,1.5-1.8,2.4-3.5,2.4c-1.7,0-3.4-0.8-3.4-2.4v-7.3H96v7.4c0,0.9,0.4,1.8,1,2.4
			c0.9,0.9,2.2,1.3,3.8,1.3c0,0,0.1,0,0.1,0c3.4,0,5.1-1.2,5.1-3.7v-7.4h-1.5V120.2z"/>
		<path class="st0" d="M116.9,112.9h-7.1v11h1.5v-4.6h5.5c1.5,0,2.8-1.3,2.8-3v0c0-0.9-0.4-1.9-1.1-2.6
			C118,113.2,117.4,112.9,116.9,112.9z M118,116.3L118,116.3c0,0.5-0.2,1-0.5,1.3c-0.2,0.2-0.4,0.3-0.6,0.3h-5.6v-3.5h5.4
			C117.3,114.4,118,115.3,118,116.3z"/>
		<path class="st0" d="M129.3,112.9h-7.1v11h1.5v-4.6h5.5c1.5,0,2.8-1.3,2.8-3c0-0.9-0.4-1.9-1.1-2.6
			C130.4,113.2,129.9,112.9,129.3,112.9z M130.4,116.3L130.4,116.3c0,0.5-0.2,1-0.5,1.3c-0.2,0.2-0.4,0.3-0.6,0.3h-5.6v-3.5h5.4
			C129.8,114.4,130.4,115.3,130.4,116.3z"/>
		<path class="st0" d="M139.7,124c1.8,0,3.6-0.7,4.7-1.9c1-1,1.5-2.3,1.5-3.8c0-3.9-3.3-5.7-6.3-5.7c-1.7,0-3.4,0.7-4.6,1.9
			c-1,1-1.6,2.4-1.6,3.8C133.5,121.4,136.4,124,139.7,124z M135.1,118.4c0-2.3,2.5-4.1,4.6-4.1c0,0,0,0,0.1,0c1.3,0,2.6,0.5,3.5,1.4
			c0.7,0.7,1.1,1.7,1.1,2.7c0,1.1-0.4,2-1.2,2.8c-0.9,0.9-2.2,1.4-3.5,1.4c0,0,0,0,0,0C137.1,122.6,135.1,120.7,135.1,118.4z"/>
		<path class="st0" d="M74.8,119.4h3.9v1.9c-0.3,0.2-1.5,1.2-3.6,1.2c-2.9,0-4.7-1.6-4.7-4.2c0-2.4,1.8-4,4.5-4c0,0,0.1,0,0.1,0
			c2.2,0,3.9,1.3,3.9,1.3l0.2,0.1l1-1.1l-0.2-0.1c-1.7-1.2-3.3-1.8-4.9-1.8c-1.8,0-3.5,0.6-4.7,1.8c-1.1,1-1.6,2.4-1.6,3.8
			c0,3.5,2.4,5.7,6.3,5.7c3.5,0,5.1-2,5.2-2.1l0-0.1V118h-5.4V119.4z"/>
	</g>
	<g>
		<g>
			<polygon class="st1" points="108.3,13.4 116.8,38.5 143.6,38.5 121.1,53.9 129.7,78.9 108.2,63.3 84.9,78.9 93.7,53.9 71.1,38.5 
				99.8,38.5 			"/>
			<polygon class="st2" points="108.3,21.8 114.8,41.1 135.1,41.1 117.9,52.9 124.5,72.1 108.2,60.1 90.1,72.1 96.8,52.9 79.5,41.1 
				101.8,41.1 			"/>
			<polygon class="st1" points="108.3,26 113.8,42.4 131,42.4 116.3,52.4 121.9,68.7 108.2,58.6 92.7,68.7 98.4,52.4 83.7,42.4 
				102.8,42.4 			"/>
		</g>
	</g>
	<g>
		<path class="st0" d="M19.6,94.1c0-0.6,0.4-1.5,2.4-1.5c2,0,3.5,0.9,3.5,0.9l-0.3-4c-0.2,0.2-0.6,0.4-0.9,0.3
			c-0.7-0.1-1.6-0.3-2.7-0.3c-4.2,0-6.1,2.5-6.1,4.8c0,4.4,6.7,4.8,6.8,7.9c0,1.2-1.2,1.8-2.4,1.8c-2.8,0-4.7-1.3-4.7-1.3l0.5,4
			c0.3-0.1,0.7-0.2,1-0.1c0.9,0.2,2.3,0.5,3.7,0.5c4,0,6.2-2.2,6.1-4.9C26.4,96.5,19.6,96.7,19.6,94.1z"/>
		<path class="st0" d="M161.3,91.4l0,15.4h3.9V89.8h-4.5C160.7,89.8,161.3,90.2,161.3,91.4z"/>
		<path class="st0" d="M158,95.4c0-3.1-2.5-5.6-5.6-5.6h-8.1c0,0,0.7,0.5,0.7,1.2v15.7h3.7l0-5.8h2.3l3.3,5.8h4.1l-3.6-6.4
			C156.7,99.5,158,97.6,158,95.4z M148.7,93.5h3.4c1.1,0,1.9,0.9,1.9,1.9c0,1.1-0.9,1.9-1.9,1.9h-3.4V93.5z"/>
		<path class="st0" d="M138.8,98.2c0,0.4,0,2.8,0,2.8s-1.4,2.3-3.6,2.3c-1.8,0-4.4-1.7-4.4-4.9s2.3-5,4.4-5s3.3,1.4,3.3,1.4l1.7-3.4
			c0,0-1.9-2-5.2-2c-4.3,0-7.9,3.5-7.9,8.8s4,8.8,7.9,8.8c3.9,0,5.2-2.4,7.3-4.5l0-5.2h-4.2C138.2,97.5,138.8,97.8,138.8,98.2z"/>
		<path class="st0" d="M191.6,89.5c-4.4,0-8,3.9-8,8.8c0,4.9,3.6,8.8,8,8.8s8-3.9,8-8.8C199.6,93.4,196,89.5,191.6,89.5z
			 M191.6,103.1c-2.1,0-3.8-2-3.8-4.8c0-2.7,1.7-4.8,3.8-4.8s3.8,2,3.8,4.8C195.4,101,193.7,103.1,191.6,103.1z"/>
		<path class="st0" d="M177.8,98.8l-5-9h-4.9c0,0,0.7,0.3,0.7,1.5l0,15.4h3.6V96.2l5.7,10.6l3.5,0V89.8l-3.6,0V98.8z"/>
		<path class="st0" d="M118.5,100h5v-3.6h-5v-2.9l6.5,0l-0.9-3.6l-9.8,0c0,0,0.7,0.3,0.7,1.5l0,15.4h9.7l0.9-3.8l-7.1,0V100z"/>
		<path class="st0" d="M54.1,98.8l-5-9h-4.9c0,0,0.7,0.3,0.7,1.5l0,15.4h3.6V96.2l5.7,10.6l3.5,0V89.8l-3.6,0V98.8z"/>
		<path class="st0" d="M105.8,89.8h-4.6c0,0,0.7,0.4,0.7,1.6v15.4h9.7l0.9-3.8l-6.8,0V89.8z"/>
		<path class="st0" d="M31.5,89.8c0,0,0.9,0.5,0.6,1.5l-4.5,15.4H31l1.1-4h5.3l1.3,4h4.1l-5.5-16.9H31.5z M33,99.6l1.6-5.4l1.8,5.4
			H33z"/>
		<path class="st0" d="M68.2,89.8h-8.1c0,0,0.7,0.3,0.7,1.5v15.4h3.7l0-5.8h3.7c3.1,0,5.6-2.5,5.6-5.6
			C73.8,92.3,71.3,89.8,68.2,89.8z M68,97.4h-3.4v-3.9H68c1.1,0,1.9,0.9,1.9,1.9C69.9,96.5,69,97.4,68,97.4z"/>
		<path class="st0" d="M92.9,89.8h-4.6c0,0,0.7,0.4,0.7,1.6v15.4h9.7l0.9-3.8l-6.8,0V89.8z"/>
		<path class="st0" d="M79.3,100h5v-3.6h-5v-2.9l6.5,0l-0.9-3.6l-9.8,0c0,0,0.7,0.3,0.7,1.5l0,15.4h9.7l0.9-3.8l-7.1,0V100z"/>
	</g>
</g>
</svg>
