<?xml version="1.0" encoding="utf-8"?>
<!-- Generator: Adobe Illustrator 22.0.0, SVG Export Plug-In . SVG Version: 6.00 Build 0)  -->
<svg version="1.1" id="Livello_1" xmlns="http://www.w3.org/2000/svg" xmlns:xlink="http://www.w3.org/1999/xlink" x="0px" y="0px"
	 viewBox="0 0 240 242" style="enable-background:new 0 0 240 242;" xml:space="preserve">
<style type="text/css">
	.st0{fill:none;stroke:#1D1D1B;stroke-width:0.75;stroke-miterlimit:10;}
	.st1{fill:none;stroke:#12100B;stroke-width:0.9789;stroke-miterlimit:10;}
	.st2{fill:none;stroke:#1D1D1B;stroke-miterlimit:10;}
	.st3{fill:none;stroke:#1D1D1B;stroke-miterlimit:10;stroke-dasharray:3.3404,3.3404;}
	.st4{fill:#1D1D1B;}
	.st5{opacity:0.13;}
	.st6{fill:#009C3D;}
	.st7{fill:#EE7900;}
	.st8{fill:none;stroke:#ECECEC;stroke-width:0.7403;stroke-miterlimit:10;}
	.st9{fill:#EBEAE9;}
	.st10{fill:#FFFFFF;}
	.st11{fill:#E30520;}
	.st12{fill:#00295A;}
</style>
<g>
	<line class="st0" x1="221.1" y1="157.6" x2="233.7" y2="161.8"/>
	<line class="st0" x1="111.6" y1="229.1" x2="110.4" y2="241.7"/>
	<line class="st0" x1="132.7" y1="10.5" x2="131.8" y2="20"/>
	<line class="st0" x1="183.5" y1="208.7" x2="191.6" y2="219.7"/>
	<line class="st0" x1="66.8" y1="214.1" x2="59.9" y2="224.6"/>
	<line class="st0" x1="190.5" y1="28.7" x2="183.3" y2="39.5"/>
	<line class="st0" x1="45.8" y1="197.1" x2="36.6" y2="206"/>
	<line class="st0" x1="206.4" y1="43.5" x2="197.6" y2="52"/>
	<line class="st0" x1="134.7" y1="228.8" x2="136.2" y2="240.8"/>
	<line class="st1" x1="26.9" y1="170" x2="15.2" y2="175.6"/>
	<line class="st1" x1="228" y1="73.6" x2="216.4" y2="79.2"/>
	<line class="st1" x1="17.7" y1="139.7" x2="7.7" y2="141.2"/>
	<line class="st1" x1="238" y1="107.6" x2="225.4" y2="109.4"/>
	<g>
		<g>
			<path class="st2" d="M133.3,6.4c0.6,0.1,1.1,0.1,1.7,0.2"/>
			<path class="st3" d="M138.2,7c52.6,7.6,95.2,50.4,100.4,105.7c6.1,64.9-41.6,122.4-106.4,128.4c-57.5,5.4-109.3-31.5-124.5-85.1"
				/>
			<path class="st2" d="M7.2,154.4c-0.1-0.5-0.3-1.1-0.4-1.6"/>
		</g>
	</g>
	<circle class="st4" cx="133.3" cy="6.4" r="6.1"/>
	<polygon class="st4" points="6.6,151.9 0.9,155.4 4.1,143.3 13.3,151.7 	"/>
	<path class="st0" d="M153.2,221.5"/>
	<g class="st5">
		<g>
			<path class="st6" d="M121.7,30.5c51.9,0,94,42.2,94,94s-42.2,94-94,94s-94-42.2-94-94S69.8,30.5,121.7,30.5 M121.7,19.5
				c-58,0-105,47-105,105c0,58,47,105,105,105s105-47,105-105C226.7,66.5,179.7,19.5,121.7,19.5L121.7,19.5z"/>
		</g>
	</g>
	<g class="st5">
		<g>
			<path class="st7" d="M121.7,41.3c45.9,0,83.3,37.4,83.3,83.3c0,45.9-37.4,83.3-83.3,83.3s-83.3-37.4-83.3-83.3
				C38.4,78.6,75.7,41.3,121.7,41.3 M121.7,30.4c-52,0-94.1,42.1-94.1,94.1c0,52,42.1,94.1,94.1,94.1s94.1-42.1,94.1-94.1
				C215.8,72.6,173.7,30.4,121.7,30.4L121.7,30.4z"/>
		</g>
	</g>
	<g>
		<g>
			<line class="st8" x1="175.3" y1="69" x2="68" y2="172.4"/>
			<line class="st8" x1="173.4" y1="174.4" x2="70" y2="67"/>
			<line class="st8" x1="163.3" y1="58.9" x2="80.1" y2="182.5"/>
			<line class="st8" x1="183.5" y1="162.3" x2="59.8" y2="79.1"/>
			<line class="st8" x1="194.9" y1="106.6" x2="48.5" y2="134.8"/>
			<line class="st8" x1="135.8" y1="193.9" x2="107.6" y2="47.5"/>
			<line class="st8" x1="196.2" y1="120.3" x2="47.2" y2="119.5"/>
			<line class="st8" x1="120.5" y1="195.2" x2="122.8" y2="46.2"/>
			<line class="st8" x1="172.9" y1="87.5" x2="70.5" y2="153.9"/>
			<line class="st8" x1="154.9" y1="171.9" x2="88.5" y2="69.5"/>
			<line class="st8" x1="181.4" y1="133.1" x2="61.9" y2="108.3"/>
			<line class="st8" x1="109.3" y1="180.4" x2="134" y2="61"/>
			<line class="st8" x1="177.5" y1="145.3" x2="65.8" y2="96.1"/>
			<line class="st8" x1="97.1" y1="176.6" x2="146.2" y2="64.8"/>
			<line class="st8" x1="178.5" y1="98.5" x2="64.8" y2="142.9"/>
			<line class="st8" x1="143.8" y1="177.5" x2="99.5" y2="63.9"/>
		</g>
		<g>
			<polygon class="st9" points="122.3,61.3 137.8,107.1 186.7,107 145.6,135.1 161.4,180.8 122,152.4 79.6,180.8 95.6,135.2 
				54.3,107 106.8,107.1 			"/>
			<polygon class="st10" points="122.3,76.6 134.2,111.8 171.3,111.8 139.8,133.3 151.9,168.3 122,146.5 89.1,168.3 101.2,133.3 
				69.7,111.8 110.4,111.8 			"/>
			<polygon class="st9" points="122.7,83.9 132.8,113.8 164.1,113.8 137.3,132.1 147.6,161.9 122.5,143.3 94.3,161.9 104.6,132.1 
				77.8,113.8 112.6,113.8 			"/>
		</g>
	</g>
	<g>
		<g>
			<polygon class="st11" points="122.3,76.7 128.2,93.9 146.5,93.9 131.1,104.4 137,121.6 122.2,110.9 106.3,121.6 112.3,104.5 
				96.8,93.9 116.5,93.9 			"/>
			<polygon class="st10" points="122.3,82.5 126.8,95.6 140.7,95.7 128.9,103.7 133.5,116.9 122.2,108.7 109.9,116.9 114.4,103.7 
				102.6,95.7 117.9,95.6 			"/>
			<polygon class="st11" points="122.3,85.3 126.1,96.5 137.9,96.5 127.8,103.4 131.7,114.6 122.2,107.6 111.7,114.6 115.5,103.4 
				105.5,96.5 118.5,96.5 			"/>
		</g>
		<g>
			<g>
				<path class="st12" d="M112.1,147.1c0-1.2-1-2.2-2.2-2.2H105v7.5h1.1v-3.1h2.8l2.1,3.1h1.2l-2.1-3.1
					C111.4,149,112.1,148.3,112.1,147.1z M110.6,148c-0.2,0.2-0.5,0.3-0.8,0.3H106v-2.4h3.9c0.8,0,1.1,0.7,1.1,1.2v0
					C111,147.4,110.8,147.8,110.6,148z"/>
				<path class="st12" d="M119.7,149.8c0,1.1-1.2,1.6-2.4,1.6c-1.2,0-2.3-0.6-2.3-1.6v-5h-1v5.1c0,0.6,0.2,1.2,0.7,1.7
					c0.6,0.6,1.5,0.9,2.6,0.9c0,0,0,0,0.1,0c2.3,0,3.5-0.9,3.5-2.5v-5.1h-1V149.8z"/>
				<path class="st12" d="M128.2,144.9h-4.9v7.5h1.1v-3.1h3.7c1,0,1.9-0.9,1.9-2.1v0c0-0.6-0.3-1.3-0.7-1.8
					C129,145.1,128.6,144.9,128.2,144.9z M129,147.2L129,147.2c0,0.3-0.1,0.7-0.4,0.9c-0.1,0.1-0.3,0.2-0.4,0.2h-3.8v-2.4h3.7
					C128.5,145.9,129,146.5,129,147.2z"/>
				<path class="st12" d="M136.7,144.9h-4.9v7.5h1.1v-3.1h3.7c1,0,1.9-0.9,1.9-2.1c0-0.6-0.3-1.3-0.7-1.8
					C137.5,145.1,137.1,144.9,136.7,144.9z M137.5,147.2L137.5,147.2c0,0.3-0.1,0.7-0.4,0.9c-0.1,0.1-0.3,0.2-0.4,0.2h-3.8v-2.4h3.7
					C137.1,145.9,137.5,146.5,137.5,147.2z"/>
				<path class="st12" d="M143.8,152.5c1.3,0,2.4-0.5,3.3-1.3c0.7-0.7,1.1-1.6,1.1-2.6c0-2.7-2.2-3.9-4.3-3.9
					c-1.2,0-2.3,0.5-3.2,1.3c-0.7,0.7-1.1,1.6-1.1,2.6C139.6,150.7,141.6,152.5,143.8,152.5z M140.7,148.6c0-1.6,1.7-2.8,3.1-2.8
					c0,0,0,0,0,0c0.9,0,1.8,0.4,2.4,1c0.5,0.5,0.8,1.1,0.8,1.8c0,0.7-0.3,1.4-0.8,1.9c-0.6,0.6-1.5,1-2.4,1c0,0,0,0,0,0
					C142.1,151.5,140.7,150.2,140.7,148.6z"/>
				<path class="st12" d="M99.4,149.3h2.6v1.3c-0.2,0.2-1,0.8-2.5,0.8c-2,0-3.2-1.1-3.2-2.9c0-1.6,1.2-2.7,3.1-2.8c0,0,0.1,0,0.1,0
					c1.5,0,2.7,0.9,2.7,0.9l0.1,0.1l0.7-0.8l-0.1-0.1c-1.2-0.8-2.2-1.2-3.3-1.2c-1.2,0-2.4,0.4-3.2,1.2c-0.7,0.7-1.1,1.6-1.1,2.6
					c0,2.4,1.7,3.9,4.3,3.9c2.4,0,3.5-1.4,3.5-1.5l0,0v-2.6h-3.7V149.3z"/>
			</g>
			<g>
				<path class="st12" d="M61.6,131.9c0-0.4,0.3-1,1.6-1c1.3,0,2.4,0.6,2.4,0.6l-0.2-2.7c-0.2,0.2-0.4,0.2-0.6,0.2
					c-0.5-0.1-1.1-0.2-1.9-0.2c-2.9,0-4.2,1.7-4.2,3.3c0,3,4.6,3.3,4.6,5.4c0,0.8-0.8,1.2-1.7,1.2c-1.9,0-3.2-0.9-3.2-0.9l0.3,2.7
					c0.2-0.1,0.5-0.1,0.7-0.1c0.6,0.2,1.5,0.4,2.5,0.4c2.7,0,4.2-1.5,4.2-3.3C66.2,133.7,61.6,133.7,61.6,131.9z"/>
				<path class="st12" d="M158.7,130.1l0,10.5h2.6v-11.6h-3.1C158.2,129.1,158.7,129.3,158.7,130.1z"/>
				<path class="st12" d="M156.4,132.9c0-2.1-1.7-3.8-3.8-3.8H147c0,0,0.5,0.3,0.5,0.8v10.8h2.5l0-4h1.5l2.3,4h2.8l-2.4-4.4
					C155.5,135.7,156.4,134.4,156.4,132.9z M150,131.5h2.3c0.7,0,1.3,0.6,1.3,1.3c0,0.7-0.6,1.3-1.3,1.3H150V131.5z"/>
				<path class="st12" d="M143.2,134.8c0,0.3,0,1.9,0,1.9s-1,1.6-2.5,1.6c-1.2,0-3-1.2-3-3.4c0-2.2,1.6-3.4,3-3.4c1.4,0,2.2,1,2.2,1
					l1.2-2.3c0,0-1.3-1.4-3.5-1.4c-2.9,0-5.4,2.4-5.4,6c0,3.7,2.8,6.1,5.4,6.1s3.6-1.6,5-3.1l0-3.5h-2.9
					C142.8,134.3,143.2,134.5,143.2,134.8z"/>
				<path class="st12" d="M179.4,128.8c-3,0-5.5,2.7-5.5,6c0,3.3,2.4,6,5.5,6c3,0,5.5-2.7,5.5-6
					C184.9,131.5,182.5,128.8,179.4,128.8z M179.4,138.1c-1.4,0-2.6-1.4-2.6-3.3s1.2-3.3,2.6-3.3c1.4,0,2.6,1.4,2.6,3.3
					S180.9,138.1,179.4,138.1z"/>
				<path class="st12" d="M170,135.2l-3.5-6.1h-3.4c0,0,0.5,0.2,0.5,1.1l0,10.5h2.4v-7.2l3.9,7.2l2.4,0v-11.6l-2.4,0V135.2z"/>
				<path class="st12" d="M129.3,136h3.5v-2.5h-3.5v-2l4.5,0l-0.6-2.5l-6.7,0c0,0,0.5,0.2,0.5,1.1l0,10.6h6.7l0.6-2.6l-4.9,0V136z"
					/>
				<path class="st12" d="M85.2,135.2l-3.5-6.1h-3.4c0,0,0.5,0.2,0.5,1.1l0,10.5h2.4v-7.2l3.9,7.2l2.4,0v-11.6l-2.4,0V135.2z"/>
				<path class="st12" d="M120.7,129.1h-3.1c0,0,0.5,0.2,0.5,1.1v10.5h6.7l0.6-2.6l-4.6,0V129.1z"/>
				<path class="st12" d="M69.7,129.1c0,0,0.6,0.3,0.4,1l-3.1,10.6h2.3l0.8-2.7h3.6l0.9,2.7h2.8l-3.8-11.6H69.7z M70.8,135.7
					l1.1-3.7l1.2,3.7H70.8z"/>
				<path class="st12" d="M94.9,129.1h-5.5c0,0,0.5,0.2,0.5,1.1v10.5h2.5l0-4h2.5c2.1,0,3.8-1.7,3.8-3.8
					C98.7,130.8,97,129.1,94.9,129.1z M94.7,134.2h-2.3v-2.7h2.3c0.7,0,1.3,0.6,1.3,1.3C96,133.6,95.4,134.2,94.7,134.2z"/>
				<path class="st12" d="M111.8,129.1h-3.1c0,0,0.5,0.2,0.5,1.1v10.5h6.7l0.6-2.6l-4.6,0V129.1z"/>
				<path class="st12" d="M102.5,136h3.5v-2.5h-3.5v-2l4.5,0l-0.6-2.5l-6.7,0c0,0,0.5,0.2,0.5,1.1l0,10.6h6.7l0.6-2.6l-4.9,0V136z"
					/>
			</g>
		</g>
	</g>
	<g class="st5">
		<path class="st12" d="M121.7,51.6c40.2,0,73,32.7,73,73s-32.7,73-73,73s-73-32.7-73-73S81.4,51.6,121.7,51.6 M121.7,40.6
			c-46.4,0-84,37.6-84,84s37.6,84,84,84c46.4,0,84-37.6,84-84S168.1,40.6,121.7,40.6L121.7,40.6z"/>
	</g>
</g>
</svg>
