<?xml version="1.0" encoding="utf-8"?>
<!-- Generator: Adobe Illustrator 22.0.0, SVG Export Plug-In . SVG Version: 6.00 Build 0)  -->
<svg version="1.1" id="Livello_1" xmlns="http://www.w3.org/2000/svg" xmlns:xlink="http://www.w3.org/1999/xlink" x="0px" y="0px"
	 viewBox="0 0 395 41" style="enable-background:new 0 0 395 41;" xml:space="preserve">
<style type="text/css">
	.st0{fill:#FF322B;}
	.st1{fill:#00245B;}
</style>
<g>
	<path class="st0" d="M213.5,4.9c-1,0-1.9,0.3-2.6,0.8c-0.6-1.9-2.4-3.2-4.4-3.2c-1,0-1.9,0.3-2.6,0.8c-0.6-1.9-2.4-3.2-4.4-3.2
		s-3.8,1.3-4.4,3.2c-0.7-0.5-1.7-0.8-2.6-0.8c-2.6,0-4.7,2.2-4.7,4.8v5.5l-2.3,2.3c-1.6,1.6-2.4,3.7-2.4,6v3.6c0,2.3,0.9,4.4,2.4,6
		l4.7,4.8c3.4,3.5,8,5.5,12.9,5.5c8.4,0,15.3-7,15.3-15.6V9.7C218.3,7,216.1,4.9,213.5,4.9z M215.9,25.3c0,7.3-5.8,13.2-13,13.2
		c-4.2,0-8.2-1.7-11.2-4.8L187,29c-1.1-1.1-1.7-2.7-1.7-4.3v-3.6c0-1.6,0.6-3.1,1.7-4.3l0.6-0.6v1.9c0,0.7,0.5,1.2,1.2,1.2
		c0.7,0,1.2-0.5,1.2-1.2v-4.8c0,0,0,0,0,0v-6c0-1.3,1.1-2.4,2.4-2.4s2.4,1.1,2.4,2.4v3.6c0,0.7,0.5,1.2,1.2,1.2
		c0.6,0,1.2-0.5,1.2-1.2v-6c0-1.3,1.1-2.4,2.4-2.4c1.3,0,2.4,1.1,2.4,2.4v6c0,0.7,0.5,1.2,1.2,1.2s1.2-0.5,1.2-1.2V7.3
		c0-1.3,1.1-2.4,2.4-2.4c1.3,0,2.4,1.1,2.4,2.4v3.6c0,0.7,0.5,1.2,1.2,1.2c0.6,0,1.2-0.5,1.2-1.2V9.7c0-1.3,1.1-2.4,2.4-2.4
		c1.3,0,2.4,1.1,2.4,2.4V25.3z"/>
	<g>
		<rect x="0.3" y="19.5" class="st1" width="148.8" height="2"/>
	</g>
	<g>
		<rect x="245.9" y="19.5" class="st1" width="148.8" height="2"/>
	</g>
</g>
</svg>
