<?xml version="1.0" encoding="utf-8"?>
<!-- Generator: Adobe Illustrator 22.0.0, SVG Export Plug-In . SVG Version: 6.00 Build 0)  -->
<svg version="1.1" baseProfile="basic" id="Livello_1"
	 xmlns="http://www.w3.org/2000/svg" xmlns:xlink="http://www.w3.org/1999/xlink" x="0px" y="0px" viewBox="0 0 444 462"
	 xml:space="preserve">
<style type="text/css">
	.st0{fill:none;stroke:#1D1D1B;stroke-miterlimit:10;}
	.st1{fill:none;stroke:#1D1D1B;stroke-miterlimit:10;stroke-dasharray:3.3312,3.3312;}
	.st2{fill:#1D1D1B;}
	.st3{fill:none;stroke:#1D1D1B;stroke-width:0.75;stroke-miterlimit:10;}
	.st4{fill:none;stroke:#F6CB37;stroke-miterlimit:10;}
	.st5{fill:none;stroke:#AC9EAD;stroke-miterlimit:10;}
	.st6{fill:none;stroke:#82C3E3;stroke-miterlimit:10;}
	.st7{fill:none;stroke:#B4CC6F;stroke-miterlimit:10;}
	.st8{fill:none;stroke:#D9C086;stroke-miterlimit:10;}
	.st9{fill:none;stroke:#12100B;stroke-width:0.9789;stroke-miterlimit:10;}
	.st10{fill:#009C3D;}
	.st11{fill:#EE7900;}
	.st12{fill:none;stroke:#ECECEC;stroke-width:0.7403;stroke-miterlimit:10;}
	.st13{fill:#EBEAE9;}
	.st14{fill:#FFFFFF;}
	.st15{fill:#E30520;}
	.st16{fill:#00295A;}
	.st17{fill:none;stroke:#1D1D1B;stroke-miterlimit:10;stroke-dasharray:3.3404,3.3404;}
</style>
<g>
	<g>
		<path class="st0" d="M424,353.4c-0.3,0.5-0.6,0.9-0.9,1.4"/>
		<path class="st1" d="M421.4,357.6c-57.4,88.2-170.2,127.9-272.7,89.3C30.2,402.3-29.7,270.1,14.9,151.7
			C54.8,45.6,165-13.5,272.6,7.3"/>
		<path class="st0" d="M274.3,7.6c0.5,0.1,1.1,0.2,1.6,0.3"/>
	</g>
	<circle class="st2" cx="424" cy="353.4" r="7"/>
	<polygon class="st2" points="278,8.4 277.2,0.4 288.6,10.1 274.7,15.6 	"/>
	<circle class="st3" cx="228.6" cy="232.6" r="209.3"/>
	<path class="st4" d="M89.5,132.6c14-19.4,32-35.8,52.7-48c25.4-14.9,54.9-23.4,86.5-23.4c19.1,0,37.4,3.1,54.5,8.8"/>
	<path class="st5" d="M91.3,335.1c-21.4-28.6-34-64.1-34-102.5c0-37.3,11.9-71.9,32.2-100"/>
	<path class="st6" d="M281.7,395.6c-16.7,5.4-34.5,8.4-53,8.4c-56.2,0-106.1-27-137.3-68.8"/>
	<path class="st7" d="M400,231.7c0,0.3,0,0.6,0,0.9c0,37.3-11.9,71.9-32.2,100c-21.1,29.3-51.2,51.6-86.2,63"/>
	<path class="st8" d="M283.1,70.1c67.7,22.7,116.5,86.4,116.9,161.7"/>
	<line class="st3" x1="129.7" y1="230.4" x2="57.3" y2="229.8"/>
	<line class="st3" x1="443.8" y1="232" x2="329.2" y2="231.4"/>
	<line class="st3" x1="324.1" y1="264.3" x2="340.7" y2="269.9"/>
	<line class="st3" x1="297.1" y1="28.6" x2="257.9" y2="145.5"/>
	<line class="st3" x1="219.3" y1="329.5" x2="217.3" y2="349.8"/>
	<line class="st3" x1="239.6" y1="118.5" x2="238.5" y2="130.3"/>
	<line class="st3" x1="310.7" y1="291.5" x2="403.4" y2="358.2"/>
	<line class="st3" x1="53.9" y1="107" x2="145.4" y2="172.8"/>
	<line class="st3" x1="286.3" y1="311" x2="298.6" y2="327.8"/>
	<line class="st3" x1="260.2" y1="329.5" x2="295.1" y2="436.9"/>
	<line class="st3" x1="175.6" y1="69.6" x2="197.4" y2="136.6"/>
	<line class="st3" x1="175.8" y1="319.1" x2="166.9" y2="332.6"/>
	<line class="st3" x1="297.5" y1="136.8" x2="287.1" y2="152.4"/>
	<line class="st3" x1="164.7" y1="293.7" x2="143.5" y2="314"/>
	<line class="st3" x1="313.4" y1="151.6" x2="299.9" y2="164.5"/>
	<line class="st3" x1="197.4" y1="326.7" x2="174.5" y2="395.6"/>
	<line class="st3" x1="240.8" y1="329.5" x2="243.2" y2="348.8"/>
	<line class="st9" x1="140.2" y1="275" x2="122.1" y2="283.6"/>
	<line class="st9" x1="334.9" y1="181.7" x2="320.4" y2="188.6"/>
	<line class="st3" x1="143.5" y1="296.1" x2="55.9" y2="361.4"/>
	<line class="st3" x1="366" y1="130.1" x2="309.7" y2="172.2"/>
	<line class="st9" x1="128.1" y1="247.3" x2="114.7" y2="249.2"/>
	<line class="st9" x1="345" y1="215.6" x2="328.6" y2="218"/>
	<circle class="st2" cx="240.2" cy="114.4" r="6.1"/>
	<polygon class="st2" points="113.5,259.9 107.9,263.4 111,251.4 120.2,259.8 	"/>
	<path class="st3" d="M260.2,329.5"/>
	<g>
		<path class="st10" d="M228.6,138.6c51.9,0,94,42.2,94,94s-42.2,94-94,94s-94-42.2-94-94S176.8,138.6,228.6,138.6 M228.6,127.6
			c-58,0-105,47-105,105s47,105,105,105s105-47,105-105S286.7,127.6,228.6,127.6L228.6,127.6z"/>
	</g>
	<g>
		<path class="st11" d="M228.6,149.3c45.9,0,83.3,37.4,83.3,83.3s-37.4,83.3-83.3,83.3c-45.9,0-83.3-37.4-83.3-83.3
			S182.7,149.3,228.6,149.3 M228.6,138.5c-52,0-94.1,42.1-94.1,94.1s42.1,94.1,94.1,94.1s94.1-42.1,94.1-94.1
			S280.6,138.5,228.6,138.5L228.6,138.5z"/>
	</g>
	<g>
		<g>
			<line class="st12" x1="282.3" y1="177" x2="175" y2="280.4"/>
			<line class="st12" x1="280.4" y1="282.4" x2="176.9" y2="175.1"/>
			<line class="st12" x1="270.2" y1="166.9" x2="187.1" y2="290.6"/>
			<line class="st12" x1="290.5" y1="270.3" x2="166.8" y2="187.1"/>
			<line class="st12" x1="301.8" y1="214.6" x2="155.5" y2="242.9"/>
			<line class="st12" x1="242.8" y1="301.9" x2="214.5" y2="155.6"/>
			<line class="st12" x1="303.2" y1="228.4" x2="154.1" y2="227.6"/>
			<line class="st12" x1="227.5" y1="303.3" x2="229.8" y2="154.2"/>
			<line class="st12" x1="279.8" y1="195.5" x2="177.5" y2="262"/>
			<line class="st12" x1="261.9" y1="279.9" x2="195.4" y2="177.6"/>
			<line class="st12" x1="288.4" y1="241.1" x2="168.9" y2="216.4"/>
			<line class="st12" x1="216.3" y1="288.5" x2="241" y2="169"/>
			<line class="st12" x1="284.5" y1="253.3" x2="172.8" y2="204.2"/>
			<line class="st12" x1="204.1" y1="284.6" x2="253.2" y2="172.9"/>
			<line class="st12" x1="285.5" y1="206.6" x2="171.8" y2="250.9"/>
			<line class="st12" x1="250.8" y1="285.6" x2="206.5" y2="171.9"/>
		</g>
		<g>
			<polygon class="st13" points="229.3,169.3 244.8,215.1 293.6,215.1 252.6,243.1 268.4,288.8 229,260.4 186.6,288.8 202.6,243.3 
				161.3,215.1 213.8,215.1 			"/>
			<polygon class="st14" points="229.3,184.7 241.2,219.8 278.2,219.8 246.8,241.3 258.8,276.4 229,254.6 196.1,276.4 208.2,241.3 
				176.7,219.8 217.4,219.8 			"/>
			<polygon class="st13" points="229.7,192 239.8,221.8 271.1,221.9 244.3,240.1 254.6,269.9 229.4,251.4 201.2,269.9 211.6,240.1 
				184.8,221.9 219.6,221.8 			"/>
		</g>
	</g>
	<g>
		<g>
			<polygon class="st15" points="229.3,184.7 235.2,201.9 253.5,201.9 238.1,212.4 244,229.6 229.2,218.9 213.3,229.6 219.3,212.5 
				203.8,201.9 223.5,201.9 			"/>
			<polygon class="st14" points="229.3,190.5 233.8,203.7 247.7,203.7 235.9,211.8 240.4,224.9 229.2,216.7 216.9,224.9 
				221.4,211.8 209.6,203.7 224.9,203.7 			"/>
			<polygon class="st15" points="229.3,193.3 233.1,204.6 244.9,204.6 234.8,211.4 238.7,222.6 229.2,215.7 218.6,222.6 
				222.5,211.4 212.4,204.6 225.5,204.6 			"/>
		</g>
		<g>
			<g>
				<path class="st16" d="M219,255.1c0-1.2-1-2.2-2.2-2.2H212v7.5h1.1v-3.1h2.8l2.1,3.1h1.2l-2.1-3.1C218.4,257,219,256.3,219,255.1
					z M217.6,256.1c-0.2,0.2-0.5,0.3-0.8,0.3H213V254h3.9c0.8,0,1.1,0.7,1.1,1.2v0C217.9,255.5,217.8,255.8,217.6,256.1z"/>
				<path class="st16" d="M226.7,257.9c0,1.1-1.2,1.6-2.4,1.6c-1.2,0-2.3-0.6-2.3-1.6v-5h-1v5.1c0,0.6,0.2,1.2,0.7,1.7
					c0.6,0.6,1.5,0.9,2.6,0.9c0,0,0,0,0.1,0c2.3,0,3.5-0.9,3.5-2.5v-5.1h-1V257.9z"/>
				<path class="st16" d="M235.2,252.9h-4.9v7.5h1.1v-3.1h3.7c1,0,1.9-0.9,1.9-2.1v0c0-0.6-0.3-1.3-0.7-1.8
					C236,253.1,235.6,252.9,235.2,252.9z M235.9,255.2L235.9,255.2c0,0.3-0.1,0.7-0.4,0.9c-0.1,0.1-0.3,0.2-0.4,0.2h-3.8v-2.4h3.7
					C235.5,253.9,235.9,254.6,235.9,255.2z"/>
				<path class="st16" d="M243.7,252.9h-4.9v7.5h1.1v-3.1h3.7c1,0,1.9-0.9,1.9-2.1c0-0.6-0.3-1.3-0.7-1.8
					C244.5,253.1,244.1,252.9,243.7,252.9z M244.5,255.2L244.5,255.2c0,0.3-0.1,0.7-0.4,0.9c-0.1,0.1-0.3,0.2-0.4,0.2h-3.8v-2.4h3.7
					C244,253.9,244.5,254.6,244.5,255.2z"/>
				<path class="st16" d="M250.8,260.5c1.3,0,2.4-0.5,3.3-1.3c0.7-0.7,1.1-1.6,1.1-2.6c0-2.7-2.2-3.9-4.3-3.9
					c-1.2,0-2.3,0.5-3.2,1.3c-0.7,0.7-1.1,1.6-1.1,2.6C246.6,258.7,248.6,260.5,250.8,260.5z M247.7,256.7c0-1.6,1.7-2.8,3.1-2.8
					c0,0,0,0,0,0c0.9,0,1.8,0.4,2.4,1c0.5,0.5,0.8,1.1,0.8,1.8c0,0.7-0.3,1.4-0.8,1.9c-0.6,0.6-1.5,1-2.4,1c0,0,0,0,0,0
					C249.1,259.6,247.7,258.3,247.7,256.7z"/>
				<path class="st16" d="M206.4,257.3h2.6v1.3c-0.2,0.2-1,0.8-2.5,0.8c-2,0-3.2-1.1-3.2-2.9c0-1.6,1.2-2.7,3.1-2.8c0,0,0.1,0,0.1,0
					c1.5,0,2.7,0.9,2.7,0.9l0.1,0.1l0.7-0.8l-0.1-0.1c-1.2-0.8-2.2-1.2-3.3-1.2c-1.2,0-2.4,0.4-3.2,1.2c-0.7,0.7-1.1,1.6-1.1,2.6
					c0,2.4,1.7,3.9,4.3,3.9c2.4,0,3.5-1.4,3.5-1.5l0,0v-2.6h-3.7V257.3z"/>
			</g>
			<g>
				<path class="st16" d="M168.6,240c0-0.4,0.3-1,1.6-1c1.3,0,2.4,0.6,2.4,0.6l-0.2-2.7c-0.2,0.2-0.4,0.2-0.6,0.2
					c-0.5-0.1-1.1-0.2-1.9-0.2c-2.9,0-4.2,1.7-4.2,3.3c0,3,4.6,3.3,4.6,5.4c0,0.8-0.8,1.2-1.7,1.2c-1.9,0-3.2-0.9-3.2-0.9l0.3,2.7
					c0.2-0.1,0.5-0.1,0.7-0.1c0.6,0.2,1.5,0.4,2.5,0.4c2.7,0,4.2-1.5,4.2-3.3C173.2,241.7,168.6,241.8,168.6,240z"/>
				<path class="st16" d="M265.7,238.2l0,10.5h2.6v-11.6h-3.1C265.2,237.1,265.7,237.3,265.7,238.2z"/>
				<path class="st16" d="M263.4,240.9c0-2.1-1.7-3.8-3.8-3.8H254c0,0,0.5,0.3,0.5,0.8v10.8h2.5l0-4h1.5l2.3,4h2.8l-2.4-4.4
					C262.5,243.7,263.4,242.4,263.4,240.9z M257,239.6h2.3c0.7,0,1.3,0.6,1.3,1.3c0,0.7-0.6,1.3-1.3,1.3H257V239.6z"/>
				<path class="st16" d="M250.2,242.9c0,0.3,0,1.9,0,1.9s-1,1.6-2.5,1.6c-1.2,0-3-1.2-3-3.4s1.6-3.4,3-3.4s2.2,1,2.2,1l1.2-2.3
					c0,0-1.3-1.4-3.5-1.4c-2.9,0-5.4,2.4-5.4,6c0,3.7,2.8,6.1,5.4,6.1s3.6-1.6,5-3.1l0-3.5h-2.9
					C249.8,242.3,250.2,242.6,250.2,242.9z"/>
				<path class="st16" d="M286.4,236.9c-3,0-5.5,2.7-5.5,6c0,3.3,2.4,6,5.5,6s5.5-2.7,5.5-6C291.9,239.6,289.4,236.9,286.4,236.9z
					 M286.4,246.2c-1.4,0-2.6-1.4-2.6-3.3c0-1.9,1.2-3.3,2.6-3.3c1.4,0,2.6,1.4,2.6,3.3C289,244.8,287.9,246.2,286.4,246.2z"/>
				<path class="st16" d="M276.9,243.2l-3.5-6.1h-3.4c0,0,0.5,0.2,0.5,1.1l0,10.5h2.4v-7.2l3.9,7.2l2.4,0v-11.6l-2.4,0V243.2z"/>
				<path class="st16" d="M236.3,244.1h3.5v-2.5h-3.5v-2l4.5,0l-0.6-2.5l-6.7,0c0,0,0.5,0.2,0.5,1.1l0,10.6h6.7l0.6-2.6l-4.9,0
					V244.1z"/>
				<path class="st16" d="M192.2,243.2l-3.5-6.1h-3.4c0,0,0.5,0.2,0.5,1.1l0,10.5h2.4v-7.2l3.9,7.2l2.4,0v-11.6l-2.4,0V243.2z"/>
				<path class="st16" d="M227.6,237.1h-3.1c0,0,0.5,0.2,0.5,1.1v10.5h6.7l0.6-2.6l-4.6,0V237.1z"/>
				<path class="st16" d="M176.7,237.1c0,0,0.6,0.3,0.4,1l-3.1,10.6h2.3l0.8-2.7h3.6l0.9,2.7h2.8l-3.8-11.6H176.7z M177.7,243.8
					l1.1-3.7l1.2,3.7H177.7z"/>
				<path class="st16" d="M201.9,237.1h-5.5c0,0,0.5,0.2,0.5,1.1v10.5h2.5l0-4h2.5c2.1,0,3.8-1.7,3.8-3.8
					C205.7,238.8,204,237.1,201.9,237.1z M201.7,242.3h-2.3v-2.7h2.3c0.7,0,1.3,0.6,1.3,1.3S202.4,242.3,201.7,242.3z"/>
				<path class="st16" d="M218.8,237.1h-3.1c0,0,0.5,0.2,0.5,1.1v10.5h6.7l0.6-2.6l-4.6,0V237.1z"/>
				<path class="st16" d="M209.5,244.1h3.5v-2.5h-3.5v-2l4.5,0l-0.6-2.5l-6.7,0c0,0,0.5,0.2,0.5,1.1l0,10.6h6.7l0.6-2.6l-4.9,0
					V244.1z"/>
			</g>
		</g>
	</g>
	<path class="st16" d="M228.6,159.6c40.2,0,73,32.7,73,73s-32.7,73-73,73s-73-32.7-73-73S188.4,159.6,228.6,159.6 M228.6,148.6
		c-46.4,0-84,37.6-84,84s37.6,84,84,84c46.4,0,84-37.6,84-84S275,148.6,228.6,148.6L228.6,148.6z"/>
	<g>
		<path class="st14" d="M185.6,313.9c-0.7-0.4-1.9-1.4-1.4-2.3l0.3-0.6l0.9,0.5l-0.2,0.3c-0.2,0.4,0.3,0.9,0.8,1.2
			c1,0.5,2.1,0.2,2.7-0.9c0.6-1,0.2-2.3-0.7-2.8c-1-0.5-2-0.1-2-0.1l-0.1-1c0,0,1.3-0.5,2.6,0.2c1.6,0.9,2.1,2.7,1.3,4.3
			C188.9,314.1,187.1,314.7,185.6,313.9z"/>
		<path class="st14" d="M179.3,310.2c-1.5-1-1.9-2.8-1-4.3c1-1.5,2.8-1.9,4.3-1c1.5,1,1.9,2.8,0.9,4.3
			C182.6,310.7,180.8,311.2,179.3,310.2z M182.1,305.8c-0.9-0.6-2.1-0.3-2.8,0.7c-0.6,1-0.4,2.2,0.6,2.8s2.1,0.3,2.8-0.7
			C183.2,307.6,183,306.4,182.1,305.8z"/>
		<path class="st14" d="M178.4,303.5l-0.2-0.2c-0.1-0.1-0.2-0.1-0.3,0l-3.3,3.6l-0.9-0.7l0.8-3c0.1-0.4,0.3-0.8,0.3-0.8l0,0
			c0,0-0.4,0.3-0.7,0.5l-2.7,1.5l-0.9-0.7l2.7-4.1c0.1-0.1,0.1-0.2,0-0.3l-0.2-0.2l0.6-0.7l0.8,0.6c0.3,0.2,0.3,0.5,0.1,0.8
			l-1.5,2.3c-0.2,0.3-0.6,0.7-0.6,0.7l0,0c0,0,0.5-0.4,0.8-0.5l2.2-1.1l0.7,0.6l-0.6,2.4c-0.1,0.4-0.3,0.9-0.3,0.9l0,0
			c0,0,0.3-0.4,0.6-0.7l1.8-2c0.3-0.3,0.5-0.3,0.8-0.1l0.8,0.6L178.4,303.5z"/>
		<path class="st14" d="M168.8,300.9c-0.1,0.1-0.1,0.2,0,0.3l0.3,0.2l-0.6,0.7l-0.8-0.7c-0.3-0.3-0.3-0.5,0-0.8l2.2-2.4
			c0.5-0.6,0.5-1.3-0.1-1.8c-0.6-0.5-1.2-0.5-1.8,0.1l-2.2,2.4c-0.3,0.3-0.5,0.3-0.8,0l-0.8-0.7l0.6-0.7l0.3,0.2
			c0.1,0.1,0.2,0.1,0.3,0l1.9-2c0.9-1,2.2-1,3.3-0.1c1.1,1,1.1,2.3,0.2,3.3L168.8,300.9z"/>
		<path class="st14" d="M166.7,293.5l-0.2-0.3c-0.1-0.1-0.2-0.1-0.3,0l-3.6,3.3l-0.7-0.7l0.9-3.9c0.1-0.4,0.3-0.9,0.3-0.9l0,0
			c0,0-0.3,0.4-0.6,0.6l-2,1.9c-0.3,0.3-0.5,0.3-0.8,0l-0.7-0.8l0.7-0.6l0.2,0.3c0.1,0.1,0.2,0.1,0.3,0l3.6-3.3l0.7,0.7l-0.9,3.9
			c-0.1,0.4-0.3,0.9-0.3,0.9l0,0c0,0,0.3-0.4,0.6-0.6l2-1.9c0.3-0.3,0.5-0.3,0.8,0l0.7,0.8L166.7,293.5z"/>
		<path class="st14" d="M161.8,287.9l-0.4-0.5l-3.2,2.6l0.4,0.5l-0.7,0.6l-1.4-1.8l0.7-0.6l0.4,0.5l3.2-2.6l-0.4-0.5l0.7-0.6
			l1.4,1.8L161.8,287.9z"/>
		<path class="st14" d="M155,285.9l0.5,0.8c0.1,0.1,0.2,0.1,0.3,0l0.3-0.2l0.6,0.8l-0.8,0.6c-0.3,0.2-0.5,0.2-0.8-0.1l-2.4-3.4
			c-0.2-0.3-0.2-0.5,0.1-0.8l0.8-0.6l0.6,0.8l-0.3,0.2c-0.1,0.1-0.1,0.2,0,0.3l0.5,0.8l4.1-3l0.6,0.9L155,285.9z"/>
		<path class="st14" d="M149.9,282.9l-0.5-0.9l0.6-1.2l0.4,0.7L149.9,282.9z M156.3,280.6l-0.1-0.1c-0.1-0.1-0.1-0.2-0.3-0.1
			l-5.1,1.1l-0.6-1l3.2-4.1c0.1-0.1,0.1-0.2,0-0.3l-0.1-0.1l0.8-0.5l0.3,0.6c0.2,0.4,0.2,0.5,0,0.9l-0.7,0.9l1.1,1.7l1.1-0.2
			c0.4-0.1,0.6,0,0.8,0.3l0.4,0.6L156.3,280.6z M153.2,278.4l-1,1.2c-0.2,0.3-0.6,0.7-0.6,0.7l0,0c0,0,0.6-0.2,0.9-0.3l1.6-0.4
			L153.2,278.4z"/>
	</g>
	<g>
		<path class="st14" d="M181,142.7l-0.5,0.3l-0.4-0.8l2.5-1.3c1-0.5,2.1-0.2,2.6,0.9s0.2,2.1-0.8,2.6l-1,0.5l0.9,1.9l-1,0.5
			L181,142.7z M183.7,143.6c0.6-0.3,0.7-0.8,0.4-1.4c-0.3-0.6-0.8-0.7-1.3-0.5l-0.8,0.4l0.9,1.8L183.7,143.6z"/>
		<path class="st14" d="M187.7,144l0.6-0.2l-1.7-3.8l-0.6,0.2l-0.4-0.9l2.1-0.9l0.4,0.9l-0.6,0.2l1.7,3.8l0.6-0.2l0.4,0.9l-2.1,0.9
			L187.7,144z"/>
		<path class="st14" d="M190.9,142.5l0.1,0c0.1-0.1,0.2-0.1,0.2-0.3l-0.1-5.2l1.1-0.4l3.4,3.9c0.1,0.1,0.2,0.1,0.3,0.1l0.1,0
			l0.3,0.9l-0.6,0.2c-0.4,0.2-0.6,0.1-0.8-0.2l-0.7-0.8l-1.9,0.7l0,1.1c0,0.4-0.1,0.6-0.5,0.7l-0.6,0.2L190.9,142.5z M193.7,139.8
			l-1-1.2c-0.2-0.3-0.5-0.8-0.5-0.8l0,0c0,0,0.1,0.6,0.1,0.9l0.1,1.6L193.7,139.8z"/>
		<path class="st14" d="M197.2,140.1l0.3-0.1c0.1,0,0.2-0.1,0.1-0.2l-1.4-4.7l1-0.3l3.2,2.5c0.3,0.3,0.7,0.7,0.7,0.7l0,0
			c0,0-0.2-0.5-0.3-0.8l-0.8-2.6c-0.1-0.4,0-0.6,0.4-0.7l1-0.3l0.3,0.9l-0.3,0.1c-0.1,0-0.2,0.1-0.1,0.2l1.4,4.7l-1,0.3l-3.2-2.5
			c-0.3-0.3-0.7-0.7-0.7-0.7l0,0c0,0,0.2,0.5,0.3,0.8l0.8,2.6c0.1,0.4,0,0.6-0.4,0.7l-1,0.3L197.2,140.1z"/>
		<path class="st14" d="M203.9,133.9l-0.5,0.1l-0.2-0.9l3.5-0.8c0.4-0.1,0.6,0,0.7,0.4l0.2,0.9l-1,0.2l-0.1-0.4
			c0-0.1-0.1-0.2-0.2-0.1l-1.3,0.3l0.4,1.5l1.9-0.4l0.2,0.9l-1.9,0.4l0.3,1.4c0,0.1,0.1,0.2,0.2,0.1l1.4-0.3c0.1,0,0.2-0.1,0.1-0.2
			l-0.1-0.4l1-0.2l0.2,0.9c0.1,0.4,0,0.6-0.4,0.7l-2.7,0.6c-0.4,0.1-0.6,0-0.7-0.4L203.9,133.9z"/>
		<path class="st14" d="M211,132.4l-0.9,0.2c-0.1,0-0.2,0.1-0.2,0.2l0.1,0.4l-1,0.2l-0.2-0.9c-0.1-0.4,0-0.6,0.4-0.6l4.1-0.7
			c0.4-0.1,0.6,0.1,0.6,0.4l0.2,0.9l-1,0.2l-0.1-0.4c0-0.1-0.1-0.2-0.2-0.2l-0.9,0.2l0.9,5l-1.1,0.2L211,132.4z"/>
		<path class="st14" d="M215.2,135.9l0.1,0c0.1,0,0.2-0.1,0.2-0.2l1.3-5.1l1.2-0.1l2.3,4.7c0.1,0.1,0.1,0.2,0.3,0.2l0.1,0l0.1,0.9
			l-0.7,0.1c-0.4,0-0.6,0-0.8-0.4l-0.5-1l-2,0.2l-0.3,1.1c-0.1,0.4-0.2,0.5-0.6,0.6l-0.7,0.1L215.2,135.9z M218.5,134l-0.7-1.4
			c-0.1-0.3-0.3-0.9-0.3-0.9l0,0c0,0-0.1,0.6-0.1,0.9l-0.4,1.6L218.5,134z"/>
	</g>
	<g>
		<path class="st0" d="M240.2,114.4c0.6,0.1,1.1,0.1,1.7,0.2"/>
		<path class="st17" d="M245.2,115.1c52.6,7.6,95.2,50.4,100.4,105.7c6.1,64.9-41.6,122.4-106.4,128.4
			c-57.5,5.4-109.3-31.5-124.5-85.1"/>
		<path class="st0" d="M114.2,262.5c-0.1-0.5-0.3-1.1-0.4-1.6"/>
	</g>
	<g>
		<path class="st14" d="M286.3,182.3l0.4,0.5l3.2-2.7l-0.4-0.5l0.7-0.6l1.5,1.7l-0.7,0.6l-0.4-0.5l-3.2,2.7l0.4,0.5l-0.7,0.6
			l-1.5-1.7L286.3,182.3z"/>
		<path class="st14" d="M288.7,185.1l0.2,0.3c0.1,0.1,0.2,0.1,0.3,0l4-2.9l0.6,0.8l-1.3,3.8c-0.1,0.4-0.4,0.9-0.4,0.9l0,0
			c0,0,0.4-0.3,0.7-0.5l2.2-1.6c0.3-0.2,0.6-0.2,0.8,0.1l0.6,0.9l-0.8,0.6l-0.2-0.3c-0.1-0.1-0.2-0.1-0.3,0l-4,2.9l-0.6-0.8l1.3-3.8
			c0.1-0.4,0.4-0.9,0.4-0.9l0,0c0,0-0.4,0.3-0.7,0.5l-2.2,1.6c-0.3,0.2-0.6,0.2-0.8-0.1l-0.6-0.9L288.7,185.1z"/>
		<path class="st14" d="M296.8,189.4l-0.3-0.5l0.8-0.5l1.3,2.1c1,1.6,0.6,3.2-1,4.2s-3.2,0.5-4.2-1.1l-0.7-1.1
			c-0.2-0.4-0.1-0.6,0.2-0.8L296.8,189.4z M294,192.7l0.3,0.5c0.6,1,1.6,1.3,2.8,0.6c1.2-0.7,1.4-1.7,0.8-2.8l-0.4-0.6l-3.4,2
			C293.9,192.5,293.9,192.6,294,192.7z"/>
		<path class="st14" d="M296.5,197.1l0.3,0.5l3.7-1.9l-0.3-0.5l0.8-0.4l1,2l-0.8,0.4l-0.3-0.5l-3.7,1.9l0.3,0.5l-0.8,0.4l-1-2
			L296.5,197.1z"/>
		<path class="st14" d="M301.9,199c0.1-0.1,0.1-0.2,0.1-0.3l-0.1-0.1l0.9-0.4l0.3,0.6c0.2,0.4,0.1,0.6-0.2,0.8l-2.6,2.4
			c-0.3,0.2-0.7,0.6-0.7,0.6l0,0c0,0,0.5-0.1,0.9-0.1l3.6-0.2c0.4,0,0.6,0.1,0.7,0.5l0.3,0.7l-0.9,0.4l-0.1-0.1
			c-0.1-0.1-0.1-0.2-0.3-0.2l-5.2,0.3l-0.5-1.1L301.9,199z"/>
		<path class="st14" d="M300.6,206.5l0.2,0.6l3.9-1.4l-0.2-0.6l0.9-0.3l0.7,2.1l-0.9,0.3l-0.2-0.6l-3.9,1.4l0.2,0.6l-0.9,0.3
			l-0.7-2.1L300.6,206.5z"/>
		<path class="st14" d="M306,209.5l-0.1-0.5l0.9-0.2l0.6,2.4c0.5,1.8-0.3,3.3-2.1,3.8s-3.2-0.4-3.7-2.2l-0.3-1.3
			c-0.1-0.4,0-0.6,0.4-0.7L306,209.5z M302.3,211.8l0.1,0.5c0.3,1.2,1.2,1.7,2.5,1.4c1.3-0.3,1.8-1.3,1.5-2.5l-0.2-0.7l-3.8,1
			C302.3,211.6,302.3,211.7,302.3,211.8z"/>
		<path class="st14" d="M307.6,216.5c0.1,0,0.2-0.1,0.2-0.2l-0.1-0.4l0.9-0.2l0.2,1.1c0.1,0.4-0.1,0.6-0.5,0.7l-3.2,0.6
			c-0.8,0.1-1.1,0.7-1,1.5s0.7,1.2,1.5,1l3.2-0.6c0.4-0.1,0.6,0.1,0.7,0.5l0.2,1.1l-0.9,0.2l-0.1-0.4c0-0.1-0.1-0.2-0.2-0.2
			l-2.7,0.5c-1.3,0.2-2.4-0.5-2.6-1.9c-0.2-1.4,0.5-2.5,1.8-2.7L307.6,216.5z"/>
		<path class="st14" d="M310.1,226.4c0.1,1.8-1.1,3.2-2.8,3.3c-1.8,0.1-3.3-1.1-3.4-2.9s1.1-3.2,2.9-3.3
			C308.6,223.4,310,224.6,310.1,226.4z M305,226.8c0.1,1.1,1.1,1.9,2.3,1.8c1.2-0.1,2-1,1.9-2.1s-1-1.9-2.2-1.8
			C305.7,224.7,304.9,225.7,305,226.8z"/>
	</g>
</g>
</svg>
