<svg baseProfile="basic" xmlns="http://www.w3.org/2000/svg" viewBox="0 0 444 462"><style type="text/css">.st0{display:none;} .st1{display:inline;fill:none;stroke:#1D1D1B;stroke-width:0.75;stroke-miterlimit:10;} .st2{display:inline;fill:none;stroke:#12100B;stroke-width:0.9789;stroke-miterlimit:10;} .st3{display:inline;} .st4{fill:none;stroke:#1D1D1B;stroke-miterlimit:10;} .st5{fill:none;stroke:#1D1D1B;stroke-miterlimit:10;stroke-dasharray:3.3404,3.3404;} .st6{display:inline;fill:#1D1D1B;} .st7{display:inline;opacity:0.13;} .st8{fill:#009C3D;} .st9{fill:#EE7900;} .st10{fill:none;stroke:#ECECEC;stroke-width:0.7403;stroke-miterlimit:10;} .st11{fill:#EBEAE9;} .st12{fill:#FFFFFF;} .st13{fill:#E30520;} .st14{fill:#00295A;} .st15{display:inline;fill:#00295A;} .st16{fill:none;stroke:#1D1D1B;stroke-miterlimit:10;stroke-dasharray:3.3312,3.3312;} .st17{display:inline;fill:none;stroke:#F6CB37;stroke-miterlimit:10;} .st18{display:inline;fill:none;stroke:#AC9EAD;stroke-miterlimit:10;} .st19{display:inline;fill:none;stroke:#82C3E3;stroke-miterlimit:10;} .st20{display:inline;fill:none;stroke:#B4CC6F;stroke-miterlimit:10;} .st21{display:inline;fill:none;stroke:#D9C086;stroke-miterlimit:10;} .st22{fill:#E40077;} .st23{fill:#00883D;} .st24{fill:#EB6508;} .st25{fill:#1D1D1B;} .st26{fill:none;stroke:#1D1D1B;stroke-width:0.75;stroke-miterlimit:10;} .st27{fill:none;stroke:#F6CB37;stroke-miterlimit:10;} .st28{fill:none;stroke:#AC9EAD;stroke-miterlimit:10;} .st29{fill:none;stroke:#82C3E3;stroke-miterlimit:10;} .st30{fill:none;stroke:#B4CC6F;stroke-miterlimit:10;} .st31{fill:none;stroke:#D9C086;stroke-miterlimit:10;} .st32{fill:none;stroke:#12100B;stroke-width:0.9789;stroke-miterlimit:10;} .st33{fill:#AC9EAD;} .st34{fill:#D9C086;} .st35{fill:#82C3E3;} .st36{fill:#F6CB37;} .st37{fill:#B4CC6F;}</style><g id="ruota4"><path id="XMLID_141_" class="st22" d="M228.2 80.9c2 1 4.4 2.7 6.5 2.1 3-.8 5.9-4.7 7.2-5.2 0 0 .6.1.1.6-4 3.8-4.7 9.3-2.9 12.6 0 0-1 .9-1.4 1.2-.7 1.2-.1 7 .4 8.7 0 0-.3.6-.5.1-1.3-3.1-1.8-6.1-1.9-7.4-.1-.5-.3-.5-.5 0-.6 1.7-1 4-1.3 8.1 0 0-.4.6-.5-.1-.6-3.9.5-16.1.2-16.3-2.3-1.2-4.6-3-5.4-4-.3-.2 0-.4 0-.4z"/><path id="XMLID_137_" class="st22" d="M218.5 81.8c.3.1.7 0 1-.2.5-.3.9-.8 1-1.4.2-.6.1-1.3-.2-1.8-.2-.3-.5-.6-.8-.7s-.7 0-1 .2c-.5.3-.9.8-1 1.4-.2.6-.1 1.3.2 1.8.2.3.5.6.8.7z"/><path id="XMLID_133_" class="st22" d="M235.7 80.3c-.2-.6-.5-1-.9-1.3-.3-.2-.6-.2-.9-.1-.3.1-.6.3-.7.6-.2.4-.3 1-.2 1.6.3 1 1.1 1.6 1.8 1.4.8-.3 1.2-1.2.9-2.2z"/><path id="XMLID_129_" class="st22" d="M227.8 87.9c.2 0 .5-.1.7-.3.3-.3.5-.9.4-1.4 0-.9-.6-1.7-1.2-1.7-.2 0-.5.1-.6.3-.3.3-.5.9-.4 1.4-.1 1 .5 1.7 1.1 1.7z"/><path id="XMLID_125_" class="st22" d="M225.8 100.5c.6-3.6 1.2-5.4 1.4-5.9 0 .9.7 4.1 1.2 5.2.3.7.7.2.7.2-.9-10.1 1.5-11.4 3.8-13.4.3-.2 0-.4 0-.4-.5 0-2.4 1.1-2.6 1.2-4.4 2.6-6.6-.4-7.2-.8 0 0-.3 0-.1.4.3.6 1.6 2.2 3.2 3.2-.7 2.3-1.1 8.1-.9 10.1 0 .7.5.2.5.2z"/><path id="XMLID_121_" class="st22" d="M207.3 84c2.8 1.5 7.8 2.2 10 2.2-.8 6.5-.6 13.9.3 17.4.2.9.8.3.8.3-.2-3.7.6-9.5 1.6-10.8.4 2 2 6.9 4.2 10.1.5.7.8.1.8.1-4.6-15.5-2.6-19.8-.5-24.3.7-1.5 1.3-2.9 1.9-4.8.2-.9-.6-.6-.6-.6-2.8 6.9-7.1 12.2-18.6 9.4-.2.3-.5.7.1 1z"/><path id="XMLID_117_" class="st22" d="M137 357.5c-1-2-1.9-4.8-4-5.6-2.9-1.1-7.5.3-8.9 0 0 0-.5-.5.3-.6 5.5-.7 9.3-4.8 9.8-8.4 0 0 1.4-.1 1.9-.2 1.3-.6 4.2-5.6 4.9-7.3 0 0 .6-.3.5.2-.8 3.2-2.2 5.9-2.8 7.1-.3.4-.1.6.4.3 1.5-1 3.2-2.6 5.8-5.8 0 0 .7-.2.4.4-1.8 3.5-10 12.7-9.8 13 1.2 2.3 2 5.1 2 6.4-.1.5-.5.5-.5.5z"/><path id="XMLID_113_" class="st22" d="M145.3 362.6c-.2-.3-.5-.4-.9-.5-.6-.1-1.2.1-1.7.6-.5.4-.8 1-.9 1.5 0 .4 0 .8.3 1 .2.3.5.4.9.5.6.1 1.2-.1 1.7-.6.5-.4.8-1 .9-1.5 0-.4-.1-.8-.3-1z"/><path id="XMLID_109_" class="st22" d="M130.6 353.6c-.2.5-.2 1.1 0 1.6.1.3.4.6.7.7s.6.1.9-.1c.5-.2.8-.6 1.1-1.2.4-1 .1-2-.6-2.2-.9-.3-1.8.2-2.1 1.2z"/><path id="XMLID_105_" class="st22" d="M141.5 352.1c-.2-.1-.4-.2-.7-.1-.4.1-.9.4-1.2.9-.5.8-.5 1.7 0 2.1.2.1.4.2.7.1.4-.1.9-.4 1.2-.9.5-.8.5-1.7 0-2.1z"/><path id="XMLID_101_" class="st22" d="M150.6 343.1c-2.6 2.6-4.2 3.6-4.6 3.9.5-.7 1.9-3.7 2.1-4.8.2-.7-.4-.6-.4-.6-5.2 8.7-8 8.3-11 8.5-.4 0-.3.3-.3.3.4.2 2.6.5 2.8.6 5.1.5 5.1 4.2 5.4 4.9 0 0 .3.2.4-.3.1-.6 0-2.8-.7-4.5 1.9-1.4 5.7-5.9 6.7-7.6.3-.5-.4-.4-.4-.4z"/><path id="XMLID_97_" class="st22" d="M155.7 367.5c-1.3-2.9-5-6.3-6.7-7.7 4.5-4.7 8.7-10.8 10.1-14.2.4-.9-.5-.7-.5-.7-2 3.1-6.1 7.3-7.7 7.7.8-1.8 2.5-6.7 2.6-10.7 0-.8-.5-.6-.5-.6-5.5 15.2-9.6 17.5-14 19.9-1.4.8-2.8 1.5-4.4 2.8-.7.6.2.8.2.8 6.4-3.9 13-5.6 20.6 3.4 0 0 .6-.2.3-.7z"/><path class="st13" d="M380.9 275.1h-10.1l-3.1-9.6-3.1 9.6h-10.1l8.2 6-3.1 9.6 8.2-5.9 8.2 5.9-3.1-9.6 8-6zm-6.6 13.4l-6.6-4.8-6.6 4.8 2.5-7.8-6.6-4.8h8.2l2.5-7.8 2.5 7.8h8.2l-6.6 4.8 2.5 7.8zM359 276.6l5.3 3.9-2 6.3 5.4-3.9 5.3 3.9-2-6.3 5.3-3.9h-6.6l-2-6.3-2.1 6.3zM381.3 184.7h-10.1l-3.1-9.6-3.1 9.6h-10.1l8.2 6-3.1 9.6 8.2-5.9 8.2 5.9-3.1-9.6 8-6zm-6.6 13.4l-6.6-4.8-6.6 4.8 2.5-7.8-6.6-4.8h8.2l2.5-7.8 2.5 7.8h8.2l-6.6 4.8 2.5 7.8zM359.4 186.2l5.4 3.9-2.1 6.3 5.4-3.9 5.3 3.9-2-6.3 5.3-3.9h-6.6l-2-6.3-2.1 6.3zM106.2 271.7h-10.1l-3.1-9.6-3.1 9.6h-10.1l8.2 6-3.1 9.6 8.2-5.9 8.2 5.9-3.1-9.6 8-6zm-6.6 13.5l-6.6-4.8-6.6 4.8 2.5-7.8-6.6-4.8h8.2l2.5-7.8 2.5 7.8h8.2l-6.6 4.8 2.5 7.8zM84.3 273.2l5.4 3.9-2.1 6.3 5.4-3.8 5.4 3.9-2.1-6.4 5.4-3.8-.1-.1h-6.5l-2.1-6.3-2 6.3z"/><path class="st23" d="M161.4 117.7l-8.5-2.9-18-6.2 1.7 28.6s.1-.1.2-.1l4.8-3.6.2-.2-.7-15.1c-.1-1.1.4-1.4 1.4-1.1 4.3 1.4 10 3.4 14.2 4.8 0 0 .5-.4 1.3-1l.8-.6c1-.8 2.1-1.6 3.2-2.4-.3-.1-.4-.2-.6-.2zm-19.6-4.7l-.7.5-.3.2-1.6-.5c-.7-.2-1.1.2-1.1.9 0 .5.1 1.3.1 1.7 0 0-.1.1-.3.2-.5.3-.9.7-1.5 1.1-.1-2.4-.2-4.6-.3-6.9l6.3 2.2c.1.1-.6.6-.6.6zM212.3 367c1.7 2.5 3.4 5 5 7.4l10.7 15.7 15.8-23.9h-6.5l-8.5 12.5c-.6.9-1.2.9-1.8 0l-8.5-12.4h-6.7l.5.7zm12.9 15.5h1.1l1 1.4c.5.5 1 .5 1.4-.1l1-1.5h2.2c-1.3 2-2.6 3.8-3.9 5.7l-3.7-5.6c0 .1.9.1.9.1z"/><path class="st24" d="M310.3 359.7c1 .9 2.6.9 3.6 0 .8-.7 1.3-1.5 1.6-2.5.7-2.2.4-4.3-.5-6.3-.4-1-1-1.8-1.7-2.7-.2-.3-.2-.3.1-.5 0 0 .1 0 .1-.1l.4.5c.6.7 1.2 1.4 1.7 2.3.6 1 1.1 2.1 1.6 3.2.5 1 1 2 1.7 2.8s1.5 1.6 2.4 2.2c1.5 1 3.2 1.7 5 1.9l.8.1c0-1.1-.3-2.1-.6-3.1-.5-1.3-1.1-2.4-2-3.5-.6-.7-1.3-1.4-2.1-2-.8-.6-1.7-1.1-2.7-1.5-1.6-.7-3.1-1.4-4.4-2.5l-1.2-1c.1-.2.2-.3.3-.4l.2.2c.4.3.9.7 1.4 1 2 1.3 4.2 1.9 6.7 1.5 1.3-.2 2.6-.7 3.5-1.8.3-.4.6-.8.7-1.3.3-1.3-.4-2.6-1.7-3.2-1-.5-2.1-.5-3.1-.4l-2.8.4c-.8.1-1.5.1-2.3-.1h-.1c.2.5.4.9.5 1.4l.9-.2c.5-.1 1.1-.2 1.6 0 1 .4 1.4 1.6.7 2.4-.4.5-.9.7-1.5.8-1.1.2-2.1-.1-3.1-.7l-1-.7.6-.9c.3-.5.3-.5-.1-.9h-.2l-.5.3c-.2.1-.4.3-.7.4-.2-.4-.4-.8-.4-1.3 0-.7.2-1.4.9-1.8l.6-.3c-.1-.2-.4-.6-.7-.8-.7-.5-1.5-.3-2 .3s-.5 1.2-.4 1.8c.2.9.5 1.6 1 2.4.2.3.2.3 0 .5-.1.1-.2.1-.3 0l-1.2-1.9c-.3-.5-.6-.9-1-1.3-.7-.6-1.5-.9-2.4-1 .6.6 3.5 3.4 3.5 3.4s-.1-.7-.6-1.5c-.6-.8-1.1-1.2-1.3-1.3-.1 0-.1-.1-.1-.1l.1.1c.3.2 1.1.6 1.5 1.1.6.8.6 1.8.6 1.8s-1.4 0-2.4-1.2c-.5-.5-.9-1.7-1.3-2.4h-.30000000000000004c.1.4.2.8.3 1.1.2.8.6 1.6 1.3 2.1.4.3.9.6 1.3.8.5.3 1.1.6 1.5 1-.1.1-.2.2-.3.4h-.1l-.4-.3c-.7-.5-1.5-.9-2.4-1-.7-.1-1.4.1-1.9.7s-.5 1.3 0 1.9c.2.2.4.5.7.6.1-1.3 2.1-2 3.4-1.1l-.5.8c-.3.5-.3.5.1.9.1.1.2.1.3 0 .4-.2.7-.4 1.1-.7.1-.1.2-.1.3 0 .6.7 1 1.4 1.2 2.3s.2 1.8-.3 2.6c-.3.5-.7.8-1.4.9-.8 0-1.5-.6-1.6-1.4-.1-.5 0-.9.1-1.3l.2-.9c-.5 0-.9-.2-1.2-.4h-.1v.2c.2.5.2.9.2 1.4l-.4 3.2c-.1.7-.2 1.3-.1 2-.1 1 .3 1.9 1.1 2.6zm11.2-14.4c0-1.5-1.6-2-1.6-2s1.7-.3 3.1.5c.4.2.9.7.9 1.4.1 1.1-.7 1.5-1.2 1.8-2.4 1.4-5.3.7-5.3.7 3.3 0 4.1-1.3 4.1-2.4zm-.5 3.3c4.1.2 5.2-2.2 5.2-3.1.1-2-2.7-2.7-2.7-2.7s1.2.1 2.2 1c.2.1.8.8.8 1.5.1 1.1-.6 2-1.3 2.4-3.7 2.6-7.8 0-7.8 0 1.4.5 2.6.8 3.6.9zm-7.8-7.3c.3-.5 1.3-.4 1.3-.4-1.9.9-1.1 3.1-1.1 3.1s-.9-1.6-.2-2.7zm13 18.2s-.3-2.3-2.1-4.6c-1.9-2.5-3.6-3.7-4.2-4.1-.2-.1-.3-.2-.3-.2s.1.1.3.2c.9.5 3.3 2.1 4.6 3.7 2 2.5 2.2 5.5 2.2 5.5s-4.2-.3-7.6-4c-1.7-1.8-2.9-5.8-4.4-7.8l11.5 11.3zm-18.5-11.9s-.1-.9.4-1.3c1.1-.7 2.7.2 2.7.2s-2.2-.7-3.1 1.1zm2.8 8.8c-.8-1.5-.5-3.1-.5-3.1s.5 1.6 2 1.6c1.1 0 2.4-.8 2.4-4 0 0 .8 2.8-.7 5.3-.3.5-.7 1.2-1.8 1.2-.7-.2-1.2-.7-1.4-1zm0 2.6c-.9-1-1-2.2-1-2.2s.6 2.8 2.7 2.7c.9 0 3.3-1.1 3.1-5.2 0-1-.4-2.1-.8-3.5 0 0 2.6 4.1 0 7.8-.4.6-1.4 1.3-2.4 1.3-.8-.1-1.5-.7-1.6-.9zm10.3.4c-1.1-.1-2.2-.3-3.1-.9-.3-.2-.4-.1-.6.1-.7.7-1.5 1.2-2.5 1.6 1.2-1.8 1.7-3.7 2-5.7 1.1 1.9 2.6 3.5 4.2 4.9z"/><path id="XMLID_93_" class="st22" d="M85.4 183.5c1.6-1.5 4.1-3.2 4.2-5.4.2-3.1-2.4-7.1-2.5-8.5 0 0 .3-.6.6.1 2.2 5.1 7.2 7.6 10.8 7 0 0 .5 1.3.7 1.8.9 1.1 6.6 2.4 8.3 2.6 0 0 .5.5-.1.5-3.3.1-6.3-.4-7.6-.7-.5-.1-.6.1-.2.4 1.3 1.2 3.4 2.4 7.2 4 0 0 .4.6-.3.5-3.9-.8-15-6-15.2-5.8-1.9 1.8-4.4 3.3-5.6 3.7-.2.2-.3-.2-.3-.2z"/><path id="XMLID_89_" class="st22" d="M82.9 192.9c.2-.3.3-.6.2-1-.1-.6-.5-1.1-1-1.5s-1.2-.5-1.7-.4c-.4.1-.7.3-.9.5-.2.3-.3.6-.2 1 .1.5.5 1.1 1 1.5s1.2.5 1.7.4c.4 0 .7-.2.9-.5z"/><path id="XMLID_85_" class="st22" d="M87.4 176.2c-.6-.1-1.1.1-1.5.4-.3.2-.4.5-.5.8 0 .3.1.6.3.9.3.4.8.6 1.4.7 1 .1 1.9-.5 2-1.2.1-.8-.7-1.5-1.7-1.6z"/><path id="XMLID_81_" class="st22" d="M91.9 186.3c.1-.2 0-.5-.1-.7-.2-.4-.7-.7-1.2-.9-.9-.3-1.8 0-2 .6-.1.2 0 .5.1.7.2.4.7.7 1.2.9.9.3 1.8 0 2-.6z"/><path id="XMLID_10_" class="st22" d="M103 192.5c-3.2-1.8-4.6-3-5-3.4.9.3 4.1.8 5.3.7.7-.1.4-.6.4-.6-9.8-2.6-10.2-5.4-11.3-8.2-.1-.3-.4-.2-.4-.2-.1.5.2 2.6.2 2.9.9 5.1-2.6 6.1-3.2 6.5 0 0-.1.3.4.3.6 0 2.7-.8 4.1-1.9 1.9 1.5 7.3 3.8 9.1 4.3.7.3.4-.4.4-.4z"/><path id="XMLID_6_" class="st22" d="M81.1 204.2c2.4-2.1 4.7-6.6 5.5-8.6 5.8 3 12.8 5.3 16.5 5.7 1 .1.5-.6.5-.6-3.5-1.1-8.7-3.8-9.5-5.2 2 .3 7.1.5 11-.5.8-.2.4-.7.4-.7-16.1-1-19.5-4.3-23-7.8-1.1-1.1-2.3-2.2-3.9-3.4-.7-.5-.7.4-.7.4 5.5 5 9 10.9 2.5 20.7 0 0 .2.5.7 0z"/><path class="st23" d="M320.2 136.4l1.2-8.9c.8-6.1 1.7-12.7 2.5-18.9l-27.7 7.3s.1.1.2.1l4.5 3.9.2.2 14.6-3.7c1.1-.3 1.5.1 1.4 1.2-.5 4.5-1.3 10.4-1.9 14.9 0 0 .5.4 1.3 1.1.2.2.5.4.8.7l3 2.6c-.2-.2-.1-.4-.1-.5zm.7-20.2s-.6-.5-.6-.6l-.2-.2c.1-.3.2-1.3.2-1.7 0-.7-.4-1-1.1-.9-.5.1-1.2.3-1.7.5l-.3-.3c-.4-.4-.8-.7-1.4-1.2 2.3-.6 4.5-1.1 6.7-1.7l-.9 6.6c0 .1-.7-.5-.7-.5z"/><path class="st4" d="M424 353.4l-.9 1.4"/><path class="st16" d="M421.4 357.6c-57.4 88.2-170.2 127.9-272.7 89.3-118.5-44.6-178.4-176.8-133.8-295.2 39.9-106.1 150.1-165.2 257.7-144.4"/><path class="st4" d="M274.3 7.6l1.6.3"/><circle class="st25" cx="424" cy="353.4" r="7"/><path class="st25" d="M278 8.4l-.8-8 11.4 9.7-13.9 5.5z"/><circle class="st26" cx="228.6" cy="232.6" r="209.3"/><path class="st27" d="M89.5 132.6c14-19.4 32-35.8 52.7-48 25.4-14.9 54.9-23.4 86.5-23.4 19.1 0 37.4 3.1 54.5 8.8"/><path class="st28" d="M91.3 335.1c-21.4-28.6-34-64.1-34-102.5 0-37.3 11.9-71.9 32.2-100"/><path class="st29" d="M281.7 395.6c-16.7 5.4-34.5 8.4-53 8.4-56.2 0-106.1-27-137.3-68.8"/><path class="st30" d="M400 231.7v.9c0 37.3-11.9 71.9-32.2 100-21.1 29.3-51.2 51.6-86.2 63"/><path class="st31" d="M283.1 70.1c67.7 22.7 116.5 86.4 116.9 161.7"/><path class="st26" d="M129.7 230.4l-72.4-.6M443.8 232l-114.6-.6M324.1 264.3l16.6 5.6M297.1 28.6l-39.2 116.9M219.3 329.5l-2 20.3M239.6 118.5l-1.1 11.8M310.7 291.5l92.7 66.7M53.9 107l91.5 65.8M286.3 311l12.3 16.8M260.2 329.5l34.9 107.4M175.6 69.6l21.8 67M175.8 319.1l-8.9 13.5M297.5 136.8l-10.4 15.6M164.7 293.7l-21.2 20.3M313.4 151.6l-13.5 12.9M197.4 326.7l-22.9 68.9M240.8 329.5l2.4 19.3"/><path class="st32" d="M140.2 275l-18.1 8.6M334.9 181.7l-14.5 6.9"/><path class="st26" d="M143.5 296.1l-87.6 65.3M366 130.1l-56.3 42.1"/><path class="st32" d="M128.1 247.3l-13.4 1.9M345 215.6l-16.4 2.4"/><path class="st4" d="M240.2 114.4l1.7.2"/><path class="st5" d="M245.2 115.1c52.6 7.6 95.2 50.4 100.4 105.7 6.1 64.9-41.6 122.4-106.4 128.4-57.5 5.4-109.3-31.5-124.5-85.1"/><path class="st4" d="M114.2 262.5l-.4-1.6"/><circle class="st25" cx="240.2" cy="114.4" r="6.1"/><path class="st25" d="M113.5 259.9l-5.6 3.5 3.1-12 9.2 8.4z"/><path class="st26" d="M260.2 329.5"/><path class="st8" d="M228.6 138.6c51.9 0 94 42.2 94 94s-42.2 94-94 94-94-42.2-94-94 42.2-94 94-94m0-11c-58 0-105 47-105 105s47 105 105 105 105-47 105-105-46.9-105-105-105z"/><path class="st9" d="M228.6 149.3c45.9 0 83.3 37.4 83.3 83.3s-37.4 83.3-83.3 83.3-83.3-37.4-83.3-83.3 37.4-83.3 83.3-83.3m0-10.8c-52 0-94.1 42.1-94.1 94.1s42.1 94.1 94.1 94.1 94.1-42.1 94.1-94.1-42.1-94.1-94.1-94.1z"/><path class="st10" d="M175 280.4M282.3 177M176.9 175.1M280.4 282.4M187.1 290.6M270.2 166.9M166.8 187.1M290.5 270.3M155.5 242.9M301.8 214.6M214.5 155.6M242.8 301.9M154.1 227.6M303.2 228.4M229.8 154.2M227.5 303.3M177.5 262M216.3 288.5"/><path class="st11" d="M186.6 288.8M229.3 169.3"/><path class="st14" d="M228.6 159.6c40.2 0 73 32.7 73 73s-32.7 73-73 73-73-32.7-73-73 32.8-73 73-73m0-11c-46.4 0-84 37.6-84 84s37.6 84 84 84 84-37.6 84-84-37.6-84-84-84z"/><path class="st12" d="M286.3 182.3l.4.5 3.2-2.7-.4-.5.7-.6 1.5 1.7-.7.6-.4-.5-3.2 2.7.4.5-.7.6-1.5-1.7.7-.6zM288.7 185.1l.2.3c.1.1.2.1.3 0l4-2.9.6.8-1.3 3.8c-.1.4-.4.9-.4.9s.4-.3.7-.5l2.2-1.6c.3-.2.6-.2.8.1l.6.9-.8.6-.2-.3c-.1-.1-.2-.1-.3 0l-4 2.9-.6-.8 1.3-3.8c.1-.4.4-.9.4-.9s-.4.3-.7.5l-2.2 1.6c-.3.2-.6.2-.8-.1l-.6-.9.8-.6zM296.8 189.4l-.3-.5.8-.5 1.3 2.1c1 1.6.6 3.2-1 4.2s-3.2.5-4.2-1.1l-.7-1.1c-.2-.4-.2-.6.2-.8l3.9-2.3zm-2.8 3.3l.3.5c.6 1 1.6 1.3 2.8.6 1.2-.7 1.4-1.7.8-2.8l-.4-.6-3.4 2c-.2.1-.2.2-.1.3zM296.5 197.1l.3.5 3.7-1.9-.3-.5.8-.4 1 2-.8.4-.3-.5-3.7 1.9.3.5-.8.4-1-2 .8-.4zM301.9 199c.1-.1.1-.2.1-.3l-.1-.1.9-.4.3.6c.2.4.1.6-.2.8l-2.6 2.4c-.3.2-.7.6-.7.6s.5-.1.9-.1l3.5-.2c.4 0 .6.1.7.5l.3.7-.9.4-.1-.1c-.1-.1-.1-.2-.3-.2l-5.2.3-.5-1.1 3.9-3.8zM300.6 206.5l.2.6 3.9-1.4-.2-.6.9-.3.7 2.1-.9.3-.2-.6-3.9 1.4.2.6-.9.3-.7-2.1.9-.3zM306 209.5l-.1-.5.9-.2.6 2.4c.5 1.8-.3 3.3-2.1 3.8s-3.2-.4-3.7-2.2l-.3-1.3c-.1-.4 0-.6.4-.7l4.3-1.3zm-3.7 2.3l.1.5c.3 1.2 1.2 1.7 2.5 1.4s1.8-1.3 1.5-2.5l-.2-.7-3.8 1c-.1.1-.1.2-.1.3zM307.6 216.5c.1 0 .2-.1.2-.2l-.1-.4.9-.2.2 1.1c.1.4-.1.6-.5.7l-3.2.6c-.8.1-1.1.7-1 1.5.1.7.7 1.2 1.5 1l3.2-.6c.4-.1.6.1.7.5l.2 1.1-.9.2-.1-.4c0-.1-.1-.2-.2-.2l-2.7.5c-1.3.2-2.4-.5-2.6-1.9s.5-2.5 1.8-2.7l2.6-.6zM310.1 226.4c.1 1.8-1.1 3.2-2.8 3.3-1.8.1-3.3-1.1-3.4-2.9s1.1-3.2 2.9-3.3 3.2 1.1 3.3 2.9zm-5.1.4c.1 1.1 1.1 1.9 2.3 1.8 1.2-.1 2-1 1.9-2.1s-1-1.9-2.2-1.8c-1.3 0-2.1 1-2 2.1zM185.6 313.9c-.7-.4-1.9-1.4-1.4-2.3l.3-.6.9.5-.2.3c-.2.4.3.9.8 1.2 1 .5 2.1.2 2.7-.9.6-1 .2-2.3-.7-2.8-1-.5-2-.1-2-.1l-.1-1s1.3-.5 2.6.2c1.6.9 2.1 2.7 1.3 4.3-.9 1.4-2.7 2-4.2 1.2zM179.3 310.2c-1.5-1-1.9-2.8-1-4.3 1-1.5 2.8-1.9 4.3-1s1.9 2.8.9 4.3c-.9 1.5-2.7 2-4.2 1zm2.8-4.4c-.9-.6-2.1-.3-2.8.7-.6 1-.4 2.2.6 2.8s2.1.3 2.8-.7c.5-1 .3-2.2-.6-2.8zM178.4 303.5l-.2-.2c-.1-.1-.2-.1-.3 0l-3.3 3.6-.9-.7.8-3c.1-.4.3-.8.3-.8s-.4.3-.7.5l-2.7 1.5-.9-.7 2.7-4.1c.1-.1.1-.2 0-.3l-.2-.2.6-.7.8.6c.3.2.3.5.1.8l-1.5 2.3c-.2.3-.6.7-.6.7s.5-.4.8-.5l2.2-1.1.7.6-.6 2.4c-.1.4-.3.9-.3.9s.3-.4.6-.7l1.8-2c.3-.3.5-.3.8-.1l.8.6-.8.6zM168.8 300.9c-.1.1-.1.2 0 .3l.3.2-.6.7-.8-.7c-.3-.3-.3-.5 0-.8l2.2-2.4c.5-.6.5-1.3-.1-1.8s-1.2-.5-1.8.1l-2.2 2.4c-.3.3-.5.3-.8 0l-.8-.7.6-.7.3.2c.1.1.2.1.3 0l1.9-2c.9-1 2.2-1 3.3-.1 1.1 1 1.1 2.3.2 3.3l-2 2zM166.7 293.5l-.2-.3c-.1-.1-.2-.1-.3 0l-3.6 3.3-.7-.7.9-3.9c.1-.4.3-.9.3-.9s-.3.4-.6.6l-2 1.9c-.3.3-.5.3-.8 0l-.7-.8.7-.6.2.3c.1.1.2.1.3 0l3.6-3.3.7.7-.9 3.9c-.1.4-.3.9-.3.9s.3-.4.6-.6l2-1.9c.3-.3.5-.3.8 0l.7.8-.7.6zM161.8 287.9l-.4-.5-3.2 2.6.4.5-.7.6-1.4-1.8.7-.6.4.5 3.2-2.6-.4-.5.7-.6 1.4 1.8-.7.6zM155 285.9l.5.8c.1.1.2.1.3 0l.3-.2.6.8-.8.6c-.3.2-.5.2-.8-.1l-2.4-3.4c-.2-.3-.2-.5.1-.8l.8-.6.6.8-.3.2c-.1.1-.1.2 0 .3l.5.8 4.1-3 .6.9-4.1 2.9zM149.9 282.9l-.5-.9.6-1.2.4.7-.5 1.4zm6.4-2.3l-.1-.1c-.1-.1-.1-.2-.3-.1l-5.1 1.1-.6-1 3.2-4.1c.1-.1.1-.2 0-.3l-.1-.1.8-.5.3.6c.2.4.2.5 0 .9l-.7.9 1.1 1.7 1.1-.2c.4-.1.6 0 .8.3l.4.6-.8.3zm-3.1-2.2l-1 1.2c-.2.3-.6.7-.6.7l.9-.3 1.6-.4-.9-1.2zM181 142.7l-.5.3-.4-.8 2.5-1.3c1-.5 2.1-.2 2.6.9.5 1 .2 2.1-.8 2.6l-1 .5.9 1.9-1 .5-2.3-4.6zm2.7.9c.6-.3.7-.8.4-1.4-.3-.6-.8-.7-1.3-.5l-.8.4.9 1.8.8-.3zM187.7 144l.5-.2-1.7-3.8-.6.2-.4-.9 2.1-.9.4.9-.6.2 1.7 3.8.5-.2.4.9-2.1.9-.2-.9zM190.9 142.5h.1c.1-.1.2-.1.2-.3l-.1-5.2 1.1-.4 3.4 3.9c.1.1.2.1.3.1h.1l.3.9-.6.2c-.4.2-.6.1-.8-.2l-.7-.8-1.9.7v1.1c0 .4-.1.6-.5.7l-.6.2-.3-.9zm2.8-2.7l-1-1.2c-.2-.3-.5-.8-.5-.8s.1.6.1.9l.1 1.6 1.3-.5zM197.2 140.1l.3-.1c.1 0 .2-.1.1-.2l-1.4-4.7 1-.3 3.2 2.5.7.7s-.2-.5-.3-.8l-.8-2.6c-.1-.4 0-.6.4-.7l1-.3.3.9-.3.1c-.1 0-.2.1-.1.2l1.4 4.7-1 .3-3.2-2.5-.7-.7s.2.5.3.8l.8 2.6c.1.4 0 .6-.4.7l-1 .3-.3-.9zM203.9 133.9l-.5.1-.2-.9 3.5-.8c.4-.1.6 0 .7.4l.2.9-1 .2-.1-.4c0-.1-.1-.2-.2-.1l-1.3.3.4 1.5 1.9-.4.2.9-1.9.4.3 1.4c0 .1.1.2.2.1l1.4-.3c.1 0 .2-.1.1-.2l-.1-.4 1-.2.2.9c.1.4 0 .6-.4.7l-2.7.6c-.4.1-.6 0-.7-.4l-1-4.3zM211 132.4l-.9.2c-.1 0-.2.1-.2.2l.1.4-1 .2-.2-.9c-.1-.4 0-.6.4-.6l4.1-.7c.4-.1.6.1.6.4l.2.9-1 .2-.1-.4c0-.1-.1-.2-.2-.2l-.9.2.9 5-1.1.2-.7-5.1zM215.2 135.9h.1c.1 0 .2-.1.2-.2l1.3-5.1 1.2-.1 2.3 4.7c.1.1.1.2.3.2h.1l.1.9-.7.1c-.4 0-.6 0-.8-.4l-.5-1-2 .2-.3 1.1c-.1.4-.2.5-.6.6l-.7.1v-1.1zm3.3-1.9l-.7-1.4-.3-.9s-.1.6-.1.9l-.4 1.6 1.5-.2z"/><path class="st33" d="M51 232.6c0-38.8 12.5-74.8 33.6-104l-30.2-21.6c-25.5 35.3-40.5 78.7-40.5 125.6 0 48.1 15.8 92.5 42.5 128.3l29.7-22.2c-22-29.6-35.1-66.3-35.1-106.1z"/><path class="st34" d="M406.8 231.8h37.1c-.3-94.5-61.6-174.6-146.6-203.1l-11.8 35.2c70.2 23.6 120.9 89.8 121.3 167.9z"/><path class="st35" d="M228.9 410.5c-58.5 0-110.3-28.2-142.8-71.8l-29.7 22.2c39.2 52.6 101.8 86.6 172.5 86.6 23.3 0 45.8-3.7 66.8-10.6l-11.4-35.3c-17.5 5.8-36.1 8.9-55.4 8.9z"/><path class="st36" d="M228.9 54.7c19.8 0 38.8 3.2 56.6 9.2l11.8-35.2c-21.5-7.2-44.5-11.1-68.4-11.1-71.9 0-135.4 35.3-174.5 89.4l30.2 21.5c32.3-44.7 84.9-73.8 144.3-73.8z"/><path class="st37" d="M443.8 231.8h-37.1v.8c0 78.9-51.4 145.8-122.5 169.1l11.4 35.3c86-28.1 148.1-109 148.1-204.4.1-.3.1-.5.1-.8z"/><path class="st12" d="M42.5 301.9c-.4-1-.7-3.2.7-3.7l.9-.3.5 1.3-.4.2c-.6.2-.5 1.3-.2 2 .5 1.4 2 2.2 3.6 1.5 1.6-.6 2.4-2.2 1.8-3.7-.6-1.5-2-2-2-2l.8-1.2s1.8.6 2.6 2.7c.9 2.4-.3 4.8-2.7 5.7-2.4.9-4.8-.2-5.6-2.5zM39.4 292.9c-.8-2.4.5-4.8 2.8-5.5 2.4-.8 4.8.5 5.6 2.8.8 2.4-.5 4.8-2.9 5.5-2.4.9-4.8-.4-5.5-2.8zm7-2.2c-.5-1.5-2.1-2.2-3.7-1.7-1.6.5-2.4 2-1.9 3.5s2 2.3 3.6 1.8c1.6-.6 2.4-2.1 2-3.6zM44.7 285.3l-.1-.5c0-.2-.2-.2-.3-.2l-6.7 1.8-.4-1.4 3.7-4.3 1-1s-.7.3-1.1.4l-3.8 1c-.5.1-.9 0-1-.6l-.4-1.5 1.3-.3.1.5c0 .2.2.2.3.2l6.7-1.8.4 1.4-3.7 4.3-1 1s.7-.3 1.1-.4l3.8-1c.6-.1.9 0 1 .6l.4 1.5-1.3.3zM41.1 275.1s.8-1.1.6-2.2c-.1-.6-.6-1.1-1.2-1-1.4.3-.5 4.2-3.1 4.8-1.3.3-2.6-.7-2.9-2.3-.2-1-.1-2.6 1.1-2.8l.8-.2.3 1.4-.4.1c-.4.1-.5.7-.4 1.2.2.7.6 1.1 1.2 1 1.4-.3.3-4.2 3-4.8 1.3-.3 2.7.5 3 2.2.4 1.8-.7 3.1-.7 3.1l-1.3-.5zM35.1 269c-.2 0-.2.1-.2.3l.1.5-1.3.2-.3-1.5c-.1-.6.1-.8.7-.9l4.6-.8c1.1-.2 1.6-1 1.4-2-.2-1.1-.9-1.6-2-1.5l-4.5.8c-.6.1-.8-.1-.9-.7l-.3-1.5 1.3-.2.1.5c0 .2.1.2.3.2l3.8-.6c1.9-.3 3.4.8 3.7 2.8s-.7 3.5-2.6 3.8l-3.9.6zM39.2 259.7v-.4c0-.2-.1-.2-.3-.2l-6.9.2-.2-1.6 3.8-2.2c.5-.3 1.1-.5 1.1-.5s-.7-.1-1.2-.3l-4.2-1.3-.2-1.6 6.8-1.3c.2 0 .3-.1.2-.3v-.4l1.3-.2.2 1.3c.1.6-.2.8-.7.9l-3.7.7c-.6.1-1.3.2-1.3.2s.9.2 1.4.3l3.3 1 .1 1.3-3 1.8c-.5.3-1.3.6-1.3.6s.8-.1 1.3-.1l3.8-.2c.6 0 .8.2.9.7l.2 1.3-1.4.3zM38 248.5l-.1-.8-5.8.4.1.8-1.3.1-.2-3.2 1.3-.1.1.8 5.8-.4-.1-.8 1.3-.1.2 3.2-1.3.1zM31.6 239.4v.8h-1.3l-.1-5.1c0-.6.2-.8.8-.8h1.3v1.4h-.5c-.2 0-.3.1-.3.3v1.9l2.2-.1-.1-2.8h1.3l.1 2.8h2c.2 0 .3-.1.3-.3v-2c0-.2-.1-.3-.3-.3h-.5v-1.4h1.3c.6 0 .8.2.8.8l.1 3.9c0 .6-.2.8-.8.8l-6.3.1zM30.2 224.3c0-1.1.6-3.2 2-3.2h.9l-.1 1.4h-.5c-.6 0-1 1-1 1.7-.1 1.5 1 2.8 2.8 2.8 1.7.1 3.1-1.1 3.1-2.7.1-1.6-1-2.6-1-2.6l1.2-.8s1.4 1.3 1.3 3.5c-.1 2.6-2.1 4.3-4.6 4.2-2.4.1-4.2-1.9-4.1-4.3zM37.8 219.7l.1-.8-5.8-.4-.1.8-1.3-.1.2-3.2 1.3.1-.1.8 5.8.4.1-.8 1.3.1-.2 3.2-1.3-.1zM32.6 211.7l-.1 1.3c0 .2.1.3.2.3l.5.1-.1 1.4-1.3-.1c-.6-.1-.7-.3-.7-.8l.6-5.9c.1-.6.3-.7.8-.7l1.3.1-.1 1.4-.5-.1c-.2 0-.3.1-.3.2l-.1 1.3 7.1.8-.2 1.6-7.1-.9zM33.7 203.1l-.2 1.3c0 .2.1.3.2.3l.5.1-.2 1.4-1.3-.2c-.6-.1-.7-.3-.6-.9l.9-5.9c.1-.6.3-.7.9-.6l1.3.2-.2 1.4-.5-.1c-.2 0-.3.1-.3.2l-.2 1.3 7.1 1.1-.2 1.6-7.2-1.2zM40.2 199.7v-.2c0-.2 0-.3-.2-.4l-6.3-3.8.3-1.6 7.3-1.2c.2 0 .3-.1.3-.3v-.2l1.3.3-.2.9c-.1.6-.3.8-.9.9l-1.6.2-.5 2.8 1.4.8c.5.3.6.5.5 1.1l-.2.9-1.2-.2zm-1.2-5.3l-2.2.3c-.5.1-1.3.1-1.3.1s.8.3 1.2.6l2 1.1.3-2.1zM36.4 188.8l-.2.8-1.3-.3.8-3.4c.6-2.6 2.5-3.9 5.2-3.2s3.7 2.7 3.1 5.2l-.4 1.8c-.1.6-.4.7-1 .6l-6.2-1.5zm6.1-.4l.2-.7c.4-1.7-.3-3-2.2-3.4-1.8-.4-3.1.4-3.5 2l-.2 1 5.4 1.3c.1 0 .3 0 .3-.2zM44.1 182l.2-.8-5.6-1.6-.2.8-1.3-.4.9-3.1 1.3.4-.2.8 5.6 1.6.2-.7 1.3.4-.9 3.1-1.3-.5zM45.4 177.6l.2-.5c.1-.2 0-.3-.2-.3l-6.6-2.1.4-1.3 5.5-1.6c.6-.2 1.4-.3 1.4-.3s-.7-.1-1.2-.3l-3.7-1.2c-.5-.2-.7-.5-.5-1l.5-1.5 1.3.4-.2.5c-.1.2 0 .3.2.3l6.6 2.1-.4 1.3-5.5 1.6c-.6.2-1.4.3-1.4.3s.7.1 1.2.3l3.7 1.2c.5.2.7.5.5 1l-.5 1.5-1.3-.4zM48.5 168.2l.3-.8-5.5-2-.3.8-1.2-.5 1.1-3 1.2.5-.3.8 5.5 2 .3-.8 1.2.5-1.1 3-1.2-.5zM341.5 70.5l-.6-.5.8-1.1 4 2.8c.5.3.5.7.2 1.1l-.8 1.1-1.2-.8.3-.4c.1-.1.1-.3-.1-.4l-1.3-1-1.4 2 2.2 1.6-.8 1.1-2.2-1.6-2 2.8-1.3-.9 4.2-5.8zM350.9 75.6c2 1.5 2.3 4.2.8 6.1-1.5 2-4.2 2.4-6.2.8s-2.3-4.2-.7-6.2c1.5-1.9 4.1-2.3 6.1-.7zm-4.5 5.8c1.2.9 3 .7 4-.7 1-1.3.8-3-.4-4s-3-.7-4 .6c-1 1.4-.8 3.1.4 4.1zM350.9 84.9l.4.3c.1.1.3.1.4 0l4.5-5.2 1.1.9-.6 5.7c-.1.6-.2 1.4-.2 1.4s.4-.6.7-1l2.5-3c.4-.4.7-.5 1.2-.1l1.2 1-.9 1-.4-.3c-.1-.1-.3-.1-.4 0l-4.5 5.2-1.1-.9.6-5.7c.1-.6.2-1.4.2-1.4s-.4.6-.7 1l-2.5 2.9c-.4.4-.7.5-1.2.1l-1.2-1 .9-.9zM364.3 89l-.9-.9c-.1-.1-.3-.1-.4 0l-.4.4-1-1 .9-1c.4-.4.7-.4 1.1 0l4.3 4.1c.4.4.4.7 0 1.1l-.9 1-1-1 .4-.4c.1-.1.1-.3 0-.4l-.9-.9-5 5.2-1.1-1.1 4.9-5.1zM364.4 97.3l.6.6 4.2-4.1-.6-.6.9-.9 2.2 2.3-1 .9-.6-.6-4.2 4.1.6.6-1 .9-2.2-2.3 1.1-.9zM375.1 100l-.5-.6 1-.9 3.4 3.9c.4.4.4.8-.1 1.2l-1 .9-.9-1.1.4-.3c.1-.1.1-.2 0-.4l-1.3-1.4-1.7 1.5 1.8 2.1-1 .9-1.8-2.1-1.5 1.3c-.1.1-.1.2 0 .4l1.3 1.5c.1.1.2.1.4 0l.4-.3.9 1.1-1 .9c-.4.4-.8.4-1.2-.1l-2.6-2.9c-.4-.4-.4-.8.1-1.2l4.9-4.4zM383.7 110.2l-.8-1c-.1-.1-.2-.1-.4 0l-.4.3-.9-1.1 1.1-.8c.4-.3.7-.3 1.1.1l3.7 4.7c.4.5.3.7-.1 1.1l-1.1.8-.9-1.1.4-.3c.1-.1.1-.2 0-.4l-.8-1-5.7 4.4-1-1.2 5.8-4.5zM387.8 115.5l-.5-.6 1.1-.8 3 4.2c.3.5.3.8-.2 1.1l-1.1.8-.8-1.2.4-.3c.1-.1.2-.2.1-.4l-1.1-1.6-1.8 1.3 1.6 2.2-1.1.8-1.6-2.2-1.6 1.2c-.1.1-.2.2-.1.4l1.2 1.6c.1.1.2.2.4.1l.4-.3.8 1.2-1.1.8c-.5.3-.8.3-1.1-.2l-2.3-3.1c-.3-.5-.3-.8.2-1.1l5.2-3.9zM392.3 121.9l-.4-.7 1.1-.7 2.1 3.2c.9 1.3.7 2.7-.7 3.6-1.3.8-2.4.3-2.7.1 0 0 0 .3-.1.6l-.9 1.6c-.1.2 0 .4.1.7l.1.1-1.1.7-.5-.7c-.4-.5-.4-.8-.1-1.3l1.2-2.1c.2-.3.1-.5-.1-.9l-.4-.7-2.7 1.8-.9-1.3 6-4zm-.7 3.8c.4.7 1.1.8 1.8.3s.8-1.1.4-1.8l-.7-1.1-2.2 1.5.7 1.1zM396.9 128.9l-.4-.7 1.1-.7 2 3.3c.8 1.3.5 2.8-.8 3.6s-2.4.2-2.7-.1c0 0 0 .3-.2.6l-1 1.6c-.1.2-.1.4.1.7l.1.1-1.1.7-.4-.7c-.3-.5-.4-.8-.1-1.3l1.3-2c.2-.3.2-.5-.1-.9l-.4-.7-2.7 1.6-.8-1.3 6.1-3.8zm-.9 3.8c.4.7 1.1.8 1.8.4s.9-1.1.5-1.7l-.7-1.1-2.3 1.4.7 1zM395.6 138.3l.4.7 5.1-2.8-.4-.7 1.2-.6 1.6 2.8-1.2.6-.4-.7-5.1 2.8.4.7-1.2.6-1.6-2.8 1.2-.6zM404.3 142.1l-.6-1.2c-.1-.1-.2-.2-.4-.1l-.5.2-.6-1.2 1.2-.6c.5-.3.8-.2 1 .3l2.7 5.3c.3.5.2.8-.3 1l-1.2.6-.6-1.2.5-.2c.1-.1.2-.2.1-.4l-.6-1.2-6.4 3.3-.7-1.4 6.4-3.2zM410.1 150.6c1 2.3.1 4.8-2.1 5.8-2.3 1-4.8.1-5.9-2.2-1-2.3 0-4.8 2.2-5.9 2.2-.9 4.7 0 5.8 2.3zm-6.7 3c.6 1.4 2.3 2 3.9 1.3 1.5-.7 2.1-2.3 1.5-3.7s-2.3-2-3.8-1.3c-1.6.7-2.3 2.3-1.6 3.7zM411.4 157.4l-.3-.7 1.2-.5 1.4 3.5c.6 1.4.1 2.8-1.4 3.4-1.4.6-2.4-.2-2.6-.5 0 0 0 .3-.2.5l-1.2 1.4c-.2.2-.1.4 0 .7l.1.1-1.2.5-.3-.8c-.2-.6-.2-.9.2-1.3l1.6-1.8c.2-.3.2-.5.1-.9l-.3-.7-3 1.2-.6-1.5 6.5-2.6zm-1.4 3.6c.3.7.9 1 1.7.7.8-.3 1.1-.9.8-1.6l-.5-1.2-2.5 1 .5 1.1zM408.7 166.5l.3.8 5.5-2-.3-.8 1.3-.4 1.1 3-1.3.4-.3-.8-5.5 2 .3.8-1.3.4-1.1-3 1.3-.4zM418.6 172.8c.8 2.4-.5 4.8-2.8 5.5-2.4.8-4.8-.5-5.6-2.9-.8-2.4.5-4.8 2.9-5.5 2.3-.7 4.7.5 5.5 2.9zm-7 2.2c.5 1.5 2.1 2.3 3.7 1.7 1.6-.5 2.4-2 1.9-3.5s-2-2.3-3.6-1.8c-1.6.6-2.5 2.2-2 3.6zM245.3 429.3l1.3-.1c.2 0 .3-.1.2-.3v-.5l1.4-.1.1 1.3c0 .6-.1.8-.7.8l-5.9.5c-.6 0-.8-.1-.8-.7l-.1-1.3 1.4-.1v.5c0 .2.1.3.3.2l1.3-.1-.6-7.2 1.6-.1.5 7.2zM238.6 429.7h.8v1.3l-3.8.1c-1.6.1-2.7-.9-2.7-2.5-.1-1.5 1-2.2 1.3-2.3 0 0-.3-.1-.4-.4l-.9-1.6c-.1-.2-.3-.3-.6-.3h-.2v-1.3h.8c.6 0 .9.1 1.2.6l1.2 2.1c.2.3.4.4.8.4h.8l-.1-3.2 1.6-.1.2 7.2zm-2.9-2.5c-.8 0-1.2.5-1.2 1.4 0 .8.5 1.3 1.3 1.3h1.3l-.1-2.7h-1.3zM231.2 424.1h-.2c-.2 0-.3 0-.4.3l-2.6 6.9h-1.6l-2.4-6.9c-.1-.2-.2-.3-.4-.3h-.2v-1.3h.9c.6 0 .8.2 1 .7l.5 1.5h2.9l.5-1.5c.2-.5.4-.7 1-.7h.9l.1 1.3zm-5 2.1l.7 2.1c.2.5.3 1.3.3 1.3s.2-.8.3-1.3l.8-2.1h-2.1zM221.3 424.9s-.8-1-2-1.1c-.6 0-1.2.3-1.3.9-.1 1.4 3.9 1.5 3.8 4.2-.1 1.4-1.3 2.3-3 2.3-1 0-2.5-.6-2.4-1.8v-.8l1.4.1v.4c0 .4.5.7 1.1.7.7 0 1.3-.3 1.3-.8.1-1.4-3.9-1.4-3.8-4.1.1-1.4 1.2-2.5 2.9-2.4 1.9.1 2.9 1.5 2.9 1.5l-.9.9zM213.8 429.4l.8.1-.1 1.3-3.9-.3c-1.6-.1-2.6-1.3-2.5-3 .1-1.6 1.4-2.7 2.9-2.6l1.5.1.3-2.9 1.6.1-.6 7.2zm-2.6-3.1c-.9-.1-1.4.5-1.5 1.3-.1.9.4 1.5 1.2 1.6l1.3.1.3-2.9-1.3-.1zM202 429.6c-2.5-.3-4.1-2.5-3.8-4.9.3-2.5 2.5-4.2 5-3.8s4.1 2.5 3.8 5c-.4 2.4-2.5 4.1-5 3.7zm1-7.2c-1.5-.2-2.9.9-3.1 2.6-.2 1.6.8 3 2.4 3.2s2.9-.9 3.1-2.5c.2-1.7-.9-3.1-2.4-3.3zM195.5 427.1l.8.1-.2 1.3-3.8-.7c-1.5-.3-2.4-1.4-2.1-3 .3-1.5 1.4-1.9 1.8-1.9 0 0-.2-.2-.3-.5l-.5-1.8c-.1-.3-.3-.3-.5-.4h-.2l.2-1.3.8.2c.6.1.9.3 1.1.8l.7 2.3c.1.4.3.5.7.5l.8.1.6-3.1 1.5.3-1.4 7.1zm-2.3-3.1c-.8-.1-1.3.3-1.5 1.1-.2.8.2 1.4 1 1.5l1.2.2.5-2.6-1.2-.2zM185.6 425.2l1.3.3c.2 0 .3 0 .3-.2l.1-.5 1.3.3-.3 1.3c-.1.5-.4.7-.9.6l-5.8-1.3c-.6-.1-.7-.4-.6-.9l.3-1.3 1.3.3-.1.5c0 .2 0 .3.2.3l1.3.3 1.6-7 1.5.4-1.5 6.9zM181.3 418.1l-.8-.2-1.5 5.7.8.2-.3 1.3-3.1-.8.3-1.3.8.2 1.5-5.7-.8-.2.3-1.3 3.1.8-.3 1.3zM170.7 421.2l.7.2-.4 1.3-4.9-1.6c-.5-.2-.7-.5-.5-1l.4-1.2 1.4.4-.2.5c-.1.2 0 .3.2.3l1.8.6.7-2.1-2.6-.8.4-1.3 2.6.8.6-1.9c.1-.2 0-.3-.2-.3l-1.9-.6c-.2-.1-.3 0-.3.2l-.2.5-1.4-.4.4-1.2c.2-.5.5-.7 1-.5l3.7 1.2c.5.2.7.5.5 1l-1.8 5.9zM159.8 417.2c-.1.2 0 .3.2.3l.5.2-.5 1.2-1.4-.6c-.5-.2-.7-.5-.5-1.1l2.2-5.7c.1-.2 0-.3-.2-.3l-1.7-.7c-.2-.1-.3 0-.3.2l-.2.5-1.3-.5.5-1.2c.2-.5.5-.7 1.1-.5l3.5 1.4c.5.2.7.5.5 1.1l-2.4 5.7zM149 414.7c-2.3-1-3.3-3.5-2.3-5.7 1-2.3 3.5-3.3 5.8-2.3s3.2 3.6 2.2 5.9c-.9 2.2-3.4 3.1-5.7 2.1zm3-6.7c-1.4-.6-3.1.1-3.7 1.6-.7 1.5 0 3.1 1.4 3.8s3 0 3.7-1.5c.6-1.6 0-3.3-1.4-3.9zM139.6 410.3c-1.9-.9-2.3-2.4-2.3-2.4l1.3-.6s.5 1.1 1.6 1.7c1.3.7 3 .2 3.7-1.4.8-1.7.2-3.3-1.2-3.9-1.2-.6-2.3-.2-2.3-.2l-.3.6c-.1.2 0 .3.1.4l.5.2-.6 1.2-1.2-.6c-.5-.3-.6-.6-.4-1.1l1.6-3.3 1.2.6-.2.4c-.1.2-.2.3-.2.3s1.2-.4 2.7.3c2 1 2.9 3.4 1.7 5.8-1 2.3-3.5 3.1-5.7 2zM138.3 401.3l-.7-.4-2.8 5.1.7.4-.6 1.2-2.8-1.5.6-1.2.7.4 2.8-5.1-.7-.4.6-1.2 2.8 1.5-.6 1.2zM133 399.5s-.2-1.3-1.3-1.9c-.6-.3-1.2-.3-1.6.2-.7 1.2 2.8 3.2 1.4 5.5-.7 1.2-2.3 1.5-3.7.6-.9-.5-1.9-1.7-1.3-2.7l.4-.7 1.2.7-.2.3c-.2.3.1.9.6 1.1.6.4 1.3.3 1.5-.2.7-1.2-2.9-3-1.4-5.4.7-1.2 2.2-1.6 3.7-.7 1.6 1 1.8 2.6 1.8 2.6l-1.1.6zM122.6 398.9l1.1.7c.1.1.3.1.4-.1l.3-.4 1.2.7-.7 1.1c-.3.5-.6.5-1.1.2l-5-3.2c-.5-.3-.5-.6-.2-1.1l.7-1.1 1.2.7-.3.4c-.1.1-.1.3.1.4l1.1.7 3.9-6 1.3.9-4 6.1zM121 390.8l-.7-.5-3.3 4.8.7.5-.8 1.1-2.6-1.8.8-1.1.7.5 3.3-4.8-.7-.5.8-1.1 2.6 1.8-.8 1.1zM109.3 391.5c-.9-.7-2.3-2.3-1.4-3.5l.6-.8 1.1.9-.3.4c-.4.5.3 1.3.9 1.8 1.2.9 2.8.8 3.9-.7 1-1.3.8-3.1-.4-4.1-1.3-1-2.7-.6-2.7-.6v-1.4s1.9-.4 3.6.9c2.1 1.6 2.3 4.2.8 6.2-1.5 2-4.1 2.4-6.1.9zM110.1 382.9l-.1-.1c-.2-.1-.3-.2-.5 0l-6.4 3.7-1.3-1 2.5-6.9c.1-.2 0-.3-.1-.4l-.1-.1.8-1 .7.6c.5.4.5.6.3 1.2l-.5 1.5 2.2 1.8 1.4-.8c.5-.3.7-.3 1.2.1l.7.6-.8.8zm-5.2-1.5l-.8 2.1c-.2.5-.5 1.2-.5 1.2s.6-.5 1.1-.8l1.9-1.2-1.7-1.3zM70.8 114.4l-.5.6-1.1-.8 2.3-3c1-1.2 2.4-1.5 3.7-.5 1.2.9 1.1 2.2.9 2.5 0 0 .3-.1.6-.1l1.8.3c.3 0 .4-.1.6-.3l.1-.1 1.1.8-.5.7c-.4.5-.6.7-1.2.6l-2.4-.4c-.4-.1-.5 0-.8.4l-.5.6 2.5 1.9-1 1.2-5.6-4.4zm3.8-.6c.5-.6.4-1.3-.3-1.8s-1.3-.4-1.8.2l-.8 1 2.1 1.6.8-1zM79.6 112.6l.5-.7-4.5-3.7-.5.7-1-.8 2-2.5 1 .8-.5.7 4.5 3.7.5-.7 1 .8-2 2.5-1-.8zM79.5 101.4c.7-.8 2.5-2.1 3.6-1.2l.7.6-.9 1.1-.4-.3c-.5-.4-1.4.2-1.8.7-1 1.1-1 2.8.4 3.9 1.3 1.1 3.1 1.1 4.1-.1 1.1-1.2.9-2.7.9-2.7l1.4.1s.3 1.9-1.2 3.5c-1.7 2-4.4 2-6.3.3-2-1.4-2.2-4-.5-5.9zM87.8 103.1l.6-.6-4.3-4-.6.6-1-.9 2.2-2.3 1 .9-.6.6 4.3 4 .6-.6 1 .9-2.2 2.3-1-.9zM88.4 91.9c.8-.8 2.6-2 3.6-.9l.7.7-1 1-.3-.3c-.4-.4-1.4.1-1.9.6-1.1 1.1-1.1 2.7.1 4 1.2 1.2 3 1.3 4.1.2 1.1-1.1 1-2.6 1-2.6l1.4.2s.2 1.9-1.4 3.5c-1.8 1.8-4.5 1.7-6.3-.1-1.7-1.9-1.8-4.6 0-6.3zM93.3 89.5c-.1-.1-.2-.1-.4 0l-.4.4-.9-1 1.1-1c.4-.4.8-.4 1.2 0l4.2 4.5c.1.1.2.1.4 0l1.4-1.3c.1-.1.1-.2 0-.4l-.4-.4 1-1 .9 1c.4.4.4.8 0 1.2l-2.7 2.5c-.4.4-.8.4-1.2 0l-4.2-4.5zM99.8 81.3c1.9-1.6 4.6-1.4 6.2.4 1.6 1.9 1.5 4.6-.4 6.3-1.9 1.6-4.6 1.4-6.2-.5-1.7-1.9-1.5-4.5.4-6.2zm4.8 5.6c1.2-1 1.3-2.8.2-4.1-1.1-1.2-2.8-1.4-4-.4s-1.3 2.8-.2 4c1.1 1.3 2.8 1.5 4 .5zM110 82.2l.9 2.9-.9.7-1.1-2.7 1.1-.9zM110.6 74.6l-.6.5-.8-1.1 3.1-2.3c1.3-.9 2.7-.8 3.7.5.9 1.2.4 2.4.2 2.6 0 0 .3-.1.6.1l1.6.8c.3.1.4 0 .6-.1l.1-.1.8 1.1-.7.5c-.5.4-.8.5-1.3.2l-2.1-1.1c-.3-.2-.5-.1-.9.2l-.6.5 1.9 2.6-1.3.9-4.3-5.8zm3.8.5c.6-.5.7-1.1.2-1.8-.5-.7-1.2-.8-1.8-.3l-1 .8 1.6 2.2 1-.9zM119.6 75.3l.7-.5-3.3-4.8-.7.5-.8-1.1 2.6-1.8.8 1.1-.7.5 3.3 4.8.7-.5.8 1.1-2.6 1.8-.8-1.1zM123.1 71.8s1.3.4 2.3-.3c.5-.4.8-1 .5-1.5-.8-1.2-4.1 1.1-5.5-1.2-.7-1.2-.3-2.7 1.1-3.6.8-.5 2.4-1 3 0l.4.7-1.2.8-.2-.3c-.2-.3-.8-.2-1.3.1-.6.4-.8 1-.6 1.4.8 1.2 4-1.2 5.5 1.2.7 1.1.5 2.7-1 3.6-1.6 1-3.2.5-3.2.5l.2-1.4zM126.1 64.1l-.7.4-.7-1.1 3.4-2c1.4-.8 2.9-.4 3.7 1s.5 3-.9 3.8l-1.3.8 1.5 2.5-1.4.8-3.6-6.2zm3.9 1c.8-.5.9-1.2.4-2-.4-.8-1.2-1-1.9-.5l-1.1.7 1.5 2.5 1.1-.7zM133.8 66.3l.2-.1c.2-.1.2-.2.2-.4l-1.1-7.3 1.4-.8 5.5 4.9c.2.2.3.2.5.1l.2-.1.6 1.2-.8.4c-.5.3-.8.3-1.2-.1l-1.2-1.1-2.5 1.4.2 1.6c.1.6 0 .8-.5 1.1l-.8.5-.7-1.3zm3.4-4.3l-1.7-1.5c-.4-.3-.9-1-.9-1s.2.8.3 1.3l.4 2.2 1.9-1zM139.3 56.7l-.7.3-.6-1.2 3.4-1.7c1.4-.7 2.8-.3 3.5 1.1.7 1.4 0 2.4-.3 2.6 0 0 .3 0 .6.2l1.5 1.1c.2.2.4.1.7 0l.1-.1.6 1.2-.7.4c-.6.3-.9.3-1.3 0l-1.9-1.4c-.3-.2-.5-.2-.9 0l-.7.4 1.4 2.9-1.4.7-3.3-6.5zm3.7 1.1c.7-.4.9-1 .5-1.8s-1-1-1.7-.6l-1.1.6 1.2 2.4 1.1-.6zM147.7 59l.3-.1c.2-.1.2-.2.1-.3l-2.3-6.6 1.5-.7 3.2 3c.4.4.8.9.8.9s-.1-.7-.1-1.2v-4.4l1.5-.7 3.3 6.1c.1.1.2.2.3.1l.3-.1.5 1.2-1.2.5c-.5.2-.8.1-1.1-.4l-1.8-3.4c-.3-.5-.5-1.2-.5-1.2s.1.9.1 1.4v3.4l-1.2.5-2.6-2.3-1-1s.3.7.5 1.2l1.3 3.6c.2.5.1.8-.4 1.1l-1.2.5-.3-1.1zM157.5 54.8l.8-.3-2.1-5.5-.8.3-.5-1.2 3-1.2.5 1.2-.8.3 2.1 5.5.8-.3.5 1.2-3 1.2-.5-1.2zM163 44.9c2.4-.8 4.8.3 5.6 2.6.8 2.4-.3 4.8-2.7 5.7-2.4.8-4.8-.4-5.6-2.8-.9-2.2.3-4.6 2.7-5.5zm2.4 7c1.4-.5 2.2-2.1 1.6-3.8-.5-1.5-2.1-2.3-3.6-1.8s-2.2 2.1-1.7 3.6c.6 1.7 2.2 2.5 3.7 2zM172.1 49.4l-.3 3-1.1.3-.1-2.9 1.5-.4zM175.4 42.5l-.8.2-.3-1.3 3.7-1c1.5-.4 2.8.2 3.2 1.8.4 1.5-.5 2.4-.8 2.5 0 0 .3 0 .5.3l1.2 1.4c.2.2.4.2.7.1h.2l.3 1.3-.8.2c-.6.2-.9.1-1.3-.3l-1.6-1.8c-.3-.3-.5-.3-.9-.2l-.7.3.8 3.1-1.5.4-1.9-7zm3.4 1.9c.8-.2 1.1-.8.9-1.6-.2-.8-.8-1.2-1.5-1l-1.2.3.7 2.6 1.1-.3zM183 40.6l-.8.2-.3-1.3 5-1.1c.5-.1.9.1 1 .6l.3 1.3-1.4.3-.1-.5c0-.2-.2-.2-.3-.2l-1.9.4.5 2.2 2.7-.6.3 1.3-2.7.6.4 2c0 .2.2.2.3.2l1.9-.4c.2 0 .2-.2.2-.3l-.1-.5 1.4-.3.3 1.3c.1.6-.1.9-.6 1l-3.8.9c-.6.1-.8-.1-1-.6l-1.3-6.5zM193.1 37c1.1-.2 3.3-.1 3.5 1.3l.2.9-1.4.3-.1-.5c-.1-.6-1.2-.7-1.9-.6-1.5.3-2.5 1.6-2.2 3.3.3 1.6 1.7 2.7 3.3 2.5 1.6-.3 2.3-1.6 2.3-1.6l1 1s-1 1.7-3.1 2.1c-2.6.5-4.7-1.1-5.1-3.6-.4-2.5 1.1-4.7 3.5-5.1zM198.5 37.8c0-.2-.1-.2-.3-.2l-.5.1-.2-1.3 1.5-.2c.6-.1.8.1.9.7l.6 4.6c.2 1.1.9 1.7 2 1.5 1.1-.1 1.7-.9 1.5-2l-.6-4.6c-.1-.6.1-.8.7-.9l1.5-.2.2 1.3-.5.1c-.2 0-.2.1-.2.3l.5 3.9c.3 1.9-.9 3.3-2.9 3.6s-3.5-.8-3.8-2.7l-.4-4zM207.6 36.4l-.8.1-.1-1.3 3.9-.4c1.6-.2 2.8.9 3 2.5s-.8 2.9-2.4 3.1l-1.5.1.3 2.9-1.6.1-.8-7.1zm3.1 2.6c.9-.1 1.3-.7 1.2-1.6-.1-.9-.6-1.4-1.5-1.3l-1.3.1.3 2.9 1.3-.1zM215 35.7h-.8l-.1-1.3 5.1-.3c.6 0 .8.2.9.8l.1 1.3-1.4.1v-.5c0-.2-.1-.3-.3-.2l-1.9.1.1 2.2 2.8-.2.1 1.3-2.8.2.1 2c0 .2.1.3.3.2l2-.1c.2 0 .3-.1.2-.3v-.5l1.4-.1.1 1.3c0 .6-.2.8-.8.9l-3.9.2c-.6 0-.8-.2-.9-.8l-.3-6.3zM222.1 35.3h-.8v-1.3l3.8-.1c1.6 0 2.7.9 2.7 2.5 0 1.5-1 2.2-1.4 2.3 0 0 .3.1.4.4l.9 1.6c.1.2.3.3.6.3h.2v1.3h-.8c-.6 0-.9-.1-1.2-.6l-1.1-2.1c-.2-.3-.4-.4-.8-.4h-.8l.1 3.2h-1.6l-.2-7.1zm2.9 2.6c.8 0 1.2-.5 1.2-1.4 0-.8-.5-1.3-1.3-1.3h-1.3l.1 2.7h1.3zM233.5 33.8c2.5.1 4.4 2 4.3 4.4-.1 2.5-2 4.4-4.5 4.4s-4.4-2.1-4.3-4.6c0-2.4 2-4.3 4.5-4.2zm-.2 7.3c1.5 0 2.8-1.2 2.8-2.9 0-1.6-1.2-2.9-2.7-2.9s-2.8 1.2-2.8 2.8c0 1.7 1.2 3 2.7 3zM242.9 35.7l-.8-.1.1-1.3 5.1.4c.6 0 .8.3.7.9l-.1 1.3-1.4-.1v-.5c0-.2-.1-.3-.2-.3l-1.9-.2-.2 2.2 2.8.2-.1 1.3-2.8-.2-.2 2c0 .2.1.3.2.3l2 .2c.2 0 .3-.1.3-.2v-.5l1.4.1-.1 1.3c0 .6-.3.8-.9.7l-3.9-.3c-.6 0-.8-.3-.7-.9l.7-6.3zM253.2 36.7l-.8-.1.2-1.3 3.8.5c1.5.2 2.5 1.3 2.3 2.9-.2 1.5-1.3 2-1.7 2 0 0 .2.2.4.5l.6 1.7c.1.3.3.3.6.4h.2l-.2 1.3-.8-.1c-.6-.1-.9-.2-1.1-.8l-.8-2.3c-.1-.4-.3-.4-.7-.5l-.8-.1-.4 3.1-1.6-.2.8-7zm2.5 3c.8.1 1.3-.3 1.4-1.2.1-.8-.3-1.4-1-1.5l-1.3-.2-.4 2.6 1.3.3zM259.2 43.5l.8.1 1-5.8-.8-.1.2-1.3 3.1.5-.2 1.3-.8-.1-1 5.8.8.1-.2 1.3-3.1-.5.2-1.3zM265 38.8c0-.2 0-.3-.2-.3l-.5-.1.3-1.3 1.5.3c.6.1.8.4.6 1l-.9 4.5c-.2 1.1.3 1.9 1.4 2.1 1 .2 1.9-.3 2.1-1.4l.9-4.5c.1-.6.4-.8 1-.6l1.5.3-.3 1.3-.5-.1c-.2 0-.3 0-.3.2l-.8 3.8c-.4 1.8-1.9 2.9-3.9 2.5s-3-1.9-2.7-3.8l.8-3.9zM272.9 45.2s.6 1.2 1.8 1.5c.6.2 1.3 0 1.4-.7.3-1.4-3.6-2.2-2.9-4.8.3-1.3 1.7-2 3.3-1.7 1 .2 2.3 1.1 2.1 2.2l-.2.8-1.4-.3.1-.4c.1-.4-.4-.8-.9-.9-.7-.2-1.3.1-1.4.6-.3 1.4 3.6 2.1 3 4.8-.3 1.3-1.6 2.2-3.3 1.8-1.8-.4-2.5-2-2.5-2l.9-.9zM284.4 41.6c2.4.7 3.7 3.1 3 5.4-.7 2.4-3.1 3.8-5.5 3.1s-3.7-3.1-3-5.5c.8-2.4 3.1-3.7 5.5-3zm-2 7.1c1.5.4 3-.5 3.5-2.1s-.4-3.1-1.9-3.5-3 .4-3.5 2c-.4 1.6.4 3.2 1.9 3.6zM426.2 238.1v-.8l1.3.1-.2 3.9c-.1 1.6-1.2 2.7-2.9 2.6s-2.8-1.2-2.7-2.8l.1-1.5-2.9-.1.1-1.6 7.2.2zm-3 2.7c0 .9.5 1.4 1.4 1.4s1.5-.4 1.5-1.3l.1-1.3-2.9-.1-.1 1.3zM425.8 246.2l.1-.8 1.3.1-.3 3.8c-.1 1.6-1.2 2.6-2.8 2.4-1.5-.1-2.1-1.2-2.1-1.6 0 0-.1.3-.5.4l-1.7.7c-.3.1-.3.3-.3.6v.2l-1.3-.1.1-.8c.1-.6.2-.9.7-1.1l2.2-.9c.3-.2.4-.3.5-.8l.1-.8-3.2-.3.1-1.6 7.1.6zm-2.9 2.5c-.1.8.4 1.3 1.2 1.4.8.1 1.4-.4 1.4-1.1l.1-1.3-2.7-.2v1.2zM426.1 258.2c-.3 2.5-2.5 4.1-4.9 3.8-2.5-.3-4.2-2.4-3.9-4.9.3-2.5 2.5-4.1 5-3.8 2.5.3 4.1 2.4 3.8 4.9zm-7.3-.9c-.2 1.5.9 2.9 2.6 3.1 1.6.2 3-.9 3.2-2.4s-.9-2.9-2.5-3.1c-1.7-.2-3.1.9-3.3 2.4zM423.7 264.8l.1-.8 1.3.2-.6 3.4c-.5 2.6-2.3 4-5 3.5s-3.9-2.4-3.4-5l.3-1.8c.1-.6.4-.8.9-.7l6.4 1.2zm-6.1.8l-.1.8c-.3 1.7.5 2.9 2.4 3.3 1.9.3 3.1-.6 3.4-2.2l.2-1-5.5-1c-.3-.2-.4-.1-.4.1zM421.7 273.9c.2 0 .3 0 .3-.2l.1-.5 1.3.3-.3 1.5c-.1.6-.4.7-1 .6l-4.5-1c-1.1-.3-1.9.3-2.1 1.3s.2 1.9 1.3 2.1l4.5 1c.5.1.7.4.6 1l-.3 1.5-1.3-.3.1-.5c0-.2 0-.3-.2-.3l-3.8-.9c-1.8-.4-2.8-2-2.3-4s2-3 3.9-2.6l3.7 1zM413.9 280.9l4.2 5.1c.4.5.6.8.6.8s0-.2.2-.6l.6-2c0-.2 0-.3-.2-.3l-.5-.1.4-1.4 1.2.3c.5.2.7.5.6 1l-1.5 5.3-.9-.3-4.2-5.1c-.4-.5-.6-.8-.6-.8s0 .2-.2.6l-.6 2.2c0 .2 0 .3.2.3l.5.1-.4 1.4-1.2-.3c-.6-.2-.7-.4-.6-1l1.6-5.6.8.4zM412.1 288.6l-.3.8 5.6 1.8.3-.8 1.3.4-1 3-1.3-.4.3-.8-5.6-1.8-.3.8-1.3-.4 1-3 1.3.4zM416.1 299.6c-.8 2.4-3.3 3.5-5.6 2.7-2.4-.8-3.6-3.3-2.7-5.6.8-2.4 3.3-3.5 5.7-2.6 2.3.7 3.5 3.1 2.6 5.5zm-6.9-2.5c-.5 1.4.3 3 1.9 3.6 1.5.5 3.1-.2 3.6-1.6s-.2-3-1.8-3.6c-1.5-.6-3.1.1-3.7 1.6zM407.3 302.5l-.2.5c-.1.2 0 .3.1.3l6.4 2.7-.5 1.3-5.6 1.2c-.6.1-1.4.2-1.4.2s.7.2 1.1.4l3.6 1.5c.5.2.7.5.4 1.1l-.6 1.4-1.2-.5.2-.5c.1-.2 0-.3-.1-.3l-6.4-2.7.5-1.3 5.6-1.2c.6-.1 1.4-.2 1.4-.2s-.7-.2-1.1-.4l-3.6-1.5c-.5-.2-.7-.5-.4-1.1l.6-1.4 1.2.5zM408.4 314.7l.3-.7 1.2.6-2.2 4.7c-.2.5-.6.6-1.1.4l-1.2-.6.6-1.3.5.2c.2.1.3 0 .4-.1l.8-1.7-2-1-1.2 2.5-1.2-.6 1.2-2.5-1.8-.9c-.2-.1-.3 0-.4.1l-.8 1.8c-.1.2 0 .3.1.4l.5.2-.6 1.3-1.2-.6c-.5-.2-.6-.6-.4-1.1l1.7-3.5c.2-.5.6-.6 1.1-.4l5.7 2.8zM403.3 325.1l.4-.7 1.2.6-2.5 4.5c-.3.5-.6.6-1.1.3l-1.1-.6.7-1.3.5.2c.1.1.3 0 .4-.1l.9-1.7-2-1.1-1.3 2.4-1.2-.6 1.3-2.4-1.8-1c-.1-.1-.3 0-.4.1l-.9 1.7c-.1.1 0 .3.1.4l.5.2-.7 1.3-1.1-.6c-.5-.3-.6-.6-.3-1.1l1.9-3.4c.3-.5.6-.6 1.1-.3l5.4 3.2zM392.9 331.5l-.4.7 5 3.1.4-.7 1.1.7-1.7 2.7-1.1-.7.4-.7-5-3.1-.4.7-1.1-.7 1.7-2.7 1.1.7zM390.6 335.3l-.2.3c-.1.1-.1.3.1.4l5.4 4.3-.9 1.4-4.3-.8c-.5-.1-1.2-.3-1.2-.3s.4.5.7 1l2.4 3.7-.9 1.4-6-3.4c-.1-.1-.3-.1-.4.1l-.2.3-1.1-.7.8-1.1c.3-.5.6-.5 1.1-.2l3.3 1.9c.5.3 1.1.7 1.1.7s-.6-.7-.8-1.1l-1.8-2.9.7-1.1 3.4.6c.5.1 1.4.4 1.4.4s-.7-.4-1.1-.8l-3-2.3c-.5-.4-.5-.7-.2-1.1l.8-1.1.9.4zM388.5 348.7l.5-.6 1.1.8-2.2 3c-.9 1.2-2.2 1.6-3.3.8-.8-.6-.9-1.3-.8-1.9-.8.6-1.7.4-2.4-.1-1.4-1-1.2-2.6-.2-3.8l1.3-1.7c.3-.5.7-.5 1.1-.2l4.9 3.7zm-5.8-2.1l-.7 1c-.5.6-.3 1.3.3 1.7.6.4 1.2.4 1.7-.2l.9-1.2-1.8-1.3c-.1-.1-.3-.1-.4 0zm2.4 3.1c-.4.5-.2 1.1.3 1.5s1.1.3 1.5-.2l.8-1.1-1.7-1.3-.9 1.1zM382.3 359.1c-1.6 1.9-4.3 2.2-6.2.6-1.9-1.6-2.2-4.3-.6-6.2s4.3-2.1 6.2-.5c1.9 1.5 2.2 4.1.6 6.1zm-5.7-4.7c-1 1.2-.8 3 .5 4s3 .9 4-.3.8-2.9-.5-4c-1.2-1-3-.9-4 .3zM375.6 364.6l.9-1c.1-.1.1-.3 0-.4l-.4-.3.9-1 1 .9c.4.4.4.7.1 1.1l-4 4.4c-.4.4-.7.4-1.1.1l-1-.9.9-1 .4.3c.1.1.3.1.4 0l.9-1-5.3-4.8 1.1-1.2 5.2 4.8zM369.7 370.9l.9-.9c.1-.1.1-.3 0-.4l-.4-.4 1-1 1 .9c.4.4.4.7 0 1.1l-4.2 4.2c-.4.4-.7.4-1.1 0l-1-.9 1-1 .4.4c.1.1.3.1.4 0l.9-.9-5.1-5.1 1.1-1.1 5.1 5.1zM361.4 370.8l-.6.6 4 4.3.6-.6.9 1-2.3 2.2-.9-1 .6-.6-4-4.3-.6.6-.9-1 2.3-2.2.9 1zM359.7 382.3c-1.6 1.4-3 1.2-3 1.2l-.1-1.4s1.2 0 2.1-.9c1.1-1 1.3-2.7.2-4-1.2-1.4-2.9-1.4-4.1-.4-1 .9-1 2.1-1 2.1l.4.5c.1.1.2.1.4 0l.4-.3.9 1-1 .9c-.4.4-.8.4-1.1-.1l-2.4-2.7 1-.9.3.3c.1.1.2.3.2.3s.1-1.3 1.3-2.3c1.7-1.5 4.2-1.4 6 .6 1.5 1.8 1.4 4.5-.5 6.1zM353.9 385c.1.1.2.1.4 0l.4-.3.8 1-1.2 1c-.4.4-.8.3-1.1-.1l-3.8-4.8c-.1-.1-.2-.1-.4 0l-1.5 1.2c-.1.1-.1.2 0 .4l.3.4-1.1.9-.8-1c-.4-.4-.3-.8.1-1.1l2.9-2.3c.4-.4.8-.3 1.1.1l3.9 4.6zM345.2 384.7l-.7.5 3.5 4.7.7-.5.8 1.1-2.5 1.9-.8-1.1.7-.5-3.5-4.7-.7.5-.8-1.1 2.5-1.9.8 1.1zM341.8 387.3l-.2.1c-.2.1-.2.2-.2.4l1.9 7.1-1.3.9-6-4.2c-.2-.1-.3-.1-.5 0l-.2.1-.8-1.1.8-.5c.5-.3.8-.3 1.2 0l1.3.9 2.4-1.7-.4-1.5c-.2-.6-.1-.8.4-1.1l.8-.5.8 1.1zm-2.9 4.7l1.8 1.3c.4.3 1 .8 1 .8s-.3-.8-.5-1.2l-.6-2.2-1.7 1.3zM334.6 392.3l-.3.2c-.1.1-.2.2-.1.4l3.2 6.2-1.4.9-3.6-2.5c-.4-.3-1-.7-1-.7s.2.7.2 1.2l.7 4.4-1.4.9-4.1-5.6c-.1-.1-.2-.2-.4-.1l-.3.2-.7-1.1 1.1-.7c.5-.3.8-.2 1.1.3l2.3 3.1c.3.5.7 1.1.7 1.1s-.2-.8-.3-1.4l-.5-3.4 1.1-.7 2.9 1.9c.4.3 1.1.9 1.1.9s-.4-.6-.7-1.1l-1.8-3.4c-.3-.5-.2-.8.3-1.1l1.2-.7.7.8zM327.3 403.7l.7-.4.7 1.2-4.5 2.5c-.5.3-.8.2-1.1-.3l-.6-1.1 1.2-.7.3.4c.1.1.2.2.4.1l1.7-.9-1.1-1.9-2.4 1.4-.7-1.2 2.4-1.4-1-1.8c-.1-.1-.2-.2-.4-.1l-1.7 1c-.1.1-.2.2-.1.4l.3.5-1.4.6-.6-1.1c-.3-.5-.2-.8.3-1.1l3.4-1.9c.5-.3.8-.2 1.1.3l3.1 5.5zM318.5 401.9l-.5.2c-.2.1-.2.2-.1.4l3.1 6.2-1.3.6-5-2.8c-.5-.3-1.2-.8-1.2-.8s.4.6.6 1l1.8 3.5c.3.5.2.8-.4 1.1l-1.4.7-.6-1.2.5-.2c.2-.1.2-.2.1-.4l-3.1-6.2 1.3-.6 5 2.8c.5.3 1.2.8 1.2.8s-.4-.6-.6-1l-1.7-3.5c-.3-.5-.2-.8.4-1.1l1.4-.7.5 1.2zM309.6 412.7l1.2-.5c.2-.1.2-.2.1-.3l-.2-.5 1.3-.6.5 1.2c.2.5.1.8-.4 1l-5.4 2.4c-.5.2-.8.1-1-.4l-.5-1.2 1.3-.6.2.5c.1.2.2.2.3.1l1.2-.5-2.9-6.6 1.4-.6 2.9 6.6zM300.9 418c-2.3.9-4.8-.2-5.7-2.5-.9-2.3.1-4.8 2.5-5.8 2.3-.9 4.8.2 5.7 2.6.9 2.3-.2 4.8-2.5 5.7zm-2.7-6.9c-1.4.6-2.1 2.2-1.5 3.8.6 1.5 2.2 2.2 3.6 1.7s2.1-2.2 1.5-3.7c-.5-1.6-2.2-2.3-3.6-1.8z"/></g></svg>
