<svg xmlns="http://www.w3.org/2000/svg" viewBox="0 0 390 410">
<style type="text/css">
	.st0{fill:none;stroke:#1D1D1B;stroke-width:0.75;stroke-miterlimit:10;}
	.st1{fill:none;stroke:#12100B;stroke-width:0.9789;stroke-miterlimit:10;}
	.st2{fill:none;stroke:#1D1D1B;stroke-miterlimit:10;}
	.st3{fill:none;stroke:#1D1D1B;stroke-miterlimit:10;stroke-dasharray:3.3404,3.3404;}
	.st4{fill:#1D1D1B;}
	.st5{fill:#009C3D;}
	.st6{fill:#EE7900;}
	.st7{fill:none;stroke:#ECECEC;stroke-width:0.7403;stroke-miterlimit:10;}
	.st8{fill:#EBEAE9;}
	.st9{fill:#FFFFFF;}
	.st10{fill:#E30520;}
	.st11{fill:#00295A;}
</style>
<g>
	<line class="st0" x1="75.8" y1="202.6" x2="3.4" y2="202"/>
	<line class="st0" x1="390" y1="204.2" x2="275.4" y2="203.6"/>
	<line class="st0" x1="270.2" y1="236.6" x2="286.9" y2="242.1"/>
	<line class="st0" x1="243.2" y1="0.8" x2="204.1" y2="117.7"/>
	<line class="st0" x1="165.4" y1="301.7" x2="163.5" y2="322"/>
	<line class="st0" x1="185.8" y1="90.8" x2="184.7" y2="102.5"/>
	<line class="st0" x1="256.8" y1="263.8" x2="349.6" y2="330.4"/>
	<line class="st0" x1="0" y1="79.2" x2="91.5" y2="145"/>
	<line class="st0" x1="232.4" y1="283.2" x2="244.7" y2="300"/>
	<line class="st0" x1="206.3" y1="301.7" x2="241.2" y2="409.2"/>
	<line class="st0" x1="121.7" y1="41.8" x2="143.5" y2="108.8"/>
	<line class="st0" x1="122" y1="291.3" x2="113" y2="304.8"/>
	<line class="st0" x1="243.6" y1="109" x2="233.2" y2="124.6"/>
	<line class="st0" x1="110.9" y1="265.9" x2="89.7" y2="286.2"/>
	<line class="st0" x1="259.5" y1="123.8" x2="246" y2="136.7"/>
	<line class="st0" x1="143.5" y1="298.9" x2="120.6" y2="367.8"/>
	<line class="st0" x1="186.9" y1="301.7" x2="189.3" y2="321"/>
	<line class="st1" x1="86.3" y1="247.2" x2="68.3" y2="255.8"/>
	<line class="st1" x1="281.1" y1="153.9" x2="266.5" y2="160.9"/>
	<line class="st0" x1="89.7" y1="268.3" x2="2.1" y2="333.6"/>
	<line class="st0" x1="312.2" y1="102.3" x2="255.8" y2="144.4"/>
	<line class="st1" x1="74.3" y1="219.5" x2="60.8" y2="221.4"/>
	<line class="st1" x1="291.1" y1="187.8" x2="274.8" y2="190.2"/>
	<g>
		<path class="st2" d="M186.4,86.7c0.6,0.1,1.1,0.1,1.7,0.2"/>
		<path class="st3" d="M191.3,87.3c52.6,7.6,95.2,50.4,100.4,105.7c6.1,64.9-41.6,122.4-106.4,128.4C127.7,326.8,76,290,60.8,236.3"
			/>
		<path class="st2" d="M60.4,234.7c-0.1-0.5-0.3-1.1-0.4-1.6"/>
	</g>
	<circle class="st4" cx="186.4" cy="86.7" r="6.1"/>
	<polygon class="st4" points="59.7,232.1 54,235.6 57.2,223.6 66.4,232 	"/>
	<path class="st0" d="M206.3,301.7"/>
	<g>
		<path class="st5" d="M174.8,110.8c51.9,0,94,42.2,94,94s-42.2,94-94,94s-94-42.2-94-94S122.9,110.8,174.8,110.8 M174.8,99.8
			c-58,0-105,47-105,105s47,105,105,105s105-47,105-105S232.8,99.8,174.8,99.8L174.8,99.8z"/>
	</g>
	<g>
		<path class="st6" d="M174.8,121.5c45.9,0,83.3,37.4,83.3,83.3s-37.4,83.3-83.3,83.3s-83.3-37.4-83.3-83.3S128.9,121.5,174.8,121.5
			 M174.8,110.7c-52,0-94.1,42.1-94.1,94.1s42.1,94.1,94.1,94.1s94.1-42.1,94.1-94.1S226.8,110.7,174.8,110.7L174.8,110.7z"/>
	</g>
	<g>
		<g>
			<line class="st7" x1="228.5" y1="149.2" x2="121.1" y2="252.7"/>
			<line class="st7" x1="226.5" y1="254.6" x2="123.1" y2="147.3"/>
			<line class="st7" x1="216.4" y1="139.1" x2="133.2" y2="262.8"/>
			<line class="st7" x1="236.6" y1="242.5" x2="112.9" y2="159.4"/>
			<line class="st7" x1="248" y1="186.8" x2="101.6" y2="215.1"/>
			<line class="st7" x1="188.9" y1="274.1" x2="160.7" y2="127.8"/>
			<line class="st7" x1="249.3" y1="200.6" x2="100.3" y2="199.8"/>
			<line class="st7" x1="173.6" y1="275.5" x2="176" y2="126.4"/>
			<line class="st7" x1="226" y1="167.7" x2="123.6" y2="234.2"/>
			<line class="st7" x1="208" y1="252.1" x2="141.6" y2="149.8"/>
			<line class="st7" x1="234.5" y1="213.3" x2="115" y2="188.6"/>
			<line class="st7" x1="162.4" y1="260.7" x2="187.1" y2="141.2"/>
			<line class="st7" x1="230.6" y1="225.5" x2="118.9" y2="176.4"/>
			<line class="st7" x1="150.2" y1="256.8" x2="199.3" y2="145.1"/>
			<line class="st7" x1="231.6" y1="178.8" x2="117.9" y2="223.1"/>
			<line class="st7" x1="196.9" y1="257.8" x2="152.6" y2="144.1"/>
		</g>
		<g>
			<polygon class="st8" points="175.4,141.5 190.9,187.3 239.8,187.3 198.7,215.4 214.5,261 175.2,232.6 132.7,261 148.7,215.5
				107.5,187.3 159.9,187.3 			"/>
			<polygon class="st9" points="175.4,156.9 187.3,192 224.4,192 192.9,213.5 205,248.6 175.2,226.8 142.3,248.6 154.4,213.5
				122.9,192 163.5,192 			"/>
			<polygon class="st8" points="175.8,164.2 185.9,194 217.2,194.1 190.4,212.3 200.7,242.1 175.6,223.6 147.4,242.1 157.7,212.3
				130.9,194.1 165.7,194 			"/>
		</g>
	</g>
	<g>
		<g>
			<polygon class="st10" points="175.5,156.9 181.3,174.1 199.6,174.1 184.2,184.7 190.1,201.8 175.4,191.2 159.4,201.8
				165.4,184.7 149.9,174.1 169.6,174.1 			"/>
			<polygon class="st9" points="175.5,162.7 179.9,175.9 193.9,175.9 182,184 186.6,197.1 175.4,189 163,197.1 167.6,184
				155.7,175.9 171,175.9 			"/>
			<polygon class="st10" points="175.5,165.6 179.3,176.8 191,176.8 180.9,183.6 184.8,194.8 175.4,187.9 164.8,194.8 168.6,183.6
				158.6,176.8 171.7,176.8 			"/>
		</g>
		<g>
			<g>
				<path class="st11" d="M165.2,227.3c0-1.2-1-2.2-2.2-2.2h-4.9v7.5h1.1v-3.1h2.8l2.1,3.1h1.2l-2.1-3.1
					C164.5,229.2,165.2,228.5,165.2,227.3z M163.7,228.3c-0.2,0.2-0.5,0.3-0.8,0.3h-3.8v-2.4h3.9c0.8,0,1.1,0.7,1.1,1.2v0
					C164.1,227.7,164,228,163.7,228.3z"/>
				<path class="st11" d="M172.8,230.1c0,1.1-1.2,1.6-2.4,1.6c-1.2,0-2.3-0.6-2.3-1.6v-5h-1v5.1c0,0.6,0.2,1.2,0.7,1.7
					c0.6,0.6,1.5,0.9,2.6,0.9c0,0,0,0,0.1,0c2.3,0,3.5-0.9,3.5-2.5v-5.1h-1V230.1z"/>
				<path class="st11" d="M181.3,225.1h-4.9v7.5h1.1v-3.1h3.7c1,0,1.9-0.9,1.9-2.1v0c0-0.6-0.3-1.3-0.7-1.8
					C182.1,225.3,181.7,225.1,181.3,225.1z M182.1,227.4L182.1,227.4c0,0.3-0.1,0.7-0.4,0.9c-0.1,0.1-0.3,0.2-0.4,0.2h-3.8v-2.4h3.7
					C181.7,226.1,182.1,226.8,182.1,227.4z"/>
				<path class="st11" d="M189.9,225.1H185v7.5h1.1v-3.1h3.7c1,0,1.9-0.9,1.9-2.1c0-0.6-0.3-1.3-0.7-1.8
					C190.6,225.3,190.2,225.1,189.9,225.1z M190.6,227.4L190.6,227.4c0,0.3-0.1,0.7-0.4,0.9c-0.1,0.1-0.3,0.2-0.4,0.2H186v-2.4h3.7
					C190.2,226.1,190.6,226.8,190.6,227.4z"/>
				<path class="st11" d="M196.9,232.7c1.3,0,2.4-0.5,3.3-1.3c0.7-0.7,1.1-1.6,1.1-2.6c0-2.7-2.2-3.9-4.3-3.9
					c-1.2,0-2.3,0.5-3.2,1.3c-0.7,0.7-1.1,1.6-1.1,2.6C192.7,230.9,194.7,232.7,196.9,232.7z M193.8,228.9c0-1.6,1.7-2.8,3.1-2.8
					c0,0,0,0,0,0c0.9,0,1.8,0.4,2.4,1c0.5,0.5,0.8,1.1,0.8,1.8c0,0.7-0.3,1.4-0.8,1.9c-0.6,0.6-1.5,1-2.4,1c0,0,0,0,0,0
					C195.2,231.8,193.8,230.5,193.8,228.9z"/>
				<path class="st11" d="M152.5,229.6h2.6v1.3c-0.2,0.2-1,0.8-2.5,0.8c-2,0-3.2-1.1-3.2-2.9c0-1.6,1.2-2.7,3.1-2.8c0,0,0.1,0,0.1,0
					c1.5,0,2.7,0.9,2.7,0.9l0.1,0.1l0.7-0.8l-0.1-0.1c-1.2-0.8-2.2-1.2-3.3-1.2c-1.2,0-2.4,0.4-3.2,1.2c-0.7,0.7-1.1,1.6-1.1,2.6
					c0,2.4,1.7,3.9,4.3,3.9c2.4,0,3.5-1.4,3.5-1.5l0,0v-2.6h-3.7V229.6z"/>
			</g>
			<g>
				<path class="st11" d="M114.7,212.2c0-0.4,0.3-1,1.6-1c1.3,0,2.4,0.6,2.4,0.6l-0.2-2.7c-0.2,0.2-0.4,0.2-0.6,0.2
					c-0.5-0.1-1.1-0.2-1.9-0.2c-2.9,0-4.2,1.7-4.2,3.3c0,3,4.6,3.3,4.6,5.4c0,0.8-0.8,1.2-1.7,1.2c-1.9,0-3.2-0.9-3.2-0.9l0.3,2.7
					c0.2-0.1,0.5-0.1,0.7-0.1c0.6,0.2,1.5,0.4,2.5,0.4c2.7,0,4.2-1.5,4.2-3.3C119.3,213.9,114.7,214,114.7,212.2z"/>
				<path class="st11" d="M211.8,210.4l0,10.5h2.6v-11.6h-3.1C211.3,209.3,211.8,209.5,211.8,210.4z"/>
				<path class="st11" d="M209.5,213.1c0-2.1-1.7-3.8-3.8-3.8h-5.5c0,0,0.5,0.3,0.5,0.8v10.8h2.5l0-4h1.5l2.3,4h2.8l-2.4-4.4
					C208.6,215.9,209.5,214.6,209.5,213.1z M203.2,211.8h2.3c0.7,0,1.3,0.6,1.3,1.3c0,0.7-0.6,1.3-1.3,1.3h-2.3V211.8z"/>
				<path class="st11" d="M196.4,215.1c0,0.3,0,1.9,0,1.9s-1,1.6-2.5,1.6c-1.2,0-3-1.2-3-3.4s1.6-3.4,3-3.4c1.4,0,2.2,1,2.2,1
					l1.2-2.3c0,0-1.3-1.4-3.5-1.4c-2.9,0-5.4,2.4-5.4,6c0,3.7,2.7,6.1,5.4,6.1s3.6-1.6,5-3.1l0-3.5h-2.9
					C195.9,214.5,196.4,214.8,196.4,215.1z"/>
				<path class="st11" d="M232.6,209.1c-3,0-5.5,2.7-5.5,6c0,3.3,2.4,6,5.5,6c3,0,5.5-2.7,5.5-6C238,211.8,235.6,209.1,232.6,209.1z
					 M232.6,218.4c-1.4,0-2.6-1.4-2.6-3.3c0-1.9,1.2-3.3,2.6-3.3c1.4,0,2.6,1.4,2.6,3.3C235.2,217,234,218.4,232.6,218.4z"/>
				<path class="st11" d="M223.1,215.5l-3.5-6.1h-3.4c0,0,0.5,0.2,0.5,1.1l0,10.5h2.4v-7.2l3.9,7.2l2.4,0v-11.6l-2.4,0V215.5z"/>
				<path class="st11" d="M182.4,216.3h3.5v-2.5h-3.5v-2l4.5,0l-0.6-2.5l-6.7,0c0,0,0.5,0.2,0.5,1.1l0,10.6h6.7l0.6-2.6l-4.9,0
					V216.3z"/>
				<path class="st11" d="M138.3,215.5l-3.5-6.1h-3.4c0,0,0.5,0.2,0.5,1.1l0,10.5h2.4v-7.2l3.9,7.2l2.4,0v-11.6l-2.4,0V215.5z"/>
				<path class="st11" d="M173.8,209.3h-3.1c0,0,0.5,0.2,0.5,1.1v10.5h6.7l0.6-2.6l-4.6,0V209.3z"/>
				<path class="st11" d="M122.8,209.3c0,0,0.6,0.3,0.4,1l-3.1,10.6h2.3l0.8-2.7h3.6l0.9,2.7h2.8l-3.8-11.6H122.8z M123.9,216
					l1.1-3.7l1.2,3.7H123.9z"/>
				<path class="st11" d="M148,209.3h-5.5c0,0,0.5,0.2,0.5,1.1v10.5h2.5l0-4h2.5c2.1,0,3.8-1.7,3.8-3.8
					C151.8,211,150.1,209.3,148,209.3z M147.8,214.5h-2.3v-2.7h2.3c0.7,0,1.3,0.6,1.3,1.3S148.6,214.5,147.8,214.5z"/>
				<path class="st11" d="M164.9,209.3h-3.1c0,0,0.5,0.2,0.5,1.1v10.5h6.7l0.6-2.6l-4.6,0V209.3z"/>
				<path class="st11" d="M155.6,216.3h3.5v-2.5h-3.5v-2l4.5,0l-0.6-2.5l-6.7,0c0,0,0.5,0.2,0.5,1.1l0,10.6h6.7l0.6-2.6l-4.9,0
					V216.3z"/>
			</g>
		</g>
	</g>
	<path class="st11" d="M174.8,131.8c40.2,0,73,32.7,73,73s-32.7,73-73,73s-73-32.7-73-73S134.5,131.8,174.8,131.8 M174.8,120.8
		c-46.4,0-84,37.6-84,84s37.6,84,84,84c46.4,0,84-37.6,84-84S221.2,120.8,174.8,120.8L174.8,120.8z"/>
</g>
</svg>
