<?xml version="1.0" encoding="utf-8"?>
<!-- Generator: Adobe Illustrator 22.0.0, SVG Export Plug-In . SVG Version: 6.00 Build 0)  -->
<svg version="1.1" baseProfile="basic" id="Livello_1"
	 xmlns="http://www.w3.org/2000/svg" xmlns:xlink="http://www.w3.org/1999/xlink" x="0px" y="0px" viewBox="0 0 444 462"
	 xml:space="preserve">
<style type="text/css">
	.ab0{fill:none;stroke:#1D1D1B;stroke-width:0.75;stroke-miterlimit:10;}
	.ab1{fill:none;stroke:#12100B;stroke-width:0.9789;stroke-miterlimit:10;}
	.ab2{fill:none;stroke:#1D1D1B;stroke-miterlimit:10;}
	.ab3{fill:none;stroke:#1D1D1B;stroke-miterlimit:10;stroke-dasharray:3.3404,3.3404;}
	.ab4{fill:#1D1D1B;}
	.ab5{opacity:0.13;}
	.ab6{fill:#009C3D;}
	.ab7{fill:#EE7900;}
	.ab8{fill:none;stroke:#ECECEC;stroke-width:0.7403;stroke-miterlimit:10;}
	.ab9{fill:#EBEAE9;}
	.ab10{fill:#FFFFFF;}
	.ab11{fill:#E30520;}
	.ab12{fill:#00295A;}
	.ab13{display:none;}
	.ab14{display:inline;fill:none;stroke:#1D1D1B;stroke-width:0.75;stroke-miterlimit:10;}
	.ab15{display:inline;fill:none;stroke:#12100B;stroke-width:0.9789;stroke-miterlimit:10;}
	.ab16{display:inline;}
	.ab17{display:inline;fill:#1D1D1B;}
	.ab18{display:inline;fill:#00295A;}
	.ab19{fill:none;stroke:#1D1D1B;stroke-miterlimit:10;stroke-dasharray:3.3312,3.3312;}
	.ab20{display:inline;fill:none;stroke:#F6CB37;stroke-miterlimit:10;}
	.ab21{display:inline;fill:none;stroke:#AC9EAD;stroke-miterlimit:10;}
	.ab22{display:inline;fill:none;stroke:#82C3E3;stroke-miterlimit:10;}
	.ab23{display:inline;fill:none;stroke:#B4CC6F;stroke-miterlimit:10;}
	.ab24{display:inline;fill:none;stroke:#D9C086;stroke-miterlimit:10;}
	.ab25{fill:#E40077;}
	.ab26{display:inline;fill:#00883D;}
	.ab27{display:inline;fill-rule:evenodd;clip-rule:evenodd;fill:#EB6508;}
	.ab28{display:inline;fill:#AC9EAD;}
	.ab29{display:inline;fill:#D9C086;}
	.ab30{display:inline;fill:#82C3E3;}
	.ab31{display:inline;fill:#F6CB37;}
	.ab32{display:inline;fill:#B4CC6F;}
</style>
<g id="ruota1">
	<line class="ab0" x1="328.1" y1="265.6" x2="340.7" y2="269.8"/>
	<line class="ab0" x1="218.6" y1="337.1" x2="217.4" y2="349.7"/>
	<line class="ab0" x1="239.7" y1="118.5" x2="238.8" y2="128"/>
	<line class="ab0" x1="290.5" y1="316.7" x2="298.6" y2="327.7"/>
	<line class="ab0" x1="173.8" y1="322.1" x2="166.9" y2="332.6"/>
	<line class="ab0" x1="297.5" y1="136.7" x2="290.3" y2="147.5"/>
	<line class="ab0" x1="152.8" y1="305.1" x2="143.6" y2="314"/>
	<line class="ab0" x1="313.4" y1="151.5" x2="304.6" y2="160"/>
	<line class="ab0" x1="241.7" y1="336.8" x2="243.2" y2="348.8"/>
	<line class="ab1" x1="133.9" y1="278" x2="122.2" y2="283.6"/>
	<line class="ab1" x1="335" y1="181.6" x2="323.4" y2="187.2"/>
	<line class="ab1" x1="124.7" y1="247.7" x2="114.7" y2="249.2"/>
	<line class="ab1" x1="345" y1="215.6" x2="332.4" y2="217.4"/>
	<g>
		<path class="ab2" d="M240.3,114.4c0.6,0.1,1.1,0.1,1.7,0.2"/>
		<path class="ab3" d="M245.2,115c52.6,7.6,95.2,50.4,100.4,105.7c6.1,64.9-41.6,122.4-106.4,128.4c-57.5,5.4-109.3-31.5-124.5-85.1
			"/>
		<path class="ab2" d="M114.2,262.4c-0.1-0.5-0.3-1.1-0.4-1.6"/>
	</g>
	<circle class="ab4" cx="240.3" cy="114.4" r="6.1"/>
	<polygon class="ab4" points="113.6,259.9 107.9,263.4 111.1,251.3 120.3,259.7 	"/>
	<path class="ab0" d="M260.2,329.5"/>
	<g class="ab5">
		<path class="ab6" d="M228.7,138.5c51.9,0,94,42.2,94,94s-42.2,94-94,94s-94-42.2-94-94S176.8,138.5,228.7,138.5 M228.7,127.5
			c-58,0-105,47-105,105c0,58,47,105,105,105s105-47,105-105C333.7,174.5,286.7,127.5,228.7,127.5L228.7,127.5z"/>
	</g>
	<g class="ab5">
		<path class="ab7" d="M228.7,149.3c45.9,0,83.3,37.4,83.3,83.3c0,45.9-37.4,83.3-83.3,83.3s-83.3-37.4-83.3-83.3
			C145.4,186.6,182.7,149.3,228.7,149.3 M228.7,138.4c-52,0-94.1,42.1-94.1,94.1c0,52,42.1,94.1,94.1,94.1s94.1-42.1,94.1-94.1
			C322.8,180.6,280.7,138.4,228.7,138.4L228.7,138.4z"/>
	</g>
	<g>
		<g>
			<line class="ab8" x1="282.3" y1="177" x2="175" y2="280.4"/>
			<line class="ab8" x1="280.4" y1="282.4" x2="177" y2="175"/>
			<line class="ab8" x1="270.3" y1="166.9" x2="187.1" y2="290.5"/>
			<line class="ab8" x1="290.5" y1="270.3" x2="166.8" y2="187.1"/>
			<line class="ab8" x1="301.9" y1="214.6" x2="155.5" y2="242.8"/>
			<line class="ab8" x1="242.8" y1="301.9" x2="214.6" y2="155.5"/>
			<line class="ab8" x1="303.2" y1="228.3" x2="154.2" y2="227.5"/>
			<line class="ab8" x1="227.5" y1="303.2" x2="229.8" y2="154.2"/>
			<line class="ab8" x1="279.9" y1="195.5" x2="177.5" y2="261.9"/>
			<line class="ab8" x1="261.9" y1="279.9" x2="195.5" y2="177.5"/>
			<line class="ab8" x1="288.4" y1="241.1" x2="168.9" y2="216.3"/>
			<line class="ab8" x1="216.3" y1="288.4" x2="241" y2="169"/>
			<line class="ab8" x1="284.5" y1="253.3" x2="172.8" y2="204.1"/>
			<line class="ab8" x1="204.1" y1="284.6" x2="253.2" y2="172.8"/>
			<line class="ab8" x1="285.5" y1="206.5" x2="171.8" y2="250.9"/>
			<line class="ab8" x1="250.8" y1="285.5" x2="206.5" y2="171.9"/>
		</g>
		<g>
			<polygon class="ab9" points="229.3,169.3 244.8,215.1 293.7,215 252.6,243.1 268.4,288.8 229,260.4 186.6,288.8 202.6,243.2
				161.3,215 213.8,215.1 			"/>
			<polygon class="ab10" points="229.3,184.6 241.2,219.8 278.3,219.8 246.8,241.3 258.9,276.3 229,254.5 196.1,276.3 208.2,241.3
				176.7,219.8 217.4,219.8 			"/>
			<polygon class="ab9" points="229.7,191.9 239.8,221.8 271.1,221.8 244.3,240.1 254.6,269.9 229.5,251.3 201.3,269.9 211.6,240.1
				184.8,221.8 219.6,221.8 			"/>
		</g>
	</g>
	<g>
		<g>
			<polygon class="ab11" points="229.3,184.7 235.2,201.9 253.5,201.9 238.1,212.4 244,229.6 229.2,218.9 213.3,229.6 219.3,212.5
				203.8,201.9 223.5,201.9 			"/>
			<polygon class="ab10" points="229.3,190.5 233.8,203.6 247.7,203.7 235.9,211.7 240.5,224.9 229.2,216.7 216.9,224.9
				221.4,211.7 209.6,203.7 224.9,203.6 			"/>
			<polygon class="ab11" points="229.3,193.3 233.1,204.5 244.9,204.5 234.8,211.4 238.7,222.6 229.2,215.6 218.7,222.6
				222.5,211.4 212.5,204.5 225.5,204.5 			"/>
		</g>
		<g>
			<g>
				<path class="ab12" d="M219.1,255.1c0-1.2-1-2.2-2.2-2.2H212v7.5h1.1v-3.1h2.8l2.1,3.1h1.2l-2.1-3.1
					C218.4,257,219.1,256.3,219.1,255.1z M217.6,256c-0.2,0.2-0.5,0.3-0.8,0.3H213v-2.4h3.9c0.8,0,1.1,0.7,1.1,1.2v0
					C218,255.4,217.8,255.8,217.6,256z"/>
				<path class="ab12" d="M226.7,257.8c0,1.1-1.2,1.6-2.4,1.6c-1.2,0-2.3-0.6-2.3-1.6v-5h-1v5.1c0,0.6,0.2,1.2,0.7,1.7
					c0.6,0.6,1.5,0.9,2.6,0.9c0,0,0,0,0.1,0c2.3,0,3.5-0.9,3.5-2.5v-5.1h-1V257.8z"/>
				<path class="ab12" d="M235.2,252.9h-4.9v7.5h1.1v-3.1h3.7c1,0,1.9-0.9,1.9-2.1v0c0-0.6-0.3-1.3-0.7-1.8
					C236,253.1,235.6,252.9,235.2,252.9z M236,255.2L236,255.2c0,0.3-0.1,0.7-0.4,0.9c-0.1,0.1-0.3,0.2-0.4,0.2h-3.8v-2.4h3.7
					C235.5,253.9,236,254.5,236,255.2z"/>
				<path class="ab12" d="M243.7,252.9h-4.9v7.5h1.1v-3.1h3.7c1,0,1.9-0.9,1.9-2.1c0-0.6-0.3-1.3-0.7-1.8
					C244.5,253.1,244.1,252.9,243.7,252.9z M244.5,255.2L244.5,255.2c0,0.3-0.1,0.7-0.4,0.9c-0.1,0.1-0.3,0.2-0.4,0.2h-3.8v-2.4h3.7
					C244.1,253.9,244.5,254.5,244.5,255.2z"/>
				<path class="ab12" d="M250.8,260.5c1.3,0,2.4-0.5,3.3-1.3c0.7-0.7,1.1-1.6,1.1-2.6c0-2.7-2.2-3.9-4.3-3.9
					c-1.2,0-2.3,0.5-3.2,1.3c-0.7,0.7-1.1,1.6-1.1,2.6C246.6,258.7,248.6,260.5,250.8,260.5z M247.7,256.6c0-1.6,1.7-2.8,3.1-2.8
					c0,0,0,0,0,0c0.9,0,1.8,0.4,2.4,1c0.5,0.5,0.8,1.1,0.8,1.8c0,0.7-0.3,1.4-0.8,1.9c-0.6,0.6-1.5,1-2.4,1c0,0,0,0,0,0
					C249.1,259.5,247.7,258.2,247.7,256.6z"/>
				<path class="ab12" d="M206.4,257.3h2.6v1.3c-0.2,0.2-1,0.8-2.5,0.8c-2,0-3.2-1.1-3.2-2.9c0-1.6,1.2-2.7,3.1-2.8c0,0,0.1,0,0.1,0
					c1.5,0,2.7,0.9,2.7,0.9l0.1,0.1l0.7-0.8l-0.1-0.1c-1.2-0.8-2.2-1.2-3.3-1.2c-1.2,0-2.4,0.4-3.2,1.2c-0.7,0.7-1.1,1.6-1.1,2.6
					c0,2.4,1.7,3.9,4.3,3.9c2.4,0,3.5-1.4,3.5-1.5l0,0v-2.6h-3.7V257.3z"/>
			</g>
			<g>
				<path class="ab12" d="M168.6,239.9c0-0.4,0.3-1,1.6-1c1.3,0,2.4,0.6,2.4,0.6l-0.2-2.7c-0.2,0.2-0.4,0.2-0.6,0.2
					c-0.5-0.1-1.1-0.2-1.9-0.2c-2.9,0-4.2,1.7-4.2,3.3c0,3,4.6,3.3,4.6,5.4c0,0.8-0.8,1.2-1.7,1.2c-1.9,0-3.2-0.9-3.2-0.9l0.3,2.7
					c0.2-0.1,0.5-0.1,0.7-0.1c0.6,0.2,1.5,0.4,2.5,0.4c2.7,0,4.2-1.5,4.2-3.3C173.2,241.7,168.6,241.7,168.6,239.9z"/>
				<path class="ab12" d="M265.7,238.1l0,10.5h2.6v-11.6h-3.1C265.2,237.1,265.7,237.3,265.7,238.1z"/>
				<path class="ab12" d="M263.4,240.9c0-2.1-1.7-3.8-3.8-3.8H254c0,0,0.5,0.3,0.5,0.8v10.8h2.5l0-4h1.5l2.3,4h2.8l-2.4-4.4
					C262.5,243.7,263.4,242.4,263.4,240.9z M257,239.5h2.3c0.7,0,1.3,0.6,1.3,1.3c0,0.7-0.6,1.3-1.3,1.3H257V239.5z"/>
				<path class="ab12" d="M250.2,242.8c0,0.3,0,1.9,0,1.9s-1,1.6-2.5,1.6c-1.2,0-3-1.2-3-3.4c0-2.2,1.6-3.4,3-3.4c1.4,0,2.2,1,2.2,1
					l1.2-2.3c0,0-1.3-1.4-3.5-1.4c-2.9,0-5.4,2.4-5.4,6c0,3.7,2.8,6.1,5.4,6.1s3.6-1.6,5-3.1l0-3.5h-2.9
					C249.8,242.3,250.2,242.5,250.2,242.8z"/>
				<path class="ab12" d="M286.4,236.8c-3,0-5.5,2.7-5.5,6c0,3.3,2.4,6,5.5,6s5.5-2.7,5.5-6C291.9,239.5,289.5,236.8,286.4,236.8z
					 M286.4,246.1c-1.4,0-2.6-1.4-2.6-3.3s1.2-3.3,2.6-3.3s2.6,1.4,2.6,3.3S287.9,246.1,286.4,246.1z"/>
				<path class="ab12" d="M277,243.2l-3.5-6.1h-3.4c0,0,0.5,0.2,0.5,1.1l0,10.5h2.4v-7.2l3.9,7.2l2.4,0v-11.6l-2.4,0V243.2z"/>
				<path class="ab12" d="M236.3,244h3.5v-2.5h-3.5v-2l4.5,0l-0.6-2.5l-6.7,0c0,0,0.5,0.2,0.5,1.1l0,10.6h6.7l0.6-2.6l-4.9,0V244z"
					/>
				<path class="ab12" d="M192.2,243.2l-3.5-6.1h-3.4c0,0,0.5,0.2,0.5,1.1l0,10.5h2.4v-7.2l3.9,7.2l2.4,0v-11.6l-2.4,0V243.2z"/>
				<path class="ab12" d="M227.7,237.1h-3.1c0,0,0.5,0.2,0.5,1.1v10.5h6.7l0.6-2.6l-4.6,0V237.1z"/>
				<path class="ab12" d="M176.7,237.1c0,0,0.6,0.3,0.4,1l-3.1,10.6h2.3l0.8-2.7h3.6l0.9,2.7h2.8l-3.8-11.6H176.7z M177.8,243.7
					l1.1-3.7l1.2,3.7H177.8z"/>
				<path class="ab12" d="M201.9,237.1h-5.5c0,0,0.5,0.2,0.5,1.1v10.5h2.5l0-4h2.5c2.1,0,3.8-1.7,3.8-3.8
					C205.7,238.8,204,237.1,201.9,237.1z M201.7,242.2h-2.3v-2.7h2.3c0.7,0,1.3,0.6,1.3,1.3C203,241.6,202.4,242.2,201.7,242.2z"/>
				<path class="ab12" d="M218.8,237.1h-3.1c0,0,0.5,0.2,0.5,1.1v10.5h6.7l0.6-2.6l-4.6,0V237.1z"/>
				<path class="ab12" d="M209.5,244h3.5v-2.5h-3.5v-2l4.5,0l-0.6-2.5l-6.7,0c0,0,0.5,0.2,0.5,1.1l0,10.6h6.7l0.6-2.6l-4.9,0V244z"
					/>
			</g>
		</g>
	</g>
	<g class="ab5">
		<path class="ab12" d="M228.7,159.6c40.2,0,73,32.7,73,73s-32.7,73-73,73s-73-32.7-73-73S188.4,159.6,228.7,159.6 M228.7,148.6
			c-46.4,0-84,37.6-84,84s37.6,84,84,84c46.4,0,84-37.6,84-84S275.1,148.6,228.7,148.6L228.7,148.6z"/>
	</g>
</g>
</svg>
