<?xml version="1.0" encoding="utf-8"?>
<!-- Generator: Adobe Illustrator 22.0.0, SVG Export Plug-In . SVG Version: 6.00 Build 0)  -->
<svg version="1.1" baseProfile="basic" id="Livello_1"
	 xmlns="http://www.w3.org/2000/svg" xmlns:xlink="http://www.w3.org/1999/xlink" x="0px" y="0px" viewBox="0 0 444 462"
	 xml:space="preserve">
<style type="text/css">
	.st0{fill:#E40077;}
	.st1{fill:#E30520;}
	.st2{fill:#00883D;}
	.st3{fill-rule:evenodd;clip-rule:evenodd;fill:#EB6508;}
	.st4{fill:none;stroke:#1D1D1B;stroke-miterlimit:10;}
	.st5{fill:none;stroke:#1D1D1B;stroke-miterlimit:10;stroke-dasharray:3.3312,3.3312;}
	.st6{fill:#1D1D1B;}
	.st7{fill:none;stroke:#1D1D1B;stroke-width:0.75;stroke-miterlimit:10;}
	.st8{fill:none;stroke:#F6CB37;stroke-miterlimit:10;}
	.st9{fill:none;stroke:#AC9EAD;stroke-miterlimit:10;}
	.st10{fill:none;stroke:#82C3E3;stroke-miterlimit:10;}
	.st11{fill:none;stroke:#B4CC6F;stroke-miterlimit:10;}
	.st12{fill:none;stroke:#D9C086;stroke-miterlimit:10;}
	.st13{fill:none;stroke:#12100B;stroke-width:0.9789;stroke-miterlimit:10;}
	.st14{fill:none;stroke:#1D1D1B;stroke-miterlimit:10;stroke-dasharray:3.3404,3.3404;}
	.st15{fill:#009C3D;}
	.st16{fill:#EE7900;}
	.st17{fill:none;stroke:#ECECEC;stroke-width:0.7403;stroke-miterlimit:10;}
	.st18{fill:#EBEAE9;}
	.st19{fill:#FFFFFF;}
	.st20{fill:#00295A;}
	.st21{fill:#AC9EAD;}
	.st22{fill:#D9C086;}
	.st23{fill:#82C3E3;}
	.st24{fill:#F6CB37;}
	.st25{fill:#B4CC6F;}
</style>
<g>
	<g>
		<path id="XMLID_141_" class="st0" d="M228.2,80.9c2,1,4.4,2.7,6.5,2.1c3-0.8,5.9-4.7,7.2-5.2c0,0,0.6,0.1,0.1,0.6
			c-4,3.8-4.7,9.3-2.9,12.6c0,0-1,0.9-1.4,1.2c-0.7,1.2-0.1,7,0.4,8.7c0,0-0.3,0.6-0.5,0.1c-1.3-3.1-1.8-6.1-1.9-7.4
			c-0.1-0.5-0.3-0.5-0.5,0c-0.6,1.7-1,4-1.3,8.1c0,0-0.4,0.6-0.5-0.1c-0.6-3.9,0.5-16.1,0.2-16.3c-2.3-1.2-4.6-3-5.4-4
			C227.9,81.1,228.2,80.9,228.2,80.9z"/>
		<path id="XMLID_137_" class="st0" d="M218.5,81.8c0.3,0.1,0.7,0,1-0.2c0.5-0.3,0.9-0.8,1-1.4c0.2-0.6,0.1-1.3-0.2-1.8
			c-0.2-0.3-0.5-0.6-0.8-0.7c-0.3-0.1-0.7,0-1,0.2c-0.5,0.3-0.9,0.8-1,1.4c-0.2,0.6-0.1,1.3,0.2,1.8
			C217.9,81.4,218.2,81.7,218.5,81.8z"/>
		<path id="XMLID_133_" class="st0" d="M235.7,80.3c-0.2-0.6-0.5-1-0.9-1.3c-0.3-0.2-0.6-0.2-0.9-0.1c-0.3,0.1-0.6,0.3-0.7,0.6
			c-0.2,0.4-0.3,1-0.2,1.6c0.3,1,1.1,1.6,1.8,1.4C235.6,82.2,236,81.3,235.7,80.3z"/>
		<path id="XMLID_129_" class="st0" d="M227.8,87.9c0.2,0,0.5-0.1,0.7-0.3c0.3-0.3,0.5-0.9,0.4-1.4c0-0.9-0.6-1.7-1.2-1.7
			c-0.2,0-0.5,0.1-0.6,0.3c-0.3,0.3-0.5,0.9-0.4,1.4C226.6,87.2,227.2,87.9,227.8,87.9z"/>
		<path id="XMLID_125_" class="st0" d="M225.8,100.5L225.8,100.5L225.8,100.5c0.6-3.6,1.2-5.4,1.4-5.9c0,0.9,0.7,4.1,1.2,5.2
			c0.3,0.7,0.7,0.2,0.7,0.2c-0.9-10.1,1.5-11.4,3.8-13.4c0.3-0.2,0-0.4,0-0.4c-0.5,0-2.4,1.1-2.6,1.2c-4.4,2.6-6.6-0.4-7.2-0.8
			c0,0-0.3,0-0.1,0.4c0.3,0.6,1.6,2.2,3.2,3.2c-0.7,2.3-1.1,8.1-0.9,10.1C225.3,101,225.8,100.5,225.8,100.5z"/>
		<path id="XMLID_121_" class="st0" d="M207.3,84c2.8,1.5,7.8,2.2,10,2.2c-0.8,6.5-0.6,13.9,0.3,17.4c0.2,0.9,0.8,0.3,0.8,0.3
			c-0.2-3.7,0.6-9.5,1.6-10.8c0.4,2,2,6.9,4.2,10.1c0.5,0.7,0.8,0.1,0.8,0.1c-4.6-15.5-2.6-19.8-0.5-24.3c0.7-1.5,1.3-2.9,1.9-4.8
			c0.2-0.9-0.6-0.6-0.6-0.6c-2.8,6.9-7.1,12.2-18.6,9.4C207,83.3,206.7,83.7,207.3,84z"/>
	</g>
	<g>
		<path id="XMLID_117_" class="st0" d="M137,357.5c-1-2-1.9-4.8-4-5.6c-2.9-1.1-7.5,0.3-8.9,0c0,0-0.5-0.5,0.3-0.6
			c5.5-0.7,9.3-4.8,9.8-8.4c0,0,1.4-0.1,1.9-0.2c1.3-0.6,4.2-5.6,4.9-7.3c0,0,0.6-0.3,0.5,0.2c-0.8,3.2-2.2,5.9-2.8,7.1
			c-0.3,0.4-0.1,0.6,0.4,0.3c1.5-1,3.2-2.6,5.8-5.8c0,0,0.7-0.2,0.4,0.4c-1.8,3.5-10,12.7-9.8,13c1.2,2.3,2,5.1,2,6.4
			C137.4,357.5,137,357.5,137,357.5z"/>
		<path id="XMLID_113_" class="st0" d="M145.3,362.6c-0.2-0.3-0.5-0.4-0.9-0.5c-0.6-0.1-1.2,0.1-1.7,0.6c-0.5,0.4-0.8,1-0.9,1.5
			c0,0.4,0,0.8,0.3,1c0.2,0.3,0.5,0.4,0.9,0.5c0.6,0.1,1.2-0.1,1.7-0.6c0.5-0.4,0.8-1,0.9-1.5C145.6,363.2,145.5,362.8,145.3,362.6z
			"/>
		<path id="XMLID_109_" class="st0" d="M130.6,353.6c-0.2,0.5-0.2,1.1,0,1.6c0.1,0.3,0.4,0.6,0.7,0.7c0.3,0.1,0.6,0.1,0.9-0.1
			c0.5-0.2,0.8-0.6,1.1-1.2c0.4-1,0.1-2-0.6-2.2C131.8,352.1,130.9,352.6,130.6,353.6z"/>
		<path id="XMLID_105_" class="st0" d="M141.5,352.1c-0.2-0.1-0.4-0.2-0.7-0.1c-0.4,0.1-0.9,0.4-1.2,0.9c-0.5,0.8-0.5,1.7,0,2.1
			c0.2,0.1,0.4,0.2,0.7,0.1c0.4-0.1,0.9-0.4,1.2-0.9C142,353.4,142,352.5,141.5,352.1z"/>
		<path id="XMLID_101_" class="st0" d="M150.6,343.1L150.6,343.1L150.6,343.1c-2.6,2.6-4.2,3.6-4.6,3.9c0.5-0.7,1.9-3.7,2.1-4.8
			c0.2-0.7-0.4-0.6-0.4-0.6c-5.2,8.7-8,8.3-11,8.5c-0.4,0-0.3,0.3-0.3,0.3c0.4,0.2,2.6,0.5,2.8,0.6c5.1,0.5,5.1,4.2,5.4,4.9
			c0,0,0.3,0.2,0.4-0.3c0.1-0.6,0-2.8-0.7-4.5c1.9-1.4,5.7-5.9,6.7-7.6C151.3,343,150.6,343.1,150.6,343.1z"/>
		<path id="XMLID_97_" class="st0" d="M155.7,367.5c-1.3-2.9-5-6.3-6.7-7.7c4.5-4.7,8.7-10.8,10.1-14.2c0.4-0.9-0.5-0.7-0.5-0.7
			c-2,3.1-6.1,7.3-7.7,7.7c0.8-1.8,2.5-6.7,2.6-10.7c0-0.8-0.5-0.6-0.5-0.6c-5.5,15.2-9.6,17.5-14,19.9c-1.4,0.8-2.8,1.5-4.4,2.8
			c-0.7,0.6,0.2,0.8,0.2,0.8c6.4-3.9,13-5.6,20.6,3.4C155.4,368.2,156,368,155.7,367.5z"/>
	</g>
	<g>
		<path class="st1" d="M380.9,275.1l-10.1,0l-3.1-9.6l-3.1,9.6l-10.1,0l8.2,6l-3.1,9.6l8.2-5.9l8.2,5.9l-3.1-9.6L380.9,275.1z
			 M374.3,288.5l-6.6-4.8l-6.6,4.8l2.5-7.8l-6.6-4.8l8.2,0l2.5-7.8l2.5,7.8l8.2,0l-6.6,4.8L374.3,288.5z"/>
		<polygon class="st1" points="359,276.6 364.3,280.5 362.3,286.8 367.7,282.9 373,286.8 371,280.5 376.3,276.6 376.3,276.6 
			369.7,276.6 367.7,270.3 365.6,276.6 359,276.6 		"/>
	</g>
	<g>
		<path class="st1" d="M381.3,184.7l-10.1,0l-3.1-9.6l-3.1,9.6l-10.1,0l8.2,6l-3.1,9.6l8.2-5.9l8.2,5.9l-3.1-9.6L381.3,184.7z
			 M374.7,198.1l-6.6-4.8l-6.6,4.8l2.5-7.8l-6.6-4.8l8.2,0l2.5-7.8l2.5,7.8l8.2,0l-6.6,4.8L374.7,198.1z"/>
		<polygon class="st1" points="359.4,186.2 364.8,190.1 362.7,196.4 368.1,192.5 373.4,196.4 371.4,190.1 376.7,186.2 376.7,186.2 
			370.1,186.2 368.1,179.9 366,186.2 359.4,186.2 		"/>
	</g>
	<g>
		<path class="st1" d="M106.2,271.7l-10.1,0l-3.1-9.6l-3.1,9.6l-10.1,0l8.2,6l-3.1,9.6l8.2-5.9l8.2,5.9l-3.1-9.6L106.2,271.7z
			 M99.6,285.2l-6.6-4.8l-6.6,4.8l2.5-7.8l-6.6-4.8l8.2,0l2.5-7.8l2.5,7.8l8.2,0l-6.6,4.8L99.6,285.2z"/>
		<polygon class="st1" points="84.3,273.2 89.7,277.1 87.6,283.4 93,279.6 98.4,283.5 96.3,277.1 101.7,273.3 101.6,273.2 
			95.1,273.2 93,266.9 91,273.2 84.3,273.2 		"/>
	</g>
	<path class="st2" d="M161.4,117.7c-2.8-1-5.7-1.9-8.5-2.9c-5.8-2-12.2-4.2-18-6.2l1.7,28.6c0,0,0.1-0.1,0.2-0.1
		c1.6-1.2,3.2-2.4,4.8-3.6c0.2-0.2,0.2-0.2,0.2-0.2l-0.7-15.1c-0.1-1.1,0.4-1.4,1.4-1.1c4.3,1.4,10,3.4,14.2,4.8c0,0,0.5-0.4,1.3-1
		c0.3-0.2,0.5-0.4,0.8-0.6c1-0.8,2.1-1.6,3.2-2.4C161.7,117.8,161.6,117.7,161.4,117.7z M141.8,113c0,0-0.7,0.5-0.7,0.5l-0.3,0.2
		c-0.3-0.1-1.3-0.4-1.6-0.5c-0.7-0.2-1.1,0.2-1.1,0.9c0,0.5,0.1,1.3,0.1,1.7c0,0-0.1,0.1-0.3,0.2c-0.5,0.3-0.9,0.7-1.5,1.1
		c-0.1-2.4-0.2-4.6-0.3-6.9l6.3,2.2C142.5,112.5,141.8,113,141.8,113z"/>
	<path class="st2" d="M212.3,367c1.7,2.5,3.4,5,5,7.4c3.5,5.1,7.2,10.6,10.7,15.7l15.8-23.9c0,0-0.2,0-0.2,0c-2,0-4,0-6,0
		c-0.3,0-0.3,0-0.3,0l-8.5,12.5c-0.6,0.9-1.2,0.9-1.8,0c-2.6-3.7-5.9-8.7-8.5-12.4c0,0-0.7,0-1.7,0c-0.3,0-0.7,0-1,0
		c-1.3,0-2.6,0-4,0C212.1,366.7,212.2,366.9,212.3,367z M225.2,382.5c0,0,0.8,0,0.8,0l0.3,0c0.2,0.3,0.8,1.1,1,1.4
		c0.5,0.5,1,0.5,1.4-0.1c0.3-0.4,0.7-1.1,1-1.5c0,0,0.1,0,0.4,0c0.6,0,1.1,0,1.8,0c-1.3,2-2.6,3.8-3.9,5.7l-3.7-5.6
		C224.3,382.5,225.2,382.5,225.2,382.5z"/>
	<path class="st3" d="M310.3,359.7c1,0.9,2.6,0.9,3.6,0c0.8-0.7,1.3-1.5,1.6-2.5c0.7-2.2,0.4-4.3-0.5-6.3c-0.4-1-1-1.8-1.7-2.7
		c-0.2-0.3-0.2-0.3,0.1-0.5c0,0,0.1,0,0.1-0.1c0.1,0.2,0.3,0.3,0.4,0.5c0.6,0.7,1.2,1.4,1.7,2.3c0.6,1,1.1,2.1,1.6,3.2
		c0.5,1,1,2,1.7,2.8c0.7,0.8,1.5,1.6,2.4,2.2c1.5,1,3.2,1.7,5,1.9c0.3,0,0.5,0.1,0.8,0.1c0,0,0,0,0,0c0-1.1-0.3-2.1-0.6-3.1
		c-0.5-1.3-1.1-2.4-2-3.5c-0.6-0.7-1.3-1.4-2.1-2c-0.8-0.6-1.7-1.1-2.7-1.5c-1.6-0.7-3.1-1.4-4.4-2.5c-0.4-0.3-0.8-0.7-1.2-1
		c0.1-0.2,0.2-0.3,0.3-0.4c0.1,0.1,0.1,0.1,0.2,0.2c0.4,0.3,0.9,0.7,1.4,1c2,1.3,4.2,1.9,6.7,1.5c1.3-0.2,2.6-0.7,3.5-1.8
		c0.3-0.4,0.6-0.8,0.7-1.3c0.3-1.3-0.4-2.6-1.7-3.2c-1-0.5-2.1-0.5-3.1-0.4c-0.9,0.1-1.9,0.3-2.8,0.4c-0.8,0.1-1.5,0.1-2.3-0.1
		c0,0-0.1,0-0.1,0c0.2,0.5,0.4,0.9,0.5,1.4c0.3-0.1,0.6-0.1,0.9-0.2c0.5-0.1,1.1-0.2,1.6,0c1,0.4,1.4,1.6,0.7,2.4
		c-0.4,0.5-0.9,0.7-1.5,0.8c-1.1,0.2-2.1-0.1-3.1-0.7c-0.3-0.2-0.7-0.5-1-0.7c0.2-0.3,0.4-0.6,0.6-0.9c0.3-0.5,0.3-0.5-0.1-0.9
		c0,0,0,0,0,0c-0.1,0-0.1,0-0.2,0c-0.2,0.1-0.3,0.2-0.5,0.3c-0.2,0.1-0.4,0.3-0.7,0.4c-0.2-0.4-0.4-0.8-0.4-1.3
		c0-0.7,0.2-1.4,0.9-1.8c0.2-0.1,0.4-0.2,0.6-0.3c-0.1-0.2-0.4-0.6-0.7-0.8c-0.7-0.5-1.5-0.3-2,0.3c-0.5,0.6-0.5,1.2-0.4,1.8
		c0.2,0.9,0.5,1.6,1,2.4c0.2,0.3,0.2,0.3,0,0.5c-0.1,0.1-0.2,0.1-0.3,0c-0.4-0.6-0.8-1.3-1.2-1.9c-0.3-0.5-0.6-0.9-1-1.3
		c-0.7-0.6-1.5-0.9-2.4-1c0.6,0.6,3.5,3.4,3.5,3.4s-0.1-0.7-0.6-1.5c-0.6-0.8-1.1-1.2-1.3-1.3c-0.1,0-0.1-0.1-0.1-0.1s0,0,0.1,0.1
		c0.3,0.2,1.1,0.6,1.5,1.1c0.6,0.8,0.6,1.8,0.6,1.8s-1.4,0-2.4-1.2c-0.5-0.5-0.9-1.7-1.3-2.4c0,0-0.1,0-0.1,0c-0.1,0-0.1,0-0.2,0
		c0.1,0.4,0.2,0.8,0.3,1.1c0.2,0.8,0.6,1.6,1.3,2.1c0.4,0.3,0.9,0.6,1.3,0.8c0.5,0.3,1.1,0.6,1.5,1c-0.1,0.1-0.2,0.2-0.3,0.4
		c0,0,0,0-0.1,0c-0.1-0.1-0.3-0.2-0.4-0.3c-0.7-0.5-1.5-0.9-2.4-1c-0.7-0.1-1.4,0.1-1.9,0.7c-0.5,0.6-0.5,1.3,0,1.9
		c0.2,0.2,0.4,0.5,0.7,0.6c0.1-1.3,2.1-2,3.4-1.1c-0.2,0.3-0.3,0.5-0.5,0.8c-0.3,0.5-0.3,0.5,0.1,0.9c0.1,0.1,0.2,0.1,0.3,0
		c0.4-0.2,0.7-0.4,1.1-0.7c0.1-0.1,0.2-0.1,0.3,0c0.6,0.7,1,1.4,1.2,2.3c0.2,0.9,0.2,1.8-0.3,2.6c-0.3,0.5-0.7,0.8-1.4,0.9
		c-0.8,0-1.5-0.6-1.6-1.4c-0.1-0.5,0-0.9,0.1-1.3c0.1-0.3,0.1-0.6,0.2-0.9c-0.5,0-0.9-0.2-1.2-0.4c0,0-0.1,0-0.1,0
		c0,0.1,0,0.1,0,0.2c0.2,0.5,0.2,0.9,0.2,1.4c-0.1,1.1-0.3,2.1-0.4,3.2c-0.1,0.7-0.2,1.3-0.1,2C309.1,358.1,309.5,359,310.3,359.7z
		 M321.5,345.3c0-1.5-1.6-2-1.6-2s1.7-0.3,3.1,0.5c0.4,0.2,0.9,0.7,0.9,1.4c0.1,1.1-0.7,1.5-1.2,1.8c-2.4,1.4-5.3,0.7-5.3,0.7
		C320.7,347.7,321.5,346.4,321.5,345.3z M321,348.6c4.1,0.2,5.2-2.2,5.2-3.1c0.1-2-2.7-2.7-2.7-2.7s1.2,0.1,2.2,1
		c0.2,0.1,0.8,0.8,0.8,1.5c0.1,1.1-0.6,2-1.3,2.4c-3.7,2.6-7.8,0-7.8,0C318.8,348.2,320,348.5,321,348.6z M313.2,341.3
		c0.3-0.5,1.3-0.4,1.3-0.4c-1.9,0.9-1.1,3.1-1.1,3.1S312.5,342.4,313.2,341.3z M326.2,359.5c0,0-0.3-2.3-2.1-4.6
		c-1.9-2.5-3.6-3.7-4.2-4.1c-0.2-0.1-0.3-0.2-0.3-0.2s0.1,0.1,0.3,0.2c0.9,0.5,3.3,2.1,4.6,3.7c2,2.5,2.2,5.5,2.2,5.5
		s-4.2-0.3-7.6-4c-1.7-1.8-2.9-5.8-4.4-7.8C314.7,348.2,326.2,359.5,326.2,359.5z M307.7,347.6c0,0-0.1-0.9,0.4-1.3
		c1.1-0.7,2.7,0.2,2.7,0.2S308.6,345.8,307.7,347.6z M310.5,356.4c-0.8-1.5-0.5-3.1-0.5-3.1s0.5,1.6,2,1.6c1.1,0,2.4-0.8,2.4-4
		c0,0,0.8,2.8-0.7,5.3c-0.3,0.5-0.7,1.2-1.8,1.2C311.2,357.2,310.7,356.7,310.5,356.4z M310.5,359c-0.9-1-1-2.2-1-2.2
		s0.6,2.8,2.7,2.7c0.9,0,3.3-1.1,3.1-5.2c0-1-0.4-2.1-0.8-3.5c0,0,2.6,4.1,0,7.8c-0.4,0.6-1.4,1.3-2.4,1.3
		C311.3,359.8,310.6,359.2,310.5,359z M320.8,359.4c-1.1-0.1-2.2-0.3-3.1-0.9c-0.3-0.2-0.4-0.1-0.6,0.1c-0.7,0.7-1.5,1.2-2.5,1.6
		c1.2-1.8,1.7-3.7,2-5.7C317.7,356.4,319.2,358,320.8,359.4z"/>
	<g>
		<path id="XMLID_93_" class="st0" d="M85.4,183.5c1.6-1.5,4.1-3.2,4.2-5.4c0.2-3.1-2.4-7.1-2.5-8.5c0,0,0.3-0.6,0.6,0.1
			c2.2,5.1,7.2,7.6,10.8,7c0,0,0.5,1.3,0.7,1.8c0.9,1.1,6.6,2.4,8.3,2.6c0,0,0.5,0.5-0.1,0.5c-3.3,0.1-6.3-0.4-7.6-0.7
			c-0.5-0.1-0.6,0.1-0.2,0.4c1.3,1.2,3.4,2.4,7.2,4c0,0,0.4,0.6-0.3,0.5c-3.9-0.8-15-6-15.2-5.8c-1.9,1.8-4.4,3.3-5.6,3.7
			C85.5,183.9,85.4,183.5,85.4,183.5z"/>
		<path id="XMLID_89_" class="st0" d="M82.9,192.9c0.2-0.3,0.3-0.6,0.2-1c-0.1-0.6-0.5-1.1-1-1.5c-0.5-0.4-1.2-0.5-1.7-0.4
			c-0.4,0.1-0.7,0.3-0.9,0.5c-0.2,0.3-0.3,0.6-0.2,1c0.1,0.5,0.5,1.1,1,1.5c0.5,0.4,1.2,0.5,1.7,0.4
			C82.4,193.4,82.7,193.2,82.9,192.9z"/>
		<path id="XMLID_85_" class="st0" d="M87.4,176.2c-0.6-0.1-1.1,0.1-1.5,0.4c-0.3,0.2-0.4,0.5-0.5,0.8c0,0.3,0.1,0.6,0.3,0.9
			c0.3,0.4,0.8,0.6,1.4,0.7c1,0.1,1.9-0.5,2-1.2C89.2,177,88.4,176.3,87.4,176.2z"/>
		<path id="XMLID_81_" class="st0" d="M91.9,186.3c0.1-0.2,0-0.5-0.1-0.7c-0.2-0.4-0.7-0.7-1.2-0.9c-0.9-0.3-1.8,0-2,0.6
			c-0.1,0.2,0,0.5,0.1,0.7c0.2,0.4,0.7,0.7,1.2,0.9C90.8,187.2,91.7,186.9,91.9,186.3z"/>
		<path id="XMLID_10_" class="st0" d="M103,192.5L103,192.5L103,192.5c-3.2-1.8-4.6-3-5-3.4c0.9,0.3,4.1,0.8,5.3,0.7
			c0.7-0.1,0.4-0.6,0.4-0.6c-9.8-2.6-10.2-5.4-11.3-8.2c-0.1-0.3-0.4-0.2-0.4-0.2c-0.1,0.5,0.2,2.6,0.2,2.9c0.9,5.1-2.6,6.1-3.2,6.5
			c0,0-0.1,0.3,0.4,0.3c0.6,0,2.7-0.8,4.1-1.9c1.9,1.5,7.3,3.8,9.1,4.3C103.3,193.2,103,192.5,103,192.5z"/>
		<path id="XMLID_6_" class="st0" d="M81.1,204.2c2.4-2.1,4.7-6.6,5.5-8.6c5.8,3,12.8,5.3,16.5,5.7c1,0.1,0.5-0.6,0.5-0.6
			c-3.5-1.1-8.7-3.8-9.5-5.2c2,0.3,7.1,0.5,11-0.5c0.8-0.2,0.4-0.7,0.4-0.7c-16.1-1-19.5-4.3-23-7.8c-1.1-1.1-2.3-2.2-3.9-3.4
			c-0.7-0.5-0.7,0.4-0.7,0.4c5.5,5,9,10.9,2.5,20.7C80.4,204.2,80.6,204.7,81.1,204.2z"/>
	</g>
	<path class="st2" d="M320.2,136.4c0.4-3,0.8-5.9,1.2-8.9c0.8-6.1,1.7-12.7,2.5-18.9l-27.7,7.3c0,0,0.1,0.1,0.2,0.1
		c1.5,1.3,3,2.6,4.5,3.9c0.2,0.2,0.2,0.2,0.2,0.2l14.6-3.7c1.1-0.3,1.5,0.1,1.4,1.2c-0.5,4.5-1.3,10.4-1.9,14.9c0,0,0.5,0.4,1.3,1.1
		c0.2,0.2,0.5,0.4,0.8,0.7c1,0.9,2,1.7,3,2.6C320.1,136.7,320.2,136.5,320.2,136.4z M320.9,116.2c0,0-0.6-0.5-0.6-0.6l-0.2-0.2
		c0.1-0.3,0.2-1.3,0.2-1.7c0-0.7-0.4-1-1.1-0.9c-0.5,0.1-1.2,0.3-1.7,0.5c0,0-0.1-0.1-0.3-0.3c-0.4-0.4-0.8-0.7-1.4-1.2
		c2.3-0.6,4.5-1.1,6.7-1.7l-0.9,6.6C321.6,116.8,320.9,116.2,320.9,116.2z"/>
	<g>
		<path class="st4" d="M424,353.4c-0.3,0.5-0.6,0.9-0.9,1.4"/>
		<path class="st5" d="M421.4,357.6c-57.4,88.2-170.2,127.9-272.7,89.3C30.2,402.3-29.7,270.1,14.9,151.7
			C54.8,45.6,165-13.5,272.6,7.3"/>
		<path class="st4" d="M274.3,7.6c0.5,0.1,1.1,0.2,1.6,0.3"/>
	</g>
	<circle class="st6" cx="424" cy="353.4" r="7"/>
	<polygon class="st6" points="278,8.4 277.2,0.4 288.6,10.1 274.7,15.6 	"/>
	<circle class="st7" cx="228.6" cy="232.6" r="209.3"/>
	<path class="st8" d="M89.5,132.6c14-19.4,32-35.8,52.7-48c25.4-14.9,54.9-23.4,86.5-23.4c19.1,0,37.4,3.1,54.5,8.8"/>
	<path class="st9" d="M91.3,335.1c-21.4-28.6-34-64.1-34-102.5c0-37.3,11.9-71.9,32.2-100"/>
	<path class="st10" d="M281.7,395.6c-16.7,5.4-34.5,8.4-53,8.4c-56.2,0-106.1-27-137.3-68.8"/>
	<path class="st11" d="M400,231.7c0,0.3,0,0.6,0,0.9c0,37.3-11.9,71.9-32.2,100c-21.1,29.3-51.2,51.6-86.2,63"/>
	<path class="st12" d="M283.1,70.1c67.7,22.7,116.5,86.4,116.9,161.7"/>
	<line class="st7" x1="129.7" y1="230.4" x2="57.3" y2="229.8"/>
	<line class="st7" x1="443.8" y1="232" x2="329.2" y2="231.4"/>
	<line class="st7" x1="324.1" y1="264.3" x2="340.7" y2="269.9"/>
	<line class="st7" x1="297.1" y1="28.6" x2="257.9" y2="145.5"/>
	<line class="st7" x1="219.3" y1="329.5" x2="217.3" y2="349.8"/>
	<line class="st7" x1="239.6" y1="118.5" x2="238.5" y2="130.3"/>
	<line class="st7" x1="310.7" y1="291.5" x2="403.4" y2="358.2"/>
	<line class="st7" x1="53.9" y1="107" x2="145.4" y2="172.8"/>
	<line class="st7" x1="286.3" y1="311" x2="298.6" y2="327.8"/>
	<line class="st7" x1="260.2" y1="329.5" x2="295.1" y2="436.9"/>
	<line class="st7" x1="175.6" y1="69.6" x2="197.4" y2="136.6"/>
	<line class="st7" x1="175.8" y1="319.1" x2="166.9" y2="332.6"/>
	<line class="st7" x1="297.5" y1="136.8" x2="287.1" y2="152.4"/>
	<line class="st7" x1="164.7" y1="293.7" x2="143.5" y2="314"/>
	<line class="st7" x1="313.4" y1="151.6" x2="299.9" y2="164.5"/>
	<line class="st7" x1="197.4" y1="326.7" x2="174.5" y2="395.6"/>
	<line class="st7" x1="240.8" y1="329.5" x2="243.2" y2="348.8"/>
	<line class="st13" x1="140.2" y1="275" x2="122.1" y2="283.6"/>
	<line class="st13" x1="334.9" y1="181.7" x2="320.4" y2="188.6"/>
	<line class="st7" x1="143.5" y1="296.1" x2="55.9" y2="361.4"/>
	<line class="st7" x1="366" y1="130.1" x2="309.7" y2="172.2"/>
	<line class="st13" x1="128.1" y1="247.3" x2="114.7" y2="249.2"/>
	<line class="st13" x1="345" y1="215.6" x2="328.6" y2="218"/>
	<g>
		<path class="st4" d="M240.2,114.4c0.6,0.1,1.1,0.1,1.7,0.2"/>
		<path class="st14" d="M245.2,115.1c52.6,7.6,95.2,50.4,100.4,105.7c6.1,64.9-41.6,122.4-106.4,128.4
			c-57.5,5.4-109.3-31.5-124.5-85.1"/>
		<path class="st4" d="M114.2,262.5c-0.1-0.5-0.3-1.1-0.4-1.6"/>
	</g>
	<circle class="st6" cx="240.2" cy="114.4" r="6.1"/>
	<polygon class="st6" points="113.5,259.9 107.9,263.4 111,251.4 120.2,259.8 	"/>
	<path class="st7" d="M260.2,329.5"/>
	<g>
		<path class="st15" d="M228.6,138.6c51.9,0,94,42.2,94,94s-42.2,94-94,94s-94-42.2-94-94S176.8,138.6,228.6,138.6 M228.6,127.6
			c-58,0-105,47-105,105s47,105,105,105s105-47,105-105S286.7,127.6,228.6,127.6L228.6,127.6z"/>
	</g>
	<g>
		<path class="st16" d="M228.6,149.3c45.9,0,83.3,37.4,83.3,83.3s-37.4,83.3-83.3,83.3c-45.9,0-83.3-37.4-83.3-83.3
			S182.7,149.3,228.6,149.3 M228.6,138.5c-52,0-94.1,42.1-94.1,94.1s42.1,94.1,94.1,94.1s94.1-42.1,94.1-94.1
			S280.6,138.5,228.6,138.5L228.6,138.5z"/>
	</g>
	<g>
		<g>
			<line class="st17" x1="282.3" y1="177" x2="175" y2="280.4"/>
			<line class="st17" x1="280.4" y1="282.4" x2="176.9" y2="175.1"/>
			<line class="st17" x1="270.2" y1="166.9" x2="187.1" y2="290.6"/>
			<line class="st17" x1="290.5" y1="270.3" x2="166.8" y2="187.1"/>
			<line class="st17" x1="301.8" y1="214.6" x2="155.5" y2="242.9"/>
			<line class="st17" x1="242.8" y1="301.9" x2="214.5" y2="155.6"/>
			<line class="st17" x1="303.2" y1="228.4" x2="154.1" y2="227.6"/>
			<line class="st17" x1="227.5" y1="303.3" x2="229.8" y2="154.2"/>
			<line class="st17" x1="279.8" y1="195.5" x2="177.5" y2="262"/>
			<line class="st17" x1="261.9" y1="279.9" x2="195.4" y2="177.6"/>
			<line class="st17" x1="288.4" y1="241.1" x2="168.9" y2="216.4"/>
			<line class="st17" x1="216.3" y1="288.5" x2="241" y2="169"/>
			<line class="st17" x1="284.5" y1="253.3" x2="172.8" y2="204.2"/>
			<line class="st17" x1="204.1" y1="284.6" x2="253.2" y2="172.9"/>
			<line class="st17" x1="285.5" y1="206.6" x2="171.8" y2="250.9"/>
			<line class="st17" x1="250.8" y1="285.6" x2="206.5" y2="171.9"/>
		</g>
		<g>
			<polygon class="st18" points="229.3,169.3 244.8,215.1 293.6,215.1 252.6,243.1 268.4,288.8 229,260.4 186.6,288.8 202.6,243.3 
				161.3,215.1 213.8,215.1 			"/>
			<polygon class="st19" points="229.3,184.7 241.2,219.8 278.2,219.8 246.8,241.3 258.8,276.4 229,254.6 196.1,276.4 208.2,241.3 
				176.7,219.8 217.4,219.8 			"/>
			<polygon class="st18" points="229.7,192 239.8,221.8 271.1,221.9 244.3,240.1 254.6,269.9 229.4,251.4 201.2,269.9 211.6,240.1 
				184.8,221.9 219.6,221.8 			"/>
		</g>
	</g>
	<g>
		<g>
			<polygon class="st1" points="229.3,184.7 235.2,201.9 253.5,201.9 238.1,212.4 244,229.6 229.2,218.9 213.3,229.6 219.3,212.5 
				203.8,201.9 223.5,201.9 			"/>
			<polygon class="st19" points="229.3,190.5 233.8,203.7 247.7,203.7 235.9,211.8 240.4,224.9 229.2,216.7 216.9,224.9 
				221.4,211.8 209.6,203.7 224.9,203.7 			"/>
			<polygon class="st1" points="229.3,193.3 233.1,204.6 244.9,204.6 234.8,211.4 238.7,222.6 229.2,215.7 218.6,222.6 222.5,211.4 
				212.4,204.6 225.5,204.6 			"/>
		</g>
		<g>
			<g>
				<path class="st20" d="M219,255.1c0-1.2-1-2.2-2.2-2.2H212v7.5h1.1v-3.1h2.8l2.1,3.1h1.2l-2.1-3.1C218.4,257,219,256.3,219,255.1
					z M217.6,256.1c-0.2,0.2-0.5,0.3-0.8,0.3H213V254h3.9c0.8,0,1.1,0.7,1.1,1.2v0C217.9,255.5,217.8,255.8,217.6,256.1z"/>
				<path class="st20" d="M226.7,257.9c0,1.1-1.2,1.6-2.4,1.6c-1.2,0-2.3-0.6-2.3-1.6v-5h-1v5.1c0,0.6,0.2,1.2,0.7,1.7
					c0.6,0.6,1.5,0.9,2.6,0.9c0,0,0,0,0.1,0c2.3,0,3.5-0.9,3.5-2.5v-5.1h-1V257.9z"/>
				<path class="st20" d="M235.2,252.9h-4.9v7.5h1.1v-3.1h3.7c1,0,1.9-0.9,1.9-2.1v0c0-0.6-0.3-1.3-0.7-1.8
					C236,253.1,235.6,252.9,235.2,252.9z M235.9,255.2L235.9,255.2c0,0.3-0.1,0.7-0.4,0.9c-0.1,0.1-0.3,0.2-0.4,0.2h-3.8v-2.4h3.7
					C235.5,253.9,235.9,254.6,235.9,255.2z"/>
				<path class="st20" d="M243.7,252.9h-4.9v7.5h1.1v-3.1h3.7c1,0,1.9-0.9,1.9-2.1c0-0.6-0.3-1.3-0.7-1.8
					C244.5,253.1,244.1,252.9,243.7,252.9z M244.5,255.2L244.5,255.2c0,0.3-0.1,0.7-0.4,0.9c-0.1,0.1-0.3,0.2-0.4,0.2h-3.8v-2.4h3.7
					C244,253.9,244.5,254.6,244.5,255.2z"/>
				<path class="st20" d="M250.8,260.5c1.3,0,2.4-0.5,3.3-1.3c0.7-0.7,1.1-1.6,1.1-2.6c0-2.7-2.2-3.9-4.3-3.9
					c-1.2,0-2.3,0.5-3.2,1.3c-0.7,0.7-1.1,1.6-1.1,2.6C246.6,258.7,248.6,260.5,250.8,260.5z M247.7,256.7c0-1.6,1.7-2.8,3.1-2.8
					c0,0,0,0,0,0c0.9,0,1.8,0.4,2.4,1c0.5,0.5,0.8,1.1,0.8,1.8c0,0.7-0.3,1.4-0.8,1.9c-0.6,0.6-1.5,1-2.4,1c0,0,0,0,0,0
					C249.1,259.6,247.7,258.3,247.7,256.7z"/>
				<path class="st20" d="M206.4,257.3h2.6v1.3c-0.2,0.2-1,0.8-2.5,0.8c-2,0-3.2-1.1-3.2-2.9c0-1.6,1.2-2.7,3.1-2.8c0,0,0.1,0,0.1,0
					c1.5,0,2.7,0.9,2.7,0.9l0.1,0.1l0.7-0.8l-0.1-0.1c-1.2-0.8-2.2-1.2-3.3-1.2c-1.2,0-2.4,0.4-3.2,1.2c-0.7,0.7-1.1,1.6-1.1,2.6
					c0,2.4,1.7,3.9,4.3,3.9c2.4,0,3.5-1.4,3.5-1.5l0,0v-2.6h-3.7V257.3z"/>
			</g>
			<g>
				<path class="st20" d="M168.6,240c0-0.4,0.3-1,1.6-1c1.3,0,2.4,0.6,2.4,0.6l-0.2-2.7c-0.2,0.2-0.4,0.2-0.6,0.2
					c-0.5-0.1-1.1-0.2-1.9-0.2c-2.9,0-4.2,1.7-4.2,3.3c0,3,4.6,3.3,4.6,5.4c0,0.8-0.8,1.2-1.7,1.2c-1.9,0-3.2-0.9-3.2-0.9l0.3,2.7
					c0.2-0.1,0.5-0.1,0.7-0.1c0.6,0.2,1.5,0.4,2.5,0.4c2.7,0,4.2-1.5,4.2-3.3C173.2,241.7,168.6,241.8,168.6,240z"/>
				<path class="st20" d="M265.7,238.2l0,10.5h2.6v-11.6h-3.1C265.2,237.1,265.7,237.3,265.7,238.2z"/>
				<path class="st20" d="M263.4,240.9c0-2.1-1.7-3.8-3.8-3.8H254c0,0,0.5,0.3,0.5,0.8v10.8h2.5l0-4h1.5l2.3,4h2.8l-2.4-4.4
					C262.5,243.7,263.4,242.4,263.4,240.9z M257,239.6h2.3c0.7,0,1.3,0.6,1.3,1.3c0,0.7-0.6,1.3-1.3,1.3H257V239.6z"/>
				<path class="st20" d="M250.2,242.9c0,0.3,0,1.9,0,1.9s-1,1.6-2.5,1.6c-1.2,0-3-1.2-3-3.4s1.6-3.4,3-3.4s2.2,1,2.2,1l1.2-2.3
					c0,0-1.3-1.4-3.5-1.4c-2.9,0-5.4,2.4-5.4,6c0,3.7,2.8,6.1,5.4,6.1s3.6-1.6,5-3.1l0-3.5h-2.9
					C249.8,242.3,250.2,242.6,250.2,242.9z"/>
				<path class="st20" d="M286.4,236.9c-3,0-5.5,2.7-5.5,6c0,3.3,2.4,6,5.5,6s5.5-2.7,5.5-6C291.9,239.6,289.4,236.9,286.4,236.9z
					 M286.4,246.2c-1.4,0-2.6-1.4-2.6-3.3c0-1.9,1.2-3.3,2.6-3.3c1.4,0,2.6,1.4,2.6,3.3C289,244.8,287.9,246.2,286.4,246.2z"/>
				<path class="st20" d="M276.9,243.2l-3.5-6.1h-3.4c0,0,0.5,0.2,0.5,1.1l0,10.5h2.4v-7.2l3.9,7.2l2.4,0v-11.6l-2.4,0V243.2z"/>
				<path class="st20" d="M236.3,244.1h3.5v-2.5h-3.5v-2l4.5,0l-0.6-2.5l-6.7,0c0,0,0.5,0.2,0.5,1.1l0,10.6h6.7l0.6-2.6l-4.9,0
					V244.1z"/>
				<path class="st20" d="M192.2,243.2l-3.5-6.1h-3.4c0,0,0.5,0.2,0.5,1.1l0,10.5h2.4v-7.2l3.9,7.2l2.4,0v-11.6l-2.4,0V243.2z"/>
				<path class="st20" d="M227.6,237.1h-3.1c0,0,0.5,0.2,0.5,1.1v10.5h6.7l0.6-2.6l-4.6,0V237.1z"/>
				<path class="st20" d="M176.7,237.1c0,0,0.6,0.3,0.4,1l-3.1,10.6h2.3l0.8-2.7h3.6l0.9,2.7h2.8l-3.8-11.6H176.7z M177.7,243.8
					l1.1-3.7l1.2,3.7H177.7z"/>
				<path class="st20" d="M201.9,237.1h-5.5c0,0,0.5,0.2,0.5,1.1v10.5h2.5l0-4h2.5c2.1,0,3.8-1.7,3.8-3.8
					C205.7,238.8,204,237.1,201.9,237.1z M201.7,242.3h-2.3v-2.7h2.3c0.7,0,1.3,0.6,1.3,1.3S202.4,242.3,201.7,242.3z"/>
				<path class="st20" d="M218.8,237.1h-3.1c0,0,0.5,0.2,0.5,1.1v10.5h6.7l0.6-2.6l-4.6,0V237.1z"/>
				<path class="st20" d="M209.5,244.1h3.5v-2.5h-3.5v-2l4.5,0l-0.6-2.5l-6.7,0c0,0,0.5,0.2,0.5,1.1l0,10.6h6.7l0.6-2.6l-4.9,0
					V244.1z"/>
			</g>
		</g>
	</g>
	<path class="st20" d="M228.6,159.6c40.2,0,73,32.7,73,73s-32.7,73-73,73s-73-32.7-73-73S188.4,159.6,228.6,159.6 M228.6,148.6
		c-46.4,0-84,37.6-84,84s37.6,84,84,84c46.4,0,84-37.6,84-84S275,148.6,228.6,148.6L228.6,148.6z"/>
	<g>
		<path class="st19" d="M286.3,182.3l0.4,0.5l3.2-2.7l-0.4-0.5l0.7-0.6l1.5,1.7l-0.7,0.6l-0.4-0.5l-3.2,2.7l0.4,0.5l-0.7,0.6
			l-1.5-1.7L286.3,182.3z"/>
		<path class="st19" d="M288.7,185.1l0.2,0.3c0.1,0.1,0.2,0.1,0.3,0l4-2.9l0.6,0.8l-1.3,3.8c-0.1,0.4-0.4,0.9-0.4,0.9l0,0
			c0,0,0.4-0.3,0.7-0.5l2.2-1.6c0.3-0.2,0.6-0.2,0.8,0.1l0.6,0.9l-0.8,0.6l-0.2-0.3c-0.1-0.1-0.2-0.1-0.3,0l-4,2.9l-0.6-0.8l1.3-3.8
			c0.1-0.4,0.4-0.9,0.4-0.9l0,0c0,0-0.4,0.3-0.7,0.5l-2.2,1.6c-0.3,0.2-0.6,0.2-0.8-0.1l-0.6-0.9L288.7,185.1z"/>
		<path class="st19" d="M296.8,189.4l-0.3-0.5l0.8-0.5l1.3,2.1c1,1.6,0.6,3.2-1,4.2s-3.2,0.5-4.2-1.1l-0.7-1.1
			c-0.2-0.4-0.2-0.6,0.2-0.8L296.8,189.4z M294,192.7l0.3,0.5c0.6,1,1.6,1.3,2.8,0.6c1.2-0.7,1.4-1.7,0.8-2.8l-0.4-0.6l-3.4,2
			C293.9,192.5,293.9,192.6,294,192.7z"/>
		<path class="st19" d="M296.5,197.1l0.3,0.5l3.7-1.9l-0.3-0.5l0.8-0.4l1,2l-0.8,0.4l-0.3-0.5l-3.7,1.9l0.3,0.5l-0.8,0.4l-1-2
			L296.5,197.1z"/>
		<path class="st19" d="M301.9,199c0.1-0.1,0.1-0.2,0.1-0.3l-0.1-0.1l0.9-0.4l0.3,0.6c0.2,0.4,0.1,0.6-0.2,0.8l-2.6,2.4
			c-0.3,0.2-0.7,0.6-0.7,0.6l0,0c0,0,0.5-0.1,0.9-0.1l3.5-0.2c0.4,0,0.6,0.1,0.7,0.5l0.3,0.7l-0.9,0.4l-0.1-0.1
			c-0.1-0.1-0.1-0.2-0.3-0.2l-5.2,0.3l-0.5-1.1L301.9,199z"/>
		<path class="st19" d="M300.6,206.5l0.2,0.6l3.9-1.4l-0.2-0.6l0.9-0.3l0.7,2.1l-0.9,0.3l-0.2-0.6l-3.9,1.4l0.2,0.6l-0.9,0.3
			l-0.7-2.1L300.6,206.5z"/>
		<path class="st19" d="M306,209.5l-0.1-0.5l0.9-0.2l0.6,2.4c0.5,1.8-0.3,3.3-2.1,3.8s-3.2-0.4-3.7-2.2l-0.3-1.3
			c-0.1-0.4,0-0.6,0.4-0.7L306,209.5z M302.3,211.8l0.1,0.5c0.3,1.2,1.2,1.7,2.5,1.4c1.3-0.3,1.8-1.3,1.5-2.5l-0.2-0.7l-3.8,1
			C302.3,211.6,302.3,211.7,302.3,211.8z"/>
		<path class="st19" d="M307.6,216.5c0.1,0,0.2-0.1,0.2-0.2l-0.1-0.4l0.9-0.2l0.2,1.1c0.1,0.4-0.1,0.6-0.5,0.7l-3.2,0.6
			c-0.8,0.1-1.1,0.7-1,1.5c0.1,0.7,0.7,1.2,1.5,1l3.2-0.6c0.4-0.1,0.6,0.1,0.7,0.5l0.2,1.1l-0.9,0.2l-0.1-0.4c0-0.1-0.1-0.2-0.2-0.2
			l-2.7,0.5c-1.3,0.2-2.4-0.5-2.6-1.9c-0.2-1.4,0.5-2.5,1.8-2.7L307.6,216.5z"/>
		<path class="st19" d="M310.1,226.4c0.1,1.8-1.1,3.2-2.8,3.3c-1.8,0.1-3.3-1.1-3.4-2.9s1.1-3.2,2.9-3.3
			C308.6,223.4,310,224.6,310.1,226.4z M305,226.8c0.1,1.1,1.1,1.9,2.3,1.8c1.2-0.1,2-1,1.9-2.1s-1-1.9-2.2-1.8
			C305.7,224.7,304.9,225.7,305,226.8z"/>
	</g>
	<g>
		<path class="st19" d="M185.6,313.9c-0.7-0.4-1.9-1.4-1.4-2.3l0.3-0.6l0.9,0.5l-0.2,0.3c-0.2,0.4,0.3,0.9,0.8,1.2
			c1,0.5,2.1,0.2,2.7-0.9c0.6-1,0.2-2.3-0.7-2.8c-1-0.5-2-0.1-2-0.1l-0.1-1c0,0,1.3-0.5,2.6,0.2c1.6,0.9,2.1,2.7,1.3,4.3
			C188.9,314.1,187.1,314.7,185.6,313.9z"/>
		<path class="st19" d="M179.3,310.2c-1.5-1-1.9-2.8-1-4.3c1-1.5,2.8-1.9,4.3-1s1.9,2.8,0.9,4.3
			C182.6,310.7,180.8,311.2,179.3,310.2z M182.1,305.8c-0.9-0.6-2.1-0.3-2.8,0.7c-0.6,1-0.4,2.2,0.6,2.8s2.1,0.3,2.8-0.7
			C183.2,307.6,183,306.4,182.1,305.8z"/>
		<path class="st19" d="M178.4,303.5l-0.2-0.2c-0.1-0.1-0.2-0.1-0.3,0l-3.3,3.6l-0.9-0.7l0.8-3c0.1-0.4,0.3-0.8,0.3-0.8l0,0
			c0,0-0.4,0.3-0.7,0.5l-2.7,1.5l-0.9-0.7l2.7-4.1c0.1-0.1,0.1-0.2,0-0.3l-0.2-0.2l0.6-0.7l0.8,0.6c0.3,0.2,0.3,0.5,0.1,0.8
			l-1.5,2.3c-0.2,0.3-0.6,0.7-0.6,0.7l0,0c0,0,0.5-0.4,0.8-0.5l2.2-1.1l0.7,0.6l-0.6,2.4c-0.1,0.4-0.3,0.9-0.3,0.9l0,0
			c0,0,0.3-0.4,0.6-0.7l1.8-2c0.3-0.3,0.5-0.3,0.8-0.1l0.8,0.6L178.4,303.5z"/>
		<path class="st19" d="M168.8,300.9c-0.1,0.1-0.1,0.2,0,0.3l0.3,0.2l-0.6,0.7l-0.8-0.7c-0.3-0.3-0.3-0.5,0-0.8l2.2-2.4
			c0.5-0.6,0.5-1.3-0.1-1.8c-0.6-0.5-1.2-0.5-1.8,0.1l-2.2,2.4c-0.3,0.3-0.5,0.3-0.8,0l-0.8-0.7l0.6-0.7l0.3,0.2
			c0.1,0.1,0.2,0.1,0.3,0l1.9-2c0.9-1,2.2-1,3.3-0.1c1.1,1,1.1,2.3,0.2,3.3L168.8,300.9z"/>
		<path class="st19" d="M166.7,293.5l-0.2-0.3c-0.1-0.1-0.2-0.1-0.3,0l-3.6,3.3l-0.7-0.7l0.9-3.9c0.1-0.4,0.3-0.9,0.3-0.9l0,0
			c0,0-0.3,0.4-0.6,0.6l-2,1.9c-0.3,0.3-0.5,0.3-0.8,0l-0.7-0.8l0.7-0.6l0.2,0.3c0.1,0.1,0.2,0.1,0.3,0l3.6-3.3l0.7,0.7l-0.9,3.9
			c-0.1,0.4-0.3,0.9-0.3,0.9l0,0c0,0,0.3-0.4,0.6-0.6l2-1.9c0.3-0.3,0.5-0.3,0.8,0l0.7,0.8L166.7,293.5z"/>
		<path class="st19" d="M161.8,287.9l-0.4-0.5l-3.2,2.6l0.4,0.5l-0.7,0.6l-1.4-1.8l0.7-0.6l0.4,0.5l3.2-2.6l-0.4-0.5l0.7-0.6
			l1.4,1.8L161.8,287.9z"/>
		<path class="st19" d="M155,285.9l0.5,0.8c0.1,0.1,0.2,0.1,0.3,0l0.3-0.2l0.6,0.8l-0.8,0.6c-0.3,0.2-0.5,0.2-0.8-0.1l-2.4-3.4
			c-0.2-0.3-0.2-0.5,0.1-0.8l0.8-0.6l0.6,0.8l-0.3,0.2c-0.1,0.1-0.1,0.2,0,0.3l0.5,0.8l4.1-3l0.6,0.9L155,285.9z"/>
		<path class="st19" d="M149.9,282.9l-0.5-0.9l0.6-1.2l0.4,0.7L149.9,282.9z M156.3,280.6l-0.1-0.1c-0.1-0.1-0.1-0.2-0.3-0.1
			l-5.1,1.1l-0.6-1l3.2-4.1c0.1-0.1,0.1-0.2,0-0.3l-0.1-0.1l0.8-0.5l0.3,0.6c0.2,0.4,0.2,0.5,0,0.9l-0.7,0.9l1.1,1.7l1.1-0.2
			c0.4-0.1,0.6,0,0.8,0.3l0.4,0.6L156.3,280.6z M153.2,278.4l-1,1.2c-0.2,0.3-0.6,0.7-0.6,0.7l0,0c0,0,0.6-0.2,0.9-0.3l1.6-0.4
			L153.2,278.4z"/>
	</g>
	<g>
		<path class="st19" d="M181,142.7l-0.5,0.3l-0.4-0.8l2.5-1.3c1-0.5,2.1-0.2,2.6,0.9c0.5,1,0.2,2.1-0.8,2.6l-1,0.5l0.9,1.9l-1,0.5
			L181,142.7z M183.7,143.6c0.6-0.3,0.7-0.8,0.4-1.4c-0.3-0.6-0.8-0.7-1.3-0.5l-0.8,0.4l0.9,1.8L183.7,143.6z"/>
		<path class="st19" d="M187.7,144l0.5-0.2l-1.7-3.8l-0.6,0.2l-0.4-0.9l2.1-0.9l0.4,0.9l-0.6,0.2l1.7,3.8l0.5-0.2l0.4,0.9l-2.1,0.9
			L187.7,144z"/>
		<path class="st19" d="M190.9,142.5l0.1,0c0.1-0.1,0.2-0.1,0.2-0.3l-0.1-5.2l1.1-0.4l3.4,3.9c0.1,0.1,0.2,0.1,0.3,0.1l0.1,0
			l0.3,0.9l-0.6,0.2c-0.4,0.2-0.6,0.1-0.8-0.2l-0.7-0.8l-1.9,0.7l0,1.1c0,0.4-0.1,0.6-0.5,0.7l-0.6,0.2L190.9,142.5z M193.7,139.8
			l-1-1.2c-0.2-0.3-0.5-0.8-0.5-0.8l0,0c0,0,0.1,0.6,0.1,0.9l0.1,1.6L193.7,139.8z"/>
		<path class="st19" d="M197.2,140.1l0.3-0.1c0.1,0,0.2-0.1,0.1-0.2l-1.4-4.7l1-0.3l3.2,2.5c0.3,0.3,0.7,0.7,0.7,0.7l0,0
			c0,0-0.2-0.5-0.3-0.8l-0.8-2.6c-0.1-0.4,0-0.6,0.4-0.7l1-0.3l0.3,0.9l-0.3,0.1c-0.1,0-0.2,0.1-0.1,0.2l1.4,4.7l-1,0.3l-3.2-2.5
			c-0.3-0.3-0.7-0.7-0.7-0.7l0,0c0,0,0.2,0.5,0.3,0.8l0.8,2.6c0.1,0.4,0,0.6-0.4,0.7l-1,0.3L197.2,140.1z"/>
		<path class="st19" d="M203.9,133.9l-0.5,0.1l-0.2-0.9l3.5-0.8c0.4-0.1,0.6,0,0.7,0.4l0.2,0.9l-1,0.2l-0.1-0.4
			c0-0.1-0.1-0.2-0.2-0.1l-1.3,0.3l0.4,1.5l1.9-0.4l0.2,0.9l-1.9,0.4l0.3,1.4c0,0.1,0.1,0.2,0.2,0.1l1.4-0.3c0.1,0,0.2-0.1,0.1-0.2
			l-0.1-0.4l1-0.2l0.2,0.9c0.1,0.4,0,0.6-0.4,0.7l-2.7,0.6c-0.4,0.1-0.6,0-0.7-0.4L203.9,133.9z"/>
		<path class="st19" d="M211,132.4l-0.9,0.2c-0.1,0-0.2,0.1-0.2,0.2l0.1,0.4l-1,0.2l-0.2-0.9c-0.1-0.4,0-0.6,0.4-0.6l4.1-0.7
			c0.4-0.1,0.6,0.1,0.6,0.4l0.2,0.9l-1,0.2l-0.1-0.4c0-0.1-0.1-0.2-0.2-0.2l-0.9,0.2l0.9,5l-1.1,0.2L211,132.4z"/>
		<path class="st19" d="M215.2,135.9l0.1,0c0.1,0,0.2-0.1,0.2-0.2l1.3-5.1l1.2-0.1l2.3,4.7c0.1,0.1,0.1,0.2,0.3,0.2l0.1,0l0.1,0.9
			l-0.7,0.1c-0.4,0-0.6,0-0.8-0.4l-0.5-1l-2,0.2l-0.3,1.1c-0.1,0.4-0.2,0.5-0.6,0.6l-0.7,0.1L215.2,135.9z M218.5,134l-0.7-1.4
			c-0.1-0.3-0.3-0.9-0.3-0.9l0,0c0,0-0.1,0.6-0.1,0.9l-0.4,1.6L218.5,134z"/>
	</g>
	<path class="st21" d="M51,232.6c0-38.8,12.5-74.8,33.6-104L54.4,107c-25.5,35.3-40.5,78.7-40.5,125.6c0,48.1,15.8,92.5,42.5,128.3
		l29.7-22.2C64.1,309.1,51,272.4,51,232.6z"/>
	<path class="st22" d="M406.8,231.8h37.1c-0.3-94.5-61.6-174.6-146.6-203.1l-11.8,35.2C355.7,87.5,406.4,153.7,406.8,231.8z"/>
	<path class="st23" d="M228.9,410.5c-58.5,0-110.3-28.2-142.8-71.8l-29.7,22.2c39.2,52.6,101.8,86.6,172.5,86.6
		c23.3,0,45.8-3.7,66.8-10.6l-11.4-35.3C266.8,407.4,248.2,410.5,228.9,410.5z"/>
	<path class="st24" d="M228.9,54.7c19.8,0,38.8,3.2,56.6,9.2l11.8-35.2c-21.5-7.2-44.5-11.1-68.4-11.1C157,17.6,93.5,52.9,54.4,107
		l30.2,21.5C116.9,83.8,169.5,54.7,228.9,54.7z"/>
	<path class="st25" d="M443.8,231.8h-37.1c0,0.3,0,0.5,0,0.8c0,78.9-51.4,145.8-122.5,169.1l11.4,35.3
		c86-28.1,148.1-109,148.1-204.4C443.8,232.3,443.8,232.1,443.8,231.8z"/>
	<g>
		<path class="st19" d="M42.5,301.9c-0.4-1-0.7-3.2,0.7-3.7l0.9-0.3l0.5,1.3l-0.4,0.2c-0.6,0.2-0.5,1.3-0.2,2c0.5,1.4,2,2.2,3.6,1.5
			c1.6-0.6,2.4-2.2,1.8-3.7c-0.6-1.5-2-2-2-2l0.8-1.2c0,0,1.8,0.6,2.6,2.7c0.9,2.4-0.3,4.8-2.7,5.7
			C45.7,305.3,43.3,304.2,42.5,301.9z"/>
		<path class="st19" d="M39.4,292.9c-0.8-2.4,0.5-4.8,2.8-5.5c2.4-0.8,4.8,0.5,5.6,2.8c0.8,2.4-0.5,4.8-2.9,5.5
			C42.5,296.6,40.1,295.3,39.4,292.9z M46.4,290.7c-0.5-1.5-2.1-2.2-3.7-1.7c-1.6,0.5-2.4,2-1.9,3.5s2,2.3,3.6,1.8
			C46,293.7,46.8,292.2,46.4,290.7z"/>
		<path class="st19" d="M44.7,285.3l-0.1-0.5c0-0.2-0.2-0.2-0.3-0.2l-6.7,1.8l-0.4-1.4l3.7-4.3c0.4-0.4,1-1,1-1l0,0
			c0,0-0.7,0.3-1.1,0.4l-3.8,1c-0.5,0.1-0.9,0-1-0.6l-0.4-1.5l1.3-0.3l0.1,0.5c0,0.2,0.2,0.2,0.3,0.2l6.7-1.8l0.4,1.4l-3.7,4.3
			c-0.4,0.4-1,1-1,1l0,0c0,0,0.7-0.3,1.1-0.4l3.8-1c0.6-0.1,0.9,0,1,0.6l0.4,1.5L44.7,285.3z"/>
		<path class="st19" d="M41.1,275.1c0,0,0.8-1.1,0.6-2.2c-0.1-0.6-0.6-1.1-1.2-1c-1.4,0.3-0.5,4.2-3.1,4.8c-1.3,0.3-2.6-0.7-2.9-2.3
			c-0.2-1-0.1-2.6,1.1-2.8l0.8-0.2l0.3,1.4l-0.4,0.1c-0.4,0.1-0.5,0.7-0.4,1.2c0.2,0.7,0.6,1.1,1.2,1c1.4-0.3,0.3-4.2,3-4.8
			c1.3-0.3,2.7,0.5,3,2.2c0.4,1.8-0.7,3.1-0.7,3.1L41.1,275.1z"/>
		<path class="st19" d="M35.1,269c-0.2,0-0.2,0.1-0.2,0.3l0.1,0.5l-1.3,0.2l-0.3-1.5c-0.1-0.6,0.1-0.8,0.7-0.9l4.6-0.8
			c1.1-0.2,1.6-1,1.4-2c-0.2-1.1-0.9-1.6-2-1.5l-4.5,0.8c-0.6,0.1-0.8-0.1-0.9-0.7l-0.3-1.5l1.3-0.2l0.1,0.5c0,0.2,0.1,0.2,0.3,0.2
			l3.8-0.6c1.9-0.3,3.4,0.8,3.7,2.8c0.3,2-0.7,3.5-2.6,3.8L35.1,269z"/>
		<path class="st19" d="M39.2,259.7l0-0.4c0-0.2-0.1-0.2-0.3-0.2l-6.9,0.2l-0.2-1.6l3.8-2.2c0.5-0.3,1.1-0.5,1.1-0.5l0,0
			c0,0-0.7-0.1-1.2-0.3l-4.2-1.3l-0.2-1.6l6.8-1.3c0.2,0,0.3-0.1,0.2-0.3l0-0.4l1.3-0.2l0.2,1.3c0.1,0.6-0.2,0.8-0.7,0.9l-3.7,0.7
			c-0.6,0.1-1.3,0.2-1.3,0.2l0,0c0,0,0.9,0.2,1.4,0.3l3.3,1l0.1,1.3l-3,1.8c-0.5,0.3-1.3,0.6-1.3,0.6l0,0c0,0,0.8-0.1,1.3-0.1
			l3.8-0.2c0.6,0,0.8,0.2,0.9,0.7l0.2,1.3L39.2,259.7z"/>
		<path class="st19" d="M38,248.5l-0.1-0.8l-5.8,0.4l0.1,0.8l-1.3,0.1l-0.2-3.2l1.3-0.1l0.1,0.8l5.8-0.4l-0.1-0.8l1.3-0.1l0.2,3.2
			L38,248.5z"/>
		<path class="st19" d="M31.6,239.4l0,0.8l-1.3,0l-0.1-5.1c0-0.6,0.2-0.8,0.8-0.8l1.3,0l0,1.4l-0.5,0c-0.2,0-0.3,0.1-0.3,0.3l0,1.9
			l2.2-0.1l-0.1-2.8l1.3,0l0.1,2.8l2,0c0.2,0,0.3-0.1,0.3-0.3l0-2c0-0.2-0.1-0.3-0.3-0.3l-0.5,0l0-1.4l1.3,0c0.6,0,0.8,0.2,0.8,0.8
			l0.1,3.9c0,0.6-0.2,0.8-0.8,0.8L31.6,239.4z"/>
		<path class="st19" d="M30.2,224.3c0-1.1,0.6-3.2,2-3.2l0.9,0l-0.1,1.4l-0.5,0c-0.6,0-1,1-1,1.7c-0.1,1.5,1,2.8,2.8,2.8
			c1.7,0.1,3.1-1.1,3.1-2.7c0.1-1.6-1-2.6-1-2.6l1.2-0.8c0,0,1.4,1.3,1.3,3.5c-0.1,2.6-2.1,4.3-4.6,4.2
			C31.9,228.7,30.1,226.7,30.2,224.3z"/>
		<path class="st19" d="M37.8,219.7l0.1-0.8l-5.8-0.4l-0.1,0.8l-1.3-0.1l0.2-3.2l1.3,0.1l-0.1,0.8l5.8,0.4l0.1-0.8l1.3,0.1l-0.2,3.2
			L37.8,219.7z"/>
		<path class="st19" d="M32.6,211.7l-0.1,1.3c0,0.2,0.1,0.3,0.2,0.3l0.5,0.1l-0.1,1.4l-1.3-0.1c-0.6-0.1-0.7-0.3-0.7-0.8l0.6-5.9
			c0.1-0.6,0.3-0.7,0.8-0.7l1.3,0.1l-0.1,1.4l-0.5-0.1c-0.2,0-0.3,0.1-0.3,0.2l-0.1,1.3l7.1,0.8l-0.2,1.6L32.6,211.7z"/>
		<path class="st19" d="M33.7,203.1l-0.2,1.3c0,0.2,0.1,0.3,0.2,0.3l0.5,0.1l-0.2,1.4l-1.3-0.2c-0.6-0.1-0.7-0.3-0.6-0.9l0.9-5.9
			c0.1-0.6,0.3-0.7,0.9-0.6l1.3,0.2l-0.2,1.4l-0.5-0.1c-0.2,0-0.3,0.1-0.3,0.2l-0.2,1.3l7.1,1.1l-0.2,1.6L33.7,203.1z"/>
		<path class="st19" d="M40.2,199.7l0-0.2c0-0.2,0-0.3-0.2-0.4l-6.3-3.8l0.3-1.6l7.3-1.2c0.2,0,0.3-0.1,0.3-0.3l0-0.2l1.3,0.3
			l-0.2,0.9c-0.1,0.6-0.3,0.8-0.9,0.9l-1.6,0.2l-0.5,2.8l1.4,0.8c0.5,0.3,0.6,0.5,0.5,1.1l-0.2,0.9L40.2,199.7z M39,194.4l-2.2,0.3
			c-0.5,0.1-1.3,0.1-1.3,0.1l0,0c0,0,0.8,0.3,1.2,0.6l2,1.1L39,194.4z"/>
		<path class="st19" d="M36.4,188.8l-0.2,0.8l-1.3-0.3l0.8-3.4c0.6-2.6,2.5-3.9,5.2-3.2s3.7,2.7,3.1,5.2l-0.4,1.8
			c-0.1,0.6-0.4,0.7-1,0.6L36.4,188.8z M42.5,188.4l0.2-0.7c0.4-1.7-0.3-3-2.2-3.4c-1.8-0.4-3.1,0.4-3.5,2l-0.2,1l5.4,1.3
			C42.3,188.6,42.5,188.6,42.5,188.4z"/>
		<path class="st19" d="M44.1,182l0.2-0.8l-5.6-1.6l-0.2,0.8l-1.3-0.4l0.9-3.1l1.3,0.4l-0.2,0.8l5.6,1.6L45,179l1.3,0.4l-0.9,3.1
			L44.1,182z"/>
		<path class="st19" d="M45.4,177.6l0.2-0.5c0.1-0.2,0-0.3-0.2-0.3l-6.6-2.1l0.4-1.3l5.5-1.6c0.6-0.2,1.4-0.3,1.4-0.3l0,0
			c0,0-0.7-0.1-1.2-0.3l-3.7-1.2c-0.5-0.2-0.7-0.5-0.5-1l0.5-1.5l1.3,0.4l-0.2,0.5c-0.1,0.2,0,0.3,0.2,0.3l6.6,2.1l-0.4,1.3
			l-5.5,1.6c-0.6,0.2-1.4,0.3-1.4,0.3l0,0c0,0,0.7,0.1,1.2,0.3l3.7,1.2c0.5,0.2,0.7,0.5,0.5,1l-0.5,1.5L45.4,177.6z"/>
		<path class="st19" d="M48.5,168.2l0.3-0.8l-5.5-2l-0.3,0.8l-1.2-0.5l1.1-3l1.2,0.5l-0.3,0.8l5.5,2l0.3-0.8l1.2,0.5l-1.1,3
			L48.5,168.2z"/>
	</g>
	<g>
		<path class="st19" d="M341.5,70.5l-0.6-0.5l0.8-1.1l4,2.8c0.5,0.3,0.5,0.7,0.2,1.1l-0.8,1.1l-1.2-0.8l0.3-0.4
			c0.1-0.1,0.1-0.3-0.1-0.4l-1.3-1l-1.4,2l2.2,1.6l-0.8,1.1l-2.2-1.6l-2,2.8l-1.3-0.9L341.5,70.5z"/>
		<path class="st19" d="M350.9,75.6c2,1.5,2.3,4.2,0.8,6.1c-1.5,2-4.2,2.4-6.2,0.8s-2.3-4.2-0.7-6.2C346.3,74.4,348.9,74,350.9,75.6
			z M346.4,81.4c1.2,0.9,3,0.7,4-0.7c1-1.3,0.8-3-0.4-4s-3-0.7-4,0.6C345,78.7,345.2,80.4,346.4,81.4z"/>
		<path class="st19" d="M350.9,84.9l0.4,0.3c0.1,0.1,0.3,0.1,0.4,0l4.5-5.2l1.1,0.9l-0.6,5.7c-0.1,0.6-0.2,1.4-0.2,1.4l0,0
			c0,0,0.4-0.6,0.7-1l2.5-3c0.4-0.4,0.7-0.5,1.2-0.1l1.2,1l-0.9,1l-0.4-0.3c-0.1-0.1-0.3-0.1-0.4,0l-4.5,5.2l-1.1-0.9l0.6-5.7
			c0.1-0.6,0.2-1.4,0.2-1.4l0,0c0,0-0.4,0.6-0.7,1l-2.5,2.9c-0.4,0.4-0.7,0.5-1.2,0.1l-1.2-1L350.9,84.9z"/>
		<path class="st19" d="M364.3,89l-0.9-0.9c-0.1-0.1-0.3-0.1-0.4,0l-0.4,0.4l-1-1l0.9-1c0.4-0.4,0.7-0.4,1.1,0l4.3,4.1
			c0.4,0.4,0.4,0.7,0,1.1l-0.9,1l-1-1l0.4-0.4c0.1-0.1,0.1-0.3,0-0.4l-0.9-0.9l-5,5.2l-1.1-1.1L364.3,89z"/>
		<path class="st19" d="M364.4,97.3l0.6,0.6l4.2-4.1l-0.6-0.6l0.9-0.9l2.2,2.3l-1,0.9l-0.6-0.6l-4.2,4.1l0.6,0.6l-1,0.9l-2.2-2.3
			L364.4,97.3z"/>
		<path class="st19" d="M375.1,100l-0.5-0.6l1-0.9l3.4,3.9c0.4,0.4,0.4,0.8-0.1,1.2l-1,0.9l-0.9-1.1l0.4-0.3c0.1-0.1,0.1-0.2,0-0.4
			l-1.3-1.4l-1.7,1.5l1.8,2.1l-1,0.9l-1.8-2.1l-1.5,1.3c-0.1,0.1-0.1,0.2,0,0.4l1.3,1.5c0.1,0.1,0.2,0.1,0.4,0l0.4-0.3l0.9,1.1
			l-1,0.9c-0.4,0.4-0.8,0.4-1.2-0.1l-2.6-2.9c-0.4-0.4-0.4-0.8,0.1-1.2L375.1,100z"/>
		<path class="st19" d="M383.7,110.2l-0.8-1c-0.1-0.1-0.2-0.1-0.4,0l-0.4,0.3l-0.9-1.1l1.1-0.8c0.4-0.3,0.7-0.3,1.1,0.1l3.7,4.7
			c0.4,0.5,0.3,0.7-0.1,1.1l-1.1,0.8l-0.9-1.1l0.4-0.3c0.1-0.1,0.1-0.2,0-0.4l-0.8-1l-5.7,4.4l-1-1.2L383.7,110.2z"/>
		<path class="st19" d="M387.8,115.5l-0.5-0.6l1.1-0.8l3,4.2c0.3,0.5,0.3,0.8-0.2,1.1l-1.1,0.8l-0.8-1.2l0.4-0.3
			c0.1-0.1,0.2-0.2,0.1-0.4l-1.1-1.6l-1.8,1.3l1.6,2.2l-1.1,0.8l-1.6-2.2l-1.6,1.2c-0.1,0.1-0.2,0.2-0.1,0.4l1.2,1.6
			c0.1,0.1,0.2,0.2,0.4,0.1l0.4-0.3l0.8,1.2l-1.1,0.8c-0.5,0.3-0.8,0.3-1.1-0.2l-2.3-3.1c-0.3-0.5-0.3-0.8,0.2-1.1L387.8,115.5z"/>
		<path class="st19" d="M392.3,121.9l-0.4-0.7l1.1-0.7l2.1,3.2c0.9,1.3,0.7,2.7-0.7,3.6c-1.3,0.8-2.4,0.3-2.7,0.1l0,0
			c0,0,0,0.3-0.1,0.6l-0.9,1.6c-0.1,0.2,0,0.4,0.1,0.7l0.1,0.1l-1.1,0.7l-0.5-0.7c-0.4-0.5-0.4-0.8-0.1-1.3l1.2-2.1
			c0.2-0.3,0.1-0.5-0.1-0.9l-0.4-0.7l-2.7,1.8l-0.9-1.3L392.3,121.9z M391.6,125.7c0.4,0.7,1.1,0.8,1.8,0.3c0.7-0.5,0.8-1.1,0.4-1.8
			l-0.7-1.1l-2.2,1.5L391.6,125.7z"/>
		<path class="st19" d="M396.9,128.9l-0.4-0.7l1.1-0.7l2,3.3c0.8,1.3,0.5,2.8-0.8,3.6c-1.3,0.8-2.4,0.2-2.7-0.1l0,0
			c0,0,0,0.3-0.2,0.6l-1,1.6c-0.1,0.2-0.1,0.4,0.1,0.7l0.1,0.1l-1.1,0.7l-0.4-0.7c-0.3-0.5-0.4-0.8-0.1-1.3l1.3-2
			c0.2-0.3,0.2-0.5-0.1-0.9l-0.4-0.7l-2.7,1.6l-0.8-1.3L396.9,128.9z M396,132.7c0.4,0.7,1.1,0.8,1.8,0.4c0.7-0.4,0.9-1.1,0.5-1.7
			l-0.7-1.1l-2.3,1.4L396,132.7z"/>
		<path class="st19" d="M395.6,138.3l0.4,0.7l5.1-2.8l-0.4-0.7l1.2-0.6l1.6,2.8l-1.2,0.6l-0.4-0.7l-5.1,2.8l0.4,0.7l-1.2,0.6
			l-1.6-2.8L395.6,138.3z"/>
		<path class="st19" d="M404.3,142.1l-0.6-1.2c-0.1-0.1-0.2-0.2-0.4-0.1l-0.5,0.2l-0.6-1.2l1.2-0.6c0.5-0.3,0.8-0.2,1,0.3l2.7,5.3
			c0.3,0.5,0.2,0.8-0.3,1l-1.2,0.6l-0.6-1.2l0.5-0.2c0.1-0.1,0.2-0.2,0.1-0.4l-0.6-1.2l-6.4,3.3l-0.7-1.4L404.3,142.1z"/>
		<path class="st19" d="M410.1,150.6c1,2.3,0.1,4.8-2.1,5.8c-2.3,1-4.8,0.1-5.9-2.2c-1-2.3,0-4.8,2.2-5.9
			C406.5,147.4,409,148.3,410.1,150.6z M403.4,153.6c0.6,1.4,2.3,2,3.9,1.3c1.5-0.7,2.1-2.3,1.5-3.7s-2.3-2-3.8-1.3
			C403.4,150.6,402.7,152.2,403.4,153.6z"/>
		<path class="st19" d="M411.4,157.4l-0.3-0.7l1.2-0.5l1.4,3.5c0.6,1.4,0.1,2.8-1.4,3.4c-1.4,0.6-2.4-0.2-2.6-0.5l0,0
			c0,0,0,0.3-0.2,0.5l-1.2,1.4c-0.2,0.2-0.1,0.4,0,0.7l0.1,0.1l-1.2,0.5l-0.3-0.8c-0.2-0.6-0.2-0.9,0.2-1.3l1.6-1.8
			c0.2-0.3,0.2-0.5,0.1-0.9l-0.3-0.7l-3,1.2l-0.6-1.5L411.4,157.4z M410,161c0.3,0.7,0.9,1,1.7,0.7c0.8-0.3,1.1-0.9,0.8-1.6
			l-0.5-1.2l-2.5,1L410,161z"/>
		<path class="st19" d="M408.7,166.5l0.3,0.8l5.5-2l-0.3-0.8l1.3-0.4l1.1,3l-1.3,0.4l-0.3-0.8l-5.5,2l0.3,0.8l-1.3,0.4l-1.1-3
			L408.7,166.5z"/>
		<path class="st19" d="M418.6,172.8c0.8,2.4-0.5,4.8-2.8,5.5c-2.4,0.8-4.8-0.5-5.6-2.9c-0.8-2.4,0.5-4.8,2.9-5.5
			C415.4,169.2,417.8,170.4,418.6,172.8z M411.6,175c0.5,1.5,2.1,2.3,3.7,1.7c1.6-0.5,2.4-2,1.9-3.5s-2-2.3-3.6-1.8
			C412,172,411.1,173.6,411.6,175z"/>
	</g>
	<g>
		<path class="st19" d="M245.3,429.3l1.3-0.1c0.2,0,0.3-0.1,0.2-0.3l0-0.5l1.4-0.1l0.1,1.3c0,0.6-0.1,0.8-0.7,0.8l-5.9,0.5
			c-0.6,0-0.8-0.1-0.8-0.7l-0.1-1.3l1.4-0.1l0,0.5c0,0.2,0.1,0.3,0.3,0.2l1.3-0.1l-0.6-7.2l1.6-0.1L245.3,429.3z"/>
		<path class="st19" d="M238.6,429.7l0.8,0l0,1.3l-3.8,0.1c-1.6,0.1-2.7-0.9-2.7-2.5c-0.1-1.5,1-2.2,1.3-2.3v0c0,0-0.3-0.1-0.4-0.4
			l-0.9-1.6c-0.1-0.2-0.3-0.3-0.6-0.3l-0.2,0l0-1.3l0.8,0c0.6,0,0.9,0.1,1.2,0.6l1.2,2.1c0.2,0.3,0.4,0.4,0.8,0.4l0.8,0l-0.1-3.2
			l1.6-0.1L238.6,429.7z M235.7,427.2c-0.8,0-1.2,0.5-1.2,1.4c0,0.8,0.5,1.3,1.3,1.3l1.3,0l-0.1-2.7L235.7,427.2z"/>
		<path class="st19" d="M231.2,424.1l-0.2,0c-0.2,0-0.3,0-0.4,0.3l-2.6,6.9l-1.6,0l-2.4-6.9c-0.1-0.2-0.2-0.3-0.4-0.3l-0.2,0l0-1.3
			l0.9,0c0.6,0,0.8,0.2,1,0.7l0.5,1.5l2.9,0l0.5-1.5c0.2-0.5,0.4-0.7,1-0.7l0.9,0L231.2,424.1z M226.2,426.2l0.7,2.1
			c0.2,0.5,0.3,1.3,0.3,1.3l0,0c0,0,0.2-0.8,0.3-1.3l0.8-2.1L226.2,426.2z"/>
		<path class="st19" d="M221.3,424.9c0,0-0.8-1-2-1.1c-0.6,0-1.2,0.3-1.3,0.9c-0.1,1.4,3.9,1.5,3.8,4.2c-0.1,1.4-1.3,2.3-3,2.3
			c-1,0-2.5-0.6-2.4-1.8l0-0.8l1.4,0.1l0,0.4c0,0.4,0.5,0.7,1.1,0.7c0.7,0,1.3-0.3,1.3-0.8c0.1-1.4-3.9-1.4-3.8-4.1
			c0.1-1.4,1.2-2.5,2.9-2.4c1.9,0.1,2.9,1.5,2.9,1.5L221.3,424.9z"/>
		<path class="st19" d="M213.8,429.4l0.8,0.1l-0.1,1.3l-3.9-0.3c-1.6-0.1-2.6-1.3-2.5-3c0.1-1.6,1.4-2.7,2.9-2.6l1.5,0.1l0.3-2.9
			l1.6,0.1L213.8,429.4z M211.2,426.3c-0.9-0.1-1.4,0.5-1.5,1.3c-0.1,0.9,0.4,1.5,1.2,1.6l1.3,0.1l0.3-2.9L211.2,426.3z"/>
		<path class="st19" d="M202,429.6c-2.5-0.3-4.1-2.5-3.8-4.9c0.3-2.5,2.5-4.2,5-3.8s4.1,2.5,3.8,5C206.6,428.3,204.5,430,202,429.6z
			 M203,422.4c-1.5-0.2-2.9,0.9-3.1,2.6c-0.2,1.6,0.8,3,2.4,3.2s2.9-0.9,3.1-2.5C205.6,424,204.5,422.6,203,422.4z"/>
		<path class="st19" d="M195.5,427.1l0.8,0.1l-0.2,1.3l-3.8-0.7c-1.5-0.3-2.4-1.4-2.1-3c0.3-1.5,1.4-1.9,1.8-1.9l0,0
			c0,0-0.2-0.2-0.3-0.5l-0.5-1.8c-0.1-0.3-0.3-0.3-0.5-0.4l-0.2,0l0.2-1.3l0.8,0.2c0.6,0.1,0.9,0.3,1.1,0.8l0.7,2.3
			c0.1,0.4,0.3,0.5,0.7,0.5l0.8,0.1l0.6-3.1l1.5,0.3L195.5,427.1z M193.2,424c-0.8-0.1-1.3,0.3-1.5,1.1c-0.2,0.8,0.2,1.4,1,1.5
			l1.2,0.2l0.5-2.6L193.2,424z"/>
		<path class="st19" d="M185.6,425.2l1.3,0.3c0.2,0,0.3,0,0.3-0.2l0.1-0.5l1.3,0.3l-0.3,1.3c-0.1,0.5-0.4,0.7-0.9,0.6l-5.8-1.3
			c-0.6-0.1-0.7-0.4-0.6-0.9l0.3-1.3l1.3,0.3l-0.1,0.5c0,0.2,0,0.3,0.2,0.3l1.3,0.3l1.6-7l1.5,0.4L185.6,425.2z"/>
		<path class="st19" d="M181.3,418.1l-0.8-0.2l-1.5,5.7l0.8,0.2l-0.3,1.3l-3.1-0.8l0.3-1.3l0.8,0.2l1.5-5.7l-0.8-0.2l0.3-1.3
			l3.1,0.8L181.3,418.1z"/>
		<path class="st19" d="M170.7,421.2l0.7,0.2l-0.4,1.3l-4.9-1.6c-0.5-0.2-0.7-0.5-0.5-1l0.4-1.2l1.4,0.4l-0.2,0.5
			c-0.1,0.2,0,0.3,0.2,0.3l1.8,0.6l0.7-2.1l-2.6-0.8l0.4-1.3l2.6,0.8l0.6-1.9c0.1-0.2,0-0.3-0.2-0.3l-1.9-0.6
			c-0.2-0.1-0.3,0-0.3,0.2l-0.2,0.5l-1.4-0.4l0.4-1.2c0.2-0.5,0.5-0.7,1-0.5l3.7,1.2c0.5,0.2,0.7,0.5,0.5,1L170.7,421.2z"/>
		<path class="st19" d="M159.8,417.2c-0.1,0.2,0,0.3,0.2,0.3l0.5,0.2l-0.5,1.2l-1.4-0.6c-0.5-0.2-0.7-0.5-0.5-1.1l2.2-5.7
			c0.1-0.2,0-0.3-0.2-0.3l-1.7-0.7c-0.2-0.1-0.3,0-0.3,0.2l-0.2,0.5l-1.3-0.5l0.5-1.2c0.2-0.5,0.5-0.7,1.1-0.5l3.5,1.4
			c0.5,0.2,0.7,0.5,0.5,1.1L159.8,417.2z"/>
		<path class="st19" d="M149,414.7c-2.3-1-3.3-3.5-2.3-5.7c1-2.3,3.5-3.3,5.8-2.3c2.3,1,3.2,3.6,2.2,5.9
			C153.8,414.8,151.3,415.7,149,414.7z M152,408c-1.4-0.6-3.1,0.1-3.7,1.6c-0.7,1.5,0,3.1,1.4,3.8s3,0,3.7-1.5
			C154,410.3,153.4,408.6,152,408z"/>
		<path class="st19" d="M139.6,410.3c-1.9-0.9-2.3-2.4-2.3-2.4l1.3-0.6c0,0,0.5,1.1,1.6,1.7c1.3,0.7,3,0.2,3.7-1.4
			c0.8-1.7,0.2-3.3-1.2-3.9c-1.2-0.6-2.3-0.2-2.3-0.2l-0.3,0.6c-0.1,0.2,0,0.3,0.1,0.4l0.5,0.2l-0.6,1.2l-1.2-0.6
			c-0.5-0.3-0.6-0.6-0.4-1.1l1.6-3.3l1.2,0.6l-0.2,0.4c-0.1,0.2-0.2,0.3-0.2,0.3l0,0c0,0,1.2-0.4,2.7,0.3c2,1,2.9,3.4,1.7,5.8
			C144.3,410.6,141.8,411.4,139.6,410.3z"/>
		<path class="st19" d="M138.3,401.3l-0.7-0.4l-2.8,5.1l0.7,0.4l-0.6,1.2l-2.8-1.5l0.6-1.2l0.7,0.4l2.8-5.1l-0.7-0.4l0.6-1.2
			l2.8,1.5L138.3,401.3z"/>
		<path class="st19" d="M133,399.5c0,0-0.2-1.3-1.3-1.9c-0.6-0.3-1.2-0.3-1.6,0.2c-0.7,1.2,2.8,3.2,1.4,5.5
			c-0.7,1.2-2.3,1.5-3.7,0.6c-0.9-0.5-1.9-1.7-1.3-2.7l0.4-0.7l1.2,0.7l-0.2,0.3c-0.2,0.3,0.1,0.9,0.6,1.1c0.6,0.4,1.3,0.3,1.5-0.2
			c0.7-1.2-2.9-3-1.4-5.4c0.7-1.2,2.2-1.6,3.7-0.7c1.6,1,1.8,2.6,1.8,2.6L133,399.5z"/>
		<path class="st19" d="M122.6,398.9l1.1,0.7c0.1,0.1,0.3,0.1,0.4-0.1l0.3-0.4l1.2,0.7l-0.7,1.1c-0.3,0.5-0.6,0.5-1.1,0.2l-5-3.2
			c-0.5-0.3-0.5-0.6-0.2-1.1l0.7-1.1l1.2,0.7l-0.3,0.4c-0.1,0.1-0.1,0.3,0.1,0.4l1.1,0.7l3.9-6l1.3,0.9L122.6,398.9z"/>
		<path class="st19" d="M121,390.8l-0.7-0.5l-3.3,4.8l0.7,0.5l-0.8,1.1l-2.6-1.8l0.8-1.1l0.7,0.5l3.3-4.8l-0.7-0.5l0.8-1.1l2.6,1.8
			L121,390.8z"/>
		<path class="st19" d="M109.3,391.5c-0.9-0.7-2.3-2.3-1.4-3.5l0.6-0.8l1.1,0.9l-0.3,0.4c-0.4,0.5,0.3,1.3,0.9,1.8
			c1.2,0.9,2.8,0.8,3.9-0.7c1-1.3,0.8-3.1-0.4-4.1c-1.3-1-2.7-0.6-2.7-0.6l0-1.4c0,0,1.9-0.4,3.6,0.9c2.1,1.6,2.3,4.2,0.8,6.2
			C113.9,392.6,111.3,393,109.3,391.5z"/>
		<path class="st19" d="M110.1,382.9l-0.1-0.1c-0.2-0.1-0.3-0.2-0.5,0l-6.4,3.7l-1.3-1l2.5-6.9c0.1-0.2,0-0.3-0.1-0.4l-0.1-0.1
			l0.8-1l0.7,0.6c0.5,0.4,0.5,0.6,0.3,1.2l-0.5,1.5l2.2,1.8l1.4-0.8c0.5-0.3,0.7-0.3,1.2,0.1l0.7,0.6L110.1,382.9z M104.9,381.4
			l-0.8,2.1c-0.2,0.5-0.5,1.2-0.5,1.2l0,0c0,0,0.6-0.5,1.1-0.8l1.9-1.2L104.9,381.4z"/>
	</g>
	<g>
		<path class="st19" d="M70.8,114.4l-0.5,0.6l-1.1-0.8l2.3-3c1-1.2,2.4-1.5,3.7-0.5c1.2,0.9,1.1,2.2,0.9,2.5l0,0
			c0,0,0.3-0.1,0.6-0.1l1.8,0.3c0.3,0,0.4-0.1,0.6-0.3l0.1-0.1l1.1,0.8l-0.5,0.7c-0.4,0.5-0.6,0.7-1.2,0.6l-2.4-0.4
			c-0.4-0.1-0.5,0-0.8,0.4l-0.5,0.6l2.5,1.9l-1,1.2L70.8,114.4z M74.6,113.8c0.5-0.6,0.4-1.3-0.3-1.8c-0.7-0.5-1.3-0.4-1.8,0.2
			l-0.8,1l2.1,1.6L74.6,113.8z"/>
		<path class="st19" d="M79.6,112.6l0.5-0.7l-4.5-3.7l-0.5,0.7l-1-0.8l2-2.5l1,0.8l-0.5,0.7l4.5,3.7l0.5-0.7l1,0.8l-2,2.5
			L79.6,112.6z"/>
		<path class="st19" d="M79.5,101.4c0.7-0.8,2.5-2.1,3.6-1.2l0.7,0.6l-0.9,1.1l-0.4-0.3c-0.5-0.4-1.4,0.2-1.8,0.7
			c-1,1.1-1,2.8,0.4,3.9c1.3,1.1,3.1,1.1,4.1-0.1c1.1-1.2,0.9-2.7,0.9-2.7l1.4,0.1c0,0,0.3,1.9-1.2,3.5c-1.7,2-4.4,2-6.3,0.3
			C78,105.9,77.8,103.3,79.5,101.4z"/>
		<path class="st19" d="M87.8,103.1l0.6-0.6l-4.3-4l-0.6,0.6l-1-0.9l2.2-2.3l1,0.9l-0.6,0.6l4.3,4l0.6-0.6l1,0.9l-2.2,2.3
			L87.8,103.1z"/>
		<path class="st19" d="M88.4,91.9c0.8-0.8,2.6-2,3.6-0.9l0.7,0.7l-1,1l-0.3-0.3c-0.4-0.4-1.4,0.1-1.9,0.6c-1.1,1.1-1.1,2.7,0.1,4
			c1.2,1.2,3,1.3,4.1,0.2c1.1-1.1,1-2.6,1-2.6l1.4,0.2c0,0,0.2,1.9-1.4,3.5c-1.8,1.8-4.5,1.7-6.3-0.1C86.7,96.3,86.6,93.6,88.4,91.9
			z"/>
		<path class="st19" d="M93.3,89.5c-0.1-0.1-0.2-0.1-0.4,0l-0.4,0.4l-0.9-1l1.1-1c0.4-0.4,0.8-0.4,1.2,0l4.2,4.5
			c0.1,0.1,0.2,0.1,0.4,0l1.4-1.3c0.1-0.1,0.1-0.2,0-0.4l-0.4-0.4l1-1l0.9,1c0.4,0.4,0.4,0.8,0,1.2L98.7,94c-0.4,0.4-0.8,0.4-1.2,0
			L93.3,89.5z"/>
		<path class="st19" d="M99.8,81.3c1.9-1.6,4.6-1.4,6.2,0.4c1.6,1.9,1.5,4.6-0.4,6.3c-1.9,1.6-4.6,1.4-6.2-0.5
			C97.7,85.6,97.9,83,99.8,81.3z M104.6,86.9c1.2-1,1.3-2.8,0.2-4.1c-1.1-1.2-2.8-1.4-4-0.4s-1.3,2.8-0.2,4
			C101.7,87.7,103.4,87.9,104.6,86.9z"/>
		<path class="st19" d="M110,82.2l0.9,2.9l-0.9,0.7l-1.1-2.7L110,82.2z"/>
		<path class="st19" d="M110.6,74.6l-0.6,0.5l-0.8-1.1l3.1-2.3c1.3-0.9,2.7-0.8,3.7,0.5c0.9,1.2,0.4,2.4,0.2,2.6l0,0
			c0,0,0.3-0.1,0.6,0.1l1.6,0.8c0.3,0.1,0.4,0,0.6-0.1l0.1-0.1l0.8,1.1l-0.7,0.5c-0.5,0.4-0.8,0.5-1.3,0.2l-2.1-1.1
			c-0.3-0.2-0.5-0.1-0.9,0.2l-0.6,0.5l1.9,2.6l-1.3,0.9L110.6,74.6z M114.4,75.1c0.6-0.5,0.7-1.1,0.2-1.8c-0.5-0.7-1.2-0.8-1.8-0.3
			l-1,0.8l1.6,2.2L114.4,75.1z"/>
		<path class="st19" d="M119.6,75.3l0.7-0.5L117,70l-0.7,0.5l-0.8-1.1l2.6-1.8l0.8,1.1l-0.7,0.5l3.3,4.8l0.7-0.5l0.8,1.1l-2.6,1.8
			L119.6,75.3z"/>
		<path class="st19" d="M123.1,71.8c0,0,1.3,0.4,2.3-0.3c0.5-0.4,0.8-1,0.5-1.5c-0.8-1.2-4.1,1.1-5.5-1.2c-0.7-1.2-0.3-2.7,1.1-3.6
			c0.8-0.5,2.4-1,3,0l0.4,0.7l-1.2,0.8l-0.2-0.3c-0.2-0.3-0.8-0.2-1.3,0.1c-0.6,0.4-0.8,1-0.6,1.4c0.8,1.2,4-1.2,5.5,1.2
			c0.7,1.1,0.5,2.7-1,3.6c-1.6,1-3.2,0.5-3.2,0.5L123.1,71.8z"/>
		<path class="st19" d="M126.1,64.1l-0.7,0.4l-0.7-1.1l3.4-2c1.4-0.8,2.9-0.4,3.7,1c0.8,1.4,0.5,3-0.9,3.8l-1.3,0.8l1.5,2.5
			l-1.4,0.8L126.1,64.1z M130,65.1c0.8-0.5,0.9-1.2,0.4-2c-0.4-0.8-1.2-1-1.9-0.5l-1.1,0.7l1.5,2.5L130,65.1z"/>
		<path class="st19" d="M133.8,66.3l0.2-0.1c0.2-0.1,0.2-0.2,0.2-0.4l-1.1-7.3l1.4-0.8l5.5,4.9c0.2,0.2,0.3,0.2,0.5,0.1l0.2-0.1
			l0.6,1.2l-0.8,0.4c-0.5,0.3-0.8,0.3-1.2-0.1l-1.2-1.1l-2.5,1.4l0.2,1.6c0.1,0.6,0,0.8-0.5,1.1l-0.8,0.5L133.8,66.3z M137.2,62
			l-1.7-1.5c-0.4-0.3-0.9-1-0.9-1l0,0c0,0,0.2,0.8,0.3,1.3l0.4,2.2L137.2,62z"/>
		<path class="st19" d="M139.3,56.7l-0.7,0.3l-0.6-1.2l3.4-1.7c1.4-0.7,2.8-0.3,3.5,1.1c0.7,1.4,0,2.4-0.3,2.6l0,0
			c0,0,0.3,0,0.6,0.2l1.5,1.1c0.2,0.2,0.4,0.1,0.7,0l0.1-0.1l0.6,1.2l-0.7,0.4c-0.6,0.3-0.9,0.3-1.3,0l-1.9-1.4
			c-0.3-0.2-0.5-0.2-0.9,0l-0.7,0.4l1.4,2.9l-1.4,0.7L139.3,56.7z M143,57.8c0.7-0.4,0.9-1,0.5-1.8c-0.4-0.8-1-1-1.7-0.6l-1.1,0.6
			l1.2,2.4L143,57.8z"/>
		<path class="st19" d="M147.7,59l0.3-0.1c0.2-0.1,0.2-0.2,0.1-0.3l-2.3-6.6l1.5-0.7l3.2,3c0.4,0.4,0.8,0.9,0.8,0.9l0,0
			c0,0-0.1-0.7-0.1-1.2l0-4.4l1.5-0.7l3.3,6.1c0.1,0.1,0.2,0.2,0.3,0.1l0.3-0.1l0.5,1.2l-1.2,0.5c-0.5,0.2-0.8,0.1-1.1-0.4l-1.8-3.4
			c-0.3-0.5-0.5-1.2-0.5-1.2l0,0c0,0,0.1,0.9,0.1,1.4l0,3.4l-1.2,0.5l-2.6-2.3c-0.4-0.4-1-1-1-1l0,0c0,0,0.3,0.7,0.5,1.2l1.3,3.6
			c0.2,0.5,0.1,0.8-0.4,1.1l-1.2,0.5L147.7,59z"/>
		<path class="st19" d="M157.5,54.8l0.8-0.3l-2.1-5.5l-0.8,0.3l-0.5-1.2l3-1.2l0.5,1.2l-0.8,0.3l2.1,5.5l0.8-0.3l0.5,1.2l-3,1.2
			L157.5,54.8z"/>
		<path class="st19" d="M163,44.9c2.4-0.8,4.8,0.3,5.6,2.6c0.8,2.4-0.3,4.8-2.7,5.7c-2.4,0.8-4.8-0.4-5.6-2.8
			C159.4,48.2,160.6,45.8,163,44.9z M165.4,51.9c1.4-0.5,2.2-2.1,1.6-3.8c-0.5-1.5-2.1-2.3-3.6-1.8s-2.2,2.1-1.7,3.6
			C162.3,51.6,163.9,52.4,165.4,51.9z"/>
		<path class="st19" d="M172.1,49.4l-0.3,3l-1.1,0.3l-0.1-2.9L172.1,49.4z"/>
		<path class="st19" d="M175.4,42.5l-0.8,0.2l-0.3-1.3l3.7-1c1.5-0.4,2.8,0.2,3.2,1.8c0.4,1.5-0.5,2.4-0.8,2.5l0,0
			c0,0,0.3,0,0.5,0.3l1.2,1.4c0.2,0.2,0.4,0.2,0.7,0.1l0.2,0l0.3,1.3l-0.8,0.2c-0.6,0.2-0.9,0.1-1.3-0.3l-1.6-1.8
			c-0.3-0.3-0.5-0.3-0.9-0.2L178,46l0.8,3.1l-1.5,0.4L175.4,42.5z M178.8,44.4c0.8-0.2,1.1-0.8,0.9-1.6c-0.2-0.8-0.8-1.2-1.5-1
			l-1.2,0.3l0.7,2.6L178.8,44.4z"/>
		<path class="st19" d="M183,40.6l-0.8,0.2l-0.3-1.3l5-1.1c0.5-0.1,0.9,0.1,1,0.6l0.3,1.3l-1.4,0.3l-0.1-0.5c0-0.2-0.2-0.2-0.3-0.2
			l-1.9,0.4l0.5,2.2l2.7-0.6l0.3,1.3l-2.7,0.6l0.4,2c0,0.2,0.2,0.2,0.3,0.2l1.9-0.4c0.2,0,0.2-0.2,0.2-0.3l-0.1-0.5l1.4-0.3l0.3,1.3
			c0.1,0.6-0.1,0.9-0.6,1l-3.8,0.9c-0.6,0.1-0.8-0.1-1-0.6L183,40.6z"/>
		<path class="st19" d="M193.1,37c1.1-0.2,3.3-0.1,3.5,1.3l0.2,0.9l-1.4,0.3l-0.1-0.5c-0.1-0.6-1.2-0.7-1.9-0.6
			c-1.5,0.3-2.5,1.6-2.2,3.3c0.3,1.6,1.7,2.7,3.3,2.5c1.6-0.3,2.3-1.6,2.3-1.6l1,1c0,0-1,1.7-3.1,2.1c-2.6,0.5-4.7-1.1-5.1-3.6
			C189.2,39.6,190.7,37.4,193.1,37z"/>
		<path class="st19" d="M198.5,37.8c0-0.2-0.1-0.2-0.3-0.2l-0.5,0.1l-0.2-1.3l1.5-0.2c0.6-0.1,0.8,0.1,0.9,0.7l0.6,4.6
			c0.2,1.1,0.9,1.7,2,1.5c1.1-0.1,1.7-0.9,1.5-2l-0.6-4.6c-0.1-0.6,0.1-0.8,0.7-0.9l1.5-0.2l0.2,1.3l-0.5,0.1
			c-0.2,0-0.2,0.1-0.2,0.3l0.5,3.9c0.3,1.9-0.9,3.3-2.9,3.6c-2,0.3-3.5-0.8-3.8-2.7L198.5,37.8z"/>
		<path class="st19" d="M207.6,36.4l-0.8,0.1l-0.1-1.3l3.9-0.4c1.6-0.2,2.8,0.9,3,2.5c0.2,1.6-0.8,2.9-2.4,3.1l-1.5,0.1l0.3,2.9
			l-1.6,0.1L207.6,36.4z M210.7,39c0.9-0.1,1.3-0.7,1.2-1.6c-0.1-0.9-0.6-1.4-1.5-1.3l-1.3,0.1l0.3,2.9L210.7,39z"/>
		<path class="st19" d="M215,35.7l-0.8,0l-0.1-1.3l5.1-0.3c0.6,0,0.8,0.2,0.9,0.8l0.1,1.3l-1.4,0.1l0-0.5c0-0.2-0.1-0.3-0.3-0.2
			l-1.9,0.1l0.1,2.2l2.8-0.2l0.1,1.3l-2.8,0.2l0.1,2c0,0.2,0.1,0.3,0.3,0.2l2-0.1c0.2,0,0.3-0.1,0.2-0.3l0-0.5l1.4-0.1l0.1,1.3
			c0,0.6-0.2,0.8-0.8,0.9l-3.9,0.2c-0.6,0-0.8-0.2-0.9-0.8L215,35.7z"/>
		<path class="st19" d="M222.1,35.3l-0.8,0l0-1.3l3.8-0.1c1.6,0,2.7,0.9,2.7,2.5c0,1.5-1,2.2-1.4,2.3l0,0c0,0,0.3,0.1,0.4,0.4
			l0.9,1.6c0.1,0.2,0.3,0.3,0.6,0.3l0.2,0l0,1.3l-0.8,0c-0.6,0-0.9-0.1-1.2-0.6l-1.1-2.1c-0.2-0.3-0.4-0.4-0.8-0.4l-0.8,0l0.1,3.2
			l-1.6,0L222.1,35.3z M225,37.9c0.8,0,1.2-0.5,1.2-1.4c0-0.8-0.5-1.3-1.3-1.3l-1.3,0l0.1,2.7L225,37.9z"/>
		<path class="st19" d="M233.5,33.8c2.5,0.1,4.4,2,4.3,4.4c-0.1,2.5-2,4.4-4.5,4.4s-4.4-2.1-4.3-4.6C229,35.6,231,33.7,233.5,33.8z
			 M233.3,41.1c1.5,0,2.8-1.2,2.8-2.9c0-1.6-1.2-2.9-2.7-2.9s-2.8,1.2-2.8,2.8C230.6,39.8,231.8,41.1,233.3,41.1z"/>
		<path class="st19" d="M242.9,35.7l-0.8-0.1l0.1-1.3l5.1,0.4c0.6,0,0.8,0.3,0.7,0.9l-0.1,1.3l-1.4-0.1l0-0.5c0-0.2-0.1-0.3-0.2-0.3
			l-1.9-0.2l-0.2,2.2l2.8,0.2l-0.1,1.3l-2.8-0.2l-0.2,2c0,0.2,0.1,0.3,0.2,0.3l2,0.2c0.2,0,0.3-0.1,0.3-0.2l0-0.5l1.4,0.1l-0.1,1.3
			c0,0.6-0.3,0.8-0.9,0.7l-3.9-0.3c-0.6,0-0.8-0.3-0.7-0.9L242.9,35.7z"/>
		<path class="st19" d="M253.2,36.7l-0.8-0.1l0.2-1.3l3.8,0.5c1.5,0.2,2.5,1.3,2.3,2.9c-0.2,1.5-1.3,2-1.7,2l0,0
			c0,0,0.2,0.2,0.4,0.5l0.6,1.7c0.1,0.3,0.3,0.3,0.6,0.4l0.2,0l-0.2,1.3l-0.8-0.1c-0.6-0.1-0.9-0.2-1.1-0.8l-0.8-2.3
			c-0.1-0.4-0.3-0.4-0.7-0.5l-0.8-0.1l-0.4,3.1l-1.6-0.2L253.2,36.7z M255.7,39.7c0.8,0.1,1.3-0.3,1.4-1.2c0.1-0.8-0.3-1.4-1-1.5
			l-1.3-0.2l-0.4,2.6L255.7,39.7z"/>
		<path class="st19" d="M259.2,43.5l0.8,0.1l1-5.8l-0.8-0.1l0.2-1.3l3.1,0.5l-0.2,1.3l-0.8-0.1l-1,5.8l0.8,0.1l-0.2,1.3l-3.1-0.5
			L259.2,43.5z"/>
		<path class="st19" d="M265,38.8c0-0.2,0-0.3-0.2-0.3l-0.5-0.1l0.3-1.3l1.5,0.3c0.6,0.1,0.8,0.4,0.6,1l-0.9,4.5
			c-0.2,1.1,0.3,1.9,1.4,2.1c1,0.2,1.9-0.3,2.1-1.4l0.9-4.5c0.1-0.6,0.4-0.8,1-0.6l1.5,0.3l-0.3,1.3l-0.5-0.1c-0.2,0-0.3,0-0.3,0.2
			l-0.8,3.8c-0.4,1.8-1.9,2.9-3.9,2.5c-2-0.4-3-1.9-2.7-3.8L265,38.8z"/>
		<path class="st19" d="M272.9,45.2c0,0,0.6,1.2,1.8,1.5c0.6,0.2,1.3,0,1.4-0.7c0.3-1.4-3.6-2.2-2.9-4.8c0.3-1.3,1.7-2,3.3-1.7
			c1,0.2,2.3,1.1,2.1,2.2l-0.2,0.8l-1.4-0.3l0.1-0.4c0.1-0.4-0.4-0.8-0.9-0.9c-0.7-0.2-1.3,0.1-1.4,0.6c-0.3,1.4,3.6,2.1,3,4.8
			c-0.3,1.3-1.6,2.2-3.3,1.8c-1.8-0.4-2.5-2-2.5-2L272.9,45.2z"/>
		<path class="st19" d="M284.4,41.6c2.4,0.7,3.7,3.1,3,5.4c-0.7,2.4-3.1,3.8-5.5,3.1c-2.4-0.7-3.7-3.1-3-5.5
			C279.7,42.2,282,40.9,284.4,41.6z M282.4,48.7c1.5,0.4,3-0.5,3.5-2.1c0.5-1.6-0.4-3.1-1.9-3.5s-3,0.4-3.5,2
			C280.1,46.7,280.9,48.3,282.4,48.7z"/>
	</g>
	<g>
		<path class="st19" d="M426.2,238.1l0-0.8l1.3,0.1l-0.2,3.9c-0.1,1.6-1.2,2.7-2.9,2.6s-2.8-1.2-2.7-2.8l0.1-1.5l-2.9-0.1l0.1-1.6
			L426.2,238.1z M423.2,240.8c0,0.9,0.5,1.4,1.4,1.4c0.9,0,1.5-0.4,1.5-1.3l0.1-1.3l-2.9-0.1L423.2,240.8z"/>
		<path class="st19" d="M425.8,246.2l0.1-0.8l1.3,0.1l-0.3,3.8c-0.1,1.6-1.2,2.6-2.8,2.4c-1.5-0.1-2.1-1.2-2.1-1.6l0,0
			c0,0-0.1,0.3-0.5,0.4l-1.7,0.7c-0.3,0.1-0.3,0.3-0.3,0.6l0,0.2l-1.3-0.1l0.1-0.8c0.1-0.6,0.2-0.9,0.7-1.1l2.2-0.9
			c0.3-0.2,0.4-0.3,0.5-0.8l0.1-0.8l-3.2-0.3l0.1-1.6L425.8,246.2z M422.9,248.7c-0.1,0.8,0.4,1.3,1.2,1.4c0.8,0.1,1.4-0.4,1.4-1.1
			l0.1-1.3l-2.7-0.2L422.9,248.7z"/>
		<path class="st19" d="M426.1,258.2c-0.3,2.5-2.5,4.1-4.9,3.8c-2.5-0.3-4.2-2.4-3.9-4.9c0.3-2.5,2.5-4.1,5-3.8
			C424.8,253.6,426.4,255.7,426.1,258.2z M418.8,257.3c-0.2,1.5,0.9,2.9,2.6,3.1c1.6,0.2,3-0.9,3.2-2.4s-0.9-2.9-2.5-3.1
			C420.4,254.7,419,255.8,418.8,257.3z"/>
		<path class="st19" d="M423.7,264.8l0.1-0.8l1.3,0.2l-0.6,3.4c-0.5,2.6-2.3,4-5,3.5s-3.9-2.4-3.4-5l0.3-1.8
			c0.1-0.6,0.4-0.8,0.9-0.7L423.7,264.8z M417.6,265.6l-0.1,0.8c-0.3,1.7,0.5,2.9,2.4,3.3c1.9,0.3,3.1-0.6,3.4-2.2l0.2-1l-5.5-1
			C417.7,265.3,417.6,265.4,417.6,265.6z"/>
		<path class="st19" d="M421.7,273.9c0.2,0,0.3,0,0.3-0.2l0.1-0.5l1.3,0.3l-0.3,1.5c-0.1,0.6-0.4,0.7-1,0.6l-4.5-1
			c-1.1-0.3-1.9,0.3-2.1,1.3c-0.2,1,0.2,1.9,1.3,2.1l4.5,1c0.5,0.1,0.7,0.4,0.6,1l-0.3,1.5l-1.3-0.3l0.1-0.5c0-0.2,0-0.3-0.2-0.3
			l-3.8-0.9c-1.8-0.4-2.8-2-2.3-4c0.5-2,2-3,3.9-2.6L421.7,273.9z"/>
		<path class="st19" d="M413.9,280.9l4.2,5.1c0.4,0.5,0.6,0.8,0.6,0.8l0,0c0,0,0-0.2,0.2-0.6l0.6-2c0-0.2,0-0.3-0.2-0.3l-0.5-0.1
			l0.4-1.4l1.2,0.3c0.5,0.2,0.7,0.5,0.6,1l-1.5,5.3l-0.9-0.3l-4.2-5.1c-0.4-0.5-0.6-0.8-0.6-0.8l0,0c0,0,0,0.2-0.2,0.6l-0.6,2.2
			c0,0.2,0,0.3,0.2,0.3l0.5,0.1l-0.4,1.4l-1.2-0.3c-0.6-0.2-0.7-0.4-0.6-1l1.6-5.6L413.9,280.9z"/>
		<path class="st19" d="M412.1,288.6l-0.3,0.8l5.6,1.8l0.3-0.8l1.3,0.4l-1,3l-1.3-0.4l0.3-0.8l-5.6-1.8l-0.3,0.8l-1.3-0.4l1-3
			L412.1,288.6z"/>
		<path class="st19" d="M416.1,299.6c-0.8,2.4-3.3,3.5-5.6,2.7c-2.4-0.8-3.6-3.3-2.7-5.6c0.8-2.4,3.3-3.5,5.7-2.6
			C415.8,294.8,417,297.2,416.1,299.6z M409.2,297.1c-0.5,1.4,0.3,3,1.9,3.6c1.5,0.5,3.1-0.2,3.6-1.6s-0.2-3-1.8-3.6
			C411.4,294.9,409.8,295.6,409.2,297.1z"/>
		<path class="st19" d="M407.3,302.5l-0.2,0.5c-0.1,0.2,0,0.3,0.1,0.3l6.4,2.7l-0.5,1.3l-5.6,1.2c-0.6,0.1-1.4,0.2-1.4,0.2l0,0
			c0,0,0.7,0.2,1.1,0.4l3.6,1.5c0.5,0.2,0.7,0.5,0.4,1.1l-0.6,1.4l-1.2-0.5l0.2-0.5c0.1-0.2,0-0.3-0.1-0.3l-6.4-2.7l0.5-1.3l5.6-1.2
			c0.6-0.1,1.4-0.2,1.4-0.2l0,0c0,0-0.7-0.2-1.1-0.4l-3.6-1.5c-0.5-0.2-0.7-0.5-0.4-1.1l0.6-1.4L407.3,302.5z"/>
		<path class="st19" d="M408.4,314.7l0.3-0.7l1.2,0.6l-2.2,4.7c-0.2,0.5-0.6,0.6-1.1,0.4l-1.2-0.6l0.6-1.3l0.5,0.2
			c0.2,0.1,0.3,0,0.4-0.1l0.8-1.7l-2-1l-1.2,2.5l-1.2-0.6l1.2-2.5l-1.8-0.9c-0.2-0.1-0.3,0-0.4,0.1l-0.8,1.8c-0.1,0.2,0,0.3,0.1,0.4
			l0.5,0.2l-0.6,1.3l-1.2-0.6c-0.5-0.2-0.6-0.6-0.4-1.1l1.7-3.5c0.2-0.5,0.6-0.6,1.1-0.4L408.4,314.7z"/>
		<path class="st19" d="M403.3,325.1l0.4-0.7l1.2,0.6l-2.5,4.5c-0.3,0.5-0.6,0.6-1.1,0.3l-1.1-0.6l0.7-1.3l0.5,0.2
			c0.1,0.1,0.3,0,0.4-0.1l0.9-1.7l-2-1.1l-1.3,2.4l-1.2-0.6l1.3-2.4l-1.8-1c-0.1-0.1-0.3,0-0.4,0.1l-0.9,1.7c-0.1,0.1,0,0.3,0.1,0.4
			l0.5,0.2l-0.7,1.3l-1.1-0.6c-0.5-0.3-0.6-0.6-0.3-1.1l1.9-3.4c0.3-0.5,0.6-0.6,1.1-0.3L403.3,325.1z"/>
		<path class="st19" d="M392.9,331.5l-0.4,0.7l5,3.1l0.4-0.7l1.1,0.7l-1.7,2.7l-1.1-0.7l0.4-0.7l-5-3.1l-0.4,0.7l-1.1-0.7l1.7-2.7
			L392.9,331.5z"/>
		<path class="st19" d="M390.6,335.3l-0.2,0.3c-0.1,0.1-0.1,0.3,0.1,0.4l5.4,4.3l-0.9,1.4l-4.3-0.8c-0.5-0.1-1.2-0.3-1.2-0.3l0,0
			c0,0,0.4,0.5,0.7,1l2.4,3.7l-0.9,1.4l-6-3.4c-0.1-0.1-0.3-0.1-0.4,0.1l-0.2,0.3l-1.1-0.7l0.8-1.1c0.3-0.5,0.6-0.5,1.1-0.2l3.3,1.9
			c0.5,0.3,1.1,0.7,1.1,0.7l0,0c0,0-0.6-0.7-0.8-1.1l-1.8-2.9l0.7-1.1l3.4,0.6c0.5,0.1,1.4,0.4,1.4,0.4l0,0c0,0-0.7-0.4-1.1-0.8
			l-3-2.3c-0.5-0.4-0.5-0.7-0.2-1.1l0.8-1.1L390.6,335.3z"/>
		<path class="st19" d="M388.5,348.7l0.5-0.6l1.1,0.8l-2.2,3c-0.9,1.2-2.2,1.6-3.3,0.8c-0.8-0.6-0.9-1.3-0.8-1.9l0,0
			c-0.8,0.6-1.7,0.4-2.4-0.1c-1.4-1-1.2-2.6-0.2-3.8l1.3-1.7c0.3-0.5,0.7-0.5,1.1-0.2L388.5,348.7z M382.7,346.6l-0.7,1
			c-0.5,0.6-0.3,1.3,0.3,1.7c0.6,0.4,1.2,0.4,1.7-0.2l0.9-1.2l-1.8-1.3C383,346.5,382.8,346.5,382.7,346.6z M385.1,349.7
			c-0.4,0.5-0.2,1.1,0.3,1.5c0.5,0.4,1.1,0.3,1.5-0.2l0.8-1.1l-1.7-1.3L385.1,349.7z"/>
		<path class="st19" d="M382.3,359.1c-1.6,1.9-4.3,2.2-6.2,0.6c-1.9-1.6-2.2-4.3-0.6-6.2s4.3-2.1,6.2-0.5
			C383.6,354.5,383.9,357.1,382.3,359.1z M376.6,354.4c-1,1.2-0.8,3,0.5,4c1.3,1,3,0.9,4-0.3s0.8-2.9-0.5-4
			C379.4,353.1,377.6,353.2,376.6,354.4z"/>
		<path class="st19" d="M375.6,364.6l0.9-1c0.1-0.1,0.1-0.3,0-0.4l-0.4-0.3l0.9-1l1,0.9c0.4,0.4,0.4,0.7,0.1,1.1l-4,4.4
			c-0.4,0.4-0.7,0.4-1.1,0.1l-1-0.9l0.9-1l0.4,0.3c0.1,0.1,0.3,0.1,0.4,0l0.9-1l-5.3-4.8l1.1-1.2L375.6,364.6z"/>
		<path class="st19" d="M369.7,370.9l0.9-0.9c0.1-0.1,0.1-0.3,0-0.4l-0.4-0.4l1-1l1,0.9c0.4,0.4,0.4,0.7,0,1.1l-4.2,4.2
			c-0.4,0.4-0.7,0.4-1.1,0l-1-0.9l1-1l0.4,0.4c0.1,0.1,0.3,0.1,0.4,0l0.9-0.9l-5.1-5.1l1.1-1.1L369.7,370.9z"/>
		<path class="st19" d="M361.4,370.8l-0.6,0.6l4,4.3l0.6-0.6l0.9,1l-2.3,2.2l-0.9-1l0.6-0.6l-4-4.3l-0.6,0.6l-0.9-1l2.3-2.2
			L361.4,370.8z"/>
		<path class="st19" d="M359.7,382.3c-1.6,1.4-3,1.2-3,1.2l-0.1-1.4c0,0,1.2,0,2.1-0.9c1.1-1,1.3-2.7,0.2-4
			c-1.2-1.4-2.9-1.4-4.1-0.4c-1,0.9-1,2.1-1,2.1l0.4,0.5c0.1,0.1,0.2,0.1,0.4,0l0.4-0.3l0.9,1l-1,0.9c-0.4,0.4-0.8,0.4-1.1-0.1
			l-2.4-2.7l1-0.9l0.3,0.3c0.1,0.1,0.2,0.3,0.2,0.3l0,0c0,0,0.1-1.3,1.3-2.3c1.7-1.5,4.2-1.4,6,0.6
			C361.7,378,361.6,380.7,359.7,382.3z"/>
		<path class="st19" d="M353.9,385c0.1,0.1,0.2,0.1,0.4,0l0.4-0.3l0.8,1l-1.2,1c-0.4,0.4-0.8,0.3-1.1-0.1l-3.8-4.8
			c-0.1-0.1-0.2-0.1-0.4,0l-1.5,1.2c-0.1,0.1-0.1,0.2,0,0.4l0.3,0.4l-1.1,0.9l-0.8-1c-0.4-0.4-0.3-0.8,0.1-1.1l2.9-2.3
			c0.4-0.4,0.8-0.3,1.1,0.1L353.9,385z"/>
		<path class="st19" d="M345.2,384.7l-0.7,0.5l3.5,4.7l0.7-0.5l0.8,1.1l-2.5,1.9l-0.8-1.1l0.7-0.5l-3.5-4.7l-0.7,0.5l-0.8-1.1
			l2.5-1.9L345.2,384.7z"/>
		<path class="st19" d="M341.8,387.3l-0.2,0.1c-0.2,0.1-0.2,0.2-0.2,0.4l1.9,7.1l-1.3,0.9l-6-4.2c-0.2-0.1-0.3-0.1-0.5,0l-0.2,0.1
			l-0.8-1.1l0.8-0.5c0.5-0.3,0.8-0.3,1.2,0l1.3,0.9l2.4-1.7l-0.4-1.5c-0.2-0.6-0.1-0.8,0.4-1.1l0.8-0.5L341.8,387.3z M338.9,392
			l1.8,1.3c0.4,0.3,1,0.8,1,0.8l0,0c0,0-0.3-0.8-0.5-1.2l-0.6-2.2L338.9,392z"/>
		<path class="st19" d="M334.6,392.3l-0.3,0.2c-0.1,0.1-0.2,0.2-0.1,0.4l3.2,6.2l-1.4,0.9l-3.6-2.5c-0.4-0.3-1-0.7-1-0.7l0,0
			c0,0,0.2,0.7,0.2,1.2l0.7,4.4l-1.4,0.9l-4.1-5.6c-0.1-0.1-0.2-0.2-0.4-0.1l-0.3,0.2l-0.7-1.1l1.1-0.7c0.5-0.3,0.8-0.2,1.1,0.3
			l2.3,3.1c0.3,0.5,0.7,1.1,0.7,1.1l0,0c0,0-0.2-0.8-0.3-1.4l-0.5-3.4l1.1-0.7l2.9,1.9c0.4,0.3,1.1,0.9,1.1,0.9l0,0
			c0,0-0.4-0.6-0.7-1.1l-1.8-3.4c-0.3-0.5-0.2-0.8,0.3-1.1l1.2-0.7L334.6,392.3z"/>
		<path class="st19" d="M327.3,403.7l0.7-0.4l0.7,1.2l-4.5,2.5c-0.5,0.3-0.8,0.2-1.1-0.3l-0.6-1.1l1.2-0.7l0.3,0.4
			c0.1,0.1,0.2,0.2,0.4,0.1l1.7-0.9l-1.1-1.9l-2.4,1.4l-0.7-1.2l2.4-1.4l-1-1.8c-0.1-0.1-0.2-0.2-0.4-0.1l-1.7,1
			c-0.1,0.1-0.2,0.2-0.1,0.4l0.3,0.5L320,402l-0.6-1.1c-0.3-0.5-0.2-0.8,0.3-1.1l3.4-1.9c0.5-0.3,0.8-0.2,1.1,0.3L327.3,403.7z"/>
		<path class="st19" d="M318.5,401.9l-0.5,0.2c-0.2,0.1-0.2,0.2-0.1,0.4l3.1,6.2l-1.3,0.6l-5-2.8c-0.5-0.3-1.2-0.8-1.2-0.8l0,0
			c0,0,0.4,0.6,0.6,1l1.8,3.5c0.3,0.5,0.2,0.8-0.4,1.1l-1.4,0.7l-0.6-1.2l0.5-0.2c0.2-0.1,0.2-0.2,0.1-0.4l-3.1-6.2l1.3-0.6l5,2.8
			c0.5,0.3,1.2,0.8,1.2,0.8l0,0c0,0-0.4-0.6-0.6-1l-1.7-3.5c-0.3-0.5-0.2-0.8,0.4-1.1l1.4-0.7L318.5,401.9z"/>
		<path class="st19" d="M309.6,412.7l1.2-0.5c0.2-0.1,0.2-0.2,0.1-0.3l-0.2-0.5l1.3-0.6l0.5,1.2c0.2,0.5,0.1,0.8-0.4,1l-5.4,2.4
			c-0.5,0.2-0.8,0.1-1-0.4l-0.5-1.2l1.3-0.6l0.2,0.5c0.1,0.2,0.2,0.2,0.3,0.1l1.2-0.5l-2.9-6.6l1.4-0.6L309.6,412.7z"/>
		<path class="st19" d="M300.9,418c-2.3,0.9-4.8-0.2-5.7-2.5c-0.9-2.3,0.1-4.8,2.5-5.8c2.3-0.9,4.8,0.2,5.7,2.6
			C304.3,414.6,303.2,417.1,300.9,418z M298.2,411.1c-1.4,0.6-2.1,2.2-1.5,3.8c0.6,1.5,2.2,2.2,3.6,1.7s2.1-2.2,1.5-3.7
			C301.3,411.3,299.6,410.6,298.2,411.1z"/>
	</g>
</g>
</svg>
