
<svg xmlns="http://www.w3.org/2000/svg" viewBox="0 0 242 242" >
<style type="text/css">
	.st0{fill:none;stroke:#1D1D1B;stroke-width:0.75;stroke-miterlimit:10;}
	.st1{fill:none;stroke:#12100B;stroke-width:0.9789;stroke-miterlimit:10;}
	.st2{fill:none;stroke:#1D1D1B;stroke-miterlimit:10;}
	.st3{fill:none;stroke:#1D1D1B;stroke-miterlimit:10;stroke-dasharray:3.3404,3.3404;}
	.st4{fill:#1D1D1B;}
	.st5{opacity:0.13;}
	.st6{fill:#009C3D;}
	.st7{fill:#EE7900;}
	.st8{fill:none;stroke:#ECECEC;stroke-width:0.7403;stroke-miterlimit:10;}
	.st9{fill:#EBEAE9;}
	.st10{fill:#FFFFFF;}
	.st11{fill:#E30520;}
	.st12{fill:#00295A;}
</style>
<g>
	<line class="st0" x1="222.1" y1="157.6" x2="234.7" y2="161.8"/>
	<line class="st0" x1="112.6" y1="229.1" x2="111.4" y2="241.7"/>
	<line class="st0" x1="133.7" y1="10.5" x2="132.8" y2="20"/>
	<line class="st0" x1="184.5" y1="208.7" x2="192.6" y2="219.7"/>
	<line class="st0" x1="67.8" y1="214.1" x2="60.9" y2="224.6"/>
	<line class="st0" x1="191.5" y1="28.7" x2="184.3" y2="39.5"/>
	<line class="st0" x1="46.8" y1="197.1" x2="37.6" y2="206"/>
	<line class="st0" x1="207.4" y1="43.5" x2="198.6" y2="52"/>
	<line class="st0" x1="135.7" y1="228.8" x2="137.2" y2="240.8"/>
	<line class="st1" x1="27.9" y1="170" x2="16.2" y2="175.6"/>
	<line class="st1" x1="229" y1="73.6" x2="217.4" y2="79.2"/>
	<line class="st1" x1="18.7" y1="139.7" x2="8.7" y2="141.2"/>
	<line class="st1" x1="239" y1="107.6" x2="226.4" y2="109.4"/>
	<g>
		<g>
			<path class="st2" d="M134.3,6.4c0.6,0.1,1.1,0.1,1.7,0.2"/>
			<path class="st3" d="M139.2,7c52.6,7.6,95.2,50.4,100.4,105.7c6.1,64.9-41.6,122.4-106.4,128.4c-57.5,5.4-109.3-31.5-124.5-85.1"
				/>
			<path class="st2" d="M8.2,154.4c-0.1-0.5-0.3-1.1-0.4-1.6"/>
		</g>
	</g>
	<circle class="st4" cx="134.3" cy="6.4" r="6.1"/>
	<polygon class="st4" points="7.6,151.9 1.9,155.4 5.1,143.3 14.3,151.7 	"/>
	<path class="st0" d="M154.2,221.5"/>
	<g class="st5">
		<g>
			<path class="st6" d="M122.7,30.5c51.9,0,94,42.2,94,94s-42.2,94-94,94s-94-42.2-94-94S70.8,30.5,122.7,30.5 M122.7,19.5
				c-58,0-105,47-105,105c0,58,47,105,105,105s105-47,105-105C227.7,66.5,180.7,19.5,122.7,19.5L122.7,19.5z"/>
		</g>
	</g>
	<g class="st5">
		<g>
			<path class="st7" d="M122.7,41.3c45.9,0,83.3,37.4,83.3,83.3c0,45.9-37.4,83.3-83.3,83.3s-83.3-37.4-83.3-83.3
				C39.4,78.6,76.7,41.3,122.7,41.3 M122.7,30.4c-52,0-94.1,42.1-94.1,94.1c0,52,42.1,94.1,94.1,94.1s94.1-42.1,94.1-94.1
				C216.8,72.6,174.7,30.4,122.7,30.4L122.7,30.4z"/>
		</g>
	</g>
	<g>
		<g>
			<line class="st8" x1="176.3" y1="69" x2="69" y2="172.4"/>
			<line class="st8" x1="174.4" y1="174.4" x2="71" y2="67"/>
			<line class="st8" x1="164.3" y1="58.9" x2="81.1" y2="182.5"/>
			<line class="st8" x1="184.5" y1="162.3" x2="60.8" y2="79.1"/>
			<line class="st8" x1="195.9" y1="106.6" x2="49.5" y2="134.8"/>
			<line class="st8" x1="136.8" y1="193.9" x2="108.6" y2="47.5"/>
			<line class="st8" x1="197.2" y1="120.3" x2="48.2" y2="119.5"/>
			<line class="st8" x1="121.5" y1="195.2" x2="123.8" y2="46.2"/>
			<line class="st8" x1="173.9" y1="87.5" x2="71.5" y2="153.9"/>
			<line class="st8" x1="155.9" y1="171.9" x2="89.5" y2="69.5"/>
			<line class="st8" x1="182.4" y1="133.1" x2="62.9" y2="108.3"/>
			<line class="st8" x1="110.3" y1="180.4" x2="135" y2="61"/>
			<line class="st8" x1="178.5" y1="145.3" x2="66.8" y2="96.1"/>
			<line class="st8" x1="98.1" y1="176.6" x2="147.2" y2="64.8"/>
			<line class="st8" x1="179.5" y1="98.5" x2="65.8" y2="142.9"/>
			<line class="st8" x1="144.8" y1="177.5" x2="100.5" y2="63.9"/>
		</g>
		<g>
			<polygon class="st9" points="123.3,61.3 138.8,107.1 187.7,107 146.6,135.1 162.4,180.8 123,152.4 80.6,180.8 96.6,135.2
				55.3,107 107.8,107.1 			"/>
			<polygon class="st10" points="123.3,76.6 135.2,111.8 172.3,111.8 140.8,133.3 152.9,168.3 123,146.5 90.1,168.3 102.2,133.3
				70.7,111.8 111.4,111.8 			"/>
			<polygon class="st9" points="123.7,83.9 133.8,113.8 165.1,113.8 138.3,132.1 148.6,161.9 123.5,143.3 95.3,161.9 105.6,132.1
				78.8,113.8 113.6,113.8 			"/>
		</g>
	</g>
	<g>
		<g>
			<polygon class="st11" points="123.3,76.7 129.2,93.9 147.5,93.9 132.1,104.4 138,121.6 123.2,110.9 107.3,121.6 113.3,104.5
				97.8,93.9 117.5,93.9 			"/>
			<polygon class="st10" points="123.3,82.5 127.8,95.6 141.7,95.7 129.9,103.7 134.5,116.9 123.2,108.7 110.9,116.9 115.4,103.7
				103.6,95.7 118.9,95.6 			"/>
			<polygon class="st11" points="123.3,85.3 127.1,96.5 138.9,96.5 128.8,103.4 132.7,114.6 123.2,107.6 112.7,114.6 116.5,103.4
				106.5,96.5 119.5,96.5 			"/>
		</g>
		<g>
			<g>
				<path class="st12" d="M113.1,147.1c0-1.2-1-2.2-2.2-2.2H106v7.5h1.1v-3.1h2.8l2.1,3.1h1.2l-2.1-3.1
					C112.4,149,113.1,148.3,113.1,147.1z M111.6,148c-0.2,0.2-0.5,0.3-0.8,0.3H107v-2.4h3.9c0.8,0,1.1,0.7,1.1,1.2v0
					C112,147.4,111.8,147.8,111.6,148z"/>
				<path class="st12" d="M120.7,149.8c0,1.1-1.2,1.6-2.4,1.6c-1.2,0-2.3-0.6-2.3-1.6v-5h-1v5.1c0,0.6,0.2,1.2,0.7,1.7
					c0.6,0.6,1.5,0.9,2.6,0.9c0,0,0,0,0.1,0c2.3,0,3.5-0.9,3.5-2.5v-5.1h-1V149.8z"/>
				<path class="st12" d="M129.2,144.9h-4.9v7.5h1.1v-3.1h3.7c1,0,1.9-0.9,1.9-2.1v0c0-0.6-0.3-1.3-0.7-1.8
					C130,145.1,129.6,144.9,129.2,144.9z M130,147.2L130,147.2c0,0.3-0.1,0.7-0.4,0.9c-0.1,0.1-0.3,0.2-0.4,0.2h-3.8v-2.4h3.7
					C129.5,145.9,130,146.5,130,147.2z"/>
				<path class="st12" d="M137.7,144.9h-4.9v7.5h1.1v-3.1h3.7c1,0,1.9-0.9,1.9-2.1c0-0.6-0.3-1.3-0.7-1.8
					C138.5,145.1,138.1,144.9,137.7,144.9z M138.5,147.2L138.5,147.2c0,0.3-0.1,0.7-0.4,0.9c-0.1,0.1-0.3,0.2-0.4,0.2h-3.8v-2.4h3.7
					C138.1,145.9,138.5,146.5,138.5,147.2z"/>
				<path class="st12" d="M144.8,152.5c1.3,0,2.4-0.5,3.3-1.3c0.7-0.7,1.1-1.6,1.1-2.6c0-2.7-2.2-3.9-4.3-3.9
					c-1.2,0-2.3,0.5-3.2,1.3c-0.7,0.7-1.1,1.6-1.1,2.6C140.6,150.7,142.6,152.5,144.8,152.5z M141.7,148.6c0-1.6,1.7-2.8,3.1-2.8
					c0,0,0,0,0,0c0.9,0,1.8,0.4,2.4,1c0.5,0.5,0.8,1.1,0.8,1.8c0,0.7-0.3,1.4-0.8,1.9c-0.6,0.6-1.5,1-2.4,1c0,0,0,0,0,0
					C143.1,151.5,141.7,150.2,141.7,148.6z"/>
				<path class="st12" d="M100.4,149.3h2.6v1.3c-0.2,0.2-1,0.8-2.5,0.8c-2,0-3.2-1.1-3.2-2.9c0-1.6,1.2-2.7,3.1-2.8c0,0,0.1,0,0.1,0
					c1.5,0,2.7,0.9,2.7,0.9l0.1,0.1l0.7-0.8l-0.1-0.1c-1.2-0.8-2.2-1.2-3.3-1.2c-1.2,0-2.4,0.4-3.2,1.2c-0.7,0.7-1.1,1.6-1.1,2.6
					c0,2.4,1.7,3.9,4.3,3.9c2.4,0,3.5-1.4,3.5-1.5l0,0v-2.6h-3.7V149.3z"/>
			</g>
			<g>
				<path class="st12" d="M62.6,131.9c0-0.4,0.3-1,1.6-1c1.3,0,2.4,0.6,2.4,0.6l-0.2-2.7c-0.2,0.2-0.4,0.2-0.6,0.2
					c-0.5-0.1-1.1-0.2-1.9-0.2c-2.9,0-4.2,1.7-4.2,3.3c0,3,4.6,3.3,4.6,5.4c0,0.8-0.8,1.2-1.7,1.2c-1.9,0-3.2-0.9-3.2-0.9l0.3,2.7
					c0.2-0.1,0.5-0.1,0.7-0.1c0.6,0.2,1.5,0.4,2.5,0.4c2.7,0,4.2-1.5,4.2-3.3C67.2,133.7,62.6,133.7,62.6,131.9z"/>
				<path class="st12" d="M159.7,130.1l0,10.5h2.6v-11.6h-3.1C159.2,129.1,159.7,129.3,159.7,130.1z"/>
				<path class="st12" d="M157.4,132.9c0-2.1-1.7-3.8-3.8-3.8H148c0,0,0.5,0.3,0.5,0.8v10.8h2.5l0-4h1.5l2.3,4h2.8l-2.4-4.4
					C156.5,135.7,157.4,134.4,157.4,132.9z M151,131.5h2.3c0.7,0,1.3,0.6,1.3,1.3c0,0.7-0.6,1.3-1.3,1.3H151V131.5z"/>
				<path class="st12" d="M144.2,134.8c0,0.3,0,1.9,0,1.9s-1,1.6-2.5,1.6c-1.2,0-3-1.2-3-3.4c0-2.2,1.6-3.4,3-3.4c1.4,0,2.2,1,2.2,1
					l1.2-2.3c0,0-1.3-1.4-3.5-1.4c-2.9,0-5.4,2.4-5.4,6c0,3.7,2.8,6.1,5.4,6.1s3.6-1.6,5-3.1l0-3.5h-2.9
					C143.8,134.3,144.2,134.5,144.2,134.8z"/>
				<path class="st12" d="M180.4,128.8c-3,0-5.5,2.7-5.5,6c0,3.3,2.4,6,5.5,6c3,0,5.5-2.7,5.5-6
					C185.9,131.5,183.5,128.8,180.4,128.8z M180.4,138.1c-1.4,0-2.6-1.4-2.6-3.3s1.2-3.3,2.6-3.3c1.4,0,2.6,1.4,2.6,3.3
					S181.9,138.1,180.4,138.1z"/>
				<path class="st12" d="M171,135.2l-3.5-6.1h-3.4c0,0,0.5,0.2,0.5,1.1l0,10.5h2.4v-7.2l3.9,7.2l2.4,0v-11.6l-2.4,0V135.2z"/>
				<path class="st12" d="M130.3,136h3.5v-2.5h-3.5v-2l4.5,0l-0.6-2.5l-6.7,0c0,0,0.5,0.2,0.5,1.1l0,10.6h6.7l0.6-2.6l-4.9,0V136z"
					/>
				<path class="st12" d="M86.2,135.2l-3.5-6.1h-3.4c0,0,0.5,0.2,0.5,1.1l0,10.5h2.4v-7.2l3.9,7.2l2.4,0v-11.6l-2.4,0V135.2z"/>
				<path class="st12" d="M121.7,129.1h-3.1c0,0,0.5,0.2,0.5,1.1v10.5h6.7l0.6-2.6l-4.6,0V129.1z"/>
				<path class="st12" d="M70.7,129.1c0,0,0.6,0.3,0.4,1l-3.1,10.6h2.3l0.8-2.7h3.6l0.9,2.7h2.8l-3.8-11.6H70.7z M71.8,135.7
					l1.1-3.7l1.2,3.7H71.8z"/>
				<path class="st12" d="M95.9,129.1h-5.5c0,0,0.5,0.2,0.5,1.1v10.5h2.5l0-4h2.5c2.1,0,3.8-1.7,3.8-3.8
					C99.7,130.8,98,129.1,95.9,129.1z M95.7,134.2h-2.3v-2.7h2.3c0.7,0,1.3,0.6,1.3,1.3C97,133.6,96.4,134.2,95.7,134.2z"/>
				<path class="st12" d="M112.8,129.1h-3.1c0,0,0.5,0.2,0.5,1.1v10.5h6.7l0.6-2.6l-4.6,0V129.1z"/>
				<path class="st12" d="M103.5,136h3.5v-2.5h-3.5v-2l4.5,0l-0.6-2.5l-6.7,0c0,0,0.5,0.2,0.5,1.1l0,10.6h6.7l0.6-2.6l-4.9,0V136z"
					/>
			</g>
		</g>
	</g>
	<g class="st5">
		<path class="st12" d="M122.7,51.6c40.2,0,73,32.7,73,73s-32.7,73-73,73s-73-32.7-73-73S82.4,51.6,122.7,51.6 M122.7,40.6
			c-46.4,0-84,37.6-84,84s37.6,84,84,84c46.4,0,84-37.6,84-84S169.1,40.6,122.7,40.6L122.7,40.6z"/>
	</g>
</g>
</svg>
