<svg baseProfile="basic" xmlns="http://www.w3.org/2000/svg" viewBox="0 0 444 462"><style type="text/css">.ar0{display:none;} .ar1{display:inline;fill:none;stroke:#1D1D1B;stroke-width:0.75;stroke-miterlimit:10;} .ar2{display:inline;fill:none;stroke:#12100B;stroke-width:0.9789;stroke-miterlimit:10;} .ar3{display:inline;} .ar4{fill:none;stroke:#1D1D1B;stroke-miterlimit:10;} .ar5{fill:none;stroke:#1D1D1B;stroke-miterlimit:10;stroke-dasharray:3.3404,3.3404;} .ar6{display:inline;fill:#1D1D1B;} .ar7{display:inline;opacity:0.13;} .ar8{fill:#009C3D;} .ar9{fill:#EE7900;} .ar10{fill:none;stroke:#ECECEC;stroke-width:0.7403;stroke-miterlimit:10;} .ar11{fill:#EBEAE9;} .ar12{fill:#FFFFFF;} .ar13{fill:#E30520;} .ar14{fill:#00295A;} .ar15{fill:none;stroke:#1D1D1B;stroke-width:0.75;stroke-miterlimit:10;} .ar16{fill:none;stroke:#12100B;stroke-width:0.9789;stroke-miterlimit:10;} .ar17{fill:#1D1D1B;} .ar18{fill:none;stroke:#1D1D1B;stroke-miterlimit:10;stroke-dasharray:3.3312,3.3312;} .ar19{display:inline;fill:none;stroke:#F6CB37;stroke-miterlimit:10;} .ar20{display:inline;fill:none;stroke:#AC9EAD;stroke-miterlimit:10;} .ar21{display:inline;fill:none;stroke:#82C3E3;stroke-miterlimit:10;} .ar22{display:inline;fill:none;stroke:#B4CC6F;stroke-miterlimit:10;} .ar23{display:inline;fill:none;stroke:#D9C086;stroke-miterlimit:10;} .ar24{display:inline;fill:#00295A;} .ar25{fill:#E40077;} .ar26{display:inline;fill:#00883D;} .ar27{display:inline;fill:#EB6508;} .ar28{display:inline;fill:#AC9EAD;} .ar29{display:inline;fill:#D9C086;} .ar30{display:inline;fill:#82C3E3;} .ar31{display:inline;fill:#F6CB37;} .ar32{display:inline;fill:#B4CC6F;}</style><g id="ruota2"><path class="ar15" d="M129.8 230.6l-72.4-.6M444 232.2l-114.6-.6M324.2 264.6l16.7 5.5M297.2 28.8l-39.1 116.9M219.4 329.7l-1.9 20.3M239.8 118.8l-1.1 11.7M310.8 291.8l92.8 66.6M54 107.2l91.5 65.8M286.4 311.2l12.3 16.8M260.3 329.7l34.9 107.5M175.7 69.8l21.8 67M176 319.3l-9 13.5M297.6 137l-10.4 15.6M164.9 293.9l-21.2 20.3M313.5 151.8l-13.5 12.9M197.5 326.9l-22.9 68.9M240.9 329.7l2.4 19.3"/><path class="ar16" d="M140.3 275.2l-18 8.6M335.1 181.9l-14.6 7"/><path class="ar15" d="M143.7 296.3l-87.6 65.3M366.2 130.3l-56.4 42.1"/><path class="ar16" d="M128.3 247.5l-13.5 1.9M345.1 215.8l-16.3 2.4"/><path class="ar4" d="M240.4 114.7l1.7.2"/><path class="ar5" d="M245.3 115.3c52.6 7.6 95.2 50.4 100.4 105.7 6.1 64.9-41.6 122.4-106.4 128.4-57.5 5.4-109.3-31.5-124.5-85.1"/><path class="ar4" d="M114.4 262.7l-.4-1.6"/><circle class="ar17" cx="240.4" cy="114.7" r="6.1"/><path class="ar17" d="M113.7 260.1l-5.7 3.5 3.2-12 9.2 8.4z"/><path class="ar15" d="M260.3 329.7"/><path class="ar8" d="M228.8 138.8c51.9 0 94 42.2 94 94s-42.2 94-94 94-94-42.2-94-94 42.1-94 94-94m0-11c-58 0-105 47-105 105s47 105 105 105 105-47 105-105-47-105-105-105z"/><path class="ar9" d="M228.8 149.5c45.9 0 83.3 37.4 83.3 83.3s-37.4 83.3-83.3 83.3-83.3-37.4-83.3-83.3 37.4-83.3 83.3-83.3m0-10.8c-52 0-94.1 42.1-94.1 94.1s42.1 94.1 94.1 94.1 94.1-42.1 94.1-94.1-42.1-94.1-94.1-94.1z"/><path class="ar10" d="M175.1 280.7M282.5 177.2M177.1 175.3M280.5 282.6M187.2 290.8M270.4 167.1M166.9 187.4M290.6 270.5M155.6 243.1M302 214.8M214.7 155.8M154.3 227.8M303.3 228.6M230 154.4M285.6 206.8"/><path class="ar14" d="M228.8 159.8c40.2 0 73 32.7 73 73s-32.7 73-73 73-73-32.7-73-73 32.7-73 73-73m0-11c-46.4 0-84 37.6-84 84s37.6 84 84 84 84-37.6 84-84-37.6-84-84-84z"/></g></svg>
