<?xml version="1.0" encoding="utf-8"?>
<!-- Generator: Adobe Illustrator 22.0.0, SVG Export Plug-In . SVG Version: 6.00 Build 0)  -->
<svg version="1.1" id="Livello_1" xmlns="http://www.w3.org/2000/svg" xmlns:xlink="http://www.w3.org/1999/xlink" x="0px" y="0px"
	 viewBox="0 0 195 44" style="enable-background:new 0 0 195 44;" xml:space="preserve">
<style type="text/css">
	.st0{fill:#00245B;}
</style>
<g>
	<g>
		<g>
			<path class="st0" d="M106.3-0.4c-12.1,0-22,9.9-22,22c0,12.1,9.9,22,22,22c12.1,0,22-9.9,22-22C128.3,9.5,118.4-0.4,106.3-0.4z
				 M106.3,41.7c-11.1,0-20.1-9-20.1-20.1c0-11.1,9-20.1,20.1-20.1c11.1,0,20.1,9,20.1,20.1C126.4,32.7,117.4,41.7,106.3,41.7z
				 M106.3,16.8c-2.6,0-4.8,2.1-4.8,4.8c0,2.6,2.1,4.8,4.8,4.8s4.8-2.1,4.8-4.8C111.1,19,108.9,16.8,106.3,16.8z M106.3,24.5
				c-1.6,0-2.9-1.3-2.9-2.9c0-1.6,1.3-2.9,2.9-2.9c1.6,0,2.9,1.3,2.9,2.9C109.2,23.2,107.9,24.5,106.3,24.5z M102.5,13h7.7
				c0.4,0,0.7-0.2,0.8-0.5c0.2-0.3,0.1-0.7,0-1l-3.8-5.7c-0.4-0.5-1.2-0.5-1.6,0l-3.8,5.7c-0.2,0.3-0.2,0.7,0,1
				C101.8,12.8,102.1,13,102.5,13z M106.3,8l2,3.1h-4.1L106.3,8z M110.1,30.2h-7.7c-0.4,0-0.7,0.2-0.8,0.5c-0.2,0.3-0.1,0.7,0,1
				l3.8,5.7c0.2,0.3,0.5,0.4,0.8,0.4c0.3,0,0.6-0.2,0.8-0.4l3.8-5.7c0.2-0.3,0.2-0.7,0-1C110.8,30.4,110.5,30.2,110.1,30.2z
				 M106.3,35.2l-2-3.1h4.1L106.3,35.2z"/>
		</g>
	</g>
	<path class="st0" d="M0.9,26.2c0,0,1.2,1.4,3,1.4c1.1,0,2.1-0.7,2.1-1.8c0-2.5-5.8-2.1-5.8-5.9c0-1.8,1.6-3.2,3.8-3.2
		c1.3,0,3.4,0.6,3.4,2.2v1H5.8v-0.6c0-0.6-0.9-1.1-1.9-1.1c-1.3,0-2.1,0.7-2.1,1.6c0,2.4,5.8,1.9,5.8,5.8c0,1.8-1.4,3.4-3.8,3.4
		c-2.5,0-4-1.8-4-1.8L0.9,26.2z"/>
	<path class="st0" d="M16.6,16.8c1.6,0,4.5,0.7,4.5,2.6v1.2h-1.6v-0.7c0-1-1.7-1.5-2.9-1.5c-2.4,0-4.3,1.8-4.3,4.5
		c0,2.6,1.9,4.7,4.3,4.7c2.4,0,3.8-1.6,3.8-1.6l0.9,1.2c0,0-1.7,2-4.7,2c-3.6,0-6.1-2.8-6.1-6.3C10.6,19.4,13.2,16.8,16.6,16.8z"/>
	<path class="st0" d="M25.4,18.5h-1.1V17h5.2c2.1,0,3.6,1.3,3.6,3.5c0,2-1.3,3-2.2,3.2v0c0,0,0.3,0.2,0.5,0.5l1.4,2.9
		c0.2,0.4,0.4,0.4,0.8,0.4H34V29h-0.8c-0.9,0-1.3-0.1-1.7-0.9l-1.6-3.2c-0.3-0.6-0.5-0.6-1.2-0.6h-1.6V29h-1.7V18.5z M29.3,22.8
		c1.3,0,2.1-0.8,2.1-2.2s-0.8-2.1-2-2.1h-2.2v4.3H29.3z"/>
	<path class="st0" d="M42.6,16.8c3.5,0,6.2,2.7,6.2,6.1c0,3.5-2.7,6.3-6.2,6.3c-3.5,0-6.2-2.8-6.2-6.3
		C36.4,19.5,39.1,16.8,42.6,16.8z M42.6,27.6c2.4,0,4.4-2,4.4-4.7c0-2.6-2-4.5-4.4-4.5s-4.4,2-4.4,4.5
		C38.2,25.6,40.1,27.6,42.6,27.6z"/>
	<path class="st0" d="M52.8,18.9c0-0.3-0.1-0.4-0.4-0.4h-0.7V17h1.7c0.8,0,1.1,0.3,1.1,1.1v9.1c0,0.2,0.1,0.4,0.4,0.4h3.3
		c0.2,0,0.4-0.1,0.4-0.4v-0.8h1.5v1.5c0,0.8-0.3,1.1-1.1,1.1h-5.1c-0.8,0-1.1-0.3-1.1-1.1V18.9z"/>
	<path class="st0" d="M63.2,18.9c0-0.3-0.1-0.4-0.4-0.4H62V17h1.7c0.8,0,1.1,0.3,1.1,1.1v9.1c0,0.2,0.1,0.4,0.4,0.4h3.3
		c0.2,0,0.4-0.1,0.4-0.4v-0.8h1.5v1.5c0,0.8-0.3,1.1-1.1,1.1h-5.1c-0.8,0-1.1-0.3-1.1-1.1V18.9z"/>
	<path class="st0" d="M136.8,18.5h-1.1V17h4.9c3.7,0,6.1,2.2,6.1,6c0,3.8-2.4,6-6.1,6h-2.7c-0.8,0-1.1-0.3-1.1-1.1V18.5z
		 M138.9,27.6h1.6c2.7,0,4.4-1.6,4.4-4.6c0-2.9-1.8-4.5-4.4-4.5h-1.9v8.7C138.5,27.4,138.6,27.6,138.9,27.6z"/>
	<path class="st0" d="M155.6,16.8c3.5,0,6.2,2.7,6.2,6.1c0,3.5-2.7,6.3-6.2,6.3s-6.2-2.8-6.2-6.3C149.5,19.5,152.2,16.8,155.6,16.8z
		 M155.6,27.6c2.4,0,4.4-2,4.4-4.7c0-2.6-2-4.5-4.4-4.5s-4.4,2-4.4,4.5C151.3,25.6,153.2,27.6,155.6,27.6z"/>
	<path class="st0" d="M165.1,18.9c-0.1-0.3-0.3-0.4-0.6-0.4h-0.3V17h1c0.8,0,1.3,0.2,1.5,1l1.9,7.7c0.2,0.6,0.2,1.3,0.2,1.3h0
		c0,0,0.1-0.6,0.3-1.3l2.4-8.7h1.5l2.2,8.7c0.2,0.7,0.3,1.3,0.3,1.3h0c0,0,0.1-0.6,0.2-1.3l1.9-7.7c0.2-0.8,0.6-1,1.5-1h1v1.5h-0.3
		c-0.3,0-0.5,0.1-0.6,0.4L176.6,29h-2l-2-7.6c-0.2-0.8-0.3-1.6-0.3-1.6h0c0,0-0.2,0.9-0.4,1.6l-2.2,7.6h-2L165.1,18.9z"/>
	<path class="st0" d="M182.6,27.6h0.7c0.2,0,0.4-0.1,0.4-0.4V17h1.5l5.3,7.6c0.4,0.6,1,1.6,1,1.6h0c0,0-0.1-1-0.1-1.6v-6.5
		c0-0.8,0.3-1.1,1.1-1.1h1.7v1.5h-0.7c-0.2,0-0.4,0.1-0.4,0.4V29h-1.5l-5.4-7.6c-0.4-0.6-1-1.6-1-1.6h0c0,0,0.1,1,0.1,1.6v6.5
		c0,0.8-0.3,1.1-1.1,1.1h-1.7V27.6z"/>
</g>
</svg>
