<?xml version="1.0" encoding="utf-8"?>
<!-- Generator: Adobe Illustrator 22.0.0, SVG Export Plug-In . SVG Version: 6.00 Build 0)  -->
<svg version="1.1" id="Layer_1" xmlns="http://www.w3.org/2000/svg" xmlns:xlink="http://www.w3.org/1999/xlink" x="0px" y="0px"
	 viewBox="0 0 72 66" style="enable-background:new 0 0 72 66;" xml:space="preserve">
<style type="text/css">
	.st0{fill:#00245B;}
</style>
<g>
	<g>
		<path class="st0" d="M71,25.2H45L36.7,0.7l-8.3,24.5H0.5l22,15.1L14,64.7l22.6-15.2l21,15.2l-8.4-24.4L71,25.2z M52.4,58.1
			L36.5,46.4L19,58.1l6.5-18.8L8.7,27.8h21.7L36.7,9L43,27.8h19.8L46,39.3L52.4,58.1z M58.7,29.1H42l-5.4-16l-5.4,16H12.7L27,38.9
			l-5.5,16l15-9.9l13.4,9.9l-5.5-16L58.7,29.1z"/>
	</g>
</g>
</svg>
