<?xml version="1.0" encoding="utf-8"?>
<!-- Generator: Adobe Illustrator 22.0.0, SVG Export Plug-In . SVG Version: 6.00 Build 0)  -->
<svg version="1.1" id="Layer_1" xmlns="http://www.w3.org/2000/svg" xmlns:xlink="http://www.w3.org/1999/xlink" x="0px" y="0px"
	 viewBox="0 0 72 66" style="enable-background:new 0 0 72 66;" xml:space="preserve">
<style type="text/css">
	.st0{fill:#FF322B;}
</style>
<g>
	<g>
		<path class="st0" d="M71.4,25.9l-26,0L37.1,1.4l-8.3,24.5l-27.9,0l22,15.1l-8.5,24.4l22.6-15.2l21,15.2l-8.4-24.4L71.4,25.9z
			 M52.8,58.7L36.9,47L19.4,58.7l6.5-18.8L9,28.4l21.7,0l6.3-18.8l6.3,18.8l19.8,0L46.4,39.9L52.8,58.7z M59.1,29.7l-16.7,0l-5.4-16
			l-5.4,16l-18.5,0l14.3,9.8l-5.5,16l15-9.9l13.4,9.9l-5.5-16L59.1,29.7z"/>
	</g>
</g>
</svg>
