<?xml version="1.0" encoding="utf-8"?>
<!-- Generator: Adobe Illustrator 22.0.0, SVG Export Plug-In . SVG Version: 6.00 Build 0)  -->
<svg version="1.1" baseProfile="basic" id="Layer_1"
	 xmlns="http://www.w3.org/2000/svg" xmlns:xlink="http://www.w3.org/1999/xlink" x="0px" y="0px" viewBox="0 0 72 66"
	 xml:space="preserve">
<style type="text/css">
	.st0{fill:#72C2E1;}
</style>
<g>
	<g>
		<path class="st0" d="M71.2,25.5h-26L37,1l-8.3,24.5H0.8l22,15.1L14.2,65l22.6-15.2l21,15.2l-8.4-24.4L71.2,25.5z M52.8,58.2
			L36.8,46.5L19.3,58.2l6.5-18.8L9,28h21.7L37,9.2L43.3,28h19.8L46.3,39.5L52.8,58.2z M59,29.3H42.3l-5.4-16l-5.4,16H13l14.3,9.8
			l-5.5,16l15-9.9l13.4,9.9l-5.5-16L59,29.3z"/>
	</g>
</g>
</svg>
