<?xml version="1.0" encoding="utf-8"?>
<!-- Generator: Adobe Illustrator 22.0.0, SVG Export Plug-In . SVG Version: 6.00 Build 0)  -->
<svg version="1.1" baseProfile="basic" id="Layer_1"
	 xmlns="http://www.w3.org/2000/svg" xmlns:xlink="http://www.w3.org/1999/xlink" x="0px" y="0px" viewBox="0 0 72 66"
	 xml:space="preserve">
<style type="text/css">
	.st0{fill:#A1B64B;}
</style>
<g>
	<g>
		<path class="st0" d="M71.3,25.5h-26L36.9,1l-8.3,24.5H0.7l22,15.1L14.3,65l22.7-15.2L58,65l-8.5-24.4L71.3,25.5z M52.7,58.4
			L36.8,46.7L19.3,58.4l6.5-18.8L8.9,28.1h21.8l6.4-18.8l6.4,18.8h19.8L46.4,39.6L52.7,58.4z M59.1,29.4H42.4l-5.4-16.1l-5.6,16.1
			H12.9l14.3,9.8l-5.5,16.1l15.1-10l13.4,10l-5.5-16.1L59.1,29.4z"/>
	</g>
</g>
</svg>
