<svg xmlns="http://www.w3.org/2000/svg" viewBox="0 0 40 30" enable-background="new 0 0 40 30"><style type="text/css">.st0{fill:#F3352F;}</style><path class="st0" d="M39 11.8c0-.8-.1-1.8-.2-3s-.3-2.3-.5-3.2c-.2-1.1-.7-2-1.5-2.7-.8-.7-1.7-1.2-2.7-1.3-3.2-.4-8-.6-14.6-.6-6.5 0-11.4.2-14.6.5-1 .2-1.9.6-2.7 1.3-.8.8-1.3 1.7-1.5 2.7-.2 1-.4 2-.5 3.2-.1 1.3-.2 2.3-.2 3.1v6.6c0 .8.1 1.8.2 3s.3 2.3.5 3.2c.2 1.1.7 2 1.5 2.7.8.7 1.7 1.2 2.7 1.3 3.2.4 8.1.5 14.6.5s11.4-.2 14.6-.5c1-.1 1.9-.5 2.7-1.3.8-.7 1.3-1.6 1.5-2.7.2-1 .4-2 .5-3.2.1-1.2.2-2.2.2-3v-3.3c.1-1.4.1-2.5 0-3.3zm-11.8 4.4l-11.2 7c-.2.1-.5.2-.7.2-.2 0-.4-.1-.7-.2-.5-.3-.7-.7-.7-1.2v-14c0-.6.2-1 .7-1.2.5-.3 1-.2 1.4 0l11.2 7c.4.3.7.6.7 1.2s-.2 1-.7 1.2zm0 0"/></svg>