<svg xmlns="http://www.w3.org/2000/svg" viewBox="0 0 1045.9 313.9"><style>.st0{fill:#c0b07f}.st0,.st1,.st2{fill-rule:evenodd;clip-rule:evenodd}.st1{fill:#295942}.st2{fill:none;stroke:#c0b07f;stroke-width:3;stroke-linecap:round;stroke-miterlimit:10;stroke-dasharray:0,9}.st3{fill:#295942}.st4{fill:#00295a}</style><path class="st0" d="M895.8 67.9c61.9 0 112.1 50.2 112.1 112.1s-50.2 112.1-112.1 112.1-112.1-50.2-112.1-112.1 50.2-112.1 112.1-112.1zm-244.9-48.9c61.9 0 112.1 50.2 112.1 112.1 0 61.9-50.2 112.1-112.1 112.1-61.9 0-112.1-50.2-112.1-112.1 0-61.9 50.2-112.1 112.1-112.1zm-249.5 0c61.9 0 112.1 50.2 112.1 112.1 0 61.9-50.2 112.1-112.1 112.1-61.9 0-112.1-50.2-112.1-112.1 0-61.9 50.2-112.1 112.1-112.1zm-252.4 48.9c61.9 0 112.1 50.2 112.1 112.1s-50.2 112.1-112.1 112.1c-61.9 0-112.1-50.2-112.1-112.1s50.2-112.1 112.1-112.1z"/><path class="st1" d="M896.8 119.4v-23.2c0-1.8 0-1.9-.3-2.2-.9-.6-2-1-3.1-1-2.6 0-4.7 1.8-4.7 4.1v.1c-1.9 1-3.2 2.7-3.2 4.7 0 .2 0 .5.1.7-2.1 1.3-3.3 3.3-3.3 5.4 0 2.1 1.1 4.1 3.1 5.3-.1.4-.2.8-.2 1.2 0 2.1 1.3 3.9 3.5 4.8 0 2.2 2.1 4.1 4.7 4.1 3.4.1 3.4-2.8 3.4-4zm-6.6 0v-.3c.1-.3-.1-.7-.5-.8-1.8-.6-3-2.1-3-3.7 0-.3.1-.7.2-1 .6-.2 1.3-.2 1.9.1l.7.4c.1.1.2.1.3.1.2 0 .5-.1.6-.4.2-.3 0-.8-.3-.9l-.7-.4c-.9-.5-2-.6-3-.2-1.6-1-2.6-2.6-2.6-4.2 0-1.8 1.1-3.5 3-4.5.3-.2.4-.5.3-.8-.1-.3-.1-.6-.1-.9 0-1.5 1.1-2.9 2.8-3.6.3-.1.5-.4.4-.8v-.4c0-1.5 1.5-2.7 3.4-2.7.7 0 1.4.2 2 .6v24.4c0 2-.5 2.7-1.9 2.7-2 0-3.5-1.2-3.5-2.7zm-3.3-13.6c-.4-.1-.7.1-.8.5-.1.4.1.7.5.8.1 0 1.1.3.9 1.3-.1.4.2.7.6.8h.1c.3 0 .6-.3.7-.6.2-1.7-1.2-2.6-2-2.8zm6.6-.6c.3-.2.4-.7.1-1-.2-.3-.7-.4-1-.1-.6.5-1.5 0-1.5-.1-.3-.2-.7-.2-1 .2-.2.3-.2.7.2 1 .3.3 1 .5 1.7.5.6 0 1.1-.1 1.5-.5zm.7 13.4c.3-.3.3-.7.1-1-.6-.7-1.3-.9-1.8-.9-1 0-1.7.6-1.8.7-.3.3-.3.7 0 1 .3.3.7.3 1 0 0 0 .3-.3.8-.3.3 0 .5.2.8.5.1.2.3.2.5.2.1 0 .3-.1.4-.2zm-2.2-17.8c.6-.1 1-.3 1.3-.7.3-.4.4-.9.4-1.4 0-.4-.4-.7-.8-.6-.4 0-.7.4-.6.8 0 .1 0 .2-.1.3-.1.1-.2.2-.3.2-.4 0-.7.4-.6.8.1.4.4.6.7.6zm.3 9.1l-.3-.2c-.3-.2-.8-.1-.9.3-.2.3-.1.8.3.9l.3.2c.4.2.8.5 1 .9l.2.3c.1.2.4.3.6.3.1 0 .2 0 .4-.1.3-.2.4-.6.2-1l-.2-.3c-.4-.4-.9-.9-1.6-1.3zm-.6 15.2v4.7l4.1 3.1h4.9l4.3-3.1v-4.7h-13.3zm8.6 6.4h-4l-1.6-1.2h7.3l-1.7 1.2zm-7.2-2.6v-2.4h10.5v2.4h-10.5zm5.3-34.9h-.4v1.4h.3c3.1 0 6.1 1.2 8.3 3.4 2.2 2.2 3.5 5.2 3.5 8.3 0 4-1.9 7.7-5 9.7-1.7 1.1-1.5 2.9-1.5 3v2.5h-3.5v-6.8l2.9-5.4-1.2-.7-3 5.5c-.1.1-.1.2-.1.3v6.9h-1.4v1.4h7c.4 0 .7-.3.7-.7v-3.3s-.1-1.1.9-1.7c3.5-2.2 5.6-6.4 5.6-10.8 0-3.5-1.4-6.8-3.9-9.3-2.4-2.4-5.7-3.7-9.2-3.7zm0-5.4c.4 0 .7-.3.7-.7v-5.5c0-.4-.3-.7-.7-.7-.4 0-.7.3-.7.7v5.5c0 .4.3.7.7.7zm-19.4 18h-5.5c-.4 0-.7.3-.7.7 0 .4.3.7.7.7h5.5c.4 0 .7-.3.7-.7 0-.4-.3-.7-.7-.7zm44.3 0h-5.5c-.4 0-.7.3-.7.7 0 .4.3.7.7.7h5.5c.4 0 .7-.3.7-.7-.1-.4-.4-.7-.7-.7zm-38.3-12c.2 0 .4-.1.5-.2.3-.3.3-.7 0-1l-3.9-3.9c-.3-.3-.7-.3-1 0-.3.3-.3.7 0 1l3.9 3.9c.1.1.3.2.5.2zm30.2-5.1l-3.9 3.9c-.3.3-.3.7 0 1 .1.1.3.2.5.2s.4-.1.5-.2l3.9-3.9c.3-.3.3-.7 0-1-.3-.3-.8-.3-1 0z"/><path class="st2" d="M1018.8 226.9c-83.8-60.2-276.2-102.3-500-102.3-224 0-416.4 42.2-500.1 102.4"/><path class="st3" d="M157.5 99.4h-1.4v-4.9c0-3.7-2.5-6.4-6-6.4h-4.9c-3.5 0-6 2.7-6 6.4v4.9h-1.4v-4.9c0-4.4 3.2-7.8 7.5-7.8h4.9c4.3 0 7.5 3.3 7.5 7.8v4.9zm-9.9-22.6c-2.1 0-2.8 1.8-2.8 3.5s.7 3.5 2.8 3.5c2.1 0 2.8-1.8 2.8-3.5s-.7-3.5-2.8-3.5m0 8.5c-2.5 0-4.2-2-4.2-4.9 0-3 1.7-4.9 4.2-4.9s4.2 2 4.2 4.9c0 2.9-1.7 4.9-4.2 4.9m0 24.7c-2.1 0-2.8 1.8-2.8 3.5s.7 3.5 2.8 3.5c2.1 0 2.8-1.8 2.8-3.5s-.7-3.5-2.8-3.5m0 8.4c-2.5 0-4.2-2-4.2-4.9 0-3 1.7-4.9 4.2-4.9s4.2 2 4.2 4.9c0 3-1.7 4.9-4.2 4.9m-19.1-8.4c-2.1 0-2.8 1.8-2.8 3.5s.7 3.5 2.8 3.5c2.1 0 2.8-1.8 2.8-3.5s-.7-3.5-2.8-3.5m0 8.4c-2.5 0-4.2-2-4.2-4.9 0-3 1.7-4.9 4.2-4.9s4.2 2 4.2 4.9c0 3-1.7 4.9-4.2 4.9m28 9.2c-.3 0-.6-.2-.7-.6-.6-3.4-3-5.8-6-5.8h-5c-3.1 0-5.5 2.3-6 5.8-.1.4-.4.6-.8.6-.4-.1-.6-.4-.6-.8.7-4.2 3.7-6.9 7.4-6.9h5c3.8 0 6.8 2.8 7.4 7 .1.4-.2.7-.6.8 0-.1-.1-.1-.1-.1M137.8 127.6c-.3 0-.6-.2-.7-.6-.6-3.4-3-5.8-6-5.8h-5c-3.1 0-5.5 2.3-6 5.8-.1.4-.4.6-.8.6-.4-.1-.6-.4-.6-.8.7-4.2 3.7-6.9 7.4-6.9h5c3.8 0 6.8 2.8 7.4 7 .1.4-.2.7-.6.8 0-.1-.1-.1-.1-.1m28.3-17.6c-2.1 0-2.8 1.8-2.8 3.5s.7 3.5 2.8 3.5c2.1 0 2.8-1.8 2.8-3.5.1-1.7-.7-3.5-2.8-3.5m0 8.4c-2.5 0-4.2-2-4.2-4.9 0-3 1.7-4.9 4.2-4.9s4.2 2 4.2 4.9c.1 3-1.6 4.9-4.2 4.9m-9.3 9.2h-.1c-.4-.1-.6-.4-.6-.8.7-4.2 3.7-7 7.4-7h5c3.8 0 6.8 2.8 7.4 6.9.1.4-.2.7-.6.8-.4.1-.7-.2-.8-.6-.6-3.4-3-5.8-6-5.8h-5c-3.1 0-5.5 2.3-6 5.8 0 .5-.3.7-.7.7m-21.9-25.4h25.5v-2.1h-25.5v2.1zm26.1 1.4h-26.9c-.4 0-.7-.3-.7-.7v-3.5c0-.4.3-.7.7-.7h26.9c.4 0 .7.3.7.7v3.5c0 .4-.3.7-.7.7"/><path class="st3" d="M137 119.9c-.4 0-.7-.3-.7-.7v-16.2c0-.4.3-.7.7-.7.4 0 .7.3.7.7v16.2c0 .3-.3.7-.7.7m21.2 0c-.4 0-.7-.3-.7-.7v-16.2c0-.4.3-.7.7-.7s.7.3.7.7v16.2c0 .3-.3.7-.7.7m-15-21.3h8.5v-.8l.6-4.6v-.1l-.1-.1h-9.3c-.1 0-.1 0-.1.1 0 0-.1.1 0 .1l.6 4.7v.7zm9.9 1.4h-11.3v-2l-.6-4.6c-.1-.5.1-.9.4-1.3.3-.3.7-.5 1.2-.5h9.3c.5 0 .9.2 1.2.5.3.3.4.8.4 1.3l-.6 4.6v2zm251.9-29.1h-1.4v-9.6l.2-.2s4.5-4.5 5.6-9.4c.8-3.5 1.4-6.1 1.4-6.1.1-.3 0-.7-.2-1-.2-.2-.4-.4-.7-.4-.4-.1-.7-.1-.9.1-.3.2-.5.8-.6 1.2l-.8 3.4c-1.4 5.7-3.6 7.9-8.2 7.9h-1.4c-3.6 0-6.4 2.4-6.4 5.6v8.6h-1.4v-8.6c0-4 3.4-7.1 7.8-7.1h1.4c3.4 0 5.4-1 6.8-6.8l.8-3.3c.2-1 .6-1.6 1.2-2 .5-.4 1.2-.4 2-.3.6.1 1.2.4 1.6 1 .4.6.6 1.3.4 2.1 0 0-.6 2.6-1.4 6.2-1.1 4.7-4.9 8.9-5.8 9.9v8.8zM395.1 70.9h-1.4v-4.9h-.7v-1.4h2.1v6.3zm4.2-24.9c-2.1 0-2.8 1.8-2.8 3.5s.7 3.5 2.8 3.5c2.1 0 2.8-1.8 2.8-3.5.1-1.7-.7-3.5-2.8-3.5m0 8.5c-2.5 0-4.3-2-4.3-4.9 0-3 1.7-4.9 4.3-4.9 2.5 0 4.3 2 4.3 4.9 0 2.9-1.7 4.9-4.3 4.9"/><path class="st3" d="M388.7 70.2v15.5h1.4v-14.1h17v14.1h1.4v-15.5h-19.8zM410.7 71.6h-24.1c-.4 0-.7-.3-.7-.7 0-.4.3-.7.7-.7h24.1c.4 0 .7.3.7.7 0 .4-.3.7-.7.7m242.2 4.9h1.4v-20.6h-1.4v20.6zm-12.9 0h1.4v-20.6h-1.4v20.6zm7.2-46.9c-2.6 0-3.6 2.3-3.6 4.3s.9 4.3 3.6 4.3c2.6 0 3.6-2.3 3.6-4.3-.1-2-1-4.3-3.6-4.3m0 9.9c-3 0-5-2.3-5-5.7 0-3.4 2-5.7 5-5.7s5 2.3 5 5.7c0 3.5-2.1 5.7-5 5.7m-.8 37h1.4v-12.8h-1.4v12.8zm-6.1-23.9c-.1 0-.3 0-.4-.1-.3-.2-.4-.7-.2-1l.9-1.2c.4-.5 1.1-1 1.9-.7l2.8.5c.8-.1 5-.5 7.9.4l-.2-2.1c0-.4.2-.7.6-.8.4 0 .7.2.8.6l.3 3.3c0 .3-.1.5-.3.7-.2.1-.5.2-.7 0-2.6-1.4-8.3-.7-8.4-.7h-.2l-3-.6h-.2s-.2.1-.3.2l-.9 1.2c0 .2-.2.3-.4.3M648.9 54.8c.5.2 1.6.5 2.1.5h5.3c.5 0 1.1-.2 1.4-.6.2-.3.2-.5.2-.5l-1.1-8.3c-.4-2-2.1-3.5-4.1-3.5h-10c-2.2 0-4.4 1.6-4.8 3.5l-1.5 8.2c0 .2 0 .4.2.6.3.3.8.5 1.3.5h6.9l2-.2c-1.6-1-4.4-2.5-6.7-2.3-.2 0-.5-.1-.6-.2-.2-.2-.2-.4-.2-.6l.8-3.6c.1-.4.5-.6.9-.5.4.1.6.5.5.8l-.6 2.7c3.6.3 7.4 3.1 8 3.5m7.4 1.9h-5.3c-.5 0-1.3-.2-1.9-.3h-.1l-4.1.3h-7c-.9 0-1.9-.4-2.4-1-.4-.5-.6-1.1-.5-1.8l1.5-8.2c.5-2.5 3.4-4.7 6.2-4.7h10c2.6 0 4.9 2 5.5 4.6l1.1 8.3c.1.6-.1 1.2-.5 1.7-.6.7-1.5 1.1-2.5 1.1m10.9 6.3h-1.4v-1.4h.7v-13c0-3.4-2.8-6.2-6.3-6.2h-2.2v-1.4h2.2c4.3 0 7.8 3.4 7.8 7.6v13.7c-.1.4-.4.7-.8.7M664.3 76.5h-1.4v-25.6c0-.4.3-.7.7-.7h1.4v1.4h-.7v24.9zm-6.4 0h1.4v-13.5h-1.4v13.5zm.7-45.5c-2.1 0-2.9 1.8-2.9 3.6 0 1.7.8 3.6 2.9 3.6 2.1 0 2.9-1.8 2.9-3.6-.1-1.7-.8-3.6-2.9-3.6m0 8.5c-2.6 0-4.3-2-4.3-5s1.7-5 4.3-5 4.3 2 4.3 5-1.8 5-4.3 5m18.6 24.2h-1.4v-1.4h.7v-12.8c0-3-2.3-5-5.7-5h-2.1v-1.4h2.1c4.2 0 7.2 2.6 7.2 6.4v13.5c-.1.4-.4.7-.8.7"/><path class="st3" d="M674.3 76.5h-1.4v-22.8c0-.4.3-.7.7-.7h.7v23.5zm-6.4 0h1.4v-11.4h-1.4v11.4zm1.4-41.9c-1.6 0-2.1 1.5-2.1 2.8 0 1.4.6 2.8 2.1 2.8 1.6 0 2.1-1.5 2.1-2.8.1-1.4-.5-2.8-2.1-2.8m0 7.1c-2.1 0-3.6-1.7-3.6-4.3 0-2.5 1.4-4.3 3.6-4.3 2.1 0 3.6 1.7 3.6 4.3 0 2.6-1.5 4.3-3.6 4.3m-40.8 21.3h-1.4c-.4 0-.7-.3-.7-.7v-13.7c0-4.2 3.5-7.6 7.8-7.6h2.2v1.4h-2.2c-3.5 0-6.3 2.8-6.3 6.2v13h.7v1.4zM631.4 76.5h-1.4v-24.9h-.7v-1.4h1.4c.4 0 .7.3.7.7v25.6zm3.6 0h1.4v-13.5h-1.4v13.5zm.7-45.5c-2.1 0-2.9 1.8-2.9 3.6 0 1.7.8 3.6 2.9 3.6 2.1 0 2.9-1.8 2.9-3.6 0-1.7-.8-3.6-2.9-3.6m0 8.5c-2.6 0-4.3-2-4.3-5s1.7-5 4.3-5c2.6 0 4.3 2 4.3 5s-1.7 5-4.3 5m-17.2 24.2h-1.4c-.4 0-.7-.3-.7-.7v-13.5c0-3.8 2.9-6.4 7.2-6.4h2.1v1.4h-2.1c-3.4 0-5.7 2-5.7 5v12.8h.7v1.4zM621.4 76.5h-1.4v-23.5h.7c.4 0 .7.3.7.7v22.8zm3.6 0h1.4v-11.4h-1.4v11.4zm0-41.9c-1.6 0-2.1 1.5-2.1 2.8 0 1.4.6 2.8 2.1 2.8 1.6 0 2.1-1.5 2.1-2.8 0-1.4-.5-2.8-2.1-2.8m0 7.1c-2.1 0-3.6-1.7-3.6-4.3 0-2.5 1.4-4.3 3.6-4.3s3.6 1.7 3.6 4.3c-.1 2.6-1.5 4.3-3.6 4.3m-504.4 103.3h5.7v-6.2h2.1v6.2h5.6v2h-5.6v6.2h-2.1v-6.2h-5.7v-2zm27-4.8c0-1.6-1.2-2.8-3.1-2.8-1.6 0-2.8.8-2.8 1.7v.8h-2.3v-1.5c0-2.3 3.1-3.3 5.2-3.3 3.3 0 5.6 2.1 5.6 5.1 0 6.2-9.1 6.3-9.1 10.4 0 .4.2.5.6.5h6.4c.4 0 .6-.2.6-.6v-1.1h2.3v2.3c0 1.1-.5 1.6-1.6 1.6h-9.2c-1.4 0-1.7-.6-1.7-2.1 0-6.6 9.1-6.2 9.1-11zm8.3 4c0-5.1 1.5-9.2 6.3-9.2s6.3 4.1 6.3 9.2c0 5.2-1.5 9.3-6.3 9.3s-6.3-4.1-6.3-9.3zm10.1 0c0-3.9-.8-6.9-3.7-6.9-2.9 0-3.8 3-3.8 6.9 0 3.9.8 7 3.8 7 2.8 0 3.7-3.1 3.7-7zm-67.2 22.4c3.8 0 6.9 2.8 6.9 6.7 0 3.9-3.1 6.7-6.9 6.7-3.8 0-6.9-2.8-6.9-6.7 0-3.9 3.1-6.7 6.9-6.7zm0 11.3c2.4 0 4.4-1.9 4.4-4.6 0-2.7-2-4.6-4.4-4.6-2.4 0-4.4 1.9-4.4 4.6 0 2.7 2 4.6 4.4 4.6zm12.5-8.3c0-.4-.2-.6-.6-.6h-1v-2.1h2.3c1.1 0 1.6.5 1.6 1.3v.7h.1s1.1-2.3 4.3-2.3c3.4 0 5.6 2.7 5.6 6.7 0 4.1-2.5 6.7-5.8 6.7-2.8 0-3.9-2.1-3.9-2.1h-.1s.1.5.1 1.1v5.7h-2.5v-15.1zm6 8.3c2 0 3.7-1.7 3.7-4.6 0-2.8-1.5-4.6-3.6-4.6-1.9 0-3.7 1.3-3.7 4.6 0 2.4 1.2 4.6 3.6 4.6zm12-8.3c0-.4-.2-.6-.6-.6h-1v-2.1h2.4c1.1 0 1.6.5 1.6 1.6v8.5c0 .4.2.6.6.6h1v2.1h-2.4c-1.1 0-1.6-.5-1.6-1.6v-8.5zm0-7.7h2.2v2.6h-2.2v-2.6zm9.3 7.7c0-.4-.2-.6-.6-.6h-1v-2.1h2.4c1.1 0 1.6.5 1.6 1.4v.5c0 .4-.1.7-.1.7h.1c.5-1.1 2-2.9 4.8-2.9 3 0 4.4 1.6 4.4 4.9v5.5c0 .4.2.6.6.6h1v2.1h-2.4c-1.1 0-1.6-.5-1.6-1.6v-6c0-1.8-.4-3.2-2.4-3.2s-3.5 1.3-4.1 3.1c-.2.5-.2 1.1-.2 1.7v6h-2.5v-10.1zm18.6 0c0-.4-.2-.6-.6-.6h-1v-2.1h2.4c1.1 0 1.6.5 1.6 1.6v8.5c0 .4.2.6.6.6h1v2.1h-2.4c-1.1 0-1.6-.5-1.6-1.6v-8.5zm0-7.7h2.2v2.6h-2.2v-2.6zm15 4.7c3.8 0 6.9 2.8 6.9 6.7 0 3.9-3.1 6.7-6.9 6.7-3.8 0-6.9-2.8-6.9-6.7 0-3.9 3.1-6.7 6.9-6.7zm0 11.3c2.4 0 4.4-1.9 4.4-4.6 0-2.7-2-4.6-4.4-4.6-2.4 0-4.4 1.9-4.4 4.6 0 2.7 2 4.6 4.4 4.6zm12.5-8.3c0-.4-.2-.6-.6-.6h-1v-2.1h2.4c1.1 0 1.6.5 1.6 1.4v.5c0 .4-.1.7-.1.7h.1c.5-1.1 2-2.9 4.8-2.9 3 0 4.4 1.6 4.4 4.9v5.5c0 .4.2.6.6.6h1v2.1h-2.4c-1.1 0-1.6-.5-1.6-1.6v-6c0-1.8-.4-3.2-2.4-3.2s-3.5 1.3-4.1 3.1c-.2.5-.2 1.1-.2 1.7v6h-2.5v-10.1zm-91.6 25.8h-1.6v-2h1.6v-.4c0-4.2 3.2-4.8 4.8-4.8.6 0 .9.1.9.1v2.1s-.3-.1-.6-.1c-1 0-2.7.3-2.7 2.7v.4h3v2h-3v10.8h-2.5v-10.8zm15.9-2.2c3.8 0 6.9 2.8 6.9 6.7 0 3.9-3.1 6.7-6.9 6.7-3.8 0-6.9-2.8-6.9-6.7 0-3.9 3-6.7 6.9-6.7zm0 11.2c2.4 0 4.4-1.9 4.4-4.6 0-2.7-2-4.6-4.4-4.6-2.4 0-4.4 1.9-4.4 4.6 0 2.7 2 4.6 4.4 4.6zm12.5-8.3c0-.4-.2-.6-.6-.6h-1v-2.1h2.3c1.1 0 1.6.5 1.6 1.5v.8c0 .5-.1.9-.1.9h.1c.6-1.9 2.1-3.3 4.1-3.3.3 0 .7.1.7.1v2.4s-.3-.1-.7-.1c-1.6 0-3 1.1-3.6 3-.2.7-.3 1.5-.3 2.3v5.2h-2.5v-10.1zm12.5 0c0-.4-.2-.6-.6-.6h-1v-2.1h2.4c1.1 0 1.6.5 1.6 1.4v1.2h.1c.6-1.5 2.4-2.9 4.4-2.9 2.2 0 3.4 1 3.8 2.9h.1c.7-1.5 2.5-2.9 4.6-2.9 2.9 0 4.2 1.6 4.2 4.9v5.5c0 .4.2.6.6.6h1v2.1h-2.4c-1.1 0-1.6-.5-1.6-1.6v-6.1c0-1.8-.4-3.2-2.3-3.2-1.8 0-3.1 1.5-3.6 3.3-.1.5-.2 1.1-.2 1.7v5.9h-2.5v-7.7c0-1.7-.3-3.2-2.2-3.2-1.9 0-3.2 1.6-3.7 3.4-.1.5-.2 1.1-.2 1.6v5.9h-2.5v-10.1zm31.4-2.9c3.6 0 5.5 2.7 5.5 6 0 .3-.1 1-.1 1h-9.3c.2 2.7 2.1 4.3 4.4 4.3 2.2 0 3.7-1.5 3.7-1.5l1.1 1.7s-1.9 1.9-4.9 1.9c-4.1 0-6.8-2.9-6.8-6.7 0-4.1 2.8-6.7 6.4-6.7zm3 5.2c-.1-2.1-1.4-3.3-3-3.3-1.9 0-3.4 1.1-3.8 3.3h6.8zm8.4-2.3c0-.4-.2-.6-.6-.6h-1v-2.1h2.3c1.1 0 1.6.5 1.6 1.5v.8c0 .5-.1.9-.1.9h.1c.6-1.9 2.1-3.3 4.1-3.3.3 0 .7.1.7.1v2.4s-.3-.1-.7-.1c-1.6 0-3 1.1-3.6 3-.2.7-.3 1.5-.3 2.3v5.2h-2.5v-10.1zm12.1 6.6s1.5 1.9 3.9 1.9c1.2 0 2.2-.5 2.2-1.6 0-2.3-7-2.1-7-6.2 0-2.5 2.2-3.6 4.8-3.6 1.5 0 4.2.5 4.2 2.5v1.2h-2.2v-.6c0-.8-1.1-1.1-1.9-1.1-1.4 0-2.4.5-2.4 1.5 0 2.4 7 1.9 7 6.2 0 2.3-2 3.7-4.7 3.7-3.4 0-5.1-2.3-5.1-2.3l1.2-1.6z"/><path class="st4" d="M94.4 219.4h.3v-.1c0-1.4-.5-1.9-1.8-1.9-.4 0-1.3.1-1.3.6v.5h-1.4v-.8c0-1.3 2-1.5 2.7-1.5 2.6 0 3.3 1.3 3.3 3.1v3.4c0 .2.1.3.3.3h.6v1.3h-1.4c-.7 0-1-.3-1-.9v-.5s-.6 1.6-2.5 1.6c-1.4 0-2.7-.8-2.7-2.4.1-2.5 3.5-2.7 4.9-2.7zm-1.8 3.9c1.3 0 2.1-1.3 2.1-2.5v-.3h-.4c-1.1 0-3.2.1-3.2 1.5 0 .7.5 1.3 1.5 1.3zm7.8-5.2c0-.2-.1-.3-.3-.3h-.6v-1.3h1.4c.7 0 1 .3 1 .8v.4s.7-1.4 2.6-1.4c2.1 0 3.5 1.7 3.5 4.2s-1.5 4.2-3.6 4.2c-1.8 0-2.4-1.3-2.4-1.3v4.2h-1.5v-9.5zm3.8 5.1c1.3 0 2.3-1 2.3-2.8 0-1.7-.9-2.8-2.2-2.8-1.2 0-2.3.8-2.3 2.9-.1 1.3.7 2.7 2.2 2.7zm7.3-5.1c0-.2-.1-.3-.3-.3h-.6v-1.3h1.4c.7 0 1 .3 1 .8v.4s.7-1.4 2.6-1.4c2.1 0 3.5 1.7 3.5 4.2s-1.5 4.2-3.6 4.2c-1.8 0-2.4-1.3-2.4-1.3v4.2h-1.5v-9.5zm3.7 5.1c1.3 0 2.3-1 2.3-2.8 0-1.7-.9-2.8-2.2-2.8-1.2 0-2.3.8-2.3 2.9 0 1.3.7 2.7 2.2 2.7zm11.3-3.8h.3v-.1c0-1.4-.5-1.9-1.8-1.9-.4 0-1.3.1-1.3.6v.5h-1.4v-.8c0-1.3 2-1.5 2.7-1.5 2.6 0 3.3 1.3 3.3 3.1v3.4c0 .2.1.3.3.3h.6v1.3h-1.4c-.7 0-1-.3-1-.9v-.5s-.6 1.6-2.5 1.6c-1.4 0-2.7-.8-2.7-2.4.1-2.5 3.5-2.7 4.9-2.7zm-1.8 3.9c1.3 0 2.1-1.3 2.1-2.5v-.3h-.4c-1.1 0-3.2.1-3.2 1.5 0 .7.5 1.3 1.5 1.3zm7.8-5.2c0-.2-.1-.3-.3-.3h-.6v-1.3h1.4c.7 0 1 .3 1 .9v1c.4-1.2 1.3-2.1 2.5-2.1h.4v1.5h-.5c-1 0-1.9.7-2.2 1.9-.1.5-.2.9-.2 1.4v3.2h-1.5v-6.2zm7.7-.4h-1v-1.2h1.1v-2.2h1.5v2.2h1.9v1.2h-1.9v3.6c0 1.6 1.1 1.8 1.7 1.8h.4v1.3h-.5c-1 0-3-.3-3-3v-3.7zm10.1-1.5c2.2 0 3.4 1.7 3.4 3.7v.6h-5.8c.1 1.7 1.3 2.6 2.7 2.6 1.4 0 2.3-.9 2.3-.9l.7 1.1s-1.2 1.2-3.1 1.2c-2.5 0-4.2-1.8-4.2-4.2 0-2.4 1.8-4.1 4-4.1zm1.9 3.3c0-1.3-.9-2-1.9-2-1.2 0-2.1.7-2.3 2h4.2zm5.1-1.4c0-.2-.1-.3-.3-.3h-.6v-1.3h1.5c.7 0 1 .3 1 .9v.8c.3-.7 1.3-1.8 3-1.8 1.9 0 2.7 1 2.7 3v3.4c0 .2.1.3.3.3h.6v1.3h-1.5c-.7 0-1-.3-1-1v-3.7c0-1.1-.2-2-1.5-2-1.2 0-2.2.8-2.5 1.9-.1.3-.1.7-.1 1.1v3.7h-1.5v-6.3zm14.6-1.9c2.2 0 3.4 1.7 3.4 3.7v.6h-5.8c.1 1.7 1.3 2.6 2.7 2.6 1.4 0 2.3-.9 2.3-.9l.7 1.1s-1.2 1.2-3.1 1.2c-2.5 0-4.2-1.8-4.2-4.2.1-2.4 1.8-4.1 4-4.1zm1.9 3.3c0-1.3-.9-2-1.9-2-1.2 0-2.1.7-2.3 2h4.2zm5.1-1.4c0-.2-.1-.3-.3-.3h-.6v-1.3h1.5c.7 0 1 .3 1 .9v.8c.3-.7 1.3-1.8 3-1.8 1.9 0 2.7 1 2.7 3v3.4c0 .2.1.3.3.3h.6v1.3h-1.5c-.7 0-1-.3-1-1v-3.7c0-1.1-.2-2-1.5-2-1.2 0-2.2.8-2.5 1.9-.1.3-.1.7-.1 1.1v3.7h-1.5v-6.3zm11.5-.4h-1v-1.2h1.1v-2.2h1.5v2.2h1.9v1.2h-1.9v3.6c0 1.6 1.1 1.8 1.7 1.8h.4v1.3h-.5c-1 0-3-.3-3-3v-3.7zm7.1.4c0-.2-.1-.3-.3-.3h-.6v-1.3h1.5c.7 0 1 .3 1 1v5.3c0 .2.1.3.3.3h.6v1.3h-1.5c-.7 0-1-.3-1-1v-5.3zm0-4.8h1.4v1.6h-1.4v-1.6zm-115.1 24.2h.3v-.1c0-1.4-.5-1.9-1.8-1.9-.4 0-1.3.1-1.3.6v.5h-1.4v-.8c0-1.3 2-1.5 2.7-1.5 2.6 0 3.3 1.3 3.3 3.1v3.4c0 .2.1.3.3.3h.6v1.3h-1.4c-.7 0-1-.3-1-.9v-.5s-.6 1.6-2.5 1.6c-1.4 0-2.7-.8-2.7-2.4.2-2.5 3.6-2.7 4.9-2.7zm-1.7 3.9c1.3 0 2.1-1.3 2.1-2.5v-.3h-.4c-1.1 0-3.2.1-3.2 1.5 0 .7.5 1.3 1.5 1.3zm7.8-8.4c0-.2-.1-.3-.3-.3h-.6v-1.3h1.4c.7 0 1 .3 1 1v8.4c0 .2.1.3.3.3h.7v1.3h-1.5c-.7 0-1-.3-1-1v-8.4zm5.7 0c0-.2-.1-.3-.3-.3h-.6v-1.3h1.5c.7 0 1 .3 1 1v8.4c0 .2.1.3.3.3h.6v1.3h-1.5c-.7 0-1-.3-1-1v-8.4zm9.9 4.5h.3v-.1c0-1.4-.5-1.9-1.8-1.9-.4 0-1.3.1-1.3.6v.5h-1.4v-.8c0-1.3 2-1.5 2.7-1.5 2.6 0 3.3 1.3 3.3 3.1v3.4c0 .2.1.3.3.3h.6v1.3h-1.4c-.7 0-1-.3-1-.9v-.5s-.6 1.6-2.5 1.6c-1.4 0-2.7-.8-2.7-2.4.1-2.5 3.5-2.7 4.9-2.7zm-1.8 3.9c1.3 0 2.1-1.3 2.1-2.5v-.3h-.4c-1.1 0-3.2.1-3.2 1.5 0 .7.5 1.3 1.5 1.3zm17.1-7.1c1 0 2.9.4 2.9 1.7v.8h-1.4v-.4c0-.6-.9-.8-1.5-.8-1.6 0-2.7 1.2-2.7 2.8 0 1.8 1.3 2.8 2.8 2.8 1.5 0 2.5-1.1 2.5-1.1l.7 1.1s-1.1 1.4-3.2 1.4c-2.5 0-4.2-1.8-4.2-4.2-.1-2.3 1.6-4.1 4.1-4.1zm9.9 0c2.4 0 4.3 1.7 4.3 4.1 0 2.4-1.9 4.2-4.3 4.2s-4.3-1.8-4.3-4.2c.1-2.3 2-4.1 4.3-4.1zm0 7c1.5 0 2.7-1.2 2.7-2.9 0-1.6-1.2-2.8-2.7-2.8-1.5 0-2.7 1.2-2.7 2.8 0 1.7 1.3 2.9 2.7 2.9zm7.8-5.1c0-.2-.1-.3-.3-.3h-.6v-1.3h1.5c.7 0 1 .3 1 .9v.8c.4-.9 1.5-1.8 2.7-1.8 1.3 0 2.1.6 2.4 1.8.4-1 1.5-1.8 2.8-1.8 1.8 0 2.6 1 2.6 3v3.4c0 .2.1.3.3.3h.6v1.3h-1.5c-.7 0-1-.3-1-1v-3.7c0-1.1-.2-2-1.4-2-1.1 0-1.9 1-2.2 2-.1.3-.1.7-.1 1.1v3.6h-1.5v-4.8c0-1-.2-2-1.4-2s-2 1-2.3 2.1c-.1.3-.1.7-.1 1v3.6h-1.5v-6.2zm16.2 0c0-.2-.1-.3-.3-.3h-.6v-1.3h1.5c.7 0 1 .3 1 .9v.8c.4-.9 1.5-1.8 2.7-1.8 1.3 0 2.1.6 2.4 1.8.4-1 1.5-1.8 2.8-1.8 1.8 0 2.6 1 2.6 3v3.4c0 .2.1.3.3.3h.6v1.3h-1.5c-.7 0-1-.3-1-1v-3.7c0-1.1-.2-2-1.4-2-1.1 0-1.9 1-2.2 2-.1.3-.1.7-.1 1.1v3.6h-1.5v-4.8c0-1-.2-2-1.4-2s-2 1-2.3 2.1c-.1.3-.1.7-.1 1v3.6h-1.5v-6.2zm16.3 0c0-.2-.1-.3-.3-.3h-.6v-1.3h1.5c.7 0 1 .3 1 1v3.8c0 1.1.2 2 1.5 2 1.6 0 2.6-1.4 2.6-3v-3.7h1.5v6.3c0 .2.1.3.3.3h.6v1.3h-1.5c-.7 0-1-.3-1-.9v-.8c-.3.8-1.3 1.8-2.9 1.8-1.8 0-2.7-.9-2.7-3v-3.5zm11.3 0c0-.2-.1-.3-.3-.3h-.6v-1.3h1.5c.7 0 1 .3 1 .9v.8c.3-.7 1.3-1.8 3-1.8 1.9 0 2.7 1 2.7 3v3.4c0 .2.1.3.3.3h.6v1.3h-1.5c-.7 0-1-.3-1-1v-3.7c0-1.1-.2-2-1.5-2-1.2 0-2.2.8-2.5 1.9-.1.3-.1.7-.1 1.1v3.7h-1.5v-6.3zm11.5 0c0-.2-.1-.3-.3-.3h-.6v-1.3h1.5c.7 0 1 .3 1 1v5.3c0 .2.1.3.3.3h.6v1.3h-1.5c-.7 0-1-.3-1-1v-5.3zm0-4.8h1.4v1.6h-1.4v-1.6zm5.8 4.3h-1v-1.2h1.1v-2.2h1.5v2.2h1.9v1.2h-1.9v3.6c0 1.6 1.1 1.8 1.7 1.8h.4v1.3h-.5c-1 0-3-.3-3-3v-3.7zm7.4 8.7c.6 0 1.1-.4 1.4-1.1l.4-.9-2.7-6.3c-.1-.3-.3-.3-.5-.3h-.2v-1.3h.9c.6 0 .9.2 1.1.8l1.8 4.5c.2.4.3 1 .3 1s.1-.5.3-1l1.6-4.5c.2-.6.5-.8 1.2-.8h.9v1.3h-.2c-.3 0-.4.1-.5.3l-3.1 7.7c-.5 1.2-1.4 1.9-2.6 1.9-1.2 0-1.9-.8-1.9-.8l.6-1.1c.1.1.6.6 1.2.6zm-106.1 5.6c1.8 0 2.4 1.2 2.4 1.2v-2.5c0-.2-.1-.3-.3-.3h-.6v-1.3h1.5c.7 0 1 .3 1 1v8.4c0 .2.1.3.3.3h.6v1.3h-1.4c-.7 0-1-.3-1-.8v-.4s-.7 1.4-2.6 1.4c-2.1 0-3.5-1.7-3.5-4.2s1.5-4.1 3.6-4.1zm2.5 4.1c0-1.4-.7-2.8-2.3-2.8-1.2 0-2.3 1-2.3 2.8 0 1.7.9 2.8 2.2 2.8 1.3.1 2.4-.7 2.4-2.8zm8.9-4.1c2.2 0 3.4 1.7 3.4 3.7v.6h-5.8c.1 1.7 1.3 2.6 2.7 2.6 1.4 0 2.3-.9 2.3-.9l.7 1.1s-1.2 1.2-3.1 1.2c-2.5 0-4.2-1.8-4.2-4.2.1-2.5 1.8-4.1 4-4.1zm1.9 3.2c0-1.3-.9-2-1.9-2-1.2 0-2.1.7-2.3 2h4.2zm5.1-4.5c0-.2-.1-.3-.3-.3h-.6v-1.3h1.5c.7 0 1 .3 1 1v8.4c0 .2.1.3.3.3h.6v1.3h-1.5c-.7 0-1-.3-1-1v-8.4zm5.8 0c0-.2-.1-.3-.3-.3h-.6v-1.3h1.5c.7 0 1 .3 1 1v8.4c0 .2.1.3.3.3h.6v1.3h-1.5c-.7 0-1-.3-1-1v-8.4zm9.8 4.5h.3v-.1c0-1.4-.5-1.9-1.8-1.9-.4 0-1.3.1-1.3.6v.5h-1.4v-.8c0-1.3 2-1.5 2.7-1.5 2.6 0 3.3 1.3 3.3 3.1v3.4c0 .2.1.3.3.3h.6v1.3h-1.4c-.7 0-1-.3-1-.9v-.5s-.6 1.6-2.5 1.6c-1.4 0-2.7-.8-2.7-2.4.1-2.6 3.6-2.7 4.9-2.7zm-1.7 3.9c1.3 0 2.1-1.3 2.1-2.5v-.3h-.4c-1.1 0-3.2.1-3.2 1.5 0 .7.5 1.3 1.5 1.3zm13.4-1.2s.9 1.2 2.4 1.2c.7 0 1.4-.3 1.4-1 0-1.4-4.3-1.3-4.3-3.8 0-1.5 1.3-2.2 2.9-2.2 1 0 2.6.3 2.6 1.5v.8h-1.4v-.4c0-.5-.7-.7-1.2-.7-.9 0-1.5.3-1.5.9 0 1.5 4.3 1.2 4.3 3.8 0 1.4-1.3 2.3-2.9 2.3-2.1 0-3.2-1.4-3.2-1.4l.9-1zm12.4-5.9c2.4 0 4.3 1.7 4.3 4.1 0 2.4-1.9 4.2-4.3 4.2s-4.3-1.8-4.3-4.2c0-2.4 1.9-4.1 4.3-4.1zm0 7c1.5 0 2.7-1.2 2.7-2.9 0-1.6-1.2-2.8-2.7-2.8-1.5 0-2.7 1.2-2.7 2.8-.1 1.7 1.2 2.9 2.7 2.9zm11.2-7c1 0 2.9.4 2.9 1.7v.8h-1.4v-.4c0-.6-.9-.8-1.5-.8-1.6 0-2.7 1.2-2.7 2.8 0 1.8 1.3 2.8 2.8 2.8 1.5 0 2.5-1.1 2.5-1.1l.7 1.1s-1.1 1.4-3.2 1.4c-2.5 0-4.2-1.8-4.2-4.2-.2-2.3 1.5-4.1 4.1-4.1zm6.5 1.8c0-.2-.1-.3-.3-.3h-.6v-1.3h1.5c.7 0 1 .3 1 1v5.3c0 .2.1.3.3.3h.6v1.3h-1.5c-.7 0-1-.3-1-1v-5.3zm0-4.7h1.4v1.6h-1.4v-1.6zm9.8 6.1h.3v-.1c0-1.4-.5-1.9-1.8-1.9-.4 0-1.3.1-1.3.6v.5h-1.3v-.8c0-1.3 2-1.5 2.7-1.5 2.6 0 3.3 1.3 3.3 3.1v3.4c0 .2.1.3.3.3h.6v1.3h-1.4c-.7 0-1-.3-1-.9v-.5s-.6 1.6-2.5 1.6c-1.4 0-2.7-.8-2.7-2.4 0-2.6 3.5-2.7 4.8-2.7zm-1.7 3.9c1.3 0 2.1-1.3 2.1-2.5v-.3h-.4c-1.1 0-3.2.1-3.2 1.5 0 .7.5 1.3 1.5 1.3zm7.8-8.4c0-.2-.1-.3-.3-.3h-.6v-1.3h1.5c.7 0 1 .3 1 1v8.4c0 .2.1.3.3.3h.6v1.3h-1.5c-.7 0-1-.3-1-1v-8.4zm-91.9 18.8c0-.2-.1-.3-.3-.3h-.6v-1.3h1.5c.7 0 1 .3 1 1v5.3c0 .2.1.3.3.3h.6v1.3h-1.5c-.7 0-1-.3-1-1v-5.3zm0-4.8h1.4v1.6h-1.4v-1.6zm5.8 4.8c0-.2-.1-.3-.3-.3h-.6v-1.3h1.5c.7 0 1 .3 1 .9v.8c.3-.7 1.3-1.8 3-1.8 1.9 0 2.7 1 2.7 3v3.4c0 .2.1.3.3.3h.6v1.3h-1.5c-.7 0-1-.3-1-1v-3.7c0-1.1-.2-2-1.5-2-1.2 0-2.2.8-2.5 1.9-.1.3-.1.7-.1 1.1v3.7h-1.5v-6.3zm11.4 0c0-.2-.1-.3-.3-.3h-.6v-1.3h1.5c.7 0 1 .3 1 .9v.8c.3-.7 1.3-1.8 3-1.8 1.9 0 2.7 1 2.7 3v3.4c0 .2.1.3.3.3h.6v1.3h-1.5c-.7 0-1-.3-1-1v-3.7c0-1.1-.2-2-1.5-2-1.2 0-2.2.8-2.5 1.9-.1.3-.1.7-.1 1.1v3.7h-1.5v-6.3zm14.8-1.8c2.4 0 4.3 1.7 4.3 4.1 0 2.4-1.9 4.2-4.3 4.2s-4.3-1.8-4.3-4.2c.1-2.4 2-4.1 4.3-4.1zm0 7c1.5 0 2.7-1.2 2.7-2.9 0-1.6-1.2-2.8-2.7-2.8-1.5 0-2.7 1.2-2.7 2.8 0 1.7 1.2 2.9 2.7 2.9zm7.1-5.2c-.1-.2-.2-.3-.5-.3h-.2v-1.3h.8c.7 0 1 .2 1.2.8l1.7 4.6c.2.4.3 1 .3 1s.1-.6.3-1l1.7-4.6c.2-.6.5-.8 1.2-.8h.7v1.3h-.2c-.3 0-.4.1-.5.3l-2.4 6.3h-1.8l-2.3-6.3zm14.4 1.4h.3v-.1c0-1.4-.5-1.9-1.8-1.9-.4 0-1.3.1-1.3.6v.5h-1.4v-.8c0-1.3 2-1.5 2.7-1.5 2.6 0 3.3 1.3 3.3 3.1v3.4c0 .2.1.3.3.3h.6v1.3h-1.4c-.7 0-1-.3-1-.9v-.5s-.6 1.6-2.5 1.6c-1.4 0-2.7-.8-2.7-2.4.1-2.6 3.6-2.7 4.9-2.7zm-1.8 3.9c1.3 0 2.1-1.3 2.1-2.5v-.3h-.4c-1.1 0-3.2.1-3.2 1.5 0 .6.5 1.3 1.5 1.3zm7.9-5.7h-1v-1.2h1.1v-2.2h1.5v2.2h1.9v1.2h-1.9v3.6c0 1.6 1.1 1.8 1.7 1.8h.4v1.3h-.5c-1 0-3-.3-3-3v-3.7zm7.1.4c0-.2-.1-.3-.3-.3h-.7v-1.3h1.5c.7 0 1 .3 1 1v5.3c0 .2.1.3.3.3h.6v1.3h-1.4c-.7 0-1-.3-1-1v-5.3zm.1-4.8h1.4v1.6h-1.4v-1.6zm9.2 3c2.4 0 4.3 1.7 4.3 4.1 0 2.4-1.9 4.2-4.3 4.2s-4.3-1.8-4.3-4.2c.1-2.4 1.9-4.1 4.3-4.1zm0 7c1.5 0 2.7-1.2 2.7-2.9 0-1.6-1.2-2.8-2.7-2.8-1.5 0-2.7 1.2-2.7 2.8 0 1.7 1.2 2.9 2.7 2.9zm7.8-5.2c0-.2-.1-.3-.3-.3h-.6v-1.3h1.5c.7 0 1 .3 1 .9v.8c.3-.7 1.3-1.8 3-1.8 1.9 0 2.7 1 2.7 3v3.4c0 .2.1.3.3.3h.6v1.3h-1.5c-.7 0-1-.3-1-1v-3.7c0-1.1-.2-2-1.5-2-1.2 0-2.2.8-2.5 1.9-.1.3-.1.7-.1 1.1v3.7h-1.5v-6.3z"/><path class="st3" d="M374.7 107h5.7v-6.3h2.1v6.3h5.7v2h-5.7v6.3h-2.1v-6.3h-5.7v-2zm27.3-4.8c0-1.7-1.2-2.9-3.2-2.9-1.6 0-2.8.8-2.8 1.7v.8h-2.4v-1.5c0-2.4 3.1-3.3 5.2-3.3 3.3 0 5.7 2.1 5.7 5.2 0 6.2-9.1 6.3-9.1 10.5 0 .4.2.5.6.5h6.4c.4 0 .6-.2.6-.6v-1.1h2.4v2.3c0 1.1-.5 1.6-1.6 1.6h-9.2c-1.4 0-1.7-.6-1.7-2.1-.1-6.7 9.1-6.3 9.1-11.1zm8.3 4c0-5.2 1.6-9.3 6.4-9.3 4.8 0 6.4 4.1 6.4 9.3 0 5.2-1.6 9.4-6.4 9.4-4.8 0-6.4-4.1-6.4-9.4zm10.2 0c0-3.9-.8-7-3.8-7s-3.8 3.1-3.8 7 .8 7 3.8 7c3 .1 3.8-3 3.8-7zm-87.3 22.6c3.2 0 4.1 2 4.1 2h.1v-.4c0-.8.4-1.3 1.4-1.3h2.4v2.1h-1c-.3 0-.6.2-.6.5v9.8c0 4.3-3.2 5.9-6.5 5.9-1.6 0-3.1-.4-4.4-1.1l.8-2s1.6.9 3.5.9c2.2 0 4.1-1 4.1-3.6v-.9c0-.4.1-.8.1-.8h-.1c-.8 1.3-2 2-3.9 2-3.6 0-5.8-2.9-5.8-6.6.1-3.7 2.2-6.5 5.8-6.5zm4 6.5c0-3.4-1.7-4.3-3.7-4.3-2.2 0-3.5 1.6-3.5 4.3 0 2.7 1.4 4.5 3.7 4.5 1.8 0 3.5-1.1 3.5-4.5zm9.4-3.5c0-.4-.2-.6-.6-.6h-1v-2.1h2.4c1.1 0 1.6.5 1.6 1.6v8.6c0 .4.2.6.6.6h1v2.1h-2.4c-1.1 0-1.6-.5-1.6-1.6v-8.6zm.1-7.8h2.2v2.6h-2.2v-2.6zm15.1 4.8c3.9 0 7 2.8 7 6.7 0 3.9-3.1 6.8-7 6.8s-7-2.9-7-6.8c0-3.8 3.1-6.7 7-6.7zm0 11.4c2.5 0 4.4-1.9 4.4-4.7 0-2.7-2-4.6-4.4-4.6-2.4 0-4.4 1.9-4.4 4.6-.1 2.8 1.9 4.7 4.4 4.7zm12.6-8.4c0-.4-.2-.6-.6-.6h-1v-2.1h2.4c1.1 0 1.7.5 1.7 1.5v.8c0 .5-.1.9-.1.9h.1c.6-1.9 2.1-3.4 4.1-3.4.3 0 .7.1.7.1v2.5s-.3-.1-.7-.1c-1.6 0-3 1.1-3.6 3-.2.7-.3 1.5-.3 2.3v5.3h-2.5v-10.2zm12.6 0c0-.4-.2-.6-.6-.6h-1v-2.1h2.4c1.1 0 1.6.5 1.6 1.4v.5c0 .4-.1.7-.1.7h.1c.5-1.1 2-3 4.9-3 3.1 0 4.4 1.7 4.4 5v5.6c0 .4.2.6.6.6h1v2.1h-2.5c-1.1 0-1.6-.5-1.6-1.6v-6.1c0-1.8-.4-3.2-2.4-3.2s-3.6 1.3-4.1 3.2c-.2.5-.2 1.1-.2 1.7v6.1h-2.5v-10.3zm25.1 2.2h.6v-.1c0-2.3-.8-3.1-2.9-3.1-.6 0-2.1.2-2.1 1v.7h-2.3v-1.3c0-2.1 3.2-2.4 4.5-2.4 4.2 0 5.3 2.2 5.3 5.1v5.5c0 .4.2.6.6.6h1v2.1h-2.3c-1.1 0-1.6-.6-1.6-1.5 0-.4.1-.8.1-.8h-.1s-1 2.6-4.1 2.6c-2.2 0-4.4-1.4-4.4-3.9-.1-4.2 5.6-4.5 7.7-4.5zm-2.8 6.4c2.1 0 3.4-2.2 3.4-4.1v-.4h-.6c-1.9 0-5.2.1-5.2 2.5-.1 1 .7 2 2.4 2zm12.7-13.7c0-.4-.2-.6-.6-.6h-1v-2.1h2.5c1.1 0 1.6.5 1.6 1.6v13.7c0 .4.2.6.6.6h1v2.1h-2.5c-1.1 0-1.6-.5-1.6-1.6v-13.7zm9.5 5.1c0-.4-.2-.6-.6-.6h-1v-2.1h2.4c1.1 0 1.6.5 1.6 1.6v8.6c0 .4.2.6.6.6h1v2.1h-2.4c-1.1 0-1.6-.5-1.6-1.6v-8.6zm.1-7.8h2.2v2.6h-2.2v-2.6zm9.2 14.4s1.5 1.9 3.9 1.9c1.2 0 2.2-.5 2.2-1.7 0-2.3-7.1-2.1-7.1-6.2 0-2.5 2.2-3.6 4.8-3.6 1.6 0 4.2.5 4.2 2.5v1.2h-2.2v-.6c0-.8-1.1-1.1-1.9-1.1-1.5 0-2.4.5-2.4 1.5 0 2.5 7.1 1.9 7.1 6.2 0 2.3-2 3.8-4.8 3.8-3.4 0-5.2-2.3-5.2-2.3l1.4-1.6zm14.5-7.3h-1.7v-2h1.7v-3.6h2.4v3.6h3.1v2h-3.1v5.9c0 2.6 1.8 2.9 2.7 2.9.4 0 .6-.1.6-.1v2.2s-.3.1-.9.1c-1.6 0-4.9-.5-4.9-4.8v-6.2zm11.5.7c0-.4-.2-.6-.6-.6h-1v-2.1h2.4c1.1 0 1.6.5 1.6 1.6v8.6c0 .4.2.6.6.6h1v2.1h-2.4c-1.1 0-1.6-.5-1.6-1.6v-8.6zm.1-7.8h2.2v2.6h-2.2v-2.6z"/><path class="st4" d="M323.3 152.1c1 0 2.9.4 2.9 1.8v.8h-1.4v-.4c0-.6-.9-.8-1.5-.8-1.6 0-2.7 1.2-2.7 2.9 0 1.8 1.3 2.8 2.8 2.8 1.5 0 2.5-1.1 2.5-1.1l.7 1.1s-1.1 1.4-3.3 1.4c-2.5 0-4.3-1.8-4.3-4.2 0-2.4 1.7-4.3 4.3-4.3zm10 0c2.4 0 4.3 1.8 4.3 4.2 0 2.4-1.9 4.2-4.3 4.2s-4.3-1.8-4.3-4.2c0-2.4 1.9-4.2 4.3-4.2zm0 7.1c1.5 0 2.8-1.2 2.8-2.9s-1.2-2.8-2.8-2.8c-1.5 0-2.7 1.2-2.7 2.8-.1 1.7 1.2 2.9 2.7 2.9zm7.8-5.2c0-.2-.1-.3-.3-.3h-.6v-1.3h1.5c.7 0 1 .3 1 .9v.8c.3-.7 1.3-1.8 3-1.8 1.9 0 2.8 1 2.8 3.1v3.5c0 .2.1.3.3.3h.6v1.3h-1.5c-.7 0-1-.3-1-1v-3.8c0-1.1-.2-2-1.5-2-1.2 0-2.2.8-2.5 2-.1.3-.1.7-.1 1.1v3.7h-1.5v-6.5zm17.3 0c0-.2-.1-.3-.3-.3h-.6v-1.3h1.5c.7 0 1 .3 1 1v3.8c0 1.1.2 2 1.5 2 1.6 0 2.6-1.4 2.6-3v-3.7h1.5v6.3c0 .2.1.3.3.3h.6v1.3h-1.5c-.7 0-1-.3-1-.9v-.8c-.3.8-1.4 1.8-2.9 1.8-1.8 0-2.7-.9-2.7-3.1v-3.4zm11.4 0c0-.2-.1-.3-.3-.3h-.6v-1.3h1.5c.7 0 1 .3 1 .9v.8c.3-.7 1.3-1.8 3-1.8 1.9 0 2.8 1 2.8 3.1v3.5c0 .2.1.3.3.3h.6v1.3h-1.5c-.7 0-1-.3-1-1v-3.8c0-1.1-.2-2-1.5-2-1.2 0-2.2.8-2.5 2-.1.3-.1.7-.1 1.1v3.7h-1.5v-6.5zm15.6 1.3h.3v-.1c0-1.4-.5-1.9-1.8-1.9-.4 0-1.3.1-1.3.6v.5h-1.4v-.8c0-1.3 2-1.5 2.8-1.5 2.6 0 3.3 1.4 3.3 3.1v3.4c0 .2.1.3.3.3h.6v1.3h-1.4c-.7 0-1-.3-1-.9v-.5s-.6 1.6-2.5 1.6c-1.4 0-2.7-.8-2.7-2.4 0-2.5 3.4-2.7 4.8-2.7zm-1.8 4c1.3 0 2.1-1.4 2.1-2.5v-.3h-.4c-1.2 0-3.2.1-3.2 1.5 0 .6.5 1.3 1.5 1.3zm14.8-7.8c1 0 2.9.4 2.9 1.8v.8h-1.4v-.4c0-.6-.9-.8-1.5-.8-1.6 0-2.7 1.2-2.7 2.9 0 1.8 1.3 2.8 2.8 2.8 1.5 0 2.5-1.1 2.5-1.1l.7 1.1s-1.1 1.4-3.3 1.4c-2.5 0-4.3-1.8-4.3-4.2 0-2.4 1.7-4.3 4.3-4.3zm10 0c2.4 0 4.3 1.8 4.3 4.2 0 2.4-1.9 4.2-4.3 4.2s-4.3-1.8-4.3-4.2c0-2.4 1.9-4.2 4.3-4.2zm0 7.1c1.5 0 2.8-1.2 2.8-2.9s-1.2-2.8-2.8-2.8c-1.5 0-2.7 1.2-2.7 2.8-.1 1.7 1.2 2.9 2.7 2.9zm7.8-5.2c0-.2-.1-.3-.3-.3h-.6v-1.3h1.4c.7 0 1 .3 1 .8v.4s.7-1.4 2.7-1.4c2.2 0 3.5 1.7 3.5 4.2s-1.6 4.2-3.6 4.2c-1.8 0-2.5-1.3-2.5-1.3v4.3h-1.5v-9.6zm3.7 5.2c1.3 0 2.3-1 2.3-2.9 0-1.7-.9-2.9-2.3-2.9-1.2 0-2.3.8-2.3 2.9.1 1.5.8 2.9 2.3 2.9zm10.7-7.1c2.2 0 3.4 1.7 3.4 3.7v.6h-5.8c.1 1.7 1.3 2.7 2.8 2.7 1.4 0 2.3-.9 2.3-.9l.7 1.1s-1.2 1.2-3.1 1.2c-2.5 0-4.3-1.8-4.3-4.2-.1-2.5 1.7-4.2 4-4.2zm1.8 3.3c0-1.3-.9-2-1.9-2-1.2 0-2.1.7-2.4 2h4.3zm5.2-1.4c0-.2-.1-.3-.3-.3h-.6v-1.3h1.5c.7 0 1 .3 1 .9v1.1c.4-1.2 1.3-2.1 2.5-2.1h.4v1.5h-.5c-1 0-1.9.7-2.2 1.9-.1.5-.2.9-.2 1.4v3.3h-1.5v-6.4zm7.8-.4h-1v-1.2h1.1v-2.2h1.5v2.2h1.9v1.2h-1.9v3.7c0 1.6 1.1 1.8 1.7 1.8h.4v1.4h-.5c-1 0-3.1-.3-3.1-3v-3.9zm7.1.4c0-.2-.1-.3-.3-.3h-.6v-1.3h1.5c.7 0 1 .3 1 1v3.8c0 1.1.2 2 1.5 2 1.6 0 2.6-1.4 2.6-3v-3.7h1.5v6.3c0 .2.1.3.3.3h.6v1.3h-1.5c-.7 0-1-.3-1-.9v-.8c-.3.8-1.4 1.8-2.9 1.8-1.8 0-2.7-.9-2.7-3.1v-3.4zm11.4 0c0-.2-.1-.3-.3-.3h-.6v-1.3h1.5c.7 0 1 .3 1 .9v1.1c.4-1.2 1.3-2.1 2.5-2.1h.4v1.5h-.5c-1 0-1.9.7-2.2 1.9-.1.5-.2.9-.2 1.4v3.3h-1.5v-6.4zm11.3 1.4h.3v-.1c0-1.4-.5-1.9-1.8-1.9-.4 0-1.3.1-1.3.6v.5h-1.4v-.9c0-1.3 2-1.5 2.8-1.5 2.6 0 3.3 1.4 3.3 3.1v3.4c0 .2.1.3.3.3h.6v1.3h-1.4c-.7 0-1-.3-1-.9v-.5s-.6 1.6-2.5 1.6c-1.4 0-2.7-.8-2.7-2.4-.1-2.5 3.4-2.6 4.8-2.6zm-1.8 3.9c1.3 0 2.1-1.4 2.1-2.5v-.3h-.4c-1.2 0-3.2.1-3.2 1.5 0 .7.5 1.3 1.5 1.3zm-128.3 10.5c0-.2-.1-.3-.3-.3h-.6v-1.3h1.5c.7 0 1 .3 1 .9v.8c.4-.9 1.5-1.8 2.7-1.8 1.4 0 2.1.6 2.4 1.8.4-1 1.6-1.8 2.8-1.8 1.8 0 2.6 1 2.6 3.1v3.5c0 .2.1.3.3.3h.6v1.3h-1.5c-.7 0-1-.3-1-1v-3.8c0-1.1-.2-2-1.4-2-1.1 0-2 1-2.2 2.1-.1.3-.1.7-.1 1.1v3.7h-1.5v-4.8c0-1-.2-2-1.4-2s-2 1-2.3 2.1c-.1.3-.1.7-.1 1v3.7h-1.5v-6.6zm19.6-1.8c2.2 0 3.4 1.7 3.4 3.7v.6h-5.8c.1 1.7 1.3 2.7 2.8 2.7 1.4 0 2.3-.9 2.3-.9l.7 1.1s-1.2 1.2-3.1 1.2c-2.5 0-4.3-1.8-4.3-4.2 0-2.6 1.7-4.2 4-4.2zm1.9 3.2c0-1.3-.9-2-1.9-2-1.2 0-2.1.7-2.4 2h4.3zm8.1-3.2c1.9 0 2.5 1.2 2.5 1.2v-2.5c0-.2-.1-.3-.3-.3h-.6v-1.3h1.5c.7 0 1 .3 1 1v8.5c0 .2.1.3.3.3h.6v1.3h-1.5c-.7 0-1-.3-1-.9v-.4s-.7 1.5-2.6 1.5c-2.2 0-3.5-1.7-3.5-4.2-.1-2.6 1.4-4.2 3.6-4.2zm2.5 4.2c0-1.4-.7-2.8-2.3-2.8-1.2 0-2.3 1-2.3 2.9 0 1.7.9 2.9 2.3 2.9 1.2-.2 2.3-1 2.3-3zm5.8-2.4c0-.2-.1-.3-.3-.3h-.7v-1.3h1.5c.7 0 1 .3 1 1v5.3c0 .2.1.3.3.3h.6v1.3h-1.4c-.7 0-1-.3-1-1v-5.3zm.1-4.8h1.4v1.6h-1.4v-1.6zm9.8 6.2h.3v-.1c0-1.4-.5-1.9-1.8-1.9-.4 0-1.3.1-1.3.6v.5h-1.4v-.8c0-1.3 2-1.5 2.8-1.5 2.6 0 3.3 1.4 3.3 3.1v3.4c0 .2.1.3.3.3h.6v1.3h-1.4c-.7 0-1-.3-1-.9v-.5s-.6 1.6-2.5 1.6c-1.4 0-2.7-.8-2.7-2.4 0-2.5 3.5-2.7 4.8-2.7zm-1.7 3.9c1.3 0 2.1-1.4 2.1-2.5v-.3h-.4c-1.2 0-3.2.1-3.2 1.5 0 .7.5 1.3 1.5 1.3zm13.7-8.4c0-.2-.1-.3-.3-.3h-.6v-1.3h1.5c.7 0 1 .3 1 1v8.5c0 .2.1.3.3.3h.6v1.3h-1.5c-.7 0-1-.3-1-1v-8.5zm9.4 1.3c2.4 0 4.3 1.8 4.3 4.2 0 2.4-1.9 4.2-4.3 4.2s-4.3-1.8-4.3-4.2c-.1-2.5 1.9-4.2 4.3-4.2zm0 7c1.5 0 2.8-1.2 2.8-2.9s-1.2-2.8-2.8-2.8c-1.5 0-2.7 1.2-2.7 2.8-.1 1.7 1.1 2.9 2.7 2.9zm11.3-7c1 0 2.9.4 2.9 1.8v.8h-1.4v-.4c0-.6-.9-.8-1.5-.8-1.6 0-2.7 1.2-2.7 2.9 0 1.8 1.3 2.8 2.8 2.8 1.5 0 2.5-1.1 2.5-1.1l.7 1.1s-1.1 1.4-3.3 1.4c-2.5 0-4.3-1.8-4.3-4.2 0-2.5 1.7-4.3 4.3-4.3zm10.5 3.2h.3v-.1c0-1.4-.5-1.9-1.8-1.9-.4 0-1.3.1-1.3.6v.5h-1.3v-.8c0-1.3 2-1.5 2.8-1.5 2.6 0 3.3 1.4 3.3 3.1v3.4c0 .2.1.3.3.3h.6v1.3h-1.4c-.7 0-1-.3-1-.9v-.5s-.6 1.6-2.5 1.6c-1.4 0-2.7-.8-2.7-2.4-.1-2.5 3.4-2.7 4.7-2.7zm-1.7 3.9c1.3 0 2.1-1.4 2.1-2.5v-.3h-.4c-1.2 0-3.2.1-3.2 1.5 0 .7.5 1.3 1.5 1.3zm7.8-8.4c0-.2-.1-.3-.3-.3h-.6v-1.3h1.5c.7 0 1 .3 1 1v8.5c0 .2.1.3.3.3h.6v1.3h-1.5c-.7 0-1-.3-1-1v-8.5zm9.1 1.3c2.2 0 3.4 1.7 3.4 3.7v.6h-5.8c.1 1.7 1.3 2.7 2.8 2.7 1.4 0 2.3-.9 2.3-.9l.7 1.1s-1.2 1.2-3.1 1.2c-2.5 0-4.3-1.8-4.3-4.2 0-2.6 1.8-4.2 4-4.2zm1.9 3.2c0-1.3-.9-2-1.9-2-1.2 0-2.1.7-2.4 2h4.3zm-101.2 12.4c2.2 0 3.4 1.7 3.4 3.7v.6h-5.8c.1 1.7 1.3 2.7 2.8 2.7 1.4 0 2.3-.9 2.3-.9l.7 1.1s-1.2 1.2-3.1 1.2c-2.5 0-4.3-1.8-4.3-4.2 0-2.5 1.7-4.2 4-4.2zm1.9 3.3c0-1.3-.9-2-1.9-2-1.2 0-2.1.7-2.4 2h4.3zm11-1.4c0-.2-.1-.3-.3-.3h-.6v-1.3h1.5c.7 0 1 .3 1 .9v.8c.3-.7 1.3-1.8 3-1.8 1.9 0 2.8 1 2.8 3.1v3.5c0 .2.1.3.3.3h.6v1.3h-1.5c-.7 0-1-.3-1-1v-3.8c0-1.1-.2-2-1.5-2-1.2 0-2.2.8-2.5 2-.1.3-.1.7-.1 1.1v3.7h-1.5v-6.5zm15.6 1.3h.3v-.1c0-1.4-.5-1.9-1.8-1.9-.4 0-1.3.1-1.3.6v.5h-1.4v-.8c0-1.3 2-1.5 2.8-1.5 2.6 0 3.3 1.4 3.3 3.1v3.4c0 .2.1.3.3.3h.6v1.3h-1.4c-.7 0-1-.3-1-.9v-.5s-.6 1.6-2.5 1.6c-1.4 0-2.7-.8-2.7-2.4 0-2.5 3.4-2.7 4.8-2.7zm-1.8 4c1.3 0 2.1-1.4 2.1-2.5v-.3h-.4c-1.2 0-3.2.1-3.2 1.5 0 .6.5 1.3 1.5 1.3zm7.1.1l4.1-5.1c.3-.4.7-.7.7-.7h-3c-.2 0-.3.1-.3.3v.5h-1.4v-1.2c0-.7.3-1 1-1h5.7v.9l-4.1 5.1c-.3.4-.7.7-.7.7h3.4c.2 0 .3-.1.3-.3v-.5h1.4v1.2c0 .7-.3 1-1 1h-6.1v-.9zm10.5-5.4c0-.2-.1-.3-.3-.3h-.6v-1.3h1.5c.7 0 1 .3 1 1v5.3c0 .2.1.3.3.3h.6v1.3h-1.5c-.7 0-1-.3-1-1v-5.3zm0-4.9h1.4v1.6h-1.4v-1.6zm9.3 3c2.4 0 4.3 1.8 4.3 4.2 0 2.4-1.9 4.2-4.3 4.2s-4.3-1.8-4.3-4.2c0-2.4 1.9-4.2 4.3-4.2zm0 7.1c1.5 0 2.8-1.2 2.8-2.9s-1.2-2.8-2.8-2.8c-1.5 0-2.7 1.2-2.7 2.8 0 1.7 1.2 2.9 2.7 2.9zm7.8-5.2c0-.2-.1-.3-.3-.3h-.6v-1.3h1.5c.7 0 1 .3 1 .9v.8c.3-.7 1.3-1.8 3-1.8 1.9 0 2.8 1 2.8 3.1v3.5c0 .2.1.3.3.3h.6v1.3h-1.5c-.7 0-1-.3-1-1v-3.8c0-1.1-.2-2-1.5-2-1.2 0-2.2.8-2.5 2-.1.3-.1.7-.1 1.1v3.7h-1.5v-6.5zm15.6 1.3h.3v-.1c0-1.4-.5-1.9-1.8-1.9-.4 0-1.3.1-1.3.6v.5h-1.4v-.8c0-1.3 2-1.5 2.8-1.5 2.6 0 3.3 1.4 3.3 3.1v3.4c0 .2.1.3.3.3h.6v1.3h-1.4c-.7 0-1-.3-1-.9v-.5s-.6 1.6-2.5 1.6c-1.4 0-2.7-.8-2.7-2.4 0-2.5 3.4-2.7 4.8-2.7zm-1.8 4c1.3 0 2.1-1.4 2.1-2.5v-.3h-.3c-1.2 0-3.2.1-3.2 1.5-.1.6.4 1.3 1.4 1.3zm7.9-8.5c0-.2-.1-.3-.3-.3h-.6v-1.4h1.5c.7 0 1 .3 1 1v8.5c0 .2.1.3.3.3h.6v1.3h-1.5c-.7 0-1-.3-1-1v-8.4zm9.1 1.3c2.2 0 3.4 1.7 3.4 3.7v.6h-5.8c.1 1.7 1.3 2.7 2.8 2.7 1.4 0 2.3-.9 2.3-.9l.7 1.1s-1.2 1.2-3.1 1.2c-2.5 0-4.3-1.8-4.3-4.2 0-2.5 1.7-4.2 4-4.2zm1.8 3.3c0-1.3-.9-2-1.9-2-1.2 0-2.1.7-2.4 2h4.3z"/><path class="st3" d="M626.2 98.4h3.9v-12.6h-.1s-.2.4-.8 1l-1.7 1.6-1.5-1.6 4.3-4.1h2.3v15.6h3.9v2.2h-10.3v-2.1zm15.6-1.9s1.8 2 4.5 2c1.9 0 3.5-1.3 3.5-3.3 0-2-1.8-3.2-3.8-3.2h-1.3l-.5-1.3 3.7-4.7c.5-.8 1-1.2 1-1.2v-.1s-.5.1-1.5.1h-3.4c-.4 0-.6.2-.6.6v1.1h-2.3v-2.2c0-1.1.4-1.6 1.5-1.6h9.4v1.6l-4.7 5.7c2.3.3 5 1.8 5 5.2 0 3-2.4 5.7-6.1 5.7-3.7 0-5.9-2.5-5.9-2.5l1.5-1.9zm15.5-4.8c0-5.1 1.5-9.2 6.3-9.2 4.7 0 6.3 4.1 6.3 9.2s-1.5 9.2-6.3 9.2-6.3-4.1-6.3-9.2zm10 0c0-3.9-.8-6.9-3.7-6.9-2.9 0-3.8 3-3.8 6.9 0 3.9.8 6.9 3.8 6.9 2.9 0 3.7-3 3.7-6.9zm-102.1 25.2c0-.4-.2-.6-.6-.6h-1v-2.1h2.3c1.1 0 1.6.5 1.6 1.3v.7h.1s1.1-2.3 4.2-2.3c3.4 0 5.6 2.7 5.6 6.7 0 4.1-2.5 6.7-5.8 6.7-2.8 0-3.9-2-3.9-2h-.1s.1.5.1 1.1v5.7h-2.4v-15.2zm6 8.4c2 0 3.7-1.7 3.7-4.6 0-2.8-1.5-4.6-3.6-4.6-1.9 0-3.7 1.3-3.7 4.6 0 2.3 1.2 4.6 3.6 4.6zm18.1-6.2h.6v-.1c0-2.2-.8-3.1-2.8-3.1-.6 0-2.1.2-2.1 1v.7h-2.3v-1.3c0-2.1 3.2-2.4 4.4-2.4 4.1 0 5.2 2.2 5.2 5v5.4c0 .4.2.6.6.6h1v2.1h-2.3c-1.1 0-1.6-.6-1.6-1.5 0-.4.1-.8.1-.8h-.1s-1 2.5-4.1 2.5c-2.2 0-4.3-1.3-4.3-3.9 0-3.9 5.6-4.2 7.7-4.2zm-2.8 6.3c2.1 0 3.4-2.2 3.4-4.1v-.4h-.6c-1.8 0-5.2.1-5.2 2.4 0 1.1.8 2.1 2.4 2.1zm12.6-8.5c0-.4-.2-.6-.6-.6h-1v-2.1h2.3c1.1 0 1.6.5 1.6 1.5v.8c0 .5-.1.9-.1.9h.1c.6-1.9 2.1-3.3 4-3.3.3 0 .7.1.7.1v2.4s-.3-.1-.7-.1c-1.6 0-3 1.1-3.6 3-.2.7-.3 1.5-.3 2.3v5.2h-2.4v-10.1zm12.4-.6h-1.7v-2h1.7v-3.5h2.4v3.5h3.1v2h-3.1v5.9c0 2.5 1.8 2.9 2.7 2.9.4 0 .6-.1.6-.1v2.2s-.3.1-.9.1c-1.6 0-4.9-.5-4.9-4.8v-6.2zm16.2-2.3c3.6 0 5.5 2.7 5.5 6 0 .3-.1 1-.1 1h-9.3c.2 2.7 2.1 4.3 4.4 4.3 2.2 0 3.7-1.5 3.7-1.5l1.1 1.7s-1.9 1.9-4.9 1.9c-4 0-6.8-2.9-6.8-6.7 0-4.1 2.8-6.7 6.4-6.7zm3 5.2c-.1-2.1-1.4-3.3-3-3.3-1.9 0-3.4 1.1-3.8 3.3h6.8zm13.9-5.2c1.5 0 4.6.6 4.6 2.8v1.3h-2.2v-.7c0-.9-1.4-1.3-2.4-1.3-2.5 0-4.4 1.9-4.4 4.6 0 2.9 2.1 4.5 4.5 4.5l4-1.8 1.1 1.7s-1.8 2.2-5.2 2.2c-4 0-6.8-2.9-6.8-6.7 0-3.7 2.7-6.6 6.8-6.6zm10.5 2.9c0-.4-.2-.6-.6-.6h-1v-2.1h2.4c1.1 0 1.6.5 1.6 1.6v8.5c0 .4.2.6.6.6h1v2.1h-2.4c-1.1 0-1.6-.5-1.6-1.6v-8.5zm0-7.7h2.2v2.5h-2.2v-2.5zm9.3 7.7c0-.4-.2-.6-.6-.6h-1v-2.1h2.3c1.1 0 1.6.5 1.6 1.3v.7h.1s1.1-2.3 4.2-2.3c3.4 0 5.6 2.7 5.6 6.7 0 4.1-2.5 6.7-5.8 6.7-2.8 0-3.9-2-3.9-2h-.1s.1.5.1 1.1v5.7h-2.4v-15.2zm6 8.4c2 0 3.7-1.7 3.7-4.6 0-2.8-1.5-4.6-3.6-4.6-1.9 0-3.7 1.3-3.7 4.6 0 2.3 1.2 4.6 3.6 4.6zm18.1-6.2h.6v-.1c0-2.2-.8-3.1-2.8-3.1-.6 0-2.1.2-2.1 1v.7h-2.3v-1.3c0-2.1 3.2-2.4 4.4-2.4 4.1 0 5.2 2.2 5.2 5v5.4c0 .4.2.6.6.6h1v2.1h-2.3c-1.1 0-1.6-.6-1.6-1.5 0-.4.1-.8.1-.8h-.1s-1 2.5-4.1 2.5c-2.2 0-4.3-1.3-4.3-3.9 0-3.9 5.6-4.2 7.7-4.2zm-2.8 6.3c2.1 0 3.4-2.2 3.4-4.1v-.4h-.6c-1.8 0-5.2.1-5.2 2.4 0 1.1.8 2.1 2.4 2.1zm12.6-8.5c0-.4-.2-.6-.6-.6h-1v-2.1h2.3c1.1 0 1.6.5 1.6 1.4v.5c0 .4-.1.7-.1.7h.1c.5-1.1 2-2.9 4.8-2.9 3 0 4.4 1.6 4.4 4.9v5.5c0 .4.2.6.6.6h1v2.1h-2.4c-1.1 0-1.6-.5-1.6-1.6v-6c0-1.8-.4-3.2-2.4-3.2s-3.5 1.3-4 3.1c-.2.5-.2 1.1-.2 1.7v6h-2.4v-10.1zm18.4-.6h-1.7v-2h1.7v-3.5h2.4v3.5h3.1v2h-3.1v5.9c0 2.5 1.8 2.9 2.7 2.9.4 0 .6-.1.6-.1v2.2s-.3.1-.9.1c-1.6 0-4.9-.5-4.9-4.8v-6.2zm11.5.6c0-.4-.2-.6-.6-.6h-1v-2.1h2.4c1.1 0 1.6.5 1.6 1.6v8.5c0 .4.2.6.6.6h1v2.1h-2.4c-1.1 0-1.6-.5-1.6-1.6v-8.5zm0-7.7h2.2v2.5h-2.2v-2.5z"/><path class="st4" d="M564.1 143.7h1.1v-8.3h-1.1v-1.4h3.6v1.3h-1.1v8.3h1.1v1.3h-3.6v-1.2zm7.1-.8s.9 1.2 2.4 1.2c.7 0 1.4-.3 1.4-1 0-1.4-4.3-1.3-4.3-3.8 0-1.5 1.3-2.2 2.9-2.2 1 0 2.6.3 2.6 1.5v.7h-1.4v-.4c0-.5-.7-.7-1.2-.7-.9 0-1.5.3-1.5.9 0 1.5 4.3 1.2 4.3 3.8 0 1.4-1.2 2.3-2.9 2.3-2.1 0-3.2-1.4-3.2-1.4l.9-.9zm8.8-4.5h-1v-1.2h1.1v-2.2h1.5v2.2h1.9v1.2h-1.9v3.6c0 1.6 1.1 1.8 1.7 1.8h.4v1.3h-.5c-1 0-3-.3-3-3v-3.7zm7.1.4c0-.2-.1-.3-.3-.3h-.6v-1.3h1.5c.7 0 1 .3 1 1v5.3c0 .2.1.3.3.3h.6v1.3h-1.5c-.7 0-1-.3-1-1v-5.3zm0-4.8h1.4v1.6h-1.4v-1.6zm5.8 4.4h-1v-1.2h1.1v-2.2h1.5v2.2h1.9v1.2h-1.9v3.6c0 1.6 1.1 1.8 1.7 1.8h.4v1.3h-.5c-1 0-3-.3-3-3v-3.7zm7 .4c0-.2-.1-.3-.3-.3h-.6v-1.3h1.5c.7 0 1 .3 1 1v3.7c0 1.1.2 2 1.5 2 1.6 0 2.6-1.4 2.6-3v-3.7h1.5v6.3c0 .2.1.3.3.3h.6v1.3h-1.5c-.7 0-1-.3-1-.9v-.8c-.3.8-1.3 1.8-2.9 1.8-1.8 0-2.7-.9-2.7-3v-3.4zm10.5 5.4l4-5c.3-.4.7-.7.7-.7h-3c-.2 0-.3.1-.3.3v.5h-1.4v-1.2c0-.7.3-1 1-1h5.7v.9l-4.1 5c-.3.4-.7.7-.7.7h3.3c.2 0 .3-.1.3-.3v-.5h1.4v1.2c0 .7-.3 1-1 1h-6v-.9zm10.3-5.4c0-.2-.1-.3-.3-.3h-.6v-1.3h1.5c.7 0 1 .3 1 1v5.3c0 .2.1.3.3.3h.6v1.3h-1.5c-.7 0-1-.3-1-1v-5.3zm0-4.8h1.4v1.6h-1.4v-1.6zm9.3 3c2.4 0 4.3 1.7 4.3 4.1 0 2.4-1.9 4.2-4.3 4.2s-4.2-1.7-4.2-4.2c-.1-2.4 1.8-4.1 4.2-4.1zm0 7c1.5 0 2.7-1.2 2.7-2.8 0-1.6-1.2-2.8-2.7-2.8-1.5 0-2.7 1.2-2.7 2.8 0 1.6 1.2 2.8 2.7 2.8zm7.7-5.2c0-.2-.1-.3-.3-.3h-.6v-1.3h1.5c.7 0 1 .3 1 .9v.8c.3-.7 1.2-1.8 3-1.8 1.9 0 2.7 1 2.7 3v3.4c0 .2.1.3.3.3h.6v1.3h-1.5c-.7 0-1-.3-1-1v-3.7c0-1.1-.2-2-1.5-2-1.2 0-2.2.8-2.5 1.9-.1.3-.1.7-.1 1.1v3.7h-1.5v-6.3zm11.4 0c0-.2-.1-.3-.3-.3h-.6v-1.3h1.5c.7 0 1 .3 1 1v5.3c0 .2.1.3.3.3h.6v1.3h-1.5c-.7 0-1-.3-1-1v-5.3zm0-4.8h1.4v1.6h-1.4v-1.6zm7.3 9.4l-1.3 3.2h-1.2l1-3.2h1.5zm9.6-4.6c0-.2-.1-.3-.3-.3h-.7v-1.3h1.5c.7 0 1 .3 1 1v5.3c0 .2.1.3.3.3h.6v1.3h-1.4c-.7 0-1-.3-1-1v-5.3zm.1-4.8h1.4v1.6h-1.4v-1.6zm5.7 4.8c0-.2-.1-.3-.3-.3h-.6v-1.3h1.5c.7 0 1 .3 1 .9v.8c.4-.9 1.5-1.8 2.7-1.8 1.3 0 2.1.6 2.4 1.8.4-1 1.5-1.8 2.8-1.8 1.8 0 2.6 1 2.6 3v3.4c0 .2.1.3.3.3h.6v1.3h-1.5c-.7 0-1-.3-1-1v-3.7c0-1.1-.2-2-1.4-2-1.1 0-1.9 1-2.2 2-.1.3-.1.7-.1 1.1v3.6h-1.5v-4.7c0-1-.2-2-1.4-2s-2 1-2.3 2.1c-.1.3-.1.7-.1 1v3.6h-1.5v-6.3zm16.2 0c0-.2-.1-.3-.3-.3h-.7v-1.3h1.4c.7 0 1 .3 1 .8v.4s.7-1.4 2.6-1.4c2.1 0 3.5 1.7 3.5 4.1 0 2.5-1.5 4.1-3.6 4.1-1.7 0-2.4-1.3-2.4-1.3v4.2h-1.5v-9.3zm3.7 5.2c1.2 0 2.3-1 2.3-2.8 0-1.7-.9-2.8-2.2-2.8-1.2 0-2.3.8-2.3 2.8 0 1.4.7 2.8 2.2 2.8zm7.3-5.2c0-.2-.1-.3-.3-.3h-.7v-1.3h1.4c.7 0 1 .3 1 .9v1c.4-1.2 1.3-2.1 2.5-2.1h.4v1.5h-.5c-1 0-1.9.7-2.2 1.9-.1.5-.2.9-.2 1.4v3.2h-1.4v-6.2zm10.5-1.8c2.2 0 3.4 1.7 3.4 3.7v.6h-5.8c.1 1.7 1.3 2.6 2.7 2.6 1.4 0 2.3-.9 2.3-.9l.7 1.1s-1.2 1.2-3 1.2c-2.5 0-4.2-1.8-4.2-4.1-.1-2.6 1.6-4.2 3.9-4.2zm1.8 3.2c0-1.3-.9-2-1.9-2-1.2 0-2.1.7-2.3 2h4.2zm5.1 2.7s.9 1.2 2.4 1.2c.7 0 1.4-.3 1.4-1 0-1.4-4.3-1.3-4.3-3.8 0-1.5 1.3-2.2 2.9-2.2 1 0 2.6.3 2.6 1.5v.7h-1.4v-.4c0-.5-.7-.7-1.2-.7-.9 0-1.5.3-1.5.9 0 1.5 4.3 1.2 4.3 3.8 0 1.4-1.2 2.3-2.9 2.3-2.1 0-3.2-1.4-3.2-1.4l.9-.9zm11.9-5.9c2.2 0 3.4 1.7 3.4 3.7v.6h-5.8c.1 1.7 1.3 2.6 2.7 2.6 1.4 0 2.3-.9 2.3-.9l.7 1.1s-1.2 1.2-3 1.2c-2.5 0-4.2-1.8-4.2-4.1 0-2.6 1.7-4.2 3.9-4.2zm1.9 3.2c0-1.3-.9-2-1.9-2-1.2 0-2.1.7-2.3 2h4.2zm-150.3 14.2c0-.2-.1-.3-.3-.3h-.6v-1.3h1.4c.7 0 1 .3 1 .8v.4s.7-1.4 2.6-1.4c2.1 0 3.5 1.7 3.5 4.1 0 2.5-1.5 4.1-3.6 4.1-1.7 0-2.4-1.3-2.4-1.3v4.2h-1.5v-9.3zm3.7 5.2c1.2 0 2.3-1 2.3-2.8 0-1.7-.9-2.8-2.2-2.8-1.2 0-2.3.8-2.3 2.8 0 1.4.7 2.8 2.2 2.8zm11.2-3.8h.3v-.1c0-1.4-.5-1.9-1.7-1.9-.4 0-1.3.1-1.3.6v.5h-1.4v-.8c0-1.3 2-1.5 2.7-1.5 2.6 0 3.2 1.3 3.2 3.1v3.4c0 .2.1.3.3.3h.6v1.3h-1.4c-.7 0-1-.3-1-.9v-.5s-.6 1.6-2.5 1.6c-1.4 0-2.7-.8-2.7-2.4.2-2.6 3.6-2.7 4.9-2.7zm-1.7 3.9c1.3 0 2.1-1.3 2.1-2.5v-.3h-.4c-1.1 0-3.2.1-3.2 1.5 0 .6.5 1.3 1.5 1.3zm7.8-5.3c0-.2-.1-.3-.3-.3h-.6v-1.3h1.4c.7 0 1 .3 1 .9v1c.4-1.2 1.3-2.1 2.5-2.1h.4v1.5h-.5c-1 0-1.9.7-2.2 1.9-.1.5-.2.9-.2 1.4v3.2h-1.5v-6.2zm7.7-.4h-1v-1.2h1.1v-2.2h1.5v2.2h1.9v1.2h-1.9v3.6c0 1.6 1.1 1.8 1.7 1.8h.4v1.3h-.5c-1 0-3-.3-3-3v-3.7zm7 .4c0-.2-.1-.3-.3-.3h-.6v-1.3h1.5c.7 0 1 .3 1 .9v.8c.3-.7 1.2-1.8 3-1.8 1.9 0 2.7 1 2.7 3v3.4c0 .2.1.3.3.3h.6v1.3h-1.5c-.7 0-1-.3-1-1v-3.7c0-1.1-.2-2-1.5-2-1.2 0-2.2.8-2.5 1.9-.1.3-.1.7-.1 1.1v3.7h-1.5v-6.3zm14.5-1.8c2.2 0 3.4 1.7 3.4 3.7v.6h-5.8c.1 1.7 1.3 2.6 2.7 2.6 1.4 0 2.3-.9 2.3-.9l.7 1.1s-1.2 1.2-3 1.2c-2.5 0-4.2-1.8-4.2-4.1-.1-2.6 1.6-4.2 3.9-4.2zm1.8 3.2c0-1.3-.9-2-1.9-2-1.2 0-2.1.7-2.3 2h4.2zm5.2-1.4c0-.2-.1-.3-.3-.3h-.6v-1.3h1.4c.7 0 1 .3 1 .9v1c.4-1.2 1.3-2.1 2.5-2.1h.4v1.5h-.5c-1 0-1.9.7-2.2 1.9-.1.5-.2.9-.2 1.4v3.2h-1.5v-6.2zm8.2 4.7l-1.3 3.2h-1.2l1-3.2h1.5zm13.6-3.3h.3v-.1c0-1.4-.5-1.9-1.7-1.9-.4 0-1.3.1-1.3.6v.5h-1.4v-.8c0-1.3 2-1.5 2.7-1.5 2.6 0 3.2 1.3 3.2 3.1v3.4c0 .2.1.3.3.3h.6v1.3h-1.4c-.7 0-1-.3-1-.9v-.5s-.6 1.6-2.5 1.6c-1.4 0-2.7-.8-2.7-2.4.2-2.6 3.6-2.7 4.9-2.7zm-1.7 3.9c1.3 0 2.1-1.3 2.1-2.5v-.3h-.4c-1.1 0-3.2.1-3.2 1.5 0 .6.5 1.3 1.5 1.3zm7.7-5.3c0-.2-.1-.3-.3-.3h-.6v-1.3h1.5c.7 0 1 .3 1 1v3.7c0 1.1.2 2 1.5 2 1.6 0 2.6-1.4 2.6-3v-3.7h1.5v6.3c0 .2.1.3.3.3h.6v1.3h-1.5c-.7 0-1-.3-1-.9v-.8c-.3.8-1.3 1.8-2.9 1.8-1.8 0-2.7-.9-2.7-3v-3.4zm11.4-.4h-1v-1.2h1.1v-2.2h1.5v2.2h1.9v1.2h-1.9v3.6c0 1.6 1.1 1.8 1.7 1.8h.4v1.3h-.5c-1 0-3-.3-3-3v-3.7zm10.3-1.4c2.4 0 4.3 1.7 4.3 4.1 0 2.4-1.9 4.2-4.3 4.2s-4.2-1.7-4.2-4.2c0-2.4 1.9-4.1 4.2-4.1zm0 7c1.5 0 2.7-1.2 2.7-2.8 0-1.6-1.2-2.8-2.7-2.8-1.5 0-2.7 1.2-2.7 2.8 0 1.6 1.2 2.8 2.7 2.8zm7.7-5.2c0-.2-.1-.3-.3-.3h-.6v-1.3h1.4c.7 0 1 .3 1 .9v1c.4-1.2 1.3-2.1 2.5-2.1h.4v1.5h-.5c-1 0-1.9.7-2.2 1.9-.1.5-.2.9-.2 1.4v3.2h-1.5v-6.2zm7.7 0c0-.2-.1-.3-.3-.3h-.7v-1.3h1.5c.7 0 1 .3 1 1v5.3c0 .2.1.3.3.3h.6v1.3h-1.4c-.7 0-1-.3-1-1v-5.3zm.1-4.7h1.4v1.6h-1.4v-1.6zm5.8 4.3h-1v-1.2h1.1v-2.2h1.5v2.2h1.9v1.2h-1.9v3.6c0 1.6 1.1 1.8 1.7 1.8h.4v1.3h-.5c-1 0-3-.3-3-3v-3.7zm6.7 5.1h1.5v1.6h-1.5v-1.6zm-151.1 7.8c0-.2-.1-.3-.3-.3h-.6v-1.3h1.5c.7 0 1 .3 1 1v8.4c0 .2.1.3.3.3h.6v1.3h-1.5c-.7 0-1-.3-1-1v-8.4zm9.3 1.3c2.4 0 4.3 1.7 4.3 4.1 0 2.4-1.9 4.2-4.3 4.2s-4.2-1.7-4.2-4.2c-.1-2.3 1.8-4.1 4.2-4.1zm0 7c1.5 0 2.7-1.2 2.7-2.8 0-1.6-1.2-2.8-2.7-2.8-1.5 0-2.7 1.2-2.7 2.8 0 1.6 1.2 2.8 2.7 2.8zm11.2-7c1 0 2.8.4 2.8 1.7v.8h-1.4v-.4c0-.6-.9-.8-1.5-.8-1.5 0-2.7 1.2-2.7 2.8 0 1.8 1.3 2.8 2.8 2.8 1.5 0 2.5-1.1 2.5-1.1l.7 1.1s-1.1 1.4-3.2 1.4c-2.5 0-4.2-1.8-4.2-4.1-.1-2.4 1.7-4.2 4.2-4.2zm10.4 3.2h.3v-.1c0-1.4-.5-1.9-1.7-1.9-.4 0-1.3.1-1.3.6v.5h-1.4v-.8c0-1.3 2-1.5 2.7-1.5 2.6 0 3.2 1.3 3.2 3.1v3.4c0 .2.1.3.3.3h.6v1.3h-1.4c-.7 0-1-.3-1-.9v-.5s-.6 1.6-2.5 1.6c-1.4 0-2.7-.8-2.7-2.4.2-2.5 3.6-2.7 4.9-2.7zm-1.7 3.9c1.3 0 2.1-1.3 2.1-2.5v-.3h-.4c-1.1 0-3.2.1-3.2 1.5 0 .7.5 1.3 1.5 1.3zm7.7-8.4c0-.2-.1-.3-.3-.3h-.6v-1.3h1.5c.7 0 1 .3 1 1v8.4c0 .2.1.3.3.3h.6v1.3h-1.5c-.7 0-1-.3-1-1v-8.4zm5.9 3.2c0-.2-.1-.3-.3-.3h-.6v-1.3h1.5c.7 0 1 .3 1 1v5.3c0 .2.1.3.3.3h.6v1.3h-1.5c-.7 0-1-.3-1-1v-5.3zm0-4.8h1.4v1.6h-1.4v-1.6zm7.3 9.4l-1.3 3.2h-1.2l1-3.2h1.5zm13.6-3.3h.3v-.1c0-1.4-.5-1.9-1.7-1.9-.4 0-1.3.1-1.3.6v.5h-1.5v-.8c0-1.3 2-1.5 2.7-1.5 2.6 0 3.2 1.3 3.2 3.1v3.4c0 .2.1.3.3.3h.6v1.3h-1.4c-.7 0-1-.3-1-.9v-.5s-.6 1.6-2.5 1.6c-1.4 0-2.7-.8-2.7-2.4.2-2.5 3.6-2.7 5-2.7zm-1.8 3.9c1.3 0 2.1-1.3 2.1-2.5v-.3h-.4c-1.1 0-3.2.1-3.2 1.5 0 .7.5 1.3 1.5 1.3zm7.7-1.2s.9 1.2 2.4 1.2c.7 0 1.4-.3 1.4-1 0-1.4-4.3-1.3-4.3-3.8 0-1.5 1.3-2.2 2.9-2.2 1 0 2.6.3 2.6 1.5v.7h-1.4v-.4c0-.5-.7-.7-1.2-.7-.9 0-1.5.3-1.5.9 0 1.5 4.3 1.2 4.3 3.8 0 1.4-1.2 2.3-2.9 2.3-2.1 0-3.2-1.4-3.2-1.4l.9-.9zm8.6 0s.9 1.2 2.4 1.2c.7 0 1.4-.3 1.4-1 0-1.4-4.3-1.3-4.3-3.8 0-1.5 1.3-2.2 2.9-2.2 1 0 2.6.3 2.6 1.5v.7h-1.4v-.4c0-.5-.7-.7-1.2-.7-.9 0-1.5.3-1.5.9 0 1.5 4.3 1.2 4.3 3.8 0 1.4-1.2 2.3-2.9 2.3-2.1 0-3.2-1.4-3.2-1.4l.9-.9zm12.3-5.9c2.4 0 4.3 1.7 4.3 4.1 0 2.4-1.9 4.2-4.3 4.2s-4.2-1.7-4.2-4.2c-.1-2.3 1.8-4.1 4.2-4.1zm0 7c1.5 0 2.7-1.2 2.7-2.8 0-1.6-1.2-2.8-2.7-2.8-1.5 0-2.7 1.2-2.7 2.8 0 1.6 1.2 2.8 2.7 2.8zm11.2-7c1 0 2.8.4 2.8 1.7v.8h-1.4v-.4c0-.6-.9-.8-1.5-.8-1.5 0-2.7 1.2-2.7 2.8 0 1.8 1.3 2.8 2.8 2.8 1.5 0 2.5-1.1 2.5-1.1l.7 1.1s-1.1 1.4-3.2 1.4c-2.5 0-4.2-1.8-4.2-4.1-.1-2.4 1.6-4.2 4.2-4.2zm6.5 1.9c0-.2-.1-.3-.3-.3h-.6v-1.3h1.5c.7 0 1 .3 1 1v5.3c0 .2.1.3.3.3h.6v1.3h-1.5c-.7 0-1-.3-1-1v-5.3zm0-4.8h1.4v1.6h-1.4v-1.6zm9.8 6.1h.3v-.1c0-1.4-.5-1.9-1.7-1.9-.4 0-1.3.1-1.3.6v.5h-1.4v-.8c0-1.3 2-1.5 2.7-1.5 2.6 0 3.2 1.3 3.2 3.1v3.4c0 .2.1.3.3.3h.6v1.3h-1.4c-.7 0-1-.3-1-.9v-.5s-.6 1.6-2.5 1.6c-1.4 0-2.7-.8-2.7-2.4.1-2.5 3.5-2.7 4.9-2.7zm-1.8 3.9c1.3 0 2.1-1.3 2.1-2.5v-.3h-.4c-1.1 0-3.2.1-3.2 1.5 0 .7.5 1.3 1.5 1.3zm7 .1l4-5c.3-.4.7-.7.7-.7h-3c-.2 0-.3.1-.3.3v.5h-1.4v-1.2c0-.7.3-1 1-1h5.7v.9l-4.1 5c-.3.4-.7.7-.7.7h3.3c.2 0 .3-.1.3-.3v-.5h1.4v1.2c0 .7-.3 1-1 1h-6v-.9zm10.3-5.3c0-.2-.1-.3-.3-.3h-.6v-1.3h1.5c.7 0 1 .3 1 1v5.3c0 .2.1.3.3.3h.6v1.3h-1.5c-.7 0-1-.3-1-1v-5.3zm.1-4.8h1.4v1.6h-1.4v-1.6zm9.2 2.9c2.4 0 4.3 1.7 4.3 4.1 0 2.4-1.9 4.2-4.3 4.2s-4.2-1.7-4.2-4.2c-.1-2.3 1.8-4.1 4.2-4.1zm0 7c1.5 0 2.7-1.2 2.7-2.8 0-1.6-1.2-2.8-2.7-2.8-1.5 0-2.7 1.2-2.7 2.8 0 1.6 1.2 2.8 2.7 2.8zm7.7-5.1c0-.2-.1-.3-.3-.3h-.7v-1.3h1.5c.7 0 1 .3 1 .9v.8c.3-.7 1.2-1.8 3-1.8 1.9 0 2.7 1 2.7 3v3.4c0 .2.1.3.3.3h.6v1.3h-1.5c-.7 0-1-.3-1-1v-3.7c0-1.1-.2-2-1.5-2-1.2 0-2.2.8-2.5 1.9-.1.3-.1.7-.1 1.1v3.7h-1.5v-6.3zm11.4 0c0-.2-.1-.3-.3-.3h-.6v-1.3h1.5c.7 0 1 .3 1 1v5.3c0 .2.1.3.3.3h.6v1.3h-1.5c-.7 0-1-.3-1-1v-5.3zm.1-4.8h1.4v1.6h-1.4v-1.6zm7.2 9.4l-1.3 3.2h-1.2l1-3.2h1.5zm-129.1 11c0-.2-.1-.3-.3-.3h-.6v-1.4h1.4c.7 0 1 .3 1 .8v.4s.7-1.4 2.6-1.4c2.1 0 3.5 1.7 3.5 4.1 0 2.5-1.5 4.1-3.6 4.1-1.7 0-2.4-1.3-2.4-1.3v4.2h-1.5v-9.2zm3.7 5.1c1.2 0 2.3-1 2.3-2.8 0-1.7-.9-2.8-2.2-2.8-1.2 0-2.3.8-2.3 2.8 0 1.4.8 2.8 2.2 2.8zm10.5-7c2.2 0 3.4 1.7 3.4 3.7v.6h-5.8c.1 1.7 1.3 2.6 2.7 2.6 1.4 0 2.3-.9 2.3-.9l.7 1.1s-1.2 1.2-3 1.2c-2.5 0-4.2-1.8-4.2-4.1 0-2.5 1.7-4.2 3.9-4.2zm1.9 3.3c0-1.3-.9-2-1.9-2-1.2 0-2.1.7-2.3 2h4.2zm5.1-1.4c0-.2-.1-.3-.3-.3h-.6v-1.4h1.4c.7 0 1 .3 1 .9v1c.4-1.2 1.3-2.1 2.5-2.1h.4v1.5h-.5c-1 0-1.9.7-2.2 1.9-.1.5-.2.9-.2 1.4v3.2h-1.5v-6.1zm7.5 4s.9 1.2 2.4 1.2c.7 0 1.4-.3 1.4-1 0-1.4-4.3-1.3-4.3-3.8 0-1.5 1.3-2.2 2.9-2.2 1 0 2.6.3 2.6 1.5v.7h-1.4v-.4c0-.5-.7-.7-1.2-.7-.9 0-1.5.3-1.5.9 0 1.5 4.3 1.2 4.3 3.8 0 1.4-1.2 2.3-2.9 2.3-2.1 0-3.2-1.4-3.2-1.4l.9-.9zm12.3-5.9c2.4 0 4.3 1.7 4.3 4.1 0 2.4-1.9 4.2-4.3 4.2s-4.2-1.7-4.2-4.2c-.1-2.3 1.8-4.1 4.2-4.1zm0 7c1.5 0 2.7-1.2 2.7-2.8 0-1.6-1.2-2.8-2.7-2.8-1.5 0-2.7 1.2-2.7 2.8 0 1.6 1.2 2.8 2.7 2.8zm7.7-5.1c0-.2-.1-.3-.3-.3h-.6v-1.4h1.5c.7 0 1 .3 1 .9v.8c.3-.7 1.2-1.8 3-1.8 1.9 0 2.7 1 2.7 3v3.4c0 .2.1.3.3.3h.6v1.3h-1.5c-.7 0-1-.3-1-1v-3.7c0-1.1-.2-2-1.5-2-1.2 0-2.2.8-2.5 1.9-.1.3-.1.7-.1 1.1v3.7h-1.5v-6.2zm14.5-1.9c2.2 0 3.4 1.7 3.4 3.7v.6h-5.8c.1 1.7 1.3 2.6 2.7 2.6 1.4 0 2.3-.9 2.3-.9l.7 1.1s-1.2 1.2-3 1.2c-2.5 0-4.2-1.8-4.2-4.1 0-2.5 1.7-4.2 3.9-4.2zm1.9 3.3c0-1.3-.9-2-1.9-2-1.2 0-2.1.7-2.3 2h4.2zm13.7-3.3c1.8 0 2.4 1.2 2.4 1.2v-2.5c0-.2-.1-.3-.3-.3h-.6v-1.3h1.5c.7 0 1 .3 1 1v8.4c0 .2.1.3.3.3h.6v1.3h-1.5c-.7 0-1-.3-1-.8v-.4s-.7 1.4-2.6 1.4c-2.1 0-3.5-1.7-3.5-4.1.1-2.5 1.6-4.2 3.7-4.2zm2.5 4.2c0-1.4-.7-2.8-2.2-2.8-1.2 0-2.3 1-2.3 2.8 0 1.7.9 2.8 2.2 2.8 1.2 0 2.3-.8 2.3-2.8zm5.8-2.3c0-.2-.1-.3-.3-.3h-.6v-1.4h1.5c.7 0 1 .3 1 1v5.3c0 .2.1.3.3.3h.6v1.3h-1.5c-.7 0-1-.3-1-1v-5.2zm0-4.8h1.4v1.6h-1.4v-1.6zm-91 17.3c0-.2-.1-.3-.3-.3h-.7v-1.3h1.6c.7 0 1 .3 1 1v8.3c0 .2.1.3.3.3h3c.2 0 .3-.1.3-.3v-.7h1.4v1.4c0 .7-.3 1-1 1h-4.7c-.7 0-1-.3-1-1v-8.4zm12.9 1.3c2.2 0 3.4 1.7 3.4 3.7v.6h-5.8c.1 1.7 1.3 2.6 2.7 2.6 1.4 0 2.3-.9 2.3-.9l.7 1.1s-1.2 1.2-3 1.2c-2.5 0-4.2-1.8-4.2-4.1-.1-2.6 1.6-4.2 3.9-4.2zm1.8 3.2c0-1.3-.9-2-1.9-2-1.2 0-2.1.7-2.3 2h4.2zm4.7-1.4c-.1-.2-.2-.3-.5-.3h-.2v-1.3h.8c.7 0 1 .2 1.2.8l1.7 4.5c.2.4.3 1 .3 1s.1-.6.3-1l1.7-4.5c.2-.6.5-.8 1.2-.8h.7v1.3h-.2c-.3 0-.4.1-.5.3l-2.4 6.3h-1.7l-2.4-6.3zm10.4 0c0-.2-.1-.3-.3-.3h-.6v-1.3h1.5c.7 0 1 .3 1 1v5.3c0 .2.1.3.3.3h.6v1.3h-1.5c-.7 0-1-.3-1-1v-5.3zm0-4.8h1.4v1.6h-1.4v-1.6zm5.6 8.8s.9 1.2 2.4 1.2c.7 0 1.4-.3 1.4-1 0-1.4-4.3-1.3-4.3-3.8 0-1.5 1.3-2.2 2.9-2.2 1 0 2.6.3 2.6 1.5v.7h-1.4v-.4c0-.5-.7-.7-1.2-.7-.9 0-1.5.3-1.5.9 0 1.5 4.3 1.2 4.3 3.8 0 1.4-1.2 2.3-2.9 2.3-2.1 0-3.2-1.4-3.2-1.4l.9-.9zm8.7 0s.9 1.2 2.4 1.2c.7 0 1.4-.3 1.4-1 0-1.4-4.3-1.3-4.3-3.8 0-1.5 1.3-2.2 2.9-2.2 1 0 2.6.3 2.6 1.5v.7h-1.4v-.4c0-.5-.7-.7-1.2-.7-.9 0-1.5.3-1.5.9 0 1.5 4.3 1.2 4.3 3.8 0 1.4-1.2 2.3-2.9 2.3-2.1 0-3.2-1.4-3.2-1.4l.9-.9zm8.9-4c0-.2-.1-.3-.3-.3h-.6v-1.3h1.5c.7 0 1 .3 1 1v5.3c0 .2.1.3.3.3h.6v1.3h-1.5c-.7 0-1-.3-1-1v-5.3zm0-4.8h1.4v1.6h-1.4v-1.6zm5.7 4.8c0-.2-.1-.3-.3-.3h-.6v-1.3h1.5c.7 0 1 .3 1 .9v.8c.4-.9 1.5-1.8 2.7-1.8 1.3 0 2.1.6 2.4 1.8.4-1 1.5-1.8 2.8-1.8 1.8 0 2.6 1 2.6 3v3.4c0 .2.1.3.3.3h.6v1.3h-1.5c-.7 0-1-.3-1-1v-3.7c0-1.1-.2-2-1.4-2-1.1 0-1.9 1-2.2 2-.1.3-.1.7-.1 1.1v3.6h-1.5v-4.7c0-1-.2-2-1.4-2s-2 1-2.3 2.1c-.1.3-.1.7-.1 1v3.6h-1.5v-6.3zm20.3 1.3h.3v-.1c0-1.4-.5-1.9-1.7-1.9-.4 0-1.3.1-1.3.6v.5h-1.4v-.8c0-1.3 2-1.5 2.7-1.5 2.6 0 3.2 1.3 3.2 3.1v3.4c0 .2.1.3.3.3h.6v1.3h-1.4c-.7 0-1-.3-1-.9v-.5s-.6 1.6-2.5 1.6c-1.4 0-2.7-.8-2.7-2.4.1-2.5 3.5-2.7 4.9-2.7zm-1.8 3.9c1.3 0 2.1-1.3 2.1-2.5v-.3h-.4c-1.1 0-3.2.1-3.2 1.5 0 .7.5 1.3 1.5 1.3zm16.8-7c2.2 0 3.4 1.7 3.4 3.7v.6h-5.8c.1 1.7 1.3 2.6 2.7 2.6 1.4 0 2.3-.9 2.3-.9l.7 1.1s-1.2 1.2-3 1.2c-2.5 0-4.2-1.8-4.2-4.1-.1-2.6 1.6-4.2 3.9-4.2zm1.8 3.2c0-1.3-.9-2-1.9-2-1.2 0-2.1.7-2.3 2h4.2zm-78.9 12.4c1 0 2.8.4 2.8 1.7v.8h-1.4v-.4c0-.6-.9-.8-1.5-.8-1.5 0-2.7 1.2-2.7 2.8 0 1.8 1.3 2.8 2.8 2.8 1.5 0 2.5-1.1 2.5-1.1l.7 1.1s-1.1 1.4-3.2 1.4c-2.5 0-4.2-1.8-4.2-4.1-.1-2.4 1.6-4.2 4.2-4.2zm6.5 1.8c0-.2-.1-.3-.3-.3h-.6v-1.3h1.5c.7 0 1 .3 1 1v5.3c0 .2.1.3.3.3h.6v1.3h-1.5c-.7 0-1-.3-1-1v-5.3zm0-4.8h1.4v1.6h-1.4v-1.6zm5.8 4.4h-1v-1.2h1.1v-2.2h1.5v2.2h1.9v1.2h-1.9v3.6c0 1.6 1.1 1.8 1.7 1.8h.4v1.3h-.5c-1 0-3-.3-3-3v-3.7zm7.1 0h-1v-1.2h1.1v-2.2h1.5v2.2h1.9v1.2h-1.9v3.6c0 1.6 1.1 1.8 1.7 1.8h.4v1.3h-.5c-1 0-3-.3-3-3v-3.7zm10.9 1.8h.3v-.1c0-1.4-.5-1.9-1.7-1.9-.4 0-1.3.1-1.3.6v.5h-1.4v-.8c0-1.3 2-1.5 2.7-1.5 2.6 0 3.2 1.3 3.2 3.1v3.4c0 .2.1.3.3.3h.6v1.3h-1.4c-.7 0-1-.3-1-.9v-.5s-.6 1.6-2.5 1.6c-1.4 0-2.7-.8-2.7-2.4.1-2.6 3.6-2.7 4.9-2.7zm-1.8 3.8c1.3 0 2.1-1.3 2.1-2.5v-.3h-.4c-1.1 0-3.2.1-3.2 1.5.1.7.5 1.3 1.5 1.3zm10.7-7c1.8 0 2.4 1.2 2.4 1.2v-2.5c0-.2-.1-.3-.3-.3h-.6v-1.3h1.5c.7 0 1 .3 1 1v8.4c0 .2.1.3.3.3h.6v1.3h-1.5c-.7 0-1-.3-1-.8v-.4s-.7 1.4-2.6 1.4c-2.1 0-3.5-1.7-3.5-4.1.1-2.6 1.6-4.2 3.7-4.2zm2.4 4.1c0-1.4-.7-2.8-2.2-2.8-1.2 0-2.3 1-2.3 2.8 0 1.7.9 2.8 2.2 2.8 1.2 0 2.3-.8 2.3-2.8zm5.8-2.3c0-.2-.1-.3-.3-.3h-.7v-1.3h1.5c.7 0 1 .3 1 1v5.3c0 .2.1.3.3.3h.6v1.3h-1.4c-.7 0-1-.3-1-1v-5.3zm.1-4.8h1.4v1.6h-1.4v-1.6zm5.7 4.8c0-.2-.1-.3-.3-.3h-.6v-1.3h1.5c.7 0 1 .3 1 .9v.8c.3-.7 1.2-1.8 3-1.8 1.9 0 2.7 1 2.7 3v3.4c0 .2.1.3.3.3h.6v1.3h-1.5c-.7 0-1-.3-1-1v-3.7c0-1.1-.2-2-1.5-2-1.2 0-2.2.8-2.5 1.9-.1.3-.1.7-.1 1.1v3.7h-1.5v-6.3zm11.4 0c0-.2-.1-.3-.3-.3h-.6v-1.3h1.5c.7 0 1 .3 1 1v5.3c0 .2.1.3.3.3h.6v1.3h-1.5c-.7 0-1-.3-1-1v-5.3zm.1-4.8h1.4v1.6h-1.4v-1.6z"/><path class="st3" d="M868.6 155.3h5.7v-6.2h2.1v6.2h5.6v2h-5.6v6.2h-2.1v-6.2h-5.7v-2zm19.6 4.1s1.4 2 4.2 2c2.2 0 3.8-1.6 3.8-3.6 0-2.2-1.9-3.6-4.2-3.6-2 0-3.4.9-3.4.9l-1-.5.7-7.4c.1-1.1.5-1.6 1.6-1.6h6.2c1.1 0 1.6.5 1.6 1.6v2.2h-2.3v-1.1c0-.4-.2-.6-.6-.6h-3.7c-.4 0-.5.2-.6.6l-.4 3.3c-.1.6-.1.9-.1.9h.1s1-.5 2.3-.5c3.8 0 6.4 2.6 6.4 5.9 0 3.1-2.5 5.9-6.4 5.9-3.7 0-5.5-2.5-5.5-2.5l1.3-1.9zm15.8-4.9c0-5.1 1.5-9.2 6.3-9.2 4.7 0 6.3 4.1 6.3 9.2s-1.5 9.2-6.3 9.2c-4.8.1-6.3-4-6.3-9.2zm10 0c0-3.9-.8-6.9-3.7-6.9-2.9 0-3.8 3-3.8 6.9 0 3.9.8 6.9 3.8 6.9 2.9.1 3.7-3 3.7-6.9zm-109.9 25.3c0-.4-.2-.6-.6-.6h-1v-2.1h2.4c1.1 0 1.6.5 1.6 1.6v8.5c0 .4.2.6.6.6h1v2.1h-2.4c-1.1 0-1.6-.5-1.6-1.6v-8.5zm0-7.7h2.2v2.5h-2.2v-2.5zm13.9 4.7c3 0 3.9 2 3.9 2h.1s-.1-.4-.1-.9v-3.2c0-.4-.2-.6-.6-.6h-1v-2.1h2.4c1.1 0 1.6.5 1.6 1.6v13.6c0 .4.2.6.6.6h1v2.1h-2.3c-1.1 0-1.6-.5-1.6-1.4v-.7s-1.1 2.3-4.2 2.3c-3.5 0-5.6-2.7-5.6-6.7 0-3.9 2.4-6.6 5.8-6.6zm4 6.7c0-2.3-1.2-4.5-3.6-4.5-2 0-3.7 1.7-3.7 4.6 0 2.8 1.5 4.6 3.6 4.6 1.9-.1 3.7-1.4 3.7-4.7zm14.4-6.7c3.6 0 5.5 2.7 5.5 6 0 .3-.1 1-.1 1h-9.3c.2 2.7 2.1 4.3 4.4 4.3 2.2 0 3.7-1.5 3.7-1.5l1.1 1.7s-1.9 1.9-4.9 1.9c-4 0-6.8-2.9-6.8-6.7 0-4 2.7-6.7 6.4-6.7zm3 5.2c-.1-2.1-1.4-3.3-3-3.3-1.9 0-3.4 1.1-3.8 3.3h6.8zm13.4-5.2c3.6 0 5.5 2.7 5.5 6 0 .3-.1 1-.1 1h-9.2c.2 2.7 2.1 4.3 4.4 4.3 2.2 0 3.7-1.5 3.7-1.5l1.1 1.7s-1.9 1.9-4.9 1.9c-4 0-6.8-2.9-6.8-6.7-.1-4 2.7-6.7 6.3-6.7zm3 5.2c-.1-2.1-1.4-3.3-3-3.3-1.9 0-3.4 1.1-3.8 3.3h6.8zm22.8-5.2c3.6 0 5.5 2.7 5.5 6 0 .3-.1 1-.1 1h-9.3c.2 2.7 2.1 4.3 4.4 4.3 2.2 0 3.7-1.5 3.7-1.5l1.1 1.7s-1.9 1.9-4.9 1.9c-4 0-6.8-2.9-6.8-6.7 0-4 2.8-6.7 6.4-6.7zm3 5.2c-.1-2.1-1.4-3.3-3-3.3-1.9 0-3.4 1.1-3.8 3.3h6.8zm17.4 4.3s1.5 1.9 3.9 1.9c1.2 0 2.2-.5 2.2-1.6 0-2.3-7-2-7-6.2 0-2.4 2.1-3.6 4.7-3.6 1.5 0 4.2.5 4.2 2.5v1.2h-2.2v-.6c0-.8-1.1-1.1-1.9-1.1-1.4 0-2.4.5-2.4 1.5 0 2.4 7 1.9 7 6.2 0 2.3-2 3.7-4.7 3.7-3.4 0-5.1-2.2-5.1-2.2l1.3-1.7zm14.2-6.5c0-.4-.2-.6-.6-.6h-1v-2.1h2.3c1.1 0 1.6.5 1.6 1.3v.7h.1s1.1-2.3 4.2-2.3c3.4 0 5.6 2.7 5.6 6.7 0 4.1-2.5 6.7-5.8 6.7-2.8 0-3.9-2-3.9-2h-.1s.1.5.1 1.1v5.7h-2.4v-15.2zm6 8.3c2 0 3.7-1.7 3.7-4.6 0-2.8-1.5-4.6-3.6-4.6-1.9 0-3.7 1.3-3.7 4.6 0 2.4 1.2 4.6 3.6 4.6zm11.7-8.3c0-.4-.2-.6-.6-.6h-1v-2.1h2.4c1.2 0 1.6.5 1.6 1.6v6.1c0 1.8.4 3.2 2.4 3.2 2.6 0 4.2-2.3 4.2-4.8v-6h2.4v10.1c0 .4.2.6.6.6h1v2.1h-2.3c-1.1 0-1.6-.5-1.6-1.4v-1.3h-.1c-.5 1.3-2.2 2.9-4.7 2.9-2.9 0-4.3-1.5-4.3-4.9v-5.5zm18.3 0c0-.4-.2-.6-.6-.6h-1v-2.1h2.3c1.1 0 1.6.5 1.6 1.4v.5c0 .4-.1.7-.1.7h.1c.5-1.1 2-2.9 4.8-2.9 3 0 4.4 1.6 4.4 4.9v5.5c0 .4.2.6.6.6h1v2.1h-2.4c-1.1 0-1.6-.5-1.6-1.6v-6c0-1.8-.4-3.2-2.4-3.2s-3.5 1.3-4 3.1c-.2.5-.2 1.1-.2 1.7v6h-2.4v-10.1zm18.4-.7h-1.7v-2h1.7v-3.5h2.4v3.5h3.1v2h-3.1v5.9c0 2.5 1.8 2.9 2.7 2.9.4 0 .6-.1.6-.1v2.2s-.3.1-.9.1c-1.6 0-4.9-.5-4.9-4.8v-6.2zm11.4.7c0-.4-.2-.6-.6-.6h-1v-2.1h2.4c1.1 0 1.6.5 1.6 1.6v8.5c0 .4.2.6.6.6h1v2.1h-2.4c-1.1 0-1.6-.5-1.6-1.6v-8.5zm.1-7.7h2.2v2.5h-2.2v-2.5z"/><path class="st4" d="M838.8 197.5c1.8 0 2.4 1.2 2.4 1.2v-2.5c0-.2-.1-.3-.3-.3h-.6v-1.3h1.5c.7 0 1 .3 1 1v8.4c0 .2.1.3.3.3h.6v1.3h-1.5c-.7 0-1-.3-1-.8v-.4s-.7 1.4-2.6 1.4c-2.1 0-3.5-1.7-3.5-4.1.1-2.6 1.6-4.2 3.7-4.2zm2.5 4.1c0-1.4-.7-2.8-2.2-2.8-1.2 0-2.3 1-2.3 2.8 0 1.7.9 2.8 2.2 2.8 1.2 0 2.3-.8 2.3-2.8zm9.7-1h.3v-.1c0-1.4-.5-1.9-1.8-1.9-.4 0-1.3.1-1.3.6v.5h-1.4v-.8c0-1.3 2-1.5 2.7-1.5 2.6 0 3.2 1.3 3.2 3.1v3.4c0 .2.1.3.3.3h.6v1.3h-1.4c-.7 0-1-.3-1-.9v-.5s-.6 1.6-2.5 1.6c-1.4 0-2.7-.8-2.7-2.4.3-2.5 3.7-2.7 5-2.7zm-1.7 3.9c1.3 0 2.1-1.3 2.1-2.5v-.3h-.4c-1.1 0-3.2.1-3.2 1.5 0 .7.5 1.3 1.5 1.3zm13.4-1.2s.9 1.2 2.4 1.2c.7 0 1.4-.3 1.4-1 0-1.4-4.3-1.3-4.3-3.8 0-1.5 1.3-2.2 2.9-2.2 1 0 2.6.3 2.6 1.5v.7h-1.4v-.4c0-.5-.7-.7-1.2-.7-.9 0-1.5.3-1.5.9 0 1.5 4.3 1.2 4.3 3.8 0 1.4-1.3 2.3-2.9 2.3-2.1 0-3.2-1.4-3.2-1.4l.9-.9zm8.3-4c-.1-.2-.2-.3-.5-.3h-.2v-1.3h.8c.7 0 1 .2 1.2.8l1.7 4.5c.2.4.3 1 .3 1s.1-.6.3-1l1.7-4.5c.2-.6.5-.8 1.2-.8h.7v1.3h-.2c-.3 0-.4.1-.5.3l-2.4 6.3h-1.8l-2.3-6.3zm10.4 0c0-.2-.1-.3-.3-.3h-.6v-1.3h1.5c.7 0 1 .3 1 1v5.3c0 .2.1.3.3.3h.6v1.3h-1.5c-.7 0-1-.3-1-1v-5.3zm.1-4.8h1.4v1.6h-1.4v-1.6zm5.7 1.7c0-.2-.1-.3-.3-.3h-.6v-1.3h1.5c.7 0 1 .3 1 1v8.4c0 .2.1.3.3.3h.6v1.3h-1.5c-.7 0-1-.3-1-1v-8.4zm5.7 3.1c0-.2-.1-.3-.3-.3h-.6v-1.3h1.5c.7 0 1 .3 1 1v3.7c0 1.1.2 2 1.5 2 1.6 0 2.6-1.4 2.6-3v-3.7h1.5v6.3c0 .2.1.3.3.3h.6v1.3h-1.5c-.7 0-1-.3-1-.9v-.8c-.3.8-1.3 1.8-2.9 1.8-1.8 0-2.7-.9-2.7-3v-3.4zm11.3 0c0-.2-.1-.3-.3-.3h-.6v-1.3h1.4c.7 0 1 .3 1 .8v.4s.7-1.4 2.6-1.4c2.1 0 3.5 1.7 3.5 4.1 0 2.5-1.5 4.1-3.6 4.1-1.8 0-2.4-1.3-2.4-1.3v4.2h-1.5v-9.3zm3.7 5.1c1.2 0 2.3-1 2.3-2.8 0-1.7-.9-2.8-2.2-2.8-1.2 0-2.3.8-2.3 2.8 0 1.4.8 2.8 2.2 2.8zm7.3-5.1c0-.2-.1-.3-.3-.3h-.6v-1.3h1.4c.7 0 1 .3 1 .8v.4s.7-1.4 2.6-1.4c2.1 0 3.5 1.7 3.5 4.1 0 2.5-1.5 4.1-3.6 4.1-1.7 0-2.4-1.3-2.4-1.3v4.2h-1.5v-9.3zm3.7 5.1c1.3 0 2.3-1 2.3-2.8 0-1.7-.9-2.8-2.2-2.8-1.2 0-2.3.8-2.3 2.8 0 1.4.8 2.8 2.2 2.8zm11.3-3.8h.3v-.1c0-1.4-.5-1.9-1.7-1.9-.4 0-1.3.1-1.3.6v.5h-1.4v-.8c0-1.3 2-1.5 2.7-1.5 2.6 0 3.3 1.3 3.3 3.1v3.4c0 .2.1.3.3.3h.6v1.3h-1.4c-.7 0-1-.3-1-.9v-.5s-.6 1.6-2.5 1.6c-1.4 0-2.7-.8-2.7-2.4 0-2.5 3.5-2.7 4.8-2.7zm-1.8 3.9c1.3 0 2.1-1.3 2.1-2.5v-.3h-.4c-1.1 0-3.2.1-3.2 1.5 0 .7.5 1.3 1.5 1.3zm7.8-5.2c0-.2-.1-.3-.3-.3h-.6v-1.3h1.4c.7 0 1 .3 1 .9v1c.4-1.2 1.3-2.1 2.5-2.1h.4v1.5h-.5c-1 0-1.9.7-2.2 1.9-.1.5-.2.9-.2 1.4v3.2h-1.5v-6.2zm10.5-1.8c2.2 0 3.4 1.7 3.4 3.7v.6h-5.8c.1 1.7 1.3 2.6 2.7 2.6 1.4 0 2.3-.9 2.3-.9l.7 1.1s-1.2 1.2-3 1.2c-2.5 0-4.2-1.8-4.2-4.1 0-2.6 1.7-4.2 3.9-4.2zm1.9 3.2c0-1.3-.9-2-1.9-2-1.2 0-2.1.7-2.3 2h4.2zm-124.7 14.2c0-.2-.1-.3-.3-.3h-.6v-1.3h1.4c.7 0 1 .3 1 .8v.4s.7-1.4 2.6-1.4c2.1 0 3.5 1.7 3.5 4.1 0 2.5-1.5 4.1-3.6 4.1-1.8 0-2.4-1.3-2.4-1.3v4.2h-1.5v-9.3zm3.7 5.2c1.2 0 2.3-1 2.3-2.8 0-1.7-.9-2.8-2.2-2.8-1.2 0-2.3.8-2.3 2.8 0 1.4.8 2.8 2.2 2.8zm10.5-7c2.2 0 3.4 1.7 3.4 3.7v.6h-5.8c.1 1.7 1.3 2.6 2.7 2.6 1.4 0 2.3-.9 2.3-.9l.7 1.1s-1.2 1.2-3 1.2c-2.5 0-4.2-1.8-4.2-4.1 0-2.6 1.7-4.2 3.9-4.2zm1.9 3.2c0-1.3-.9-2-1.9-2-1.2 0-2.1.7-2.3 2h4.2zm5.1-1.4c0-.2-.1-.3-.3-.3h-.6v-1.3h1.4c.7 0 1 .3 1 .9v1c.4-1.2 1.3-2.1 2.5-2.1h.4v1.5h-.5c-1 0-1.9.7-2.2 1.9-.1.5-.2.9-.2 1.4v3.2h-1.5v-6.2zm13.4 0c0-.2-.1-.3-.3-.3h-.6v-1.3h1.5c.7 0 1 .3 1 1v3.7c0 1.1.2 2 1.5 2 1.6 0 2.6-1.4 2.6-3v-3.7h1.5v6.3c0 .2.1.3.3.3h.6v1.3h-1.5c-.7 0-1-.3-1-.9v-.8c-.3.8-1.3 1.8-2.9 1.8-1.8 0-2.7-.9-2.7-3v-3.4zm11.3 0c0-.2-.1-.3-.3-.3h-.6v-1.3h1.5c.7 0 1 .3 1 .9v.8c.3-.7 1.2-1.8 3-1.8 1.9 0 2.7 1 2.7 3v3.4c0 .2.1.3.3.3h.6v1.3h-1.5c-.7 0-1-.3-1-1v-3.7c0-1.1-.2-2-1.5-2-1.2 0-2.2.8-2.5 1.9-.1.3-.1.7-.1 1.1v3.7h-1.5v-6.3zm15.3 1.4h.3v-.1c0-1.4-.5-1.9-1.8-1.9-.4 0-1.3.1-1.3.6v.5h-1.3v-.8c0-1.3 2-1.5 2.7-1.5 2.6 0 3.2 1.3 3.2 3.1v3.4c0 .2.1.3.3.3h.6v1.3h-1.4c-.7 0-1-.3-1-.9v-.5s-.6 1.6-2.5 1.6c-1.4 0-2.7-.8-2.7-2.4.2-2.6 3.6-2.7 4.9-2.7zm-1.7 3.8c1.3 0 2.1-1.3 2.1-2.5v-.3h-.4c-1.1 0-3.2.1-3.2 1.5 0 .7.5 1.3 1.5 1.3zm17-7c1 0 2.8.4 2.8 1.7v.8h-1.4v-.4c0-.6-.9-.8-1.5-.8-1.5 0-2.7 1.2-2.7 2.8 0 1.8 1.3 2.8 2.8 2.8 1.5 0 2.5-1.1 2.5-1.1l.7 1.1s-1.1 1.4-3.2 1.4c-2.5 0-4.2-1.8-4.2-4.1 0-2.4 1.7-4.2 4.2-4.2zm6.4 1.8c0-.2-.1-.3-.3-.3h-.6v-1.3h1.4c.7 0 1 .3 1 .9v1c.4-1.2 1.3-2.1 2.5-2.1h.4v1.5h-.5c-1 0-1.9.7-2.2 1.9-.1.5-.2.9-.2 1.4v3.2h-1.5v-6.2zm10.5-1.8c2.2 0 3.4 1.7 3.4 3.7v.6h-5.8c.1 1.7 1.3 2.6 2.7 2.6 1.4 0 2.3-.9 2.3-.9l.7 1.1s-1.2 1.2-3 1.2c-2.5 0-4.2-1.8-4.2-4.1 0-2.6 1.7-4.2 3.9-4.2zm1.9 3.2c0-1.3-.9-2-1.9-2-1.2 0-2.1.7-2.3 2h4.2zm5 2.7s.9 1.2 2.4 1.2c.7 0 1.4-.3 1.4-1 0-1.4-4.3-1.3-4.3-3.8 0-1.5 1.3-2.2 2.9-2.2 1 0 2.6.3 2.6 1.5v.7h-1.4v-.4c0-.5-.7-.7-1.2-.7-.9 0-1.5.3-1.5.9 0 1.5 4.3 1.2 4.3 3.8 0 1.4-1.3 2.3-2.9 2.3-2.1 0-3.2-1.4-3.2-1.4l.9-.9zm12.3-5.9c1 0 2.8.4 2.8 1.7v.8h-1.4v-.4c0-.6-.9-.8-1.5-.8-1.5 0-2.7 1.2-2.7 2.8 0 1.8 1.3 2.8 2.8 2.8 1.5 0 2.5-1.1 2.5-1.1l.7 1.1s-1.1 1.4-3.2 1.4c-2.5 0-4.2-1.8-4.2-4.1-.1-2.4 1.6-4.2 4.2-4.2zm6.4 1.8c0-.2-.1-.3-.3-.3h-.6v-1.3h1.5c.7 0 1 .3 1 1v5.3c0 .2.1.3.3.3h.6v1.3h-1.5c-.7 0-1-.3-1-1v-5.3zm.1-4.8h1.4v1.6h-1.4v-1.6zm5.8 4.4h-1v-1.2h1.1v-2.2h1.5v2.2h1.9v1.2h-1.9v3.6c0 1.6 1.1 1.8 1.7 1.8h.4v1.3h-.5c-1 0-3-.3-3-3v-3.7zm10.9 1.8h.3v-.1c0-1.4-.5-1.9-1.7-1.9-.4 0-1.3.1-1.3.6v.5h-1.4v-.8c0-1.3 2-1.5 2.7-1.5 2.6 0 3.3 1.3 3.3 3.1v3.4c0 .2.1.3.3.3h.6v1.3h-1.4c-.7 0-1-.3-1-.9v-.5s-.6 1.6-2.5 1.6c-1.4 0-2.7-.8-2.7-2.4.1-2.6 3.5-2.7 4.8-2.7zm-1.7 3.8c1.3 0 2.1-1.3 2.1-2.5v-.3h-.4c-1.1 0-3.2.1-3.2 1.5 0 .7.5 1.3 1.5 1.3zm-118.7 10.4c0-.2-.1-.3-.3-.3h-.6v-1.3h1.5c.7 0 1 .3 1 1v5.3c0 .2.1.3.3.3h.6v1.3h-1.5c-.7 0-1-.3-1-1v-5.3zm.1-4.7h1.4v1.6h-1.4v-1.6zm5.7 4.7c0-.2-.1-.3-.3-.3h-.6v-1.3h1.5c.7 0 1 .3 1 .9v.8c.3-.7 1.2-1.8 3-1.8 1.9 0 2.7 1 2.7 3v3.4c0 .2.1.3.3.3h.6v1.3h-1.5c-.7 0-1-.3-1-1v-3.7c0-1.1-.2-2-1.5-2-1.2 0-2.2.8-2.5 1.9-.1.3-.1.7-.1 1.1v3.7h-1.5v-6.3zm14.8-1.8c1 0 2.8.4 2.8 1.7v.8h-1.4v-.4c0-.6-.9-.8-1.5-.8-1.5 0-2.7 1.2-2.7 2.8 0 1.8 1.3 2.8 2.8 2.8 1.5 0 2.5-1.1 2.5-1.1l.7 1.1s-1.1 1.4-3.2 1.4c-2.5 0-4.2-1.8-4.2-4.1 0-2.4 1.7-4.2 4.2-4.2zm6.4-1.3c0-.2-.1-.3-.3-.3h-.6v-1.3h1.5c.7 0 1 .3 1 1v8.4c0 .2.1.3.3.3h.6v1.3h-1.5c-.7 0-1-.3-1-1v-8.4zm5.7 3.1c0-.2-.1-.3-.3-.3h-.7v-1.3h1.5c.7 0 1 .3 1 1v3.7c0 1.1.2 2 1.5 2 1.6 0 2.6-1.4 2.6-3v-3.7h1.5v6.3c0 .2.1.3.3.3h.6v1.3h-1.5c-.7 0-1-.3-1-.9v-.8c-.3.8-1.3 1.8-2.9 1.8-1.8 0-2.7-.9-2.7-3v-3.4zm11.2 4.1s.9 1.2 2.4 1.2c.7 0 1.4-.3 1.4-1 0-1.4-4.3-1.3-4.3-3.8 0-1.5 1.3-2.2 2.9-2.2 1 0 2.6.3 2.6 1.5v.7h-1.4v-.4c0-.5-.7-.7-1.2-.7-.9 0-1.5.3-1.5.9 0 1.5 4.3 1.2 4.3 3.8 0 1.4-1.3 2.3-2.9 2.3-2.1 0-3.2-1.4-3.2-1.4l.9-.9zm8.9-4.1c0-.2-.1-.3-.3-.3h-.6v-1.3h1.5c.7 0 1 .3 1 1v5.3c0 .2.1.3.3.3h.6v1.3h-1.5c-.7 0-1-.3-1-1v-5.3zm0-4.7h1.4v1.6h-1.4v-1.6zm5.2 4.7c-.1-.2-.2-.3-.5-.3h-.2v-1.3h.8c.7 0 1 .2 1.2.8l1.7 4.5c.2.4.3 1 .3 1s.1-.6.3-1l1.7-4.5c.2-.6.5-.8 1.2-.8h.7v1.3h-.2c-.3 0-.4.1-.5.3l-2.4 6.3h-1.8l-2.3-6.3zm14.3 1.4h.3v-.1c0-1.4-.5-1.9-1.8-1.9-.4 0-1.3.1-1.3.6v.5h-1.4v-.8c0-1.3 2-1.5 2.7-1.5 2.6 0 3.2 1.3 3.2 3.1v3.4c0 .2.1.3.3.3h.6v1.3h-1.2c-.7 0-1-.3-1-.9v-.5s-.6 1.6-2.5 1.6c-1.4 0-2.7-.8-2.7-2.4 0-2.6 3.4-2.7 4.8-2.7zm-1.8 3.9c1.3 0 2.1-1.3 2.1-2.5v-.3h-.4c-1.1 0-3.2.1-3.2 1.5 0 .6.5 1.3 1.5 1.3zm16.4-7.1c1.8 0 2.4 1.2 2.4 1.2v-2.5c0-.2-.1-.3-.3-.3h-.6v-1.3h1.5c.7 0 1 .3 1 1v8.4c0 .2.1.3.3.3h.6v1.3h-1.5c-.7 0-1-.3-1-.8v-.4s-.7 1.4-2.6 1.4c-2.1 0-3.5-1.7-3.5-4.1.1-2.6 1.6-4.2 3.7-4.2zm2.5 4.1c0-1.4-.7-2.8-2.3-2.8-1.2 0-2.3 1-2.3 2.8 0 1.7.9 2.8 2.2 2.8 1.3.1 2.4-.8 2.4-2.8zm8.9-4.1c2.2 0 3.4 1.7 3.4 3.7v.6h-5.8c.1 1.7 1.3 2.6 2.7 2.6 1.4 0 2.3-.9 2.3-.9l.7 1.1s-1.2 1.2-3 1.2c-2.5 0-4.2-1.8-4.2-4.1-.1-2.6 1.7-4.2 3.9-4.2zm1.8 3.2c0-1.3-.9-2-1.9-2-1.2 0-2.1.7-2.3 2h4.2zm5.3-1.4c0-.2-.1-.3-.3-.3h-.6v-1.3h1.5c.7 0 1 .3 1 1v5.3c0 .2.1.3.3.3h.6v1.3h-1.5c-.7 0-1-.3-1-1v-5.3zm0-4.7h1.4v1.6h-1.4v-1.6zm-84.7 19.9h-1v-1.2h1.1v-2.2h1.5v2.2h1.9v1.2h-1.9v3.6c0 1.6 1.1 1.8 1.7 1.8h.4v1.3h-.5c-1 0-3-.3-3-3v-3.7zm10-1.4c2.2 0 3.4 1.7 3.4 3.7v.6h-5.8c.1 1.7 1.3 2.6 2.7 2.6 1.4 0 2.3-.9 2.3-.9l.7 1.1s-1.2 1.2-3 1.2c-2.5 0-4.2-1.8-4.2-4.1 0-2.5 1.7-4.2 3.9-4.2zm1.9 3.2c0-1.3-.9-2-1.9-2-1.2 0-2.1.7-2.3 2h4.2zm5.1-1.3c0-.2-.1-.3-.3-.3h-.7v-1.3h1.4c.7 0 1 .3 1 .9v1c.4-1.2 1.3-2.1 2.5-2.1h.4v1.5h-.5c-1 0-1.9.7-2.2 1.9-.1.5-.2.9-.2 1.4v3.2h-1.4v-6.2zm7.7 0c0-.2-.1-.3-.3-.3h-.6v-1.3h1.4c.7 0 1 .3 1 .9v1c.4-1.2 1.3-2.1 2.5-2.1h.4v1.5h-.5c-1 0-1.9.7-2.2 1.9-.1.5-.2.9-.2 1.4v3.2h-1.5v-6.2zm7.7 0c0-.2-.1-.3-.3-.3h-.6v-1.3h1.5c.7 0 1 .3 1 1v5.3c0 .2.1.3.3.3h.6v1.3h-1.5c-.7 0-1-.3-1-1v-5.3zm.1-4.8h1.4v1.6h-1.4v-1.6zm5.8 4.3h-1v-1.2h1.1v-2.2h1.5v2.2h1.9v1.2h-1.9v3.6c0 1.6 1.1 1.8 1.7 1.8h.4v1.3h-.5c-1 0-3-.3-3-3v-3.7zm10.3-1.4c2.4 0 4.3 1.7 4.3 4.1 0 2.4-1.9 4.2-4.3 4.2s-4.2-1.7-4.2-4.2c0-2.3 1.9-4.1 4.2-4.1zm0 7c1.5 0 2.7-1.2 2.7-2.8 0-1.6-1.2-2.8-2.7-2.8-1.5 0-2.7 1.2-2.7 2.8 0 1.6 1.2 2.8 2.7 2.8zm7.7-5.1c0-.2-.1-.3-.3-.3h-.6v-1.3h1.4c.7 0 1 .3 1 .9v1c.4-1.2 1.3-2.1 2.5-2.1h.4v1.5h-.5c-1 0-1.9.7-2.2 1.9-.1.5-.2.9-.2 1.4v3.2h-1.5v-6.2zm7.7 0c0-.2-.1-.3-.3-.3h-.7v-1.3h1.5c.7 0 1 .3 1 1v5.3c0 .2.1.3.3.3h.6v1.3h-1.4c-.7 0-1-.3-1-1v-5.3zm0-4.8h1.4v1.6h-1.4v-1.6z"/></svg>