<svg viewBox="0 0 481.8 205.3" xmlns="http://www.w3.org/2000/svg"><path d="M457.8 152.3c-27.3 0-54 11.2-73.4 30.7-1.3 1.3-1.3 3.3 0 4.6.6.6 1.5.9 2.3.9s1.7-.3 2.3-1c18.2-18.3 43.2-28.7 68.8-28.7 1.8 0 3.3-1.5 3.3-3.3 0-1.7-1.5-3.2-3.3-3.2zm-68.1-3c-1-1.5-3-1.9-4.5-.9-14 9.4-25.7 21.2-35 35-1 1.5-.6 3.5.9 4.5.6.4 1.2.6 1.8.6 1.1 0 2.1-.5 2.7-1.4 8.8-13.1 20-24.3 33.3-33.3 1.4-1 1.8-3 .8-4.5zm68.1-23.2c-14.6 0-29 2.5-42.9 7.4-1.7.6-2.6 2.5-2 4.2.5 1.3 1.7 2.2 3.1 2.2.4 0 .7-.1 1.1-.2 13.2-4.7 26.9-7 40.8-7 1.8 0 3.3-1.5 3.3-3.3-.1-1.9-1.6-3.3-3.4-3.3zm-30.2-14.6c9.9-2.1 20-3.2 30.2-3.2 1.8 0 3.3-1.5 3.3-3.3s-1.5-3.3-3.3-3.3c-9.3 0-18.5.8-27.6 2.5v-7c11.8-10 18.3-23.1 18.3-37 0-14.4-6.9-27.9-19.5-38-1.2-1-2.9-1-4.1 0-12.6 10.1-19.5 23.6-19.5 38 0 13.9 6.5 27 18.3 37v8.4c-6.2 1.4-12.3 3.2-18.3 5.4V91.9c0-.9-.4-1.7-.9-2.3l-18.3-18.4c-.6-.6-1.4-1-2.3-1h-37.3c-.9 0-1.7.3-2.3 1L326 89.6c-.6.6-1 1.4-1 2.3v12.5c-2.3-.4-4.6-.8-6.9-1.1V91.6c8.9-7.7 13.8-17.7 13.8-28.3 0-11.1-5.3-21.6-15-29.3-1.2-1-2.9-1-4.1 0-9.7 7.8-15 18.2-15 29.3 0 10.7 4.9 20.7 13.8 28.3v10.9c-4.8-.4-9.6-.7-14.4-.7-1.8 0-3.3 1.5-3.3 3.3s1.5 3.3 3.3 3.3c26.1 0 51.6 6.9 74.1 20-5.4 3.7-10.5 7.7-15.4 12-18.2-9.3-38.5-14.2-58.7-14.2-1.8 0-3.3 1.5-3.3 3.3s1.5 3.3 3.3 3.3c18.4 0 36.8 4.3 53.6 12.4-5 4.8-9.6 9.9-13.9 15.4-12.7-5.3-26-8-39.7-8-1.8 0-3.3 1.5-3.3 3.3s1.5 3.3 3.3 3.3c12.2 0 24.2 2.3 35.6 6.9-2.3 3.1-4.4 6.4-6.4 9.7l-5 8.1c-.9 1.5-.5 3.5 1.1 4.5.5.3 1.1.5 1.7.5 1.1 0 2.2-.6 2.8-1.6l5-8.1c2.6-4.2 5.4-8.3 8.4-12.3l.3-.4c21.5-28.3 52.6-47.7 86.9-55zm-15.7-51.3c0-11.6 5.3-22.6 15-31.2 9.7 8.6 15 19.6 15 31.2 0 10.2-4.1 20-11.7 28v-25c0-1.8-1.5-3.3-3.3-3.3s-3.3 1.5-3.3 3.3v25c-7.6-8-11.7-17.7-11.7-28zm-97.1-2.8c-1.8 0-3.3 1.5-3.3 3.3v21.7c-4.7-5.6-7.3-12.2-7.3-19.1 0-8.3 3.7-16.2 10.6-22.5 6.8 6.3 10.6 14.2 10.6 22.5 0 6.9-2.5 13.5-7.3 19.1V60.7c0-1.8-1.5-3.3-3.3-3.3zm31.7 20.7l10.4 10.5H336zm3.9 33.2c-2.6-1-5.2-1.8-7.8-2.6v-2.5h7.8zm11.1 4.6c-1.5-.7-3-1.4-4.6-2v-11c0-1.8-1.5-3.3-3.3-3.3h-14.4c-1.8 0-3.3 1.5-3.3 3.3v3.9c-1.5-.4-3-.8-4.6-1.1V95.1h30v20.8zm-7.2-39.1h28.1l11.8 11.9h-28.1zm13.7 42.3v-24h30.8v18.4c-5.6 2.3-11.1 5-16.4 7.9-1.7.9-3.4 1.9-5 2.9-3-1.8-6.2-3.6-9.4-5.2zm58.9-65c.9 0 1.7-.3 2.3-1 .6-.6 1-1.4 1-2.3s-.3-1.7-1-2.3c-.6-.6-1.5-1-2.3-1-.9 0-1.7.3-2.3 1-.6.6-1 1.4-1 2.3s.3 1.7 1 2.3c.6.7 1.5 1 2.3 1zm-28.3 86.6c-.6.6-1 1.4-1 2.3s.3 1.7 1 2.3c.6.6 1.4 1 2.3 1s1.7-.3 2.3-1c.6-.6 1-1.4 1-2.3s-.3-1.7-1-2.3c-.6-.6-1.4-1-2.3-1s-1.7.4-2.3 1zm-101.7-8H70.8c-1.9 0-3.3-1.5-3.3-3.3 0-1.9 1.5-3.3 3.3-3.3h226.1c1.9 0 3.3 1.5 3.3 3.3s-1.5 3.3-3.3 3.3zm0-24.3H70.8c-1.9 0-3.3-1.5-3.3-3.3s1.5-3.3 3.3-3.3h226.1c1.9 0 3.3 1.5 3.3 3.3s-1.5 3.3-3.3 3.3z" fill="#c0b07f"/></svg>