<svg viewBox="0 0 138 50" xmlns="http://www.w3.org/2000/svg"><path d="M131.8 1.1H6.2c-3.3 0-6 2.7-6 6v24.3c0 3.3 2.7 6 6 6h45.4c2.4 0 4.7 1 6.4 2.7l8.8 8.9c1.2 1.2 3.1 1.2 4.2 0l8.8-8.9c1.7-1.7 4-2.7 6.4-2.7h45.4c3.3 0 6-2.7 6-6V7.1c.2-3.3-2.5-6-5.8-6z" fill="#f3352f"/><path d="M31.7 14c1.3 0 3.9.6 3.9 2.3v1.2h-1.7v-.6c0-.8-1.2-1.1-2.1-1.1-1.9 0-3.3 1.3-3.3 3.5 0 2 1.5 3.7 3.4 3.7 2 0 3.1-1.4 3.1-1.4l1 1.4s-1.5 1.8-4.2 1.8c-3.2 0-5.3-2.4-5.3-5.4 0-3.1 2.2-5.4 5.2-5.4zm10.2 5.8h.2v-.1c0-1.1-.4-1.5-1.4-1.5-.3 0-1 .1-1 .5v.4H38v-.8c0-1.4 2-1.5 2.7-1.5 2.5 0 3.2 1.3 3.2 3v2.8c0 .2.1.3.3.3h.6v1.6h-1.7c-.7 0-.9-.4-.9-.8v-.3s-.6 1.3-2.2 1.3c-1.3 0-2.5-.8-2.5-2.3 0-2.4 3.2-2.6 4.4-2.6zm-1.4 3.4c1 0 1.7-1 1.7-2V21h-.3c-1 0-2.5.1-2.5 1.2 0 .6.3 1 1.1 1zm6.6-1.1s.9 1.1 2.2 1.1c.6 0 1-.2 1-.7 0-1-3.9-1-3.9-3.4 0-1.5 1.3-2.2 2.9-2.2 1 0 2.6.3 2.6 1.5v.8h-1.6v-.4c0-.4-.5-.5-.9-.5-.7 0-1.1.2-1.1.7 0 1.2 4 .9 4 3.4 0 1.4-1.2 2.3-2.9 2.3-2 0-3.1-1.3-3.1-1.3zm7.5-3.6h-1V17h1v-2h1.8v2h1.7v1.5h-1.7v3c0 1.2 1 1.4 1.5 1.4h.3v1.6h-.6c-1 0-3.1-.3-3.1-2.8zm6 .5c0-.2-.1-.3-.3-.3h-.6v-1.6h1.7c.7 0 1 .3 1 .9v.9c.3-1.1 1.2-1.9 2.4-1.9h.3v1.8h-.5c-.8 0-1.7.5-2 1.6-.1.4-.2.8-.2 1.2v2.9h-1.8zm9.7-2.1c2.3 0 4.1 1.6 4.1 3.9s-1.8 3.9-4.1 3.9-4.1-1.6-4.1-3.9 1.9-3.9 4.1-3.9zm0 6.2c1.2 0 2.2-.9 2.2-2.3s-1-2.3-2.2-2.3-2.2.9-2.2 2.3 1 2.3 2.2 2.3zm9.8-6.2c1 0 2.7.4 2.7 1.7v.9h-1.6V19c0-.4-.6-.6-1.1-.6-1.3 0-2.2 1-2.2 2.3 0 1.5 1.1 2.3 2.3 2.3 1.3 0 2.2-1 2.2-1l.8 1.3s-1.1 1.3-3.1 1.3c-2.4 0-4-1.7-4-3.9-.1-2 1.4-3.8 4-3.8zm5.2 2.1c0-.2-.1-.3-.3-.3h-.6v-1.6h1.8c.7 0 1 .3 1 1v4.6c0 .2.1.3.3.3h.6v1.6h-1.8c-.7 0-1-.3-1-1zm.1-4.8H87v1.7h-1.6zm7.9 2.7c2.1 0 3.3 1.6 3.3 3.5v.7h-5.1c.1 1.3 1.1 2 2.2 2 1.2 0 2.1-.8 2.1-.8l.8 1.3s-1.1 1.1-3 1.1c-2.5 0-4-1.8-4-3.9-.1-2.3 1.5-3.9 3.7-3.9zm1.4 2.9c0-.9-.6-1.5-1.4-1.5-.9 0-1.6.6-1.8 1.5zM99 16c0-.2-.1-.3-.3-.3h-.6v-1.6h1.8c.7 0 1 .3 1 1v7.5c0 .2.1.3.3.3h.6v1.6H100c-.7 0-1-.3-1-1zm8.3.9c2.3 0 4.1 1.6 4.1 3.9s-1.8 3.9-4.1 3.9-4.1-1.6-4.1-3.9 1.8-3.9 4.1-3.9zm0 6.2c1.2 0 2.2-.9 2.2-2.3s-1-2.3-2.2-2.3-2.2.9-2.2 2.3c-.1 1.4 1 2.3 2.2 2.3z" fill="#fff"/></svg>