<svg id="Livello_1" xmlns="http://www.w3.org/2000/svg" viewBox="0 0 1126.1 427.2"><style>.st0{opacity:.2}.st1{fill:#c0b07f}.st2{fill:#4e5594}.st3{fill-rule:evenodd;clip-rule:evenodd;fill:#c0b07f}</style><g class="st0"><path class="st1" d="M233.6 67.4c24.8 0 37 9.2 50 19 13.8 10.4 28 21.1 56.5 21.1s42.7-10.7 56.5-21.1c13-9.8 25.2-19 50-19s37 9.2 50 19c13.8 10.4 28 21.1 56.5 21.1s42.7-10.7 56.5-21.1c13-9.8 25.3-19 50-19 24.8 0 37 9.2 50 19 13.8 10.4 28 21.1 56.5 21.1s42.7-10.7 56.5-21.1c13-9.8 25.3-19 50-19 24.8 0 37 9.2 50 19 13.8 10.4 28 21.1 56.5 21.1s42.7-10.7 56.5-21.1c13-9.8 25.3-19 50-19 2.7 0 4.8-1.8 4.8-4s-2.2-4-4.8-4c-28.5 0-42.7 10.7-56.5 21.1-13 9.8-25.3 19-50 19s-37-9.2-50-19c-13.8-10.4-28.1-21.2-56.6-21.2S829.8 70 816 80.4c-13 9.8-25.3 19-50 19-24.8 0-37-9.2-50-19-13.8-10.4-28-21.1-56.5-21.1S616.8 70 603 80.4c-13 9.8-25.3 19-50 19-24.8 0-37-9.2-50-19-13.8-10.4-28-21.1-56.5-21.1S403.8 70 390 80.4c-13 9.8-25.3 19-50 19-24.8 0-37-9.2-50-19-13.8-10.4-28-21.1-56.5-21.1-2.7 0-4.8 1.8-4.8 4 .1 2.3 2.2 4.1 4.9 4.1zm852.2 54.5c-28.5 0-42.7 10.7-56.5 21.1-13 9.8-25.3 19-50 19-24.8 0-37-9.2-50-19-13.8-10.4-28.1-21.2-56.6-21.2s-42.7 10.7-56.5 21.1c-13 9.8-25.3 19-50 19-24.8 0-37-9.2-50-19-13.8-10.4-28-21.1-56.5-21.1s-42.7 10.7-56.5 21.1c-13 9.8-25.3 19-50 19-24.8 0-37-9.2-50-19-13.8-10.4-28-21.1-56.5-21.1s-42.7 10.7-56.5 21.1c-13 9.8-25.3 19-50 19-24.8 0-37-9.2-50-19-13.8-10.4-28-21.1-56.5-21.1-2.7 0-4.8 1.8-4.8 4s2.2 4 4.8 4c24.8 0 37 9.2 50 19 13.8 10.4 28 21.1 56.5 21.1s42.7-10.7 56.5-21.1c13-9.8 25.2-19.1 50-19.1s37 9.2 50 19c13.8 10.4 28 21.1 56.5 21.1s42.7-10.7 56.5-21.1c13-9.8 25.3-19.1 50-19.1 24.8 0 37 9.2 50 19 13.8 10.4 28 21.1 56.5 21.1s42.7-10.7 56.5-21.1c13-9.8 25.3-19 50-19 24.8 0 37 9.2 50 19 13.8 10.4 28 21.1 56.5 21.1s42.7-10.7 56.5-21.1c13-9.8 25.3-19 50-19 2.7 0 4.8-1.8 4.8-4 .1-1.9-2-3.7-4.7-3.7zm0 62.5c-28.5 0-42.7 10.7-56.5 21.1-13 9.8-25.3 19-50 19-24.8 0-37-9.2-50-19-13.8-10.4-28.1-21.2-56.6-21.2S830 195 816.2 205.4c-13 9.8-25.3 19-50 19-24.8 0-37-9.2-50-19-13.8-10.4-28-21.1-56.5-21.1S617 195 603.2 205.4c-13 9.8-25.3 19-50 19-24.8 0-37-9.3-50-19-13.8-10.4-28-21.1-56.5-21.1S404 195 390.2 205.4c-13 9.8-25.3 19-50 19-24.8 0-37-9.2-50-19-13.8-10.4-28-21.1-56.5-21.1-2.7 0-4.8 1.8-4.8 4s2.2 4 4.8 4c24.8 0 37 9.2 50 19 13.8 10.4 28 21.1 56.5 21.1s42.7-10.7 56.5-21.1c13-9.8 25.2-19.1 50-19.1s37 9.2 50 19c13.8 10.4 28 21.1 56.5 21.1s42.7-10.7 56.5-21.1c13-9.8 25.3-19.1 50-19.1 24.8 0 37 9.2 50 19 13.8 10.4 28 21.1 56.5 21.1s42.7-10.7 56.5-21.1c13-9.8 25.3-19 50-19 24.8 0 37 9.2 50 19 13.8 10.4 28 21.1 56.5 21.1s42.7-10.7 56.5-21.1c13-9.8 25.3-19 50-19 2.7 0 4.8-1.8 4.8-4 .1-2-2-3.7-4.7-3.7zm0 62.4c-28.5 0-42.7 10.7-56.5 21.1-13 9.8-25.3 19-50 19-24.8 0-37-9.2-50-19-13.8-10.4-28.1-21.2-56.6-21.2s-42.7 10.7-56.5 21.1c-13 9.8-25.3 19-50 19-24.8 0-37-9.2-50-19-13.8-10.4-28-21.1-56.5-21.1s-42.7 10.7-56.5 21.1c-13 9.8-25.3 19-50 19-24.8 0-37-9.2-50-19-13.8-10.4-28-21.1-56.5-21.1s-42.7 10.7-56.5 21.1c-13 9.8-25.3 19-50 19-24.8 0-37-9.2-50-19-13.8-10.4-28-21.1-56.5-21.1-2.7 0-4.8 1.8-4.8 4s2.2 4 4.8 4c24.8 0 37 9.2 50 19 13.8 10.4 28 21.1 56.5 21.1s42.7-10.7 56.5-21.1c13-9.8 25.2-19.1 50-19.1s37 9.2 50 19c13.8 10.4 28 21.1 56.5 21.1s42.7-10.7 56.5-21.1c13-9.8 25.3-19.1 50-19.1 24.8 0 37 9.2 50 19 13.8 10.4 28 21.1 56.5 21.1s42.7-10.7 56.5-21.1c13-9.8 25.3-19 50-19 24.8 0 37 9.2 50 19 13.8 10.4 28 21.1 56.5 21.1s42.7-10.7 56.5-21.1c13-9.8 25.3-19 50-19 2.7 0 4.8-1.8 4.8-4 .1-1.9-2-3.7-4.7-3.7zm0 62.4c-28.5 0-42.7 10.7-56.5 21.1-13 9.8-25.3 19-50 19-24.8 0-37-9.2-50-19-13.8-10.4-28.1-21.2-56.6-21.2s-42.7 10.7-56.5 21.1c-13 9.8-25.3 19-50 19-24.8 0-37-9.2-50-19-13.8-10.4-28-21.1-56.5-21.1s-42.7 10.7-56.5 21.1c-13 9.8-25.3 19-50 19-24.8 0-37-9.3-50-19-13.8-10.4-28-21.1-56.5-21.1s-42.7 10.7-56.5 21.1c-13 9.8-25.3 19-50 19-24.8 0-37-9.2-50-19-13.8-10.4-28-21.1-56.5-21.1-2.7 0-4.8 1.8-4.8 4s2.2 4 4.8 4c24.8 0 37 9.2 50 19 13.8 10.4 28 21.1 56.5 21.1s42.7-10.7 56.5-21.1c13-9.8 25.2-19.1 50-19.1s37 9.2 50 19c13.8 10.4 28 21.1 56.5 21.1s42.7-10.7 56.5-21.1c13-9.8 25.3-19.1 50-19.1 24.8 0 37 9.2 50 19 13.8 10.4 28 21.1 56.5 21.1s42.7-10.7 56.5-21.1c13-9.8 25.3-19 50-19 24.8 0 37 9.2 50 19 13.8 10.4 28 21.1 56.5 21.1s42.7-10.7 56.5-21.1c13-9.8 25.3-19 50-19 2.7 0 4.8-1.8 4.8-4 .1-1.9-2-3.7-4.7-3.7z"/></g><path class="st2" d="M122.3 104.4c22.1 0 33.1 8.3 44.7 17 12.3 9.3 25 18.9 50.5 18.9 25.4 0 38.2-9.6 50.5-18.9 11.6-8.8 22.5-17 44.7-17 22.1 0 33.1 8.3 44.7 17 12.3 9.3 25 18.9 50.5 18.9 25.4 0 38.2-9.6 50.5-18.9 11.6-8.8 22.6-17 44.7-17s33.1 8.3 44.7 17c12.3 9.3 25 18.9 50.5 18.9 25.4 0 38.2-9.6 50.5-18.9 11.6-8.8 22.6-17 44.7-17s33.1 8.3 44.7 17c12.3 9.3 25 18.9 50.5 18.9 25.4 0 38.2-9.6 50.5-18.9 11.6-8.8 22.6-17 44.7-17 2.4 0 4.3-1.6 4.3-3.5 0-2-1.9-3.5-4.3-3.5-25.5 0-38.2 9.6-50.5 18.9-11.6 8.8-22.6 17-44.7 17s-33-8.3-44.6-17c-12.3-9.3-25.1-18.9-50.5-18.9-25.5 0-38.2 9.6-50.5 18.9-11.6 8.8-22.6 17-44.7 17s-33.1-8.3-44.7-17c-12.3-9.3-25-18.9-50.5-18.9s-38.2 9.6-50.5 18.9c-11.6 8.8-22.6 17-44.7 17s-33.1-8.3-44.7-17c-12.3-9.3-25-18.9-50.5-18.9s-38.2 9.6-50.5 18.9c-11.6 8.8-22.6 17-44.7 17s-33.1-8.3-44.7-17c-12.3-9.3-25-18.9-50.5-18.9-2.4 0-4.3 1.6-4.3 3.5-.1 1.9 1.8 3.5 4.2 3.5m761.2 48.7c-25.5 0-38.2 9.6-50.5 18.9-11.6 8.8-22.6 17-44.7 17s-33.1-8.3-44.6-17c-12.3-9.3-25.1-18.9-50.5-18.9-25.5 0-38.2 9.6-50.5 18.9-11.6 8.8-22.6 17-44.7 17s-33.1-8.3-44.7-17c-12.3-9.3-25-18.9-50.5-18.9s-38.2 9.6-50.5 18.9c-11.6 8.8-22.6 17-44.7 17s-33.1-8.3-44.7-17c-12.3-9.3-25-18.9-50.5-18.9s-38.2 9.6-50.5 18.9c-11.6 8.8-22.6 17-44.7 17s-33.1-8.3-44.7-17c-12.3-9.3-25-18.9-50.5-18.9-2.4 0-4.3 1.6-4.3 3.5 0 2 1.9 3.5 4.3 3.5 22.1 0 33.1 8.3 44.7 17 12.3 9.3 25 18.9 50.5 18.9 25.4 0 38.2-9.6 50.5-18.9 11.6-8.8 22.5-17 44.7-17 22.1 0 33.1 8.3 44.7 17 12.3 9.3 25 18.9 50.5 18.9 25.4 0 38.2-9.6 50.5-18.9 11.6-8.8 22.6-17 44.7-17s33.1 8.3 44.7 17c12.3 9.3 25 18.9 50.5 18.9 25.4 0 38.2-9.6 50.5-18.9 11.6-8.8 22.6-17 44.7-17s33.1 8.3 44.7 17c12.3 9.3 25 18.9 50.5 18.9 25.4 0 38.2-9.6 50.5-18.9 11.6-8.8 22.6-17 44.7-17 2.4 0 4.3-1.6 4.3-3.5-.1-1.9-2.1-3.5-4.4-3.5m0 55.9c-25.5 0-38.2 9.6-50.5 18.9-11.6 8.8-22.6 17-44.7 17s-33.1-8.3-44.6-17c-12.3-9.3-25.1-18.9-50.5-18.9-25.5 0-38.2 9.6-50.5 18.9-11.6 8.8-22.6 17-44.7 17s-33.1-8.3-44.7-17c-12.3-9.3-25-18.9-50.5-18.9s-38.2 9.6-50.5 18.9c-11.6 8.8-22.6 17-44.7 17s-33.1-8.3-44.7-17c-12.3-9.3-25-18.9-50.5-18.9s-38.2 9.6-50.5 18.9c-11.6 8.8-22.6 17-44.7 17s-33.1-8.3-44.7-17c-12.3-9.3-25-18.9-50.5-18.9-2.4 0-4.3 1.6-4.3 3.5 0 2 1.9 3.5 4.3 3.5 22.1 0 33.1 8.3 44.7 17 12.3 9.3 25 18.9 50.5 18.9 25.4 0 38.2-9.6 50.5-18.9 11.6-8.8 22.5-17 44.7-17 22.1 0 33.1 8.3 44.7 17 12.3 9.3 25 18.9 50.5 18.9 25.4 0 38.2-9.6 50.5-18.9 11.6-8.8 22.6-17 44.7-17s33.1 8.3 44.7 17c12.3 9.3 25 18.9 50.5 18.9 25.4 0 38.2-9.6 50.5-18.9 11.6-8.8 22.6-17 44.7-17s33.1 8.3 44.7 17c12.3 9.3 25 18.9 50.5 18.9 25.4 0 38.2-9.6 50.5-18.9 11.6-8.8 22.6-17 44.7-17 2.4 0 4.3-1.6 4.3-3.5-.1-2-2.1-3.5-4.4-3.5m0 55.8c-25.5 0-38.2 9.6-50.5 18.9-11.6 8.8-22.6 17-44.7 17s-33.1-8.2-44.6-17c-12.3-9.3-25.1-18.9-50.5-18.9-25.5 0-38.2 9.6-50.5 18.9-11.6 8.8-22.6 17-44.7 17s-33.1-8.3-44.7-17c-12.3-9.3-25-18.9-50.5-18.9s-38.2 9.6-50.5 18.9c-11.6 8.8-22.6 17-44.7 17s-33.1-8.3-44.7-17c-12.3-9.3-25-18.9-50.5-18.9s-38.2 9.6-50.5 18.9c-11.6 8.8-22.6 17-44.7 17s-33.1-8.3-44.7-17c-12.3-9.3-25-18.9-50.5-18.9-2.4 0-4.3 1.6-4.3 3.5 0 2 1.9 3.5 4.3 3.5 22.1 0 33.1 8.3 44.7 17 12.3 9.3 25 18.9 50.5 18.9 25.4 0 38.2-9.6 50.5-18.9 11.6-8.8 22.5-17 44.7-17 22.1 0 33.1 8.3 44.7 17 12.3 9.3 25 18.9 50.5 18.9 25.4 0 38.2-9.6 50.5-18.9 11.6-8.8 22.6-17 44.7-17s33.1 8.3 44.7 17c12.3 9.3 25 18.9 50.5 18.9 25.4 0 38.2-9.6 50.5-18.9 11.6-8.8 22.6-17 44.7-17s33.1 8.3 44.7 17c12.3 9.3 25 18.9 50.5 18.9 25.4 0 38.2-9.6 50.5-18.9 11.6-8.8 22.6-17 44.7-17 2.4 0 4.3-1.6 4.3-3.5-.1-1.9-2.1-3.5-4.4-3.5m0 55.8c-25.5 0-38.2 9.6-50.5 18.9-11.6 8.8-22.6 17-44.7 17s-33.1-8.3-44.6-17c-12.3-9.3-25.1-18.9-50.5-18.9-25.5 0-38.2 9.6-50.5 18.9-11.6 8.8-22.6 17-44.7 17s-33.1-8.3-44.7-17c-12.3-9.3-25-18.9-50.5-18.9s-38.2 9.6-50.5 18.9c-11.6 8.8-22.6 17-44.7 17s-33.1-8.3-44.7-17c-12.3-9.3-25-18.9-50.5-18.9s-38.2 9.6-50.5 18.9c-11.6 8.8-22.6 17-44.7 17s-33.1-8.3-44.7-17c-12.3-9.3-25-18.9-50.5-18.9-2.4 0-4.3 1.6-4.3 3.5 0 2 1.9 3.5 4.3 3.5 22.1 0 33.1 8.3 44.7 17 12.3 9.3 25 18.9 50.5 18.9 25.4 0 38.2-9.6 50.5-18.9 11.6-8.8 22.5-17 44.7-17 22.1 0 33.1 8.3 44.7 17 12.3 9.3 25 18.9 50.5 18.9 25.4 0 38.2-9.6 50.5-18.9 11.6-8.8 22.6-17 44.7-17s33.1 8.3 44.7 17c12.3 9.3 25 18.9 50.5 18.9 25.4 0 38.2-9.6 50.5-18.9 11.6-8.8 22.6-17 44.7-17s33.1 8.3 44.7 17c12.3 9.3 25 18.9 50.5 18.9 25.4 0 38.2-9.6 50.5-18.9 11.6-8.8 22.6-17 44.7-17 2.4 0 4.3-1.6 4.3-3.5-.1-1.9-2.1-3.5-4.4-3.5"/><path class="st3" d="M856.1 168.6c66.8 0 120.9 54.1 120.9 120.9 0 66.8-54.1 120.9-120.9 120.9s-120.9-54.1-120.9-120.9c0-66.8 54.1-120.9 120.9-120.9zM636.3 43.1c66.8 0 120.9 54.1 120.9 120.9 0 66.8-54.1 120.9-120.9 120.9s-121-54.1-121-120.9c0-66.8 54.2-120.9 121-120.9zm-236.9 83.6c66.8 0 120.9 54.1 120.9 120.9s-54.1 120.9-120.9 120.9-120.9-54.1-120.9-120.9 54.1-120.9 120.9-120.9zM162.1 40.8c66.8 0 120.9 54.2 120.9 121s-54.1 120.9-120.9 120.9-121-54.1-121-120.9c0-66.8 54.2-121 121-121z"/><path class="st2" d="M88.5 107.5c4.2 0 6.2 2.2 6.2 2.2l-1.4 1.8s-1.9-1.7-4.8-1.7c-3.5 0-6.3 2.8-6.3 6.7 0 4.1 2.8 6.8 6.3 6.8 3.1 0 5-2.2 5-2.2v-1.8c0-.3-.2-.5-.5-.5h-1v-2.1h2.3c1.1 0 1.6.5 1.6 1.6v7.1h-2.2v-1.8s-2 2.1-5.5 2.1c-4.7 0-8.5-3.7-8.5-9.1 0-5.1 3.8-9.1 8.8-9.1zm18.9 5c3.7 0 6.8 2.8 6.8 6.5 0 3.8-3 6.6-6.8 6.6s-6.7-2.8-6.7-6.6c0-3.7 3-6.5 6.7-6.5zm0 11.1c2.4 0 4.3-1.9 4.3-4.5s-1.9-4.5-4.3-4.5-4.3 1.9-4.3 4.5 2 4.5 4.3 4.5zm17.8-11.1c3.7 0 6.8 2.8 6.8 6.5 0 3.8-3 6.6-6.8 6.6s-6.7-2.8-6.7-6.6c-.1-3.7 2.9-6.5 6.7-6.5zm0 11.1c2.4 0 4.3-1.9 4.3-4.5s-1.9-4.5-4.3-4.5-4.3 1.9-4.3 4.5 1.9 4.5 4.3 4.5zm16.7-11.1c2.9 0 3.9 1.9 3.9 1.9v-3.9c0-.4-.2-.5-.5-.5h-1v-2.1h2.4c1.1 0 1.6.5 1.6 1.6v13.3c0 .4.2.5.5.5h1v2.1h-2.3c-1.1 0-1.5-.5-1.5-1.3v-.6s-1 2.3-4.1 2.3c-3.4 0-5.5-2.7-5.5-6.6-.2-4.1 2.2-6.7 5.5-6.7zm4 6.5c0-2.2-1.2-4.5-3.6-4.5-2 0-3.6 1.6-3.6 4.5 0 2.7 1.5 4.5 3.5 4.5 1.9.1 3.7-1.3 3.7-4.5zm17.1-8.5c-.1-.4-.4-.5-.8-.5h-.4v-2.1h1.4c1.2 0 1.9.2 2.2 1.4l2.7 11.3c.2.9.3 1.9.3 1.9s.1-.9.4-1.9l3.5-12.6h2.2l3.3 12.6c.2 1 .4 1.9.4 1.9s.1-.9.3-1.9l2.8-11.3c.3-1.2.9-1.4 2.1-1.4h1.4v2.1h-.4c-.4 0-.7.1-.8.5l-3.8 14.8H177l-3-11.1c-.3-1.1-.5-2.4-.5-2.4s-.2 1.3-.6 2.4l-3.2 11.1h-2.9l-3.8-14.8zm32.2 7h.5v-.1c0-2.2-.8-3-2.8-3-.6 0-2.1.1-2.1 1v.7h-2.3v-1.2c0-2.1 3.1-2.4 4.3-2.4 4.1 0 5.2 2.1 5.2 4.9v5.3c0 .4.2.5.5.5h1v2.1h-2.3c-1.1 0-1.6-.5-1.6-1.4v-.7s-1 2.5-4 2.5c-2.2 0-4.3-1.3-4.3-3.8.3-4.1 5.8-4.4 7.9-4.4zm-2.8 6.2c2 0 3.3-2.1 3.3-4v-.4h-.6c-1.8 0-5.1.1-5.1 2.4 0 1 .8 2 2.4 2zm12.5-9h-1.6v-1.9h1.7v-3.4h2.4v3.4h3v1.9h-3v5.8c0 2.5 1.7 2.8 2.7 2.8h.6v2.1h-.8c-1.6 0-4.8-.5-4.8-4.7v-6zm15.9-2.2c3.5 0 5.4 2.6 5.4 5.9 0 .3-.1 1-.1 1H217c.1 2.7 2.1 4.2 4.3 4.2 2.2 0 3.7-1.5 3.7-1.5l1 1.7s-1.9 1.8-4.8 1.8c-4 0-6.7-2.9-6.7-6.6 0-3.9 2.8-6.5 6.3-6.5zm3 5.1c-.1-2.1-1.4-3.2-3-3.2-1.8 0-3.3 1.1-3.7 3.2h6.7zm8.1-2.2c0-.4-.2-.5-.5-.5h-1v-2.1h2.3c1.1 0 1.6.4 1.6 1.5v1.7c.6-1.8 2-3.3 4-3.3h.6v2.4s-.3-.1-.7-.1c-1.5 0-3 1.1-3.5 3-.2.7-.3 1.5-.3 2.3v5.1H232v-10zM82.1 133.5c4.2 0 6.2 2.2 6.2 2.2l-1.4 1.8s-1.9-1.7-4.8-1.7c-3.5 0-6.3 2.8-6.3 6.7 0 4.1 2.8 6.8 6.3 6.8 3.1 0 5-2.2 5-2.2v-1.8c0-.3-.2-.5-.5-.5h-1.1v-2.1h2.3c1.1 0 1.6.5 1.6 1.6v7.1h-2.2v-1.8s-2 2.1-5.5 2.1c-4.7 0-8.5-3.7-8.5-9.1.1-5.1 3.9-9.1 8.9-9.1zm18.9 5c3.7 0 6.8 2.8 6.8 6.5 0 3.8-3 6.6-6.8 6.6s-6.7-2.8-6.7-6.6c-.1-3.8 2.9-6.5 6.7-6.5zm0 11c2.4 0 4.3-1.9 4.3-4.5s-1.9-4.5-4.3-4.5-4.3 1.9-4.3 4.5 1.9 4.5 4.3 4.5zm11.2-8.2c-.1-.4-.4-.5-.8-.5h-.2v-2.1h1.2c1.1 0 1.5.3 1.9 1.3l2.7 7.2c.2.7.4 1.6.4 1.6s.2-.9.4-1.6l2.7-7.2c.4-1 .8-1.3 1.9-1.3h1.2v2.1h-.2c-.4 0-.7.1-.8.5l-3.8 10H116l-3.8-10zm21.3-2.8c3.5 0 5.4 2.6 5.4 5.9 0 .3-.1 1-.1 1h-9.1c.1 2.7 2.1 4.2 4.3 4.2 2.2 0 3.7-1.5 3.7-1.5l1 1.7s-1.9 1.8-4.8 1.8c-4 0-6.7-2.9-6.7-6.6 0-3.9 2.7-6.5 6.3-6.5zm2.9 5.1c-.1-2.1-1.4-3.2-3-3.2-1.8 0-3.3 1.1-3.7 3.2h6.7zm8.2-2.2c0-.4-.2-.5-.5-.5h-1v-2.1h2.3c1.1 0 1.6.4 1.6 1.5v1.7c.6-1.8 2-3.3 4-3.3h.6v2.4s-.3-.1-.7-.1c-1.5 0-3 1.1-3.5 3-.2.7-.3 1.5-.3 2.3v5.1h-2.4v-10zm12.2 0c0-.4-.2-.5-.5-.5h-1v-2.1h2.3c1.1 0 1.6.5 1.6 1.4v1.2c.5-1.1 2-2.9 4.7-2.9 3 0 4.3 1.6 4.3 4.8v5.4c0 .4.2.5.5.5h1v2.1h-2.4c-1.1 0-1.6-.5-1.6-1.6v-5.9c0-1.8-.3-3.1-2.4-3.1-1.9 0-3.5 1.3-4 3.1-.2.5-.2 1.1-.2 1.7v5.9h-2.4v-10zm24.4 2.1h.5v-.1c0-2.2-.8-3-2.8-3-.6 0-2.1.1-2.1 1v.7h-2.3v-1.2c0-2.1 3.1-2.4 4.3-2.4 4.1 0 5.2 2.1 5.2 4.9v5.3c0 .4.2.5.5.5h1v2.1h-2.3c-1.1 0-1.6-.5-1.6-1.4v-.7s-1 2.5-4 2.5c-2.2 0-4.3-1.3-4.3-3.8.3-4.1 5.8-4.4 7.9-4.4zm-2.8 6.2c2 0 3.3-2.1 3.3-4v-.4h-.6c-1.8 0-5.1.1-5.1 2.4.1 1 .8 2 2.4 2zm12.4-8.3c0-.4-.2-.5-.5-.5h-1v-2.1h2.3c1.1 0 1.6.5 1.6 1.4v1.2c.5-1.1 2-2.9 4.7-2.9 3 0 4.3 1.6 4.3 4.8v5.4c0 .4.2.5.5.5h1v2.1h-2.4c-1.1 0-1.6-.5-1.6-1.6v-5.9c0-1.8-.3-3.1-2.4-3.1-1.9 0-3.5 1.3-4 3.1-.2.5-.2 1.1-.2 1.7v5.9h-2.4v-10zm23.5-2.9c1.5 0 4.5.6 4.5 2.8v1.3h-2.2v-.7c0-.9-1.4-1.3-2.3-1.3-2.5 0-4.3 1.8-4.3 4.5 0 2.9 2.1 4.5 4.4 4.5 2.4 0 3.9-1.7 3.9-1.7l1 1.7s-1.8 2.2-5.1 2.2c-3.9 0-6.7-2.8-6.7-6.6.1-3.9 2.8-6.7 6.8-6.7zm15.3 0c3.5 0 5.4 2.6 5.4 5.9 0 .3-.1 1-.1 1h-9.1c.1 2.7 2.1 4.2 4.3 4.2 2.2 0 3.7-1.5 3.7-1.5l1 1.7s-1.9 1.8-4.8 1.8c-4 0-6.7-2.9-6.7-6.6 0-3.9 2.7-6.5 6.3-6.5zm2.9 5.1c-.1-2.1-1.4-3.2-3-3.2-1.8 0-3.3 1.1-3.7 3.2h6.7zm8.5-4.8h2.5v2.6H241v-2.6zm0 10h2.5v2.6H241v-2.6zm-152.7 8.3c0-.2-.1-.3-.3-.3h-.6v-.9h1.1c.7 0 .9.3.9.9v8.6c0 .2.1.3.3.3h.6v.9h-1.1c-.7 0-.9-.3-.9-.9v-8.6zm9.3 4.8h.4v-.1c0-1.6-.6-2.2-2-2.2-.4 0-1.5.1-1.5.7v.5h-1v-.7c0-1.1 1.8-1.3 2.5-1.3 2.4 0 3 1.3 3 3v3.7c0 .2.1.3.3.3h.6v.9H99c-.7 0-.9-.3-.9-.9v-.6s-.6 1.7-2.6 1.7c-1.3 0-2.6-.8-2.6-2.3 0-2.6 3.4-2.7 4.7-2.7zm-1.9 4.1c1.5 0 2.4-1.5 2.4-2.9v-.4h-.4c-1.2 0-3.6 0-3.6 1.8-.1.7.4 1.5 1.6 1.5zm13.3-5.8c0-.2-.1-.3-.3-.3h-.7v-.9h1.1c.7 0 .9.3.9.8v.5s.6-1.5 2.7-1.5 3.4 1.7 3.4 4.1c0 2.4-1.5 4-3.5 4-1.9 0-2.5-1.5-2.5-1.5v4.4h-1v-9.6zm3.4 5.7c1.4 0 2.5-1.2 2.5-3.1 0-1.9-1-3.1-2.4-3.1-1.3 0-2.5.9-2.5 3.1 0 1.6.8 3.1 2.4 3.1zm11.1-4h.4v-.1c0-1.6-.6-2.2-2-2.2-.4 0-1.5.1-1.5.7v.5h-1v-.7c0-1.1 1.8-1.3 2.5-1.3 2.4 0 3 1.3 3 3v3.7c0 .2.1.3.3.3h.6v.9h-1.1c-.7 0-.9-.3-.9-.9v-.6s-.6 1.7-2.6 1.7c-1.3 0-2.6-.8-2.6-2.3.1-2.6 3.5-2.7 4.9-2.7zm-2 4.1c1.5 0 2.4-1.5 2.4-2.9v-.4h-.4c-1.2 0-3.6 0-3.6 1.8-.1.7.5 1.5 1.6 1.5zm7.6-5.8c0-.2-.1-.3-.3-.3h-.6v-.9h1.1c.6 0 .9.3.9.9v1.1c.4-1.2 1.2-2.1 2.4-2.1h.4v1h-.4c-1.1 0-1.9.9-2.2 2-.2.5-.2 1-.2 1.5v3.3h-1v-6.5zm7.2-.4h-1v-.9h1v-2.1h1v2.1h1.9v.9h-1.9v3.9c0 1.8 1.2 2 1.7 2h.4v.9h-.4c-.9 0-2.7-.3-2.7-2.9v-3.9zm9.5-1c2.1 0 3.2 1.6 3.2 3.6v.5h-5.9c0 1.9 1.4 3.1 3 3.1 1.4 0 2.3-1 2.3-1l.5.8s-1.1 1.1-2.9 1.1c-2.3 0-4-1.7-4-4 0-2.6 1.7-4.1 3.8-4.1zm2.2 3.2c-.1-1.6-1-2.4-2.2-2.4-1.3 0-2.4.8-2.7 2.4h4.9zm8-3.2c.9 0 2.7.4 2.7 1.6v.7h-1v-.4c0-.6-1.1-1-1.8-1-1.7 0-3 1.2-3 3.1 0 1.9 1.4 3.1 3 3.1s2.5-1.1 2.5-1.1l.5.8s-1 1.3-3 1.3c-2.3 0-4.1-1.6-4.1-4 .1-2.5 1.9-4.1 4.2-4.1zm6.4 1.4c0-.2-.1-.3-.3-.3h-.6v-.9h1.1c.7 0 .9.3.9.9v5.5c0 .2.1.3.3.3h.6v.9h-1.1c-.7 0-.9-.3-.9-.9v-5.5zm-.1-4.3h1v1.3h-1v-1.3zm5.4 4.3c0-.2-.1-.3-.3-.3h-.6v-.9h1.1c.7 0 .9.3.9.8v.5s.6-1.5 2.7-1.5 3.4 1.7 3.4 4.1c0 2.4-1.5 4-3.5 4-1.9 0-2.5-1.5-2.5-1.5v4.4h-1v-9.6zm3.5 5.7c1.4 0 2.5-1.2 2.5-3.1 0-1.9-1-3.1-2.4-3.1-1.3 0-2.5.9-2.5 3.1-.1 1.6.7 3.1 2.4 3.1zm11-4h.4v-.1c0-1.6-.6-2.2-2-2.2-.4 0-1.5.1-1.5.7v.5h-1v-.7c0-1.1 1.8-1.3 2.5-1.3 2.4 0 3 1.3 3 3v3.7c0 .2.1.3.3.3h.6v.9h-1.1c-.7 0-.9-.3-.9-.9v-.6s-.6 1.7-2.6 1.7c-1.3 0-2.6-.8-2.6-2.3.1-2.6 3.5-2.7 4.9-2.7zm-2 4.1c1.5 0 2.4-1.5 2.4-2.9v-.4h-.4c-1.2 0-3.6 0-3.6 1.8-.1.7.5 1.5 1.6 1.5zm6.9 0l4.3-5.4c.3-.4.6-.7.6-.7h-3.6c-.2 0-.3.1-.3.3v.6h-1v-.9c0-.7.3-.9.9-.9h5.4v.7l-4.3 5.4c-.3.4-.6.7-.6.7h4c.2 0 .3-.1.3-.3v-.6h1v.9c0 .7-.3.9-.9.9h-5.7v-.7zm10-5.8c0-.2-.1-.3-.3-.3h-.6v-.9h1.1c.7 0 .9.3.9.9v5.5c0 .2.1.3.3.3h.6v.9H198c-.7 0-.9-.3-.9-.9v-5.5zm-.1-4.3h1v1.3h-1v-1.3zm8.7 2.9c2.3 0 4.1 1.7 4.1 4s-1.8 4.1-4.1 4.1-4.1-1.7-4.1-4.1c.1-2.3 1.9-4 4.1-4zm.1 7.1c1.6 0 3-1.4 3-3.1 0-1.7-1.4-3.1-3-3.1-1.7 0-3 1.3-3 3.1-.1 1.8 1.3 3.1 3 3.1zm7.5-5.7c0-.2-.1-.3-.3-.3h-.6v-.9h1.1c.6 0 .9.3.9.9v1c.3-.7 1.3-1.9 3.1-1.9 1.9 0 2.6 1.1 2.6 3v3.7c0 .2.1.3.3.3h.6v.9h-1.1c-.7 0-.9-.3-.9-.9v-4c0-1.2-.2-2.3-1.7-2.3-1.3 0-2.5.9-2.8 2.2-.1.3-.1.7-.1 1v3.7h-1v-6.4zm14-1.4c2.1 0 3.2 1.6 3.2 3.6v.5h-5.9c0 1.9 1.4 3.1 3 3.1 1.4 0 2.3-1 2.3-1l.5.8s-1.1 1.1-2.9 1.1c-2.3 0-4-1.7-4-4-.1-2.6 1.7-4.1 3.8-4.1zm2.1 3.2c-.1-1.6-1-2.4-2.2-2.4-1.3 0-2.4.8-2.7 2.4h4.9zM79.1 177.3h.4v-.1c0-1.6-.6-2.2-2-2.2-.4 0-1.5.1-1.5.7v.5h-1v-.7c0-1.1 1.8-1.3 2.5-1.3 2.4 0 3 1.3 3 3v3.7c0 .2.1.3.3.3h.6v.9h-1.1c-.7 0-.9-.3-.9-.9v-.6s-.6 1.7-2.6 1.7c-1.3 0-2.6-.8-2.6-2.3.1-2.7 3.5-2.7 4.9-2.7zm-2 4c1.5 0 2.4-1.5 2.4-2.9v-.4h-.4c-1.2 0-3.6 0-3.6 1.8-.1.8.5 1.5 1.6 1.5zm7.7-6.1h-1v-.9h1v-2.1h1v2.1h1.9v.9h-1.9v3.9c0 1.8 1.2 2 1.7 2h.4v.9h-.4c-.9 0-2.7-.3-2.7-2.9v-3.9zm6.7 0h-1v-.9h1v-2.1h1v2.1h1.9v.9h-1.9v3.9c0 1.8 1.2 2 1.7 2h.4v.9h-.4c-.9 0-2.7-.3-2.7-2.9v-3.9zm6.7.3c0-.2-.1-.3-.3-.3h-.6v-.9h1.1c.7 0 .9.3.9.9v5.5c0 .2.1.3.3.3h.6v.9h-1.1c-.7 0-.9-.3-.9-.9v-5.5zm-.1-4.3h1v1.3h-1v-1.3zm4.8 4.3c-.1-.3-.3-.4-.5-.4h-.1v-.9h.4c.7 0 1 .2 1.2.8l1.9 4.8c.1.4.3.9.3.9s.1-.5.3-.9l1.9-4.8c.3-.7.5-.8 1.2-.8h.4v.9h-.1c-.3 0-.4.1-.5.4l-2.5 6.5h-1.1l-2.8-6.5zm13.9 1.8h.4v-.1c0-1.6-.6-2.2-2-2.2-.4 0-1.5.1-1.5.7v.5h-1v-.7c0-1.1 1.8-1.3 2.5-1.3 2.4 0 3 1.3 3 3v3.7c0 .2.1.3.3.3h.6v.9H118c-.7 0-.9-.3-.9-.9v-.6s-.6 1.7-2.6 1.7c-1.3 0-2.6-.8-2.6-2.3.2-2.7 3.6-2.7 4.9-2.7zm-1.9 4c1.5 0 2.4-1.5 2.4-2.9v-.4h-.4c-1.2 0-3.6 0-3.6 1.8-.2.8.4 1.5 1.6 1.5zm13.3-5.8c0-.2-.1-.3-.3-.3h-.6v-.9h1.1c.6 0 .9.3.9.9v1c.3-.7 1.3-1.9 3.1-1.9 1.9 0 2.6 1.1 2.6 3v3.7c0 .2.1.3.3.3h.6v.9h-1.1c-.7 0-.9-.3-.9-.9v-3.7c0-1.2-.2-2.3-1.7-2.3-1.3 0-2.5.9-2.8 2.2-.1.3-.1.7-.1 1v3.7h-1v-6.7zm13.9-1.4c2.1 0 3.2 1.6 3.2 3.6v.5h-5.9c0 1.9 1.4 3.1 3 3.1 1.4 0 2.3-1 2.3-1l.5.8s-1.1 1.1-2.9 1.1c-2.3 0-4-1.7-4-4 0-2.6 1.7-4.1 3.8-4.1zm2.2 3.3c-.1-1.6-1-2.4-2.2-2.4-1.3 0-2.4.8-2.7 2.4h4.9zm4.7-4.9c0-.2-.1-.3-.3-.3h-.7v-.9h1.1c.7 0 .9.3.9.9v8.6c0 .2.1.3.3.3h.6v.9h-1.1c-.7 0-.9-.3-.9-.9v-8.6zm5.3 0c0-.2-.1-.3-.3-.3h-.6v-.9h1.1c.7 0 .9.3.9.9v8.6c0 .2.1.3.3.3h.6v.9h-1.1c-.7 0-.9-.3-.9-.9v-8.6zm9.3 4.8h.4v-.1c0-1.6-.6-2.2-2-2.2-.4 0-1.5.1-1.5.7v.5h-1v-.7c0-1.1 1.8-1.3 2.5-1.3 2.4 0 3 1.3 3 3v3.7c0 .2.1.3.3.3h.6v.9h-.9c-.7 0-.9-.3-.9-.9v-.6s-.6 1.7-2.6 1.7c-1.3 0-2.6-.8-2.6-2.3-.1-2.7 3.3-2.7 4.7-2.7zm-2 4c1.5 0 2.4-1.5 2.4-2.9v-.4h-.4c-1.2 0-3.6 0-3.6 1.8-.1.8.5 1.5 1.6 1.5zm16-7.2c2.1 0 2.6 1.3 2.6 1.3v-.3c0-.6.2-.8.9-.8h1.1v.9h-.6c-.2 0-.3.1-.3.3v6.3c0 2.5-1.8 3.4-3.7 3.4-.9 0-1.8-.2-2.5-.6l.4-.9s1 .5 2.1.5c1.5 0 2.7-.7 2.7-2.4v-1.3c-.5.8-1.2 1.3-2.4 1.3-2.1 0-3.4-1.6-3.4-4s1-3.7 3.1-3.7zm2.5 3.9c0-2.3-1.1-2.9-2.4-2.9-1.5 0-2.4 1.1-2.4 2.9 0 1.8 1 3 2.5 3 1.3 0 2.3-.7 2.3-3zm8.3-3.9c2.1 0 3.2 1.6 3.2 3.6v.5h-5.9c0 1.9 1.4 3.1 3 3.1 1.4 0 2.3-1 2.3-1l.5.8s-1.1 1.1-2.9 1.1c-2.3 0-4-1.7-4-4 0-2.6 1.8-4.1 3.8-4.1zm2.2 3.3c-.1-1.6-1-2.4-2.2-2.4-1.3 0-2.4.8-2.7 2.4h4.9zm4.4 2.7s.9 1.2 2.4 1.2c.9 0 1.6-.4 1.6-1.2 0-1.7-4.3-1.4-4.3-3.9 0-1.4 1.2-2.1 2.7-2.1.8 0 2.3.3 2.3 1.4v.7h-1v-.4c0-.6-.8-.8-1.3-.8-1.1 0-1.7.4-1.7 1.1 0 1.7 4.3 1.3 4.3 3.9 0 1.3-1.2 2.2-2.7 2.2-2 0-3-1.4-3-1.4l.7-.7zm8.7-4.9h-1v-.9h1v-2.1h1v2.1h1.9v.9h-1.9v3.9c0 1.8 1.2 2 1.7 2h.4v.9h-.4c-.9 0-2.7-.3-2.7-2.9v-3.9zm6.6.3c0-.2-.1-.3-.3-.3h-.6v-.9h1.1c.7 0 .9.3.9.9v5.5c0 .2.1.3.3.3h.6v.9h-1.1c-.7 0-.9-.3-.9-.9v-5.5zm0-4.3h1v1.3h-1v-1.3zm8.7 2.9c2.3 0 4.1 1.7 4.1 4s-1.8 4.1-4.1 4.1-4.1-1.7-4.1-4.1c0-2.3 1.8-4 4.1-4zm0 7.2c1.6 0 3-1.4 3-3.1 0-1.7-1.4-3.1-3-3.1-1.7 0-3 1.3-3 3.1 0 1.7 1.3 3.1 3 3.1zm7.6-5.8c0-.2-.1-.3-.3-.3h-.6v-.9h1.1c.6 0 .9.3.9.9v1c.3-.7 1.3-1.9 3.1-1.9 1.9 0 2.6 1.1 2.6 3v3.7c0 .2.1.3.3.3h.6v.9h-1.1c-.7 0-.9-.3-.9-.9v-3.7c0-1.2-.2-2.3-1.7-2.3-1.3 0-2.5.9-2.8 2.2-.1.3-.1.7-.1 1v3.7h-1v-6.7zm13.9-1.4c2.1 0 3.2 1.6 3.2 3.6v.5h-5.9c0 1.9 1.4 3.1 3 3.1 1.4 0 2.3-1 2.3-1l.5.8s-1.1 1.1-2.9 1.1c-2.3 0-4-1.7-4-4 0-2.6 1.7-4.1 3.8-4.1zm2.2 3.3c-.1-1.6-1-2.4-2.2-2.4-1.3 0-2.4.8-2.7 2.4h4.9zM74.6 189.5c2.1 0 3.2 1.6 3.2 3.6v.5h-5.9c0 1.9 1.4 3.1 3 3.1 1.4 0 2.3-1 2.3-1l.5.8s-1.1 1.1-2.9 1.1c-2.3 0-4-1.7-4-4 0-2.6 1.8-4.1 3.8-4.1zm2.2 3.2c-.1-1.6-1-2.4-2.2-2.4-1.3 0-2.4.8-2.7 2.4h4.9zm4.7-2.2h-1v-.9h1v-.3c0-2.5 1.8-2.9 2.7-2.9h.5v.9h-.4c-.6 0-1.7.2-1.7 1.9v.3h2v.9h-2v6.8h-1v-6.7zm6.2 0h-1v-.9h1v-.3c0-2.5 1.8-2.9 2.7-2.9h.5v.9h-.4c-.6 0-1.7.2-1.7 1.9v.3h2v.9h-2v6.8h-1v-6.7zm6.3.4c0-.2-.1-.3-.3-.3H93v-.9h1.1c.7 0 .9.3.9.9v5.5c0 .2.1.3.3.3h.7v.9h-1.1c-.7 0-.9-.3-.9-.9v-5.5zm0-4.3h1v1.3h-1v-1.3zm8.7 2.9c.9 0 2.7.4 2.7 1.6v.7h-1v-.4c0-.6-1.1-1-1.8-1-1.7 0-3 1.2-3 3.1 0 1.9 1.4 3.1 3 3.1s2.5-1.1 2.5-1.1l.5.8s-1 1.3-3 1.3c-2.3 0-4.1-1.6-4.1-4 .1-2.5 1.9-4.1 4.2-4.1zm10.3 3.1h.4v-.1c0-1.6-.6-2.2-2-2.2-.4 0-1.5.1-1.5.7v.5h-1v-.7c0-1.1 1.8-1.3 2.5-1.3 2.4 0 3 1.3 3 3v3.7c0 .2.1.3.3.3h.6v.9h-1.1c-.7 0-.9-.3-.9-.9v-.6s-.6 1.7-2.6 1.7c-1.3 0-2.6-.8-2.6-2.3.1-2.6 3.5-2.7 4.9-2.7zm-2 4.1c1.5 0 2.4-1.5 2.4-2.9v-.4h-.4c-1.2 0-3.6 0-3.6 1.8-.1.7.5 1.5 1.6 1.5zm11-7.2c.9 0 2.7.4 2.7 1.6v.7h-1v-.4c0-.6-1.1-1-1.8-1-1.7 0-3 1.2-3 3.1 0 1.9 1.4 3.1 3 3.1s2.5-1.1 2.5-1.1l.5.8s-1 1.3-3 1.3c-2.3 0-4.1-1.6-4.1-4 .1-2.5 1.8-4.1 4.2-4.1zm9.3 0c2.1 0 3.2 1.6 3.2 3.6v.5h-5.9c0 1.9 1.4 3.1 3 3.1 1.4 0 2.3-1 2.3-1l.5.8s-1.1 1.1-2.9 1.1c-2.3 0-4-1.7-4-4 0-2.6 1.8-4.1 3.8-4.1zm2.2 3.2c-.1-1.6-1-2.4-2.2-2.4-1.3 0-2.4.8-2.7 2.4h4.9zm13.5-3.2c2.1 0 3.2 1.6 3.2 3.6v.5h-5.9c0 1.9 1.4 3.1 3 3.1 1.4 0 2.3-1 2.3-1l.5.8s-1.1 1.1-2.9 1.1c-2.3 0-4-1.7-4-4 0-2.6 1.7-4.1 3.8-4.1zm2.1 3.2c-.1-1.6-1-2.4-2.2-2.4-1.3 0-2.4.8-2.7 2.4h4.9zm10.2 2.8s.9 1.2 2.4 1.2c.9 0 1.6-.4 1.6-1.2 0-1.7-4.3-1.4-4.3-3.9 0-1.4 1.2-2.1 2.7-2.1.8 0 2.3.3 2.3 1.4v.7h-1v-.4c0-.6-.8-.8-1.3-.8-1.1 0-1.7.4-1.7 1.1 0 1.7 4.3 1.3 4.3 3.9 0 1.3-1.2 2.2-2.7 2.2-2 0-3-1.4-3-1.4l.7-.7zm11.9-6c2.3 0 4.1 1.7 4.1 4s-1.8 4.1-4.1 4.1-4.1-1.7-4.1-4.1c0-2.3 1.8-4 4.1-4zm0 7.1c1.6 0 3-1.4 3-3.1 0-1.7-1.4-3.1-3-3.1-1.7 0-3 1.3-3 3.1s1.3 3.1 3 3.1zm7.3-1.1s.9 1.2 2.4 1.2c.9 0 1.6-.4 1.6-1.2 0-1.7-4.3-1.4-4.3-3.9 0-1.4 1.2-2.1 2.7-2.1.8 0 2.3.3 2.3 1.4v.7h-1v-.4c0-.6-.8-.8-1.3-.8-1.1 0-1.7.4-1.7 1.1 0 1.7 4.3 1.3 4.3 3.9 0 1.3-1.2 2.2-2.7 2.2-2 0-3-1.4-3-1.4l.7-.7zm8.6-5h-1v-.9h1v-2.1h1v2.1h1.9v.9h-1.9v3.9c0 1.8 1.2 2 1.7 2h.4v.9h-.4c-.9 0-2.7-.3-2.7-2.9v-3.9zm9.5-1c2.1 0 3.2 1.6 3.2 3.6v.5h-5.9c0 1.9 1.4 3.1 3 3.1 1.4 0 2.3-1 2.3-1l.5.8s-1.1 1.1-2.9 1.1c-2.3 0-4-1.7-4-4 0-2.6 1.8-4.1 3.8-4.1zm2.2 3.2c-.1-1.6-1-2.4-2.2-2.4-1.3 0-2.4.8-2.7 2.4h4.9zm4.7-1.8c0-.2-.1-.3-.3-.3h-.6v-.9h1.1c.6 0 .9.3.9.9v1c.3-.7 1.3-1.9 3.1-1.9 1.9 0 2.6 1.1 2.6 3v3.7c0 .2.1.3.3.3h.6v.9h-1.1c-.7 0-.9-.3-.9-.9V193c0-1.2-.2-2.3-1.7-2.3-1.3 0-2.5.9-2.8 2.2-.1.3-.1.7-.1 1v3.7h-1v-6.7zm11 0c0-.2-.1-.3-.3-.3h-.6v-.9h1.1c.7 0 .9.3.9.9v5.5c0 .2.1.3.3.3h.6v.9h-1.1c-.7 0-.9-.3-.9-.9v-5.5zm-.1-4.3h1v1.3h-1v-1.3zm5.3 1.2c0-.2-.1-.3-.3-.3h-.6v-.9h1.1c.7 0 .9.3.9.9v3.4s.6-1.5 2.6-1.5c2.1 0 3.4 1.7 3.4 4.1 0 2.4-1.5 4-3.5 4-1.8 0-2.5-1.5-2.5-1.5v1.3h-1v-9.5zm3.5 8.8c1.4 0 2.5-1.2 2.5-3.1 0-1.9-1-3.1-2.4-3.1-1.3 0-2.5.9-2.5 3.1-.1 1.6.7 3.1 2.4 3.1zm7.1-5.7c0-.2-.1-.3-.3-.3h-.6v-.9h1.1c.7 0 .9.3.9.9v5.5c0 .2.1.3.3.3h.6v.9h-1.1c-.7 0-.9-.3-.9-.9v-5.5zm0-4.3h1v1.3h-1v-1.3zm5.3 1.2c0-.2-.1-.3-.3-.3h-.6v-.9h1.1c.7 0 .9.3.9.9v8.6c0 .2.1.3.3.3h.6v.9h-1.1c-.7 0-.9-.3-.9-.9v-8.6zm8.4 1.7c2.1 0 3.2 1.6 3.2 3.6v.5h-5.9c0 1.9 1.4 3.1 3 3.1 1.4 0 2.3-1 2.3-1l.5.8s-1.1 1.1-2.9 1.1c-2.3 0-4-1.7-4-4 0-2.6 1.8-4.1 3.8-4.1zm2.2 3.2c-.1-1.6-1-2.4-2.2-2.4-1.3 0-2.4.8-2.7 2.4h4.9zM79.9 204.8c1.9 0 2.5 1.4 2.5 1.4v-3.1c0-.2-.1-.3-.3-.3h-.6v-.9h1.1c.7 0 .9.3.9.9v8.6c0 .2.1.3.3.3h.6v.9h-1.1c-.6 0-.9-.3-.9-.9v-.5s-.6 1.5-2.7 1.5-3.4-1.7-3.4-4.1c.1-2.2 1.5-3.8 3.6-3.8zm2.5 4c0-1.6-.8-3.1-2.5-3.1-1.4 0-2.5 1.2-2.5 3.1 0 1.9 1 3.1 2.4 3.1 1.4.1 2.6-.9 2.6-3.1zm8.3-4c2.1 0 3.2 1.6 3.2 3.6v.5H88c0 1.9 1.4 3.1 3 3.1 1.4 0 2.3-1 2.3-1l.5.8s-1.1 1.1-2.9 1.1c-2.3 0-4-1.7-4-4 0-2.6 1.8-4.1 3.8-4.1zm2.2 3.3c-.1-1.6-1-2.4-2.2-2.4-1.3 0-2.4.8-2.7 2.4h4.9zm4.7-4.9c0-.2-.1-.3-.3-.3h-.6v-.9h1.1c.7 0 .9.3.9.9v8.6c0 .2.1.3.3.3h.6v.9h-1.1c-.7 0-.9-.3-.9-.9v-8.6zm5.3 0c0-.2-.1-.3-.3-.3h-.6v-.9h1.1c.7 0 .9.3.9.9v8.6c0 .2.1.3.3.3h.6v.9h-1.1c-.7 0-.9-.3-.9-.9v-8.6zm8.4 1.6c2.1 0 3.2 1.6 3.2 3.6v.5h-5.9c0 1.9 1.4 3.1 3 3.1 1.4 0 2.3-1 2.3-1l.5.8s-1.1 1.1-2.9 1.1c-2.3 0-4-1.7-4-4 0-2.6 1.7-4.1 3.8-4.1zm2.1 3.3c-.1-1.6-1-2.4-2.2-2.4-1.3 0-2.4.8-2.7 2.4h4.9zm10.4-1.9c0-.2-.1-.3-.3-.3h-.6v-.9h1.1c.6 0 .9.3.9.9v1.1c.4-1.2 1.2-2.1 2.4-2.1h.4v1h-.4c-1.1 0-1.9.9-2.2 2-.2.5-.2 1-.2 1.5v3.3h-1v-6.5zm7.2 0c0-.2-.1-.3-.3-.3h-.7v-.9h1.1c.7 0 .9.3.9.9v5.5c0 .2.1.3.3.3h.6v.9h-1.1c-.7 0-.9-.3-.9-.9v-5.5zm0-4.3h1v1.3h-1v-1.3zm5 8.9s.9 1.2 2.4 1.2c.9 0 1.6-.4 1.6-1.2 0-1.7-4.3-1.4-4.3-3.9 0-1.4 1.2-2.1 2.7-2.1.8 0 2.3.3 2.3 1.4v.7h-1v-.4c0-.6-.8-.8-1.3-.8-1.1 0-1.7.4-1.7 1.1 0 1.7 4.3 1.3 4.3 3.9 0 1.3-1.2 2.2-2.7 2.2-2 0-3-1.4-3-1.4l.7-.7zm12-6c2.3 0 4.1 1.7 4.1 4s-1.8 4.1-4.1 4.1-4.1-1.7-4.1-4.1c0-2.3 1.8-4 4.1-4zm0 7.2c1.6 0 3-1.4 3-3.1 0-1.7-1.4-3.1-3-3.1-1.7 0-3 1.3-3 3.1 0 1.7 1.3 3.1 3 3.1zm7.5-5.8c0-.2-.1-.3-.3-.3h-.6v-.9h1.1c.6 0 .9.3.9.9v1.1c.4-1.2 1.2-2.1 2.4-2.1h.4v1h-.4c-1.1 0-1.9.9-2.2 2-.2.5-.2 1-.2 1.5v3.3h-1v-6.5zm6.8 4.6s.9 1.2 2.4 1.2c.9 0 1.6-.4 1.6-1.2 0-1.7-4.3-1.4-4.3-3.9 0-1.4 1.2-2.1 2.7-2.1.8 0 2.3.3 2.3 1.4v.7h-1v-.4c0-.6-.8-.8-1.3-.8-1.1 0-1.7.4-1.7 1.1 0 1.7 4.3 1.3 4.3 3.9 0 1.3-1.2 2.2-2.7 2.2-2 0-3-1.4-3-1.4l.7-.7zm11.7-6c2.1 0 3.2 1.6 3.2 3.6v.5h-5.9c0 1.9 1.4 3.1 3 3.1 1.4 0 2.3-1 2.3-1l.5.8s-1.1 1.1-2.9 1.1c-2.3 0-4-1.7-4-4 0-2.6 1.7-4.1 3.8-4.1zm2.2 3.3c-.1-1.6-1-2.4-2.2-2.4-1.3 0-2.4.8-2.7 2.4h4.9zm10.4-1.9c0-.2-.1-.3-.3-.3h-.6v-.9h1.1c.7 0 .9.3.9.9v5.5c0 .2.1.3.3.3h.6v.9h-1.1c-.7 0-.9-.3-.9-.9v-5.5zm0-4.3h1v1.3h-1v-1.3zm8.1 2.9c1.9 0 2.5 1.4 2.5 1.4v-3.1c0-.2-.1-.3-.3-.3h-.6v-.9h1.1c.7 0 .9.3.9.9v8.6c0 .2.1.3.3.3h.6v.9h-1.1c-.6 0-.9-.3-.9-.9v-.5s-.6 1.5-2.7 1.5-3.4-1.7-3.4-4.1c.2-2.2 1.6-3.8 3.6-3.8zm2.6 4c0-1.6-.8-3.1-2.5-3.1-1.4 0-2.5 1.2-2.5 3.1 0 1.9 1 3.1 2.4 3.1 1.4.1 2.6-.9 2.6-3.1zm5.2-2.6c0-.2-.1-.3-.3-.3h-.6v-.9h1.1c.6 0 .9.3.9.9v1.1c.4-1.2 1.2-2.1 2.4-2.1h.4v1h-.4c-1.1 0-1.9.9-2.2 2-.2.5-.2 1-.2 1.5v3.3h-1v-6.5zm7.2 0c0-.2-.1-.3-.3-.3h-.6v-.9h1.1c.7 0 .9.3.9.9v5.5c0 .2.1.3.3.3h.6v.9h-1.1c-.7 0-.9-.3-.9-.9v-5.5zm-.1-4.3h1v1.3h-1v-1.3zm8.7 2.9c.9 0 2.7.4 2.7 1.6v.7h-1v-.4c0-.6-1.1-1-1.8-1-1.7 0-3 1.2-3 3.1 0 1.9 1.4 3.1 3 3.1s2.5-1.1 2.5-1.1l.5.8s-1 1.3-3 1.3c-2.3 0-4.1-1.6-4.1-4 .2-2.4 1.9-4.1 4.2-4.1zm6.2-1.6c0-.2-.1-.3-.3-.3h-.6v-.9h1.1c.7 0 .9.3.9.9v3.9c.3-.7 1.3-1.9 3.1-1.9 1.9 0 2.6 1.1 2.6 3v3.7c0 .2.1.3.3.3h.6v.9h-1.1c-.7 0-.9-.3-.9-.9v-3.7c0-1.2-.2-2.3-1.7-2.3-1.3 0-2.4.9-2.8 2.2-.1.3-.1.7-.1 1v3.7h-1v-9.6zm14 1.6c2.1 0 3.2 1.6 3.2 3.6v.5h-5.9c0 1.9 1.4 3.1 3 3.1 1.4 0 2.3-1 2.3-1l.5.8s-1.1 1.1-2.9 1.1c-2.3 0-4-1.7-4-4 0-2.6 1.7-4.1 3.8-4.1zm2.1 3.3c-.1-1.6-1-2.4-2.2-2.4-1.3 0-2.4.8-2.7 2.4h4.9zm-102.5 10.4c0-.2-.1-.3-.3-.3h-.6v-.9h1.1c.7 0 .9.3.9.9v8.6c0 .2.1.3.3.3h.6v.9H139c-.7 0-.9-.3-.9-.9v-8.6zm8.7 1.7c2.3 0 4.1 1.7 4.1 4s-1.8 4.1-4.1 4.1-4.1-1.7-4.1-4.1c0-2.3 1.8-4 4.1-4zm0 7.1c1.6 0 3-1.4 3-3.1 0-1.7-1.4-3.1-3-3.1-1.7 0-3 1.3-3 3.1s1.3 3.1 3 3.1zm10.9-7.1c.9 0 2.7.4 2.7 1.6v.7h-1v-.5c0-.6-1.1-1-1.8-1-1.7 0-3 1.2-3 3.1 0 1.9 1.4 3.1 3 3.1s2.5-1.1 2.5-1.1l.5.8s-1 1.3-3 1.3c-2.3 0-4.1-1.6-4.1-4 .1-2.4 1.9-4 4.2-4zm10.3 3.1h.4v-.1c0-1.6-.6-2.2-2-2.2-.4 0-1.5.1-1.5.7v.5h-1v-.7c0-1.1 1.8-1.3 2.5-1.3 2.4 0 3 1.3 3 3v3.7c0 .2.1.3.3.3h.6v.9h-1.1c-.7 0-.9-.3-.9-.9v-.6s-.6 1.7-2.6 1.7c-1.3 0-2.6-.8-2.6-2.3.2-2.6 3.5-2.7 4.9-2.7zm-2 4.1c1.5 0 2.4-1.5 2.4-2.9v-.4h-.4c-1.2 0-3.6 0-3.6 1.8-.1.7.5 1.5 1.6 1.5zm7.6-8.9c0-.2-.1-.3-.3-.3h-.6v-.9h1.1c.7 0 .9.3.9.9v8.6c0 .2.1.3.3.3h.6v.9h-1.1c-.7 0-.9-.3-.9-.9v-8.6zm5.4 3.1c0-.2-.1-.3-.3-.3h-.7v-.9h1.1c.7 0 .9.3.9.9v5.5c0 .2.1.3.3.3h.6v.9h-1.1c-.7 0-.9-.3-.9-.9v-5.5zm0-4.3h1v1.3h-1v-1.3zm167.5-52.1h-1.6v-2.1h7.5c2.9 0 5.1 1.6 5.1 4.5 0 1.9-1 3.2-2.2 3.8 1.9.5 2.9 2.3 2.9 4.2 0 3.3-2.5 5-5.6 5h-4.4c-1.1 0-1.6-.5-1.6-1.6v-13.8zm5.9 5.2c1.5 0 2.5-1.1 2.5-2.6s-.9-2.6-2.6-2.6H349v5.2h3.4zm-2.9 8h3.1c1.9 0 2.9-1.2 2.9-3s-1.2-3-2.9-3H349v5.4c0 .4.2.6.5.6zm14.4-7.8c0-.4-.2-.5-.5-.5h-1V168h2.3c1.1 0 1.6.5 1.6 1.6v8.3c0 .4.2.5.5.5h1v2.1h-2.3c-1.1 0-1.6-.5-1.6-1.6v-8.3zm.1-7.5h2.2v2.5H364v-2.5zm9 2.6c0-.4-.2-.5-.5-.5h-1v-2.1h2.4c1.1 0 1.6.5 1.6 1.6V178c0 .4.2.5.5.5h1v2.1h-2.4c-1.1 0-1.6-.5-1.6-1.6v-13.3zm15.5 7.1h.5v-.1c0-2.2-.8-3-2.8-3-.6 0-2.1.1-2.1 1v.7H382v-1.2c0-2.1 3.1-2.3 4.3-2.3 4.1 0 5.1 2.1 5.1 4.9v5.3c0 .4.2.5.5.5h1v2.1h-2.3c-1.1 0-1.6-.5-1.6-1.4v-.7s-1 2.5-4 2.5c-2.2 0-4.3-1.3-4.3-3.8.3-4.3 5.7-4.5 7.8-4.5zm-2.7 6.1c2 0 3.3-2.1 3.3-4v-.4h-.6c-1.8 0-5.1.1-5.1 2.4 0 1 .8 2 2.4 2zm12.3-8.3c0-.4-.2-.5-.5-.5h-1V168h2.3c1.1 0 1.6.5 1.6 1.4v1.2c.5-1.1 2-2.9 4.7-2.9 3 0 4.3 1.6 4.3 4.8v5.4c0 .4.2.5.5.5h1v2.1h-2.4c-1.1 0-1.6-.5-1.6-1.6V173c0-1.8-.3-3.1-2.3-3.1-1.9 0-3.5 1.3-4 3.1-.2.5-.2 1.1-.2 1.7v5.9h-2.4v-10zm23.5-2.8c1.5 0 4.5.6 4.5 2.7v1.3h-2.2v-.7c0-.9-1.4-1.3-2.3-1.3-2.4 0-4.3 1.8-4.3 4.5 0 2.8 2.1 4.5 4.4 4.5 2.3 0 3.9-1.7 3.9-1.7l1 1.7s-1.8 2.2-5.1 2.2c-3.9 0-6.7-2.8-6.7-6.6.1-3.8 2.8-6.6 6.8-6.6zm10.3 2.8c0-.4-.2-.5-.5-.5h-1V168h2.3c1.1 0 1.6.5 1.6 1.6v8.3c0 .4.2.5.5.5h1v2.1h-2.3c-1.1 0-1.6-.5-1.6-1.6v-8.3zm0-7.5h2.2v2.5h-2.2v-2.5zm14.6 4.7c3.7 0 6.8 2.7 6.8 6.5s-3 6.6-6.8 6.6c-3.7 0-6.7-2.8-6.7-6.6s3-6.5 6.7-6.5zm0 11c2.4 0 4.3-1.9 4.3-4.5s-1.9-4.5-4.3-4.5c-2.3 0-4.3 1.9-4.3 4.5s2 4.5 4.3 4.5zm-84.7 17.8c0-.4-.2-.5-.5-.5h-1V194h2.3c1.1 0 1.6.5 1.6 1.6v8.3c0 .4.2.5.5.5h1v2.1h-2.3c-1.1 0-1.6-.5-1.6-1.6v-8.3zm.1-7.6h2.2v2.5h-2.2V189zm13.5 4.7c2.9 0 3.9 1.9 3.9 1.9v-3.9c0-.4-.2-.5-.5-.5h-1V189h2.4c1.1 0 1.6.5 1.6 1.6v13.3c0 .4.2.5.5.5h1v2.1H381c-1.1 0-1.5-.5-1.5-1.3v-.6s-1 2.3-4.1 2.3c-3.4 0-5.5-2.7-5.5-6.6-.1-4.1 2.2-6.6 5.5-6.6zm4 6.5c0-2.2-1.2-4.5-3.6-4.5-2 0-3.6 1.6-3.6 4.5 0 2.7 1.5 4.5 3.5 4.5 1.9 0 3.7-1.3 3.7-4.5zm9-3.6c0-.4-.2-.5-.5-.5h-1V194h2.3c1.1 0 1.6.4 1.6 1.5v1.7c.6-1.8 2-3.3 4-3.3h.6v2.4s-.3-.1-.7-.1c-1.5 0-2.9 1.1-3.5 2.9-.2.7-.3 1.5-.3 2.3v5.1h-2.4v-9.9zm12.2 0c0-.4-.2-.5-.5-.5h-1V194h2.3c1.1 0 1.6.5 1.6 1.6v8.3c0 .4.2.5.5.5h1v2.1h-2.3c-1.1 0-1.6-.5-1.6-1.6v-8.3zm0-7.6h2.2v2.5h-2.2V189zm14.6 4.7c1.5 0 4.5.6 4.5 2.7v1.3h-2.2v-.7c0-.9-1.4-1.3-2.3-1.3-2.4 0-4.3 1.8-4.3 4.5 0 2.8 2.1 4.5 4.4 4.5 2.3 0 3.9-1.7 3.9-1.7l1 1.7s-1.8 2.2-5.1 2.2c-3.9 0-6.7-2.8-6.7-6.6.1-3.8 2.8-6.6 6.8-6.6zm15.7 0c3.7 0 6.8 2.7 6.8 6.5s-3 6.6-6.8 6.6c-3.7 0-6.7-2.8-6.7-6.6s3-6.5 6.7-6.5zm0 11c2.4 0 4.3-1.9 4.3-4.5s-1.9-4.5-4.3-4.5c-2.3 0-4.3 1.9-4.3 4.5s2 4.5 4.3 4.5zm-109.2 24.2s1.5 1.9 3.8 1.9c1.2 0 2.2-.5 2.2-1.6 0-2.3-6.8-2-6.8-6 0-2.4 2.1-3.5 4.7-3.5 1.5 0 4.1.5 4.1 2.4v1.2h-2.2v-.6c0-.7-1.1-1.1-1.9-1.1-1.4 0-2.3.5-2.3 1.5 0 2.4 6.8 1.9 6.8 6 0 2.2-2 3.7-4.6 3.7-3.3 0-5-2.2-5-2.2l1.2-1.7zm19.4-9.3c3.7 0 6.8 2.7 6.8 6.5s-3 6.6-6.8 6.6c-3.7 0-6.7-2.8-6.7-6.6s3-6.5 6.7-6.5zm0 11c2.4 0 4.3-1.9 4.3-4.5s-1.9-4.5-4.3-4.5c-2.3 0-4.3 1.9-4.3 4.5s2 4.5 4.3 4.5zm12-1.7s1.5 1.9 3.8 1.9c1.2 0 2.2-.5 2.2-1.6 0-2.3-6.8-2-6.8-6 0-2.4 2.1-3.5 4.7-3.5 1.5 0 4.1.5 4.1 2.4v1.2h-2.2v-.6c0-.7-1.1-1.1-1.9-1.1-1.4 0-2.3.5-2.3 1.5 0 2.4 6.8 1.9 6.8 6 0 2.2-2 3.7-4.6 3.7-3.3 0-5-2.2-5-2.2l1.2-1.7zm14-7.1h-1.6v-1.9h1.7v-3.4h2.3v3.4h3v1.9h-3v5.7c0 2.5 1.7 2.8 2.6 2.8h.6v2.1h-.8c-1.6 0-4.8-.5-4.8-4.7v-5.9zm16-2.2c3.5 0 5.4 2.6 5.4 5.9 0 .3-.1 1-.1 1h-9.1c.1 2.7 2.1 4.2 4.3 4.2 2.2 0 3.7-1.5 3.7-1.5l1 1.7s-1.9 1.8-4.8 1.8c-4 0-6.7-2.8-6.7-6.6 0-4 2.7-6.5 6.3-6.5zm2.9 5.1c-.1-2.1-1.4-3.2-2.9-3.2-1.8 0-3.3 1.1-3.7 3.2h6.6zm8.1-2.2c0-.4-.2-.5-.5-.5h-1v-2.1h2.3c1.1 0 1.6.5 1.6 1.4v1.2c.5-1.1 2-2.9 4.7-2.9 3 0 4.3 1.6 4.3 4.8v5.4c0 .4.2.5.5.5h1v2.1h-2.4c-1.1 0-1.6-.5-1.6-1.6v-5.9c0-1.8-.3-3.1-2.3-3.1-1.9 0-3.5 1.3-4 3.1-.2.5-.2 1.1-.2 1.7v5.9h-2.4v-10zm18.1 0c0-.4-.2-.5-.5-.5h-1v-2.1h2.3c1.1 0 1.6.5 1.6 1.6v8.3c0 .4.2.5.5.5h1v2.1h-2.3c-1.1 0-1.6-.5-1.6-1.6v-8.3zm.1-7.6h2.2v2.5h-2.2v-2.5zm9 2.6c0-.4-.2-.5-.5-.5h-1v-2.1h2.4c1.1 0 1.6.5 1.6 1.6v5.1s1.1-2.1 4-2.1c3.4 0 5.5 2.7 5.5 6.6 0 4-2.4 6.6-5.7 6.6-2.8 0-3.9-2.1-3.9-2.1v1.8h-2.3v-14.9zm5.8 13.1c2 0 3.6-1.6 3.6-4.5 0-2.7-1.5-4.5-3.6-4.5-1.9 0-3.6 1.3-3.6 4.5.1 2.3 1.3 4.5 3.6 4.5zm11.7-8.1c0-.4-.2-.5-.5-.5h-1v-2.1h2.3c1.1 0 1.6.5 1.6 1.6v8.3c0 .4.2.5.5.5h1v2.1h-2.3c-1.1 0-1.6-.5-1.6-1.6v-8.3zm0-7.6h2.2v2.5h-2.2v-2.5zm9.1 2.6c0-.4-.2-.5-.5-.5h-1v-2.1h2.4c1.1 0 1.6.5 1.6 1.6v13.3c0 .4.2.5.5.5h1v2.1h-2.4c-1.1 0-1.6-.5-1.6-1.6v-13.3zm14.2 2.1c3.5 0 5.4 2.6 5.4 5.9 0 .3-.1 1-.1 1h-9.1c.1 2.7 2.1 4.2 4.3 4.2 2.2 0 3.7-1.5 3.7-1.5l1 1.7s-1.9 1.8-4.8 1.8c-4 0-6.7-2.8-6.7-6.6 0-4 2.8-6.5 6.3-6.5zm2.9 5.1c-.1-2.1-1.4-3.2-2.9-3.2-1.8 0-3.3 1.1-3.7 3.2h6.6zm8.5-4.8h2.4v2.5h-2.4v-2.5zm0 9.9h2.4v2.5h-2.4v-2.5zm-162.9 10c2.1 0 2.6 1.3 2.6 1.3v-.3c0-.6.2-.8.9-.8h1.1v.9h-.6c-.2 0-.3.1-.3.3v6.3c0 2.5-1.8 3.4-3.7 3.4-.9 0-1.8-.2-2.5-.6l.4-.9s.9.5 2.1.5c1.5 0 2.7-.7 2.7-2.4v-1.3c-.5.8-1.2 1.3-2.4 1.3-2.1 0-3.4-1.6-3.4-4s1-3.7 3.1-3.7zm2.5 3.9c0-2.3-1.1-2.9-2.4-2.9-1.5 0-2.4 1.1-2.4 2.9 0 1.8 1 3 2.5 3 1.3 0 2.3-.7 2.3-3zm8.3-3.9c2.1 0 3.2 1.6 3.2 3.6v.5h-5.9c0 1.9 1.4 3.1 3 3.1 1.4 0 2.3-.9 2.3-.9l.5.8s-1.1 1.1-2.9 1.1c-2.3 0-4-1.7-4-4 0-2.7 1.7-4.2 3.8-4.2zm2.2 3.3c-.1-1.6-1-2.4-2.2-2.4-1.3 0-2.4.8-2.6 2.4h4.8zm4.4 2.7s.9 1.2 2.4 1.2c.9 0 1.6-.4 1.6-1.2 0-1.7-4.3-1.4-4.3-3.9 0-1.4 1.2-2.1 2.7-2.1.8 0 2.3.3 2.3 1.4v.7h-1v-.4c0-.6-.8-.8-1.3-.8-1.1 0-1.7.4-1.7 1.1 0 1.7 4.3 1.3 4.3 3.9 0 1.3-1.2 2.2-2.7 2.2-2 0-3-1.3-3-1.3l.7-.8zm8.6-4.9h-1v-.9h1v-2.1h1v2.1h1.9v.9h-1.9v3.9c0 1.8 1.1 2 1.7 2h.4v.9h-.4c-.9 0-2.7-.3-2.7-2.9v-3.9zm6.7.3c0-.2-.1-.3-.3-.3h-.6v-.9h1.1c.7 0 .9.3.9.9v5.5c0 .2.1.3.3.3h.6v.9h-1.1c-.7 0-.9-.3-.9-.9v-5.5zm-.1-4.3h1v1.3h-1v-1.3zm8.7 2.9c2.3 0 4.1 1.7 4.1 4s-1.8 4.1-4.1 4.1-4.1-1.7-4.1-4.1c0-2.3 1.9-4 4.1-4zm0 7.2c1.6 0 3-1.3 3-3.1 0-1.7-1.3-3-3-3s-3 1.3-3 3 1.4 3.1 3 3.1zm7.6-5.8c0-.2-.1-.3-.3-.3h-.6v-.9h1.1c.6 0 .9.3.9.9v1c.3-.7 1.3-1.9 3.1-1.9 1.9 0 2.6 1.1 2.6 3v3.7c0 .2.1.3.3.3h.6v.9H366c-.7 0-.9-.3-.9-.9v-3.7c0-1.2-.2-2.3-1.7-2.3-1.3 0-2.4.9-2.8 2.2-.1.3-.1.7-.1 1v3.7h-1v-6.7zm13.9-1.4c2.1 0 3.2 1.6 3.2 3.6v.5h-5.9c0 1.9 1.4 3.1 3 3.1 1.4 0 2.3-.9 2.3-.9l.5.8s-1.1 1.1-2.9 1.1c-2.3 0-4-1.7-4-4 0-2.7 1.7-4.2 3.8-4.2zm2.1 3.3c-.1-1.6-1-2.4-2.2-2.4-1.3 0-2.4.8-2.6 2.4h4.8zm13.2-3.3c1.9 0 2.5 1.4 2.5 1.4v-3.1c0-.2-.1-.3-.3-.3h-.6v-.9h1.1c.7 0 .9.3.9.9v8.6c0 .2.1.3.3.3h.6v.9h-1.1c-.6 0-.9-.3-.9-.9v-.5s-.6 1.5-2.6 1.5c-2.1 0-3.4-1.7-3.4-4s1.5-3.9 3.5-3.9zm2.5 4c0-1.6-.8-3.1-2.5-3.1-1.4 0-2.5 1.1-2.5 3.1 0 1.9 1 3.1 2.4 3.1 1.4.1 2.6-.9 2.6-3.1zm8.3-4c2.1 0 3.2 1.6 3.2 3.6v.5h-5.9c0 1.9 1.4 3.1 3 3.1 1.4 0 2.3-.9 2.3-.9l.5.8s-1.1 1.1-2.9 1.1c-2.3 0-4-1.7-4-4 0-2.7 1.8-4.2 3.8-4.2zm2.2 3.3c-.1-1.6-1-2.4-2.2-2.4-1.3 0-2.4.8-2.6 2.4h4.8zm4.7-4.9c0-.2-.1-.3-.3-.3h-.6v-.9h1.1c.7 0 .9.3.9.9v8.6c0 .2.1.3.3.3h.6v.9h-1.1c-.7 0-.9-.3-.9-.9v-8.6zm14.3 1.6c.9 0 2.7.4 2.7 1.6v.7h-1v-.4c0-.6-1.1-.9-1.8-.9-1.7 0-3 1.2-3 3.1 0 1.9 1.4 3.1 3 3.1s2.5-1.1 2.5-1.1l.5.8s-1 1.3-3 1.3c-2.3 0-4-1.6-4-4 0-2.5 1.8-4.2 4.1-4.2zm9.6 0c2.3 0 4.1 1.7 4.1 4s-1.8 4.1-4.1 4.1-4.1-1.7-4.1-4.1c0-2.3 1.9-4 4.1-4zm0 7.2c1.6 0 3-1.3 3-3.1 0-1.7-1.3-3-3-3s-3 1.3-3 3 1.4 3.1 3 3.1zm7.6-5.8c0-.2-.1-.3-.3-.3h-.6v-.9h1.1c.6 0 .9.3.9.9v1c.3-.7 1.3-1.9 3.1-1.9 1.9 0 2.6 1.1 2.6 3v3.7c0 .2.1.3.3.3h.6v.9h-1.1c-.7 0-.9-.3-.9-.9v-3.7c0-1.2-.2-2.3-1.7-2.3-1.3 0-2.4.9-2.8 2.2-.1.3-.1.7-.1 1v3.7h-1v-6.7zm10.5 4.6s.9 1.2 2.4 1.2c.9 0 1.6-.4 1.6-1.2 0-1.7-4.3-1.4-4.3-3.9 0-1.4 1.2-2.1 2.7-2.1.8 0 2.3.3 2.3 1.4v.7h-1v-.4c0-.6-.8-.8-1.3-.8-1.1 0-1.7.4-1.7 1.1 0 1.7 4.3 1.3 4.3 3.9 0 1.3-1.2 2.2-2.7 2.2-2 0-3-1.3-3-1.3l.7-.8zm8.5-4.6c0-.2-.1-.3-.3-.3h-.6v-.9h1.1c.7 0 .9.3.9.9v3.7c0 1.2.2 2.3 1.7 2.3 1.7 0 2.8-1.5 2.8-3.2V240h1v6.5c0 .2.1.3.3.3h.6v.9h-1.1c-.6 0-.9-.3-.9-.9v-1c-.3.8-1.3 1.9-3 1.9-1.8 0-2.6-1-2.6-3v-3.5zm10.8 0c0-.2-.1-.3-.3-.3h-.6v-.9h1.1c.6 0 .9.3.9.9v1c.4-1 1.6-1.9 2.8-1.9 1.4 0 2.2.7 2.4 1.9.4-1 1.5-1.9 2.8-1.9 1.9 0 2.6 1.1 2.6 3v3.7c0 .2.1.3.3.3h.6v.9h-1.1c-.7 0-.9-.3-.9-.9v-3.7c0-1.3-.3-2.3-1.7-2.3-1.2 0-2.1 1-2.4 2.2-.1.3-.1.7-.1 1.1v3.6h-1v-4.6c0-1.2-.2-2.3-1.6-2.3-1.3 0-2.2 1.1-2.5 2.3-.1.3-.1.7-.1 1v3.6h-1v-6.7zm19.1-1.4c2.3 0 4.1 1.7 4.1 4s-1.8 4.1-4.1 4.1-4.1-1.7-4.1-4.1c.1-2.3 1.9-4 4.1-4zm.1 7.2c1.6 0 3-1.3 3-3.1 0-1.7-1.3-3-3-3s-3 1.3-3 3 1.3 3.1 3 3.1zm-167.4 9.6c0-.2-.1-.3-.3-.3h-.6v-.9h1.1c.7 0 .9.3.9.9v5.5c0 .2.1.3.3.3h.6v.9h-1.1c-.7 0-.9-.3-.9-.9v-5.5zm-.1-4.3h1v1.3h-1v-1.3zm8.1 2.8c1.9 0 2.5 1.4 2.5 1.4v-3.1c0-.2-.1-.3-.3-.3h-.6v-.9h1.1c.7 0 .9.3.9.9v8.6c0 .2.1.3.3.3h.6v.9h-1c-.6 0-.9-.3-.9-.9v-.5s-.6 1.5-2.6 1.5c-2.1 0-3.4-1.7-3.4-4s1.4-3.9 3.4-3.9zm2.6 4.1c0-1.6-.8-3.1-2.5-3.1-1.4 0-2.5 1.1-2.5 3.1 0 1.9 1 3.1 2.4 3.1s2.6-1 2.6-3.1zm5.2-2.6c0-.2-.1-.3-.3-.3h-.6v-.9h1.1c.6 0 .9.3.9.9v1.1c.4-1.2 1.2-2.1 2.4-2.1h.4v1h-.4c-1.1 0-1.9.9-2.2 2-.2.5-.2 1-.2 1.5v3.2h-1v-6.4zm7.1 0c0-.2-.1-.3-.3-.3h-.6v-.9h1.1c.7 0 .9.3.9.9v5.5c0 .2.1.3.3.3h.6v.9h-1.1c-.7 0-.9-.3-.9-.9v-5.5zm0-4.3h1v1.3h-1v-1.3zm8.7 2.8c.9 0 2.7.4 2.7 1.6v.7h-1v-.4c0-.6-1.1-.9-1.8-.9-1.7 0-3 1.2-3 3.1 0 1.9 1.4 3.1 3 3.1s2.5-1.1 2.5-1.1l.5.8s-1 1.3-3 1.3c-2.3 0-4-1.6-4-4 0-2.5 1.8-4.2 4.1-4.2zm9.6 0c2.3 0 4.1 1.7 4.1 4s-1.8 4.1-4.1 4.1-4.1-1.7-4.1-4.1c0-2.3 1.9-4 4.1-4zm0 7.2c1.6 0 3-1.3 3-3.1 0-1.7-1.3-3-3-3s-3 1.3-3 3 1.4 3.1 3 3.1zm13.2-5.7c0-.2-.1-.3-.3-.3h-.6v-.9h1.1c.7 0 .9.3.9.8v.5s.6-1.5 2.6-1.5c2.1 0 3.4 1.7 3.4 4 0 2.4-1.5 4-3.4 4s-2.5-1.5-2.5-1.5v4.4h-1v-9.5zm3.5 5.7c1.4 0 2.5-1.1 2.5-3.1 0-1.9-1-3.1-2.4-3.1-1.3 0-2.5.9-2.5 3.1 0 1.5.8 3.1 2.4 3.1zm10.1-7.2c2.1 0 3.2 1.6 3.2 3.6v.5h-5.9c0 1.9 1.4 3.1 3 3.1 1.4 0 2.3-.9 2.3-.9l.5.8s-1.1 1.1-2.9 1.1c-2.3 0-4-1.7-4-4 0-2.7 1.8-4.2 3.8-4.2zm2.2 3.3c-.1-1.6-1-2.4-2.2-2.4-1.3 0-2.4.8-2.6 2.4h4.8zm4.7-1.8c0-.2-.1-.3-.3-.3h-.6v-.9h1.1c.6 0 .9.3.9.9v1.1c.4-1.2 1.2-2.1 2.4-2.1h.4v1h-.4c-1.1 0-1.9.9-2.2 2-.2.5-.2 1-.2 1.5v3.2h-1v-6.4zm15.4-1.5c2.1 0 2.6 1.3 2.6 1.3v-.3c0-.6.2-.8.9-.8h1.1v.9h-.6c-.2 0-.3.1-.3.3v6.3c0 2.5-1.8 3.4-3.7 3.4-.9 0-1.8-.2-2.5-.6l.4-.9s.9.5 2.1.5c1.5 0 2.7-.7 2.7-2.4v-1.3c-.5.8-1.2 1.3-2.4 1.3-2.1 0-3.4-1.6-3.4-4s1-3.7 3.1-3.7zm2.5 3.9c0-2.3-1.1-2.9-2.4-2.9-1.5 0-2.4 1.1-2.4 2.9 0 1.8 1 3 2.5 3 1.3 0 2.3-.7 2.3-3zm9.2-.7h.4v-.1c0-1.6-.6-2.2-2-2.2-.4 0-1.5.1-1.5.7v.5h-1v-.7c0-1.1 1.8-1.3 2.5-1.3 2.4 0 3 1.3 3 3v3.7c0 .2.1.3.3.3h.6v.9h-1.1c-.7 0-.9-.3-.9-.9v-.6s-.6 1.7-2.6 1.7c-1.3 0-2.6-.8-2.6-2.3.2-2.6 3.6-2.7 4.9-2.7zm-1.9 4c1.5 0 2.4-1.5 2.4-2.9v-.4h-.4c-1.2 0-3.6 0-3.6 1.8-.1.8.5 1.5 1.6 1.5zm7.6-5.7c0-.2-.1-.3-.3-.3h-.6v-.9h1.1c.6 0 .9.3.9.9v1.1c.4-1.2 1.2-2.1 2.4-2.1h.4v1h-.4c-1.1 0-1.9.9-2.2 2-.2.5-.2 1-.2 1.5v3.2h-1v-6.4zm10.6 1.7h.4v-.1c0-1.6-.6-2.2-2-2.2-.4 0-1.5.1-1.5.7v.5h-1v-.7c0-1.1 1.8-1.3 2.5-1.3 2.4 0 3 1.3 3 3v3.7c0 .2.1.3.3.3h.6v.9H439c-.7 0-.9-.3-.9-.9v-.6s-.6 1.7-2.6 1.7c-1.3 0-2.6-.8-2.6-2.3.1-2.6 3.5-2.7 4.9-2.7zm-2 4c1.5 0 2.4-1.5 2.4-2.9v-.4h-.4c-1.2 0-3.6 0-3.6 1.8-.1.8.5 1.5 1.6 1.5zm7.6-5.7c0-.2-.1-.3-.3-.3h-.6v-.9h1.1c.6 0 .9.3.9.9v1c.3-.7 1.3-1.9 3.1-1.9 1.9 0 2.6 1.1 2.6 3v3.7c0 .2.1.3.3.3h.6v.9H450c-.7 0-.9-.3-.9-.9v-3.7c0-1.2-.2-2.3-1.7-2.3-1.3 0-2.4.9-2.8 2.2-.1.3-.1.7-.1 1v3.7h-1v-6.7zm10.9-.4h-1v-.9h1v-2.1h1v2.1h1.9v.9h-1.9v3.9c0 1.8 1.1 2 1.7 2h.4v.9h-.4c-.9 0-2.7-.3-2.7-2.9v-3.9zm6.7.4c0-.2-.1-.3-.3-.3h-.7v-.9h1.1c.7 0 .9.3.9.9v5.5c0 .2.1.3.3.3h.6v.9h-1.1c-.7 0-.9-.3-.9-.9v-5.5zm-.1-4.3h1v1.3h-1v-1.3zm5.4 4.3c0-.2-.1-.3-.3-.3h-.6v-.9h1.1c.6 0 .9.3.9.9v1.1c.4-1.2 1.2-2.1 2.4-2.1h.4v1h-.4c-1.1 0-1.9.9-2.2 2-.2.5-.2 1-.2 1.5v3.2h-1v-6.4zm9.8-1.5c2.1 0 3.2 1.6 3.2 3.6v.5h-5.9c0 1.9 1.4 3.1 3 3.1 1.4 0 2.3-.9 2.3-.9l.5.8s-1.1 1.1-2.9 1.1c-2.3 0-4-1.7-4-4 0-2.7 1.7-4.2 3.8-4.2zm2.2 3.3c-.1-1.6-1-2.4-2.2-2.4-1.3 0-2.4.8-2.6 2.4h4.8zm-175.8 12c.9 0 2.7.4 2.7 1.6v.7h-1v-.4c0-.6-1.1-.9-1.8-.9-1.7 0-3 1.2-3 3.1 0 1.9 1.4 3.1 3 3.1s2.5-1.1 2.5-1.1l.5.8s-1 1.3-3 1.3c-2.3 0-4-1.6-4-4 0-2.5 1.8-4.2 4.1-4.2zm6.2-1.6c0-.2-.1-.3-.3-.3h-.6v-.9h1.1c.7 0 .9.3.9.9v3.9c.3-.7 1.3-1.9 3-1.9 1.9 0 2.6 1.1 2.6 3v3.7c0 .2.1.3.3.3h.6v.9h-1.1c-.7 0-.9-.3-.9-.9v-3.7c0-1.2-.2-2.3-1.7-2.3-1.3 0-2.4.9-2.8 2.2-.1.3-.1.7-.1 1v3.7h-1v-9.6zm13.9 1.6c2.1 0 3.2 1.6 3.2 3.6v.5h-5.9c0 1.9 1.4 3.1 3 3.1 1.4 0 2.3-.9 2.3-.9l.5.8s-1.1 1.1-2.9 1.1c-2.3 0-4-1.7-4-4 0-2.6 1.7-4.2 3.8-4.2zm2.1 3.3c-.1-1.6-1-2.4-2.2-2.4-1.3 0-2.4.8-2.6 2.4h4.8zm10.4-4.9c0-.2-.1-.3-.3-.3h-.6v-.9h1.1c.7 0 .9.3.9.9v8.6c0 .2.1.3.3.3h.6v.9H336c-.7 0-.9-.3-.9-.9v-8.6zm9.3 4.8h.4v-.1c0-1.6-.6-2.2-2-2.2-.4 0-1.5.1-1.5.7v.5h-1v-.7c0-1.1 1.8-1.3 2.5-1.3 2.4 0 3 1.3 3 3v3.7c0 .2.1.3.3.3h.6v.9h-1.1c-.7 0-.9-.3-.9-.9v-.6s-.6 1.7-2.6 1.7c-1.3 0-2.6-.8-2.6-2.3.2-2.6 3.6-2.7 4.9-2.7zm-1.9 4c1.5 0 2.4-1.5 2.4-2.9v-.4h-.4c-1.2 0-3.6 0-3.6 1.8-.1.8.4 1.5 1.6 1.5zm16-7.2c1.9 0 2.5 1.5 2.5 1.5v-.5c0-.5.3-.8.9-.8h1.1v.9h-.6c-.2 0-.3.1-.3.3v9.5h-1v-4.4s-.6 1.5-2.6 1.5c-2.1 0-3.4-1.7-3.4-4 0-2.4 1.4-4 3.4-4zm2.6 4.1c0-1.6-.8-3.1-2.4-3.1-1.4 0-2.5 1.1-2.5 3.1 0 1.9 1 3.1 2.5 3.1 1.1 0 2.4-.9 2.4-3.1zm5.1-2.6c0-.2-.1-.3-.3-.3h-.6v-.9h1.1c.7 0 .9.3.9.9v3.7c0 1.2.2 2.3 1.7 2.3 1.7 0 2.8-1.5 2.8-3.2v-3.7h1v6.5c0 .2.1.3.3.3h.6v.9h-1.1c-.6 0-.9-.3-.9-.9v-1c-.3.8-1.3 1.9-3 1.9-1.8 0-2.6-1-2.6-3v-3.5zm14.8 1.7h.4v-.1c0-1.6-.6-2.2-2-2.2-.4 0-1.5.1-1.5.7v.5h-1v-.7c0-1.1 1.8-1.3 2.5-1.3 2.4 0 3 1.3 3 3v3.7c0 .2.1.3.3.3h.6v.9h-1.1c-.7 0-.9-.3-.9-.9v-.6s-.6 1.7-2.6 1.7c-1.3 0-2.6-.8-2.6-2.3.2-2.6 3.6-2.7 4.9-2.7zm-1.9 4c1.5 0 2.4-1.5 2.4-2.9v-.4h-.5c-1.2 0-3.6 0-3.6 1.8 0 .8.5 1.5 1.7 1.5zm7.6-5.7c0-.2-.1-.3-.3-.3h-.6v-.9h1.1c.6 0 .9.3.9.9v1c.3-.7 1.3-1.9 3.1-1.9 1.9 0 2.6 1.1 2.6 3v3.7c0 .2.1.3.3.3h.6v.9h-1.1c-.7 0-.9-.3-.9-.9V274c0-1.2-.2-2.3-1.7-2.3-1.3 0-2.4.9-2.8 2.2-.1.3-.1.7-.1 1v3.7h-1v-6.7zm10.9-.4h-1v-.9h1v-2.1h1v2.1h1.9v.9h-1.9v3.9c0 1.8 1.1 2 1.7 2h.4v.9h-.4c-.9 0-2.7-.3-2.7-2.9v-3.9zm6.6.4c0-.2-.1-.3-.3-.3h-.6v-.9h1.1c.7 0 .9.3.9.9v5.5c0 .2.1.3.3.3h.6v.9h-1.1c-.7 0-.9-.3-.9-.9v-5.5zm0-4.3h1v1.3h-1v-1.3zm5.4 3.9h-1v-.9h1v-2.1h1v2.1h1.9v.9h-1.9v3.9c0 1.8 1.1 2 1.7 2h.4v.9h-.4c-.9 0-2.7-.3-2.7-2.9v-3.9zm10.5 2.1h.4v-.1c0-1.6-.6-2.2-2-2.2-.4 0-1.5.1-1.5.7v.5h-1v-.7c0-1.1 1.8-1.3 2.5-1.3 2.4 0 3 1.3 3 3v3.7c0 .2.1.3.3.3h.6v.9h-1.1c-.7 0-.9-.3-.9-.9v-.6s-.6 1.7-2.6 1.7c-1.3 0-2.6-.8-2.6-2.3.2-2.6 3.6-2.7 4.9-2.7zm-1.9 4c1.5 0 2.4-1.5 2.4-2.9v-.4h-.4c-1.2 0-3.6 0-3.6 1.8-.2.8.4 1.5 1.6 1.5zm-1.3-10h1.2l1.1 1.8h-.9l-1.4-1.8zm17.3 2.8c1.9 0 2.5 1.4 2.5 1.4v-3.1c0-.2-.1-.3-.3-.3h-.6v-.9h1.1c.7 0 .9.3.9.9v8.6c0 .2.1.3.3.3h.6v.9h-1.1c-.6 0-.9-.3-.9-.9v-.5s-.6 1.5-2.6 1.5c-2.1 0-3.4-1.7-3.4-4s1.5-3.9 3.5-3.9zm2.5 4.1c0-1.6-.8-3.1-2.5-3.1-1.4 0-2.5 1.1-2.5 3.1 0 1.9 1 3.1 2.4 3.1s2.6-.9 2.6-3.1zm5.3-2.6c0-.2-.1-.3-.3-.3h-.6v-.9h1.1c.7 0 .9.3.9.9v5.5c0 .2.1.3.3.3h.6v.9h-1c-.7 0-.9-.3-.9-.9v-5.5zm0-4.3h1v1.3h-1v-1.3zm15 6h.4v-.1c0-1.6-.6-2.2-2-2.2-.4 0-1.5.1-1.5.7v.5h-1v-.7c0-1.1 1.8-1.3 2.5-1.3 2.4 0 3 1.3 3 3v3.7c0 .2.1.3.3.3h.6v.9h-1.1c-.7 0-.9-.3-.9-.9v-.6s-.6 1.7-2.6 1.7c-1.3 0-2.6-.8-2.6-2.3.2-2.6 3.6-2.7 4.9-2.7zm-1.9 4c1.5 0 2.4-1.5 2.4-2.9v-.4h-.5c-1.2 0-3.6 0-3.6 1.8 0 .8.5 1.5 1.7 1.5zm10.9-7.2c.9 0 2.7.4 2.7 1.6v.7h-1v-.4c0-.6-1.1-.9-1.8-.9-1.7 0-3 1.2-3 3.1 0 1.9 1.4 3.1 3 3.1s2.5-1.1 2.5-1.1l.5.8s-1 1.3-3 1.3c-2.3 0-4-1.6-4-4 0-2.5 1.8-4.2 4.1-4.2zm9.1 0c1.9 0 2.5 1.5 2.5 1.5v-.5c0-.5.3-.8.9-.8h1.1v.9h-.6c-.2 0-.3.1-.3.3v9.5h-1v-4.4s-.6 1.5-2.6 1.5c-2.1 0-3.4-1.7-3.4-4-.1-2.4 1.3-4 3.4-4zm2.5 4.1c0-1.6-.8-3.1-2.4-3.1-1.4 0-2.5 1.1-2.5 3.1 0 1.9 1 3.1 2.5 3.1 1.2 0 2.4-.9 2.4-3.1zm5.2-2.6c0-.2-.1-.3-.3-.3h-.6v-.9h1.1c.7 0 .9.3.9.9v3.7c0 1.2.2 2.3 1.7 2.3 1.7 0 2.8-1.5 2.8-3.2v-3.7h1v6.5c0 .2.1.3.3.3h.6v.9h-1.1c-.6 0-.9-.3-.9-.9v-1c-.3.8-1.3 1.9-3 1.9-1.8 0-2.6-1-2.6-3v-3.5zm14.8 1.7h.4v-.1c0-1.6-.6-2.2-2-2.2-.4 0-1.5.1-1.5.7v.5h-1v-.7c0-1.1 1.8-1.3 2.5-1.3 2.4 0 3 1.3 3 3v3.7c0 .2.1.3.3.3h.6v.9h-.9c-.7 0-.9-.3-.9-.9v-.6s-.6 1.7-2.6 1.7c-1.3 0-2.6-.8-2.6-2.3 0-2.6 3.3-2.7 4.7-2.7zm-2 4c1.5 0 2.4-1.5 2.4-2.9v-.4h-.4c-1.2 0-3.6 0-3.6 1.8-.1.8.5 1.5 1.6 1.5zm-181.2 9.6c0-.2-.1-.3-.3-.3h-.6v-.9h1.1c.7 0 .9.3.9.9v3.7c0 1.2.2 2.3 1.7 2.3 1.7 0 2.8-1.5 2.8-3.2V286h1v6.5c0 .2.1.3.3.3h.6v.9h-1.1c-.6 0-.9-.3-.9-.9v-1c-.3.8-1.3 1.9-3 1.9-1.8 0-2.6-1-2.6-3v-3.5zm10.9-.4h-1v-.9h1v-2.1h1v2.1h1.9v.9h-1.9v3.9c0 1.8 1.1 2 1.7 2h.4v.9h-.4c-.9 0-2.7-.3-2.7-2.9v-3.9zm6.6.4c0-.2-.1-.3-.3-.3h-.6v-.9h1.1c.7 0 .9.3.9.9v5.5c0 .2.1.3.3.3h.6v.9h-1.1c-.7 0-.9-.3-.9-.9v-5.5zm0-4.3h1v1.3h-1v-1.3zm5.3 1.2c0-.2-.1-.3-.3-.3h-.6v-.9h1.1c.7 0 .9.3.9.9v8.6c0 .2.1.3.3.3h.6v.9h-1.1c-.7 0-.9-.3-.9-.9v-8.6zm5.4 3.1c0-.2-.1-.3-.3-.3h-.6v-.9h1.1c.7 0 .9.3.9.9v5.5c0 .2.1.3.3.3h.6v.9h-1.1c-.7 0-.9-.3-.9-.9v-5.5zm-.1-4.3h1v1.3h-1v-1.3zm4.6 10.1l4.3-5.4c.3-.4.6-.7.6-.7h-3.6c-.2 0-.3.1-.3.3v.6h-1v-.9c0-.7.3-.9.9-.9h5.3v.7l-4.3 5.4c-.3.4-.6.7-.6.7h4c.2 0 .3-.1.3-.3v-.6h1v.9c0 .7-.3.9-.9.9h-5.7v-.7zm9.2 0l4.3-5.4c.3-.4.6-.7.6-.7h-3.6c-.2 0-.3.1-.3.3v.6h-1v-.9c0-.7.3-.9.9-.9h5.3v.7l-4.3 5.4c-.3.4-.6.7-.6.7h4c.2 0 .3-.1.3-.3v-.6h1v.9c0 .7-.3.9-.9.9h-5.7v-.7zm13.9-4.1h.4v-.1c0-1.6-.6-2.2-2-2.2-.4 0-1.5.1-1.5.7v.5h-1v-.7c0-1.1 1.8-1.3 2.5-1.3 2.4 0 3 1.3 3 3v3.7c0 .2.1.3.3.3h.6v.9h-1.1c-.7 0-.9-.3-.9-.9v-.6s-.6 1.7-2.6 1.7c-1.3 0-2.6-.8-2.6-2.3.2-2.6 3.6-2.7 4.9-2.7zm-1.9 4c1.5 0 2.4-1.5 2.4-2.9v-.4h-.4c-1.2 0-3.6 0-3.6 1.8-.1.8.4 1.5 1.6 1.5zm7.6-6.1h-1v-.9h1v-2.1h1v2.1h1.9v.9H377v3.9c0 1.8 1.1 2 1.7 2h.4v.9h-.4c-.9 0-2.7-.3-2.7-2.9v-3.9zm10.5 2.1h.4v-.1c0-1.6-.6-2.2-2-2.2-.4 0-1.5.1-1.5.7v.5h-1v-.7c0-1.1 1.8-1.3 2.5-1.3 2.4 0 3 1.3 3 3v3.7c0 .2.1.3.3.3h.6v.9h-1.1c-.7 0-.9-.3-.9-.9v-.6s-.6 1.7-2.6 1.7c-1.3 0-2.6-.8-2.6-2.3.2-2.6 3.6-2.7 4.9-2.7zm-1.9 4c1.5 0 2.4-1.5 2.4-2.9v-.4h-.4c-1.2 0-3.6 0-3.6 1.8-.1.8.4 1.5 1.6 1.5zm13.2-5.7c0-.2-.1-.3-.3-.3h-.6v-.9h1.1c.6 0 .9.3.9.9v1c.3-.7 1.3-1.9 3.1-1.9 1.9 0 2.6 1.1 2.6 3v3.7c0 .2.1.3.3.3h.6v.9h-1.1c-.7 0-.9-.3-.9-.9v-4c0-1.2-.2-2.3-1.7-2.3-1.3 0-2.4.9-2.8 2.2-.1.3-.1.7-.1 1v3.7h-1v-6.4zm14.2-1.4c2.3 0 4.1 1.7 4.1 4s-1.8 4.1-4.1 4.1-4.1-1.7-4.1-4.1c.1-2.3 1.9-4 4.1-4zm0 7.1c1.6 0 3-1.3 3-3.1 0-1.7-1.3-3-3-3s-3 1.3-3 3 1.4 3.1 3 3.1zm7.6-5.7c0-.2-.1-.3-.3-.3h-.6v-.9h1.1c.6 0 .9.3.9.9v1c.3-.7 1.3-1.9 3.1-1.9 1.9 0 2.6 1.1 2.6 3v3.7c0 .2.1.3.3.3h.6v.9H426c-.7 0-.9-.3-.9-.9v-4c0-1.2-.2-2.3-1.7-2.3-1.3 0-2.4.9-2.8 2.2-.1.3-.1.7-.1 1v3.7h-1v-6.4zm16.2 4.6s.9 1.2 2.4 1.2c.9 0 1.6-.4 1.6-1.2 0-1.7-4.3-1.4-4.3-3.9 0-1.4 1.2-2.1 2.7-2.1.8 0 2.3.3 2.3 1.4v.7h-1v-.4c0-.6-.8-.8-1.3-.8-1.1 0-1.7.4-1.7 1.1 0 1.7 4.3 1.3 4.3 3.9 0 1.3-1.2 2.2-2.7 2.2-2 0-3-1.3-3-1.3l.7-.8zm8.5-4.6c0-.2-.1-.3-.3-.3h-.6v-.9h1.1c.7 0 .9.3.9.9v3.7c0 1.2.2 2.3 1.7 2.3 1.7 0 2.8-1.5 2.8-3.2V286h1v6.5c0 .2.1.3.3.3h.6v.9h-1.1c-.6 0-.9-.3-.9-.9v-1c-.3.8-1.3 1.9-3 1.9-1.8 0-2.6-1-2.6-3v-3.5zm10.8 0c0-.2-.1-.3-.3-.3h-.6v-.9h1.1c.7 0 .9.3.9.8v.5s.6-1.5 2.6-1.5c2.1 0 3.4 1.7 3.4 4 0 2.4-1.5 4-3.4 4s-2.5-1.5-2.5-1.5v4.4h-1v-9.5zm3.5 5.7c1.4 0 2.5-1.1 2.5-3.1 0-1.9-1-3.1-2.4-3.1-1.3 0-2.5.9-2.5 3.1-.1 1.6.8 3.1 2.4 3.1zm10.1-7.1c2.1 0 3.2 1.6 3.2 3.6v.5h-5.9c0 1.9 1.4 3.1 3 3.1 1.4 0 2.3-.9 2.3-.9l.5.8s-1.1 1.1-2.9 1.1c-2.3 0-4-1.7-4-4 0-2.7 1.8-4.2 3.8-4.2zm2.2 3.2c-.1-1.6-1-2.4-2.2-2.4-1.3 0-2.4.8-2.6 2.4h4.8zm4.7-1.8c0-.2-.1-.3-.3-.3h-.6v-.9h1.1c.6 0 .9.3.9.9v1.1c.4-1.2 1.2-2.1 2.4-2.1h.4v1h-.4c-1.1 0-1.9.9-2.2 2-.2.5-.2 1-.2 1.5v3.2h-1v-6.4zm7.1 0c0-.2-.1-.3-.3-.3h-.6v-.9h1.1c.7 0 .9.3.9.9v5.5c0 .2.1.3.3.3h.6v.9h-1.1c-.7 0-.9-.3-.9-.9v-5.5zm0-4.3h1v1.3h-1v-1.3zm-172.3 16.5c0-.2-.1-.3-.3-.3h-.6v-.9h1.1c.7 0 .9.3.9.9v8.6c0 .2.1.3.3.3h.6v.9h-1.1c-.7 0-.9-.3-.9-.9v-8.6zm9.2 4.8h.4v-.1c0-1.6-.6-2.2-2-2.2-.4 0-1.5.1-1.5.7v.5h-1v-.7c0-1.1 1.8-1.3 2.5-1.3 2.4 0 3 1.3 3 3v3.7c0 .2.1.3.3.3h.6v.9h-1.1c-.7 0-.9-.3-.9-.9v-.6s-.6 1.7-2.6 1.7c-1.3 0-2.6-.8-2.6-2.3.2-2.6 3.6-2.7 4.9-2.7zm-1.9 4c1.5 0 2.4-1.5 2.4-2.9v-.3h-.4c-1.2 0-3.6 0-3.6 1.8-.1.7.5 1.4 1.6 1.4zm16.6-7.1c.9 0 2.7.4 2.7 1.6v.7h-1v-.4c0-.6-1.1-.9-1.8-.9-1.7 0-3 1.2-3 3.1 0 1.9 1.4 3.1 3 3.1s2.5-1.1 2.5-1.1l.5.8s-1 1.3-3 1.3c-2.3 0-4-1.6-4-4 .1-2.5 1.8-4.2 4.1-4.2zm10.3 3.1h.4v-.1c0-1.6-.6-2.2-2-2.2-.4 0-1.5.1-1.5.7v.5h-1v-.7c0-1.1 1.8-1.3 2.5-1.3 2.4 0 3 1.3 3 3v3.7c0 .2.1.3.3.3h.6v.9h-1.1c-.7 0-.9-.3-.9-.9v-.6s-.6 1.7-2.6 1.7c-1.3 0-2.6-.8-2.6-2.3.2-2.6 3.6-2.7 4.9-2.7zm-1.9 4c1.5 0 2.4-1.5 2.4-2.9v-.3h-.4c-1.2 0-3.6 0-3.6 1.8-.2.7.4 1.4 1.6 1.4zm7.5-5.7c0-.2-.1-.3-.3-.3h-.6v-.9h1.1c.7 0 .9.3.9.8v.5s.6-1.5 2.6-1.5c2.1 0 3.4 1.7 3.4 4 0 2.4-1.5 4-3.4 4s-2.5-1.5-2.5-1.5v4.4h-1v-9.5zm3.5 5.7c1.4 0 2.5-1.1 2.5-3.1 0-1.9-1-3.1-2.4-3.1-1.3 0-2.5.9-2.5 3.1-.1 1.6.8 3.1 2.4 3.1zm11-4h.4v-.1c0-1.6-.6-2.2-2-2.2-.4 0-1.5.1-1.5.7v.5h-1v-.7c0-1.1 1.8-1.3 2.5-1.3 2.4 0 3 1.3 3 3v3.7c0 .2.1.3.3.3h.6v.9h-.9c-.7 0-.9-.3-.9-.9v-.6s-.6 1.7-2.6 1.7c-1.3 0-2.6-.8-2.6-2.3-.1-2.6 3.3-2.7 4.7-2.7zm-2 4c1.5 0 2.4-1.5 2.4-2.9v-.3h-.4c-1.2 0-3.6 0-3.6 1.8-.1.7.5 1.4 1.6 1.4zm10.9-7.1c.9 0 2.7.4 2.7 1.6v.7h-1v-.4c0-.6-1.1-.9-1.8-.9-1.7 0-3 1.2-3 3.1 0 1.9 1.4 3.1 3 3.1s2.5-1.1 2.5-1.1l.5.8s-1 1.3-3 1.3c-2.3 0-4-1.6-4-4 .1-2.5 1.8-4.2 4.1-4.2zm6.4 1.4c0-.2-.1-.3-.3-.3h-.6v-.9h1.1c.7 0 .9.3.9.9v5.5c0 .2.1.3.3.3h.6v.9h-1.1c-.7 0-.9-.3-.9-.9v-5.5zm0-4.3h1v1.3h-1v-1.3zm5.4 3.9h-1v-.9h1v-2.1h1v2.1h1.9v.9h-1.9v3.9c0 1.8 1.1 2 1.7 2h.4v.9h-.4c-.9 0-2.7-.3-2.7-2.9v-3.9zm10.4 2.1h.4v-.1c0-1.6-.6-2.2-2-2.2-.4 0-1.5.1-1.5.7v.5h-1v-.7c0-1.1 1.8-1.3 2.5-1.3 2.4 0 3 1.3 3 3v3.7c0 .2.1.3.3.3h.6v.9h-1.1c-.7 0-.9-.3-.9-.9v-.6s-.6 1.7-2.6 1.7c-1.3 0-2.6-.8-2.6-2.3.2-2.6 3.6-2.7 4.9-2.7zm-1.9 4c1.5 0 2.4-1.5 2.4-2.9v-.3h-.4c-1.2 0-3.6 0-3.6 1.8-.1.7.5 1.4 1.6 1.4zm-1.2-10h1.2l1.1 1.8h-.9l-1.4-1.8zm17.2 2.9c1.9 0 2.5 1.4 2.5 1.4v-3.1c0-.2-.1-.3-.3-.3h-.6v-.9h1.1c.7 0 .9.3.9.9v8.6c0 .2.1.3.3.3h.6v.9h-1.1c-.6 0-.9-.3-.9-.9v-.5s-.6 1.5-2.6 1.5c-2.1 0-3.4-1.7-3.4-4 .1-2.3 1.5-3.9 3.5-3.9zm2.6 4c0-1.6-.8-3.1-2.5-3.1-1.4 0-2.5 1.1-2.5 3.1 0 1.9 1 3.1 2.4 3.1s2.6-.9 2.6-3.1zm5.3-2.6c0-.2-.1-.3-.3-.3h-.6v-.9h1.1c.7 0 .9.3.9.9v5.5c0 .2.1.3.3.3h.6v.9h-1.1c-.7 0-.9-.3-.9-.9v-5.5zm0-4.3h1v1.3h-1v-1.3zm11 4.3c0-.2-.1-.3-.3-.3h-.6v-.9h1.1c.6 0 .9.3.9.9v1.1c.4-1.2 1.2-2.1 2.4-2.1h.4v1h-.4c-1.1 0-1.9.9-2.2 2-.2.5-.2 1-.2 1.5v3.2h-1v-6.4zm7.1 0c0-.2-.1-.3-.3-.3h-.6v-.9h1.1c.7 0 .9.3.9.9v5.5c0 .2.1.3.3.3h.6v.9h-1.1c-.7 0-.9-.3-.9-.9v-5.5zm0-4.3h1v1.3h-1v-1.3zm8.7 2.9c.9 0 2.7.4 2.7 1.6v.7h-1v-.4c0-.6-1.1-.9-1.8-.9-1.7 0-3 1.2-3 3.1 0 1.9 1.4 3.1 3 3.1s2.5-1.1 2.5-1.1l.5.8s-1 1.3-3 1.3c-2.3 0-4-1.6-4-4 0-2.5 1.8-4.2 4.1-4.2zm10.2 3.1h.4v-.1c0-1.6-.6-2.2-2-2.2-.4 0-1.5.1-1.5.7v.5h-1v-.7c0-1.1 1.8-1.3 2.5-1.3 2.4 0 3 1.3 3 3v3.7c0 .2.1.3.3.3h.6v.9h-1.1c-.7 0-.9-.3-.9-.9v-.6s-.6 1.7-2.6 1.7c-1.3 0-2.6-.8-2.6-2.3.2-2.6 3.6-2.7 4.9-2.7zm-1.9 4c1.5 0 2.4-1.5 2.4-2.9v-.3h-.4c-1.2 0-3.6 0-3.6 1.8-.1.7.5 1.4 1.6 1.4zm7.6-5.7c0-.2-.1-.3-.3-.3h-.6v-.9h1.1c.6 0 .9.3.9.9v1.1c.4-1.2 1.2-2.1 2.4-2.1h.4v1h-.4c-1.1 0-1.9.9-2.2 2-.2.5-.2 1-.2 1.5v3.2h-1v-6.4zm7.1 0c0-.2-.1-.3-.3-.3h-.6v-.9h1.1c.7 0 .9.3.9.9v5.5c0 .2.1.3.3.3h.6v.9h-1.1c-.7 0-.9-.3-.9-.9v-5.5zm0-4.3h1v1.3h-1v-1.3zm8.7 2.9c.9 0 2.7.4 2.7 1.6v.7h-1v-.4c0-.6-1.1-.9-1.8-.9-1.7 0-3 1.2-3 3.1 0 1.9 1.4 3.1 3 3.1s2.5-1.1 2.5-1.1l.5.8s-1 1.3-3 1.3c-2.3 0-4-1.6-4-4 0-2.5 1.8-4.2 4.1-4.2zm10.2 3.1h.4v-.1c0-1.6-.6-2.2-2-2.2-.4 0-1.5.1-1.5.7v.5h-1v-.7c0-1.1 1.8-1.3 2.5-1.3 2.4 0 3 1.3 3 3v3.7c0 .2.1.3.3.3h.6v.9h-1.1c-.7 0-.9-.3-.9-.9v-.6s-.6 1.7-2.6 1.7c-1.3 0-2.6-.8-2.6-2.3.2-2.6 3.6-2.7 4.9-2.7zm-1.9 4c1.5 0 2.4-1.5 2.4-2.9v-.3h-.4c-1.2 0-3.6 0-3.6 1.8-.1.7.5 1.4 1.6 1.4zM320 317.8c0-.2-.1-.3-.3-.3h-.7v-.9h1.1c.6 0 .9.3.9.9v1c.3-.7 1.3-1.9 3.1-1.9 1.9 0 2.6 1.1 2.6 3v3.7c0 .2.1.3.3.3h.6v.9h-1.1c-.7 0-.9-.3-.9-.9v-3.7c0-1.2-.2-2.3-1.7-2.3-1.3 0-2.4.9-2.8 2.2-.1.3-.1.7-.1 1v3.7h-1v-6.7zm14.8 1.7h.4v-.1c0-1.6-.6-2.2-2-2.2-.4 0-1.5.1-1.5.7v.5h-1v-.7c0-1.1 1.8-1.3 2.5-1.3 2.4 0 3 1.3 3 3v3.7c0 .2.1.3.3.3h.6v.9H336c-.7 0-.9-.3-.9-.9v-.6s-.6 1.7-2.6 1.7c-1.3 0-2.6-.8-2.6-2.3.2-2.6 3.6-2.7 4.9-2.7zm-1.9 4.1c1.5 0 2.4-1.5 2.4-2.9v-.4h-.4c-1.2 0-3.6 0-3.6 1.8-.1.7.5 1.5 1.6 1.5zm7.7-6.2h-1v-.9h1v-2.1h1v2.1h1.9v.9h-1.9v3.9c0 1.8 1.1 2 1.7 2h.4v.9h-.4c-.9 0-2.7-.3-2.7-2.9v-3.9zm6.5.4c0-.2-.1-.3-.3-.3h-.6v-.9h1.1c.7 0 .9.3.9.9v3.7c0 1.2.2 2.3 1.7 2.3 1.7 0 2.8-1.5 2.8-3.2v-3.7h1v6.5c0 .2.1.3.3.3h.6v.9h-1.1c-.6 0-.9-.3-.9-.9v-1c-.3.8-1.3 1.9-3 1.9-1.8 0-2.6-1-2.6-3v-3.5zm10.8 0c0-.2-.1-.3-.3-.3h-.6v-.9h1.1c.6 0 .9.3.9.9v1.1c.4-1.2 1.2-2.1 2.4-2.1h.4v1h-.4c-1.1 0-1.9.9-2.2 2-.2.5-.2 1-.2 1.5v3.2h-1v-6.4zm10.6 1.7h.4v-.1c0-1.6-.6-2.2-2-2.2-.4 0-1.5.1-1.5.7v.5h-1v-.7c0-1.1 1.8-1.3 2.5-1.3 2.4 0 3 1.3 3 3v3.7c0 .2.1.3.3.3h.6v.9h-1.1c-.7 0-.9-.3-.9-.9v-.6s-.6 1.7-2.6 1.7c-1.3 0-2.6-.8-2.6-2.3.2-2.6 3.5-2.7 4.9-2.7zm-2 4.1c1.5 0 2.4-1.5 2.4-2.9v-.4h-.4c-1.2 0-3.6 0-3.6 1.8-.1.7.5 1.5 1.6 1.5zm7.6-8.9c0-.2-.1-.3-.3-.3h-.6v-.9h1.1c.7 0 .9.3.9.9v8.6c0 .2.1.3.3.3h.6v.9H375c-.7 0-.9-.3-.9-.9v-8.6zm8.4 1.7c2.1 0 3.2 1.6 3.2 3.6v.5h-5.9c0 1.9 1.4 3.1 3 3.1 1.4 0 2.3-.9 2.3-.9l.5.8s-1.1 1.1-2.9 1.1c-2.3 0-4-1.7-4-4 0-2.7 1.7-4.2 3.8-4.2zm2.1 3.2c-.1-1.6-1-2.4-2.2-2.4-1.3 0-2.4.8-2.6 2.4h4.8zm13.2-3.2c1.9 0 2.5 1.4 2.5 1.4v-3.1c0-.2-.1-.3-.3-.3h-.6v-.9h1.1c.7 0 .9.3.9.9v8.6c0 .2.1.3.3.3h.6v.9h-1.1c-.6 0-.9-.3-.9-.9v-.5s-.6 1.5-2.6 1.5c-2.1 0-3.4-1.7-3.4-4s1.5-3.9 3.5-3.9zm2.5 4c0-1.6-.8-3.1-2.5-3.1-1.4 0-2.5 1.1-2.5 3.1 0 1.9 1 3.1 2.4 3.1s2.6-.9 2.6-3.1zm8.3-4c2.1 0 3.2 1.6 3.2 3.6v.5h-5.9c0 1.9 1.4 3.1 3 3.1 1.4 0 2.3-.9 2.3-.9l.5.8s-1.1 1.1-2.9 1.1c-2.3 0-4-1.7-4-4 0-2.7 1.8-4.2 3.8-4.2zm2.2 3.2c-.1-1.6-1-2.4-2.2-2.4-1.3 0-2.4.8-2.6 2.4h4.8zm4.6-4.9c0-.2-.1-.3-.3-.3h-.6v-.9h1.1c.7 0 .9.3.9.9v8.6c0 .2.1.3.3.3h.6v.9h-1.1c-.7 0-.9-.3-.9-.9v-8.6zm5.3 0c0-.2-.1-.3-.3-.3h-.6v-.9h1.1c.7 0 .9.3.9.9v8.6c0 .2.1.3.3.3h.6v.9h-1.1c-.7 0-.9-.3-.9-.9v-8.6zm9.3 4.8h.4v-.1c0-1.6-.6-2.2-2-2.2-.4 0-1.5.1-1.5.7v.5h-1v-.7c0-1.1 1.8-1.3 2.5-1.3 2.4 0 3 1.3 3 3v3.7c0 .2.1.3.3.3h.6v.9h-1.1c-.7 0-.9-.3-.9-.9v-.6s-.6 1.7-2.6 1.7c-1.3 0-2.6-.8-2.6-2.3.2-2.6 3.6-2.7 4.9-2.7zm-1.9 4.1c1.5 0 2.4-1.5 2.4-2.9v-.4h-.5c-1.2 0-3.6 0-3.6 1.8 0 .7.5 1.5 1.7 1.5zm13.3-6.2h-1v-.9h1v-.3c0-2.5 1.8-2.9 2.6-2.9h.5v.9h-.4c-.6 0-1.7.2-1.7 1.9v.3h2v.9h-2v6.8h-1v-6.7zm9.8 2.1h.4v-.1c0-1.6-.6-2.2-2-2.2-.4 0-1.5.1-1.5.7v.5h-1v-.7c0-1.1 1.8-1.3 2.5-1.3 2.4 0 3 1.3 3 3v3.7c0 .2.1.3.3.3h.6v.9h-1.1c-.7 0-.9-.3-.9-.9v-.6s-.6 1.7-2.6 1.7c-1.3 0-2.6-.8-2.6-2.3.2-2.6 3.6-2.7 4.9-2.7zm-1.9 4.1c1.5 0 2.4-1.5 2.4-2.9v-.4h-.4c-1.2 0-3.6 0-3.6 1.8-.1.7.5 1.5 1.6 1.5zm7.6-8.9c0-.2-.1-.3-.3-.3h-.6v-.9h1.1c.7 0 .9.3.9.9v8.6c0 .2.1.3.3.3h.6v.9h-1.1c-.7 0-.9-.3-.9-.9v-8.6zm8 1.7c1.9 0 2.5 1.4 2.5 1.4v-3.1c0-.2-.1-.3-.3-.3h-.6v-.9h1.1c.7 0 .9.3.9.9v8.6c0 .2.1.3.3.3h.6v.9h-1.1c-.6 0-.9-.3-.9-.9v-.5s-.6 1.5-2.6 1.5c-2.1 0-3.4-1.7-3.4-4 .1-2.3 1.5-3.9 3.5-3.9zm2.6 4c0-1.6-.8-3.1-2.5-3.1-1.4 0-2.5 1.1-2.5 3.1 0 1.9 1 3.1 2.4 3.1s2.6-.9 2.6-3.1zm9.2-.9h.4v-.1c0-1.6-.6-2.2-2-2.2-.4 0-1.5.1-1.5.7v.5h-1v-.7c0-1.1 1.8-1.3 2.5-1.3 2.4 0 3 1.3 3 3v3.7c0 .2.1.3.3.3h.6v.9h-1.1c-.7 0-.9-.3-.9-.9v-.6s-.6 1.7-2.6 1.7c-1.3 0-2.6-.8-2.6-2.3.2-2.6 3.6-2.7 4.9-2.7zm-1.9 4.1c1.5 0 2.4-1.5 2.4-2.9v-.4h-.4c-1.2 0-3.6 0-3.6 1.8-.1.7.4 1.5 1.6 1.5zm68.8-204.8H542v-2.1h7.5c3 0 5.1 1.6 5.1 4.5 0 1.9-1 3.2-2.2 3.8v.1c1.9.5 2.9 2.3 2.9 4.3 0 3.3-2.5 5-5.7 5h-4.5c-1.1 0-1.6-.5-1.6-1.6v-14zm5.9 5.3c1.5 0 2.5-1.1 2.5-2.7 0-1.5-.9-2.6-2.6-2.6H546v5.3h3.5zm-2.9 8h3.1c1.9 0 3-1.2 3-3s-1.2-3-3-3H546v5.5c.1.3.3.5.6.5zm14.4-7.8c0-.4-.2-.5-.5-.5h-1v-2.1h2.4c1.1 0 1.6.5 1.6 1.5v6c0 1.7.3 3.1 2.3 3.1 2.6 0 4.1-2.3 4.1-4.8v-5.9h2.4v10c0 .4.2.5.5.5h1v2.1h-2.3c-1.1 0-1.6-.5-1.6-1.4v-1.2c-.5 1.2-2.1 2.9-4.6 2.9-2.8 0-4.3-1.5-4.3-4.8v-5.4zm23.6-2.9c3.8 0 6.8 2.8 6.8 6.6s-3 6.6-6.8 6.6-6.8-2.8-6.8-6.6c0-3.9 3-6.6 6.8-6.6zm0 11.1c2.4 0 4.3-1.9 4.3-4.5s-1.9-4.5-4.3-4.5-4.3 1.9-4.3 4.5c-.1 2.6 1.9 4.5 4.3 4.5zm12.3-8.2c0-.4-.2-.5-.5-.5h-1v-2.1h2.3c1.1 0 1.6.5 1.6 1.4v1.2c.5-1.1 2-2.9 4.7-2.9 3 0 4.3 1.6 4.3 4.8v5.5c0 .4.2.5.5.5h1v2.1h-2.4c-1.1 0-1.6-.5-1.6-1.6v-5.9c0-1.8-.3-3.2-2.4-3.2-1.9 0-3.5 1.3-4 3.1-.2.5-.2 1.1-.2 1.7v5.9h-2.4v-10zm24.4 2.1h.5v-.1c0-2.2-.8-3-2.8-3-.6 0-2.1.1-2.1 1v.7h-2.3v-1.2c0-2.1 3.1-2.4 4.4-2.4 4.1 0 5.2 2.1 5.2 4.9v5.4c0 .4.2.5.5.5h1v2.1h-2.3c-1.1 0-1.6-.5-1.6-1.4 0-.4.1-.7.1-.7h.1s-1 2.5-4 2.5c-2.2 0-4.3-1.3-4.3-3.8 0-4.2 5.5-4.5 7.6-4.5zm-2.7 6.2c2 0 3.4-2.1 3.4-4v-.4h-.6c-1.8 0-5.1.1-5.1 2.4-.1 1 .7 2 2.3 2zm26.1-11.2c3 0 4.1 2.1 4.1 2.1v-.6c0-.7.5-1.2 1.5-1.2h2.3v2.1h-1c-.3 0-.5.2-.5.5v15h-2.4v-5.7c0-.6.1-1.1.1-1.1h-.1s-1.1 2.1-4.1 2.1c-3.4 0-5.5-2.7-5.5-6.6-.1-4 2.3-6.6 5.6-6.6zm3.9 6.5c0-2.2-1.2-4.5-3.6-4.5-2 0-3.6 1.6-3.6 4.5 0 2.7 1.5 4.5 3.6 4.5 1.9.1 3.6-1.2 3.6-4.5zm9.1-3.6c0-.4-.2-.5-.5-.5h-1v-2.1h2.4c1.1 0 1.6.5 1.6 1.5v6c0 1.7.3 3.1 2.3 3.1 2.6 0 4.1-2.3 4.1-4.8v-5.9h2.4v10c0 .4.2.5.5.5h1v2.1h-2.3c-1.1 0-1.6-.5-1.6-1.4v-1.2h-.1c-.5 1.2-2.1 2.9-4.6 2.9-2.8 0-4.3-1.5-4.3-4.8v-5.4zm24.4 2.1h.5v-.1c0-2.2-.8-3-2.8-3-.6 0-2.1.1-2.1 1v.7h-2.3v-1.2c0-2.1 3.1-2.4 4.4-2.4 4.1 0 5.2 2.1 5.2 4.9v5.4c0 .4.2.5.5.5h1v2.1h-2.3c-1.1 0-1.6-.5-1.6-1.4v-.7s-1 2.5-4 2.5c-2.2 0-4.3-1.3-4.3-3.8.2-4.2 5.7-4.5 7.8-4.5zm-2.8 6.2c2 0 3.4-2.1 3.4-4v-.4h-.7c-1.8 0-5.1.1-5.1 2.4 0 1 .8 2 2.4 2zm12.4-13.3c0-.4-.2-.5-.5-.5h-1v-2.1h2.4c1.1 0 1.6.5 1.6 1.6v13.4c0 .4.2.5.5.5h1v2.1h-2.4c-1.1 0-1.6-.5-1.6-1.6v-13.4zm9.3 5c0-.4-.2-.5-.5-.5h-1v-2.1h2.4c1.1 0 1.6.5 1.6 1.6v8.4c0 .4.2.5.5.5h1v2.1h-2.4c-1.1 0-1.6-.5-1.6-1.6v-8.4zm0-7.6h2.2v2.5H701v-2.5zm9.3 6.9h-1.6v-1.9h1.7v-3.5h2.4v3.5h3v1.9h-3v5.8c0 2.5 1.7 2.8 2.7 2.8.3 0 .6-.1.6-.1v2.1h-.8c-1.6 0-4.8-.5-4.8-4.7v-5.9zm17.4 2.8h.5v-.1c0-2.2-.8-3-2.8-3-.6 0-2.1.1-2.1 1v.7H721v-1.2c0-2.1 3.1-2.4 4.4-2.4 4.1 0 5.2 2.1 5.2 4.9v5.4c0 .4.2.5.5.5h1v2.1H730c-1.1 0-1.6-.5-1.6-1.4v-.7s-1 2.5-4 2.5c-2.2 0-4.3-1.3-4.3-3.8.1-4.2 5.5-4.5 7.6-4.5zm-5.2-9.7h2.4l1.8 3.2h-1.9l-2.3-3.2zm2.5 15.9c2 0 3.4-2.1 3.4-4v-.4h-.6c-1.8 0-5.1.1-5.1 2.4-.1 1 .7 2 2.3 2zm-156.4 14.9c2.9 0 3.9 1.9 3.9 1.9v-4c0-.4-.2-.5-.5-.5h-1v-2.1h2.4c1.1 0 1.6.5 1.6 1.6v13.4c0 .4.2.5.5.5h1v2.1h-2.3c-1.1 0-1.5-.5-1.5-1.3v-.6s-1 2.3-4.1 2.3c-3.4 0-5.6-2.7-5.6-6.6-.1-4.1 2.3-6.7 5.6-6.7zm4 6.5c0-2.2-1.2-4.5-3.6-4.5-2 0-3.6 1.6-3.6 4.5 0 2.7 1.5 4.5 3.6 4.5 1.8.1 3.6-1.2 3.6-4.5zm14.2-6.5c3.5 0 5.4 2.6 5.4 5.9 0 .3-.1 1-.1 1h-9.2c.1 2.7 2.1 4.2 4.3 4.2 2.2 0 3.7-1.5 3.7-1.5l1 1.7s-1.9 1.8-4.9 1.8c-4 0-6.7-2.9-6.7-6.6.2-3.9 2.9-6.5 6.5-6.5zm2.9 5.1c-.1-2.1-1.4-3.2-3-3.2-1.8 0-3.3 1.1-3.7 3.2h6.7zm8.2-7.2c0-.4-.2-.5-.5-.5h-1v-2.1h2.4c1.1 0 1.6.5 1.6 1.6v13.4c0 .4.2.5.5.5h1v2.1h-2.4c-1.1 0-1.6-.5-1.6-1.6v-13.4zm9.1 0c0-.4-.2-.5-.5-.5h-1v-2.1h2.4c1.1 0 1.6.5 1.6 1.6v13.4c0 .4.2.5.5.5h1v2.1h-2.4c-1.1 0-1.6-.5-1.6-1.6v-13.4zm9.4-2.9h2.3l-1.6 4.9h-1.7l1-4.9zm13.3 10h.5v-.1c0-2.2-.8-3-2.8-3-.6 0-2.1.1-2.1 1v.7H623v-1.2c0-2.1 3.1-2.4 4.4-2.4 4.1 0 5.2 2.1 5.2 4.9v5.4c0 .4.2.5.5.5h1v2.1H632c-1.1 0-1.6-.5-1.6-1.4 0-.4.1-.7.1-.7h-.1s-1 2.5-4 2.5c-2.2 0-4.3-1.3-4.3-3.8 0-4.2 5.5-4.5 7.6-4.5zm-2.8 6.2c2 0 3.4-2.1 3.4-4v-.4h-.6c-1.8 0-5.1.1-5.1 2.4-.1 1 .7 2 2.3 2zm18-11.2c1.5 0 4.5.6 4.5 2.8v1.3h-2.2v-.7c0-.9-1.4-1.3-2.3-1.3-2.5 0-4.3 1.8-4.3 4.5 0 2.9 2.1 4.5 4.4 4.5 2.4 0 3.9-1.7 3.9-1.7l1 1.7s-1.8 2.2-5.1 2.2c-4 0-6.7-2.8-6.7-6.6s2.7-6.7 6.8-6.7zm14.7 0c3 0 4.1 2.1 4.1 2.1v-.6c0-.7.5-1.2 1.5-1.2h2.3v2.1h-1c-.3 0-.5.2-.5.5v15h-2.4v-5.7c0-.6.1-1.1.1-1.1h-.1s-1.1 2.1-4.1 2.1c-3.4 0-5.5-2.7-5.5-6.6-.1-4 2.3-6.6 5.6-6.6zm4 6.5c0-2.2-1.2-4.5-3.6-4.5-2 0-3.6 1.6-3.6 4.5 0 2.7 1.5 4.5 3.6 4.5 1.8.1 3.6-1.2 3.6-4.5zm9-3.6c0-.4-.2-.5-.5-.5h-1v-2.1h2.4c1.1 0 1.6.5 1.6 1.5v6c0 1.7.3 3.1 2.3 3.1 2.6 0 4.1-2.3 4.1-4.8v-5.9h2.4v10c0 .4.2.5.5.5h1v2.1h-2.3c-1.1 0-1.6-.5-1.6-1.4v-1.2h-.1c-.5 1.2-2.1 2.9-4.6 2.9-2.8 0-4.3-1.5-4.3-4.8v-5.4zm24.4 2.1h.5v-.1c0-2.2-.8-3-2.8-3-.6 0-2.1.1-2.1 1v.7h-2.3v-1.2c0-2.1 3.1-2.4 4.4-2.4 4.1 0 5.2 2.1 5.2 4.9v5.4c0 .4.2.5.5.5h1v2.1h-2.3c-1.1 0-1.6-.5-1.6-1.4v-.7s-1 2.5-4 2.5c-2.2 0-4.3-1.3-4.3-3.8.2-4.2 5.7-4.5 7.8-4.5zm-2.8 6.2c2 0 3.4-2.1 3.4-4v-.4h-.6c-1.8 0-5.1.1-5.1 2.4-.1 1 .7 2 2.3 2zm12.8-10.9h2.5v2.6H707v-2.6zm0 10h2.5v2.6H707v-2.6zM571.3 171h.4v-.1c0-1.6-.6-2.2-2-2.2-.4 0-1.5.1-1.5.7v.5h-1v-.7c0-1.1 1.9-1.3 2.5-1.3 2.5 0 3 1.3 3 3v3.7c0 .2.1.3.3.3h.6v.9h-1.1c-.7 0-.9-.3-.9-.9v-.6s-.6 1.7-2.6 1.7c-1.3 0-2.6-.8-2.6-2.3.1-2.6 3.5-2.7 4.9-2.7zm-2 4.1c1.5 0 2.4-1.5 2.4-2.9v-.4h-.4c-1.2 0-3.7 0-3.7 1.8 0 .7.6 1.5 1.7 1.5zm6.9 0l4.4-5.4c.3-.4.6-.7.6-.7h-3.6c-.2 0-.3.1-.3.3v.6h-1v-.9c0-.7.3-.9.9-.9h5.4v.7l-4.3 5.4c-.3.4-.6.7-.6.7h4c.2 0 .3-.1.3-.3v-.6h1v.9c0 .7-.3.9-.9.9h-5.8v-.7zm10.1-5.8c0-.2-.1-.3-.3-.3h-.6v-1h1.1c.7 0 .9.3.9.9v5.6c0 .2.1.3.3.3h.6v.9h-1.1c-.7 0-.9-.3-.9-.9v-5.5zm-.1-4.4h1v1.3h-1v-1.3zm8.8 2.9c2.3 0 4.1 1.7 4.1 4s-1.8 4.1-4.1 4.1-4.1-1.8-4.1-4.1c0-2.2 1.8-4 4.1-4zm0 7.2c1.7 0 3-1.4 3-3.2 0-1.8-1.4-3.1-3-3.1-1.7 0-3 1.3-3 3.1 0 1.9 1.3 3.2 3 3.2zm7.6-5.7c0-.2-.1-.3-.3-.3h-.6v-1h1.1c.6 0 .9.3.9.9v1c.3-.7 1.3-2 3.1-2 1.9 0 2.6 1.1 2.6 3v3.7c0 .2.1.3.3.3h.6v.9h-1.1c-.7 0-.9-.3-.9-.9v-3.7c0-1.2-.2-2.3-1.7-2.3-1.3 0-2.5.9-2.8 2.2-.1.3-.1.7-.1 1v3.7h-1v-6.5zm11 0c0-.2-.1-.3-.3-.3h-.6v-1h1.1c.7 0 .9.3.9.9v5.6c0 .2.1.3.3.3h.6v.9h-1.1c-.7 0-.9-.3-.9-.9v-5.5zm-.1-4.4h1v1.3h-1v-1.3zm10.8 9s.9 1.2 2.4 1.2c.9 0 1.6-.4 1.6-1.2 0-1.7-4.3-1.4-4.3-3.9 0-1.4 1.2-2.1 2.8-2.1.8 0 2.4.3 2.4 1.4v.7h-1v-.4c0-.6-.8-.8-1.3-.8-1.1 0-1.7.4-1.7 1.1 0 1.7 4.3 1.3 4.3 3.9 0 1.3-1.2 2.2-2.7 2.2-2 0-3-1.4-3-1.4l.5-.7zm8.7-4.6c0-.2-.1-.3-.3-.3h-.7v-1h1.1c.7 0 .9.3.9.8v.5s.6-1.5 2.7-1.5 3.4 1.7 3.4 4.1c0 2.5-1.5 4.1-3.5 4.1-1.9 0-2.5-1.5-2.5-1.5v4.4h-1v-9.6zm3.5 5.7c1.4 0 2.5-1.2 2.5-3.1 0-1.9-1-3.1-2.5-3.1-1.3 0-2.5.9-2.5 3.1 0 1.6.8 3.1 2.5 3.1zm10.2-7.2c2.1 0 3.3 1.6 3.3 3.6v.5h-6c0 2 1.4 3.1 3 3.1 1.4 0 2.3-1 2.3-1l.5.8s-1.1 1.1-2.9 1.1c-2.3 0-4.1-1.7-4.1-4.1 0-2.4 1.8-4 3.9-4zm2.1 3.3c-.1-1.6-1-2.4-2.2-2.4-1.3 0-2.4.8-2.7 2.4h4.9zm8.1-3.3c.9 0 2.8.4 2.8 1.6v.7h-1v-.4c0-.6-1.1-1-1.8-1-1.7 0-3 1.2-3 3.1 0 1.9 1.4 3.1 3 3.1s2.5-1.1 2.5-1.1l.5.8s-1 1.3-3 1.3c-2.3 0-4.1-1.7-4.1-4.1 0-2.3 1.8-4 4.1-4z"/><path class="st2" d="M663.3 169.3c0-.2-.1-.3-.3-.3h-.6v-1h1.1c.7 0 .9.3.9.9v5.6c0 .2.1.3.3.3h.6v.9h-1.1c-.7 0-.9-.3-.9-.9v-5.5zm0-4.4h1v1.3h-1v-1.3zm5.4 4h-1v-.9h1v-.3c0-2.6 1.8-2.9 2.7-2.9h.5v.9h-.4c-.6 0-1.7.2-1.7 1.9v.3h2v.9h-2v6.9h-1v-6.8zm6.3.4c0-.2-.1-.3-.3-.3h-.7v-1h1.1c.7 0 .9.3.9.9v5.6c0 .2.1.3.3.3h.6v.9h-1.1c-.7 0-.9-.3-.9-.9v-5.5zm-.1-4.4h1v1.3h-1v-1.3zm8.8 2.9c.9 0 2.8.4 2.8 1.6v.7h-1v-.4c0-.6-1.1-1-1.8-1-1.7 0-3 1.2-3 3.1 0 1.9 1.4 3.1 3 3.1s2.5-1.1 2.5-1.1l.5.8s-1 1.3-3 1.3c-2.3 0-4.1-1.7-4.1-4.1 0-2.3 1.8-4 4.1-4zm6.2-1.6c0-.2-.1-.3-.3-.3h-.6v-.9h1.1c.7 0 .9.3.9.9v3.9c.3-.7 1.3-1.9 3.1-1.9 1.9 0 2.6 1.1 2.6 3v3.7c0 .2.1.3.3.3h.6v.9h-1.1c-.7 0-.9-.3-.9-.9v-3.7c0-1.2-.2-2.3-1.7-2.3-1.3 0-2.5.9-2.8 2.2-.1.3-.1.7-.1 1v3.7h-1v-9.6zm14 1.6c2.1 0 3.3 1.6 3.3 3.6v.5h-6c0 2 1.4 3.1 3 3.1 1.4 0 2.3-1 2.3-1l.5.8s-1.1 1.1-2.9 1.1c-2.3 0-4.1-1.7-4.1-4.1.1-2.4 1.8-4 3.9-4zm2.2 3.3c-.1-1.6-1-2.4-2.2-2.4-1.3 0-2.4.8-2.7 2.4h4.9zm-136.2 13.6c0-.2-.1-.3-.3-.3h-.6v-.9h1.1c.7 0 .9.3.9.8v.5s.6-1.5 2.7-1.5 3.4 1.7 3.4 4.1c0 2.5-1.5 4.1-3.5 4.1-1.9 0-2.5-1.5-2.5-1.5v4.4h-1v-9.7zm3.5 5.8c1.4 0 2.5-1.2 2.5-3.1 0-1.9-1-3.1-2.5-3.1-1.3 0-2.5.9-2.5 3.1.1 1.5.9 3.1 2.5 3.1zm10.2-7.2c2.1 0 3.3 1.6 3.3 3.6v.5h-6c0 2 1.4 3.1 3 3.1 1.4 0 2.3-1 2.3-1l.5.8s-1.1 1.1-2.9 1.1c-2.3 0-4.1-1.7-4.1-4.1.1-2.5 1.9-4 3.9-4zm2.2 3.2c-.1-1.6-1-2.4-2.2-2.4-1.3 0-2.4.8-2.7 2.4h4.9zm4.7-1.8c0-.2-.1-.3-.3-.3h-.6v-.9h1.1c.6 0 .9.3.9.9v1.1c.4-1.2 1.2-2.1 2.5-2.1h.4v1h-.4c-1.1 0-1.9.9-2.3 2-.2.5-.2 1-.2 1.5v3.3h-1v-6.5zm12.9 0c0-.2-.1-.3-.3-.3h-.6v-.9h1.1c.7 0 .9.3.9.8v.5s.6-1.5 2.7-1.5 3.4 1.7 3.4 4.1c0 2.5-1.5 4.1-3.5 4.1-1.9 0-2.5-1.5-2.5-1.5v4.4h-1v-9.7zm3.5 5.8c1.4 0 2.5-1.2 2.5-3.1 0-1.9-1-3.1-2.5-3.1-1.3 0-2.5.9-2.5 3.1 0 1.5.9 3.1 2.5 3.1zm7.1-5.8c0-.2-.1-.3-.3-.3h-.7v-.9h1.1c.6 0 .9.3.9.9v1.1c.4-1.2 1.2-2.1 2.5-2.1h.4v1h-.4c-1.1 0-1.9.9-2.3 2-.2.5-.2 1-.2 1.5v3.3h-1v-6.5zm9.9-1.4c2.1 0 3.3 1.6 3.3 3.6v.5h-6c0 2 1.4 3.1 3 3.1 1.4 0 2.3-1 2.3-1l.5.8s-1.1 1.1-2.9 1.1c-2.3 0-4.1-1.7-4.1-4.1.1-2.5 1.8-4 3.9-4zm2.2 3.2c-.1-1.6-1-2.4-2.2-2.4-1.3 0-2.4.8-2.7 2.4h4.9zm4.4 2.8s.9 1.2 2.4 1.2c.9 0 1.6-.4 1.6-1.2 0-1.7-4.3-1.4-4.3-3.9 0-1.4 1.2-2.1 2.8-2.1.8 0 2.4.3 2.4 1.4v.7h-1v-.4c0-.6-.8-.8-1.3-.8-1.1 0-1.7.4-1.7 1.1 0 1.7 4.3 1.3 4.3 3.9 0 1.3-1.2 2.2-2.7 2.2-2 0-3-1.4-3-1.4l.5-.7zm11.7-6c2.1 0 3.3 1.6 3.3 3.6v.5h-6c0 2 1.4 3.1 3 3.1 1.4 0 2.3-1 2.3-1l.5.8s-1.1 1.1-2.9 1.1c-2.3 0-4.1-1.7-4.1-4.1.1-2.5 1.8-4 3.9-4zm2.2 3.2c-.1-1.6-1-2.4-2.2-2.4-1.3 0-2.4.8-2.7 2.4h4.9zm4.7-1.8c0-.2-.1-.3-.3-.3h-.6v-.9h1.1c.6 0 .9.3.9.9v1.1c.4-1.2 1.2-2.1 2.5-2.1h.4v1h-.4c-1.1 0-1.9.9-2.3 2-.2.5-.2 1-.2 1.5v3.3h-1v-6.5zm6.9 0c-.1-.3-.3-.4-.5-.4h-.1v-.9h.4c.7 0 1 .2 1.2.8l1.9 4.8c.1.4.3.9.3.9s.1-.5.3-.9l1.9-4.8c.3-.7.5-.8 1.2-.8h.4v.9h-.1c-.3 0-.4.1-.5.4l-2.5 6.5h-1.1l-2.8-6.5zm13.9 1.7h.4v-.1c0-1.6-.6-2.2-2-2.2-.4 0-1.5.1-1.5.7v.5h-1v-.7c0-1.1 1.9-1.3 2.5-1.3 2.5 0 3 1.3 3 3v3.7c0 .2.1.3.3.3h.6v.9h-1.1c-.7 0-.9-.3-.9-.9v-.6s-.6 1.7-2.6 1.7c-1.3 0-2.6-.8-2.6-2.3.2-2.6 3.6-2.7 4.9-2.7zm-1.9 4.1c1.5 0 2.4-1.5 2.4-2.9v-.4h-.4c-1.2 0-3.7 0-3.7 1.8-.1.8.5 1.5 1.7 1.5zm7.6-5.8c0-.2-.1-.3-.3-.3h-.6v-.9h1.1c.6 0 .9.3.9.9v1.1c.4-1.2 1.2-2.1 2.5-2.1h.4v1h-.4c-1.1 0-1.9.9-2.3 2-.2.5-.2 1-.2 1.5v3.3h-1v-6.5zm9.9-1.4c2.1 0 3.3 1.6 3.3 3.6v.5h-6c0 2 1.4 3.1 3 3.1 1.4 0 2.3-1 2.3-1l.5.8s-1.1 1.1-2.9 1.1c-2.3 0-4.1-1.7-4.1-4.1.1-2.5 1.8-4 3.9-4zm2.2 3.2c-.1-1.6-1-2.4-2.2-2.4-1.3 0-2.4.8-2.7 2.4h4.9zm13.5-3.2c2.1 0 3.3 1.6 3.3 3.6v.5h-6c0 2 1.4 3.1 3 3.1 1.4 0 2.3-1 2.3-1l.5.8s-1.1 1.1-2.9 1.1c-2.3 0-4.1-1.7-4.1-4.1.1-2.5 1.8-4 3.9-4zm2.2 3.2c-.1-1.6-1-2.4-2.2-2.4-1.3 0-2.4.8-2.7 2.4h4.9zm-150 13.6c0-.2-.1-.3-.3-.3h-.6v-.9h1.1c.6 0 .9.3.9.9v1c.4-1 1.6-2 2.8-2 1.4 0 2.2.7 2.4 1.9.4-1 1.5-1.9 2.9-1.9 1.9 0 2.6 1.1 2.6 3v3.7c0 .2.1.3.3.3h.6v.9H565c-.7 0-.9-.3-.9-.9V202c0-1.3-.3-2.3-1.7-2.3-1.2 0-2.1 1-2.5 2.2-.1.3-.1.7-.1 1.1v3.7h-1V202c0-1.2-.2-2.3-1.6-2.3-1.3 0-2.2 1.1-2.5 2.3-.1.3-.1.7-.1 1v3.7h-1v-6.6zm16 0c0-.2-.1-.3-.3-.3h-.6v-.9h1.1c.7 0 .9.3.9.9v5.6c0 .2.1.3.3.3h.6v.9h-1.1c-.7 0-.9-.3-.9-.9v-5.6zm-.1-4.3h1v1.3h-1v-1.3zm8.1 2.9c2.1 0 2.6 1.3 2.6 1.3v-.3c0-.6.2-.8.9-.8h1.1v.9h-.6c-.2 0-.3.1-.3.3v6.3c0 2.5-1.8 3.4-3.7 3.4-.9 0-1.8-.2-2.5-.6l.4-.9s1 .5 2.1.5c1.5 0 2.7-.7 2.7-2.4v-1.3c-.5.8-1.2 1.3-2.4 1.3-2.1 0-3.5-1.7-3.5-4-.2-2.1 1.1-3.7 3.2-3.7zm2.5 3.9c0-2.3-1.1-3-2.5-3-1.5 0-2.4 1.1-2.4 2.9 0 1.9 1 3.1 2.5 3.1 1.4 0 2.4-.7 2.4-3zm5.3-5.6c0-.2-.1-.3-.3-.3h-.6v-.9h1.1c.7 0 .9.3.9.9v8.7c0 .2.1.3.3.3h.6v.9h-1.1c-.7 0-.9-.3-.9-.9V197zm5.4 3.1c0-.2-.1-.3-.3-.3h-.6v-.9h1.1c.7 0 .9.3.9.9v5.6c0 .2.1.3.3.3h.6v.9h-1.1c-.7 0-.9-.3-.9-.9v-5.6zm-.1-4.3h1v1.3h-1v-1.3zm8.8 2.9c2.3 0 4.1 1.7 4.1 4s-1.8 4.1-4.1 4.1-4.1-1.8-4.1-4.1 1.8-4 4.1-4zm0 7.2c1.7 0 3-1.4 3-3.2 0-1.8-1.4-3.1-3-3.1-1.7 0-3 1.3-3 3.1s1.3 3.2 3 3.2zm7.6-5.8c0-.2-.1-.3-.3-.3h-.6v-.9h1.1c.6 0 .9.3.9.9v1.1c.4-1.2 1.2-2.1 2.5-2.1h.4v1h-.4c-1.1 0-1.9.9-2.3 2-.2.5-.2 1-.2 1.5v3.3h-1v-6.5zm10.6 1.7h.4v-.1c0-1.6-.6-2.2-2-2.2-.4 0-1.5.1-1.5.7v.5h-1v-.7c0-1.1 1.9-1.3 2.5-1.3 2.5 0 3 1.3 3 3v3.7c0 .2.1.3.3.3h.6v.9h-1.1c-.7 0-.9-.3-.9-.9v-.6s-.6 1.7-2.6 1.7c-1.3 0-2.6-.8-2.6-2.3.2-2.6 3.6-2.7 4.9-2.7zm-1.9 4.1c1.5 0 2.4-1.5 2.4-2.9v-.4h-.4c-1.2 0-3.7 0-3.7 1.8-.1.8.5 1.5 1.7 1.5zm7.6-5.8c0-.2-.1-.3-.3-.3h-.6v-.9h1.1c.6 0 .9.3.9.9v1.1c.4-1.2 1.2-2.1 2.5-2.1h.4v1h-.4c-1.1 0-1.9.9-2.3 2-.2.5-.2 1-.2 1.5v3.3h-1v-6.5zm9.9-1.4c2.1 0 3.3 1.6 3.3 3.6v.5h-6c0 2 1.4 3.1 3 3.1 1.4 0 2.3-1 2.3-1l.5.8s-1.1 1.1-2.9 1.1c-2.3 0-4.1-1.7-4.1-4.1.1-2.5 1.8-4 3.9-4zm2.2 3.3c-.1-1.6-1-2.4-2.2-2.4-1.3 0-2.4.8-2.7 2.4h4.9zm10.4-5c0-.2-.1-.3-.3-.3h-.6v-.9h1.1c.7 0 .9.3.9.9v8.7c0 .2.1.3.3.3h.6v.9h-1.1c-.7 0-.9-.3-.9-.9V197zm9.4 4.8h.4v-.1c0-1.6-.6-2.2-2-2.2-.4 0-1.5.1-1.5.7v.5h-1v-.7c0-1.1 1.9-1.3 2.5-1.3 2.5 0 3 1.3 3 3v3.7c0 .2.1.3.3.3h.6v.9h-1.1c-.7 0-.9-.3-.9-.9v-.6s-.6 1.7-2.6 1.7c-1.3 0-2.6-.8-2.6-2.3.1-2.6 3.5-2.7 4.9-2.7zm-2 4.1c1.5 0 2.4-1.5 2.4-2.9v-.4h-.4c-1.2 0-3.7 0-3.7 1.8 0 .8.6 1.5 1.7 1.5zm16.2-7.2c1.9 0 2.6 1.5 2.6 1.5v-.5c0-.5.3-.8.9-.8h1.1v.9h-.6c-.2 0-.3.1-.3.3v9.6h-1v-4.4s-.6 1.5-2.6 1.5c-2.1 0-3.4-1.7-3.4-4.1-.2-2.4 1.3-4 3.3-4zm2.6 4c0-1.6-.8-3.1-2.5-3.1-1.4 0-2.5 1.2-2.5 3.1 0 1.9 1 3.1 2.5 3.1 1.2.1 2.5-.9 2.5-3.1zm5.2-2.6c0-.2-.1-.3-.3-.3h-.6v-.9h1.1c.7 0 .9.3.9.9v3.7c0 1.2.2 2.3 1.7 2.3 1.8 0 2.9-1.6 2.9-3.2v-3.7h1v6.5c0 .2.1.3.3.3h.6v.9h-1.1c-.6 0-.9-.3-.9-.9v-1c-.3.8-1.3 2-3 2-1.8 0-2.6-1-2.6-3v-3.6zm14.9 1.7h.4v-.1c0-1.6-.6-2.2-2-2.2-.4 0-1.5.1-1.5.7v.5h-1v-.7c0-1.1 1.9-1.3 2.5-1.3 2.5 0 3 1.3 3 3v3.7c0 .2.1.3.3.3h.6v.9h-1.1c-.7 0-.9-.3-.9-.9v-.6s-.6 1.7-2.6 1.7c-1.3 0-2.6-.8-2.6-2.3.1-2.6 3.5-2.7 4.9-2.7zm-2 4.1c1.5 0 2.4-1.5 2.4-2.9v-.4h-.4c-1.2 0-3.7 0-3.7 1.8 0 .8.6 1.5 1.7 1.5zm7.6-8.9c0-.2-.1-.3-.3-.3h-.6v-.9h1.1c.7 0 .9.3.9.9v8.7c0 .2.1.3.3.3h.6v.9h-1.1c-.7 0-.9-.3-.9-.9V197zm5.4 3.1c0-.2-.1-.3-.3-.3h-.7v-.9h1.1c.7 0 .9.3.9.9v5.6c0 .2.1.3.3.3h.6v.9h-.9c-.7 0-.9-.3-.9-.9v-5.6zm0-4.3h1v1.3h-1v-1.3zm5.5 3.9h-1v-.9h1v-2.1h1v2.1h1.9v.9h-1.9v3.9c0 1.8 1.2 2.1 1.7 2.1h.4v.9h-.4c-.9 0-2.7-.3-2.7-2.9v-4zm10.5 2.1h.4v-.1c0-1.6-.6-2.2-2-2.2-.4 0-1.5.1-1.5.7v.5h-1v-.7c0-1.1 1.9-1.3 2.5-1.3 2.5 0 3 1.3 3 3v3.7c0 .2.1.3.3.3h.6v.9h-1.1c-.7 0-.9-.3-.9-.9v-.6s-.6 1.7-2.6 1.7c-1.3 0-2.6-.8-2.6-2.3.1-2.6 3.6-2.7 4.9-2.7zm-2 4.1c1.5 0 2.4-1.5 2.4-2.9v-.4h-.4c-1.2 0-3.7 0-3.7 1.8 0 .8.6 1.5 1.7 1.5zm-1.2-10.1h1.2l1.1 1.8h-.9l-1.4-1.8zm-158.5 18.3c1.9 0 2.5 1.4 2.5 1.4v-3.1c0-.2-.1-.3-.3-.3h-.6v-.9h1.1c.7 0 .9.3.9.9v8.7c0 .2.1.3.3.3h.6v.9h-1.1c-.6 0-.9-.3-.9-.9v-.5s-.6 1.5-2.7 1.5-3.4-1.7-3.4-4.1c.1-2.3 1.6-3.9 3.6-3.9zm2.6 4.1c0-1.6-.8-3.1-2.5-3.1-1.4 0-2.5 1.2-2.5 3.1 0 1.9 1 3.1 2.5 3.1 1.3 0 2.5-.9 2.5-3.1zm8.3-4.1c2.1 0 3.3 1.6 3.3 3.6v.5h-6c0 2 1.4 3.1 3 3.1 1.4 0 2.3-1 2.3-1l.5.8s-1.1 1.1-2.9 1.1c-2.3 0-4.1-1.7-4.1-4.1.1-2.5 1.8-4 3.9-4zm2.2 3.3c-.1-1.6-1-2.4-2.2-2.4-1.3 0-2.4.8-2.7 2.4h4.9zm4.7-4.9c0-.2-.1-.3-.3-.3h-.6v-.9h1.1c.7 0 .9.3.9.9v8.7c0 .2.1.3.3.3h.6v.9H576c-.7 0-.9-.3-.9-.9v-8.7zm5.3 0c0-.2-.1-.3-.3-.3h-.6v-.9h1.1c.7 0 .9.3.9.9v8.7c0 .2.1.3.3.3h.6v.9h-1.1c-.7 0-.9-.3-.9-.9v-8.7zm8.5 1.6c2.1 0 3.3 1.6 3.3 3.6v.5h-6c0 2 1.4 3.1 3 3.1 1.4 0 2.3-1 2.3-1l.5.8s-1.1 1.1-2.9 1.1c-2.3 0-4.1-1.7-4.1-4.1 0-2.5 1.8-4 3.9-4zm2.1 3.3c-.1-1.6-1-2.4-2.2-2.4-1.3 0-2.4.8-2.7 2.4h4.9zm10.5-1.9c0-.2-.1-.3-.3-.3h-.6v-.9h1.1c.6 0 .9.3.9.9v1.1c.4-1.2 1.2-2.1 2.5-2.1h.4v1h-.4c-1.1 0-1.9.9-2.3 2-.2.5-.2 1-.2 1.5v3.3h-1v-6.5zm7.2 0c0-.2-.1-.3-.3-.3h-.6v-.9h1.1c.7 0 .9.3.9.9v5.6c0 .2.1.3.3.3h.6v.9h-1.1c-.7 0-.9-.3-.9-.9v-5.6zm0-4.3h1v1.3h-1v-1.3zm5 8.9s.9 1.2 2.4 1.2c.9 0 1.6-.4 1.6-1.2 0-1.7-4.3-1.4-4.3-3.9 0-1.4 1.2-2.1 2.8-2.1.8 0 2.4.3 2.4 1.4v.7h-1v-.4c0-.6-.8-.8-1.3-.8-1.1 0-1.7.4-1.7 1.1 0 1.7 4.3 1.3 4.3 3.9 0 1.3-1.2 2.2-2.7 2.2-2 0-3-1.4-3-1.4l.5-.7zm12-6c2.3 0 4.1 1.7 4.1 4s-1.8 4.1-4.1 4.1-4.1-1.8-4.1-4.1 1.9-4 4.1-4zm0 7.2c1.7 0 3-1.4 3-3.2 0-1.8-1.4-3.1-3-3.1-1.7 0-3 1.3-3 3.1s1.4 3.2 3 3.2zm7.6-5.8c0-.2-.1-.3-.3-.3h-.6v-.9h1.1c.6 0 .9.3.9.9v1.1c.4-1.2 1.2-2.1 2.5-2.1h.4v1h-.4c-1.1 0-1.9.9-2.3 2-.2.5-.2 1-.2 1.5v3.3h-1v-6.5zm6.8 4.6s.9 1.2 2.4 1.2c.9 0 1.6-.4 1.6-1.2 0-1.7-4.3-1.4-4.3-3.9 0-1.4 1.2-2.1 2.8-2.1.8 0 2.4.3 2.4 1.4v.7h-1v-.4c0-.6-.8-.8-1.3-.8-1.1 0-1.7.4-1.7 1.1 0 1.7 4.3 1.3 4.3 3.9 0 1.3-1.2 2.2-2.7 2.2-2 0-3-1.4-3-1.4l.5-.7zm11.8-6c2.1 0 3.3 1.6 3.3 3.6v.5h-6c0 2 1.4 3.1 3 3.1 1.4 0 2.3-1 2.3-1l.5.8s-1.1 1.1-2.9 1.1c-2.3 0-4.1-1.7-4.1-4.1 0-2.5 1.8-4 3.9-4zm2.1 3.3c-.1-1.6-1-2.4-2.2-2.4-1.3 0-2.4.8-2.7 2.4h4.9zm10.6-1.9c0-.2-.1-.3-.3-.3h-.6v-.9h1.1c.7 0 .9.3.9.9v5.6c0 .2.1.3.3.3h.6v.9h-1.1c-.7 0-.9-.3-.9-.9v-5.6zm-.1-4.3h1v1.3h-1v-1.3zm8.2 2.9c1.9 0 2.5 1.4 2.5 1.4v-3.1c0-.2-.1-.3-.3-.3h-.6v-.9h1.1c.7 0 .9.3.9.9v8.7c0 .2.1.3.3.3h.6v.9h-1.1c-.6 0-.9-.3-.9-.9v-.5s-.6 1.5-2.7 1.5-3.4-1.7-3.4-4.1c.1-2.3 1.6-3.9 3.6-3.9zm2.6 4.1c0-1.6-.8-3.1-2.5-3.1-1.4 0-2.5 1.2-2.5 3.1 0 1.9 1 3.1 2.5 3.1 1.2 0 2.5-.9 2.5-3.1zm5.2-2.7c0-.2-.1-.3-.3-.3h-.6v-.9h1.1c.6 0 .9.3.9.9v1.1c.4-1.2 1.2-2.1 2.5-2.1h.4v1h-.4c-1.1 0-1.9.9-2.3 2-.2.5-.2 1-.2 1.5v3.3h-1v-6.5zm7.2 0c0-.2-.1-.3-.3-.3h-.6v-.9h1.1c.7 0 .9.3.9.9v5.6c0 .2.1.3.3.3h.6v.9h-1.1c-.7 0-.9-.3-.9-.9v-5.6zm0-4.3h1v1.3h-1v-1.3zm8.7 2.9c.9 0 2.8.4 2.8 1.6v.7h-1v-.4c0-.6-1.1-1-1.8-1-1.7 0-3 1.2-3 3.1 0 1.9 1.4 3.1 3 3.1s2.5-1.1 2.5-1.1l.5.8s-1 1.3-3 1.3c-2.3 0-4.1-1.7-4.1-4.1 0-2.3 1.8-4 4.1-4zm6.2-1.6c0-.2-.1-.3-.3-.3h-.6v-.9h1.1c.7 0 .9.3.9.9v3.9c.3-.7 1.3-1.9 3.1-1.9 1.9 0 2.6 1.1 2.6 3v3.7c0 .2.1.3.3.3h.6v.9h-1.1c-.7 0-.9-.3-.9-.9v-3.7c0-1.2-.2-2.3-1.7-2.3-1.3 0-2.5.9-2.8 2.2-.1.3-.1.7-.1 1v3.7h-1v-9.6zm14.1 1.6c2.1 0 3.3 1.6 3.3 3.6v.5h-6c0 2 1.4 3.1 3 3.1 1.4 0 2.3-1 2.3-1l.5.8s-1.1 1.1-2.9 1.1c-2.3 0-4.1-1.7-4.1-4.1 0-2.5 1.8-4 3.9-4zm2.1 3.3c-.1-1.6-1-2.4-2.2-2.4-1.3 0-2.4.8-2.7 2.4h4.9zm-121.4 12.1c1.9 0 2.5 1.4 2.5 1.4v-3.1c0-.2-.1-.3-.3-.3h-.6v-.9h1.1c.7 0 .9.3.9.9v8.7c0 .2.1.3.3.3h.6v.9h-1.1c-.6 0-.9-.3-.9-.9v-.5s-.6 1.5-2.7 1.5-3.4-1.7-3.4-4.1c.1-2.3 1.5-3.9 3.6-3.9zm2.5 4.1c0-1.6-.8-3.1-2.5-3.1-1.4 0-2.5 1.2-2.5 3.1 0 1.9 1 3.1 2.5 3.1 1.3 0 2.5-.9 2.5-3.1zm5.4-2.6c0-.2-.1-.3-.3-.3h-.6v-.9h1.1c.7 0 .9.3.9.9v5.6c0 .2.1.3.3.3h.6v.9h-1.1c-.7 0-.9-.3-.9-.9V231zm-.1-4.4h1v1.3h-1v-1.3zm5.1 9s.9 1.2 2.4 1.2c.9 0 1.6-.4 1.6-1.2 0-1.7-4.3-1.4-4.3-3.9 0-1.4 1.2-2.1 2.8-2.1.8 0 2.4.3 2.4 1.4v.7h-1v-.4c0-.6-.8-.8-1.3-.8-1.1 0-1.7.4-1.7 1.1 0 1.7 4.3 1.3 4.3 3.9 0 1.3-1.2 2.2-2.7 2.2-2 0-3-1.4-3-1.4l.5-.7zm8.6-4.6c0-.2-.1-.3-.3-.3h-.6v-.9h1.1c.7 0 .9.3.9.8v.5s.6-1.5 2.7-1.5 3.4 1.7 3.4 4.1c0 2.5-1.5 4.1-3.5 4.1-1.9 0-2.5-1.5-2.5-1.5v4.4h-1V231zm3.5 5.7c1.4 0 2.5-1.2 2.5-3.1 0-1.9-1-3.1-2.5-3.1-1.3 0-2.5.9-2.5 3.1 0 1.6.9 3.1 2.5 3.1zm10.5-7.2c2.3 0 4.1 1.7 4.1 4s-1.8 4.1-4.1 4.1-4.1-1.8-4.1-4.1 1.8-4 4.1-4zm0 7.2c1.7 0 3-1.4 3-3.2 0-1.8-1.4-3.1-3-3.1-1.7 0-3 1.3-3 3.1 0 1.9 1.3 3.2 3 3.2zm7.6-5.7c0-.2-.1-.3-.3-.3h-.6v-.9h1.1c.6 0 .9.3.9.9v1c.3-.7 1.3-2 3.1-2 1.9 0 2.6 1.1 2.6 3v3.7c0 .2.1.3.3.3h.6v.9h-1.1c-.7 0-.9-.3-.9-.9V233c0-1.2-.2-2.3-1.7-2.3-1.3 0-2.5.9-2.8 2.2-.1.3-.1.7-.1 1v3.7h-1V231zm11 0c0-.2-.1-.3-.3-.3h-.6v-.9h1.1c.7 0 .9.3.9.9v5.6c0 .2.1.3.3.3h.6v.9h-1.1c-.7 0-.9-.3-.9-.9V231zm-.1-4.4h1v1.3h-1v-1.3zm5.4 1.3c0-.2-.1-.3-.3-.3h-.6v-.9h1.1c.7 0 .9.3.9.9v3.4s.6-1.5 2.6-1.5c2.1 0 3.4 1.7 3.4 4.1 0 2.5-1.5 4.1-3.5 4.1-1.9 0-2.5-1.5-2.5-1.5v1.3h-1v-9.6zm3.4 8.8c1.4 0 2.5-1.2 2.5-3.1 0-1.9-1-3.1-2.5-3.1-1.3 0-2.5.9-2.5 3.1.1 1.6.9 3.1 2.5 3.1zm7.2-5.7c0-.2-.1-.3-.3-.3h-.6v-.9h1.1c.7 0 .9.3.9.9v5.6c0 .2.1.3.3.3h.6v.9h-1.1c-.7 0-.9-.3-.9-.9V231zm0-4.4h1v1.3h-1v-1.3zm5.3 1.3c0-.2-.1-.3-.3-.3h-.6v-.9h1.1c.7 0 .9.3.9.9v8.7c0 .2.1.3.3.3h.6v.9h-1.1c-.7 0-.9-.3-.9-.9v-8.7zm5.5 3.1c0-.2-.1-.3-.3-.3h-.6v-.9h1.1c.7 0 .9.3.9.9v5.6c0 .2.1.3.3.3h.6v.9h-1.1c-.7 0-.9-.3-.9-.9V231zm-.1-4.4h1v1.3h-1v-1.3zm93.7 8.7s1.8 2.1 4.4 2.1c1.6 0 3-1 3-2.6 0-3.7-8.4-3.1-8.4-8.5 0-2.6 2.3-4.7 5.6-4.7 1.9 0 5 .8 5 3.2v1.4H779v-.8c0-.9-1.3-1.6-2.7-1.6-1.9 0-3.1 1-3.1 2.4 0 3.5 8.4 2.7 8.4 8.5 0 2.7-2.1 5-5.5 5-3.7 0-5.8-2.6-5.8-2.6l1.5-1.8zm21.8-3.7h.5v-.1c0-2.2-.8-3-2.8-3-.6 0-2.1.1-2.1 1v.7h-2.3V229c0-2.1 3.1-2.4 4.3-2.4 4.1 0 5.2 2.1 5.2 4.9v5.3c0 .4.2.5.5.5h1v2.1h-2.3c-1.1 0-1.6-.5-1.6-1.4v-.7s-1 2.5-4 2.5c-2.2 0-4.3-1.3-4.3-3.8.4-4.2 5.8-4.4 7.9-4.4zm-2.7 6.1c2 0 3.3-2.1 3.3-4v-.4h-.6c-1.8 0-5.1.1-5.1 2.4 0 1 .8 2 2.4 2zm12.3-13.2c0-.4-.2-.5-.5-.5h-1v-2.1h2.4c1.1 0 1.6.5 1.6 1.6v13.3c0 .4.2.5.5.5h1v2.1h-2.4c-1.1 0-1.6-.5-1.6-1.6v-13.3zm8.4 4.9c-.1-.4-.4-.5-.8-.5h-.2v-2.1h1.2c1.1 0 1.5.3 1.9 1.3l2.7 7.2c.2.7.4 1.6.4 1.6s.2-.9.4-1.6l2.7-7.2c.4-1 .8-1.3 1.9-1.3h1.2v2.1h-.2c-.4 0-.7.1-.8.5l-3.8 10h-2.8l-3.8-10zm22.6 2.2h.5v-.1c0-2.2-.8-3-2.8-3-.6 0-2.1.1-2.1 1v.7h-2.3V229c0-2.1 3.1-2.4 4.3-2.4 4.1 0 5.2 2.1 5.2 4.9v5.3c0 .4.2.5.5.5h1v2.1h-2.3c-1.1 0-1.6-.5-1.6-1.4v-.7s-1 2.5-4 2.5c-2.2 0-4.3-1.3-4.3-3.8.4-4.2 5.8-4.4 7.9-4.4zm-2.7 6.1c2 0 3.3-2.1 3.3-4v-.4h-.6c-1.8 0-5.1.1-5.1 2.4 0 1 .8 2 2.4 2zm16.6-11.2c3.1 0 4 2 4 2v-.4c0-.7.4-1.3 1.4-1.3h2.3v2.1h-1c-.3 0-.5.2-.5.5v9.5c0 4.1-3.1 5.7-6.3 5.7-1.5 0-3-.4-4.3-1l.8-1.9s1.5.8 3.4.8c2.2 0 4-1 4-3.5v-1.6c-.7 1.2-1.9 1.9-3.7 1.9-3.5 0-5.6-2.8-5.6-6.4 0-3.7 2-6.4 5.5-6.4zm3.9 6.3c0-3.3-1.6-4.2-3.5-4.2-2.2 0-3.4 1.6-3.4 4.1 0 2.6 1.4 4.4 3.6 4.4 1.7 0 3.3-1 3.3-4.3zm9-3.4c0-.4-.2-.5-.5-.5h-1v-2.1h2.4c1.1 0 1.6.5 1.6 1.5v5.9c0 1.7.3 3.1 2.3 3.1 2.6 0 4.1-2.3 4.1-4.7v-5.9h2.4v9.9c0 .4.2.5.5.5h1v2.1h-2.3c-1.1 0-1.6-.5-1.6-1.4v-1.2c-.5 1.2-2.1 2.9-4.6 2.9-2.8 0-4.3-1.5-4.3-4.8v-5.3zm24.2 2.2h.5v-.1c0-2.2-.8-3-2.8-3-.6 0-2.1.1-2.1 1v.7h-2.3V229c0-2.1 3.1-2.4 4.3-2.4 4.1 0 5.2 2.1 5.2 4.9v5.3c0 .4.2.5.5.5h1v2.1h-2.3c-1.1 0-1.6-.5-1.6-1.4v-.7s-1 2.5-4 2.5c-2.2 0-4.3-1.3-4.3-3.8.4-4.2 5.8-4.4 7.9-4.4zm-2.7 6.1c2 0 3.3-2.1 3.3-4v-.4h-.6c-1.8 0-5.1.1-5.1 2.4 0 1 .8 2 2.4 2zm12.3-8.3c0-.4-.2-.5-.5-.5h-1v-2.1h2.3c1.1 0 1.6.4 1.6 1.5v1.7c.6-1.8 2-3.3 4-3.3h.6v2.4s-.3-.1-.7-.1c-1.5 0-2.9 1.1-3.5 2.9-.2.7-.3 1.5-.3 2.3v5.1h-2.4v-9.9zm16.1-2.9c2.9 0 3.9 1.9 3.9 1.9v-3.9c0-.4-.2-.5-.5-.5h-1v-2.1h2.4c1.1 0 1.6.5 1.6 1.6v13.3c0 .4.2.5.5.5h1v2.1h-2.3c-1.1 0-1.5-.5-1.5-1.3v-.6s-1 2.3-4.1 2.3c-3.4 0-5.5-2.7-5.5-6.6-.2-4.1 2.2-6.7 5.5-6.7zm3.9 6.6c0-2.2-1.2-4.5-3.6-4.5-2 0-3.6 1.6-3.6 4.5 0 2.7 1.5 4.5 3.5 4.5s3.7-1.3 3.7-4.5zm9.2-3.7c0-.4-.2-.5-.5-.5h-1v-2.1h2.4c1.1 0 1.6.5 1.6 1.6v8.3c0 .4.2.5.5.5h1v2.1h-2.4c-1.1 0-1.6-.5-1.6-1.6v-8.3zm0-7.5h2.2v2.5H924v-2.5zm15.5 9.7h.5v-.1c0-2.2-.8-3-2.8-3-.6 0-2.1.1-2.1 1v.7H933V229c0-2.1 3.1-2.4 4.3-2.4 4.1 0 5.2 2.1 5.2 4.9v5.3c0 .4.2.5.5.5h1v2.1h-2.3c-1.1 0-1.6-.5-1.6-1.4v-.7s-1 2.5-4 2.5c-2.2 0-4.3-1.3-4.3-3.8.2-4.2 5.6-4.4 7.7-4.4zm-2.8 6.1c2 0 3.3-2.1 3.3-4v-.4h-.6c-1.8 0-5.1.1-5.1 2.4.1 1 .9 2 2.4 2zm-158.2 14.8c2.9 0 3.9 1.9 3.9 1.9v-3.9c0-.4-.2-.5-.5-.5h-1v-2.1h2.4c1.1 0 1.6.5 1.6 1.6v13.3c0 .4.2.5.5.5h1v2.1h-2.3c-1.1 0-1.5-.5-1.5-1.3v-.6s-1 2.3-4.1 2.3c-3.4 0-5.5-2.7-5.5-6.6-.1-4.2 2.2-6.7 5.5-6.7zm4 6.5c0-2.2-1.2-4.5-3.6-4.5-2 0-3.6 1.6-3.6 4.5 0 2.7 1.5 4.5 3.5 4.5 1.9 0 3.7-1.3 3.7-4.5zm14.1-6.5c3.5 0 5.4 2.6 5.4 5.9 0 .3-.1 1-.1 1h-9.1c.1 2.7 2.1 4.2 4.3 4.2 2.2 0 3.7-1.5 3.7-1.5l1 1.7s-1.9 1.8-4.8 1.8c-4 0-6.7-2.8-6.7-6.6 0-4 2.7-6.5 6.3-6.5zm2.9 5.1c-.1-2.1-1.4-3.2-2.9-3.2-1.8 0-3.3 1.1-3.7 3.2h6.6zm8.3-2.2c0-.4-.2-.5-.5-.5h-1v-2.1h2.4c1.1 0 1.6.5 1.6 1.6v8.3c0 .4.2.5.5.5h1v2.1h-2.4c-1.1 0-1.6-.5-1.6-1.6v-8.3zm0-7.6h2.2v2.5h-2.2v-2.5zm18.4 6.9h-1.6v-1.9h1.7v-3.4h2.4v3.4h3v1.9h-3v5.7c0 2.5 1.7 2.8 2.6 2.8h.6v2.1h-.8c-1.6 0-4.8-.5-4.8-4.7v-5.9zm15.9-2.2c3.5 0 5.4 2.6 5.4 5.9 0 .3-.1 1-.1 1h-9.1c.1 2.7 2.1 4.2 4.3 4.2 2.2 0 3.7-1.5 3.7-1.5l1 1.7s-1.9 1.8-4.8 1.8c-4 0-6.7-2.8-6.7-6.6.1-4 2.8-6.5 6.3-6.5zm3 5.1c-.1-2.1-1.4-3.2-2.9-3.2-1.8 0-3.3 1.1-3.7 3.2h6.6zm8.1-2.2c0-.4-.2-.5-.5-.5h-1v-2.1h2.3c1.1 0 1.6.4 1.6 1.5v1.7c.6-1.8 2-3.3 4-3.3h.6v2.4s-.3-.1-.7-.1c-1.5 0-2.9 1.1-3.5 2.9-.2.7-.3 1.5-.3 2.3v5.1h-2.4v-9.9zm12.2 0c0-.4-.2-.5-.5-.5h-1v-2.1h2.3c1.1 0 1.6.4 1.6 1.5v1.7c.6-1.8 2-3.3 4-3.3h.6v2.4s-.3-.1-.7-.1c-1.5 0-2.9 1.1-3.5 2.9-.2.7-.3 1.5-.3 2.3v5.1h-2.4v-9.9zm12.2 0c0-.4-.2-.5-.5-.5h-1v-2.1h2.4c1.1 0 1.6.5 1.6 1.6v8.3c0 .4.2.5.5.5h1v2.1h-2.4c-1.1 0-1.6-.5-1.6-1.6v-8.3zm.1-7.6h2.2v2.5h-2.2v-2.5zm9.2 6.9h-1.6v-1.9h1.7v-3.4h2.4v3.4h3v1.9h-3v5.7c0 2.5 1.7 2.8 2.6 2.8h.6v2.1h-.8c-1.6 0-4.8-.5-4.8-4.7v-5.9zm16.4-2.2c3.7 0 6.8 2.7 6.8 6.5s-3 6.6-6.8 6.6c-3.7 0-6.7-2.8-6.7-6.6s3-6.5 6.7-6.5zm0 11c2.4 0 4.3-1.9 4.3-4.5s-1.9-4.5-4.3-4.5-4.3 1.9-4.3 4.5 1.9 4.5 4.3 4.5zm12.2-8.1c0-.4-.2-.5-.5-.5h-1v-2.1h2.3c1.1 0 1.6.4 1.6 1.5v1.7c.6-1.8 2-3.3 4-3.3h.6v2.4s-.3-.1-.7-.1c-1.5 0-2.9 1.1-3.5 2.9-.2.7-.3 1.5-.3 2.3v5.1h-2.4v-9.9zm12.2 0c0-.4-.2-.5-.5-.5h-1v-2.1h2.4c1.1 0 1.6.5 1.6 1.6v8.3c0 .4.2.5.5.5h1v2.1h-2.4c-1.1 0-1.6-.5-1.6-1.6v-8.3zm.1-7.6h2.2v2.5h-2.2v-2.5zm9.4 5h2.5v2.6h-2.5v-2.6zm0 10h2.5v2.6h-2.5v-2.6zm-182.9 11.4c0-.2-.1-.3-.3-.3h-.6v-.9h1.1c.7 0 .9.3.9.9v5.5c0 .2.1.3.3.3h.6v.9h-1.1c-.7 0-.9-.3-.9-.9v-5.5zm-.1-4.3h1v1.3h-1v-1.3zm8.1 2.8c1.9 0 2.5 1.4 2.5 1.4V271c0-.2-.1-.3-.3-.3h-.6v-.9h1.1c.7 0 .9.3.9.9v8.6c0 .2.1.3.3.3h.6v.9h-1.1c-.6 0-.9-.3-.9-.9v-.5s-.6 1.5-2.7 1.5-3.4-1.7-3.4-4c.2-2.3 1.6-3.9 3.6-3.9zm2.6 4.1c0-1.6-.8-3.1-2.5-3.1-1.4 0-2.5 1.1-2.5 3.1 0 1.9 1 3.1 2.4 3.1s2.6-.9 2.6-3.1zm8.3-4.1c2.1 0 3.2 1.6 3.2 3.6v.5h-5.9c0 1.9 1.4 3.1 3 3.1 1.4 0 2.3-1 2.3-1l.5.8s-1.1 1.1-2.9 1.1c-2.3 0-4-1.7-4-4 0-2.5 1.7-4.1 3.8-4.1zm2.2 3.3c-.1-1.6-1-2.4-2.2-2.4-1.3 0-2.4.8-2.7 2.4h4.9zm4.7-1.8c0-.2-.1-.3-.3-.3h-.6v-.9h1.1c.6 0 .9.3.9.9v1c.3-.7 1.3-1.9 3.1-1.9 1.9 0 2.6 1.1 2.6 3v3.7c0 .2.1.3.3.3h.6v.9h-1.1c-.7 0-.9-.3-.9-.9v-4c0-1.2-.2-2.3-1.7-2.3-1.3 0-2.5.9-2.8 2.2-.1.3-.1.7-.1 1v3.7h-1v-6.4zm10.9-.4h-1v-.9h1v-2.1h1v2.1h1.9v.9H792v3.9c0 1.8 1.1 2 1.7 2h.4v.9h-.4c-.9 0-2.7-.3-2.7-2.9v-3.9zm6.7.4c0-.2-.1-.3-.3-.3h-.6v-.9h1.1c.7 0 .9.3.9.9v5.5c0 .2.1.3.3.3h.6v.9h-1.1c-.7 0-.9-.3-.9-.9v-5.5zm-.1-4.3h1v1.3h-1v-1.3zm5.4 3.9h-1v-.9h1v-.3c0-2.5 1.8-2.9 2.7-2.9h.5v.9h-.4c-.6 0-1.7.2-1.7 1.9v.3h2v.9h-2v6.8h-1v-6.7zm6.2.4c0-.2-.1-.3-.3-.3h-.6v-.9h1.1c.7 0 .9.3.9.9v5.5c0 .2.1.3.3.3h.6v.9h-1.1c-.7 0-.9-.3-.9-.9v-5.5zm0-4.3h1v1.3h-1v-1.3zm8.7 2.8c.9 0 2.7.4 2.7 1.6v.7h-1v-.4c0-.6-1.1-1-1.8-1-1.7 0-3 1.2-3 3.1 0 1.9 1.4 3.1 3 3.1s2.5-1.1 2.5-1.1l.5.8s-1 1.3-3 1.3c-2.3 0-4-1.6-4-4s1.8-4.1 4.1-4.1zm10.3 3.2h.4v-.1c0-1.6-.6-2.2-2-2.2-.4 0-1.5.1-1.5.7v.5h-1v-.8c0-1.1 1.8-1.3 2.5-1.3 2.4 0 3 1.3 3 3v3.7c0 .2.1.3.3.3h.6v.9h-1.1c-.7 0-.9-.3-.9-.9v-.6s-.6 1.7-2.6 1.7c-1.3 0-2.6-.8-2.6-2.3.2-2.5 3.5-2.6 4.9-2.6zm-1.9 4c1.5 0 2.4-1.5 2.4-2.9v-.4h-.4c-1.2 0-3.6 0-3.6 1.8-.2.8.4 1.5 1.6 1.5zm7.5-5.7c0-.2-.1-.3-.3-.3h-.6v-.9h1.1c.6 0 .9.3.9.9v1.1c.4-1.2 1.2-2.1 2.4-2.1h.4v1h-.4c-1.1 0-1.9.9-2.2 2-.2.5-.2 1-.2 1.5v3.3h-1v-6.5zm9.9-1.5c2.1 0 3.2 1.6 3.2 3.6v.5H841c0 1.9 1.4 3.1 3 3.1 1.4 0 2.3-1 2.3-1l.5.8s-1.1 1.1-2.9 1.1c-2.3 0-4-1.7-4-4 0-2.5 1.7-4.1 3.8-4.1zm2.1 3.3c-.1-1.6-1-2.4-2.2-2.4-1.3 0-2.4.8-2.7 2.4h4.9zm13.5-3.3c2.1 0 3.2 1.6 3.2 3.6v.5h-5.9c0 1.9 1.4 3.1 3 3.1 1.4 0 2.3-1 2.3-1l.5.8s-1.1 1.1-2.9 1.1c-2.3 0-4-1.7-4-4 0-2.5 1.8-4.1 3.8-4.1zm2.2 3.3c-.1-1.6-1-2.4-2.2-2.4-1.3 0-2.4.8-2.7 2.4h4.9zm10.4-1.8c0-.2-.1-.3-.3-.3h-.6v-.9h1.1c.7 0 .9.3.9.8v.5s.6-1.5 2.7-1.5 3.4 1.7 3.4 4c0 2.4-1.5 4-3.4 4s-2.5-1.5-2.5-1.5v4.4h-1v-9.5zm3.4 5.7c1.4 0 2.5-1.1 2.5-3.1 0-1.9-1-3.1-2.4-3.1-1.3 0-2.5.9-2.5 3.1 0 1.5.8 3.1 2.4 3.1zm7.1-5.7c0-.2-.1-.3-.3-.3h-.6v-.9h1.1c.6 0 .9.3.9.9v1.1c.4-1.2 1.2-2.1 2.4-2.1h.4v1h-.4c-1.1 0-1.9.9-2.2 2-.2.5-.2 1-.2 1.5v3.3h-1v-6.5zm10.1-1.5c2.3 0 4.1 1.7 4.1 4s-1.8 4.1-4.1 4.1-4.1-1.7-4.1-4.1c.1-2.2 1.9-4 4.1-4zm0 7.2c1.6 0 3-1.3 3-3.1 0-1.7-1.3-3.1-3-3.1s-3 1.3-3 3.1c0 1.7 1.4 3.1 3 3.1zm7.7-6.1h-1v-.9h1v-2.1h1v2.1h1.9v.9h-1.9v3.9c0 1.8 1.1 2 1.7 2h.4v.9h-.4c-.9 0-2.7-.3-2.7-2.9v-3.9zm9.5-1.1c2.1 0 3.2 1.6 3.2 3.6v.5H907c0 1.9 1.4 3.1 3 3.1 1.4 0 2.3-1 2.3-1l.5.8s-1.1 1.1-2.9 1.1c-2.3 0-4-1.7-4-4 0-2.5 1.7-4.1 3.8-4.1zm2.2 3.3c-.1-1.6-1-2.4-2.2-2.4-1.3 0-2.4.8-2.7 2.4h4.9zm7.3-3.3c2.1 0 2.6 1.3 2.6 1.3v-.3c0-.6.2-.8.9-.8h1.1v.9h-.6c-.2 0-.3.1-.3.3v6.3c0 2.5-1.8 3.4-3.7 3.4-.9 0-1.8-.2-2.5-.6l.4-.9s1 .5 2.1.5c1.5 0 2.7-.7 2.7-2.4v-1.3c-.5.8-1.2 1.3-2.4 1.3-2.1 0-3.4-1.6-3.4-4s1-3.7 3.1-3.7zm2.5 3.9c0-2.3-1.1-2.9-2.4-2.9-1.5 0-2.4 1.1-2.4 2.9 0 1.8 1 3 2.5 3 1.3.1 2.3-.7 2.3-3zm7.9-3.9c2.1 0 2.6 1.3 2.6 1.3v-.3c0-.6.2-.8.9-.8h1.1v.9h-.6c-.2 0-.3.1-.3.3v6.3c0 2.5-1.8 3.4-3.7 3.4-.9 0-1.8-.2-2.5-.6l.4-.9s1 .5 2.1.5c1.5 0 2.7-.7 2.7-2.4v-1.3c-.5.8-1.2 1.3-2.4 1.3-2.1 0-3.4-1.6-3.4-4s1-3.7 3.1-3.7zm2.6 3.9c0-2.3-1.1-2.9-2.4-2.9-1.5 0-2.4 1.1-2.4 2.9 0 1.8 1 3 2.5 3 1.2.1 2.3-.7 2.3-3zm8.2-3.9c2.1 0 3.2 1.6 3.2 3.6v.5h-5.9c0 1.9 1.4 3.1 3 3.1 1.4 0 2.3-1 2.3-1l.5.8s-1.1 1.1-2.9 1.1c-2.3 0-4-1.7-4-4 0-2.5 1.8-4.1 3.8-4.1zm2.2 3.3c-.1-1.6-1-2.4-2.2-2.4-1.3 0-2.4.8-2.7 2.4h4.9zm4.7-1.8c0-.2-.1-.3-.3-.3h-.6v-.9h1.1c.6 0 .9.3.9.9v1.1c.4-1.2 1.2-2.1 2.4-2.1h.4v1h-.4c-1.1 0-1.9.9-2.2 2-.2.5-.2 1-.2 1.5v3.3h-1v-6.5zm9.9-1.5c2.1 0 3.2 1.6 3.2 3.6v.5h-5.9c0 1.9 1.4 3.1 3 3.1 1.4 0 2.3-1 2.3-1l.5.8s-1.1 1.1-2.9 1.1c-2.3 0-4-1.7-4-4 0-2.5 1.7-4.1 3.8-4.1zm2.1 3.3c-.1-1.6-1-2.4-2.2-2.4-1.3 0-2.4.8-2.7 2.4h4.9zm-203.1 10.4c0-.2-.1-.3-.3-.3h-.6v-.9h1.1c.7 0 .9.3.9.9v8.6c0 .2.1.3.3.3h.6v.9h-1.1c-.7 0-.9-.3-.9-.9v-8.6zm8.3 1.7c2.1 0 3.2 1.6 3.2 3.6v.5h-5.9c0 1.9 1.4 3.1 3 3.1 1.4 0 2.3-1 2.3-1l.5.8s-1.1 1.1-2.9 1.1c-2.3 0-4-1.7-4-4 0-2.6 1.8-4.1 3.8-4.1zm2.2 3.2c-.1-1.6-1-2.4-2.2-2.4-1.3 0-2.4.8-2.7 2.4h4.9zm14.4-.1h.4v-.1c0-1.6-.6-2.2-2-2.2-.4 0-1.5.1-1.5.7v.5h-1v-.7c0-1.1 1.8-1.3 2.5-1.3 2.4 0 3 1.3 3 3v3.7c0 .2.1.3.3.3h.6v.9h-1.1c-.7 0-.9-.3-.9-.9v-.6s-.6 1.7-2.6 1.7c-1.3 0-2.6-.8-2.6-2.3.2-2.6 3.6-2.7 4.9-2.7zm-1.9 4.1c1.5 0 2.4-1.5 2.4-2.9v-.4h-.4c-1.2 0-3.6 0-3.6 1.8-.1.7.4 1.5 1.6 1.5zm7.5-5.8c0-.2-.1-.3-.3-.3h-.6v-.9h1.1c.6 0 .9.3.9.9v1.1c.4-1.2 1.2-2.1 2.4-2.1h.4v1h-.4c-1.1 0-1.9.9-2.2 2-.2.5-.2 1-.2 1.5v3.3h-1v-6.5zm9.9-1.4c2.1 0 3.2 1.6 3.2 3.6v.5h-5.9c0 1.9 1.4 3.1 3 3.1 1.4 0 2.3-1 2.3-1l.5.8s-1.1 1.1-2.9 1.1c-2.3 0-4-1.7-4-4 0-2.6 1.7-4.1 3.8-4.1zm2.2 3.2c-.1-1.6-1-2.4-2.2-2.4-1.3 0-2.4.8-2.7 2.4h4.9zm7.7-3.2c2.1 0 3.2 1.6 3.2 3.6v.5h-5.9c0 1.9 1.4 3.1 3 3.1 1.4 0 2.3-1 2.3-1l.5.8s-1.1 1.1-2.9 1.1c-2.3 0-4-1.7-4-4 0-2.6 1.8-4.1 3.8-4.1zm2.2 3.2c-.1-1.6-1-2.4-2.2-2.4-1.3 0-2.4.8-2.7 2.4h4.9zm13.2-3.2c1.9 0 2.5 1.4 2.5 1.4v-3.1c0-.2-.1-.3-.3-.3h-.6v-.9h1.1c.7 0 .9.3.9.9v8.6c0 .2.1.3.3.3h.6v.9h-1.1c-.6 0-.9-.3-.9-.9v-.5s-.6 1.5-2.7 1.5-3.4-1.7-3.4-4c.1-2.3 1.6-3.9 3.6-3.9zm2.5 4c0-1.6-.8-3.1-2.5-3.1-1.4 0-2.5 1.1-2.5 3.1 0 1.9 1 3.1 2.4 3.1s2.6-.9 2.6-3.1zm8.3-4c2.1 0 3.2 1.6 3.2 3.6v.5H830c0 1.9 1.4 3.1 3 3.1 1.4 0 2.3-1 2.3-1l.5.8s-1.1 1.1-2.9 1.1c-2.3 0-4-1.7-4-4 0-2.6 1.8-4.1 3.8-4.1zm2.2 3.2c-.1-1.6-1-2.4-2.2-2.4-1.3 0-2.4.8-2.7 2.4h4.9zm4.7-4.9c0-.2-.1-.3-.3-.3h-.6v-.9h1.1c.7 0 .9.3.9.9v8.6c0 .2.1.3.3.3h.6v.9h-1.1c-.7 0-.9-.3-.9-.9v-8.6zm10.9 0c0-.2-.1-.3-.3-.3h-.6v-.9h1.1c.7 0 .9.3.9.9v3.4s.6-1.5 2.6-1.5c2.1 0 3.4 1.7 3.4 4 0 2.4-1.5 4-3.5 4-1.8 0-2.5-1.5-2.5-1.5v1.3h-1v-9.4zm3.5 8.8c1.4 0 2.5-1.1 2.5-3.1 0-1.9-1-3.1-2.4-3.1-1.3 0-2.5.9-2.5 3.1-.1 1.6.7 3.1 2.4 3.1zm11-4h.4v-.1c0-1.6-.6-2.2-2-2.2-.4 0-1.5.1-1.5.7v.5h-1v-.7c0-1.1 1.8-1.3 2.5-1.3 2.4 0 3 1.3 3 3v3.7c0 .2.1.3.3.3h.6v.9h-1.1c-.7 0-.9-.3-.9-.9v-.6s-.6 1.7-2.6 1.7c-1.3 0-2.6-.8-2.6-2.3.2-2.6 3.6-2.7 4.9-2.7zm-1.9 4.1c1.5 0 2.4-1.5 2.4-2.9v-.4h-.5c-1.2 0-3.6 0-3.6 1.8-.1.7.5 1.5 1.7 1.5zm10.9-7.2c.9 0 2.7.4 2.7 1.6v.7h-1v-.4c0-.6-1.1-1-1.8-1-1.7 0-3 1.2-3 3.1 0 1.9 1.4 3.1 3 3.1s2.5-1.1 2.5-1.1l.5.8s-1 1.3-3 1.3c-2.3 0-4-1.6-4-4s1.8-4.1 4.1-4.1zm6.3 1.4c0-.2-.1-.3-.3-.3h-.6v-.9h1.1c.7 0 .9.3.9.9v5.5c0 .2.1.3.3.3h.6v.9h-1.1c-.7 0-.9-.3-.9-.9v-5.5zm0-4.3h1v1.3h-1v-1.3zm5.3 4.3c0-.2-.1-.3-.3-.3h-.6v-.9h1.1c.6 0 .9.3.9.9v1c.3-.7 1.3-1.9 3.1-1.9 1.9 0 2.6 1.1 2.6 3v3.7c0 .2.1.3.3.3h.6v.9h-1.1c-.7 0-.9-.3-.9-.9v-3.7c0-1.2-.2-2.3-1.7-2.3-1.3 0-2.5.9-2.8 2.2-.1.3-.1.7-.1 1v3.7h-1v-6.7zm14.2-1.4c2.3 0 4.1 1.7 4.1 4s-1.8 4.1-4.1 4.1-4.1-1.7-4.1-4.1c.1-2.3 1.9-4 4.1-4zm.1 7.1c1.6 0 3-1.3 3-3.1 0-1.7-1.3-3.1-3-3.1s-3 1.3-3 3.1 1.3 3.1 3 3.1zm13.3-5.7c0-.2-.1-.3-.3-.3h-.6v-.9h1.1c.7 0 .9.3.9.9v5.5c0 .2.1.3.3.3h.6v.9h-1.1c-.7 0-.9-.3-.9-.9v-5.5zm-.1-4.3h1v1.3h-1v-1.3zm8.2 2.9c1.9 0 2.5 1.4 2.5 1.4v-3.1c0-.2-.1-.3-.3-.3h-.6v-.9h1.1c.7 0 .9.3.9.9v8.6c0 .2.1.3.3.3h.6v.9h-1.1c-.6 0-.9-.3-.9-.9v-.5s-.6 1.5-2.7 1.5-3.4-1.7-3.4-4c.1-2.3 1.5-3.9 3.6-3.9zm2.5 4c0-1.6-.8-3.1-2.5-3.1-1.4 0-2.5 1.1-2.5 3.1 0 1.9 1 3.1 2.4 3.1s2.6-.9 2.6-3.1zm5.2-2.6c0-.2-.1-.3-.3-.3h-.6v-.9h1.1c.6 0 .9.3.9.9v1.1c.4-1.2 1.2-2.1 2.4-2.1h.4v1h-.4c-1.1 0-1.9.9-2.2 2-.2.5-.2 1-.2 1.5v3.3h-1v-6.5zm7.2 0c0-.2-.1-.3-.3-.3h-.6v-.9h1.1c.7 0 .9.3.9.9v5.5c0 .2.1.3.3.3h.6v.9h-1.1c-.7 0-.9-.3-.9-.9v-5.5zm0-4.3h1v1.3h-1v-1.3zm8.6 2.9c.9 0 2.7.4 2.7 1.6v.7h-1v-.4c0-.6-1.1-1-1.8-1-1.7 0-3 1.2-3 3.1 0 1.9 1.4 3.1 3 3.1s2.5-1.1 2.5-1.1l.5.8s-1 1.3-3 1.3c-2.3 0-4-1.6-4-4 .1-2.4 1.8-4.1 4.1-4.1zm9.7 0c2.3 0 4.1 1.7 4.1 4s-1.8 4.1-4.1 4.1-4.1-1.7-4.1-4.1c0-2.3 1.8-4 4.1-4zm0 7.1c1.6 0 3-1.3 3-3.1 0-1.7-1.3-3.1-3-3.1s-3 1.3-3 3.1 1.3 3.1 3 3.1zm-189 8.2c.9 0 2.7.4 2.7 1.6v.7h-1v-.4c0-.6-1.1-1-1.8-1-1.7 0-3 1.2-3 3.1 0 1.9 1.4 3.1 3 3.1s2.5-1.1 2.5-1.1l.5.8s-1 1.3-3 1.3c-2.3 0-4-1.6-4-4s1.8-4.1 4.1-4.1zm6.2-1.6c0-.2-.1-.3-.3-.3h-.6v-.9h1.1c.7 0 .9.3.9.9v3.9c.3-.7 1.3-1.9 3.1-1.9 1.9 0 2.6 1.1 2.6 3v3.7c0 .2.1.3.3.3h.6v.9h-1.1c-.7 0-.9-.3-.9-.9v-3.7c0-1.2-.2-2.3-1.7-2.3-1.3 0-2.4.9-2.8 2.2-.1.3-.1.7-.1 1v3.7h-1v-9.6zm13.9 1.6c2.1 0 3.2 1.6 3.2 3.6v.5h-5.9c0 1.9 1.4 3.1 3 3.1 1.4 0 2.3-1 2.3-1l.5.8s-1.1 1.1-2.9 1.1c-2.3 0-4-1.7-4-4 0-2.6 1.7-4.1 3.8-4.1zm2.2 3.3c-.1-1.6-1-2.4-2.2-2.4-1.3 0-2.4.8-2.7 2.4h4.9zm10.1 2.7s.9 1.2 2.4 1.2c.9 0 1.6-.4 1.6-1.2 0-1.7-4.3-1.4-4.3-3.9 0-1.4 1.2-2.1 2.7-2.1.8 0 2.3.3 2.3 1.4v.7h-1v-.4c0-.6-.8-.8-1.3-.8-1.1 0-1.7.4-1.7 1.1 0 1.7 4.3 1.3 4.3 3.9 0 1.3-1.2 2.2-2.7 2.2-2 0-3-1.3-3-1.3l.7-.8zm11.9-6c2.3 0 4.1 1.7 4.1 4s-1.8 4.1-4.1 4.1-4.1-1.7-4.1-4.1c0-2.3 1.8-4 4.1-4zm0 7.1c1.6 0 3-1.3 3-3.1 0-1.7-1.3-3.1-3-3.1s-3 1.3-3 3.1 1.3 3.1 3 3.1zm7.5-5.7c0-.2-.1-.3-.3-.3h-.6v-.9h1.1c.6 0 .9.3.9.9v1c.3-.7 1.3-1.9 3.1-1.9 1.9 0 2.6 1.1 2.6 3v3.7c0 .2.1.3.3.3h.6v.9h-1.1c-.7 0-.9-.3-.9-.9v-3.7c0-1.2-.2-2.3-1.7-2.3-1.3 0-2.5.9-2.8 2.2-.1.3-.1.7-.1 1v3.7h-1v-6.7zm14.2-1.4c2.3 0 4.1 1.7 4.1 4s-1.8 4.1-4.1 4.1-4.1-1.7-4.1-4.1c.1-2.3 1.9-4 4.1-4zm0 7.1c1.6 0 3-1.3 3-3.1 0-1.7-1.3-3.1-3-3.1s-3 1.3-3 3.1 1.4 3.1 3 3.1zm13.3-6h-1v-.9h1v-.3c0-2.5 1.8-2.9 2.7-2.9h.5v.9h-.4c-.6 0-1.7.2-1.7 1.9v.3h2v.9h-2v6.8h-1v-6.7zm9.2-1.1c2.3 0 4.1 1.7 4.1 4s-1.8 4.1-4.1 4.1-4.1-1.7-4.1-4.1c0-2.3 1.9-4 4.1-4zm0 7.1c1.6 0 3-1.3 3-3.1 0-1.7-1.3-3.1-3-3.1s-3 1.3-3 3.1 1.4 3.1 3 3.1zm7.6-5.7c0-.2-.1-.3-.3-.3h-.6v-.9h1.1c.6 0 .9.3.9.9v1c.3-.7 1.3-1.9 3.1-1.9 1.9 0 2.6 1.1 2.6 3v3.7c0 .2.1.3.3.3h.6v.9h-1.1c-.7 0-.9-.3-.9-.9v-3.7c0-1.2-.2-2.3-1.7-2.3-1.3 0-2.5.9-2.8 2.2-.1.3-.1.7-.1 1v3.7h-1v-6.7zm13.6-1.4c1.9 0 2.5 1.4 2.5 1.4v-3.1c0-.2-.1-.3-.3-.3h-.6v-.9h1.1c.7 0 .9.3.9.9v8.6c0 .2.1.3.3.3h.6v.9h-1.1c-.6 0-.9-.3-.9-.9v-.5s-.6 1.5-2.7 1.5-3.4-1.7-3.4-4c.1-2.3 1.6-3.9 3.6-3.9zm2.5 4c0-1.6-.8-3.1-2.5-3.1-1.4 0-2.5 1.1-2.5 3.1 0 1.9 1 3.1 2.4 3.1s2.6-.9 2.6-3.1zm9.3-.9h.4v-.1c0-1.6-.6-2.2-2-2.2-.4 0-1.5.1-1.5.7v.5h-1v-.7c0-1.1 1.8-1.3 2.5-1.3 2.4 0 3 1.3 3 3v3.7c0 .2.1.3.3.3h.6v.9h-1.1c-.7 0-.9-.3-.9-.9v-.6s-.6 1.7-2.6 1.7c-1.3 0-2.6-.8-2.6-2.3.1-2.6 3.5-2.7 4.9-2.7zm-2 4.1c1.5 0 2.4-1.5 2.4-2.9v-.4h-.4c-1.2 0-3.6 0-3.6 1.8-.1.8.5 1.5 1.6 1.5zm7.6-5.8c0-.2-.1-.3-.3-.3h-.6v-.9h1.1c.6 0 .9.3.9.9v1c.4-1 1.6-1.9 2.8-1.9 1.4 0 2.2.7 2.4 1.9.4-1 1.5-1.9 2.8-1.9 1.9 0 2.6 1.1 2.6 3v3.7c0 .2.1.3.3.3h.6v.9h-1.1c-.7 0-.9-.3-.9-.9v-3.7c0-1.3-.3-2.3-1.7-2.3-1.2 0-2.1 1-2.4 2.2-.1.3-.1.7-.1 1.1v3.6h-1v-4.6c0-1.2-.2-2.3-1.6-2.3-1.3 0-2.2 1.1-2.5 2.3-.1.3-.1.7-.1 1v3.6h-1v-6.7zm18.9-1.4c2.1 0 3.2 1.6 3.2 3.6v.5h-5.9c0 1.9 1.4 3.1 3 3.1 1.4 0 2.3-1 2.3-1l.5.8s-1.1 1.1-2.9 1.1c-2.3 0-4-1.7-4-4 0-2.6 1.7-4.1 3.8-4.1zm2.2 3.3c-.1-1.6-1-2.4-2.2-2.4-1.3 0-2.4.8-2.7 2.4h4.9zm4.6-1.9c0-.2-.1-.3-.3-.3h-.6v-.9h1.1c.6 0 .9.3.9.9v1c.3-.7 1.3-1.9 3.1-1.9 1.9 0 2.6 1.1 2.6 3v3.7c0 .2.1.3.3.3h.6v.9h-1.1c-.7 0-.9-.3-.9-.9v-3.7c0-1.2-.2-2.3-1.7-2.3-1.3 0-2.5.9-2.8 2.2-.1.3-.1.7-.1 1v3.7h-1v-6.7zm11-.3h-1v-.9h1v-2.1h1v2.1h1.9v.9h-1.9v3.9c0 1.8 1.1 2 1.7 2h.4v.9h-.4c-.9 0-2.7-.3-2.7-2.9v-3.9zm10.5 2h.4v-.1c0-1.6-.6-2.2-2-2.2-.4 0-1.5.1-1.5.7v.5h-1v-.7c0-1.1 1.8-1.3 2.5-1.3 2.4 0 3 1.3 3 3v3.7c0 .2.1.3.3.3h.6v.9H941c-.7 0-.9-.3-.9-.9v-.6s-.6 1.7-2.6 1.7c-1.3 0-2.6-.8-2.6-2.3.1-2.6 3.5-2.7 4.9-2.7zm-2 4.1c1.5 0 2.4-1.5 2.4-2.9v-.4h-.4c-1.2 0-3.6 0-3.6 1.8-.1.8.5 1.5 1.6 1.5zm7.6-8.8c0-.2-.1-.3-.3-.3h-.6v-.9h1.1c.7 0 .9.3.9.9v8.6c0 .2.1.3.3.3h.6v.9h-1.1c-.7 0-.9-.3-.9-.9v-8.6zm5.4 3c0-.2-.1-.3-.3-.3h-.6v-.9h1.1c.7 0 .9.3.9.9v5.5c0 .2.1.3.3.3h.6v.9h-1.1c-.7 0-.9-.3-.9-.9v-5.5zm-.1-4.3h1v1.3h-1v-1.3zm-143.8 19.7c0-.2-.1-.3-.3-.3h-.6v-.9h1.1c.7 0 .9.3.9.8v.5s.6-1.5 2.7-1.5 3.4 1.7 3.4 4c0 2.4-1.5 4-3.4 4s-2.5-1.5-2.5-1.5v4.4h-1v-9.5zm3.5 5.7c1.4 0 2.5-1.1 2.5-3.1 0-1.9-1-3.1-2.4-3.1-1.3 0-2.5.9-2.5 3.1-.1 1.5.8 3.1 2.4 3.1zm10.1-7.2c2.1 0 3.2 1.6 3.2 3.6v.5h-5.9c0 1.9 1.4 3.1 3 3.1 1.4 0 2.3-1 2.3-1l.5.8s-1.1 1.1-2.9 1.1c-2.3 0-4-1.7-4-4 0-2.5 1.8-4.1 3.8-4.1zm2.2 3.3c-.1-1.6-1-2.4-2.2-2.4-1.3 0-2.4.8-2.7 2.4h4.9zm4.7-1.8c0-.2-.1-.3-.3-.3h-.6v-.9h1.1c.6 0 .9.3.9.9v1.1c.4-1.2 1.2-2.1 2.4-2.1h.4v1h-.4c-1.1 0-1.9.9-2.2 2-.2.5-.2 1-.2 1.5v3.3h-1v-6.5zm12.8-3.1c0-.2-.1-.3-.3-.3h-.6v-.9h1.1c.7 0 .9.3.9.9v8.6c0 .2.1.3.3.3h.6v.9h-1.1c-.7 0-.9-.3-.9-.9v-8.6zm9.3 4.8h.4v-.1c0-1.6-.6-2.2-2-2.2-.4 0-1.5.1-1.5.7v.5h-1v-.8c0-1.1 1.8-1.3 2.5-1.3 2.4 0 3 1.3 3 3v3.7c0 .2.1.3.3.3h.6v.9h-1.1c-.7 0-.9-.3-.9-.9v-.6s-.6 1.7-2.6 1.7c-1.3 0-2.6-.8-2.6-2.3.2-2.5 3.5-2.6 4.9-2.6zm-2 4c1.5 0 2.4-1.5 2.4-2.9v-.4h-.4c-1.2 0-3.6 0-3.6 1.8-.1.8.5 1.5 1.6 1.5zm13-1.2s.9 1.2 2.4 1.2c.9 0 1.6-.4 1.6-1.2 0-1.7-4.3-1.4-4.3-3.9 0-1.4 1.2-2.1 2.7-2.1.8 0 2.3.3 2.3 1.4v.7h-1v-.4c0-.6-.8-.8-1.3-.8-1.1 0-1.7.4-1.7 1.1 0 1.7 4.3 1.3 4.3 3.9 0 1.3-1.2 2.2-2.7 2.2-2 0-3-1.3-3-1.3l.7-.8zm12.6-2.8h.4v-.1c0-1.6-.6-2.2-2-2.2-.4 0-1.5.1-1.5.7v.5h-1v-.8c0-1.1 1.8-1.3 2.5-1.3 2.4 0 3 1.3 3 3v3.7c0 .2.1.3.3.3h.6v.9h-1.1c-.7 0-.9-.3-.9-.9v-.6s-.6 1.7-2.6 1.7c-1.3 0-2.6-.8-2.6-2.3.2-2.5 3.6-2.6 4.9-2.6zm-1.9 4c1.5 0 2.4-1.5 2.4-2.9v-.4h-.4c-1.2 0-3.6 0-3.6 1.8-.1.8.4 1.5 1.6 1.5zm7.5-8.8c0-.2-.1-.3-.3-.3h-.6v-.9h1.1c.7 0 .9.3.9.9v8.6c0 .2.1.3.3.3h.6v.9h-1.1c-.7 0-.9-.3-.9-.9v-8.6zm5.3 3.1c0-.2-.1-.3-.3-.3h-.7v-.9h1.1c.7 0 .9.3.9.9v3.7c0 1.2.2 2.3 1.7 2.3 1.7 0 2.8-1.5 2.8-3.2V319h1v6.5c0 .2.1.3.3.3h.6v.9h-1.1c-.6 0-.9-.3-.9-.9v-1c-.3.8-1.3 1.9-3 1.9-1.8 0-2.6-1-2.6-3v-3.5zm10.9-.4h-1v-.9h1v-2.1h1v2.1h1.9v.9H896v3.9c0 1.8 1.1 2 1.7 2h.4v.9h-.4c-.9 0-2.7-.3-2.7-2.9v-3.9zm9.5-1.1c2.1 0 3.2 1.6 3.2 3.6v.5h-5.9c0 1.9 1.4 3.1 3 3.1 1.4 0 2.3-1 2.3-1l.5.8s-1.1 1.1-2.9 1.1c-2.3 0-4-1.7-4-4 0-2.5 1.7-4.1 3.8-4.1zm2.2 3.3c-.1-1.6-1-2.4-2.2-2.4-1.3 0-2.4.8-2.7 2.4h4.9zm-114 12.1c2.1 0 3.2 1.6 3.2 3.6v.5h-5.9c0 1.9 1.4 3.1 3 3.1 1.4 0 2.3-1 2.3-1l.5.8s-1.1 1.1-2.9 1.1c-2.3 0-4-1.7-4-4 0-2.6 1.7-4.1 3.8-4.1zm2.2 3.2c-.1-1.6-1-2.4-2.2-2.4-1.3 0-2.4.8-2.7 2.4h4.9zm10.3-4.9c0-.2-.1-.3-.3-.3h-.6v-.9h1.1c.7 0 .9.3.9.9v8.6c0 .2.1.3.3.3h.6v.9H806c-.7 0-.9-.3-.9-.9v-8.6zm9.3 4.8h.4v-.1c0-1.6-.6-2.2-2-2.2-.4 0-1.5.1-1.5.7v.5h-1v-.7c0-1.1 1.8-1.3 2.5-1.3 2.4 0 3 1.3 3 3v3.7c0 .2.1.3.3.3h.6v.9h-1.1c-.7 0-.9-.3-.9-.9v-.6s-.6 1.7-2.6 1.7c-1.3 0-2.6-.8-2.6-2.3.2-2.6 3.6-2.7 4.9-2.7zm-1.9 4.1c1.5 0 2.4-1.5 2.4-2.9v-.4h-.4c-1.2 0-3.6 0-3.6 1.8-.1.7.5 1.5 1.6 1.5zm13-1.2s.9 1.2 2.4 1.2c.9 0 1.6-.4 1.6-1.2 0-1.7-4.3-1.4-4.3-3.9 0-1.4 1.2-2.1 2.7-2.1.8 0 2.3.3 2.3 1.4v.7h-1v-.4c0-.6-.8-.8-1.3-.8-1.1 0-1.7.4-1.7 1.1 0 1.7 4.3 1.3 4.3 3.9 0 1.3-1.2 2.2-2.7 2.2-2 0-3-1.3-3-1.3l.7-.8zm11.9-6c2.3 0 4.1 1.7 4.1 4s-1.8 4.1-4.1 4.1-4.1-1.7-4.1-4.1c.1-2.3 1.9-4 4.1-4zm0 7.1c1.6 0 3-1.3 3-3.1 0-1.7-1.3-3.1-3-3.1s-3 1.3-3 3.1 1.4 3.1 3 3.1zm7.3-1.1s.9 1.2 2.4 1.2c.9 0 1.6-.4 1.6-1.2 0-1.7-4.3-1.4-4.3-3.9 0-1.4 1.2-2.1 2.7-2.1.8 0 2.3.3 2.3 1.4v.7h-1v-.4c0-.6-.8-.8-1.3-.8-1.1 0-1.7.4-1.7 1.1 0 1.7 4.3 1.3 4.3 3.9 0 1.3-1.2 2.2-2.7 2.2-2 0-3-1.3-3-1.3l.7-.8zm8.6-5h-1v-.9h1v-2.1h1v2.1h1.9v.9h-1.9v3.9c0 1.8 1.1 2 1.7 2h.4v.9h-.4c-.9 0-2.7-.3-2.7-2.9v-3.9zm9.6-1c2.1 0 3.2 1.6 3.2 3.6v.5h-5.9c0 1.9 1.4 3.1 3 3.1 1.4 0 2.3-1 2.3-1l.5.8s-1.1 1.1-2.9 1.1c-2.3 0-4-1.7-4-4-.1-2.6 1.7-4.1 3.8-4.1zm2.1 3.2c-.1-1.6-1-2.4-2.2-2.4-1.3 0-2.4.8-2.7 2.4h4.9zm4.7-1.8c0-.2-.1-.3-.3-.3h-.6v-.9h1.1c.6 0 .9.3.9.9v1c.3-.7 1.3-1.9 3.1-1.9 1.9 0 2.6 1.1 2.6 3v3.7c0 .2.1.3.3.3h.6v.9h-1.1c-.7 0-.9-.3-.9-.9v-3.7c0-1.2-.2-2.3-1.7-2.3-1.3 0-2.5.9-2.8 2.2-.1.3-.1.7-.1 1v3.7h-1v-6.7zm10.9 0c0-.2-.1-.3-.3-.3h-.6v-.9h1.1c.7 0 .9.3.9.9v5.5c0 .2.1.3.3.3h.6v.9h-1.1c-.7 0-.9-.3-.9-.9v-5.5zm0-4.3h1v1.3h-1v-1.3zm5.3 1.2c0-.2-.1-.3-.3-.3h-.6v-.9h1.1c.7 0 .9.3.9.9v3.4s.6-1.5 2.6-1.5c2.1 0 3.4 1.7 3.4 4 0 2.4-1.5 4-3.5 4-1.8 0-2.5-1.5-2.5-1.5v1.3h-1v-9.4zm3.5 8.8c1.4 0 2.5-1.1 2.5-3.1 0-1.9-1-3.1-2.4-3.1-1.3 0-2.5.9-2.5 3.1-.1 1.6.7 3.1 2.4 3.1zm7.1-5.7c0-.2-.1-.3-.3-.3h-.6v-.9h1.1c.7 0 .9.3.9.9v5.5c0 .2.1.3.3.3h.6v.9h-1.1c-.7 0-.9-.3-.9-.9v-5.5zm0-4.3h1v1.3h-1v-1.3zm5.3 1.2c0-.2-.1-.3-.3-.3h-.6v-.9h1.1c.7 0 .9.3.9.9v8.6c0 .2.1.3.3.3h.6v.9h-1.1c-.7 0-.9-.3-.9-.9v-8.6zm5.4 3.1c0-.2-.1-.3-.3-.3h-.6v-.9h1.1c.7 0 .9.3.9.9v5.5c0 .2.1.3.3.3h.6v.9h-1.1c-.7 0-.9-.3-.9-.9v-5.5zm-.1-4.3h1v1.3h-1v-1.3zm5.5 3.9h-1v-.9h1v-2.1h1v2.1h1.9v.9h-1.9v3.9c0 1.8 1.1 2 1.7 2h.4v.9h-.4c-.9 0-2.7-.3-2.7-2.9v-3.9zm10.4 2.1h.4v-.1c0-1.6-.6-2.2-2-2.2-.4 0-1.5.1-1.5.7v.5h-1v-.7c0-1.1 1.8-1.3 2.5-1.3 2.4 0 3 1.3 3 3v3.7c0 .2.1.3.3.3h.6v.9h-1.1c-.7 0-.9-.3-.9-.9v-.6s-.6 1.7-2.6 1.7c-1.3 0-2.6-.8-2.6-2.3.2-2.6 3.6-2.7 4.9-2.7zm-1.9 4.1c1.5 0 2.4-1.5 2.4-2.9v-.4h-.5c-1.2 0-3.6 0-3.6 1.8 0 .7.6 1.5 1.7 1.5zm-1.2-10.1h1.2l1.1 1.8h-.9l-1.4-1.8zm-109.8 18.2c1.9 0 2.5 1.4 2.5 1.4v-3.1c0-.2-.1-.3-.3-.3h-.6v-.9h1.1c.7 0 .9.3.9.9v8.6c0 .2.1.3.3.3h.6v.9h-1.1c-.6 0-.9-.3-.9-.9v-.5s-.6 1.5-2.7 1.5-3.4-1.7-3.4-4c.1-2.3 1.5-3.9 3.6-3.9zm2.5 4c0-1.6-.8-3.1-2.5-3.1-1.4 0-2.5 1.1-2.5 3.1 0 1.9 1 3.1 2.4 3.1s2.6-.9 2.6-3.1zm8.3-4c2.1 0 3.2 1.6 3.2 3.6v.5h-5.9c0 1.9 1.4 3.1 3 3.1 1.4 0 2.3-1 2.3-1l.5.8s-1.1 1.1-2.9 1.1c-2.3 0-4-1.7-4-4 0-2.6 1.7-4.1 3.8-4.1zm2.2 3.3c-.1-1.6-1-2.4-2.2-2.4-1.3 0-2.4.8-2.7 2.4h4.9zm4.6-4.9c0-.2-.1-.3-.3-.3h-.6v-.9h1.1c.7 0 .9.3.9.9v8.6c0 .2.1.3.3.3h.6v.9h-1.1c-.7 0-.9-.3-.9-.9v-8.6zm5.3 0c0-.2-.1-.3-.3-.3h-.6v-.9h1.1c.7 0 .9.3.9.9v8.6c0 .2.1.3.3.3h.6v.9h-1c-.7 0-.9-.3-.9-.9v-8.6zm8.4 1.6c2.1 0 3.2 1.6 3.2 3.6v.5h-5.9c0 1.9 1.4 3.1 3 3.1 1.4 0 2.3-1 2.3-1l.5.8s-1.1 1.1-2.9 1.1c-2.3 0-4-1.7-4-4 0-2.6 1.8-4.1 3.8-4.1zm2.2 3.3c-.1-1.6-1-2.4-2.2-2.4-1.3 0-2.4.8-2.7 2.4h4.9zm10.4-1.9c0-.2-.1-.3-.3-.3h-.7v-.9h1.1c.6 0 .9.3.9.9v1.1c.4-1.2 1.2-2.1 2.4-2.1h.4v1h-.4c-1.1 0-1.9.9-2.2 2-.2.5-.2 1-.2 1.5v3.3h-1v-6.5zm7.1 0c0-.2-.1-.3-.3-.3h-.6v-.9h1.1c.7 0 .9.3.9.9v5.5c0 .2.1.3.3.3h.6v.9H862c-.7 0-.9-.3-.9-.9v-5.5zm0-4.3h1v1.3h-1v-1.3zm5.1 8.9s.9 1.2 2.4 1.2c.9 0 1.6-.4 1.6-1.2 0-1.7-4.3-1.4-4.3-3.9 0-1.4 1.2-2.1 2.7-2.1.8 0 2.3.3 2.3 1.4v.7h-1v-.4c0-.6-.8-.8-1.3-.8-1.1 0-1.7.4-1.7 1.1 0 1.7 4.3 1.3 4.3 3.9 0 1.3-1.2 2.2-2.7 2.2-2 0-3-1.3-3-1.3l.7-.8zm11.9-6c2.3 0 4.1 1.7 4.1 4s-1.8 4.1-4.1 4.1-4.1-1.7-4.1-4.1c0-2.3 1.8-4 4.1-4zm0 7.1c1.6 0 3-1.3 3-3.1 0-1.7-1.3-3.1-3-3.1s-3 1.3-3 3.1 1.3 3.1 3 3.1zm7.5-5.7c0-.2-.1-.3-.3-.3h-.6v-.9h1.1c.6 0 .9.3.9.9v1.1c.4-1.2 1.2-2.1 2.4-2.1h.4v1h-.4c-1.1 0-1.9.9-2.2 2-.2.5-.2 1-.2 1.5v3.3h-1v-6.5zm6.8 4.6s.9 1.2 2.4 1.2c.9 0 1.6-.4 1.6-1.2 0-1.7-4.3-1.4-4.3-3.9 0-1.4 1.2-2.1 2.7-2.1.8 0 2.3.3 2.3 1.4v.7h-1v-.4c0-.6-.8-.8-1.3-.8-1.1 0-1.7.4-1.7 1.1 0 1.7 4.3 1.3 4.3 3.9 0 1.3-1.2 2.2-2.7 2.2-2 0-3-1.3-3-1.3l.7-.8zm11.7-6c2.1 0 3.2 1.6 3.2 3.6v.5h-5.9c0 1.9 1.4 3.1 3 3.1 1.4 0 2.3-1 2.3-1l.5.8s-1.1 1.1-2.9 1.1c-2.3 0-4-1.7-4-4 0-2.6 1.7-4.1 3.8-4.1zm2.1 3.3c-.1-1.6-1-2.4-2.2-2.4-1.3 0-2.4.8-2.7 2.4h4.9zm-102.3 13.5c0-.2-.1-.3-.3-.3h-.6v-.9h1.1c.7 0 .9.3.9.9v5.5c0 .2.1.3.3.3h.6v.9h-1.1c-.7 0-.9-.3-.9-.9v-5.5zm0-4.3h1v1.3h-1v-1.3zm8.1 2.8c1.9 0 2.5 1.4 2.5 1.4V363c0-.2-.1-.3-.3-.3h-.6v-.9h1.1c.7 0 .9.3.9.9v8.6c0 .2.1.3.3.3h.6v.9h-1.1c-.6 0-.9-.3-.9-.9v-.5s-.6 1.5-2.7 1.5-3.4-1.7-3.4-4c.1-2.3 1.6-3.9 3.6-3.9zm2.5 4.1c0-1.6-.8-3.1-2.5-3.1-1.4 0-2.5 1.1-2.5 3.1 0 1.9 1 3.1 2.4 3.1s2.6-.9 2.6-3.1zm5.3-2.6c0-.2-.1-.3-.3-.3h-.6v-.9h1.1c.6 0 .9.3.9.9v1.1c.4-1.2 1.2-2.1 2.4-2.1h.4v1h-.4c-1.1 0-1.9.9-2.2 2-.2.5-.2 1-.2 1.5v3.3h-1v-6.5zm7.1 0c0-.2-.1-.3-.3-.3h-.6v-.9h1.1c.7 0 .9.3.9.9v5.5c0 .2.1.3.3.3h.6v.9h-1.1c-.7 0-.9-.3-.9-.9v-5.5zm0-4.3h1v1.3h-1v-1.3zm8.7 2.8c.9 0 2.7.4 2.7 1.6v.7h-1v-.4c0-.6-1.1-1-1.8-1-1.7 0-3 1.2-3 3.1 0 1.9 1.4 3.1 3 3.1s2.5-1.1 2.5-1.1l.5.8s-1 1.3-3 1.3c-2.3 0-4-1.6-4-4s1.8-4.1 4.1-4.1zm6.2-1.6c0-.2-.1-.3-.3-.3h-.6v-.9h1.1c.7 0 .9.3.9.9v3.9c.3-.7 1.3-1.9 3.1-1.9 1.9 0 2.6 1.1 2.6 3v3.7c0 .2.1.3.3.3h.6v.9h-1.1c-.7 0-.9-.3-.9-.9V368c0-1.2-.2-2.3-1.7-2.3-1.3 0-2.4.9-2.8 2.2-.1.3-.1.7-.1 1v3.7h-1v-9.5zm13.9 1.6c2.1 0 3.2 1.6 3.2 3.6v.5H853c0 1.9 1.4 3.1 3 3.1 1.4 0 2.3-1 2.3-1l.5.8s-1.1 1.1-2.9 1.1c-2.3 0-4-1.7-4-4 0-2.5 1.7-4.1 3.8-4.1zm2.2 3.3c-.1-1.6-1-2.4-2.2-2.4-1.3 0-2.4.8-2.7 2.4h4.9zm10.3-4.9c0-.2-.1-.3-.3-.3h-.6v-.9h1.1c.7 0 .9.3.9.9v8.6c0 .2.1.3.3.3h.6v.9h-1.1c-.7 0-.9-.3-.9-.9v-8.6zm8.7 1.6c2.3 0 4.1 1.7 4.1 4s-1.8 4.1-4.1 4.1-4.1-1.7-4.1-4.1c0-2.2 1.8-4 4.1-4zm0 7.2c1.6 0 3-1.3 3-3.1 0-1.7-1.3-3.1-3-3.1s-3 1.3-3 3.1c0 1.7 1.3 3.1 3 3.1zm10.9-7.2c.9 0 2.7.4 2.7 1.6v.7h-1v-.4c0-.6-1.1-1-1.8-1-1.7 0-3 1.2-3 3.1 0 1.9 1.4 3.1 3 3.1s2.5-1.1 2.5-1.1l.5.8s-1 1.3-3 1.3c-2.3 0-4-1.6-4-4s1.8-4.1 4.1-4.1zm10.3 3.2h.4v-.1c0-1.6-.6-2.2-2-2.2-.4 0-1.5.1-1.5.7v.5h-1v-.8c0-1.1 1.8-1.3 2.5-1.3 2.4 0 3 1.3 3 3v3.7c0 .2.1.3.3.3h.6v.9h-1.1c-.7 0-.9-.3-.9-.9v-.6s-.6 1.7-2.6 1.7c-1.3 0-2.6-.8-2.6-2.3.1-2.5 3.5-2.6 4.9-2.6zm-2 4c1.5 0 2.4-1.5 2.4-2.9v-.4h-.4c-1.2 0-3.6 0-3.6 1.8-.1.8.5 1.5 1.6 1.5zm7.6-8.8c0-.2-.1-.3-.3-.3h-.6v-.9h1.1c.7 0 .9.3.9.9v8.6c0 .2.1.3.3.3h.6v.9h-1.1c-.7 0-.9-.3-.9-.9v-8.6zm5.4 3.1c0-.2-.1-.3-.3-.3h-.6v-.9h1.1c.7 0 .9.3.9.9v5.5c0 .2.1.3.3.3h.6v.9H910c-.7 0-.9-.3-.9-.9v-5.5zm-.1-4.3h1v1.3h-1v-1.3z"/></svg>