<svg viewBox="0 0 1019.2 639.6" xmlns="http://www.w3.org/2000/svg"><g fill="none"><path d="M917.4 174.8l-8.2-12.2-8.2 12.2 7.3-2.2c-.1.2-.2.4-.2.6v8c0 .6.5 1.2 1.1 1.2s1.1-.5 1.1-1.2v-8c0-.3-.1-.6-.3-.8zm-162 8.9l-8.2 12.2 7.3-2.2c-.1.2-.2.4-.2.6v8c0 .6.5 1.2 1.1 1.2s1.1-.5 1.1-1.2v-8c0-.3-.1-.6-.3-.8l7.4 2.4zm-145.9 6.6l-8.2 12.2 7.3-2.2c-.1.2-.2.4-.2.6v8c0 .6.5 1.2 1.1 1.2s1.1-.5 1.1-1.2v-8c0-.3-.1-.6-.3-.8l7.4 2.4z"/><path d="M982.8 586.3H44.2c-3.6 0-6.6-3-6.6-6.6V49.1" stroke="#c0b07f" stroke-linecap="round" stroke-miterlimit="10"/><path d="M100.9 76.8h840.9m-840.9 38.9h840.9m-840.9 39h840.9M100.9 193h840.9m-840.9 38.9h840.9m-840.9 38.9h840.9m-840.9 39h840.9m-840.9 38.9h840.9M100.9 387h840.9m-840.9 39h840.9m-840.9 38.9h840.9" stroke="#c0b07f" stroke-dasharray="0 9" stroke-linecap="round" stroke-miterlimit="10" stroke-width="2"/></g><path d="M533.6 606.2c3.8 0 6.9 3.1 6.9 6.9s-3.1 6.9-6.9 6.9-6.9-3.1-6.9-6.9 3.1-6.9 6.9-6.9z" fill="#4a5497"/><path d="M432 606.2c3.8 0 6.9 3.1 6.9 6.9s-3.1 6.9-6.9 6.9-6.9-3.1-6.9-6.9c-.1-3.8 3-6.9 6.9-6.9z" fill="#c7b07d"/><path d="M55.4 71.6h2.9v-9.2s-.1.3-.6.8l-1.2 1.2-1.1-1.1 3.1-3h1.7v11.4H63v1.6h-7.5v-1.7zm8.8-4.9c0-3.7 1.1-6.7 4.6-6.7s4.6 3 4.6 6.7c0 3.8-1.1 6.7-4.6 6.7s-4.6-3-4.6-6.7zm7.4 0c0-2.8-.6-5-2.7-5s-2.7 2.2-2.7 5 .6 5.1 2.7 5.1c2-.1 2.7-2.3 2.7-5.1zm3.8 0c0-3.7 1.1-6.7 4.6-6.7s4.6 3 4.6 6.7c0 3.8-1.1 6.7-4.6 6.7s-4.6-3-4.6-6.7zm7.3 0c0-2.8-.6-5-2.7-5s-2.7 2.2-2.7 5 .6 5.1 2.7 5.1c2.1-.1 2.7-2.3 2.7-5.1zM66 112.2s.8.4 1.9.4c2.4 0 3.6-2.2 3.9-4.5-.5.8-1.7 1.3-2.9 1.3-2.5 0-4.1-1.8-4.1-4.2 0-2.6 1.7-4.3 4.2-4.3 2.8 0 4.9 2.4 4.9 6 0 3.4-1.8 7.5-5.9 7.5-1.5 0-2.5-.5-2.5-.5zm5.9-6.1c0-1.7-1.3-3.5-2.9-3.5-1.5 0-2.4 1.2-2.4 2.7s1 2.7 2.7 2.7c1.4-.1 2.6-1 2.6-1.9zm3.5 1.5c0-3.7 1.1-6.7 4.6-6.7s4.6 3 4.6 6.7c0 3.8-1.1 6.7-4.6 6.7s-4.6-3-4.6-6.7zm7.3 0c0-2.8-.6-5-2.7-5s-2.7 2.2-2.7 5 .6 5.1 2.7 5.1c2.1-.1 2.7-2.3 2.7-5.1zm-15.8 37.3s-1.6-.9-1.6-2.7 1.4-3.5 4.1-3.5c2.5 0 4.1 1.5 4.1 3.5 0 1.9-1.6 3.1-1.6 3.1 1.2.7 1.9 1.6 1.9 3 0 2-1.8 3.8-4.5 3.8-2.4 0-4.5-1.5-4.5-3.9 0-2.1 2.1-3.3 2.1-3.3zm2.4 5.6c1.4 0 2.6-.9 2.6-2.2 0-1.1-1-1.6-2.2-2.1-.5-.2-1.2-.5-1.3-.5-.5 0-1.8 1.1-1.8 2.5s1.3 2.3 2.7 2.3zm1-5.9c.4 0 1.4-1.1 1.4-2.2 0-1.2-1-2-2.3-2-1.4 0-2.2.8-2.2 1.8 0 1.1 1 1.6 2.1 2 .2.2.7.4 1 .4zm5.1.9c0-3.7 1.1-6.7 4.6-6.7s4.6 3 4.6 6.7c0 3.8-1.1 6.7-4.6 6.7s-4.6-3-4.6-6.7zm7.3 0c0-2.8-.6-5-2.7-5s-2.7 2.2-2.7 5 .6 5.1 2.7 5.1c2.1-.1 2.7-2.3 2.7-5.1zm-10.9 36.1c.4-.7.8-1.2.8-1.2s-.3.1-.9.1h-3.9c-.3 0-.4.1-.4.4v.8h-1.7v-1.6c0-.8.3-1.2 1.1-1.2h7.9v1.3L68.4 192h-2zm3.6 3.8c0-3.7 1.1-6.7 4.6-6.7s4.6 3 4.6 6.7c0 3.8-1.1 6.7-4.6 6.7s-4.6-3-4.6-6.7zm7.3 0c0-2.8-.6-5-2.7-5s-2.7 2.2-2.7 5 .6 5.1 2.7 5.1c2.1-.1 2.7-2.3 2.7-5.1zM64.8 226c0-3.4 1.8-7.5 5.9-7.5 1.5 0 2.5.5 2.5.5l-.6 1.6s-.8-.4-1.9-.4c-2.4 0-3.6 2.2-3.9 4.5.5-.8 1.7-1.3 2.9-1.3 2.5 0 4.1 1.9 4.1 4.2 0 2.6-1.8 4.3-4.2 4.3-2.7.1-4.8-2.3-4.8-5.9zm4.9 4.3c1.5 0 2.4-1.2 2.4-2.7 0-1.6-1-2.7-2.7-2.7-1.5 0-2.6.9-2.6 1.8-.1 1.7 1.2 3.6 2.9 3.6zm5.7-5c0-3.7 1.1-6.7 4.6-6.7s4.6 3 4.6 6.7c0 3.8-1.1 6.7-4.6 6.7s-4.6-3-4.6-6.7zm7.3 0c0-2.8-.6-5-2.7-5s-2.7 2.2-2.7 5 .6 5.1 2.7 5.1c2.1-.1 2.7-2.3 2.7-5.1zm-16.9 42.4s1 1.4 3 1.4c1.6 0 2.8-1.1 2.8-2.6 0-1.6-1.4-2.7-3.1-2.7-1.4 0-2.5.7-2.5.7l-.8-.3.5-5.4c.1-.8.3-1.2 1.2-1.2h4.5c.8 0 1.2.4 1.2 1.2v1.6H71v-.8c0-.3-.1-.4-.4-.4h-2.7c-.3 0-.4.1-.4.4l-.3 2.4c0 .4-.1.7-.1.7s.7-.4 1.7-.4c2.8 0 4.6 1.9 4.6 4.3 0 2.3-1.8 4.3-4.7 4.3-2.7 0-4-1.8-4-1.8zm9.6-3.5c0-3.7 1.1-6.7 4.6-6.7s4.6 3 4.6 6.7c0 3.8-1.1 6.7-4.6 6.7s-4.6-3-4.6-6.7zm7.3 0c0-2.8-.6-5-2.7-5s-2.7 2.2-2.7 5 .6 5.1 2.7 5.1c2.1-.1 2.7-2.3 2.7-5.1zM64.1 306l5.9-8.4h2.1v8h2v1.6h-2v3.4h-1.8v-3.4h-6.1zm6.2-4.9c0-.6.1-1.3.1-1.3s-.3.6-.7 1.1l-2.8 3.9c-.3.5-.7.8-.7.8s.5-.1 1.1-.1h3zm5.1 3c0-3.7 1.1-6.7 4.6-6.7s4.6 3 4.6 6.7c0 3.8-1.1 6.7-4.6 6.7s-4.6-3-4.6-6.7zm7.3 0c0-2.8-.6-5-2.7-5s-2.7 2.2-2.7 5 .6 5.1 2.7 5.1c2.1-.1 2.7-2.3 2.7-5.1zm-16.8 42.4s1.3 1.5 3.3 1.5c1.4 0 2.6-1 2.6-2.4 0-1.5-1.3-2.3-2.8-2.3h-.9l-.4-1 2.7-3.4c.4-.6.8-.8.8-.8s-.4.1-1.1.1h-2.5c-.3 0-.4.1-.4.4v.8h-1.7v-1.6c0-.8.3-1.2 1.1-1.2h6.9v1.2l-3.4 4.1c1.7.2 3.7 1.3 3.7 3.8 0 2.2-1.8 4.1-4.5 4.1L65 348zm9.5-3.5c0-3.7 1.1-6.7 4.6-6.7s4.6 3 4.6 6.7c0 3.8-1.1 6.7-4.6 6.7s-4.6-3-4.6-6.7zm7.3 0c0-2.8-.6-5-2.7-5s-2.7 2.2-2.7 5 .6 5.1 2.7 5.1c2.1-.1 2.7-2.3 2.7-5.1zm-11.4 36.9c0-1.2-.9-2.1-2.3-2.1-1.2 0-2 .6-2 1.2v.6h-1.7v-1.1c0-1.7 2.3-2.4 3.8-2.4 2.4 0 4.1 1.5 4.1 3.7 0 4.5-6.6 4.6-6.6 7.6 0 .3.1.4.5.4h4.6c.3 0 .4-.1.4-.4v-.8h1.7v1.6c0 .8-.3 1.2-1.2 1.2h-6.7c-1 0-1.2-.4-1.2-1.5-.1-4.8 6.6-4.5 6.6-8zm4.1 3c0-3.7 1.1-6.7 4.6-6.7s4.6 3 4.6 6.7c0 3.8-1.1 6.7-4.6 6.7s-4.6-3-4.6-6.7zm7.3 0c0-2.8-.6-5-2.7-5s-2.7 2.2-2.7 5 .6 5.1 2.7 5.1c2.1-.1 2.7-2.3 2.7-5.1zm-16.1 44.8h2.9v-9.2s-.1.3-.6.8l-1.2 1.2-1.1-1.1 3.1-3h1.7v11.4h2.8v1.6h-7.5v-1.7zm8.8-4.9c0-3.7 1.1-6.7 4.6-6.7s4.6 3 4.6 6.7c0 3.8-1.1 6.7-4.6 6.7s-4.6-3-4.6-6.7zm7.3 0c0-2.8-.6-5-2.7-5s-2.7 2.2-2.7 5 .6 5.1 2.7 5.1c2.1-.1 2.7-2.3 2.7-5.1zm-7.3 40.9c0-3.7 1.1-6.7 4.6-6.7s4.6 3 4.6 6.7c0 3.8-1.1 6.7-4.6 6.7s-4.6-3-4.6-6.7zm7.3 0c0-2.8-.6-5-2.7-5s-2.7 2.2-2.7 5 .6 5.1 2.7 5.1c2.1-.1 2.7-2.3 2.7-5.1zm22.3 38.7s1.4 1.6 3.4 1.6c1.3 0 2.3-.8 2.3-2 0-2.8-6.5-2.4-6.5-6.6 0-2 1.8-3.6 4.3-3.6 1.4 0 3.8.6 3.8 2.5v1.1h-1.8v-.6c0-.7-1-1.2-2.1-1.2-1.4 0-2.4.8-2.4 1.8 0 2.7 6.5 2.1 6.5 6.5 0 2.1-1.6 3.8-4.3 3.8-2.9 0-4.5-2-4.5-2zm14.9-2.9h.4v-.1c0-1.7-.6-2.3-2.1-2.3-.5 0-1.6.1-1.6.7v.6h-1.7v-1c0-1.6 2.4-1.8 3.3-1.8 3.1 0 4 1.6 4 3.8v4.1c0 .3.2.4.4.4h.8v1.6h-1.7c-.9 0-1.2-.4-1.2-1.1v-.6s-.8 1.9-3.1 1.9c-1.7 0-3.3-1-3.3-2.9 0-3.1 4.2-3.3 5.8-3.3zm-2.1 4.8c1.6 0 2.6-1.6 2.6-3.1v-.3h-.5c-1.4 0-3.9.1-3.9 1.8 0 .8.6 1.6 1.8 1.6zm7.6-6.4c0-.3-.2-.4-.4-.4h-.8v-1.6h1.8c.8 0 1.2.4 1.2 1.1v1c.4-.8 1.5-2.2 3.6-2.2 2.3 0 3.3 1.2 3.3 3.7v4.2c0 .3.2.4.4.4h.8v1.6h-1.8c-.9 0-1.2-.4-1.2-1.2V500c0-1.4-.3-2.4-1.8-2.4s-2.7 1-3 2.4c-.1.4-.2.8-.2 1.3v4.5h-1.8zm17.4-4.2h-1.2v-1.6h5.9c2.5 0 4.2 1.7 4.2 4.2 0 2.6-1.8 4.3-4.2 4.3h-2.8v5h-1.9zm4.4 5.2c1.6 0 2.6-1 2.6-2.6s-1-2.6-2.5-2.6h-2.5v5.2zm10.1-3.2c2.7 0 4.2 2 4.2 4.5 0 .2-.1.8-.1.8h-7c.1 2.1 1.6 3.2 3.3 3.2l2.8-1.1.8 1.3s-1.4 1.4-3.7 1.4c-3 0-5.1-2.2-5.1-5-.1-3.1 2-5.1 4.8-5.1zm2.2 3.9c-.1-1.6-1.1-2.5-2.3-2.5-1.4 0-2.6.9-2.8 2.5zm4.4-5.5c0-.3-.2-.4-.4-.4h-.8v-1.6h1.8c.9 0 1.2.4 1.2 1.2v10.2c0 .3.2.4.4.4h.8v1.6h-1.8c-.9 0-1.2-.4-1.2-1.2zm5.1 0c0-.3-.2-.4-.4-.4h-.8v-1.6h1.8c.9 0 1.2.4 1.2 1.2v10.2c0 .3.2.4.4.4h.8v1.6h-1.8c-.9 0-1.2-.4-1.2-1.2zm9 1.6c2.7 0 4.2 2 4.2 4.5 0 .2-.1.8-.1.8h-7c.1 2.1 1.6 3.2 3.3 3.2l2.8-1.1.8 1.3s-1.4 1.4-3.7 1.4c-3 0-5.1-2.2-5.1-5 0-3.1 2.1-5.1 4.8-5.1zm2.3 3.9c-.1-1.6-1.1-2.5-2.3-2.5-1.4 0-2.6.9-2.8 2.5zm7.7-3.9c2.4 0 3.1 1.5 3.1 1.5v-.3c0-.6.3-1 1.1-1h1.8v1.6h-.8c-.2 0-.4.1-.4.4v7.3c0 3.2-2.4 4.4-4.9 4.4-1.2 0-2.3-.3-3.3-.8l.6-1.5s1.2.6 2.6.6c1.7 0 3-.7 3-2.7V504c-.6.9-1.5 1.5-2.9 1.5-2.7 0-4.3-2.2-4.3-4.9.1-2.9 1.7-4.9 4.4-4.9zm3 4.8c0-2.5-1.2-3.2-2.7-3.2-1.7 0-2.6 1.2-2.6 3.2s1 3.4 2.8 3.4c1.2-.1 2.5-.9 2.5-3.4zm5-2.6c0-.3-.2-.4-.4-.4h-.8v-1.6h1.8c.8 0 1.2.3 1.2 1.1v1.3c.5-1.4 1.6-2.5 3-2.5h.5v1.8s-.2-.1-.6-.1c-1.2 0-2.3.8-2.7 2.3-.2.6-.2 1.1-.2 1.7v3.9H196zm7.5 0c0-.3-.2-.4-.4-.4h-.8v-1.6h1.8c.9 0 1.2.4 1.2 1.2v6.4c0 .3.2.4.4.4h.8v1.6h-1.8c-.9 0-1.2-.4-1.2-1.2zm0-5.8h1.7v1.9h-1.7zm5.1 5.8c0-.3-.2-.4-.4-.4h-.8v-1.6h1.8c.8 0 1.2.4 1.2 1.1v1c.4-.8 1.5-2.2 3.6-2.2 2.3 0 3.3 1.2 3.3 3.7v4.2c0 .3.2.4.4.4h.8v1.6h-1.8c-.9 0-1.2-.4-1.2-1.2V500c0-1.4-.3-2.4-1.8-2.4s-2.7 1-3 2.4c-.1.4-.2.8-.2 1.3v4.5h-1.8v-7.9zm16.2-2.2c2.9 0 5.2 2.1 5.2 5s-2.3 5.1-5.2 5.1-5.2-2.1-5.2-5.1c0-2.9 2.3-5 5.2-5zm0 8.5c1.8 0 3.3-1.4 3.3-3.5 0-2-1.5-3.4-3.3-3.4s-3.3 1.4-3.3 3.4 1.5 3.5 3.3 3.5zm15.7-10.5h-2.7c-.3 0-.4.1-.4.4v.9h-1.7v-1.8c0-.9.3-1.1 1.1-1.1h9.3c.9 0 1.1.3 1.1 1.1v1.8h-1.7v-.9c0-.3-.2-.4-.4-.4h-2.7v11.8h-1.9zm7 9.9h1.9v2h-1.9zm55.5-7.9h-1.2v-1.6h5.7c2.4 0 4.1 1.6 4.1 4.1s-1.7 4.1-4.1 4.1h-2.7v4.8H303zm4.3 5c1.5 0 2.5-1 2.5-2.5s-.9-2.5-2.4-2.5H305v5zm10.6.6h.4v-.1c0-1.6-.6-2.2-2.1-2.2-.4 0-1.5.1-1.5.7v.5H313v-.9c0-1.5 2.3-1.7 3.2-1.7 3 0 3.8 1.6 3.8 3.6v3.9c0 .3.1.4.4.4h.8v1.5h-1.7c-.8 0-1.2-.4-1.2-1.1v-.6s-.7 1.8-3 1.8c-1.6 0-3.2-1-3.2-2.8.2-2.8 4.3-3 5.8-3zm-2 4.6c1.5 0 2.5-1.6 2.5-3v-.3h-.5c-1.3 0-3.8.1-3.8 1.8 0 .7.6 1.5 1.8 1.5zm7.3-6.2c0-.3-.1-.4-.4-.4h-.8v-1.5h1.7c.8 0 1.2.3 1.2 1v.8c.4-.8 1.5-2.1 3.5-2.1 2.2 0 3.2 1.2 3.2 3.6v4c0 .3.1.4.4.4h.8v1.5H331c-.8 0-1.2-.3-1.2-1.2v-4.4c0-1.3-.3-2.3-1.7-2.3s-2.6.9-2.9 2.3c-.1.4-.2.8-.2 1.2v4.3h-1.8zm11.5 0c0-.3-.1-.4-.4-.4h-.8v-1.5h1.7c.8 0 1.2.3 1.2 1v.8c.4-.8 1.5-2.1 3.5-2.1 2.2 0 3.2 1.2 3.2 3.6v4c0 .3.1.4.4.4h.8v1.5h-1.8c-.8 0-1.2-.3-1.2-1.2v-4.4c0-1.3-.3-2.3-1.7-2.3s-2.6.9-2.9 2.3c-.1.4-.2.8-.2 1.2v4.3h-1.8zm16.2 1.6h.4v-.1c0-1.6-.6-2.2-2.1-2.2-.4 0-1.5.1-1.5.7v.5H346v-.9c0-1.5 2.3-1.7 3.2-1.7 3 0 3.8 1.6 3.8 3.6v3.9c0 .3.1.4.4.4h.8v1.5h-1.7c-.8 0-1.2-.4-1.2-1.1v-.6s-.7 1.8-3 1.8c-1.6 0-3.2-1-3.2-2.8.2-2.8 4.2-3 5.8-3zm-2.1 4.6c1.5 0 2.5-1.6 2.5-3v-.3h-.5c-1.3 0-3.8.1-3.8 1.8.1.7.7 1.5 1.8 1.5zm59-10c-.1-.3-.3-.4-.6-.4h-.3v-1.7h1.1c1 0 1.3.2 1.6 1.1l3 8.4c.3.7.5 1.9.5 1.9s.3-1.1.5-1.9l3-8.4c.3-.9.6-1.1 1.6-1.1h1.1v1.7h-.3c-.3 0-.5.1-.6.4l-4.3 11.5h-2zm17.4 5.4h.4v-.1c0-1.7-.6-2.3-2.2-2.3-.5 0-1.6.1-1.6.8v.6H420v-1c0-1.6 2.4-1.8 3.4-1.8 3.2 0 4 1.7 4 3.8v4.1c0 .3.2.4.4.4h.8v1.6H427c-.9 0-1.2-.4-1.2-1.1v-.6s-.8 1.9-3.1 1.9c-1.7 0-3.3-1-3.3-3-.1-3.1 4.2-3.3 5.8-3.3zm-2.1 4.8c1.6 0 2.6-1.7 2.6-3.1v-.3h-.5c-1.4 0-3.9.1-3.9 1.9-.1.7.5 1.5 1.8 1.5zm7.6-10.3c0-.3-.2-.4-.4-.4h-.8v-1.6h1.8c.9 0 1.2.4 1.2 1.2v10.3c0 .3.2.4.4.4h.8v1.6h-1.8c-.9 0-1.2-.4-1.2-1.2zm8.7 1.6c2.3 0 3 1.5 3 1.5v-3.1c0-.3-.2-.4-.4-.4h-.8v-1.6h1.8c.9 0 1.2.4 1.2 1.2v10.3c0 .3.2.4.4.4h.8v1.6h-1.8c-.8 0-1.2-.4-1.2-1v-.5s-.8 1.8-3.2 1.8c-2.6 0-4.3-2.1-4.3-5.1.1-3.1 1.9-5.1 4.5-5.1zm3 5.1c0-1.7-.9-3.5-2.8-3.5-1.5 0-2.8 1.3-2.8 3.5 0 2.1 1.1 3.5 2.8 3.5 1.5 0 2.8-1 2.8-3.5zm5.2-2.8c0-.3-.2-.4-.4-.4h-.8v-1.6h1.8c.9 0 1.2.4 1.2 1.2v6.5c0 .3.2.4.4.4h.8v1.6h-1.8c-.9 0-1.2-.4-1.2-1.2zm.1-5.9h1.7v1.9h-1.7zm5 10.8s1.2 1.4 2.9 1.4c.9 0 1.7-.4 1.7-1.3 0-1.8-5.3-1.6-5.3-4.7 0-1.9 1.6-2.7 3.6-2.7 1.2 0 3.2.4 3.2 1.9v.9h-1.7v-.5c0-.6-.9-.8-1.5-.8-1.1 0-1.8.4-1.8 1.2 0 1.8 5.3 1.4 5.3 4.7 0 1.7-1.5 2.8-3.6 2.8-2.6 0-3.9-1.7-3.9-1.7zm13.2-7.2c2.9 0 5.3 2.1 5.3 5.1s-2.3 5.1-5.3 5.1c-2.9 0-5.2-2.2-5.2-5.1-.1-3 2.3-5.1 5.2-5.1zm0 8.6c1.8 0 3.3-1.5 3.3-3.5s-1.5-3.5-3.3-3.5-3.3 1.4-3.3 3.5c-.1 2 1.4 3.5 3.3 3.5zm7.6-6.9h-1.3v-1.5h1.3V495h1.8v2.7h2.3v1.5h-2.3v4.5c0 1.9 1.3 2.2 2.1 2.2h.4v1.7h-.7c-1.2 0-3.7-.4-3.7-3.6v-4.9zm6.8 0H479v-1.5h1.3V495h1.8v2.7h2.3v1.5h-2.3v4.5c0 1.9 1.3 2.2 2.1 2.2h.4v1.7h-.7c-1.2 0-3.7-.4-3.7-3.6v-4.9zm10.8-1.7c2.9 0 5.3 2.1 5.3 5.1s-2.3 5.1-5.3 5.1c-2.9 0-5.2-2.2-5.2-5.1 0-3 2.3-5.1 5.2-5.1zm0 8.6c1.8 0 3.3-1.5 3.3-3.5s-1.5-3.5-3.3-3.5-3.3 1.4-3.3 3.5c0 2 1.5 3.5 3.3 3.5zm-38.6 104c0-1.3-.9-2.2-2.4-2.2-1.2 0-2.1.6-2.1 1.3v.6h-1.8v-1.2c0-1.8 2.4-2.5 4-2.5 2.5 0 4.3 1.6 4.3 3.9 0 4.7-6.9 4.8-6.9 7.9 0 .3.2.4.5.4h4.8c.3 0 .4-.2.4-.4v-.8h1.8v1.7c0 .9-.4 1.2-1.2 1.2h-7c-1.1 0-1.3-.5-1.3-1.6 0-4.9 6.9-4.6 6.9-8.3zm4.3 3.1c0-3.9 1.2-7 4.8-7s4.8 3.1 4.8 7-1.2 7.1-4.8 7.1-4.8-3.1-4.8-7.1zm7.7 0c0-3-.6-5.3-2.9-5.3-2.2 0-2.9 2.3-2.9 5.3s.6 5.3 2.9 5.3 2.9-2.3 2.9-5.3zm4 5.2h3v-9.6s-.2.3-.6.8l-1.3 1.3-1.2-1.2 3.3-3.2h1.8v12h3v1.7h-7.9zm9-4.4c0-3.6 1.9-7.8 6.1-7.8 1.6 0 2.6.6 2.6.6l-.6 1.6s-.9-.4-1.9-.4c-2.5 0-3.8 2.3-4.1 4.7.6-.8 1.8-1.3 3-1.3 2.6 0 4.3 1.9 4.3 4.4 0 2.7-1.8 4.6-4.4 4.6-2.8-.1-5-2.6-5-6.4zm5 4.5c1.6 0 2.5-1.2 2.5-2.8s-1-2.8-2.8-2.8c-1.5 0-2.8.9-2.8 1.9.1 1.8 1.4 3.7 3.1 3.7zm72.8-8.3c0-1.2-.9-2.1-2.4-2.1-1.2 0-2.1.6-2.1 1.3v.6H549v-1.1c0-1.8 2.4-2.5 3.9-2.5 2.5 0 4.2 1.6 4.2 3.9 0 4.6-6.8 4.7-6.8 7.8 0 .3.2.4.5.4h4.8c.3 0 .4-.2.4-.4v-1h1.8v1.7c0 .9-.4 1.2-1.2 1.2h-6.9c-1.1 0-1.3-.5-1.3-1.5.1-5 6.9-4.7 6.9-8.3zm4.3 3c0-3.9 1.2-7 4.8-7s4.8 3.1 4.8 7-1.2 7-4.8 7-4.8-3.1-4.8-7zm7.6 0c0-2.9-.6-5.2-2.8-5.2s-2.8 2.3-2.8 5.2.6 5.3 2.8 5.3 2.8-2.3 2.8-5.3zm3.9 5.2h3v-9.5s-.2.3-.6.8l-1.3 1.2-1.1-1.2 3.2-3.1h1.7v11.9h2.9v1.6h-7.8zm15.2-9c.4-.8.8-1.2.8-1.2s-.3.1-1 .1H582c-.3 0-.4.1-.4.4v.9h-1.8v-1.7c0-.9.3-1.2 1.2-1.2h8.2v1.3l-6.5 12.2h-2.1zm103.4-105s1.4 1.6 3.4 1.6c1.3 0 2.3-.8 2.3-2 0-2.9-6.6-2.4-6.6-6.6 0-2 1.8-3.6 4.4-3.6 1.4 0 3.9.7 3.9 2.5v1.1h-1.8v-.6c0-.7-1-1.2-2.1-1.2-1.5 0-2.4.8-2.4 1.8 0 2.8 6.6 2.1 6.6 6.6 0 2.1-1.6 3.9-4.3 3.9-2.9 0-4.5-2-4.5-2zm9.8 1.2h1.9v2h-1.9zm10.3-1.2s1.4 1.6 3.4 1.6c1.3 0 2.3-.8 2.3-2 0-2.9-6.6-2.4-6.6-6.6 0-2 1.8-3.6 4.4-3.6 1.4 0 3.9.7 3.9 2.5v1.1h-1.8v-.6c0-.7-1-1.2-2.1-1.2-1.5 0-2.4.8-2.4 1.8 0 2.8 6.6 2.1 6.6 6.6 0 2.1-1.6 3.9-4.3 3.9-2.9 0-4.5-2-4.5-2zm10.2-5.1h-1.3v-1.5h1.3V495h1.8v2.7h2.3v1.5h-2.3v4.5c0 1.9 1.3 2.2 2.1 2.2h.4v1.7h-.7c-1.2 0-3.7-.4-3.7-3.6v-4.8zm10.5-1.7c2.7 0 4.2 2 4.2 4.6 0 .3-.1.8-.1.8h-7.1c.1 2.1 1.6 3.3 3.4 3.3 1.7 0 2.9-1.1 2.9-1.1l.8 1.3s-1.4 1.4-3.8 1.4c-3.1 0-5.2-2.2-5.2-5.1 0-3.2 2.1-5.2 4.9-5.2zm2.3 3.9c-.1-1.6-1.1-2.5-2.3-2.5-1.4 0-2.6.9-2.9 2.5zm4.4-2.2H736v-1.5h1.2v-.3c0-3.2 2.4-3.6 3.7-3.6.4 0 .7.1.7.1v1.6h-.5c-.7 0-2 .2-2 2v.3h2.3v1.5H739v8.2h-1.9v-8.3zm10.8 2.2h.4v-.1c0-1.7-.6-2.3-2.2-2.3-.5 0-1.6.1-1.6.8v.6h-1.8v-1c0-1.6 2.4-1.8 3.4-1.8 3.2 0 4 1.7 4 3.8v4.1c0 .3.2.4.4.4h.8v1.6h-1.8c-.9 0-1.2-.4-1.2-1.1v-.6s-.8 1.9-3.1 1.9c-1.7 0-3.3-1-3.3-3 .2-3.1 4.4-3.3 6-3.3zm-2.1 4.8c1.6 0 2.6-1.7 2.6-3.1v-.3h-.5c-1.4 0-4 .1-4 1.9 0 .7.6 1.5 1.9 1.5zm7.7-6.5c0-.3-.2-.4-.4-.4h-.8v-1.6h1.8c.8 0 1.2.4 1.2 1.1v1c.4-.8 1.5-2.2 3.7-2.2 2.3 0 3.4 1.3 3.4 3.7v4.2c0 .3.2.4.4.4h.8v1.6h-1.8c-.9 0-1.2-.4-1.2-1.2v-4.6c0-1.4-.3-2.4-1.8-2.4s-2.7 1-3.1 2.4c-.1.4-.2.8-.2 1.3v4.6h-1.9v-7.9zm16.3-2.2c2.9 0 5.3 2.1 5.3 5.1s-2.4 5.1-5.3 5.1-5.2-2.2-5.2-5.1c0-3 2.3-5.1 5.2-5.1zm0 8.6c1.8 0 3.4-1.5 3.4-3.5s-1.5-3.5-3.4-3.5c-1.8 0-3.3 1.4-3.3 3.5 0 2 1.5 3.5 3.3 3.5zm18.8-12.5c4 0 7 3 7 7 0 1.7-.6 3.3-1.6 4.5l1.6 1.5-1.2 1.2-1.6-1.6c-1.2.9-2.7 1.4-4.3 1.4-3.9 0-7-3.1-7-7.1.1-3.9 3.2-6.9 7.1-6.9zm0 12.3c1.8 0 2.9-.9 2.9-.9l-1.5-1.5 1.2-1.3 1.5 1.5c.6-.8 1-2 1-3.2 0-2.9-2.2-5.1-5-5.1s-5 2.2-5 5.1c-.1 3.1 2.1 5.4 4.9 5.4zm8.8-.4h1.9v2h-1.9zm46.3-12c1.9 0 5.2.8 5.2 3v1.4h-1.8v-.8c0-1.2-2-1.8-3.4-1.8-2.8 0-5 2.1-5 5.3 0 3 2.2 5.5 5 5.5l4.4-1.9 1.1 1.4s-2 2.3-5.5 2.3c-4.2 0-7.1-3.2-7.1-7.3.1-4.1 3.1-7.1 7.1-7.1zm12.9 8h.4v-.1c0-1.8-.7-2.4-2.2-2.4-.5 0-1.6.1-1.6.8v.6h-1.8v-1c0-1.6 2.5-1.9 3.5-1.9 3.2 0 4.1 1.7 4.1 3.9v4.3c0 .3.2.4.4.4h.8v1.6h-1.8c-.9 0-1.2-.4-1.2-1.1v-.6s-.8 2-3.2 2c-1.7 0-3.4-1-3.4-3 0-3.3 4.4-3.5 6-3.5zm-2.2 4.9c1.6 0 2.7-1.7 2.7-3.2v-.3h-.5c-1.4 0-4.1.1-4.1 1.9 0 .8.7 1.6 1.9 1.6zm7.8-1.5s1.2 1.5 3 1.5c.9 0 1.7-.4 1.7-1.3 0-1.8-5.5-1.6-5.5-4.8 0-1.9 1.7-2.8 3.7-2.8 1.2 0 3.3.4 3.3 1.9v.9h-1.7v-.5c0-.6-.9-.9-1.5-.9-1.1 0-1.9.4-1.9 1.2 0 1.9 5.5 1.5 5.5 4.8 0 1.8-1.6 2.9-3.7 2.9-2.7 0-4-1.8-4-1.8zm9.2-5.7h-1.3v-1.5h1.3v-2.8h1.9v2.8h2.4v1.5h-2.4v4.6c0 2 1.4 2.3 2.1 2.3h.5v1.7h-.7c-1.3 0-3.8-.4-3.8-3.7zm6.9.6c0-.3-.2-.4-.4-.4h-.8v-1.6h1.8c.9 0 1.3.4 1.3 1.2v1.3c.5-1.5 1.6-2.6 3.2-2.6h.5v1.9s-.3-.1-.6-.1c-1.2 0-2.4.9-2.8 2.4-.2.6-.2 1.2-.2 1.8v4.1h-1.9zm11.7-2.4c3 0 5.4 2.2 5.4 5.2s-2.4 5.3-5.4 5.3-5.4-2.2-5.4-5.3c0-3 2.4-5.2 5.4-5.2zm0 8.9c1.9 0 3.4-1.5 3.4-3.6s-1.5-3.6-3.4-3.6-3.4 1.5-3.4 3.6c-.1 2.1 1.5 3.6 3.4 3.6zm12.2-8.9c1.2 0 3.6.5 3.6 2.2v1h-1.7v-.6c0-.7-1.1-1-1.9-1-2 0-3.4 1.5-3.4 3.6 0 2.3 1.7 3.6 3.5 3.6 1.9 0 3.1-1.4 3.1-1.4l.8 1.4s-1.4 1.7-4.1 1.7c-3.1 0-5.3-2.2-5.3-5.2s2.1-5.3 5.4-5.3zm6.2 2.4c0-.3-.2-.4-.4-.4h-.8v-1.6h1.9c.9 0 1.3.4 1.3 1.3v6.7c0 .3.2.4.4.4h.8v1.6h-1.9c-.9 0-1.3-.4-1.3-1.3zm.1-6.1h1.7v2h-1.7zm9.3 3.7c2.8 0 4.3 2.1 4.3 4.7 0 .3-.1.8-.1.8h-7.3c.1 2.1 1.7 3.3 3.4 3.3l2.9-1.2.8 1.4s-1.5 1.5-3.9 1.5c-3.2 0-5.3-2.3-5.3-5.2.2-3.2 2.4-5.3 5.2-5.3zm2.4 4.1c-.1-1.7-1.1-2.6-2.4-2.6-1.5 0-2.7.9-2.9 2.6zm4.4-5.7c0-.3-.2-.4-.4-.4h-.8v-1.6h1.9c.9 0 1.3.4 1.3 1.3v10.6c0 .3.2.4.4.4h.8v1.6H926c-.9 0-1.3-.4-1.3-1.3zm9.8 1.6c3 0 5.4 2.2 5.4 5.2s-2.4 5.3-5.4 5.3-5.4-2.2-5.4-5.3c0-3 2.4-5.2 5.4-5.2zm0 8.9c1.9 0 3.4-1.5 3.4-3.6s-1.5-3.6-3.4-3.6-3.4 1.5-3.4 3.6 1.5 3.6 3.4 3.6zm-384.1-10.4s1.4 1.6 3.4 1.6c1.3 0 2.3-.8 2.3-2 0-2.8-6.5-2.4-6.5-6.6 0-2 1.8-3.6 4.3-3.6 1.4 0 3.8.6 3.8 2.5v1.1h-1.8v-.6c0-.7-1-1.2-2.1-1.2-1.4 0-2.4.8-2.4 1.8 0 2.7 6.5 2.1 6.5 6.5 0 2.1-1.6 3.8-4.3 3.8-2.9 0-4.5-2-4.5-2zm9.7 1.2h1.9v2h-1.9zm15.8-11.8c3.2 0 4.8 1.7 4.8 1.7l-1.1 1.4s-1.4-1.3-3.7-1.3c-2.7 0-4.8 2.2-4.8 5.1 0 3.1 2.2 5.2 4.9 5.2 2.4 0 3.8-1.7 3.8-1.7v-1.4c0-.3-.2-.4-.4-.4h-.8v-1.6h1.8c.9 0 1.2.4 1.2 1.2v5.4h-1.7v-1.4s-1.5 1.6-4.2 1.6c-3.6 0-6.5-2.8-6.5-7-.1-3.7 2.8-6.8 6.7-6.8zm8.3 6.1c0-.3-.2-.4-.4-.4h-.8v-1.6h1.8c.9 0 1.2.4 1.2 1.2v6.4c0 .3.2.4.4.4h.8v1.6h-1.8c-.9 0-1.2-.4-1.2-1.2zm0-5.8h1.7v1.9h-1.7zm9.3 3.6c2.9 0 5.2 2.1 5.2 5s-2.3 5.1-5.2 5.1-5.2-2.1-5.2-5.1c.1-2.9 2.4-5 5.2-5zm0 8.4c1.8 0 3.3-1.4 3.3-3.5 0-2-1.5-3.4-3.3-3.4s-3.3 1.4-3.3 3.4c0 2.1 1.5 3.5 3.3 3.5zm7.5-6.2c0-.3-.2-.4-.4-.4h-.8v-1.6h1.8c.8 0 1.2.3 1.2 1.1v1.3c.5-1.4 1.6-2.5 3-2.5h.5v1.8s-.2-.1-.6-.1c-1.2 0-2.3.8-2.7 2.3-.2.6-.2 1.1-.2 1.7v3.9H601zm10.3-2.2c2.4 0 3.1 1.5 3.1 1.5v-.3c0-.6.3-1 1.1-1h1.8v1.6h-.8c-.2 0-.4.1-.4.4v7.3c0 3.2-2.4 4.4-4.9 4.4-1.2 0-2.3-.3-3.3-.8l.6-1.5s1.2.6 2.6.6c1.7 0 3-.7 3-2.7v-1.3c-.6.9-1.5 1.5-2.9 1.5-2.7 0-4.3-2.1-4.3-4.9.2-2.8 1.8-4.8 4.4-4.8zm3 4.8c0-2.5-1.2-3.2-2.7-3.2-1.7 0-2.6 1.2-2.6 3.2s1 3.4 2.8 3.4c1.3-.1 2.5-.9 2.5-3.4zm5.2-2.6c0-.3-.2-.4-.4-.4h-.8v-1.6h1.8c.9 0 1.2.4 1.2 1.2v6.4c0 .3.2.4.4.4h.8v1.6h-1.8c-.9 0-1.2-.4-1.2-1.2zm0-5.8h1.7v1.9h-1.7zm9.3 3.6c2.9 0 5.2 2.1 5.2 5s-2.3 5.1-5.2 5.1-5.2-2.1-5.2-5.1c.1-2.9 2.4-5 5.2-5zm0 8.4c1.8 0 3.3-1.4 3.3-3.5 0-2-1.5-3.4-3.3-3.4s-3.3 1.4-3.3 3.4c0 2.1 1.5 3.5 3.3 3.5zm-73.6 10.6c0-.3-.2-.4-.4-.4h-.8v-1.6h1.8c.9 0 1.2.4 1.2 1.2v6.4c0 .3.2.4.4.4h.8v1.6h-1.8c-.9 0-1.2-.4-1.2-1.2zm.1-5.8h1.7v1.9h-1.7zm5.1 5.8c0-.3-.2-.4-.4-.4h-.8v-1.6h1.8c.8 0 1.2.4 1.2 1.1v1c.4-.8 1.5-2.2 3.6-2.2 2.3 0 3.3 1.2 3.3 3.7v4.2c0 .3.2.4.4.4h.8v1.6h-1.8c-.9 0-1.2-.4-1.2-1.2v-4.5c0-1.4-.3-2.4-1.8-2.4s-2.7 1-3 2.4c-.1.4-.2.8-.2 1.3v4.5h-1.8zm17.3-4.2h-1.2v-1.6h5.7c2.3 0 3.9 1.3 3.9 3.4 0 1.5-.8 2.5-1.7 2.9 1.4.4 2.2 1.8 2.2 3.3 0 2.5-1.9 3.8-4.3 3.8h-3.4c-.9 0-1.2-.4-1.2-1.2zm4.5 4c1.2 0 1.9-.9 1.9-2 0-1.2-.7-2-2-2h-2.6v4zm-2.2 6.2h2.4c1.4 0 2.3-.9 2.3-2.3s-.9-2.3-2.3-2.3h-2.8v4.2c0 .2.2.4.4.4zm13.4-8.2c2.9 0 5.2 2.1 5.2 5s-2.3 5.1-5.2 5.1-5.2-2.1-5.2-5.1c0-2.9 2.3-5 5.2-5zm0 8.5c1.8 0 3.3-1.4 3.3-3.5 0-2-1.5-3.4-3.3-3.4s-3.3 1.4-3.3 3.4 1.5 3.5 3.3 3.5zm7.3-1.4s1.1 1.4 2.9 1.4c.9 0 1.7-.4 1.7-1.2 0-1.7-5.3-1.5-5.3-4.6 0-1.8 1.6-2.7 3.6-2.7 1.2 0 3.2.4 3.2 1.9v.9h-1.7v-.5c0-.6-.9-.8-1.4-.8-1.1 0-1.8.4-1.8 1.1 0 1.8 5.3 1.4 5.3 4.6 0 1.7-1.5 2.8-3.5 2.8-2.6 0-3.8-1.7-3.8-1.7zm13.1-7.1c1.2 0 3.5.5 3.5 2.1v1h-1.7v-.5c0-.7-1.1-1-1.8-1-1.9 0-3.3 1.4-3.3 3.4 0 2.2 1.6 3.4 3.4 3.4s3-1.3 3-1.3l.8 1.3s-1.4 1.7-3.9 1.7c-3 0-5.1-2.1-5.1-5-.1-2.9 2-5.1 5.1-5.1zm10.1 0c2.9 0 5.2 2.1 5.2 5s-2.3 5.1-5.2 5.1-5.2-2.1-5.2-5.1c.1-2.9 2.4-5 5.2-5zm0 8.5c1.8 0 3.3-1.4 3.3-3.5 0-2-1.5-3.4-3.3-3.4s-3.3 1.4-3.3 3.4 1.5 3.5 3.3 3.5z" fill="#4a5497"/></svg>