<svg viewBox="0 0 138 50" xmlns="http://www.w3.org/2000/svg"><path d="M26.5 14.8S27.6 16 29 16c.8 0 1.5-.4 1.5-1.2 0-1.8-4.8-1.6-4.8-4.8 0-1.7 1.4-2.9 3.4-2.9 1.2 0 3.1.6 3.1 2v1h-1.7v-.5c0-.5-.7-.8-1.4-.8-.9 0-1.5.4-1.5 1.1 0 1.8 4.8 1.4 4.8 4.8 0 1.6-1.3 3-3.4 3-2.3 0-3.5-1.6-3.5-1.6zm11.9-1.9h.2v-.1c0-1.1-.4-1.4-1.4-1.4-.3 0-1 .1-1 .5v.4h-1.7v-.8c0-1.4 1.9-1.5 2.7-1.5 2.5 0 3.2 1.3 3.2 2.9v2.8c0 .2.1.3.3.3h.6v1.6h-1.7c-.7 0-.9-.4-.9-.8v-.3s-.6 1.3-2.2 1.3c-1.3 0-2.5-.8-2.5-2.3 0-2.4 3.2-2.6 4.4-2.6zM37 16.3c1 0 1.7-1 1.7-1.9v-.2h-.3c-1 0-2.5.1-2.5 1.2 0 .4.4.9 1.1.9zm6.5-4.2c0-.2-.1-.3-.3-.3h-.6v-1.6h1.7c.7 0 1 .3 1 .8v.5c.3-.6 1.1-1.5 2.6-1.5 1.6 0 2.6.9 2.6 2.8v2.9c0 .2.1.3.3.3h.6v1.6h-1.8c-.7 0-1-.3-1-1v-3.4c0-.9-.2-1.5-1.2-1.5s-1.7.6-2 1.5c-.1.3-.1.6-.1 1v3.4h-1.8zm19-5c2.5 0 3.8 1.3 3.8 1.3l-1.1 1.4s-1.1-.9-2.6-.9c-1.8 0-3.3 1.4-3.3 3.5 0 2.2 1.5 3.6 3.4 3.6 1.6 0 2.6-1.1 2.6-1.1v-.8c0-.2-.1-.3-.3-.3h-.6v-1.6h1.7c.7 0 1 .3 1 1v4.4h-1.6v-.9s-1.1 1.1-3 1.1c-2.7 0-5-2.1-5-5.4-.3-3 2-5.3 5-5.3zm7 5c0-.2-.1-.3-.3-.3h-.6v-1.6h1.8c.7 0 1 .3 1 1v4.5c0 .2.1.3.3.3h.6v1.6h-1.8c-.7 0-1-.3-1-1zm.1-4.8h1.6V9h-1.6zm8.1 2.7c2.3 0 4.1 1.6 4.1 3.9s-1.8 3.9-4.1 3.9c-2.2 0-4-1.6-4-3.9s1.8-3.9 4-3.9zm0 6.2c1.2 0 2.2-.9 2.2-2.3s-1-2.3-2.2-2.3-2.2.9-2.2 2.3c0 1.3 1 2.3 2.2 2.3zm6.4-4.1c0-.2-.1-.3-.3-.3h-.6v-1.6h1.7c.7 0 1 .3 1 .9v.9c.3-1.1 1.2-1.9 2.3-1.9h.3v1.8h-.4c-.8 0-1.7.4-2 1.6-.1.4-.2.8-.2 1.2v2.9h-1.8zM93 10c1.7 0 2.3 1 2.3 1v-.2c0-.3.2-.7.8-.7h1.7v1.6h-.6c-.2 0-.3.1-.3.3v5.1c0 2.5-2 3.5-3.9 3.5-.9 0-1.9-.3-2.6-.6l.6-1.4s.9.5 2 .5 2.1-.5 2.1-1.8v-.7c-.4.6-1.1 1-2.1 1-2.1 0-3.3-1.7-3.3-3.7 0-2.2 1.1-3.9 3.3-3.9zm2.1 3.7c0-1.7-.8-2.1-1.8-2.1-1.1 0-1.7.8-1.7 2.1s.7 2.2 1.8 2.2c.9 0 1.7-.5 1.7-2.2zm4.9-1.6c0-.2-.1-.3-.3-.3h-.6v-1.6h1.8c.7 0 1 .3 1 1v4.5c0 .2.1.3.3.3h.6v1.6H101c-.7 0-1-.3-1-1zm.1-4.8h1.6V9h-1.6zm8.2 2.7c2.3 0 4.1 1.6 4.1 3.9s-1.8 3.9-4.1 3.9c-2.2 0-4-1.6-4-3.9-.1-2.3 1.7-3.9 4-3.9zm0 6.2c1.2 0 2.2-.9 2.2-2.3s-1-2.3-2.2-2.3-2.2.9-2.2 2.3c0 1.3 1 2.3 2.2 2.3zm-70.1 9.3c0-.2-.1-.3-.3-.3h-.6v-1.6h1.8c.7 0 1 .3 1 1v4.5c0 .2.1.3.3.3h.6V31h-1.8c-.7 0-1-.3-1-1zm.1-4.8h1.6v1.7h-1.6zm4.8 4.8c0-.2-.1-.3-.3-.3h-.6v-1.6h1.7c.7 0 1 .3 1 .8v.5c.3-.6 1.1-1.5 2.6-1.5 1.6 0 2.6.9 2.6 2.8v2.9c0 .2.1.3.3.3h.6V31h-1.8c-.7 0-1-.3-1-1v-3.4c0-.9-.2-1.5-1.2-1.5s-1.7.6-2 1.5V31h-1.8zm14.7-3.2h-.9v-1.6h4.5c1.9 0 3.2 1 3.2 2.7 0 1.1-.6 1.9-1.2 2.2 1.1.3 1.7 1.4 1.7 2.4 0 2.1-1.6 3-3.6 3h-2.6c-.7 0-1-.3-1-1zm3.5 2.6c.8 0 1.2-.6 1.2-1.3s-.4-1.3-1.3-1.3h-1.6v2.6zM60 29.4h1.5c.9 0 1.4-.6 1.4-1.5s-.5-1.5-1.4-1.5h-1.8v2.7c0 .2.1.3.3.3zm10.7-5.9c2.3 0 4.1 1.6 4.1 3.9s-1.8 3.9-4.1 3.9c-2.2 0-4-1.6-4-3.9-.1-2.3 1.7-3.9 4-3.9zm0 6.1c1.2 0 2.2-.9 2.2-2.3s-1-2.3-2.2-2.3-2.2.9-2.2 2.3 1 2.3 2.2 2.3zm6.4-.9s.9 1.1 2.2 1.1c.6 0 1-.2 1-.7 0-1-3.9-1-3.9-3.4 0-1.5 1.3-2.2 2.9-2.2 1 0 2.6.3 2.6 1.5v.8h-1.6v-.4c0-.3-.5-.5-.9-.5-.7 0-1.1.2-1.1.7 0 1.2 3.9.9 3.9 3.4 0 1.4-1.2 2.3-2.8 2.3-2 0-3.1-1.3-3.1-1.3zm10.7-5.2c1 0 2.7.4 2.7 1.7v.8h-1.6v-.4c0-.4-.6-.6-1.1-.6-1.3 0-2.2 1-2.2 2.3 0 1.5 1.1 2.3 2.3 2.3 1.3 0 2.2-1 2.2-1l.8 1.3s-1.1 1.3-3.1 1.3c-2.4 0-4-1.7-4-3.9 0-2.1 1.5-3.8 4-3.8zm8.5 0c2.3 0 4.1 1.6 4.1 3.9s-1.8 3.9-4.1 3.9c-2.2 0-4-1.6-4-3.9-.1-2.3 1.7-3.9 4-3.9zm0 6.1c1.2 0 2.2-.9 2.2-2.3s-1-2.3-2.2-2.3-2.2.9-2.2 2.3 1 2.3 2.2 2.3z" fill="#fff"/><path d="M131.8 1.1H6.2c-3.3 0-6 2.7-6 6v24.3c0 3.3 2.7 6 6 6h45.4c2.4 0 4.7 1 6.4 2.7l8.8 8.9c1.2 1.2 3.1 1.2 4.2 0l8.8-8.9c1.7-1.7 4-2.7 6.4-2.7h45.4c3.3 0 6-2.7 6-6V7.1c.2-3.3-2.5-6-5.8-6z" fill="#f3352f"/><path d="M31.4 21.7s1.2 1.3 2.7 1.3c.9 0 1.6-.5 1.6-1.3 0-1.9-5.3-1.8-5.3-5.3 0-1.8 1.6-3.2 3.8-3.2 1.3 0 3.3.6 3.3 2.2v1h-1.9V16c0-.5-.7-.9-1.5-.9-.9 0-1.6.5-1.6 1.2 0 1.9 5.3 1.5 5.3 5.2 0 1.8-1.4 3.3-3.7 3.3-2.5 0-3.9-1.7-3.9-1.7zm8.8 1h1.9v2h-1.9zm10.4-1s1.2 1.3 2.7 1.3c.9 0 1.6-.5 1.6-1.3 0-1.9-5.3-1.8-5.3-5.3 0-1.8 1.6-3.2 3.8-3.2 1.3 0 3.3.6 3.3 2.2v1h-1.9V16c0-.5-.7-.9-1.5-.9-.9 0-1.6.5-1.6 1.2 0 1.9 5.3 1.5 5.3 5.2 0 1.8-1.4 3.3-3.7 3.3-2.5 0-3.9-1.7-3.9-1.7zm9.1-3.5h-1v-1.6h1.1v-2.2h2v2.2h1.8v1.6h-1.8v3.3c0 1.3 1 1.5 1.6 1.5h.4v1.8h-.6c-1.1 0-3.4-.3-3.4-3zm9.7-1.8c2.3 0 3.6 1.7 3.6 3.8v.7h-5.6c.2 1.4 1.2 2.2 2.4 2.2 1.3 0 2.3-.9 2.3-.9l.8 1.4s-1.2 1.2-3.2 1.2c-2.7 0-4.3-1.9-4.3-4.2-.1-2.5 1.6-4.2 4-4.2zm1.5 3.2c0-1-.7-1.6-1.5-1.6-1 0-1.8.6-2 1.6zm4.7-1.4h-1v-1.6h1v-.2c0-2.6 2.2-3 3.3-3h.7v1.7h-.4c-.6 0-1.6.1-1.6 1.3v.2h1.7v1.6h-1.7v6.5h-2zm9.9 1.4h.3v-.1c0-1.2-.5-1.6-1.5-1.6-.4 0-1.1.1-1.1.5v.4h-1.9v-.9c0-1.5 2.1-1.7 3-1.7 2.7 0 3.5 1.4 3.5 3.2v3c0 .2.1.3.3.3h.6v1.7H87c-.7 0-1-.4-1-.9v-.3s-.6 1.4-2.4 1.4c-1.4 0-2.8-.9-2.8-2.5-.1-2.3 3.4-2.5 4.7-2.5zM84 23.3c1.1 0 1.8-1.1 1.8-2.1V21h-.3c-1 0-2.7.1-2.7 1.3 0 .5.3 1 1.2 1zm7.1-4.7c0-.2-.1-.3-.3-.3h-.6v-1.7h1.9c.7 0 1.1.3 1.1.9v.5c.3-.7 1.2-1.7 2.8-1.7 1.8 0 2.8.9 2.8 3.1v3.1c0 .2.1.3.3.3h.6v1.7h-1.9c-.8 0-1.1-.3-1.1-1.1v-3.7c0-1-.3-1.6-1.3-1.6-1.1 0-1.9.7-2.2 1.6-.1.3-.2.7-.2 1.1v3.7h-2zm14.5-2.2c2.5 0 4.4 1.8 4.4 4.2 0 2.5-2 4.2-4.4 4.2-2.5 0-4.4-1.7-4.4-4.2 0-2.4 1.9-4.2 4.4-4.2zm0 6.7c1.3 0 2.4-1 2.4-2.5s-1.1-2.5-2.4-2.5-2.4 1-2.4 2.5 1.1 2.5 2.4 2.5z" fill="#fff"/></svg>