<svg viewBox="0 0 98 80" xmlns="http://www.w3.org/2000/svg"><path d="M23.7 34.1c-12.4 0-22.5 10.1-22.5 22.5S11.3 79 23.7 79s22.5-10.1 22.5-22.5-10.1-22.4-22.5-22.4zm0 39.3c-9.3 0-16.9-7.6-16.9-16.9s7.6-16.9 16.9-16.9 16.9 7.6 16.9 16.9c0 9.4-7.6 16.9-16.9 16.9zm0-25.3c-4.7 0-8.4 3.8-8.4 8.4 0 4.7 3.8 8.4 8.4 8.4 4.7 0 8.4-3.8 8.4-8.4s-3.8-8.4-8.4-8.4zm0 11.3c-1.6 0-2.8-1.3-2.8-2.8 0-1.6 1.3-2.8 2.8-2.8 1.6 0 2.8 1.3 2.8 2.8s-1.3 2.8-2.8 2.8zm67.9-9.8v-9.9c0-6.2-5-11.2-11.3-11.2h-5.6V14.4c0-1.6 1.3-2.8 2.8-2.8V6c-4.7 0-8.4 3.8-8.4 8.4v14.1H56.7L50 5.9h4.7V.3h-45v5.6h5.6v17.9c-4.8 1.2-9.2 3.5-13 6.6l3.6 4.3c5-4.1 11.4-6.4 17.9-6.4 15.5 0 28.1 12.6 28.1 28.1V65h11.9C65 73 72 79 80.3 79c9.3 0 16.9-7.6 16.9-16.9 0-4.9-2.2-9.4-5.6-12.5zM20.9 22.9v-17h23.2l6.8 22.5h-8.5c-5.3-3.6-11.8-5.6-18.6-5.6-1.1 0-2 .1-2.9.1zm27.9 11.2h31.5c3.1 0 5.6 2.5 5.6 5.6v6.6c-1.8-.6-3.7-1-5.6-1H55.5c-1.5-4.2-3.8-8-6.7-11.2zM57 50.9h10.8c-2.1 2.3-3.5 5.2-4.1 8.4h-6.2v-2.8c-.1-1.9-.2-3.7-.5-5.6zm23.3 22.5c-6.2 0-11.3-5-11.3-11.2S74 51 80.3 51c6.2 0 11.3 5 11.3 11.2s-5.1 11.2-11.3 11.2zm2.8-11.2c0 1.6-1.3 2.8-2.8 2.8s-2.8-1.3-2.8-2.8c0-1.6 1.3-2.8 2.8-2.8s2.8 1.2 2.8 2.8z" fill="#c0b07f"/></svg>