<svg viewBox="0 0 1118 750" xmlns="http://www.w3.org/2000/svg"><path d="M1117.1 557.4H8.8c-4.6 0-8.3-3.7-8.3-8.3V-.3c0-.3.2-.5.5-.5s.5.2.5.5v549.4c0 4 3.3 7.3 7.3 7.3H1117c.3 0 .5.2.5.5s-.2.5-.4.5zm-52.2-478.2c0-.5.5-1 1-1 .6 0 1 .4 1 1s-.5 1-1 1c-.6 0-1-.5-1-1zm-9 0c0-.5.5-1 1-1 .6 0 1 .4 1 1s-.4 1-1 1-1-.5-1-1zm-9 0c0-.5.5-1 1-1s1 .4 1 1-.5 1-1 1c-.6 0-1-.5-1-1zm-9 0c0-.5.4-1 1-1s1 .4 1 1-.4 1-1 1-1-.5-1-1zm-9 0c0-.5.5-1 1-1s1 .4 1 1-.4 1-1 1-1-.5-1-1zm-9 0c0-.5.5-1 1-1s1 .4 1 1-.5 1-1 1c-.6 0-1-.5-1-1zm-9 0c0-.5.4-1 1-1s1 .4 1 1-.5 1-1 1c-.6 0-1-.5-1-1zm-9 0c0-.5.5-1 1-1s1 .4 1 1-.4 1-1 1-1-.5-1-1zm-9 0c0-.5.5-1 1-1 .6 0 1 .4 1 1s-.5 1-1 1c-.6 0-1-.5-1-1zm-9 0c0-.5.4-1 1-1 .5 0 1 .4 1 1s-.4 1-1 1-1-.5-1-1zm-9 0c0-.5.5-1 1-1s1 .4 1 1-.5 1-1 1c-.6 0-1-.5-1-1zm-9 0c0-.5.4-1 1-1s1 .4 1 1-.5 1-1 1c-.6 0-1-.5-1-1zm-9 0c0-.5.5-1 1-1s1 .4 1 1-.4 1-1 1-1-.5-1-1zm-9 0c0-.5.5-1 1-1 .6 0 1 .4 1 1s-.5 1-1 1c-.6 0-1-.5-1-1zm-9 0c0-.5.4-1 1-1s1 .4 1 1-.4 1-1 1-1-.5-1-1zm-9 0c0-.5.5-1 1-1s1 .4 1 1-.5 1-1 1c-.6 0-1-.5-1-1zm-9 0c0-.5.4-1 1-1s1 .4 1 1-.5 1-1 1c-.6 0-1-.5-1-1zm-9 0c0-.5.5-1 1-1s1 .4 1 1-.4 1-1 1-1-.5-1-1zm-9 0c0-.5.5-1 1-1 .6 0 1 .4 1 1s-.5 1-1 1c-.6 0-1-.5-1-1zm-9 0c0-.5.4-1 1-1s1 .4 1 1-.4 1-1 1-1-.5-1-1zm-9 0c0-.5.5-1 1-1s1 .4 1 1-.5 1-1 1c-.6 0-1-.5-1-1zm-9 0c0-.5.4-1 1-1s1 .4 1 1-.5 1-1 1c-.6 0-1-.5-1-1zm-9 0c0-.5.5-1 1-1s1 .4 1 1-.4 1-1 1-1-.5-1-1zm-9 0c0-.5.5-1 1-1 .6 0 1 .4 1 1s-.5 1-1 1c-.6 0-1-.5-1-1zm-9 0c0-.5.4-1 1-1s1 .4 1 1-.4 1-1 1-1-.5-1-1zm-9 0c0-.5.5-1 1-1s1 .4 1 1-.4 1-1 1-1-.5-1-1zm-9 0c0-.5.4-1 1-1s1 .4 1 1-.5 1-1 1c-.6 0-1-.5-1-1zm-9 0c0-.5.5-1 1-1s1 .4 1 1-.4 1-1 1-1-.5-1-1zm-9 0c0-.5.5-1 1-1 .6 0 1 .4 1 1s-.5 1-1 1c-.6 0-1-.5-1-1zm-9 0c0-.5.4-1 1-1s1 .4 1 1-.4 1-1 1-1-.5-1-1zm-9 0c0-.5.5-1 1-1s1 .4 1 1-.4 1-1 1-1-.5-1-1zm-9 0c0-.5.4-1 1-1s1 .4 1 1-.5 1-1 1c-.6 0-1-.5-1-1zm-9 0c0-.5.5-1 1-1s1 .4 1 1-.4 1-1 1-1-.5-1-1zm-9 0c0-.5.5-1 1-1 .6 0 1 .4 1 1s-.5 1-1 1c-.6 0-1-.5-1-1zm-9 0c0-.5.4-1 1-1s1 .4 1 1-.4 1-1 1-1-.5-1-1zm-9 0c0-.5.5-1 1-1s1 .4 1 1-.4 1-1 1-1-.5-1-1zm-9 0c0-.5.4-1 1-1s1 .4 1 1-.5 1-1 1c-.6 0-1-.5-1-1zm-9 0c0-.5.5-1 1-1s1 .4 1 1-.4 1-1 1-1-.5-1-1zm-9 0c0-.5.5-1 1-1 .6 0 1 .4 1 1s-.5 1-1 1c-.6 0-1-.5-1-1zm-9 0c0-.5.4-1 1-1s1 .4 1 1-.4 1-1 1-1-.5-1-1zm-9 0c0-.5.4-1 1-1 .5 0 1 .4 1 1s-.4 1-1 1-1-.5-1-1zm-9 0c0-.5.4-1 1-1 .5 0 1 .4 1 1s-.5 1-1 1c-.6 0-1-.5-1-1zm-9 0c0-.5.4-1 1-1 .5 0 1 .4 1 1s-.5 1-1 1c-.6 0-1-.5-1-1zm-9 0c0-.5.5-1 1-1s1 .4 1 1-.5 1-1 1c-.6 0-1-.5-1-1zm-9 0c0-.5.4-1 1-1s1 .4 1 1-.5 1-1 1c-.6 0-1-.5-1-1zm-9 0c0-.5.4-1 1-1 .5 0 1 .4 1 1s-.4 1-1 1-1-.5-1-1zm-9 0c0-.5.4-1 1-1 .5 0 1 .4 1 1s-.5 1-1 1c-.6 0-1-.5-1-1zm-9 0c0-.5.4-1 1-1 .5 0 1 .4 1 1s-.5 1-1 1c-.6 0-1-.5-1-1zm-9 0c0-.5.5-1 1-1s1 .4 1 1-.5 1-1 1c-.6 0-1-.5-1-1zm-9 0c0-.5.4-1 1-1s1 .4 1 1-.5 1-1 1c-.6 0-1-.5-1-1zm-9 0c0-.5.4-1 1-1 .5 0 1 .4 1 1s-.4 1-1 1-1-.5-1-1zm-9 0c0-.5.4-1 1-1 .5 0 1 .4 1 1s-.5 1-1 1c-.6 0-1-.5-1-1zm-9 0c0-.5.4-1 1-1 .5 0 1 .4 1 1s-.5 1-1 1c-.6 0-1-.5-1-1zm-9 0c0-.5.5-1 1-1s1 .4 1 1-.5 1-1 1c-.6 0-1-.5-1-1zm-9 0c0-.5.4-1 1-1s1 .4 1 1-.5 1-1 1c-.6 0-1-.5-1-1zm-9 0c0-.5.4-1 1-1 .5 0 1 .4 1 1s-.4 1-1 1-1-.5-1-1zm-9 0c0-.5.4-1 1-1 .5 0 1 .4 1 1s-.5 1-1 1c-.6 0-1-.5-1-1zm-9 0c0-.5.4-1 1-1 .5 0 1 .4 1 1s-.5 1-1 1c-.6 0-1-.5-1-1zm-9 0c0-.5.5-1 1-1s1 .4 1 1-.5 1-1 1c-.6 0-1-.5-1-1zm-9 0c0-.5.4-1 1-1s1 .4 1 1-.5 1-1 1c-.6 0-1-.5-1-1zm-9 0c0-.5.4-1 1-1 .5 0 1 .4 1 1s-.4 1-1 1-1-.5-1-1zm-9 0c0-.5.4-1 1-1 .5 0 1 .4 1 1s-.5 1-1 1c-.6 0-1-.5-1-1zm-9 0c0-.5.4-1 1-1 .5 0 1 .4 1 1s-.5 1-1 1c-.6 0-1-.5-1-1zm-9 0c0-.5.5-1 1-1s1 .4 1 1-.5 1-1 1c-.6 0-1-.5-1-1zm-9 0c0-.5.4-1 1-1s1 .4 1 1-.5 1-1 1c-.6 0-1-.5-1-1zm-9 0c0-.5.4-1 1-1 .5 0 1 .4 1 1s-.4 1-1 1-1-.5-1-1zm-9 0c0-.5.4-1 1-1 .5 0 1 .4 1 1s-.5 1-1 1c-.6 0-1-.5-1-1zm-9 0c0-.5.4-1 1-1 .5 0 1 .4 1 1s-.5 1-1 1c-.6 0-1-.5-1-1zm-9 0c0-.5.5-1 1-1s1 .4 1 1-.5 1-1 1c-.6 0-1-.5-1-1zm-9 0c0-.5.4-1 1-1s1 .4 1 1-.5 1-1 1c-.6 0-1-.5-1-1zm-9 0c0-.5.4-1 1-1 .5 0 1 .4 1 1s-.4 1-1 1-1-.5-1-1zm-9 0c0-.5.4-1 1-1 .5 0 1 .4 1 1s-.5 1-1 1c-.6 0-1-.5-1-1zm-9 0c0-.5.4-1 1-1 .5 0 1 .4 1 1s-.5 1-1 1c-.6 0-1-.5-1-1zm-9 0c0-.5.5-1 1-1s1 .4 1 1-.5 1-1 1c-.6 0-1-.5-1-1zm-9 0c0-.5.5-1 1-1s1 .4 1 1-.5 1-1 1c-.6 0-1-.5-1-1zm-9 0c0-.5.4-1 1-1 .5 0 1 .4 1 1s-.5 1-1 1c-.6 0-1-.5-1-1zm-9 0c0-.5.4-1 1-1 .5 0 1 .4 1 1s-.5 1-1 1c-.6 0-1-.5-1-1zm-9 0c0-.5.4-1 1-1 .5 0 1 .4 1 1s-.5 1-1 1c-.6 0-1-.5-1-1zm-9 0c0-.5.4-1 1-1 .5 0 1 .4 1 1s-.5 1-1 1c-.6 0-1-.5-1-1zm-9 0c0-.5.5-1 1-1s1 .4 1 1-.5 1-1 1c-.6 0-1-.5-1-1zm-9 0c0-.5.4-1 1-1 .5 0 1 .4 1 1s-.5 1-1 1c-.6 0-1-.5-1-1zm-9 0c0-.5.4-1 1-1 .5 0 1 .4 1 1s-.5 1-1 1c-.6 0-1-.5-1-1zm-9 0c0-.5.4-1 1-1 .5 0 1 .4 1 1s-.5 1-1 1c-.6 0-1-.5-1-1zm-9 0c0-.5.4-1 1-1 .5 0 1 .4 1 1s-.5 1-1 1c-.6 0-1-.5-1-1zm-9 0c0-.5.5-1 1-1s1 .4 1 1-.5 1-1 1c-.6 0-1-.5-1-1zm-9 0c0-.5.4-1 1-1 .5 0 1 .4 1 1s-.5 1-1 1c-.6 0-1-.5-1-1zm-9 0c0-.5.4-1 1-1 .5 0 1 .4 1 1s-.5 1-1 1c-.6 0-1-.5-1-1zm-9 0c0-.5.4-1 1-1 .5 0 1 .4 1 1s-.5 1-1 1c-.6 0-1-.5-1-1zm-9 0c0-.5.4-1 1-1 .5 0 1 .4 1 1s-.5 1-1 1c-.6 0-1-.5-1-1zm-9 0c0-.5.5-1 1-1s1 .4 1 1-.5 1-1 1c-.6 0-1-.5-1-1zm-9 0c0-.5.4-1 1-1 .5 0 1 .4 1 1s-.5 1-1 1c-.6 0-1-.5-1-1zm-9 0c0-.5.4-1 1-1 .5 0 1 .4 1 1s-.5 1-1 1c-.6 0-1-.5-1-1zm-9 0c0-.5.4-1 1-1 .5 0 1 .4 1 1s-.5 1-1 1c-.6 0-1-.5-1-1zm-9 0c0-.5.4-1 1-1 .5 0 1 .4 1 1s-.5 1-1 1c-.6 0-1-.5-1-1zm-9 0c0-.5.5-1 1-1s1 .4 1 1-.5 1-1 1c-.6 0-1-.5-1-1zm-9 0c0-.5.4-1 1-1 .5 0 1 .4 1 1s-.5 1-1 1c-.6 0-1-.5-1-1zm-9 0c0-.5.4-1 1-1 .5 0 1 .4 1 1s-.5 1-1 1c-.6 0-1-.5-1-1zm-9 0c0-.5.4-1 1-1 .5 0 1 .4 1 1s-.5 1-1 1c-.6 0-1-.5-1-1zm-9 0c0-.5.4-1 1-1 .5 0 1 .4 1 1s-.5 1-1 1c-.6 0-1-.5-1-1zm-9 0c0-.5.5-1 1-1s1 .4 1 1-.5 1-1 1c-.6 0-1-.5-1-1zm-9 0c0-.5.4-1 1-1 .5 0 1 .4 1 1s-.5 1-1 1c-.6 0-1-.5-1-1zm-9 0c0-.5.4-1 1-1 .5 0 1 .4 1 1s-.5 1-1 1c-.6 0-1-.5-1-1zm-9 0c0-.5.4-1 1-1 .5 0 1 .4 1 1s-.5 1-1 1c-.6 0-1-.5-1-1zm-9 0c0-.5.4-1 1-1 .5 0 1 .4 1 1s-.5 1-1 1c-.6 0-1-.5-1-1zm-9 0c0-.5.5-1 1-1s1 .4 1 1-.5 1-1 1c-.6 0-1-.5-1-1zm-9 0c0-.5.4-1 1-1 .5 0 1 .4 1 1s-.5 1-1 1c-.6 0-1-.5-1-1zm-9 0c0-.5.4-1 1-1 .5 0 1 .4 1 1s-.5 1-1 1c-.6 0-1-.5-1-1zm-9 0c0-.5.4-1 1-1 .5 0 1 .4 1 1s-.5 1-1 1c-.6 0-1-.5-1-1zm-9 0c0-.5.4-1 1-1 .5 0 1 .4 1 1s-.5 1-1 1c-.6 0-1-.5-1-1zm-9 0c0-.5.5-1 1-1s1 .4 1 1-.5 1-1 1c-.6 0-1-.5-1-1zm-9 0c0-.5.4-1 1-1s1 .4 1 1-.4 1-1 1-1-.5-1-1zm990 123.1c0-.5.5-1 1-1 .6 0 1 .5 1 1s-.4 1-1 1-1-.5-1-1zm-9 0c0-.5.5-1 1-1 .6 0 1 .5 1 1s-.4 1-1 1-1-.5-1-1zm-9 0c0-.5.5-1 1-1s1 .5 1 1-.5 1-1 1c-.6 0-1-.5-1-1zm-9 0c0-.5.5-1 1-1s1 .5 1 1-.4 1-1 1-1-.5-1-1zm-9 0c0-.5.4-1 1-1s1 .5 1 1-.4 1-1 1-1-.5-1-1zm-9 0c0-.5.5-1 1-1 .6 0 1 .5 1 1s-.5 1-1 1c-.6 0-1-.5-1-1zm-9 0c0-.5.5-1 1-1s1 .5 1 1-.5 1-1 1c-.6 0-1-.5-1-1zm-9 0c0-.5.4-1 1-1 .5 0 1 .5 1 1s-.5 1-1 1c-.6 0-1-.5-1-1zm-9 0c0-.5.4-1 1-1s1 .5 1 1-.4 1-1 1-1-.5-1-1zm-9 0c0-.5.5-1 1-1 .6 0 1 .5 1 1s-.4 1-1 1-1-.5-1-1zm-9 0c0-.5.5-1 1-1 .6 0 1 .5 1 1s-.5 1-1 1c-.6 0-1-.5-1-1zm-9 0c0-.5.5-1 1-1s1 .5 1 1-.5 1-1 1c-.6 0-1-.5-1-1zm-9 0c0-.5.4-1 1-1 .5 0 1 .5 1 1s-.4 1-1 1-1-.5-1-1zm-9 0c0-.5.4-1 1-1s1 .5 1 1-.4 1-1 1-1-.5-1-1zm-9 0c0-.5.5-1 1-1 .6 0 1 .5 1 1s-.5 1-1 1c-.6 0-1-.5-1-1zm-9 0c0-.5.5-1 1-1s1 .5 1 1-.5 1-1 1c-.6 0-1-.5-1-1zm-9 0c0-.5.4-1 1-1 .5 0 1 .5 1 1s-.5 1-1 1c-.6 0-1-.5-1-1zm-9 0c0-.5.4-1 1-1s1 .5 1 1-.4 1-1 1-1-.5-1-1zm-9 0c0-.5.5-1 1-1 .6 0 1 .5 1 1s-.4 1-1 1-1-.5-1-1zm-9 0c0-.5.5-1 1-1 .6 0 1 .5 1 1s-.5 1-1 1c-.6 0-1-.5-1-1zm-9 0c0-.5.5-1 1-1s1 .5 1 1-.5 1-1 1c-.6 0-1-.5-1-1zm-9 0c0-.5.4-1 1-1 .5 0 1 .5 1 1s-.4 1-1 1-1-.5-1-1zm-9 0c0-.5.4-1 1-1s1 .5 1 1-.4 1-1 1-1-.5-1-1zm-9 0c0-.5.5-1 1-1 .6 0 1 .5 1 1s-.5 1-1 1c-.6 0-1-.5-1-1zm-9 0c0-.5.5-1 1-1s1 .5 1 1-.5 1-1 1c-.6 0-1-.5-1-1zm-9 0c0-.5.4-1 1-1 .5 0 1 .5 1 1s-.5 1-1 1c-.6 0-1-.5-1-1zm-9 0c0-.5.4-1 1-1s1 .5 1 1-.4 1-1 1-1-.5-1-1zm-9 0c0-.5.5-1 1-1 .6 0 1 .5 1 1s-.4 1-1 1-1-.5-1-1zm-9 0c0-.5.5-1 1-1 .6 0 1 .5 1 1s-.5 1-1 1c-.6 0-1-.5-1-1zm-9 0c0-.5.5-1 1-1s1 .5 1 1-.5 1-1 1c-.6 0-1-.5-1-1zm-9 0c0-.5.4-1 1-1 .5 0 1 .5 1 1s-.4 1-1 1-1-.5-1-1zm-9 0c0-.5.4-1 1-1s1 .5 1 1-.4 1-1 1-1-.5-1-1zm-9 0c0-.5.5-1 1-1 .6 0 1 .5 1 1s-.5 1-1 1c-.6 0-1-.5-1-1zm-9 0c0-.5.5-1 1-1s1 .5 1 1-.5 1-1 1c-.6 0-1-.5-1-1zm-9 0c0-.5.4-1 1-1 .5 0 1 .5 1 1s-.5 1-1 1c-.6 0-1-.5-1-1zm-9 0c0-.5.4-1 1-1s1 .5 1 1-.4 1-1 1-1-.5-1-1zm-9 0c0-.5.5-1 1-1 .6 0 1 .5 1 1s-.4 1-1 1-1-.5-1-1zm-9 0c0-.5.5-1 1-1 .6 0 1 .5 1 1s-.5 1-1 1c-.6 0-1-.5-1-1zm-9 0c0-.5.5-1 1-1s1 .5 1 1-.5 1-1 1c-.6 0-1-.5-1-1zm-9 0c0-.5.4-1 1-1 .5 0 1 .5 1 1s-.4 1-1 1-1-.5-1-1zm-9 0c0-.5.4-1 1-1s1 .5 1 1-.5 1-1 1c-.6 0-1-.5-1-1zm-9 0c0-.5.5-1 1-1s1 .5 1 1-.5 1-1 1c-.6 0-1-.5-1-1zm-9 0c0-.5.4-1 1-1 .5 0 1 .5 1 1s-.5 1-1 1c-.6 0-1-.5-1-1zm-9 0c0-.5.4-1 1-1 .5 0 1 .5 1 1s-.5 1-1 1c-.6 0-1-.5-1-1zm-9 0c0-.5.4-1 1-1s1 .5 1 1-.5 1-1 1c-.6 0-1-.5-1-1zm-9 0c0-.5.5-1 1-1s1 .5 1 1-.5 1-1 1c-.6 0-1-.5-1-1zm-9 0c0-.5.4-1 1-1 .5 0 1 .5 1 1s-.5 1-1 1c-.6 0-1-.5-1-1zm-9 0c0-.5.4-1 1-1 .5 0 1 .5 1 1s-.5 1-1 1c-.6 0-1-.5-1-1zm-9 0c0-.5.4-1 1-1 .5 0 1 .5 1 1s-.4 1-1 1-1-.5-1-1zm-9 0c0-.5.4-1 1-1s1 .5 1 1-.5 1-1 1c-.6 0-1-.5-1-1zm-9 0c0-.5.5-1 1-1s1 .5 1 1-.5 1-1 1c-.6 0-1-.5-1-1zm-9 0c0-.5.4-1 1-1 .5 0 1 .5 1 1s-.5 1-1 1c-.6 0-1-.5-1-1zm-9 0c0-.5.4-1 1-1 .5 0 1 .5 1 1s-.5 1-1 1c-.6 0-1-.5-1-1zm-9 0c0-.5.4-1 1-1s1 .5 1 1-.5 1-1 1c-.6 0-1-.5-1-1zm-9 0c0-.5.5-1 1-1s1 .5 1 1-.5 1-1 1c-.6 0-1-.5-1-1zm-9 0c0-.5.4-1 1-1 .5 0 1 .5 1 1s-.5 1-1 1c-.6 0-1-.5-1-1zm-9 0c0-.5.4-1 1-1 .5 0 1 .5 1 1s-.5 1-1 1c-.6 0-1-.5-1-1zm-9 0c0-.5.4-1 1-1 .5 0 1 .5 1 1s-.4 1-1 1-1-.5-1-1zm-9 0c0-.5.4-1 1-1s1 .5 1 1-.5 1-1 1c-.6 0-1-.5-1-1zm-9 0c0-.5.5-1 1-1s1 .5 1 1-.5 1-1 1c-.6 0-1-.5-1-1zm-9 0c0-.5.4-1 1-1 .5 0 1 .5 1 1s-.5 1-1 1c-.6 0-1-.5-1-1zm-9 0c0-.5.4-1 1-1 .5 0 1 .5 1 1s-.5 1-1 1c-.6 0-1-.5-1-1zm-9 0c0-.5.4-1 1-1s1 .5 1 1-.5 1-1 1c-.6 0-1-.5-1-1zm-9 0c0-.5.5-1 1-1s1 .5 1 1-.5 1-1 1c-.6 0-1-.5-1-1zm-9 0c0-.5.4-1 1-1 .5 0 1 .5 1 1s-.5 1-1 1c-.6 0-1-.5-1-1zm-9 0c0-.5.4-1 1-1 .5 0 1 .5 1 1s-.5 1-1 1c-.6 0-1-.5-1-1zm-9 0c0-.5.4-1 1-1 .5 0 1 .5 1 1s-.4 1-1 1-1-.5-1-1zm-9 0c0-.5.4-1 1-1s1 .5 1 1-.5 1-1 1c-.6 0-1-.5-1-1zm-9 0c0-.5.5-1 1-1s1 .5 1 1-.5 1-1 1c-.6 0-1-.5-1-1zm-9 0c0-.5.4-1 1-1 .5 0 1 .5 1 1s-.5 1-1 1c-.6 0-1-.5-1-1zm-9 0c0-.5.4-1 1-1 .5 0 1 .5 1 1s-.5 1-1 1c-.6 0-1-.5-1-1zm-9 0c0-.5.4-1 1-1s1 .5 1 1-.5 1-1 1c-.6 0-1-.5-1-1zm-9 0c0-.5.5-1 1-1s1 .5 1 1-.5 1-1 1c-.6 0-1-.5-1-1zm-9 0c0-.5.4-1 1-1 .5 0 1 .5 1 1s-.5 1-1 1c-.6 0-1-.5-1-1zm-9 0c0-.5.4-1 1-1 .5 0 1 .5 1 1s-.5 1-1 1c-.6 0-1-.5-1-1zm-9 0c0-.5.4-1 1-1 .5 0 1 .5 1 1s-.5 1-1 1c-.6 0-1-.5-1-1zm-9 0c0-.5.4-1 1-1 .5 0 1 .5 1 1s-.5 1-1 1c-.6 0-1-.5-1-1zm-9 0c0-.5.5-1 1-1s1 .5 1 1-.5 1-1 1c-.6 0-1-.5-1-1zm-9 0c0-.5.4-1 1-1 .5 0 1 .5 1 1s-.5 1-1 1c-.6 0-1-.5-1-1zm-9 0c0-.5.4-1 1-1 .5 0 1 .5 1 1s-.5 1-1 1c-.6 0-1-.5-1-1zm-9 0c0-.5.4-1 1-1 .5 0 1 .5 1 1s-.5 1-1 1c-.6 0-1-.5-1-1zm-9 0c0-.5.4-1 1-1 .5 0 1 .5 1 1s-.5 1-1 1c-.6 0-1-.5-1-1zm-9 0c0-.5.5-1 1-1s1 .5 1 1-.5 1-1 1c-.6 0-1-.5-1-1zm-9 0c0-.5.4-1 1-1 .5 0 1 .5 1 1s-.5 1-1 1c-.6 0-1-.5-1-1zm-9 0c0-.5.4-1 1-1 .5 0 1 .5 1 1s-.5 1-1 1c-.6 0-1-.5-1-1zm-9 0c0-.5.4-1 1-1 .5 0 1 .5 1 1s-.5 1-1 1c-.6 0-1-.5-1-1zm-9 0c0-.5.5-1 1-1s1 .5 1 1-.5 1-1 1c-.6 0-1-.5-1-1zm-9 0c0-.5.4-1 1-1 .5 0 1 .5 1 1s-.5 1-1 1c-.6 0-1-.5-1-1zm-9 0c0-.5.4-1 1-1 .5 0 1 .5 1 1s-.5 1-1 1c-.6 0-1-.5-1-1zm-9 0c0-.5.4-1 1-1 .5 0 1 .5 1 1s-.5 1-1 1c-.6 0-1-.5-1-1zm-9 0c0-.5.4-1 1-1 .5 0 1 .5 1 1s-.5 1-1 1c-.6 0-1-.5-1-1zm-9 0c0-.5.5-1 1-1s1 .5 1 1-.5 1-1 1c-.6 0-1-.5-1-1zm-9 0c0-.5.4-1 1-1 .5 0 1 .5 1 1s-.5 1-1 1c-.6 0-1-.5-1-1zm-9 0c0-.5.4-1 1-1 .5 0 1 .5 1 1s-.5 1-1 1c-.6 0-1-.5-1-1zm-9 0c0-.5.4-1 1-1 .5 0 1 .5 1 1s-.5 1-1 1c-.6 0-1-.5-1-1zm-9 0c0-.5.5-1 1-1s1 .5 1 1-.5 1-1 1c-.6 0-1-.5-1-1zm-9 0c0-.5.4-1 1-1 .5 0 1 .5 1 1s-.5 1-1 1c-.6 0-1-.5-1-1zm-9 0c0-.5.4-1 1-1 .5 0 1 .5 1 1s-.5 1-1 1c-.6 0-1-.5-1-1zm-9 0c0-.5.4-1 1-1 .5 0 1 .5 1 1s-.5 1-1 1c-.6 0-1-.5-1-1zm-9 0c0-.5.4-1 1-1 .5 0 1 .5 1 1s-.5 1-1 1c-.6 0-1-.5-1-1zm-9 0c0-.5.5-1 1-1s1 .5 1 1-.5 1-1 1c-.6 0-1-.5-1-1zm-9 0c0-.5.4-1 1-1 .5 0 1 .5 1 1s-.5 1-1 1c-.6 0-1-.5-1-1zm-9 0c0-.5.4-1 1-1 .5 0 1 .5 1 1s-.5 1-1 1c-.6 0-1-.5-1-1zm-9 0c0-.5.4-1 1-1 .5 0 1 .5 1 1s-.5 1-1 1c-.6 0-1-.5-1-1zm-9 0c0-.5.5-1 1-1s1 .5 1 1-.5 1-1 1c-.6 0-1-.5-1-1zm-9 0c0-.5.4-1 1-1 .5 0 1 .5 1 1s-.5 1-1 1c-.6 0-1-.5-1-1zm-9 0c0-.5.4-1 1-1 .5 0 1 .5 1 1s-.5 1-1 1c-.6 0-1-.5-1-1zm-9 0c0-.5.4-1 1-1 .5 0 1 .5 1 1s-.5 1-1 1c-.6 0-1-.5-1-1zm-9 0c0-.5.4-1 1-1 .5 0 1 .5 1 1s-.5 1-1 1c-.6 0-1-.5-1-1zm-9 0c0-.5.5-1 1-1s1 .5 1 1-.5 1-1 1c-.6 0-1-.5-1-1zm-9 0c0-.5.4-1 1-1s1 .5 1 1-.4 1-1 1-1-.5-1-1zm990 123.9c0-.5.5-1 1-1 .6 0 1 .5 1 1 0 .6-.4 1-1 1s-1-.4-1-1zm-9 0c0-.5.5-1 1-1 .6 0 1 .5 1 1 0 .6-.4 1-1 1s-1-.4-1-1zm-9 0c0-.5.5-1 1-1 .6 0 1 .5 1 1 0 .6-.4 1-1 1s-1-.4-1-1zm-9 0c0-.5.4-1 1-1s1 .5 1 1c0 .6-.4 1-1 1s-1-.4-1-1zm-9 0c0-.5.5-1 1-1 .6 0 1 .5 1 1 0 .6-.4 1-1 1s-1-.4-1-1zm-9 0c0-.5.4-1 1-1 .5 0 1 .5 1 1 0 .6-.5 1-1 1-.6 0-1-.4-1-1zm-9 0c0-.5.5-1 1-1 .6 0 1 .5 1 1 0 .6-.4 1-1 1s-1-.4-1-1zm-9 0c0-.5.4-1 1-1 .5 0 1 .5 1 1 0 .6-.5 1-1 1-.6 0-1-.4-1-1zm-9 0c0-.5.5-1 1-1 .6 0 1 .5 1 1 0 .6-.4 1-1 1s-1-.4-1-1zm-9 0c0-.5.4-1 1-1 .5 0 1 .5 1 1 0 .6-.5 1-1 1-.6 0-1-.4-1-1zm-9 0c0-.5.5-1 1-1 .6 0 1 .5 1 1 0 .6-.4 1-1 1s-1-.4-1-1zm-9 0c0-.5.4-1 1-1 .5 0 1 .5 1 1 0 .6-.5 1-1 1-.6 0-1-.4-1-1zm-9 0c0-.5.5-1 1-1 .6 0 1 .5 1 1 0 .6-.4 1-1 1s-1-.4-1-1zm-9 0c0-.5.4-1 1-1 .5 0 1 .5 1 1 0 .6-.5 1-1 1-.6 0-1-.4-1-1zm-9 0c0-.5.4-1 1-1s1 .5 1 1c0 .6-.4 1-1 1s-1-.4-1-1zm-9 0c0-.5.5-1 1-1s1 .5 1 1c0 .6-.5 1-1 1-.6 0-1-.4-1-1zm-9 0c0-.5.4-1 1-1 .5 0 1 .5 1 1 0 .6-.4 1-1 1s-1-.4-1-1zm-9 0c0-.5.5-1 1-1 .6 0 1 .5 1 1 0 .6-.4 1-1 1s-1-.4-1-1zm-9 0c0-.5.4-1 1-1 .5 0 1 .5 1 1 0 .6-.5 1-1 1-.6 0-1-.4-1-1zm-9 0c0-.5.5-1 1-1 .6 0 1 .5 1 1 0 .6-.4 1-1 1s-1-.4-1-1zm-9 0c0-.5.4-1 1-1 .5 0 1 .5 1 1 0 .6-.5 1-1 1-.6 0-1-.4-1-1zm-9 0c0-.5.5-1 1-1 .6 0 1 .5 1 1 0 .6-.4 1-1 1s-1-.4-1-1zm-9 0c0-.5.4-1 1-1 .5 0 1 .5 1 1 0 .6-.5 1-1 1-.6 0-1-.4-1-1zm-9 0c0-.5.5-1 1-1 .6 0 1 .5 1 1 0 .6-.4 1-1 1s-1-.4-1-1zm-9 0c0-.5.4-1 1-1 .5 0 1 .5 1 1 0 .6-.5 1-1 1-.6 0-1-.4-1-1zm-9 0c0-.5.5-1 1-1 .6 0 1 .5 1 1 0 .6-.4 1-1 1s-1-.4-1-1zm-9 0c0-.5.4-1 1-1 .5 0 1 .5 1 1 0 .6-.5 1-1 1-.6 0-1-.4-1-1zm-9 0c0-.5.4-1 1-1s1 .5 1 1c0 .6-.4 1-1 1s-1-.4-1-1zm-9 0c0-.5.5-1 1-1 .6 0 1 .5 1 1 0 .6-.5 1-1 1-.6 0-1-.4-1-1zm-9 0c0-.5.4-1 1-1 .5 0 1 .5 1 1 0 .6-.5 1-1 1-.6 0-1-.4-1-1zm-9 0c0-.5.5-1 1-1 .6 0 1 .5 1 1 0 .6-.4 1-1 1s-1-.4-1-1zm-9 0c0-.5.4-1 1-1 .5 0 1 .5 1 1 0 .6-.5 1-1 1-.6 0-1-.4-1-1zm-9 0c0-.5.5-1 1-1 .6 0 1 .5 1 1 0 .6-.4 1-1 1s-1-.4-1-1zm-9 0c0-.5.4-1 1-1 .5 0 1 .5 1 1 0 .6-.5 1-1 1-.6 0-1-.4-1-1zm-9 0c0-.5.5-1 1-1 .6 0 1 .5 1 1 0 .6-.4 1-1 1s-1-.4-1-1zm-9 0c0-.5.4-1 1-1 .5 0 1 .5 1 1 0 .6-.5 1-1 1-.6 0-1-.4-1-1zm-9 0c0-.5.5-1 1-1 .6 0 1 .5 1 1 0 .6-.4 1-1 1s-1-.4-1-1zm-9 0c0-.5.4-1 1-1 .5 0 1 .5 1 1 0 .6-.5 1-1 1-.6 0-1-.4-1-1zm-9 0c0-.5.5-1 1-1 .6 0 1 .5 1 1 0 .6-.4 1-1 1s-1-.4-1-1zm-9 0c0-.5.5-1 1-1s1 .5 1 1c0 .6-.5 1-1 1-.6 0-1-.4-1-1zm-9 0c0-.5.4-1 1-1 .5 0 1 .5 1 1 0 .6-.4 1-1 1s-1-.4-1-1zm-9 0c0-.5.4-1 1-1 .5 0 1 .5 1 1 0 .6-.5 1-1 1-.6 0-1-.4-1-1zm-9 0c0-.5.4-1 1-1 .5 0 1 .5 1 1 0 .6-.5 1-1 1-.6 0-1-.4-1-1zm-9 0c0-.5.4-1 1-1 .5 0 1 .5 1 1 0 .6-.5 1-1 1-.6 0-1-.4-1-1zm-9 0c0-.5.4-1 1-1 .5 0 1 .5 1 1 0 .6-.5 1-1 1-.6 0-1-.4-1-1zm-9 0c0-.5.4-1 1-1 .5 0 1 .5 1 1 0 .6-.5 1-1 1-.6 0-1-.4-1-1zm-9 0c0-.5.4-1 1-1 .5 0 1 .5 1 1 0 .6-.5 1-1 1-.6 0-1-.4-1-1zm-9 0c0-.5.5-1 1-1s1 .5 1 1c0 .6-.5 1-1 1-.6 0-1-.4-1-1zm-9 0c0-.5.4-1 1-1 .5 0 1 .5 1 1 0 .6-.5 1-1 1-.6 0-1-.4-1-1zm-9 0c0-.5.5-1 1-1 .6 0 1 .5 1 1 0 .6-.4 1-1 1s-1-.4-1-1zm-9 0c0-.5.4-1 1-1 .5 0 1 .5 1 1 0 .6-.5 1-1 1-.6 0-1-.4-1-1zm-9 0c0-.5.4-1 1-1s1 .5 1 1c0 .6-.4 1-1 1s-1-.4-1-1zm-9 0c0-.5.4-1 1-1 .5 0 1 .5 1 1 0 .6-.5 1-1 1-.6 0-1-.4-1-1zm-9 0c0-.5.4-1 1-1 .5 0 1 .5 1 1 0 .6-.4 1-1 1s-1-.4-1-1zm-9 0c0-.5.4-1 1-1 .5 0 1 .5 1 1 0 .6-.5 1-1 1-.6 0-1-.4-1-1zm-9 0c0-.5.4-1 1-1 .5 0 1 .5 1 1 0 .6-.5 1-1 1-.6 0-1-.4-1-1zm-9 0c0-.5.4-1 1-1 .5 0 1 .5 1 1 0 .6-.5 1-1 1-.6 0-1-.4-1-1zm-9 0c0-.5.4-1 1-1 .5 0 1 .5 1 1 0 .6-.5 1-1 1-.6 0-1-.4-1-1zm-9 0c0-.5.5-1 1-1s1 .5 1 1c0 .6-.5 1-1 1-.6 0-1-.4-1-1zm-9 0c0-.5.4-1 1-1 .5 0 1 .5 1 1 0 .6-.5 1-1 1-.6 0-1-.4-1-1zm-9 0c0-.5.5-1 1-1 .6 0 1 .5 1 1 0 .6-.5 1-1 1-.6 0-1-.4-1-1zm-9 0c0-.5.4-1 1-1 .5 0 1 .5 1 1 0 .6-.5 1-1 1-.6 0-1-.4-1-1zm-9 0c0-.5.5-1 1-1 .6 0 1 .5 1 1 0 .6-.4 1-1 1s-1-.4-1-1zm-9 0c0-.5.4-1 1-1 .5 0 1 .5 1 1 0 .6-.5 1-1 1-.6 0-1-.4-1-1zm-9 0c0-.5.4-1 1-1 .5 0 1 .5 1 1 0 .6-.4 1-1 1s-1-.4-1-1zm-9 0c0-.5.4-1 1-1 .5 0 1 .5 1 1 0 .6-.5 1-1 1-.6 0-1-.4-1-1zm-9 0c0-.5.4-1 1-1 .5 0 1 .5 1 1 0 .6-.5 1-1 1-.6 0-1-.4-1-1zm-9 0c0-.5.4-1 1-1 .5 0 1 .5 1 1 0 .6-.5 1-1 1-.6 0-1-.4-1-1zm-9 0c0-.5.4-1 1-1 .5 0 1 .5 1 1 0 .6-.5 1-1 1-.6 0-1-.4-1-1zm-9 0c0-.5.4-1 1-1 .5 0 1 .5 1 1 0 .6-.5 1-1 1-.6 0-1-.4-1-1zm-9 0c0-.5.4-1 1-1 .5 0 1 .5 1 1 0 .6-.5 1-1 1-.6 0-1-.4-1-1zm-9 0c0-.5.5-1 1-1s1 .5 1 1c0 .6-.5 1-1 1-.6 0-1-.4-1-1zm-9 0c0-.5.4-1 1-1 .5 0 1 .5 1 1 0 .6-.5 1-1 1-.6 0-1-.4-1-1zm-9 0c0-.5.5-1 1-1 .6 0 1 .5 1 1 0 .6-.4 1-1 1s-1-.4-1-1zm-9 0c0-.5.4-1 1-1 .5 0 1 .5 1 1 0 .6-.5 1-1 1-.6 0-1-.4-1-1zm-9 0c0-.5.4-1 1-1 .5 0 1 .5 1 1 0 .6-.5 1-1 1-.6 0-1-.4-1-1zm-9 0c0-.5.4-1 1-1 .5 0 1 .5 1 1 0 .6-.5 1-1 1-.6 0-1-.4-1-1zm-9 0c0-.5.4-1 1-1 .5 0 1 .5 1 1 0 .6-.5 1-1 1-.6 0-1-.4-1-1zm-9 0c0-.5.4-1 1-1 .5 0 1 .5 1 1 0 .6-.5 1-1 1-.6 0-1-.4-1-1zm-9 0c0-.5.4-1 1-1 .5 0 1 .5 1 1 0 .6-.5 1-1 1-.6 0-1-.4-1-1zm-9 0c0-.5.4-1 1-1 .5 0 1 .5 1 1 0 .6-.5 1-1 1-.6 0-1-.4-1-1zm-9 0c0-.5.4-1 1-1 .5 0 1 .5 1 1 0 .6-.5 1-1 1-.6 0-1-.4-1-1zm-9 0c0-.5.4-1 1-1 .5 0 1 .5 1 1 0 .6-.5 1-1 1-.6 0-1-.4-1-1zm-9 0c0-.5.5-1 1-1s1 .5 1 1c0 .6-.5 1-1 1-.6 0-1-.4-1-1zm-9 0c0-.5.4-1 1-1 .5 0 1 .5 1 1 0 .6-.5 1-1 1-.6 0-1-.4-1-1zm-9 0c0-.5.5-1 1-1s1 .5 1 1c0 .6-.5 1-1 1-.6 0-1-.4-1-1zm-9 0c0-.5.4-1 1-1 .5 0 1 .5 1 1 0 .6-.5 1-1 1-.6 0-1-.4-1-1zm-9 0c0-.5.4-1 1-1 .5 0 1 .5 1 1 0 .6-.5 1-1 1-.6 0-1-.4-1-1zm-9 0c0-.5.4-1 1-1 .5 0 1 .5 1 1 0 .6-.5 1-1 1-.6 0-1-.4-1-1zm-9 0c0-.5.4-1 1-1 .5 0 1 .5 1 1 0 .6-.5 1-1 1-.6 0-1-.4-1-1zm-9 0c0-.5.4-1 1-1 .5 0 1 .5 1 1 0 .6-.5 1-1 1-.6 0-1-.4-1-1zm-9 0c0-.5.4-1 1-1 .5 0 1 .5 1 1 0 .6-.5 1-1 1-.6 0-1-.4-1-1zm-9 0c0-.5.4-1 1-1 .5 0 1 .5 1 1 0 .6-.5 1-1 1-.6 0-1-.4-1-1zm-9 0c0-.5.4-1 1-1 .5 0 1 .5 1 1 0 .6-.5 1-1 1-.6 0-1-.4-1-1zm-9 0c0-.5.5-1 1-1s1 .5 1 1c0 .6-.5 1-1 1-.6 0-1-.4-1-1zm-9 0c0-.5.4-1 1-1 .5 0 1 .5 1 1 0 .6-.5 1-1 1-.6 0-1-.4-1-1zm-9 0c0-.5.5-1 1-1s1 .5 1 1c0 .6-.5 1-1 1-.6 0-1-.4-1-1zm-9 0c0-.5.4-1 1-1 .5 0 1 .5 1 1 0 .6-.5 1-1 1-.6 0-1-.4-1-1zm-9 0c0-.5.5-1 1-1s1 .5 1 1c0 .6-.5 1-1 1-.6 0-1-.4-1-1zm-9 0c0-.5.4-1 1-1 .5 0 1 .5 1 1 0 .6-.5 1-1 1-.6 0-1-.4-1-1zm-9 0c0-.5.4-1 1-1 .5 0 1 .5 1 1 0 .6-.5 1-1 1-.6 0-1-.4-1-1zm-9 0c0-.5.4-1 1-1 .5 0 1 .5 1 1 0 .6-.5 1-1 1-.6 0-1-.4-1-1zm-9 0c0-.5.4-1 1-1 .5 0 1 .5 1 1 0 .6-.5 1-1 1-.6 0-1-.4-1-1zm-9 0c0-.5.4-1 1-1 .5 0 1 .5 1 1 0 .6-.5 1-1 1-.6 0-1-.4-1-1zm-9 0c0-.5.4-1 1-1 .5 0 1 .5 1 1 0 .6-.5 1-1 1-.6 0-1-.4-1-1zm-9 0c0-.5.4-1 1-1 .5 0 1 .5 1 1 0 .6-.5 1-1 1-.6 0-1-.4-1-1zm-9 0c0-.5.4-1 1-1 .5 0 1 .5 1 1 0 .6-.5 1-1 1-.6 0-1-.4-1-1zm-9 0c0-.5.5-1 1-1s1 .5 1 1c0 .6-.5 1-1 1-.6 0-1-.4-1-1zm-9 0c0-.5.4-1 1-1 .5 0 1 .5 1 1 0 .6-.5 1-1 1-.6 0-1-.4-1-1zm-9 0c0-.5.5-1 1-1s1 .5 1 1c0 .6-.5 1-1 1-.6 0-1-.4-1-1zm-9 0c0-.5.4-1 1-1s1 .5 1 1c0 .6-.4 1-1 1s-1-.4-1-1zm990 123.1c0-.6.5-1 1-1 .6 0 1 .4 1 1 0 .5-.4 1-1 1s-1-.4-1-1zm-9 0c0-.6.5-1 1-1 .6 0 1 .4 1 1 0 .5-.4 1-1 1s-1-.4-1-1zm-9 0c0-.6.5-1 1-1 .6 0 1 .4 1 1 0 .5-.4 1-1 1s-1-.4-1-1zm-9 0c0-.6.5-1 1-1 .6 0 1 .4 1 1 0 .5-.4 1-1 1s-1-.4-1-1zm-9 0c0-.6.5-1 1-1 .6 0 1 .4 1 1 0 .5-.4 1-1 1s-1-.4-1-1zm-9 0c0-.6.4-1 1-1 .5 0 1 .4 1 1 0 .5-.5 1-1 1-.6 0-1-.4-1-1zm-9 0c0-.6.5-1 1-1 .6 0 1 .4 1 1 0 .5-.5 1-1 1-.6 0-1-.4-1-1zm-9 0c0-.6.5-1 1-1 .6 0 1 .4 1 1 0 .5-.4 1-1 1s-1-.4-1-1zm-9 0c0-.6.5-1 1-1 .6 0 1 .4 1 1 0 .5-.4 1-1 1s-1-.4-1-1zm-9 0c0-.6.5-1 1-1 .6 0 1 .4 1 1 0 .5-.4 1-1 1s-1-.4-1-1zm-9 0c0-.6.5-1 1-1 .6 0 1 .4 1 1 0 .5-.4 1-1 1s-1-.4-1-1zm-9 0c0-.6.5-1 1-1 .6 0 1 .4 1 1 0 .5-.4 1-1 1s-1-.4-1-1zm-9 0c0-.6.5-1 1-1 .6 0 1 .4 1 1 0 .5-.4 1-1 1s-1-.4-1-1zm-9 0c0-.6.5-1 1-1 .6 0 1 .4 1 1 0 .5-.4 1-1 1s-1-.4-1-1zm-9 0c0-.6.5-1 1-1 .6 0 1 .4 1 1 0 .5-.4 1-1 1s-1-.4-1-1zm-9 0c0-.6.5-1 1-1 .6 0 1 .4 1 1 0 .5-.4 1-1 1s-1-.4-1-1zm-9 0c0-.6.5-1 1-1 .6 0 1 .4 1 1 0 .5-.4 1-1 1s-1-.4-1-1zm-9 0c0-.6.5-1 1-1 .6 0 1 .4 1 1 0 .5-.4 1-1 1s-1-.4-1-1zm-9 0c0-.6.5-1 1-1 .6 0 1 .4 1 1 0 .5-.4 1-1 1s-1-.4-1-1zm-9 0c0-.6.5-1 1-1 .6 0 1 .4 1 1 0 .5-.4 1-1 1s-1-.4-1-1zm-9 0c0-.6.5-1 1-1 .6 0 1 .4 1 1 0 .5-.4 1-1 1s-1-.4-1-1zm-9 0c0-.6.5-1 1-1 .6 0 1 .4 1 1 0 .5-.4 1-1 1s-1-.4-1-1zm-9 0c0-.6.5-1 1-1 .6 0 1 .4 1 1 0 .5-.4 1-1 1s-1-.4-1-1zm-9 0c0-.6.5-1 1-1 .6 0 1 .4 1 1 0 .5-.4 1-1 1s-1-.4-1-1zm-9 0c0-.6.5-1 1-1 .6 0 1 .4 1 1 0 .5-.4 1-1 1s-1-.4-1-1zm-9 0c0-.6.4-1 1-1 .5 0 1 .4 1 1 0 .5-.5 1-1 1-.6 0-1-.4-1-1zm-9 0c0-.6.4-1 1-1 .5 0 1 .4 1 1 0 .5-.5 1-1 1-.6 0-1-.4-1-1zm-9 0c0-.6.4-1 1-1 .5 0 1 .4 1 1 0 .5-.5 1-1 1-.6 0-1-.4-1-1zm-9 0c0-.6.4-1 1-1 .5 0 1 .4 1 1 0 .5-.5 1-1 1-.6 0-1-.4-1-1zm-9 0c0-.6.4-1 1-1 .5 0 1 .4 1 1 0 .5-.5 1-1 1-.6 0-1-.4-1-1zm-9 0c0-.6.4-1 1-1 .5 0 1 .4 1 1 0 .5-.5 1-1 1-.6 0-1-.4-1-1zm-9 0c0-.6.4-1 1-1 .5 0 1 .4 1 1 0 .5-.5 1-1 1-.6 0-1-.4-1-1zm-9 0c0-.6.4-1 1-1 .5 0 1 .4 1 1 0 .5-.5 1-1 1-.6 0-1-.4-1-1zm-9 0c0-.6.4-1 1-1 .5 0 1 .4 1 1 0 .5-.5 1-1 1-.6 0-1-.4-1-1zm-9 0c0-.6.4-1 1-1 .5 0 1 .4 1 1 0 .5-.5 1-1 1-.6 0-1-.4-1-1zm-9 0c0-.6.4-1 1-1 .5 0 1 .4 1 1 0 .5-.5 1-1 1-.6 0-1-.4-1-1zm-9 0c0-.6.4-1 1-1 .5 0 1 .4 1 1 0 .5-.5 1-1 1-.6 0-1-.4-1-1zm-9 0c0-.6.4-1 1-1 .5 0 1 .4 1 1 0 .5-.5 1-1 1-.6 0-1-.4-1-1zm-9 0c0-.6.4-1 1-1 .5 0 1 .4 1 1 0 .5-.5 1-1 1-.6 0-1-.4-1-1zm-9 0c0-.6.4-1 1-1 .5 0 1 .4 1 1 0 .5-.5 1-1 1-.6 0-1-.4-1-1zm-9 0c0-.6.4-1 1-1 .5 0 1 .4 1 1 0 .5-.5 1-1 1-.6 0-1-.4-1-1zm-9 0c0-.6.4-1 1-1 .5 0 1 .4 1 1 0 .5-.5 1-1 1-.6 0-1-.4-1-1zm-9 0c0-.6.4-1 1-1 .5 0 1 .4 1 1 0 .5-.5 1-1 1-.6 0-1-.4-1-1zm-9 0c0-.6.4-1 1-1 .5 0 1 .4 1 1 0 .5-.5 1-1 1-.6 0-1-.4-1-1zm-9 0c0-.6.4-1 1-1 .5 0 1 .4 1 1 0 .5-.5 1-1 1-.6 0-1-.4-1-1zm-9 0c0-.6.4-1 1-1 .5 0 1 .4 1 1 0 .5-.5 1-1 1-.6 0-1-.4-1-1zm-9 0c0-.6.4-1 1-1 .5 0 1 .4 1 1 0 .5-.5 1-1 1-.6 0-1-.4-1-1zm-9 0c0-.6.4-1 1-1 .5 0 1 .4 1 1 0 .5-.5 1-1 1-.6 0-1-.4-1-1zm-9 0c0-.6.4-1 1-1 .5 0 1 .4 1 1 0 .5-.5 1-1 1-.6 0-1-.4-1-1zm-9 0c0-.6.4-1 1-1 .5 0 1 .4 1 1 0 .5-.5 1-1 1-.6 0-1-.4-1-1zm-9 0c0-.6.4-1 1-1 .5 0 1 .4 1 1 0 .5-.5 1-1 1-.6 0-1-.4-1-1zm-9 0c0-.6.4-1 1-1 .5 0 1 .4 1 1 0 .5-.5 1-1 1-.6 0-1-.4-1-1zm-9 0c0-.6.4-1 1-1 .5 0 1 .4 1 1 0 .5-.5 1-1 1-.6 0-1-.4-1-1zm-9 0c0-.6.4-1 1-1 .5 0 1 .4 1 1 0 .5-.5 1-1 1-.6 0-1-.4-1-1zm-9 0c0-.6.5-1 1-1 .6 0 1 .4 1 1 0 .5-.5 1-1 1-.6 0-1-.4-1-1zm-9 0c0-.6.5-1 1-1 .6 0 1 .4 1 1 0 .5-.4 1-1 1s-1-.4-1-1zm-9 0c0-.6.5-1 1-1 .6 0 1 .4 1 1 0 .5-.4 1-1 1s-1-.4-1-1zm-9 0c0-.6.5-1 1-1 .6 0 1 .4 1 1 0 .5-.4 1-1 1s-1-.4-1-1zm-9 0c0-.6.5-1 1-1 .6 0 1 .4 1 1 0 .5-.4 1-1 1s-1-.4-1-1zm-9 0c0-.6.5-1 1-1 .6 0 1 .4 1 1 0 .5-.4 1-1 1s-1-.4-1-1zm-9 0c0-.6.5-1 1-1 .6 0 1 .4 1 1 0 .5-.4 1-1 1s-1-.4-1-1zm-9 0c0-.6.4-1 1-1s1 .4 1 1c0 .5-.4 1-1 1s-1-.4-1-1zm-9 0c0-.6.4-1 1-1 .5 0 1 .4 1 1 0 .5-.5 1-1 1-.6 0-1-.4-1-1zm-9 0c0-.6.4-1 1-1 .5 0 1 .4 1 1 0 .5-.5 1-1 1-.6 0-1-.4-1-1zm-9 0c0-.6.4-1 1-1 .5 0 1 .4 1 1 0 .5-.5 1-1 1-.6 0-1-.4-1-1zm-9 0c0-.6.4-1 1-1 .5 0 1 .4 1 1 0 .5-.5 1-1 1-.6 0-1-.4-1-1zm-9 0c0-.6.4-1 1-1 .5 0 1 .4 1 1 0 .5-.5 1-1 1-.6 0-1-.4-1-1zm-9 0c0-.6.4-1 1-1 .5 0 1 .4 1 1 0 .5-.5 1-1 1-.6 0-1-.4-1-1zm-9 0c0-.6.4-1 1-1 .5 0 1 .4 1 1 0 .5-.5 1-1 1-.6 0-1-.4-1-1zm-9 0c0-.6.4-1 1-1 .5 0 1 .4 1 1 0 .5-.5 1-1 1-.6 0-1-.4-1-1zm-9 0c0-.6.4-1 1-1 .5 0 1 .4 1 1 0 .5-.5 1-1 1-.6 0-1-.4-1-1zm-9 0c0-.6.4-1 1-1 .5 0 1 .4 1 1 0 .5-.5 1-1 1-.6 0-1-.4-1-1zm-9 0c0-.6.4-1 1-1 .5 0 1 .4 1 1 0 .5-.5 1-1 1-.6 0-1-.4-1-1zm-9 0c0-.6.4-1 1-1 .5 0 1 .4 1 1 0 .5-.5 1-1 1-.6 0-1-.4-1-1zm-9 0c0-.6.4-1 1-1 .5 0 1 .4 1 1 0 .5-.5 1-1 1-.6 0-1-.4-1-1zm-9 0c0-.6.4-1 1-1 .5 0 1 .4 1 1 0 .5-.5 1-1 1-.6 0-1-.4-1-1zm-9 0c0-.6.4-1 1-1 .5 0 1 .4 1 1 0 .5-.5 1-1 1-.6 0-1-.4-1-1zm-9 0c0-.6.4-1 1-1 .5 0 1 .4 1 1 0 .5-.5 1-1 1-.6 0-1-.4-1-1zm-9 0c0-.6.4-1 1-1 .5 0 1 .4 1 1 0 .5-.5 1-1 1-.6 0-1-.4-1-1zm-9 0c0-.6.4-1 1-1 .5 0 1 .4 1 1 0 .5-.5 1-1 1-.6 0-1-.4-1-1zm-9 0c0-.6.4-1 1-1 .5 0 1 .4 1 1 0 .5-.5 1-1 1-.6 0-1-.4-1-1zm-9 0c0-.6.4-1 1-1 .5 0 1 .4 1 1 0 .5-.5 1-1 1-.6 0-1-.4-1-1zm-9 0c0-.6.4-1 1-1 .5 0 1 .4 1 1 0 .5-.5 1-1 1-.6 0-1-.4-1-1zm-9 0c0-.6.4-1 1-1 .5 0 1 .4 1 1 0 .5-.5 1-1 1-.6 0-1-.4-1-1zm-9 0c0-.6.4-1 1-1 .5 0 1 .4 1 1 0 .5-.5 1-1 1-.6 0-1-.4-1-1zm-9 0c0-.6.4-1 1-1 .5 0 1 .4 1 1 0 .5-.5 1-1 1-.6 0-1-.4-1-1zm-9 0c0-.6.4-1 1-1 .5 0 1 .4 1 1 0 .5-.5 1-1 1-.6 0-1-.4-1-1zm-9 0c0-.6.4-1 1-1 .5 0 1 .4 1 1 0 .5-.5 1-1 1-.6 0-1-.4-1-1zm-9 0c0-.6.4-1 1-1 .5 0 1 .4 1 1 0 .5-.5 1-1 1-.6 0-1-.4-1-1zm-9 0c0-.6.4-1 1-1 .5 0 1 .4 1 1 0 .5-.5 1-1 1-.6 0-1-.4-1-1zm-9 0c0-.6.4-1 1-1 .5 0 1 .4 1 1 0 .5-.5 1-1 1-.6 0-1-.4-1-1zm-9 0c0-.6.4-1 1-1 .5 0 1 .4 1 1 0 .5-.5 1-1 1-.6 0-1-.4-1-1zm-9 0c0-.6.4-1 1-1 .5 0 1 .4 1 1 0 .5-.5 1-1 1-.6 0-1-.4-1-1zm-9 0c0-.6.4-1 1-1 .5 0 1 .4 1 1 0 .5-.5 1-1 1-.6 0-1-.4-1-1zm-9 0c0-.6.4-1 1-1 .5 0 1 .4 1 1 0 .5-.5 1-1 1-.6 0-1-.4-1-1zm-9 0c0-.6.5-1 1-1s1 .4 1 1c0 .5-.5 1-1 1-.6 0-1-.4-1-1zm-9 0c0-.6.5-1 1-1s1 .4 1 1c0 .5-.5 1-1 1-.6 0-1-.4-1-1zm-9 0c0-.6.5-1 1-1s1 .4 1 1c0 .5-.5 1-1 1-.6 0-1-.4-1-1zm-9 0c0-.6.5-1 1-1s1 .4 1 1c0 .5-.5 1-1 1-.6 0-1-.4-1-1zm-9 0c0-.6.5-1 1-1s1 .4 1 1c0 .5-.5 1-1 1-.6 0-1-.4-1-1zm-9 0c0-.6.5-1 1-1s1 .4 1 1c0 .5-.5 1-1 1-.6 0-1-.4-1-1zm-9 0c0-.6.5-1 1-1s1 .4 1 1c0 .5-.5 1-1 1-.6 0-1-.4-1-1zm-9 0c0-.6.4-1 1-1 .5 0 1 .4 1 1 0 .5-.5 1-1 1-.6 0-1-.4-1-1zm-9 0c0-.6.4-1 1-1 .5 0 1 .4 1 1 0 .5-.5 1-1 1-.6 0-1-.4-1-1zm-9 0c0-.6.4-1 1-1 .5 0 1 .4 1 1 0 .5-.5 1-1 1-.6 0-1-.4-1-1zm-9 0c0-.6.4-1 1-1 .5 0 1 .4 1 1 0 .5-.5 1-1 1-.6 0-1-.4-1-1zm-9 0c0-.6.4-1 1-1 .5 0 1 .4 1 1 0 .5-.5 1-1 1-.6 0-1-.4-1-1zm-9 0c0-.6.4-1 1-1 .5 0 1 .4 1 1 0 .5-.5 1-1 1-.6 0-1-.4-1-1zm-9 0c0-.6.4-1 1-1 .5 0 1 .4 1 1 0 .5-.5 1-1 1-.6 0-1-.4-1-1zm-9 0c0-.6.4-1 1-1 .5 0 1 .4 1 1 0 .5-.5 1-1 1-.6 0-1-.4-1-1zm-9 0c0-.6.4-1 1-1s1 .4 1 1c0 .5-.4 1-1 1s-1-.4-1-1z" fill="#00295a"/><path d="M797.6 317.9L478.6 215 343 202.5h-.2L191 145.6l-93.4-11.7.2-2 93.6 11.7.2.1 151.8 56.8L479 213h.1l318.4 102.8 158.6-73.1.8 1.8z" fill="#5565fb"/><path d="M785 428.3h-.1l-255.7-31.7-179.4 3.3-255-30.1.3-2 254.8 30.1 179.4-3.3h.1L785 426.3l180.8-34.1.4 2z" fill="#4e5594"/><path d="M104.1 516.1c0-1.6-1.2-2.8-3.1-2.8-1.6 0-2.7.8-2.7 1.7v.8H96v-1.5c0-2.3 3-3.2 5.1-3.2 3.2 0 5.5 2 5.5 5 0 6-8.8 6.1-8.8 10.1 0 .3.2.5.6.5h6.2c.3 0 .5-.2.5-.5V525h2.3v2.2c0 1.1-.5 1.6-1.6 1.6h-8.9c-1.4 0-1.7-.6-1.7-2 0-6.4 8.9-6 8.9-10.7zm8 4c0-5 1.5-9 6.2-9 4.6 0 6.2 4 6.2 9s-1.5 9-6.2 9-6.2-4-6.2-9zm9.8 0c0-3.8-.8-6.7-3.7-6.7s-3.7 3-3.7 6.7c0 3.8.8 6.8 3.7 6.8 2.9-.1 3.7-3 3.7-6.8zm7.6 6.6h3.8v-12.4s-.2.4-.8 1l-1.6 1.6-1.5-1.5 4.2-4.1h2.2v15.3h3.8v2.1h-10.1zm23.1-10.6c0-1.6-1.2-2.8-3.1-2.8-1.6 0-2.7.8-2.7 1.7v.8h-2.3v-1.5c0-2.3 3-3.2 5.1-3.2 3.2 0 5.5 2 5.5 5 0 6-8.8 6.1-8.8 10.1 0 .3.2.5.6.5h6.2c.3 0 .5-.2.5-.5V525h2.3v2.2c0 1.1-.5 1.6-1.6 1.6h-8.9c-1.4 0-1.7-.6-1.7-2 0-6.4 8.9-6 8.9-10.7zm129.3 0c0-1.6-1.2-2.8-3.1-2.8-1.6 0-2.7.8-2.7 1.7v.8h-2.3v-1.5c0-2.3 3-3.2 5.1-3.2 3.2 0 5.5 2 5.5 5 0 6-8.8 6.1-8.8 10.1 0 .3.2.5.6.5h6.2c.3 0 .5-.2.5-.5V525h2.3v2.2c0 1.1-.5 1.6-1.6 1.6h-8.9c-1.4 0-1.7-.6-1.7-2 0-6.4 8.9-6 8.9-10.7zm8 4c0-5 1.5-9 6.2-9 4.6 0 6.2 4 6.2 9s-1.5 9-6.2 9-6.2-4-6.2-9zm9.9 0c0-3.8-.8-6.7-3.7-6.7s-3.7 3-3.7 6.7c0 3.8.8 6.8 3.7 6.8 2.9-.1 3.7-3 3.7-6.8zm7.5 6.6h3.8v-12.4h-.1s-.2.4-.8 1l-1.6 1.6-1.5-1.5 4.2-4.1h2.2v15.3h3.8v2.1h-10zm15.2-1.9s1.7 2 4.4 2c1.9 0 3.5-1.3 3.5-3.2 0-2-1.7-3.1-3.8-3.1h-1.2l-.5-1.3 3.6-4.6c.5-.7 1-1.1 1-1.1s-.5.1-1.5.1h-3.4c-.3 0-.5.2-.5.5v1.1h-2.3V513c0-1.1.4-1.6 1.5-1.6h9.2v1.6l-4.6 5.5c2.3.2 4.9 1.8 4.9 5.1 0 2.9-2.3 5.5-6 5.5l-5.8-2.4zM41.8 445.7c0-5.4 1.6-9.6 6.6-9.6s6.6 4.3 6.6 9.6c0 5.4-1.6 9.7-6.6 9.7s-6.6-4.3-6.6-9.7zm10.5 0c0-4-.9-7.2-3.9-7.2-3.1 0-3.9 3.2-3.9 7.2 0 4.1.9 7.3 3.9 7.3 3.1 0 3.9-3.2 3.9-7.3zm-6.8-118.3s1.5 2.1 4.4 2.1c2.4 0 4-1.6 4-3.7 0-2.3-2-3.8-4.4-3.8-2.1 0-3.5 1-3.5 1l-1.1-.5.7-7.7c.1-1.2.5-1.7 1.7-1.7h6.5c1.2 0 1.7.5 1.7 1.7v2.4h-2.4V316c0-.4-.2-.6-.6-.6h-3.9c-.4 0-.5.2-.6.6l-.4 3.4c-.1.6-.1 1-.1 1h.1s1-.6 2.4-.6c4 0 6.7 2.7 6.7 6.1 0 3.3-2.6 6.2-6.7 6.2-3.9 0-5.8-2.6-5.8-2.6zM28.3 206.2h4.1v-13.3h-.1s-.2.4-.9 1.1l-1.7 1.7-1.6-1.6 4.5-4.3H35v16.4h4.1v2.3H28.3zm15.3-7.1c0-5.4 1.6-9.6 6.6-9.6s6.6 4.3 6.6 9.6c0 5.4-1.6 9.7-6.6 9.7s-6.6-4.3-6.6-9.7zm10.5 0c0-4-.9-7.2-3.9-7.2-3.1 0-3.9 3.2-3.9 7.2 0 4.1.9 7.3 3.9 7.3 3.1 0 3.9-3.2 3.9-7.3zM28.5 84.8h4.1V71.5h-.1s-.2.4-.9 1.1l-1.7 1.7-1.6-1.6 4.5-4.3h2.4v16.4h4.1v2.3H28.5zm16.9-2s1.5 2.1 4.4 2.1c2.4 0 4-1.6 4-3.7 0-2.3-2-3.8-4.4-3.8-2.1 0-3.5 1-3.5 1l-1.1-.5.7-7.7c.1-1.2.5-1.7 1.7-1.7h6.5c1.2 0 1.7.5 1.7 1.7v2.4H53v-1.2c0-.4-.2-.6-.6-.6h-3.9c-.4 0-.5.2-.6.6l-.4 3.4c-.1.6-.1 1-.1 1h.1s1-.6 2.4-.6c4 0 6.7 2.7 6.7 6.1 0 3.3-2.6 6.2-6.7 6.2-3.9 0-5.8-2.6-5.8-2.6zM353 698.2h-1.7V696h7.7c3.1 0 5.3 2 5.3 5.2 0 3-1.9 4.4-3.2 4.7v.1s.5.2.8.8l2.1 4.2c.3.5.7.6 1.3.6h.3v2.2h-1.2c-1.4 0-1.9-.2-2.5-1.3l-2.4-4.8c-.5-.8-.8-1-1.8-1h-2.3v7.1h-2.5v-15.6zm5.8 6.3c1.9 0 3-1.2 3-3.2s-1.1-3.1-3-3.1h-3.3v6.4h3.3zm16.8-3.8c3.6 0 5.5 2.7 5.5 6 0 .3-.1 1-.1 1h-9.3c.2 2.7 2.1 4.2 4.4 4.2 2.2 0 3.7-1.5 3.7-1.5l1.1 1.7S379 714 376 714c-4 0-6.8-2.9-6.8-6.7 0-3.9 2.7-6.6 6.4-6.6zm2.9 5.2c-.1-2.1-1.4-3.2-3-3.2-1.9 0-3.4 1.1-3.7 3.2zm13.9-5.2c1.5 0 4.6.6 4.6 2.8v1.3h-2.2v-.7c0-.9-1.4-1.3-2.4-1.3-2.5 0-4.3 1.9-4.3 4.6 0 2.9 2.1 4.5 4.5 4.5l3.9-1.8 1.1 1.7s-1.8 2.2-5.2 2.2c-4 0-6.8-2.8-6.8-6.7 0-3.6 2.7-6.6 6.8-6.6zm15.9 0c3.8 0 6.9 2.8 6.9 6.6 0 3.9-3.1 6.7-6.9 6.7s-6.8-2.8-6.8-6.7c0-3.8 3-6.6 6.8-6.6zm0 11.3c2.4 0 4.4-1.9 4.4-4.6 0-2.6-2-4.5-4.4-4.5s-4.3 1.9-4.3 4.5 1.9 4.6 4.3 4.6zm12.5-8.3c0-.4-.2-.6-.6-.6h-1V701h2.3c1.1 0 1.6.5 1.6 1.5v1.7c.6-1.9 2.1-3.3 4-3.3.3 0 .7.1.7.1v2.4s-.3-.1-.7-.1c-1.6 0-3 1.1-3.6 3-.2.7-.3 1.5-.3 2.3v5.2h-2.4zm16.3-3c2.9 0 3.9 2 3.9 2v-4.1c0-.4-.2-.6-.6-.6h-1v-2.1h2.4c1.1 0 1.6.5 1.6 1.6V711c0 .4.2.6.6.6h1v2.1h-2.3c-1.1 0-1.6-.5-1.6-1.4v-.7s-1.1 2.3-4.2 2.3c-3.4 0-5.6-2.7-5.6-6.7 0-3.8 2.4-6.5 5.8-6.5zm4 6.7c0-2.3-1.2-4.5-3.6-4.5-2 0-3.6 1.7-3.6 4.6 0 2.8 1.5 4.6 3.6 4.6 1.8-.1 3.6-1.5 3.6-4.7zm15.6-1.6h.6v-.1c0-2.2-.8-3-2.8-3-.6 0-2.1.2-2.1 1v.7h-2.3v-1.3c0-2.1 3.2-2.4 4.4-2.4 4.1 0 5.2 2.2 5.2 5v5.4c0 .4.2.6.6.6h1v2.1H459c-1.1 0-1.6-.6-1.6-1.5 0-.4.1-.8.1-.8h-.1s-1 2.5-4 2.5c-2.2 0-4.3-1.3-4.3-3.9-.1-4 5.5-4.3 7.6-4.3zm-2.8 6.3c2.1 0 3.4-2.2 3.4-4v-.4h-.6c-1.8 0-5.2.1-5.2 2.4 0 1 .8 2 2.4 2zm12.4-13.4c0-.4-.2-.6-.6-.6h-1V696h2.4c1.1 0 1.6.5 1.6 1.6v5.2s1.1-2.1 4.1-2.1c3.4 0 5.6 2.7 5.6 6.7s-2.4 6.7-5.8 6.7c-2.8 0-4-2.1-4-2.1h-.1s.1.4.1 1v.9h-2.3zm6 13.3c2 0 3.7-1.7 3.7-4.6 0-2.8-1.5-4.6-3.6-4.6-1.9 0-3.6 1.3-3.6 4.6-.1 2.3 1.1 4.6 3.5 4.6zm11.5-13.3c0-.4-.2-.6-.6-.6h-1V696h2.4c1.1 0 1.6.5 1.6 1.6v13.5c0 .4.2.6.6.6h1v2.1h-2.4c-1.1 0-1.6-.5-1.6-1.6zm14.4 2c3.6 0 5.5 2.7 5.5 6 0 .3-.1 1-.1 1h-9.3c.2 2.7 2.1 4.2 4.4 4.2 2.2 0 3.7-1.5 3.7-1.5l1.1 1.7s-1.9 1.9-4.9 1.9c-4 0-6.8-2.9-6.8-6.7 0-3.9 2.8-6.6 6.4-6.6zm3 5.2c-.1-2.1-1.4-3.2-3-3.2-1.9 0-3.4 1.1-3.7 3.2zm-149.8 35.9h1.7v-13.4h-1.7v-2.2h5.9v2.2h-1.7v13.4h1.7v2.2h-5.9zm11.6-7.9c0-.4-.2-.6-.6-.6h-1v-2.1h2.3c1.1 0 1.6.5 1.6 1.4v1.2c.5-1.1 2-2.9 4.8-2.9 3 0 4.4 1.6 4.4 4.9v5.5c0 .4.2.6.6.6h1v2.1h-2.4c-1.1 0-1.6-.5-1.6-1.6v-6c0-1.8-.4-3.2-2.4-3.2s-3.5 1.3-4 3.1c-.2.5-.2 1.1-.2 1.7v6h-2.4zm16.2 13.1c.9 0 2.7-.3 2.7-2.8v-10.4c0-.4-.2-.6-.6-.6h-1v-2.1h2.4c1.1 0 1.6.5 1.6 1.6v11.5c0 4.2-3.3 4.8-4.9 4.8-.5 0-.8-.1-.8-.1v-2.1c0 .2.3.2.6.2zm2.7-20.8h2.2v2.5h-2.2zm9 7.7c0-.4-.2-.6-.6-.6h-1v-2.1h2.4c1.2 0 1.6.5 1.6 1.6v6c0 1.8.4 3.2 2.4 3.2 2.6 0 4.1-2.3 4.1-4.8v-6h2.4v10.1c0 .4.2.6.6.6h1v2.1h-2.3c-1.1 0-1.6-.5-1.6-1.4v-1.2h-.1c-.5 1.3-2.2 2.9-4.7 2.9-2.9 0-4.3-1.5-4.3-4.9zm18.2 0c0-.4-.2-.6-.6-.6h-1v-2.1h2.3c1.1 0 1.6.5 1.6 1.5v1.7c.6-1.9 2.1-3.3 4-3.3.3 0 .7.1.7.1v2.4s-.3-.1-.7-.1c-1.6 0-3 1.1-3.6 3-.2.7-.3 1.5-.3 2.3v5.2h-2.4zm12.4 0c0-.4-.2-.6-.6-.6h-1v-2.1h2.4c1.1 0 1.6.5 1.6 1.6v8.5c0 .4.2.6.6.6h1v2.1h-2.4c-1.1 0-1.6-.5-1.6-1.6zm0-7.7h2.2v2.5h-2.2zm14.4 4.7c3.6 0 5.5 2.7 5.5 6 0 .3-.1 1-.1 1H432c.2 2.7 2.1 4.2 4.4 4.2 2.2 0 3.7-1.5 3.7-1.5l1.1 1.7s-1.9 1.9-4.9 1.9c-4 0-6.8-2.9-6.8-6.7.1-4 2.8-6.6 6.4-6.6zm3 5.2c-.1-2.1-1.4-3.2-3-3.2-1.9 0-3.4 1.1-3.7 3.2zm8.1 4.3s1.5 1.9 3.8 1.9c1.2 0 2.2-.5 2.2-1.6 0-2.3-6.9-2-6.9-6.1 0-2.4 2.1-3.6 4.7-3.6 1.5 0 4.2.5 4.2 2.5v1.2h-2.2v-.6c0-.8-1.1-1.1-1.9-1.1-1.4 0-2.4.5-2.4 1.5 0 2.4 6.9 1.9 6.9 6.1 0 2.3-2 3.7-4.7 3.7-3.4 0-5.1-2.2-5.1-2.2zm235.9-32.5h-3.8c-.4 0-.6.2-.6.6v1.2h-2.4v-2.5c0-1.2.4-1.6 1.6-1.6h13c1.2 0 1.6.4 1.6 1.6v2.5h-2.4v-1.2c0-.4-.2-.6-.6-.6h-3.8v16.6h-2.7v-16.6zm15.3 0h-1.7v-2.3h8.2c3.3 0 5.6 2.1 5.6 5.5 0 3.2-2.1 4.7-3.4 5v.1s.5.2.8.9l2.3 4.5c.3.6.7.6 1.3.6h.3v2.3h-1.3c-1.5 0-2-.2-2.6-1.4l-2.6-5.1c-.5-.9-.8-1-1.9-1h-2.5v7.5H698v-16.6zm6.2 6.8c2 0 3.2-1.3 3.2-3.4s-1.2-3.3-3.2-3.3h-3.5v6.8zm12.7-.9c0-.4-.2-.6-.6-.6h-1.1V711h2.5c1.2 0 1.7.5 1.7 1.7v9c0 .4.2.6.6.6h1.1v2.2h-2.5c-1.2 0-1.7-.5-1.7-1.7zm0-8.2h2.3v2.7h-2.3zm10.3 2.3h-1.7v-2.3h10.4c1.2 0 1.7.5 1.7 1.7v2.4h-2.4v-1.2c0-.4-.2-.6-.6-.6h-4.7v6.2h6.4v2.3h-6.4v8.1h-2.7zm16.4 0h-1.7v-2.3h8.2c3.3 0 5.6 2.1 5.6 5.5 0 3.2-2.1 4.7-3.4 5v.1s.5.2.8.9l2.3 4.5c.3.6.7.6 1.3.6h.3v2.3h-1.3c-1.5 0-2-.2-2.6-1.4l-2.6-5.1c-.5-.9-.8-1-1.9-1h-2.5v7.5h-2.7v-16.6zm6.2 6.8c2 0 3.2-1.3 3.2-3.4S752 708 750 708h-3.5v6.8zM462.3 516.1c0-1.6-1.2-2.8-3.1-2.8-1.6 0-2.7.8-2.7 1.7v.8h-2.2v-1.5c0-2.3 3-3.2 5.1-3.2 3.2 0 5.5 2 5.5 5 0 6-8.8 6.1-8.8 10.1 0 .3.2.5.6.5h6.2c.3 0 .5-.2.5-.5V525h2.3v2.2c0 1.1-.5 1.6-1.6 1.6h-8.9c-1.4 0-1.7-.6-1.7-2-.1-6.4 8.8-6 8.8-10.7zm8.1 4c0-5 1.5-9 6.2-9 4.6 0 6.2 4 6.2 9s-1.5 9-6.2 9-6.2-4-6.2-9zm9.8 0c0-3.8-.8-6.7-3.7-6.7s-3.7 3-3.7 6.7c0 3.8.8 6.8 3.7 6.8 2.9-.1 3.7-3 3.7-6.8zm7.5 6.6h3.8v-12.4h-.1s-.2.4-.8 1l-1.6 1.6-1.5-1.5 4.2-4.1h2.2v15.3h3.8v2.1h-10.1zm13.3-4.1l7.9-11.2h2.8v10.7h2.7v2.1h-2.7v4.6h-2.5v-4.6H501zm8.2-6.5c0-.8.1-1.8.1-1.8s-.4.8-.9 1.5l-3.8 5.2c-.4.6-.9 1.1-.9 1.1v.1s.7-.1 1.5-.1h4.1z" fill="#00245b"/><path d="M358.7 581.8c0-.3-.2-.5-.5-.5h-.9v-1.8h2.1c.9 0 1.3.4 1.3 1.3v11.1c0 .3.2.5.5.5h4c.3 0 .5-.2.5-.5v-.9h1.9v1.8c0 .9-.4 1.3-1.3 1.3H360c-.9 0-1.3-.4-1.3-1.3zm17.2-2.5h1.4l-.9 4h-1.9zm1.6 13.1h.3c.4 0 .6-.1.7-.5l4.6-12.4h2.2l4.6 12.4c.1.4.3.5.7.5h.3v1.8h-1.2c-1 0-1.4-.2-1.7-1.2l-1.1-3h-5.4l-1.1 3c-.4 1-.7 1.2-1.7 1.2h-1.1zm8.9-4.2l-1.6-4.5c-.3-.8-.6-2-.6-2s-.3 1.3-.6 2l-1.6 4.5zm7.2-2.3c0-.3-.2-.5-.5-.5h-.8v-1.7h1.9c.9 0 1.3.4 1.3 1.2v1c.4-.9 1.7-2.4 3.9-2.4 2.5 0 3.6 1.3 3.6 4v4.5c0 .3.2.5.5.5h.8v1.7h-2c-.9 0-1.3-.4-1.3-1.3V588c0-1.5-.3-2.6-2-2.6-1.6 0-2.9 1.1-3.3 2.6-.1.4-.2.9-.2 1.4v4.9h-2zm17.6-2.4c2.4 0 3.2 1.6 3.2 1.6v-3.3c0-.3-.2-.5-.5-.5h-.8v-1.7h2c.9 0 1.3.4 1.3 1.3V592c0 .3.2.5.5.5h.8v1.7h-1.9c-.9 0-1.3-.4-1.3-1.1v-.5s-.9 1.9-3.4 1.9c-2.8 0-4.6-2.2-4.6-5.5-.1-3.4 1.9-5.5 4.7-5.5zm3.3 5.4c0-1.9-1-3.7-3-3.7-1.6 0-3 1.4-3 3.7s1.2 3.7 3 3.7c1.5.1 3-1 3-3.7zm11.6-1.2h.5v-.1c0-1.8-.7-2.5-2.3-2.5-.5 0-1.7.1-1.7.8v.6h-1.9v-1c0-1.7 2.6-2 3.6-2 3.4 0 4.3 1.8 4.3 4.1v4.5c0 .3.2.5.5.5h.8v1.7H428c-.9 0-1.3-.5-1.3-1.2v-.6s-.8 2.1-3.3 2.1c-1.8 0-3.6-1.1-3.6-3.2 0-3.5 4.5-3.7 6.3-3.7zm-2.3 5.1c1.7 0 2.8-1.8 2.8-3.3v-.4h-.5c-1.5 0-4.2.1-4.2 2-.1.9.6 1.7 1.9 1.7zm9.1-6.9c0-.3-.2-.5-.5-.5h-.8v-1.7h1.9c.9 0 1.3.4 1.3 1.2v1c.5-1.2 1.9-2.4 3.6-2.4 1.8 0 2.8.8 3.1 2.4.6-1.3 2-2.4 3.7-2.4 2.4 0 3.5 1.3 3.5 4v4.5c0 .3.2.5.5.5h.8v1.7h-2c-.9 0-1.3-.4-1.3-1.3V588c0-1.5-.3-2.6-1.8-2.6-1.4 0-2.6 1.3-2.9 2.7-.1.4-.2.9-.2 1.4v4.8h-2V588c0-1.4-.2-2.6-1.8-2.6-1.5 0-2.6 1.3-3 2.8-.1.4-.1.9-.1 1.3v4.8h-2zm24.4-2.4c2.9 0 4.5 2.2 4.5 4.9 0 .3-.1.8-.1.8h-7.6c.1 2.2 1.7 3.5 3.6 3.5 1.8 0 3.1-1.2 3.1-1.2l.9 1.4s-1.6 1.5-4 1.5c-3.3 0-5.6-2.4-5.6-5.5 0-3.3 2.3-5.4 5.2-5.4zm2.5 4.2c-.1-1.7-1.2-2.7-2.5-2.7-1.5 0-2.8.9-3.1 2.7zm5.6-1.8c0-.3-.2-.5-.5-.5h-.8v-1.7h1.9c.9 0 1.3.4 1.3 1.2v1c.4-.9 1.7-2.4 3.9-2.4 2.5 0 3.6 1.3 3.6 4v4.5c0 .3.2.5.5.5h.8v1.7h-2c-.9 0-1.3-.4-1.3-1.3V588c0-1.5-.3-2.6-2-2.6-1.6 0-2.9 1.1-3.3 2.6-.1.4-.2.9-.2 1.4v4.9h-2zm13.8-.6h-1.4v-1.6h1.4v-2.9h2v2.9h2.5v1.6h-2.5v4.8c0 2.1 1.4 2.4 2.2 2.4h.5v1.8h-.7c-1.3 0-4-.4-4-3.9zm12.5-1.8c3.1 0 5.7 2.3 5.7 5.5s-2.5 5.5-5.7 5.5-5.6-2.3-5.6-5.5c0-3.3 2.5-5.5 5.6-5.5zm0 9.2c2 0 3.6-1.6 3.6-3.8s-1.6-3.7-3.6-3.7-3.6 1.6-3.6 3.7c0 2.2 1.6 3.8 3.6 3.8zm19.1-9.2c2.4 0 3.2 1.6 3.2 1.6v-3.3c0-.3-.2-.5-.5-.5h-.8v-1.7h2c.9 0 1.3.4 1.3 1.3V592c0 .3.2.5.5.5h.8v1.7h-1.9c-.9 0-1.3-.4-1.3-1.1v-.5s-.9 1.9-3.4 1.9c-2.8 0-4.6-2.2-4.6-5.5 0-3.4 1.9-5.5 4.7-5.5zm3.3 5.4c0-1.9-1-3.7-3-3.7-1.6 0-3 1.4-3 3.7s1.2 3.7 3 3.7c1.5.1 3-1 3-3.7zm10.6-5.4c2.9 0 4.5 2.2 4.5 4.9 0 .3-.1.8-.1.8h-7.6c.1 2.2 1.7 3.5 3.6 3.5 1.8 0 3.1-1.2 3.1-1.2l.9 1.4s-1.6 1.5-4 1.5c-3.3 0-5.6-2.4-5.6-5.5-.1-3.3 2.2-5.4 5.2-5.4zm2.4 4.2c-.1-1.7-1.2-2.7-2.5-2.7-1.5 0-2.8.9-3.1 2.7zm9.2-4.2c2.6 0 3.4 1.6 3.4 1.6v-.3c0-.6.3-1.1 1.2-1.1h1.9v1.7h-.8c-.3 0-.5.1-.5.4v7.9c0 3.5-2.6 4.8-5.3 4.8-1.3 0-2.5-.4-3.6-.9l.7-1.6s1.3.7 2.9.7c1.8 0 3.3-.8 3.3-2.9v-1.4c-.6 1-1.6 1.6-3.1 1.6-2.9 0-4.7-2.3-4.7-5.4 0-2.9 1.7-5.1 4.6-5.1zm3.3 5.2c0-2.7-1.3-3.5-3-3.5-1.8 0-2.9 1.3-2.9 3.5s1.1 3.7 3 3.7c1.5-.1 2.9-1 2.9-3.7zm6.2-7c0-.3-.2-.5-.5-.5h-.8v-1.7h2c.9 0 1.3.4 1.3 1.3V592c0 .3.2.5.5.5h.8v1.7h-2c-.9 0-1.3-.4-1.3-1.3zm6.5 4.2c0-.3-.2-.5-.5-.5h-.8v-1.7h2c.9 0 1.3.4 1.3 1.3v7c0 .3.2.5.5.5h.8v1.7h-2c-.9 0-1.3-.4-1.3-1.3zm.1-6.3h1.8v2.1h-1.8zm12.8 6.3c0-.3-.2-.5-.5-.5h-.8v-1.7h2c.9 0 1.3.4 1.3 1.3v7c0 .3.2.5.5.5h.8v1.7h-2c-.9 0-1.3-.4-1.3-1.3zm.1-6.3h1.8v2.1h-1.8zm6.3 6.3c0-.3-.2-.5-.5-.5h-.8v-1.7h1.9c.9 0 1.3.4 1.3 1.2v1c.4-.9 1.7-2.4 3.9-2.4 2.5 0 3.6 1.3 3.6 4v4.5c0 .3.2.5.5.5h.8v1.7h-2c-.9 0-1.3-.4-1.3-1.3V588c0-1.5-.3-2.6-2-2.6-1.6 0-2.9 1.1-3.3 2.6-.1.4-.2.9-.2 1.4v4.9h-2zm17.6-2.4c2.4 0 3.2 1.6 3.2 1.6v-3.3c0-.3-.2-.5-.5-.5h-.8v-1.7h2c.9 0 1.3.4 1.3 1.3V592c0 .3.2.5.5.5h.8v1.7h-1.9c-.9 0-1.3-.4-1.3-1.1v-.5s-.9 1.9-3.4 1.9c-2.8 0-4.6-2.2-4.6-5.5-.1-3.4 1.9-5.5 4.7-5.5zm3.3 5.4c0-1.9-1-3.7-3-3.7-1.6 0-3 1.4-3 3.7s1.2 3.7 3 3.7c1.5.1 3-1 3-3.7zm6.4-3c0-.3-.2-.5-.5-.5h-.8v-1.7h2c.9 0 1.3.4 1.3 1.3v7c0 .3.2.5.5.5h.8v1.7h-2c-.9 0-1.3-.4-1.3-1.3zm0-6.3h1.8v2.1h-1.8zm11 3.9c1.3 0 3.8.5 3.8 2.3v1.1h-1.8v-.6c0-.7-1.2-1.1-1.9-1.1-2 0-3.6 1.5-3.6 3.7 0 2.4 1.7 3.7 3.7 3.7l3.3-1.4.9 1.4s-1.5 1.8-4.3 1.8c-3.3 0-5.6-2.3-5.6-5.5-.1-3 2.2-5.4 5.5-5.4zm7.4 2.4c0-.3-.2-.5-.5-.5h-.8v-1.7h2c.9 0 1.3.4 1.3 1.3v7c0 .3.2.5.5.5h.8v1.7h-2c-.9 0-1.3-.4-1.3-1.3zm0-6.3h1.8v2.1h-1.8zm16.5 3.9c2.4 0 3.2 1.6 3.2 1.6v-3.3c0-.3-.2-.5-.5-.5h-.8v-1.7h2c.9 0 1.3.4 1.3 1.3V592c0 .3.2.5.5.5h.8v1.7h-1.9c-.9 0-1.3-.4-1.3-1.1v-.5s-.9 1.9-3.4 1.9c-2.8 0-4.6-2.2-4.6-5.5 0-3.4 2-5.5 4.7-5.5zm3.3 5.4c0-1.9-1-3.7-3-3.7-1.6 0-3 1.4-3 3.7s1.2 3.7 3 3.7c1.6.1 3-1 3-3.7zm6.4-3c0-.3-.2-.5-.5-.5h-.8v-1.7h2c.9 0 1.3.4 1.3 1.3v7c0 .3.2.5.5.5h.8v1.7h-2c-.9 0-1.3-.4-1.3-1.3zm.1-6.3h1.8v2.1h-1.8zm12.6 11.6s1.2 1.6 3.2 1.6c1 0 1.8-.4 1.8-1.3 0-1.9-5.7-1.7-5.7-5.1 0-2 1.8-2.9 3.9-2.9 1.3 0 3.4.4 3.4 2v1H661v-.5c0-.6-.9-.9-1.6-.9-1.2 0-1.9.4-1.9 1.2 0 2 5.7 1.6 5.7 5.1 0 1.9-1.7 3.1-3.9 3.1-2.8 0-4.2-1.8-4.2-1.8zm10.5-5.3c0-.3-.2-.5-.5-.5h-.8v-1.7h2c.9 0 1.3.4 1.3 1.3v7c0 .3.2.5.5.5h.8v1.7h-2c-.9 0-1.3-.4-1.3-1.3zm0-6.3h1.8v2.1h-1.8zm11 3.9c1.3 0 3.8.5 3.8 2.3v1.1h-1.8v-.6c0-.7-1.2-1.1-1.9-1.1-2 0-3.6 1.5-3.6 3.7 0 2.4 1.7 3.7 3.7 3.7l3.3-1.4.9 1.4s-1.5 1.8-4.3 1.8c-3.3 0-5.6-2.3-5.6-5.5-.1-3 2.2-5.4 5.5-5.4zm7.2 2.4c0-.3-.2-.5-.5-.5h-.8v-1.7h2c1 0 1.3.4 1.3 1.3v5c0 1.4.3 2.6 1.9 2.6 2.2 0 3.4-1.9 3.4-4v-4.9h2v8.3c0 .3.2.5.5.5h.8v1.7h-1.9c-.9 0-1.3-.4-1.3-1.2v-1c-.4 1-1.8 2.4-3.9 2.4-2.4 0-3.6-1.2-3.6-4zm13.8 0c0-.3-.2-.5-.5-.5h-.8v-1.7h1.9c.9 0 1.3.4 1.3 1.2v1.4c.5-1.5 1.7-2.7 3.3-2.7h.5v2s-.3-.1-.6-.1c-1.3 0-2.5.9-2.9 2.5-.2.6-.2 1.2-.2 1.9v4.3h-2zm12.6-2.4c2.9 0 4.5 2.2 4.5 4.9 0 .3-.1.8-.1.8h-7.6c.1 2.2 1.7 3.5 3.6 3.5 1.8 0 3.1-1.2 3.1-1.2l.9 1.4s-1.6 1.5-4 1.5c-3.3 0-5.6-2.4-5.6-5.5 0-3.3 2.2-5.4 5.2-5.4zm2.5 4.2c-.1-1.7-1.2-2.7-2.5-2.7-1.5 0-2.8.9-3.1 2.7zm4.5 5.3l5.4-6.6c.5-.6.9-1 .9-1h-3.9c-.3 0-.5.2-.5.5v.7h-1.9V585c0-.9.4-1.3 1.3-1.3h7.5v1.2l-5.4 6.6c-.4.5-.9 1-.9 1h4.4c.3 0 .5-.2.5-.5v-.7h1.8v1.6c0 .9-.4 1.3-1.3 1.3h-8V593zm11.2 0l5.4-6.6c.5-.6.9-1 .9-1h-3.9c-.3 0-.5.2-.5.5v.7h-1.8V585c0-.9.4-1.3 1.3-1.3h7.5v1.2l-5.4 6.6c-.4.5-.9 1-.9 1h4.4c.3 0 .5-.2.5-.5v-.7h1.8v1.6c0 .9-.4 1.3-1.3 1.3h-8zm17.7-5.3h.5v-.1c0-1.8-.7-2.5-2.3-2.5-.5 0-1.7.1-1.7.8v.6h-1.9v-1c0-1.7 2.6-2 3.6-2 3.4 0 4.3 1.8 4.3 4.1v4.5c0 .3.2.5.5.5h.8v1.7h-1.9c-.9 0-1.3-.5-1.3-1.2v-.6s-.8 2.1-3.3 2.1c-1.8 0-3.6-1.1-3.6-3.2 0-3.5 4.6-3.7 6.3-3.7zm-2.3 5.1c1.7 0 2.8-1.8 2.8-3.3v-.4h-.5c-1.5 0-4.2.1-4.2 2-.1.9.6 1.7 1.9 1.7z" fill="#4e5594"/><path d="M639 516.1c0-1.6-1.2-2.8-3.1-2.8-1.6 0-2.7.8-2.7 1.7v.8h-2.3v-1.5c0-2.3 3-3.2 5.1-3.2 3.2 0 5.5 2 5.5 5 0 6-8.8 6.1-8.8 10.1 0 .3.2.5.6.5h6.2c.3 0 .5-.2.5-.5V525h2.3v2.2c0 1.1-.5 1.6-1.6 1.6h-8.9c-1.4 0-1.7-.6-1.7-2 0-6.4 8.9-6 8.9-10.7zm8 4c0-5 1.5-9 6.2-9 4.6 0 6.2 4 6.2 9s-1.5 9-6.2 9-6.2-4-6.2-9zm9.8 0c0-3.8-.8-6.7-3.7-6.7s-3.7 3-3.7 6.7c0 3.8.8 6.8 3.7 6.8 2.9-.1 3.7-3 3.7-6.8zm7.6 6.6h3.8v-12.4h-.1s-.2.4-.8 1l-1.6 1.6-1.5-1.5 4.2-4.1h2.2v15.3h3.8v2.1h-10.1zm15.7-1.9s1.4 1.9 4.1 1.9c2.2 0 3.8-1.5 3.8-3.5 0-2.2-1.9-3.6-4.2-3.6-1.9 0-3.3.9-3.3.9l-1-.5.7-7.2c.1-1.1.5-1.6 1.6-1.6h6.1c1.1 0 1.6.5 1.6 1.6v2.2h-2.2v-1c0-.4-.2-.5-.5-.5h-3.7c-.3 0-.5.2-.5.5l-.3 3.2c-.1.5-.1.9-.1.9h.1s.9-.5 2.2-.5c3.8 0 6.2 2.5 6.2 5.7 0 3.1-2.5 5.8-6.3 5.8-3.6 0-5.4-2.4-5.4-2.4zm137.3-8.7c0-1.6-1.2-2.8-3.1-2.8-1.6 0-2.7.8-2.7 1.7v.8h-2.3v-1.5c0-2.3 3-3.2 5.1-3.2 3.2 0 5.5 2 5.5 5 0 6-8.8 6.1-8.8 10.1 0 .3.2.5.6.5h6.2c.3 0 .5-.2.5-.5V525h2.3v2.2c0 1.1-.5 1.6-1.6 1.6h-8.9c-1.4 0-1.7-.6-1.7-2 0-6.4 8.9-6 8.9-10.7zm8 4c0-5 1.5-9 6.2-9 4.6 0 6.2 4 6.2 9s-1.5 9-6.2 9-6.2-4-6.2-9zm9.8 0c0-3.8-.8-6.7-3.7-6.7s-3.7 3-3.7 6.7c0 3.8.8 6.8 3.7 6.8 2.9-.1 3.7-3 3.7-6.8zm7.5 6.6h3.8v-12.4h-.1s-.2.4-.8 1l-1.6 1.6-1.5-1.5 4.2-4.1h2.2v15.3h3.8v2.1h-10.1zm14-5.6c0-4.5 2.4-10 7.9-10 2.1 0 3.4.7 3.4.7l-.8 2.1s-1.1-.6-2.5-.6c-3.2 0-4.9 3-5.2 6 .7-1.1 2.3-1.7 3.9-1.7 3.3 0 5.5 2.5 5.5 5.7 0 3.4-2.3 5.8-5.6 5.8-3.8 0-6.6-3.2-6.6-8zm6.5 5.7c2 0 3.2-1.6 3.2-3.6 0-2.1-1.3-3.6-3.6-3.6-2 0-3.5 1.2-3.5 2.4 0 2.3 1.7 4.8 3.9 4.8zm132.6-10.7c0-1.6-1.2-2.8-3.1-2.8-1.6 0-2.7.8-2.7 1.7v.8h-2.3v-1.5c0-2.3 3-3.2 5.1-3.2 3.2 0 5.5 2 5.5 5 0 6-8.8 6.1-8.8 10.1 0 .3.2.5.6.5h6.2c.3 0 .5-.2.5-.5V525h2.3v2.2c0 1.1-.5 1.6-1.6 1.6h-8.9c-1.4 0-1.7-.6-1.7-2 0-6.4 8.9-6 8.9-10.7zm8 4c0-5 1.5-9 6.2-9 4.6 0 6.2 4 6.2 9s-1.5 9-6.2 9-6.2-4-6.2-9zm9.9 0c0-3.8-.8-6.7-3.7-6.7s-3.7 3-3.7 6.7c0 3.8.8 6.8 3.7 6.8 2.9-.1 3.7-3 3.7-6.8zm7.5 6.6h3.8v-12.4h-.1s-.2.4-.8 1l-1.6 1.6-1.5-1.5 4.2-4.1h2.2v15.3h3.8v2.1h-10.1zm22.1-11.6c.5-1 1-1.6 1-1.6s-.4.1-1.3.1h-5.3c-.3 0-.5.2-.5.5v1.1h-2.3V513c0-1.1.4-1.6 1.5-1.6h10.6v1.7l-8.4 15.8h-2.7z" fill="#00245b"/><path d="M167.1 118.7h4.6v-14.9h-.1s-.2.5-1 1.2l-2 1.9-1.8-1.8 5-4.9h2.7v18.4h4.6v2.6h-12.2v-2.5zm18.3-2.3s2.1 2.4 5.3 2.4c2.3 0 4.2-1.6 4.2-3.8 0-2.3-2.1-3.7-4.5-3.7h-1.5l-.6-1.6 4.4-5.5c.6-.9 1.2-1.4 1.2-1.4v-.1s-.6.1-1.8.1h-4c-.4 0-.7.2-.7.7v1.3h-2.7v-2.6c0-1.3.5-1.9 1.8-1.9h11.1v1.9l-5.5 6.7c2.7.3 5.9 2.1 5.9 6.2 0 3.5-2.8 6.7-7.2 6.7l-6.9-2.9z" fill="#5565fb"/><path d="M159 326.8s2.1 2.4 5.3 2.4c2.3 0 4.2-1.6 4.2-3.8 0-2.3-2.1-3.7-4.5-3.7h-1.5l-.6-1.6 4.4-5.5c.6-.9 1.2-1.4 1.2-1.4v-.1s-.6.1-1.8.1h-4c-.4 0-.7.2-.7.7v1.3h-2.7v-2.6c0-1.3.5-1.9 1.8-1.9h11.1v1.9l-5.5 6.7c2.7.3 5.9 2.1 5.9 6.2 0 3.5-2.8 6.7-7.2 6.7l-6.9-2.9zm22 1.7l-2.5 6.1h-2.2l1.8-6.1zm5.6-6.2c0-5.5 2.9-12 9.5-12 2.5 0 4.1.9 4.1.9l-1 2.5s-1.3-.7-3-.7c-3.8 0-5.9 3.6-6.3 7.2h.1c.9-1.3 2.8-2.1 4.6-2.1 4 0 6.6 3 6.6 6.8 0 4.1-2.8 7-6.7 7-4.5.1-7.9-3.8-7.9-9.6zm7.8 6.9c2.4 0 3.9-1.9 3.9-4.3 0-2.5-1.6-4.3-4.3-4.3-2.3 0-4.2 1.4-4.2 2.9-.1 2.7 1.9 5.7 4.6 5.7zm276.7 10c0-1.9-1.4-3.3-3.7-3.3-1.9 0-3.2 1-3.2 2v.9h-2.7V337c0-2.7 3.7-3.9 6.1-3.9 3.8 0 6.6 2.4 6.6 6 0 7.2-10.6 7.3-10.6 12.2 0 .4.2.6.7.6h7.5c.4 0 .7-.2.7-.7v-1.3h2.7v2.6c0 1.3-.6 1.9-1.9 1.9h-10.8c-1.6 0-2-.7-2-2.4-.1-7.7 10.6-7.2 10.6-12.8zm13.6 12.1l-2.5 6.1H480l1.8-6.1zm7.7.1s1.3.7 3 .7c3.8 0 5.9-3.6 6.3-7.2h-.1c-.9 1.3-2.8 2.1-4.6 2.1-4 0-6.6-3-6.6-6.8 0-4.1 2.8-7 6.7-7 4.5 0 7.8 3.8 7.8 9.7 0 5.5-2.9 12-9.4 12-2.5 0-4.1-.9-4.1-.9zm9.4-9.9c0-2.7-2-5.7-4.7-5.7-2.4 0-3.9 1.9-3.9 4.3 0 2.5 1.6 4.3 4.3 4.3 2.4.1 4.3-1.4 4.3-2.9zm133.8 9.8c0-1.9-1.4-3.3-3.7-3.3-1.9 0-3.2 1-3.2 2v.9H626v-1.8c0-2.7 3.7-3.9 6.1-3.9 3.8 0 6.6 2.4 6.6 6 0 7.2-10.6 7.3-10.6 12.2 0 .4.2.6.7.6h7.5c.4 0 .7-.2.7-.7V362h2.7v2.6c0 1.3-.6 1.9-1.9 1.9H627c-1.6 0-2-.7-2-2.4-.1-7.6 10.6-7.1 10.6-12.8zm13.6 12.2l-2.5 6.1h-2.2l1.8-6.1zm7.1-1.7s2.1 2.4 5.3 2.4c2.3 0 4.2-1.6 4.2-3.8 0-2.3-2.1-3.7-4.5-3.7h-1.5l-.6-1.6 4.4-5.5c.6-.9 1.2-1.4 1.2-1.4v-.1s-.6.1-1.8.1h-4c-.4 0-.7.2-.7.7v1.3h-2.7v-2.6c0-1.3.5-1.9 1.8-1.9h11.1v1.9l-5.5 6.7c2.7.3 5.9 2.1 5.9 6.2 0 3.5-2.8 6.7-7.2 6.7l-6.9-2.9zm129.6 19.5h4.6v-14.9h-.1s-.2.5-1 1.2l-2 1.9-1.8-1.8 5-4.9h2.7v18.4h4.6v2.6h-12.2v-2.5zm21.4-.6l-2.5 6.1h-2.2l1.8-6.1zm5.6-6.2c0-5.5 2.9-12 9.4-12 2.5 0 4.1.9 4.1.9l-1 2.5s-1.3-.7-3-.7c-3.8 0-5.9 3.6-6.3 7.2h.1c.9-1.3 2.8-2.1 4.6-2.1 4 0 6.6 3 6.6 6.8 0 4.1-2.8 7-6.7 7-4.4.1-7.8-3.7-7.8-9.6zm7.8 7c2.4 0 3.9-1.9 3.9-4.3 0-2.5-1.6-4.3-4.3-4.3-2.3 0-4.3 1.4-4.3 2.9 0 2.6 2 5.7 4.7 5.7zm112.9-43.8c0-1.9-1.4-3.3-3.7-3.3-1.9 0-3.2 1-3.2 2v.9H924v-1.8c0-2.7 3.7-3.9 6.1-3.9 3.8 0 6.6 2.4 6.6 6 0 7.2-10.6 7.3-10.6 12.2 0 .4.2.6.7.6h7.5c.4 0 .7-.2.7-.7v-1.3h2.7v2.6c0 1.3-.6 1.9-1.9 1.9H925c-1.6 0-2-.7-2-2.4-.1-7.7 10.6-7.2 10.6-12.8zm13.6 12.1l-2.5 6.1h-2.2l1.8-6.1zm7.7.1s1.3.7 3 .7c3.8 0 5.9-3.6 6.3-7.2h-.1c-.9 1.3-2.8 2.1-4.6 2.1-4 0-6.6-3-6.6-6.8 0-4.1 2.8-7 6.7-7 4.5 0 7.8 3.8 7.8 9.7 0 5.5-2.9 12-9.4 12-2.5 0-4.1-.9-4.1-.9zm9.5-9.9c0-2.7-2-5.7-4.7-5.7-2.4 0-3.9 1.9-3.9 4.3 0 2.5 1.6 4.3 4.3 4.3 2.4 0 4.3-1.4 4.3-2.9zm-624.6 2.1s2.1 2.4 5.3 2.4c2.3 0 4.2-1.6 4.2-3.8 0-2.3-2.1-3.7-4.5-3.7h-1.5l-.6-1.6 4.4-5.5c.6-.9 1.2-1.4 1.2-1.4v-.1s-.6.1-1.8.1h-4c-.4 0-.7.2-.7.7v1.3h-2.7v-2.6c0-1.3.5-1.9 1.8-1.9H352v1.9l-5.5 6.7c2.7.3 5.9 2.1 5.9 6.2 0 3.5-2.8 6.7-7.2 6.7l-6.9-2.9z" fill="#4e5594"/><path d="M325.4 167.4h4.6v-14.9h-.1s-.2.5-1 1.2l-2 1.9-1.8-1.8 5-4.9h2.7v18.4h4.6v2.6h-12.2v-2.5zm18 0h4.6v-14.9h-.1s-.2.5-1 1.2l-2 1.9-1.8-1.8 5-4.9h2.7v18.4h4.6v2.6h-12.2v-2.5zm132.4 13.4h4.6v-14.9h-.1s-.2.5-1 1.2l-2 1.9-1.8-1.8 5-4.9h2.7v18.4h4.6v2.6h-12.2v-2.5zm17.2-7.9c0-6 1.8-10.8 7.4-10.8s7.4 4.8 7.4 10.8c0 6.1-1.8 10.9-7.4 10.9-5.6-.1-7.4-4.9-7.4-10.9zm11.8 0c0-4.5-1-8.1-4.4-8.1s-4.4 3.6-4.4 8.1c0 4.6 1 8.2 4.4 8.2 3.4-.1 4.4-3.7 4.4-8.2zm138.2 62c0-.1-2.6-1.4-2.6-4.3s2.3-5.6 6.5-5.6c4 0 6.6 2.4 6.6 5.7 0 3.1-2.5 5-2.5 5v.1c1.9 1.1 3.1 2.6 3.1 4.8 0 3.3-3 6.2-7.3 6.2-4 0-7.3-2.5-7.3-6.4.1-3.6 3.5-5.5 3.5-5.5zm3.9 9c2.2 0 4.2-1.5 4.2-3.5 0-1.8-1.6-2.6-3.5-3.4-.8-.3-1.9-.8-2.2-.8-.7 0-2.9 1.7-2.9 4 .1 2.2 2.1 3.7 4.4 3.7zm1.5-9.5c.7 0 2.2-1.8 2.2-3.6 0-1.9-1.5-3.1-3.7-3.1-2.3 0-3.6 1.3-3.6 3 0 1.8 1.6 2.6 3.4 3.3.5.1 1.4.4 1.7.4zm151.8 27.2c0-5.5 2.9-12 9.5-12 2.5 0 4.1.9 4.1.9l-1 2.5s-1.3-.7-3-.7c-3.8 0-5.9 3.6-6.3 7.2h.1c.9-1.3 2.8-2.1 4.6-2.1 4 0 6.6 3 6.6 6.8 0 4.1-2.8 7-6.7 7-4.5.1-7.9-3.7-7.9-9.6zm7.8 7c2.4 0 3.9-1.9 3.9-4.3 0-2.5-1.6-4.3-4.3-4.3-2.3 0-4.2 1.4-4.2 2.9-.1 2.7 1.9 5.7 4.6 5.7zm143.2-52.4s1.3.7 3 .7c3.8 0 5.9-3.6 6.3-7.2h-.1c-.9 1.3-2.8 2.1-4.6 2.1-4 0-6.6-3-6.6-6.8 0-4.1 2.8-7 6.7-7 4.5 0 7.8 3.8 7.8 9.7 0 5.5-2.9 12-9.4 12-2.5 0-4.1-.9-4.1-.9zm9.5-9.8c0-2.7-2-5.7-4.7-5.7-2.4 0-3.9 1.9-3.9 4.3 0 2.5 1.6 4.3 4.3 4.3 2.4 0 4.3-1.4 4.3-2.9z" fill="#5565fb"/><circle cx="313.5" cy="711.8" fill="#5565fb" r="21.1"/><circle cx="640.4" cy="711.8" fill="#00245b" r="21.1"/></svg>