<svg xmlns="http://www.w3.org/2000/svg" viewBox="0 0 873 118"><style>.st0{fill:#4e5594}</style><path class="st0" d="M691 118.3L435.2 86.6l-179.4 3.3L.8 59.8l.3-2 254.8 30.1 179.4-3.3h.1L691 116.3l180.8-34.1.4 2L691 118.3zM65 16.8s2.1 2.4 5.3 2.4c2.3 0 4.2-1.6 4.2-3.8 0-2.3-2.1-3.7-4.5-3.7h-1.5l-.6-1.6 4.4-5.5c.6-.9 1.2-1.4 1.2-1.4v-.1s-.6.1-1.8.1h-4c-.4 0-.7.2-.7.7v1.3h-2.7V2.6c0-1.3.5-1.9 1.8-1.9h11.1v1.9l-5.5 6.7c2.7.3 5.9 2.1 5.9 6.2 0 3.5-2.8 6.7-7.2 6.7l-6.9-2.9 1.5-2.5zm22 1.7l-2.5 6.1h-2.2l1.8-6.1H87zm5.6-6.2c0-5.5 2.9-12 9.5-12 2.5 0 4.1.9 4.1.9l-1 2.5s-1.3-.7-3-.7c-3.8 0-5.9 3.6-6.3 7.2h.1c.9-1.3 2.8-2.1 4.6-2.1 4 0 6.6 3 6.6 6.8 0 4.1-2.8 7-6.7 7-4.5.1-7.9-3.8-7.9-9.6zm7.8 6.9c2.4 0 3.9-1.9 3.9-4.3 0-2.5-1.6-4.3-4.3-4.3-2.3 0-4.2 1.4-4.2 2.9-.1 2.7 1.9 5.7 4.6 5.7zm276.7 10c0-1.9-1.4-3.3-3.7-3.3-1.9 0-3.2 1-3.2 2v.9h-2.7V27c0-2.7 3.7-3.9 6.1-3.9 3.8 0 6.6 2.4 6.6 6 0 7.2-10.6 7.3-10.6 12.2 0 .4.2.6.7.6h7.5c.4 0 .7-.2.7-.7v-1.3h2.7v2.6c0 1.3-.6 1.9-1.9 1.9h-10.8c-1.6 0-2-.7-2-2.4-.1-7.7 10.6-7.2 10.6-12.8zm13.6 12.1l-2.5 6.1H386l1.8-6.1h2.9zm7.7.1s1.3.7 3 .7c3.8 0 5.9-3.6 6.3-7.2h-.1c-.9 1.3-2.8 2.1-4.6 2.1-4 0-6.6-3-6.6-6.8 0-4.1 2.8-7 6.7-7 4.5 0 7.8 3.8 7.8 9.7 0 5.5-2.9 12-9.4 12-2.5 0-4.1-.9-4.1-.9l1-2.6zm9.4-9.9c0-2.7-2-5.7-4.7-5.7-2.4 0-3.9 1.9-3.9 4.3 0 2.5 1.6 4.3 4.3 4.3 2.4.1 4.3-1.4 4.3-2.9zm133.8 9.8c0-1.9-1.4-3.3-3.7-3.3-1.9 0-3.2 1-3.2 2v.9H532v-1.8c0-2.7 3.7-3.9 6.1-3.9 3.8 0 6.6 2.4 6.6 6 0 7.2-10.6 7.3-10.6 12.2 0 .4.2.6.7.6h7.5c.4 0 .7-.2.7-.7V52h2.7v2.6c0 1.3-.6 1.9-1.9 1.9H533c-1.6 0-2-.7-2-2.4-.1-7.6 10.6-7.1 10.6-12.8zm13.6 12.2l-2.5 6.1h-2.2l1.8-6.1h2.9zm7.1-1.7s2.1 2.4 5.3 2.4c2.3 0 4.2-1.6 4.2-3.8 0-2.3-2.1-3.7-4.5-3.7h-1.5l-.6-1.6 4.4-5.5c.6-.9 1.2-1.4 1.2-1.4v-.1s-.6.1-1.8.1h-4c-.4 0-.7.2-.7.7v1.3h-2.7v-2.6c0-1.3.5-1.9 1.8-1.9h11.1v1.9l-5.5 6.7c2.7.3 5.9 2.1 5.9 6.2 0 3.5-2.8 6.7-7.2 6.7l-6.9-2.9 1.5-2.5zm129.6 19.5h4.6V56.4h-.1s-.2.5-1 1.2l-2 1.9-1.8-1.8 5-4.9h2.7v18.4h4.6v2.6h-12.2v-2.5h.2zm21.4-.6l-2.5 6.1h-2.2l1.8-6.1h2.9zm5.6-6.2c0-5.5 2.9-12 9.4-12 2.5 0 4.1.9 4.1.9l-1 2.5s-1.3-.7-3-.7c-3.8 0-5.9 3.6-6.3 7.2h.1c.9-1.3 2.8-2.1 4.6-2.1 4 0 6.6 3 6.6 6.8 0 4.1-2.8 7-6.7 7-4.4.1-7.8-3.7-7.8-9.6zm7.8 7c2.4 0 3.9-1.9 3.9-4.3 0-2.5-1.6-4.3-4.3-4.3-2.3 0-4.3 1.4-4.3 2.9 0 2.6 2 5.7 4.7 5.7zm112.9-43.8c0-1.9-1.4-3.3-3.7-3.3-1.9 0-3.2 1-3.2 2v.9H830v-1.8c0-2.7 3.7-3.9 6.1-3.9 3.8 0 6.6 2.4 6.6 6 0 7.2-10.6 7.3-10.6 12.2 0 .4.2.6.7.6h7.5c.4 0 .7-.2.7-.7v-1.3h2.7V41c0 1.3-.6 1.9-1.9 1.9H831c-1.6 0-2-.7-2-2.4-.1-7.7 10.6-7.2 10.6-12.8zm13.6 12.1l-2.5 6.1h-2.2l1.8-6.1h2.9zm7.7.1s1.3.7 3 .7c3.8 0 5.9-3.6 6.3-7.2h-.1c-.9 1.3-2.8 2.1-4.6 2.1-4 0-6.6-3-6.6-6.8 0-4.1 2.8-7 6.7-7 4.5 0 7.8 3.8 7.8 9.7 0 5.5-2.9 12-9.4 12-2.5 0-4.1-.9-4.1-.9l1-2.6zm9.5-9.9c0-2.7-2-5.7-4.7-5.7-2.4 0-3.9 1.9-3.9 4.3 0 2.5 1.6 4.3 4.3 4.3 2.4 0 4.3-1.4 4.3-2.9zm-624.6 2.1s2.1 2.4 5.3 2.4c2.3 0 4.2-1.6 4.2-3.8 0-2.3-2.1-3.7-4.5-3.7h-1.5l-.6-1.6 4.4-5.5c.6-.9 1.2-1.4 1.2-1.4v-.1s-.6.1-1.8.1h-4c-.4 0-.7.2-.7.7v1.3h-2.7v-2.6c0-1.3.5-1.9 1.8-1.9H258v1.9l-5.5 6.7c2.7.3 5.9 2.1 5.9 6.2 0 3.5-2.8 6.7-7.2 6.7l-6.9-2.9 1.5-2.5z"/></svg>