<svg xmlns="http://www.w3.org/2000/svg" viewBox="0 0 404 106"><style>.st0{fill:#5565fb}</style><path class="st0" d="M325.8 102.5L178.5 55l-62.6-5.8h-.1L45.6 23 2.5 17.6l.1-.9L45.8 22h.1L116 48.3l62.6 5.8 147 47.5L399 67.8l.4.8-73.6 33.9zm-291.2-92h2.1V3.7s-.1.2-.5.6l-.9.9-.8-.8L36.8 2H38v8.5h2.1v1.2h-5.6l.1-1.2zm8.4-1s1 1.1 2.4 1.1c1.1 0 1.9-.7 1.9-1.8s-1-1.7-2.1-1.7h-.7l-.3-.7 2-2.5c.5-.5.8-.7.8-.7h-2.6c-.2 0-.3.1-.3.3v.6h-1.2V2.9c-.2-.6.1-.9.7-.9h5.1v.9L46.1 6c1.2.1 2.7 1 2.7 2.9 0 1.6-1.3 3.1-3.3 3.1l-3.2-1.3.7-1.2zM107.7 33h2.1v-6.9s-.1.2-.5.6l-.9.9-.8-.8 2.3-2.3h1.2V33h2.1v1.2h-5.6l.1-1.2zm8.3 0h2.1v-6.9s-.1.2-.5.6l-.9.9-.8-.8 2.3-2.3h1.2V33h2.1v1.2h-5.6l.1-1.2zm61.2 6.2h2.1v-6.9s-.1.2-.5.6l-.9.9-.8-.8 2.3-2.3h1.2v8.5h2.1v1.2h-5.6l.1-1.2zm7.9-3.6c0-2.8.8-5 3.4-5 2.6 0 3.4 2.2 3.4 5s-.8 5-3.4 5c-2.6 0-3.4-2.3-3.4-5zm5.5 0c0-2.1-.5-3.7-2-3.7-1.6 0-2 1.7-2 3.7 0 2.1.5 3.8 2 3.8 1.5-.1 2-1.7 2-3.8zm63.8 28.6s-1.2-.6-1.2-2c0-1.3 1.1-2.6 3-2.6 1.8 0 3 1.1 3 2.6 0 1.4-1.2 2.3-1.2 2.3.9.5 1.4 1.2 1.4 2.2 0 1.5-1.4 2.9-3.4 2.9-1.8 0-3.4-1.2-3.4-3 .2-1.5 1.8-2.4 1.8-2.4zm1.8 4.2c1 0 1.9-.7 1.9-1.6 0-.8-.7-1.2-1.6-1.6-.4-.1-.9-.4-1-.4-.3 0-1.3.8-1.3 1.8 0 1.1.9 1.8 2 1.8zm.7-4.4c.3 0 1-.8 1-1.7 0-.9-.7-1.4-1.7-1.4-1.1 0-1.7.6-1.7 1.4 0 .8.7 1.2 1.6 1.5l.8.2zM327 76.5c0-2.5 1.3-5.5 4.4-5.5 1.2 0 1.9.4 1.9.4l-.5 1.2s-.6-.3-1.4-.3c-1.8 0-2.7 1.7-2.9 3.3.4-.6 1.3-1 2.1-1 1.8 0 3 1.4 3 3.1 0 1.9-1.3 3.2-3.1 3.2-1.9.1-3.5-1.6-3.5-4.4zm3.6 3.3c1.1 0 1.8-.9 1.8-2 0-1.2-.7-2-2-2-1.1 0-1.9.6-1.9 1.3-.1 1.3.8 2.7 2.1 2.7zm66.1-24.2s.6.3 1.4.3c1.8 0 2.7-1.7 2.9-3.3-.4.6-1.3 1-2.1 1-1.8 0-3-1.4-3-3.1 0-1.9 1.3-3.2 3.1-3.2 2.1 0 3.6 1.8 3.6 4.5 0 2.5-1.3 5.5-4.3 5.5-1.2 0-1.9-.4-1.9-.4l.3-1.3zm4.4-4.6c0-1.2-.9-2.6-2.2-2.6-1.1 0-1.8.9-1.8 2 0 1.2.7 2 2 2 1.1 0 2-.7 2-1.4z"/></svg>