<svg xmlns="http://www.w3.org/2000/svg" viewBox="0 0 500 336"><style>.st0{fill:#00295a}.st1{fill:#00245b}.st2{fill:#4e5594}.st3{fill:#5565fb}</style><path class="st0" d="M499.8 249.9h-496.1c-2.1 0-3.7-1.7-3.7-3.7v-246c0-.1.1-.2.2-.2s.2.1.2.2v245.9c0 1.8 1.5 3.3 3.3 3.3h496.1c.1 0 .2.1.2.2 0 .2-.1.3-.2.3zm-23.3-214.1c0-.2.2-.4.4-.4.3 0 .4.2.4.4s-.2.4-.4.4c-.3.1-.4-.2-.4-.4zm-4.1 0c0-.2.2-.4.4-.4.3 0 .4.2.4.4s-.2.4-.4.4c-.2.1-.4-.2-.4-.4zm-4 0c0-.2.2-.4.4-.4s.4.2.4.4-.2.4-.4.4c-.2.1-.4-.2-.4-.4zm-4 0c0-.2.2-.4.4-.4.3 0 .4.2.4.4s-.2.4-.4.4c-.3.1-.4-.2-.4-.4zm-4.1 0c0-.2.2-.4.4-.4s.4.2.4.4-.2.4-.4.4c-.2.1-.4-.2-.4-.4zm-4 0c0-.2.2-.4.4-.4s.4.2.4.4-.2.4-.4.4c-.2.1-.4-.2-.4-.4zm-4 0c0-.2.2-.4.4-.4s.4.2.4.4-.2.4-.4.4c-.2.1-.4-.2-.4-.4zm-4 0c0-.2.2-.4.4-.4s.4.2.4.4-.2.4-.4.4c-.3.1-.4-.2-.4-.4zm-4.1 0c0-.2.2-.4.4-.4.3 0 .4.2.4.4s-.2.4-.4.4c-.2.1-.4-.2-.4-.4zm-4 0c0-.2.2-.4.4-.4s.4.2.4.4-.2.4-.4.4c-.2.1-.4-.2-.4-.4zm-4 0c0-.2.2-.4.4-.4s.4.2.4.4-.2.4-.4.4c-.3.1-.4-.2-.4-.4zm-4.1 0c0-.2.2-.4.4-.4.3 0 .4.2.4.4s-.2.4-.4.4c-.2.1-.4-.2-.4-.4zm-4 0c0-.2.2-.4.4-.4s.4.2.4.4-.2.4-.4.4c-.2.1-.4-.2-.4-.4zm-4 0c0-.2.2-.4.4-.4.3 0 .4.2.4.4s-.2.4-.4.4c-.2.1-.4-.2-.4-.4zm-4 0c0-.2.2-.4.4-.4s.4.2.4.4-.2.4-.4.4-.4-.2-.4-.4zm-4.1 0c0-.2.2-.4.4-.4s.4.2.4.4-.2.4-.4.4c-.2.1-.4-.2-.4-.4zm-4 0c0-.2.2-.4.4-.4.3 0 .4.2.4.4s-.2.4-.4.4c-.2.1-.4-.2-.4-.4zm-4 0c0-.2.2-.4.4-.4s.4.2.4.4-.2.4-.4.4c-.3.1-.4-.2-.4-.4zm-4.1 0c0-.2.2-.4.4-.4.3 0 .4.2.4.4s-.2.4-.4.4c-.2.1-.4-.2-.4-.4zm-4 0c0-.2.2-.4.4-.4.3 0 .4.2.4.4s-.2.4-.4.4c-.2.1-.4-.2-.4-.4zm-4 0c0-.2.2-.4.4-.4s.4.2.4.4-.2.4-.4.4c-.2.1-.4-.2-.4-.4zm-4 0c0-.2.2-.4.4-.4.3 0 .4.2.4.4s-.2.4-.4.4c-.3.1-.4-.2-.4-.4zm-4.1 0c0-.2.2-.4.4-.4s.4.2.4.4-.2.4-.4.4-.4-.2-.4-.4zm-4 0c0-.2.2-.4.4-.4.3 0 .4.2.4.4s-.2.4-.4.4c-.2.1-.4-.2-.4-.4zm-4 0c0-.2.2-.4.4-.4.3 0 .4.2.4.4s-.2.4-.4.4c-.3.1-.4-.2-.4-.4zm-4.1 0c0-.2.2-.4.4-.4s.4.2.4.4-.2.4-.4.4c-.2.1-.4-.2-.4-.4zm-4 0c0-.2.2-.4.4-.4s.4.2.4.4-.2.4-.4.4c-.2.1-.4-.2-.4-.4zm-4 0c0-.2.2-.4.4-.4s.4.2.4.4-.2.4-.4.4c-.2.1-.4-.2-.4-.4zm-4 0c0-.2.2-.4.4-.4.3 0 .4.2.4.4s-.2.4-.4.4c-.3.1-.4-.2-.4-.4zm-4.1 0c0-.2.2-.4.4-.4.3 0 .4.2.4.4s-.2.4-.4.4c-.2.1-.4-.2-.4-.4zm-4 0c0-.2.2-.4.4-.4s.4.2.4.4-.2.4-.4.4-.4-.2-.4-.4zm-4 0c0-.2.2-.4.4-.4.3 0 .4.2.4.4s-.2.4-.4.4c-.3.1-.4-.2-.4-.4zm-4.1 0c0-.2.2-.4.4-.4s.4.2.4.4-.2.4-.4.4c-.2.1-.4-.2-.4-.4zm-4 0c0-.2.2-.4.4-.4.3 0 .4.2.4.4s-.2.4-.4.4c-.2.1-.4-.2-.4-.4zm-4 0c0-.2.2-.4.4-.4s.4.2.4.4-.2.4-.4.4-.4-.2-.4-.4zm-4 0c0-.2.2-.4.4-.4s.4.2.4.4-.2.4-.4.4c-.3.1-.4-.2-.4-.4zm-4.1 0c0-.2.2-.4.4-.4.3 0 .4.2.4.4s-.2.4-.4.4c-.2.1-.4-.2-.4-.4zm-4 0c0-.2.2-.4.4-.4s.4.2.4.4-.2.4-.4.4c-.2.1-.4-.2-.4-.4zm-4 0c0-.2.2-.4.4-.4.3 0 .4.2.4.4s-.2.4-.4.4c-.3.1-.4-.2-.4-.4zm-4.1 0c0-.2.2-.4.4-.4.3 0 .4.2.4.4s-.2.4-.4.4c-.2.1-.4-.2-.4-.4zm-4 0c0-.2.2-.4.4-.4s.4.2.4.4-.2.4-.4.4c-.2.1-.4-.2-.4-.4zm-4 0c0-.2.2-.4.4-.4s.4.2.4.4-.2.4-.4.4c-.2.1-.4-.2-.4-.4zm-4 0c0-.2.2-.4.4-.4s.4.2.4.4-.2.4-.4.4c-.3.1-.4-.2-.4-.4zm-4.1 0c0-.2.2-.4.4-.4s.4.2.4.4-.2.4-.4.4c-.2.1-.4-.2-.4-.4zm-4 0c0-.2.2-.4.4-.4.3 0 .4.2.4.4s-.2.4-.4.4c-.2.1-.4-.2-.4-.4zm-4 0c0-.2.2-.4.4-.4s.4.2.4.4-.2.4-.4.4c-.3.1-.4-.2-.4-.4zm-4.1 0c0-.2.2-.4.4-.4s.4.2.4.4-.2.4-.4.4c-.2.1-.4-.2-.4-.4zm-4 0c0-.2.2-.4.4-.4s.4.2.4.4-.2.4-.4.4c-.2.1-.4-.2-.4-.4zm-4 0c0-.2.2-.4.4-.4s.4.2.4.4-.2.4-.4.4c-.2.1-.4-.2-.4-.4zm-4 0c0-.2.2-.4.4-.4.3 0 .4.2.4.4s-.2.4-.4.4c-.3.1-.4-.2-.4-.4zm-4.1 0c0-.2.2-.4.4-.4s.4.2.4.4-.2.4-.4.4-.4-.2-.4-.4zm-4 0c0-.2.2-.4.4-.4s.4.2.4.4-.2.4-.4.4c-.2.1-.4-.2-.4-.4zm-4 0c0-.2.2-.4.4-.4s.4.2.4.4-.2.4-.4.4c-.3.1-.4-.2-.4-.4zm-4.1 0c0-.2.2-.4.4-.4s.4.2.4.4-.2.4-.4.4c-.2.1-.4-.2-.4-.4zm-4 0c0-.2.2-.4.4-.4s.4.2.4.4-.2.4-.4.4c-.2.1-.4-.2-.4-.4zm-4 0c0-.2.2-.4.4-.4s.4.2.4.4-.2.4-.4.4c-.2.1-.4-.2-.4-.4zm-4 0c0-.2.2-.4.4-.4s.4.2.4.4-.2.4-.4.4c-.3.1-.4-.2-.4-.4zm-4.1 0c0-.2.2-.4.4-.4s.4.2.4.4-.2.4-.4.4c-.2.1-.4-.2-.4-.4zm-4 0c0-.2.2-.4.4-.4s.4.2.4.4-.2.4-.4.4c-.2.1-.4-.2-.4-.4zm-4 0c0-.2.2-.4.4-.4.3 0 .4.2.4.4s-.2.4-.4.4c-.3.1-.4-.2-.4-.4zm-4.1 0c0-.2.2-.4.4-.4s.4.2.4.4-.2.4-.4.4-.4-.2-.4-.4zm-4 0c0-.2.2-.4.4-.4s.4.2.4.4-.2.4-.4.4c-.2.1-.4-.2-.4-.4zm-4 0c0-.2.2-.4.4-.4s.4.2.4.4-.2.4-.4.4c-.2.1-.4-.2-.4-.4zm-4 0c0-.2.2-.4.4-.4s.4.2.4.4-.2.4-.4.4c-.3.1-.4-.2-.4-.4zm-4.1 0c0-.2.2-.4.4-.4.3 0 .4.2.4.4s-.2.4-.4.4c-.2.1-.4-.2-.4-.4zm-4 0c0-.2.2-.4.4-.4s.4.2.4.4-.2.4-.4.4c-.2.1-.4-.2-.4-.4zm-4 0c0-.2.2-.4.4-.4s.4.2.4.4-.2.4-.4.4c-.3.1-.4-.2-.4-.4zm-4.1 0c0-.2.2-.4.4-.4s.4.2.4.4-.2.4-.4.4c-.2.1-.4-.2-.4-.4zm-4 0c0-.2.2-.4.4-.4s.4.2.4.4-.2.4-.4.4c-.2.1-.4-.2-.4-.4zm-4 0c0-.2.2-.4.4-.4.3 0 .4.2.4.4s-.2.4-.4.4c-.2.1-.4-.2-.4-.4zm-4.1 0c0-.2.2-.4.4-.4s.4.2.4.4-.2.4-.4.4c-.2.1-.4-.2-.4-.4zm-4 0c0-.2.2-.4.4-.4s.4.2.4.4-.2.4-.4.4c-.2.1-.4-.2-.4-.4zm-4 0c0-.2.2-.4.4-.4s.4.2.4.4-.2.4-.4.4c-.2.1-.4-.2-.4-.4zm-4 0c0-.2.2-.4.4-.4s.4.2.4.4-.2.4-.4.4c-.3.1-.4-.2-.4-.4zm-4.1 0c0-.2.2-.4.4-.4s.4.2.4.4-.2.4-.4.4c-.2.1-.4-.2-.4-.4zm-4 0c0-.2.2-.4.4-.4s.4.2.4.4-.2.4-.4.4c-.2.1-.4-.2-.4-.4zm-4 0c0-.2.2-.4.4-.4s.4.2.4.4-.2.4-.4.4c-.2.1-.4-.2-.4-.4zm-4.1 0c0-.2.2-.4.4-.4s.4.2.4.4-.2.4-.4.4c-.2.1-.4-.2-.4-.4zm-4 0c0-.2.2-.4.4-.4s.4.2.4.4-.2.4-.4.4c-.2.1-.4-.2-.4-.4zm-4 0c0-.2.2-.4.4-.4s.4.2.4.4-.2.4-.4.4c-.2.1-.4-.2-.4-.4zm-4 0c0-.2.2-.4.4-.4s.4.2.4.4-.2.4-.4.4c-.3.1-.4-.2-.4-.4zm-4.1 0c0-.2.2-.4.4-.4s.4.2.4.4-.2.4-.4.4c-.2.1-.4-.2-.4-.4zm-4 0c0-.2.2-.4.4-.4s.4.2.4.4-.2.4-.4.4c-.2.1-.4-.2-.4-.4zm-4 0c0-.2.2-.4.4-.4s.4.2.4.4-.2.4-.4.4c-.2.1-.4-.2-.4-.4zm-4.1 0c0-.2.2-.4.4-.4s.4.2.4.4-.2.4-.4.4c-.2.1-.4-.2-.4-.4zm-4 0c0-.2.2-.4.4-.4s.4.2.4.4-.2.4-.4.4c-.2.1-.4-.2-.4-.4zm-4 0c0-.2.2-.4.4-.4s.4.2.4.4-.2.4-.4.4c-.2.1-.4-.2-.4-.4zm-4 0c0-.2.2-.4.4-.4s.4.2.4.4-.2.4-.4.4c-.3.1-.4-.2-.4-.4zm-4.1 0c0-.2.2-.4.4-.4s.4.2.4.4-.2.4-.4.4c-.2.1-.4-.2-.4-.4zm-4 0c0-.2.2-.4.4-.4s.4.2.4.4-.2.4-.4.4c-.2.1-.4-.2-.4-.4zm-4 0c0-.2.2-.4.4-.4s.4.2.4.4-.2.4-.4.4c-.2.1-.4-.2-.4-.4zm-4.1 0c0-.2.2-.4.4-.4s.4.2.4.4-.2.4-.4.4c-.2.1-.4-.2-.4-.4zm-4 0c0-.2.2-.4.4-.4s.4.2.4.4-.2.4-.4.4c-.2.1-.4-.2-.4-.4zm-4 0c0-.2.2-.4.4-.4s.4.2.4.4-.2.4-.4.4c-.2.1-.4-.2-.4-.4zm-4 0c0-.2.2-.4.4-.4s.4.2.4.4-.2.4-.4.4c-.3.1-.4-.2-.4-.4zm-4.1 0c0-.2.2-.4.4-.4s.4.2.4.4-.2.4-.4.4c-.2.1-.4-.2-.4-.4zm-4 0c0-.2.2-.4.4-.4s.4.2.4.4-.2.4-.4.4c-.2.1-.4-.2-.4-.4zm-4 0c0-.2.2-.4.4-.4s.4.2.4.4-.2.4-.4.4c-.2.1-.4-.2-.4-.4zm-4.1 0c0-.2.2-.4.4-.4s.4.2.4.4-.2.4-.4.4c-.2.1-.4-.2-.4-.4zm-4 0c0-.2.2-.4.4-.4s.4.2.4.4-.2.4-.4.4c-.2.1-.4-.2-.4-.4zm-4 0c0-.2.2-.4.4-.4s.4.2.4.4-.2.4-.4.4c-.2.1-.4-.2-.4-.4zm-4 0c0-.2.2-.4.4-.4s.4.2.4.4-.2.4-.4.4c-.3.1-.4-.2-.4-.4zm-4.1 0c0-.2.2-.4.4-.4s.4.2.4.4-.2.4-.4.4c-.2.1-.4-.2-.4-.4zm-4 0c0-.2.2-.4.4-.4s.4.2.4.4-.2.4-.4.4c-.2.1-.4-.2-.4-.4zm-4 0c0-.2.2-.4.4-.4s.4.2.4.4-.2.4-.4.4c-.2.1-.4-.2-.4-.4zm-4.1 0c0-.2.2-.4.4-.4s.4.2.4.4-.2.4-.4.4c-.2.1-.4-.2-.4-.4zm-4 0c0-.2.2-.4.4-.4s.4.2.4.4-.2.4-.4.4c-.2.1-.4-.2-.4-.4zm-4 0c0-.2.2-.4.4-.4s.4.2.4.4-.2.4-.4.4c-.2.1-.4-.2-.4-.4zm-4 0c0-.2.2-.4.4-.4s.4.2.4.4-.2.4-.4.4c-.3.1-.4-.2-.4-.4zm-4.1 0c0-.2.2-.4.4-.4s.4.2.4.4-.2.4-.4.4c-.2.1-.4-.2-.4-.4zm-4 0c0-.2.2-.4.4-.4.3 0 .4.2.4.4s-.2.4-.4.4c-.2.1-.4-.2-.4-.4zm443.2 55.1c0-.2.2-.4.4-.4.3 0 .4.2.4.4s-.2.4-.4.4c-.3.1-.4-.2-.4-.4zm-4.1 0c0-.2.2-.4.4-.4.3 0 .4.2.4.4s-.2.4-.4.4c-.2.1-.4-.2-.4-.4zm-4 0c0-.2.2-.4.4-.4s.4.2.4.4-.2.4-.4.4c-.2.1-.4-.2-.4-.4zm-4 0c0-.2.2-.4.4-.4s.4.2.4.4-.2.4-.4.4c-.3.1-.4-.2-.4-.4zm-4.1 0c0-.2.2-.4.4-.4.3 0 .4.2.4.4s-.2.4-.4.4c-.2.1-.4-.2-.4-.4zm-4 0c0-.2.2-.4.4-.4.3 0 .4.2.4.4s-.2.4-.4.4c-.2.1-.4-.2-.4-.4zm-4 0c0-.2.2-.4.4-.4s.4.2.4.4-.2.4-.4.4c-.2.1-.4-.2-.4-.4zm-4 0c0-.2.2-.4.4-.4s.4.2.4.4-.2.4-.4.4c-.3.1-.4-.2-.4-.4zm-4.1 0c0-.2.2-.4.4-.4.3 0 .4.2.4.4s-.2.4-.4.4c-.2.1-.4-.2-.4-.4zm-4 0c0-.2.2-.4.4-.4.3 0 .4.2.4.4s-.2.4-.4.4c-.2.1-.4-.2-.4-.4zm-4 0c0-.2.2-.4.4-.4.3 0 .4.2.4.4s-.2.4-.4.4c-.3.1-.4-.2-.4-.4zm-4.1 0c0-.2.2-.4.4-.4s.4.2.4.4-.2.4-.4.4c-.2.1-.4-.2-.4-.4zm-4 0c0-.2.2-.4.4-.4s.4.2.4.4-.2.4-.4.4c-.2.1-.4-.2-.4-.4zm-4 0c0-.2.2-.4.4-.4.3 0 .4.2.4.4s-.2.4-.4.4c-.2.1-.4-.2-.4-.4zm-4 0c0-.2.2-.4.4-.4.3 0 .4.2.4.4s-.2.4-.4.4c-.3.1-.4-.2-.4-.4zm-4.1 0c0-.2.2-.4.4-.4s.4.2.4.4-.2.4-.4.4c-.2.1-.4-.2-.4-.4zm-4 0c0-.2.2-.4.4-.4s.4.2.4.4-.2.4-.4.4c-.2.1-.4-.2-.4-.4zm-4 0c0-.2.2-.4.4-.4.3 0 .4.2.4.4s-.2.4-.4.4c-.3.1-.4-.2-.4-.4zm-4.1 0c0-.2.2-.4.4-.4.3 0 .4.2.4.4s-.2.4-.4.4-.4-.2-.4-.4zm-4 0c0-.2.2-.4.4-.4.3 0 .4.2.4.4s-.2.4-.4.4c-.2.1-.4-.2-.4-.4zm-4 0c0-.2.2-.4.4-.4s.4.2.4.4-.2.4-.4.4c-.2.1-.4-.2-.4-.4zm-4 0c0-.2.2-.4.4-.4s.4.2.4.4-.2.4-.4.4c-.3.1-.4-.2-.4-.4zm-4.1 0c0-.2.2-.4.4-.4s.4.2.4.4-.2.4-.4.4-.4-.2-.4-.4zm-4 0c0-.2.2-.4.4-.4.3 0 .4.2.4.4s-.2.4-.4.4c-.2.1-.4-.2-.4-.4zm-4 0c0-.2.2-.4.4-.4s.4.2.4.4-.2.4-.4.4c-.3.1-.4-.2-.4-.4zm-4.1 0c0-.2.2-.4.4-.4s.4.2.4.4-.2.4-.4.4c-.2.1-.4-.2-.4-.4zm-4 0c0-.2.2-.4.4-.4s.4.2.4.4-.2.4-.4.4-.4-.2-.4-.4zm-4 0c0-.2.2-.4.4-.4.3 0 .4.2.4.4s-.2.4-.4.4c-.2.1-.4-.2-.4-.4zm-4 0c0-.2.2-.4.4-.4.3 0 .4.2.4.4s-.2.4-.4.4c-.3.1-.4-.2-.4-.4zm-4.1 0c0-.2.2-.4.4-.4s.4.2.4.4-.2.4-.4.4c-.2.1-.4-.2-.4-.4zm-4 0c0-.2.2-.4.4-.4s.4.2.4.4-.2.4-.4.4-.4-.2-.4-.4zm-4 0c0-.2.2-.4.4-.4.3 0 .4.2.4.4s-.2.4-.4.4c-.3.1-.4-.2-.4-.4zm-4.1 0c0-.2.2-.4.4-.4.3 0 .4.2.4.4s-.2.4-.4.4c-.2.1-.4-.2-.4-.4zm-4 0c0-.2.2-.4.4-.4s.4.2.4.4-.2.4-.4.4c-.2.1-.4-.2-.4-.4zm-4 0c0-.2.2-.4.4-.4s.4.2.4.4-.2.4-.4.4c-.2.1-.4-.2-.4-.4zm-4 0c0-.2.2-.4.4-.4.3 0 .4.2.4.4s-.2.4-.4.4c-.3.1-.4-.2-.4-.4zm-4.1 0c0-.2.2-.4.4-.4.3 0 .4.2.4.4s-.2.4-.4.4c-.2.1-.4-.2-.4-.4zm-4 0c0-.2.2-.4.4-.4.3 0 .4.2.4.4s-.2.4-.4.4c-.2.1-.4-.2-.4-.4zm-4 0c0-.2.2-.4.4-.4s.4.2.4.4-.2.4-.4.4c-.3.1-.4-.2-.4-.4zm-4.1 0c0-.2.2-.4.4-.4s.4.2.4.4-.2.4-.4.4c-.2.1-.4-.2-.4-.4zm-4 0c0-.2.2-.4.4-.4.3 0 .4.2.4.4s-.2.4-.4.4c-.2.1-.4-.2-.4-.4zm-4 0c0-.2.2-.4.4-.4s.4.2.4.4-.2.4-.4.4c-.2.1-.4-.2-.4-.4zm-4 0c0-.2.2-.4.4-.4s.4.2.4.4-.2.4-.4.4c-.3.1-.4-.2-.4-.4zm-4.1 0c0-.2.2-.4.4-.4s.4.2.4.4-.2.4-.4.4c-.2.1-.4-.2-.4-.4zm-4 0c0-.2.2-.4.4-.4.3 0 .4.2.4.4s-.2.4-.4.4c-.2.1-.4-.2-.4-.4zm-4 0c0-.2.2-.4.4-.4s.4.2.4.4-.2.4-.4.4c-.3.1-.4-.2-.4-.4zm-4.1 0c0-.2.2-.4.4-.4s.4.2.4.4-.2.4-.4.4c-.2.1-.4-.2-.4-.4zm-4 0c0-.2.2-.4.4-.4s.4.2.4.4-.2.4-.4.4c-.2.1-.4-.2-.4-.4zm-4 0c0-.2.2-.4.4-.4s.4.2.4.4-.2.4-.4.4c-.2.1-.4-.2-.4-.4zm-4 0c0-.2.2-.4.4-.4.3 0 .4.2.4.4s-.2.4-.4.4c-.3.1-.4-.2-.4-.4zm-4.1 0c0-.2.2-.4.4-.4s.4.2.4.4-.2.4-.4.4c-.2.1-.4-.2-.4-.4zm-4 0c0-.2.2-.4.4-.4s.4.2.4.4-.2.4-.4.4c-.2.1-.4-.2-.4-.4zm-4 0c0-.2.2-.4.4-.4s.4.2.4.4-.2.4-.4.4c-.3.1-.4-.2-.4-.4zm-4.1 0c0-.2.2-.4.4-.4.3 0 .4.2.4.4s-.2.4-.4.4c-.2.1-.4-.2-.4-.4zm-4 0c0-.2.2-.4.4-.4s.4.2.4.4-.2.4-.4.4c-.2.1-.4-.2-.4-.4zm-4 0c0-.2.2-.4.4-.4s.4.2.4.4-.2.4-.4.4c-.2.1-.4-.2-.4-.4zm-4 0c0-.2.2-.4.4-.4s.4.2.4.4-.2.4-.4.4c-.3.1-.4-.2-.4-.4zm-4.1 0c0-.2.2-.4.4-.4s.4.2.4.4-.2.4-.4.4c-.2.1-.4-.2-.4-.4zm-4 0c0-.2.2-.4.4-.4s.4.2.4.4-.2.4-.4.4c-.2.1-.4-.2-.4-.4zm-4 0c0-.2.2-.4.4-.4s.4.2.4.4-.2.4-.4.4c-.3.1-.4-.2-.4-.4zm-4.1 0c0-.2.2-.4.4-.4s.4.2.4.4-.2.4-.4.4c-.2.1-.4-.2-.4-.4zm-4 0c0-.2.2-.4.4-.4s.4.2.4.4-.2.4-.4.4c-.2.1-.4-.2-.4-.4zm-4 0c0-.2.2-.4.4-.4.3 0 .4.2.4.4s-.2.4-.4.4c-.2.1-.4-.2-.4-.4zm-4 0c0-.2.2-.4.4-.4s.4.2.4.4-.2.4-.4.4c-.3.1-.4-.2-.4-.4zm-4.1 0c0-.2.2-.4.4-.4s.4.2.4.4-.2.4-.4.4c-.2.1-.4-.2-.4-.4zm-4 0c0-.2.2-.4.4-.4s.4.2.4.4-.2.4-.4.4c-.2.1-.4-.2-.4-.4zm-4 0c0-.2.2-.4.4-.4s.4.2.4.4-.2.4-.4.4c-.3.1-.4-.2-.4-.4zm-4.1 0c0-.2.2-.4.4-.4.3 0 .4.2.4.4s-.2.4-.4.4c-.2.1-.4-.2-.4-.4zm-4 0c0-.2.2-.4.4-.4s.4.2.4.4-.2.4-.4.4c-.2.1-.4-.2-.4-.4zm-4 0c0-.2.2-.4.4-.4s.4.2.4.4-.2.4-.4.4c-.2.1-.4-.2-.4-.4zm-4.1 0c0-.2.2-.4.4-.4s.4.2.4.4-.2.4-.4.4c-.2.1-.4-.2-.4-.4zm-4 0c0-.2.2-.4.4-.4.3 0 .4.2.4.4s-.2.4-.4.4c-.2.1-.4-.2-.4-.4zm-4 0c0-.2.2-.4.4-.4s.4.2.4.4-.2.4-.4.4c-.2.1-.4-.2-.4-.4zm-4 0c0-.2.2-.4.4-.4s.4.2.4.4-.2.4-.4.4c-.3.1-.4-.2-.4-.4zm-4.1 0c0-.2.2-.4.4-.4s.4.2.4.4-.2.4-.4.4c-.2.1-.4-.2-.4-.4zm-4 0c0-.2.2-.4.4-.4s.4.2.4.4-.2.4-.4.4c-.2.1-.4-.2-.4-.4zm-4 0c0-.2.2-.4.4-.4s.4.2.4.4-.2.4-.4.4c-.2.1-.4-.2-.4-.4zm-4.1 0c0-.2.2-.4.4-.4s.4.2.4.4-.2.4-.4.4c-.2.1-.4-.2-.4-.4zm-4 0c0-.2.2-.4.4-.4s.4.2.4.4-.2.4-.4.4c-.2.1-.4-.2-.4-.4zm-4 0c0-.2.2-.4.4-.4s.4.2.4.4-.2.4-.4.4c-.2.1-.4-.2-.4-.4zm-4 0c0-.2.2-.4.4-.4s.4.2.4.4-.2.4-.4.4c-.3.1-.4-.2-.4-.4zm-4.1 0c0-.2.2-.4.4-.4s.4.2.4.4-.2.4-.4.4c-.2.1-.4-.2-.4-.4zm-4 0c0-.2.2-.4.4-.4s.4.2.4.4-.2.4-.4.4c-.2.1-.4-.2-.4-.4zm-4 0c0-.2.2-.4.4-.4s.4.2.4.4-.2.4-.4.4c-.2.1-.4-.2-.4-.4zm-4.1 0c0-.2.2-.4.4-.4s.4.2.4.4-.2.4-.4.4c-.2.1-.4-.2-.4-.4zm-4 0c0-.2.2-.4.4-.4s.4.2.4.4-.2.4-.4.4c-.2.1-.4-.2-.4-.4zm-4 0c0-.2.2-.4.4-.4s.4.2.4.4-.2.4-.4.4c-.2.1-.4-.2-.4-.4zm-4 0c0-.2.2-.4.4-.4s.4.2.4.4-.2.4-.4.4c-.3.1-.4-.2-.4-.4zm-4.1 0c0-.2.2-.4.4-.4s.4.2.4.4-.2.4-.4.4c-.2.1-.4-.2-.4-.4zm-4 0c0-.2.2-.4.4-.4s.4.2.4.4-.2.4-.4.4c-.2.1-.4-.2-.4-.4zm-4 0c0-.2.2-.4.4-.4s.4.2.4.4-.2.4-.4.4c-.2.1-.4-.2-.4-.4zm-4.1 0c0-.2.2-.4.4-.4s.4.2.4.4-.2.4-.4.4c-.2.1-.4-.2-.4-.4zm-4 0c0-.2.2-.4.4-.4s.4.2.4.4-.2.4-.4.4c-.2.1-.4-.2-.4-.4zm-4 0c0-.2.2-.4.4-.4s.4.2.4.4-.2.4-.4.4c-.2.1-.4-.2-.4-.4zm-4 0c0-.2.2-.4.4-.4s.4.2.4.4-.2.4-.4.4c-.3.1-.4-.2-.4-.4zm-4.1 0c0-.2.2-.4.4-.4s.4.2.4.4-.2.4-.4.4c-.2.1-.4-.2-.4-.4zm-4 0c0-.2.2-.4.4-.4s.4.2.4.4-.2.4-.4.4c-.2.1-.4-.2-.4-.4zm-4 0c0-.2.2-.4.4-.4s.4.2.4.4-.2.4-.4.4c-.2.1-.4-.2-.4-.4zm-4.1 0c0-.2.2-.4.4-.4s.4.2.4.4-.2.4-.4.4c-.2.1-.4-.2-.4-.4zm-4 0c0-.2.2-.4.4-.4s.4.2.4.4-.2.4-.4.4c-.2.1-.4-.2-.4-.4zm-4 0c0-.2.2-.4.4-.4s.4.2.4.4-.2.4-.4.4c-.2.1-.4-.2-.4-.4zm-4 0c0-.2.2-.4.4-.4s.4.2.4.4-.2.4-.4.4c-.3.1-.4-.2-.4-.4zm-4.1 0c0-.2.2-.4.4-.4s.4.2.4.4-.2.4-.4.4c-.2.1-.4-.2-.4-.4zm-4 0c0-.2.2-.4.4-.4s.4.2.4.4-.2.4-.4.4c-.2.1-.4-.2-.4-.4zm-4 0c0-.2.2-.4.4-.4s.4.2.4.4-.2.4-.4.4c-.2.1-.4-.2-.4-.4zm-4.1 0c0-.2.2-.4.4-.4s.4.2.4.4-.2.4-.4.4c-.2.1-.4-.2-.4-.4zm-4 0c0-.2.2-.4.4-.4s.4.2.4.4-.2.4-.4.4c-.2.1-.4-.2-.4-.4zm-4 0c0-.2.2-.4.4-.4s.4.2.4.4-.2.4-.4.4c-.2.1-.4-.2-.4-.4zm-4 0c0-.2.2-.4.4-.4s.4.2.4.4-.2.4-.4.4c-.3.1-.4-.2-.4-.4zm-4.1 0c0-.2.2-.4.4-.4s.4.2.4.4-.2.4-.4.4c-.2.1-.4-.2-.4-.4zm-4 0c0-.2.2-.4.4-.4.3 0 .4.2.4.4s-.2.4-.4.4c-.2.1-.4-.2-.4-.4zm443.2 55.5c0-.2.2-.4.4-.4.3 0 .4.2.4.4 0 .3-.2.4-.4.4-.3 0-.4-.2-.4-.4zm-4.1 0c0-.2.2-.4.4-.4.3 0 .4.2.4.4 0 .3-.2.4-.4.4s-.4-.2-.4-.4zm-4 0c0-.2.2-.4.4-.4.3 0 .4.2.4.4 0 .3-.2.4-.4.4s-.4-.2-.4-.4zm-4 0c0-.2.2-.4.4-.4.3 0 .4.2.4.4 0 .3-.2.4-.4.4-.3 0-.4-.2-.4-.4zm-4.1 0c0-.2.2-.4.4-.4.3 0 .4.2.4.4 0 .3-.2.4-.4.4s-.4-.2-.4-.4zm-4 0c0-.2.2-.4.4-.4s.4.2.4.4c0 .3-.2.4-.4.4s-.4-.2-.4-.4zm-4 0c0-.2.2-.4.4-.4.3 0 .4.2.4.4 0 .3-.2.4-.4.4s-.4-.2-.4-.4zm-4 0c0-.2.2-.4.4-.4s.4.2.4.4c0 .3-.2.4-.4.4-.3 0-.4-.2-.4-.4zm-4.1 0c0-.2.2-.4.4-.4.3 0 .4.2.4.4 0 .3-.2.4-.4.4s-.4-.2-.4-.4zm-4 0c0-.2.2-.4.4-.4s.4.2.4.4c0 .3-.2.4-.4.4s-.4-.2-.4-.4zm-4 0c0-.2.2-.4.4-.4.3 0 .4.2.4.4 0 .3-.2.4-.4.4s-.4-.2-.4-.4zm-4.1 0c0-.2.2-.4.4-.4s.4.2.4.4c0 .3-.2.4-.4.4s-.4-.2-.4-.4zm-4 0c0-.2.2-.4.4-.4.3 0 .4.2.4.4 0 .3-.2.4-.4.4s-.4-.2-.4-.4zm-4 0c0-.2.2-.4.4-.4s.4.2.4.4c0 .3-.2.4-.4.4s-.4-.2-.4-.4zm-4 0c0-.2.2-.4.4-.4s.4.2.4.4c0 .3-.2.4-.4.4s-.4-.2-.4-.4zm-4.1 0c0-.2.2-.4.4-.4s.4.2.4.4c0 .3-.2.4-.4.4s-.4-.2-.4-.4zm-4 0c0-.2.2-.4.4-.4s.4.2.4.4c0 .3-.2.4-.4.4s-.4-.2-.4-.4zm-4 0c0-.2.2-.4.4-.4.3 0 .4.2.4.4 0 .3-.2.4-.4.4-.3 0-.4-.2-.4-.4zm-4.1 0c0-.2.2-.4.4-.4s.4.2.4.4c0 .3-.2.4-.4.4s-.4-.2-.4-.4zm-4 0c0-.2.2-.4.4-.4.3 0 .4.2.4.4 0 .3-.2.4-.4.4s-.4-.2-.4-.4zm-4 0c0-.2.2-.4.4-.4s.4.2.4.4c0 .3-.2.4-.4.4s-.4-.2-.4-.4zm-4 0c0-.2.2-.4.4-.4.3 0 .4.2.4.4 0 .3-.2.4-.4.4-.3 0-.4-.2-.4-.4zm-4.1 0c0-.2.2-.4.4-.4s.4.2.4.4c0 .3-.2.4-.4.4s-.4-.2-.4-.4zm-4 0c0-.2.2-.4.4-.4.3 0 .4.2.4.4 0 .3-.2.4-.4.4s-.4-.2-.4-.4zm-4 0c0-.2.2-.4.4-.4s.4.2.4.4c0 .3-.2.4-.4.4-.3 0-.4-.2-.4-.4zm-4.1 0c0-.2.2-.4.4-.4.3 0 .4.2.4.4 0 .3-.2.4-.4.4s-.4-.2-.4-.4zm-4 0c0-.2.2-.4.4-.4s.4.2.4.4c0 .3-.2.4-.4.4s-.4-.2-.4-.4zm-4 0c0-.2.2-.4.4-.4.3 0 .4.2.4.4 0 .3-.2.4-.4.4s-.4-.2-.4-.4zm-4 0c0-.2.2-.4.4-.4.3 0 .4.2.4.4 0 .3-.2.4-.4.4-.3 0-.4-.2-.4-.4zm-4.1 0c0-.2.2-.4.4-.4s.4.2.4.4c0 .3-.2.4-.4.4s-.4-.2-.4-.4zm-4 0c0-.2.2-.4.4-.4.3 0 .4.2.4.4 0 .3-.2.4-.4.4s-.4-.2-.4-.4zm-4 0c0-.2.2-.4.4-.4s.4.2.4.4c0 .3-.2.4-.4.4-.3 0-.4-.2-.4-.4zm-4.1 0c0-.2.2-.4.4-.4.3 0 .4.2.4.4 0 .3-.2.4-.4.4s-.4-.2-.4-.4zm-4 0c0-.2.2-.4.4-.4s.4.2.4.4c0 .3-.2.4-.4.4s-.4-.2-.4-.4zm-4 0c0-.2.2-.4.4-.4.3 0 .4.2.4.4 0 .3-.2.4-.4.4s-.4-.2-.4-.4zm-4 0c0-.2.2-.4.4-.4s.4.2.4.4c0 .3-.2.4-.4.4-.3 0-.4-.2-.4-.4zm-4.1 0c0-.2.2-.4.4-.4.3 0 .4.2.4.4 0 .3-.2.4-.4.4s-.4-.2-.4-.4zm-4 0c0-.2.2-.4.4-.4s.4.2.4.4c0 .3-.2.4-.4.4s-.4-.2-.4-.4zm-4 0c0-.2.2-.4.4-.4.3 0 .4.2.4.4 0 .3-.2.4-.4.4s-.4-.2-.4-.4zm-4.1 0c0-.2.2-.4.4-.4s.4.2.4.4c0 .3-.2.4-.4.4s-.4-.2-.4-.4zm-4 0c0-.2.2-.4.4-.4s.4.2.4.4c0 .3-.2.4-.4.4s-.4-.2-.4-.4zm-4 0c0-.2.2-.4.4-.4s.4.2.4.4c0 .3-.2.4-.4.4s-.4-.2-.4-.4zm-4 0c0-.2.2-.4.4-.4s.4.2.4.4c0 .3-.2.4-.4.4-.3 0-.4-.2-.4-.4zm-4.1 0c0-.2.2-.4.4-.4s.4.2.4.4c0 .3-.2.4-.4.4s-.4-.2-.4-.4zm-4 0c0-.2.2-.4.4-.4s.4.2.4.4c0 .3-.2.4-.4.4s-.4-.2-.4-.4zm-4 0c0-.2.2-.4.4-.4s.4.2.4.4c0 .3-.2.4-.4.4-.3 0-.4-.2-.4-.4zm-4.1 0c0-.2.2-.4.4-.4s.4.2.4.4c0 .3-.2.4-.4.4s-.4-.2-.4-.4zm-4 0c0-.2.2-.4.4-.4s.4.2.4.4c0 .3-.2.4-.4.4s-.4-.2-.4-.4zm-4 0c0-.2.2-.4.4-.4s.4.2.4.4c0 .3-.2.4-.4.4s-.4-.2-.4-.4zm-4 0c0-.2.2-.4.4-.4.3 0 .4.2.4.4 0 .3-.2.4-.4.4-.3 0-.4-.2-.4-.4zm-4.1 0c0-.2.2-.4.4-.4s.4.2.4.4c0 .3-.2.4-.4.4s-.4-.2-.4-.4zm-4 0c0-.2.2-.4.4-.4.3 0 .4.2.4.4 0 .3-.2.4-.4.4s-.4-.2-.4-.4zm-4 0c0-.2.2-.4.4-.4s.4.2.4.4c0 .3-.2.4-.4.4-.3 0-.4-.2-.4-.4zm-4.1 0c0-.2.2-.4.4-.4s.4.2.4.4c0 .3-.2.4-.4.4s-.4-.2-.4-.4zm-4 0c0-.2.2-.4.4-.4s.4.2.4.4c0 .3-.2.4-.4.4s-.4-.2-.4-.4zm-4 0c0-.2.2-.4.4-.4s.4.2.4.4c0 .3-.2.4-.4.4s-.4-.2-.4-.4zm-4 0c0-.2.2-.4.4-.4s.4.2.4.4c0 .3-.2.4-.4.4-.3 0-.4-.2-.4-.4zm-4.1 0c0-.2.2-.4.4-.4s.4.2.4.4c0 .3-.2.4-.4.4s-.4-.2-.4-.4zm-4 0c0-.2.2-.4.4-.4s.4.2.4.4c0 .3-.2.4-.4.4s-.4-.2-.4-.4zm-4 0c0-.2.2-.4.4-.4s.4.2.4.4c0 .3-.2.4-.4.4-.3 0-.4-.2-.4-.4zm-4.1 0c0-.2.2-.4.4-.4.3 0 .4.2.4.4 0 .3-.2.4-.4.4s-.4-.2-.4-.4zm-4 0c0-.2.2-.4.4-.4s.4.2.4.4c0 .3-.2.4-.4.4s-.4-.2-.4-.4zm-4 0c0-.2.2-.4.4-.4.3 0 .4.2.4.4 0 .3-.2.4-.4.4s-.4-.2-.4-.4zm-4 0c0-.2.2-.4.4-.4s.4.2.4.4c0 .3-.2.4-.4.4-.3 0-.4-.2-.4-.4zm-4.1 0c0-.2.2-.4.4-.4s.4.2.4.4c0 .3-.2.4-.4.4s-.4-.2-.4-.4zm-4 0c0-.2.2-.4.4-.4s.4.2.4.4c0 .3-.2.4-.4.4s-.4-.2-.4-.4zm-4 0c0-.2.2-.4.4-.4s.4.2.4.4c0 .3-.2.4-.4.4-.3 0-.4-.2-.4-.4zm-4.1 0c0-.2.2-.4.4-.4s.4.2.4.4c0 .3-.2.4-.4.4s-.4-.2-.4-.4zm-4 0c0-.2.2-.4.4-.4s.4.2.4.4c0 .3-.2.4-.4.4s-.4-.2-.4-.4zm-4 0c0-.2.2-.4.4-.4s.4.2.4.4c0 .3-.2.4-.4.4s-.4-.2-.4-.4zm-4.1 0c0-.2.2-.4.4-.4s.4.2.4.4c0 .3-.2.4-.4.4s-.4-.2-.4-.4zm-4 0c0-.2.2-.4.4-.4s.4.2.4.4c0 .3-.2.4-.4.4s-.4-.2-.4-.4zm-4 0c0-.2.2-.4.4-.4s.4.2.4.4c0 .3-.2.4-.4.4s-.4-.2-.4-.4zm-4 0c0-.2.2-.4.4-.4.3 0 .4.2.4.4 0 .3-.2.4-.4.4-.3 0-.4-.2-.4-.4zm-4.1 0c0-.2.2-.4.4-.4s.4.2.4.4c0 .3-.2.4-.4.4s-.4-.2-.4-.4zm-4 0c0-.2.2-.4.4-.4s.4.2.4.4c0 .3-.2.4-.4.4s-.4-.2-.4-.4zm-4 0c0-.2.2-.4.4-.4s.4.2.4.4c0 .3-.2.4-.4.4s-.4-.2-.4-.4zm-4.1 0c0-.2.2-.4.4-.4s.4.2.4.4c0 .3-.2.4-.4.4s-.4-.2-.4-.4zm-4 0c0-.2.2-.4.4-.4s.4.2.4.4c0 .3-.2.4-.4.4s-.4-.2-.4-.4zm-4 0c0-.2.2-.4.4-.4s.4.2.4.4c0 .3-.2.4-.4.4s-.4-.2-.4-.4zm-4 0c0-.2.2-.4.4-.4s.4.2.4.4c0 .3-.2.4-.4.4-.3 0-.4-.2-.4-.4zm-4.1 0c0-.2.2-.4.4-.4s.4.2.4.4c0 .3-.2.4-.4.4s-.4-.2-.4-.4zm-4 0c0-.2.2-.4.4-.4s.4.2.4.4c0 .3-.2.4-.4.4s-.4-.2-.4-.4zm-4 0c0-.2.2-.4.4-.4s.4.2.4.4c0 .3-.2.4-.4.4s-.4-.2-.4-.4zm-4.1 0c0-.2.2-.4.4-.4s.4.2.4.4c0 .3-.2.4-.4.4s-.4-.2-.4-.4zm-4 0c0-.2.2-.4.4-.4s.4.2.4.4c0 .3-.2.4-.4.4s-.4-.2-.4-.4zm-4 0c0-.2.2-.4.4-.4s.4.2.4.4c0 .3-.2.4-.4.4s-.4-.2-.4-.4zm-4 0c0-.2.2-.4.4-.4s.4.2.4.4c0 .3-.2.4-.4.4-.3 0-.4-.2-.4-.4zm-4.1 0c0-.2.2-.4.4-.4s.4.2.4.4c0 .3-.2.4-.4.4s-.4-.2-.4-.4zm-4 0c0-.2.2-.4.4-.4s.4.2.4.4c0 .3-.2.4-.4.4s-.4-.2-.4-.4zm-4 0c0-.2.2-.4.4-.4s.4.2.4.4c0 .3-.2.4-.4.4s-.4-.2-.4-.4zm-4.1 0c0-.2.2-.4.4-.4s.4.2.4.4c0 .3-.2.4-.4.4s-.4-.2-.4-.4zm-4 0c0-.2.2-.4.4-.4s.4.2.4.4c0 .3-.2.4-.4.4s-.4-.2-.4-.4zm-4 0c0-.2.2-.4.4-.4s.4.2.4.4c0 .3-.2.4-.4.4s-.4-.2-.4-.4zm-4 0c0-.2.2-.4.4-.4s.4.2.4.4c0 .3-.2.4-.4.4-.3 0-.4-.2-.4-.4zm-4.1 0c0-.2.2-.4.4-.4s.4.2.4.4c0 .3-.2.4-.4.4s-.4-.2-.4-.4zm-4 0c0-.2.2-.4.4-.4s.4.2.4.4c0 .3-.2.4-.4.4s-.4-.2-.4-.4zm-4 0c0-.2.2-.4.4-.4s.4.2.4.4c0 .3-.2.4-.4.4s-.4-.2-.4-.4zm-4.1 0c0-.2.2-.4.4-.4s.4.2.4.4c0 .3-.2.4-.4.4s-.4-.2-.4-.4zm-4 0c0-.2.2-.4.4-.4s.4.2.4.4c0 .3-.2.4-.4.4s-.4-.2-.4-.4zm-4 0c0-.2.2-.4.4-.4s.4.2.4.4c0 .3-.2.4-.4.4s-.4-.2-.4-.4zm-4 0c0-.2.2-.4.4-.4s.4.2.4.4c0 .3-.2.4-.4.4-.3 0-.4-.2-.4-.4zm-4.1 0c0-.2.2-.4.4-.4s.4.2.4.4c0 .3-.2.4-.4.4s-.4-.2-.4-.4zm-4 0c0-.2.2-.4.4-.4s.4.2.4.4c0 .3-.2.4-.4.4s-.4-.2-.4-.4zm-4 0c0-.2.2-.4.4-.4s.4.2.4.4c0 .3-.2.4-.4.4s-.4-.2-.4-.4zm-4.1 0c0-.2.2-.4.4-.4s.4.2.4.4c0 .3-.2.4-.4.4s-.4-.2-.4-.4zm-4 0c0-.2.2-.4.4-.4s.4.2.4.4c0 .3-.2.4-.4.4s-.4-.2-.4-.4zm-4 0c0-.2.2-.4.4-.4s.4.2.4.4c0 .3-.2.4-.4.4s-.4-.2-.4-.4zm-4 0c0-.2.2-.4.4-.4s.4.2.4.4c0 .3-.2.4-.4.4-.3 0-.4-.2-.4-.4zm-4.1 0c0-.2.2-.4.4-.4s.4.2.4.4c0 .3-.2.4-.4.4s-.4-.2-.4-.4zm-4 0c0-.2.2-.4.4-.4.3 0 .4.2.4.4 0 .3-.2.4-.4.4s-.4-.2-.4-.4zm443.2 55.1c0-.3.2-.4.4-.4.3 0 .4.2.4.4s-.2.4-.4.4c-.3 0-.4-.2-.4-.4zm-4.1 0c0-.3.2-.4.4-.4.3 0 .4.2.4.4s-.2.4-.4.4-.4-.2-.4-.4zm-4 0c0-.3.2-.4.4-.4.3 0 .4.2.4.4s-.2.4-.4.4-.4-.2-.4-.4zm-4 0c0-.3.2-.4.4-.4.3 0 .4.2.4.4s-.2.4-.4.4c-.3 0-.4-.2-.4-.4zm-4.1 0c0-.3.2-.4.4-.4.3 0 .4.2.4.4s-.2.4-.4.4-.4-.2-.4-.4zm-4 0c0-.3.2-.4.4-.4s.4.2.4.4-.2.4-.4.4-.4-.2-.4-.4zm-4 0c0-.3.2-.4.4-.4.3 0 .4.2.4.4s-.2.4-.4.4-.4-.2-.4-.4zm-4 0c0-.3.2-.4.4-.4.3 0 .4.2.4.4s-.2.4-.4.4c-.3 0-.4-.2-.4-.4zm-4.1 0c0-.3.2-.4.4-.4.3 0 .4.2.4.4s-.2.4-.4.4-.4-.2-.4-.4zm-4 0c0-.3.2-.4.4-.4.3 0 .4.2.4.4s-.2.4-.4.4-.4-.2-.4-.4zm-4 0c0-.3.2-.4.4-.4.3 0 .4.2.4.4s-.2.4-.4.4-.4-.2-.4-.4zm-4.1 0c0-.3.2-.4.4-.4.3 0 .4.2.4.4s-.2.4-.4.4-.4-.2-.4-.4zm-4 0c0-.3.2-.4.4-.4.3 0 .4.2.4.4s-.2.4-.4.4-.4-.2-.4-.4zm-4 0c0-.3.2-.4.4-.4.3 0 .4.2.4.4s-.2.4-.4.4-.4-.2-.4-.4zm-4 0c0-.3.2-.4.4-.4.3 0 .4.2.4.4s-.2.4-.4.4-.4-.2-.4-.4zm-4.1 0c0-.3.2-.4.4-.4.3 0 .4.2.4.4s-.2.4-.4.4-.4-.2-.4-.4zm-4 0c0-.3.2-.4.4-.4.3 0 .4.2.4.4s-.2.4-.4.4-.4-.2-.4-.4zm-4 0c0-.3.2-.4.4-.4.3 0 .4.2.4.4s-.2.4-.4.4c-.3 0-.4-.2-.4-.4zm-4.1 0c0-.3.2-.4.4-.4.3 0 .4.2.4.4s-.2.4-.4.4-.4-.2-.4-.4zm-4 0c0-.3.2-.4.4-.4.3 0 .4.2.4.4s-.2.4-.4.4-.4-.2-.4-.4zm-4 0c0-.3.2-.4.4-.4.3 0 .4.2.4.4s-.2.4-.4.4-.4-.2-.4-.4zm-4 0c0-.3.2-.4.4-.4.3 0 .4.2.4.4s-.2.4-.4.4c-.3 0-.4-.2-.4-.4zm-4.1 0c0-.3.2-.4.4-.4.3 0 .4.2.4.4s-.2.4-.4.4-.4-.2-.4-.4zm-4 0c0-.3.2-.4.4-.4.3 0 .4.2.4.4s-.2.4-.4.4-.4-.2-.4-.4zm-4 0c0-.3.2-.4.4-.4.3 0 .4.2.4.4s-.2.4-.4.4c-.3 0-.4-.2-.4-.4zm-4.1 0c0-.3.2-.4.4-.4s.4.2.4.4-.2.4-.4.4-.4-.2-.4-.4zm-4 0c0-.3.2-.4.4-.4s.4.2.4.4-.2.4-.4.4-.4-.2-.4-.4zm-4 0c0-.3.2-.4.4-.4s.4.2.4.4-.2.4-.4.4-.4-.2-.4-.4zm-4 0c0-.3.2-.4.4-.4s.4.2.4.4-.2.4-.4.4c-.3 0-.4-.2-.4-.4zm-4.1 0c0-.3.2-.4.4-.4s.4.2.4.4-.2.4-.4.4-.4-.2-.4-.4zm-4 0c0-.3.2-.4.4-.4s.4.2.4.4-.2.4-.4.4-.4-.2-.4-.4zm-4 0c0-.3.2-.4.4-.4s.4.2.4.4-.2.4-.4.4c-.3 0-.4-.2-.4-.4zm-4.1 0c0-.3.2-.4.4-.4s.4.2.4.4-.2.4-.4.4-.4-.2-.4-.4zm-4 0c0-.3.2-.4.4-.4s.4.2.4.4-.2.4-.4.4-.4-.2-.4-.4zm-4 0c0-.3.2-.4.4-.4s.4.2.4.4-.2.4-.4.4-.4-.2-.4-.4zm-4 0c0-.3.2-.4.4-.4s.4.2.4.4-.2.4-.4.4c-.3 0-.4-.2-.4-.4zm-4.1 0c0-.3.2-.4.4-.4s.4.2.4.4-.2.4-.4.4-.4-.2-.4-.4zm-4 0c0-.3.2-.4.4-.4s.4.2.4.4-.2.4-.4.4-.4-.2-.4-.4zm-4 0c0-.3.2-.4.4-.4s.4.2.4.4-.2.4-.4.4c-.3 0-.4-.2-.4-.4zm-4.1 0c0-.3.2-.4.4-.4s.4.2.4.4-.2.4-.4.4-.4-.2-.4-.4zm-4 0c0-.3.2-.4.4-.4s.4.2.4.4-.2.4-.4.4-.4-.2-.4-.4zm-4 0c0-.3.2-.4.4-.4s.4.2.4.4-.2.4-.4.4-.4-.2-.4-.4zm-4 0c0-.3.2-.4.4-.4s.4.2.4.4-.2.4-.4.4c-.3 0-.4-.2-.4-.4zm-4.1 0c0-.3.2-.4.4-.4s.4.2.4.4-.2.4-.4.4-.4-.2-.4-.4zm-4 0c0-.3.2-.4.4-.4s.4.2.4.4-.2.4-.4.4-.4-.2-.4-.4zm-4 0c0-.3.2-.4.4-.4s.4.2.4.4-.2.4-.4.4c-.3 0-.4-.2-.4-.4zm-4.1 0c0-.3.2-.4.4-.4s.4.2.4.4-.2.4-.4.4-.4-.2-.4-.4zm-4 0c0-.3.2-.4.4-.4s.4.2.4.4-.2.4-.4.4-.4-.2-.4-.4zm-4 0c0-.3.2-.4.4-.4s.4.2.4.4-.2.4-.4.4-.4-.2-.4-.4zm-4 0c0-.3.2-.4.4-.4s.4.2.4.4-.2.4-.4.4c-.3 0-.4-.2-.4-.4zm-4.1 0c0-.3.2-.4.4-.4s.4.2.4.4-.2.4-.4.4-.4-.2-.4-.4zm-4 0c0-.3.2-.4.4-.4s.4.2.4.4-.2.4-.4.4-.4-.2-.4-.4zm-4 0c0-.3.2-.4.4-.4s.4.2.4.4-.2.4-.4.4c-.3 0-.4-.2-.4-.4zm-4.1 0c0-.3.2-.4.4-.4s.4.2.4.4-.2.4-.4.4-.4-.2-.4-.4zm-4 0c0-.3.2-.4.4-.4.3 0 .4.2.4.4s-.2.4-.4.4-.4-.2-.4-.4zm-4 0c0-.3.2-.4.4-.4.3 0 .4.2.4.4s-.2.4-.4.4-.4-.2-.4-.4zm-4 0c0-.3.2-.4.4-.4.3 0 .4.2.4.4s-.2.4-.4.4-.4-.2-.4-.4zm-4.1 0c0-.3.2-.4.4-.4.3 0 .4.2.4.4s-.2.4-.4.4-.4-.2-.4-.4zm-4 0c0-.3.2-.4.4-.4.3 0 .4.2.4.4s-.2.4-.4.4-.4-.2-.4-.4zm-4 0c0-.3.2-.4.4-.4.3 0 .4.2.4.4s-.2.4-.4.4c-.3 0-.4-.2-.4-.4zm-4.1 0c0-.3.2-.4.4-.4.3 0 .4.2.4.4s-.2.4-.4.4-.4-.2-.4-.4zm-4 0c0-.3.2-.4.4-.4.3 0 .4.2.4.4s-.2.4-.4.4-.4-.2-.4-.4zm-4 0c0-.3.2-.4.4-.4s.4.2.4.4-.2.4-.4.4-.4-.2-.4-.4zm-4 0c0-.3.2-.4.4-.4s.4.2.4.4-.2.4-.4.4c-.3 0-.4-.2-.4-.4zm-4.1 0c0-.3.2-.4.4-.4s.4.2.4.4-.2.4-.4.4-.4-.2-.4-.4zm-4 0c0-.3.2-.4.4-.4s.4.2.4.4-.2.4-.4.4-.4-.2-.4-.4zm-4 0c0-.3.2-.4.4-.4s.4.2.4.4-.2.4-.4.4c-.3 0-.4-.2-.4-.4zm-4.1 0c0-.3.2-.4.4-.4s.4.2.4.4-.2.4-.4.4-.4-.2-.4-.4zm-4 0c0-.3.2-.4.4-.4s.4.2.4.4-.2.4-.4.4-.4-.2-.4-.4zm-4 0c0-.3.2-.4.4-.4s.4.2.4.4-.2.4-.4.4-.4-.2-.4-.4zm-4.1 0c0-.3.2-.4.4-.4s.4.2.4.4-.2.4-.4.4-.4-.2-.4-.4zm-4 0c0-.3.2-.4.4-.4s.4.2.4.4-.2.4-.4.4-.4-.2-.4-.4zm-4 0c0-.3.2-.4.4-.4s.4.2.4.4-.2.4-.4.4-.4-.2-.4-.4zm-4 0c0-.3.2-.4.4-.4s.4.2.4.4-.2.4-.4.4c-.3 0-.4-.2-.4-.4zm-4.1 0c0-.3.2-.4.4-.4s.4.2.4.4-.2.4-.4.4-.4-.2-.4-.4zm-4 0c0-.3.2-.4.4-.4s.4.2.4.4-.2.4-.4.4-.4-.2-.4-.4zm-4 0c0-.3.2-.4.4-.4s.4.2.4.4-.2.4-.4.4-.4-.2-.4-.4zm-4.1 0c0-.3.2-.4.4-.4s.4.2.4.4-.2.4-.4.4-.4-.2-.4-.4zm-4 0c0-.3.2-.4.4-.4s.4.2.4.4-.2.4-.4.4-.4-.2-.4-.4zm-4 0c0-.3.2-.4.4-.4s.4.2.4.4-.2.4-.4.4-.4-.2-.4-.4zm-4 0c0-.3.2-.4.4-.4s.4.2.4.4-.2.4-.4.4c-.3 0-.4-.2-.4-.4zm-4.1 0c0-.3.2-.4.4-.4s.4.2.4.4-.2.4-.4.4-.4-.2-.4-.4zm-4 0c0-.3.2-.4.4-.4s.4.2.4.4-.2.4-.4.4-.4-.2-.4-.4zm-4 0c0-.3.2-.4.4-.4s.4.2.4.4-.2.4-.4.4-.4-.2-.4-.4zm-4.1 0c0-.3.2-.4.4-.4s.4.2.4.4-.2.4-.4.4-.4-.2-.4-.4zm-4 0c0-.3.2-.4.4-.4s.4.2.4.4-.2.4-.4.4-.4-.2-.4-.4zm-4 0c0-.3.2-.4.4-.4s.4.2.4.4-.2.4-.4.4-.4-.2-.4-.4zm-4 0c0-.3.2-.4.4-.4s.4.2.4.4-.2.4-.4.4c-.3 0-.4-.2-.4-.4zm-4.1 0c0-.3.2-.4.4-.4s.4.2.4.4-.2.4-.4.4-.4-.2-.4-.4zm-4 0c0-.3.2-.4.4-.4s.4.2.4.4-.2.4-.4.4-.4-.2-.4-.4zm-4 0c0-.3.2-.4.4-.4s.4.2.4.4-.2.4-.4.4-.4-.2-.4-.4zm-4.1 0c0-.3.2-.4.4-.4s.4.2.4.4-.2.4-.4.4-.4-.2-.4-.4zm-4 0c0-.3.2-.4.4-.4s.4.2.4.4-.2.4-.4.4-.4-.2-.4-.4zm-4 0c0-.3.2-.4.4-.4s.4.2.4.4-.2.4-.4.4-.4-.2-.4-.4zm-4 0c0-.3.2-.4.4-.4s.4.2.4.4-.2.4-.4.4c-.3 0-.4-.2-.4-.4zm-4.1 0c0-.3.2-.4.4-.4s.4.2.4.4-.2.4-.4.4-.4-.2-.4-.4zm-4 0c0-.3.2-.4.4-.4s.4.2.4.4-.2.4-.4.4-.4-.2-.4-.4zm-4 0c0-.3.2-.4.4-.4s.4.2.4.4-.2.4-.4.4-.4-.2-.4-.4zm-4.1 0c0-.3.2-.4.4-.4s.4.2.4.4-.2.4-.4.4-.4-.2-.4-.4zm-4 0c0-.3.2-.4.4-.4s.4.2.4.4-.2.4-.4.4-.4-.2-.4-.4zm-4 0c0-.3.2-.4.4-.4s.4.2.4.4-.2.4-.4.4-.4-.2-.4-.4zm-4 0c0-.3.2-.4.4-.4s.4.2.4.4-.2.4-.4.4c-.3 0-.4-.2-.4-.4zm-4.1 0c0-.3.2-.4.4-.4s.4.2.4.4-.2.4-.4.4-.4-.2-.4-.4zm-4 0c0-.3.2-.4.4-.4s.4.2.4.4-.2.4-.4.4-.4-.2-.4-.4zm-4 0c0-.3.2-.4.4-.4s.4.2.4.4-.2.4-.4.4-.4-.2-.4-.4zm-4.1 0c0-.3.2-.4.4-.4s.4.2.4.4-.2.4-.4.4-.4-.2-.4-.4zm-4 0c0-.3.2-.4.4-.4s.4.2.4.4-.2.4-.4.4-.4-.2-.4-.4zm-4 0c0-.3.2-.4.4-.4s.4.2.4.4-.2.4-.4.4-.4-.2-.4-.4zm-4 0c0-.3.2-.4.4-.4s.4.2.4.4-.2.4-.4.4c-.3 0-.4-.2-.4-.4zm-4.1 0c0-.3.2-.4.4-.4s.4.2.4.4-.2.4-.4.4-.4-.2-.4-.4zm-4 0c0-.3.2-.4.4-.4.3 0 .4.2.4.4s-.2.4-.4.4-.4-.2-.4-.4z"/><path class="st1" d="M46.4 231.4c0-.7-.5-1.3-1.4-1.3-.7 0-1.2.4-1.2.8v.4h-1v-.7c0-1 1.3-1.4 2.3-1.4 1.4 0 2.5.9 2.5 2.2 0 2.7-3.9 2.7-3.9 4.5 0 .1.1.2.3.2h2.8c.1 0 .2-.1.2-.2v-.5h1v1c0 .5-.2.7-.7.7h-4c-.6 0-.8-.3-.8-.9-.1-2.9 3.9-2.7 3.9-4.8zm3.6 1.8c0-2.2.7-4 2.8-4 2.1 0 2.8 1.8 2.8 4s-.7 4-2.8 4-2.8-1.8-2.8-4zm4.3 0c0-1.7-.4-3-1.7-3s-1.7 1.3-1.7 3 .4 3 1.7 3c1.4 0 1.7-1.3 1.7-3zm3.4 2.9h1.7v-5.6s-.1.2-.4.4l-.7.7-.7-.7 1.9-1.8h1v6.8h1.7v.9h-4.5v-.7zm10.4-4.7c0-.7-.5-1.3-1.4-1.3-.7 0-1.2.4-1.2.8v.4h-1v-.7c0-1 1.3-1.4 2.3-1.4 1.4 0 2.5.9 2.5 2.2 0 2.7-3.9 2.7-3.9 4.5 0 .1.1.2.3.2h2.8c.1 0 .2-.1.2-.2v-.5h1v1c0 .5-.2.7-.7.7h-4c-.6 0-.8-.3-.8-.9-.1-2.9 3.9-2.7 3.9-4.8zm57.9 0c0-.7-.5-1.3-1.4-1.3-.7 0-1.2.4-1.2.8v.4h-1v-.7c0-1 1.3-1.4 2.3-1.4 1.4 0 2.5.9 2.5 2.2 0 2.7-3.9 2.7-3.9 4.5 0 .1.1.2.3.2h2.8c.1 0 .2-.1.2-.2v-.5h1v1c0 .5-.2.7-.7.7h-4c-.6 0-.8-.3-.8-.9-.1-2.9 3.9-2.7 3.9-4.8zm3.5 1.8c0-2.2.7-4 2.8-4 2.1 0 2.8 1.8 2.8 4s-.7 4-2.8 4c-2.1 0-2.8-1.8-2.8-4zm4.5 0c0-1.7-.4-3-1.7-3-1.3 0-1.7 1.3-1.7 3s.4 3 1.7 3c1.3 0 1.7-1.3 1.7-3zm3.3 2.9h1.7v-5.6s-.1.2-.4.4l-.7.7-.7-.7 1.9-1.8h1v6.8h1.7v.9h-4.5v-.7zm6.8-.8s.8.9 2 .9c.9 0 1.6-.6 1.6-1.4 0-.9-.8-1.4-1.7-1.4h-.5l-.2-.6 1.6-2.1c.2-.3.4-.5.4-.5h-2.2c-.1 0-.2.1-.2.2v.5h-1v-1c0-.5.2-.7.7-.7h4.1v.7l-2.1 2.5c1 .1 2.2.8 2.2 2.3 0 1.3-1 2.5-2.7 2.5l-2.6-1.1.6-.8zm-125.6-35.4c0-2.4.7-4.3 3-4.3s3 1.9 3 4.3-.7 4.3-3 4.3-3-1.9-3-4.3zm4.7 0c0-1.8-.4-3.2-1.7-3.2-1.4 0-1.7 1.4-1.7 3.2 0 1.8.4 3.3 1.7 3.3 1.3-.1 1.7-1.5 1.7-3.3zm-3.1-53s.7.9 2 .9c1.1 0 1.8-.7 1.8-1.7s-.9-1.7-2-1.7c-.9 0-1.6.4-1.6.4l-.5-.2.3-3.4c0-.5.2-.8.8-.8h2.9c.5 0 .8.2.8.8v1.1h-1.1v-.5c0-.2-.1-.3-.3-.3h-1.7c-.2 0-.2.1-.3.3l-.2 1.5v.4s.4-.3 1.1-.3c1.8 0 3 1.2 3 2.7 0 1.5-1.2 2.8-3 2.8-1.7 0-2.6-1.2-2.6-1.2l.6-.8zm-7.7-54.2h1.8v-6s-.1.2-.4.5l-.7.8-.7-.7 2-1.9h1.1v7.3h1.8v1h-4.8v-1zm6.9-3.2c0-2.4.7-4.3 3-4.3s3 1.9 3 4.3-.7 4.3-3 4.3-3-1.9-3-4.3zm4.7 0c0-1.8-.4-3.2-1.7-3.2-1.4 0-1.7 1.4-1.7 3.2 0 1.8.4 3.3 1.7 3.3 1.3-.1 1.7-1.5 1.7-3.3zm-11.5-51.2h1.8v-6s-.1.2-.4.5l-.8.8-.7-.7 2-1.9h1.1v7.3h1.8v1h-4.8v-1zm7.6-.9s.7.9 2 .9c1.1 0 1.8-.7 1.8-1.7s-.9-1.7-2-1.7c-.9 0-1.6.4-1.6.4l-.5-.2.3-3.4c0-.5.2-.8.8-.8h2.9c.5 0 .8.2.8.8v1.1h-1.1v-.5c0-.2-.1-.3-.3-.3h-1.7c-.2 0-.2.1-.3.3l-.2 1.5v.4s.4-.3 1.1-.3c1.8 0 3 1.2 3 2.7 0 1.5-1.2 2.8-3 2.8-1.7 0-2.6-1.2-2.6-1.2l.6-.8zm137.7 275.5h-.8v-1h3.4c1.4 0 2.4.9 2.4 2.3 0 1.3-.9 2-1.4 2.1 0 0 .2.1.4.4l.9 1.9c.1.2.3.3.6.3h.1v1h-.5c-.6 0-.9-.1-1.1-.6l-1.1-2.1c-.2-.4-.4-.4-.8-.4h-1v3.2h-1.1v-7.1zm2.6 2.8c.9 0 1.3-.5 1.3-1.4s-.5-1.4-1.3-1.4h-1.5v2.9l1.5-.1zm7.5-1.7c1.6 0 2.5 1.2 2.5 2.7v.4h-4.2c.1 1.2.9 1.9 2 1.9 1 0 1.7-.7 1.7-.7l.5.8s-.9.9-2.2.9c-1.8 0-3-1.3-3-3-.2-1.8 1-3 2.7-3zm1.3 2.3c0-.9-.6-1.4-1.3-1.4-.9 0-1.5.5-1.7 1.4h3zm6.2-2.3c.7 0 2.1.3 2.1 1.3v.6h-1v-.3c0-.4-.6-.6-1.1-.6-1.1 0-1.9.9-1.9 2.1 0 1.3.9 2 2 2l1.7-.8.5.8s-.8 1-2.3 1c-1.8 0-3-1.3-3-3s1.2-3.1 3-3.1zm7.1 0c1.7 0 3.1 1.3 3.1 3s-1.4 3-3.1 3c-1.7 0-3-1.3-3-3s1.3-3 3-3zm0 5.1c1.1 0 2-.9 2-2.1 0-1.2-.9-2-2-2s-1.9.9-1.9 2c0 1.2.9 2.1 1.9 2.1zm5.6-3.7c0-.2-.1-.3-.3-.3h-.4v-.9h1c.5 0 .7.2.7.7v.8c.3-.9.9-1.5 1.8-1.5h.3v1.1h-.3c-.7 0-1.3.5-1.6 1.3-.1.3-.1.7-.1 1v2.3h-1.1v-4.5zm7.3-1.4c1.3 0 1.7.9 1.7.9v-1.8c0-.2-.1-.3-.3-.3h-.4v-.9h1.1c.5 0 .7.2.7.7v6c0 .2.1.3.3.3h.4v.9h-1c-.5 0-.7-.2-.7-.6v-.3s-.5 1-1.9 1c-1.5 0-2.5-1.2-2.5-3 0-1.7 1.1-2.9 2.6-2.9zm1.8 3c0-1-.5-2-1.6-2-.9 0-1.6.8-1.6 2.1s.7 2.1 1.6 2.1c.8-.1 1.6-.8 1.6-2.2zm7-.7h.3c0-1-.4-1.3-1.3-1.3-.3 0-.9.1-.9.4v.3h-1v-.6c0-.9 1.4-1.1 2-1.1 1.8 0 2.3 1 2.3 2.2v2.4c0 .2.1.3.3.3h.4v.9h-1c-.5 0-.7-.3-.7-.7v-.4s-.4 1.1-1.8 1.1c-1 0-1.9-.6-1.9-1.7-.1-1.7 2.4-1.8 3.3-1.8zm-1.2 2.8c.9 0 1.5-1 1.5-1.8v-.2h-.3c-.8 0-2.3 0-2.3 1.1 0 .5.3.9 1.1.9zm5.5-6c0-.2-.1-.3-.3-.3h-.4v-.9h1.1c.5 0 .7.2.7.7v2.3s.5-.9 1.8-.9c1.5 0 2.5 1.2 2.5 3s-1.1 3-2.6 3c-1.3 0-1.8-.9-1.8-.9v.8h-1v-6.8zm2.7 6c.9 0 1.7-.8 1.7-2.1s-.7-2.1-1.6-2.1c-.9 0-1.6.6-1.6 2.1-.1 1 .4 2.1 1.5 2.1zm5.1-6c0-.2-.1-.3-.3-.3h-.4v-.9h1.1c.5 0 .7.2.7.7v6c0 .2.1.3.3.3h.4v.9h-1.1c-.5 0-.7-.2-.7-.7v-6zm6.5.9c1.6 0 2.5 1.2 2.5 2.7v.4h-4.3c.1 1.2.9 1.9 2 1.9 1 0 1.7-.7 1.7-.7l.5.8s-.9.9-2.2.9c-1.8 0-3-1.3-3-3-.1-1.8 1.2-3 2.8-3zm1.3 2.3c0-.9-.6-1.4-1.3-1.4-.9 0-1.5.5-1.7 1.4h3zm-67 16.1h.8v-6h-.8v-1h2.6v1h-.7v6h.8v1h-2.6v-1zm5.2-3.5c0-.2-.1-.3-.3-.3h-.4v-.9h1c.5 0 .7.2.7.6v.5c.2-.5.9-1.3 2.1-1.3 1.3 0 2 .7 2 2.2v2.5c0 .2.1.3.3.3h.4v.9h-1.1c-.5 0-.7-.2-.7-.7v-2.7c0-.8-.2-1.4-1.1-1.4-.9 0-1.6.6-1.8 1.4-.1.2-.1.5-.1.8v2.7h-1.1l.1-4.6zm7.2 5.8c.4 0 1.2-.1 1.2-1.3v-4.7c0-.2-.1-.3-.3-.3h-.4v-.9h1.1c.5 0 .7.2.7.7v5.1c0 1.9-1.5 2.1-2.2 2.1h-.4v-.9c0 .2.2.2.3.2zm1.2-9.3h1v1.1h-1v-1.1zm4.1 3.5c0-.2-.1-.3-.3-.3h-.5v-.9h1.1c.5 0 .7.2.7.7v2.7c0 .8.2 1.4 1.1 1.4 1.2 0 1.8-1 1.8-2.1v-2.7h1.1v4.5c0 .2.1.3.3.3h.4v.9h-1c-.5 0-.7-.2-.7-.6v-.5c-.2.6-1 1.3-2.1 1.3-1.3 0-1.9-.7-1.9-2.2v-2.5zm8.1 0c0-.2-.1-.3-.3-.3h-.4v-.9h1c.5 0 .7.2.7.7v.8c.3-.9.9-1.5 1.8-1.5h.3v1.1h-.3c-.7 0-1.3.5-1.6 1.3-.1.3-.1.7-.1 1v2.3h-1.1v-4.5zm5.6 0c0-.2-.1-.3-.3-.3h-.4v-.9h1.1c.5 0 .7.2.7.7v3.8c0 .2.1.3.3.3h.4v.9h-1.1c-.5 0-.7-.2-.7-.7v-3.8zm0-3.5h1v1.1h-1v-1.1zm6.4 2.1c1.6 0 2.5 1.2 2.5 2.7v.4h-4.2c.1 1.2.9 1.9 2 1.9 1 0 1.7-.7 1.7-.7l.5.8s-.9.9-2.2.9c-1.8 0-3-1.3-3-3-.1-1.8 1.1-3 2.7-3zm1.3 2.4c0-.9-.6-1.4-1.3-1.4-.9 0-1.5.5-1.7 1.4h3zm3.7 1.9s.7.9 1.7.9c.5 0 1-.2 1-.7 0-1-3.1-.9-3.1-2.7 0-1.1.9-1.6 2.1-1.6.7 0 1.9.2 1.9 1.1v.5h-1v-.3c0-.4-.5-.5-.9-.5-.6 0-1.1.2-1.1.7 0 1.1 3.1.9 3.1 2.7 0 1-.9 1.7-2.1 1.7-1.5 0-2.3-1-2.3-1l.7-.8zm105.6-14.6h-1.7c-.2 0-.3.1-.3.3v.5h-1.1v-1.1c0-.5.2-.7.7-.7h5.8c.5 0 .7.2.7.7v1.1h-1.1v-.5c0-.2-.1-.3-.3-.3h-1.7v7.4h-1.2l.2-7.4zm6.8 0h-.8v-1h3.7c1.5 0 2.5.9 2.5 2.5 0 1.4-.9 2.1-1.5 2.2 0 0 .2.1.4.4l1 2c.1.3.3.3.6.3h.1v1h-.6c-.7 0-.9-.1-1.2-.6l-1.2-2.3c-.2-.4-.4-.4-.9-.4h-1.1v3.4h-1.2l.2-7.5zm2.8 3.1c.9 0 1.4-.6 1.4-1.5s-.5-1.5-1.4-1.5h-1.6v3h1.6zm5.7-.4c0-.2-.1-.3-.3-.3h-.5v-1h1.1c.5 0 .8.2.8.8v4c0 .2.1.3.3.3h.5v1h-1.1c-.5 0-.8-.2-.8-.8v-4zm0-3.7h1v1.2h-1v-1.2zm4.6 1h-.8v-1h4.7c.5 0 .8.2.8.8v1.1h-1.1v-.5c0-.2-.1-.3-.3-.3h-2.1v2.8h2.9v1h-2.9v3.6h-1.2v-7.5zm7.3 0h-.7v-1h3.7c1.5 0 2.5.9 2.5 2.5 0 1.4-.9 2.1-1.5 2.2 0 0 .2.1.4.4l1 2c.1.3.3.3.6.3h.1v1h-.6c-.7 0-.9-.1-1.2-.6l-1.2-2.3c-.2-.4-.4-.4-.9-.4h-1.1v3.4h-1.2l.1-7.5zm2.8 3.1c.9 0 1.4-.6 1.4-1.5s-.5-1.5-1.4-1.5h-1.6v3h1.6zm-128.8-88.9c0-.7-.5-1.3-1.4-1.3-.7 0-1.2.4-1.2.8v.4h-1v-.7c0-1 1.3-1.4 2.3-1.4 1.4 0 2.5.9 2.5 2.2 0 2.7-3.9 2.7-3.9 4.5 0 .1.1.2.3.2h2.8c.1 0 .2-.1.2-.2v-.5h1v1c0 .5-.2.7-.7.7h-4c-.6 0-.8-.3-.8-.9-.1-2.9 3.9-2.7 3.9-4.8zm3.6 1.8c0-2.2.7-4 2.8-4 2.1 0 2.8 1.8 2.8 4s-.7 4-2.8 4c-2.1 0-2.8-1.8-2.8-4zm4.4 0c0-1.7-.4-3-1.7-3-1.3 0-1.7 1.3-1.7 3s.4 3 1.7 3c1.4 0 1.7-1.3 1.7-3zm3.4 2.9h1.7v-5.6s-.1.2-.4.4l-.7.7-.7-.7 1.9-1.8h1v6.8h1.7v.9h-4.6l.1-.7zm5.9-1.8l3.5-5h1.3v4.8h1.2v.9h-1.2v2.1h-1.1v-2.1h-3.7v-.7zm3.7-2.9v-.8s-.2.4-.4.7l-1.7 2.3c-.2.3-.4.5-.4.5h2.5v-2.7z"/><path class="st2" d="M160.3 260.8c0-.1-.1-.2-.2-.2h-.4v-.8h.9c.4 0 .6.2.6.6v5c0 .1.1.2.2.2h1.8c.1 0 .2-.1.2-.2v-.4h.9v.8c0 .4-.2.6-.6.6h-2.8c-.4 0-.6-.2-.6-.6v-5zm7.7-1.1h.6l-.4 1.8h-.9l.7-1.8zm.8 5.8h.1c.2 0 .3 0 .3-.2l2.1-5.6h1l2.1 5.6c0 .2.1.2.3.2h.1v.8h-.5c-.4 0-.6-.1-.8-.5l-.5-1.3h-2.4l-.5 1.3c-.2.4-.3.5-.8.5h-.5v-.8zm3.9-1.8l-.7-2c-.1-.4-.3-.9-.3-.9s-.1.6-.3.9l-.7 2h2zm3.3-1.1c0-.1-.1-.2-.2-.2h-.4v-.8h.9c.4 0 .6.2.6.5v.4c.2-.4.8-1.1 1.7-1.1 1.1 0 1.6.6 1.6 1.8v2c0 .1.1.2.2.2h.4v.8h-.9c-.4 0-.6-.2-.6-.6v-2.2c0-.7-.1-1.2-.9-1.2-.7 0-1.3.5-1.5 1.2l-.1.6v2.2h-.9l.1-3.6zm7.8-1.1c1.1 0 1.4.7 1.4.7v-1.5c0-.1-.1-.2-.2-.2h-.4v-.8h.9c.4 0 .6.2.6.6v5c0 .1.1.2.2.2h.4v.8h-.9c-.4 0-.6-.2-.6-.5v-.2s-.4.9-1.5.9c-1.3 0-2.1-1-2.1-2.5.1-1.5 1-2.5 2.2-2.5zm1.5 2.5c0-.9-.4-1.7-1.3-1.7-.7 0-1.3.6-1.3 1.7s.5 1.7 1.3 1.7c.6 0 1.3-.5 1.3-1.7zm5.2-.6h.2c0-.8-.3-1.1-1-1.1-.2 0-.8 0-.8.4v.3h-.9v-.4c0-.8 1.2-.9 1.6-.9 1.5 0 1.9.8 1.9 1.8v2c0 .1.1.2.2.2h.4v.8h-.9c-.4 0-.6-.2-.6-.5v-.3s-.4.9-1.5.9c-.8 0-1.6-.5-1.6-1.4.2-1.7 2.2-1.8 3-1.8zm-1 2.3c.8 0 1.3-.8 1.3-1.5v-.2h-.2c-.7 0-1.9 0-1.9.9-.1.5.2.8.8.8zm4.1-3.1c0-.1-.1-.2-.2-.2h-.4v-.8h.9c.4 0 .6.2.6.5v.4c.2-.5.9-1.1 1.6-1.1.8 0 1.3.4 1.4 1.1.3-.6.9-1.1 1.7-1.1 1.1 0 1.6.6 1.6 1.8v2c0 .1.1.2.2.2h.4v.8h-.9c-.4 0-.6-.2-.6-.6v-2.2c0-.7-.1-1.2-.8-1.2-.6 0-1.2.6-1.3 1.2l-.1.6v2.1h-.9v-2.8c0-.6-.1-1.2-.8-1.2-.7 0-1.2.6-1.3 1.3v2.7h-.9l-.2-3.5zm10.9-1.1c1.3 0 2 1 2 2.2v.4h-3.5c0 1 .8 1.6 1.6 1.6l1.4-.5.4.6s-.7.7-1.8.7c-1.5 0-2.5-1.1-2.5-2.5 0-1.5 1.1-2.5 2.4-2.5zm1.1 1.9c0-.8-.5-1.2-1.1-1.2-.7 0-1.3.4-1.4 1.2h2.5zm2.5-.8c0-.1-.1-.2-.2-.2h-.4v-.8h.9c.4 0 .6.2.6.5v.4c.2-.4.8-1.1 1.7-1.1 1.1 0 1.6.6 1.6 1.8v2c0 .1.1.2.2.2h.4v.8h-.9c-.4 0-.6-.2-.6-.6v-2.2c0-.7-.1-1.2-.9-1.2-.7 0-1.3.5-1.5 1.2l-.1.6v2.2h-.9l.1-3.6zm6.2-.2h-.6v-.7h.6v-1.3h.9v1.3h1.1v.7h-1.1v2.1c0 .9.6 1.1 1 1.1h.2v.8h-.3c-.6 0-1.8-.2-1.8-1.7v-2.3zm5.6-.9c1.4 0 2.6 1 2.6 2.5 0 1.4-1.1 2.5-2.6 2.5s-2.5-1-2.5-2.5 1.1-2.5 2.5-2.5zm0 4.2c.9 0 1.6-.7 1.6-1.7s-.7-1.7-1.6-1.7-1.6.7-1.6 1.7.7 1.7 1.6 1.7zm8.5-4.2c1.1 0 1.4.7 1.4.7v-1.5c0-.1-.1-.2-.2-.2h-.4v-.8h.9c.4 0 .6.2.6.6v5c0 .1.1.2.2.2h.4v.8h-.9c-.4 0-.6-.2-.6-.5v-.2s-.4.9-1.5.9c-1.3 0-2.1-1-2.1-2.5.1-1.5 1-2.5 2.2-2.5zm1.5 2.5c0-.9-.4-1.7-1.3-1.7-.7 0-1.3.6-1.3 1.7s.5 1.7 1.3 1.7c.6 0 1.3-.5 1.3-1.7zm4.7-2.5c1.3 0 2 1 2 2.2v.4h-3.4c0 1 .8 1.6 1.6 1.6l1.4-.5.4.6s-.7.7-1.8.7c-1.5 0-2.5-1.1-2.5-2.5 0-1.5 1-2.5 2.3-2.5zm1.1 1.9c0-.8-.5-1.2-1.1-1.2-.7 0-1.3.4-1.4 1.2h2.5zm4.1-1.9c1.2 0 1.5.7 1.5.7v-.1c0-.3.1-.5.5-.5h.9v.8h-.4c-.1 0-.2 0-.2.2v3.5c0 1.6-1.2 2.1-2.4 2.1-.6 0-1.1-.2-1.6-.4l.3-.7s.6.3 1.3.3c.8 0 1.5-.4 1.5-1.3v-.6c-.3.4-.7.7-1.4.7-1.3 0-2.1-1-2.1-2.4.1-1.3.8-2.3 2.1-2.3zm1.5 2.4c0-1.2-.6-1.6-1.3-1.6-.8 0-1.3.6-1.3 1.6s.5 1.7 1.3 1.7c.7-.1 1.3-.5 1.3-1.7zm2.8-3.2c0-.1-.1-.2-.2-.2h-.4v-.8h.9c.4 0 .6.2.6.6v5c0 .1.1.2.2.2h.4v.8h-.9c-.4 0-.6-.2-.6-.6v-5zm2.9 1.9c0-.1-.1-.2-.2-.2h-.4v-.8h.9c.4 0 .6.2.6.6v3.1c0 .1.1.2.2.2h.4v.8h-.9c-.4 0-.6-.2-.6-.6v-3.1zm0-2.8h.8v.9h-.8v-.9zm5.8 2.8c0-.1-.1-.2-.2-.2h-.4v-.8h.9c.4 0 .6.2.6.6v3.1c0 .1.1.2.2.2h.4v.8h-.9c-.4 0-.6-.2-.6-.6v-3.1zm0-2.8h.8v.9h-.8v-.9zm2.8 2.8c0-.1-.1-.2-.2-.2h-.4v-.8h.9c.4 0 .6.2.6.5v.4c.2-.4.8-1.1 1.7-1.1 1.1 0 1.6.6 1.6 1.8v2c0 .1.1.2.2.2h.4v.8h-.9c-.4 0-.6-.2-.6-.6v-2.2c0-.7-.1-1.2-.9-1.2-.7 0-1.3.5-1.5 1.2l-.1.6v2.2h-.9l.1-3.6zm7.9-1.1c1.1 0 1.4.7 1.4.7v-1.5c0-.1-.1-.2-.2-.2h-.4v-.8h.9c.4 0 .6.2.6.6v5c0 .1.1.2.2.2h.4v.8h-.9c-.4 0-.6-.2-.6-.5v-.2s-.4.9-1.5.9c-1.3 0-2.1-1-2.1-2.5.1-1.5 1-2.5 2.2-2.5zm1.5 2.5c0-.9-.4-1.7-1.3-1.7-.7 0-1.3.6-1.3 1.7s.5 1.7 1.3 1.7c.6 0 1.3-.5 1.3-1.7zm2.9-1.4c0-.1-.1-.2-.2-.2h-.4v-.8h.9c.4 0 .6.2.6.6v3.1c0 .1.1.2.2.2h.4v.8h-.9c-.4 0-.6-.2-.6-.6v-3.1zm0-2.8h.8v.9h-.8v-.9zm4.9 1.7c.6 0 1.7.2 1.7 1v.5h-.8v-.3c0-.3-.5-.5-.9-.5-.9 0-1.6.7-1.6 1.7 0 1.1.8 1.7 1.7 1.7l1.5-.6.4.6s-.7.8-1.9.8c-1.5 0-2.5-1-2.5-2.5-.1-1.3.9-2.4 2.4-2.4zm3.3 1.1c0-.1-.1-.2-.2-.2h-.4v-.8h.9c.4 0 .6.2.6.6v3.1c0 .1.1.2.2.2h.4v.8h-.9c-.4 0-.6-.2-.6-.6v-3.1zm0-2.8h.8v.9h-.8v-.9zm7.4 1.7c1.1 0 1.4.7 1.4.7v-1.5c0-.1-.1-.2-.2-.2h-.4v-.8h.9c.4 0 .6.2.6.6v5c0 .1.1.2.2.2h.4v.8h-.9c-.4 0-.6-.2-.6-.5v-.2s-.4.9-1.5.9c-1.3 0-2.1-1-2.1-2.5.1-1.5 1-2.5 2.2-2.5zm1.5 2.5c0-.9-.4-1.7-1.3-1.7-.7 0-1.3.6-1.3 1.7s.5 1.7 1.3 1.7c.6 0 1.3-.5 1.3-1.7zm2.8-1.4c0-.1-.1-.2-.2-.2h-.4v-.8h.9c.4 0 .6.2.6.6v3.1c0 .1.1.2.2.2h.4v.8h-.9c-.4 0-.6-.2-.6-.6v-3.1zm.1-2.8h.8v.9h-.8v-.9zm5.6 5.2s.5.7 1.4.7c.4 0 .8-.2.8-.6 0-.9-2.6-.8-2.6-2.3 0-.9.8-1.3 1.7-1.3.6 0 1.5.2 1.5.9v.4h-.8v-.2c0-.3-.4-.4-.7-.4-.5 0-.9.2-.9.5 0 .9 2.6.7 2.6 2.3 0 .9-.8 1.4-1.7 1.4-1.3 0-1.9-.8-1.9-.8l.6-.6zm4.7-2.4c0-.1-.1-.2-.2-.2h-.4v-.8h.9c.4 0 .6.2.6.6v3.1c0 .1.1.2.2.2h.4v.8h-.9c-.4 0-.6-.2-.6-.6v-3.1zm0-2.8h.8v.9h-.8v-.9zm4.9 1.7c.6 0 1.7.2 1.7 1v.5h-.8v-.3c0-.3-.5-.5-.9-.5-.9 0-1.6.7-1.6 1.7 0 1.1.8 1.7 1.7 1.7l1.5-.6.4.6s-.7.8-1.9.8c-1.5 0-2.5-1-2.5-2.5-.1-1.3 1-2.4 2.4-2.4zm3.3 1.1c0-.1-.1-.2-.2-.2h-.4v-.8h.9c.4 0 .6.2.6.6v2.2c0 .6.1 1.2.9 1.2 1 0 1.5-.9 1.5-1.8v-2.2h.9v3.7c0 .1.1.2.2.2h.4v.8h-.9c-.4 0-.6-.2-.6-.5v-.4c-.2.4-.8 1.1-1.7 1.1-1.1 0-1.6-.5-1.6-1.8v-2.1zm6.1 0c0-.1-.1-.2-.2-.2h-.3v-.8h.9c.4 0 .6.2.6.5v.6c.2-.7.8-1.2 1.5-1.2h.2v.9h-.3c-.6 0-1.1.4-1.3 1.1-.1.3-.1.5-.1.9v1.9h-.9v-3.7zm5.7-1.1c1.3 0 2 1 2 2.2v.4h-3.4c0 1 .8 1.6 1.6 1.6l1.4-.5.4.6s-.7.7-1.8.7c-1.5 0-2.5-1.1-2.5-2.5-.1-1.5.9-2.5 2.3-2.5zm1.1 1.9c0-.8-.5-1.2-1.1-1.2-.7 0-1.3.4-1.4 1.2h2.5zm2 2.4l2.4-3c.2-.3.4-.4.4-.4h-1.7c-.1 0-.2.1-.2.2v.3h-.9v-.7c0-.4.2-.6.6-.6h3.4v.5l-2.4 3-.4.4h2c.1 0 .2-.1.2-.2v-.3h.8v.7c0 .4-.2.6-.6.6h-3.6v-.5zm5 0l2.4-3c.2-.3.4-.4.4-.4h-1.7c-.1 0-.2.1-.2.2v.3h-.8v-.7c0-.4.2-.6.6-.6h3.4v.5l-2.4 3-.4.4h2c.1 0 .2-.1.2-.2v-.3h.8v.7c0 .4-.2.6-.6.6h-3.6v-.5zm7.9-2.4h.2c0-.8-.3-1.1-1-1.1-.2 0-.8 0-.8.4v.3h-.9v-.4c0-.8 1.2-.9 1.6-.9 1.5 0 1.9.8 1.9 1.8v2c0 .1.1.2.2.2h.4v.8h-.9c-.4 0-.6-.2-.6-.5v-.3s-.4.9-1.5.9c-.8 0-1.6-.5-1.6-1.4.2-1.7 2.3-1.8 3-1.8zm-1 2.3c.8 0 1.3-.8 1.3-1.5v-.2h-.2c-.7 0-1.9 0-1.9.9-.1.5.2.8.8.8z"/><path class="st1" d="M285.8 231.4c0-.7-.5-1.3-1.4-1.3-.7 0-1.2.4-1.2.8v.4h-1v-.7c0-1 1.3-1.4 2.3-1.4 1.4 0 2.5.9 2.5 2.2 0 2.7-3.9 2.7-3.9 4.5 0 .1.1.2.3.2h2.8c.1 0 .2-.1.2-.2v-.5h1v1c0 .5-.2.7-.7.7h-4c-.6 0-.8-.3-.8-.9-.1-2.9 3.9-2.7 3.9-4.8zm3.6 1.8c0-2.2.7-4 2.8-4 2.1 0 2.8 1.8 2.8 4s-.7 4-2.8 4-2.8-1.8-2.8-4zm4.4 0c0-1.7-.4-3-1.7-3s-1.7 1.3-1.7 3 .4 3 1.7 3c1.3 0 1.7-1.3 1.7-3zm3.4 2.9h1.7v-5.6s-.1.2-.4.4l-.7.7-.7-.7 1.9-1.8h1v6.8h1.7v.9h-4.5v-.7zm7-.8s.6.9 1.8.9c1 0 1.7-.7 1.7-1.6 0-1-.9-1.6-1.9-1.6-.9 0-1.5.4-1.5.4l-.4-.2.3-3.2c0-.5.2-.7.7-.7h2.7c.5 0 .7.2.7.7v1h-1v-.4c0-.2-.1-.2-.2-.2h-1.7c-.1 0-.2.1-.2.2l-.1 1.4v.4s.4-.2 1-.2c1.7 0 2.8 1.1 2.8 2.6 0 1.4-1.1 2.6-2.8 2.6-1.6 0-2.4-1.1-2.4-1.1l.5-1zm61.5-3.9c0-.7-.5-1.3-1.4-1.3-.7 0-1.2.4-1.2.8v.4h-1v-.7c0-1 1.3-1.4 2.3-1.4 1.4 0 2.5.9 2.5 2.2 0 2.7-3.9 2.7-3.9 4.5 0 .1.1.2.3.2h2.8c.1 0 .2-.1.2-.2v-.5h1v1c0 .5-.2.7-.7.7h-4c-.6 0-.8-.3-.8-.9-.1-2.9 3.9-2.7 3.9-4.8zm3.5 1.8c0-2.2.7-4 2.8-4 2.1 0 2.8 1.8 2.8 4s-.7 4-2.8 4-2.8-1.8-2.8-4zm4.4 0c0-1.7-.4-3-1.7-3s-1.7 1.3-1.7 3 .4 3 1.7 3c1.4 0 1.7-1.3 1.7-3zm3.4 2.9h1.7v-5.6s-.1.2-.4.4l-.7.7-.7-.7 1.9-1.8h1v6.8h1.7v.9h-4.5v-.7zm6.3-2.5c0-2 1.1-4.5 3.5-4.5.9 0 1.5.3 1.5.3l-.4.9s-.5-.3-1.1-.3c-1.4 0-2.2 1.3-2.3 2.7.3-.5 1-.8 1.7-.8 1.5 0 2.5 1.1 2.5 2.6s-1 2.6-2.5 2.6c-1.7.1-2.9-1.3-2.9-3.5zm2.9 2.6c.9 0 1.4-.7 1.4-1.6 0-.9-.6-1.6-1.6-1.6-.9 0-1.6.5-1.6 1.1 0 .9.8 2.1 1.8 2.1zm59.3-4.8c0-.7-.5-1.3-1.4-1.3-.7 0-1.2.4-1.2.8v.4h-1v-.7c0-1 1.3-1.4 2.3-1.4 1.4 0 2.5.9 2.5 2.2 0 2.7-3.9 2.7-3.9 4.5 0 .1.1.2.3.2h2.8c.1 0 .2-.1.2-.2v-.5h1v1c0 .5-.2.7-.7.7h-4c-.6 0-.8-.3-.8-.9-.1-2.9 3.9-2.7 3.9-4.8zm3.6 1.8c0-2.2.7-4 2.8-4 2.1 0 2.8 1.8 2.8 4s-.7 4-2.8 4-2.8-1.8-2.8-4zm4.4 0c0-1.7-.4-3-1.7-3s-1.7 1.3-1.7 3 .4 3 1.7 3c1.4 0 1.7-1.3 1.7-3zm3.4 2.9h1.7v-5.6s-.1.2-.4.4l-.7.7-.7-.7 1.9-1.8h1v6.8h1.7v.9h-4.5v-.7zm9.9-5.2c.2-.4.4-.7.4-.7h-3c-.1 0-.2.1-.2.2v.5h-1v-1c0-.5.2-.7.7-.7h4.7v.8l-3.8 7.1h-1.2l3.4-6.2z"/><circle class="st3" cx="140.1" cy="319" r="9.4"/><circle class="st1" cx="286.4" cy="319" r="9.4"/></svg>