<svg baseProfile="basic" xmlns="http://www.w3.org/2000/svg" viewBox="0 0 500 336"><style>.st0{fill:#00295a}.st1{fill:#5565fb}.st2{fill:#4e5594}.st3{fill:#00245b}</style><path class="st0" d="M495.7 248.7H7.8c-2 0-3.7-1.6-3.7-3.7V3.2c0-.2.1-.2.2-.2.2 0 .3 0 .3.2V245c0 1.8 1.5 3.2 3.2 3.2h487.9c.1 0 .2.1.2.2s-.1.3-.2.3zm-23-210.5c0-.2.2-.4.4-.4.3 0 .4.2.4.4 0 .3-.2.4-.4.4s-.4-.2-.4-.4zm-3.9 0c0-.2.2-.4.4-.4.3 0 .4.2.4.4 0 .3-.2.4-.4.4-.3 0-.4-.2-.4-.4zm-4 0c0-.2.2-.4.4-.4s.4.2.4.4c0 .3-.2.4-.4.4s-.4-.2-.4-.4zm-4 0c0-.2.2-.4.4-.4.3 0 .4.2.4.4 0 .3-.2.4-.4.4s-.4-.2-.4-.4zm-3.9 0c0-.2.2-.4.4-.4s.4.2.4.4c0 .3-.2.4-.4.4-.3 0-.4-.2-.4-.4zm-4 0c0-.2.2-.4.4-.4s.4.2.4.4c0 .3-.2.4-.4.4s-.4-.2-.4-.4zm-4 0c0-.2.2-.4.4-.4.3 0 .4.2.4.4 0 .3-.2.4-.4.4s-.4-.2-.4-.4zm-3.9 0c0-.2.2-.4.4-.4s.4.2.4.4c0 .3-.2.4-.4.4s-.4-.2-.4-.4zm-4 0c0-.2.2-.4.4-.4.3 0 .4.2.4.4 0 .3-.2.4-.4.4s-.4-.2-.4-.4zm-3.9 0c0-.2.2-.4.4-.4s.4.2.4.4c0 .3-.2.4-.4.4-.3 0-.4-.2-.4-.4zm-4 0c0-.2.2-.4.4-.4s.4.2.4.4c0 .3-.2.4-.4.4s-.4-.2-.4-.4zm-4 0c0-.2.2-.4.4-.4.3 0 .4.2.4.4 0 .3-.2.4-.4.4s-.4-.2-.4-.4zm-3.9 0c0-.2.2-.4.4-.4s.4.2.4.4c0 .3-.2.4-.4.4-.3 0-.4-.2-.4-.4zm-4 0c0-.2.2-.4.4-.4.3 0 .4.2.4.4 0 .3-.2.4-.4.4s-.4-.2-.4-.4zm-4 0c0-.2.2-.4.4-.4.3 0 .4.2.4.4 0 .3-.2.4-.4.4s-.4-.2-.4-.4zm-3.9 0c0-.2.2-.4.4-.4s.4.2.4.4c0 .3-.2.4-.4.4s-.4-.2-.4-.4zm-4 0c0-.2.2-.4.4-.4.3 0 .4.2.4.4 0 .3-.2.4-.4.4s-.4-.2-.4-.4zm-3.9 0c0-.2.2-.4.4-.4s.4.2.4.4c0 .3-.2.4-.4.4-.3 0-.4-.2-.4-.4zm-4 0c0-.2.2-.4.4-.4.3 0 .4.2.4.4 0 .3-.2.4-.4.4s-.4-.2-.4-.4zm-4 0c0-.2.2-.4.4-.4.3 0 .4.2.4.4 0 .3-.2.4-.4.4s-.4-.2-.4-.4zm-3.9 0c0-.2.2-.4.4-.4s.4.2.4.4c0 .3-.2.4-.4.4-.3 0-.4-.2-.4-.4zm-4 0c0-.2.2-.4.4-.4.3 0 .4.2.4.4 0 .3-.2.4-.4.4s-.4-.2-.4-.4zm-4 0c0-.2.2-.4.4-.4s.4.2.4.4c0 .3-.2.4-.4.4s-.4-.2-.4-.4zm-3.9 0c0-.2.2-.4.4-.4.3 0 .4.2.4.4 0 .3-.2.4-.4.4s-.4-.2-.4-.4zm-4 0c0-.2.2-.4.4-.4.3 0 .4.2.4.4 0 .3-.2.4-.4.4s-.4-.2-.4-.4zm-3.9 0c0-.2.2-.4.4-.4s.4.2.4.4c0 .3-.2.4-.4.4-.3 0-.4-.2-.4-.4zm-4 0c0-.2.2-.4.4-.4.3 0 .4.2.4.4 0 .3-.2.4-.4.4s-.4-.2-.4-.4zm-4 0c0-.2.2-.4.4-.4s.4.2.4.4c0 .3-.2.4-.4.4s-.4-.2-.4-.4zm-3.9 0c0-.2.2-.4.4-.4.3 0 .4.2.4.4 0 .3-.2.4-.4.4s-.4-.2-.4-.4zm-4 0c0-.2.2-.4.4-.4.3 0 .4.2.4.4 0 .3-.2.4-.4.4s-.4-.2-.4-.4zm-3.9 0c0-.2.2-.4.4-.4s.4.2.4.4c0 .3-.2.4-.4.4-.3 0-.4-.2-.4-.4zm-4 0c0-.2.2-.4.4-.4.3 0 .4.2.4.4 0 .3-.2.4-.4.4s-.4-.2-.4-.4zm-4 0c0-.2.2-.4.4-.4s.4.2.4.4c0 .3-.2.4-.4.4s-.4-.2-.4-.4zm-3.9 0c0-.2.2-.4.4-.4.3 0 .4.2.4.4 0 .3-.2.4-.4.4-.3 0-.4-.2-.4-.4zm-4 0c0-.2.2-.4.4-.4.3 0 .4.2.4.4 0 .3-.2.4-.4.4s-.4-.2-.4-.4zm-4 0c0-.2.2-.4.4-.4s.4.2.4.4c0 .3-.2.4-.4.4s-.4-.2-.4-.4zm-3.9 0c0-.2.2-.4.4-.4.3 0 .4.2.4.4 0 .3-.2.4-.4.4s-.4-.2-.4-.4zm-4 0c0-.2.2-.4.4-.4s.4.2.4.4c0 .3-.2.4-.4.4s-.4-.2-.4-.4zm-3.9 0c0-.2.2-.4.4-.4.3 0 .4.2.4.4 0 .3-.2.4-.4.4-.3 0-.4-.2-.4-.4zm-4 0c0-.2.2-.4.4-.4.3 0 .4.2.4.4 0 .3-.2.4-.4.4s-.4-.2-.4-.4zm-4 0c0-.2.2-.4.4-.4s.4.2.4.4c0 .3-.2.4-.4.4s-.4-.2-.4-.4zm-3.9 0c0-.2.2-.4.4-.4s.4.2.4.4c0 .3-.2.4-.4.4-.3 0-.4-.2-.4-.4zm-4 0c0-.2.2-.4.4-.4s.4.2.4.4c0 .3-.2.4-.4.4s-.4-.2-.4-.4zm-4 0c0-.2.2-.4.4-.4s.4.2.4.4c0 .3-.2.4-.4.4s-.4-.2-.4-.4zm-3.9 0c0-.2.2-.4.4-.4.3 0 .4.2.4.4 0 .3-.2.4-.4.4s-.4-.2-.4-.4zm-4 0c0-.2.2-.4.4-.4s.4.2.4.4c0 .3-.2.4-.4.4s-.4-.2-.4-.4zm-3.9 0c0-.2.2-.4.4-.4s.4.2.4.4c0 .3-.2.4-.4.4-.3 0-.4-.2-.4-.4zm-4 0c0-.2.2-.4.4-.4s.4.2.4.4c0 .3-.2.4-.4.4s-.4-.2-.4-.4zm-4 0c0-.2.2-.4.4-.4s.4.2.4.4c0 .3-.2.4-.4.4s-.4-.2-.4-.4zm-3.9 0c0-.2.2-.4.4-.4.3 0 .4.2.4.4 0 .3-.2.4-.4.4-.3 0-.4-.2-.4-.4zm-4 0c0-.2.2-.4.4-.4s.4.2.4.4c0 .3-.2.4-.4.4s-.4-.2-.4-.4zm-4 0c0-.2.2-.4.4-.4s.4.2.4.4c0 .3-.2.4-.4.4s-.4-.2-.4-.4zm-3.9 0c0-.2.2-.4.4-.4s.4.2.4.4c0 .3-.2.4-.4.4s-.4-.2-.4-.4zm-4 0c0-.2.2-.4.4-.4s.4.2.4.4c0 .3-.2.4-.4.4s-.4-.2-.4-.4zm-3.9 0c0-.2.2-.4.4-.4.3 0 .4.2.4.4 0 .3-.2.4-.4.4-.3 0-.4-.2-.4-.4zm-4 0c0-.2.2-.4.4-.4s.4.2.4.4c0 .3-.2.4-.4.4s-.4-.2-.4-.4zm-4 0c0-.2.2-.4.4-.4s.4.2.4.4c0 .3-.2.4-.4.4s-.4-.2-.4-.4zm-3.9 0c0-.2.2-.4.4-.4s.4.2.4.4c0 .3-.2.4-.4.4s-.4-.2-.4-.4zm-4 0c0-.2.2-.4.4-.4s.4.2.4.4c0 .3-.2.4-.4.4s-.4-.2-.4-.4zm-3.9 0c0-.2.2-.4.4-.4.3 0 .4.2.4.4 0 .3-.2.4-.4.4-.3 0-.4-.2-.4-.4zm-4 0c0-.2.2-.4.4-.4s.4.2.4.4c0 .3-.2.4-.4.4s-.4-.2-.4-.4zm-4 0c0-.2.2-.4.4-.4s.4.2.4.4c0 .3-.2.4-.4.4s-.4-.2-.4-.4zm-3.9 0c0-.2.2-.4.4-.4s.4.2.4.4c0 .3-.2.4-.4.4-.3 0-.4-.2-.4-.4zm-4 0c0-.2.2-.4.4-.4s.4.2.4.4c0 .3-.2.4-.4.4s-.4-.2-.4-.4zm-4 0c0-.2.2-.4.4-.4.3 0 .4.2.4.4 0 .3-.2.4-.4.4s-.4-.2-.4-.4zm-3.9 0c0-.2.2-.4.4-.4s.4.2.4.4c0 .3-.2.4-.4.4s-.4-.2-.4-.4zm-4 0c0-.2.2-.4.4-.4s.4.2.4.4c0 .3-.2.4-.4.4s-.4-.2-.4-.4zm-3.9 0c0-.2.2-.4.4-.4s.4.2.4.4c0 .3-.2.4-.4.4-.3 0-.4-.2-.4-.4zm-4 0c0-.2.2-.4.4-.4s.4.2.4.4c0 .3-.2.4-.4.4s-.4-.2-.4-.4zm-4 0c0-.2.2-.4.4-.4.3 0 .4.2.4.4 0 .3-.2.4-.4.4s-.4-.2-.4-.4zm-3.9 0c0-.2.2-.4.4-.4s.4.2.4.4c0 .3-.2.4-.4.4-.3 0-.4-.2-.4-.4zm-4 0c0-.2.2-.4.4-.4s.4.2.4.4c0 .3-.2.4-.4.4s-.4-.2-.4-.4zm-4 0c0-.2.2-.4.4-.4s.4.2.4.4c0 .3-.2.4-.4.4s-.4-.2-.4-.4zm-3.9 0c0-.2.2-.4.4-.4s.4.2.4.4c0 .3-.2.4-.4.4s-.4-.2-.4-.4zm-4 0c0-.2.2-.4.4-.4s.4.2.4.4c0 .3-.2.4-.4.4s-.4-.2-.4-.4zm-3.9 0c0-.2.2-.4.4-.4s.4.2.4.4c0 .3-.2.4-.4.4-.3 0-.4-.2-.4-.4zm-4 0c0-.2.2-.4.4-.4s.4.2.4.4c0 .3-.2.4-.4.4s-.4-.2-.4-.4zm-4 0c0-.2.2-.4.4-.4s.4.2.4.4c0 .3-.2.4-.4.4s-.4-.2-.4-.4zm-3.9 0c0-.2.2-.4.4-.4s.4.2.4.4c0 .3-.2.4-.4.4-.3 0-.4-.2-.4-.4zm-4 0c0-.2.2-.4.4-.4s.4.2.4.4c0 .3-.2.4-.4.4s-.4-.2-.4-.4zm-4 0c0-.2.2-.4.4-.4s.4.2.4.4c0 .3-.2.4-.4.4s-.4-.2-.4-.4zm-3.9 0c0-.2.2-.4.4-.4s.4.2.4.4c0 .3-.2.4-.4.4s-.4-.2-.4-.4zm-4 0c0-.2.2-.4.4-.4s.4.2.4.4c0 .3-.2.4-.4.4s-.4-.2-.4-.4zm-3.9 0c0-.2.2-.4.4-.4s.4.2.4.4c0 .3-.2.4-.4.4-.3 0-.4-.2-.4-.4zm-4 0c0-.2.2-.4.4-.4s.4.2.4.4c0 .3-.2.4-.4.4s-.4-.2-.4-.4zm-4 0c0-.2.2-.4.4-.4s.4.2.4.4c0 .3-.2.4-.4.4s-.4-.2-.4-.4zm-3.9 0c0-.2.2-.4.4-.4s.4.2.4.4c0 .3-.2.4-.4.4-.3 0-.4-.2-.4-.4zm-4 0c0-.2.2-.4.4-.4s.4.2.4.4c0 .3-.2.4-.4.4s-.4-.2-.4-.4zm-4 0c0-.2.2-.4.4-.4s.4.2.4.4c0 .3-.2.4-.4.4s-.4-.2-.4-.4zm-3.9 0c0-.2.2-.4.4-.4s.4.2.4.4c0 .3-.2.4-.4.4s-.4-.2-.4-.4zm-4 0c0-.2.2-.4.4-.4s.4.2.4.4c0 .3-.2.4-.4.4s-.4-.2-.4-.4zm-3.9 0c0-.2.2-.4.4-.4s.4.2.4.4c0 .3-.2.4-.4.4-.3 0-.4-.2-.4-.4zm-4 0c0-.2.2-.4.4-.4s.4.2.4.4c0 .3-.2.4-.4.4s-.4-.2-.4-.4zm-4 0c0-.2.2-.4.4-.4s.4.2.4.4c0 .3-.2.4-.4.4s-.4-.2-.4-.4zm-3.9 0c0-.2.2-.4.4-.4s.4.2.4.4c0 .3-.2.4-.4.4s-.4-.2-.4-.4zm-4 0c0-.2.2-.4.4-.4s.4.2.4.4c0 .3-.2.4-.4.4s-.4-.2-.4-.4zm-3.9 0c0-.2.2-.4.4-.4s.4.2.4.4c0 .3-.2.4-.4.4-.3 0-.4-.2-.4-.4zm-4 0c0-.2.2-.4.4-.4s.4.2.4.4c0 .3-.2.4-.4.4s-.4-.2-.4-.4zm-4 0c0-.2.2-.4.4-.4s.4.2.4.4c0 .3-.2.4-.4.4s-.4-.2-.4-.4zm-3.9 0c0-.2.2-.4.4-.4s.4.2.4.4c0 .3-.2.4-.4.4-.3 0-.4-.2-.4-.4zm-4 0c0-.2.2-.4.4-.4s.4.2.4.4c0 .3-.2.4-.4.4s-.4-.2-.4-.4zm-4 0c0-.2.2-.4.4-.4s.4.2.4.4c0 .3-.2.4-.4.4s-.4-.2-.4-.4zm-3.9 0c0-.2.2-.4.4-.4s.4.2.4.4c0 .3-.2.4-.4.4s-.4-.2-.4-.4zm-4 0c0-.2.2-.4.4-.4s.4.2.4.4c0 .3-.2.4-.4.4s-.4-.2-.4-.4zm-3.9 0c0-.2.2-.4.4-.4s.4.2.4.4c0 .3-.2.4-.4.4-.3 0-.4-.2-.4-.4zm-4 0c0-.2.2-.4.4-.4s.4.2.4.4c0 .3-.2.4-.4.4s-.4-.2-.4-.4zm-4 0c0-.2.2-.4.4-.4s.4.2.4.4c0 .3-.2.4-.4.4s-.4-.2-.4-.4zm-3.9 0c0-.2.2-.4.4-.4s.4.2.4.4c0 .3-.2.4-.4.4-.3 0-.4-.2-.4-.4zm-4 0c0-.2.2-.4.4-.4s.4.2.4.4c0 .3-.2.4-.4.4s-.4-.2-.4-.4zm-4 0c0-.2.2-.4.4-.4s.4.2.4.4c0 .3-.2.4-.4.4s-.4-.2-.4-.4zm-3.9 0c0-.2.2-.4.4-.4.3 0 .4.2.4.4 0 .3-.2.4-.4.4s-.4-.2-.4-.4zm435.8 54.2c0-.2.2-.4.4-.4.3 0 .4.2.4.4s-.2.4-.4.4-.4-.2-.4-.4zm-3.9 0c0-.2.2-.4.4-.4.3 0 .4.2.4.4s-.2.4-.4.4c-.3 0-.4-.2-.4-.4zm-4 0c0-.2.2-.4.4-.4s.4.2.4.4-.2.4-.4.4-.4-.2-.4-.4zm-4 0c0-.2.2-.4.4-.4s.4.2.4.4-.2.4-.4.4-.4-.2-.4-.4zm-3.9 0c0-.2.2-.4.4-.4.3 0 .4.2.4.4s-.2.4-.4.4c-.3 0-.4-.2-.4-.4zm-4 0c0-.2.2-.4.4-.4.3 0 .4.2.4.4s-.2.4-.4.4-.4-.2-.4-.4zm-4 0c0-.2.2-.4.4-.4s.4.2.4.4-.2.4-.4.4-.4-.2-.4-.4zm-3.9 0c0-.2.2-.4.4-.4s.4.2.4.4-.2.4-.4.4-.4-.2-.4-.4zm-4 0c0-.2.2-.4.4-.4.3 0 .4.2.4.4s-.2.4-.4.4-.4-.2-.4-.4zm-3.9 0c0-.2.2-.4.4-.4.3 0 .4.2.4.4s-.2.4-.4.4c-.3 0-.4-.2-.4-.4zm-4 0c0-.2.2-.4.4-.4.3 0 .4.2.4.4s-.2.4-.4.4-.4-.2-.4-.4zm-4 0c0-.2.2-.4.4-.4s.4.2.4.4-.2.4-.4.4-.4-.2-.4-.4zm-3.9 0c0-.2.2-.4.4-.4s.4.2.4.4-.2.4-.4.4c-.3 0-.4-.2-.4-.4zm-4 0c0-.2.2-.4.4-.4.3 0 .4.2.4.4s-.2.4-.4.4-.4-.2-.4-.4zm-4 0c0-.2.2-.4.4-.4.3 0 .4.2.4.4s-.2.4-.4.4-.4-.2-.4-.4zm-3.9 0c0-.2.2-.4.4-.4s.4.2.4.4-.2.4-.4.4-.4-.2-.4-.4zm-4 0c0-.2.2-.4.4-.4s.4.2.4.4-.2.4-.4.4-.4-.2-.4-.4zm-3.9 0c0-.2.2-.4.4-.4.3 0 .4.2.4.4s-.2.4-.4.4c-.3 0-.4-.2-.4-.4zm-4 0c0-.2.2-.4.4-.4.3 0 .4.2.4.4s-.2.4-.4.4-.4-.2-.4-.4zm-4 0c0-.2.2-.4.4-.4.3 0 .4.2.4.4s-.2.4-.4.4-.4-.2-.4-.4zm-3.9 0c0-.2.2-.4.4-.4s.4.2.4.4-.2.4-.4.4c-.3 0-.4-.2-.4-.4zm-4 0c0-.2.2-.4.4-.4s.4.2.4.4-.2.4-.4.4-.4-.2-.4-.4zm-4 0c0-.2.2-.4.4-.4.3 0 .4.2.4.4s-.2.4-.4.4-.4-.2-.4-.4zm-3.9 0c0-.2.2-.4.4-.4.3 0 .4.2.4.4s-.2.4-.4.4-.4-.2-.4-.4zm-4 0c0-.2.2-.4.4-.4s.4.2.4.4-.2.4-.4.4-.4-.2-.4-.4zm-3.9 0c0-.2.2-.4.4-.4s.4.2.4.4-.2.4-.4.4c-.3 0-.4-.2-.4-.4zm-4 0c0-.2.2-.4.4-.4.3 0 .4.2.4.4s-.2.4-.4.4-.4-.2-.4-.4zm-4 0c0-.2.2-.4.4-.4.3 0 .4.2.4.4s-.2.4-.4.4-.4-.2-.4-.4zm-3.9 0c0-.2.2-.4.4-.4.3 0 .4.2.4.4s-.2.4-.4.4-.4-.2-.4-.4zm-4 0c0-.2.2-.4.4-.4s.4.2.4.4-.2.4-.4.4-.4-.2-.4-.4zm-3.9 0c0-.2.2-.4.4-.4s.4.2.4.4-.2.4-.4.4c-.3 0-.4-.2-.4-.4zm-4 0c0-.2.2-.4.4-.4.3 0 .4.2.4.4s-.2.4-.4.4-.4-.2-.4-.4zm-4 0c0-.2.2-.4.4-.4.3 0 .4.2.4.4s-.2.4-.4.4-.4-.2-.4-.4zm-3.9 0c0-.2.2-.4.4-.4s.4.2.4.4-.2.4-.4.4c-.3 0-.4-.2-.4-.4zm-4 0c0-.2.2-.4.4-.4s.4.2.4.4-.2.4-.4.4-.4-.2-.4-.4zm-4 0c0-.2.2-.4.4-.4.3 0 .4.2.4.4s-.2.4-.4.4-.4-.2-.4-.4zm-3.9 0c0-.2.2-.4.4-.4.3 0 .4.2.4.4s-.2.4-.4.4-.4-.2-.4-.4zm-4 0c0-.2.2-.4.4-.4.3 0 .4.2.4.4s-.2.4-.4.4-.4-.2-.4-.4zm-3.9 0c0-.2.2-.4.4-.4s.4.2.4.4-.2.4-.4.4c-.3 0-.4-.2-.4-.4zm-4 0c0-.2.2-.4.4-.4s.4.2.4.4-.2.4-.4.4-.4-.2-.4-.4zm-4 0c0-.2.2-.4.4-.4.3 0 .4.2.4.4s-.2.4-.4.4-.4-.2-.4-.4zm-3.9 0c0-.2.2-.4.4-.4s.4.2.4.4-.2.4-.4.4c-.3 0-.4-.2-.4-.4zm-4 0c0-.2.2-.4.4-.4s.4.2.4.4-.2.4-.4.4-.4-.2-.4-.4zm-4 0c0-.2.2-.4.4-.4s.4.2.4.4-.2.4-.4.4-.4-.2-.4-.4zm-3.9 0c0-.2.2-.4.4-.4.3 0 .4.2.4.4s-.2.4-.4.4-.4-.2-.4-.4zm-4 0c0-.2.2-.4.4-.4s.4.2.4.4-.2.4-.4.4-.4-.2-.4-.4zm-3.9 0c0-.2.2-.4.4-.4s.4.2.4.4-.2.4-.4.4c-.3 0-.4-.2-.4-.4zm-4 0c0-.2.2-.4.4-.4s.4.2.4.4-.2.4-.4.4-.4-.2-.4-.4zm-4 0c0-.2.2-.4.4-.4s.4.2.4.4-.2.4-.4.4-.4-.2-.4-.4zm-3.9 0c0-.2.2-.4.4-.4.3 0 .4.2.4.4s-.2.4-.4.4c-.3 0-.4-.2-.4-.4zm-4 0c0-.2.2-.4.4-.4s.4.2.4.4-.2.4-.4.4-.4-.2-.4-.4zm-4 0c0-.2.2-.4.4-.4s.4.2.4.4-.2.4-.4.4-.4-.2-.4-.4zm-3.9 0c0-.2.2-.4.4-.4s.4.2.4.4-.2.4-.4.4-.4-.2-.4-.4zm-4 0c0-.2.2-.4.4-.4.3 0 .4.2.4.4s-.2.4-.4.4-.4-.2-.4-.4zm-3.9 0c0-.2.2-.4.4-.4s.4.2.4.4-.2.4-.4.4c-.3 0-.4-.2-.4-.4zm-4 0c0-.2.2-.4.4-.4s.4.2.4.4-.2.4-.4.4-.4-.2-.4-.4zm-4 0c0-.2.2-.4.4-.4s.4.2.4.4-.2.4-.4.4-.4-.2-.4-.4zm-3.9 0c0-.2.2-.4.4-.4s.4.2.4.4-.2.4-.4.4-.4-.2-.4-.4zm-4 0c0-.2.2-.4.4-.4.3 0 .4.2.4.4s-.2.4-.4.4-.4-.2-.4-.4zm-3.9 0c0-.2.2-.4.4-.4s.4.2.4.4-.2.4-.4.4c-.3 0-.4-.2-.4-.4zm-4 0c0-.2.2-.4.4-.4s.4.2.4.4-.2.4-.4.4-.4-.2-.4-.4zm-4 0c0-.2.2-.4.4-.4s.4.2.4.4-.2.4-.4.4-.4-.2-.4-.4zm-3.9 0c0-.2.2-.4.4-.4.3 0 .4.2.4.4s-.2.4-.4.4c-.3 0-.4-.2-.4-.4zm-4 0c0-.2.2-.4.4-.4s.4.2.4.4-.2.4-.4.4-.4-.2-.4-.4zm-4 0c0-.2.2-.4.4-.4s.4.2.4.4-.2.4-.4.4-.4-.2-.4-.4zm-3.9 0c0-.2.2-.4.4-.4s.4.2.4.4-.2.4-.4.4-.4-.2-.4-.4zm-4 0c0-.2.2-.4.4-.4s.4.2.4.4-.2.4-.4.4-.4-.2-.4-.4zm-3.9 0c0-.2.2-.4.4-.4.3 0 .4.2.4.4s-.2.4-.4.4c-.3 0-.4-.2-.4-.4zm-4 0c0-.2.2-.4.4-.4s.4.2.4.4-.2.4-.4.4-.4-.2-.4-.4zm-4 0c0-.2.2-.4.4-.4s.4.2.4.4-.2.4-.4.4-.4-.2-.4-.4zm-3.9 0c0-.2.2-.4.4-.4s.4.2.4.4-.2.4-.4.4c-.3 0-.4-.2-.4-.4zm-4 0c0-.2.2-.4.4-.4.3 0 .4.2.4.4s-.2.4-.4.4-.4-.2-.4-.4zm-4 0c0-.2.2-.4.4-.4s.4.2.4.4-.2.4-.4.4-.4-.2-.4-.4zm-3.9 0c0-.2.2-.4.4-.4s.4.2.4.4-.2.4-.4.4-.4-.2-.4-.4zm-4 0c0-.2.2-.4.4-.4s.4.2.4.4-.2.4-.4.4-.4-.2-.4-.4zm-3.9 0c0-.2.2-.4.4-.4s.4.2.4.4-.2.4-.4.4c-.3 0-.4-.2-.4-.4zm-4 0c0-.2.2-.4.4-.4s.4.2.4.4-.2.4-.4.4-.4-.2-.4-.4zm-4 0c0-.2.2-.4.4-.4s.4.2.4.4-.2.4-.4.4-.4-.2-.4-.4zm-3.9 0c0-.2.2-.4.4-.4s.4.2.4.4-.2.4-.4.4c-.3 0-.4-.2-.4-.4zm-4 0c0-.2.2-.4.4-.4s.4.2.4.4-.2.4-.4.4-.4-.2-.4-.4zm-4 0c0-.2.2-.4.4-.4s.4.2.4.4-.2.4-.4.4-.4-.2-.4-.4zm-3.9 0c0-.2.2-.4.4-.4s.4.2.4.4-.2.4-.4.4-.4-.2-.4-.4zm-4 0c0-.2.2-.4.4-.4s.4.2.4.4-.2.4-.4.4-.4-.2-.4-.4zm-3.9 0c0-.2.2-.4.4-.4s.4.2.4.4-.2.4-.4.4c-.3 0-.4-.2-.4-.4zm-4 0c0-.2.2-.4.4-.4s.4.2.4.4-.2.4-.4.4-.4-.2-.4-.4zm-4 0c0-.2.2-.4.4-.4s.4.2.4.4-.2.4-.4.4-.4-.2-.4-.4zm-3.9 0c0-.2.2-.4.4-.4s.4.2.4.4-.2.4-.4.4c-.3 0-.4-.2-.4-.4zm-4 0c0-.2.2-.4.4-.4s.4.2.4.4-.2.4-.4.4-.4-.2-.4-.4zm-4 0c0-.2.2-.4.4-.4s.4.2.4.4-.2.4-.4.4-.4-.2-.4-.4zm-3.9 0c0-.2.2-.4.4-.4s.4.2.4.4-.2.4-.4.4-.4-.2-.4-.4zm-4 0c0-.2.2-.4.4-.4s.4.2.4.4-.2.4-.4.4-.4-.2-.4-.4zm-3.9 0c0-.2.2-.4.4-.4s.4.2.4.4-.2.4-.4.4c-.3 0-.4-.2-.4-.4zm-4 0c0-.2.2-.4.4-.4s.4.2.4.4-.2.4-.4.4-.4-.2-.4-.4zm-4 0c0-.2.2-.4.4-.4s.4.2.4.4-.2.4-.4.4-.4-.2-.4-.4zm-3.9 0c0-.2.2-.4.4-.4s.4.2.4.4-.2.4-.4.4-.4-.2-.4-.4zm-4 0c0-.2.2-.4.4-.4s.4.2.4.4-.2.4-.4.4-.4-.2-.4-.4zm-3.9 0c0-.2.2-.4.4-.4s.4.2.4.4-.2.4-.4.4c-.3 0-.4-.2-.4-.4zm-4 0c0-.2.2-.4.4-.4s.4.2.4.4-.2.4-.4.4-.4-.2-.4-.4zm-4 0c0-.2.2-.4.4-.4s.4.2.4.4-.2.4-.4.4-.4-.2-.4-.4zm-3.9 0c0-.2.2-.4.4-.4s.4.2.4.4-.2.4-.4.4c-.3 0-.4-.2-.4-.4zm-4 0c0-.2.2-.4.4-.4s.4.2.4.4-.2.4-.4.4-.4-.2-.4-.4zm-4 0c0-.2.2-.4.4-.4s.4.2.4.4-.2.4-.4.4-.4-.2-.4-.4zm-3.9 0c0-.2.2-.4.4-.4s.4.2.4.4-.2.4-.4.4-.4-.2-.4-.4zm-4 0c0-.2.2-.4.4-.4s.4.2.4.4-.2.4-.4.4-.4-.2-.4-.4zm-3.9 0c0-.2.2-.4.4-.4s.4.2.4.4-.2.4-.4.4c-.3 0-.4-.2-.4-.4zm-4 0c0-.2.2-.4.4-.4s.4.2.4.4-.2.4-.4.4-.4-.2-.4-.4zm-4 0c0-.2.2-.4.4-.4s.4.2.4.4-.2.4-.4.4-.4-.2-.4-.4zm-3.9 0c0-.2.2-.4.4-.4s.4.2.4.4-.2.4-.4.4c-.3 0-.4-.2-.4-.4zm-4 0c0-.2.2-.4.4-.4s.4.2.4.4-.2.4-.4.4-.4-.2-.4-.4zm-4 0c0-.2.2-.4.4-.4s.4.2.4.4-.2.4-.4.4-.4-.2-.4-.4zm-3.9 0c0-.2.2-.4.4-.4.3 0 .4.2.4.4s-.2.4-.4.4-.4-.2-.4-.4zm435.8 54.5c0-.2.2-.4.4-.4.3 0 .4.2.4.4 0 .3-.2.4-.4.4-.2.1-.4-.1-.4-.4zm-3.9 0c0-.2.2-.4.4-.4.3 0 .4.2.4.4 0 .3-.2.4-.4.4-.3.1-.4-.1-.4-.4zm-4 0c0-.2.2-.4.4-.4.3 0 .4.2.4.4 0 .3-.2.4-.4.4-.2.1-.4-.1-.4-.4zm-4 0c0-.2.2-.4.4-.4.3 0 .4.2.4.4 0 .3-.2.4-.4.4-.2.1-.4-.1-.4-.4zm-3.9 0c0-.2.2-.4.4-.4.3 0 .4.2.4.4 0 .3-.2.4-.4.4-.3.1-.4-.1-.4-.4zm-4 0c0-.2.2-.4.4-.4s.4.2.4.4c0 .3-.2.4-.4.4-.2.1-.4-.1-.4-.4zm-4 0c0-.2.2-.4.4-.4.3 0 .4.2.4.4 0 .3-.2.4-.4.4-.2.1-.4-.1-.4-.4zm-3.9 0c0-.2.2-.4.4-.4s.4.2.4.4c0 .3-.2.4-.4.4-.2.1-.4-.1-.4-.4zm-4 0c0-.2.2-.4.4-.4.3 0 .4.2.4.4 0 .3-.2.4-.4.4-.2.1-.4-.1-.4-.4zm-3.9 0c0-.2.2-.4.4-.4s.4.2.4.4c0 .3-.2.4-.4.4-.3.1-.4-.1-.4-.4zm-4 0c0-.2.2-.4.4-.4.3 0 .4.2.4.4 0 .3-.2.4-.4.4-.2.1-.4-.1-.4-.4zm-4 0c0-.2.2-.4.4-.4s.4.2.4.4c0 .3-.2.4-.4.4-.2.1-.4-.1-.4-.4zm-3.9 0c0-.2.2-.4.4-.4.3 0 .4.2.4.4 0 .3-.2.4-.4.4-.3.1-.4-.1-.4-.4zm-4 0c0-.2.2-.4.4-.4s.4.2.4.4c0 .3-.2.4-.4.4-.2.1-.4-.1-.4-.4zm-4 0c0-.2.2-.4.4-.4.3 0 .4.2.4.4 0 .3-.2.4-.4.4-.2.1-.4-.1-.4-.4zm-3.9 0c0-.2.2-.4.4-.4s.4.2.4.4c0 .3-.2.4-.4.4-.2.1-.4-.1-.4-.4zm-4 0c0-.2.2-.4.4-.4s.4.2.4.4c0 .3-.2.4-.4.4-.2.1-.4-.1-.4-.4zm-3.9 0c0-.2.2-.4.4-.4.3 0 .4.2.4.4 0 .3-.2.4-.4.4-.3.1-.4-.1-.4-.4zm-4 0c0-.2.2-.4.4-.4s.4.2.4.4c0 .3-.2.4-.4.4-.2.1-.4-.1-.4-.4zm-4 0c0-.2.2-.4.4-.4.3 0 .4.2.4.4 0 .3-.2.4-.4.4-.2.1-.4-.1-.4-.4zm-3.9 0c0-.2.2-.4.4-.4s.4.2.4.4c0 .3-.2.4-.4.4-.3.1-.4-.1-.4-.4zm-4 0c0-.2.2-.4.4-.4.3 0 .4.2.4.4 0 .3-.2.4-.4.4-.2.1-.4-.1-.4-.4zm-4 0c0-.2.2-.4.4-.4s.4.2.4.4c0 .3-.2.4-.4.4-.2.1-.4-.1-.4-.4zm-3.9 0c0-.2.2-.4.4-.4.3 0 .4.2.4.4 0 .3-.2.4-.4.4-.2.1-.4-.1-.4-.4zm-4 0c0-.2.2-.4.4-.4s.4.2.4.4c0 .3-.2.4-.4.4-.2.1-.4-.1-.4-.4zm-3.9 0c0-.2.2-.4.4-.4.3 0 .4.2.4.4 0 .3-.2.4-.4.4-.3.1-.4-.1-.4-.4zm-4 0c0-.2.2-.4.4-.4s.4.2.4.4c0 .3-.2.4-.4.4-.2.1-.4-.1-.4-.4zm-4 0c0-.2.2-.4.4-.4.3 0 .4.2.4.4 0 .3-.2.4-.4.4-.2.1-.4-.1-.4-.4zm-3.9 0c0-.2.2-.4.4-.4.3 0 .4.2.4.4 0 .3-.2.4-.4.4-.2.1-.4-.1-.4-.4zm-4 0c0-.2.2-.4.4-.4s.4.2.4.4c0 .3-.2.4-.4.4-.2.1-.4-.1-.4-.4zm-3.9 0c0-.2.2-.4.4-.4.3 0 .4.2.4.4 0 .3-.2.4-.4.4-.3.1-.4-.1-.4-.4zm-4 0c0-.2.2-.4.4-.4s.4.2.4.4c0 .3-.2.4-.4.4-.2.1-.4-.1-.4-.4zm-4 0c0-.2.2-.4.4-.4.3 0 .4.2.4.4 0 .3-.2.4-.4.4-.2.1-.4-.1-.4-.4zm-3.9 0c0-.2.2-.4.4-.4s.4.2.4.4c0 .3-.2.4-.4.4-.3.1-.4-.1-.4-.4zm-4 0c0-.2.2-.4.4-.4.3 0 .4.2.4.4 0 .3-.2.4-.4.4-.2.1-.4-.1-.4-.4zm-4 0c0-.2.2-.4.4-.4s.4.2.4.4c0 .3-.2.4-.4.4-.2.1-.4-.1-.4-.4zm-3.9 0c0-.2.2-.4.4-.4.3 0 .4.2.4.4 0 .3-.2.4-.4.4-.2.1-.4-.1-.4-.4zm-4 0c0-.2.2-.4.4-.4s.4.2.4.4c0 .3-.2.4-.4.4-.2.1-.4-.1-.4-.4zm-3.9 0c0-.2.2-.4.4-.4.3 0 .4.2.4.4 0 .3-.2.4-.4.4-.3.1-.4-.1-.4-.4zm-4 0c0-.2.2-.4.4-.4s.4.2.4.4c0 .3-.2.4-.4.4-.2.1-.4-.1-.4-.4zm-4 0c0-.2.2-.4.4-.4s.4.2.4.4c0 .3-.2.4-.4.4-.2.1-.4-.1-.4-.4zm-3.9 0c0-.2.2-.4.4-.4s.4.2.4.4c0 .3-.2.4-.4.4-.3.1-.4-.1-.4-.4zm-4 0c0-.2.2-.4.4-.4s.4.2.4.4c0 .3-.2.4-.4.4-.2.1-.4-.1-.4-.4zm-4 0c0-.2.2-.4.4-.4s.4.2.4.4c0 .3-.2.4-.4.4-.2.1-.4-.1-.4-.4zm-3.9 0c0-.2.2-.4.4-.4s.4.2.4.4c0 .3-.2.4-.4.4-.2.1-.4-.1-.4-.4zm-4 0c0-.2.2-.4.4-.4s.4.2.4.4c0 .3-.2.4-.4.4-.2.1-.4-.1-.4-.4zm-3.9 0c0-.2.2-.4.4-.4s.4.2.4.4c0 .3-.2.4-.4.4-.3.1-.4-.1-.4-.4zm-4 0c0-.2.2-.4.4-.4s.4.2.4.4c0 .3-.2.4-.4.4-.2.1-.4-.1-.4-.4zm-4 0c0-.2.2-.4.4-.4s.4.2.4.4c0 .3-.2.4-.4.4-.2.1-.4-.1-.4-.4zm-3.9 0c0-.2.2-.4.4-.4.3 0 .4.2.4.4 0 .3-.2.4-.4.4-.3.1-.4-.1-.4-.4zm-4 0c0-.2.2-.4.4-.4s.4.2.4.4c0 .3-.2.4-.4.4-.2.1-.4-.1-.4-.4zm-4 0c0-.2.2-.4.4-.4.3 0 .4.2.4.4 0 .3-.2.4-.4.4-.2.1-.4-.1-.4-.4zm-3.9 0c0-.2.2-.4.4-.4s.4.2.4.4c0 .3-.2.4-.4.4-.2.1-.4-.1-.4-.4zm-4 0c0-.2.2-.4.4-.4s.4.2.4.4c0 .3-.2.4-.4.4-.2.1-.4-.1-.4-.4zm-3.9 0c0-.2.2-.4.4-.4s.4.2.4.4c0 .3-.2.4-.4.4-.3.1-.4-.1-.4-.4zm-4 0c0-.2.2-.4.4-.4s.4.2.4.4c0 .3-.2.4-.4.4-.2.1-.4-.1-.4-.4zm-4 0c0-.2.2-.4.4-.4s.4.2.4.4c0 .3-.2.4-.4.4-.2.1-.4-.1-.4-.4zm-3.9 0c0-.2.2-.4.4-.4s.4.2.4.4c0 .3-.2.4-.4.4-.2.1-.4-.1-.4-.4zm-4 0c0-.2.2-.4.4-.4s.4.2.4.4c0 .3-.2.4-.4.4-.2.1-.4-.1-.4-.4zm-3.9 0c0-.2.2-.4.4-.4s.4.2.4.4c0 .3-.2.4-.4.4-.3.1-.4-.1-.4-.4zm-4 0c0-.2.2-.4.4-.4.3 0 .4.2.4.4 0 .3-.2.4-.4.4-.2.1-.4-.1-.4-.4zm-4 0c0-.2.2-.4.4-.4s.4.2.4.4c0 .3-.2.4-.4.4-.2.1-.4-.1-.4-.4zm-3.9 0c0-.2.2-.4.4-.4.3 0 .4.2.4.4 0 .3-.2.4-.4.4-.3.1-.4-.1-.4-.4zm-4 0c0-.2.2-.4.4-.4s.4.2.4.4c0 .3-.2.4-.4.4-.2.1-.4-.1-.4-.4zm-4 0c0-.2.2-.4.4-.4s.4.2.4.4c0 .3-.2.4-.4.4-.2.1-.4-.1-.4-.4zm-3.9 0c0-.2.2-.4.4-.4s.4.2.4.4c0 .3-.2.4-.4.4-.2.1-.4-.1-.4-.4zm-4 0c0-.2.2-.4.4-.4s.4.2.4.4c0 .3-.2.4-.4.4-.2.1-.4-.1-.4-.4zm-3.9 0c0-.2.2-.4.4-.4s.4.2.4.4c0 .3-.2.4-.4.4-.3.1-.4-.1-.4-.4zm-4 0c0-.2.2-.4.4-.4s.4.2.4.4c0 .3-.2.4-.4.4-.2.1-.4-.1-.4-.4zm-4 0c0-.2.2-.4.4-.4s.4.2.4.4c0 .3-.2.4-.4.4-.2.1-.4-.1-.4-.4zm-3.9 0c0-.2.2-.4.4-.4s.4.2.4.4c0 .3-.2.4-.4.4-.3.1-.4-.1-.4-.4zm-4 0c0-.2.2-.4.4-.4s.4.2.4.4c0 .3-.2.4-.4.4-.2.1-.4-.1-.4-.4zm-4 0c0-.2.2-.4.4-.4s.4.2.4.4c0 .3-.2.4-.4.4-.2.1-.4-.1-.4-.4zm-3.9 0c0-.2.2-.4.4-.4.3 0 .4.2.4.4 0 .3-.2.4-.4.4-.2.1-.4-.1-.4-.4zm-4 0c0-.2.2-.4.4-.4s.4.2.4.4c0 .3-.2.4-.4.4-.2.1-.4-.1-.4-.4zm-3.9 0c0-.2.2-.4.4-.4s.4.2.4.4c0 .3-.2.4-.4.4-.3.1-.4-.1-.4-.4zm-4 0c0-.2.2-.4.4-.4s.4.2.4.4c0 .3-.2.4-.4.4-.2.1-.4-.1-.4-.4zm-4 0c0-.2.2-.4.4-.4s.4.2.4.4c0 .3-.2.4-.4.4-.2.1-.4-.1-.4-.4zm-3.9 0c0-.2.2-.4.4-.4s.4.2.4.4c0 .3-.2.4-.4.4-.3.1-.4-.1-.4-.4zm-4 0c0-.2.2-.4.4-.4s.4.2.4.4c0 .3-.2.4-.4.4-.2.1-.4-.1-.4-.4zm-4 0c0-.2.2-.4.4-.4s.4.2.4.4c0 .3-.2.4-.4.4-.2.1-.4-.1-.4-.4zm-3.9 0c0-.2.2-.4.4-.4s.4.2.4.4c0 .3-.2.4-.4.4-.2.1-.4-.1-.4-.4zm-4 0c0-.2.2-.4.4-.4s.4.2.4.4c0 .3-.2.4-.4.4-.2.1-.4-.1-.4-.4zm-3.9 0c0-.2.2-.4.4-.4s.4.2.4.4c0 .3-.2.4-.4.4-.3.1-.4-.1-.4-.4zm-4 0c0-.2.2-.4.4-.4s.4.2.4.4c0 .3-.2.4-.4.4-.2.1-.4-.1-.4-.4zm-4 0c0-.2.2-.4.4-.4s.4.2.4.4c0 .3-.2.4-.4.4-.2.1-.4-.1-.4-.4zm-3.9 0c0-.2.2-.4.4-.4s.4.2.4.4c0 .3-.2.4-.4.4-.3.1-.4-.1-.4-.4zm-4 0c0-.2.2-.4.4-.4s.4.2.4.4c0 .3-.2.4-.4.4-.2.1-.4-.1-.4-.4zm-4 0c0-.2.2-.4.4-.4s.4.2.4.4c0 .3-.2.4-.4.4-.2.1-.4-.1-.4-.4zm-3.9 0c0-.2.2-.4.4-.4s.4.2.4.4c0 .3-.2.4-.4.4-.2.1-.4-.1-.4-.4zm-4 0c0-.2.2-.4.4-.4s.4.2.4.4c0 .3-.2.4-.4.4-.2.1-.4-.1-.4-.4zm-3.9 0c0-.2.2-.4.4-.4s.4.2.4.4c0 .3-.2.4-.4.4-.3.1-.4-.1-.4-.4zm-4 0c0-.2.2-.4.4-.4s.4.2.4.4c0 .3-.2.4-.4.4-.2.1-.4-.1-.4-.4zm-4 0c0-.2.2-.4.4-.4s.4.2.4.4c0 .3-.2.4-.4.4-.2.1-.4-.1-.4-.4zm-3.9 0c0-.2.2-.4.4-.4s.4.2.4.4c0 .3-.2.4-.4.4-.2.1-.4-.1-.4-.4zm-4 0c0-.2.2-.4.4-.4s.4.2.4.4c0 .3-.2.4-.4.4-.2.1-.4-.1-.4-.4zm-3.9 0c0-.2.2-.4.4-.4s.4.2.4.4c0 .3-.2.4-.4.4-.3.1-.4-.1-.4-.4zm-4 0c0-.2.2-.4.4-.4s.4.2.4.4c0 .3-.2.4-.4.4-.2.1-.4-.1-.4-.4zm-4 0c0-.2.2-.4.4-.4s.4.2.4.4c0 .3-.2.4-.4.4-.2.1-.4-.1-.4-.4zm-3.9 0c0-.2.2-.4.4-.4s.4.2.4.4c0 .3-.2.4-.4.4-.3.1-.4-.1-.4-.4zm-4 0c0-.2.2-.4.4-.4s.4.2.4.4c0 .3-.2.4-.4.4-.2.1-.4-.1-.4-.4zm-4 0c0-.2.2-.4.4-.4s.4.2.4.4c0 .3-.2.4-.4.4-.2.1-.4-.1-.4-.4zm-3.9 0c0-.2.2-.4.4-.4s.4.2.4.4c0 .3-.2.4-.4.4-.2.1-.4-.1-.4-.4zm-4 0c0-.2.2-.4.4-.4s.4.2.4.4c0 .3-.2.4-.4.4-.2.1-.4-.1-.4-.4zm-3.9 0c0-.2.2-.4.4-.4s.4.2.4.4c0 .3-.2.4-.4.4-.3.1-.4-.1-.4-.4zm-4 0c0-.2.2-.4.4-.4s.4.2.4.4c0 .3-.2.4-.4.4-.2.1-.4-.1-.4-.4zm-4 0c0-.2.2-.4.4-.4s.4.2.4.4c0 .3-.2.4-.4.4-.2.1-.4-.1-.4-.4zm-3.9 0c0-.2.2-.4.4-.4s.4.2.4.4c0 .3-.2.4-.4.4-.3.1-.4-.1-.4-.4zm-4 0c0-.2.2-.4.4-.4s.4.2.4.4c0 .3-.2.4-.4.4-.2.1-.4-.1-.4-.4zm-4 0c0-.2.2-.4.4-.4s.4.2.4.4c0 .3-.2.4-.4.4-.2.1-.4-.1-.4-.4zm-3.9 0c0-.2.2-.4.4-.4.3 0 .4.2.4.4 0 .3-.2.4-.4.4-.2.1-.4-.1-.4-.4zm435.8 54.2c0-.3.2-.4.4-.4.3 0 .4.2.4.4s-.2.4-.4.4-.4-.1-.4-.4zm-3.9 0c0-.3.2-.4.4-.4.3 0 .4.2.4.4s-.2.4-.4.4c-.3 0-.4-.1-.4-.4zm-4 0c0-.3.2-.4.4-.4.3 0 .4.2.4.4s-.2.4-.4.4-.4-.1-.4-.4zm-4 0c0-.3.2-.4.4-.4.3 0 .4.2.4.4s-.2.4-.4.4-.4-.1-.4-.4zm-3.9 0c0-.3.2-.4.4-.4.3 0 .4.2.4.4s-.2.4-.4.4c-.3 0-.4-.1-.4-.4zm-4 0c0-.3.2-.4.4-.4s.4.2.4.4-.2.4-.4.4-.4-.1-.4-.4zm-4 0c0-.3.2-.4.4-.4.3 0 .4.2.4.4s-.2.4-.4.4-.4-.1-.4-.4zm-3.9 0c0-.3.2-.4.4-.4.3 0 .4.2.4.4s-.2.4-.4.4-.4-.1-.4-.4zm-4 0c0-.3.2-.4.4-.4.3 0 .4.2.4.4s-.2.4-.4.4-.4-.1-.4-.4zm-3.9 0c0-.3.2-.4.4-.4.3 0 .4.2.4.4s-.2.4-.4.4c-.3 0-.4-.1-.4-.4zm-4 0c0-.3.2-.4.4-.4.3 0 .4.2.4.4s-.2.4-.4.4-.4-.1-.4-.4zm-4 0c0-.3.2-.4.4-.4.3 0 .4.2.4.4s-.2.4-.4.4-.4-.1-.4-.4zm-3.9 0c0-.3.2-.4.4-.4.3 0 .4.2.4.4s-.2.4-.4.4c-.3 0-.4-.1-.4-.4zm-4 0c0-.3.2-.4.4-.4.3 0 .4.2.4.4s-.2.4-.4.4-.4-.1-.4-.4zm-4 0c0-.3.2-.4.4-.4.3 0 .4.2.4.4s-.2.4-.4.4-.4-.1-.4-.4zm-3.9 0c0-.3.2-.4.4-.4.3 0 .4.2.4.4s-.2.4-.4.4-.4-.1-.4-.4zm-4 0c0-.3.2-.4.4-.4.3 0 .4.2.4.4s-.2.4-.4.4-.4-.1-.4-.4zm-3.9 0c0-.3.2-.4.4-.4.3 0 .4.2.4.4s-.2.4-.4.4c-.3 0-.4-.1-.4-.4zm-4 0c0-.3.2-.4.4-.4.3 0 .4.2.4.4s-.2.4-.4.4-.4-.1-.4-.4zm-4 0c0-.3.2-.4.4-.4.3 0 .4.2.4.4s-.2.4-.4.4-.4-.1-.4-.4zm-3.9 0c0-.3.2-.4.4-.4.3 0 .4.2.4.4s-.2.4-.4.4c-.3 0-.4-.1-.4-.4zm-4 0c0-.3.2-.4.4-.4.3 0 .4.2.4.4s-.2.4-.4.4-.4-.1-.4-.4zm-4 0c0-.3.2-.4.4-.4.3 0 .4.2.4.4s-.2.4-.4.4-.4-.1-.4-.4zm-3.9 0c0-.3.2-.4.4-.4.3 0 .4.2.4.4s-.2.4-.4.4-.4-.1-.4-.4zm-4 0c0-.3.2-.4.4-.4.3 0 .4.2.4.4s-.2.4-.4.4-.4-.1-.4-.4zm-3.9 0c0-.3.2-.4.4-.4s.4.2.4.4-.2.4-.4.4c-.3 0-.4-.1-.4-.4zm-4 0c0-.3.2-.4.4-.4s.4.2.4.4-.2.4-.4.4-.4-.1-.4-.4zm-4 0c0-.3.2-.4.4-.4s.4.2.4.4-.2.4-.4.4-.4-.1-.4-.4zm-3.9 0c0-.3.2-.4.4-.4s.4.2.4.4-.2.4-.4.4-.4-.1-.4-.4zm-4 0c0-.3.2-.4.4-.4s.4.2.4.4-.2.4-.4.4-.4-.1-.4-.4zm-3.9 0c0-.3.2-.4.4-.4s.4.2.4.4-.2.4-.4.4c-.3 0-.4-.1-.4-.4zm-4 0c0-.3.2-.4.4-.4s.4.2.4.4-.2.4-.4.4-.4-.1-.4-.4zm-4 0c0-.3.2-.4.4-.4s.4.2.4.4-.2.4-.4.4-.4-.1-.4-.4zm-3.9 0c0-.3.2-.4.4-.4s.4.2.4.4-.2.4-.4.4c-.3 0-.4-.1-.4-.4zm-4 0c0-.3.2-.4.4-.4s.4.2.4.4-.2.4-.4.4-.4-.1-.4-.4zm-4 0c0-.3.2-.4.4-.4s.4.2.4.4-.2.4-.4.4-.4-.1-.4-.4zm-3.9 0c0-.3.2-.4.4-.4s.4.2.4.4-.2.4-.4.4-.4-.1-.4-.4zm-4 0c0-.3.2-.4.4-.4s.4.2.4.4-.2.4-.4.4-.4-.1-.4-.4zm-3.9 0c0-.3.2-.4.4-.4s.4.2.4.4-.2.4-.4.4c-.3 0-.4-.1-.4-.4zm-4 0c0-.3.2-.4.4-.4s.4.2.4.4-.2.4-.4.4-.4-.1-.4-.4zm-4 0c0-.3.2-.4.4-.4s.4.2.4.4-.2.4-.4.4-.4-.1-.4-.4zm-3.9 0c0-.3.2-.4.4-.4s.4.2.4.4-.2.4-.4.4c-.3 0-.4-.1-.4-.4zm-4 0c0-.3.2-.4.4-.4s.4.2.4.4-.2.4-.4.4-.4-.1-.4-.4zm-4 0c0-.3.2-.4.4-.4s.4.2.4.4-.2.4-.4.4-.4-.1-.4-.4zm-3.9 0c0-.3.2-.4.4-.4s.4.2.4.4-.2.4-.4.4-.4-.1-.4-.4zm-4 0c0-.3.2-.4.4-.4s.4.2.4.4-.2.4-.4.4-.4-.1-.4-.4zm-3.9 0c0-.3.2-.4.4-.4s.4.2.4.4-.2.4-.4.4c-.3 0-.4-.1-.4-.4zm-4 0c0-.3.2-.4.4-.4s.4.2.4.4-.2.4-.4.4-.4-.1-.4-.4zm-4 0c0-.3.2-.4.4-.4s.4.2.4.4-.2.4-.4.4-.4-.1-.4-.4zm-3.9 0c0-.3.2-.4.4-.4s.4.2.4.4-.2.4-.4.4c-.3 0-.4-.1-.4-.4zm-4 0c0-.3.2-.4.4-.4s.4.2.4.4-.2.4-.4.4-.4-.1-.4-.4zm-4 0c0-.3.2-.4.4-.4s.4.2.4.4-.2.4-.4.4-.4-.1-.4-.4zm-3.9 0c0-.3.2-.4.4-.4s.4.2.4.4-.2.4-.4.4-.4-.1-.4-.4zm-4 0c0-.3.2-.4.4-.4s.4.2.4.4-.2.4-.4.4-.4-.1-.4-.4zm-3.9 0c0-.3.2-.4.4-.4.3 0 .4.2.4.4s-.2.4-.4.4c-.3 0-.4-.1-.4-.4zm-4 0c0-.3.2-.4.4-.4.3 0 .4.2.4.4s-.2.4-.4.4-.4-.1-.4-.4zm-4 0c0-.3.2-.4.4-.4.3 0 .4.2.4.4s-.2.4-.4.4-.4-.1-.4-.4zm-3.9 0c0-.3.2-.4.4-.4.3 0 .4.2.4.4s-.2.4-.4.4-.4-.1-.4-.4zm-4 0c0-.3.2-.4.4-.4.3 0 .4.2.4.4s-.2.4-.4.4-.4-.1-.4-.4zm-3.9 0c0-.3.2-.4.4-.4.3 0 .4.2.4.4s-.2.4-.4.4c-.3 0-.4-.1-.4-.4zm-4 0c0-.3.2-.4.4-.4.3 0 .4.2.4.4s-.2.4-.4.4-.4-.1-.4-.4zm-4 0c0-.3.2-.4.4-.4.3 0 .4.2.4.4s-.2.4-.4.4-.4-.1-.4-.4zm-3.9 0c0-.3.2-.4.4-.4s.4.2.4.4-.2.4-.4.4c-.3 0-.4-.1-.4-.4zm-4 0c0-.3.2-.4.4-.4s.4.2.4.4-.2.4-.4.4-.4-.1-.4-.4zm-4 0c0-.3.2-.4.4-.4s.4.2.4.4-.2.4-.4.4-.4-.1-.4-.4zm-3.9 0c0-.3.2-.4.4-.4s.4.2.4.4-.2.4-.4.4-.4-.1-.4-.4zm-4 0c0-.3.2-.4.4-.4s.4.2.4.4-.2.4-.4.4-.4-.1-.4-.4zm-3.9 0c0-.3.2-.4.4-.4s.4.2.4.4-.2.4-.4.4c-.3 0-.4-.1-.4-.4zm-4 0c0-.3.2-.4.4-.4s.4.2.4.4-.2.4-.4.4-.4-.1-.4-.4zm-4 0c0-.3.2-.4.4-.4s.4.2.4.4-.2.4-.4.4-.4-.1-.4-.4zm-3.9 0c0-.3.2-.4.4-.4s.4.2.4.4-.2.4-.4.4c-.3 0-.4-.1-.4-.4zm-4 0c0-.3.2-.4.4-.4s.4.2.4.4-.2.4-.4.4-.4-.1-.4-.4zm-4 0c0-.3.2-.4.4-.4s.4.2.4.4-.2.4-.4.4-.4-.1-.4-.4zm-3.9 0c0-.3.2-.4.4-.4s.4.2.4.4-.2.4-.4.4-.4-.1-.4-.4zm-4 0c0-.3.2-.4.4-.4s.4.2.4.4-.2.4-.4.4-.4-.1-.4-.4zm-3.9 0c0-.3.2-.4.4-.4s.4.2.4.4-.2.4-.4.4c-.3 0-.4-.1-.4-.4zm-4 0c0-.3.2-.4.4-.4s.4.2.4.4-.2.4-.4.4-.4-.1-.4-.4zm-4 0c0-.3.2-.4.4-.4s.4.2.4.4-.2.4-.4.4-.4-.1-.4-.4zm-3.9 0c0-.3.2-.4.4-.4s.4.2.4.4-.2.4-.4.4c-.3 0-.4-.1-.4-.4zm-4 0c0-.3.2-.4.4-.4s.4.2.4.4-.2.4-.4.4-.4-.1-.4-.4zm-4 0c0-.3.2-.4.4-.4s.4.2.4.4-.2.4-.4.4-.4-.1-.4-.4zm-3.9 0c0-.3.2-.4.4-.4s.4.2.4.4-.2.4-.4.4-.4-.1-.4-.4zm-4 0c0-.3.2-.4.4-.4s.4.2.4.4-.2.4-.4.4-.4-.1-.4-.4zm-3.9 0c0-.3.2-.4.4-.4s.4.2.4.4-.2.4-.4.4c-.3 0-.4-.1-.4-.4zm-4 0c0-.3.2-.4.4-.4s.4.2.4.4-.2.4-.4.4-.4-.1-.4-.4zm-4 0c0-.3.2-.4.4-.4s.4.2.4.4-.2.4-.4.4-.4-.1-.4-.4zm-3.9 0c0-.3.2-.4.4-.4s.4.2.4.4-.2.4-.4.4c-.3 0-.4-.1-.4-.4zm-4 0c0-.3.2-.4.4-.4s.4.2.4.4-.2.4-.4.4-.4-.1-.4-.4zm-4 0c0-.3.2-.4.4-.4s.4.2.4.4-.2.4-.4.4-.4-.1-.4-.4zm-3.9 0c0-.3.2-.4.4-.4s.4.2.4.4-.2.4-.4.4-.4-.1-.4-.4zm-4 0c0-.3.2-.4.4-.4s.4.2.4.4-.2.4-.4.4-.4-.1-.4-.4zm-3.9 0c0-.3.2-.4.4-.4s.4.2.4.4-.2.4-.4.4c-.3 0-.4-.1-.4-.4zm-4 0c0-.3.2-.4.4-.4s.4.2.4.4-.2.4-.4.4-.4-.1-.4-.4zm-4 0c0-.3.2-.4.4-.4s.4.2.4.4-.2.4-.4.4-.4-.1-.4-.4zm-3.9 0c0-.3.2-.4.4-.4s.4.2.4.4-.2.4-.4.4-.4-.1-.4-.4zm-4 0c0-.3.2-.4.4-.4s.4.2.4.4-.2.4-.4.4-.4-.1-.4-.4zm-3.9 0c0-.3.2-.4.4-.4s.4.2.4.4-.2.4-.4.4c-.3 0-.4-.1-.4-.4zm-4 0c0-.3.2-.4.4-.4s.4.2.4.4-.2.4-.4.4-.4-.1-.4-.4zm-4 0c0-.3.2-.4.4-.4s.4.2.4.4-.2.4-.4.4-.4-.1-.4-.4zm-3.9 0c0-.3.2-.4.4-.4s.4.2.4.4-.2.4-.4.4c-.3 0-.4-.1-.4-.4zm-4 0c0-.3.2-.4.4-.4s.4.2.4.4-.2.4-.4.4-.4-.1-.4-.4zm-4 0c0-.3.2-.4.4-.4s.4.2.4.4-.2.4-.4.4-.4-.1-.4-.4zm-3.9 0c0-.3.2-.4.4-.4s.4.2.4.4-.2.4-.4.4-.4-.1-.4-.4zm-4 0c0-.3.2-.4.4-.4s.4.2.4.4-.2.4-.4.4-.4-.1-.4-.4zm-3.9 0c0-.3.2-.4.4-.4s.4.2.4.4-.2.4-.4.4c-.3 0-.4-.1-.4-.4zm-4 0c0-.3.2-.4.4-.4s.4.2.4.4-.2.4-.4.4-.4-.1-.4-.4zm-4 0c0-.3.2-.4.4-.4s.4.2.4.4-.2.4-.4.4-.4-.1-.4-.4zm-3.9 0c0-.3.2-.4.4-.4s.4.2.4.4-.2.4-.4.4c-.3 0-.4-.1-.4-.4zm-4 0c0-.3.2-.4.4-.4s.4.2.4.4-.2.4-.4.4-.4-.1-.4-.4zm-4 0c0-.3.2-.4.4-.4s.4.2.4.4-.2.4-.4.4-.4-.1-.4-.4zm-3.9 0c0-.3.2-.4.4-.4.3 0 .4.2.4.4s-.2.4-.4.4-.4-.1-.4-.4z"/><path class="st1" d="M355 143.3L214.6 98l-59.7-5.5h-.1L88 67.4l-41.1-5.1.1-.9 41.2 5.1.1.1 66.8 25 59.7 5.5L355 142.3l69.8-32.1.4.7z"/><path class="st2" d="M349.5 191.9h-.1l-112.5-14-79 1.5-112.3-13.3.2-.9 112.1 13.3 79-1.5h.1l112.5 14 79.6-15 .2.8z"/><path class="st3" d="M49.7 230.5c0-.7-.5-1.2-1.4-1.2-.7 0-1.2.4-1.2.7v.4h-1v-.7c0-1 1.3-1.4 2.2-1.4 1.4 0 2.4.9 2.4 2.2 0 2.6-3.9 2.7-3.9 4.4 0 .1.1.2.3.2H50c.1 0 .2-.1.2-.2v-.5h1v1c0 .5-.2.7-.7.7h-3.9c-.6 0-.7-.3-.7-.9-.1-2.8 3.8-2.6 3.8-4.7zm3.6 1.8c0-2.2.7-4 2.7-4s2.7 1.8 2.7 4-.7 4-2.7 4-2.7-1.8-2.7-4zm4.3 0c0-1.7-.4-2.9-1.6-2.9-1.3 0-1.6 1.3-1.6 2.9 0 1.7.4 3 1.6 3 1.2-.1 1.6-1.4 1.6-3zm3.3 2.9h1.7v-5.5s-.1.2-.4.4l-.7.7-.7-.7 1.8-1.8h1v6.7h1.7v.9h-4.4v-.7zm10.2-4.7c0-.7-.5-1.2-1.4-1.2-.7 0-1.2.4-1.2.7v.4h-1v-.7c0-1 1.3-1.4 2.2-1.4 1.4 0 2.4.9 2.4 2.2 0 2.6-3.9 2.7-3.9 4.4 0 .1.1.2.3.2h2.7c.1 0 .2-.1.2-.2v-.5h1v1c0 .5-.2.7-.7.7h-3.9c-.6 0-.7-.3-.7-.9.1-2.8 4-2.6 4-4.7zm56.9 0c0-.7-.5-1.2-1.4-1.2-.7 0-1.2.4-1.2.7v.4h-1v-.7c0-1 1.3-1.4 2.2-1.4 1.4 0 2.4.9 2.4 2.2 0 2.6-3.9 2.7-3.9 4.4 0 .1.1.2.3.2h2.7c.1 0 .2-.1.2-.2v-.5h1v1c0 .5-.2.7-.7.7h-3.9c-.6 0-.7-.3-.7-.9.1-2.8 4-2.6 4-4.7zm3.5 1.8c0-2.2.7-4 2.7-4s2.7 1.8 2.7 4-.7 4-2.7 4-2.7-1.8-2.7-4zm4.4 0c0-1.7-.4-2.9-1.6-2.9s-1.6 1.3-1.6 2.9c0 1.7.4 3 1.6 3 1.2-.1 1.6-1.4 1.6-3zm3.3 2.9h1.7v-5.5s-.1.2-.4.4l-.7.7-.7-.7 1.8-1.8h1v6.7h1.7v.9h-4.4v-.7zm6.7-.9s.7.9 1.9.9c.8 0 1.5-.6 1.5-1.4 0-.9-.7-1.4-1.7-1.4h-.5l-.2-.6 1.6-2c.2-.3.4-.5.4-.5h-2.2c-.1 0-.2.1-.2.2v.5h-1v-1c0-.5.2-.7.7-.7h4.1v.7l-2 2.4c1 .1 2.2.8 2.2 2.2 0 1.3-1 2.4-2.6 2.4s-2.6-1.1-2.6-1.1l.6-.6zM22.3 199.5c0-2.4.7-4.2 2.9-4.2s2.9 1.9 2.9 4.2c0 2.4-.7 4.3-2.9 4.3s-2.9-1.9-2.9-4.3zm4.6 0c0-1.8-.4-3.2-1.7-3.2-1.4 0-1.7 1.4-1.7 3.2 0 1.8.4 3.2 1.7 3.2 1.4 0 1.7-1.4 1.7-3.2zm-3-52.1s.7.9 1.9.9c1.1 0 1.8-.7 1.8-1.6 0-1-.9-1.7-1.9-1.7-.9 0-1.5.4-1.5.4l-.5-.2.3-3.4c0-.5.2-.7.7-.7h2.9c.5 0 .7.2.7.7v1.1h-1.1v-.5c0-.2-.1-.3-.3-.3h-1.7c-.2 0-.2.1-.3.3l-.2 1.5v.4s.4-.3 1.1-.3c1.8 0 2.9 1.2 2.9 2.7 0 1.5-1.1 2.7-2.9 2.7-1.7 0-2.6-1.1-2.6-1.1l.7-.9zm-7.5-53.3h1.8v-5.8s-.1.2-.4.5l-.8.7-.7-.7 2-1.9h1.1v7.2h1.8v1h-4.8v-1zm6.7-3.1c0-2.4.7-4.2 2.9-4.2s2.9 1.9 2.9 4.2c0 2.4-.7 4.3-2.9 4.3s-2.9-2-2.9-4.3zm4.6 0c0-1.8-.4-3.2-1.7-3.2-1.4 0-1.7 1.4-1.7 3.2 0 1.8.4 3.2 1.7 3.2 1.4 0 1.7-1.4 1.7-3.2zM16.5 40.6h1.8v-5.8s-.1.2-.4.5l-.8.7-.7-.7 2-1.9h1.1v7.2h1.8v1h-4.8v-1zm7.4-.8s.7.9 1.9.9c1.1 0 1.8-.7 1.8-1.6 0-1-.9-1.7-1.9-1.7-.9 0-1.5.4-1.5.4l-.5-.2.3-3.4c0-.5.2-.7.7-.7h2.9c.5 0 .7.2.7.7v1.1h-1.1v-.5c0-.2-.1-.3-.3-.3h-1.7c-.2 0-.2.1-.3.3l-.2 1.5v.4s.4-.3 1.1-.3c1.8 0 2.9 1.2 2.9 2.7 0 1.5-1.1 2.7-2.9 2.7-1.7 0-2.6-1.1-2.6-1.1l.7-.9zm135.4 270.9h-.7v-1h3.4c1.4 0 2.3.9 2.3 2.3 0 1.3-.8 1.9-1.4 2.1 0 0 .2.1.4.4l.9 1.8c.1.2.3.3.6.3h.1v1h-.5c-.6 0-.8-.1-1.1-.6l-1.1-2.1c-.2-.4-.4-.4-.8-.4h-1v3.1h-1.1v-6.9zm2.6 2.8c.8 0 1.3-.5 1.3-1.4 0-.9-.5-1.4-1.3-1.4h-1.5v2.8h1.5zm7.4-1.7c1.6 0 2.4 1.2 2.4 2.6v.4h-4.1c.1 1.2.9 1.8 1.9 1.8 1 0 1.6-.7 1.6-.7l.5.7s-.8.8-2.2.8c-1.8 0-3-1.3-3-2.9 0-1.5 1.2-2.7 2.9-2.7zm1.2 2.3c0-.9-.6-1.4-1.3-1.4-.8 0-1.5.5-1.6 1.4h2.9zm6.2-2.3c.7 0 2 .3 2 1.2v.6h-1v-.3c0-.4-.6-.6-1.1-.6-1.1 0-1.9.8-1.9 2 0 1.3.9 2 2 2s1.7-.8 1.7-.8l.5.7s-.8 1-2.3 1c-1.8 0-3-1.2-3-2.9.1-1.6 1.3-2.9 3.1-2.9zm7 0c1.7 0 3 1.2 3 2.9s-1.4 2.9-3 2.9c-1.7 0-3-1.2-3-2.9s1.3-2.9 3-2.9zm0 5c1.1 0 1.9-.8 1.9-2 0-1.1-.9-2-1.9-2s-1.9.8-1.9 2c0 1.1.8 2 1.9 2zm5.5-3.7c0-.2-.1-.3-.3-.3h-.4v-.9h1c.5 0 .7.2.7.7v.8c.3-.8.9-1.5 1.8-1.5h.3v1.1h-.3c-.7 0-1.3.5-1.6 1.3-.1.3-.1.7-.1 1v2.3h-1.1v-4.5zm7.1-1.3c1.3 0 1.7.9 1.7.9v-1.8c0-.2-.1-.3-.3-.3h-.4v-.9h1.1c.5 0 .7.2.7.7v5.9c0 .2.1.3.3.3h.4v.9h-1c-.5 0-.7-.2-.7-.6v-.3s-.5 1-1.8 1c-1.5 0-2.5-1.2-2.5-2.9s1-2.9 2.5-2.9zm1.8 2.9c0-1-.5-2-1.6-2-.9 0-1.6.7-1.6 2 0 1.2.7 2 1.6 2 .8.1 1.6-.6 1.6-2zm6.9-.7h.3c0-1-.4-1.3-1.2-1.3-.3 0-.9.1-.9.4v.3h-1v-.6c0-.9 1.4-1.1 1.9-1.1 1.8 0 2.3 1 2.3 2.2v2.4c0 .2.1.3.3.3h.4v.9h-1c-.5 0-.7-.3-.7-.7v-.4s-.4 1.1-1.8 1.1c-1 0-1.9-.6-1.9-1.7-.1-1.6 2.3-1.8 3.3-1.8zm-1.3 2.8c.9 0 1.5-1 1.5-1.8v-.2h-.2c-.8 0-2.3 0-2.3 1.1 0 .5.3.9 1 .9zm5.5-5.9c0-.2-.1-.3-.3-.3h-.4v-.9h1.1c.5 0 .7.2.7.7v2.3s.5-.9 1.8-.9c1.5 0 2.5 1.2 2.5 2.9 0 1.8-1.1 2.9-2.6 2.9-1.2 0-1.8-.9-1.8-.9v.8h-1v-6.6zm2.6 5.9c.9 0 1.6-.7 1.6-2 0-1.2-.7-2-1.6-2-.8 0-1.6.6-1.6 2 0 .9.6 2 1.6 2zm5.1-5.9c0-.2-.1-.3-.3-.3h-.4v-.9h1.1c.5 0 .7.2.7.7v5.9c0 .2.1.3.3.3h.4v.9h-1.1c-.5 0-.7-.2-.7-.7v-5.9zm6.3.9c1.6 0 2.4 1.2 2.4 2.6v.4h-4.1c.1 1.2.9 1.8 1.9 1.8 1 0 1.6-.7 1.6-.7l.5.7s-.8.8-2.2.8c-1.8 0-3-1.3-3-2.9.1-1.5 1.3-2.7 2.9-2.7zm1.4 2.3c0-.9-.6-1.4-1.3-1.4-.8 0-1.5.5-1.6 1.4h2.9zm-66 15.8h.7V324h-.7v-1h2.6v1h-.7v5.9h.7v1h-2.6v-1zm5.1-3.5c0-.2-.1-.3-.3-.3h-.4v-.9h1c.5 0 .7.2.7.6v.5c.2-.5.9-1.3 2.1-1.3 1.3 0 1.9.7 1.9 2.2v2.4c0 .2.1.3.3.3h.4v.9h-1.1c-.5 0-.7-.2-.7-.7v-2.6c0-.8-.2-1.4-1.1-1.4s-1.5.6-1.8 1.4c-.1.2-.1.5-.1.7v2.6h-1.1l.2-4.4zm7.1 5.8c.4 0 1.2-.1 1.2-1.2v-4.6c0-.2-.1-.3-.3-.3h-.4v-.9h1.1c.5 0 .7.2.7.7v5.1c0 1.8-1.5 2.1-2.2 2.1h-.4v-.9h.3zm1.2-9.2h1v1.1h-1V323zm4 3.4c0-.2-.1-.3-.3-.3h-.4v-.9h1.1c.5 0 .7.2.7.7v2.6c0 .8.2 1.4 1.1 1.4 1.1 0 1.8-1 1.8-2.1v-2.6h1.1v4.4c0 .2.1.3.3.3h.4v.9h-1c-.5 0-.7-.2-.7-.6v-.5c-.2.6-1 1.3-2.1 1.3-1.3 0-1.9-.7-1.9-2.2l-.1-2.4zm8 0c0-.2-.1-.3-.3-.3h-.4v-.9h1c.5 0 .7.2.7.7v.8c.3-.8.9-1.5 1.8-1.5h.3v1.1h-.3c-.7 0-1.3.5-1.6 1.3-.1.3-.1.7-.1 1v2.3H184v-4.5zm5.5 0c0-.2-.1-.3-.3-.3h-.4v-.9h1.1c.5 0 .7.2.7.7v3.7c0 .2.1.3.3.3h.4v.9h-1.1c-.5 0-.7-.2-.7-.7v-3.7zm0-3.4h1v1.1h-1V323zm6.3 2.1c1.6 0 2.4 1.2 2.4 2.6v.4h-4.1c.1 1.2.9 1.8 1.9 1.8 1 0 1.6-.7 1.6-.7l.5.7s-.8.8-2.2.8c-1.8 0-3-1.3-3-2.9.1-1.6 1.3-2.7 2.9-2.7zm1.3 2.3c0-.9-.6-1.4-1.3-1.4-.8 0-1.5.5-1.6 1.4h2.9zm3.6 1.9s.7.8 1.7.8c.5 0 1-.2 1-.7 0-1-3-.9-3-2.7 0-1.1.9-1.6 2.1-1.6.7 0 1.8.2 1.8 1.1v.5h-1v-.3c0-.4-.5-.5-.8-.5-.6 0-1.1.2-1.1.7 0 1.1 3 .8 3 2.7 0 1-.9 1.6-2.1 1.6-1.5 0-2.2-1-2.2-1l.6-.6zM304.5 315h-1.7c-.2 0-.3.1-.3.3v.5h-1.1v-1.1c0-.5.2-.7.7-.7h5.7c.5 0 .7.2.7.7v1.1h-1.1v-.5c0-.2-.1-.3-.3-.3h-1.7v7.3h-1.2l.3-7.3zm6.8 0h-.7v-1h3.6c1.5 0 2.5.9 2.5 2.4 0 1.4-.9 2.1-1.5 2.2 0 0 .2.1.4.4l1 2c.1.3.3.3.6.3h.1v1h-.6c-.7 0-.9-.1-1.1-.6l-1.1-2.2c-.2-.4-.4-.4-.8-.4h-1.1v3.3h-1.2l-.1-7.4zm2.7 2.9c.9 0 1.4-.6 1.4-1.5s-.5-1.5-1.4-1.5h-1.5v3h1.5zm5.6-.4c0-.2-.1-.3-.3-.3h-.5v-1h1.1c.5 0 .7.2.7.7v4c0 .2.1.3.3.3h.5v1h-1.1c-.5 0-.7-.2-.7-.7v-4zm0-3.6h1v1.2h-1v-1.2zm4.5 1.1h-.7v-1h4.6c.5 0 .7.2.7.7v1.1h-1.1v-.5c0-.2-.1-.3-.3-.3h-2.1v2.7h2.8v1h-2.8v3.6H324V315zm7.3 0h-.7v-1h3.6c1.5 0 2.5.9 2.5 2.4 0 1.4-.9 2.1-1.5 2.2 0 0 .2.1.4.4l1 2c.1.3.3.3.6.3h.1v1h-.6c-.7 0-.9-.1-1.1-.6l-1.1-2.2c-.2-.4-.4-.4-.8-.4h-1.1v3.3h-1.2l-.1-7.4zm2.7 2.9c.9 0 1.4-.6 1.4-1.5s-.5-1.5-1.4-1.5h-1.5v3h1.5zm-126.7-87.4c0-.7-.5-1.2-1.4-1.2-.7 0-1.2.4-1.2.7v.4h-1v-.7c0-1 1.3-1.4 2.2-1.4 1.4 0 2.4.9 2.4 2.2 0 2.6-3.9 2.7-3.9 4.4 0 .1.1.2.3.2h2.7c.1 0 .2-.1.2-.2v-.5h1v1c0 .5-.2.7-.7.7h-3.9c-.6 0-.7-.3-.7-.9.1-2.8 4-2.6 4-4.7zm3.6 1.8c0-2.2.7-4 2.7-4s2.7 1.8 2.7 4-.7 4-2.7 4-2.7-1.8-2.7-4zm4.3 0c0-1.7-.4-2.9-1.6-2.9-1.3 0-1.6 1.3-1.6 2.9 0 1.7.4 3 1.6 3 1.3-.1 1.6-1.4 1.6-3zm3.3 2.9h1.7v-5.5s-.1.2-.4.4l-.7.7-.7-.7 1.8-1.8h1v6.7h1.7v.9h-4.4v-.7zm5.9-1.8l3.5-4.9h1.2v4.7h1.2v.9h-1.2v2h-1.1v-2h-3.6v-.7zm3.6-2.9v-.8s-.2.4-.4.7l-1.7 2.3c-.2.3-.4.5-.4.5h2.5v-2.7z"/><path class="st2" d="M161.8 259.4c0-.1-.1-.2-.2-.2h-.4v-.8h.9c.4 0 .6.2.6.6v4.9c0 .1.1.2.2.2h1.8c.1 0 .2-.1.2-.2v-.4h.8v.8c0 .4-.2.6-.6.6h-2.8c-.4 0-.6-.2-.6-.6v-4.9zm7.6-1.1h.6l-.4 1.8h-.8l.6-1.8zm.7 5.8h.1c.2 0 .3 0 .3-.2l2-5.5h1l2 5.5c0 .2.1.2.3.2h.1v.8h-.5c-.4 0-.6-.1-.7-.5l-.5-1.3h-2.4l-.5 1.3c-.2.4-.3.5-.7.5h-.5v-.8zm3.9-1.8l-.7-2c-.1-.4-.3-.9-.3-.9s-.1.6-.3.9l-.7 2h2zm3.2-1.1c0-.1-.1-.2-.2-.2h-.4v-.7h.8c.4 0 .6.2.6.5v.5c.2-.4.7-1.1 1.7-1.1 1.1 0 1.6.6 1.6 1.8v2c0 .1.1.2.2.2h.4v.7h-.9c-.4 0-.6-.2-.6-.6v-2.2c0-.7-.1-1.1-.9-1.1-.7 0-1.3.5-1.5 1.1l-.1.6v2.2h-.9l.2-3.7zm7.7-1c1.1 0 1.4.7 1.4.7v-1.4c0-.1-.1-.2-.2-.2h-.4v-.7h.9c.4 0 .6.2.6.6v4.9c0 .1.1.2.2.2h.4v.7h-.8c-.4 0-.6-.2-.6-.5v-.2s-.4.8-1.5.8c-1.2 0-2-1-2-2.4-.1-1.6.8-2.5 2-2.5zm1.5 2.4c0-.8-.4-1.6-1.3-1.6-.7 0-1.3.6-1.3 1.6s.5 1.6 1.3 1.6c.6 0 1.3-.4 1.3-1.6zm5.1-.6h.2c0-.8-.3-1.1-1-1.1-.2 0-.7 0-.7.4v.3h-.8v-.4c0-.7 1.1-.9 1.6-.9 1.5 0 1.9.8 1.9 1.8v2c0 .1.1.2.2.2h.4v.7h-.8c-.4 0-.6-.2-.6-.5v-.3s-.4.9-1.5.9c-.8 0-1.6-.5-1.6-1.4-.1-1.6 1.9-1.7 2.7-1.7zm-1 2.3c.7 0 1.2-.8 1.2-1.5v-.2h-.2c-.7 0-1.8 0-1.8.9-.1.4.2.8.8.8zm4-3.1c0-.1-.1-.2-.2-.2h-.4v-.7h.8c.4 0 .6.2.6.5v.5c.2-.5.8-1.1 1.6-1.1s1.2.4 1.4 1.1c.3-.6.9-1.1 1.6-1.1 1.1 0 1.5.6 1.5 1.8v2c0 .1.1.2.2.2h.4v.7h-.9c-.4 0-.6-.2-.6-.6v-2.2c0-.7-.1-1.1-.8-1.1-.6 0-1.1.6-1.3 1.2l-.1.6v2.1h-.9v-2.8c0-.6-.1-1.1-.8-1.1-.7 0-1.1.6-1.3 1.2v2.7h-.9v-3.7zm10.7-1c1.3 0 2 1 2 2.2v.4h-3.3c0 1 .7 1.5 1.6 1.5.8 0 1.4-.5 1.4-.5l.4.6s-.7.7-1.8.7c-1.5 0-2.5-1.1-2.5-2.4-.1-1.6 1-2.5 2.2-2.5zm1.1 1.8c0-.7-.5-1.2-1.1-1.2-.7 0-1.2.4-1.4 1.2h2.5zm2.5-.8c0-.1-.1-.2-.2-.2h-.4v-.7h.8c.4 0 .6.2.6.5v.5c.2-.4.7-1.1 1.7-1.1 1.1 0 1.6.6 1.6 1.8v2c0 .1.1.2.2.2h.4v.7h-.9c-.4 0-.6-.2-.6-.6v-2.2c0-.7-.1-1.1-.9-1.1-.7 0-1.3.5-1.5 1.1l-.1.6v2.2h-.9l.2-3.7zm6.1-.2h-.6v-.7h.6V259h.9v1.3h1.1v.7h-1.1v2.1c0 .9.6 1.1 1 1.1h.2v.8h-.3c-.6 0-1.8-.2-1.8-1.7V261zm5.5-.8c1.4 0 2.5 1 2.5 2.4s-1.1 2.4-2.5 2.4-2.5-1-2.5-2.4 1.1-2.4 2.5-2.4zm0 4c.9 0 1.6-.7 1.6-1.7s-.7-1.6-1.6-1.6c-.9 0-1.6.7-1.6 1.6 0 1 .7 1.7 1.6 1.7zm8.4-4c1.1 0 1.4.7 1.4.7v-1.4c0-.1-.1-.2-.2-.2h-.4v-.7h.9c.4 0 .6.2.6.6v4.9c0 .1.1.2.2.2h.4v.7h-.8c-.4 0-.6-.2-.6-.5v-.2s-.4.8-1.5.8c-1.2 0-2-1-2-2.4-.1-1.6.7-2.5 2-2.5zm1.4 2.4c0-.8-.4-1.6-1.3-1.6-.7 0-1.3.6-1.3 1.6s.5 1.6 1.3 1.6c.7 0 1.3-.4 1.3-1.6zm4.7-2.4c1.3 0 2 1 2 2.2v.4h-3.3c0 1 .7 1.5 1.6 1.5.8 0 1.4-.5 1.4-.5l.4.6s-.7.7-1.8.7c-1.5 0-2.5-1.1-2.5-2.4-.1-1.6.9-2.5 2.2-2.5zm1.1 1.8c0-.7-.5-1.2-1.1-1.2-.7 0-1.2.4-1.4 1.2h2.5zm4-1.8c1.1 0 1.5.7 1.5.7v-.1c0-.3.1-.5.5-.5h.8v.7h-.4c-.1 0-.2 0-.2.2v3.5c0 1.5-1.1 2.1-2.3 2.1-.6 0-1.1-.2-1.6-.4l.3-.7s.6.3 1.3.3c.8 0 1.5-.4 1.5-1.3v-.6c-.3.4-.7.7-1.4.7-1.3 0-2.1-1-2.1-2.4.1-1.2.8-2.2 2.1-2.2zm1.5 2.3c0-1.2-.6-1.5-1.3-1.5-.8 0-1.3.6-1.3 1.5 0 1 .5 1.6 1.3 1.6.6 0 1.3-.4 1.3-1.6zm2.7-3.1c0-.1-.1-.2-.2-.2h-.4v-.7h.9c.4 0 .6.2.6.6v4.9c0 .1.1.2.2.2h.4v.7h-.9c-.4 0-.6-.2-.6-.6v-4.9zm2.9 1.8c0-.1-.1-.2-.2-.2h-.4v-.7h.9c.4 0 .6.2.6.6v3.1c0 .1.1.2.2.2h.4v.7h-.9c-.4 0-.6-.2-.6-.6v-3.1zm0-2.7h.8v.9h-.8v-.9zm5.6 2.7c0-.1-.1-.2-.2-.2h-.4v-.7h.9c.4 0 .6.2.6.6v3.1c0 .1.1.2.2.2h.4v.7h-.9c-.4 0-.6-.2-.6-.6v-3.1zm.1-2.7h.8v.9h-.8v-.9zm2.7 2.7c0-.1-.1-.2-.2-.2h-.3v-.7h.8c.4 0 .6.2.6.5v.5c.2-.4.7-1.1 1.7-1.1 1.1 0 1.6.6 1.6 1.8v2c0 .1.1.2.2.2h.4v.7h-.9c-.4 0-.6-.2-.6-.6v-2.2c0-.7-.1-1.1-.9-1.1-.7 0-1.3.5-1.5 1.1l-.1.6v2.2h-.9l.1-3.7zm7.8-1c1.1 0 1.4.7 1.4.7v-1.4c0-.1-.1-.2-.2-.2h-.4v-.7h.9c.4 0 .6.2.6.6v4.9c0 .1.1.2.2.2h.4v.7h-.8c-.4 0-.6-.2-.6-.5v-.2s-.4.8-1.5.8c-1.2 0-2-1-2-2.4-.1-1.6.8-2.5 2-2.5zm1.4 2.4c0-.8-.4-1.6-1.3-1.6-.7 0-1.3.6-1.3 1.6s.5 1.6 1.3 1.6c.7 0 1.3-.4 1.3-1.6zm2.9-1.4c0-.1-.1-.2-.2-.2h-.4v-.7h.9c.4 0 .6.2.6.6v3.1c0 .1.1.2.2.2h.4v.7h-.9c-.4 0-.6-.2-.6-.6v-3.1zm0-2.7h.8v.9h-.8v-.9zm4.8 1.7c.6 0 1.7.2 1.7 1v.5h-.8v-.3c0-.3-.5-.5-.8-.5-.9 0-1.6.7-1.6 1.6 0 1.1.7 1.6 1.6 1.6.9 0 1.5-.6 1.5-.6l.4.6s-.7.8-1.9.8c-1.5 0-2.5-1-2.5-2.4-.1-1.3 1-2.3 2.4-2.3zm3.3 1c0-.1-.1-.2-.2-.2h-.4v-.7h.9c.4 0 .6.2.6.6v3.1c0 .1.1.2.2.2h.4v.7h-.9c-.4 0-.6-.2-.6-.6v-3.1zm0-2.7h.8v.9h-.8v-.9zm7.2 1.7c1.1 0 1.4.7 1.4.7v-1.4c0-.1-.1-.2-.2-.2h-.4v-.7h.9c.4 0 .6.2.6.6v4.9c0 .1.1.2.2.2h.4v.7h-.8c-.4 0-.6-.2-.6-.5v-.2s-.4.8-1.5.8c-1.2 0-2-1-2-2.4 0-1.6.8-2.5 2-2.5zm1.5 2.4c0-.8-.4-1.6-1.3-1.6-.7 0-1.3.6-1.3 1.6s.5 1.6 1.3 1.6c.7 0 1.3-.4 1.3-1.6zm2.8-1.4c0-.1-.1-.2-.2-.2h-.4v-.7h.9c.4 0 .6.2.6.6v3.1c0 .1.1.2.2.2h.4v.7h-.9c-.4 0-.6-.2-.6-.6v-3.1zm0-2.7h.8v.9h-.8v-.9zm5.6 5.1s.5.7 1.4.7c.4 0 .8-.2.8-.6 0-.8-2.5-.7-2.5-2.2 0-.9.8-1.3 1.7-1.3.6 0 1.5.2 1.5.9v.4h-.8v-.2c0-.3-.4-.4-.7-.4-.5 0-.8.2-.8.5 0 .9 2.5.7 2.5 2.2 0 .8-.7 1.4-1.7 1.4-1.2 0-1.8-.8-1.8-.8l.4-.6zm4.6-2.4c0-.1-.1-.2-.2-.2h-.4v-.7h.9c.4 0 .6.2.6.6v3.1c0 .1.1.2.2.2h.4v.7h-.9c-.4 0-.6-.2-.6-.6v-3.1zm0-2.7h.8v.9h-.8v-.9zm4.9 1.7c.6 0 1.7.2 1.7 1v.5h-.8v-.3c0-.3-.5-.5-.8-.5-.9 0-1.6.7-1.6 1.6 0 1.1.7 1.6 1.6 1.6.9 0 1.5-.6 1.5-.6l.4.6s-.7.8-1.9.8c-1.5 0-2.5-1-2.5-2.4-.1-1.3.9-2.3 2.4-2.3zm3.1 1c0-.1-.1-.2-.2-.2h-.4v-.7h.9c.4 0 .6.2.6.6v2.2c0 .6.1 1.1.8 1.1 1 0 1.5-.8 1.5-1.8v-2.2h.9v3.7c0 .1.1.2.2.2h.4v.7h-.8c-.4 0-.6-.2-.6-.5v-.5c-.2.4-.8 1.1-1.7 1.1-1.1 0-1.6-.5-1.6-1.8v-1.9zm6.1 0c0-.1-.1-.2-.2-.2h-.4v-.7h.8c.4 0 .6.2.6.5v.6c.2-.7.7-1.2 1.5-1.2h.2v.9h-.3c-.6 0-1.1.4-1.3 1.1-.1.3-.1.5-.1.8v1.9h-.9v-3.7zm5.5-1c1.3 0 2 1 2 2.2v.4h-3.3c0 1 .7 1.5 1.6 1.5.8 0 1.4-.5 1.4-.5l.4.6s-.7.7-1.8.7c-1.5 0-2.5-1.1-2.5-2.4 0-1.6.9-2.5 2.2-2.5zm1.1 1.8c0-.7-.5-1.2-1.1-1.2-.7 0-1.2.4-1.4 1.2h2.5zm2 2.4l2.4-2.9c.2-.3.4-.4.4-.4h-1.7c-.1 0-.2.1-.2.2v.3h-.8v-.7c0-.4.2-.6.6-.6h3.3v.5l-2.4 2.9-.4.4h1.9c.1 0 .2-.1.2-.2v-.3h.8v.7c0 .4-.2.6-.6.6h-3.5v-.5zm5 0l2.4-2.9c.2-.3.4-.4.4-.4h-1.7c-.1 0-.2.1-.2.2v.3h-.8v-.7c0-.4.2-.6.6-.6h3.3v.5l-2.4 2.9-.4.4h1.9c.1 0 .2-.1.2-.2v-.3h.8v.7c0 .4-.2.6-.6.6h-3.5v-.5zm7.8-2.4h.2c0-.8-.3-1.1-1-1.1-.2 0-.7 0-.7.4v.3h-.8v-.4c0-.7 1.1-.9 1.6-.9 1.5 0 1.9.8 1.9 1.8v2c0 .1.1.2.2.2h.4v.7h-.8c-.4 0-.6-.2-.6-.5v-.3s-.4.9-1.5.9c-.8 0-1.6-.5-1.6-1.4-.1-1.6 1.9-1.7 2.7-1.7zm-1.1 2.3c.7 0 1.2-.8 1.2-1.5v-.2h-.2c-.7 0-1.8 0-1.8.9 0 .4.3.8.8.8z"/><path class="st3" d="M285.2 230.5c0-.7-.5-1.2-1.4-1.2-.7 0-1.2.4-1.2.7v.4h-1v-.7c0-1 1.3-1.4 2.2-1.4 1.4 0 2.4.9 2.4 2.2 0 2.6-3.9 2.7-3.9 4.4 0 .1.1.2.3.2h2.7c.1 0 .2-.1.2-.2v-.5h1v1c0 .5-.2.7-.7.7H282c-.6 0-.7-.3-.7-.9 0-2.8 3.9-2.6 3.9-4.7zm3.5 1.8c0-2.2.7-4 2.7-4s2.7 1.8 2.7 4-.7 4-2.7 4-2.7-1.8-2.7-4zm4.4 0c0-1.7-.4-2.9-1.6-2.9s-1.6 1.3-1.6 2.9c0 1.7.4 3 1.6 3 1.2-.1 1.6-1.4 1.6-3zm3.3 2.9h1.7v-5.5s-.1.2-.4.4l-.7.7-.7-.7 1.8-1.8h1v6.7h1.7v.9h-4.4v-.7zm6.9-.9s.6.8 1.8.8c1 0 1.7-.7 1.7-1.5 0-1-.8-1.6-1.8-1.6-.8 0-1.5.4-1.5.4l-.4-.2.3-3.2c0-.5.2-.7.7-.7h2.7c.5 0 .7.2.7.7v1h-1v-.4c0-.2-.1-.2-.2-.2h-1.6c-.1 0-.2.1-.2.2l-.1 1.4v.4s.4-.2 1-.2c1.7 0 2.7 1.1 2.7 2.5s-1.1 2.6-2.8 2.6c-1.6 0-2.4-1.1-2.4-1.1l.4-.9zm60.5-3.8c0-.7-.5-1.2-1.4-1.2-.7 0-1.2.4-1.2.7v.4h-1v-.7c0-1 1.3-1.4 2.2-1.4 1.4 0 2.4.9 2.4 2.2 0 2.6-3.9 2.7-3.9 4.4 0 .1.1.2.3.2h2.7c.1 0 .2-.1.2-.2v-.5h1v1c0 .5-.2.7-.7.7h-3.9c-.6 0-.7-.3-.7-.9 0-2.8 4-2.6 4-4.7zm3.5 1.8c0-2.2.7-4 2.7-4s2.7 1.8 2.7 4-.7 4-2.7 4-2.7-1.8-2.7-4zm4.3 0c0-1.7-.4-2.9-1.6-2.9s-1.6 1.3-1.6 2.9c0 1.7.4 3 1.6 3 1.2-.1 1.6-1.4 1.6-3zm3.3 2.9h1.7v-5.5s-.1.2-.4.4l-.7.7-.7-.7 1.8-1.8h1v6.7h1.7v.9h-4.4v-.7zm6.2-2.5c0-2 1.1-4.4 3.5-4.4.9 0 1.5.3 1.5.3l-.4.9s-.5-.3-1.1-.3c-1.4 0-2.2 1.3-2.3 2.6.3-.5 1-.7 1.7-.7 1.5 0 2.4 1.1 2.4 2.5 0 1.5-1 2.6-2.5 2.6-1.6 0-2.8-1.4-2.8-3.5zm2.8 2.5c.9 0 1.4-.7 1.4-1.6 0-.9-.6-1.6-1.6-1.6-.9 0-1.5.5-1.5 1.1 0 1 .8 2.1 1.7 2.1zm58.4-4.7c0-.7-.5-1.2-1.4-1.2-.7 0-1.2.4-1.2.7v.4h-1v-.7c0-1 1.3-1.4 2.2-1.4 1.4 0 2.4.9 2.4 2.2 0 2.6-3.9 2.7-3.9 4.4 0 .1.1.2.3.2h2.7c.1 0 .2-.1.2-.2v-.5h1v1c0 .5-.2.7-.7.7H439c-.6 0-.7-.3-.7-.9.1-2.8 4-2.6 4-4.7zm3.5 1.8c0-2.2.7-4 2.7-4s2.7 1.8 2.7 4-.7 4-2.7 4-2.7-1.8-2.7-4zm4.4 0c0-1.7-.4-2.9-1.6-2.9-1.3 0-1.6 1.3-1.6 2.9 0 1.7.4 3 1.6 3 1.2-.1 1.6-1.4 1.6-3zm3.3 2.9h1.7v-5.5s-.1.2-.4.4l-.7.7-.7-.7 1.8-1.8h1v6.7h1.7v.9h-4.4v-.7zm9.7-5.1c.2-.4.4-.7.4-.7h-2.9c-.1 0-.2.1-.2.2v.5h-1v-1c0-.5.2-.7.7-.7h4.7v.7l-3.7 7H460l3.2-6z"/><path class="st1" d="M77.5 55.6h2V49s-.1.2-.4.5l-.9.8-.8-.8 2.2-2.2h1.2v8.1h2v1.1h-5.4l.1-.9zm8-1s.9 1.1 2.3 1.1c1 0 1.8-.7 1.8-1.7s-.9-1.6-2-1.6h-.7l-.3-.7 1.9-2.4c.3-.4.5-.6.5-.6h-2.6c-.2 0-.3.1-.3.3v.6h-1.2v-1.1c0-.6.2-.8.8-.8h4.9v.8l-2.4 2.9c1.2.1 2.6.9 2.6 2.7 0 1.5-1.2 2.9-3.2 2.9-1.9 0-3-1.3-3-1.3l.9-1.1z"/><path class="st2" d="M73.9 147.2s.9 1.1 2.3 1.1c1 0 1.8-.7 1.8-1.7s-.9-1.6-2-1.6h-.7l-.3-.7 1.9-2.4c.3-.4.5-.6.5-.6h-2.6c-.2 0-.3.1-.3.3v.6h-1.2v-1.1c0-.6.2-.8.8-.8H79v.8l-2.4 2.9c1.2.1 2.6.9 2.6 2.7 0 1.5-1.2 2.9-3.2 2.9-1.9 0-3-1.3-3-1.3l.9-1.1zm9.7.7l-1.1 2.7h-1l.8-2.7h1.3zm2.5-2.7c0-2.4 1.3-5.3 4.2-5.3 1.1 0 1.8.4 1.8.4l-.4 1.1s-.6-.3-1.3-.3c-1.7 0-2.6 1.6-2.8 3.2.4-.6 1.2-.9 2-.9 1.8 0 2.9 1.3 2.9 3 0 1.8-1.2 3.1-2.9 3.1-2 0-3.5-1.8-3.5-4.3zm3.4 3c1.1 0 1.7-.8 1.7-1.9 0-1.1-.7-1.9-1.9-1.9-1 0-1.8.6-1.8 1.3-.1 1.2.8 2.5 2 2.5zm121.8 4.4c0-.8-.6-1.5-1.6-1.5-.8 0-1.4.4-1.4.9v.4h-1.2v-.8c0-1.2 1.6-1.7 2.7-1.7 1.7 0 2.9 1.1 2.9 2.6 0 3.2-4.7 3.2-4.7 5.4 0 .2.1.3.3.3h3.3c.2 0 .3-.1.3-.3v-.6h1.2v1.1c0 .6-.3.8-.8.8h-4.8c-.7 0-.9-.3-.9-1.1 0-3.2 4.7-3 4.7-5.5zm6 5.4l-1.1 2.7h-1l.8-2.7h1.3zm3.4 0s.6.3 1.3.3c1.7 0 2.6-1.6 2.8-3.2-.4.6-1.2.9-2 .9-1.8 0-2.9-1.3-2.9-3 0-1.8 1.2-3.1 2.9-3.1 2 0 3.4 1.7 3.4 4.3 0 2.4-1.3 5.3-4.1 5.3-1.1 0-1.8-.4-1.8-.4l.4-1.1zm4.1-4.4c0-1.2-.9-2.5-2.1-2.5-1.1 0-1.7.8-1.7 1.9 0 1.1.7 1.9 1.9 1.9 1.1.1 1.9-.6 1.9-1.3zm58.9 4.4c0-.8-.6-1.5-1.6-1.5-.8 0-1.4.4-1.4.9v.4h-1.2v-.8c0-1.2 1.6-1.7 2.7-1.7 1.7 0 2.9 1.1 2.9 2.6 0 3.2-4.7 3.2-4.7 5.4 0 .2.1.3.3.3h3.3c.2 0 .3-.1.3-.3v-.6h1.2v1.1c0 .6-.3.8-.8.8h-4.8c-.7 0-.9-.3-.9-1.1 0-3.2 4.7-3 4.7-5.5zm6 5.3l-1.1 2.7h-1l.8-2.7h1.3zm3.1-.7s.9 1.1 2.3 1.1c1 0 1.8-.7 1.8-1.7s-.9-1.6-2-1.6h-.7l-.3-.7 1.9-2.4c.3-.4.5-.6.5-.6H294c-.2 0-.3.1-.3.3v.6h-1.2v-1.1c0-.6.2-.8.8-.8h4.9v.8l-2.4 2.9c1.2.1 2.6.9 2.6 2.7 0 1.5-1.2 2.9-3.2 2.9-1.9 0-3-1.3-3-1.3l.6-1.1zm57.1 8.6h2v-6.6s-.1.2-.4.5l-.9.8-.8-.8 2.2-2.2h1.2v8.1h2v1.1h-5.4l.1-.9zm9.4-.3l-1.1 2.7h-1l.8-2.7h1.3zm2.5-2.7c0-2.4 1.3-5.3 4.1-5.3 1.1 0 1.8.4 1.8.4l-.4 1.1s-.6-.3-1.3-.3c-1.7 0-2.6 1.6-2.8 3.2.4-.6 1.2-.9 2-.9 1.8 0 2.9 1.3 2.9 3 0 1.8-1.2 3.1-2.9 3.1-1.9-.1-3.4-1.7-3.4-4.3zm3.4 3.1c1.1 0 1.7-.8 1.7-1.9 0-1.1-.7-1.9-1.9-1.9-1 0-1.9.6-1.9 1.3 0 1.1.9 2.5 2.1 2.5zm49.7-19.3c0-.8-.6-1.5-1.6-1.5-.8 0-1.4.4-1.4.9v.4h-1.2v-.8c0-1.2 1.6-1.7 2.7-1.7 1.7 0 2.9 1.1 2.9 2.6 0 3.2-4.7 3.2-4.7 5.4 0 .2.1.3.3.3h3.3c.2 0 .3-.1.3-.3v-.6h1.2v1.1c0 .6-.3.8-.8.8h-4.8c-.7 0-.9-.3-.9-1.1 0-3.3 4.7-3.1 4.7-5.5zm6 5.3l-1.1 2.7h-1l.8-2.7h1.3zm3.4 0s.6.3 1.3.3c1.7 0 2.6-1.6 2.8-3.2-.4.6-1.2.9-2 .9-1.8 0-2.9-1.3-2.9-3 0-1.8 1.2-3.1 2.9-3.1 2 0 3.4 1.7 3.4 4.3 0 2.4-1.3 5.3-4.1 5.3-1.1 0-1.8-.4-1.8-.4l.4-1.1zm4.2-4.3c0-1.2-.9-2.5-2.1-2.5-1.1 0-1.7.8-1.7 1.9 0 1.1.7 1.9 1.9 1.9 1 0 1.9-.7 1.9-1.3zm-275 .9s.9 1.1 2.3 1.1c1 0 1.8-.7 1.8-1.7s-.9-1.6-2-1.6h-.6l-.3-.7 1.9-2.4c.3-.4.5-.6.5-.6h-2.6c-.2 0-.3.1-.3.3v.6H153v-1.1c0-.6.2-.8.8-.8h4.9v.8l-2.4 2.9c1.2.1 2.6.9 2.6 2.7 0 1.5-1.2 2.9-3.2 2.9l-3-1.3.8-1.1z"/><path class="st1" d="M147.2 77h2v-6.6s-.1.2-.4.5l-.9.8-.9-.7 2.2-2.2h1.2V77h2v1.1H147l.2-1.1zm7.9 0h2v-6.6s-.1.2-.4.5l-.9.8-.8-.7 2.2-2.2h1.2V77h2v1.1H155l.1-1.1zm58.3 5.9h2v-6.6s-.1.2-.4.5l-.9.8-.8-.8 2.2-2.2h1.2v8.1h2V84h-5.4l.1-1.1zm7.5-3.5c0-2.6.8-4.8 3.3-4.8s3.3 2.1 3.3 4.8c0 2.7-.8 4.8-3.3 4.8s-3.3-2.1-3.3-4.8zm5.2 0c0-2-.4-3.6-1.9-3.6s-1.9 1.6-1.9 3.6.4 3.6 1.9 3.6 1.9-1.6 1.9-3.6zm60.9 27.3s-1.1-.6-1.1-1.9c0-1.3 1-2.5 2.9-2.5 1.8 0 2.9 1.1 2.9 2.5s-1.1 2.2-1.1 2.2c.8.5 1.4 1.1 1.4 2.1 0 1.5-1.3 2.7-3.2 2.7-1.8 0-3.2-1.1-3.2-2.8-.1-1.4 1.4-2.3 1.4-2.3zm1.7 4c1 0 1.8-.7 1.8-1.5s-.7-1.1-1.5-1.5l-1-.4c-.3 0-1.3.7-1.3 1.8.1.9 1 1.6 2 1.6zm.7-4.2c.3 0 1-.8 1-1.6s-.7-1.4-1.6-1.4c-1 0-1.6.6-1.6 1.3 0 .8.7 1.1 1.5 1.5.1.1.5.2.7.2zm66.8 12c0-2.4 1.3-5.3 4.2-5.3 1.1 0 1.8.4 1.8.4l-.4 1.1s-.6-.3-1.3-.3c-1.7 0-2.6 1.6-2.8 3.2.4-.6 1.2-.9 2-.9 1.8 0 2.9 1.3 2.9 3 0 1.8-1.2 3.1-2.9 3.1-2-.1-3.5-1.7-3.5-4.3zm3.4 3.1c1.1 0 1.7-.8 1.7-1.9 0-1.1-.7-1.9-1.9-1.9-1 0-1.8.6-1.8 1.3 0 1.1.8 2.5 2 2.5zm63.1-23.1s.6.3 1.3.3c1.7 0 2.6-1.6 2.8-3.2-.4.6-1.2.9-2 .9-1.8 0-2.9-1.3-2.9-3 0-1.8 1.2-3.1 2.9-3.1 2 0 3.4 1.7 3.4 4.3 0 2.4-1.3 5.3-4.1 5.3-1.1 0-1.8-.4-1.8-.4l.4-1.1zm4.1-4.3c0-1.2-.9-2.5-2.1-2.5-1.1 0-1.7.8-1.7 1.9 0 1.1.7 1.9 1.9 1.9 1.1-.1 1.9-.7 1.9-1.3z"/><circle class="st1" cx="141.9" cy="316.7" r="9.3"/><circle class="st3" cx="285.8" cy="316.7" r="9.3"/></svg>