<svg viewBox="0 0 906 1190" xmlns="http://www.w3.org/2000/svg"><path d="M902.5 1h-95c-1.6 0-2.9 1.3-2.9 2.9v30c0 2 1.6 3.6 3.6 3.6h9.6c2.2 0 3.4 2.5 2.1 4.2l-27.4 34.7c-1 1.3-3.1 1.3-4.1 0l-27.4-34.7c-1.3-1.7-.1-4.2 2.1-4.2h9.6c2 0 3.6-1.6 3.6-3.6v-30c0-1.6-1.3-2.9-2.9-2.9h-632 .4c-1.6 0-2.9 1.3-2.9 2.9v30c0 2 1.6 3.6 3.6 3.6h9.6c2.2 0 3.4 2.5 2.1 4.2l-27.4 34.7c-1 1.3-3.1 1.3-4.1 0l-27.4-34.7c-1.3-1.7-.1-4.2 2.1-4.2h9.6c2 0 3.6-1.6 3.6-3.6v-30c0-1.6-1.3-2.9-2.9-2.9h-104.4" stroke="#00295a" stroke-miterlimit="10" fill="none"/><path d="M450.1 853.7c91.6 0 165.8 74.2 165.8 165.8s-74.2 165.8-165.8 165.8-165.8-74.2-165.8-165.8 74.3-165.8 165.8-165.8z" fill="#4e5594"/><path d="M450.1 507.8c91.6 0 165.8 74.2 165.8 165.8s-74.2 165.8-165.8 165.8-165.8-74.2-165.8-165.8 74.3-165.8 165.8-165.8z" fill="#00295a"/><path d="M450.1 161.8c91.6 0 165.8 74.2 165.8 165.8s-74.2 165.8-165.8 165.8-165.8-74.2-165.8-165.8c0-91.5 74.3-165.8 165.8-165.8z" fill="#4e5594"/><g fill="none"><path d="M118.9 167.5v37.4m0 246v99.3m0 247.4v99.4" stroke="#f3352f" stroke-dasharray="0 9.3824"/><circle cx="120.3" cy="327.6" r="119" stroke="#00295a" stroke-dasharray="0 9"/><circle cx="120.3" cy="673.5" r="119" stroke="#00295a" stroke-dasharray="0 9"/><circle cx="120.3" cy="1019.5" r="119" stroke="#00295a" stroke-dasharray="0 9"/><path d="M784.2 167.5v37.4m0 246v99.3m0 247.4v99.4" stroke="#f3352f" stroke-dasharray="0 9.3824"/><circle cx="785.6" cy="327.6" r="119" stroke="#00295a" stroke-dasharray="0 9"/><circle cx="785.6" cy="673.5" r="119" stroke="#00295a" stroke-dasharray="0 9"/><circle cx="785.6" cy="1019.5" r="119" stroke="#00295a" stroke-dasharray="0 9"/></g><path d="M752.3 98.1c0-4.5-3.3-7.9-8.6-7.9-4.2 0-7.5 2.1-7.5 4.5v2h-3.9v-3.1c0-5.3 7.2-7.3 11.5-7.3 8 0 12.8 5.3 12.8 11.8 0 14.7-22.2 14.4-22.2 26 0 .8.5 1.2 1.4 1.2h17.5c.8 0 1.3-.4 1.3-1.3v-2.8h3.9v4.2c0 2.6-1.1 3.6-3.6 3.6h-21c-2.9 0-3.8-1.2-3.8-4.1 0-15.7 22.2-14.4 22.2-26.8zm12.2 9.8c0-12.1 3.5-21.7 14.4-21.7s14.5 9.6 14.5 21.7c0 12.2-3.6 21.7-14.5 21.7-10.9.1-14.4-9.5-14.4-21.7zm24.6 0c0-10-2.3-17.8-10.2-17.8s-10.2 7.8-10.2 17.8 2.3 17.8 10.2 17.8c7.9.1 10.2-7.7 10.2-17.8zm10.7 17.3h9.4v-30.8c0-1.2.1-2.3.1-2.3h-.1s-.4.9-2.1 2.5l-4.5 4.5-2.6-2.7 9.5-9.4h3.9v38.3h9.2v3.7h-22.7v-3.8zm47-30.6c1.2-2.3 2.3-3.9 2.3-3.9v-.1s-1.1.1-3.2.1h-15.1c-.8 0-1.3.4-1.3 1.3v2.8h-3.9v-4.2c0-2.6 1-3.6 3.6-3.6h24.8v2.9l-20.8 39.1h-4.7z" fill="#ff322b"/><path d="M746.6 157.1h.9c.3 0 .5-.2.5-.5l1.2-14.8h1.7l4.4 9.8c.4.9.8 2 .8 2s.4-1.1.8-2l4.4-9.8h1.7l1.2 14.8c0 .4.2.5.5.5h.9v1.5h-1.6c-1 0-1.4-.4-1.5-1.5l-.8-10.2c-.1-.9-.1-2.3-.1-2.3s-.5 1.5-.9 2.3l-4 8.5h-1.5l-4-8.5c-.4-.8-.9-2.4-.9-2.4s0 1.5-.1 2.4l-.8 10.2c-.1 1-.4 1.5-1.5 1.5h-1.6v-1.5zm21.8-8.6c0-.3-.2-.5-.5-.5h-1v-1.4h1.7c1 0 1.5.4 1.5 1.5v8.6c0 .4.2.5.5.5h1v1.4h-1.7c-1 0-1.5-.4-1.5-1.5zm0-6.7h1.6v2.1h-1.6zm5.9 6.7c0-.3-.2-.5-.5-.5h-1v-1.4h1.7c1 0 1.5.4 1.5 1.3v1.4c.4-1.1 2-3 4.8-3 3 0 4 1.7 4 4.7v5.7c0 .4.2.5.5.5h1v1.4h-1.7c-1 0-1.5-.4-1.5-1.5v-5.8c0-1.9-.3-3.6-2.6-3.6-2.1 0-3.8 1.4-4.4 3.4-.1.5-.2 1-.2 1.6v5.8h-1.6zm25.3-2.2c2.9 0 3.9 2.2 3.9 2.2v-4.8c0-.3-.2-.5-.5-.5h-1v-1.4h1.7c1 0 1.5.4 1.5 1.5v13.4c0 .4.2.5.5.5h1v1.4h-1.7c-1 0-1.4-.5-1.4-1.3v-.8s-1 2.4-4.1 2.4c-3.2 0-5.2-2.6-5.2-6.3-.1-3.8 2.2-6.3 5.3-6.3zm4 6.3c0-2.4-1.2-4.8-3.8-4.8-2.1 0-3.9 1.8-3.9 4.8s1.6 4.8 3.8 4.8c2 0 3.9-1.4 3.9-4.8zm5.9-4.1c0-.3-.2-.5-.5-.5h-1v-1.4h1.7c1 0 1.5.4 1.5 1.5v8.6c0 .4.2.5.5.5h1v1.4h-1.7c-1 0-1.5-.4-1.5-1.5zm-.1-6.7h1.6v2.1h-1.6zm11.3 9.2h1.4v-1.9h-1.4v-1.2h1.6c.9-3.7 4.1-6.3 8-6.3 1.3 0 2.2.3 2.2.3l-.4 1.6s-.9-.3-1.8-.3c-3.1 0-5.4 1.9-6.2 4.8h7.2l-.2 1.2h-7.3s-.1.5-.1 1v.9h6.9l-.2 1.2h-6.4c.7 3 3.1 5.1 6.3 5.1 1.2 0 2.1-.3 2.1-.3l.4 1.5s-1.1.4-2.6.4c-4.1 0-7.2-2.7-8.1-6.6h-1.5z" fill="#00295a"/><path d="M78.9 96.9c0-4.4-3.2-7.8-8.5-7.8-4.1 0-7.4 2.1-7.4 4.5v1.9h-3.9v-3.1c0-5.2 7.1-7.3 11.4-7.3 7.9 0 12.6 5.2 12.6 11.6 0 14.6-21.9 14.2-21.9 25.7 0 .8.5 1.2 1.4 1.2h17.3c.8 0 1.3-.4 1.3-1.3v-2.8h3.8v4.1c0 2.5-1.1 3.6-3.6 3.6h-20.7c-2.8 0-3.7-1.2-3.7-4.1-.1-15.2 21.9-14 21.9-26.2zm12 9.7c0-11.9 3.5-21.4 14.3-21.4s14.3 9.5 14.3 21.4c0 12-3.5 21.5-14.3 21.5s-14.3-9.5-14.3-21.5zm24.3 0c0-9.8-2.2-17.6-10.1-17.6-7.8 0-10.1 7.7-10.1 17.6s2.2 17.6 10.1 17.6 10.1-7.7 10.1-17.6zm10.6 17.1h9.3v-30.4c0-1.2.1-2.3.1-2.3h-.2s-.4.9-2.1 2.5l-4.4 4.4-2.6-2.7 9.4-9.3h3.9v37.8h9.1v3.7h-22.5zm26.1-14.6c0-10.6 5.4-23.9 18.2-23.9 4.5 0 7.6 1.7 7.6 1.7l-1.5 3.6s-2.6-1.5-6-1.5c-8.7 0-13.1 8.7-13.9 17h.1c1.9-3.2 6.2-5 10.6-5 7.5 0 12.9 5.4 12.9 13.1 0 8.6-5.8 13.9-13 13.9-9 .1-15-8-15-18.9zm15 15.1c5.6 0 8.9-4.2 8.9-10s-3.7-9.5-9.4-9.5c-5.5 0-10 3.7-10 7.1 0 5.5 4.3 12.4 10.5 12.4z" fill="#ff322b"/><path d="M72.6 156.2h.9c.3 0 .5-.2.5-.5l1.2-14.6h1.7l4.4 9.6c.4.8.8 2 .8 2s.4-1.1.8-2l4.4-9.6h1.7l1.2 14.6c0 .4.2.5.5.5h.9v1.5h-1.6c-1 0-1.4-.4-1.4-1.4l-.8-10.1c-.1-.9-.1-2.3-.1-2.3s-.4 1.5-.8 2.3l-3.9 8.4h-1.5l-3.9-8.4c-.4-.8-.9-2.4-.9-2.4s0 1.5-.1 2.4l-.8 10.1c-.1 1-.4 1.4-1.4 1.4h-1.6v-1.5zm21.6-8.5c0-.3-.2-.5-.5-.5h-1v-1.4h1.7c1 0 1.4.4 1.4 1.4v8.5c0 .4.2.5.5.5h1v1.4h-1.7c-1 0-1.4-.4-1.4-1.4zm-.1-6.6h1.6v2h-1.6zm5.9 6.6c0-.3-.2-.5-.5-.5h-1v-1.4h1.7c1 0 1.4.4 1.4 1.3v1.3c.4-1.1 1.9-3 4.7-3 2.9 0 4 1.7 4 4.6v5.6c0 .4.2.5.5.5h1v1.4h-1.7c-1 0-1.4-.4-1.4-1.4v-5.7c0-1.9-.3-3.5-2.6-3.5-2 0-3.8 1.4-4.3 3.3-.1.5-.2 1-.2 1.6v5.7h-1.6zm25-2.2c2.9 0 3.9 2.2 3.9 2.2v-4.7c0-.3-.2-.5-.5-.5h-1v-1.4h1.7c1 0 1.4.4 1.4 1.4v13.2c0 .4.2.5.5.5h1v1.4h-1.7c-1 0-1.4-.4-1.4-1.3v-.8s-1 2.4-4.1 2.4c-3.2 0-5.2-2.5-5.2-6.2.1-3.7 2.3-6.2 5.4-6.2zm3.9 6.2c0-2.4-1.2-4.8-3.8-4.8-2.1 0-3.8 1.8-3.8 4.8 0 2.9 1.5 4.8 3.7 4.8 2 0 3.9-1.4 3.9-4.8zm5.8-4c0-.3-.2-.5-.5-.5h-1v-1.4h1.7c1 0 1.4.4 1.4 1.4v8.5c0 .4.2.5.5.5h1v1.4h-1.7c-1 0-1.4-.4-1.4-1.4zm0-6.6h1.6v2h-1.6zm11.1 9.1h1.3v-1.9h-1.3v-1.2h1.6c.9-3.7 4-6.3 7.9-6.3 1.2 0 2.2.3 2.2.3l-.4 1.5s-.8-.3-1.8-.3c-3 0-5.3 1.9-6.1 4.7h7.1l-.2 1.2h-7.2s-.1.5-.1 1v.9h6.9l-.2 1.2h-6.4c.7 2.9 3.1 5 6.2 5 1.2 0 2.1-.3 2.1-.3l.4 1.5s-1.1.4-2.5.4c-4 0-7.1-2.7-8-6.6h-1.5z" fill="#00295a"/><path d="M43.5 340.6s2.2 1.2 5 1.2c7.2 0 10.9-7.3 11.5-14.2h-.1c-1.6 2.7-5.2 4.2-8.8 4.2-6.3 0-10.7-4.5-10.7-10.9 0-7.2 4.8-11.5 10.8-11.5 7.5 0 12.5 6.7 12.5 15.7 0 8.8-4.5 19.9-15.2 19.9-3.8 0-6.3-1.4-6.3-1.4zm16.5-17.7c0-4.6-3.6-10.4-8.7-10.4-4.7 0-7.4 3.5-7.4 8.3s3.1 7.9 7.8 7.9c4.6.1 8.3-3 8.3-5.8zm8.9 18.5h7.7v-27.2h-.1s-.3.7-1.7 2.1l-3.7 3.7-2.2-2.2 7.8-7.8h3.2v31.4h7.6v3h-18.7v-3zm23.4 0h7.7v-27.2h-.1s-.3.7-1.7 2.1l-3.7 3.7-2.2-2.2 7.8-7.8h3.2v31.4h7.6v3h-18.7v-3zm23.6-.9h3.8v3.9h-3.8zm10.5-2.9s3.5 4.1 9 4.1c4.1 0 7.8-3 7.8-7.5 0-4.7-4-7.3-8.4-7.3h-2.4l-.8-2 8.5-10.2c.8-1.1 1.8-1.9 1.8-1.9v-.1s-1 .1-2.8.1h-9c-.7 0-1.1.3-1.1 1.1v2.3h-3.2v-3.4c0-2.1.8-3 2.9-3h17.5v2.3l-10.2 11.9c4.3.2 10.6 2.7 10.6 10.2 0 5.8-4.9 10.7-11.4 10.7-6.8 0-11-4.8-11-4.8zm25.7 3.8h7.7v-27.2h-.1s-.3.7-1.7 2.1l-3.7 3.7-2.2-2.2 7.8-7.8h3.2v31.4h7.6v3h-18.7v-3zm40.5-22.4c0-3.7-2.7-6.5-7.1-6.5-3.4 0-6.1 1.8-6.1 3.7v1.6h-3.2v-2.6c0-4.4 5.9-6 9.5-6 6.6 0 10.5 4.3 10.5 9.7 0 12.1-18.2 11.8-18.2 21.4 0 .7.4 1 1.1 1h14.4c.7 0 1.1-.3 1.1-1.1v-2.2h3.2v3.4c0 2.1-.9 3-3 3h-17.3c-2.4 0-3.1-1-3.1-3.4-.1-12.8 18.2-11.8 18.2-22z" fill="#4e5594"/><path d="M37.3 668.9c0-.1-4.8-2.4-4.8-7.4 0-4.9 3.8-9.2 10.6-9.2 6.7 0 10.8 3.9 10.8 9.4 0 5.4-4.7 8.7-4.7 8.7v.1c3.3 1.7 5.7 4 5.7 8.1 0 5.5-5.1 10.2-11.9 10.2-6.2 0-12-3.9-12-10.5 0-6.2 6.3-9.4 6.3-9.4zm5.7 16.6c4.2 0 8.2-2.9 8.2-7 0-3.7-3-5.1-6.7-6.6-1.3-.6-3.7-1.4-4.1-1.4-1.4 0-5.8 3.2-5.8 7.6 0 4.6 4.1 7.4 8.4 7.4zm2.9-16.6c1.3 0 4.5-3.5 4.5-7.1 0-3.8-3-6.2-7.3-6.2-4.5 0-7.1 2.7-7.1 6 0 3.7 3.1 5.1 6.8 6.4.8.3 2.5.9 3.1.9zm20 0c0-.1-4.8-2.4-4.8-7.4 0-4.9 3.8-9.2 10.6-9.2 6.7 0 10.8 3.9 10.8 9.4 0 5.4-4.7 8.7-4.7 8.7v.1c3.3 1.7 5.7 4 5.7 8.1 0 5.5-5.1 10.2-11.9 10.2-6.2 0-12-3.9-12-10.5 0-6.2 6.3-9.4 6.3-9.4zm5.7 16.6c4.2 0 8.2-2.9 8.2-7 0-3.7-3-5.1-6.7-6.6-1.3-.6-3.7-1.4-4.1-1.4-1.4 0-5.8 3.2-5.8 7.6.1 4.6 4.1 7.4 8.4 7.4zm3-16.6c1.3 0 4.5-3.5 4.5-7.1 0-3.8-3-6.2-7.3-6.2-4.5 0-7.1 2.7-7.1 6 0 3.7 3.1 5.1 6.8 6.4.7.3 2.4.9 3.1.9zm16.2 12.4s2.7 4.2 8.2 4.2c5 0 8.8-3.6 8.8-8.2 0-4.9-4.1-8.3-9.1-8.3-4 0-6.8 2-6.8 2l-1.8-.8 1.5-14.2c.2-2.2.9-3.1 3.1-3.1h11.6c2.1 0 3 .9 3 3.1v3.5h-3.3v-2.4c0-.8-.4-1.1-1.1-1.1h-8.9c-.7 0-1 .4-1.1 1.1l-.9 8c-.2 1.3-.3 2-.3 2h.1s2.2-1.3 5.3-1.3c7.2 0 12.4 5.1 12.4 11.5 0 6.3-5.2 11.5-12.4 11.5-7 0-10.4-5-10.4-5zm26.5 2.9h3.9v4h-3.9zm12.4.1s2.2 1.3 5.1 1.3c7.4 0 11.2-7.4 11.8-14.6h-.1c-1.7 2.8-5.3 4.3-9 4.3-6.4 0-10.9-4.6-10.9-11.2 0-7.3 4.9-11.8 11-11.8 7.7 0 12.8 6.9 12.8 16.1 0 9-4.6 20.4-15.5 20.4-3.9 0-6.5-1.5-6.5-1.5zm16.9-18.2c0-4.7-3.7-10.6-8.9-10.6-4.8 0-7.6 3.6-7.6 8.5s3.2 8.1 8 8.1c4.7.1 8.5-3.1 8.5-6zm10.8 15.2s2.7 4.2 8.2 4.2c5 0 8.8-3.6 8.8-8.2 0-4.9-4.1-8.3-9.1-8.3-4 0-6.8 2-6.8 2l-1.8-.8 1.5-14.2c.2-2.2.9-3.1 3.1-3.1h11.6c2.1 0 3 .9 3 3.1v3.5h-3.3v-2.4c0-.8-.4-1.1-1.1-1.1h-8.9c-.7 0-1 .4-1.1 1.1l-.9 8c-.2 1.3-.3 2-.3 2h.1s2.2-1.3 5.3-1.3c7.2 0 12.4 5.1 12.4 11.5 0 6.3-5.2 11.5-12.4 11.5-7 0-10.4-5-10.4-5zm28.8 3s2.2 1.3 5.1 1.3c7.4 0 11.2-7.4 11.8-14.6h-.1c-1.7 2.8-5.3 4.3-9 4.3-6.4 0-10.9-4.6-10.9-11.2 0-7.3 4.9-11.8 11-11.8 7.7 0 12.8 6.9 12.8 16.1 0 9-4.6 20.4-15.5 20.4-3.9 0-6.5-1.5-6.5-1.5zm16.9-18.2c0-4.7-3.7-10.6-8.9-10.6-4.8 0-7.6 3.6-7.6 8.5s3.2 8.1 8 8.1c4.7.1 8.5-3.1 8.5-6z" fill="#00295a"/><path d="M66.5 1008.9c0-3.7-2.7-6.5-7.1-6.5-3.4 0-6.1 1.8-6.1 3.7v1.6h-3.2v-2.5c0-4.4 5.9-6 9.5-6 6.6 0 10.5 4.3 10.5 9.6 0 12.1-18.2 11.8-18.2 21.4 0 .7.4 1 1.1 1h14.4c.7 0 1.1-.3 1.1-1.1v-2.3h3.2v3.4c0 2.1-.9 3-3 3h-17.2c-2.3 0-3.1-1-3.1-3.4-.1-12.7 18.1-11.7 18.1-21.9zm12.2 18.6s2.6 4.1 8 4.1c4.9 0 8.6-3.5 8.6-8 0-4.7-4-8.1-8.9-8.1-3.9 0-6.6 1.9-6.6 1.9l-1.8-.7 1.5-13.9c.2-2.1.9-3 3-3h11.3c2.1 0 2.9.9 2.9 3v3.4h-3.2v-2.3c0-.7-.4-1.1-1.1-1.1h-8.7c-.7 0-1 .3-1.1 1.1l-.9 7.8c-.1 1.2-.3 2-.3 2h.1s2.2-1.3 5.2-1.3c7 0 12 5 12 11.2 0 6.1-5.1 11.2-12.1 11.2-6.9 0-10.1-4.9-10.1-4.9zm25.8 2.8h3.8v3.9h-3.8zm10.5-2.8s3.5 4.1 9 4.1c4.1 0 7.8-3 7.8-7.4 0-4.7-4-7.2-8.4-7.2h-2.4l-.8-2 8.5-10.2c.8-1.1 1.8-1.9 1.8-1.9v-.1s-1 .1-2.8.1h-9c-.7 0-1.1.3-1.1 1.1v2.3h-3.2v-3.4c0-2.1.8-3 2.9-3h17.5v2.3l-10.1 11.9c4.3.2 10.6 2.7 10.6 10.1 0 5.8-4.8 10.7-11.4 10.7-6.8 0-11-4.8-11-4.8zm27.3 0s2.6 4.1 8 4.1c4.9 0 8.6-3.5 8.6-8 0-4.7-4-8.1-8.9-8.1-3.9 0-6.6 1.9-6.6 1.9l-1.8-.7 1.5-13.9c.2-2.1.9-3 3-3h11.3c2.1 0 2.9.9 2.9 3v3.4h-3.2v-2.3c0-.7-.4-1.1-1.1-1.1h-8.7c-.7 0-1 .3-1.1 1.1l-.9 7.8c-.1 1.2-.3 2-.3 2h.1s2.2-1.3 5.2-1.3c7 0 12 5 12 11.2 0 6.1-5.1 11.2-12.1 11.2-6.9 0-10.1-4.9-10.1-4.9zm26 0s3.5 4.1 9 4.1c4.1 0 7.8-3 7.8-7.4 0-4.7-4-7.2-8.4-7.2h-2.4l-.8-2 8.5-10.2c.8-1.1 1.8-1.9 1.8-1.9v-.1s-1 .1-2.8.1h-9c-.7 0-1.1.3-1.1 1.1v2.3h-3.2v-3.4c0-2.1.8-3 2.9-3h17.5v2.3l-10.1 11.8c4.3.2 10.6 2.7 10.6 10.1 0 5.8-4.8 10.7-11.4 10.7-6.8 0-11-4.8-11-4.8zm538.9-686.9s2.1 1.2 4.9 1.2c7.1 0 10.8-7.2 11.4-14.1h-.1c-1.6 2.7-5.1 4.2-8.7 4.2-6.2 0-10.6-4.5-10.6-10.8 0-7.1 4.7-11.4 10.7-11.4 7.4 0 12.3 6.6 12.3 15.6 0 8.7-4.4 19.7-15 19.7-3.7 0-6.3-1.4-6.3-1.4zm16.4-17.5c0-4.5-3.5-10.2-8.6-10.2-4.6 0-7.3 3.5-7.3 8.2 0 4.8 3.1 7.9 7.7 7.9 4.5-.1 8.2-3.1 8.2-5.9zm8.7 18.3h7.6v-26.9h-.1s-.3.7-1.7 2l-3.6 3.6-2.1-2.2 7.7-7.7h3.2v31.1h7.5v3h-18.5zm24.6-.8s2.1 1.2 4.9 1.2c7.1 0 10.8-7.2 11.4-14.1h-.1c-1.6 2.7-5.1 4.2-8.7 4.2-6.2 0-10.6-4.5-10.6-10.8 0-7.1 4.7-11.4 10.7-11.4 7.4 0 12.3 6.6 12.3 15.6 0 8.7-4.4 19.7-15 19.7-3.7 0-6.3-1.4-6.3-1.4zm16.3-17.5c0-4.5-3.5-10.2-8.6-10.2-4.6 0-7.3 3.5-7.3 8.2 0 4.8 3.1 7.9 7.7 7.9 4.6-.1 8.2-3.1 8.2-5.9zm7.2 17.4h3.7v3.9h-3.7zm27.1-21.2c0-3.6-2.7-6.4-7-6.4-3.4 0-6.1 1.7-6.1 3.7v1.6h-3.2v-2.5c0-4.3 5.9-6 9.4-6 6.5 0 10.4 4.3 10.4 9.6 0 12-18 11.7-18 21.1 0 .7.4 1 1.1 1h14.3c.7 0 1.1-.3 1.1-1.1v-2.3h3.2v3.4c0 2.1-.9 3-3 3h-17.1c-2.3 0-3.1-1-3.1-3.3 0-12.7 18-11.7 18-21.8zm11.5 21.3s2.1 1.2 4.9 1.2c7.1 0 10.8-7.2 11.4-14.1h-.1c-1.6 2.7-5.1 4.2-8.7 4.2-6.2 0-10.6-4.5-10.6-10.8 0-7.1 4.7-11.4 10.7-11.4 7.4 0 12.3 6.6 12.3 15.6 0 8.7-4.4 19.7-15 19.7-3.7 0-6.3-1.4-6.3-1.4zm16.4-17.5c0-4.5-3.5-10.2-8.6-10.2-4.6 0-7.3 3.5-7.3 8.2 0 4.8 3.1 7.9 7.7 7.9 4.5-.1 8.2-3.1 8.2-5.9zm10.5 14.7s2.6 4 7.9 4c4.8 0 8.5-3.4 8.5-8 0-4.7-3.9-8-8.8-8-3.8 0-6.5 1.9-6.5 1.9l-1.7-.7 1.5-13.7c.2-2.1.9-3 3-3h11.2c2 0 2.9.9 2.9 3v3.4h-3.2v-2.3c0-.7-.4-1.1-1.1-1.1h-8.6c-.7 0-1 .3-1.1 1.1l-.9 7.7c-.1 1.2-.3 1.9-.3 1.9h.1s2.1-1.3 5.1-1.3c6.9 0 11.9 4.9 11.9 11.1 0 6.1-5 11.1-12 11.1-6.8 0-10-4.9-10-4.9z" fill="#4e5594"/><path d="M699 684.6s2.2 1.2 5.1 1.2c7.3 0 11.1-7.4 11.7-14.4h-.1c-1.6 2.7-5.3 4.3-8.9 4.3-6.4 0-10.8-4.6-10.8-11.1 0-7.3 4.8-11.7 10.9-11.7 7.6 0 12.6 6.8 12.6 16 0 8.9-4.5 20.2-15.4 20.2-3.8 0-6.4-1.4-6.4-1.4zm16.8-17.9c0-4.6-3.6-10.5-8.9-10.5-4.7 0-7.5 3.6-7.5 8.4 0 4.9 3.1 8.1 7.9 8.1 4.7-.1 8.5-3.2 8.5-6zm8.5 4.3c0-10 2.9-18.1 12-18.1s12.1 8 12.1 18.1-3 18.1-12.1 18.1c-9 0-12-8-12-18.1zm20.6 0c0-8.3-1.9-14.8-8.5-14.8s-8.5 6.5-8.5 14.8c0 8.4 1.9 14.9 8.5 14.9s8.5-6.5 8.5-14.9zm26.5-8.2c0-3.7-2.7-6.6-7.2-6.6-3.5 0-6.2 1.8-6.2 3.8v1.6h-3.3v-2.6c0-4.4 6-6.1 9.6-6.1 6.7 0 10.6 4.4 10.6 9.8 0 12.3-18.5 12-18.5 21.7 0 .7.4 1 1.1 1h14.6c.7 0 1.1-.3 1.1-1.1v-2.3h3.2v3.5c0 2.1-.9 3-3 3h-17.4c-2.4 0-3.1-1-3.1-3.4 0-13 18.5-12 18.5-22.3zm10.9 21.7h3.8v4h-3.8zm9.2-13.5c0-10 2.9-18.1 12-18.1s12.1 8 12.1 18.1-3 18.1-12.1 18.1-12-8-12-18.1zm20.5 0c0-8.3-1.9-14.8-8.5-14.8s-8.5 6.5-8.5 14.8c0 8.4 1.9 14.9 8.5 14.9s8.5-6.5 8.5-14.9zm9.4 0c0-10 2.9-18.1 12-18.1s12.1 8 12.1 18.1-3 18.1-12.1 18.1-12-8-12-18.1zm20.5 0c0-8.3-1.9-14.8-8.5-14.8s-8.5 6.5-8.5 14.8c0 8.4 1.9 14.9 8.5 14.9s8.5-6.5 8.5-14.9zm14.5-1.6c0-.1-4.8-2.3-4.8-7.3 0-4.8 3.8-9.1 10.5-9.1 6.6 0 10.7 3.9 10.7 9.3 0 5.3-4.7 8.7-4.7 8.7v.1c3.3 1.7 5.6 3.9 5.6 8 0 5.5-5.1 10.1-11.7 10.1-6.2 0-11.9-3.8-11.9-10.4.1-6.3 6.3-9.4 6.3-9.4zm5.7 16.5c4.1 0 8.2-2.8 8.2-6.9 0-3.6-3-5.1-6.7-6.6-1.3-.5-3.7-1.4-4.1-1.4-1.3 0-5.7 3.2-5.7 7.5 0 4.6 4 7.4 8.3 7.4zm2.9-16.5c1.2 0 4.4-3.4 4.4-7.1 0-3.8-3-6.2-7.2-6.2-4.4 0-7.1 2.6-7.1 5.9 0 3.7 3.1 5 6.7 6.4.8.4 2.5 1 3.2 1z" fill="#00295a"/><path d="M723.1 1030.7h7.6v-26.8h-.1s-.3.7-1.7 2l-3.6 3.6-2.1-2.2 7.7-7.6h3.2v30.9h7.4v3h-18.4zm37.9-24.8c1-1.8 1.9-3.1 1.9-3.1v-.1s-.9.1-2.6.1h-12.2c-.7 0-1.1.3-1.1 1.1v2.3h-3.2v-3.4c0-2.1.8-2.9 2.9-2.9h20v2.3l-16.8 31.5h-3.8zm3.7 23.9h3.7v3.9h-3.7zm27-21c0-3.6-2.6-6.4-6.9-6.4-3.4 0-6 1.7-6 3.7v1.6h-3.2v-2.5c0-4.3 5.8-5.9 9.3-5.9 6.5 0 10.3 4.2 10.3 9.5 0 11.9-17.9 11.6-17.9 21 0 .7.4 1 1.1 1h14.2c.7 0 1.1-.3 1.1-1.1v-2.3h3.1v3.4c0 2.1-.9 2.9-2.9 2.9h-17c-2.3 0-3-1-3-3.3-.1-12.6 17.8-11.6 17.8-21.6zm15.5 6.4c0-.1-4.6-2.3-4.6-7.1 0-4.7 3.7-8.9 10.2-8.9 6.4 0 10.4 3.8 10.4 9l-4.5 8.4v.1c3.2 1.6 5.4 3.8 5.4 7.8 0 5.3-4.9 9.8-11.4 9.8-6 0-11.5-3.7-11.5-10.1 0-6 6-9 6-9zm5.5 15.9c4 0 7.9-2.7 7.9-6.7 0-3.5-2.9-4.9-6.5-6.4-1.3-.5-3.6-1.3-3.9-1.3-1.3 0-5.5 3.1-5.5 7.3-.1 4.4 3.8 7.1 8 7.1zm2.8-15.9c1.2 0 4.3-3.3 4.3-6.8 0-3.7-2.9-6-7-6-4.3 0-6.8 2.6-6.8 5.7 0 3.6 3 4.9 6.5 6.2.7.3 2.3.9 3 .9zm28.8-9.3c1-1.8 1.9-3.1 1.9-3.1v-.1s-.9.1-2.6.1h-12.2c-.7 0-1.1.3-1.1 1.1v2.3h-3.2v-3.4c0-2.1.8-2.9 2.9-2.9h20v2.3l-16.8 31.5h-3.8z" fill="#4e5594"/><path d="M393.8 265.7c-.2-.6-.6-.7-1.2-.7h-.3v-2h1c1.6 0 2.1.3 2.7 1.9l5.6 15.4c.4 1.2.9 3 .9 3h.1s.5-1.8.9-3l5.6-15.4c.6-1.6 1.1-1.9 2.7-1.9h1v2h-.3c-.6 0-.9.1-1.2.7l-7.5 20.2h-2.4zm18.7 18.1h.4c.6 0 .9-.1 1.2-.7l7.5-20.2h2.4l7.5 20.2c.2.6.6.7 1.2.7h.4v2h-1c-1.6 0-2.1-.3-2.7-1.9l-2-5.4h-9.1l-2 5.4c-.6 1.6-1 1.9-2.7 1.9h-1.1zm14.2-7.2l-3-8.2c-.4-1.1-.9-3-.9-3h-.1s-.5 1.9-.9 3l-3 8.2zm10.3-10.9c0-.5-.3-.7-.7-.7h-1.4v-2h2.4c1.4 0 2 .6 2 2v18.2c0 .5.3.7.7.7h7.6c.5 0 .7-.2.7-.7v-1.5h2.2v2.3c0 1.4-.6 2-2 2h-9.5c-1.4 0-2-.6-2-2zm26-3.1c6.5 0 11.7 5.1 11.7 11.7 0 6.7-5.2 12-11.7 12s-11.7-5.3-11.7-12c.1-6.6 5.2-11.7 11.7-11.7zm0 21.5c5.1 0 9.3-4.3 9.3-9.8 0-5.4-4.2-9.5-9.3-9.5s-9.3 4.1-9.3 9.5c0 5.5 4.2 9.8 9.3 9.8zm16.4-19.1h-2.1v-2h9.7c3.8 0 6.6 2.5 6.6 6.5 0 3.6-2.2 5.6-4.4 6.1v.1s.5.3.8.9l3.3 6.5c.3.7.8.7 1.6.7h.5v2h-1c-1.9 0-2.4-.2-3.2-1.7l-3.3-6.5c-.6-1.2-1-1.4-2.3-1.4h-3.8v9.6h-2.3zm7.4 9.2c2.7 0 4.4-1.8 4.4-4.7 0-2.8-1.7-4.6-4.4-4.6h-5.1v9.2h5.1zm12.3-9.2h-2.1v-2h13.1c1.4 0 2 .6 2 2v2.3h-2.2v-1.5c0-.5-.3-.7-.7-.7h-7.8v8.3h8.6v2h-8.6v7.8c0 .5.3.7.7.7h8c.5 0 .7-.2.7-.7v-1.5h2.1v2.3c0 1.4-.6 2-2 2h-9.9c-1.4 0-2-.6-2-2v-19zm-143.9 35.4h-2.1v-2h13.1c1.4 0 2 .6 2 2v2.3h-2.2v-1.5c0-.5-.3-.7-.7-.7h-7.8v8.3h8.6v2h-8.6v7.8c0 .5.3.7.7.7h8c.5 0 .7-.2.7-.7v-1.6h2.1v2.3c0 1.4-.6 2-2 2h-9.9c-1.4 0-2-.6-2-2v-18.9zm27.3-2.4c3.3 0 8.6 1.4 8.6 4.9v1.9h-2.2v-1.3c0-2.2-3.7-3.3-6.4-3.3-5.1 0-9 4-9 9.5s3.9 9.9 9.1 9.9c4.7 0 7.5-3.2 7.5-3.2l1.3 1.7s-3.2 3.7-8.8 3.7c-6.7 0-11.4-5.3-11.4-12 0-6.8 4.8-11.8 11.3-11.8zm22.8 0c6.5 0 11.7 5.1 11.7 11.7 0 6.7-5.2 12-11.7 12s-11.7-5.3-11.7-12c0-6.6 5.2-11.7 11.7-11.7zm0 21.5c5.1 0 9.3-4.3 9.3-9.8 0-5.4-4.2-9.5-9.3-9.5s-9.3 4.1-9.3 9.5c0 5.5 4.1 9.8 9.3 9.8zm14.2-.3h1.4c.5 0 .7-.2.7-.7v-20.2h2.1l11.7 16.3c.8 1.1 1.9 3 1.9 3h.1s-.2-1.8-.2-3v-14.3c0-1.4.6-2 2-2h2.4v2h-1.4c-.5 0-.7.2-.7.7v20.2h-2.1l-11.7-16.3c-.8-1.1-1.9-3-1.9-3h-.1s.2 1.8.2 3v14.3c0 1.4-.6 2-2 2h-2.4zm36.3-21.2c6.5 0 11.7 5.1 11.7 11.7 0 6.7-5.2 12-11.7 12s-11.7-5.3-11.7-12c0-6.6 5.2-11.7 11.7-11.7zm0 21.5c5.1 0 9.3-4.3 9.3-9.8 0-5.4-4.2-9.5-9.3-9.5s-9.3 4.1-9.3 9.5c0 5.5 4.2 9.8 9.3 9.8zm13.6-.3h1.2c.5 0 .7-.2.7-.7l1.6-20.2h2.3l6.1 13.3c.6 1.2 1.1 2.7 1.1 2.7h.1s.6-1.5 1.1-2.7l6.1-13.3h2.3l1.6 20.2c0 .5.3.7.7.7h1.2v2h-2.2c-1.4 0-1.9-.6-2-2l-1.1-13.9c-.1-1.2-.1-3.2-.1-3.2h-.1s-.6 2-1.2 3.2l-5.4 11.6h-2.1l-5.4-11.6c-.5-1.1-1.2-3.3-1.2-3.3h-.1s0 2-.1 3.3l-1.1 13.9c-.1 1.4-.6 2-2 2h-2.2v-2zm28.3 0h2.2v-18.9h-2.2v-2h6.5v2h-2.2v18.9h2.2v2h-6.5zm20.6-21.2c3.3 0 8.6 1.4 8.6 4.9v1.9h-2.2v-1.3c0-2.2-3.7-3.3-6.4-3.3-5.1 0-9 4-9 9.5s3.9 9.9 9.1 9.9c4.7 0 7.5-3.2 7.5-3.2l1.3 1.7s-3.2 3.7-8.8 3.7c-6.7 0-11.4-5.3-11.4-12 0-6.8 4.9-11.8 11.3-11.8zm22.8 0c6.5 0 11.7 5.1 11.7 11.7 0 6.7-5.2 12-11.7 12s-11.7-5.3-11.7-12c.1-6.6 5.2-11.7 11.7-11.7zm0 21.5c5.1 0 9.3-4.3 9.3-9.8 0-5.4-4.2-9.5-9.3-9.5s-9.3 4.1-9.3 9.5c0 5.5 4.2 9.8 9.3 9.8zm-159.9 13.9c5.3 0 8 2.8 8 2.8l-1.3 1.7s-2.5-2.3-6.6-2.3c-5.1 0-9.1 4.1-9.1 9.6 0 5.6 3.9 9.7 9.1 9.7 4.5 0 7.2-3.4 7.2-3.4v-2.8c0-.5-.3-.7-.7-.7h-1.4v-2h2.3c1.4 0 2 .6 2 2v8.7h-2.1v-2.7h-.1s-2.7 3.1-7.5 3.1c-6.3 0-11.2-5-11.2-11.9 0-6.6 4.9-11.8 11.4-11.8zm14.4 2.4h-2.1v-2h13.1c1.4 0 2 .6 2 2v2.3h-2.2v-1.5c0-.5-.3-.7-.7-.7h-7.8v8.3h8.6v2h-8.6v7.8c0 .5.3.7.7.7h8c.5 0 .7-.2.7-.7v-1.5h2.1v2.3c0 1.4-.6 2-2 2h-9.9c-1.4 0-2-.6-2-2v-19zm16.1 18.9h1.4c.5 0 .7-.2.7-.7v-20.2h2.1l11.7 16.3c.8 1.1 1.9 3 1.9 3h.1s-.2-1.8-.2-3v-14.3c0-1.4.6-2 2-2h2.4v2h-1.4c-.5 0-.7.2-.7.7v20.2h-2.1l-11.7-16.3c-.8-1.1-1.9-3-1.9-3h-.1s.2 1.8.2 3v14.3c0 1.4-.6 2-2 2h-2.4zm26.8-18.9h-2.1v-2h13.1c1.4 0 2 .6 2 2v2.3h-2.2v-1.5c0-.5-.3-.7-.7-.7h-7.8v8.3h8.6v2h-8.6v7.8c0 .5.3.7.7.7h8c.5 0 .7-.2.7-.7v-1.5h2.1v2.3c0 1.4-.6 2-2 2h-9.9c-1.4 0-2-.6-2-2v-19zm18.2 0h-2.1v-2h9.7c3.8 0 6.6 2.5 6.6 6.5 0 3.6-2.2 5.6-4.4 6.1v.1s.5.3.8.9l3.3 6.5c.3.7.8.7 1.6.7h.5v2h-1c-1.9 0-2.4-.2-3.2-1.7l-3.3-6.5c-.6-1.2-1-1.4-2.3-1.4h-3.9v9.6h-2.3zm7.4 9.2c2.7 0 4.4-1.8 4.4-4.7 0-2.8-1.7-4.6-4.4-4.6h-5.1v9.2zm9.6 9.7h.4c.6 0 .9-.1 1.2-.7l7.5-20.2h2.4l7.5 20.2c.2.6.6.7 1.2.7h.4v2h-1c-1.6 0-2.1-.3-2.7-1.9l-2-5.4h-9.1l-2 5.4c-.6 1.6-1 1.9-2.7 1.9h-1.1zm14.2-7.3l-3-8.2c-.4-1.1-.9-3-.9-3h-.1s-.5 1.9-.9 3l-3 8.2zm12.9-11.6h-5.7c-.5 0-.7.2-.7.7v1.5h-2.1v-2.4c0-1.4.5-1.9 1.9-1.9h15.5c1.4 0 1.9.5 1.9 1.9v2.4h-2.1v-1.5c0-.5-.2-.7-.7-.7h-5.6v20.9h-2.3v-20.9zm23.5-2.4c6.5 0 11.7 5.1 11.7 11.7 0 6.7-5.2 12-11.7 12s-11.7-5.3-11.7-12c.1-6.6 5.2-11.7 11.7-11.7zm0 21.5c5.1 0 9.3-4.3 9.3-9.8 0-5.4-4.2-9.5-9.3-9.5s-9.3 4.1-9.3 9.5c.1 5.5 4.2 9.8 9.3 9.8zm-168.2 16.3h-2.1v-2h9.2c6.9 0 11.5 4.2 11.5 11.4 0 7.3-4.6 11.5-11.5 11.5h-5.2c-1.4 0-2-.6-2-2zm2.9 18.9h3.8c5.6 0 9.4-3.3 9.4-9.4s-3.7-9.4-9.4-9.4h-4.6v18.1c.1.5.4.7.8.7zm16.8 0h.4c.6 0 .9-.1 1.2-.7l7.5-20.2h2.4l7.5 20.2c.2.6.6.7 1.2.7h.4v2h-1c-1.6 0-2.1-.3-2.7-1.9l-2-5.4h-9.1l-2 5.4c-.6 1.6-1 1.9-2.7 1.9h-1.1zm14.3-7.3l-3-8.2c-.4-1.1-.9-3-.9-3h-.1s-.5 1.9-.9 3l-3 8.2zm10.2-10.9c0-.5-.3-.7-.7-.7h-1.4v-2h2.4c1.4 0 2 .6 2 2v18.2c0 .5.3.7.7.7h7.6c.5 0 .7-.2.7-.7v-1.5h2.2v2.3c0 1.4-.6 2-2 2h-9.5c-1.4 0-2-.6-2-2zm35.4-3.1c5.3 0 8 2.8 8 2.8l-1.3 1.7s-2.5-2.3-6.6-2.3c-5.1 0-9.1 4.1-9.1 9.6 0 5.6 3.9 9.7 9.1 9.7 4.5 0 7.2-3.4 7.2-3.4v-2.8c0-.5-.3-.7-.7-.7h-1.4v-2h2.3c1.4 0 2 .6 2 2v8.7h-2.2v-2.7s-2.7 3.1-7.5 3.1c-6.3 0-11.2-5-11.2-11.9 0-6.6 4.9-11.8 11.4-11.8zm14.4 2.4h-2.1v-2h9.7c3.8 0 6.6 2.5 6.6 6.5 0 3.6-2.2 5.6-4.4 6.1v.1s.5.3.8.9l3.3 6.5c.3.7.8.7 1.6.7h.5v2h-1c-1.9 0-2.4-.2-3.2-1.7l-3.3-6.5c-.6-1.2-1-1.4-2.3-1.4h-3.8v9.6h-2.3zm7.3 9.2c2.7 0 4.4-1.8 4.4-4.7 0-2.8-1.7-4.6-4.4-4.6h-5.1v9.2zm12.1-8.5c0-.5-.3-.7-.7-.7h-1.4v-2h2.4c1.4 0 2 .6 2 2v13c0 3.8 2.4 6.2 6.2 6.2 3.7 0 6.2-2.4 6.2-6.3v-12.9c0-1.4.6-2 2-2h2.4v2h-1.4c-.5 0-.7.2-.7.7v12.3c0 5-3.4 8.2-8.4 8.2s-8.5-3.3-8.5-8.2zm23.6-.7h-2.1v-2h9.7c4.1 0 7.1 2.7 7.1 6.9 0 4.3-3 7-7.1 7h-5.3v9h-2.3zm7.3 9.9c3 0 5-1.9 5-5s-2-4.9-5-4.9h-5v9.9zm11.6-9.9h-2.1v-2h9.7c4.1 0 7.1 2.7 7.1 6.9 0 4.3-3 7-7.1 7h-5.3v9h-2.3zm7.3 9.9c3 0 5-1.9 5-5s-2-4.9-5-4.9h-5v9.9zm21-12.3c6.5 0 11.7 5.1 11.7 11.7 0 6.7-5.2 12-11.7 12s-11.7-5.3-11.7-12c0-6.6 5.2-11.7 11.7-11.7zm0 21.5c5.1 0 9.3-4.3 9.3-9.8 0-5.4-4.2-9.5-9.3-9.5s-9.3 4.1-9.3 9.5c0 5.5 4.1 9.8 9.3 9.8zm-146.8 218.8c-.2-.6-.6-.7-1.2-.7h-.3v-2h1c1.6 0 2.1.3 2.7 1.9l5.7 15.5c.4 1.2.9 3 .9 3h.1s.5-1.8.9-3l5.7-15.5c.6-1.6 1.1-1.9 2.7-1.9h1v2h-.3c-.6 0-.9.1-1.2.7l-7.6 20.3h-2.5zm18.8 18.3h.4c.6 0 .9-.1 1.2-.7l7.5-20.3h2.5l7.5 20.3c.2.6.6.7 1.2.7h.4v2h-1c-1.6 0-2.1-.3-2.7-1.9l-2-5.4h-9.1l-2 5.4c-.6 1.6-1 1.9-2.7 1.9h-1.1v-2zm14.3-7.3l-3-8.2c-.4-1.1-.9-3-.9-3h-.1s-.5 1.9-.9 3l-3 8.2zm10.3-11c0-.5-.3-.7-.7-.7h-1.4v-2h2.4c1.4 0 2 .6 2 2v18.3c0 .5.3.7.7.7h7.6c.5 0 .7-.2.7-.7v-1.5h2.2v2.3c0 1.4-.6 2-2 2h-9.5c-1.4 0-2-.6-2-2zm26.2-3.1c6.5 0 11.7 5.1 11.7 11.8 0 6.8-5.2 12.1-11.7 12.1-6.6 0-11.7-5.3-11.7-12.1 0-6.7 5.1-11.8 11.7-11.8zm0 21.6c5.1 0 9.3-4.3 9.3-9.9 0-5.4-4.2-9.6-9.3-9.6-5.2 0-9.3 4.2-9.3 9.6-.1 5.6 4.1 9.9 9.3 9.9zm16.4-19.2h-2.1v-2h9.8c3.9 0 6.6 2.6 6.6 6.6 0 3.6-2.2 5.7-4.5 6.2v.1s.5.3.8.9l3.3 6.6c.3.7.8.8 1.6.8h.5v2h-1c-1.9 0-2.4-.2-3.2-1.7l-3.3-6.6c-.6-1.2-1-1.4-2.3-1.4h-3.9v9.7h-2.3zm7.4 9.3c2.8 0 4.5-1.8 4.5-4.7s-1.7-4.6-4.4-4.6h-5.1v9.3zm12.5-9.3h-2.1v-2h13.2c1.4 0 2 .6 2 2v2.3h-2.2v-1.5c0-.5-.3-.7-.7-.7h-7.9v8.4h8.7v2h-8.7v7.8c0 .5.3.7.7.7h8.1c.5 0 .7-.2.7-.7v-1.5h2.1v2.3c0 1.4-.6 2-2 2h-10c-1.4 0-2-.6-2-2v-19.1zm-144.7 35.6h-2.1v-2h13.2c1.4 0 2 .6 2 2v2.3h-2.2v-1.5c0-.5-.3-.7-.7-.7h-7.9v8.4h8.7v2h-8.7v7.8c0 .5.3.7.7.7h8.1c.5 0 .7-.2.7-.7v-1.5h2.1v2.3c0 1.4-.6 2-2 2h-10c-1.4 0-2-.6-2-2v-19.1zm27.4-2.4c3.3 0 8.6 1.4 8.6 4.9v1.9h-2.2v-1.3c0-2.2-3.7-3.3-6.4-3.3-5.1 0-9 4-9 9.6 0 5.5 3.9 9.9 9.1 9.9 4.8 0 7.5-3.2 7.5-3.2l1.3 1.7s-3.2 3.7-8.9 3.7c-6.8 0-11.5-5.4-11.5-12.1.1-6.7 5-11.8 11.5-11.8zm22.9 0c6.5 0 11.7 5.1 11.7 11.8 0 6.8-5.2 12.1-11.7 12.1-6.6 0-11.7-5.3-11.7-12.1 0-6.7 5.1-11.8 11.7-11.8zm0 21.7c5.1 0 9.3-4.3 9.3-9.9 0-5.4-4.2-9.6-9.3-9.6-5.2 0-9.3 4.2-9.3 9.6 0 5.5 4.1 9.9 9.3 9.9zm14.3-.3h1.4c.5 0 .7-.2.7-.7v-20.3h2.1l11.8 16.4c.8 1.1 1.9 3 1.9 3h.1s-.2-1.8-.2-3v-14.4c0-1.4.6-2 2-2h2.4v2h-1.4c-.5 0-.7.2-.7.7v20.3h-2.1l-11.8-16.4c-.8-1.1-1.9-3-1.9-3h-.1s.2 1.8.2 3v14.4c0 1.4-.6 2-2 2h-2.4zm36.5-21.4c6.5 0 11.7 5.1 11.7 11.8 0 6.8-5.2 12.1-11.7 12.1-6.6 0-11.7-5.3-11.7-12.1 0-6.7 5.2-11.8 11.7-11.8zm0 21.7c5.1 0 9.3-4.3 9.3-9.9 0-5.4-4.2-9.6-9.3-9.6-5.2 0-9.3 4.2-9.3 9.6 0 5.5 4.2 9.9 9.3 9.9zm13.7-.3h1.2c.5 0 .7-.2.7-.7l1.6-20.3h2.3l6.1 13.4c.6 1.2 1.1 2.7 1.1 2.7h.1s.6-1.5 1.1-2.7l6.1-13.4h2.3l1.6 20.3c0 .5.3.7.7.7h1.2v2h-2.2c-1.4 0-1.9-.6-2-2l-1.1-14c-.1-1.2-.1-3.2-.1-3.2h-.1s-.6 2-1.2 3.2l-5.5 11.7h-2.1l-5.4-11.7c-.5-1.1-1.2-3.3-1.2-3.3h-.1s0 2-.1 3.3l-1.1 14c-.1 1.4-.6 2-2 2h-2.2v-2zm28.5 0h2.2v-19h-2.2v-2h6.6v2h-2.2v19h2.2v2h-6.6zm20.7-21.4c3.3 0 8.6 1.4 8.6 4.9v1.9h-2.2v-1.3c0-2.2-3.7-3.3-6.4-3.3-5.1 0-9 4-9 9.6 0 5.5 3.9 9.9 9.1 9.9 4.8 0 7.5-3.2 7.5-3.2l1.3 1.7s-3.2 3.7-8.9 3.7c-6.8 0-11.5-5.4-11.5-12.1.1-6.7 5-11.8 11.5-11.8zm22.9 0c6.5 0 11.7 5.1 11.7 11.8 0 6.8-5.2 12.1-11.7 12.1-6.6 0-11.7-5.3-11.7-12.1 0-6.7 5.2-11.8 11.7-11.8zm0 21.7c5.1 0 9.3-4.3 9.3-9.9 0-5.4-4.2-9.6-9.3-9.6-5.2 0-9.3 4.2-9.3 9.6 0 5.5 4.1 9.9 9.3 9.9zm-184.4 16.3h-2.1v-2h9.2c6.9 0 11.6 4.2 11.6 11.5s-4.6 11.5-11.6 11.5h-5.1c-1.4 0-2-.6-2-2zm3 19h3.9c5.7 0 9.4-3.3 9.4-9.5 0-6.1-3.8-9.5-9.4-9.5h-4.6v18.3c0 .5.3.7.7.7zm18.4 0h2.2v-19h-2.2v-2h6.6v2h-2.2v19h2.2v2h-6.6zm10.8-2.5s2.3 2.8 6 2.8c2.5 0 4.6-1.6 4.6-4.1 0-5.7-11.4-4.6-11.4-11.7 0-3.2 2.8-5.9 7-5.9 2.2 0 6.2 1 6.2 4v1.6h-2.2v-1.1c0-1.4-1.9-2.4-4-2.4-3 0-4.7 1.7-4.7 3.7 0 5.3 11.4 4 11.4 11.6 0 3.4-2.7 6.4-7 6.4-4.7 0-7.3-3.3-7.3-3.3zm23.3-16.5h-5.7c-.5 0-.7.2-.7.7v1.5h-2.1v-2.4c0-1.4.5-1.9 1.9-1.9h15.6c1.4 0 1.9.5 1.9 1.9v2.4h-2.1v-1.5c0-.5-.2-.7-.7-.7h-5.8v21h-2.3zm14.8 0h-2.1v-2h9.8c3.9 0 6.6 2.6 6.6 6.6 0 3.6-2.2 5.7-4.5 6.2v.1s.5.3.8.9l3.3 6.6c.3.7.8.8 1.6.8h.5v2h-1c-1.9 0-2.4-.2-3.2-1.7l-3.3-6.6c-.6-1.2-1-1.4-2.3-1.4h-3.9v9.7h-2.3zm7.4 9.3c2.8 0 4.5-1.8 4.5-4.7s-1.7-4.6-4.4-4.6h-5.1v9.3zm10.5 9.7h2.2v-19h-2.2v-2h6.6v2h-2.2v19h2.2v2h-6.6zm11.5-19h-2.1v-2h9.8c3.6 0 6.2 2.2 6.2 5.8 0 2.5-1.3 4.2-2.9 5v.1c2.4.7 3.9 2.9 3.9 5.7 0 4.1-3 6.5-6.9 6.5h-5.9c-1.4 0-2-.6-2-2zm7.6 8c2.3 0 3.9-1.6 3.9-4s-1.5-3.9-3.9-3.9h-5.3v8zm-4.6 11h4.9c2.8 0 4.5-1.7 4.5-4.5s-1.8-4.6-4.5-4.6h-5.6v8.3c0 .6.2.8.7.8zm16.7-18.2c0-.5-.3-.7-.7-.7h-1.4v-2h2.4c1.4 0 2 .6 2 2v13c0 3.8 2.4 6.2 6.2 6.2s6.2-2.4 6.2-6.3v-13c0-1.4.6-2 2-2h2.4v2h-1.4c-.5 0-.7.2-.7.7v12.4c0 5-3.4 8.3-8.5 8.3s-8.5-3.3-8.5-8.3zm21.7 18.2h2.2v-19h-2.2v-2h6.6v2h-2.2v19h2.2v2h-6.6zm17.1-19h-5.7c-.5 0-.7.2-.7.7v1.5h-2.1v-2.4c0-1.4.5-1.9 1.9-1.9h15.6c1.4 0 1.9.5 1.9 1.9v2.4h-2.1v-1.5c0-.5-.2-.7-.7-.7h-5.7v21h-2.3v-21zm23.7-2.4c6.5 0 11.7 5.1 11.7 11.8 0 6.8-5.2 12.1-11.7 12.1-6.6 0-11.7-5.3-11.7-12.1-.1-6.6 5.1-11.8 11.7-11.8zm0 21.7c5.1 0 9.3-4.3 9.3-9.9 0-5.4-4.2-9.6-9.3-9.6-5.2 0-9.3 4.2-9.3 9.6-.1 5.6 4.1 9.9 9.3 9.9zm-183.6 16.4h-2.1v-2h9.2c6.9 0 11.6 4.2 11.6 11.5s-4.6 11.5-11.6 11.5h-5.1c-1.4 0-2-.6-2-2zm3 18.9h3.9c5.7 0 9.4-3.3 9.4-9.5 0-6.1-3.8-9.5-9.4-9.5h-4.6v18.3c0 .5.3.7.7.7zm16.9 0h.4c.6 0 .9-.1 1.2-.7l7.5-20.3h2.5l7.5 20.3c.2.6.6.7 1.2.7h.4v2h-1c-1.6 0-2.1-.3-2.7-1.9l-2-5.4h-9.1l-2 5.4c-.6 1.6-1 1.9-2.7 1.9h-1.1v-2zm14.3-7.3l-3-8.2c-.4-1.1-.9-3-.9-3h-.1s-.5 1.9-.9 3l-3 8.2zm10.3-10.9c0-.5-.3-.7-.7-.7h-1.4v-2h2.4c1.4 0 2 .6 2 2v18.3c0 .5.3.7.7.7h7.6c.5 0 .7-.2.7-.7v-1.6h2.2v2.3c0 1.4-.6 2-2 2h-9.5c-1.4 0-2-.6-2-2zm35.6-3.2c5.3 0 8.1 2.8 8.1 2.8l-1.3 1.7s-2.6-2.4-6.7-2.4c-5.2 0-9.1 4.2-9.1 9.7 0 5.7 3.9 9.8 9.1 9.8 4.6 0 7.3-3.4 7.3-3.4v-2.9c0-.5-.3-.7-.7-.7h-1.4v-2h2.3c1.4 0 2 .6 2 2v8.7h-2.1v-2.7h-.1s-2.7 3.1-7.5 3.1c-6.3 0-11.3-5-11.3-12-.1-6.4 4.9-11.7 11.4-11.7zm14.4 2.5h-2.1v-2h9.8c3.9 0 6.6 2.6 6.6 6.6 0 3.6-2.2 5.7-4.5 6.2v.1s.5.3.8.9l3.3 6.6c.3.7.8.8 1.6.8h.5v2h-1c-1.9 0-2.4-.2-3.2-1.7l-3.3-6.6c-.6-1.2-1-1.4-2.3-1.4h-3.9v9.7h-2.3zm7.5 9.2c2.8 0 4.5-1.8 4.5-4.7s-1.7-4.6-4.4-4.6h-5.1v9.3zm12.1-8.5c0-.5-.3-.7-.7-.7h-1.4v-2h2.4c1.4 0 2 .6 2 2v13c0 3.8 2.4 6.2 6.2 6.2s6.2-2.4 6.2-6.3v-13c0-1.4.6-2 2-2h2.4v2h-1.4c-.5 0-.7.2-.7.7v12.4c0 5-3.4 8.3-8.5 8.3s-8.5-3.3-8.5-8.3zm23.8-.7h-2.1v-2h9.7c4.1 0 7.1 2.7 7.1 6.9 0 4.3-3 7-7.1 7h-5.3v9h-2.3zm7.3 9.9c3 0 5-1.9 5-5s-2-4.9-5-4.9h-5v9.9zm11.6-9.9h-2.1v-2h9.7c4.1 0 7.1 2.7 7.1 6.9 0 4.3-3 7-7.1 7h-5.3v9h-2.3zm7.3 9.9c3 0 5-1.9 5-5s-2-4.9-5-4.9h-5v9.9zm21.2-12.4c6.5 0 11.7 5.1 11.7 11.8 0 6.8-5.2 12.1-11.7 12.1-6.6 0-11.7-5.3-11.7-12.1 0-6.6 5.1-11.8 11.7-11.8zm0 21.7c5.1 0 9.3-4.3 9.3-9.9 0-5.4-4.2-9.6-9.3-9.6-5.2 0-9.3 4.2-9.3 9.6-.1 5.6 4.1 9.9 9.3 9.9zm-146.1 221.4c-.2-.6-.6-.7-1.2-.7h-.3v-2h1c1.6 0 2.1.3 2.7 1.9l5.6 15.3c.4 1.2.9 2.9.9 2.9h.1s.5-1.8.9-2.9l5.6-15.3c.6-1.6 1.1-1.9 2.7-1.9h1v2h-.3c-.6 0-.9.1-1.2.7l-7.5 20h-2.4zm18.5 18.1h.4c.6 0 .9-.1 1.2-.7l7.4-20h2.4l7.4 20c.2.6.6.7 1.2.7h.4v2h-1c-1.6 0-2.1-.3-2.7-1.9l-2-5.4h-9l-2 5.4c-.6 1.6-1 1.9-2.7 1.9h-1.1zm14.1-7.2l-3-8.1c-.4-1.1-.9-2.9-.9-2.9h-.1s-.5 1.9-.9 2.9l-3 8.1zm10.2-10.9c0-.5-.3-.7-.7-.7h-1.4v-2h2.4c1.4 0 2 .6 2 2v18.1c0 .5.3.7.7.7h7.5c.5 0 .7-.2.7-.7v-1.5h2.1v2.3c0 1.4-.6 2-2 2h-9.4c-1.4 0-2-.6-2-2v-18.2zm25.9-3.1c6.4 0 11.6 5.1 11.6 11.6 0 6.7-5.1 11.9-11.6 11.9s-11.6-5.2-11.6-11.9c0-6.5 5.1-11.6 11.6-11.6zm0 21.4c5.1 0 9.2-4.3 9.2-9.8 0-5.4-4.1-9.5-9.2-9.5s-9.2 4.1-9.2 9.5c0 5.6 4.1 9.8 9.2 9.8zm16.2-19h-2.1v-2h9.6c3.8 0 6.5 2.5 6.5 6.5 0 3.5-2.2 5.6-4.4 6.1v.1s.5.3.8.9l3.3 6.5c.3.7.8.7 1.6.7h.5v2h-1c-1.8 0-2.4-.2-3.1-1.7l-3.3-6.5c-.6-1.2-1-1.4-2.3-1.4h-3.8v9.6h-2.3zm7.4 9.2c2.7 0 4.4-1.8 4.4-4.6s-1.7-4.5-4.4-4.5h-5.1v9.2zm12.2-9.2h-2.1v-2h13c1.4 0 2 .6 2 2v2.3h-2.1v-1.5c0-.5-.3-.7-.7-.7h-7.8v8.3h8.5v2h-8.5v7.7c0 .5.3.7.7.7h8c.5 0 .7-.2.7-.7v-1.5h2.1v2.3c0 1.4-.6 2-2 2h-9.8c-1.4 0-2-.6-2-2zm-142.9 35.2h-2.1v-2h13c1.4 0 2 .6 2 2v2.3h-2.1v-1.5c0-.5-.3-.7-.7-.7h-7.8v8.3h8.5v2h-8.5v7.7c0 .5.3.7.7.7h8c.5 0 .7-.2.7-.7v-1.5h2.1v2.3c0 1.4-.6 2-2 2h-9.8c-1.4 0-2-.6-2-2zm27.1-2.4c3.2 0 8.5 1.4 8.5 4.8v1.9h-2.1v-1.3c0-2.1-3.7-3.3-6.3-3.3-5 0-8.9 3.9-8.9 9.5 0 5.4 3.9 9.8 9 9.8 4.7 0 7.4-3.2 7.4-3.2l1.3 1.7s-3.1 3.7-8.8 3.7c-6.7 0-11.4-5.3-11.4-11.9 0-6.7 4.9-11.7 11.3-11.7zm22.6 0c6.4 0 11.6 5.1 11.6 11.6 0 6.7-5.1 11.9-11.6 11.9s-11.6-5.2-11.6-11.9c0-6.5 5.2-11.6 11.6-11.6zm0 21.4c5.1 0 9.2-4.3 9.2-9.8 0-5.4-4.1-9.5-9.2-9.5s-9.2 4.1-9.2 9.5c0 5.5 4.1 9.8 9.2 9.8zm14.2-.2h1.4c.5 0 .7-.2.7-.7v-20h2.1l11.6 16.2c.8 1.1 1.8 3 1.8 3h.1s-.2-1.8-.2-3v-14.2c0-1.4.6-2 2-2h2.4v2h-1.4c-.5 0-.7.2-.7.7v20h-2.1l-11.6-16.2c-.8-1.1-1.9-2.9-1.9-2.9h-.1s.2 1.7.2 2.9v14.2c0 1.4-.6 2-2 2h-2.4v-2zm36-21.2c6.4 0 11.6 5.1 11.6 11.6 0 6.7-5.1 11.9-11.6 11.9s-11.6-5.2-11.6-11.9c0-6.5 5.2-11.6 11.6-11.6zm0 21.4c5.1 0 9.2-4.3 9.2-9.8 0-5.4-4.1-9.5-9.2-9.5s-9.2 4.1-9.2 9.5c0 5.5 4.1 9.8 9.2 9.8zm13.5-.2h1.2c.5 0 .7-.2.7-.7l1.6-20h2.3l6 13.2c.6 1.2 1.1 2.7 1.1 2.7h.1s.6-1.5 1.1-2.7l6-13.2h2.3l1.6 20c0 .5.3.7.7.7h1.2v2h-2.2c-1.4 0-1.9-.6-2-2l-1.1-13.8c-.1-1.2-.1-3.2-.1-3.2h-.1s-.6 2-1.2 3.2l-5.4 11.6h-2l-5.4-11.6c-.5-1.1-1.2-3.2-1.2-3.2h.1s0 2-.1 3.2l-1.1 13.8c-.1 1.4-.6 2-2 2h-2.2zm28.2 0h2.1v-18.7h-2.1v-2h6.5v2h-2.2v18.7h2.2v2h-6.5zm20.4-21.2c3.2 0 8.5 1.4 8.5 4.8v1.9h-2.1v-1.3c0-2.1-3.7-3.3-6.3-3.3-5 0-8.9 3.9-8.9 9.5 0 5.4 3.9 9.8 9 9.8 4.7 0 7.4-3.2 7.4-3.2l1.3 1.7s-3.1 3.7-8.8 3.7c-6.7 0-11.4-5.3-11.4-11.9.1-6.7 4.9-11.7 11.3-11.7zm22.7 0c6.4 0 11.6 5.1 11.6 11.6 0 6.7-5.1 11.9-11.6 11.9s-11.6-5.2-11.6-11.9c0-6.5 5.1-11.6 11.6-11.6zm0 21.4c5.1 0 9.2-4.3 9.2-9.8 0-5.4-4.1-9.5-9.2-9.5s-9.2 4.1-9.2 9.5c-.1 5.5 4.1 9.8 9.2 9.8zm-183.5 16.2h-5.6c-.5 0-.7.2-.7.7v1.5h-2.1v-2.4c0-1.4.5-1.8 1.8-1.8h15.4c1.4 0 1.8.5 1.8 1.8v2.4h-2.1v-1.5c0-.5-.2-.7-.7-.7h-5.6v20.7h-2.3zm14.6 0h-2.1v-2h9.6c3.8 0 6.5 2.5 6.5 6.5 0 3.5-2.2 5.6-4.4 6.1v.1s.5.3.8.9l3.3 6.5c.3.7.8.7 1.6.7h.5v2h-1c-1.8 0-2.4-.2-3.1-1.7l-3.3-6.5c-.6-1.2-1-1.4-2.3-1.4h-3.8v9.6h-2.3zm7.3 9.2c2.7 0 4.4-1.8 4.4-4.6s-1.7-4.5-4.4-4.5h-5.1v9.2zm9.5 9.5h.4c.6 0 .9-.1 1.2-.7l7.4-20h2.4l7.4 20c.2.6.6.7 1.2.7h.4v2h-1c-1.6 0-2.1-.3-2.7-1.9l-2-5.4h-9l-2 5.4c-.6 1.6-1 1.9-2.7 1.9h-1.1zm14.2-7.2l-3-8.1c-.4-1.1-.9-2.9-.9-2.9h-.1s-.5 1.9-.9 2.9l-3 8.1zm12.8-11.5h-5.6c-.5 0-.7.2-.7.7v1.5h-2.1v-2.4c0-1.4.5-1.8 1.8-1.8h15.4c1.4 0 1.8.5 1.8 1.8v2.4h-2.1v-1.5c0-.5-.2-.7-.7-.7h-5.6v20.7h-2.3zm20.1 0h-5.6c-.5 0-.7.2-.7.7v1.5h-2.1v-2.4c0-1.4.5-1.8 1.8-1.8h15.4c1.4 0 1.8.5 1.8 1.8v2.4h-2.1v-1.5c0-.5-.2-.7-.7-.7h-5.6v20.7h-2.2zm14.6 0h-2.1v-2h13c1.4 0 2 .6 2 2v2.3h-2.1v-1.5c0-.5-.3-.7-.7-.7h-7.8v8.3h8.5v2h-8.5v7.7c0 .5.3.7.7.7h8c.5 0 .7-.2.7-.7v-1.5h2.1v2.3c0 1.4-.6 2-2 2h-9.8c-1.4 0-2-.6-2-2zm15.9 18.7h1.4c.5 0 .7-.2.7-.7v-20h2.1l11.6 16.2c.8 1.1 1.8 3 1.8 3h.1s-.2-1.8-.2-3v-14.2c0-1.4.6-2 2-2h2.4v2h-1.4c-.5 0-.7.2-.7.7v20h-2.1l-11.6-16.2c-.8-1.1-1.9-2.9-1.9-2.9h-.1s.2 1.7.2 2.9v14.2c0 1.4-.6 2-2 2h-2.4v-2zm26.5-18c0-.5-.3-.7-.7-.7h-1.4v-2h2.4c1.4 0 2 .6 2 2v12.9c0 3.8 2.4 6.1 6.1 6.1s6.1-2.4 6.1-6.2v-12.8c0-1.4.6-2 2-2h2.4v2h-1.4c-.5 0-.7.2-.7.7v12.2c0 4.9-3.4 8.2-8.4 8.2s-8.4-3.3-8.4-8.2zm28.9-.7h-5.6c-.5 0-.7.2-.7.7v1.5h-2.1v-2.4c0-1.4.5-1.8 1.8-1.8h15.4c1.4 0 1.8.5 1.8 1.8v2.4h-2.1v-1.5c0-.5-.2-.7-.7-.7h-5.6v20.7h-2.3zm23.4-2.4c6.4 0 11.6 5.1 11.6 11.6 0 6.7-5.1 11.9-11.6 11.9s-11.6-5.2-11.6-11.9c0-6.5 5.1-11.6 11.6-11.6zm0 21.4c5.1 0 9.2-4.3 9.2-9.8 0-5.4-4.1-9.5-9.2-9.5s-9.2 4.1-9.2 9.5c-.1 5.5 4 9.8 9.2 9.8zm-188.2 16.2h-2.1v-2h9.1c6.9 0 11.4 4.2 11.4 11.4s-4.6 11.4-11.4 11.4h-5c-1.4 0-2-.6-2-2zm3 18.7h3.8c5.6 0 9.3-3.3 9.3-9.4s-3.7-9.4-9.3-9.4h-4.5v18c0 .6.3.8.7.8zm16.7 0h.4c.6 0 .9-.1 1.2-.7l7.4-20h2.4l7.4 20c.2.6.6.7 1.2.7h.4v2h-1c-1.6 0-2.1-.3-2.7-1.9l-2-5.4h-9l-2 5.4c-.6 1.6-1 1.9-2.7 1.9h-1.1zm14.1-7.2l-3-8.1c-.4-1.1-.9-2.9-.9-2.9s-.5 1.9-.9 2.9l-3 8.1zm10.2-10.8c0-.5-.3-.7-.7-.7h-1.4v-2h2.4c1.4 0 2 .6 2 2v18.1c0 .5.3.7.7.7h7.5c.5 0 .7-.2.7-.7v-1.5h2.1v2.3c0 1.4-.6 2-2 2h-9.4c-1.4 0-2-.6-2-2zm35.1-3.1c5.3 0 8 2.8 8 2.8l-1.3 1.7s-2.5-2.3-6.6-2.3c-5.1 0-9 4.1-9 9.6 0 5.6 3.9 9.7 9 9.7 4.5 0 7.2-3.3 7.2-3.3v-2.8c0-.5-.3-.7-.7-.7h-1.4v-2h2.3c1.4 0 2 .6 2 2v8.6h-2.1v-2.7h-.1s-2.7 3.1-7.4 3.1c-6.2 0-11.1-5-11.1-11.8-.1-6.7 4.8-11.9 11.2-11.9zm14.3 2.4h-2.1v-2h9.6c3.8 0 6.5 2.5 6.5 6.5 0 3.5-2.2 5.6-4.4 6.1v.1s.5.3.8.9l3.3 6.5c.3.7.8.7 1.6.7h.5v2h-1c-1.8 0-2.4-.2-3.1-1.7l-3.3-6.5c-.6-1.2-1-1.4-2.3-1.4h-3.8v9.6h-2.3zm7.3 9.1c2.7 0 4.4-1.8 4.4-4.6s-1.7-4.5-4.4-4.5h-5.1v9.2zm12-8.4c0-.5-.3-.7-.7-.7h-1.4v-2h2.4c1.4 0 2 .6 2 2v12.9c0 3.8 2.4 6.1 6.1 6.1s6.1-2.4 6.1-6.2v-12.8c0-1.4.6-2 2-2h2.4v2h-1.4c-.5 0-.7.2-.7.7v12.2c0 4.9-3.4 8.2-8.4 8.2s-8.4-3.3-8.4-8.2zm23.5-.7h-2.1v-2h9.6c4 0 7 2.7 7 6.9s-3 7-7 7h-5.2v8.9h-2.3zm7.2 9.8c3 0 5-1.8 5-5 0-3.1-2-4.9-5-4.9h-5v9.8zm11.5-9.8h-2.1v-2h9.6c4 0 7 2.7 7 6.9s-3 7-7 7h-5.2v8.9h-2.3zm7.3 9.8c3 0 5-1.8 5-5 0-3.1-2-4.9-5-4.9h-5v9.8zm20.8-12.2c6.4 0 11.6 5.1 11.6 11.6 0 6.7-5.1 11.9-11.6 11.9s-11.6-5.2-11.6-11.9c.1-6.5 5.2-11.6 11.6-11.6zm0 21.4c5.1 0 9.2-4.3 9.2-9.8 0-5.4-4.1-9.5-9.2-9.5s-9.2 4.1-9.2 9.5c0 5.5 4.1 9.8 9.2 9.8z" fill="#fff"/></svg>