<svg baseProfile="basic" xmlns="http://www.w3.org/2000/svg" viewBox="0 0 774 820"><ellipse cx="337.6" cy="142.2" rx="138.6" ry="138.5" fill="#4a5496"/><path d="M70.5 73.1zm77-13.8l-4.7-4 .4 3.3-1.4 3zm-7.2-.6c.1.1.2.1.3.2.1 0 .2.1.3.1.2 0 .4-.1.6-.2.1-.1.1-.2.2-.3 0-.1.1-.2.1-.3 0-.2-.1-.4-.2-.6-.3-.3-.9-.3-1.2 0-.2.2-.2.4-.2.6 0 .1 0 .2.1.3-.1.1 0 .1 0 .2zm-4.4-.6c.5 0 .9-.3.9-.7.1-.4-.3-.9-.7-.9-.4-.1-.9.3-.9.7 0 .5.3.9.7.9zm-4.8-.5c.5 0 .9-.3.9-.7 0-.4-.3-.8-.8-.9-.4 0-.8.3-.9.7 0 .4.3.8.8.9zm-4.9-.3c.5 0 .8-.3.8-.8s-.3-.8-.8-.8-.8.3-.9.8c.1.4.4.8.9.8zm-4.9-.1c.5 0 .8-.4.8-.8 0-.5-.4-.8-.8-.8s-.8.4-.8.8c-.1.5.3.8.8.8zm-5 .3c.5 0 .8-.4.8-.9s-.4-.8-.9-.8c-.4 0-.8.4-.8.9.1.4.5.8.9.8zm-4.9.4h.1c.4-.1.8-.5.7-.9-.1-.4-.5-.8-.9-.7-.4 0-.8.5-.7.9 0 .4.4.7.8.7zm-4.9.8h.1c.4-.1.7-.5.7-.9-.1-.5-.5-.7-.9-.7-.5.1-.7.5-.7.9.1.4.4.7.8.7zm-4.8.9h.2c.4-.1.7-.5.6-1-.1-.4-.5-.7-1-.6-.4.1-.7.5-.6 1 .1.4.4.6.8.6zm-4.8 1.3h.2c.4-.1.7-.6.6-1s-.6-.7-1-.6-.7.6-.6 1c.1.3.4.6.8.6zm-4.7 1.5c.1 0 .2 0 .3-.1.4-.1.7-.6.5-1-.1-.4-.6-.7-1-.5-.4.1-.7.6-.5 1 0 .3.3.6.7.6zm-4.7 1.7c.1 0 .2 0 .3-.1.4-.2.6-.6.4-1.1-.2-.4-.6-.6-1.1-.5-.4.2-.6.6-.4 1.1.2.4.5.6.8.6zM83 66c.1 0 .2 0 .4-.1.4-.2.6-.7.4-1.1s-.7-.6-1.1-.4-.6.7-.4 1.1c.1.3.4.5.7.5zm-4.4 2.2c.1 0 .3 0 .4-.1.4-.2.5-.7.3-1.1-.2-.4-.7-.6-1.1-.3-.4.2-.6.7-.3 1.1.1.2.4.4.7.4zm-4.4 2.4c.1 0 .3 0 .4-.1.4-.2.5-.7.3-1.1-.2-.4-.7-.5-1.1-.3s-.5.7-.3 1.1c.2.3.4.4.7.4zM70 73.2c.2 0 .3 0 .5-.1.4-.3.5-.7.2-1.1-.3-.4-.8-.5-1.1-.2-.4.3-.5.8-.2 1.1.1.2.4.3.6.3zm-4 2.9c.2 0 .3 0 .5-.2.4-.3.4-.8.2-1.1-.3-.4-.8-.4-1.2-.2-.4.3-.4.8-.2 1.2.2.2.4.3.7.3zm-3.9 3c.2 0 .4-.1.5-.2.4-.3.4-.8.1-1.1-.3-.4-.8-.4-1.2-.1-.3.3-.4.8-.1 1.1.2.2.5.3.7.3zm-3.7 3.3c.2 0 .4-.1.6-.2.3-.3.3-.8 0-1.2-.3-.3-.8-.4-1.2 0-.3.3-.3.8 0 1.1.1.2.4.3.6.3zm-3.6 3.4c.2 0 .4-.1.6-.2.3-.3.3-.8 0-1.2-.3-.3-.8-.3-1.2 0-.3.3-.3.8 0 1.2.2.1.4.2.6.2zm-3.4 3.6c.2 0 .5-.1.6-.3.3-.3.3-.8-.1-1.1-.3-.3-.8-.3-1.1.1-.3.3-.3.9.1 1.2.2.1.4.1.5.1zm-3.1 3.8c.2 0 .5-.1.6-.3.3-.4.2-.9-.1-1.1-.4-.3-.9-.2-1.1.1-.3.4-.2.9.1 1.2.1.1.3.1.5.1zm-3 4c.3 0 .5-.1.7-.3.3-.4.2-.9-.2-1.1-.4-.3-.9-.2-1.1.2-.3.4-.2.9.2 1.1.1 0 .2.1.4.1zm-3.2 4c.1.1.3.1.4.1.3 0 .5-.1.7-.4.2-.4.1-.9-.3-1.1-.4-.2-.9-.1-1.1.3-.2.3-.1.8.3 1.1zm-2.5 4.2c.1.1.3.1.4.1.3 0 .6-.1.7-.4.2-.4.1-.9-.3-1.1-.4-.2-.9-.1-1.1.3-.2.4-.1.9.3 1.1zm-2.3 4.4c.1.1.2.1.4.1.3 0 .6-.2.7-.4.2-.4 0-.9-.4-1.1-.4-.2-.9 0-1.1.4-.2.3 0 .8.4 1zm-2.1 4.5c.1 0 .2.1.3.1.3 0 .6-.2.8-.5.2-.4 0-.9-.4-1.1-.4-.2-.9 0-1.1.4-.1.4 0 .9.4 1.1zm-1.5 4.6c.2 0 .4-.1.6-.2.1-.1.2-.3.2-.6 0-.1 0-.2-.1-.3 0-.1-.1-.2-.2-.3s-.2-.1-.3-.2c-.2-.1-.4-.1-.6 0-.1 0-.2.1-.3.2-.1.1-.1.2-.2.3 0 .1-.1.2-.1.3 0 .2.1.4.2.6.4.1.6.2.8.2zm-1.8 4.6h.3c.3 0 .7-.2.8-.6.1-.4-.1-.9-.5-1s-.9.1-1 .5c-.3.5-.1.9.4 1.1zm-1.4 4.6h.2c.4 0 .7-.2.8-.6.1-.4-.1-.9-.6-1-.4-.1-.9.1-1 .6 0 .4.2.9.6 1zm-1 4.7h.2c.4 0 .7-.3.8-.7.1-.4-.2-.9-.6-1s-.9.2-1 .6c-.1.6.1 1 .6 1.1zm-.9 4.7h.1c.4 0 .7-.3.8-.7.1-.4-.2-.9-.7-.9-.4-.1-.9.2-.9.7s.3.9.7.9zm-.6 4.8c.5 0 .8-.3.9-.7 0-.5-.3-.9-.7-.9-.4-.1-.8.3-.9.7 0 .5.3.9.7.9zm-.3 4.9c.5 0 .8-.3.9-.8 0-.4-.3-.8-.8-.9-.5 0-.8.3-.9.8 0 .4.3.8.8.9zm-.1 4.8c.4 0 .8-.4.8-.8s-.4-.8-.8-.8-.8.4-.8.8.3.8.8.8zm.1 4.8c.4 0 .8-.4.8-.8 0-.5-.4-.8-.9-.8s-.8.4-.8.8c.1.4.4.8.9.8zm.3 4.8c.5 0 .9-.4.8-.9-.1-.4-.4-.8-.9-.7-.4 0-.8.4-.7.9 0 .4.4.7.8.7zm.6 4.8h.1c.4-.1.7-.5.7-.9-.1-.5-.5-.8-.9-.7-.5.1-.8.5-.7.9.1.4.4.7.8.7zm.8 4.7h.2c.4-.1.7-.5.6-1-.1-.4-.5-.7-1-.6-.4.1-.7.5-.6 1 .1.4.5.6.8.6zm1.1 4.7h.2c.4-.1.7-.6.6-1-.1-.4-.6-.7-1-.6-.4.1-.7.6-.6 1 .1.4.4.6.8.6zm1.3 4.7h.2c.4-.1.7-.6.5-1-.1-.4-.6-.7-1-.5-.4.1-.7.6-.5 1 .1.3.5.5.8.5zm1.6 4.6c.1 0 .2 0 .3-.1.4-.2.6-.6.5-1-.2-.4-.6-.6-1-.5-.4.2-.6.6-.5 1.1 0 .2.3.5.7.5zm1 3.9c.1.3.4.5.8.5.1 0 .2 0 .3-.1.4-.2.6-.7.4-1.1-.2-.4-.6-.6-1.1-.4-.4.3-.6.7-.4 1.1zm2 4.5c.1.3.4.5.7.5.1 0 .2 0 .3-.1.4-.2.6-.7.4-1.1s-.7-.6-1.1-.4c-.3.2-.5.7-.3 1.1zm2.9 4.7c.1 0 .3 0 .4-.1.4-.2.5-.7.3-1.1s-.7-.5-1.1-.3-.5.7-.3 1.1c.2.3.4.4.7.4zm2.4 4.2c.2 0 .3 0 .4-.1.4-.2.5-.7.3-1.1s-.7-.5-1.1-.3-.5.7-.3 1.1c.2.2.5.4.7.4zm2.7 4c.2 0 .3-.1.5-.1.4-.3.5-.8.2-1.1-.3-.4-.8-.5-1.1-.2-.4.3-.5.8-.2 1.1.1.2.3.3.6.3zm2.8 3.9c.2 0 .3-.1.5-.2.4-.3.4-.8.1-1.2-.3-.4-.8-.4-1.1-.2-.4.3-.4.8-.2 1.1.2.4.5.5.7.5zm3 3.8c.2 0 .4-.1.5-.2.3-.3.4-.8.1-1.1-.3-.3-.8-.4-1.1-.1-.4.3-.4.8-.1 1.2.2.1.4.2.6.2zm3.3 3.6c.2 0 .4-.1.5-.2.3-.3.4-.8 0-1.2-.3-.3-.8-.3-1.1 0-.3.3-.4.8 0 1.2.1.1.4.2.6.2zm3.4 3.4c.2 0 .4-.1.6-.3.3-.3.3-.8 0-1.2-.3-.3-.8-.3-1.1 0-.3.3-.3.9 0 1.2.1.3.3.3.5.3zm3.5 3.3c.2 0 .5-.1.6-.3.3-.3.3-.9-.1-1.1-.3-.3-.9-.3-1.2.1-.3.3-.3.9.1 1.1.2.1.4.2.6.2zm3.7 3.1c.3 0 .5-.1.7-.3.3-.4.2-.9-.2-1.1-.4-.3-.9-.2-1.2.1-.3.3-.2.9.1 1.1.3.1.5.2.6.2zm3.9 2.8c.3 0 .5-.1.7-.3.3-.4.2-.9-.2-1.1-.4-.3-.9-.2-1.1.2-.3.4-.2.9.2 1.1.1.1.3.1.4.1zm3.6 2.6c.1.1.3.1.4.1.3 0 .5-.1.7-.4.2-.4.1-.9-.3-1.1s-.9-.1-1.1.3c-.2.3-.1.8.3 1.1zm4.2 2.5c.1.1.3.1.4.1.3 0 .6-.2.7-.4.2-.4.1-.9-.3-1.1s-.9-.1-1.1.3c-.2.4-.1.9.3 1.1zm4.3 2.2c.1.1.2.1.4.1.3 0 .6-.2.7-.5.2-.4 0-.9-.4-1.1s-.9 0-1.1.4c-.1.5 0 .9.4 1.1zm4.4 2.1c.1 0 .2.1.3.1.3 0 .6-.2.7-.5.2-.4 0-.9-.4-1.1-.4-.2-.9 0-1.1.4-.1.4.1.9.5 1.1zm4.3 1.6c.1.1.2.1.3.2.1 0 .2.1.3.1.1 0 .2 0 .3-.1.1 0 .2-.1.3-.2.1-.1.1-.2.2-.3 0-.1.1-.2.1-.3 0-.2-.1-.4-.2-.6-.3-.3-.8-.3-1.1 0-.1.1-.1.2-.2.3 0 .1-.1.2-.1.3 0 .1 0 .2.1.3-.2.2-.1.3 0 .3zm5 1.9h.2c.3 0 .7-.2.8-.6.1-.4-.1-.9-.5-1s-.9.1-1 .5c-.2.5.1.9.5 1.1zm4.8 1.4h.2c.4 0 .7-.2.8-.6.1-.4-.2-.9-.6-1s-.9.1-1 .6c-.1.4.2.8.6 1zm4.9 1.1h.2c.4 0 .7-.3.8-.6.1-.4-.2-.9-.6-1s-.9.2-1 .6c-.1.5.1.9.6 1zm4.9.9h.1c.4 0 .7-.3.8-.7.1-.4-.2-.9-.7-.9-.5-.1-.9.2-.9.7 0 .4.2.8.7.9zm4.9.6h.1c.4 0 .8-.3.8-.7 0-.4-.3-.8-.7-.9-.4 0-.8.3-.9.7 0 .5.3.9.7.9zm5 .4s.1 0 0 0c.5 0 .8-.3.8-.8 0-.4-.3-.8-.8-.8s-.8.3-.9.8c.1.4.5.8.9.8zm5 .1c.5 0 .8-.4.8-.8 0-.5-.4-.8-.8-.8s-.8.4-.8.8.4.8.8.8zm5-.2c.5 0 .8-.4.8-.9s-.4-.8-.9-.8-.8.4-.8.9c.1.5.5.8.9.8zm4.9-.4h.1c.4 0 .8-.4.7-.9-.1-.4-.5-.8-.9-.7-.4 0-.8.5-.7.9s.4.7.8.7zm4.9-.6h.1c.5-.1.8-.5.7-.9-.1-.4-.5-.7-.9-.7-.4.1-.7.5-.7.9.1.4.4.7.8.7zm4.7-2.6c-.4.1-.7.5-.6 1 .1.4.4.7.8.7h.2c.4-.1.7-.5.6-1-.1-.5-.5-.8-1-.7zm4.2-.1c.1.4.4.6.8.6h.2c.4-.1.7-.6.6-1s-.6-.7-1-.6-.7.5-.6 1zm5.6-.9h.3c.4-.1.7-.6.5-1-.1-.4-.6-.7-1-.5-.4.1-.7.6-.5 1 0 .3.3.5.7.5zm4.6-1.6h.3c.4-.2.6-.6.5-1.1-.2-.4-.6-.6-1-.5-.4.2-.6.6-.5 1.1.1.3.4.5.7.5zm4.6-1.9c.1 0 .2 0 .3-.1.4-.2.6-.7.4-1.1s-.7-.6-1.1-.4-.6.7-.4 1.1c.2.3.5.5.8.5zm4.5-2.2c.1 0 .2 0 .4-.1.4-.2.6-.7.4-1.1s-.7-.6-1.1-.4-.6.7-.4 1.1c.1.4.4.5.7.5zm4.4-2.3c.1 0 .3 0 .4-.1.4-.2.5-.7.3-1.1s-.7-.5-1.1-.3-.5.7-.3 1.1c.1.2.4.4.7.4zm4.2-2.6c.1 0 .3 0 .4-.1.4-.3.5-.8.2-1.1-.2-.4-.8-.5-1.1-.2-.4.2-.5.7-.2 1.1.2.2.4.3.7.3zm4.1-2.8c.2 0 .3 0 .5-.2.4-.3.4-.8.2-1.1-.3-.4-.8-.4-1.1-.2-.4.3-.5.8-.2 1.1.1.3.3.4.6.4zm3.9-3c.2 0 .4-.1.5-.2.4-.3.4-.8.1-1.2-.3-.3-.8-.4-1.1-.1-.4.3-.4.8-.1 1.1.1.3.4.4.6.4zm3.8-3.2c.2 0 .4-.1.5-.2.3-.3.4-.8.1-1.2-.3-.3-.8-.4-1.1-.1-.3.3-.4.8-.1 1.2.1.2.4.3.6.3zm3.6-3.4c.2 0 .4-.1.6-.2.3-.3.3-.8 0-1.2-.3-.3-.8-.3-1.2 0-.3.3-.3.8 0 1.2.2.1.4.2.6.2zm3.4-3.6c.2 0 .5-.1.6-.3.3-.3.3-.8-.1-1.2-.3-.3-.9-.3-1.2.1-.3.3-.3.9.1 1.2.2.1.4.2.6.2zm3.2-3.8c.2 0 .5-.1.6-.3.3-.3.2-.9-.1-1.1-.3-.3-.9-.2-1.1.1-.3.3-.2.9.1 1.1.2.1.3.2.5.2zm2.4-5.2c-.3.4-.2.9.2 1.1.2.1.3.2.5.2.3 0 .5-.1.7-.3.3-.4.2-.9-.2-1.1-.4-.4-.9-.3-1.2.1zm1.9-6.4c-.6 1.5.2 3.2 1.7 3.7 1.5.6 3.2-.2 3.7-1.7.6-1.5-.2-3.2-1.7-3.7-1.5-.6-3.2.2-3.7 1.7zM626 409.6l9.4 3.8-2.2-5 .5-5.4zm9.7-2.3c-.1.2-.1.3-.1.5s0 .3.1.5c.1.3.4.6.7.8.6.3 1.5 0 1.8-.6.2-.3.2-.7.1-1-.1-.2-.1-.3-.3-.5-.1-.1-.2-.2-.4-.3-.2-.1-.3-.1-.5-.1s-.3 0-.5.1c-.5.1-.8.3-.9.6zm7.8-.5c.1.7.9 1.2 1.6 1 .7-.1 1.2-.9 1-1.6-.1-.7-.8-1.2-1.6-1-.1 0-.1 0-.2.1-.5.2-.9.9-.8 1.5zm7.8-1.7c.2.7.9 1.1 1.6.9.7-.2 1.1-.9 1-1.6-.2-.7-.9-1.1-1.6-1h-.1c-.6.4-1 1.1-.9 1.7zm9.5-1.2c.7-.2 1.1-1 .9-1.7-.2-.7-1-1.1-1.7-.9-.7.2-1 .9-.8 1.6.1.8.9 1.2 1.6 1zm7.7-2.6c.7-.2 1.1-1 .8-1.7-.2-.7-1-1-1.7-.8-.7.2-1 1-.8 1.7.3.7 1 1.1 1.7.8zm7.5-3c.7-.3 1-1.1.7-1.7-.3-.7-1-1-1.7-.7h-.1c-.7.3-1 1.1-.7 1.7.4.7 1.2 1 1.8.7zm7.4-3.4c.7-.3.9-1.1.6-1.8-.3-.6-1-.9-1.6-.7-.1 0-.1 0-.2.1-.6.3-.9 1.1-.6 1.8.4.7 1.2 1 1.8.6zm7.2-3.7c.7-.3.9-1.2.5-1.8-.3-.6-1-.8-1.6-.6-.1 0-.1.1-.2.1-.6.4-.9 1.2-.5 1.8s1.2.8 1.8.5zm7-4.1c.6-.4.8-1.2.4-1.8-.3-.5-1-.8-1.6-.6-.1 0-.2.1-.3.1-.6.4-.8 1.2-.4 1.8.5.7 1.3.9 1.9.5zm6.8-4.5c.6-.4.7-1.2.3-1.9-.3-.5-1-.7-1.5-.5-.1 0-.2.1-.3.2-.6.4-.8 1.3-.3 1.9.4.6 1.2.7 1.8.3zm5.3-7.1c-.2.1-.3.1-.4.2-.6.4-.7 1.3-.3 1.8.4.6 1.3.7 1.9.2.6-.4.7-1.3.2-1.9-.3-.3-.9-.5-1.4-.3zm6.2-5.1c-.2.1-.3.1-.4.3-.6.5-.6 1.3-.1 1.9s1.3.6 1.9.1c.6-.5.6-1.3.1-1.9-.4-.5-1-.6-1.5-.4zm6-5.5c-.2.1-.4.2-.5.3-.5.5-.5 1.3 0 1.9.5.5 1.3.5 1.9 0 .5-.5.5-1.3 0-1.9-.4-.3-1-.4-1.4-.3zm5.6-5.7c-.2.1-.4.2-.5.4-.5.5-.5 1.4.1 1.9.5.5 1.4.5 1.9-.1.5-.5.5-1.4-.1-1.9-.4-.3-.9-.4-1.4-.3zm5.4-6c-.2.1-.4.2-.6.4-.5.5-.4 1.4.2 1.9.5.5 1.4.4 1.9-.2s.4-1.4-.2-1.9c-.4-.2-.9-.3-1.3-.2zm5-6.2c-.2.1-.5.2-.6.5-.4.6-.3 1.4.3 1.8.6.4 1.4.3 1.9-.2.4-.6.3-1.4-.3-1.9-.4-.3-.9-.4-1.3-.2zm4.7-6.6c-.2.1-.5.2-.7.5-.4.6-.3 1.4.3 1.8.6.4 1.4.3 1.9-.3.4-.6.2-1.4-.4-1.9-.2-.2-.7-.2-1.1-.1zm5.5-6.6c-.4-.2-.8-.2-1.1-.1-.3.1-.6.3-.7.6-.4.6-.2 1.4.4 1.8.7.4 1.4.2 1.8-.4.5-.7.3-1.5-.4-1.9zm4-7c-.3-.2-.7-.2-1.1-.1-.3.1-.6.3-.8.6-.3.6-.1 1.4.6 1.8.6.4 1.4.1 1.8-.6.4-.6.1-1.4-.5-1.7zm3.6-7.3c-.3-.1-.7-.1-1 0s-.6.3-.8.7c-.3.7 0 1.4.6 1.8.7.3 1.4 0 1.8-.6.3-.8 0-1.6-.6-1.9zm3.2-7.4c-.3-.1-.7-.1-.9 0-.4.1-.7.4-.8.8-.3.7 0 1.4.7 1.7.7.3 1.4 0 1.7-.7.3-.7 0-1.5-.7-1.8zm2.8-7.5c-.3-.1-.6-.1-.9 0-.4.1-.7.4-.8.8-.2.7.1 1.4.8 1.7.7.2 1.4-.1 1.7-.8.2-.7-.1-1.5-.8-1.7zm2.4-7.7c-.3-.1-.5-.1-.8 0-.4.1-.7.5-.9.9-.2.7.2 1.4.9 1.6.7.2 1.4-.2 1.6-.9.3-.6-.1-1.4-.8-1.6zm2-7.8c-.3 0-.5 0-.7.1-.4.1-.8.5-.9.9-.2.7.3 1.4 1 1.6s1.4-.3 1.6-1c.2-.7-.3-1.4-1-1.6zm1.6-7.9c-.2-.1-.5 0-.7.1-.4.1-.8.5-.9 1-.1.7.3 1.4 1.1 1.6.7.1 1.4-.4 1.6-1.1.1-.8-.4-1.5-1.1-1.6zm1.2-7.9c-.2 0-.4 0-.6.1-.5.2-.8.6-.9 1.1-.1.7.4 1.4 1.1 1.5.8.1 1.4-.4 1.5-1.1.1-.9-.4-1.5-1.1-1.6zm.7-8c-.2 0-.4 0-.5.1-.5.2-.9.6-.9 1.1-.1.7.5 1.4 1.2 1.4.7.1 1.4-.5 1.4-1.2.1-.8-.4-1.4-1.2-1.4zm1-7.9c-.3-.2-.7-.2-1-.1s-.6.3-.8.7c-.1.3-.2.6-.1 1 .1.2.1.3.3.5.1.1.3.3.4.3.2.1.3.1.5.1.3 0 .7-.1 1-.3.1-.1.2-.2.3-.4.1-.1.1-.3.1-.5s0-.3-.1-.5c-.1-.4-.3-.7-.6-.8zm-.6-8.1c-.1 0-.3 0-.4.1-.5.2-.9.7-.9 1.3 0 .7.6 1.3 1.4 1.3.7 0 1.3-.6 1.3-1.4-.1-.7-.7-1.3-1.4-1.3zm-.5-7.8c-.1 0-.2 0-.4.1-.6.2-.9.7-.9 1.4s.7 1.3 1.4 1.2c.7-.1 1.3-.7 1.2-1.4.1-.8-.5-1.4-1.3-1.3zm-1.1-7.8c-.6.2-1 .8-.9 1.4.1.7.7 1.3 1.5 1.1.7-.1 1.3-.7 1.2-1.5-.1-.7-.8-1.2-1.5-1.2-.1.2-.2.2-.3.2zm-2-6.2c.1.7.8 1.2 1.6 1 .7-.1 1.2-.8 1.1-1.5s-.8-1.2-1.5-1h-.2c-.8.2-1.1.8-1 1.5zm-1.6-7.7c.2.7.9 1.2 1.6 1 .7-.1 1.1-.8 1-1.6-.2-.7-.9-1.1-1.6-1h-.1c-.6.3-1 .9-.9 1.6zm-1.9-7.5c.2.7.9 1.1 1.6.9s1.1-.9.9-1.7c-.2-.7-.9-1.1-1.7-.9h-.1c-.5.3-.9 1-.7 1.7zm-.6-6.6c.7-.2 1.1-1 .8-1.7-.2-.7-1-1.1-1.7-.8-.7.2-1.1 1-.8 1.7.2.6.9 1 1.7.8zm-2.7-7.4c.7-.3 1-1 .8-1.7-.3-.7-1-1-1.7-.8l-.1.1c-.7.3-1 1-.8 1.7.3.6 1.1 1 1.8.7zm-2.4-9c-.3-.6-1-.9-1.7-.7h-.1c-.7.3-1 1.1-.7 1.8.3.6 1.1 1 1.8.6.7-.3 1-1.1.7-1.7zm-3.5-7.1c-.3-.6-1-.8-1.6-.6-.1 0-.2.1-.2.1-.6.3-.9 1.1-.6 1.8s1.1.9 1.8.6c.7-.5 1-1.3.6-1.9zm-5.4-7.5c-.1 0-.2.1-.2.1-.6.4-.9 1.2-.5 1.8s1.2.8 1.8.5c.6-.4.8-1.2.5-1.8-.3-.6-1-.8-1.6-.6zm-4.1-6.7c-.1 0-.2.1-.3.1-.6.4-.8 1.2-.4 1.8.4.6 1.2.8 1.9.4.6-.4.8-1.2.4-1.8-.4-.5-1.1-.7-1.6-.5zm-4.5-6.4c-.1 0-.2.1-.3.2-.6.4-.7 1.2-.3 1.8.4.6 1.3.7 1.9.3s.7-1.2.3-1.9c-.5-.5-1.1-.6-1.6-.4zm-4.8-6.3c-.2.1-.3.1-.4.2-.6.5-.7 1.3-.2 1.8.5.6 1.3.7 1.9.2s.6-1.3.2-1.9c-.4-.3-1-.5-1.5-.3zm-5.2-5.9c-.2.1-.3.1-.4.3-.5.5-.6 1.3-.1 1.9.5.5 1.3.6 1.9.1s.6-1.3.1-1.9c-.4-.5-1-.6-1.5-.4zm-5.4-5.7c-.2.1-.4.2-.5.3-.5.5-.5 1.3 0 1.9.5.5 1.3.5 1.9 0 .5-.5.5-1.4 0-1.9-.3-.4-.9-.5-1.4-.3zm-5.7-5.5c-.2.1-.4.2-.5.4-.5.5-.4 1.4.1 1.9s1.4.4 1.9-.1.4-1.4-.1-1.9c-.4-.3-.9-.4-1.4-.3zm-5.9-5.1c-.2.1-.4.2-.6.4-.5.6-.4 1.4.2 1.9.6.5 1.4.4 1.9-.2.5-.5.4-1.4-.2-1.9-.4-.3-.9-.3-1.3-.2zm-4.7-2.8c.4-.6.3-1.4-.3-1.9-.4-.2-.8-.3-1.2-.2-.2.1-.5.3-.6.5-.4.6-.3 1.4.3 1.9.5.4 1.4.3 1.8-.3zm-8.2-4.2c.6.4 1.4.2 1.8-.4.4-.6.2-1.4-.4-1.8-.4-.2-.8-.3-1.2-.1-.2.1-.5.3-.7.5-.3.6-.2 1.4.5 1.8zm-6.7-4.1c.6.4 1.4.2 1.8-.5.4-.7.2-1.4-.5-1.8-.3-.2-.7-.2-1.1-.1-.3.1-.6.3-.7.6-.3.6-.1 1.4.5 1.8zm-6.8-3.8c.6.3 1.4.1 1.8-.5.4-.7.1-1.5-.6-1.8-.3-.2-.7-.2-1.1-.1-.3.1-.6.3-.7.6-.3.7 0 1.5.6 1.8zm-7-3.4c.6.3 1.4 0 1.7-.6.3-.7 0-1.5-.6-1.8-.3-.2-.7-.2-1-.1-.3.1-.6.4-.8.7-.2.7 0 1.5.7 1.8zm-7.1-3.1c.7.3 1.5-.1 1.7-.7.2-.7-.1-1.5-.7-1.7-.3-.1-.7-.1-.9 0-.4.1-.7.4-.8.8-.4.5 0 1.3.7 1.6zm-7.3-2.8c.7.2 1.4-.1 1.7-.8.2-.7-.1-1.4-.8-1.7-.3-.1-.6-.1-.9 0-.4.1-.7.4-.8.8-.3.8.1 1.5.8 1.7zm-7.5-2.3c.7.2 1.4-.2 1.6-.9.2-.7-.2-1.4-.9-1.6-.3-.1-.5-.1-.8 0-.4.1-.7.5-.9.9-.1.7.3 1.4 1 1.6zm-7.6-1.9c.7.2 1.4-.3 1.6-1 .2-.7-.3-1.4-1-1.6-.3-.1-.5-.1-.7 0-.4.1-.8.5-.9 1-.1.7.3 1.4 1 1.6zm-7.6-1.6c.7.1 1.4-.4 1.6-1.1.1-.7-.4-1.4-1.1-1.5-.2-.1-.5 0-.7 0-.4.1-.8.5-.9 1-.1.8.4 1.5 1.1 1.6zm-7.7-1.2c.7.1 1.4-.4 1.5-1.2.1-.7-.4-1.4-1.2-1.5h-.6c-.5.2-.8.6-.9 1.1-.1.8.5 1.5 1.2 1.6zm-7.8-.8c.7.1 1.4-.5 1.4-1.2.1-.7-.5-1.3-1.2-1.4h-.5c-.5.2-.9.6-.9 1.2 0 .7.5 1.3 1.2 1.4zm-8.3-.5c.6.3 1.4 0 1.7-.6.1-.2.1-.3.1-.5s0-.4-.1-.5c-.1-.2-.1-.3-.3-.5-.1-.1-.2-.2-.4-.3s-.3-.1-.5-.1-.3 0-.5.1-.3.1-.4.3c-.1.1-.3.3-.3.4-.1.2-.1.3-.1.5s0 .4.1.5c.2.3.4.5.7.7zm-7.5.1c.7 0 1.3-.6 1.3-1.4 0-.7-.6-1.3-1.4-1.3-.1 0-.3 0-.4.1-.5.2-.9.7-.9 1.3 0 .7.7 1.3 1.4 1.3zm-8 .4c.7 0 1.3-.7 1.2-1.4 0-.7-.7-1.3-1.4-1.2-.1 0-.2 0-.3.1-.6.2-.9.7-.9 1.3 0 .7.7 1.3 1.4 1.2zm-8 .8c.7-.1 1.3-.7 1.2-1.5-.1-.7-.8-1.2-1.5-1.2-.1 0-.2 0-.3.1-.6.2-.9.8-.9 1.4.1.8.8 1.3 1.5 1.2zm-7.9 1.3c.7-.2 1.2-.8 1.1-1.5-.2-.7-.8-1.2-1.5-1.1h-.2c-.6.2-1 .8-.9 1.5.1.7.8 1.2 1.5 1.1zm-7.8 1.6c.7-.2 1.1-.9 1-1.6-.2-.7-.9-1.1-1.6-1-.1 0-.1 0-.2.1-.6.2-1 .9-.8 1.6.2.6.9 1.1 1.6.9zm-7.8 2c.7-.2 1.1-.9.9-1.6-.2-.7-.9-1.1-1.7-.9h-.1c-.6.2-1 .9-.8 1.6.3.8 1 1.2 1.7.9zm-7.6 2.5c.7-.2 1-1 .8-1.7s-1-1.1-1.7-.8c-.7.3-1.1 1-.8 1.7.3.7 1 1.1 1.7.8zm-7.5 2.8c.7-.3 1-1 .7-1.7-.3-.6-1-1-1.6-.7h-.1c-.7.3-1 1.1-.7 1.7.3.7 1.1 1 1.7.7zm-7.3 3.3c.7-.3 1-1.1.6-1.8-.3-.6-1-.9-1.6-.7-.1 0-.1 0-.2.1-.7.3-.9 1.1-.6 1.8.4.6 1.2.9 1.8.6zm-7.1 3.6c.6-.3.9-1.1.5-1.8-.3-.6-1-.9-1.6-.6-.1 0-.1 0-.2.1-.7.3-.9 1.1-.5 1.8.3.6 1.1.9 1.8.5zm-7 4c.6-.4.8-1.2.4-1.8-.3-.5-1-.8-1.6-.6-.1 0-.1.1-.2.1-.6.4-.8 1.2-.4 1.8.4.7 1.2.9 1.8.5zm-6.7 4.3c.6-.4.8-1.3.4-1.8-.3-.5-1-.7-1.5-.5-.1 0-.2.1-.3.1-.6.4-.8 1.2-.4 1.8.3.7 1.1.8 1.8.4zm-6.5 4.7c.6-.4.7-1.3.2-1.9-.4-.5-1-.6-1.5-.4-.1 0-.2.1-.4.2-.6.4-.7 1.3-.2 1.9.4.5 1.3.6 1.9.2zm-6.3 5c.5-.5.6-1.3.2-1.9-.4-.4-.9-.6-1.4-.4-.2.1-.3.1-.4.2-.5.5-.6 1.3-.1 1.9.3.6 1.2.7 1.7.2zm-5.9 5.3c.5-.5.6-1.4 0-1.9-.4-.4-.9-.5-1.4-.4-.2.1-.3.2-.5.3-.5.5-.6 1.3 0 1.9.5.6 1.3.6 1.9.1zm-5.8 5.6c.5-.5.5-1.4 0-1.9-.4-.4-.9-.4-1.4-.3-.2.1-.4.2-.5.3-.5.5-.5 1.4 0 1.9.6.6 1.4.6 1.9 0zm-5.4 6c.5-.5.4-1.4-.1-1.9-.4-.3-.9-.4-1.3-.2-.2.1-.4.2-.6.4-.5.6-.4 1.4.1 1.9.6.4 1.5.3 1.9-.2zm-5 6.1c.4-.6.3-1.4-.2-1.8-.4-.3-.8-.4-1.3-.2-.2.1-.4.2-.6.4-.4.6-.3 1.4.2 1.9.6.4 1.4.3 1.9-.3zm-4.8 6.5c.4-.6.3-1.4-.3-1.8-.4-.3-.8-.3-1.2-.2-.2.1-.5.2-.7.5-.4.6-.3 1.4.3 1.8.6.4 1.5.3 1.9-.3zm-6.2 7.1c.6.4 1.4.2 1.8-.4.4-.6.2-1.4-.4-1.8-.4-.3-.8-.3-1.2-.2-.3.1-.5.3-.7.5-.4.7-.2 1.5.5 1.9zm-4.1 7c.6.4 1.4.1 1.8-.5.4-.6.2-1.5-.5-1.8-.3-.2-.7-.2-1.1-.1-.3.1-.6.3-.7.6-.4.6-.1 1.4.5 1.8zm-2.5 4.8c-.3-.2-.7-.2-1-.1-.3.1-.6.3-.8.7-.3.7 0 1.5.6 1.8.7.3 1.5 0 1.8-.6.3-.7.1-1.5-.6-1.8zm-2.7 9c.3-.7-.1-1.5-.7-1.7-.3-.1-.7-.1-.9 0-.4.1-.7.4-.8.8-.3.7 0 1.4.7 1.7.6.2 1.4-.1 1.7-.8zm-4.6 8.3c.7.3 1.4-.1 1.7-.8.2-.7-.1-1.4-.8-1.7-.3-.1-.6-.1-.9 0-.3.1-.7.4-.8.8-.3.7.1 1.4.8 1.7zm-1.8 5.1c-.3-.1-.6-.1-.8 0-.4.1-.7.5-.8.9-.2.7.2 1.5.9 1.6.7.2 1.4-.2 1.7-.9.1-.6-.3-1.4-1-1.6zm-8 12.2c-.1 2.6 2 4.8 4.6 4.9s4.8-2 4.9-4.6c.1-2.6-2-4.8-4.6-4.9-2.7-.1-4.9 2-4.9 4.6zm278.7 127.4z" fill="#00245b"/><path d="M335.4 480.9c0-1.6-.9-1.9-.9-1.9l-1.2 2.1-1.6 1.3.6 1.1 2.2.5c-.1.1.9-1.5.9-3.1zm-11.8-1.3s.9-2.7 1.2-3.7c.3-1.1-.9-1.3-.9-1.3l-2.2 1.1s.6.3 1.2 2.1l.7 1.8zM450.8 366s.1.3.3.5c-.1-.1-.2-.3-.3-.5zM327 511l-.6 1.6s2.5-.3 3.4-.3 4-.5 4-.5l2.5-.5s.9-.5 1.9-1.1c.9-.5 1.9-3.2 1.9-3.2s.3-1.3-.9-2.4c-1.2-1.1-1.9-2.4-1.9-2.4s-.3-1.6-1.2-2.1-2.8-3.5-2.8-3.5l-1.2-.3s.9-1.3.9-2.4c0-1.1.6-2.4-.3-2.9-.9-.5-2.2-1.1-2.2-1.1l1.2-1.6.9-2.4H331l-.9 1.3-4 1.3-.6 1.1h-2.8s-.3.8-.3 1.6.9 2.1.9 2.1.3 1.6 0 2.4c-.3.8-1.9 2.1-1.9 2.1s-1.9.3-2.8 1.6c-.9 1.3-3.1 1.9-2.5 3.2s.6 2.4.6 3.2v2.4s0 .5 1.5 1.1c1.5.5 5-1.6 5-1.6s1.9-4.3 2.2-5.1.3-1.3 1.2-1.6 2.2-.3 2.2-.3 1.2 0 1.2.8-.9 2.4-.9 2.4l-1.2 1.3.3 1.6-.3 1.3-.9 2.9zm104.3-63.3c0 .8 1.6 1.3 1.6 1.3l1.2-1.1-.3-1.3-2.2-.5s-.3.8-.3 1.6zm19.8-81.2c.2.5.1.3 0 0zm-3.1 58.8l.6-.8.6-.8 1.2-1.6.3-2.4.3-.8 1.6-.3s.6 0 1.2-.8 1.5-1.9 1.5-1.9 1.9-1.9 2.8-2.4l.9-.5s1.2-1.9 2.5-1.9c1.2 0 2.2-.3 2.2-.3l3.7-2.9 3.7-1.6.6-1.1.6-1.9-3.4-2.4s0 .8-1.6 1.9-1.2.8-2.8 1.6c-1.5.8-.3 1.1-3.7 1.6s-4.6.8-4.6.8l-5.3 1.9s.6-1.1-.6.8c-1.2 1.9 0 3.7-2.2 4s-3.4.5-3.4.5l-.3 1.6v3.2s-.6.8-1.2 1.9c-.6 1.1-1.2 2.9-1.2 2.9s.3.8-.3 1.9-.6 0-1.6 1.3c-.9 1.3-1.9 2.7-1.9 2.7s-.9 2.4-.9 3.5.6 2.1 1.6 2.9c.9.8 1.2 1.6 1.5 2.4l.3.8s2.2 1.1 3.4 1.1h3.1c.9 0 1.2-.8 1.2-.8s.6-.5-.3-1.3l-.9-.8-1.6-2.1-.9-2.9 1.2-2.4s-.3.3.6-1.3c1.2-1.7 1.5-3.3 1.5-3.3zm-10.5-47.9v-1.3l-2.2-2.7 1.9-.3.9.3.9.3 1.5.3h.9l2.5-.3h1.9v.8l1.6.8 2.2-.3.3.8.3.8.9.3 1.6-.3.6-.8.6-1.1-.6-.8-1.2-1.3-.9-.5-.6-.8.3-.8.3-.8.9.3 1.2.8 1.6.5h.9l1.2-.8 1.2-1.1 1.2-.3 1.5-.3.9-.5.9-.8.9-.5.3-.8.3-2.1v-1.3l-.3-1.1-.9-.5h-1.5l-1.2 1.3-1.2 1.1s-1.2.5-.9 1.3l.3.8v1.1h-.9l-.6-1.1-1.9-.3-.9.5-2.2 1.1s-.6 1.1-.9 0l-.3-1.1-.9-1.9.6-.8.9-.5.3-1.6-.9-1.3-.3-.8 1.2-2.1-.6-1.1-1.9.8v1.1l-.6 1.1-.6.8-1.8.5-1.5 1.3.6 1.6v1.3h-.9l-.9-.8-.3-.8H442l.6.8c-.6 2.1-.6 1.1-.6 2.1v1.1l.3 1.1 2.2 1.3.9.3 1.2.3.9 1.1-1.6.8-1.9-.6-1.9-1.1-1.2.5-.9.8-.9.3s0 .5-.9 0l-.9-.5s0-1.1-.3-2.4l-.3-1.3v-1.6l-.6-1.1-.9.5c-1.5 1.1-.3.8-1.5 1.1-1.2.3.3.3-1.2.3H431l-3.4.5-2.2.3-1.2 1.1-1.2 1.3.6 1.1 1.5.5 2.2.3s1.2.3 1.5 1.1c.3.8 1.2 2.1 1.2 2.1l2.8 1.3 1.6.8 3.1.5zm-52.9 18.9s1.2 0 .6-.8l-1.2-1.6-1.2-.5.3-1.6-2.2-1.1v-1.1l-.6-1.1-.9-.5v-1s0-1.1-1.2-1.6l-1.2-.5-.3-1.3-.9-.5-.9-.8-.6-1.1-1.5-1.6-2.2-1.6v-.8l-1.6-1.6-.9.5-1.2 2.1-1.5-.3-1.9-.3H361l-2.2-.3-1.2.5s.3.3 0 1.1.9.8.9 1.6-.3 3.2-.3 3.2 2.2-.8.3.8l-1.9 1.6 2.8 2.7v1.1l.9 1.1 1.2 1.1s.6 0 .6 1.1v2.9l.9 1.1s.3-.3.3.8 0 1.1 1.2 2.7l1.2 1.6 3.4 2.4 1.2-4 1.9-2.1s.6.3.6-.8-.3-2.1-.3-2.1l.6-1.6.9-1.3v-.8l.9-1.1v-.8l1.9 1.6.6 1.1.6 1.9-.3 1.1s0 .5-.6 1.3l-.6.8 2.2.3s.9-.3 1.2.5-.6-.5.3.8l.9 1.3.9-1.1s-.9.5 0-.8c1.3-1.5 2.6-2.6 2.6-2.6zm12-21l1.9.5 2.5.3 2.2-1.6-1.2-1.1-4 1.3-1.4.6zm-8.9 5.6l1.9-2.1.6-1.1v-1.3l.9-1.9s-1.9-.5-3.1-.5c-1.2 0-4.6-1.6-4.6-1.6l-1.2-.8-1.2-.8-1.2 1.1-1.2.3-1.2-1.1-1.6-.5-1.5.3-1.5.5-.3 1.3.3.8-.3.8s-.6 0-.3 1.1-.6 0 .3 1.1l.9 1.1 1.2.8 1.9.5-.3 1.3c0 1.3 1.5 1.9 1.5 1.9s.3-.3 1.9 0c1.5.3 3.4.3 3.4.3l1.9.5 1.2-.3 1.6-1.7zm7.7 5.3l-1.9-1.1H391l.9 1.9 3.5-.8zm62.8-28.5l.6.8 3.4.5v-1.6l-.9-.8h-.9l-1.9.3-.3.8zM132 387.5l.3.8-.6 1.9v.8l2.8 1.6 1.6-.3 1.2.5.3 1.1-1.6 1.1.9 1.3h1.6l4.6-2.1-.6-2.9-1.5-1.9-.6-1.9-1.2-1.6-2.8-1.1-1.9-2.1-1.5-.8-1.9-1.1-1.2 1.9-.6 1.6 1.5 2.1 1.2 1.1zm-14 4.5s2.2-.8 3.4-.3c1.2.5 1.2-1.6 1.2-1.6l-2.5-1.6s-.9 0-2.5.5c-1.5.5-3.4 1.9-3.4 1.9 2 1.4 3.8 1.1 3.8 1.1zm15.5 7.5c-.6-2.4-2.5-4.3-3.4-4.5 0 0-.3 2.7-.3 4s.9 2.9.9 2.9h3.4l-.6-2.4zm-18.6 19.4s0 .5 1.6.5c1.5 0 3.4.5 3.7-.3.3-.8.9-1.6.9-1.6s2.2-.3 3.1-.3 1.9-.3 2.8-.3 3.4-2.4 3.4-2.4l1.2-2.4V410l-3.7-2.4-1.9-.8-.6-1.3-1.5-3.2-1.2 2.1-2.5 1.6 1.2 1.3.9 2.1.3 1.9-2.8.3s-.9-2.9-2.8-4.3c-1.9-1.3-4.3-1.6-4.3-1.6l-2.5.8-.3 2.9-.6 1.3-1.2 1.9v1.6l1.9 1.6h1.6l2.2-.3h1.6l-1.2 1.9.7 1.5zm6.9-25.2s-2.8 0-4.3.8-2.5.8-2.5.8 0-.8-1.5-1.1c-1.5-.3-2.2.8-2.2.8l1.9 1.6 2.8 1.9s1.9 1.1 3.1.5c1.2-.5 2.2-1.6 2.2-1.6s-.3.3.3-.8c.5-1.1.2-2.9.2-2.9zm27.8-19.5l-.6 2.1-.9.3 3.1 3.7 1.6 2.7-.6.8.3 2.4 1.9 2.9v1.3l3.1 2.1s1.2.3 2.2.3c.9 0 2.5-.8 2.5-.8l2.5-.3 3.1 1.9.3 1.3-2.5.3-1.5 1.6 1.5 2.9-.9 1.1s-1.9 1.1-3.1 1.6-1.5.5-3.4.5-2.2-.3-2.2-.3-4-1.3-5.6-1.9c-1.5-.5-2.2-.3-2.2-.3l-1.5 1.6s1.9 2.4 2.5 3.5 1.9 5.3 1.9 5.3l-2.2-1.1s-1.2-.8-1.5-1.6c-.3-.8-1.2-1.9-1.2-2.7 0-.8-1.2-1.6-1.2-1.6l-2.2-.8h-1.9s-1.2 1.1-2.5 1.6c-1.2.5-1.2 1.3-1.2 1.3l-1.9-1.3s-.3-.8-1.2-1.1c-.9-.3-1.9 1.1-1.9 1.1s1.2 2.9 2.2 4.5c.9 1.6 4.3 3.2 4.3 3.2s1.2 2.7 1.9 3.5c.6.8 4-.5 4-.5l1.9-2.1 1.2.5s0 .8.3 1.9.6.8 1.6 1.9c.9 1.1 1.9.8 3.1 1.1 1.2.3 1.5 0 2.5-1.9.9-1.9-1.9-5.3-1.9-6.1 0-.8-.9-3.5-.9-3.5s.9 0 2.5.5c1.5.5 1.5 3.2 1.5 4.5s-.3 2.1-.3 3.2 2.8 2.7 3.7 2.9c.9.3 2.5.5 4 .8s2.2.8 3.7.8 3.1.3 3.1.3l3.1-1.6s2.2.5 3.1.8 2.8-1.1 3.7-1.3c.9-.3.9-1.9.9-1.9s.3-.8-.6-2.1c-.9-1.3 0 0-.6-1.3s-.3-.8-1.2-1.6c-.9-.8-1.2-.5-2.2-.8-.9-.3-1.2-.3-2.2-.3-.9 0-2.2.3-3.4.5-1.2.3-1.5.8-2.8 1.3-1.2.5-2.5.3-3.4 0s-3.4-2.4-3.4-3.7c0-1.3.6-1.3.6-1.3s2.8-.3 4-.3 3.1.3 4 .3 1.6.3 1.6.3l3.7-.5s1.2-.5 2.2-.5c.9 0 1.2.8 1.2.8s1.2.8 1.9 2.7c.6 1.9 0 0 1.6-.8 1.5-.8.3-2.7.3-2.7s.9.3 1.9-1.1c.9-1.3-.6-2.4-1.2-3.2-.6-.8-1.9-2.1-1.9-2.1s1.2-.3 3.1-1.6c1.9-1.3-.6-3.2-.6-3.2s3.4-.5 5-1.1c1.5-.5.3-1.9.3-1.9l1.5-2.9v-1.1l.6-2.1-.6-.8-.6-1.1v-2.4l1.5-1.9 1.9-.5 1.2.3c1.2.3 1.2-.3 1.2-.3l1.5-1.9.3-1.9s2.2-1.3 3.4-2.7c1.2-1.3 2.5-4 3.4-5.6s3.4-3.7 3.7-4.5c.3-.8 1.2-2.4 1.2-2.4h-.9c-.9 0-3.1.3-3.1.3l-.9-1.1s5.6-1.3 6.5-1.6c.9-.3 1.9-1.9 3.7-3.5 1.9-1.6 1.9-1.9 2.2-2.7.3-.8 0-1.6 0-2.4s-.6-1.1-.6-1.1l-1.9-.3-.9-2.7-.6-1.6-3.1-1.3-3.4.3s-.9 0-2.5-1.1-2.2-.8-3.1-1.1c-.9-.3-3.1-.5-3.1-.5l-3.4-.3h-4l-2.5.8-2.5.8-2.8.5-1.2.5H179l-2.5.3-1.9 1.9-1.5 2.4-.3 1.6-2.5.3-1.5-.3c-1.5-.3-.9.5-.9.5l-1.9 2.9-1.9.5-2.2 1.1c-2.2 1.1-1.9.8-1.9.8l-1.9 1.6-1.5 2.1.3 1.9h1.5l.3 1.3 1.2 1.1-.3 1.9 1.9 4s2.2 1.3 3.1 1.6c.9.3 1.5 0 1.5 0l2.8.5 1.2.5s3.1 0 4-.5 1.5-.8 2.5-1.1c.9-.3 3.4-2.7 3.4-2.7l.6-1.1 1.2-2.1-.3 2.9.3 1.9-1.9 1.1-2.8 1.1-.6.8s-1.2.8-2.2.8c-.9 0-.9.8-.9.8l-1.2 1.1-2.2-.3h-3s-.9-.3-2.2-.8c-1.2-.5-1.5-1.1-2.5-1.9-.9-.8-2.2-2.1-2.2-2.1s-.3-1-.5-2c-.1-.5-.3-1.1-.4-1.4-.3-1.1-4-2.9-4-2.9l-3.7.5.3 2.1-1.5 1.1-.3 3.7-1.5 1.1 1.1 3.6zm12.1 24l-1.9-1.6-1.2 1.3-.6 1.1 1.2 1.3 2.2-.8.3-1.3zm-12.7-1.9l-.3 1.9 4 .5 1.5-1.1-.2-1.6-3.4-.5-1.6.8zm-6.5-17.6l1.9 1.1s.9-1.1.9-1.3v-2.7l-3.1-.8h-2.5l1.5 2.1 1.3 1.6zm8 10.2l-2.5-1.6h-2.2v4.5c0 1.3-.3 1.6.6 2.4s.3 1.6 2.8 1.1 2.8-2.7 2.8-2.7.3-1.1 0-1.9c-.2-.8-1.5-1.8-1.5-1.8zm-15.7 26c.9-.5 0-1.6 0-1.6h-2.5l-1.5 2.1 1.2.8c0 .1 1.8-.7 2.8-1.3zm5.5 13.1c-1.2.8-2.5 0-2.5 0l-.9.3-.3 2.1s2.5 1.9 4.3 3.7c1.9 1.9 3.1 4 3.1 4l2.2-3.2 2.2-1.1s.6-3.5 0-4.8-.3-3.7-.3-4.5 0-1.3-1.2-2.1-2.8-.8-2.8-.8l-4.3 2.1-.6 1.6c-.1 0 2.4 1.9 1.1 2.7zM691 438.9c1.2 0 2.5-.8 2.5-.8l.6-1.3-.9-1.3s-1.9.3-3.4.3c-1.6 0-1.2-.5-2.8.8-1.5 1.3-1.5 2.1-1.5 2.1l2.5.3h3v-.1zm-64.4-33.8l3.1-1.1-2.2-1.3-.9 2.4zm-109.8-32.2s.3 1.9-.6 2.1c-.9.3-1.9 1.1-1.9 1.1l.3 1.6s.3 1.3 2.2 2.1c1.9.8.9.3.9.3l1.9 1.1 1.2 1.3s.9 1.3 1.9 2.4c.9 1.1 0 0 1.2.5s1.5 1.1 1.5 1.1l3.1 1.1s1.2 0 2.5-1.3c1.2-1.3.9-3.5 1.2-4.5.3-1.1 0-3.5 0-4.3s-.6-.8-.6-.8l-1.9-.8s-1.9-1.9-2.2-4 .6-2.7.6-2.7-1.6-1.6-2.8-2.4-1.9-3.7-1.9-3.7l-1.5 1.3-1.6 1.1h-1.9v1.3l-.3 2.4-.9 1.1-1.2 1.9.8.7zm13.6 20.2l1.2 1.1 2.2-1.6h5.6s.9 0 1.9-.8c.9-.8 1.2-1.6 1.2-1.6l.9-.8v-1.1l-1.2-1.6s1.6.5-.6-1.1-4-3.2-4-3.2l-1.5-1.1-1.1 1.7s-.6.3-1.2 1.3c-.6 1.1-1.2 2.1-1.2 2.9s0 1.1-.6 2.4c-.7 1.4-1.6 3.5-1.6 3.5zm-36.9-24.7l-2.5-1.3-1.2 1.1 1.9 1.3 1.8-1.1zm22.6-3.8l-1.9-1.6-1.2 1.1 1.5 1.6 1.6-1.1zm31.9 28.8l-1.5-1.6h-2.2l1.5 1.9 2.2-.3zm63.8 32.7l1.5.3 3.4.3s.3-.3 1.8-.3c1.6 0 0-1.9 0-1.9l-2.5-1.9-1.2-.8-1.2-.8-.6-1-1.5.5-.9 1.3 1.2 1.6-1.2 1.6 1.2 1.1zm-5.6-9.3l.9 1.3.9.5 1.9-1.9 5.3-.5 2.2.5 1.6-.8.6-1.3.9-1.9.3-.8-.6-.8-2.2-1.3-.9-.3-2.5-.8-.9-.8s0-1.1-.9.5l-.9 1.6-2.2-1.3-2.5-1.3-1.2 1.6-.9 2.1s0 2.4.3 3.2c.2.9.8 2.5.8 2.5zm21.7 1.6c1.2.8 1.5.3 2.8.3 1.2 0 1.6-1.1 2.5-1.9s-.9-1.9-.9-1.9l-2.5-.8s-2.5-.8-3.4-.8-3.1-1.6-3.1-1.6l-.3 1.9s.9 1.3 1.6 2.1c.5.8 2 1.9 3.3 2.7zm-26-6.7c0 1.6.9 2.4.9 2.4l.9-.8-.6-3.5h-1.6c.1.1.4.3.4 1.9zm2.2 10.7l-2.8-2.4.9 2.7 1.9-.3zm39.6 250.2l1.8.3-1.6-1.3-.2 1zm-10.9-25.8c.9.3 2.8 2.9 2.8 2.9l2.5-.5-3.4-3.5s-2.8.8-1.9 1.1zm-136.5-51.1l-2.2-1.9-1.5 1.3s.9 2.7.9 4 1.2 2.7 2.2 2.4c.9-.3 2.8-1.3 2.5-2.7-.3-1.3-1.9-3.1-1.9-3.1zM633.8 639l-1.5.8 2.2.5-.7-1.3zm13 28.5l2.5.3-1.9-1.9-.6 1.6zm-19.5 16s-.3 1.6-2.2 1.9c-1.9.3-4.9-.5-4.9-.5l-.6 1.3s.9.8 1.2 2.1-1.5 1.6.3 2.9c1.9 1.3 2.5 1.3 3.4 1.1.9-.3 1.5.3 2.5-1.6.9-1.9 1.2-2.7.9-3.5-.3-.8-.6-3.7-.6-3.7zm20.1-40.5l-1.2.5 1.6.8-.4-1.3zm-54.5-31.9l1.2-1.1-2.2-.5-.3.8-.9 1.6.6 3.7-.6 1.1v.8l1.2.3 1.2-2.9-.6-.8v-1.6l.4-1.4zm37.5 36.7c-1.2-1.1-2.2-4-4-4.5-1.9-.5-2.8-1.6-2.8-1.6l.6-1.6-3.7-3.5-.3-1.9-1.9-1.9-1.5-2.4-1.2-1.9v-1.9s.3-.3 1.6-1.1c1.2-.8 2.8-1.9 2.8-1.9s1.2-.3 2.5.5c1.2.8 2.8 2.4 2.8 2.4s4.3 2.4 5.6 2.1l1.2-.3s-5.3-6.1-6.2-7.2c-.9-1.1-3.4-4.3-4.6-4.5-1.2-.3-1.9-.8-2.8-.8-.9 0-4.6-1.1-6.5-1.9-1.9-.8-2.5-1.3-4.3-1.3-1.9 0 .3-.5-1.9 0s-4.3 1.9-4.6.8c-.3-1.1-2.5-2.4-2.5-2.4l-4.3.5s.9 2.4 1.9 4c.9 1.6 1.2 2.7 1.2 2.7l1.6-.3s4.3.8 5.3 1.1c.9.3 3.4.5 3.4 1.9 0 1.3-1.5 3.5-1.5 3.5s-1.2 2.4 0 2.7 2.2-1.9 3.7-2.1c1.5-.3 2.8-.3 4 1.6 1.2 1.9 1.2 2.9.6 4s-1.2 1.9-.9 4 1.9 4-.6 4.3-3.1-.3-5.9-1.9c-2.8-1.6-3.4-.8-2.8-3.2.6-2.4.9-3.5 0-3.7-.9-.3-1.9-.3-3.1 0-1.2.3-3.4-.5-5.6-.8-2.2-.3-3.1.3-4 1.6s-1.2 1.9-1.9 3.5c-.6 1.6-1.5 2.1-1.9 1.3-.3-.8-1.2-1.9-2.5-1.9-1.2 0-1.9.5-2.8 1.3-.9.8-.3.8-3.1 2.4-2.8 1.6-3.7 1.1-3.7 1.9 0 .8.6 1.9-1.2 2.9-1.9 1.1-2.5 2.7-6.2 2.9-3.7.3-6.8 1.1-7.7 3.5s-2.5 5.3-.9 8.5 3.1 5.3 3.1 7.7-.6 3.5 0 5.9 1.9 2.7 3.1 2.7c1.2 0 2.8-.8 4.3-1.3s3.4.3 6.2-.5 4-2.1 5.3-2.9c1.2-.8 3.7-1.1 5-1.1 1.2 0 3.7-.8 3.7-.8s.6-1.3 3.7.3 5.6 1.6 6.5 3.2c.9 1.6 2.2 3.2 2.2 3.2s.6-1.1 1.5-1.1 3.1 1.1 3.1 1.1l2.8 2.1 1.5 2.7s2.2 2.4 3.4 2.7 2.8.8 2.8.8-.3 1.1.6 1.1c.9 0 1.9-1.1 1.9-1.1h1.9s3.4-1.9 4.3-2.1c.9-.3 3.4.8 4-.8s1.5-8.8 3.7-10.4c2.2-1.6 3.1-4.8 3.4-6.1.3-1.3-1.5-9.3-2.5-10.4-1.2-1.1-3.7-3.2-4.9-4.3zM640 510l-1.9 3.7-.6 1.6-.3 1.1-.9 1.1s-1.5 1.3-5 3.2c-3.4 1.9-4.6 3.7-4.6 3.7s-5.6 3.2-8.7 1.9c-3.1-1.3-2.5-4.5-2.5-4.5l2.2-.8-.6-3.5.3-2.4 2.2-1.3s.3-1.9-.9-4-.6-2.4-1.2-5.1c-.6-2.7-.9-3.2-.9-3.2l-1.2 1.3-1.2 1.3.3 5.1s.6 2.4.3 4-.9 6.9-.9 6.9l-.6 1.3.3 4-1.5 3.7-1.6 1.6-2.2 1.1 1.2 2.4.6 2.9-1.9 4.3-2.2 2.4-5 1.1-3.1.3s-2.5 1.6-3.4 1.6-2.2 1.3-2.8 2.1-1.2 2.4-1.2 2.4-.3 2.7 1.2 4c1.6 1.3 1.6 0 1.6 0l5-3.7 2.2-.5s1.9.8 2.5 0 4-2.4 4-2.4l2.8.5.3-1.6 2.8-1.3s.9-4.8.9-5.9c0-1.1.3-.8 2.5-3.7s-1.2-.8-2.5-1.1c-1.2-.3.9-4 .9-4s.9.8 1.9-.3c.9-1.1 2.8-.8 7.1-1.6s3.1-3.2 4-4.3 4.6-3.2 6.2-4.5c1.5-1.3 1.9-1.3 5-4.3 3.1-2.9 3.1-5.1 3.1-5.1l-.6-1.1-1.4-.4zm-92-110.5l-1.5-1.9-2.8 1.1 3.1 1.6 1.2-.8zM704.7 457c-1.5-.5-5-.5-5-.5s-5.6-4.8-6.5-5.3-4.6-3.2-5.6-4c-.9-.8-3.4-2.1-4.3-2.4-.9-.3-3.4-1.1-5.3-1.1h-6.2l-.9 1.1s1.2 3.2 0 3.7-3.1-.5-3.1-.5l-3.1-2.9s-.9-.3-1.9-.3c-.9 0-4.6.3-4.6.3l-4 .3-1.5 1.6s-3.4-1.3-3.4-2.9.6-3.2 0-4-2.8-1.9-2.8-1.9h-4.6s-2.2.8-5 1.1l-2.8.3s.9-2.1-.3-2.7c-1.2-.5-2.5-1.1-2.5-1.1l-1.9-2.7-2.8-1.3-3.7.8-3.7-2.1s-3.1-1.1-3.4-1.1c-.3 0-3.4.3-3.4.3l-4.3 2.1s1.2.3.6 1.9c-.6 1.6-.9 2.7-.9 2.7l-2.2-.3-4-.3-4 .3s0-1.3-.9-1.9l-.9-.5s-1.2 5.9-2.5 5.9c-1.2 0-2.8-1.9-3.1-2.7-.3-.8-.6-2.9-.6-5.3s-2.5-6.9-5-6.9-4.6-1.6-5.3-.8c-.6.8-.9 2.9-2.2 3.7-1.2.8-3.1 3.2-6.5.5s-5.6-3.5-5.6-3.5l-3.1-.3-3.1-1.1-2.5-1.1-2.5.5-1.2.3-1.6 1.1c-1.5 1.1-2.5 2.4-4.3 2.4h-1.9s9.3-8.2 11.5-9.6c2.2-1.3 3.7-4 3.7-5.1s.3-4.3-.9-5.3c-1.2-1.1-2.5-1.9-4.3-2.4-1.9-.5-4-1.1-5.3-.5-1.2.5-3.7 1.6-3.7 1.6s.9-2.7.3-3.5c-.6-.8-1.9-1.3-1.9-1.3l-.6-1.6s.3-.3-.6-1.3c-.9-1.1-3.1-1.6-3.1-1.6s-2.8 2.4-4.3 4-2.2 2.9-1.8 3.7c.3.8.3 1.9.3 1.9s-1.9.3-2.8.3c-.9 0-1.5 1.6-1.5 1.6l-2.2.5s-1.2-1.1-1.5-1.9-.9-1.9-.9-1.9v-2.7s-1.2 1.1-2.2 1.3c-.9.3-2.5 1.6-2.5 1.6s.3.5.3 1.3-.9 1.9-.9 1.9l-2.8 1.6s-3.4 2.1-5.3 2.9c-1.9.8-4.6 2.1-5.6 4.3-.9 2.1-.3 6.4-.3 6.4s-9 .5-10.2 2.1l-1.2 1.6s.3 2.1.6 3.5c.3 1.3 2.8 2.7 3.4 3.5.6.8 1.2 2.7 1.2 2.7v5.6l-1.6.3-.6-3.2s.6-2.4-.3-3.5c-.9-1.1-2.5-2.1-2.5-2.1s-1.9-2.1-3.4-2.9l-1.5-.8-2.5 1.3-1.5 1.6-1.9-3.7-1.2-.3s.6 2.1 0 3.2-2.2 2.1-2.2 2.9-.3 1.9.3 4.5c.6 2.7 0 6.1 0 6.9s.9 1.1 1.9 1.1c.9 0 1.2-.3 2.5.5 1.2.8 2.2 1.9 2.2 1.9s-3.1-1.3-4.3-.5-1.2 2.4-1.2 2.4 0 3.2-.9 4.8-1.9 3.7-4 3.7c-2.2 0-4.6-1.3-4.6-1.3s2.8-.5 3.7-.8 3.1-2.9 3.4-4.3c.3-1.3.6-2.1 0-3.7s-.9-8.5-.6-9.8c.3-1.3 0-1.3-.6-3.2-.6-1.9 2.8-5.1 1.9-6.7-.9-1.6-3.4-2.9-3.4-2.9s.6-1.9-.3-2.1c-.9-.3-2.2.5-2.2.5l-.9 2.1s-1.2.5-1.5 1.6-.9 2.1-.9 4-1.5 3.2-2.5 4c-.9.8-.9 1.6-.9 2.4s-.6 3.2.3 4.5c.9 1.3 1.6 2.9 1.6 2.9s.6 1.9.6 2.7c0 .8-2.5.3-2.5.3s-2.5-1.6-4-2.7-3.1-1.6-4.3-1.9-4-2.1-4-2.1l-3.1-1.6-.9.5s0 1.6.9 1.9 1.9.8 1.5 1.9c-.3 1.1 0 3.2 0 3.2s-2.5-2.1-3.1-1.3c-.6.8-2.8.8-2.8.8l-2.5-.8-1.3 1.2-1.9 2.1-1.9-2.4s-5 1.3-5.9 2.7c-.9 1.3-4.6 1.3-5 2.9-.3 1.6-2.5 2.7-2.5 2.7l-1.5-2.7 2.2-2.1s-1.9-2.4-2.8-2.4h-2.2s-.6 1.1-.6 2.1c0 1.1.9 5.1.6 6.1-.3 1.1-2.5 1.1-2.5 1.1l-2.2.5s-1.9 2.9-2.2 4.3c-.3 1.3-.6 2.4-.6 2.4l-4-.3-2.5-1.1s-1.9 0-1.2.8c.6.8.6 1.6.6 1.6l-.9 1.1s-2.2 0-2.5-1.9.9-3.2-.3-4.8-3.4-4.5-3.4-4.5 9.3 3.7 10.8 3.5c1.6-.3 5.6-2.7 5.9-3.5.3-.8-2.5-4.5-3.4-5.1-.9-.5-4.6-3.2-7.1-4.5s-2.5-2.4-4.6-2.4c-2.2 0-5-.8-5-.8s-.6-2.1-.9-2.9c-.3-.8-3.1-2.4-3.1-2.4s-5-1.1-7.1-1.1c-2.2 0-3.1.5-5 1.9-1.9 1.3-3.1 1.6-5.6 1.9s-5.3 2.4-5.9 3.2c-.6.8-4.3 1.3-5 2.9-.6 1.6-3.4 4.3-3.4 4.3l2.5 1.1.9.8s-1.9 6.4-3.4 7.5c-1.6 1.1-2.2 4-3.1 4.5-.9.5-.9 1.9-2.2 2.1-1.2.3-3.1 1.3-3.1 1.3l-3.1 2.9s-2.8 1.9-3.1 3.2-.6 9.3 0 11.2 1.2 2.9 2.8 3.2c1.5.3 1.5 0 3.7-1.1s3.7-1.9 3.7-1.9l1.2.3 1.5 2.9s.6 2.4.9 4.3c.3 1.9 2.5 4.8 3.7 4s1.2-1.6 1.2-1.6l2.8-1.9s1.2-1.3 1.2-2.4c0-1.1-.6-2.9 0-3.7s.6-.3 1.5-1.3c.9-1.1 1.9-.8 2.2-2.4.3-1.6.3-2.7-1.2-3.5-1.6-.8-1.6-4-1.6-4s2.8-5.1 4.6-6.6c1.9-1.6 3.7-4 3.7-4v-2.4l2.2-2.4s2.2.3 3.1 1.1c.9.8-1.2 4.3-1.2 4.3s-1.9 2.1-2.5 2.9c-.6.8-1.9 2.7-1.9 2.7l-.6 2.7s.3.3.3 2.1 0 3.7.9 4.3c.9.5 2.2 1.3 2.2 1.3l2.8.3 3.1-1.6 4 .5 1.8.8-3.1 1.1-4 .5s-1.8 0-2.8.5c-.9.5-1.9 1.3-1.9 1.3s-1.2 0-.3 1.3 1.9 3.2 1.9 3.2l-2.5.8-1.2 1.6-.6 3.2-2.2 2.4-.6 1.9s-.9.8-2.2-.3c-1.2-1.1-2.5-.8-2.5-.8s-2.5 1.9-4.3 2.4c-1.9.5-3.4-.3-3.4-.3s-3.1-1.1-3.7-2.9c-.6-1.9-.3-4.5-.6-5.6s-.6-1.9-1.5-1.9-2.8 1.9-2.8 1.9l-2.2 2.4 1.2 2.9.3 1.6-.6 1.1s-1.2 1.1-2.2 1.1c-.9 0-4 .5-4 .5l-.9 3.2-2.5 2.1-2.8 1.3s-.9.8-1.5 1.6-.3 1.9-1.9 2.4c-1.5.5-3.7 0-3.7 0l-1.9 1.1-4 1.9s1.5 2.7 2.5 3.2c.9.5.9.3 2.2 1.1 1.2.8 1.5 1.3 1.9 2.9.3 1.6.6 4.3-.9 4.8s-5 .5-5 .5-5.6-.8-6.8-.3-2.2 1.9-2.2 1.9.9 2.4.9 3.2.6 1.6-.3 2.9c-.9 1.3-1.6 4.8-1.6 4.8s3.4 1.1 5 1.1 1.6 1.1 1.6 1.1l1.9 1.3 1.6-1.1s3.4-.5 4-.5 4-3.2 4-3.2l.6-2.4s3.4-3.5 4.6-4.3c1.2-.8 2.5-2.4 2.5-2.4l.6-3.2 3.1 1.9 5-1.9 2.8-.3s4 4 5.9 5.3 3.7 1.9 3.7 1.9 2.5.5 2.8 2.7c.3 2.1-2.5 3.2-2.5 3.2l-3.7.3 1.9 2.1 2.8.5.9-2.4 2.5-1.9s.6-1.3.6-2.1 1.5-.3 1.5-.3h1.2V536l-2.8-1.3s-2.5-1.6-3.4-2.1-.9-.8-2.2-2.1c-1.2-1.3-3.1-1.9-3.1-1.9v-1.3l1.5-.8s4 3.5 5.3 4c1.2.5 3.7 1.3 3.7 1.3l1.5.3 1.2 3.7 1.6 4.3 1.5 3.5 3.1 1.6 1.6 1.6s1.9 1.1 2.8 1.1c.9 0 2.5-.3 2.5-.3l.9-1.1 1.9-.8 3.1-.3 1.9.8 1.5-1.3 3.7.3-.3 2.1 3.1 1.1.9-1.6 2.8-.3s1.2 2.7.6 3.5c-.6.8-5 4.8-5 4.8s-8.1-.5-9.3.3-4.7 0-6.5-.8c-1.9-.8-4-2.4-5.6-2.4-1.5 0-3.7 1.6-4.9 2.4-1.2.8-6.8 1.1-8.4 0-1.5-1.1-3.1-1.6-3.7-2.4-.6-.8-2.5-2.7-2.5-2.7l-2.2-.3s-1.9-2.4-2.5-3.2-1.2-2.7-1.2-2.7l-1.2-.3s-9.6.8-10.5.8-6.2 1.1-6.2 1.1-3.4 2.4-5.3 2.7c-1.9.3-3.4.8-4.6 0-1.2-.8-3.4-.8-3.4-.8s-1.9 3.5-4 4.8c-2.2 1.3-1.5 3.2-2.5 4.5-.9 1.3-1.9 4.8-3.4 5.1s-4 2.9-5.6 4.8c-1.5 1.9-3.7 6.1-4.6 9.3-.9 3.2-1.2 8.8-.9 10.6.3 1.9 6.2 9.1 7.4 10.4 1.2 1.3 6.2 5.6 8 6.4 1.9.8 4.3.8 6.5.8h7.4s7.4-1.9 9.3-2.4c1.9-.5 3.4.5 3.4.5l2.8 2.9s2.2.3 4 .8c1.9.5 2.2 1.3 2.2 2.4 0 1.1-.9 4.5-.9 4.5s.6 1.6 2.5 3.2 4 4 4.3 5.1 1.2 3.5 1.2 3.5l-.3 2.1.9 2.7s-.6 4-.9 4.8c-.3.8-1.9 4.3-1.5 6.1.3 1.9 2.2 5.3 2.8 6.7.6 1.3 1.5 3.5 1.9 5.1.3 1.6-.3 7.7 1.9 9.3s2.8 3.7 3.7 5.6c.9 1.9.3 3.7 2.2 5.6 1.9 1.9 4.6 2.4 5.6 1.9.9-.5 4.3-.8 5.9-.8 1.5 0 7.4-2.9 10.2-4.8 2.8-1.9 4-4.8 4-4.8s2.8-2.9 3.4-5.1c.6-2.1 3.4-3.5 3.4-3.5s1.5-2.9 1.5-3.7v-6.4s7.1-3.7 8.1-5.3c.9-1.6 2.5-6.4 2.2-7.4-.3-1.1-3.1-8.8-1.9-12.5 1.2-3.7 5.6-7.2 5.6-7.2s7.7-6.7 9.6-8.3c1.9-1.6 4-3.7 4.3-5.1.3-1.3 2.5-4.5 2.8-5.6s-1.6-1.6-1.6-1.6-2.8-.5-4-.3c-1.2.3-7.7-1.6-7.7-1.6s8-2.7 9.9-3.2 11.4-4.3 12.4-5.1c.9-.8 3.1-2.1 3.7-3.5.6-1.3 1.8-3.5 1.8-3.5l2.2-2.7s-2.5-2.9-4-3.5c-1.6-.5-3.4-1.9-3.4-1.9l.9-.8s7.4 2.1 9 2.1 3.4-.8 5-.8h4l4.3 2.9s3.1 2.9 3.4 4.3c.2.7 1.2 1 1.9 1.2.4-.3 2.8-.9 2.8-.9s.9 5.9 1.5 6.9c.6 1.1 1.9 4.8 2.8 6.1.9 1.3 3.1 4.8 3.4 6.1.3 1.3.3 2.1 1.6 2.9 1.2.8 1.9.8 2.8 0 .9-.8 2.5-2.7 2.5-2.7l1.2-1.1.6-4.5.6-4s4.9-3.2 6.2-4c1.2-.8 4.6-2.9 5.9-3.7 1.2-.8 4.6-.8 4.6-.8h4.3c.9 0 2.5 1.3 2.5 1.3s2.5.8 2.2 2.1-.6 2.9-.6 2.9 1.5 1 2.5 1.6l2.2-1.3 1.5.8s2.2 3.2 2.2 5.9-1.2 5.9-1.2 5.9 1.9 1.9 2.5 2.9c.6 1.1 3.1 4.5 3.1 4.5l.9 3.2s1.2 2.7.6 1.3c-.6-1.3-3.7-2.7-3.7-2.7l-2.8-2.9-5.3-.8 2.2 3.2-.3 2.4 2.2 1.1.6 2.4 1.9 1.9 2.2 2.9 2.5.5s5.3 4.5 6.5 5.6 4 2.9 6.2 3.5c2.2.5 6.2.8 6.2.8l7.4 1.6s5.9.3 7.1.3c1.2 0 4.7 1.1 4.7 1.1l2.8.5-.6-1.6 3.7-.8v2.4s4.3-.3 5.3-.5c.9-.3 3.1-.3 3.1-.3l.9-.5 1.9-1.6 1.5 2.1 1.8-1.9 1.6-.5-.3-2.1h-9s-1.5.3-2.5.8c-.9.5-2.2.5-4 .3-1.8-.3-4.3-.5-5.9-.3-1.6.3-4.7.5-4.7.5s-4.6-1.1-5.6-1.1c-.9 0-3.1-1.1-3.1-1.1s-7.4.3-8.4-.3c-.9-.5-2.8.3-3.7-1.3s-3.4-2.9-1.9-3.5c1.5-.5 2.2-1.3 2.2-1.3s-2.2-1.6-3.4-2.4c-1.2-.8-2.5-3.5-3.7-5.9s0-4-.9-5.3-4.6-3.5-5.9-5.6c-1.2-2.1-1.9-3.7-1.5-4.5.3-.8.9-2.1 1.9-2.1.9 0 2.5-.8 4.3 1.3s3.1 2.7 3.4 4c.3 1.3 2.8-.3 4.3-1.1 1.6-.8 5-2.7 5.6-4.3s.6-3.7-.6-5.3c-1.2-1.6-5.6-4.5-5.9-6.1-.3-1.6 1.9-4.3 2.8-4.3h2.8c-1.6 0 .9 1.3 0 2.1s-2.2.8-1.2 1.9c.9 1.1 1.8 1.6 2.8 1.3.9-.3 2.5-.5 2.2-2.1s-.6-2.4-.6-2.4 8.4-2.9 9.9-3.5c1.5-.5 5.6-1.9 7.1-5.1.8-1.8 3.2-4.8 4.6-6.5-2.4 2.6.6-5 0-6.2-.6-1.3-2.5-4.8-2.5-4.8s-2.2-1.3-.9-2.4c1.2-1.1 3.7-2.1 3.7-2.9 0-.8-.6-1.3-1.9-1.3-1.2 0-2.5.8-3.1-.3s1.6-2.7 2.2-3.5c.6-.8 4.3.5 2.8 0s2.5-1.1 4 0 3.1 2.4 3.1 2.4 1.2 1.6 1.2 2.7.3 2.7.3 2.7.9 2.1 1.9 2.1c.9 0 1.6 0 2.5-.3s1.6-1.6 1.6-1.6l.6-3.2s-2.8-2.4-3.4-3.5c-.6-1.1-.3-1.9-.3-1.9s4.3-2.1 4.6-4.3c.3-2.1 3.1-2.9 3.1-2.9s1.9.8 3.4.3 6.5-5.1 9-8.8 3.7-4.3 4.6-6.9c.9-2.7.9-8.2.9-5.6 0 2.7.6-3.5-.3-5.6-.9-2.1-3.1-2.9-3.1-2.9l-3.1-.5s-2.8-1.9-.9-4.3 7.4-5.6 8.7-7.5c1.2-1.9 5.9-3.2 5.9-3.2s3.1 0 4.3.8 3.4-1.3 4.3-1.3c.9 0 3.4.3 3.4.3l3.1 1.6 4.3-.3s.9-1.9 1.2-2.7.9-3.5 2.8-4.8c1.9-1.3 4.9-1.9 4.9-1.9l1.9 3.2s.9 1.1 2.2.3c1.2-.8 3.1-3.2 4-4.3s2.5-1.9 2.5-1.9l-1.9 4.5s-5.9 4.5-7.1 6.4c-1.2 1.9-.3 1.9-3.1 3.7-2.8 1.9-4.3 3.7-4.3 3.7s-1.2 5.1-1.2 6.9c0 1.9 0 4.5.3 6.7.3 2.1.6 3.2.6 3.2s2.2-.3 3.4-1.3c1.2-1.1 4-3.5 3.7-4.3s.6-2.9.6-2.9 1.6.8 2.8-.3 1.2-1.6 1.2-3.2 1.5-2.4 1.5-2.4.3-1.9.6-2.9c.3-1.1.6-2.1.6-2.1l-2.5-.8s1.2-.8 1.9-2.9l.6-2.1 4.6-.5s4-3.5 5.6-2.1c1.5 1.3 2.8 2.4 4 1.6 1.2-.8 4.3-4.5 5.6-5.3 1.2-.8 4.6-3.5 6.2-3.5 1.5 0 4.3.3 4.3.3s1.2-1.9.9-3.7c-.3-1.9-.9-3.7-.9-3.7s1.2-3.5 2.8-3.7c1.5-.3 7.1 1.9 7.1 1.9s2.2 2.7 3.7 2.7 4.3-1.1 4.3-1.9c0-.8.3-2.4 1.9-3.2 1.5-.8 1.9-1.6 1.9-2.4-.1-.4-2.6-3.1-4.1-3.6zm-297.2 76.4c-2.2-1.3-3.7-1.6-3.7-1.6l-3.1-1.1-1.2 1.1-5.3.5-2.2-2.7s.9-1.9 1.2-2.7 2.2-3.7 3.4-4.3c1.2-.5 2.2-.8 2.8.3s.3 1.9.9 2.7c.6.8-.3 1.1 1.5 1.3 1.9.3 3.4-.3 3.4-.3l2.8-.8s0-.8 2.2.8 7.4 4 7.4 4l.9 1.9s0 1.6-1.5 1.9c-1.5.3-2.2 1.6-4.6.3-2.4-1.3-2.8 0-4.9-1.3zm14.2 54.3s-2.2-1.1-3.1-1.3c-.9-.3-2.5-1.9-4-4.3s-2.5-2.7-3.7-4.5c-1.2-1.9-.3-2.1-.6-2.9-.3-.8-1.2-2.7-2.2-3.5-.9-.8-1.2-2.4-1.5-3.7S405 564 405 564l.6-1.6.9.5c.9.5 1.8 2.1 1.8 2.1l.9 2.4s1.9.5 4 4c2.2 3.5 1.2 3.7 1.2 3.7s1.2 1.6 3.4 3.7 1.9 3.2 2.2 5.3 2.2 2.7 2.2 2.7l.3 2.1-.8-1.2zm7.8-61.2c-.6-1.1.9-1.6 1.9-2.7.9-1.1 1.9-1.1 2.8-1.3.9-.3 4-1.1 4-1.1l2.5 1.1s-.6 1.1-2.2 1.9c-1.5.8-1.2.5-1.9 1.3-.6.8-.9 1.9-.9 2.7s1.5 2.4 3.4 4.5l1.9 2.1s-.6 2.9-1.9 3.2c-1.2.3-1.2 0-3.1 0-1.9 0 0 0-.9-.8s-1.2-.8-1.2-.8-.3-1.6-.6-2.4c-.3-.8 0-1.3 0-1.3l-.6-1.9-1.2-2.1c-.2 0-1.4-1.4-2-2.4zm13.3 40.7c-1.2.3-2.5.5-4.3 0-1.9-.5-.9-1.6-2.5-3.5-1.5-1.9-2.5-1.6-3.1-2.4-.6-.8-.6-2.1-.6-2.1l2.2-.8s.9.5 1.9 1.1c.9.5.9.8 4.7 3.7 3.7 2.9 2.5 1.1 3.1 1.3.6.3 1.9 1.1 1.9 1.1s-2.1 1.3-3.3 1.6zm13-39.9l-1.2 1.6s-2.8-1.1-3.1-2.4c-.3-1.3.6-1.9.6-1.9l1.5-1.1 4 2.1-1.8 1.7zm20.1 48.1c.7 0 .3 0-.3-.1-.1.1-.1.1.3.1zM647.4 663l1.9.3-1.2-1.6-.7 1.3zm-124.5-79.3c1.1.7.8.4 0 0zm53.3 26.1c.9.3 4.6.8 5 0 .3-.8 1.2-2.4 1.2-2.4s1.9-3.7 1.2-5.9c-.6-2.1.3-2.1.3-2.1l1.9-.8-.3-1.3.6-1.6-.9-.8-.3-1.1-.9-1.9-1.2-1.9.3-1.3-1.2-1.6-2.5-1.1-3.4-1.1 1.6-1.9v-3.5s-3.4-1.6-4 0-2.2 3.2-2.2 3.2 0 1.1.3 2.1c.3 1.1.9 2.7.9 2.7l-1.6 2.7s-1.9 2.7-4 4.8c-2.2 2.1-2.2 3.5-2.2 3.5s-.3 1.3-2.2 2.7c-1.9 1.3-3.4 3.7-5.9 4.3-2.5.5-3.4 1.1-3.4 1.1s-1.5-1.6-2.8-1.9c-1.2-.3-2.2.3-2.2.3s.3 1.3.6 2.4c.3 1.1 1.2 3.2 2.2 4.5.9 1.3 2.5 2.1 2.5 2.9 0 .8.6 1.1 1.5 1.1s1.2-.8 2.8 0c1.5.8 3.4 1.1 4.6 1.3 1.2.3 2.5 0 2.5 0l1.9 1.6 1.2-1.9s-2.5-.5-2.5-1.6 0-4.3 1.9-5.3c1.9-1.1 2.2-2.7 2.2-2.7s-1.6-2.1-1.2-3.5c.3-1.3 2.8-1.1 2.8-1.1s1.9-1.1 3.1-1.9c1.2-.8 2.8-1.9 2.8-1.9s.9-.8 1.5 0 3.1 1.6 3.1 2.7 1.9 1.3 0 3.7c-1.8 2.4-5.9 2.9-6.8 2.7-.9-.3-2.2.5-2.2.5l-3.1 3.5v1.6l.9 1.9.6 2.1v1.3l1.2 1.6h1.2l-.6-1.9.3-1.6 1.9.5v1.1l1.9 1.3 2.2.5.9-1.3-.9-1.1-1.2-.5s1.2-1.3.3-1.9c-.9-.5-.6-.8-1.5-1.6s-.9-1.9-1.9-2.1c-.9-.3-.9-1.3-.9-1.3s1.2-1.1 2.1-.8zm-1-50l.4-.4c1.4-1.6.8-1-.4.4zm106.9 118.4c-.3-.8-.9-1.9-.9-1.9l-3.4-1.9-.6-1.9-2.8-.8s1.2 2.7 2.5 4c1.2 1.3 2.5 0 1.5 2.7-.9 2.7-2.2 3.7-2.2 3.7s.6.5 1.2 1.3 1.5-.3 1.5 1.1c0 1.3-.9 1.9-.9 1.9l-3.4-.5s-.3-.5-1.2.8 1.5.5-2.5 2.9-5 3.5-5.9 4.3-2.8 3.5-2.8 3.5.6.5 1.9 1.6c1.2 1.1 1.9 1.9 1.9 1.9l2.2-.8s3.1-1.1 4-3.5 1.5-3.2 1.5-3.2l1.2-.3s1.9-2.7 2.8-4c.9-1.3 3.1-1.3 3.1-1.3l1.3-3.2s.9-1.3 2.2-2.1c1.2-.8 2.2-3.5 2.2-3.5l-2.5-.5c-.1-.1-1.6.5-1.9-.3zM292.3 442.9l-3.7-1.3-.9-1.9s-.6-1.3.3-1.1c.9.3 2.2 1.3 2.2 1.3l1.9.5 1.5.3s.3-2.1.3-3.7-.9-4-.9-4l-.6-1.3s3.1-.3 3.1-1.1-.6-1.9-.6-1.9l-3.7-3.5s2.8 1.1 4.3 0 1.5-2.7 1.5-2.7l.3-2.7 2.5-1.3s-1.9-1.6-1.6-2.4l.3-.8 3.7.8v-3.2l-2.2-.5s-.9-.3-1.5-2.1l-.6-1.9 1.9-1.9s2.5-6.1 1.2-7.2c-1.2-1.1-2.5-1.3-2.5-1.3l-.6-2.4 2.2-2.7v-2.7c0-.8.3-1.6.3-1.6l.9-1.9s-.6-2.1-.9-1.1c-.3 1.1-1.9-2.4-1.9-2.4v-3.5l.6-1.1 1.9-1.1s1.2-1.6.3-2.9 1.5-1.3 1.5-1.3l1.9-1.9-1.2-2.4s4-.5 4-1.9c0-1.3.3-2.9.3-2.9s3.1-2.7 4-4.3c.9-1.6-3.1-3.7-3.1-3.7s-1.9-1.3-3.4-.8-.9-.3-3.1 2.1l-2.2 2.4-2.8.3-1.6-2.4-.9.5-.3 1.3s-1.6.8-1.9 1.6c-.2.5-.6.8-.9 1.1.5-2.1 1.2-5.6 1.2-6.2 0-.8-.3-1.9-1.5-2.4s-2.8-1.1-2.8-.3-1.6 1.9-1.9 2.7c-.3.8.6 1.1-1.2 1.6-1.9.5 0-3.2 0-3.2H278s-2.2-.5-3.7.3-3.7 1.6-3.7 1.6 0-.8.9-1.9 3.7-1.9 4.9-1.9h5.3l3.4.3s2.2-1.6 3.4-1.9 3.4-1.6 4-2.7 1.6-1.6-.3-3.2c-1.9-1.6-2.2-1.3-4-2.7-1.9-1.3-3.1-3.7-3.1-3.7s-1.5-1.3-1.9-.5c-.3.8-1.2 1.3-1.2 1.3l-3.7-.5s.1-.4-.5-.6c2.2-.5 4.2-1 4.2-1l2.2-.8s0-1.1-1.2-1.3c-1.2-.3-.9.8-2.8-.5s-2.8-1.6-2.8-1.6l-4-1.1-3.7-.5-3.7.5s-1.5-.5-3.1.5c-1.5 1.1-3.4 1.9-3.4 1.9s-.3.8-1.2 1.1l-.9.3s-1.9.5-2.8.5c-.9 0-3.1.8-3.1.8s-.6-.5-1.2.3l-.6.8s1.9.5-1.6 1.1l-3.4.5-1.2.5-.3 1.3.6.8s.3.3 1.2 1.3l.9 1.1.9 1.3s.3.3.9 1.1l.6.8v1.1l-.6 1.1-.9 1.1s.3.5.3 1.3v.8l-.9.5-2.5-1.3s-.6-1.1-1.2-1.9c-.6-.8-1.9-2.1-1.9-2.1l-.3-.8-1.2-.3h-2.5l-.6.8s-.9.3-.9 1.1v.8l-.4-.4c-.1 0 0 .2.7 1.4l1.6 2.4-2.5-2.7-1.5-1.1h-1.6l-1.5-.3h-.9l-3.1 1.6s-1.9-.5-3.1 0c-1.2.5-2.8.8-2.8.8l-.6 1.1-.3.8-1.5.8-1.2 1.1-.3 1.1s.6.8.3 1.6l-.3.8-.3 1.1v1.1l-.9.5-.9.8s-.9.8-1.9 1.6c-.9.8-.6.3-2.2 2.1-1.6 1.9-1.9 2.7-3.7 4-1.9 1.3-1.2 1.3-.9 2.4.3 1.1.3 1.6 1.2 2.1.9.5 2.2.8 2.2.8s1.2 0 1.2 1.6.6 3.2-.3 4 0 1.1-2.5 1.6-4.3 1.6-4.3 1.6-1.2 2.1-3.7 2.9-4.3 2.4-4.3 2.4.3.8.9 2.7c.6 1.9 0 .3 1.5 2.1 1.5 1.9 5.3 2.4 5 3.2-.3.8-1.9 2.1-1.9 2.1s-2.2-1.1-2.2 0 .3 2.7.3 2.7.3.3.9 1.1c.6.8 1.9 2.4 3.1 3.5s1.9 1.6 2.8 1.3c.9-.3 2.5-.8 3.7-.8s3.4-.3 3.4-.3.6-.3 1.9 0c1.2.3.9 1.1 2.8 1.6s5.6 2.1 6.2 4.3c.6 2.1 1.5 3.2 1.9 6.4.3 3.2 1.2 3.7 1.5 5.1.3 1.3 2.5 4.3 1.9 6.7-.6 2.4-1.2 3.2-.3 3.7s1.9.8 1.9.8 3.7 0 4.3 1.3l.6 1.3-4 .5s0 1.9-.6 2.9c-.6 1.1-.6 2.9.6 3.5 1.2.5 1.9 1.3 2.8.5.9-.8 1.9-2.4 2.5-1.1s-1.9 3.7-1.9 3.7-1.9 1.6-1.9 3.5 0 5.3.6 7.5c.6 2.1 0 .8 1.5 4s2.2 5.3 2.2 5.3 0 2.9 1.6 4.5c1.5 1.6 2.8 2.9 4 5.1l1.2 2.1s.9-.5 2.5.3c1.5.8 2.8 1.9 4 2.4s1.5 1.1 2.2-.5c.6-1.6 1.5-.8 1.9-4 .3-3.2.6-5.1.6-5.1s1.9-1.1 2.2-2.4c.3-1.3 1.2-3.7 1.5-4.8s0-2.1 1.5-2.9c1.5-.8 3.1-1.1 3.1-1.1l2.5-.3s4.3-3.7 5.6-4.8c1.2-1.1 3.4-6.1 3.4-6.1s9.3-.8 10.8-2.1c1.6-1.3 6.2-5.3 6.2-5.3l.7-1.1zm14 25.5c.9 0 1.2-.5 2.5-1.3 1.2-.8 1.5-2.7 1.5-2.7s-.9-1.6-1.5-2.9c-.6-1.3-.3-1.6-.3-1.6l-2.2-1.6-1.9.5-1.5.3-1.5.5h-4.6l-1.9-.5s-.9-.5-1.9-.5c-.9 0-1.2.3-1.2.3l-.6 1.1-1.2 1.9v1.3l.9.3 1.5.8-.4.7-.9.3-.6 1.1.9.5.9.8v2.9h3.7c1.5 0 1.9.5 1.9.5l2.5 1.1 1.9-1.6c1.9-1.6 0 0 1.2-1.1s1.8-1.1 2.8-1.1zM187.4 572.5c-2.2-1.1-3.1-1.1-3.1-1.1l-1.6-.3-2.5-1.1-2.2-1.1-1.9-.5-1.5 1.6-.6 1.3 1.5.3 3.4.8s3.4.3 4.6 1.3c1.2 1.1 3.1 1.3 3.1 1.3l2.5 1.3 4 .5.3-1.3-1.5-.8s-1.2-.5-2.2-.8c-.8-.1-.1-.3-2.3-1.4zm7.4 6.9l2.8.8s1.2-.3 2.2-.5c.9-.3 3.4-.3 3.4-.3l-.3-.8-.9-.5-1.2-.8-5.3-1.1s.9.3-.3 1.6c-1.3 1.4-.4 1.6-.4 1.6zm59.1 35.4c-1.5-.3-2.5-1.6-5-2.4-2.5-.8-4.6-1.3-4.6-1.3l-4.6-2.1s0-1.6-1.9-3.5-2.2-3.5-3.4-3.7c-1.2-.3-4-1.3-4-1.3l-5.9-1.6-4.3-3.5-1.9-2.9-2.8-.5-5.3.3-2.2-.8-5.6-3.5-1.2.5-1.9.5s-5-.3-3.1 0-1.9.8-1.9.8l-1.9.8-2.8 1.9s-1.4 1.5-2 2.2c-.2-.3-2.9.5-2.9.5s-1.9-.5-3.1-.5-4.3-.8-4.3-.8l-2.2-1.6s-.6.8-.6-1.6c0-2.4.6-.8-.3-4.3s2.8-4.5-3.1-4.3c-5.9.3-6.5-.5-6.5-.5l-2.8-1.9-.6-1.6s1.4-.2 2.2-.3c-2.2.3 4-1.9 4-1.9l-.3-2.4H162s-1.9 2.7-1.6 1.9-2.8 4-2.5 3.2-4.3 1.6-4.3 1.6l-3.7-1.3s-3.4-7.4-3.1-8.5.3-4 .3-4l.3-4 4.3-2.9s4.6-2.1 6.2-1.1c1.5 1.1 4.3.5 4.3.5s3.4-1.9 4.3-1.6c.9.3 3.1 1.1 3.1 1.1l2.5.5c-2.4-.5 3.4 2.4 3.4 3.2s-.3 3.5 1.2 4.3 3.1.8 3.1.8 2.2-4.3 1.6-5.1-4.6-6.1-4.6-6.1 5.9-4.5 6.5-5.3 3.1-.8 5-3.5 2.2-6.9 2.2-6.9 7.4-5.1 4.3-4 5.6-3.2 5.6-3.2l-.6-2.1s5.3-3.7 6.5-3.7 1.5 1.3 1.5 1.3 1.9-.3 4-.5c2.2-.3 6.2-2.7 6.5-3.7.3-1.1 1.2.3-2.8-2.1s-3.7-4-3.7-4-.7-1.4-1-2.3c-.8.1-3.3-.7-3.3-.7l-1.5-.8s3.7-1.6 4.6-1.6 1.9 1.1 1.9 1.1 1.2 1.9 2.2 2.1c.9.3 2.2-.3 2.2-.3l.3-1.3s.6-1.1 1.6-1.3c.9-.3 1.9-.3 3.1-1.1 1.2-.8 3.4-1.9 3.4-1.9s-4.3 6.9-4 7.7 1.5 1.9 2.8 1.9c1.2 0 4 .5 4 .5l-.6 2c.1-.3.6-1.4 2.4-1 2.2.5 4 1.3 4 1.3s.2-1.8.2-2.4c-.2-.7-.6-3.8-.6-3.8l-.9-1.9-2.8-1.1-1.9-.8-.6-1.9.3-3.5s-1.2-4.3-1.9-5.1l-1.2-1.6s-3.4-2.1-5-3.5c-1.5-1.3-3.1-4.5-3.1-4.5l-1.2-3.5s-4.6-6.7-3.1-4.8-1.2-3.7-1.2-3.7-3.1 2.4-2.8 3.2c.3.8-.6 1.9-1.5 2.7s-2.2.8-2.2.8-1.9 0-2.5-3.2-1.5-5.1-1.5-5.1l-3.7-2.4-2.8-2.1-3.1.3-4.3-.5-1.2 1.3s-.6 4.8-.3 3.2c.3-1.6 0 2.7 0 2.7l-1 4.6.6 3.2s5 3.2 1.2 6.7l-3.7 3.5v4c0 1.3 2.2 5.1.3 5.6-1.9.5-2.8 1.3-4.3-.8s-1.5-4.8-1.9-6.7c-.3-1.9-2.5-3.5-2.5-3.5l-3.7-.5s-2.8-2.9-6.2-3.7c-3.4-.8-7.1-1.9-7.1-1.9s-1.3-2.6-2.2-4.2c2.1 4.2-2.5-2.1-2.5-2.1s1.9-7.5 2.8-8.5c.9-1.1 4-3.5 4-3.5l1.2-2.1s3.4-1.3 4.3-2.4c.9-1.1 1.9-4.5 1.9-4.5l2.8-.5s-1.5 1.6-2.2 2.9c-.6 1.3-3.1.8-.6 2.9 2.5 2.1 3.4 2.1 3.4 2.1l2.5-1.3 1.9-.8 4.3 1.9 1.5-1.3s-.9-1.9-2.8-3.5-3.4-3.2-3.4-3.2l-.3-3.2s.9-.8 2.5-1.9c1.5-1.1 1.5-4.3 1.5-4.3l-.6-2.9.9-1.6s-.6-2.9-1.2-3.5c-.6-.5-1.9-1.9-3.7-1.9-1.9 0-3.4 1.1-3.4 1.1v2.9l-.6 1.6-1.2 1.1-.6 1.3v2.4l-1.2-.3-1.2-2.1.6-2.1-.6-1.6s.3-.8-1.2-1.6-2.8-.8-2.8-.8l-3.1-1.6.3-2.7-2.8-5.3s-.9-2.7-1.2-3.7c-.3-1.1 1.5-3.2 1.5-3.2l2.5-.8s.3-3.7 1.5-5.1c1.2-1.3 1.2-2.9 1.2-2.9l-4 .3-1.9-.5-2.8-.3-.6.8-1.2 3.5s-.3 2.7-.3 4 .6 5.6 0 6.9-1.5 2.7-1.5 2.7l-.9 2.1.9 2.9 1.5 1.3 3.1 1.3.3 1.9-1.5.3s-.3-.3-1.5-1.3c-1.2-1.1-2.5-1.9-2.5-1.9l-2.5-.5-.6 1.1-2.2 1.6-.6.8 3.4 2.7-2.2 1.6-.3 1.3s-2.5.5-3.4.5-3.4-.8-4.6-1.9c-1.2-1.1-3.4-2.9-3.4-2.9l-2.5-.5s-2.2.8-3.1 1.1-2.2 1.1-2.5 1.9c-.3.8-3.7 2.1-5.6 2.4-1.9.3-5-1.1-5-1.1l1.2-2.4-2.2-1.9-2.5-.5-2.8-.3-6.8-2.4s.6-.8-1.5-.5c-2.2.3-3.1.8-3.1.8s0-1.3-.9-2.1-2.2-1.3-2.2 0-.9 2.4-.9 2.4-.3-.3-1.2-1.3c-.9-1.1-2.8-2.9-2.8-2.9l-1.5-1.9s-.3.5-.3 1.3v.8l-1.2.5h-2.8l-.9.8-.9.3-.9.3-1.5 1.6-1.2.3-1.5-.3s-1.2-.5-1.9.3c-.6.8-2.2 2.1-2.2 2.1l-1.5.5-3.7-2.4-3.1-.3s-4.6-2.4-6.8-1.9-3.7.3-3.7.3l-1.9-.8-4.3-1.6s0-.3-1.2-.3.6-.3-1.2 0c-1.9.3-4-1.1-4-1.1l-.9-.8h-.9c-.9 0-.9-.8-2.2-1.1l-1.2-.3-3.1-.5-1.9 1.1s-2.8 0-3.7.3c-.9.3-1.5 3.2-2.5 3.2-.9 0-2.8 1.6-2.8 1.6l-3.7 3.2-3.4 1.6-.9 1.3s-.6 2.1.3 2.7l.9.5 1.5 1.1 1.5 1.6L17 458l1.2.8.9 1.3-.3.8-1.9-.8-2.2-.8-.9.5s-1.5.8-2.5 1.3l-.9.5-1.9 1.6.6 1.3.6 1.6.6.8 1.2.8 1.5.5h4.6l.9-.3s-.3-.5.9 0 2.5-.3 1.5 1.6c-.9 1.9-1.2 2.1-3.7 3.2s-2.8-.8-4.3 2.7-1.5 3.7-.6 5.3 1.2 2.9 3.1 3.5c1.9.5 1.9-.3 3.1.5s1.2 2.1 1.5 2.9c.3.8 3.4 1.9 4.3 1.9s2.2-.3 3.1-.5c.9-.3 0 1.1-.3 2.4-.3 1.3-2.8 3.7-4.3 4.8s-4.6.8-6.5 2.4c-1.9 1.6-3.7 2.7-5.6 4S2 507.4 2 507.4s9-1.9 11.5-3.7c2.5-1.9 3.7-2.7 3.7-2.7l.9.8s0 .3 1.9-.8l1.9-1.1.9.3s2.2 1.3 2.2 0v-1.3s1.9-2.4 3.1-2.7 4.6-3.2 5.9-4.8c1.2-1.6 1.9-2.7 1.9-3.7 0-1.1.3-2.7 1.9-3.7 1.6-1.1 2.5-1.9 2.5-1.9l-1.9 4.3s-2.2 5.1-3.1 6.6c-.9 1.6-1.2 2.7-1.2 2.7s1.2 1.1 2.2 0c.9-1.1 1.9-2.1 2.8-3.2.9-1.1 1.6-1.3 1.2-2.4-.3-1.1-.6-1.3.3-2.4.9-1.1 4-4.3 6.5-4.3s7.1.8 8.7.8c1.5 0 6.8.5 9 2.4s3.7 3.2 5 5.6c1.2 2.4 2.5 4 4.6 5.9 2.2 1.9 4.3 2.7 4.3 2.7s3.1 2.7 3.7 3.7c.6 1.1 1.9 1.1 2.8 3.7.9 2.7.3 2.9.9 3.7s.9.8 4.6 4.3 3.7 6.7 3.7 6.7-.6 8-.9 10.1-.6 4.3 0 5.9c.6 1.6 1.5 2.1 3.1 3.7 1.5 1.6 1.9 1.9 3.1 3.7 1.2 1.9 2.5 3.2 4.6 4.5l2.2 1.3s.6 1.3 1.5 2.9c.9 1.6 0 1.9 1.5 3.2s3.1.8 3.1 2.1-.3 2.4.6 3.2 1.2.3 2.5 1.3c1.2 1.1 1.2 2.1 1.2 2.1l2.2 1.3s1.2 1.3 2.2 2.4c.9 1.1 1.9.8 1.9 0s-1.2-4.3-2.5-5.3c-1.2-1.1-1.2-1.6-2.2-2.4-.9-.8-2.5-2.4-2.5-2.4s-3.4-2.7-3.4-4 1.2-1.9 1.2-1.9l1.6 1.6s1.9 2.9 4.6 5.6c2.8 2.7 4.3 4.5 5.9 5.9 1.6 1.3 2.5 1.1 3.4 2.7.9 1.6.9 2.7.9 3.5s.9 2.7 3.1 4.5c2.2 1.9 9.6 4.5 14.9 5.9 5.3 1.3 7.7 1.3 7.7 1.3l.9 1.3 1.5 1.1s.6.3 1.9 0c1.2-.3 2.2-.3 2.2-.3s0-.5 1.2.5c1.2 1.1 3.4 2.9 3.4 2.9s.9 1.1 1.2 2.1c.3 1.1 3.1 1.3 4.3 2.4 1.2 1.1.9 1.9 2.2 2.7 1.2.8-2.2.8 2.8 1.1s6.8.8 6.8.8 1.2.8.6 3.2-2.5 5.3-4 6.9c-1.6 1.6-1.9 1.3-2.2 4-.3 2.7-.9 2.4-.6 4.3.3 1.9 2.5 4 4.6 6.9 2.2 2.9 3.1 5.6 5.3 9.3 2.2 3.7 3.4 4 7.7 6.1 4.3 2.1 4 4.3 4 4.3s-1.5 13.8-2.2 15.2c-.6 1.3-.6 10.6-2.8 13.8-2.2 3.2-2.5 10.7-2.8 11.7-.3 1.1 0 2.9-1.2 5.1-1.2 2.1-.9 4.8-.9 6.4 0 1.6-.6 5.6-.6 5.6s-.9 2.9-.3 5.6c.6 2.7 0 2.4.6 4.8s1.9 4.5 3.1 5.6 3.7 3.2 6.2 4.3 4.6 2.4 5.9 1.9c1.2-.5 4-2.9 4-2.9l4.6-.5s-5.3-1.6-7.1-3.2c-1.9-1.6-1.2-2.4-2.2-4-.9-1.6-1.2-3.5-1.2-3.5V709l.9-.5 1.2-2.4 1.2-1.6 2.5-2.4-.3-1.9-2.5-2.1.6-1.6 1.9-1.3.9-.3s.6-2.7 1.5-3.2 2.2-2.4 2.2-2.4-1.9-.8-2.2-1.6c-.3-.8 1.9-1.3 2.8-1.6s2.2-.8 2.5-2.1 1.9-2.4 1.9-2.4 6.5.3 7.4-1.6c.9-1.9.3-4 0-5.3s.3-2.1.3-2.1l5.6.5 2.8-1.3 2.5.8s.3-1.3 0-2.1 0-3.2 0-3.2 2.2-2.7 3.4-4 2.8-1.3 2.5-3.7.9-5.6 3.1-6.9c2.2-1.3 9.3-2.1 9.3-2.1s1.9-1.3 2.2-2.7c.3-1.3 2.2-2.9 2.2-2.9s1.5-4 2.2-6.1c.6-2.1.6-6.1.6-6.1s6.2-4.5 6.5-6.1.3-5.8.3-5.8-2.5-.8-4-2.1c-1.3-1.6-9.3-3.7-10.9-4zM436 631.3l-1.9-1.6s-2.8 2.9-3.7 4.3c-.9 1.3-1.5 3.5-3.1 4s-3.1.8-3.4 1.6c-.3.8.6 4.3 0 5.9-.6 1.6-2.8 3.5-2.2 5.1s.3 2.7.9 3.7c.6 1.1 1.6 1.9 3.1 1.6 1.6-.3 3.7-1.3 4.6-2.7.9-1.3 2.5-3.7 2.5-5.3s.3-4.3 1.5-6.4c1.2-2.1 2.2-4.3 1.9-5.6-.2-1.4-.2-4.6-.2-4.6zm-216.7-43.4s0-4.8-1.5-6.7c-1.6-1.9-2.8-2.4-2.8-2.4l-1.9-1.1h-6.5l.3.8-.9 1.5h6.5s1.9.8 2.8 1.6c.9.8 2.2 1.6 2.5 3.2.3 1.6-.9 4.8-.9 4.8l2.4-1.7zm228.4 40.8l1.9 1.1.9-1.3-1.9-.8-.9 1zm33.8-29.6l-2.2-.8-.3 2.4 1.9.5.6-2.1zm-1.9 12.8h1.5v-2.7h-1.9l.4 2.7zm.9-18.4l1.5-.8-1.5-1.9-2.8-1.9s-.9 1.1 0 2.1c.9 1.1 1.2 1.9 1.2 1.9l1.6.6zm-.9 12.5l1.9 1.3.3-1.9.6-2.1-2.8.3v2.4zm-49.8 20.5l-1.5-1.6s-1.9 1.1-.9 2.1c.8 1.1 2.4-.5 2.4-.5zm10.8-6.1l.6 1.1 2.2-.3-.6-1.3-2.2.5zm3.7-2.7l1.2 1.3 1.2-1.6-1.8-.8-.6 1.1zm-280.6-39.9h-.2.2zm413.4-10.9l-3.1-.5s-.3.5-1.2 2.1-2.2 1.1-.9 2.7c1.2 1.6 2.5 2.1 2.8.8s2.2-1.6 1.9-2.9c-.4-1.4.5-2.2.5-2.2zm6.8 51.6c1.2 0 .3 2.1 1.2 0l.9-2.1h1.6l1.9-.5-.9-1.9v-3.5l.6-.8v-1.1l-.3-1.1-1.2-2.1s-1.6 2.4-1.9 3.2c-.3.8-.3 2.9-.3 2.9l-1.2 1.6-1.9 2.9.3 1.1c0 .1 0 1.4 1.2 1.4zm5.3-58l-3.1 3.5v1.1l1.9-.5s.9-.8 1.9-1.9c.8-1.1-.7-2.2-.7-2.2zm-425.5 17.3c.5-.1.6-.1 0 0zM141 441.3s0 .2-.1.6c1.7.3.1-.6.1-.6zm-46.5-4l.6 1.3 1.9-.5 2.8-.5.6-1.9.6-1.9 1.6-1.6.9-.5 1.2-.5v1.1l-.3 1.6 1.2 1.3.9 1.3-.6 1.1s-.9 0-.6.8l.3.8s.9 1.6 1.9 1.9c.9.3 2.5.5 2.5.5s1.2-.5 2.5-.5c1.2 0 .6-.5 2.5.3l1.9.8s-1.5 1.1-3.4 1.1H107s-3.4.3.6 1.9.9 1.3.9 1.3l4.6.5.9.8 3.1 2.4h4s-.3.5 1.2-.8.9-1.9 3.1-1.6 2.2 0 3.4 0c1.2 0 4 0 6.2.5s1.5 1.6 2.2.5c.6-1.1.6-1.1 1.6-2.4.9-1.3.9-1.6 1.5-2.9.3-.6.4-1.1.5-1.5-.4-.1-1-.2-1.8-.4-4.3-1.1-4.6-1.9-4.6-1.9l-.9-2.9s-1.5-4.3-1.5-5.1v-3.2l.9-2.7s-.6-1.9-1.5-2.1c-.9-.3-2.5-.3-2.5-.3l-1.9 1.3s1.9 1.3.9 1.3c-.9 0-2.8.5-2.8.5l.3 4.3s-1.5-1.1-2.5-1.9l-.9-.8-2.8 2.1s.3-1.1-1.5-1.6c-1.9-.5-3.4-.5-3.4-.5l-.3-1.9s-.6-.8-1.5-.5-1.9-.8-1.9-.8l-3.4-4s-1.2-1.3-2.2-1.3c-.9 0-3.1.3-3.1.3l-3.1-1.3s.3.8-1.6.8-4.3.3-4.3.3v1.6s.3 1.3 0 2.1-.3 4-.3 4-.3 2.1-.9 2.9-.9 2.7-.9 2.7l1.9 1.9 1.8 2.4zm1.6-29.3l1.5 2.1 1.5-.3 1.9.3s2.8-1.9 3.4-3.2c.6-1.3.9-1.3.9-1.3v3.7c0 1.6-1.6 2.7-1.6 2.7h2.2s.9-3.7 1.9-5.1c.9-1.3 1.5-1.9 2.2-2.7.6-.8.3-2.9.3-2.9v-5.1s-2.5 2.4-4.6 2.4h-2.2l-2.2 2.1-.9 1.6-1.5 1.9s-.6 1.1-2.2 2.9c-1.6 2-.6.9-.6.9zm138 112.3c0-.3 0-.2 0 0s0 .2 0 0zM154.3 487l.3.6c-.2-.3-.3-.4-.3-.6zm56.6 28.5c-.4-.4-.3-.1-.1.4.2 0 .3-.1.1-.4zM154.3 487c-.2-.3-.3-.5-.3-.6 0 .1.1.3.3.6zm5.5 122.2s-1.2.8-1.2 1.6 1.9 1.6 1.9 1.6l.9.3 1.2-.8v-1.6l-1.2-.8-1.6-.3zm60.7 102s-.6 0-1.5 1.1 0 1.6 0 1.6l1.9.3 3.1-.3 1.5-1.9-2.5-1.1-2.5.3zm-40.2-266.5l2.2-.3v-.8l1.2-.8 1.2 1.6-2.2 1.6v2.7l1.2-1.9c1.9.5 5.9 1.6 5.9 1.6h-3.1l.3.8s.6 0 1.5.3 2.2.3 2.8 1.1l.6.8h-1.6l-1.5.3s-2.5-.8-2.8.5 0 3.5 0 3.5h2.8l.6-.8 1.2-1.1h2.5s.6-.5.9.5c.3 1.1 1.5 1.9 0 3.2-1.6 1.3-2.5 2.9-2.5 2.9l-.3 2.1s1.9.5-2.2 1.1c-4 .5-4.6.5-4.6 1.6s.3 3.5.3 3.5l-.9 2.1 3.1 1.1-.3-2.4s2.2-1.1 3.4-1.1c1.2 0 2.8 1.3 2.8 1.3s3.4 4 6.5 5.3 4.6 1.3 5.6 1.6c.9.3 3.4 1.1 3.4 1.1v-2.4l-.7-1.3-.5-.8 2.5 1.6 2.2-4.3s-.9-4-2.8-5.1-3.4-3.7-3.4-4.5v-.8l2.2 1.6s1.2 1.9 2.8 2.7l1.6.8 1.5-1.3s.9-1.3 2.5-2.4c1.6-1.1 0-4.8-1.5-5.6s-4.6-3.5-4.6-3.5l-1.9-1.3-3.2-2.1.6-1.1.3-1.6s-2.2-1.1-1.2-1.6c.9-.5 0-3.2 0-3.2l-3.1-2.9-1.9-.5s-1.2-.8-1.9-1.6c-.6-.8-2.5-2.1-2.5-2.1s-1.2-.5-2.2-1.1l-.9-.5-1.5-1.9-1.5-1.1c-1.9-1.1-1.9-2.4-1.9-2.4l-1.9-3.2-3.7-1.3s-.3-.3-1.5 0-3.4.5-3.4.5l-2.8-.5-1.2.3s-.9-.8-1.9-.8h-3.7s-2.8 2.7-3.7 3.5c-.9.8-1.9 1.6-1.9 2.9s-.6 5.6-.9 6.4.9 1.9.9 1.9l.6 1.9s0 .5 1.9 2.4 3.7 1.9 3.7 1.9 4.6-.3 6.2.5c1.5.8 2.5 2.7 2.5 2.7l1.9-1.3 1.9-.5z" fill="#4a5496"/><path d="M105.7 725.1c0-.8.7-1.5 1.5-1.5s1.5.7 1.5 1.5-.7 1.5-1.5 1.5c-.9 0-1.5-.7-1.5-1.5zm0-9c0-.8.7-1.5 1.5-1.5s1.5.7 1.5 1.5-.7 1.5-1.5 1.5c-.9 0-1.5-.7-1.5-1.5zm0-9c0-.8.7-1.5 1.5-1.5s1.5.7 1.5 1.5-.7 1.5-1.5 1.5c-.9 0-1.5-.7-1.5-1.5zm0-9c0-.8.7-1.5 1.5-1.5s1.5.7 1.5 1.5-.7 1.5-1.5 1.5c-.9 0-1.5-.7-1.5-1.5zm0-9c0-.8.7-1.5 1.5-1.5s1.5.7 1.5 1.5-.7 1.5-1.5 1.5c-.9 0-1.5-.7-1.5-1.5zm0-9c0-.8.7-1.5 1.5-1.5s1.5.7 1.5 1.5-.7 1.5-1.5 1.5c-.9 0-1.5-.7-1.5-1.5zm0-9c0-.8.7-1.5 1.5-1.5s1.5.7 1.5 1.5-.7 1.5-1.5 1.5c-.9 0-1.5-.7-1.5-1.5zm0-9c0-.8.7-1.5 1.5-1.5s1.5.7 1.5 1.5-.7 1.5-1.5 1.5c-.9 0-1.5-.7-1.5-1.5zm0-9c0-.8.7-1.5 1.5-1.5s1.5.7 1.5 1.5-.7 1.5-1.5 1.5c-.9 0-1.5-.7-1.5-1.5zm0-9c0-.8.7-1.5 1.5-1.5s1.5.7 1.5 1.5-.7 1.5-1.5 1.5c-.9 0-1.5-.7-1.5-1.5zm0-9c0-.8.7-1.5 1.5-1.5s1.5.7 1.5 1.5-.7 1.5-1.5 1.5c-.9 0-1.5-.7-1.5-1.5zm0-9c0-.8.7-1.5 1.5-1.5s1.5.7 1.5 1.5-.7 1.5-1.5 1.5c-.9 0-1.5-.7-1.5-1.5zm0-9c0-.8.7-1.5 1.5-1.5s1.5.7 1.5 1.5-.7 1.5-1.5 1.5c-.9 0-1.5-.7-1.5-1.5zm0-9c0-.8.7-1.5 1.5-1.5s1.5.7 1.5 1.5-.7 1.5-1.5 1.5c-.9 0-1.5-.7-1.5-1.5zm0-9c0-.8.7-1.5 1.5-1.5s1.5.7 1.5 1.5-.7 1.5-1.5 1.5c-.9 0-1.5-.7-1.5-1.5zm0-9c0-.8.7-1.5 1.5-1.5s1.5.7 1.5 1.5-.7 1.5-1.5 1.5c-.9 0-1.5-.7-1.5-1.5zm0-9c0-.8.7-1.5 1.5-1.5s1.5.7 1.5 1.5-.7 1.5-1.5 1.5c-.9 0-1.5-.7-1.5-1.5zm0-9c0-.8.7-1.5 1.5-1.5s1.5.7 1.5 1.5-.7 1.5-1.5 1.5c-.9 0-1.5-.7-1.5-1.5zm0-9c0-.8.7-1.5 1.5-1.5s1.5.7 1.5 1.5-.7 1.5-1.5 1.5c-.9 0-1.5-.7-1.5-1.5zm0-9c0-.8.7-1.5 1.5-1.5s1.5.7 1.5 1.5-.7 1.5-1.5 1.5c-.9 0-1.5-.7-1.5-1.5zm0-9c0-.8.7-1.5 1.5-1.5s1.5.7 1.5 1.5-.7 1.5-1.5 1.5c-.9 0-1.5-.7-1.5-1.5zm0-9c0-.8.7-1.5 1.5-1.5s1.5.7 1.5 1.5-.7 1.5-1.5 1.5c-.9 0-1.5-.7-1.5-1.5zm0-9c0-.8.7-1.5 1.5-1.5s1.5.7 1.5 1.5-.7 1.5-1.5 1.5c-.9 0-1.5-.7-1.5-1.5zm0-9c0-.8.7-1.5 1.5-1.5s1.5.7 1.5 1.5-.7 1.5-1.5 1.5c-.9 0-1.5-.7-1.5-1.5zm0-9c0-.8.7-1.5 1.5-1.5s1.5.7 1.5 1.5-.7 1.5-1.5 1.5c-.9 0-1.5-.7-1.5-1.5zm0-9c0-.8.7-1.5 1.5-1.5s1.5.7 1.5 1.5-.7 1.5-1.5 1.5c-.9 0-1.5-.7-1.5-1.5zm0-9c0-.8.7-1.5 1.5-1.5s1.5.7 1.5 1.5-.7 1.5-1.5 1.5c-.9 0-1.5-.7-1.5-1.5zm0-9c0-.8.7-1.5 1.5-1.5s1.5.7 1.5 1.5-.7 1.5-1.5 1.5c-.9 0-1.5-.7-1.5-1.5zm0-9c0-.8.7-1.5 1.5-1.5s1.5.7 1.5 1.5-.7 1.5-1.5 1.5c-.9 0-1.5-.7-1.5-1.5zm117.4 341.8c0-.8.7-1.5 1.5-1.5s1.5.7 1.5 1.5-.7 1.5-1.5 1.5-1.5-.7-1.5-1.5zm0-9c0-.8.7-1.5 1.5-1.5s1.5.7 1.5 1.5-.7 1.5-1.5 1.5-1.5-.7-1.5-1.5zm0-9c0-.8.7-1.5 1.5-1.5s1.5.7 1.5 1.5-.7 1.5-1.5 1.5-1.5-.7-1.5-1.5zm0-9c0-.8.7-1.5 1.5-1.5s1.5.7 1.5 1.5-.7 1.5-1.5 1.5-1.5-.7-1.5-1.5zm0-9c0-.8.7-1.5 1.5-1.5s1.5.7 1.5 1.5-.7 1.5-1.5 1.5-1.5-.7-1.5-1.5zm0-9c0-.8.7-1.5 1.5-1.5s1.5.7 1.5 1.5-.7 1.5-1.5 1.5-1.5-.7-1.5-1.5zm0-9c0-.8.7-1.5 1.5-1.5s1.5.7 1.5 1.5-.7 1.5-1.5 1.5-1.5-.7-1.5-1.5zm0-9c0-.8.7-1.5 1.5-1.5s1.5.7 1.5 1.5-.7 1.5-1.5 1.5-1.5-.7-1.5-1.5zm0-9c0-.8.7-1.5 1.5-1.5s1.5.7 1.5 1.5-.7 1.5-1.5 1.5-1.5-.7-1.5-1.5zm0-9c0-.8.7-1.5 1.5-1.5s1.5.7 1.5 1.5-.7 1.5-1.5 1.5-1.5-.7-1.5-1.5zm0-9c0-.8.7-1.5 1.5-1.5s1.5.7 1.5 1.5-.7 1.5-1.5 1.5-1.5-.7-1.5-1.5zm0-9c0-.8.7-1.5 1.5-1.5s1.5.7 1.5 1.5-.7 1.5-1.5 1.5-1.5-.7-1.5-1.5zm0-9c0-.8.7-1.5 1.5-1.5s1.5.7 1.5 1.5-.7 1.5-1.5 1.5-1.5-.7-1.5-1.5zm0-9c0-.8.7-1.5 1.5-1.5s1.5.7 1.5 1.5-.7 1.5-1.5 1.5-1.5-.7-1.5-1.5zm0-9c0-.8.7-1.5 1.5-1.5s1.5.7 1.5 1.5-.7 1.5-1.5 1.5-1.5-.7-1.5-1.5zm0-9c0-.8.7-1.5 1.5-1.5s1.5.7 1.5 1.5-.7 1.5-1.5 1.5-1.5-.7-1.5-1.5zm0-9c0-.8.7-1.5 1.5-1.5s1.5.7 1.5 1.5-.7 1.5-1.5 1.5-1.5-.7-1.5-1.5zm0-9c0-.8.7-1.5 1.5-1.5s1.5.7 1.5 1.5-.7 1.5-1.5 1.5-1.5-.7-1.5-1.5zm0-9c0-.8.7-1.5 1.5-1.5s1.5.7 1.5 1.5-.7 1.5-1.5 1.5-1.5-.7-1.5-1.5zm0-9c0-.8.7-1.5 1.5-1.5s1.5.7 1.5 1.5-.7 1.5-1.5 1.5-1.5-.7-1.5-1.5zm133.3 78.2c0-.8.7-1.5 1.5-1.5s1.5.7 1.5 1.5-.7 1.5-1.5 1.5-1.5-.7-1.5-1.5zm0-9c0-.8.7-1.5 1.5-1.5s1.5.7 1.5 1.5-.7 1.5-1.5 1.5-1.5-.7-1.5-1.5zm0-9c0-.8.7-1.5 1.5-1.5s1.5.7 1.5 1.5-.7 1.5-1.5 1.5-1.5-.7-1.5-1.5zm0-9c0-.8.7-1.5 1.5-1.5s1.5.7 1.5 1.5-.7 1.5-1.5 1.5-1.5-.7-1.5-1.5zm0-9c0-.8.7-1.5 1.5-1.5s1.5.7 1.5 1.5-.7 1.5-1.5 1.5-1.5-.7-1.5-1.5zm0-9c0-.8.7-1.5 1.5-1.5s1.5.7 1.5 1.5-.7 1.5-1.5 1.5-1.5-.7-1.5-1.5zm0-9c0-.8.7-1.5 1.5-1.5s1.5.7 1.5 1.5-.7 1.5-1.5 1.5-1.5-.7-1.5-1.5zm0-9c0-.8.7-1.5 1.5-1.5s1.5.7 1.5 1.5-.7 1.5-1.5 1.5-1.5-.7-1.5-1.5zm0-9c0-.8.7-1.5 1.5-1.5s1.5.7 1.5 1.5-.7 1.5-1.5 1.5-1.5-.7-1.5-1.5zm0-9c0-.8.7-1.5 1.5-1.5s1.5.7 1.5 1.5-.7 1.5-1.5 1.5-1.5-.7-1.5-1.5zm0-9c0-.8.7-1.5 1.5-1.5s1.5.7 1.5 1.5-.7 1.5-1.5 1.5-1.5-.7-1.5-1.5zm0-9c0-.8.7-1.5 1.5-1.5s1.5.7 1.5 1.5-.7 1.5-1.5 1.5-1.5-.7-1.5-1.5zm0-9c0-.8.7-1.5 1.5-1.5s1.5.7 1.5 1.5-.7 1.5-1.5 1.5-1.5-.7-1.5-1.5zm0-9c0-.8.7-1.5 1.5-1.5s1.5.7 1.5 1.5-.7 1.5-1.5 1.5-1.5-.7-1.5-1.5zm0-9c0-.8.7-1.5 1.5-1.5s1.5.7 1.5 1.5-.7 1.5-1.5 1.5-1.5-.7-1.5-1.5zm0-9c0-.8.7-1.5 1.5-1.5s1.5.7 1.5 1.5-.7 1.5-1.5 1.5-1.5-.7-1.5-1.5zm0-9c0-.8.7-1.5 1.5-1.5s1.5.7 1.5 1.5-.7 1.5-1.5 1.5-1.5-.7-1.5-1.5zm0-9c0-.8.7-1.5 1.5-1.5s1.5.7 1.5 1.5-.7 1.5-1.5 1.5-1.5-.7-1.5-1.5zm0-9c0-.8.7-1.5 1.5-1.5s1.5.7 1.5 1.5-.7 1.5-1.5 1.5-1.5-.7-1.5-1.5zm0-9c0-.8.7-1.5 1.5-1.5s1.5.7 1.5 1.5-.7 1.5-1.5 1.5-1.5-.7-1.5-1.5zm0-9c0-.8.7-1.5 1.5-1.5s1.5.7 1.5 1.5-.7 1.5-1.5 1.5-1.5-.7-1.5-1.5zm0-9c0-.8.7-1.5 1.5-1.5s1.5.7 1.5 1.5-.7 1.5-1.5 1.5-1.5-.7-1.5-1.5zm0-9c0-.8.7-1.5 1.5-1.5s1.5.7 1.5 1.5-.7 1.5-1.5 1.5-1.5-.7-1.5-1.5zM396 756.7c0-.8.7-1.5 1.5-1.5s1.5.7 1.5 1.5-.7 1.5-1.5 1.5-1.5-.7-1.5-1.5zm0-9c0-.8.7-1.5 1.5-1.5s1.5.7 1.5 1.5-.7 1.5-1.5 1.5-1.5-.7-1.5-1.5zm0-9c0-.8.7-1.5 1.5-1.5s1.5.7 1.5 1.5-.7 1.5-1.5 1.5-1.5-.7-1.5-1.5zm0-9c0-.8.7-1.5 1.5-1.5s1.5.7 1.5 1.5-.7 1.5-1.5 1.5-1.5-.7-1.5-1.5zm0-9c0-.8.7-1.5 1.5-1.5s1.5.7 1.5 1.5-.7 1.5-1.5 1.5-1.5-.7-1.5-1.5zm0-9c0-.8.7-1.5 1.5-1.5s1.5.7 1.5 1.5-.7 1.5-1.5 1.5-1.5-.7-1.5-1.5zm0-9c0-.8.7-1.5 1.5-1.5s1.5.7 1.5 1.5-.7 1.5-1.5 1.5-1.5-.7-1.5-1.5zm0-9c0-.8.7-1.5 1.5-1.5s1.5.7 1.5 1.5-.7 1.5-1.5 1.5-1.5-.7-1.5-1.5zm0-9c0-.8.7-1.5 1.5-1.5s1.5.7 1.5 1.5-.7 1.5-1.5 1.5-1.5-.7-1.5-1.5zm0-9c0-.8.7-1.5 1.5-1.5s1.5.7 1.5 1.5-.7 1.5-1.5 1.5-1.5-.7-1.5-1.5zm0-9c0-.8.7-1.5 1.5-1.5s1.5.7 1.5 1.5-.7 1.5-1.5 1.5-1.5-.7-1.5-1.5zm0-9c0-.8.7-1.5 1.5-1.5s1.5.7 1.5 1.5-.7 1.5-1.5 1.5-1.5-.7-1.5-1.5zm0-9c0-.8.7-1.5 1.5-1.5s1.5.7 1.5 1.5-.7 1.5-1.5 1.5-1.5-.7-1.5-1.5zm0-9c0-.8.7-1.5 1.5-1.5s1.5.7 1.5 1.5-.7 1.5-1.5 1.5-1.5-.7-1.5-1.5zm135.4 121.7c0-.8.7-1.5 1.5-1.5s1.5.7 1.5 1.5-.7 1.5-1.5 1.5-1.5-.6-1.5-1.5zm0-9c0-.8.7-1.5 1.5-1.5s1.5.7 1.5 1.5-.7 1.5-1.5 1.5-1.5-.6-1.5-1.5zm0-9c0-.8.7-1.5 1.5-1.5s1.5.7 1.5 1.5-.7 1.5-1.5 1.5-1.5-.6-1.5-1.5zm0-9c0-.8.7-1.5 1.5-1.5s1.5.7 1.5 1.5-.7 1.5-1.5 1.5-1.5-.6-1.5-1.5zm0-9c0-.8.7-1.5 1.5-1.5s1.5.7 1.5 1.5-.7 1.5-1.5 1.5-1.5-.6-1.5-1.5zm0-9c0-.8.7-1.5 1.5-1.5s1.5.7 1.5 1.5-.7 1.5-1.5 1.5-1.5-.6-1.5-1.5zm0-9c0-.8.7-1.5 1.5-1.5s1.5.7 1.5 1.5-.7 1.5-1.5 1.5-1.5-.6-1.5-1.5zm0-9c0-.8.7-1.5 1.5-1.5s1.5.7 1.5 1.5-.7 1.5-1.5 1.5-1.5-.6-1.5-1.5zm0-9c0-.8.7-1.5 1.5-1.5s1.5.7 1.5 1.5-.7 1.5-1.5 1.5-1.5-.6-1.5-1.5zm0-9c0-.8.7-1.5 1.5-1.5s1.5.7 1.5 1.5-.7 1.5-1.5 1.5-1.5-.6-1.5-1.5zm0-9c0-.8.7-1.5 1.5-1.5s1.5.7 1.5 1.5-.7 1.5-1.5 1.5-1.5-.6-1.5-1.5zm0-9c0-.8.7-1.5 1.5-1.5s1.5.7 1.5 1.5-.7 1.5-1.5 1.5-1.5-.6-1.5-1.5zm0-9c0-.8.7-1.5 1.5-1.5s1.5.7 1.5 1.5-.7 1.5-1.5 1.5-1.5-.6-1.5-1.5zm0-9c0-.8.7-1.5 1.5-1.5s1.5.7 1.5 1.5-.7 1.5-1.5 1.5-1.5-.6-1.5-1.5zm0-9c0-.8.7-1.5 1.5-1.5s1.5.7 1.5 1.5-.7 1.5-1.5 1.5-1.5-.6-1.5-1.5zm0-9c0-.8.7-1.5 1.5-1.5s1.5.7 1.5 1.5-.7 1.5-1.5 1.5-1.5-.6-1.5-1.5zm0-9c0-.8.7-1.5 1.5-1.5s1.5.7 1.5 1.5-.7 1.5-1.5 1.5-1.5-.6-1.5-1.5zm0-9c0-.8.7-1.5 1.5-1.5s1.5.7 1.5 1.5-.7 1.5-1.5 1.5-1.5-.6-1.5-1.5zm0-9c0-.8.7-1.5 1.5-1.5s1.5.7 1.5 1.5-.7 1.5-1.5 1.5-1.5-.6-1.5-1.5zm0-9c0-.8.7-1.5 1.5-1.5s1.5.7 1.5 1.5-.7 1.5-1.5 1.5-1.5-.6-1.5-1.5zm0-9c0-.8.7-1.5 1.5-1.5s1.5.7 1.5 1.5-.7 1.5-1.5 1.5-1.5-.6-1.5-1.5zm0-9c0-.8.7-1.5 1.5-1.5s1.5.7 1.5 1.5-.7 1.5-1.5 1.5-1.5-.6-1.5-1.5zm0-9c0-.8.7-1.5 1.5-1.5s1.5.7 1.5 1.5-.7 1.5-1.5 1.5-1.5-.6-1.5-1.5zm0-9c0-.8.7-1.5 1.5-1.5s1.5.7 1.5 1.5-.7 1.5-1.5 1.5-1.5-.6-1.5-1.5zm0-9c0-.8.7-1.5 1.5-1.5s1.5.7 1.5 1.5-.7 1.5-1.5 1.5-1.5-.6-1.5-1.5zm0-9c0-.8.7-1.5 1.5-1.5s1.5.7 1.5 1.5-.7 1.5-1.5 1.5-1.5-.6-1.5-1.5zm0-9c0-.8.7-1.5 1.5-1.5s1.5.7 1.5 1.5-.7 1.5-1.5 1.5-1.5-.6-1.5-1.5zm0-9c0-.8.7-1.5 1.5-1.5s1.5.7 1.5 1.5-.7 1.5-1.5 1.5-1.5-.6-1.5-1.5zm0-9c0-.8.7-1.5 1.5-1.5s1.5.7 1.5 1.5-.7 1.5-1.5 1.5-1.5-.6-1.5-1.5zm0-9c0-.8.7-1.5 1.5-1.5s1.5.7 1.5 1.5-.7 1.5-1.5 1.5-1.5-.6-1.5-1.5zm0-9c0-.8.7-1.5 1.5-1.5s1.5.7 1.5 1.5-.7 1.5-1.5 1.5-1.5-.6-1.5-1.5zm0-9c0-.8.7-1.5 1.5-1.5s1.5.7 1.5 1.5-.7 1.5-1.5 1.5-1.5-.6-1.5-1.5zM518.8 261s1.8 2.2 4.7 2.2c2 0 3.6-1.3 3.6-3.2 0-4.5-9-3.6-9-9.2 0-2.5 2.2-4.7 5.6-4.7 1.8 0 4.9.7 4.9 3.1v1.3h-1.7v-.9c0-1.1-1.5-1.9-3.2-1.9-2.4 0-3.7 1.4-3.7 2.9 0 4.2 9 3.2 9 9.2 0 2.7-2.1 5-5.5 5-3.7 0-5.8-2.6-5.8-2.6l1.1-1.2zm11 2h.3c.5 0 .7-.1.9-.6l5.9-16h1.9l5.9 16c.2.5.4.6.9.6h.3v1.6h-.8c-1.3 0-1.7-.3-2.1-1.5l-1.6-4.3h-7.2l-1.6 4.3c-.5 1.2-.8 1.5-2.1 1.5h-.9V263h.2zm11.3-5.7l-2.4-6.5c-.3-.9-.7-2.4-.7-2.4s-.4 1.5-.7 2.4l-2.4 6.5h6.2zm6.9 5.7h1.1c.4 0 .6-.2.6-.6v-16h1.7l9.3 12.9c.6.9 1.5 2.4 1.5 2.4h.1s-.1-1.4-.1-2.4V248c0-1.1.5-1.6 1.6-1.6h1.9v1.6h-1.1c-.4 0-.6.2-.6.6v16h-1.7l-9.3-12.9c-.6-.9-1.5-2.4-1.5-2.4h-.1s.2 1.4.2 2.4v11.4c0 1.1-.5 1.6-1.6 1.6h-2V263zm21.3-14.9h-1.7v-1.6h7.7c3.2 0 5.6 2.1 5.6 5.5s-2.4 5.6-5.6 5.6h-4.2v7.1h-1.8v-16.6zm5.8 7.8c2.4 0 4-1.5 4-4s-1.6-3.9-4-3.9h-4v7.8h4v.1zm8.8-7.8h-1.7v-1.6h10.4c1.1 0 1.6.5 1.6 1.6v1.8h-1.7v-1.2c0-.4-.2-.6-.6-.6h-6.2v6.6h6.8v1.6h-6.8v6.2c0 .4.2.6.6.6h6.4c.4 0 .6-.2.6-.6v-1.2h1.7v1.8c0 1.1-.5 1.6-1.6 1.6h-7.9c-1.1 0-1.6-.5-1.6-1.6v-15zm13.8.5c0-.4-.2-.6-.6-.6H596v-1.6h1.9c1.1 0 1.6.5 1.6 1.6v14.4c0 .4.2.6.6.6h6c.4 0 .6-.2.6-.6v-1.2h1.7v1.8c0 1.1-.5 1.6-1.6 1.6h-7.5c-1.1 0-1.6-.5-1.6-1.6v-14.4zm12.7 0c0-.4-.2-.6-.6-.6h-1.1v-1.6h1.9c1.1 0 1.6.5 1.6 1.6v14.4c0 .4.2.6.6.6h6c.4 0 .6-.2.6-.6v-1.2h1.7v1.8c0 1.1-.5 1.6-1.6 1.6H612c-1.1 0-1.6-.5-1.6-1.6v-14.4zm11.6-.5h-1.7v-1.6h10.4c1.1 0 1.6.5 1.6 1.6v1.8h-1.7v-1.2c0-.4-.2-.6-.6-.6h-6.2v6.6h6.8v1.6h-6.8v6.2c0 .4.2.6.6.6h6.4c.4 0 .6-.2.6-.6v-1.2h1.7v1.8c0 1.1-.5 1.6-1.6 1.6h-7.9c-1.1 0-1.6-.5-1.6-1.6v-15zm22.3-1.9c4.2 0 6.4 2.2 6.4 2.2l-1.1 1.3s-2-1.9-5.3-1.9c-4.1 0-7.2 3.3-7.2 7.7 0 4.5 3.1 7.7 7.2 7.7 3.6 0 5.7-2.7 5.7-2.7v-2.2c0-.4-.2-.6-.6-.6h-1.1v-1.6h1.8c1.1 0 1.6.5 1.6 1.6v6.9H650v-2.2s-2.1 2.5-5.9 2.5c-5 0-8.9-4-8.9-9.4 0-5.2 3.9-9.3 9.1-9.3zm9.6 1.9h-1.7v-1.6h7.7c3.1 0 5.2 2 5.2 5.2 0 2.8-1.7 4.5-3.5 4.9v.1s.4.2.6.7l2.6 5.2c.3.5.6.6 1.3.6h.4v1.6h-.8c-1.5 0-1.9-.2-2.5-1.4l-2.6-5.2c-.5-1-.8-1.1-1.8-1.1h-3.1v7.7h-1.8v-16.7zm5.8 7.3c2.2 0 3.5-1.4 3.5-3.7 0-2.2-1.3-3.6-3.5-3.6h-4.1v7.3h4.1zm8.4 7.6h1.7v-15h-1.7v-1.6h5.2v1.6h-1.7v15h1.7v1.6h-5.2V263zm7.3 0h1.1c.4 0 .6-.2.6-.6v-16h1.7l9.3 12.9c.6.9 1.5 2.4 1.5 2.4h.1s-.1-1.4-.1-2.4V248c0-1.1.5-1.6 1.6-1.6h1.9v1.6H692c-.4 0-.6.2-.6.6v16h-1.7l-9.3-12.9c-.6-.9-1.5-2.4-1.5-2.4h-.1s.2 1.4.2 2.4v11.4c0 1.1-.5 1.6-1.6 1.6h-1.9V263h-.1zm28.2-16.8c5.1 0 9.3 4.1 9.3 9.3 0 5.3-4.1 9.5-9.3 9.5s-9.3-4.2-9.3-9.5c.1-5.3 4.2-9.3 9.3-9.3zm0 17c4.1 0 7.4-3.4 7.4-7.8 0-4.3-3.3-7.6-7.4-7.6-4.1 0-7.4 3.3-7.4 7.6.1 4.4 3.4 7.8 7.4 7.8zm-164.3 26.3h1.1c.4 0 .6-.2.6-.6v-16h1.7l9.3 12.9c.6.9 1.5 2.4 1.5 2.4h.1s-.1-1.4-.1-2.4v-11.4c0-1.1.5-1.6 1.6-1.6h1.9v1.6h-1.1c-.4 0-.6.2-.6.6v16h-1.7l-9.3-12.9c-.6-.9-1.5-2.4-1.5-2.4h-.1s.2 1.4.2 2.4v11.4c0 1.1-.5 1.6-1.6 1.6h-1.9v-1.6h-.1zm22.6-14.9h-1.7V273h10.4c1.1 0 1.6.5 1.6 1.6v1.8h-1.7v-1.2c0-.4-.2-.6-.6-.6h-6.2v6.6h6.8v1.6h-6.8v6.2c0 .4.2.6.6.6h6.4c.4 0 .6-.2.6-.6v-1.2h1.7v1.8c0 1.1-.5 1.6-1.6 1.6h-7.9c-1.1 0-1.6-.5-1.6-1.6v-15zm12.6.5c0-.4-.2-.6-.6-.6h-1.1V273h1.9c1.1 0 1.6.5 1.6 1.6V289c0 .4.2.6.6.6h6c.4 0 .6-.2.6-.6v-1.2h1.7v1.8c0 1.1-.5 1.6-1.6 1.6h-7.5c-1.1 0-1.6-.5-1.6-1.6v-14.5zm18.9 14.4h1c.4 0 .5-.2.6-.6l1.3-16h1.8l4.8 10.6c.4.9.9 2.1.9 2.1h.1s.5-1.2.9-2.1l4.8-10.6h1.8l1.3 16c0 .4.2.6.6.6h1v1.6h-1.8c-1.1 0-1.5-.5-1.6-1.6l-.9-11c-.1-1-.1-2.5-.1-2.5h-.1s-.5 1.6-.9 2.5l-4.3 9.2H603l-4.3-9.2c-.4-.9-1-2.6-1-2.6h-.1s0 1.6-.1 2.6l-.9 11c-.1 1.1-.5 1.6-1.6 1.6h-1.7l.1-1.6zm30.8-16.9c5.1 0 9.3 4.1 9.3 9.3 0 5.3-4.1 9.5-9.3 9.5s-9.3-4.2-9.3-9.5c0-5.2 4.1-9.3 9.3-9.3zm0 17.1c4.1 0 7.4-3.4 7.4-7.8 0-4.3-3.3-7.6-7.4-7.6-4.1 0-7.4 3.3-7.4 7.6 0 4.4 3.3 7.8 7.4 7.8zm10.5-.2h1.1c.4 0 .6-.2.6-.6v-16h1.7l9.3 12.9c.6.9 1.5 2.4 1.5 2.4h.1s-.1-1.4-.1-2.4v-11.4c0-1.1.5-1.6 1.6-1.6h1.9v1.6h-1.1c-.4 0-.6.2-.6.6v16H649l-9.3-12.9c-.6-.9-1.5-2.4-1.5-2.4h-.2s.2 1.4.2 2.4v11.4c0 1.1-.5 1.6-1.6 1.6h-1.9v-1.6zm22-14.9H655V273h7.3c5.5 0 9.1 3.3 9.1 9.1s-3.6 9.1-9.1 9.1h-4c-1.1 0-1.6-.5-1.6-1.6v-15zm2.4 14.9h3.1c4.5 0 7.4-2.6 7.4-7.5 0-4.8-3-7.5-7.4-7.5h-3.6V289c-.1.3.1.5.5.5zm23.8-16.9c5.1 0 9.3 4.1 9.3 9.3 0 5.3-4.1 9.5-9.3 9.5s-9.3-4.2-9.3-9.5c0-5.2 4.1-9.3 9.3-9.3zm0 17.1c4.1 0 7.4-3.4 7.4-7.8 0-4.3-3.3-7.6-7.4-7.6-4.1 0-7.4 3.3-7.4 7.6 0 4.4 3.3 7.8 7.4 7.8z" fill="#ff322b"/><path d="M90.3 137.9c0-3.5-2.6-6.2-6.8-6.2-3.3 0-5.9 1.7-5.9 3.6v1.6h-3.1v-2.5c0-4.2 5.7-5.8 9.1-5.8 6.3 0 10.1 4.2 10.1 9.3 0 11.7-17.5 11.4-17.5 20.6 0 .7.4.9 1.1.9h13.9c.7 0 1-.3 1-1v-2.2h3.1v3.3c0 2-.8 2.9-2.9 2.9H75.8c-2.3 0-3-.9-3-3.3 0-12.4 17.5-11.4 17.5-21.2zm9.6 7.8c0-9.5 2.8-17.1 11.4-17.1s11.5 7.6 11.5 17.1c0 9.6-2.8 17.2-11.5 17.2-8.6 0-11.4-7.6-11.4-17.2zm19.5 0c0-7.9-1.8-14.1-8.1-14.1s-8.1 6.2-8.1 14.1c0 7.9 1.8 14.1 8.1 14.1s8.1-6.2 8.1-14.1zm8.5 13.7h7.4v-26.2h-.1s-.3.7-1.7 2l-3.5 3.5-2.1-2.1 7.5-7.5h3.1v30.2h7.3v2.9h-18v-2.8h.1zm37.1-24.3c.9-1.8 1.8-3.1 1.8-3.1s-.8.1-2.5.1h-11.9c-.7 0-1 .3-1 1v2.2h-3.1V132c0-2 .8-2.9 2.8-2.9h19.6v2.3l-16.4 30.9h-3.7l14.4-27.2z" fill="#00245b"/><path d="M19.3 209.3l.6 1.1-1 .5-3.3-6.3c-.4-.7-.2-1.2.5-1.5l1.2-.6.6 1.1-.8.4c-.3.1-.3.3-.2.6l1.9 3.6 4.5-2.3-2.2-4.3 1-.5 2.2 4.3 5.3-2.8.6 1.2-10.9 5.5zm6-12.2l-.1-.2c-.1-.3-.3-.5-.6-.5l-12.5.2-.5-1.3 9.4-8.4c.3-.3.3-.5.1-.8l-.1-.2 1.1-.4.2.6c.3.9.3 1.2-.5 1.9l-2.5 2.2 1.9 4.9 3.4-.1c1 0 1.2.2 1.6 1l.2.6-1.1.5zm-6.9-6.2l-3.8 3.4c-.5.4-1.4 1.1-1.4 1.1s1.1-.1 1.8-.2l5.1-.1-1.7-4.2zM9 183.8l.9 3.2c.1.3.2.4.5.3l.9-.2.3 1.2-1.4.4c-.8.2-1.1 0-1.3-.8l-2.4-8.7c-.2-.8 0-1.1.8-1.3l1.4-.4.3 1.2-.9.2c-.3.1-.4.2-.3.5l.9 3.2 11.8-3.2.3 1.3L9 183.8zm-3-14.1l.5 3.3c0 .3.2.4.5.4l.9-.1.2 1.2-1.4.2c-.8.1-1.1-.1-1.2-.9l-1.3-9c-.1-.8.1-1.1.9-1.2l1.4-.2.2 1.2-.9.1c-.3 0-.4.2-.4.5l.5 3.3 12.1-1.7.2 1.3L6 169.7zm-.8-11c-.3 0-.4.2-.4.4v.8H3.6v-1.4c0-.8.3-1.2 1.1-1.2l7.6-.1c2.2 0 3.6-1.5 3.6-3.6s-1.4-3.6-3.7-3.6l-7.5.1c-.8 0-1.2-.3-1.2-1.1v-1.4h1.2v.8c0 .3.1.4.4.4l7.2-.1c2.9 0 4.8 1.9 4.9 4.8 0 2.9-1.8 5-4.7 5l-7.3.2zM5 142.3l-.1 1.2-1.2-.1.6-5.6c.2-2.2 1.9-3.7 4.2-3.4 2.1.2 3.1 1.6 3.3 3 0 0 .2-.2.6-.4l4-1.5c.4-.1.5-.4.5-.9v-.3l1.2.1-.1.6c-.1 1.1-.3 1.4-1.2 1.7l-4 1.5c-.7.3-.9.5-.9 1.3l-.2 2.2 5.6.6-.1 1.3L5 142.3zm5.9-3.7c.2-1.6-.8-2.7-2.4-2.9s-2.8.7-2.9 2.3l-.3 3 5.3.6.3-3zm6.4-6.2l.1-.2c.1-.3.1-.5-.2-.8l-10.4-7 .3-1.4 12.5-1.5c.4 0 .5-.2.6-.6l.1-.2 1.1.3-.1.6c-.2.9-.5 1.2-1.4 1.3l-3.3.4-1.2 5.2 2.8 1.9c.8.5.9.8.7 1.8l-.1.6-1.5-.4zm-2.2-9l-5 .6c-.7.1-1.8.1-1.8.1s1 .5 1.6.9l4.2 2.8 1-4.4zm-3.6-11.2l-1.1 3.1c-.1.2 0 .4.3.5l.8.3-.4 1.1-1.3-.5c-.8-.3-.9-.6-.7-1.4l3.1-8.5c.3-.8.6-.9 1.4-.7l1.3.5-.4 1.2-.8-.3c-.3-.1-.4 0-.5.3l-1.1 3.1 11.5 4.1-.4 1.3-11.7-4.1zm5.3-15.7c1.7-3.4 5.8-4.7 9.2-2.9 3.5 1.8 4.8 5.9 3.1 9.3-1.7 3.4-5.9 4.6-9.3 2.8-3.5-1.8-4.8-5.8-3-9.2zm11.1 5.8c1.4-2.6.3-6-2.6-7.4-2.8-1.4-6.1-.4-7.4 2.3-1.4 2.7-.3 5.9 2.5 7.4 2.8 1.3 6.1.3 7.5-2.3zm.4-21.7l-.8 1-.9-.7 3.5-4.4c1.4-1.8 3.5-2.1 5.4-.6 1.6 1.3 1.8 3 1.2 4.2 0 0 .3-.1.7 0l4.2.9c.4.1.6-.1.9-.5l.2-.2.9.7-.4.5c-.7.8-1 1-1.9.8l-4.2-.9c-.8-.2-1 0-1.5.6l-1.4 1.8 4.4 3.5-.8 1-9.5-7.7zm6.9 0c1-1.2.8-2.7-.5-3.7s-2.7-.9-3.7.4l-1.9 2.3 4.2 3.3 1.9-2.3zm2.1-10.7l-.9.9-.8-.8 5.4-5.4c.6-.6 1.1-.6 1.6 0l.9.9-.9.9-.6-.6c-.2-.2-.4-.2-.6 0L38.2 69l3.4 3.4 3.5-3.5.8.8-3.5 3.5 3.2 3.2c.2.2.4.2.6 0l3.3-3.3c.2-.2.2-.4 0-.6l-.6-.6.9-.9.9.9c.6.6.6 1.1 0 1.6l-4.1 4.1c-.6.6-1.1.6-1.6 0l-7.7-7.7zm15 .6l.2-.2c.3-.2.4-.4.3-.8l-3.9-11.9 1.1-.9 10.7 6.5c.3.2.5.1.8-.1l.2-.1.7.9-.5.4c-.7.6-1.1.6-1.9.1l-2.9-1.8L53 66l1 3.2c.3.9.2 1.2-.5 1.8l-.5.4-.7-.9zm3.9-8.4l-4.3-2.6-1.5-1s.5 1 .7 1.7l1.6 4.8 3.5-2.9zm3-9.9c-.1-.2-.3-.3-.6-.1l-.7.4-.6-1 1.2-.7c.7-.4 1.2-.3 1.6.4l5.6 9c.1.2.3.3.6.1l3.8-2.3c.2-.1.3-.3.1-.6l-.5-.8 1.1-.7.7 1.1c.4.7.3 1.2-.4 1.6l-4.7 2.9c-.7.4-1.2.3-1.6-.4l-5.6-8.9zM73.6 56l1.1-.6-5-9.8-1.1.6-.5-1.1 3.4-1.7.5 1.1-1.1.6 5 9.8 1.1-.6.5 1.1-3.4 1.7-.5-1.1zm5.8-2.7l2.9-12c.2-.8.5-1.5.5-1.5s-.3.2-.9.4l-4.9 2c-.2.1-.3.3-.2.5l.3.8-1.1.5-.5-1.2c-.3-.8-.1-1.2.6-1.5l7.8-3.1.3.9-2.9 12c-.2.8-.5 1.5-.5 1.5s.3-.2.9-.4l5.3-2.1c.2-.1.3-.3.2-.5l-.3-.8 1.1-.5.5 1.2c.3.8.1 1.2-.6 1.5l-8.2 3.3-.3-1zm11.3-4.4L95 37.3c.3-.8.6-1.4.6-1.4l-.9.3-5.1 1.4c-.3.1-.4.2-.3.5l.2.9-1.2.3L88 38c-.2-.8 0-1.2.8-1.4l8.1-2.2.2.9-4.3 11.6c-.3.8-.6 1.4-.6 1.4l.9-.3 5.6-1.5c.3-.1.4-.2.3-.5l-.2-.9 1.2-.3.3 1.3c.2.8 0 1.2-.8 1.4l-8.6 2.3-.2-.9zm11.7-3.3h.2c.3 0 .5-.1.6-.5l2.6-12.3 1.4-.2 6 11c.2.3.4.4.7.3h.2l.2 1.2-.6.1c-.9.1-1.2 0-1.7-.9l-1.6-3-5.2.8-.7 3.3c-.2 1-.4 1.2-1.4 1.3l-.6.1-.1-1.2zm7.6-5.4l-2.4-4.5-.8-1.6s-.1 1.1-.3 1.8l-1 5 4.5-.7zm9-7.6l-3.3.1c-.3 0-.4.1-.4.4v.9h-1.2l-.1-1.4c0-.8.2-1.1 1-1.1l9-.3c.8 0 1.1.2 1.1 1l.1 1.4H124v-.9c0-.3-.1-.4-.4-.4l-3.3.1.5 12.2h-1.3l-.5-12zm16.5-1c3.8.3 6.5 3.6 6.1 7.4-.4 3.9-3.7 6.7-7.4 6.3-3.8-.4-6.5-3.7-6.1-7.6.3-3.7 3.6-6.4 7.4-6.1zm-1.2 12.6c3 .3 5.6-2 5.9-5.2.3-3.1-1.9-5.8-4.9-6-3-.3-5.6 1.9-5.9 5-.3 3.2 1.9 5.9 4.9 6.2z" fill="#ff322b"/><path d="M260.6 127c0-.3-.2-.5-.5-.5h-1v-1.4h1.7c1 0 1.5.4 1.5 1.3v1.4c.6-1.6 2.5-3 4.3-3 2.2 0 3.4 1 3.7 3 .6-1.6 2.4-3 4.4-3 2.9 0 4 1.7 4 4.6v5.7c0 .4.2.5.5.5h1v1.4h-1.7c-1 0-1.5-.4-1.5-1.5v-5.8c0-2-.4-3.6-2.6-3.6-1.8 0-3.3 1.6-3.8 3.4-.2.5-.2 1.1-.2 1.7v5.7h-1.6v-7.2c0-1.8-.3-3.6-2.5-3.6-2 0-3.4 1.7-3.9 3.5-.1.5-.2 1-.2 1.6v5.7h-1.6V127zm22.3 0c0-.3-.2-.5-.5-.5h-1v-1.4h1.7c1 0 1.5.4 1.5 1.5v8.6c0 .4.2.5.5.5h1v1.4h-1.7c-1 0-1.5-.4-1.5-1.5V127zm-.1-6.7h1.6v2h-1.6v-2zm5.9 1.9c0-.3-.2-.5-.5-.5h-1v-1.4h1.7c1 0 1.5.4 1.5 1.5v13.3c0 .4.2.5.5.5h1v1.4h-1.7c-1 0-1.5-.4-1.5-1.5v-13.3zm6 4.8c0-.3-.2-.5-.5-.5h-1v-1.4h1.7c1 0 1.5.4 1.5 1.5v8.6c0 .4.2.5.5.5h1v1.4h-1.7c-1 0-1.5-.4-1.5-1.5V127zm-.1-6.7h1.6v2h-1.6v-2zm11.1 4.5c3.5 0 6.3 2.7 6.3 6.2 0 3.6-2.8 6.3-6.3 6.3s-6.3-2.7-6.3-6.3 2.8-6.2 6.3-6.2zm0 11.1c2.5 0 4.6-2.1 4.6-4.9 0-2.7-2.1-4.7-4.6-4.7-2.6 0-4.7 2-4.7 4.7.1 2.8 2.2 4.9 4.7 4.9zm9.3-8.9c0-.3-.2-.5-.5-.5h-1v-1.4h1.7c1 0 1.5.4 1.5 1.3v1.4c.4-1.1 2-3 4.8-3 3 0 4 1.7 4 4.6v5.7c0 .4.2.5.5.5h1v1.4h-1.7c-1 0-1.5-.4-1.5-1.5v-5.7c0-1.9-.3-3.5-2.6-3.5-2 0-3.8 1.4-4.4 3.4-.1.5-.2 1-.2 1.6v5.7H315v-10zm14.6 0c0-.3-.2-.5-.5-.5h-1v-1.4h1.7c1 0 1.5.4 1.5 1.5v8.6c0 .4.2.5.5.5h1v1.4h-1.7c-1 0-1.5-.4-1.5-1.5V127zm0-6.7h1.6v2h-1.6v-2zm16.7 4.5c2.9 0 3.9 2.2 3.9 2.2v-4.8c0-.3-.2-.5-.5-.5h-1v-1.4h1.7c1 0 1.5.4 1.5 1.5v13.3c0 .4.2.5.5.5h1v1.4h-1.7c-1 0-1.4-.5-1.4-1.3v-.8s-1 2.4-4.1 2.4c-3.2 0-5.2-2.6-5.2-6.3-.1-3.7 2.1-6.2 5.3-6.2zm3.9 6.2c0-2.4-1.2-4.8-3.8-4.8-2.1 0-3.9 1.8-3.9 4.8s1.5 4.8 3.8 4.8c2 .1 3.9-1.4 3.9-4.8zm5.8-4c0-.3-.2-.5-.5-.5h-1v-1.4h1.7c1 0 1.5.4 1.5 1.5v8.6c0 .4.2.5.5.5h1v1.4h-1.7c-1 0-1.5-.4-1.5-1.5V127zm0-6.7h1.6v2H356v-2zm17.1 4.5c3.3 0 5 2.5 5 5.5v.8h-9.2c0 3 2.2 4.8 4.6 4.8 2.2 0 3.6-1.5 3.6-1.5l.8 1.2s-1.7 1.7-4.4 1.7c-3.5 0-6.3-2.6-6.3-6.3 0-3.9 2.7-6.2 5.9-6.2zm3.4 5c-.1-2.5-1.6-3.7-3.4-3.7-2 0-3.7 1.3-4.1 3.7h7.5zm4.9-2.8c0-.3-.2-.5-.5-.5h-1v-1.4h1.7c1 0 1.5.4 1.5 1.4v5.8c0 1.9.3 3.5 2.6 3.5 2.7 0 4.4-2.4 4.4-5v-5.7h1.6v10c0 .4.2.5.5.5h1v1.4h-1.6c-1 0-1.5-.4-1.5-1.3v-1.4c-.5 1.2-2 3-4.7 3-2.8 0-4-1.5-4-4.6V127zm14.3 0c0-.3-.2-.5-.5-.5h-1v-1.4h1.7c1 0 1.5.4 1.5 1.4v1.7c.6-1.8 1.9-3.2 3.8-3.2.3 0 .6.1.6.1v1.6h-.6c-1.7 0-2.9 1.3-3.5 3.1-.2.8-.3 1.6-.3 2.3v5h-1.6V127h-.1zm13.4-2.2c3.5 0 6.3 2.7 6.3 6.2 0 3.6-2.8 6.3-6.3 6.3s-6.3-2.7-6.3-6.3 2.8-6.2 6.3-6.2zm0 11.1c2.5 0 4.6-2.1 4.6-4.9 0-2.7-2.1-4.7-4.6-4.7-2.6 0-4.7 2-4.7 4.7 0 2.8 2.1 4.9 4.7 4.9zm-146.6 17.4c1.4 0 4.3.6 4.3 2.5v1.1h-1.5v-.7c0-1-1.7-1.5-2.7-1.5-2.6 0-4.6 1.9-4.6 4.8s2.2 4.8 4.7 4.8 3.9-1.7 3.9-1.7l.8 1.2s-1.6 2-4.7 2c-3.6 0-6.3-2.5-6.3-6.3-.2-3.6 2.5-6.2 6.1-6.2zm12.5 0c3.5 0 6.3 2.7 6.3 6.2 0 3.6-2.8 6.3-6.3 6.3s-6.3-2.7-6.3-6.3c0-3.5 2.9-6.2 6.3-6.2zm0 11.1c2.5 0 4.6-2.1 4.6-4.9 0-2.7-2.1-4.7-4.6-4.7-2.6 0-4.7 2-4.7 4.7.1 2.8 2.2 4.9 4.7 4.9zm9.4-8.9c0-.3-.2-.5-.5-.5h-1v-1.4h1.7c1 0 1.5.4 1.5 1.3v1.4c.4-1.1 2-3 4.8-3 3 0 4 1.7 4 4.6v5.7c0 .4.2.5.5.5h1v1.4h-1.7c-1 0-1.5-.4-1.5-1.5v-5.7c0-1.9-.3-3.5-2.6-3.5-2 0-3.8 1.4-4.4 3.4-.1.5-.2 1-.2 1.6v5.7h-1.6v-10zm20.4 6.8s1.7 2 4.4 2c2 0 3.8-1.5 3.8-3.6 0-2.3-2-3.5-4.1-3.5h-1.2l-.4-1 4.1-4.9c.4-.5.9-.9.9-.9s-.5.1-1.4.1h-4.4c-.3 0-.5.2-.5.5v1.1h-1.5v-1.7c0-1 .4-1.5 1.4-1.5h8.5v1.1l-4.9 5.8c2.1.1 5.2 1.3 5.2 4.9 0 2.8-2.4 5.2-5.5 5.2-3.3 0-5.4-2.3-5.4-2.3l1-1.3zm14.6 1.3l-1.7 4.3h-1.4l1.4-4.3h1.7zm10.2-11.7c.5-.9.9-1.5.9-1.5h-7.3c-.3 0-.5.2-.5.5v1.1h-1.6v-1.7c0-1 .4-1.5 1.4-1.5h9.9v1.1l-8.3 15.6h-1.9l7.4-13.6zm11.6 3.6c0-.3-.2-.5-.5-.5h-1v-1.4h1.7c1 0 1.5.4 1.5 1.3v1.4c.6-1.6 2.5-3 4.3-3 2.2 0 3.4 1 3.7 3 .6-1.6 2.4-3 4.4-3 2.9 0 4 1.7 4 4.6v5.7c0 .4.2.5.5.5h1v1.4h-1.7c-1 0-1.5-.4-1.5-1.5v-5.8c0-2-.4-3.6-2.6-3.6-1.8 0-3.3 1.6-3.8 3.4-.2.5-.2 1.1-.2 1.7v5.7h-1.6v-7.2c0-1.8-.3-3.6-2.5-3.6-2 0-3.4 1.7-3.9 3.5-.1.5-.2 1-.2 1.6v5.7h-1.6v-9.9zm22.2 0c0-.3-.2-.5-.5-.5h-1v-1.4h1.7c1 0 1.5.4 1.5 1.5v8.6c0 .4.2.5.5.5h1v1.4h-1.7c-1 0-1.5-.4-1.5-1.5v-8.6zm0-6.6h1.6v2h-1.6v-2zm5.8 1.9c0-.3-.2-.5-.5-.5h-1v-1.4h1.7c1 0 1.5.4 1.5 1.5v13.3c0 .4.2.5.5.5h1v1.4h-1.7c-1 0-1.5-.4-1.5-1.5v-13.3zm6 4.7c0-.3-.2-.5-.5-.5h-1v-1.4h1.7c1 0 1.5.4 1.5 1.5v8.6c0 .4.2.5.5.5h1v1.4h-1.7c-1 0-1.5-.4-1.5-1.5v-8.6zm0-6.6h1.6v2h-1.6v-2zm12.1 9.3h.7v-.1c0-2.5-.9-3.4-3.1-3.4-.6 0-2.3.2-2.3 1v.8H381v-1.1c0-1.7 2.9-2 3.9-2 3.8 0 4.7 2 4.7 4.6v5.7c0 .4.2.5.5.5h1v1.4h-1.6c-1 0-1.4-.5-1.4-1.4v-.9s-1 2.6-4 2.6c-2 0-4.1-1.2-4.1-3.5-.1-4.1 5.2-4.2 7.3-4.2zm-3 6.3c2.3 0 3.7-2.4 3.7-4.4v-.5h-.7c-1.9 0-5.6 0-5.6 2.7-.1 1 .8 2.2 2.6 2.2zm9.3-9c0-.3-.2-.5-.5-.5h-1v-1.4h1.7c1 0 1.5.4 1.5 1.4v1.7c.6-1.8 1.9-3.2 3.8-3.2.3 0 .6.1.6.1v1.6h-.6c-1.7 0-2.9 1.3-3.5 3.1-.2.8-.3 1.6-.3 2.3v5h-1.6v-10.1h-.1zm12.5-2.2c2.9 0 3.9 2.2 3.9 2.2v-4.8c0-.3-.2-.5-.5-.5h-1v-1.4h1.7c1 0 1.5.4 1.5 1.5v13.3c0 .4.2.5.5.5h1v1.4h-1.7c-1 0-1.4-.5-1.4-1.3v-.8s-1 2.4-4.1 2.4c-3.2 0-5.2-2.6-5.2-6.3-.1-3.7 2.1-6.2 5.3-6.2zm3.9 6.3c0-2.4-1.2-4.8-3.8-4.8-2.1 0-3.9 1.8-3.9 4.8s1.5 4.8 3.8 4.8c2.1 0 3.9-1.4 3.9-4.8zm5.9-4.1c0-.3-.2-.5-.5-.5h-1v-1.4h1.7c1 0 1.5.4 1.5 1.5v8.6c0 .4.2.5.5.5h1v1.4h-1.7c-1 0-1.5-.4-1.5-1.5v-8.6zm-.1-6.6h1.6v2h-1.6v-2zm-129.7 33c2.9 0 3.9 2.2 3.9 2.2v-4.8c0-.3-.2-.5-.5-.5h-1v-1.4h1.7c1 0 1.5.4 1.5 1.5v13.3c0 .4.2.5.5.5h1v1.4h-1.7c-1 0-1.4-.5-1.4-1.3v-.8s-1 2.4-4.1 2.4c-3.2 0-5.2-2.6-5.2-6.3 0-3.8 2.2-6.2 5.3-6.2zm4 6.2c0-2.4-1.2-4.8-3.8-4.8-2.1 0-3.9 1.8-3.9 4.8s1.5 4.8 3.8 4.8c2 0 3.9-1.4 3.9-4.8zm5.8-4c0-.3-.2-.5-.5-.5h-1v-1.4h1.7c1 0 1.5.4 1.5 1.5v8.6c0 .4.2.5.5.5h1v1.4h-1.7c-1 0-1.5-.4-1.5-1.5v-8.6zm0-6.7h1.6v2h-1.6v-2zm12.3 1.9c0-.3-.2-.5-.5-.5h-1v-1.4h1.7c1 0 1.5.4 1.5 1.5v5.3s1-2.3 4.1-2.3c3.2 0 5.2 2.6 5.2 6.3 0 3.8-2.3 6.3-5.4 6.3-2.9 0-3.9-2.3-3.9-2.3v2h-1.6l-.1-14.9zm5.4 13.7c2.1 0 3.9-1.8 3.9-4.8 0-2.9-1.6-4.8-3.8-4.8-2 0-3.9 1.4-3.9 4.8 0 2.4 1.2 4.8 3.8 4.8zm13.7-11.1c3.5 0 6.3 2.7 6.3 6.2 0 3.6-2.8 6.3-6.3 6.3s-6.3-2.7-6.3-6.3c0-3.6 2.9-6.2 6.3-6.2zm.1 11c2.5 0 4.6-2.1 4.6-4.9 0-2.7-2.1-4.7-4.6-4.7-2.6 0-4.7 2-4.7 4.7 0 2.9 2.1 4.9 4.7 4.9zm9.4-9.4h-1.6v-1.4h1.6v-3.3h1.6v3.3h3v1.4h-3v6.1c0 2.8 1.8 3.2 2.7 3.2h.5v1.5h-.7c-1.4 0-4.2-.5-4.2-4.4v-6.4h.1zm8 0h-1.6v-1.4h1.6v-3.3h1.6v3.3h3v1.4h-3v6.1c0 2.8 1.8 3.2 2.7 3.2h.5v1.5h-.7c-1.4 0-4.2-.5-4.2-4.4v-6.4h.1zm7.9.6c0-.3-.2-.5-.5-.5h-1v-1.4h1.7c1 0 1.5.4 1.5 1.5v8.6c0 .4.2.5.5.5h1v1.4h-1.7c-1 0-1.5-.4-1.5-1.5v-8.6zm0-6.7h1.6v2h-1.6v-2zm10 4.5c3.2 0 4 2 4 2v-.5c0-.9.4-1.3 1.4-1.3h1.7v1.4h-1c-.3 0-.5.2-.5.5v9.8c0 3.8-2.8 5.3-5.8 5.3-1.4 0-2.7-.4-3.9-1l.6-1.4s1.5.8 3.2.8c2.3 0 4.2-1.1 4.2-3.8v-1.9c-.7 1.3-1.9 2.1-3.8 2.1-3.2 0-5.3-2.5-5.3-6.1s2-5.9 5.2-5.9zm3.9 6c0-3.5-1.7-4.6-3.8-4.6-2.3 0-3.7 1.7-3.7 4.5s1.5 4.7 3.9 4.7c2 .1 3.6-1.1 3.6-4.6zm5.7-8.6c0-.3-.2-.5-.5-.5h-1v-1.4h1.7c1 0 1.5.4 1.5 1.5v13.3c0 .4.2.5.5.5h1v1.4h-1.7c-1 0-1.5-.4-1.5-1.5v-13.3zm6 4.8c0-.3-.2-.5-.5-.5h-1v-1.4h1.7c1 0 1.5.4 1.5 1.5v8.6c0 .4.2.5.5.5h1v1.4h-1.7c-1 0-1.5-.4-1.5-1.5v-8.6zm-.1-6.7h1.6v2h-1.6v-2zm10.7 4.5c3.3 0 5 2.5 5 5.5v.8h-9.2c0 3 2.2 4.8 4.6 4.8 2.2 0 3.6-1.5 3.6-1.5l.8 1.2s-1.7 1.7-4.4 1.7c-3.5 0-6.3-2.6-6.3-6.3 0-3.9 2.7-6.2 5.9-6.2zm3.4 5c-.1-2.5-1.6-3.7-3.4-3.7-2 0-3.7 1.3-4.1 3.7h7.5zm-99.7 25.7c0-.3-.2-.5-.5-.5h-1v-1.4h1.6c1 0 1.4.4 1.4 1.3v.8s1-2.4 4.1-2.4c3.2 0 5.2 2.6 5.2 6.3 0 3.8-2.3 6.3-5.4 6.3-2.9 0-3.9-2.3-3.9-2.3v6.7h-1.6v-14.8h.1zm5.4 8.9c2.1 0 3.9-1.8 3.9-4.8 0-2.9-1.5-4.8-3.8-4.8-2 0-3.9 1.4-3.9 4.8-.1 2.4 1.3 4.8 3.8 4.8zm8.5-8.9c0-.3-.2-.5-.5-.5h-1v-1.4h1.7c1 0 1.5.4 1.5 1.4v1.7c.6-1.8 1.9-3.2 3.8-3.2.3 0 .6.1.6.1v1.6h-.6c-1.7 0-2.9 1.3-3.5 3.1-.2.8-.3 1.6-.3 2.3v5h-1.6v-10.1h-.1zm13.4-2.2c3.5 0 6.3 2.7 6.3 6.2 0 3.6-2.8 6.3-6.3 6.3s-6.3-2.7-6.3-6.3c0-3.5 2.8-6.2 6.3-6.2zm0 11.1c2.5 0 4.6-2.1 4.6-4.9 0-2.7-2.1-4.7-4.6-4.7-2.6 0-4.7 2-4.7 4.7 0 2.8 2.1 4.9 4.7 4.9zm13.6-11.1c2.9 0 3.9 2.2 3.9 2.2v-4.8c0-.3-.2-.5-.5-.5h-1v-1.4h1.7c1 0 1.5.4 1.5 1.5v13.3c0 .4.2.5.5.5h1v1.4h-1.7c-1 0-1.4-.5-1.4-1.3v-.8s-1 2.4-4.1 2.4c-3.2 0-5.2-2.6-5.2-6.3-.1-3.7 2.2-6.2 5.3-6.2zm4 6.3c0-2.4-1.2-4.8-3.8-4.8-2.1 0-3.9 1.8-3.9 4.8s1.5 4.8 3.8 4.8c2 0 3.9-1.4 3.9-4.8zm10.9-6.3c3.5 0 6.3 2.7 6.3 6.2 0 3.6-2.8 6.3-6.3 6.3s-6.3-2.7-6.3-6.3c0-3.5 2.8-6.2 6.3-6.2zm0 11.1c2.5 0 4.6-2.1 4.6-4.9 0-2.7-2.1-4.7-4.6-4.7-2.6 0-4.7 2-4.7 4.7 0 2.8 2.1 4.9 4.7 4.9zm9.5-9.5h-1.6v-1.4h1.6v-3.3h1.6v3.3h3v1.4h-3v6.1c0 2.8 1.8 3.2 2.7 3.2h.5v1.5h-.7c-1.4 0-4.2-.5-4.2-4.4V212h.1zm7.9 0h-1.6v-1.4h1.6v-3.3h1.6v3.3h3v1.4h-3v6.1c0 2.8 1.8 3.2 2.7 3.2h.5v1.5h-.7c-1.4 0-4.2-.5-4.2-4.4V212h.1zm12.4-1.6c3.3 0 5 2.5 5 5.5v.8H374c0 3 2.2 4.8 4.6 4.8 2.2 0 3.6-1.5 3.6-1.5l.8 1.2s-1.7 1.7-4.4 1.7c-3.5 0-6.3-2.6-6.3-6.3 0-3.8 2.7-6.2 5.9-6.2zm3.3 5c-.1-2.5-1.6-3.7-3.4-3.7-2 0-3.7 1.3-4.1 3.7h7.5zM305.1 86.1V86s-4.9-2.3-4.9-7.4c0-4.9 3.9-9.3 10.8-9.3 6.7 0 10.9 4 10.9 9.5 0 5.4-4.8 8.8-4.8 8.8v.1c3.3 1.7 5.7 4 5.7 8.2 0 5.6-5.2 10.3-12 10.3-6.3 0-12.1-3.9-12.1-10.6.1-6.3 6.4-9.5 6.4-9.5zm5.8 16.8c4.2 0 8.3-2.9 8.3-7 0-3.7-3-5.2-6.8-6.7-1.3-.6-3.8-1.4-4.2-1.4-1.4 0-5.8 3.2-5.8 7.7 0 4.6 4.1 7.4 8.5 7.4zm2.9-16.8c1.3 0 4.5-3.5 4.5-7.2 0-3.9-3-6.3-7.4-6.3-4.5 0-7.2 2.7-7.2 6 0 3.8 3.1 5.1 6.8 6.5 1 .4 2.7 1 3.3 1zm16.7 15.5s2.2 1.3 5.2 1.3c7.5 0 11.3-7.5 11.9-14.7h-.1c-1.7 2.8-5.4 4.4-9.1 4.4-6.5 0-11.1-4.7-11.1-11.3 0-7.4 4.9-11.9 11.2-11.9 7.8 0 12.9 6.9 12.9 16.3 0 9.1-4.6 20.6-15.7 20.6-3.9 0-6.5-1.5-6.5-1.5l1.3-3.2zm17.1-18.3c0-4.7-3.7-10.7-9-10.7-4.8 0-7.7 3.7-7.7 8.6 0 5 3.2 8.2 8.1 8.2 4.8 0 8.6-3.2 8.6-6.1zm9.8 15.4s2.7 4.2 8.3 4.2c5.1 0 8.9-3.6 8.9-8.3 0-4.9-4.1-8.4-9.2-8.4-4 0-6.8 2-6.8 2l-1.8-.8 1.5-14.3c.2-2.2.9-3.1 3.1-3.1H373c2.1 0 3 .9 3 3.1v3.6h-3.3v-2.4c0-.8-.4-1.1-1.1-1.1h-9c-.7 0-1 .4-1.1 1.1l-.9 8.1c-.2 1.3-.3 2-.3 2h.1s2.2-1.3 5.4-1.3c7.3 0 12.5 5.2 12.5 11.6 0 6.3-5.3 11.6-12.5 11.6-7.1 0-10.5-5.1-10.5-5.1l2.1-2.5z" fill="#fff"/><path d="M49.4 671.6h.8c.2 0 .4-.1.4-.4v-10.6h1.6l5.6 7.9c.5.7 1 1.7 1 1.7s-.1-1-.1-1.7v-6.8c0-.8.3-1.1 1.2-1.1h1.8v1.5h-.8c-.2 0-.4.1-.4.4v10.6h-1.6l-5.6-7.9c-.5-.7-1-1.7-1-1.7s.1 1 .1 1.7v6.8c0 .8-.3 1.1-1.1 1.1h-1.8v-1.5h-.1zm19.9-11.2c3.6 0 6.5 2.8 6.5 6.4 0 3.7-2.8 6.6-6.5 6.6-3.6 0-6.4-2.9-6.4-6.6 0-3.6 2.8-6.4 6.4-6.4zm0 11.3c2.5 0 4.6-2.1 4.6-4.9 0-2.7-2.1-4.7-4.6-4.7s-4.6 2.1-4.6 4.7c0 2.8 2.1 4.9 4.6 4.9zm8.9-9.6H77v-1.5h5.5c2.2 0 3.8 1.4 3.8 3.7 0 2.1-1.4 3.1-2.3 3.3 0 0 .3.2.5.6l1.5 3c.2.4.5.4.9.4h.2v1.5h-.9c-1 0-1.3-.1-1.7-.9l-1.7-3.4c-.3-.6-.6-.7-1.2-.7H80v5h-1.8v-11zm4.1 4.5c1.4 0 2.2-.9 2.2-2.3s-.8-2.2-2.1-2.2H80v4.5h2.3zm6.9-4.5H88v-1.5h5.1c3.8 0 6.3 2.3 6.3 6.3s-2.5 6.3-6.3 6.3h-2.8c-.8 0-1.1-.3-1.1-1.1v-10zm2.2 9.5H93c2.8 0 4.6-1.7 4.6-4.8s-1.8-4.7-4.6-4.7h-2v9.1c0 .3.1.4.4.4zm-69.2 17.8h.2c.3 0 .5-.1.6-.4l3.9-10.6h1.9l3.9 10.6c.1.3.3.4.6.4h.3v1.5h-1c-.9 0-1.2-.2-1.5-1l-.9-2.6h-4.6l-.9 2.6c-.3.8-.6 1-1.5 1h-1v-1.5zm7.6-3.6l-1.4-3.8c-.2-.7-.5-1.8-.5-1.8s-.2 1.1-.5 1.8l-1.4 3.8h3.8zm4.4 3.6h.6c.2 0 .4-.1.4-.4l.9-10.6h1.8l3 6.6c.3.7.6 1.6.6 1.6s.3-.9.6-1.6l3-6.6h1.8l.9 10.6c0 .2.1.4.4.4h.6v1.5h-1.6c-.8 0-1.1-.3-1.1-1.1l-.5-6.6c-.1-.7 0-1.8 0-1.8s-.4 1.2-.7 1.8l-2.5 5.5h-1.5l-2.5-5.5c-.3-.7-.7-1.9-.7-1.9v1.9l-.5 6.6c-.1.8-.3 1.1-1.2 1.1h-1.6v-1.5h-.2zm16.7-9.5h-1.2v-1.5h7.4c.8 0 1.1.3 1.1 1.1v1.6h-1.6v-.8c0-.3-.1-.4-.4-.4h-3.6v3.9H57v1.5h-4.4v3.6c0 .2.1.4.4.4h3.7c.2 0 .4-.1.4-.4v-.8h1.6v1.6c0 .8-.3 1.1-1.1 1.1H52c-.8 0-1.1-.3-1.1-1.1v-9.8zm10.1 0h-1.2v-1.5h5.5c2.2 0 3.8 1.4 3.8 3.7 0 2.1-1.4 3.1-2.3 3.3 0 0 .3.2.5.6l1.5 3c.2.4.5.4.9.4h.2v1.5H69c-1 0-1.3-.1-1.7-.9l-1.7-3.4c-.3-.6-.6-.7-1.2-.7h-1.6v5H61v-11zm4.1 4.5c1.4 0 2.2-.9 2.2-2.3s-.8-2.2-2.1-2.2h-2.3v4.5h2.2zm5.8 5h1.2v-9.5h-1.2v-1.5H75v1.5h-1.2v9.5H75v1.5h-4.1v-1.5zm11.8-11.2c1.7 0 4.7.7 4.7 2.7v1.2h-1.6v-.7c0-1-1.8-1.6-3-1.6-2.5 0-4.5 1.9-4.5 4.7 0 2.7 2 4.9 4.5 4.9s4-1.7 4-1.7l1 1.3s-1.8 2.1-4.9 2.1c-3.8 0-6.4-2.9-6.4-6.6-.1-3.6 2.6-6.3 6.2-6.3zm5.8 11.2h.2c.3 0 .5-.1.6-.4l3.9-10.6h1.9L99 689c.1.3.3.4.6.4h.3v1.5h-1c-.9 0-1.2-.2-1.5-1l-.9-2.6h-4.6l-.9 2.6c-.3.8-.6 1-1.5 1h-1v-1.5zm7.5-3.6l-1.4-3.8c-.2-.7-.5-1.8-.5-1.8s-.2 1.1-.5 1.8l-1.4 3.8H96zm-43.9 17.1h4v-4.4h1.5v4.4h4v1.4h-4v4.4h-1.5v-4.4h-4v-1.4zm12.1 4s.8.4 1.8.4c2.3 0 3.5-2.2 3.8-4.3-.5.8-1.7 1.2-2.8 1.2-2.4 0-4-1.8-4-4.1 0-2.5 1.7-4.2 4-4.2 2.7 0 4.7 2.3 4.7 5.8 0 3.3-1.8 7.2-5.7 7.2-1.5 0-2.4-.5-2.4-.5l.6-1.5zm5.6-5.9c0-1.6-1.2-3.4-2.8-3.4-1.5 0-2.3 1.1-2.3 2.6s1 2.6 2.6 2.6c1.4-.1 2.5-.9 2.5-1.8zm5.1 5.8l-1.5 3.7H72l1.1-3.7h1.8zm3.8-4.9s-1.5-.9-1.5-2.6c0-1.7 1.4-3.4 3.9-3.4 2.4 0 3.9 1.4 3.9 3.4 0 1.8-1.5 3-1.5 3 1.1.7 1.9 1.5 1.9 2.9 0 2-1.8 3.7-4.3 3.7-2.4 0-4.4-1.5-4.4-3.8 0-2.1 2-3.2 2-3.2zm2.3 5.4c1.3 0 2.5-.9 2.5-2.1 0-1.1-.9-1.6-2.1-2.1-.5-.2-1.2-.5-1.3-.5-.4 0-1.7 1-1.7 2.4.1 1.4 1.3 2.3 2.6 2.3zm1-5.7c.4 0 1.3-1 1.3-2.2s-.9-1.9-2.2-1.9c-1.4 0-2.2.8-2.2 1.8 0 1.1.9 1.5 2.1 2 .2.1.7.3 1 .3zm5.2-3c0-1.4 1.2-2.6 2.7-2.6s2.7 1.2 2.7 2.6c0 1.5-1.2 2.6-2.7 2.6-1.5 0-2.7-1.2-2.7-2.6zm9.9-2.4h1.7l-9.6 12.6h-1.7l9.6-12.6zm-5.9 2.4c0-.7-.6-1.3-1.3-1.3-.7 0-1.3.6-1.3 1.3s.6 1.3 1.3 1.3c.7 0 1.3-.6 1.3-1.3zm5.1 5.1c1.5 0 2.7 1.2 2.7 2.6 0 1.5-1.2 2.6-2.7 2.6s-2.7-1.2-2.7-2.6c0-1.5 1.2-2.6 2.7-2.6zm0 3.9c.7 0 1.3-.6 1.3-1.3s-.6-1.3-1.3-1.3c-.7 0-1.3.6-1.3 1.3s.6 1.3 1.3 1.3zm-45.2 10.5c-.1-.3-.2-.3-.5-.3h-.1v-.9h.4c.7 0 .9.1 1.2.8l1.8 4.6c.1.4.2.9.2.9s.1-.5.2-.9l1.8-4.6c.2-.7.5-.8 1.2-.8h.4v.9h-.1c-.3 0-.4.1-.5.3l-2.4 6.2h-1.1l-2.5-6.2zm7.8 4.4s.8 1.1 2.3 1.1c.8 0 1.6-.4 1.6-1.2 0-1.6-4.1-1.3-4.1-3.7 0-1.3 1.1-2 2.6-2 .7 0 2.2.3 2.2 1.3v.6h-.9v-.4c0-.5-.8-.7-1.3-.7-1 0-1.6.4-1.6 1.1 0 1.7 4.1 1.3 4.1 3.7 0 1.2-1.1 2.1-2.6 2.1-1.9 0-2.8-1.3-2.8-1.3l.5-.6zm15.4-5.8c0-1.1-.8-1.9-2.1-1.9-1 0-1.8.5-1.8 1.1v.5h-1v-.8c0-1.3 1.8-1.8 2.8-1.8 2 0 3.1 1.3 3.1 2.9 0 3.6-5.4 3.5-5.4 6.4 0 .2.1.3.3.3h4.3c.2 0 .3-.1.3-.3v-.7h1v1c0 .6-.3.9-.9.9h-5.2c-.7 0-.9-.3-.9-1 .1-3.9 5.5-3.6 5.5-6.6zm3 2.4c0-3 .9-5.3 3.5-5.3 2.7 0 3.6 2.4 3.6 5.3 0 3-.9 5.3-3.6 5.3-2.6 0-3.5-2.3-3.5-5.3zm6.1 0c0-2.4-.6-4.4-2.5-4.4s-2.5 1.9-2.5 4.4.6 4.4 2.5 4.4 2.5-1.9 2.5-4.4zm2.6 4.2h2.3v-8.2s-.1.2-.5.6l-1.1 1.1-.6-.7 2.3-2.3h1v9.4h2.3v.9H86v-.8zm6.5-3.6c0-2.6 1.3-5.9 4.5-5.9 1.1 0 1.9.4 1.9.4l-.4.9s-.6-.4-1.5-.4c-2.2 0-3.2 2.2-3.4 4.2.5-.8 1.6-1.2 2.6-1.2 1.9 0 3.2 1.3 3.2 3.3 0 2.1-1.4 3.4-3.2 3.4-2.2 0-3.7-2-3.7-4.7zm3.7 3.8c1.4 0 2.2-1.1 2.2-2.5s-.9-2.4-2.3-2.4-2.5.9-2.5 1.8c0 1.4 1.1 3.1 2.6 3.1zm88 27.4s1.3 1.5 3.1 1.5c1.2 0 2.2-.7 2.2-1.9 0-2.6-6.1-2.2-6.1-6.1 0-1.9 1.7-3.4 4-3.4 1.3 0 3.6.6 3.6 2.3v1h-1.6v-.6c0-.7-.9-1.1-1.9-1.1-1.4 0-2.2.7-2.2 1.7 0 2.5 6 2 6 6.1 0 1.9-1.5 3.6-4 3.6-2.7 0-4.2-1.9-4.2-1.9l1.1-1.2zm9.5-7.7c0-.3-.1-.4-.4-.4h-.8v-1.5h1.8c.8 0 1.1.3 1.1 1.1v7c0 1.9 1.2 3 3 3s3-1.1 3-3v-6.9c0-.8.4-1.1 1.2-1.1h1.8v1.5h-.8c-.2 0-.4.1-.4.4v6.2c0 2.7-1.9 4.6-4.8 4.6s-4.8-1.9-4.8-4.6l.1-6.3zm13.1-.4h-1.2v-1.5h5.1c3.8 0 6.3 2.3 6.3 6.3s-2.5 6.3-6.3 6.3H208c-.8 0-1.1-.3-1.1-1.1v-10h-.1zm2.2 9.5h1.6c2.8 0 4.6-1.7 4.6-4.8s-1.8-4.7-4.6-4.7h-2v9.1c0 .2.1.4.4.4zM139.9 770h.2c.3 0 .5-.1.6-.4l3.9-10.6h1.9l3.9 10.6c.1.3.3.4.6.4h.3v1.5h-1c-.9 0-1.2-.2-1.5-1l-.9-2.6h-4.6l-.9 2.6c-.3.8-.6 1-1.5 1h-1V770zm7.5-3.5l-1.4-3.8c-.2-.7-.5-1.8-.5-1.8s-.2 1.1-.5 1.8l-1.4 3.8h3.8zm4.4 3.5h.6c.2 0 .4-.1.4-.4l.9-10.6h1.8l3 6.6c.3.7.6 1.6.6 1.6s.3-.9.6-1.6l3-6.6h1.8l.9 10.6c0 .2.1.4.4.4h.6v1.5h-1.6c-.8 0-1.1-.3-1.1-1.1l-.5-6.6c-.1-.7 0-1.8 0-1.8s-.4 1.2-.7 1.8l-2.5 5.5h-1.5l-2.5-5.5c-.3-.7-.7-1.9-.7-1.9v1.9l-.5 6.6c-.1.8-.3 1.1-1.2 1.1H152V770h-.2zm16.7-9.5h-1.2V759h7.4c.8 0 1.1.3 1.1 1.1v1.6h-1.6v-.8c0-.3-.1-.4-.4-.4h-3.6v3.9h4.4v1.5h-4.4v3.6c0 .2.1.4.4.4h3.7c.2 0 .4-.1.4-.4v-.8h1.6v1.6c0 .8-.3 1.1-1.1 1.1h-5.6c-.8 0-1.1-.3-1.1-1.1v-9.8zm10.1 0h-1.2V759h5.5c2.2 0 3.8 1.4 3.8 3.7 0 2.1-1.4 3.1-2.3 3.3 0 0 .3.2.5.6l1.5 3c.2.4.5.4.9.4h.2v1.5h-.9c-1 0-1.3-.1-1.7-.9l-1.7-3.4c-.3-.6-.6-.7-1.2-.7h-1.6v5h-1.8v-11zm4.1 4.5c1.4 0 2.2-.9 2.2-2.3s-.8-2.2-2.1-2.2h-2.3v4.5h2.2zm5.8 5h1.2v-9.5h-1.2V759h4.1v1.5h-1.2v9.5h1.2v1.5h-4.1V770zm11.8-11.2c1.7 0 4.7.7 4.7 2.7v1.2h-1.6v-.7c0-1-1.8-1.6-3-1.6-2.5 0-4.5 1.9-4.5 4.7 0 2.7 2 4.9 4.5 4.9s4-1.7 4-1.7l1 1.3s-1.8 2.1-4.9 2.1c-3.8 0-6.4-2.9-6.4-6.6-.1-3.5 2.6-6.3 6.2-6.3zm5.8 11.2h.2c.3 0 .5-.1.6-.4l3.9-10.6h1.9l3.9 10.6c.1.3.3.4.6.4h.3v1.5h-1c-.9 0-1.2-.2-1.5-1l-.9-2.6h-4.6l-.9 2.6c-.3.8-.6 1-1.5 1h-1V770zm7.6-3.5l-1.4-3.8c-.2-.7-.5-1.8-.5-1.8s-.2 1.1-.5 1.8l-1.4 3.8h3.8zm-53.4 17.1h4v-4.4h1.5v4.4h4v1.4h-4v4.4h-1.5V785h-4v-1.4zm11.3 4.2h2.8v-8.9s-.1.3-.6.7l-1.2 1.2-1.1-1.1 3-2.9h1.6v11h2.7v1.5h-7.3v-1.5h.1zm10.5-5.3s-1.5-.9-1.5-2.6c0-1.7 1.4-3.4 3.9-3.4 2.4 0 3.9 1.4 3.9 3.4 0 1.8-1.5 3-1.5 3 1.1.7 1.9 1.5 1.9 2.9 0 2-1.8 3.7-4.3 3.7-2.4 0-4.4-1.5-4.4-3.8 0-2 2-3.2 2-3.2zm2.3 5.4c1.3 0 2.5-.9 2.5-2.1 0-1.1-.9-1.6-2.1-2.1-.5-.2-1.2-.5-1.3-.5-.4 0-1.7 1-1.7 2.4.1 1.5 1.3 2.3 2.6 2.3zm1-5.7c.4 0 1.3-1 1.3-2.2s-.9-1.9-2.2-1.9c-1.4 0-2.2.8-2.2 1.8 0 1.1.9 1.5 2.1 2 .2.2.7.3 1 .3zm7.4 5.3l-1.5 3.7H190l1.1-3.7h1.7zm1.1-2.6l5.7-8.1h2v7.7h2v1.5h-2v3.3h-1.8V786h-5.9v-1.1zm5.9-4.7c0-.6.1-1.3.1-1.3s-.3.6-.6 1l-2.7 3.8c-.3.4-.7.8-.7.8s.5-.1 1.1-.1h2.9l-.1-4.2zm5-1c0-1.4 1.2-2.6 2.7-2.6s2.7 1.2 2.7 2.6c0 1.5-1.2 2.6-2.7 2.6s-2.7-1.1-2.7-2.6zm9.9-2.4h1.7l-9.6 12.6h-1.7l9.6-12.6zm-5.9 2.4c0-.7-.6-1.3-1.3-1.3s-1.3.6-1.3 1.3.6 1.3 1.3 1.3 1.3-.5 1.3-1.3zm5.2 5.1c1.5 0 2.7 1.2 2.7 2.6 0 1.5-1.2 2.6-2.7 2.6s-2.7-1.2-2.7-2.6 1.2-2.6 2.7-2.6zm0 3.9c.7 0 1.3-.6 1.3-1.3s-.6-1.3-1.3-1.3c-.7 0-1.3.6-1.3 1.3 0 .8.5 1.3 1.3 1.3zm-45.2 10.5c-.1-.3-.2-.3-.5-.3h-.1v-.9h.4c.7 0 .9.1 1.2.8l1.8 4.6c.1.4.2.9.2.9s.1-.5.2-.9l1.8-4.6c.2-.7.5-.8 1.2-.8h.4v.9h-.1c-.3 0-.4.1-.5.3l-2.4 6.2h-1.1l-2.5-6.2zm7.7 4.4s.8 1.1 2.3 1.1c.8 0 1.6-.4 1.6-1.2 0-1.6-4.1-1.3-4.1-3.7 0-1.3 1.1-2 2.6-2 .7 0 2.2.3 2.2 1.3v.6h-.9v-.2c0-.5-.8-.7-1.3-.7-1 0-1.6.4-1.6 1.1 0 1.7 4.1 1.3 4.1 3.7 0 1.2-1.1 2.1-2.6 2.1-1.9 0-2.8-1.3-2.8-1.3l.5-.8zm15.5-5.8c0-1.1-.8-1.9-2.1-1.9-1 0-1.8.5-1.8 1.1v.5h-1v-.8c0-1.3 1.8-1.8 2.8-1.8 2 0 3.1 1.3 3.1 2.9 0 3.6-5.4 3.5-5.4 6.4 0 .2.1.3.3.3h4.3c.2 0 .3-.1.3-.3v-.7h1v1c0 .6-.3.9-.9.9h-5.2c-.7 0-.9-.3-.9-1 0-3.8 5.5-3.5 5.5-6.6zm3 2.4c0-3 .9-5.3 3.5-5.3 2.7 0 3.6 2.4 3.6 5.3 0 3-.9 5.3-3.6 5.3-2.7.1-3.5-2.3-3.5-5.3zm6 0c0-2.4-.6-4.4-2.5-4.4s-2.5 1.9-2.5 4.4.6 4.4 2.5 4.4c2 0 2.5-1.9 2.5-4.4zm2.6 4.3h2.3v-8.2s-.1.2-.5.6l-1.1 1.1-.6-.7 2.3-2.3h1v9.4h2.3v.9h-5.6l-.1-.8zm6.5-3.6c0-2.6 1.3-5.9 4.5-5.9 1.1 0 1.9.4 1.9.4l-.4.9s-.6-.4-1.5-.4c-2.2 0-3.2 2.2-3.4 4.2.5-.8 1.6-1.2 2.6-1.2 1.9 0 3.2 1.3 3.2 3.3 0 2.1-1.4 3.4-3.2 3.4-2.2 0-3.7-2-3.7-4.7zm3.7 3.7c1.4 0 2.2-1.1 2.2-2.5s-.9-2.4-2.3-2.4-2.5.9-2.5 1.8c0 1.4 1.1 3.1 2.6 3.1zm70.3-128.3H283v-1.5h7.4c.8 0 1.1.3 1.1 1.1v1.6h-1.6v-.8c0-.3-.1-.4-.4-.4h-3.6v3.9h4.4v1.5h-4.4v3.6c0 .2.1.4.4.4h3.7c.2 0 .4-.1.4-.4v-.8h1.6v1.6c0 .8-.3 1.1-1.1 1.1h-5.6c-.8 0-1.1-.3-1.1-1.1v-9.8h-.1zm10 .4c0-.3-.1-.4-.4-.4h-.8v-1.5h1.8c.8 0 1.1.3 1.1 1.1v7c0 1.9 1.2 3 3 3s3-1.1 3-3v-6.9c0-.8.4-1.1 1.2-1.1h1.8v1.5h-.8c-.2 0-.4.1-.4.4v6.2c0 2.7-1.9 4.6-4.8 4.6s-4.8-1.9-4.8-4.6l.1-6.3zm13.1-.4H306v-1.5h5.5c2.2 0 3.8 1.4 3.8 3.7 0 2.1-1.4 3.1-2.3 3.3 0 0 .3.2.5.6l1.5 3c.2.4.5.4.9.4h.2v1.5h-.9c-1 0-1.3-.1-1.7-.9l-1.7-3.4c-.3-.6-.6-.7-1.2-.7H309v5h-1.8v-11zm4.1 4.5c1.4 0 2.2-.9 2.2-2.3s-.8-2.2-2.1-2.2h-2.3v4.5h2.2zm12-6.2c3.6 0 6.5 2.8 6.5 6.4 0 3.7-2.8 6.6-6.5 6.6s-6.4-2.9-6.4-6.6c0-3.6 2.8-6.4 6.4-6.4zm0 11.3c2.5 0 4.6-2.1 4.6-4.9 0-2.7-2.1-4.7-4.6-4.7s-4.6 2.1-4.6 4.7c0 2.8 2.1 4.9 4.6 4.9zm8.9-9.6H331v-1.5h5.5c2.3 0 3.9 1.5 3.9 3.9s-1.6 4-3.9 4H334v4.6h-1.8v-11zm4.1 4.9c1.5 0 2.4-.9 2.4-2.5 0-1.5-.9-2.4-2.4-2.4H334v4.9h2.3zm3.8 4.6h.2c.3 0 .5-.1.6-.4l3.9-10.6h1.9l3.9 10.6c.1.3.3.4.6.4h.3v1.5h-1c-.9 0-1.2-.2-1.5-1l-.9-2.6h-4.6l-.9 2.6c-.3.8-.6 1-1.5 1h-1v-1.5zm7.5-3.5l-1.4-3.8c-.2-.7-.5-1.8-.5-1.8s-.2 1.1-.5 1.8l-1.4 3.8h3.8zm-44.5 17.1h4v-4.4h1.5v4.4h4v1.4h-4v4.4h-1.5v-4.4h-4v-1.4zm10.5 1.3l5.7-8.1h2v7.7h2v1.5h-2v3.3h-1.8v-3.3h-5.9v-1.1zm5.9-4.7c0-.6.1-1.3.1-1.3s-.3.6-.6 1l-2.7 3.8c-.3.4-.7.8-.7.8s.5-.1 1.1-.1h2.9l-.1-4.2zm7 7.3l-1.5 3.7h-1.3l1.1-3.7h1.7zm8.1-7.3c0-1.2-.9-2-2.2-2-1.1 0-1.9.6-1.9 1.2v.6h-1.6v-1.1c0-1.6 2.2-2.3 3.6-2.3 2.3 0 3.9 1.5 3.9 3.6 0 4.3-6.4 4.4-6.4 7.3 0 .2.1.3.4.3h4.5c.2 0 .4-.1.4-.4v-.8h1.6v1.6c0 .8-.3 1.1-1.1 1.1h-6.4c-1 0-1.2-.4-1.2-1.4.1-4.6 6.4-4.3 6.4-7.7zm4.2-1c0-1.4 1.2-2.6 2.7-2.6s2.7 1.2 2.7 2.6c0 1.5-1.2 2.6-2.7 2.6s-2.7-1.1-2.7-2.6zm9.9-2.4h1.7l-9.6 12.6h-1.7l9.6-12.6zm-5.9 2.4c0-.7-.6-1.3-1.3-1.3s-1.3.6-1.3 1.3.6 1.3 1.3 1.3 1.3-.5 1.3-1.3zm5.2 5.1c1.5 0 2.7 1.2 2.7 2.6 0 1.5-1.2 2.6-2.7 2.6s-2.7-1.2-2.7-2.6c-.1-1.4 1.1-2.6 2.7-2.6zm0 3.9c.7 0 1.3-.6 1.3-1.3s-.6-1.3-1.3-1.3-1.3.6-1.3 1.3c-.1.8.5 1.3 1.3 1.3zM302.7 714c-.1-.3-.2-.3-.5-.3h-.1v-.9h.4c.7 0 .9.1 1.2.8l1.8 4.6c.1.4.2.9.2.9s.1-.5.2-.9l1.8-4.6c.2-.7.5-.8 1.2-.8h.4v.9h-.1c-.3 0-.4.1-.5.3l-2.4 6.2h-1.1l-2.5-6.2zm7.8 4.4s.8 1.1 2.3 1.1c.8 0 1.6-.4 1.6-1.2 0-1.6-4.1-1.3-4.1-3.7 0-1.3 1.1-2 2.6-2 .7 0 2.2.3 2.2 1.3v.6h-.9v-.4c0-.5-.8-.7-1.3-.7-1 0-1.6.4-1.6 1.1 0 1.7 4.1 1.3 4.1 3.7 0 1.2-1.1 2.1-2.6 2.1-1.9 0-2.8-1.3-2.8-1.3l.5-.6zm15.5-5.8c0-1.1-.8-1.9-2.1-1.9-1 0-1.8.5-1.8 1.1v.5h-1v-.8c0-1.3 1.8-1.8 2.8-1.8 2 0 3.1 1.3 3.1 2.9 0 3.6-5.4 3.5-5.4 6.4 0 .2.1.3.3.3h4.3c.2 0 .3-.1.3-.3v-.7h1v1c0 .6-.3.9-.9.9h-5.2c-.7 0-.9-.3-.9-1 0-3.8 5.5-3.5 5.5-6.6zm2.9 2.4c0-3 .9-5.3 3.5-5.3 2.7 0 3.6 2.4 3.6 5.3 0 3-.9 5.3-3.6 5.3-2.6.1-3.5-2.3-3.5-5.3zm6.1 0c0-2.4-.6-4.4-2.5-4.4s-2.5 1.9-2.5 4.4.6 4.4 2.5 4.4 2.5-1.9 2.5-4.4zm2.6 4.3h2.3v-8.2s-.1.2-.5.6l-1.1 1.1-.6-.7 2.3-2.3h1v9.4h2.3v.9h-5.6v-.8h-.1zm6.5-3.6c0-2.6 1.3-5.9 4.5-5.9 1.1 0 1.9.4 1.9.4l-.4.9s-.6-.4-1.5-.4c-2.2 0-3.2 2.2-3.4 4.2.5-.8 1.6-1.2 2.6-1.2 1.9 0 3.2 1.3 3.2 3.3 0 2.1-1.4 3.4-3.2 3.4-2.2 0-3.7-2-3.7-4.7zm3.7 3.7c1.4 0 2.2-1.1 2.2-2.5s-.9-2.4-2.3-2.4-2.5.9-2.5 1.8c0 1.4 1.1 3.1 2.6 3.1zm57.8-1h.2c.3 0 .5-.1.6-.4l3.9-10.6h1.9l3.9 10.6c.1.3.3.4.6.4h.3v1.5h-1c-.9 0-1.2-.2-1.5-1l-.9-2.6H409l-.9 2.6c-.3.8-.6 1-1.5 1h-1v-1.5zm7.6-3.6l-1.4-3.8c-.2-.7-.5-1.8-.5-1.8s-.2 1.1-.5 1.8l-1.4 3.8h3.8zm5.9-5.9h-1.2v-1.5h6.9c.8 0 1.1.3 1.1 1.1v1.6h-1.6v-.8c0-.3-.1-.4-.4-.4h-3.1v4.1h4.3v1.5h-4.3v5.4H419l.1-11zm9.1 0H427v-1.5h5.5c2.2 0 3.8 1.4 3.8 3.7 0 2.1-1.4 3.1-2.3 3.3 0 0 .3.2.5.6l1.5 3c.2.4.5.4.9.4h.2v1.5h-.9c-1 0-1.3-.1-1.7-.9l-1.7-3.4c-.3-.6-.6-.7-1.2-.7H430v5h-1.8v-11zm4.1 4.5c1.4 0 2.2-.9 2.2-2.3s-.8-2.2-2.1-2.2H430v4.5h2.3zm5.8 5h1.2v-9.5h-1.2v-1.5h4.1v1.5H441v9.5h1.2v1.5h-4.1v-1.5zm11.8-11.2c1.7 0 4.7.7 4.7 2.7v1.2H453v-.7c0-1-1.8-1.6-3-1.6-2.5 0-4.5 1.9-4.5 4.7 0 2.7 2 4.9 4.5 4.9s4-1.7 4-1.7l1 1.3s-1.8 2.1-4.9 2.1c-3.8 0-6.4-2.9-6.4-6.6-.1-3.6 2.6-6.3 6.2-6.3zm5.7 11.2h.2c.3 0 .5-.1.6-.4l3.9-10.6h1.9l3.9 10.6c.1.3.3.4.6.4h.3v1.5h-1c-.9 0-1.2-.2-1.5-1l-.9-2.6H459l-.9 2.6c-.3.8-.6 1-1.5 1h-1v-1.5zm7.6-3.6l-1.4-3.8c-.2-.7-.5-1.8-.5-1.8s-.2 1.1-.5 1.8l-1.4 3.8h3.8zM406.1 732h4v-4.4h1.5v4.4h4v1.4h-4v4.4h-1.5v-4.4h-4V732zm11.3 4.2h2.8v-8.9s-.1.3-.6.7l-1.2 1.2-1.1-1.1 3-2.9h1.6v11h2.7v1.5h-7.3l.1-1.5zm9.2-1.4s1.2 1.4 3.2 1.4c1.4 0 2.5-.9 2.5-2.3s-1.2-2.2-2.7-2.2h-.9l-.4-.9 2.6-3.3c.4-.5.7-.8.7-.8s-.4.1-1.1.1h-2.4c-.2 0-.4.1-.4.4v.8h-1.6v-1.6c0-.8.3-1.1 1.1-1.1h6.6v1.1l-3.3 4c1.6.2 3.6 1.3 3.6 3.7 0 2.1-1.7 4-4.3 4s-4.1-1.8-4.1-1.8l.9-1.5zm11.4 1.1l-1.5 3.7h-1.3l1.1-3.7h1.7zm3.9-5s-1.5-.9-1.5-2.6c0-1.7 1.4-3.4 3.9-3.4 2.4 0 3.9 1.4 3.9 3.4 0 1.8-1.5 3-1.5 3 1.1.7 1.9 1.5 1.9 2.9 0 2-1.8 3.7-4.3 3.7-2.4 0-4.4-1.5-4.4-3.8-.1-2 2-3.2 2-3.2zm2.3 5.4c1.3 0 2.5-.9 2.5-2.1 0-1.1-.9-1.6-2.1-2.1-.5-.2-1.2-.5-1.3-.5-.4 0-1.7 1-1.7 2.4 0 1.5 1.2 2.3 2.6 2.3zm.9-5.7c.4 0 1.3-1 1.3-2.2s-.9-1.9-2.2-1.9c-1.4 0-2.2.8-2.2 1.8 0 1.1.9 1.5 2.1 2 .3.1.8.3 1 .3zm5.3-3c0-1.4 1.2-2.6 2.7-2.6s2.7 1.2 2.7 2.6c0 1.5-1.2 2.6-2.7 2.6-1.5 0-2.7-1.1-2.7-2.6zm9.8-2.4h1.7l-9.6 12.6h-1.7l9.6-12.6zm-5.8 2.4c0-.7-.6-1.3-1.3-1.3s-1.3.6-1.3 1.3.6 1.3 1.3 1.3 1.3-.6 1.3-1.3zm5.1 5.1c1.5 0 2.7 1.2 2.7 2.6 0 1.5-1.2 2.6-2.7 2.6s-2.7-1.2-2.7-2.6 1.2-2.6 2.7-2.6zm0 3.9c.7 0 1.3-.6 1.3-1.3s-.6-1.3-1.3-1.3-1.3.6-1.3 1.3c0 .8.6 1.3 1.3 1.3zm-53.2 10.5c-.1-.3-.2-.3-.5-.3h-.1v-.9h.4c.7 0 .9.1 1.2.8l1.8 4.6c.1.4.2.9.2.9s.1-.5.2-.9l1.8-4.6c.2-.7.5-.8 1.2-.8h.4v.9h-.1c-.3 0-.4.1-.5.3l-2.4 6.2h-1.1l-2.5-6.2zm7.7 4.4s.8 1.1 2.3 1.1c.8 0 1.6-.4 1.6-1.2 0-1.6-4.1-1.3-4.1-3.7 0-1.3 1.1-2 2.6-2 .7 0 2.2.3 2.2 1.3v.6h-.9v-.4c0-.5-.8-.7-1.3-.7-1 0-1.6.4-1.6 1.1 0 1.7 4.1 1.3 4.1 3.7 0 1.2-1.1 2.1-2.6 2.1-1.9 0-2.8-1.3-2.8-1.3l.5-.6zm15.5-5.8c0-1.1-.8-1.9-2.1-1.9-1 0-1.8.5-1.8 1.1v.5h-1v-.8c0-1.3 1.8-1.8 2.8-1.8 2 0 3.1 1.3 3.1 2.9 0 3.6-5.4 3.5-5.4 6.4 0 .2.1.3.3.3h4.3c.2 0 .3-.1.3-.3v-.7h1v1c0 .6-.3.9-.9.9h-5.2c-.7 0-.9-.3-.9-1 0-3.9 5.5-3.5 5.5-6.6zm3 2.4c0-3 .9-5.3 3.5-5.3 2.7 0 3.6 2.4 3.6 5.3 0 3-.9 5.3-3.6 5.3-2.7.1-3.5-2.3-3.5-5.3zm6 0c0-2.4-.6-4.4-2.5-4.4s-2.5 1.9-2.5 4.4.6 4.4 2.5 4.4 2.5-1.9 2.5-4.4zm2.6 4.3h2.3v-8.2s-.1.2-.5.6l-1.1 1.1-.6-.7 2.3-2.3h1v9.4h2.3v.9h-5.6v-.8h-.1zm6.5-3.6c0-2.6 1.3-5.9 4.5-5.9 1.1 0 1.9.4 1.9.4l-.4.9s-.6-.4-1.5-.4c-2.2 0-3.2 2.2-3.4 4.2.5-.8 1.6-1.2 2.6-1.2 1.9 0 3.2 1.3 3.2 3.3 0 2.1-1.4 3.4-3.2 3.4-2.2 0-3.7-2.1-3.7-4.7zm3.7 3.7c1.4 0 2.2-1.1 2.2-2.5s-.9-2.4-2.3-2.4-2.5.9-2.5 1.8c0 1.4 1.1 3.1 2.6 3.1zm88.5-47h.2c.3 0 .5-.1.6-.4l3.9-10.6h1.9l3.9 10.6c.1.3.3.4.6.4h.3v1.5h-1c-.9 0-1.2-.2-1.5-1l-.9-2.6h-4.6l-.9 2.6c-.3.8-.6 1-1.5 1h-1v-1.5zm7.6-3.6l-1.4-3.8c-.2-.7-.5-1.8-.5-1.8s-.2 1.1-.5 1.8l-1.4 3.8h3.8zm5.7 2.2s1.3 1.5 3.1 1.5c1.2 0 2.2-.7 2.2-1.9 0-2.6-6.1-2.2-6.1-6.1 0-1.9 1.7-3.4 4-3.4 1.3 0 3.6.6 3.6 2.3v1h-1.6v-.5c0-.7-.9-1.1-1.9-1.1-1.4 0-2.2.7-2.2 1.7 0 2.5 6 2 6 6.1 0 1.9-1.5 3.6-4 3.6-2.7 0-4.2-1.9-4.2-1.9l1.1-1.3zm8.6 1.4h1.2V696h-1.2v-1.5h4.1v1.5h-1.2v9.5h1.2v1.5h-4.1v-1.5zm5.1 0h.2c.3 0 .5-.1.6-.4l3.9-10.6h1.9l3.9 10.6c.1.3.3.4.6.4h.3v1.5h-1c-.9 0-1.2-.2-1.5-1l-.9-2.6h-4.6l-.9 2.6c-.3.8-.6 1-1.5 1h-1v-1.5zm7.5-3.6l-1.4-3.8c-.2-.7-.5-1.8-.5-1.8s-.2 1.1-.5 1.8l-1.4 3.8h3.8zm14-4.1c2.5 0 3.9 1.9 3.9 4.2 0 .2-.1.7-.1.7h-6.6c.1 1.9 1.5 3 3.1 3 1.5 0 2.6-1 2.6-1l.7 1.2s-1.3 1.3-3.5 1.3c-2.8 0-4.8-2-4.8-4.7.2-2.9 2.1-4.7 4.7-4.7zm2.1 3.7c-.1-1.5-1-2.3-2.1-2.3-1.3 0-2.4.8-2.6 2.3h4.7zM546.7 712c3.6 0 6.5 2.8 6.5 6.4 0 3.7-2.8 6.6-6.5 6.6s-6.4-2.9-6.4-6.6c-.1-3.6 2.7-6.4 6.4-6.4zm0 11.3c2.5 0 4.6-2.1 4.6-4.9 0-2.7-2.1-4.7-4.6-4.7s-4.6 2.1-4.6 4.7c0 2.8 2 4.9 4.6 4.9zm13.9-11.3c1.7 0 4.7.7 4.7 2.7v1.2h-1.6v-.7c0-1-1.8-1.6-3-1.6-2.5 0-4.5 1.9-4.5 4.7 0 2.7 2 4.9 4.5 4.9s4-1.7 4-1.7l1 1.3s-1.8 2.1-4.9 2.1c-3.8 0-6.4-2.9-6.4-6.6-.1-3.5 2.6-6.3 6.2-6.3zm7.4 1.8h-1.2v-1.5h7.4c.8 0 1.1.3 1.1 1.1v1.6h-1.6v-.8c0-.3-.1-.4-.4-.4h-3.6v3.9h4.4v1.5h-4.4v3.6c0 .2.1.4.4.4h3.7c.2 0 .4-.1.4-.4v-.8h1.6v1.6c0 .8-.3 1.1-1.1 1.1h-5.6c-.8 0-1.1-.3-1.1-1.1v-9.8zm8.5 9.5h.2c.3 0 .5-.1.6-.4l3.9-10.6h1.9l3.9 10.6c.1.3.3.4.6.4h.3v1.5h-1c-.9 0-1.2-.2-1.5-1l-.9-2.6h-4.6l-.9 2.6c-.3.8-.6 1-1.5 1h-1v-1.5zm7.6-3.6l-1.4-3.8c-.2-.7-.5-1.8-.5-1.8s-.2 1.1-.5 1.8l-1.4 3.8h3.8zm4.7 3.6h.8c.2 0 .4-.1.4-.4v-10.6h1.6l5.6 7.9c.5.7 1 1.7 1 1.7s-.1-1-.1-1.7v-6.8c0-.8.3-1.1 1.2-1.1h1.8v1.5h-.8c-.2 0-.4.1-.4.4v10.6h-1.6l-5.6-7.9c-.5-.7-1-1.7-1-1.7s.1 1 .1 1.7v6.8c0 .8-.3 1.1-1.1 1.1h-1.8v-1.5h-.1zm13.6 0h1.2v-9.5h-1.2v-1.5h4.1v1.5h-1.2v9.5h1.2v1.5h-4.1v-1.5zm5.1 0h.2c.3 0 .5-.1.6-.4l3.9-10.6h1.9l3.9 10.6c.1.3.3.4.6.4h.3v1.5h-1c-.9 0-1.2-.2-1.5-1l-.9-2.6h-4.6l-.9 2.6c-.3.8-.6 1-1.5 1h-1v-1.5zm7.6-3.6l-1.4-3.8c-.2-.7-.5-1.8-.5-1.8s-.2 1.1-.5 1.8l-1.4 3.8h3.8zm-74.7 17.1h4v-4.4h1.5v4.4h4v1.4h-4v4.4h-1.5v-4.4h-4v-1.4zm10.8.2c0-3.3 1.8-7.2 5.7-7.2 1.5 0 2.4.5 2.4.5l-.6 1.5s-.8-.4-1.8-.4c-2.3 0-3.5 2.2-3.8 4.3.5-.8 1.7-1.2 2.8-1.2 2.4 0 4 1.8 4 4.1 0 2.5-1.7 4.2-4 4.2-2.7 0-4.7-2.3-4.7-5.8zm4.7 4.2c1.5 0 2.3-1.1 2.3-2.6s-1-2.6-2.6-2.6c-1.4 0-2.5.9-2.5 1.8 0 1.5 1.2 3.4 2.8 3.4zm7.9-.5l-1.5 3.7H561l1.1-3.7h1.7zm7.2-8c.4-.7.7-1.2.7-1.2s-.3.1-.9.1H567c-.2 0-.4.1-.4.4v.8H565v-1.6c0-.8.3-1.1 1.1-1.1h7.6v1.2l-6.1 11.3h-2l5.4-9.9zm3.9-.3c0-1.4 1.2-2.6 2.7-2.6s2.7 1.2 2.7 2.6c0 1.5-1.2 2.6-2.7 2.6-1.5.1-2.7-1.1-2.7-2.6zm9.9-2.4h1.7l-9.6 12.6h-1.7l9.6-12.6zm-5.9 2.4c0-.7-.6-1.3-1.3-1.3s-1.3.6-1.3 1.3.6 1.3 1.3 1.3 1.3-.5 1.3-1.3zm5.2 5.1c1.5 0 2.7 1.2 2.7 2.6 0 1.5-1.2 2.6-2.7 2.6s-2.7-1.2-2.7-2.6c0-1.4 1.1-2.6 2.7-2.6zm0 4c.7 0 1.3-.6 1.3-1.3s-.6-1.3-1.3-1.3-1.3.6-1.3 1.3c-.1.7.5 1.3 1.3 1.3zm-43.6 10.4c-.1-.3-.2-.3-.5-.3h-.1v-.9h.4c.7 0 .9.1 1.2.8l1.8 4.6c.1.4.2.9.2.9s.1-.5.2-.9l1.8-4.6c.2-.7.5-.8 1.2-.8h.4v.9h-.1c-.3 0-.4.1-.5.3l-2.4 6.2H543l-2.5-6.2zm7.7 4.4s.8 1.1 2.3 1.1c.8 0 1.6-.4 1.6-1.2 0-1.6-4.1-1.3-4.1-3.7 0-1.3 1.1-2 2.6-2 .7 0 2.2.3 2.2 1.3v.6h-.9v-.4c0-.5-.8-.7-1.3-.7-1 0-1.6.4-1.6 1.1 0 1.7 4.1 1.3 4.1 3.7 0 1.2-1.1 2.1-2.6 2.1-1.9 0-2.8-1.3-2.8-1.3l.5-.6zm15.5-5.8c0-1.1-.8-1.9-2.1-1.9-1 0-1.8.5-1.8 1.1v.5h-1v-.8c0-1.3 1.8-1.8 2.8-1.8 2 0 3.1 1.3 3.1 2.9 0 3.6-5.4 3.5-5.4 6.4 0 .2.1.3.3.3h4.3c.2 0 .3-.1.3-.3v-.7h1v1c0 .6-.3.9-.9.9h-5.2c-.7 0-.9-.3-.9-1 0-3.8 5.5-3.5 5.5-6.6zm3 2.5c0-3 .9-5.3 3.5-5.3 2.7 0 3.6 2.4 3.6 5.3 0 3-.9 5.3-3.6 5.3s-3.5-2.4-3.5-5.3zm6 0c0-2.4-.6-4.4-2.5-4.4s-2.5 1.9-2.5 4.4.6 4.4 2.5 4.4c2-.1 2.5-2 2.5-4.4zm2.6 4.2h2.3V749s-.1.2-.5.6l-1.1 1.1-.6-.7 2.3-2.3h1v9.4h2.3v.9h-5.6v-.8h-.1zm6.5-3.6c0-2.6 1.3-5.9 4.5-5.9 1.1 0 1.9.4 1.9.4l-.4.9s-.6-.4-1.5-.4c-2.2 0-3.2 2.2-3.4 4.2.5-.8 1.6-1.2 2.6-1.2 1.9 0 3.2 1.3 3.2 3.3 0 2.1-1.4 3.4-3.2 3.4-2.2 0-3.7-2-3.7-4.7zm3.7 3.7c1.4 0 2.2-1.1 2.2-2.5s-.9-2.4-2.3-2.4-2.5.9-2.5 1.8c0 1.4 1.1 3.1 2.6 3.1z" fill="#00245b"/></svg>