<svg baseProfile="basic" id="Layer_1" xmlns="http://www.w3.org/2000/svg" viewBox="0 0 772 814"><style>.st0{fill:#00245b}.st1{fill:#4a5496}.st2{fill:#ff322b}.st3{fill:#fff}</style><g id="ruota1"><path id="ultimo" class="st0" d="M196.2 209.4c.2 0 .5-.1.6-.3.3-.3.2-.9-.1-1.1-.3-.3-.9-.2-1.1.1-.3.3-.2.9.1 1.1.1.2.3.2.5.2z"/><path class="st0" d="M198.5 204.2c-.3.4-.2.9.2 1.1.2.1.3.2.5.2.3 0 .5-.1.7-.3.3-.4.2-.9-.2-1.1-.4-.3-.9-.2-1.2.1zm-5.6 9c.2 0 .5-.1.6-.3.3-.3.3-.8-.1-1.2-.3-.3-.9-.3-1.2.1-.3.3-.3.9.1 1.2.2.1.4.2.6.2z"/><path id="primo" class="st0" d="M200.4 197.9c-.6 1.5.2 3.2 1.7 3.7 1.5.6 3.2-.2 3.7-1.7.6-1.5-.2-3.2-1.7-3.7-1.5-.6-3.2.2-3.7 1.7z"/><path class="st0" d="M178.2 226.4c.2 0 .3 0 .5-.2.4-.3.4-.8.2-1.1-.3-.4-.8-.4-1.1-.2-.4.3-.5.8-.2 1.1.1.3.3.4.6.4zm11.3-9.6c.2 0 .4-.1.6-.2.3-.3.3-.8 0-1.2-.3-.3-.8-.3-1.2 0-.3.3-.3.8 0 1.2.2.1.4.2.6.2zm-19.6 15c.1 0 .3 0 .4-.1.4-.2.5-.7.3-1.1s-.7-.5-1.1-.3-.5.7-.3 1.1c.1.3.4.4.7.4zm12.2-8.4c.2 0 .4-.1.5-.2.4-.3.4-.8.1-1.2-.3-.3-.8-.4-1.1-.1-.4.3-.4.8-.1 1.1.2.3.4.4.6.4zm3.8-3.2c.2 0 .4-.1.5-.2.3-.3.4-.8.1-1.2-.3-.3-.8-.4-1.1-.1s-.4.8-.1 1.2c.2.2.4.3.6.3zm-11.8 9c.1 0 .3 0 .4-.1.4-.3.5-.8.2-1.1-.2-.4-.8-.5-1.1-.2-.4.2-.5.7-.2 1.1.2.2.4.3.7.3zm-66.5 14.3c.5 0 .8-.3.9-.7s-.2-.9-.7-.9c-.5-.1-.9.2-.9.7s.3.9.7.9zm17.8-189.3c.5 0 .8-.3.8-.8s-.3-.8-.8-.8-.8.3-.9.8c.1.5.4.8.9.8zm2.1 190.3c.5 0 .8-.4.8-.9s-.4-.8-.9-.8-.8.4-.8.9c.1.5.5.8.9.8zm9.9-1.1h.1c.5-.1.8-.5.7-.9s-.5-.7-.9-.7c-.4.1-.7.5-.7.9s.4.7.8.7zm-14.9 1.3c.1 0 .1 0 0 0 .5 0 .8-.4.8-.8 0-.5-.4-.8-.8-.8s-.8.4-.8.8.4.8.8.8zm12.6-189.6c.5 0 .9-.3.9-.7.1-.4-.3-.9-.7-.9-.4-.1-.9.3-.9.7s.3.8.7.9zm-4.8-.6c.5 0 .9-.3.9-.7s-.3-.8-.8-.9c-.4 0-.8.3-.9.7 0 .5.3.9.8.9zm2.1 189.6h.1c.4 0 .8-.4.7-.9-.1-.4-.5-.8-.9-.7-.4 0-.8.5-.7.9s.4.7.8.7zM120.5 54.2c.5 0 .8-.4.8-.8 0-.5-.4-.8-.8-.8s-.8.4-.8.8c-.1.4.3.8.8.8zm-14.8 1.4c.5-.1.8-.5.8-.9-.1-.5-.5-.7-.9-.7-.5.1-.7.5-.7.9.1.5.4.7.8.7zm59.8 178.6c.1 0 .2 0 .4-.1.4-.2.6-.7.4-1.1s-.7-.6-1.1-.4-.6.7-.4 1.1c.1.3.4.5.7.5zM110.6 54.9c.5-.1.9-.5.8-.9s-.5-.8-.9-.7c-.4 0-.8.5-.7.9 0 .4.4.7.8.7zm-7.9 187.8h.2c.4 0 .7-.3.8-.6.1-.4-.2-.9-.6-1s-.9.2-1 .6.1.9.6 1zm12.8-188.3c.5 0 .8-.4.8-.9s-.4-.8-.9-.8c-.4 0-.8.4-.8.9.1.5.5.8.9.8zm-2.9 189.8c.5 0 .9-.3.9-.7s-.3-.8-.7-.9c-.4 0-.8.3-.9.7s.2.8.7.9zm5 .3c.5 0 .8-.3.8-.8 0-.4-.3-.8-.8-.8s-.8.3-.9.8c.1.4.4.8.9.8zM100.9 56.6h.2c.4-.1.7-.5.6-1-.1-.4-.5-.7-1-.6-.4.1-.7.5-.6 1 .1.3.4.6.8.6zM161 236.3c.1 0 .2 0 .3-.1.4-.2.6-.7.4-1.1s-.7-.6-1.1-.4-.6.7-.4 1.1.5.5.8.5zm-9.2 3.6h.3c.4-.1.7-.6.5-1-.1-.4-.6-.7-1-.5-.4.1-.7.6-.5 1 0 .3.4.5.7.5zm4.7-1.7h.3c.4-.2.6-.6.5-1.1-.2-.4-.6-.6-1-.5-.4.2-.6.6-.5 1.1 0 .3.3.5.7.5zm-14.4 2.7c-.4.1-.7.5-.6 1 .1.4.4.7.8.7h.2c.4-.1.7-.5.6-1-.2-.5-.6-.8-1-.7zm4.2-.2c.1.4.4.6.8.6h.2c.4-.1.7-.6.6-1s-.6-.7-1-.6c-.5.1-.8.6-.6 1zm-6.8-185c.1.1.2.1.3.2.1 0 .2.1.3.1.2 0 .4-.1.6-.2.1-.1.1-.2.2-.3 0-.1.1-.2.1-.3 0-.2-.1-.4-.2-.6-.3-.3-.9-.3-1.2 0-.2.2-.2.4-.2.6 0 .1 0 .2.1.3-.1 0 0 .1 0 .2zM57.6 79.3c.2 0 .4-.1.6-.2.3-.3.3-.8 0-1.2-.3-.3-.8-.4-1.2 0-.3.3-.3.8 0 1.1.1.2.4.3.6.3zm40.2 162.2h.2c.4 0 .7-.2.8-.6s-.2-.9-.6-1-.9.1-1 .6.2.9.6 1zm-34.4-17.1c.3 0 .5-.1.7-.3.3-.4.2-.9-.2-1.1-.4-.3-.9-.2-1.2.1s-.2.9.1 1.1c.2.2.4.2.6.2zm5.9-154.2c.2 0 .3 0 .5-.1.4-.3.5-.7.2-1.1s-.8-.5-1.1-.2c-.4.3-.5.8-.2 1.1 0 .2.3.3.6.3zm-2.1 157.1c.3 0 .5-.1.7-.3.3-.4.2-.9-.2-1.1-.4-.3-.9-.2-1.1.2-.3.4-.2.9.2 1.1.1.1.3.1.4.1zM65.2 73c.2 0 .3 0 .5-.2.4-.3.4-.8.2-1.1-.3-.4-.8-.4-1.2-.2-.4.3-.4.8-.2 1.2.2.2.5.3.7.3zm-3.9 3.1c.2 0 .4-.1.5-.2.4-.3.4-.8.1-1.1-.3-.4-.8-.4-1.2-.1-.3.3-.4.8-.1 1.1.2.2.5.3.7.3zM47.5 90.2c.2 0 .5-.1.6-.3.3-.4.2-.9-.1-1.1-.4-.3-.9-.2-1.1.1-.3.4-.2.9.1 1.2.1 0 .3.1.5.1zm8.6 127.9c.2 0 .4-.1.6-.3.3-.3.3-.8 0-1.2-.3-.3-.8-.3-1.1 0s-.3.9 0 1.2c.1.2.3.3.5.3zm-9.7-10.8c.2 0 .3-.1.5-.2.4-.3.4-.8.1-1.2-.3-.4-.8-.4-1.1-.2-.4.3-.4.8-.2 1.1.2.4.5.5.7.5zm3.1 3.8c.2 0 .4-.1.5-.2.3-.3.4-.8.1-1.1s-.8-.4-1.1-.1c-.4.3-.4.8-.1 1.2.1.1.3.2.6.2zM54 82.8c.2 0 .4-.1.6-.2.3-.3.3-.8 0-1.2-.3-.3-.8-.3-1.2 0-.3.3-.3.8 0 1.2.2.1.4.2.6.2zm-1.3 131.9c.2 0 .4-.1.5-.2.3-.3.4-.8 0-1.2-.3-.3-.8-.3-1.1 0s-.4.8 0 1.2c.1.1.4.2.6.2zM50.6 86.4c.2 0 .5-.1.6-.3.3-.3.3-.8-.1-1.1-.3-.3-.8-.3-1.1.1-.3.3-.3.9.1 1.2.2 0 .4.1.5.1zm-6.1 7.7c.3 0 .5-.1.7-.3.3-.4.2-.9-.2-1.1-.4-.3-.9-.2-1.1.2-.3.4-.2.9.2 1.1.1.1.2.1.4.1zm46.9-34.8c.1 0 .2 0 .3-.1.4-.1.7-.6.5-1-.1-.4-.6-.7-1-.5-.4.1-.7.6-.5 1 0 .4.3.6.7.6zM93 240.1h.2c.3 0 .7-.2.8-.6s-.1-.9-.5-1-.9.1-1 .5c-.2.5.1 1 .5 1.1zm-5-1.8c.1.1.2.1.3.2.1 0 .2.1.3.1s.2 0 .3-.1c.1 0 .2-.1.3-.2s.1-.2.2-.3c0-.1.1-.2.1-.3 0-.2-.1-.4-.2-.6-.3-.3-.8-.3-1.1 0-.1.1-.1.2-.2.3 0 .1-.1.2-.1.3s0 .2.1.3c-.2.1-.1.2 0 .3zm-17.2-8.5c.1.1.3.1.4.1.3 0 .5-.1.7-.4.2-.4.1-.9-.3-1.1s-.9-.1-1.1.3-.1.9.3 1.1zm25.3-172h.2c.4-.1.7-.6.6-1s-.6-.7-1-.6-.7.6-.6 1 .4.6.8.6zM75 232.3c.1.1.3.1.4.1.3 0 .6-.2.7-.4.2-.4.1-.9-.3-1.1s-.9-.1-1.1.3-.1.9.3 1.1zm2.8-167.1c.1 0 .3 0 .4-.1.4-.2.5-.7.3-1.1s-.7-.6-1.1-.3c-.4.2-.6.7-.3 1.1.1.2.4.4.7.4zm-4.4 2.4c.1 0 .3 0 .4-.1.4-.2.5-.7.3-1.1s-.7-.5-1.1-.3-.5.7-.3 1.1c.2.2.5.4.7.4zm8.8-4.6c.1 0 .2 0 .4-.1.4-.2.6-.7.4-1.1s-.7-.6-1.1-.4-.6.7-.4 1.1c.1.3.4.5.7.5zm1.6 173.7c0-.1 0-.1 0 0 .1 0 .2.1.3.1.3 0 .6-.2.7-.5.2-.4 0-.9-.4-1.1-.4-.2-.9 0-1.1.4s0 .9.5 1.1zm-4.5-2.1c.1.1.2.1.4.1.3 0 .6-.2.7-.5.2-.4 0-.9-.4-1.1s-.9 0-1.1.4c-.1.4 0 .9.4 1.1zM86.7 61c.1 0 .2 0 .3-.1.4-.2.6-.6.4-1.1-.2-.4-.6-.6-1.1-.5-.4.2-.6.6-.4 1.1.2.4.5.6.8.6zM59.6 221.3c.2 0 .5-.1.6-.3.3-.3.3-.9-.1-1.1-.3-.3-.9-.3-1.2.1-.3.3-.3.9.1 1.1.3.2.5.2.6.2zm-16-17.9c.2 0 .3-.1.5-.1.4-.3.5-.8.2-1.1-.3-.4-.8-.5-1.1-.2-.4.3-.5.8-.2 1.1.1.2.3.3.6.3zm-16.4-64.1c.5 0 .8-.3.9-.7 0-.5-.3-.9-.7-.9-.4-.1-.8.3-.9.7 0 .4.3.8.7.9zm.6-4.8h.1c.4 0 .7-.3.8-.7.1-.4-.2-.9-.7-.9-.4-.1-.9.2-.9.7 0 .4.3.8.7.9zm-.9 9.6c.5 0 .8-.3.9-.8 0-.4-.3-.8-.8-.9-.5 0-.8.3-.9.8 0 .5.3.9.8.9zm-.1 4.8c.4 0 .8-.4.8-.8s-.4-.8-.8-.8-.8.4-.8.8c0 .5.3.8.8.8zm5.8 33.1c.1 0 .2 0 .3-.1.4-.2.6-.6.5-1-.2-.4-.6-.6-1-.5-.4.2-.6.6-.5 1.1 0 .3.3.5.7.5zm-2.8-57h.2c.4 0 .7-.2.8-.6s-.1-.9-.6-1c-.4-.1-.9.1-1 .6s.1.9.6 1zm1.3-4.6h.3c.3 0 .7-.2.8-.6s-.1-.9-.5-1-.9.1-1 .5c-.3.5 0 1 .4 1.1zm-2.4 9.4h.2c.4 0 .7-.3.8-.7s-.2-.9-.6-1-.9.2-1 .6c-.1.5.1 1 .6 1.1zm2.3 47.6h.2c.4-.1.7-.6.5-1-.1-.4-.6-.7-1-.5-.4.1-.7.6-.5 1 .2.3.5.5.8.5zm5.5-70.7c.1.1.2.1.4.1.3 0 .6-.2.7-.4.2-.4 0-.9-.4-1.1s-.9 0-1.1.4c-.1.4 0 .8.4 1zm2 88.5c.1 0 .3 0 .4-.1.4-.2.5-.7.3-1.1s-.7-.5-1.1-.3-.5.7-.3 1.1c.2.2.4.4.7.4zm-4-84c.1 0 .2.1.3.1.3 0 .6-.2.8-.5.2-.4 0-.9-.4-1.1s-.9 0-1.1.4c-.2.5-.1 1 .4 1.1zm1.1 79.2c.1.3.4.5.7.5.1 0 .2 0 .3-.1.4-.2.6-.7.4-1.1s-.7-.6-1.1-.4c-.3.2-.5.7-.3 1.1zm5.7-92.3c.1.1.3.1.4.1.3 0 .5-.1.7-.4.2-.4.1-.9-.3-1.1s-.9-.1-1.1.3-.1.9.3 1.1zm-2.5 4.3c.1.1.3.1.4.1.3 0 .6-.1.7-.4.2-.4.1-.9-.3-1.1s-.9-.1-1.1.3-.1.8.3 1.1zm-9.1 70.4h.2c.4-.1.7-.6.6-1s-.6-.7-1-.6-.7.6-.6 1c.1.3.5.6.8.6zM41 199.3c.2 0 .3 0 .4-.1.4-.2.5-.7.3-1.1s-.7-.5-1.1-.3-.5.7-.3 1.1c.1.3.4.4.7.4zm-14.1-45.6c.4 0 .8-.4.8-.8 0-.5-.4-.8-.9-.8s-.8.4-.8.8c.1.5.4.9.9.8 0 .1 0 .1 0 0zm.9 9.6h.1c.4-.1.7-.5.7-.9-.1-.5-.5-.8-.9-.7-.5.1-.8.5-.7.9s.4.7.8.7zm.8 4.8h.2c.4-.1.7-.5.6-1-.1-.4-.5-.7-1-.6-.4.1-.7.5-.6 1 .1.3.5.6.8.6zm-1.4-9.5c.5 0 .9-.4.8-.9-.1-.4-.4-.8-.9-.7-.4 0-.8.4-.7.9 0 .3.4.7.8.7zm5.7-42.7c.2 0 .4-.1.6-.2.1-.1.2-.3.2-.6 0-.1 0-.2-.1-.3 0-.1-.1-.2-.2-.3s-.2-.1-.3-.2c-.2-.1-.4-.1-.6 0-.1 0-.2.1-.3.2s-.1.2-.2.3c0 .1-.1.2-.1.3 0 .2.1.4.2.6.4.1.6.2.8.2zm.7 70.1c.1.3.4.5.8.5.1 0 .2 0 .3-.1.4-.2.6-.7.4-1.1s-.6-.6-1.1-.4c-.4.2-.6.7-.4 1.1z"/></g><ellipse class="st1" cx="336.8" cy="139.1" rx="138.6" ry="138.5"/><path class="st0" d="M465.8 204.8c-.3-.1-.6-.1-.8 0-.4.1-.7.5-.8.9-.2.7.2 1.5.9 1.6.7.2 1.4-.2 1.7-.9.1-.7-.3-1.4-1-1.6zm9.1-22.5c-.3-.2-.7-.2-1-.1s-.6.3-.8.7c-.3.7 0 1.5.6 1.8.7.3 1.5 0 1.8-.6.3-.7.1-1.4-.6-1.8zm-7.3 17.3c.7.3 1.4-.1 1.7-.8.2-.7-.1-1.4-.8-1.7-.3-.1-.6-.1-.9 0s-.7.4-.8.8c-.3.7.1 1.5.8 1.7zm-9.8 17.4c-.1 2.6 2 4.8 4.6 4.9s4.8-2 4.9-4.6-2-4.8-4.6-4.9c-2.7-.1-4.9 2-4.9 4.6zm14.4-25.6c.3-.7-.1-1.5-.7-1.7-.3-.1-.7-.1-.9 0-.4.1-.7.4-.8.8-.3.7 0 1.4.7 1.7.6.2 1.4-.1 1.7-.8zm5.2-13.9c.6.4 1.4.1 1.8-.5s.2-1.5-.5-1.8c-.3-.2-.7-.2-1.1-.1-.3.1-.6.3-.7.6-.4.6-.1 1.5.5 1.8zm179.2-73.9c.7.2 1.4-.2 1.6-.9s-.2-1.4-.9-1.6c-.3-.1-.5-.1-.8 0-.4.1-.7.5-.9.9-.1.6.3 1.4 1 1.6zm11.1 294.7c.7-.2 1.1-1 .8-1.7-.2-.7-1-1-1.7-.8s-1 1-.8 1.7c.3.7 1 1 1.7.8zm-7.7 2.6c.7-.2 1.1-1 .9-1.7s-1-1.1-1.7-.9-1 .9-.8 1.6c.2.8.9 1.2 1.6 1zm11.4-292.3c.7.3 1.5-.1 1.7-.7.2-.7-.1-1.5-.7-1.7-.3-.1-.7-.1-.9 0-.4.1-.7.4-.8.8-.3.6 0 1.4.7 1.6zm3.9 286.7c.7-.3 1-1.1.7-1.7-.3-.7-1-1-1.7-.7h-.1c-.7.3-1 1.1-.7 1.7.3.7 1.1 1 1.8.7zm7.3-3.4c.7-.3.9-1.1.6-1.8-.3-.6-1-.9-1.6-.7-.1 0-.1 0-.2.1-.6.3-.9 1.1-.6 1.8.4.7 1.2.9 1.8.6zm-4.1-280.2c.6.3 1.4 0 1.7-.6.3-.7 0-1.5-.6-1.8-.3-.2-.7-.2-1-.1s-.6.4-.8.7c-.2.7.1 1.5.7 1.8zm-14.4-5.8c.7.2 1.4-.1 1.7-.8.2-.7-.1-1.4-.8-1.7-.3-.1-.6-.1-.9 0-.4.1-.7.4-.8.8-.3.7.1 1.5.8 1.7zm-29.2 298.4c-.1.2-.1.3-.1.5s0 .3.1.5c.1.3.4.6.7.8.6.3 1.5 0 1.8-.6.2-.3.2-.7.1-1-.1-.2-.1-.3-.3-.5-.1-.1-.2-.2-.4-.3s-.3-.1-.5-.1-.3 0-.5.1c-.5 0-.8.3-.9.6zm-1.2-305.4c.7.1 1.4-.4 1.5-1.2.1-.7-.4-1.4-1.2-1.5h-.6c-.5.2-.8.6-.9 1.1 0 .8.5 1.5 1.2 1.6zm16.9 303.2c.2.7.9 1.1 1.6.9s1.1-.9 1-1.6c-.2-.7-.9-1.1-1.6-1h-.1c-.7.4-1.1 1-.9 1.7zm-25.4 4.5l9.4 3.7-2.2-4.9.5-5.4-7.7 6.6zM641.4 100c.7.1 1.4-.4 1.6-1.1.1-.7-.4-1.4-1.1-1.5-.2-.1-.5 0-.7 0-.4.1-.8.5-.9 1-.1.8.4 1.5 1.1 1.6zm7.7 1.6c.7.2 1.4-.3 1.6-1s-.3-1.4-1-1.6c-.3-.1-.5-.1-.7 0-.4.1-.8.5-.9 1-.2.8.2 1.5 1 1.6zm-6.4 302.2c.1.7.9 1.2 1.6 1 .7-.1 1.2-.9 1-1.6-.1-.7-.8-1.2-1.6-1-.1 0-.1 0-.2.1-.5.2-.9.8-.8 1.5zm60.9-24.2c.6-.4.7-1.2.3-1.9-.3-.5-1-.7-1.5-.5-.1 0-.2.1-.3.2-.6.4-.8 1.3-.3 1.9.4.5 1.2.7 1.8.3zM764 216.8c.2.7.9 1.2 1.6 1 .7-.1 1.1-.8 1-1.6-.2-.7-.9-1.1-1.6-1h-.1c-.6.3-1 .9-.9 1.6zm-1.9-7.6c.2.7.9 1.1 1.6.9s1.1-.9.9-1.7c-.2-.7-.9-1.1-1.7-.9h-.1c-.5.3-.9 1.1-.7 1.7zm-76.6-94c.6.3 1.4.1 1.8-.5.4-.7.1-1.5-.6-1.8-.3-.2-.7-.2-1.1-.1-.3.1-.6.3-.7.6-.3.6 0 1.4.6 1.8zm83.2 123.3c-.1 0-.2 0-.4.1-.6.2-.9.7-.9 1.4s.7 1.3 1.4 1.2 1.3-.7 1.2-1.4c.1-.9-.5-1.4-1.3-1.3zm-1.1-7.8c-.6.2-1 .8-.9 1.4.1.7.7 1.3 1.5 1.1.7-.1 1.3-.7 1.2-1.5-.1-.7-.8-1.2-1.5-1.2-.1.2-.2.1-.3.2zm-6.1-28.1c.7-.2 1.1-1 .8-1.7-.2-.7-1-1.1-1.7-.8-.7.2-1.1 1-.8 1.7.2.7 1 1.1 1.7.8zm7.7 43.7c-.1 0-.3 0-.4.1-.5.2-.9.7-.9 1.3 0 .7.6 1.3 1.4 1.3.7 0 1.3-.6 1.3-1.4-.1-.7-.7-1.3-1.4-1.3zm-3.6-21.9c.1.7.8 1.2 1.6 1 .7-.1 1.2-.8 1.1-1.5s-.8-1.2-1.5-1h-.2c-.8.2-1.1.8-1 1.5zM696.8 384c.6-.4.8-1.2.4-1.8-.3-.5-1-.8-1.6-.6-.1 0-.2.1-.3.1-.6.4-.8 1.2-.4 1.8.5.7 1.3.9 1.9.5zm-4.5-265.1c.6.4 1.4.2 1.8-.5s.2-1.4-.5-1.8c-.3-.2-.7-.2-1.1-.1-.3.1-.6.3-.7.6-.3.7-.1 1.5.5 1.8zm-2.5 269.2c.7-.3.9-1.2.5-1.8-.3-.6-1-.8-1.6-.6-.1 0-.1.1-.2.1-.6.4-.9 1.2-.5 1.8.4.7 1.2.9 1.8.5zm9.2-265c.6.4 1.4.2 1.8-.4s.2-1.4-.4-1.8c-.4-.2-.8-.3-1.2-.1-.2.1-.5.3-.7.5-.3.6-.2 1.4.5 1.8zm59.8 72.1c.7-.3 1-1 .8-1.7-.3-.7-1-1-1.7-.8l-.1.1c-.7.3-1 1-.8 1.7.3.7 1.1 1 1.8.7zm-51.6-67.9c.4-.6.3-1.4-.3-1.9-.4-.2-.8-.3-1.2-.2-.2.1-.5.3-.6.5-.4.6-.3 1.4.3 1.9.6.4 1.4.3 1.8-.3zm-166.1-11.4c.6-.3.9-1.1.5-1.8-.3-.6-1-.9-1.6-.6-.1 0-.1 0-.2.1-.7.3-.9 1.1-.5 1.8.3.7 1.1.9 1.8.5zM520.9 129c.6-.4.7-1.3.2-1.9-.4-.5-1-.6-1.5-.4-.1 0-.2.1-.4.2-.6.4-.7 1.3-.2 1.9.5.5 1.3.6 1.9.2zm6.5-4.7c.6-.4.8-1.3.4-1.8-.3-.5-1-.7-1.5-.5-.1 0-.2.1-.3.1-.6.4-.8 1.2-.4 1.8.3.6 1.2.8 1.8.4zm-12.8 9.7c.5-.5.6-1.3.2-1.9-.4-.4-.9-.6-1.4-.4-.2.1-.3.1-.4.2-.5.5-.6 1.3-.1 1.9.3.5 1.2.6 1.7.2zm-33.1 36.5c.6.4 1.4.2 1.8-.4s.2-1.4-.4-1.8c-.4-.3-.8-.3-1.2-.2-.3.1-.5.3-.7.5-.4.7-.2 1.5.5 1.9zm52.6-50.6c.6-.4.8-1.2.4-1.8-.3-.5-1-.8-1.6-.6-.1 0-.1.1-.2.1-.6.4-.8 1.2-.4 1.8.4.7 1.2.9 1.8.5zm-25.4 19.4c.5-.5.6-1.4 0-1.9-.4-.4-.9-.5-1.4-.4-.2.1-.3.2-.5.3-.5.5-.6 1.3 0 1.9.5.6 1.3.6 1.9.1zM492.5 157c.4-.6.3-1.4-.2-1.8-.4-.3-.8-.4-1.3-.2-.2.1-.4.2-.6.4-.4.6-.3 1.4.2 1.9.6.4 1.4.3 1.9-.3zm-4.8 6.4c.4-.6.3-1.4-.3-1.8-.4-.3-.8-.3-1.2-.2-.2.1-.5.2-.7.5-.4.6-.3 1.4.3 1.8.6.5 1.5.3 1.9-.3zm9.8-12.6c.5-.5.4-1.4-.1-1.9-.4-.3-.9-.4-1.3-.2-.2.1-.4.2-.6.4-.5.6-.4 1.4.1 1.9.6.4 1.5.4 1.9-.2zm5.4-5.9c.5-.5.5-1.4 0-1.9-.4-.4-.9-.4-1.4-.3-.2.1-.4.2-.5.3-.5.5-.5 1.4 0 1.9.6.5 1.4.5 1.9 0zm45.3-32.6c.7-.3 1-1.1.6-1.8-.3-.6-1-.9-1.6-.7-.1 0-.1 0-.2.1-.7.3-.9 1.1-.6 1.8.4.7 1.2 1 1.8.6zm53.9-14.2c.7 0 1.3-.7 1.2-1.4 0-.7-.7-1.3-1.4-1.2-.1 0-.2 0-.3.1-.6.2-.9.7-.9 1.3 0 .7.7 1.2 1.4 1.2zm23.8 0c.7.1 1.4-.5 1.4-1.2.1-.7-.5-1.3-1.2-1.4h-.5c-.5.2-.9.6-.9 1.2 0 .7.5 1.3 1.2 1.4zm-15.8-.4c.7 0 1.3-.6 1.3-1.4 0-.7-.6-1.3-1.4-1.3-.1 0-.3 0-.4.1-.5.2-.9.7-.9 1.3.1.7.7 1.3 1.4 1.3zm7.5-.2c.6.3 1.4 0 1.7-.6.1-.2.1-.3.1-.5s0-.4-.1-.5c-.1-.2-.1-.3-.3-.5-.1-.1-.2-.2-.4-.3s-.3-.1-.5-.1-.3 0-.5.1-.3.1-.4.3c-.1.1-.3.3-.3.4-.1.2-.1.3-.1.5s0 .4.1.5c.2.3.4.6.7.7zm-47 6.3c.7-.2 1.1-.9.9-1.6s-.9-1.1-1.7-.9h-.1c-.6.2-1 .9-.8 1.6.3.7 1 1.1 1.7.9zm-7.6 2.5c.7-.2 1-1 .8-1.7s-1-1.1-1.7-.8c-.7.3-1.1 1-.8 1.7.3.6 1 1 1.7.8zm-7.5 2.8c.7-.3 1-1 .7-1.7-.3-.6-1-1-1.6-.7h-.1c-.7.3-1 1.1-.7 1.7.3.7 1.1 1 1.7.7zm38.6-10.2c.7-.1 1.3-.7 1.2-1.5-.1-.7-.8-1.2-1.5-1.2-.1 0-.2 0-.3.1-.6.2-.9.8-.9 1.4.1.8.8 1.3 1.5 1.2zm-7.9 1.2c.7-.2 1.2-.8 1.1-1.5-.2-.7-.8-1.2-1.5-1.1h-.2c-.6.2-1 .8-.9 1.5.1.8.8 1.2 1.5 1.1zm-7.8 1.7c.7-.2 1.1-.9 1-1.6-.2-.7-.9-1.1-1.6-1-.1 0-.1 0-.2.1-.6.2-1 .9-.8 1.6.2.6.9 1 1.6.9zm189.7 168.4c-.2 0-.4 0-.6.1-.5.2-.8.6-.9 1.1-.1.7.4 1.4 1.1 1.5.8.1 1.4-.4 1.5-1.1.1-.8-.4-1.5-1.1-1.6zm-10 38.9c-.3-.1-.7-.1-.9 0-.4.1-.7.4-.8.8-.3.7 0 1.4.7 1.7s1.4 0 1.7-.7 0-1.5-.7-1.8zm-3.2 7.4c-.3-.1-.7-.1-1 0s-.6.3-.8.7c-.3.7 0 1.4.6 1.8.7.3 1.4 0 1.8-.6.3-.8 0-1.6-.6-1.9zm1.5-130.3c-.3-.6-1-.9-1.7-.7h-.1c-.7.3-1 1.1-.7 1.8.3.6 1.1 1 1.8.6.7-.2 1-1 .7-1.7zm-5.1 137.5c-.3-.2-.7-.2-1.1-.1-.3.1-.6.3-.8.6-.3.6-.1 1.4.6 1.8.6.4 1.4.1 1.8-.6.4-.5.1-1.3-.5-1.7zm1.6-144.6c-.3-.6-1-.8-1.6-.6-.1 0-.2.1-.2.1-.6.3-.9 1.1-.6 1.8s1.1.9 1.8.6c.7-.4 1-1.2.6-1.9zm-5.4-7.5c-.1 0-.2.1-.2.1-.6.4-.9 1.2-.5 1.8s1.2.8 1.8.5c.6-.4.8-1.2.5-1.8s-1-.8-1.6-.6zm-4.1-6.6c-.1 0-.2.1-.3.1-.6.4-.8 1.2-.4 1.8.4.6 1.2.8 1.9.4.6-.4.8-1.2.4-1.8-.4-.5-1.1-.7-1.6-.5zm4 165.7c-.4-.2-.8-.2-1.1-.1s-.6.3-.7.6c-.4.6-.2 1.4.4 1.8.7.4 1.4.2 1.8-.4.4-.7.2-1.5-.4-1.9zm19.5-52.5c-.2-.1-.5 0-.7.1-.4.1-.8.5-.9 1-.1.7.3 1.4 1.1 1.6.7.1 1.4-.4 1.6-1.1.1-.8-.4-1.5-1.1-1.6zm2-16c-.2 0-.4 0-.5.1-.5.2-.9.6-.9 1.1-.1.7.5 1.4 1.2 1.4.7.1 1.4-.5 1.4-1.2s-.5-1.3-1.2-1.4zm-8 39.3c-.3-.1-.6-.1-.9 0-.4.1-.7.4-.8.8-.2.7.1 1.4.8 1.7.7.2 1.4-.1 1.7-.8.2-.6-.1-1.4-.8-1.7zm2.4-7.6c-.3-.1-.5-.1-.8 0-.4.1-.7.5-.9.9-.2.7.2 1.4.9 1.6s1.4-.2 1.6-.9c.3-.7-.1-1.4-.8-1.6zm2-7.8c-.3 0-.5 0-.7.1-.4.1-.8.5-.9.9-.2.7.3 1.4 1 1.6s1.4-.3 1.6-1c.2-.8-.3-1.5-1-1.6zm-23.4 51.3c-.2.1-.5.2-.7.5-.4.6-.3 1.4.3 1.8s1.4.3 1.9-.3c.4-.6.2-1.4-.4-1.9-.3-.2-.7-.3-1.1-.1zm27.9-83.1c-.3-.2-.7-.2-1-.1s-.6.3-.8.7c-.1.3-.2.6-.1 1 .1.2.1.3.3.5.1.1.3.3.4.3.2.1.3.1.5.1.3 0 .7-.1 1-.3.1-.1.2-.2.3-.4.1-.1.1-.3.1-.5s0-.3-.1-.5c-.1-.4-.3-.6-.6-.8zm-54.7 113c-.2.1-.3.1-.4.3-.6.5-.6 1.3-.1 1.9s1.3.6 1.9.1.6-1.3.1-1.9c-.4-.4-1-.5-1.5-.4zm6-5.4c-.2.1-.4.2-.5.3-.5.5-.5 1.3 0 1.9.5.5 1.3.5 1.9 0 .5-.5.5-1.3 0-1.9-.4-.3-1-.5-1.4-.3zm-9.2-231.8c-.2.1-.4.2-.6.4-.5.6-.4 1.4.2 1.9s1.4.4 1.9-.2c.5-.5.4-1.4-.2-1.9-.4-.3-.9-.4-1.3-.2zm6 5.1c-.2.1-.4.2-.5.4-.5.5-.4 1.4.1 1.9s1.4.4 1.9-.1.4-1.4-.1-1.9c-.5-.4-1-.5-1.4-.3zm-9 237.2c-.2.1-.3.1-.4.2-.6.4-.7 1.3-.3 1.8.4.6 1.3.7 1.9.2.6-.4.7-1.3.2-1.9-.3-.3-.9-.5-1.4-.3zm30-213.9c-.1 0-.2.1-.3.2-.6.4-.7 1.2-.3 1.8s1.3.7 1.9.3.7-1.2.3-1.9c-.5-.4-1.1-.6-1.6-.4zm-4.8-6.2c-.2.1-.3.1-.4.2-.6.5-.7 1.3-.2 1.8.5.6 1.3.7 1.9.2s.6-1.3.2-1.9c-.4-.3-1-.5-1.5-.3zm-10.6-11.7c-.2.1-.4.2-.5.3-.5.5-.5 1.3 0 1.9.5.5 1.3.5 1.9 0 .5-.5.5-1.4 0-1.9-.3-.3-.9-.4-1.4-.3zm13.6 203.3c-.2.1-.5.2-.6.5-.4.6-.3 1.4.3 1.8s1.4.3 1.9-.2c.4-.6.3-1.4-.3-1.9-.4-.3-.9-.3-1.3-.2zm-10.4 12.3c-.2.1-.4.2-.5.4-.5.5-.5 1.4.1 1.9.5.5 1.4.5 1.9-.1.5-.5.5-1.4-.1-1.9-.4-.4-.9-.5-1.4-.3zm2.3-209.9c-.2.1-.3.1-.4.3-.6.5-.6 1.3-.1 1.9.5.5 1.3.6 1.9.1s.6-1.3.1-1.9c-.5-.4-1.1-.5-1.5-.4zm3.1 203.9c-.2.1-.4.2-.6.4-.5.5-.4 1.4.2 1.9.5.5 1.4.4 1.9-.2s.4-1.4-.2-1.9c-.4-.3-.9-.4-1.3-.2z" id="ruota2"/><path class="st1" d="M334.6 477.9c0-1.6-.9-1.9-.9-1.9l-1.2 2.1-1.6 1.3.6 1.1 2.2.5c-.1.1.9-1.5.9-3.1zm-11.8-1.3s.9-2.7 1.2-3.7c.3-1.1-.9-1.3-.9-1.3l-2.2 1.1s.6.3 1.2 2.1l.7 1.8zM450 362.9s.1.3.3.5c-.1-.1-.2-.2-.3-.5zM326.2 508l-.6 1.6s2.5-.3 3.4-.3 4-.5 4-.5l2.5-.5s.9-.5 1.9-1.1c.9-.5 1.9-3.2 1.9-3.2s.3-1.3-.9-2.4-1.9-2.4-1.9-2.4-.3-1.6-1.2-2.1-2.8-3.5-2.8-3.5l-1.2-.3s.9-1.3.9-2.4.6-2.4-.3-2.9-2.2-1.1-2.2-1.1l1.2-1.6.9-2.4h-1.5l-.9 1.3-4 1.3-.6 1.1H322s-.3.8-.3 1.6.9 2.1.9 2.1.3 1.6 0 2.4-1.9 2.1-1.9 2.1-1.9.3-2.8 1.6-3.1 1.9-2.5 3.2.6 2.4.6 3.2v2.4s0 .5 1.5 1.1c1.5.5 5-1.6 5-1.6s1.9-4.3 2.2-5.1.3-1.3 1.2-1.6 2.2-.3 2.2-.3 1.2 0 1.2.8-.9 2.4-.9 2.4l-1.2 1.3.3 1.6-.3 1.3-1 2.9zm104.3-63.4c0 .8 1.6 1.3 1.6 1.3l1.2-1.1-.3-1.3-2.2-.5s-.3.8-.3 1.6zm19.8-81.2c.2.6.1.3 0 0zm-3.1 58.9l.6-.8.6-.8 1.2-1.6.3-2.4.3-.8 1.6-.3s.6 0 1.2-.8 1.5-1.9 1.5-1.9 1.9-1.9 2.8-2.4l.9-.5s1.2-1.9 2.5-1.9c1.2 0 2.2-.3 2.2-.3l3.7-2.9 3.7-1.6.6-1.1.6-1.9-3.4-2.4s0 .8-1.6 1.9-1.2.8-2.8 1.6c-1.5.8-.3 1.1-3.7 1.6s-4.6.8-4.6.8l-5.3 1.9s.6-1.1-.6.8 0 3.7-2.2 4-3.4.5-3.4.5l-.3 1.6v3.2s-.6.8-1.2 1.9-1.2 2.9-1.2 2.9.3.8-.3 1.9-.6 0-1.6 1.3c-.9 1.3-1.9 2.7-1.9 2.7s-.9 2.4-.9 3.5.6 2.1 1.6 2.9c.9.8 1.2 1.6 1.5 2.4l.3.8s2.2 1.1 3.4 1.1h3.1c.9 0 1.2-.8 1.2-.8s.6-.5-.3-1.3l-.9-.8-1.6-2.1-.9-2.9 1.2-2.4s-.3.3.6-1.3c1.2-1.7 1.5-3.3 1.5-3.3zm-10.5-47.9V373l-2.2-2.7 1.9-.3.9.3.9.3 1.5.3h.9l2.5-.3h1.9v.8l1.6.8 2.2-.3.3.8.3.8.9.3 1.6-.3.6-.8.6-1.1-.6-.8-1.2-1.3-.9-.5-.6-.8.3-.8.3-.8.9.3 1.2.8 1.6.5h.9l1.2-.8 1.2-1.1 1.2-.3 1.5-.3.9-.5.9-.8.9-.5.3-.8.3-2.1v-1.3l-.3-1.1-.9-.5h-1.5l-1.2 1.3-1.2 1.1s-1.2.5-.9 1.3l.3.8v1.1h-.9l-.6-1.1-1.9-.3-.9.5-2.2 1.1s-.6 1.1-.9 0l-.3-1.1-.9-1.9.6-.8.9-.5.3-1.6-.9-1.3-.3-.8 1.2-2.1-.6-1.1-1.9.8v1.1l-.6 1.1-.6.8-1.8.5-1.5 1.3.6 1.6v1.3h-.9l-.9-.8-.3-.8h-1.2l.6.8c-.6 2.1-.6 1.1-.6 2.1v1.1l.3 1.1 2.2 1.3.9.3 1.2.3.9 1.1-1.6.8-1.9-.5-1.9-1.1-1.2.5-.9.8-.9.3s0 .5-.9 0l-.9-.5s0-1.1-.3-2.4l-.3-1.3v-1.6l-.6-1.1-.9.5c-1.5 1.1-.3.8-1.5 1.1s.3.3-1.2.3h-1.5l-3.4.5-2.2.3-1.2 1.1-1.2 1.3.6 1.1 1.5.5 2.2.3s1.2.3 1.5 1.1 1.2 2.1 1.2 2.1l2.8 1.3 1.6.8 3.1.5zm-52.9 18.9s1.2 0 .6-.8l-1.2-1.6-1.2-.5.3-1.6-2.2-1.1v-1.1l-.6-1.1-.9-.5v-1s0-1.1-1.2-1.6l-1.2-.5-.3-1.3-.9-.5-.9-.8-.6-1.1-1.5-1.6-2.2-1.6v-.8l-1.6-1.6-.9.5-1.2 2.1-1.5-.3-1.9-.3h-2.2l-2.2-.3-1.2.5s.3.3 0 1.1.9.8.9 1.6-.3 3.2-.3 3.2 2.2-.8.3.8l-1.9 1.6 2.8 2.7v1.1l.9 1.1 1.2 1.1s.6 0 .6 1.1v2.9l.9 1.1s.3-.3.3.8 0 1.1 1.2 2.7l1.2 1.6 3.4 2.4 1.2-4 1.9-2.1s.6.3.6-.8-.3-2.1-.3-2.1l.6-1.6.9-1.3v-.8l.9-1.1v-.8l1.9 1.6.6 1.1.6 1.9-.3 1.1s0 .5-.6 1.3l-.6.8 2.2.3s.9-.3 1.2.5-.6-.5.3.8l.9 1.3.9-1.1s-.9.5 0-.8c1-1.6 2.3-2.6 2.3-2.6zm12.1-21.1l1.9.5 2.5.3 2.2-1.6-1.2-1.1-4 1.3-1.4.6zm-9 5.6l1.9-2.1.6-1.1v-1.3l.9-1.9s-1.9-.5-3.1-.5-4.6-1.6-4.6-1.6l-1.2-.8-1.2-.8-1.2 1.1-1.2.3-1.2-1.1-1.6-.5-1.5.3-1.5.5-.3 1.3.3.8-.3.8s-.6 0-.3 1.1-.6 0 .3 1.1l.9 1.1 1.2.8 1.9.5-.3 1.3c0 1.3 1.5 1.9 1.5 1.9s.3-.3 1.9 0c1.5.3 3.4.3 3.4.3l1.9.5 1.2-.3 1.6-1.7zm7.7 5.4l-1.9-1.1h-2.5l.9 1.9 3.5-.8zm62.9-28.5l.6.8 3.4.5v-1.6l-.9-.8h-.9l-1.9.3-.3.8zm-326.3 29.8l.3.8-.6 1.9v.8l2.8 1.6 1.6-.3 1.2.5.3 1.1-1.5 1.1.9 1.3h1.6l4.6-2.1-.6-2.9-1.5-1.9-.6-1.9-1.2-1.6-2.8-1.1-1.9-2.1-1.5-.8-1.9-1.1-1.2 1.9-.6 1.6 1.5 2.1 1.1 1.1zm-13.9 4.5s2.2-.8 3.4-.3 1.2-1.6 1.2-1.6l-2.5-1.6s-.9 0-2.5.5c-1.5.5-3.4 1.9-3.4 1.9 1.9 1.4 3.8 1.1 3.8 1.1zm15.4 7.5c-.6-2.4-2.5-4.3-3.4-4.5 0 0-.3 2.7-.3 4s.9 2.9.9 2.9h3.4l-.6-2.4zm-18.5 19.4s0 .5 1.6.5c1.5 0 3.4.5 3.7-.3s.9-1.6.9-1.6 2.2-.3 3.1-.3 1.9-.3 2.8-.3 3.4-2.4 3.4-2.4l1.2-2.4V407l-3.7-2.4-1.9-.8-.6-1.3-1.5-3.2-1.2 2.1-2.5 1.6 1.2 1.3.9 2.1.3 1.9-2.8.3s-.9-2.9-2.8-4.3c-1.9-1.3-4.3-1.6-4.3-1.6l-2.5.8-.3 2.9-.6 1.3-1.2 1.9v1.6l1.9 1.6h1.6l2.2-.3h1.6l-1.2 1.9.7 1.5zm6.8-25.3s-2.8 0-4.3.8-2.5.8-2.5.8 0-.8-1.5-1.1-2.2.8-2.2.8l1.9 1.6 2.8 1.9s1.9 1.1 3.1.5c1.2-.5 2.2-1.6 2.2-1.6s-.3.3.3-.8c.5-1 .2-2.9.2-2.9zm27.8-19.4l-.6 2.1-.9.3 3.1 3.7 1.6 2.7-.6.8.3 2.4 1.9 2.9v1.3l3.1 2.1s1.2.3 2.2.3c.9 0 2.5-.8 2.5-.8l2.5-.3 3.1 1.9.3 1.3-2.5.3-1.5 1.6 1.5 2.9-.9 1.1s-1.9 1.1-3.1 1.6-1.5.5-3.4.5-2.2-.3-2.2-.3-4-1.3-5.6-1.9c-1.5-.5-2.2-.3-2.2-.3l-1.5 1.6s1.9 2.4 2.5 3.5 1.9 5.3 1.9 5.3l-2.2-1.1s-1.2-.8-1.5-1.6-1.2-1.9-1.2-2.7-1.2-1.6-1.2-1.6l-2.2-.8h-1.9s-1.2 1.1-2.5 1.6c-1.2.5-1.2 1.3-1.2 1.3l-1.9-1.3s-.3-.8-1.2-1.1-1.9 1.1-1.9 1.1 1.2 2.9 2.2 4.5c.9 1.6 4.3 3.2 4.3 3.2s1.2 2.7 1.9 3.5c.6.8 4-.5 4-.5l1.9-2.1 1.2.5s0 .8.3 1.9.6.8 1.6 1.9c.9 1.1 1.9.8 3.1 1.1s1.5 0 2.5-1.9c.9-1.9-1.9-5.3-1.9-6.1s-.9-3.5-.9-3.5.9 0 2.5.5c1.5.5 1.5 3.2 1.5 4.5s-.3 2.1-.3 3.2 2.8 2.7 3.7 2.9c.9.3 2.5.5 4 .8s2.2.8 3.7.8 3.1.3 3.1.3l3.1-1.6s2.2.5 3.1.8 2.8-1.1 3.7-1.3c.9-.3.9-1.9.9-1.9s.3-.8-.6-2.1 0 0-.6-1.3-.3-.8-1.2-1.6-1.2-.5-2.2-.8c-.9-.3-1.2-.3-2.2-.3-.9 0-2.2.3-3.4.5-1.2.3-1.5.8-2.8 1.3-1.2.5-2.5.3-3.4 0s-3.4-2.4-3.4-3.7.6-1.3.6-1.3 2.8-.3 4-.3 3.1.3 4 .3 1.6.3 1.6.3l3.7-.5s1.2-.5 2.2-.5c.9 0 1.2.8 1.2.8s1.2.8 1.9 2.7c.6 1.9 0 0 1.6-.8 1.5-.8.3-2.7.3-2.7s.9.3 1.9-1.1c.9-1.3-.6-2.4-1.2-3.2s-1.9-2.1-1.9-2.1 1.2-.3 3.1-1.6-.6-3.2-.6-3.2 3.4-.5 5-1.1c1.5-.5.3-1.9.3-1.9l1.5-2.9v-1l.6-2.1-.6-.8-.6-1.1v-2.4l1.5-1.9 1.9-.5 1.2.3c1.2.3 1.2-.3 1.2-.3l1.5-1.9.3-1.9s2.2-1.3 3.4-2.7c1.2-1.3 2.5-4 3.4-5.6s3.4-3.7 3.7-4.5 1.2-2.4 1.2-2.4h-.9c-.9 0-3.1.3-3.1.3l-.9-1.1s5.6-1.3 6.5-1.6 1.9-1.9 3.7-3.5c1.9-1.6 1.9-1.9 2.2-2.7s0-1.6 0-2.4-.6-1.1-.6-1.1l-1.9-.3-.9-2.7-.6-1.6-3.1-1.3-3.4.3s-.9 0-2.5-1.1-2.2-.8-3.1-1.1-3.1-.5-3.1-.5l-3.4-.3h-4l-2.5.8-2.5.8-2.8.5-1.2.5h-2.2l-2.5.3-1.9 1.9-1.5 2.4-.3 1.6-2.5.3-1.5-.3c-1.5-.3-.9.5-.9.5l-1.9 2.9-1.9.5-2.2 1.1c-2.2 1.1-1.9.8-1.9.8l-1.9 1.6-1.5 2.1.3 1.9h1.5l.3 1.3 1.2 1.1-.3 1.9 1.9 4s2.2 1.3 3.1 1.6 1.5 0 1.5 0l2.8.5 1.2.5s3.1 0 4-.5 1.5-.8 2.5-1.1c.9-.3 3.4-2.7 3.4-2.7l.6-1.1 1.2-2.1-.3 2.9.3 1.9-1.9 1.1-2.8 1.1-.6.8s-1.2.8-2.2.8c-.9 0-.9.8-.9.8l-1.2 1.1-2.2-.3H166s-.9-.3-2.2-.8c-1.2-.5-1.5-1.1-2.5-1.9-.9-.8-2.2-2.1-2.2-2.1s-.3-1-.5-2c-.1-.5-.3-1.1-.4-1.4-.3-1.1-4-2.9-4-2.9l-3.7.5.3 2.1-1.5 1.1-.3 3.7-1.5 1.1 1.3 3.5zm12.1 23.9l-1.9-1.6-1.2 1.3-.6 1.1 1.2 1.3 2.2-.8.3-1.3zm-12.7-1.8l-.3 1.9 4 .5 1.5-1.1-.3-1.6-3.4-.5-1.5.8zm-6.5-17.6l1.9 1.1s.9-1.1.9-1.3v-2.7l-3.1-.8h-2.5l1.5 2.1 1.3 1.6zm8.1 10.1l-2.5-1.6h-2.2v4.5c0 1.3-.3 1.6.6 2.4s.3 1.6 2.8 1.1 2.8-2.7 2.8-2.7.3-1.1 0-1.9c-.3-.7-1.5-1.8-1.5-1.8zM134 411.9c.9-.5 0-1.6 0-1.6h-2.5l-1.5 2.1 1.2.8s1.8-.8 2.8-1.3zm5.5 13c-1.2.8-2.5 0-2.5 0l-.9.3-.3 2.1s2.5 1.9 4.3 3.7c1.9 1.9 3.1 4 3.1 4l2.2-3.2 2.2-1.1s.6-3.5 0-4.8-.3-3.7-.3-4.5 0-1.3-1.2-2.1-2.8-.8-2.8-.8l-4.3 2.1-.6 1.6c-.1.1 2.4 1.9 1.1 2.7zm550.7 10.9c1.2 0 2.5-.8 2.5-.8l.6-1.3-.9-1.3s-1.9.3-3.4.3c-1.6 0-1.2-.5-2.8.8-1.5 1.3-1.5 2.1-1.5 2.1l2.5.3h3v-.1zM625.9 402l3.1-1.1-2.2-1.3-.9 2.4zM516 369.8s.3 1.9-.6 2.1c-.9.3-1.9 1.1-1.9 1.1l.3 1.6s.3 1.3 2.2 2.1.9.3.9.3l1.9 1.1 1.2 1.3s.9 1.3 1.9 2.4c.9 1.1 0 0 1.2.5s1.5 1.1 1.5 1.1l3.1 1.1s1.2 0 2.5-1.3c1.2-1.3.9-3.5 1.2-4.5.3-1.1 0-3.5 0-4.3s-.6-.8-.6-.8l-1.9-.8s-1.9-1.9-2.2-4 .6-2.7.6-2.7-1.6-1.6-2.8-2.4-1.9-3.7-1.9-3.7l-1.5 1.3-1.6 1.1h-1.9v1.3l-.3 2.4-.9 1.1-1.2 1.9.8.7zm13.6 20.3l1.2 1.1 2.2-1.6h5.6s.9 0 1.9-.8c.9-.8 1.2-1.6 1.2-1.6l.9-.8v-1.1l-1.2-1.6s1.6.5-.6-1.1-4-3.2-4-3.2l-1.5-1.1-.9 1.6s-.6.3-1.2 1.3c-.6 1.1-1.2 2.1-1.2 2.9s0 1.1-.6 2.4c-.9 1.4-1.8 3.6-1.8 3.6zm-36.9-24.8l-2.5-1.3-1.2 1.1 1.9 1.3 1.8-1.1zm22.6-3.7l-1.9-1.6-1.2 1.1 1.5 1.6 1.6-1.1zm31.9 28.7l-1.5-1.6h-2.2l1.5 1.9 2.2-.3zm63.8 32.8l1.5.3 3.4.3s.3-.3 1.8-.3c1.6 0 0-1.9 0-1.9l-2.5-1.9-1.2-.8-1.2-.8-.6-1.1-1.5.5-.9 1.3 1.2 1.6-1.2 1.6 1.2 1.2zm-5.6-9.3l.9 1.3.9.5 1.9-1.9 5.3-.5 2.2.5 1.6-.8.6-1.3.9-1.9.3-.8-.6-.8-2.2-1.3-.9-.3-2.5-.8-.9-.8s0-1.1-.9.5l-.9 1.6-2.2-1.3-2.5-1.3-1.2 1.6-.9 2.1s0 2.4.3 3.2c.2.9.8 2.5.8 2.5zm21.7 1.6c1.2.8 1.5.3 2.8.3 1.2 0 1.6-1.1 2.5-1.9s-.9-1.9-.9-1.9l-2.5-.8s-2.5-.8-3.4-.8-3.1-1.6-3.1-1.6l-.3 1.9s.9 1.3 1.6 2.1c.5.8 2.1 1.9 3.3 2.7zm-26-6.7c0 1.6.9 2.4.9 2.4l.9-.8-.6-3.5h-1.6c.1 0 .4.3.4 1.9zm2.2 10.6l-2.8-2.4.9 2.7 1.9-.3zm39.6 250.2l1.8.3-1.6-1.3-.2 1zm-10.8-25.8c.9.3 2.8 2.9 2.8 2.9l2.5-.5-3.4-3.5c-.1 0-2.9.8-1.9 1.1zm-136.6-51.1l-2.2-1.9-1.5 1.3s.9 2.7.9 4 1.2 2.7 2.2 2.4c.9-.3 2.8-1.3 2.5-2.7-.3-1.2-1.9-3.1-1.9-3.1zM633 636l-1.5.8 2.2.5-.7-1.3zm13 28.5l2.5.3-1.9-1.9-.6 1.6zm-19.5 15.9s-.3 1.6-2.2 1.9-4.9-.5-4.9-.5l-.6 1.3s.9.8 1.2 2.1-1.5 1.6.3 2.9c1.9 1.3 2.5 1.3 3.4 1.1.9-.3 1.5.3 2.5-1.6.9-1.9 1.2-2.7.9-3.5-.3-.7-.6-3.7-.6-3.7zm20.1-40.4l-1.2.5 1.6.8-.4-1.3zm-54.5-31.9l1.2-1.1-2.2-.5-.3.8-.9 1.6.6 3.7-.6 1.1v.8l1.2.3 1.2-2.9-.6-.8v-1.6l.4-1.4zm37.5 36.7c-1.2-1.1-2.2-4-4-4.5-1.9-.5-2.8-1.6-2.8-1.6l.6-1.6-3.7-3.5-.3-1.9-1.9-1.9-1.5-2.4-1.2-1.9v-1.9s.3-.3 1.6-1.1c1.2-.8 2.8-1.9 2.8-1.9s1.2-.3 2.5.5c1.2.8 2.8 2.4 2.8 2.4s4.3 2.4 5.6 2.1l1.2-.3s-5.3-6.1-6.2-7.2-3.4-4.3-4.6-4.5c-1.2-.3-1.9-.8-2.8-.8s-4.6-1.1-6.5-1.9-2.5-1.3-4.3-1.3c-1.9 0 .3-.5-1.9 0s-4.3 1.9-4.6.8-2.5-2.4-2.5-2.4l-4.3.5s.9 2.4 1.9 4c.9 1.6 1.2 2.7 1.2 2.7l1.6-.3s4.3.8 5.3 1.1c.9.3 3.4.5 3.4 1.9 0 1.3-1.5 3.5-1.5 3.5s-1.2 2.4 0 2.7 2.2-1.9 3.7-2.1c1.5-.3 2.8-.3 4 1.6s1.2 2.9.6 4-1.2 1.9-.9 4 1.9 4-.6 4.3-3.1-.3-5.9-1.9-3.4-.8-2.8-3.2.9-3.5 0-3.7c-.9-.3-1.9-.3-3.1 0s-3.4-.5-5.6-.8-3.1.3-4 1.6-1.2 1.9-1.9 3.5c-.6 1.6-1.5 2.1-1.9 1.3-.3-.8-1.2-1.9-2.5-1.9-1.2 0-1.9.5-2.8 1.3s-.3.8-3.1 2.4-3.7 1.1-3.7 1.9.6 1.9-1.2 2.9c-1.9 1.1-2.5 2.7-6.2 2.9-3.7.3-6.8 1.1-7.7 3.5s-2.5 5.3-.9 8.5 3.1 5.3 3.1 7.7-.6 3.5 0 5.9 1.9 2.7 3.1 2.7 2.8-.8 4.3-1.3 3.4.3 6.2-.5 4-2.1 5.3-2.9c1.2-.8 3.7-1.1 5-1.1 1.2 0 3.7-.8 3.7-.8s.6-1.3 3.7.3 5.6 1.6 6.5 3.2 2.2 3.2 2.2 3.2.6-1.1 1.5-1.1 3.1 1.1 3.1 1.1l2.8 2.1 1.5 2.7s2.2 2.4 3.4 2.7 2.8.8 2.8.8-.3 1.1.6 1.1 1.9-1.1 1.9-1.1h1.9s3.4-1.9 4.3-2.1c.9-.3 3.4.8 4-.8s1.5-8.8 3.7-10.4 3.1-4.8 3.4-6.1-1.5-9.3-2.5-10.4c-1.2-1.1-3.7-3.3-4.9-4.3zm9.6-137.9l-1.9 3.7-.6 1.6-.3 1.1-.9 1.1s-1.5 1.3-5 3.2c-3.4 1.9-4.6 3.7-4.6 3.7s-5.6 3.2-8.7 1.9-2.5-4.5-2.5-4.5l2.2-.8-.6-3.5.3-2.4 2.2-1.3s.3-1.9-.9-4-.6-2.4-1.2-5.1-.9-3.2-.9-3.2l-1.2 1.3-1.2 1.3.3 5.1s.6 2.4.3 4-.9 6.9-.9 6.9l-.6 1.3.3 4-1.5 3.7-1.6 1.6-2.2 1.1 1.2 2.4.6 2.9-1.9 4.3-2.2 2.4-5 1.1-3.1.3s-2.5 1.6-3.4 1.6-2.2 1.3-2.8 2.1-1.2 2.4-1.2 2.4-.3 2.7 1.2 4c1.6 1.3 1.6 0 1.6 0l5-3.7 2.2-.5s1.9.8 2.5 0 4-2.4 4-2.4l2.8.5.3-1.6 2.8-1.3s.9-4.8.9-5.9.3-.8 2.5-3.7-1.2-.8-2.5-1.1c-1.2-.3.9-4 .9-4s.9.8 1.9-.3c.9-1.1 2.8-.8 7.1-1.6s3.1-3.2 4-4.3 4.6-3.2 6.2-4.5c1.5-1.3 1.9-1.3 5-4.3 3.1-2.9 3.1-5.1 3.1-5.1l-.6-1.1-1.4-.4zm-92-110.4l-1.5-1.9-2.8 1.1 3.1 1.6 1.2-.8zm156.7 57.4c-1.5-.5-5-.5-5-.5s-5.6-4.8-6.5-5.3-4.6-3.2-5.6-4c-.9-.8-3.4-2.1-4.3-2.4s-3.4-1.1-5.3-1.1H671l-.9 1.1s1.2 3.2 0 3.7-3.1-.5-3.1-.5l-3.1-2.9s-.9-.3-1.9-.3c-.9 0-4.6.3-4.6.3l-4 .3-1.5 1.6s-3.4-1.3-3.4-2.9.6-3.2 0-4-2.8-1.9-2.8-1.9H641s-2.2.8-5 1.1l-2.8.3s.9-2.1-.3-2.7c-1.2-.5-2.5-1.1-2.5-1.1l-1.9-2.7-2.8-1.3-3.7.8-3.7-2.1s-3.1-1.1-3.4-1.1-3.4.3-3.4.3l-4.3 2.1s1.2.3.6 1.9-.9 2.7-.9 2.7l-2.2-.3-4-.3-4 .3s0-1.3-.9-1.9l-.9-.5s-1.2 5.9-2.5 5.9c-1.2 0-2.8-1.9-3.1-2.7s-.6-2.9-.6-5.3-2.5-6.9-5-6.9-4.6-1.6-5.3-.8c-.6.8-.9 2.9-2.2 3.7-1.2.8-3.1 3.2-6.5.5s-5.6-3.5-5.6-3.5l-3.1-.3-3.1-1.1-2.5-1.1-2.5.5-1.2.3-1.6 1.1c-1.5 1.1-2.5 2.4-4.3 2.4h-1.9s9.3-8.2 11.5-9.6c2.2-1.3 3.7-4 3.7-5.1s.3-4.3-.9-5.3c-1.2-1.1-2.5-1.9-4.3-2.4-1.9-.5-4-1.1-5.3-.5-1.2.5-3.7 1.6-3.7 1.6s.9-2.7.3-3.5-1.9-1.3-1.9-1.3l-.6-1.6s.3-.3-.6-1.3c-.9-1.1-3.1-1.6-3.1-1.6s-2.8 2.4-4.3 4-2.2 2.9-1.8 3.7c.3.8.3 1.9.3 1.9s-1.9.3-2.8.3-1.5 1.6-1.5 1.6l-2.2.5s-1.2-1.1-1.5-1.9-.9-1.9-.9-1.9v-2.7s-1.2 1.1-2.2 1.3c-.9.3-2.5 1.6-2.5 1.6s.3.5.3 1.3-.9 1.9-.9 1.9l-2.8 1.6s-3.4 2.1-5.3 2.9-4.6 2.1-5.6 4.3c-.9 2.1-.3 6.4-.3 6.4s-9 .5-10.2 2.1l-1.2 1.6s.3 2.1.6 3.5c.3 1.3 2.8 2.7 3.4 3.5s1.2 2.7 1.2 2.7v5.6l-1.6.3-.6-3.2s.6-2.4-.3-3.5-2.5-2.1-2.5-2.1-1.9-2.1-3.4-2.9l-1.5-.8-2.5 1.3-1.5 1.6-1.9-3.7-1.2-.3s.6 2.1 0 3.2-2.2 2.1-2.2 2.9-.3 1.9.3 4.5c.6 2.7 0 6.1 0 6.9s.9 1.1 1.9 1.1c.9 0 1.2-.3 2.5.5 1.2.8 2.2 1.9 2.2 1.9s-3.1-1.3-4.3-.5-1.2 2.4-1.2 2.4 0 3.2-.9 4.8-1.9 3.7-4 3.7c-2.2 0-4.6-1.3-4.6-1.3s2.8-.5 3.7-.8 3.1-2.9 3.4-4.3c.3-1.3.6-2.1 0-3.7s-.9-8.5-.6-9.8 0-1.3-.6-3.2 2.8-5.1 1.9-6.7-3.4-2.9-3.4-2.9.6-1.9-.3-2.1c-.9-.3-2.2.5-2.2.5l-.9 2.1s-1.2.5-1.5 1.6-.9 2.1-.9 4-1.5 3.2-2.5 4c-.9.8-.9 1.6-.9 2.4s-.6 3.2.3 4.5 1.6 2.9 1.6 2.9.6 1.9.6 2.7-2.5.3-2.5.3-2.5-1.6-4-2.7-3.1-1.6-4.3-1.9-4-2.1-4-2.1l-3.1-1.6-1.3.5s0 1.6.9 1.9 1.9.8 1.5 1.9c-.3 1.1 0 3.2 0 3.2s-2.5-2.1-3.1-1.3-2.8.8-2.8.8l-2.5-.8-.9 1.3-1.9 2.1-1.9-2.4s-5 1.3-5.9 2.7c-.9 1.3-4.6 1.3-5 2.9-.3 1.6-2.5 2.7-2.5 2.7l-1.5-2.7 2.2-2.1s-1.9-2.4-2.8-2.4h-2.2s-.6 1.1-.6 2.1c0 1.1.9 5.1.6 6.1-.3 1.1-2.5 1.1-2.5 1.1l-2.2.5s-1.9 2.9-2.2 4.3c-.3 1.3-.6 2.4-.6 2.4l-4-.3-2.5-1.1s-1.9 0-1.2.8c.6.8.6 1.6.6 1.6l-.9 1.1s-2.2 0-2.5-1.9.9-3.2-.3-4.8-3.4-4.5-3.4-4.5 9.3 3.7 10.8 3.5c1.6-.3 5.6-2.7 5.9-3.5s-2.5-4.5-3.4-5.1c-.9-.5-4.6-3.2-7.1-4.5s-2.5-2.4-4.6-2.4c-2.2 0-5-.8-5-.8s-.6-2.1-.9-2.9-3.1-2.4-3.1-2.4-5-1.1-7.1-1.1c-2.2 0-3.1.5-5 1.9-1.9 1.3-3.1 1.6-5.6 1.9s-5.3 2.4-5.9 3.2-4.3 1.3-5 2.9c-.6 1.6-3.4 4.3-3.4 4.3l2.5 1.1.9.8s-1.9 6.4-3.4 7.5c-1.6 1.1-2.2 4-3.1 4.5s-.9 1.9-2.2 2.1c-1.2.3-3.1 1.3-3.1 1.3l-3.1 2.9s-2.8 1.9-3.1 3.2-.6 9.3 0 11.2 1.2 2.9 2.8 3.2c1.5.3 1.5 0 3.7-1.1s3.7-1.9 3.7-1.9l1.2.3 1.5 2.9s.6 2.4.9 4.3 2.5 4.8 3.7 4 1.2-1.6 1.2-1.6l2.8-1.9s1.2-1.3 1.2-2.4-.6-2.9 0-3.7.6-.3 1.5-1.3c.9-1.1 1.9-.8 2.2-2.4s.3-2.7-1.2-3.5c-1.6-.8-1.6-4-1.6-4s2.8-5.1 4.6-6.6c1.9-1.6 3.7-4 3.7-4v-2.4l2.2-2.4s2.2.3 3.1 1.1-1.2 4.3-1.2 4.3-1.9 2.1-2.5 2.9-1.9 2.7-1.9 2.7l-.6 2.7s.3.3.3 2.1c0 1.9 0 3.7.9 4.3.9.5 2.2 1.3 2.2 1.3l2.8.3 3.1-1.6 4 .5 1.8.8-3.1 1.1-4 .5s-1.8 0-2.8.5c-.9.5-1.9 1.3-1.9 1.3s-1.2 0-.3 1.3 1.9 3.2 1.9 3.2l-2.5.8-1.9 1.6-.6 3.2-2.2 2.4-.6 1.9s-.9.8-2.2-.3c-1.2-1.1-2.5-.8-2.5-.8s-2.5 1.9-4.3 2.4c-1.9.5-3.4-.3-3.4-.3s-3.1-1.1-3.7-2.9c-.6-1.9-.3-4.5-.6-5.6s-.6-1.9-1.5-1.9-2.8 1.9-2.8 1.9l-2.2 2.4 1.2 2.9.3 1.6-.6 1.1s-1.2 1.1-2.2 1.1c-.9 0-4 .5-4 .5l-.9 3.2-2.5 2.1-2.8 1.3s-.9.8-1.5 1.6-.3 1.9-1.9 2.4c-1.5.5-3.7 0-3.7 0l-1.9 1.1-4 1.9s1.5 2.7 2.5 3.2c.9.5.9.3 2.2 1.1 1.2.8 1.5 1.3 1.9 2.9.3 1.6.6 4.3-.9 4.8s-5 .5-5 .5-5.6-.8-6.8-.3-2.2 1.9-2.2 1.9.9 2.4.9 3.2.6 1.6-.3 2.9-1.6 4.8-1.6 4.8 3.4 1.1 5 1.1 1.6 1.1 1.6 1.1l1.9 1.3 1.6-1.1s3.4-.5 4-.5 4-3.2 4-3.2l.6-2.4s3.4-3.5 4.6-4.3 2.5-2.4 2.5-2.4l.6-3.2 3.1 1.9 5-1.9 2.8-.3s4 4 5.9 5.3 3.7 1.9 3.7 1.9 2.5.5 2.8 2.7c.3 2.1-2.5 3.2-2.5 3.2l-3.7.3 1.9 2.1 2.8.5.9-2.4 2.5-1.9s.6-1.3.6-2.1 1.5-.3 1.5-.3h1.2V533l-2.8-1.3s-2.5-1.6-3.4-2.1-.9-.8-2.2-2.1c-1.2-1.3-3.1-1.9-3.1-1.9v-1.3l1.5-.8s4 3.5 5.3 4c1.2.5 3.7 1.3 3.7 1.3l1.5.3 1.2 3.7 1.6 4.3 1.5 3.5 3.1 1.6 1.6 1.6s1.9 1.1 2.8 1.1 2.5-.3 2.5-.3l.9-1.1 1.9-.8 3.1-.3 1.9.8 1.5-1.3 3.7.3-.3 2.1 3.1 1.1.9-1.6 2.8-.3s1.2 2.7.6 3.5-5 4.8-5 4.8-8.1-.5-9.3.3-4.7 0-6.5-.8c-1.9-.8-4-2.4-5.6-2.4-1.5 0-3.7 1.6-4.9 2.4s-6.8 1.1-8.4 0c-1.5-1.1-3.1-1.6-3.7-2.4s-2.5-2.7-2.5-2.7l-2.2-.3s-1.9-2.4-2.5-3.2-1.2-2.7-1.2-2.7l-1.2-.3s-9.6.8-10.5.8-6.2 1.1-6.2 1.1-3.4 2.4-5.3 2.7-3.4.8-4.6 0-3.4-.8-3.4-.8-1.9 3.5-4 4.8c-2.2 1.3-1.5 3.2-2.5 4.5-.9 1.3-1.9 4.8-3.4 5.1s-4 2.9-5.6 4.8c-1.5 1.9-3.7 6.1-4.6 9.3s-1.2 8.8-.9 10.6c.3 1.9 6.2 9.1 7.4 10.4s6.2 5.6 8 6.4c1.9.8 4.3.8 6.5.8h7.4s7.4-1.9 9.3-2.4 3.4.5 3.4.5l2.8 2.9s2.2.3 4 .8c1.9.5 2.2 1.3 2.2 2.4s-.9 4.5-.9 4.5.6 1.6 2.5 3.2 4 4 4.3 5.1 1.2 3.5 1.2 3.5l-.3 2.1.9 2.7s-.6 4-.9 4.8-1.9 4.3-1.5 6.1c.3 1.9 2.2 5.3 2.8 6.7.6 1.3 1.5 3.5 1.9 5.1.3 1.6-.3 7.7 1.9 9.3s2.8 3.7 3.7 5.6.3 3.7 2.2 5.6 4.6 2.4 5.6 1.9c.9-.5 4.3-.8 5.9-.8 1.5 0 7.4-2.9 10.2-4.8s4-4.8 4-4.8 2.8-2.9 3.4-5.1c.6-2.1 3.4-3.5 3.4-3.5s1.5-2.9 1.5-3.7v-6.4s7.1-3.7 8.1-5.3c.9-1.6 2.5-6.4 2.2-7.4-.3-1.1-3.1-8.8-1.9-12.5s5.6-7.2 5.6-7.2 7.7-6.7 9.6-8.3 4-3.7 4.3-5.1c.3-1.3 2.5-4.5 2.8-5.6s-1.6-1.6-1.6-1.6-2.8-.5-4-.3c-1.2.3-7.7-1.6-7.7-1.6s8-2.7 9.9-3.2 11.4-4.3 12.4-5.1c.9-.8 3.1-2.1 3.7-3.5.6-1.3 1.8-3.5 1.8-3.5l2.2-2.7s-2.5-2.9-4-3.5c-1.6-.5-3.4-1.9-3.4-1.9l.9-.8s7.4 2.1 9 2.1 3.4-.8 5-.8h4l4.3 2.9s3.1 2.9 3.4 4.3c.2.7 1.2 1 1.9 1.2.4-.3 2.8-.9 2.8-.9s.9 5.9 1.5 6.9c.6 1.1 1.9 4.8 2.8 6.1s3.1 4.8 3.4 6.1.3 2.1 1.6 2.9c1.2.8 1.9.8 2.8 0s2.5-2.7 2.5-2.7l1.2-1.1.6-4.5.6-4s4.9-3.2 6.2-4c1.2-.8 4.6-2.9 5.9-3.7 1.2-.8 4.6-.8 4.6-.8h4.3c.9 0 2.5 1.3 2.5 1.3s2.5.8 2.2 2.1-.6 2.9-.6 2.9 1.5 1 2.5 1.6l2.2-1.3 1.5.8s2.2 3.2 2.2 5.9-1.2 5.9-1.2 5.9 1.9 1.9 2.5 2.9c.6 1.1 3.1 4.5 3.1 4.5l.9 3.2s1.2 2.7.6 1.3c-.6-1.3-3.7-2.7-3.7-2.7l-2.8-2.9-5.3-.8 2.2 3.2.3 2.7 2.2 1.1.6 2.4 1.9 1.9 2.2 2.9 2.5.5s5.3 4.5 6.5 5.6 4 2.9 6.2 3.5c2.2.5 6.2.8 6.2.8l7.4 1.6s5.9.3 7.1.3 4.7 1.1 4.7 1.1l2.8.5-.6-1.6 3.7-.8v2.4s4.3-.3 5.3-.5c.9-.3 3.1-.3 3.1-.3l.9-.5 1.9-1.6 1.5 2.1 1.8-1.9 1.6-.5-.3-2.1h-9s-1.5.3-2.5.8c-.9.5-2.2.5-4 .3-1.8-.3-4.3-.5-5.9-.3-1.6.3-4.7.5-4.7.5s-4.6-1.1-5.6-1.1c-.9 0-3.1-1.1-3.1-1.1s-7.4.3-8.4-.3c-.9-.5-2.8.3-3.7-1.3s-3.4-2.9-1.9-3.5c1.5-.5 2.2-1.3 2.2-1.3s-2.2-1.6-3.4-2.4-2.5-3.5-3.7-5.9 0-4-.9-5.3-4.6-3.5-5.9-5.6c-1.2-2.1-1.9-3.7-1.5-4.5.3-.8.9-2.1 1.9-2.1.9 0 2.5-.8 4.3 1.3s3.1 2.7 3.4 4 2.8-.3 4.3-1.1c1.6-.8 5-2.7 5.6-4.3s.6-3.7-.6-5.3-5.6-4.5-5.9-6.1 1.9-4.3 2.8-4.3h2.8c-1.6 0 .9 1.3 0 2.1s-2.2.8-1.2 1.9c.9 1.1 1.8 1.6 2.8 1.3.9-.3 2.5-.5 2.2-2.1s-.6-2.4-.6-2.4 8.4-2.9 9.9-3.5c1.5-.5 5.6-1.9 7.1-5.1.8-1.8 3.2-4.8 4.6-6.5-2.4 2.6.6-5 0-6.2-.6-1.3-2.5-4.8-2.5-4.8s-2.2-1.3-.9-2.4c1.2-1.1 3.7-2.1 3.7-2.9s-.6-1.3-1.9-1.3c-1.2 0-2.5.8-3.1-.3s1.6-2.7 2.2-3.5 4.3.5 2.8 0 2.5-1.1 4 0 3.1 2.4 3.1 2.4 1.2 1.6 1.2 2.7.3 2.7.3 2.7.9 2.1 1.9 2.1c.9 0 1.6 0 2.5-.3s1.6-1.6 1.6-1.6l.6-3.2s-2.8-2.4-3.4-3.5-.3-1.9-.3-1.9 4.3-2.1 4.6-4.3c.3-2.1 3.1-2.9 3.1-2.9s1.9.8 3.4.3 6.5-5.1 9-8.8 3.7-4.3 4.6-6.9c.9-2.7.9-8.2.9-5.6 0 2.7.6-3.5-.3-5.6s-3.1-2.9-3.1-2.9l-3.1-.5s-2.8-1.9-.9-4.3 7.4-5.6 8.7-7.5c1.2-1.9 5.9-3.2 5.9-3.2s3.1 0 4.3.8 3.4-1.3 4.3-1.3 3.4.3 3.4.3l3.1 1.6 4.3-.3s.9-1.9 1.2-2.7.9-3.5 2.8-4.8 4.9-1.9 4.9-1.9l1.9 3.2s.9 1.1 2.2.3c1.2-.8 3.1-3.2 4-4.3s2.5-1.9 2.5-1.9l-1.9 4.5s-5.9 4.5-7.1 6.4-.3 1.9-3.1 3.7c-2.8 1.9-4.3 3.7-4.3 3.7s-1.2 5.1-1.2 6.9c0 1.9 0 4.5.3 6.7.3 2.1.6 3.2.6 3.2s2.2-.3 3.4-1.3c1.2-1.1 4-3.5 3.7-4.3s.6-2.9.6-2.9 1.6.8 2.8-.3 1.2-1.6 1.2-3.2 1.5-2.4 1.5-2.4.3-1.9.6-2.9c.3-1.1.6-2.1.6-2.1l-2.5-.8s1.2-.8 1.9-2.9l.6-2.1 4.6-.5s4-3.5 5.6-2.1c1.5 1.3 2.8 2.4 4 1.6s4.3-4.5 5.6-5.3c1.2-.8 4.6-3.5 6.2-3.5s4.3.3 4.3.3 1.2-1.9.9-3.7c-.3-1.9-.9-3.7-.9-3.7s1.2-3.5 2.8-3.7c1.5-.3 7.1 1.9 7.1 1.9s2.2 2.7 3.7 2.7 4.3-1.1 4.3-1.9.3-2.4 1.9-3.2c1.5-.8 1.9-1.6 1.9-2.4.1-.8-2.4-3.4-3.9-4zm-297.2 76.4c-2.2-1.3-3.7-1.6-3.7-1.6l-3.1-1.1-1.2 1.1-5.3.5-2.2-2.7s.9-1.9 1.2-2.7 2.2-3.7 3.4-4.3c1.2-.5 2.2-.8 2.8.3s.3 1.9.9 2.7-.3 1.1 1.5 1.3c1.9.3 3.4-.3 3.4-.3l2.8-.8s0-.8 2.2.8 7.4 4 7.4 4l.9 1.9s0 1.6-1.5 1.9-2.2 1.6-4.6.3-2.7.1-4.9-1.3zm14.2 54.3s-2.2-1.1-3.1-1.3c-.9-.3-2.5-1.9-4-4.3s-2.5-2.7-3.7-4.5c-1.2-1.9-.3-2.1-.6-2.9s-1.2-2.7-2.2-3.5c-.9-.8-1.2-2.4-1.5-3.7s-1.6-3.5-1.6-3.5l.6-1.6.9.5c.9.5 1.8 2.1 1.8 2.1l.9 2.4s1.9.5 4 4c2.2 3.5 1.2 3.7 1.2 3.7s1.2 1.6 3.4 3.7 1.9 3.2 2.2 5.3 2.2 2.7 2.2 2.7l.3 2.1-.8-1.2zm7.8-61.2c-.6-1.1.9-1.6 1.9-2.7.9-1.1 1.9-1.1 2.8-1.3.9-.3 4-1.1 4-1.1l2.5 1.1s-.6 1.1-2.2 1.9c-1.5.8-1.2.5-1.9 1.3-.6.8-.9 1.9-.9 2.7s1.5 2.4 3.4 4.5l1.9 2.1s-.6 2.9-1.9 3.2c-1.2.3-1.2 0-3.1 0s0 0-.9-.8-1.2-.8-1.2-.8-.3-1.6-.6-2.4 0-1.3 0-1.3l-.6-1.9-1.2-2.1c-.2 0-1.4-1.3-2-2.4zm13.3 40.7c-1.2.3-2.5.5-4.3 0-1.9-.5-.9-1.6-2.5-3.5-1.5-1.9-2.5-1.6-3.1-2.4s-.6-2.1-.6-2.1l2.2-.8s.9.5 1.9 1.1c.9.5.9.8 4.7 3.7 3.7 2.9 2.5 1.1 3.1 1.3.6.3 1.9 1.1 1.9 1.1s-2.1 1.4-3.3 1.6zm13-39.9l-1.2 1.6s-2.8-1.1-3.1-2.4.6-1.9.6-1.9l1.5-1.1 4 2.1-1.8 1.7zm20.1 48.2c.7 0 .3 0-.3-.1-.1 0 0 .1.3.1zm171.5 87.5l1.9.3-1.2-1.6-.7 1.3zm-124.4-79.3c1 .7.7.5 0 0zm53.2 26.1c.9.3 4.6.8 5 0 .3-.8 1.2-2.4 1.2-2.4s1.9-3.7 1.2-5.9c-.6-2.1.3-2.1.3-2.1l1.9-.8-.3-1.3.6-1.6-.9-.8-.3-1.1-.9-1.9-1.2-1.9.3-1.3-1.2-1.6-2.5-1.1-3.4-1.1 1.6-1.9v-3.5s-3.4-1.6-4 0-2.2 3.2-2.2 3.2 0 1.1.3 2.1c.3 1.1.9 2.7.9 2.7l-1.6 2.7s-1.9 2.7-4 4.8c-2.2 2.1-2.2 3.5-2.2 3.5s-.3 1.3-2.2 2.7c-1.9 1.3-3.4 3.7-5.9 4.3-2.5.5-3.4 1.1-3.4 1.1s-1.5-1.6-2.8-1.9c-1.2-.3-2.2.3-2.2.3s.3 1.3.6 2.4 1.2 3.2 2.2 4.5c.9 1.3 2.5 2.1 2.5 2.9s.6 1.1 1.5 1.1 1.2-.8 2.8 0c1.5.8 3.4 1.1 4.6 1.3 1.2.3 2.5 0 2.5 0l1.9 1.6 1.2-1.9s-2.5-.5-2.5-1.6 0-4.3 1.9-5.3c1.9-1.1 2.2-2.7 2.2-2.7s-1.6-2.1-1.2-3.5c.3-1.3 2.8-1.1 2.8-1.1s1.9-1.1 3.1-1.9 2.8-1.9 2.8-1.9.9-.8 1.5 0 3.1 1.6 3.1 2.7 1.9 1.3 0 3.7c-1.8 2.4-5.9 2.9-6.8 2.7-.9-.3-2.2.5-2.2.5l-3.1 3.5v1.6l.9 1.9.6 2.1v1.3l1.2 1.6h1.2l-.6-1.9.3-1.6 1.9.5v1.1l1.9 1.3 2.2.5.9-1.3-.9-1.1-1.2-.5s1.2-1.3.3-1.9c-.9-.5-.6-.8-1.5-1.6s-.9-1.9-1.9-2.1c-.9-.3-.9-1.3-.9-1.3s1.2-1 2.1-.8zm-1-49.9l.4-.4c1.4-1.7.8-1.1-.4.4zm106.9 118.3c-.3-.8-.9-1.9-.9-1.9l-3.4-1.9-.6-1.9-2.8-.8s1.2 2.7 2.5 4c1.2 1.3 2.5 0 1.5 2.7-.9 2.7-2.2 3.7-2.2 3.7s.6.5 1.2 1.3 1.5-.3 1.5 1.1c0 1.3-.9 1.9-.9 1.9l-3.4-.5s-.3-.5-1.2.8 1.5.5-2.5 2.9-5 3.5-5.9 4.3-2.8 3.5-2.8 3.5.6.5 1.9 1.6c1.2 1.1 1.9 1.9 1.9 1.9l2.2-.8s3.1-1.1 4-3.5 1.5-3.2 1.5-3.2l1.2-.3s1.9-2.7 2.8-4 3.1-1.3 3.1-1.3l1.3-3.2s.9-1.3 2.2-2.1c1.2-.8 2.2-3.5 2.2-3.5l-2.5-.5c-.1 0-1.6.5-1.9-.3zM291.5 439.8l-3.7-1.3-.9-1.9s-.6-1.3.3-1.1c.9.3 2.2 1.3 2.2 1.3l1.9.5 1.5.3s.3-2.1.3-3.7-.9-4-.9-4l-.6-1.3s3.1-.3 3.1-1.1-.6-1.9-.6-1.9l-3.7-3.5s2.8 1.1 4.3 0 1.5-2.7 1.5-2.7l.3-2.7 2.5-1.3s-1.9-1.6-1.6-2.4l.3-.8 3.7.8v-3l-2.2-.5s-.9-.3-1.5-2.1l-.6-1.9 1.9-1.9s2.5-6.1 1.2-7.2c-1.2-1.1-2.5-1.3-2.5-1.3l-.6-2.4 2.2-2.7v-2.7c0-.8.3-1.6.3-1.6l.9-1.9s-.6-2.1-.9-1.1c-.3 1.1-1.9-2.4-1.9-2.4V377l.6-1.1 1.9-1.1s1.2-1.6.3-2.9 1.5-1.3 1.5-1.3l1.9-1.9-1.2-2.4s4-.5 4-1.9c0-1.3.3-2.9.3-2.9s3.1-2.7 4-4.3-3.1-3.7-3.1-3.7-1.9-1.3-3.4-.8-.9-.3-3.1 2.1l-2.2 2.4-2.8.3-1.6-2.4-.9.5-.3 1.3s-1.6.8-1.9 1.6c-.2.5-.6.8-.9 1.1.5-2.1 1.2-5.6 1.2-6.2 0-.8-.3-1.9-1.5-2.4s-2.8-1.1-2.8-.3-1.6 1.9-1.9 2.7.6 1.1-1.2 1.6c-1.9.5 0-3.2 0-3.2h-7.4s-2.2-.5-3.7.3-3.7 1.6-3.7 1.6 0-.8.9-1.9 3.7-1.9 4.9-1.9h5.3l3.4.3s2.2-1.6 3.4-1.9 3.4-1.6 4-2.7 1.6-1.6-.3-3.2-2.2-1.3-4-2.7c-1.9-1.3-3.1-3.7-3.1-3.7s-1.5-1.3-1.9-.5c-.3.8-1.2 1.3-1.2 1.3l-3.7-.5s.1-.4-.5-.6c2.2-.5 4.2-1 4.2-1l2.2-.8s0-1.1-1.2-1.3c-1.2-.3-.9.8-2.8-.5s-2.8-1.6-2.8-1.6l-4-1.1-3.7-.5-3.7.5s-1.5-.5-3.1.5c-1.5 1.1-3.4 1.9-3.4 1.9s-.3.8-1.2 1.1l-.9.3s-1.9.5-2.8.5-3.1.8-3.1.8-.6-.5-1.2.3l-.6.8s1.9.5-1.6 1.1l-3.4.5-1.2.5-.3 1.3.6.8s.3.3 1.2 1.3l.9 1.1.9 1.3s.3.3.9 1.1l.6.8v1.1l-.6 1.1-.9 1.1s.3.5.3 1.3v.8l-.9.5-2.5-1.3s-.6-1.1-1.2-1.9-1.9-2.1-1.9-2.1l-.3-.8-1.2-.3h-2.5l-.6.8s-.9.3-.9 1.1v.8l-.4-.4c-.1 0 0 .2.7 1.4l1.6 2.4-2.5-2.7-1.5-1.1h-1.6l-1.5-.3h-.9l-3.1 1.6s-1.9-.5-3.1 0-2.8.8-2.8.8l-.6 1.1-.3.8-1.5.8-1.2 1.1-.3 1.1s.6.8.3 1.6l-.3.8-.3 1.1v1.1l-.9.5-.9.8s-.9.8-1.9 1.6c-.9.8-.6.3-2.2 2.1-1.6 1.9-1.9 2.7-3.7 4-1.9 1.3-1.2 1.3-.9 2.4s.3 1.6 1.2 2.1 2.2.8 2.2.8 1.2 0 1.2 1.6.6 3.2-.3 4 0 1.1-2.5 1.6-4.3 1.6-4.3 1.6-1.2 2.1-3.7 2.9-4.3 2.4-4.3 2.4.3.8.9 2.7 0 .3 1.5 2.1c1.5 1.9 5.3 2.4 5 3.2s-1.9 2.1-1.9 2.1-2.2-1.1-2.2 0 .3 2.7.3 2.7.3.3.9 1.1 1.9 2.4 3.1 3.5 1.9 1.6 2.8 1.3 2.5-.8 3.7-.8 3.4-.3 3.4-.3.6-.3 1.9 0c1.2.3.9 1.1 2.8 1.6s5.6 2.1 6.2 4.3c.6 2.1 1.5 3.2 1.9 6.4.3 3.2 1.2 3.7 1.5 5.1.3 1.3 2.5 4.3 1.9 6.7s-1.2 3.2-.3 3.7 1.9.8 1.9.8 3.7 0 4.3 1.3l.6 1.3-4 .5s0 1.9-.6 2.9c-.6 1.1-.6 2.9.6 3.5 1.2.5 1.9 1.3 2.8.5s1.9-2.4 2.5-1.1-1.9 3.7-1.9 3.7-1.9 1.6-1.9 3.5 0 5.3.6 7.5c.6 2.1 0 .8 1.5 4s2.2 5.3 2.2 5.3 0 2.9 1.6 4.5c1.5 1.6 2.8 2.9 4 5.1l1.2 2.1s.9-.5 2.5.3c1.5.8 2.8 1.9 4 2.4s1.5 1.1 2.2-.5c.6-1.6 1.5-.8 1.9-4 .3-3.2.6-5.1.6-5.1s1.9-1.1 2.2-2.4 1.2-3.7 1.5-4.8 0-2.1 1.5-2.9 3.1-1.1 3.1-1.1l2.5-.3s4.3-3.7 5.6-4.8c1.2-1.1 3.4-6.1 3.4-6.1s9.3-.8 10.8-2.1c1.6-1.3 6.2-5.3 6.2-5.3l.7-1.5zm14 25.6c.9 0 1.2-.5 2.5-1.3 1.2-.8 1.5-2.7 1.5-2.7s-.9-1.6-1.5-2.9-.3-1.6-.3-1.6l-2.2-1.6-1.9.5-1.5.3-1.5.5H296l-1.9-.5s-.9-.5-1.9-.5c-.9 0-1.2.3-1.2.3l-.6 1.1-1.2 1.9v1.3l.9.3 1.5.8-.3.8-.9.3-.6 1.1.9.5.9.8v2.9h3.7c1.5 0 1.9.5 1.9.5l2.5 1.1 1.9-1.6c1.9-1.6 0 0 1.2-1.1 1.1-1.2 1.7-1.2 2.7-1.2zM186.6 569.5c-2.2-1.1-3.1-1.1-3.1-1.1l-1.6-.3-2.5-1.1-2.2-1.1-1.9-.5-1.5 1.6-.6 1.3 1.5.3 3.4.8s3.4.3 4.6 1.3c1.2 1.1 3.1 1.3 3.1 1.3l2.5 1.3 4 .5.3-1.3-1.5-.8s-1.2-.5-2.2-.8c-.8-.1-.1-.4-2.3-1.4zm7.4 6.9l2.8.8s1.2-.3 2.2-.5c.9-.3 3.4-.3 3.4-.3l-.3-.8-.9-.5-1.2-.8-5.3-1.1s.9.3-.3 1.6c-1.3 1.3-.4 1.6-.4 1.6zm59.1 35.4c-1.5-.3-2.5-1.6-5-2.4s-4.6-1.3-4.6-1.3l-4.6-2.1s0-1.6-1.9-3.5-2.2-3.5-3.4-3.7c-1.2-.3-4-1.3-4-1.3l-5.9-1.6-4.3-3.5-1.9-2.9-2.8-.5-5.3.3-2.2-.8-5.6-3.5-1.2.5-1.9.5s-5-.3-3.1 0-1.9.8-1.9.8l-1.9.8-2.8 1.9s-1.4 1.5-2 2.2c-.2-.3-2.9.5-2.9.5s-1.9-.5-3.1-.5-4.3-.8-4.3-.8l-2.2-1.6s-.6.8-.6-1.6.6-.8-.3-4.3 2.8-4.5-3.1-4.3c-5.9.3-6.5-.5-6.5-.5l-2.8-1.9-.6-1.6s1.4-.2 2.2-.3c-2.2.3 4-1.9 4-1.9l-.3-2.4H161s-1.9 2.7-1.6 1.9-2.8 4-2.5 3.2-4.3 1.6-4.3 1.6l-3.7-1.3s-3.4-7.4-3.1-8.5.3-4 .3-4l.3-4 4.3-2.9s4.6-2.1 6.2-1.1c1.5 1.1 4.3.5 4.3.5s3.4-1.9 4.3-1.6 3.1 1.1 3.1 1.1l2.5.5c-2.4-.5 3.4 2.4 3.4 3.2s-.3 3.5 1.2 4.3 3.1.8 3.1.8 2.2-4.3 1.6-5.1-4.6-6.1-4.6-6.1 5.9-4.5 6.5-5.3 3.1-.8 5-3.5 2.2-6.9 2.2-6.9 7.4-5.1 4.3-4 5.6-3.2 5.6-3.2l-.6-2.1s5.3-3.7 6.5-3.7 1.5 1.3 1.5 1.3 1.9-.3 4-.5c2.2-.3 6.2-2.7 6.5-3.7.3-1.1 1.2.3-2.8-2.1s-3.7-4-3.7-4-.7-1.4-1-2.3c-.8.1-3.3-.7-3.3-.7l-1.5-.8s3.7-1.6 4.6-1.6 1.9 1.1 1.9 1.1 1.2 1.9 2.2 2.1c.9.3 2.2-.3 2.2-.3l.3-1.3s.6-1.1 1.6-1.3c.9-.3 1.9-.3 3.1-1.1s3.4-1.9 3.4-1.9-4.3 6.9-4 7.7 1.5 1.9 2.8 1.9 4 .5 4 .5l-.6 2c.1-.3.6-1.4 2.4-1 2.2.5 4 1.3 4 1.3s.2-1.8.2-2.4c-.2-.7-.6-3.8-.6-3.8l-.9-1.9-2.8-1.1-1.9-.8-.6-1.9.3-3.5s-1.2-4.3-1.9-5.1l-1.2-1.6s-3.4-2.1-5-3.5c-1.5-1.3-3.1-4.5-3.1-4.5l-1.2-3.5s-4.6-6.7-3.1-4.8-1.2-3.7-1.2-3.7-3.1 2.4-2.8 3.2-.6 1.9-1.5 2.7-2.2.8-2.2.8-1.9 0-2.5-3.2-1.5-5.1-1.5-5.1l-3.7-2.4-2.8-2.1-2.9.6-4.3-.5-1.2 1.3s-.6 4.8-.3 3.2 0 2.7 0 2.7l-.9 4.3.6 3.2s5 3.2 1.2 6.7l-3.7 3.5v4c0 1.3 2.2 5.1.3 5.6s-2.8 1.3-4.3-.8-1.5-4.8-1.9-6.7c-.3-1.9-2.5-3.5-2.5-3.5l-3.7-.5s-2.8-2.9-6.2-3.7-7.1-1.9-7.1-1.9-1.3-2.6-2.2-4.2c2.1 4.2-2.5-2.1-2.5-2.1s1.9-7.5 2.8-8.5c.9-1.1 4-3.5 4-3.5l1.2-2.1s3.4-1.3 4.3-2.4 1.9-4.5 1.9-4.5l2.8-.5s-1.5 1.6-2.2 2.9c-.6 1.3-3.1.8-.6 2.9s3.4 2.1 3.4 2.1l2.5-1.3 1.9-.8 4.3 1.9 1.5-1.3s-.9-1.9-2.8-3.5-3.4-3.2-3.4-3.2l-.3-3.2s.9-.8 2.5-1.9c1.5-1.1 1.5-4.3 1.5-4.3l-.6-2.9.9-1.6s-.6-2.9-1.2-3.5c-.6-.5-1.9-1.9-3.7-1.9-1.9 0-3.4 1.1-3.4 1.1v2.9l-.6 1.5-1.2 1.1-.6 1.3v2.4l-1.2-.3-1.2-2.1.6-2.1-.6-1.6s.3-.8-1.2-1.6-2.8-.8-2.8-.8l-3.1-1.6.3-2.7-2.8-5.3s-.9-2.7-1.2-3.7c-.3-1.1 1.5-3.2 1.5-3.2l2.5-.8s.3-3.7 1.5-5.1c1.2-1.3 1.2-2.9 1.2-2.9l-4 .3-1.9-.5-2.8-.3-.6.8-1.2 3.5s-.3 2.7-.3 4 .6 5.6 0 6.9-1.5 2.7-1.5 2.7l-.9 2.1.9 2.9 1.5 1.3 3.1 1.3.3 1.9-1.5.3s-.3-.3-1.5-1.3c-1.2-1.1-2.5-1.9-2.5-1.9l-2.5-.5-.6 1.1-2.2 1.6-.6.8 3.4 2.7-2.2 1.6-.3 1.3s-2.5.5-3.4.5-3.4-.8-4.6-1.9-3.4-2.9-3.4-2.9l-2.5-.5s-2.2.8-3.1 1.1-2.2 1.1-2.5 1.9-3.7 2.1-5.6 2.4-5-1.1-5-1.1l1.2-2.4-2.2-1.9-2.5-.5-2.8-.3-6.8-2.4s.6-.8-1.5-.5c-2.2.3-3.1.8-3.1.8s0-1.3-.9-2.1-2.2-1.3-2.2 0-.9 2.4-.9 2.4-.3-.3-1.2-1.3c-.9-1.1-2.8-2.9-2.8-2.9l-1.5-1.9s-.3.5-.3 1.3v.8l-1.2.5h-2.8l-.9.8-.9.3-.9.3-1.5 1.6-1.2.3-1.5-.3s-1.2-.5-1.9.3c-.6.8-2.2 2.1-2.2 2.1l-1.5.5-3.7-2.4-3.1-.3s-4.6-2.4-6.8-1.9-3.7.3-3.7.3l-1.9-.8-4.3-1.6s0-.3-1.2-.3.6-.3-1.2 0c-1.9.3-4-1.1-4-1.1l-.9-.8H36c-.9 0-.9-.8-2.2-1.1l-1.2-.3-3.1-.5-1.9 1.1s-2.8 0-3.7.3-1.5 3.2-2.5 3.2c-.9 0-2.8 1.6-2.8 1.6l-3.7 3.2-3.4 1.6-.9 1.3s-.6 2.1.3 2.7l.9.5 1.5 1.1 1.5 1.6 1.5 1.9 1.2.8.9 1.3-.3.8-1.9-.8-2.2-.8-.9.5s-1.5.8-2.5 1.3l-.9.5-1.9 1.6.6 1.3.6 1.6.6.8 1.2.8 1.5.5H17l.9-.3s-.3-.5.9 0 2.5-.3 1.5 1.6c-.9 1.9-1.2 2.1-3.7 3.2s-2.8-.8-4.3 2.7-1.5 3.7-.6 5.3 1.2 2.9 3.1 3.5c1.9.5 1.9-.3 3.1.5s1.2 2.1 1.5 2.9 3.4 1.9 4.3 1.9 2.2-.3 3.1-.5c.9-.3 0 1.1-.3 2.4s-2.8 3.7-4.3 4.8-4.6.8-6.5 2.4-3.7 2.7-5.6 4-8.7 4.8-8.7 4.8 9-1.9 11.5-3.7c2.5-1.9 3.7-2.7 3.7-2.7l.9.8s0 .3 1.9-.8l1.9-1.1.9.3s2.2 1.3 2.2 0v-1.3s1.9-2.4 3.1-2.7 4.6-3.2 5.9-4.8c1.2-1.6 1.9-2.7 1.9-3.7 0-1.1.3-2.7 1.9-3.7 1.6-1.1 2.5-1.9 2.5-1.9l-1.9 4.3s-2.2 5.1-3.1 6.6c-.9 1.6-1.2 2.7-1.2 2.7s1.2 1.1 2.2 0c.9-1.1 1.9-2.1 2.8-3.2s1.6-1.3 1.2-2.4c-.3-1.1-.6-1.3.3-2.4s4-4.3 6.5-4.3 7.1.8 8.7.8c1.5 0 6.8.5 9 2.4s3.7 3.2 5 5.6c1.2 2.4 2.5 4 4.6 5.9 2.2 1.9 4.3 2.7 4.3 2.7s3.1 2.7 3.7 3.7c.6 1.1 1.9 1.1 2.8 3.7.9 2.7.3 2.9.9 3.7s.9.8 4.6 4.3c3.7 3.5 3.7 6.7 3.7 6.7s-.6 8-.9 10.1-.6 4.3 0 5.9 1.5 2.1 3.1 3.7c1.5 1.6 1.9 1.9 3.1 3.7 1.2 1.9 2.5 3.2 4.6 4.5l2.2 1.3s.6 1.3 1.5 2.9 0 1.9 1.5 3.2 3.1.8 3.1 2.1-.3 2.4.6 3.2 1.2.3 2.5 1.3c1.2 1.1 1.2 2.1 1.2 2.1l2.2 1.3s1.2 1.3 2.2 2.4c.9 1.1 1.9.8 1.9 0s-1.2-4.3-2.5-5.3c-1.2-1.1-1.2-1.6-2.2-2.4-.9-.8-2.5-2.4-2.5-2.4s-3.4-2.7-3.4-4 1.2-1.9 1.2-1.9l1.6 1.6s1.9 2.9 4.6 5.6c2.8 2.7 4.3 4.5 5.9 5.9 1.6 1.3 2.5 1.1 3.4 2.7s.9 2.7.9 3.5.9 2.7 3.1 4.5c2.2 1.9 9.6 4.5 14.9 5.9 5.3 1.3 7.7 1.3 7.7 1.3l.9 1.3 1.5 1.1s.6.3 1.9 0c1.2-.3 2.2-.3 2.2-.3s0-.5 1.2.5c1.2 1.1 3.4 2.9 3.4 2.9s.9 1.1 1.2 2.1c.3 1.1 3.1 1.3 4.3 2.4s.9 1.9 2.2 2.7c1.2.8-2.2.8 2.8 1.1s6.8.8 6.8.8 1.2.8.6 3.2-2.5 5.3-4 6.9c-1.6 1.6-1.9 1.3-2.2 4s-.9 2.4-.6 4.3 2.5 4 4.6 6.9c2.2 2.9 3.1 5.6 5.3 9.3s3.4 4 7.7 6.1 4 4.3 4 4.3-1.5 13.8-2.2 15.2c-.6 1.3-.6 10.6-2.8 13.8s-2.5 10.7-2.8 11.7c-.3 1.1 0 2.9-1.2 5.1-1.2 2.1-.9 4.8-.9 6.4s-.6 5.6-.6 5.6-.9 2.9-.3 5.6 0 2.4.6 4.8 1.9 4.5 3.1 5.6 3.7 3.2 6.2 4.3 4.6 2.4 5.9 1.9c1.2-.5 4-2.9 4-2.9l4.6-.5s-5.3-1.6-7.1-3.2c-1.9-1.6-1.2-2.4-2.2-4-.9-1.6-1.2-3.5-1.2-3.5v-2l.9-.5 1.2-2.4 1.2-1.6 2.5-2.4-.3-1.9-2.5-2.1.6-1.6 1.9-1.3.9-.3s.6-2.7 1.5-3.2 2.2-2.4 2.2-2.4-1.9-.8-2.2-1.6 1.9-1.3 2.8-1.6 2.2-.8 2.5-2.1 1.9-2.4 1.9-2.4 6.5.3 7.4-1.6.3-4 0-5.3.3-2.1.3-2.1l5.6.5 2.8-1.3 2.5.8s.3-1.3 0-2.1 0-3.2 0-3.2 2.2-2.7 3.4-4 2.8-1.3 2.5-3.7.9-5.6 3.1-6.9 9.3-2.1 9.3-2.1 1.9-1.3 2.2-2.7c.3-1.3 2.2-2.9 2.2-2.9s1.5-4 2.2-6.1c.6-2.1.6-6.1.6-6.1s6.2-4.5 6.5-6.1.3-5.8.3-5.8-2.5-.8-4-2.1c-1.5-1.6-9.5-3.8-11.1-4zm182.1 16.5l-1.9-1.6s-2.8 2.9-3.7 4.3c-.9 1.3-1.5 3.5-3.1 4s-3.1.8-3.4 1.6.6 4.3 0 5.9-2.8 3.5-2.2 5.1.3 2.7.9 3.7c.6 1.1 1.6 1.9 3.1 1.6 1.6-.3 3.7-1.3 4.6-2.7.9-1.3 2.5-3.7 2.5-5.3s.3-4.3 1.5-6.4 2.2-4.3 1.9-5.6c-.2-1.4-.2-4.6-.2-4.6zm-216.7-43.4s0-4.8-1.5-6.7c-1.6-1.9-2.8-2.4-2.8-2.4l-1.9-1.1h-6.5l.3.8-.9 1.3h6.5s1.9.8 2.8 1.6 2.2 1.6 2.5 3.2-.9 4.8-.9 4.8l2.4-1.5zm228.4 40.7l1.9 1.1.9-1.3-1.9-.8-.9 1zm33.8-29.5l-2.2-.8-.3 2.4 1.9.5.6-2.1zm-1.9 12.7h1.5v-2.7h-1.9l.4 2.7zm.9-18.3l1.5-.8-1.5-1.9-2.7-1.8s-.9 1.1 0 2.1c.9 1.1 1.2 1.9 1.2 1.9l1.5.5zm-.9 12.5l1.9 1.3.3-1.9.6-2.1-2.8.3v2.4zM429 623.5l-1.5-1.6s-1.9 1.1-.9 2.1c.8 1.1 2.4-.5 2.4-.5zm10.8-6.1l.6 1.1 2.2-.3-.6-1.3-2.2.5zm3.7-2.7l1.2 1.3 1.2-1.6-1.8-.8-.6 1.1zm-280.6-39.9h-.2.2zm413.4-10.9l-3.1-.5s-.3.5-1.2 2.1-2.2 1.1-.9 2.7c1.2 1.6 2.5 2.1 2.8.8s2.2-1.6 1.9-2.9c-.4-1.4.5-2.2.5-2.2zm6.8 51.6c1.2 0 .3 2.1 1.2 0l.9-2.1h1.6l1.9-.5-.9-1.9v-3.5l.6-.8v-1.1l-.3-1.1-1.2-2.1s-1.6 2.4-1.9 3.2-.3 2.9-.3 2.9l-1.2 1.6-1.9 2.9.3 1.1c0 .1 0 1.4 1.2 1.4zm5.3-58l-3.1 3.5v1.1l1.9-.5s.9-.8 1.9-1.9c.9-1.2-.7-2.2-.7-2.2zm-425.5 17.3c.5-.1.6-.1 0 0zm-22.7-136.6s0 .2-.1.6c1.7.3.1-.6.1-.6zm-46.5-3.9l.6 1.3 1.9-.5 2.8-.5.6-1.9.6-1.9 1.6-1.6.9-.5 1.2-.5v1.1l-.3 1.6 1.2 1.3.9 1.3-.6 1.1s-.9 0-.6.8l.3.8s.9 1.6 1.9 1.9c.9.3 2.5.5 2.5.5s1.2-.5 2.5-.5c1.2 0 .6-.5 2.5.3l1.9.8s-1.5 1.1-3.4 1.1h-6.5s-3.4.3.6 1.9.9 1.3.9 1.3l4.6.5.9.8 3.1 2.4h4s-.3.5 1.2-.8.9-1.9 3.1-1.6 2.2 0 3.4 0 4 0 6.2.5 1.5 1.6 2.2.5c.6-1.1.6-1.1 1.6-2.4.9-1.3.9-1.6 1.5-2.9.3-.6.4-1.1.5-1.5-.4-.1-1-.2-1.8-.4-4.3-1.1-4.6-1.9-4.6-1.9l-.9-2.9s-1.5-4.3-1.5-5.1v-3.2l.9-2.7s-.6-1.9-1.5-2.1c-.9-.3-2.5-.3-2.5-.3l-1.9 1.3s1.9 1.3.9 1.3c-.9 0-2.8.5-2.8.5l.3 4.3s-1.5-1.1-2.5-1.9l-.9-.8-2.8 2.1s.3-1.1-1.5-1.6c-1.9-.5-3.4-.5-3.4-.5l-.3-1.9s-.6-.8-1.5-.5-1.9-.8-1.9-.8l-3.4-4s-1.2-1.3-2.2-1.3c-.9 0-3.1.3-3.1.3l-3.1-1.3s.3.8-1.6.8-4.3.3-4.3.3v1.6s.3 1.3 0 2.1-.3 4-.3 4-.3 2.1-.9 2.9-.9 2.7-.9 2.7l1.9 1.9 1.8 2.4zm1.6-29.3l1.5 2.1 1.5-.3 1.9.3s2.8-1.9 3.4-3.2.9-1.3.9-1.3v3.7c0 1.6-1.6 2.7-1.6 2.7h2.2s.9-3.7 1.9-5.1c.9-1.3 1.5-1.9 2.2-2.7.6-.8.3-2.9.3-2.9v-5.1s-2.5 2.4-4.6 2.4h-2.2l-2.2 2.1-.9 1.6-1.5 1.9s-.6 1.1-2.2 2.9c-1.6 1.9-.6.9-.6.9zm138 112.3c0-.3 0-.2 0 0s0 .2 0 0zm-79.8-33.4l.3.6-.3-.6zm56.6 28.6c-.4-.4-.3-.1-.1.4.2 0 .3-.1.1-.4zm-56.6-28.6c-.2-.3-.3-.5-.3-.6 0 .1.1.4.3.6zm5.5 122.3s-1.2.8-1.2 1.6 1.9 1.6 1.9 1.6l.9.3 1.2-.8v-1.6l-1.2-.8-1.6-.3zm60.7 101.9s-.6 0-1.5 1.1 0 1.6 0 1.6l1.9.3 3.1-.3 1.5-1.9-2.5-1.1-2.5.3zm-40.2-266.4l2.2-.3v-.8l1.2-.8 1.2 1.6-2.2 1.6v2.7l1.2-1.9c1.9.5 5.9 1.6 5.9 1.6h-3l.3.8s.6 0 1.5.3 2.2.3 2.8 1.1l.6.8h-1.6l-1.5.3s-2.5-.8-2.8.5 0 3.5 0 3.5h2.8l.6-.8 1.2-1.1h2.5s.6-.5.9.5c.3 1.1 1.5 1.9 0 3.2-1.6 1.3-2.5 2.9-2.5 2.9l-.3 2.1s1.9.5-2.2 1.1c-4 .5-4.6.5-4.6 1.6s.3 3.5.3 3.5l-.9 2.1 3.1 1.1-.3-2.4s2.2-1.1 3.4-1.1 2.8 1.3 2.8 1.3 3.4 4 6.5 5.3 4.6 1.3 5.6 1.6c.9.3 3.4 1.1 3.4 1.1v-2.4l-.7-1.3-.5-.8 2.5 1.6 2.2-4.3s-.9-4-2.8-5.1-3.4-3.7-3.4-4.5v-.8l2.2 1.6s1.2 1.9 2.8 2.7l1.6.8 1.5-1.3s.9-1.3 2.5-2.4 0-4.8-1.5-5.6-4.6-3.5-4.6-3.5l-1.9-1.3-3.1-2.1.6-1.1.3-1.6s-2.2-1.1-1.2-1.6c.9-.5 0-3.2 0-3.2l-3.1-2.9-1.9-.5s-1.2-.8-1.9-1.6c-.6-.8-2.5-2.1-2.5-2.1s-1.2-.5-2.2-1.1l-.9-.5-1.5-1.9-1.5-1.1c-1.9-1.1-1.9-2.4-1.9-2.4l-1.9-3.2-3.7-1.3s-.3-.3-1.5 0-3.4.5-3.4.5l-2.8-.5-1.2.3s-.9-.8-1.9-.8h-3.7s-2.8 2.7-3.7 3.5-1.9 1.6-1.9 2.9-.6 5.6-.9 6.4.9 1.9.9 1.9l.6 1.9s0 .5 1.9 2.4 3.7 1.9 3.7 1.9 4.6-.3 6.2.5c1.5.8 2.5 2.7 2.5 2.7l1.9-1.3 1.7-.5z"/><path class="st2" d="M104.9 722c0-.8.7-1.5 1.5-1.5s1.5.7 1.5 1.5-.7 1.5-1.5 1.5c-.9 0-1.5-.7-1.5-1.5zm0-9c0-.8.7-1.5 1.5-1.5s1.5.7 1.5 1.5-.7 1.5-1.5 1.5c-.9 0-1.5-.7-1.5-1.5zm0-9c0-.8.7-1.5 1.5-1.5s1.5.7 1.5 1.5-.7 1.5-1.5 1.5c-.9 0-1.5-.7-1.5-1.5zm0-9c0-.8.7-1.5 1.5-1.5s1.5.7 1.5 1.5-.7 1.5-1.5 1.5c-.9 0-1.5-.7-1.5-1.5zm0-9c0-.8.7-1.5 1.5-1.5s1.5.7 1.5 1.5-.7 1.5-1.5 1.5c-.9 0-1.5-.7-1.5-1.5zm0-9c0-.8.7-1.5 1.5-1.5s1.5.7 1.5 1.5-.7 1.5-1.5 1.5c-.9 0-1.5-.7-1.5-1.5zm0-9c0-.8.7-1.5 1.5-1.5s1.5.7 1.5 1.5-.7 1.5-1.5 1.5c-.9 0-1.5-.7-1.5-1.5zm0-9c0-.8.7-1.5 1.5-1.5s1.5.7 1.5 1.5-.7 1.5-1.5 1.5c-.9 0-1.5-.7-1.5-1.5zm0-9c0-.8.7-1.5 1.5-1.5s1.5.7 1.5 1.5-.7 1.5-1.5 1.5c-.9 0-1.5-.7-1.5-1.5zm0-9c0-.8.7-1.5 1.5-1.5s1.5.7 1.5 1.5-.7 1.5-1.5 1.5c-.9 0-1.5-.7-1.5-1.5zm0-9c0-.8.7-1.5 1.5-1.5s1.5.7 1.5 1.5-.7 1.5-1.5 1.5c-.9 0-1.5-.7-1.5-1.5zm0-9c0-.8.7-1.5 1.5-1.5s1.5.7 1.5 1.5-.7 1.5-1.5 1.5c-.9 0-1.5-.7-1.5-1.5zm0-9c0-.8.7-1.5 1.5-1.5s1.5.7 1.5 1.5-.7 1.5-1.5 1.5c-.9 0-1.5-.7-1.5-1.5zm0-9c0-.8.7-1.5 1.5-1.5s1.5.7 1.5 1.5-.7 1.5-1.5 1.5c-.9 0-1.5-.7-1.5-1.5zm0-9c0-.8.7-1.5 1.5-1.5s1.5.7 1.5 1.5-.7 1.5-1.5 1.5c-.9 0-1.5-.7-1.5-1.5zm0-9c0-.8.7-1.5 1.5-1.5s1.5.7 1.5 1.5-.7 1.5-1.5 1.5c-.9 0-1.5-.7-1.5-1.5zm0-9c0-.8.7-1.5 1.5-1.5s1.5.7 1.5 1.5-.7 1.5-1.5 1.5c-.9 0-1.5-.7-1.5-1.5zm0-9c0-.8.7-1.5 1.5-1.5s1.5.7 1.5 1.5-.7 1.5-1.5 1.5c-.9 0-1.5-.7-1.5-1.5zm0-9c0-.8.7-1.5 1.5-1.5s1.5.7 1.5 1.5-.7 1.5-1.5 1.5c-.9 0-1.5-.7-1.5-1.5zm0-9c0-.8.7-1.5 1.5-1.5s1.5.7 1.5 1.5-.7 1.5-1.5 1.5c-.9 0-1.5-.7-1.5-1.5zm0-9c0-.8.7-1.5 1.5-1.5s1.5.7 1.5 1.5-.7 1.5-1.5 1.5c-.9 0-1.5-.7-1.5-1.5zm0-9c0-.8.7-1.5 1.5-1.5s1.5.7 1.5 1.5-.7 1.5-1.5 1.5c-.9 0-1.5-.7-1.5-1.5zm0-9c0-.8.7-1.5 1.5-1.5s1.5.7 1.5 1.5-.7 1.5-1.5 1.5c-.9 0-1.5-.7-1.5-1.5zm0-9c0-.8.7-1.5 1.5-1.5s1.5.7 1.5 1.5-.7 1.5-1.5 1.5c-.9 0-1.5-.7-1.5-1.5zm0-9c0-.8.7-1.5 1.5-1.5s1.5.7 1.5 1.5-.7 1.5-1.5 1.5c-.9 0-1.5-.7-1.5-1.5zm0-9c0-.8.7-1.5 1.5-1.5s1.5.7 1.5 1.5-.7 1.5-1.5 1.5c-.9 0-1.5-.7-1.5-1.5zm0-9c0-.8.7-1.5 1.5-1.5s1.5.7 1.5 1.5-.7 1.5-1.5 1.5c-.9 0-1.5-.7-1.5-1.5zm0-9c0-.8.7-1.5 1.5-1.5s1.5.7 1.5 1.5-.7 1.5-1.5 1.5c-.9 0-1.5-.7-1.5-1.5zm0-9c0-.8.7-1.5 1.5-1.5s1.5.7 1.5 1.5-.7 1.5-1.5 1.5c-.9 0-1.5-.7-1.5-1.5zm117.4 341.8c0-.8.7-1.5 1.5-1.5s1.5.7 1.5 1.5-.7 1.5-1.5 1.5-1.5-.6-1.5-1.5zm0-9c0-.8.7-1.5 1.5-1.5s1.5.7 1.5 1.5-.7 1.5-1.5 1.5-1.5-.6-1.5-1.5zm0-9c0-.8.7-1.5 1.5-1.5s1.5.7 1.5 1.5-.7 1.5-1.5 1.5-1.5-.6-1.5-1.5zm0-9c0-.8.7-1.5 1.5-1.5s1.5.7 1.5 1.5-.7 1.5-1.5 1.5-1.5-.6-1.5-1.5zm0-9c0-.8.7-1.5 1.5-1.5s1.5.7 1.5 1.5-.7 1.5-1.5 1.5-1.5-.6-1.5-1.5zm0-9c0-.8.7-1.5 1.5-1.5s1.5.7 1.5 1.5-.7 1.5-1.5 1.5-1.5-.6-1.5-1.5zm0-9c0-.8.7-1.5 1.5-1.5s1.5.7 1.5 1.5-.7 1.5-1.5 1.5-1.5-.6-1.5-1.5zm0-9c0-.8.7-1.5 1.5-1.5s1.5.7 1.5 1.5-.7 1.5-1.5 1.5-1.5-.6-1.5-1.5zm0-9c0-.8.7-1.5 1.5-1.5s1.5.7 1.5 1.5-.7 1.5-1.5 1.5-1.5-.6-1.5-1.5zm0-9c0-.8.7-1.5 1.5-1.5s1.5.7 1.5 1.5-.7 1.5-1.5 1.5-1.5-.6-1.5-1.5zm0-9c0-.8.7-1.5 1.5-1.5s1.5.7 1.5 1.5-.7 1.5-1.5 1.5-1.5-.6-1.5-1.5zm0-9c0-.8.7-1.5 1.5-1.5s1.5.7 1.5 1.5-.7 1.5-1.5 1.5-1.5-.6-1.5-1.5zm0-9c0-.8.7-1.5 1.5-1.5s1.5.7 1.5 1.5-.7 1.5-1.5 1.5-1.5-.6-1.5-1.5zm0-9c0-.8.7-1.5 1.5-1.5s1.5.7 1.5 1.5-.7 1.5-1.5 1.5-1.5-.6-1.5-1.5zm0-9c0-.8.7-1.5 1.5-1.5s1.5.7 1.5 1.5-.7 1.5-1.5 1.5-1.5-.6-1.5-1.5zm0-9c0-.8.7-1.5 1.5-1.5s1.5.7 1.5 1.5-.7 1.5-1.5 1.5-1.5-.6-1.5-1.5zm0-9c0-.8.7-1.5 1.5-1.5s1.5.7 1.5 1.5-.7 1.5-1.5 1.5-1.5-.6-1.5-1.5zm0-9c0-.8.7-1.5 1.5-1.5s1.5.7 1.5 1.5-.7 1.5-1.5 1.5-1.5-.6-1.5-1.5zm0-9c0-.8.7-1.5 1.5-1.5s1.5.7 1.5 1.5-.7 1.5-1.5 1.5-1.5-.6-1.5-1.5zm0-9c0-.8.7-1.5 1.5-1.5s1.5.7 1.5 1.5-.7 1.5-1.5 1.5-1.5-.6-1.5-1.5zm133.3 78.3c0-.8.7-1.5 1.5-1.5s1.5.7 1.5 1.5-.7 1.5-1.5 1.5-1.5-.7-1.5-1.5zm0-9c0-.8.7-1.5 1.5-1.5s1.5.7 1.5 1.5-.7 1.5-1.5 1.5-1.5-.7-1.5-1.5zm0-9c0-.8.7-1.5 1.5-1.5s1.5.7 1.5 1.5-.7 1.5-1.5 1.5-1.5-.7-1.5-1.5zm0-9c0-.8.7-1.5 1.5-1.5s1.5.7 1.5 1.5-.7 1.5-1.5 1.5-1.5-.7-1.5-1.5zm0-9c0-.8.7-1.5 1.5-1.5s1.5.7 1.5 1.5-.7 1.5-1.5 1.5-1.5-.7-1.5-1.5zm0-9c0-.8.7-1.5 1.5-1.5s1.5.7 1.5 1.5-.7 1.5-1.5 1.5-1.5-.7-1.5-1.5zm0-9c0-.8.7-1.5 1.5-1.5s1.5.7 1.5 1.5-.7 1.5-1.5 1.5-1.5-.7-1.5-1.5zm0-9c0-.8.7-1.5 1.5-1.5s1.5.7 1.5 1.5-.7 1.5-1.5 1.5-1.5-.7-1.5-1.5zm0-9c0-.8.7-1.5 1.5-1.5s1.5.7 1.5 1.5-.7 1.5-1.5 1.5-1.5-.7-1.5-1.5zm0-9c0-.8.7-1.5 1.5-1.5s1.5.7 1.5 1.5-.7 1.5-1.5 1.5-1.5-.7-1.5-1.5zm0-9c0-.8.7-1.5 1.5-1.5s1.5.7 1.5 1.5-.7 1.5-1.5 1.5-1.5-.7-1.5-1.5zm0-9c0-.8.7-1.5 1.5-1.5s1.5.7 1.5 1.5-.7 1.5-1.5 1.5-1.5-.7-1.5-1.5zm0-9c0-.8.7-1.5 1.5-1.5s1.5.7 1.5 1.5-.7 1.5-1.5 1.5-1.5-.7-1.5-1.5zm0-9c0-.8.7-1.5 1.5-1.5s1.5.7 1.5 1.5-.7 1.5-1.5 1.5-1.5-.7-1.5-1.5zm0-9c0-.8.7-1.5 1.5-1.5s1.5.7 1.5 1.5-.7 1.5-1.5 1.5-1.5-.7-1.5-1.5zm0-9c0-.8.7-1.5 1.5-1.5s1.5.7 1.5 1.5-.7 1.5-1.5 1.5-1.5-.7-1.5-1.5zm0-9c0-.8.7-1.5 1.5-1.5s1.5.7 1.5 1.5-.7 1.5-1.5 1.5-1.5-.7-1.5-1.5zm0-9c0-.8.7-1.5 1.5-1.5s1.5.7 1.5 1.5-.7 1.5-1.5 1.5-1.5-.7-1.5-1.5zm0-9c0-.8.7-1.5 1.5-1.5s1.5.7 1.5 1.5-.7 1.5-1.5 1.5-1.5-.7-1.5-1.5zm0-9c0-.8.7-1.5 1.5-1.5s1.5.7 1.5 1.5-.7 1.5-1.5 1.5-1.5-.7-1.5-1.5zm0-9c0-.8.7-1.5 1.5-1.5s1.5.7 1.5 1.5-.7 1.5-1.5 1.5-1.5-.7-1.5-1.5zm0-9c0-.8.7-1.5 1.5-1.5s1.5.7 1.5 1.5-.7 1.5-1.5 1.5-1.5-.7-1.5-1.5zm0-9c0-.8.7-1.5 1.5-1.5s1.5.7 1.5 1.5-.7 1.5-1.5 1.5-1.5-.7-1.5-1.5zm39.6 232.6c0-.8.7-1.5 1.5-1.5s1.5.7 1.5 1.5-.7 1.5-1.5 1.5-1.5-.7-1.5-1.5zm0-9c0-.8.7-1.5 1.5-1.5s1.5.7 1.5 1.5-.7 1.5-1.5 1.5-1.5-.7-1.5-1.5zm0-9c0-.8.7-1.5 1.5-1.5s1.5.7 1.5 1.5-.7 1.5-1.5 1.5-1.5-.7-1.5-1.5zm0-9c0-.8.7-1.5 1.5-1.5s1.5.7 1.5 1.5-.7 1.5-1.5 1.5-1.5-.7-1.5-1.5zm0-9c0-.8.7-1.5 1.5-1.5s1.5.7 1.5 1.5-.7 1.5-1.5 1.5-1.5-.7-1.5-1.5zm0-9c0-.8.7-1.5 1.5-1.5s1.5.7 1.5 1.5-.7 1.5-1.5 1.5-1.5-.7-1.5-1.5zm0-9c0-.8.7-1.5 1.5-1.5s1.5.7 1.5 1.5-.7 1.5-1.5 1.5-1.5-.7-1.5-1.5zm0-9c0-.8.7-1.5 1.5-1.5s1.5.7 1.5 1.5-.7 1.5-1.5 1.5-1.5-.7-1.5-1.5zm0-9c0-.8.7-1.5 1.5-1.5s1.5.7 1.5 1.5-.7 1.5-1.5 1.5-1.5-.7-1.5-1.5zm0-9c0-.8.7-1.5 1.5-1.5s1.5.7 1.5 1.5-.7 1.5-1.5 1.5-1.5-.7-1.5-1.5zm0-9c0-.8.7-1.5 1.5-1.5s1.5.7 1.5 1.5-.7 1.5-1.5 1.5-1.5-.7-1.5-1.5zm0-9c0-.8.7-1.5 1.5-1.5s1.5.7 1.5 1.5-.7 1.5-1.5 1.5-1.5-.7-1.5-1.5zm0-9c0-.8.7-1.5 1.5-1.5s1.5.7 1.5 1.5-.7 1.5-1.5 1.5-1.5-.7-1.5-1.5zm0-9c0-.8.7-1.5 1.5-1.5s1.5.7 1.5 1.5-.7 1.5-1.5 1.5-1.5-.7-1.5-1.5zm135.4 121.7c0-.8.7-1.5 1.5-1.5s1.5.7 1.5 1.5-.7 1.5-1.5 1.5-1.5-.7-1.5-1.5zm0-9c0-.8.7-1.5 1.5-1.5s1.5.7 1.5 1.5-.7 1.5-1.5 1.5-1.5-.7-1.5-1.5zm0-9c0-.8.7-1.5 1.5-1.5s1.5.7 1.5 1.5-.7 1.5-1.5 1.5-1.5-.7-1.5-1.5zm0-9c0-.8.7-1.5 1.5-1.5s1.5.7 1.5 1.5-.7 1.5-1.5 1.5-1.5-.7-1.5-1.5zm0-9c0-.8.7-1.5 1.5-1.5s1.5.7 1.5 1.5-.7 1.5-1.5 1.5-1.5-.7-1.5-1.5zm0-9c0-.8.7-1.5 1.5-1.5s1.5.7 1.5 1.5-.7 1.5-1.5 1.5-1.5-.7-1.5-1.5zm0-9c0-.8.7-1.5 1.5-1.5s1.5.7 1.5 1.5-.7 1.5-1.5 1.5-1.5-.7-1.5-1.5zm0-9c0-.8.7-1.5 1.5-1.5s1.5.7 1.5 1.5-.7 1.5-1.5 1.5-1.5-.7-1.5-1.5zm0-9c0-.8.7-1.5 1.5-1.5s1.5.7 1.5 1.5-.7 1.5-1.5 1.5-1.5-.7-1.5-1.5zm0-9c0-.8.7-1.5 1.5-1.5s1.5.7 1.5 1.5-.7 1.5-1.5 1.5-1.5-.7-1.5-1.5zm0-9c0-.8.7-1.5 1.5-1.5s1.5.7 1.5 1.5-.7 1.5-1.5 1.5-1.5-.7-1.5-1.5zm0-9c0-.8.7-1.5 1.5-1.5s1.5.7 1.5 1.5-.7 1.5-1.5 1.5-1.5-.7-1.5-1.5zm0-9c0-.8.7-1.5 1.5-1.5s1.5.7 1.5 1.5-.7 1.5-1.5 1.5-1.5-.7-1.5-1.5zm0-9c0-.8.7-1.5 1.5-1.5s1.5.7 1.5 1.5-.7 1.5-1.5 1.5-1.5-.7-1.5-1.5zm0-9c0-.8.7-1.5 1.5-1.5s1.5.7 1.5 1.5-.7 1.5-1.5 1.5-1.5-.7-1.5-1.5zm0-9c0-.8.7-1.5 1.5-1.5s1.5.7 1.5 1.5-.7 1.5-1.5 1.5-1.5-.7-1.5-1.5zm0-9c0-.8.7-1.5 1.5-1.5s1.5.7 1.5 1.5-.7 1.5-1.5 1.5-1.5-.7-1.5-1.5zm0-9c0-.8.7-1.5 1.5-1.5s1.5.7 1.5 1.5-.7 1.5-1.5 1.5-1.5-.7-1.5-1.5zm0-9c0-.8.7-1.5 1.5-1.5s1.5.7 1.5 1.5-.7 1.5-1.5 1.5-1.5-.7-1.5-1.5zm0-9c0-.8.7-1.5 1.5-1.5s1.5.7 1.5 1.5-.7 1.5-1.5 1.5-1.5-.7-1.5-1.5zm0-9c0-.8.7-1.5 1.5-1.5s1.5.7 1.5 1.5-.7 1.5-1.5 1.5-1.5-.7-1.5-1.5zm0-9c0-.8.7-1.5 1.5-1.5s1.5.7 1.5 1.5-.7 1.5-1.5 1.5-1.5-.7-1.5-1.5zm0-9c0-.8.7-1.5 1.5-1.5s1.5.7 1.5 1.5-.7 1.5-1.5 1.5-1.5-.7-1.5-1.5zm0-9c0-.8.7-1.5 1.5-1.5s1.5.7 1.5 1.5-.7 1.5-1.5 1.5-1.5-.7-1.5-1.5zm0-9c0-.8.7-1.5 1.5-1.5s1.5.7 1.5 1.5-.7 1.5-1.5 1.5-1.5-.7-1.5-1.5zm0-9c0-.8.7-1.5 1.5-1.5s1.5.7 1.5 1.5-.7 1.5-1.5 1.5-1.5-.7-1.5-1.5zm0-9c0-.8.7-1.5 1.5-1.5s1.5.7 1.5 1.5-.7 1.5-1.5 1.5-1.5-.7-1.5-1.5zm0-9c0-.8.7-1.5 1.5-1.5s1.5.7 1.5 1.5-.7 1.5-1.5 1.5-1.5-.7-1.5-1.5zm0-9c0-.8.7-1.5 1.5-1.5s1.5.7 1.5 1.5-.7 1.5-1.5 1.5-1.5-.7-1.5-1.5zm0-9c0-.8.7-1.5 1.5-1.5s1.5.7 1.5 1.5-.7 1.5-1.5 1.5-1.5-.7-1.5-1.5zm0-9c0-.8.7-1.5 1.5-1.5s1.5.7 1.5 1.5-.7 1.5-1.5 1.5-1.5-.7-1.5-1.5zm0-9c0-.8.7-1.5 1.5-1.5s1.5.7 1.5 1.5-.7 1.5-1.5 1.5-1.5-.7-1.5-1.5zM518 258s1.8 2.2 4.7 2.2c2 0 3.6-1.3 3.6-3.2 0-4.5-9-3.6-9-9.2 0-2.5 2.2-4.7 5.6-4.7 1.8 0 4.9.7 4.9 3.1v1.3h-1.7v-.9c0-1.1-1.5-1.9-3.2-1.9-2.4 0-3.7 1.4-3.7 2.9 0 4.2 9 3.2 9 9.2 0 2.7-2.1 5-5.5 5-3.7 0-5.8-2.6-5.8-2.6l1.1-1.2zm11 2h.3c.5 0 .7-.1.9-.6l5.9-16h1.9l5.9 16c.2.5.4.6.9.6h.3v1.6h-.8c-1.3 0-1.7-.3-2.1-1.5l-1.6-4.3h-7.2l-1.6 4.3c-.5 1.2-.8 1.5-2.1 1.5h-.7V260zm11.3-5.8l-2.4-6.5c-.3-.9-.7-2.4-.7-2.4h-.1s-.4 1.5-.7 2.4l-2.4 6.5h6.3zm6.9 5.8h1.1c.4 0 .6-.2.6-.6v-16h1.7l9.3 12.9c.6.9 1.5 2.4 1.5 2.4h.1s-.1-1.4-.1-2.4V245c0-1.1.5-1.6 1.6-1.6h1.9v1.6h-1.1c-.4 0-.6.2-.6.6v16h-1.7l-9.3-12.9c-.6-.9-1.5-2.4-1.5-2.4h-.1s.2 1.4.2 2.4V260c0 1.1-.5 1.6-1.6 1.6h-1.9V260h-.1zm21.3-15h-1.7v-1.6h7.7c3.2 0 5.6 2.1 5.6 5.5s-2.4 5.6-5.6 5.6h-4.2v7.1h-1.8V245zm5.8 7.9c2.4 0 4-1.5 4-4s-1.6-3.9-4-3.9h-4v7.8l4 .1zm8.8-7.9h-1.7v-1.6h10.4c1.1 0 1.6.5 1.6 1.6v1.8h-1.7v-1.2c0-.4-.2-.6-.6-.6h-6.2v6.6h6.8v1.6h-6.8v6.2c0 .4.2.6.6.6h6.4c.4 0 .6-.2.6-.6v-1.2h1.7v1.8c0 1.1-.5 1.6-1.6 1.6h-7.9c-1.1 0-1.6-.5-1.6-1.6v-15zm13.8.6c0-.4-.2-.6-.6-.6h-1.1v-1.6h1.9c1.1 0 1.6.5 1.6 1.6v14.4c0 .4.2.6.6.6h6c.4 0 .6-.2.6-.6v-1.2h1.7v1.8c0 1.1-.5 1.6-1.6 1.6h-7.5c-1.1 0-1.6-.5-1.6-1.6v-14.4zm12.7 0c0-.4-.2-.6-.6-.6h-1v-1.6h1.9c1.1 0 1.6.5 1.6 1.6v14.4c0 .4.2.6.6.6h6c.4 0 .6-.2.6-.6v-1.2h1.7v1.8c0 1.1-.5 1.6-1.6 1.6h-7.5c-1.1 0-1.6-.5-1.6-1.6v-14.4h-.1zm11.6-.6h-1.7v-1.6h10.4c1.1 0 1.6.5 1.6 1.6v1.8h-1.7v-1.2c0-.4-.2-.6-.6-.6H623v6.6h6.8v1.6H623v6.2c0 .4.2.6.6.6h6.4c.4 0 .6-.2.6-.6v-1.2h1.7v1.8c0 1.1-.5 1.6-1.6 1.6h-7.9c-1.1 0-1.6-.5-1.6-1.6v-15zm22.3-1.9c4.2 0 6.4 2.2 6.4 2.2l-1.1 1.3s-2-1.9-5.3-1.9c-4.1 0-7.2 3.3-7.2 7.7 0 4.5 3.1 7.7 7.2 7.7 3.6 0 5.7-2.7 5.7-2.7v-2.2c0-.4-.2-.6-.6-.6h-1.1V253h1.8c1.1 0 1.6.5 1.6 1.6v6.9h-1.7v-2.2h-.1s-2.1 2.5-5.9 2.5c-5 0-8.9-4-8.9-9.4.1-5.2 4-9.3 9.2-9.3zm9.6 1.9h-1.7v-1.6h7.7c3.1 0 5.2 2 5.2 5.2 0 2.8-1.7 4.5-3.5 4.9v.1s.4.2.6.7l2.6 5.2c.3.5.6.6 1.3.6h.4v1.6h-.8c-1.5 0-1.9-.2-2.5-1.4l-2.6-5.2c-.5-1-.8-1.1-1.8-1.1h-3.1v7.7h-1.8V245zm5.8 7.3c2.2 0 3.5-1.4 3.5-3.7 0-2.2-1.3-3.6-3.5-3.6h-4.1v7.3h4.1zm8.4 7.7h1.7v-15h-1.7v-1.6h5.2v1.6h-1.7v15h1.7v1.6h-5.2V260zm7.3 0h1.1c.4 0 .6-.2.6-.6v-16h1.7l9.3 12.9c.6.9 1.5 2.4 1.5 2.4h.1s-.1-1.4-.1-2.4V245c0-1.1.5-1.6 1.6-1.6h1.9v1.6H691c-.4 0-.6.2-.6.6v16h-1.7l-9.3-12.9c-.6-.9-1.5-2.4-1.5-2.4h.1s.2 1.4.2 2.4V260c0 1.1-.5 1.6-1.6 1.6h-1.9l-.1-1.6zm28.2-16.9c5.1 0 9.3 4.1 9.3 9.3 0 5.3-4.1 9.5-9.3 9.5s-9.3-4.2-9.3-9.5c.1-5.2 4.2-9.3 9.3-9.3zm0 17.1c4.1 0 7.4-3.4 7.4-7.8 0-4.3-3.3-7.6-7.4-7.6s-7.4 3.3-7.4 7.6c.1 4.4 3.4 7.8 7.4 7.8zm-164.3 26.3h1.1c.4 0 .6-.2.6-.6v-16h1.7l9.3 12.9c.6.9 1.5 2.4 1.5 2.4h.1s-.1-1.4-.1-2.4v-11.4c0-1.1.5-1.6 1.6-1.6h1.9v1.6h-1.1c-.4 0-.6.2-.6.6v16h-1.7l-9.3-12.9c-.6-.9-1.5-2.4-1.5-2.4h-.1s.2 1.4.2 2.4v11.4c0 1.1-.5 1.6-1.6 1.6h-1.9v-1.6h-.1zm22.6-15h-1.7v-1.6h10.4c1.1 0 1.6.5 1.6 1.6v1.8h-1.7v-1.2c0-.4-.2-.6-.6-.6h-6.2v6.6h6.8v1.6h-6.8v6.2c0 .4.2.6.6.6h6.4c.4 0 .6-.2.6-.6v-1.2h1.7v1.8c0 1.1-.5 1.6-1.6 1.6h-7.9c-1.1 0-1.6-.5-1.6-1.6v-15zm12.6.6c0-.4-.2-.6-.6-.6H572v-1.6h1.9c1.1 0 1.6.5 1.6 1.6v14.4c0 .4.2.6.6.6h6c.4 0 .6-.2.6-.6v-1.2h1.7v1.8c0 1.1-.5 1.6-1.6 1.6h-7.5c-1.1 0-1.6-.5-1.6-1.6v-14.4zm18.9 14.4h1c.4 0 .5-.2.6-.6l1.3-16h1.8l4.8 10.6c.4.9.9 2.1.9 2.1h.1s.5-1.2.9-2.1l4.8-10.6h1.8l1.3 16c0 .4.2.6.6.6h1v1.6h-1.8c-1.1 0-1.5-.5-1.6-1.6l-.9-11c-.1-1-.1-2.5-.1-2.5h-.1s-.5 1.6-.9 2.5l-4.3 9.2h-1.6l-4.3-9.2c-.4-.9-1-2.6-1-2.6h-.1s0 1.6-.1 2.6l-.9 11c-.1 1.1-.5 1.6-1.6 1.6h-1.7l.1-1.6zm30.8-16.9c5.1 0 9.3 4.1 9.3 9.3 0 5.3-4.1 9.5-9.3 9.5s-9.3-4.2-9.3-9.5c0-5.2 4.1-9.3 9.3-9.3zm0 17.1c4.1 0 7.4-3.4 7.4-7.8 0-4.3-3.3-7.6-7.4-7.6s-7.4 3.3-7.4 7.6c0 4.4 3.3 7.8 7.4 7.8zm10.5-.2h1.1c.4 0 .6-.2.6-.6v-16h1.7l9.3 12.9c.6.9 1.5 2.4 1.5 2.4h.1s-.1-1.4-.1-2.4v-11.4c0-1.1.5-1.6 1.6-1.6h1.9v1.6h-1.1c-.4 0-.6.2-.6.6v16h-1.7l-9.3-12.9c-.6-.9-1.5-2.4-1.5-2.4h-.1s.2 1.4.2 2.4v11.4c0 1.1-.5 1.6-1.6 1.6H634l-.1-1.6zm22-15h-1.7v-1.6h7.3c5.5 0 9.1 3.3 9.1 9.1s-3.6 9.1-9.1 9.1h-4c-1.1 0-1.6-.5-1.6-1.6v-15zm2.4 15h3.1c4.5 0 7.4-2.6 7.4-7.5 0-4.8-3-7.5-7.4-7.5h-3.6v14.4c-.1.4.1.6.5.6zm23.8-16.9c5.1 0 9.3 4.1 9.3 9.3 0 5.3-4.1 9.5-9.3 9.5s-9.3-4.2-9.3-9.5c0-5.2 4.1-9.3 9.3-9.3zm0 17.1c4.1 0 7.4-3.4 7.4-7.8 0-4.3-3.3-7.6-7.4-7.6s-7.4 3.3-7.4 7.6c0 4.4 3.3 7.8 7.4 7.8z"/><path class="st0" d="M89.5 134.9c0-3.5-2.6-6.2-6.8-6.2-3.3 0-5.9 1.7-5.9 3.6v1.6h-3.1v-2.5c0-4.2 5.7-5.8 9.1-5.8 6.3 0 10.1 4.2 10.1 9.3 0 11.7-17.5 11.4-17.5 20.6 0 .7.4.9 1.1.9h13.9c.7 0 1-.3 1-1v-2.2h3.1v3.3c0 2-.8 2.9-2.9 2.9H74.9c-2.3 0-3-.9-3-3.3.1-12.4 17.6-11.4 17.6-21.2zm9.7 7.8c0-9.5 2.8-17.1 11.4-17.1s11.5 7.6 11.5 17.1c0 9.6-2.8 17.2-11.5 17.2-8.7-.1-11.4-7.6-11.4-17.2zm19.4 0c0-7.9-1.8-14.1-8.1-14.1s-8.1 6.2-8.1 14.1 1.8 14.1 8.1 14.1 8.1-6.2 8.1-14.1zm8.5 13.6h7.4v-26.1h-.1s-.3.7-1.7 2l-3.5 3.5-2.1-2.1 7.5-7.5h3.1v30.2h7.3v2.9h-18l.1-2.9zm37.1-24.2c.9-1.8 1.8-3.1 1.8-3.1v-.1s-.8.1-2.5.1h-11.9c-.7 0-1 .3-1 1v2.2h-3.1V129c0-2 .8-2.9 2.8-2.9h19.6v2.3l-16.4 30.9h-3.7l14.4-27.2z"/><path class="st2" d="M18.6 206.3l.6 1.1-1 .5-3.3-6.3c-.4-.7-.2-1.2.5-1.5l1.2-.6.6 1.1-.8.4c-.3.1-.3.3-.2.6l1.9 3.6 4.5-2.3-2.2-4.3 1-.5 2.2 4.3 5.3-2.8.6 1.2-10.9 5.5zm5.9-12.2l-.1-.2c-.1-.3-.3-.5-.6-.5l-12.5.2-.5-1.3 9.4-8.4c.3-.3.3-.5.1-.8l-.1-.2 1.1-.4.2.6c.3.9.3 1.2-.5 1.9l-2.5 2.2 1.9 4.9 3.4-.1c1 0 1.2.2 1.6 1l.2.6-1.1.5zm-6.9-6.2l-3.8 3.4c-.5.4-1.4 1.1-1.4 1.1s1.1-.1 1.8-.2l5.1-.1-1.7-4.2zm-9.4-7.1l.9 3.2c.1.3.2.4.5.3l.9-.2.3 1.2-1.4.4c-.8.2-1.1 0-1.3-.8l-2.4-8.7c-.2-.8 0-1.1.8-1.3l1.4-.4.3 1.2-.9.2c-.3.1-.4.2-.3.5l.9 3.2 11.8-3.2.3 1.3-11.8 3.1zm-3-14.1l.5 3.3c0 .3.2.4.5.4l.9-.1.2 1.2-1.4.2c-.8.1-1.1-.1-1.2-.9l-1.3-9c-.1-.8.1-1.1.9-1.2l1.4-.2.2 1.2-.9.1c-.3 0-.4.2-.4.5l.5 3.3 12.1-1.7.2 1.3-12.2 1.6zm-.8-11c-.3 0-.4.2-.4.4v.8H2.8v-1.4c0-.8.3-1.2 1.1-1.2l7.6-.1c2.2 0 3.6-1.5 3.6-3.6s-1.4-3.6-3.7-3.6l-7.5.1c-.8 0-1.2-.3-1.2-1.1v-1.4h1.2v.8c0 .3.1.4.4.4l7.2-.1c2.9 0 4.8 1.9 4.9 4.8 0 2.9-1.8 5-4.7 5l-7.3.2zm-.2-16.5l-.1 1.2-1.2-.1.6-5.6c.2-2.2 1.9-3.7 4.2-3.4 2.1.2 3.1 1.6 3.3 3s.2-.2.6-.4l4-1.5c.4-.1.5-.4.5-.9v-.3l1.2.1-.1.6c-.1 1.1-.3 1.4-1.2 1.7l-4 1.5c-.7.3-.9.5-.9 1.3l-.2 2.2 5.6.6-.1 1.3-12.2-1.3zm5.9-3.6c.2-1.6-.8-2.7-2.4-2.9s-2.8.7-2.9 2.3l-.3 3 5.3.6.3-3zm6.4-6.2l.1-.2c.1-.3.1-.5-.2-.8l-10.4-7 .3-1.4 12.5-1.5c.4 0 .5-.2.6-.6l.1-.2 1.1.3-.1.6c-.2.9-.5 1.2-1.4 1.3l-3.3.4-1.2 5.2 2.8 1.9c.8.5.9.8.7 1.8l-.1.6-1.5-.4zm-2.2-9.1l-5 .6c-.7.1-1.8.1-1.8.1s1 .5 1.6.9l4.2 2.8 1-4.4zm-3.6-11.1l-1.1 3.1c-.1.2 0 .4.3.5l.8.3-.4 1.1-1.3-.5c-.8-.3-.9-.6-.7-1.4l3.1-8.5c.3-.8.6-.9 1.4-.7l1.3.5-.4 1.2-.8-.3c-.3-.1-.4 0-.5.3l-1.1 3.1 11.5 4.1-.4 1.3-11.7-4.1zM16 93.5c1.7-3.4 5.8-4.7 9.2-2.9 3.5 1.8 4.8 5.9 3.1 9.3s-5.9 4.6-9.3 2.8c-3.5-1.8-4.8-5.9-3-9.2zm11.1 5.7c1.4-2.6.3-6-2.6-7.4-2.8-1.4-6.1-.4-7.4 2.3-1.4 2.7-.3 5.9 2.5 7.4 2.8 1.4 6.2.4 7.5-2.3zm.4-21.6l-.8 1-.9-.7 3.5-4.4c1.4-1.8 3.5-2.1 5.4-.6 1.6 1.3 1.8 3 1.2 4.2s.3-.1.7 0l4.2.9c.4.1.6-.1.9-.5l.2-.2.9.7-.4.5c-.7.8-1 1-1.9.8l-4.2-.9c-.8-.2-1 0-1.5.6l-1.4 1.8 4.4 3.5-.8 1-9.5-7.7zm6.9-.1c1-1.2.8-2.7-.5-3.7s-2.7-.9-3.7.4l-1.9 2.3 4.2 3.3 1.9-2.3zm2.1-10.7l-.9.9-.8-.8 5.4-5.4c.6-.6 1.1-.6 1.6 0l.9.9-.9.9-.6-.6c-.2-.2-.4-.2-.6 0l-3.2 3.2 3.4 3.4 3.5-3.5.8.8-3.5 3.5 3.2 3.2c.2.2.4.2.6 0l3.3-3.3c.2-.2.2-.4 0-.6l-.6-.6.9-.9.9.9c.6.6.6 1.1 0 1.6L46 74.6c-.6.6-1.1.6-1.6 0l-7.9-7.8zm15 .7l.2-.2c.3-.2.4-.4.3-.8l-3.9-11.9 1.1-.9 10.7 6.5c.3.2.5.1.8-.1l.2-.1.7.9-.5.4c-.7.6-1.1.6-1.9.1l-2.9-1.8-4.1 3.4 1 3.2c.3.9.2 1.2-.5 1.8l-.5.4-.7-.9zm3.9-8.5L51 56.4l-1.5-1s.5 1 .7 1.7l1.6 4.8 3.6-2.9zm3-9.9c-.1-.2-.3-.3-.6-.1l-.7.4-.6-1 1.2-.7c.7-.4 1.2-.3 1.6.4l5.6 9c.1.2.3.3.6.1l3.8-2.3c.2-.1.3-.3.1-.6l-.5-.8 1.1-.7.7 1.1c.4.7.3 1.2-.4 1.6l-4.7 2.9c-.7.4-1.2.3-1.6-.4l-5.6-8.9zM72.8 53l1.1-.6-5-9.8-1.1.6-.5-1.1 3.4-1.7.5 1.1-1.1.5 5 9.8 1.1-.6.5 1.1-3.4 1.7-.5-1zm5.8-2.7l2.9-12c.2-.8.5-1.5.5-1.5s-.3.2-.9.4l-4.9 2c-.2.1-.3.3-.2.5l.3.8-1.2.5-.5-1.2c-.3-.8-.1-1.2.6-1.5l7.8-3.1.3.9-2.9 12c-.2.8-.5 1.5-.5 1.5s.3-.2.9-.4l5.3-2.1c.2-.1.3-.3.2-.5l-.3-.8 1.1-.5.5 1.2c.3.8.1 1.2-.6 1.5l-8.2 3.3-.2-1zm11.3-4.4l4.3-11.6c.3-.8.6-1.4.6-1.4l-.9.3-5.1 1.4c-.3.1-.4.2-.3.5l.2.9-1.2.3-.3-1.3c-.2-.8 0-1.2.8-1.4l8.1-2.2.2.9L92 43.9c-.3.8-.6 1.4-.6 1.4l.9-.3 5.6-1.5c.3-.1.4-.2.3-.5l-.2-.9 1.2-.3.3 1.3c.2.8 0 1.2-.8 1.4l-8.6 2.3-.2-.9zm11.7-3.4h.2c.3 0 .5-.1.6-.5l2.6-12.3 1.4-.2 6 11c.2.3.4.4.7.3h.2l.2 1.2h-.5c-.9.1-1.2 0-1.7-.9l-1.6-3-5.2.8-.7 3.3c-.2 1-.4 1.2-1.4 1.3l-.6.1-.2-1.1zm7.6-5.4l-2.4-4.5-.8-1.6s-.1 1.1-.3 1.8l-1 5 4.5-.7zm9-7.5l-3.3.1c-.3 0-.4.1-.4.4v.9h-1.2l-.1-1.4c0-.8.2-1.1 1-1.1l9-.3c.8 0 1.1.2 1.1 1l.1 1.4h-1.2v-.9c0-.3-.1-.4-.4-.4l-3.3.1.5 12.2h-1.3l-.5-12zm16.5-1c3.8.3 6.5 3.6 6.1 7.4-.4 3.9-3.7 6.7-7.4 6.3-3.8-.4-6.5-3.7-6.1-7.6.3-3.8 3.6-6.4 7.4-6.1zm-1.2 12.5c3 .3 5.6-2 5.9-5.2.3-3.1-1.9-5.8-4.9-6-3-.3-5.6 1.9-5.9 5-.2 3.2 1.9 5.9 4.9 6.2z"/><path class="st3" d="M259.8 124c0-.3-.2-.5-.5-.5h-1V122h1.7c1 0 1.5.4 1.5 1.3v1.4c.6-1.6 2.5-3 4.3-3 2.2 0 3.4 1 3.7 3 .6-1.6 2.4-3 4.4-3 2.9 0 4 1.7 4 4.6v5.7c0 .4.2.5.5.5h1v1.4h-1.7c-1 0-1.5-.4-1.5-1.5v-5.8c0-2-.4-3.6-2.6-3.6-1.8 0-3.3 1.6-3.8 3.4-.2.5-.2 1.1-.2 1.7v5.7H268v-7.2c0-1.8-.3-3.6-2.5-3.6-2 0-3.4 1.7-3.9 3.5-.1.5-.2 1-.2 1.6v5.7h-1.6V124zm22.3 0c0-.3-.2-.5-.5-.5h-1V122h1.7c1 0 1.5.4 1.5 1.5v8.6c0 .4.2.5.5.5h1v1.4h-1.7c-1 0-1.5-.4-1.5-1.5V124zm-.1-6.7h1.6v2H282v-2zm5.9 1.9c0-.3-.2-.5-.5-.5h-1v-1.4h1.7c1 0 1.5.4 1.5 1.5v13.3c0 .4.2.5.5.5h1v1.4h-1.7c-1 0-1.5-.4-1.5-1.5v-13.3zm6 4.8c0-.3-.2-.5-.5-.5h-1V122h1.7c1 0 1.5.4 1.5 1.5v8.6c0 .4.2.5.5.5h1v1.4h-1.7c-1 0-1.5-.4-1.5-1.5V124zm-.1-6.7h1.6v2h-1.6v-2zm11.1 4.4c3.5 0 6.3 2.7 6.3 6.2 0 3.6-2.8 6.3-6.3 6.3s-6.3-2.7-6.3-6.3c0-3.5 2.8-6.2 6.3-6.2zm0 11.1c2.5 0 4.6-2.1 4.6-4.9 0-2.7-2.1-4.7-4.6-4.7-2.6 0-4.7 2-4.7 4.7.1 2.8 2.2 4.9 4.7 4.9zm9.4-8.8c0-.3-.2-.5-.5-.5h-1V122h1.7c1 0 1.5.4 1.5 1.3v1.4c.4-1.1 2-3 4.8-3 3 0 4 1.7 4 4.6v5.7c0 .4.2.5.5.5h1v1.4h-1.7c-1 0-1.5-.4-1.5-1.5v-5.7c0-1.9-.3-3.5-2.6-3.5-2 0-3.8 1.4-4.4 3.4-.1.5-.2 1-.2 1.6v5.7h-1.6V124zm14.5 0c0-.3-.2-.5-.5-.5h-1V122h1.7c1 0 1.5.4 1.5 1.5v8.6c0 .4.2.5.5.5h1v1.4h-1.7c-1 0-1.5-.4-1.5-1.5V124zm0-6.7h1.6v2h-1.6v-2zm16.7 4.4c2.9 0 3.9 2.2 3.9 2.2v-4.8c0-.3-.2-.5-.5-.5h-1v-1.4h1.7c1 0 1.5.4 1.5 1.5V132c0 .4.2.5.5.5h1v1.4h-1.7c-1 0-1.4-.5-1.4-1.3v-.8s-1 2.4-4.1 2.4c-3.2 0-5.2-2.6-5.2-6.3-.1-3.7 2.1-6.2 5.3-6.2zm3.9 6.3c0-2.4-1.2-4.8-3.8-4.8-2.1 0-3.9 1.8-3.9 4.8s1.5 4.8 3.8 4.8c2 0 3.9-1.4 3.9-4.8zm5.9-4c0-.3-.2-.5-.5-.5h-1V122h1.7c1 0 1.5.4 1.5 1.5v8.6c0 .4.2.5.5.5h1v1.4h-1.7c-1 0-1.5-.4-1.5-1.5V124zm-.1-6.7h1.6v2h-1.6v-2zm17.2 4.4c3.3 0 5 2.5 5 5.5v.8h-9.2c0 3 2.2 4.8 4.6 4.8 2.2 0 3.6-1.5 3.6-1.5l.8 1.2s-1.7 1.7-4.4 1.7c-3.5 0-6.3-2.6-6.3-6.3 0-3.8 2.6-6.2 5.9-6.2zm3.3 5.1c-.1-2.5-1.6-3.7-3.4-3.7-2 0-3.7 1.3-4.1 3.7h7.5zm4.9-2.8c0-.3-.2-.5-.5-.5h-1V122h1.7c1 0 1.5.4 1.5 1.4v5.8c0 1.9.3 3.5 2.6 3.5 2.7 0 4.4-2.4 4.4-5V122h1.6v10c0 .4.2.5.5.5h1v1.4h-1.6c-1 0-1.5-.4-1.5-1.3v-1.4c-.5 1.2-2 3-4.7 3-2.8 0-4-1.5-4-4.6V124zm14.3 0c0-.3-.2-.5-.5-.5h-1V122h1.7c1 0 1.5.4 1.5 1.4v1.7c.6-1.8 1.9-3.2 3.8-3.2.3 0 .6.1.6.1v1.6h-.6c-1.7 0-2.9 1.3-3.5 3.1-.2.8-.3 1.6-.3 2.3v5H395v-10h-.1zm13.4-2.3c3.5 0 6.3 2.7 6.3 6.2 0 3.6-2.8 6.3-6.3 6.3s-6.3-2.7-6.3-6.3c0-3.5 2.8-6.2 6.3-6.2zm0 11.1c2.5 0 4.6-2.1 4.6-4.9 0-2.7-2.1-4.7-4.6-4.7-2.6 0-4.7 2-4.7 4.7 0 2.8 2.1 4.9 4.7 4.9zm-146.6 17.5c1.4 0 4.3.6 4.3 2.5v1.1h-1.5v-.7c0-1-1.7-1.5-2.7-1.5-2.6 0-4.6 1.9-4.6 4.8s2.2 4.8 4.7 4.8 3.9-1.7 3.9-1.7l.8 1.2s-1.6 2-4.7 2c-3.6 0-6.3-2.5-6.3-6.3-.2-3.6 2.5-6.2 6.1-6.2zm12.5 0c3.5 0 6.3 2.7 6.3 6.2 0 3.6-2.8 6.3-6.3 6.3s-6.3-2.7-6.3-6.3 2.9-6.2 6.3-6.2zm.1 11.1c2.5 0 4.6-2.1 4.6-4.9 0-2.7-2.1-4.7-4.6-4.7-2.6 0-4.7 2-4.7 4.7 0 2.8 2.1 4.9 4.7 4.9zm9.3-8.9c0-.3-.2-.5-.5-.5h-1v-1.4h1.7c1 0 1.5.4 1.5 1.3v1.4c.4-1.1 2-3 4.8-3 3 0 4 1.7 4 4.6v5.7c0 .4.2.5.5.5h1v1.4h-1.7c-1 0-1.5-.4-1.5-1.5v-5.7c0-1.9-.3-3.5-2.6-3.5-2 0-3.8 1.4-4.4 3.4-.1.5-.2 1-.2 1.6v5.7h-1.6v-10zm20.5 6.7s1.7 2 4.4 2c2 0 3.8-1.5 3.8-3.6 0-2.3-2-3.5-4.1-3.5H307l-.4-1 4.1-4.9c.4-.5.9-.9.9-.9s-.5.1-1.4.1h-4.4c-.3 0-.5.2-.5.5v1.1h-1.5v-1.7c0-1 .4-1.5 1.4-1.5h8.5v1.1l-4.9 5.8c2.1.1 5.2 1.3 5.2 4.9 0 2.8-2.4 5.2-5.5 5.2-3.3 0-5.4-2.3-5.4-2.3l1-1.3zm14.5 1.4l-1.7 4.3h-1.4l1.4-4.3h1.7zm10.2-11.8c.5-.9.9-1.5.9-1.5h-7.3c-.3 0-.5.2-.5.5v1.1h-1.6v-1.7c0-1 .4-1.5 1.4-1.5h9.9v1.1l-8.3 15.6h-1.9l7.4-13.6zm11.6 3.7c0-.3-.2-.5-.5-.5h-1v-1.4h1.7c1 0 1.5.4 1.5 1.3v1.4c.6-1.6 2.5-3 4.3-3 2.2 0 3.4 1 3.7 3 .6-1.6 2.4-3 4.4-3 2.9 0 4 1.7 4 4.6v5.7c0 .4.2.5.5.5h1v1.4h-1.7c-1 0-1.5-.4-1.5-1.5v-5.8c0-2-.4-3.6-2.6-3.6-1.8 0-3.3 1.6-3.8 3.4-.2.5-.2 1.1-.2 1.7v5.7h-1.6v-7.2c0-1.8-.3-3.6-2.5-3.6-2 0-3.4 1.7-3.9 3.5-.1.5-.2 1-.2 1.6v5.7h-1.6v-9.9zm22.2 0c0-.3-.2-.5-.5-.5h-1v-1.4h1.7c1 0 1.5.4 1.5 1.5v8.6c0 .4.2.5.5.5h1v1.4h-1.7c-1 0-1.5-.4-1.5-1.5v-8.6zm0-6.7h1.6v2h-1.6v-2zm5.9 1.9c0-.3-.2-.5-.5-.5h-1v-1.4h1.7c1 0 1.5.4 1.5 1.5v13.3c0 .4.2.5.5.5h1v1.4H370c-1 0-1.5-.4-1.5-1.5v-13.3zm5.9 4.8c0-.3-.2-.5-.5-.5h-1v-1.4h1.7c1 0 1.5.4 1.5 1.5v8.6c0 .4.2.5.5.5h1v1.4h-1.7c-1 0-1.5-.4-1.5-1.5v-8.6zm0-6.7h1.6v2h-1.6v-2zm12.1 9.4h.7v-.2c0-2.5-.9-3.4-3.1-3.4-.6 0-2.3.2-2.3 1v.8h-1.5v-1.1c0-1.7 2.9-2 3.9-2 3.8 0 4.7 2 4.7 4.6v5.7c0 .4.2.5.5.5h1v1.4h-1.6c-1 0-1.4-.5-1.4-1.4v-.9s-1 2.6-4 2.6c-2 0-4.1-1.2-4.1-3.5-.1-4 5.1-4.1 7.2-4.1zm-3 6.2c2.3 0 3.7-2.4 3.7-4.4v-.5h-.7c-1.9 0-5.6 0-5.6 2.7-.1 1.1.8 2.2 2.6 2.2zm9.4-8.9c0-.3-.2-.5-.5-.5h-1v-1.4h1.7c1 0 1.5.4 1.5 1.4v1.7c.6-1.8 1.9-3.2 3.8-3.2.3 0 .6.1.6.1v1.6h-.6c-1.7 0-2.9 1.3-3.5 3.1-.2.8-.3 1.6-.3 2.3v5H393v-10.1h-.1zm12.4-2.2c2.9 0 3.9 2.2 3.9 2.2v-4.8c0-.3-.2-.5-.5-.5h-1v-1.4h1.7c1 0 1.5.4 1.5 1.5v13.3c0 .4.2.5.5.5h1v1.4h-1.7c-1 0-1.4-.5-1.4-1.3v-.8s-1 2.4-4.1 2.4c-3.2 0-5.2-2.6-5.2-6.3-.1-3.7 2.2-6.2 5.3-6.2zm3.9 6.2c0-2.4-1.2-4.8-3.8-4.8-2.1 0-3.9 1.8-3.9 4.8s1.5 4.8 3.8 4.8c2.1.1 3.9-1.4 3.9-4.8zm5.9-4c0-.3-.2-.5-.5-.5h-1v-1.4h1.7c1 0 1.5.4 1.5 1.5v8.6c0 .4.2.5.5.5h1v1.4h-1.7c-1 0-1.5-.4-1.5-1.5v-8.6zm-.1-6.7h1.6v2H415v-2zm-129.6 33c2.9 0 3.9 2.2 3.9 2.2v-4.8c0-.3-.2-.5-.5-.5h-1v-1.4h1.7c1 0 1.5.4 1.5 1.5v13.3c0 .4.2.5.5.5h1v1.4h-1.7c-1 0-1.4-.5-1.4-1.3v-.8s-1 2.4-4.1 2.4c-3.2 0-5.2-2.6-5.2-6.3-.1-3.7 2.1-6.2 5.3-6.2zm3.9 6.3c0-2.4-1.2-4.8-3.8-4.8-2.1 0-3.9 1.8-3.9 4.8s1.5 4.8 3.8 4.8c2 0 3.9-1.4 3.9-4.8zm5.8-4.1c0-.3-.2-.5-.5-.5h-1v-1.4h1.7c1 0 1.5.4 1.5 1.5v8.6c0 .4.2.5.5.5h1v1.4h-1.7c-1 0-1.5-.4-1.5-1.5V181zm0-6.7h1.6v2h-1.6v-2zm12.3 2c0-.3-.2-.5-.5-.5h-1v-1.4h1.7c1 0 1.5.4 1.5 1.5v5.3s1-2.3 4.1-2.3c3.2 0 5.2 2.6 5.2 6.3 0 3.8-2.3 6.3-5.4 6.3-2.9 0-3.9-2.3-3.9-2.3v2h-1.6v-14.9h-.1zm5.4 13.6c2.1 0 3.9-1.8 3.9-4.8 0-2.9-1.6-4.8-3.8-4.8-2 0-3.9 1.4-3.9 4.8 0 2.4 1.2 4.8 3.8 4.8zm13.7-11.1c3.5 0 6.3 2.7 6.3 6.2 0 3.6-2.8 6.3-6.3 6.3s-6.3-2.7-6.3-6.3c0-3.5 2.9-6.2 6.3-6.2zm.1 11.1c2.5 0 4.6-2.1 4.6-4.9 0-2.7-2.1-4.7-4.6-4.7-2.6 0-4.7 2-4.7 4.7 0 2.8 2.1 4.9 4.7 4.9zm9.4-9.4h-1.6v-1.4h1.6v-3.3h1.6v3.3h3v1.4h-3v6.1c0 2.8 1.8 3.2 2.7 3.2h.5v1.5h-.7c-1.4 0-4.2-.5-4.2-4.4v-6.4h.1zm8 0h-1.6v-1.4h1.6v-3.3h1.6v3.3h3v1.4h-3v6.1c0 2.8 1.8 3.2 2.7 3.2h.5v1.5h-.7c-1.4 0-4.2-.5-4.2-4.4v-6.4h.1zm7.9.5c0-.3-.2-.5-.5-.5h-1v-1.4h1.7c1 0 1.5.4 1.5 1.5v8.6c0 .4.2.5.5.5h1v1.4h-1.7c-1 0-1.5-.4-1.5-1.5V181zm0-6.7h1.6v2h-1.6v-2zm10 4.5c3.2 0 4 2 4 2v-.5c0-.9.4-1.3 1.4-1.3h1.7v1.4h-1c-.3 0-.5.2-.5.5v9.8c0 3.8-2.8 5.3-5.8 5.3-1.4 0-2.7-.4-3.9-1l.6-1.4s1.5.8 3.2.8c2.3 0 4.2-1.1 4.2-3.8v-1.9c-.7 1.3-1.9 2.1-3.8 2.1-3.2 0-5.3-2.5-5.3-6.1s2-5.9 5.2-5.9zm4 6.1c0-3.5-1.7-4.6-3.8-4.6-2.3 0-3.7 1.7-3.7 4.5s1.5 4.7 3.9 4.7c1.9 0 3.6-1.1 3.6-4.6zm5.6-8.6c0-.3-.2-.5-.5-.5h-1v-1.4h1.7c1 0 1.5.4 1.5 1.5v13.3c0 .4.2.5.5.5h1v1.4H373c-1 0-1.5-.4-1.5-1.5v-13.3zm6 4.7c0-.3-.2-.5-.5-.5h-1v-1.4h1.7c1 0 1.5.4 1.5 1.5v8.6c0 .4.2.5.5.5h1v1.4H379c-1 0-1.5-.4-1.5-1.5V181zm0-6.7h1.6v2h-1.6v-2zm10.6 4.5c3.3 0 5 2.5 5 5.5v.8h-9.2c0 3 2.2 4.8 4.6 4.8 2.2 0 3.6-1.5 3.6-1.5l.8 1.2s-1.7 1.7-4.4 1.7c-3.5 0-6.3-2.6-6.3-6.3 0-3.8 2.7-6.2 5.9-6.2zm3.4 5.1c-.1-2.5-1.6-3.7-3.4-3.7-2 0-3.7 1.3-4.1 3.7h7.5zm-99.7 25.7c0-.3-.2-.5-.5-.5h-1v-1.4h1.6c1 0 1.4.4 1.4 1.3v.8s1-2.4 4.1-2.4c3.2 0 5.2 2.6 5.2 6.3 0 3.8-2.3 6.3-5.4 6.3-2.9 0-3.9-2.3-3.9-2.3v6.7h-1.6l.1-14.8zm5.4 8.9c2.1 0 3.9-1.8 3.9-4.8 0-2.9-1.5-4.8-3.8-4.8-2 0-3.9 1.4-3.9 4.8 0 2.4 1.3 4.8 3.8 4.8zm8.5-8.9c0-.3-.2-.5-.5-.5h-1v-1.4h1.7c1 0 1.5.4 1.5 1.4v1.7c.6-1.8 1.9-3.2 3.8-3.2.3 0 .6.1.6.1v1.6h-.6c-1.7 0-2.9 1.3-3.5 3.1-.2.8-.3 1.6-.3 2.3v5h-1.6v-10.1h-.1zm13.4-2.2c3.5 0 6.3 2.7 6.3 6.2 0 3.6-2.8 6.3-6.3 6.3s-6.3-2.7-6.3-6.3 2.8-6.2 6.3-6.2zm0 11c2.5 0 4.6-2.1 4.6-4.9 0-2.7-2.1-4.7-4.6-4.7-2.6 0-4.7 2-4.7 4.7 0 2.9 2.1 4.9 4.7 4.9zm13.6-11c2.9 0 3.9 2.2 3.9 2.2v-4.8c0-.3-.2-.5-.5-.5h-1v-1.4h1.7c1 0 1.5.4 1.5 1.5v13.3c0 .4.2.5.5.5h1v1.4h-1.7c-1 0-1.4-.5-1.4-1.3v-.8s-1 2.4-4.1 2.4c-3.2 0-5.2-2.6-5.2-6.3-.1-3.8 2.2-6.2 5.3-6.2zm4 6.2c0-2.4-1.2-4.8-3.8-4.8-2.1 0-3.9 1.8-3.9 4.8s1.5 4.8 3.8 4.8c2 0 3.9-1.4 3.9-4.8zm10.9-6.2c3.5 0 6.3 2.7 6.3 6.2 0 3.6-2.8 6.3-6.3 6.3s-6.3-2.7-6.3-6.3 2.8-6.2 6.3-6.2zm0 11c2.5 0 4.6-2.1 4.6-4.9 0-2.7-2.1-4.7-4.6-4.7-2.6 0-4.7 2-4.7 4.7 0 2.9 2.1 4.9 4.7 4.9zm9.5-9.4h-1.6v-1.4h1.6v-3.3h1.6v3.3h3v1.4h-3v6.1c0 2.8 1.8 3.2 2.7 3.2h.5v1.5h-.7c-1.4 0-4.2-.5-4.2-4.4V209h.1zm7.9 0h-1.6v-1.4h1.6v-3.3h1.6v3.3h3v1.4h-3v6.1c0 2.8 1.8 3.2 2.7 3.2h.5v1.5h-.7c-1.4 0-4.2-.5-4.2-4.4V209h.1zm12.4-1.6c3.3 0 5 2.5 5 5.5v.8h-9.2c0 3 2.2 4.8 4.6 4.8 2.2 0 3.6-1.5 3.6-1.5l.8 1.2s-1.7 1.7-4.4 1.7c-3.5 0-6.3-2.6-6.3-6.3 0-3.9 2.7-6.2 5.9-6.2zm3.4 5c-.1-2.5-1.6-3.7-3.4-3.7-2 0-3.7 1.3-4.1 3.7h7.5zM304.3 83.1c0-.1-4.9-2.4-4.9-7.5 0-4.9 3.9-9.3 10.8-9.3 6.7 0 10.9 4 10.9 9.5 0 5.4-4.8 8.8-4.8 8.8v.1c3.3 1.7 5.7 4 5.7 8.2 0 5.6-5.2 10.3-12 10.3-6.3 0-12.1-3.9-12.1-10.6.1-6.3 6.4-9.5 6.4-9.5zm5.8 16.8c4.2 0 8.3-2.9 8.3-7 0-3.7-3-5.2-6.8-6.7-1.3-.6-3.8-1.4-4.2-1.4-1.4 0-5.8 3.2-5.8 7.7s4.1 7.4 8.5 7.4zm2.9-16.8c1.3 0 4.5-3.5 4.5-7.2 0-3.9-3-6.3-7.4-6.3-4.5 0-7.2 2.7-7.2 6 0 3.8 3.1 5.1 6.8 6.5 1 .3 2.7 1 3.3 1zm16.7 15.5s2.2 1.3 5.2 1.3c7.5 0 11.3-7.5 11.9-14.7h-.1c-1.7 2.8-5.4 4.4-9.1 4.4-6.5 0-11.1-4.7-11.1-11.3 0-7.4 4.9-11.9 11.2-11.9 7.8 0 12.9 6.9 12.9 16.3 0 9.1-4.6 20.6-15.7 20.6-3.9 0-6.5-1.5-6.5-1.5l1.3-3.2zm17.1-18.3c0-4.7-3.7-10.7-9-10.7-4.8 0-7.7 3.7-7.7 8.6 0 5 3.2 8.2 8.1 8.2 4.8 0 8.6-3.2 8.6-6.1zm9.8 15.3s2.7 4.2 8.3 4.2c5.1 0 8.9-3.6 8.9-8.3 0-4.9-4.1-8.4-9.2-8.4-4 0-6.8 2-6.8 2l-1.8-.8 1.5-14.3c.2-2.2.9-3.1 3.1-3.1h11.7c2.1 0 3 .9 3 3.1v3.6H372v-2.4c0-.8-.4-1.1-1.1-1.1h-9c-.7 0-1 .4-1.1 1.1l-.9 8.1c-.2 1.3-.3 2-.3 2h.1s2.2-1.3 5.4-1.3c7.3 0 12.5 5.2 12.5 11.6 0 6.3-5.3 11.6-12.5 11.6-7.1 0-10.5-5.1-10.5-5.1l2-2.5z"/><path class="st0" d="M48.6 668.6h.8c.2 0 .4-.1.4-.4v-10.6h1.6l5.6 7.9c.5.7 1 1.7 1 1.7s-.1-1-.1-1.7v-6.8c0-.8.3-1.1 1.2-1.1h1.8v1.5H60c-.2 0-.4.1-.4.4v10.6H58l-5.6-7.9c-.5-.7-1-1.7-1-1.7s.1 1 .1 1.7v6.8c0 .8-.3 1.1-1.1 1.1h-1.8v-1.5zm19.9-11.3c3.6 0 6.5 2.8 6.5 6.4 0 3.7-2.8 6.6-6.5 6.6s-6.4-2.9-6.4-6.6c0-3.6 2.8-6.4 6.4-6.4zm0 11.3c2.5 0 4.6-2.1 4.6-4.9 0-2.7-2.1-4.7-4.6-4.7s-4.6 2.1-4.6 4.7c0 2.8 2.1 4.9 4.6 4.9zm8.9-9.5h-1.2v-1.5h5.5c2.2 0 3.8 1.4 3.8 3.7 0 2.1-1.4 3.1-2.3 3.3s.3.2.5.6l1.5 3c.2.4.5.4.9.4h.2v1.5h-.9c-1 0-1.3-.1-1.7-.9l-1.7-3.4c-.3-.6-.6-.7-1.2-.7h-1.6v5h-1.8v-11zm4.1 4.5c1.4 0 2.2-.9 2.2-2.3s-.8-2.2-2.1-2.2h-2.3v4.5h2.2zm6.9-4.5h-1.2v-1.5h5.1c3.8 0 6.3 2.3 6.3 6.3s-2.5 6.3-6.3 6.3h-2.8c-.8 0-1.1-.3-1.1-1.1v-10zm2.2 9.5h1.6c2.8 0 4.6-1.7 4.6-4.8s-1.8-4.7-4.6-4.7h-2v9.1c0 .2.1.4.4.4zm-69.2 17.8h.2c.3 0 .5-.1.6-.4l3.9-10.6H28l4 10.6c.1.3.3.4.6.4h.3v1.5h-1c-.9 0-1.2-.2-1.5-1l-.9-2.6h-4.6l-.9 2.6c-.3.8-.6 1-1.5 1h-1l-.1-1.5zm7.6-3.6l-1.4-3.8c-.2-.7-.5-1.8-.5-1.8s-.2 1.1-.5 1.8l-1.4 3.8H29zm4.4 3.6h.6c.2 0 .4-.1.4-.4l.9-10.6h1.8l3 6.6c.3.7.6 1.6.6 1.6s.3-.9.6-1.6l3-6.6h1.8L47 686c0 .2.1.4.4.4h.6v1.5h-1.6c-.8 0-1.1-.3-1.1-1.1l-.5-6.6c-.1-.7 0-1.8 0-1.8s-.4 1.2-.7 1.8l-2.5 5.5h-1.5l-2.5-5.5c-.3-.7-.7-1.9-.7-1.9v1.9l-.5 6.6c-.1.8-.3 1.1-1.2 1.1h-1.6v-1.5h-.2zm16.7-9.5H49v-1.5h7.4c.8 0 1.1.3 1.1 1.1v1.6h-1.6v-.8c0-.3-.1-.4-.4-.4h-3.6v3.9h4.4v1.5h-4.4v3.6c0 .2.1.4.4.4H56c.2 0 .4-.1.4-.4v-.8H58v1.6c0 .8-.3 1.1-1.1 1.1h-5.6c-.8 0-1.1-.3-1.1-1.1v-9.8h-.1zm10.1 0H59v-1.5h5.5c2.2 0 3.8 1.4 3.8 3.7 0 2.1-1.4 3.1-2.3 3.3s.3.2.5.6l1.5 3c.2.4.5.4.9.4h.2v1.5h-.9c-1 0-1.3-.1-1.7-.9l-1.7-3.4c-.3-.6-.6-.7-1.2-.7H62v5h-1.8v-11zm4.1 4.5c1.4 0 2.2-.9 2.2-2.3s-.8-2.2-2.1-2.2H62v4.5h2.3zm5.8 5h1.2v-9.5h-1.2v-1.5h4.1v1.5H73v9.5h1.2v1.5h-4.1v-1.5zm11.8-11.3c1.7 0 4.7.7 4.7 2.7v1.2H85v-.7c0-1-1.8-1.6-3-1.6-2.5 0-4.5 1.9-4.5 4.7 0 2.7 2 4.9 4.5 4.9s4-1.7 4-1.7l1 1.3s-1.8 2.1-4.9 2.1c-3.8 0-6.4-2.9-6.4-6.6-.1-3.5 2.6-6.3 6.2-6.3zm5.8 11.3h.2c.3 0 .5-.1.6-.4l3.9-10.6h1.9l3.9 10.6c.1.3.3.4.6.4h.3v1.5h-1c-.9 0-1.2-.2-1.5-1l-.9-2.6h-4.6l-.9 2.6c-.3.8-.6 1-1.5 1h-1v-1.5zm7.5-3.6l-1.4-3.8c-.2-.7-.5-1.8-.5-1.8s-.2 1.1-.5 1.8l-1.4 3.8h3.8zm-43.9 17.1h4v-4.4h1.5v4.4h4v1.4h-4v4.4h-1.5v-4.4h-4v-1.4zm12.1 3.9s.8.4 1.8.4c2.3 0 3.5-2.2 3.8-4.3-.5.8-1.7 1.2-2.8 1.2-2.4 0-4-1.8-4-4.1 0-2.5 1.7-4.2 4-4.2 2.7 0 4.7 2.3 4.7 5.8 0 3.3-1.8 7.2-5.7 7.2-1.5 0-2.4-.5-2.4-.5l.6-1.5zm5.6-5.9c0-1.6-1.2-3.4-2.8-3.4-1.5 0-2.3 1.1-2.3 2.6s1 2.6 2.6 2.6c1.4 0 2.5-.9 2.5-1.8zm5.1 5.9l-1.5 3.7h-1.3l1.1-3.7h1.7zm3.8-4.9s-1.5-.9-1.5-2.6 1.4-3.4 3.9-3.4c2.4 0 3.9 1.4 3.9 3.4 0 1.8-1.5 3-1.5 3 1.1.7 1.9 1.5 1.9 2.9 0 2-1.8 3.7-4.3 3.7-2.4 0-4.4-1.5-4.4-3.8 0-2.1 2-3.2 2-3.2zm2.3 5.4c1.3 0 2.5-.9 2.5-2.1 0-1.1-.9-1.6-2.1-2.1-.5-.2-1.2-.5-1.3-.5-.4 0-1.7 1-1.7 2.4.1 1.4 1.3 2.3 2.6 2.3zm1-5.7c.4 0 1.3-1 1.3-2.2s-.9-1.9-2.2-1.9c-1.4 0-2.2.8-2.2 1.8 0 1.1.9 1.5 2.1 2 .2.1.8.3 1 .3zm5.2-3.1c0-1.4 1.2-2.6 2.7-2.6s2.7 1.2 2.7 2.6c0 1.5-1.2 2.6-2.7 2.6-1.5.1-2.7-1.1-2.7-2.6zm9.9-2.4H98l-9.6 12.6h-1.7l9.6-12.6zm-5.9 2.4c0-.7-.6-1.3-1.3-1.3s-1.3.6-1.3 1.3.6 1.3 1.3 1.3 1.3-.5 1.3-1.3zm5.1 5.1c1.5 0 2.7 1.2 2.7 2.6 0 1.5-1.2 2.6-2.7 2.6s-2.7-1.2-2.7-2.6 1.2-2.6 2.7-2.6zm0 4c.7 0 1.3-.6 1.3-1.3s-.6-1.3-1.3-1.3-1.3.6-1.3 1.3.6 1.3 1.3 1.3zM50.3 715c-.1-.3-.2-.3-.5-.3h-.1v-.9h.4c.7 0 .9.1 1.2.8l1.8 4.6c.1.4.2.9.2.9s.1-.5.2-.9l1.8-4.6c.2-.7.5-.8 1.2-.8h.4v.9h-.1c-.3 0-.4.1-.5.3l-2.4 6.2h-1.1l-2.5-6.2zm7.8 4.4s.8 1.1 2.3 1.1c.8 0 1.6-.4 1.6-1.2 0-1.6-4.1-1.3-4.1-3.7 0-1.3 1.1-2 2.6-2 .7 0 2.2.3 2.2 1.3v.6h-.9v-.4c0-.5-.8-.7-1.3-.7-1 0-1.6.4-1.6 1.1 0 1.7 4.1 1.3 4.1 3.7 0 1.2-1.1 2.1-2.6 2.1-1.9 0-2.8-1.3-2.8-1.3l.5-.6zm15.5-5.8c0-1.1-.8-1.9-2.1-1.9-1 0-1.8.5-1.8 1.1v.5h-1v-.8c0-1.3 1.8-1.8 2.8-1.8 2 0 3.1 1.3 3.1 2.9 0 3.6-5.4 3.5-5.4 6.4 0 .2.1.3.3.3h4.3c.2 0 .3-.1.3-.3v-.7h1v1c0 .6-.3.9-.9.9H69c-.7 0-.9-.3-.9-1 0-3.8 5.5-3.5 5.5-6.6zm2.9 2.5c0-3 .9-5.3 3.5-5.3 2.7 0 3.6 2.4 3.6 5.3 0 3-.9 5.3-3.6 5.3-2.6 0-3.5-2.4-3.5-5.3zm6.1 0c0-2.4-.6-4.4-2.5-4.4s-2.5 1.9-2.5 4.4.6 4.4 2.5 4.4c1.9-.1 2.5-2 2.5-4.4zm2.6 4.2h2.3v-8.2s-.1.2-.5.6l-1.1 1.1-.6-.7 2.3-2.3h1v9.4h2.3v.9h-5.6v-.8h-.1zm6.5-3.6c0-2.6 1.3-5.9 4.5-5.9 1.1 0 1.9.4 1.9.4l-.4.9s-.6-.4-1.5-.4c-2.2 0-3.2 2.2-3.4 4.2.5-.8 1.6-1.2 2.6-1.2 1.9 0 3.2 1.3 3.2 3.3 0 2.1-1.4 3.4-3.2 3.4-2.2 0-3.7-2-3.7-4.7zm3.7 3.7c1.4 0 2.2-1.1 2.2-2.5s-.9-2.4-2.3-2.4-2.5.9-2.5 1.8c0 1.4 1.1 3.1 2.6 3.1zm88 27.4s1.3 1.5 3.1 1.5c1.2 0 2.2-.7 2.2-1.9 0-2.6-6.1-2.2-6.1-6.1 0-1.9 1.7-3.4 4-3.4 1.3 0 3.6.6 3.6 2.3v1h-1.6v-.6c0-.7-.9-1.1-1.9-1.1-1.4 0-2.2.7-2.2 1.7 0 2.5 6 2 6 6.1 0 1.9-1.5 3.6-4 3.6-2.7 0-4.2-1.9-4.2-1.9l1.1-1.2zm9.6-7.7c0-.3-.1-.4-.4-.4h-.8v-1.5h1.8c.8 0 1.1.3 1.1 1.1v7c0 1.9 1.2 3 3 3s3-1.1 3-3v-6.9c0-.8.4-1.1 1.2-1.1h1.8v1.5h-.8c-.2 0-.4.1-.4.4v6.2c0 2.7-1.9 4.6-4.8 4.6s-4.8-1.9-4.8-4.6l.1-6.3zm13-.4h-1.2v-1.5h5.1c3.8 0 6.3 2.3 6.3 6.3s-2.5 6.3-6.3 6.3h-2.8c-.8 0-1.1-.3-1.1-1.1v-10zm2.2 9.5h1.6c2.8 0 4.6-1.7 4.6-4.8s-1.8-4.7-4.6-4.7h-2v9.1c0 .3.2.4.4.4zM139.1 767h.2c.3 0 .5-.1.6-.4l3.9-10.6h1.9l3.9 10.6c.1.3.3.4.6.4h.3v1.5h-1c-.9 0-1.2-.2-1.5-1l-.9-2.6h-4.6l-.9 2.6c-.3.8-.6 1-1.5 1h-1V767zm7.5-3.6l-1.4-3.8c-.2-.7-.5-1.8-.5-1.8s-.2 1.1-.5 1.8l-1.4 3.8h3.8zm4.4 3.6h.6c.2 0 .4-.1.4-.4l.9-10.6h1.8l3 6.6c.3.7.6 1.6.6 1.6s.3-.9.6-1.6l3-6.6h1.8l.9 10.6c0 .2.1.4.4.4h.6v1.5H164c-.8 0-1.1-.3-1.1-1.1l-.5-6.6c-.1-.7 0-1.8 0-1.8s-.4 1.2-.7 1.8l-2.5 5.5h-1.5l-2.5-5.5c-.3-.7-.7-1.9-.7-1.9v1.9l-.5 6.6c-.1.8-.3 1.1-1.2 1.1H151V767zm16.7-9.5h-1.2V756h7.4c.8 0 1.1.3 1.1 1.1v1.6h-1.6v-.8c0-.3-.1-.4-.4-.4h-3.6v3.9h4.4v1.5h-4.4v3.6c0 .2.1.4.4.4h3.7c.2 0 .4-.1.4-.4v-.8h1.6v1.6c0 .8-.3 1.1-1.1 1.1h-5.6c-.8 0-1.1-.3-1.1-1.1v-9.8zm10.1 0h-1.2V756h5.5c2.2 0 3.8 1.4 3.8 3.7 0 2.1-1.4 3.1-2.3 3.3s.3.2.5.6l1.5 3c.2.4.5.4.9.4h.2v1.5h-.9c-1 0-1.3-.1-1.7-.9l-1.7-3.4c-.3-.6-.6-.7-1.2-.7h-1.6v5h-1.8v-11zm4.1 4.5c1.4 0 2.2-.9 2.2-2.3s-.8-2.2-2.1-2.2h-2.3v4.5h2.2zm5.8 5h1.2v-9.5h-1.2V756h4.1v1.5h-1.2v9.5h1.2v1.5h-4.1V767zm11.8-11.2c1.7 0 4.7.7 4.7 2.7v1.2h-1.6v-.7c0-1-1.8-1.6-3-1.6-2.5 0-4.5 1.9-4.5 4.7 0 2.7 2 4.9 4.5 4.9s4-1.7 4-1.7l1 1.3s-1.8 2.1-4.9 2.1c-3.8 0-6.4-2.9-6.4-6.6-.1-3.6 2.6-6.3 6.2-6.3zm5.8 11.2h.2c.3 0 .5-.1.6-.4L210 756h1.9l3.9 10.6c.1.3.3.4.6.4h.3v1.5h-1c-.9 0-1.2-.2-1.5-1l-.9-2.6h-4.6l-.9 2.6c-.3.8-.6 1-1.5 1h-1V767zm7.6-3.6l-1.4-3.8c-.2-.7-.5-1.8-.5-1.8s-.2 1.1-.5 1.8l-1.4 3.8h3.8zm-53.4 17.1h4v-4.4h1.5v4.4h4v1.4h-4v4.4h-1.5v-4.4h-4v-1.4zm11.3 4.3h2.8v-8.9s-.1.3-.6.7l-1.2 1.2-1.1-1.1 3-2.9h1.6v11h2.7v1.5h-7.3v-1.5h.1zm10.5-5.3s-1.5-.9-1.5-2.6 1.4-3.4 3.9-3.4c2.4 0 3.9 1.4 3.9 3.4 0 1.8-1.5 3-1.5 3 1.1.7 1.9 1.5 1.9 2.9 0 2-1.8 3.7-4.3 3.7-2.4 0-4.4-1.5-4.4-3.8 0-2.1 2-3.2 2-3.2zm2.3 5.4c1.3 0 2.5-.9 2.5-2.1 0-1.1-.9-1.6-2.1-2.1-.5-.2-1.2-.5-1.3-.5-.4 0-1.7 1-1.7 2.4.1 1.4 1.3 2.3 2.6 2.3zm1-5.7c.4 0 1.3-1 1.3-2.2s-.9-1.9-2.2-1.9c-1.4 0-2.2.8-2.2 1.8 0 1.1.9 1.5 2.1 2 .2.1.7.3 1 .3zm7.4 5.2l-1.5 3.7h-1.3l1.1-3.7h1.7zm1.1-2.6l5.7-8.1h2v7.7h2v1.5h-2v3.3H199V783h-5.9v-1.2zm5.9-4.7c0-.6.1-1.3.1-1.3s-.3.6-.6 1l-2.7 3.8c-.3.4-.7.8-.7.8s.5-.1 1.1-.1h2.9v-4.2h-.1zm5-.9c0-1.4 1.2-2.6 2.7-2.6s2.7 1.2 2.7 2.6c0 1.5-1.2 2.6-2.7 2.6s-2.7-1.2-2.7-2.6zm9.9-2.5h1.7l-9.6 12.6h-1.7l9.6-12.6zm-5.9 2.5c0-.7-.6-1.3-1.3-1.3s-1.3.6-1.3 1.3.6 1.3 1.3 1.3 1.3-.6 1.3-1.3zm5.2 5.1c1.5 0 2.7 1.2 2.7 2.6 0 1.5-1.2 2.6-2.7 2.6s-2.7-1.2-2.7-2.6c0-1.5 1.2-2.6 2.7-2.6zm0 3.9c.7 0 1.3-.6 1.3-1.3s-.6-1.3-1.3-1.3-1.3.6-1.3 1.3.5 1.3 1.3 1.3zM168 795.7c-.1-.3-.2-.3-.5-.3h-.1v-.9h.4c.7 0 .9.1 1.2.8l1.8 4.6c.1.4.2.9.2.9s.1-.5.2-.9l1.8-4.6c.2-.7.5-.8 1.2-.8h.4v.9h-.1c-.3 0-.4.1-.5.3l-2.4 6.2h-1.1l-2.5-6.2zm7.7 4.4s.8 1.1 2.3 1.1c.8 0 1.6-.4 1.6-1.2 0-1.6-4.1-1.3-4.1-3.7 0-1.3 1.1-2 2.6-2 .7 0 2.2.3 2.2 1.3v.6h-.9v-.4c0-.5-.8-.7-1.3-.7-1 0-1.6.4-1.6 1.1 0 1.7 4.1 1.3 4.1 3.7 0 1.2-1.1 2.1-2.6 2.1-1.9 0-2.8-1.3-2.8-1.3l.5-.6zm15.5-5.8c0-1.1-.8-1.9-2.1-1.9-1 0-1.8.5-1.8 1.1v.5h-1v-.8c0-1.3 1.8-1.8 2.8-1.8 2 0 3.1 1.3 3.1 2.9 0 3.6-5.4 3.5-5.4 6.4 0 .2.1.3.3.3h4.3c.2 0 .3-.1.3-.3v-.7h1v1c0 .6-.3.9-.9.9h-5.2c-.7 0-.9-.3-.9-1 0-3.9 5.5-3.6 5.5-6.6zm3 2.4c0-3 .9-5.3 3.5-5.3 2.7 0 3.6 2.4 3.6 5.3 0 3-.9 5.3-3.6 5.3s-3.5-2.3-3.5-5.3zm6 0c0-2.4-.6-4.4-2.5-4.4s-2.5 1.9-2.5 4.4.6 4.4 2.5 4.4c2 0 2.5-1.9 2.5-4.4zm2.6 4.2h2.3v-8.2s-.1.2-.5.6l-1.1 1.1-.6-.7 2.3-2.3h1v9.4h2.3v.9h-5.6l-.1-.8zm6.5-3.6c0-2.6 1.3-5.9 4.5-5.9 1.1 0 1.9.4 1.9.4l-.4.9s-.6-.4-1.5-.4c-2.2 0-3.2 2.2-3.4 4.2.5-.8 1.6-1.2 2.6-1.2 1.9 0 3.2 1.3 3.2 3.3 0 2.1-1.4 3.4-3.2 3.4-2.2 0-3.7-2-3.7-4.7zm3.8 3.8c1.4 0 2.2-1.1 2.2-2.5s-.9-2.4-2.3-2.4-2.5.9-2.5 1.8c-.1 1.3 1 3.1 2.6 3.1zm70.2-128.3h-1.2v-1.5h7.4c.8 0 1.1.3 1.1 1.1v1.6H289v-.8c0-.3-.1-.4-.4-.4H285v3.9h4.4v1.5H285v3.6c0 .2.1.4.4.4h3.7c.2 0 .4-.1.4-.4v-.8h1.6v1.6c0 .8-.3 1.1-1.1 1.1h-5.6c-.8 0-1.1-.3-1.1-1.1v-9.8zm10 .4c0-.3-.1-.4-.4-.4h-.8v-1.5h1.8c.8 0 1.1.3 1.1 1.1v7c0 1.9 1.2 3 3 3s3-1.1 3-3v-6.9c0-.8.4-1.1 1.2-1.1h1.8v1.5h-.8c-.2 0-.4.1-.4.4v6.2c0 2.7-1.9 4.6-4.8 4.6s-4.8-1.9-4.8-4.6l.1-6.3zm13.1-.4h-1.2v-1.5h5.5c2.2 0 3.8 1.4 3.8 3.7 0 2.1-1.4 3.1-2.3 3.3s.3.2.5.6l1.5 3c.2.4.5.4.9.4h.2v1.5h-.9c-1 0-1.3-.1-1.7-.9l-1.7-3.4c-.3-.6-.6-.7-1.2-.7h-1.6v5h-1.8v-11zm4.1 4.5c1.4 0 2.2-.9 2.2-2.3s-.8-2.2-2.1-2.2h-2.3v4.5h2.2zm12-6.2c3.6 0 6.5 2.8 6.5 6.4 0 3.7-2.8 6.6-6.5 6.6-3.6 0-6.4-2.9-6.4-6.6s2.8-6.4 6.4-6.4zm0 11.3c2.5 0 4.6-2.1 4.6-4.9 0-2.7-2.1-4.7-4.6-4.7s-4.6 2.1-4.6 4.7c0 2.7 2.1 4.9 4.6 4.9zm8.9-9.6h-1.2v-1.5h5.5c2.3 0 3.9 1.5 3.9 3.9s-1.6 4-3.9 4h-2.6v4.6h-1.8v-11h.1zm4.1 4.9c1.5 0 2.4-.9 2.4-2.5 0-1.5-.9-2.4-2.4-2.4h-2.3v4.9h2.3zm3.8 4.6h.2c.3 0 .5-.1.6-.4l3.9-10.6h1.9l3.9 10.6c.1.3.3.4.6.4h.3v1.5h-1c-.9 0-1.2-.2-1.5-1l-.9-2.6h-4.6l-.9 2.6c-.3.8-.6 1-1.5 1h-1v-1.5zm7.6-3.6l-1.4-3.8c-.2-.7-.5-1.8-.5-1.8s-.2 1.1-.5 1.8l-1.4 3.8h3.8zm-44.6 17.1h4v-4.4h1.5v4.4h4v1.4h-4v4.4h-1.5v-4.4h-4v-1.4zm10.5 1.3l5.7-8.1h2v7.7h2v1.5h-2v3.3h-1.8v-3.3h-5.9v-1.1zm5.9-4.7c0-.6.1-1.3.1-1.3s-.3.6-.6 1l-2.7 3.8c-.3.4-.7.8-.7.8s.5-.1 1.1-.1h2.9l-.1-4.2zm7.1 7.3l-1.5 3.7H323l1.1-3.7h1.7zm8-7.2c0-1.2-.9-2-2.2-2-1.1 0-1.9.6-1.9 1.2v.6h-1.6v-1.1c0-1.6 2.2-2.3 3.6-2.3 2.3 0 3.9 1.5 3.9 3.6 0 4.3-6.4 4.4-6.4 7.3 0 .2.1.3.4.3h4.5c.2 0 .4-.1.4-.4v-.8h1.6v1.6c0 .8-.3 1.1-1.1 1.1h-6.4c-1 0-1.2-.4-1.2-1.4.1-4.7 6.4-4.3 6.4-7.7zm4.2-1c0-1.4 1.2-2.6 2.7-2.6s2.7 1.2 2.7 2.6c0 1.5-1.2 2.6-2.7 2.6s-2.7-1.2-2.7-2.6zm9.9-2.4h1.7l-9.6 12.6h-1.7l9.6-12.6zm-5.9 2.4c0-.7-.6-1.3-1.3-1.3s-1.3.6-1.3 1.3.6 1.3 1.3 1.3c.8 0 1.3-.6 1.3-1.3zm5.2 5.1c1.5 0 2.7 1.2 2.7 2.6 0 1.5-1.2 2.6-2.7 2.6s-2.7-1.2-2.7-2.6c0-1.5 1.1-2.6 2.7-2.6zm0 3.9c.7 0 1.3-.6 1.3-1.3s-.6-1.3-1.3-1.3-1.3.6-1.3 1.3c-.1.7.5 1.3 1.3 1.3zM301.9 711c-.1-.3-.2-.3-.5-.3h-.1v-.9h.4c.7 0 .9.1 1.2.8l1.8 4.6c.1.4.2.9.2.9s.1-.5.2-.9l1.8-4.6c.2-.7.5-.8 1.2-.8h.4v.9h-.1c-.3 0-.4.1-.5.3l-2.4 6.2h-1.1l-2.5-6.2zm7.8 4.4s.8 1.1 2.3 1.1c.8 0 1.6-.4 1.6-1.2 0-1.6-4.1-1.3-4.1-3.7 0-1.3 1.1-2 2.6-2 .7 0 2.2.3 2.2 1.3v.6h-.9v-.4c0-.5-.8-.7-1.3-.7-1 0-1.6.4-1.6 1.1 0 1.7 4.1 1.3 4.1 3.7 0 1.2-1.1 2.1-2.6 2.1-1.9 0-2.8-1.3-2.8-1.3l.5-.6zm15.5-5.8c0-1.1-.8-1.9-2.1-1.9-1 0-1.8.5-1.8 1.1v.5h-1v-.8c0-1.3 1.8-1.8 2.8-1.8 2 0 3.1 1.3 3.1 2.9 0 3.6-5.4 3.5-5.4 6.4 0 .2.1.3.3.3h4.3c.2 0 .3-.1.3-.3v-.7h1v1c0 .6-.3.9-.9.9h-5.2c-.7 0-.9-.3-.9-1 0-3.9 5.5-3.6 5.5-6.6zm3 2.4c0-3 .9-5.3 3.5-5.3 2.7 0 3.6 2.4 3.6 5.3 0 3-.9 5.3-3.6 5.3s-3.5-2.3-3.5-5.3zm6 0c0-2.4-.6-4.4-2.5-4.4s-2.5 1.9-2.5 4.4.6 4.4 2.5 4.4 2.5-1.9 2.5-4.4zm2.6 4.2h2.3V708s-.1.2-.5.6l-1.1 1.1-.6-.7 2.3-2.3h1v9.4h2.3v.9h-5.6l-.1-.8zm6.5-3.6c0-2.6 1.3-5.9 4.5-5.9 1.1 0 1.9.4 1.9.4l-.4.9s-.6-.4-1.5-.4c-2.2 0-3.2 2.2-3.4 4.2.5-.8 1.6-1.2 2.6-1.2 1.9 0 3.2 1.3 3.2 3.3 0 2.1-1.4 3.4-3.2 3.4-2.2 0-3.7-2-3.7-4.7zm3.7 3.8c1.4 0 2.2-1.1 2.2-2.5s-.9-2.4-2.3-2.4-2.5.9-2.5 1.8c0 1.3 1.1 3.1 2.6 3.1zm57.8-1h.2c.3 0 .5-.1.6-.4l3.9-10.6h1.9l3.9 10.6c.1.3.3.4.6.4h.3v1.5h-1c-.9 0-1.2-.2-1.5-1l-.9-2.6h-4.6l-.9 2.6c-.3.8-.6 1-1.5 1h-1v-1.5zm7.6-3.6L411 708c-.2-.7-.5-1.8-.5-1.8s-.2 1.1-.5 1.8l-1.4 3.8h3.8zm5.9-5.9h-1.2v-1.5h6.9c.8 0 1.1.3 1.1 1.1v1.6h-1.6v-.8c0-.3-.1-.4-.4-.4H420v4.1h4.3v1.5H420v5.4h-1.8l.1-11zm9.1 0h-1.2v-1.5h5.5c2.2 0 3.8 1.4 3.8 3.7 0 2.1-1.4 3.1-2.3 3.3s.3.2.5.6l1.5 3c.2.4.5.4.9.4h.2v1.5h-.9c-1 0-1.3-.1-1.7-.9l-1.7-3.4c-.3-.6-.6-.7-1.2-.7h-1.6v5h-1.8v-11zm4.1 4.5c1.4 0 2.2-.9 2.2-2.3s-.8-2.2-2.1-2.2h-2.3v4.5h2.2zm5.8 5h1.2v-9.5h-1.2v-1.5h4.1v1.5h-1.2v9.5h1.2v1.5h-4.1v-1.5zm11.8-11.3c1.7 0 4.7.7 4.7 2.7v1.2h-1.6v-.7c0-1-1.8-1.6-3-1.6-2.5 0-4.5 1.9-4.5 4.7 0 2.7 2 4.9 4.5 4.9s4-1.7 4-1.7l1 1.3s-1.8 2.1-4.9 2.1c-3.8 0-6.4-2.9-6.4-6.6-.1-3.5 2.6-6.3 6.2-6.3zm5.8 11.3h.2c.3 0 .5-.1.6-.4l3.9-10.6h1.9l3.9 10.6c.1.3.3.4.6.4h.3v1.5h-1c-.9 0-1.2-.2-1.5-1l-.9-2.6h-4.6l-.9 2.6c-.3.8-.6 1-1.5 1h-1v-1.5zm7.5-3.6L461 708c-.2-.7-.5-1.8-.5-1.8s-.2 1.1-.5 1.8l-1.4 3.8h3.8zm-57 17.1h4v-4.4h1.5v4.4h4v1.4h-4v4.4h-1.5v-4.4h-4v-1.4zm11.2 4.3h2.8v-8.9s-.1.3-.6.7l-1.2 1.2-1.1-1.1 3-2.9h1.6v11h2.7v1.5h-7.3v-1.5h.1zm9.2-1.4s1.2 1.4 3.2 1.4c1.4 0 2.5-.9 2.5-2.3s-1.2-2.2-2.7-2.2h-.9l-.4-.9 2.6-3.3c.4-.5.7-.8.7-.8s-.4.1-1.1.1h-2.4c-.2 0-.4.1-.4.4v.8h-1.6v-1.6c0-.8.3-1.1 1.1-1.1h6.6v1.1l-3.3 4c1.6.2 3.6 1.3 3.6 3.7 0 2.1-1.7 4-4.3 4s-4.1-1.8-4.1-1.8l.9-1.5zm11.5 1l-1.5 3.7h-1.3l1.1-3.7h1.7zm3.8-4.9s-1.5-.9-1.5-2.6 1.4-3.4 3.9-3.4c2.4 0 3.9 1.4 3.9 3.4 0 1.8-1.5 3-1.5 3 1.1.7 1.9 1.5 1.9 2.9 0 2-1.8 3.7-4.3 3.7-2.4 0-4.4-1.5-4.4-3.8-.1-2.1 2-3.2 2-3.2zm2.3 5.4c1.3 0 2.5-.9 2.5-2.1 0-1.1-.9-1.6-2.1-2.1-.5-.2-1.2-.5-1.3-.5-.4 0-1.7 1-1.7 2.4s1.2 2.3 2.6 2.3zm.9-5.7c.4 0 1.3-1 1.3-2.2s-.9-1.9-2.2-1.9c-1.4 0-2.2.8-2.2 1.8 0 1.1.9 1.5 2.1 2 .3.1.8.3 1 .3zm5.3-3c0-1.4 1.2-2.6 2.7-2.6s2.7 1.2 2.7 2.6c0 1.5-1.2 2.6-2.7 2.6s-2.7-1.2-2.7-2.6zm9.8-2.5h1.7l-9.6 12.6h-1.7l9.6-12.6zm-5.8 2.5c0-.7-.6-1.3-1.3-1.3s-1.3.6-1.3 1.3.6 1.3 1.3 1.3 1.3-.6 1.3-1.3zm5.1 5c1.5 0 2.7 1.2 2.7 2.6 0 1.5-1.2 2.6-2.7 2.6s-2.7-1.2-2.7-2.6 1.2-2.6 2.7-2.6zm0 4c.7 0 1.3-.6 1.3-1.3s-.6-1.3-1.3-1.3-1.3.6-1.3 1.3.6 1.3 1.3 1.3zm-53.2 10.5c-.1-.3-.2-.3-.5-.3h-.1v-.9h.4c.7 0 .9.1 1.2.8l1.8 4.6c.1.4.2.9.2.9s.1-.5.2-.9l1.8-4.6c.2-.7.5-.8 1.2-.8h.4v.9h-.1c-.3 0-.4.1-.5.3l-2.4 6.2H408l-2.5-6.2zm7.7 4.3s.8 1.1 2.3 1.1c.8 0 1.6-.4 1.6-1.2 0-1.6-4.1-1.3-4.1-3.7 0-1.3 1.1-2 2.6-2 .7 0 2.2.3 2.2 1.3v.6h-.9v-.4c0-.5-.8-.7-1.3-.7-1 0-1.6.4-1.6 1.1 0 1.7 4.1 1.3 4.1 3.7 0 1.2-1.1 2.1-2.6 2.1-1.9 0-2.8-1.3-2.8-1.3l.5-.6zm15.5-5.7c0-1.1-.8-1.9-2.1-1.9-1 0-1.8.5-1.8 1.1v.5h-1v-.8c0-1.3 1.8-1.8 2.8-1.8 2 0 3.1 1.3 3.1 2.9 0 3.6-5.4 3.5-5.4 6.4 0 .2.1.3.3.3h4.3c.2 0 .3-.1.3-.3v-.7h1v1c0 .6-.3.9-.9.9h-5.2c-.7 0-.9-.3-.9-1 0-3.9 5.5-3.6 5.5-6.6zm3 2.4c0-3 .9-5.3 3.5-5.3 2.7 0 3.6 2.4 3.6 5.3 0 3-.9 5.3-3.6 5.3s-3.5-2.3-3.5-5.3zm6 0c0-2.4-.6-4.4-2.5-4.4s-2.5 1.9-2.5 4.4.6 4.4 2.5 4.4c2 0 2.5-2 2.5-4.4zm2.6 4.2h2.3v-8.2s-.1.2-.5.6l-1.1 1.1-.6-.7 2.3-2.3h1v9.4h2.3v.9h-5.6l-.1-.8zm6.5-3.6c0-2.6 1.3-5.9 4.5-5.9 1.1 0 1.9.4 1.9.4l-.4.9s-.6-.4-1.5-.4c-2.2 0-3.2 2.2-3.4 4.2.5-.8 1.6-1.2 2.6-1.2 1.9 0 3.2 1.3 3.2 3.3 0 2.1-1.4 3.4-3.2 3.4-2.2 0-3.7-2-3.7-4.7zm3.7 3.8c1.4 0 2.2-1.1 2.2-2.5s-.9-2.4-2.3-2.4-2.5.9-2.5 1.8c0 1.3 1.1 3.1 2.6 3.1zm88.5-47.1h.2c.3 0 .5-.1.6-.4l3.9-10.6h1.9l3.9 10.6c.1.3.3.4.6.4h.3v1.5h-1c-.9 0-1.2-.2-1.5-1l-.9-2.6h-4.6l-.9 2.6c-.3.8-.6 1-1.5 1h-1v-1.5zm7.6-3.5l-1.4-3.8c-.2-.7-.5-1.8-.5-1.8s-.2 1.1-.5 1.8l-1.4 3.8h3.8zm5.7 2.1s1.3 1.5 3.1 1.5c1.2 0 2.2-.7 2.2-1.9 0-2.6-6.1-2.2-6.1-6.1 0-1.9 1.7-3.4 4-3.4 1.3 0 3.6.6 3.6 2.3v1h-1.6v-.4c0-.7-.9-1.1-1.9-1.1-1.4 0-2.2.7-2.2 1.7 0 2.5 6 2 6 6.1 0 1.9-1.5 3.6-4 3.6-2.7 0-4.2-1.9-4.2-1.9l1.1-1.4zm8.6 1.4h1.2v-9.5h-1.2v-1.5h4.1v1.5h-1.2v9.5h1.2v1.5h-4.1v-1.5zm5.1 0h.2c.3 0 .5-.1.6-.4l3.9-10.6h1.9l3.9 10.6c.1.3.3.4.6.4h.3v1.5h-1c-.9 0-1.2-.2-1.5-1l-.9-2.6h-4.6l-.9 2.6c-.3.8-.6 1-1.5 1h-1v-1.5zm7.5-3.5l-1.4-3.8c-.2-.7-.5-1.8-.5-1.8s-.2 1.1-.5 1.8l-1.4 3.8h3.8zm14-4.1c2.5 0 3.9 1.9 3.9 4.2 0 .2-.1.7-.1.7h-6.6c.1 1.9 1.5 3 3.1 3 1.5 0 2.6-1 2.6-1l.7 1.2s-1.3 1.3-3.5 1.3c-2.8 0-4.8-2-4.8-4.7.2-2.9 2.2-4.7 4.7-4.7zm2.1 3.6c-.1-1.5-1-2.3-2.1-2.3-1.3 0-2.4.8-2.6 2.3h4.7zM545.9 709c3.6 0 6.5 2.8 6.5 6.4 0 3.7-2.8 6.6-6.5 6.6-3.6 0-6.4-2.9-6.4-6.6-.1-3.6 2.7-6.4 6.4-6.4zm0 11.3c2.5 0 4.6-2.1 4.6-4.9 0-2.7-2.1-4.7-4.6-4.7s-4.6 2.1-4.6 4.7c0 2.7 2 4.9 4.6 4.9zm13.9-11.3c1.7 0 4.7.7 4.7 2.7v1.2h-1.6v-.7c0-1-1.8-1.6-3-1.6-2.5 0-4.5 1.9-4.5 4.7 0 2.7 2 4.9 4.5 4.9s4-1.7 4-1.7l1 1.3s-1.8 2.1-4.9 2.1c-3.8 0-6.4-2.9-6.4-6.6-.1-3.6 2.6-6.3 6.2-6.3zm7.4 1.7H566v-1.5h7.4c.8 0 1.1.3 1.1 1.1v1.6H573v-.8c0-.3-.1-.4-.4-.4H569v3.9h4.4v1.5H569v3.6c0 .2.1.4.4.4h3.7c.2 0 .4-.1.4-.4v-.7h1.6v1.6c0 .8-.3 1.1-1.1 1.1h-5.6c-.8 0-1.1-.3-1.1-1.1v-9.9h-.1zm8.5 9.5h.2c.3 0 .5-.1.6-.4l3.9-10.6h1.9l3.9 10.6c.1.3.3.4.6.4h.3v1.5h-1c-.9 0-1.2-.2-1.5-1l-.9-2.6h-4.6l-.9 2.6c-.3.8-.6 1-1.5 1h-1v-1.5zm7.6-3.6l-1.4-3.8c-.2-.7-.5-1.8-.5-1.8s-.2 1.1-.5 1.8l-1.4 3.8h3.8zm4.7 3.6h.8c.2 0 .4-.1.4-.4v-10.6h1.6l5.6 7.9c.5.7 1 1.7 1 1.7s-.1-1-.1-1.7v-6.8c0-.8.3-1.1 1.2-1.1h1.8v1.5h-.8c-.2 0-.4.1-.4.4v10.6h-1.6l-5.6-7.9c-.5-.7-1-1.7-1-1.7s.1 1 .1 1.7v6.8c0 .8-.3 1.1-1.1 1.1H588v-1.5zm13.6 0h1.2v-9.5h-1.2v-1.5h4.1v1.5h-1.2v9.5h1.2v1.5h-4.1v-1.5zm5.2 0h.2c.3 0 .5-.1.6-.4l3.9-10.6h1.9l3.9 10.6c.1.3.3.4.6.4h.3v1.5h-1c-.9 0-1.2-.2-1.5-1l-.9-2.6h-4.6l-.9 2.6c-.3.8-.6 1-1.5 1h-1v-1.5zm7.5-3.6l-1.4-3.8c-.2-.7-.5-1.8-.5-1.8s-.2 1.1-.5 1.8l-1.4 3.8h3.8zm-74.7 17.2h4v-4.4h1.5v4.4h4v1.4h-4v4.4h-1.5v-4.4h-4v-1.4zm10.8.2c0-3.3 1.8-7.2 5.7-7.2 1.5 0 2.4.5 2.4.5l-.6 1.5s-.8-.4-1.8-.4c-2.3 0-3.5 2.2-3.8 4.3.5-.8 1.7-1.2 2.8-1.2 2.4 0 4 1.8 4 4.1 0 2.5-1.7 4.2-4 4.2-2.7-.1-4.7-2.3-4.7-5.8zm4.7 4.1c1.5 0 2.3-1.1 2.3-2.6s-1-2.6-2.6-2.6c-1.4 0-2.5.9-2.5 1.8 0 1.6 1.2 3.4 2.8 3.4zm7.9-.5l-1.5 3.7h-1.3l1.1-3.7h1.7zm7.2-8c.4-.7.7-1.2.7-1.2s-.3.1-.9.1h-3.8c-.2 0-.4.1-.4.4v.8h-1.6v-1.6c0-.8.3-1.1 1.1-1.1h7.6v1.2l-6.1 11.3h-2l5.4-9.9zm3.9-.2c0-1.4 1.2-2.6 2.7-2.6s2.7 1.2 2.7 2.6c0 1.5-1.2 2.6-2.7 2.6s-2.7-1.2-2.7-2.6zm9.9-2.4h1.7l-9.6 12.6h-1.7L584 727zm-5.9 2.4c0-.7-.6-1.3-1.3-1.3s-1.3.6-1.3 1.3.6 1.3 1.3 1.3 1.3-.6 1.3-1.3zm5.2 5.1c1.5 0 2.7 1.2 2.7 2.6 0 1.5-1.2 2.6-2.7 2.6s-2.7-1.2-2.7-2.6 1.2-2.6 2.7-2.6zm0 3.9c.7 0 1.3-.6 1.3-1.3s-.6-1.3-1.3-1.3-1.3.6-1.3 1.3.5 1.3 1.3 1.3zm-43.6 10.5c-.1-.3-.2-.3-.5-.3h-.2v-.9h.4c.7 0 .9.1 1.2.8l1.8 4.6c.1.4.2.9.2.9s.1-.5.2-.9l1.8-4.6c.2-.7.5-.8 1.2-.8h.4v.9h-.1c-.3 0-.4.1-.5.3l-2.4 6.2h-1.1l-2.4-6.2zm7.7 4.4s.8 1.1 2.3 1.1c.8 0 1.6-.4 1.6-1.2 0-1.6-4.1-1.3-4.1-3.7 0-1.3 1.1-2 2.6-2 .7 0 2.2.3 2.2 1.3v.6h-1v-.4c0-.5-.8-.7-1.3-.7-1 0-1.6.4-1.6 1.1 0 1.7 4.1 1.3 4.1 3.7 0 1.2-1.1 2.1-2.6 2.1-1.9 0-2.8-1.3-2.8-1.3l.6-.6zm15.5-5.8c0-1.1-.8-1.9-2.1-1.9-1 0-1.8.5-1.8 1.1v.5h-1v-.8c0-1.3 1.8-1.8 2.8-1.8 2 0 3.1 1.3 3.1 2.9 0 3.6-5.4 3.5-5.4 6.4 0 .2.1.3.3.3h4.3c.2 0 .3-.1.3-.3v-.7h1v1c0 .6-.3.9-.9.9h-5.2c-.7 0-.9-.3-.9-1 0-3.9 5.5-3.6 5.5-6.6zm3 2.4c0-3 .9-5.3 3.5-5.3 2.7 0 3.6 2.4 3.6 5.3 0 3-.9 5.3-3.6 5.3s-3.5-2.3-3.5-5.3zm6 0c0-2.4-.6-4.4-2.5-4.4s-2.5 1.9-2.5 4.4.6 4.4 2.5 4.4c2 0 2.5-1.9 2.5-4.4zm2.6 4.3h2.3V746s-.1.2-.5.6l-1.1 1.1-.6-.7 2.3-2.3h1v9.4h2.3v.9h-5.6v-.8h-.1zm6.5-3.7c0-2.6 1.3-5.9 4.5-5.9 1.1 0 1.9.4 1.9.4l-.4.9s-.6-.4-1.5-.4c-2.2 0-3.2 2.2-3.4 4.2.5-.8 1.6-1.2 2.6-1.2 1.9 0 3.2 1.3 3.2 3.3 0 2.1-1.4 3.4-3.2 3.4-2.2 0-3.7-2-3.7-4.7zm3.7 3.8c1.4 0 2.2-1.1 2.2-2.5s-.9-2.4-2.3-2.4-2.5.9-2.5 1.8c0 1.4 1.1 3.1 2.6 3.1z"/></svg>