<svg id="Livello_1" xmlns="http://www.w3.org/2000/svg" viewBox="0 0 914.9 498.7"><style>.st0{fill:#fefefe}.st1{fill:#1f191a}</style><path class="st0" d="M180.7 249.1v-63.8c0-1.6-.3-2.2-2-2.1-7.9.1-15.8 0-23.8 0-3.3 0-3.4 0-3.4 3.3 0 15.8-.1 31.5.1 47.3 0 2.2-.4 3-2.8 3-16.1-.1-32.2-.1-48.2 0-2.2 0-2.6-.6-2.6-2.7.1-16.1 0-32.2.1-48.2 0-1.7-.4-2.2-2.1-2.2-8.3.1-16.6.1-25 0-1.8 0-2.1.7-2.1 2.2v127.2c0 1.9.7 2.2 2.3 2.2 8.1-.1 16.2-.1 24.2 0 2.2 0 2.6-.6 2.6-2.7-.1-16 0-32-.1-48 0-2.3.7-2.7 2.8-2.7 16.1.1 32.2.1 48.2 0 2 0 2.7.4 2.7 2.6-.1 16 0 32-.1 48 0 2.1.4 2.8 2.7 2.8 7.9-.2 15.8-.1 23.8 0 2.2 0 2.8-.5 2.8-2.8-.2-21.2-.1-42.3-.1-63.4zm200 66c9 0 17.6-.1 26.3 0 2.2 0 3.2-.7 3.9-2.7 2.7-8 5.6-15.9 8.3-23.9.6-1.9 1.5-2.6 3.5-2.6 14.1.1 28.2 0 42.2 0 5.3 0 5.2 0 6.8 5.1 2.3 7.4 4.9 14.6 7.4 22 .5 1.5 1.4 2.1 3 2.1 8.3-.1 16.6-.1 25 0 2.2 0 2.5-.8 1.8-2.6-1-2.7-2-5.4-3-8-6.1-16.3-12.3-32.6-18.4-48.9-5.4-14.4-10.7-28.8-16.1-43.2-3.4-9.2-6.9-18.3-10.2-27.5-.4-1.2-1.1-1.3-2.2-1.3h-25.9c-2 0-2.9.9-3.5 2.6l-22.5 59.4c-6.6 17.3-13.1 34.5-19.7 51.8-2.2 5.7-4.4 11.5-6.7 17.7zm-88.1-65.7v63.1c0 2 .4 2.7 2.6 2.7 8-.2 16-.1 24 0 2.2 0 2.6-.6 2.6-2.7-.1-16.4 0-32.8-.1-49.2 0-2 .6-2.5 2.5-2.5 16.6.1 33.1.1 49.7 0 3.4 0 3.4 0 3.4-3.3 0-5.6-.1-11.2 0-16.8 0-2-.4-2.5-2.5-2.5-16.9.1-33.8 0-50.6.1-2 0-2.6-.5-2.6-2.5.1-8 0-16 .1-24 0-4.9-.9-4.3 4.3-4.3 19-.1 38.1 0 57.1 0 1.8 0 2.3-.4 2.3-2.3-.1-6.4-.2-12.8 0-19.2.1-2.2-.7-2.6-2.7-2.6-29.2.1-58.4.1-87.6 0-2.3 0-2.6.8-2.5 2.7v63.3zm-56 12.6h24.7c1.7 0 2.2-.4 2.1-2.1-.1-7-.1-14.1 0-21.1 0-1.7-.5-2.1-2.2-2.1-16.5.1-32.9.1-49.4 0-1.6 0-2 .4-2 2 .1 7.1.1 14.2 0 21.3 0 1.7.5 2 2.1 2h24.7zm598-78.4c-6.9 0-11.5 4.5-11.5 11.2 0 6.4 5.1 11.5 11.6 11.5 6.1 0 11.3-5.2 11.3-11.2.1-7-4.4-11.5-11.4-11.5z"/><path class="st1" d="M657 315.6v-130c0-1.8.4-2.5 2.4-2.5 12.1.1 24.2.1 36.2 0 2 0 3.1.5 3.8 2.6 6.6 19.8 13.2 39.6 20.1 59.4 3.1 8.8 5.9 17.6 9 26.3.2.5.3 1 .9 1.4 2.1-2.7 2.3-6 3.3-9.1 4.5-13.7 8.9-27.4 13.4-41.2 3.1-9.7 6.2-19.5 9.3-29.2.8-2.6 1.6-5.3 2.6-7.9.7-1.8 1.6-2.4 3.5-2.4 12.1.1 24.2.1 36.2 0 2 0 2.3.6 2.3 2.5-.1 27 0 53.9 0 80.9v49.2h-27.8v-90.5c-.2 0-.5-.1-.7-.1-.5 1.3-1.1 2.6-1.6 3.9-2.6 7.4-5.1 14.8-7.7 22.2-5.7 16.5-11.4 33-17.2 49.5-1.8 5-3 10.2-5.4 14.9H718c-.5-.6-1.1-1-1.4-1.8-2.1-6.1-4.3-12.3-6.5-18.4-5.4-15.3-10.7-30.5-16-45.8-1.9-5.5-4.1-11-5.8-16.6-1-3.2-2.2-6.3-3.7-9.5.5 31 .1 61.6.2 92.2H657zm-134.4 0c0-43.4 0-86.8-.1-130.2 0-1.9.6-2.2 2.3-2.2 24.1.1 48.3-.2 72.4.1 14.3.2 28.3 8.3 33.3 22.8 4.4 12.5 3.8 24.7-3.9 35.9-2.8 4.1-6.6 7.1-11 9.3-.8.4-1.9.6-1.9 1.6 0 1.1 1.3 1 2 1.4 6 2.5 9.7 7.2 12.2 13.1 2.8 6.4 3.2 13.2 3.6 20 .5 8.6.4 17.4 4.1 25.5.4.8.2 1.7.2 2.6h-28.3c-2.3-6.3-3.1-12.9-3.4-19.6-.3-6.4-.9-12.9-2.7-19.1-2.1-7.2-8-12.8-16.9-12.7-10 .2-20 .1-30 0-1.9 0-2.2.6-2.2 2.3.1 16.4 0 32.7 0 49.1-9.8.1-19.8.1-29.7.1zm48.5-72.5h16.3c1 0 1.9 0 2.8-.3 9.4-2.5 13.9-8.8 13.5-18.9-.5-12.6-6.4-18.2-18.9-18.2h-30.4c-1.5 0-2 .4-2 2 .1 11.2.1 22.4 0 33.6 0 1.5.3 2 1.9 2 5.6-.2 11.2-.2 16.8-.2z"/><path class="st0" d="M552.4 315.6v-49.1c0-1.7.3-2.3 2.2-2.3 10 .1 20 .2 30 0 9-.1 14.9 5.5 16.9 12.7 1.8 6.2 2.4 12.7 2.7 19.1.3 6.7 1.1 13.3 3.4 19.6h-55.2zm132.5 0c-.1-30.6.3-61.2-.2-92.2 1.5 3.3 2.7 6.3 3.7 9.5 1.7 5.6 3.8 11.1 5.8 16.6 5.4 15.3 10.7 30.5 16 45.8 2.2 6.1 4.3 12.3 6.5 18.4.3.8.9 1.3 1.4 1.8-11.2.1-22.2.1-33.2.1zm54.7 0c2.5-4.7 3.7-9.9 5.4-14.9 5.8-16.5 11.5-33 17.2-49.5 2.6-7.4 5.1-14.8 7.7-22.2.5-1.3 1.1-2.6 1.6-3.9.2 0 .5.1.7.1v90.5c-10.9-.1-21.7-.1-32.6-.1z"/><path class="st1" d="M180.7 249.1c0 21.1 0 42.2.1 63.3 0 2.2-.6 2.8-2.8 2.8-7.9-.1-15.8-.1-23.8 0-2.3 0-2.7-.7-2.7-2.8.1-16 0-32 .1-48 0-2.2-.6-2.6-2.7-2.6-16.1.1-32.2.1-48.2 0-2.1 0-2.8.4-2.8 2.7.1 16 0 32 .1 48 0 2-.4 2.7-2.6 2.7-8.1-.2-16.2-.1-24.2 0-1.7 0-2.3-.3-2.3-2.2.1-42.4.1-84.8 0-127.2 0-1.6.3-2.2 2.1-2.2 8.3.1 16.6.1 25 0 1.7 0 2.1.5 2.1 2.2-.1 16.1 0 32.2-.1 48.2 0 2.1.5 2.7 2.6 2.7 16.1-.1 32.2-.1 48.2 0 2.4 0 2.8-.7 2.8-3-.1-15.8-.1-31.5-.1-47.3 0-3.3 0-3.3 3.4-3.3 7.9 0 15.8.1 23.8 0 1.7 0 2 .5 2 2.1-.1 21.3 0 42.6 0 63.9zm200 66c2.3-6.2 4.5-12 6.7-17.8 6.6-17.3 13.1-34.5 19.7-51.8l22.5-59.4c.6-1.7 1.6-2.6 3.5-2.6 8.6.1 17.3 0 25.9 0 1 0 1.7.1 2.2 1.3 3.3 9.2 6.8 18.3 10.2 27.5 5.4 14.4 10.7 28.8 16.1 43.2 6.1 16.3 12.3 32.6 18.4 48.9 1 2.7 2 5.4 3 8 .7 1.7.4 2.6-1.8 2.6-8.3-.1-16.6-.1-25 0-1.6 0-2.5-.6-3-2.1-2.4-7.3-5-14.6-7.4-22-1.6-5.1-1.4-5.1-6.8-5.1h-42.2c-2.1 0-2.9.7-3.5 2.6-2.7 8-5.6 15.9-8.3 23.9-.7 2.1-1.8 2.8-3.9 2.7-8.7.1-17.3.1-26.3.1zm64.8-99.3h-.6c-5.7 16.1-11.5 32.2-17.2 48.4h34.5c-5.6-16.2-11.2-32.3-16.7-48.4zm-152.9 33.6v-63.1c0-2 .3-2.7 2.5-2.7 29.2.1 58.4.1 87.6 0 2 0 2.8.3 2.7 2.6-.2 6.4-.1 12.8 0 19.2 0 1.8-.5 2.3-2.3 2.3-19-.1-38.1-.1-57.1 0-5.2 0-4.3-.6-4.3 4.3-.1 8 .1 16-.1 24 0 2 .6 2.6 2.6 2.5 16.9-.1 33.8 0 50.6-.1 2 0 2.5.6 2.5 2.5-.1 5.6 0 11.2 0 16.8 0 3.2 0 3.3-3.4 3.3h-49.7c-2 0-2.5.5-2.5 2.5.1 16.4 0 32.8.1 49.2 0 2-.4 2.7-2.6 2.7-8-.1-16-.2-24 0-2.2 0-2.6-.7-2.6-2.7v-63.3zm-56 12.6h-24.7c-1.5 0-2.1-.3-2.1-2 .1-7.1.1-14.2 0-21.3 0-1.6.5-2 2-2 16.5.1 32.9.1 49.4 0 1.6 0 2.2.4 2.2 2.1-.1 7-.1 14.1 0 21.1 0 1.7-.5 2.1-2.1 2.1h-24.7zm598-78.4c6.9 0 11.4 4.5 11.4 11.5 0 6-5.2 11.2-11.3 11.2-6.4 0-11.6-5.1-11.6-11.5.1-6.7 4.7-11.2 11.5-11.2zm9.7 11.3c.1-5.6-3.9-9.9-9.4-10-5.8-.1-10 4-10 9.8 0 5.5 4 9.9 9.1 10 6.1.1 10.3-3.8 10.3-9.8z"/><path class="st0" d="M571.1 243.1c-5.6 0-11.2-.1-16.8 0-1.6 0-1.9-.5-1.9-2 .1-11.2.1-22.4 0-33.6 0-1.6.4-2 2-2 10.1.1 20.3 0 30.4 0 12.6 0 18.4 5.6 18.9 18.2.4 10.2-4.1 16.5-13.5 18.9-1 .2-1.9.3-2.8.3-5.5.3-10.9.2-16.3.2zm-125.6-27.3c5.5 16.1 11.1 32.1 16.7 48.3h-34.5c5.8-16.2 11.5-32.3 17.2-48.4.2.1.4.1.6.1zm398.8-20.9c-.1 5.9-4.2 9.9-10.2 9.8-5.1-.1-9.1-4.5-9.1-10 0-5.8 4.2-9.9 10-9.8 5.4.2 9.4 4.4 9.3 10zm-3.9 6.3c-.9-1.4-1.7-2.7-2.6-3.9-.8-1.1-1.2-1.7.5-2.4s1.9-2.3 1.6-3.9c-.2-1.6-1.3-2.6-2.8-2.8-1.9-.2-3.8-.1-5.7-.2-.7 0-1 .4-1 1.1v11.5c0 .6.3.8.9.8.6 0 .8-.3.8-.9 0-1-.1-2.1 0-3.1.1-.6-.6-1.6.6-1.8.9-.1 2-.5 2.7.8.7 1.3 1.7 2.5 2.4 3.8.6 1.2 1.4 1.4 2.6 1z"/><path class="st1" d="M840.4 201.2c-1.3.4-2 .2-2.6-.9-.7-1.3-1.7-2.5-2.4-3.8-.7-1.3-1.8-.9-2.7-.8-1.1.1-.5 1.2-.6 1.8-.1 1 0 2.1 0 3.1 0 .6-.2.9-.8.9-.6 0-.9-.2-.9-.8v-11.5c0-.7.2-1.1 1-1.1 1.9 0 3.8 0 5.7.2 1.6.2 2.6 1.2 2.8 2.8.2 1.6 0 3.2-1.6 3.9-1.7.7-1.3 1.3-.5 2.4.9 1.1 1.7 2.4 2.6 3.8zm-5.5-11.8c-1.6-.3-3.1-.3-2.8 2.4.2 1.6.2 2.6 2.3 2.4 3.1-.2 4.2-.7 4.1-2.7-.1-2.2-1.8-2.2-3.6-2.1z"/><path class="st0" d="M834.9 189.4c1.9-.2 3.5-.2 3.6 2.2.1 1.9-1 2.5-4.1 2.7-2.1.1-2.1-.8-2.3-2.4-.3-2.8 1.1-2.7 2.8-2.5z"/></svg>