<svg id="Livello_1" xmlns="http://www.w3.org/2000/svg" viewBox="0 0 1619.1 263.4"><style>.st0{fill:#fefefe}.st1{fill:#003a5d}</style><path class="st0" d="M1193.1 75.3c1.9-.2 3.5-.2 3.6 2.2.1 1.9-1 2.5-4.1 2.7-2.1.1-2.1-.8-2.3-2.4-.3-2.8 1.2-2.8 2.8-2.5z"/><path class="st1" d="M43 75.8c.6-6.6 1-13 2-19.3.2-1 3.3-2.3 4.9-2.2 13.7 1 27.4 2.3 41.1 3.6 17.3 1.6 34.5 3.3 51.8 4.9 21.7 2.1 43.4 4.1 65.1 6.1l63 5.7c21 2 42 4.1 62.9 6 21 2 42 3.8 63 5.8 24.6 2.3 49.1 4.5 73.7 6.8l63 6c25.3 2.4 50.5 4.8 75.8 7.1 24.7 2.3 49.5 4.6 74.2 6.9 24.9 2.3 49.8 4.7 74.7 7.1 20.8 2 41.7 3.9 62.5 5.8 25.1 2.4 50.2 4.8 75.3 7.1 24.7 2.3 49.5 4.6 74.2 6.9 24.9 2.3 49.8 4.7 74.7 7.1 20.6 1.9 41.3 3.9 61.9 5.8 29.2 2.7 58.4 5.3 87.6 8 32.2 3 64.5 6.1 96.7 9.1 32.9 3.1 65.9 6.2 98.8 9.3 32.2 3 64.5 6 96.7 9 33.8 3.2 67.7 6.4 101.5 9.6.9.1 1.7.3 3.4.6-.6 6.4-1 12.8-1.9 19.1-.1.9-2.6 2.1-3.9 2-18.9-1.6-37.8-3.4-56.7-5.2-32.8-3.1-65.5-6.1-98.3-9.2-32.2-3-64.5-6-96.7-9.1-32.4-3-64.8-6.1-97.2-9.1-32.9-3.1-65.9-6.2-98.8-9.3-31.5-3-63-5.9-94.6-8.9-34-3.2-68-6.4-102.1-9.5-45.1-4.1-90.2-8.1-135.3-12.3-79.1-7.3-158.2-14.8-237.4-22.2-108.9-10.2-217.8-20.4-326.6-30.5-37.9-3.5-75.9-6.9-113.8-10.4-27.2-2.5-54.4-5.1-81.6-7.6-.8-.2-1.8-.4-3.6-.6z"/></svg>