<svg id="Livello_1" xmlns="http://www.w3.org/2000/svg" viewBox="0 0 914.9 498.7"><style>.st0{fill:#fefefe}.st1{fill:#fe141f}.st2{fill:#1f191a}</style><path class="st0" d="M547.4 135.7c-1 .6-2 .4-3.1.4h-30.9c-24.1 0-48.1 0-72.2.1-.5-.4-1-.8-1.4-1.2-4.4-4.4-8.8-8.8-13.1-13.4-1.9-2-3.8-2.2-6.2-1.2-4.1 1.7-8.3 3.1-12.4 4.8-1.4.6-2.4.2-3.5-.6-3.4-2.5-6.8-5-10.3-7.4-1.4-1-2-2-1.9-3.8.2-4.7.3-9.4.4-14.1 0-1.6-.3-3-1.9-3.8-9.9-5.4-20.1-10.1-30.8-13.8-1.9-.6-3.2-.2-4.5 1.1-3.4 3.5-6.9 6.9-10.3 10.4-.9.9-1.8 1.3-3 .8-4.1-1.7-8.6-2.1-13-2.9-2-.4-2.9-1.4-3.5-3-1.8-4.7-3.7-9.5-5.4-14.3-.3-.9-.7-1.2-1.5-1.1-5.8.1-11.4-1.2-17.2-1-6.1.3-12.3-.2-18.4.9-1.7.3-2.7.7-3.3 2.4-1.5 4.4-3.2 8.8-4.8 13.2-.6 1.6-1.4 2.6-3.3 2.9-3.8.6-7.5 1.5-11.2 2.4-2.4.6-4.3.3-6-1.6-2.8-3-6-5.8-8.8-8.8-1.7-1.8-3.4-2.2-5.5-1.3-1.7.7-3.4 1.3-5.1 2-8.7 3.5-17.4 7-25.4 11.9-1.4.8-1.8 1.8-1.8 3.3 0 4.7.2 9.4.9 14.1.3 1.8-.4 3-1.9 4-3.2 2.2-6.5 4.3-9.5 6.8-2.1 1.8-4 1.8-6.3.8-4.1-1.7-8.3-3.2-12.4-4.8-1.4-.6-2.6-.3-3.7.7-8.1 7.7-15.6 16-22.4 24.9-1.5 1.9-1.6 3.6-.4 5.6 2.1 3.7 3.9 7.4 6 11.1 1.1 2 1 3.7-.3 5.5-2.2 3.2-4.3 6.5-5.9 10.1-1 2.2-2.4 2.9-4.6 2.9-4.8.1-9.6.3-14.4.4-.8 0-1.3.1-1.8 1.1-4.5 10.7-8.2 21.6-11 32.9-.6 2.4-.1 3.8 1.8 5.3 3.6 2.7 6.9 5.6 10.4 8.4 1.2 1 1.9 2.1 1.6 3.7-.7 4.3-1.1 8.7-1.1 13.1 0 1.3-.8 2.3-2.1 2.9-4.3 2.2-8.6 4.6-12.9 6.7-1.7.8-2.2 1.9-2.2 3.7 0 6.2.2 12.4 1 18.7.7 5.6 1.7 11.2 2.9 16.7.2.7.4 1 1.2 1.2 5.1 1.2 10.1 2.6 15.2 3.9 1.3.3 2.4.9 2.8 2.3 1 4.5 2.5 8.9 4.1 13.2.5 1.3.4 2.3-.6 3.5-3.1 3.7-6 7.5-9.1 11.1-1.4 1.6-1.4 3-.6 4.8 4.8 9.8 10.1 19.3 16.3 28.3 1.5 2.1 3 2.6 5.4 2.3 4.2-.4 8.3-1.3 12.5-2 2-.4 3.6 0 4.9 1.7 2.6 3.4 5.5 6.5 8.5 9.4 1.2 1.1 1.1 2.4.8 3.8-1.1 4.3-2.1 8.6-3.4 12.9-.7 2.2-.3 3.8 1.4 5.3 8.4 7.5 17.8 13.8 27.3 19.8 1.3.8 2.4.7 3.8-.1 4-2.7 8.1-5.1 12-7.8 1.5-1.1 2.9-1.1 4.4-.3 3.9 2 7.9 3.7 12 5.3 1.1.4 2 1.1 2.1 2.4.2 4.9 2 9.5 2 14.4 0 1.7.7 2.9 2.6 3.4 7.6 2.2 15.1 4.2 22.9 5.6 3.6.7 7.2 1.3 10.9 1.4 1.9.1 3.2-.6 4.2-2.2 2.2-3.7 4.7-7.2 6.9-10.9 1.1-1.8 2.4-2.6 4.7-2.4 4 .3 8 .2 12 0 2-.1 3.1.5 4.1 2.1 2.4 3.9 4.9 7.6 7.3 11.5.9 1.4 2 2 3.6 1.9 3.2-.1 6.3-.7 9.5-1.2 8.2-1.4 16.3-3.1 24.3-5.8 1.6-.6 2.5-1.4 2.8-3.1.8-4.7 1.6-9.4 2.3-14.1.2-1.6.9-2.5 2.3-3 4-1.4 7.7-3.3 11.5-5.2 1.9-.9 3.4-.7 5.1.5 3.9 2.6 7.9 5.1 11.8 7.7 1.2.8 2.2.8 3.3.1 10-5.9 19.3-12.7 28.1-20.3 1.3-1.1 1.8-2.4 1.2-4-1.7-4.6-2.1-9.5-3.9-14-.5-1.2-.2-2.2.8-3.2 2.8-3 5.7-5.9 8.2-9.1 1.9-2.5 4.1-2.6 6.7-2 4.2.9 8.4 1.5 12.7 1.9 1.3.1 2.3-.3 3-1.5 2.4-3.5 4.7-7 7-10.6 1.7-2.7 2.8-5.7 5.1-8 .8 0 1.6.1 2.4.1h196.1c0 .5.2.9.1 1.4-1.5 8.8-1.2 17.5.6 26.1 2.8 13.4 8.6 25.4 17.8 35.7 10.4 11.7 23.2 19.4 38.4 23.4 12.8 3.4 25.6 3.4 38.2 0 22.2-6 38.6-19.4 49.1-39.9 4.3-8.3 6.9-17 7.7-26.3.6-6.8.2-13.5-.3-20.3 9.5 0 19 .1 28.6 0 12.2-.2 21.6-9.7 21.6-21.1V86.2c0-11.5-9.9-20.3-20.5-20.5-6-.1-12 0-18 0-4 0-4.3.3-4.3 4.4V157c0 1.3 0 2.6-.3 3.8-.7 2.9-2.5 4.9-5.5 5.7-6 1.4-10.8-2.4-10.8-8.7V68.3c0-2-.5-2.6-2.5-2.6-9.7.1-19.4.1-29 0-2.5 0-3 .6-3 3 .1 29.8.1 59.7.1 89.5 0 1.5-.1 3-.9 4.4-2.2 3.6-5.8 5-10.1 3.8-3.4-.9-5.4-4-5.4-8.1v-90c0-2.1-.5-2.7-2.7-2.7-9.6.1-19.2 0-28.8.1-3.4 0-3.1-.6-3.1 3.1v86.9c0 .8.1 1.6 0 2.4-.4 3.7-1.7 6.9-5.5 8.3-3.5 1.3-7.2.2-9.5-2.6-1.7-1.9-1.6-4.3-1.6-6.6V67.9c0-1.9-.6-2.2-2.3-2.2-9.4.1-18.7 0-28.1 0-4.2 0-4.5.3-4.5 4.5v89.3c-.5 4.9-4.6 8-9.4 7.3-4.3-.6-7.2-4.3-7.2-9.3v-89c0-1.7 0-2.7-2.3-2.7-23.6.1-47.2.1-70.8.1-1.6 0-3.2.1-4.7.6-8.7 2.5-16.4 10.9-16.1 22 .2 9.8.3 19.7-.1 29.5-.7-.8-1.2-1.6-1.7-2.5-3.6-7.1-7.2-14.2-11-21.2-5.3-9.9-10-20.1-15.5-29.9-.7-1.2-.5-2.2.9-2.9 2.2-1 4.3-2 6.4-3.2 4-2.3 8.6-3.5 11.9-7 2.8-3 3-6.4.4-9.7-2.5-3.2-6.4-4.3-9.8-2.5-16.6 8.5-33.1 17-49.7 25.5-4.2 2.1-5.9 6.6-4 10.4 2.1 4.4 6.6 6 11 3.8 5.1-2.5 10.2-5.2 15.3-7.8 1.6-.8 2.7-1.1 3.6 1.1.8 2.1 2.2 4 3.3 6.1 5.9 11.5 11.9 23.1 17.8 34.6 3.4 7.1 7.3 15 11.3 22.9z"/><path class="st0" d="M476.6 115.9c1.8 0 3.5.1 5.3 0 3.8-.1 7.4-3.9 7.5-7.6.2-5.7-3.2-9.1-9-8.9-6.1.2-12.1-.2-18-2-14.3-4.7-25.4-13.6-33.4-26.3-2.7-4.3-8.2-5.9-12-3.4-4.3 2.7-4.4 8.6-2.1 12.3 3.9 6.3 8.8 11.7 14.2 16.7 13.4 12.3 29.2 18.9 47.5 19.2z"/><path class="st1" d="M661.9 344.8H465.8c-.8 0-1.6 0-2.4-.1-.1-.5 0-.9.2-1.4 1.6-3.2 3-6.4 4.8-9.5 1-1.8.7-3.1-.5-4.5-2.9-3.5-5.8-7.1-8.7-10.7-1-1.2-1.6-2.2-.9-4.2 1.5-4.4 3.4-8.8 4.1-13.4.2-1.2 1-1.3 1.8-1.5 4.3-1.1 8.6-2.2 12.9-3.2 4-.9 4-.9 4.8-4.9.8-4.1 1.4-8.1 1.9-12.3.8-7.1 1.6-14.1 1.6-21.2 0-1.3-.5-2.1-1.6-2.6-4.6-2.3-9.2-4.7-13.9-6.9-1.3-.6-1.8-1.4-1.7-2.8.3-4.4-.9-8.7-1.2-13.1-.2-1.9.4-2.9 1.7-4 3.5-2.8 6.9-5.6 10.4-8.4 1.5-1.2 2.2-2.5 1.7-4.5-1.3-5.8-2.9-11.5-4.7-17.2-1.8-5.4-4.1-10.7-6-16.1-.4-1.1-1.1-1.3-2-1.3-5.1.2-10.2-.9-15.3-.9-1.7 0-2.8-.6-3.5-2-2.1-4.2-4.6-8.2-7.1-12.2-.5-.8-.6-1.6-.1-2.5 2.5-4.3 4.3-9 6.9-13.2 1-1.6.9-2.8-.3-4.3-2.5-3.4-5.6-6.3-7.6-10 24.1 0 48.1 0 72.2-.1h30.9c1 0 2.1.2 3.1-.4 2.5.4 5.1.1 7.6.2 1.3.1 1.7-.6 1.6-1.7-.1-5.7-.1-11.3-.1-17 .4-9.8.4-19.7.1-29.5-.3-11.2 7.4-19.6 16.1-22 1.6-.4 3.1-.6 4.7-.6 23.6 0 47.2 0 70.8-.1 2.3 0 2.3 1 2.3 2.7v89c0 5 2.9 8.7 7.2 9.3 4.8.7 8.9-2.4 9.4-7.3.1-1 0-1.9 0-2.9V69.1c0-4.2.3-4.5 4.5-4.5h28.1c1.7 0 2.3.3 2.3 2.2-.1 29.8-.1 59.5 0 89.3 0 2.3-.1 4.6 1.6 6.6 2.4 2.8 6.1 3.9 9.5 2.6 3.8-1.4 5.1-4.6 5.5-8.3.1-.8 0-1.6 0-2.4V67.7c0-3.6-.3-3.1 3.1-3.1 9.6 0 19.2.1 28.8-.1 2.2 0 2.7.6 2.7 2.7-.1 30 0 60 0 90 0 4.1 2.1 7.1 5.4 8.1 4.3 1.2 8-.2 10.1-3.8.8-1.4.9-2.9.9-4.4 0-29.8 0-59.7-.1-89.5 0-2.4.6-3.1 3-3 9.7.2 19.4.1 29 0 2 0 2.5.6 2.5 2.6-.1 29.8 0 59.7 0 89.5 0 6.3 4.8 10.2 10.8 8.7 3-.7 4.8-2.8 5.5-5.7.3-1.2.3-2.5.3-3.8V69c0-4.1.3-4.4 4.3-4.4 6 0 12-.1 18 0 10.6.2 20.5 9.1 20.5 20.5v238.1c0 11.3-9.4 20.8-21.6 21.1-9.5.2-19 0-28.6 0-.2-.4-.4-.7-.5-1.1-1.2-6.3-3.2-12.3-5.8-18.1-4.7-10.7-11.7-19.6-20.5-27-7.7-6.6-16.5-11.5-26.4-14.3-6-1.7-11.9-3.5-18.2-3.3-5.5.1-11-.2-16.5.8-5.6 1.1-11.3 2.2-16.5 4.5-11.2 4.7-21 11.4-29 20.7-6.2 7.3-11.1 15.3-14.3 24.3-1.1 5-2.1 9.6-3.5 14z"/><path class="st2" d="M441.3 136.2c2 3.7 5.1 6.6 7.6 10 1.2 1.5 1.3 2.8.3 4.3-2.7 4.2-4.5 8.9-6.9 13.2-.5.9-.4 1.7.1 2.5 2.5 4 5 8 7.1 12.2.7 1.4 1.8 2 3.5 2 5.1 0 10.1 1.1 15.3.9.9 0 1.6.2 2 1.3 2 5.4 4.2 10.7 6 16.1 1.8 5.6 3.4 11.4 4.7 17.2.5 2.1-.2 3.3-1.7 4.5-3.5 2.8-6.9 5.6-10.4 8.4-1.3 1-1.8 2.1-1.7 4 .3 4.4 1.5 8.7 1.2 13.1-.1 1.4.5 2.1 1.7 2.8 4.7 2.2 9.3 4.6 13.9 6.9 1.1.6 1.6 1.3 1.6 2.6.1 7.1-.8 14.2-1.6 21.2-.5 4.1-1 8.2-1.9 12.3-.8 4-.8 4-4.8 4.9-4.3 1-8.6 2.1-12.9 3.2-.8.2-1.7.3-1.8 1.5-.7 4.7-2.5 9-4.1 13.4-.7 1.9-.1 2.9.9 4.2 2.9 3.6 5.8 7.1 8.7 10.7 1.2 1.4 1.5 2.8.5 4.5-1.8 3.1-3.2 6.3-4.8 9.5-.2.5-.3.9-.2 1.4-2.3 2.3-3.4 5.3-5.1 8-2.3 3.6-4.6 7.1-7 10.6-.8 1.1-1.7 1.6-3 1.5-4.3-.4-8.5-1-12.7-1.9-2.7-.6-4.8-.4-6.7 2-2.5 3.2-5.4 6.1-8.2 9.1-.9 1-1.3 2-.8 3.2 1.8 4.5 2.2 9.4 3.9 14 .6 1.6.1 2.9-1.2 4-8.8 7.6-18.1 14.4-28.1 20.3-1.1.7-2.1.7-3.3-.1-3.9-2.6-7.9-5.1-11.8-7.7-1.7-1.1-3.3-1.4-5.1-.5-3.8 1.9-7.5 3.8-11.5 5.2-1.4.5-2 1.4-2.3 3-.6 4.7-1.5 9.4-2.3 14.1-.3 1.7-1.2 2.5-2.8 3.1-7.9 2.7-16 4.5-24.3 5.8-3.1.5-6.3 1.2-9.5 1.2-1.6 0-2.7-.6-3.6-1.9-2.4-3.8-4.9-7.6-7.3-11.5-1-1.6-2.1-2.2-4.1-2.1-4 .2-8 .3-12 0-2.3-.2-3.6.6-4.7 2.4-2.2 3.7-4.7 7.2-6.9 10.9-1 1.6-2.3 2.3-4.2 2.2-3.7-.1-7.3-.7-10.9-1.4-7.7-1.4-15.3-3.5-22.9-5.6-1.9-.5-2.6-1.7-2.6-3.4 0-4.9-1.8-9.5-2-14.4-.1-1.3-1-1.9-2.1-2.4-4.1-1.6-8.1-3.2-12-5.3-1.5-.8-2.9-.8-4.4.3-3.9 2.7-8.1 5.1-12 7.8-1.3.9-2.5.9-3.8.1-9.5-6-18.9-12.2-27.3-19.8-1.7-1.5-2.1-3.1-1.4-5.3 1.3-4.3 2.3-8.6 3.4-12.9.3-1.3.4-2.6-.8-3.8-3-3-5.9-6.1-8.5-9.4-1.3-1.7-2.9-2-4.9-1.7-4.2.7-8.3 1.6-12.5 2-2.4.2-4-.2-5.4-2.3-6.3-9-11.5-18.5-16.3-28.3-.9-1.8-.8-3.2.6-4.8 3.1-3.6 6-7.5 9.1-11.1 1-1.2 1.1-2.2.6-3.5-1.7-4.3-3.1-8.7-4.1-13.2-.3-1.4-1.4-2-2.8-2.3-5.1-1.3-10.1-2.6-15.2-3.9-.8-.2-1-.4-1.2-1.2-1.2-5.5-2.1-11.1-2.9-16.7-.8-6.2-1-12.4-1-18.7 0-1.8.5-2.9 2.2-3.7 4.4-2.1 8.6-4.5 12.9-6.7 1.3-.6 2.1-1.6 2.1-2.9 0-4.4.3-8.7 1.1-13.1.3-1.6-.4-2.7-1.6-3.7-3.5-2.8-6.9-5.7-10.4-8.4-1.9-1.5-2.4-2.9-1.8-5.3 2.8-11.3 6.4-22.2 11-32.9.4-1 1-1.1 1.8-1.1 4.8-.1 9.6-.3 14.4-.4 2.2 0 3.7-.7 4.6-2.9 1.6-3.5 3.7-6.9 5.9-10.1 1.3-1.8 1.4-3.6.3-5.5-2-3.7-3.9-7.5-6-11.1-1.2-2.1-1.1-3.7.4-5.6 6.8-8.9 14.3-17.2 22.4-24.9 1.1-1.1 2.3-1.3 3.7-.7 4.1 1.6 8.3 3.1 12.4 4.8 2.4 1 4.2 1 6.3-.8 3-2.5 6.3-4.7 9.5-6.8 1.5-1 2.2-2.2 1.9-4-.8-4.7-.9-9.4-.9-14.1 0-1.5.4-2.4 1.8-3.3 8.1-4.9 16.8-8.4 25.4-11.9 1.7-.7 3.4-1.3 5.1-2 2.2-.9 3.9-.5 5.5 1.3 2.8 3 6 5.8 8.8 8.8 1.8 1.9 3.7 2.2 6 1.6 3.7-.9 7.4-1.9 11.2-2.4 1.9-.3 2.8-1.3 3.3-2.9 1.6-4.4 3.3-8.8 4.8-13.2.6-1.7 1.6-2.1 3.3-2.4 6.1-1.1 12.3-.6 18.4-.9 5.8-.2 11.5 1.1 17.2 1 .8 0 1.2.3 1.5 1.1 1.7 4.8 3.6 9.5 5.4 14.3.6 1.6 1.5 2.6 3.5 3 4.3.9 8.8 1.2 13 2.9 1.2.5 2.1.1 3-.8 3.4-3.5 6.9-6.9 10.3-10.4 1.3-1.4 2.6-1.8 4.5-1.1 10.7 3.6 20.9 8.4 30.8 13.8 1.6.8 2 2.2 1.9 3.8-.1 4.7-.2 9.4-.4 14.1-.1 1.7.5 2.8 1.9 3.8 3.5 2.4 6.9 4.9 10.3 7.4 1.1.8 2.1 1.2 3.5.6 4.1-1.7 8.3-3.1 12.4-4.8 2.4-1 4.3-.9 6.2 1.2 4.3 4.6 8.7 8.9 13.1 13.4.7.6 1.2.9 1.7 1.4zm-36.4 120.4c.9-58.1-47.2-104.3-103-105.1-58.7-.9-108.7 46.5-107.2 108 1.3 55.2 47.6 102.5 105.6 102.3 57.8-.2 105.5-47.9 104.6-105.2zm257 88.2c1.4-4.5 2.3-9.1 3.9-13.5 3.2-9.1 8.1-17.1 14.3-24.3 8-9.3 17.8-16 29-20.7 5.3-2.2 10.9-3.3 16.5-4.5 5.5-1.1 11-.7 16.5-.8 6.3-.1 12.3 1.7 18.2 3.3 9.8 2.8 18.6 7.7 26.4 14.3 8.8 7.5 15.8 16.3 20.5 27 2.6 5.9 4.6 11.9 5.8 18.1.1.4.3.7.5 1.1.5 6.8.9 13.5.3 20.3-.8 9.3-3.4 18.1-7.7 26.3-10.5 20.5-27 33.9-49.1 39.9-12.6 3.4-25.5 3.4-38.2 0-15.1-4-28-11.7-38.4-23.4-9.1-10.3-14.9-22.2-17.8-35.7-1.8-8.7-2.1-17.4-.6-26.1.1-.3 0-.8-.1-1.3zm75.6 48.6c17.9 1.3 37-15.2 36.5-37.1-.4-19-17.6-35.5-36.6-35.3-19.4.2-35.9 17-36.2 35.7-.2 19.6 16.7 37.7 36.3 36.7zm-181-276.2c0 5.7.1 11.3.1 17 0 1.2-.3 1.8-1.6 1.7-2.5-.1-5.1.2-7.6-.2-4-7.9-7.9-15.8-11.9-23.7-5.9-11.6-11.8-23.1-17.8-34.6-1.1-2.1-2.5-3.9-3.3-6.1-.8-2.2-2-1.9-3.6-1.1L495.5 78c-4.5 2.2-8.9.6-11-3.8-1.8-3.9-.1-8.3 4-10.4 16.6-8.5 33.1-17 49.7-25.5 3.4-1.7 7.3-.7 9.8 2.5 2.5 3.3 2.4 6.8-.4 9.7-3.3 3.5-7.9 4.7-11.9 7-2.1 1.2-4.2 2.2-6.4 3.2-1.4.7-1.6 1.7-.9 2.9 5.6 9.8 10.3 20 15.5 29.9 3.7 7 7.4 14.1 11 21.2.4.9 1 1.8 1.6 2.5zm-79.9-1.3c-18.3-.3-34.1-6.9-47.5-19.3-5.4-5-10.3-10.4-14.2-16.7-2.3-3.7-2.2-9.6 2.1-12.3 3.8-2.4 9.3-.8 12 3.4 8 12.8 19.1 21.6 33.4 26.3 5.8 1.9 11.9 2.2 18 2 5.9-.2 9.2 3.2 9 8.9-.1 3.8-3.8 7.5-7.5 7.6-1.8.1-3.5.1-5.3.1z"/><path class="st0" d="M404.9 256.6c.9 57.4-46.8 105-104.7 105.2-58 .2-104.3-47.1-105.6-102.3-1.4-61.5 48.6-108.8 107.2-108 55.9.7 104 47 103.1 105.1zm-156.5-.1c-1 28.1 23.8 51.9 50.6 52.5 30.2.6 53.3-24.1 54-51.3.7-29.1-24.6-53.5-52.4-53.5-29 0-53.3 25.1-52.2 52.3zm489.1 136.9c-19.7 1-36.6-17.1-36.3-36.7.3-18.8 16.7-35.5 36.2-35.7 19.1-.2 36.2 16.2 36.6 35.3.5 21.9-18.5 38.5-36.5 37.1z"/><path class="st2" d="M248.4 256.5c-1.1-27.2 23.2-52.3 52.2-52.3 27.8-.1 53.1 24.4 52.4 53.5-.7 27.3-23.8 51.9-54 51.3-26.8-.6-51.6-24.4-50.6-52.5z"/></svg>