<svg baseProfile="basic" id="Livello_1" xmlns="http://www.w3.org/2000/svg" viewBox="0 0 1656 328.4"><style>.st0{fill:#fefefe}.st1{fill:#1f191a}.st2{fill:#1a428a}</style><path class="st0" d="M704 262.5c0-11 0-22.2.2-33.2 0-.8-.1-1.2-1-1.1-4.1.1-8.2-.1-12.3 0-1.7 0-1.8 0-1.8 1.7-.1 8.2-.1 16.4 0 24.6 0 1.1-.3 1.5-1.5 1.5-8.3-.1-16.8-.1-25.1-.1-1.1 0-1.3-.3-1.3-1.4.1-8.3 0-16.8.2-25.1 0-.9-.2-1.2-1.1-1.1-4.3.1-8.6.1-13.1 0-.9 0-1.1.4-1.1 1.1 0 22.1-.2 44.2-.2 66.3 0 1 .4 1.2 1.2 1.2 4.2-.1 8.4 0 12.7.1 1.1 0 1.4-.3 1.4-1.4 0-8.3 0-16.7.1-25 0-1.2.4-1.4 1.5-1.4 8.3.1 16.8.1 25.1.1 1 0 1.4.2 1.4 1.4-.1 8.3 0 16.7-.2 25 0 1.1.2 1.5 1.4 1.5 4.1-.1 8.2 0 12.3 0 1.1 0 1.5-.2 1.5-1.4-.4-11.3-.3-22.3-.3-33.3zm104.1 34.8c4.7 0 9.1 0 13.7.1 1.1 0 1.7-.3 2.1-1.4 1.4-4.1 3-8.3 4.4-12.4.3-1 .8-1.4 1.8-1.4 7.3.1 14.7.1 22 .1 2.7.1 2.7 0 3.6 2.7 1.1 3.8 2.5 7.6 3.8 11.5.3.8.7 1.1 1.6 1.1 4.3-.1 8.6-.1 13.1 0 1.1 0 1.3-.4 1-1.4-.5-1.4-1.1-2.8-1.6-4.2-3.2-8.5-6.3-17-9.5-25.5-2.8-7.5-5.6-15.1-8.3-22.6-1.7-4.8-3.6-9.5-5.3-14.4-.2-.6-.6-.7-1.2-.7h-13.5c-1 0-1.5.4-1.8 1.4-3.9 10.3-7.9 20.6-11.8 30.9-3.5 9-6.9 18-10.4 26.9-1.3 3-2.4 6.1-3.7 9.3zm-45.7-34.4c0 10.9-.1 21.9-.1 32.8 0 1 .2 1.4 1.3 1.4 4.2-.1 8.3 0 12.5.1 1.1 0 1.4-.3 1.4-1.4-.1-8.5.1-17.1 0-25.6 0-1 .3-1.3 1.3-1.3 8.6 0 17.3.1 25.9.1 1.8 0 1.8 0 1.8-1.7v-8.7c0-1-.2-1.3-1.3-1.3-8.8 0-17.6 0-26.4-.1-1 0-1.3-.3-1.3-1.3 0-4.1.1-8.3.1-12.5 0-2.5-.5-2.3 2.2-2.2 9.9 0 19.9 0 29.7.1.9 0 1.2-.2 1.2-1.2 0-3.3-.1-6.6 0-10 .1-1.1-.3-1.4-1.4-1.4-15.3 0-30.4-.1-45.6-.2-1.2 0-1.4.4-1.3 1.4.1 11 0 22 0 33zm282.5-33.3c-3.6 0-6 2.3-6 5.9 0 3.3 2.6 6 6.1 6 3.2 0 5.9-2.7 5.9-5.8-.1-3.7-2.4-6.1-6-6.1z"/><path class="st1" d="M952.1 298c.1-22.6.2-45.2.2-67.7 0-.9.2-1.3 1.3-1.3 6.3 0 12.6.1 18.9 0 1 0 1.6.3 1.9 1.3 3.4 10.3 6.8 20.7 10.4 31 1.6 4.6 3 9.2 4.6 13.7.1.3.1.5.5.8 1.1-1.4 1.2-3.1 1.7-4.8 2.4-7.1 4.7-14.3 7-21.4 1.7-5.1 3.3-10.1 4.9-15.2.4-1.3.9-2.8 1.3-4.1.3-.9.8-1.3 1.8-1.3 6.3 0 12.6.1 18.9 0 1 0 1.2.3 1.2 1.3-.1 14.1-.1 28.1-.2 42.2 0 8.5-.1 17.1-.1 25.6h-14.5c.1-15.8.1-31.4.1-47.1-.1 0-.3-.1-.4-.1-.2.7-.6 1.4-.8 2-1.4 3.8-2.7 7.7-4.1 11.5l-9 25.8c-1 2.6-1.5 5.3-2.8 7.8h-11.2c-.2-.3-.6-.6-.7-.9-1.1-3.2-2.2-6.4-3.4-9.6-2.8-8-5.5-15.9-8.2-23.9-1-2.8-2.1-5.7-3-8.7-.5-1.7-1.1-3.3-1.9-4.9.2 16.1-.1 32.1 0 48-4.8.1-9.6.1-14.4 0zm-70-.2c.1-22.6.2-45.2.2-67.8 0-1 .3-1.1 1.2-1.1 12.6.1 25.2 0 37.8.2 7.4.1 14.7 4.4 17.3 11.9 2.3 6.5 1.9 12.9-2.1 18.7-1.4 2.1-3.5 3.7-5.8 4.8-.4.2-1 .3-1 .8 0 .6.7.5 1.1.7 3.1 1.3 5.1 3.8 6.3 6.9 1.4 3.4 1.6 6.9 1.8 10.4.2 4.5.2 9 2.1 13.3.2.4.1.9.1 1.4-4.9-.1-9.8 0-14.8-.1-1.2-3.3-1.6-6.7-1.7-10.2-.1-3.3-.4-6.7-1.4-9.9-1-3.7-4.1-6.7-8.8-6.6-5.2.1-10.4 0-15.7 0-1 0-1.2.3-1.2 1.2.1 8.5-.1 17.1-.1 25.6-5-.2-10.2-.1-15.3-.2zm25.3-37.7c2.8.1 5.7 0 8.5 0 .5 0 1 0 1.5-.1 4.9-1.2 7.2-4.6 7.1-9.9-.3-6.6-3.3-9.4-9.8-9.5-5.2 0-10.5-.1-15.9-.1-.8 0-1.1.2-1 1 0 5.8 0 11.6-.1 17.5 0 .8.2 1.1 1 1 2.9.2 5.8.1 8.7.1z"/><path class="st0" d="M897.5 297.9c0-8.5.1-17.1.1-25.6 0-.9.2-1.2 1.2-1.2 5.2 0 10.5.2 15.7 0 4.7 0 7.8 2.9 8.8 6.6.9 3.2 1.2 6.6 1.4 9.9.1 3.5.5 7 1.7 10.2-9.7.2-19.2.1-28.9.1zm69.1.2c0-16 .3-31.8 0-48 .8 1.7 1.4 3.3 1.9 4.9.9 2.9 1.9 5.8 3 8.7 2.8 8 5.5 15.9 8.2 23.9 1.1 3.2 2.2 6.4 3.4 9.6.1.4.5.7.7.9h-17.2zm28.5.1c1.3-2.4 1.9-5.2 2.8-7.8 3-8.6 6.1-17.2 9-25.8 1.4-3.8 2.7-7.7 4.1-11.5.2-.7.6-1.4.8-2 .1 0 .3.1.4.1-.1 15.8-.1 31.4-.1 47.1-5.7-.1-11.3-.1-17-.1z"/><path class="st1" d="M704 262.5c0 10.9-.1 22-.1 32.9 0 1.1-.3 1.4-1.5 1.4-4.1 0-8.2-.1-12.3 0-1.2 0-1.4-.4-1.4-1.5.1-8.3 0-16.7.2-25 0-1.1-.3-1.4-1.4-1.4-8.4 0-16.8 0-25.1-.1-1.1 0-1.5.2-1.5 1.4 0 8.3 0 16.7-.1 25 0 1-.2 1.4-1.4 1.4-4.2-.1-8.4-.1-12.7-.1-.9 0-1.2-.2-1.2-1.2.1-22.1.2-44.2.2-66.3 0-.8.2-1.1 1.1-1.1 4.3.1 8.6 0 13.1 0 .9 0 1.1.3 1.1 1.1-.1 8.3 0 16.8-.2 25.1 0 1.1.2 1.4 1.3 1.4 8.4 0 16.8 0 25.1.1 1.2 0 1.5-.3 1.5-1.5v-24.6c0-1.7 0-1.7 1.8-1.7 4.1 0 8.2.1 12.3 0 .9 0 1 .3 1 1.1.3 11.4.3 22.5.2 33.6zm104.1 34.8c1.2-3.2 2.4-6.2 3.5-9.2 3.5-9 6.9-18 10.4-26.9 3.9-10.3 7.9-20.6 11.8-30.9.3-.9.9-1.4 1.8-1.4 4.5.1 9 0 13.5 0 .5 0 .9 0 1.2.7 1.7 4.8 3.5 9.5 5.3 14.4 2.8 7.5 5.6 15.1 8.3 22.6 3.2 8.5 6.3 17 9.5 25.5.5 1.4 1.1 2.8 1.6 4.2.4.9.2 1.4-1 1.4-4.3-.1-8.6 0-13.1 0-.8 0-1.3-.3-1.6-1.1-1.2-3.8-2.6-7.6-3.8-11.5-.8-2.6-.7-2.6-3.6-2.7-7.3-.1-14.7-.1-22-.1-1.1 0-1.5.3-1.8 1.4-1.4 4.1-3 8.3-4.4 12.4-.4 1.1-1 1.5-2.1 1.4-4.3-.2-8.8-.2-13.5-.2zm34-51.6h-.3l-9 25.2c6 .1 12 0 18 .1-3-8.6-5.9-17-8.7-25.3zm-79.7 17.2c0-10.9.1-21.9.1-32.8 0-1 .2-1.4 1.3-1.4 15.2.2 30.4.2 45.6.2 1 0 1.4.2 1.4 1.4-.1 3.3-.1 6.6 0 10 0 .9-.3 1.2-1.2 1.2-9.9-.1-19.9-.1-29.7-.1-2.7 0-2.2-.3-2.2 2.2 0 4.1 0 8.3-.1 12.5 0 1 .3 1.4 1.3 1.3 8.8 0 17.6 0 26.4.1 1 0 1.3.3 1.3 1.3v8.7c0 1.7 0 1.7-1.8 1.7-8.6 0-17.3-.1-25.9-.1-1 0-1.3.2-1.3 1.3.1 8.5-.1 17.1 0 25.6 0 1-.2 1.4-1.4 1.4-4.1 0-8.3-.2-12.5-.1-1.1 0-1.3-.4-1.3-1.4-.2-11.1-.1-22.1 0-33zm-29.2 6.4c-4.3 0-8.6 0-12.9-.1-.8 0-1.1-.2-1.1-1 .1-3.7 0-7.4 0-11 0-.8.3-1 1-1 8.6 0 17.2.1 25.7.1.8 0 1.1.2 1.1 1.1-.1 3.6-.1 7.3 0 10.9 0 .9-.3 1.1-1.1 1.1-4.2 0-8.4-.1-12.7-.1zm311.7-39.7c3.6 0 5.9 2.4 6 6 0 3.1-2.7 5.9-5.9 5.8-3.3 0-6.1-2.7-6.1-6 0-3.4 2.4-5.7 6-5.8zm5 5.9c0-2.9-2-5.1-4.9-5.2-3 0-5.2 2.1-5.3 5.1 0 2.9 2.1 5.1 4.7 5.2 3.3.1 5.5-2 5.5-5.1z"/><path class="st0" d="M1049.9 235.5c0 3.1-2.3 5.1-5.4 5.1-2.6-.1-4.7-2.4-4.7-5.2 0-3 2.3-5.1 5.3-5.1 2.8.2 4.9 2.3 4.8 5.2zm-2.1 3.3c-.5-.8-.9-1.4-1.4-2-.5-.6-.6-.9.3-1.2.9-.4 1-1.2.8-2-.1-.8-.6-1.4-1.4-1.5-1-.1-2 0-2.9-.1-.4 0-.5.2-.6.6 0 2 0 4-.1 6 0 .3.1.4.4.5.3 0 .4-.1.5-.4 0-.5-.1-1.1 0-1.6.1-.3-.3-.9.3-.9.5 0 1.1-.3 1.4.4.4.7.9 1.3 1.3 2 .4.3.8.5 1.4.2z"/><path class="st1" d="M1047.8 238.8c-.7.2-1 .1-1.3-.5-.4-.7-.9-1.3-1.3-2s-.9-.5-1.4-.4c-.6.1-.2.6-.3.9-.1.5 0 1.1 0 1.6 0 .3-.1.5-.5.4-.3 0-.5-.1-.4-.5 0-2 0-4 .1-6 0-.4.1-.6.6-.6 1 0 2 0 2.9.1.8.1 1.4.6 1.4 1.5.1.8 0 1.7-.8 2-.9.4-.6.7-.3 1.2.5.9.8 1.6 1.3 2.3zm-2.9-6.2c-.8-.1-1.6-.2-1.5 1.2.1.8.1 1.4 1.2 1.3 1.6-.1 2.2-.4 2.2-1.4 0-1.1-.9-1-1.9-1.1z"/><path class="st0" d="M1044.9 232.6c1-.1 1.8-.1 1.9 1.1.1 1-.5 1.2-2.2 1.4-1.1.1-1.1-.4-1.2-1.3-.1-1.3.7-1.3 1.5-1.2z"/><path class="st2" d="M65.7 206.7c0-6.6-.2-13 .3-19.4.1-1 3.1-2.6 4.7-2.6 13.7-.2 27.5-.1 41.3-.1l52 .3c21.8.2 43.6.2 65.4.3 21.1 0 42.2.1 63.3.1 21.1.1 42.2.4 63.2.4 21.1.1 42.2.1 63.3.2 24.7.1 49.3.1 74 .2 21.1.1 42.2.3 63.3.4 25.4.1 50.7.3 76.1.4l74.5.3c25 .1 50 .3 75 .5 20.9.1 41.9.2 62.8.2 25.2.2 50.4.3 75.6.4l74.5.3c25 .1 50 .3 75 .5l62.2.3c29.3.1 58.6.1 88 .2 32.3.1 64.8.4 97.1.5 33 .2 66.2.3 99.2.5 32.3.1 64.8.3 97.1.4l102 .6c.9 0 1.7.1 3.4.3 0 6.4.1 12.8-.2 19.2 0 .9-2.4 2.3-3.7 2.3-19 .1-38 0-56.9-.2-32.9-.2-65.8-.3-98.7-.5-32.3-.1-64.8-.3-97.1-.5-32.5-.1-65.1-.3-97.6-.5-33-.2-66.2-.3-99.2-.5-31.6-.2-63.3-.3-95-.5-34.1-.2-68.3-.3-102.5-.4-45.3-.1-90.6-.1-135.9-.3-79.4-.3-158.9-.7-238.4-1.1-109.4-.5-218.8-1-328-1.4-38.1-.1-76.2-.1-114.3-.3-27.3-.1-54.6-.3-82-.3-1 0-2-.2-3.8-.2z"/></svg>