<svg id="Livello_1" xmlns="http://www.w3.org/2000/svg" viewBox="0 0 313.5 421.5"><style>.st0{fill:none;stroke:#f3352f;stroke-width:3;stroke-linecap:round;stroke-miterlimit:10;stroke-dasharray:0,9}.st1{fill-rule:evenodd;clip-rule:evenodd}.st1,.st2{fill:#00295a}.st3{fill:#fff}</style><path class="st0" d="M169.8 33.8c64.7 0 117.1 52.4 117.1 117.1S234.5 268 169.8 268 52.7 215.7 52.7 151 105.1 33.8 169.8 33.8z"/><path class="st1" d="M187 262.6c35.5 9.5 56.5 46 47 81.5s-46 56.5-81.5 47-56.5-46-47-81.5c9.5-35.4 46-56.5 81.5-47z"/><path class="st2" d="M183.1 249.3h-.4c-3.3.1-4.6-.2-4.8-2.7-.2-2.3-.5-5.1-.2-7.2.3-2 .1-6.5-.2-7-.1-.3-.5-1.8-.9-3.6-.4-1.9-1-4-1.2-4.6-.4-1 .3-6.1.9-7 .1-.3.4-.4.5-.7.5-.6 1.2-1.4.8-2.1-.5-1-1.7-5-1.2-8.9.5-3.8.7-10.4.4-11.4-.1-.4-.1-.8 0-1.4.1-.8.2-1.6-.4-2.4-.9-1.2-1-2.6-1.1-3.8v-.3c-.1-.5-.3-2.1-.6-3.6-.3-1.6-.6-3.3-.7-3.9 0-.3-.1-1.3-.2-2.6-.2-3.2-.5-8.6-.8-11.9-.1-1.2-.3-3.1-.5-5.2-.5-4.8-1.2-11.8-1.5-13-.2.6-.5 2.5-.7 4.3-.3 1.9-.6 4-.9 5.3-.3 1-.6 2-1 3-.6 1.7-1.1 3.2-1 4.5.3 3.7.3 6-.2 7-.6 1.1-1.2 2.4-.8 4.1.3 1.6.2 2.7-.2 2.9-.3.2-.6.6-.8.8.3.2 1.2 1.2 1.3 2.7.2 1.7 1.6 8.6 3 12.2 1.3 3.6 5 16.6 4.9 19.8s-.5 9.3-.6 9.9c0 .2 0 .3.1.6s.3.8.4 1.9c0 .4.1.7.1 1 .2 1.4.3 2.1.5 2.6.1.3.2.7.4 1.2.3.9.7 2.4 1.1 3.3.6 1.4 1.5 5.2.2 6.1-.6.4-2.8 1.7-5.9 1.9-.2.1-.4 0-.5 0h-.9c-.5 0-1 0-1.5.1-1.3.1-2.5.4-5.1 1.8-2.2 1.2-6.4 3.1-9.8 3.4-1.3.1-2.5-.1-3.3-.6-2.9-1.6-3.9-4-3.1-5.4.6-1.3 2.8-2.3 4.4-2.9 1.4-.5 3.7-1.3 5.5-3.2 1.6-1.5 3-3.5 3.4-4-.1-.1-.3-.2-.4-.5-.1-.3 0-.6.2-1 .2-.3.4-.6.7-.9.3-.3.7-.7.6-1-.1-.2-.2-.3-.5-.5-1.4-.8-3.1-5.2-2.9-7.5.1-.8.1-1.7.3-2.8.2-2.2.4-4.7.3-5.4 0-.4-1-3.8-2-7.3-1.6-5.5-3.3-11.8-3.3-12.5.1-1.2-.1-2-.6-2.2-.5-.3-1.2-3.8-1-4.5.2-.6 0-1.4-.6-2.6-.1-.3-.3-.4-.4-.7-.6-1.1-1.4-2.4-1.3-4.5 0-1.2.1-3.6.3-6.2.1-3.4.2-7.3.4-8.7.1-1 .2-2.9.2-5.2.1-3.4.2-7.4.4-8.9.3-2.3.3-8.2.3-8.8-.3-.3-1.8-2-1.8-2.7 0-.9.3-2 .5-3.4s.5-3.1.9-5.2c.5-3.8.9-7.8 1-10.2.2-3.9 1.2-10.5 1.4-11.4-.9 0-5.6-.5-7.4-.8-1.9-.4-2.6-1.3-3.2-3.3-.2-.9-.4-1.7-.5-2.4-.1-1-.3-1.9-.7-2.3-.6-.8.1-3.1.6-3.9.1-.3.4-.4.5-.6.5-.5.8-1 1.1-2.5.5-2.2 1.9-6.7 2.3-7.2.2-.3.7-1.1.5-1.6-.1-.3.1-.8.4-1.6.3-.6.6-1.4.5-1.8 0-.4.1-.8.2-1.1.2-.5.3-1 .2-1.6 0-.6.3-1.7.6-2.8.3-1 .6-1.9.6-2.3-.2-.9 0-2.3.6-3.8.5-1.3 1.8-1.6 2.1-1.6.9-1.1 4.5-3.3 6.5-4.5 1.4-.8 2.6-1.4 3-1.7-.4-2.6-.3-3-.2-3 .1-.3 1.2-1.6 1.8-2.3v-.1c0-.1-.1-.3-.1-.5-.1-.7-.3-2-1.3-2.6-1.3-.8-2.4-2.9-3.1-5.8-.7-2.9-1.3-4.9-1.3-4.9 0-.1-.8-4.7-1.6-6.8-.9-2.3-.4-4.6-.2-5.5s.9-1.6 1.2-1.8c-.2-.3-.8-1.7-.4-3.2.3-1 1.2-1.8 2.5-2.3 1.2-.5 2.7-.8 4.4-.9 2.1-.2 4.2-.1 5.9.1 1.1.1 1.8.1 2.3 0h.1c2-.1 5.5 1.7 6.6 4.9 1 3.2 1.3 4.2 1.3 6.2 0 1.3-.2 2.9-.4 4.6l-.3 2.7c-.2 1.6-.6 2.3-.8 3-.2.4-.4.8-.5 1.3-.1.3-.1.6-.1.8-.3 1-.5 1.9-.3 2.8.1.9.2 1.8.2 2.2h.2l.1.2c0 .1.3.4.5.7.4.5.7.9.7 1.2.1.2 0 .4.1.7.2 0 .8.1 1.3.7l3.2 3.2c.3 0 1.9.1 6.4 1l.3.1c2.7.5 7.3 1.4 7.8 4.7 0 .4.1.7.2 1.1.4 2.1.8 4.2-.1 6.3-1.1 2.4-1.8 5.4-2.1 8.2-.3 2.7-.7 5.1-1.5 6.3-.8 1.2-.9 2-.8 3.5.1.9-.3 1.7-.6 2.4-.2.5-.5 1-.6 1.7-.2.8-.5 2.2-.7 3.4-.3 1.4-.4 2.2-.5 2.4-.1.3.7 4.6 1.3 6.6.3.9 2.2 8.9 4.1 17 3.6 15.7 3.4 15.8 3.3 15.9-.1 0-.3.2-.5.4-1.2.9-3.9 3.1-5.3 3.7-1.3.6-2 .9-2.2 1 0 .9 0 6.9-.5 8.6-.5 1.8-.9 3.4-.8 5.8.1 2-.2 3.7-.8 5.3-.4 1 .3 5.5.8 8 .3 1.9.5 3 .2 4.4-.1.6-.2.8-.3 1.2-.2.5-.3.7-.2 1.6.1.6 0 1.2 0 1.7s-.1 1.1 0 1.4.2.5.2.8 0 .7.2 1.1c.2.5.2.8.2 1.1s-.1.8.1 1.3c.4 1.1.8 3.2.8 4.6 0 .4.1 1.5.2 2.8.3 2.6.5 6.2.5 8.3-.1 1.1 0 2.8 0 4.3 0 3.5.1 7.5-.2 9.9-.1 1.2-.3 2.5-.4 4.1-.3 3.1-.7 6.4-.7 7.9 0 .6 0 1.3.1 1.9.1 1.5.3 3-.4 4.3-.4.8-.7 1.2-.9 1.6-.3.6-.5.9-.5 1.3 0 .3.3 1.2.6 2.3.4 1.5 1 3.6 1.2 4.6.1.2 0 .4.1.6.3 1.7.6 4-.5 5.5-1.2 1.5-3.3 3.1-6.8 3.4"/><path class="st3" d="M146.8 308.5s1.6 2.5 4.9 2.5c3 0 5.2-2.1 5.3-5 0-2.9-2.4-5-5.5-4.9-2.4 0-4 1.2-4 1.2l-1.1-.4.9-8.4c.2-1.3.5-1.8 1.9-1.9h6.9c1.2 0 1.8.5 1.7 1.8l-.1 2.1h-2V294c0-.4-.3-.6-.7-.6h-5.3c-.4 0-.6.2-.6.7l-.6 4.8c-.1.8-.2 1.2-.2 1.2h.1s1.3-.8 3.2-.8c4.2 0 7.4 3.1 7.4 6.9 0 3.7-3.1 6.9-7.5 6.9-4.1 0-6.2-3-6.2-3l1.5-1.6zm15.8-6.4c0-6 1.8-10.9 7.3-10.9 5.5.1 7.2 4.9 7.2 10.9 0 6.1-1.8 11-7.3 10.9-5.5 0-7.3-4.8-7.2-10.9zm12.3 0c0-5-1.1-8.9-5.1-9-4.1 0-5.2 3.9-5.1 9 0 5.1 1.1 9 5.1 9 4 .1 5.2-3.9 5.1-9zm5.8-6.6c0-2.3 1.9-4.1 4.3-4.2 2.4 0 4.2 1.9 4.2 4.1 0 2.3-1.9 4.1-4.3 4.2-2.3.1-4.2-1.8-4.2-4.1zm16.3-3.8h2.2L183 312.8h-2.2l16.2-21.1zm-9.6 3.7c0-1.4-1.1-2.5-2.5-2.5s-2.4 1.2-2.4 2.5c0 1.4 1.1 2.5 2.4 2.5 1.4 0 2.5-1 2.5-2.5zm7.6 9.4c2.4 0 4.2 1.9 4.3 4.2 0 2.3-1.9 4.1-4.3 4.2-2.4 0-4.2-1.9-4.2-4.1 0-2.4 1.9-4.3 4.2-4.3zm0 6.7c1.4 0 2.5-1.1 2.5-2.4 0-1.4-1.1-2.5-2.5-2.5s-2.4 1.2-2.4 2.5c0 1.2 1 2.4 2.4 2.4zm-70.7 13.1c0-.3-.1-.5-.4-.4h-.8V323h1.5c.8 0 1.2.4 1.2 1.2l-.1 7.8c0 2.3 1.4 3.8 3.7 3.8 2.3 0 3.8-1.4 3.8-3.7l.1-7.8c0-.8.4-1.2 1.2-1.2h1.5v1.2h-.8c-.3 0-.5.1-.4.4v7.5c0 3-2.1 4.9-5.1 4.9-3 0-5.1-2-5.1-4.9l-.3-7.6zm18 2.1c2.9 0 5.2 2.2 5.2 5.1 0 3-2.3 5.2-5.2 5.2-2.9 0-5.2-2.2-5.1-5.2-.1-2.9 2.3-5.1 5.1-5.1zm0 9.1c2.1.1 3.8-1.7 3.9-4.1 0-2.3-1.7-3.9-3.9-3.9-2.1-.1-3.9 1.7-3.8 3.8 0 2.5 1.7 4.2 3.8 4.2zm7.8-7.2c0-.3-.1-.5-.4-.4h-.8v-1.1h1.4c.8 0 1.2.4 1.2 1.1v1.1c.5-1.4 2-2.5 3.6-2.5 1.9 0 2.7.8 3.1 2.5.6-1.3 1.9-2.5 3.7-2.5 2.4 0 3.3 1.4 3.2 3.9v4.7c0 .3.1.5.4.4h.8v1.1h-1.4c-.8 0-1.2-.4-1.2-1.2l.1-4.8c0-1.6-.3-2.9-2.1-2.9-1.5 0-2.7 1.4-3.1 2.8-.1.4-.2.9-.2 1.4v4.7H157l.1-5.9c0-1.5-.2-3-2-3-1.6 0-2.8 1.4-3.3 2.9-.1.4-.2.9-.2 1.3v4.7h-1.4l-.1-8.3zm18.3 0c0-.3-.1-.5-.4-.4h-.8v-1.1h1.4c.8 0 1.2.4 1.2 1.2l-.1 7.1c0 .3.1.5.4.4h.8v1.1h-1.4c-.8 0-1.2-.4-1.2-1.2l.1-7.1zm0-5.5h1.2v1.6h-1.2v-1.6zm4.8 5.5c0-.3-.1-.5-.4-.4h-.8v-1.1h1.4c.8 0 1.2.4 1.2 1.1v1.1c.4-.9 1.6-2.5 3.9-2.5 2.5 0 3.3 1.4 3.3 3.9v4.7c0 .3.1.5.4.4h.8v1.1h-1.4c-.8 0-1.2-.4-1.2-1.2l.1-4.8c0-1.6-.3-2.9-2.1-2.9-1.6 0-3.1 1.2-3.6 2.7-.1.4-.2.9-.2 1.3l-.1 4.8h-1.4l.1-8.2zm12 .1c0-.3-.1-.5-.4-.4h-.8v-1.1h1.4c.8 0 1.2.4 1.2 1.2l-.1 7.1c0 .3.1.5.4.4h.8v1.1h-1.4c-.8 0-1.2-.4-1.2-1.2l.1-7.1zm.1-5.5h1.2v1.6h-1.2v-1.6zm10.3 5h-1.2v-1.1l1.3-.1v-2.7l1.3-.1v2.7h2.5v1.1H197v5c0 2.3 1.4 2.6 2.2 2.6h.4v1.2s-.2.1-.6.1c-1.1 0-3.4-.4-3.4-3.6v-5.1zm6.4.5c0-.3-.1-.5-.4-.4h-.8v-1.1h1.4c.8 0 1.2.3 1.2 1.1v1.3c.4-1.5 1.6-2.6 3.1-2.6.3 0 .5.1.5.1l.1 1.3s-.2 0-.5-.1c-1.4 0-2.4 1.1-2.8 2.5-.2.7-.3 1.3-.3 1.9v4.1h-1.4l-.1-8.1zm11.6 2.2h.5v-.1c0-2.1-.8-2.8-2.5-2.8-.5 0-1.9.1-1.9.8v.6h-1.2v-.9c0-1.4 2.3-1.7 3.2-1.7 3.1 0 3.9 1.6 3.8 3.8l-.1 4.8c0 .3.1.5.4.4h.8v1.1h-1.4c-.8 0-1.1-.4-1.1-1.1v-.7s-.8 2.1-3.3 2.1c-1.6 0-3.4-1-3.4-2.9.1-3.3 4.5-3.3 6.2-3.4zm-2.5 5.3c1.9 0 3-2 3.1-3.6v-.4l-.5-.1c-1.6 0-4.7 0-4.7 2.2-.1.9.7 1.8 2.1 1.9zm-81 13.8c0-.3-.1-.5-.4-.4h-.8v-1.1h1.4c.8 0 1.2.4 1.2 1.2l-.1 7.1c0 .3.1.5.4.4h.8v1.1h-1.4c-.8 0-1.2-.4-1.2-1.2l.1-7.1zm0-5.5h1.2v1.6h-1.2v-1.6zm13.7 3.7c2.4 0 3.2 1.8 3.2 1.8v-3.9c0-.3-.1-.5-.4-.4h-.8v-1.1h1.4c.8 0 1.2.4 1.2 1.2v11c0 .3.1.5.4.4h.8v1.1h-1.4c-.8 0-1.1-.4-1.1-1.1v-.6s-.8 2-3.4 2c-2.7 0-4.3-2.1-4.3-5.2 0-3.2 1.8-5.2 4.4-5.2zm3.3 5.2c0-2-1-4-3.2-4-1.8 0-3.2 1.5-3.2 4 0 2.4 1.3 4 3.2 4 1.6 0 3.1-1.2 3.2-4zm4.8-3.4c0-.3-.1-.5-.4-.4h-.8v-1.1h1.4c.8 0 1.2.4 1.2 1.2l-.1 7.1c0 .3.1.5.4.4h.8v1.1H153c-.8 0-1.2-.4-1.2-1.2l.1-7.1zm-.1-5.4h1.2v1.6h-1.2v-1.6zm5 5.5c0-.3-.1-.5-.4-.4h-.8v-1.1h1.4c.8 0 1.2.3 1.2 1.1v1.3c.4-1.5 1.6-2.6 3.1-2.6.3 0 .5.1.5.1l.1 1.3s-.2 0-.5-.1c-1.4 0-2.4 1.1-2.8 2.5-.2.7-.3 1.3-.3 1.9v4.1h-1.4l-.1-8.1zm7.1 0c0-.3-.1-.5-.4-.4h-.8v-1.1h1.4c.8 0 1.2.4 1.2 1.2l-.1 7.1c0 .3.1.5.4.4h.8v1.1H165c-.8 0-1.2-.4-1.2-1.2l.1-7.1zm0-5.5h1.2v1.6h-1.2v-1.6zm8.2 3.7c2.7 0 3.3 1.7 3.3 1.7s-.1-.2 0-.4c0-.7.3-1.1 1.2-1h1.4v1.1h-.8c-.3 0-.5.1-.4.4v8.1c0 3.1-2.3 4.4-4.7 4.3-1.1 0-2.3-.3-3.2-.8l.5-1.1s1.2.7 2.7.7c2 0 3.5-.9 3.5-3.1v-1.5c-.6 1.1-1.6 1.7-3.1 1.7-2.7 0-4.4-2.1-4.4-5-.3-3 1.4-5.1 4-5.1zm3.3 5c0-2.9-1.3-3.8-3.1-3.8-2 0-3.1 1.3-3 3.7 0 2.4 1.3 3.9 3.2 3.9 1.5.1 2.9-.9 2.9-3.8zm8.7-4.9c2.7 0 4.1 2.1 4.1 4.6v.6h-7.6c0 2.5 1.8 4 3.8 4 1.8 0 3-1.2 3-1.2l.7 1s-1.5 1.4-3.7 1.4c-2.9 0-5.1-2.1-5.1-5.1-.1-3.4 2.1-5.3 4.8-5.3zm2.8 4.2c0-2.1-1.3-3.1-2.8-3.1-1.6 0-3 1-3.4 3l6.2.1zm4-2.4c0-.3-.1-.5-.4-.4h-.8v-1.1h1.4c.8 0 1.2.4 1.2 1.1v1.1c.4-.9 1.6-2.5 3.9-2.5 2.5 0 3.3 1.4 3.3 3.9v4.7c0 .3.1.5.4.4h.8v1.1h-1.4c-.8 0-1.2-.4-1.2-1.2l.1-4.8c0-1.6-.3-2.9-2.1-2.9-1.6 0-3.1 1.2-3.6 2.7-.1.4-.2.9-.2 1.3l-.1 4.8h-1.4l.1-8.2zm12-.4h-1.2v-1.1l1.3-.1v-2.7l1.3-.1v2.7h2.5v1.1h-2.5v5c0 2.3 1.4 2.6 2.2 2.6h.4v1.2s-.2.1-.6.1c-1.1 0-3.4-.4-3.4-3.6v-5.1zm6.5.5c0-.3-.1-.5-.4-.4h-.8v-1.1h1.4c.8 0 1.2.4 1.2 1.2l-.1 7.1c0 .3.1.5.4.4h.8v1.1h-1.4c-.8 0-1.2-.4-1.2-1.2l.1-7.1zm0-5.5h1.2v1.6h-1.2v-1.6z"/></svg>