<svg id="Livello_1" xmlns="http://www.w3.org/2000/svg" viewBox="0 0 313.5 421.5"><style>.st0{fill:none;stroke:#f3352f;stroke-width:3;stroke-linecap:round;stroke-miterlimit:10;stroke-dasharray:0,9}.st1{fill-rule:evenodd;clip-rule:evenodd}.st1,.st2{fill:#4e5594}.st3{fill:#fff}</style><path class="st0" d="M178.2 45.1c64.7 0 117.1 52.4 117.1 117.1s-52.4 117.1-117.1 117.1S61.1 227 61.1 162.3 113.5 45.1 178.2 45.1z"/><path class="st1" d="M160.9 273.9c35.5-9.5 72 11.5 81.5 47s-11.5 72-47 81.5-72-11.5-81.5-47 11.6-72 47-81.5z"/><path class="st2" d="M203.6 253.4c-.4-.7-1-1.7-1.6-2.6-.6-.8-1.2-1.6-1.6-2.4-.7-1.4-1.6-2.8-2.8-4.5-.7-.9-.9-1.3-1.1-1.7-.1-.1-.1-.2-.2-.4-.3-.4-.2-.9-.3-1.8v-1.5c-.1-.8-.2-1.5-.4-2.2-.2-.8-.3-1.4-.3-2.1.1-1.3.9-10.8 1.2-13.7.1-.5.1-1.1.2-1.7.3-2.7.8-5.9.9-8.2.1-3.4 0-12-.7-15.2-.6-2.8-1.9-11.1-2.1-13.3-.2-2.1-.3-7-.1-9.6.1-.7.2-2.3.3-5v-.1h.1c.3-.1.6-.1.7-.1 1.1-.3 1.9-.7 2.1-.7 0-1-.5-11.9-.5-14.5.1-2.6.2-5.8.2-5.9h.2v.6c.4-.1.9-.7 1-1.6v-1.7c0-.2 0-.5-.1-.9 0-1 .1-1.8.1-1.8l.1-.2.2.2c.1.1.9 1.1 1 1.7v.2c.1.3.1.7 0 1.4-.1.5-.1.8-.2 1.1-.1.2-.1.4-.1.7 0 .4-.3.9-.6 1.5-.1.3-.3.6-.4 1-.5 1.4-.7 2.5-.2 2.7.3.1.5.1.6.2.4 0 .7-.2 1-.6.6-1 2.1-2.6 2.3-2.8.5-.5.9-1 1.3-2.6.1-.5.3-.9.4-1.2.3-1 .6-1.8.4-2.4-.1-.4-.3-1.3-.5-2-.2-.9-.6-1.9-.7-2.4-.2-.8-.2-1-.2-1l-.4-.1.4-.1c1.3-.2 1.9-.6 1.9-.8.1-.5.3-6.4.2-9.1 0-.6-.1-1.3-.1-1.9-.1-1.9-.3-4-.3-6.8.1-2.6-.4-8.5-.8-13.2-.1-2-.3-3.8-.4-4.9-.1-1.8-.4-4.3-.9-6.7s-.8-4.9-.9-6.7c-.2-3.6-.9-8.4-1.6-10-.4-.8-1.6-.9-3.5-1.2-.5-.1-.9-.1-1.5-.2-.9-.1-2.7-.9-4.4-1.7-.5-.1-.8-.4-1.2-.5h-.1v-.1c-.1-.7-.1-1.5-.1-2.4 0-.6 0-1.4-.1-2.1 0-.6-.1-1.4-.2-2.1-.1-.9-.2-1.8-.2-2.7 0-.5 0-1 .1-1.4 0-.4 0-.8.1-1.2-.1-.8 0-1.8.1-3 0-1.5.1-3.1.1-4.6-.1-3-.8-5.8-2.2-8.9-1.6-3.7-4.8-4.4-6.6-4.4-.8 0-1.3 0-1.3.1 0 0-.8-.4-2.1-.4-1.5 0-3.7.3-5.5 2.3-1.8 1.8-3.9 9.9-3.2 14.2.6 3.3.3 4.7.1 6.7-.1.6-.1 1.1-.1 1.8-.1 1.3-.1 2.2-.1 2.8 0 .8 0 1.1-.3 1.8-.1.2-.2 1-.3 1.6-.1.5-.1.9-.1 1.1v.1h-.1c-.8.2-1.6.4-2.4.7-1.6.4-3.1.8-3.9 1.2-.8.3-1.9.4-2.9.4-1.2.1-2.3.1-2.7.6-.5 1.1-1.9 7.2-2.3 13.8-.3 5.4-1.2 9.3-1.9 13-.2 1-.4 1.9-.5 2.8-.4 2.5-.7 4.5-1.2 8.1 0 .1-.1.6-.1 1-.1.5-.1.9-.1 1l.1.8c.1 1.6.3 3 .6 4.7v.5c.8 6.2 1.5 13.1 1.6 15.3 0 1.9.6 2.9.7 3.1l1.3.3v.1c0 .1-.1.2 0 .2 0 .7-.2 1.4-.3 1.9-.2 1-.3 1.8-.2 3 .2 1 .4 1.7.8 2.3.2.5.3.9.5 1.5.2 1 .8 1.8 1.8 2.6h.1v.1c-.1 2.3 0 2.9.1 4v.3c.3 2.8-.1 12.1-.1 12.9.2.2 1 .7 2.5.9h.1v.1c.1 1.6.3 4.1.5 5.9.1.9.1 1.6.2 2.1.3 4.4.3 13.5-.1 18.9-.3 4.6.5 13.4 1.7 17.5.7 2.2 1.2 4.5 1.8 6.4.3 1.4.7 2.6 1 3.6.8 2.3 1.8 7.4 1.7 8.8-.1.9.2 1.8.3 2.7l.3 1.2v.1c.2 1.1.3 2.4-1.1 5.8-.7 1.6-1.3 2.8-1.7 3.9-.6 1.3-1.1 2.3-1.3 3.1-.6 2.6-.7 4.3-.1 4.6.7.4 2.4.8 3 .9.3 0 .8-.3 1.5-.6.2-.1.5-.3.9-.5 2.2-1.1 2.9-2.2 3.2-3.2.4-1.1 1.2-3.5 1.6-4.7.1-.5.3-1.2.5-1.9.3-1.2.5-2.4.9-3.2s.9-2.5.2-3.8c-.3-.6-.5-1.4-.6-2.3-.2-.8-.3-1.7-.6-2.4-.8-1.6-.6-9.3-.5-11.1.1-.5.1-1.2.2-2.2.4-3.2.9-8.7.8-14.8 0-2-.5-4.9-.9-7.4-.4-2.7-.8-5-.6-5.9.1-.8 1.5-7.5 1.8-11.1 0-.8.1-1.8.1-3.2.1-1.6.2-3.7.4-6.6v-.1h.1c.3 0 1.1 0 2.1.1.6 0 1.2.1 1.9.1.8 0 1.4 0 1.6.1h.1v.1c.3 3.9.7 10.9 1.5 13 1.1 3.2 2.5 8.7 3 11.5.1.4 0 2 0 3.8-.1 3.4-.2 8.2.2 10.6.3 1.7 1 4 1.5 6.1.7 2.5 1.4 5.1 1.6 6.9.4 2.6.9 7.1 1.2 10.1 0 .9.2 1.7.2 2.3.2 2.3.3 3.5-.3 3.9-.5.3-.7 1-.7 2.1 0 1 .6 2.9 1.1 4.2.2.6.7 1.7 1.2 2.8s1.1 2.3 1.4 3.2c.7 1.8 2.7 6.3 3.1 7 .3.7 1.3 1.2 2.1 1.6h.1c.9.5 4 1.3 4.4 1.4.4 0 2.8-1.1 2.8-2-.4-.7-.3-3.2-.9-4.8zm-44.4-127.8c-.2-1.8-.1-10.2-.1-10.2v-2.8c.4-2.6.6-3.5 1.1-4.8.3-.9.5-2 1-4 .6-2.6.9-5.2 1-6.8h.2l-.1 1.7s.1 3.4 0 6c0 3.4-.5 8.8-.8 10.8-.2.9-.3 1.8-.6 2.5-.3 1.2-.5 2.4-.8 3.5-.4 2-.8 3.6-.9 3.8l-.2.7.2-.4zm37.7 14.2c0-.1-.4-6.9-.8-8.9-.2-1-.6-1.9-.8-2.9-.2-.6-.4-1.2-.5-1.7l-.1-.1.1-.1c.2-.1.4-.3.4-.4-.2-.7-2.2-6.7-2.7-8.6-.1-.3-.2-1.1-.3-2-.1-.8-.2-1.6-.3-2 0-1.9.1-3.6.2-5.2.1-.7.1-1.4.1-2.2.2-3.5 1.2-9.8 1.2-9.8l.2-1 .1 1c0 .1.8 8.4 1 11.5.1 1.2.9 6 .9 6 0 .1.5 7.4.9 10.3.1.8.2 1.4.3 2 .3 1.5.3 2.3.3 3.3-.1 1.2 0 5.7.1 6.3l1.1.5-.2.1s-.2.1-.6.5c-.2.3-.4 2.1-.4 3.1l-.2.3z"/><path class="st3" d="M152.5 319.3s1.5 2.4 4.7 2.4c2.8 0 5-2 5-4.7s-2.3-4.6-5.2-4.7c-2.3 0-3.8 1.2-3.8 1.2l-1-.4.9-7.9c.1-1.2.5-1.7 1.7-1.7h6.5c1.1 0 1.7.6 1.7 1.7v2h-1.9v-1.3c0-.4-.3-.6-.7-.6h-5.1c-.4 0-.6.2-.6.7l-.5 4.5c-.1.7-.2 1.1-.2 1.1h.1s1.2-.7 3-.8c4 0 7 2.9 7 6.5 0 3.5-2.9 6.5-7 6.5-3.9 0-5.9-2.8-5.9-2.8l1.3-1.7zm14.7-6.1c-.1-5.7 1.7-10.2 6.8-10.3 5.2 0 6.9 4.5 6.9 10.2 0 5.8-1.7 10.3-6.8 10.3s-6.8-4.4-6.9-10.2zm11.7 0c0-4.8-1.1-8.5-4.8-8.4-3.7.1-4.8 3.7-4.8 8.5s1.1 8.5 4.9 8.4c3.8-.1 4.7-3.8 4.7-8.5zm5.4-6.4c0-2.2 1.8-4 3.9-3.9 2.2.1 4 1.8 4 4s-1.8 4-3.9 3.9c-2.2-.1-4-1.8-4-4zm15.3-3.6h2l-15.1 19.9h-2.1l15.2-19.9zm-9.1 3.6c0-1.2-1-2.3-2.3-2.4-1.3 0-2.2 1.1-2.3 2.4 0 1.3 1 2.3 2.3 2.4 1.3 0 2.4-1.1 2.3-2.4zm7.3 8.8c2.2 0 4 1.8 4 4s-1.7 3.9-3.9 3.9-4-1.8-4-3.8c0-2.4 1.8-4.2 3.9-4.1zm.1 6.2c1.3 0 2.3-1 2.3-2.4 0-1.2-1-2.3-2.3-2.4-1.3 0-2.2 1.1-2.3 2.4 0 1.4 1 2.4 2.3 2.4zm-65.7 13.3l-1.4.1v-1.3h5.9c4.4 0 7.5 2.7 7.5 7.3 0 4.7-2.9 7.4-7.3 7.4h-3.3c-.9 0-1.3-.3-1.3-1.3l-.1-12.2zm2 12.2h2.5c3.6 0 6-2.1 5.9-6.1 0-3.9-2.4-6-6.1-6l-2.9.1V347c.1.1.3.2.6.3zm17.3-9.6c3.1 0 5.6 2.3 5.6 5.4 0 3.2-2.5 5.5-5.5 5.6-3.1 0-5.6-2.4-5.6-5.5-.1-3.2 2.4-5.5 5.5-5.5zm0 9.7c2.3 0 4.1-1.8 4-4.3 0-2.4-1.9-4.2-4.1-4.2-2.3 0-4.1 1.8-4.1 4.2.1 2.5 1.9 4.3 4.2 4.3zm8.2-7.8c0-.3-.2-.5-.5-.4h-.9V338h1.5c.9 0 1.3.3 1.2 1.2v1.2c.4-.9 1.7-2.6 4.2-2.7 2.6 0 3.5 1.5 3.6 4v5c0 .3.2.5.5.4h.9v1.2h-1.5c-.9 0-1.3-.3-1.3-1.3v-5.1c0-1.6-.3-3.2-2.3-3.1-1.8.1-3.3 1.3-3.8 3-.1.5-.1.9-.2 1.4v5.1h-1.5l.1-8.7zm12.8 0c0-.3-.2-.5-.5-.4h-.9V338h1.5c.9 0 1.3.3 1.2 1.2v1.2c.4-.9 1.7-2.6 4.2-2.7 2.6 0 3.5 1.5 3.6 4v5c0 .3.2.5.5.4h.9v1.2h-1.5c-.9 0-1.3-.3-1.3-1.3v-5.1c0-1.6-.3-3.2-2.3-3.1-1.8.1-3.3 1.3-3.8 3-.1.5-.1.9-.2 1.4v5.1h-1.5l.1-8.7zm17-2c2.9-.1 4.5 2.2 4.4 4.9 0 .2-.1.7-.1.7h-8.1c0 2.7 1.9 4.2 4.1 4.2 2 0 3.1-1.3 3.1-1.3l.6 1.1s-1.5 1.6-3.9 1.6c-3.1 0-5.5-2.3-5.6-5.5.3-3.7 2.6-5.8 5.5-5.7zm2.9 4.4c0-2.2-1.4-3.3-3-3.3-1.7 0-3.3 1.1-3.7 3.3h6.7zm10.1-3.1l-1.4.1v-1.2h1.5l-.1-2.9h1.5l.1 2.9h2.7v1.2h-2.7v5.4c0 2.5 1.5 2.8 2.4 2.8.3 0 .5-.1.5-.1v1.2h-.6c-1.2 0-3.6-.3-3.7-3.9l-.2-5.5zm7 .5c0-.3-.2-.5-.5-.4h-.9v-1.2h1.5c.9 0 1.3.3 1.2 1.2v1.5c.5-1.6 1.7-2.8 3.3-2.8.3 0 .6.1.6.1v1.5s-.3-.1-.5 0c-1.5 0-2.6 1.2-3.1 2.7-.2.7-.3 1.4-.3 2.1v4.4h-1.5l.2-9.1zm12.4 2.3h.6v-.1c0-2.2-.8-3-2.7-3-.5 0-2 .2-2 .9v.6l-1.4.1v-1c0-1.5 2.5-1.8 3.5-1.8 3.3-.1 4.2 1.8 4.1 4v5.1c0 .3.2.5.5.4h.9v1.2h-1.5c-.9 0-1.2-.4-1.2-1.3v-.8s-.8 2.3-3.5 2.3c-1.8.1-3.6-1-3.6-3.1-.3-3.3 4.4-3.5 6.3-3.5zm-2.7 5.5c2 0 3.3-2.1 3.2-3.9v-.5h-.6c-1.6 0-5 0-5 2.4.1 1 .8 2 2.4 2zm-83.8 13.1c0-.3-.2-.5-.5-.4h-.9v-1.2h1.5c.9 0 1.3.3 1.3 1.3l.1 7.6c0 .3.2.5.5.4h.9v1.2h-1.5c-.9 0-1.3-.3-1.3-1.3l-.1-7.6zm0-5.8l1.4-.1.1 1.8-1.4.1-.1-1.8zm14.7 3.9c2.6 0 3.4 1.9 3.4 1.9v-4.2c0-.3-.2-.5-.5-.4h-.9v-1.2h1.5c.9 0 1.3.3 1.3 1.3v11.8c0 .3.2.5.5.4h.9v1.2h-1.5c-.9 0-1.2-.4-1.2-1.2 0-.4.1-.7.1-.7s-.9 2.1-3.7 2.1c-2.8 0-4.6-2.2-4.6-5.6-.1-3.2 1.9-5.4 4.7-5.4zm3.5 5.5c0-2.2-1.1-4.2-3.3-4.2-1.9 0-3.4 1.6-3.4 4.3 0 2.6 1.4 4.3 3.3 4.3 1.7-.2 3.4-1.4 3.4-4.4zm5.1-3.6c0-.3-.2-.5-.5-.4h-.9v-1.2h1.5c.9 0 1.3.3 1.3 1.3l.1 7.6c0 .3.2.5.5.4h.9v1.2h-1.5c-.9 0-1.3-.3-1.3-1.3l-.1-7.6zm0-5.9l1.4-.1.1 1.8-1.4.1-.1-1.8zm5.1 5.9c0-.3-.2-.5-.5-.4h-.9v-1.2h1.5c.9 0 1.3.3 1.2 1.2v1.5c.5-1.6 1.7-2.8 3.3-2.8.3 0 .6.1.6.1v1.5s-.3-.1-.5 0c-1.5 0-2.6 1.2-3.1 2.7-.2.7-.3 1.4-.3 2.1v4.4h-1.5l.2-9.1zm7.8-.1c0-.3-.2-.5-.5-.4h-.9v-1.2h1.5c.9 0 1.3.3 1.3 1.3l.1 7.6c0 .3.2.5.5.4h.9v1.2H173c-.9 0-1.3-.3-1.3-1.3l-.1-7.6zm-.1-5.9l1.4-.1.1 1.8-1.4.1-.1-1.8zm8.9 3.9c2.8 0 3.6 1.8 3.6 1.8s.1-.2 0-.4c0-.7.3-1.2 1.2-1.1h1.5v1.2h-.8c-.3 0-.5.2-.4.5v8.6c.1 3.3-2.5 4.6-5.1 4.7-1.2 0-2.4-.3-3.4-.8l.5-1.2s1.3.7 2.8.7c2.1 0 3.7-1 3.7-3.4v-1.6c-.6 1.2-1.6 1.8-3.3 1.8-2.8 0-4.7-2.3-4.7-5.4-.2-3.2 1.5-5.3 4.4-5.4zm3.5 5.4c0-3.1-1.5-4-3.4-4-2.1 0-3.3 1.5-3.2 4 .1 2.5 1.4 4.2 3.5 4.1 1.5 0 3.1-1 3.1-4.1zm9.2-5.3c2.9-.1 4.5 2.2 4.4 4.9 0 .2-.1.7-.1.7h-8.1c0 2.7 1.9 4.2 4.1 4.2 2 0 3.1-1.3 3.1-1.3l.6 1.1s-1.5 1.6-3.9 1.6c-3.1 0-5.5-2.3-5.6-5.5.3-3.7 2.6-5.8 5.5-5.7zm3 4.4c0-2.2-1.4-3.3-3-3.3-1.7 0-3.3 1.1-3.7 3.3h6.7zm4.3-2.5c0-.3-.2-.5-.5-.4h-.9v-1.2h1.5c.9 0 1.3.3 1.2 1.2v1.2c.4-.9 1.7-2.6 4.2-2.7 2.6 0 3.5 1.5 3.6 4v5c0 .3.2.5.5.4h.9v1.2h-1.5c-.9 0-1.3-.3-1.3-1.3v-5.1c0-1.6-.3-3.2-2.3-3.1-1.8.1-3.3 1.3-3.8 3-.1.5-.1.9-.2 1.4v5.1h-1.5l.1-8.7zm12.9-.7l-1.4.1v-1.2h1.5l-.1-2.9h1.5l.1 2.9h2.7v1.2h-2.7v5.4c0 2.5 1.5 2.8 2.4 2.8.3 0 .5-.1.5-.1v1.2h-.6c-1.2 0-3.6-.3-3.7-3.9l-.2-5.5zm7 .5c0-.3-.2-.5-.5-.4h-.9v-1.2h1.5c.9 0 1.3.3 1.3 1.3l.1 7.6c0 .3.2.5.5.4h.9v1.2h-1.5c-.9 0-1.3-.3-1.3-1.3l-.1-7.6zm-.1-5.9l1.4-.1.1 1.8-1.4.1-.1-1.8z"/></svg>