<svg baseProfile="basic" id="Livello_1" xmlns="http://www.w3.org/2000/svg" viewBox="0 0 313.5 421.5"><style>.st0{fill:none;stroke:#f3352f;stroke-width:3;stroke-linecap:round;stroke-miterlimit:10;stroke-dasharray:0,9}.st1{fill:#4e5594}.st2{fill:#fff}</style><path class="st0" d="M200 50.6c62.7 16 100.6 79.7 84.6 142.4S205 293.6 142.3 277.6 41.7 198.1 57.6 135.4 137.3 34.7 200 50.6z"/><path class="st1" d="M148.7 273.7c36.7-.5 66.9 28.9 67.4 65.6s-28.9 66.9-65.6 67.4c-36.7.5-66.9-28.9-67.4-65.6-.5-36.8 28.9-67 65.6-67.4zm29.1-24.1c-.4-.7-1-1.6-1.7-2.5-.6-.8-1.3-1.6-1.7-2.3-.8-1.3-1.8-2.7-3-4.4-.7-.9-.9-1.3-1.1-1.6-.1-.1-.1-.2-.2-.4-.3-.4-.3-.9-.4-1.7v-1.5c-.1-.8-.2-1.5-.5-2.2-.2-.8-.4-1.4-.4-2.1 0-1.3.4-10.8.5-13.7 0-.5.1-1.1.1-1.7.2-2.7.5-6 .4-8.2-.1-3.4-.6-12-1.4-15.1-.7-2.8-2.5-10.9-2.7-13.2-.3-2.1-.6-7-.6-9.5.1-.7.1-2.4 0-5v-.1h.1c.3-.1.6-.2.7-.1 1.1-.3 1.8-.8 2.1-.8 0-1-1.1-11.8-1.2-14.4-.1-2.6-.1-5.8 0-5.9h.2v.6c.4-.1.9-.7.9-1.6 0-.8 0-1.1-.1-1.7 0-.2-.1-.5-.1-.8 0-1 .1-1.8.1-1.8v-.2l.2.1c.1.1 1 1.1 1 1.6v.2c.1.3.1.7.1 1.4 0 .5-.1.8-.2 1.1 0 .2-.1.4-.1.7 0 .4-.2.9-.5 1.5-.1.3-.3.7-.4 1-.5 1.4-.5 2.5-.1 2.7.3.1.5.1.6.1.4 0 .7-.2 1-.7.6-1 1.9-2.7 2.2-2.9.4-.5.9-1 1.2-2.7.1-.5.2-.9.3-1.3.2-1 .5-1.8.3-2.4-.1-.4-.4-1.2-.6-2-.3-.9-.7-1.8-.8-2.4-.2-.8-.3-1-.3-1l-.4-.1.4-.1c1.3-.3 1.8-.7 1.9-.9.1-.5 0-6.4-.3-9 0-.6-.2-1.3-.2-1.9-.2-1.9-.5-4-.7-6.8-.1-2.6-.8-8.5-1.5-13.2-.2-2-.5-3.7-.6-4.9-.2-1.8-.7-4.3-1.2-6.7s-1-4.9-1.2-6.7c-.4-3.6-1.3-8.4-2.1-9.9-.4-.8-1.6-.8-3.6-1-.5 0-.9 0-1.5-.1-.9 0-2.8-.8-4.5-1.4-.5-.1-.8-.3-1.2-.4h-.1v-.1c-.1-.7-.1-1.5-.2-2.4 0-.6-.1-1.4-.2-2.1 0-.6-.2-1.4-.3-2-.2-.9-.3-1.8-.4-2.7-.1-.5 0-1 .1-1.4v-1.2c-.1-.8-.1-1.8-.1-3 0-1.5 0-3.1-.2-4.6-.3-3-1.1-5.8-2.6-8.8-1.8-3.6-5-4.2-6.8-4.1-.8 0-1.3.1-1.3.2 0 0-.8-.3-2.1-.3-1.5 0-3.6.5-5.4 2.5-1.7 1.9-3.4 10.1-2.5 14.3.7 3.3.6 4.7.5 6.7-.1.6-.1 1.1-.1 1.8v2.8c0 .8 0 1.1-.2 1.8 0 .2-.1 1-.2 1.6 0 .5 0 .9-.1 1.1v.1h-.1c-.8.2-1.6.5-2.4.8-1.6.5-3 1-3.9 1.4-.8.3-1.9.5-2.9.5-1.2.1-2.3.2-2.7.8-.5 1.1-1.5 7.2-1.6 13.9 0 5.5-.7 9.3-1.3 13.1-.1 1-.3 1.9-.4 2.8-.3 2.5-.5 4.5-.8 8.1 0 .1-.1.6-.1 1 0 .5 0 .9-.1 1l.1.8c.2 1.6.5 3 .8 4.6l.1.5c1.1 6.2 2.2 13 2.3 15.2.1 1.9.7 2.9.9 3l1.3.2v.3c0 .7-.2 1.4-.2 1.9-.1 1-.2 1.8 0 3 .3 1 .5 1.7.9 2.3.2.5.4.9.6 1.5.3 1 .9 1.8 1.9 2.6h.1v.1c0 2.3.2 2.9.3 4v.3c.4 2.8.5 12.1.5 12.9.2.1 1.1.7 2.5.7h.1v.1c.2 1.6.5 4.1.8 5.9.1.8.2 1.6.3 2.1.5 4.4.9 13.4.9 18.9 0 4.6 1.1 13.4 2.6 17.4.8 2.2 1.5 4.4 2.1 6.3.4 1.3.8 2.6 1.1 3.6.9 2.3 2.2 7.3 2.1 8.7 0 .9.3 1.8.4 2.7l.3 1.2v.1c.2 1.1.4 2.4-.8 5.9-.6 1.6-1.2 2.9-1.5 3.9-.5 1.3-1 2.3-1.1 3.1-.5 2.7-.5 4.3.2 4.6.7.4 2.4.7 3 .8.3 0 .8-.3 1.5-.6.2-.1.5-.3.9-.5 2.2-1.2 2.8-2.3 3-3.4.4-1.1 1-3.6 1.3-4.8.1-.5.2-1.2.4-2 .2-1.2.4-2.5.7-3.2.3-.8.7-2.5 0-3.8-.4-.6-.6-1.4-.7-2.2-.2-.8-.4-1.7-.7-2.4-.8-1.6-1.1-9.2-1-11.1 0-.5 0-1.2.1-2.3.2-3.2.5-8.8.1-14.8-.1-2-.7-4.8-1.2-7.3-.5-2.7-1-5-.9-5.9.1-.8 1.1-7.6 1.3-11.1 0-.8.1-1.8 0-3.2v-6.7h4.1c.8 0 1.4-.1 1.6 0h.1v.1c.4 3.9 1.3 10.8 2.2 12.9 1.3 3.1 3 8.6 3.5 11.3.1.4.1 2 .2 3.8.1 3.4.2 8.2.7 10.6.4 1.7 1.2 3.9 1.8 6 .8 2.5 1.6 5.1 2 6.8.6 2.6 1.2 7 1.7 10 .1.9.3 1.7.4 2.3.4 2.3.4 3.5-.1 3.9-.5.3-.7 1.1-.6 2.1 0 1 .7 2.9 1.3 4.2.3.6.8 1.7 1.4 2.7.6 1.1 1.2 2.3 1.6 3.1.8 1.7 3 6.1 3.4 6.9.3.7 1.4 1.2 2.2 1.5h.1c.9.4 4 1.1 4.4 1.2.4 0 2.7-1.3 2.7-2.1-.1-.8-.1-3.3-.8-4.8zm-50.6-125.5c-.3-1.8-.6-10.2-.6-10.2 0-.1 0-.7-.1-1.3 0-.6-.1-1.3 0-1.5.3-2.6.5-3.5.8-4.8.2-.9.4-2.1.8-4 .5-2.7.6-5.2.7-6.8h.2v1.7s.3 3.4.3 6c.2 3.4-.1 8.9-.3 10.9-.1.9-.2 1.8-.4 2.6l-.6 3.6c-.3 2-.6 3.7-.7 3.9l-.2.7.1-.8zm38.3 12.3c0-.1-.7-6.9-1.2-8.9-.3-1-.6-1.9-.9-2.8-.3-.6-.4-1.1-.6-1.7l-.1-.1.1-.1c.2-.1.4-.3.4-.4-.2-.7-2.5-6.6-3.1-8.4-.1-.3-.2-1.1-.4-2-.1-.8-.3-1.6-.4-2-.1-1.9-.1-3.6 0-5.2.1-.7.1-1.4 0-2.2.1-3.5.7-9.8.7-9.8l.1-1 .2 1c0 .1 1.2 8.3 1.5 11.4.1 1.2 1.2 6 1.2 6 0 .1.8 7.3 1.4 10.3.1.8.3 1.4.4 2 .3 1.5.5 2.3.5 3.3 0 1.2.3 5.7.4 6.3l1.1.5-.2.1s-.2.1-.5.5c-.2.3-.3 2.1-.3 3.1l-.3.1z"/><path class="st2" d="M123 323.9s1.6 2.4 4.7 2.3c2.8 0 5-2 4.9-4.7 0-2.7-2.3-4.6-5.2-4.6-2.3 0-3.8 1.2-3.8 1.2l-1-.4.8-8c.1-1.2.4-1.7 1.7-1.7l6.5-.1c1.1 0 1.7.5 1.7 1.7v2h-1.9v-1.3c0-.4-.3-.6-.7-.6l-5.1.1c-.4 0-.6.2-.6.7l-.4 4.5c-.1.7-.2 1.1-.2 1.1h.1s1.2-.7 3-.8c4 0 7 2.8 7 6.4 0 3.5-2.9 6.5-6.9 6.6-3.9 0-5.9-2.7-5.9-2.7l1.3-1.7zm14.7-6.3c-.1-5.7 1.6-10.2 6.8-10.4 5.2 0 6.9 4.4 7 10.1.1 5.8-1.6 10.3-6.8 10.4s-6.9-4.3-7-10.1zm11.7-.1c0-4.8-1.2-8.4-4.9-8.4-3.7.1-4.8 3.7-4.7 8.5 0 4.8 1.2 8.4 5 8.4s4.6-3.7 4.6-8.5zm5.3-6.4c-.1-2.2 1.7-4 3.9-4s4 1.7 4.1 3.9c.1 2.2-1.7 4-3.9 4-2.3 0-4.1-1.7-4.1-3.9zm15.3-3.7h2l-14.9 20H155l15-20zm-9.1 3.6c0-1.2-1.1-2.3-2.3-2.3-1.3 0-2.2 1.1-2.3 2.4 0 1.3 1.1 2.3 2.3 2.3 1.3.1 2.4-1.1 2.3-2.4zm7.4 8.7c2.2-.1 4 1.7 4.1 3.9.1 2.2-1.7 3.9-3.9 4s-4-1.7-4-3.8c-.2-2.3 1.6-4.1 3.8-4.1zm.1 6.2c1.3 0 2.3-1.1 2.3-2.4 0-1.2-1.1-2.3-2.3-2.3-1.3 0-2.2 1.1-2.3 2.4.1 1.4 1 2.4 2.3 2.3zm-65.6 13.9l-1.4.1v-1.3h5.9c4.4 0 7.5 2.6 7.5 7.3.1 4.7-2.8 7.4-7.3 7.4h-3.3c-.9 0-1.3-.3-1.3-1.3l-.1-12.2zm2.1 12.2h2.5c3.6 0 6-2.2 5.9-6.1 0-3.9-2.5-6-6.1-6l-2.9.1.1 11.7c0 .1.2.2.5.3zm17.2-9.8c3.1 0 5.6 2.3 5.7 5.4 0 3.2-2.4 5.6-5.5 5.6s-5.6-2.4-5.6-5.5c-.1-3.1 2.3-5.4 5.4-5.5zm.1 9.8c2.3 0 4.1-1.9 4-4.3 0-2.4-1.9-4.2-4.1-4.1-2.3 0-4.1 1.9-4.1 4.2.1 2.4 2 4.2 4.2 4.2zm8.1-7.9c0-.3-.2-.5-.5-.4h-.9v-1.2h1.5c.9 0 1.3.3 1.3 1.1v1.2c.3-.9 1.7-2.7 4.2-2.7 2.6-.1 3.6 1.4 3.6 4l.1 5c0 .3.2.5.5.4h.9v1.2h-1.5c-.9 0-1.3-.3-1.3-1.3l-.1-5.1c0-1.6-.3-3.2-2.3-3.1-1.8.1-3.3 1.3-3.8 3.1-.1.5-.1.9-.2 1.4l.1 5.1h-1.5l-.1-8.7zm12.9-.1c0-.3-.2-.5-.5-.4h-.9v-1.2h1.5c.9 0 1.3.3 1.3 1.1v1.2c.3-.9 1.7-2.7 4.2-2.7 2.6-.1 3.6 1.4 3.6 4l.1 5c0 .3.2.5.5.4h.9v1.2h-1.5c-.9 0-1.3-.3-1.3-1.3l-.1-5.1c0-1.6-.3-3.2-2.3-3.1-1.8.1-3.3 1.3-3.8 3.1-.1.5-.1.9-.2 1.4l.1 5.1h-1.5l-.1-8.7zm16.9-2.2c2.9-.1 4.5 2.2 4.4 4.8 0 .2-.1.7-.1.7l-8.1.1c0 2.7 1.9 4.2 4.1 4.1 2 0 3.1-1.4 3.1-1.4l.7 1.1s-1.5 1.6-3.9 1.6c-3.1 0-5.5-2.2-5.6-5.5.2-3.4 2.5-5.5 5.4-5.5zm3 4.4c-.1-2.2-1.4-3.3-3-3.2-1.7 0-3.3 1.1-3.6 3.3l6.6-.1zm10.1-3.1l-1.4.1V342h1.5l-.1-2.9h1.5l.1 2.9h2.7v1.2h-2.7l.1 5.4c0 2.5 1.6 2.8 2.4 2.8.3 0 .5-.1.5-.1v1.2h-.6c-1.2 0-3.6-.3-3.8-3.8l-.2-5.6zm6.9.4c0-.3-.2-.5-.5-.4h-.9v-1.2h1.5c.9 0 1.3.3 1.3 1.1v1.5c.5-1.6 1.6-2.8 3.3-2.9.3 0 .6.1.6.1v1.5s-.3-.1-.5 0c-1.5 0-2.6 1.2-3.1 2.7-.2.7-.2 1.4-.3 2.1v4.4H180l.1-8.9zm12.4 2.2h.6v-.1c-.1-2.2-.8-3-2.8-3-.5 0-2 .2-2 .9v.6l-1.4.1v-1c0-1.5 2.5-1.8 3.5-1.8 3.3-.1 4.2 1.8 4.2 3.9l.1 5.1c0 .3.2.5.5.4h.9v1.2h-1.5c-.9 0-1.2-.4-1.2-1.2v-.8s-.8 2.3-3.5 2.3c-1.8.1-3.6-1-3.6-3.1-.3-3.3 4.4-3.5 6.2-3.5zm-2.6 5.5c2 0 3.2-2.2 3.2-3.9v-.5h-.6c-1.6 0-5 .1-5 2.5.1.9.9 2 2.4 1.9zM106.2 365c0-.3-.2-.5-.5-.4h-.9v-1.2h1.5c.9 0 1.3.3 1.3 1.3l.1 7.6c0 .3.2.5.5.4h.9v1.2h-1.5c-.9 0-1.3-.3-1.3-1.3l-.1-7.6zm0-5.8l1.4-.1.1 1.8-1.4.1-.1-1.8zm14.7 3.8c2.6-.1 3.4 1.9 3.4 1.9v-.8l-.1-3.4c0-.3-.2-.5-.5-.4h-.9v-1.2h1.5c.9 0 1.3.3 1.3 1.3l.1 11.8c0 .3.2.5.5.4h.9v1.2h-1.5c-.9 0-1.2-.4-1.3-1.1 0-.4.1-.7.1-.7s-.8 2.1-3.6 2.2c-2.8 0-4.6-2.2-4.7-5.5.1-3.5 2-5.7 4.8-5.7zm3.5 5.4c-.1-2.2-1.1-4.2-3.4-4.2-1.9 0-3.4 1.6-3.4 4.3.1 2.6 1.4 4.3 3.4 4.3 1.9-.1 3.5-1.4 3.4-4.4zm5.1-3.6c0-.3-.2-.5-.5-.4h-.9v-1.2h1.5c.9 0 1.3.3 1.3 1.3l.1 7.6c0 .3.2.5.5.4h.9v1.2h-1.5c-.9 0-1.3-.3-1.3-1.3l-.1-7.6zm0-5.9l1.4-.1.1 1.8-1.4.1-.1-1.8zm5.2 5.8c0-.3-.2-.5-.5-.4h-.9v-1.2h1.5c.9 0 1.3.3 1.3 1.1v1.5c.5-1.6 1.6-2.8 3.3-2.9.3 0 .6.1.6.1v1.5s-.3-.1-.5 0c-1.5 0-2.6 1.2-3.1 2.7-.2.7-.2 1.4-.3 2.1v4.4h-1.5l.1-8.9zm7.7-.1c0-.3-.2-.5-.5-.4h-.9V363h1.5c.9 0 1.3.3 1.3 1.3l.1 7.6c0 .3.2.5.5.4h.9v1.2h-1.5c-.9 0-1.3-.3-1.3-1.3l-.1-7.6zm-.1-5.9l1.4-.1.1 1.8-1.4.1-.1-1.8zm8.9 3.8c2.8 0 3.6 1.7 3.6 1.7v-.4c0-.7.3-1.2 1.2-1.1h1.5v1.2h-.8c-.3 0-.5.2-.4.5l.1 8.6c.1 3.3-2.4 4.6-5 4.7-1.2 0-2.4-.3-3.4-.8l.5-1.2s1.3.7 2.8.7c2.1 0 3.7-1 3.7-3.4v-1.6c-.6 1.2-1.6 1.9-3.3 1.9-2.8 0-4.7-2.2-4.7-5.3-.4-3.2 1.3-5.4 4.2-5.5zm3.5 5.4c0-3.1-1.6-4-3.4-4-2.1 0-3.3 1.5-3.2 4 .1 2.5 1.4 4.2 3.5 4.1 1.6 0 3.2-1 3.1-4.1zm9.2-5.4c2.9-.1 4.5 2.2 4.4 4.8 0 .2-.1.7-.1.7l-8.1.1c0 2.7 1.9 4.2 4.1 4.1 2 0 3.1-1.4 3.1-1.4l.7 1.1s-1.5 1.6-3.9 1.6c-3.1 0-5.5-2.2-5.6-5.5.3-3.4 2.5-5.5 5.4-5.5zm3 4.4c-.1-2.2-1.4-3.3-3-3.2-1.7 0-3.3 1.1-3.6 3.3l6.6-.1zm4.3-2.6c0-.3-.2-.5-.5-.4h-.9v-1.2h1.5c.9 0 1.3.3 1.3 1.1v1.2c.3-.9 1.7-2.7 4.2-2.7 2.6-.1 3.6 1.4 3.6 4l.1 5c0 .3.2.5.5.4h.9v1.2h-1.5c-.9 0-1.3-.3-1.3-1.3l-.1-5.1c0-1.6-.3-3.2-2.3-3.1-1.8.1-3.3 1.3-3.8 3.1-.1.5-.1.9-.2 1.4l.1 5.1h-1.5l-.1-8.7zm12.9-.7l-1.4.1v-1.2h1.5l-.1-2.9h1.5l.1 2.9h2.7v1.2h-2.7l.1 5.4c0 2.5 1.6 2.8 2.4 2.8.3 0 .5-.1.5-.1v1.2h-.6c-1.2 0-3.6-.3-3.8-3.8l-.2-5.6zm7 .4c0-.3-.2-.5-.5-.4h-.9v-1.2h1.5c.9 0 1.3.3 1.3 1.3l.1 7.6c0 .3.2.5.5.4h.9v1.2h-1.5c-.9 0-1.3-.3-1.3-1.3l-.1-7.6zm-.2-5.9l1.4-.1.1 1.8-1.4.1-.1-1.8z"/></svg>