<svg baseProfile="basic" xmlns="http://www.w3.org/2000/svg" viewBox="0 0 313.5 421.5"><style>.st0{fill:none;stroke:#f3352f;stroke-width:3;stroke-linecap:round;stroke-miterlimit:10;stroke-dasharray:0,9}.st1{fill:#00295a}.st2{fill:#fff}</style><path class="st0" d="M117.3 61.7c62.6-16.6 126.6 20.7 143.1 83.3s-20.6 126.5-83.2 143.1c-62.6 16.6-126.6-20.7-143.1-83.3-16.6-62.4 20.6-126.6 83.2-143.1z"/><path class="st1" d="M155.3 264.5c36.7.1 66.4 30 66.3 66.7-.1 36.7-30 66.4-66.7 66.3s-66.4-30-66.3-66.7c.2-36.7 30-66.4 66.7-66.3zm4.3-10.5h-.4c-3.2-.2-4.6-.6-4.6-3 0-2.3-.1-5.1.4-7.2.4-2 .5-6.4.3-7-.1-.3-.4-1.9-.7-3.7-.3-1.9-.6-4.1-.8-4.7-.3-1.1.7-6.1 1.4-6.8.1-.2.4-.4.6-.6.6-.5 1.4-1.2.9-2-.4-1-1.3-5.2-.6-9 .8-3.7 1.5-10.3 1.3-11.3-.1-.4 0-.8.1-1.4.1-.8.3-1.6-.3-2.4-.8-1.2-.8-2.7-.8-3.8v-.3c0-.5-.2-2.1-.3-3.6-.2-1.6-.4-3.3-.4-3.9v-2.6c.1-3.2.1-8.6.1-11.9 0-1.2-.1-3.1-.1-5.2-.1-4.8-.3-11.9-.6-13.1-.3.6-.7 2.4-1.1 4.2-.4 1.9-.9 3.9-1.4 5.2-.4 1-.7 1.9-1.2 2.9-.8 1.6-1.3 3.1-1.3 4.3 0 3.7-.1 6-.7 6.9-.7 1.1-1.3 2.3-1.1 4 .2 1.6 0 2.7-.5 2.9-.3.2-.7.6-.9.7.3.2 1 1.3 1.1 2.9 0 1.7.9 8.7 2.1 12.3 1.1 3.7 3.8 16.9 3.4 20.1-.3 3.2-1.1 9.2-1.3 9.8-.1.2 0 .3 0 .6.1.3.2.8.3 1.9 0 .4.1.7 0 1 0 1.4.2 2.1.3 2.6.1.3.2.7.3 1.3.2 1 .6 2.5.9 3.4.4 1.4 1.1 5.3-.2 6.1-.6.4-3 1.5-6.1 1.5-.2 0-.4 0-.5-.1-.3 0-.6-.1-.8-.1-.5-.1-1-.1-1.5-.1-1.3 0-2.5.3-5.3 1.4-2.3 1.1-6.6 2.6-10 2.7-1.3 0-2.4-.3-3.2-.8-2.8-1.8-3.6-4.3-2.8-5.6.7-1.2 2.9-2.1 4.6-2.5 1.5-.3 3.8-1 5.7-2.8 1.7-1.3 3.3-3.3 3.7-3.8-.1-.1-.3-.2-.3-.5-.1-.3.1-.6.3-1 .2-.3.5-.5.8-.8.3-.3.8-.6.7-.9 0-.2-.2-.3-.4-.5-1.3-.9-2.7-5.4-2.3-7.6.1-.8.3-1.7.5-2.8.3-2.2.8-4.6.7-5.3 0-.4-.7-3.9-1.4-7.5-1.2-5.6-2.4-11.9-2.4-12.7.2-1.2 0-2-.4-2.3-.5-.4-.9-3.9-.7-4.6.3-.6.2-1.4-.4-2.7l-.3-.8c-.5-1.1-1.2-2.5-.9-4.6.1-1.2.4-3.6.7-6.2.3-3.4.8-7.2 1.1-8.6.2-1 .4-2.9.7-5.1.3-3.4.8-7.3 1-8.8.4-2.3 1-8.1 1-8.7-.3-.3-1.6-2.2-1.6-2.8.1-.8.4-2 .8-3.3.4-1.3.7-3.1 1.3-5 .8-3.7 1.5-7.7 1.8-10.1.5-3.8 2-10.4 2.3-11.3-.8-.1-5.5-.9-7.3-1.4-1.9-.5-2.4-1.5-2.9-3.6-.1-.9-.2-1.7-.4-2.4 0-1-.2-1.9-.6-2.4-.5-.9.3-3.1 1-3.8.1-.2.4-.4.6-.5.5-.4.9-.9 1.3-2.4.6-2.1 2.4-6.6 2.8-7.1.2-.3.8-1 .7-1.5-.1-.3.1-.8.6-1.6.4-.6.7-1.3.7-1.7 0-.4.1-.8.4-1.1.2-.5.4-.9.4-1.5.1-.6.4-1.6.8-2.7.4-.9.7-1.8.7-2.2-.1-.9.2-2.3.9-3.7.6-1.3 1.9-1.5 2.3-1.4 1-1 4.7-3 6.8-4 1.5-.7 2.7-1.2 3.2-1.5-.2-2.6-.1-3 0-3 .1-.3 1.3-1.4 2-2.2v-.1c0-.1-.1-.3 0-.5-.1-.7-.2-2-1.2-2.7-1.2-.9-2.2-3-2.7-6l-.9-5.1c0-.1-.4-4.8-1.1-7-.8-2.4-.1-4.6.1-5.5.3-.9 1.1-1.5 1.4-1.7-.2-.4-.7-1.8-.1-3.2.4-.9 1.4-1.7 2.6-2.2 1.2-.4 2.7-.6 4.5-.5 2.1-.1 4.2.3 5.8.5 1.1.2 1.8.2 2.3.2h.1c2 0 5.4 2.1 6.2 5.4.8 3.3.9 4.3.9 6.3-.1 1.3-.4 2.9-.8 4.5-.2.9-.4 1.7-.5 2.6-.4 1.5-.7 2.2-1.1 2.9-.2.4-.4.7-.6 1.3-.1.2-.2.6-.2.8-.4 1-.6 1.8-.5 2.8 0 .9.1 1.8.1 2.3h.2v.2c0 .1.2.5.4.7.3.5.6 1 .6 1.3 0 .2 0 .4.1.7.2.1.8.2 1.2.8.6.8 2.7 3.1 3 3.4.3 0 1.9.2 6.2 1.4l.3.1c2.7.7 7.2 1.9 7.4 5.3l.1 1.1c.3 2.1.5 4.2-.6 6.2-1.2 2.3-2.3 5.3-2.8 8.1-.5 2.6-1.1 5-2 6.3s-1 1.9-1.1 3.4c0 .9-.4 1.6-.8 2.4-.3.5-.6 1-.8 1.6-.3.8-.6 2.1-1 3.3-.4 1.3-.5 2.1-.7 2.3-.1.3.3 4.7.9 6.7.2 1 1.6 9 2.8 17.2 2.5 15.9 2.2 15.9 2.1 16.1-.1 0-.3.2-.5.3-1.2.8-4.1 2.8-5.5 3.4-1.3.4-2.1.8-2.3.8-.1.8-.6 6.9-1.2 8.5-.7 1.7-1.2 3.3-1.1 5.7 0 2-.5 3.6-1.3 5.1-.5.9-.1 5.5.1 8 .2 1.9.3 3-.1 4.4-.2.6-.3.8-.5 1.1-.2.5-.3.7-.4 1.5 0 .6-.1 1.2-.2 1.7s-.2 1.1-.1 1.4c.1.3.1.5.1.8s0 .7.1 1.1c.1.5.1.8.1 1.1 0 .3-.1.8 0 1.3.3 1.2.6 3.3.5 4.6 0 .4-.1 1.5 0 2.8.1 2.6.1 6.2-.1 8.3-.2 1.1-.2 2.7-.3 4.3-.2 3.5-.5 7.5-.9 9.8-.2 1.2-.4 2.5-.7 4-.5 3-1.1 6.3-1.3 7.7-.1.6-.1 1.3 0 1.9 0 1.6.1 3-.8 4.2-.4.7-.8 1.1-1.1 1.5-.4.6-.6.9-.6 1.3 0 .3.2 1.2.5 2.4.3 1.6.8 3.6.8 4.7v.6c.1 1.7.3 4.1-.9 5.4-1 1.8-3.2 3.4-6.7 3.4"/><path class="st2" d="M130.2 314.9s1.6 2.5 4.9 2.6c3 0 5.2-2.1 5.4-5 0-2.9-2.3-4.9-5.4-4.9-2.4 0-4.1 1.2-4.1 1.2l-1-.5 1-8.4c.2-1.3.5-1.8 1.8-1.9h6.9c1.2 0 1.8.5 1.8 1.9v2.1h-2l.1-1.5c0-.4-.3-.7-.7-.7h-5.3c-.4 0-.6.1-.7.7l-.6 4.8c-.1.8-.2 1.2-.2 1.2h.1s1.4-.7 3.2-.8c4.2 0 7.4 3.1 7.3 7-.1 3.7-3.1 6.8-7.5 6.8-4.1-.1-6.2-3-6.2-3l1.2-1.6zm15.7-6.4c0-6 1.9-10.9 7.4-10.8 5.5.1 7.2 4.9 7.1 10.9 0 6.1-1.9 11-7.4 10.8-5.4.1-7.2-4.8-7.1-10.9zm12.4.2c.1-5-1.1-9-5.1-9-4-.1-5.2 3.8-5.1 8.9s1.1 9.1 5.1 9c3.9.1 5-3.9 5.1-8.9zm5.8-6.7c0-2.3 1.9-4.2 4.3-4.1 2.4 0 4.3 1.9 4.2 4.2 0 2.3-1.9 4.2-4.3 4.1-2.4 0-4.2-1.9-4.2-4.2zm16.3-3.7h2.2l-16.3 21h-2.2l16.3-21zm-9.6 3.7c.1-1.4-1.1-2.5-2.5-2.5-1.4-.1-2.4 1.2-2.4 2.5-.1 1.3 1.1 2.5 2.4 2.4 1.4 0 2.5-.9 2.5-2.4zm7.6 9.4c2.4 0 4.3 1.9 4.2 4.3 0 2.3-1.9 4.2-4.3 4.1-2.4 0-4.3-1.9-4.2-4.2-.1-2.4 1.9-4.2 4.3-4.2zm-.1 6.7c1.4.1 2.5-1.1 2.4-2.4.1-1.4-1.1-2.5-2.5-2.5s-2.4 1.2-2.4 2.5c0 1.2 1.1 2.3 2.5 2.4zm-70.9 12.7c0-.3-.1-.5-.4-.4h-.8v-1.2l1.5.1c.8 0 1.2.4 1.1 1.3l-.1 7.8c0 2.3 1.4 3.8 3.7 3.8 2.3 0 3.8-1.4 3.8-3.7l.1-7.8c0-.8.4-1.2 1.3-1.1l1.5.1v1.2h-.8c-.3 0-.5.1-.4.4l-.1 7.5c0 3-2.2 4.9-5.2 4.8-3 0-5.1-2.1-5-5l-.2-7.8zm18.1 2.2c2.9 0 5.2 2.3 5.1 5.2 0 3-2.4 5.2-5.3 5.3-2.9 0-5.2-2.3-5.2-5.3.1-3.1 2.6-5.2 5.4-5.2zm-.1 9.1c2.1 0 3.9-1.6 3.9-4 0-2.3-1.6-4-3.8-4-2.1 0-4 1.6-3.9 3.8.1 2.4 1.7 4.2 3.8 4.2zm7.8-7.2c0-.3-.1-.5-.4-.4h-.8v-1.1l1.4.1c.8 0 1.2.4 1.2 1.2v1.1c.5-1.4 2-2.5 3.5-2.5 1.9 0 2.7.8 3.1 2.5.6-1.3 1.9-2.5 3.7-2.4 2.4 0 3.2 1.4 3.2 3.9v4.7c0 .3.1.5.4.4h.8v1.1l-1.4-.1c-.8 0-1.2-.4-1.1-1.3l.1-4.8c0-1.6-.3-2.9-2.1-2.9-1.5-.1-2.8 1.4-3.1 2.8-.1.4-.2.9-.3 1.4v4.7l-1.4-.1.1-5.9c.1-1.5-.2-3-2-2.9-1.6 0-2.9 1.4-3.3 2.8-.1.4-.2.9-.2 1.3v4.7l-1.4-.1v-8.2zm18.4.2c0-.3-.1-.5-.4-.4h-.8v-1.1l1.4.1c.8 0 1.2.4 1.1 1.3l-.1 7.1c0 .3.1.5.4.4h.8v1.1l-1.4-.1c-.8 0-1.2-.4-1.1-1.3l.1-7.1zm0-5.5h1.2v1.6h-1.2v-1.6zm4.7 5.5c0-.3-.1-.5-.4-.4h-.8v-1.1l1.4.1c.8 0 1.2.4 1.2 1.2v1.1c.4-.9 1.6-2.4 3.9-2.5 2.5 0 3.2 1.4 3.3 3.9v4.7c0 .3.1.5.4.4h.8v1.1l-1.4-.1c-.8 0-1.2-.4-1.1-1.3l.1-4.8c0-1.6-.3-2.9-2.1-2.9-1.6 0-3.1 1.1-3.6 2.7-.1.4-.2.9-.2 1.3l-.1 4.8-1.4-.1v-8.1zm12.2.1c0-.3-.1-.5-.4-.4h-.8v-1.1l1.4.1c.8 0 1.2.4 1.1 1.3l-.1 7.1c0 .3.1.5.4.4h.8v1.1l-1.4-.1c-.8 0-1.2-.4-1.1-1.3l.1-7.1zm0-5.5h1.2v1.6h-1.2v-1.6zm10.2 5.2h-1.2v-1.1h1.3v-2.7h1.3v2.7h2.5v1.1h-2.5l-.1 5c0 2.3 1.4 2.7 2.2 2.6h.4v1.2h-.6c-1.1 0-3.4-.4-3.3-3.7v-5.1zm6.5.4c0-.3-.1-.5-.4-.4h-.8v-1.1l1.4.1c.8 0 1.2.3 1.2 1.2l-.1.6v.7c.5-1.4 1.6-2.5 3.1-2.6.3 0 .5.1.5.1v1.3s-.2-.1-.5-.1c-1.4-.1-2.4 1.1-2.8 2.5-.3.7-.3 1.3-.3 1.9l-.1 4.1-1.4-.1.2-8.2zm11.5 2.4h.5v-.1c-.1-2.1-.8-2.8-2.5-2.8-.5 0-1.9.1-2 .9l-.1.6h-1.2v-.9c.1-1.4 2.4-1.7 3.2-1.7 3.1 0 3.8 1.7 3.8 3.9l-.1 4.8c0 .3.1.5.4.4h.8v1.1l-1.4-.1c-.8 0-1.1-.5-1.1-1.2v-.7s-.8 2-3.2 2.1c-1.6 0-3.3-1-3.4-2.9.2-3.4 4.6-3.4 6.3-3.4zm-2.5 5.1c1.9 0 3-1.9 3.1-3.6v-.4l-.5-.1c-1.6 0-4.7 0-4.7 2.1-.1 1.1.7 2 2.1 2zm-81.1 13.5c0-.3-.1-.5-.4-.4h-.8v-1.1l1.4.1c.8 0 1.2.4 1.1 1.3l-.1 7.1c0 .3.1.5.4.4h.8v1.1l-1.4-.1c-.8 0-1.2-.4-1.1-1.3l.1-7.1zm.1-5.6h1.2v1.6h-1.2v-1.6zm13.7 3.8c2.4 0 3.2 1.8 3.2 1.8v-3.9c0-.3-.1-.5-.4-.4h-.8v-1.1l1.4.1c.8 0 1.2.4 1.1 1.3l-.1 11c0 .3.1.5.4.4h.8v1.1l-1.4-.1c-.8 0-1.1-.5-1.1-1.2 0-.4.1-.6.1-.6s-.8 2-3.4 1.9c-2.7 0-4.3-2.2-4.2-5.2-.1-3.1 1.8-5.2 4.4-5.1zm3.2 5.3c0-2-.9-4-3.1-4-1.8 0-3.3 1.5-3.2 4 0 2.4 1.3 4 3.1 4 1.5-.1 3.1-1.2 3.2-4zm4.8-3.4c0-.3-.1-.5-.4-.4h-.8v-1.1l1.4.1c.8 0 1.2.4 1.1 1.3l-.1 7.1c0 .3.1.5.4.4h.8v1.1l-1.4-.1c-.8 0-1.2-.4-1.1-1.3l.1-7.1zm0-5.5h1.2v1.6h-1.2v-1.6zm4.8 5.6c0-.3-.1-.5-.4-.4h-.8V355l1.4.1c.8 0 1.2.3 1.2 1.2l-.1.6v.7c.5-1.4 1.6-2.5 3.1-2.6.3 0 .5.1.5.1v1.3s-.2-.1-.5-.1c-1.4-.1-2.4 1.1-2.8 2.5-.3.7-.3 1.3-.3 1.9l-.1 4.1-1.4-.1.2-8.2zm7.2 0c0-.3-.1-.5-.4-.4h-.8V355l1.4.1c.8 0 1.2.4 1.1 1.3l-.1 7.1c0 .3.1.5.4.4h.8v1.1l-1.4-.1c-.8 0-1.2-.4-1.1-1.3l.1-7.1zm0-5.5h1.2v1.6h-1.2V351zm8.3 3.8c2.7 0 3.2 1.7 3.2 1.7v-.4c0-.7.4-1.1 1.2-1l1.4.1v1.1h-.8c-.3 0-.5.1-.4.4l-.1 8.1c0 3.1-2.4 4.4-4.8 4.2-1.1 0-2.3-.3-3.2-.8l.6-1.1s1.2.7 2.7.7c2 0 3.5-.9 3.5-3.1v-1.5c-.7 1.1-1.7 1.6-3.1 1.7-2.7 0-4.4-2.2-4.3-5.1-.2-3 1.5-5.1 4.1-5zm3.1 5c0-2.9-1.3-3.8-3.1-3.8-2 0-3.1 1.3-3.1 3.7s1.2 3.9 3.2 3.9c1.8.1 3.1-.9 3-3.8zm8.8-4.9c2.7 0 4.1 2.1 4.1 4.6-.1.2-.1.6-.1.6l-7.6-.1c.1 2.5 1.8 4 3.7 4 1.8 0 3-1.2 3-1.2l.6 1s-1.5 1.4-3.7 1.4c-2.9 0-5.2-2.2-5-5.2.2-3.1 2.3-5.1 5-5.1zm2.7 4.2c-.1-2.1-1.3-3.1-2.8-3.1-1.6 0-3.1 1-3.4 3l6.2.1zm4.1-2.3c0-.3-.1-.5-.4-.4h-.8v-1.1l1.4.1c.8 0 1.2.4 1.2 1.2v1.1c.4-.9 1.6-2.4 3.9-2.5 2.5 0 3.2 1.4 3.3 3.9v4.7c0 .3.1.5.4.4h.8v1.1l-1.4-.1c-.8 0-1.2-.4-1.1-1.3l.1-4.8c0-1.6-.3-2.9-2.1-2.9-1.6 0-3.1 1.1-3.6 2.7-.1.4-.2.9-.2 1.3l-.1 4.8-1.4-.1v-8.1zm12.1-.3h-1.2v-1.1h1.3v-2.7h1.3v2.7h2.5v1.1h-2.5l-.1 5c0 2.3 1.4 2.7 2.2 2.6h.4v1.2h-.6c-1.1 0-3.4-.4-3.3-3.7v-5.1zm6.5.5c0-.3-.1-.5-.4-.4h-.8v-1.1l1.4.1c.8 0 1.2.4 1.1 1.3l-.1 7.1c0 .3.1.5.4.4h.8v1.1l-1.4-.1c-.8 0-1.2-.4-1.1-1.3l.1-7.1zm-.1-5.5h1.2v1.6h-1.2v-1.6z"/></svg>