<svg viewBox="0 0 759 488" xmlns="http://www.w3.org/2000/svg"><path d="M539.6 83c84 0 152.1 68.1 152.1 152.1s-68.1 152.1-152.1 152.1-152.1-68.1-152.1-152.1S455.6 83 539.6 83z" fill="#00295a" opacity=".1"/><path d="M744.8 2.4H13.3" fill="none" stroke="#4e5594" stroke-width="3" stroke-linecap="round" stroke-miterlimit="10" stroke-dasharray="0 9"/><path d="M232.8 314.6c28.7 0 51.9 23.3 51.9 51.9 0 28.7-23.3 51.9-51.9 51.9-28.7 0-51.9-23.3-51.9-51.9-.1-28.7 23.2-51.9 51.9-51.9z" fill="#00295a"/><path d="M75.4 314.6c28.7 0 51.9 23.3 51.9 51.9 0 28.7-23.3 51.9-51.9 51.9-28.7 0-51.9-23.3-51.9-51.9-.1-28.7 23.2-51.9 51.9-51.9z" fill="#4e5594"/><path d="M232.8 85.1c28.7 0 51.9 23.3 51.9 51.9 0 28.7-23.3 51.9-51.9 51.9-28.7 0-51.9-23.3-51.9-51.9-.1-28.6 23.2-51.9 51.9-51.9z" fill="#00295a"/><path d="M75.4 85.1c28.7 0 51.9 23.3 51.9 51.9 0 28.7-23.3 51.9-51.9 51.9-28.7 0-51.9-23.3-51.9-51.9-.1-28.6 23.2-51.9 51.9-51.9z" fill="#4e5594"/><path d="M641.4 112.6c64.7 0 117.1 52.4 117.1 117.1s-52.4 117.1-117.1 117.1-117.1-52.4-117.1-117.1c0-64.6 52.4-117.1 117.1-117.1zM441.6 89.8c64.7 0 117.1 52.4 117.1 117.1S506.3 324 441.6 324s-117.1-52.3-117.1-117S376.9 89.8 441.6 89.8z" fill="none" stroke="#f3352f" stroke-width="3" stroke-linecap="round" stroke-miterlimit="10" stroke-dasharray="0 9"/><path d="M446.8 318.6c35.5-9.5 72 11.5 81.5 47s-11.5 72-47 81.5-72-11.5-81.5-47 11.6-72 47-81.5z" fill="#4e5594"/><path d="M626.3 318.4c35.5 9.5 56.5 46 47 81.5s-46 56.5-81.5 47-56.5-46-47-81.5c9.5-35.4 46-56.5 81.5-47z" fill="#00295a"/><path d="M469.1 288.1c-.6-.6-1.4-1.3-2.3-2-.8-.6-1.6-1.2-2.2-1.8-1.1-1.1-2.4-2.2-4-3.5-.9-.7-1.2-1-1.5-1.3l-.3-.3c-.4-.3-.5-.8-.8-1.6-.1-.4-.2-.8-.4-1.4-.3-.7-.6-1.4-1-2-.4-.7-.7-1.3-.9-1.9-.3-1.3-2.3-10.6-2.9-13.4-.1-.5-.2-1.1-.3-1.7-.5-2.7-1-5.9-1.6-8.1-.9-3.3-3.5-11.5-5.1-14.3-1.4-2.5-5.1-10-5.9-12.1-.8-2-2.3-6.6-2.9-9.1-.1-.7-.5-2.3-1.2-4.9v-.1h.1c.3-.2.5-.3.6-.3 1-.6 1.6-1.2 1.8-1.3-.3-1-4-11.2-4.7-13.7s-1.5-5.6-1.5-5.7l.2-.1.2.6c.4-.2.7-.9.5-1.8-.2-.8-.3-1.1-.5-1.6-.1-.2-.2-.5-.3-.8-.3-1-.4-1.8-.4-1.8v-.2l.2.1c.1.1 1.2.8 1.4 1.3 0 .1.1.2.1.2.2.3.3.6.4 1.3.1.5.1.8.1 1.1 0 .2 0 .4.1.7.1.4 0 .9-.1 1.6 0 .3-.1.7-.1 1.1-.1 1.5.1 2.6.6 2.6h.6c.4-.1.6-.4.8-.9.3-1.1 1.2-3.1 1.4-3.4.3-.6.6-1.2.5-2.9v-1.3c0-1 0-1.9-.3-2.4-.2-.4-.7-1.1-1.1-1.8-.5-.8-1.1-1.6-1.4-2.1-.4-.7-.5-.9-.5-.9h-.4l.4-.2c1.2-.6 1.6-1.1 1.6-1.3 0-.5-1.6-6.2-2.5-8.7l-.7-1.8c-.7-1.8-1.5-3.7-2.3-6.4-.7-2.5-2.9-8-4.7-12.4-.7-1.9-1.4-3.5-1.8-4.6-.6-1.7-1.7-4-2.8-6.2s-2.2-4.5-2.8-6.2c-1.3-3.4-3.3-7.8-4.5-9.1-.6-.7-1.8-.4-3.7-.1-.5.1-.9.2-1.5.3-.9.2-2.9-.1-4.7-.3-.5 0-.9-.1-1.3-.1h-.1v-.1c-.3-.6-.5-1.4-.8-2.3-.2-.6-.4-1.3-.7-2-.2-.6-.5-1.3-.8-1.9-.4-.8-.7-1.7-1-2.5-.2-.5-.3-1-.3-1.4l-.3-1.2c-.3-.7-.5-1.7-.8-2.9-.4-1.4-.8-3-1.3-4.4-1-2.8-2.5-5.3-4.7-7.9-2.6-3.1-5.9-2.8-7.6-2.3-.8.2-1.2.4-1.2.5 0 0-.9-.1-2.1.2-1.4.4-3.4 1.4-4.6 3.8-1.2 2.3-.8 10.6 1.1 14.5 1.5 3 1.7 4.4 2.1 6.4.1.6.2 1.1.4 1.8.3 1.3.5 2.1.7 2.7.2.8.3 1.1.2 1.8 0 .2.1 1 .2 1.6.1.5.2.9.2 1.1v.1h-.1c-.7.4-1.4.9-2.1 1.4-1.4.9-2.7 1.7-3.4 2.3-.7.5-1.7.9-2.7 1.2-1.1.4-2.2.8-2.4 1.4-.2 1.2.3 7.4 1.9 13.9 1.3 5.3 1.6 9.2 2 13 .1 1 .2 1.9.3 2.8.3 2.5.6 4.5 1.2 8.1 0 .1.1.6.2 1 .1.5.2.9.2 1l.3.7c.6 1.5 1.2 2.8 1.9 4.3l.2.5c2.6 5.7 5.3 12.1 6 14.2.6 1.8 1.4 2.6 1.6 2.7l1.3-.1v.1c0 .1 0 .2.1.2.2.7.2 1.4.3 1.9.1 1 .2 1.8.7 2.9.5.9.9 1.5 1.4 2 .3.4.6.8.9 1.3.5.9 1.3 1.5 2.5 2h.1v.1c.6 2.2.9 2.8 1.3 3.8l.1.3c1.1 2.6 3.5 11.6 3.7 12.4.2.1 1.2.4 2.6.1h.1v.1c.6 1.5 1.5 3.8 2.2 5.5.3.8.6 1.5.8 2 1.6 4.1 4.2 12.8 5.5 18.1 1.1 4.5 4.4 12.7 6.8 16.2 1.3 1.9 2.5 3.9 3.6 5.6.7 1.2 1.4 2.3 2 3.2 1.4 2 3.9 6.5 4.2 7.9.2.9.7 1.7 1.1 2.5l.6 1.1v.1c.5 1 1 2.2.7 5.9-.2 1.7-.4 3.1-.5 4.2-.2 1.4-.4 2.5-.3 3.3.2 2.7.6 4.3 1.3 4.4.8.2 2.5.1 3.1 0 .3-.1.7-.5 1.3-1l.7-.7c1.8-1.7 2.1-2.9 2.1-4 .1-1.2.1-3.7.1-5 0-.5-.1-1.2-.1-2-.1-1.2-.2-2.5-.1-3.3.1-.9.1-2.6-.9-3.7-.5-.5-.9-1.2-1.2-2-.4-.7-.8-1.5-1.3-2.1-1.2-1.3-3.3-8.7-3.7-10.5-.1-.5-.3-1.2-.5-2.2-.6-3.2-1.7-8.6-3.6-14.4-.6-1.9-1.9-4.5-3-6.8-1.2-2.5-2.2-4.6-2.3-5.5-.1-.8-.8-7.6-1.5-11.1-.2-.8-.4-1.8-.8-3.1l-1.6-6.4v-.1h.1c.3-.1 1.1-.3 2-.5l1.8-.5c.8-.2 1.3-.4 1.5-.4h.1v.1c1.4 3.7 3.9 10.2 5.3 12 2 2.7 5 7.6 6.2 10.1.2.4.6 1.9 1.1 3.6.9 3.3 2.2 7.9 3.3 10.1.8 1.5 2.1 3.5 3.2 5.4 1.4 2.2 2.8 4.5 3.6 6.1 1.2 2.4 2.9 6.5 4.1 9.3.3.9.7 1.6.9 2.1.9 2.1 1.3 3.3.9 3.8-.4.4-.4 1.2-.1 2.2s1.4 2.6 2.3 3.7c.4.5 1.2 1.4 2 2.3s1.7 1.9 2.3 2.6c1.2 1.5 4.4 5.2 5 5.8.5.6 1.6.8 2.5.9h.1c1 .2 4.2.1 4.6.1.4-.1 2.3-1.9 2.1-2.7-.4-.7-1-3.1-2.1-4.4zm-80-109.2c-.7-1.7-3.1-9.7-3.1-9.7 0-.1-.2-.7-.4-1.2-.2-.6-.4-1.2-.4-1.4-.4-2.6-.4-3.5-.4-4.9 0-.9-.1-2.1-.2-4.1-.2-2.7-.7-5.2-1-6.8l.2-.1.4 1.7s1.1 3.2 1.8 5.7c1 3.3 2.1 8.6 2.4 10.6.1.9.2 1.8.2 2.6l.3 3.6c.2 2 .3 3.7.3 3.9v.7zm40.2 2.5c0-.1-2.4-6.5-3.4-8.3-.5-.9-1.1-1.7-1.6-2.5-.4-.5-.7-1-1-1.5l-.1-.1.1-.1c.2-.2.3-.4.3-.5-.4-.6-4.1-5.8-5.1-7.4-.2-.3-.5-1-.9-1.8-.3-.7-.7-1.5-.9-1.8-.6-1.8-1-3.5-1.3-5-.1-.7-.3-1.4-.5-2.1-.8-3.4-1.7-9.7-1.7-9.7l-.1-1 .4.9c0 .1 3.2 7.8 4.3 10.7.4 1.1 2.6 5.5 2.6 5.5 0 .1 2.6 6.9 3.9 9.6.3.7.6 1.3.9 1.8.7 1.4 1 2.1 1.3 3.1.3 1.2 1.7 5.4 1.9 6l1.2.2-.2.2s-.2.2-.4.6c-.1.3.2 2.1.5 3.1z" fill="#4e5594"/><path d="M633.1 309.3l-.4-.1c-3.1-1-4.3-1.7-3.7-4.1.6-2.2 1.2-5 2.2-6.9.9-1.8 2.2-6.1 2.1-6.7 0-.3.1-1.9.3-3.7.2-1.9.4-4.1.4-4.7 0-1.1 2.3-5.7 3.1-6.3l.7-.5c.7-.4 1.6-.9 1.4-1.7-.2-1.1 0-5.3 1.8-8.8 1.7-3.4 4.1-9.6 4.1-10.6 0-.4.2-.8.4-1.3.3-.7.7-1.5.4-2.4-.5-1.4-.1-2.8.2-3.9l.1-.3c.1-.5.4-2.1.6-3.6.2-1.6.5-3.3.6-3.9.1-.3.3-1.3.7-2.5.9-3.1 2.3-8.3 3.1-11.5.3-1.2.7-3 1.2-5.1 1.1-4.7 2.7-11.6 2.8-12.8-.4.5-1.3 2.2-2.1 3.8-.9 1.7-1.9 3.6-2.6 4.7-.6.9-1.2 1.7-1.9 2.5-1.1 1.4-2.1 2.7-2.4 3.9-.9 3.6-1.7 5.8-2.5 6.5-.9.9-1.9 1.9-2.1 3.6-.2 1.6-.7 2.6-1.2 2.7-.3.1-.8.4-1 .5.2.3.7 1.5.3 3-.4 1.7-1.3 8.6-1.2 12.5.1 3.8-.7 17.3-1.9 20.3-1.1 3-3.5 8.6-3.8 9.2-.1.2-.1.3-.1.6s0 .8-.2 1.9c-.1.4-.1.7-.2 1-.3 1.4-.4 2.1-.4 2.6v1.3c0 1-.1 2.5 0 3.5.1 1.5-.3 5.4-1.8 5.8-.7.2-3.2.7-6.2-.1-.2 0-.4-.1-.5-.2-.3-.1-.6-.2-.8-.3-.5-.2-1-.3-1.4-.4-1.3-.3-2.5-.4-5.4 0-2.5.4-7.1.8-10.4 0-1.3-.3-2.3-.9-2.9-1.6-2.2-2.5-2.4-5.1-1.2-6.1 1-1 3.4-1.3 5.1-1.3 1.5 0 3.9 0 6.2-1.2 2-.9 4-2.3 4.5-2.7-.1-.1-.2-.3-.2-.6s.2-.6.5-.9c.3-.2.6-.4 1-.6s.9-.4.9-.7c0-.2-.1-.3-.3-.6-1.1-1.2-1.2-5.9-.3-8 .3-.7.7-1.6 1.2-2.6.9-2 1.9-4.3 2.1-5 .1-.4.3-3.9.5-7.6.3-5.7.7-12.2 1-12.9.5-1.1.5-1.9.2-2.3-.4-.5.1-4 .5-4.6.4-.5.5-1.3.3-2.7l-.1-.8c-.2-1.2-.5-2.7.3-4.7.4-1.1 1.3-3.4 2.3-5.8 1.2-3.2 2.6-6.8 3.2-8.1.4-.9 1.1-2.7 1.9-4.8 1.2-3.2 2.6-6.9 3.3-8.3 1-2.1 3-7.6 3.2-8.2-.2-.4-1-2.5-.8-3.1.3-.8.9-1.8 1.6-3s1.5-2.8 2.5-4.6c1.7-3.4 3.4-7.1 4.3-9.3 1.5-3.6 4.6-9.5 5.1-10.3-.8-.3-5.1-2.3-6.7-3.2-1.7-1-2-2.1-1.9-4.2.1-.9.2-1.7.3-2.4.2-1 .3-1.9.1-2.4-.3-1 1.1-2.9 1.9-3.5.2-.2.5-.3.7-.4.6-.3 1.1-.7 1.9-2 1.2-1.9 4-5.7 4.5-6.1.3-.2 1-.8 1-1.3 0-.3.3-.7.9-1.4.5-.5 1-1.1 1.1-1.5s.3-.7.6-1c.3-.4.6-.8.7-1.4.2-.6.8-1.5 1.5-2.4.6-.8 1.2-1.6 1.3-2 .1-.9.8-2.2 1.8-3.4.9-1.1 2.2-.9 2.5-.8 1.2-.7 5.3-1.7 7.6-2.1 1.6-.3 2.9-.5 3.4-.6.5-2.6.7-2.9.8-2.9.2-.3 1.6-1.1 2.5-1.6v-.1c0-.1 0-.3.1-.5.1-.7.4-2-.4-2.9-1-1.2-1.3-3.5-1-6.5l.4-5.1c0-.1.8-4.7.7-7-.1-2.5 1.1-4.5 1.6-5.3s1.4-1.2 1.7-1.3c-.1-.4-.2-1.9.7-3.1.6-.8 1.7-1.3 3.1-1.4 1.3-.1 2.8.1 4.5.6 2 .5 4 1.3 5.5 2 1 .4 1.7.7 2.2.8h.1c1.9.5 4.6 3.4 4.6 6.8-.1 3.4-.2 4.4-.8 6.3-.4 1.2-1.1 2.7-1.9 4.2l-1.2 2.4c-.7 1.4-1.3 2-1.8 2.6-.3.3-.6.6-.9 1.1-.2.2-.3.5-.4.7-.6.9-1.1 1.6-1.2 2.6-.2.9-.4 1.8-.5 2.2h.2v.2c0 .1.1.5.2.8.2.6.4 1.1.3 1.4 0 .2-.1.4-.1.7.2.1.7.4 1 1.1.4.9 1.8 3.7 2 4.1.3.1 1.8.7 5.7 3l.3.2c2.4 1.4 6.4 3.7 5.8 7l-.2 1.1c-.3 2.1-.6 4.2-2.2 5.9-1.8 1.9-3.5 4.5-4.7 7.1-1.2 2.4-2.3 4.6-3.5 5.5s-1.5 1.6-1.9 3c-.2.9-.8 1.5-1.4 2.1-.4.4-.8.8-1.1 1.4-.5.7-1.2 1.9-1.8 3-.7 1.2-1.1 1.9-1.3 2.1-.2.3-.9 4.6-.9 6.7 0 1-.8 9.1-1.7 17.4-1.7 16-2 16-2.1 16.1-.1 0-.3.1-.6.2-1.4.5-4.7 1.7-6.2 1.8-1.4.1-2.2.2-2.4.2-.3.8-2.3 6.5-3.3 8-1.1 1.5-2 2.9-2.6 5.2-.5 1.9-1.4 3.4-2.5 4.7-.7.8-1.5 5.3-1.9 7.8-.3 1.9-.5 3-1.2 4.2-.3.5-.5.7-.7 1-.3.4-.5.6-.7 1.4-.1.6-.4 1.1-.6 1.6s-.4 1-.4 1.3 0 .5-.1.8-.2.7-.2 1.1c0 .5-.1.8-.2 1.1s-.3.7-.3 1.3c0 1.2-.3 3.3-.7 4.6-.1.4-.4 1.4-.7 2.7-.6 2.5-1.5 6-2.2 8-.4 1-.9 2.6-1.4 4.1-1.1 3.3-2.4 7.1-3.4 9.3-.5 1.1-1.1 2.3-1.7 3.7-1.3 2.8-2.7 5.8-3.2 7.2-.2.6-.4 1.2-.5 1.8-.4 1.5-.7 2.9-1.8 3.9-.6.6-1 .9-1.4 1.2-.5.5-.8.7-.9 1.1-.1.3-.1 1.2-.2 2.4-.1 1.6-.2 3.7-.4 4.7l-.1.6c-.3 1.7-.7 4-2.3 5-1.7 1.1-4.2 2-7.6 1.1" fill="#00295a"/><path d="M300.3 266.4H-.4M346.7 7.2v482.3M151.7 83v165.9m0 68.9v165.9" fill="none" stroke="#4e5594" stroke-width="3" stroke-linecap="round" stroke-miterlimit="10" stroke-dasharray="0 9"/><path d="M460.2 42.8c0-.4-.2-.6-.6-.6h-1.2v-1.7h2.1c1.2 0 1.7.5 1.7 1.7v15.6c0 .4.2.6.6.6h6.5c.4 0 .6-.2.6-.6v-1.3h1.9v2c0 1.2-.5 1.7-1.7 1.7h-8.2c-1.2 0-1.7-.5-1.7-1.7zm14-.6h-1.8v-1.7h11.3c1.2 0 1.7.5 1.7 1.7v2h-1.9v-1.3c0-.4-.2-.6-.6-.6h-6.7v7.2h7.4v1.7h-7.4v6.7c0 .4.2.6.6.6h6.9c.4 0 .6-.2.6-.6v-1.3h1.8v2c0 1.2-.5 1.7-1.7 1.7h-8.5c-1.2 0-1.7-.5-1.7-1.7zm13 16.3h.4c.5 0 .8-.1 1-.6l6.4-17.4h2.1l6.4 17.4c.2.5.5.6 1 .6h.3v1.7h-.9c-1.4 0-1.8-.3-2.3-1.6l-1.7-4.7h-7.8l-1.7 4.7c-.5 1.3-.9 1.6-2.3 1.6h-.9zm12.2-6.3l-2.6-7c-.3-.9-.8-2.6-.8-2.6h-.1s-.4 1.6-.8 2.6l-2.6 7zm8.8-10h-1.8v-1.7h7.9c5.9 0 9.9 3.6 9.9 9.8 0 6.3-4 9.9-9.9 9.9h-4.4c-1.2 0-1.7-.5-1.7-1.7zm2.6 16.3h3.3c4.9 0 8-2.9 8-8.1s-3.2-8.1-8-8.1h-3.9v15.6c0 .4.2.6.6.6zm17.5-16.3h-1.8v-1.7h11.3c1.2 0 1.7.5 1.7 1.7v2h-1.9v-1.3c0-.4-.2-.6-.6-.6h-6.7v7.2h7.4v1.7h-7.4v6.7c0 .4.2.6.6.6h6.9c.4 0 .6-.2.6-.6v-1.3h1.8v2c0 1.2-.5 1.7-1.7 1.7H530c-1.2 0-1.7-.5-1.7-1.7zm15.6 0h-1.8v-1.7h8.4c3.3 0 5.7 2.2 5.7 5.6 0 3.1-1.9 4.9-3.8 5.3v.1s.4.2.7.8l2.8 5.6c.3.6.7.6 1.4.6h.4v1.7h-.9c-1.6 0-2.1-.2-2.7-1.5l-2.8-5.6c-.5-1-.9-1.2-2-1.2H546v8.3h-2v-18zm6.4 8c2.4 0 3.8-1.5 3.8-4 0-2.4-1.5-3.9-3.8-3.9h-4.4v7.9zm9.9 6.1s2 2.4 5.1 2.4c2.2 0 3.9-1.4 3.9-3.5 0-4.9-9.7-3.9-9.7-10 0-2.7 2.4-5 6-5 1.9 0 5.3.8 5.3 3.4V45h-1.9v-1c0-1.2-1.6-2-3.4-2-2.6 0-4 1.5-4 3.2 0 4.6 9.7 3.4 9.7 10 0 2.9-2.3 5.4-6 5.4-4 0-6.3-2.8-6.3-2.8zm15.2-13.5c0-.4-.2-.6-.6-.6h-1.2v-1.7h2.1c1.2 0 1.7.5 1.7 1.7v7.3h11.3v-7.3c0-1.2.5-1.7 1.7-1.7h2.1v1.7h-1.2c-.4 0-.6.2-.6.6v17.4h-2v-9h-11.3v9h-2zm19.5 15.7h1.9V42.3h-1.9v-1.7h5.6v1.7h-1.9v16.2h1.9v1.7h-5.6zm10-16.3h-1.8v-1.7h8.3c3.5 0 6.1 2.3 6.1 5.9 0 3.7-2.6 6-6.1 6h-4.5v7.7h-2zm6.2 8.5c2.6 0 4.3-1.6 4.3-4.3s-1.7-4.2-4.3-4.2h-4.3v8.5zM1.6 42.2H-.2v-1.7h11.1c1.2 0 1.7.5 1.7 1.7v1.9h-1.8v-1.3c0-.4-.2-.6-.6-.6H3.6v7.1h7.3V51H3.6v6.6c0 .4.2.6.6.6H11c.4 0 .6-.2.6-.6v-1.3h1.8v1.9c0 1.2-.5 1.7-1.7 1.7H3.3c-1.2 0-1.7-.5-1.7-1.7v-16zm23.4-2c5.6 0 10 4.4 10 9.9 0 2.5-.9 4.9-2.4 6.7l2.4 2.4-1.2 1.2-2.4-2.4c-1.7 1.5-3.9 2.3-6.3 2.3-5.5 0-9.9-4.5-9.9-10.2 0-5.6 4.3-9.9 9.8-9.9zm0 18.3c3.1 0 5-1.8 5-1.8l-2.3-2.4 1.2-1.2 2.3 2.4c1.1-1.4 1.8-3.4 1.8-5.4 0-4.6-3.5-8.1-8-8.1-4.4 0-7.8 3.5-7.8 8.1 0 4.7 3.4 8.4 7.8 8.4zm13.8-15.6c0-.4-.2-.6-.6-.6H37v-1.7h2.1c1.2 0 1.7.5 1.7 1.7v11c0 3.2 2.1 5.3 5.2 5.3 3.2 0 5.3-2 5.3-5.3v-11c0-1.2.5-1.7 1.7-1.7h2.1v1.7h-1.2c-.4 0-.6.2-.6.6v10.5c0 4.2-2.9 7-7.2 7s-7.2-2.8-7.2-7zm18.4 15.4H59v-16h-1.8v-1.7h5.6v1.7h-1.9v16h1.9V60h-5.6zM67 42.9c0-.4-.2-.6-.6-.6h-1.2v-1.7h2.1c1.2 0 1.7.5 1.7 1.7v15.5c0 .4.2.6.6.6h6.5c.4 0 .6-.2.6-.6v-1.3h1.8v1.9c0 1.2-.5 1.7-1.7 1.7h-8.1c-1.2 0-1.7-.5-1.7-1.7zm13 15.4h1.8v-16H80v-1.7h5.6v1.7h-1.9v16h1.9V60H80zm9.7-16.1h-1.8v-1.7h8.3c3 0 5.3 1.9 5.3 4.9 0 2.1-1.1 3.5-2.5 4.2v.1c2 .6 3.3 2.5 3.3 4.8 0 3.5-2.5 5.5-5.8 5.5h-5c-1.2 0-1.7-.5-1.7-1.7zm6.5 6.8c2 0 3.3-1.4 3.3-3.4s-1.3-3.3-3.3-3.3h-4.5V49zm-3.9 9.3h4.2c2.4 0 3.8-1.5 3.8-3.8s-1.6-3.9-3.8-3.9h-4.7v7c-.1.5.1.7.5.7zm14.3-16.1h-1.8v-1.7h8.3c3.3 0 5.6 2.2 5.6 5.5 0 3-1.9 4.8-3.8 5.2v.1s.4.2.7.8l2.8 5.5c.3.6.7.6 1.4.6h.4v1.7h-.9c-1.6 0-2.1-.2-2.7-1.5l-2.8-5.6c-.5-1-.9-1.2-2-1.2h-3.3v8.2h-1.9zm6.2 7.9c2.3 0 3.8-1.5 3.8-4 0-2.4-1.4-3.9-3.7-3.9h-4.4V50h4.3zm8.9 8.2h1.8v-16h-1.8v-1.7h5.6v1.7h-1.9v16h1.9V60h-5.6zm17.8-18.1c5.5 0 9.9 4.4 9.9 9.9 0 5.7-4.4 10.2-9.9 10.2s-9.9-4.5-9.9-10.2c0-5.6 4.3-9.9 9.9-9.9zm0 18.3c4.4 0 7.9-3.7 7.9-8.4 0-4.6-3.5-8.1-7.9-8.1s-7.9 3.5-7.9 8.1c0 4.8 3.5 8.4 7.9 8.4zm21.4-16.3h-1.8v-1.7h7.8c5.9 0 9.8 3.6 9.8 9.7 0 6.2-3.9 9.8-9.8 9.8h-4.3c-1.2 0-1.7-.5-1.7-1.7zm2.6 16.1h3.3c4.8 0 8-2.8 8-8s-3.2-8-8-8h-3.9v15.4c0 .4.2.6.6.6zm15.5 0h1.8v-16H179v-1.7h5.6v1.7h-1.9v16h1.9V60H179zm25.2-18.1c4.5 0 6.8 2.4 6.8 2.4l-1.1 1.4s-2.2-2-5.7-2c-4.4 0-7.7 3.5-7.7 8.2 0 4.8 3.3 8.3 7.7 8.3 3.9 0 6.2-2.9 6.2-2.9v-2.4c0-.4-.2-.6-.6-.6h-1.2v-1.7h1.9c1.2 0 1.7.5 1.7 1.7V60h-1.8v-2.3h-.1s-2.3 2.6-6.4 2.6c-5.3 0-9.5-4.3-9.5-10.1.1-5.6 4.3-10 9.8-10zm12.2 2h-1.8v-1.7h11.1c1.2 0 1.7.5 1.7 1.7v1.9h-1.8v-1.3c0-.4-.2-.6-.6-.6h-6.6v7.1h7.3V51h-7.3v6.6c0 .4.2.6.6.6h6.8c.4 0 .6-.2.6-.6v-1.3h1.8v1.9c0 1.2-.5 1.7-1.7 1.7h-8.4c-1.2 0-1.7-.5-1.7-1.7zm13.7 16.1h1.2c.4 0 .6-.2.6-.6V40.5h1.8l9.9 13.9c.7 1 1.6 2.5 1.6 2.5h.1s-.1-1.5-.1-2.5V42.2c0-1.2.5-1.7 1.7-1.7h2.1v1.7h-1.2c-.4 0-.6.2-.6.6V60h-1.8l-9.9-13.9c-.7-.9-1.6-2.5-1.6-2.5h-.1s.2 1.5.2 2.5v12.2c0 1.2-.5 1.7-1.7 1.7h-2.1v-1.7zM253 42.2h-1.8v-1.7h11.1c1.2 0 1.7.5 1.7 1.7v1.9h-1.8v-1.3c0-.4-.2-.6-.6-.6H255v7.1h7.3V51H255v6.6c0 .4.2.6.6.6h6.8c.4 0 .6-.2.6-.6v-1.3h1.8v1.9c0 1.2-.5 1.7-1.7 1.7h-8.4c-1.2 0-1.7-.5-1.7-1.7zm15.4 0h-1.8v-1.7h8.3c3.3 0 5.6 2.2 5.6 5.5 0 3-1.9 4.8-3.8 5.2v.1s.4.2.7.8l2.8 5.5c.3.6.7.6 1.4.6h.4v1.7h-.9c-1.6 0-2.1-.2-2.7-1.5l-2.8-5.6c-.5-1-.9-1.2-2-1.2h-3.3v8.2h-1.9zm6.3 7.9c2.3 0 3.8-1.5 3.8-4 0-2.4-1.4-3.9-3.7-3.9h-4.4V50h4.3zm10.5-7.9h-1.8v-1.7h11.1c1.2 0 1.7.5 1.7 1.7v1.9h-1.8v-1.3c0-.4-.2-.6-.6-.6h-6.6v7.1h7.3V51h-7.3v6.6c0 .4.2.6.6.6h6.8c.4 0 .6-.2.6-.6v-1.3h1.8v1.9c0 1.2-.5 1.7-1.7 1.7h-8.4c-1.2 0-1.7-.5-1.7-1.7zM54.4 284.8h-1.8V283h8.3c3.5 0 6 2.3 6 5.9s-2.6 6-6 6h-4.5v7.7h-1.9v-17.8zm6.2 8.4c2.6 0 4.3-1.6 4.3-4.3 0-2.6-1.7-4.2-4.3-4.2h-4.3v8.4zm18-10.5c5.5 0 10 4.4 10 10 0 5.7-4.4 10.2-10 10.2s-10-4.5-10-10.2c0-5.6 4.4-10 10-10zm0 18.4c4.4 0 7.9-3.7 7.9-8.4 0-4.6-3.6-8.2-7.9-8.2-4.4 0-7.9 3.5-7.9 8.2s3.5 8.4 7.9 8.4zm14-16.3h-1.8V283h8.3c3.5 0 6 2.3 6 5.9s-2.6 6-6 6h-4.6v7.7h-1.9zm6.2 8.4c2.6 0 4.3-1.6 4.3-4.3 0-2.6-1.7-4.2-4.3-4.2h-4.3v8.4zm17.9-10.5c5.5 0 10 4.4 10 10 0 5.7-4.4 10.2-10 10.2s-10-4.5-10-10.2c.1-5.6 4.5-10 10-10zm0 18.4c4.4 0 7.9-3.7 7.9-8.4 0-4.6-3.6-8.2-7.9-8.2-4.4 0-7.9 3.5-7.9 8.2s3.5 8.4 7.9 8.4zm14-15.7c0-.4-.2-.6-.6-.6h-1.2V283h2.1c1.2 0 1.7.5 1.7 1.7v15.5c0 .4.2.6.6.6h6.5c.4 0 .6-.2.6-.6V299h1.8v1.9c0 1.2-.5 1.7-1.7 1.7h-8.1c-1.2 0-1.7-.5-1.7-1.7zm12.4 15.5h.4c.5 0 .8-.1 1-.6l6.4-17.2h2.1l6.4 17.2c.2.5.5.6 1 .6h.3v1.7h-.9c-1.4 0-1.8-.3-2.3-1.6l-1.7-4.6H148l-1.7 4.6c-.5 1.3-.9 1.6-2.3 1.6h-.9zm12.2-6.2l-2.6-7c-.3-.9-.8-2.5-.8-2.5h-.1s-.4 1.6-.8 2.5l-2.6 7zm6.3 6.6l10.5-14.7c.7-1 1.4-1.8 1.4-1.8v-.1s-.5.1-1.4.1h-7.8c-.4 0-.6.2-.6.6v1.3h-1.8v-1.9c0-1.2.5-1.7 1.7-1.7h12.3v1.4l-10.5 14.7c-.7 1-1.4 1.8-1.4 1.8v.1s.5-.1 1.4-.1h8.4c.4 0 .6-.2.6-.6V299h1.8v1.9c0 1.2-.5 1.7-1.7 1.7h-13v-1.3zm16.8-.4h1.8v-16.1h-1.8V283h5.6v1.7h-1.9v16.1h1.9v1.7h-5.6zm17.9-18.2c5.5 0 10 4.4 10 10 0 5.7-4.4 10.2-10 10.2s-10-4.5-10-10.2c0-5.6 4.4-10 10-10zm0 18.4c4.4 0 7.9-3.7 7.9-8.4 0-4.6-3.6-8.2-7.9-8.2-4.4 0-7.9 3.5-7.9 8.2-.1 4.7 3.5 8.4 7.9 8.4zm12.1-.2h1.2c.4 0 .6-.2.6-.6V283h1.8l10 14c.7 1 1.6 2.6 1.6 2.6h.1s-.1-1.5-.1-2.6v-12.3c0-1.2.5-1.7 1.7-1.7h2.1v1.7h-1.2c-.4 0-.6.2-.6.6v17.2h-1.8l-10-14c-.7-.9-1.6-2.5-1.6-2.5h-.1s.2 1.5.2 2.5v12.3c0 1.2-.5 1.7-1.7 1.7h-2.1zm23-16.1h-1.8V283h11.2c1.2 0 1.7.5 1.7 1.7v1.9h-1.8v-1.3c0-.4-.2-.6-.6-.6h-6.7v7.1h7.4v1.7h-7.4v6.7c0 .4.2.6.6.6h6.9c.4 0 .6-.2.6-.6V299h1.8v1.9c0 1.2-.5 1.7-1.7 1.7h-8.5c-1.2 0-1.7-.5-1.7-1.7z" fill="#00295a"/><path d="M18.2 198.1h-1.3v-1.3h5.9c4.4 0 7.3 2.7 7.3 7.3s-2.9 7.3-7.3 7.3h-3.3c-.9 0-1.3-.4-1.3-1.3zm1.9 12h2.4c3.6 0 6-2.1 6-6s-2.4-6-6-6h-2.9v11.6c0 .2.2.4.5.4zm17.1-9.4c3.1 0 5.5 2.3 5.5 5.4 0 3.2-2.5 5.5-5.5 5.5-3.1 0-5.5-2.4-5.5-5.5s2.5-5.4 5.5-5.4zm.1 9.7c2.2 0 4-1.8 4-4.3 0-2.4-1.8-4.1-4-4.1s-4.1 1.8-4.1 4.1c0 2.4 1.8 4.3 4.1 4.3zm8.1-7.8c0-.3-.2-.5-.5-.5H44v-1.2h1.5c.9 0 1.3.4 1.3 1.2v1.2c.4-1 1.7-2.6 4.2-2.6 2.6 0 3.5 1.5 3.5 4v5c0 .3.2.5.5.5h.9v1.2h-1.5c-.9 0-1.3-.4-1.3-1.3v-5c0-1.6-.2-3.1-2.3-3.1-1.8 0-3.3 1.2-3.8 2.9-.1.4-.2.9-.2 1.4v5h-1.4zm12.6 0c0-.3-.2-.5-.5-.5h-.9v-1.2h1.5c.9 0 1.3.4 1.3 1.2v1.2c.4-1 1.7-2.6 4.2-2.6 2.6 0 3.5 1.5 3.5 4v5c0 .3.2.5.5.5h.9v1.2H67c-.9 0-1.3-.4-1.3-1.3v-5c0-1.6-.2-3.1-2.3-3.1-1.8 0-3.3 1.2-3.8 2.9-.1.4-.2.9-.2 1.4v5H58zm16.8-1.9c2.9 0 4.4 2.2 4.4 4.8v.7h-8c0 2.6 1.9 4.2 4 4.2 1.9 0 3.1-1.3 3.1-1.3l.7 1.1s-1.5 1.5-3.9 1.5c-3.1 0-5.5-2.2-5.5-5.5.1-3.5 2.4-5.5 5.2-5.5zm2.9 4.4c-.1-2.2-1.4-3.2-2.9-3.2-1.7 0-3.2 1.1-3.6 3.2zm9.6 3.7s1.2 1.6 3.2 1.6c1.2 0 2.2-.6 2.2-1.7 0-2.3-5.9-1.9-5.9-5.2 0-1.9 1.6-2.8 3.7-2.8 1.1 0 3.2.4 3.2 1.9v.9h-1.3v-.5c0-.8-1.1-1.1-1.8-1.1-1.5 0-2.3.5-2.3 1.5 0 2.3 5.9 1.8 5.9 5.3 0 1.7-1.6 2.9-3.7 2.9-2.7 0-4-1.8-4-1.8zm9.5-6.2c0-.3-.2-.5-.5-.5h-.9v-1.2h1.5c.9 0 1.3.4 1.3 1.2v5c0 1.6.3 3.1 2.3 3.1 2.4 0 3.8-2.1 3.8-4.4v-5h1.4v8.8c0 .3.2.5.5.5h.9v1.2h-1.4c-.9 0-1.3-.4-1.3-1.2v-1.2c-.4 1-1.8 2.6-4.1 2.6-2.5 0-3.5-1.3-3.5-4zm12.5-4.1c0-.3-.2-.5-.5-.5h-.9v-1.2h1.5c.9 0 1.3.4 1.3 1.3v11.6c0 .3.2.5.5.5h.9v1.2h-1.5c-.9 0-1.3-.4-1.3-1.3zm5.1 0c0-.3-.2-.5-.5-.5h-.9v-1.2h1.5c.9 0 1.3.4 1.3 1.3v11.6c0 .3.2.5.5.5h.9v1.2h-1.5c-.9 0-1.3-.4-1.3-1.3zm10.5 6.4h.6v-.1c0-2.2-.8-2.9-2.7-2.9-.5 0-2 .1-2 .9v.7h-1.3v-1c0-1.5 2.5-1.8 3.4-1.8 3.3 0 4.1 1.8 4.1 4v5c0 .3.2.5.5.5h.9v1.2H127c-.9 0-1.2-.4-1.2-1.2v-.8s-.9 2.3-3.5 2.3c-1.7 0-3.5-1-3.5-3.1-.3-3.5 4.3-3.7 6.1-3.7zm-2.6 5.5c2 0 3.2-2.1 3.2-3.9v-.5h-.6c-1.6 0-4.9 0-4.9 2.4 0 1 .7 2 2.3 2zM15.2 222.5c0-.3-.2-.5-.5-.5h-.9v-1.2h1.4c.9 0 1.2.4 1.2 1.1v.7s.8-2.1 3.6-2.1 4.5 2.2 4.5 5.5-2 5.5-4.7 5.5c-2.6 0-3.4-2-3.4-2v5.9H15v-12.9zm4.7 7.8c1.8 0 3.4-1.6 3.4-4.2s-1.3-4.2-3.3-4.2c-1.7 0-3.4 1.2-3.4 4.2 0 2.1 1.1 4.2 3.3 4.2zm12-9.7c3.1 0 5.5 2.3 5.5 5.4 0 3.2-2.5 5.5-5.5 5.5-3.1 0-5.5-2.4-5.5-5.5s2.5-5.4 5.5-5.4zm0 9.7c2.2 0 4-1.8 4-4.3 0-2.4-1.8-4.1-4-4.1s-4.1 1.8-4.1 4.1c0 2.4 1.9 4.3 4.1 4.3zm8.2-7.8c0-.3-.2-.5-.5-.5h-.9v-1.2h1.4c.9 0 1.2.4 1.2 1.1v.7s.8-2.1 3.6-2.1 4.5 2.2 4.5 5.5-2 5.5-4.7 5.5c-2.6 0-3.4-2-3.4-2v5.9h-1.4v-12.9zm4.6 7.8c1.8 0 3.4-1.6 3.4-4.2s-1.3-4.2-3.3-4.2c-1.7 0-3.4 1.2-3.4 4.2 0 2.1 1.2 4.2 3.3 4.2zm12.1-9.7c3.1 0 5.5 2.3 5.5 5.4 0 3.2-2.5 5.5-5.5 5.5-3.1 0-5.5-2.4-5.5-5.5s2.4-5.4 5.5-5.4zm0 9.7c2.2 0 4-1.8 4-4.3 0-2.4-1.8-4.1-4-4.1s-4.1 1.8-4.1 4.1c0 2.4 1.8 4.3 4.1 4.3zm7.9-11.9c0-.3-.2-.5-.5-.5h-.9v-1.2h1.5c.9 0 1.3.4 1.3 1.3v11.6c0 .3.2.5.5.5h.9v1.2H66c-.9 0-1.3-.4-1.3-1.3zm10.5 6.5h.6v-.1c0-2.2-.8-2.9-2.7-2.9-.5 0-2 .1-2 .9v.7h-1.3v-1c0-1.5 2.5-1.8 3.4-1.8 3.3 0 4.1 1.8 4.1 4v5c0 .3.2.5.5.5h.9v1.2h-1.4c-.9 0-1.2-.4-1.2-1.2v-.8s-.9 2.3-3.5 2.3c-1.7 0-3.5-1-3.5-3.1-.3-3.6 4.3-3.7 6.1-3.7zm-2.6 5.4c2 0 3.2-2.1 3.2-3.9v-.4h-.6c-1.6 0-4.9 0-4.9 2.4 0 .9.8 1.9 2.3 1.9zm7.2.1l5.9-7.3.8-1h-4.8c-.3 0-.5.1-.5.5v.8h-1.3v-1.2c0-.9.4-1.3 1.3-1.3h7.2v.9l-5.9 7.3c-.4.5-.9 1-.9 1H87c.3 0 .5-.1.5-.5v-.8h1.3v1.2c0 .9-.4 1.3-1.3 1.3h-7.7zm11.5-7.9c0-.3-.2-.5-.5-.5h-.9v-1.2h1.5c.9 0 1.3.4 1.3 1.3v7.5c0 .3.2.5.5.5h.9v1.2h-1.6c-.9 0-1.3-.4-1.3-1.3zm-.1-5.8h1.4v1.8h-1.4zm9.7 3.9c3.1 0 5.5 2.3 5.5 5.4 0 3.2-2.5 5.5-5.5 5.5-3.1 0-5.5-2.4-5.5-5.5s2.5-5.4 5.5-5.4zm0 9.7c2.2 0 4-1.8 4-4.3 0-2.4-1.8-4.1-4-4.1s-4.1 1.8-4.1 4.1c0 2.4 1.9 4.3 4.1 4.3zm8.2-7.8c0-.3-.2-.5-.5-.5h-.9v-1.2h1.5c.9 0 1.3.4 1.3 1.2v1.2c.4-1 1.7-2.6 4.2-2.6 2.6 0 3.5 1.5 3.5 4v5c0 .3.2.5.5.5h.9v1.2h-1.5c-.9 0-1.3-.4-1.3-1.3v-5c0-1.6-.2-3.1-2.3-3.1-1.8 0-3.3 1.2-3.8 2.9-.1.4-.2.9-.2 1.4v5h-1.4zm16.7-1.9c2.9 0 4.4 2.2 4.4 4.8v.7h-8c0 2.6 1.9 4.2 4 4.2 1.9 0 3.1-1.3 3.1-1.3l.7 1.1s-1.5 1.5-3.9 1.5c-3.1 0-5.5-2.2-5.5-5.5.1-3.4 2.4-5.5 5.2-5.5zm3 4.4c-.1-2.2-1.4-3.2-2.9-3.2-1.7 0-3.2 1.1-3.6 3.2zM20.4 241.1c1.2 0 3.7.5 3.7 2.2v.9h-1.3v-.6c0-.9-1.5-1.3-2.4-1.3-2.2 0-4 1.7-4 4.2 0 2.6 1.9 4.2 4.1 4.2 2.1 0 3.4-1.5 3.4-1.5l.7 1.1s-1.4 1.7-4.1 1.7c-3.1 0-5.5-2.2-5.5-5.5-.1-3.1 2.3-5.4 5.4-5.4zm11 0c3.1 0 5.5 2.3 5.5 5.4 0 3.2-2.5 5.5-5.5 5.5-3.1 0-5.5-2.4-5.5-5.5 0-3 2.5-5.4 5.5-5.4zm0 9.7c2.2 0 4-1.8 4-4.3 0-2.4-1.8-4.1-4-4.1s-4.1 1.8-4.1 4.1c0 2.5 1.9 4.3 4.1 4.3zm8.1-7.7c0-.3-.2-.5-.5-.5h-.9v-1.2h1.5c.9 0 1.3.4 1.3 1.2v1.2c.5-1.4 2.2-2.6 3.8-2.6 1.9 0 2.9.9 3.2 2.6.6-1.4 2.1-2.6 3.8-2.6 2.5 0 3.5 1.5 3.5 4v5c0 .3.2.5.5.5h.9v1.2h-1.5c-.9 0-1.3-.4-1.3-1.3v-5c0-1.7-.4-3.1-2.3-3.1-1.6 0-2.9 1.4-3.3 2.9-.1.5-.2 1-.2 1.5v4.9h-1.4v-6.3c0-1.6-.2-3.1-2.2-3.1-1.7 0-3 1.5-3.4 3.1-.1.4-.2.9-.2 1.4v4.9h-1.3zm19.4 0c0-.3-.2-.5-.5-.5h-.9v-1.2h1.4c.9 0 1.2.4 1.2 1.1v.7s.8-2.1 3.6-2.1 4.5 2.2 4.5 5.5-2 5.5-4.7 5.5c-2.6 0-3.4-2-3.4-2v5.9h-1.4v-12.9zm4.7 7.7c1.8 0 3.4-1.6 3.4-4.2s-1.3-4.2-3.3-4.2c-1.7 0-3.4 1.2-3.4 4.2-.1 2.1 1.1 4.2 3.3 4.2zm7.2-11.9c0-.3-.2-.5-.5-.5h-.8v-1.2H71c.9 0 1.3.4 1.3 1.3v11.6c0 .3.2.5.5.5h.9v1.2h-1.5c-.9 0-1.3-.4-1.3-1.3v-11.6zm9.3 2.2c2.9 0 4.4 2.2 4.4 4.8v.7h-8c0 2.6 1.9 4.2 4 4.2 1.9 0 3.1-1.3 3.1-1.3l.7 1.1s-1.5 1.5-3.9 1.5c-3.1 0-5.5-2.2-5.5-5.5.1-3.4 2.4-5.5 5.2-5.5zm3 4.4c-.1-2.2-1.4-3.2-2.9-3.2-1.7 0-3.2 1.1-3.6 3.2zm3.8 3.8s1.2 1.6 3.2 1.6c1.2 0 2.2-.6 2.2-1.7 0-2.3-5.9-1.9-5.9-5.2 0-1.9 1.6-2.8 3.7-2.8 1.1 0 3.2.4 3.2 1.9v.9H92v-.5c0-.8-1.1-1.1-1.8-1.1-1.5 0-2.3.5-2.3 1.5 0 2.3 5.9 1.8 5.9 5.3 0 1.7-1.6 2.9-3.7 2.9-2.7 0-4-1.8-4-1.8zm9.2 0s1.2 1.6 3.2 1.6c1.2 0 2.2-.6 2.2-1.7 0-2.3-5.9-1.9-5.9-5.2 0-1.9 1.6-2.8 3.7-2.8 1.1 0 3.2.4 3.2 1.9v.9h-1.3v-.5c0-.8-1.1-1.1-1.8-1.1-1.5 0-2.3.5-2.3 1.5 0 2.3 5.9 1.8 5.9 5.3 0 1.7-1.6 2.9-3.7 2.9-2.7 0-4-1.8-4-1.8zm9.6-6.2c0-.3-.2-.5-.5-.5h-.9v-1.2h1.5c.9 0 1.3.4 1.3 1.3v7.5c0 .3.2.5.5.5h.9v1.2H107c-.9 0-1.3-.4-1.3-1.3zm0-5.9h1.4v1.8h-1.4zm4.4 5.9c-.1-.4-.4-.5-.7-.5h-.2v-1.2h.6c1 0 1.3.2 1.7 1.1l2.5 6.5c.2.5.4 1.2.4 1.2s.2-.7.4-1.2l2.5-6.5c.4-.9.7-1.1 1.6-1.1h.5v1.2h-.2c-.4 0-.6.1-.7.5l-3.4 8.7h-1.6zm16.7 2.3h.6v-.1c0-2.2-.8-2.9-2.7-2.9-.5 0-2 .1-2 .9v.7h-1.3v-1c0-1.5 2.5-1.8 3.4-1.8 3.3 0 4.1 1.8 4.1 4v5c0 .3.2.5.5.5h.9v1.2h-1.4c-.9 0-1.2-.4-1.2-1.2v-.8s-.9 2.3-3.5 2.3c-1.7 0-3.5-1-3.5-3.1-.3-3.6 4.3-3.7 6.1-3.7zm-2.6 5.5c2 0 3.2-2.1 3.2-3.9v-.5h-.6c-1.6 0-4.9 0-4.9 2.4-.1 1 .7 2 2.3 2z" fill="#4e5594"/><path d="M177.2 199c0-.3-.2-.4-.4-.4h-.8v-1.2h1.4c.8 0 1.2.3 1.2 1.2v7.7c0 2.3 1.4 3.7 3.7 3.7 2.2 0 3.7-1.4 3.7-3.7v-7.7c0-.8.3-1.2 1.2-1.2h1.4v1.2h-.8c-.3 0-.4.1-.4.4v7.3c0 3-2 4.9-5 4.9s-5.1-2-5.1-4.9V199zm17.9 2c2.9 0 5.2 2.2 5.2 5.1 0 3-2.3 5.2-5.1 5.2-2.9 0-5.2-2.2-5.2-5.2 0-2.9 2.3-5.1 5.1-5.1zm0 9c2.1 0 3.8-1.7 3.8-4 0-2.2-1.7-3.9-3.8-3.9s-3.8 1.7-3.8 3.9c0 2.3 1.8 4 3.8 4zm7.7-7.2c0-.3-.2-.4-.4-.4h-.9v-1.1h1.4c.8 0 1.2.3 1.2 1.1v1.1c.5-1.3 2-2.5 3.5-2.5 1.8 0 2.7.8 3 2.4.5-1.3 1.9-2.4 3.6-2.4 2.4 0 3.2 1.4 3.2 3.8v4.6c0 .3.2.4.4.4h.8v1.1h-1.4c-.8 0-1.2-.3-1.2-1.2V205c0-1.6-.3-2.9-2.1-2.9-1.5 0-2.7 1.3-3.1 2.8-.1.4-.2.9-.2 1.4v4.6h-1.1V205c0-1.5-.2-2.9-2.1-2.9-1.6 0-2.8 1.4-3.2 2.9-.1.4-.2.9-.2 1.3v4.6h-1.3v-8.1zm18.1 0c0-.3-.2-.4-.4-.4h-.8v-1.1h1.4c.8 0 1.2.3 1.2 1.2v7c0 .3.2.4.4.4h.8v1.1h-1.4c-.8 0-1.2-.3-1.2-1.2zm0-5.5h1.3v1.7h-1.3zm4.8 5.5c0-.3-.2-.4-.4-.4h-.8v-1.1h1.4c.8 0 1.2.3 1.2 1.1v1.1c.3-.9 1.6-2.5 3.9-2.5 2.4 0 3.3 1.4 3.3 3.8v4.6c0 .3.2.4.4.4h.8v1.1h-1.4c-.8 0-1.2-.3-1.2-1.2V205c0-1.5-.2-2.9-2.1-2.9-1.7 0-3.1 1.1-3.6 2.8-.1.4-.2.9-.2 1.3v4.7h-1.3zm11.9 0c0-.3-.2-.4-.4-.4h-.8v-1.1h1.4c.8 0 1.2.3 1.2 1.2v7c0 .3.2.4.4.4h.8v1.1h-1.4c-.8 0-1.2-.3-1.2-1.2zm0-5.5h1.3v1.7h-1.3zm9.7 11.3s1.1 1.5 3 1.5c1.1 0 2.1-.5 2.1-1.6 0-2.1-5.5-1.7-5.5-4.9 0-1.8 1.5-2.6 3.5-2.6 1 0 3 .4 3 1.8v.8h-1.2v-.5c0-.7-1-1-1.7-1-1.4 0-2.2.5-2.2 1.4 0 2.2 5.5 1.7 5.5 4.9 0 1.6-1.5 2.7-3.4 2.7-2.5 0-3.7-1.7-3.7-1.7zm8.9-5.8c0-.3-.2-.4-.4-.4h-.8v-1.1h1.4c.8 0 1.2.3 1.2 1.1v4.7c0 1.5.3 2.9 2.1 2.9 2.2 0 3.6-2 3.6-4.1v-4.7h1.3v8.2c0 .3.2.4.4.4h.8v1.1h-1.3c-.8 0-1.2-.3-1.2-1.1v-1.1c-.4 1-1.7 2.5-3.8 2.5-2.3 0-3.3-1.2-3.3-3.8zm11.7-3.9c0-.3-.2-.4-.4-.4h-.8v-1.1h1.4c.8 0 1.2.3 1.2 1.2v10.9c0 .3.2.4.4.4h.8v1.1h-1.4c-.8 0-1.2-.3-1.2-1.2zm4.8 0c0-.3-.2-.4-.4-.4h-.8v-1.1h1.4c.8 0 1.2.3 1.2 1.2v10.9c0 .3.2.4.4.4h.8v1.1h-1.4c-.8 0-1.2-.3-1.2-1.2zm9.9 6.1h.5v-.1c0-2-.7-2.8-2.5-2.8-.5 0-1.9.1-1.9.9v.6h-1.3v-.9c0-1.4 2.3-1.7 3.2-1.7 3.1 0 3.8 1.7 3.8 3.7v4.7c0 .3.2.4.4.4h.8v1.1h-1.3c-.8 0-1.2-.4-1.2-1.2v-.7s-.8 2.1-3.2 2.1c-1.6 0-3.3-1-3.3-2.9 0-3.1 4.3-3.2 6-3.2zm-2.5 5.1c1.9 0 3-1.9 3-3.6v-.5h-.6c-1.5 0-4.6 0-4.6 2.2 0 1 .7 1.9 2.2 1.9zm-100.3 13.4c0-.3-.2-.4-.4-.4h-.8V222h1.3c.8 0 1.2.3 1.2 1v.7s.8-1.9 3.4-1.9 4.3 2.1 4.3 5.1c0 3.1-1.8 5.1-4.4 5.1-2.4 0-3.2-1.8-3.2-1.8v5.5h-1.3v-12.2zm4.4 7.2c1.7 0 3.1-1.5 3.1-3.9s-1.3-3.9-3.1-3.9c-1.6 0-3.2 1.2-3.2 3.9.1 2 1.2 3.9 3.2 3.9zm11.3-9c2.9 0 5.2 2.2 5.2 5.1 0 3-2.3 5.2-5.1 5.2-2.9 0-5.2-2.2-5.2-5.2-.1-3 2.2-5.1 5.1-5.1zm0 9c2.1 0 3.8-1.7 3.8-4 0-2.2-1.7-3.9-3.8-3.9s-3.8 1.7-3.8 3.9c0 2.3 1.7 4 3.8 4zm7.6-7.2c0-.3-.2-.4-.4-.4h-.8V222h1.3c.8 0 1.2.3 1.2 1v.7s.8-1.9 3.4-1.9 4.3 2.1 4.3 5.1c0 3.1-1.8 5.1-4.4 5.1-2.4 0-3.2-1.8-3.2-1.8v5.5h-1.3v-12.2zm4.4 7.2c1.7 0 3.1-1.5 3.1-3.9s-1.3-3.9-3.1-3.9c-1.6 0-3.2 1.2-3.2 3.9.1 2 1.2 3.9 3.2 3.9zm11.2-9c2.9 0 5.2 2.2 5.2 5.1 0 3-2.3 5.2-5.1 5.2-2.9 0-5.2-2.2-5.2-5.2s2.3-5.1 5.1-5.1zm.1 9c2.1 0 3.8-1.7 3.8-4 0-2.2-1.7-3.9-3.8-3.9s-3.8 1.7-3.8 3.9c0 2.3 1.7 4 3.8 4zm7.4-11.1c0-.3-.2-.4-.4-.4h-.8V218h1.4c.8 0 1.2.3 1.2 1.2v10.9c0 .3.2.4.4.4h.8v1.1h-1.4c-.8 0-1.2-.3-1.2-1.2zm9.8 6.1h.5v-.1c0-2-.7-2.8-2.5-2.8-.5 0-1.9.1-1.9.9v.6h-1.3v-.9c0-1.4 2.3-1.7 3.2-1.7 3.1 0 3.8 1.7 3.8 3.7v4.7c0 .3.2.4.4.4h.8v1.1h-1.3c-.8 0-1.2-.4-1.2-1.2v-.7s-.8 2.1-3.2 2.1c-1.6 0-3.3-1-3.3-2.9.1-3.1 4.3-3.2 6-3.2zm-2.4 5.1c1.9 0 3-1.9 3-3.6v-.4h-.6c-1.5 0-4.6 0-4.6 2.2 0 .9.7 1.8 2.2 1.8zm6.7 0l5.5-6.9c.4-.5.8-.9.8-.9H242c-.3 0-.4.1-.4.4v.8h-1.2V223c0-.8.3-1.2 1.2-1.2h6.8v.9l-5.5 6.8c-.4.5-.8.9-.8.9h5c.3 0 .4-.1.4-.4v-.8h1.2v1.2c0 .8-.3 1.2-1.2 1.2h-7.2zm10.7-7.3c0-.3-.2-.4-.4-.4h-.8V222h1.4c.8 0 1.2.3 1.2 1.2v7c0 .3.2.4.4.4h.8v1.1h-1.4c-.8 0-1.2-.3-1.2-1.2zm0-5.5h1.3v1.7H251zm9.1 3.7c2.9 0 5.2 2.2 5.2 5.1 0 3-2.3 5.2-5.1 5.2-2.9 0-5.2-2.2-5.2-5.2-.1-3 2.2-5.1 5.1-5.1zm0 9c2.1 0 3.8-1.7 3.8-4 0-2.2-1.7-3.9-3.8-3.9s-3.8 1.7-3.8 3.9c0 2.3 1.7 4 3.8 4zm7.6-7.2c0-.3-.2-.4-.4-.4h-.8V222h1.4c.8 0 1.2.3 1.2 1.1v1.1c.3-.9 1.6-2.5 3.9-2.5 2.4 0 3.3 1.4 3.3 3.8v4.6c0 .3.2.4.4.4h.8v1.1h-1.4c-.8 0-1.2-.3-1.2-1.2v-4.7c0-1.5-.2-2.9-2.1-2.9-1.7 0-3.1 1.1-3.6 2.8-.1.4-.2.9-.2 1.3v4.7h-1.3zm15.7-1.8c2.7 0 4.1 2.1 4.1 4.5v.7H280c0 2.5 1.8 3.9 3.8 3.9 1.8 0 2.9-1.2 2.9-1.2l.6 1s-1.4 1.4-3.6 1.4c-2.9 0-5.1-2.1-5.1-5.1 0-3.3 2.2-5.2 4.8-5.2zm2.7 4.1c-.1-2-1.3-3-2.8-3-1.6 0-3 1-3.4 3zm-104 15.6c1.1 0 3.5.5 3.5 2.1v.9h-1.2v-.6c0-.8-1.4-1.2-2.2-1.2-2.1 0-3.8 1.6-3.8 3.9 0 2.4 1.8 3.9 3.8 3.9l3.1-1.4.6 1s-1.3 1.6-3.8 1.6c-2.9 0-5.1-2.1-5.1-5.1s2.2-5.1 5.1-5.1zm10.3 0c2.9 0 5.2 2.2 5.2 5.1 0 3-2.3 5.2-5.1 5.2-2.9 0-5.2-2.2-5.2-5.2-.1-3 2.2-5.1 5.1-5.1zm0 9c2.1 0 3.8-1.7 3.8-4 0-2.2-1.7-3.9-3.8-3.9s-3.8 1.7-3.8 3.9c0 2.3 1.7 4 3.8 4zm7.6-7.2c0-.3-.2-.4-.4-.4h-.8v-1.1h1.4c.8 0 1.2.3 1.2 1.1v1.1c.5-1.3 2-2.5 3.5-2.5 1.8 0 2.7.8 3 2.4.5-1.3 1.9-2.4 3.6-2.4 2.4 0 3.2 1.4 3.2 3.8v4.6c0 .3.2.4.4.4h.8v1.1h-1.4c-.8 0-1.2-.3-1.2-1.2v-4.7c0-1.6-.3-2.9-2.1-2.9-1.5 0-2.7 1.3-3.1 2.8-.1.4-.2.9-.2 1.4v4.6h-1.3v-5.9c0-1.5-.2-2.9-2.1-2.9-1.6 0-2.8 1.4-3.2 2.9-.1.4-.2.9-.2 1.3v4.6h-1.3v-8.1zm18.1 0c0-.3-.2-.4-.4-.4h-.8v-1.1h1.3c.8 0 1.2.3 1.2 1v.7s.8-1.9 3.4-1.9 4.3 2.1 4.3 5.1c0 3.1-1.8 5.1-4.4 5.1-2.4 0-3.2-1.8-3.2-1.8v5.5h-1.3zm4.4 7.2c1.7 0 3.1-1.5 3.1-3.9s-1.3-3.9-3.1-3.9c-1.6 0-3.2 1.2-3.2 3.9.1 2 1.1 3.9 3.2 3.9zm6.8-11.1c0-.3-.2-.4-.4-.4h-.8v-1.1h1.4c.8 0 1.2.3 1.2 1.2v10.9c0 .3.2.4.4.4h.8v1.1h-1.4c-.8 0-1.2-.3-1.2-1.2zm8.7 2.1c2.7 0 4.1 2.1 4.1 4.5v.7h-7.6c0 2.5 1.8 3.9 3.8 3.9 1.8 0 2.9-1.2 2.9-1.2l.6 1s-1.4 1.4-3.6 1.4c-2.9 0-5.1-2.1-5.1-5.1.1-3.3 2.3-5.2 4.9-5.2zm2.7 4.1c-.1-2-1.3-3-2.8-3-1.6 0-3 1-3.4 3zm3.7 3.5s1.1 1.5 3 1.5c1.1 0 2.1-.5 2.1-1.6 0-2.1-5.5-1.7-5.5-4.9 0-1.8 1.5-2.6 3.5-2.6 1 0 3 .4 3 1.8v.8h-1.2v-.5c0-.7-1-1-1.7-1-1.4 0-2.2.5-2.2 1.4 0 2.2 5.5 1.7 5.5 4.9 0 1.6-1.5 2.7-3.4 2.7-2.5 0-3.7-1.7-3.7-1.7zm8.5 0s1.1 1.5 3 1.5c1.1 0 2.1-.5 2.1-1.6 0-2.1-5.5-1.7-5.5-4.9 0-1.8 1.5-2.6 3.5-2.6 1 0 3 .4 3 1.8v.8h-1.2v-.5c0-.7-1-1-1.7-1-1.4 0-2.2.5-2.2 1.4 0 2.2 5.5 1.7 5.5 4.9 0 1.6-1.5 2.7-3.4 2.7-2.5 0-3.7-1.7-3.7-1.7zm9-5.8c0-.3-.2-.4-.4-.4h-.8v-1.1h1.4c.8 0 1.2.3 1.2 1.2v7c0 .3.2.4.4.4h.8v1.1h-1.4c-.8 0-1.2-.3-1.2-1.2zm0-5.5h1.3v1.7h-1.3zm4.1 5.5c-.1-.3-.3-.4-.7-.4h-.2v-1.1h.5c.9 0 1.2.2 1.6 1.1l2.4 6.1c.2.5.3 1.1.3 1.1s.2-.7.3-1.1l2.4-6.1c.3-.9.6-1.1 1.5-1.1h.5v1.1h-.1c-.3 0-.6.1-.7.4l-3.2 8.2h-1.4zm15.6 2.1h.5v-.1c0-2-.7-2.8-2.5-2.8-.5 0-1.9.1-1.9.9v.6h-1.2v-.9c0-1.4 2.3-1.7 3.2-1.7 3.1 0 3.8 1.7 3.8 3.7v4.7c0 .3.2.4.4.4h.8v1.1h-1.3c-.8 0-1.2-.4-1.2-1.2v-.7s-.8 2.1-3.2 2.1c-1.6 0-3.3-1-3.3-2.9 0-3 4.2-3.2 5.9-3.2zm-2.4 5.2c1.9 0 3-1.9 3-3.6v-.4h-.6c-1.5 0-4.6 0-4.6 2.2 0 .8.7 1.8 2.2 1.8z" fill="#00295a"/><path d="M50.2 375.2h4.7v-16.7h-.1s-.2.4-1 1.3l-2.2 2.2-1.3-1.4 4.8-4.7h2v19.2h4.6v1.9H50.3v-1.8zm13.7-8.7c0-6.1 1.8-10.9 7.3-10.9s7.3 4.8 7.3 10.9-1.8 10.9-7.3 10.9-7.3-4.8-7.3-10.9zm12.4 0c0-5-1.1-8.9-5.1-8.9s-5.1 3.9-5.1 8.9 1.1 9 5.1 9c3.9 0 5.1-4 5.1-9zm5.7-6.7c0-2.3 1.9-4.2 4.2-4.2s4.2 1.9 4.2 4.2-1.9 4.2-4.2 4.2c-2.3-.1-4.2-1.9-4.2-4.2zm16.3-3.8h2.1l-16 21.1h-2.2zm-9.6 3.8c0-1.3-1.1-2.5-2.5-2.5s-2.4 1.1-2.4 2.5 1 2.5 2.4 2.5 2.5-1.1 2.5-2.5zm7.7 9.3c2.3 0 4.2 1.9 4.2 4.2s-1.9 4.1-4.2 4.1-4.2-1.9-4.2-4.1c0-2.3 1.8-4.2 4.2-4.2zm0 6.6c1.4 0 2.5-1.1 2.5-2.5s-1.1-2.5-2.5-2.5-2.4 1.1-2.4 2.5 1 2.5 2.4 2.5zm111.4-2.8s1.6 2.5 4.9 2.5c3 0 5.2-2.1 5.2-4.9 0-2.9-2.4-4.9-5.5-4.9-2.4 0-4 1.2-4 1.2l-1.1-.5.9-8.5c.1-1.3.5-1.8 1.8-1.8h6.9c1.3 0 1.8.5 1.8 1.8v2.1h-1.9v-1.4c0-.5-.2-.7-.7-.7h-5.3c-.4 0-.6.2-.7.7l-.5 4.8c-.1.8-.2 1.2-.2 1.2h.1s1.3-.8 3.2-.8c4.3 0 7.4 3.1 7.4 6.9s-3.1 6.9-7.4 6.9c-4.2 0-6.2-3-6.2-3zm16.8 0s1.6 2.5 4.9 2.5c3 0 5.2-2.1 5.2-4.9 0-2.9-2.4-4.9-5.5-4.9-2.4 0-4 1.2-4 1.2l-1.1-.5.9-8.5c.1-1.3.5-1.8 1.8-1.8h6.9c1.3 0 1.8.5 1.8 1.8v2.1h-1.9v-1.4c0-.5-.2-.7-.7-.7h-5.3c-.4 0-.6.2-.7.7l-.5 4.8c-.1.8-.2 1.2-.2 1.2h.1s1.3-.8 3.2-.8c4.3 0 7.4 3.1 7.4 6.9s-3.1 6.9-7.4 6.9c-4.2 0-6.2-3-6.2-3zm16-13.1c0-2.3 1.9-4.2 4.2-4.2s4.2 1.9 4.2 4.2-1.9 4.2-4.2 4.2-4.2-1.9-4.2-4.2zm16.2-3.8h2.1l-16 21.1h-2.2zm-9.6 3.8c0-1.3-1.1-2.5-2.5-2.5s-2.4 1.1-2.4 2.5 1 2.5 2.4 2.5 2.5-1.1 2.5-2.5zm7.7 9.3c2.3 0 4.2 1.9 4.2 4.2s-1.9 4.1-4.2 4.1-4.2-1.9-4.2-4.1c0-2.3 1.9-4.2 4.2-4.2zm0 6.6c1.4 0 2.5-1.1 2.5-2.5s-1.1-2.5-2.5-2.5-2.4 1.1-2.4 2.5 1 2.5 2.4 2.5zM48.4 130.8c0-2.2-1.6-4-4.3-4-2.1 0-3.8 1.1-3.8 2.3v1h-2v-1.6c0-2.7 3.6-3.7 5.8-3.7 4 0 6.4 2.6 6.4 5.9 0 7.4-11.2 7.2-11.2 13.1 0 .4.2.6.7.6h8.8c.4 0 .7-.2.7-.7v-1.4h2v2.1c0 1.3-.5 1.8-1.8 1.8H39.1c-1.4 0-1.9-.6-1.9-2.1 0-7.7 11.2-7.1 11.2-13.3zm7.4 11.4s1.6 2.5 4.9 2.5c3 0 5.2-2.1 5.2-4.9 0-2.9-2.4-4.9-5.5-4.9-2.4 0-4 1.2-4 1.2l-1.1-.5.9-8.5c.1-1.3.5-1.8 1.8-1.8h6.9c1.3 0 1.8.5 1.8 1.8v2.1h-1.9v-1.4c0-.5-.2-.7-.7-.7h-5.3c-.4 0-.6.2-.7.7l-.5 4.8c-.1.8-.2 1.2-.2 1.2h.1s1.3-.8 3.2-.8c4.3 0 7.4 3.1 7.4 6.9s-3.1 6.9-7.4 6.9c-4.2 0-6.2-3-6.2-3zm18.4 1.6l-2.2 5.4h-1.7l1.7-5.4zm7-9c0-.1-2.9-1.4-2.9-4.4 0-2.9 2.3-5.5 6.4-5.5 4 0 6.4 2.3 6.4 5.6 0 3.2-2.8 5.2-2.8 5.2v.1c2 1 3.4 2.4 3.4 4.8 0 3.3-3.1 6.1-7.1 6.1-3.7 0-7.2-2.3-7.2-6.3 0-3.7 3.8-5.6 3.8-5.6zm3.4 9.9c2.5 0 4.9-1.7 4.9-4.2 0-2.2-1.8-3.1-4-4-.8-.3-2.2-.8-2.5-.8-.8 0-3.4 1.9-3.4 4.5 0 2.8 2.4 4.5 5 4.5zm1.7-9.9c.7 0 2.7-2.1 2.7-4.3 0-2.3-1.8-3.7-4.3-3.7-2.7 0-4.3 1.6-4.3 3.6 0 2.2 1.9 3 4 3.8.5.2 1.5.6 1.9.6zM95 129c0-2.3 1.9-4.2 4.2-4.2s4.2 1.9 4.2 4.2-1.9 4.2-4.2 4.2c-2.4 0-4.2-1.9-4.2-4.2zm16.2-3.8h2.1l-16 21.1h-2.2zm-9.6 3.8c0-1.3-1.1-2.5-2.5-2.5s-2.4 1.1-2.4 2.5 1 2.5 2.4 2.5c1.5 0 2.5-1.1 2.5-2.5zm7.7 9.3c2.3 0 4.2 1.9 4.2 4.2s-1.9 4.1-4.2 4.1-4.2-1.9-4.2-4.1c0-2.3 1.9-4.2 4.2-4.2zm0 6.7c1.4 0 2.5-1.1 2.5-2.5s-1.1-2.5-2.5-2.5-2.4 1.1-2.4 2.5 1 2.5 2.4 2.5zm97.6-16c.6-1.1 1.2-2 1.2-2s-.5.1-1.6.1h-7.6c-.4 0-.7.2-.7.7v1.4h-2V127c0-1.3.5-1.8 1.8-1.8h12.5v1.4l-10.4 19.6h-2.3zm2.5 10.1l10.3-13.9h2.2v13.4h3.4v1.9h-3.4v5.8h-2.1v-5.8h-10.4zm10.5-9.1c0-.9.1-2 .1-2h-.1s-.5.9-1.1 1.6l-5.8 7.7c-.6.8-1.1 1.3-1.1 1.3v.1s.8-.1 1.7-.1h6.3zm10.2 13.8l-2.2 5.4h-1.7l1.7-5.4zm14.3-13c0-2.2-1.6-4-4.3-4-2.1 0-3.8 1.1-3.8 2.3v1h-2v-1.6c0-2.7 3.6-3.7 5.8-3.7 4 0 6.4 2.6 6.4 5.9 0 7.4-11.2 7.2-11.2 13.1 0 .4.2.6.7.6h8.8c.4 0 .7-.2.7-.7v-1.4h2v2.1c0 1.3-.5 1.8-1.8 1.8h-10.6c-1.4 0-1.9-.6-1.9-2.1 0-7.7 11.2-7.1 11.2-13.3zm6.4-1.8c0-2.3 1.9-4.2 4.2-4.2s4.2 1.9 4.2 4.2-1.9 4.2-4.2 4.2-4.2-1.9-4.2-4.2zm16.2-3.8h2.1l-16 21.1h-2.2zm-9.6 3.8c0-1.3-1.1-2.5-2.5-2.5s-2.4 1.1-2.4 2.5 1 2.5 2.4 2.5 2.5-1.1 2.5-2.5zm7.7 9.3c2.3 0 4.2 1.9 4.2 4.2s-1.9 4.1-4.2 4.1-4.2-1.9-4.2-4.1c0-2.3 1.9-4.2 4.2-4.2zm0 6.7c1.4 0 2.5-1.1 2.5-2.5s-1.1-2.5-2.5-2.5-2.4 1.1-2.4 2.5 1 2.5 2.4 2.5z" fill="#fff"/><path d="M30.1 440.5c0-.3-.2-.5-.5-.5h-.9v-1.3h1.6c.9 0 1.3.4 1.3 1.3v5.4h8.5V440c0-.9.4-1.3 1.3-1.3H43v1.3h-.9c-.3 0-.5.1-.5.5v13h-1.5v-6.7h-8.5v6.7h-1.5zm20.7 6.5h.6v-.1c0-2.2-.8-3-2.7-3-.5 0-2.1.1-2.1.9v.7h-1.4v-1c0-1.5 2.5-1.8 3.4-1.8 3.3 0 4.1 1.8 4.1 4v5.1c0 .3.2.5.5.5h.9v1.2h-1.4c-.9 0-1.3-.4-1.3-1.3v-.8s-.9 2.3-3.5 2.3c-1.8 0-3.6-1-3.6-3.1.1-3.5 4.7-3.6 6.5-3.6zm-2.6 5.5c2 0 3.2-2.1 3.2-3.9v-.5h-.6c-1.7 0-5 0-5 2.4 0 1 .8 2 2.4 2zm13.9-7.9c0-.3-.2-.5-.5-.5h-.9v-1.2h1.5c.9 0 1.3.4 1.3 1.2v1.3c.5-1.4 2.2-2.7 3.8-2.7 1.9 0 3 .9 3.3 2.6.6-1.4 2.1-2.6 3.9-2.6 2.6 0 3.5 1.5 3.5 4.1v5c0 .3.2.5.5.5h.9v1.2h-1.5c-.9 0-1.3-.4-1.3-1.3v-5.1c0-1.7-.4-3.1-2.3-3.1-1.6 0-2.9 1.4-3.3 3-.1.5-.2 1-.2 1.5v5h-1.4v-6.4c0-1.6-.2-3.1-2.2-3.1-1.7 0-3 1.5-3.4 3.1-.1.4-.2.9-.2 1.4v5h-1.4zm23.8-1.9c2.9 0 4.4 2.2 4.4 4.9v.7h-8.1c0 2.7 1.9 4.2 4.1 4.2 1.9 0 3.2-1.3 3.2-1.3l.7 1.1s-1.5 1.5-3.9 1.5c-3.1 0-5.5-2.3-5.5-5.5-.1-3.5 2.3-5.6 5.1-5.6zm2.9 4.4c-.1-2.2-1.4-3.2-3-3.2-1.7 0-3.3 1.1-3.6 3.2zm4.4-2.5c0-.3-.2-.5-.5-.5h-.9v-1.2h1.5c.9 0 1.3.4 1.3 1.2v1.3c.4-1 1.7-2.7 4.2-2.7 2.6 0 3.5 1.5 3.5 4.1v5c0 .3.2.5.5.5h.9v1.2h-1.5c-.9 0-1.3-.4-1.3-1.3v-5.1c0-1.7-.3-3.1-2.3-3.1-1.8 0-3.4 1.2-3.8 3-.1.4-.2.9-.2 1.4v5.1h-1.4zm17.3-1.9c3.1 0 5.6 2.3 5.6 5.5s-2.5 5.6-5.6 5.6-5.6-2.4-5.6-5.6 2.5-5.5 5.6-5.5zm0 9.8c2.2 0 4.1-1.8 4.1-4.3 0-2.4-1.8-4.2-4.1-4.2s-4.1 1.8-4.1 4.2 1.8 4.3 4.1 4.3zm-79.8 11.9c2.6 0 3.4 2 3.4 2v-4.2c0-.3-.2-.5-.5-.5h-.9v-1.2h1.5c.9 0 1.3.4 1.3 1.3v11.8c0 .3.2.5.5.5h.9v1.2h-1.4c-.9 0-1.3-.4-1.3-1.2v-.7s-.9 2.1-3.6 2.1c-2.8 0-4.6-2.3-4.6-5.5 0-3.4 2-5.6 4.7-5.6zm3.5 5.5c0-2.1-1.1-4.2-3.4-4.2-1.9 0-3.4 1.6-3.4 4.2s1.4 4.3 3.3 4.3 3.5-1.3 3.5-4.3zm5.2-3.5c0-.3-.2-.5-.5-.5H38v-1.2h1.5c.9 0 1.3.4 1.3 1.3v7.6c0 .3.2.5.5.5h.9v1.2h-1.5c-.9 0-1.3-.4-1.3-1.3zm-.1-5.9h1.4v1.8h-1.4zm10.5 11.8s1.5 1.8 3.9 1.8c1.7 0 3.3-1.3 3.3-3.2 0-2-1.7-3.1-3.6-3.1h-1l-.3-.9 3.6-4.4c.4-.5.8-.8.8-.8s-.4.1-1.2.1h-3.8c-.3 0-.5.1-.5.5v1h-1.4v-1.5c0-.9.3-1.3 1.2-1.3h7.5v1l-4.3 5.1c1.8.1 4.5 1.2 4.5 4.3 0 2.5-2.1 4.6-4.9 4.6-2.9 0-4.7-2.1-4.7-2.1zm10.9-4.5c0-4.2 1.2-7.6 5.1-7.6 3.8 0 5.1 3.4 5.1 7.6 0 4.3-1.3 7.6-5.1 7.6-3.8.1-5.1-3.3-5.1-7.6zm8.7 0c0-3.5-.8-6.2-3.6-6.2s-3.6 2.7-3.6 6.2.8 6.3 3.6 6.3 3.6-2.7 3.6-6.3zm15.7.9h.6v-.1c0-2.2-.8-3-2.7-3-.5 0-2.1.1-2.1.9v.7h-1.4v-1c0-1.5 2.5-1.8 3.4-1.8 3.3 0 4.1 1.8 4.1 4v5.1c0 .3.2.5.5.5h.9v1.2H87c-.9 0-1.3-.4-1.3-1.3v-.8s-.9 2.3-3.5 2.3c-1.8 0-3.6-1-3.6-3.1 0-3.5 4.7-3.6 6.5-3.6zm-2.6 5.6c2 0 3.2-2.1 3.2-3.9v-.5h-.6c-1.7 0-5 0-5 2.4 0 .9.8 2 2.4 2zm8.2-7.9c0-.3-.2-.5-.5-.5h-.9v-1.2h1.5c.9 0 1.3.4 1.3 1.2v1.3c.4-1 1.7-2.7 4.2-2.7 2.6 0 3.5 1.5 3.5 4.1v5c0 .3.2.5.5.5h.9v1.2h-1.5c-.9 0-1.3-.4-1.3-1.3v-5.1c0-1.7-.3-3.1-2.3-3.1-1.8 0-3.4 1.2-3.8 3-.1.4-.2.9-.2 1.4v5.1h-1.4zm12.8 0c0-.3-.2-.5-.5-.5h-.9v-1.2h1.5c.9 0 1.3.4 1.3 1.2v1.3c.4-1 1.7-2.7 4.2-2.7 2.6 0 3.5 1.5 3.5 4.1v5c0 .3.2.5.5.5h.9v1.2h-1.5c-.9 0-1.3-.4-1.3-1.3v-5.1c0-1.7-.3-3.1-2.3-3.1-1.8 0-3.4 1.2-3.8 3-.1.4-.2.9-.2 1.4v5.1h-1.4zm12.8 0c0-.3-.2-.5-.5-.5h-.9v-1.2h1.5c.9 0 1.3.4 1.3 1.3v7.6c0 .3.2.5.5.5h.9v1.2h-1.5c-.9 0-1.3-.4-1.3-1.3zm0-5.9h1.4v1.8h-1.4z" fill="#4e5594"/><path d="M189.5 440.4c0-.3-.2-.4-.4-.4h-.9v-1.2h1.5c.9 0 1.2.4 1.2 1.2v5.2h8.1V440c0-.9.4-1.2 1.2-1.2h1.5v1.2h-.9c-.3 0-.4.1-.4.4v12.5H199v-6.5h-8.1v6.5h-1.4zm19.9 6.3h.6v-.1c0-2.1-.8-2.9-2.6-2.9-.5 0-2 .1-2 .9v.6h-1.3v-1c0-1.4 2.4-1.7 3.3-1.7 3.2 0 4 1.7 4 3.9v4.9c0 .3.2.4.4.4h.8v1.2h-1.4c-.9 0-1.2-.4-1.2-1.2v-.7s-.8 2.2-3.4 2.2c-1.7 0-3.4-1-3.4-3 0-3.4 4.4-3.5 6.2-3.5zm-2.6 5.3c1.9 0 3.1-2 3.1-3.8v-.5h-.6c-1.6 0-4.8 0-4.8 2.3.1 1 .8 2 2.3 2zm13.5-7.6c0-.3-.2-.4-.4-.4h-.8v-1.2h1.4c.8 0 1.2.4 1.2 1.1v1.2c.5-1.4 2.1-2.6 3.7-2.6 1.9 0 2.8.9 3.1 2.5.5-1.4 2-2.5 3.7-2.5 2.5 0 3.4 1.4 3.4 3.9v4.8c0 .3.2.4.4.4h.8v1.2h-1.4c-.9 0-1.2-.4-1.2-1.2v-4.9c0-1.7-.3-3-2.2-3-1.5 0-2.8 1.4-3.2 2.9-.1.4-.2.9-.2 1.5v4.8h-1.4v-6.1c0-1.5-.2-3-2.1-3-1.7 0-2.9 1.4-3.3 3-.1.4-.2.9-.2 1.3v4.8h-1.4v-8.5zm22.8-1.9c2.8 0 4.3 2.2 4.3 4.7v.7h-7.9c0 2.6 1.8 4 3.9 4 1.9 0 3-1.2 3-1.2l.7 1s-1.5 1.5-3.8 1.5c-3 0-5.3-2.2-5.3-5.3.1-3.4 2.3-5.4 5.1-5.4zm2.8 4.3c-.1-2.1-1.4-3.1-2.9-3.1-1.7 0-3.1 1.1-3.5 3.1zm4.2-2.4c0-.3-.2-.4-.4-.4h-.8v-1.2h1.4c.8 0 1.2.4 1.2 1.1v1.2c.4-.9 1.7-2.6 4-2.6 2.5 0 3.4 1.4 3.4 3.9v4.8c0 .3.2.4.4.4h.8v1.2h-1.4c-.9 0-1.2-.4-1.2-1.2v-4.9c0-1.6-.2-3-2.2-3-1.7 0-3.2 1.2-3.7 2.9-.1.4-.2.9-.2 1.4v4.9H250v-8.5zm16.6-1.9c3 0 5.4 2.3 5.4 5.3 0 3.1-2.4 5.4-5.3 5.4-3 0-5.4-2.3-5.4-5.4 0-3 2.4-5.3 5.3-5.3zm0 9.4c2.2 0 3.9-1.8 3.9-4.1s-1.8-4-3.9-4c-2.2 0-3.9 1.7-3.9 4s1.7 4.1 3.9 4.1zm-77 11.8c2.5 0 3.3 1.9 3.3 1.9v-4.1c0-.3-.2-.4-.4-.4h-.8v-1.2h1.4c.9 0 1.2.4 1.2 1.2v11.3c0 .3.2.4.4.4h.8v1.2h-1.4c-.8 0-1.2-.4-1.2-1.1v-.6s-.8 2-3.5 2-4.4-2.2-4.4-5.3c.1-3.2 2-5.3 4.6-5.3zm3.4 5.3c0-2.1-1-4.1-3.2-4.1-1.8 0-3.3 1.5-3.3 4.1 0 2.5 1.3 4.1 3.2 4.1 1.7 0 3.3-1.2 3.3-4.1zm4.9-3.4c0-.3-.2-.4-.4-.4h-.8V464h1.4c.9 0 1.2.4 1.2 1.2v7.3c0 .3.2.4.4.4h.8v1.2h-1.4c-.9 0-1.2-.4-1.2-1.2zm0-5.7h1.3v1.7H198zm10.7 11.4s1.1 1.7 3.3 1.7c2 0 3.5-1.4 3.5-3.3 0-2-1.6-3.3-3.7-3.3-1.6 0-2.7.8-2.7.8l-.7-.3.6-5.7c.1-.9.4-1.2 1.2-1.2h4.7c.8 0 1.2.4 1.2 1.2v1.4h-1.3v-.9c0-.3-.2-.4-.4-.4h-3.6c-.3 0-.4.1-.4.4l-.4 3.2c-.1.5-.1.8-.1.8s.9-.5 2.1-.5c2.9 0 5 2.1 5 4.6s-2.1 4.6-5 4.6c-2.8 0-4.2-2-4.2-2zm10.5-4.3c0-4.1 1.2-7.3 4.9-7.3s4.9 3.2 4.9 7.3-1.2 7.3-4.9 7.3-4.9-3.2-4.9-7.3zm8.3 0c0-3.4-.8-6-3.4-6-2.7 0-3.4 2.6-3.4 6s.8 6 3.4 6c2.7 0 3.4-2.6 3.4-6zm15.1.8h.6v-.1c0-2.1-.8-2.9-2.6-2.9-.5 0-2 .1-2 .9v.6h-1.3v-1c0-1.4 2.4-1.7 3.3-1.7 3.2 0 4 1.7 4 3.9v4.9c0 .3.2.4.4.4h.8v1.2h-1.3c-.9 0-1.2-.4-1.2-1.2v-.7s-.8 2.2-3.4 2.2c-1.7 0-3.4-1-3.4-3-.1-3.3 4.4-3.5 6.1-3.5zm-2.5 5.4c1.9 0 3.1-2 3.1-3.8v-.5h-.6c-1.6 0-4.8 0-4.8 2.3.1 1 .8 2 2.3 2zm7.9-7.6c0-.3-.2-.4-.4-.4h-.8V464h1.4c.8 0 1.2.4 1.2 1.1v1.2c.4-.9 1.7-2.6 4-2.6 2.5 0 3.4 1.4 3.4 3.9v4.8c0 .3.2.4.4.4h.8v1.2h-1.4c-.9 0-1.2-.4-1.2-1.2V468c0-1.6-.2-3-2.2-3-1.7 0-3.2 1.2-3.7 2.9-.1.4-.2.9-.2 1.4v4.9h-1.4v-8.6zm12.3 0c0-.3-.2-.4-.4-.4h-.8V464h1.4c.8 0 1.2.4 1.2 1.1v1.2c.4-.9 1.7-2.6 4-2.6 2.5 0 3.4 1.4 3.4 3.9v4.8c0 .3.2.4.4.4h.8v1.2h-1.4c-.9 0-1.2-.4-1.2-1.2V468c0-1.6-.2-3-2.2-3-1.7 0-3.2 1.2-3.7 2.9-.1.4-.2.9-.2 1.4v4.9h-1.4v-8.6zm12.3 0c0-.3-.2-.4-.4-.4h-.8V464h1.4c.9 0 1.2.4 1.2 1.2v7.3c0 .3.2.4.4.4h.8v1.2h-1.4c-.9 0-1.2-.4-1.2-1.2zm0-5.7h1.3v1.7h-1.3z" fill="#00295a"/><path d="M434.3 373.6s2.1 1.9 5.1 1.1c2.7-.7 4.3-3.2 3.6-5.8s-3.4-3.9-6.2-3.2c-2.2.6-3.4 2.1-3.4 2.1l-1.1-.1-1.2-7.9c-.2-1.2 0-1.8 1.2-2.1l6.3-1.7c1.1-.3 1.8.1 2.1 1.2l.5 1.9-1.8.5-.3-1.3c-.1-.4-.4-.5-.8-.4l-4.9 1.3c-.4.1-.5.3-.4.8l.7 4.5c.1.7.1 1.1.1 1.1h.1s1-1 2.7-1.5c3.9-1 7.5 1 8.4 4.5.9 3.4-1.2 7-5.1 8.1-3.8 1-6.4-1.2-6.4-1.2zm12.7-9.7c-1.5-5.5-1-10.3 4-11.7 5-1.3 7.8 2.6 9.3 8.1 1.5 5.6 1 10.4-4 11.7s-7.8-2.5-9.3-8.1zm11.3-3c-1.2-4.6-3.2-7.9-6.8-6.9s-3.7 4.8-2.5 9.4 3.2 7.9 6.9 6.9 3.6-4.8 2.4-9.4zm3.6-7.5c-.6-2.1.7-4.3 2.8-4.8s4.3.7 4.9 2.8-.7 4.3-2.8 4.8c-2.2.5-4.4-.7-4.9-2.8zm13.9-7.4l1.9-.5-9.5 23.1-2 .5zm-7.9 5.8c-.3-1.2-1.6-2-2.8-1.7-1.3.3-1.9 1.6-1.6 2.9s1.6 2 2.8 1.7 2-1.7 1.6-2.9zm9.3 6.6c2.1-.6 4.3.7 4.9 2.8s-.7 4.2-2.8 4.8-4.3-.7-4.8-2.7c-.7-2.2.6-4.4 2.7-4.9zm1.6 6c1.3-.3 2-1.6 1.6-2.9-.3-1.2-1.6-2-2.8-1.7-1.3.3-1.9 1.6-1.6 2.9.4 1.3 1.6 2.1 2.8 1.7zM418.7 394l-1.3.4-.3-1.3 5.7-1.5c4.3-1.1 7.9.7 9.1 5.2s-.9 7.9-5.2 9l-3.2.8c-.9.2-1.3 0-1.6-.9zm5 11.3l2.4-.6c3.5-.9 5.3-3.6 4.2-7.4-1-3.8-3.9-5.2-7.4-4.3l-2.8.8 3 11.3c.1.1.3.2.6.2zm14.3-13.7c3-.8 6 .8 6.8 3.8.8 3.1-1 6-3.9 6.8-3 .8-6-.9-6.8-3.9-.9-3 .9-5.9 3.9-6.7zm2.5 9.4c2.2-.6 3.5-2.8 2.8-5.2-.6-2.3-2.9-3.6-5-3-2.2.6-3.5 2.8-2.9 5.1.7 2.4 2.9 3.7 5.1 3.1zm5.9-9.6c-.1-.3-.3-.4-.6-.3l-.9.2-.3-1.2 1.4-.4c.9-.2 1.3 0 1.5.8l.1.5c.1.4.2.7.2.7.1-1 1-3 3.4-3.7 2.5-.7 3.8.5 4.5 3l1.3 4.8c.1.3.3.4.6.3l.9-.2.3 1.2-1.4.4c-.9.2-1.3 0-1.6-.9l-1.3-4.9c-.4-1.6-1.1-3-3-2.4-1.7.5-2.9 2.1-2.9 3.9 0 .5.1.9.2 1.4l1.3 4.9-1.4.4zm12.4-3.3c-.1-.3-.3-.4-.6-.3l-.9.2-.3-1.2 1.4-.4c.9-.2 1.3 0 1.5.8l.1.5c.1.4.2.7.2.7.1-1 1-3 3.4-3.7 2.5-.7 3.8.5 4.5 3l1.3 4.8c.1.3.3.4.6.3l.9-.2.3 1.2-1.4.4c-.9.2-1.3 0-1.6-.9l-1.3-4.9c-.4-1.6-1.1-3-3-2.4-1.7.5-2.9 2.1-2.9 3.9 0 .5.1.9.2 1.4l1.3 4.9-1.4.4zm15.9-6.3c2.8-.8 4.9 1 5.5 3.6.1.2.1.7.1.7l-7.8 2.1c.7 2.6 2.9 3.6 5 3 1.9-.5 2.7-2.1 2.7-2.1l.9.9s-1.1 1.9-3.4 2.5c-3 .8-5.9-.8-6.8-3.9-.7-3.5 1-6.1 3.8-6.8zm4 3.5c-.6-2.1-2.2-2.8-3.7-2.4-1.7.4-2.9 1.9-2.7 4.1zm9-5.5l-1.3.4-.3-1.2 1.4-.4-.8-2.8 1.4-.4.8 2.8 2.6-.7.3 1.2-2.6.7 1.4 5.2c.6 2.4 2.2 2.3 3 2.1.3-.1.5-.2.5-.2l.3 1.2s-.2.1-.6.2c-1.2.3-3.6.6-4.6-2.8zm6.8-1.3c-.1-.3-.3-.4-.6-.3l-.9.2-.3-1.2 1.4-.4c.9-.2 1.3 0 1.5.8l.2.7.2.8c.1-1.7.9-3.1 2.5-3.6.3-.1.6-.1.6-.1l.4 1.4s-.3 0-.5.1c-1.4.4-2.2 1.8-2.3 3.4 0 .7.1 1.4.2 2.1l1.1 4.3-1.4.4zm12.6-.9l.6-.2v-.1c-.6-2.1-1.5-2.7-3.4-2.2-.5.1-1.9.7-1.7 1.4l.2.6-1.3.4-.3-1c-.4-1.4 2-2.4 2.9-2.6 3.2-.9 4.5.7 5 2.8l1.3 4.9c.1.3.3.4.6.3l.9-.2.3 1.2-1.4.4c-.9.2-1.3-.1-1.5-.9l-.2-.8s-.2 2.4-2.8 3.1c-1.7.5-3.7-.1-4.3-2.1-1.2-3.2 3.3-4.6 5.1-5zm-1.2 6c1.9-.5 2.6-2.9 2.1-4.6l-.1-.5-.6.2c-1.6.4-4.8 1.3-4.2 3.6.3.9 1.3 1.7 2.8 1.3zm-77.7 34c-.1-.3-.3-.4-.6-.3l-.9.2-.3-1.2 1.4-.4c.9-.2 1.3 0 1.6.9l2 7.3c.1.3.3.4.6.3l.9-.2.3 1.2-1.4.4c-.9.2-1.3 0-1.6-.9zm-1.5-5.6l1.3-.4.5 1.7-1.3.4zm15.2 0c2.5-.7 3.8 1 3.8 1s-.1-.3-.2-.8l-.9-3.3c-.1-.3-.3-.4-.6-.3l-.9.2-.3-1.2 1.4-.4c.9-.2 1.3 0 1.6.9l3 11.4c.1.3.3.4.6.3l.9-.2.3 1.2-1.4.4c-.9.2-1.3-.1-1.5-.8-.1-.4-.1-.7-.1-.7s-.3 2.2-3 3c-2.7.7-5-1-5.9-4.2-.8-3.2.5-5.8 3.2-6.5zm4.8 4.4c-.6-2.1-2.1-3.8-4.3-3.2-1.8.5-2.9 2.4-2.2 5 .7 2.5 2.4 3.8 4.3 3.3 1.7-.6 3-2.2 2.2-5.1zm4-4.8c-.1-.3-.3-.4-.6-.3l-.9.2-.3-1.2 1.4-.4c.9-.2 1.3 0 1.6.9l2 7.3c.1.3.3.4.6.3l.9-.2.3 1.2-1.4.4c-.9.2-1.3 0-1.6-.9zm-1.5-5.7l1.3-.4.5 1.7-1.3.4zm6.5 4.4c-.1-.3-.3-.4-.6-.3l-.9.2-.3-1.2 1.4-.4c.9-.2 1.3 0 1.5.8l.2.7.2.8c.1-1.7.9-3.1 2.5-3.6.3-.1.6-.1.6-.1l.4 1.4s-.3 0-.5.1c-1.4.4-2.2 1.8-2.3 3.4 0 .7.1 1.4.2 2.1l1.1 4.3-1.4.4zm7.5-2c-.1-.3-.3-.4-.6-.3l-.9.2-.3-1.2 1.4-.4c.9-.2 1.3 0 1.6.9l2 7.3c.1.3.3.4.6.3l.9-.2.3 1.2-1.4.4c-.9.2-1.3 0-1.6-.9zm-1.6-5.7l1.3-.4.5 1.7-1.3.4zm9.6 1.5c2.7-.7 3.9.8 3.9.8s0-.2-.1-.4c-.2-.7 0-1.2.9-1.4l1.4-.4.3 1.2-.8.2c-.3.1-.4.3-.3.6l2.2 8.3c.9 3.2-1.2 5.1-3.7 5.8-1.2.3-2.4.3-3.5.1l.2-1.3s1.4.4 2.9 0c2-.5 3.3-1.9 2.7-4.2l-.2-.9c-.1-.4-.2-.7-.2-.7-.3 1.3-1.1 2.2-2.7 2.6-2.7.7-5.1-1-5.9-4-1-3 .1-5.5 2.9-6.3zm4.7 4.3c-.8-3-2.5-3.5-4.3-3-2 .5-2.8 2.3-2.1 4.7s2.4 3.7 4.4 3.1c1.6-.4 2.8-1.8 2-4.8zm7.6-7.5c2.8-.8 4.9 1 5.5 3.6.1.2.1.7.1.7l-7.8 2.1c.7 2.6 2.9 3.6 5 3 1.9-.5 2.7-2.1 2.7-2.1l.9.9s-1.1 1.9-3.4 2.5c-3 .8-5.9-.8-6.8-3.9-.7-3.5 1-6.1 3.8-6.8zm4 3.5c-.6-2.1-2.2-2.8-3.7-2.4-1.7.4-2.9 1.9-2.7 4.1zm3.5-3.5c-.1-.3-.3-.4-.6-.3l-.9.2-.3-1.2 1.4-.4c.9-.2 1.3 0 1.5.8l.1.5c.1.4.2.7.2.7.1-1 1-3 3.4-3.7 2.5-.7 3.8.5 4.5 3l1.3 4.8c.1.3.3.4.6.3l.9-.2.3 1.2-1.4.4c-.9.2-1.3 0-1.6-.9l-1.3-4.9c-.4-1.6-1.1-3-3-2.4-1.7.5-2.9 2.1-2.9 3.9 0 .5.1.9.2 1.4l1.3 4.9-1.4.4zm12.3-3.9l-1.3.4-.3-1.2 1.4-.4-.8-2.8 1.4-.4.8 2.8 2.6-.7.3 1.2-2.6.7 1.4 5.2c.6 2.4 2.2 2.3 3 2.1.3-.1.5-.2.5-.2l.3 1.2s-.2.1-.6.2c-1.2.3-3.6.6-4.6-2.8zm6.9-1.3c-.1-.3-.3-.4-.6-.3l-.9.2-.3-1.2 1.4-.4c.9-.2 1.3 0 1.6.9l2 7.3c.1.3.3.4.6.3l.9-.2.3 1.2-1.4.4c-.9.2-1.3 0-1.6-.9zm-1.6-5.7l1.3-.4.5 1.7-1.3.4zm80.4-29.4s.9 2.8 4.1 3.7c2.9.8 5.6-.7 6.4-3.4.8-2.8-1-5.4-4-6.2-2.3-.6-4.2.1-4.2.1l-.9-.7 3.1-7.9c.5-1.2 1-1.6 2.3-1.3l6.7 1.8c1.2.3 1.6 1 1.2 2.2l-.6 2-1.9-.5.4-1.4c.1-.4-.1-.7-.5-.8l-5.1-1.4c-.4-.1-.6 0-.8.5l-1.8 4.5c-.3.7-.5 1.1-.5 1.1h.1s1.5-.4 3.3.1c4.1 1.1 6.3 4.9 5.3 8.6-1 3.6-4.8 5.8-9 4.7-4-1.1-5.2-4.5-5.2-4.5zm16.9-2.1c1.6-5.8 4.6-10 9.9-8.6 5.3 1.5 5.7 6.6 4.1 12.4-1.6 5.9-4.6 10.1-9.9 8.6-5.3-1.4-5.8-6.5-4.1-12.4zm11.9 3.3c1.3-4.8 1.3-8.9-2.6-10s-6 2.4-7.3 7.3-1.3 9 2.6 10c3.8 1.1 6-2.4 7.3-7.3zm7.3-4.9c.6-2.2 2.9-3.5 5.2-2.9s3.6 2.9 3 5.1-2.9 3.5-5.2 2.9-3.6-2.9-3-5.1zm16.7.6l2.1.6-21.1 16.1-2.1-.6zm-10.2 1.1c.4-1.3-.4-2.7-1.7-3.1s-2.6.5-3 1.8.4 2.7 1.7 3c1.3.4 2.6-.3 3-1.7zm4.9 11c2.3.6 3.6 2.9 3 5.2-.6 2.2-2.9 3.5-5.2 2.9s-3.6-2.9-3-5.1c.6-2.3 2.9-3.6 5.2-3zm-1.8 6.5c1.3.4 2.7-.4 3-1.7.4-1.3-.4-2.7-1.7-3.1s-2.6.5-3 1.8c-.3 1.2.4 2.6 1.7 3zm-71.7-5.9c.1-.3 0-.5-.3-.5l-.8-.2.3-1.2 1.4.4c.8.2 1.1.7.8 1.5l-2.1 7.5c-.6 2.2.4 4 2.6 4.6s4-.4 4.6-2.6l2.1-7.5c.2-.8.7-1.1 1.5-.8l1.4.4-.3 1.2-.8-.2c-.3-.1-.5 0-.5.3l-2 7.2c-.8 2.9-3.3 4.2-6.2 3.4s-4.4-3.3-3.6-6.1zm16.9 6.8c2.8.8 4.4 3.5 3.7 6.3-.8 2.9-3.6 4.4-6.4 3.7-2.8-.8-4.4-3.5-3.6-6.4.7-2.9 3.6-4.4 6.3-3.6zm-2.4 8.8c2 .6 4.1-.6 4.8-2.9.6-2.2-.6-4.2-2.7-4.8-2-.6-4.2.6-4.7 2.7-.6 2.3.6 4.4 2.6 5zm9.4-5c.1-.3 0-.5-.3-.5l-.8-.2.3-1.1 1.3.4c.8.2 1.1.7.9 1.4l-.1.4c-.1.4-.2.7-.2.7.8-1.2 2.6-1.9 4.1-1.5 1.8.5 2.4 1.5 2.3 3.2.9-1.1 2.5-1.9 4.2-1.4 2.3.6 2.8 2.2 2.1 4.6l-1.2 4.5c-.1.3 0 .5.3.5l.8.2-.3 1.1-1.3-.4c-.8-.2-1.1-.7-.8-1.5l1.3-4.6c.4-1.6.5-2.9-1.3-3.4-1.4-.4-3 .6-3.7 1.9-.2.4-.4.8-.6 1.3l-1.2 4.5-1.3-.4 1.6-5.7c.4-1.4.6-2.9-1.2-3.4-1.6-.4-3.1.6-3.9 1.9-.2.4-.4.8-.5 1.2l-1.2 4.5-1.3-.4zm17.7 4.8c.1-.3 0-.5-.3-.5l-.8-.2.3-1.1 1.3.4c.8.2 1.1.7.8 1.5l-1.9 6.8c-.1.3 0 .5.3.5l.8.2-.3 1.1-1.3-.4c-.8-.2-1.1-.7-.8-1.5zm1.4-5.3l1.2.3-.4 1.6-1.2-.3zm3.2 6.6c.1-.3 0-.5-.3-.5l-.8-.2.3-1.1 1.3.4c.8.2 1.1.7.9 1.4l-.1.4c-.1.4-.2.7-.2.7.6-.8 2.2-2 4.4-1.4 2.4.7 2.8 2.2 2.2 4.6l-1.2 4.5c-.1.3 0 .5.3.5l.8.2-.3 1.1-1.3-.4c-.8-.2-1.1-.7-.8-1.5l1.3-4.6c.4-1.5.5-2.9-1.3-3.4-1.6-.4-3.3.3-4.2 1.7-.2.4-.4.8-.5 1.2l-1.3 4.6-1.3-.4zm11.6 3.2c.1-.3 0-.5-.3-.5l-.8-.2.3-1.1 1.3.4c.8.2 1.1.7.8 1.5l-1.9 6.8c-.1.3 0 .5.3.5l.8.2-.3 1.1-1.3-.4c-.8-.2-1.1-.7-.8-1.5zm1.5-5.3l1.2.3-.4 1.6-1.2-.3zm8.6 7.6l-1.2-.3.3-1.1 1.3.3.7-2.6 1.3.3-.7 2.6 2.4.7-.3 1.1-2.4-.7-1.3 4.8c-.6 2.2.7 2.9 1.4 3.1.3.1.4.1.4.1l-.3 1.2s-.2 0-.6-.1c-1.1-.3-3.2-1.3-2.3-4.4zm6.1 2.1c.1-.3 0-.5-.3-.5l-.8-.2.3-1.1 1.3.4c.8.2 1.1.6.9 1.4l-.2.6c-.1.4-.2.7-.2.7.8-1.3 2.2-2.1 3.7-1.7.3.1.5.2.5.2l-.3 1.3s-.2-.1-.5-.2c-1.3-.4-2.6.4-3.4 1.7-.4.6-.6 1.2-.8 1.8l-1.1 4-1.3-.4zm10.6 5.2l.5.1v-.1c.5-2 0-2.9-1.7-3.4-.5-.1-1.9-.4-2.1.3l-.2.6-1.2-.3.2-.9c.4-1.3 2.7-1 3.5-.8 3 .8 3.3 2.6 2.7 4.7l-1.3 4.6c-.1.3 0 .5.3.5l.8.2-.3 1.1-1.3-.4c-.8-.2-1-.7-.8-1.4.1-.4.2-.7.2-.7s-1.3 1.8-3.7 1.2c-1.6-.4-3-1.8-2.5-3.7 1-3.1 5.2-2 6.9-1.6zm-3.8 4.4c1.8.5 3.4-1.1 3.9-2.7l.1-.4-.5-.2c-1.5-.4-4.5-1.2-5.1.9-.3.9.2 2 1.6 2.4zm-81.8-7.8c.1-.3 0-.5-.3-.5l-.8-.2.3-1.1 1.3.4c.8.2 1.1.7.8 1.5l-1.9 6.8c-.1.3 0 .5.3.5l.8.2-.3 1.1-1.3-.4c-.8-.2-1.1-.7-.8-1.5zm1.4-5.4l1.2.3-.4 1.6-1.2-.3zm12.3 7.2c2.3.6 2.6 2.6 2.6 2.6s.1-.3.2-.7l.8-3.1c.1-.3 0-.5-.3-.5l-.8-.2.3-1.1 1.3.4c.8.2 1.1.7.8 1.5l-2.9 10.6c-.1.3 0 .5.3.5l.8.2-.3 1.1-1.3-.4c-.8-.2-1-.7-.8-1.4.1-.4.2-.6.2-.6s-1.3 1.7-3.8 1c-2.6-.7-3.6-3.2-2.8-6.1.9-3 3.2-4.5 5.7-3.8zm1.8 5.9c.5-1.9.1-4.1-2-4.7-1.7-.5-3.5.6-4.1 3-.6 2.3.2 4.2 2 4.7 1.5.4 3.3-.3 4.1-3zm5.5-2c.1-.3 0-.5-.3-.5l-.8-.2.3-1.1 1.3.4c.8.2 1.1.7.8 1.5l-1.9 6.8c-.1.3 0 .5.3.5l.8.2-.3 1.1-1.3-.4c-.8-.2-1.1-.7-.8-1.5zm1.4-5.3l1.2.3-.4 1.6-1.2-.3zm3.3 6.6c.1-.3 0-.5-.3-.5l-.8-.2.3-1.1 1.3.4c.8.2 1.1.6.9 1.4l-.2.6c-.1.4-.2.7-.2.7.8-1.3 2.2-2.1 3.7-1.7.3.1.5.2.5.2l-.3 1.3s-.2-.1-.5-.2c-1.3-.4-2.6.4-3.4 1.7-.4.6-.6 1.2-.8 1.8l-1.1 4-1.3-.4zm6.9 1.9c.1-.3 0-.5-.3-.5l-.8-.2.3-1.1 1.3.4c.8.2 1.1.7.8 1.5l-1.9 6.8c-.1.3 0 .5.3.5l.8.2-.3 1.1-1.3-.4c-.8-.2-1.1-.7-.8-1.5zm1.4-5.3l1.2.3-.4 1.6-1.2-.3zm7 5.7c2.6.7 2.7 2.5 2.7 2.5s0-.2.1-.4c.2-.7.6-1 1.4-.7l1.3.4-.3 1.1-.8-.2c-.3-.1-.5 0-.5.3l-2.1 7.8c-.8 3-3.4 3.6-5.7 2.9-1.1-.3-2.1-.9-2.9-1.6l.8-.9s1 1 2.4 1.4c1.9.5 3.6 0 4.2-2.1l.2-.8c.1-.4.2-.7.2-.7-.9.9-2 1.2-3.4.8-2.6-.7-3.7-3.2-2.9-6 .6-2.9 2.8-4.5 5.3-3.8zm1.8 5.7c.8-2.8-.3-4-2-4.5-1.9-.5-3.3.5-3.9 2.8s.2 4.1 2.1 4.6c1.5.5 3.1-.1 3.8-2.9zm9.7-2.5c2.6.7 3.4 3.1 2.8 5.5-.1.2-.2.6-.2.6l-7.3-2c-.6 2.4.7 4.3 2.6 4.8 1.7.5 3.2-.4 3.2-.4l.4 1.1s-1.8 1-3.9.4c-2.8-.8-4.4-3.4-3.6-6.3.8-3.1 3.4-4.4 6-3.7zm1.6 4.8c.5-2-.5-3.3-1.9-3.7-1.6-.4-3.2.2-4.1 2zm4.5-1.2c.1-.3 0-.5-.3-.5l-.8-.2.3-1.1 1.3.4c.8.2 1.1.7.9 1.4l-.1.4c-.1.4-.2.7-.2.7.6-.8 2.2-2 4.4-1.4 2.4.7 2.8 2.2 2.2 4.6l-1.2 4.5c-.1.3 0 .5.3.5l.8.2-.3 1.1-1.3-.4c-.8-.2-1.1-.7-.8-1.5l1.3-4.6c.4-1.5.5-2.9-1.3-3.4-1.6-.4-3.3.3-4.2 1.7-.2.4-.4.8-.5 1.2l-1.3 4.6-1.3-.4zm11.7 2.7l-1.2-.3.3-1.1 1.3.3.7-2.6 1.3.3-.7 2.6 2.4.7-.3 1.1-2.4-.7-1.3 4.8c-.6 2.2.7 2.9 1.4 3.1.3.1.4.1.4.1l-.3 1.2s-.2 0-.6-.1c-1.1-.3-3.2-1.3-2.3-4.4zm6.2 2.2c.1-.3 0-.5-.3-.5l-.8-.2.3-1.1 1.3.4c.8.2 1.1.7.8 1.5l-1.9 6.8c-.1.3 0 .5.3.5l.8.2-.3 1.1-1.3-.4c-.8-.2-1.1-.7-.8-1.5zm1.4-5.3l1.2.3-.4 1.6-1.2-.3z" fill="#fff"/></svg>