<svg baseProfile="basic" id="Livello_1" xmlns="http://www.w3.org/2000/svg" viewBox="0 0 313.5 421.5"><style>.st0{fill:none;stroke:#f3352f;stroke-width:3;stroke-linecap:round;stroke-miterlimit:10;stroke-dasharray:0,9}.st1{fill:#00295a}.st2{fill:#fff}</style><path class="st0" d="M121.5 60.9c63-14.8 126 24.3 140.7 87.3S238 274.1 175 288.9c-63 14.8-126-24.3-140.7-87.3-14.8-62.9 24.2-126 87.2-140.7z"/><path class="st1" d="M153.8 264.7c36.7 1.1 65.5 31.9 64.4 68.6s-31.9 65.5-68.6 64.4c-36.7-1.1-65.5-31.9-64.4-68.6 1.2-36.7 31.9-65.6 68.6-64.4zm4.6-10.4h-.4c-3.2-.3-4.6-.7-4.5-3.1.1-2.3 0-5.1.6-7.2.5-2 .7-6.4.5-7-.1-.3-.3-1.9-.6-3.7-.2-1.9-.5-4.1-.7-4.7-.3-1.1.9-6.1 1.6-6.8.1-.2.4-.4.6-.6.6-.5 1.4-1.2 1-2-.4-1-1.2-5.2-.3-9 .9-3.7 1.8-10.3 1.6-11.3-.1-.4 0-.8.1-1.4.1-.8.3-1.6-.2-2.4-.8-1.2-.7-2.7-.7-3.8v-.3c0-.5-.1-2.1-.2-3.6-.2-1.6-.3-3.3-.3-3.9 0-.3 0-1.3.1-2.6.2-3.2.3-8.6.4-11.9v-5.2c0-4.8 0-11.9-.2-13.1-.3.6-.8 2.4-1.2 4.2-.5 1.9-1 3.9-1.5 5.2-.4 1-.8 1.9-1.3 2.9-.8 1.6-1.4 3.1-1.4 4.3-.1 3.7-.3 6-.9 6.9-.7 1.1-1.4 2.3-1.2 4 .2 1.6-.1 2.7-.6 2.9-.3.2-.7.6-.9.7.3.2 1 1.3 1 2.9 0 1.7.7 8.7 1.7 12.4 1 3.7 3.3 17 2.8 20.2-.4 3.2-1.4 9.2-1.6 9.8-.1.2 0 .3 0 .6.1.3.2.8.2 1.9 0 .4.1.7 0 1 0 1.4.1 2.1.2 2.6.1.3.2.7.3 1.3.2 1 .5 2.5.8 3.4.4 1.4.9 5.3-.4 6.1-.6.4-3 1.4-6.1 1.3-.2 0-.4 0-.5-.1-.3 0-.6-.1-.8-.1-.5-.1-1-.1-1.5-.1-1.3 0-2.5.2-5.3 1.2-2.3 1-6.7 2.4-10.1 2.4-1.3 0-2.4-.4-3.2-.9-2.7-1.9-3.5-4.4-2.6-5.7.7-1.2 3-2 4.7-2.4 1.5-.3 3.8-.9 5.8-2.6 1.7-1.3 3.4-3.2 3.8-3.7-.1-.1-.3-.2-.3-.5-.1-.3.1-.6.3-1 .2-.3.5-.5.8-.8.3-.3.8-.6.7-.9 0-.2-.2-.3-.4-.5-1.3-.9-2.5-5.5-2.1-7.7.1-.8.3-1.7.6-2.8.4-2.2.9-4.6.9-5.3 0-.4-.6-3.9-1.2-7.5-1-5.6-2.1-12-2-12.8.2-1.2.1-2-.3-2.3-.5-.4-.8-3.9-.6-4.6.3-.6.2-1.4-.3-2.7-.1-.3-.2-.5-.3-.8-.5-1.1-1.1-2.5-.8-4.6.1-1.2.5-3.6.9-6.2.4-3.4 1-7.2 1.3-8.6.2-1 .5-2.9.8-5.1.4-3.4 1-7.3 1.3-8.8.5-2.3 1.2-8.1 1.2-8.7-.3-.3-1.5-2.2-1.5-2.8.1-.8.5-2 .9-3.3.4-1.3.8-3.1 1.4-5 .9-3.7 1.7-7.7 2.1-10 .6-3.8 2.3-10.3 2.6-11.2-.8-.1-5.5-1.1-7.3-1.6-1.9-.6-2.4-1.6-2.8-3.7-.1-.9-.2-1.7-.3-2.4 0-1-.1-1.9-.5-2.4-.5-.9.4-3.1 1.1-3.8.1-.2.4-.4.6-.5.5-.4.9-.9 1.4-2.4.7-2.1 2.6-6.5 3-7 .2-.3.8-1 .7-1.5-.1-.3.1-.8.6-1.6.4-.6.7-1.3.7-1.7 0-.4.1-.8.4-1.1.2-.5.4-.9.4-1.5.1-.6.4-1.6.9-2.7.4-.9.8-1.8.8-2.2-.1-.9.3-2.3 1-3.7.6-1.3 1.9-1.4 2.3-1.3 1-1 4.8-2.9 6.9-3.8 1.5-.7 2.7-1.1 3.2-1.4-.1-2.6 0-3 .1-3 .1-.3 1.3-1.4 2.1-2.1v-.1c0-.1-.1-.3 0-.5-.1-.7-.1-2-1.1-2.7-1.2-.9-2.1-3.1-2.5-6.1s-.8-5.1-.8-5.1c0-.1-.3-4.8-.9-7-.7-2.4 0-4.6.3-5.5.3-.9 1.1-1.5 1.4-1.7-.2-.4-.6-1.8 0-3.2.4-.9 1.4-1.7 2.7-2.1 1.2-.4 2.7-.5 4.5-.4 2.1 0 4.2.4 5.8.7 1.1.2 1.8.3 2.3.3h.1c2 .1 5.3 2.3 6 5.6.7 3.3.8 4.3.7 6.3-.1 1.3-.5 2.9-.9 4.5-.2.9-.4 1.7-.6 2.6-.4 1.5-.8 2.2-1.2 2.9-.2.4-.4.7-.6 1.3-.1.2-.2.6-.2.8-.4 1-.7 1.8-.6 2.8v2.3h.2v.2c0 .1.2.5.4.7.3.5.6 1 .6 1.3 0 .2 0 .4.1.7.2.1.8.2 1.2.8.6.8 2.6 3.2 2.9 3.5.3 0 1.9.3 6.2 1.6l.3.1c2.7.8 7.1 2.1 7.2 5.5 0 .4.1.7.1 1.1.2 2.1.4 4.2-.8 6.2-1.3 2.3-2.4 5.2-3 8-.6 2.6-1.2 5-2.2 6.2-1 1.2-1.1 1.9-1.2 3.4 0 .9-.4 1.6-.9 2.4-.3.5-.6 1-.8 1.6-.3.8-.7 2.1-1.1 3.3-.4 1.3-.6 2.1-.8 2.3-.1.3.2 4.7.7 6.7.2 1 1.3 9 2.3 17.3 2 16 1.7 16 1.6 16.2-.1 0-.3.2-.5.3-1.2.8-4.2 2.7-5.6 3.2-1.3.4-2.1.7-2.3.7-.1.8-.8 6.9-1.4 8.5-.7 1.7-1.3 3.3-1.3 5.7-.1 2-.6 3.6-1.4 5.1-.5.9-.3 5.5-.1 8 .1 1.9.2 3-.2 4.4-.2.6-.3.8-.5 1.1-.2.5-.3.7-.4 1.5 0 .6-.1 1.2-.2 1.7s-.2 1.1-.1 1.4c.1.3.1.5.1.8 0 .3 0 .7.1 1.1.1.5.1.8.1 1.1 0 .3-.1.8 0 1.3.3 1.2.5 3.3.4 4.6 0 .4-.1 1.5-.1 2.8 0 2.6-.1 6.2-.3 8.3-.2 1.1-.3 2.7-.4 4.3-.3 3.5-.7 7.5-1.2 9.8-.2 1.2-.5 2.5-.8 4-.6 3-1.3 6.3-1.5 7.7-.1.6-.1 1.3-.1 1.9 0 1.6 0 3-.9 4.2-.4.7-.8 1.1-1.1 1.5-.4.6-.6.9-.6 1.3 0 .3.2 1.2.4 2.4.3 1.6.7 3.6.7 4.7v.6c.1 1.7.2 4.1-1.1 5.4-1.3 1.3-3.5 2.8-7 2.7"/><path class="st2" d="M127.2 314.3s1.5 2.5 4.8 2.7c3 .1 5.3-2 5.5-4.8.1-2.9-2.2-5-5.3-5.1-2.4-.1-4.1 1.1-4.1 1.1l-1-.5 1.2-8.4c.2-1.3.6-1.8 1.9-1.8l6.9.2c1.2 0 1.8.6 1.7 1.9l-.1 2.1-2-.1.1-1.5c0-.4-.3-.7-.7-.7l-5.3-.2c-.4 0-.6.1-.7.7l-.7 4.8c-.1.8-.2 1.2-.2 1.2h.1s1.4-.7 3.2-.7c4.2.1 7.3 3.3 7.1 7.2-.2 3.7-3.3 6.7-7.7 6.6-4.1-.2-6.1-3.2-6.1-3.2l1.4-1.5zm15.9-5.9c.2-6 2.2-10.8 7.7-10.6 5.5.3 7.1 5.1 6.8 11.1-.2 6.1-2.2 10.9-7.7 10.6-5.4-.1-7.1-5-6.8-11.1zm12.4.5c.2-5-.8-9-4.8-9.1-4-.2-5.3 3.7-5.4 8.8s.8 9.1 4.8 9.1c3.9.2 5.2-3.8 5.4-8.8zm6-6.5c.1-2.3 2-4.1 4.4-4 2.4.1 4.2 2 4.1 4.3-.1 2.3-2 4.1-4.4 4-2.4 0-4.2-2-4.1-4.3zm16.4-3.2l2.2.1-16.9 20.5-2.2-.1 16.9-20.5zm-9.7 3.4c.1-1.4-1-2.5-2.4-2.6s-2.4 1.1-2.5 2.4 1 2.5 2.3 2.5c1.4.1 2.5-.8 2.6-2.3zm7.3 9.6c2.4.1 4.2 2 4.1 4.4-.1 2.3-2 4.1-4.4 4s-4.2-2-4.1-4.3c0-2.4 2-4.2 4.4-4.1zm-.3 6.7c1.4.1 2.5-1 2.5-2.3.1-1.4-1-2.5-2.4-2.6s-2.4 1.1-2.5 2.4c0 1.2 1 2.4 2.4 2.5zM104 329.6c0-.3-.1-.5-.4-.4h-.8V328l1.5.1c.8 0 1.2.4 1.1 1.3l-.3 7.8c-.1 2.3 1.3 3.8 3.6 3.9s3.8-1.3 3.9-3.6l.3-7.8c0-.8.4-1.2 1.3-1.1l1.5.1v1.2h-.8c-.3 0-.5.1-.4.4l-.3 7.5c-.1 3-2.3 4.8-5.3 4.7-3-.1-5-2.2-4.9-5.1v-7.8zm18 2.7c2.9.1 5.1 2.4 5 5.3-.1 3-2.5 5.1-5.4 5.1-2.9-.1-5.1-2.4-5-5.4.1-3 2.6-5.1 5.4-5zm-.3 9.1c2.1.1 3.9-1.5 4-3.9.1-2.3-1.5-4-3.7-4.1-2.1-.1-4 1.5-4 3.7 0 2.4 1.6 4.2 3.7 4.3zm8-7c0-.3-.1-.5-.4-.4h-.8v-1.1l1.4.1c.8 0 1.2.4 1.2 1.2v1.1c.5-1.4 2.1-2.4 3.6-2.4 1.9.1 2.7.9 3 2.6.6-1.3 2-2.4 3.8-2.3 2.4.1 3.2 1.5 3.1 4l-.1 4.7c0 .3.1.5.4.4h.8v1.1l-1.4-.1c-.8 0-1.2-.4-1.1-1.3l.2-4.8c0-1.6-.2-2.9-2-3-1.5-.1-2.8 1.3-3.2 2.7-.1.4-.2.9-.3 1.4l-.1 4.7-1.4-.1.3-5.9c.1-1.5-.1-3-1.9-3-1.6 0-2.9 1.3-3.4 2.7-.1.4-.2.9-.2 1.3l-.1 4.7-1.4-.1v-8.2zm18.4.7c0-.3-.1-.5-.4-.4h-.8v-1.1l1.4.1c.8 0 1.2.4 1.1 1.3l-.3 7.1c0 .3.1.5.4.4h.8v1.1l-1.4-.1c-.8 0-1.2-.4-1.1-1.3l.3-7.1zm.1-5.5h1.2v1.6h-1.2v-1.6zm4.6 5.7c0-.3-.1-.5-.4-.4h-.8v-1.1l1.4.1c.8 0 1.2.4 1.2 1.2v1.1c.4-.9 1.7-2.4 4-2.4 2.5.1 3.2 1.5 3.2 4l-.1 4.7c0 .3.1.5.4.4h.8v1.1l-1.4-.1c-.8 0-1.2-.4-1.1-1.3l.2-4.8c0-1.6-.2-2.9-2-3-1.6 0-3.1 1-3.7 2.6-.1.4-.2.9-.2 1.3l-.2 4.8-1.4-.1.1-8.1zm12.1.4c0-.3-.1-.5-.4-.4h-.8v-1.1l1.4.1c.8 0 1.2.4 1.1 1.3l-.3 7.1c0 .3.1.5.4.4h.8v1.1l-1.4-.1c-.8 0-1.2-.4-1.1-1.3l.3-7.1zm.2-5.5h1.2v1.6h-1.2v-1.6zm10.1 5.5H174v-1.1h1.3l.1-2.7h1.3l-.1 2.7 2.5.1v1.1l-2.5-.1-.2 5c-.1 2.3 1.3 2.7 2.1 2.7h.4v1.2h-.6c-1.1 0-3.4-.5-3.2-3.8l.1-5.1zm6.4.6c0-.3-.1-.5-.4-.4h-.8v-1.1l1.4.1c.8 0 1.2.3 1.2 1.2l-.1.6v.7c.5-1.4 1.7-2.5 3.2-2.5.3 0 .5.1.5.1v1.3s-.2-.1-.5-.1c-1.4-.1-2.4 1-2.9 2.4-.3.7-.3 1.3-.4 1.9l-.2 4.1-1.4-.1.4-8.2zm11.5 2.7h.5v-.1c0-2.1-.7-2.8-2.4-2.9-.5 0-1.9 0-2 .8l-.1.6h-1.2v-.9c.1-1.4 2.4-1.6 3.2-1.6 3.1.1 3.8 1.8 3.7 4l-.2 4.8c0 .3.1.5.4.4h.8v1.1l-1.4-.1c-.8 0-1.1-.5-1.1-1.2v-.7s-.9 2-3.3 2c-1.6 0-3.3-1.1-3.3-3 .3-3.3 4.7-3.2 6.4-3.2zm-2.7 5.1c1.9.1 3.1-1.8 3.2-3.5v-.4l-.5-.1c-1.6 0-4.7-.1-4.8 2-.1 1 .7 1.9 2.1 2zM109 355.2c0-.3-.1-.5-.4-.4h-.8v-1.1l1.4.1c.8 0 1.2.4 1.1 1.3l-.3 7.1c0 .3.1.5.4.4h.8v1.1l-1.4-.1c-.8 0-1.2-.4-1.1-1.3l.3-7.1zm.2-5.6h1.2v1.6h-1.2v-1.6zm13.6 4.2c2.4.1 3.1 1.9 3.1 1.9v-.7l.1-3.2c0-.3-.1-.5-.4-.4h-.8v-1.1l1.4.1c.8 0 1.2.4 1.1 1.3l-.4 11c0 .3.1.5.4.4h.8v1.1l-1.4-.1c-.8 0-1.1-.5-1.1-1.2 0-.4.1-.6.1-.6s-.9 2-3.5 1.8c-2.7-.1-4.2-2.3-4.1-5.3.2-3.1 2.1-5.1 4.7-5zm3.1 5.4c.1-2-.8-4-3-4.1-1.8-.1-3.3 1.4-3.3 3.9-.1 2.4 1.2 4 3 4.1 1.5 0 3.1-1.1 3.3-3.9zm4.9-3.2c0-.3-.1-.5-.4-.4h-.8v-1.1l1.4.1c.8 0 1.2.4 1.1 1.3l-.3 7.1c0 .3.1.5.4.4h.8v1.1l-1.4-.1c-.8 0-1.2-.4-1.1-1.3l.3-7.1zm.1-5.5h1.2v1.6h-1.2v-1.6zm4.7 5.7c0-.3-.1-.5-.4-.4h-.8v-1.1l1.4.1c.8 0 1.2.3 1.2 1.2l-.1.6v.7c.5-1.4 1.7-2.5 3.2-2.5.3 0 .5.1.5.1v1.3s-.2-.1-.5-.1c-1.4-.1-2.4 1-2.9 2.4-.3.7-.3 1.3-.4 1.9l-.2 4.1-1.4-.1.4-8.2zm7.2.2c0-.3-.1-.5-.4-.4h-.8v-1.1l1.4.1c.8 0 1.2.4 1.1 1.3l-.3 7.1c0 .3.1.5.4.4h.8v1.1l-1.4-.1c-.8 0-1.2-.4-1.1-1.3l.3-7.1zm.1-5.5h1.2v1.6h-1.2v-1.6zm8.2 4c2.7.1 3.2 1.8 3.2 1.8v-.4c0-.7.4-1.1 1.2-1l1.4.1v1.1h-.8c-.3 0-.5.1-.4.4l-.3 8.1c-.1 3.1-2.5 4.3-4.9 4.1-1.1 0-2.3-.4-3.2-.9l.6-1.1s1.2.7 2.7.8c2 .1 3.5-.8 3.6-3v-1.5c-.7 1.1-1.7 1.6-3.1 1.6-2.7-.1-4.3-2.3-4.2-5.2-.2-3 1.6-5 4.2-4.9zm3 5.1c.1-2.9-1.2-3.8-3-3.9-2-.1-3.1 1.2-3.2 3.6-.1 2.4 1.1 3.9 3.1 4 1.7.2 3.1-.8 3.1-3.7zm8.9-4.6c2.7.1 4 2.2 4 4.7-.1.2-.1.6-.1.6l-7.6-.3c0 2.5 1.7 4 3.6 4.1 1.8.1 3-1.1 3-1.1l.6 1s-1.5 1.4-3.7 1.3c-2.9-.1-5.1-2.3-4.9-5.3.2-3.2 2.4-5.1 5.1-5zm2.6 4.3c0-2.1-1.2-3.1-2.7-3.2-1.6 0-3.1.9-3.5 2.9l6.2.3zm4.1-2.2c0-.3-.1-.5-.4-.4h-.8V356l1.4.1c.8 0 1.2.4 1.2 1.2v1.1c.4-.9 1.7-2.4 4-2.4 2.5.1 3.2 1.5 3.2 4l-.1 4.7c0 .3.1.5.4.4h.8v1.1l-1.4-.1c-.8 0-1.2-.4-1.1-1.3l.2-4.8c0-1.6-.2-2.9-2-3-1.6 0-3.1 1-3.7 2.6-.1.4-.2.9-.2 1.3l-.2 4.8-1.4-.1.1-8.1zm12.1 0h-1.2v-1.1h1.3l.1-2.7h1.3l-.1 2.7 2.5.1v1.1l-2.5-.1-.2 5c-.1 2.3 1.3 2.7 2.1 2.7h.4v1.2h-.6c-1.1 0-3.4-.5-3.2-3.8l.1-5.1zm6.5.7c0-.3-.1-.5-.4-.4h-.8v-1.1l1.4.1c.8 0 1.2.4 1.1 1.3l-.3 7.1c0 .3.1.5.4.4h.8v1.1l-1.4-.1c-.8 0-1.2-.4-1.1-1.3l.3-7.1zm.1-5.5h1.2v1.6h-1.2v-1.6z"/></svg>