<svg baseProfile="basic" xmlns="http://www.w3.org/2000/svg" viewBox="0 0 150 16"><style>.st0{fill:#ff322b}.st1{fill:#00245b}</style><path class="st0" d="M80.2 2.1c-.4 0-.7.1-1 .3-.2-.7-.9-1.2-1.7-1.2-.4 0-.7.1-1 .3-.2-.7-.9-1.2-1.7-1.2s-1.4.5-1.7 1.2c-.3-.2-.6-.3-1-.3-1 0-1.8.8-1.8 1.8v2.1l-.9.9c-.6.6-.9 1.4-.9 2.3v1.4c0 .9.3 1.7.9 2.3l1.8 1.8c1.3 1.3 3.1 2.1 4.9 2.1 3.2 0 5.8-2.7 5.8-5.9v-6.1c.1-1-.7-1.8-1.7-1.8zm.9 7.7c0 2.8-2.2 5-4.9 5-1.6 0-3.1-.6-4.3-1.8l-1.8-1.8c-.4-.4-.7-1-.7-1.6v-1.4c0-.6.2-1.2.7-1.6l.2-.2v.7c0 .3.2.5.4.5s.4-.2.4-.5v-4.1c0-.5.4-.9.9-.9s1 .4 1 .9v1.4c0 .3.2.5.4.5s.4-.2.4-.5v-2.3c0-.5.4-.9.9-.9s.9.4.9.9v2.3c0 .3.2.5.4.5s.4-.2.4-.5v-1.4c0-.5.4-.9.9-.9s.9.4.9.9v1.4c0 .3.2.5.4.5s.4-.2.4-.5v-.5c0-.5.4-.9.9-.9s.9.4.9.9v5.9z"/><path class="st1" d="M-.9 7.6h56.6v.8h-56.6zm93.4 0h56.6v.8h-56.6z"/></svg>