<svg viewBox="0 0 1366 926" xmlns="http://www.w3.org/2000/svg"><path d="M834 615.3l1.1 1.9 3.9-.5-1.1-2.4zm447.8-324.6c2.2 0 4.4-1.4 4.4-1.4l1.1-2.4-1.7-2.4s-3.3.5-6.1.5-2.2-.9-5 1.4c-2.8 2.4-2.8 3.8-2.8 3.8l4.4.5zm-91.3 127.1l-3.3 6.7-1.1 2.9-.5 1.9-1.7 1.9s-2.8 2.4-8.9 5.7l-8.3 6.7s-10 5.7-15.5 3.3l-4.4-8.1 3.9-1.4-1.1-6.2.6-4.3 3.9-2.4s.5-3.3-1.7-7.1-1.1-4.3-2.2-9c-1.1-4.8-1.7-5.7-1.7-5.7l-2.2 2.4-2.2 2.4.6 9s1.1 4.3.5 7.1c-.5 2.8-1.7 12.4-1.7 12.4l-1.1 2.4.6 7.1-2.8 6.7-2.8 2.8-3.9 1.9 2.2 4.3 1.1 5.2-3.3 7.6-3.9 4.3-8.9 1.9-5.5.5s-4.4 2.9-6.1 2.9-3.9 2.4-5 3.8l-2.2 4.3s-.6 4.8 2.2 7.1c2.8 2.4 2.8 0 2.8 0l8.9-6.7 3.9-.9s3.3 1.4 4.4 0l7.2-4.3 5 .9.5-2.8 5-2.4s1.7-8.6 1.7-10.5.6-1.4 4.4-6.7c3.9-5.2-2.2-1.4-4.4-1.9l1.7-7.1s1.7 1.4 3.3-.5c1.7-1.9 5-1.4 12.7-2.9 7.8-1.4 5.5-5.7 7.2-7.6s8.3-5.7 11.1-8.1 3.3-2.4 8.9-7.6c5.5-5.2 5.5-9 5.5-9l-1.1-1.9zm-12.7 244.6c1.7.5 5 5.2 5 5.2l4.4-1-6.1-6.2c0 .1-5 1.5-3.3 2m1.6-13.8l-2.8 1.4 3.9 1zm-847.6-53.3s-2.2 1.4-2.2 2.9c0 1.4 3.3 2.9 3.3 2.9l1.7.5 2.2-1.4v-2.9l-2.2-1.4zm106.3-38.1s0-8.6-2.8-11.9l-5-4.3-3.3-1.9h-11.5l.6 1.4-1.7 2.4h11.6s3.3 1.4 5 2.8 3.9 2.9 4.4 5.7c.5 2.9-1.7 8.6-1.7 8.6zm-43.7-15.2l5 1.4s2.2-.5 3.9-.9c1.7-.5 6.1-.5 6.1-.5l-.5-1.4-1.7-1-2.2-1.4-9.4-1.9s1.7.5-.6 2.9c-2.3 2.3-.6 2.8-.6 2.8m-13.3-12.4c-3.9-1.9-5.5-1.9-5.5-1.9l-2.8-.5-4.4-1.9-3.9-1.9-3.3-.9-2.8 2.9-1.1 2.4 2.8.5 6.1 1.4s6.1.5 8.3 2.4l5.5 2.4 4.4 2.4 7.2 1 .6-2.4-2.8-1.4s-2.2-.9-3.9-1.4c-1.6-.7-.5-1.2-4.4-3.1m59.2 248s-1.1 0-2.8 1.9v2.9l3.3.5 5.5-.5 2.8-3.3-4.4-1.9zm-71.9-476.5l3.9-.5v-1.4l2.2-1.4 2.2 2.9-3.9 2.9v4.8l2.2-3.3c3.3 1 10.5 2.9 10.5 2.9h-5.5l.6 1.4s1.1 0 2.8.5 3.9.5 5 1.9l1.1 1.4h-2.8l-2.8.5s-4.4-1.4-5 1v6.2h5l1.1-1.4 2.2-1.9h4.4s1.1-1 1.7.9 2.8 3.3 0 5.7l-4.4 5.2-.6 3.8s3.3.9-3.9 1.9c-7.2.9-8.3.9-8.3 2.8l.6 6.2-1.7 3.8 5.5 1.9-.6-4.3s3.9-1.9 6.1-1.9l5 2.4s6.1 7.1 11.6 9.5 8.3 2.4 10 2.9l6.1 1.9v-4.3l-1.3-2.3-.9-1.5 4.4 2.9 3.9-7.6s-1.7-7.1-5-9-6.1-6.7-6.1-8.1v-1.4l3.9 2.8s2.2 3.3 5 4.8l2.8 1.4 2.8-2.4s1.7-2.4 4.4-4.3c2.8-1.9 0-8.6-2.8-10l-8.3-6.2-3.3-2.4-5.5-3.8 1.1-1.9.6-2.9s-3.9-1.9-2.2-2.8c1.7-1 0-5.7 0-5.7l-5.5-5.2-3.3-.9s-2.2-1.4-3.3-2.9c-1.1-1.4-4.4-3.8-4.4-3.8s-2.2-.9-3.9-1.9l-1.7-1-2.8-3.3-2.8-1.9c-3.3-1.9-3.3-4.3-3.3-4.3l-3.3-5.7-6.7-2.4s-.5-.5-2.8 0c-2.2.5-6.1 1-6.1 1l-5-1-2.2.5s-1.6-1.4-3.3-1.4h-6.6s-5 4.8-6.6 6.2c-1.7 1.4-3.3 2.9-3.3 5.2 0 2.4-1.1 10-1.7 11.4l1.7 3.3 1.1 3.3s0 1 3.3 4.3l6.6 3.3s8.3-.5 11.1.9l4.4 4.8 3.3-2.4zm54.8 126.6c-.6-.7-.5-.2-.2.7.4 0 .6-.2.2-.7m41.5 8.6c0-.5 0-.4-.1 0 .1.3.1.4.1 0m-125.9 102.8h-.3zm0 0c1-.1.8-.1 0 0m161.3 66.2c-2.8-.5-4.4-2.9-8.9-4.3-4.4-1.4-8.3-2.4-8.3-2.4l-8.3-3.8s0-2.9-3.3-6.2-3.9-6.2-6.1-6.7l-7.2-2.4-10.5-2.9-7.8-6.2-3.3-5.2-5-1-9.4.5-3.9-1.4-10-6.2-2.2.9-3.3 1s-8.9-.5-5.5 0c3.3.5-3.3 1.4-3.3 1.4l-3.3 1.4-5 3.3s-2.6 2.6-3.7 3.9c-.4-.5-5.2.9-5.2.9s-3.3-1-5.5-1l-7.7-1.4-3.9-2.9s-1.1 1.4-1.1-2.9 1.1-1.4-.5-7.6c-1.7-6.2 5-8.1-5.5-7.6l-11.6-1-5-3.3-1.1-2.9s2.4-.3 3.9-.5c-3.9.5 7.2-3.3 7.2-3.3l-.6-4.3h-9.4s-3.3 4.8-2.8 3.3l-4.4 5.7c.5-1.4-7.8 2.9-7.8 2.9l-6.6-2.4s-6.1-13.3-5.5-15.2l.6-7.1.5-7.1 7.8-5.2s8.3-3.8 11.1-1.9l7.7.9s6.1-3.3 7.8-2.9c1.7.5 5.5 1.9 5.5 1.9s2.7.6 4.4.9c-4.3-.9 6.1 4.3 6.1 5.7s-.6 6.2 2.2 7.6l5.5 1.4s3.9-7.6 2.8-9l-8.3-10.9s10.5-8.1 11.6-9.5 5.5-1.4 8.9-6.2c3.3-4.8 3.9-12.4 3.9-12.4s13.3-9 7.8-7.1l10-5.7-1.1-3.8s9.4-6.7 11.6-6.7l2.8 2.4s3.3-.5 7.2-1 11.1-4.7 11.6-6.6c.6-1.9 2.2.5-5-3.8l-6.7-7.1s-1.3-2.6-1.8-4.1c-1.4.2-5.9-1.2-5.9-1.2l-2.8-1.4s6.6-2.9 8.3-2.9l3.3 1.9s2.2 3.3 3.9 3.8l3.9-.5.6-2.4s1.1-1.9 2.8-2.4 3.3-.5 5.5-1.9l6.1-3.3s-7.8 12.4-7.2 13.8 2.8 3.3 5 3.3l7.2 1-1.1 3.6c.2-.6 1.1-2.5 4.4-1.7 3.9 1 7.2 2.4 7.2 2.4s.3-3.1.4-4.2c-.3-1.2-1-6.7-1-6.7l-1.7-3.3-5-1.9-3.3-1.4-1.1-3.3.6-6.2s-2.2-7.6-3.3-9l-2.2-2.9s-6.1-3.8-8.9-6.2l-5.5-8.1-2.2-6.2s-8.3-11.9-5.5-8.6l-2.2-6.7s-5.5 4.3-5 5.7c.6 1.4-1.1 3.3-2.8 4.8-1.7 1.4-3.9 1.4-3.9 1.4s-3.3 0-4.4-5.7l-2.8-9-6.6-4.3-5-3.8-5.5.5-7.7-1-2.2 2.4s-1.1 8.6-.6 5.7c.6-2.9 0 4.8 0 4.8l-1.7 7.6 1.1 5.7s8.9 5.7 2.2 11.9l-6.6 6.2v7.1c0 2.4 3.9 9 .6 10s-5 2.4-7.8-1.4-2.8-8.6-3.3-11.9c-.6-3.3-4.4-6.2-4.4-6.2l-6.6-1s-5-5.2-11.1-6.7c-6.1-1.4-12.7-3.3-12.7-3.3l-3.9-7.6c3.9 7.6-4.4-3.8-4.4-3.8s3.3-13.3 5-15.2l7.2-6.2 2.2-3.8s6.1-2.4 7.8-4.3l3.3-8.1 5-1s-2.8 2.9-3.9 5.2c-1.1 2.4-5.5 1.4-1.1 5.2l6.1 3.8 4.4-2.4 3.3-1.4 7.7 3.3 2.8-2.4s-1.7-3.3-5-6.2l-6.1-5.7-.6-5.7s1.7-1.4 4.4-3.3c2.8-1.9 2.8-7.6 2.8-7.6l-1.1-5.2 1.7-2.9s-1.1-5.2-2.2-6.2c-1.1-.9-3.3-3.3-6.6-3.3l-6.1 1.9v5.2l-1.1 2.8-2.2 1.9-1.1 2.4v4.3l-2.2-.5-2.2-3.8 1.1-3.8-1.1-2.9s.6-1.4-2.2-2.8l-5-1.4-5.5-2.8.6-4.8-5-9.5s-1.7-4.8-2.2-6.7c-.6-1.9 2.8-5.7 2.8-5.7l4.4-1.4s.6-6.7 2.8-9c2.2-2.4 2.2-5.2 2.2-5.2l-7.2.5-3.3-1-5-.5-1.1 1.4-2.2 6.2s-.6 4.8-.6 7.1c0 2.4 1.1 10 0 12.4l-2.8 4.8-1.7 3.8 1.7 5.2 2.8 2.4 5.5 2.4.6 3.3-2.8.5s-.6-.5-2.8-2.4l-4.4-3.3-4.4-1-1.1 1.9-3.9 2.9-1.1 1.4 6.1 4.8-3.9 2.9-.6 2.4s-4.4 1-6.1 1-6.1-1.4-8.3-3.3l-6.1-5.2-4.4-1s-3.9 1.4-5.5 1.9c-1.7.5-3.9 1.9-4.4 3.3s-6.6 3.8-10 4.3c-3.3.5-8.9-1.9-8.9-1.9l2.2-4.3-3.9-3.3-4.4-.9-5-.5-12.2-4.3s1.1-1.4-2.8-1c-3.9.5-5.5 1.4-5.5 1.4s0-2.4-1.7-3.8-3.9-2.4-3.9 0l-1.7 4.3s-.6-.5-2.2-2.4c-1.7-1.9-5-5.2-5-5.2l-2.8-3.3s-.6.9-.6 2.4v1.4l-2.2 1h-5.2l-1.7 1.4-1.7.5-1.7.5-2.8 2.9-2.2.5-2.8-.5s-2.2-1-3.3.5c-1.1 1.4-3.9 3.8-3.9 3.8l-2.8.9-6.6-4.3-5.5-.5s-8.3-4.3-12.2-3.3c-3.9.9-6.6.5-6.6.5l-3.3-1.4-7.8-2.9s0-.5-2.2-.5 1.1-.5-2.2 0l-7.2-1.9-1.7-1.4h-1.7c-1.7 0-1.7-1.4-3.9-1.9l-2.2-.5-5.5-.9-3.3 1.9s-5 0-6.6.5c-1.7.5-2.8 5.7-4.4 5.7l-5 2.9-6.7 5.7-6.1 2.8-1.7 2.4s-1.1 3.8.6 4.8l1.7 1 2.8 1.9 2.8 2.9 2.8 3.3 2.2 1.4 1.7 2.4-.6 1.4-3.3-1.4-3.9-1.4-1.7.9s-2.8 1.4-4.4 2.4l-1.7 1-3.3 2.8 1.1 2.4 1.1 2.8 1.1 1.4 2.2 1.4 2.8 1h8.4l1.7-.5s-.6-.9 1.7 0c2.2 1 4.4-.5 2.8 2.9-1.7 3.3-2.2 3.8-6.6 5.7s-5-1.4-7.8 4.8-2.8 6.7-1.1 9.5 2.2 5.2 5.5 6.2 3.3-.5 5.5 1c2.2 1.4 2.2 3.8 2.8 5.2s6.1 3.3 7.8 3.3 3.9-.5 5.5-.9c1.7-.5 0 1.9-.6 4.3s-5 6.7-7.8 8.6-8.3 1.4-11.6 4.3-6.7 4.8-10 7.1c-3.4 2.3-15.6 8.5-15.6 8.5s16.1-3.3 20.5-6.7c4.4-3.3 6.6-4.8 6.6-4.8l1.7 1.4s0 .5 3.3-1.4l3.3-1.9 1.7.5s3.9 2.4 3.9 0v-2.4s3.3-4.3 5.5-4.8 8.3-5.7 10.5-8.6 3.3-4.8 3.3-6.7.6-4.8 3.3-6.7c2.8-1.9 4.4-3.3 4.4-3.3l-3.3 7.6s-3.9 9-5.5 11.9c-1.7 2.9-2.2 4.8-2.2 4.8s2.2 1.9 3.9 0 3.3-3.8 5-5.7 2.8-2.4 2.2-4.3-1.1-2.4.6-4.3 7.2-7.6 11.6-7.6 12.7 1.4 15.5 1.4 12.2 1 16.1 4.3 6.6 5.7 8.9 10c2.2 4.3 4.4 7.1 8.3 10.5 3.9 3.3 7.7 4.8 7.7 4.8s5.5 4.8 6.6 6.7 3.3 1.9 5 6.7.6 5.2 1.7 6.7c1.1 1.4 1.7 1.4 8.3 7.6l6.6 11.9s-1.1 14.3-1.7 18.1-1.1 7.6 0 10.5 2.8 3.8 5.5 6.7c2.8 2.9 3.3 3.3 5.5 6.7 2.2 3.3 4.4 5.7 8.3 8.1l3.9 2.4s1.1 2.4 2.8 5.2 0 3.3 2.8 5.7 5.5 1.4 5.5 3.8-.6 4.3 1.1 5.7 2.2.5 4.4 2.4l2.2 3.8 3.9 2.4s2.2 2.4 3.9 4.3 3.3 1.4 3.3 0-2.2-7.6-4.4-9.5-2.2-2.9-3.9-4.3l-4.4-4.3s-6.1-4.8-6.1-7.1c0-2.4 2.2-3.3 2.2-3.3l2.8 2.9s3.3 5.2 8.3 10 7.8 8.1 10.5 10.5c2.8 2.4 4.4 1.9 6.1 4.8 1.7 2.8 1.7 4.7 1.7 6.2 0 1.4 1.7 4.8 5.5 8.1 3.9 3.3 17.2 8.1 26.6 10.5l13.8 2.4 1.7 2.4 2.8 1.9s1.1.5 3.3 0l3.9-.5s0-1 2.2.9l6.1 5.3s1.7 1.9 2.2 3.8c.6 1.9 5.5 2.4 7.7 4.3s1.7 3.3 3.9 4.8c2.2 1.4-3.9 1.4 5 1.9l12.2 1.4s2.2 1.4 1.1 5.7-4.4 9.5-7.2 12.4-3.3 2.4-3.9 7.1c-.5 4.8-1.7 4.3-1.1 7.6s4.4 7.1 8.3 12.4c3.9 5.2 5.5 10 9.4 16.7s6.1 7.1 13.8 10.9l7.2 7.6s-2.8 24.8-3.9 27.1c-1.1 2.4-1.1 19-5 24.7s-4.4 19-5 20.9c-.5 1.9 0 5.2-2.2 9s-1.7 8.6-1.7 11.4c0 2.9-1.1 10-1.1 10s-1.7 5.2-.6 10 0 4.3 1.1 8.6 3.3 8.1 5.5 10 6.6 5.7 11.1 7.6c4.4 1.9 8.3 4.3 10.5 3.3l7.2-5.2 8.3-.9s-9.4-2.8-12.7-5.7c-3.3-2.8-2.2-4.3-3.9-7.1-1.7-2.9-2.2-6.2-2.2-6.2v-3.3l1.7-1 2.2-4.3 2.2-2.9 4.4-4.3-.6-3.3-4.4-3.8 1.1-2.9 3.3-2.4 1.7-.5s1.1-4.8 2.8-5.7c1.7-1 3.9-4.3 3.9-4.3s-3.3-1.4-3.9-2.9c-.6-1.4 3.3-2.4 5-2.9s3.9-1.4 4.4-3.8c.6-2.4 3.3-4.3 3.3-4.3s11.6.5 13.3-2.9c1.7-3.3.6-7.1 0-9.5l.6-3.8 10 1 5-2.4 4.4 1.4s.5-2.4 0-3.8c-.6-1.4 0-5.7 0-5.7s3.9-4.8 6.1-7.1c2.2-2.4 5-2.4 4.4-6.7-.5-4.3 1.7-10 5.5-12.4 3.9-2.4 16.6-3.8 16.6-3.8s3.3-2.4 3.9-4.8l3.9-5.2s2.8-7.1 3.9-11c1.1-3.8 1.1-11 1.1-11s11.1-8.1 11.6-11c.6-2.8.6-10.5.6-10.5s-4.4-1.4-7.2-3.8c-2.6-2.2-17-6-19.8-6.5m-207.6-334.1l-1.7.5-.5 3.8s4.4 3.3 7.8 6.7c3.3 3.3 5.5 7.2 5.5 7.2l3.9-5.7 3.9-1.9s1.1-6.2 0-8.6-.6-6.7-.6-8.1 0-2.4-2.2-3.8l-5-1.4-7.8 3.8-1.1 2.9s4.4 3.3 2.2 4.8c-2.2 1.2-4.4-.2-4.4-.2m-77.5 16.6l1.1 2.4 3.3-.9 5-1 1.1-3.3 1.1-3.3 2.8-2.9 1.7-1 2.2-.9v1.9l-.6 2.9 2.2 2.4 1.7 2.4-1.1 1.9s-1.7 0-1.1 1.4l.6 1.4s1.7 2.8 3.3 3.3c1.7.5 4.4 1 4.4 1s2.2-1 4.4-1 1.1-1 4.4.5l3.3 1.4s-2.8 1.9-6.1 1.9h-11.6s-6.1.5 1.1 3.3c7.2 2.9 1.7 2.4 1.7 2.4l8.3 1 1.7 1.4 5.5 4.3h7.2s-.6 1 2.2-1.4 1.7-3.3 5.5-2.9c3.9.5 3.9 0 6.1 0s7.2 0 11.1 1l3.9.9c1.1-1.9 1.1-1.9 2.8-4.3s1.7-2.8 2.8-5.2c.5-1.1.8-2 .9-2.7-.7-.1-1.7-.3-3.2-.7-7.7-1.9-8.3-3.3-8.3-3.3l-1.7-5.2s-2.8-7.6-2.8-9.1v-5.7l1.7-4.8s-1.1-3.3-2.8-3.8l-4.4-.5-3.3 2.4s3.3 2.4 1.7 2.4c-1.7 0-5 .9-5 .9l.5 7.6s-2.8-1.9-4.4-3.3l-1.7-1.4-5 3.8s.6-1.9-2.8-2.8c-3.3-1-6.1-1-6.1-1l-.6-3.3s-1.1-1.4-2.8-.9l-3.3-1.4-6.1-7.1s-2.2-2.4-3.9-2.4l-5.5.5-5.5-2.4s.6 1.4-2.8 1.4c-3.3 0-7.7.5-7.7.5v2.9s.6 2.4 0 3.8c-.5 1.4-.5 7.1-.5 7.1s-.6 3.8-1.7 5.2l-1.7 4.8 3.3 3.3zm83.1 7.2s0 .4-.2 1.1c3.1.4.2-1.1.2-1.1m-77.5-55.7l2.8-.5 3.3.5s5-3.3 6.1-5.7l1.7-2.4v6.7c0 2.8-2.8 4.8-2.8 4.8h3.9s1.7-6.7 3.3-9.1c1.7-2.4 2.8-3.3 3.9-4.8 1.1-1.4.6-5.2.6-5.2v-9s-4.4 4.3-8.3 4.3h-3.9l-3.9 3.8-1.7 2.8-2.8 3.3s-1.1 1.9-3.9 5.2l-1.1 1.4zm59.2 9.5l2.2 1.4s3.3-1.4 5-2.4v-2.9h-4.4zm-18.8-16.7l2.2 2.4 1.7 3.8.6 3.3-5 .5s-1.7-5.2-5-7.6l-7.8-2.9-4.4 1.4-.6 5.2-1.1 2.4-2.2 3.3v2.9l3.3 2.9h2.8l3.9-.5h2.8l-2.2 3.3 1.7 2.4s0 .9 2.8.9 6.1 1 6.6-.5c.6-1.4 1.7-2.9 1.7-2.9s3.9-.5 5.5-.5l5-.5 6.1-4.3 2.2-4.3v-3.8l-6.6-4.3-3.3-1.4-1.1-2.4-2.8-5.7-2.2 3.8zm-3.9-25.2s3.9-1.4 6.1-.5l2.2-2.9-4.4-2.9s-1.7 0-4.4 1c-2.8.9-6.1 3.3-6.1 3.3 3.3 2.5 6.6 2 6.6 2m-3.9 11.4s3.3 1.9 5.5 1c2.2-1 3.9-2.9 3.9-2.9s-.6.5.6-1.4c1.1-1.9.6-5.2.6-5.2s-5 0-7.8 1.4l-4.4 1.4s0-1.4-2.8-1.9l-3.9 1.4 3.3 2.9zm31.6 1.9c-1.1-4.3-4.4-7.6-6.1-8.1 0 0-.6 4.8-.6 7.1 0 2.4 1.7 5.2 1.7 5.2h6.1zm-2.8-21.4l.6 1.4-1.1 3.3v1.4l5 2.9 2.8-.5 2.2 1 .6 1.9-2.8 1.9 1.6 2.4h2.8l8.3-3.8-1.1-5.2-2.8-3.3-1.1-3.3-2.2-2.8-5-1.9-3.3-3.8-2.8-1.4-3.3-1.9-2.2 3.3-1.1 2.9 2.8 3.8zm53.2 19.1l-3.3-2.9-2.2 2.4-1.1 1.9 2.2 2.4 3.9-1.4zm-13.3-1l-.6-2.9-6.1-.9-2.8 1.4-.6 3.3 7.2.9zm-8.9-4.3c4.4-.9 5-4.8 5-4.8s.6-1.9 0-3.3c-.5-1.4-2.8-3.3-2.8-3.3l-4.4-2.8h-3.9v8.1c0 2.4-.6 2.9 1.1 4.3 1.7 1.3.6 2.8 5 1.8m-12.2-29.5l3.3 1.9s1.7-1.9 1.7-2.4v-4.7l-5.5-1.4h-4.4l2.8 3.8zm10-3.8l5.5 6.7 2.8 4.8-1.1 1.4.6 4.3 3.3 5.2v2.4l5.5 3.8s2.2.5 3.9.5l4.4-1.4 4.4-.5 5.5 3.3.5 2.4-4.4.5-2.8 2.9 2.8 5.2-1.7 1.9s-3.3 1.9-5.5 2.8-2.8.9-6.1.9l-3.9-.5s-7.2-2.4-10-3.3c-2.8-1-3.9-.5-3.9-.5l-2.6 2.9s3.3 4.3 4.4 6.2l3.3 9.5-3.9-1.9s-2.2-1.4-2.8-2.9c-.6-1.4-2.2-3.3-2.2-4.8 0-1.4-2.2-2.9-2.2-2.9l-3.9-1.4h-3.3s-2.2 1.9-4.4 2.9c-2.2.9-2.2 2.4-2.2 2.4l-3.3-2.4s-.5-1.4-2.2-1.9l-3.3 1.9s2.2 5.2 3.9 8.1c1.7 2.8 7.8 5.7 7.8 5.7s2.2 4.8 3.3 6.2l7.2-1 3.3-3.8 2.2.9s0 1.4.6 3.3 1.1 1.4 2.8 3.3 3.3 1.4 5.5 1.9 2.8 0 4.4-3.3c1.7-3.3-3.3-9.5-3.3-11 0-1.4-1.7-6.2-1.7-6.2s1.7 0 4.4.9c2.8 1 2.8 5.7 2.8 8.1s-.6 3.8-.6 5.7 5 4.8 6.6 5.2c1.7.5 4.4.9 7.2 1.4s3.9 1.4 6.6 1.4c2.8 0 5.5.5 5.5.5l5.5-2.9s3.9.9 5.5 1.4c1.7.5 5-1.9 6.6-2.4 1.7-.5 1.7-3.3 1.7-3.3s.6-1.4-1.1-3.8l-1.1-2.4s-.6-1.4-2.2-2.9c-1.7-1.4-2.2-1-3.9-1.4-1.7-.5-2.2-.5-3.9-.5s-3.9.5-6.1 1-2.8 1.4-5 2.4-4.4.5-6.1 0-6.1-4.3-6.1-6.7l1.1-2.4s5-.5 7.2-.5 5.5.5 7.2.5l2.8.5 6.6-1s2.2-1 3.9-1l2.2 1.4s2.2 1.4 3.3 4.8l2.8-1.4.6-4.8s1.7.5 3.3-1.9c1.7-2.4-1.1-4.3-2.2-5.7l-3.3-3.8s2.2-.5 5.5-2.8c3.3-2.4-1.1-5.7-1.1-5.7s6.1-.9 8.9-1.9c2.8-.9.6-3.3.6-3.3l2.8-5.2v-1.9l1.1-3.8-1.1-1.4-1.1-1.9v-4.3l2.8-3.3 3.3-.9 2.2.5c2.2.5 2.2-.5 2.2-.5l2.8-3.3.6-3.3s3.9-2.4 6.1-4.8 4.4-7.1 6.1-10 6.1-6.7 6.6-8.1c.6-1.4 2.2-4.3 2.2-4.3h-1.7c-1.7 0-5.5.5-5.5.5l-1.7-1.9s10-2.4 11.6-2.9c1.7-.5 3.3-3.3 6.6-6.2s3.3-3.3 3.9-4.8c.6-1.4 0-2.9 0-4.3l-1.1-1.9-3.3-.5-1.7-4.8-1.1-2.9-5.5-2.4-6.1.5s-1.7 0-4.4-1.9c-2.8-1.9-3.9-1.4-5.5-1.9-1.7-.5-5.5-1-5.5-1l-6.1-.5h-7.2l-4.4 1.4-4.4 1.4-5 1-2.2.9h-3.9l-4.4.5-3.3 3.3-2.8 4.3-.6 2.9-4.4.5-2.8-.5c-2.8-.5-1.7.9-1.7.9l-3.3 5.2-3.3 1-3.9 1.9c-3.9 1.9-3.3 1.4-3.3 1.4l-3.3 2.9-2.8 3.8.5 3.3h2.8l.6 2.4 2.2 1.9-.6 3.3 3.3 7.1s3.9 2.4 5.5 2.9c1.7.5 2.8 0 2.8 0l5 1 2.2.9s5.5 0 7.2-.9c1.7-1 2.8-1.4 4.4-1.9 1.7-.5 6.1-4.8 6.1-4.8l1.1-1.9 2.2-3.7-.5 5.1.6 3.3-3.3 1.9-5 1.9-1.1 1.4s-2.2 1.4-3.9 1.4l-1.7 1.4-2.2 1.9-3.9-.5h-6.1s-1.7-.5-3.9-1.4c-2.2-1-2.8-1.9-4.4-3.3-1.7-1.4-3.9-3.8-3.9-3.8l-1-3.6c-.2-1-.5-1.9-.7-2.6-.6-1.9-7.2-5.2-7.2-5.2l-6.6.9.6 3.8-2.8 1.9-.6 6.7-2.8 1.9 2.2 5.7-1.1 3.8zm258 118.5l-6.6-2.4-1.7-3.3s-1.1-2.4.6-1.9l3.9 2.4 3.3.9 2.8.5s.6-3.8.6-6.7l-1.7-7.1-1.1-2.4s5.6-.5 5.6-1.9l-1.1-3.3-6.6-6.2s5 1.9 7.8 0l2.8-4.8.6-4.8 4.4-2.4s-3.3-2.9-2.8-4.3l.5-1.4 6.6 1.4v-5.7l-3.9-.9s-1.7-.5-2.8-3.8l-1.1-3.3 3.3-3.3s4.4-10.9 2.2-12.9c-2.2-1.9-4.4-2.4-4.4-2.4l-1.1-4.3 3.9-4.8v-4.7c0-1.4.6-2.9.6-2.9l1.7-3.3s-1.1-3.8-1.7-1.9l-3.3-4.3v-6.2l1.1-1.9 3.3-1.9s2.2-2.9.6-5.2c-1.7-2.4 2.8-2.4 2.8-2.4l3.3-3.3-2.2-4.3s7.2-.9 7.2-3.3l.6-5.2s5.5-4.8 7.2-7.6c1.7-2.9-5.5-6.7-5.5-6.7s-3.3-2.4-6.1-1.4c-2.8.9-1.7-.5-5.5 3.8l-3.9 4.3-5 .5-2.8-4.3-1.7.9-.6 2.4s-2.8 1.4-3.3 2.9c-.3.9-1.1 1.4-1.6 2 .8-3.7 2.2-10.1 2.2-11.1 0-1.4-.6-3.3-2.8-4.3-2.2-.9-5-1.9-5-.5s-2.8 3.3-3.3 4.8c-.6 1.4 1.1 1.9-2.2 2.9-3.3.9 0-5.7 0-5.7h-13.3s-3.9-1-6.6.5c-2.8 1.4-6.6 2.9-6.6 2.9s0-1.4 1.7-3.3 6.6-3.3 8.8-3.3h9.4l6.1.5s3.9-2.9 6.1-3.3c2.2-.5 6.1-2.9 7.2-4.8s2.8-2.9-.6-5.7c-3.3-2.9-3.9-2.4-7.2-4.8l-5.5-6.7s-2.8-2.4-3.3-1c-.6 1.4-2.2 2.4-2.2 2.4l-6.6-1s.1-.7-.9-1.1c3.9-.9 7.6-1.8 7.6-1.8l3.9-1.4s0-1.9-2.2-2.4-1.7 1.4-5-1l-5-2.9-7.2-1.9-6.7-1-6.6 1s-2.8-1-5.5.9c-2.8 1.9-6.1 3.3-6.1 3.3s-.6 1.4-2.2 1.9l-1.7.5s-3.3 1-5 1l-5.5 1.4s-1.1-.9-2.2.5l-1.1 1.4s3.3 1-2.8 1.9l-6.1 1-2.2.9-.6 2.4 1.1 1.4s.5.5 2.2 2.4l1.7 1.9 1.7 2.4s.6.5 1.7 1.9l1.1 1.4v1.9l-1.1 1.9-1.7 1.9s.6 1 .6 2.4v1.4l-1.7 1-4.4-2.4s-1.1-1.9-2.2-3.3l-3.3-3.8-.6-1.4-2.2-.5h-4.5l-1.1 1.4s-1.7.5-1.7 1.9v1.4s-.6-.6-.8-.7-.1.4 1.3 2.6l2.8 4.3-4.4-4.8-2.8-1.9h-2.8l-2.8-.5h-1.7l-5.5 2.9s-3.3-.9-5.5 0c-2.2 1-5 1.4-5 1.4l-1.1 1.9-.6 1.4-2.8 1.4-2.2 1.9-.9 2.1s1.1 1.4.6 2.8l-.6 1.4-.6 1.9v1.9l-1.7.9-1.7 1.4s-1.7 1.4-3.3 2.9c-1.7 1.4-1.1.5-3.9 3.8s-3.3 4.8-6.6 7.1c-3.3 2.4-2.2 2.4-1.7 4.3s.5 2.8 2.2 3.8l3.9 1.4s2.2 0 2.2 2.9 1.1 5.7-.6 7.1 0 1.9-4.4 2.9c-4.4.9-7.7 2.8-7.7 2.8s-2.2 3.8-6.6 5.2l-7.7 4.3s.6 1.4 1.7 4.8c1.1 3.3 0 .5 2.8 3.8s9.4 4.3 8.9 5.7c-.6 1.4-3.3 3.8-3.3 3.8s-3.9-1.9-3.9 0l.6 4.8s.6.5 1.7 1.9 3.3 4.3 5.5 6.2 3.3 2.9 5 2.4 4.4-1.4 6.6-1.4l6.1-.5s1.1-.5 3.3 0 1.7 1.9 5 2.9c3.3.9 10 3.8 11.1 7.6s2.8 5.7 3.3 11.4 2.2 6.7 2.8 9c.5 2.4 4.4 7.6 3.3 11.9s-2.2 5.7-.6 6.7c1.7 1 3.3 1.4 3.3 1.4s6.6 0 7.8 2.4l1.1 2.4-7.2.9s0 3.3-1.1 5.2-1.1 5.2 1.1 6.2 3.3 2.4 5 1 3.3-4.3 4.4-1.9l-3.3 6.7s-3.3 2.9-3.3 6.2 0 9.5 1.1 13.3 0 1.4 2.8 7.1l3.9 9.5s0 5.2 2.8 8.1 5 5.2 7.2 9l2.2 3.8s1.6-1 4.4.5c2.8 1.4 5 3.3 7.2 4.3s2.8 1.9 3.9-1 2.8-1.4 3.3-7.1c.6-5.7 1.1-9 1.1-9s3.3-1.9 3.9-4.3 2.2-6.7 2.8-8.6 0-3.8 2.8-5.2l5.5-1.9 4.4-.5s7.7-6.7 10-8.6c2.2-1.9 6.1-10.9 6.1-10.9s16.6-1.4 19.4-3.8l11.1-9.5zm248.6 8.6c0 1.4 2.8 2.4 2.8 2.4l2.2-1.9-.6-2.4-3.9-1s-.5 1.4-.5 2.9m-70.3-108.5l6.1-1.4-3.3-1.9h-4.4zm16-19.5l3.9-2.9-2.2-1.9-7.2 2.4-2.2.9 3.3 1zm109.6-30.5v-2.9l-1.6-1.4h-1.7l-3.3.5-.6 1.4 1.1 1.4zm-20 13.3c.4.9.3.5 0 0m-.5-.9s.3.5.5.9c-.1-.2-.3-.5-.5-.9m-46.5 9.5l3.9.5s2.2.5 2.8 1.9c.5 1.4 2.2 3.8 2.2 3.8l5 2.4 2.8 1.4 6.1 1v-2.4l-3.9-4.8 3.3-.5 1.7.5 1.7.5 2.8.5h1.7l4.4-.5h3.3v1.4l2.8 1.4 3.9-.5.5 1.4.6 1.4 1.7.5 2.8-.5 1.1-1.4 1.1-1.9-1.1-1.4-2.2-2.4-1.7-.9-1.1-1.4.5-1.4.6-1.4 1.7.5 2.2 1.4 2.8 1h1.7l2.2-1.4 2.2-1.9 2.2-.5 2.8-.5 1.7-1 1.7-1.4 1.7-1 .5-1.4.5-3.8v-2.4l-.5-1.9-1.7-.9h-2.8l-2.2 2.4-2.2 1.9s-2.2 1-1.7 2.4l.6 1.4v1.9h-1.7l-1.1-1.9-3.3-.5-1.7 1-3.9 1.9s-1.1 1.9-1.7 0l-.6-1.9-1.7-3.3 1.1-1.4 1.7-.9.5-2.9-1.7-2.4-.5-1.4 2.2-3.8-1.1-1.9-3.3 1.4v1.9l-1.1 1.9-1.1 1.4-3.3 1-2.8 2.4 1.1 2.9v2.4h-1.7l-1.7-1.4-.5-1.4h-2.2l1.1 1.4-1.1 3.8v1.9l.5 1.9 3.9 2.4 1.7.5 2.2.5 1.7 1.9-2.8 1.4-3.3-.9-3.3-1.9-2.2 1-1.7 1.4-1.7.5s0 1-1.7 0l-1.7-.9s0-1.9-.5-4.3l-.6-2.4v-2.9l-1.1-1.9-1.7.9-2.8 1.9-2.2.5h-2.8l-6.1.9-3.9.5-2.2 1.9-2.2 2.4 1.1 1.9zm122.9-5.3l-4.4-2.4-2.2 1.9 3.3 2.4zm40.5-6.6l-3.3-2.9-2.2 1.9 2.8 2.8zm199.3 68l-1.7 4.3 5.5-1.9zm-42.1 35.3l-5-4.3 1.7 4.8zm-2.2-14.8l1.7-1.4-1.1-6.2h-2.8s.6.5.6 3.3c-.1 2.9 1.6 4.3 1.6 4.3m-98-26.2l-2.8-3.3-5 1.9 5.5 2.9zm0-10.9l-2.8-2.9h-3.9l2.8 3.3zm-56-36.7s.6 3.3-1.1 3.8l-3.3 1.9.5 2.9s.6 2.4 3.9 3.8l1.7.5 3.3 1.9 2.2 2.4s1.7 2.4 3.3 4.3l2.2 1 2.7 1.9 5.6 1.9s2.2 0 4.4-2.4 1.7-6.2 2.2-8.1c.6-1.9 0-6.2 0-7.6l-1.1-1.4-3.3-1.4s-3.3-3.3-3.9-7.1l1.1-4.8s-2.8-2.9-5-4.3l-3.3-6.7-2.7 2.4-2.8 1.9h-3.3v2.4l-.6 4.3-1.6 1.9-2.2 3.3zm24.4 36.2l2.2 1.9 3.9-2.8h9.9s1.7 0 3.3-1.4c1.7-1.4 2.2-2.9 2.2-2.9l1.7-1.4v-1.9l-2.2-2.9s2.8 1-1.1-1.9l-7.2-5.7-2.8-1.9-1.7 2.9s-1.1.5-2.2 2.4-2.2 3.8-2.2 5.2 0 1.9-1.1 4.3c-1 2.3-2.7 6.1-2.7 6.1m145.6 59l2.8.5 6.1.5s.6-.5 3.3-.5c2.8 0 0-3.3 0-3.3l-4.4-3.3-2.2-1.4-2.2-1.4-1.1-1.9-2.8 1-1.7 2.4 2.2 2.9-2.2 2.8zm28.8-13.8c2.2 1.4 2.8.5 5 .5s2.8-1.9 4.4-3.3c1.7-1.4-1.7-3.3-1.7-3.3l-4.4-1.4s-4.4-1.4-6.1-1.4l-5.5-2.9-.6 3.3s1.7 2.4 2.8 3.8 3.9 3.3 6.1 4.7m-38.7-2.8l1.7 2.4 1.7.9 3.3-3.3 9.4-1 3.9 1 2.8-1.4 1.1-2.4 1.7-3.3.6-1.4-1.1-1.4-3.9-2.4-1.7-.5-4.4-1.4-1.7-1.4s0-1.9-1.7 1l-1.7 2.8-3.9-2.4-4.4-2.4-2.2 2.9-1.7 3.8s0 4.3.5 5.7c.5 1.3 1.7 4.2 1.7 4.2m-259.7-19.1c-6.1 1-8.3 1.4-8.3 1.4l-9.4 3.3s1.1-1.9-1.1 1.4 0 6.7-3.9 7.1c-3.9.5-6.1 1-6.1 1l-.6 2.9v5.7s-1.1 1.4-2.2 3.3l-2.2 5.2s.6 1.4-.5 3.3-1.1 0-2.8 2.4l-3.3 4.8s-1.7 4.3-1.7 6.2 1.1 3.8 2.8 5.2 2.2 2.9 2.8 4.3l.6 1.4s3.9 1.9 6.1 1.9h5.5c1.7 0 2.2-1.4 2.2-1.4s1.1-1-.6-2.4l-1.7-1.4-2.8-3.8-1.6-5.2 2.2-4.3s-.6.5 1.1-2.4l2.2-5.7 1.1-1.4 1.1-1.4 2.2-2.9.5-4.3.6-1.4 2.8-.5s1.1 0 2.2-1.4l2.8-3.3s3.3-3.3 5-4.3l1.7-1s2.2-3.3 4.4-3.3l3.9-.5 6.6-5.2 6.6-2.9 1.1-1.9 1.1-3.3-6.1-4.3s0 1.4-2.8 3.3-2.2 1.4-5 2.9c-2.6 1.5-.4 2-6.5 2.9m-186.6-35.7l5 4.8v1.9l1.7 1.9 2.2 1.9s1.1 0 1.1 1.9v5.2l1.7 1.9s.6-.5.6 1.4 0 1.9 2.2 4.8l2.2 2.9 6.1 4.3 2.2-7.1 3.3-3.8s1.1.5 1.1-1.4l-.6-3.8 1.1-2.9 1.6-2.4v-1.4l1.7-1.9v-1.4l3.3 2.9 1.1 1.9 1.1 3.3-.6 1.9s0 .9-1.1 2.4l-1.1 1.4 3.9.5s1.7-.5 2.2.9-1.1-.9.5 1.4l1.7 2.4 1.7-1.9s-1.7.9 0-1.4c1.6-2.4 3.9-4.3 3.9-4.3s2.2 0 1.1-1.4l-2.2-2.9-2.2-.9.6-2.9-3.9-1.9v-1.9l-1.1-1.9-1.7-.9v-1.9s0-1.9-2.2-2.9l-2.2-1-.6-2.4-1.7-1-1.7-1.4-1.1-1.9-2.8-2.9-3.9-2.9v-1.4l-2.8-2.9-1.7 1-2.2 3.8-2.8-.5-3.3-.5h-3.9l-3.9-.5-2.2.9s.6.5 0 1.9c-.5 1.4 1.7 1.4 1.7 2.9 0 1.4-.6 5.7-.6 5.7s3.9-1.4.6 1.4zm27.7-17.6l1.7 1.9 2.2 1.4 3.3 1-.6 2.4c0 2.4 2.8 3.3 2.8 3.3s.6-.5 3.3 0c2.8.5 6.1.5 6.1.5l3.3 1 2.2-.5 3.3-2.9 3.3-3.8 1.1-1.9v-2.4l1.7-3.3s-3.3-.9-5.5-.9l-8.3-2.9-2.2-1.4-2.2-1.4-2.2 1.9-2.2.5-2.2-1.9-2.8-.9-2.8.5-2.8 1-.6 2.4.6 1.4-.6 1.4s-1.1 0-.6 1.9l.7 1.7m-117.9 164.7c1.7 0 2.2-1 4.4-2.4l2.8-4.8s-1.7-2.9-2.8-5.2c-1.1-2.4-.6-2.9-.6-2.9l-3.9-2.9-3.3 1-2.8.5-2.8.9h-8.3l-3.3-.9s-1.7-1-3.3-1c-1.7 0-2.2.5-2.2.5l-1.1 1.9-2.2 3.3v2.4l1.7.5 2.8 1.4-.6 1.4-1.7.5-1.1 1.9 1.7 1 1.7 1.4v5.3h6.6c2.8 0 3.3 1 3.3 1l4.4 1.9 3.3-2.9 2.2-1.9c2.3-1.9 3.4-1.9 5.1-1.9m29.9 16.7l1.1 3.3s1.7-4.8 2.2-6.7c.6-1.9-1.7-2.4-1.7-2.4l-3.9 1.9c.1 0 1.2.5 2.3 3.9m-11.1 50.4v4.3s0 1 2.8 1.9l8.9-2.9s3.3-7.6 3.9-9 .6-2.4 2.2-2.9c1.7-.5 3.9-.5 3.9-.5s2.2 0 2.2 1.4l-1.7 4.3-2.2 2.4.6 2.9-.6 2.4-1.7 4.8-1.1 2.9s4.4-.5 6.1-.5l7.2-.9 4.4-1s1.7-1 3.3-1.9c1.7-1 3.3-5.7 3.3-5.7s.5-2.4-1.7-4.3l-3.3-4.3s-.5-2.9-2.2-3.8c-1.7-1-5-6.2-5-6.2l-2.2-.5s1.7-2.4 1.7-4.3 1.1-4.3-.6-5.2l-3.9-1.9 2.2-2.9 1.7-4.3h-2.7l-1.7 2.4-7.2 2.4-1.1 1.9h-5s-.6 1.4-.6 2.9c0 1.4 1.7 3.8 1.7 3.8s.5 2.9 0 4.3c-.6 1.4-3.3 3.8-3.3 3.8s-3.3.5-5 2.9-5.5 3.3-4.4 5.7c1.1 2.3 1.1 4.2 1.1 5.6m31.6-39s1.7-2.9 1.7-5.7c0-2.9-1.7-3.3-1.7-3.3l-2.2 3.8-2.8 2.4 1.1 1.9zm553 336.9l3.3.5-2.8-2.4zm5.6-9l4.4.5-3.3-3.3zm1.1-8.1l3.3.5-2.2-2.9zm0-35.7l-2.2.9 2.8 1.4zm62 62.8c-.6-1.4-1.7-3.3-1.7-3.3l-6.1-3.3-1.1-3.3-5-1.4s2.2 4.8 4.4 7.1c2.2 2.4 4.4 0 2.8 4.8l-3.9 6.7s1.1.9 2.2 2.4c1.1 1.4 2.8-.5 2.8 1.9l-1.7 3.3-6.1-.9s-.6-.9-2.2 1.4c-1.7 2.4 2.8.9-4.4 5.2s-8.9 6.2-10.5 7.6c-1.7 1.4-5 6.2-5 6.2s1.1 1 3.3 2.9l3.3 3.3 3.9-1.4s5.5-1.9 7.2-6.2l2.8-5.7 2.2-.5s3.3-4.8 5-7.2l5.5-2.4 2.2-5.7s1.7-2.4 3.9-3.8l3.9-6.2-4.4-1s-2.8 1-3.3-.5m-98 9.6s-.5 2.8-3.9 3.3c-3.3.5-8.8-.9-8.8-.9l-1.1 2.4s1.7 1.4 2.2 3.8c.6 2.4-2.8 2.8.6 5.2 3.3 2.4 4.4 2.4 6.1 1.9 1.6-.5 2.8.5 4.4-2.9 1.7-3.3 2.2-4.8 1.7-6.2-.6-1.4-1.2-6.6-1.2-6.6m-61.5-129.5l2.2-1.9-3.9-1-.6 1.4-1.7 2.9 1.1 6.7-1.1 1.9v1.4l2.2.5 2.2-5.2-1.1-1.4v-2.9zm-16 13.3h2.2l1.7-3.8h2.8l3.3-1-1.7-3.3v-6.2l1.1-1.4v-1.9l-.6-1.9-2.2-3.8s-2.8 4.3-3.3 5.7l-.5 5.2-2.2 2.9-3.3 5.2.5 1.9c0 .1 0 2.4 2.2 2.4m83 52.4c-2.2-1.9-3.9-7.2-7.2-8.1-3.3-1-5-2.9-5-2.9l1.1-2.8-6.6-6.2-.5-3.3-3.3-3.3-2.8-4.3-2.2-3.3v-3.3s.6-.5 2.8-1.9l5-3.3s2.2-.5 4.4.9l5 4.3s7.8 4.3 10 3.8l2.2-.5s-9.4-10.9-11.1-12.8-6.1-7.6-8.3-8.1-3.3-1.4-5-1.4-8.3-1.9-11.6-3.3-4.4-2.4-7.7-2.4.5-1-3.3 0c-3.9 1-7.7 3.3-8.3 1.4-.5-1.9-4.4-4.3-4.4-4.3l-7.8.9s1.7 4.3 3.3 7.1c1.7 2.9 2.2 4.8 2.2 4.8l2.8-.5s7.7 1.4 9.4 1.9 6.1 1 6.1 3.3c0 2.4-2.8 6.2-2.8 6.2s-2.2 4.3 0 4.8 3.9-3.3 6.6-3.8c2.8-.5 5-.5 7.2 2.8s2.2 5.2 1.1 7.1-2.2 3.3-1.7 7.1c.6 3.8 3.3 7.1-1.1 7.6s-5.5-.5-10.5-3.3c-5-2.9-6.1-1.4-5-5.7s1.7-6.2 0-6.7-3.3-.5-5.5 0-6.1-.9-10-1.4-5.5.5-7.2 2.9-2.2 3.3-3.3 6.2c-1.1 2.8-2.8 3.8-3.3 2.4-.6-1.4-2.2-3.3-4.4-3.3s-3.3 1-5 2.4-.6 1.4-5.5 4.3c-5 2.9-6.6 1.9-6.6 3.3s1.1 3.3-2.2 5.2-4.4 4.8-11.1 5.2c-6.6.5-12.2 1.9-13.8 6.2-1.7 4.3-4.4 9.5-1.7 15.2 2.8 5.7 5.6 9.5 5.6 13.8s-1.1 6.2 0 10.5 3.3 4.8 5.5 4.8 5-1.4 7.8-2.4c2.7-1 6.1.5 11.1-1 5-1.4 7.2-3.8 9.4-5.2s6.6-1.9 8.9-1.9c2.2 0 6.6-1.4 6.6-1.4s1.1-2.4 6.6.5 10 2.9 11.6 5.7c1.7 2.9 3.9 5.7 3.9 5.7s1.1-1.9 2.8-1.9l5.5 1.9 5 3.8 2.8 4.8s3.9 4.3 6.1 4.8l5 1.4s-.6 1.9 1.1 1.9l3.3-1.9h3.3s6.1-3.3 7.8-3.8 6.1 1.4 7.2-1.4c1.1-2.9 2.8-15.7 6.6-18.6 3.9-2.9 5.6-8.6 6.1-10.9.5-2.4-2.8-16.7-4.4-18.6-1.9-2-6.3-5.8-8.6-7.7m-96.9-68.1c1.7.5 8.3 1.4 8.9 0l2.2-4.3s3.3-6.7 2.2-10.5l.6-3.8 3.3-1.4-.5-2.4 1.1-2.9-1.7-1.4-.6-1.9-1.7-3.3-2.2-3.3.6-2.4-2.2-2.9-4.4-1.9-6.1-1.9 2.8-3.3v-6.2s-6.1-2.9-7.2 0c-1.1 2.8-3.9 5.7-3.9 5.7s0 1.9.5 3.8c.6 1.9 1.7 4.8 1.7 4.8l-2.8 4.8s-3.3 4.8-7.2 8.6l-3.9 6.2s-.5 2.4-3.9 4.8c-3.3 2.4-6.1 6.7-10.5 7.6l-6.1 1.9s-2.8-2.9-5-3.3c-2.2-.5-3.9.5-3.9.5s.5 2.4 1.1 4.3 2.2 5.7 3.9 8.1 4.4 3.8 4.4 5.2 1.1 1.9 2.8 1.9 2.2-1.4 5 0c2.7 1.4 6.1 1.9 8.3 2.4h4.4l3.3 2.9 2.2-3.3s-4.4-1-4.4-2.9 0-7.6 3.3-9.5l3.9-4.8s-2.8-3.8-2.2-6.2c.5-2.4 5-1.9 5-1.9s3.3-1.9 5.5-3.3l5-3.3s1.7-1.4 2.8 0 5.5 2.9 5.5 4.8 3.3 2.4 0 6.7-10.5 5.2-12.2 4.8c-1.7-.5-3.9.9-3.9.9l-5.5 6.2v2.9l1.7 3.3 1.1 3.8v2.4l2.2 2.9h2.2l-1.1-3.3.6-2.9 3.3 1v1.9l3.3 2.4 3.9.9 1.7-2.4-1.7-1.9-2.2-.9s2.2-2.4.5-3.3-1.1-1.4-2.8-2.9c-1.7-1.4-1.7-3.3-3.3-3.8-1.7-.5-1.7-2.4-1.7-2.4s2.4-2.7 4-2.3m23.3-88l-5.5 6.2v1.9l3.3-1s1.6-1.4 3.3-3.3l-1.1-3.8m-27.1 10.5s-.6 1-2.2 3.8c-1.7 2.9-3.9 1.9-1.7 4.8 2.2 2.8 4.4 3.8 5 1.4.5-2.4 3.9-2.8 3.3-5.2l1.1-3.8zm-168.9 81.3h2.8v-4.8h-3.3zm0-10.4l3.3 2.4.5-3.3 1.1-3.8-5 .5v4.2zm3.4-12.4l-3.9-1.4-.6 4.3 3.3 1zm-1.7-10l2.8-1.4-2.8-3.3-5-3.3s-1.7 1.9 0 3.8l2.2 3.3zm24.3.5l-2.8 2.4s1.7 4.8 1.7 7.1c0 2.4 2.2 4.8 3.9 4.3s5-2.4 4.4-4.8c-.5-2.4-3.3-5.7-3.3-5.7zm-83 62.3l3.3 1.9 1.7-2.4-3.3-1.4zm-6.1-19.5l2.2 2.4 2.2-2.9-3.3-1.4zm-26 15.7l-2.8-2.8s-3.3 1.9-1.7 3.8c1.7 1.9 4.5-1 4.5-1m11.1 8.6l-3.3-2.9s-5 5.2-6.7 7.6c-1.6 2.4-2.8 6.2-5.5 7.1-2.8.9-5.5 1.4-6.1 2.9-.6 1.4 1.1 7.6 0 10.5s-5 6.2-3.9 9c1.1 2.9.5 4.8 1.7 6.7 1.1 1.9 2.8 3.3 5.5 2.9 2.8-.5 6.7-2.4 8.3-4.8 1.7-2.4 4.4-6.7 4.4-9.5 0-2.9.5-7.6 2.8-11.4 2.2-3.8 3.9-7.6 3.3-10-.5-2.4-.5-8.1-.5-8.1m71.4-100c1.3 0 .6 0-.5-.3-.2.2-.2.3.5.3m177.6-27.8c.2-.2.4-.4.6-.7 2.6-3 1.5-1.9-.6.7m-213.6-58.3l-2.2 2.9s-5-1.9-5.5-4.3c-.6-2.4 1.1-3.3 1.1-3.3l2.8-1.9 7.2 3.8zm-23.3 71.4c-2.2.5-4.4.9-7.8 0-3.3-1-1.7-2.9-4.4-6.2-2.8-3.3-4.4-2.9-5.5-4.3l-1.1-3.8 3.9-1.4s1.7.9 3.3 1.9c1.7 1 1.7 1.4 8.3 6.7 6.6 5.2 4.4 1.9 5.5 2.4l3.3 1.9s-3.2 2.3-5.5 2.8m-23.8-72.8c-1.1-1.9 1.6-2.9 3.3-4.8s3.3-1.9 5-2.4c1.6-.5 7.2-1.9 7.2-1.9l4.4 1.9s-1.1 1.9-3.9 3.3-2.2.9-3.3 2.4c-1.1 1.4-1.7 3.3-1.7 4.8 0 1.4 2.8 4.3 6.1 8.1l3.3 3.8s-1.1 5.2-3.3 5.7h-5.6l-1.7-1.4c-1.6-1.4-2.2-1.4-2.2-1.4s-.6-2.9-1.1-4.3v-2.4l-1.1-3.3-2.2-3.8c.2-.1-2.1-2.4-3.2-4.3m-13.8 109.4s-3.9-1.9-5.5-2.4c-1.7-.5-4.4-3.3-7.2-7.6-2.7-4.3-4.4-4.8-6.6-8.1s-.5-3.8-1.1-5.2-2.2-4.8-3.9-6.2-2.2-4.3-2.8-6.7l-2.8-6.2 1.1-2.9 1.7 1c1.6 1 3.3 3.8 3.3 3.8l1.7 4.3s3.3.9 7.2 7.1l2.2 6.7s2.2 2.9 6.1 6.7 3.3 5.7 3.9 9.5l3.9 4.8.6 3.8zm-25.5-97.1c-3.9-2.4-6.6-2.9-6.6-2.9l-5.5-1.9-2.2 1.9-9.4 1-3.9-4.8s1.7-3.3 2.2-4.8c.6-1.4 3.9-6.7 6.1-7.6 2.2-1 3.9-1.4 5 .5s.6 3.3 1.7 4.8c1.1 1.4-.6 1.9 2.7 2.4l6.1-.5 5-1.4s0-1.4 3.9 1.4c3.9 2.9 13.3 7.1 13.3 7.1l1.7 3.3s0 2.9-2.8 3.3c-2.8.5-3.9 2.9-8.3.5-4.5-2.3-5.1.1-9-2.3m531.5-136.6c-2.8-1-8.9-1-8.9-1s-10-8.6-11.6-9.5c-1.7-1-8.3-5.7-10-7.1s-6.1-3.8-7.8-4.3-6.1-1.9-9.4-1.9h-11.1l-1.7 1.9s2.2 5.7 0 6.7c-2.2.9-5.5-.9-5.5-.9l-5.5-5.2s-1.7-.5-3.3-.5c-1.7 0-8.3.5-8.3.5l-7.2.5-2.8 2.9s-6.1-2.4-6.1-5.2c0-2.9 1.1-5.7 0-7.1l-5-3.3h-8.3s-3.9 1.4-8.9 1.9l-5 .5s1.7-3.8-.5-4.8l-4.4-1.9-3.3-4.8-5-2.4-6.6 1.4-6.6-3.8s-5.6-1.9-6.1-1.9c-.6 0-6.1.5-6.1.5l-7.7 3.8s2.2.5 1.1 3.3c-1.1 2.9-1.7 4.8-1.7 4.8l-3.9-.5-7.2-.5-7.2.5s0-2.4-1.7-3.3l-1.7-.9s-2.2 10.5-4.4 10.5-5-3.3-5.5-4.8c-.6-1.4-1.1-5.2-1.1-9.5s-4.4-12.4-8.9-12.4c-4.4 0-8.3-2.9-9.4-1.4-1.1 1.4-1.7 5.2-3.9 6.7-2.2 1.4-5.5 5.7-11.6 1-6.1-4.8-10-6.2-10-6.2l-5.5-.5-5.5-1.9-4.4-1.9-4.4 1-2.2.5-2.8 1.9c-2.8 1.9-4.4 4.3-7.8 4.3h-3.3s16.6-14.7 20.5-17.1 6.7-7.1 6.7-9 .5-7.6-1.7-9.5-4.4-3.3-7.7-4.3c-3.3-.9-7.2-1.9-9.4-.9-2.2.9-6.7 2.9-6.7 2.9s1.7-4.8.6-6.2l-3.3-2.4-1.1-2.9s.6-.5-1.1-2.4l-5.5-2.9s-5 4.3-7.7 7.1c-2.8 2.9-3.9 5.2-3.3 6.7.5 1.4.5 3.3.5 3.3s-3.3.5-5 .5l-2.8 2.9-3.9.9s-2.2-1.9-2.8-3.3l-1.7-3.3v-4.8s-2.2 1.9-3.9 2.4c-1.6.5-4.4 2.9-4.4 2.9s.6 1 .6 2.4l-1.6 3.3-5 2.9s-6.1 3.8-9.4 5.2-8.3 3.8-10 7.6l-.6 11.4s-16 1-18.3 3.8l-2.2 2.9s.5 3.8 1.1 6.2 5 4.8 6.1 6.2l2.2 4.8v10l-2.8.5-1.1-5.7s1.1-4.3-.6-6.2l-4.4-3.8s-3.3-3.8-6.1-5.2l-2.8-1.4-4.4 2.4-2.8 2.9-3.3-6.7-2.2-.5s1.1 3.8 0 5.7-3.9 3.8-3.9 5.2-.6 3.3.6 8.1c1.1 4.8 0 11 0 12.4s1.7 1.9 3.3 1.9c1.7 0 2.2-.5 4.4 1 2.2 1.4 3.9 3.3 3.9 3.3s-5.5-2.4-7.8-1c-2.2 1.4-2.2 4.3-2.2 4.3s0 5.7-1.7 8.6c-1.7 2.8-3.3 6.7-7.2 6.7l-8.3-2.4s5-1 6.6-1.4c1.7-.5 5.5-5.2 6.1-7.6.5-2.4 1.1-3.8 0-6.7s-1.7-15.2-1.1-17.6 0-2.4-1.1-5.7 5-9 3.3-11.9c-1.6-2.9-6.1-5.2-6.1-5.2s1.1-3.3-.5-3.8l-3.9.9-1.7 3.8s-2.2 1-2.8 2.9-1.7 3.8-1.7 7.1-2.8 5.7-4.4 7.1c-1.7 1.4-1.7 2.9-1.7 4.3s-1.1 5.7.6 8.1l2.8 5.2s1.1 3.3 1.1 4.8c0 1.4-4.4.5-4.4.5s-4.4-2.9-7.2-4.8-5.5-2.9-7.8-3.3c-2.2-.5-7.2-3.8-7.2-3.8l-5.5-2.9-1.7.9s0 2.9 1.7 3.3c1.7.5 3.3 1.4 2.8 3.3v5.7s-4.4-3.8-5.5-2.4l-5 1.4-4.4-1.4-1.7 2.4-3.3 3.8-3.3-4.3s-8.9 2.4-10.5 4.8c-1.7 2.4-8.3 2.4-8.9 5.2-.6 2.9-4.4 4.8-4.4 4.8l-2.8-4.8 3.9-3.8s-3.3-4.3-5-4.3h-3.9s-1.1 1.9-1.1 3.8 1.7 9 1.1 10.9l-4.4 1.9-3.9.9s-3.3 5.2-3.9 7.6c-.5 2.4-1.1 4.3-1.1 4.3l-7.2-.5-4.4-1.9s-3.3 0-2.2 1.4l1.1 2.9-1.7 1.9s-3.9 0-4.4-3.3 1.7-5.7-.5-8.6c-2.2-2.8-6.1-8.1-6.1-8.1s16.6 6.7 19.4 6.2 10-4.8 10.5-6.2-4.4-8.1-6.1-9c-1.6-1-8.3-5.7-12.7-8.1s-4.4-4.3-8.3-4.3l-8.9-1.4s-1.1-3.8-1.7-5.2c-.5-1.4-5.5-4.3-5.5-4.3s-8.9-1.9-12.7-1.9c-3.9 0-5.5.9-8.9 3.3-3.3 2.4-5.5 2.9-10 3.3-4.4.5-9.4 4.3-10.5 5.7s-7.8 2.4-8.9 5.2c-1.1 2.9-6.1 7.6-6.1 7.6l4.4 1.9 1.7 1.4s-3.3 11.4-6.1 13.3-3.9 7.1-5.5 8.1c-1.7 1-1.7 3.3-3.9 3.8l-5.5 2.4-5.5 5.2s-5 3.3-5.5 5.7c-.6 2.4-1.1 16.7 0 20s2.2 5.2 5 5.7 2.8 0 6.6-1.9c3.9-1.9 6.6-3.3 6.6-3.3l2.2.5 2.8 5.2s1.1 4.3 1.7 7.6 4.4 8.6 6.7 7.1c2.2-1.4 2.2-2.9 2.2-2.9l5-3.3s2.2-2.4 2.2-4.3-1.1-5.2 0-6.7c1.1-1.4 1.1-.5 2.8-2.4s3.3-1.4 3.9-4.3c.6-2.8.6-4.8-2.2-6.2l-2.8-7.1s5-9 8.3-11.9l6.6-7.1v-4.3l3.9-4.3s3.9.5 5.6 1.9c1.6 1.4-2.2 7.6-2.2 7.6s-3.3 3.8-4.4 5.2l-3.3 4.8-1.1 4.8s.6.5.6 3.8 0 6.7 1.7 7.6c1.7 1 3.9 2.4 3.9 2.4l5 .5 5.5-2.9 7.2 1 3.3 1.4-5.5 1.9-7.2.9s-3.3 0-5 1l-3.3 2.4s-2.2 0-.6 2.4c1.7 2.4 3.3 5.7 3.3 5.7l-4.4 1.4-3.3 2.9-1.1 5.7-3.9 4.3-1.1 3.3s-1.7 1.4-3.9-.5l-4.5-1.4s-4.4 3.3-7.7 4.3l-6.1-.5s-5.5-1.9-6.6-5.2-.6-8.1-1.1-10c-.6-1.9-1.1-3.3-2.8-3.3l-5 3.3-3.9 4.3 2.2 5.2.6 2.8-1.1 1.9s-2.2 1.9-3.9 1.9l-7.2 1-1.7 5.7-4.4 3.8-5 2.4s-1.7 1.4-2.8 2.9c-1.1 1.4-.6 3.3-3.3 4.3-2.8 1-6.6 0-6.6 0l-3.3 1.9-7.2 3.3s2.8 4.8 4.4 5.7c1.7.9 1.7.5 3.9 1.9s2.8 2.4 3.3 5.2c.6 2.8 1.1 7.6-1.7 8.6-2.8.9-8.9.9-8.9.9s-10-1.4-12.2-.5l-3.9 3.3s1.6 4.3 1.6 5.7 1.1 2.9-.5 5.2c-1.7 2.4-2.8 8.6-2.8 8.6s6.1 1.9 8.9 1.9l2.8 1.9 3.3 2.4 2.8-1.9s6.1-1 7.2-1l7.2-5.7 1.1-4.3s6.1-6.2 8.3-7.6l4.4-4.3 1.1-5.7 5.5 3.3 8.9-3.3 5-.5s7.2 7.2 10.5 9.5c3.3 2.4 6.6 3.3 6.6 3.3s4.4.9 5 4.7l-4.4 5.7-6.6.5 3.3 3.8 5 .9 1.7-4.3 4.4-3.3s1.1-2.4 1.1-3.8l2.8-.5h2.2v-2.9l-5-2.4s-4.4-2.9-6.1-3.8c-1.7-1-1.7-1.4-3.9-3.8l-5.5-3.3v-2.4l2.8-1.4s7.2 6.2 9.4 7.1l6.7 2.4 2.8.5 2.2 6.7 2.8 7.6 2.8 6.2 5.5 2.9 2.8 2.9s3.3 1.9 5 1.9l4.4-.5 1.7-1.9 3.3-1.4 5.5-.5 3.3 1.4 2.8-2.4 6.6.5-.5 3.8 5.5 1.9 1.7-2.8 5-.5s2.2 4.8 1.1 6.2l-8.9 8.6s-14.4-1-16.6.5c-2.2 1.4-8.3 0-11.6-1.4s-7.2-4.3-10-4.3-6.6 2.9-8.8 4.3-12.2 1.9-15 0-5.5-2.9-6.6-4.3l-4.4-4.8-3.9-.5s-3.3-4.3-4.4-5.7l-2.2-4.8-2.2-.5s-17.2 1.4-18.8 1.4c-1.7 0-11.1 1.9-11.1 1.9s-6.1 4.3-9.4 4.8-6.1 1.4-8.3 0l-6.1-1.4s-3.3 6.2-7.2 8.6-2.8 5.7-4.4 8.1-3.3 8.6-6.1 9c-2.8.5-7.2 5.2-10 8.6-2.8 3.3-6.6 10.9-8.3 16.6s-2.2 15.7-1.7 19c.6 3.3 11.1 16.2 13.3 18.6s11.1 10 14.4 11.4 7.8 1.4 11.6 1.4h13.3s13.3-3.3 16.6-4.3l6.1 1 5 5.2s3.9.5 7.2 1.4c3.3 1 3.9 2.4 3.9 4.3l-1.7 8.1s1.1 2.9 4.4 5.7 7.2 7.1 7.7 9c.6 1.9 2.2 6.2 2.2 6.2l-.6 3.8 1.7 4.8s-1.1 7.1-1.7 8.6c-.5 1.4-3.3 7.6-2.8 11 .5 3.3 3.9 9.5 5 11.9s2.8 6.2 3.3 9c.5 2.9-.6 13.8 3.3 16.7s5 6.7 6.6 10c1.7 3.3.6 6.7 3.9 10s8.3 4.3 10 3.3 7.8-1.4 10.5-1.4c2.8 0 13.3-5.2 18.3-8.6 5-3.3 7.2-8.6 7.2-8.6s5-5.2 6.1-9l6.1-6.2s2.8-5.2 2.8-6.7v-11.4s12.7-6.7 14.4-9.5c1.7-2.9 4.4-11.4 3.9-13.3s-5.5-15.7-3.3-22.4l10-12.9s13.8-11.9 17.2-14.8c3.3-2.9 7.2-6.7 7.7-9 .6-2.4 4.4-8.1 5-10 .5-1.9-2.8-2.9-2.8-2.9s-5-.9-7.2-.5c-2.2.5-13.8-2.9-13.8-2.9s14.4-4.8 17.7-5.7 20.5-7.6 22.1-9c1.7-1.4 5.5-3.8 6.7-6.2 1.1-2.4 3.3-6.2 3.3-6.2l3.9-4.8s-4.4-5.2-7.2-6.2l-6.1-3.3 1.6-1.4s13.3 3.8 16.1 3.8 6.1-1.4 8.9-1.4h7.2l7.8 5.2s5.5 5.2 6.1 7.6c.3 1.3 2.1 1.8 3.4 2.1.7-.5 4.9-1.6 4.9-1.6s1.7 10.5 2.8 12.4 3.3 8.6 5 11 5.6 8.6 6.1 10.9c.5 2.4.5 3.8 2.8 5.2 2.2 1.4 3.3 1.4 5 0l4.4-4.8 2.2-1.9 1.1-8.1 1.1-7.1s8.8-5.7 11.1-7.1c2.2-1.4 8.3-5.2 10.5-6.7 2.2-1.4 8.3-1.4 8.3-1.4h7.7c1.7 0 4.4 2.4 4.4 2.4s4.4 1.4 3.9 3.8c-.6 2.4-1.1 5.2-1.1 5.2s2.8 1.8 4.4 2.9l3.9-2.4 2.8 1.4s3.9 5.7 3.9 10.5l-2.2 10.5s3.3 3.3 4.4 5.2l5.5 8.1 1.7 5.7 1.1 2.4c-1.1-2.4-6.6-4.8-6.6-4.8l-5-5.2-9.4-1.4 3.9 5.7-.6 4.3 3.9 1.9 1.1 4.3 3.3 3.3 3.9 5.2 4.4 1s9.4 8.1 11.6 10 7.2 5.2 11.1 6.2c3.9.9 11.1 1.4 11.1 1.4l13.3 2.9s10.5.5 12.7.5l8.3 1.9 5 1-1.1-2.9 6.6-1.4v4.3s7.7-.5 9.4-1l5.5-.5 1.7-1 3.3-2.8 2.8 3.8 3.3-3.3 2.8-.9-.6-3.8h-16s-2.8.5-4.4 1.4c-1.7 1-3.9 1-7.2.5s-7.7-1-10.5-.5l-8.3 1s-8.3-1.9-9.9-1.9c-1.7 0-5.6-1.9-5.6-1.9s-13.3.5-14.9-.5c-1.7-.9-5 .5-6.6-2.4-1.7-2.9-6.1-5.2-3.3-6.2l3.9-2.4s-3.9-2.9-6.1-4.3-4.4-6.2-6.6-10.5 0-7.1-1.7-9.5-8.3-6.2-10.5-10-3.3-6.7-2.8-8.1c.6-1.4 1.7-3.8 3.3-3.8s4.4-1.4 7.8 2.4c3.3 3.8 5.5 4.8 6.1 7.1.6 2.4 5-.5 7.7-1.9 2.8-1.4 8.9-4.8 10-7.6 1.1-2.9 1.1-6.7-1.1-9.5-2.2-2.9-10-8.1-10.5-10.9-.6-2.9 3.3-7.6 5-7.6h5c-2.8 0 1.7 2.4 0 3.8s-3.9 1.4-2.2 3.3 3.3 2.9 5 2.4 4.4-1 3.9-3.8c-.6-2.9-1.1-4.3-1.1-4.3s14.9-5.2 17.7-6.2 10-3.3 12.7-9c1.5-3.1 5.7-8.5 8.2-11.7-4.4 4.7 1.1-8.9.1-11.2-1.1-2.4-4.4-8.6-4.4-8.6s-3.9-2.4-1.7-4.3 6.6-3.8 6.6-5.2-1.1-2.4-3.3-2.4-4.4 1.4-5.5-.5 2.8-4.8 3.9-6.2 7.8 1 5 0c-2.8-.9 4.4-1.9 7.2 0l5.5 4.3s2.2 2.9 2.2 4.8l.5 4.8s1.7 3.8 3.3 3.8c1.7 0 2.8 0 4.4-.5 1.7-.5 2.8-2.9 2.8-2.9l1.1-5.7s-5-4.3-6.1-6.2l-.6-3.3s7.8-3.8 8.3-7.6c.6-3.8 5.5-5.2 5.5-5.2s3.3 1.4 6.1.5 11.6-9 16.1-15.7c4.4-6.7 6.6-7.6 8.3-12.4s1.7-14.8 1.7-10 1.1-6.2-.6-10l-5.5-5.2-5.5-.9s-5-3.3-1.7-7.6 13.3-10 15.5-13.3l10.5-5.7s5.5 0 7.8 1.4c2.2 1.4 6.1-2.4 7.8-2.4l6.1.5 5.5 2.9 7.8-.5s1.7-3.3 2.2-4.8c.6-1.4 1.7-6.2 5-8.6l8.8-3.3 3.3 5.7s1.7 1.9 3.9.5 5.5-5.7 7.2-7.6l4.5-3.3-3.3 8.1s-10.5 8.1-12.7 11.4-.6 3.3-5.5 6.7c-5 3.3-7.8 6.7-7.8 6.7s-2.2 9-2.2 12.4c0 3.3 0 8.1.6 11.9l1.1 5.7s3.9-.5 6.1-2.4 7.2-6.2 6.7-7.6c-.6-1.4 1.1-5.2 1.1-5.2s2.8 1.4 5-.5 2.2-2.9 2.2-5.7c0-2.9 2.8-4.3 2.8-4.3s.6-3.3 1.1-5.2l1.1-3.8-4.4-1.4s2.2-1.4 3.3-5.2l1.1-3.8 8.3-1s7.2-6.2 10-3.8 5 4.3 7.2 2.9 7.8-8.1 10-9.5 8.3-6.2 11.1-6.2l7.8.5s2.2-3.3 1.7-6.7c-.6-3.3-1.7-6.7-1.7-6.7s2.2-6.2 5-6.7l12.7 3.3s3.9 4.8 6.6 4.8c2.8 0 7.7-1.9 7.7-3.3s.6-4.3 3.3-5.7c2.8-1.4 3.3-2.9 3.3-4.3-.8-1.6-5.2-6.4-8-7.4m-325 226.6c1.9 1.2 1.3.8 0 0" fill="#00245b" opacity=".15"/></svg>