<?xml version="1.0" encoding="utf-8"?>
<!-- Generator: Adobe Illustrator 22.0.0, SVG Export Plug-In . SVG Version: 6.00 Build 0)  -->
<svg version="1.1" baseProfile="basic" id="Layer_1"
	 xmlns="http://www.w3.org/2000/svg" xmlns:xlink="http://www.w3.org/1999/xlink" x="0px" y="0px" viewBox="0 0 257 94"
	 xml:space="preserve">
<style type="text/css">
	.st0{fill:#EA7424;}
	.st1{fill:#C61F42;}
	.st2{fill:url(#SVGID_1_);}
	.st3{fill:url(#SVGID_2_);}
	.st4{fill:#C41F3C;}
	.st5{fill:#1226AA;}
	.st6{fill:#475C9D;}
	.st7{fill:none;stroke:#EA7424;stroke-width:0.498;}
	.st8{fill:url(#SVGID_3_);}
</style>
<g>
	<g>
		<g>
			<g>
				<path class="st0" d="M155.7,84.3c-2.6,0-5.1,0-7.7,0c0.4-0.4,0.8-0.8,1.1-1.3c1-1.3,1.5-2.8,2-4.3c1.1-3.1,2.2-6.2,3.2-9.3
					c1.3-3.8,2.5-7.7,3.8-11.6c0.4-1.2,0.6-2.5,0.2-3.8c0.2,0,0.3,0,0.5,0c2.3,0,4.7,0,7,0c0.4,0,0.5,0.1,0.6,0.5
					c1.1,4.2,2.3,8.4,3.4,12.6c1.2,4.3,2.5,8.6,4.1,12.7c0.5,1.1,1.1,2.2,1.6,3.3c0,0.1,0.1,0.1,0.2,0.2c0.4-0.6,0.6-1.2,0.6-1.8
					c0.1-1.3,0.2-2.7,0.2-4.1c0-5.6,0-11.2,0-16.8c0-1.4-0.1-2.8-0.3-4.2c-0.1-0.7-0.5-1.3-0.8-1.9c-0.1-0.2-0.2-0.3-0.3-0.5
					c0.2,0,0.3,0,0.4,0c2.1,0,4.2,0,6.3,0c1,0,1.7,0.5,2.1,1.3c1.5,2.5,2.9,5,4.4,7.4c2,3.5,4.1,6.9,6.1,10.4c0,0.1,0.1,0.1,0.2,0.2
					c0-0.1,0-0.2,0-0.2c0-4.8,0-9.5,0-14.3c0-0.9-0.1-1.7-0.3-2.6c-0.1-0.9-0.5-1.6-1.2-2.3c2.5,0,4.9,0,7.4,0
					c-1.3,1.2-1.4,2.7-1.5,4.3c0,1.4-0.1,2.8-0.1,4.1c0,7.1,0,14.2,0,21.3c0,0.2,0,0.4,0,0.6c-0.1,0-0.2,0-0.3,0c-1.5,0-3,0-4.5,0
					c-0.3,0-0.5-0.1-0.6-0.4c-3.1-5.3-6.3-10.7-9.4-16c-0.9-1.6-1.9-3.2-2.8-4.8c-0.1-0.1-0.2-0.3-0.4-0.4c0,0.1,0,0.3,0,0.4
					c0,5.1,0,10.1,0,15.2c0,0.7,0,1.5,0.1,2.2c0.1,1.3,0.3,2.6,1.4,3.6c-0.2,0-0.3,0-0.4,0c-3.7,0-7.4,0-11.2,0
					c-0.5,0-1-0.1-1.5-0.1c-0.8-0.2-1.4-0.7-1.6-1.5c-0.6-2.3-1.3-4.7-1.9-7c-0.2-0.8-0.4-1.5-0.6-2.3c-0.1-0.2-0.1-0.3-0.4-0.3
					c-2.2,0-4.5,0-6.7,0c-0.1,0-0.4,0.1-0.4,0.3c-0.8,2.4-1.6,4.8-2.3,7.3c-0.3,0.9-0.5,1.8-0.2,2.8
					C155.4,83.6,155.6,83.9,155.7,84.3z M161.9,60.6L161.9,60.6c-1,3.1-1.9,6.1-2.8,9.3c1.8,0,3.5,0,5.4,0
					C163.5,66.7,162.7,63.6,161.9,60.6z"/>
				<g>
					<path class="st1" d="M159.4,55.3c0.1-0.1,1.3,1.3,1.3,1.3c0.3,1.6-6.1,21-7.1,23.2s-3.4,3.6-3.4,3.6s1.4-2.6,3.4-7.9
						C155.6,70.2,159.7,57.9,159.4,55.3z"/>
					<polygon class="st1" points="163.2,55.7 162.5,58.5 165.5,70.5 158.2,70.6 157.4,71.5 167.3,71.5 					"/>
					<polygon class="st1" points="166.3,73.7 169.1,83.2 170.1,81.8 167.5,72.6 					"/>
				</g>
				<polygon class="st1" points="181.8,62.2 194.3,83.7 193.8,80 181.8,59.2 				"/>
				<polygon class="st1" points="195.6,73.7 195.5,55.2 197,57.7 197,75.5 				"/>
				<path class="st1" d="M176.8,54.2c0-0.1,1.7,0.8,1.7,0.8c0.8,1.4,0.9,21.9,0.6,24.2c-0.3,2.4-2.1,4.5-2.1,4.5s0.5-2.9,0.8-8.6
					C178,69.5,177.9,56.5,176.8,54.2z"/>
			</g>
			<g>
				<path class="st0" d="M256.5,84.2c-0.2,0-0.3,0-0.4,0c-2.3,0-4.6,0-6.9-0.1c-1,0-1.9-0.3-2.2-1.3c-0.2-0.5-0.3-1.1-0.5-1.7
					c-0.7-2.7-1.5-5.4-2.2-8.2c-0.1-0.3-0.2-0.4-0.5-0.4c-2.6,0-5.1,0-7.7,0c-0.2,0-0.4,0-0.5,0.3c-0.7,2.5-1.4,4.9-2,7.4
					c-0.2,0.9-0.3,1.9-0.1,2.9c0.1,0.3,0.3,0.6,0.4,1c-0.2,0-0.3,0-0.5,0c-4.1,0-8.1,0-12.2,0c-0.4,0-0.6-0.1-0.9-0.5
					c-3.8-6.5-7.6-12.9-11.4-19.4c-0.3-0.5-0.6-1.1-1.1-1.6c0,0.1,0,0.2,0,0.3c0,5.3,0,10.6,0,16c0,0.8,0.1,1.6,0.2,2.3
					c0.2,1.4,0.4,1.7,1.3,2.8c-2.5,0-4.9,0-7.4,0c0.6-0.6,1.1-1.3,1.2-2.2c0.1-0.9,0.3-1.8,0.3-2.7c0-6.8,0-13.6,0-20.5
					c0-1.2-0.1-2.3-0.6-3.4c-0.2-0.5-0.5-0.9-0.8-1.4c0.1,0,0.2,0,0.2,0c2.2,0,4.4,0,6.5,0c0.8,0,1.4,0.3,1.9,1
					c0.7,1.1,1.4,2.3,2.1,3.5c2.5,4.3,5.1,8.6,7.6,12.9c0.3,0.5,0.6,1.1,0.9,1.6c0.1,0.1,0.1,0.2,0.3,0.3c0-0.2,0-0.3,0-0.5
					c0-4.6,0-9.1,0-13.7c0-1.2,0-2.5-0.5-3.6c-0.2-0.5-0.6-1-0.9-1.5c2.3,0,4.7,0,7.3,0c-1.1,0.9-1.3,2.1-1.5,3.4
					c-0.1,1-0.1,2-0.1,2.9c0,7.6,0,15.3,0,22.9c0,0.1,0,0.3,0,0.5c0.2-0.2,0.3-0.3,0.4-0.4c0.9-1.2,1.6-2.5,2-3.9
					c1.4-4.2,2.9-8.5,4.3-12.7c1.2-3.7,2.4-7.3,3.5-11c0.3-1,0.5-2,0.6-3.1c0.1-0.6,0-1.3,0-2c0,0,0.2,0,0.4,0c2.4,0,4.8,0,7.1,0
					c0.4,0,0.6,0.1,0.7,0.5c1.8,6.4,3.6,12.8,5.5,19.2c1,3.3,2.1,6.6,3.3,9.8C254.3,81.7,255.1,83.1,256.5,84.2z M240.2,57.9
					L240.2,57.9c-1.2,3.7-2.3,7.5-3.5,11.2c2.2,0,4.3,0,6.4,0C242.2,65.4,241.2,61.7,240.2,57.9z"/>
				<g>
					<path class="st1" d="M237.7,51.3c0.1-0.1,1.4,1.4,1.4,1.4c0.3,1.8-6.4,23.3-7.5,25.7c-1.1,2.4-3.6,4-3.6,4s1.5-2.9,3.6-8.7
						C233.8,67.8,238.1,54.1,237.7,51.3z"/>
					<polygon class="st1" points="241.8,53.2 241,56.4 244.2,69.7 236.5,69.8 235.6,70.7 246,70.7 					"/>
					<polygon class="st1" points="244.8,72.5 247.7,83 248.8,81.5 246,71.3 					"/>
				</g>
				<polygon class="st1" points="209,62.3 221.4,83.8 221,80.1 208.9,59.4 				"/>
				<polygon class="st1" points="222.4,74.1 222.4,55.6 223.8,58.1 223.9,75.9 				"/>
				<path class="st1" d="M203.8,54.4c0-0.1,1.7,0.8,1.7,0.8c0.8,1.4,0.9,21.9,0.6,24.2c-0.3,2.4-2.1,4.5-2.1,4.5s0.5-2.9,0.8-8.6
					C205,69.7,205,56.7,203.8,54.4z"/>
			</g>
			<g>
				<path class="st0" d="M144,84.3c-3.2,0-6.4,0-9.6,0c0.2-0.2,0.3-0.4,0.5-0.6c0.7-0.9,0.9-2,0.9-3.1c0.1-6.1,0.1-12.2,0.1-18.2
					c0-1.6,0-3.2-0.1-4.8c-0.1-1.3-0.3-2.6-1.5-3.6c0.8,0,1.5-0.1,2.2-0.1c1.9,0,3.7-0.1,5.6-0.1c2.6,0,5.3,0.1,7.8,0.7
					c1.9,0.5,3.5,1.3,4.7,2.9c2,2.8,1.6,6.6-0.8,9.1c-1.8,1.8-4,2.7-6.4,3.2c-1.5,0.3-3.1,0.3-4.6,0.2c-0.2,0-0.3,0.1-0.3,0.3
					c0,0.1,0,0.1,0,0.2c0,2.9,0,5.8,0,8.6c0,0.8,0.1,1.6,0.2,2.4C142.8,82.6,143.1,83.5,144,84.3z M142.4,69
					c0.4-0.1,0.8-0.2,1.1-0.3c1.6-0.5,3-1.3,4.1-2.6c1.3-1.6,1.7-3.5,1.4-5.5c-0.3-1.9-1.3-3.2-3.2-3.9c-0.9-0.3-1.9-0.3-2.9-0.3
					c-0.4,0-0.5,0.1-0.5,0.6c0,3.8,0,7.7,0,11.5C142.4,68.6,142.4,68.7,142.4,69z"/>
				<path class="st1" d="M136,54.2c0-0.1,1.7,0.8,1.7,0.8c0.8,1.4,0.9,21.9,0.6,24.2c-0.3,2.4-2.1,4.5-2.1,4.5s0.5-2.9,0.8-8.6
					C137.2,69.5,137.1,56.5,136,54.2z"/>
				<path class="st1" d="M144.5,55c4.3,0.8,5.5,1.8,6.3,2.9c1.3,1.8,1.3,3.8,1.3,3.8s-0.3,3.8-2.1,5.2c-3.8,2.7-6.4,2-6.4,2
					s7.1-0.1,7.2-7.3C150.9,57.1,144.5,55,144.5,55z"/>
			</g>
		</g>
		<g>
			<g>
				<path class="st0" d="M31.1,84.6c-0.1,0-0.2,0-0.3,0c-2.3,0-4.6,0-6.8-0.1c-0.4,0-0.8-0.1-1.1-0.2c-0.6-0.2-1-0.7-1.2-1.3
					c-0.7-2.6-1.4-5.3-2.2-7.9c-0.2-0.6-0.3-1.1-0.5-1.7c-0.1-0.3-0.2-0.3-0.5-0.3c-2.6,0-5.2,0-7.7,0c-0.3,0-0.4,0.1-0.5,0.3
					c-0.8,2.5-1.6,5-2,7.7c-0.1,0.7-0.2,1.4-0.1,2c0,0.5,0.3,1,0.5,1.5c-2.7,0-5.5,0-8.3,0c0.5-0.6,1-1.2,1.4-1.8
					c1-1.5,1.5-3.2,2-4.8c2.1-6.4,4.2-12.8,6.3-19.2c0.5-1.7,1-3.4,1.3-5.2c0.2-0.8,0-1.7,0-2.6c0.1,0,0.3,0,0.4,0
					c2.4,0,4.8,0,7.2,0c0.4,0,0.5,0.1,0.7,0.5c1.6,5.8,3.2,11.6,5,17.4c1.1,3.8,2.4,7.6,3.7,11.4c0.3,1,0.9,1.9,1.4,2.8
					C30.1,83.6,30.6,84,31.1,84.6z M15,58.3h-0.1c-1.1,3.7-2.3,7.5-3.4,11.2c2.2,0,4.3,0,6.4,0C16.9,65.8,15.9,62,15,58.3z"/>
				<g>
					<path class="st1" d="M12.5,52c0.1-0.1,1.4,1.4,1.4,1.4c0.3,1.8-6.4,23.3-7.5,25.7c-1.1,2.4-3.6,4-3.6,4s1.5-2.9,3.6-8.7
						C8.5,68.5,12.8,54.8,12.5,52z"/>
					<polygon class="st1" points="16.5,53.9 15.7,57.1 19,70.4 11.2,70.5 10.4,71.4 20.8,71.4 					"/>
					<polygon class="st1" points="19.6,73.2 22.5,83.8 23.6,82.2 20.8,72 					"/>
				</g>
			</g>
			<g>
				<path class="st0" d="M103.2,84.4c-2.5,0-5.1,0-7.7,0c0.4-0.4,0.8-0.8,1.1-1.3c1-1.4,1.5-2.9,2-4.5c1.6-4.9,3.3-9.8,4.8-14.7
					c0.7-2.2,1.3-4.5,1.9-6.7c0.3-1,0.2-2,0-3c0.2,0,0.3,0,0.5,0c2.3,0,4.6,0,6.9,0c0.5,0,0.7,0.1,0.8,0.6c1.4,5,2.8,9.9,4.3,14.9
					c1.1,3.7,2.3,7.3,3.8,10.8c0.3,0.7,0.6,1.4,1,2.1s0.9,1.3,1.3,1.9c-0.1,0-0.2,0-0.2,0c-2,0-4,0-6.1-0.1c-1.5-0.1-2-0.7-2.3-1.8
					c-0.8-3-1.7-6-2.6-9c-0.1-0.3-0.2-0.5-0.6-0.4c-2.2,0-4.3,0-6.5,0c-0.2,0-0.4,0-0.5,0.3c-0.7,2.4-1.5,4.8-2.2,7.2
					c-0.2,0.8-0.2,1.7-0.2,2.6C102.9,83.6,103.1,84,103.2,84.4z M106.4,69.9c1.8,0,3.6,0,5.3,0c-0.9-3.1-1.8-6.2-2.7-9.2h-0.1
					C108.1,63.8,107.3,66.8,106.4,69.9z"/>
				<g>
					<path class="st1" d="M106.8,55.5c0.1-0.1,1.3,1.3,1.3,1.3c0.3,1.6-6.1,21-7.1,23.2s-3.4,3.6-3.4,3.6S99,81,101,75.7
						C103.1,70.4,107.2,58,106.8,55.5z"/>
					<polygon class="st1" points="110.7,55.9 109.9,58.7 113,70.7 105.7,70.8 104.9,71.7 114.8,71.7 					"/>
					<polygon class="st1" points="113.8,73.9 116.6,83.4 117.6,82 114.9,72.8 					"/>
				</g>
			</g>
			<g>
				<path class="st0" d="M73.9,54.1c3.2,0,6.3,0,9.5,0c-0.6,0.7-0.9,1.4-1,2.2c-0.1,1.1-0.2,2.2-0.3,3.4c0,5.3,0,10.5,0,15.8
					c0,1.1,0.2,2.2,0.5,3.3c0.5,1.8,1.9,2.8,3.8,3c1.6,0.1,3-0.2,4.1-1.5c0.8-0.9,1.2-2,1.3-3.2c0.1-0.9,0.2-1.7,0.2-2.6
					c0-5.6,0-11.1,0-16.7c0-1-0.1-2-0.5-2.9c-0.1-0.3-0.3-0.5-0.5-0.8c2.4,0,4.9,0,7.3,0v0.1c-1,1-1.3,2.3-1.4,3.6
					c-0.1,3.3-0.1,6.6-0.1,9.9c0,2.7,0,5.3,0,8c0,2-0.4,4-1.7,5.7c-1.3,1.8-3.2,2.8-5.3,3.3c-2.9,0.6-5.8,0.5-8.6-0.3
					c-3.1-1-5-3.1-5.5-6.3c-0.1-0.8-0.2-1.7-0.2-2.6c0-4.9,0-9.9,0-14.8c0-1.5,0-3-0.3-4.5C75,55.4,74.7,54.7,73.9,54.1z"/>
				<path class="st1" d="M92.6,55.4c0-0.1,1.7,0.9,1.7,0.9C94.7,64,94.9,76,94.2,78c-1.1,3-5.2,3.9-5.2,3.9s3.8-0.8,4.1-7.5
					C93.4,69.4,93.3,58.6,92.6,55.4z"/>
				<path class="st1" d="M77.9,56.4l-2.1-1.1c1.7,7.2-0.2,8.6,0.9,22.2c0.2,3.1,4.1,7,8.7,6.5c0.6-0.1-4.3,0.3-6.5-5.7
					c-1-2.7-0.5-8.2-0.6-12.8C78.2,60.6,77.9,56.4,77.9,56.4z"/>
			</g>
			<g>
				<path class="st0" d="M29,69.5c0-2.4,0.4-5.1,1.5-7.7c1.9-4.3,5.1-6.8,9.7-7.6c1.6-0.3,3.2-0.2,4.9-0.1c1,0.1,2,0.1,3,0.1
					c0.3,0,0.5,0.1,0.5,0.4c0.1,1.5,0.1,3,0.2,4.6c0,0.1-0.1,0.2-0.1,0.3c-0.1,0-0.2-0.1-0.3-0.2c-1.1-1-2.4-1.7-3.8-2.1
					c-2.7-0.7-5.3,0.4-6.7,2.8c-0.9,1.6-1.4,3.3-1.6,5.1c-0.3,2.2-0.4,4.4-0.2,6.6c0.1,2.3,0.4,4.5,1.3,6.6c0.8,1.8,2,3.2,4,3.7
					c2.5,0.7,4.8,0.2,6.6-1.7c0.3-0.3,0.6-0.7,1-1.1c0.1-0.1,0.3-0.2,0.4-0.1s0.2,0.3,0.2,0.4c-0.1,1.3-0.2,2.5-0.2,3.7
					c0,0.6-0.4,1-0.9,1.1c-1.1,0.3-2.3,0.6-3.4,0.8c-2.6,0.4-5.2,0.1-7.6-0.8c-3.7-1.4-6-4.1-7.2-7.8C29.3,74.5,29,72.3,29,69.5z"/>
				<path class="st1" d="M40.4,56.6c0,0,1-1.2,3.4-1.2s3.4,0.6,3.4,0.6l1.2,2.2c0,0-1.5-1.7-3.8-2.1C42.4,55.7,40.4,56.6,40.4,56.6z
					"/>
				<path class="st1" d="M40.6,82.9c0,0,1,1.4,3.4,1.4s3.4-0.7,3.4-0.7l1.2-2.6c0,0-1.5,2-3.8,2.5C42.5,83.9,40.6,82.9,40.6,82.9z"
					/>
				<path class="st1" d="M40.1,55.6c-5.6,1.7-7.2,3.7-8.2,6.1c-1.7,3.8-1.8,7.9-1.8,7.9s0.3,7.9,2.8,10.7c4.9,5.6,8.4,4.1,8.4,4.1
					s-9.3-0.2-9.5-15.2C31.7,59.8,40.1,55.6,40.1,55.6z"/>
			</g>
			<g>
				<path class="st0" d="M55.9,84.6c-0.7-0.5-1.4-0.9-2.1-1.4c-2.1-1.7-3.5-4-4.3-6.5c-0.9-3-1.1-6-0.9-9c0.2-2.5,0.8-4.9,2-7.2
					c1.5-2.8,3.7-4.9,6.8-5.8c5.2-1.5,10.6,0.2,13.5,5.1c1.1,1.9,1.8,3.9,2.1,6c0.3,2,0.4,4,0.3,6c-0.3,3.6-1.2,7-3.6,9.8
					c-1,1.2-2.2,2.1-3.5,2.8c-0.1,0-0.1,0.1-0.3,0.2c0.2,0.1,0.2,0.1,0.3,0.2c3,1,6,2.1,9.1,3.1c2.6,0.8,5.3,1.4,8.1,1.7
					c4.4,0.5,8.6-0.4,12.6-2.1c0.4-0.2,0.8-0.4,1.2-0.6c0.1-0.1,0.3,0,0.4,0c0,0.1,0,0.2,0,0.3l0,0c-0.2,1.4-1.4,2-2.4,2.6
					c-2.6,1.6-5.4,2.7-8.4,3.2c-2.9,0.5-5.7,0.4-8.5-0.2c-3.3-0.7-6.4-1.8-9.5-3.1c-2.2-0.9-4.4-1.8-6.7-2.7
					c-1.1-0.4-2.3-0.6-3.4-0.8c-1.3-0.2-2.5,0.2-3.6,0.8c-0.3,0.2-0.5,0.2-0.8-0.2c-0.7-1-0.8-0.7,0.2-1.4c0.2-0.2,0.4-0.3,0.7-0.5
					C55.4,84.9,55.7,84.7,55.9,84.6z M66.6,70.6c0-0.9-0.1-1.7-0.1-2.6c-0.1-1.8-0.3-3.5-0.8-5.2s-1.1-3.3-2.2-4.7
					c-1.1-1.2-2.7-1.6-4.1-1c-0.9,0.4-1.6,1.2-2.1,2.1c-1.1,2-1.6,4.1-1.7,6.4c-0.1,1.8-0.1,3.7-0.1,5.6c0.1,2.4,0.4,4.7,1.2,7
					c0.4,1.2,1,2.3,1.8,3.3c1.5,1.7,3.7,1.8,5.3,0.1c1-1.1,1.6-2.4,1.9-3.9C66.4,75.3,66.6,73,66.6,70.6z"/>
				
					<radialGradient id="SVGID_1_" cx="54.4221" cy="108.3675" r="11.1791" gradientTransform="matrix(1 0 0 -1.026 0 181.7583)" gradientUnits="userSpaceOnUse">
					<stop  offset="0" style="stop-color:#EC1C24"/>
					<stop  offset="1" style="stop-color:#BE1E2D"/>
				</radialGradient>
				<path class="st2" d="M59.3,55.1c0,0-5.2,0-8.1,6c-1.8,3.9-1.7,8.2-1.7,8.2s0.3,8.2,2.7,11.1c1.7,2,3.5,3.1,4.9,3.8
					c0.2,0.1-1.1,0.7-2.5,1.6c-0.2,0.2,2-0.5,2.5-0.8l1.4-0.9c0.7-0.3-7.1,0.3-7.2-15.3C51.2,57.2,59.3,55.1,59.3,55.1z"/>
				
					<radialGradient id="SVGID_2_" cx="65.6754" cy="26.1923" r="9.6186" gradientTransform="matrix(1 0 0 -1 0 96)" gradientUnits="userSpaceOnUse">
					<stop  offset="0" style="stop-color:#EC1C24"/>
					<stop  offset="1" style="stop-color:#BE1E2D"/>
				</radialGradient>
				<path class="st3" d="M62.3,56.7c4.3,1.5,4.9,3.6,5.7,5.7c1.3,3.5,1.2,7.1,1.2,7.1s0.7,3.2-1.4,9.2c-1.6,4.7-5.7,4.2-5.7,4.2
					s5.9,0.2,5.5-13.6C67.2,58.3,62.3,56.7,62.3,56.7z"/>
				<path class="st4" d="M62.2,84.9c0,0,1.7-0.6,5.7,1.2c9.3,4.1,18.6,6.1,25.7,2.7c2.8-1.3-3.4,3.8-11.9,3
					C76.2,91.3,66.4,86,62.2,84.9z"/>
			</g>
		</g>
		<g>
			<path class="st5" d="M124.7-0.5c0.3,0.4,0.7,0.8,1,1.3c2.3,3,3.7,6.3,4.4,10c0.4,2.2,0.5,4.5,0.3,6.7c-0.2,2.3-0.8,4.5-1.6,6.6
				c-0.8,2.3-1.6,4.5-2.3,6.8c-0.6,1.8-0.8,3.8-0.9,5.7c0,0.4-0.1,0.8-0.1,1.3c0.1,0,0.2,0.1,0.3,0.1c0.7,0.1,0.7,0.1,0.8-0.6
				c0.2-2.2,0.6-4.3,1.4-6.3c1.7-4.3,4.3-7.7,8.4-9.9c1.8-1,3.8-1.4,5.8-1.3c2.7,0.2,5.1,2.5,5.3,5.3c0.2,2.2-0.7,3.9-1.9,5.6
				c-0.8,1.1-1.9,1.9-3,2.7c-1.8,1.3-3.5,2.7-5.2,4c-0.8,0.6-1.4,1.4-1.8,2.3c0,0.1-0.2,0.1-0.2,0.2c0-0.1-0.1-0.2-0.1-0.3
				c-0.2-0.9-0.5-1.7-1.2-2.4c0.5-0.3,1-0.6,1.5-0.9c0.8-0.5,1.5-1,2.1-1.8c1.1-1.5,1-3.2-0.3-4.4c-0.9-0.9-2-1-3.2-0.7
				c-1.9,0.5-3.2,1.7-4.2,3.3s-1.4,3.3-1.6,5.1c0,0.3,0.1,0.4,0.3,0.4c0.8,0.2,1.7,0.4,2.5,0.6c0.3,0.1,0.4,0.2,0.4,0.5
				c0,1.2,0,1.2-1.1,1.5c-0.6,0.2-1.2,0.3-1.8,0.4c0.6,3,4.3,5,6.5,3.2c0.2,0.6,0.2,1.3,0.2,1.9c-0.1,1.6-1.1,2.7-2.7,2.8
				c-1.6,0.1-2.8-0.6-3.7-1.8c-1.1-1.4-1.7-3.1-2.1-4.9c-0.1-0.3-0.1-0.6-0.2-0.9c0,0,0,0-0.1-0.1c-0.3,0-0.6,0-1,0.1
				c0.1,1.3,0.4,2.5,0.7,3.7c0.3,1,0.5,2.1,0.7,3.1c0.2,1.8-0.3,3.4-1.2,5c-0.4,0.7-0.8,1.3-1.2,2c-0.1-0.2-0.2-0.2-0.3-0.3
				c-1.1-1.6-2-3.3-2.2-5.2c-0.1-1.1,0.1-2.2,0.3-3.3c0.4-1.5,0.7-3,1-4.6c0.1-0.3,0-0.4-0.3-0.4c-0.7,0-0.7,0-0.8,0.7
				c-0.3,1.8-0.9,3.5-1.9,4.9c-0.8,1.1-1.8,1.9-3.3,2.1c-1.6,0.2-3-0.8-3.3-2.4c-0.1-0.8-0.1-1.7,0.1-2.2c0.4,0.2,0.8,0.4,1.3,0.5
				c1.5,0.3,2.8-0.3,3.9-1.4c0.7-0.7,1.1-1.5,1.3-2.4c-0.5-0.1-1.1-0.2-1.6-0.4c-0.4-0.1-0.8-0.2-1.1-0.3c-0.1,0-0.2-0.2-0.3-0.3
				v-0.1c0-1.2,0-1.2,1.2-1.5c0.7-0.2,1.4-0.3,2.2-0.5c-0.1-0.8-0.2-1.7-0.4-2.5c-0.5-2.2-1.6-4.1-3.5-5.4c-1-0.7-2.1-1.1-3.3-1
				c-2.2,0.3-3.4,2.5-2.5,4.5c0.5,1.1,1.4,1.8,2.3,2.4c0.5,0.4,1.1,0.7,1.5,0.9c-0.4,0.9-0.8,1.8-1.2,2.8c0,0-0.1-0.1-0.2-0.2
				c-0.7-1.4-1.8-2.5-3.1-3.4c-1.5-1.2-3.1-2.3-4.6-3.4c-1.8-1.3-3.2-2.9-4-5.1c-1-2.7-0.1-5.6,2.2-7.1c0.9-0.6,1.8-0.9,2.8-0.9
				c2.9-0.2,5.3,0.8,7.6,2.5c4,2.9,6.4,7,7.5,11.8c0.3,1.1,0.3,2.3,0.5,3.4c0,0.2,0,0.3,0.1,0.5c0.3,0,0.7-0.1,1.1-0.1
				c-0.1-1.1-0.2-2.1-0.3-3.1c-0.4-3.5-1.5-6.7-2.8-10c-0.8-2-1.4-4-1.7-6.1c-0.3-2-0.3-3.9-0.1-5.9c0.3-2.8,1-5.4,2.1-7.9
				C121.9,2.9,123.1,1.1,124.7-0.5L124.7-0.5z"/>
			<path class="st5" d="M132.3,12.3c1.1,1.3,2,2.7,2.5,4.3c0.1,0.5,0.3,0.6,0.8,0.6c1.5,0,2.9,0.4,4.5,1c-3.2,0.7-5.9,2.1-8.4,4.1
				C132.3,18.9,132.5,15.6,132.3,12.3z"/>
			<path class="st5" d="M116.9,22.3c-2.5-2-5.2-3.4-8.2-4.2c0.6-0.2,1.2-0.5,1.9-0.7c0.8-0.2,1.7-0.3,2.5-0.3c0.4,0,0.5-0.1,0.6-0.5
				c0.3-1.4,1.6-3.7,2.6-4.4C115.9,15.6,116.1,18.9,116.9,22.3z"/>
			<path class="st6" d="M124.5,35.2c0.8-5.1,4.7-12.6,4.9-17.7c0.5-10.3-5.1-16.7-5.1-16.7s-4,4.5-4.8,11
				c-0.6,5.2,1.6,12.8,1.6,12.8s-1.5-4.4-0.4-12.8c0.8-5.9,3.6-9.6,3.6-9.6S124.5,35.3,124.5,35.2z"/>
			<path class="st6" d="M124.2,55.1c0.3-1.6,1.6-4,1.7-5.6c0.2-3.2-1.7-5.3-1.7-5.3s-1.4,1.4-1.6,3.5c-0.2,1.6,0.5,4,0.5,4
				s-0.5-1.4-0.1-4c0.3-1.8,1.2-3,1.2-3L124.2,55.1z"/>
			<g>
				<g>
					<path class="st6" d="M110.1,34.8c0,0-2.8-2-3.7-5.3c-0.2-0.8-0.3-2.3,0.6-3.3c1.4-1.6,3.2-1.2,4.3-0.9c5.6,1.4,8.6,6.6,8.6,6.6
						c-4.5-4.6-7.6-3.9-9.1-2.3C108.5,31.9,110.1,34.8,110.1,34.8z"/>
					<path class="st6" d="M104.1,30.3c0,0-1.6-1.8-1.7-4.5c0-0.4,0.1-2.3,1-3.3c1.4-1.6,3.8-2,5.3-1.7c9.1,1.6,11.2,11.3,11.2,11.3
						c-1.3-2.7-2.5-4.8-3.9-6.3c-5.7-6.2-10.7-4.3-12-3.1C101,25.4,104.1,30.3,104.1,30.3z"/>
				</g>
				<g>
					<path class="st6" d="M138.7,34.8c0,0,2.8-2,3.7-5.3c0.2-0.8,0.3-2.3-0.6-3.3c-1.4-1.6-3.2-1.2-4.3-0.9
						c-5.6,1.4-8.6,6.6-8.6,6.6c4.5-4.6,7.6-3.9,9.1-2.3C140.3,31.9,138.7,34.8,138.7,34.8z"/>
					<path class="st6" d="M144.7,30.3c0,0,1.6-1.8,1.7-4.5c0-0.4-0.1-2.3-1-3.3c-1.4-1.6-3.8-2-5.3-1.7
						c-9.1,1.6-11.2,11.3-11.2,11.3c1.3-2.7,2.5-4.8,3.9-6.3c5.7-6.2,10.7-4.3,12-3.1C147.8,25.4,144.7,30.3,144.7,30.3z"/>
				</g>
			</g>
			<g>
				<path class="st6" d="M114.5,46.2c4.1,1.4,6-2.9,6-2.9s-1,3.6-3.6,4.2C115.6,47.7,114.5,46.2,114.5,46.2z"/>
				<path class="st6" d="M133.9,46.2c-4.1,1.4-6-2.9-6-2.9s1,3.6,3.6,4.2C132.8,47.7,133.9,46.2,133.9,46.2z"/>
			</g>
		</g>
		<g>
			<circle class="st7" cx="251.9" cy="53.4" r="2.8"/>
			<g>
				
					<linearGradient id="SVGID_3_" gradientUnits="userSpaceOnUse" x1="250.7076" y1="42.45" x2="253.5624" y2="42.45" gradientTransform="matrix(1 0 0 -1 0 96)">
					<stop  offset="0" style="stop-color:#F16A27"/>
					<stop  offset="1" style="stop-color:#F16522"/>
				</linearGradient>
				<path class="st8" d="M250.7,55.4v-3.9h1.4c0.3,0,0.5,0,0.7,0.1c0.1,0.1,0.3,0.2,0.4,0.4c0.1,0.2,0.1,0.4,0.1,0.6
					c0,0.3-0.1,0.5-0.2,0.7c-0.2,0.2-0.4,0.3-0.7,0.4c0.1,0.1,0.2,0.1,0.3,0.2c0.1,0.2,0.2,0.3,0.3,0.5l0.6,1.1H253l-0.4-0.8
					c-0.2-0.3-0.3-0.5-0.4-0.6c-0.1-0.1-0.2-0.2-0.2-0.2c-0.1,0-0.2-0.1-0.3-0.1h-0.5v1.8h-0.5V55.4z M251.1,53.2h0.9
					c0.2,0,0.4,0,0.5-0.1c0.1,0,0.2-0.1,0.2-0.2c0.1-0.1,0.1-0.2,0.1-0.4c0-0.2-0.1-0.4-0.2-0.5s-0.3-0.2-0.5-0.2h-1V53.2z"/>
			</g>
		</g>
	</g>
</g>
</svg>
