<?xml version="1.0" encoding="utf-8"?>
<!-- Generator: Adobe Illustrator 22.0.0, SVG Export Plug-In . SVG Version: 6.00 Build 0)  -->
<svg version="1.1" baseProfile="basic" id="Layer_1"
	 xmlns="http://www.w3.org/2000/svg" xmlns:xlink="http://www.w3.org/1999/xlink" x="0px" y="0px" viewBox="0 0 250 112"
	 xml:space="preserve">
<style type="text/css">
	.st0{fill:#DF0514;}
	.st1{fill:#FFFFFF;}
	.st2{fill:#0B1B32;}
</style>
<polygon class="st0" points="117.1,26.4 89.2,26.4 111.7,42.8 103.1,69.4 125.7,53 148.2,69.4 139.6,42.8 162.1,26.4 134.3,26.4 
	125.7,-0.1 "/>
<polygon class="st1" points="96.1,28.7 114.4,42 107.4,63.5 125.7,50.2 143.9,63.5 137,42 155.2,28.7 132.7,28.7 125.7,7.1 
	118.7,28.7 "/>
<polygon class="st0" points="101.8,30.6 116.6,41.3 110.9,58.7 125.7,48 140.5,58.7 134.8,41.3 149.6,30.6 149.5,30.6 131.4,30.6 
	125.7,13.1 120.1,30.6 "/>
<path class="st2" d="M196.3,108.6c0,0.2,0.3,0.3,0.5,0.3s2.1,0,3.4,0c1.3,0,2.9,0.1,3.2,0.1s0.3-0.2,0.1-0.5s-0.7-1.1-0.7-3
	s0.1-9.9,0.1-9.9s0.1-0.2,0.3,0s0.7,0.6,0.7,1.2c0,0.5,0,10.7,0,10.7s-0.1,1,0.5,1.7c0.4,0.5,0.6,0.4,0.5,0.7s-1.1,0.1-2.2,0.2
	c-1.1,0-5,0-5.2,0s-0.4,0.1-0.3,0.3c0.1,0.3,0.1,0.5,1.2,0.6c1.1,0,6.7,0,7.1,0c0.4,0,1,0,0.8-0.8c-0.1-0.5-1.3-0.8-1.6-2.4
	c-0.2-1.7,0-8.8,0-8.8s0-0.3,0.2-0.3s3.2,4.9,3.7,5.7c0.5,0.8,2.3,3.6,2.5,3.9s0.1,0.7,1.3,0.7c1.1,0.1,4.9,0.1,5,0
	c0.1,0,0.3-0.2-0.1-0.7c-0.4-0.5-0.9-1.2-0.9-3.3c0-2,0.1-13.5,0.1-13.7c0-0.1,0-3.3,0.1-3.7c0.2-0.3,0.7-1,1.1-1.3
	c0.4-0.2,0.4-0.6,0.1-0.6c-0.3,0-1.1-0.1-7.9,0c-0.2,0-0.6,0.1-0.5,0.3c0,0.2,0.4,0.3,0.7,0.6c0.3,0.3,0.9,1,1,1.8
	c0.1,0.7,0,5.1-0.1,5.2c-0.2,0.2-0.4-0.2-0.8-0.9c-0.4-0.7-2.9-5-3.2-5.3c-0.3-0.4-0.6-0.7-1.1-0.6c-0.4,0.3,0.4,1.1,0.5,1.4
	c0.2,0.4,3.1,5.3,3.7,6.3c0.6,1,0.9,1.5,1,1.8c0,0.3,0.1,0.6-0.1,0.7c-0.2,0.1-2.1-3.1-3.1-4.6s-3.3-5.2-3.7-5.9
	c-0.5-0.7-0.5-0.9-1.7-0.9h-6.1c0,0-0.4-0.1-0.4,0.2v0.1c0,0.3,0.8,0.7,1.1,1.4c0.3,0.7,0.4,1.1,0.4,3.1c-0.1,2,0,14.6,0,14.6
	s0,1.2-0.3,2.1C196.7,108.2,196.3,108.3,196.3,108.6L196.3,108.6z"/>
<path class="st2" d="M13.6,86.8c0,0-0.6,0.4-2,0s-3.3-1.3-5-1.2c-1.7,0.1-4.4,0.8-5.5,3.6c-0.5,1.4-1.2,4.4,1.7,7.1
	c1.3,1.2,4.2,2.5,5.3,3.2c0.8,0.5,1.8,2,1.5,2.7c-0.2,0.4-0.5,0.1-0.7-0.2c-0.2-0.3-1.1-1.5-2.6-2.1C4.9,99.3,4,98.3,3.5,98
	c-0.5-0.4-0.7-0.5-0.9-0.3c-0.2,0.2,1.5,1.7,2.5,2.3c0.6,0.3,2.5,1.4,2.9,2.3s0.5,0.9,0.4,1.2c-0.1,0.3-1.4,0.7-3.2-0.2
	c-1.8-0.8-2.9-1.4-4.7-2.9c-0.2-0.2-0.2-0.2-0.6-0.2s0,1.5,0.1,2.3s0.7,4.7,0.7,5s0.1,0.8,0.7,0.6c0.6-0.2,1.4-0.4,2.8,0.2
	c1.5,0.6,3.1,1.6,6.1,0.9c1.6-0.4,4-2,4.8-4.7c0.2-0.8,0.9-3.8-1.3-6.6c-1-1.2-4.3-3.1-4.9-3.5S8.3,93.3,9,93.1
	c0.7-0.1,2.9-0.2,7,3.7c0.5,0.5,0.5,0.6,0.7,0.3c0.3-0.3-0.2-3.5-0.4-5.3C16.1,90,16,89.3,16,89s0-0.8-0.3-0.7
	c-0.3,0-0.2,0.3-0.2,0.9s0,1.1,0.2,2.8c0.1,1.7,0.4,3.2,0.2,3.5c-0.2,0.3-0.2,0.2-0.8-0.3c-0.6-0.5-3-3-6.3-2.9
	c-0.6,0-0.9,0.4-1,0.6s-0.2,0.6-0.5,0.2s-0.6-0.9-0.1-1.6s2.6-0.3,3.6,0.1c0.9,0.5,2.9,1.8,3.4,2.2c0.4,0.4,0.6,0.5,0.8,0.1
	c0.1-0.4-0.6-6-0.7-6.3C14,87,14,86.7,13.6,86.8L13.6,86.8z"/>
<path class="st2" d="M2.8,108.8c0,0-0.4,0.1-0.3,0.3c0.1,0.3,0.7,0.2,1,0.2c0.4,0,1,0,1.8,0.5c0.8,0.4,2.6,1.5,5.5,0.9
	s5.6-3,6.1-6.5c0.2-1.7-0.7-4.4-1.2-4.4c-0.2,0-0.1,0.5,0,0.7c0.2,0.4,0.4,2,0.3,3.2c-0.2,1.1-0.1,3-2.8,5.2
	c-1.1,0.9-2.7,1.7-5.3,1.3c-1.4-0.2-2.8-1.2-3.5-1.4C3.7,108.7,3.1,108.7,2.8,108.8L2.8,108.8z"/>
<path class="st2" d="M212.9,110c0,0-0.4-0.1-0.4,0.3c0,0.4,0.5,0.4,1,0.4s4.5,0,5.2,0s1.5,0.2,1.4-0.4c0-0.5,0.1-0.3-0.2-0.7
	c-0.3-0.4-1.1-1.3-1.2-2.3c-0.1-1.1-0.2-3.6-0.1-9.4c0-2.2-0.1-7.7,0-8.4c0.1-0.7,0.4-1.5,0.7-1.8s0.2-0.6,0-0.5s-1.4,0.3-1.5,2.1
	c-0.1,1.6,0,6.1,0,7.6s0.1,6.1,0,7.8c-0.1,1.7-0.1,3.4,0.3,3.8c0.3,0.5,0.7,0.9,0.7,1.2c0,0.3-0.2,0.2-1.3,0.3
	C216.6,109.9,213.1,109.9,212.9,110L212.9,110z"/>
<path class="st2" d="M62,85.7c1.1,0,1,0.4,1.1,0.8c0.1,0.3,0.7,2.1,1.1,3.3c0.4,1.2,0.3,1.4,0,1.4c-0.3,0.1-1.2-0.4-1.8-0.6
	c-0.6-0.2-2.8-0.1-4-0.1c-1.1,0-3.4,0-3.6,0.1c-0.2,0-0.4,0.2-0.4,0.3c0,0.1,0,0.9,0,2s0.3,1.1,0.7,1c0.3,0,0.4,0.1,0.6-0.3
	s-0.2-0.8,0-1.5c0.1-0.3,0.2-0.5,0.7-0.5s4.2,0,5.7,0s1.9,0.1,2.5,0.2c0.5,0.1,0.8,0.4,1,0.2c0.2-0.2,0-0.4-0.1-0.9
	c0-0.5-0.7-3-0.7-3.2s-0.1-0.6,0.1-0.6c0.3,0,0.6,0.4,0.7,0.8c0.2,0.3,0.8,3.1,1,3.7c0.2,0.7,0.7,2.2,0.3,2.4
	c-0.4,0.1-0.5-0.3-1.6-1c-1-0.7-1.5-0.7-2-0.7s-2.2,0-3.4-0.1c-1.1,0-2.7-0.1-3.1,0.1c-0.3,0.2-0.2,1-0.2,1.3
	c0.1,0.3,0.8,0.2,1.3,0.2c2.2,0,2.2-0.2,2.8-0.5c0.6-0.3,0.5-0.7,0.9-0.6c0.3,0,0.3,0.4,0.3,1s0,4.4,0,5.2c0,0.7,0,1.2-0.2,1.2
	s-0.3,0-1.1-0.5c-0.7-0.4-1.7-0.5-2-0.5s-2.7,0-3.4,0.1c-0.7,0-0.7,0.2-0.8,0.4c-0.1,0.2,0,2.5,0,2.8c0,0.4,0.1,0.9,0.3,0.9
	c0.9,0.1,0.8,0,0.9-0.3c0.1-0.2,0-1.2,0-1.6s0.2-0.6,0.5-0.6s3.7,0,4.7,0c1.1,0,1.2,0.3,1.5,0.5s0.5,0.5,0.7,0.3
	c0.2-0.1,0.2-0.4,0.2-0.4s0-6.5,0-6.7s-0.1-0.9,0.3-0.9c0.6,0.1,0.6,0.9,0.6,1.8c0,0.8,0.1,6.6,0.1,6.9s-0.2,1.2,0.7,1.2
	c2.1,0.1,2.7-1.1,2.9-1.1c0.3,0.1,0.2,0.3,0.2,0.5c-0.1,0.3-1.8,4.9-1.9,5.5c-0.2,0.5-0.7,0.5-1.1,0.5s-8.5,0-10-0.1
	c-1.4,0-5.3,0-5.9,0s-0.5-0.1-0.6-0.3c0-0.2,0.4-0.7,0.7-1.3c0.3-0.9,0.3-2.2,0.3-2.4c0-0.3-0.1-12.8-0.1-13.6c0-0.8,0-2.8-0.2-3.7
	c-0.2-0.9-1.1-1.1-1.1-1.5s0.5-0.3,0.5-0.3C50.2,85.7,61,85.7,62,85.7L62,85.7z M57.3,101.7c0,0-0.6,0-0.6,0.4s-0.2,1.4,0.3,1.4
	s5.5,0,5.5,0s0.6-0.1,0.4-0.5s-0.8-1.2-1.7-1.3C60.2,101.6,57.5,101.7,57.3,101.7L57.3,101.7z"/>
<path class="st2" d="M50.9,110.1c0,0-0.5,0-0.5,0.3s0.9,0.3,1.6,0.3s8.7,0,10.1,0s4.9,0,5.1-0.1s0.3-0.2,0.6-1s1.3-4,1.5-4.5
	c0.2-0.4,0.3-0.9,0-1s-0.4,0.2-0.7,1c-0.3,0.7-1.4,3.9-1.5,4.2c-0.1,0.2,0,0.6-0.9,0.7c-0.9,0.1-6.6,0-7.7,0
	C57.3,110.1,51.2,110.1,50.9,110.1L50.9,110.1z"/>
<path class="st2" d="M112.2,110.2c0,0-0.5,0-0.5,0.3s0.9,0.3,1.6,0.3c0.7,0,8.7,0,10.1,0c1.4,0,4.9,0,5.1-0.1c0.2-0.1,0.3-0.2,0.6-1
	s1.2-3.8,1.3-4.2c0.2-0.5,0.1-1-0.2-1.1s-0.3,0.7-0.6,1.4c-0.3,0.7-1.2,3.2-1.3,3.5c-0.1,0.2,0,0.6-0.9,0.7c-0.9,0.1-6.6,0-7.7,0
	C118.6,110.1,112.5,110.1,112.2,110.2L112.2,110.2z"/>
<path class="st2" d="M40.6,85.8c1.3,0.1,2.9,0.8,3.7,1.7c2.7,3.2,2.7,5.6,1.8,7.9c-1.4,3.4-4.7,4.3-5.6,4.4c-1,0.1-6.2,0.1-6.6,0.1
	s-0.4,0.3-0.4,0.4s0,4.6,0.1,6.3c0,1.7,0.3,1.6,0.5,2s-0.2,0.5-0.2,0.5s-6.2,0.1-6.4,0c-0.4-0.2,0.1-0.5,0.2-0.8
	c0.8-1.2,0.6-1.3,0.6-2.2c0-0.8-0.1-6.2-0.1-6.7s0-10.6-0.1-11.6s-0.8-1.4-0.8-1.7c0-0.3,0.7-0.3,0.7-0.3
	C35.3,85.6,39.3,85.6,40.6,85.8L40.6,85.8z M33.6,90.8c0,0-0.4,0-0.4,0.5s0,2,0,2.3c0.1,0.2,0.2,0.5,0.7,0.4c0.4,0,0.3-0.4,0.3-0.8
	S34,92.1,34.5,92s0.7-0.2,5.1,0c0.3,0,0.6,0,0.6,0.3c0,0.4-0.6,0.4-0.8,0.3c-0.2,0-3.4-0.1-3.7,0c-0.3,0.1-0.6,0.2-0.6,0.8
	c0.1,0.6,0,0.7,1.1,0.7s3,0.1,3.5-0.2c0.5-0.2,1-0.7,1-1.7s-1-1.6-2.2-1.6C37.6,90.7,34,90.7,33.6,90.8L33.6,90.8z"/>
<path class="st2" d="M29.1,110c0,0-0.5,0.4,0.4,0.8c0.3,0.1,6.2,0.1,6.6,0c0.4,0,0.9-0.1,0.6-0.7c-0.2-0.4-1.1-0.6-1.5-2.9
	c-0.1-1.9-0.1-4.6,0-4.9s0.1-0.5,0.9-0.6c0.8,0,3.4,0.2,4.8,0.1s3.8-0.4,5.7-3c0.6-0.9,1.3-1.7,1.4-4.3c0-1.2-0.4-2.6-0.8-2.5
	c-0.3,0-0.1,0.7,0,1c0,0.4,0.1,3.1-0.9,4.6s-2.1,2.9-4.1,3.4c-1.4,0.4-4.1,0.1-6.4,0.2c-1,0-1.4,0-1.5,0.6c0,0.6,0,1,0,3.4
	c0,1.6-0.1,2.3,0.1,3.1c0.3,1.1,0.8,1.3,0.7,1.6c0,0.3-0.7,0.3-1.3,0.3C33.3,110.1,29.2,109.9,29.1,110L29.1,110z"/>
<path class="st2" d="M72,85.7c0,0-0.4-0.1-0.4,0.4s0.6,0.2,0.7,2.3c0.1,1.5,0.2,16.4,0.2,17.3c0,0.9-0.7,2-0.9,2.5
	c-0.3,0.5-0.6,0.8,0,0.8s14.4-0.1,14.7-0.1s0.5,0.3,0.9-0.9c0.5-1.1,1.6-4.8,1.7-5c0.1-0.2,0.2-0.5-0.1-0.6s-0.5,0.4-1.5,0.8
	c-1,0.3-1.7,0.3-7,0.2c-0.4,0-0.4-0.4-0.4-1.2c0-0.8,0-11.7,0-12.1s0-1.6,0.6-2.1s0.8-0.8,0.6-1.1c-0.2-0.2-1.4,0.3-1.7,1.4
	c-0.4,1.1-0.3,0.8-0.3,4.1c0,3.3-0.1,10.6-0.1,10.6s0.1,0.4-0.5,0.4s-0.5-0.3-0.5-1.1c0-0.8-0.2-13.8-0.1-14.3
	c0.1-0.5,0.2-1.3,0.5-1.7c0.3-0.4,0.2-0.7-0.5-0.7C77.6,85.6,72.4,85.7,72,85.7L72,85.7z"/>
<path class="st2" d="M73.6,110c0,0-0.5,0-0.5,0.3c0,0.4,0.6,0.4,1.8,0.4s11.7,0,12.3,0.1c0.4,0,1,0,1.2-0.5s1.4-4.2,1.6-4.8
	c0.2-0.5,0.4-0.9,0-1s-0.4,0.5-0.8,1.2c-0.5,0.9-1.3,3.8-1.6,4.1c-0.2,0.3-1.4,0.2-2.7,0.2C83.5,110,73.9,109.9,73.6,110L73.6,110z"
	/>
<path class="st2" d="M92.7,110.1c0,0-0.5,0-0.5,0.3c0,0.4,0.6,0.4,1.8,0.4s11.7,0,12.3,0.1c0.4,0,1,0,1.2-0.5s1.4-4.2,1.6-4.8
	c0.2-0.5,0.4-0.9,0-1s-0.4,0.5-0.8,1.2c-0.5,0.9-1.3,3.8-1.6,4.1c-0.2,0.3-1.4,0.2-2.7,0.2C102.6,110.1,93,110,92.7,110.1
	L92.7,110.1z"/>
<path class="st2" d="M91.1,85.8c0,0-0.4-0.1-0.4,0.4s0.6,0.2,0.7,2.2c0.1,1.5,0.2,16.4,0.2,17.3c0,0.9-0.7,2-0.9,2.5
	c-0.3,0.5,0,0.7,0.6,0.7s13.8,0.1,14.1,0.1s0.5,0.3,0.9-0.9c0.5-1.1,1.6-4.8,1.7-5c0.1-0.2,0.2-0.5-0.1-0.6s-0.5,0.4-1.5,0.8
	c-1,0.3-1.7,0.3-7,0.2c-0.4,0-0.4-0.4-0.4-1.2c0-0.8,0-11.7,0-12.1s0-1.6,0.6-2.1s0.8-0.7,0.6-0.9c-0.2-0.2-1.4,0.1-1.7,1.2
	c-0.4,1.1-0.3,0.8-0.3,4.1c0,3.3-0.1,10.6-0.1,10.6s0.1,0.4-0.5,0.4s-0.5-0.3-0.5-1.1c0-0.8-0.2-13.8-0.1-14.3
	c0.1-0.5,0.2-1.3,0.5-1.7c0.3-0.4,0.2-0.7-0.5-0.7C96.7,85.7,91.5,85.8,91.1,85.8L91.1,85.8z"/>
<path class="st2" d="M147.6,85.6c0,0-2-1-6.1-0.2c-4.1,0.7-9.2,4.7-9.3,11.7c0,2.7,1.2,9.9,9.6,12.1c3.6,1,9-0.9,10.7-3.2
	c1.7-2.2,2.2-2.8,2.6-3.1c0.3-0.4,0.5-0.9,0.4-1.9c0-1.1-0.2-3.1,0-3.6s0.8-1,0.3-1.2c-0.4-0.2-6.3,0.1-6.5,0.1s-0.4,0.1-0.1,0.5
	c0.3,0.4,0.8,0.7,0.5,3.4c-0.1,0.8-2.1,3.5-5.3,3.4c-1.9,0-6.3-1.6-6.3-6.4c0-2.1,1.7-5.1,4.1-5.6c2.4-0.6,3.2-0.6,6.2,1
	c0.7,0.3,0.7,0.8,1,0.3c0.4-0.5,2.9-5.2,2.9-5.2s0.2-0.5,0-0.6s-0.7,0.5-1.9-0.2C149.2,86.3,148.6,85.8,147.6,85.6L147.6,85.6z"/>
<path class="st2" d="M141.8,92.9c0,0-3,1.5-2.8,5.4c0.1,1.6,0.8,2.5,1.7,3.1c0.4,0.3,0.3-0.1,0.1-0.6s-1.5-3.5,0.4-5.9
	c0.8-1,2.5-2.1,4.5-1.7s2.8,0.8,4.1,2c0.3,0.3,0.4,0.4,0.7-0.2c0.2-0.5,1.5-2.3,1.9-3c0.6-1.1,1.8-3,1.8-3.4s-0.4-0.4-0.7,0
	c-0.2,0.4-2.8,5.2-3.3,5.5c-0.4,0.2-1.3-0.9-2.2-1.2C146.9,92.6,144.7,91.6,141.8,92.9L141.8,92.9z"/>
<path class="st2" d="M138.7,109c0,0,2.4,2.3,7.5,2c2.6-0.1,6.2-1.5,8.6-4.5c0.9-1.2,1.2-2.2,1.9-2.5c0.6-0.3,0.6-0.7,0.6-1
	c0-0.4-0.1-3.7,0.1-4.1c0.2-0.4,0.6-0.9,0.2-1.2c-0.4-0.3-1.1,0.6-1.1,1.7s0.2,3.2,0.1,3.5c-0.2,0.7-0.6,0.5-1,1.1
	c-0.4,0.5-0.9,1.3-1.9,2.6c-1,1.3-4.3,3.5-7.3,3.8c-1.3,0.1-3.1,0.4-6.3-1.1c-1.2-0.6-1.6-0.6-1.5-0.5
	C138.5,108.8,138.2,108.7,138.7,109L138.7,109z"/>
<path class="st2" d="M184.9,85.7c0,0-0.9-0.1-0.7,0.3s1.1,0.9,1.2,2.6c0.1,1.7,0.1,16.1,0,17.1c-0.1,1.1-0.4,2.1-0.7,2.4
	s-0.3,0.9,0.5,0.9c1,0,6.2-0.1,6.2-0.1s0.7,0.2,0.2-0.6c-0.4-0.5-1-0.2-1-3.2s0.1-16.8,0.1-16.8s0-0.8,0.5-1.3
	c0.5-0.6,1.2-1.3,0.4-1.4C190.8,85.6,185.5,85.7,184.9,85.7L184.9,85.7z"/>
<path class="st2" d="M193.6,86.9c0,0-1.6,0.1-1.7,1.6c-0.1,1.7-0.1,18.4-0.1,18.6s-0.1,1.1,0.3,1.6c0.4,0.4,0.6,0.6,0.5,1
	c-0.1,0.4-2.2,0.2-3,0.2s-4-0.2-4,0.1s0,0.6,1,0.6s5.6-0.1,6.3,0s1.3,0.1,1.3-0.5c0-0.6-0.8-0.9-1-1.5c-0.3-0.5-0.5,0-0.5-6.3
	s-0.3-13.5,0.3-14.2C193.4,87.5,193.8,87.2,193.6,86.9L193.6,86.9z"/>
<path class="st2" d="M245.6,98.6c-0.6,8.5-8.6,11.4-12,11.3c-9.8-0.1-12.2-9.1-12-11.9c0.6-12.2,11.7-12.4,11.7-12.4
	C239.1,85.4,246.2,90.1,245.6,98.6L245.6,98.6z M233.6,91.6c0,0-5.3,0.3-5.8,5.6c-0.5,5.4,4.3,6.6,5.6,6.8c1.3,0.2,5.9-0.9,6.5-5.4
	C240.4,94.1,236.8,91.6,233.6,91.6L233.6,91.6z"/>
<path class="st2" d="M235.2,92.5c0,0-3.8-0.2-5.8,3.1c-0.6,1.1-1.8,4.1,0.1,6c0.5,0.5,0.6,0.2,0.4-0.4c-0.3-0.6-0.9-3.3,0.5-5.2
	c1.4-1.8,2.8-3,5.1-2.8c0.9,0.1,1.3,0.5,1.4,0.1C237.1,92.9,236.3,92.6,235.2,92.5L235.2,92.5z"/>
<path class="st2" d="M244.6,105.2c0,0-2.8,4.5-7.8,5.3c-4.2,0.6-5.8-0.4-5.9-0.1c-0.1,0.3,2.7,0.9,4.2,0.9s6.2-0.3,9.5-4.4
	c1.5-1.9,3.2-4.7,3-9.2c-0.2-4.4-2.2-6.2-2.5-6.2s1.4,3.9,1.5,6.1C246.6,99.8,246.8,102.1,244.6,105.2L244.6,105.2z"/>
<path class="st2" d="M123.4,85.7c1.1,0,1,0.4,1.1,0.8c0.1,0.3,0.7,2.1,1.1,3.3c0.4,1.2,0.3,1.4,0,1.4c-0.3,0.1-1.2-0.4-1.8-0.6
	s-2.8-0.1-3.9-0.1c-1.1,0-3.4,0-3.6,0.1c-0.2,0-0.4,0.2-0.4,0.3c0,0.1,0,1,0,2c0,1.1,0.3,1.1,0.7,1c0.3,0,0.4,0.1,0.6-0.3
	c0.2-0.4-0.2-0.8,0-1.5c0.1-0.3,0.2-0.5,0.7-0.5s4.2,0,5.7,0s1.9,0.1,2.4,0.2s0.8,0.4,1,0.2c0.2-0.2,0-0.4-0.1-0.9
	c0-0.5-0.7-3-0.7-3.2s-0.1-0.6,0.1-0.6c0.3,0,0.6,0.4,0.7,0.8c0.2,0.3,0.8,3.1,1,3.7c0.2,0.7,0.7,1.9,0.3,2s-0.3,0-1.3-0.7
	s-1.7-0.7-2.2-0.7s-2.2,0-3.4-0.1c-1.1,0-2.7-0.1-3.1,0.1c-0.3,0.2-0.2,1-0.2,1.3c0.1,0.3,0.8,0.2,1.3,0.2c2.2,0,2.2-0.2,2.7-0.5
	c0.6-0.3,0.4-0.3,0.8-0.3c0.3,0,0.3-0.5,0.1,0.7c-0.1,0.6,0,4.3,0,5.1c0,0.7,0.1,1.1-0.1,1.1c-0.2,0-0.2,0.2-0.9-0.3
	c-0.7-0.4-1.7-0.5-2-0.5s-2.7,0-3.4,0.1c-0.7,0-0.7,0.2-0.8,0.4c-0.1,0.2,0,2.5,0,2.8c0,0.4,0.1,0.9,0.3,0.9c0.9,0.1,0.8,0,0.9-0.3
	c0.1-0.2,0-1.2,0-1.6s0.2-0.6,0.5-0.6s3.7,0,4.7,0c1.1,0,1.2,0.3,1.5,0.5s0.5,0.5,0.7,0.3c0.2-0.1,0.2-0.4,0.2-0.4s0-6.5,0-6.7
	s-0.1-0.9,0.3-0.9c0.6,0.1,0.6,0.9,0.6,1.8c0,0.8,0.1,6.6,0.1,6.9s-0.2,1.2,0.7,1.2c2.1,0.1,2.8-1.2,3-1.1c0.3,0.1,0.2,0.3,0.2,0.5
	c-0.1,0.3-1.5,4.8-1.7,5.4c-0.2,0.5-1.1,0.6-1.6,0.6c-0.4,0-8.5,0-10-0.1c-1.4,0-5.3,0-5.9,0c-0.6,0-0.5-0.1-0.6-0.3
	c0-0.2,0.4-0.7,0.7-1.3c0.3-0.9,0.3-2.2,0.3-2.4c0-0.3-0.1-12.8-0.1-13.6c0-0.8,0-2.8-0.2-3.7c-0.2-0.9-1.1-1.1-1.1-1.5
	s0.5-0.3,0.5-0.3C111.5,85.7,122.3,85.7,123.4,85.7L123.4,85.7z M118.6,101.8c0,0-0.6,0-0.6,0.4s-0.2,1.4,0.3,1.4s5.5,0,5.5,0
	s0.6-0.1,0.4-0.5c-0.2-0.4-0.8-1.2-1.7-1.3S118.8,101.8,118.6,101.8L118.6,101.8z"/>
<path class="st2" d="M159.4,85.7c0.9,0,11.8,0,13.2,0c1.3,0,2.6,0.3,3.6,1.5c1.9,2.3,2.7,3.2,2.7,5.2c0,4.1-3.3,6.2-3.8,6.4
	c-0.6,0.2-0.6,0.6,0,0.9s2.1,2.5,3,3.7s1.8,1.5,2.2,1.6s1.2,0,1.1,1.1c-0.4,2.7-2.3,3.3-4.2,3c-1.9-0.4-4.6-3.6-5-5.3
	c-0.6-2.5-1-2.6-2.4-3.7s-3.5-0.8-3.9-0.6c-0.4,0.2-0.3,2.4-0.2,5.2c0.1,2.9,1.1,3.2,1.4,3c0.3-0.2,0-5.2,0-6.2c0-1.1,1-0.7,2-0.7
	c1.1,0,1.2,0.2,1.2,0.5s0,0.4-1.1,0.3c-1.1,0-1,0.1-1.2,0.3c-0.2,0.2,0,4.4,0.1,6s1.3,1.9,1.3,2.4s-0.8,0.4-1.1,0.4
	c-5.9-0.1-6.7,0-7.8,0c-1.3-0.3-0.5-0.7,0.1-0.7s6,0,6.7,0s0.4-0.5,0.1-0.9c-0.3-0.4-2.5-0.2-4.1-0.2s-4.5,0-4.8-0.2
	c-0.2-0.2,0.3-0.5,0.6-0.8c1.3-1.7,1-2.4,1.1-2.8c0.1-0.5-0.1-12.8-0.1-15.6c0-2.8-1.5-3.2-1.5-3.2C158,85.8,158.5,85.7,159.4,85.7
	L159.4,85.7z M166.4,90.8c0,0-0.8-0.2-0.8,0.6c0,0.7-0.2,2.8,0.3,3s1,0,1-0.3s-0.1-2.1,0.5-2.1s4.4,0,4.9,0s0.6,0,0.6,0.5
	s-1,0.3-2,0.3s-3-0.1-3,0.2c-0.1,0.2-0.6,1.4,0.4,1.5s3.9,0.3,4.8-0.5c0.8-0.8,0.9-2.7-1-3.1C171.3,90.7,167.1,90.8,166.4,90.8
	L166.4,90.8z"/>
<path class="st2" d="M182.5,105.8c0,0-0.4,0-0.4,0.6s-0.2,3.5-3.4,3.6c-0.9,0-1.6-0.5-1.9-0.2c-0.2,0.3,1.4,1.1,3,0.9
	C182.7,110.3,183.7,106.3,182.5,105.8L182.5,105.8z"/>
<path class="st2" d="M178.6,88.8c0,0-0.5-0.3-0.4,0.2c0.2,1.1,1.4,2.3,1.4,4.3c0.1,2.2-0.9,4.1-2,5.1c-1.1,1.1-1.4,0.9-1.4,1.4
	c0,0.4,1.4,1.4,2,2.3s1.1,2.2,1.7,1.7c0.6-0.4-1.5-3-1.9-3.4s-0.7-0.7-0.3-1.1s2.5-2.4,2.6-4.5C180.6,92.6,180.6,91.1,178.6,88.8
	L178.6,88.8z"/>
<path class="st2" d="M248.2,88.5c-0.2,0-0.4-0.5-0.7-1h-0.3V88c0,0.2,0.1,0.3,0.3,0.3v0.2h-1.1v-0.2c0.2,0,0.3-0.1,0.3-0.3v-1.4
	c0-0.2-0.1-0.3-0.3-0.3v-0.2h1.2c0.4,0,0.7,0.2,0.7,0.6c0,0.3-0.2,0.5-0.4,0.6l0.3,0.5c0.2,0.2,0.3,0.4,0.4,0.5v0.1h-0.4V88.5z
	 M247.3,87.2h0.2c0.3,0,0.4-0.2,0.4-0.5s-0.2-0.4-0.4-0.4h-0.2V87.2L247.3,87.2z M249.7,87.3c0,1.2-0.9,2.1-2.2,2.1
	c-1.2,0-2.2-0.9-2.2-2.1s0.9-2.1,2.2-2.1C248.8,85.2,249.7,86.1,249.7,87.3L249.7,87.3z M249.2,87.3c0-0.9-0.7-1.8-1.7-1.8
	c-0.9,0-1.7,0.8-1.7,1.8c0,0.9,0.7,1.8,1.7,1.8C248.5,89.1,249.2,88.3,249.2,87.3L249.2,87.3z"/>
<path class="st2" d="M23.7,105.9c0,1.6-1.3,2.8-2.8,2.8s-2.8-1.3-2.8-2.8c0-1.6,1.3-2.8,2.8-2.8C22.5,103.1,23.7,104.3,23.7,105.9
	L23.7,105.9z"/>
</svg>
