<?xml version="1.0" encoding="utf-8"?>
<!-- Generator: Adobe Illustrator 23.0.0, SVG Export Plug-In . SVG Version: 6.00 Build 0)  -->
<svg version="1.1" id="Livello_1" xmlns="http://www.w3.org/2000/svg" xmlns:xlink="http://www.w3.org/1999/xlink" x="0px" y="0px"
	 viewBox="0 0 1045.9 313.9" style="enable-background:new 0 0 1045.9 313.9;" xml:space="preserve">
<style type="text/css">
	.st0{fill-rule:evenodd;clip-rule:evenodd;fill:#C0B07F;}
	.st1{fill-rule:evenodd;clip-rule:evenodd;fill:#295942;}
	
		.st2{fill-rule:evenodd;clip-rule:evenodd;fill:none;stroke:#C0B07F;stroke-width:3;stroke-linecap:round;stroke-miterlimit:10;stroke-dasharray:0,9;}
	.st3{fill:#295942;}
	.st4{fill:#00295A;}
</style>
<path class="st0" d="M895.8,67.9c61.9,0,112.1,50.2,112.1,112.1s-50.2,112.1-112.1,112.1S783.7,241.9,783.7,180
	S833.9,67.9,895.8,67.9z"/>
<path class="st0" d="M650.9,19C712.8,19,763,69.2,763,131.1c0,61.9-50.2,112.1-112.1,112.1c-61.9,0-112.1-50.2-112.1-112.1
	C538.8,69.2,589,19,650.9,19z"/>
<path class="st0" d="M401.4,19c61.9,0,112.1,50.2,112.1,112.1c0,61.9-50.2,112.1-112.1,112.1c-61.9,0-112.1-50.2-112.1-112.1
	C289.3,69.2,339.5,19,401.4,19z"/>
<path class="st0" d="M149,67.9c61.9,0,112.1,50.2,112.1,112.1S210.9,292.1,149,292.1c-61.9,0-112.1-50.2-112.1-112.1
	S87.1,67.9,149,67.9z"/>
<g>
	<g>
		<path class="st1" d="M896.8,119.4c0-0.5,0-6,0-11.3c0-5.1,0-10.2,0-10.6c0-0.4,0-0.8,0-1.3c0-1.8,0-1.9-0.3-2.2
			c-0.9-0.6-2-1-3.1-1c-2.6,0-4.7,1.8-4.7,4.1c0,0,0,0.1,0,0.1c-1.9,1-3.2,2.7-3.2,4.7c0,0.2,0,0.5,0.1,0.7
			c-2.1,1.3-3.3,3.3-3.3,5.4c0,2.1,1.1,4.1,3.1,5.3c-0.1,0.4-0.2,0.8-0.2,1.2c0,2.1,1.3,3.9,3.5,4.8c0,2.2,2.1,4.1,4.7,4.1
			C896.8,123.5,896.8,120.6,896.8,119.4z M890.2,119.4c0-0.1,0-0.2,0-0.3c0.1-0.3-0.1-0.7-0.5-0.8c-1.8-0.6-3-2.1-3-3.7
			c0-0.3,0.1-0.7,0.2-1c0.6-0.2,1.3-0.2,1.9,0.1l0.7,0.4c0.1,0.1,0.2,0.1,0.3,0.1c0.2,0,0.5-0.1,0.6-0.4c0.2-0.3,0-0.8-0.3-0.9
			l-0.7-0.4c-0.9-0.5-2-0.6-3-0.2c-1.6-1-2.6-2.6-2.6-4.2c0-1.8,1.1-3.5,3-4.5c0.3-0.2,0.4-0.5,0.3-0.8c-0.1-0.3-0.1-0.6-0.1-0.9
			c0-1.5,1.1-2.9,2.8-3.6c0.3-0.1,0.5-0.4,0.4-0.8c0-0.2,0-0.3,0-0.4c0-1.5,1.5-2.7,3.4-2.7c0.7,0,1.4,0.2,2,0.6c0,0.3,0,0.8,0,1.2
			c0,0.5,0,1,0,1.3c0,0.4,0,5.4,0,10.6c0,5.4,0,10.9,0,11.3c0,2-0.5,2.7-1.9,2.7C891.7,122.1,890.2,120.9,890.2,119.4z M886.9,105.8
			c-0.4-0.1-0.7,0.1-0.8,0.5c-0.1,0.4,0.1,0.7,0.5,0.8c0.1,0,1.1,0.3,0.9,1.3c-0.1,0.4,0.2,0.7,0.6,0.8c0,0,0.1,0,0.1,0
			c0.3,0,0.6-0.3,0.7-0.6C889.1,106.9,887.7,106,886.9,105.8z M893.5,105.2c0.3-0.2,0.4-0.7,0.1-1c-0.2-0.3-0.7-0.4-1-0.1
			c-0.6,0.5-1.5,0-1.5-0.1c-0.3-0.2-0.7-0.2-1,0.2c-0.2,0.3-0.2,0.7,0.2,1c0.3,0.3,1,0.5,1.7,0.5
			C892.6,105.7,893.1,105.6,893.5,105.2z M894.2,118.6c0.3-0.3,0.3-0.7,0.1-1c-0.6-0.7-1.3-0.9-1.8-0.9c-1,0-1.7,0.6-1.8,0.7
			c-0.3,0.3-0.3,0.7,0,1c0.3,0.3,0.7,0.3,1,0c0,0,0.3-0.3,0.8-0.3c0.3,0,0.5,0.2,0.8,0.5c0.1,0.2,0.3,0.2,0.5,0.2
			C893.9,118.8,894.1,118.7,894.2,118.6z M892,100.8C892.1,100.8,892.1,100.8,892,100.8c0.6-0.1,1-0.3,1.3-0.7
			c0.3-0.4,0.4-0.9,0.4-1.4c0-0.4-0.4-0.7-0.8-0.6c-0.4,0-0.7,0.4-0.6,0.8c0,0.1,0,0.2-0.1,0.3c-0.1,0.1-0.2,0.2-0.3,0.2
			c-0.4,0-0.7,0.4-0.6,0.8C891.4,100.6,891.7,100.8,892,100.8z M892.3,109.9l-0.3-0.2c-0.3-0.2-0.8-0.1-0.9,0.3
			c-0.2,0.3-0.1,0.8,0.3,0.9l0.3,0.2c0.4,0.2,0.8,0.5,1,0.9l0.2,0.3c0.1,0.2,0.4,0.3,0.6,0.3c0.1,0,0.2,0,0.4-0.1
			c0.3-0.2,0.4-0.6,0.2-1l-0.2-0.3C893.5,110.8,893,110.3,892.3,109.9z M891.7,125.1l0,4.7l4.1,3.1l4.9,0l4.3-3.1l0-4.7L891.7,125.1
			z M900.3,131.5l-4,0l-1.6-1.2l7.3,0L900.3,131.5z M893.1,128.9l0-2.4l10.5,0l0,2.4L893.1,128.9z M898.4,94L898.4,94L898.4,94
			c0,0-0.1,0-0.1,0c-0.1,0-0.1,0-0.2,0l-0.1,0l0,1.4c0,0,0.1,0,0.1,0l0.1,0h0c0,0,0.1,0,0.1,0c3.1,0,6.1,1.2,8.3,3.4
			c2.2,2.2,3.5,5.2,3.5,8.3c0,4-1.9,7.7-5,9.7c-1.7,1.1-1.5,2.9-1.5,3l0,2.5l-3.5,0v-6.8l2.9-5.4l-1.2-0.7l-3,5.5
			c-0.1,0.1-0.1,0.2-0.1,0.3v6.9l-1.4,0v1.4h1.3l5.7,0c0.4,0,0.7-0.3,0.7-0.7l0-3.3c0,0-0.1-1.1,0.9-1.7c3.5-2.2,5.6-6.4,5.6-10.8
			c0-3.5-1.4-6.8-3.9-9.3C905.2,95.3,901.9,94,898.4,94z M898.4,88.6c0.4,0,0.7-0.3,0.7-0.7v-5.5c0-0.4-0.3-0.7-0.7-0.7
			c-0.4,0-0.7,0.3-0.7,0.7v5.5C897.7,88.3,898,88.6,898.4,88.6z M879,106.6h-5.5c-0.4,0-0.7,0.3-0.7,0.7c0,0.4,0.3,0.7,0.7,0.7h5.5
			c0.4,0,0.7-0.3,0.7-0.7C879.7,106.9,879.4,106.6,879,106.6z M923.3,106.6h-5.5c-0.4,0-0.7,0.3-0.7,0.7c0,0.4,0.3,0.7,0.7,0.7h5.5
			c0.4,0,0.7-0.3,0.7-0.7C923.9,106.9,923.6,106.6,923.3,106.6z M885,94.6c0.2,0,0.4-0.1,0.5-0.2c0.3-0.3,0.3-0.7,0-1l-3.9-3.9
			c-0.3-0.3-0.7-0.3-1,0c-0.3,0.3-0.3,0.7,0,1l3.9,3.9C884.6,94.5,884.8,94.6,885,94.6z M915.2,89.5l-3.9,3.9c-0.3,0.3-0.3,0.7,0,1
			c0.1,0.1,0.3,0.2,0.5,0.2s0.4-0.1,0.5-0.2l3.9-3.9c0.3-0.3,0.3-0.7,0-1C915.9,89.2,915.4,89.2,915.2,89.5z"/>
	</g>
</g>
<path class="st2" d="M1018.8,226.9c-83.8-60.2-276.2-102.3-500-102.3c-224,0-416.4,42.2-500.1,102.4"/>
<g>
	<path class="st3" d="M157.5,99.4h-1.4v-4.9c0-3.7-2.5-6.4-6-6.4h-4.9c-3.5,0-6,2.7-6,6.4v4.9h-1.4v-4.9c0-4.4,3.2-7.8,7.5-7.8h4.9
		c4.3,0,7.5,3.3,7.5,7.8V99.4z"/>
	<path class="st3" d="M147.6,76.8c-2.1,0-2.8,1.8-2.8,3.5c0,1.7,0.7,3.5,2.8,3.5c2.1,0,2.8-1.8,2.8-3.5
		C150.4,78.6,149.7,76.8,147.6,76.8 M147.6,85.3c-2.5,0-4.2-2-4.2-4.9c0-3,1.7-4.9,4.2-4.9c2.5,0,4.2,2,4.2,4.9
		C151.8,83.3,150.1,85.3,147.6,85.3"/>
	<path class="st3" d="M147.6,110c-2.1,0-2.8,1.8-2.8,3.5c0,1.7,0.7,3.5,2.8,3.5c2.1,0,2.8-1.8,2.8-3.5
		C150.4,111.8,149.7,110,147.6,110 M147.6,118.4c-2.5,0-4.2-2-4.2-4.9c0-3,1.7-4.9,4.2-4.9c2.5,0,4.2,2,4.2,4.9
		C151.8,116.5,150.1,118.4,147.6,118.4"/>
	<path class="st3" d="M128.5,110c-2.1,0-2.8,1.8-2.8,3.5c0,1.7,0.7,3.5,2.8,3.5c2.1,0,2.8-1.8,2.8-3.5
		C131.3,111.8,130.6,110,128.5,110 M128.5,118.4c-2.5,0-4.2-2-4.2-4.9c0-3,1.7-4.9,4.2-4.9c2.5,0,4.2,2,4.2,4.9
		C132.7,116.5,131,118.4,128.5,118.4"/>
	<path class="st3" d="M156.5,127.6c-0.3,0-0.6-0.2-0.7-0.6c-0.6-3.4-3-5.8-6-5.8h-5c-3.1,0-5.5,2.3-6,5.8c-0.1,0.4-0.4,0.6-0.8,0.6
		c-0.4-0.1-0.6-0.4-0.6-0.8c0.7-4.2,3.7-6.9,7.4-6.9h5c3.8,0,6.8,2.8,7.4,7c0.1,0.4-0.2,0.7-0.6,0.8
		C156.6,127.6,156.5,127.6,156.5,127.6"/>
	<path class="st3" d="M137.8,127.6c-0.3,0-0.6-0.2-0.7-0.6c-0.6-3.4-3-5.8-6-5.8h-5c-3.1,0-5.5,2.3-6,5.8c-0.1,0.4-0.4,0.6-0.8,0.6
		c-0.4-0.1-0.6-0.4-0.6-0.8c0.7-4.2,3.7-6.9,7.4-6.9h5c3.8,0,6.8,2.8,7.4,7c0.1,0.4-0.2,0.7-0.6,0.8
		C137.9,127.6,137.8,127.6,137.8,127.6"/>
	<path class="st3" d="M166.1,110c-2.1,0-2.8,1.8-2.8,3.5c0,1.7,0.7,3.5,2.8,3.5c2.1,0,2.8-1.8,2.8-3.5
		C169,111.8,168.2,110,166.1,110 M166.1,118.4c-2.5,0-4.2-2-4.2-4.9c0-3,1.7-4.9,4.2-4.9c2.5,0,4.2,2,4.2,4.9
		C170.4,116.5,168.7,118.4,166.1,118.4"/>
	<path class="st3" d="M156.8,127.6c0,0-0.1,0-0.1,0c-0.4-0.1-0.6-0.4-0.6-0.8c0.7-4.2,3.7-7,7.4-7h5c3.8,0,6.8,2.8,7.4,6.9
		c0.1,0.4-0.2,0.7-0.6,0.8c-0.4,0.1-0.7-0.2-0.8-0.6c-0.6-3.4-3-5.8-6-5.8h-5c-3.1,0-5.5,2.3-6,5.8
		C157.5,127.4,157.2,127.6,156.8,127.6"/>
	<path class="st3" d="M134.9,102.2h25.5v-2.1h-25.5V102.2z M161,103.6h-26.9c-0.4,0-0.7-0.3-0.7-0.7v-3.5c0-0.4,0.3-0.7,0.7-0.7H161
		c0.4,0,0.7,0.3,0.7,0.7v3.5C161.7,103.3,161.4,103.6,161,103.6"/>
	<path class="st3" d="M137,119.9c-0.4,0-0.7-0.3-0.7-0.7v-16.2c0-0.4,0.3-0.7,0.7-0.7c0.4,0,0.7,0.3,0.7,0.7v16.2
		C137.7,119.5,137.4,119.9,137,119.9"/>
	<path class="st3" d="M158.2,119.9c-0.4,0-0.7-0.3-0.7-0.7v-16.2c0-0.4,0.3-0.7,0.7-0.7s0.7,0.3,0.7,0.7v16.2
		C158.9,119.5,158.6,119.9,158.2,119.9"/>
	<path class="st3" d="M143.2,98.6h8.5l0-0.8l0.6-4.6c0-0.1,0-0.1,0-0.1c0,0-0.1-0.1-0.1-0.1h-9.3c-0.1,0-0.1,0-0.1,0.1
		c0,0-0.1,0.1,0,0.1l0.6,4.7V98.6z M153.1,100h-11.3V98l-0.6-4.6c-0.1-0.5,0.1-0.9,0.4-1.3c0.3-0.3,0.7-0.5,1.2-0.5h9.3
		c0.5,0,0.9,0.2,1.2,0.5c0.3,0.3,0.4,0.8,0.4,1.3l-0.6,4.6V100z"/>
</g>
<g>
	<path class="st3" d="M405,70.9h-1.4v-9.6l0.2-0.2c0,0,4.5-4.5,5.6-9.4c0.8-3.5,1.4-6.1,1.4-6.1c0.1-0.3,0-0.7-0.2-1
		c-0.2-0.2-0.4-0.4-0.7-0.4c-0.4-0.1-0.7-0.1-0.9,0.1c-0.3,0.2-0.5,0.8-0.6,1.2l-0.8,3.4c-1.4,5.7-3.6,7.9-8.2,7.9h-1.4
		c-3.6,0-6.4,2.4-6.4,5.6v8.6h-1.4v-8.6c0-4,3.4-7.1,7.8-7.1h1.4c3.4,0,5.4-1,6.8-6.8l0.8-3.3c0.2-1,0.6-1.6,1.2-2
		c0.5-0.4,1.2-0.4,2-0.3c0.6,0.1,1.2,0.4,1.6,1c0.4,0.6,0.6,1.3,0.4,2.1c0,0-0.6,2.6-1.4,6.2c-1.1,4.7-4.9,8.9-5.8,9.9V70.9z"/>
	<path class="st3" d="M395.1,70.9h-1.4v-4.9H393v-1.4h2.1V70.9z"/>
	<path class="st3" d="M399.3,46c-2.1,0-2.8,1.8-2.8,3.5c0,1.7,0.7,3.5,2.8,3.5c2.1,0,2.8-1.8,2.8-3.5C402.2,47.8,401.4,46,399.3,46
		 M399.3,54.5c-2.5,0-4.3-2-4.3-4.9c0-3,1.7-4.9,4.3-4.9c2.5,0,4.3,2,4.3,4.9C403.6,52.5,401.9,54.5,399.3,54.5"/>
	<path class="st3" d="M388.7,70.2v15.5h1.4V71.6h17v14.1h1.4V70.2H388.7z"/>
	<path class="st3" d="M410.7,71.6h-24.1c-0.4,0-0.7-0.3-0.7-0.7c0-0.4,0.3-0.7,0.7-0.7h24.1c0.4,0,0.7,0.3,0.7,0.7
		C411.4,71.3,411.1,71.6,410.7,71.6"/>
</g>
<g>
	<path class="st3" d="M652.9,76.5h1.4V55.9h-1.4V76.5z"/>
	<path class="st3" d="M640,76.5h1.4V55.9H640V76.5z"/>
	<path class="st3" d="M647.2,29.6c-2.6,0-3.6,2.3-3.6,4.3c0,2,0.9,4.3,3.6,4.3c2.6,0,3.6-2.3,3.6-4.3
		C650.7,31.9,649.8,29.6,647.2,29.6 M647.2,39.5c-3,0-5-2.3-5-5.7c0-3.4,2-5.7,5-5.7s5,2.3,5,5.7C652.2,37.3,650.1,39.5,647.2,39.5"
		/>
	<path class="st3" d="M646.4,76.5h1.4V63.7h-1.4V76.5z"/>
	<path class="st3" d="M640.3,52.6c-0.1,0-0.3,0-0.4-0.1c-0.3-0.2-0.4-0.7-0.2-1l0.9-1.2c0.4-0.5,1.1-1,1.9-0.7l2.8,0.5
		c0.8-0.1,5-0.5,7.9,0.4l-0.2-2.1c0-0.4,0.2-0.7,0.6-0.8c0.4,0,0.7,0.2,0.8,0.6l0.3,3.3c0,0.3-0.1,0.5-0.3,0.7
		c-0.2,0.1-0.5,0.2-0.7,0c-2.6-1.4-8.3-0.7-8.4-0.7c-0.1,0-0.1,0-0.2,0l-3-0.6c-0.1,0-0.1,0-0.2,0c0,0-0.2,0.1-0.3,0.2l-0.9,1.2
		C640.7,52.5,640.5,52.6,640.3,52.6"/>
	<path class="st3" d="M648.9,54.8c0.5,0.2,1.6,0.5,2.1,0.5h5.3c0.5,0,1.1-0.2,1.4-0.6c0.2-0.3,0.2-0.5,0.2-0.5l-1.1-8.3
		c-0.4-2-2.1-3.5-4.1-3.5h-10c-2.2,0-4.4,1.6-4.8,3.5l-1.5,8.2c0,0.2,0,0.4,0.2,0.6c0.3,0.3,0.8,0.5,1.3,0.5h6.9l2-0.2
		c-1.6-1-4.4-2.5-6.7-2.3c-0.2,0-0.5-0.1-0.6-0.2c-0.2-0.2-0.2-0.4-0.2-0.6l0.8-3.6c0.1-0.4,0.5-0.6,0.9-0.5
		c0.4,0.1,0.6,0.5,0.5,0.8l-0.6,2.7C644.5,51.6,648.3,54.4,648.9,54.8 M656.3,56.7H651c-0.5,0-1.3-0.2-1.9-0.3c0,0-0.1,0-0.1,0
		l-4.1,0.3l-7,0c-0.9,0-1.9-0.4-2.4-1c-0.4-0.5-0.6-1.1-0.5-1.8l1.5-8.2c0.5-2.5,3.4-4.7,6.2-4.7h10c2.6,0,4.9,2,5.5,4.6l1.1,8.3
		c0.1,0.6-0.1,1.2-0.5,1.7C658.2,56.3,657.3,56.7,656.3,56.7"/>
	<path class="st3" d="M667.2,63h-1.4v-1.4h0.7v-13c0-3.4-2.8-6.2-6.3-6.2h-2.2V41h2.2c4.3,0,7.8,3.4,7.8,7.6v13.7
		C667.9,62.7,667.6,63,667.2,63"/>
	<path class="st3" d="M664.3,76.5h-1.4V50.9c0-0.4,0.3-0.7,0.7-0.7h1.4v1.4h-0.7V76.5z"/>
	<path class="st3" d="M657.9,76.5h1.4V63h-1.4V76.5z"/>
	<path class="st3" d="M658.6,31c-2.1,0-2.9,1.8-2.9,3.6c0,1.7,0.8,3.6,2.9,3.6c2.1,0,2.9-1.8,2.9-3.6C661.4,32.9,660.7,31,658.6,31
		 M658.6,39.5c-2.6,0-4.3-2-4.3-5c0-3,1.7-5,4.3-5s4.3,2,4.3,5C662.9,37.5,661.1,39.5,658.6,39.5"/>
	<path class="st3" d="M677.2,63.7h-1.4v-1.4h0.7V49.5c0-3-2.3-5-5.7-5h-2.1v-1.4h2.1c4.2,0,7.2,2.6,7.2,6.4V63
		C677.9,63.4,677.6,63.7,677.2,63.7"/>
	<path class="st3" d="M674.3,76.5h-1.4V53.7c0-0.4,0.3-0.7,0.7-0.7h0.7V76.5z"/>
	<path class="st3" d="M667.9,76.5h1.4V65.1h-1.4V76.5z"/>
	<path class="st3" d="M669.3,34.6c-1.6,0-2.1,1.5-2.1,2.8c0,1.4,0.6,2.8,2.1,2.8c1.6,0,2.1-1.5,2.1-2.8
		C671.5,36,670.9,34.6,669.3,34.6 M669.3,41.7c-2.1,0-3.6-1.7-3.6-4.3c0-2.5,1.4-4.3,3.6-4.3c2.1,0,3.6,1.7,3.6,4.3
		C672.9,40,671.4,41.7,669.3,41.7"/>
	<path class="st3" d="M628.5,63h-1.4c-0.4,0-0.7-0.3-0.7-0.7V48.6c0-4.2,3.5-7.6,7.8-7.6h2.2v1.4h-2.2c-3.5,0-6.3,2.8-6.3,6.2v13
		h0.7V63z"/>
	<path class="st3" d="M631.4,76.5H630V51.6h-0.7v-1.4h1.4c0.4,0,0.7,0.3,0.7,0.7V76.5z"/>
	<path class="st3" d="M635,76.5h1.4V63H635V76.5z"/>
	<path class="st3" d="M635.7,31c-2.1,0-2.9,1.8-2.9,3.6c0,1.7,0.8,3.6,2.9,3.6c2.1,0,2.9-1.8,2.9-3.6C638.6,32.9,637.8,31,635.7,31
		 M635.7,39.5c-2.6,0-4.3-2-4.3-5c0-3,1.7-5,4.3-5c2.6,0,4.3,2,4.3,5C640,37.5,638.3,39.5,635.7,39.5"/>
	<path class="st3" d="M618.5,63.7h-1.4c-0.4,0-0.7-0.3-0.7-0.7V49.5c0-3.8,2.9-6.4,7.2-6.4h2.1v1.4h-2.1c-3.4,0-5.7,2-5.7,5v12.8
		h0.7V63.7z"/>
	<path class="st3" d="M621.4,76.5H620V53h0.7c0.4,0,0.7,0.3,0.7,0.7V76.5z"/>
	<path class="st3" d="M625,76.5h1.4V65.1H625V76.5z"/>
	<path class="st3" d="M625,34.6c-1.6,0-2.1,1.5-2.1,2.8c0,1.4,0.6,2.8,2.1,2.8c1.6,0,2.1-1.5,2.1-2.8C627.1,36,626.6,34.6,625,34.6
		 M625,41.7c-2.1,0-3.6-1.7-3.6-4.3c0-2.5,1.4-4.3,3.6-4.3s3.6,1.7,3.6,4.3C628.5,40,627.1,41.7,625,41.7"/>
</g>
<g>
	<path class="st3" d="M120.6,145h5.7v-6.2h2.1v6.2h5.6v2h-5.6v6.2h-2.1V147h-5.7V145z"/>
	<path class="st3" d="M147.6,140.2c0-1.6-1.2-2.8-3.1-2.8c-1.6,0-2.8,0.8-2.8,1.7v0.8h-2.3v-1.5c0-2.3,3.1-3.3,5.2-3.3
		c3.3,0,5.6,2.1,5.6,5.1c0,6.2-9.1,6.3-9.1,10.4c0,0.4,0.2,0.5,0.6,0.5h6.4c0.4,0,0.6-0.2,0.6-0.6v-1.1h2.3v2.3
		c0,1.1-0.5,1.6-1.6,1.6h-9.2c-1.4,0-1.7-0.6-1.7-2.1C138.5,144.6,147.6,145,147.6,140.2z"/>
	<path class="st3" d="M155.9,144.2c0-5.1,1.5-9.2,6.3-9.2c4.8,0,6.3,4.1,6.3,9.2c0,5.2-1.5,9.3-6.3,9.3
		C157.4,153.5,155.9,149.4,155.9,144.2z M166,144.2c0-3.9-0.8-6.9-3.7-6.9c-2.9,0-3.8,3-3.8,6.9c0,3.9,0.8,7,3.8,7
		C165.1,151.2,166,148.1,166,144.2z"/>
	<path class="st3" d="M98.8,166.6c3.8,0,6.9,2.8,6.9,6.7c0,3.9-3.1,6.7-6.9,6.7c-3.8,0-6.9-2.8-6.9-6.7
		C91.9,169.4,95,166.6,98.8,166.6z M98.8,177.9c2.4,0,4.4-1.9,4.4-4.6c0-2.7-2-4.6-4.4-4.6c-2.4,0-4.4,1.9-4.4,4.6
		C94.4,176,96.4,177.9,98.8,177.9z"/>
	<path class="st3" d="M111.3,169.6c0-0.4-0.2-0.6-0.6-0.6h-1v-2.1h2.3c1.1,0,1.6,0.5,1.6,1.3c0,0.4,0,0.7,0,0.7h0.1
		c0,0,1.1-2.3,4.3-2.3c3.4,0,5.6,2.7,5.6,6.7c0,4.1-2.5,6.7-5.8,6.7c-2.8,0-3.9-2.1-3.9-2.1h-0.1c0,0,0.1,0.5,0.1,1.1v5.7h-2.5
		V169.6z M117.3,177.9c2,0,3.7-1.7,3.7-4.6c0-2.8-1.5-4.6-3.6-4.6c-1.9,0-3.7,1.3-3.7,4.6C113.7,175.7,114.9,177.9,117.3,177.9z"/>
	<path class="st3" d="M129.3,169.6c0-0.4-0.2-0.6-0.6-0.6h-1v-2.1h2.4c1.1,0,1.6,0.5,1.6,1.6v8.5c0,0.4,0.2,0.6,0.6,0.6h1v2.1h-2.4
		c-1.1,0-1.6-0.5-1.6-1.6V169.6z M129.3,161.9h2.2v2.6h-2.2V161.9z"/>
	<path class="st3" d="M138.6,169.6c0-0.4-0.2-0.6-0.6-0.6h-1v-2.1h2.4c1.1,0,1.6,0.5,1.6,1.4v0.5c0,0.4-0.1,0.7-0.1,0.7h0.1
		c0.5-1.1,2-2.9,4.8-2.9c3,0,4.4,1.6,4.4,4.9v5.5c0,0.4,0.2,0.6,0.6,0.6h1v2.1h-2.4c-1.1,0-1.6-0.5-1.6-1.6v-6
		c0-1.8-0.4-3.2-2.4-3.2c-2,0-3.5,1.3-4.1,3.1c-0.2,0.5-0.2,1.1-0.2,1.7v6h-2.5V169.6z"/>
	<path class="st3" d="M157.2,169.6c0-0.4-0.2-0.6-0.6-0.6h-1v-2.1h2.4c1.1,0,1.6,0.5,1.6,1.6v8.5c0,0.4,0.2,0.6,0.6,0.6h1v2.1h-2.4
		c-1.1,0-1.6-0.5-1.6-1.6V169.6z M157.2,161.9h2.2v2.6h-2.2V161.9z"/>
	<path class="st3" d="M172.2,166.6c3.8,0,6.9,2.8,6.9,6.7c0,3.9-3.1,6.7-6.9,6.7c-3.8,0-6.9-2.8-6.9-6.7
		C165.3,169.4,168.4,166.6,172.2,166.6z M172.2,177.9c2.4,0,4.4-1.9,4.4-4.6c0-2.7-2-4.6-4.4-4.6c-2.4,0-4.4,1.9-4.4,4.6
		C167.8,176,169.8,177.9,172.2,177.9z"/>
	<path class="st3" d="M184.7,169.6c0-0.4-0.2-0.6-0.6-0.6h-1v-2.1h2.4c1.1,0,1.6,0.5,1.6,1.4v0.5c0,0.4-0.1,0.7-0.1,0.7h0.1
		c0.5-1.1,2-2.9,4.8-2.9c3,0,4.4,1.6,4.4,4.9v5.5c0,0.4,0.2,0.6,0.6,0.6h1v2.1h-2.4c-1.1,0-1.6-0.5-1.6-1.6v-6
		c0-1.8-0.4-3.2-2.4-3.2c-2,0-3.5,1.3-4.1,3.1c-0.2,0.5-0.2,1.1-0.2,1.7v6h-2.5V169.6z"/>
	<path class="st3" d="M93.1,195.4h-1.6v-2h1.6V193c0-4.2,3.2-4.8,4.8-4.8c0.6,0,0.9,0.1,0.9,0.1v2.1c0,0-0.3-0.1-0.6-0.1
		c-1,0-2.7,0.3-2.7,2.7v0.4h3v2h-3v10.8h-2.5V195.4z"/>
	<path class="st3" d="M109,193.2c3.8,0,6.9,2.8,6.9,6.7c0,3.9-3.1,6.7-6.9,6.7c-3.8,0-6.9-2.8-6.9-6.7
		C102.1,196,105.1,193.2,109,193.2z M109,204.4c2.4,0,4.4-1.9,4.4-4.6c0-2.7-2-4.6-4.4-4.6c-2.4,0-4.4,1.9-4.4,4.6
		C104.6,202.5,106.6,204.4,109,204.4z"/>
	<path class="st3" d="M121.5,196.1c0-0.4-0.2-0.6-0.6-0.6h-1v-2.1h2.3c1.1,0,1.6,0.5,1.6,1.5v0.8c0,0.5-0.1,0.9-0.1,0.9h0.1
		c0.6-1.9,2.1-3.3,4.1-3.3c0.3,0,0.7,0.1,0.7,0.1v2.4c0,0-0.3-0.1-0.7-0.1c-1.6,0-3,1.1-3.6,3c-0.2,0.7-0.3,1.5-0.3,2.3v5.2h-2.5
		V196.1z"/>
	<path class="st3" d="M134,196.1c0-0.4-0.2-0.6-0.6-0.6h-1v-2.1h2.4c1.1,0,1.6,0.5,1.6,1.4v0.5c0,0.4,0,0.7,0,0.7h0.1
		c0.6-1.5,2.4-2.9,4.4-2.9c2.2,0,3.4,1,3.8,2.9h0.1c0.7-1.5,2.5-2.9,4.6-2.9c2.9,0,4.2,1.6,4.2,4.9v5.5c0,0.4,0.2,0.6,0.6,0.6h1v2.1
		h-2.4c-1.1,0-1.6-0.5-1.6-1.6v-6.1c0-1.8-0.4-3.2-2.3-3.2c-1.8,0-3.1,1.5-3.6,3.3c-0.1,0.5-0.2,1.1-0.2,1.7v5.9h-2.5v-7.7
		c0-1.7-0.3-3.2-2.2-3.2c-1.9,0-3.2,1.6-3.7,3.4c-0.1,0.5-0.2,1.1-0.2,1.6v5.9H134V196.1z"/>
	<path class="st3" d="M165.4,193.2c3.6,0,5.5,2.7,5.5,6c0,0.3-0.1,1-0.1,1h-9.3c0.2,2.7,2.1,4.3,4.4,4.3c2.2,0,3.7-1.5,3.7-1.5
		l1.1,1.7c0,0-1.9,1.9-4.9,1.9c-4.1,0-6.8-2.9-6.8-6.7C159,195.8,161.8,193.2,165.4,193.2z M168.4,198.4c-0.1-2.1-1.4-3.3-3-3.3
		c-1.9,0-3.4,1.1-3.8,3.3H168.4z"/>
	<path class="st3" d="M176.8,196.1c0-0.4-0.2-0.6-0.6-0.6h-1v-2.1h2.3c1.1,0,1.6,0.5,1.6,1.5v0.8c0,0.5-0.1,0.9-0.1,0.9h0.1
		c0.6-1.9,2.1-3.3,4.1-3.3c0.3,0,0.7,0.1,0.7,0.1v2.4c0,0-0.3-0.1-0.7-0.1c-1.6,0-3,1.1-3.6,3c-0.2,0.7-0.3,1.5-0.3,2.3v5.2h-2.5
		V196.1z"/>
	<path class="st3" d="M188.9,202.7c0,0,1.5,1.9,3.9,1.9c1.2,0,2.2-0.5,2.2-1.6c0-2.3-7-2.1-7-6.2c0-2.5,2.2-3.6,4.8-3.6
		c1.5,0,4.2,0.5,4.2,2.5v1.2h-2.2v-0.6c0-0.8-1.1-1.1-1.9-1.1c-1.4,0-2.4,0.5-2.4,1.5c0,2.4,7,1.9,7,6.2c0,2.3-2,3.7-4.7,3.7
		c-3.4,0-5.1-2.3-5.1-2.3L188.9,202.7z"/>
	<path class="st4" d="M94.4,219.4h0.3v-0.1c0-1.4-0.5-1.9-1.8-1.9c-0.4,0-1.3,0.1-1.3,0.6v0.5h-1.4v-0.8c0-1.3,2-1.5,2.7-1.5
		c2.6,0,3.3,1.3,3.3,3.1v3.4c0,0.2,0.1,0.3,0.3,0.3h0.6v1.3h-1.4c-0.7,0-1-0.3-1-0.9c0-0.3,0-0.5,0-0.5h0c0,0-0.6,1.6-2.5,1.6
		c-1.4,0-2.7-0.8-2.7-2.4C89.6,219.6,93,219.4,94.4,219.4z M92.6,223.3c1.3,0,2.1-1.3,2.1-2.5v-0.3h-0.4c-1.1,0-3.2,0.1-3.2,1.5
		C91.1,222.7,91.6,223.3,92.6,223.3z"/>
	<path class="st4" d="M100.4,218.1c0-0.2-0.1-0.3-0.3-0.3h-0.6v-1.3h1.4c0.7,0,1,0.3,1,0.8c0,0.2,0,0.4,0,0.4h0c0,0,0.7-1.4,2.6-1.4
		c2.1,0,3.5,1.7,3.5,4.2c0,2.5-1.5,4.2-3.6,4.2c-1.8,0-2.4-1.3-2.4-1.3h0c0,0,0,0.3,0,0.7v3.5h-1.5V218.1z M104.2,223.2
		c1.3,0,2.3-1,2.3-2.8c0-1.7-0.9-2.8-2.2-2.8c-1.2,0-2.3,0.8-2.3,2.9C101.9,221.8,102.7,223.2,104.2,223.2z"/>
	<path class="st4" d="M111.5,218.1c0-0.2-0.1-0.3-0.3-0.3h-0.6v-1.3h1.4c0.7,0,1,0.3,1,0.8c0,0.2,0,0.4,0,0.4h0c0,0,0.7-1.4,2.6-1.4
		c2.1,0,3.5,1.7,3.5,4.2c0,2.5-1.5,4.2-3.6,4.2c-1.8,0-2.4-1.3-2.4-1.3h0c0,0,0,0.3,0,0.7v3.5h-1.5V218.1z M115.2,223.2
		c1.3,0,2.3-1,2.3-2.8c0-1.7-0.9-2.8-2.2-2.8c-1.2,0-2.3,0.8-2.3,2.9C113,221.8,113.7,223.2,115.2,223.2z"/>
	<path class="st4" d="M126.5,219.4h0.3v-0.1c0-1.4-0.5-1.9-1.8-1.9c-0.4,0-1.3,0.1-1.3,0.6v0.5h-1.4v-0.8c0-1.3,2-1.5,2.7-1.5
		c2.6,0,3.3,1.3,3.3,3.1v3.4c0,0.2,0.1,0.3,0.3,0.3h0.6v1.3h-1.4c-0.7,0-1-0.3-1-0.9c0-0.3,0-0.5,0-0.5h0c0,0-0.6,1.6-2.5,1.6
		c-1.4,0-2.7-0.8-2.7-2.4C121.7,219.6,125.1,219.4,126.5,219.4z M124.7,223.3c1.3,0,2.1-1.3,2.1-2.5v-0.3h-0.4
		c-1.1,0-3.2,0.1-3.2,1.5C123.2,222.7,123.7,223.3,124.7,223.3z"/>
	<path class="st4" d="M132.5,218.1c0-0.2-0.1-0.3-0.3-0.3h-0.6v-1.3h1.4c0.7,0,1,0.3,1,0.9v0.5c0,0.3,0,0.5,0,0.5h0
		c0.4-1.2,1.3-2.1,2.5-2.1c0.2,0,0.4,0,0.4,0v1.5c0,0-0.2,0-0.5,0c-1,0-1.9,0.7-2.2,1.9c-0.1,0.5-0.2,0.9-0.2,1.4v3.2h-1.5V218.1z"
		/>
	<path class="st4" d="M140.2,217.7h-1v-1.2h1.1v-2.2h1.5v2.2h1.9v1.2h-1.9v3.6c0,1.6,1.1,1.8,1.7,1.8c0.2,0,0.4,0,0.4,0v1.3
		c0,0-0.2,0-0.5,0c-1,0-3-0.3-3-3V217.7z"/>
	<path class="st4" d="M150.3,216.2c2.2,0,3.4,1.7,3.4,3.7c0,0.2,0,0.6,0,0.6h-5.8c0.1,1.7,1.3,2.6,2.7,2.6c1.4,0,2.3-0.9,2.3-0.9
		l0.7,1.1c0,0-1.2,1.2-3.1,1.2c-2.5,0-4.2-1.8-4.2-4.2C146.3,217.9,148.1,216.2,150.3,216.2z M152.2,219.5c0-1.3-0.9-2-1.9-2
		c-1.2,0-2.1,0.7-2.3,2H152.2z"/>
	<path class="st4" d="M157.3,218.1c0-0.2-0.1-0.3-0.3-0.3h-0.6v-1.3h1.5c0.7,0,1,0.3,1,0.9v0.3c0,0.3,0,0.5,0,0.5h0
		c0.3-0.7,1.3-1.8,3-1.8c1.9,0,2.7,1,2.7,3v3.4c0,0.2,0.1,0.3,0.3,0.3h0.6v1.3H164c-0.7,0-1-0.3-1-1v-3.7c0-1.1-0.2-2-1.5-2
		c-1.2,0-2.2,0.8-2.5,1.9c-0.1,0.3-0.1,0.7-0.1,1.1v3.7h-1.5V218.1z"/>
	<path class="st4" d="M171.9,216.2c2.2,0,3.4,1.7,3.4,3.7c0,0.2,0,0.6,0,0.6h-5.8c0.1,1.7,1.3,2.6,2.7,2.6c1.4,0,2.3-0.9,2.3-0.9
		l0.7,1.1c0,0-1.2,1.2-3.1,1.2c-2.5,0-4.2-1.8-4.2-4.2C168,217.9,169.7,216.2,171.9,216.2z M173.8,219.5c0-1.3-0.9-2-1.9-2
		c-1.2,0-2.1,0.7-2.3,2H173.8z"/>
	<path class="st4" d="M178.9,218.1c0-0.2-0.1-0.3-0.3-0.3H178v-1.3h1.5c0.7,0,1,0.3,1,0.9v0.3c0,0.3,0,0.5,0,0.5h0
		c0.3-0.7,1.3-1.8,3-1.8c1.9,0,2.7,1,2.7,3v3.4c0,0.2,0.1,0.3,0.3,0.3h0.6v1.3h-1.5c-0.7,0-1-0.3-1-1v-3.7c0-1.1-0.2-2-1.5-2
		c-1.2,0-2.2,0.8-2.5,1.9c-0.1,0.3-0.1,0.7-0.1,1.1v3.7h-1.5V218.1z"/>
	<path class="st4" d="M190.4,217.7h-1v-1.2h1.1v-2.2h1.5v2.2h1.9v1.2h-1.9v3.6c0,1.6,1.1,1.8,1.7,1.8c0.2,0,0.4,0,0.4,0v1.3
		c0,0-0.2,0-0.5,0c-1,0-3-0.3-3-3V217.7z"/>
	<path class="st4" d="M197.5,218.1c0-0.2-0.1-0.3-0.3-0.3h-0.6v-1.3h1.5c0.7,0,1,0.3,1,1v5.3c0,0.2,0.1,0.3,0.3,0.3h0.6v1.3h-1.5
		c-0.7,0-1-0.3-1-1V218.1z M197.5,213.3h1.4v1.6h-1.4V213.3z"/>
	<path class="st4" d="M82.4,237.5h0.3v-0.1c0-1.4-0.5-1.9-1.8-1.9c-0.4,0-1.3,0.1-1.3,0.6v0.5h-1.4v-0.8c0-1.3,2-1.5,2.7-1.5
		c2.6,0,3.3,1.3,3.3,3.1v3.4c0,0.2,0.1,0.3,0.3,0.3h0.6v1.3h-1.4c-0.7,0-1-0.3-1-0.9c0-0.3,0-0.5,0-0.5h0c0,0-0.6,1.6-2.5,1.6
		c-1.4,0-2.7-0.8-2.7-2.4C77.7,237.7,81.1,237.5,82.4,237.5z M80.7,241.4c1.3,0,2.1-1.3,2.1-2.5v-0.3h-0.4c-1.1,0-3.2,0.1-3.2,1.5
		C79.2,240.8,79.7,241.4,80.7,241.4z"/>
	<path class="st4" d="M88.5,233c0-0.2-0.1-0.3-0.3-0.3h-0.6v-1.3H89c0.7,0,1,0.3,1,1v8.4c0,0.2,0.1,0.3,0.3,0.3H91v1.3h-1.5
		c-0.7,0-1-0.3-1-1V233z"/>
	<path class="st4" d="M94.2,233c0-0.2-0.1-0.3-0.3-0.3h-0.6v-1.3h1.5c0.7,0,1,0.3,1,1v8.4c0,0.2,0.1,0.3,0.3,0.3h0.6v1.3h-1.5
		c-0.7,0-1-0.3-1-1V233z"/>
	<path class="st4" d="M104.1,237.5h0.3v-0.1c0-1.4-0.5-1.9-1.8-1.9c-0.4,0-1.3,0.1-1.3,0.6v0.5h-1.4v-0.8c0-1.3,2-1.5,2.7-1.5
		c2.6,0,3.3,1.3,3.3,3.1v3.4c0,0.2,0.1,0.3,0.3,0.3h0.6v1.3h-1.4c-0.7,0-1-0.3-1-0.9c0-0.3,0-0.5,0-0.5h0c0,0-0.6,1.6-2.5,1.6
		c-1.4,0-2.7-0.8-2.7-2.4C99.3,237.7,102.7,237.5,104.1,237.5z M102.3,241.4c1.3,0,2.1-1.3,2.1-2.5v-0.3H104c-1.1,0-3.2,0.1-3.2,1.5
		C100.8,240.8,101.3,241.4,102.3,241.4z"/>
	<path class="st4" d="M119.4,234.3c1,0,2.9,0.4,2.9,1.7v0.8h-1.4v-0.4c0-0.6-0.9-0.8-1.5-0.8c-1.6,0-2.7,1.2-2.7,2.8
		c0,1.8,1.3,2.8,2.8,2.8c1.5,0,2.5-1.1,2.5-1.1l0.7,1.1c0,0-1.1,1.4-3.2,1.4c-2.5,0-4.2-1.8-4.2-4.2
		C115.2,236.1,116.9,234.3,119.4,234.3z"/>
	<path class="st4" d="M129.3,234.3c2.4,0,4.3,1.7,4.3,4.1c0,2.4-1.9,4.2-4.3,4.2c-2.4,0-4.3-1.8-4.3-4.2
		C125.1,236.1,127,234.3,129.3,234.3z M129.3,241.3c1.5,0,2.7-1.2,2.7-2.9c0-1.6-1.2-2.8-2.7-2.8c-1.5,0-2.7,1.2-2.7,2.8
		C126.6,240.1,127.9,241.3,129.3,241.3z"/>
	<path class="st4" d="M137.1,236.2c0-0.2-0.1-0.3-0.3-0.3h-0.6v-1.3h1.5c0.7,0,1,0.3,1,0.9v0.3c0,0.3,0,0.5,0,0.5h0
		c0.4-0.9,1.5-1.8,2.7-1.8c1.3,0,2.1,0.6,2.4,1.8h0c0.4-1,1.5-1.8,2.8-1.8c1.8,0,2.6,1,2.6,3v3.4c0,0.2,0.1,0.3,0.3,0.3h0.6v1.3
		h-1.5c-0.7,0-1-0.3-1-1v-3.7c0-1.1-0.2-2-1.4-2c-1.1,0-1.9,1-2.2,2c-0.1,0.3-0.1,0.7-0.1,1.1v3.6h-1.5v-4.8c0-1-0.2-2-1.4-2
		c-1.2,0-2,1-2.3,2.1c-0.1,0.3-0.1,0.7-0.1,1v3.6h-1.5V236.2z"/>
	<path class="st4" d="M153.3,236.2c0-0.2-0.1-0.3-0.3-0.3h-0.6v-1.3h1.5c0.7,0,1,0.3,1,0.9v0.3c0,0.3,0,0.5,0,0.5h0
		c0.4-0.9,1.5-1.8,2.7-1.8c1.3,0,2.1,0.6,2.4,1.8h0c0.4-1,1.5-1.8,2.8-1.8c1.8,0,2.6,1,2.6,3v3.4c0,0.2,0.1,0.3,0.3,0.3h0.6v1.3
		h-1.5c-0.7,0-1-0.3-1-1v-3.7c0-1.1-0.2-2-1.4-2c-1.1,0-1.9,1-2.2,2c-0.1,0.3-0.1,0.7-0.1,1.1v3.6h-1.5v-4.8c0-1-0.2-2-1.4-2
		c-1.2,0-2,1-2.3,2.1c-0.1,0.3-0.1,0.7-0.1,1v3.6h-1.5V236.2z"/>
	<path class="st4" d="M169.6,236.2c0-0.2-0.1-0.3-0.3-0.3h-0.6v-1.3h1.5c0.7,0,1,0.3,1,1v3.8c0,1.1,0.2,2,1.5,2c1.6,0,2.6-1.4,2.6-3
		v-3.7h1.5v6.3c0,0.2,0.1,0.3,0.3,0.3h0.6v1.3h-1.5c-0.7,0-1-0.3-1-0.9v-0.3c0-0.3,0-0.5,0-0.5h0c-0.3,0.8-1.3,1.8-2.9,1.8
		c-1.8,0-2.7-0.9-2.7-3V236.2z"/>
	<path class="st4" d="M180.9,236.2c0-0.2-0.1-0.3-0.3-0.3h-0.6v-1.3h1.5c0.7,0,1,0.3,1,0.9v0.3c0,0.3,0,0.5,0,0.5h0
		c0.3-0.7,1.3-1.8,3-1.8c1.9,0,2.7,1,2.7,3v3.4c0,0.2,0.1,0.3,0.3,0.3h0.6v1.3h-1.5c-0.7,0-1-0.3-1-1v-3.7c0-1.1-0.2-2-1.5-2
		c-1.2,0-2.2,0.8-2.5,1.9c-0.1,0.3-0.1,0.7-0.1,1.1v3.7h-1.5V236.2z"/>
	<path class="st4" d="M192.4,236.2c0-0.2-0.1-0.3-0.3-0.3h-0.6v-1.3h1.5c0.7,0,1,0.3,1,1v5.3c0,0.2,0.1,0.3,0.3,0.3h0.6v1.3h-1.5
		c-0.7,0-1-0.3-1-1V236.2z M192.4,231.4h1.4v1.6h-1.4V231.4z"/>
	<path class="st4" d="M198.2,235.7h-1v-1.2h1.1v-2.2h1.5v2.2h1.9v1.2h-1.9v3.6c0,1.6,1.1,1.8,1.7,1.8c0.2,0,0.4,0,0.4,0v1.3
		c0,0-0.2,0-0.5,0c-1,0-3-0.3-3-3V235.7z"/>
	<path class="st4" d="M205.6,244.4c0.6,0,1.1-0.4,1.4-1.1l0.4-0.9l-2.7-6.3c-0.1-0.3-0.3-0.3-0.5-0.3H204v-1.3h0.9
		c0.6,0,0.9,0.2,1.1,0.8l1.8,4.5c0.2,0.4,0.3,1,0.3,1h0c0,0,0.1-0.5,0.3-1l1.6-4.5c0.2-0.6,0.5-0.8,1.2-0.8h0.9v1.3h-0.2
		c-0.3,0-0.4,0.1-0.5,0.3l-3.1,7.7c-0.5,1.2-1.4,1.9-2.6,1.9c-1.2,0-1.9-0.8-1.9-0.8l0.6-1.1C204.5,243.9,205,244.4,205.6,244.4z"/>
	<path class="st4" d="M99.5,250c1.8,0,2.4,1.2,2.4,1.2h0c0,0,0-0.2,0-0.5v-2c0-0.2-0.1-0.3-0.3-0.3H101v-1.3h1.5c0.7,0,1,0.3,1,1
		v8.4c0,0.2,0.1,0.3,0.3,0.3h0.6v1.3H103c-0.7,0-1-0.3-1-0.8c0-0.2,0-0.4,0-0.4h0c0,0-0.7,1.4-2.6,1.4c-2.1,0-3.5-1.7-3.5-4.2
		C95.9,251.6,97.4,250,99.5,250z M102,254.1c0-1.4-0.7-2.8-2.3-2.8c-1.2,0-2.3,1-2.3,2.8c0,1.7,0.9,2.8,2.2,2.8
		C100.9,257,102,256.2,102,254.1z"/>
	<path class="st4" d="M110.9,250c2.2,0,3.4,1.7,3.4,3.7c0,0.2,0,0.6,0,0.6h-5.8c0.1,1.7,1.3,2.6,2.7,2.6c1.4,0,2.3-0.9,2.3-0.9
		l0.7,1.1c0,0-1.2,1.2-3.1,1.2c-2.5,0-4.2-1.8-4.2-4.2C107,251.6,108.7,250,110.9,250z M112.8,253.2c0-1.3-0.9-2-1.9-2
		c-1.2,0-2.1,0.7-2.3,2H112.8z"/>
	<path class="st4" d="M117.9,248.7c0-0.2-0.1-0.3-0.3-0.3h-0.6v-1.3h1.5c0.7,0,1,0.3,1,1v8.4c0,0.2,0.1,0.3,0.3,0.3h0.6v1.3h-1.5
		c-0.7,0-1-0.3-1-1V248.7z"/>
	<path class="st4" d="M123.7,248.7c0-0.2-0.1-0.3-0.3-0.3h-0.6v-1.3h1.5c0.7,0,1,0.3,1,1v8.4c0,0.2,0.1,0.3,0.3,0.3h0.6v1.3h-1.5
		c-0.7,0-1-0.3-1-1V248.7z"/>
	<path class="st4" d="M133.5,253.2h0.3v-0.1c0-1.4-0.5-1.9-1.8-1.9c-0.4,0-1.3,0.1-1.3,0.6v0.5h-1.4v-0.8c0-1.3,2-1.5,2.7-1.5
		c2.6,0,3.3,1.3,3.3,3.1v3.4c0,0.2,0.1,0.3,0.3,0.3h0.6v1.3h-1.4c-0.7,0-1-0.3-1-0.9c0-0.3,0-0.5,0-0.5h0c0,0-0.6,1.6-2.5,1.6
		c-1.4,0-2.7-0.8-2.7-2.4C128.7,253.3,132.2,253.2,133.5,253.2z M131.8,257.1c1.3,0,2.1-1.3,2.1-2.5v-0.3h-0.4
		c-1.1,0-3.2,0.1-3.2,1.5C130.3,256.5,130.8,257.1,131.8,257.1z"/>
	<path class="st4" d="M145.2,255.9c0,0,0.9,1.2,2.4,1.2c0.7,0,1.4-0.3,1.4-1c0-1.4-4.3-1.3-4.3-3.8c0-1.5,1.3-2.2,2.9-2.2
		c1,0,2.6,0.3,2.6,1.5v0.8h-1.4v-0.4c0-0.5-0.7-0.7-1.2-0.7c-0.9,0-1.5,0.3-1.5,0.9c0,1.5,4.3,1.2,4.3,3.8c0,1.4-1.3,2.3-2.9,2.3
		c-2.1,0-3.2-1.4-3.2-1.4L145.2,255.9z"/>
	<path class="st4" d="M157.6,250c2.4,0,4.3,1.7,4.3,4.1c0,2.4-1.9,4.2-4.3,4.2c-2.4,0-4.3-1.8-4.3-4.2
		C153.3,251.7,155.2,250,157.6,250z M157.6,257c1.5,0,2.7-1.2,2.7-2.9c0-1.6-1.2-2.8-2.7-2.8c-1.5,0-2.7,1.2-2.7,2.8
		C154.8,255.8,156.1,257,157.6,257z"/>
	<path class="st4" d="M168.8,250c1,0,2.9,0.4,2.9,1.7v0.8h-1.4v-0.4c0-0.6-0.9-0.8-1.5-0.8c-1.6,0-2.7,1.2-2.7,2.8
		c0,1.8,1.3,2.8,2.8,2.8c1.5,0,2.5-1.1,2.5-1.1l0.7,1.1c0,0-1.1,1.4-3.2,1.4c-2.5,0-4.2-1.8-4.2-4.2
		C164.5,251.8,166.2,250,168.8,250z"/>
	<path class="st4" d="M175.3,251.8c0-0.2-0.1-0.3-0.3-0.3h-0.6v-1.3h1.5c0.7,0,1,0.3,1,1v5.3c0,0.2,0.1,0.3,0.3,0.3h0.6v1.3h-1.5
		c-0.7,0-1-0.3-1-1V251.8z M175.3,247.1h1.4v1.6h-1.4V247.1z"/>
	<path class="st4" d="M185.1,253.2h0.3v-0.1c0-1.4-0.5-1.9-1.8-1.9c-0.4,0-1.3,0.1-1.3,0.6v0.5H181v-0.8c0-1.3,2-1.5,2.7-1.5
		c2.6,0,3.3,1.3,3.3,3.1v3.4c0,0.2,0.1,0.3,0.3,0.3h0.6v1.3h-1.4c-0.7,0-1-0.3-1-0.9c0-0.3,0-0.5,0-0.5h0c0,0-0.6,1.6-2.5,1.6
		c-1.4,0-2.7-0.8-2.7-2.4C180.3,253.3,183.8,253.2,185.1,253.2z M183.4,257.1c1.3,0,2.1-1.3,2.1-2.5v-0.3h-0.4
		c-1.1,0-3.2,0.1-3.2,1.5C181.9,256.5,182.4,257.1,183.4,257.1z"/>
	<path class="st4" d="M191.2,248.7c0-0.2-0.1-0.3-0.3-0.3h-0.6v-1.3h1.5c0.7,0,1,0.3,1,1v8.4c0,0.2,0.1,0.3,0.3,0.3h0.6v1.3h-1.5
		c-0.7,0-1-0.3-1-1V248.7z"/>
	<path class="st4" d="M99.3,267.5c0-0.2-0.1-0.3-0.3-0.3h-0.6v-1.3h1.5c0.7,0,1,0.3,1,1v5.3c0,0.2,0.1,0.3,0.3,0.3h0.6v1.3h-1.5
		c-0.7,0-1-0.3-1-1V267.5z M99.3,262.7h1.4v1.6h-1.4V262.7z"/>
	<path class="st4" d="M105.1,267.5c0-0.2-0.1-0.3-0.3-0.3h-0.6v-1.3h1.5c0.7,0,1,0.3,1,0.9v0.3c0,0.3,0,0.5,0,0.5h0
		c0.3-0.7,1.3-1.8,3-1.8c1.9,0,2.7,1,2.7,3v3.4c0,0.2,0.1,0.3,0.3,0.3h0.6v1.3h-1.5c-0.7,0-1-0.3-1-1v-3.7c0-1.1-0.2-2-1.5-2
		c-1.2,0-2.2,0.8-2.5,1.9c-0.1,0.3-0.1,0.7-0.1,1.1v3.7h-1.5V267.5z"/>
	<path class="st4" d="M116.5,267.5c0-0.2-0.1-0.3-0.3-0.3h-0.6v-1.3h1.5c0.7,0,1,0.3,1,0.9v0.3c0,0.3,0,0.5,0,0.5h0
		c0.3-0.7,1.3-1.8,3-1.8c1.9,0,2.7,1,2.7,3v3.4c0,0.2,0.1,0.3,0.3,0.3h0.6v1.3h-1.5c-0.7,0-1-0.3-1-1v-3.7c0-1.1-0.2-2-1.5-2
		c-1.2,0-2.2,0.8-2.5,1.9c-0.1,0.3-0.1,0.7-0.1,1.1v3.7h-1.5V267.5z"/>
	<path class="st4" d="M131.3,265.7c2.4,0,4.3,1.7,4.3,4.1c0,2.4-1.9,4.2-4.3,4.2c-2.4,0-4.3-1.8-4.3-4.2
		C127.1,267.4,129,265.7,131.3,265.7z M131.3,272.7c1.5,0,2.7-1.2,2.7-2.9c0-1.6-1.2-2.8-2.7-2.8c-1.5,0-2.7,1.2-2.7,2.8
		C128.6,271.5,129.8,272.7,131.3,272.7z"/>
	<path class="st4" d="M138.4,267.5c-0.1-0.2-0.2-0.3-0.5-0.3h-0.2v-1.3h0.8c0.7,0,1,0.2,1.2,0.8l1.7,4.6c0.2,0.4,0.3,1,0.3,1h0
		c0,0,0.1-0.6,0.3-1l1.7-4.6c0.2-0.6,0.5-0.8,1.2-0.8h0.7v1.3h-0.2c-0.3,0-0.4,0.1-0.5,0.3l-2.4,6.3h-1.8L138.4,267.5z"/>
	<path class="st4" d="M152.8,268.9h0.3v-0.1c0-1.4-0.5-1.9-1.8-1.9c-0.4,0-1.3,0.1-1.3,0.6v0.5h-1.4v-0.8c0-1.3,2-1.5,2.7-1.5
		c2.6,0,3.3,1.3,3.3,3.1v3.4c0,0.2,0.1,0.3,0.3,0.3h0.6v1.3h-1.4c-0.7,0-1-0.3-1-0.9c0-0.3,0-0.5,0-0.5h0c0,0-0.6,1.6-2.5,1.6
		c-1.4,0-2.7-0.8-2.7-2.4C148,269,151.5,268.9,152.8,268.9z M151,272.8c1.3,0,2.1-1.3,2.1-2.5V270h-0.4c-1.1,0-3.2,0.1-3.2,1.5
		C149.5,272.1,150,272.8,151,272.8z"/>
	<path class="st4" d="M158.9,267.1h-1v-1.2h1.1v-2.2h1.5v2.2h1.9v1.2h-1.9v3.6c0,1.6,1.1,1.8,1.7,1.8c0.2,0,0.4,0,0.4,0v1.3
		c0,0-0.2,0-0.5,0c-1,0-3-0.3-3-3V267.1z"/>
	<path class="st4" d="M166,267.5c0-0.2-0.1-0.3-0.3-0.3H165v-1.3h1.5c0.7,0,1,0.3,1,1v5.3c0,0.2,0.1,0.3,0.3,0.3h0.6v1.3H167
		c-0.7,0-1-0.3-1-1V267.5z M166.1,262.7h1.4v1.6h-1.4V262.7z"/>
	<path class="st4" d="M175.3,265.7c2.4,0,4.3,1.7,4.3,4.1c0,2.4-1.9,4.2-4.3,4.2c-2.4,0-4.3-1.8-4.3-4.2
		C171.1,267.4,172.9,265.7,175.3,265.7z M175.3,272.7c1.5,0,2.7-1.2,2.7-2.9c0-1.6-1.2-2.8-2.7-2.8c-1.5,0-2.7,1.2-2.7,2.8
		C172.6,271.5,173.8,272.7,175.3,272.7z"/>
	<path class="st4" d="M183.1,267.5c0-0.2-0.1-0.3-0.3-0.3h-0.6v-1.3h1.5c0.7,0,1,0.3,1,0.9v0.3c0,0.3,0,0.5,0,0.5h0
		c0.3-0.7,1.3-1.8,3-1.8c1.9,0,2.7,1,2.7,3v3.4c0,0.2,0.1,0.3,0.3,0.3h0.6v1.3h-1.5c-0.7,0-1-0.3-1-1v-3.7c0-1.1-0.2-2-1.5-2
		c-1.2,0-2.2,0.8-2.5,1.9c-0.1,0.3-0.1,0.7-0.1,1.1v3.7h-1.5V267.5z"/>
</g>
<g>
	<path class="st3" d="M374.7,107h5.7v-6.3h2.1v6.3h5.7v2h-5.7v6.3h-2.1V109h-5.7V107z"/>
	<path class="st3" d="M402,102.2c0-1.7-1.2-2.9-3.2-2.9c-1.6,0-2.8,0.8-2.8,1.7v0.8h-2.4v-1.5c0-2.4,3.1-3.3,5.2-3.3
		c3.3,0,5.7,2.1,5.7,5.2c0,6.2-9.1,6.3-9.1,10.5c0,0.4,0.2,0.5,0.6,0.5h6.4c0.4,0,0.6-0.2,0.6-0.6v-1.1h2.4v2.3
		c0,1.1-0.5,1.6-1.6,1.6h-9.2c-1.4,0-1.7-0.6-1.7-2.1C392.8,106.6,402,107,402,102.2z"/>
	<path class="st3" d="M410.3,106.2c0-5.2,1.6-9.3,6.4-9.3c4.8,0,6.4,4.1,6.4,9.3c0,5.2-1.6,9.4-6.4,9.4
		C411.9,115.6,410.3,111.5,410.3,106.2z M420.5,106.2c0-3.9-0.8-7-3.8-7c-3,0-3.8,3.1-3.8,7c0,3.9,0.8,7,3.8,7
		C419.7,113.3,420.5,110.2,420.5,106.2z"/>
	<path class="st3" d="M333.2,128.8c3.2,0,4.1,2,4.1,2h0.1c0,0,0-0.2,0-0.4c0-0.8,0.4-1.3,1.4-1.3h2.4v2.1h-1c-0.3,0-0.6,0.2-0.6,0.5
		v9.8c0,4.3-3.2,5.9-6.5,5.9c-1.6,0-3.1-0.4-4.4-1.1l0.8-2c0,0,1.6,0.9,3.5,0.9c2.2,0,4.1-1,4.1-3.6v-0.9c0-0.4,0.1-0.8,0.1-0.8
		h-0.1c-0.8,1.3-2,2-3.9,2c-3.6,0-5.8-2.9-5.8-6.6C327.5,131.6,329.6,128.8,333.2,128.8z M337.2,135.3c0-3.4-1.7-4.3-3.7-4.3
		c-2.2,0-3.5,1.6-3.5,4.3c0,2.7,1.4,4.5,3.7,4.5C335.5,139.8,337.2,138.7,337.2,135.3z"/>
	<path class="st3" d="M346.6,131.8c0-0.4-0.2-0.6-0.6-0.6h-1v-2.1h2.4c1.1,0,1.6,0.5,1.6,1.6v8.6c0,0.4,0.2,0.6,0.6,0.6h1v2.1h-2.4
		c-1.1,0-1.6-0.5-1.6-1.6V131.8z M346.7,124h2.2v2.6h-2.2V124z"/>
	<path class="st3" d="M361.8,128.8c3.9,0,7,2.8,7,6.7c0,3.9-3.1,6.8-7,6.8s-7-2.9-7-6.8C354.8,131.7,357.9,128.8,361.8,128.8z
		 M361.8,140.2c2.5,0,4.4-1.9,4.4-4.7c0-2.7-2-4.6-4.4-4.6c-2.4,0-4.4,1.9-4.4,4.6C357.3,138.3,359.3,140.2,361.8,140.2z"/>
	<path class="st3" d="M374.4,131.8c0-0.4-0.2-0.6-0.6-0.6h-1v-2.1h2.4c1.1,0,1.7,0.5,1.7,1.5v0.8c0,0.5-0.1,0.9-0.1,0.9h0.1
		c0.6-1.9,2.1-3.4,4.1-3.4c0.3,0,0.7,0.1,0.7,0.1v2.5c0,0-0.3-0.1-0.7-0.1c-1.6,0-3,1.1-3.6,3c-0.2,0.7-0.3,1.5-0.3,2.3v5.3h-2.5
		V131.8z"/>
	<path class="st3" d="M387,131.8c0-0.4-0.2-0.6-0.6-0.6h-1v-2.1h2.4c1.1,0,1.6,0.5,1.6,1.4v0.5c0,0.4-0.1,0.7-0.1,0.7h0.1
		c0.5-1.1,2-3,4.9-3c3.1,0,4.4,1.7,4.4,5v5.6c0,0.4,0.2,0.6,0.6,0.6h1v2.1h-2.5c-1.1,0-1.6-0.5-1.6-1.6v-6.1c0-1.8-0.4-3.2-2.4-3.2
		c-2,0-3.6,1.3-4.1,3.2c-0.2,0.5-0.2,1.1-0.2,1.7v6.1H387V131.8z"/>
	<path class="st3" d="M412.1,134h0.6v-0.1c0-2.3-0.8-3.1-2.9-3.1c-0.6,0-2.1,0.2-2.1,1v0.7h-2.3v-1.3c0-2.1,3.2-2.4,4.5-2.4
		c4.2,0,5.3,2.2,5.3,5.1v5.5c0,0.4,0.2,0.6,0.6,0.6h1v2.1h-2.3c-1.1,0-1.6-0.6-1.6-1.5c0-0.4,0.1-0.8,0.1-0.8h-0.1
		c0,0-1,2.6-4.1,2.6c-2.2,0-4.4-1.4-4.4-3.9C404.3,134.3,410,134,412.1,134z M409.3,140.4c2.1,0,3.4-2.2,3.4-4.1v-0.4h-0.6
		c-1.9,0-5.2,0.1-5.2,2.5C406.8,139.4,407.6,140.4,409.3,140.4z"/>
	<path class="st3" d="M422,126.7c0-0.4-0.2-0.6-0.6-0.6h-1V124h2.5c1.1,0,1.6,0.5,1.6,1.6v13.7c0,0.4,0.2,0.6,0.6,0.6h1v2.1h-2.5
		c-1.1,0-1.6-0.5-1.6-1.6V126.7z"/>
	<path class="st3" d="M431.5,131.8c0-0.4-0.2-0.6-0.6-0.6h-1v-2.1h2.4c1.1,0,1.6,0.5,1.6,1.6v8.6c0,0.4,0.2,0.6,0.6,0.6h1v2.1h-2.4
		c-1.1,0-1.6-0.5-1.6-1.6V131.8z M431.6,124h2.2v2.6h-2.2V124z"/>
	<path class="st3" d="M440.8,138.4c0,0,1.5,1.9,3.9,1.9c1.2,0,2.2-0.5,2.2-1.7c0-2.3-7.1-2.1-7.1-6.2c0-2.5,2.2-3.6,4.8-3.6
		c1.6,0,4.2,0.5,4.2,2.5v1.2h-2.2v-0.6c0-0.8-1.1-1.1-1.9-1.1c-1.5,0-2.4,0.5-2.4,1.5c0,2.5,7.1,1.9,7.1,6.2c0,2.3-2,3.8-4.8,3.8
		c-3.4,0-5.2-2.3-5.2-2.3L440.8,138.4z"/>
	<path class="st3" d="M455.3,131.1h-1.7v-2h1.7v-3.6h2.4v3.6h3.1v2h-3.1v5.9c0,2.6,1.8,2.9,2.7,2.9c0.4,0,0.6-0.1,0.6-0.1v2.2
		c0,0-0.3,0.1-0.9,0.1c-1.6,0-4.9-0.5-4.9-4.8V131.1z"/>
	<path class="st3" d="M466.8,131.8c0-0.4-0.2-0.6-0.6-0.6h-1v-2.1h2.4c1.1,0,1.6,0.5,1.6,1.6v8.6c0,0.4,0.2,0.6,0.6,0.6h1v2.1h-2.4
		c-1.1,0-1.6-0.5-1.6-1.6V131.8z M466.9,124h2.2v2.6h-2.2V124z"/>
	<path class="st4" d="M323.3,152.1c1,0,2.9,0.4,2.9,1.8v0.8h-1.4v-0.4c0-0.6-0.9-0.8-1.5-0.8c-1.6,0-2.7,1.2-2.7,2.9
		c0,1.8,1.3,2.8,2.8,2.8c1.5,0,2.5-1.1,2.5-1.1l0.7,1.1c0,0-1.1,1.4-3.3,1.4c-2.5,0-4.3-1.8-4.3-4.2
		C319,154,320.7,152.1,323.3,152.1z"/>
	<path class="st4" d="M333.3,152.1c2.4,0,4.3,1.8,4.3,4.2c0,2.4-1.9,4.2-4.3,4.2c-2.4,0-4.3-1.8-4.3-4.2
		C329,153.9,330.9,152.1,333.3,152.1z M333.3,159.2c1.5,0,2.8-1.2,2.8-2.9c0-1.7-1.2-2.8-2.8-2.8c-1.5,0-2.7,1.2-2.7,2.8
		C330.5,158,331.8,159.2,333.3,159.2z"/>
	<path class="st4" d="M341.1,154c0-0.2-0.1-0.3-0.3-0.3h-0.6v-1.3h1.5c0.7,0,1,0.3,1,0.9v0.3c0,0.3,0,0.5,0,0.5h0
		c0.3-0.7,1.3-1.8,3-1.8c1.9,0,2.8,1,2.8,3.1v3.5c0,0.2,0.1,0.3,0.3,0.3h0.6v1.3h-1.5c-0.7,0-1-0.3-1-1v-3.8c0-1.1-0.2-2-1.5-2
		c-1.2,0-2.2,0.8-2.5,2c-0.1,0.3-0.1,0.7-0.1,1.1v3.7h-1.5V154z"/>
	<path class="st4" d="M358.4,154c0-0.2-0.1-0.3-0.3-0.3h-0.6v-1.3h1.5c0.7,0,1,0.3,1,1v3.8c0,1.1,0.2,2,1.5,2c1.6,0,2.6-1.4,2.6-3
		v-3.7h1.5v6.3c0,0.2,0.1,0.3,0.3,0.3h0.6v1.3h-1.5c-0.7,0-1-0.3-1-0.9v-0.3c0-0.3,0-0.5,0-0.5h0c-0.3,0.8-1.4,1.8-2.9,1.8
		c-1.8,0-2.7-0.9-2.7-3.1V154z"/>
	<path class="st4" d="M369.8,154c0-0.2-0.1-0.3-0.3-0.3h-0.6v-1.3h1.5c0.7,0,1,0.3,1,0.9v0.3c0,0.3,0,0.5,0,0.5h0
		c0.3-0.7,1.3-1.8,3-1.8c1.9,0,2.8,1,2.8,3.1v3.5c0,0.2,0.1,0.3,0.3,0.3h0.6v1.3h-1.5c-0.7,0-1-0.3-1-1v-3.8c0-1.1-0.2-2-1.5-2
		c-1.2,0-2.2,0.8-2.5,2c-0.1,0.3-0.1,0.7-0.1,1.1v3.7h-1.5V154z"/>
	<path class="st4" d="M385.4,155.3h0.3v-0.1c0-1.4-0.5-1.9-1.8-1.9c-0.4,0-1.3,0.1-1.3,0.6v0.5h-1.4v-0.8c0-1.3,2-1.5,2.8-1.5
		c2.6,0,3.3,1.4,3.3,3.1v3.4c0,0.2,0.1,0.3,0.3,0.3h0.6v1.3h-1.4c-0.7,0-1-0.3-1-0.9c0-0.3,0-0.5,0-0.5h0c0,0-0.6,1.6-2.5,1.6
		c-1.4,0-2.7-0.8-2.7-2.4C380.6,155.5,384,155.3,385.4,155.3z M383.6,159.3c1.3,0,2.1-1.4,2.1-2.5v-0.3h-0.4c-1.2,0-3.2,0.1-3.2,1.5
		C382.1,158.6,382.6,159.3,383.6,159.3z"/>
	<path class="st4" d="M398.4,151.5c1,0,2.9,0.4,2.9,1.8v0.8h-1.4v-0.4c0-0.6-0.9-0.8-1.5-0.8c-1.6,0-2.7,1.2-2.7,2.9
		c0,1.8,1.3,2.8,2.8,2.8c1.5,0,2.5-1.1,2.5-1.1l0.7,1.1c0,0-1.1,1.4-3.3,1.4c-2.5,0-4.3-1.8-4.3-4.2
		C394.1,153.4,395.8,151.5,398.4,151.5z"/>
	<path class="st4" d="M408.4,151.5c2.4,0,4.3,1.8,4.3,4.2c0,2.4-1.9,4.2-4.3,4.2c-2.4,0-4.3-1.8-4.3-4.2
		C404.1,153.3,406,151.5,408.4,151.5z M408.4,158.6c1.5,0,2.8-1.2,2.8-2.9c0-1.7-1.2-2.8-2.8-2.8c-1.5,0-2.7,1.2-2.7,2.8
		C405.6,157.4,406.9,158.6,408.4,158.6z"/>
	<path class="st4" d="M416.2,153.4c0-0.2-0.1-0.3-0.3-0.3h-0.6v-1.3h1.4c0.7,0,1,0.3,1,0.8c0,0.2,0,0.4,0,0.4h0c0,0,0.7-1.4,2.7-1.4
		c2.2,0,3.5,1.7,3.5,4.2c0,2.5-1.6,4.2-3.6,4.2c-1.8,0-2.5-1.3-2.5-1.3h0c0,0,0,0.3,0,0.7v3.6h-1.5V153.4z M419.9,158.6
		c1.3,0,2.3-1,2.3-2.9c0-1.7-0.9-2.9-2.3-2.9c-1.2,0-2.3,0.8-2.3,2.9C417.7,157.2,418.4,158.6,419.9,158.6z"/>
	<path class="st4" d="M430.6,151.5c2.2,0,3.4,1.7,3.4,3.7c0,0.2,0,0.6,0,0.6h-5.8c0.1,1.7,1.3,2.7,2.8,2.7c1.4,0,2.3-0.9,2.3-0.9
		l0.7,1.1c0,0-1.2,1.2-3.1,1.2c-2.5,0-4.3-1.8-4.3-4.2C426.5,153.2,428.3,151.5,430.6,151.5z M432.4,154.8c0-1.3-0.9-2-1.9-2
		c-1.2,0-2.1,0.7-2.4,2H432.4z"/>
	<path class="st4" d="M437.6,153.4c0-0.2-0.1-0.3-0.3-0.3h-0.6v-1.3h1.5c0.7,0,1,0.3,1,0.9v0.5c0,0.3,0,0.6,0,0.6h0
		c0.4-1.2,1.3-2.1,2.5-2.1c0.2,0,0.4,0,0.4,0v1.5c0,0-0.2,0-0.5,0c-1,0-1.9,0.7-2.2,1.9c-0.1,0.5-0.2,0.9-0.2,1.4v3.3h-1.5V153.4z"
		/>
	<path class="st4" d="M445.4,153h-1v-1.2h1.1v-2.2h1.5v2.2h1.9v1.2h-1.9v3.7c0,1.6,1.1,1.8,1.7,1.8c0.2,0,0.4,0,0.4,0v1.4
		c0,0-0.2,0-0.5,0c-1,0-3.1-0.3-3.1-3V153z"/>
	<path class="st4" d="M452.5,153.4c0-0.2-0.1-0.3-0.3-0.3h-0.6v-1.3h1.5c0.7,0,1,0.3,1,1v3.8c0,1.1,0.2,2,1.5,2c1.6,0,2.6-1.4,2.6-3
		v-3.7h1.5v6.3c0,0.2,0.1,0.3,0.3,0.3h0.6v1.3h-1.5c-0.7,0-1-0.3-1-0.9v-0.3c0-0.3,0-0.5,0-0.5h0c-0.3,0.8-1.4,1.8-2.9,1.8
		c-1.8,0-2.7-0.9-2.7-3.1V153.4z"/>
	<path class="st4" d="M463.9,153.4c0-0.2-0.1-0.3-0.3-0.3h-0.6v-1.3h1.5c0.7,0,1,0.3,1,0.9v0.5c0,0.3,0,0.6,0,0.6h0
		c0.4-1.2,1.3-2.1,2.5-2.1c0.2,0,0.4,0,0.4,0v1.5c0,0-0.2,0-0.5,0c-1,0-1.9,0.7-2.2,1.9c-0.1,0.5-0.2,0.9-0.2,1.4v3.3h-1.5V153.4z"
		/>
	<path class="st4" d="M475.2,154.8h0.3v-0.1c0-1.4-0.5-1.9-1.8-1.9c-0.4,0-1.3,0.1-1.3,0.6v0.5H471V153c0-1.3,2-1.5,2.8-1.5
		c2.6,0,3.3,1.4,3.3,3.1v3.4c0,0.2,0.1,0.3,0.3,0.3h0.6v1.3h-1.4c-0.7,0-1-0.3-1-0.9c0-0.3,0-0.5,0-0.5h0c0,0-0.6,1.6-2.5,1.6
		c-1.4,0-2.7-0.8-2.7-2.4C470.3,154.9,473.8,154.8,475.2,154.8z M473.4,158.7c1.3,0,2.1-1.4,2.1-2.5v-0.3h-0.4
		c-1.2,0-3.2,0.1-3.2,1.5C471.9,158.1,472.4,158.7,473.4,158.7z"/>
	<path class="st4" d="M345.1,169.2c0-0.2-0.1-0.3-0.3-0.3h-0.6v-1.3h1.5c0.7,0,1,0.3,1,0.9v0.3c0,0.3,0,0.5,0,0.5h0
		c0.4-0.9,1.5-1.8,2.7-1.8c1.4,0,2.1,0.6,2.4,1.8h0c0.4-1,1.6-1.8,2.8-1.8c1.8,0,2.6,1,2.6,3.1v3.5c0,0.2,0.1,0.3,0.3,0.3h0.6v1.3
		h-1.5c-0.7,0-1-0.3-1-1v-3.8c0-1.1-0.2-2-1.4-2c-1.1,0-2,1-2.2,2.1c-0.1,0.3-0.1,0.7-0.1,1.1v3.7h-1.5v-4.8c0-1-0.2-2-1.4-2
		c-1.2,0-2,1-2.3,2.1c-0.1,0.3-0.1,0.7-0.1,1v3.7h-1.5V169.2z"/>
	<path class="st4" d="M364.7,167.4c2.2,0,3.4,1.7,3.4,3.7c0,0.2,0,0.6,0,0.6h-5.8c0.1,1.7,1.3,2.7,2.8,2.7c1.4,0,2.3-0.9,2.3-0.9
		l0.7,1.1c0,0-1.2,1.2-3.1,1.2c-2.5,0-4.3-1.8-4.3-4.2C360.7,169,362.4,167.4,364.7,167.4z M366.6,170.6c0-1.3-0.9-2-1.9-2
		c-1.2,0-2.1,0.7-2.4,2H366.6z"/>
	<path class="st4" d="M374.7,167.4c1.9,0,2.5,1.2,2.5,1.2h0c0,0,0-0.2,0-0.5v-2c0-0.2-0.1-0.3-0.3-0.3h-0.6v-1.3h1.5
		c0.7,0,1,0.3,1,1v8.5c0,0.2,0.1,0.3,0.3,0.3h0.6v1.3h-1.5c-0.7,0-1-0.3-1-0.9c0-0.2,0-0.4,0-0.4h0c0,0-0.7,1.5-2.6,1.5
		c-2.2,0-3.5-1.7-3.5-4.2C371,169,372.5,167.4,374.7,167.4z M377.2,171.6c0-1.4-0.7-2.8-2.3-2.8c-1.2,0-2.3,1-2.3,2.9
		c0,1.7,0.9,2.9,2.3,2.9C376.1,174.4,377.2,173.6,377.2,171.6z"/>
	<path class="st4" d="M383,169.2c0-0.2-0.1-0.3-0.3-0.3H382v-1.3h1.5c0.7,0,1,0.3,1,1v5.3c0,0.2,0.1,0.3,0.3,0.3h0.6v1.3H384
		c-0.7,0-1-0.3-1-1V169.2z M383.1,164.4h1.4v1.6h-1.4V164.4z"/>
	<path class="st4" d="M392.9,170.6h0.3v-0.1c0-1.4-0.5-1.9-1.8-1.9c-0.4,0-1.3,0.1-1.3,0.6v0.5h-1.4v-0.8c0-1.3,2-1.5,2.8-1.5
		c2.6,0,3.3,1.4,3.3,3.1v3.4c0,0.2,0.1,0.3,0.3,0.3h0.6v1.3h-1.4c-0.7,0-1-0.3-1-0.9c0-0.3,0-0.5,0-0.5h0c0,0-0.6,1.6-2.5,1.6
		c-1.4,0-2.7-0.8-2.7-2.4C388.1,170.8,391.6,170.6,392.9,170.6z M391.2,174.5c1.3,0,2.1-1.4,2.1-2.5v-0.3h-0.4
		c-1.2,0-3.2,0.1-3.2,1.5C389.7,173.9,390.2,174.5,391.2,174.5z"/>
	<path class="st4" d="M404.9,166.1c0-0.2-0.1-0.3-0.3-0.3h-0.6v-1.3h1.5c0.7,0,1,0.3,1,1v8.5c0,0.2,0.1,0.3,0.3,0.3h0.6v1.3h-1.5
		c-0.7,0-1-0.3-1-1V166.1z"/>
	<path class="st4" d="M414.3,167.4c2.4,0,4.3,1.8,4.3,4.2c0,2.4-1.9,4.2-4.3,4.2c-2.4,0-4.3-1.8-4.3-4.2
		C409.9,169.1,411.9,167.4,414.3,167.4z M414.3,174.4c1.5,0,2.8-1.2,2.8-2.9c0-1.7-1.2-2.8-2.8-2.8c-1.5,0-2.7,1.2-2.7,2.8
		C411.5,173.2,412.7,174.4,414.3,174.4z"/>
	<path class="st4" d="M425.6,167.4c1,0,2.9,0.4,2.9,1.8v0.8h-1.4v-0.4c0-0.6-0.9-0.8-1.5-0.8c-1.6,0-2.7,1.2-2.7,2.9
		c0,1.8,1.3,2.8,2.8,2.8c1.5,0,2.5-1.1,2.5-1.1l0.7,1.1c0,0-1.1,1.4-3.3,1.4c-2.5,0-4.3-1.8-4.3-4.2
		C421.3,169.2,423,167.4,425.6,167.4z"/>
	<path class="st4" d="M436.1,170.6h0.3v-0.1c0-1.4-0.5-1.9-1.8-1.9c-0.4,0-1.3,0.1-1.3,0.6v0.5H432v-0.8c0-1.3,2-1.5,2.8-1.5
		c2.6,0,3.3,1.4,3.3,3.1v3.4c0,0.2,0.1,0.3,0.3,0.3h0.6v1.3h-1.4c-0.7,0-1-0.3-1-0.9c0-0.3,0-0.5,0-0.5h0c0,0-0.6,1.6-2.5,1.6
		c-1.4,0-2.7-0.8-2.7-2.4C431.3,170.8,434.8,170.6,436.1,170.6z M434.4,174.5c1.3,0,2.1-1.4,2.1-2.5v-0.3h-0.4
		c-1.2,0-3.2,0.1-3.2,1.5C432.9,173.9,433.4,174.5,434.4,174.5z"/>
	<path class="st4" d="M442.2,166.1c0-0.2-0.1-0.3-0.3-0.3h-0.6v-1.3h1.5c0.7,0,1,0.3,1,1v8.5c0,0.2,0.1,0.3,0.3,0.3h0.6v1.3h-1.5
		c-0.7,0-1-0.3-1-1V166.1z"/>
	<path class="st4" d="M451.3,167.4c2.2,0,3.4,1.7,3.4,3.7c0,0.2,0,0.6,0,0.6h-5.8c0.1,1.7,1.3,2.7,2.8,2.7c1.4,0,2.3-0.9,2.3-0.9
		l0.7,1.1c0,0-1.2,1.2-3.1,1.2c-2.5,0-4.3-1.8-4.3-4.2C447.3,169,449.1,167.4,451.3,167.4z M453.2,170.6c0-1.3-0.9-2-1.9-2
		c-1.2,0-2.1,0.7-2.4,2H453.2z"/>
	<path class="st4" d="M352,183c2.2,0,3.4,1.7,3.4,3.7c0,0.2,0,0.6,0,0.6h-5.8c0.1,1.7,1.3,2.7,2.8,2.7c1.4,0,2.3-0.9,2.3-0.9
		l0.7,1.1c0,0-1.2,1.2-3.1,1.2c-2.5,0-4.3-1.8-4.3-4.2C348,184.7,349.7,183,352,183z M353.9,186.3c0-1.3-0.9-2-1.9-2
		c-1.2,0-2.1,0.7-2.4,2H353.9z"/>
	<path class="st4" d="M364.9,184.9c0-0.2-0.1-0.3-0.3-0.3h-0.6v-1.3h1.5c0.7,0,1,0.3,1,0.9v0.3c0,0.3,0,0.5,0,0.5h0
		c0.3-0.7,1.3-1.8,3-1.8c1.9,0,2.8,1,2.8,3.1v3.5c0,0.2,0.1,0.3,0.3,0.3h0.6v1.3h-1.5c-0.7,0-1-0.3-1-1v-3.8c0-1.1-0.2-2-1.5-2
		c-1.2,0-2.2,0.8-2.5,2c-0.1,0.3-0.1,0.7-0.1,1.1v3.7h-1.5V184.9z"/>
	<path class="st4" d="M380.5,186.2h0.3v-0.1c0-1.4-0.5-1.9-1.8-1.9c-0.4,0-1.3,0.1-1.3,0.6v0.5h-1.4v-0.8c0-1.3,2-1.5,2.8-1.5
		c2.6,0,3.3,1.4,3.3,3.1v3.4c0,0.2,0.1,0.3,0.3,0.3h0.6v1.3h-1.4c-0.7,0-1-0.3-1-0.9c0-0.3,0-0.5,0-0.5h0c0,0-0.6,1.6-2.5,1.6
		c-1.4,0-2.7-0.8-2.7-2.4C375.7,186.4,379.1,186.2,380.5,186.2z M378.7,190.2c1.3,0,2.1-1.4,2.1-2.5v-0.3h-0.4
		c-1.2,0-3.2,0.1-3.2,1.5C377.2,189.5,377.7,190.2,378.7,190.2z"/>
	<path class="st4" d="M385.8,190.3l4.1-5.1c0.3-0.4,0.7-0.7,0.7-0.7v0c0,0-0.3,0-0.8,0h-2.2c-0.2,0-0.3,0.1-0.3,0.3v0.5h-1.4v-1.2
		c0-0.7,0.3-1,1-1h5.7v0.9l-4.1,5.1c-0.3,0.4-0.7,0.7-0.7,0.7v0c0,0,0.3,0,0.8,0h2.6c0.2,0,0.3-0.1,0.3-0.3V189h1.4v1.2
		c0,0.7-0.3,1-1,1h-6.1V190.3z"/>
	<path class="st4" d="M396.3,184.9c0-0.2-0.1-0.3-0.3-0.3h-0.6v-1.3h1.5c0.7,0,1,0.3,1,1v5.3c0,0.2,0.1,0.3,0.3,0.3h0.6v1.3h-1.5
		c-0.7,0-1-0.3-1-1V184.9z M396.3,180h1.4v1.6h-1.4V180z"/>
	<path class="st4" d="M405.6,183c2.4,0,4.3,1.8,4.3,4.2c0,2.4-1.9,4.2-4.3,4.2c-2.4,0-4.3-1.8-4.3-4.2
		C401.3,184.8,403.2,183,405.6,183z M405.6,190.1c1.5,0,2.8-1.2,2.8-2.9c0-1.7-1.2-2.8-2.8-2.8c-1.5,0-2.7,1.2-2.7,2.8
		C402.9,188.9,404.1,190.1,405.6,190.1z"/>
	<path class="st4" d="M413.4,184.9c0-0.2-0.1-0.3-0.3-0.3h-0.6v-1.3h1.5c0.7,0,1,0.3,1,0.9v0.3c0,0.3,0,0.5,0,0.5h0
		c0.3-0.7,1.3-1.8,3-1.8c1.9,0,2.8,1,2.8,3.1v3.5c0,0.2,0.1,0.3,0.3,0.3h0.6v1.3h-1.5c-0.7,0-1-0.3-1-1v-3.8c0-1.1-0.2-2-1.5-2
		c-1.2,0-2.2,0.8-2.5,2c-0.1,0.3-0.1,0.7-0.1,1.1v3.7h-1.5V184.9z"/>
	<path class="st4" d="M429,186.2h0.3v-0.1c0-1.4-0.5-1.9-1.8-1.9c-0.4,0-1.3,0.1-1.3,0.6v0.5h-1.4v-0.8c0-1.3,2-1.5,2.8-1.5
		c2.6,0,3.3,1.4,3.3,3.1v3.4c0,0.2,0.1,0.3,0.3,0.3h0.6v1.3h-1.4c-0.7,0-1-0.3-1-0.9c0-0.3,0-0.5,0-0.5h0c0,0-0.6,1.6-2.5,1.6
		c-1.4,0-2.7-0.8-2.7-2.4C424.2,186.4,427.6,186.2,429,186.2z M427.2,190.2c1.3,0,2.1-1.4,2.1-2.5v-0.3H429c-1.2,0-3.2,0.1-3.2,1.5
		C425.7,189.5,426.2,190.2,427.2,190.2z"/>
	<path class="st4" d="M435.1,181.7c0-0.2-0.1-0.3-0.3-0.3h-0.6V180h1.5c0.7,0,1,0.3,1,1v8.5c0,0.2,0.1,0.3,0.3,0.3h0.6v1.3h-1.5
		c-0.7,0-1-0.3-1-1V181.7z"/>
	<path class="st4" d="M444.2,183c2.2,0,3.4,1.7,3.4,3.7c0,0.2,0,0.6,0,0.6h-5.8c0.1,1.7,1.3,2.7,2.8,2.7c1.4,0,2.3-0.9,2.3-0.9
		l0.7,1.1c0,0-1.2,1.2-3.1,1.2c-2.5,0-4.3-1.8-4.3-4.2C440.2,184.7,441.9,183,444.2,183z M446,186.3c0-1.3-0.9-2-1.9-2
		c-1.2,0-2.1,0.7-2.4,2H446z"/>
</g>
<g>
	<path class="st3" d="M626.2,98.4h3.9V86.9c0-0.6,0-1.1,0-1.1h-0.1c0,0-0.2,0.4-0.8,1l-1.7,1.6l-1.5-1.6l4.3-4.1h2.3v15.6h3.9v2.2
		h-10.3V98.4z"/>
	<path class="st3" d="M641.8,96.5c0,0,1.8,2,4.5,2c1.9,0,3.5-1.3,3.5-3.3c0-2-1.8-3.2-3.8-3.2h-1.3l-0.5-1.3l3.7-4.7
		c0.5-0.8,1-1.2,1-1.2v-0.1c0,0-0.5,0.1-1.5,0.1H644c-0.4,0-0.6,0.2-0.6,0.6v1.1h-2.3v-2.2c0-1.1,0.4-1.6,1.5-1.6h9.4v1.6l-4.7,5.7
		c2.3,0.3,5,1.8,5,5.2c0,3-2.4,5.7-6.1,5.7c-3.7,0-5.9-2.5-5.9-2.5L641.8,96.5z"/>
	<path class="st3" d="M657.3,91.7c0-5.1,1.5-9.2,6.3-9.2c4.7,0,6.3,4.1,6.3,9.2c0,5.1-1.5,9.2-6.3,9.2
		C658.8,100.9,657.3,96.8,657.3,91.7z M667.3,91.7c0-3.9-0.8-6.9-3.7-6.9c-2.9,0-3.8,3-3.8,6.9c0,3.9,0.8,6.9,3.8,6.9
		C666.5,98.6,667.3,95.6,667.3,91.7z"/>
	<path class="st3" d="M565.2,116.9c0-0.4-0.2-0.6-0.6-0.6h-1v-2.1h2.3c1.1,0,1.6,0.5,1.6,1.3c0,0.4,0,0.7,0,0.7h0.1
		c0,0,1.1-2.3,4.2-2.3c3.4,0,5.6,2.7,5.6,6.7c0,4.1-2.5,6.7-5.8,6.7c-2.8,0-3.9-2-3.9-2h-0.1c0,0,0.1,0.5,0.1,1.1v5.7h-2.4V116.9z
		 M571.2,125.3c2,0,3.7-1.7,3.7-4.6c0-2.8-1.5-4.6-3.6-4.6c-1.9,0-3.7,1.3-3.7,4.6C567.6,123,568.8,125.3,571.2,125.3z"/>
	<path class="st3" d="M589.3,119.1h0.6V119c0-2.2-0.8-3.1-2.8-3.1c-0.6,0-2.1,0.2-2.1,1v0.7h-2.3v-1.3c0-2.1,3.2-2.4,4.4-2.4
		c4.1,0,5.2,2.2,5.2,5v5.4c0,0.4,0.2,0.6,0.6,0.6h1v2.1h-2.3c-1.1,0-1.6-0.6-1.6-1.5c0-0.4,0.1-0.8,0.1-0.8H590c0,0-1,2.5-4.1,2.5
		c-2.2,0-4.3-1.3-4.3-3.9C581.6,119.4,587.2,119.1,589.3,119.1z M586.5,125.4c2.1,0,3.4-2.2,3.4-4.1v-0.4h-0.6
		c-1.8,0-5.2,0.1-5.2,2.4C584.1,124.4,584.9,125.4,586.5,125.4z"/>
	<path class="st3" d="M599.1,116.9c0-0.4-0.2-0.6-0.6-0.6h-1v-2.1h2.3c1.1,0,1.6,0.5,1.6,1.5v0.8c0,0.5-0.1,0.9-0.1,0.9h0.1
		c0.6-1.9,2.1-3.3,4-3.3c0.3,0,0.7,0.1,0.7,0.1v2.4c0,0-0.3-0.1-0.7-0.1c-1.6,0-3,1.1-3.6,3c-0.2,0.7-0.3,1.5-0.3,2.3v5.2h-2.4
		V116.9z"/>
	<path class="st3" d="M611.5,116.3h-1.7v-2h1.7v-3.5h2.4v3.5h3.1v2h-3.1v5.9c0,2.5,1.8,2.9,2.7,2.9c0.4,0,0.6-0.1,0.6-0.1v2.2
		c0,0-0.3,0.1-0.9,0.1c-1.6,0-4.9-0.5-4.9-4.8V116.3z"/>
	<path class="st3" d="M627.7,114c3.6,0,5.5,2.7,5.5,6c0,0.3-0.1,1-0.1,1h-9.3c0.2,2.7,2.1,4.3,4.4,4.3c2.2,0,3.7-1.5,3.7-1.5
		l1.1,1.7c0,0-1.9,1.9-4.9,1.9c-4,0-6.8-2.9-6.8-6.7C621.3,116.6,624.1,114,627.7,114z M630.7,119.2c-0.1-2.1-1.4-3.3-3-3.3
		c-1.9,0-3.4,1.1-3.8,3.3H630.7z"/>
	<path class="st3" d="M644.6,114c1.5,0,4.6,0.6,4.6,2.8v1.3H647v-0.7c0-0.9-1.4-1.3-2.4-1.3c-2.5,0-4.4,1.9-4.4,4.6
		c0,2.9,2.1,4.5,4.5,4.5c2.4,0,4-1.8,4-1.8l1.1,1.7c0,0-1.8,2.2-5.2,2.2c-4,0-6.8-2.9-6.8-6.7C637.8,116.9,640.5,114,644.6,114z"/>
	<path class="st3" d="M655.1,116.9c0-0.4-0.2-0.6-0.6-0.6h-1v-2.1h2.4c1.1,0,1.6,0.5,1.6,1.6v8.5c0,0.4,0.2,0.6,0.6,0.6h1v2.1h-2.4
		c-1.1,0-1.6-0.5-1.6-1.6V116.9z M655.1,109.2h2.2v2.5h-2.2V109.2z"/>
	<path class="st3" d="M664.4,116.9c0-0.4-0.2-0.6-0.6-0.6h-1v-2.1h2.3c1.1,0,1.6,0.5,1.6,1.3c0,0.4,0,0.7,0,0.7h0.1
		c0,0,1.1-2.3,4.2-2.3c3.4,0,5.6,2.7,5.6,6.7c0,4.1-2.5,6.7-5.8,6.7c-2.8,0-3.9-2-3.9-2h-0.1c0,0,0.1,0.5,0.1,1.1v5.7h-2.4V116.9z
		 M670.4,125.3c2,0,3.7-1.7,3.7-4.6c0-2.8-1.5-4.6-3.6-4.6c-1.9,0-3.7,1.3-3.7,4.6C666.8,123,668,125.3,670.4,125.3z"/>
	<path class="st3" d="M688.5,119.1h0.6V119c0-2.2-0.8-3.1-2.8-3.1c-0.6,0-2.1,0.2-2.1,1v0.7h-2.3v-1.3c0-2.1,3.2-2.4,4.4-2.4
		c4.1,0,5.2,2.2,5.2,5v5.4c0,0.4,0.2,0.6,0.6,0.6h1v2.1h-2.3c-1.1,0-1.6-0.6-1.6-1.5c0-0.4,0.1-0.8,0.1-0.8h-0.1c0,0-1,2.5-4.1,2.5
		c-2.2,0-4.3-1.3-4.3-3.9C680.8,119.4,686.4,119.1,688.5,119.1z M685.7,125.4c2.1,0,3.4-2.2,3.4-4.1v-0.4h-0.6
		c-1.8,0-5.2,0.1-5.2,2.4C683.3,124.4,684.1,125.4,685.7,125.4z"/>
	<path class="st3" d="M698.3,116.9c0-0.4-0.2-0.6-0.6-0.6h-1v-2.1h2.3c1.1,0,1.6,0.5,1.6,1.4v0.5c0,0.4-0.1,0.7-0.1,0.7h0.1
		c0.5-1.1,2-2.9,4.8-2.9c3,0,4.4,1.6,4.4,4.9v5.5c0,0.4,0.2,0.6,0.6,0.6h1v2.1H709c-1.1,0-1.6-0.5-1.6-1.6v-6c0-1.8-0.4-3.2-2.4-3.2
		c-2,0-3.5,1.3-4,3.1c-0.2,0.5-0.2,1.1-0.2,1.7v6h-2.4V116.9z"/>
	<path class="st3" d="M716.7,116.3h-1.7v-2h1.7v-3.5h2.4v3.5h3.1v2h-3.1v5.9c0,2.5,1.8,2.9,2.7,2.9c0.4,0,0.6-0.1,0.6-0.1v2.2
		c0,0-0.3,0.1-0.9,0.1c-1.6,0-4.9-0.5-4.9-4.8V116.3z"/>
	<path class="st3" d="M728.2,116.9c0-0.4-0.2-0.6-0.6-0.6h-1v-2.1h2.4c1.1,0,1.6,0.5,1.6,1.6v8.5c0,0.4,0.2,0.6,0.6,0.6h1v2.1h-2.4
		c-1.1,0-1.6-0.5-1.6-1.6V116.9z M728.2,109.2h2.2v2.5h-2.2V109.2z"/>
	<path class="st4" d="M564.1,143.7h1.1v-8.3h-1.1V134h3.6v1.3h-1.1v8.3h1.1v1.3h-3.6V143.7z"/>
	<path class="st4" d="M571.2,142.9c0,0,0.9,1.2,2.4,1.2c0.7,0,1.4-0.3,1.4-1c0-1.4-4.3-1.3-4.3-3.8c0-1.5,1.3-2.2,2.9-2.2
		c1,0,2.6,0.3,2.6,1.5v0.7h-1.4v-0.4c0-0.5-0.7-0.7-1.2-0.7c-0.9,0-1.5,0.3-1.5,0.9c0,1.5,4.3,1.2,4.3,3.8c0,1.4-1.2,2.3-2.9,2.3
		c-2.1,0-3.2-1.4-3.2-1.4L571.2,142.9z"/>
	<path class="st4" d="M580,138.4h-1v-1.2h1.1V135h1.5v2.2h1.9v1.2h-1.9v3.6c0,1.6,1.1,1.8,1.7,1.8c0.2,0,0.4,0,0.4,0v1.3
		c0,0-0.2,0-0.5,0c-1,0-3-0.3-3-3V138.4z"/>
	<path class="st4" d="M587.1,138.8c0-0.2-0.1-0.3-0.3-0.3h-0.6v-1.3h1.5c0.7,0,1,0.3,1,1v5.3c0,0.2,0.1,0.3,0.3,0.3h0.6v1.3h-1.5
		c-0.7,0-1-0.3-1-1V138.8z M587.1,134h1.4v1.6h-1.4V134z"/>
	<path class="st4" d="M592.9,138.4h-1v-1.2h1.1V135h1.5v2.2h1.9v1.2h-1.9v3.6c0,1.6,1.1,1.8,1.7,1.8c0.2,0,0.4,0,0.4,0v1.3
		c0,0-0.2,0-0.5,0c-1,0-3-0.3-3-3V138.4z"/>
	<path class="st4" d="M599.9,138.8c0-0.2-0.1-0.3-0.3-0.3h-0.6v-1.3h1.5c0.7,0,1,0.3,1,1v3.7c0,1.1,0.2,2,1.5,2c1.6,0,2.6-1.4,2.6-3
		v-3.7h1.5v6.3c0,0.2,0.1,0.3,0.3,0.3h0.6v1.3h-1.5c-0.7,0-1-0.3-1-0.9v-0.3c0-0.3,0-0.5,0-0.5h0c-0.3,0.8-1.3,1.8-2.9,1.8
		c-1.8,0-2.7-0.9-2.7-3V138.8z"/>
	<path class="st4" d="M610.4,144.2l4-5c0.3-0.4,0.7-0.7,0.7-0.7v0c0,0-0.2,0-0.8,0h-2.2c-0.2,0-0.3,0.1-0.3,0.3v0.5h-1.4v-1.2
		c0-0.7,0.3-1,1-1h5.7v0.9l-4.1,5c-0.3,0.4-0.7,0.7-0.7,0.7v0c0,0,0.2,0,0.8,0h2.5c0.2,0,0.3-0.1,0.3-0.3v-0.5h1.4v1.2
		c0,0.7-0.3,1-1,1h-6V144.2z"/>
	<path class="st4" d="M620.7,138.8c0-0.2-0.1-0.3-0.3-0.3h-0.6v-1.3h1.5c0.7,0,1,0.3,1,1v5.3c0,0.2,0.1,0.3,0.3,0.3h0.6v1.3h-1.5
		c-0.7,0-1-0.3-1-1V138.8z M620.7,134h1.4v1.6h-1.4V134z"/>
	<path class="st4" d="M630,137c2.4,0,4.3,1.7,4.3,4.1c0,2.4-1.9,4.2-4.3,4.2s-4.2-1.7-4.2-4.2C625.7,138.7,627.6,137,630,137z
		 M630,144c1.5,0,2.7-1.2,2.7-2.8c0-1.6-1.2-2.8-2.7-2.8c-1.5,0-2.7,1.2-2.7,2.8C627.3,142.8,628.5,144,630,144z"/>
	<path class="st4" d="M637.7,138.8c0-0.2-0.1-0.3-0.3-0.3h-0.6v-1.3h1.5c0.7,0,1,0.3,1,0.9v0.3c0,0.3,0,0.5,0,0.5h0
		c0.3-0.7,1.2-1.8,3-1.8c1.9,0,2.7,1,2.7,3v3.4c0,0.2,0.1,0.3,0.3,0.3h0.6v1.3h-1.5c-0.7,0-1-0.3-1-1v-3.7c0-1.1-0.2-2-1.5-2
		c-1.2,0-2.2,0.8-2.5,1.9c-0.1,0.3-0.1,0.7-0.1,1.1v3.7h-1.5V138.8z"/>
	<path class="st4" d="M649.1,138.8c0-0.2-0.1-0.3-0.3-0.3h-0.6v-1.3h1.5c0.7,0,1,0.3,1,1v5.3c0,0.2,0.1,0.3,0.3,0.3h0.6v1.3h-1.5
		c-0.7,0-1-0.3-1-1V138.8z M649.1,134h1.4v1.6h-1.4V134z"/>
	<path class="st4" d="M656.4,143.4l-1.3,3.2h-1.2l1-3.2H656.4z"/>
	<path class="st4" d="M666,138.8c0-0.2-0.1-0.3-0.3-0.3H665v-1.3h1.5c0.7,0,1,0.3,1,1v5.3c0,0.2,0.1,0.3,0.3,0.3h0.6v1.3H667
		c-0.7,0-1-0.3-1-1V138.8z M666.1,134h1.4v1.6h-1.4V134z"/>
	<path class="st4" d="M671.8,138.8c0-0.2-0.1-0.3-0.3-0.3h-0.6v-1.3h1.5c0.7,0,1,0.3,1,0.9v0.3c0,0.3,0,0.5,0,0.5h0
		c0.4-0.9,1.5-1.8,2.7-1.8c1.3,0,2.1,0.6,2.4,1.8h0c0.4-1,1.5-1.8,2.8-1.8c1.8,0,2.6,1,2.6,3v3.4c0,0.2,0.1,0.3,0.3,0.3h0.6v1.3
		h-1.5c-0.7,0-1-0.3-1-1v-3.7c0-1.1-0.2-2-1.4-2c-1.1,0-1.9,1-2.2,2c-0.1,0.3-0.1,0.7-0.1,1.1v3.6h-1.5v-4.7c0-1-0.2-2-1.4-2
		c-1.2,0-2,1-2.3,2.1c-0.1,0.3-0.1,0.7-0.1,1v3.6h-1.5V138.8z"/>
	<path class="st4" d="M688,138.8c0-0.2-0.1-0.3-0.3-0.3H687v-1.3h1.4c0.7,0,1,0.3,1,0.8c0,0.2,0,0.4,0,0.4h0c0,0,0.7-1.4,2.6-1.4
		c2.1,0,3.5,1.7,3.5,4.1c0,2.5-1.5,4.1-3.6,4.1c-1.7,0-2.4-1.3-2.4-1.3h0c0,0,0,0.3,0,0.7v3.5H688V138.8z M691.7,144
		c1.2,0,2.3-1,2.3-2.8c0-1.7-0.9-2.8-2.2-2.8c-1.2,0-2.3,0.8-2.3,2.8C689.5,142.6,690.2,144,691.7,144z"/>
	<path class="st4" d="M699,138.8c0-0.2-0.1-0.3-0.3-0.3H698v-1.3h1.4c0.7,0,1,0.3,1,0.9v0.5c0,0.3,0,0.5,0,0.5h0
		c0.4-1.2,1.3-2.1,2.5-2.1c0.2,0,0.4,0,0.4,0v1.5c0,0-0.2,0-0.5,0c-1,0-1.9,0.7-2.2,1.9c-0.1,0.5-0.2,0.9-0.2,1.4v3.2H699V138.8z"/>
	<path class="st4" d="M709.5,137c2.2,0,3.4,1.7,3.4,3.7c0,0.2,0,0.6,0,0.6h-5.8c0.1,1.7,1.3,2.6,2.7,2.6c1.4,0,2.3-0.9,2.3-0.9
		l0.7,1.1c0,0-1.2,1.2-3,1.2c-2.5,0-4.2-1.8-4.2-4.1C705.5,138.6,707.2,137,709.5,137z M711.3,140.2c0-1.3-0.9-2-1.9-2
		c-1.2,0-2.1,0.7-2.3,2H711.3z"/>
	<path class="st4" d="M716.4,142.9c0,0,0.9,1.2,2.4,1.2c0.7,0,1.4-0.3,1.4-1c0-1.4-4.3-1.3-4.3-3.8c0-1.5,1.3-2.2,2.9-2.2
		c1,0,2.6,0.3,2.6,1.5v0.7H720v-0.4c0-0.5-0.7-0.7-1.2-0.7c-0.9,0-1.5,0.3-1.5,0.9c0,1.5,4.3,1.2,4.3,3.8c0,1.4-1.2,2.3-2.9,2.3
		c-2.1,0-3.2-1.4-3.2-1.4L716.4,142.9z"/>
	<path class="st4" d="M728.3,137c2.2,0,3.4,1.7,3.4,3.7c0,0.2,0,0.6,0,0.6h-5.8c0.1,1.7,1.3,2.6,2.7,2.6c1.4,0,2.3-0.9,2.3-0.9
		l0.7,1.1c0,0-1.2,1.2-3,1.2c-2.5,0-4.2-1.8-4.2-4.1C724.4,138.6,726.1,137,728.3,137z M730.2,140.2c0-1.3-0.9-2-1.9-2
		c-1.2,0-2.1,0.7-2.3,2H730.2z"/>
	<path class="st4" d="M579.9,154.4c0-0.2-0.1-0.3-0.3-0.3h-0.6v-1.3h1.4c0.7,0,1,0.3,1,0.8c0,0.2,0,0.4,0,0.4h0c0,0,0.7-1.4,2.6-1.4
		c2.1,0,3.5,1.7,3.5,4.1c0,2.5-1.5,4.1-3.6,4.1c-1.7,0-2.4-1.3-2.4-1.3h0c0,0,0,0.3,0,0.7v3.5h-1.5V154.4z M583.6,159.6
		c1.2,0,2.3-1,2.3-2.8c0-1.7-0.9-2.8-2.2-2.8c-1.2,0-2.3,0.8-2.3,2.8C581.4,158.2,582.1,159.6,583.6,159.6z"/>
	<path class="st4" d="M594.8,155.8h0.3v-0.1c0-1.4-0.5-1.9-1.7-1.9c-0.4,0-1.3,0.1-1.3,0.6v0.5h-1.4v-0.8c0-1.3,2-1.5,2.7-1.5
		c2.6,0,3.2,1.3,3.2,3.1v3.4c0,0.2,0.1,0.3,0.3,0.3h0.6v1.3h-1.4c-0.7,0-1-0.3-1-0.9c0-0.3,0-0.5,0-0.5h0c0,0-0.6,1.6-2.5,1.6
		c-1.4,0-2.7-0.8-2.7-2.4C590.1,155.9,593.5,155.8,594.8,155.8z M593.1,159.7c1.3,0,2.1-1.3,2.1-2.5v-0.3h-0.4
		c-1.1,0-3.2,0.1-3.2,1.5C591.6,159,592.1,159.7,593.1,159.7z"/>
	<path class="st4" d="M600.9,154.4c0-0.2-0.1-0.3-0.3-0.3h-0.6v-1.3h1.4c0.7,0,1,0.3,1,0.9v0.5c0,0.3,0,0.5,0,0.5h0
		c0.4-1.2,1.3-2.1,2.5-2.1c0.2,0,0.4,0,0.4,0v1.5c0,0-0.2,0-0.5,0c-1,0-1.9,0.7-2.2,1.9c-0.1,0.5-0.2,0.9-0.2,1.4v3.2h-1.5V154.4z"
		/>
	<path class="st4" d="M608.6,154h-1v-1.2h1.1v-2.2h1.5v2.2h1.9v1.2h-1.9v3.6c0,1.6,1.1,1.8,1.7,1.8c0.2,0,0.4,0,0.4,0v1.3
		c0,0-0.2,0-0.5,0c-1,0-3-0.3-3-3V154z"/>
	<path class="st4" d="M615.6,154.4c0-0.2-0.1-0.3-0.3-0.3h-0.6v-1.3h1.5c0.7,0,1,0.3,1,0.9v0.3c0,0.3,0,0.5,0,0.5h0
		c0.3-0.7,1.2-1.8,3-1.8c1.9,0,2.7,1,2.7,3v3.4c0,0.2,0.1,0.3,0.3,0.3h0.6v1.3h-1.5c-0.7,0-1-0.3-1-1V156c0-1.1-0.2-2-1.5-2
		c-1.2,0-2.2,0.8-2.5,1.9c-0.1,0.3-0.1,0.7-0.1,1.1v3.7h-1.5V154.4z"/>
	<path class="st4" d="M630.1,152.6c2.2,0,3.4,1.7,3.4,3.7c0,0.2,0,0.6,0,0.6h-5.8c0.1,1.7,1.3,2.6,2.7,2.6c1.4,0,2.3-0.9,2.3-0.9
		l0.7,1.1c0,0-1.2,1.2-3,1.2c-2.5,0-4.2-1.8-4.2-4.1C626.1,154.2,627.8,152.6,630.1,152.6z M631.9,155.8c0-1.3-0.9-2-1.9-2
		c-1.2,0-2.1,0.7-2.3,2H631.9z"/>
	<path class="st4" d="M637.1,154.4c0-0.2-0.1-0.3-0.3-0.3h-0.6v-1.3h1.4c0.7,0,1,0.3,1,0.9v0.5c0,0.3,0,0.5,0,0.5h0
		c0.4-1.2,1.3-2.1,2.5-2.1c0.2,0,0.4,0,0.4,0v1.5c0,0-0.2,0-0.5,0c-1,0-1.9,0.7-2.2,1.9c-0.1,0.5-0.2,0.9-0.2,1.4v3.2h-1.5V154.4z"
		/>
	<path class="st4" d="M645.3,159.1l-1.3,3.2h-1.2l1-3.2H645.3z"/>
	<path class="st4" d="M658.9,155.8h0.3v-0.1c0-1.4-0.5-1.9-1.7-1.9c-0.4,0-1.3,0.1-1.3,0.6v0.5h-1.4v-0.8c0-1.3,2-1.5,2.7-1.5
		c2.6,0,3.2,1.3,3.2,3.1v3.4c0,0.2,0.1,0.3,0.3,0.3h0.6v1.3h-1.4c-0.7,0-1-0.3-1-0.9c0-0.3,0-0.5,0-0.5h0c0,0-0.6,1.6-2.5,1.6
		c-1.4,0-2.7-0.8-2.7-2.4C654.2,155.9,657.6,155.8,658.9,155.8z M657.2,159.7c1.3,0,2.1-1.3,2.1-2.5v-0.3h-0.4
		c-1.1,0-3.2,0.1-3.2,1.5C655.7,159,656.2,159.7,657.2,159.7z"/>
	<path class="st4" d="M664.9,154.4c0-0.2-0.1-0.3-0.3-0.3h-0.6v-1.3h1.5c0.7,0,1,0.3,1,1v3.7c0,1.1,0.2,2,1.5,2c1.6,0,2.6-1.4,2.6-3
		v-3.7h1.5v6.3c0,0.2,0.1,0.3,0.3,0.3h0.6v1.3h-1.5c-0.7,0-1-0.3-1-0.9v-0.3c0-0.3,0-0.5,0-0.5h0c-0.3,0.8-1.3,1.8-2.9,1.8
		c-1.8,0-2.7-0.9-2.7-3V154.4z"/>
	<path class="st4" d="M676.3,154h-1v-1.2h1.1v-2.2h1.5v2.2h1.9v1.2h-1.9v3.6c0,1.6,1.1,1.8,1.7,1.8c0.2,0,0.4,0,0.4,0v1.3
		c0,0-0.2,0-0.5,0c-1,0-3-0.3-3-3V154z"/>
	<path class="st4" d="M686.6,152.6c2.4,0,4.3,1.7,4.3,4.1c0,2.4-1.9,4.2-4.3,4.2c-2.4,0-4.2-1.7-4.2-4.2
		C682.4,154.3,684.3,152.6,686.6,152.6z M686.6,159.6c1.5,0,2.7-1.2,2.7-2.8c0-1.6-1.2-2.8-2.7-2.8c-1.5,0-2.7,1.2-2.7,2.8
		C683.9,158.4,685.1,159.6,686.6,159.6z"/>
	<path class="st4" d="M694.3,154.4c0-0.2-0.1-0.3-0.3-0.3h-0.6v-1.3h1.4c0.7,0,1,0.3,1,0.9v0.5c0,0.3,0,0.5,0,0.5h0
		c0.4-1.2,1.3-2.1,2.5-2.1c0.2,0,0.4,0,0.4,0v1.5c0,0-0.2,0-0.5,0c-1,0-1.9,0.7-2.2,1.9c-0.1,0.5-0.2,0.9-0.2,1.4v3.2h-1.5V154.4z"
		/>
	<path class="st4" d="M702,154.4c0-0.2-0.1-0.3-0.3-0.3H701v-1.3h1.5c0.7,0,1,0.3,1,1v5.3c0,0.2,0.1,0.3,0.3,0.3h0.6v1.3H703
		c-0.7,0-1-0.3-1-1V154.4z M702.1,149.7h1.4v1.6h-1.4V149.7z"/>
	<path class="st4" d="M707.9,154h-1v-1.2h1.1v-2.2h1.5v2.2h1.9v1.2h-1.9v3.6c0,1.6,1.1,1.8,1.7,1.8c0.2,0,0.4,0,0.4,0v1.3
		c0,0-0.2,0-0.5,0c-1,0-3-0.3-3-3V154z"/>
	<path class="st4" d="M714.6,159.1h1.5v1.6h-1.5V159.1z"/>
	<path class="st4" d="M563.5,166.9c0-0.2-0.1-0.3-0.3-0.3h-0.6v-1.3h1.5c0.7,0,1,0.3,1,1v8.4c0,0.2,0.1,0.3,0.3,0.3h0.6v1.3h-1.5
		c-0.7,0-1-0.3-1-1V166.9z"/>
	<path class="st4" d="M572.8,168.2c2.4,0,4.3,1.7,4.3,4.1c0,2.4-1.9,4.2-4.3,4.2c-2.4,0-4.2-1.7-4.2-4.2
		C568.5,170,570.4,168.2,572.8,168.2z M572.8,175.2c1.5,0,2.7-1.2,2.7-2.8c0-1.6-1.2-2.8-2.7-2.8c-1.5,0-2.7,1.2-2.7,2.8
		C570.1,174,571.3,175.2,572.8,175.2z"/>
	<path class="st4" d="M584,168.2c1,0,2.8,0.4,2.8,1.7v0.8h-1.4v-0.4c0-0.6-0.9-0.8-1.5-0.8c-1.5,0-2.7,1.2-2.7,2.8
		c0,1.8,1.3,2.8,2.8,2.8c1.5,0,2.5-1.1,2.5-1.1l0.7,1.1c0,0-1.1,1.4-3.2,1.4c-2.5,0-4.2-1.8-4.2-4.1
		C579.7,170,581.5,168.2,584,168.2z"/>
	<path class="st4" d="M594.4,171.4h0.3v-0.1c0-1.4-0.5-1.9-1.7-1.9c-0.4,0-1.3,0.1-1.3,0.6v0.5h-1.4v-0.8c0-1.3,2-1.5,2.7-1.5
		c2.6,0,3.2,1.3,3.2,3.1v3.4c0,0.2,0.1,0.3,0.3,0.3h0.6v1.3h-1.4c-0.7,0-1-0.3-1-0.9c0-0.3,0-0.5,0-0.5h0c0,0-0.6,1.6-2.5,1.6
		c-1.4,0-2.7-0.8-2.7-2.4C589.7,171.6,593.1,171.4,594.4,171.4z M592.7,175.3c1.3,0,2.1-1.3,2.1-2.5v-0.3h-0.4
		c-1.1,0-3.2,0.1-3.2,1.5C591.2,174.7,591.7,175.3,592.7,175.3z"/>
	<path class="st4" d="M600.4,166.9c0-0.2-0.1-0.3-0.3-0.3h-0.6v-1.3h1.5c0.7,0,1,0.3,1,1v8.4c0,0.2,0.1,0.3,0.3,0.3h0.6v1.3h-1.5
		c-0.7,0-1-0.3-1-1V166.9z"/>
	<path class="st4" d="M606.3,170.1c0-0.2-0.1-0.3-0.3-0.3h-0.6v-1.3h1.5c0.7,0,1,0.3,1,1v5.3c0,0.2,0.1,0.3,0.3,0.3h0.6v1.3h-1.5
		c-0.7,0-1-0.3-1-1V170.1z M606.3,165.3h1.4v1.6h-1.4V165.3z"/>
	<path class="st4" d="M613.6,174.7l-1.3,3.2h-1.2l1-3.2H613.6z"/>
	<path class="st4" d="M627.2,171.4h0.3v-0.1c0-1.4-0.5-1.9-1.7-1.9c-0.4,0-1.3,0.1-1.3,0.6v0.5H623v-0.8c0-1.3,2-1.5,2.7-1.5
		c2.6,0,3.2,1.3,3.2,3.1v3.4c0,0.2,0.1,0.3,0.3,0.3h0.6v1.3h-1.4c-0.7,0-1-0.3-1-0.9c0-0.3,0-0.5,0-0.5h0c0,0-0.6,1.6-2.5,1.6
		c-1.4,0-2.7-0.8-2.7-2.4C622.4,171.6,625.8,171.4,627.2,171.4z M625.4,175.3c1.3,0,2.1-1.3,2.1-2.5v-0.3h-0.4
		c-1.1,0-3.2,0.1-3.2,1.5C623.9,174.7,624.4,175.3,625.4,175.3z"/>
	<path class="st4" d="M633.1,174.1c0,0,0.9,1.2,2.4,1.2c0.7,0,1.4-0.3,1.4-1c0-1.4-4.3-1.3-4.3-3.8c0-1.5,1.3-2.2,2.9-2.2
		c1,0,2.6,0.3,2.6,1.5v0.7h-1.4v-0.4c0-0.5-0.7-0.7-1.2-0.7c-0.9,0-1.5,0.3-1.5,0.9c0,1.5,4.3,1.2,4.3,3.8c0,1.4-1.2,2.3-2.9,2.3
		c-2.1,0-3.2-1.4-3.2-1.4L633.1,174.1z"/>
	<path class="st4" d="M641.7,174.1c0,0,0.9,1.2,2.4,1.2c0.7,0,1.4-0.3,1.4-1c0-1.4-4.3-1.3-4.3-3.8c0-1.5,1.3-2.2,2.9-2.2
		c1,0,2.6,0.3,2.6,1.5v0.7h-1.4v-0.4c0-0.5-0.7-0.7-1.2-0.7c-0.9,0-1.5,0.3-1.5,0.9c0,1.5,4.3,1.2,4.3,3.8c0,1.4-1.2,2.3-2.9,2.3
		c-2.1,0-3.2-1.4-3.2-1.4L641.7,174.1z"/>
	<path class="st4" d="M654,168.2c2.4,0,4.3,1.7,4.3,4.1c0,2.4-1.9,4.2-4.3,4.2c-2.4,0-4.2-1.7-4.2-4.2
		C649.7,170,651.6,168.2,654,168.2z M654,175.2c1.5,0,2.7-1.2,2.7-2.8c0-1.6-1.2-2.8-2.7-2.8c-1.5,0-2.7,1.2-2.7,2.8
		C651.3,174,652.5,175.2,654,175.2z"/>
	<path class="st4" d="M665.2,168.2c1,0,2.8,0.4,2.8,1.7v0.8h-1.4v-0.4c0-0.6-0.9-0.8-1.5-0.8c-1.5,0-2.7,1.2-2.7,2.8
		c0,1.8,1.3,2.8,2.8,2.8c1.5,0,2.5-1.1,2.5-1.1l0.7,1.1c0,0-1.1,1.4-3.2,1.4c-2.5,0-4.2-1.8-4.2-4.1
		C660.9,170,662.6,168.2,665.2,168.2z"/>
	<path class="st4" d="M671.7,170.1c0-0.2-0.1-0.3-0.3-0.3h-0.6v-1.3h1.5c0.7,0,1,0.3,1,1v5.3c0,0.2,0.1,0.3,0.3,0.3h0.6v1.3h-1.5
		c-0.7,0-1-0.3-1-1V170.1z M671.7,165.3h1.4v1.6h-1.4V165.3z"/>
	<path class="st4" d="M681.5,171.4h0.3v-0.1c0-1.4-0.5-1.9-1.7-1.9c-0.4,0-1.3,0.1-1.3,0.6v0.5h-1.4v-0.8c0-1.3,2-1.5,2.7-1.5
		c2.6,0,3.2,1.3,3.2,3.1v3.4c0,0.2,0.1,0.3,0.3,0.3h0.6v1.3h-1.4c-0.7,0-1-0.3-1-0.9c0-0.3,0-0.5,0-0.5h0c0,0-0.6,1.6-2.5,1.6
		c-1.4,0-2.7-0.8-2.7-2.4C676.7,171.6,680.1,171.4,681.5,171.4z M679.7,175.3c1.3,0,2.1-1.3,2.1-2.5v-0.3h-0.4
		c-1.1,0-3.2,0.1-3.2,1.5C678.2,174.7,678.7,175.3,679.7,175.3z"/>
	<path class="st4" d="M686.7,175.4l4-5c0.3-0.4,0.7-0.7,0.7-0.7v0c0,0-0.2,0-0.8,0h-2.2c-0.2,0-0.3,0.1-0.3,0.3v0.5h-1.4v-1.2
		c0-0.7,0.3-1,1-1h5.7v0.9l-4.1,5c-0.3,0.4-0.7,0.7-0.7,0.7v0c0,0,0.2,0,0.8,0h2.5c0.2,0,0.3-0.1,0.3-0.3v-0.5h1.4v1.2
		c0,0.7-0.3,1-1,1h-6V175.4z"/>
	<path class="st4" d="M697,170.1c0-0.2-0.1-0.3-0.3-0.3h-0.6v-1.3h1.5c0.7,0,1,0.3,1,1v5.3c0,0.2,0.1,0.3,0.3,0.3h0.6v1.3H698
		c-0.7,0-1-0.3-1-1V170.1z M697.1,165.3h1.4v1.6h-1.4V165.3z"/>
	<path class="st4" d="M706.3,168.2c2.4,0,4.3,1.7,4.3,4.1c0,2.4-1.9,4.2-4.3,4.2c-2.4,0-4.2-1.7-4.2-4.2
		C702,170,703.9,168.2,706.3,168.2z M706.3,175.2c1.5,0,2.7-1.2,2.7-2.8c0-1.6-1.2-2.8-2.7-2.8c-1.5,0-2.7,1.2-2.7,2.8
		C703.6,174,704.8,175.2,706.3,175.2z"/>
	<path class="st4" d="M714,170.1c0-0.2-0.1-0.3-0.3-0.3H713v-1.3h1.5c0.7,0,1,0.3,1,0.9v0.3c0,0.3,0,0.5,0,0.5h0
		c0.3-0.7,1.2-1.8,3-1.8c1.9,0,2.7,1,2.7,3v3.4c0,0.2,0.1,0.3,0.3,0.3h0.6v1.3h-1.5c-0.7,0-1-0.3-1-1v-3.7c0-1.1-0.2-2-1.5-2
		c-1.2,0-2.2,0.8-2.5,1.9c-0.1,0.3-0.1,0.7-0.1,1.1v3.7H714V170.1z"/>
	<path class="st4" d="M725.4,170.1c0-0.2-0.1-0.3-0.3-0.3h-0.6v-1.3h1.5c0.7,0,1,0.3,1,1v5.3c0,0.2,0.1,0.3,0.3,0.3h0.6v1.3h-1.5
		c-0.7,0-1-0.3-1-1V170.1z M725.5,165.3h1.4v1.6h-1.4V165.3z"/>
	<path class="st4" d="M732.7,174.7l-1.3,3.2h-1.2l1-3.2H732.7z"/>
	<path class="st4" d="M603.6,185.7c0-0.2-0.1-0.3-0.3-0.3h-0.6V184h1.4c0.7,0,1,0.3,1,0.8c0,0.2,0,0.4,0,0.4h0c0,0,0.7-1.4,2.6-1.4
		c2.1,0,3.5,1.7,3.5,4.1c0,2.5-1.5,4.1-3.6,4.1c-1.7,0-2.4-1.3-2.4-1.3h0c0,0,0,0.3,0,0.7v3.5h-1.5V185.7z M607.3,190.8
		c1.2,0,2.3-1,2.3-2.8c0-1.7-0.9-2.8-2.2-2.8c-1.2,0-2.3,0.8-2.3,2.8C605.1,189.4,605.9,190.8,607.3,190.8z"/>
	<path class="st4" d="M617.8,183.8c2.2,0,3.4,1.7,3.4,3.7c0,0.2,0,0.6,0,0.6h-5.8c0.1,1.7,1.3,2.6,2.7,2.6c1.4,0,2.3-0.9,2.3-0.9
		l0.7,1.1c0,0-1.2,1.2-3,1.2c-2.5,0-4.2-1.8-4.2-4.1C613.9,185.5,615.6,183.8,617.8,183.8z M619.7,187.1c0-1.3-0.9-2-1.9-2
		c-1.2,0-2.1,0.7-2.3,2H619.7z"/>
	<path class="st4" d="M624.8,185.7c0-0.2-0.1-0.3-0.3-0.3h-0.6V184h1.4c0.7,0,1,0.3,1,0.9v0.5c0,0.3,0,0.5,0,0.5h0
		c0.4-1.2,1.3-2.1,2.5-2.1c0.2,0,0.4,0,0.4,0v1.5c0,0-0.2,0-0.5,0c-1,0-1.9,0.7-2.2,1.9c-0.1,0.5-0.2,0.9-0.2,1.4v3.2h-1.5V185.7z"
		/>
	<path class="st4" d="M632.3,189.7c0,0,0.9,1.2,2.4,1.2c0.7,0,1.4-0.3,1.4-1c0-1.4-4.3-1.3-4.3-3.8c0-1.5,1.3-2.2,2.9-2.2
		c1,0,2.6,0.3,2.6,1.5v0.7h-1.4v-0.4c0-0.5-0.7-0.7-1.2-0.7c-0.9,0-1.5,0.3-1.5,0.9c0,1.5,4.3,1.2,4.3,3.8c0,1.4-1.2,2.3-2.9,2.3
		c-2.1,0-3.2-1.4-3.2-1.4L632.3,189.7z"/>
	<path class="st4" d="M644.6,183.8c2.4,0,4.3,1.7,4.3,4.1c0,2.4-1.9,4.2-4.3,4.2c-2.4,0-4.2-1.7-4.2-4.2
		C640.3,185.6,642.2,183.8,644.6,183.8z M644.6,190.8c1.5,0,2.7-1.2,2.7-2.8c0-1.6-1.2-2.8-2.7-2.8c-1.5,0-2.7,1.2-2.7,2.8
		C641.9,189.6,643.1,190.8,644.6,190.8z"/>
	<path class="st4" d="M652.3,185.7c0-0.2-0.1-0.3-0.3-0.3h-0.6V184h1.5c0.7,0,1,0.3,1,0.9v0.3c0,0.3,0,0.5,0,0.5h0
		c0.3-0.7,1.2-1.8,3-1.8c1.9,0,2.7,1,2.7,3v3.4c0,0.2,0.1,0.3,0.3,0.3h0.6v1.3h-1.5c-0.7,0-1-0.3-1-1v-3.7c0-1.1-0.2-2-1.5-2
		c-1.2,0-2.2,0.8-2.5,1.9c-0.1,0.3-0.1,0.7-0.1,1.1v3.7h-1.5V185.7z"/>
	<path class="st4" d="M666.8,183.8c2.2,0,3.4,1.7,3.4,3.7c0,0.2,0,0.6,0,0.6h-5.8c0.1,1.7,1.3,2.6,2.7,2.6c1.4,0,2.3-0.9,2.3-0.9
		l0.7,1.1c0,0-1.2,1.2-3,1.2c-2.5,0-4.2-1.8-4.2-4.1C662.9,185.5,664.6,183.8,666.8,183.8z M668.7,187.1c0-1.3-0.9-2-1.9-2
		c-1.2,0-2.1,0.7-2.3,2H668.7z"/>
	<path class="st4" d="M682.4,183.8c1.8,0,2.4,1.2,2.4,1.2h0c0,0,0-0.2,0-0.5v-2c0-0.2-0.1-0.3-0.3-0.3h-0.6v-1.3h1.5
		c0.7,0,1,0.3,1,1v8.4c0,0.2,0.1,0.3,0.3,0.3h0.6v1.3h-1.5c-0.7,0-1-0.3-1-0.8c0-0.2,0-0.4,0-0.4h0c0,0-0.7,1.4-2.6,1.4
		c-2.1,0-3.5-1.7-3.5-4.1C678.8,185.5,680.3,183.8,682.4,183.8z M684.9,188c0-1.4-0.7-2.8-2.2-2.8c-1.2,0-2.3,1-2.3,2.8
		c0,1.7,0.9,2.8,2.2,2.8C683.8,190.8,684.9,190,684.9,188z"/>
	<path class="st4" d="M690.7,185.7c0-0.2-0.1-0.3-0.3-0.3h-0.6V184h1.5c0.7,0,1,0.3,1,1v5.3c0,0.2,0.1,0.3,0.3,0.3h0.6v1.3h-1.5
		c-0.7,0-1-0.3-1-1V185.7z M690.7,180.9h1.4v1.6h-1.4V180.9z"/>
	<path class="st4" d="M599.7,198.2c0-0.2-0.1-0.3-0.3-0.3h-0.7v-1.3h1.6c0.7,0,1,0.3,1,1v8.3c0,0.2,0.1,0.3,0.3,0.3h3
		c0.2,0,0.3-0.1,0.3-0.3v-0.7h1.4v1.4c0,0.7-0.3,1-1,1h-4.7c-0.7,0-1-0.3-1-1V198.2z"/>
	<path class="st4" d="M612.6,199.5c2.2,0,3.4,1.7,3.4,3.7c0,0.2,0,0.6,0,0.6h-5.8c0.1,1.7,1.3,2.6,2.7,2.6c1.4,0,2.3-0.9,2.3-0.9
		l0.7,1.1c0,0-1.2,1.2-3,1.2c-2.5,0-4.2-1.8-4.2-4.1C608.6,201.1,610.3,199.5,612.6,199.5z M614.4,202.7c0-1.3-0.9-2-1.9-2
		c-1.2,0-2.1,0.7-2.3,2H614.4z"/>
	<path class="st4" d="M619.1,201.3c-0.1-0.2-0.2-0.3-0.5-0.3h-0.2v-1.3h0.8c0.7,0,1,0.2,1.2,0.8l1.7,4.5c0.2,0.4,0.3,1,0.3,1h0
		c0,0,0.1-0.6,0.3-1l1.7-4.5c0.2-0.6,0.5-0.8,1.2-0.8h0.7v1.3h-0.2c-0.3,0-0.4,0.1-0.5,0.3l-2.4,6.3h-1.7L619.1,201.3z"/>
	<path class="st4" d="M629.5,201.3c0-0.2-0.1-0.3-0.3-0.3h-0.6v-1.3h1.5c0.7,0,1,0.3,1,1v5.3c0,0.2,0.1,0.3,0.3,0.3h0.6v1.3h-1.5
		c-0.7,0-1-0.3-1-1V201.3z M629.5,196.5h1.4v1.6h-1.4V196.5z"/>
	<path class="st4" d="M635.1,205.3c0,0,0.9,1.2,2.4,1.2c0.7,0,1.4-0.3,1.4-1c0-1.4-4.3-1.3-4.3-3.8c0-1.5,1.3-2.2,2.9-2.2
		c1,0,2.6,0.3,2.6,1.5v0.7h-1.4v-0.4c0-0.5-0.7-0.7-1.2-0.7c-0.9,0-1.5,0.3-1.5,0.9c0,1.5,4.3,1.2,4.3,3.8c0,1.4-1.2,2.3-2.9,2.3
		c-2.1,0-3.2-1.4-3.2-1.4L635.1,205.3z"/>
	<path class="st4" d="M643.8,205.3c0,0,0.9,1.2,2.4,1.2c0.7,0,1.4-0.3,1.4-1c0-1.4-4.3-1.3-4.3-3.8c0-1.5,1.3-2.2,2.9-2.2
		c1,0,2.6,0.3,2.6,1.5v0.7h-1.4v-0.4c0-0.5-0.7-0.7-1.2-0.7c-0.9,0-1.5,0.3-1.5,0.9c0,1.5,4.3,1.2,4.3,3.8c0,1.4-1.2,2.3-2.9,2.3
		c-2.1,0-3.2-1.4-3.2-1.4L643.8,205.3z"/>
	<path class="st4" d="M652.7,201.3c0-0.2-0.1-0.3-0.3-0.3h-0.6v-1.3h1.5c0.7,0,1,0.3,1,1v5.3c0,0.2,0.1,0.3,0.3,0.3h0.6v1.3h-1.5
		c-0.7,0-1-0.3-1-1V201.3z M652.7,196.5h1.4v1.6h-1.4V196.5z"/>
	<path class="st4" d="M658.4,201.3c0-0.2-0.1-0.3-0.3-0.3h-0.6v-1.3h1.5c0.7,0,1,0.3,1,0.9v0.3c0,0.3,0,0.5,0,0.5h0
		c0.4-0.9,1.5-1.8,2.7-1.8c1.3,0,2.1,0.6,2.4,1.8h0c0.4-1,1.5-1.8,2.8-1.8c1.8,0,2.6,1,2.6,3v3.4c0,0.2,0.1,0.3,0.3,0.3h0.6v1.3
		h-1.5c-0.7,0-1-0.3-1-1v-3.7c0-1.1-0.2-2-1.4-2c-1.1,0-1.9,1-2.2,2c-0.1,0.3-0.1,0.7-0.1,1.1v3.6h-1.5v-4.7c0-1-0.2-2-1.4-2
		c-1.2,0-2,1-2.3,2.1c-0.1,0.3-0.1,0.7-0.1,1v3.6h-1.5V201.3z"/>
	<path class="st4" d="M678.7,202.6h0.3v-0.1c0-1.4-0.5-1.9-1.7-1.9c-0.4,0-1.3,0.1-1.3,0.6v0.5h-1.4v-0.8c0-1.3,2-1.5,2.7-1.5
		c2.6,0,3.2,1.3,3.2,3.1v3.4c0,0.2,0.1,0.3,0.3,0.3h0.6v1.3h-1.4c-0.7,0-1-0.3-1-0.9c0-0.3,0-0.5,0-0.5h0c0,0-0.6,1.6-2.5,1.6
		c-1.4,0-2.7-0.8-2.7-2.4C673.9,202.8,677.3,202.6,678.7,202.6z M676.9,206.5c1.3,0,2.1-1.3,2.1-2.5v-0.3h-0.4
		c-1.1,0-3.2,0.1-3.2,1.5C675.4,205.9,675.9,206.5,676.9,206.5z"/>
	<path class="st4" d="M693.7,199.5c2.2,0,3.4,1.7,3.4,3.7c0,0.2,0,0.6,0,0.6h-5.8c0.1,1.7,1.3,2.6,2.7,2.6c1.4,0,2.3-0.9,2.3-0.9
		l0.7,1.1c0,0-1.2,1.2-3,1.2c-2.5,0-4.2-1.8-4.2-4.1C689.7,201.1,691.4,199.5,693.7,199.5z M695.5,202.7c0-1.3-0.9-2-1.9-2
		c-1.2,0-2.1,0.7-2.3,2H695.5z"/>
	<path class="st4" d="M616.6,215.1c1,0,2.8,0.4,2.8,1.7v0.8H618v-0.4c0-0.6-0.9-0.8-1.5-0.8c-1.5,0-2.7,1.2-2.7,2.8
		c0,1.8,1.3,2.8,2.8,2.8c1.5,0,2.5-1.1,2.5-1.1l0.7,1.1c0,0-1.1,1.4-3.2,1.4c-2.5,0-4.2-1.8-4.2-4.1
		C612.3,216.9,614,215.1,616.6,215.1z"/>
	<path class="st4" d="M623.1,216.9c0-0.2-0.1-0.3-0.3-0.3h-0.6v-1.3h1.5c0.7,0,1,0.3,1,1v5.3c0,0.2,0.1,0.3,0.3,0.3h0.6v1.3h-1.5
		c-0.7,0-1-0.3-1-1V216.9z M623.1,212.1h1.4v1.6h-1.4V212.1z"/>
	<path class="st4" d="M628.9,216.5h-1v-1.2h1.1v-2.2h1.5v2.2h1.9v1.2h-1.9v3.6c0,1.6,1.1,1.8,1.7,1.8c0.2,0,0.4,0,0.4,0v1.3
		c0,0-0.2,0-0.5,0c-1,0-3-0.3-3-3V216.5z"/>
	<path class="st4" d="M636,216.5h-1v-1.2h1.1v-2.2h1.5v2.2h1.9v1.2h-1.9v3.6c0,1.6,1.1,1.8,1.7,1.8c0.2,0,0.4,0,0.4,0v1.3
		c0,0-0.2,0-0.5,0c-1,0-3-0.3-3-3V216.5z"/>
	<path class="st4" d="M646.9,218.3h0.3v-0.1c0-1.4-0.5-1.9-1.7-1.9c-0.4,0-1.3,0.1-1.3,0.6v0.5h-1.4v-0.8c0-1.3,2-1.5,2.7-1.5
		c2.6,0,3.2,1.3,3.2,3.1v3.4c0,0.2,0.1,0.3,0.3,0.3h0.6v1.3h-1.4c-0.7,0-1-0.3-1-0.9c0-0.3,0-0.5,0-0.5h0c0,0-0.6,1.6-2.5,1.6
		c-1.4,0-2.7-0.8-2.7-2.4C642.1,218.4,645.6,218.3,646.9,218.3z M645.1,222.1c1.3,0,2.1-1.3,2.1-2.5v-0.3h-0.4
		c-1.1,0-3.2,0.1-3.2,1.5C643.7,221.5,644.1,222.1,645.1,222.1z"/>
	<path class="st4" d="M655.8,215.1c1.8,0,2.4,1.2,2.4,1.2h0c0,0,0-0.2,0-0.5v-2c0-0.2-0.1-0.3-0.3-0.3h-0.6v-1.3h1.5
		c0.7,0,1,0.3,1,1v8.4c0,0.2,0.1,0.3,0.3,0.3h0.6v1.3h-1.5c-0.7,0-1-0.3-1-0.8c0-0.2,0-0.4,0-0.4h0c0,0-0.7,1.4-2.6,1.4
		c-2.1,0-3.5-1.7-3.5-4.1C652.2,216.7,653.7,215.1,655.8,215.1z M658.2,219.2c0-1.4-0.7-2.8-2.2-2.8c-1.2,0-2.3,1-2.3,2.8
		c0,1.7,0.9,2.8,2.2,2.8C657.1,222,658.2,221.2,658.2,219.2z"/>
	<path class="st4" d="M664,216.9c0-0.2-0.1-0.3-0.3-0.3H663v-1.3h1.5c0.7,0,1,0.3,1,1v5.3c0,0.2,0.1,0.3,0.3,0.3h0.6v1.3H665
		c-0.7,0-1-0.3-1-1V216.9z M664.1,212.1h1.4v1.6h-1.4V212.1z"/>
	<path class="st4" d="M669.8,216.9c0-0.2-0.1-0.3-0.3-0.3h-0.6v-1.3h1.5c0.7,0,1,0.3,1,0.9v0.3c0,0.3,0,0.5,0,0.5h0
		c0.3-0.7,1.2-1.8,3-1.8c1.9,0,2.7,1,2.7,3v3.4c0,0.2,0.1,0.3,0.3,0.3h0.6v1.3h-1.5c-0.7,0-1-0.3-1-1v-3.7c0-1.1-0.2-2-1.5-2
		c-1.2,0-2.2,0.8-2.5,1.9c-0.1,0.3-0.1,0.7-0.1,1.1v3.7h-1.5V216.9z"/>
	<path class="st4" d="M681.2,216.9c0-0.2-0.1-0.3-0.3-0.3h-0.6v-1.3h1.5c0.7,0,1,0.3,1,1v5.3c0,0.2,0.1,0.3,0.3,0.3h0.6v1.3h-1.5
		c-0.7,0-1-0.3-1-1V216.9z M681.3,212.1h1.4v1.6h-1.4V212.1z"/>
</g>
<g>
	<path class="st3" d="M868.6,155.3h5.7v-6.2h2.1v6.2h5.6v2h-5.6v6.2h-2.1v-6.2h-5.7V155.3z"/>
	<path class="st3" d="M888.2,159.4c0,0,1.4,2,4.2,2c2.2,0,3.8-1.6,3.8-3.6c0-2.2-1.9-3.6-4.2-3.6c-2,0-3.4,0.9-3.4,0.9l-1-0.5
		l0.7-7.4c0.1-1.1,0.5-1.6,1.6-1.6h6.2c1.1,0,1.6,0.5,1.6,1.6v2.2h-2.3v-1.1c0-0.4-0.2-0.6-0.6-0.6h-3.7c-0.4,0-0.5,0.2-0.6,0.6
		l-0.4,3.3c-0.1,0.6-0.1,0.9-0.1,0.9h0.1c0,0,1-0.5,2.3-0.5c3.8,0,6.4,2.6,6.4,5.9c0,3.1-2.5,5.9-6.4,5.9c-3.7,0-5.5-2.5-5.5-2.5
		L888.2,159.4z"/>
	<path class="st3" d="M904,154.5c0-5.1,1.5-9.2,6.3-9.2c4.7,0,6.3,4.1,6.3,9.2c0,5.1-1.5,9.2-6.3,9.2
		C905.5,163.8,904,159.7,904,154.5z M914,154.5c0-3.9-0.8-6.9-3.7-6.9c-2.9,0-3.8,3-3.8,6.9c0,3.9,0.8,6.9,3.8,6.9
		C913.2,161.5,914,158.4,914,154.5z"/>
	<path class="st3" d="M804.1,179.8c0-0.4-0.2-0.6-0.6-0.6h-1v-2.1h2.4c1.1,0,1.6,0.5,1.6,1.6v8.5c0,0.4,0.2,0.6,0.6,0.6h1v2.1h-2.4
		c-1.1,0-1.6-0.5-1.6-1.6V179.8z M804.1,172.1h2.2v2.5h-2.2V172.1z"/>
	<path class="st3" d="M818,176.8c3,0,3.9,2,3.9,2h0.1c0,0-0.1-0.4-0.1-0.9v-3.2c0-0.4-0.2-0.6-0.6-0.6h-1v-2.1h2.4
		c1.1,0,1.6,0.5,1.6,1.6v13.6c0,0.4,0.2,0.6,0.6,0.6h1v2.1h-2.3c-1.1,0-1.6-0.5-1.6-1.4c0-0.4,0-0.7,0-0.7H822c0,0-1.1,2.3-4.2,2.3
		c-3.5,0-5.6-2.7-5.6-6.7C812.2,179.5,814.6,176.8,818,176.8z M822,183.5c0-2.3-1.2-4.5-3.6-4.5c-2,0-3.7,1.7-3.7,4.6
		c0,2.8,1.5,4.6,3.6,4.6C820.2,188.1,822,186.8,822,183.5z"/>
	<path class="st3" d="M836.4,176.8c3.6,0,5.5,2.7,5.5,6c0,0.3-0.1,1-0.1,1h-9.3c0.2,2.7,2.1,4.3,4.4,4.3c2.2,0,3.7-1.5,3.7-1.5
		l1.1,1.7c0,0-1.9,1.9-4.9,1.9c-4,0-6.8-2.9-6.8-6.7C830,179.5,832.7,176.8,836.4,176.8z M839.4,182c-0.1-2.1-1.4-3.3-3-3.3
		c-1.9,0-3.4,1.1-3.8,3.3H839.4z"/>
	<path class="st3" d="M852.8,176.8c3.6,0,5.5,2.7,5.5,6c0,0.3-0.1,1-0.1,1H849c0.2,2.7,2.1,4.3,4.4,4.3c2.2,0,3.7-1.5,3.7-1.5
		l1.1,1.7c0,0-1.9,1.9-4.9,1.9c-4,0-6.8-2.9-6.8-6.7C846.4,179.5,849.2,176.8,852.8,176.8z M855.8,182c-0.1-2.1-1.4-3.3-3-3.3
		c-1.9,0-3.4,1.1-3.8,3.3H855.8z"/>
	<path class="st3" d="M878.6,176.8c3.6,0,5.5,2.7,5.5,6c0,0.3-0.1,1-0.1,1h-9.3c0.2,2.7,2.1,4.3,4.4,4.3c2.2,0,3.7-1.5,3.7-1.5
		l1.1,1.7c0,0-1.9,1.9-4.9,1.9c-4,0-6.8-2.9-6.8-6.7C872.2,179.5,875,176.8,878.6,176.8z M881.6,182c-0.1-2.1-1.4-3.3-3-3.3
		c-1.9,0-3.4,1.1-3.8,3.3H881.6z"/>
	<path class="st3" d="M899,186.3c0,0,1.5,1.9,3.9,1.9c1.2,0,2.2-0.5,2.2-1.6c0-2.3-7-2-7-6.2c0-2.4,2.1-3.6,4.7-3.6
		c1.5,0,4.2,0.5,4.2,2.5v1.2h-2.2v-0.6c0-0.8-1.1-1.1-1.9-1.1c-1.4,0-2.4,0.5-2.4,1.5c0,2.4,7,1.9,7,6.2c0,2.3-2,3.7-4.7,3.7
		c-3.4,0-5.1-2.2-5.1-2.2L899,186.3z"/>
	<path class="st3" d="M913.2,179.8c0-0.4-0.2-0.6-0.6-0.6h-1v-2.1h2.3c1.1,0,1.6,0.5,1.6,1.3c0,0.4,0,0.7,0,0.7h0.1
		c0,0,1.1-2.3,4.2-2.3c3.4,0,5.6,2.7,5.6,6.7c0,4.1-2.5,6.7-5.8,6.7c-2.8,0-3.9-2-3.9-2h-0.1c0,0,0.1,0.5,0.1,1.1v5.7h-2.4V179.8z
		 M919.2,188.1c2,0,3.7-1.7,3.7-4.6c0-2.8-1.5-4.6-3.6-4.6c-1.9,0-3.7,1.3-3.7,4.6C915.6,185.9,916.8,188.1,919.2,188.1z"/>
	<path class="st3" d="M930.9,179.8c0-0.4-0.2-0.6-0.6-0.6h-1v-2.1h2.4c1.2,0,1.6,0.5,1.6,1.6v6.1c0,1.8,0.4,3.2,2.4,3.2
		c2.6,0,4.2-2.3,4.2-4.8v-6h2.4v10.1c0,0.4,0.2,0.6,0.6,0.6h1v2.1h-2.3c-1.1,0-1.6-0.5-1.6-1.4V188c0-0.4,0-0.7,0-0.7h-0.1
		c-0.5,1.3-2.2,2.9-4.7,2.9c-2.9,0-4.3-1.5-4.3-4.9V179.8z"/>
	<path class="st3" d="M949.2,179.8c0-0.4-0.2-0.6-0.6-0.6h-1v-2.1h2.3c1.1,0,1.6,0.5,1.6,1.4v0.5c0,0.4-0.1,0.7-0.1,0.7h0.1
		c0.5-1.1,2-2.9,4.8-2.9c3,0,4.4,1.6,4.4,4.9v5.5c0,0.4,0.2,0.6,0.6,0.6h1v2.1h-2.4c-1.1,0-1.6-0.5-1.6-1.6v-6
		c0-1.8-0.4-3.2-2.4-3.2c-2,0-3.5,1.3-4,3.1c-0.2,0.5-0.2,1.1-0.2,1.7v6h-2.4V179.8z"/>
	<path class="st3" d="M967.6,179.1h-1.7v-2h1.7v-3.5h2.4v3.5h3.1v2H970v5.9c0,2.5,1.8,2.9,2.7,2.9c0.4,0,0.6-0.1,0.6-0.1v2.2
		c0,0-0.3,0.1-0.9,0.1c-1.6,0-4.9-0.5-4.9-4.8V179.1z"/>
	<path class="st3" d="M979,179.8c0-0.4-0.2-0.6-0.6-0.6h-1v-2.1h2.4c1.1,0,1.6,0.5,1.6,1.6v8.5c0,0.4,0.2,0.6,0.6,0.6h1v2.1h-2.4
		c-1.1,0-1.6-0.5-1.6-1.6V179.8z M979.1,172.1h2.2v2.5h-2.2V172.1z"/>
	<path class="st4" d="M838.8,197.5c1.8,0,2.4,1.2,2.4,1.2h0c0,0,0-0.2,0-0.5v-2c0-0.2-0.1-0.3-0.3-0.3h-0.6v-1.3h1.5
		c0.7,0,1,0.3,1,1v8.4c0,0.2,0.1,0.3,0.3,0.3h0.6v1.3h-1.5c-0.7,0-1-0.3-1-0.8c0-0.2,0-0.4,0-0.4h0c0,0-0.7,1.4-2.6,1.4
		c-2.1,0-3.5-1.7-3.5-4.1C835.2,199.1,836.7,197.5,838.8,197.5z M841.3,201.6c0-1.4-0.7-2.8-2.2-2.8c-1.2,0-2.3,1-2.3,2.8
		c0,1.7,0.9,2.8,2.2,2.8C840.2,204.4,841.3,203.6,841.3,201.6z"/>
	<path class="st4" d="M851,200.6h0.3v-0.1c0-1.4-0.5-1.9-1.8-1.9c-0.4,0-1.3,0.1-1.3,0.6v0.5h-1.4v-0.8c0-1.3,2-1.5,2.7-1.5
		c2.6,0,3.2,1.3,3.2,3.1v3.4c0,0.2,0.1,0.3,0.3,0.3h0.6v1.3h-1.4c-0.7,0-1-0.3-1-0.9c0-0.3,0-0.5,0-0.5h0c0,0-0.6,1.6-2.5,1.6
		c-1.4,0-2.7-0.8-2.7-2.4C846.3,200.8,849.7,200.6,851,200.6z M849.3,204.5c1.3,0,2.1-1.3,2.1-2.5v-0.3H851c-1.1,0-3.2,0.1-3.2,1.5
		C847.8,203.9,848.3,204.5,849.3,204.5z"/>
	<path class="st4" d="M862.7,203.3c0,0,0.9,1.2,2.4,1.2c0.7,0,1.4-0.3,1.4-1c0-1.4-4.3-1.3-4.3-3.8c0-1.5,1.3-2.2,2.9-2.2
		c1,0,2.6,0.3,2.6,1.5v0.7h-1.4v-0.4c0-0.5-0.7-0.7-1.2-0.7c-0.9,0-1.5,0.3-1.5,0.9c0,1.5,4.3,1.2,4.3,3.8c0,1.4-1.3,2.3-2.9,2.3
		c-2.1,0-3.2-1.4-3.2-1.4L862.7,203.3z"/>
	<path class="st4" d="M871,199.3c-0.1-0.2-0.2-0.3-0.5-0.3h-0.2v-1.3h0.8c0.7,0,1,0.2,1.2,0.8l1.7,4.5c0.2,0.4,0.3,1,0.3,1h0
		c0,0,0.1-0.6,0.3-1l1.7-4.5c0.2-0.6,0.5-0.8,1.2-0.8h0.7v1.3h-0.2c-0.3,0-0.4,0.1-0.5,0.3l-2.4,6.3h-1.8L871,199.3z"/>
	<path class="st4" d="M881.4,199.3c0-0.2-0.1-0.3-0.3-0.3h-0.6v-1.3h1.5c0.7,0,1,0.3,1,1v5.3c0,0.2,0.1,0.3,0.3,0.3h0.6v1.3h-1.5
		c-0.7,0-1-0.3-1-1V199.3z M881.5,194.5h1.4v1.6h-1.4V194.5z"/>
	<path class="st4" d="M887.2,196.2c0-0.2-0.1-0.3-0.3-0.3h-0.6v-1.3h1.5c0.7,0,1,0.3,1,1v8.4c0,0.2,0.1,0.3,0.3,0.3h0.6v1.3h-1.5
		c-0.7,0-1-0.3-1-1V196.2z"/>
	<path class="st4" d="M892.9,199.3c0-0.2-0.1-0.3-0.3-0.3H892v-1.3h1.5c0.7,0,1,0.3,1,1v3.7c0,1.1,0.2,2,1.5,2c1.6,0,2.6-1.4,2.6-3
		v-3.7h1.5v6.3c0,0.2,0.1,0.3,0.3,0.3h0.6v1.3h-1.5c-0.7,0-1-0.3-1-0.9v-0.3c0-0.3,0-0.5,0-0.5h0c-0.3,0.8-1.3,1.8-2.9,1.8
		c-1.8,0-2.7-0.9-2.7-3V199.3z"/>
	<path class="st4" d="M904.2,199.3c0-0.2-0.1-0.3-0.3-0.3h-0.6v-1.3h1.4c0.7,0,1,0.3,1,0.8c0,0.2,0,0.4,0,0.4h0c0,0,0.7-1.4,2.6-1.4
		c2.1,0,3.5,1.7,3.5,4.1c0,2.5-1.5,4.1-3.6,4.1c-1.8,0-2.4-1.3-2.4-1.3h0c0,0,0,0.3,0,0.7v3.5h-1.5V199.3z M907.9,204.4
		c1.2,0,2.3-1,2.3-2.8c0-1.7-0.9-2.8-2.2-2.8c-1.2,0-2.3,0.8-2.3,2.8C905.7,203,906.5,204.4,907.9,204.4z"/>
	<path class="st4" d="M915.2,199.3c0-0.2-0.1-0.3-0.3-0.3h-0.6v-1.3h1.4c0.7,0,1,0.3,1,0.8c0,0.2,0,0.4,0,0.4h0c0,0,0.7-1.4,2.6-1.4
		c2.1,0,3.5,1.7,3.5,4.1c0,2.5-1.5,4.1-3.6,4.1c-1.7,0-2.4-1.3-2.4-1.3h0c0,0,0,0.3,0,0.7v3.5h-1.5V199.3z M918.9,204.4
		c1.3,0,2.3-1,2.3-2.8c0-1.7-0.9-2.8-2.2-2.8c-1.2,0-2.3,0.8-2.3,2.8C916.7,203,917.5,204.4,918.9,204.4z"/>
	<path class="st4" d="M930.2,200.6h0.3v-0.1c0-1.4-0.5-1.9-1.7-1.9c-0.4,0-1.3,0.1-1.3,0.6v0.5h-1.4v-0.8c0-1.3,2-1.5,2.7-1.5
		c2.6,0,3.3,1.3,3.3,3.1v3.4c0,0.2,0.1,0.3,0.3,0.3h0.6v1.3h-1.4c-0.7,0-1-0.3-1-0.9c0-0.3,0-0.5,0-0.5h0c0,0-0.6,1.6-2.5,1.6
		c-1.4,0-2.7-0.8-2.7-2.4C925.4,200.8,928.9,200.6,930.2,200.6z M928.4,204.5c1.3,0,2.1-1.3,2.1-2.5v-0.3h-0.4
		c-1.1,0-3.2,0.1-3.2,1.5C926.9,203.9,927.4,204.5,928.4,204.5z"/>
	<path class="st4" d="M936.2,199.3c0-0.2-0.1-0.3-0.3-0.3h-0.6v-1.3h1.4c0.7,0,1,0.3,1,0.9v0.5c0,0.3,0,0.5,0,0.5h0
		c0.4-1.2,1.3-2.1,2.5-2.1c0.2,0,0.4,0,0.4,0v1.5c0,0-0.2,0-0.5,0c-1,0-1.9,0.7-2.2,1.9c-0.1,0.5-0.2,0.9-0.2,1.4v3.2h-1.5V199.3z"
		/>
	<path class="st4" d="M946.7,197.5c2.2,0,3.4,1.7,3.4,3.7c0,0.2,0,0.6,0,0.6h-5.8c0.1,1.7,1.3,2.6,2.7,2.6c1.4,0,2.3-0.9,2.3-0.9
		l0.7,1.1c0,0-1.2,1.2-3,1.2c-2.5,0-4.2-1.8-4.2-4.1C942.8,199.1,944.5,197.5,946.7,197.5z M948.6,200.7c0-1.3-0.9-2-1.9-2
		c-1.2,0-2.1,0.7-2.3,2H948.6z"/>
	<path class="st4" d="M823.9,214.9c0-0.2-0.1-0.3-0.3-0.3H823v-1.3h1.4c0.7,0,1,0.3,1,0.8c0,0.2,0,0.4,0,0.4h0c0,0,0.7-1.4,2.6-1.4
		c2.1,0,3.5,1.7,3.5,4.1c0,2.5-1.5,4.1-3.6,4.1c-1.8,0-2.4-1.3-2.4-1.3h0c0,0,0,0.3,0,0.7v3.5h-1.5V214.9z M827.6,220.1
		c1.2,0,2.3-1,2.3-2.8c0-1.7-0.9-2.8-2.2-2.8c-1.2,0-2.3,0.8-2.3,2.8C825.4,218.7,826.2,220.1,827.6,220.1z"/>
	<path class="st4" d="M838.1,213.1c2.2,0,3.4,1.7,3.4,3.7c0,0.2,0,0.6,0,0.6h-5.8c0.1,1.7,1.3,2.6,2.7,2.6c1.4,0,2.3-0.9,2.3-0.9
		l0.7,1.1c0,0-1.2,1.2-3,1.2c-2.5,0-4.2-1.8-4.2-4.1C834.2,214.7,835.9,213.1,838.1,213.1z M840,216.3c0-1.3-0.9-2-1.9-2
		c-1.2,0-2.1,0.7-2.3,2H840z"/>
	<path class="st4" d="M845.1,214.9c0-0.2-0.1-0.3-0.3-0.3h-0.6v-1.3h1.4c0.7,0,1,0.3,1,0.9v0.5c0,0.3,0,0.5,0,0.5h0
		c0.4-1.2,1.3-2.1,2.5-2.1c0.2,0,0.4,0,0.4,0v1.5c0,0-0.2,0-0.5,0c-1,0-1.9,0.7-2.2,1.9c-0.1,0.5-0.2,0.9-0.2,1.4v3.2h-1.5V214.9z"
		/>
	<path class="st4" d="M858.5,214.9c0-0.2-0.1-0.3-0.3-0.3h-0.6v-1.3h1.5c0.7,0,1,0.3,1,1v3.7c0,1.1,0.2,2,1.5,2c1.6,0,2.6-1.4,2.6-3
		v-3.7h1.5v6.3c0,0.2,0.1,0.3,0.3,0.3h0.6v1.3h-1.5c-0.7,0-1-0.3-1-0.9V220c0-0.3,0-0.5,0-0.5h0c-0.3,0.8-1.3,1.8-2.9,1.8
		c-1.8,0-2.7-0.9-2.7-3V214.9z"/>
	<path class="st4" d="M869.8,214.9c0-0.2-0.1-0.3-0.3-0.3h-0.6v-1.3h1.5c0.7,0,1,0.3,1,0.9v0.3c0,0.3,0,0.5,0,0.5h0
		c0.3-0.7,1.2-1.8,3-1.8c1.9,0,2.7,1,2.7,3v3.4c0,0.2,0.1,0.3,0.3,0.3h0.6v1.3h-1.5c-0.7,0-1-0.3-1-1v-3.7c0-1.1-0.2-2-1.5-2
		c-1.2,0-2.2,0.8-2.5,1.9c-0.1,0.3-0.1,0.7-0.1,1.1v3.7h-1.5V214.9z"/>
	<path class="st4" d="M885.1,216.3h0.3v-0.1c0-1.4-0.5-1.9-1.8-1.9c-0.4,0-1.3,0.1-1.3,0.6v0.5H881v-0.8c0-1.3,2-1.5,2.7-1.5
		c2.6,0,3.2,1.3,3.2,3.1v3.4c0,0.2,0.1,0.3,0.3,0.3h0.6v1.3h-1.4c-0.7,0-1-0.3-1-0.9c0-0.3,0-0.5,0-0.5h0c0,0-0.6,1.6-2.5,1.6
		c-1.4,0-2.7-0.8-2.7-2.4C880.4,216.4,883.8,216.3,885.1,216.3z M883.4,220.1c1.3,0,2.1-1.3,2.1-2.5v-0.3h-0.4
		c-1.1,0-3.2,0.1-3.2,1.5C881.9,219.5,882.4,220.1,883.4,220.1z"/>
	<path class="st4" d="M900.4,213.1c1,0,2.8,0.4,2.8,1.7v0.8h-1.4v-0.4c0-0.6-0.9-0.8-1.5-0.8c-1.5,0-2.7,1.2-2.7,2.8
		c0,1.8,1.3,2.8,2.8,2.8c1.5,0,2.5-1.1,2.5-1.1l0.7,1.1c0,0-1.1,1.4-3.2,1.4c-2.5,0-4.2-1.8-4.2-4.1
		C896.2,214.9,897.9,213.1,900.4,213.1z"/>
	<path class="st4" d="M906.8,214.9c0-0.2-0.1-0.3-0.3-0.3h-0.6v-1.3h1.4c0.7,0,1,0.3,1,0.9v0.5c0,0.3,0,0.5,0,0.5h0
		c0.4-1.2,1.3-2.1,2.5-2.1c0.2,0,0.4,0,0.4,0v1.5c0,0-0.2,0-0.5,0c-1,0-1.9,0.7-2.2,1.9c-0.1,0.5-0.2,0.9-0.2,1.4v3.2h-1.5V214.9z"
		/>
	<path class="st4" d="M917.3,213.1c2.2,0,3.4,1.7,3.4,3.7c0,0.2,0,0.6,0,0.6h-5.8c0.1,1.7,1.3,2.6,2.7,2.6c1.4,0,2.3-0.9,2.3-0.9
		l0.7,1.1c0,0-1.2,1.2-3,1.2c-2.5,0-4.2-1.8-4.2-4.1C913.4,214.7,915.1,213.1,917.3,213.1z M919.2,216.3c0-1.3-0.9-2-1.9-2
		c-1.2,0-2.1,0.7-2.3,2H919.2z"/>
	<path class="st4" d="M924.2,219c0,0,0.9,1.2,2.4,1.2c0.7,0,1.4-0.3,1.4-1c0-1.4-4.3-1.3-4.3-3.8c0-1.5,1.3-2.2,2.9-2.2
		c1,0,2.6,0.3,2.6,1.5v0.7h-1.4V215c0-0.5-0.7-0.7-1.2-0.7c-0.9,0-1.5,0.3-1.5,0.9c0,1.5,4.3,1.2,4.3,3.8c0,1.4-1.3,2.3-2.9,2.3
		c-2.1,0-3.2-1.4-3.2-1.4L924.2,219z"/>
	<path class="st4" d="M936.5,213.1c1,0,2.8,0.4,2.8,1.7v0.8h-1.4v-0.4c0-0.6-0.9-0.8-1.5-0.8c-1.5,0-2.7,1.2-2.7,2.8
		c0,1.8,1.3,2.8,2.8,2.8c1.5,0,2.5-1.1,2.5-1.1l0.7,1.1c0,0-1.1,1.4-3.2,1.4c-2.5,0-4.2-1.8-4.2-4.1
		C932.2,214.9,933.9,213.1,936.5,213.1z"/>
	<path class="st4" d="M942.9,214.9c0-0.2-0.1-0.3-0.3-0.3H942v-1.3h1.5c0.7,0,1,0.3,1,1v5.3c0,0.2,0.1,0.3,0.3,0.3h0.6v1.3h-1.5
		c-0.7,0-1-0.3-1-1V214.9z M943,210.1h1.4v1.6H943V210.1z"/>
	<path class="st4" d="M948.8,214.5h-1v-1.2h1.1v-2.2h1.5v2.2h1.9v1.2h-1.9v3.6c0,1.6,1.1,1.8,1.7,1.8c0.2,0,0.4,0,0.4,0v1.3
		c0,0-0.2,0-0.5,0c-1,0-3-0.3-3-3V214.5z"/>
	<path class="st4" d="M959.7,216.3h0.3v-0.1c0-1.4-0.5-1.9-1.7-1.9c-0.4,0-1.3,0.1-1.3,0.6v0.5h-1.4v-0.8c0-1.3,2-1.5,2.7-1.5
		c2.6,0,3.3,1.3,3.3,3.1v3.4c0,0.2,0.1,0.3,0.3,0.3h0.6v1.3h-1.4c-0.7,0-1-0.3-1-0.9c0-0.3,0-0.5,0-0.5h0c0,0-0.6,1.6-2.5,1.6
		c-1.4,0-2.7-0.8-2.7-2.4C955,216.4,958.4,216.3,959.7,216.3z M958,220.1c1.3,0,2.1-1.3,2.1-2.5v-0.3h-0.4c-1.1,0-3.2,0.1-3.2,1.5
		C956.5,219.5,957,220.1,958,220.1z"/>
	<path class="st4" d="M839.3,230.5c0-0.2-0.1-0.3-0.3-0.3h-0.6v-1.3h1.5c0.7,0,1,0.3,1,1v5.3c0,0.2,0.1,0.3,0.3,0.3h0.6v1.3h-1.5
		c-0.7,0-1-0.3-1-1V230.5z M839.4,225.8h1.4v1.6h-1.4V225.8z"/>
	<path class="st4" d="M845.1,230.5c0-0.2-0.1-0.3-0.3-0.3h-0.6v-1.3h1.5c0.7,0,1,0.3,1,0.9v0.3c0,0.3,0,0.5,0,0.5h0
		c0.3-0.7,1.2-1.8,3-1.8c1.9,0,2.7,1,2.7,3v3.4c0,0.2,0.1,0.3,0.3,0.3h0.6v1.3h-1.5c-0.7,0-1-0.3-1-1v-3.7c0-1.1-0.2-2-1.5-2
		c-1.2,0-2.2,0.8-2.5,1.9c-0.1,0.3-0.1,0.7-0.1,1.1v3.7h-1.5V230.5z"/>
	<path class="st4" d="M859.9,228.7c1,0,2.8,0.4,2.8,1.7v0.8h-1.4v-0.4c0-0.6-0.9-0.8-1.5-0.8c-1.5,0-2.7,1.2-2.7,2.8
		c0,1.8,1.3,2.8,2.8,2.8c1.5,0,2.5-1.1,2.5-1.1l0.7,1.1c0,0-1.1,1.4-3.2,1.4c-2.5,0-4.2-1.8-4.2-4.1
		C855.7,230.5,857.4,228.7,859.9,228.7z"/>
	<path class="st4" d="M866.3,227.4c0-0.2-0.1-0.3-0.3-0.3h-0.6v-1.3h1.5c0.7,0,1,0.3,1,1v8.4c0,0.2,0.1,0.3,0.3,0.3h0.6v1.3h-1.5
		c-0.7,0-1-0.3-1-1V227.4z"/>
	<path class="st4" d="M872,230.5c0-0.2-0.1-0.3-0.3-0.3H871v-1.3h1.5c0.7,0,1,0.3,1,1v3.7c0,1.1,0.2,2,1.5,2c1.6,0,2.6-1.4,2.6-3
		v-3.7h1.5v6.3c0,0.2,0.1,0.3,0.3,0.3h0.6v1.3h-1.5c-0.7,0-1-0.3-1-0.9v-0.3c0-0.3,0-0.5,0-0.5h0c-0.3,0.8-1.3,1.8-2.9,1.8
		c-1.8,0-2.7-0.9-2.7-3V230.5z"/>
	<path class="st4" d="M883.2,234.6c0,0,0.9,1.2,2.4,1.2c0.7,0,1.4-0.3,1.4-1c0-1.4-4.3-1.3-4.3-3.8c0-1.5,1.3-2.2,2.9-2.2
		c1,0,2.6,0.3,2.6,1.5v0.7h-1.4v-0.4c0-0.5-0.7-0.7-1.2-0.7c-0.9,0-1.5,0.3-1.5,0.9c0,1.5,4.3,1.2,4.3,3.8c0,1.4-1.3,2.3-2.9,2.3
		c-2.1,0-3.2-1.4-3.2-1.4L883.2,234.6z"/>
	<path class="st4" d="M892.1,230.5c0-0.2-0.1-0.3-0.3-0.3h-0.6v-1.3h1.5c0.7,0,1,0.3,1,1v5.3c0,0.2,0.1,0.3,0.3,0.3h0.6v1.3h-1.5
		c-0.7,0-1-0.3-1-1V230.5z M892.1,225.8h1.4v1.6h-1.4V225.8z"/>
	<path class="st4" d="M897.3,230.5c-0.1-0.2-0.2-0.3-0.5-0.3h-0.2v-1.3h0.8c0.7,0,1,0.2,1.2,0.8l1.7,4.5c0.2,0.4,0.3,1,0.3,1h0
		c0,0,0.1-0.6,0.3-1l1.7-4.5c0.2-0.6,0.5-0.8,1.2-0.8h0.7v1.3h-0.2c-0.3,0-0.4,0.1-0.5,0.3l-2.4,6.3h-1.8L897.3,230.5z"/>
	<path class="st4" d="M911.6,231.9h0.3v-0.1c0-1.4-0.5-1.9-1.8-1.9c-0.4,0-1.3,0.1-1.3,0.6v0.5h-1.4v-0.8c0-1.3,2-1.5,2.7-1.5
		c2.6,0,3.2,1.3,3.2,3.1v3.4c0,0.2,0.1,0.3,0.3,0.3h0.6v1.3H913c-0.7,0-1-0.3-1-0.9c0-0.3,0-0.5,0-0.5h0c0,0-0.6,1.6-2.5,1.6
		c-1.4,0-2.7-0.8-2.7-2.4C906.8,232,910.2,231.9,911.6,231.9z M909.8,235.8c1.3,0,2.1-1.3,2.1-2.5V233h-0.4c-1.1,0-3.2,0.1-3.2,1.5
		C908.3,235.1,908.8,235.8,909.8,235.8z"/>
	<path class="st4" d="M926.2,228.7c1.8,0,2.4,1.2,2.4,1.2h0c0,0,0-0.2,0-0.5v-2c0-0.2-0.1-0.3-0.3-0.3h-0.6v-1.3h1.5
		c0.7,0,1,0.3,1,1v8.4c0,0.2,0.1,0.3,0.3,0.3h0.6v1.3h-1.5c-0.7,0-1-0.3-1-0.8c0-0.2,0-0.4,0-0.4h0c0,0-0.7,1.4-2.6,1.4
		c-2.1,0-3.5-1.7-3.5-4.1C922.6,230.3,924.1,228.7,926.2,228.7z M928.7,232.8c0-1.4-0.7-2.8-2.3-2.8c-1.2,0-2.3,1-2.3,2.8
		c0,1.7,0.9,2.8,2.2,2.8C927.6,235.7,928.7,234.8,928.7,232.8z"/>
	<path class="st4" d="M937.6,228.7c2.2,0,3.4,1.7,3.4,3.7c0,0.2,0,0.6,0,0.6h-5.8c0.1,1.7,1.3,2.6,2.7,2.6c1.4,0,2.3-0.9,2.3-0.9
		l0.7,1.1c0,0-1.2,1.2-3,1.2c-2.5,0-4.2-1.8-4.2-4.1C933.6,230.3,935.4,228.7,937.6,228.7z M939.4,231.9c0-1.3-0.9-2-1.9-2
		c-1.2,0-2.1,0.7-2.3,2H939.4z"/>
	<path class="st4" d="M944.7,230.5c0-0.2-0.1-0.3-0.3-0.3h-0.6v-1.3h1.5c0.7,0,1,0.3,1,1v5.3c0,0.2,0.1,0.3,0.3,0.3h0.6v1.3h-1.5
		c-0.7,0-1-0.3-1-1V230.5z M944.7,225.8h1.4v1.6h-1.4V225.8z"/>
	<path class="st4" d="M860,245.7h-1v-1.2h1.1v-2.2h1.5v2.2h1.9v1.2h-1.9v3.6c0,1.6,1.1,1.8,1.7,1.8c0.2,0,0.4,0,0.4,0v1.3
		c0,0-0.2,0-0.5,0c-1,0-3-0.3-3-3V245.7z"/>
	<path class="st4" d="M870,244.3c2.2,0,3.4,1.7,3.4,3.7c0,0.2,0,0.6,0,0.6h-5.8c0.1,1.7,1.3,2.6,2.7,2.6c1.4,0,2.3-0.9,2.3-0.9
		l0.7,1.1c0,0-1.2,1.2-3,1.2c-2.5,0-4.2-1.8-4.2-4.1C866.1,246,867.8,244.3,870,244.3z M871.9,247.5c0-1.3-0.9-2-1.9-2
		c-1.2,0-2.1,0.7-2.3,2H871.9z"/>
	<path class="st4" d="M877,246.2c0-0.2-0.1-0.3-0.3-0.3H876v-1.3h1.4c0.7,0,1,0.3,1,0.9v0.5c0,0.3,0,0.5,0,0.5h0
		c0.4-1.2,1.3-2.1,2.5-2.1c0.2,0,0.4,0,0.4,0v1.5c0,0-0.2,0-0.5,0c-1,0-1.9,0.7-2.2,1.9c-0.1,0.5-0.2,0.9-0.2,1.4v3.2H877V246.2z"/>
	<path class="st4" d="M884.7,246.2c0-0.2-0.1-0.3-0.3-0.3h-0.6v-1.3h1.4c0.7,0,1,0.3,1,0.9v0.5c0,0.3,0,0.5,0,0.5h0
		c0.4-1.2,1.3-2.1,2.5-2.1c0.2,0,0.4,0,0.4,0v1.5c0,0-0.2,0-0.5,0c-1,0-1.9,0.7-2.2,1.9c-0.1,0.5-0.2,0.9-0.2,1.4v3.2h-1.5V246.2z"
		/>
	<path class="st4" d="M892.4,246.2c0-0.2-0.1-0.3-0.3-0.3h-0.6v-1.3h1.5c0.7,0,1,0.3,1,1v5.3c0,0.2,0.1,0.3,0.3,0.3h0.6v1.3h-1.5
		c-0.7,0-1-0.3-1-1V246.2z M892.5,241.4h1.4v1.6h-1.4V241.4z"/>
	<path class="st4" d="M898.3,245.7h-1v-1.2h1.1v-2.2h1.5v2.2h1.9v1.2h-1.9v3.6c0,1.6,1.1,1.8,1.7,1.8c0.2,0,0.4,0,0.4,0v1.3
		c0,0-0.2,0-0.5,0c-1,0-3-0.3-3-3V245.7z"/>
	<path class="st4" d="M908.6,244.3c2.4,0,4.3,1.7,4.3,4.1c0,2.4-1.9,4.2-4.3,4.2c-2.4,0-4.2-1.7-4.2-4.2
		C904.4,246.1,906.3,244.3,908.6,244.3z M908.6,251.3c1.5,0,2.7-1.2,2.7-2.8c0-1.6-1.2-2.8-2.7-2.8c-1.5,0-2.7,1.2-2.7,2.8
		C905.9,250.1,907.1,251.3,908.6,251.3z"/>
	<path class="st4" d="M916.3,246.2c0-0.2-0.1-0.3-0.3-0.3h-0.6v-1.3h1.4c0.7,0,1,0.3,1,0.9v0.5c0,0.3,0,0.5,0,0.5h0
		c0.4-1.2,1.3-2.1,2.5-2.1c0.2,0,0.4,0,0.4,0v1.5c0,0-0.2,0-0.5,0c-1,0-1.9,0.7-2.2,1.9c-0.1,0.5-0.2,0.9-0.2,1.4v3.2h-1.5V246.2z"
		/>
	<path class="st4" d="M924,246.2c0-0.2-0.1-0.3-0.3-0.3H923v-1.3h1.5c0.7,0,1,0.3,1,1v5.3c0,0.2,0.1,0.3,0.3,0.3h0.6v1.3H925
		c-0.7,0-1-0.3-1-1V246.2z M924,241.4h1.4v1.6H924V241.4z"/>
</g>
</svg>
