<?xml version="1.0" encoding="utf-8"?>
<!-- Generator: Adobe Illustrator 22.0.0, SVG Export Plug-In . SVG Version: 6.00 Build 0)  -->
<svg version="1.1" baseProfile="basic" id="Livello_1"
	 xmlns="http://www.w3.org/2000/svg" xmlns:xlink="http://www.w3.org/1999/xlink" x="0px" y="0px" viewBox="0 0 481.8 205.3"
	 xml:space="preserve">
<style type="text/css">
	.st0{fill:#C0B07F;}
</style>
<g>
	<g>
		<g>
			<path class="st0" d="M457.8,152.3c-27.3,0-54,11.2-73.4,30.7c-1.3,1.3-1.3,3.3,0,4.6c0.6,0.6,1.5,0.9,2.3,0.9s1.7-0.3,2.3-1
				c18.2-18.3,43.2-28.7,68.8-28.7c1.8,0,3.3-1.5,3.3-3.3C461.1,153.8,459.6,152.3,457.8,152.3z M389.7,149.3c-1-1.5-3-1.9-4.5-0.9
				c-14,9.4-25.7,21.2-35,35c-1,1.5-0.6,3.5,0.9,4.5c0.6,0.4,1.2,0.6,1.8,0.6c1.1,0,2.1-0.5,2.7-1.4c8.8-13.1,20-24.3,33.3-33.3
				C390.3,152.8,390.7,150.8,389.7,149.3z M457.8,126.1c-14.6,0-29,2.5-42.9,7.4c-1.7,0.6-2.6,2.5-2,4.2c0.5,1.3,1.7,2.2,3.1,2.2
				c0.4,0,0.7-0.1,1.1-0.2c13.2-4.7,26.9-7,40.8-7c1.8,0,3.3-1.5,3.3-3.3C461.1,127.5,459.6,126.1,457.8,126.1z M427.6,111.5
				L427.6,111.5c9.9-2.1,20-3.2,30.2-3.2c1.8,0,3.3-1.5,3.3-3.3s-1.5-3.3-3.3-3.3c-9.3,0-18.5,0.8-27.6,2.5v-7
				c11.8-10,18.3-23.1,18.3-37c0-14.4-6.9-27.9-19.5-38c-1.2-1-2.9-1-4.1,0c-12.6,10.1-19.5,23.6-19.5,38c0,13.9,6.5,27,18.3,37v8.4
				c-6.2,1.4-12.3,3.2-18.3,5.4V91.9c0-0.9-0.4-1.7-0.9-2.3l0,0l-18.3-18.4c-0.6-0.6-1.4-1-2.3-1h-37.3c-0.9,0-1.7,0.3-2.3,1
				L326,89.6l0,0c-0.6,0.6-1,1.4-1,2.3v12.5c-2.3-0.4-4.6-0.8-6.9-1.1V91.6c8.9-7.7,13.8-17.7,13.8-28.3c0-11.1-5.3-21.6-15-29.3
				c-1.2-1-2.9-1-4.1,0c-9.7,7.8-15,18.2-15,29.3c0,10.7,4.9,20.7,13.8,28.3v10.9c-4.8-0.4-9.6-0.7-14.4-0.7c-1.8,0-3.3,1.5-3.3,3.3
				s1.5,3.3,3.3,3.3c26.1,0,51.6,6.9,74.1,20c-5.4,3.7-10.5,7.7-15.4,12c-18.2-9.3-38.5-14.2-58.7-14.2c-1.8,0-3.3,1.5-3.3,3.3
				s1.5,3.3,3.3,3.3c18.4,0,36.8,4.3,53.6,12.4c-5,4.8-9.6,9.9-13.9,15.4c-12.7-5.3-26-8-39.7-8c-1.8,0-3.3,1.5-3.3,3.3
				s1.5,3.3,3.3,3.3c12.2,0,24.2,2.3,35.6,6.9c-2.3,3.1-4.4,6.4-6.4,9.7l-5,8.1c-0.9,1.5-0.5,3.5,1.1,4.5c0.5,0.3,1.1,0.5,1.7,0.5
				c1.1,0,2.2-0.6,2.8-1.6l5-8.1c2.6-4.2,5.4-8.3,8.4-12.3c0.1-0.1,0.2-0.3,0.3-0.4C362.2,138.2,393.3,118.8,427.6,111.5z
				 M411.9,60.2c0-11.6,5.3-22.6,15-31.2c9.7,8.6,15,19.6,15,31.2c0,10.2-4.1,20-11.7,28v-25c0-1.8-1.5-3.3-3.3-3.3
				s-3.3,1.5-3.3,3.3v25C416,80.2,411.9,70.5,411.9,60.2z M314.8,57.4c-1.8,0-3.3,1.5-3.3,3.3v21.7c-4.7-5.6-7.3-12.2-7.3-19.1
				c0-8.3,3.7-16.2,10.6-22.5c6.8,6.3,10.6,14.2,10.6,22.5c0,6.9-2.5,13.5-7.3,19.1V60.7C318.1,58.9,316.6,57.4,314.8,57.4z
				 M346.5,78.1l10.4,10.5H336L346.5,78.1z M350.4,111.3c-2.6-1-5.2-1.8-7.8-2.6v-2.5h7.8V111.3z M361.5,115.9c-1.5-0.7-3-1.4-4.6-2
				v-11c0-1.8-1.5-3.3-3.3-3.3h-14.4c-1.8,0-3.3,1.5-3.3,3.3v3.9c-1.5-0.4-3-0.8-4.6-1.1V95.1h30v20.8H361.5z M354.3,76.8h28.1
				l11.8,11.9h-28.1L354.3,76.8z M368,119.1v-24h30.8v18.4c-5.6,2.3-11.1,5-16.4,7.9c-1.7,0.9-3.4,1.9-5,2.9
				C374.4,122.5,371.2,120.7,368,119.1z M426.9,54.1c0.9,0,1.7-0.3,2.3-1c0.6-0.6,1-1.4,1-2.3c0-0.9-0.3-1.7-1-2.3
				c-0.6-0.6-1.5-1-2.3-1c-0.9,0-1.7,0.3-2.3,1c-0.6,0.6-1,1.4-1,2.3c0,0.9,0.3,1.7,1,2.3C425.2,53.8,426.1,54.1,426.9,54.1z
				 M398.6,140.7c-0.6,0.6-1,1.4-1,2.3c0,0.9,0.3,1.7,1,2.3c0.6,0.6,1.4,1,2.3,1s1.7-0.3,2.3-1c0.6-0.6,1-1.4,1-2.3
				c0-0.9-0.3-1.7-1-2.3c-0.6-0.6-1.4-1-2.3-1S399.2,140.1,398.6,140.7z"/>
		</g>
	</g>
	<g>
		<path class="st0" d="M296.9,132.7H70.8c-1.9,0-3.3-1.5-3.3-3.3c0-1.9,1.5-3.3,3.3-3.3h226.1c1.9,0,3.3,1.5,3.3,3.3
			S298.7,132.7,296.9,132.7z"/>
	</g>
	<g>
		<path class="st0" d="M296.9,108.4H70.8c-1.9,0-3.3-1.5-3.3-3.3s1.5-3.3,3.3-3.3h226.1c1.9,0,3.3,1.5,3.3,3.3
			S298.7,108.4,296.9,108.4z"/>
	</g>
</g>
</svg>
