<?xml version="1.0" encoding="utf-8"?>
<!-- Generator: Adobe Illustrator 22.0.0, SVG Export Plug-In . SVG Version: 6.00 Build 0)  -->
<svg version="1.1" baseProfile="basic" id="Layer_1"
	 xmlns="http://www.w3.org/2000/svg" xmlns:xlink="http://www.w3.org/1999/xlink" x="0px" y="0px" viewBox="0 0 1040 510"
	 xml:space="preserve">
<style type="text/css">
	.st0{fill:none;stroke:#C0B07F;stroke-width:3;stroke-linecap:round;stroke-miterlimit:10;stroke-dasharray:0,9;}
	.st1{fill:#A18B52;}
	.st2{fill:#00295A;}
</style>
<path class="st0" d="M29.9,2.2h979.7c15.4,0,27.8,12.4,27.8,27.8v449.6c0,15.4-12.4,27.8-27.8,27.8H29.9
	c-15.4,0-27.8-12.4-27.8-27.8V30C2,14.7,14.5,2.2,29.9,2.2z"/>
<path class="st0" d="M1037.3,32.8c0,15.4-12.4,27.8-27.8,27.8H29.9c-15.4,0-27.8-12.4-27.8-27.8V30"/>
<g>
	<path class="st1" d="M159.1,39h0.4c0.5,0,0.7-0.1,0.9-0.6l5.8-15.7h2.8l5.8,15.7c0.2,0.5,0.4,0.6,0.9,0.6h0.4v2.3h-1.5
		c-1.3,0-1.7-0.3-2.2-1.5L171,36h-6.8l-1.4,3.8c-0.4,1.2-0.9,1.5-2.2,1.5h-1.4L159.1,39L159.1,39z M170.3,33.8l-2-5.6
		c-0.3-1-0.7-2.6-0.7-2.6h-0.1c0,0-0.4,1.6-0.7,2.6l-2,5.6H170.3z"/>
	<path class="st1" d="M181.5,25h-1.7v-2.3h8.1c3.3,0,5.5,2,5.5,5.4c0,3.1-2,4.6-3.3,4.9v0.1c0,0,0.5,0.2,0.8,0.8l2.2,4.4
		c0.3,0.6,0.7,0.6,1.3,0.6h0.3v2.3h-1.3c-1.4,0-2-0.2-2.6-1.4l-2.5-5c-0.5-0.9-0.8-1-1.8-1h-2.4v7.4h-2.6V25z M187.6,31.7
		c2,0,3.2-1.3,3.2-3.4s-1.2-3.3-3.1-3.3h-3.5v6.6h3.4V31.7z"/>
	<path class="st1" d="M200.4,25h-1.7v-2.3h10.9c1.2,0,1.7,0.5,1.7,1.7v2.3h-2.4v-1.2c0-0.4-0.2-0.6-0.6-0.6H203v5.8h6.5V33H203v5.4
		c0,0.4,0.2,0.6,0.6,0.6h5.4c0.4,0,0.6-0.2,0.6-0.6v-1.2h2.4v2.3c0,1.2-0.5,1.7-1.7,1.7H202c-1.2,0-1.7-0.5-1.7-1.7V25H200.4z"/>
	<path class="st1" d="M215.5,39h0.4c0.5,0,0.7-0.1,0.9-0.6l5.8-15.7h2.8l5.8,15.7c0.2,0.5,0.4,0.6,0.9,0.6h0.4v2.3H231
		c-1.3,0-1.7-0.3-2.2-1.5l-1.4-3.8h-6.8l-1.4,3.8c-0.4,1.2-0.9,1.5-2.2,1.5h-1.4L215.5,39L215.5,39z M226.7,33.8l-2-5.6
		c-0.3-1-0.7-2.6-0.7-2.6h-0.1c0,0-0.4,1.6-0.7,2.6l-2,5.6H226.7z"/>
	<path class="st1" d="M247.6,25h-1.7v-2.3h7.5c5.6,0,9.4,3.4,9.4,9.2c0,5.9-3.7,9.3-9.4,9.3h-4.1c-1.2,0-1.7-0.5-1.7-1.7L247.6,25
		L247.6,25z M250.8,39h2.4c4.1,0,6.8-2.5,6.8-7s-2.7-7-6.8-7h-3v13.4C250.2,38.8,250.4,39,250.8,39z"/>
	<path class="st1" d="M267.4,39h1.8V25h-1.8v-2.3h6.1V25h-1.8v14h1.8v2.3h-6.1V39z"/>
	<path class="st1" d="M288,39h1.8V25H288v-2.3h6.1V25h-1.8v14h1.8v2.3H288V39z"/>
	<path class="st1" d="M298.3,39h0.9c0.4,0,0.6-0.2,0.6-0.6l1.3-15.7h2.7l4.4,9.8c0.4,1,0.9,2.3,0.9,2.3h0.1c0,0,0.5-1.3,0.9-2.3
		l4.4-9.8h2.7l1.3,15.7c0,0.4,0.2,0.6,0.6,0.6h0.9v2.3h-2.3c-1.2,0-1.6-0.5-1.7-1.7l-0.8-9.8c-0.1-1.1-0.1-2.7-0.1-2.7H315
		c0,0-0.5,1.7-1,2.7l-3.7,8.1h-2.2l-3.7-8.1c-0.4-1-1-2.8-1-2.8h-0.1c0,0,0,1.7-0.1,2.8l-0.7,9.8c-0.1,1.2-0.5,1.7-1.7,1.7h-2.3V39
		H298.3z"/>
	<path class="st1" d="M325.6,25h-1.7v-2.3h8.2c3.4,0,5.8,2.3,5.8,5.8s-2.4,5.9-5.8,5.9h-3.8v6.8h-2.6V25H325.6z M331.6,32.2
		c2.2,0,3.5-1.4,3.5-3.6s-1.3-3.5-3.5-3.5h-3.4v7.2L331.6,32.2L331.6,32.2z"/>
	<path class="st1" d="M339.8,39h0.4c0.5,0,0.7-0.1,0.9-0.6l5.8-15.7h2.8l5.8,15.7c0.2,0.5,0.4,0.6,0.9,0.6h0.4v2.3h-1.5
		c-1.3,0-1.7-0.3-2.2-1.5l-1.4-3.8h-6.8l-1.4,3.8c-0.4,1.2-0.9,1.5-2.2,1.5h-1.4L339.8,39L339.8,39z M351,33.8l-2-5.6
		c-0.3-1-0.7-2.6-0.7-2.6h-0.1c0,0-0.4,1.6-0.7,2.6l-2,5.6H351z"/>
	<path class="st1" d="M364.3,25h-3.7c-0.4,0-0.6,0.2-0.6,0.6v1.2h-2.3v-2.4c0-1.2,0.4-1.6,1.6-1.6H372c1.2,0,1.6,0.4,1.6,1.6v2.4
		h-2.3v-1.2c0-0.4-0.2-0.6-0.6-0.6H367v16.3h-2.6V25H364.3z"/>
	<path class="st1" d="M383.6,25h-3.7c-0.4,0-0.6,0.2-0.6,0.6v1.2H377v-2.4c0-1.2,0.4-1.6,1.6-1.6h12.7c1.2,0,1.6,0.4,1.6,1.6v2.4
		h-2.3v-1.2c0-0.4-0.2-0.6-0.6-0.6h-3.7v16.3h-2.6V25H383.6z"/>
	<path class="st1" d="M405.8,22.5c5.3,0,9.5,4.1,9.5,9.4c0,5.5-4.2,9.7-9.5,9.7s-9.5-4.2-9.5-9.7C396.3,26.6,400.4,22.5,405.8,22.5z
		 M405.8,39.1c3.7,0,6.8-3.1,6.8-7.2c0-4-3-7-6.8-7s-6.8,3-6.8,7C399,36,402,39.1,405.8,39.1z"/>
</g>
<g>
	<path class="st1" d="M693.9,26.4h-3.7c-0.4,0-0.6,0.2-0.6,0.6v1.2h-2.3v-2.4c0-1.2,0.4-1.6,1.6-1.6h12.8c1.2,0,1.6,0.4,1.6,1.6v2.4
		H701V27c0-0.4-0.2-0.6-0.6-0.6h-3.7v16.3h-2.6V26.4H693.9z"/>
	<path class="st1" d="M716.1,23.8c5.4,0,9.5,4.1,9.5,9.5c0,5.5-4.2,9.7-9.5,9.7s-9.5-4.3-9.5-9.7C706.6,27.9,710.8,23.8,716.1,23.8z
		 M716.1,40.5c3.8,0,6.8-3.2,6.8-7.3c0-4-3-7-6.8-7s-6.8,3-6.8,7C709.3,37.4,712.4,40.5,716.1,40.5z"/>
	<path class="st1" d="M735.7,26.4H732c-0.4,0-0.6,0.2-0.6,0.6v1.2h-2.3v-2.4c0-1.2,0.4-1.6,1.6-1.6h12.8c1.2,0,1.6,0.4,1.6,1.6v2.4
		h-2.3V27c0-0.4-0.2-0.6-0.6-0.6h-3.7v16.3h-2.6V26.4H735.7z"/>
	<path class="st1" d="M746,40.4h0.4c0.5,0,0.7-0.1,0.9-0.6l5.8-15.7h2.8l5.8,15.7c0.2,0.5,0.4,0.6,0.9,0.6h0.4v2.3h-1.5
		c-1.3,0-1.7-0.3-2.2-1.5l-1.4-3.8h-6.8l-1.4,3.8c-0.4,1.2-0.9,1.5-2.2,1.5H746V40.4z M757.2,35.1l-2-5.6c-0.3-1-0.7-2.6-0.7-2.6
		h-0.1c0,0-0.4,1.6-0.7,2.6l-2,5.6H757.2z"/>
	<path class="st1" d="M768.5,27c0-0.4-0.2-0.6-0.6-0.6h-1.1v-2.3h2.7c1.2,0,1.7,0.5,1.7,1.7v14c0,0.4,0.2,0.6,0.6,0.6h5.1
		c0.4,0,0.6-0.2,0.6-0.6v-1.2h2.4V41c0,1.2-0.5,1.7-1.7,1.7h-7.9c-1.2,0-1.7-0.5-1.7-1.7L768.5,27L768.5,27z"/>
	<path class="st1" d="M784.6,26.4h-1.7v-2.3h10.9c1.2,0,1.7,0.5,1.7,1.7v2.3h-2.4V27c0-0.4-0.2-0.6-0.6-0.6h-5.3v5.8h6.5v2.3h-6.5
		v5.4c0,0.4,0.2,0.6,0.6,0.6h5.4c0.4,0,0.6-0.2,0.6-0.6v-1.2h2.4V41c0,1.2-0.5,1.7-1.7,1.7h-8.2c-1.2,0-1.7-0.5-1.7-1.7V26.4z"/>
	<path class="st1" d="M819.6,29.2c0-1.7-1.3-2.9-3.3-2.9c-1.7,0-2.9,0.8-2.9,1.8v0.8H811v-1.6c0-2.4,3.2-3.4,5.4-3.4
		c3.4,0,5.8,2.2,5.8,5.3c0,6.4-9.4,6.5-9.4,10.8c0,0.4,0.2,0.5,0.7,0.5h6.6c0.4,0,0.6-0.2,0.6-0.6v-1.2h2.4V41
		c0,1.2-0.5,1.7-1.7,1.7h-9.5c-1.4,0-1.8-0.6-1.8-2.1C810.1,33.7,819.6,34.2,819.6,29.2z"/>
	<path class="st1" d="M828.1,33.4c0-5.3,1.6-9.6,6.6-9.6c4.9,0,6.5,4.2,6.5,9.6s-1.6,9.6-6.5,9.6C829.7,43,828.1,38.7,828.1,33.4z
		 M838.6,33.4c0-4-0.9-7.2-3.9-7.2s-3.9,3.2-3.9,7.2s0.9,7.2,3.9,7.2C837.7,40.6,838.6,37.4,838.6,33.4z"/>
	<path class="st1" d="M846.6,40.4h4.1v-12c0-0.6,0-1.2,0-1.2h-0.1c0,0-0.2,0.4-0.9,1.1L848,30l-1.6-1.6l4.4-4.3h2.4v16.3h4v2.3
		h-10.7L846.6,40.4L846.6,40.4z"/>
	<path class="st1" d="M870,28.1c0.6-1.1,1.1-1.7,1.1-1.7v-0.1c0,0-0.4,0.1-1.3,0.1h-5.6c-0.4,0-0.6,0.2-0.6,0.6v1.2h-2.4v-2.3
		c0-1.2,0.4-1.7,1.6-1.7h11.3V26l-9,16.8h-2.9L870,28.1z"/>
	<path class="st1" d="M890.3,28.7h1.6c-1.4,2.4-2.1,4.9-2.1,7.6c0,2.8,0.7,5.7,2.2,8.2h-1.6c-1.4-2.2-2.2-5.1-2.2-8
		C888.2,33.6,888.9,31,890.3,28.7z"/>
	<path class="st1" d="M895.1,41h0.6c0.3,0,0.4-0.2,0.4-0.4l0.9-11.3h2l3.1,7.1c0.3,0.7,0.7,1.7,0.7,1.7l0,0c0,0,0.3-1,0.7-1.7
		l3.1-7.1h2l0.9,11.3c0,0.3,0.2,0.4,0.4,0.4h0.6v1.6h-1.7c-0.9,0-1.2-0.4-1.2-1.2l-0.6-7.1c-0.1-0.8,0-2,0-2l0,0c0,0-0.4,1.3-0.7,2
		l-2.7,5.9H902l-2.7-5.9c-0.3-0.7-0.7-2-0.7-2l0,0c0,0,0,1.2,0,2l-0.5,7.1c-0.1,0.9-0.4,1.2-1.2,1.2h-1.7V41H895.1z"/>
	<path class="st1" d="M925.4,32.9c2.7,0,4.1,2,4.1,4.5c0,0.2-0.1,0.8-0.1,0.8h-7c0.1,2,1.6,3.2,3.3,3.2c1.7,0,2.8-1.1,2.8-1.1
		l0.8,1.3c0,0-1.4,1.4-3.7,1.4c-3,0-5.1-2.2-5.1-5C920.6,34.8,922.7,32.9,925.4,32.9z M927.6,36.8c-0.1-1.6-1.1-2.4-2.3-2.4
		c-1.4,0-2.5,0.9-2.8,2.4H927.6z"/>
	<path class="st1" d="M933.8,35.1c0-0.3-0.2-0.4-0.4-0.4h-0.8v-1.6h1.8c0.9,0,1.2,0.4,1.2,1.2v4.6c0,1.3,0.3,2.4,1.8,2.4
		c2,0,3.1-1.7,3.1-3.6v-4.5h1.8v7.6c0,0.3,0.2,0.4,0.4,0.4h0.8v1.6h-1.8c-0.8,0-1.2-0.4-1.2-1.1v-0.4c0-0.3,0-0.6,0-0.6l0,0
		c-0.4,0.9-1.6,2.2-3.5,2.2c-2.2,0-3.3-1.1-3.3-3.7L933.8,35.1L933.8,35.1z"/>
	<path class="st1" d="M947.6,35.1c0-0.3-0.2-0.4-0.4-0.4h-0.8v-1.6h1.7c0.8,0,1.2,0.3,1.2,1.1v0.6c0,0.4,0,0.7,0,0.7l0,0
		c0.5-1.4,1.6-2.5,3-2.5c0.2,0,0.5,0,0.5,0v1.8c0,0-0.2-0.1-0.5-0.1c-1.2,0-2.3,0.8-2.7,2.3c-0.2,0.6-0.2,1.1-0.2,1.7v3.9h-1.8
		L947.6,35.1L947.6,35.1z"/>
	<path class="st1" d="M960.7,32.9c2.9,0,5.2,2.1,5.2,5s-2.3,5-5.2,5c-2.9,0-5.2-2.1-5.2-5S957.8,32.9,960.7,32.9z M960.7,41.3
		c1.8,0,3.3-1.4,3.3-3.5c0-2-1.5-3.4-3.3-3.4s-3.3,1.4-3.3,3.4C957.4,39.9,958.9,41.3,960.7,41.3z"/>
	<path class="st1" d="M971.4,36.3c0-2.7-0.7-5.2-2.1-7.6h1.6c1.4,2.2,2.1,4.9,2.1,7.7c0,2.9-0.8,5.8-2.2,8h-1.6
		C970.7,42,971.4,39.1,971.4,36.3z"/>
</g>
<g>
	<path class="st2" d="M106.5,96.8c4.1,0,7.3,3.2,7.3,7.4s-3.3,7.6-7.3,7.6c-4.1,0-7.3-3.3-7.3-7.6C99.1,100,102.3,96.8,106.5,96.8z
		 M106.5,110.3c3.2,0,5.8-2.7,5.8-6.2c0-3.4-2.6-6-5.8-6s-5.8,2.6-5.8,6C100.6,107.6,103.2,110.3,106.5,110.3z"/>
	<path class="st2" d="M123,100.9c1.2,0,3.7,0.5,3.7,2.2v0.9h-1.3v-0.6c0-0.9-1.5-1.3-2.4-1.3c-2.2,0-4,1.7-4,4.2s1.9,4.1,4,4.1
		s3.3-1.5,3.3-1.5l0.7,1c0,0-1.4,1.7-4,1.7c-3.1,0-5.4-2.2-5.4-5.4C117.5,103.1,119.9,100.9,123,100.9z"/>
	<path class="st2" d="M135.9,100.9c1.2,0,3.7,0.5,3.7,2.2v0.9h-1.3v-0.6c0-0.9-1.5-1.3-2.4-1.3c-2.2,0-4,1.7-4,4.2s1.9,4.1,4,4.1
		s3.3-1.5,3.3-1.5l0.7,1c0,0-1.4,1.7-4,1.7c-3.1,0-5.4-2.2-5.4-5.4C130.4,103.1,132.8,100.9,135.9,100.9z"/>
	<path class="st2" d="M144.2,102.8c0-0.3-0.2-0.5-0.5-0.5h-0.9v-1.2h1.5c0.9,0,1.3,0.4,1.3,1.2v5c0,1.6,0.3,3.1,2.3,3.1
		c2.3,0,3.8-2.1,3.8-4.3v-4.9h1.4v8.7c0,0.3,0.2,0.5,0.5,0.5h0.9v1.2H153c-0.9,0-1.3-0.4-1.3-1.1V110c0-0.4,0-0.7,0-0.7l0,0
		c-0.4,1-1.8,2.6-4,2.6c-2.4,0-3.5-1.3-3.5-4V102.8z"/>
	<path class="st2" d="M158.7,102.8c0-0.3-0.2-0.5-0.5-0.5h-0.9v-1.2h1.4c0.9,0,1.2,0.4,1.2,1.1c0,0.4,0,0.7,0,0.7l0,0
		c0,0,0.8-2,3.5-2c2.8,0,4.5,2.2,4.5,5.4c0,3.3-1.9,5.4-4.6,5.4c-2.5,0-3.4-1.9-3.4-1.9l0,0c0,0,0,0.4,0,0.9v4.9h-1.4v-12.8H158.7z
		 M163.4,110.4c1.8,0,3.3-1.5,3.3-4.2c0-2.5-1.3-4.1-3.3-4.1c-1.7,0-3.3,1.2-3.3,4.2C160.1,108.4,161.2,110.4,163.4,110.4z"/>
	<path class="st2" d="M178.1,105.1h0.6V105c0-2.2-0.8-2.9-2.7-2.9c-0.5,0-2,0.1-2,0.9v0.7h-1.3v-1c0-1.4,2.5-1.7,3.4-1.7
		c3.3,0,4,1.7,4,4v4.9c0,0.3,0.2,0.5,0.5,0.5h0.9v1.2h-1.4c-0.9,0-1.2-0.4-1.2-1.2c0-0.5,0-0.8,0-0.8l0,0c0,0-0.8,2.2-3.4,2.2
		c-1.7,0-3.5-1-3.5-3.1C171.7,105.2,176.3,105.1,178.1,105.1z M175.5,110.5c2,0,3.2-2.1,3.2-3.8v-0.5H178c-1.6,0-4.9,0-4.9,2.4
		C173.2,109.5,173.9,110.5,175.5,110.5z"/>
	<path class="st2" d="M184.6,110.5l5.8-7.2c0.4-0.5,0.8-0.9,0.8-0.9l0,0c0,0-0.3,0-1,0h-3.8c-0.3,0-0.5,0.1-0.5,0.5v0.8h-1.3v-1.2
		c0-0.9,0.4-1.3,1.3-1.3h7.2v0.9l-5.8,7.2c-0.4,0.5-0.9,0.9-0.9,0.9l0,0c0,0,0.4,0,1,0h4.3c0.3,0,0.5-0.1,0.5-0.5v-0.8h1.3v1.2
		c0,0.9-0.4,1.3-1.3,1.3h-7.7v-0.9H184.6z"/>
	<path class="st2" d="M198,102.8c0-0.3-0.2-0.5-0.5-0.5h-0.9v-1.2h1.5c0.9,0,1.3,0.4,1.3,1.3v7.4c0,0.3,0.2,0.5,0.5,0.5h0.9v1.2
		h-1.5c-0.9,0-1.3-0.4-1.3-1.3V102.8z M198,97h1.4v1.8H198V97z"/>
	<path class="st2" d="M209.6,100.9c3,0,5.5,2.3,5.5,5.4c0,3.1-2.4,5.5-5.4,5.5s-5.5-2.3-5.5-5.5
		C204.2,103.2,206.6,100.9,209.6,100.9z M209.6,110.4c2.2,0,4-1.8,4-4.2c0-2.3-1.8-4.1-4-4.1s-4,1.7-4,4.1S207.4,110.4,209.6,110.4z
		"/>
	<path class="st2" d="M219.7,102.8c0-0.3-0.2-0.5-0.5-0.5h-0.9v-1.2h1.4c0.9,0,1.3,0.4,1.3,1.1v0.5c0,0.4,0,0.7,0,0.7l0,0
		c0.4-0.9,1.7-2.6,4.1-2.6c2.6,0,3.5,1.5,3.5,4v4.9c0,0.3,0.2,0.5,0.5,0.5h0.9v1.2h-1.5c-0.9,0-1.3-0.4-1.3-1.3v-4.9
		c0-1.6-0.2-3.1-2.2-3.1c-1.8,0-3.3,1.2-3.8,2.9c-0.1,0.4-0.2,0.9-0.2,1.4v4.9h-1.4v-8.5H219.7z"/>
	<path class="st2" d="M238.4,100.9c2.9,0,4.3,2.2,4.3,4.8c0,0.2,0,0.7,0,0.7h-7.9c0,2.6,1.9,4.1,4,4.1c1.9,0,3.1-1.3,3.1-1.3l0.7,1
		c0,0-1.5,1.5-3.8,1.5c-3.1,0-5.4-2.2-5.4-5.4C233.3,102.9,235.6,100.9,238.4,100.9z M241.3,105.2c-0.1-2.1-1.4-3.2-2.9-3.2
		c-1.7,0-3.2,1.1-3.5,3.2H241.3z"/>
	<path class="st2" d="M258.9,100.9c2.5,0,3.4,1.9,3.4,1.9l0,0c0,0,0-0.3,0-0.8v-3.3c0-0.3-0.2-0.5-0.5-0.5h-0.9V97h1.5
		c0.9,0,1.3,0.4,1.3,1.3v11.5c0,0.3,0.2,0.5,0.5,0.5h0.9v1.2h-1.4c-0.9,0-1.2-0.4-1.2-1.1c0-0.4,0-0.7,0-0.7l0,0
		c0,0-0.8,2.1-3.5,2.1c-2.8,0-4.5-2.2-4.5-5.4C254.3,103,256.2,100.9,258.9,100.9z M262.3,106.3c0-2.1-1.1-4.1-3.3-4.1
		c-1.8,0-3.3,1.5-3.3,4.1c0,2.5,1.3,4.2,3.3,4.2C260.7,110.4,262.3,109.2,262.3,106.3z"/>
	<path class="st2" d="M269.4,102.8c0-0.3-0.2-0.5-0.5-0.5H268v-1.2h1.5c0.9,0,1.3,0.4,1.3,1.3v7.4c0,0.3,0.2,0.5,0.5,0.5h0.9v1.2
		h-1.5c-0.9,0-1.3-0.4-1.3-1.3V102.8z M269.4,97h1.4v1.8h-1.4V97z"/>
	<path class="st2" d="M276.5,102.8c0-0.3-0.2-0.5-0.5-0.5h-0.9v-1.2h1.4c0.9,0,1.3,0.3,1.3,1.2v0.7c0,0.4,0,0.8,0,0.8l0,0
		c0.5-1.6,1.6-2.7,3.3-2.7c0.3,0,0.6,0.1,0.6,0.1v1.4c0,0-0.2,0-0.5,0c-1.5,0-2.5,1.1-3,2.7c-0.2,0.7-0.3,1.4-0.3,2v4.4h-1.4V102.8z
		"/>
	<path class="st2" d="M289.7,100.9c2.9,0,4.3,2.2,4.3,4.8c0,0.2,0,0.7,0,0.7h-7.9c0,2.6,1.9,4.1,4,4.1c1.9,0,3.1-1.3,3.1-1.3l0.7,1
		c0,0-1.5,1.5-3.8,1.5c-3.1,0-5.4-2.2-5.4-5.4C284.6,102.9,286.9,100.9,289.7,100.9z M292.6,105.2c-0.1-2.1-1.4-3.2-2.9-3.2
		c-1.7,0-3.2,1.1-3.5,3.2H292.6z"/>
	<path class="st2" d="M299,102.3h-1.4v-1.2h1.4v-2.9h1.4v2.9h2.6v1.2h-2.6v5.3c0,2.4,1.5,2.7,2.3,2.7c0.3,0,0.5,0,0.5,0v1.3
		c0,0-0.2,0-0.6,0c-1.2,0-3.6-0.4-3.6-3.8L299,102.3L299,102.3z"/>
	<path class="st2" d="M307.9,102.3h-1.4v-1.2h1.4v-2.9h1.4v2.9h2.6v1.2h-2.6v5.3c0,2.4,1.5,2.7,2.3,2.7c0.3,0,0.5,0,0.5,0v1.3
		c0,0-0.2,0-0.6,0c-1.2,0-3.6-0.4-3.6-3.8L307.9,102.3L307.9,102.3z"/>
	<path class="st2" d="M322,105.1h0.6V105c0-2.2-0.8-2.9-2.7-2.9c-0.5,0-2,0.1-2,0.9v0.7h-1.3v-1c0-1.4,2.5-1.7,3.4-1.7
		c3.3,0,4,1.7,4,4v4.9c0,0.3,0.2,0.5,0.5,0.5h0.9v1.2H324c-0.9,0-1.2-0.4-1.2-1.2c0-0.5,0-0.8,0-0.8l0,0c0,0-0.8,2.2-3.4,2.2
		c-1.7,0-3.5-1-3.5-3.1C315.6,105.2,320.2,105.1,322,105.1z M319.4,110.5c2,0,3.2-2.1,3.2-3.8v-0.5H322c-1.6,0-4.9,0-4.9,2.4
		C317.1,109.5,317.8,110.5,319.4,110.5z"/>
	<path class="st2" d="M336.8,108.9c0,0,1.1,1.6,3.2,1.6c1.1,0,2.2-0.6,2.2-1.6c0-2.3-5.8-1.8-5.8-5.2c0-1.9,1.6-2.8,3.7-2.8
		c1,0,3.1,0.4,3.1,1.9v0.9h-1.3v-0.5c0-0.8-1.1-1-1.8-1c-1.4,0-2.3,0.5-2.3,1.5c0,2.3,5.8,1.8,5.8,5.2c0,1.7-1.6,2.9-3.6,2.9
		c-2.7,0-4-1.8-4-1.8L336.8,108.9z"/>
	<path class="st2" d="M348.2,102.8c0-0.3-0.2-0.5-0.5-0.5h-0.9v-1.2h1.5c0.9,0,1.3,0.4,1.3,1.2v5c0,1.6,0.3,3.1,2.3,3.1
		c2.3,0,3.8-2.1,3.8-4.3v-4.9h1.4v8.7c0,0.3,0.2,0.5,0.5,0.5h0.9v1.2h-1.4c-0.9,0-1.3-0.4-1.3-1.1V110c0-0.4,0-0.7,0-0.7l0,0
		c-0.4,1-1.8,2.6-4,2.6c-2.4,0-3.5-1.3-3.5-4L348.2,102.8L348.2,102.8z"/>
	<path class="st2" d="M362.6,98.7c0-0.3-0.2-0.5-0.5-0.5h-0.9V97h1.5c0.9,0,1.3,0.4,1.3,1.3v11.5c0,0.3,0.2,0.5,0.5,0.5h0.9v1.2
		h-1.5c-0.9,0-1.3-0.4-1.3-1.3L362.6,98.7L362.6,98.7z"/>
	<path class="st2" d="M377.5,102.3h-1.4v-1.2h1.4v-2.9h1.4v2.9h2.6v1.2h-2.6v5.3c0,2.4,1.5,2.7,2.3,2.7c0.3,0,0.5,0,0.5,0v1.3
		c0,0-0.2,0-0.6,0c-1.2,0-3.6-0.4-3.6-3.8L377.5,102.3L377.5,102.3z"/>
	<path class="st2" d="M390.2,100.9c2.9,0,4.3,2.2,4.3,4.8c0,0.2,0,0.7,0,0.7h-7.9c0,2.6,1.9,4.1,4,4.1c1.9,0,3.1-1.3,3.1-1.3l0.7,1
		c0,0-1.5,1.5-3.8,1.5c-3.1,0-5.4-2.2-5.4-5.4C385.1,102.9,387.4,100.9,390.2,100.9z M393.1,105.2c-0.1-2.1-1.4-3.2-2.9-3.2
		c-1.7,0-3.2,1.1-3.6,3.2H393.1z"/>
	<path class="st2" d="M399.4,102.8c0-0.3-0.2-0.5-0.5-0.5H398v-1.2h1.4c0.9,0,1.3,0.3,1.3,1.2v0.7c0,0.4,0,0.8,0,0.8l0,0
		c0.5-1.6,1.6-2.7,3.3-2.7c0.3,0,0.6,0.1,0.6,0.1v1.4c0,0-0.2,0-0.5,0c-1.5,0-2.5,1.1-3,2.7c-0.2,0.7-0.3,1.4-0.3,2v4.4h-1.4
		L399.4,102.8L399.4,102.8z"/>
	<path class="st2" d="M409,102.8c0-0.3-0.2-0.5-0.5-0.5h-0.9v-1.2h1.4c0.9,0,1.3,0.3,1.3,1.2v0.7c0,0.4,0,0.8,0,0.8l0,0
		c0.5-1.6,1.6-2.7,3.3-2.7c0.3,0,0.6,0.1,0.6,0.1v1.4c0,0-0.2,0-0.5,0c-1.5,0-2.5,1.1-3,2.7c-0.2,0.7-0.3,1.4-0.3,2v4.4H409V102.8z"
		/>
	<path class="st2" d="M418.6,102.8c0-0.3-0.2-0.5-0.5-0.5h-0.9v-1.2h1.5c0.9,0,1.3,0.4,1.3,1.3v7.4c0,0.3,0.2,0.5,0.5,0.5h0.9v1.2
		h-1.5c-0.9,0-1.3-0.4-1.3-1.3V102.8z M418.6,97h1.4v1.8h-1.4V97z"/>
	<path class="st2" d="M425.8,102.3h-1.4v-1.2h1.4v-2.9h1.4v2.9h2.6v1.2h-2.6v5.3c0,2.4,1.5,2.7,2.3,2.7c0.3,0,0.5,0,0.5,0v1.3
		c0,0-0.2,0-0.6,0c-1.2,0-3.6-0.4-3.6-3.8L425.8,102.3L425.8,102.3z"/>
	<path class="st2" d="M438.9,100.9c3,0,5.5,2.3,5.5,5.4c0,3.1-2.4,5.5-5.4,5.5s-5.5-2.3-5.5-5.5
		C433.5,103.2,435.9,100.9,438.9,100.9z M438.9,110.4c2.2,0,4-1.8,4-4.2c0-2.3-1.8-4.1-4-4.1s-4,1.7-4,4.1S436.7,110.4,438.9,110.4z
		"/>
	<path class="st2" d="M449,102.8c0-0.3-0.2-0.5-0.5-0.5h-0.9v-1.2h1.4c0.9,0,1.3,0.3,1.3,1.2v0.7c0,0.4,0,0.8,0,0.8l0,0
		c0.5-1.6,1.6-2.7,3.3-2.7c0.3,0,0.6,0.1,0.6,0.1v1.4c0,0-0.2,0-0.5,0c-1.5,0-2.5,1.1-3,2.7c-0.2,0.7-0.3,1.4-0.3,2v4.4H449V102.8z"
		/>
	<path class="st2" d="M458.6,102.8c0-0.3-0.2-0.5-0.5-0.5h-0.9v-1.2h1.5c0.9,0,1.3,0.4,1.3,1.3v7.4c0,0.3,0.2,0.5,0.5,0.5h0.9v1.2
		h-1.5c-0.9,0-1.3-0.4-1.3-1.3V102.8z M458.6,97h1.4v1.8h-1.4V97z"/>
	<path class="st2" d="M470.2,100.9c3,0,5.5,2.3,5.5,5.4c0,3.1-2.4,5.5-5.4,5.5s-5.5-2.3-5.5-5.5
		C464.7,103.2,467.2,100.9,470.2,100.9z M470.2,110.4c2.2,0,4-1.8,4-4.2c0-2.3-1.8-4.1-4-4.1s-4,1.7-4,4.1S468,110.4,470.2,110.4z"
		/>
	<path class="st2" d="M44.9,117h1.3c-1.5,2.5-2.2,5.2-2.2,8.1c0,3.1,0.8,6.1,2.4,8.9h-1.3c-1.5-2.4-2.4-5.6-2.4-8.8
		C42.7,122.1,43.4,119.4,44.9,117z"/>
	<path class="st2" d="M51.1,119.2c0-0.3-0.2-0.5-0.5-0.5h-0.9v-1.2h1.5c0.9,0,1.3,0.4,1.3,1.3v11.5c0,0.3,0.2,0.5,0.5,0.5h0.9v1.2
		h-1.5c-0.9,0-1.3-0.4-1.3-1.3V119.2z"/>
	<path class="st2" d="M63.6,125.6h0.6v-0.1c0-2.2-0.8-2.9-2.7-2.9c-0.5,0-2,0.1-2,0.9v0.7h-1.3v-1c0-1.4,2.5-1.7,3.4-1.7
		c3.3,0,4,1.7,4,4v4.9c0,0.3,0.2,0.5,0.5,0.5H67v1.2h-1.4c-0.9,0-1.2-0.4-1.2-1.2c0-0.5,0-0.8,0-0.8l0,0c0,0-0.8,2.2-3.4,2.2
		c-1.7,0-3.5-1-3.5-3.1C57.3,125.7,61.8,125.6,63.6,125.6z M61,131c2,0,3.2-2.1,3.2-3.8v-0.5h-0.6c-1.6,0-4.9,0-4.9,2.4
		C58.7,130,59.5,131,61,131z"/>
	<path class="st2" d="M70.3,123.3c-0.1-0.4-0.3-0.5-0.7-0.5h-0.2v-1.2H70c1,0,1.3,0.2,1.6,1.1l2.5,6.4c0.2,0.5,0.3,1.2,0.3,1.2l0,0
		c0,0,0.2-0.7,0.3-1.2l2.5-6.4c0.3-0.9,0.7-1.1,1.6-1.1h0.5v1.2h-0.2c-0.4,0-0.6,0.1-0.7,0.5l-3.4,8.6h-1.5L70.3,123.3z"/>
	<path class="st2" d="M87.8,121.4c3,0,5.5,2.3,5.5,5.4c0,3.1-2.4,5.5-5.4,5.5s-5.5-2.3-5.5-5.5C82.4,123.7,84.9,121.4,87.8,121.4z
		 M87.9,130.9c2.2,0,4-1.8,4-4.2c0-2.3-1.8-4.1-4-4.1s-4,1.7-4,4.1C83.8,129.1,85.7,130.9,87.9,130.9z"/>
	<path class="st2" d="M98,123.3c0-0.3-0.2-0.5-0.5-0.5h-0.9v-1.2H98c0.9,0,1.3,0.3,1.3,1.2v0.7c0,0.4,0,0.8,0,0.8l0,0
		c0.5-1.6,1.6-2.7,3.3-2.7c0.3,0,0.6,0.1,0.6,0.1v1.4c0,0-0.2,0-0.5,0c-1.5,0-2.5,1.1-3,2.7c-0.2,0.7-0.3,1.4-0.3,2v4.4H98V123.3z"
		/>
	<path class="st2" d="M112.1,125.6h0.6v-0.1c0-2.2-0.8-2.9-2.7-2.9c-0.5,0-2,0.1-2,0.9v0.7h-1.3v-1c0-1.4,2.5-1.7,3.4-1.7
		c3.3,0,4,1.7,4,4v4.9c0,0.3,0.2,0.5,0.5,0.5h0.9v1.2H114c-0.9,0-1.2-0.4-1.2-1.2c0-0.5,0-0.8,0-0.8l0,0c0,0-0.8,2.2-3.4,2.2
		c-1.7,0-3.5-1-3.5-3.1C105.8,125.7,110.3,125.6,112.1,125.6z M109.5,131c2,0,3.2-2.1,3.2-3.8v-0.5h-0.6c-1.6,0-4.9,0-4.9,2.4
		C107.2,130,108,131,109.5,131z"/>
	<path class="st2" d="M119.8,122.8h-1.4v-1.2h1.4v-2.9h1.4v2.9h2.6v1.2h-2.6v5.3c0,2.4,1.5,2.7,2.3,2.7c0.3,0,0.5,0,0.5,0v1.3
		c0,0-0.2,0-0.6,0c-1.2,0-3.6-0.4-3.6-3.8L119.8,122.8L119.8,122.8z"/>
	<path class="st2" d="M132.9,121.4c3,0,5.5,2.3,5.5,5.4c0,3.1-2.4,5.5-5.4,5.5s-5.5-2.3-5.5-5.5
		C127.4,123.7,129.9,121.4,132.9,121.4z M132.9,130.9c2.2,0,4-1.8,4-4.2c0-2.3-1.8-4.1-4-4.1s-4,1.7-4,4.1S130.7,130.9,132.9,130.9z
		"/>
	<path class="st2" d="M143,123.3c0-0.3-0.2-0.5-0.5-0.5h-0.9v-1.2h1.4c0.9,0,1.3,0.3,1.3,1.2v0.7c0,0.4,0,0.8,0,0.8l0,0
		c0.5-1.6,1.6-2.7,3.3-2.7c0.3,0,0.6,0.1,0.6,0.1v1.4c0,0-0.2,0-0.5,0c-1.5,0-2.5,1.1-3,2.7c-0.2,0.7-0.3,1.4-0.3,2v4.4H143V123.3z"
		/>
	<path class="st2" d="M152.6,123.3c0-0.3-0.2-0.5-0.5-0.5h-0.9v-1.2h1.5c0.9,0,1.3,0.4,1.3,1.3v7.4c0,0.3,0.2,0.5,0.5,0.5h0.9v1.2
		h-1.5c-0.9,0-1.3-0.4-1.3-1.3V123.3z M152.5,117.5h1.4v1.8h-1.4V117.5z"/>
	<path class="st2" d="M167.3,123.3c0-0.3-0.2-0.5-0.5-0.5H166v-1.2h1.4c0.9,0,1.2,0.4,1.2,1.1c0,0.4,0,0.7,0,0.7l0,0
		c0,0,0.8-2,3.5-2c2.8,0,4.5,2.2,4.5,5.4c0,3.3-1.9,5.4-4.6,5.4c-2.5,0-3.4-1.9-3.4-1.9l0,0c0,0,0,0.4,0,0.9v4.9h-1.4L167.3,123.3
		L167.3,123.3z M172,131c1.8,0,3.3-1.5,3.3-4.2c0-2.5-1.3-4.1-3.3-4.1c-1.7,0-3.3,1.2-3.3,4.2C168.7,128.9,169.8,131,172,131z"/>
	<path class="st2" d="M181.4,123.3c0-0.3-0.2-0.5-0.5-0.5H180v-1.2h1.4c0.9,0,1.3,0.3,1.3,1.2v0.7c0,0.4,0,0.8,0,0.8l0,0
		c0.5-1.6,1.6-2.7,3.3-2.7c0.3,0,0.6,0.1,0.6,0.1v1.4c0,0-0.2,0-0.5,0c-1.5,0-2.5,1.1-3,2.7c-0.2,0.7-0.3,1.4-0.3,2v4.4h-1.4V123.3z
		"/>
	<path class="st2" d="M195,121.4c3,0,5.5,2.3,5.5,5.4c0,3.1-2.4,5.5-5.4,5.5s-5.5-2.3-5.5-5.5C189.5,123.7,192,121.4,195,121.4z
		 M195,130.9c2.2,0,4-1.8,4-4.2c0-2.3-1.8-4.1-4-4.1s-4,1.7-4,4.1S192.8,130.9,195,130.9z"/>
	<path class="st2" d="M204.3,123.3c-0.1-0.4-0.3-0.5-0.7-0.5h-0.2v-1.2h0.6c1,0,1.3,0.2,1.6,1.1l2.5,6.4c0.2,0.5,0.3,1.2,0.3,1.2
		l0,0c0,0,0.2-0.7,0.3-1.2l2.5-6.4c0.3-0.9,0.7-1.1,1.6-1.1h0.5v1.2h-0.2c-0.4,0-0.6,0.1-0.7,0.5l-3.4,8.6h-1.5L204.3,123.3z"/>
	<path class="st2" d="M221.5,121.4c2.9,0,4.3,2.2,4.3,4.8c0,0.2,0,0.7,0,0.7h-7.9c0,2.6,1.9,4.1,4,4.1c1.9,0,3.1-1.3,3.1-1.3l0.7,1
		c0,0-1.5,1.5-3.8,1.5c-3.1,0-5.4-2.2-5.4-5.4C216.4,123.4,218.7,121.4,221.5,121.4z M224.4,125.7c-0.1-2.1-1.4-3.2-2.9-3.2
		c-1.7,0-3.2,1.1-3.5,3.2H224.4z"/>
	<path class="st2" d="M230.7,123.3c0-0.3-0.2-0.5-0.5-0.5h-0.9v-1.2h1.4c0.9,0,1.3,0.4,1.3,1.1v0.5c0,0.4,0,0.7,0,0.7l0,0
		c0.4-0.9,1.7-2.6,4.1-2.6c2.6,0,3.5,1.5,3.5,4v4.9c0,0.3,0.2,0.5,0.5,0.5h0.9v1.2h-1.5c-0.9,0-1.3-0.4-1.3-1.3v-4.9
		c0-1.6-0.2-3.1-2.2-3.1c-1.8,0-3.3,1.2-3.8,2.9c-0.1,0.4-0.2,0.9-0.2,1.4v4.9h-1.4v-8.5H230.7z"/>
	<path class="st2" d="M245.3,123.3c0-0.3-0.2-0.5-0.5-0.5H244v-1.2h1.5c0.9,0,1.3,0.4,1.3,1.3v7.4c0,0.3,0.2,0.5,0.5,0.5h0.9v1.2
		h-1.5c-0.9,0-1.3-0.4-1.3-1.3v-7.4H245.3z M245.3,117.5h1.4v1.8h-1.4V117.5z"/>
	<path class="st2" d="M256.5,121.4c2.9,0,4.3,2.2,4.3,4.8c0,0.2,0,0.7,0,0.7h-7.9c0,2.6,1.9,4.1,4,4.1c1.9,0,3.1-1.3,3.1-1.3l0.7,1
		c0,0-1.5,1.5-3.8,1.5c-3.1,0-5.4-2.2-5.4-5.4C251.4,123.4,253.8,121.4,256.5,121.4z M259.4,125.7c-0.1-2.1-1.4-3.2-2.9-3.2
		c-1.7,0-3.2,1.1-3.5,3.2H259.4z"/>
	<path class="st2" d="M265.7,123.3c0-0.3-0.2-0.5-0.5-0.5h-0.9v-1.2h1.4c0.9,0,1.3,0.4,1.3,1.1v0.5c0,0.4,0,0.7,0,0.7l0,0
		c0.4-0.9,1.7-2.6,4.1-2.6c2.6,0,3.5,1.5,3.5,4v4.9c0,0.3,0.2,0.5,0.5,0.5h0.9v1.2h-1.5c-0.9,0-1.3-0.4-1.3-1.3v-4.9
		c0-1.6-0.2-3.1-2.2-3.1c-1.8,0-3.3,1.2-3.8,2.9c-0.1,0.4-0.2,0.9-0.2,1.4v4.9h-1.4v-8.5H265.7z"/>
	<path class="st2" d="M280.4,122.8H279v-1.2h1.4v-2.9h1.4v2.9h2.6v1.2h-2.6v5.3c0,2.4,1.5,2.7,2.3,2.7c0.3,0,0.5,0,0.5,0v1.3
		c0,0-0.2,0-0.6,0c-1.2,0-3.6-0.4-3.6-3.8L280.4,122.8L280.4,122.8z"/>
	<path class="st2" d="M289.3,123.3c0-0.3-0.2-0.5-0.5-0.5H288v-1.2h1.5c0.9,0,1.3,0.4,1.3,1.3v7.4c0,0.3,0.2,0.5,0.5,0.5h0.9v1.2
		h-1.5c-0.9,0-1.3-0.4-1.3-1.3v-7.4H289.3z M289.2,117.5h1.4v1.8h-1.4V117.5z"/>
	<path class="st2" d="M307.7,121.4c2.5,0,3.4,1.9,3.4,1.9l0,0c0,0,0-0.3,0-0.8v-3.3c0-0.3-0.2-0.5-0.5-0.5h-0.9v-1.2h1.5
		c0.9,0,1.3,0.4,1.3,1.3v11.5c0,0.3,0.2,0.5,0.5,0.5h0.9v1.2h-1.4c-0.9,0-1.2-0.4-1.2-1.1c0-0.4,0-0.7,0-0.7l0,0
		c0,0-0.8,2.1-3.5,2.1c-2.8,0-4.5-2.2-4.5-5.4C303.1,123.5,305,121.4,307.7,121.4z M311.1,126.8c0-2.1-1.1-4.1-3.3-4.1
		c-1.8,0-3.3,1.5-3.3,4.1c0,2.5,1.3,4.2,3.3,4.2C309.5,130.9,311.1,129.7,311.1,126.8z"/>
	<path class="st2" d="M323.5,125.6h0.6v-0.1c0-2.2-0.8-2.9-2.7-2.9c-0.5,0-2,0.1-2,0.9v0.7H318v-1c0-1.4,2.5-1.7,3.4-1.7
		c3.3,0,4,1.7,4,4v4.9c0,0.3,0.2,0.5,0.5,0.5h0.9v1.2h-1.4c-0.9,0-1.2-0.4-1.2-1.2c0-0.5,0-0.8,0-0.8l0,0c0,0-0.8,2.2-3.4,2.2
		c-1.7,0-3.5-1-3.5-3.1C317.2,125.7,321.7,125.6,323.5,125.6z M320.9,131c2,0,3.2-2.1,3.2-3.8v-0.5h-0.6c-1.6,0-4.9,0-4.9,2.4
		C318.6,130,319.4,131,320.9,131z"/>
	<path class="st2" d="M338.6,123.3c0-0.3-0.2-0.5-0.5-0.5h-0.9v-1.2h1.5c0.9,0,1.3,0.4,1.3,1.2v5c0,1.6,0.3,3.1,2.3,3.1
		c2.3,0,3.8-2.1,3.8-4.3v-4.9h1.4v8.7c0,0.3,0.2,0.5,0.5,0.5h0.9v1.2h-1.4c-0.9,0-1.3-0.4-1.3-1.1v-0.5c0-0.4,0-0.7,0-0.7l0,0
		c-0.4,1-1.8,2.6-4,2.6c-2.4,0-3.5-1.3-3.5-4L338.6,123.3L338.6,123.3z"/>
	<path class="st2" d="M353.1,123.3c0-0.3-0.2-0.5-0.5-0.5h-0.9v-1.2h1.4c0.9,0,1.3,0.4,1.3,1.1v0.5c0,0.4,0,0.7,0,0.7l0,0
		c0.4-0.9,1.7-2.6,4.1-2.6c2.6,0,3.5,1.5,3.5,4v4.9c0,0.3,0.2,0.5,0.5,0.5h0.9v1.2h-1.5c-0.9,0-1.3-0.4-1.3-1.3v-4.9
		c0-1.6-0.2-3.1-2.2-3.1c-1.8,0-3.3,1.2-3.8,2.9c-0.1,0.4-0.2,0.9-0.2,1.4v4.9H353L353.1,123.3L353.1,123.3z"/>
	<path class="st2" d="M375.3,123.3c0-0.3-0.2-0.5-0.5-0.5H374v-1.2h1.4c0.9,0,1.3,0.3,1.3,1.2v0.7c0,0.4,0,0.8,0,0.8l0,0
		c0.5-1.6,1.6-2.7,3.3-2.7c0.3,0,0.6,0.1,0.6,0.1v1.4c0,0-0.2,0-0.5,0c-1.5,0-2.5,1.1-3,2.7c-0.2,0.7-0.3,1.4-0.3,2v4.4h-1.4
		L375.3,123.3L375.3,123.3z"/>
	<path class="st2" d="M389.4,125.6h0.6v-0.1c0-2.2-0.8-2.9-2.7-2.9c-0.5,0-2,0.1-2,0.9v0.7H384v-1c0-1.4,2.5-1.7,3.4-1.7
		c3.3,0,4,1.7,4,4v4.9c0,0.3,0.2,0.5,0.5,0.5h0.9v1.2h-1.4c-0.9,0-1.2-0.4-1.2-1.2c0-0.5,0-0.8,0-0.8l0,0c0,0-0.8,2.2-3.4,2.2
		c-1.7,0-3.5-1-3.5-3.1C383.1,125.7,387.6,125.6,389.4,125.6z M386.8,131c2,0,3.2-2.1,3.2-3.8v-0.5h-0.6c-1.6,0-4.9,0-4.9,2.4
		C384.5,130,385.3,131,386.8,131z"/>
	<path class="st2" d="M400.5,121.4c2.8,0,3.4,1.8,3.4,1.8l0,0c0,0,0-0.2,0-0.4c0-0.7,0.3-1.1,1.2-1.1h1.4v1.2h-0.8
		c-0.3,0-0.5,0.1-0.5,0.5v8.4c0,3.3-2.4,4.6-5,4.6c-1.2,0-2.4-0.3-3.4-0.8l0.5-1.2c0,0,1.3,0.7,2.8,0.7c2,0,3.6-0.9,3.6-3.2V131
		c0-0.4,0-0.7,0-0.7l0,0c-0.6,1.1-1.6,1.8-3.2,1.8c-2.8,0-4.6-2.2-4.6-5.3C396.1,123.5,397.8,121.4,400.5,121.4z M403.9,126.6
		c0-3-1.4-3.9-3.3-3.9c-2,0-3.2,1.5-3.2,3.9c0,2.5,1.3,4.1,3.4,4.1C402.5,130.6,403.9,129.6,403.9,126.6z"/>
	<path class="st2" d="M414.5,121.4c2.8,0,3.4,1.8,3.4,1.8l0,0c0,0,0-0.2,0-0.4c0-0.7,0.3-1.1,1.2-1.1h1.4v1.2h-0.8
		c-0.3,0-0.5,0.1-0.5,0.5v8.4c0,3.3-2.4,4.6-5,4.6c-1.2,0-2.4-0.3-3.4-0.8l0.5-1.2c0,0,1.3,0.7,2.8,0.7c2,0,3.6-0.9,3.6-3.2V131
		c0-0.4,0-0.7,0-0.7l0,0c-0.6,1.1-1.6,1.8-3.2,1.8c-2.8,0-4.6-2.2-4.6-5.3C410,123.5,411.7,121.4,414.5,121.4z M417.9,126.6
		c0-3-1.4-3.9-3.3-3.9c-2,0-3.2,1.5-3.2,3.9c0,2.5,1.3,4.1,3.4,4.1C416.4,130.6,417.9,129.6,417.9,126.6z"/>
	<path class="st2" d="M425,123.3c0-0.3-0.2-0.5-0.5-0.5h-0.9v-1.2h1.5c0.9,0,1.3,0.4,1.3,1.3v7.4c0,0.3,0.2,0.5,0.5,0.5h0.9v1.2
		h-1.5c-0.9,0-1.3-0.4-1.3-1.3V123.3z M424.9,117.5h1.4v1.8h-1.4V117.5z"/>
	<path class="st2" d="M436.5,121.4c3,0,5.5,2.3,5.5,5.4c0,3.1-2.4,5.5-5.4,5.5s-5.5-2.3-5.5-5.5
		C431.1,123.7,433.5,121.4,436.5,121.4z M436.6,130.9c2.2,0,4-1.8,4-4.2c0-2.3-1.8-4.1-4-4.1s-4,1.7-4,4.1
		C432.5,129.1,434.3,130.9,436.6,130.9z"/>
	<path class="st2" d="M454.1,129.4l7.5-3.3l0,0l-7.5-3.3v-1.4l9.3,4.1v1l-9.3,4.1V129.4z"/>
	<path class="st2" d="M475.9,130.7h3.2v-10.6c0-0.4,0-0.8,0-0.8l0,0c0,0-0.1,0.3-0.7,0.9l-1.5,1.5l-0.9-0.9l3.3-3.2h1.4v13.2h3.2
		v1.3h-7.8v-1.4H475.9z"/>
	<path class="st2" d="M487.4,124.7c0-4.1,1.2-7.4,5-7.4s5,3.3,5,7.4c0,4.2-1.2,7.5-5,7.5C488.6,132.2,487.4,128.9,487.4,124.7z
		 M495.8,124.7c0-3.4-0.8-6.1-3.5-6.1s-3.5,2.7-3.5,6.1c0,3.4,0.8,6.1,3.5,6.1C495.1,130.9,495.8,128.2,495.8,124.7z"/>
	<path class="st2" d="M502.8,119.2c0-0.3-0.2-0.5-0.5-0.5h-0.9v-1.3h1.5c0.9,0,1.3,0.4,1.3,1.3v5h1.7c0.5,0,1-0.1,1.2-0.5l3.5-5.7
		h1.6l-3.7,6.1c-0.4,0.6-0.7,0.8-0.7,0.8l0,0c0,0,0.3,0.1,0.7,0.8l2.5,5c0.2,0.4,0.5,0.5,1,0.5h0.4v1.3h-0.8c-1.2,0-1.5-0.1-2-1.1
		l-2.6-5.3c-0.2-0.5-0.7-0.5-1.3-0.5h-1.6v6.9h-1.4L502.8,119.2L502.8,119.2z"/>
	<path class="st2" d="M516.5,123.3c0-0.3-0.2-0.5-0.5-0.5h-0.9v-1.2h1.4c0.9,0,1.3,0.4,1.3,1.1v0.5c0,0.4,0,0.7,0,0.7l0,0
		c0.5-1.4,2.1-2.6,3.7-2.6c1.9,0,2.9,0.9,3.2,2.6l0,0c0.6-1.4,2.1-2.6,3.8-2.6c2.5,0,3.4,1.5,3.4,4v4.9c0,0.3,0.2,0.5,0.5,0.5h0.9
		v1.2h-1.5c-0.9,0-1.3-0.4-1.3-1.3v-5c0-1.7-0.3-3.1-2.2-3.1c-1.6,0-2.9,1.4-3.3,2.9c-0.1,0.5-0.2,0.9-0.2,1.5v4.9h-1.4v-6.2
		c0-1.6-0.2-3.1-2.2-3.1c-1.7,0-2.9,1.5-3.4,3c-0.1,0.4-0.2,0.9-0.2,1.4v4.9h-1.4v-8.5H516.5z"/>
	<path class="st2" d="M192.2,141.9c2.5,0,3.4,1.9,3.4,1.9l0,0c0,0,0-0.3,0-0.8v-3.3c0-0.3-0.2-0.5-0.5-0.5h-0.9V138h1.5
		c0.9,0,1.3,0.4,1.3,1.3v11.5c0,0.3,0.2,0.5,0.5,0.5h0.9v1.2H197c-0.9,0-1.2-0.4-1.2-1.1c0-0.4,0-0.7,0-0.7l0,0c0,0-0.8,2.1-3.5,2.1
		c-2.8,0-4.5-2.2-4.5-5.4C187.5,144,189.5,141.9,192.2,141.9z M195.6,147.3c0-2.1-1.1-4.1-3.3-4.1c-1.8,0-3.3,1.5-3.3,4.1
		c0,2.5,1.3,4.2,3.3,4.2C194,151.5,195.6,150.2,195.6,147.3z"/>
	<path class="st2" d="M207.9,146.1h0.6V146c0-2.2-0.8-2.9-2.7-2.9c-0.5,0-2,0.1-2,0.9v0.7h-1.3v-1c0-1.4,2.5-1.7,3.4-1.7
		c3.3,0,4,1.7,4,4v4.9c0,0.3,0.2,0.5,0.5,0.5h0.9v1.2h-1.4c-0.9,0-1.2-0.4-1.2-1.2c0-0.5,0-0.8,0-0.8l0,0c0,0-0.8,2.2-3.4,2.2
		c-1.7,0-3.5-1-3.5-3.1C201.6,146.2,206.2,146.1,207.9,146.1z M205.4,151.5c2,0,3.2-2.1,3.2-3.8v-0.5H208c-1.6,0-4.9,0-4.9,2.4
		C203.1,150.5,203.8,151.5,205.4,151.5z"/>
	<path class="st2" d="M215.6,143.8c0-0.3-0.2-0.5-0.5-0.5h-0.9v-1.2h1.5c0.9,0,1.3,0.4,1.3,1.3v7.4c0,0.3,0.2,0.5,0.5,0.5h0.9v1.2
		h-1.5c-0.9,0-1.3-0.4-1.3-1.3V143.8z M215.6,138h1.4v1.8h-1.4V138z"/>
	<path class="st2" d="M229.9,150c0,0,1.1,1.6,3.2,1.6c1.1,0,2.2-0.6,2.2-1.6c0-2.3-5.8-1.8-5.8-5.2c0-1.9,1.6-2.8,3.7-2.8
		c1,0,3.1,0.4,3.1,1.9v0.9H235v-0.5c0-0.8-1.1-1-1.8-1c-1.4,0-2.3,0.5-2.3,1.5c0,2.3,5.8,1.8,5.8,5.2c0,1.7-1.6,2.9-3.6,2.9
		c-2.7,0-4-1.8-4-1.8L229.9,150z"/>
	<path class="st2" d="M241.5,143.8c0-0.3-0.2-0.5-0.5-0.5h-0.9v-1.2h1.5c0.9,0,1.3,0.4,1.3,1.3v7.4c0,0.3,0.2,0.5,0.5,0.5h0.9v1.2
		h-1.5c-0.9,0-1.3-0.4-1.3-1.3V143.8z M241.5,138h1.4v1.8h-1.4V138z"/>
	<path class="st2" d="M248.7,143.3h-1.4v-1.2h1.4v-2.9h1.4v2.9h2.6v1.2h-2.6v5.3c0,2.4,1.5,2.7,2.3,2.7c0.3,0,0.5,0,0.5,0v1.3
		c0,0-0.2,0-0.6,0c-1.2,0-3.6-0.4-3.6-3.8L248.7,143.3L248.7,143.3z"/>
	<path class="st2" d="M257.7,143.8c0-0.3-0.2-0.5-0.5-0.5h-0.9v-1.2h1.5c0.9,0,1.3,0.4,1.3,1.3v7.4c0,0.3,0.2,0.5,0.5,0.5h0.9v1.2
		H259c-0.9,0-1.3-0.4-1.3-1.3V143.8z M257.6,138h1.4v1.8h-1.4V138z"/>
	<path class="st2" d="M272.4,143.8c0-0.3-0.2-0.5-0.5-0.5H271v-1.2h1.4c0.9,0,1.2,0.4,1.2,1.1c0,0.4,0,0.7,0,0.7l0,0
		c0,0,0.8-2,3.5-2c2.8,0,4.5,2.2,4.5,5.4c0,3.3-1.9,5.4-4.6,5.4c-2.5,0-3.4-1.9-3.4-1.9l0,0c0,0,0,0.4,0,0.9v4.9h-1.4v-12.8H272.4z
		 M277,151.5c1.8,0,3.3-1.5,3.3-4.2c0-2.5-1.3-4.1-3.3-4.1c-1.7,0-3.3,1.2-3.3,4.2C273.7,149.4,274.9,151.5,277,151.5z"/>
	<path class="st2" d="M286.5,143.8c0-0.3-0.2-0.5-0.5-0.5h-0.9v-1.2h1.4c0.9,0,1.3,0.3,1.3,1.2v0.7c0,0.4,0,0.8,0,0.8l0,0
		c0.5-1.6,1.6-2.7,3.3-2.7c0.3,0,0.6,0.1,0.6,0.1v1.4c0,0-0.2,0-0.5,0c-1.5,0-2.5,1.1-3,2.7c-0.2,0.7-0.3,1.4-0.3,2v4.4h-1.4V143.8z
		"/>
	<path class="st2" d="M300,141.9c3,0,5.5,2.3,5.5,5.4c0,3.1-2.4,5.5-5.4,5.5s-5.5-2.3-5.5-5.5C294.6,144.2,297,141.9,300,141.9z
		 M300.1,151.5c2.2,0,4-1.8,4-4.2c0-2.3-1.8-4.1-4-4.1s-4,1.7-4,4.1C296,149.7,297.8,151.5,300.1,151.5z"/>
	<path class="st2" d="M313.9,141.9c2.5,0,3.4,1.9,3.4,1.9l0,0c0,0,0-0.3,0-0.8v-3.3c0-0.3-0.2-0.5-0.5-0.5h-0.9V138h1.5
		c0.9,0,1.3,0.4,1.3,1.3v11.5c0,0.3,0.2,0.5,0.5,0.5h0.9v1.2h-1.4c-0.9,0-1.2-0.4-1.2-1.1c0-0.4,0-0.7,0-0.7l0,0
		c0,0-0.8,2.1-3.5,2.1c-2.8,0-4.5-2.2-4.5-5.4C309.2,144,311.2,141.9,313.9,141.9z M317.3,147.3c0-2.1-1.1-4.1-3.3-4.1
		c-1.8,0-3.3,1.5-3.3,4.1c0,2.5,1.3,4.2,3.3,4.2C315.7,151.5,317.3,150.2,317.3,147.3z"/>
	<path class="st2" d="M324.2,143.8c0-0.3-0.2-0.5-0.5-0.5h-0.9v-1.2h1.5c0.9,0,1.3,0.4,1.3,1.2v5c0,1.6,0.3,3.1,2.3,3.1
		c2.3,0,3.8-2.1,3.8-4.3v-4.9h1.4v8.7c0,0.3,0.2,0.5,0.5,0.5h0.9v1.2H333c-0.9,0-1.3-0.4-1.3-1.1V151c0-0.4,0-0.7,0-0.7l0,0
		c-0.4,1-1.8,2.6-4,2.6c-2.4,0-3.5-1.3-3.5-4V143.8z"/>
	<path class="st2" d="M338.8,143.3h-1.4v-1.2h1.4v-2.9h1.4v2.9h2.6v1.2h-2.6v5.3c0,2.4,1.5,2.7,2.3,2.7c0.3,0,0.5,0,0.5,0v1.3
		c0,0-0.2,0-0.6,0c-1.2,0-3.6-0.4-3.6-3.8L338.8,143.3L338.8,143.3z"/>
	<path class="st2" d="M347.8,143.3h-1.4v-1.2h1.4v-2.9h1.4v2.9h2.6v1.2h-2.6v5.3c0,2.4,1.5,2.7,2.3,2.7c0.3,0,0.5,0,0.5,0v1.3
		c0,0-0.2,0-0.6,0c-1.2,0-3.6-0.4-3.6-3.8L347.8,143.3L347.8,143.3z"/>
	<path class="st2" d="M356.7,143.8c0-0.3-0.2-0.5-0.5-0.5h-0.9v-1.2h1.5c0.9,0,1.3,0.4,1.3,1.3v7.4c0,0.3,0.2,0.5,0.5,0.5h0.9v1.2
		H358c-0.9,0-1.3-0.4-1.3-1.3V143.8z M356.6,138h1.4v1.8h-1.4V138z"/>
	<path class="st2" d="M363.1,143.8c-0.1-0.4-0.3-0.5-0.7-0.5h-0.2v-1.2h0.6c1,0,1.3,0.2,1.6,1.1l2.5,6.4c0.2,0.5,0.3,1.2,0.3,1.2
		l0,0c0,0,0.2-0.7,0.3-1.2l2.5-6.4c0.3-0.9,0.7-1.1,1.6-1.1h0.5v1.2H372c-0.4,0-0.6,0.1-0.7,0.5l-3.4,8.6h-1.5L363.1,143.8z"/>
	<path class="st2" d="M376.5,143.8c0-0.3-0.2-0.5-0.5-0.5h-0.9v-1.2h1.5c0.9,0,1.3,0.4,1.3,1.3v7.4c0,0.3,0.2,0.5,0.5,0.5h0.9v1.2
		h-1.5c-0.9,0-1.3-0.4-1.3-1.3V143.8z M376.4,138h1.4v1.8h-1.4V138z"/>
	<path class="st2" d="M385.1,145.6c0-2.9-0.7-5.5-2.2-8.1h1.3c1.5,2.4,2.2,5.2,2.2,8.2c0,3.2-0.9,6.3-2.4,8.8h-1.3
		C384.3,151.7,385.1,148.6,385.1,145.6z"/>
</g>
<g>
	<path class="st2" d="M90.3,211.1H89v-1.3h7.7c0.9,0,1.2,0.4,1.2,1.3v1.4h-1.3v-1c0-0.3-0.2-0.5-0.5-0.5h-4.4v5.4h5.2v1.3h-5.2v6.5
		h-1.4V211.1z"/>
	<path class="st2" d="M106.5,213.7c3,0,5.5,2.3,5.5,5.4s-2.4,5.5-5.4,5.5s-5.5-2.3-5.5-5.5C101.1,216,103.5,213.7,106.5,213.7z
		 M106.5,223.3c2.2,0,4-1.8,4-4.2c0-2.3-1.8-4.1-4-4.1c-2.2,0-4,1.7-4,4.1C102.5,221.5,104.3,223.3,106.5,223.3z"/>
	<path class="st2" d="M116.6,215.6c0-0.3-0.2-0.5-0.5-0.5h-0.9V214h1.4c0.9,0,1.3,0.3,1.3,1.2v0.7c0,0.4,0,0.8,0,0.8l0,0
		c0.5-1.6,1.6-2.7,3.3-2.7c0.3,0,0.6,0.1,0.6,0.1v1.4c0,0-0.2,0-0.5,0c-1.5,0-2.5,1.1-3,2.7c-0.2,0.7-0.3,1.4-0.3,2v4.4h-1.4V215.6z
		"/>
	<path class="st2" d="M126.3,215.6c0-0.3-0.2-0.5-0.5-0.5H125V214h1.4c0.9,0,1.3,0.4,1.3,1.1v0.5c0,0.4,0,0.7,0,0.7l0,0
		c0.4-0.9,1.7-2.6,4.1-2.6c2.6,0,3.5,1.5,3.5,4v4.9c0,0.3,0.2,0.5,0.5,0.5h0.9v1.2h-1.5c-0.9,0-1.3-0.4-1.3-1.3v-4.9
		c0-1.6-0.2-3.1-2.2-3.1c-1.8,0-3.3,1.2-3.8,2.9c-0.1,0.4-0.2,0.9-0.2,1.4v4.9h-1.4V215.6z"/>
	<path class="st2" d="M140.9,215.6c0-0.3-0.2-0.5-0.5-0.5h-0.9V214h1.5c0.9,0,1.3,0.4,1.3,1.3v7.4c0,0.3,0.2,0.5,0.5,0.5h0.9v1.2
		h-1.5c-0.9,0-1.3-0.4-1.3-1.3V215.6z M140.9,209.9h1.4v1.8h-1.4V209.9z"/>
	<path class="st2" d="M148.1,215.1h-1.4V214h1.4v-2.9h1.4v2.9h2.6v1.2h-2.6v5.3c0,2.4,1.5,2.7,2.3,2.7c0.3,0,0.5,0,0.5,0v1.3
		c0,0-0.2,0-0.6,0c-1.2,0-3.6-0.4-3.6-3.8L148.1,215.1L148.1,215.1z"/>
	<path class="st2" d="M156.9,215.6c0-0.3-0.2-0.5-0.5-0.5h-0.9V214h1.5c0.9,0,1.3,0.4,1.3,1.2v5c0,1.6,0.3,3.1,2.3,3.1
		c2.3,0,3.8-2.1,3.8-4.3v-5h1.4v8.7c0,0.3,0.2,0.5,0.5,0.5h0.9v1.2h-1.4c-0.9,0-1.3-0.4-1.3-1.1v-0.5c0-0.4,0-0.7,0-0.7l0,0
		c-0.4,1-1.8,2.6-4,2.6c-2.4,0-3.5-1.3-3.5-4L156.9,215.6L156.9,215.6z"/>
	<path class="st2" d="M171.4,215.6c0-0.3-0.2-0.5-0.5-0.5H170V214h1.4c0.9,0,1.3,0.3,1.3,1.2v0.7c0,0.4,0,0.8,0,0.8l0,0
		c0.5-1.6,1.6-2.7,3.3-2.7c0.3,0,0.6,0.1,0.6,0.1v1.4c0,0-0.2,0-0.5,0c-1.5,0-2.5,1.1-3,2.7c-0.2,0.7-0.3,1.4-0.3,2v4.4h-1.4V215.6z
		"/>
	<path class="st2" d="M184.6,213.7c2.9,0,4.3,2.2,4.3,4.8c0,0.2,0,0.7,0,0.7H181c0,2.6,1.9,4.1,4,4.1c1.9,0,3.1-1.3,3.1-1.3l0.7,1
		c0,0-1.5,1.5-3.8,1.5c-3.1,0-5.4-2.2-5.4-5.4C179.5,215.8,181.8,213.7,184.6,213.7z M187.5,218.1c-0.1-2.1-1.4-3.2-2.9-3.2
		c-1.7,0-3.2,1.1-3.5,3.2H187.5z"/>
	<path class="st2" d="M201.4,211.5c0-0.3-0.2-0.5-0.5-0.5H200v-1.2h1.5c0.9,0,1.3,0.4,1.3,1.3v11.5c0,0.3,0.2,0.5,0.5,0.5h0.9v1.2
		h-1.5c-0.9,0-1.3-0.4-1.3-1.3V211.5z"/>
	<path class="st2" d="M212.9,213.7c3,0,5.5,2.3,5.5,5.4s-2.4,5.5-5.4,5.5s-5.5-2.3-5.5-5.5C207.5,216,209.9,213.7,212.9,213.7z
		 M213,223.3c2.2,0,4-1.8,4-4.2c0-2.3-1.8-4.1-4-4.1s-4,1.7-4,4.1C208.9,221.5,210.7,223.3,213,223.3z"/>
	<path class="st2" d="M227.5,213.7c1.2,0,3.7,0.5,3.7,2.2v0.9h-1.3v-0.6c0-0.9-1.5-1.3-2.4-1.3c-2.2,0-4,1.7-4,4.2s1.9,4.1,4,4.1
		s3.3-1.5,3.3-1.5l0.7,1c0,0-1.4,1.7-4,1.7c-3.1,0-5.4-2.2-5.4-5.4C222.1,216,224.4,213.7,227.5,213.7z"/>
	<path class="st2" d="M241.3,217.9h0.6v-0.1c0-2.2-0.8-2.9-2.7-2.9c-0.5,0-2,0.1-2,0.9v0.7h-1.3v-1c0-1.4,2.5-1.7,3.4-1.7
		c3.3,0,4,1.7,4,4v4.9c0,0.3,0.2,0.5,0.5,0.5h0.9v1.2h-1.4c-0.9,0-1.2-0.4-1.2-1.2c0-0.5,0-0.8,0-0.8l0,0c0,0-0.8,2.2-3.4,2.2
		c-1.7,0-3.5-1-3.5-3.1C235,218.1,239.5,217.9,241.3,217.9z M238.7,223.3c2,0,3.2-2.1,3.2-3.8V219h-0.6c-1.6,0-4.9,0-4.9,2.4
		C236.4,222.4,237.2,223.3,238.7,223.3z"/>
	<path class="st2" d="M248.8,211.5c0-0.3-0.2-0.5-0.5-0.5h-0.9v-1.2h1.5c0.9,0,1.3,0.4,1.3,1.3v11.5c0,0.3,0.2,0.5,0.5,0.5h0.9v1.2
		h-1.5c-0.9,0-1.3-0.4-1.3-1.3V211.5z"/>
	<path class="st2" d="M256,215.6c0-0.3-0.2-0.5-0.5-0.5h-0.9V214h1.5c0.9,0,1.3,0.4,1.3,1.3v7.4c0,0.3,0.2,0.5,0.5,0.5h0.9v1.2h-1.5
		c-0.9,0-1.3-0.4-1.3-1.3V215.6z M256,209.9h1.4v1.8H256V209.9z"/>
	<path class="st2" d="M272.9,209.3h1.3c-1.5,2.5-2.2,5.2-2.2,8.1c0,3.1,0.8,6.1,2.4,8.9h-1.3c-1.5-2.4-2.4-5.6-2.4-8.8
		C270.7,214.5,271.5,211.7,272.9,209.3z"/>
	<path class="st2" d="M283.3,213.7c2.9,0,4.3,2.2,4.3,4.8c0,0.2,0,0.7,0,0.7h-7.9c0,2.6,1.9,4.1,4,4.1c1.9,0,3.1-1.3,3.1-1.3l0.7,1
		c0,0-1.5,1.5-3.8,1.5c-3.1,0-5.4-2.2-5.4-5.4C278.2,215.8,280.5,213.7,283.3,213.7z M286.2,218.1c-0.1-2.1-1.4-3.2-2.9-3.2
		c-1.7,0-3.2,1.1-3.5,3.2H286.2z"/>
	<path class="st2" d="M292.1,221.8c0,0,1.1,1.6,3.2,1.6c1.1,0,2.2-0.6,2.2-1.6c0-2.3-5.8-1.8-5.8-5.2c0-1.9,1.6-2.8,3.7-2.8
		c1,0,3.1,0.4,3.1,1.9v0.9h-1.3V216c0-0.8-1.1-1-1.8-1c-1.4,0-2.3,0.5-2.3,1.5c0,2.3,5.8,1.8,5.8,5.2c0,1.7-1.6,2.9-3.6,2.9
		c-2.7,0-4-1.8-4-1.8L292.1,221.8z"/>
	<path class="st2" d="M308,213.7c1.2,0,3.7,0.5,3.7,2.2v0.9h-1.3v-0.6c0-0.9-1.5-1.3-2.4-1.3c-2.2,0-4,1.7-4,4.2s1.9,4.1,4,4.1
		s3.3-1.5,3.3-1.5l0.7,1c0,0-1.4,1.7-4,1.7c-3.1,0-5.4-2.2-5.4-5.4C302.6,216,304.9,213.7,308,213.7z"/>
	<path class="st2" d="M316.4,211.5c0-0.3-0.2-0.5-0.5-0.5H315v-1.2h1.5c0.9,0,1.3,0.4,1.3,1.3v11.5c0,0.3,0.2,0.5,0.5,0.5h0.9v1.2
		h-1.5c-0.9,0-1.3-0.4-1.3-1.3V211.5z"/>
	<path class="st2" d="M323.4,215.6c0-0.3-0.2-0.5-0.5-0.5H322V214h1.5c0.9,0,1.3,0.4,1.3,1.2v5c0,1.6,0.3,3.1,2.3,3.1
		c2.3,0,3.8-2.1,3.8-4.3v-5h1.4v8.7c0,0.3,0.2,0.5,0.5,0.5h0.9v1.2h-1.4c-0.9,0-1.3-0.4-1.3-1.1v-0.5c0-0.4,0-0.7,0-0.7l0,0
		c-0.4,1-1.8,2.6-4,2.6c-2.4,0-3.5-1.3-3.5-4L323.4,215.6L323.4,215.6z"/>
	<path class="st2" d="M337.5,221.8c0,0,1.1,1.6,3.2,1.6c1.1,0,2.2-0.6,2.2-1.6c0-2.3-5.8-1.8-5.8-5.2c0-1.9,1.6-2.8,3.7-2.8
		c1,0,3.1,0.4,3.1,1.9v0.9h-1.3V216c0-0.8-1.1-1-1.8-1c-1.4,0-2.3,0.5-2.3,1.5c0,2.3,5.8,1.8,5.8,5.2c0,1.7-1.6,2.9-3.6,2.9
		c-2.7,0-4-1.8-4-1.8L337.5,221.8z"/>
	<path class="st2" d="M353.1,213.7c2.9,0,4.3,2.2,4.3,4.8c0,0.2,0,0.7,0,0.7h-7.9c0,2.6,1.9,4.1,4,4.1c1.9,0,3.1-1.3,3.1-1.3l0.7,1
		c0,0-1.5,1.5-3.8,1.5c-3.1,0-5.4-2.2-5.4-5.4C348,215.8,350.3,213.7,353.1,213.7z M356,218.1c-0.1-2.1-1.4-3.2-2.9-3.2
		c-1.7,0-3.2,1.1-3.5,3.2H356z"/>
	<path class="st2" d="M369.9,211.5c0-0.3-0.2-0.5-0.5-0.5h-0.9v-1.2h1.5c0.9,0,1.3,0.4,1.3,1.3v11.5c0,0.3,0.2,0.5,0.5,0.5h0.9v1.2
		h-1.5c-0.9,0-1.3-0.4-1.3-1.3V211.5z"/>
	<path class="st2" d="M381.1,213.7c2.9,0,4.3,2.2,4.3,4.8c0,0.2,0,0.7,0,0.7h-7.9c0,2.6,1.9,4.1,4,4.1c1.9,0,3.1-1.3,3.1-1.3l0.7,1
		c0,0-1.5,1.5-3.8,1.5c-3.1,0-5.4-2.2-5.4-5.4C376,215.8,378.3,213.7,381.1,213.7z M384,218.1c-0.1-2.1-1.4-3.2-2.9-3.2
		c-1.7,0-3.2,1.1-3.5,3.2H384z"/>
	<path class="st2" d="M397.9,215.6c0-0.3-0.2-0.5-0.5-0.5h-0.9V214h1.5c0.9,0,1.3,0.4,1.3,1.2v5c0,1.6,0.3,3.1,2.3,3.1
		c2.3,0,3.8-2.1,3.8-4.3v-5h1.4v8.7c0,0.3,0.2,0.5,0.5,0.5h0.9v1.2h-1.4c-0.9,0-1.3-0.4-1.3-1.1v-0.5c0-0.4,0-0.7,0-0.7l0,0
		c-0.4,1-1.8,2.6-4,2.6c-2.4,0-3.5-1.3-3.5-4L397.9,215.6L397.9,215.6z"/>
	<path class="st2" d="M412.5,215.1h-1.4V214h1.4v-2.9h1.4v2.9h2.6v1.2h-2.6v5.3c0,2.4,1.5,2.7,2.3,2.7c0.3,0,0.5,0,0.5,0v1.3
		c0,0-0.2,0-0.6,0c-1.2,0-3.6-0.4-3.6-3.8L412.5,215.1L412.5,215.1z"/>
	<path class="st2" d="M421.4,215.6c0-0.3-0.2-0.5-0.5-0.5H420V214h1.5c0.9,0,1.3,0.4,1.3,1.3v7.4c0,0.3,0.2,0.5,0.5,0.5h0.9v1.2
		h-1.5c-0.9,0-1.3-0.4-1.3-1.3V215.6z M421.3,209.9h1.4v1.8h-1.4V209.9z"/>
	<path class="st2" d="M428.5,211.5c0-0.3-0.2-0.5-0.5-0.5h-0.9v-1.2h1.5c0.9,0,1.3,0.4,1.3,1.3v11.5c0,0.3,0.2,0.5,0.5,0.5h0.9v1.2
		h-1.5c-0.9,0-1.3-0.4-1.3-1.3V211.5z"/>
	<path class="st2" d="M435.7,215.6c0-0.3-0.2-0.5-0.5-0.5h-0.9V214h1.5c0.9,0,1.3,0.4,1.3,1.3v7.4c0,0.3,0.2,0.5,0.5,0.5h0.9v1.2
		H437c-0.9,0-1.3-0.4-1.3-1.3V215.6z M435.6,209.9h1.4v1.8h-1.4V209.9z"/>
	<path class="st2" d="M442.9,215.1h-1.4V214h1.4v-2.9h1.4v2.9h2.6v1.2h-2.6v5.3c0,2.4,1.5,2.7,2.3,2.7c0.3,0,0.5,0,0.5,0v1.3
		c0,0-0.2,0-0.6,0c-1.2,0-3.6-0.4-3.6-3.8L442.9,215.1L442.9,215.1z"/>
	<path class="st2" d="M451.8,215.6c0-0.3-0.2-0.5-0.5-0.5h-0.9V214h1.5c0.9,0,1.3,0.4,1.3,1.3v7.4c0,0.3,0.2,0.5,0.5,0.5h0.9v1.2
		h-1.5c-0.9,0-1.3-0.4-1.3-1.3V215.6z M451.8,209.9h1.4v1.8h-1.4V209.9z"/>
	<path class="st2" d="M463,213.7c2.9,0,4.3,2.2,4.3,4.8c0,0.2,0,0.7,0,0.7h-7.9c0,2.6,1.9,4.1,4,4.1c1.9,0,3.1-1.3,3.1-1.3l0.7,1
		c0,0-1.5,1.5-3.8,1.5c-3.1,0-5.4-2.2-5.4-5.4C457.9,215.8,460.3,213.7,463,213.7z M465.9,218.1c-0.1-2.1-1.4-3.2-2.9-3.2
		c-1.7,0-3.2,1.1-3.6,3.2H465.9z"/>
	<path class="st2" d="M471.8,221.8c0,0,1.1,1.6,3.2,1.6c1.1,0,2.2-0.6,2.2-1.6c0-2.3-5.8-1.8-5.8-5.2c0-1.9,1.6-2.8,3.7-2.8
		c1,0,3.1,0.4,3.1,1.9v0.9h-1.3V216c0-0.8-1.1-1-1.8-1c-1.4,0-2.3,0.5-2.3,1.5c0,2.3,5.8,1.8,5.8,5.2c0,1.7-1.6,2.9-3.6,2.9
		c-2.7,0-4-1.8-4-1.8L471.8,221.8z"/>
	<path class="st2" d="M484.8,217.4c0-2.9-0.7-5.5-2.2-8.1h1.3c1.5,2.4,2.2,5.2,2.2,8.2c0,3.2-0.9,6.3-2.4,8.8h-1.3
		C484,223.5,484.8,220.4,484.8,217.4z"/>
</g>
<g>
	<path class="st2" d="M182.1,291.1h1.4v-11.9h-1.4V278h4.1v1.3h-1.4v11.9h1.4v1.3h-4.1V291.1z"/>
	<path class="st2" d="M191,283.7c0-0.3-0.2-0.5-0.5-0.5h-0.9V282h1.4c0.9,0,1.3,0.4,1.3,1.1v0.5c0,0.4,0,0.7,0,0.7l0,0
		c0.5-1.4,2.1-2.6,3.7-2.6c1.9,0,2.9,0.9,3.2,2.6l0,0c0.6-1.4,2.1-2.6,3.8-2.6c2.5,0,3.4,1.5,3.4,4v4.9c0,0.3,0.2,0.5,0.5,0.5h0.9
		v1.2h-1.5c-0.9,0-1.3-0.4-1.3-1.3v-5c0-1.7-0.3-3.1-2.2-3.1c-1.6,0-2.9,1.4-3.3,2.9c-0.1,0.5-0.2,0.9-0.2,1.5v4.9h-1.4V286
		c0-1.6-0.2-3.1-2.2-3.1c-1.7,0-2.9,1.5-3.4,3c-0.1,0.4-0.2,0.9-0.2,1.4v4.9H191V283.7z"/>
	<path class="st2" d="M212.2,283.7c0-0.3-0.2-0.5-0.5-0.5h-0.9V282h1.4c0.9,0,1.2,0.4,1.2,1.1c0,0.4,0,0.7,0,0.7l0,0
		c0,0,0.8-2,3.5-2c2.8,0,4.5,2.2,4.5,5.4c0,3.3-1.9,5.4-4.6,5.4c-2.5,0-3.4-1.9-3.4-1.9l0,0c0,0,0,0.4,0,0.9v4.9H212v-12.8H212.2z
		 M216.8,291.4c1.8,0,3.3-1.5,3.3-4.2c0-2.5-1.3-4.1-3.3-4.1c-1.7,0-3.3,1.2-3.3,4.2C213.5,289.3,214.7,291.4,216.8,291.4z"/>
	<path class="st2" d="M230.8,281.8c3,0,5.5,2.3,5.5,5.4s-2.4,5.5-5.4,5.5s-5.5-2.3-5.5-5.5C225.3,284.1,227.8,281.8,230.8,281.8z
		 M230.8,291.4c2.2,0,4-1.8,4-4.2c0-2.3-1.8-4.1-4-4.1s-4,1.7-4,4.1C226.8,289.6,228.6,291.4,230.8,291.4z"/>
	<path class="st2" d="M240.5,289.9c0,0,1.1,1.6,3.2,1.6c1.1,0,2.2-0.6,2.2-1.6c0-2.3-5.8-1.8-5.8-5.2c0-1.9,1.6-2.8,3.7-2.8
		c1,0,3.1,0.4,3.1,1.9v0.9h-1.3v-0.5c0-0.8-1.1-1-1.8-1c-1.4,0-2.3,0.5-2.3,1.5c0,2.3,5.8,1.8,5.8,5.2c0,1.7-1.6,2.9-3.6,2.9
		c-2.7,0-4-1.8-4-1.8L240.5,289.9z"/>
	<path class="st2" d="M252.1,283.2h-1.4V282h1.4v-2.9h1.4v2.9h2.6v1.2h-2.6v5.3c0,2.4,1.5,2.7,2.3,2.7c0.3,0,0.5,0,0.5,0v1.3
		c0,0-0.2,0-0.6,0c-1.2,0-3.6-0.4-3.6-3.8L252.1,283.2L252.1,283.2z"/>
	<path class="st2" d="M264.8,281.8c2.9,0,4.3,2.2,4.3,4.8c0,0.2,0,0.7,0,0.7h-7.9c0,2.6,1.9,4.1,4,4.1c1.9,0,3.1-1.3,3.1-1.3l0.7,1
		c0,0-1.5,1.5-3.8,1.5c-3.1,0-5.4-2.2-5.4-5.4C259.7,283.8,262,281.8,264.8,281.8z M267.7,286.2c-0.1-2.1-1.4-3.2-2.9-3.2
		c-1.7,0-3.2,1.1-3.5,3.2H267.7z"/>
	<path class="st2" d="M281.7,283.2h-1.4V282h1.4v-2.9h1.4v2.9h2.6v1.2h-2.6v5.3c0,2.4,1.5,2.7,2.3,2.7c0.3,0,0.5,0,0.5,0v1.3
		c0,0-0.2,0-0.6,0c-1.2,0-3.6-0.4-3.6-3.8L281.7,283.2L281.7,283.2z"/>
	<path class="st2" d="M294.5,281.8c2.9,0,4.3,2.2,4.3,4.8c0,0.2,0,0.7,0,0.7h-7.9c0,2.6,1.9,4.1,4,4.1c1.9,0,3.1-1.3,3.1-1.3l0.7,1
		c0,0-1.5,1.5-3.8,1.5c-3.1,0-5.4-2.2-5.4-5.4C289.4,283.8,291.7,281.8,294.5,281.8z M297.4,286.2c-0.1-2.1-1.4-3.2-2.9-3.2
		c-1.7,0-3.2,1.1-3.5,3.2H297.4z"/>
	<path class="st2" d="M303.6,283.7c0-0.3-0.2-0.5-0.5-0.5h-0.9V282h1.4c0.9,0,1.3,0.3,1.3,1.2v0.7c0,0.4,0,0.8,0,0.8l0,0
		c0.5-1.6,1.6-2.8,3.3-2.8c0.3,0,0.6,0.1,0.6,0.1v1.4c0,0-0.2,0-0.5,0c-1.5,0-2.5,1.1-3,2.7c-0.2,0.7-0.3,1.4-0.3,2v4.4h-1.4V283.7z
		"/>
	<path class="st2" d="M313.3,283.7c0-0.3-0.2-0.5-0.5-0.5H312V282h1.4c0.9,0,1.3,0.3,1.3,1.2v0.7c0,0.4,0,0.8,0,0.8l0,0
		c0.5-1.6,1.6-2.8,3.3-2.8c0.3,0,0.6,0.1,0.6,0.1v1.4c0,0-0.2,0-0.5,0c-1.5,0-2.5,1.1-3,2.7c-0.2,0.7-0.3,1.4-0.3,2v4.4h-1.4v-8.8
		H313.3z"/>
	<path class="st2" d="M322.9,283.7c0-0.3-0.2-0.5-0.5-0.5h-0.9V282h1.5c0.9,0,1.3,0.4,1.3,1.3v7.4c0,0.3,0.2,0.5,0.5,0.5h0.9v1.2
		h-1.5c-0.9,0-1.3-0.4-1.3-1.3V283.7z M322.8,278h1.4v1.8h-1.4V278z"/>
	<path class="st2" d="M330.1,283.2h-1.4V282h1.4v-2.9h1.4v2.9h2.6v1.2h-2.6v5.3c0,2.4,1.5,2.7,2.3,2.7c0.3,0,0.5,0,0.5,0v1.3
		c0,0-0.2,0-0.6,0c-1.2,0-3.6-0.4-3.6-3.8L330.1,283.2L330.1,283.2z"/>
	<path class="st2" d="M343.2,281.8c3,0,5.5,2.3,5.5,5.4s-2.4,5.5-5.4,5.5s-5.5-2.3-5.5-5.5C337.7,284.1,340.2,281.8,343.2,281.8z
		 M343.2,291.4c2.2,0,4-1.8,4-4.2c0-2.3-1.8-4.1-4-4.1s-4,1.7-4,4.1C339.2,289.6,341,291.4,343.2,291.4z"/>
	<path class="st2" d="M353.3,283.7c0-0.3-0.2-0.5-0.5-0.5H352V282h1.4c0.9,0,1.3,0.3,1.3,1.2v0.7c0,0.4,0,0.8,0,0.8l0,0
		c0.5-1.6,1.6-2.8,3.3-2.8c0.3,0,0.6,0.1,0.6,0.1v1.4c0,0-0.2,0-0.5,0c-1.5,0-2.5,1.1-3,2.7c-0.2,0.7-0.3,1.4-0.3,2v4.4h-1.4v-8.8
		H353.3z"/>
	<path class="st2" d="M362.9,283.7c0-0.3-0.2-0.5-0.5-0.5h-0.9V282h1.5c0.9,0,1.3,0.4,1.3,1.3v7.4c0,0.3,0.2,0.5,0.5,0.5h0.9v1.2
		h-1.5c-0.9,0-1.3-0.4-1.3-1.3L362.9,283.7L362.9,283.7z M362.8,278h1.4v1.8h-1.4L362.8,278L362.8,278z"/>
	<path class="st2" d="M375.3,286h0.6v-0.1c0-2.2-0.8-2.9-2.7-2.9c-0.5,0-2,0.1-2,0.9v0.7h-1.3v-1c0-1.4,2.5-1.7,3.4-1.7
		c3.3,0,4,1.7,4,4v4.9c0,0.3,0.2,0.5,0.5,0.5h0.9v1.2h-1.4c-0.9,0-1.2-0.4-1.2-1.2c0-0.5,0-0.8,0-0.8l0,0c0,0-0.8,2.2-3.4,2.2
		c-1.7,0-3.5-1-3.5-3.1C369,286.1,373.5,286,375.3,286z M372.7,291.4c2,0,3.2-2.1,3.2-3.8v-0.5h-0.6c-1.6,0-4.9,0-4.9,2.4
		C370.4,290.5,371.2,291.4,372.7,291.4z"/>
	<path class="st2" d="M382.9,279.6c0-0.3-0.2-0.5-0.5-0.5h-0.9V278h1.5c0.9,0,1.3,0.4,1.3,1.3v11.5c0,0.3,0.2,0.5,0.5,0.5h0.9v1.2
		h-1.5c-0.9,0-1.3-0.4-1.3-1.3V279.6z"/>
	<path class="st2" d="M390.1,283.7c0-0.3-0.2-0.5-0.5-0.5h-0.9V282h1.5c0.9,0,1.3,0.4,1.3,1.3v7.4c0,0.3,0.2,0.5,0.5,0.5h0.9v1.2
		h-1.5c-0.9,0-1.3-0.4-1.3-1.3V283.7z M390,278h1.4v1.8H390V278z"/>
</g>
<g>
	<path class="st2" d="M112.8,351.4c2.1,0,5.4,0.9,5.4,3.1v1.2h-1.4v-0.8c0-1.4-2.3-2.1-4-2.1c-3.2,0-5.7,2.5-5.7,6
		c0,3.4,2.4,6.2,5.7,6.2c3,0,4.7-2,4.7-2l0.8,1c0,0-2,2.3-5.6,2.3c-4.2,0-7.2-3.4-7.2-7.6C105.6,354.6,108.7,351.4,112.8,351.4z"/>
	<path class="st2" d="M127.4,355.5c3,0,5.5,2.3,5.5,5.4s-2.4,5.5-5.4,5.5s-5.5-2.3-5.5-5.5C122,357.8,124.4,355.5,127.4,355.5z
		 M127.4,365.1c2.2,0,4-1.8,4-4.2c0-2.3-1.8-4.1-4-4.1s-4,1.7-4,4.1S125.2,365.1,127.4,365.1z"/>
	<path class="st2" d="M137.5,357.4c0-0.3-0.2-0.5-0.5-0.5h-0.9v-1.2h1.4c0.9,0,1.3,0.4,1.3,1.1v0.5c0,0.4,0,0.7,0,0.7l0,0
		c0.4-0.9,1.7-2.6,4.1-2.6c2.6,0,3.5,1.5,3.5,4v4.9c0,0.3,0.2,0.5,0.5,0.5h0.9v1.2h-1.5c-0.9,0-1.3-0.4-1.3-1.3v-4.9
		c0-1.6-0.2-3.1-2.2-3.1c-1.8,0-3.3,1.2-3.8,2.9c-0.1,0.4-0.2,0.9-0.2,1.4v4.9h-1.4v-8.5H137.5z"/>
	<path class="st2" d="M152.2,356.9h-1.4v-1.2h1.4v-2.9h1.4v2.9h2.6v1.2h-2.6v5.3c0,2.4,1.5,2.7,2.3,2.7c0.3,0,0.5,0,0.5,0v1.3
		c0,0-0.2,0-0.6,0c-1.2,0-3.6-0.4-3.6-3.8L152.2,356.9L152.2,356.9z"/>
	<path class="st2" d="M161,357.4c0-0.3-0.2-0.5-0.5-0.5h-0.9v-1.2h1.4c0.9,0,1.3,0.3,1.3,1.2v0.7c0,0.4,0,0.8,0,0.8l0,0
		c0.5-1.6,1.6-2.8,3.3-2.8c0.3,0,0.6,0.1,0.6,0.1v1.4c0,0-0.2,0-0.5,0c-1.5,0-2.5,1.1-3,2.7c-0.2,0.7-0.3,1.4-0.3,2v4.4H161V357.4z"
		/>
	<path class="st2" d="M170.6,357.4c0-0.3-0.2-0.5-0.5-0.5h-0.9v-1.2h1.5c0.9,0,1.3,0.4,1.3,1.3v7.4c0,0.3,0.2,0.5,0.5,0.5h0.9v1.2
		h-1.5c-0.9,0-1.3-0.4-1.3-1.3V357.4z M170.5,351.6h1.4v1.8h-1.4V351.6z"/>
	<path class="st2" d="M177.6,353.3c0-0.3-0.2-0.5-0.5-0.5h-0.9v-1.2h1.5c0.9,0,1.3,0.4,1.3,1.3v3.7c0,0.5,0,0.8,0,0.8l0,0
		c0,0,0.9-2,3.5-2c2.8,0,4.5,2.2,4.5,5.4c0,3.3-1.9,5.4-4.7,5.4c-2.5,0-3.4-2-3.4-2l0,0c0,0,0,0.3,0,0.8v0.9h-1.4v-12.6H177.6z
		 M182.3,365.1c1.8,0,3.3-1.5,3.3-4.2c0-2.5-1.4-4.1-3.3-4.1c-1.7,0-3.3,1.2-3.3,4.2C179,363,180.1,365.1,182.3,365.1z"/>
	<path class="st2" d="M191.7,357.4c0-0.3-0.2-0.5-0.5-0.5h-0.9v-1.2h1.5c0.9,0,1.3,0.4,1.3,1.2v5c0,1.6,0.3,3.1,2.3,3.1
		c2.3,0,3.8-2.1,3.8-4.3v-4.9h1.4v8.7c0,0.3,0.2,0.5,0.5,0.5h0.9v1.2h-1.4c-0.9,0-1.3-0.4-1.3-1.1v-0.5c0-0.4,0-0.7,0-0.7l0,0
		c-0.4,1-1.8,2.6-4,2.6c-2.4,0-3.5-1.3-3.5-4L191.7,357.4L191.7,357.4z"/>
	<path class="st2" d="M206.3,356.9h-1.4v-1.2h1.4v-2.9h1.4v2.9h2.6v1.2h-2.6v5.3c0,2.4,1.5,2.7,2.3,2.7c0.3,0,0.5,0,0.5,0v1.3
		c0,0-0.2,0-0.6,0c-1.2,0-3.6-0.4-3.6-3.8L206.3,356.9L206.3,356.9z"/>
	<path class="st2" d="M215.2,357.4c0-0.3-0.2-0.5-0.5-0.5h-0.9v-1.2h1.5c0.9,0,1.3,0.4,1.3,1.3v7.4c0,0.3,0.2,0.5,0.5,0.5h0.9v1.2
		h-1.5c-0.9,0-1.3-0.4-1.3-1.3V357.4z M215.2,351.6h1.4v1.8h-1.4V351.6z"/>
	<path class="st2" d="M235.3,359.7h0.6v-0.1c0-2.2-0.8-2.9-2.7-2.9c-0.5,0-2,0.1-2,0.9v0.7h-1.3v-1c0-1.4,2.5-1.7,3.4-1.7
		c3.3,0,4,1.7,4,4v4.9c0,0.3,0.2,0.5,0.5,0.5h0.9v1.2h-1.4c-0.9,0-1.2-0.4-1.2-1.2c0-0.5,0-0.8,0-0.8l0,0c0,0-0.8,2.2-3.4,2.2
		c-1.7,0-3.5-1-3.5-3.1C229,359.8,233.5,359.7,235.3,359.7z M232.7,365.1c2,0,3.2-2.1,3.2-3.8v-0.5h-0.6c-1.6,0-4.9,0-4.9,2.4
		C230.4,364.1,231.2,365.1,232.7,365.1z"/>
	<path class="st2" d="M242.8,353.3c0-0.3-0.2-0.5-0.5-0.5h-0.9v-1.2h1.5c0.9,0,1.3,0.4,1.3,1.3v11.5c0,0.3,0.2,0.5,0.5,0.5h0.9v1.2
		h-1.5c-0.9,0-1.3-0.4-1.3-1.3V353.3z"/>
	<path class="st2" d="M249.9,353.3c0-0.3-0.2-0.5-0.5-0.5h-0.9v-1.2h1.5c0.9,0,1.3,0.4,1.3,1.3v11.5c0,0.3,0.2,0.5,0.5,0.5h0.9v1.2
		h-1.5c-0.9,0-1.3-0.4-1.3-1.3V353.3z"/>
	<path class="st2" d="M262.4,359.7h0.6v-0.1c0-2.2-0.8-2.9-2.7-2.9c-0.5,0-2,0.1-2,0.9v0.7H257v-1c0-1.4,2.5-1.7,3.4-1.7
		c3.3,0,4,1.7,4,4v4.9c0,0.3,0.2,0.5,0.5,0.5h0.9v1.2h-1.4c-0.9,0-1.2-0.4-1.2-1.2c0-0.5,0-0.8,0-0.8l0,0c0,0-0.8,2.2-3.4,2.2
		c-1.7,0-3.5-1-3.5-3.1C256,359.8,260.6,359.7,262.4,359.7z M259.8,365.1c2,0,3.2-2.1,3.2-3.8v-0.5h-0.6c-1.6,0-4.9,0-4.9,2.4
		C257.5,364.1,258.2,365.1,259.8,365.1z"/>
	<path class="st2" d="M277.7,356.9h-1.4v-1.2h1.4v-2.9h1.4v2.9h2.6v1.2h-2.6v5.3c0,2.4,1.5,2.7,2.3,2.7c0.3,0,0.5,0,0.5,0v1.3
		c0,0-0.2,0-0.6,0c-1.2,0-3.6-0.4-3.6-3.8L277.7,356.9L277.7,356.9z"/>
	<path class="st2" d="M286.4,357.4c0-0.3-0.2-0.5-0.5-0.5H285v-1.2h1.5c0.9,0,1.3,0.4,1.3,1.2v5c0,1.6,0.3,3.1,2.3,3.1
		c2.3,0,3.8-2.1,3.8-4.3v-4.9h1.4v8.7c0,0.3,0.2,0.5,0.5,0.5h0.9v1.2h-1.4c-0.9,0-1.3-0.4-1.3-1.1v-0.5c0-0.4,0-0.7,0-0.7l0,0
		c-0.4,1-1.8,2.6-4,2.6c-2.4,0-3.5-1.3-3.5-4L286.4,357.4L286.4,357.4z"/>
	<path class="st2" d="M301,356.9h-1.4v-1.2h1.4v-2.9h1.4v2.9h2.6v1.2h-2.6v5.3c0,2.4,1.5,2.7,2.3,2.7c0.3,0,0.5,0,0.5,0v1.3
		c0,0-0.2,0-0.6,0c-1.2,0-3.6-0.4-3.6-3.8L301,356.9L301,356.9z"/>
	<path class="st2" d="M313.8,355.5c2.9,0,4.3,2.2,4.3,4.8c0,0.2,0,0.7,0,0.7h-7.9c0,2.6,1.9,4.1,4,4.1c1.9,0,3.1-1.3,3.1-1.3l0.7,1
		c0,0-1.5,1.5-3.8,1.5c-3.1,0-5.4-2.2-5.4-5.4C308.7,357.5,311,355.5,313.8,355.5z M316.6,359.9c-0.1-2.1-1.4-3.2-2.9-3.2
		c-1.7,0-3.2,1.1-3.5,3.2H316.6z"/>
	<path class="st2" d="M322.9,353.3c0-0.3-0.2-0.5-0.5-0.5h-0.9v-1.2h1.5c0.9,0,1.3,0.4,1.3,1.3v11.5c0,0.3,0.2,0.5,0.5,0.5h0.9v1.2
		h-1.5c-0.9,0-1.3-0.4-1.3-1.3V353.3z"/>
	<path class="st2" d="M335.4,359.7h0.6v-0.1c0-2.2-0.8-2.9-2.7-2.9c-0.5,0-2,0.1-2,0.9v0.7H330v-1c0-1.4,2.5-1.7,3.4-1.7
		c3.3,0,4,1.7,4,4v4.9c0,0.3,0.2,0.5,0.5,0.5h0.9v1.2h-1.4c-0.9,0-1.2-0.4-1.2-1.2c0-0.5,0-0.8,0-0.8l0,0c0,0-0.8,2.2-3.4,2.2
		c-1.7,0-3.5-1-3.5-3.1C329,359.8,333.6,359.7,335.4,359.7z M332.8,365.1c2,0,3.2-2.1,3.2-3.8v-0.5h-0.6c-1.6,0-4.9,0-4.9,2.4
		C330.5,364.1,331.2,365.1,332.8,365.1z"/>
	<path class="st2" d="M355.9,359.7h0.6v-0.1c0-2.2-0.8-2.9-2.7-2.9c-0.5,0-2,0.1-2,0.9v0.7h-1.3v-1c0-1.4,2.5-1.7,3.4-1.7
		c3.3,0,4,1.7,4,4v4.9c0,0.3,0.2,0.5,0.5,0.5h0.9v1.2h-1.4c-0.9,0-1.2-0.4-1.2-1.2c0-0.5,0-0.8,0-0.8l0,0c0,0-0.8,2.2-3.4,2.2
		c-1.7,0-3.5-1-3.5-3.1C349.6,359.8,354.1,359.7,355.9,359.7z M353.3,365.1c2,0,3.2-2.1,3.2-3.8v-0.5h-0.6c-1.6,0-4.9,0-4.9,2.4
		C351,364.1,351.8,365.1,353.3,365.1z"/>
	<path class="st2" d="M363.5,357.4c0-0.3-0.2-0.5-0.5-0.5h-0.9v-1.2h1.4c0.9,0,1.3,0.4,1.3,1.1v0.5c0,0.4,0,0.7,0,0.7l0,0
		c0.5-1.4,2.1-2.6,3.7-2.6c1.9,0,2.9,0.9,3.2,2.6l0,0c0.6-1.4,2.1-2.6,3.8-2.6c2.5,0,3.4,1.5,3.4,4v4.9c0,0.3,0.2,0.5,0.5,0.5h0.9
		v1.2h-1.5c-0.9,0-1.3-0.4-1.3-1.3v-5c0-1.7-0.3-3.1-2.2-3.1c-1.6,0-2.9,1.4-3.3,2.9c-0.1,0.5-0.2,0.9-0.2,1.5v4.9h-1.4v-6.2
		c0-1.6-0.2-3.1-2.2-3.1c-1.7,0-2.9,1.5-3.4,3c-0.1,0.4-0.2,0.9-0.2,1.4v4.9h-1.4v-8.5H363.5z"/>
	<path class="st2" d="M384.6,353.3c0-0.3-0.2-0.5-0.5-0.5h-0.9v-1.2h1.5c0.9,0,1.3,0.4,1.3,1.3v3.7c0,0.5,0,0.8,0,0.8l0,0
		c0,0,0.9-2,3.5-2c2.8,0,4.5,2.2,4.5,5.4c0,3.3-1.9,5.4-4.7,5.4c-2.5,0-3.4-2-3.4-2l0,0c0,0,0,0.3,0,0.8v0.9h-1.4v-12.6H384.6z
		 M389.2,365.1c1.8,0,3.3-1.5,3.3-4.2c0-2.5-1.4-4.1-3.3-4.1c-1.7,0-3.3,1.2-3.3,4.2C385.9,363,387,365.1,389.2,365.1z"/>
	<path class="st2" d="M398.8,357.4c0-0.3-0.2-0.5-0.5-0.5h-0.9v-1.2h1.5c0.9,0,1.3,0.4,1.3,1.3v7.4c0,0.3,0.2,0.5,0.5,0.5h0.9v1.2
		H400c-0.9,0-1.3-0.4-1.3-1.3L398.8,357.4L398.8,357.4z M398.7,351.6h1.4v1.8h-1.4V351.6z"/>
	<path class="st2" d="M410,355.5c2.9,0,4.3,2.2,4.3,4.8c0,0.2,0,0.7,0,0.7h-7.9c0,2.6,1.9,4.1,4,4.1c1.9,0,3.1-1.3,3.1-1.3l0.7,1
		c0,0-1.5,1.5-3.8,1.5c-3.1,0-5.4-2.2-5.4-5.4C404.9,357.5,407.2,355.5,410,355.5z M412.9,359.9c-0.1-2.1-1.4-3.2-2.9-3.2
		c-1.7,0-3.2,1.1-3.6,3.2H412.9z"/>
	<path class="st2" d="M419.2,357.4c0-0.3-0.2-0.5-0.5-0.5h-0.9v-1.2h1.4c0.9,0,1.3,0.4,1.3,1.1v0.5c0,0.4,0,0.7,0,0.7l0,0
		c0.4-0.9,1.7-2.6,4.1-2.6c2.6,0,3.5,1.5,3.5,4v4.9c0,0.3,0.2,0.5,0.5,0.5h0.9v1.2H428c-0.9,0-1.3-0.4-1.3-1.3v-4.9
		c0-1.6-0.2-3.1-2.2-3.1c-1.8,0-3.3,1.2-3.8,2.9c-0.1,0.4-0.2,0.9-0.2,1.4v4.9h-1.4v-8.5H419.2z"/>
	<path class="st2" d="M433.8,356.9h-1.4v-1.2h1.4v-2.9h1.4v2.9h2.6v1.2h-2.6v5.3c0,2.4,1.5,2.7,2.3,2.7c0.3,0,0.5,0,0.5,0v1.3
		c0,0-0.2,0-0.6,0c-1.2,0-3.6-0.4-3.6-3.8L433.8,356.9L433.8,356.9z"/>
	<path class="st2" d="M447.8,359.7h0.6v-0.1c0-2.2-0.8-2.9-2.7-2.9c-0.5,0-2,0.1-2,0.9v0.7h-1.3v-1c0-1.4,2.5-1.7,3.4-1.7
		c3.3,0,4,1.7,4,4v4.9c0,0.3,0.2,0.5,0.5,0.5h0.9v1.2h-1.4c-0.9,0-1.2-0.4-1.2-1.2c0-0.5,0-0.8,0-0.8l0,0c0,0-0.8,2.2-3.4,2.2
		c-1.7,0-3.5-1-3.5-3.1C441.5,359.8,446.1,359.7,447.8,359.7z M445.3,365.1c2,0,3.2-2.1,3.2-3.8v-0.5h-0.6c-1.6,0-4.9,0-4.9,2.4
		C443,364.1,443.7,365.1,445.3,365.1z"/>
	<path class="st2" d="M455.4,353.3c0-0.3-0.2-0.5-0.5-0.5H454v-1.2h1.5c0.9,0,1.3,0.4,1.3,1.3v11.5c0,0.3,0.2,0.5,0.5,0.5h0.9v1.2
		h-1.5c-0.9,0-1.3-0.4-1.3-1.3V353.3z"/>
	<path class="st2" d="M466.6,355.5c2.9,0,4.3,2.2,4.3,4.8c0,0.2,0,0.7,0,0.7H463c0,2.6,1.9,4.1,4,4.1c1.9,0,3.1-1.3,3.1-1.3l0.7,1
		c0,0-1.5,1.5-3.8,1.5c-3.1,0-5.4-2.2-5.4-5.4C461.5,357.5,463.8,355.5,466.6,355.5z M469.5,359.9c-0.1-2.1-1.4-3.2-2.9-3.2
		c-1.7,0-3.2,1.1-3.6,3.2H469.5z"/>
	<path class="st2" d="M174.8,376c2.9,0,4.3,2.2,4.3,4.8c0,0.2,0,0.7,0,0.7h-7.9c0,2.6,1.9,4.1,4,4.1c1.9,0,3.1-1.3,3.1-1.3l0.7,1
		c0,0-1.5,1.5-3.8,1.5c-3.1,0-5.4-2.2-5.4-5.4C169.7,378.1,172.1,376,174.8,376z M177.7,380.4c-0.1-2.1-1.4-3.2-2.9-3.2
		c-1.7,0-3.2,1.1-3.5,3.2H177.7z"/>
	<path class="st2" d="M197,380.2h0.6v-0.1c0-2.2-0.8-2.9-2.7-2.9c-0.5,0-2,0.1-2,0.9v0.7h-1.3v-1c0-1.4,2.5-1.7,3.4-1.7
		c3.3,0,4,1.7,4,4v4.9c0,0.3,0.2,0.5,0.5,0.5h0.9v1.2H199c-0.9,0-1.2-0.4-1.2-1.2c0-0.5,0-0.8,0-0.8l0,0c0,0-0.8,2.2-3.4,2.2
		c-1.7,0-3.5-1-3.5-3.1C190.7,380.4,195.2,380.2,197,380.2z M194.4,385.7c2,0,3.2-2.1,3.2-3.8v-0.5H197c-1.6,0-4.9,0-4.9,2.4
		C192.1,384.7,192.9,385.7,194.4,385.7z"/>
	<path class="st2" d="M204.5,373.8c0-0.3-0.2-0.5-0.5-0.5h-0.9v-1.2h1.5c0.9,0,1.3,0.4,1.3,1.3v11.5c0,0.3,0.2,0.5,0.5,0.5h0.9v1.2
		h-1.5c-0.9,0-1.3-0.4-1.3-1.3V373.8z"/>
	<path class="st2" d="M211.6,373.8c0-0.3-0.2-0.5-0.5-0.5h-0.9v-1.2h1.5c0.9,0,1.3,0.4,1.3,1.3v11.5c0,0.3,0.2,0.5,0.5,0.5h0.9v1.2
		h-1.5c-0.9,0-1.3-0.4-1.3-1.3V373.8z"/>
	<path class="st2" d="M223.2,376c3,0,5.5,2.3,5.5,5.4s-2.4,5.5-5.4,5.5s-5.5-2.3-5.5-5.5C217.8,378.3,220.2,376,223.2,376z
		 M223.2,385.6c2.2,0,4-1.8,4-4.2c0-2.3-1.8-4.1-4-4.1s-4,1.7-4,4.1S221,385.6,223.2,385.6z"/>
	<path class="st2" d="M240.6,384.1c0,0,1.1,1.6,3.2,1.6c1.1,0,2.2-0.6,2.2-1.6c0-2.3-5.8-1.8-5.8-5.2c0-1.9,1.6-2.8,3.7-2.8
		c1,0,3.1,0.4,3.1,1.9v0.9h-1.3v-0.5c0-0.8-1.1-1-1.8-1c-1.4,0-2.3,0.5-2.3,1.5c0,2.3,5.8,1.8,5.8,5.2c0,1.7-1.6,2.9-3.6,2.9
		c-2.7,0-4-1.8-4-1.8L240.6,384.1z"/>
	<path class="st2" d="M251.4,378c-0.1-0.4-0.3-0.5-0.7-0.5h-0.2v-1.2h0.6c1,0,1.3,0.2,1.6,1.1l2.5,6.4c0.2,0.5,0.3,1.2,0.3,1.2l0,0
		c0,0,0.2-0.7,0.3-1.2l2.5-6.4c0.3-0.9,0.7-1.1,1.6-1.1h0.5v1.2h-0.2c-0.4,0-0.6,0.1-0.7,0.5l-3.4,8.6h-1.5L251.4,378z"/>
	<path class="st2" d="M264.8,377.9c0-0.3-0.2-0.5-0.5-0.5h-0.9v-1.2h1.5c0.9,0,1.3,0.4,1.3,1.3v7.4c0,0.3,0.2,0.5,0.5,0.5h0.9v1.2
		h-1.5c-0.9,0-1.3-0.4-1.3-1.3V377.9z M264.8,372.2h1.4v1.8h-1.4V372.2z"/>
	<path class="st2" d="M271.9,373.8c0-0.3-0.2-0.5-0.5-0.5h-0.9v-1.2h1.5c0.9,0,1.3,0.4,1.3,1.3v11.5c0,0.3,0.2,0.5,0.5,0.5h0.9v1.2
		h-1.5c-0.9,0-1.3-0.4-1.3-1.3V373.8z"/>
	<path class="st2" d="M279,377.9c0-0.3-0.2-0.5-0.5-0.5h-0.9v-1.2h1.5c0.9,0,1.3,0.4,1.3,1.2v5c0,1.6,0.3,3.1,2.3,3.1
		c2.3,0,3.8-2.1,3.8-4.3v-4.9h1.4v8.7c0,0.3,0.2,0.5,0.5,0.5h0.9v1.2h-1.4c-0.9,0-1.3-0.4-1.3-1.1V385c0-0.4,0-0.7,0-0.7l0,0
		c-0.4,1-1.8,2.6-4,2.6c-2.4,0-3.5-1.3-3.5-4L279,377.9L279,377.9z"/>
	<path class="st2" d="M293.4,377.9c0-0.3-0.2-0.5-0.5-0.5H292v-1.2h1.4c0.9,0,1.2,0.4,1.2,1.1c0,0.4,0,0.7,0,0.7l0,0
		c0,0,0.8-2,3.5-2c2.8,0,4.5,2.2,4.5,5.4c0,3.3-1.9,5.4-4.6,5.4c-2.5,0-3.4-1.9-3.4-1.9l0,0c0,0,0,0.4,0,0.9v4.9h-1.4v-12.8H293.4z
		 M298.1,385.6c1.8,0,3.3-1.5,3.3-4.2c0-2.5-1.3-4.1-3.3-4.1c-1.7,0-3.3,1.2-3.3,4.2C294.8,383.5,295.9,385.6,298.1,385.6z"/>
	<path class="st2" d="M307.5,377.9c0-0.3-0.2-0.5-0.5-0.5h-0.9v-1.2h1.4c0.9,0,1.2,0.4,1.2,1.1c0,0.4,0,0.7,0,0.7l0,0
		c0,0,0.8-2,3.5-2c2.8,0,4.5,2.2,4.5,5.4c0,3.3-1.9,5.4-4.6,5.4c-2.5,0-3.4-1.9-3.4-1.9l0,0c0,0,0,0.4,0,0.9v4.9h-1.4v-12.8H307.5z
		 M312.2,385.6c1.8,0,3.3-1.5,3.3-4.2c0-2.5-1.3-4.1-3.3-4.1c-1.7,0-3.3,1.2-3.3,4.2C308.9,383.5,310,385.6,312.2,385.6z"/>
	<path class="st2" d="M326.1,376c3,0,5.5,2.3,5.5,5.4s-2.4,5.5-5.4,5.5s-5.5-2.3-5.5-5.5C320.7,378.3,323.1,376,326.1,376z
		 M326.1,385.6c2.2,0,4-1.8,4-4.2c0-2.3-1.8-4.1-4-4.1s-4,1.7-4,4.1S323.9,385.6,326.1,385.6z"/>
	<path class="st2" d="M343.8,373.8c0-0.3-0.2-0.5-0.5-0.5h-0.9v-1.2h1.5c0.9,0,1.3,0.4,1.3,1.3v11.5c0,0.3,0.2,0.5,0.5,0.5h0.9v1.2
		h-1.5c-0.9,0-1.3-0.4-1.3-1.3V373.8z"/>
	<path class="st2" d="M355.4,376c3,0,5.5,2.3,5.5,5.4s-2.4,5.5-5.4,5.5s-5.5-2.3-5.5-5.5C350,378.3,352.4,376,355.4,376z
		 M355.4,385.6c2.2,0,4-1.8,4-4.2c0-2.3-1.8-4.1-4-4.1s-4,1.7-4,4.1S353.2,385.6,355.4,385.6z"/>
	<path class="st2" d="M370,376c1.2,0,3.7,0.5,3.7,2.2v0.9h-1.3v-0.6c0-0.9-1.5-1.3-2.4-1.3c-2.2,0-4,1.7-4,4.2s1.9,4.1,4,4.1
		s3.3-1.5,3.3-1.5l0.7,1c0,0-1.4,1.7-4,1.7c-3.1,0-5.4-2.2-5.4-5.4C364.6,378.3,366.9,376,370,376z"/>
	<path class="st2" d="M383.8,380.2h0.6v-0.1c0-2.2-0.8-2.9-2.7-2.9c-0.5,0-2,0.1-2,0.9v0.7h-1.3v-1c0-1.4,2.5-1.7,3.4-1.7
		c3.3,0,4,1.7,4,4v4.9c0,0.3,0.2,0.5,0.5,0.5h0.9v1.2h-1.4c-0.9,0-1.2-0.4-1.2-1.2c0-0.5,0-0.8,0-0.8l0,0c0,0-0.8,2.2-3.4,2.2
		c-1.7,0-3.5-1-3.5-3.1C377.5,380.4,382,380.2,383.8,380.2z M381.2,385.7c2,0,3.2-2.1,3.2-3.8v-0.5h-0.6c-1.6,0-4.9,0-4.9,2.4
		C378.9,384.7,379.7,385.7,381.2,385.7z"/>
	<path class="st2" d="M391.3,373.8c0-0.3-0.2-0.5-0.5-0.5H390v-1.2h1.5c0.9,0,1.3,0.4,1.3,1.3v11.5c0,0.3,0.2,0.5,0.5,0.5h0.9v1.2
		h-1.5c-0.9,0-1.3-0.4-1.3-1.3v-11.5H391.3z"/>
	<path class="st2" d="M402.5,376c2.9,0,4.3,2.2,4.3,4.8c0,0.2,0,0.7,0,0.7h-7.9c0,2.6,1.9,4.1,4,4.1c1.9,0,3.1-1.3,3.1-1.3l0.7,1
		c0,0-1.5,1.5-3.8,1.5c-3.1,0-5.4-2.2-5.4-5.4C397.5,378.1,399.8,376,402.5,376z M405.4,380.4c-0.1-2.1-1.4-3.2-2.9-3.2
		c-1.7,0-3.2,1.1-3.6,3.2H405.4z"/>
</g>
<g>
	<path class="st1" d="M48.8,447h-2.2c-0.3,0-0.5,0.2-0.5,0.5v0.9h-2.4V446c0-1,0.3-1.3,1.3-1.3h10.2c1,0,1.3,0.3,1.3,1.3v2.3h-2.4
		v-0.9c0-0.3-0.2-0.5-0.5-0.5h-2.2v12.3h-2.7L48.8,447L48.8,447z"/>
	<path class="st1" d="M63.8,448.6c3.2,0,5.7,2.3,5.7,5.5s-2.5,5.5-5.7,5.5s-5.7-2.3-5.7-5.5S60.6,448.6,63.8,448.6z M63.8,457.3
		c1.7,0,3.1-1.3,3.1-3.3c0-1.9-1.4-3.3-3.1-3.3c-1.7,0-3.1,1.3-3.1,3.3S62.1,457.3,63.8,457.3z"/>
	<path class="st1" d="M74,450.9h-1.4v-2.1H74V446h2.5v2.9h2.4v2.1h-2.4v4.2c0,1.7,1.4,2,2.1,2c0.3,0,0.5,0,0.5,0v2.3
		c0,0-0.3,0.1-0.8,0.1c-1.5,0-4.4-0.4-4.4-3.9L74,450.9L74,450.9z"/>
	<path class="st1" d="M88.7,452.7H89v-0.1c0-1.5-0.6-2.1-1.9-2.1c-0.5,0-1.4,0.1-1.4,0.7v0.6h-2.4v-1.1c0-1.9,2.7-2.2,3.8-2.2
		c3.5,0,4.5,1.8,4.5,4.2v3.9c0,0.3,0.2,0.5,0.5,0.5h0.8v2.2h-2.3c-1,0-1.3-0.5-1.3-1.1c0-0.3,0-0.5,0-0.5l0,0c0,0-0.8,1.8-3.2,1.8
		c-1.9,0-3.6-1.2-3.6-3.3C82.5,453,87,452.7,88.7,452.7z M86.7,457.5c1.4,0,2.4-1.5,2.4-2.7v-0.2h-0.5c-1.4,0-3.5,0.2-3.5,1.6
		C85.1,456.9,85.6,457.5,86.7,457.5z"/>
	<path class="st1" d="M97,447.4c0-0.3-0.2-0.5-0.5-0.5h-0.8v-2.2h2.5c1,0,1.4,0.4,1.4,1.4v10.5c0,0.3,0.2,0.5,0.5,0.5h0.8v2.2h-2.5
		c-1,0-1.4-0.4-1.4-1.4V447.4z"/>
	<path class="st1" d="M109.4,448.6c3,0,4.6,2.2,4.6,5c0,0.3-0.1,1-0.1,1h-7.2c0.2,1.8,1.6,2.8,3.1,2.8c1.7,0,2.9-1.2,2.9-1.2
		l1.1,1.8c0,0-1.6,1.6-4.2,1.6c-3.5,0-5.6-2.5-5.6-5.5C104.1,450.8,106.2,448.6,109.4,448.6z M111.3,452.7c0-1.3-0.9-2.1-2-2.1
		c-1.3,0-2.3,0.8-2.6,2.1H111.3z"/>
	<path class="st1" d="M129.8,448.6c2.3,0,3,1.3,3,1.3l0,0c0,0,0-0.3,0-0.6v-1.8c0-0.3-0.2-0.5-0.5-0.5h-0.8v-2.2h2.5
		c1,0,1.4,0.4,1.4,1.4v10.5c0,0.3,0.2,0.5,0.5,0.5h0.8v2.2h-2.4c-0.9,0-1.3-0.5-1.3-1.1c0-0.2,0-0.4,0-0.4l0,0c0,0-0.9,1.7-3.3,1.7
		c-2.8,0-4.7-2.2-4.7-5.5C125,450.7,127,448.6,129.8,448.6z M132.9,454c0-1.6-0.8-3.2-2.6-3.2c-1.4,0-2.6,1.2-2.6,3.2s1,3.3,2.6,3.3
		C131.6,457.3,132.9,456.4,132.9,454z"/>
	<path class="st1" d="M145.2,448.6c3,0,4.6,2.2,4.6,5c0,0.3-0.1,1-0.1,1h-7.2c0.2,1.8,1.6,2.8,3.1,2.8c1.7,0,2.9-1.2,2.9-1.2
		l1.1,1.8c0,0-1.6,1.6-4.2,1.6c-3.5,0-5.6-2.5-5.6-5.5C139.9,450.8,142,448.6,145.2,448.6z M147.1,452.7c0-1.3-0.9-2.1-2-2.1
		c-1.3,0-2.3,0.8-2.6,2.1H147.1z"/>
	<path class="st1" d="M154.3,447.4c0-0.3-0.2-0.5-0.5-0.5H153v-2.2h2.5c1,0,1.4,0.4,1.4,1.4v10.5c0,0.3,0.2,0.5,0.5,0.5h0.8v2.2
		h-2.5c-1,0-1.4-0.4-1.4-1.4V447.4z"/>
	<path class="st1" d="M169.2,451.4c-0.1-0.3-0.3-0.4-0.6-0.4h-0.2v-2.2h1.5c0.9,0,1.3,0.3,1.5,1l2,5.5c0.2,0.6,0.4,1.5,0.4,1.5l0,0
		c0,0,0.2-0.9,0.4-1.5l2-5.5c0.3-0.7,0.7-1,1.5-1h1.4v2.2h-0.2c-0.3,0-0.5,0.1-0.6,0.4l-3,7.9h-3.1L169.2,451.4z"/>
	<path class="st1" d="M188.2,452.7h0.3v-0.1c0-1.5-0.6-2.1-1.9-2.1c-0.5,0-1.4,0.1-1.4,0.7v0.6h-2.4v-1.1c0-1.9,2.7-2.2,3.8-2.2
		c3.5,0,4.5,1.8,4.5,4.2v3.9c0,0.3,0.2,0.5,0.5,0.5h0.8v2.2h-2.3c-1,0-1.3-0.5-1.3-1.1c0-0.3,0-0.5,0-0.5l0,0c0,0-0.8,1.8-3.2,1.8
		c-1.9,0-3.6-1.2-3.6-3.3C182,453,186.5,452.7,188.2,452.7z M186.2,457.5c1.4,0,2.4-1.5,2.4-2.7v-0.2h-0.5c-1.4,0-3.5,0.2-3.5,1.6
		C184.6,456.9,185.1,457.5,186.2,457.5z"/>
	<path class="st1" d="M196.5,447.4c0-0.3-0.2-0.5-0.5-0.5h-0.8v-2.2h2.5c1,0,1.4,0.4,1.4,1.4v10.5c0,0.3,0.2,0.5,0.5,0.5h0.8v2.2
		h-2.5c-1,0-1.4-0.4-1.4-1.4V447.4z"/>
	<path class="st1" d="M209.3,448.6c3.2,0,5.7,2.3,5.7,5.5s-2.5,5.5-5.7,5.5s-5.7-2.3-5.7-5.5C203.6,450.9,206.1,448.6,209.3,448.6z
		 M209.3,457.3c1.7,0,3.1-1.3,3.1-3.3c0-1.9-1.4-3.3-3.1-3.3s-3.1,1.3-3.1,3.3C206.2,456,207.6,457.3,209.3,457.3z"/>
	<path class="st1" d="M219.4,451.5c0-0.3-0.2-0.5-0.5-0.5h-0.8v-2.2h2.4c0.9,0,1.4,0.4,1.4,1.3v0.6c0,0.4,0,0.7,0,0.7l0,0
		c0.5-1.5,1.7-2.7,3.3-2.7c0.2,0,0.5,0,0.5,0v2.6c0,0-0.3,0-0.6,0c-1.1,0-2.4,0.6-2.9,2.2c-0.1,0.5-0.2,1.1-0.2,1.7v4.1h-2.6
		L219.4,451.5L219.4,451.5z"/>
	<path class="st1" d="M233.8,448.6c3,0,4.6,2.2,4.6,5c0,0.3-0.1,1-0.1,1h-7.2c0.2,1.8,1.6,2.8,3.1,2.8c1.7,0,2.9-1.2,2.9-1.2
		l1.1,1.8c0,0-1.6,1.6-4.2,1.6c-3.5,0-5.6-2.5-5.6-5.5C228.5,450.8,230.7,448.6,233.8,448.6z M235.8,452.7c0-1.3-0.9-2.1-2-2.1
		c-1.3,0-2.3,0.8-2.6,2.1H235.8z"/>
	<path class="st1" d="M254.1,448.6c2.4,0,3.2,1.5,3.2,1.5l0,0c0,0,0-0.1,0-0.3c0-0.5,0.3-1,1.1-1h2.4v2.2H260
		c-0.3,0-0.5,0.1-0.5,0.4v7.2c0,3.6-2.8,4.9-5.5,4.9c-1.3,0-2.7-0.4-3.7-0.9l0.8-2.1c0,0,1.3,0.7,2.9,0.7s3-0.7,3-2.6v-0.5
		c0-0.2,0-0.6,0-0.6l0,0c-0.6,0.9-1.5,1.4-2.9,1.4c-3,0-4.7-2.4-4.7-5.3C249.5,450.9,251.1,448.6,254.1,448.6z M257.2,453.8
		c0-2.4-1.2-3-2.6-3c-1.6,0-2.4,1.1-2.4,2.9s0.9,3.2,2.6,3.2C256,456.9,257.2,456.2,257.2,453.8z"/>
	<path class="st1" d="M269.4,448.6c3,0,4.6,2.2,4.6,5c0,0.3-0.1,1-0.1,1h-7.2c0.2,1.8,1.6,2.8,3.1,2.8c1.7,0,2.9-1.2,2.9-1.2
		l1.1,1.8c0,0-1.6,1.6-4.2,1.6c-3.5,0-5.6-2.5-5.6-5.5C264.1,450.8,266.3,448.6,269.4,448.6z M271.4,452.7c0-1.3-0.9-2.1-2-2.1
		c-1.3,0-2.3,0.8-2.6,2.1H271.4z"/>
	<path class="st1" d="M278.6,451.5c0-0.3-0.2-0.5-0.5-0.5h-0.8v-2.2h2.4c0.9,0,1.4,0.4,1.4,1.2v0.3c0,0.2,0,0.5,0,0.5l0,0
		c0.5-0.9,1.6-2.2,3.7-2.2c2.3,0,3.7,1.2,3.7,4v4.1c0,0.3,0.2,0.5,0.5,0.5h0.8v2.2h-2.5c-1,0-1.4-0.4-1.4-1.4v-4.8
		c0-1.3-0.3-2.1-1.6-2.1c-1.4,0-2.4,0.9-2.8,2.1c-0.1,0.4-0.2,0.9-0.2,1.4v4.8h-2.6v-7.9H278.6z"/>
	<path class="st1" d="M298.2,448.6c3,0,4.6,2.2,4.6,5c0,0.3-0.1,1-0.1,1h-7.2c0.2,1.8,1.6,2.8,3.1,2.8c1.7,0,2.9-1.2,2.9-1.2
		l1.1,1.8c0,0-1.6,1.6-4.2,1.6c-3.5,0-5.6-2.5-5.6-5.5C292.8,450.8,295,448.6,298.2,448.6z M300.1,452.7c0-1.3-0.9-2.1-2-2.1
		c-1.3,0-2.3,0.8-2.6,2.1H300.1z"/>
	<path class="st1" d="M307.4,451.5c0-0.3-0.2-0.5-0.5-0.5h-0.8v-2.2h2.4c0.9,0,1.4,0.4,1.4,1.3v0.6c0,0.4,0,0.7,0,0.7l0,0
		c0.5-1.5,1.7-2.7,3.3-2.7c0.2,0,0.5,0,0.5,0v2.6c0,0-0.3,0-0.6,0c-1.1,0-2.4,0.6-2.9,2.2c-0.1,0.5-0.2,1.1-0.2,1.7v4.1h-2.6
		L307.4,451.5L307.4,451.5z"/>
	<path class="st1" d="M322.5,452.7h0.3v-0.1c0-1.5-0.6-2.1-1.9-2.1c-0.5,0-1.4,0.1-1.4,0.7v0.6H317v-1.1c0-1.9,2.7-2.2,3.8-2.2
		c3.5,0,4.5,1.8,4.5,4.2v3.9c0,0.3,0.2,0.5,0.5,0.5h0.8v2.2h-2.3c-1,0-1.3-0.5-1.3-1.1c0-0.3,0-0.5,0-0.5l0,0c0,0-0.8,1.8-3.2,1.8
		c-1.9,0-3.6-1.2-3.6-3.3C316.2,453,320.8,452.7,322.5,452.7z M320.5,457.5c1.4,0,2.4-1.5,2.4-2.7v-0.2h-0.5c-1.4,0-3.5,0.2-3.5,1.6
		C318.9,456.9,319.4,457.5,320.5,457.5z"/>
	<path class="st1" d="M330.9,450.9h-1.4v-2.1h1.4V446h2.5v2.9h2.4v2.1h-2.4v4.2c0,1.7,1.4,2,2.1,2c0.3,0,0.5,0,0.5,0v2.3
		c0,0-0.3,0.1-0.8,0.1c-1.5,0-4.4-0.4-4.4-3.9L330.9,450.9L330.9,450.9z"/>
	<path class="st1" d="M345,448.6c3.2,0,5.7,2.3,5.7,5.5s-2.5,5.5-5.7,5.5s-5.7-2.3-5.7-5.5S341.8,448.6,345,448.6z M345,457.3
		c1.7,0,3.1-1.3,3.1-3.3c0-1.9-1.4-3.3-3.1-3.3s-3.1,1.3-3.1,3.3S343.3,457.3,345,457.3z"/>
	<path class="st1" d="M362.7,456c0,0,1.3,1.5,3.1,1.5c0.8,0,1.4-0.3,1.4-1c0-1.5-5.5-1.5-5.5-4.8c0-2.1,1.9-3.1,4.1-3.1
		c1.4,0,3.7,0.5,3.7,2.2v1.1h-2.3v-0.5c0-0.5-0.7-0.7-1.3-0.7c-0.9,0-1.6,0.3-1.6,0.9c0,1.6,5.6,1.3,5.6,4.8c0,2-1.7,3.2-4,3.2
		c-2.9,0-4.4-1.9-4.4-1.9L362.7,456z"/>
	<path class="st1" d="M374.3,451.5c0-0.3-0.2-0.5-0.5-0.5H373v-2.2h2.5c1,0,1.4,0.4,1.4,1.4v4.8c0,1.3,0.3,2.1,1.6,2.1
		c1.9,0,2.9-1.7,2.9-3.5v-4.8h2.6v7.8c0,0.3,0.2,0.5,0.5,0.5h0.8v2.2h-2.4c-0.9,0-1.4-0.4-1.4-1.2v-0.3c0-0.2,0-0.5,0-0.5l0,0
		c-0.5,1.1-1.8,2.2-3.6,2.2c-2.2,0-3.6-1.1-3.6-4V451.5z"/>
	<path class="st1" d="M389.4,447.4c0-0.3-0.2-0.5-0.5-0.5h-0.8v-2.2h2.5c1,0,1.4,0.4,1.4,1.4v10.5c0,0.3,0.2,0.5,0.5,0.5h0.8v2.2
		h-2.5c-1,0-1.4-0.4-1.4-1.4V447.4z"/>
	<path class="st1" d="M397.4,447.4c0-0.3-0.2-0.5-0.5-0.5h-0.8v-2.2h2.5c1,0,1.4,0.4,1.4,1.4v10.5c0,0.3,0.2,0.5,0.5,0.5h0.8v2.2
		h-2.5c-1,0-1.4-0.4-1.4-1.4V447.4z"/>
	<path class="st1" d="M409.8,448.6c3,0,4.6,2.2,4.6,5c0,0.3-0.1,1-0.1,1h-7.2c0.2,1.8,1.6,2.8,3.1,2.8c1.7,0,2.9-1.2,2.9-1.2
		l1.1,1.8c0,0-1.6,1.6-4.2,1.6c-3.5,0-5.6-2.5-5.6-5.5C404.4,450.8,406.6,448.6,409.8,448.6z M411.7,452.7c0-1.3-0.9-2.1-2-2.1
		c-1.3,0-2.3,0.8-2.6,2.1H411.7z"/>
	<path class="st1" d="M431.1,448.6c1.4,0,3.8,0.6,3.8,2.4v1.2h-2.3v-0.6c0-0.6-0.9-0.8-1.5-0.8c-1.8,0-3.1,1.4-3.1,3.3
		c0,2.1,1.6,3.2,3.3,3.2c1.8,0,3.1-1.4,3.1-1.4l1.1,1.8c0,0-1.6,1.9-4.4,1.9c-3.4,0-5.7-2.4-5.7-5.5
		C425.4,451.1,427.6,448.6,431.1,448.6z"/>
	<path class="st1" d="M444.2,448.6c3.2,0,5.7,2.3,5.7,5.5s-2.5,5.5-5.7,5.5s-5.7-2.3-5.7-5.5S441.1,448.6,444.2,448.6z M444.2,457.3
		c1.7,0,3.1-1.3,3.1-3.3c0-1.9-1.4-3.3-3.1-3.3c-1.7,0-3.1,1.3-3.1,3.3C441.1,456,442.6,457.3,444.2,457.3z"/>
	<path class="st1" d="M454.4,451.5c0-0.3-0.2-0.5-0.5-0.5h-0.8v-2.2h2.4c0.9,0,1.4,0.4,1.4,1.2v0.3c0,0.2,0,0.5,0,0.5l0,0
		c0.5-1,1.7-2.2,3.4-2.2c1.6,0,2.6,0.7,3.1,2.2l0,0c0.6-1.1,1.9-2.2,3.6-2.2c2.2,0,3.4,1.2,3.4,4v4.1c0,0.3,0.2,0.5,0.5,0.5h0.8v2.2
		h-2.5c-1,0-1.4-0.4-1.4-1.4v-4.8c0-1.2-0.2-2.1-1.4-2.1c-1.3,0-2.2,1.1-2.5,2.4c-0.1,0.4-0.2,0.8-0.2,1.3v4.6h-2.6v-6.2
		c0-1.1-0.2-2.1-1.4-2.1c-1.3,0-2.2,1.1-2.5,2.4c-0.1,0.4-0.2,0.8-0.2,1.3v4.6h-2.6V451.5z"/>
	<path class="st1" d="M475.8,451.5c0-0.3-0.2-0.5-0.5-0.5h-0.8v-2.2h2.5c1,0,1.4,0.4,1.4,1.4v4.8c0,1.3,0.3,2.1,1.6,2.1
		c1.9,0,2.9-1.7,2.9-3.5v-4.8h2.6v7.8c0,0.3,0.2,0.5,0.5,0.5h0.8v2.2h-2.4c-0.9,0-1.4-0.4-1.4-1.2v-0.3c0-0.2,0-0.5,0-0.5l0,0
		c-0.5,1.1-1.8,2.2-3.6,2.2c-2.2,0-3.6-1.1-3.6-4V451.5z"/>
	<path class="st1" d="M491,451.5c0-0.3-0.2-0.5-0.5-0.5h-0.8v-2.2h2.4c0.9,0,1.4,0.4,1.4,1.2v0.3c0,0.2,0,0.5,0,0.5l0,0
		c0.5-0.9,1.6-2.2,3.7-2.2c2.3,0,3.7,1.2,3.7,4v4.1c0,0.3,0.2,0.5,0.5,0.5h0.8v2.2h-2.5c-1,0-1.4-0.4-1.4-1.4v-4.8
		c0-1.3-0.3-2.1-1.6-2.1c-1.4,0-2.4,0.9-2.8,2.1c-0.1,0.4-0.2,0.9-0.2,1.4v4.8H491V451.5z"/>
	<path class="st1" d="M506.3,451.5c0-0.3-0.2-0.5-0.5-0.5H505v-2.2h2.5c1,0,1.4,0.4,1.4,1.4v6.4c0,0.3,0.2,0.5,0.5,0.5h0.8v2.2h-2.5
		c-1,0-1.4-0.4-1.4-1.4V451.5z M506.4,444.7h2.3v2.4h-2.3V444.7z"/>
	<path class="st1" d="M514.4,450.9H513v-2.1h1.4V446h2.5v2.9h2.4v2.1H517v4.2c0,1.7,1.4,2,2.1,2c0.3,0,0.5,0,0.5,0v2.3
		c0,0-0.3,0.1-0.8,0.1c-1.5,0-4.4-0.4-4.4-3.9L514.4,450.9L514.4,450.9z"/>
	<path class="st1" d="M529.2,452.7h0.3v-0.1c0-1.5-0.6-2.1-1.9-2.1c-0.5,0-1.4,0.1-1.4,0.7v0.6h-2.4v-1.1c0-1.9,2.7-2.2,3.8-2.2
		c3.5,0,4.5,1.8,4.5,4.2v3.9c0,0.3,0.2,0.5,0.5,0.5h0.8v2.2H531c-1,0-1.3-0.5-1.3-1.1c0-0.3,0-0.5,0-0.5l0,0c0,0-0.8,1.8-3.2,1.8
		c-1.9,0-3.6-1.2-3.6-3.3C523,453,527.5,452.7,529.2,452.7z M524.7,444.7h2.5l1.6,2.8h-1.9L524.7,444.7z M527.2,457.5
		c1.4,0,2.4-1.5,2.4-2.7v-0.2h-0.5c-1.4,0-3.5,0.2-3.5,1.6C525.6,456.9,526.1,457.5,527.2,457.5z"/>
</g>
<g>
	<path class="st2" d="M807,125.4c0-3.7,1.9-8.4,6.4-8.4c1.6,0,2.7,0.6,2.7,0.6l-0.5,1.3c0,0-0.9-0.5-2.1-0.5c-3,0-4.6,3-4.9,6l0,0
		c0.7-1.1,2.2-1.8,3.7-1.8c2.7,0,4.5,1.9,4.5,4.6c0,3-2,4.9-4.6,4.9C809.1,132,807,129.2,807,125.4z M812.2,130.7
		c2,0,3.1-1.5,3.1-3.5s-1.3-3.4-3.3-3.4c-1.9,0-3.5,1.3-3.5,2.5C808.6,128.2,810.1,130.7,812.2,130.7z"/>
	<path class="st2" d="M828.4,121.1c0-1.6-1.1-2.7-3-2.7c-1.5,0-2.6,0.7-2.6,1.6v0.7h-1.4v-1.1c0-1.8,2.5-2.5,4-2.5
		c2.8,0,4.4,1.8,4.4,4.1c0,5.1-7.7,5-7.7,9c0,0.3,0.2,0.4,0.5,0.4h6.1c0.3,0,0.5-0.1,0.5-0.5v-1h1.3v1.5c0,0.9-0.4,1.3-1.3,1.3H822
		c-1,0-1.3-0.4-1.3-1.4C820.7,124.9,828.4,125.4,828.4,121.1z"/>
	<path class="st2" d="M836.7,130.1l-1.5,3.7H834l1.2-3.7H836.7z"/>
	<path class="st2" d="M848.7,121.1c0-1.6-1.1-2.7-3-2.7c-1.5,0-2.6,0.7-2.6,1.6v0.7h-1.4v-1.1c0-1.8,2.5-2.5,4-2.5
		c2.8,0,4.4,1.8,4.4,4.1c0,5.1-7.7,5-7.7,9c0,0.3,0.2,0.4,0.5,0.4h6.1c0.3,0,0.5-0.1,0.5-0.5v-1h1.3v1.5c0,0.9-0.4,1.3-1.3,1.3h-7.3
		c-1,0-1.3-0.4-1.3-1.4C841,124.9,848.7,125.4,848.7,121.1z"/>
</g>
<g>
	<path class="st2" d="M805.6,226c0,0,0.9,0.5,2.1,0.5c3,0,4.6-3.1,4.9-6l0,0c-0.7,1.1-2.2,1.8-3.7,1.8c-2.7,0-4.5-1.9-4.5-4.6
		c0-3,2-4.9,4.6-4.9c3.2,0,5.3,2.8,5.3,6.7c0,3.7-1.9,8.4-6.4,8.4c-1.6,0-2.7-0.6-2.7-0.6L805.6,226z M812.6,218.5
		c0-1.9-1.5-4.4-3.7-4.4c-2,0-3.1,1.5-3.1,3.5s1.3,3.4,3.3,3.4C811,221,812.6,219.7,812.6,218.5z"/>
	<path class="st2" d="M817.4,222.6l7.1-9.6h1.6v9.3h2.3v1.3h-2.3v4h-1.5v-4h-7.2L817.4,222.6L817.4,222.6z M824.6,216.3
		c0-0.6,0.1-1.4,0.1-1.4l0,0c0,0-0.4,0.6-0.7,1.1l-4,5.3c-0.4,0.5-0.8,0.9-0.8,0.9l0,0c0,0,0.6-0.1,1.2-0.1h4.3L824.6,216.3
		L824.6,216.3z"/>
	<path class="st2" d="M833.8,225.9l-1.5,3.7h-1.2l1.2-3.7H833.8z"/>
	<path class="st2" d="M837.8,221.2c0-3.7,1.9-8.4,6.4-8.4c1.6,0,2.7,0.6,2.7,0.6l-0.5,1.3c0,0-0.9-0.5-2.1-0.5c-3,0-4.6,3-4.9,6l0,0
		c0.7-1.1,2.2-1.8,3.7-1.8c2.7,0,4.5,1.9,4.5,4.6c0,3-2,4.9-4.6,4.9C839.9,227.8,837.8,225,837.8,221.2z M843.1,226.5
		c2,0,3.1-1.5,3.1-3.5s-1.3-3.4-3.3-3.4c-1.9,0-3.5,1.3-3.5,2.5C839.4,224.1,840.9,226.5,843.1,226.5z"/>
</g>
<g>
	<path class="st2" d="M812.2,287.1l7.1-9.6h1.6v9.3h2.3v1.3h-2.3v4h-1.5v-4h-7.2L812.2,287.1L812.2,287.1z M819.4,280.9
		c0-0.6,0.1-1.4,0.1-1.4l0,0c0,0-0.4,0.6-0.7,1.1l-4,5.3c-0.4,0.5-0.8,0.9-0.8,0.9l0,0c0,0,0.6-0.1,1.2-0.1h4.3L819.4,280.9
		L819.4,280.9z"/>
	<path class="st2" d="M828.6,290.4l-1.5,3.7h-1.2l1.2-3.7H828.6z"/>
	<path class="st2" d="M834,289.3c0,0,1.1,1.7,3.4,1.7c2.1,0,3.6-1.5,3.6-3.4c0-2-1.7-3.4-3.8-3.4c-1.6,0-2.8,0.8-2.8,0.8l-0.7-0.3
		l0.6-5.9c0.1-0.9,0.4-1.3,1.3-1.3h4.8c0.9,0,1.2,0.4,1.2,1.3v1.5h-1.3v-1c0-0.3-0.2-0.5-0.5-0.5h-3.7c-0.3,0-0.4,0.1-0.5,0.5
		l-0.4,3.3c-0.1,0.5-0.1,0.8-0.1,0.8l0,0c0,0,0.9-0.5,2.2-0.5c3,0,5.1,2.1,5.1,4.7s-2.2,4.7-5.1,4.7c-2.9,0-4.3-2.1-4.3-2.1
		L834,289.3z"/>
</g>
<g>
	<path class="st2" d="M813.6,365.8h3.3v-10.7c0-0.4,0-0.8,0-0.8l0,0c0,0-0.1,0.3-0.7,0.9l-1.6,1.6l-0.9-0.9l3.3-3.3h1.4v13.3h3.2
		v1.3h-7.9L813.6,365.8L813.6,365.8z"/>
	<path class="st2" d="M827.3,365.4l-1.5,3.7h-1.2l1.2-3.7H827.3z"/>
	<path class="st2" d="M832.7,364.2c0,0,1.1,1.7,3.4,1.7c2.1,0,3.6-1.5,3.6-3.4c0-2-1.7-3.4-3.8-3.4c-1.6,0-2.8,0.8-2.8,0.8l-0.7-0.3
		l0.6-5.9c0.1-0.9,0.4-1.3,1.3-1.3h4.8c0.9,0,1.2,0.4,1.2,1.3v1.5H839v-1c0-0.3-0.2-0.5-0.5-0.5h-3.7c-0.3,0-0.4,0.1-0.5,0.5
		l-0.4,3.3c-0.1,0.5-0.1,0.8-0.1,0.8l0,0c0,0,0.9-0.5,2.2-0.5c3,0,5.1,2.1,5.1,4.7s-2.2,4.7-5.1,4.7c-2.9,0-4.3-2.1-4.3-2.1
		L832.7,364.2z"/>
</g>
<g>
	<path class="st1" d="M790.6,458.6h3.2v-8.2c0-0.5,0-1,0-1l0,0c0,0-0.2,0.4-0.6,0.8l-1.2,1.1l-1.6-1.7l3.7-3.5h2.4v12.4h3.2v2.3
		h-9.1L790.6,458.6L790.6,458.6z"/>
	<path class="st1" d="M802.8,454.3c0-3.9,2.2-8.4,6.8-8.4c1.9,0,3,0.6,3,0.6l-0.8,2.3c0,0-1-0.5-2.1-0.5c-2.3,0-3.5,1.9-3.9,4l0,0
		c0.5-0.6,1.7-1.1,2.7-1.1c2.9,0,4.7,2.3,4.7,4.9c0,2.7-1.9,4.9-4.8,4.9C805.4,461.2,802.8,458.7,802.8,454.3z M808.5,458.7
		c1.4,0,2.2-1.1,2.2-2.5c0-1.5-0.9-2.7-2.7-2.7c-1.3,0-2.4,0.7-2.4,1.6C805.6,457,807,458.7,808.5,458.7z"/>
	<path class="st1" d="M824,450.3c0-1.2-0.9-1.9-2.1-1.9c-1.2,0-1.9,0.6-1.9,1.2v0.6h-2.4v-1.5c0-1.9,2.6-2.8,4.5-2.8
		c2.6,0,4.8,1.6,4.8,4.4c0,5-7.1,5.3-7.1,7.9c0,0.3,0.2,0.4,0.6,0.4h4.3c0.3,0,0.5-0.2,0.5-0.5v-0.9h2.4v2.2c0,1-0.4,1.4-1.4,1.4
		h-7.7c-1.3,0-1.5-0.6-1.5-1.9C816.8,453.6,824,453.9,824,450.3z"/>
	<path class="st1" d="M834.6,458.2l-2,4.8h-1.9l1.4-4.8H834.6z"/>
	<path class="st1" d="M840.8,453L840.8,453c0,0-1.6-1-1.6-3c0-2.1,1.7-4.1,4.7-4.1c2.9,0,4.7,1.8,4.7,4.1c0,2.1-1.6,3.3-1.6,3.3l0,0
		c1.3,0.8,2,1.9,2,3.4c0,2.3-2.1,4.4-5.2,4.4c-2.9,0-5.3-1.8-5.3-4.5C838.5,454.4,840.8,453,840.8,453z M843.8,458.7
		c1.4,0,2.5-0.8,2.5-2.1c0-1-0.9-1.5-2.1-2c-0.6-0.3-1.2-0.5-1.3-0.5c-0.5,0-1.6,1.1-1.6,2.4C841.3,457.8,842.4,458.7,843.8,458.7z
		 M844.8,452.3c0.5,0,1.2-1,1.2-2.1s-0.9-1.8-2.1-1.8c-1.3,0-2.1,0.7-2.1,1.7s0.9,1.5,2,1.9C844,452.1,844.5,452.3,844.8,452.3z"/>
	<path class="st1" d="M855,453L855,453c0,0-1.6-1-1.6-3c0-2.1,1.7-4.1,4.7-4.1c2.9,0,4.7,1.8,4.7,4.1c0,2.1-1.6,3.3-1.6,3.3l0,0
		c1.3,0.8,2,1.9,2,3.4c0,2.3-2.1,4.4-5.2,4.4c-2.9,0-5.3-1.8-5.3-4.5C852.7,454.4,855,453,855,453z M858,458.7
		c1.4,0,2.5-0.8,2.5-2.1c0-1-0.9-1.5-2.1-2c-0.6-0.3-1.2-0.5-1.3-0.5c-0.5,0-1.6,1.1-1.6,2.4C855.4,457.8,856.6,458.7,858,458.7z
		 M858.9,452.3c0.5,0,1.2-1,1.2-2.1s-0.9-1.8-2.1-1.8c-1.3,0-2.1,0.7-2.1,1.7s0.9,1.5,2,1.9C858.2,452.1,858.7,452.3,858.9,452.3z"
		/>
</g>
</svg>
