<svg viewBox="0 0 1040 510" xmlns="http://www.w3.org/2000/svg"><path d="m29.9 2.2h979.7c15.4 0 27.8 12.4 27.8 27.8v449.6c0 15.4-12.4 27.8-27.8 27.8h-979.7c-15.4 0-27.8-12.4-27.8-27.8v-449.6c-.1-15.3 12.4-27.8 27.8-27.8zm1007.4 30.6c0 15.4-12.4 27.8-27.8 27.8h-979.6c-15.4 0-27.8-12.4-27.8-27.8v-2.8" style="fill:none;stroke:#c0b07f;stroke-width:3;stroke-linecap:round;stroke-miterlimit:10;stroke-dasharray:0 9"/><path d="m159.1 39h.4c.5 0 .7-.1.9-.6l5.8-15.7h2.8l5.8 15.7c.2.5.4.6.9.6h.4v2.3h-1.5c-1.3 0-1.7-.3-2.2-1.5l-1.4-3.8h-6.8l-1.4 3.8c-.4 1.2-.9 1.5-2.2 1.5h-1.4zm11.2-5.2-2-5.6c-.3-1-.7-2.6-.7-2.6h-.1s-.4 1.6-.7 2.6l-2 5.6zm11.2-8.8h-1.7v-2.3h8.1c3.3 0 5.5 2 5.5 5.4 0 3.1-2 4.6-3.3 4.9v.1s.5.2.8.8l2.2 4.4c.3.6.7.6 1.3.6h.3v2.3h-1.3c-1.4 0-2-.2-2.6-1.4l-2.5-5c-.5-.9-.8-1-1.8-1h-2.4v7.4h-2.6zm6.1 6.7c2 0 3.2-1.3 3.2-3.4s-1.2-3.3-3.1-3.3h-3.5v6.6h3.4zm12.8-6.7h-1.7v-2.3h10.9c1.2 0 1.7.5 1.7 1.7v2.3h-2.4v-1.2c0-.4-.2-.6-.6-.6h-5.3v5.8h6.5v2.3h-6.5v5.4c0 .4.2.6.6.6h5.4c.4 0 .6-.2.6-.6v-1.2h2.4v2.3c0 1.2-.5 1.7-1.7 1.7h-8.3c-1.2 0-1.7-.5-1.7-1.7v-14.5zm15.1 14h.4c.5 0 .7-.1.9-.6l5.8-15.7h2.8l5.8 15.7c.2.5.4.6.9.6h.4v2.3h-1.5c-1.3 0-1.7-.3-2.2-1.5l-1.4-3.8h-6.8l-1.4 3.8c-.4 1.2-.9 1.5-2.2 1.5h-1.4zm11.2-5.2-2-5.6c-.3-1-.7-2.6-.7-2.6h-.1s-.4 1.6-.7 2.6l-2 5.6zm20.9-8.8h-1.7v-2.3h7.5c5.6 0 9.4 3.4 9.4 9.2 0 5.9-3.7 9.3-9.4 9.3h-4.1c-1.2 0-1.7-.5-1.7-1.7zm3.2 14h2.4c4.1 0 6.8-2.5 6.8-7s-2.7-7-6.8-7h-3v13.4c0 .4.2.6.6.6zm16.6 0h1.8v-14h-1.8v-2.3h6.1v2.3h-1.8v14h1.8v2.3h-6.1zm20.6 0h1.8v-14h-1.8v-2.3h6.1v2.3h-1.8v14h1.8v2.3h-6.1zm10.3 0h.9c.4 0 .6-.2.6-.6l1.3-15.7h2.7l4.4 9.8c.4 1 .9 2.3.9 2.3h.1s.5-1.3.9-2.3l4.4-9.8h2.7l1.3 15.7c0 .4.2.6.6.6h.9v2.3h-2.3c-1.2 0-1.6-.5-1.7-1.7l-.8-9.8c-.1-1.1-.1-2.7-.1-2.7h-.1s-.5 1.7-1 2.7l-3.7 8.1h-2.2l-3.7-8.1c-.4-1-1-2.8-1-2.8h-.1s0 1.7-.1 2.8l-.7 9.8c-.1 1.2-.5 1.7-1.7 1.7h-2.3v-2.3zm27.3-14h-1.7v-2.3h8.2c3.4 0 5.8 2.3 5.8 5.8s-2.4 5.9-5.8 5.9h-3.8v6.8h-2.6v-16.2zm6 7.2c2.2 0 3.5-1.4 3.5-3.6s-1.3-3.5-3.5-3.5h-3.4v7.2zm8.2 6.8h.4c.5 0 .7-.1.9-.6l5.8-15.7h2.8l5.8 15.7c.2.5.4.6.9.6h.4v2.3h-1.5c-1.3 0-1.7-.3-2.2-1.5l-1.4-3.8h-6.8l-1.4 3.8c-.4 1.2-.9 1.5-2.2 1.5h-1.4zm11.2-5.2-2-5.6c-.3-1-.7-2.6-.7-2.6h-.1s-.4 1.6-.7 2.6l-2 5.6zm13.3-8.8h-3.7c-.4 0-.6.2-.6.6v1.2h-2.3v-2.4c0-1.2.4-1.6 1.6-1.6h12.7c1.2 0 1.6.4 1.6 1.6v2.4h-2.3v-1.2c0-.4-.2-.6-.6-.6h-3.7v16.3h-2.6v-16.3zm19.3 0h-3.7c-.4 0-.6.2-.6.6v1.2h-2.3v-2.4c0-1.2.4-1.6 1.6-1.6h12.7c1.2 0 1.6.4 1.6 1.6v2.4h-2.3v-1.2c0-.4-.2-.6-.6-.6h-3.7v16.3h-2.6v-16.3zm22.2-2.5c5.3 0 9.5 4.1 9.5 9.4 0 5.5-4.2 9.7-9.5 9.7s-9.5-4.2-9.5-9.7c0-5.3 4.1-9.4 9.5-9.4zm0 16.6c3.7 0 6.8-3.1 6.8-7.2 0-4-3-7-6.8-7s-6.8 3-6.8 7c0 4.1 3 7.2 6.8 7.2zm288.1-12.7h-3.7c-.4 0-.6.2-.6.6v1.2h-2.3v-2.4c0-1.2.4-1.6 1.6-1.6h12.8c1.2 0 1.6.4 1.6 1.6v2.4h-2.3v-1.2c0-.4-.2-.6-.6-.6h-3.7v16.3h-2.6v-16.3zm22.2-2.6c5.4 0 9.5 4.1 9.5 9.5 0 5.5-4.2 9.7-9.5 9.7s-9.5-4.3-9.5-9.7 4.2-9.5 9.5-9.5zm0 16.7c3.8 0 6.8-3.2 6.8-7.3 0-4-3-7-6.8-7s-6.8 3-6.8 7c0 4.2 3.1 7.3 6.8 7.3zm19.6-14.1h-3.7c-.4 0-.6.2-.6.6v1.2h-2.3v-2.4c0-1.2.4-1.6 1.6-1.6h12.8c1.2 0 1.6.4 1.6 1.6v2.4h-2.3v-1.2c0-.4-.2-.6-.6-.6h-3.7v16.3h-2.6v-16.3zm10.3 14h.4c.5 0 .7-.1.9-.6l5.8-15.7h2.8l5.8 15.7c.2.5.4.6.9.6h.4v2.3h-1.5c-1.3 0-1.7-.3-2.2-1.5l-1.4-3.8h-6.8l-1.4 3.8c-.4 1.2-.9 1.5-2.2 1.5h-1.5zm11.2-5.3-2-5.6c-.3-1-.7-2.6-.7-2.6h-.1s-.4 1.6-.7 2.6l-2 5.6zm11.3-8.1c0-.4-.2-.6-.6-.6h-1.1v-2.3h2.7c1.2 0 1.7.5 1.7 1.7v14c0 .4.2.6.6.6h5.1c.4 0 .6-.2.6-.6v-1.2h2.4v2.4c0 1.2-.5 1.7-1.7 1.7h-7.9c-1.2 0-1.7-.5-1.7-1.7zm16.1-.6h-1.7v-2.3h10.9c1.2 0 1.7.5 1.7 1.7v2.3h-2.4v-1.1c0-.4-.2-.6-.6-.6h-5.3v5.8h6.5v2.3h-6.5v5.4c0 .4.2.6.6.6h5.4c.4 0 .6-.2.6-.6v-1.2h2.4v2.3c0 1.2-.5 1.7-1.7 1.7h-8.2c-1.2 0-1.7-.5-1.7-1.7zm35 2.8c0-1.7-1.3-2.9-3.3-2.9-1.7 0-2.9.8-2.9 1.8v.8h-2.4v-1.6c0-2.4 3.2-3.4 5.4-3.4 3.4 0 5.8 2.2 5.8 5.3 0 6.4-9.4 6.5-9.4 10.8 0 .4.2.5.7.5h6.6c.4 0 .6-.2.6-.6v-1.2h2.4v2.3c0 1.2-.5 1.7-1.7 1.7h-9.5c-1.4 0-1.8-.6-1.8-2.1 0-6.9 9.5-6.4 9.5-11.4zm8.5 4.2c0-5.3 1.6-9.6 6.6-9.6 4.9 0 6.5 4.2 6.5 9.6s-1.6 9.6-6.5 9.6c-5 0-6.6-4.3-6.6-9.6zm10.5 0c0-4-.9-7.2-3.9-7.2s-3.9 3.2-3.9 7.2.9 7.2 3.9 7.2 3.9-3.2 3.9-7.2zm8 7h4.1v-13.2h-.1s-.2.4-.9 1.1l-1.7 1.7-1.6-1.6 4.4-4.3h2.4v16.3h4v2.3h-10.7zm23.4-12.3c.6-1.1 1.1-1.7 1.1-1.7v-.1s-.4.1-1.3.1h-5.6c-.4 0-.6.2-.6.6v1.2h-2.4v-2.3c0-1.2.4-1.7 1.6-1.7h11.3v1.8l-9 16.8h-2.9zm20.3.6h1.6c-1.4 2.4-2.1 4.9-2.1 7.6 0 2.8.7 5.7 2.2 8.2h-1.6c-1.4-2.2-2.2-5.1-2.2-8s.7-5.5 2.1-7.8zm4.8 12.3h.6c.3 0 .4-.2.4-.4l.9-11.3h2l3.1 7.1c.3.7.7 1.7.7 1.7s.3-1 .7-1.7l3.1-7.1h2l.9 11.3c0 .3.2.4.4.4h.6v1.6h-1.7c-.9 0-1.2-.4-1.2-1.2l-.6-7.1c-.1-.8 0-2 0-2s-.4 1.3-.7 2l-2.7 5.9h-1.6l-2.7-5.9c-.3-.7-.7-2-.7-2v2l-.5 7.1c-.1.9-.4 1.2-1.2 1.2h-1.7v-1.6zm30.3-8.1c2.7 0 4.1 2 4.1 4.5 0 .2-.1.8-.1.8h-7c.1 2 1.6 3.2 3.3 3.2s2.8-1.1 2.8-1.1l.8 1.3s-1.4 1.4-3.7 1.4c-3 0-5.1-2.2-5.1-5 .1-3.2 2.2-5.1 4.9-5.1zm2.2 3.9c-.1-1.6-1.1-2.4-2.3-2.4-1.4 0-2.5.9-2.8 2.4zm6.2-1.7c0-.3-.2-.4-.4-.4h-.8v-1.6h1.8c.9 0 1.2.4 1.2 1.2v4.6c0 1.3.3 2.4 1.8 2.4 2 0 3.1-1.7 3.1-3.6v-4.5h1.8v7.6c0 .3.2.4.4.4h.8v1.6h-1.8c-.8 0-1.2-.4-1.2-1.1v-1c-.4.9-1.6 2.2-3.5 2.2-2.2 0-3.3-1.1-3.3-3.7zm13.8 0c0-.3-.2-.4-.4-.4h-.8v-1.6h1.7c.8 0 1.2.3 1.2 1.1v1.3c.5-1.4 1.6-2.5 3-2.5h.5v1.8s-.2-.1-.5-.1c-1.2 0-2.3.8-2.7 2.3-.2.6-.2 1.1-.2 1.7v3.9h-1.8zm13.1-2.2c2.9 0 5.2 2.1 5.2 5s-2.3 5-5.2 5-5.2-2.1-5.2-5 2.3-5 5.2-5zm0 8.4c1.8 0 3.3-1.4 3.3-3.5 0-2-1.5-3.4-3.3-3.4s-3.3 1.4-3.3 3.4c0 2.1 1.5 3.5 3.3 3.5zm10.7-5c0-2.7-.7-5.2-2.1-7.6h1.6c1.4 2.2 2.1 4.9 2.1 7.7 0 2.9-.8 5.8-2.2 8h-1.6c1.5-2.4 2.2-5.3 2.2-8.1z" fill="#a18b52"/><path d="m106.5 96.8c4.1 0 7.3 3.2 7.3 7.4s-3.3 7.6-7.3 7.6c-4.1 0-7.3-3.3-7.3-7.6-.1-4.2 3.1-7.4 7.3-7.4zm0 13.5c3.2 0 5.8-2.7 5.8-6.2 0-3.4-2.6-6-5.8-6s-5.8 2.6-5.8 6c-.1 3.5 2.5 6.2 5.8 6.2zm16.5-9.4c1.2 0 3.7.5 3.7 2.2v.9h-1.3v-.6c0-.9-1.5-1.3-2.4-1.3-2.2 0-4 1.7-4 4.2s1.9 4.1 4 4.1l3.3-1.5.7 1s-1.4 1.7-4 1.7c-3.1 0-5.4-2.2-5.4-5.4-.1-3.1 2.3-5.3 5.4-5.3zm12.9 0c1.2 0 3.7.5 3.7 2.2v.9h-1.3v-.6c0-.9-1.5-1.3-2.4-1.3-2.2 0-4 1.7-4 4.2s1.9 4.1 4 4.1l3.3-1.5.7 1s-1.4 1.7-4 1.7c-3.1 0-5.4-2.2-5.4-5.4-.1-3.1 2.3-5.3 5.4-5.3zm8.3 1.9c0-.3-.2-.5-.5-.5h-.9v-1.2h1.5c.9 0 1.3.4 1.3 1.2v5c0 1.6.3 3.1 2.3 3.1 2.3 0 3.8-2.1 3.8-4.3v-4.9h1.4v8.7c0 .3.2.5.5.5h.9v1.2h-1.5c-.9 0-1.3-.4-1.3-1.1v-1.2c-.4 1-1.8 2.6-4 2.6-2.4 0-3.5-1.3-3.5-4zm14.5 0c0-.3-.2-.5-.5-.5h-.9v-1.2h1.4c.9 0 1.2.4 1.2 1.1v.7s.8-2 3.5-2c2.8 0 4.5 2.2 4.5 5.4 0 3.3-1.9 5.4-4.6 5.4-2.5 0-3.4-1.9-3.4-1.9v5.8h-1.4v-12.8zm4.7 7.6c1.8 0 3.3-1.5 3.3-4.2 0-2.5-1.3-4.1-3.3-4.1-1.7 0-3.3 1.2-3.3 4.2 0 2.1 1.1 4.1 3.3 4.1zm14.7-5.3h.6v-.1c0-2.2-.8-2.9-2.7-2.9-.5 0-2 .1-2 .9v.7h-1.3v-1c0-1.4 2.5-1.7 3.4-1.7 3.3 0 4 1.7 4 4v4.9c0 .3.2.5.5.5h.9v1.2h-1.4c-.9 0-1.2-.4-1.2-1.2v-.8s-.8 2.2-3.4 2.2c-1.7 0-3.5-1-3.5-3.1-.3-3.5 4.3-3.6 6.1-3.6zm-2.6 5.4c2 0 3.2-2.1 3.2-3.8v-.5h-.7c-1.6 0-4.9 0-4.9 2.4.1.9.8 1.9 2.4 1.9zm9.1 0 5.8-7.2c.4-.5.8-.9.8-.9h-4.8c-.3 0-.5.1-.5.5v.8h-1.3v-1.2c0-.9.4-1.3 1.3-1.3h7.2v.9l-5.8 7.2c-.4.5-.9.9-.9.9h5.3c.3 0 .5-.1.5-.5v-.8h1.3v1.2c0 .9-.4 1.3-1.3 1.3h-7.7v-.9zm13.4-7.7c0-.3-.2-.5-.5-.5h-.9v-1.2h1.5c.9 0 1.3.4 1.3 1.3v7.4c0 .3.2.5.5.5h.9v1.2h-1.5c-.9 0-1.3-.4-1.3-1.3zm0-5.8h1.4v1.8h-1.4zm11.6 3.9c3 0 5.5 2.3 5.5 5.4s-2.4 5.5-5.4 5.5-5.5-2.3-5.5-5.5c0-3.1 2.4-5.4 5.4-5.4zm0 9.5c2.2 0 4-1.8 4-4.2 0-2.3-1.8-4.1-4-4.1s-4 1.7-4 4.1 1.8 4.2 4 4.2zm10.1-7.6c0-.3-.2-.5-.5-.5h-.9v-1.2h1.4c.9 0 1.3.4 1.3 1.1v1.2c.4-.9 1.7-2.6 4.1-2.6 2.6 0 3.5 1.5 3.5 4v4.9c0 .3.2.5.5.5h.9v1.2h-1.5c-.9 0-1.3-.4-1.3-1.3v-4.9c0-1.6-.2-3.1-2.2-3.1-1.8 0-3.3 1.2-3.8 2.9-.1.4-.2.9-.2 1.4v4.9h-1.4v-8.5zm18.7-1.9c2.9 0 4.3 2.2 4.3 4.8v.7h-7.9c0 2.6 1.9 4.1 4 4.1 1.9 0 3.1-1.3 3.1-1.3l.7 1s-1.5 1.5-3.8 1.5c-3.1 0-5.4-2.2-5.4-5.4-.1-3.4 2.2-5.4 5-5.4zm2.9 4.3c-.1-2.1-1.4-3.2-2.9-3.2-1.7 0-3.2 1.1-3.5 3.2zm17.6-4.3c2.5 0 3.4 1.9 3.4 1.9v-4.1c0-.3-.2-.5-.5-.5h-.9v-1.2h1.5c.9 0 1.3.4 1.3 1.3v11.5c0 .3.2.5.5.5h.9v1.2h-1.4c-.9 0-1.2-.4-1.2-1.1v-.7s-.8 2.1-3.5 2.1c-2.8 0-4.5-2.2-4.5-5.4-.2-3.4 1.7-5.5 4.4-5.5zm3.4 5.4c0-2.1-1.1-4.1-3.3-4.1-1.8 0-3.3 1.5-3.3 4.1 0 2.5 1.3 4.2 3.3 4.2 1.7-.1 3.3-1.3 3.3-4.2zm7.1-3.5c0-.3-.2-.5-.5-.5h-.9v-1.2h1.5c.9 0 1.3.4 1.3 1.3v7.4c0 .3.2.5.5.5h.9v1.2h-1.5c-.9 0-1.3-.4-1.3-1.3zm0-5.8h1.4v1.8h-1.4zm7.1 5.8c0-.3-.2-.5-.5-.5h-.9v-1.2h1.4c.9 0 1.3.3 1.3 1.2v1.5c.5-1.6 1.6-2.7 3.3-2.7.3 0 .6.1.6.1v1.4h-.5c-1.5 0-2.5 1.1-3 2.7-.2.7-.3 1.4-.3 2v4.4h-1.4zm13.2-1.9c2.9 0 4.3 2.2 4.3 4.8v.7h-7.9c0 2.6 1.9 4.1 4 4.1 1.9 0 3.1-1.3 3.1-1.3l.7 1s-1.5 1.5-3.8 1.5c-3.1 0-5.4-2.2-5.4-5.4-.1-3.4 2.2-5.4 5-5.4zm2.9 4.3c-.1-2.1-1.4-3.2-2.9-3.2-1.7 0-3.2 1.1-3.5 3.2zm6.4-2.9h-1.4v-1.2h1.4v-2.9h1.4v2.9h2.6v1.2h-2.6v5.3c0 2.4 1.5 2.7 2.3 2.7h.5v1.3h-.6c-1.2 0-3.6-.4-3.6-3.8zm8.9 0h-1.4v-1.2h1.4v-2.9h1.4v2.9h2.6v1.2h-2.6v5.3c0 2.4 1.5 2.7 2.3 2.7h.5v1.3h-.6c-1.2 0-3.6-.4-3.6-3.8zm14.1 2.8h.6v-.1c0-2.2-.8-2.9-2.7-2.9-.5 0-2 .1-2 .9v.7h-1.3v-1c0-1.4 2.5-1.7 3.4-1.7 3.3 0 4 1.7 4 4v4.9c0 .3.2.5.5.5h.9v1.2h-1.4c-.9 0-1.2-.4-1.2-1.2v-.8s-.8 2.2-3.4 2.2c-1.7 0-3.5-1-3.5-3.1-.3-3.5 4.3-3.6 6.1-3.6zm-2.6 5.4c2 0 3.2-2.1 3.2-3.8v-.5h-.6c-1.6 0-4.9 0-4.9 2.4 0 .9.7 1.9 2.3 1.9zm17.4-1.6s1.1 1.6 3.2 1.6c1.1 0 2.2-.6 2.2-1.6 0-2.3-5.8-1.8-5.8-5.2 0-1.9 1.6-2.8 3.7-2.8 1 0 3.1.4 3.1 1.9v.9h-1.3v-.5c0-.8-1.1-1-1.8-1-1.4 0-2.3.5-2.3 1.5 0 2.3 5.8 1.8 5.8 5.2 0 1.7-1.6 2.9-3.6 2.9-2.7 0-4-1.8-4-1.8zm11.4-6.1c0-.3-.2-.5-.5-.5h-.9v-1.2h1.5c.9 0 1.3.4 1.3 1.2v5c0 1.6.3 3.1 2.3 3.1 2.3 0 3.8-2.1 3.8-4.3v-4.9h1.4v8.7c0 .3.2.5.5.5h.9v1.2h-1.4c-.9 0-1.3-.4-1.3-1.1v-1.2c-.4 1-1.8 2.6-4 2.6-2.4 0-3.5-1.3-3.5-4zm14.4-4.1c0-.3-.2-.5-.5-.5h-.9v-1.2h1.5c.9 0 1.3.4 1.3 1.3v11.5c0 .3.2.5.5.5h.9v1.2h-1.5c-.9 0-1.3-.4-1.3-1.3zm14.9 3.6h-1.4v-1.2h1.4v-2.9h1.4v2.9h2.6v1.2h-2.6v5.3c0 2.4 1.5 2.7 2.3 2.7h.5v1.3h-.6c-1.2 0-3.6-.4-3.6-3.8zm12.7-1.4c2.9 0 4.3 2.2 4.3 4.8v.7h-7.9c0 2.6 1.9 4.1 4 4.1 1.9 0 3.1-1.3 3.1-1.3l.7 1s-1.5 1.5-3.8 1.5c-3.1 0-5.4-2.2-5.4-5.4-.1-3.4 2.2-5.4 5-5.4zm2.9 4.3c-.1-2.1-1.4-3.2-2.9-3.2-1.7 0-3.2 1.1-3.6 3.2zm6.3-2.4c0-.3-.2-.5-.5-.5h-.9v-1.2h1.4c.9 0 1.3.3 1.3 1.2v1.5c.5-1.6 1.6-2.7 3.3-2.7.3 0 .6.1.6.1v1.4h-.5c-1.5 0-2.5 1.1-3 2.7-.2.7-.3 1.4-.3 2v4.4h-1.4zm9.6 0c0-.3-.2-.5-.5-.5h-.9v-1.2h1.4c.9 0 1.3.3 1.3 1.2v1.5c.5-1.6 1.6-2.7 3.3-2.7.3 0 .6.1.6.1v1.4h-.5c-1.5 0-2.5 1.1-3 2.7-.2.7-.3 1.4-.3 2v4.4h-1.4zm9.6 0c0-.3-.2-.5-.5-.5h-.9v-1.2h1.5c.9 0 1.3.4 1.3 1.3v7.4c0 .3.2.5.5.5h.9v1.2h-1.5c-.9 0-1.3-.4-1.3-1.3zm0-5.8h1.4v1.8h-1.4zm7.2 5.3h-1.4v-1.2h1.4v-2.9h1.4v2.9h2.6v1.2h-2.6v5.3c0 2.4 1.5 2.7 2.3 2.7h.5v1.3h-.6c-1.2 0-3.6-.4-3.6-3.8zm13.1-1.4c3 0 5.5 2.3 5.5 5.4s-2.4 5.5-5.4 5.5-5.5-2.3-5.5-5.5c0-3.1 2.4-5.4 5.4-5.4zm0 9.5c2.2 0 4-1.8 4-4.2 0-2.3-1.8-4.1-4-4.1s-4 1.7-4 4.1 1.8 4.2 4 4.2zm10.1-7.6c0-.3-.2-.5-.5-.5h-.9v-1.2h1.4c.9 0 1.3.3 1.3 1.2v1.5c.5-1.6 1.6-2.7 3.3-2.7.3 0 .6.1.6.1v1.4h-.5c-1.5 0-2.5 1.1-3 2.7-.2.7-.3 1.4-.3 2v4.4h-1.4zm9.6 0c0-.3-.2-.5-.5-.5h-.9v-1.2h1.5c.9 0 1.3.4 1.3 1.3v7.4c0 .3.2.5.5.5h.9v1.2h-1.5c-.9 0-1.3-.4-1.3-1.3zm0-5.8h1.4v1.8h-1.4zm11.6 3.9c3 0 5.5 2.3 5.5 5.4s-2.4 5.5-5.4 5.5-5.5-2.3-5.5-5.5c-.1-3.1 2.4-5.4 5.4-5.4zm0 9.5c2.2 0 4-1.8 4-4.2 0-2.3-1.8-4.1-4-4.1s-4 1.7-4 4.1 1.8 4.2 4 4.2zm-425.3 6.6h1.3c-1.5 2.5-2.2 5.2-2.2 8.1 0 3.1.8 6.1 2.4 8.9h-1.3c-1.5-2.4-2.4-5.6-2.4-8.8 0-3.1.7-5.8 2.2-8.2zm6.2 2.2c0-.3-.2-.5-.5-.5h-.9v-1.2h1.5c.9 0 1.3.4 1.3 1.3v11.5c0 .3.2.5.5.5h.9v1.2h-1.5c-.9 0-1.3-.4-1.3-1.3zm12.5 6.4h.6v-.1c0-2.2-.8-2.9-2.7-2.9-.5 0-2 .1-2 .9v.7h-1.3v-1c0-1.4 2.5-1.7 3.4-1.7 3.3 0 4 1.7 4 4v4.9c0 .3.2.5.5.5h.9v1.2h-1.4c-.9 0-1.2-.4-1.2-1.2v-.8s-.8 2.2-3.4 2.2c-1.7 0-3.5-1-3.5-3.1-.2-3.5 4.3-3.6 6.1-3.6zm-2.6 5.4c2 0 3.2-2.1 3.2-3.8v-.5h-.6c-1.6 0-4.9 0-4.9 2.4 0 .9.8 1.9 2.3 1.9zm9.3-7.7c-.1-.4-.3-.5-.7-.5h-.2v-1.2h.6c1 0 1.3.2 1.6 1.1l2.5 6.4c.2.5.3 1.2.3 1.2s.2-.7.3-1.2l2.5-6.4c.3-.9.7-1.1 1.6-1.1h.5v1.2h-.2c-.4 0-.6.1-.7.5l-3.4 8.6h-1.5zm17.5-1.9c3 0 5.5 2.3 5.5 5.4s-2.4 5.5-5.4 5.5-5.5-2.3-5.5-5.5c0-3.1 2.5-5.4 5.4-5.4zm.1 9.5c2.2 0 4-1.8 4-4.2 0-2.3-1.8-4.1-4-4.1s-4 1.7-4 4.1c-.1 2.4 1.8 4.2 4 4.2zm10.1-7.6c0-.3-.2-.5-.5-.5h-.9v-1.2h1.4c.9 0 1.3.3 1.3 1.2v1.5c.5-1.6 1.6-2.7 3.3-2.7.3 0 .6.1.6.1v1.4h-.5c-1.5 0-2.5 1.1-3 2.7-.2.7-.3 1.4-.3 2v4.4h-1.4zm14.1 2.3h.6v-.1c0-2.2-.8-2.9-2.7-2.9-.5 0-2 .1-2 .9v.7h-1.3v-1c0-1.4 2.5-1.7 3.4-1.7 3.3 0 4 1.7 4 4v4.9c0 .3.2.5.5.5h.9v1.2h-1.5c-.9 0-1.2-.4-1.2-1.2v-.8s-.8 2.2-3.4 2.2c-1.7 0-3.5-1-3.5-3.1-.1-3.5 4.4-3.6 6.2-3.6zm-2.6 5.4c2 0 3.2-2.1 3.2-3.8v-.5h-.6c-1.6 0-4.9 0-4.9 2.4 0 .9.8 1.9 2.3 1.9zm10.3-8.2h-1.4v-1.2h1.4v-2.9h1.4v2.9h2.6v1.2h-2.6v5.3c0 2.4 1.5 2.7 2.3 2.7h.5v1.3h-.6c-1.2 0-3.6-.4-3.6-3.8zm13.1-1.4c3 0 5.5 2.3 5.5 5.4s-2.4 5.5-5.4 5.5-5.5-2.3-5.5-5.5c-.1-3.1 2.4-5.4 5.4-5.4zm0 9.5c2.2 0 4-1.8 4-4.2 0-2.3-1.8-4.1-4-4.1s-4 1.7-4 4.1 1.8 4.2 4 4.2zm10.1-7.6c0-.3-.2-.5-.5-.5h-.9v-1.2h1.4c.9 0 1.3.3 1.3 1.2v1.5c.5-1.6 1.6-2.7 3.3-2.7.3 0 .6.1.6.1v1.4h-.5c-1.5 0-2.5 1.1-3 2.7-.2.7-.3 1.4-.3 2v4.4h-1.4zm9.6 0c0-.3-.2-.5-.5-.5h-.9v-1.2h1.5c.9 0 1.3.4 1.3 1.3v7.4c0 .3.2.5.5.5h.9v1.2h-1.5c-.9 0-1.3-.4-1.3-1.3zm-.1-5.8h1.4v1.8h-1.4zm14.8 5.8c0-.3-.2-.5-.5-.5h-.8v-1.2h1.4c.9 0 1.2.4 1.2 1.1v.7s.8-2 3.5-2c2.8 0 4.5 2.2 4.5 5.4 0 3.3-1.9 5.4-4.6 5.4-2.5 0-3.4-1.9-3.4-1.9v5.8h-1.4zm4.7 7.7c1.8 0 3.3-1.5 3.3-4.2 0-2.5-1.3-4.1-3.3-4.1-1.7 0-3.3 1.2-3.3 4.2 0 2 1.1 4.1 3.3 4.1zm9.4-7.7c0-.3-.2-.5-.5-.5h-.9v-1.2h1.4c.9 0 1.3.3 1.3 1.2v1.5c.5-1.6 1.6-2.7 3.3-2.7.3 0 .6.1.6.1v1.4h-.5c-1.5 0-2.5 1.1-3 2.7-.2.7-.3 1.4-.3 2v4.4h-1.4zm13.6-1.9c3 0 5.5 2.3 5.5 5.4s-2.4 5.5-5.4 5.5-5.5-2.3-5.5-5.5c-.1-3.1 2.4-5.4 5.4-5.4zm0 9.5c2.2 0 4-1.8 4-4.2 0-2.3-1.8-4.1-4-4.1s-4 1.7-4 4.1 1.8 4.2 4 4.2zm9.3-7.6c-.1-.4-.3-.5-.7-.5h-.2v-1.2h.6c1 0 1.3.2 1.6 1.1l2.5 6.4c.2.5.3 1.2.3 1.2s.2-.7.3-1.2l2.5-6.4c.3-.9.7-1.1 1.6-1.1h.5v1.2h-.2c-.4 0-.6.1-.7.5l-3.4 8.6h-1.5zm17.2-1.9c2.9 0 4.3 2.2 4.3 4.8v.7h-7.9c0 2.6 1.9 4.1 4 4.1 1.9 0 3.1-1.3 3.1-1.3l.7 1s-1.5 1.5-3.8 1.5c-3.1 0-5.4-2.2-5.4-5.4-.1-3.4 2.2-5.4 5-5.4zm2.9 4.3c-.1-2.1-1.4-3.2-2.9-3.2-1.7 0-3.2 1.1-3.5 3.2zm6.3-2.4c0-.3-.2-.5-.5-.5h-.9v-1.2h1.4c.9 0 1.3.4 1.3 1.1v1.2c.4-.9 1.7-2.6 4.1-2.6 2.6 0 3.5 1.5 3.5 4v4.9c0 .3.2.5.5.5h.9v1.2h-1.5c-.9 0-1.3-.4-1.3-1.3v-4.9c0-1.6-.2-3.1-2.2-3.1-1.8 0-3.3 1.2-3.8 2.9-.1.4-.2.9-.2 1.4v4.9h-1.4v-8.5zm14.6 0c0-.3-.2-.5-.5-.5h-.8v-1.2h1.5c.9 0 1.3.4 1.3 1.3v7.4c0 .3.2.5.5.5h.9v1.2h-1.5c-.9 0-1.3-.4-1.3-1.3v-7.4zm0-5.8h1.4v1.8h-1.4zm11.2 3.9c2.9 0 4.3 2.2 4.3 4.8v.7h-7.9c0 2.6 1.9 4.1 4 4.1 1.9 0 3.1-1.3 3.1-1.3l.7 1s-1.5 1.5-3.8 1.5c-3.1 0-5.4-2.2-5.4-5.4-.1-3.4 2.3-5.4 5-5.4zm2.9 4.3c-.1-2.1-1.4-3.2-2.9-3.2-1.7 0-3.2 1.1-3.5 3.2zm6.3-2.4c0-.3-.2-.5-.5-.5h-.9v-1.2h1.4c.9 0 1.3.4 1.3 1.1v1.2c.4-.9 1.7-2.6 4.1-2.6 2.6 0 3.5 1.5 3.5 4v4.9c0 .3.2.5.5.5h.9v1.2h-1.5c-.9 0-1.3-.4-1.3-1.3v-4.9c0-1.6-.2-3.1-2.2-3.1-1.8 0-3.3 1.2-3.8 2.9-.1.4-.2.9-.2 1.4v4.9h-1.4v-8.5zm14.7-.5h-1.4v-1.2h1.4v-2.9h1.4v2.9h2.6v1.2h-2.6v5.3c0 2.4 1.5 2.7 2.3 2.7h.5v1.3h-.6c-1.2 0-3.6-.4-3.6-3.8zm8.9.5c0-.3-.2-.5-.5-.5h-.8v-1.2h1.5c.9 0 1.3.4 1.3 1.3v7.4c0 .3.2.5.5.5h.9v1.2h-1.5c-.9 0-1.3-.4-1.3-1.3v-7.4zm-.1-5.8h1.4v1.8h-1.4zm18.5 3.9c2.5 0 3.4 1.9 3.4 1.9v-4.1c0-.3-.2-.5-.5-.5h-.9v-1.2h1.5c.9 0 1.3.4 1.3 1.3v11.5c0 .3.2.5.5.5h.9v1.2h-1.4c-.9 0-1.2-.4-1.2-1.1v-.7s-.8 2.1-3.5 2.1c-2.8 0-4.5-2.2-4.5-5.4-.2-3.4 1.7-5.5 4.4-5.5zm3.4 5.4c0-2.1-1.1-4.1-3.3-4.1-1.8 0-3.3 1.5-3.3 4.1 0 2.5 1.3 4.2 3.3 4.2 1.7-.1 3.3-1.3 3.3-4.2zm12.4-1.2h.6v-.1c0-2.2-.8-2.9-2.7-2.9-.5 0-2 .1-2 .9v.7h-1.4v-1c0-1.4 2.5-1.7 3.4-1.7 3.3 0 4 1.7 4 4v4.9c0 .3.2.5.5.5h.9v1.2h-1.4c-.9 0-1.2-.4-1.2-1.2v-.8s-.8 2.2-3.4 2.2c-1.7 0-3.5-1-3.5-3.1-.1-3.5 4.4-3.6 6.2-3.6zm-2.6 5.4c2 0 3.2-2.1 3.2-3.8v-.5h-.6c-1.6 0-4.9 0-4.9 2.4 0 .9.8 1.9 2.3 1.9zm17.7-7.7c0-.3-.2-.5-.5-.5h-.9v-1.2h1.5c.9 0 1.3.4 1.3 1.2v5c0 1.6.3 3.1 2.3 3.1 2.3 0 3.8-2.1 3.8-4.3v-4.9h1.4v8.7c0 .3.2.5.5.5h.9v1.2h-1.4c-.9 0-1.3-.4-1.3-1.1v-1.2c-.4 1-1.8 2.6-4 2.6-2.4 0-3.5-1.3-3.5-4zm14.5 0c0-.3-.2-.5-.5-.5h-.9v-1.2h1.4c.9 0 1.3.4 1.3 1.1v1.2c.4-.9 1.7-2.6 4.1-2.6 2.6 0 3.5 1.5 3.5 4v4.9c0 .3.2.5.5.5h.9v1.2h-1.5c-.9 0-1.3-.4-1.3-1.3v-4.9c0-1.6-.2-3.1-2.2-3.1-1.8 0-3.3 1.2-3.8 2.9-.1.4-.2.9-.2 1.4v4.9h-1.4zm22.2 0c0-.3-.2-.5-.5-.5h-.8v-1.2h1.4c.9 0 1.3.3 1.3 1.2v1.5c.5-1.6 1.6-2.7 3.3-2.7.3 0 .6.1.6.1v1.4h-.5c-1.5 0-2.5 1.1-3 2.7-.2.7-.3 1.4-.3 2v4.4h-1.4zm14.1 2.3h.6v-.1c0-2.2-.8-2.9-2.7-2.9-.5 0-2 .1-2 .9v.7h-1.3v-1c0-1.4 2.5-1.7 3.4-1.7 3.3 0 4 1.7 4 4v4.9c0 .3.2.5.5.5h.9v1.2h-1.4c-.9 0-1.2-.4-1.2-1.2v-.8s-.8 2.2-3.4 2.2c-1.7 0-3.5-1-3.5-3.1-.2-3.5 4.3-3.6 6.1-3.6zm-2.6 5.4c2 0 3.2-2.1 3.2-3.8v-.5h-.6c-1.6 0-4.9 0-4.9 2.4 0 .9.8 1.9 2.3 1.9zm13.7-9.6c2.8 0 3.4 1.8 3.4 1.8v-.4c0-.7.3-1.1 1.2-1.1h1.4v1.2h-.8c-.3 0-.5.1-.5.5v8.4c0 3.3-2.4 4.6-5 4.6-1.2 0-2.4-.3-3.4-.8l.5-1.2s1.3.7 2.8.7c2 0 3.6-.9 3.6-3.2v-1.6c-.6 1.1-1.6 1.8-3.2 1.8-2.8 0-4.6-2.2-4.6-5.3.2-3.3 1.9-5.4 4.6-5.4zm3.4 5.2c0-3-1.4-3.9-3.3-3.9-2 0-3.2 1.5-3.2 3.9 0 2.5 1.3 4.1 3.4 4.1 1.7-.1 3.1-1.1 3.1-4.1zm10.6-5.2c2.8 0 3.4 1.8 3.4 1.8v-.4c0-.7.3-1.1 1.2-1.1h1.4v1.2h-.8c-.3 0-.5.1-.5.5v8.4c0 3.3-2.4 4.6-5 4.6-1.2 0-2.4-.3-3.4-.8l.5-1.2s1.3.7 2.8.7c2 0 3.6-.9 3.6-3.2v-1.6c-.6 1.1-1.6 1.8-3.2 1.8-2.8 0-4.6-2.2-4.6-5.3.1-3.3 1.8-5.4 4.6-5.4zm3.4 5.2c0-3-1.4-3.9-3.3-3.9-2 0-3.2 1.5-3.2 3.9 0 2.5 1.3 4.1 3.4 4.1 1.6-.1 3.1-1.1 3.1-4.1zm7.1-3.3c0-.3-.2-.5-.5-.5h-.9v-1.2h1.5c.9 0 1.3.4 1.3 1.3v7.4c0 .3.2.5.5.5h.9v1.2h-1.5c-.9 0-1.3-.4-1.3-1.3zm-.1-5.8h1.4v1.8h-1.4zm11.6 3.9c3 0 5.5 2.3 5.5 5.4s-2.4 5.5-5.4 5.5-5.5-2.3-5.5-5.5c0-3.1 2.4-5.4 5.4-5.4zm.1 9.5c2.2 0 4-1.8 4-4.2 0-2.3-1.8-4.1-4-4.1s-4 1.7-4 4.1c-.1 2.4 1.7 4.2 4 4.2zm17.5-1.5 7.5-3.3-7.5-3.3v-1.4l9.3 4.1v1l-9.3 4.1zm21.8 1.3h3.2v-11.4s-.1.3-.7.9l-1.5 1.5-.9-.9 3.3-3.2h1.4v13.2h3.2v1.3h-7.8v-1.4zm11.5-6c0-4.1 1.2-7.4 5-7.4s5 3.3 5 7.4c0 4.2-1.2 7.5-5 7.5s-5-3.3-5-7.5zm8.4 0c0-3.4-.8-6.1-3.5-6.1s-3.5 2.7-3.5 6.1.8 6.1 3.5 6.1c2.8.1 3.5-2.6 3.5-6.1zm7-5.5c0-.3-.2-.5-.5-.5h-.9v-1.3h1.5c.9 0 1.3.4 1.3 1.3v5h1.7c.5 0 1-.1 1.2-.5l3.5-5.7h1.6l-3.7 6.1c-.4.6-.7.8-.7.8s.3.1.7.8l2.5 5c.2.4.5.5 1 .5h.4v1.3h-.8c-1.2 0-1.5-.1-2-1.1l-2.6-5.3c-.2-.5-.7-.5-1.3-.5h-1.6v6.9h-1.4zm13.7 4.1c0-.3-.2-.5-.5-.5h-.9v-1.2h1.4c.9 0 1.3.4 1.3 1.1v1.2c.5-1.4 2.1-2.6 3.7-2.6 1.9 0 2.9.9 3.2 2.6.6-1.4 2.1-2.6 3.8-2.6 2.5 0 3.4 1.5 3.4 4v4.9c0 .3.2.5.5.5h.9v1.2h-1.5c-.9 0-1.3-.4-1.3-1.3v-5c0-1.7-.3-3.1-2.2-3.1-1.6 0-2.9 1.4-3.3 2.9-.1.5-.2.9-.2 1.5v4.9h-1.4v-6.2c0-1.6-.2-3.1-2.2-3.1-1.7 0-2.9 1.5-3.4 3-.1.4-.2.9-.2 1.4v4.9h-1.4v-8.5zm-324.3 18.6c2.5 0 3.4 1.9 3.4 1.9v-4.1c0-.3-.2-.5-.5-.5h-.9v-1.2h1.5c.9 0 1.3.4 1.3 1.3v11.5c0 .3.2.5.5.5h.9v1.2h-1.4c-.9 0-1.2-.4-1.2-1.1v-.7s-.8 2.1-3.5 2.1c-2.8 0-4.5-2.2-4.5-5.4-.3-3.4 1.7-5.5 4.4-5.5zm3.4 5.4c0-2.1-1.1-4.1-3.3-4.1-1.8 0-3.3 1.5-3.3 4.1 0 2.5 1.3 4.2 3.3 4.2 1.7 0 3.3-1.3 3.3-4.2zm12.3-1.2h.6v-.1c0-2.2-.8-2.9-2.7-2.9-.5 0-2 .1-2 .9v.7h-1.3v-1c0-1.4 2.5-1.7 3.4-1.7 3.3 0 4 1.7 4 4v4.9c0 .3.2.5.5.5h.9v1.2h-1.4c-.9 0-1.2-.4-1.2-1.2v-.8s-.8 2.2-3.4 2.2c-1.7 0-3.5-1-3.5-3.1-.2-3.5 4.4-3.6 6.1-3.6zm-2.5 5.4c2 0 3.2-2.1 3.2-3.8v-.5h-.6c-1.6 0-4.9 0-4.9 2.4 0 .9.7 1.9 2.3 1.9zm10.2-7.7c0-.3-.2-.5-.5-.5h-.9v-1.2h1.5c.9 0 1.3.4 1.3 1.3v7.4c0 .3.2.5.5.5h.9v1.2h-1.5c-.9 0-1.3-.4-1.3-1.3zm0-5.8h1.4v1.8h-1.4zm14.3 12s1.1 1.6 3.2 1.6c1.1 0 2.2-.6 2.2-1.6 0-2.3-5.8-1.8-5.8-5.2 0-1.9 1.6-2.8 3.7-2.8 1 0 3.1.4 3.1 1.9v.9h-1.3v-.5c0-.8-1.1-1-1.8-1-1.4 0-2.3.5-2.3 1.5 0 2.3 5.8 1.8 5.8 5.2 0 1.7-1.6 2.9-3.6 2.9-2.7 0-4-1.8-4-1.8zm11.6-6.2c0-.3-.2-.5-.5-.5h-.9v-1.2h1.5c.9 0 1.3.4 1.3 1.3v7.4c0 .3.2.5.5.5h.9v1.2h-1.5c-.9 0-1.3-.4-1.3-1.3zm0-5.8h1.4v1.8h-1.4zm7.2 5.3h-1.4v-1.2h1.4v-2.9h1.4v2.9h2.6v1.2h-2.6v5.3c0 2.4 1.5 2.7 2.3 2.7h.5v1.3h-.6c-1.2 0-3.6-.4-3.6-3.8zm9 .5c0-.3-.2-.5-.5-.5h-.9v-1.2h1.5c.9 0 1.3.4 1.3 1.3v7.4c0 .3.2.5.5.5h.9v1.2h-1.5c-.9 0-1.3-.4-1.3-1.3zm-.1-5.8h1.4v1.8h-1.4zm14.8 5.8c0-.3-.2-.5-.5-.5h-.9v-1.2h1.4c.9 0 1.2.4 1.2 1.1v.7s.8-2 3.5-2c2.8 0 4.5 2.2 4.5 5.4 0 3.3-1.9 5.4-4.6 5.4-2.5 0-3.4-1.9-3.4-1.9v5.8h-1.4v-12.8zm4.6 7.7c1.8 0 3.3-1.5 3.3-4.2 0-2.5-1.3-4.1-3.3-4.1-1.7 0-3.3 1.2-3.3 4.2 0 2 1.2 4.1 3.3 4.1zm9.5-7.7c0-.3-.2-.5-.5-.5h-.9v-1.2h1.4c.9 0 1.3.3 1.3 1.2v1.5c.5-1.6 1.6-2.7 3.3-2.7.3 0 .6.1.6.1v1.4h-.5c-1.5 0-2.5 1.1-3 2.7-.2.7-.3 1.4-.3 2v4.4h-1.4zm13.5-1.9c3 0 5.5 2.3 5.5 5.4s-2.4 5.5-5.4 5.5-5.5-2.3-5.5-5.5c0-3.1 2.4-5.4 5.4-5.4zm.1 9.6c2.2 0 4-1.8 4-4.2 0-2.3-1.8-4.1-4-4.1s-4 1.7-4 4.1c-.1 2.4 1.7 4.2 4 4.2zm13.8-9.6c2.5 0 3.4 1.9 3.4 1.9v-4.1c0-.3-.2-.5-.5-.5h-.9v-1.2h1.5c.9 0 1.3.4 1.3 1.3v11.5c0 .3.2.5.5.5h.9v1.2h-1.4c-.9 0-1.2-.4-1.2-1.1v-.7s-.8 2.1-3.5 2.1c-2.8 0-4.5-2.2-4.5-5.4-.3-3.4 1.7-5.5 4.4-5.5zm3.4 5.4c0-2.1-1.1-4.1-3.3-4.1-1.8 0-3.3 1.5-3.3 4.1 0 2.5 1.3 4.2 3.3 4.2 1.7 0 3.3-1.3 3.3-4.2zm6.9-3.5c0-.3-.2-.5-.5-.5h-.9v-1.2h1.5c.9 0 1.3.4 1.3 1.2v5c0 1.6.3 3.1 2.3 3.1 2.3 0 3.8-2.1 3.8-4.3v-4.9h1.4v8.7c0 .3.2.5.5.5h.9v1.2h-1.5c-.9 0-1.3-.4-1.3-1.1v-1.2c-.4 1-1.8 2.6-4 2.6-2.4 0-3.5-1.3-3.5-4zm14.6-.5h-1.4v-1.2h1.4v-2.9h1.4v2.9h2.6v1.2h-2.6v5.3c0 2.4 1.5 2.7 2.3 2.7h.5v1.3h-.6c-1.2 0-3.6-.4-3.6-3.8zm9 0h-1.4v-1.2h1.4v-2.9h1.4v2.9h2.6v1.2h-2.6v5.3c0 2.4 1.5 2.7 2.3 2.7h.5v1.3h-.6c-1.2 0-3.6-.4-3.6-3.8zm8.9.5c0-.3-.2-.5-.5-.5h-.9v-1.2h1.5c.9 0 1.3.4 1.3 1.3v7.4c0 .3.2.5.5.5h.9v1.2h-1.5c-.9 0-1.3-.4-1.3-1.3zm-.1-5.8h1.4v1.8h-1.4zm6.5 5.8c-.1-.4-.3-.5-.7-.5h-.2v-1.2h.6c1 0 1.3.2 1.6 1.1l2.5 6.4c.2.5.3 1.2.3 1.2s.2-.7.3-1.2l2.5-6.4c.3-.9.7-1.1 1.6-1.1h.5v1.2h-.1c-.4 0-.6.1-.7.5l-3.4 8.6h-1.5zm13.4 0c0-.3-.2-.5-.5-.5h-.9v-1.2h1.5c.9 0 1.3.4 1.3 1.3v7.4c0 .3.2.5.5.5h.9v1.2h-1.5c-.9 0-1.3-.4-1.3-1.3zm-.1-5.8h1.4v1.8h-1.4zm8.7 7.6c0-2.9-.7-5.5-2.2-8.1h1.3c1.5 2.4 2.2 5.2 2.2 8.2 0 3.2-.9 6.3-2.4 8.8h-1.3c1.6-2.8 2.4-5.9 2.4-8.9zm-294.8 65.5h-1.3v-1.3h7.7c.9 0 1.2.4 1.2 1.3v1.4h-1.3v-1c0-.3-.2-.5-.5-.5h-4.4v5.4h5.2v1.3h-5.2v6.5h-1.4zm16.2 2.6c3 0 5.5 2.3 5.5 5.4s-2.4 5.5-5.4 5.5-5.5-2.3-5.5-5.5c0-3.1 2.4-5.4 5.4-5.4zm0 9.6c2.2 0 4-1.8 4-4.2 0-2.3-1.8-4.1-4-4.1s-4 1.7-4 4.1 1.8 4.2 4 4.2zm10.1-7.7c0-.3-.2-.5-.5-.5h-.9v-1.1h1.4c.9 0 1.3.3 1.3 1.2v1.5c.5-1.6 1.6-2.7 3.3-2.7.3 0 .6.1.6.1v1.4h-.5c-1.5 0-2.5 1.1-3 2.7-.2.7-.3 1.4-.3 2v4.4h-1.4zm9.7 0c0-.3-.2-.5-.5-.5h-.8v-1.1h1.4c.9 0 1.3.4 1.3 1.1v1.2c.4-.9 1.7-2.6 4.1-2.6 2.6 0 3.5 1.5 3.5 4v4.9c0 .3.2.5.5.5h.9v1.2h-1.5c-.9 0-1.3-.4-1.3-1.3v-4.9c0-1.6-.2-3.1-2.2-3.1-1.8 0-3.3 1.2-3.8 2.9-.1.4-.2.9-.2 1.4v4.9h-1.4zm14.6 0c0-.3-.2-.5-.5-.5h-.9v-1.1h1.5c.9 0 1.3.4 1.3 1.3v7.4c0 .3.2.5.5.5h.9v1.2h-1.5c-.9 0-1.3-.4-1.3-1.3zm0-5.7h1.4v1.8h-1.4zm7.2 5.2h-1.4v-1.1h1.4v-2.9h1.4v2.9h2.6v1.2h-2.6v5.3c0 2.4 1.5 2.7 2.3 2.7h.5v1.3h-.6c-1.2 0-3.6-.4-3.6-3.8zm8.8.5c0-.3-.2-.5-.5-.5h-.9v-1.1h1.5c.9 0 1.3.4 1.3 1.2v5c0 1.6.3 3.1 2.3 3.1 2.3 0 3.8-2.1 3.8-4.3v-5h1.4v8.7c0 .3.2.5.5.5h.9v1.2h-1.4c-.9 0-1.3-.4-1.3-1.1v-1.2c-.4 1-1.8 2.6-4 2.6-2.4 0-3.5-1.3-3.5-4zm14.5 0c0-.3-.2-.5-.5-.5h-.9v-1.1h1.4c.9 0 1.3.3 1.3 1.2v1.5c.5-1.6 1.6-2.7 3.3-2.7.3 0 .6.1.6.1v1.4h-.5c-1.5 0-2.5 1.1-3 2.7-.2.7-.3 1.4-.3 2v4.4h-1.4zm13.2-1.9c2.9 0 4.3 2.2 4.3 4.8v.7h-7.9c0 2.6 1.9 4.1 4 4.1 1.9 0 3.1-1.3 3.1-1.3l.7 1s-1.5 1.5-3.8 1.5c-3.1 0-5.4-2.2-5.4-5.4-.1-3.3 2.2-5.4 5-5.4zm2.9 4.4c-.1-2.1-1.4-3.2-2.9-3.2-1.7 0-3.2 1.1-3.5 3.2zm13.9-6.6c0-.3-.2-.5-.5-.5h-.9v-1.2h1.5c.9 0 1.3.4 1.3 1.3v11.5c0 .3.2.5.5.5h.9v1.2h-1.5c-.9 0-1.3-.4-1.3-1.3zm11.5 2.2c3 0 5.5 2.3 5.5 5.4s-2.4 5.5-5.4 5.5-5.5-2.3-5.5-5.5c0-3.1 2.4-5.4 5.4-5.4zm.1 9.6c2.2 0 4-1.8 4-4.2 0-2.3-1.8-4.1-4-4.1s-4 1.7-4 4.1c-.1 2.4 1.7 4.2 4 4.2zm14.5-9.6c1.2 0 3.7.5 3.7 2.2v.9h-1.3v-.6c0-.9-1.5-1.3-2.4-1.3-2.2 0-4 1.7-4 4.2s1.9 4.1 4 4.1l3.3-1.5.7 1s-1.4 1.7-4 1.7c-3.1 0-5.4-2.2-5.4-5.4 0-3 2.3-5.3 5.4-5.3zm13.8 4.2h.6v-.1c0-2.2-.8-2.9-2.7-2.9-.5 0-2 .1-2 .9v.7h-1.3v-1c0-1.4 2.5-1.7 3.4-1.7 3.3 0 4 1.7 4 4v4.9c0 .3.2.5.5.5h.9v1.2h-1.4c-.9 0-1.2-.4-1.2-1.2v-.8s-.8 2.2-3.4 2.2c-1.7 0-3.5-1-3.5-3.1-.2-3.4 4.3-3.6 6.1-3.6zm-2.6 5.4c2 0 3.2-2.1 3.2-3.8v-.5h-.6c-1.6 0-4.9 0-4.9 2.4 0 1 .8 1.9 2.3 1.9zm10.1-11.8c0-.3-.2-.5-.5-.5h-.9v-1.2h1.5c.9 0 1.3.4 1.3 1.3v11.5c0 .3.2.5.5.5h.9v1.2h-1.5c-.9 0-1.3-.4-1.3-1.3zm7.2 4.1c0-.3-.2-.5-.5-.5h-.9v-1.1h1.5c.9 0 1.3.4 1.3 1.3v7.4c0 .3.2.5.5.5h.9v1.2h-1.5c-.9 0-1.3-.4-1.3-1.3zm0-5.7h1.4v1.8h-1.4zm16.9-.6h1.3c-1.5 2.5-2.2 5.2-2.2 8.1 0 3.1.8 6.1 2.4 8.9h-1.3c-1.5-2.4-2.4-5.6-2.4-8.8 0-3 .8-5.8 2.2-8.2zm10.4 4.4c2.9 0 4.3 2.2 4.3 4.8v.7h-7.9c0 2.6 1.9 4.1 4 4.1 1.9 0 3.1-1.3 3.1-1.3l.7 1s-1.5 1.5-3.8 1.5c-3.1 0-5.4-2.2-5.4-5.4-.1-3.3 2.2-5.4 5-5.4zm2.9 4.4c-.1-2.1-1.4-3.2-2.9-3.2-1.7 0-3.2 1.1-3.5 3.2zm5.9 3.7s1.1 1.6 3.2 1.6c1.1 0 2.2-.6 2.2-1.6 0-2.3-5.8-1.8-5.8-5.2 0-1.9 1.6-2.8 3.7-2.8 1 0 3.1.4 3.1 1.9v.9h-1.3v-.6c0-.8-1.1-1-1.8-1-1.4 0-2.3.5-2.3 1.5 0 2.3 5.8 1.8 5.8 5.2 0 1.7-1.6 2.9-3.6 2.9-2.7 0-4-1.8-4-1.8zm15.9-8.1c1.2 0 3.7.5 3.7 2.2v.9h-1.3v-.6c0-.9-1.5-1.3-2.4-1.3-2.2 0-4 1.7-4 4.2s1.9 4.1 4 4.1l3.3-1.5.7 1s-1.4 1.7-4 1.7c-3.1 0-5.4-2.2-5.4-5.4 0-3 2.3-5.3 5.4-5.3zm8.4-2.2c0-.3-.2-.5-.5-.5h-.9v-1.2h1.5c.9 0 1.3.4 1.3 1.3v11.5c0 .3.2.5.5.5h.9v1.2h-1.5c-.9 0-1.3-.4-1.3-1.3zm7 4.1c0-.3-.2-.5-.5-.5h-.9v-1.1h1.5c.9 0 1.3.4 1.3 1.2v5c0 1.6.3 3.1 2.3 3.1 2.3 0 3.8-2.1 3.8-4.3v-5h1.4v8.7c0 .3.2.5.5.5h.9v1.2h-1.4c-.9 0-1.3-.4-1.3-1.1v-1.2c-.4 1-1.8 2.6-4 2.6-2.4 0-3.5-1.3-3.5-4zm14.1 6.2s1.1 1.6 3.2 1.6c1.1 0 2.2-.6 2.2-1.6 0-2.3-5.8-1.8-5.8-5.2 0-1.9 1.6-2.8 3.7-2.8 1 0 3.1.4 3.1 1.9v.9h-1.3v-.6c0-.8-1.1-1-1.8-1-1.4 0-2.3.5-2.3 1.5 0 2.3 5.8 1.8 5.8 5.2 0 1.7-1.6 2.9-3.6 2.9-2.7 0-4-1.8-4-1.8zm15.6-8.1c2.9 0 4.3 2.2 4.3 4.8v.7h-7.9c0 2.6 1.9 4.1 4 4.1 1.9 0 3.1-1.3 3.1-1.3l.7 1s-1.5 1.5-3.8 1.5c-3.1 0-5.4-2.2-5.4-5.4-.1-3.3 2.2-5.4 5-5.4zm2.9 4.4c-.1-2.1-1.4-3.2-2.9-3.2-1.7 0-3.2 1.1-3.5 3.2zm13.9-6.6c0-.3-.2-.5-.5-.5h-.9v-1.2h1.5c.9 0 1.3.4 1.3 1.3v11.5c0 .3.2.5.5.5h.9v1.2h-1.5c-.9 0-1.3-.4-1.3-1.3zm11.2 2.2c2.9 0 4.3 2.2 4.3 4.8v.7h-7.9c0 2.6 1.9 4.1 4 4.1 1.9 0 3.1-1.3 3.1-1.3l.7 1s-1.5 1.5-3.8 1.5c-3.1 0-5.4-2.2-5.4-5.4-.1-3.3 2.2-5.4 5-5.4zm2.9 4.4c-.1-2.1-1.4-3.2-2.9-3.2-1.7 0-3.2 1.1-3.5 3.2zm13.9-2.5c0-.3-.2-.5-.5-.5h-.9v-1.1h1.5c.9 0 1.3.4 1.3 1.2v5c0 1.6.3 3.1 2.3 3.1 2.3 0 3.8-2.1 3.8-4.3v-5h1.4v8.7c0 .3.2.5.5.5h.9v1.2h-1.4c-.9 0-1.3-.4-1.3-1.1v-1.2c-.4 1-1.8 2.6-4 2.6-2.4 0-3.5-1.3-3.5-4zm14.6-.5h-1.4v-1.1h1.4v-2.9h1.4v2.9h2.6v1.2h-2.6v5.3c0 2.4 1.5 2.7 2.3 2.7h.5v1.3h-.6c-1.2 0-3.6-.4-3.6-3.8zm8.9.5c0-.3-.2-.5-.5-.5h-.9v-1.1h1.5c.9 0 1.3.4 1.3 1.3v7.4c0 .3.2.5.5.5h.9v1.2h-1.5c-.9 0-1.3-.4-1.3-1.3zm-.1-5.7h1.4v1.8h-1.4zm7.2 1.6c0-.3-.2-.5-.5-.5h-.9v-1.2h1.5c.9 0 1.3.4 1.3 1.3v11.5c0 .3.2.5.5.5h.9v1.2h-1.5c-.9 0-1.3-.4-1.3-1.3zm7.2 4.1c0-.3-.2-.5-.5-.5h-.9v-1.1h1.5c.9 0 1.3.4 1.3 1.3v7.4c0 .3.2.5.5.5h.9v1.2h-1.5c-.9 0-1.3-.4-1.3-1.3zm-.1-5.7h1.4v1.8h-1.4zm7.3 5.2h-1.4v-1.1h1.4v-2.9h1.4v2.9h2.6v1.2h-2.6v5.3c0 2.4 1.5 2.7 2.3 2.7h.5v1.3h-.6c-1.2 0-3.6-.4-3.6-3.8zm8.9.5c0-.3-.2-.5-.5-.5h-.9v-1.1h1.5c.9 0 1.3.4 1.3 1.3v7.4c0 .3.2.5.5.5h.9v1.2h-1.5c-.9 0-1.3-.4-1.3-1.3zm0-5.7h1.4v1.8h-1.4zm11.2 3.8c2.9 0 4.3 2.2 4.3 4.8v.7h-7.9c0 2.6 1.9 4.1 4 4.1 1.9 0 3.1-1.3 3.1-1.3l.7 1s-1.5 1.5-3.8 1.5c-3.1 0-5.4-2.2-5.4-5.4-.1-3.3 2.3-5.4 5-5.4zm2.9 4.4c-.1-2.1-1.4-3.2-2.9-3.2-1.7 0-3.2 1.1-3.6 3.2zm5.9 3.7s1.1 1.6 3.2 1.6c1.1 0 2.2-.6 2.2-1.6 0-2.3-5.8-1.8-5.8-5.2 0-1.9 1.6-2.8 3.7-2.8 1 0 3.1.4 3.1 1.9v.9h-1.3v-.6c0-.8-1.1-1-1.8-1-1.4 0-2.3.5-2.3 1.5 0 2.3 5.8 1.8 5.8 5.2 0 1.7-1.6 2.9-3.6 2.9-2.7 0-4-1.8-4-1.8zm13-4.4c0-2.9-.7-5.5-2.2-8.1h1.3c1.5 2.4 2.2 5.2 2.2 8.2 0 3.2-.9 6.3-2.4 8.8h-1.3c1.6-2.8 2.4-5.9 2.4-8.9zm-302.7 73.7h1.4v-11.9h-1.4v-1.2h4.1v1.3h-1.4v11.9h1.4v1.3h-4.1zm8.9-7.4c0-.3-.2-.5-.5-.5h-.9v-1.2h1.4c.9 0 1.3.4 1.3 1.1v1.2c.5-1.4 2.1-2.6 3.7-2.6 1.9 0 2.9.9 3.2 2.6.6-1.4 2.1-2.6 3.8-2.6 2.5 0 3.4 1.5 3.4 4v4.9c0 .3.2.5.5.5h.9v1.2h-1.5c-.9 0-1.3-.4-1.3-1.3v-5c0-1.7-.3-3.1-2.2-3.1-1.6 0-2.9 1.4-3.3 2.9-.1.5-.2.9-.2 1.5v4.9h-1.4v-6.2c0-1.6-.2-3.1-2.2-3.1-1.7 0-2.9 1.5-3.4 3-.1.4-.2.9-.2 1.4v4.9h-1.1zm21.2 0c0-.3-.2-.5-.5-.5h-.9v-1.2h1.4c.9 0 1.2.4 1.2 1.1v.7s.8-2 3.5-2c2.8 0 4.5 2.2 4.5 5.4 0 3.3-1.9 5.4-4.6 5.4-2.5 0-3.4-1.9-3.4-1.9v5.8h-1.4v-12.8zm4.6 7.7c1.8 0 3.3-1.5 3.3-4.2 0-2.5-1.3-4.1-3.3-4.1-1.7 0-3.3 1.2-3.3 4.2 0 2 1.2 4.1 3.3 4.1zm14-9.6c3 0 5.5 2.3 5.5 5.4s-2.4 5.5-5.4 5.5-5.5-2.3-5.5-5.5c-.1-3.1 2.4-5.4 5.4-5.4zm0 9.6c2.2 0 4-1.8 4-4.2 0-2.3-1.8-4.1-4-4.1s-4 1.7-4 4.1 1.8 4.2 4 4.2zm9.7-1.5s1.1 1.6 3.2 1.6c1.1 0 2.2-.6 2.2-1.6 0-2.3-5.8-1.8-5.8-5.2 0-1.9 1.6-2.8 3.7-2.8 1 0 3.1.4 3.1 1.9v.9h-1.3v-.5c0-.8-1.1-1-1.8-1-1.4 0-2.3.5-2.3 1.5 0 2.3 5.8 1.8 5.8 5.2 0 1.7-1.6 2.9-3.6 2.9-2.7 0-4-1.8-4-1.8zm11.6-6.7h-1.4v-1.2h1.4v-2.9h1.4v2.9h2.6v1.2h-2.6v5.3c0 2.4 1.5 2.7 2.3 2.7h.5v1.3h-.6c-1.2 0-3.6-.4-3.6-3.8zm12.7-1.4c2.9 0 4.3 2.2 4.3 4.8v.7h-7.9c0 2.6 1.9 4.1 4 4.1 1.9 0 3.1-1.3 3.1-1.3l.7 1s-1.5 1.5-3.8 1.5c-3.1 0-5.4-2.2-5.4-5.4-.1-3.4 2.2-5.4 5-5.4zm2.9 4.4c-.1-2.1-1.4-3.2-2.9-3.2-1.7 0-3.2 1.1-3.5 3.2zm14-3h-1.4v-1.2h1.4v-2.9h1.4v2.9h2.6v1.2h-2.6v5.3c0 2.4 1.5 2.7 2.3 2.7h.5v1.3h-.6c-1.2 0-3.6-.4-3.6-3.8zm12.8-1.4c2.9 0 4.3 2.2 4.3 4.8v.7h-7.9c0 2.6 1.9 4.1 4 4.1 1.9 0 3.1-1.3 3.1-1.3l.7 1s-1.5 1.5-3.8 1.5c-3.1 0-5.4-2.2-5.4-5.4-.1-3.4 2.2-5.4 5-5.4zm2.9 4.4c-.1-2.1-1.4-3.2-2.9-3.2-1.7 0-3.2 1.1-3.5 3.2zm6.2-2.5c0-.3-.2-.5-.5-.5h-.9v-1.2h1.4c.9 0 1.3.3 1.3 1.2v1.5c.5-1.6 1.6-2.8 3.3-2.8.3 0 .6.1.6.1v1.4h-.5c-1.5 0-2.5 1.1-3 2.7-.2.7-.3 1.4-.3 2v4.4h-1.4zm9.7 0c0-.3-.2-.5-.5-.5h-.8v-1.2h1.4c.9 0 1.3.3 1.3 1.2v1.5c.5-1.6 1.6-2.8 3.3-2.8.3 0 .6.1.6.1v1.4h-.5c-1.5 0-2.5 1.1-3 2.7-.2.7-.3 1.4-.3 2v4.4h-1.4v-8.8zm9.6 0c0-.3-.2-.5-.5-.5h-.9v-1.2h1.5c.9 0 1.3.4 1.3 1.3v7.4c0 .3.2.5.5.5h.9v1.2h-1.5c-.9 0-1.3-.4-1.3-1.3zm-.1-5.7h1.4v1.8h-1.4zm7.3 5.2h-1.4v-1.2h1.4v-2.9h1.4v2.9h2.6v1.2h-2.6v5.3c0 2.4 1.5 2.7 2.3 2.7h.5v1.3h-.6c-1.2 0-3.6-.4-3.6-3.8zm13.1-1.4c3 0 5.5 2.3 5.5 5.4s-2.4 5.5-5.4 5.5-5.5-2.3-5.5-5.5c-.1-3.1 2.4-5.4 5.4-5.4zm0 9.6c2.2 0 4-1.8 4-4.2 0-2.3-1.8-4.1-4-4.1s-4 1.7-4 4.1 1.8 4.2 4 4.2zm10.1-7.7c0-.3-.2-.5-.5-.5h-.8v-1.2h1.4c.9 0 1.3.3 1.3 1.2v1.5c.5-1.6 1.6-2.8 3.3-2.8.3 0 .6.1.6.1v1.4h-.5c-1.5 0-2.5 1.1-3 2.7-.2.7-.3 1.4-.3 2v4.4h-1.4v-8.8zm9.6 0c0-.3-.2-.5-.5-.5h-.9v-1.2h1.5c.9 0 1.3.4 1.3 1.3v7.4c0 .3.2.5.5.5h.9v1.2h-1.5c-.9 0-1.3-.4-1.3-1.3zm-.1-5.7h1.4v1.8h-1.4zm12.5 8h.6v-.1c0-2.2-.8-2.9-2.7-2.9-.5 0-2 .1-2 .9v.7h-1.3v-1c0-1.4 2.5-1.7 3.4-1.7 3.3 0 4 1.7 4 4v4.9c0 .3.2.5.5.5h.9v1.2h-1.4c-.9 0-1.2-.4-1.2-1.2v-.8s-.8 2.2-3.4 2.2c-1.7 0-3.5-1-3.5-3.1-.2-3.5 4.3-3.6 6.1-3.6zm-2.6 5.4c2 0 3.2-2.1 3.2-3.8v-.5h-.6c-1.6 0-4.9 0-4.9 2.4 0 1 .8 1.9 2.3 1.9zm10.2-11.8c0-.3-.2-.5-.5-.5h-.9v-1.1h1.5c.9 0 1.3.4 1.3 1.3v11.5c0 .3.2.5.5.5h.9v1.2h-1.5c-.9 0-1.3-.4-1.3-1.3zm7.2 4.1c0-.3-.2-.5-.5-.5h-.9v-1.2h1.5c.9 0 1.3.4 1.3 1.3v7.4c0 .3.2.5.5.5h.9v1.2h-1.5c-.9 0-1.3-.4-1.3-1.3zm-.1-5.7h1.4v1.8h-1.4zm-277.2 73.4c2.1 0 5.4.9 5.4 3.1v1.2h-1.4v-.8c0-1.4-2.3-2.1-4-2.1-3.2 0-5.7 2.5-5.7 6 0 3.4 2.4 6.2 5.7 6.2 3 0 4.7-2 4.7-2l.8 1s-2 2.3-5.6 2.3c-4.2 0-7.2-3.4-7.2-7.6.1-4.1 3.2-7.3 7.3-7.3zm14.6 4.1c3 0 5.5 2.3 5.5 5.4s-2.4 5.5-5.4 5.5-5.5-2.3-5.5-5.5c0-3.1 2.4-5.4 5.4-5.4zm0 9.6c2.2 0 4-1.8 4-4.2 0-2.3-1.8-4.1-4-4.1s-4 1.7-4 4.1 1.8 4.2 4 4.2zm10.1-7.7c0-.3-.2-.5-.5-.5h-.9v-1.2h1.4c.9 0 1.3.4 1.3 1.1v1.2c.4-.9 1.7-2.6 4.1-2.6 2.6 0 3.5 1.5 3.5 4v4.9c0 .3.2.5.5.5h.9v1.2h-1.5c-.9 0-1.3-.4-1.3-1.3v-4.9c0-1.6-.2-3.1-2.2-3.1-1.8 0-3.3 1.2-3.8 2.9-.1.4-.2.9-.2 1.4v4.9h-1.4v-8.5zm14.7-.5h-1.4v-1.2h1.4v-2.9h1.4v2.9h2.6v1.2h-2.6v5.3c0 2.4 1.5 2.7 2.3 2.7h.5v1.3h-.6c-1.2 0-3.6-.4-3.6-3.8zm8.8.5c0-.3-.2-.5-.5-.5h-.9v-1.2h1.4c.9 0 1.3.3 1.3 1.2v1.5c.5-1.6 1.6-2.8 3.3-2.8.3 0 .6.1.6.1v1.4h-.5c-1.5 0-2.5 1.1-3 2.7-.2.7-.3 1.4-.3 2v4.4h-1.4zm9.6 0c0-.3-.2-.5-.5-.5h-.9v-1.2h1.5c.9 0 1.3.4 1.3 1.3v7.4c0 .3.2.5.5.5h.9v1.2h-1.5c-.9 0-1.3-.4-1.3-1.3zm-.1-5.8h1.4v1.8h-1.4zm7.1 1.7c0-.3-.2-.5-.5-.5h-.9v-1.2h1.5c.9 0 1.3.4 1.3 1.3v4.5s.9-2 3.5-2c2.8 0 4.5 2.2 4.5 5.4 0 3.3-1.9 5.4-4.7 5.4-2.5 0-3.4-2-3.4-2v1.7h-1.4v-12.6zm4.7 11.8c1.8 0 3.3-1.5 3.3-4.2 0-2.5-1.4-4.1-3.3-4.1-1.7 0-3.3 1.2-3.3 4.2 0 2 1.1 4.1 3.3 4.1zm9.4-7.7c0-.3-.2-.5-.5-.5h-.9v-1.2h1.5c.9 0 1.3.4 1.3 1.2v5c0 1.6.3 3.1 2.3 3.1 2.3 0 3.8-2.1 3.8-4.3v-4.9h1.4v8.7c0 .3.2.5.5.5h.9v1.2h-1.4c-.9 0-1.3-.4-1.3-1.1v-1.2c-.4 1-1.8 2.6-4 2.6-2.4 0-3.5-1.3-3.5-4zm14.6-.5h-1.4v-1.2h1.4v-2.9h1.4v2.9h2.6v1.2h-2.6v5.3c0 2.4 1.5 2.7 2.3 2.7h.5v1.3h-.6c-1.2 0-3.6-.4-3.6-3.8zm8.9.5c0-.3-.2-.5-.5-.5h-.9v-1.2h1.5c.9 0 1.3.4 1.3 1.3v7.4c0 .3.2.5.5.5h.9v1.2h-1.5c-.9 0-1.3-.4-1.3-1.3zm0-5.8h1.4v1.8h-1.4zm20.1 8.1h.6v-.1c0-2.2-.8-2.9-2.7-2.9-.5 0-2 .1-2 .9v.7h-1.3v-1c0-1.4 2.5-1.7 3.4-1.7 3.3 0 4 1.7 4 4v4.9c0 .3.2.5.5.5h.9v1.2h-1.4c-.9 0-1.2-.4-1.2-1.2v-.8s-.8 2.2-3.4 2.2c-1.7 0-3.5-1-3.5-3.1-.2-3.5 4.3-3.6 6.1-3.6zm-2.6 5.4c2 0 3.2-2.1 3.2-3.8v-.5h-.6c-1.6 0-4.9 0-4.9 2.4 0 .9.8 1.9 2.3 1.9zm10.1-11.8c0-.3-.2-.5-.5-.5h-.9v-1.2h1.5c.9 0 1.3.4 1.3 1.3v11.5c0 .3.2.5.5.5h.9v1.2h-1.5c-.9 0-1.3-.4-1.3-1.3zm7.1 0c0-.3-.2-.5-.5-.5h-.9v-1.2h1.5c.9 0 1.3.4 1.3 1.3v11.5c0 .3.2.5.5.5h.9v1.2h-1.5c-.9 0-1.3-.4-1.3-1.3zm12.5 6.4h.6v-.1c0-2.2-.8-2.9-2.7-2.9-.5 0-2 .1-2 .9v.7h-1.3v-1c0-1.4 2.5-1.7 3.4-1.7 3.3 0 4 1.7 4 4v4.9c0 .3.2.5.5.5h.9v1.2h-1.4c-.9 0-1.2-.4-1.2-1.2v-.8s-.8 2.2-3.4 2.2c-1.7 0-3.5-1-3.5-3.1-.3-3.5 4.3-3.6 6.1-3.6zm-2.6 5.4c2 0 3.2-2.1 3.2-3.8v-.5h-.6c-1.6 0-4.9 0-4.9 2.4 0 .9.7 1.9 2.3 1.9zm17.9-8.2h-1.4v-1.2h1.4v-2.9h1.4v2.9h2.6v1.2h-2.6v5.3c0 2.4 1.5 2.7 2.3 2.7h.5v1.3h-.6c-1.2 0-3.6-.4-3.6-3.8zm8.7.5c0-.3-.2-.5-.5-.5h-.9v-1.2h1.5c.9 0 1.3.4 1.3 1.2v5c0 1.6.3 3.1 2.3 3.1 2.3 0 3.8-2.1 3.8-4.3v-4.9h1.4v8.7c0 .3.2.5.5.5h.9v1.2h-1.4c-.9 0-1.3-.4-1.3-1.1v-1.2c-.4 1-1.8 2.6-4 2.6-2.4 0-3.5-1.3-3.5-4zm14.6-.5h-1.4v-1.2h1.4v-2.9h1.4v2.9h2.6v1.2h-2.6v5.3c0 2.4 1.5 2.7 2.3 2.7h.5v1.3h-.6c-1.2 0-3.6-.4-3.6-3.8zm12.8-1.4c2.9 0 4.3 2.2 4.3 4.8v.7h-7.9c0 2.6 1.9 4.1 4 4.1 1.9 0 3.1-1.3 3.1-1.3l.7 1s-1.5 1.5-3.8 1.5c-3.1 0-5.4-2.2-5.4-5.4-.1-3.4 2.2-5.4 5-5.4zm2.8 4.4c-.1-2.1-1.4-3.2-2.9-3.2-1.7 0-3.2 1.1-3.5 3.2zm6.3-6.6c0-.3-.2-.5-.5-.5h-.9v-1.2h1.5c.9 0 1.3.4 1.3 1.3v11.5c0 .3.2.5.5.5h.9v1.2h-1.5c-.9 0-1.3-.4-1.3-1.3zm12.5 6.4h.6v-.1c0-2.2-.8-2.9-2.7-2.9-.5 0-2 .1-2 .9v.7h-1.3v-1c0-1.4 2.5-1.7 3.4-1.7 3.3 0 4 1.7 4 4v4.9c0 .3.2.5.5.5h.9v1.2h-1.4c-.9 0-1.2-.4-1.2-1.2v-.8s-.8 2.2-3.4 2.2c-1.7 0-3.5-1-3.5-3.1-.3-3.5 4.3-3.6 6.1-3.6zm-2.6 5.4c2 0 3.2-2.1 3.2-3.8v-.5h-.6c-1.6 0-4.9 0-4.9 2.4 0 .9.7 1.9 2.3 1.9zm23.1-5.4h.6v-.1c0-2.2-.8-2.9-2.7-2.9-.5 0-2 .1-2 .9v.7h-1.3v-1c0-1.4 2.5-1.7 3.4-1.7 3.3 0 4 1.7 4 4v4.9c0 .3.2.5.5.5h.9v1.2h-1.4c-.9 0-1.2-.4-1.2-1.2v-.8s-.8 2.2-3.4 2.2c-1.7 0-3.5-1-3.5-3.1-.2-3.5 4.3-3.6 6.1-3.6zm-2.6 5.4c2 0 3.2-2.1 3.2-3.8v-.5h-.6c-1.6 0-4.9 0-4.9 2.4 0 .9.8 1.9 2.3 1.9zm10.2-7.7c0-.3-.2-.5-.5-.5h-.9v-1.2h1.4c.9 0 1.3.4 1.3 1.1v1.2c.5-1.4 2.1-2.6 3.7-2.6 1.9 0 2.9.9 3.2 2.6.6-1.4 2.1-2.6 3.8-2.6 2.5 0 3.4 1.5 3.4 4v4.9c0 .3.2.5.5.5h.9v1.2h-1.5c-.9 0-1.3-.4-1.3-1.3v-5c0-1.7-.3-3.1-2.2-3.1-1.6 0-2.9 1.4-3.3 2.9-.1.5-.2.9-.2 1.5v4.9h-1.4v-6.2c0-1.6-.2-3.1-2.2-3.1-1.7 0-2.9 1.5-3.4 3-.1.4-.2.9-.2 1.4v4.9h-1.4v-8.5zm21.1-4.1c0-.3-.2-.5-.5-.5h-.9v-1.2h1.5c.9 0 1.3.4 1.3 1.3v4.5s.9-2 3.5-2c2.8 0 4.5 2.2 4.5 5.4 0 3.3-1.9 5.4-4.7 5.4-2.5 0-3.4-2-3.4-2v1.7h-1.4v-12.6zm4.6 11.8c1.8 0 3.3-1.5 3.3-4.2 0-2.5-1.4-4.1-3.3-4.1-1.7 0-3.3 1.2-3.3 4.2 0 2 1.1 4.1 3.3 4.1zm9.6-7.7c0-.3-.2-.5-.5-.5h-.9v-1.2h1.5c.9 0 1.3.4 1.3 1.3v7.4c0 .3.2.5.5.5h.9v1.2h-1.6c-.9 0-1.3-.4-1.3-1.3zm-.1-5.8h1.4v1.8h-1.4zm11.3 3.9c2.9 0 4.3 2.2 4.3 4.8v.7h-7.9c0 2.6 1.9 4.1 4 4.1 1.9 0 3.1-1.3 3.1-1.3l.7 1s-1.5 1.5-3.8 1.5c-3.1 0-5.4-2.2-5.4-5.4-.1-3.4 2.2-5.4 5-5.4zm2.9 4.4c-.1-2.1-1.4-3.2-2.9-3.2-1.7 0-3.2 1.1-3.6 3.2zm6.3-2.5c0-.3-.2-.5-.5-.5h-.9v-1.2h1.4c.9 0 1.3.4 1.3 1.1v1.2c.4-.9 1.7-2.6 4.1-2.6 2.6 0 3.5 1.5 3.5 4v4.9c0 .3.2.5.5.5h.9v1.2h-1.5c-.9 0-1.3-.4-1.3-1.3v-4.9c0-1.6-.2-3.1-2.2-3.1-1.8 0-3.3 1.2-3.8 2.9-.1.4-.2.9-.2 1.4v4.9h-1.4v-8.5zm14.6-.5h-1.4v-1.2h1.4v-2.9h1.4v2.9h2.6v1.2h-2.6v5.3c0 2.4 1.5 2.7 2.3 2.7h.5v1.3h-.6c-1.2 0-3.6-.4-3.6-3.8zm14 2.8h.6v-.1c0-2.2-.8-2.9-2.7-2.9-.5 0-2 .1-2 .9v.7h-1.3v-1c0-1.4 2.5-1.7 3.4-1.7 3.3 0 4 1.7 4 4v4.9c0 .3.2.5.5.5h.9v1.2h-1.4c-.9 0-1.2-.4-1.2-1.2v-.8s-.8 2.2-3.4 2.2c-1.7 0-3.5-1-3.5-3.1-.2-3.5 4.4-3.6 6.1-3.6zm-2.5 5.4c2 0 3.2-2.1 3.2-3.8v-.5h-.6c-1.6 0-4.9 0-4.9 2.4 0 .9.7 1.9 2.3 1.9zm10.1-11.8c0-.3-.2-.5-.5-.5h-.9v-1.2h1.5c.9 0 1.3.4 1.3 1.3v11.5c0 .3.2.5.5.5h.9v1.2h-1.5c-.9 0-1.3-.4-1.3-1.3zm11.2 2.2c2.9 0 4.3 2.2 4.3 4.8v.7h-7.9c0 2.6 1.9 4.1 4 4.1 1.9 0 3.1-1.3 3.1-1.3l.7 1s-1.5 1.5-3.8 1.5c-3.1 0-5.4-2.2-5.4-5.4-.1-3.4 2.2-5.4 5-5.4zm2.9 4.4c-.1-2.1-1.4-3.2-2.9-3.2-1.7 0-3.2 1.1-3.6 3.2zm-294.7 16.1c2.9 0 4.3 2.2 4.3 4.8v.7h-7.9c0 2.6 1.9 4.1 4 4.1 1.9 0 3.1-1.3 3.1-1.3l.7 1s-1.5 1.5-3.8 1.5c-3.1 0-5.4-2.2-5.4-5.4-.1-3.3 2.3-5.4 5-5.4zm2.9 4.4c-.1-2.1-1.4-3.2-2.9-3.2-1.7 0-3.2 1.1-3.5 3.2zm19.3-.2h.6v-.1c0-2.2-.8-2.9-2.7-2.9-.5 0-2 .1-2 .9v.7h-1.3v-1c0-1.4 2.5-1.7 3.4-1.7 3.3 0 4 1.7 4 4v4.9c0 .3.2.5.5.5h.9v1.2h-1.4c-.9 0-1.2-.4-1.2-1.2v-.8s-.8 2.2-3.4 2.2c-1.7 0-3.5-1-3.5-3.1-.2-3.4 4.3-3.6 6.1-3.6zm-2.6 5.5c2 0 3.2-2.1 3.2-3.8v-.5h-.6c-1.6 0-4.9 0-4.9 2.4 0 .9.8 1.9 2.3 1.9zm10.1-11.9c0-.3-.2-.5-.5-.5h-.9v-1.2h1.5c.9 0 1.3.4 1.3 1.3v11.5c0 .3.2.5.5.5h.9v1.2h-1.5c-.9 0-1.3-.4-1.3-1.3zm7.1 0c0-.3-.2-.5-.5-.5h-.9v-1.2h1.5c.9 0 1.3.4 1.3 1.3v11.5c0 .3.2.5.5.5h.9v1.2h-1.5c-.9 0-1.3-.4-1.3-1.3zm11.6 2.2c3 0 5.5 2.3 5.5 5.4s-2.4 5.5-5.4 5.5-5.5-2.3-5.5-5.5c0-3.1 2.4-5.4 5.4-5.4zm0 9.6c2.2 0 4-1.8 4-4.2 0-2.3-1.8-4.1-4-4.1s-4 1.7-4 4.1 1.8 4.2 4 4.2zm17.4-1.5s1.1 1.6 3.2 1.6c1.1 0 2.2-.6 2.2-1.6 0-2.3-5.8-1.8-5.8-5.2 0-1.9 1.6-2.8 3.7-2.8 1 0 3.1.4 3.1 1.9v.9h-1.3v-.5c0-.8-1.1-1-1.8-1-1.4 0-2.3.5-2.3 1.5 0 2.3 5.8 1.8 5.8 5.2 0 1.7-1.6 2.9-3.6 2.9-2.7 0-4-1.8-4-1.8zm10.8-6.1c-.1-.4-.3-.5-.7-.5h-.2v-1.2h.6c1 0 1.3.2 1.6 1.1l2.5 6.4c.2.5.3 1.2.3 1.2s.2-.7.3-1.2l2.5-6.4c.3-.9.7-1.1 1.6-1.1h.5v1.2h-.2c-.4 0-.6.1-.7.5l-3.4 8.6h-1.5zm13.4-.1c0-.3-.2-.5-.5-.5h-.9v-1.2h1.5c.9 0 1.3.4 1.3 1.3v7.4c0 .3.2.5.5.5h.9v1.2h-1.5c-.9 0-1.3-.4-1.3-1.3zm0-5.7h1.4v1.8h-1.4zm7.1 1.6c0-.3-.2-.5-.5-.5h-.9v-1.2h1.5c.9 0 1.3.4 1.3 1.3v11.5c0 .3.2.5.5.5h.9v1.2h-1.5c-.9 0-1.3-.4-1.3-1.3zm7.1 4.1c0-.3-.2-.5-.5-.5h-.9v-1.2h1.5c.9 0 1.3.4 1.3 1.2v5c0 1.6.3 3.1 2.3 3.1 2.3 0 3.8-2.1 3.8-4.3v-4.9h1.4v8.7c0 .3.2.5.5.5h.9v1.2h-1.4c-.9 0-1.3-.4-1.3-1.1v-1.3c-.4 1-1.8 2.6-4 2.6-2.4 0-3.5-1.3-3.5-4zm14.4 0c0-.3-.2-.5-.5-.5h-.9v-1.2h1.4c.9 0 1.2.4 1.2 1.1v.7s.8-2 3.5-2c2.8 0 4.5 2.2 4.5 5.4 0 3.3-1.9 5.4-4.6 5.4-2.5 0-3.4-1.9-3.4-1.9v5.8h-1.4v-12.8zm4.7 7.7c1.8 0 3.3-1.5 3.3-4.2 0-2.5-1.3-4.1-3.3-4.1-1.7 0-3.3 1.2-3.3 4.2 0 2 1.1 4.1 3.3 4.1zm9.4-7.7c0-.3-.2-.5-.5-.5h-.9v-1.2h1.4c.9 0 1.2.4 1.2 1.1v.7s.8-2 3.5-2c2.8 0 4.5 2.2 4.5 5.4 0 3.3-1.9 5.4-4.6 5.4-2.5 0-3.4-1.9-3.4-1.9v5.8h-1.4v-12.8zm4.7 7.7c1.8 0 3.3-1.5 3.3-4.2 0-2.5-1.3-4.1-3.3-4.1-1.7 0-3.3 1.2-3.3 4.2 0 2 1.1 4.1 3.3 4.1zm13.9-9.6c3 0 5.5 2.3 5.5 5.4s-2.4 5.5-5.4 5.5-5.5-2.3-5.5-5.5c0-3.1 2.4-5.4 5.4-5.4zm0 9.6c2.2 0 4-1.8 4-4.2 0-2.3-1.8-4.1-4-4.1s-4 1.7-4 4.1 1.8 4.2 4 4.2zm17.7-11.8c0-.3-.2-.5-.5-.5h-.9v-1.2h1.5c.9 0 1.3.4 1.3 1.3v11.5c0 .3.2.5.5.5h.9v1.2h-1.5c-.9 0-1.3-.4-1.3-1.3zm11.6 2.2c3 0 5.5 2.3 5.5 5.4s-2.4 5.5-5.4 5.5-5.5-2.3-5.5-5.5c0-3.1 2.4-5.4 5.4-5.4zm0 9.6c2.2 0 4-1.8 4-4.2 0-2.3-1.8-4.1-4-4.1s-4 1.7-4 4.1 1.8 4.2 4 4.2zm14.6-9.6c1.2 0 3.7.5 3.7 2.2v.9h-1.3v-.6c0-.9-1.5-1.3-2.4-1.3-2.2 0-4 1.7-4 4.2s1.9 4.1 4 4.1l3.3-1.5.7 1s-1.4 1.7-4 1.7c-3.1 0-5.4-2.2-5.4-5.4 0-3 2.3-5.3 5.4-5.3zm13.8 4.2h.6v-.1c0-2.2-.8-2.9-2.7-2.9-.5 0-2 .1-2 .9v.7h-1.3v-1c0-1.4 2.5-1.7 3.4-1.7 3.3 0 4 1.7 4 4v4.9c0 .3.2.5.5.5h.9v1.2h-1.4c-.9 0-1.2-.4-1.2-1.2v-.8s-.8 2.2-3.4 2.2c-1.7 0-3.5-1-3.5-3.1-.2-3.4 4.3-3.6 6.1-3.6zm-2.6 5.5c2 0 3.2-2.1 3.2-3.8v-.5h-.6c-1.6 0-4.9 0-4.9 2.4 0 .9.8 1.9 2.3 1.9zm10.1-11.9c0-.3-.2-.5-.5-.5h-.8v-1.2h1.5c.9 0 1.3.4 1.3 1.3v11.5c0 .3.2.5.5.5h.9v1.2h-1.5c-.9 0-1.3-.4-1.3-1.3v-11.5zm11.2 2.2c2.9 0 4.3 2.2 4.3 4.8v.7h-7.9c0 2.6 1.9 4.1 4 4.1 1.9 0 3.1-1.3 3.1-1.3l.7 1s-1.5 1.5-3.8 1.5c-3.1 0-5.4-2.2-5.4-5.4 0-3.3 2.3-5.4 5-5.4zm2.9 4.4c-.1-2.1-1.4-3.2-2.9-3.2-1.7 0-3.2 1.1-3.6 3.2z" fill="#00295a"/><path d="m48.8 447h-2.2c-.3 0-.5.2-.5.5v.9h-2.4v-2.4c0-1 .3-1.3 1.3-1.3h10.2c1 0 1.3.3 1.3 1.3v2.3h-2.4v-.9c0-.3-.2-.5-.5-.5h-2.2v12.3h-2.7zm15 1.6c3.2 0 5.7 2.3 5.7 5.5s-2.5 5.5-5.7 5.5-5.7-2.3-5.7-5.5 2.5-5.5 5.7-5.5zm0 8.7c1.7 0 3.1-1.3 3.1-3.3 0-1.9-1.4-3.3-3.1-3.3s-3.1 1.3-3.1 3.3 1.4 3.3 3.1 3.3zm10.2-6.4h-1.4v-2.1h1.4v-2.8h2.5v2.9h2.4v2.1h-2.4v4.2c0 1.7 1.4 2 2.1 2h.5v2.3s-.3.1-.8.1c-1.5 0-4.4-.4-4.4-3.9zm14.7 1.8h.3v-.1c0-1.5-.6-2.1-1.9-2.1-.5 0-1.4.1-1.4.7v.6h-2.4v-1.1c0-1.9 2.7-2.2 3.8-2.2 3.5 0 4.5 1.8 4.5 4.2v3.9c0 .3.2.5.5.5h.8v2.2h-2.3c-1 0-1.3-.5-1.3-1.1v-.5s-.8 1.8-3.2 1.8c-1.9 0-3.6-1.2-3.6-3.3 0-3.2 4.5-3.5 6.2-3.5zm-2 4.8c1.4 0 2.4-1.5 2.4-2.7v-.2h-.5c-1.4 0-3.5.2-3.5 1.6 0 .7.5 1.3 1.6 1.3zm10.3-10.1c0-.3-.2-.5-.5-.5h-.8v-2.2h2.5c1 0 1.4.4 1.4 1.4v10.5c0 .3.2.5.5.5h.8v2.2h-2.5c-1 0-1.4-.4-1.4-1.4zm12.4 1.2c3 0 4.6 2.2 4.6 5 0 .3-.1 1-.1 1h-7.2c.2 1.8 1.6 2.8 3.1 2.8 1.7 0 2.9-1.2 2.9-1.2l1.1 1.8s-1.6 1.6-4.2 1.6c-3.5 0-5.6-2.5-5.6-5.5.1-3.3 2.2-5.5 5.4-5.5zm1.9 4.1c0-1.3-.9-2.1-2-2.1-1.3 0-2.3.8-2.6 2.1zm18.5-4.1c2.3 0 3 1.3 3 1.3v-2.4c0-.3-.2-.5-.5-.5h-.8v-2.2h2.5c1 0 1.4.4 1.4 1.4v10.5c0 .3.2.5.5.5h.8v2.2h-2.4c-.9 0-1.3-.5-1.3-1.1v-.4s-.9 1.7-3.3 1.7c-2.8 0-4.7-2.2-4.7-5.5 0-3.4 2-5.5 4.8-5.5zm3.1 5.4c0-1.6-.8-3.2-2.6-3.2-1.4 0-2.6 1.2-2.6 3.2s1 3.3 2.6 3.3c1.3 0 2.6-.9 2.6-3.3zm12.3-5.4c3 0 4.6 2.2 4.6 5 0 .3-.1 1-.1 1h-7.2c.2 1.8 1.6 2.8 3.1 2.8 1.7 0 2.9-1.2 2.9-1.2l1.1 1.8s-1.6 1.6-4.2 1.6c-3.5 0-5.6-2.5-5.6-5.5.1-3.3 2.2-5.5 5.4-5.5zm1.9 4.1c0-1.3-.9-2.1-2-2.1-1.3 0-2.3.8-2.6 2.1zm7.2-5.3c0-.3-.2-.5-.5-.5h-.8v-2.2h2.5c1 0 1.4.4 1.4 1.4v10.5c0 .3.2.5.5.5h.8v2.2h-2.5c-1 0-1.4-.4-1.4-1.4zm14.9 4c-.1-.3-.3-.4-.6-.4h-.2v-2.2h1.5c.9 0 1.3.3 1.5 1l2 5.5c.2.6.4 1.5.4 1.5s.2-.9.4-1.5l2-5.5c.3-.7.7-1 1.5-1h1.4v2.2h-.2c-.3 0-.5.1-.6.4l-3 7.9h-3.1zm19 1.3h.3v-.1c0-1.5-.6-2.1-1.9-2.1-.5 0-1.4.1-1.4.7v.6h-2.4v-1.1c0-1.9 2.7-2.2 3.8-2.2 3.5 0 4.5 1.8 4.5 4.2v3.9c0 .3.2.5.5.5h.8v2.2h-2.3c-1 0-1.3-.5-1.3-1.1v-.5s-.8 1.8-3.2 1.8c-1.9 0-3.6-1.2-3.6-3.3 0-3.2 4.5-3.5 6.2-3.5zm-2 4.8c1.4 0 2.4-1.5 2.4-2.7v-.2h-.5c-1.4 0-3.5.2-3.5 1.6 0 .7.5 1.3 1.6 1.3zm10.3-10.1c0-.3-.2-.5-.5-.5h-.8v-2.2h2.5c1 0 1.4.4 1.4 1.4v10.5c0 .3.2.5.5.5h.8v2.2h-2.5c-1 0-1.4-.4-1.4-1.4zm12.8 1.2c3.2 0 5.7 2.3 5.7 5.5s-2.5 5.5-5.7 5.5-5.7-2.3-5.7-5.5 2.5-5.5 5.7-5.5zm0 8.7c1.7 0 3.1-1.3 3.1-3.3 0-1.9-1.4-3.3-3.1-3.3s-3.1 1.3-3.1 3.3 1.4 3.3 3.1 3.3zm10.1-5.8c0-.3-.2-.5-.5-.5h-.8v-2.2h2.4c.9 0 1.4.4 1.4 1.3v1.3c.5-1.5 1.7-2.7 3.3-2.7h.5v2.6h-.6c-1.1 0-2.4.6-2.9 2.2-.1.5-.2 1.1-.2 1.7v4.1h-2.6zm14.4-2.9c3 0 4.6 2.2 4.6 5 0 .3-.1 1-.1 1h-7.2c.2 1.8 1.6 2.8 3.1 2.8 1.7 0 2.9-1.2 2.9-1.2l1.1 1.8s-1.6 1.6-4.2 1.6c-3.5 0-5.6-2.5-5.6-5.5.1-3.3 2.3-5.5 5.4-5.5zm2 4.1c0-1.3-.9-2.1-2-2.1-1.3 0-2.3.8-2.6 2.1zm18.3-4.1c2.4 0 3.2 1.5 3.2 1.5v-.3c0-.5.3-1 1.1-1h2.4v2.2h-.8c-.3 0-.5.1-.5.4v7.2c0 3.6-2.8 4.9-5.5 4.9-1.3 0-2.7-.4-3.7-.9l.8-2.1s1.3.7 2.9.7 3-.7 3-2.6v-1.1c-.6.9-1.5 1.4-2.9 1.4-3 0-4.7-2.4-4.7-5.3.1-2.7 1.7-5 4.7-5zm3.1 5.2c0-2.4-1.2-3-2.6-3-1.6 0-2.4 1.1-2.4 2.9s.9 3.2 2.6 3.2c1.2 0 2.4-.7 2.4-3.1zm12.2-5.2c3 0 4.6 2.2 4.6 5 0 .3-.1 1-.1 1h-7.2c.2 1.8 1.6 2.8 3.1 2.8 1.7 0 2.9-1.2 2.9-1.2l1.1 1.8s-1.6 1.6-4.2 1.6c-3.5 0-5.6-2.5-5.6-5.5.1-3.3 2.3-5.5 5.4-5.5zm2 4.1c0-1.3-.9-2.1-2-2.1-1.3 0-2.3.8-2.6 2.1zm7.2-1.2c0-.3-.2-.5-.5-.5h-.8v-2.2h2.4c.9 0 1.4.4 1.4 1.2v.8c.5-.9 1.6-2.2 3.7-2.2 2.3 0 3.7 1.2 3.7 4v4.1c0 .3.2.5.5.5h.8v2.2h-2.5c-1 0-1.4-.4-1.4-1.4v-4.8c0-1.3-.3-2.1-1.6-2.1-1.4 0-2.4.9-2.8 2.1-.1.4-.2.9-.2 1.4v4.8h-2.6v-7.9zm19.6-2.9c3 0 4.6 2.2 4.6 5 0 .3-.1 1-.1 1h-7.2c.2 1.8 1.6 2.8 3.1 2.8 1.7 0 2.9-1.2 2.9-1.2l1.1 1.8s-1.6 1.6-4.2 1.6c-3.5 0-5.6-2.5-5.6-5.5 0-3.3 2.2-5.5 5.4-5.5zm1.9 4.1c0-1.3-.9-2.1-2-2.1-1.3 0-2.3.8-2.6 2.1zm7.3-1.2c0-.3-.2-.5-.5-.5h-.8v-2.2h2.4c.9 0 1.4.4 1.4 1.3v1.3c.5-1.5 1.7-2.7 3.3-2.7h.5v2.6h-.6c-1.1 0-2.4.6-2.9 2.2-.1.5-.2 1.1-.2 1.7v4.1h-2.6zm15.1 1.2h.3v-.1c0-1.5-.6-2.1-1.9-2.1-.5 0-1.4.1-1.4.7v.6h-2.5v-1.1c0-1.9 2.7-2.2 3.8-2.2 3.5 0 4.5 1.8 4.5 4.2v3.9c0 .3.2.5.5.5h.8v2.2h-2.3c-1 0-1.3-.5-1.3-1.1v-.5s-.8 1.8-3.2 1.8c-1.9 0-3.6-1.2-3.6-3.3 0-3.2 4.6-3.5 6.3-3.5zm-2 4.8c1.4 0 2.4-1.5 2.4-2.7v-.2h-.5c-1.4 0-3.5.2-3.5 1.6 0 .7.5 1.3 1.6 1.3zm10.4-6.6h-1.4v-2.1h1.4v-2.8h2.5v2.9h2.4v2.1h-2.4v4.2c0 1.7 1.4 2 2.1 2h.5v2.3s-.3.1-.8.1c-1.5 0-4.4-.4-4.4-3.9zm14.1-2.3c3.2 0 5.7 2.3 5.7 5.5s-2.5 5.5-5.7 5.5-5.7-2.3-5.7-5.5 2.5-5.5 5.7-5.5zm0 8.7c1.7 0 3.1-1.3 3.1-3.3 0-1.9-1.4-3.3-3.1-3.3s-3.1 1.3-3.1 3.3 1.4 3.3 3.1 3.3zm17.7-1.3s1.3 1.5 3.1 1.5c.8 0 1.4-.3 1.4-1 0-1.5-5.5-1.5-5.5-4.8 0-2.1 1.9-3.1 4.1-3.1 1.4 0 3.7.5 3.7 2.2v1.1h-2.3v-.5c0-.5-.7-.7-1.3-.7-.9 0-1.6.3-1.6.9 0 1.6 5.6 1.3 5.6 4.8 0 2-1.7 3.2-4 3.2-2.9 0-4.4-1.9-4.4-1.9zm11.6-4.5c0-.3-.2-.5-.5-.5h-.8v-2.2h2.5c1 0 1.4.4 1.4 1.4v4.8c0 1.3.3 2.1 1.6 2.1 1.9 0 2.9-1.7 2.9-3.5v-4.8h2.6v7.8c0 .3.2.5.5.5h.8v2.2h-2.4c-.9 0-1.4-.4-1.4-1.2v-.8c-.5 1.1-1.8 2.2-3.6 2.2-2.2 0-3.6-1.1-3.6-4zm15.1-4.1c0-.3-.2-.5-.5-.5h-.8v-2.2h2.5c1 0 1.4.4 1.4 1.4v10.5c0 .3.2.5.5.5h.8v2.2h-2.5c-1 0-1.4-.4-1.4-1.4zm8 0c0-.3-.2-.5-.5-.5h-.8v-2.2h2.5c1 0 1.4.4 1.4 1.4v10.5c0 .3.2.5.5.5h.8v2.2h-2.5c-1 0-1.4-.4-1.4-1.4zm12.4 1.2c3 0 4.6 2.2 4.6 5 0 .3-.1 1-.1 1h-7.2c.2 1.8 1.6 2.8 3.1 2.8 1.7 0 2.9-1.2 2.9-1.2l1.1 1.8s-1.6 1.6-4.2 1.6c-3.5 0-5.6-2.5-5.6-5.5 0-3.3 2.2-5.5 5.4-5.5zm1.9 4.1c0-1.3-.9-2.1-2-2.1-1.3 0-2.3.8-2.6 2.1zm19.4-4.1c1.4 0 3.8.6 3.8 2.4v1.2h-2.3v-.6c0-.6-.9-.8-1.5-.8-1.8 0-3.1 1.4-3.1 3.3 0 2.1 1.6 3.2 3.3 3.2 1.8 0 3.1-1.4 3.1-1.4l1.1 1.8s-1.6 1.9-4.4 1.9c-3.4 0-5.7-2.4-5.7-5.5 0-3 2.2-5.5 5.7-5.5zm13.1 0c3.2 0 5.7 2.3 5.7 5.5s-2.5 5.5-5.7 5.5-5.7-2.3-5.7-5.5 2.6-5.5 5.7-5.5zm0 8.7c1.7 0 3.1-1.3 3.1-3.3 0-1.9-1.4-3.3-3.1-3.3s-3.1 1.3-3.1 3.3 1.5 3.3 3.1 3.3zm10.2-5.8c0-.3-.2-.5-.5-.5h-.8v-2.2h2.4c.9 0 1.4.4 1.4 1.2v.8c.5-1 1.7-2.2 3.4-2.2 1.6 0 2.6.7 3.1 2.2.6-1.1 1.9-2.2 3.6-2.2 2.2 0 3.4 1.2 3.4 4v4.1c0 .3.2.5.5.5h.8v2.2h-2.5c-1 0-1.4-.4-1.4-1.4v-4.8c0-1.2-.2-2.1-1.4-2.1-1.3 0-2.2 1.1-2.5 2.4-.1.4-.2.8-.2 1.3v4.6h-2.6v-6.2c0-1.1-.2-2.1-1.4-2.1-1.3 0-2.2 1.1-2.5 2.4-.1.4-.2.8-.2 1.3v4.6h-2.6zm21.4 0c0-.3-.2-.5-.5-.5h-.8v-2.2h2.5c1 0 1.4.4 1.4 1.4v4.8c0 1.3.3 2.1 1.6 2.1 1.9 0 2.9-1.7 2.9-3.5v-4.8h2.6v7.8c0 .3.2.5.5.5h.8v2.2h-2.4c-.9 0-1.4-.4-1.4-1.2v-.8c-.5 1.1-1.8 2.2-3.6 2.2-2.2 0-3.6-1.1-3.6-4zm15.2 0c0-.3-.2-.5-.5-.5h-.8v-2.2h2.4c.9 0 1.4.4 1.4 1.2v.8c.5-.9 1.6-2.2 3.7-2.2 2.3 0 3.7 1.2 3.7 4v4.1c0 .3.2.5.5.5h.8v2.2h-2.5c-1 0-1.4-.4-1.4-1.4v-4.8c0-1.3-.3-2.1-1.6-2.1-1.4 0-2.4.9-2.8 2.1-.1.4-.2.9-.2 1.4v4.8h-2.7zm15.3 0c0-.3-.2-.5-.5-.5h-.8v-2.2h2.5c1 0 1.4.4 1.4 1.4v6.4c0 .3.2.5.5.5h.8v2.2h-2.5c-1 0-1.4-.4-1.4-1.4zm.1-6.8h2.3v2.4h-2.3zm8 6.2h-1.4v-2.1h1.4v-2.8h2.5v2.9h2.4v2.1h-2.3v4.2c0 1.7 1.4 2 2.1 2h.5v2.3s-.3.1-.8.1c-1.5 0-4.4-.4-4.4-3.9zm14.8 1.8h.3v-.1c0-1.5-.6-2.1-1.9-2.1-.5 0-1.4.1-1.4.7v.6h-2.4v-1.1c0-1.9 2.7-2.2 3.8-2.2 3.5 0 4.5 1.8 4.5 4.2v3.9c0 .3.2.5.5.5h.8v2.2h-2.4c-1 0-1.3-.5-1.3-1.1v-.5s-.8 1.8-3.2 1.8c-1.9 0-3.6-1.2-3.6-3.3.1-3.2 4.6-3.5 6.3-3.5zm-4.5-8h2.5l1.6 2.8h-1.9zm2.5 12.8c1.4 0 2.4-1.5 2.4-2.7v-.2h-.5c-1.4 0-3.5.2-3.5 1.6 0 .7.5 1.3 1.6 1.3z" fill="#a18b52"/><path d="m807 125.4c0-3.7 1.9-8.4 6.4-8.4 1.6 0 2.7.6 2.7.6l-.5 1.3s-.9-.5-2.1-.5c-3 0-4.6 3-4.9 6 .7-1.1 2.2-1.8 3.7-1.8 2.7 0 4.5 1.9 4.5 4.6 0 3-2 4.9-4.6 4.9-3.1-.1-5.2-2.9-5.2-6.7zm5.2 5.3c2 0 3.1-1.5 3.1-3.5s-1.3-3.4-3.3-3.4c-1.9 0-3.5 1.3-3.5 2.5.1 1.9 1.6 4.4 3.7 4.4zm16.2-9.6c0-1.6-1.1-2.7-3-2.7-1.5 0-2.6.7-2.6 1.6v.7h-1.4v-1.1c0-1.8 2.5-2.5 4-2.5 2.8 0 4.4 1.8 4.4 4.1 0 5.1-7.7 5-7.7 9 0 .3.2.4.5.4h6.1c.3 0 .5-.1.5-.5v-1h1.3v1.5c0 .9-.4 1.3-1.3 1.3h-7.2c-1 0-1.3-.4-1.3-1.4 0-5.6 7.7-5.1 7.7-9.4zm8.3 9-1.5 3.7h-1.2l1.2-3.7zm12-9c0-1.6-1.1-2.7-3-2.7-1.5 0-2.6.7-2.6 1.6v.7h-1.4v-1.1c0-1.8 2.5-2.5 4-2.5 2.8 0 4.4 1.8 4.4 4.1 0 5.1-7.7 5-7.7 9 0 .3.2.4.5.4h6.1c.3 0 .5-.1.5-.5v-1h1.3v1.5c0 .9-.4 1.3-1.3 1.3h-7.3c-1 0-1.3-.4-1.3-1.4.1-5.6 7.8-5.1 7.8-9.4zm-43.1 104.9s.9.5 2.1.5c3 0 4.6-3.1 4.9-6-.7 1.1-2.2 1.8-3.7 1.8-2.7 0-4.5-1.9-4.5-4.6 0-3 2-4.9 4.6-4.9 3.2 0 5.3 2.8 5.3 6.7 0 3.7-1.9 8.4-6.4 8.4-1.6 0-2.7-.6-2.7-.6zm7-7.5c0-1.9-1.5-4.4-3.7-4.4-2 0-3.1 1.5-3.1 3.5s1.3 3.4 3.3 3.4c1.9 0 3.5-1.3 3.5-2.5zm4.8 4.1 7.1-9.6h1.6v9.3h2.3v1.3h-2.3v4h-1.5v-4h-7.2zm7.2-6.3c0-.6.1-1.4.1-1.4s-.4.6-.7 1.1l-4 5.3c-.4.5-.8.9-.8.9s.6-.1 1.2-.1h4.3zm9.2 9.6-1.5 3.7h-1.2l1.2-3.7zm4-4.7c0-3.7 1.9-8.4 6.4-8.4 1.6 0 2.7.6 2.7.6l-.5 1.3s-.9-.5-2.1-.5c-3 0-4.6 3-4.9 6 .7-1.1 2.2-1.8 3.7-1.8 2.7 0 4.5 1.9 4.5 4.6 0 3-2 4.9-4.6 4.9-3.1-.1-5.2-2.9-5.2-6.7zm5.3 5.3c2 0 3.1-1.5 3.1-3.5s-1.3-3.4-3.3-3.4c-1.9 0-3.5 1.3-3.5 2.5 0 2 1.5 4.4 3.7 4.4zm-30.9 60.6 7.1-9.6h1.6v9.3h2.3v1.3h-2.3v4h-1.5v-4h-7.2zm7.2-6.2c0-.6.1-1.4.1-1.4s-.4.6-.7 1.1l-4 5.3c-.4.5-.8.9-.8.9s.6-.1 1.2-.1h4.3zm9.2 9.5-1.5 3.7h-1.2l1.2-3.7zm5.4-1.1s1.1 1.7 3.4 1.7c2.1 0 3.6-1.5 3.6-3.4 0-2-1.7-3.4-3.8-3.4-1.6 0-2.8.8-2.8.8l-.7-.3.6-5.9c.1-.9.4-1.3 1.3-1.3h4.8c.9 0 1.2.4 1.2 1.3v1.5h-1.3v-1c0-.3-.2-.5-.5-.5h-3.7c-.3 0-.4.1-.5.5l-.4 3.3c-.1.5-.1.8-.1.8s.9-.5 2.2-.5c3 0 5.1 2.1 5.1 4.7s-2.2 4.7-5.1 4.7-4.3-2.1-4.3-2.1zm-20.4 76.5h3.3v-11.5s-.1.3-.7.9l-1.6 1.6-.9-.9 3.3-3.3h1.4v13.3h3.2v1.3h-7.9zm13.7-.4-1.5 3.7h-1.2l1.2-3.7zm5.4-1.2s1.1 1.7 3.4 1.7c2.1 0 3.6-1.5 3.6-3.4 0-2-1.7-3.4-3.8-3.4-1.6 0-2.8.8-2.8.8l-.7-.3.6-5.9c.1-.9.4-1.3 1.3-1.3h4.8c.9 0 1.2.4 1.2 1.3v1.5h-1.3v-1c0-.3-.2-.5-.5-.5h-3.7c-.3 0-.4.1-.5.5l-.4 3.3c-.1.5-.1.8-.1.8s.9-.5 2.2-.5c3 0 5.1 2.1 5.1 4.7s-2.2 4.7-5.1 4.7-4.3-2.1-4.3-2.1z" fill="#00295a"/><path d="m790.6 458.6h3.2v-9.2s-.2.4-.6.8l-1.2 1.1-1.6-1.7 3.7-3.5h2.4v12.4h3.2v2.3h-9.1zm12.2-4.3c0-3.9 2.2-8.4 6.8-8.4 1.9 0 3 .6 3 .6l-.8 2.3s-1-.5-2.1-.5c-2.3 0-3.5 1.9-3.9 4 .5-.6 1.7-1.1 2.7-1.1 2.9 0 4.7 2.3 4.7 4.9 0 2.7-1.9 4.9-4.8 4.9-3 .2-5.6-2.3-5.6-6.7zm5.7 4.4c1.4 0 2.2-1.1 2.2-2.5 0-1.5-.9-2.7-2.7-2.7-1.3 0-2.4.7-2.4 1.6 0 1.9 1.4 3.6 2.9 3.6zm15.5-8.4c0-1.2-.9-1.9-2.1-1.9s-1.9.6-1.9 1.2v.6h-2.4v-1.5c0-1.9 2.6-2.8 4.5-2.8 2.6 0 4.8 1.6 4.8 4.4 0 5-7.1 5.3-7.1 7.9 0 .3.2.4.6.4h4.3c.3 0 .5-.2.5-.5v-.9h2.4v2.2c0 1-.4 1.4-1.4 1.4h-7.7c-1.3 0-1.5-.6-1.5-1.9-.2-5.3 7-5 7-8.6zm10.6 7.9-2 4.8h-1.9l1.4-4.8zm6.2-5.2s-1.6-1-1.6-3c0-2.1 1.7-4.1 4.7-4.1 2.9 0 4.7 1.8 4.7 4.1 0 2.1-1.6 3.3-1.6 3.3 1.3.8 2 1.9 2 3.4 0 2.3-2.1 4.4-5.2 4.4-2.9 0-5.3-1.8-5.3-4.5 0-2.2 2.3-3.6 2.3-3.6zm3 5.7c1.4 0 2.5-.8 2.5-2.1 0-1-.9-1.5-2.1-2-.6-.3-1.2-.5-1.3-.5-.5 0-1.6 1.1-1.6 2.4s1.1 2.2 2.5 2.2zm1-6.4c.5 0 1.2-1 1.2-2.1s-.9-1.8-2.1-1.8c-1.3 0-2.1.7-2.1 1.7s.9 1.5 2 1.9c.2.1.7.3 1 .3zm10.2.7s-1.6-1-1.6-3c0-2.1 1.7-4.1 4.7-4.1 2.9 0 4.7 1.8 4.7 4.1 0 2.1-1.6 3.3-1.6 3.3 1.3.8 2 1.9 2 3.4 0 2.3-2.1 4.4-5.2 4.4-2.9 0-5.3-1.8-5.3-4.5 0-2.2 2.3-3.6 2.3-3.6zm3 5.7c1.4 0 2.5-.8 2.5-2.1 0-1-.9-1.5-2.1-2-.6-.3-1.2-.5-1.3-.5-.5 0-1.6 1.1-1.6 2.4-.1 1.3 1.1 2.2 2.5 2.2zm.9-6.4c.5 0 1.2-1 1.2-2.1s-.9-1.8-2.1-1.8c-1.3 0-2.1.7-2.1 1.7s.9 1.5 2 1.9c.3.1.8.3 1 .3z" fill="#a18b52"/></svg>