<?xml version="1.0" encoding="utf-8"?>
<!-- Generator: Adobe Illustrator 22.0.0, SVG Export Plug-In . SVG Version: 6.00 Build 0)  -->
<svg version="1.1" baseProfile="basic" id="Livello_1"
	 xmlns="http://www.w3.org/2000/svg" xmlns:xlink="http://www.w3.org/1999/xlink" x="0px" y="0px" viewBox="0 0 1019.2 639.6"
	 xml:space="preserve">
<style type="text/css">
	.st0{fill:#C7B07D;}
	.st1{fill:#4A5497;}
	.st2{fill:#FFFFFF;}
	.st3{fill:#F3352F;}
</style>
<path class="st0" d="M900.9,135.5h15.8c3.6,0,6.6,3,6.6,6.6v324.7h-29V142.1C894.3,138.5,897.3,135.5,900.9,135.5z"/>
<path class="st1" d="M862.6,154.7h15.8c3.6,0,6.6,3,6.6,6.6v305.6h-29V161.3C856,157.6,859,154.7,862.6,154.7z"/>
<path class="st0" d="M747.8,158.6h15.8c3.6,0,6.6,3,6.6,6.6v301.6h-29V165.2C741.2,161.6,744.1,158.6,747.8,158.6z"/>
<path class="st1" d="M709.5,193.6h15.8c3.6,0,6.6,3,6.6,6.6v266.7h-29V200.2C702.9,196.6,705.9,193.6,709.5,193.6z"/>
<path class="st0" d="M601.9,154.7h15.8c3.6,0,6.6,3,6.6,6.6v305.6h-29V161.3C595.3,157.6,598.3,154.7,601.9,154.7z"/>
<path class="st1" d="M563.6,166.6h15.8c3.6,0,6.6,3,6.6,6.6v293.7h-29V173.2C557,169.5,560,166.6,563.6,166.6z"/>
<path class="st0" d="M461.3,139.5h15.8c3.6,0,6.6,3,6.6,6.6v320.8h-29V146.1C454.7,142.4,457.7,139.5,461.3,139.5z"/>
<path class="st1" d="M423,142.8h15.8c3.6,0,6.6,3,6.6,6.6v317.5h-29V149.4C416.4,145.7,419.4,142.8,423,142.8z"/>
<path class="st0" d="M338.6,131.6h15.8c3.6,0,6.6,3,6.6,6.6v328.7h-29V138.2C332,134.5,334.9,131.6,338.6,131.6z"/>
<path class="st1" d="M300.3,131.6h15.8c3.6,0,6.6,3,6.6,6.6v328.7h-29V138.2C293.7,134.5,296.6,131.6,300.3,131.6z"/>
<path class="st0" d="M190,127.6h15.8c3.6,0,6.6,3,6.6,6.6v332.7h-29V134.2C183.4,130.6,186.4,127.6,190,127.6z"/>
<path class="st1" d="M151.8,127.6h15.8c3.6,0,6.6,3,6.6,6.6v332.7h-29V134.2C145.2,130.6,148.1,127.6,151.8,127.6z"/>
<g>
	<path class="st2" d="M152.5,144.4L152.5,144.4c0,0-1.6-0.9-1.6-2.6c0-1.8,1.4-3.4,3.9-3.4c2.4,0,4,1.5,4,3.4s-1.5,3-1.5,3l0,0
		c1.1,0.7,1.9,1.5,1.9,2.9c0,2-1.8,3.7-4.4,3.7c-2.4,0-4.4-1.5-4.4-3.8C150.4,145.6,152.5,144.4,152.5,144.4z M154.8,149.8
		c1.3,0,2.6-0.9,2.6-2.1c0-1.1-0.9-1.6-2.1-2.1c-0.5-0.2-1.2-0.5-1.3-0.5c-0.4,0-1.7,1-1.7,2.4C152.2,149,153.4,149.8,154.8,149.8z
		 M155.7,144.1c0.4,0,1.3-1.1,1.3-2.2c0-1.2-0.9-1.9-2.2-1.9c-1.4,0-2.2,0.8-2.2,1.8c0,1.1,0.9,1.5,2.1,2
		C155,143.9,155.5,144.1,155.7,144.1z"/>
	<path class="st2" d="M166.2,141.3c0.4-0.7,0.7-1.2,0.7-1.2l0,0c0,0-0.3,0.1-0.9,0.1h-3.8c-0.3,0-0.4,0.1-0.4,0.4v0.8h-1.6v-1.6
		c0-0.8,0.3-1.1,1.1-1.1h7.7v1.2l-6.1,11.4h-2L166.2,141.3z"/>
</g>
<g>
	<path class="st2" d="M190.7,144.4L190.7,144.4c0,0-1.6-0.9-1.6-2.6c0-1.8,1.4-3.4,3.9-3.4c2.4,0,4,1.5,4,3.4s-1.5,3-1.5,3l0,0
		c1.1,0.7,1.9,1.5,1.9,2.9c0,2-1.8,3.7-4.4,3.7c-2.4,0-4.4-1.5-4.4-3.8C188.7,145.6,190.7,144.4,190.7,144.4z M193.1,149.8
		c1.3,0,2.6-0.9,2.6-2.1c0-1.1-0.9-1.6-2.1-2.1c-0.5-0.2-1.2-0.5-1.3-0.5c-0.4,0-1.7,1-1.7,2.4C190.5,149,191.7,149.8,193.1,149.8z
		 M194,144.1c0.4,0,1.3-1.1,1.3-2.2c0-1.2-0.9-1.9-2.2-1.9c-1.4,0-2.2,0.8-2.2,1.8c0,1.1,0.9,1.5,2.1,2
		C193.3,143.9,193.8,144.1,194,144.1z"/>
	<path class="st2" d="M204.5,141.3c0.4-0.7,0.7-1.2,0.7-1.2l0,0c0,0-0.3,0.1-0.9,0.1h-3.8c-0.3,0-0.4,0.1-0.4,0.4v0.8h-1.6v-1.6
		c0-0.8,0.3-1.1,1.1-1.1h7.7v1.2l-6.1,11.4h-2L204.5,141.3z"/>
</g>
<g>
	<path class="st2" d="M300.7,147L300.7,147c0,0-1.6-0.9-1.6-2.6c0-1.8,1.4-3.4,3.9-3.4c2.4,0,4,1.5,4,3.4s-1.5,3-1.5,3l0,0
		c1.1,0.7,1.9,1.5,1.9,2.9c0,2-1.8,3.7-4.4,3.7c-2.4,0-4.4-1.5-4.4-3.8C298.7,148.1,300.7,147,300.7,147z M303.1,152.4
		c1.3,0,2.6-0.9,2.6-2.1c0-1.1-0.9-1.6-2.1-2.1c-0.5-0.2-1.2-0.5-1.3-0.5c-0.4,0-1.7,1-1.7,2.4C300.5,151.5,301.7,152.4,303.1,152.4
		z M304,146.7c0.4,0,1.3-1.1,1.3-2.2c0-1.2-0.9-1.9-2.2-1.9c-1.4,0-2.2,0.8-2.2,1.8c0,1.1,0.9,1.5,2.1,2
		C303.3,146.5,303.8,146.7,304,146.7z"/>
	<path class="st2" d="M308.9,148.2c0-3.3,1.8-7.3,5.7-7.3c1.5,0,2.5,0.5,2.5,0.5l-0.6,1.5c0,0-0.8-0.4-1.8-0.4
		c-2.3,0-3.5,2.2-3.8,4.3l0,0c0.5-0.8,1.7-1.2,2.8-1.2c2.4,0,4,1.8,4,4.1c0,2.5-1.7,4.2-4.1,4.2C311,154,308.9,151.8,308.9,148.2z
		 M313.6,152.4c1.5,0,2.3-1.1,2.3-2.6s-1-2.6-2.6-2.6c-1.4,0-2.6,0.9-2.6,1.8C310.8,150.6,312,152.4,313.6,152.4z"/>
</g>
<g>
	<path class="st2" d="M339,147.2L339,147.2c0,0-1.6-0.9-1.6-2.6c0-1.8,1.4-3.4,3.9-3.4c2.4,0,4,1.5,4,3.4s-1.5,3-1.5,3l0,0
		c1.1,0.7,1.9,1.5,1.9,2.9c0,2-1.8,3.7-4.4,3.7c-2.4,0-4.4-1.5-4.4-3.8C337,148.4,339,147.2,339,147.2z M341.4,152.7
		c1.3,0,2.6-0.9,2.6-2.1c0-1.1-0.9-1.6-2.1-2.1c-0.5-0.2-1.2-0.5-1.3-0.5c-0.4,0-1.7,1-1.7,2.4C338.8,151.8,340,152.7,341.4,152.7z
		 M342.3,146.9c0.4,0,1.3-1.1,1.3-2.2c0-1.2-0.9-1.9-2.2-1.9c-1.4,0-2.2,0.8-2.2,1.8c0,1.1,0.9,1.5,2.1,2
		C341.6,146.7,342.1,146.9,342.3,146.9z"/>
	<path class="st2" d="M347.2,148.5c0-3.3,1.8-7.3,5.7-7.3c1.5,0,2.5,0.5,2.5,0.5l-0.6,1.5c0,0-0.8-0.4-1.8-0.4
		c-2.3,0-3.5,2.2-3.8,4.3l0,0c0.5-0.8,1.7-1.2,2.8-1.2c2.4,0,4,1.8,4,4.1c0,2.5-1.7,4.2-4.1,4.2C349.3,154.3,347.2,152,347.2,148.5z
		 M351.9,152.7c1.5,0,2.3-1.1,2.3-2.6s-1-2.6-2.6-2.6c-1.4,0-2.6,0.9-2.6,1.8C349.1,150.8,350.3,152.7,351.9,152.7z"/>
</g>
<g>
	<path class="st2" d="M423.8,158.7L423.8,158.7c0,0-1.6-0.9-1.6-2.6c0-1.8,1.4-3.4,3.9-3.4c2.4,0,4,1.5,4,3.4s-1.5,3-1.5,3l0,0
		c1.1,0.7,1.9,1.5,1.9,2.9c0,2-1.8,3.7-4.4,3.7c-2.4,0-4.4-1.5-4.4-3.8C421.7,159.8,423.8,158.7,423.8,158.7z M426.1,164.1
		c1.3,0,2.6-0.9,2.6-2.1c0-1.1-0.9-1.6-2.1-2.1c-0.5-0.2-1.2-0.5-1.3-0.5c-0.4,0-1.7,1-1.7,2.4C423.5,163.2,424.7,164.1,426.1,164.1
		z M427,158.4c0.4,0,1.3-1.1,1.3-2.2c0-1.2-0.9-1.9-2.2-1.9c-1.4,0-2.2,0.8-2.2,1.8c0,1.1,0.9,1.5,2.1,2
		C426.3,158.2,426.8,158.4,427,158.4z"/>
	<path class="st2" d="M432.7,162.6c0,0,1.3,1.4,3.2,1.4c1.4,0,2.5-0.9,2.5-2.3c0-1.4-1.3-2.3-2.7-2.3h-0.9l-0.4-0.9l2.6-3.3
		c0.4-0.5,0.7-0.8,0.7-0.8l0,0c0,0-0.4,0.1-1.1,0.1h-2.4c-0.3,0-0.4,0.1-0.4,0.4v0.8h-1.6V154c0-0.8,0.3-1.1,1.1-1.1h6.7v1.1l-3.3,4
		c1.6,0.2,3.6,1.3,3.6,3.7c0,2.1-1.7,4-4.3,4c-2.6,0-4.2-1.8-4.2-1.8L432.7,162.6z"/>
</g>
<g>
	<path class="st2" d="M461.5,155.8L461.5,155.8c0,0-1.6-0.9-1.6-2.6c0-1.8,1.4-3.4,3.9-3.4c2.4,0,4,1.5,4,3.4s-1.5,3-1.5,3l0,0
		c1.1,0.7,1.9,1.5,1.9,2.9c0,2-1.8,3.7-4.4,3.7c-2.4,0-4.4-1.5-4.4-3.8C459.4,157,461.5,155.8,461.5,155.8z M463.8,161.2
		c1.3,0,2.6-0.9,2.6-2.1c0-1.1-0.9-1.6-2.1-2.1c-0.5-0.2-1.2-0.5-1.3-0.5c-0.4,0-1.7,1-1.7,2.4C461.2,160.4,462.5,161.2,463.8,161.2
		z M464.8,155.5c0.4,0,1.3-1.1,1.3-2.2c0-1.2-0.9-1.9-2.2-1.9c-1.4,0-2.2,0.8-2.2,1.8c0,1.1,0.9,1.5,2.1,2
		C464,155.3,464.6,155.5,464.8,155.5z"/>
	<path class="st2" d="M469.4,158.2l5.7-8.2h2v7.8h2v1.5h-2v3.4h-1.8v-3.4h-5.9L469.4,158.2L469.4,158.2z M475.3,153.4
		c0-0.6,0.1-1.3,0.1-1.3l0,0c0,0-0.3,0.6-0.6,1.1L472,157c-0.3,0.4-0.7,0.8-0.7,0.8l0,0c0,0,0.5-0.1,1.1-0.1h3v-4.3H475.3z"/>
</g>
<g>
	<path class="st2" d="M714.2,208.7c0.4-0.7,0.7-1.2,0.7-1.2l0,0c0,0-0.3,0.1-0.9,0.1h-3.8c-0.3,0-0.4,0.1-0.4,0.4v0.8h-1.6v-1.6
		c0-0.8,0.3-1.1,1.1-1.1h7.7v1.2l-6.1,11.4h-2L714.2,208.7z"/>
	<path class="st2" d="M717.7,212.4c0-3.6,1.1-6.5,4.5-6.5s4.5,2.9,4.5,6.5c0,3.7-1.1,6.6-4.5,6.6C718.8,218.9,717.7,216,717.7,212.4
		z M724.9,212.4c0-2.7-0.6-4.9-2.7-4.9c-2.1,0-2.7,2.1-2.7,4.9c0,2.8,0.6,4.9,2.7,4.9C724.3,217.3,724.9,215.1,724.9,212.4z"/>
</g>
<g>
	<path class="st2" d="M752.6,172.3c0.4-0.7,0.7-1.2,0.7-1.2l0,0c0,0-0.3,0.1-0.9,0.1h-3.8c-0.3,0-0.4,0.1-0.4,0.4v0.8h-1.6v-1.6
		c0-0.8,0.3-1.1,1.1-1.1h7.7v1.2l-6.1,11.4h-2L752.6,172.3z"/>
	<path class="st2" d="M757.3,180.4c0,0,0.8,0.4,1.8,0.4c2.3,0,3.5-2.2,3.8-4.4l0,0c-0.5,0.8-1.7,1.2-2.8,1.2c-2.4,0-4-1.8-4-4.1
		c0-2.5,1.7-4.2,4.1-4.2c2.7,0,4.7,2.3,4.7,5.8c0,3.3-1.8,7.3-5.7,7.3c-1.5,0-2.5-0.5-2.5-0.5L757.3,180.4z M763,174.5
		c0-1.6-1.2-3.4-2.8-3.4c-1.5,0-2.3,1.1-2.3,2.6s1,2.6,2.6,2.6C761.8,176.2,763,175.4,763,174.5z"/>
</g>
<g>
	<path class="st3" d="M778.3,175.3h4v-4.4h1.5v4.4h4v1.4h-4v4.4h-1.5v-4.4h-4V175.3z"/>
	<path class="st3" d="M790.4,179.2c0,0,0.8,0.4,1.8,0.4c2.3,0,3.5-2.2,3.8-4.4l0,0c-0.5,0.8-1.7,1.2-2.8,1.2c-2.4,0-4-1.8-4-4.1
		c0-2.5,1.7-4.2,4.1-4.2c2.7,0,4.7,2.3,4.7,5.8c0,3.3-1.8,7.3-5.7,7.3c-1.5,0-2.5-0.5-2.5-0.5L790.4,179.2z M796.1,173.3
		c0-1.6-1.2-3.4-2.8-3.4c-1.5,0-2.3,1.1-2.3,2.6s1,2.6,2.6,2.6C795,175,796.1,174.2,796.1,173.3z"/>
</g>
<g>
	<path class="st3" d="M930.1,152.5h4v-4.4h1.5v4.4h4v1.4h-4v4.4h-1.5v-4.4h-4V152.5z"/>
	<path class="st3" d="M942.2,155.5c0,0,1,1.4,3,1.4c1.6,0,2.7-1.1,2.7-2.5c0-1.6-1.4-2.6-3-2.6c-1.4,0-2.4,0.6-2.4,0.6l-0.7-0.3
		l0.5-5.2c0.1-0.8,0.3-1.1,1.1-1.1h4.4c0.8,0,1.1,0.3,1.1,1.1v1.6h-1.6v-0.8c0-0.3-0.1-0.4-0.4-0.4h-2.7c-0.3,0-0.4,0.1-0.4,0.4
		l-0.3,2.3c0,0.4-0.1,0.7-0.1,0.7l0,0c0,0,0.7-0.4,1.6-0.4c2.7,0,4.5,1.8,4.5,4.2c0,2.2-1.8,4.2-4.6,4.2c-2.6,0-3.9-1.8-3.9-1.8
		L942.2,155.5z"/>
</g>
<g>
	<path class="st2" d="M568.5,180.8c0.4-0.7,0.7-1.2,0.7-1.2l0,0c0,0-0.3,0.1-0.9,0.1h-3.8c-0.3,0-0.4,0.1-0.4,0.4v0.8h-1.6v-1.6
		c0-0.8,0.3-1.1,1.1-1.1h7.7v1.2l-6.1,11.4h-2L568.5,180.8z"/>
	<path class="st2" d="M578,180.8c0.4-0.7,0.7-1.2,0.7-1.2l0,0c0,0-0.3,0.1-0.9,0.1H574c-0.3,0-0.4,0.1-0.4,0.4v0.8H572v-1.6
		c0-0.8,0.3-1.1,1.1-1.1h7.7v1.2l-6.1,11.4h-2L578,180.8z"/>
</g>
<g>
	<path class="st2" d="M605.8,165.6h4v-4.4h1.5v4.4h4v1.4h-4v4.4h-1.5V167h-4V165.6z"/>
	<path class="st2" d="M602.3,180.7L602.3,180.7c0,0-1.6-0.9-1.6-2.6c0-1.8,1.4-3.4,3.9-3.4c2.4,0,4,1.5,4,3.4s-1.5,3-1.5,3l0,0
		c1.1,0.7,1.9,1.5,1.9,2.9c0,2-1.8,3.7-4.4,3.7c-2.4,0-4.4-1.5-4.4-3.8C600.2,181.9,602.3,180.7,602.3,180.7z M604.6,186.2
		c1.3,0,2.6-0.9,2.6-2.1c0-1.1-1-1.6-2.1-2.1c-0.5-0.2-1.2-0.5-1.3-0.5c-0.4,0-1.7,1-1.7,2.4C602,185.3,603.2,186.2,604.6,186.2z
		 M605.5,180.4c0.4,0,1.3-1.1,1.3-2.2c0-1.2-0.9-1.9-2.2-1.9c-1.4,0-2.2,0.8-2.2,1.8c0,1.1,0.9,1.5,2.1,2
		C604.8,180.3,605.3,180.4,605.5,180.4z"/>
	<path class="st2" d="M610.5,181.3c0-3.6,1.1-6.5,4.5-6.5s4.5,2.9,4.5,6.5c0,3.7-1.1,6.6-4.5,6.6
		C611.6,187.8,610.5,184.9,610.5,181.3z M617.7,181.3c0-2.7-0.6-4.9-2.7-4.9c-2.1,0-2.7,2.1-2.7,4.9c0,2.8,0.6,4.9,2.7,4.9
		C617.1,186.2,617.7,184,617.7,181.3z"/>
</g>
<g>
	<path class="st2" d="M863,170.7L863,170.7c0,0-1.6-0.9-1.6-2.6c0-1.8,1.4-3.4,3.9-3.4c2.4,0,4,1.5,4,3.4s-1.5,3-1.5,3l0,0
		c1.1,0.7,1.9,1.5,1.9,2.9c0,2-1.8,3.7-4.4,3.7c-2.4,0-4.4-1.5-4.4-3.8C860.9,171.9,863,170.7,863,170.7z M865.3,176.2
		c1.3,0,2.6-0.9,2.6-2.1c0-1.1-1-1.6-2.1-2.1c-0.5-0.2-1.2-0.5-1.3-0.5c-0.4,0-1.7,1-1.7,2.4C862.7,175.3,863.9,176.2,865.3,176.2z
		 M866.3,170.4c0.4,0,1.3-1.1,1.3-2.2c0-1.2-0.9-1.9-2.2-1.9c-1.4,0-2.2,0.8-2.2,1.8c0,1.1,0.9,1.5,2.1,2
		C865.5,170.2,866,170.4,866.3,170.4z"/>
	<path class="st2" d="M871.3,171.2c0-3.6,1.1-6.5,4.5-6.5s4.5,2.9,4.5,6.5c0,3.7-1.1,6.6-4.5,6.6
		C872.4,177.8,871.3,174.9,871.3,171.2z M878.4,171.2c0-2.7-0.6-4.9-2.7-4.9c-2.1,0-2.7,2.1-2.7,4.9c0,2.8,0.6,4.9,2.7,4.9
		C877.8,176.2,878.4,174,878.4,171.2z"/>
</g>
<g>
	<path class="st2" d="M901.4,150.5L901.4,150.5c0,0-1.6-0.9-1.6-2.6c0-1.8,1.4-3.4,3.9-3.4c2.4,0,4,1.5,4,3.4s-1.5,3-1.5,3l0,0
		c1.1,0.7,1.9,1.5,1.9,2.9c0,2-1.8,3.7-4.4,3.7c-2.4,0-4.4-1.5-4.4-3.8C899.4,151.7,901.4,150.5,901.4,150.5z M903.8,155.9
		c1.3,0,2.6-0.9,2.6-2.1c0-1.1-1-1.6-2.1-2.1c-0.5-0.2-1.2-0.5-1.3-0.5c-0.4,0-1.7,1-1.7,2.4C901.2,155.1,902.4,155.9,903.8,155.9z
		 M904.7,150.2c0.4,0,1.3-1.1,1.3-2.2c0-1.2-0.9-1.9-2.2-1.9c-1.4,0-2.2,0.8-2.2,1.8c0,1.1,0.9,1.5,2.1,2
		C904,150,904.5,150.2,904.7,150.2z"/>
	<path class="st2" d="M910.8,154.5c0,0,1,1.4,3,1.4c1.6,0,2.7-1.1,2.7-2.5c0-1.6-1.4-2.6-3-2.6c-1.4,0-2.4,0.6-2.4,0.6l-0.7-0.3
		l0.5-5.2c0.1-0.8,0.3-1.1,1.1-1.1h4.4c0.8,0,1.1,0.3,1.1,1.1v1.6h-1.6v-0.8c0-0.3-0.1-0.4-0.4-0.4h-2.7c-0.3,0-0.4,0.1-0.4,0.4
		l-0.3,2.3c0,0.4-0.1,0.7-0.1,0.7l0,0c0,0,0.7-0.4,1.6-0.4c2.7,0,4.5,1.8,4.5,4.2c0,2.2-1.8,4.2-4.6,4.2c-2.6,0-3.9-1.8-3.9-1.8
		L910.8,154.5z"/>
</g>
</svg>
