<svg baseProfile="basic" xmlns="http://www.w3.org/2000/svg" viewBox="0 0 1019.2 639.6"><style type="text/css">.st0{fill:#C7B07D;} .st1{fill:#4A5497;} .st2{fill:#FFFFFF;} .st3{fill:#F3352F;}</style><path class="st0" d="M900.9 135.5h15.8c3.6 0 6.6 3 6.6 6.6v324.7h-29v-324.7c0-3.6 3-6.6 6.6-6.6z"/><path class="st1" d="M862.6 154.7h15.8c3.6 0 6.6 3 6.6 6.6v305.6h-29v-305.6c0-3.7 3-6.6 6.6-6.6z"/><path class="st0" d="M747.8 158.6h15.8c3.6 0 6.6 3 6.6 6.6v301.6h-29v-301.6c0-3.6 2.9-6.6 6.6-6.6z"/><path class="st1" d="M709.5 193.6h15.8c3.6 0 6.6 3 6.6 6.6v266.7h-29v-266.7c0-3.6 3-6.6 6.6-6.6z"/><path class="st0" d="M601.9 154.7h15.8c3.6 0 6.6 3 6.6 6.6v305.6h-29v-305.6c0-3.7 3-6.6 6.6-6.6z"/><path class="st1" d="M563.6 166.6h15.8c3.6 0 6.6 3 6.6 6.6v293.7h-29v-293.7c0-3.7 3-6.6 6.6-6.6z"/><path class="st0" d="M461.3 139.5h15.8c3.6 0 6.6 3 6.6 6.6v320.8h-29v-320.8c0-3.7 3-6.6 6.6-6.6z"/><path class="st1" d="M423 142.8h15.8c3.6 0 6.6 3 6.6 6.6v317.5h-29v-317.5c0-3.7 3-6.6 6.6-6.6z"/><path class="st0" d="M338.6 131.6h15.8c3.6 0 6.6 3 6.6 6.6v328.7h-29v-328.7c0-3.7 2.9-6.6 6.6-6.6z"/><path class="st1" d="M300.3 131.6h15.8c3.6 0 6.6 3 6.6 6.6v328.7h-29v-328.7c0-3.7 2.9-6.6 6.6-6.6z"/><path class="st0" d="M190 127.6h15.8c3.6 0 6.6 3 6.6 6.6v332.7h-29v-332.7c0-3.6 3-6.6 6.6-6.6z"/><path class="st1" d="M151.8 127.6h15.8c3.6 0 6.6 3 6.6 6.6v332.7h-29v-332.7c0-3.6 2.9-6.6 6.6-6.6z"/><path class="st2" d="M152.5 144.4s-1.6-.9-1.6-2.6c0-1.8 1.4-3.4 3.9-3.4 2.4 0 4 1.5 4 3.4l-1.5 3c1.1.7 1.9 1.5 1.9 2.9 0 2-1.8 3.7-4.4 3.7-2.4 0-4.4-1.5-4.4-3.8 0-2 2.1-3.2 2.1-3.2zm2.3 5.4c1.3 0 2.6-.9 2.6-2.1 0-1.1-.9-1.6-2.1-2.1-.5-.2-1.2-.5-1.3-.5-.4 0-1.7 1-1.7 2.4-.1 1.5 1.1 2.3 2.5 2.3zm.9-5.7c.4 0 1.3-1.1 1.3-2.2 0-1.2-.9-1.9-2.2-1.9-1.4 0-2.2.8-2.2 1.8 0 1.1.9 1.5 2.1 2 .3.1.8.3 1 .3zm10.5-2.8c.4-.7.7-1.2.7-1.2s-.3.1-.9.1h-3.8c-.3 0-.4.1-.4.4v.8h-1.6v-1.6c0-.8.3-1.1 1.1-1.1h7.7v1.2l-6.1 11.4h-2l5.3-10zm24.5 3.1s-1.6-.9-1.6-2.6c0-1.8 1.4-3.4 3.9-3.4 2.4 0 4 1.5 4 3.4l-1.5 3c1.1.7 1.9 1.5 1.9 2.9 0 2-1.8 3.7-4.4 3.7-2.4 0-4.4-1.5-4.4-3.8.1-2 2.1-3.2 2.1-3.2zm2.4 5.4c1.3 0 2.6-.9 2.6-2.1 0-1.1-.9-1.6-2.1-2.1-.5-.2-1.2-.5-1.3-.5-.4 0-1.7 1-1.7 2.4-.1 1.5 1.1 2.3 2.5 2.3zm.9-5.7c.4 0 1.3-1.1 1.3-2.2 0-1.2-.9-1.9-2.2-1.9-1.4 0-2.2.8-2.2 1.8 0 1.1.9 1.5 2.1 2 .3.1.8.3 1 .3zm10.5-2.8c.4-.7.7-1.2.7-1.2s-.3.1-.9.1h-3.8c-.3 0-.4.1-.4.4v.8h-1.6v-1.6c0-.8.3-1.1 1.1-1.1h7.7v1.2l-6.1 11.4h-2l5.3-10zm96.2 5.7s-1.6-.9-1.6-2.6c0-1.8 1.4-3.4 3.9-3.4 2.4 0 4 1.5 4 3.4l-1.5 3c1.1.7 1.9 1.5 1.9 2.9 0 2-1.8 3.7-4.4 3.7-2.4 0-4.4-1.5-4.4-3.8.1-2.1 2.1-3.2 2.1-3.2zm2.4 5.4c1.3 0 2.6-.9 2.6-2.1 0-1.1-.9-1.6-2.1-2.1-.5-.2-1.2-.5-1.3-.5-.4 0-1.7 1-1.7 2.4-.1 1.4 1.1 2.3 2.5 2.3zm.9-5.7c.4 0 1.3-1.1 1.3-2.2 0-1.2-.9-1.9-2.2-1.9-1.4 0-2.2.8-2.2 1.8 0 1.1.9 1.5 2.1 2 .3.1.8.3 1 .3zm4.9 1.5c0-3.3 1.8-7.3 5.7-7.3 1.5 0 2.5.5 2.5.5l-.6 1.5s-.8-.4-1.8-.4c-2.3 0-3.5 2.2-3.8 4.3.5-.8 1.7-1.2 2.8-1.2 2.4 0 4 1.8 4 4.1 0 2.5-1.7 4.2-4.1 4.2-2.6.1-4.7-2.1-4.7-5.7zm4.7 4.2c1.5 0 2.3-1.1 2.3-2.6s-1-2.6-2.6-2.6c-1.4 0-2.6.9-2.6 1.8.1 1.6 1.3 3.4 2.9 3.4zm25.4-5.2s-1.6-.9-1.6-2.6c0-1.8 1.4-3.4 3.9-3.4 2.4 0 4 1.5 4 3.4l-1.5 3c1.1.7 1.9 1.5 1.9 2.9 0 2-1.8 3.7-4.4 3.7-2.4 0-4.4-1.5-4.4-3.8.1-2 2.1-3.2 2.1-3.2zm2.4 5.5c1.3 0 2.6-.9 2.6-2.1 0-1.1-.9-1.6-2.1-2.1-.5-.2-1.2-.5-1.3-.5-.4 0-1.7 1-1.7 2.4-.1 1.4 1.1 2.3 2.5 2.3zm.9-5.8c.4 0 1.3-1.1 1.3-2.2 0-1.2-.9-1.9-2.2-1.9-1.4 0-2.2.8-2.2 1.8 0 1.1.9 1.5 2.1 2 .3.1.8.3 1 .3zm4.9 1.6c0-3.3 1.8-7.3 5.7-7.3 1.5 0 2.5.5 2.5.5l-.6 1.5s-.8-.4-1.8-.4c-2.3 0-3.5 2.2-3.8 4.3.5-.8 1.7-1.2 2.8-1.2 2.4 0 4 1.8 4 4.1 0 2.5-1.7 4.2-4.1 4.2-2.6.1-4.7-2.2-4.7-5.7zm4.7 4.2c1.5 0 2.3-1.1 2.3-2.6s-1-2.6-2.6-2.6c-1.4 0-2.6.9-2.6 1.8.1 1.5 1.3 3.4 2.9 3.4zm71.9 6s-1.6-.9-1.6-2.6c0-1.8 1.4-3.4 3.9-3.4 2.4 0 4 1.5 4 3.4l-1.5 3c1.1.7 1.9 1.5 1.9 2.9 0 2-1.8 3.7-4.4 3.7-2.4 0-4.4-1.5-4.4-3.8 0-2.1 2.1-3.2 2.1-3.2zm2.3 5.4c1.3 0 2.6-.9 2.6-2.1 0-1.1-.9-1.6-2.1-2.1-.5-.2-1.2-.5-1.3-.5-.4 0-1.7 1-1.7 2.4-.1 1.4 1.1 2.3 2.5 2.3zm.9-5.7c.4 0 1.3-1.1 1.3-2.2 0-1.2-.9-1.9-2.2-1.9-1.4 0-2.2.8-2.2 1.8 0 1.1.9 1.5 2.1 2 .3.1.8.3 1 .3zm5.7 4.2s1.3 1.4 3.2 1.4c1.4 0 2.5-.9 2.5-2.3s-1.3-2.3-2.7-2.3h-.9l-.4-.9 2.6-3.3c.4-.5.7-.8.7-.8s-.4.1-1.1.1h-2.4c-.3 0-.4.1-.4.4v.8h-1.6v-1.7c0-.8.3-1.1 1.1-1.1h6.7v1.1l-3.3 4c1.6.2 3.6 1.3 3.6 3.7 0 2.1-1.7 4-4.3 4l-4.2-1.8.9-1.3zm28.8-6.8s-1.6-.9-1.6-2.6c0-1.8 1.4-3.4 3.9-3.4 2.4 0 4 1.5 4 3.4l-1.5 3c1.1.7 1.9 1.5 1.9 2.9 0 2-1.8 3.7-4.4 3.7-2.4 0-4.4-1.5-4.4-3.8 0-2 2.1-3.2 2.1-3.2zm2.3 5.4c1.3 0 2.6-.9 2.6-2.1 0-1.1-.9-1.6-2.1-2.1-.5-.2-1.2-.5-1.3-.5-.4 0-1.7 1-1.7 2.4-.1 1.5 1.2 2.3 2.5 2.3zm1-5.7c.4 0 1.3-1.1 1.3-2.2 0-1.2-.9-1.9-2.2-1.9-1.4 0-2.2.8-2.2 1.8 0 1.1.9 1.5 2.1 2 .2.1.8.3 1 .3zm4.6 2.7l5.7-8.2h2v7.8h2v1.5h-2v3.4h-1.8v-3.4h-5.9v-1.1zm5.9-4.8c0-.6.1-1.3.1-1.3s-.3.6-.6 1.1l-2.8 3.8c-.3.4-.7.8-.7.8s.5-.1 1.1-.1h3v-4.3h-.1zm238.9 55.3c.4-.7.7-1.2.7-1.2s-.3.1-.9.1h-3.8c-.3 0-.4.1-.4.4v.8h-1.6v-1.6c0-.8.3-1.1 1.1-1.1h7.7v1.2l-6.1 11.4h-2l5.3-10zm3.5 3.7c0-3.6 1.1-6.5 4.5-6.5s4.5 2.9 4.5 6.5c0 3.7-1.1 6.6-4.5 6.6-3.4-.1-4.5-3-4.5-6.6zm7.2 0c0-2.7-.6-4.9-2.7-4.9s-2.7 2.1-2.7 4.9.6 4.9 2.7 4.9 2.7-2.2 2.7-4.9zm27.7-40.1c.4-.7.7-1.2.7-1.2s-.3.1-.9.1h-3.8c-.3 0-.4.1-.4.4v.8h-1.6v-1.6c0-.8.3-1.1 1.1-1.1h7.7v1.2l-6.1 11.4h-2l5.3-10zm4.7 8.1s.8.4 1.8.4c2.3 0 3.5-2.2 3.8-4.4-.5.8-1.7 1.2-2.8 1.2-2.4 0-4-1.8-4-4.1 0-2.5 1.7-4.2 4.1-4.2 2.7 0 4.7 2.3 4.7 5.8 0 3.3-1.8 7.3-5.7 7.3-1.5 0-2.5-.5-2.5-.5l.6-1.5zm5.7-5.9c0-1.6-1.2-3.4-2.8-3.4-1.5 0-2.3 1.1-2.3 2.6s1 2.6 2.6 2.6c1.3-.1 2.5-.9 2.5-1.8z"/><path class="st3" d="M778.3 175.3h4v-4.4h1.5v4.4h4v1.4h-4v4.4h-1.5v-4.4h-4v-1.4zm12.1 3.9s.8.4 1.8.4c2.3 0 3.5-2.2 3.8-4.4-.5.8-1.7 1.2-2.8 1.2-2.4 0-4-1.8-4-4.1 0-2.5 1.7-4.2 4.1-4.2 2.7 0 4.7 2.3 4.7 5.8 0 3.3-1.8 7.3-5.7 7.3-1.5 0-2.5-.5-2.5-.5l.6-1.5zm5.7-5.9c0-1.6-1.2-3.4-2.8-3.4-1.5 0-2.3 1.1-2.3 2.6s1 2.6 2.6 2.6c1.4-.1 2.5-.9 2.5-1.8zm134-20.8h4v-4.4h1.5v4.4h4v1.4h-4v4.4h-1.5v-4.4h-4v-1.4zm12.1 3s1 1.4 3 1.4c1.6 0 2.7-1.1 2.7-2.5 0-1.6-1.4-2.6-3-2.6-1.4 0-2.4.6-2.4.6l-.7-.3.5-5.2c.1-.8.3-1.1 1.1-1.1h4.4c.8 0 1.1.3 1.1 1.1v1.6h-1.6v-.8c0-.3-.1-.4-.4-.4h-2.7c-.3 0-.4.1-.4.4l-.3 2.3c0 .4-.1.7-.1.7s.7-.4 1.6-.4c2.7 0 4.5 1.8 4.5 4.2 0 2.2-1.8 4.2-4.6 4.2-2.6 0-3.9-1.8-3.9-1.8l1.2-1.4z"/><path class="st2" d="M568.5 180.8c.4-.7.7-1.2.7-1.2s-.3.1-.9.1h-3.8c-.3 0-.4.1-.4.4v.8h-1.6v-1.6c0-.8.3-1.1 1.1-1.1h7.7v1.2l-6.1 11.4h-2l5.3-10zm9.5 0c.4-.7.7-1.2.7-1.2s-.3.1-.9.1h-3.8c-.3 0-.4.1-.4.4v.8h-1.6v-1.6c0-.8.3-1.1 1.1-1.1h7.7v1.2l-6.1 11.4h-2l5.3-10zm24.3-11.1s-1.6-.9-1.6-2.6c0-1.8 1.4-3.4 3.9-3.4 2.4 0 4 1.5 4 3.4l-1.5 3c1.1.7 1.9 1.5 1.9 2.9 0 2-1.8 3.7-4.4 3.7-2.4 0-4.4-1.5-4.4-3.8 0-2 2.1-3.2 2.1-3.2zm2.3 5.5c1.3 0 2.6-.9 2.6-2.1 0-1.1-1-1.6-2.1-2.1-.5-.2-1.2-.5-1.3-.5-.4 0-1.7 1-1.7 2.4-.1 1.4 1.1 2.3 2.5 2.3zm.9-5.8c.4 0 1.3-1.1 1.3-2.2 0-1.2-.9-1.9-2.2-1.9-1.4 0-2.2.8-2.2 1.8 0 1.1.9 1.5 2.1 2 .3.2.8.3 1 .3zm5 .9c0-3.6 1.1-6.5 4.5-6.5s4.5 2.9 4.5 6.5c0 3.7-1.1 6.6-4.5 6.6-3.4-.1-4.5-3-4.5-6.6zm7.2 0c0-2.7-.6-4.9-2.7-4.9s-2.7 2.1-2.7 4.9.6 4.9 2.7 4.9 2.7-2.2 2.7-4.9zm245.3.4s-1.6-.9-1.6-2.6c0-1.8 1.4-3.4 3.9-3.4 2.4 0 4 1.5 4 3.4l-1.5 3c1.1.7 1.9 1.5 1.9 2.9 0 2-1.8 3.7-4.4 3.7-2.4 0-4.4-1.5-4.4-3.8 0-2 2.1-3.2 2.1-3.2zm2.3 5.5c1.3 0 2.6-.9 2.6-2.1 0-1.1-1-1.6-2.1-2.1-.5-.2-1.2-.5-1.3-.5-.4 0-1.7 1-1.7 2.4-.1 1.4 1.1 2.3 2.5 2.3zm1-5.8c.4 0 1.3-1.1 1.3-2.2 0-1.2-.9-1.9-2.2-1.9-1.4 0-2.2.8-2.2 1.8 0 1.1.9 1.5 2.1 2 .2.1.7.3 1 .3zm5 .8c0-3.6 1.1-6.5 4.5-6.5s4.5 2.9 4.5 6.5c0 3.7-1.1 6.6-4.5 6.6s-4.5-2.9-4.5-6.6zm7.1 0c0-2.7-.6-4.9-2.7-4.9s-2.7 2.1-2.7 4.9.6 4.9 2.7 4.9c2.1.1 2.7-2.1 2.7-4.9zm23-20.7s-1.6-.9-1.6-2.6c0-1.8 1.4-3.4 3.9-3.4 2.4 0 4 1.5 4 3.4l-1.5 3c1.1.7 1.9 1.5 1.9 2.9 0 2-1.8 3.7-4.4 3.7-2.4 0-4.4-1.5-4.4-3.8.1-2 2.1-3.2 2.1-3.2zm2.4 5.4c1.3 0 2.6-.9 2.6-2.1 0-1.1-1-1.6-2.1-2.1-.5-.2-1.2-.5-1.3-.5-.4 0-1.7 1-1.7 2.4-.1 1.5 1.1 2.3 2.5 2.3zm.9-5.7c.4 0 1.3-1.1 1.3-2.2 0-1.2-.9-1.9-2.2-1.9-1.4 0-2.2.8-2.2 1.8 0 1.1.9 1.5 2.1 2 .3.1.8.3 1 .3zm6.1 4.3s1 1.4 3 1.4c1.6 0 2.7-1.1 2.7-2.5 0-1.6-1.4-2.6-3-2.6-1.4 0-2.4.6-2.4.6l-.7-.3.5-5.2c.1-.8.3-1.1 1.1-1.1h4.4c.8 0 1.1.3 1.1 1.1v1.6h-1.6v-.8c0-.3-.1-.4-.4-.4h-2.7c-.3 0-.4.1-.4.4l-.3 2.3c0 .4-.1.7-.1.7s.7-.4 1.6-.4c2.7 0 4.5 1.8 4.5 4.2 0 2.2-1.8 4.2-4.6 4.2-2.6 0-3.9-1.8-3.9-1.8l1.2-1.4z"/></svg>