<?xml version="1.0" encoding="utf-8"?>
<!-- Generator: Adobe Illustrator 22.0.0, SVG Export Plug-In . SVG Version: 6.00 Build 0)  -->
<svg version="1.1" baseProfile="basic" id="Livello_1"
	 xmlns="http://www.w3.org/2000/svg" xmlns:xlink="http://www.w3.org/1999/xlink" x="0px" y="0px" viewBox="0 0 1019.2 639.6"
	 xml:space="preserve">
<style type="text/css">
	.st0{fill:#C7B07D;}
	.st1{fill:#4A5497;}
	.st2{fill:#F3352F;}
</style>
<g>
	<path class="st0" d="M900.9,135.5h15.8c3.6,0,6.6,3,6.6,6.6v324.7h-29V142.1C894.3,138.5,897.3,135.5,900.9,135.5z"/>
	<path class="st1" d="M862.6,154.7h15.8c3.6,0,6.6,3,6.6,6.6v305.6h-29V161.3C856,157.6,859,154.7,862.6,154.7z"/>
	<path class="st0" d="M747.8,158.6h15.8c3.6,0,6.6,3,6.6,6.6v301.6h-29V165.2C741.2,161.6,744.1,158.6,747.8,158.6z"/>
	<path class="st1" d="M709.5,193.6h15.8c3.6,0,6.6,3,6.6,6.6v266.7h-29V200.2C702.9,196.6,705.9,193.6,709.5,193.6z"/>
	<path class="st0" d="M601.9,154.7h15.8c3.6,0,6.6,3,6.6,6.6v305.6h-29V161.3C595.3,157.6,598.3,154.7,601.9,154.7z"/>
	<path class="st1" d="M563.6,166.6h15.8c3.6,0,6.6,3,6.6,6.6v293.7h-29V173.2C557,169.5,560,166.6,563.6,166.6z"/>
	<path class="st0" d="M461.3,139.5h15.8c3.6,0,6.6,3,6.6,6.6v320.8h-29V146.1C454.7,142.4,457.7,139.5,461.3,139.5z"/>
	<path class="st1" d="M423,142.8h15.8c3.6,0,6.6,3,6.6,6.6v317.5h-29V149.4C416.4,145.7,419.4,142.8,423,142.8z"/>
	<path class="st0" d="M338.6,131.6h15.8c3.6,0,6.6,3,6.6,6.6v328.7h-29V138.2C332,134.5,334.9,131.6,338.6,131.6z"/>
	<path class="st1" d="M300.3,131.6h15.8c3.6,0,6.6,3,6.6,6.6v328.7h-29V138.2C293.7,134.5,296.6,131.6,300.3,131.6z"/>
	<path class="st0" d="M190,127.6h15.8c3.6,0,6.6,3,6.6,6.6v332.7h-29V134.2C183.4,130.6,186.4,127.6,190,127.6z"/>
	<path class="st1" d="M151.8,127.6h15.8c3.6,0,6.6,3,6.6,6.6v332.7h-29V134.2C145.2,130.6,148.1,127.6,151.8,127.6z"/>
	<g>
		<path class="st2" d="M778.3,175.3h4v-4.4h1.5v4.4h4v1.4h-4v4.4h-1.5v-4.4h-4V175.3z"/>
		<path class="st2" d="M790.4,179.2c0,0,0.8,0.4,1.8,0.4c2.3,0,3.5-2.2,3.8-4.4l0,0c-0.5,0.8-1.7,1.2-2.8,1.2c-2.4,0-4-1.8-4-4.1
			c0-2.5,1.7-4.2,4.1-4.2c2.7,0,4.7,2.3,4.7,5.8c0,3.3-1.8,7.3-5.7,7.3c-1.5,0-2.5-0.5-2.5-0.5L790.4,179.2z M796.1,173.3
			c0-1.6-1.2-3.4-2.8-3.4c-1.5,0-2.3,1.1-2.3,2.6s1,2.6,2.6,2.6C795,175,796.1,174.2,796.1,173.3z"/>
	</g>
	<g>
		<path class="st2" d="M930.1,152.5h4v-4.4h1.5v4.4h4v1.4h-4v4.4h-1.5v-4.4h-4V152.5z"/>
		<path class="st2" d="M942.2,155.5c0,0,1,1.4,3,1.4c1.6,0,2.7-1.1,2.7-2.5c0-1.6-1.4-2.6-3-2.6c-1.4,0-2.4,0.6-2.4,0.6l-0.7-0.3
			l0.5-5.2c0.1-0.8,0.3-1.1,1.1-1.1h4.4c0.8,0,1.1,0.3,1.1,1.1v1.6h-1.6v-0.8c0-0.3-0.1-0.4-0.4-0.4h-2.7c-0.3,0-0.4,0.1-0.4,0.4
			l-0.3,2.3c0,0.4-0.1,0.7-0.1,0.7l0,0c0,0,0.7-0.4,1.6-0.4c2.7,0,4.5,1.8,4.5,4.2c0,2.2-1.8,4.2-4.6,4.2c-2.6,0-3.9-1.8-3.9-1.8
			L942.2,155.5z"/>
	</g>
</g>
</svg>
