<?xml version="1.0" encoding="utf-8"?>
<!-- Generator: Adobe Illustrator 22.0.0, SVG Export Plug-In . SVG Version: 6.00 Build 0)  -->
<svg version="1.1" baseProfile="basic" id="Livello_1"
	 xmlns="http://www.w3.org/2000/svg" xmlns:xlink="http://www.w3.org/1999/xlink" x="0px" y="0px" viewBox="0 0 1019.2 639.6"
	 xml:space="preserve">
<style type="text/css">
	.st0{fill:none;}
	.st1{fill:none;stroke:#C0B07F;stroke-linecap:round;stroke-miterlimit:10;}
	.st2{fill:none;stroke:#C0B07F;stroke-width:2;stroke-linecap:round;stroke-miterlimit:10;stroke-dasharray:0,9;}
	.st3{fill:#4A5497;}
	.st4{fill:#C7B07D;}
</style>
<g>
	<path class="st0" d="M917.4,174.8l-8.2-12.2l-8.2,12.2l7.3-2.2c-0.1,0.2-0.2,0.4-0.2,0.6v8c0,0.6,0.5,1.2,1.1,1.2s1.1-0.5,1.1-1.2
		v-8c0-0.3-0.1-0.6-0.3-0.8L917.4,174.8z M755.4,183.7l-8.2,12.2l7.3-2.2c-0.1,0.2-0.2,0.4-0.2,0.6v8c0,0.6,0.5,1.2,1.1,1.2
		s1.1-0.5,1.1-1.2v-8c0-0.3-0.1-0.6-0.3-0.8l7.4,2.4L755.4,183.7z M609.5,190.3l-8.2,12.2l7.3-2.2c-0.1,0.2-0.2,0.4-0.2,0.6v8
		c0,0.6,0.5,1.2,1.1,1.2s1.1-0.5,1.1-1.2v-8c0-0.3-0.1-0.6-0.3-0.8l7.4,2.4L609.5,190.3z"/>
</g>
<path class="st1" d="M982.8,586.3H44.2c-3.6,0-6.6-3-6.6-6.6V49.1"/>
<path class="st2" d="M100.9,76.8h840.9"/>
<path class="st2" d="M100.9,115.7h840.9"/>
<path class="st2" d="M100.9,154.7h840.9"/>
<path class="st2" d="M100.9,193h840.9"/>
<path class="st2" d="M100.9,231.9h840.9"/>
<path class="st2" d="M100.9,270.8h840.9"/>
<path class="st2" d="M100.9,309.8h840.9"/>
<path class="st2" d="M100.9,348.7h840.9"/>
<path class="st2" d="M100.9,387h840.9"/>
<path class="st2" d="M100.9,426h840.9"/>
<path class="st2" d="M100.9,464.9h840.9"/>
<path class="st3" d="M533.6,606.2c3.8,0,6.9,3.1,6.9,6.9c0,3.8-3.1,6.9-6.9,6.9s-6.9-3.1-6.9-6.9
	C526.7,609.3,529.8,606.2,533.6,606.2z"/>
<path class="st4" d="M432,606.2c3.8,0,6.9,3.1,6.9,6.9c0,3.8-3.1,6.9-6.9,6.9s-6.9-3.1-6.9-6.9C425,609.3,428.1,606.2,432,606.2z"/>
<g>
	<path class="st3" d="M55.4,71.6h2.9v-8.4c0-0.4,0-0.8,0-0.8l0,0c0,0-0.1,0.3-0.6,0.8l-1.2,1.2l-1.1-1.1l3.1-3h1.7v11.4H63v1.6h-7.5
		v-1.7H55.4z"/>
	<path class="st3" d="M64.2,66.7c0-3.7,1.1-6.7,4.6-6.7s4.6,3,4.6,6.7c0,3.8-1.1,6.7-4.6,6.7C65.3,73.4,64.2,70.4,64.2,66.7z
		 M71.6,66.7c0-2.8-0.6-5-2.7-5s-2.7,2.2-2.7,5c0,2.8,0.6,5.1,2.7,5.1C70.9,71.7,71.6,69.5,71.6,66.7z"/>
	<path class="st3" d="M75.4,66.7c0-3.7,1.1-6.7,4.6-6.7s4.6,3,4.6,6.7c0,3.8-1.1,6.7-4.6,6.7C76.5,73.4,75.4,70.4,75.4,66.7z
		 M82.7,66.7c0-2.8-0.6-5-2.7-5s-2.7,2.2-2.7,5c0,2.8,0.6,5.1,2.7,5.1C82.1,71.7,82.7,69.5,82.7,66.7z"/>
	<path class="st3" d="M66,112.2c0,0,0.8,0.4,1.9,0.4c2.4,0,3.6-2.2,3.9-4.5l0,0c-0.5,0.8-1.7,1.3-2.9,1.3c-2.5,0-4.1-1.8-4.1-4.2
		c0-2.6,1.7-4.3,4.2-4.3c2.8,0,4.9,2.4,4.9,6c0,3.4-1.8,7.5-5.9,7.5c-1.5,0-2.5-0.5-2.5-0.5L66,112.2z M71.9,106.1
		c0-1.7-1.3-3.5-2.9-3.5c-1.5,0-2.4,1.2-2.4,2.7s1,2.7,2.7,2.7C70.7,107.9,71.9,107,71.9,106.1z"/>
	<path class="st3" d="M75.4,107.6c0-3.7,1.1-6.7,4.6-6.7s4.6,3,4.6,6.7c0,3.8-1.1,6.7-4.6,6.7C76.5,114.3,75.4,111.3,75.4,107.6z
		 M82.7,107.6c0-2.8-0.6-5-2.7-5s-2.7,2.2-2.7,5s0.6,5.1,2.7,5.1C82.1,112.6,82.7,110.4,82.7,107.6z"/>
	<path class="st3" d="M66.9,144.9L66.9,144.9c0,0-1.6-0.9-1.6-2.7s1.4-3.5,4.1-3.5c2.5,0,4.1,1.5,4.1,3.5c0,1.9-1.6,3.1-1.6,3.1l0,0
		c1.2,0.7,1.9,1.6,1.9,3c0,2-1.8,3.8-4.5,3.8c-2.4,0-4.5-1.5-4.5-3.9C64.8,146.1,66.9,144.9,66.9,144.9z M69.3,150.5
		c1.4,0,2.6-0.9,2.6-2.2c0-1.1-1-1.6-2.2-2.1c-0.5-0.2-1.2-0.5-1.3-0.5c-0.5,0-1.8,1.1-1.8,2.5C66.6,149.6,67.9,150.5,69.3,150.5z
		 M70.3,144.6c0.4,0,1.4-1.1,1.4-2.2c0-1.2-1-2-2.3-2c-1.4,0-2.2,0.8-2.2,1.8c0,1.1,1,1.6,2.1,2C69.5,144.4,70,144.6,70.3,144.6z"/>
	<path class="st3" d="M75.4,145.5c0-3.7,1.1-6.7,4.6-6.7s4.6,3,4.6,6.7c0,3.8-1.1,6.7-4.6,6.7S75.4,149.2,75.4,145.5z M82.7,145.5
		c0-2.8-0.6-5-2.7-5s-2.7,2.2-2.7,5s0.6,5.1,2.7,5.1C82.1,150.5,82.7,148.3,82.7,145.5z"/>
	<path class="st3" d="M71.8,181.6c0.4-0.7,0.8-1.2,0.8-1.2l0,0c0,0-0.3,0.1-0.9,0.1h-3.9c-0.3,0-0.4,0.1-0.4,0.4v0.8h-1.7v-1.6
		c0-0.8,0.3-1.2,1.1-1.2h7.9v1.3L68.4,192h-2L71.8,181.6z"/>
	<path class="st3" d="M75.4,185.4c0-3.7,1.1-6.7,4.6-6.7s4.6,3,4.6,6.7c0,3.8-1.1,6.7-4.6,6.7C76.5,192.1,75.4,189.1,75.4,185.4z
		 M82.7,185.4c0-2.8-0.6-5-2.7-5s-2.7,2.2-2.7,5s0.6,5.1,2.7,5.1C82.1,190.4,82.7,188.2,82.7,185.4z"/>
	<path class="st3" d="M64.8,226c0-3.4,1.8-7.5,5.9-7.5c1.5,0,2.5,0.5,2.5,0.5l-0.6,1.6c0,0-0.8-0.4-1.9-0.4c-2.4,0-3.6,2.2-3.9,4.5
		l0,0c0.5-0.8,1.7-1.3,2.9-1.3c2.5,0,4.1,1.9,4.1,4.2c0,2.6-1.8,4.3-4.2,4.3C66.9,232,64.8,229.6,64.8,226z M69.7,230.3
		c1.5,0,2.4-1.2,2.4-2.7c0-1.6-1-2.7-2.7-2.7c-1.5,0-2.6,0.9-2.6,1.8C66.7,228.4,68,230.3,69.7,230.3z"/>
	<path class="st3" d="M75.4,225.3c0-3.7,1.1-6.7,4.6-6.7s4.6,3,4.6,6.7c0,3.8-1.1,6.7-4.6,6.7S75.4,229,75.4,225.3z M82.7,225.3
		c0-2.8-0.6-5-2.7-5s-2.7,2.2-2.7,5s0.6,5.1,2.7,5.1C82.1,230.3,82.7,228.1,82.7,225.3z"/>
	<path class="st3" d="M65.8,267.7c0,0,1,1.4,3,1.4c1.6,0,2.8-1.1,2.8-2.6c0-1.6-1.4-2.7-3.1-2.7c-1.4,0-2.5,0.7-2.5,0.7l-0.8-0.3
		l0.5-5.4c0.1-0.8,0.3-1.2,1.2-1.2h4.5c0.8,0,1.2,0.4,1.2,1.2v1.6H71v-0.8c0-0.3-0.1-0.4-0.4-0.4h-2.7c-0.3,0-0.4,0.1-0.4,0.4
		l-0.3,2.4c0,0.4-0.1,0.7-0.1,0.7l0,0c0,0,0.7-0.4,1.7-0.4c2.8,0,4.6,1.9,4.6,4.3c0,2.3-1.8,4.3-4.7,4.3c-2.7,0-4-1.8-4-1.8
		L65.8,267.7z"/>
	<path class="st3" d="M75.4,264.2c0-3.7,1.1-6.7,4.6-6.7s4.6,3,4.6,6.7c0,3.8-1.1,6.7-4.6,6.7C76.5,270.9,75.4,267.9,75.4,264.2z
		 M82.7,264.2c0-2.8-0.6-5-2.7-5s-2.7,2.2-2.7,5s0.6,5.1,2.7,5.1C82.1,269.2,82.7,267,82.7,264.2z"/>
	<path class="st3" d="M64.1,306l5.9-8.4h2.1v8h2v1.6h-2v3.4h-1.8v-3.4h-6.1L64.1,306L64.1,306z M70.3,301.1c0-0.6,0.1-1.3,0.1-1.3
		l0,0c0,0-0.3,0.6-0.7,1.1l-2.8,3.9c-0.3,0.5-0.7,0.8-0.7,0.8l0,0c0,0,0.5-0.1,1.1-0.1h3V301.1z"/>
	<path class="st3" d="M75.4,304.1c0-3.7,1.1-6.7,4.6-6.7s4.6,3,4.6,6.7c0,3.8-1.1,6.7-4.6,6.7C76.5,310.8,75.4,307.8,75.4,304.1z
		 M82.7,304.1c0-2.8-0.6-5-2.7-5s-2.7,2.2-2.7,5s0.6,5.1,2.7,5.1C82.1,309.1,82.7,306.9,82.7,304.1z"/>
	<path class="st3" d="M65.9,346.5c0,0,1.3,1.5,3.3,1.5c1.4,0,2.6-1,2.6-2.4c0-1.5-1.3-2.3-2.8-2.3h-0.9l-0.4-1l2.7-3.4
		c0.4-0.6,0.8-0.8,0.8-0.8l0,0c0,0-0.4,0.1-1.1,0.1h-2.5c-0.3,0-0.4,0.1-0.4,0.4v0.8h-1.7v-1.6c0-0.8,0.3-1.2,1.1-1.2h6.9v1.2
		l-3.4,4.1c1.7,0.2,3.7,1.3,3.7,3.8c0,2.2-1.8,4.1-4.5,4.1S65,348,65,348L65.9,346.5z"/>
	<path class="st3" d="M75.4,343c0-3.7,1.1-6.7,4.6-6.7s4.6,3,4.6,6.7c0,3.8-1.1,6.7-4.6,6.7S75.4,346.7,75.4,343z M82.7,343
		c0-2.8-0.6-5-2.7-5s-2.7,2.2-2.7,5s0.6,5.1,2.7,5.1C82.1,348,82.7,345.8,82.7,343z"/>
	<path class="st3" d="M71.3,379.9c0-1.2-0.9-2.1-2.3-2.1c-1.2,0-2,0.6-2,1.2v0.6h-1.7v-1.1c0-1.7,2.3-2.4,3.8-2.4
		c2.4,0,4.1,1.5,4.1,3.7c0,4.5-6.6,4.6-6.6,7.6c0,0.3,0.1,0.4,0.5,0.4h4.6c0.3,0,0.4-0.1,0.4-0.4v-0.8h1.7v1.6
		c0,0.8-0.3,1.2-1.2,1.2h-6.7c-1,0-1.2-0.4-1.2-1.5C64.6,383.1,71.3,383.4,71.3,379.9z"/>
	<path class="st3" d="M75.4,382.9c0-3.7,1.1-6.7,4.6-6.7s4.6,3,4.6,6.7c0,3.8-1.1,6.7-4.6,6.7S75.4,386.6,75.4,382.9z M82.7,382.9
		c0-2.8-0.6-5-2.7-5s-2.7,2.2-2.7,5s0.6,5.1,2.7,5.1C82.1,387.9,82.7,385.7,82.7,382.9z"/>
	<path class="st3" d="M66.6,427.7h2.9v-8.4c0-0.4,0-0.8,0-0.8l0,0c0,0-0.1,0.3-0.6,0.8l-1.2,1.2l-1.1-1.1l3.1-3h1.7v11.4h2.8v1.6
		h-7.5v-1.7H66.6z"/>
	<path class="st3" d="M75.4,422.8c0-3.7,1.1-6.7,4.6-6.7s4.6,3,4.6,6.7c0,3.8-1.1,6.7-4.6,6.7S75.4,426.5,75.4,422.8z M82.7,422.8
		c0-2.8-0.6-5-2.7-5s-2.7,2.2-2.7,5s0.6,5.1,2.7,5.1C82.1,427.8,82.7,425.6,82.7,422.8z"/>
	<path class="st3" d="M75.4,463.7c0-3.7,1.1-6.7,4.6-6.7s4.6,3,4.6,6.7c0,3.8-1.1,6.7-4.6,6.7C76.5,470.4,75.4,467.4,75.4,463.7z
		 M82.7,463.7c0-2.8-0.6-5-2.7-5s-2.7,2.2-2.7,5s0.6,5.1,2.7,5.1C82.1,468.7,82.7,466.5,82.7,463.7z"/>
</g>
<g>
	<path class="st3" d="M105,502.4c0,0,1.4,1.6,3.4,1.6c1.3,0,2.3-0.8,2.3-2c0-2.8-6.5-2.4-6.5-6.6c0-2,1.8-3.6,4.3-3.6
		c1.4,0,3.8,0.6,3.8,2.5v1.1h-1.8v-0.6c0-0.7-1-1.2-2.1-1.2c-1.4,0-2.4,0.8-2.4,1.8c0,2.7,6.5,2.1,6.5,6.5c0,2.1-1.6,3.8-4.3,3.8
		c-2.9,0-4.5-2-4.5-2L105,502.4z"/>
	<path class="st3" d="M119.9,499.5h0.4v-0.1c0-1.7-0.6-2.3-2.1-2.3c-0.5,0-1.6,0.1-1.6,0.7v0.6h-1.7v-1c0-1.6,2.4-1.8,3.3-1.8
		c3.1,0,4,1.6,4,3.8v4.1c0,0.3,0.2,0.4,0.4,0.4h0.8v1.6h-1.7c-0.9,0-1.2-0.4-1.2-1.1c0-0.3,0-0.6,0-0.6l0,0c0,0-0.8,1.9-3.1,1.9
		c-1.7,0-3.3-1-3.3-2.9C114.1,499.7,118.3,499.5,119.9,499.5z M117.8,504.3c1.6,0,2.6-1.6,2.6-3.1v-0.3h-0.5c-1.4,0-3.9,0.1-3.9,1.8
		C116,503.5,116.6,504.3,117.8,504.3z"/>
	<path class="st3" d="M125.4,497.9c0-0.3-0.2-0.4-0.4-0.4h-0.8v-1.6h1.8c0.8,0,1.2,0.4,1.2,1.1v0.4c0,0.3,0,0.6,0,0.6l0,0
		c0.4-0.8,1.5-2.2,3.6-2.2c2.3,0,3.3,1.2,3.3,3.7v4.2c0,0.3,0.2,0.4,0.4,0.4h0.8v1.6h-1.8c-0.9,0-1.2-0.4-1.2-1.2V500
		c0-1.4-0.3-2.4-1.8-2.4s-2.7,1-3,2.4c-0.1,0.4-0.2,0.8-0.2,1.3v4.5h-1.8L125.4,497.9L125.4,497.9z"/>
	<path class="st3" d="M142.8,493.7h-1.2v-1.6h5.9c2.5,0,4.2,1.7,4.2,4.2c0,2.6-1.8,4.3-4.2,4.3h-2.8v5h-1.9V493.7z M147.2,498.9
		c1.6,0,2.6-1,2.6-2.6s-1-2.6-2.5-2.6h-2.5v5.2H147.2z"/>
	<path class="st3" d="M157.3,495.7c2.7,0,4.2,2,4.2,4.5c0,0.2-0.1,0.8-0.1,0.8h-7c0.1,2.1,1.6,3.2,3.3,3.2s2.8-1.1,2.8-1.1l0.8,1.3
		c0,0-1.4,1.4-3.7,1.4c-3,0-5.1-2.2-5.1-5C152.4,497.7,154.5,495.7,157.3,495.7z M159.5,499.6c-0.1-1.6-1.1-2.5-2.3-2.5
		c-1.4,0-2.6,0.9-2.8,2.5H159.5z"/>
	<path class="st3" d="M163.9,494.1c0-0.3-0.2-0.4-0.4-0.4h-0.8v-1.6h1.8c0.9,0,1.2,0.4,1.2,1.2v10.2c0,0.3,0.2,0.4,0.4,0.4h0.8v1.6
		h-1.8c-0.9,0-1.2-0.4-1.2-1.2V494.1z"/>
	<path class="st3" d="M169,494.1c0-0.3-0.2-0.4-0.4-0.4h-0.8v-1.6h1.8c0.9,0,1.2,0.4,1.2,1.2v10.2c0,0.3,0.2,0.4,0.4,0.4h0.8v1.6
		h-1.8c-0.9,0-1.2-0.4-1.2-1.2V494.1z"/>
	<path class="st3" d="M178,495.7c2.7,0,4.2,2,4.2,4.5c0,0.2-0.1,0.8-0.1,0.8h-7c0.1,2.1,1.6,3.2,3.3,3.2s2.8-1.1,2.8-1.1l0.8,1.3
		c0,0-1.4,1.4-3.7,1.4c-3,0-5.1-2.2-5.1-5C173.2,497.7,175.3,495.7,178,495.7z M180.3,499.6c-0.1-1.6-1.1-2.5-2.3-2.5
		c-1.4,0-2.6,0.9-2.8,2.5H180.3z"/>
	<path class="st3" d="M188,495.7c2.4,0,3.1,1.5,3.1,1.5l0,0c0,0,0-0.2,0-0.3c0-0.6,0.3-1,1.1-1h1.8v1.6h-0.8c-0.2,0-0.4,0.1-0.4,0.4
		v7.3c0,3.2-2.4,4.4-4.9,4.4c-1.2,0-2.3-0.3-3.3-0.8l0.6-1.5c0,0,1.2,0.6,2.6,0.6c1.7,0,3-0.7,3-2.7v-0.6c0-0.3,0-0.6,0-0.6l0,0
		c-0.6,0.9-1.5,1.5-2.9,1.5c-2.7,0-4.3-2.2-4.3-4.9C183.7,497.7,185.3,495.7,188,495.7z M191,500.5c0-2.5-1.2-3.2-2.7-3.2
		c-1.7,0-2.6,1.2-2.6,3.2s1,3.4,2.8,3.4C189.7,503.8,191,503,191,500.5z"/>
	<path class="st3" d="M196,497.9c0-0.3-0.2-0.4-0.4-0.4h-0.8v-1.6h1.8c0.8,0,1.2,0.3,1.2,1.1v0.6c0,0.4,0,0.7,0,0.7l0,0
		c0.5-1.4,1.6-2.5,3-2.5c0.2,0,0.5,0,0.5,0v1.8c0,0-0.2-0.1-0.6-0.1c-1.2,0-2.3,0.8-2.7,2.3c-0.2,0.6-0.2,1.1-0.2,1.7v3.9H196V497.9
		z"/>
	<path class="st3" d="M203.5,497.9c0-0.3-0.2-0.4-0.4-0.4h-0.8v-1.6h1.8c0.9,0,1.2,0.4,1.2,1.2v6.4c0,0.3,0.2,0.4,0.4,0.4h0.8v1.6
		h-1.8c-0.9,0-1.2-0.4-1.2-1.2V497.9z M203.5,492.1h1.7v1.9h-1.7V492.1z"/>
	<path class="st3" d="M208.6,497.9c0-0.3-0.2-0.4-0.4-0.4h-0.8v-1.6h1.8c0.8,0,1.2,0.4,1.2,1.1v0.4c0,0.3,0,0.6,0,0.6l0,0
		c0.4-0.8,1.5-2.2,3.6-2.2c2.3,0,3.3,1.2,3.3,3.7v4.2c0,0.3,0.2,0.4,0.4,0.4h0.8v1.6h-1.8c-0.9,0-1.2-0.4-1.2-1.2V500
		c0-1.4-0.3-2.4-1.8-2.4s-2.7,1-3,2.4c-0.1,0.4-0.2,0.8-0.2,1.3v4.5h-1.8v-7.9H208.6z"/>
	<path class="st3" d="M224.8,495.7c2.9,0,5.2,2.1,5.2,5s-2.3,5.1-5.2,5.1s-5.2-2.1-5.2-5.1C219.6,497.8,221.9,495.7,224.8,495.7z
		 M224.8,504.2c1.8,0,3.3-1.4,3.3-3.5c0-2-1.5-3.4-3.3-3.4s-3.3,1.4-3.3,3.4S223,504.2,224.8,504.2z"/>
	<path class="st3" d="M240.5,493.7h-2.7c-0.3,0-0.4,0.1-0.4,0.4v0.9h-1.7v-1.8c0-0.9,0.3-1.1,1.1-1.1h9.3c0.9,0,1.1,0.3,1.1,1.1v1.8
		h-1.7v-0.9c0-0.3-0.2-0.4-0.4-0.4h-2.7v11.8h-1.9L240.5,493.7L240.5,493.7z"/>
	<path class="st3" d="M247.5,503.6h1.9v2h-1.9V503.6z"/>
</g>
<g>
	<path class="st3" d="M303,495.7h-1.2v-1.6h5.7c2.4,0,4.1,1.6,4.1,4.1s-1.7,4.1-4.1,4.1h-2.7v4.8H303V495.7z M307.3,500.7
		c1.5,0,2.5-1,2.5-2.5s-0.9-2.5-2.4-2.5H305v5H307.3z"/>
	<path class="st3" d="M317.9,501.3h0.4v-0.1c0-1.6-0.6-2.2-2.1-2.2c-0.4,0-1.5,0.1-1.5,0.7v0.5H313v-0.9c0-1.5,2.3-1.7,3.2-1.7
		c3,0,3.8,1.6,3.8,3.6v3.9c0,0.3,0.1,0.4,0.4,0.4h0.8v1.5h-1.7c-0.8,0-1.2-0.4-1.2-1.1c0-0.3,0-0.6,0-0.6l0,0c0,0-0.7,1.8-3,1.8
		c-1.6,0-3.2-1-3.2-2.8C312.3,501.5,316.4,501.3,317.9,501.3z M315.9,505.9c1.5,0,2.5-1.6,2.5-3v-0.3h-0.5c-1.3,0-3.8,0.1-3.8,1.8
		C314.1,505.1,314.7,505.9,315.9,505.9z"/>
	<path class="st3" d="M323.2,499.7c0-0.3-0.1-0.4-0.4-0.4H322v-1.5h1.7c0.8,0,1.2,0.3,1.2,1v0.3c0,0.3,0,0.5,0,0.5l0,0
		c0.4-0.8,1.5-2.1,3.5-2.1c2.2,0,3.2,1.2,3.2,3.6v4c0,0.3,0.1,0.4,0.4,0.4h0.8v1.5H331c-0.8,0-1.2-0.3-1.2-1.2v-4.4
		c0-1.3-0.3-2.3-1.7-2.3c-1.4,0-2.6,0.9-2.9,2.3c-0.1,0.4-0.2,0.8-0.2,1.2v4.3h-1.8L323.2,499.7L323.2,499.7z"/>
	<path class="st3" d="M334.7,499.7c0-0.3-0.1-0.4-0.4-0.4h-0.8v-1.5h1.7c0.8,0,1.2,0.3,1.2,1v0.3c0,0.3,0,0.5,0,0.5l0,0
		c0.4-0.8,1.5-2.1,3.5-2.1c2.2,0,3.2,1.2,3.2,3.6v4c0,0.3,0.1,0.4,0.4,0.4h0.8v1.5h-1.8c-0.8,0-1.2-0.3-1.2-1.2v-4.4
		c0-1.3-0.3-2.3-1.7-2.3c-1.4,0-2.6,0.9-2.9,2.3c-0.1,0.4-0.2,0.8-0.2,1.2v4.3h-1.8L334.7,499.7L334.7,499.7z"/>
	<path class="st3" d="M350.9,501.3h0.4v-0.1c0-1.6-0.6-2.2-2.1-2.2c-0.4,0-1.5,0.1-1.5,0.7v0.5H346v-0.9c0-1.5,2.3-1.7,3.2-1.7
		c3,0,3.8,1.6,3.8,3.6v3.9c0,0.3,0.1,0.4,0.4,0.4h0.8v1.5h-1.7c-0.8,0-1.2-0.4-1.2-1.1c0-0.3,0-0.6,0-0.6l0,0c0,0-0.7,1.8-3,1.8
		c-1.6,0-3.2-1-3.2-2.8C345.3,501.5,349.3,501.3,350.9,501.3z M348.8,505.9c1.5,0,2.5-1.6,2.5-3v-0.3h-0.5c-1.3,0-3.8,0.1-3.8,1.8
		C347.1,505.1,347.7,505.9,348.8,505.9z"/>
</g>
<g>
	<path class="st3" d="M407.8,495.9c-0.1-0.3-0.3-0.4-0.6-0.4h-0.3v-1.7h1.1c1,0,1.3,0.2,1.6,1.1l3,8.4c0.3,0.7,0.5,1.9,0.5,1.9l0,0
		c0,0,0.3-1.1,0.5-1.9l3-8.4c0.3-0.9,0.6-1.1,1.6-1.1h1.1v1.7H419c-0.3,0-0.5,0.1-0.6,0.4l-4.3,11.5h-2L407.8,495.9z"/>
	<path class="st3" d="M425.2,501.3h0.4v-0.1c0-1.7-0.6-2.3-2.2-2.3c-0.5,0-1.6,0.1-1.6,0.8v0.6H420v-1c0-1.6,2.4-1.8,3.4-1.8
		c3.2,0,4,1.7,4,3.8v4.1c0,0.3,0.2,0.4,0.4,0.4h0.8v1.6H427c-0.9,0-1.2-0.4-1.2-1.1c0-0.3,0-0.6,0-0.6l0,0c0,0-0.8,1.9-3.1,1.9
		c-1.7,0-3.3-1-3.3-3C419.3,501.5,423.6,501.3,425.2,501.3z M423.1,506.1c1.6,0,2.6-1.7,2.6-3.1v-0.3h-0.5c-1.4,0-3.9,0.1-3.9,1.9
		C421.2,505.3,421.8,506.1,423.1,506.1z"/>
	<path class="st3" d="M430.7,495.8c0-0.3-0.2-0.4-0.4-0.4h-0.8v-1.6h1.8c0.9,0,1.2,0.4,1.2,1.2v10.3c0,0.3,0.2,0.4,0.4,0.4h0.8v1.6
		h-1.8c-0.9,0-1.2-0.4-1.2-1.2V495.8z"/>
	<path class="st3" d="M439.4,497.4c2.3,0,3,1.5,3,1.5l0,0c0,0,0-0.3,0-0.7v-2.4c0-0.3-0.2-0.4-0.4-0.4h-0.8v-1.6h1.8
		c0.9,0,1.2,0.4,1.2,1.2v10.3c0,0.3,0.2,0.4,0.4,0.4h0.8v1.6h-1.8c-0.8,0-1.2-0.4-1.2-1c0-0.3,0-0.5,0-0.5l0,0c0,0-0.8,1.8-3.2,1.8
		c-2.6,0-4.3-2.1-4.3-5.1C435,499.4,436.8,497.4,439.4,497.4z M442.4,502.5c0-1.7-0.9-3.5-2.8-3.5c-1.5,0-2.8,1.3-2.8,3.5
		c0,2.1,1.1,3.5,2.8,3.5C441.1,506,442.4,505,442.4,502.5z"/>
	<path class="st3" d="M447.6,499.7c0-0.3-0.2-0.4-0.4-0.4h-0.8v-1.6h1.8c0.9,0,1.2,0.4,1.2,1.2v6.5c0,0.3,0.2,0.4,0.4,0.4h0.8v1.6
		h-1.8c-0.9,0-1.2-0.4-1.2-1.2V499.7z M447.7,493.8h1.7v1.9h-1.7V493.8z"/>
	<path class="st3" d="M452.7,504.6c0,0,1.2,1.4,2.9,1.4c0.9,0,1.7-0.4,1.7-1.3c0-1.8-5.3-1.6-5.3-4.7c0-1.9,1.6-2.7,3.6-2.7
		c1.2,0,3.2,0.4,3.2,1.9v0.9h-1.7v-0.5c0-0.6-0.9-0.8-1.5-0.8c-1.1,0-1.8,0.4-1.8,1.2c0,1.8,5.3,1.4,5.3,4.7c0,1.7-1.5,2.8-3.6,2.8
		c-2.6,0-3.9-1.7-3.9-1.7L452.7,504.6z"/>
	<path class="st3" d="M465.9,497.4c2.9,0,5.3,2.1,5.3,5.1s-2.3,5.1-5.3,5.1c-2.9,0-5.2-2.2-5.2-5.1
		C460.6,499.5,463,497.4,465.9,497.4z M465.9,506c1.8,0,3.3-1.5,3.3-3.5s-1.5-3.5-3.3-3.5s-3.3,1.4-3.3,3.5
		C462.5,504.5,464,506,465.9,506z"/>
	<path class="st3" d="M473.5,499.1h-1.3v-1.5h1.3V495h1.8v2.7h2.3v1.5h-2.3v4.5c0,1.9,1.3,2.2,2.1,2.2c0.3,0,0.4,0,0.4,0v1.7
		c0,0-0.3,0-0.7,0c-1.2,0-3.7-0.4-3.7-3.6v-4.9H473.5z"/>
	<path class="st3" d="M480.3,499.1H479v-1.5h1.3V495h1.8v2.7h2.3v1.5h-2.3v4.5c0,1.9,1.3,2.2,2.1,2.2c0.3,0,0.4,0,0.4,0v1.7
		c0,0-0.3,0-0.7,0c-1.2,0-3.7-0.4-3.7-3.6v-4.9H480.3z"/>
	<path class="st3" d="M491.1,497.4c2.9,0,5.3,2.1,5.3,5.1s-2.3,5.1-5.3,5.1c-2.9,0-5.2-2.2-5.2-5.1
		C485.9,499.5,488.2,497.4,491.1,497.4z M491.1,506c1.8,0,3.3-1.5,3.3-3.5s-1.5-3.5-3.3-3.5s-3.3,1.4-3.3,3.5
		C487.8,504.5,489.3,506,491.1,506z"/>
</g>
<g>
	<path class="st3" d="M452.5,610c0-1.3-0.9-2.2-2.4-2.2c-1.2,0-2.1,0.6-2.1,1.3v0.6h-1.8v-1.2c0-1.8,2.4-2.5,4-2.5
		c2.5,0,4.3,1.6,4.3,3.9c0,4.7-6.9,4.8-6.9,7.9c0,0.3,0.2,0.4,0.5,0.4h4.8c0.3,0,0.4-0.2,0.4-0.4V617h1.8v1.7c0,0.9-0.4,1.2-1.2,1.2
		h-7c-1.1,0-1.3-0.5-1.3-1.6C445.6,613.4,452.5,613.7,452.5,610z"/>
	<path class="st3" d="M456.8,613.1c0-3.9,1.2-7,4.8-7c3.6,0,4.8,3.1,4.8,7s-1.2,7.1-4.8,7.1C458,620.2,456.8,617.1,456.8,613.1z
		 M464.5,613.1c0-3-0.6-5.3-2.9-5.3c-2.2,0-2.9,2.3-2.9,5.3s0.6,5.3,2.9,5.3C463.9,618.4,464.5,616.1,464.5,613.1z"/>
	<path class="st3" d="M468.5,618.3h3v-8.8c0-0.4,0-0.8,0-0.8l0,0c0,0-0.2,0.3-0.6,0.8l-1.3,1.3l-1.2-1.2l3.3-3.2h1.8v12h3v1.7h-7.9
		L468.5,618.3L468.5,618.3z"/>
	<path class="st3" d="M477.5,613.9c0-3.6,1.9-7.8,6.1-7.8c1.6,0,2.6,0.6,2.6,0.6l-0.6,1.6c0,0-0.9-0.4-1.9-0.4
		c-2.5,0-3.8,2.3-4.1,4.7l0,0c0.6-0.8,1.8-1.3,3-1.3c2.6,0,4.3,1.9,4.3,4.4c0,2.7-1.8,4.6-4.4,4.6
		C479.7,620.2,477.5,617.7,477.5,613.9z M482.5,618.4c1.6,0,2.5-1.2,2.5-2.8s-1-2.8-2.8-2.8c-1.5,0-2.8,0.9-2.8,1.9
		C479.5,616.5,480.8,618.4,482.5,618.4z"/>
</g>
<g>
	<path class="st3" d="M555.3,610.1c0-1.2-0.9-2.1-2.4-2.1c-1.2,0-2.1,0.6-2.1,1.3v0.6H549v-1.1c0-1.8,2.4-2.5,3.9-2.5
		c2.5,0,4.2,1.6,4.2,3.9c0,4.6-6.8,4.7-6.8,7.8c0,0.3,0.2,0.4,0.5,0.4h4.8c0.3,0,0.4-0.2,0.4-0.4v-1h1.8v1.7c0,0.9-0.4,1.2-1.2,1.2
		h-6.9c-1.1,0-1.3-0.5-1.3-1.5C548.5,613.4,555.3,613.7,555.3,610.1z"/>
	<path class="st3" d="M559.6,613.1c0-3.9,1.2-7,4.8-7s4.8,3.1,4.8,7s-1.2,7-4.8,7S559.6,617,559.6,613.1z M567.2,613.1
		c0-2.9-0.6-5.2-2.8-5.2s-2.8,2.3-2.8,5.2s0.6,5.3,2.8,5.3C566.6,618.4,567.2,616.1,567.2,613.1z"/>
	<path class="st3" d="M571.1,618.3h3v-8.7c0-0.4,0-0.8,0-0.8l0,0c0,0-0.2,0.3-0.6,0.8l-1.3,1.2l-1.1-1.2l3.2-3.1h1.7v11.9h2.9v1.6
		h-7.8L571.1,618.3L571.1,618.3z"/>
	<path class="st3" d="M586.3,609.3c0.4-0.8,0.8-1.2,0.8-1.2l0,0c0,0-0.3,0.1-1,0.1H582c-0.3,0-0.4,0.1-0.4,0.4v0.9h-1.8v-1.7
		c0-0.9,0.3-1.2,1.2-1.2h8.2v1.3l-6.5,12.2h-2.1L586.3,609.3z"/>
</g>
<g>
	<path class="st3" d="M689.7,504.3c0,0,1.4,1.6,3.4,1.6c1.3,0,2.3-0.8,2.3-2c0-2.9-6.6-2.4-6.6-6.6c0-2,1.8-3.6,4.4-3.6
		c1.4,0,3.9,0.7,3.9,2.5v1.1h-1.8v-0.6c0-0.7-1-1.2-2.1-1.2c-1.5,0-2.4,0.8-2.4,1.8c0,2.8,6.6,2.1,6.6,6.6c0,2.1-1.6,3.9-4.3,3.9
		c-2.9,0-4.5-2-4.5-2L689.7,504.3z"/>
	<path class="st3" d="M699.5,505.5h1.9v2h-1.9V505.5z"/>
	<path class="st3" d="M709.8,504.3c0,0,1.4,1.6,3.4,1.6c1.3,0,2.3-0.8,2.3-2c0-2.9-6.6-2.4-6.6-6.6c0-2,1.8-3.6,4.4-3.6
		c1.4,0,3.9,0.7,3.9,2.5v1.1h-1.8v-0.6c0-0.7-1-1.2-2.1-1.2c-1.5,0-2.4,0.8-2.4,1.8c0,2.8,6.6,2.1,6.6,6.6c0,2.1-1.6,3.9-4.3,3.9
		c-2.9,0-4.5-2-4.5-2L709.8,504.3z"/>
	<path class="st3" d="M720,499.2h-1.3v-1.5h1.3V495h1.8v2.7h2.3v1.5h-2.3v4.5c0,1.9,1.3,2.2,2.1,2.2c0.3,0,0.4,0,0.4,0v1.7
		c0,0-0.3,0-0.7,0c-1.2,0-3.7-0.4-3.7-3.6v-4.8H720z"/>
	<path class="st3" d="M730.5,497.5c2.7,0,4.2,2,4.2,4.6c0,0.3-0.1,0.8-0.1,0.8h-7.1c0.1,2.1,1.6,3.3,3.4,3.3c1.7,0,2.9-1.1,2.9-1.1
		l0.8,1.3c0,0-1.4,1.4-3.8,1.4c-3.1,0-5.2-2.2-5.2-5.1C725.6,499.5,727.7,497.5,730.5,497.5z M732.8,501.4c-0.1-1.6-1.1-2.5-2.3-2.5
		c-1.4,0-2.6,0.9-2.9,2.5H732.8z"/>
	<path class="st3" d="M737.2,499.2H736v-1.5h1.2v-0.3c0-3.2,2.4-3.6,3.7-3.6c0.4,0,0.7,0.1,0.7,0.1v1.6c0,0-0.2,0-0.5,0
		c-0.7,0-2,0.2-2,2v0.3h2.3v1.5H739v8.2h-1.9v-8.3H737.2z"/>
	<path class="st3" d="M748,501.4h0.4v-0.1c0-1.7-0.6-2.3-2.2-2.3c-0.5,0-1.6,0.1-1.6,0.8v0.6h-1.8v-1c0-1.6,2.4-1.8,3.4-1.8
		c3.2,0,4,1.7,4,3.8v4.1c0,0.3,0.2,0.4,0.4,0.4h0.8v1.6h-1.8c-0.9,0-1.2-0.4-1.2-1.1c0-0.3,0-0.6,0-0.6l0,0c0,0-0.8,1.9-3.1,1.9
		c-1.7,0-3.3-1-3.3-3C742.2,501.6,746.4,501.4,748,501.4z M745.9,506.2c1.6,0,2.6-1.7,2.6-3.1v-0.3H748c-1.4,0-4,0.1-4,1.9
		C744,505.4,744.6,506.2,745.9,506.2z"/>
	<path class="st3" d="M753.6,499.7c0-0.3-0.2-0.4-0.4-0.4h-0.8v-1.6h1.8c0.8,0,1.2,0.4,1.2,1.1v0.4c0,0.3,0,0.6,0,0.6l0,0
		c0.4-0.8,1.5-2.2,3.7-2.2c2.3,0,3.4,1.3,3.4,3.7v4.2c0,0.3,0.2,0.4,0.4,0.4h0.8v1.6h-1.8c-0.9,0-1.2-0.4-1.2-1.2v-4.6
		c0-1.4-0.3-2.4-1.8-2.4s-2.7,1-3.1,2.4c-0.1,0.4-0.2,0.8-0.2,1.3v4.6h-1.9v-7.9H753.6z"/>
	<path class="st3" d="M769.9,497.5c2.9,0,5.3,2.1,5.3,5.1s-2.4,5.1-5.3,5.1c-2.9,0-5.2-2.2-5.2-5.1
		C764.7,499.6,767,497.5,769.9,497.5z M769.9,506.1c1.8,0,3.4-1.5,3.4-3.5s-1.5-3.5-3.4-3.5c-1.8,0-3.3,1.4-3.3,3.5
		C766.6,504.6,768.1,506.1,769.9,506.1z"/>
	<path class="st3" d="M788.7,493.6c4,0,7,3,7,7c0,1.7-0.6,3.3-1.6,4.5l1.6,1.5l-1.2,1.2l-1.6-1.6c-1.2,0.9-2.7,1.4-4.3,1.4
		c-3.9,0-7-3.1-7-7.1C781.7,496.6,784.8,493.6,788.7,493.6z M788.7,505.9c1.8,0,2.9-0.9,2.9-0.9l-1.5-1.5l1.2-1.3l1.5,1.5
		c0.6-0.8,1-2,1-3.2c0-2.9-2.2-5.1-5-5.1s-5,2.2-5,5.1C783.7,503.6,785.9,505.9,788.7,505.9z"/>
	<path class="st3" d="M797.5,505.5h1.9v2h-1.9V505.5z"/>
</g>
<g>
	<path class="st3" d="M843.8,493.5c1.9,0,5.2,0.8,5.2,3v1.4h-1.8v-0.8c0-1.2-2-1.8-3.4-1.8c-2.8,0-5,2.1-5,5.3c0,3,2.2,5.5,5,5.5
		s4.4-1.9,4.4-1.9l1.1,1.4c0,0-2,2.3-5.5,2.3c-4.2,0-7.1-3.2-7.1-7.3C836.8,496.5,839.8,493.5,843.8,493.5z"/>
	<path class="st3" d="M856.7,501.5h0.4v-0.1c0-1.8-0.7-2.4-2.2-2.4c-0.5,0-1.6,0.1-1.6,0.8v0.6h-1.8v-1c0-1.6,2.5-1.9,3.5-1.9
		c3.2,0,4.1,1.7,4.1,3.9v4.3c0,0.3,0.2,0.4,0.4,0.4h0.8v1.6h-1.8c-0.9,0-1.2-0.4-1.2-1.1c0-0.3,0-0.6,0-0.6l0,0c0,0-0.8,2-3.2,2
		c-1.7,0-3.4-1-3.4-3C850.7,501.7,855.1,501.5,856.7,501.5z M854.5,506.4c1.6,0,2.7-1.7,2.7-3.2v-0.3h-0.5c-1.4,0-4.1,0.1-4.1,1.9
		C852.6,505.6,853.3,506.4,854.5,506.4z"/>
	<path class="st3" d="M862.3,504.9c0,0,1.2,1.5,3,1.5c0.9,0,1.7-0.4,1.7-1.3c0-1.8-5.5-1.6-5.5-4.8c0-1.9,1.7-2.8,3.7-2.8
		c1.2,0,3.3,0.4,3.3,1.9v0.9h-1.7v-0.5c0-0.6-0.9-0.9-1.5-0.9c-1.1,0-1.9,0.4-1.9,1.2c0,1.9,5.5,1.5,5.5,4.8c0,1.8-1.6,2.9-3.7,2.9
		c-2.7,0-4-1.8-4-1.8L862.3,504.9z"/>
	<path class="st3" d="M871.5,499.2h-1.3v-1.5h1.3v-2.8h1.9v2.8h2.4v1.5h-2.4v4.6c0,2,1.4,2.3,2.1,2.3c0.3,0,0.5,0,0.5,0v1.7
		c0,0-0.3,0-0.7,0c-1.3,0-3.8-0.4-3.8-3.7V499.2z"/>
	<path class="st3" d="M878.4,499.8c0-0.3-0.2-0.4-0.4-0.4h-0.8v-1.6h1.8c0.9,0,1.3,0.4,1.3,1.2v0.6c0,0.4,0,0.7,0,0.7l0,0
		c0.5-1.5,1.6-2.6,3.2-2.6c0.3,0,0.5,0,0.5,0v1.9c0,0-0.3-0.1-0.6-0.1c-1.2,0-2.4,0.9-2.8,2.4c-0.2,0.6-0.2,1.2-0.2,1.8v4.1h-1.9
		L878.4,499.8L878.4,499.8z"/>
	<path class="st3" d="M890.1,497.4c3,0,5.4,2.2,5.4,5.2s-2.4,5.3-5.4,5.3s-5.4-2.2-5.4-5.3C884.7,499.6,887.1,497.4,890.1,497.4z
		 M890.1,506.3c1.9,0,3.4-1.5,3.4-3.6s-1.5-3.6-3.4-3.6s-3.4,1.5-3.4,3.6C886.6,504.8,888.2,506.3,890.1,506.3z"/>
	<path class="st3" d="M902.3,497.4c1.2,0,3.6,0.5,3.6,2.2v1h-1.7V500c0-0.7-1.1-1-1.9-1c-2,0-3.4,1.5-3.4,3.6c0,2.3,1.7,3.6,3.5,3.6
		c1.9,0,3.1-1.4,3.1-1.4l0.8,1.4c0,0-1.4,1.7-4.1,1.7c-3.1,0-5.3-2.2-5.3-5.2C896.9,499.7,899,497.4,902.3,497.4z"/>
	<path class="st3" d="M908.5,499.8c0-0.3-0.2-0.4-0.4-0.4h-0.8v-1.6h1.9c0.9,0,1.3,0.4,1.3,1.3v6.7c0,0.3,0.2,0.4,0.4,0.4h0.8v1.6
		h-1.9c-0.9,0-1.3-0.4-1.3-1.3V499.8z M908.6,493.7h1.7v2h-1.7V493.7z"/>
	<path class="st3" d="M917.9,497.4c2.8,0,4.3,2.1,4.3,4.7c0,0.3-0.1,0.8-0.1,0.8h-7.3c0.1,2.1,1.7,3.3,3.4,3.3s2.9-1.2,2.9-1.2
		l0.8,1.4c0,0-1.5,1.5-3.9,1.5c-3.2,0-5.3-2.3-5.3-5.2C912.9,499.5,915.1,497.4,917.9,497.4z M920.3,501.5c-0.1-1.7-1.1-2.6-2.4-2.6
		c-1.5,0-2.7,0.9-2.9,2.6H920.3z"/>
	<path class="st3" d="M924.7,495.8c0-0.3-0.2-0.4-0.4-0.4h-0.8v-1.6h1.9c0.9,0,1.3,0.4,1.3,1.3v10.6c0,0.3,0.2,0.4,0.4,0.4h0.8v1.6
		H926c-0.9,0-1.3-0.4-1.3-1.3V495.8z"/>
	<path class="st3" d="M934.5,497.4c3,0,5.4,2.2,5.4,5.2s-2.4,5.3-5.4,5.3s-5.4-2.2-5.4-5.3C929.1,499.6,931.5,497.4,934.5,497.4z
		 M934.5,506.3c1.9,0,3.4-1.5,3.4-3.6s-1.5-3.6-3.4-3.6s-3.4,1.5-3.4,3.6S932.6,506.3,934.5,506.3z"/>
</g>
<g>
	<path class="st3" d="M550.4,495.9c0,0,1.4,1.6,3.4,1.6c1.3,0,2.3-0.8,2.3-2c0-2.8-6.5-2.4-6.5-6.6c0-2,1.8-3.6,4.3-3.6
		c1.4,0,3.8,0.6,3.8,2.5v1.1h-1.8v-0.6c0-0.7-1-1.2-2.1-1.2c-1.4,0-2.4,0.8-2.4,1.8c0,2.7,6.5,2.1,6.5,6.5c0,2.1-1.6,3.8-4.3,3.8
		c-2.9,0-4.5-2-4.5-2L550.4,495.9z"/>
	<path class="st3" d="M560.1,497.1h1.9v2h-1.9V497.1z"/>
	<path class="st3" d="M575.9,485.3c3.2,0,4.8,1.7,4.8,1.7l-1.1,1.4c0,0-1.4-1.3-3.7-1.3c-2.7,0-4.8,2.2-4.8,5.1
		c0,3.1,2.2,5.2,4.9,5.2c2.4,0,3.8-1.7,3.8-1.7v-1.4c0-0.3-0.2-0.4-0.4-0.4h-0.8v-1.6h1.8c0.9,0,1.2,0.4,1.2,1.2v5.4h-1.7v-0.8
		c0-0.3,0-0.6,0-0.6l0,0c0,0-1.5,1.6-4.2,1.6c-3.6,0-6.5-2.8-6.5-7C569.1,488.4,572,485.3,575.9,485.3z"/>
	<path class="st3" d="M584.2,491.4c0-0.3-0.2-0.4-0.4-0.4H583v-1.6h1.8c0.9,0,1.2,0.4,1.2,1.2v6.4c0,0.3,0.2,0.4,0.4,0.4h0.8v1.6
		h-1.8c-0.9,0-1.2-0.4-1.2-1.2V491.4z M584.2,485.6h1.7v1.9h-1.7V485.6z"/>
	<path class="st3" d="M593.5,489.2c2.9,0,5.2,2.1,5.2,5s-2.3,5.1-5.2,5.1s-5.2-2.1-5.2-5.1C588.4,491.3,590.7,489.2,593.5,489.2z
		 M593.5,497.6c1.8,0,3.3-1.4,3.3-3.5c0-2-1.5-3.4-3.3-3.4s-3.3,1.4-3.3,3.4C590.2,496.2,591.7,497.6,593.5,497.6z"/>
	<path class="st3" d="M601,491.4c0-0.3-0.2-0.4-0.4-0.4h-0.8v-1.6h1.8c0.8,0,1.2,0.3,1.2,1.1v0.6c0,0.4,0,0.7,0,0.7l0,0
		c0.5-1.4,1.6-2.5,3-2.5c0.2,0,0.5,0,0.5,0v1.8c0,0-0.2-0.1-0.6-0.1c-1.2,0-2.3,0.8-2.7,2.3c-0.2,0.6-0.2,1.1-0.2,1.7v3.9H601V491.4
		z"/>
	<path class="st3" d="M611.3,489.2c2.4,0,3.1,1.5,3.1,1.5l0,0c0,0,0-0.2,0-0.3c0-0.6,0.3-1,1.1-1h1.8v1.6h-0.8
		c-0.2,0-0.4,0.1-0.4,0.4v7.3c0,3.2-2.4,4.4-4.9,4.4c-1.2,0-2.3-0.3-3.3-0.8l0.6-1.5c0,0,1.2,0.6,2.6,0.6c1.7,0,3-0.7,3-2.7V498
		c0-0.3,0-0.6,0-0.6l0,0c-0.6,0.9-1.5,1.5-2.9,1.5c-2.7,0-4.3-2.1-4.3-4.9C607.1,491.2,608.7,489.2,611.3,489.2z M614.3,494
		c0-2.5-1.2-3.2-2.7-3.2c-1.7,0-2.6,1.2-2.6,3.2s1,3.4,2.8,3.4C613.1,497.3,614.3,496.5,614.3,494z"/>
	<path class="st3" d="M619.5,491.4c0-0.3-0.2-0.4-0.4-0.4h-0.8v-1.6h1.8c0.9,0,1.2,0.4,1.2,1.2v6.4c0,0.3,0.2,0.4,0.4,0.4h0.8v1.6
		h-1.8c-0.9,0-1.2-0.4-1.2-1.2V491.4z M619.5,485.6h1.7v1.9h-1.7V485.6z"/>
	<path class="st3" d="M628.8,489.2c2.9,0,5.2,2.1,5.2,5s-2.3,5.1-5.2,5.1s-5.2-2.1-5.2-5.1C623.7,491.3,626,489.2,628.8,489.2z
		 M628.8,497.6c1.8,0,3.3-1.4,3.3-3.5c0-2-1.5-3.4-3.3-3.4s-3.3,1.4-3.3,3.4C625.5,496.2,627,497.6,628.8,497.6z"/>
	<path class="st3" d="M555.2,508.2c0-0.3-0.2-0.4-0.4-0.4H554v-1.6h1.8c0.9,0,1.2,0.4,1.2,1.2v6.4c0,0.3,0.2,0.4,0.4,0.4h0.8v1.6
		h-1.8c-0.9,0-1.2-0.4-1.2-1.2V508.2z M555.3,502.4h1.7v1.9h-1.7V502.4z"/>
	<path class="st3" d="M560.4,508.2c0-0.3-0.2-0.4-0.4-0.4h-0.8v-1.6h1.8c0.8,0,1.2,0.4,1.2,1.1v0.4c0,0.3,0,0.6,0,0.6l0,0
		c0.4-0.8,1.5-2.2,3.6-2.2c2.3,0,3.3,1.2,3.3,3.7v4.2c0,0.3,0.2,0.4,0.4,0.4h0.8v1.6h-1.8c-0.9,0-1.2-0.4-1.2-1.2v-4.5
		c0-1.4-0.3-2.4-1.8-2.4s-2.7,1-3,2.4c-0.1,0.4-0.2,0.8-0.2,1.3v4.5h-1.8L560.4,508.2L560.4,508.2z"/>
	<path class="st3" d="M577.7,504h-1.2v-1.6h5.7c2.3,0,3.9,1.3,3.9,3.4c0,1.5-0.8,2.5-1.7,2.9l0,0c1.4,0.4,2.2,1.8,2.2,3.3
		c0,2.5-1.9,3.8-4.3,3.8h-3.4c-0.9,0-1.2-0.4-1.2-1.2V504z M582.2,508c1.2,0,1.9-0.9,1.9-2c0-1.2-0.7-2-2-2h-2.6v4H582.2z
		 M580,514.2h2.4c1.4,0,2.3-0.9,2.3-2.3s-0.9-2.3-2.3-2.3h-2.8v4.2C579.6,514,579.8,514.2,580,514.2z"/>
	<path class="st3" d="M593.4,506c2.9,0,5.2,2.1,5.2,5c0,2.9-2.3,5.1-5.2,5.1s-5.2-2.1-5.2-5.1C588.2,508.1,590.5,506,593.4,506z
		 M593.4,514.5c1.8,0,3.3-1.4,3.3-3.5c0-2-1.5-3.4-3.3-3.4s-3.3,1.4-3.3,3.4C590.1,513,591.6,514.5,593.4,514.5z"/>
	<path class="st3" d="M600.7,513.1c0,0,1.1,1.4,2.9,1.4c0.9,0,1.7-0.4,1.7-1.2c0-1.7-5.3-1.5-5.3-4.6c0-1.8,1.6-2.7,3.6-2.7
		c1.2,0,3.2,0.4,3.2,1.9v0.9h-1.7v-0.5c0-0.6-0.9-0.8-1.4-0.8c-1.1,0-1.8,0.4-1.8,1.1c0,1.8,5.3,1.4,5.3,4.6c0,1.7-1.5,2.8-3.5,2.8
		c-2.6,0-3.8-1.7-3.8-1.7L600.7,513.1z"/>
	<path class="st3" d="M613.8,506c1.2,0,3.5,0.5,3.5,2.1v1h-1.7v-0.5c0-0.7-1.1-1-1.8-1c-1.9,0-3.3,1.4-3.3,3.4
		c0,2.2,1.6,3.4,3.4,3.4c1.8,0,3-1.3,3-1.3l0.8,1.3c0,0-1.4,1.7-3.9,1.7c-3,0-5.1-2.1-5.1-5C608.6,508.2,610.7,506,613.8,506z"/>
	<path class="st3" d="M623.9,506c2.9,0,5.2,2.1,5.2,5c0,2.9-2.3,5.1-5.2,5.1s-5.2-2.1-5.2-5.1C618.8,508.1,621.1,506,623.9,506z
		 M623.9,514.5c1.8,0,3.3-1.4,3.3-3.5c0-2-1.5-3.4-3.3-3.4s-3.3,1.4-3.3,3.4C620.6,513,622.1,514.5,623.9,514.5z"/>
</g>
</svg>
