<?xml version="1.0" encoding="utf-8"?>
<!-- Generator: Adobe Illustrator 23.0.0, SVG Export Plug-In . SVG Version: 6.00 Build 0)  -->
<svg version="1.1" id="Livello_1" xmlns="http://www.w3.org/2000/svg" xmlns:xlink="http://www.w3.org/1999/xlink" x="0px" y="0px"
	 viewBox="0 0 214.4 103.2" style="enable-background:new 0 0 214.4 103.2;" xml:space="preserve">
<style type="text/css">
	.st0{fill-rule:evenodd;clip-rule:evenodd;fill:#FFFFFF;}
	.st1{fill-rule:evenodd;clip-rule:evenodd;fill:#8C9091;}
	.st2{fill:#FFFFFF;}
	.st3{fill:#095540;}
</style>
<g id="XMLID_103_">
	<g id="XMLID_124_">
		<g id="XMLID_125_">
			<g id="XMLID_133_">
				<g id="XMLID_134_">
					<g id="XMLID_135_">
						<g>
							<path class="st0" d="M107.6,13L81.1,52.5H92l14.5-21.1c0,0,0.5-0.7,1.2-0.7c0.7,0,1.2,0.7,1.2,0.7l14.5,21.1h10.9L107.6,13z"
								/>
						</g>
					</g>
				</g>
			</g>
			<g id="XMLID_126_">
				<g id="XMLID_128_">
					<g id="XMLID_129_">
						<g>
							<path class="st1" d="M107.6,13L81.1,52.5H92l14.5-21.1c0,0,0.5-0.7,1.2-0.7c0.7,0,1.2,0.7,1.2,0.7l14.5,21.1h10.9L107.6,13z"
								/>
						</g>
					</g>
				</g>
				<path id="XMLID_127_" class="st2" d="M110.5,26l-1.7-2.5c0,0-0.5-0.7-1.2-0.7c-0.7,0-1.2,0.7-1.2,0.7l-1.7,2.5h-3.6l6.5-9.4
					l6.5,9.4H110.5z"/>
			</g>
		</g>
	</g>
	<g id="XMLID_104_">
		<path id="XMLID_120_" class="st3" d="M195.4,90.9c0,0-4.1-28.6-4.7-32c0,0,0-0.1,0-0.1c-0.6-3.5-3.4-6.2-6.8-6.2
			c-3.5,0-6.4,2.8-6.9,6.4c0,0,0,0,0,0c0,0.1-0.1,0.3-0.1,0.4c-0.8,4.1-5.2,31.5-5.2,31.5l3.8,0c0,0,0.7-4.7,1.6-10.5
			c0-0.1,0-0.2,0.1-0.3c0.1-0.5,0.5-1,1.1-1c0.8,0,2.9,0,3.9,0c0.5,0,2.3,0,3,0c0.8,0,1.1,0.3,1.4,1.2c0.9,5.8,1.6,10.6,1.6,10.6
			H195.4z M184.7,75.5h-5.5c-0.6,0-1.2-0.6-1.1-1.3l0,0c1.1-7,2.1-13.7,2.2-14c0.2-1,0.9-1.7,1.7-1.7c0.8,0,1.5,0.7,1.7,1.7
			c0.1,0.5,1.1,7.1,2.2,14.1C185.7,75,185.2,75.5,184.7,75.5z"/>
		<path id="XMLID_115_" class="st3" d="M197.8,87.2c0.1-0.3,0.3-0.6,0.6-0.8c0.2-0.2,0.5-0.4,0.9-0.6c0.3-0.1,0.7-0.2,1-0.2
			c0.4,0,0.7,0.1,1,0.2c0.3,0.1,0.6,0.3,0.9,0.6c0.2,0.2,0.4,0.5,0.6,0.8c0.1,0.3,0.2,0.7,0.2,1.1c0,0.4-0.1,0.7-0.2,1.1
			c-0.1,0.3-0.3,0.6-0.6,0.9c-0.2,0.2-0.5,0.4-0.9,0.6c-0.3,0.1-0.7,0.2-1,0.2c-0.4,0-0.7-0.1-1-0.2c-0.3-0.1-0.6-0.3-0.9-0.6
			c-0.2-0.2-0.4-0.5-0.6-0.9c-0.1-0.3-0.2-0.7-0.2-1.1C197.6,87.8,197.7,87.5,197.8,87.2 M198.2,89.1c0.1,0.3,0.3,0.5,0.5,0.7
			c0.2,0.2,0.4,0.4,0.7,0.5c0.3,0.1,0.6,0.2,0.9,0.2c0.3,0,0.6-0.1,0.9-0.2c0.3-0.1,0.5-0.3,0.7-0.5c0.2-0.2,0.4-0.4,0.5-0.7
			c0.1-0.3,0.2-0.6,0.2-0.9c0-0.3-0.1-0.6-0.2-0.9c-0.1-0.3-0.3-0.5-0.5-0.7c-0.2-0.2-0.4-0.4-0.7-0.5c-0.3-0.1-0.6-0.2-0.9-0.2
			c-0.3,0-0.6,0.1-0.9,0.2c-0.3,0.1-0.5,0.3-0.7,0.5c-0.2,0.2-0.4,0.4-0.5,0.7c-0.1,0.3-0.2,0.6-0.2,0.9
			C198.1,88.5,198.1,88.8,198.2,89.1 M200.5,86.7c0.4,0,0.6,0.1,0.8,0.2c0.2,0.1,0.3,0.4,0.3,0.7c0,0.3-0.1,0.5-0.2,0.6
			c-0.2,0.1-0.4,0.2-0.6,0.2l0.9,1.4h-0.5l-0.9-1.3h-0.5v1.3h-0.5v-3.1H200.5z M200.2,88c0.1,0,0.2,0,0.3,0c0.1,0,0.2,0,0.3-0.1
			c0.1,0,0.1-0.1,0.2-0.2c0-0.1,0.1-0.2,0.1-0.3c0-0.1,0-0.2-0.1-0.3c0-0.1-0.1-0.1-0.2-0.1c-0.1,0-0.1-0.1-0.2-0.1
			c-0.1,0-0.2,0-0.2,0h-0.6v1H200.2z"/>
		<rect id="XMLID_114_" x="81.1" y="57.8" class="st3" width="6.2" height="31.2"/>
		<rect id="XMLID_112_" x="128" y="57.8" class="st3" width="6.2" height="31.2"/>
		<path id="XMLID_111_" class="st3" d="M37.7,87.8l-3.3,0l-1.4,0c-2.7,0-5-2.4-5-5.4c0-0.3,0-0.7,0-1l0-28.9h-6.2v30.2v0.3
			c0,4.3,2.4,7.8,6.5,7.8l12.2,0C39.3,90.1,38.4,89.1,37.7,87.8z"/>
		<path id="XMLID_110_" class="st3" d="M50.5,85.5c-2.7,0-4.9-2.6-4.9-5.8c0-0.4,0-0.7,0-1.1V76c0-0.7,0.6-1.3,1.2-1.3l8.5,0
			l-0.5-3.5h-8.1c-0.6,0-1.1-0.5-1.1-1.2c0,0,0-8.6,0-8.6h9.2l-0.5-3.5H39.4v22.8c0,5.1,2.2,8.4,6.5,8.4h13.8c-0.5-1-1-2.3-1.2-3.5
			c0,0-3.7,0-2.6,0C57.1,85.5,53.2,85.5,50.5,85.5z"/>
		<path id="XMLID_108_" class="st3" d="M77.7,57.8l-3.2,0c0,0-3.8,25.1-3.9,25.6c-0.2,0.8-0.7,1.5-1.4,1.5s-1.2-0.6-1.4-1.5
			c-0.2-0.8-4-25.6-4-25.6h-6c0,0,3.5,23.9,3.9,26.8c0,0,0,0.1,0,0.1c0.5,2.9,2.8,5.2,5.7,5.2c3,0,5.4-2.3,5.8-5.4c0,0,0,0,0,0
			c0-0.1,0.1-0.2,0.1-0.3C74,80.7,77.7,57.8,77.7,57.8z"/>
		<path id="XMLID_107_" class="st3" d="M117.7,61.2l11.5,0l0.1-3.4c-4.1,0-9.4,0-12.4,0c-5.5,0-8.4,4.4-8.4,9.3c0,4.8,3,7.8,7.4,8.9
			c2.2,0.5,4.2,2.4,4.2,5c0,2.6-1.6,4.7-3.9,4.8h-8c-0.7,1.3-1.6,2.4-2.7,3.3H117c4.6-0.4,8.2-4.8,8.2-10c0-5.3-3.1-8.1-8.4-10
			c-2.4-0.9-2.9-2-2.9-3.9C114,62.8,115.7,61.2,117.7,61.2z"/>
		<path id="XMLID_106_" class="st3" d="M98.7,69c-2.4-0.9-2.9-2-2.9-3.9c0-2.2,1.6-3.9,3.6-3.9l7.5,0c0.6-1.1,1.3-2.2,2.2-3.1
			c0.1-0.1,0.2-0.2,0.3-0.3c-3,0-8,0-10.8,0c-5.5,0-8.4,4.4-8.4,9.3c0,4.8,3,7.8,7.4,8.9c2.2,0.5,4.2,2.4,4.2,5
			c0,2.6-1.6,4.7-3.9,4.8H86.1V89h12.7c4.6-0.4,8.2-4.8,8.2-10C107,73.8,103.9,71,98.7,69z"/>
		<path id="XMLID_105_" class="st3" d="M138.9,89l3.4,0l0-25.9c0-0.4,0.3-0.8,0.7-0.8c0.4,0,0.7,0.3,0.7,0.8l3.6,18
			c0.4,2.8,2.4,4.9,4.9,4.9c2.5,0,4.5-2.1,4.9-4.9l3.4-18.1c0.1-0.5,0.5-1,1-1c0.5,0,1,0.5,1,1l0,26h6.2V63.3c0-3.5-2.5-6.3-5.6-6.3
			c-2.8,0-5.1,2.3-5.5,5.4l-3.2,17.5l0,0c0,0.3-0.2,0.5-0.5,0.5c-0.2,0-0.4-0.2-0.5-0.5c-0.1-0.4-2.2-10.6-3.6-17.9
			c-0.5-2.8-2.7-4.9-5.3-4.9c-3,0-5.4,2.7-5.4,6.1V89z"/>
	</g>
</g>
</svg>
