<svg enable-background="new 0 0 214.4 103.2" viewBox="0 0 214.4 103.2" xmlns="http://www.w3.org/2000/svg"><path clip-rule="evenodd" d="m107.6 13-26.5 39.5h10.9l14.5-21.1s.5-.7 1.2-.7 1.2.7 1.2.7l14.5 21.1h10.9z" fill="#fff" fill-rule="evenodd"/><path clip-rule="evenodd" d="m107.6 13-26.5 39.5h10.9l14.5-21.1s.5-.7 1.2-.7 1.2.7 1.2.7l14.5 21.1h10.9z" fill="#8c9091" fill-rule="evenodd"/><path d="m110.5 26-1.7-2.5s-.5-.7-1.2-.7-1.2.7-1.2.7l-1.7 2.5h-3.6l6.5-9.4 6.5 9.4z" fill="#fff"/><g fill="#095540"><path d="m195.4 90.9s-4.1-28.6-4.7-32v-.1c-.6-3.5-3.4-6.2-6.8-6.2-3.5 0-6.4 2.8-6.9 6.4l-.1.4c-.8 4.1-5.2 31.5-5.2 31.5h3.8s.7-4.7 1.6-10.5c0-.1 0-.2.1-.3.1-.5.5-1 1.1-1h6.9c.8 0 1.1.3 1.4 1.2.9 5.8 1.6 10.6 1.6 10.6zm-10.7-15.4h-5.5c-.6 0-1.2-.6-1.1-1.3 1.1-7 2.1-13.7 2.2-14 .2-1 .9-1.7 1.7-1.7s1.5.7 1.7 1.7c.1.5 1.1 7.1 2.2 14.1-.2.7-.7 1.2-1.2 1.2z"/><path d="m197.8 87.2c.1-.3.3-.6.6-.8.2-.2.5-.4.9-.6.3-.1.7-.2 1-.2.4 0 .7.1 1 .2s.6.3.9.6c.2.2.4.5.6.8.1.3.2.7.2 1.1s-.1.7-.2 1.1c-.1.3-.3.6-.6.9-.2.2-.5.4-.9.6-.3.1-.7.2-1 .2-.4 0-.7-.1-1-.2s-.6-.3-.9-.6c-.2-.2-.4-.5-.6-.9-.1-.3-.2-.7-.2-1.1 0-.5.1-.8.2-1.1m.4 1.9c.1.3.3.5.5.7s.4.4.7.5.6.2.9.2.6-.1.9-.2.5-.3.7-.5.4-.4.5-.7.2-.6.2-.9-.1-.6-.2-.9-.3-.5-.5-.7-.4-.4-.7-.5-.6-.2-.9-.2-.6.1-.9.2-.5.3-.7.5-.4.4-.5.7-.2.6-.2.9zm2.3-2.4c.4 0 .6.1.8.2s.3.4.3.7-.1.5-.2.6c-.2.1-.4.2-.6.2l.9 1.4h-.5l-.9-1.3h-.5v1.3h-.5v-3.1zm-.3 1.3h.3c.1 0 .2 0 .3-.1.1 0 .1-.1.2-.2l.1-.3c0-.1 0-.2-.1-.3 0-.1-.1-.1-.2-.1l-.2-.1h-.8v1h.4z"/><path d="m81.1 57.8h6.2v31.2h-6.2z"/><path d="m128 57.8h6.2v31.2h-6.2z"/><path d="m37.7 87.8h-4.7c-2.7 0-5-2.4-5-5.4v-29.9h-6.2v30.5c0 4.3 2.4 7.8 6.5 7.8h12.2c-1.2-.7-2.1-1.7-2.8-3z"/><path d="m50.5 85.5c-2.7 0-4.9-2.6-4.9-5.8v-3.7c0-.7.6-1.3 1.2-1.3h8.5l-.5-3.5h-8.1c-.6 0-1.1-.5-1.1-1.2v-8.6h9.2l-.5-3.5h-14.9v22.8c0 5.1 2.2 8.4 6.5 8.4h13.8c-.5-1-1-2.3-1.2-3.5h-2.6c1.2-.1-2.7-.1-5.4-.1z"/><path d="m77.7 57.8h-3.2s-3.8 25.1-3.9 25.6c-.2.8-.7 1.5-1.4 1.5s-1.2-.6-1.4-1.5c-.2-.8-4-25.6-4-25.6h-6s3.5 23.9 3.9 26.8v.1c.5 2.9 2.8 5.2 5.7 5.2 3 0 5.4-2.3 5.8-5.4l.1-.3c.7-3.5 4.4-26.4 4.4-26.4z"/><path d="m117.7 61.2h11.5l.1-3.4h-12.4c-5.5 0-8.4 4.4-8.4 9.3 0 4.8 3 7.8 7.4 8.9 2.2.5 4.2 2.4 4.2 5s-1.6 4.7-3.9 4.8h-8c-.7 1.3-1.6 2.4-2.7 3.3h11.5c4.6-.4 8.2-4.8 8.2-10 0-5.3-3.1-8.1-8.4-10-2.4-.9-2.9-2-2.9-3.9.1-2.4 1.8-4 3.8-4z"/><path d="m98.7 69c-2.4-.9-2.9-2-2.9-3.9 0-2.2 1.6-3.9 3.6-3.9h7.5c.6-1.1 1.3-2.2 2.2-3.1l.3-.3h-10.8c-5.5 0-8.4 4.4-8.4 9.3 0 4.8 3 7.8 7.4 8.9 2.2.5 4.2 2.4 4.2 5s-1.6 4.7-3.9 4.8h-11.8v3.2h12.7c4.6-.4 8.2-4.8 8.2-10s-3.1-8-8.3-10z"/><path d="m138.9 89h3.4v-25.9c0-.4.3-.8.7-.8s.7.3.7.8l3.6 18c.4 2.8 2.4 4.9 4.9 4.9s4.5-2.1 4.9-4.9l3.4-18.1c.1-.5.5-1 1-1s1 .5 1 1v26h6.2v-25.7c0-3.5-2.5-6.3-5.6-6.3-2.8 0-5.1 2.3-5.5 5.4l-3.2 17.5c0 .3-.2.5-.5.5-.2 0-.4-.2-.5-.5-.1-.4-2.2-10.6-3.6-17.9-.5-2.8-2.7-4.9-5.3-4.9-3 0-5.4 2.7-5.4 6.1v25.8z"/></g></svg>