<?xml version="1.0" encoding="utf-8"?>
<!-- Generator: Adobe Illustrator 23.0.0, SVG Export Plug-In . SVG Version: 6.00 Build 0)  -->
<svg version="1.1" id="Livello_1" xmlns="http://www.w3.org/2000/svg" xmlns:xlink="http://www.w3.org/1999/xlink" x="0px" y="0px"
	 viewBox="0 0 797.3 379.3" style="enable-background:new 0 0 797.3 379.3;" xml:space="preserve">
<style type="text/css">
	.st0{fill-rule:evenodd;clip-rule:evenodd;fill:#C0B07F;}
	.st1{fill:#4E5594;}
	.st2{fill-rule:evenodd;clip-rule:evenodd;fill:#4E5594;}
	.st3{fill-rule:evenodd;clip-rule:evenodd;fill:#FFFFFF;}
	.st4{fill:#FFFFFF;}
</style>
<path class="st0" d="M401.5,18.7L401.5,18.7c56.6,0,102.5,45.9,102.5,102.5v138.7c0,56.6-45.9,102.5-102.5,102.5l0,0
	c-56.6,0-102.5-45.9-102.5-102.5V121.2C299,64.6,344.9,18.7,401.5,18.7z"/>
<path class="st1" d="M278.6,65l-0.5,0.7l0.9,0.6l0.5-0.7L278.6,65z"/>
<path class="st1" d="M134.7,49.9c0.3,0.6,1,1,1.6,0.7l0,0c0.7-0.3,1-1,0.7-1.7l0,0c-0.2-0.6-1-0.9-1.6-0.7l0,0c0,0,0,0,0,0l0,0
	C134.7,48.5,134.4,49.3,134.7,49.9z M128.2,51.4c-0.7,0.3-0.9,1.1-0.6,1.7l0,0c0.3,0.6,1,0.9,1.7,0.6l0,0c0.6-0.3,0.9-1.1,0.6-1.7
	l0,0C129.6,51.4,128.9,51.1,128.2,51.4L128.2,51.4C128.2,51.4,128.2,51.4,128.2,51.4z M141.9,47.1c0.2,0.7,0.9,1,1.6,0.8l0,0
	c0.7-0.2,1-0.9,0.8-1.6l0,0c-0.2-0.6-1-1-1.6-0.8l0,0c0,0-0.1,0-0.1,0l0,0C142,45.7,141.7,46.4,141.9,47.1z M121.2,54.9
	c-0.6,0.4-0.8,1.1-0.5,1.7l0,0c0.3,0.6,1.1,0.9,1.7,0.5l0,0c0.6-0.4,0.8-1.1,0.5-1.7l0,0c-0.3-0.6-1-0.8-1.6-0.6l0,0
	C121.3,54.9,121.3,54.9,121.2,54.9z M149.3,44.6c0.2,0.7,0.9,1.1,1.6,0.9l0,0c0.7-0.2,1-0.9,0.9-1.6l0,0c-0.2-0.7-0.9-1.1-1.6-0.9
	l0,0l0,0l0,0c-0.1,0-0.1,0-0.1,0.1l0,0C149.4,43.4,149.1,44,149.3,44.6z M114.4,58.8L114.4,58.8L114.4,58.8
	c-0.6,0.3-0.8,1.1-0.4,1.8l0,0c0.3,0.6,1.1,0.8,1.8,0.4l0,0c0.6-0.4,0.8-1.2,0.4-1.8l0,0c-0.3-0.5-1-0.8-1.6-0.5l0,0
	C114.5,58.7,114.5,58.8,114.4,58.8z M156.8,42.6c0.1,0.7,0.8,1.1,1.5,0.9l0,0c0.7-0.2,1.1-0.8,1-1.5l0,0c-0.2-0.7-0.8-1.1-1.5-0.9
	l0,0c-0.1,0-0.1,0-0.2,0l0,0C156.9,41.3,156.6,42,156.8,42.6z M107.8,63.1C107.8,63.1,107.8,63.1,107.8,63.1L107.8,63.1
	c-0.6,0.4-0.7,1.2-0.3,1.8l0,0c0.4,0.6,1.2,0.7,1.8,0.3l0,0c0.6-0.4,0.7-1.2,0.3-1.8l0,0c-0.3-0.5-1-0.7-1.5-0.5l0,0
	C108,63,107.9,63,107.8,63.1z M164.3,40.9c0.1,0.7,0.8,1.2,1.5,1l0,0c0.7-0.1,1.2-0.8,1-1.5l0,0c-0.1-0.7-0.8-1.2-1.5-1l0,0
	c-0.1,0-0.2,0-0.2,0.1l0,0C164.5,39.7,164.2,40.3,164.3,40.9z M101.5,67.6L101.5,67.6L101.5,67.6c-0.6,0.4-0.7,1.2-0.2,1.8l0,0
	c0.4,0.6,1.2,0.7,1.8,0.2l0,0c0.5-0.4,0.7-1.2,0.2-1.8l0,0c-0.4-0.5-1-0.6-1.5-0.4l0,0C101.7,67.5,101.6,67.6,101.5,67.6z M172,39.7
	c0.1,0.7,0.7,1.2,1.4,1.1l0,0c0.7-0.1,1.2-0.7,1.1-1.4l0,0c-0.1-0.7-0.7-1.2-1.4-1.1l0,0c-0.1,0-0.2,0.1-0.3,0.1l0,0
	C172.2,38.6,171.9,39.1,172,39.7z M95.4,72.5c-0.5,0.5-0.6,1.3-0.2,1.8l0,0c0.5,0.6,1.3,0.6,1.8,0.2l0,0c0.5-0.5,0.6-1.3,0.1-1.8
	l0,0c-0.4-0.4-1-0.5-1.5-0.3l0,0C95.6,72.4,95.5,72.4,95.4,72.5z M179.7,38.8c0.1,0.7,0.7,1.2,1.4,1.2l0,0c0.7,0,1.2-0.7,1.2-1.4
	l0,0c-0.1-0.7-0.7-1.2-1.4-1.2l0,0c-0.2,0-0.3,0-0.4,0.1l0,0C180,37.7,179.7,38.2,179.7,38.8z M187.4,38.3c0,0.7,0.6,1.2,1.3,1.2
	l0,0c0.7,0,1.2-0.6,1.2-1.3l0,0c0-0.7-0.6-1.2-1.3-1.2l0,0c-0.2,0-0.3,0.1-0.5,0.1l0,0C187.8,37.3,187.4,37.8,187.4,38.3z
	 M195.2,38.3c0,0.7,0.5,1.3,1.2,1.3l0,0c0.7,0,1.3-0.5,1.3-1.2l0,0c0-0.7-0.5-1.3-1.2-1.3l0,0c-0.2,0-0.4,0-0.5,0.1l0,0
	C195.5,37.3,195.2,37.7,195.2,38.3z M202.9,38.6c0,0.7,0.5,1.3,1.2,1.4l0,0c0.7,0.1,1.3-0.5,1.4-1.2l0,0c0-0.7-0.5-1.3-1.2-1.4l0,0
	l0,0l0,0c-0.2,0-0.4,0-0.6,0.1l0,0C203.3,37.7,203,38.1,202.9,38.6z M210.7,39.3c-0.1,0.7,0.4,1.4,1.1,1.4l0,0
	c0.7,0.1,1.3-0.4,1.4-1.1l0,0c0.1-0.7-0.4-1.3-1.1-1.4l0,0l0,0l0,0c-0.2,0-0.5,0-0.7,0.1l0,0C211,38.5,210.7,38.9,210.7,39.3z
	 M218.3,40.5c-0.1,0.7,0.4,1.3,1,1.5l0,0c0.7,0.1,1.4-0.3,1.5-1l0,0c0.1-0.7-0.3-1.4-1-1.5l0,0c-0.2,0-0.5,0-0.7,0.1l0,0
	C218.7,39.7,218.4,40,218.3,40.5z M226,42c-0.2,0.7,0.3,1.4,0.9,1.5l0,0c0.7,0.2,1.4-0.3,1.5-0.9l0,0c0.2-0.7-0.3-1.4-0.9-1.5l0,0
	l0,0l0,0c-0.3-0.1-0.6,0-0.8,0.1l0,0C226.3,41.3,226.1,41.6,226,42z M233.5,43.9c-0.2,0.7,0.2,1.4,0.9,1.6l0,0
	c0.7,0.2,1.4-0.2,1.6-0.9l0,0c0.2-0.7-0.2-1.4-0.9-1.6l0,0c-0.3-0.1-0.6-0.1-0.8,0l0,0C233.9,43.2,233.6,43.5,233.5,43.9z
	 M240.9,46.2c-0.3,0.7,0.1,1.4,0.8,1.6l0,0c0.7,0.2,1.4-0.1,1.6-0.8l0,0c0.2-0.7-0.1-1.4-0.8-1.6l0,0c-0.3-0.1-0.6-0.1-0.9,0l0,0
	C241.3,45.6,241,45.9,240.9,46.2z M248.1,48.9c-0.3,0.7,0,1.4,0.7,1.7l0,0c0.7,0.3,1.4,0,1.7-0.7l0,0c0.3-0.7,0-1.4-0.7-1.7l0,0
	c-0.3-0.1-0.7-0.1-1,0l0,0C248.5,48.4,248.3,48.6,248.1,48.9z M255.3,52c-0.3,0.6,0,1.4,0.6,1.7l0,0c0.6,0.3,1.4,0,1.7-0.6l0,0
	c0.3-0.7,0-1.4-0.6-1.7l0,0l0,0l0,0c-0.3-0.2-0.7-0.2-1.1,0l0,0C255.6,51.5,255.4,51.7,255.3,52z M262.2,55.5
	c-0.3,0.6-0.1,1.4,0.5,1.7l0,0c0.6,0.3,1.4,0.1,1.7-0.5l0,0c0.4-0.6,0.1-1.4-0.5-1.7l0,0c-0.4-0.2-0.8-0.2-1.1-0.1l0,0
	C262.6,55,262.4,55.2,262.2,55.5z M269,59.3c-0.4,0.6-0.2,1.4,0.4,1.7l0,0c0.6,0.3,1.4,0.2,1.7-0.4l0,0c0.4-0.6,0.2-1.4-0.4-1.7l0,0
	l0,0l0,0c-0.4-0.2-0.8-0.3-1.2-0.1l0,0C269.3,58.8,269.1,59,269,59.3z"/>
<path class="st1" d="M84.1,83.1C84.1,83.1,84.1,83.1,84.1,83.1L84.1,83.1c-0.5,0.5-0.5,1.3,0,1.8l0,0c0.5,0.5,1.3,0.5,1.8,0l0,0
	c0.5-0.5,0.5-1.3,0-1.8l0,0c-0.4-0.4-0.9-0.5-1.4-0.3l0,0C84.3,82.9,84.2,83,84.1,83.1z M78.9,88.7c-0.5,0.5-0.4,1.3,0.1,1.8l0,0
	c0.6,0.5,1.4,0.4,1.8-0.1l0,0c0.5-0.5,0.4-1.4-0.1-1.8l0,0c-0.4-0.3-0.9-0.4-1.3-0.2l0,0C79.2,88.4,79.1,88.6,78.9,88.7z M74.1,94.6
	c-0.4,0.6-0.3,1.4,0.2,1.8l0,0c0.5,0.4,1.3,0.3,1.8-0.2l0,0c0.4-0.5,0.3-1.3-0.2-1.8l0,0c-0.4-0.3-0.9-0.4-1.3-0.2l0,0
	C74.4,94.3,74.2,94.4,74.1,94.6z M69.5,100.7c-0.4,0.6-0.2,1.4,0.3,1.8l0,0c0.6,0.4,1.4,0.3,1.8-0.3l0,0c0.4-0.6,0.3-1.4-0.3-1.8
	l0,0c-0.4-0.2-0.8-0.3-1.2-0.1l0,0C69.8,100.3,69.6,100.5,69.5,100.7z M65.3,107c-0.4,0.6-0.2,1.4,0.4,1.8l0,0
	c0.6,0.4,1.4,0.2,1.8-0.4l0,0c0.4-0.6,0.2-1.4-0.4-1.8l0,0c-0.4-0.2-0.8-0.2-1.2-0.1l0,0C65.6,106.6,65.4,106.8,65.3,107z
	 M61.3,113.6L61.3,113.6L61.3,113.6c-0.4,0.6-0.1,1.4,0.5,1.7l0,0c0.6,0.4,1.4,0.1,1.8-0.5l0,0c0.4-0.6,0.1-1.4-0.5-1.7l0,0
	c-0.4-0.2-0.8-0.2-1.1-0.1l0,0C61.7,113.1,61.5,113.3,61.3,113.6z M57.7,120.3c-0.3,0.6,0,1.4,0.6,1.7l0,0c0.6,0.3,1.4,0.1,1.7-0.6
	l0,0c0.3-0.6,0.1-1.4-0.6-1.7l0,0c-0.3-0.2-0.7-0.2-1.1,0l0,0C58.1,119.8,57.9,120,57.7,120.3z M54.5,127.2L54.5,127.2L54.5,127.2
	c-0.3,0.6,0,1.4,0.7,1.7l0,0c0.6,0.3,1.4,0,1.7-0.7l0,0c0.3-0.7,0-1.4-0.7-1.7l0,0c-0.3-0.1-0.7-0.2-1,0l0,0
	C54.9,126.7,54.7,126.9,54.5,127.2z M51.7,134.3L51.7,134.3L51.7,134.3c-0.3,0.7,0.1,1.4,0.7,1.6l0,0c0.6,0.2,1.4-0.1,1.6-0.7l0,0
	c0.3-0.7-0.1-1.4-0.7-1.6l0,0c-0.3-0.1-0.6-0.1-0.9,0l0,0C52.1,133.7,51.8,133.9,51.7,134.3z M49.1,141.5c-0.2,0.7,0.1,1.4,0.8,1.6
	l0,0c0.7,0.2,1.4-0.2,1.6-0.8l0,0c0.2-0.7-0.2-1.4-0.8-1.6l0,0c-0.3-0.1-0.6-0.1-0.9,0l0,0C49.5,140.8,49.3,141.1,49.1,141.5z
	 M47,148.8c-0.2,0.7,0.2,1.4,0.9,1.5l0,0c0.7,0.2,1.4-0.2,1.5-0.9l0,0c0.2-0.7-0.2-1.4-0.9-1.6l0,0c-0.3,0-0.6,0-0.8,0.1l0,0
	C47.4,148.1,47.1,148.4,47,148.8z M45.2,156.2c-0.1,0.7,0.3,1.4,1,1.5l0,0c0.7,0.2,1.3-0.3,1.5-1l0,0c0.2-0.7-0.3-1.4-1-1.5l0,0
	c-0.2,0-0.5,0-0.7,0.1l0,0C45.6,155.4,45.3,155.8,45.2,156.2z M43.9,163.7c-0.1,0.7,0.4,1.4,1,1.5l0,0c0.7,0.1,1.3-0.4,1.5-1l0,0
	c0.1-0.7-0.4-1.3-1-1.5l0,0c-0.2,0-0.5,0-0.7,0.1l0,0C44.2,162.9,43.9,163.3,43.9,163.7z M42.8,171.3L42.8,171.3L42.8,171.3
	c-0.1,0.7,0.4,1.3,1.1,1.4l0,0c0.7,0.1,1.3-0.4,1.4-1.1l0,0c0-0.7-0.5-1.3-1.2-1.4l0,0c-0.2,0-0.4,0-0.6,0.1l0,0
	C43.2,170.4,42.9,170.8,42.8,171.3z M42.2,178.8c0,0.7,0.5,1.3,1.2,1.4l0,0c0.7,0,1.3-0.5,1.3-1.2l0,0c0-0.7-0.5-1.3-1.2-1.4l0,0
	c-0.2,0-0.4,0-0.5,0.1l0,0C42.6,177.9,42.2,178.3,42.2,178.8z M42,186.5c0,0.7,0.6,1.3,1.3,1.3l0,0c0.7,0,1.3-0.6,1.3-1.3l0,0
	c0-0.7-0.6-1.3-1.3-1.3l0,0c-0.2,0-0.3,0-0.5,0.1l0,0C42.3,185.5,42,185.9,42,186.5z M42.1,194c0,0.7,0.6,1.3,1.3,1.2l0,0
	c0.7,0,1.2-0.6,1.2-1.3l0,0c0-0.7-0.6-1.2-1.3-1.2l0,0c-0.2,0-0.3,0-0.4,0.1l0,0C42.4,193,42.1,193.5,42.1,194z M42.6,201.6
	c0.1,0.7,0.7,1.2,1.4,1.1l0,0c0.7-0.1,1.2-0.7,1.1-1.4l0,0c-0.1-0.7-0.7-1.2-1.4-1.1l0,0c-0.1,0-0.3,0-0.4,0.1l0,0
	C42.9,200.6,42.6,201.1,42.6,201.6z M43.5,209.2c0.1,0.7,0.8,1.2,1.5,1.1l0,0c0.7-0.1,1.2-0.8,1.1-1.5l0,0c-0.1-0.7-0.7-1.2-1.4-1.1
	l0,0c-0.1,0-0.2,0.1-0.3,0.1l0,0C43.8,208.1,43.4,208.6,43.5,209.2z M44.8,216.7c0.1,0.7,0.8,1.1,1.5,1l0,0c0.7-0.1,1.1-0.8,1-1.5
	l0,0c-0.1-0.7-0.8-1.1-1.5-1l0,0c-0.1,0-0.2,0-0.2,0.1l0,0C45,215.5,44.7,216.1,44.8,216.7z M46.5,224.1L46.5,224.1L46.5,224.1
	c0.2,0.7,0.9,1.1,1.6,0.9l0,0c0.7-0.2,1.1-0.9,0.9-1.6l0,0c-0.2-0.7-0.9-1.1-1.5-0.9l0,0c-0.1,0-0.1,0-0.2,0.1l0,0
	C46.7,222.9,46.3,223.5,46.5,224.1z M48.5,231.5L48.5,231.5L48.5,231.5c0.2,0.7,0.9,1,1.6,0.8l0,0c0.7-0.2,1-0.9,0.9-1.6l0,0
	c-0.2-0.7-0.9-1.1-1.6-0.9l0,0c0,0-0.1,0-0.1,0l0,0C48.6,230.2,48.3,230.8,48.5,231.5z M50.9,238.7c0.2,0.6,0.9,1,1.6,0.7l0,0
	c0.7-0.2,1-1,0.8-1.6l0,0c-0.2-0.6-1-1-1.6-0.7l0,0c0,0,0,0-0.1,0l0,0C51,237.3,50.7,238,50.9,238.7z M53.7,245.8
	c0.3,0.7,1,1,1.7,0.7l0,0c0.7-0.3,1-1,0.7-1.7l0,0c-0.3-0.7-1-1-1.7-0.7l0,0C53.7,244.4,53.4,245.1,53.7,245.8z M57.4,251
	c-0.6,0.3-0.9,1.1-0.6,1.7l0,0c0,0,0,0,0,0l0,0c0.3,0.6,1.1,0.9,1.7,0.6l0,0c0.6-0.3,0.9-1.1,0.6-1.7l0,0
	C58.8,251,58.1,250.7,57.4,251L57.4,251C57.4,251,57.4,251,57.4,251z M60.8,257.7c-0.6,0.4-0.8,1.1-0.5,1.7l0,0l0,0l0,0
	c0.4,0.6,1.1,0.8,1.7,0.5l0,0c0.6-0.3,0.9-1.1,0.5-1.7l0,0c-0.3-0.6-1-0.8-1.6-0.5l0,0C60.9,257.7,60.8,257.7,60.8,257.7z
	 M64.6,264.3c-0.6,0.4-0.8,1.1-0.4,1.7l0,0c0.4,0.6,1.1,0.8,1.7,0.4l0,0c0.6-0.4,0.8-1.1,0.4-1.7l0,0c-0.4-0.6-1-0.8-1.6-0.5l0,0
	C64.7,264.2,64.6,264.3,64.6,264.3z M68.6,270.6c-0.6,0.4-0.7,1.2-0.3,1.8l0,0c0.4,0.6,1.2,0.7,1.8,0.3l0,0c0.6-0.4,0.7-1.2,0.3-1.7
	l0,0c-0.3-0.5-1-0.7-1.5-0.5l0,0C68.7,270.6,68.7,270.6,68.6,270.6z M73,276.8c-0.6,0.4-0.7,1.2-0.2,1.8l0,0
	c0.4,0.5,1.2,0.6,1.8,0.2l0,0c0.6-0.4,0.7-1.2,0.2-1.8l0,0c-0.4-0.5-1-0.6-1.5-0.4l0,0C73.2,276.7,73.1,276.7,73,276.8z M77.7,282.7
	c-0.5,0.5-0.6,1.3-0.1,1.8l0,0c0.5,0.5,1.3,0.6,1.8,0.2l0,0c0.5-0.5,0.6-1.3,0.2-1.8l0,0c-0.4-0.4-1-0.5-1.5-0.3l0,0
	C77.9,282.6,77.8,282.6,77.7,282.7z"/>
<path class="st1" d="M88.1,293.9c-0.5,0.5-0.5,1.3,0,1.8l0,0l0,0l0,0c0.5,0.5,1.3,0.5,1.8,0l0,0c0.5-0.5,0.5-1.3,0-1.8l0,0
	c-0.4-0.3-0.9-0.4-1.4-0.2l0,0C88.4,293.7,88.2,293.8,88.1,293.9z M93.7,299.2c-0.5,0.5-0.4,1.3,0.1,1.8l0,0
	c0.5,0.5,1.3,0.4,1.8-0.1l0,0c0.5-0.5,0.4-1.3-0.1-1.8l0,0c-0.4-0.3-0.9-0.4-1.3-0.2l0,0C94,298.9,93.9,299.1,93.7,299.2z
	 M99.7,304.2c-0.4,0.6-0.3,1.4,0.2,1.8l0,0c0.5,0.4,1.3,0.3,1.8-0.2l0,0c0.4-0.6,0.3-1.3-0.2-1.8l0,0c-0.4-0.3-0.8-0.3-1.2-0.2l0,0
	C100,303.9,99.8,304,99.7,304.2z M105.8,308.8c-0.4,0.6-0.2,1.4,0.3,1.8l0,0c0.6,0.4,1.4,0.3,1.8-0.3l0,0c0.4-0.6,0.3-1.4-0.3-1.8
	l0,0c-0.4-0.2-0.8-0.3-1.2-0.1l0,0C106.2,308.5,106,308.6,105.8,308.8z M112.3,313.1c-0.4,0.6-0.2,1.4,0.4,1.8l0,0l0,0l0,0
	c0.6,0.4,1.4,0.2,1.8-0.4l0,0c0.4-0.6,0.2-1.4-0.4-1.8l0,0c-0.4-0.2-0.8-0.2-1.2-0.1l0,0C112.6,312.7,112.4,312.9,112.3,313.1z
	 M118.9,317.1c-0.3,0.6-0.1,1.4,0.5,1.7l0,0c0.6,0.3,1.4,0.1,1.7-0.5l0,0c0.4-0.6,0.1-1.4-0.5-1.7l0,0c-0.3-0.2-0.8-0.2-1.1-0.1l0,0
	C119.3,316.6,119,316.8,118.9,317.1z M125.7,320.7c-0.3,0.6,0,1.4,0.6,1.7l0,0c0.6,0.3,1.4,0,1.7-0.6l0,0c0.3-0.6,0.1-1.4-0.6-1.7
	l0,0c-0.3-0.2-0.7-0.2-1.1,0l0,0C126.1,320.2,125.9,320.4,125.7,320.7z M132.7,324c-0.3,0.7,0,1.4,0.7,1.7l0,0
	c0.7,0.3,1.4,0,1.7-0.7l0,0c0.3-0.7,0-1.4-0.7-1.7l0,0c-0.3-0.1-0.7-0.1-1,0l0,0C133.1,323.5,132.9,323.7,132.7,324z M139.9,326.9
	c-0.2,0.6,0.1,1.4,0.7,1.6l0,0c0.7,0.3,1.4-0.1,1.6-0.8l0,0c0.2-0.7-0.1-1.4-0.7-1.6l0,0c-0.3-0.1-0.6-0.1-0.9,0l0,0
	C140.3,326.3,140.1,326.5,139.9,326.9z M147.3,329.4c-0.2,0.7,0.2,1.4,0.8,1.6l0,0c0.7,0.2,1.4-0.2,1.6-0.9l0,0
	c0.2-0.7-0.2-1.4-0.9-1.6l0,0c-0.3-0.1-0.6-0.1-0.9,0.1l0,0C147.7,328.7,147.4,329,147.3,329.4z M154.7,331.5
	c-0.1,0.7,0.2,1.4,0.9,1.6l0,0c0.7,0.1,1.4-0.3,1.6-1l0,0c0.2-0.7-0.3-1.4-0.9-1.5l0,0c-0.3-0.1-0.6,0-0.8,0.1l0,0
	C155.1,330.8,154.8,331.1,154.7,331.5z M162.2,333.3c-0.1,0.7,0.3,1.4,1,1.5l0,0c0.7,0.1,1.3-0.3,1.5-1l0,0c0.1-0.7-0.3-1.3-1-1.5
	l0,0c-0.3-0.1-0.5,0-0.7,0.1l0,0C162.6,332.5,162.3,332.8,162.2,333.3z M169.8,334.6c-0.1,0.7,0.4,1.3,1.1,1.4l0,0l0,0l0,0
	c0.7,0.1,1.4-0.4,1.4-1.1l0,0c0.1-0.7-0.4-1.4-1.1-1.4l0,0c-0.2,0-0.5,0-0.7,0.1l0,0C170.2,333.8,169.9,334.2,169.8,334.6z
	 M177.5,335.6c-0.1,0.7,0.5,1.3,1.1,1.4l0,0l0,0l0,0c0.7,0.1,1.3-0.4,1.4-1.1l0,0c0-0.7-0.5-1.3-1.1-1.4l0,0c-0.2,0-0.4,0-0.6,0.1
	l0,0C177.9,334.7,177.6,335.1,177.5,335.6z M185.2,336.2c0,0.7,0.5,1.3,1.2,1.3l0,0c0.7,0,1.3-0.5,1.3-1.2l0,0
	c0-0.7-0.5-1.3-1.2-1.3l0,0c-0.2,0-0.4,0-0.6,0.1l0,0C185.6,335.2,185.2,335.6,185.2,336.2z M193,336.3c0,0.7,0.6,1.3,1.3,1.3l0,0
	c0.7,0,1.3-0.6,1.3-1.3l0,0c0-0.7-0.6-1.3-1.3-1.3l0,0c-0.2,0-0.3,0-0.5,0.1l0,0C193.3,335.3,193,335.8,193,336.3z M200.7,336.1
	c0,0.7,0.7,1.2,1.3,1.2l0,0l0,0l0,0c0.7-0.1,1.2-0.7,1.2-1.4l0,0c0-0.7-0.6-1.2-1.4-1.2l0,0c-0.1,0-0.3,0-0.4,0.1l0,0
	C201,335,200.7,335.5,200.7,336.1z M208.4,335.4c0.1,0.7,0.7,1.2,1.4,1.1l0,0c0.7-0.1,1.2-0.7,1.1-1.4l0,0c-0.1-0.7-0.7-1.2-1.4-1.1
	l0,0c-0.1,0-0.2,0-0.3,0.1l0,0C208.7,334.3,208.3,334.8,208.4,335.4z M216.1,334.4c0.1,0.7,0.8,1.2,1.4,1.1l0,0
	c0.7-0.1,1.2-0.8,1-1.5l0,0c-0.1-0.7-0.8-1.2-1.4-1l0,0c-0.1,0-0.2,0-0.3,0.1l0,0C216.3,333.2,216,333.8,216.1,334.4z M223.7,333
	c0.2,0.7,0.8,1.1,1.5,0.9l0,0c0.7-0.1,1.1-0.8,1-1.5l0,0c-0.1-0.7-0.8-1.1-1.5-1l0,0c-0.1,0-0.2,0-0.2,0.1l0,0
	C223.9,331.7,223.5,332.3,223.7,333z M267.3,314.6c-0.6,0.4-0.8,1.1-0.5,1.7l0,0c0.3,0.6,1.1,0.8,1.7,0.5l0,0l0,0l0,0
	c0.6-0.3,0.8-1.1,0.5-1.7l0,0c-0.3-0.6-1-0.8-1.6-0.5l0,0C267.4,314.5,267.3,314.6,267.3,314.6z M231.2,331.1
	c0.2,0.7,0.9,1.1,1.6,0.9l0,0c0.7-0.2,1.1-0.9,0.9-1.6l0,0c-0.2-0.7-0.9-1.1-1.6-0.9l0,0c-0.1,0-0.1,0-0.1,0.1l0,0
	C231.4,329.9,231,330.5,231.2,331.1z M260.6,318.3c-0.6,0.3-0.9,1.1-0.5,1.7l0,0c0.3,0.6,1.1,0.9,1.7,0.5l0,0
	c0.6-0.3,0.9-1.1,0.6-1.7l0,0c-0.3-0.6-1-0.8-1.6-0.6l0,0C260.6,318.3,260.6,318.3,260.6,318.3z M238.6,328.9c0.2,0.6,1,1,1.6,0.8
	l0,0c0.7-0.2,1-0.9,0.8-1.6l0,0c-0.2-0.6-0.9-1-1.6-0.8l0,0c0,0-0.1,0-0.1,0l0,0C238.7,327.6,238.4,328.3,238.6,328.9z M253.7,321.7
	c-0.7,0.3-1,1-0.6,1.7l0,0c0.3,0.6,1.1,0.9,1.7,0.6l0,0c0.6-0.3,0.9-1,0.6-1.7l0,0C255.1,321.7,254.3,321.4,253.7,321.7L253.7,321.7
	C253.7,321.7,253.7,321.7,253.7,321.7z M245.9,326.3c0.2,0.6,1,1,1.6,0.7l0,0l0,0l0,0c0.6-0.2,1-1,0.7-1.7l0,0c-0.3-0.6-1-1-1.6-0.7
	l0,0l0,0l0,0C245.9,325,245.6,325.7,245.9,326.3z"/>
<path class="st1" d="M274,310.4c-0.2,0.1-0.3,0.2-0.4,0.3c-0.1,0.1-0.2,0.3-0.3,0.4c-0.1,0.2-0.1,0.3-0.1,0.5c0,0.2,0,0.3,0.1,0.5
	c0.1,0.3,0.4,0.6,0.7,0.7c0.6,0.2,1.4-0.1,1.7-0.7c0.1-0.3,0.1-0.7,0-1c-0.1-0.2-0.2-0.3-0.3-0.4c-0.1-0.1-0.3-0.2-0.4-0.3
	C274.6,310.3,274.3,310.3,274,310.4z"/>
<path class="st1" d="M83.1,288.2c-0.3,0.1-0.6,0.4-0.7,0.7c-0.1,0.3-0.1,0.6,0,0.9c0.1,0.2,0.2,0.3,0.3,0.4c0.1,0.1,0.3,0.2,0.4,0.3
	c0.2,0.1,0.3,0.1,0.5,0.1c0.3,0,0.7-0.1,0.9-0.4c0.1-0.1,0.2-0.3,0.3-0.4c0.1-0.1,0.1-0.3,0.1-0.5c0-0.2,0-0.3-0.1-0.5
	c-0.1-0.3-0.4-0.5-0.7-0.7C83.7,288,83.4,288,83.1,288.2z"/>
<path class="st1" d="M89.9,77.5c-0.2,0.1-0.3,0.2-0.4,0.3c-0.1,0.1-0.2,0.2-0.3,0.4c-0.1,0.2-0.1,0.3-0.1,0.5c0,0.2,0,0.3,0.1,0.5
	c0.1,0.1,0.2,0.3,0.3,0.4c0.1,0.1,0.3,0.2,0.4,0.3c0.6,0.3,1.4-0.1,1.6-0.7c0.1-0.3,0.1-0.7,0-1c-0.1-0.1-0.2-0.3-0.3-0.4
	c-0.1-0.1-0.3-0.2-0.4-0.3c-0.1-0.1-0.3-0.1-0.5-0.1C90.2,77.4,90,77.4,89.9,77.5z"/>
<path class="st1" d="M276.1,62.9c-0.2,0.1-0.3,0.2-0.4,0.3c-0.1,0.1-0.2,0.3-0.3,0.4c-0.1,0.3-0.1,0.7,0,1c0.1,0.1,0.2,0.3,0.3,0.4
	c0.1,0.1,0.3,0.2,0.4,0.3c0.6,0.3,1.4-0.1,1.7-0.7c0-0.1,0.1-0.3,0.1-0.5c0-0.2,0-0.4-0.1-0.5c-0.1-0.3-0.4-0.5-0.7-0.7
	c-0.2-0.1-0.3-0.1-0.5-0.1C276.4,62.9,276.2,62.9,276.1,62.9z"/>
<path class="st1" d="M276.1,62.7c-1.8,1.7-1.9,4.6-0.2,6.4c1.7,1.8,4.6,1.9,6.4,0.2c1.8-1.7,1.9-4.6,0.2-6.4
	C280.8,61,278,61,276.1,62.7"/>
<path class="st1" d="M277.5,309.6l1.5,5l4.4-8.7l-9.7,0.2L277.5,309.6z"/>
<path class="st2" d="M615.8,93.6L615.8,93.6c51.7,0,93.6,41.9,93.6,93.6v1.9c0,51.7-41.9,93.6-93.6,93.6l0,0
	c-51.7,0-93.6-41.9-93.6-93.6v-1.9C522.2,135.5,564.1,93.6,615.8,93.6z"/>
<path class="st1" d="M524.1,65l0.5,0.7l-0.9,0.6l-0.5-0.7L524.1,65z"/>
<path class="st1" d="M668,49.8c-0.3,0.6-1,1-1.6,0.7l0,0c-0.7-0.3-1-1-0.7-1.7l0,0c0.2-0.6,1-0.9,1.6-0.7l0,0c0,0,0,0,0,0l0,0
	C668,48.4,668.3,49.2,668,49.8z M674.5,51.3c0.7,0.3,0.9,1.1,0.6,1.7l0,0c-0.3,0.6-1,0.9-1.7,0.6l0,0c-0.6-0.3-0.9-1.1-0.6-1.7l0,0
	C673.1,51.3,673.8,51.1,674.5,51.3L674.5,51.3C674.5,51.3,674.5,51.3,674.5,51.3z M660.8,47c-0.2,0.7-0.9,1-1.6,0.8l0,0
	c-0.7-0.2-1-0.9-0.8-1.6l0,0c0.2-0.6,1-1,1.6-0.8l0,0c0,0,0.1,0,0.1,0l0,0C660.7,45.7,661,46.4,660.8,47z M681.5,54.9
	c0.6,0.3,0.8,1.1,0.5,1.7l0,0c-0.3,0.6-1.1,0.9-1.7,0.5l0,0c-0.6-0.4-0.8-1.1-0.5-1.7l0,0c0.3-0.6,1-0.8,1.6-0.6l0,0
	C681.4,54.8,681.5,54.8,681.5,54.9z M653.4,44.6c-0.2,0.7-0.9,1.1-1.6,0.9l0,0c-0.7-0.2-1-0.9-0.9-1.6l0,0c0.2-0.7,0.9-1.1,1.6-0.9
	l0,0l0,0l0,0c0.1,0,0.1,0,0.1,0.1l0,0C653.3,43.3,653.6,44,653.4,44.6z M688.3,58.8L688.3,58.8L688.3,58.8c0.6,0.3,0.8,1.1,0.4,1.8
	l0,0c-0.3,0.6-1.1,0.8-1.8,0.4l0,0c-0.6-0.4-0.8-1.2-0.4-1.8l0,0c0.3-0.5,1-0.8,1.6-0.5l0,0C688.2,58.7,688.3,58.7,688.3,58.8z
	 M645.9,42.6c-0.1,0.7-0.8,1.1-1.5,0.9l0,0c-0.7-0.2-1.1-0.8-1-1.5l0,0c0.2-0.7,0.8-1.1,1.5-0.9l0,0c0.1,0,0.1,0,0.2,0l0,0
	C645.8,41.3,646.1,41.9,645.9,42.6z M694.9,63C694.9,63,694.9,63,694.9,63L694.9,63c0.6,0.4,0.7,1.2,0.3,1.8l0,0
	c-0.4,0.6-1.2,0.7-1.8,0.3l0,0c-0.6-0.4-0.7-1.2-0.3-1.8l0,0c0.3-0.5,1-0.7,1.5-0.5l0,0C694.7,62.9,694.8,62.9,694.9,63z
	 M638.4,40.9c-0.1,0.7-0.8,1.2-1.5,1l0,0c-0.7-0.1-1.2-0.8-1-1.5l0,0c0.1-0.7,0.8-1.2,1.5-1l0,0c0.1,0,0.2,0,0.2,0.1l0,0
	C638.2,39.7,638.5,40.3,638.4,40.9z M701.2,67.6L701.2,67.6L701.2,67.6c0.6,0.4,0.7,1.2,0.2,1.8l0,0c-0.4,0.6-1.2,0.7-1.8,0.2l0,0
	c-0.5-0.4-0.7-1.2-0.2-1.8l0,0c0.4-0.5,1-0.6,1.5-0.4l0,0C701,67.5,701.2,67.5,701.2,67.6z M630.7,39.6c-0.1,0.7-0.7,1.2-1.4,1.1
	l0,0c-0.7-0.1-1.2-0.7-1.1-1.4l0,0c0.1-0.7,0.7-1.2,1.4-1.1l0,0c0.1,0,0.2,0.1,0.3,0.1l0,0C630.5,38.5,630.8,39.1,630.7,39.6z
	 M707.3,72.5c0.5,0.5,0.6,1.3,0.2,1.8l0,0c-0.5,0.6-1.3,0.6-1.8,0.2l0,0c-0.5-0.5-0.6-1.3-0.1-1.8l0,0c0.4-0.4,1-0.5,1.5-0.3l0,0
	C707.1,72.3,707.2,72.4,707.3,72.5z M623,38.8c-0.1,0.7-0.7,1.2-1.4,1.2l0,0c-0.7,0-1.2-0.7-1.2-1.4l0,0c0.1-0.7,0.7-1.2,1.4-1.2
	l0,0c0.2,0,0.3,0.1,0.4,0.1l0,0C622.7,37.7,623,38.2,623,38.8z M615.3,38.3c0,0.7-0.6,1.2-1.3,1.2l0,0c-0.7,0-1.2-0.6-1.2-1.3l0,0
	c0-0.7,0.6-1.2,1.3-1.2l0,0c0.2,0,0.3,0.1,0.5,0.1l0,0C614.9,37.3,615.3,37.8,615.3,38.3z M607.5,38.2c0,0.7-0.5,1.3-1.2,1.3l0,0
	c-0.7,0-1.3-0.5-1.3-1.2l0,0c0-0.7,0.5-1.3,1.2-1.3l0,0c0.2,0,0.4,0,0.5,0.1l0,0C607.2,37.3,607.5,37.7,607.5,38.2z M599.7,38.6
	c0,0.7-0.5,1.3-1.2,1.4l0,0c-0.7,0-1.3-0.5-1.4-1.2l0,0c0-0.7,0.5-1.3,1.2-1.4l0,0l0,0l0,0c0.2,0,0.4,0,0.6,0.1l0,0
	C599.4,37.7,599.7,38.1,599.7,38.6z M592,39.3c0.1,0.7-0.4,1.4-1.1,1.4l0,0c-0.7,0.1-1.3-0.4-1.4-1.1l0,0c-0.1-0.7,0.4-1.3,1.1-1.4
	l0,0l0,0l0,0c0.2,0,0.5,0,0.7,0.1l0,0C591.6,38.5,592,38.8,592,39.3z M584.3,40.5c0.1,0.7-0.4,1.3-1,1.5l0,0c-0.7,0.1-1.4-0.3-1.5-1
	l0,0c-0.1-0.7,0.3-1.4,1-1.5l0,0c0.2,0,0.5,0,0.7,0.1l0,0C584,39.7,584.3,40,584.3,40.5z M576.7,42c0.2,0.7-0.3,1.4-0.9,1.5l0,0
	c-0.7,0.2-1.4-0.3-1.5-0.9l0,0c-0.2-0.7,0.3-1.4,0.9-1.5l0,0l0,0l0,0c0.3-0.1,0.6,0,0.8,0.1l0,0C576.3,41.2,576.6,41.6,576.7,42z
	 M569.2,43.9c0.2,0.7-0.2,1.4-0.9,1.6l0,0c-0.7,0.2-1.4-0.2-1.6-0.9l0,0c-0.2-0.7,0.2-1.4,0.9-1.6l0,0c0.3-0.1,0.6-0.1,0.8,0l0,0
	C568.8,43.2,569.1,43.5,569.2,43.9z M561.8,46.2c0.3,0.7-0.1,1.4-0.8,1.6l0,0c-0.7,0.2-1.4-0.1-1.6-0.8l0,0
	c-0.2-0.7,0.1-1.4,0.8-1.6l0,0c0.3-0.1,0.6-0.1,0.9,0l0,0C561.4,45.6,561.7,45.8,561.8,46.2z M554.5,48.9c0.3,0.7,0,1.4-0.7,1.7l0,0
	c-0.7,0.3-1.4,0-1.7-0.7l0,0c-0.3-0.7,0-1.4,0.7-1.7l0,0c0.3-0.1,0.7-0.1,1,0l0,0C554.1,48.3,554.4,48.6,554.5,48.9z M547.4,52
	c0.3,0.6,0,1.4-0.6,1.7l0,0c-0.6,0.3-1.4,0-1.7-0.6l0,0c-0.3-0.7,0-1.4,0.6-1.7l0,0l0,0l0,0c0.3-0.2,0.7-0.2,1.1,0l0,0
	C547,51.4,547.3,51.7,547.4,52z M540.4,55.4c0.3,0.6,0.1,1.4-0.5,1.7l0,0c-0.6,0.3-1.4,0.1-1.7-0.5l0,0c-0.4-0.6-0.1-1.4,0.5-1.7
	l0,0c0.4-0.2,0.8-0.2,1.1-0.1l0,0C540.1,55,540.3,55.2,540.4,55.4z M533.7,59.2c0.4,0.6,0.2,1.4-0.4,1.7l0,0
	c-0.6,0.3-1.4,0.2-1.8-0.4l0,0c-0.4-0.6-0.2-1.4,0.4-1.7l0,0l0,0l0,0c0.4-0.2,0.8-0.3,1.2-0.1l0,0C533.3,58.8,533.5,58.9,533.7,59.2
	z"/>
<path class="st1" d="M718.6,83.1C718.6,83.1,718.6,83.1,718.6,83.1L718.6,83.1c0.5,0.5,0.5,1.3,0,1.8l0,0c-0.5,0.5-1.3,0.5-1.8,0
	l0,0c-0.5-0.5-0.5-1.3,0-1.8l0,0c0.4-0.4,0.9-0.5,1.4-0.3l0,0C718.4,82.8,718.5,82.9,718.6,83.1z M723.8,88.7
	c0.5,0.5,0.4,1.3-0.1,1.8l0,0c-0.6,0.5-1.4,0.4-1.8-0.1l0,0c-0.5-0.5-0.4-1.4,0.1-1.8l0,0c0.4-0.3,0.9-0.4,1.3-0.2l0,0
	C723.5,88.4,723.7,88.5,723.8,88.7z M728.7,94.5c0.4,0.6,0.3,1.4-0.2,1.8l0,0c-0.5,0.4-1.3,0.3-1.8-0.2l0,0
	c-0.4-0.5-0.3-1.3,0.2-1.8l0,0c0.4-0.3,0.9-0.4,1.3-0.2l0,0C728.4,94.2,728.5,94.4,728.7,94.5z M733.2,100.7
	c0.4,0.6,0.2,1.4-0.3,1.8l0,0c-0.6,0.4-1.4,0.3-1.8-0.3l0,0c-0.4-0.6-0.3-1.4,0.3-1.8l0,0c0.4-0.2,0.8-0.3,1.2-0.1l0,0
	C732.9,100.3,733.1,100.4,733.2,100.7z M737.5,107c0.4,0.6,0.2,1.4-0.4,1.8l0,0c-0.6,0.4-1.4,0.2-1.8-0.4l0,0
	c-0.4-0.6-0.2-1.4,0.4-1.8l0,0c0.4-0.2,0.8-0.2,1.2-0.1l0,0C737.1,106.6,737.3,106.7,737.5,107z M741.4,113.5L741.4,113.5
	L741.4,113.5c0.4,0.6,0.1,1.4-0.5,1.7l0,0c-0.6,0.4-1.4,0.1-1.8-0.5l0,0c-0.4-0.6-0.1-1.4,0.5-1.7l0,0c0.4-0.2,0.8-0.2,1.1-0.1l0,0
	C741,113.1,741.3,113.3,741.4,113.5z M745,120.3c0.3,0.6,0,1.4-0.6,1.7l0,0c-0.6,0.3-1.4,0.1-1.7-0.6l0,0c-0.3-0.6-0.1-1.4,0.6-1.7
	l0,0c0.3-0.2,0.7-0.2,1.1,0l0,0C744.6,119.8,744.8,120,745,120.3z M748.2,127.2L748.2,127.2L748.2,127.2c0.3,0.6,0,1.4-0.7,1.7l0,0
	c-0.6,0.3-1.4,0-1.7-0.7l0,0c-0.3-0.7,0-1.4,0.7-1.7l0,0c0.3-0.1,0.7-0.2,1,0l0,0C747.8,126.6,748.1,126.8,748.2,127.2z
	 M751.1,134.2L751.1,134.2L751.1,134.2c0.3,0.7-0.1,1.4-0.8,1.6l0,0c-0.6,0.2-1.4-0.1-1.6-0.7l0,0c-0.3-0.7,0.1-1.4,0.8-1.6l0,0
	c0.3-0.1,0.6-0.1,0.9,0l0,0C750.7,133.6,751,133.9,751.1,134.2z M753.6,141.4c0.2,0.7-0.1,1.4-0.8,1.6l0,0c-0.7,0.2-1.4-0.2-1.6-0.8
	l0,0c-0.2-0.7,0.2-1.4,0.8-1.6l0,0c0.3-0.1,0.6-0.1,0.9,0l0,0C753.2,140.8,753.5,141,753.6,141.4z M755.8,148.7
	c0.2,0.7-0.2,1.4-0.9,1.5l0,0c-0.7,0.2-1.4-0.2-1.5-0.9l0,0c-0.2-0.7,0.2-1.4,0.9-1.6l0,0c0.3,0,0.6,0,0.8,0.1l0,0
	C755.4,148,755.6,148.4,755.8,148.7z M757.5,156.1c0.1,0.7-0.3,1.4-1,1.5l0,0c-0.7,0.2-1.3-0.3-1.5-1l0,0c-0.2-0.7,0.3-1.4,1-1.5
	l0,0c0.2,0,0.5,0,0.7,0.1l0,0C757.1,155.4,757.4,155.7,757.5,156.1z M758.9,163.6c0.1,0.7-0.4,1.4-1,1.5l0,0c-0.7,0.1-1.3-0.4-1.5-1
	l0,0c-0.1-0.7,0.4-1.3,1-1.5l0,0c0.2,0,0.5,0,0.7,0.1l0,0C758.5,162.8,758.8,163.2,758.9,163.6z M759.9,171.2L759.9,171.2
	L759.9,171.2c0.1,0.7-0.4,1.3-1.1,1.4l0,0c-0.7,0.1-1.3-0.4-1.4-1.1l0,0c0-0.7,0.5-1.3,1.2-1.4l0,0c0.2,0,0.4,0,0.6,0.1l0,0
	C759.6,170.3,759.9,170.7,759.9,171.2z M760.5,178.8c0,0.7-0.5,1.3-1.2,1.4l0,0c-0.7,0-1.3-0.5-1.3-1.2l0,0c0-0.7,0.5-1.3,1.2-1.4
	l0,0c0.2,0,0.4,0,0.5,0.1l0,0C760.2,177.8,760.5,178.3,760.5,178.8z M760.8,186.4c0,0.7-0.6,1.3-1.3,1.3l0,0c-0.7,0-1.3-0.6-1.3-1.3
	l0,0c0-0.7,0.6-1.3,1.3-1.3l0,0c0.2,0,0.3,0,0.5,0.1l0,0C760.5,185.4,760.8,185.8,760.8,186.4z M760.6,194c0,0.7-0.6,1.3-1.3,1.2
	l0,0c-0.7,0-1.2-0.6-1.2-1.3l0,0c0-0.7,0.6-1.2,1.3-1.2l0,0c0.2,0,0.3,0,0.4,0.1l0,0C760.4,192.9,760.7,193.4,760.6,194z
	 M760.1,201.6c-0.1,0.7-0.7,1.2-1.4,1.1l0,0c-0.7-0.1-1.2-0.7-1.1-1.4l0,0c0.1-0.7,0.7-1.2,1.4-1.1l0,0c0.1,0,0.3,0,0.4,0.1l0,0
	C759.9,200.5,760.2,201,760.1,201.6z M759.2,209.1c-0.1,0.7-0.8,1.2-1.5,1.1l0,0c-0.7-0.1-1.2-0.8-1.1-1.5l0,0
	c0.1-0.7,0.7-1.2,1.4-1.1l0,0c0.1,0,0.2,0.1,0.3,0.1l0,0C759,208,759.3,208.6,759.2,209.1z M757.9,216.6c-0.1,0.7-0.8,1.1-1.5,1l0,0
	c-0.7-0.1-1.1-0.8-1-1.5l0,0c0.1-0.7,0.8-1.1,1.5-1l0,0c0.1,0,0.2,0,0.2,0.1l0,0C757.7,215.4,758.1,216,757.9,216.6z M756.3,224
	L756.3,224L756.3,224c-0.2,0.7-0.9,1.1-1.6,0.9l0,0c-0.7-0.2-1.1-0.9-0.9-1.6l0,0c0.2-0.7,0.9-1.1,1.5-0.9l0,0c0.1,0,0.1,0,0.2,0.1
	l0,0C756.1,222.8,756.4,223.4,756.3,224z M754.2,231.4L754.2,231.4L754.2,231.4c-0.2,0.7-0.9,1-1.6,0.8l0,0c-0.7-0.2-1-0.9-0.9-1.6
	l0,0c0.2-0.7,0.9-1.1,1.6-0.9l0,0c0,0,0.1,0,0.1,0l0,0C754.1,230.1,754.4,230.8,754.2,231.4z M751.8,238.6c-0.2,0.6-1,1-1.6,0.7l0,0
	c-0.7-0.2-1-1-0.8-1.6l0,0c0.2-0.6,1-1,1.6-0.7l0,0c0,0,0,0,0.1,0l0,0C751.8,237.2,752.1,238,751.8,238.6z M749.1,245.7
	c-0.3,0.7-1,1-1.7,0.7l0,0c-0.7-0.3-1-1-0.7-1.7l0,0c0.3-0.7,1-1,1.7-0.7l0,0C749,244.3,749.3,245,749.1,245.7z M745.3,250.9
	c0.6,0.3,0.9,1.1,0.6,1.7l0,0c0,0,0,0,0,0l0,0c-0.3,0.6-1.1,0.9-1.7,0.6l0,0c-0.6-0.3-0.9-1.1-0.6-1.7l0,0
	C743.9,250.9,744.6,250.6,745.3,250.9L745.3,250.9C745.3,250.9,745.3,250.9,745.3,250.9z M741.9,257.6c0.6,0.4,0.8,1.1,0.5,1.7l0,0
	l0,0l0,0c-0.4,0.6-1.1,0.8-1.7,0.5l0,0c-0.6-0.3-0.9-1.1-0.5-1.7l0,0c0.3-0.6,1-0.8,1.6-0.5l0,0
	C741.9,257.6,741.9,257.6,741.9,257.6z M738.2,264.2c0.6,0.4,0.8,1.1,0.4,1.7l0,0c-0.4,0.6-1.1,0.8-1.7,0.4l0,0
	c-0.6-0.4-0.8-1.1-0.4-1.7l0,0c0.4-0.6,1-0.8,1.6-0.5l0,0C738.1,264.1,738.1,264.2,738.2,264.2z M734.1,270.6
	c0.6,0.4,0.7,1.2,0.3,1.8l0,0c-0.4,0.6-1.2,0.7-1.8,0.3l0,0c-0.6-0.4-0.7-1.2-0.3-1.8l0,0c0.3-0.5,1-0.7,1.5-0.5l0,0
	C734,270.5,734,270.5,734.1,270.6z M729.7,276.7c0.6,0.4,0.7,1.2,0.2,1.8l0,0c-0.4,0.5-1.2,0.6-1.8,0.2l0,0
	c-0.6-0.4-0.7-1.2-0.2-1.8l0,0c0.4-0.5,1-0.6,1.5-0.4l0,0C729.6,276.6,729.6,276.6,729.7,276.7z M725.1,282.6
	c0.5,0.5,0.6,1.3,0.1,1.8l0,0c-0.5,0.5-1.3,0.6-1.8,0.2l0,0c-0.5-0.5-0.6-1.3-0.2-1.8l0,0c0.4-0.4,1-0.5,1.5-0.3l0,0
	C724.8,282.5,725,282.5,725.1,282.6z"/>
<path class="st1" d="M714.7,293.8c0.5,0.5,0.5,1.3,0,1.8l0,0l0,0l0,0c-0.5,0.5-1.3,0.5-1.8,0l0,0c-0.5-0.5-0.5-1.3,0-1.8l0,0
	c0.4-0.3,0.9-0.4,1.4-0.2l0,0C714.4,293.6,714.5,293.7,714.7,293.8z M709,299.1c0.5,0.5,0.4,1.3-0.1,1.8l0,0
	c-0.5,0.5-1.3,0.4-1.8-0.1l0,0c-0.5-0.5-0.4-1.3,0.1-1.8l0,0c0.4-0.3,0.9-0.4,1.3-0.2l0,0C708.7,298.9,708.9,299,709,299.1z
	 M703.1,304.1c0.4,0.6,0.3,1.4-0.2,1.8l0,0c-0.5,0.4-1.3,0.3-1.8-0.2l0,0c-0.4-0.6-0.3-1.3,0.2-1.8l0,0c0.4-0.3,0.8-0.3,1.2-0.2l0,0
	C702.7,303.8,702.9,303.9,703.1,304.1z M696.9,308.7c0.4,0.6,0.2,1.4-0.3,1.8l0,0c-0.6,0.4-1.4,0.3-1.8-0.3l0,0
	c-0.4-0.6-0.3-1.4,0.3-1.8l0,0c0.4-0.3,0.8-0.3,1.2-0.1l0,0C696.5,308.4,696.7,308.5,696.9,308.7z M690.5,313
	c0.4,0.6,0.2,1.4-0.4,1.8l0,0l0,0l0,0c-0.6,0.4-1.4,0.2-1.8-0.4l0,0c-0.4-0.6-0.2-1.4,0.4-1.8l0,0c0.4-0.2,0.8-0.2,1.2-0.1l0,0
	C690.1,312.6,690.3,312.8,690.5,313z M683.8,317c0.3,0.6,0.1,1.4-0.5,1.7l0,0c-0.6,0.3-1.4,0.1-1.7-0.5l0,0
	c-0.4-0.6-0.1-1.4,0.5-1.7l0,0c0.3-0.2,0.8-0.2,1.1-0.1l0,0C683.4,316.5,683.7,316.7,683.8,317z M677,320.6c0.3,0.6,0,1.4-0.6,1.7
	l0,0c-0.6,0.3-1.4,0-1.7-0.6l0,0c-0.3-0.6-0.1-1.4,0.6-1.7l0,0c0.3-0.2,0.7-0.2,1.1,0l0,0C676.6,320.1,676.8,320.3,677,320.6z
	 M670,323.9c0.3,0.7,0,1.4-0.7,1.7l0,0c-0.7,0.3-1.4,0-1.7-0.7l0,0c-0.3-0.7,0-1.4,0.7-1.7l0,0c0.3-0.1,0.7-0.1,1,0l0,0
	C669.6,323.4,669.8,323.6,670,323.9z M662.8,326.8c0.2,0.6-0.1,1.4-0.7,1.6l0,0c-0.7,0.3-1.4-0.1-1.6-0.8l0,0
	c-0.2-0.7,0.1-1.4,0.8-1.6l0,0c0.3-0.1,0.6-0.1,0.9,0l0,0C662.4,326.2,662.7,326.4,662.8,326.8z M655.5,329.3
	c0.2,0.7-0.2,1.4-0.8,1.6l0,0c-0.7,0.2-1.4-0.2-1.6-0.9l0,0c-0.2-0.7,0.2-1.4,0.9-1.6l0,0c0.3-0.1,0.6-0.1,0.9,0.1l0,0
	C655.1,328.6,655.3,328.9,655.5,329.3z M648,331.4c0.1,0.7-0.2,1.4-0.9,1.6l0,0c-0.7,0.1-1.4-0.3-1.6-1l0,0
	c-0.2-0.7,0.3-1.4,0.9-1.5l0,0c0.3-0.1,0.6,0,0.8,0.1l0,0C647.6,330.7,647.9,331,648,331.4z M640.5,333.2c0.1,0.7-0.3,1.4-1,1.5l0,0
	c-0.7,0.1-1.4-0.3-1.5-1l0,0c-0.1-0.7,0.3-1.3,1-1.5l0,0c0.3-0.1,0.5,0,0.7,0.1l0,0C640.1,332.4,640.4,332.7,640.5,333.2z
	 M632.9,334.5c0.1,0.7-0.4,1.3-1.1,1.4l0,0l0,0l0,0c-0.7,0.1-1.4-0.4-1.4-1.1l0,0c-0.1-0.7,0.4-1.4,1.1-1.4l0,0c0.3,0,0.5,0,0.7,0.1
	l0,0C632.5,333.7,632.8,334.1,632.9,334.5z M625.2,335.5c0.1,0.7-0.5,1.3-1.1,1.4l0,0l0,0l0,0c-0.7,0.1-1.3-0.4-1.4-1.1l0,0
	c0-0.7,0.5-1.3,1.1-1.4l0,0c0.2,0,0.4,0,0.6,0.1l0,0C624.8,334.6,625.1,335,625.2,335.5z M617.5,336c0,0.7-0.5,1.3-1.2,1.3l0,0
	c-0.7,0-1.3-0.5-1.3-1.2l0,0c0-0.7,0.5-1.3,1.2-1.3l0,0c0.2,0,0.4,0,0.6,0.1l0,0C617.1,335.1,617.4,335.5,617.5,336z M609.7,336.2
	c0,0.7-0.6,1.3-1.3,1.3l0,0c-0.7,0-1.3-0.6-1.3-1.3l0,0c0-0.7,0.6-1.3,1.3-1.3l0,0c0.2,0,0.3,0,0.5,0.1l0,0
	C609.4,335.2,609.7,335.7,609.7,336.2z M602,335.9c0,0.7-0.7,1.2-1.3,1.2l0,0l0,0l0,0c-0.7-0.1-1.2-0.7-1.2-1.4l0,0
	c0-0.7,0.6-1.2,1.4-1.2l0,0c0.1,0,0.3,0,0.4,0.1l0,0C601.7,334.9,602,335.4,602,335.9z M594.3,335.3c-0.1,0.7-0.7,1.2-1.4,1.1l0,0
	c-0.7-0.1-1.2-0.7-1.1-1.4l0,0c0.1-0.7,0.7-1.2,1.4-1.1l0,0c0.1,0,0.2,0,0.3,0.1l0,0C594,334.2,594.3,334.7,594.3,335.3z
	 M586.6,334.3c-0.1,0.7-0.8,1.2-1.4,1l0,0c-0.7-0.1-1.2-0.8-1-1.5l0,0c0.1-0.7,0.8-1.2,1.4-1.1l0,0c0.1,0,0.2,0,0.3,0.1l0,0
	C586.4,333.1,586.7,333.7,586.6,334.3z M579,332.8c-0.2,0.7-0.8,1.1-1.5,0.9l0,0c-0.7-0.1-1.1-0.8-1-1.5l0,0c0.1-0.7,0.8-1.1,1.5-1
	l0,0c0.1,0,0.2,0,0.2,0.1l0,0C578.8,331.6,579.1,332.2,579,332.8z M535.4,314.5c0.6,0.4,0.8,1.1,0.5,1.7l0,0
	c-0.3,0.6-1.1,0.8-1.7,0.5l0,0l0,0l0,0c-0.6-0.3-0.8-1.1-0.5-1.7l0,0c0.3-0.6,1-0.8,1.6-0.5l0,0
	C535.3,314.4,535.3,314.5,535.4,314.5z M571.5,331c-0.2,0.7-0.9,1.1-1.6,0.9l0,0c-0.7-0.2-1.1-0.9-0.9-1.6l0,0
	c0.2-0.7,0.9-1.1,1.6-0.9l0,0c0.1,0,0.1,0,0.1,0.1l0,0C571.3,329.8,571.7,330.4,571.5,331z M542.1,318.2c0.6,0.3,0.9,1.1,0.5,1.7
	l0,0c-0.3,0.6-1.1,0.9-1.7,0.5l0,0c-0.6-0.3-0.9-1.1-0.6-1.7l0,0c0.3-0.6,1-0.8,1.6-0.6l0,0C542,318.2,542,318.2,542.1,318.2z
	 M564.1,328.8c-0.2,0.6-1,1-1.6,0.8l0,0c-0.7-0.2-1-0.9-0.8-1.6l0,0c0.2-0.6,1-1,1.6-0.8l0,0c0,0,0.1,0,0.1,0l0,0
	C563.9,327.5,564.3,328.2,564.1,328.8z M549,321.6c0.7,0.3,1,1,0.7,1.7l0,0c-0.3,0.6-1.1,0.9-1.7,0.6l0,0c-0.6-0.3-0.9-1-0.6-1.7
	l0,0C547.6,321.6,548.3,321.3,549,321.6L549,321.6C549,321.6,549,321.6,549,321.6z M556.8,326.2c-0.2,0.6-1,1-1.6,0.7l0,0l0,0l0,0
	c-0.6-0.2-1-1-0.7-1.7l0,0c0.3-0.6,1-1,1.6-0.7l0,0l0,0l0,0C556.7,324.9,557,325.6,556.8,326.2z"/>
<path class="st1" d="M528.7,310.3c0.2,0.1,0.3,0.2,0.4,0.3c0.1,0.1,0.2,0.3,0.3,0.4c0.1,0.2,0.1,0.3,0.1,0.5c0,0.2,0,0.3-0.1,0.5
	c-0.1,0.3-0.4,0.6-0.7,0.7c-0.6,0.2-1.4-0.1-1.7-0.7c-0.1-0.3-0.1-0.7,0-1c0.1-0.2,0.2-0.3,0.3-0.4c0.1-0.1,0.3-0.2,0.4-0.3
	C528,310.2,528.3,310.2,528.7,310.3z"/>
<path class="st1" d="M719.7,288.1c0.3,0.1,0.6,0.4,0.7,0.7c0.1,0.3,0.1,0.6,0,0.9c-0.1,0.2-0.2,0.3-0.3,0.4
	c-0.1,0.1-0.3,0.2-0.4,0.3c-0.2,0.1-0.3,0.1-0.5,0.1c-0.3,0-0.7-0.1-0.9-0.4c-0.1-0.1-0.2-0.3-0.3-0.4c-0.1-0.1-0.1-0.3-0.1-0.5
	c0-0.2,0-0.3,0.1-0.5c0.1-0.3,0.4-0.5,0.7-0.7C719,287.9,719.3,287.9,719.7,288.1z"/>
<path class="st1" d="M712.8,77.4c0.2,0.1,0.3,0.2,0.4,0.3c0.1,0.1,0.2,0.3,0.3,0.4c0.1,0.2,0.1,0.3,0.1,0.5c0,0.2,0,0.3-0.1,0.5
	c-0.1,0.1-0.2,0.3-0.3,0.4c-0.1,0.1-0.3,0.2-0.4,0.3c-0.6,0.3-1.4-0.1-1.6-0.7c-0.1-0.3-0.1-0.7,0-1c0.1-0.1,0.2-0.3,0.3-0.4
	c0.1-0.1,0.3-0.2,0.4-0.3c0.1-0.1,0.3-0.1,0.5-0.1C712.5,77.4,712.7,77.4,712.8,77.4z"/>
<path class="st1" d="M526.6,62.9c0.2,0.1,0.3,0.2,0.4,0.3c0.1,0.1,0.2,0.3,0.3,0.4c0.1,0.3,0.1,0.7,0,1c-0.1,0.1-0.2,0.3-0.3,0.4
	c-0.1,0.1-0.3,0.2-0.4,0.3c-0.6,0.3-1.4-0.1-1.7-0.7c0-0.1-0.1-0.3-0.1-0.5c0-0.2,0-0.4,0.1-0.5c0.1-0.3,0.4-0.5,0.7-0.7
	c0.2-0.1,0.3-0.1,0.5-0.1C526.3,62.8,526.4,62.8,526.6,62.9z"/>
<path class="st1" d="M526.5,62.6c1.8,1.7,1.9,4.6,0.2,6.4c-1.7,1.8-4.6,1.9-6.4,0.2c-1.8-1.7-1.9-4.6-0.2-6.4
	C521.8,61,524.7,60.9,526.5,62.6"/>
<path class="st1" d="M525.2,309.5l-1.5,5l-4.4-8.7l9.7,0.2L525.2,309.5z"/>
<g>
	<g>
		<path class="st3" d="M346,215l-6.1-21.5c-0.1-0.3-0.3-0.4-0.6-0.4h-6.7v-3.7c0-0.3-0.3-0.6-0.6-0.6c-0.3,0-0.6,0.3-0.6,0.6v1.2
			h-4.3v-1.2c0-0.3-0.3-0.6-0.6-0.6c-0.3,0-0.6,0.3-0.6,0.6v3.7h-6.7c-0.3,0-0.5,0.2-0.6,0.4l-6.1,21.5c0,0.1,0,0.1,0,0.2v4.6
			c0,0.3,0.3,0.6,0.6,0.6h32.4c0.3,0,0.6-0.3,0.6-0.6v-4.6C346.1,215.1,346.1,215,346,215z M326.5,199.2c0.3,0,0.6-0.3,0.6-0.6v-1.9
			h4.3v1.9c0,0.3,0.3,0.6,0.6,0.6c0.3,0,0.6-0.3,0.6-0.6v-1.9h4.9l2.9,16.8h-22.4l3.5-16.8h4.3v1.9
			C325.9,198.9,326.2,199.2,326.5,199.2z M327.1,195.5v-1.2h4.3v1.2H327.1z M327.1,191.8h4.3v1.2h-4.3V191.8z M344.8,219.1h-31.2
			v-3.9l6-21h6.3v1.2h-4.8c-0.3,0-0.5,0.2-0.6,0.5l-3.8,18c0,0.2,0,0.4,0.1,0.5c0.1,0.1,0.3,0.2,0.5,0.2h23.8c0.2,0,0.4-0.1,0.5-0.2
			c0.1-0.1,0.2-0.3,0.1-0.5l-3.1-18c-0.1-0.3-0.3-0.5-0.6-0.5h-5.4v-1.2h6.3l6,21V219.1z"/>
	</g>
</g>
<g>
	<path class="st4" d="M345.2,257c0,2.1-1.7,3.8-3.8,3.8h-23.7c-2.1,0-3.8-1.7-3.8-3.8v-3.8h31.4V257z M345.9,251.8h-32.1v-7.5
		c0-0.8,0.7-1.5,1.5-1.5c0.8,0,1.4,0.6,1.5,1.3l-1.1,0.8c-0.3,0.2-0.4,0.6-0.1,0.9c0.1,0.2,0.3,0.3,0.5,0.3c0.1,0,0.3,0,0.4-0.1
		l3.7-2.8c0.3-0.2,0.4-0.6,0.1-0.9c-0.2-0.3-0.6-0.4-0.9-0.1l-1.4,1c-0.4-1.1-1.4-1.8-2.6-1.8c-1.6,0-2.8,1.3-2.8,2.8V257
		c0,2.9,2.3,5.2,5.2,5.2h0.3l-2.1,2.1c-0.3,0.3-0.3,0.7,0,1c0.1,0.1,0.3,0.2,0.5,0.2c0.2,0,0.3-0.1,0.5-0.2l3-3.1h19.4l3,3.1
		c0.1,0.1,0.3,0.2,0.5,0.2c0.2,0,0.3-0.1,0.5-0.2c0.3-0.3,0.3-0.7,0-1l-2.1-2.1h0.3c2.9,0,5.2-2.3,5.2-5.2v-4.5
		C346.5,252.1,346.2,251.8,345.9,251.8"/>
	<path class="st4" d="M317,247.9c0.2,0.2,0.6,0.2,0.9,0c0.2-0.2,0.2-0.6,0-0.9c-0.2-0.2-1.2-0.3-1.2-0.3S316.7,247.7,317,247.9"/>
	<path class="st4" d="M321,247.5c-0.2-0.2-1.2-0.3-1.2-0.3s0.1,0.9,0.3,1.2c0.2,0.2,0.6,0.2,0.9,0
		C321.2,248.1,321.2,247.7,321,247.5"/>
	<path class="st4" d="M319.8,250.1c0,0,0.1,0.9,0.3,1.2c0.2,0.2,0.6,0.2,0.9,0c0.2-0.2,0.2-0.6,0-0.9
		C320.7,250.2,319.8,250.1,319.8,250.1"/>
	<path class="st4" d="M324,249c0.2-0.2,0.2-0.6,0-0.9c-0.2-0.2-1.2-0.3-1.2-0.3s0.1,0.9,0.3,1.2C323.4,249.3,323.8,249.3,324,249"/>
	<path class="st4" d="M320.4,245.9c0.2,0.2,0.6,0.2,0.9,0c0.2-0.2,0.2-0.6,0-0.9c-0.2-0.2-1.2-0.3-1.2-0.3S320.2,245.6,320.4,245.9"
		/>
</g>
<g>
	<path class="st1" d="M114,152.2c0-0.4-0.2-0.6-0.6-0.6h-1.2v-1.7h2.1c1.2,0,1.7,0.5,1.7,1.7v15.6c0,0.4,0.2,0.6,0.6,0.6h6.5
		c0.4,0,0.6-0.2,0.6-0.6v-1.3h1.8v2c0,1.2-0.5,1.7-1.7,1.7h-8.1c-1.2,0-1.7-0.5-1.7-1.7V152.2z"/>
	<path class="st1" d="M126.4,167.7h0.4c0.5,0,0.8-0.1,1-0.6l6.4-17.3h2.1l6.4,17.3c0.2,0.5,0.5,0.6,1,0.6h0.3v1.7h-0.9
		c-1.4,0-1.8-0.3-2.3-1.6l-1.7-4.6h-7.8l-1.7,4.6c-0.5,1.3-0.9,1.6-2.3,1.6h-0.9V167.7z M138.6,161.5l-2.6-7
		c-0.3-0.9-0.8-2.5-0.8-2.5h-0.1c0,0-0.4,1.6-0.8,2.5l-2.6,7H138.6z"/>
	<path class="st1" d="M159.1,151.6h-4.9c-0.4,0-0.6,0.2-0.6,0.6v1.3h-1.8v-2.1c0-1.2,0.4-1.6,1.6-1.6h13.3c1.2,0,1.6,0.4,1.6,1.6
		v2.1h-1.8v-1.3c0-0.4-0.2-0.6-0.6-0.6h-4.8v17.9h-2V151.6z"/>
	<path class="st1" d="M171.5,152.2c0-0.4-0.2-0.6-0.6-0.6h-1.2v-1.7h2.1c1.2,0,1.7,0.5,1.7,1.7v11.1c0,3.3,2.1,5.3,5.3,5.3
		c3.2,0,5.3-2,5.3-5.4v-11c0-1.2,0.5-1.7,1.7-1.7h2.1v1.7h-1.2c-0.4,0-0.6,0.2-0.6,0.6v10.5c0,4.2-2.9,7.1-7.2,7.1
		c-4.3,0-7.2-2.8-7.2-7.1V152.2z"/>
	<path class="st1" d="M196.4,151.6h-4.9c-0.4,0-0.6,0.2-0.6,0.6v1.3h-1.8v-2.1c0-1.2,0.4-1.6,1.6-1.6H204c1.2,0,1.6,0.4,1.6,1.6v2.1
		h-1.8v-1.3c0-0.4-0.2-0.6-0.6-0.6h-4.8v17.9h-2V151.6z"/>
	<path class="st1" d="M209,151.6h-1.8v-1.7h11.2c1.2,0,1.7,0.5,1.7,1.7v2h-1.8v-1.3c0-0.4-0.2-0.6-0.6-0.6H211v7.1h7.4v1.7H211v6.7
		c0,0.4,0.2,0.6,0.6,0.6h6.9c0.4,0,0.6-0.2,0.6-0.6v-1.3h1.8v2c0,1.2-0.5,1.7-1.7,1.7h-8.5c-1.2,0-1.7-0.5-1.7-1.7V151.6z"/>
	<path class="st1" d="M224.6,152.2c0-0.4-0.2-0.6-0.6-0.6h-1.2v-1.7h2.1c1.2,0,1.7,0.5,1.7,1.7v15.6c0,0.4,0.2,0.6,0.6,0.6h6.5
		c0.4,0,0.6-0.2,0.6-0.6v-1.3h1.8v2c0,1.2-0.5,1.7-1.7,1.7h-8.1c-1.2,0-1.7-0.5-1.7-1.7V152.2z"/>
	<path class="st1" d="M237,167.7h0.4c0.5,0,0.8-0.1,1-0.6l6.4-17.3h2.1l6.4,17.3c0.2,0.5,0.5,0.6,1,0.6h0.3v1.7h-0.9
		c-1.4,0-1.8-0.3-2.3-1.6l-1.7-4.6h-7.8l-1.7,4.6c-0.5,1.3-0.9,1.6-2.3,1.6H237V167.7z M249.2,161.5l-2.6-7
		c-0.3-0.9-0.8-2.5-0.8-2.5h-0.1c0,0-0.4,1.6-0.8,2.5l-2.6,7H249.2z"/>
	<path class="st1" d="M100.6,180.1h-1.8v-1.7h7.9c5.9,0,9.8,3.6,9.8,9.8c0,6.2-3.9,9.8-9.8,9.8h-4.3c-1.2,0-1.7-0.5-1.7-1.7V180.1z
		 M103.2,196.2h3.3c4.8,0,8-2.8,8-8.1c0-5.2-3.2-8.1-8-8.1h-3.9v15.5C102.5,196,102.8,196.2,103.2,196.2z"/>
	<path class="st1" d="M120.5,180.1h-1.8v-1.7h11.2c1.2,0,1.7,0.5,1.7,1.7v2h-1.8v-1.3c0-0.4-0.2-0.6-0.6-0.6h-6.7v7.1h7.4v1.7h-7.4
		v6.7c0,0.4,0.2,0.6,0.6,0.6h6.9c0.4,0,0.6-0.2,0.6-0.6v-1.3h1.8v2c0,1.2-0.5,1.7-1.7,1.7h-8.5c-1.2,0-1.7-0.5-1.7-1.7V180.1z"/>
	<path class="st1" d="M136.1,180.7c0-0.4-0.2-0.6-0.6-0.6h-1.2v-1.7h2.1c1.2,0,1.7,0.5,1.7,1.7v15.6c0,0.4,0.2,0.6,0.6,0.6h6.5
		c0.4,0,0.6-0.2,0.6-0.6v-1.3h1.8v2c0,1.2-0.5,1.7-1.7,1.7h-8.1c-1.2,0-1.7-0.5-1.7-1.7V180.7z"/>
	<path class="st1" d="M150,180.7c0-0.4-0.2-0.6-0.6-0.6h-1.2v-1.7h2.1c1.2,0,1.7,0.5,1.7,1.7v15.6c0,0.4,0.2,0.6,0.6,0.6h6.5
		c0.4,0,0.6-0.2,0.6-0.6v-1.3h1.8v2c0,1.2-0.5,1.7-1.7,1.7h-8.1c-1.2,0-1.7-0.5-1.7-1.7V180.7z"/>
	<path class="st1" d="M162.6,178.1h2l-1.6,4.8h-1.5L162.6,178.1z"/>
	<path class="st1" d="M163.9,196.2h0.4c0.5,0,0.8-0.1,1-0.6l6.4-17.3h2.1l6.4,17.3c0.2,0.5,0.5,0.6,1,0.6h0.3v1.7h-0.9
		c-1.4,0-1.8-0.3-2.3-1.6l-1.7-4.6h-7.8l-1.7,4.6c-0.5,1.3-0.9,1.6-2.3,1.6h-0.9V196.2z M176.1,190l-2.6-7c-0.3-0.9-0.8-2.5-0.8-2.5
		h-0.1c0,0-0.4,1.6-0.8,2.5l-2.6,7H176.1z"/>
	<path class="st1" d="M192.2,178c2.8,0,7.3,1.2,7.3,4.2v1.6h-1.8v-1.1c0-1.8-3.2-2.8-5.4-2.8c-4.3,0-7.7,3.4-7.7,8.1
		c0,4.7,3.3,8.4,7.8,8.4c4,0,6.4-2.8,6.4-2.8l1.1,1.4c0,0-2.7,3.2-7.6,3.2c-5.7,0-9.8-4.6-9.8-10.3C182.6,182.3,186.7,178,192.2,178
		z"/>
	<path class="st1" d="M211.7,178c5.6,0,10,4.4,10,10c0,2.6-0.9,5-2.5,6.7l2.4,2.4l-1.2,1.3l-2.4-2.4c-1.7,1.5-3.9,2.3-6.4,2.3
		c-5.5,0-9.9-4.5-9.9-10.3C201.8,182.4,206.2,178,211.7,178z M211.7,196.4c3.1,0,5-1.8,5-1.8l-2.3-2.4l1.2-1.3l2.3,2.4
		c1.1-1.4,1.8-3.4,1.8-5.4c0-4.6-3.5-8.1-8-8.1c-4.4,0-7.9,3.5-7.9,8.1C203.8,192.7,207.3,196.4,211.7,196.4z"/>
	<path class="st1" d="M225.5,180.7c0-0.4-0.2-0.6-0.6-0.6h-1.2v-1.7h2.1c1.2,0,1.7,0.5,1.7,1.7v11.1c0,3.3,2.1,5.3,5.3,5.3
		c3.2,0,5.3-2,5.3-5.4v-11c0-1.2,0.5-1.7,1.7-1.7h2.1v1.7h-1.2c-0.4,0-0.6,0.2-0.6,0.6v10.5c0,4.2-2.9,7.1-7.2,7.1
		c-4.3,0-7.2-2.8-7.2-7.1V180.7z"/>
	<path class="st1" d="M242.6,196.2h0.4c0.5,0,0.8-0.1,1-0.6l6.4-17.3h2.1l6.4,17.3c0.2,0.5,0.5,0.6,1,0.6h0.3v1.7h-0.9
		c-1.4,0-1.8-0.3-2.3-1.6l-1.7-4.6h-7.8l-1.7,4.6c-0.5,1.3-0.9,1.6-2.3,1.6h-0.9V196.2z M254.7,190l-2.6-7c-0.3-0.9-0.8-2.5-0.8-2.5
		h-0.1c0,0-0.4,1.6-0.8,2.5l-2.6,7H254.7z"/>
	<path class="st1" d="M263.4,183.9h2.1v2.2h-2.1V183.9z M263.4,195.7h2.1v2.2h-2.1V195.7z"/>
	<path class="st1" d="M123.8,223.7h1.8v-16.1h-1.8v-1.7h5.6v1.7h-1.9v16.1h1.9v1.7h-5.6V223.7z"/>
	<path class="st1" d="M139.5,223.7h1.2c0.4,0,0.6-0.2,0.6-0.6v-17.3h1.8l10,14c0.7,1,1.6,2.6,1.6,2.6h0.1c0,0-0.1-1.5-0.1-2.6v-12.3
		c0-1.2,0.5-1.7,1.7-1.7h2.1v1.7h-1.2c-0.4,0-0.6,0.2-0.6,0.6v17.3h-1.8l-10-14c-0.7-0.9-1.6-2.5-1.6-2.5h-0.1c0,0,0.2,1.5,0.2,2.5
		v12.3c0,1.2-0.5,1.7-1.7,1.7h-2.1V223.7z"/>
	<path class="st1" d="M162.2,208.2c0-0.4-0.2-0.6-0.6-0.6h-1.2v-1.7h2.1c1.2,0,1.7,0.5,1.7,1.7v11.1c0,3.3,2.1,5.3,5.3,5.3
		c3.2,0,5.3-2,5.3-5.4v-11c0-1.2,0.5-1.7,1.7-1.7h2.1v1.7h-1.2c-0.4,0-0.6,0.2-0.6,0.6v10.5c0,4.2-2.9,7.1-7.2,7.1s-7.2-2.8-7.2-7.1
		V208.2z"/>
	<path class="st1" d="M180,223.7h1c0.4,0,0.6-0.2,0.6-0.6l1.4-17.3h2l5.2,11.4c0.5,1,1,2.3,1,2.3h0.1c0,0,0.5-1.3,0.9-2.3l5.2-11.4
		h2l1.4,17.3c0,0.4,0.2,0.6,0.6,0.6h1.1v1.7h-1.9c-1.2,0-1.6-0.5-1.7-1.7l-0.9-11.9c-0.1-1.1-0.1-2.7-0.1-2.7h-0.1
		c0,0-0.5,1.7-1,2.7l-4.7,10h-1.8l-4.6-10c-0.4-1-1-2.8-1-2.8h-0.1c0,0,0,1.7-0.1,2.8l-0.9,11.9c-0.1,1.2-0.5,1.7-1.7,1.7H180V223.7
		z"/>
	<path class="st1" d="M205.9,207.6h-1.8v-1.7h11.2c1.2,0,1.7,0.5,1.7,1.7v2h-1.8v-1.3c0-0.4-0.2-0.6-0.6-0.6h-6.7v7.1h7.4v1.7h-7.4
		v6.7c0,0.4,0.2,0.6,0.6,0.6h6.9c0.4,0,0.6-0.2,0.6-0.6v-1.3h1.8v2c0,1.2-0.5,1.7-1.7,1.7h-8.5c-1.2,0-1.7-0.5-1.7-1.7V207.6z"/>
	<path class="st1" d="M221.5,207.6h-1.8v-1.7h8.3c3.3,0,5.6,2.2,5.6,5.6c0,3-1.9,4.8-3.8,5.2v0.1c0,0,0.4,0.2,0.7,0.8l2.8,5.6
		c0.3,0.6,0.7,0.6,1.4,0.6h0.4v1.7h-0.9c-1.6,0-2.1-0.2-2.7-1.5l-2.8-5.6c-0.5-1-0.9-1.2-2-1.2h-3.3v8.3h-2V207.6z M227.8,215.4
		c2.3,0,3.8-1.5,3.8-4c0-2.4-1.5-3.9-3.8-3.9h-4.4v7.9H227.8z"/>
	<path class="st1" d="M236.6,223.7h1.8v-16.1h-1.8v-1.7h5.6v1.7h-1.9v16.1h1.9v1.7h-5.6V223.7z"/>
</g>
<g>
	<path class="st4" d="M370.1,77.5h7.3V53.5c0-0.9,0-1.8,0-1.8h-0.1c0,0-0.3,0.7-1.6,1.9l-3.5,3.5l-2-2.1l7.4-7.3h3.1v29.7h7.1v2.9
		h-17.7V77.5z"/>
	<path class="st4" d="M392.2,77.5h7.3V53.5c0-0.9,0-1.8,0-1.8h-0.1c0,0-0.3,0.7-1.6,1.9l-3.5,3.5l-2-2.1l7.4-7.3h3.1v29.7h7.1v2.9
		h-17.7V77.5z"/>
	<path class="st4" d="M415.5,74c0,0,2.5,3.9,7.6,3.9c4.6,0,8.1-3.3,8.1-7.6c0-4.5-3.8-7.7-8.4-7.7c-3.7,0-6.3,1.8-6.3,1.8l-1.7-0.7
		l1.4-13.1c0.2-2,0.8-2.8,2.8-2.8h10.7c1.9,0,2.8,0.8,2.8,2.8v3.2h-3v-2.2c0-0.7-0.4-1-1-1h-8.3c-0.6,0-0.9,0.3-1,1l-0.8,7.4
		c-0.1,1.2-0.3,1.9-0.3,1.9h0.1c0,0,2-1.2,4.9-1.2c6.6,0,11.4,4.7,11.4,10.6c0,5.8-4.8,10.6-11.5,10.6c-6.5,0-9.6-4.6-9.6-4.6
		L415.5,74z"/>
	<path class="st4" d="M345.3,95.1c0-0.3-0.2-0.4-0.4-0.4H344v-1.1h1.4c0.8,0,1.2,0.3,1.2,1.1V95c0,0.4,0,0.7,0,0.7h0
		c0.5-1.3,2-2.5,3.5-2.5c1.8,0,2.7,0.8,3,2.4h0c0.5-1.3,1.9-2.4,3.6-2.4c2.4,0,3.2,1.4,3.2,3.8v4.6c0,0.3,0.2,0.4,0.4,0.4h0.8v1.1
		h-1.4c-0.8,0-1.2-0.3-1.2-1.2v-4.7c0-1.6-0.3-2.9-2.1-2.9c-1.5,0-2.7,1.3-3.1,2.8c-0.1,0.4-0.2,0.9-0.2,1.4v4.6H352v-5.9
		c0-1.5-0.2-2.9-2.1-2.9c-1.6,0-2.8,1.4-3.2,2.9c-0.1,0.4-0.2,0.9-0.2,1.3v4.6h-1.3V95.1z"/>
	<path class="st4" d="M363.4,95.1c0-0.3-0.2-0.4-0.4-0.4h-0.8v-1.1h1.4c0.8,0,1.2,0.3,1.2,1.2v7c0,0.3,0.2,0.4,0.4,0.4h0.8v1.1h-1.4
		c-0.8,0-1.2-0.3-1.2-1.2V95.1z M363.4,89.6h1.3v1.7h-1.3V89.6z"/>
	<path class="st4" d="M368.2,91.2c0-0.3-0.2-0.4-0.4-0.4h-0.8v-1.1h1.4c0.8,0,1.2,0.3,1.2,1.2v10.9c0,0.3,0.2,0.4,0.4,0.4h0.8v1.1
		h-1.4c-0.8,0-1.2-0.3-1.2-1.2V91.2z"/>
	<path class="st4" d="M373.1,95.1c0-0.3-0.2-0.4-0.4-0.4h-0.8v-1.1h1.4c0.8,0,1.2,0.3,1.2,1.2v7c0,0.3,0.2,0.4,0.4,0.4h0.8v1.1h-1.4
		c-0.8,0-1.2-0.3-1.2-1.2V95.1z M373,89.6h1.3v1.7H373V89.6z"/>
	<path class="st4" d="M382.1,93.3c2.8,0,5.2,2.2,5.2,5.1c0,2.9-2.3,5.2-5.1,5.2c-2.8,0-5.2-2.2-5.2-5.2
		C376.9,95.4,379.2,93.3,382.1,93.3z M382.1,102.3c2.1,0,3.8-1.7,3.8-4c0-2.2-1.7-3.9-3.8-3.9c-2.1,0-3.8,1.6-3.8,3.9
		C378.3,100.6,380,102.3,382.1,102.3z"/>
	<path class="st4" d="M389.7,95.1c0-0.3-0.2-0.4-0.4-0.4h-0.8v-1.1h1.4c0.8,0,1.2,0.3,1.2,1.1V95c0,0.4,0,0.7,0,0.7h0
		c0.3-0.9,1.6-2.5,3.9-2.5c2.4,0,3.3,1.4,3.3,3.8v4.6c0,0.3,0.2,0.4,0.4,0.4h0.8v1.1H398c-0.8,0-1.2-0.3-1.2-1.2v-4.7
		c0-1.5-0.2-2.9-2.1-2.9c-1.7,0-3.1,1.1-3.5,2.8c-0.1,0.4-0.2,0.9-0.2,1.3v4.7h-1.3V95.1z"/>
	<path class="st4" d="M401.6,95.1c0-0.3-0.2-0.4-0.4-0.4h-0.8v-1.1h1.4c0.8,0,1.2,0.3,1.2,1.2v7c0,0.3,0.2,0.4,0.4,0.4h0.8v1.1h-1.4
		c-0.8,0-1.2-0.3-1.2-1.2V95.1z M401.5,89.6h1.3v1.7h-1.3V89.6z"/>
	<path class="st4" d="M415.1,93.3c2.4,0,3.2,1.8,3.2,1.8h0c0,0,0-0.3,0-0.7v-3.2c0-0.3-0.2-0.4-0.4-0.4h-0.8v-1.1h1.4
		c0.8,0,1.2,0.3,1.2,1.2v10.9c0,0.3,0.2,0.4,0.4,0.4h0.8v1.1h-1.4c-0.8,0-1.2-0.4-1.2-1.1c0-0.4,0-0.6,0-0.6h0c0,0-0.8,1.9-3.4,1.9
		c-2.6,0-4.2-2.1-4.2-5.1C410.7,95.3,412.6,93.3,415.1,93.3z M418.3,98.4c0-2-1-3.9-3.1-3.9c-1.7,0-3.1,1.5-3.1,3.9
		c0,2.4,1.3,3.9,3.1,3.9C416.8,102.3,418.3,101.1,418.3,98.4z"/>
	<path class="st4" d="M423.1,95.1c0-0.3-0.2-0.4-0.4-0.4h-0.8v-1.1h1.4c0.8,0,1.2,0.3,1.2,1.2v7c0,0.3,0.2,0.4,0.4,0.4h0.8v1.1h-1.4
		c-0.8,0-1.2-0.3-1.2-1.2V95.1z M423.1,89.6h1.3v1.7h-1.3V89.6z"/>
	<path class="st4" d="M433.2,91.2c0-0.3-0.2-0.4-0.4-0.4h-0.8v-1.1h1.4c0.8,0,1.2,0.3,1.2,1.2v10.9c0,0.3,0.2,0.4,0.4,0.4h0.8v1.1
		h-1.4c-0.8,0-1.2-0.3-1.2-1.2V91.2z"/>
	<path class="st4" d="M438,95.1c0-0.3-0.2-0.4-0.4-0.4h-0.8v-1.1h1.4c0.8,0,1.2,0.3,1.2,1.2v7c0,0.3,0.2,0.4,0.4,0.4h0.8v1.1h-1.4
		c-0.8,0-1.2-0.3-1.2-1.2V95.1z M438,89.6h1.3v1.7H438V89.6z"/>
	<path class="st4" d="M442.9,94.6h-1.3v-1.1h1.3v-2.7h1.3v2.7h2.4v1.1h-2.4v5c0,2.3,1.5,2.6,2.2,2.6c0.3,0,0.4,0,0.4,0v1.2
		c0,0-0.2,0-0.6,0c-1.1,0-3.4-0.4-3.4-3.6V94.6z"/>
	<path class="st4" d="M449.3,95.1c0-0.3-0.2-0.4-0.4-0.4h-0.8v-1.1h1.4c0.8,0,1.2,0.3,1.2,1.1v0.7c0,0.4,0,0.7,0,0.7h0
		c0.5-1.5,1.6-2.6,3.1-2.6c0.3,0,0.5,0.1,0.5,0.1v1.3c0,0-0.2,0-0.5,0c-1.4,0-2.4,1.1-2.8,2.5c-0.2,0.6-0.3,1.3-0.3,1.9v4.1h-1.3
		V95.1z"/>
	<path class="st4" d="M456.4,95.1c0-0.3-0.2-0.4-0.4-0.4h-0.8v-1.1h1.4c0.8,0,1.2,0.3,1.2,1.2v7c0,0.3,0.2,0.4,0.4,0.4h0.8v1.1h-1.4
		c-0.8,0-1.2-0.3-1.2-1.2V95.1z M456.4,89.6h1.3v1.7h-1.3V89.6z"/>
	<path class="st4" d="M372.5,113.5c2.4,0,3.2,1.8,3.2,1.8h0c0,0,0-0.3,0-0.7v-3.2c0-0.3-0.2-0.4-0.4-0.4h-0.8v-1.1h1.4
		c0.8,0,1.2,0.3,1.2,1.2V122c0,0.3,0.2,0.4,0.4,0.4h0.8v1.1h-1.4c-0.8,0-1.2-0.4-1.2-1.1c0-0.4,0-0.6,0-0.6h0c0,0-0.8,1.9-3.4,1.9
		c-2.6,0-4.2-2.1-4.2-5.1C368.1,115.6,369.9,113.5,372.5,113.5z M375.7,118.6c0-2-1-3.9-3.1-3.9c-1.7,0-3.1,1.5-3.1,3.9
		c0,2.4,1.3,3.9,3.1,3.9C374.2,122.6,375.7,121.4,375.7,118.6z"/>
	<path class="st4" d="M380.4,109.7h1.4l-1.1,3.3h-1L380.4,109.7z"/>
	<path class="st4" d="M388.7,117.5h0.5v-0.1c0-2-0.7-2.8-2.5-2.8c-0.5,0-1.9,0.1-1.9,0.9v0.6h-1.3v-0.9c0-1.4,2.3-1.6,3.2-1.6
		c3.1,0,3.8,1.6,3.8,3.7v4.7c0,0.3,0.2,0.4,0.4,0.4h0.8v1.1h-1.3c-0.8,0-1.2-0.4-1.2-1.2c0-0.4,0-0.7,0-0.7h0c0,0-0.8,2.1-3.2,2.1
		c-1.6,0-3.3-0.9-3.3-2.9C382.7,117.6,387,117.5,388.7,117.5z M386.2,122.6c1.9,0,3-1.9,3-3.6v-0.4h-0.6c-1.5,0-4.6,0-4.6,2.2
		C384.1,121.7,384.8,122.6,386.2,122.6z"/>
	<path class="st4" d="M398.1,113.5c1.1,0,3.5,0.5,3.5,2.1v0.9h-1.2v-0.6c0-0.8-1.4-1.2-2.2-1.2c-2.1,0-3.8,1.6-3.8,3.9
		c0,2.4,1.8,3.9,3.8,3.9c2,0,3.1-1.4,3.1-1.4l0.6,1c0,0-1.3,1.6-3.8,1.6c-2.9,0-5.1-2.1-5.1-5.1C393,115.7,395.2,113.5,398.1,113.5z
		"/>
	<path class="st4" d="M407.7,113.5c2.4,0,3.2,1.9,3.2,1.9h0c0,0,0-0.3,0-0.6c0-0.7,0.3-1,1.2-1h1.3v1.1h-0.8c-0.3,0-0.4,0.2-0.4,0.4
		v12.1h-1.3v-4.7c0-0.5,0-0.9,0-0.9h0c0,0-0.8,1.9-3.3,1.9c-2.6,0-4.2-2.1-4.2-5.1C403.3,115.6,405.1,113.5,407.7,113.5z
		 M410.9,118.6c0-2-1-3.9-3.1-3.9c-1.7,0-3.2,1.5-3.2,3.9c0,2.4,1.3,3.9,3.1,3.9C409.3,122.6,410.9,121.4,410.9,118.6z"/>
	<path class="st4" d="M415.5,115.3c0-0.3-0.2-0.4-0.4-0.4h-0.8v-1.1h1.4c0.8,0,1.2,0.3,1.2,1.1v4.7c0,1.5,0.3,2.9,2.1,2.9
		c2.2,0,3.6-2,3.6-4.1v-4.7h1.3v8.2c0,0.3,0.2,0.4,0.4,0.4h0.8v1.1h-1.3c-0.8,0-1.2-0.3-1.2-1.1V122c0-0.4,0-0.7,0-0.7h0
		c-0.4,0.9-1.7,2.5-3.8,2.5c-2.3,0-3.3-1.2-3.3-3.8V115.3z"/>
	<path class="st4" d="M432.3,117.5h0.5v-0.1c0-2-0.7-2.8-2.5-2.8c-0.5,0-1.9,0.1-1.9,0.9v0.6h-1.3v-0.9c0-1.4,2.3-1.6,3.2-1.6
		c3.1,0,3.8,1.6,3.8,3.7v4.7c0,0.3,0.2,0.4,0.4,0.4h0.8v1.1h-1.3c-0.8,0-1.2-0.4-1.2-1.2c0-0.4,0-0.7,0-0.7h0c0,0-0.8,2.1-3.2,2.1
		c-1.6,0-3.3-0.9-3.3-2.9C426.3,117.6,430.6,117.5,432.3,117.5z M429.8,122.6c1.9,0,3-1.9,3-3.6v-0.4h-0.6c-1.5,0-4.6,0-4.6,2.2
		C427.7,121.7,428.4,122.6,429.8,122.6z"/>
	<path class="st4" d="M354.3,135.6c0-0.3-0.2-0.4-0.4-0.4h-0.8v-1.1h1.4c0.8,0,1.2,0.3,1.2,1.1v0.7c0,0.4,0,0.7,0,0.7h0
		c0.5-1.5,1.6-2.6,3.1-2.6c0.3,0,0.5,0.1,0.5,0.1v1.3c0,0-0.2,0-0.5,0c-1.4,0-2.4,1.1-2.8,2.5c-0.2,0.6-0.3,1.3-0.3,1.9v4.1h-1.3
		V135.6z"/>
	<path class="st4" d="M361.4,135.6c0-0.3-0.2-0.4-0.4-0.4h-0.8v-1.1h1.4c0.8,0,1.2,0.3,1.2,1.2v7c0,0.3,0.2,0.4,0.4,0.4h0.8v1.1
		h-1.4c-0.8,0-1.2-0.3-1.2-1.2V135.6z M361.4,130.2h1.3v1.7h-1.3V130.2z"/>
	<path class="st4" d="M365.8,141.4c0,0,1.1,1.5,3,1.5c1.1,0,2.1-0.5,2.1-1.6c0-2.1-5.5-1.7-5.5-4.9c0-1.8,1.5-2.6,3.5-2.6
		c1,0,3,0.4,3,1.8v0.8h-1.2V136c0-0.7-1-1-1.7-1c-1.4,0-2.2,0.5-2.2,1.4c0,2.2,5.5,1.7,5.5,4.9c0,1.6-1.5,2.7-3.4,2.7
		c-2.5,0-3.7-1.7-3.7-1.7L365.8,141.4z"/>
	<path class="st4" d="M374.7,135.6c0-0.3-0.2-0.4-0.4-0.4h-0.8v-1.1h1.3c0.8,0,1.2,0.3,1.2,1c0,0.4,0,0.7,0,0.7h0
		c0,0,0.8-1.9,3.4-1.9c2.6,0,4.2,2.1,4.2,5.1c0,3.1-1.8,5.1-4.4,5.1c-2.4,0-3.2-1.8-3.2-1.8h0c0,0,0,0.3,0,0.9v4.6h-1.3V135.6z
		 M379.1,142.9c1.7,0,3.1-1.5,3.1-3.9c0-2.4-1.3-3.9-3.1-3.9c-1.6,0-3.2,1.2-3.2,3.9C376,140.9,377.1,142.9,379.1,142.9z"/>
	<path class="st4" d="M391.1,137.8h0.5v-0.1c0-2-0.7-2.8-2.5-2.8c-0.5,0-1.9,0.1-1.9,0.9v0.6h-1.3v-0.9c0-1.4,2.3-1.6,3.2-1.6
		c3.1,0,3.8,1.6,3.8,3.7v4.7c0,0.3,0.2,0.4,0.4,0.4h0.8v1.1h-1.3c-0.8,0-1.2-0.4-1.2-1.2c0-0.4,0-0.7,0-0.7h0c0,0-0.8,2.1-3.2,2.1
		c-1.6,0-3.3-0.9-3.3-2.9C385.1,137.9,389.4,137.8,391.1,137.8z M388.6,142.9c1.9,0,3-1.9,3-3.6v-0.4h-0.6c-1.5,0-4.6,0-4.6,2.2
		C386.5,142,387.2,142.9,388.6,142.9z"/>
	<path class="st4" d="M396.3,135.6c0-0.3-0.2-0.4-0.4-0.4H395v-1.1h1.4c0.8,0,1.2,0.3,1.2,1.1v0.7c0,0.4,0,0.7,0,0.7h0
		c0.5-1.5,1.6-2.6,3.1-2.6c0.3,0,0.5,0.1,0.5,0.1v1.3c0,0-0.2,0-0.5,0c-1.4,0-2.4,1.1-2.8,2.5c-0.2,0.6-0.3,1.3-0.3,1.9v4.1h-1.3
		V135.6z"/>
	<path class="st4" d="M403.4,135.6c0-0.3-0.2-0.4-0.4-0.4h-0.8v-1.1h1.4c0.8,0,1.2,0.3,1.2,1.1v0.4c0,0.4,0,0.7,0,0.7h0
		c0.5-1.3,2-2.5,3.5-2.5c1.8,0,2.7,0.8,3,2.4h0c0.5-1.3,1.9-2.4,3.6-2.4c2.4,0,3.2,1.4,3.2,3.8v4.6c0,0.3,0.2,0.4,0.4,0.4h0.8v1.1
		H418c-0.8,0-1.2-0.3-1.2-1.2v-4.7c0-1.6-0.3-2.9-2.1-2.9c-1.5,0-2.7,1.3-3.1,2.8c-0.1,0.4-0.2,0.9-0.2,1.4v4.6h-1.3v-5.9
		c0-1.5-0.2-2.9-2.1-2.9c-1.6,0-2.8,1.4-3.2,2.9c-0.1,0.4-0.2,0.9-0.2,1.3v4.6h-1.3V135.6z"/>
	<path class="st4" d="M421.6,135.6c0-0.3-0.2-0.4-0.4-0.4h-0.8v-1.1h1.4c0.8,0,1.2,0.3,1.2,1.2v7c0,0.3,0.2,0.4,0.4,0.4h0.8v1.1
		h-1.4c-0.8,0-1.2-0.3-1.2-1.2V135.6z M421.6,130.2h1.3v1.7h-1.3V130.2z"/>
	<path class="st4" d="M431.4,137.8h0.5v-0.1c0-2-0.7-2.8-2.5-2.8c-0.5,0-1.9,0.1-1.9,0.9v0.6h-1.3v-0.9c0-1.4,2.3-1.6,3.2-1.6
		c3.1,0,3.8,1.6,3.8,3.7v4.7c0,0.3,0.2,0.4,0.4,0.4h0.8v1.1h-1.3c-0.8,0-1.2-0.4-1.2-1.2c0-0.4,0-0.7,0-0.7h0c0,0-0.8,2.1-3.2,2.1
		c-1.6,0-3.3-0.9-3.3-2.9C425.5,137.9,429.7,137.8,431.4,137.8z M429,142.9c1.9,0,3-1.9,3-3.6v-0.4h-0.6c-1.5,0-4.6,0-4.6,2.2
		C426.8,142,427.5,142.9,429,142.9z"/>
	<path class="st4" d="M436.7,135.2h-1.3v-1.1h1.3v-2.7h1.3v2.7h2.4v1.1h-2.4v5c0,2.3,1.5,2.6,2.2,2.6c0.3,0,0.4,0,0.4,0v1.2
		c0,0-0.2,0-0.6,0c-1.1,0-3.4-0.4-3.4-3.6V135.2z"/>
	<path class="st4" d="M443.2,135.6c0-0.3-0.2-0.4-0.4-0.4H442v-1.1h1.4c0.8,0,1.2,0.3,1.2,1.2v7c0,0.3,0.2,0.4,0.4,0.4h0.8v1.1h-1.4
		c-0.8,0-1.2-0.3-1.2-1.2V135.6z M443.2,130.2h1.3v1.7h-1.3V130.2z"/>
	<path class="st4" d="M447.6,142.3h1.5v1.6h-1.5V142.3z"/>
</g>
<g>
	<path class="st4" d="M364.2,195.1c0.7-1.3,1.4-2.3,1.4-2.3v-0.1c0,0-0.6,0.1-1.9,0.1h-8.9c-0.5,0-0.8,0.2-0.8,0.8v1.7h-2.3v-2.5
		c0-1.5,0.6-2.1,2.1-2.1h14.6v1.7l-12.3,23.1h-2.7L364.2,195.1z"/>
	<path class="st4" d="M370.9,213.2h5.5V195c0-0.7,0-1.4,0-1.4h-0.1c0,0-0.2,0.5-1.2,1.5l-2.6,2.6l-1.5-1.6l5.6-5.6h2.3v22.6h5.4v2.2
		h-13.4V213.2z"/>
	<path class="st4" d="M389.8,191.6c0-0.2-0.1-0.4-0.4-0.4h-0.7v-1h1.2c0.8,0,1.1,0.3,1.1,0.9c0,0.4,0,0.6,0,0.6h0
		c0,0,0.7-1.8,3.1-1.8c2.4,0,3.9,1.9,3.9,4.7c0,2.8-1.7,4.7-4,4.7c-2.2,0-2.9-1.7-2.9-1.7h0c0,0,0,0.3,0,0.8v4.2h-1.2V191.6z
		 M393.8,198.2c1.6,0,2.9-1.3,2.9-3.6c0-2.2-1.2-3.6-2.8-3.6c-1.5,0-2.9,1.1-2.9,3.6C390.9,196.4,391.9,198.2,393.8,198.2z"/>
	<path class="st4" d="M400.2,191.6c0-0.2-0.1-0.4-0.4-0.4h-0.7v-1h1.3c0.8,0,1.1,0.3,1.1,1.1v6.4c0,0.3,0.1,0.4,0.4,0.4h0.7v1h-1.3
		c-0.8,0-1.1-0.3-1.1-1.1V191.6z M400.2,186.6h1.2v1.5h-1.2V186.6z"/>
	<path class="st4" d="M404.3,196.9c0,0,1,1.3,2.7,1.3c1,0,1.9-0.5,1.9-1.4c0-1.9-5-1.6-5-4.5c0-1.6,1.4-2.4,3.2-2.4
		c0.9,0,2.7,0.4,2.7,1.6v0.8h-1.1v-0.4c0-0.7-1-0.9-1.5-0.9c-1.2,0-2,0.4-2,1.3c0,2,5,1.5,5,4.5c0,1.5-1.3,2.5-3.1,2.5
		c-2.3,0-3.4-1.6-3.4-1.6L404.3,196.9z"/>
	<path class="st4" d="M416.2,189.9c1,0,3.2,0.4,3.2,1.9v0.8h-1.1v-0.5c0-0.7-1.3-1.1-2-1.1c-1.9,0-3.4,1.4-3.4,3.6
		c0,2.2,1.6,3.6,3.5,3.6c1.8,0,2.9-1.3,2.9-1.3l0.6,0.9c0,0-1.2,1.5-3.5,1.5c-2.7,0-4.7-1.9-4.7-4.7
		C411.5,191.9,413.6,189.9,416.2,189.9z"/>
	<path class="st4" d="M421.8,191.6c0-0.2-0.1-0.4-0.4-0.4h-0.7v-1h1.3c0.8,0,1.1,0.3,1.1,1.1v6.4c0,0.3,0.1,0.4,0.4,0.4h0.7v1h-1.3
		c-0.8,0-1.1-0.3-1.1-1.1V191.6z M421.8,186.6h1.2v1.5h-1.2V186.6z"/>
	<path class="st4" d="M426.2,191.6c0-0.2-0.1-0.4-0.4-0.4H425v-1h1.2c0.7,0,1.1,0.3,1.1,1v0.4c0,0.4,0,0.6,0,0.6h0
		c0.3-0.8,1.5-2.2,3.5-2.2c2.2,0,3,1.3,3,3.4v4.2c0,0.3,0.1,0.4,0.4,0.4h0.7v1h-1.3c-0.8,0-1.1-0.3-1.1-1.1v-4.3
		c0-1.4-0.2-2.6-1.9-2.6c-1.5,0-2.8,1-3.2,2.5c-0.1,0.4-0.1,0.8-0.1,1.2v4.3h-1.2V191.6z"/>
	<path class="st4" d="M440.5,189.9c2.5,0,3.7,1.9,3.7,4.1c0,0.2,0,0.6,0,0.6h-6.8c0,2.2,1.6,3.5,3.4,3.5c1.6,0,2.7-1.1,2.7-1.1
		l0.6,0.9c0,0-1.3,1.3-3.3,1.3c-2.6,0-4.7-1.9-4.7-4.7C436.1,191.7,438.1,189.9,440.5,189.9z M443,193.7c-0.1-1.8-1.2-2.7-2.5-2.7
		c-1.5,0-2.8,1-3.1,2.7H443z"/>
	<path class="st4" d="M393.6,208.1c2.6,0,4.7,2,4.7,4.6c0,2.7-2.1,4.7-4.7,4.7c-2.6,0-4.7-2-4.7-4.7
		C388.9,210,391,208.1,393.6,208.1z M393.6,216.3c1.9,0,3.4-1.6,3.4-3.6c0-2-1.6-3.5-3.4-3.5c-1.9,0-3.5,1.5-3.5,3.5
		C390.2,214.7,391.7,216.3,393.6,216.3z"/>
	<path class="st4" d="M400.4,206.2c0-0.2-0.1-0.4-0.4-0.4h-0.7v-1h1.3c0.8,0,1.1,0.3,1.1,1.1v9.9c0,0.3,0.1,0.4,0.4,0.4h0.7v1h-1.3
		c-0.8,0-1.1-0.3-1.1-1.1V206.2z"/>
	<path class="st4" d="M404.8,209.7c0-0.2-0.1-0.4-0.4-0.4h-0.7v-1h1.3c0.8,0,1.1,0.3,1.1,1.1v6.4c0,0.3,0.1,0.4,0.4,0.4h0.7v1h-1.3
		c-0.8,0-1.1-0.3-1.1-1.1V209.7z M404.8,204.7h1.2v1.5h-1.2V204.7z"/>
	<path class="st4" d="M409.2,209.7c0-0.2-0.1-0.4-0.4-0.4H408v-1h1.2c0.7,0,1.1,0.3,1.1,1v0.4c0,0.4,0,0.6,0,0.6h0
		c0.4-1.2,1.8-2.2,3.2-2.2c1.6,0,2.5,0.8,2.8,2.2h0c0.5-1.2,1.8-2.2,3.3-2.2c2.2,0,3,1.3,3,3.4v4.2c0,0.3,0.1,0.4,0.4,0.4h0.7v1
		h-1.3c-0.8,0-1.1-0.3-1.1-1.1v-4.3c0-1.5-0.3-2.7-1.9-2.7c-1.3,0-2.5,1.2-2.8,2.5c-0.1,0.4-0.2,0.8-0.2,1.3v4.2h-1.2v-5.4
		c0-1.3-0.2-2.7-1.9-2.7c-1.5,0-2.5,1.3-2.9,2.6c-0.1,0.4-0.1,0.8-0.1,1.2v4.2h-1.2V209.7z"/>
	<path class="st4" d="M425.7,209.7c0-0.2-0.1-0.4-0.4-0.4h-0.7v-1h1.2c0.8,0,1.1,0.3,1.1,0.9c0,0.4,0,0.6,0,0.6h0
		c0,0,0.7-1.8,3.1-1.8c2.4,0,3.9,1.9,3.9,4.7c0,2.8-1.7,4.7-4,4.7c-2.2,0-2.9-1.7-2.9-1.7h0c0,0,0,0.3,0,0.8v4.2h-1.2V209.7z
		 M429.7,216.3c1.6,0,2.9-1.3,2.9-3.6c0-2.2-1.2-3.6-2.8-3.6c-1.5,0-2.9,1.1-2.9,3.6C426.8,214.5,427.8,216.3,429.7,216.3z"/>
	<path class="st4" d="M436.1,209.7c0-0.2-0.1-0.4-0.4-0.4H435v-1h1.3c0.8,0,1.1,0.3,1.1,1.1v6.4c0,0.3,0.1,0.4,0.4,0.4h0.7v1h-1.3
		c-0.8,0-1.1-0.3-1.1-1.1V209.7z M436.1,204.7h1.2v1.5h-1.2V204.7z"/>
	<path class="st4" d="M444.3,208.1c2.6,0,4.7,2,4.7,4.6c0,2.7-2.1,4.7-4.7,4.7c-2.6,0-4.7-2-4.7-4.7
		C439.7,210,441.8,208.1,444.3,208.1z M444.4,216.3c1.9,0,3.4-1.6,3.4-3.6c0-2-1.6-3.5-3.4-3.5c-1.9,0-3.5,1.5-3.5,3.5
		C440.9,214.7,442.4,216.3,444.4,216.3z"/>
	<path class="st4" d="M451.3,209.7c0-0.2-0.1-0.4-0.4-0.4h-0.7v-1h1.2c0.7,0,1.1,0.3,1.1,1v0.4c0,0.4,0,0.6,0,0.6h0
		c0.3-0.8,1.5-2.2,3.5-2.2c2.2,0,3,1.3,3,3.4v4.2c0,0.3,0.1,0.4,0.4,0.4h0.7v1h-1.3c-0.8,0-1.1-0.3-1.1-1.1v-4.3
		c0-1.4-0.2-2.6-1.9-2.6c-1.5,0-2.8,1-3.2,2.5c-0.1,0.4-0.1,0.8-0.1,1.2v4.3h-1.2V209.7z"/>
	<path class="st4" d="M462.1,209.7c0-0.2-0.1-0.4-0.4-0.4H461v-1h1.3c0.8,0,1.1,0.3,1.1,1.1v6.4c0,0.3,0.1,0.4,0.4,0.4h0.7v1h-1.3
		c-0.8,0-1.1-0.3-1.1-1.1V209.7z M462.1,204.7h1.2v1.5h-1.2V204.7z"/>
	<path class="st4" d="M470.4,208.1c1,0,3.2,0.4,3.2,1.9v0.8h-1.1v-0.5c0-0.7-1.3-1.1-2-1.1c-1.9,0-3.4,1.4-3.4,3.6
		c0,2.2,1.6,3.6,3.5,3.6c1.8,0,2.9-1.3,2.9-1.3l0.6,0.9c0,0-1.2,1.5-3.5,1.5c-2.7,0-4.7-1.9-4.7-4.7
		C465.7,210,467.7,208.1,470.4,208.1z"/>
	<path class="st4" d="M475.7,206.2c0-0.2-0.1-0.4-0.4-0.4h-0.7v-1h1.3c0.8,0,1.1,0.3,1.1,1v3.8c0,0.4,0,0.7,0,0.7h0
		c0.3-0.8,1.5-2.2,3.5-2.2c2.2,0,3,1.3,3,3.4v4.2c0,0.3,0.1,0.4,0.4,0.4h0.7v1h-1.3c-0.8,0-1.1-0.3-1.1-1.1v-4.3
		c0-1.4-0.2-2.6-1.9-2.6c-1.5,0-2.8,1-3.2,2.5c-0.1,0.4-0.1,0.8-0.1,1.2v4.3h-1.2V206.2z"/>
	<path class="st4" d="M490.1,208.1c2.5,0,3.7,1.9,3.7,4.1c0,0.2,0,0.6,0,0.6h-6.8c0,2.2,1.6,3.5,3.4,3.5c1.6,0,2.7-1.1,2.7-1.1
		l0.6,0.9c0,0-1.3,1.3-3.3,1.3c-2.6,0-4.7-1.9-4.7-4.7C485.7,209.8,487.7,208.1,490.1,208.1z M492.6,211.8c-0.1-1.8-1.2-2.7-2.5-2.7
		c-1.5,0-2.8,1-3.1,2.7H492.6z"/>
</g>
<g>
	<path class="st4" d="M364.2,245.1c0.7-1.3,1.4-2.3,1.4-2.3v-0.1c0,0-0.6,0.1-1.9,0.1h-8.9c-0.5,0-0.8,0.2-0.8,0.8v1.7h-2.3v-2.5
		c0-1.5,0.6-2.1,2.1-2.1h14.6v1.7l-12.2,23h-2.7L364.2,245.1z"/>
	<path class="st4" d="M370.2,254.5c0-6.3,3.2-14.3,10.9-14.3c2.7,0,4.5,1,4.5,1l-0.9,2.1c0,0-1.5-0.9-3.6-0.9
		c-5.2,0-7.8,5.2-8.3,10.2h0.1c1.2-1.9,3.7-3,6.3-3c4.5,0,7.7,3.2,7.7,7.8c0,5.1-3.4,8.3-7.8,8.3C373.7,265.8,370.2,261,370.2,254.5
		z M379.1,263.5c3.3,0,5.3-2.5,5.3-5.9c0-3.4-2.2-5.7-5.6-5.7c-3.3,0-6,2.2-6,4.2C372.8,259.4,375.4,263.5,379.1,263.5z"/>
	<path class="st4" d="M389.9,254.5c0-6.3,3.2-14.3,10.9-14.3c2.7,0,4.5,1,4.5,1l-0.9,2.1c0,0-1.5-0.9-3.6-0.9
		c-5.2,0-7.8,5.2-8.3,10.2h0.1c1.2-1.9,3.7-3,6.3-3c4.5,0,7.7,3.2,7.7,7.8c0,5.1-3.4,8.3-7.8,8.3C393.4,265.8,389.9,261,389.9,254.5
		z M398.8,263.5c3.3,0,5.3-2.5,5.3-5.9c0-3.4-2.2-5.7-5.6-5.7c-3.3,0-6,2.2-6,4.2C392.5,259.4,395.1,263.5,398.8,263.5z"/>
	<path class="st4" d="M410.5,262.6h2.7v2.8h-2.7V262.6z"/>
	<path class="st4" d="M416.8,254.5c0-6.3,3.2-14.3,10.9-14.3c2.7,0,4.5,1,4.5,1l-0.9,2.1c0,0-1.5-0.9-3.6-0.9
		c-5.2,0-7.8,5.2-8.3,10.2h0.1c1.2-1.9,3.7-3,6.3-3c4.5,0,7.7,3.2,7.7,7.8c0,5.1-3.4,8.3-7.8,8.3C420.3,265.8,416.8,261,416.8,254.5
		z M425.7,263.5c3.3,0,5.3-2.5,5.3-5.9c0-3.4-2.2-5.7-5.6-5.7c-3.3,0-6,2.2-6,4.2C419.4,259.4,422,263.5,425.7,263.5z"/>
	<path class="st4" d="M436.5,254.5c0-6.3,3.2-14.3,10.9-14.3c2.7,0,4.5,1,4.5,1l-0.9,2.1c0,0-1.5-0.9-3.6-0.9
		c-5.2,0-7.8,5.2-8.3,10.2h0.1c1.2-1.9,3.7-3,6.3-3c4.5,0,7.7,3.2,7.7,7.8c0,5.1-3.4,8.3-7.8,8.3C440,265.8,436.5,261,436.5,254.5z
		 M445.4,263.5c3.3,0,5.3-2.5,5.3-5.9c0-3.4-2.2-5.7-5.6-5.7c-3.3,0-6,2.2-6,4.2C439.1,259.4,441.7,263.5,445.4,263.5z"/>
	<path class="st4" d="M456.2,254.5c0-6.3,3.2-14.3,10.9-14.3c2.7,0,4.5,1,4.5,1l-0.9,2.1c0,0-1.5-0.9-3.6-0.9
		c-5.2,0-7.8,5.2-8.3,10.2h0.1c1.2-1.9,3.7-3,6.3-3c4.5,0,7.7,3.2,7.7,7.8c0,5.1-3.4,8.3-7.8,8.3C459.7,265.8,456.2,261,456.2,254.5
		z M465.1,263.5c3.3,0,5.3-2.5,5.3-5.9c0-3.4-2.2-5.7-5.6-5.7c-3.3,0-6,2.2-6,4.2C458.8,259.4,461.4,263.5,465.1,263.5z"/>
	<path class="st4" d="M354.7,280.9c-0.1-0.3-0.3-0.4-0.6-0.4h-0.2v-1.1h0.5c0.9,0,1.1,0.2,1.4,1l2.2,5.7c0.2,0.5,0.3,1.1,0.3,1.1h0
		c0,0,0.1-0.6,0.3-1.1l2.2-5.7c0.3-0.8,0.6-1,1.4-1h0.5v1.1h-0.2c-0.3,0-0.5,0.1-0.6,0.4l-3,7.6h-1.3L354.7,280.9z"/>
	<path class="st4" d="M369.3,282.9h0.5v-0.1c0-1.9-0.7-2.6-2.4-2.6c-0.5,0-1.8,0.1-1.8,0.8v0.6h-1.2v-0.9c0-1.3,2.2-1.5,3-1.5
		c2.9,0,3.6,1.5,3.6,3.5v4.4c0,0.3,0.1,0.4,0.4,0.4h0.8v1.1h-1.3c-0.8,0-1.1-0.3-1.1-1.1c0-0.4,0-0.7,0-0.7h0c0,0-0.7,2-3,2
		c-1.5,0-3.1-0.9-3.1-2.7C363.7,283,367.7,282.9,369.3,282.9z M367,287.7c1.7,0,2.8-1.8,2.8-3.4v-0.4h-0.5c-1.4,0-4.3,0-4.3,2.1
		C364.9,286.8,365.6,287.7,367,287.7z"/>
	<path class="st4" d="M373.8,286.3c0,0,1,1.4,2.8,1.4c1,0,1.9-0.5,1.9-1.5c0-2-5.1-1.6-5.1-4.6c0-1.6,1.4-2.5,3.2-2.5
		c0.9,0,2.8,0.4,2.8,1.6v0.8h-1.2v-0.4c0-0.7-1-0.9-1.6-0.9c-1.3,0-2,0.4-2,1.3c0,2,5.1,1.6,5.1,4.6c0,1.5-1.4,2.6-3.2,2.6
		c-2.4,0-3.5-1.6-3.5-1.6L373.8,286.3z"/>
	<path class="st4" d="M386,279.2c1,0,3.2,0.4,3.2,1.9v0.8h-1.2v-0.5c0-0.8-1.3-1.1-2.1-1.1c-2,0-3.5,1.5-3.5,3.7
		c0,2.2,1.6,3.6,3.6,3.6c1.9,0,2.9-1.3,2.9-1.3l0.6,0.9c0,0-1.2,1.5-3.6,1.5c-2.7,0-4.8-1.9-4.8-4.8
		C381.2,281.2,383.3,279.2,386,279.2z"/>
	<path class="st4" d="M391.6,277.2c0-0.3-0.1-0.4-0.4-0.4h-0.8v-1.1h1.3c0.8,0,1.1,0.3,1.1,1.1v3.9c0,0.4,0,0.7,0,0.7h0
		c0.3-0.9,1.6-2.3,3.6-2.3c2.3,0,3.1,1.3,3.1,3.5v4.3c0,0.3,0.1,0.4,0.4,0.4h0.8v1.1h-1.3c-0.8,0-1.1-0.3-1.1-1.1V283
		c0-1.4-0.2-2.7-2-2.7c-1.5,0-2.9,1.1-3.3,2.6c-0.1,0.4-0.1,0.8-0.1,1.2v4.4h-1.2V277.2z"/>
	<path class="st4" d="M406.2,279.2c2.5,0,3.8,1.9,3.8,4.2c0,0.2,0,0.6,0,0.6h-7c0,2.3,1.6,3.6,3.5,3.6c1.7,0,2.7-1.1,2.7-1.1
		l0.6,0.9c0,0-1.3,1.3-3.4,1.3c-2.7,0-4.8-2-4.8-4.8C401.7,281,403.8,279.2,406.2,279.2z M408.8,283c-0.1-1.9-1.2-2.8-2.6-2.8
		c-1.5,0-2.8,1-3.1,2.8H408.8z"/>
	<path class="st4" d="M420.7,279.2c2.2,0,3,1.7,3,1.7h0c0,0,0-0.3,0-0.7v-3c0-0.3-0.1-0.4-0.4-0.4h-0.8v-1.1h1.3
		c0.8,0,1.1,0.3,1.1,1.1V287c0,0.3,0.1,0.4,0.4,0.4h0.8v1.1h-1.3c-0.8,0-1.1-0.3-1.1-1c0-0.3,0-0.6,0-0.6h0c0,0-0.7,1.8-3.1,1.8
		c-2.4,0-4-2-4-4.8C416.6,281.1,418.3,279.2,420.7,279.2z M423.7,283.9c0-1.8-0.9-3.7-2.9-3.7c-1.6,0-2.9,1.4-2.9,3.7
		c0,2.2,1.2,3.7,2.9,3.7C422.3,287.6,423.7,286.5,423.7,283.9z"/>
	<path class="st4" d="M432.9,282.9h0.5v-0.1c0-1.9-0.7-2.6-2.4-2.6c-0.5,0-1.8,0.1-1.8,0.8v0.6H428v-0.9c0-1.3,2.2-1.5,3-1.5
		c2.9,0,3.6,1.5,3.6,3.5v4.4c0,0.3,0.1,0.4,0.4,0.4h0.8v1.1h-1.3c-0.8,0-1.1-0.3-1.1-1.1c0-0.4,0-0.7,0-0.7h0c0,0-0.7,2-3,2
		c-1.5,0-3.1-0.9-3.1-2.7C427.3,283,431.3,282.9,432.9,282.9z M430.6,287.7c1.7,0,2.8-1.8,2.8-3.4v-0.4h-0.5c-1.4,0-4.3,0-4.3,2.1
		C428.5,286.8,429.2,287.7,430.6,287.7z"/>
	<path class="st4" d="M442.6,277.2c0-0.3-0.1-0.4-0.4-0.4h-0.8v-1.1h1.3c0.8,0,1.1,0.3,1.1,1.1v3.3c0,0.4,0,0.7,0,0.7h0
		c0,0,0.8-1.7,3.1-1.7c2.4,0,4,2,4,4.8c0,2.9-1.7,4.8-4.1,4.8c-2.2,0-3-1.8-3-1.8h0c0,0,0,0.3,0,0.7v0.8h-1.2V277.2z M446.7,287.6
		c1.6,0,2.9-1.4,2.9-3.7c0-2.2-1.2-3.7-2.9-3.7c-1.5,0-3,1.1-3,3.7C443.8,285.8,444.7,287.6,446.7,287.6z"/>
	<path class="st4" d="M457.9,282.9h0.5v-0.1c0-1.9-0.7-2.6-2.4-2.6c-0.5,0-1.8,0.1-1.8,0.8v0.6h-1.2v-0.9c0-1.3,2.2-1.5,3-1.5
		c2.9,0,3.6,1.5,3.6,3.5v4.4c0,0.3,0.1,0.4,0.4,0.4h0.8v1.1h-1.3c-0.8,0-1.1-0.3-1.1-1.1c0-0.4,0-0.7,0-0.7h0c0,0-0.7,2-3,2
		c-1.5,0-3.1-0.9-3.1-2.7C452.3,283,456.3,282.9,457.9,282.9z M455.6,287.7c1.7,0,2.8-1.8,2.8-3.4v-0.4h-0.5c-1.4,0-4.3,0-4.3,2.1
		C453.6,286.8,454.2,287.7,455.6,287.7z"/>
	<path class="st4" d="M465.9,279.2c2.4,0,3,1.6,3,1.6h0c0,0,0-0.2,0-0.3c0-0.7,0.3-1,1-1h1.3v1.1h-0.7c-0.3,0-0.4,0.1-0.4,0.4v7.4
		c0,2.9-2.1,4-4.4,4c-1,0-2.1-0.3-3-0.7l0.5-1c0,0,1.1,0.6,2.5,0.6c1.8,0,3.2-0.8,3.2-2.9v-0.8c0-0.3,0-0.7,0-0.7h0
		c-0.5,1-1.4,1.6-2.9,1.6c-2.4,0-4.1-1.9-4.1-4.7C461.9,281,463.4,279.2,465.9,279.2z M468.9,283.8c0-2.7-1.3-3.5-2.9-3.5
		c-1.8,0-2.8,1.3-2.8,3.5c0,2.2,1.2,3.6,3,3.6C467.6,287.4,468.9,286.5,468.9,283.8z"/>
	<path class="st4" d="M473.2,280.9c0-0.3-0.1-0.4-0.4-0.4h-0.8v-1.1h1.3c0.8,0,1.1,0.3,1.1,1v0.4c0,0.4,0,0.7,0,0.7h0
		c0.3-0.8,1.5-2.3,3.6-2.3c2.3,0,3.1,1.3,3.1,3.5v4.3c0,0.3,0.1,0.4,0.4,0.4h0.8v1.1H481c-0.8,0-1.1-0.3-1.1-1.1V283
		c0-1.4-0.2-2.7-2-2.7c-1.6,0-2.9,1.1-3.3,2.6c-0.1,0.4-0.1,0.8-0.1,1.2v4.4h-1.2V280.9z"/>
	<path class="st4" d="M488.2,279.2c2.7,0,4.8,2,4.8,4.7c0,2.8-2.2,4.8-4.8,4.8c-2.7,0-4.8-2.1-4.8-4.8
		C483.4,281.2,485.6,279.2,488.2,279.2z M488.2,287.6c1.9,0,3.5-1.6,3.5-3.7c0-2.1-1.6-3.6-3.5-3.6c-2,0-3.6,1.5-3.6,3.6
		C484.7,286,486.3,287.6,488.2,287.6z"/>
</g>
<g>
	<path class="st4" d="M313.4,162.5h-1v-0.9h6c0.6,0,0.9,0.3,0.9,0.9v1.1h-1v-0.7c0-0.2-0.1-0.3-0.3-0.3h-3.6v3.9h4v0.9h-4v3.6
		c0,0.2,0.1,0.3,0.3,0.3h3.7c0.2,0,0.3-0.1,0.3-0.3v-0.7h1v1.1c0,0.6-0.3,0.9-0.9,0.9h-4.6c-0.6,0-0.9-0.3-0.9-0.9V162.5z"/>
	<path class="st4" d="M324.2,164.4c1.8,0,2.5,1.5,2.5,1.5h0c0,0,0-0.2,0-0.5c0-0.5,0.3-0.8,0.9-0.8h1v0.9h-0.6
		c-0.2,0-0.3,0.1-0.3,0.3v9.4h-1v-3.6c0-0.4,0-0.7,0-0.7h0c0,0-0.6,1.5-2.6,1.5c-2,0-3.3-1.6-3.3-4
		C320.8,165.9,322.3,164.4,324.2,164.4z M326.7,168.3c0-1.5-0.8-3-2.4-3c-1.3,0-2.5,1.1-2.5,3c0,1.9,1,3.1,2.4,3.1
		C325.6,171.4,326.7,170.5,326.7,168.3z"/>
	<path class="st4" d="M330.3,165.8c0-0.2-0.1-0.3-0.3-0.3h-0.6v-0.9h1.1c0.6,0,0.9,0.3,0.9,0.9v3.7c0,1.2,0.2,2.2,1.7,2.2
		c1.7,0,2.8-1.5,2.8-3.2v-3.6h1v6.3c0,0.2,0.1,0.3,0.3,0.3h0.6v0.9h-1c-0.6,0-0.9-0.3-0.9-0.8v-0.3c0-0.3,0-0.5,0-0.5h0
		c-0.3,0.7-1.3,1.9-2.9,1.9c-1.8,0-2.5-1-2.5-2.9V165.8z"/>
	<path class="st4" d="M339.5,165.8c0-0.2-0.1-0.3-0.3-0.3h-0.6v-0.9h1.1c0.6,0,0.9,0.3,0.9,0.9v5.4c0,0.2,0.1,0.3,0.3,0.3h0.6v0.9
		h-1.1c-0.6,0-0.9-0.3-0.9-0.9V165.8z M339.5,161.5h1v1.3h-1V161.5z"/>
	<path class="st4" d="M342.7,165.8c-0.1-0.3-0.3-0.3-0.5-0.3H342v-0.9h0.4c0.7,0,0.9,0.1,1.2,0.8l1.8,4.7c0.1,0.4,0.3,0.9,0.3,0.9h0
		c0,0,0.1-0.5,0.3-0.9l1.8-4.7c0.3-0.7,0.5-0.8,1.2-0.8h0.4v0.9h-0.1c-0.3,0-0.4,0.1-0.5,0.3l-2.5,6.3h-1.1L342.7,165.8z"/>
	<path class="st4" d="M354.8,167.5h0.4v-0.1c0-1.6-0.6-2.1-2-2.1c-0.4,0-1.5,0.1-1.5,0.7v0.5h-1v-0.7c0-1.1,1.8-1.3,2.5-1.3
		c2.4,0,3,1.3,3,2.9v3.6c0,0.2,0.1,0.3,0.3,0.3h0.6v0.9h-1c-0.6,0-0.9-0.3-0.9-0.9c0-0.3,0-0.6,0-0.6h0c0,0-0.6,1.6-2.5,1.6
		c-1.3,0-2.6-0.7-2.6-2.2C350.1,167.6,353.5,167.5,354.8,167.5z M352.9,171.4c1.4,0,2.3-1.5,2.3-2.8v-0.3h-0.4c-1.2,0-3.6,0-3.6,1.7
		C351.2,170.7,351.8,171.4,352.9,171.4z"/>
	<path class="st4" d="M358.8,162.8c0-0.2-0.1-0.3-0.3-0.3h-0.6v-0.9h1.1c0.6,0,0.9,0.3,0.9,0.9v8.4c0,0.2,0.1,0.3,0.3,0.3h0.6v0.9
		h-1.1c-0.6,0-0.9-0.3-0.9-0.9V162.8z"/>
	<path class="st4" d="M365.1,164.4c2,0,2.5,1.3,2.5,1.3h0c0,0,0-0.1,0-0.3c0-0.5,0.2-0.8,0.9-0.8h1.1v0.9h-0.6
		c-0.2,0-0.3,0.1-0.3,0.3v6.2c0,2.4-1.8,3.3-3.6,3.3c-0.9,0-1.7-0.2-2.5-0.6l0.4-0.9c0,0,0.9,0.5,2,0.5c1.5,0,2.6-0.7,2.6-2.4v-0.7
		c0-0.3,0-0.5,0-0.5h0c-0.5,0.8-1.2,1.3-2.4,1.3c-2,0-3.4-1.6-3.4-3.9C361.8,165.9,363.1,164.4,365.1,164.4z M367.6,168.2
		c0-2.2-1.1-2.9-2.4-2.9c-1.5,0-2.3,1.1-2.3,2.9c0,1.8,1,3,2.5,3C366.6,171.2,367.6,170.4,367.6,168.2z"/>
	<path class="st4" d="M374.5,164.4c2.2,0,4,1.7,4,3.9c0,2.3-1.8,4-4,4c-2.2,0-4-1.7-4-4C370.5,166.1,372.3,164.4,374.5,164.4z
		 M374.5,171.4c1.6,0,2.9-1.3,2.9-3.1c0-1.7-1.3-3-2.9-3c-1.6,0-2.9,1.3-2.9,3C371.6,170.1,372.9,171.4,374.5,171.4z"/>
	<path class="st4" d="M380.4,165.8c0-0.2-0.1-0.3-0.3-0.3h-0.6v-0.9h1.1c0.6,0,0.9,0.3,0.9,0.8v0.3c0,0.3,0,0.5,0,0.5h0
		c0.3-0.7,1.2-1.9,3-1.9c1.9,0,2.5,1.1,2.5,2.9v3.6c0,0.2,0.1,0.3,0.3,0.3h0.6v0.9h-1.1c-0.6,0-0.9-0.3-0.9-0.9v-3.6
		c0-1.2-0.2-2.2-1.6-2.2c-1.3,0-2.4,0.9-2.8,2.1c-0.1,0.3-0.1,0.7-0.1,1v3.6h-1V165.8z"/>
	<path class="st4" d="M392.8,164.4c2.2,0,4,1.7,4,3.9c0,2.3-1.8,4-4,4c-2.2,0-4-1.7-4-4C388.9,166.1,390.6,164.4,392.8,164.4z
		 M392.9,171.4c1.6,0,2.9-1.3,2.9-3.1c0-1.7-1.3-3-2.9-3c-1.6,0-2.9,1.3-2.9,3C389.9,170.1,391.2,171.4,392.9,171.4z"/>
	<path class="st4" d="M406.8,167.5h0.4v-0.1c0-1.6-0.6-2.1-2-2.1c-0.4,0-1.5,0.1-1.5,0.7v0.5h-1v-0.7c0-1.1,1.8-1.3,2.5-1.3
		c2.4,0,3,1.3,3,2.9v3.6c0,0.2,0.1,0.3,0.3,0.3h0.6v0.9h-1c-0.6,0-0.9-0.3-0.9-0.9c0-0.3,0-0.6,0-0.6h0c0,0-0.6,1.6-2.5,1.6
		c-1.3,0-2.6-0.7-2.6-2.2C402.1,167.6,405.5,167.5,406.8,167.5z M404.9,171.4c1.4,0,2.3-1.5,2.3-2.8v-0.3h-0.4c-1.2,0-3.6,0-3.6,1.7
		C403.2,170.7,403.8,171.4,404.9,171.4z"/>
</g>
<g>
	<path class="st4" d="M577.7,154h7.3V130c0-0.9,0-1.8,0-1.8H585c0,0-0.3,0.7-1.6,2l-3.5,3.5l-2.1-2.1l7.4-7.4h3.1V154h7.2v2.9h-17.8
		V154z"/>
	<path class="st4" d="M604,153.1l-3.4,8.4H598l2.7-8.4H604z"/>
	<path class="st4" d="M624,130.1c0.9-1.8,1.8-3,1.8-3v-0.1c0,0-0.8,0.1-2.5,0.1h-11.8c-0.7,0-1,0.3-1,1v2.2h-3.1V127
		c0-2,0.8-2.8,2.8-2.8h19.4v2.2l-16.2,30.6h-3.6L624,130.1z"/>
	<path class="st4" d="M632,142.5c0-8.4,4.3-18.9,14.4-18.9c3.6,0,6,1.4,6,1.4l-1.2,2.8c0,0-2.1-1.2-4.8-1.2c-6.9,0-10.4,6.9-11,13.5
		h0.1c1.5-2.6,4.9-4,8.4-4c6,0,10.2,4.3,10.2,10.4c0,6.8-4.6,11-10.3,11C636.7,157.5,632,151.1,632,142.5z M643.8,154.5
		c4.4,0,7-3.4,7-7.9c0-4.6-2.9-7.6-7.4-7.6c-4.4,0-7.9,2.9-7.9,5.6C635.5,149,638.9,154.5,643.8,154.5z"/>
	<path class="st4" d="M547.5,170.9c1.1,0,3.5,0.5,3.5,2.1v0.9h-1.3v-0.6c0-0.8-1.4-1.2-2.3-1.2c-2.1,0-3.8,1.6-3.8,4
		c0,2.4,1.8,4,3.9,4c2,0,3.2-1.4,3.2-1.4l0.6,1c0,0-1.3,1.6-3.9,1.6c-3,0-5.2-2.1-5.2-5.2C542.2,173.1,544.5,170.9,547.5,170.9z"/>
	<path class="st4" d="M557.9,170.9c2.9,0,5.3,2.2,5.3,5.2c0,3-2.3,5.2-5.2,5.2c-2.9,0-5.3-2.2-5.3-5.2
		C552.7,173.1,555,170.9,557.9,170.9z M557.9,180.1c2.1,0,3.8-1.7,3.8-4c0-2.2-1.7-3.9-3.8-3.9c-2.1,0-3.9,1.7-3.9,3.9
		C554,178.4,555.8,180.1,557.9,180.1z"/>
	<path class="st4" d="M565.7,172.8c0-0.3-0.2-0.4-0.4-0.4h-0.8v-1.2h1.4c0.8,0,1.2,0.4,1.2,1.1v0.5c0,0.4,0,0.7,0,0.7h0
		c0.4-0.9,1.6-2.5,3.9-2.5c2.5,0,3.3,1.4,3.3,3.8v4.7c0,0.3,0.2,0.4,0.4,0.4h0.8v1.2h-1.4c-0.8,0-1.2-0.4-1.2-1.2v-4.8
		c0-1.6-0.2-2.9-2.2-2.9c-1.7,0-3.2,1.2-3.6,2.8c-0.1,0.4-0.2,0.9-0.2,1.3v4.8h-1.3V172.8z"/>
	<path class="st4" d="M577.3,178.7c0,0,1.1,1.5,3.1,1.5c1.1,0,2.1-0.5,2.1-1.6c0-2.2-5.6-1.8-5.6-5c0-1.8,1.5-2.7,3.5-2.7
		c1,0,3,0.4,3,1.8v0.8h-1.3v-0.5c0-0.7-1.1-1-1.7-1c-1.4,0-2.2,0.5-2.2,1.4c0,2.2,5.6,1.7,5.6,5c0,1.7-1.5,2.8-3.5,2.8
		c-2.6,0-3.8-1.7-3.8-1.7L577.3,178.7z"/>
	<path class="st4" d="M586.3,172.8c0-0.3-0.2-0.4-0.4-0.4H585v-1.2h1.4c0.8,0,1.2,0.4,1.2,1.2v4.8c0,1.6,0.3,2.9,2.2,2.9
		c2.2,0,3.7-2,3.7-4.1v-4.8h1.3v8.3c0,0.3,0.2,0.4,0.4,0.4h0.8v1.2h-1.4c-0.8,0-1.2-0.4-1.2-1.1v-0.5c0-0.4,0-0.7,0-0.7h0
		c-0.4,1-1.7,2.5-3.9,2.5c-2.3,0-3.3-1.3-3.3-3.8V172.8z"/>
	<path class="st4" d="M598.3,172.8c0-0.3-0.2-0.4-0.4-0.4H597v-1.2h1.4c0.8,0,1.2,0.4,1.2,1.1v0.5c0,0.4,0,0.7,0,0.7h0
		c0.5-1.3,2.1-2.5,3.6-2.5c1.8,0,2.8,0.8,3.1,2.5h0c0.5-1.3,2-2.5,3.7-2.5c2.4,0,3.3,1.4,3.3,3.8v4.7c0,0.3,0.2,0.4,0.4,0.4h0.8v1.2
		h-1.4c-0.8,0-1.2-0.4-1.2-1.2v-4.8c0-1.6-0.3-3-2.2-3c-1.5,0-2.7,1.3-3.1,2.8c-0.1,0.4-0.2,0.9-0.2,1.4v4.7h-1.3v-6
		c0-1.5-0.2-3-2.1-3c-1.6,0-2.8,1.4-3.2,2.9c-0.1,0.4-0.2,0.9-0.2,1.3v4.7h-1.3V172.8z"/>
	<path class="st4" d="M620.9,170.9c2.9,0,5.3,2.2,5.3,5.2c0,3-2.3,5.2-5.2,5.2c-2.9,0-5.3-2.2-5.3-5.2
		C615.7,173.1,618.1,170.9,620.9,170.9z M621,180.1c2.1,0,3.8-1.7,3.8-4c0-2.2-1.7-3.9-3.8-3.9c-2.1,0-3.9,1.7-3.9,3.9
		C617.1,178.4,618.8,180.1,621,180.1z"/>
	<path class="st4" d="M634.1,172.8c0-0.3-0.2-0.4-0.4-0.4h-0.8v-1.2h1.4c0.8,0,1.2,0.4,1.2,1.1v0.5c0,0.4,0,0.7,0,0.7h0
		c0.5-1.3,2.1-2.5,3.6-2.5c1.8,0,2.8,0.8,3.1,2.5h0c0.5-1.3,2-2.5,3.7-2.5c2.4,0,3.3,1.4,3.3,3.8v4.7c0,0.3,0.2,0.4,0.4,0.4h0.8v1.2
		h-1.4c-0.8,0-1.2-0.4-1.2-1.2v-4.8c0-1.6-0.3-3-2.2-3c-1.5,0-2.7,1.3-3.1,2.8c-0.1,0.4-0.2,0.9-0.2,1.4v4.7h-1.3v-6
		c0-1.5-0.2-3-2.1-3c-1.6,0-2.8,1.4-3.2,2.9c-0.1,0.4-0.2,0.9-0.2,1.3v4.7h-1.3V172.8z"/>
	<path class="st4" d="M656.4,170.9c2.7,0,4.2,2.1,4.2,4.6c0,0.2,0,0.7,0,0.7h-7.6c0,2.5,1.8,3.9,3.8,3.9c1.8,0,3-1.2,3-1.2l0.7,1
		c0,0-1.4,1.4-3.7,1.4c-2.9,0-5.2-2.1-5.2-5.2C651.5,172.9,653.8,170.9,656.4,170.9z M659.2,175.1c-0.1-2.1-1.3-3.1-2.8-3.1
		c-1.6,0-3.1,1.1-3.4,3.1H659.2z"/>
	<path class="st4" d="M666.9,170.9c2.4,0,3.2,1.9,3.2,1.9h0c0,0,0-0.3,0-0.8v-3.2c0-0.3-0.2-0.4-0.4-0.4h-0.8v-1.2h1.4
		c0.9,0,1.2,0.4,1.2,1.2v11.1c0,0.3,0.2,0.4,0.4,0.4h0.8v1.2h-1.4c-0.8,0-1.2-0.4-1.2-1.1c0-0.4,0-0.6,0-0.6h0c0,0-0.8,2-3.4,2
		c-2.7,0-4.3-2.1-4.3-5.2C662.4,173,664.3,170.9,666.9,170.9z M670.1,176.1c0-2-1-4-3.2-4c-1.8,0-3.2,1.5-3.2,4c0,2.4,1.3,4,3.1,4
		C668.6,180.1,670.1,178.9,670.1,176.1z"/>
	<path class="st4" d="M675,172.8c0-0.3-0.2-0.4-0.4-0.4h-0.8v-1.2h1.4c0.8,0,1.2,0.4,1.2,1.2v7.1c0,0.3,0.2,0.4,0.4,0.4h0.8v1.2
		h-1.4c-0.8,0-1.2-0.4-1.2-1.2V172.8z M675,167.2h1.3v1.7H675V167.2z"/>
	<path class="st4" d="M684.2,170.9c2.9,0,5.3,2.2,5.3,5.2c0,3-2.3,5.2-5.2,5.2c-2.9,0-5.3-2.2-5.3-5.2
		C678.9,173.1,681.3,170.9,684.2,170.9z M684.2,180.1c2.1,0,3.8-1.7,3.8-4c0-2.2-1.7-3.9-3.8-3.9c-2.1,0-3.9,1.7-3.9,3.9
		C680.3,178.4,682,180.1,684.2,180.1z"/>
	<path class="st4" d="M582.5,192.5c0-0.3-0.2-0.4-0.4-0.4h-0.8v-1.2h1.4c0.8,0,1.2,0.4,1.2,1c0,0.4,0,0.7,0,0.7h0c0,0,0.8-2,3.4-2
		c2.7,0,4.3,2.1,4.3,5.2c0,3.1-1.9,5.2-4.4,5.2c-2.4,0-3.3-1.9-3.3-1.9h0c0,0,0,0.4,0,0.9v4.7h-1.3V192.5z M586.9,199.8
		c1.8,0,3.2-1.5,3.2-4c0-2.4-1.3-4-3.1-4c-1.7,0-3.2,1.2-3.2,4C583.8,197.8,584.8,199.8,586.9,199.8z"/>
	<path class="st4" d="M598,190.6c2.7,0,4.2,2.1,4.2,4.6c0,0.2,0,0.7,0,0.7h-7.6c0,2.5,1.8,3.9,3.8,3.9c1.8,0,3-1.2,3-1.2l0.7,1
		c0,0-1.4,1.4-3.7,1.4c-2.9,0-5.2-2.1-5.2-5.2C593.1,192.6,595.4,190.6,598,190.6z M600.8,194.8c-0.1-2.1-1.3-3.1-2.8-3.1
		c-1.6,0-3.1,1.1-3.4,3.1H600.8z"/>
	<path class="st4" d="M604.9,192.5c0-0.3-0.2-0.4-0.4-0.4h-0.8v-1.2h1.4c0.8,0,1.2,0.3,1.2,1.1v0.7c0,0.4,0,0.8,0,0.8h0
		c0.5-1.5,1.6-2.6,3.1-2.6c0.3,0,0.5,0.1,0.5,0.1v1.3c0,0-0.2,0-0.5,0c-1.4,0-2.4,1.1-2.9,2.6c-0.2,0.6-0.3,1.3-0.3,1.9v4.2h-1.3
		V192.5z"/>
	<path class="st4" d="M617.4,188.5c0-0.3-0.2-0.4-0.4-0.4h-0.8v-1.2h1.4c0.8,0,1.2,0.4,1.2,1.2v11.1c0,0.3,0.2,0.4,0.4,0.4h0.8v1.2
		h-1.4c-0.8,0-1.2-0.4-1.2-1.2V188.5z"/>
	<path class="st4" d="M622.3,192.5c0-0.3-0.2-0.4-0.4-0.4h-0.8v-1.2h1.4c0.8,0,1.2,0.4,1.2,1.2v7.1c0,0.3,0.2,0.4,0.4,0.4h0.8v1.2
		h-1.4c-0.8,0-1.2-0.4-1.2-1.2V192.5z M622.3,186.9h1.3v1.7h-1.3V186.9z"/>
	<path class="st4" d="M627.3,192H626v-1.1h1.3v-2.7h1.3v2.7h2.5v1.1h-2.5v5.1c0,2.3,1.5,2.6,2.2,2.6c0.3,0,0.5,0,0.5,0v1.2
		c0,0-0.2,0-0.6,0c-1.1,0-3.5-0.4-3.5-3.7V192z"/>
	<path class="st4" d="M633.8,192.5c0-0.3-0.2-0.4-0.4-0.4h-0.8v-1.2h1.4c0.8,0,1.2,0.3,1.2,1.1v0.7c0,0.4,0,0.8,0,0.8h0
		c0.5-1.5,1.6-2.6,3.1-2.6c0.3,0,0.5,0.1,0.5,0.1v1.3c0,0-0.2,0-0.5,0c-1.4,0-2.4,1.1-2.9,2.6c-0.2,0.6-0.3,1.3-0.3,1.9v4.2h-1.3
		V192.5z"/>
	<path class="st4" d="M644.9,190.6c2.9,0,5.3,2.2,5.3,5.2c0,3-2.3,5.2-5.2,5.2c-2.9,0-5.3-2.2-5.3-5.2
		C639.6,192.8,642,190.6,644.9,190.6z M644.9,199.8c2.1,0,3.8-1.7,3.8-4c0-2.2-1.7-3.9-3.8-3.9c-2.1,0-3.9,1.7-3.9,3.9
		C641,198.1,642.7,199.8,644.9,199.8z"/>
	<path class="st4" d="M560,212.2c0-0.3-0.2-0.4-0.4-0.4h-0.8v-1.2h1.4c0.8,0,1.2,0.4,1.2,1.2v7.1c0,0.3,0.2,0.4,0.4,0.4h0.8v1.2
		h-1.4c-0.8,0-1.2-0.4-1.2-1.2V212.2z M560,206.6h1.3v1.7H560V206.6z"/>
	<path class="st4" d="M564.9,212.2c0-0.3-0.2-0.4-0.4-0.4h-0.8v-1.2h1.4c0.8,0,1.2,0.4,1.2,1.1v0.5c0,0.4,0,0.7,0,0.7h0
		c0.5-1.3,2.1-2.5,3.6-2.5c1.8,0,2.8,0.8,3.1,2.5h0c0.5-1.3,2-2.5,3.7-2.5c2.4,0,3.3,1.4,3.3,3.8v4.7c0,0.3,0.2,0.4,0.4,0.4h0.8v1.2
		h-1.4c-0.8,0-1.2-0.4-1.2-1.2v-4.8c0-1.6-0.3-3-2.2-3c-1.5,0-2.7,1.3-3.1,2.8c-0.1,0.4-0.2,0.9-0.2,1.4v4.7h-1.3v-6
		c0-1.5-0.2-3-2.1-3c-1.6,0-2.8,1.4-3.2,2.9c-0.1,0.4-0.2,0.9-0.2,1.3v4.7h-1.3V212.2z"/>
	<path class="st4" d="M583.2,208.2c0-0.3-0.2-0.4-0.4-0.4h-0.8v-1.2h1.4c0.8,0,1.2,0.4,1.2,1.2v3.6c0,0.5,0,0.8,0,0.8h0
		c0,0,0.8-1.9,3.4-1.9c2.7,0,4.3,2.1,4.3,5.2c0,3.1-1.9,5.2-4.5,5.2c-2.4,0-3.3-1.9-3.3-1.9h0c0,0,0,0.3,0,0.8v0.9h-1.3V208.2z
		 M587.6,219.5c1.8,0,3.2-1.5,3.2-4c0-2.4-1.3-4-3.1-4c-1.7,0-3.2,1.2-3.2,4C584.5,217.5,585.5,219.5,587.6,219.5z"/>
	<path class="st4" d="M599.1,210.3c2.9,0,5.3,2.2,5.3,5.2c0,3-2.3,5.2-5.2,5.2c-2.9,0-5.3-2.2-5.3-5.2
		C593.8,212.5,596.2,210.3,599.1,210.3z M599.1,219.5c2.1,0,3.8-1.7,3.8-4c0-2.3-1.7-3.9-3.8-3.9c-2.1,0-3.9,1.7-3.9,3.9
		C595.2,217.8,597,219.5,599.1,219.5z"/>
	<path class="st4" d="M607,211.7h-1.3v-1.1h1.3v-2.7h1.3v2.7h2.5v1.1h-2.5v5.1c0,2.3,1.5,2.6,2.2,2.6c0.3,0,0.5,0,0.5,0v1.2
		c0,0-0.2,0-0.6,0c-1.1,0-3.5-0.4-3.5-3.7V211.7z"/>
	<path class="st4" d="M613.6,211.7h-1.3v-1.1h1.3v-2.7h1.3v2.7h2.5v1.1h-2.5v5.1c0,2.3,1.5,2.6,2.2,2.6c0.3,0,0.5,0,0.5,0v1.2
		c0,0-0.2,0-0.6,0c-1.1,0-3.5-0.4-3.5-3.7V211.7z"/>
	<path class="st4" d="M620.2,212.2c0-0.3-0.2-0.4-0.4-0.4h-0.8v-1.2h1.4c0.8,0,1.2,0.4,1.2,1.2v7.1c0,0.3,0.2,0.4,0.4,0.4h0.8v1.2
		h-1.4c-0.8,0-1.2-0.4-1.2-1.2V212.2z M620.1,206.6h1.3v1.7h-1.3V206.6z"/>
	<path class="st4" d="M628.4,210.3c2.7,0,3.3,1.7,3.3,1.7h0c0,0,0-0.2,0-0.4c0-0.7,0.3-1.1,1.1-1.1h1.4v1.2h-0.8
		c-0.3,0-0.4,0.1-0.4,0.4v8.1c0,3.2-2.3,4.4-4.8,4.4c-1.1,0-2.3-0.3-3.2-0.8l0.5-1.1c0,0,1.2,0.7,2.7,0.7c1.9,0,3.5-0.9,3.5-3.1
		v-0.9c0-0.4,0-0.7,0-0.7h0c-0.6,1.1-1.6,1.7-3.1,1.7c-2.7,0-4.4-2.1-4.4-5.1C624.1,212.4,625.8,210.3,628.4,210.3z M631.7,215.3
		c0-2.9-1.4-3.8-3.1-3.8c-1.9,0-3.1,1.4-3.1,3.8c0,2.4,1.3,3.9,3.2,3.9C630.3,219.2,631.7,218.3,631.7,215.3z"/>
	<path class="st4" d="M636.4,208.2c0-0.3-0.2-0.4-0.4-0.4h-0.8v-1.2h1.4c0.8,0,1.2,0.4,1.2,1.2v11.1c0,0.3,0.2,0.4,0.4,0.4h0.8v1.2
		h-1.4c-0.8,0-1.2-0.4-1.2-1.2V208.2z"/>
	<path class="st4" d="M641.4,212.2c0-0.3-0.2-0.4-0.4-0.4h-0.8v-1.2h1.4c0.8,0,1.2,0.4,1.2,1.2v7.1c0,0.3,0.2,0.4,0.4,0.4h0.8v1.2
		h-1.4c-0.8,0-1.2-0.4-1.2-1.2V212.2z M641.4,206.6h1.3v1.7h-1.3V206.6z"/>
	<path class="st4" d="M651.4,214.4h0.6v-0.1c0-2.1-0.8-2.8-2.6-2.8c-0.5,0-1.9,0.1-1.9,0.9v0.6h-1.3V212c0-1.4,2.4-1.7,3.2-1.7
		c3.1,0,3.9,1.7,3.9,3.8v4.8c0,0.3,0.2,0.4,0.4,0.4h0.8v1.2h-1.4c-0.8,0-1.2-0.4-1.2-1.2c0-0.4,0-0.7,0-0.7h0c0,0-0.8,2.2-3.3,2.2
		c-1.7,0-3.4-1-3.4-2.9C645.3,214.5,649.7,214.4,651.4,214.4z M648.9,219.6c1.9,0,3-2,3-3.7v-0.5h-0.6c-1.6,0-4.7,0-4.7,2.3
		C646.7,218.6,647.4,219.6,648.9,219.6z"/>
	<path class="st4" d="M656.8,211.7h-1.3v-1.1h1.3v-2.7h1.3v2.7h2.5v1.1h-2.5v5.1c0,2.3,1.5,2.6,2.2,2.6c0.3,0,0.5,0,0.5,0v1.2
		c0,0-0.2,0-0.6,0c-1.1,0-3.5-0.4-3.5-3.7V211.7z"/>
	<path class="st4" d="M667.4,210.3c2.9,0,5.3,2.2,5.3,5.2c0,3-2.3,5.2-5.2,5.2c-2.9,0-5.3-2.2-5.3-5.2
		C662.2,212.5,664.5,210.3,667.4,210.3z M667.4,219.5c2.1,0,3.8-1.7,3.8-4c0-2.3-1.7-3.9-3.8-3.9c-2.1,0-3.9,1.7-3.9,3.9
		C663.6,217.8,665.3,219.5,667.4,219.5z"/>
	<path class="st4" d="M570.9,230c1.1,0,3.5,0.5,3.5,2.1v0.9h-1.3v-0.6c0-0.8-1.4-1.2-2.3-1.2c-2.1,0-3.8,1.6-3.8,4
		c0,2.4,1.8,4,3.9,4c2,0,3.2-1.4,3.2-1.4l0.6,1c0,0-1.3,1.6-3.9,1.6c-3,0-5.2-2.1-5.2-5.2C565.7,232.2,567.9,230,570.9,230z"/>
	<path class="st4" d="M581.3,230c2.9,0,5.3,2.2,5.3,5.2c0,3-2.3,5.2-5.2,5.2c-2.9,0-5.3-2.2-5.3-5.2
		C576.1,232.2,578.5,230,581.3,230z M581.4,239.2c2.1,0,3.8-1.7,3.8-4c0-2.3-1.7-3.9-3.8-3.9c-2.1,0-3.9,1.7-3.9,3.9
		C577.5,237.5,579.2,239.2,581.4,239.2z"/>
	<path class="st4" d="M589.1,231.9c0-0.3-0.2-0.4-0.4-0.4h-0.8v-1.2h1.4c0.8,0,1.2,0.4,1.2,1.1v0.5c0,0.4,0,0.7,0,0.7h0
		c0.4-0.9,1.6-2.5,3.9-2.5c2.5,0,3.3,1.4,3.3,3.8v4.7c0,0.3,0.2,0.4,0.4,0.4h0.8v1.2h-1.4c-0.8,0-1.2-0.4-1.2-1.2v-4.8
		c0-1.6-0.2-2.9-2.2-2.9c-1.7,0-3.2,1.2-3.6,2.8c-0.1,0.4-0.2,0.9-0.2,1.3v4.8h-1.3V231.9z"/>
	<path class="st4" d="M601.2,231.4h-1.3v-1.1h1.3v-2.7h1.3v2.7h2.5v1.1h-2.5v5.1c0,2.3,1.5,2.6,2.2,2.6c0.3,0,0.5,0,0.5,0v1.2
		c0,0-0.2,0-0.6,0c-1.1,0-3.5-0.4-3.5-3.7V231.4z"/>
	<path class="st4" d="M607.7,231.9c0-0.3-0.2-0.4-0.4-0.4h-0.8v-1.2h1.4c0.8,0,1.2,0.3,1.2,1.1v0.7c0,0.4,0,0.8,0,0.8h0
		c0.5-1.5,1.6-2.6,3.1-2.6c0.3,0,0.5,0.1,0.5,0.1v1.3c0,0-0.2,0-0.5,0c-1.4,0-2.4,1.1-2.9,2.6c-0.2,0.6-0.3,1.3-0.3,1.9v4.2h-1.3
		V231.9z"/>
	<path class="st4" d="M618.8,230c2.9,0,5.3,2.2,5.3,5.2c0,3-2.3,5.2-5.2,5.2c-2.9,0-5.3-2.2-5.3-5.2
		C613.5,232.2,615.9,230,618.8,230z M618.8,239.2c2.1,0,3.8-1.7,3.8-4c0-2.3-1.7-3.9-3.8-3.9c-2.1,0-3.9,1.7-3.9,3.9
		C614.9,237.5,616.7,239.2,618.8,239.2z"/>
	<path class="st4" d="M631.5,239h3.1v-10.2c0-0.4,0-0.8,0-0.8h0c0,0-0.1,0.3-0.7,0.8l-1.5,1.5l-0.9-0.9l3.1-3.1h1.3V239h3v1.2h-7.5
		V239z"/>
	<path class="st4" d="M642.6,238.6l-1.4,3.5H640l1.1-3.5H642.6z"/>
	<path class="st4" d="M647.2,232.6L647.2,232.6c0,0-1.9-0.9-1.9-2.9c0-1.9,1.5-3.6,4.2-3.6c2.6,0,4.2,1.5,4.2,3.7
		c0,2.1-1.9,3.4-1.9,3.4v0c1.3,0.7,2.2,1.6,2.2,3.2c0,2.2-2,4-4.7,4c-2.4,0-4.7-1.5-4.7-4.1C644.8,233.8,647.2,232.6,647.2,232.6z
		 M649.5,239.1c1.6,0,3.2-1.1,3.2-2.7c0-1.4-1.2-2-2.6-2.6c-0.5-0.2-1.5-0.6-1.6-0.6c-0.5,0-2.3,1.3-2.3,3
		C646.2,238,647.8,239.1,649.5,239.1z M650.6,232.6c0.5,0,1.8-1.4,1.8-2.8c0-1.5-1.2-2.4-2.9-2.4c-1.8,0-2.8,1-2.8,2.3
		c0,1.5,1.2,2,2.7,2.5C649.7,232.3,650.4,232.6,650.6,232.6z"/>
	<path class="st4" d="M656,233.2c0-4,1.2-7.2,4.8-7.2c3.6,0,4.8,3.2,4.8,7.2c0,4-1.2,7.2-4.8,7.2C657.2,240.4,656,237.3,656,233.2z
		 M664.2,233.2c0-3.3-0.8-5.9-3.4-5.9c-2.6,0-3.4,2.6-3.4,5.9c0,3.3,0.7,5.9,3.4,5.9C663.4,239.1,664.2,236.6,664.2,233.2z"/>
	<path class="st4" d="M579.6,252.5c0-0.3-0.2-0.4-0.4-0.4h-0.8V251h1.4c0.8,0,1.2,0.4,1.2,1.1v0.5c0,0.4,0,0.7,0,0.7h0
		c0.4-0.9,1.6-2.5,3.9-2.5c2.5,0,3.3,1.4,3.3,3.8v4.7c0,0.3,0.2,0.4,0.4,0.4h0.8v1.2h-1.4c-0.8,0-1.2-0.4-1.2-1.2v-4.8
		c0-1.6-0.2-2.9-2.2-2.9c-1.7,0-3.2,1.2-3.6,2.8c-0.1,0.4-0.2,0.9-0.2,1.3v4.8h-1.3V252.5z"/>
	<path class="st4" d="M595.6,250.7c2.7,0,4.2,2.1,4.2,4.6c0,0.2,0,0.7,0,0.7h-7.6c0,2.5,1.8,3.9,3.8,3.9c1.8,0,3-1.2,3-1.2l0.7,1
		c0,0-1.4,1.4-3.7,1.4c-2.9,0-5.2-2.1-5.2-5.2C590.7,252.7,592.9,250.7,595.6,250.7z M598.4,254.9c-0.1-2.1-1.3-3.1-2.8-3.1
		c-1.6,0-3.1,1.1-3.4,3.1H598.4z"/>
	<path class="st4" d="M602.4,248.6c0-0.3-0.2-0.4-0.4-0.4h-0.8V247h1.4c0.8,0,1.2,0.4,1.2,1.2v11.1c0,0.3,0.2,0.4,0.4,0.4h0.8v1.2
		h-1.4c-0.8,0-1.2-0.4-1.2-1.2V248.6z"/>
	<path class="st4" d="M619.1,250.7c0-1.5-1.1-2.6-2.8-2.6c-1.4,0-2.5,0.7-2.5,1.5v0.7h-1.3v-1c0-1.8,2.4-2.4,3.8-2.4
		c2.6,0,4.2,1.7,4.2,3.9c0,4.9-7.3,4.8-7.3,8.6c0,0.3,0.2,0.4,0.5,0.4h5.8c0.3,0,0.4-0.1,0.4-0.4v-0.9h1.3v1.4
		c0,0.8-0.4,1.2-1.2,1.2H613c-0.9,0-1.2-0.4-1.2-1.4C611.8,254.4,619.1,254.8,619.1,250.7z"/>
	<path class="st4" d="M623.2,253.9c0-4,1.2-7.2,4.8-7.2c3.6,0,4.8,3.2,4.8,7.2c0,4-1.2,7.2-4.8,7.2
		C624.3,261.1,623.2,258,623.2,253.9z M631.3,253.9c0-3.3-0.8-5.9-3.4-5.9c-2.6,0-3.4,2.6-3.4,5.9c0,3.3,0.7,5.9,3.4,5.9
		C630.6,259.8,631.3,257.2,631.3,253.9z"/>
	<path class="st4" d="M634.8,259.7h3.1v-10.2c0-0.4,0-0.8,0-0.8h0c0,0-0.1,0.3-0.7,0.8l-1.5,1.5l-0.9-0.9l3.1-3.1h1.3v12.7h3v1.2
		h-7.5V259.7z"/>
	<path class="st4" d="M642.9,256.1l6.7-9.1h1.5v8.8h2.2v1.2h-2.2v3.8h-1.4V257h-6.8V256.1z M649.8,250.2c0-0.6,0.1-1.3,0.1-1.3h0
		c0,0-0.3,0.6-0.7,1.1l-3.8,5.1c-0.4,0.5-0.7,0.9-0.7,0.9v0c0,0,0.6-0.1,1.1-0.1h4.1V250.2z"/>
</g>
</svg>
