<svg enable-background="new 0 0 797.3 379.3" viewBox="0 0 797.3 379.3" xmlns="http://www.w3.org/2000/svg"><path clip-rule="evenodd" d="m401.5 18.7c56.6 0 102.5 45.9 102.5 102.5v138.7c0 56.6-45.9 102.5-102.5 102.5s-102.5-45.9-102.5-102.5v-138.7c0-56.6 45.9-102.5 102.5-102.5z" fill="#c0b07f" fill-rule="evenodd"/><g fill="#4e5594"><path d="m278.6 65-.5.7.9.6.5-.7zm-143.9-15.1c.3.6 1 1 1.6.7.7-.3 1-1 .7-1.7-.2-.6-1-.9-1.6-.7-.7.3-1 1.1-.7 1.7zm-6.5 1.5c-.7.3-.9 1.1-.6 1.7s1 .9 1.7.6c.6-.3.9-1.1.6-1.7s-1-.9-1.7-.6zm13.7-4.3c.2.7.9 1 1.6.8s1-.9.8-1.6c-.2-.6-1-1-1.6-.8h-.1c-.6.2-.9.9-.7 1.6zm-20.7 7.8c-.6.4-.8 1.1-.5 1.7s1.1.9 1.7.5.8-1.1.5-1.7-1-.8-1.6-.6c0 .1 0 .1-.1.1zm28.1-10.3c.2.7.9 1.1 1.6.9s1-.9.9-1.6c-.2-.7-.9-1.1-1.6-.9-.1 0-.1 0-.1.1-.7.3-1 .9-.8 1.5zm-34.9 14.2c-.6.3-.8 1.1-.4 1.8.3.6 1.1.8 1.8.4.6-.4.8-1.2.4-1.8-.3-.5-1-.8-1.6-.5zm42.4-16.2c.1.7.8 1.1 1.5.9s1.1-.8 1-1.5c-.2-.7-.8-1.1-1.5-.9h-.2c-.7.2-1 .9-.8 1.5zm-49 20.5c-.6.4-.7 1.2-.3 1.8s1.2.7 1.8.3.7-1.2.3-1.8c-.3-.5-1-.7-1.5-.5zm56.5-22.2c.1.7.8 1.2 1.5 1 .7-.1 1.2-.8 1-1.5-.1-.7-.8-1.2-1.5-1-.1 0-.2 0-.2.1-.6.2-.9.8-.8 1.4zm-62.8 26.7c-.6.4-.7 1.2-.2 1.8.4.6 1.2.7 1.8.2.5-.4.7-1.2.2-1.8-.4-.5-1-.6-1.5-.4-.1.1-.2.2-.3.2zm70.5-27.9c.1.7.7 1.2 1.4 1.1s1.2-.7 1.1-1.4-.7-1.2-1.4-1.1l-.3.1c-.6.2-.9.7-.8 1.3zm-76.6 32.8c-.5.5-.6 1.3-.2 1.8.5.6 1.3.6 1.8.2.5-.5.6-1.3.1-1.8-.4-.4-1-.5-1.5-.3 0 0-.1 0-.2.1zm84.3-33.7c.1.7.7 1.2 1.4 1.2s1.2-.7 1.2-1.4c-.1-.7-.7-1.2-1.4-1.2-.2 0-.3 0-.4.1-.5.2-.8.7-.8 1.3zm7.7-.5c0 .7.6 1.2 1.3 1.2s1.2-.6 1.2-1.3-.6-1.2-1.3-1.2l-.5.1c-.3.2-.7.7-.7 1.2zm7.8 0c0 .7.5 1.3 1.2 1.3s1.3-.5 1.3-1.2-.5-1.3-1.2-1.3c-.2 0-.4 0-.5.1-.5.1-.8.5-.8 1.1zm7.7.3c0 .7.5 1.3 1.2 1.4s1.3-.5 1.4-1.2c0-.7-.5-1.3-1.2-1.4-.2 0-.4 0-.6.1-.4.2-.7.6-.8 1.1zm7.8.7c-.1.7.4 1.4 1.1 1.4.7.1 1.3-.4 1.4-1.1s-.4-1.3-1.1-1.4c-.2 0-.5 0-.7.1-.4.2-.7.6-.7 1zm7.6 1.2c-.1.7.4 1.3 1 1.5.7.1 1.4-.3 1.5-1s-.3-1.4-1-1.5c-.2 0-.5 0-.7.1-.4.1-.7.4-.8.9zm7.7 1.5c-.2.7.3 1.4.9 1.5.7.2 1.4-.3 1.5-.9.2-.7-.3-1.4-.9-1.5-.3-.1-.6 0-.8.1-.4.1-.6.4-.7.8zm7.5 1.9c-.2.7.2 1.4.9 1.6s1.4-.2 1.6-.9-.2-1.4-.9-1.6c-.3-.1-.6-.1-.8 0-.4.2-.7.5-.8.9zm7.4 2.3c-.3.7.1 1.4.8 1.6s1.4-.1 1.6-.8-.1-1.4-.8-1.6c-.3-.1-.6-.1-.9 0-.3.2-.6.5-.7.8zm7.2 2.7c-.3.7 0 1.4.7 1.7s1.4 0 1.7-.7 0-1.4-.7-1.7c-.3-.1-.7-.1-1 0-.3.2-.5.4-.7.7zm7.2 3.1c-.3.6 0 1.4.6 1.7s1.4 0 1.7-.6c.3-.7 0-1.4-.6-1.7-.3-.2-.7-.2-1.1 0-.3.1-.5.3-.6.6zm6.9 3.5c-.3.6-.1 1.4.5 1.7s1.4.1 1.7-.5c.4-.6.1-1.4-.5-1.7-.4-.2-.8-.2-1.1-.1-.2.1-.4.3-.6.6zm6.8 3.8c-.4.6-.2 1.4.4 1.7s1.4.2 1.7-.4c.4-.6.2-1.4-.4-1.7-.4-.2-.8-.3-1.2-.1-.2 0-.4.2-.5.5zm-184.9 23.8c-.5.5-.5 1.3 0 1.8s1.3.5 1.8 0 .5-1.3 0-1.8c-.4-.4-.9-.5-1.4-.3-.2.1-.3.2-.4.3zm-5.2 5.6c-.5.5-.4 1.3.1 1.8.6.5 1.4.4 1.8-.1.5-.5.4-1.4-.1-1.8-.4-.3-.9-.4-1.3-.2-.2 0-.3.2-.5.3zm-4.8 5.9c-.4.6-.3 1.4.2 1.8s1.3.3 1.8-.2c.4-.5.3-1.3-.2-1.8-.4-.3-.9-.4-1.3-.2-.2.1-.4.2-.5.4zm-4.6 6.1c-.4.6-.2 1.4.3 1.8.6.4 1.4.3 1.8-.3s.3-1.4-.3-1.8c-.4-.2-.8-.3-1.2-.1-.3 0-.5.2-.6.4zm-4.2 6.3c-.4.6-.2 1.4.4 1.8s1.4.2 1.8-.4.2-1.4-.4-1.8c-.4-.2-.8-.2-1.2-.1-.3.1-.5.3-.6.5zm-4 6.6c-.4.6-.1 1.4.5 1.7.6.4 1.4.1 1.8-.5s.1-1.4-.5-1.7c-.4-.2-.8-.2-1.1-.1s-.5.3-.7.6zm-3.6 6.7c-.3.6 0 1.4.6 1.7s1.4.1 1.7-.6c.3-.6.1-1.4-.6-1.7-.3-.2-.7-.2-1.1 0-.2.1-.4.3-.6.6zm-3.2 6.9c-.3.6 0 1.4.7 1.7.6.3 1.4 0 1.7-.7s0-1.4-.7-1.7c-.3-.1-.7-.2-1 0s-.5.4-.7.7zm-2.8 7.1c-.3.7.1 1.4.7 1.6s1.4-.1 1.6-.7c.3-.7-.1-1.4-.7-1.6-.3-.1-.6-.1-.9 0s-.6.3-.7.7zm-2.6 7.2c-.2.7.1 1.4.8 1.6s1.4-.2 1.6-.8c.2-.7-.2-1.4-.8-1.6-.3-.1-.6-.1-.9 0s-.5.4-.7.8zm-2.1 7.3c-.2.7.2 1.4.9 1.5.7.2 1.4-.2 1.5-.9.2-.7-.2-1.4-.9-1.6-.3 0-.6 0-.8.1-.3.2-.6.5-.7.9zm-1.8 7.4c-.1.7.3 1.4 1 1.5.7.2 1.3-.3 1.5-1s-.3-1.4-1-1.5c-.2 0-.5 0-.7.1-.4.1-.7.5-.8.9zm-1.3 7.5c-.1.7.4 1.4 1 1.5.7.1 1.3-.4 1.5-1 .1-.7-.4-1.3-1-1.5-.2 0-.5 0-.7.1-.5.1-.8.5-.8.9zm-1.1 7.6c-.1.7.4 1.3 1.1 1.4s1.3-.4 1.4-1.1c0-.7-.5-1.3-1.2-1.4-.2 0-.4 0-.6.1-.3.1-.6.5-.7 1zm-.6 7.5c0 .7.5 1.3 1.2 1.4.7 0 1.3-.5 1.3-1.2s-.5-1.3-1.2-1.4c-.2 0-.4 0-.5.1-.4.2-.8.6-.8 1.1zm-.2 7.7c0 .7.6 1.3 1.3 1.3s1.3-.6 1.3-1.3-.6-1.3-1.3-1.3c-.2 0-.3 0-.5.1-.5.2-.8.6-.8 1.2zm.1 7.5c0 .7.6 1.3 1.3 1.2.7 0 1.2-.6 1.2-1.3s-.6-1.2-1.3-1.2c-.2 0-.3 0-.4.1-.5.2-.8.7-.8 1.2zm.5 7.6c.1.7.7 1.2 1.4 1.1s1.2-.7 1.1-1.4-.7-1.2-1.4-1.1c-.1 0-.3 0-.4.1-.4.3-.7.8-.7 1.3zm.9 7.6c.1.7.8 1.2 1.5 1.1s1.2-.8 1.1-1.5-.7-1.2-1.4-1.1l-.3.1c-.6.3-1 .8-.9 1.4zm1.3 7.5c.1.7.8 1.1 1.5 1s1.1-.8 1-1.5-.8-1.1-1.5-1c-.1 0-.2 0-.2.1-.6.2-.9.8-.8 1.4zm1.7 7.4c.2.7.9 1.1 1.6.9s1.1-.9.9-1.6-.9-1.1-1.5-.9c-.1 0-.1 0-.2.1-.6.3-1 .9-.8 1.5zm2 7.4c.2.7.9 1 1.6.8s1-.9.9-1.6c-.2-.7-.9-1.1-1.6-.9h-.1c-.7.4-1 1-.8 1.7zm2.4 7.2c.2.6.9 1 1.6.7.7-.2 1-1 .8-1.6s-1-1-1.6-.7h-.1c-.6.2-.9.9-.7 1.6zm2.8 7.1c.3.7 1 1 1.7.7s1-1 .7-1.7-1-1-1.7-.7-1 1-.7 1.7zm3.7 5.2c-.6.3-.9 1.1-.6 1.7s1.1.9 1.7.6.9-1.1.6-1.7-1-.9-1.7-.6zm3.4 6.7c-.6.4-.8 1.1-.5 1.7.4.6 1.1.8 1.7.5s.9-1.1.5-1.7c-.3-.6-1-.8-1.6-.5zm3.8 6.6c-.6.4-.8 1.1-.4 1.7s1.1.8 1.7.4.8-1.1.4-1.7-1-.8-1.6-.5zm4 6.3c-.6.4-.7 1.2-.3 1.8s1.2.7 1.8.3.7-1.2.3-1.7c-.3-.5-1-.7-1.5-.5-.2.1-.2.1-.3.1zm4.4 6.2c-.6.4-.7 1.2-.2 1.8.4.5 1.2.6 1.8.2s.7-1.2.2-1.8c-.4-.5-1-.6-1.5-.4zm4.7 5.9c-.5.5-.6 1.3-.1 1.8s1.3.6 1.8.2c.5-.5.6-1.3.2-1.8-.4-.4-1-.5-1.5-.3-.2 0-.3 0-.4.1zm10.4 11.2c-.5.5-.5 1.3 0 1.8s1.3.5 1.8 0 .5-1.3 0-1.8c-.4-.3-.9-.4-1.4-.2-.1 0-.3.1-.4.2zm5.6 5.3c-.5.5-.4 1.3.1 1.8s1.3.4 1.8-.1.4-1.3-.1-1.8c-.4-.3-.9-.4-1.3-.2-.2 0-.3.2-.5.3zm6 5c-.4.6-.3 1.4.2 1.8s1.3.3 1.8-.2c.4-.6.3-1.3-.2-1.8-.4-.3-.8-.3-1.2-.2-.3.1-.5.2-.6.4zm6.1 4.6c-.4.6-.2 1.4.3 1.8.6.4 1.4.3 1.8-.3s.3-1.4-.3-1.8c-.4-.2-.8-.3-1.2-.1-.2.1-.4.2-.6.4zm6.5 4.3c-.4.6-.2 1.4.4 1.8s1.4.2 1.8-.4.2-1.4-.4-1.8c-.4-.2-.8-.2-1.2-.1-.3.1-.5.3-.6.5zm6.6 4c-.3.6-.1 1.4.5 1.7s1.4.1 1.7-.5c.4-.6.1-1.4-.5-1.7-.3-.2-.8-.2-1.1-.1-.2.1-.5.3-.6.6zm6.8 3.6c-.3.6 0 1.4.6 1.7s1.4 0 1.7-.6.1-1.4-.6-1.7c-.3-.2-.7-.2-1.1 0-.2.1-.4.3-.6.6zm7 3.3c-.3.7 0 1.4.7 1.7s1.4 0 1.7-.7 0-1.4-.7-1.7c-.3-.1-.7-.1-1 0-.3.2-.5.4-.7.7zm7.2 2.9c-.2.6.1 1.4.7 1.6.7.3 1.4-.1 1.6-.8s-.1-1.4-.7-1.6c-.3-.1-.6-.1-.9 0-.3.2-.5.4-.7.8zm7.4 2.5c-.2.7.2 1.4.8 1.6.7.2 1.4-.2 1.6-.9s-.2-1.4-.9-1.6c-.3-.1-.6-.1-.9.1-.2.1-.5.4-.6.8zm7.4 2.1c-.1.7.2 1.4.9 1.6.7.1 1.4-.3 1.6-1s-.3-1.4-.9-1.5c-.3-.1-.6 0-.8.1-.4.1-.7.4-.8.8zm7.5 1.8c-.1.7.3 1.4 1 1.5s1.3-.3 1.5-1c.1-.7-.3-1.3-1-1.5-.3-.1-.5 0-.7.1-.4.1-.7.4-.8.9zm7.6 1.3c-.1.7.4 1.3 1.1 1.4s1.4-.4 1.4-1.1c.1-.7-.4-1.4-1.1-1.4-.2 0-.5 0-.7.1-.3.2-.6.6-.7 1zm7.7 1c-.1.7.5 1.3 1.1 1.4.7.1 1.3-.4 1.4-1.1 0-.7-.5-1.3-1.1-1.4-.2 0-.4 0-.6.1-.4.1-.7.5-.8 1zm7.7.6c0 .7.5 1.3 1.2 1.3s1.3-.5 1.3-1.2-.5-1.3-1.2-1.3c-.2 0-.4 0-.6.1-.3.1-.7.5-.7 1.1zm7.8.1c0 .7.6 1.3 1.3 1.3s1.3-.6 1.3-1.3-.6-1.3-1.3-1.3c-.2 0-.3 0-.5.1-.5.2-.8.7-.8 1.2zm7.7-.2c0 .7.7 1.2 1.3 1.2.7-.1 1.2-.7 1.2-1.4s-.6-1.2-1.4-1.2c-.1 0-.3 0-.4.1-.4.2-.7.7-.7 1.3zm7.7-.7c.1.7.7 1.2 1.4 1.1s1.2-.7 1.1-1.4-.7-1.2-1.4-1.1c-.1 0-.2 0-.3.1-.5.2-.9.7-.8 1.3zm7.7-1c.1.7.8 1.2 1.4 1.1.7-.1 1.2-.8 1-1.5-.1-.7-.8-1.2-1.4-1-.1 0-.2 0-.3.1-.5.1-.8.7-.7 1.3zm7.6-1.4c.2.7.8 1.1 1.5.9.7-.1 1.1-.8 1-1.5s-.8-1.1-1.5-1c-.1 0-.2 0-.2.1-.6.2-1 .8-.8 1.5zm43.6-18.4c-.6.4-.8 1.1-.5 1.7s1.1.8 1.7.5.8-1.1.5-1.7-1-.8-1.6-.5c0-.1-.1 0-.1 0zm-36.1 16.5c.2.7.9 1.1 1.6.9s1.1-.9.9-1.6-.9-1.1-1.6-.9c-.1 0-.1 0-.1.1-.6.3-1 .9-.8 1.5zm29.4-12.8c-.6.3-.9 1.1-.5 1.7.3.6 1.1.9 1.7.5.6-.3.9-1.1.6-1.7s-1-.8-1.6-.6zm-22 10.6c.2.6 1 1 1.6.8.7-.2 1-.9.8-1.6-.2-.6-.9-1-1.6-.8h-.1c-.6.3-.9 1-.7 1.6zm15.1-7.2c-.7.3-1 1-.6 1.7.3.6 1.1.9 1.7.6s.9-1 .6-1.7c-.3-.6-1.1-.9-1.7-.6zm-7.8 4.6c.2.6 1 1 1.6.7.6-.2 1-1 .7-1.7-.3-.6-1-1-1.6-.7-.7.4-1 1.1-.7 1.7zm28.1-15.9c-.2.1-.3.2-.4.3l-.3.4c-.1.2-.1.3-.1.5s0 .3.1.5c.1.3.4.6.7.7.6.2 1.4-.1 1.7-.7.1-.3.1-.7 0-1-.1-.2-.2-.3-.3-.4l-.4-.3c-.4-.1-.7-.1-1 0zm-190.9-22.2c-.3.1-.6.4-.7.7s-.1.6 0 .9c.1.2.2.3.3.4l.4.3c.2.1.3.1.5.1.3 0 .7-.1.9-.4l.3-.4c.1-.1.1-.3.1-.5s0-.3-.1-.5c-.1-.3-.4-.5-.7-.7-.4-.1-.7-.1-1 .1zm6.8-210.7c-.2.1-.3.2-.4.3s-.2.2-.3.4-.1.3-.1.5 0 .3.1.5l.3.4.4.3c.6.3 1.4-.1 1.6-.7.1-.3.1-.7 0-1l-.3-.4-.4-.3c-.1-.1-.3-.1-.5-.1-.1 0-.3 0-.4.1zm186.2-14.6c-.2.1-.3.2-.4.3l-.3.4c-.1.3-.1.7 0 1l.3.4.4.3c.6.3 1.4-.1 1.7-.7 0-.1.1-.3.1-.5s0-.4-.1-.5c-.1-.3-.4-.5-.7-.7-.2-.1-.3-.1-.5-.1-.2.1-.4.1-.5.1zm0-.2c-1.8 1.7-1.9 4.6-.2 6.4s4.6 1.9 6.4.2 1.9-4.6.2-6.4c-1.7-1.9-4.5-1.9-6.4-.2"/><path d="m277.5 309.6 1.5 5 4.4-8.7-9.7.2z"/><path clip-rule="evenodd" d="m615.8 93.6c51.7 0 93.6 41.9 93.6 93.6v1.9c0 51.7-41.9 93.6-93.6 93.6s-93.6-41.9-93.6-93.6v-1.9c0-51.7 41.9-93.6 93.6-93.6z" fill-rule="evenodd"/><path d="m524.1 65 .5.7-.9.6-.5-.7zm143.9-15.2c-.3.6-1 1-1.6.7-.7-.3-1-1-.7-1.7.2-.6 1-.9 1.6-.7.7.3 1 1.1.7 1.7zm6.5 1.5c.7.3.9 1.1.6 1.7s-1 .9-1.7.6c-.6-.3-.9-1.1-.6-1.7s1-.8 1.7-.6zm-13.7-4.3c-.2.7-.9 1-1.6.8s-1-.9-.8-1.6c.2-.6 1-1 1.6-.8h.1c.6.3.9 1 .7 1.6zm20.7 7.9c.6.3.8 1.1.5 1.7s-1.1.9-1.7.5-.8-1.1-.5-1.7 1-.8 1.6-.6c0 0 .1 0 .1.1zm-28.1-10.3c-.2.7-.9 1.1-1.6.9s-1-.9-.9-1.6c.2-.7.9-1.1 1.6-.9.1 0 .1 0 .1.1.7.2 1 .9.8 1.5zm34.9 14.2c.6.3.8 1.1.4 1.8-.3.6-1.1.8-1.8.4-.6-.4-.8-1.2-.4-1.8.3-.5 1-.8 1.6-.5.1 0 .2 0 .2.1zm-42.4-16.2c-.1.7-.8 1.1-1.5.9s-1.1-.8-1-1.5c.2-.7.8-1.1 1.5-.9h.2c.7.2 1 .8.8 1.5zm49 20.4c.6.4.7 1.2.3 1.8s-1.2.7-1.8.3-.7-1.2-.3-1.8c.3-.5 1-.7 1.5-.5zm-56.5-22.1c-.1.7-.8 1.2-1.5 1-.7-.1-1.2-.8-1-1.5.1-.7.8-1.2 1.5-1 .1 0 .2 0 .2.1.6.2.9.8.8 1.4zm62.8 26.7c.6.4.7 1.2.2 1.8-.4.6-1.2.7-1.8.2-.5-.4-.7-1.2-.2-1.8.4-.5 1-.6 1.5-.4.1.1.3.1.3.2zm-70.5-28c-.1.7-.7 1.2-1.4 1.1s-1.2-.7-1.1-1.4.7-1.2 1.4-1.1l.3.1c.6.2.9.8.8 1.3zm76.6 32.9c.5.5.6 1.3.2 1.8-.5.6-1.3.6-1.8.2-.5-.5-.6-1.3-.1-1.8.4-.4 1-.5 1.5-.3 0-.1.1 0 .2.1zm-84.3-33.7c-.1.7-.7 1.2-1.4 1.2s-1.2-.7-1.2-1.4c.1-.7.7-1.2 1.4-1.2.2 0 .3.1.4.1.5.2.8.7.8 1.3zm-7.7-.5c0 .7-.6 1.2-1.3 1.2s-1.2-.6-1.2-1.3.6-1.2 1.3-1.2l.5.1c.3.2.7.7.7 1.2zm-7.8-.1c0 .7-.5 1.3-1.2 1.3s-1.3-.5-1.3-1.2.5-1.3 1.2-1.3c.2 0 .4 0 .5.1.5.2.8.6.8 1.1zm-7.8.4c0 .7-.5 1.3-1.2 1.4-.7 0-1.3-.5-1.4-1.2 0-.7.5-1.3 1.2-1.4.2 0 .4 0 .6.1.5.2.8.6.8 1.1zm-7.7.7c.1.7-.4 1.4-1.1 1.4-.7.1-1.3-.4-1.4-1.1s.4-1.3 1.1-1.4c.2 0 .5 0 .7.1.3.2.7.5.7 1zm-7.7 1.2c.1.7-.4 1.3-1 1.5-.7.1-1.4-.3-1.5-1s.3-1.4 1-1.5c.2 0 .5 0 .7.1.5.1.8.4.8.9zm-7.6 1.5c.2.7-.3 1.4-.9 1.5-.7.2-1.4-.3-1.5-.9-.2-.7.3-1.4.9-1.5.3-.1.6 0 .8.1.3 0 .6.4.7.8zm-7.5 1.9c.2.7-.2 1.4-.9 1.6s-1.4-.2-1.6-.9.2-1.4.9-1.6c.3-.1.6-.1.8 0 .4.2.7.5.8.9zm-7.4 2.3c.3.7-.1 1.4-.8 1.6s-1.4-.1-1.6-.8.1-1.4.8-1.6c.3-.1.6-.1.9 0 .3.2.6.4.7.8zm-7.3 2.7c.3.7 0 1.4-.7 1.7s-1.4 0-1.7-.7 0-1.4.7-1.7c.3-.1.7-.1 1 0s.6.4.7.7zm-7.1 3.1c.3.6 0 1.4-.6 1.7s-1.4 0-1.7-.6c-.3-.7 0-1.4.6-1.7.3-.2.7-.2 1.1 0 .2 0 .5.3.6.6zm-7 3.4c.3.6.1 1.4-.5 1.7s-1.4.1-1.7-.5c-.4-.6-.1-1.4.5-1.7.4-.2.8-.2 1.1-.1.3.2.5.4.6.6zm-6.7 3.8c.4.6.2 1.4-.4 1.7s-1.4.2-1.8-.4-.2-1.4.4-1.7c.4-.2.8-.3 1.2-.1.2.1.4.2.6.5zm184.9 23.9c.5.5.5 1.3 0 1.8s-1.3.5-1.8 0-.5-1.3 0-1.8c.4-.4.9-.5 1.4-.3.2 0 .3.1.4.3zm5.2 5.6c.5.5.4 1.3-.1 1.8-.6.5-1.4.4-1.8-.1-.5-.5-.4-1.4.1-1.8.4-.3.9-.4 1.3-.2.2 0 .4.1.5.3zm4.9 5.8c.4.6.3 1.4-.2 1.8s-1.3.3-1.8-.2c-.4-.5-.3-1.3.2-1.8.4-.3.9-.4 1.3-.2zm4.5 6.2c.4.6.2 1.4-.3 1.8-.6.4-1.4.3-1.8-.3s-.3-1.4.3-1.8c.4-.2.8-.3 1.2-.1.3 0 .5.1.6.4zm4.3 6.3c.4.6.2 1.4-.4 1.8s-1.4.2-1.8-.4-.2-1.4.4-1.8c.4-.2.8-.2 1.2-.1.2.1.4.2.6.5zm3.9 6.5c.4.6.1 1.4-.5 1.7-.6.4-1.4.1-1.8-.5s-.1-1.4.5-1.7c.4-.2.8-.2 1.1-.1.3.2.6.4.7.6zm3.6 6.8c.3.6 0 1.4-.6 1.7s-1.4.1-1.7-.6c-.3-.6-.1-1.4.6-1.7.3-.2.7-.2 1.1 0 .2.1.4.3.6.6zm3.2 6.9c.3.6 0 1.4-.7 1.7-.6.3-1.4 0-1.7-.7s0-1.4.7-1.7c.3-.1.7-.2 1 0 .3.1.6.3.7.7zm2.9 7c.3.7-.1 1.4-.8 1.6-.6.2-1.4-.1-1.6-.7-.3-.7.1-1.4.8-1.6.3-.1.6-.1.9 0s.6.4.7.7zm2.5 7.2c.2.7-.1 1.4-.8 1.6s-1.4-.2-1.6-.8c-.2-.7.2-1.4.8-1.6.3-.1.6-.1.9 0 .3.2.6.4.7.8zm2.2 7.3c.2.7-.2 1.4-.9 1.5-.7.2-1.4-.2-1.5-.9-.2-.7.2-1.4.9-1.6.3 0 .6 0 .8.1.3.2.5.6.7.9zm1.7 7.4c.1.7-.3 1.4-1 1.5-.7.2-1.3-.3-1.5-1s.3-1.4 1-1.5c.2 0 .5 0 .7.1.4.2.7.5.8.9zm1.4 7.5c.1.7-.4 1.4-1 1.5-.7.1-1.3-.4-1.5-1-.1-.7.4-1.3 1-1.5.2 0 .5 0 .7.1.4.1.7.5.8.9zm1 7.6c.1.7-.4 1.3-1.1 1.4s-1.3-.4-1.4-1.1c0-.7.5-1.3 1.2-1.4.2 0 .4 0 .6.1.4.1.7.5.7 1zm.6 7.6c0 .7-.5 1.3-1.2 1.4-.7 0-1.3-.5-1.3-1.2s.5-1.3 1.2-1.4c.2 0 .4 0 .5.1.5.1.8.6.8 1.1zm.3 7.6c0 .7-.6 1.3-1.3 1.3s-1.3-.6-1.3-1.3.6-1.3 1.3-1.3c.2 0 .3 0 .5.1.5.2.8.6.8 1.2zm-.2 7.6c0 .7-.6 1.3-1.3 1.2-.7 0-1.2-.6-1.2-1.3s.6-1.2 1.3-1.2c.2 0 .3 0 .4.1.6.1.9.6.8 1.2zm-.5 7.6c-.1.7-.7 1.2-1.4 1.1s-1.2-.7-1.1-1.4.7-1.2 1.4-1.1c.1 0 .3 0 .4.1.5.2.8.7.7 1.3zm-.9 7.5c-.1.7-.8 1.2-1.5 1.1s-1.2-.8-1.1-1.5.7-1.2 1.4-1.1l.3.1c.7.3 1 .9.9 1.4zm-1.3 7.5c-.1.7-.8 1.1-1.5 1s-1.1-.8-1-1.5.8-1.1 1.5-1c.1 0 .2 0 .2.1.6.2 1 .8.8 1.4zm-1.6 7.4c-.2.7-.9 1.1-1.6.9s-1.1-.9-.9-1.6.9-1.1 1.5-.9c.1 0 .1 0 .2.1.6.3.9.9.8 1.5zm-2.1 7.4c-.2.7-.9 1-1.6.8s-1-.9-.9-1.6c.2-.7.9-1.1 1.6-.9h.1c.7.4 1 1.1.8 1.7zm-2.4 7.2c-.2.6-1 1-1.6.7-.7-.2-1-1-.8-1.6s1-1 1.6-.7h.1c.7.2 1 1 .7 1.6zm-2.7 7.1c-.3.7-1 1-1.7.7s-1-1-.7-1.7 1-1 1.7-.7c.6.3.9 1 .7 1.7zm-3.8 5.2c.6.3.9 1.1.6 1.7s-1.1.9-1.7.6-.9-1.1-.6-1.7 1-.9 1.7-.6zm-3.4 6.7c.6.4.8 1.1.5 1.7-.4.6-1.1.8-1.7.5s-.9-1.1-.5-1.7c.3-.6 1-.8 1.6-.5zm-3.7 6.6c.6.4.8 1.1.4 1.7s-1.1.8-1.7.4-.8-1.1-.4-1.7 1-.8 1.6-.5c0 0 0 .1.1.1zm-4.1 6.4c.6.4.7 1.2.3 1.8s-1.2.7-1.8.3-.7-1.2-.3-1.8c.3-.5 1-.7 1.5-.5.2.1.2.1.3.2zm-4.4 6.1c.6.4.7 1.2.2 1.8-.4.5-1.2.6-1.8.2s-.7-1.2-.2-1.8c.4-.5 1-.6 1.5-.4.2.1.2.1.3.2zm-4.6 5.9c.5.5.6 1.3.1 1.8s-1.3.6-1.8.2c-.5-.5-.6-1.3-.2-1.8.4-.4 1-.5 1.5-.3.1 0 .3 0 .4.1zm-10.4 11.2c.5.5.5 1.3 0 1.8s-1.3.5-1.8 0-.5-1.3 0-1.8c.4-.3.9-.4 1.4-.2.1 0 .2.1.4.2zm-5.7 5.3c.5.5.4 1.3-.1 1.8s-1.3.4-1.8-.1-.4-1.3.1-1.8c.4-.3.9-.4 1.3-.2.2.1.4.2.5.3zm-5.9 5c.4.6.3 1.4-.2 1.8s-1.3.3-1.8-.2c-.4-.6-.3-1.3.2-1.8.4-.3.8-.3 1.2-.2.2.1.4.2.6.4zm-6.2 4.6c.4.6.2 1.4-.3 1.8-.6.4-1.4.3-1.8-.3s-.3-1.4.3-1.8c.4-.3.8-.3 1.2-.1.2.1.4.2.6.4zm-6.4 4.3c.4.6.2 1.4-.4 1.8s-1.4.2-1.8-.4-.2-1.4.4-1.8c.4-.2.8-.2 1.2-.1.2.1.4.3.6.5zm-6.7 4c.3.6.1 1.4-.5 1.7s-1.4.1-1.7-.5c-.4-.6-.1-1.4.5-1.7.3-.2.8-.2 1.1-.1.2.1.5.3.6.6zm-6.8 3.6c.3.6 0 1.4-.6 1.7s-1.4 0-1.7-.6-.1-1.4.6-1.7c.3-.2.7-.2 1.1 0 .2.1.4.3.6.6zm-7 3.3c.3.7 0 1.4-.7 1.7s-1.4 0-1.7-.7 0-1.4.7-1.7c.3-.1.7-.1 1 0 .3.2.5.4.7.7zm-7.2 2.9c.2.6-.1 1.4-.7 1.6-.7.3-1.4-.1-1.6-.8s.1-1.4.8-1.6c.3-.1.6-.1.9 0 .2.2.5.4.6.8zm-7.3 2.5c.2.7-.2 1.4-.8 1.6-.7.2-1.4-.2-1.6-.9s.2-1.4.9-1.6c.3-.1.6-.1.9.1.2.1.4.4.6.8zm-7.5 2.1c.1.7-.2 1.4-.9 1.6-.7.1-1.4-.3-1.6-1s.3-1.4.9-1.5c.3-.1.6 0 .8.1.4.1.7.4.8.8zm-7.5 1.8c.1.7-.3 1.4-1 1.5s-1.4-.3-1.5-1 .3-1.3 1-1.5c.3-.1.5 0 .7.1.4.1.7.4.8.9zm-7.6 1.3c.1.7-.4 1.3-1.1 1.4s-1.4-.4-1.4-1.1c-.1-.7.4-1.4 1.1-1.4.3 0 .5 0 .7.1.3.2.6.6.7 1zm-7.7 1c.1.7-.5 1.3-1.1 1.4-.7.1-1.3-.4-1.4-1.1 0-.7.5-1.3 1.1-1.4.2 0 .4 0 .6.1.4.1.7.5.8 1zm-7.7.5c0 .7-.5 1.3-1.2 1.3s-1.3-.5-1.3-1.2.5-1.3 1.2-1.3c.2 0 .4 0 .6.1.3.2.6.6.7 1.1zm-7.8.2c0 .7-.6 1.3-1.3 1.3s-1.3-.6-1.3-1.3.6-1.3 1.3-1.3c.2 0 .3 0 .5.1.5.2.8.7.8 1.2zm-7.7-.3c0 .7-.7 1.2-1.3 1.2-.7-.1-1.2-.7-1.2-1.4s.6-1.2 1.4-1.2c.1 0 .3 0 .4.1.4.3.7.8.7 1.3zm-7.7-.6c-.1.7-.7 1.2-1.4 1.1s-1.2-.7-1.1-1.4.7-1.2 1.4-1.1c.1 0 .2 0 .3.1.5.2.8.7.8 1.3zm-7.7-1c-.1.7-.8 1.2-1.4 1-.7-.1-1.2-.8-1-1.5.1-.7.8-1.2 1.4-1.1.1 0 .2 0 .3.1.5.3.8.9.7 1.5zm-7.6-1.5c-.2.7-.8 1.1-1.5.9-.7-.1-1.1-.8-1-1.5s.8-1.1 1.5-1c.1 0 .2 0 .2.1.6.3.9.9.8 1.5zm-43.6-18.3c.6.4.8 1.1.5 1.7s-1.1.8-1.7.5-.8-1.1-.5-1.7 1-.8 1.6-.5zm36.1 16.5c-.2.7-.9 1.1-1.6.9s-1.1-.9-.9-1.6.9-1.1 1.6-.9c.1 0 .1 0 .1.1.6.3 1 .9.8 1.5zm-29.4-12.8c.6.3.9 1.1.5 1.7-.3.6-1.1.9-1.7.5-.6-.3-.9-1.1-.6-1.7s1-.8 1.6-.6c.1.1.1.1.2.1zm22 10.6c-.2.6-1 1-1.6.8-.7-.2-1-.9-.8-1.6.2-.6 1-1 1.6-.8h.1c.5.3.9 1 .7 1.6zm-15.1-7.2c.7.3 1 1 .7 1.7-.3.6-1.1.9-1.7.6s-.9-1-.6-1.7c.2-.6.9-.9 1.6-.6zm7.8 4.6c-.2.6-1 1-1.6.7-.6-.2-1-1-.7-1.7.3-.6 1-1 1.6-.7.6.4.9 1.1.7 1.7zm-28.1-15.9c.2.1.3.2.4.3l.3.4c.1.2.1.3.1.5s0 .3-.1.5c-.1.3-.4.6-.7.7-.6.2-1.4-.1-1.7-.7-.1-.3-.1-.7 0-1 .1-.2.2-.3.3-.4l.4-.3c.3-.1.6-.1 1 0zm191-22.2c.3.1.6.4.7.7s.1.6 0 .9c-.1.2-.2.3-.3.4l-.4.3c-.2.1-.3.1-.5.1-.3 0-.7-.1-.9-.4l-.3-.4c-.1-.1-.1-.3-.1-.5s0-.3.1-.5c.1-.3.4-.5.7-.7.3-.1.6-.1 1 .1zm-6.9-210.7c.2.1.3.2.4.3l.3.4c.1.2.1.3.1.5s0 .3-.1.5l-.3.4-.4.3c-.6.3-1.4-.1-1.6-.7-.1-.3-.1-.7 0-1l.3-.4.4-.3c.1-.1.3-.1.5-.1.1.1.3.1.4.1zm-186.2-14.5c.2.1.3.2.4.3l.3.4c.1.3.1.7 0 1l-.3.4-.4.3c-.6.3-1.4-.1-1.7-.7 0-.1-.1-.3-.1-.5s0-.4.1-.5c.1-.3.4-.5.7-.7.2-.1.3-.1.5-.1s.3 0 .5.1zm-.1-.3c1.8 1.7 1.9 4.6.2 6.4s-4.6 1.9-6.4.2-1.9-4.6-.2-6.4 4.6-1.9 6.4-.2"/><path d="m525.2 309.5-1.5 5-4.4-8.7 9.7.2z"/></g><path clip-rule="evenodd" d="m346 215-6.1-21.5c-.1-.3-.3-.4-.6-.4h-6.7v-3.7c0-.3-.3-.6-.6-.6s-.6.3-.6.6v1.2h-4.3v-1.2c0-.3-.3-.6-.6-.6s-.6.3-.6.6v3.7h-6.7c-.3 0-.5.2-.6.4l-6.1 21.5v4.8c0 .3.3.6.6.6h32.4c.3 0 .6-.3.6-.6v-4.6c0-.1 0-.2-.1-.2zm-19.5-15.8c.3 0 .6-.3.6-.6v-1.9h4.3v1.9c0 .3.3.6.6.6s.6-.3.6-.6v-1.9h4.9l2.9 16.8h-22.4l3.5-16.8h4.3v1.9c.1.3.4.6.7.6zm.6-3.7v-1.2h4.3v1.2zm0-3.7h4.3v1.2h-4.3zm17.7 27.3h-31.2v-3.9l6-21h6.3v1.2h-4.8c-.3 0-.5.2-.6.5l-3.8 18c0 .2 0 .4.1.5s.3.2.5.2h23.8c.2 0 .4-.1.5-.2s.2-.3.1-.5l-3.1-18c-.1-.3-.3-.5-.6-.5h-5.4v-1.2h6.3l6 21v3.9z" fill="#fff" fill-rule="evenodd"/><path d="m345.2 257c0 2.1-1.7 3.8-3.8 3.8h-23.7c-2.1 0-3.8-1.7-3.8-3.8v-3.8h31.4v3.8zm.7-5.2h-32.1v-7.5c0-.8.7-1.5 1.5-1.5s1.4.6 1.5 1.3l-1.1.8c-.3.2-.4.6-.1.9.1.2.3.3.5.3.1 0 .3 0 .4-.1l3.7-2.8c.3-.2.4-.6.1-.9-.2-.3-.6-.4-.9-.1l-1.4 1c-.4-1.1-1.4-1.8-2.6-1.8-1.6 0-2.8 1.3-2.8 2.8v12.8c0 2.9 2.3 5.2 5.2 5.2h.3l-2.1 2.1c-.3.3-.3.7 0 1 .1.1.3.2.5.2s.3-.1.5-.2l3-3.1h19.4l3 3.1c.1.1.3.2.5.2s.3-.1.5-.2c.3-.3.3-.7 0-1l-2.1-2.1h.3c2.9 0 5.2-2.3 5.2-5.2v-4.5c-.3-.4-.6-.7-.9-.7m-28.9-3.9c.2.2.6.2.9 0 .2-.2.2-.6 0-.9-.2-.2-1.2-.3-1.2-.3s0 1 .3 1.2m4-.4c-.2-.2-1.2-.3-1.2-.3s.1.9.3 1.2c.2.2.6.2.9 0 .2-.3.2-.7 0-.9m-1.2 2.6s.1.9.3 1.2c.2.2.6.2.9 0 .2-.2.2-.6 0-.9-.3-.2-1.2-.3-1.2-.3m4.2-1.1c.2-.2.2-.6 0-.9-.2-.2-1.2-.3-1.2-.3s.1.9.3 1.2c.3.3.7.3.9 0m-3.6-3.1c.2.2.6.2.9 0 .2-.2.2-.6 0-.9-.2-.2-1.2-.3-1.2-.3s.1.9.3 1.2" fill="#fff"/><path d="m114 152.2c0-.4-.2-.6-.6-.6h-1.2v-1.7h2.1c1.2 0 1.7.5 1.7 1.7v15.6c0 .4.2.6.6.6h6.5c.4 0 .6-.2.6-.6v-1.3h1.8v2c0 1.2-.5 1.7-1.7 1.7h-8.1c-1.2 0-1.7-.5-1.7-1.7zm12.4 15.5h.4c.5 0 .8-.1 1-.6l6.4-17.3h2.1l6.4 17.3c.2.5.5.6 1 .6h.3v1.7h-.9c-1.4 0-1.8-.3-2.3-1.6l-1.7-4.6h-7.8l-1.7 4.6c-.5 1.3-.9 1.6-2.3 1.6h-.9zm12.2-6.2-2.6-7c-.3-.9-.8-2.5-.8-2.5h-.1s-.4 1.6-.8 2.5l-2.6 7zm20.5-9.9h-4.9c-.4 0-.6.2-.6.6v1.3h-1.8v-2.1c0-1.2.4-1.6 1.6-1.6h13.3c1.2 0 1.6.4 1.6 1.6v2.1h-1.8v-1.3c0-.4-.2-.6-.6-.6h-4.8v17.9h-2zm12.4.6c0-.4-.2-.6-.6-.6h-1.2v-1.7h2.1c1.2 0 1.7.5 1.7 1.7v11.1c0 3.3 2.1 5.3 5.3 5.3s5.3-2 5.3-5.4v-11c0-1.2.5-1.7 1.7-1.7h2.1v1.7h-1.2c-.4 0-.6.2-.6.6v10.5c0 4.2-2.9 7.1-7.2 7.1s-7.2-2.8-7.2-7.1v-10.5zm24.9-.6h-4.9c-.4 0-.6.2-.6.6v1.3h-1.8v-2.1c0-1.2.4-1.6 1.6-1.6h13.3c1.2 0 1.6.4 1.6 1.6v2.1h-1.8v-1.3c0-.4-.2-.6-.6-.6h-4.8v17.9h-2zm12.6 0h-1.8v-1.7h11.2c1.2 0 1.7.5 1.7 1.7v2h-1.8v-1.3c0-.4-.2-.6-.6-.6h-6.7v7.1h7.4v1.7h-7.4v6.7c0 .4.2.6.6.6h6.9c.4 0 .6-.2.6-.6v-1.3h1.8v2c0 1.2-.5 1.7-1.7 1.7h-8.5c-1.2 0-1.7-.5-1.7-1.7zm15.6.6c0-.4-.2-.6-.6-.6h-1.2v-1.7h2.1c1.2 0 1.7.5 1.7 1.7v15.6c0 .4.2.6.6.6h6.5c.4 0 .6-.2.6-.6v-1.3h1.8v2c0 1.2-.5 1.7-1.7 1.7h-8.1c-1.2 0-1.7-.5-1.7-1.7zm12.4 15.5h.4c.5 0 .8-.1 1-.6l6.4-17.3h2.1l6.4 17.3c.2.5.5.6 1 .6h.3v1.7h-.9c-1.4 0-1.8-.3-2.3-1.6l-1.7-4.6h-7.8l-1.7 4.6c-.5 1.3-.9 1.6-2.3 1.6h-.9zm12.2-6.2-2.6-7c-.3-.9-.8-2.5-.8-2.5h-.1s-.4 1.6-.8 2.5l-2.6 7zm-148.6 18.6h-1.8v-1.7h7.9c5.9 0 9.8 3.6 9.8 9.8s-3.9 9.8-9.8 9.8h-4.3c-1.2 0-1.7-.5-1.7-1.7v-16.2zm2.6 16.1h3.3c4.8 0 8-2.8 8-8.1 0-5.2-3.2-8.1-8-8.1h-3.9v15.5c-.1.5.2.7.6.7zm17.3-16.1h-1.8v-1.7h11.2c1.2 0 1.7.5 1.7 1.7v2h-1.8v-1.3c0-.4-.2-.6-.6-.6h-6.7v7.1h7.4v1.7h-7.4v6.7c0 .4.2.6.6.6h6.9c.4 0 .6-.2.6-.6v-1.3h1.8v2c0 1.2-.5 1.7-1.7 1.7h-8.5c-1.2 0-1.7-.5-1.7-1.7zm15.6.6c0-.4-.2-.6-.6-.6h-1.2v-1.7h2.1c1.2 0 1.7.5 1.7 1.7v15.6c0 .4.2.6.6.6h6.5c.4 0 .6-.2.6-.6v-1.3h1.8v2c0 1.2-.5 1.7-1.7 1.7h-8.1c-1.2 0-1.7-.5-1.7-1.7zm13.9 0c0-.4-.2-.6-.6-.6h-1.2v-1.7h2.1c1.2 0 1.7.5 1.7 1.7v15.6c0 .4.2.6.6.6h6.5c.4 0 .6-.2.6-.6v-1.3h1.8v2c0 1.2-.5 1.7-1.7 1.7h-8.1c-1.2 0-1.7-.5-1.7-1.7zm12.6-2.6h2l-1.6 4.8h-1.5zm1.3 18.1h.4c.5 0 .8-.1 1-.6l6.4-17.3h2.1l6.4 17.3c.2.5.5.6 1 .6h.3v1.7h-.9c-1.4 0-1.8-.3-2.3-1.6l-1.7-4.6h-7.8l-1.7 4.6c-.5 1.3-.9 1.6-2.3 1.6h-.9zm12.2-6.2-2.6-7c-.3-.9-.8-2.5-.8-2.5h-.1s-.4 1.6-.8 2.5l-2.6 7zm16.1-12c2.8 0 7.3 1.2 7.3 4.2v1.6h-1.8v-1.1c0-1.8-3.2-2.8-5.4-2.8-4.3 0-7.7 3.4-7.7 8.1s3.3 8.4 7.8 8.4c4 0 6.4-2.8 6.4-2.8l1.1 1.4s-2.7 3.2-7.6 3.2c-5.7 0-9.8-4.6-9.8-10.3.1-5.6 4.2-9.9 9.7-9.9zm19.5 0c5.6 0 10 4.4 10 10 0 2.6-.9 5-2.5 6.7l2.4 2.4-1.2 1.3-2.4-2.4c-1.7 1.5-3.9 2.3-6.4 2.3-5.5 0-9.9-4.5-9.9-10.3.1-5.6 4.5-10 10-10zm0 18.4c3.1 0 5-1.8 5-1.8l-2.3-2.4 1.2-1.3 2.3 2.4c1.1-1.4 1.8-3.4 1.8-5.4 0-4.6-3.5-8.1-8-8.1-4.4 0-7.9 3.5-7.9 8.1 0 4.8 3.5 8.5 7.9 8.5zm13.8-15.7c0-.4-.2-.6-.6-.6h-1.2v-1.7h2.1c1.2 0 1.7.5 1.7 1.7v11.1c0 3.3 2.1 5.3 5.3 5.3s5.3-2 5.3-5.4v-11c0-1.2.5-1.7 1.7-1.7h2.1v1.7h-1.2c-.4 0-.6.2-.6.6v10.5c0 4.2-2.9 7.1-7.2 7.1s-7.2-2.8-7.2-7.1v-10.5zm17.1 15.5h.4c.5 0 .8-.1 1-.6l6.4-17.3h2.1l6.4 17.3c.2.5.5.6 1 .6h.3v1.7h-.9c-1.4 0-1.8-.3-2.3-1.6l-1.7-4.6h-7.8l-1.7 4.6c-.5 1.3-.9 1.6-2.3 1.6h-.9zm12.1-6.2-2.6-7c-.3-.9-.8-2.5-.8-2.5h-.1s-.4 1.6-.8 2.5l-2.6 7zm8.7-6.1h2.1v2.2h-2.1zm0 11.8h2.1v2.2h-2.1zm-139.6 28h1.8v-16.1h-1.8v-1.7h5.6v1.7h-1.9v16.1h1.9v1.7h-5.6zm15.7 0h1.2c.4 0 .6-.2.6-.6v-17.3h1.8l10 14c.7 1 1.6 2.6 1.6 2.6h.1s-.1-1.5-.1-2.6v-12.3c0-1.2.5-1.7 1.7-1.7h2.1v1.7h-1.2c-.4 0-.6.2-.6.6v17.3h-1.8l-10-14c-.7-.9-1.6-2.5-1.6-2.5h-.1s.2 1.5.2 2.5v12.3c0 1.2-.5 1.7-1.7 1.7h-2.1v-1.7zm22.7-15.5c0-.4-.2-.6-.6-.6h-1.2v-1.7h2.1c1.2 0 1.7.5 1.7 1.7v11.1c0 3.3 2.1 5.3 5.3 5.3s5.3-2 5.3-5.4v-11c0-1.2.5-1.7 1.7-1.7h2.1v1.7h-1.2c-.4 0-.6.2-.6.6v10.5c0 4.2-2.9 7.1-7.2 7.1s-7.2-2.8-7.2-7.1v-10.5zm17.8 15.5h1c.4 0 .6-.2.6-.6l1.4-17.3h2l5.2 11.4c.5 1 1 2.3 1 2.3h.1s.5-1.3.9-2.3l5.2-11.4h2l1.4 17.3c0 .4.2.6.6.6h1.1v1.7h-1.9c-1.2 0-1.6-.5-1.7-1.7l-.9-11.9c-.1-1.1-.1-2.7-.1-2.7h-.1s-.5 1.7-1 2.7l-4.7 10h-1.8l-4.6-10c-.4-1-1-2.8-1-2.8h-.1s0 1.7-.1 2.8l-.9 11.9c-.1 1.2-.5 1.7-1.7 1.7h-1.9zm25.9-16.1h-1.8v-1.7h11.2c1.2 0 1.7.5 1.7 1.7v2h-1.8v-1.3c0-.4-.2-.6-.6-.6h-6.7v7.1h7.4v1.7h-7.4v6.7c0 .4.2.6.6.6h6.9c.4 0 .6-.2.6-.6v-1.3h1.8v2c0 1.2-.5 1.7-1.7 1.7h-8.5c-1.2 0-1.7-.5-1.7-1.7zm15.6 0h-1.8v-1.7h8.3c3.3 0 5.6 2.2 5.6 5.6 0 3-1.9 4.8-3.8 5.2v.1s.4.2.7.8l2.8 5.6c.3.6.7.6 1.4.6h.4v1.7h-.9c-1.6 0-2.1-.2-2.7-1.5l-2.8-5.6c-.5-1-.9-1.2-2-1.2h-3.3v8.3h-2v-17.9zm6.3 7.8c2.3 0 3.8-1.5 3.8-4 0-2.4-1.5-3.9-3.8-3.9h-4.4v7.9zm8.8 8.3h1.8v-16.1h-1.8v-1.7h5.6v1.7h-1.9v16.1h1.9v1.7h-5.6z" fill="#4e5594"/><path d="m370.1 77.5h7.3v-25.8h-.1s-.3.7-1.6 1.9l-3.5 3.5-2-2.1 7.4-7.3h3.1v29.7h7.1v2.9h-17.7zm22.1 0h7.3v-25.8h-.1s-.3.7-1.6 1.9l-3.5 3.5-2-2.1 7.4-7.3h3.1v29.7h7.1v2.9h-17.7zm23.3-3.5s2.5 3.9 7.6 3.9c4.6 0 8.1-3.3 8.1-7.6 0-4.5-3.8-7.7-8.4-7.7-3.7 0-6.3 1.8-6.3 1.8l-1.7-.7 1.4-13.1c.2-2 .8-2.8 2.8-2.8h10.7c1.9 0 2.8.8 2.8 2.8v3.2h-3v-2.2c0-.7-.4-1-1-1h-8.3c-.6 0-.9.3-1 1l-.8 7.4c-.1 1.2-.3 1.9-.3 1.9h.1s2-1.2 4.9-1.2c6.6 0 11.4 4.7 11.4 10.6 0 5.8-4.8 10.6-11.5 10.6-6.5 0-9.6-4.6-9.6-4.6zm-70.2 21.1c0-.3-.2-.4-.4-.4h-.9v-1.1h1.4c.8 0 1.2.3 1.2 1.1v1c.5-1.3 2-2.5 3.5-2.5 1.8 0 2.7.8 3 2.4.5-1.3 1.9-2.4 3.6-2.4 2.4 0 3.2 1.4 3.2 3.8v4.6c0 .3.2.4.4.4h.8v1.1h-1.4c-.8 0-1.2-.3-1.2-1.2v-4.7c0-1.6-.3-2.9-2.1-2.9-1.5 0-2.7 1.3-3.1 2.8-.1.4-.2.9-.2 1.4v4.6h-1.1v-5.9c0-1.5-.2-2.9-2.1-2.9-1.6 0-2.8 1.4-3.2 2.9-.1.4-.2.9-.2 1.3v4.6h-1.3v-8zm18.1 0c0-.3-.2-.4-.4-.4h-.8v-1.1h1.4c.8 0 1.2.3 1.2 1.2v7c0 .3.2.4.4.4h.8v1.1h-1.4c-.8 0-1.2-.3-1.2-1.2zm0-5.5h1.3v1.7h-1.3zm4.8 1.6c0-.3-.2-.4-.4-.4h-.8v-1.1h1.4c.8 0 1.2.3 1.2 1.2v10.9c0 .3.2.4.4.4h.8v1.1h-1.4c-.8 0-1.2-.3-1.2-1.2zm4.9 3.9c0-.3-.2-.4-.4-.4h-.8v-1.1h1.4c.8 0 1.2.3 1.2 1.2v7c0 .3.2.4.4.4h.8v1.1h-1.4c-.8 0-1.2-.3-1.2-1.2zm-.1-5.5h1.3v1.7h-1.3zm9.1 3.7c2.8 0 5.2 2.2 5.2 5.1s-2.3 5.2-5.1 5.2-5.2-2.2-5.2-5.2c-.1-3 2.2-5.1 5.1-5.1zm0 9c2.1 0 3.8-1.7 3.8-4 0-2.2-1.7-3.9-3.8-3.9s-3.8 1.6-3.8 3.9 1.7 4 3.8 4zm7.6-7.2c0-.3-.2-.4-.4-.4h-.8v-1.1h1.4c.8 0 1.2.3 1.2 1.1v1c.3-.9 1.6-2.5 3.9-2.5 2.4 0 3.3 1.4 3.3 3.8v4.6c0 .3.2.4.4.4h.8v1.1h-1.5c-.8 0-1.2-.3-1.2-1.2v-4.7c0-1.5-.2-2.9-2.1-2.9-1.7 0-3.1 1.1-3.5 2.8-.1.4-.2.9-.2 1.3v4.7h-1.3zm11.9 0c0-.3-.2-.4-.4-.4h-.8v-1.1h1.4c.8 0 1.2.3 1.2 1.2v7c0 .3.2.4.4.4h.8v1.1h-1.4c-.8 0-1.2-.3-1.2-1.2zm-.1-5.5h1.3v1.7h-1.3zm13.6 3.7c2.4 0 3.2 1.8 3.2 1.8v-3.9c0-.3-.2-.4-.4-.4h-.8v-1.1h1.4c.8 0 1.2.3 1.2 1.2v10.9c0 .3.2.4.4.4h.8v1.1h-1.4c-.8 0-1.2-.4-1.2-1.1v-.6s-.8 1.9-3.4 1.9-4.2-2.1-4.2-5.1c0-3.1 1.9-5.1 4.4-5.1zm3.2 5.1c0-2-1-3.9-3.1-3.9-1.7 0-3.1 1.5-3.1 3.9s1.3 3.9 3.1 3.9c1.6 0 3.1-1.2 3.1-3.9zm4.8-3.3c0-.3-.2-.4-.4-.4h-.8v-1.1h1.4c.8 0 1.2.3 1.2 1.2v7c0 .3.2.4.4.4h.8v1.1h-1.4c-.8 0-1.2-.3-1.2-1.2zm0-5.5h1.3v1.7h-1.3zm10.1 1.6c0-.3-.2-.4-.4-.4h-.8v-1.1h1.4c.8 0 1.2.3 1.2 1.2v10.9c0 .3.2.4.4.4h.8v1.1h-1.4c-.8 0-1.2-.3-1.2-1.2zm4.8 3.9c0-.3-.2-.4-.4-.4h-.8v-1.1h1.4c.8 0 1.2.3 1.2 1.2v7c0 .3.2.4.4.4h.8v1.1h-1.4c-.8 0-1.2-.3-1.2-1.2zm0-5.5h1.3v1.7h-1.3zm4.9 5h-1.3v-1.1h1.3v-2.7h1.3v2.7h2.4v1.1h-2.4v5c0 2.3 1.5 2.6 2.2 2.6h.4v1.2h-.6c-1.1 0-3.4-.4-3.4-3.6v-5.2zm6.4.5c0-.3-.2-.4-.4-.4h-.8v-1.1h1.4c.8 0 1.2.3 1.2 1.1v1.4c.5-1.5 1.6-2.6 3.1-2.6.3 0 .5.1.5.1v1.3h-.5c-1.4 0-2.4 1.1-2.8 2.5-.2.6-.3 1.3-.3 1.9v4.1h-1.3v-8.3zm7.1 0c0-.3-.2-.4-.4-.4h-.8v-1.1h1.4c.8 0 1.2.3 1.2 1.2v7c0 .3.2.4.4.4h.8v1.1h-1.4c-.8 0-1.2-.3-1.2-1.2zm0-5.5h1.3v1.7h-1.3zm-83.9 23.9c2.4 0 3.2 1.8 3.2 1.8v-3.9c0-.3-.2-.4-.4-.4h-.8v-1.1h1.4c.8 0 1.2.3 1.2 1.2v10.9c0 .3.2.4.4.4h.8v1.1h-1.4c-.8 0-1.2-.4-1.2-1.1v-.6s-.8 1.9-3.4 1.9-4.2-2.1-4.2-5.1 1.8-5.1 4.4-5.1zm3.2 5.1c0-2-1-3.9-3.1-3.9-1.7 0-3.1 1.5-3.1 3.9s1.3 3.9 3.1 3.9c1.6.1 3.1-1.1 3.1-3.9zm4.7-8.9h1.4l-1.1 3.3h-1zm8.3 7.8h.5v-.1c0-2-.7-2.8-2.5-2.8-.5 0-1.9.1-1.9.9v.6h-1.3v-.9c0-1.4 2.3-1.6 3.2-1.6 3.1 0 3.8 1.6 3.8 3.7v4.7c0 .3.2.4.4.4h.8v1.1h-1.3c-.8 0-1.2-.4-1.2-1.2v-.7s-.8 2.1-3.2 2.1c-1.6 0-3.3-.9-3.3-2.9 0-3.2 4.3-3.3 6-3.3zm-2.5 5.1c1.9 0 3-1.9 3-3.6v-.4h-.6c-1.5 0-4.6 0-4.6 2.2.1.9.8 1.8 2.2 1.8zm11.9-9.1c1.1 0 3.5.5 3.5 2.1v.9h-1.2v-.6c0-.8-1.4-1.2-2.2-1.2-2.1 0-3.8 1.6-3.8 3.9 0 2.4 1.8 3.9 3.8 3.9s3.1-1.4 3.1-1.4l.6 1s-1.3 1.6-3.8 1.6c-2.9 0-5.1-2.1-5.1-5.1 0-2.9 2.2-5.1 5.1-5.1zm9.6 0c2.4 0 3.2 1.9 3.2 1.9v-.6c0-.7.3-1 1.2-1h1.3v1.1h-.8c-.3 0-.4.2-.4.4v12.1h-1.3v-5.6s-.8 1.9-3.3 1.9c-2.6 0-4.2-2.1-4.2-5.1-.1-3 1.7-5.1 4.3-5.1zm3.2 5.1c0-2-1-3.9-3.1-3.9-1.7 0-3.2 1.5-3.2 3.9s1.3 3.9 3.1 3.9c1.6.1 3.2-1.1 3.2-3.9zm4.6-3.3c0-.3-.2-.4-.4-.4h-.8v-1.1h1.4c.8 0 1.2.3 1.2 1.1v4.7c0 1.5.3 2.9 2.1 2.9 2.2 0 3.6-2 3.6-4.1v-4.7h1.3v8.2c0 .3.2.4.4.4h.8v1.1h-1.3c-.8 0-1.2-.3-1.2-1.1v-1c-.4.9-1.7 2.5-3.8 2.5-2.3 0-3.3-1.2-3.3-3.8zm16.8 2.2h.5v-.1c0-2-.7-2.8-2.5-2.8-.5 0-1.9.1-1.9.9v.6h-1.3v-.9c0-1.4 2.3-1.6 3.2-1.6 3.1 0 3.8 1.6 3.8 3.7v4.7c0 .3.2.4.4.4h.8v1.1h-1.3c-.8 0-1.2-.4-1.2-1.2v-.7s-.8 2.1-3.2 2.1c-1.6 0-3.3-.9-3.3-2.9 0-3.2 4.3-3.3 6-3.3zm-2.5 5.1c1.9 0 3-1.9 3-3.6v-.4h-.6c-1.5 0-4.6 0-4.6 2.2.1.9.8 1.8 2.2 1.8zm-75.5 13c0-.3-.2-.4-.4-.4h-.8v-1.1h1.4c.8 0 1.2.3 1.2 1.1v1.4c.5-1.5 1.6-2.6 3.1-2.6.3 0 .5.1.5.1v1.3h-.5c-1.4 0-2.4 1.1-2.8 2.5-.2.6-.3 1.3-.3 1.9v4.1h-1.3v-8.3zm7.1 0c0-.3-.2-.4-.4-.4h-.8v-1.1h1.4c.8 0 1.2.3 1.2 1.2v7c0 .3.2.4.4.4h.8v1.1h-1.4c-.8 0-1.2-.3-1.2-1.2zm0-5.4h1.3v1.7h-1.3zm4.4 11.2s1.1 1.5 3 1.5c1.1 0 2.1-.5 2.1-1.6 0-2.1-5.5-1.7-5.5-4.9 0-1.8 1.5-2.6 3.5-2.6 1 0 3 .4 3 1.8v.8h-1.2v-.4c0-.7-1-1-1.7-1-1.4 0-2.2.5-2.2 1.4 0 2.2 5.5 1.7 5.5 4.9 0 1.6-1.5 2.7-3.4 2.7-2.5 0-3.7-1.7-3.7-1.7zm8.9-5.8c0-.3-.2-.4-.4-.4h-.8v-1.1h1.3c.8 0 1.2.3 1.2 1v.7s.8-1.9 3.4-1.9 4.2 2.1 4.2 5.1c0 3.1-1.8 5.1-4.4 5.1-2.4 0-3.2-1.8-3.2-1.8v5.5h-1.3zm4.4 7.3c1.7 0 3.1-1.5 3.1-3.9s-1.3-3.9-3.1-3.9c-1.6 0-3.2 1.2-3.2 3.9.1 1.9 1.2 3.9 3.2 3.9zm12-5.1h.5v-.1c0-2-.7-2.8-2.5-2.8-.5 0-1.9.1-1.9.9v.6h-1.3v-.9c0-1.4 2.3-1.6 3.2-1.6 3.1 0 3.8 1.6 3.8 3.7v4.7c0 .3.2.4.4.4h.8v1.1h-1.3c-.8 0-1.2-.4-1.2-1.2v-.7s-.8 2.1-3.2 2.1c-1.6 0-3.3-.9-3.3-2.9 0-3.2 4.3-3.3 6-3.3zm-2.5 5.1c1.9 0 3-1.9 3-3.6v-.4h-.6c-1.5 0-4.6 0-4.6 2.2.1.9.8 1.8 2.2 1.8zm7.7-7.3c0-.3-.2-.4-.4-.4h-.9v-1.1h1.4c.8 0 1.2.3 1.2 1.1v1.4c.5-1.5 1.6-2.6 3.1-2.6.3 0 .5.1.5.1v1.3h-.5c-1.4 0-2.4 1.1-2.8 2.5-.2.6-.3 1.3-.3 1.9v4.1h-1.3zm7.1 0c0-.3-.2-.4-.4-.4h-.8v-1.1h1.4c.8 0 1.2.3 1.2 1.1v1.1c.5-1.3 2-2.5 3.5-2.5 1.8 0 2.7.8 3 2.4.5-1.3 1.9-2.4 3.6-2.4 2.4 0 3.2 1.4 3.2 3.8v4.6c0 .3.2.4.4.4h.8v1.1h-1.3c-.8 0-1.2-.3-1.2-1.2v-4.7c0-1.6-.3-2.9-2.1-2.9-1.5 0-2.7 1.3-3.1 2.8-.1.4-.2.9-.2 1.4v4.6h-1.3v-5.9c0-1.5-.2-2.9-2.1-2.9-1.6 0-2.8 1.4-3.2 2.9-.1.4-.2.9-.2 1.3v4.6h-1.3v-8.1zm18.2 0c0-.3-.2-.4-.4-.4h-.8v-1.1h1.4c.8 0 1.2.3 1.2 1.2v7c0 .3.2.4.4.4h.8v1.1h-1.4c-.8 0-1.2-.3-1.2-1.2zm0-5.4h1.3v1.7h-1.3zm9.8 7.6h.5v-.1c0-2-.7-2.8-2.5-2.8-.5 0-1.9.1-1.9.9v.6h-1.3v-.9c0-1.4 2.3-1.6 3.2-1.6 3.1 0 3.8 1.6 3.8 3.7v4.7c0 .3.2.4.4.4h.8v1.1h-1.3c-.8 0-1.2-.4-1.2-1.2v-.7s-.8 2.1-3.2 2.1c-1.6 0-3.3-.9-3.3-2.9.1-3.2 4.3-3.3 6-3.3zm-2.4 5.1c1.9 0 3-1.9 3-3.6v-.4h-.6c-1.5 0-4.6 0-4.6 2.2 0 .9.7 1.8 2.2 1.8zm7.7-7.7h-1.3v-1.1h1.3v-2.7h1.3v2.7h2.4v1.1h-2.4v5c0 2.3 1.5 2.6 2.2 2.6h.4v1.2h-.6c-1.1 0-3.4-.4-3.4-3.6v-5.2zm6.5.4c0-.3-.2-.4-.4-.4h-.8v-1.1h1.4c.8 0 1.2.3 1.2 1.2v7c0 .3.2.4.4.4h.8v1.1h-1.4c-.8 0-1.2-.3-1.2-1.2zm0-5.4h1.3v1.7h-1.3zm4.4 12.1h1.5v1.6h-1.5zm-83.4 52.8c.7-1.3 1.4-2.3 1.4-2.3v-.1s-.6.1-1.9.1h-8.9c-.5 0-.8.2-.8.8v1.7h-2.3v-2.5c0-1.5.6-2.1 2.1-2.1h14.6v1.7l-12.3 23.1h-2.7zm6.7 18.1h5.5v-19.6h-.1s-.2.5-1.2 1.5l-2.6 2.6-1.5-1.6 5.6-5.6h2.3v22.6h5.4v2.2h-13.4zm18.9-21.6c0-.2-.1-.4-.4-.4h-.7v-1h1.2c.8 0 1.1.3 1.1.9v.6s.7-1.8 3.1-1.8 3.9 1.9 3.9 4.7-1.7 4.7-4 4.7c-2.2 0-2.9-1.7-2.9-1.7v5h-1.2v-11zm4 6.6c1.6 0 2.9-1.3 2.9-3.6 0-2.2-1.2-3.6-2.8-3.6-1.5 0-2.9 1.1-2.9 3.6-.1 1.8.9 3.6 2.8 3.6zm6.4-6.6c0-.2-.1-.4-.4-.4h-.7v-1h1.3c.8 0 1.1.3 1.1 1.1v6.4c0 .3.1.4.4.4h.7v1h-1.3c-.8 0-1.1-.3-1.1-1.1zm0-5h1.2v1.5h-1.2zm4.1 10.3s1 1.3 2.7 1.3c1 0 1.9-.5 1.9-1.4 0-1.9-5-1.6-5-4.5 0-1.6 1.4-2.4 3.2-2.4.9 0 2.7.4 2.7 1.6v.8h-1.1v-.4c0-.7-1-.9-1.5-.9-1.2 0-2 .4-2 1.3 0 2 5 1.5 5 4.5 0 1.5-1.3 2.5-3.1 2.5-2.3 0-3.4-1.6-3.4-1.6zm11.9-7c1 0 3.2.4 3.2 1.9v.8h-1.1v-.5c0-.7-1.3-1.1-2-1.1-1.9 0-3.4 1.4-3.4 3.6s1.6 3.6 3.5 3.6c1.8 0 2.9-1.3 2.9-1.3l.6.9s-1.2 1.5-3.5 1.5c-2.7 0-4.7-1.9-4.7-4.7-.2-2.7 1.9-4.7 4.5-4.7zm5.6 1.7c0-.2-.1-.4-.4-.4h-.7v-1h1.3c.8 0 1.1.3 1.1 1.1v6.4c0 .3.1.4.4.4h.7v1h-1.3c-.8 0-1.1-.3-1.1-1.1zm0-5h1.2v1.5h-1.2zm4.4 5c0-.2-.1-.4-.4-.4h-.8v-1h1.2c.7 0 1.1.3 1.1 1v1c.3-.8 1.5-2.2 3.5-2.2 2.2 0 3 1.3 3 3.4v4.2c0 .3.1.4.4.4h.7v1h-1.3c-.8 0-1.1-.3-1.1-1.1v-4.3c0-1.4-.2-2.6-1.9-2.6-1.5 0-2.8 1-3.2 2.5-.1.4-.1.8-.1 1.2v4.3h-1.2v-7.4zm14.3-1.7c2.5 0 3.7 1.9 3.7 4.1v.6h-6.8c0 2.2 1.6 3.5 3.4 3.5 1.6 0 2.7-1.1 2.7-1.1l.6.9s-1.3 1.3-3.3 1.3c-2.6 0-4.7-1.9-4.7-4.7s2-4.6 4.4-4.6zm2.5 3.8c-.1-1.8-1.2-2.7-2.5-2.7-1.5 0-2.8 1-3.1 2.7zm-49.4 14.4c2.6 0 4.7 2 4.7 4.6 0 2.7-2.1 4.7-4.7 4.7s-4.7-2-4.7-4.7 2.1-4.6 4.7-4.6zm0 8.2c1.9 0 3.4-1.6 3.4-3.6s-1.6-3.5-3.4-3.5c-1.9 0-3.5 1.5-3.5 3.5.1 2 1.6 3.6 3.5 3.6zm6.8-10.1c0-.2-.1-.4-.4-.4h-.7v-1h1.3c.8 0 1.1.3 1.1 1.1v9.9c0 .3.1.4.4.4h.7v1h-1.3c-.8 0-1.1-.3-1.1-1.1zm4.4 3.5c0-.2-.1-.4-.4-.4h-.7v-1h1.3c.8 0 1.1.3 1.1 1.1v6.4c0 .3.1.4.4.4h.7v1h-1.3c-.8 0-1.1-.3-1.1-1.1zm0-5h1.2v1.5h-1.2zm4.4 5c0-.2-.1-.4-.4-.4h-.8v-1h1.2c.7 0 1.1.3 1.1 1v1c.4-1.2 1.8-2.2 3.2-2.2 1.6 0 2.5.8 2.8 2.2.5-1.2 1.8-2.2 3.3-2.2 2.2 0 3 1.3 3 3.4v4.2c0 .3.1.4.4.4h.7v1h-1.3c-.8 0-1.1-.3-1.1-1.1v-4.3c0-1.5-.3-2.7-1.9-2.7-1.3 0-2.5 1.2-2.8 2.5-.1.4-.2.8-.2 1.3v4.2h-1.2v-5.4c0-1.3-.2-2.7-1.9-2.7-1.5 0-2.5 1.3-2.9 2.6-.1.4-.1.8-.1 1.2v4.2h-1.2v-7.2zm16.5 0c0-.2-.1-.4-.4-.4h-.7v-1h1.2c.8 0 1.1.3 1.1.9v.6s.7-1.8 3.1-1.8 3.9 1.9 3.9 4.7-1.7 4.7-4 4.7c-2.2 0-2.9-1.7-2.9-1.7v5h-1.2v-11zm4 6.6c1.6 0 2.9-1.3 2.9-3.6 0-2.2-1.2-3.6-2.8-3.6-1.5 0-2.9 1.1-2.9 3.6-.1 1.8.9 3.6 2.8 3.6zm6.4-6.6c0-.2-.1-.4-.4-.4h-.7v-1h1.3c.8 0 1.1.3 1.1 1.1v6.4c0 .3.1.4.4.4h.7v1h-1.3c-.8 0-1.1-.3-1.1-1.1zm0-5h1.2v1.5h-1.2zm8.2 3.4c2.6 0 4.7 2 4.7 4.6 0 2.7-2.1 4.7-4.7 4.7s-4.7-2-4.7-4.7c.1-2.7 2.2-4.6 4.7-4.6zm.1 8.2c1.9 0 3.4-1.6 3.4-3.6s-1.6-3.5-3.4-3.5c-1.9 0-3.5 1.5-3.5 3.5s1.5 3.6 3.5 3.6zm6.9-6.6c0-.2-.1-.4-.4-.4h-.7v-1h1.2c.7 0 1.1.3 1.1 1v1c.3-.8 1.5-2.2 3.5-2.2 2.2 0 3 1.3 3 3.4v4.2c0 .3.1.4.4.4h.7v1h-1.3c-.8 0-1.1-.3-1.1-1.1v-4.3c0-1.4-.2-2.6-1.9-2.6-1.5 0-2.8 1-3.2 2.5-.1.4-.1.8-.1 1.2v4.3h-1.2zm10.8 0c0-.2-.1-.4-.4-.4h-.7v-1h1.3c.8 0 1.1.3 1.1 1.1v6.4c0 .3.1.4.4.4h.7v1h-1.3c-.8 0-1.1-.3-1.1-1.1zm0-5h1.2v1.5h-1.2zm8.3 3.4c1 0 3.2.4 3.2 1.9v.8h-1.1v-.5c0-.7-1.3-1.1-2-1.1-1.9 0-3.4 1.4-3.4 3.6s1.6 3.6 3.5 3.6c1.8 0 2.9-1.3 2.9-1.3l.6.9s-1.2 1.5-3.5 1.5c-2.7 0-4.7-1.9-4.7-4.7-.2-2.8 1.8-4.7 4.5-4.7zm5.3-1.9c0-.2-.1-.4-.4-.4h-.7v-1h1.3c.8 0 1.1.3 1.1 1v4.5c.3-.8 1.5-2.2 3.5-2.2 2.2 0 3 1.3 3 3.4v4.2c0 .3.1.4.4.4h.7v1h-1.3c-.8 0-1.1-.3-1.1-1.1v-4.3c0-1.4-.2-2.6-1.9-2.6-1.5 0-2.8 1-3.2 2.5-.1.4-.1.8-.1 1.2v4.3h-1.2v-10.9zm14.4 1.9c2.5 0 3.7 1.9 3.7 4.1v.6h-6.8c0 2.2 1.6 3.5 3.4 3.5 1.6 0 2.7-1.1 2.7-1.1l.6.9s-1.3 1.3-3.3 1.3c-2.6 0-4.7-1.9-4.7-4.7 0-2.9 2-4.6 4.4-4.6zm2.5 3.7c-.1-1.8-1.2-2.7-2.5-2.7-1.5 0-2.8 1-3.1 2.7zm-128.4 33.3c.7-1.3 1.4-2.3 1.4-2.3v-.1s-.6.1-1.9.1h-8.9c-.5 0-.8.2-.8.8v1.7h-2.3v-2.5c0-1.5.6-2.1 2.1-2.1h14.6v1.7l-12.2 23h-2.7zm6 9.4c0-6.3 3.2-14.3 10.9-14.3 2.7 0 4.5 1 4.5 1l-.9 2.1s-1.5-.9-3.6-.9c-5.2 0-7.8 5.2-8.3 10.2h.1c1.2-1.9 3.7-3 6.3-3 4.5 0 7.7 3.2 7.7 7.8 0 5.1-3.4 8.3-7.8 8.3-5.4.1-8.9-4.7-8.9-11.2zm8.9 9c3.3 0 5.3-2.5 5.3-5.9s-2.2-5.7-5.6-5.7c-3.3 0-6 2.2-6 4.2 0 3.3 2.6 7.4 6.3 7.4zm10.8-9c0-6.3 3.2-14.3 10.9-14.3 2.7 0 4.5 1 4.5 1l-.9 2.1s-1.5-.9-3.6-.9c-5.2 0-7.8 5.2-8.3 10.2h.1c1.2-1.9 3.7-3 6.3-3 4.5 0 7.7 3.2 7.7 7.8 0 5.1-3.4 8.3-7.8 8.3-5.4.1-8.9-4.7-8.9-11.2zm8.9 9c3.3 0 5.3-2.5 5.3-5.9s-2.2-5.7-5.6-5.7c-3.3 0-6 2.2-6 4.2 0 3.3 2.6 7.4 6.3 7.4zm11.7-.9h2.7v2.8h-2.7zm6.3-8.1c0-6.3 3.2-14.3 10.9-14.3 2.7 0 4.5 1 4.5 1l-.9 2.1s-1.5-.9-3.6-.9c-5.2 0-7.8 5.2-8.3 10.2h.1c1.2-1.9 3.7-3 6.3-3 4.5 0 7.7 3.2 7.7 7.8 0 5.1-3.4 8.3-7.8 8.3-5.4.1-8.9-4.7-8.9-11.2zm8.9 9c3.3 0 5.3-2.5 5.3-5.9s-2.2-5.7-5.6-5.7c-3.3 0-6 2.2-6 4.2 0 3.3 2.6 7.4 6.3 7.4zm10.8-9c0-6.3 3.2-14.3 10.9-14.3 2.7 0 4.5 1 4.5 1l-.9 2.1s-1.5-.9-3.6-.9c-5.2 0-7.8 5.2-8.3 10.2h.1c1.2-1.9 3.7-3 6.3-3 4.5 0 7.7 3.2 7.7 7.8 0 5.1-3.4 8.3-7.8 8.3-5.4.1-8.9-4.7-8.9-11.2zm8.9 9c3.3 0 5.3-2.5 5.3-5.9s-2.2-5.7-5.6-5.7c-3.3 0-6 2.2-6 4.2 0 3.3 2.6 7.4 6.3 7.4zm10.8-9c0-6.3 3.2-14.3 10.9-14.3 2.7 0 4.5 1 4.5 1l-.9 2.1s-1.5-.9-3.6-.9c-5.2 0-7.8 5.2-8.3 10.2h.1c1.2-1.9 3.7-3 6.3-3 4.5 0 7.7 3.2 7.7 7.8 0 5.1-3.4 8.3-7.8 8.3-5.4.1-8.9-4.7-8.9-11.2zm8.9 9c3.3 0 5.3-2.5 5.3-5.9s-2.2-5.7-5.6-5.7c-3.3 0-6 2.2-6 4.2 0 3.3 2.6 7.4 6.3 7.4zm-110.4 17.4c-.1-.3-.3-.4-.6-.4h-.2v-1.1h.5c.9 0 1.1.2 1.4 1l2.2 5.7c.2.5.3 1.1.3 1.1s.1-.6.3-1.1l2.2-5.7c.3-.8.6-1 1.4-1h.5v1.1h-.2c-.3 0-.5.1-.6.4l-3 7.6h-1.3zm14.6 2h.5v-.1c0-1.9-.7-2.6-2.4-2.6-.5 0-1.8.1-1.8.8v.6h-1.2v-.9c0-1.3 2.2-1.5 3-1.5 2.9 0 3.6 1.5 3.6 3.5v4.4c0 .3.1.4.4.4h.8v1.1h-1.3c-.8 0-1.1-.3-1.1-1.1v-.7s-.7 2-3 2c-1.5 0-3.1-.9-3.1-2.7 0-3.1 4-3.2 5.6-3.2zm-2.3 4.8c1.7 0 2.8-1.8 2.8-3.4v-.4h-.5c-1.4 0-4.3 0-4.3 2.1-.1.8.6 1.7 2 1.7zm6.8-1.4s1 1.4 2.8 1.4c1 0 1.9-.5 1.9-1.5 0-2-5.1-1.6-5.1-4.6 0-1.6 1.4-2.5 3.2-2.5.9 0 2.8.4 2.8 1.6v.8h-1.2v-.4c0-.7-1-.9-1.6-.9-1.3 0-2 .4-2 1.3 0 2 5.1 1.6 5.1 4.6 0 1.5-1.4 2.6-3.2 2.6-2.4 0-3.5-1.6-3.5-1.6zm12.2-7.1c1 0 3.2.4 3.2 1.9v.8h-1.2v-.5c0-.8-1.3-1.1-2.1-1.1-2 0-3.5 1.5-3.5 3.7s1.6 3.6 3.6 3.6c1.9 0 2.9-1.3 2.9-1.3l.6.9s-1.2 1.5-3.6 1.5c-2.7 0-4.8-1.9-4.8-4.8.1-2.7 2.2-4.7 4.9-4.7zm5.6-2c0-.3-.1-.4-.4-.4h-.8v-1.1h1.3c.8 0 1.1.3 1.1 1.1v4.6c.3-.9 1.6-2.3 3.6-2.3 2.3 0 3.1 1.3 3.1 3.5v4.3c0 .3.1.4.4.4h.8v1.1h-1.3c-.8 0-1.1-.3-1.1-1.1v-4.3c0-1.4-.2-2.7-2-2.7-1.5 0-2.9 1.1-3.3 2.6-.1.4-.1.8-.1 1.2v4.4h-1.2v-11.3zm14.6 2c2.5 0 3.8 1.9 3.8 4.2v.6h-7c0 2.3 1.6 3.6 3.5 3.6 1.7 0 2.7-1.1 2.7-1.1l.6.9s-1.3 1.3-3.4 1.3c-2.7 0-4.8-2-4.8-4.8.1-2.9 2.2-4.7 4.6-4.7zm2.6 3.8c-.1-1.9-1.2-2.8-2.6-2.8-1.5 0-2.8 1-3.1 2.8zm11.9-3.8c2.2 0 3 1.7 3 1.7v-3.7c0-.3-.1-.4-.4-.4h-.8v-1.1h1.3c.8 0 1.1.3 1.1 1.1v10.2c0 .3.1.4.4.4h.8v1.1h-1.3c-.8 0-1.1-.3-1.1-1v-.6s-.7 1.8-3.1 1.8-4-2-4-4.8 1.7-4.7 4.1-4.7zm3 4.7c0-1.8-.9-3.7-2.9-3.7-1.6 0-2.9 1.4-2.9 3.7 0 2.2 1.2 3.7 2.9 3.7 1.5 0 2.9-1.1 2.9-3.7zm9.2-1h.5v-.1c0-1.9-.7-2.6-2.4-2.6-.5 0-1.8.1-1.8.8v.6h-1.2v-.9c0-1.3 2.2-1.5 3-1.5 2.9 0 3.6 1.5 3.6 3.5v4.4c0 .3.1.4.4.4h.8v1.1h-1.3c-.8 0-1.1-.3-1.1-1.1v-.7s-.7 2-3 2c-1.5 0-3.1-.9-3.1-2.7 0-3.1 4-3.2 5.6-3.2zm-2.3 4.8c1.7 0 2.8-1.8 2.8-3.4v-.4h-.5c-1.4 0-4.3 0-4.3 2.1-.1.8.6 1.7 2 1.7zm12-10.5c0-.3-.1-.4-.4-.4h-.8v-1.1h1.3c.8 0 1.1.3 1.1 1.1v4s.8-1.7 3.1-1.7c2.4 0 4 2 4 4.8 0 2.9-1.7 4.8-4.1 4.8-2.2 0-3-1.8-3-1.8v1.5h-1.2zm4.1 10.4c1.6 0 2.9-1.4 2.9-3.7 0-2.2-1.2-3.7-2.9-3.7-1.5 0-3 1.1-3 3.7.1 1.9 1 3.7 3 3.7zm11.2-4.7h.5v-.1c0-1.9-.7-2.6-2.4-2.6-.5 0-1.8.1-1.8.8v.6h-1.2v-.9c0-1.3 2.2-1.5 3-1.5 2.9 0 3.6 1.5 3.6 3.5v4.4c0 .3.1.4.4.4h.8v1.1h-1.3c-.8 0-1.1-.3-1.1-1.1v-.7s-.7 2-3 2c-1.5 0-3.1-.9-3.1-2.7 0-3.1 4-3.2 5.6-3.2zm-2.3 4.8c1.7 0 2.8-1.8 2.8-3.4v-.4h-.5c-1.4 0-4.3 0-4.3 2.1 0 .8.6 1.7 2 1.7zm10.3-8.5c2.4 0 3 1.6 3 1.6v-.3c0-.7.3-1 1-1h1.3v1.1h-.7c-.3 0-.4.1-.4.4v7.4c0 2.9-2.1 4-4.4 4-1 0-2.1-.3-3-.7l.5-1s1.1.6 2.5.6c1.8 0 3.2-.8 3.2-2.9v-1.5c-.5 1-1.4 1.6-2.9 1.6-2.4 0-4.1-1.9-4.1-4.7s1.5-4.6 4-4.6zm3 4.6c0-2.7-1.3-3.5-2.9-3.5-1.8 0-2.8 1.3-2.8 3.5s1.2 3.6 3 3.6c1.4 0 2.7-.9 2.7-3.6zm4.3-2.9c0-.3-.1-.4-.4-.4h-.8v-1.1h1.3c.8 0 1.1.3 1.1 1v1.1c.3-.8 1.5-2.3 3.6-2.3 2.3 0 3.1 1.3 3.1 3.5v4.3c0 .3.1.4.4.4h.8v1.1h-1.3c-.8 0-1.1-.3-1.1-1.1v-4.4c0-1.4-.2-2.7-2-2.7-1.6 0-2.9 1.1-3.3 2.6-.1.4-.1.8-.1 1.2v4.4h-1.2v-7.6zm15-1.7c2.7 0 4.8 2 4.8 4.7 0 2.8-2.2 4.8-4.8 4.8-2.7 0-4.8-2.1-4.8-4.8s2.2-4.7 4.8-4.7zm0 8.4c1.9 0 3.5-1.6 3.5-3.7s-1.6-3.6-3.5-3.6c-2 0-3.6 1.5-3.6 3.6.1 2.1 1.7 3.7 3.6 3.7zm-174.8-125.1h-1v-.9h6c.6 0 .9.3.9.9v1.1h-1v-.7c0-.2-.1-.3-.3-.3h-3.6v3.9h4v.9h-4v3.6c0 .2.1.3.3.3h3.7c.2 0 .3-.1.3-.3v-.7h1v1.1c0 .6-.3.9-.9.9h-4.6c-.6 0-.9-.3-.9-.9v-8.9zm10.8 1.9c1.8 0 2.5 1.5 2.5 1.5v-.5c0-.5.3-.8.9-.8h1v.9h-.6c-.2 0-.3.1-.3.3v9.4h-1v-4.3s-.6 1.5-2.6 1.5-3.3-1.6-3.3-4c0-2.5 1.5-4 3.4-4zm2.5 3.9c0-1.5-.8-3-2.4-3-1.3 0-2.5 1.1-2.5 3s1 3.1 2.4 3.1 2.5-.9 2.5-3.1zm3.6-2.5c0-.2-.1-.3-.3-.3h-.6v-.9h1.1c.6 0 .9.3.9.9v3.7c0 1.2.2 2.2 1.7 2.2 1.7 0 2.8-1.5 2.8-3.2v-3.6h1v6.3c0 .2.1.3.3.3h.6v.9h-1c-.6 0-.9-.3-.9-.8v-.8c-.3.7-1.3 1.9-2.9 1.9-1.8 0-2.5-1-2.5-2.9v-3.7zm9.2 0c0-.2-.1-.3-.3-.3h-.6v-.9h1.1c.6 0 .9.3.9.9v5.4c0 .2.1.3.3.3h.6v.9h-1.1c-.6 0-.9-.3-.9-.9zm0-4.3h1v1.3h-1zm3.2 4.3c-.1-.3-.3-.3-.5-.3h-.2v-.9h.4c.7 0 .9.1 1.2.8l1.8 4.7c.1.4.3.9.3.9s.1-.5.3-.9l1.8-4.7c.3-.7.5-.8 1.2-.8h.4v.9h-.1c-.3 0-.4.1-.5.3l-2.5 6.3h-1.1zm12.1 1.7h.4v-.1c0-1.6-.6-2.1-2-2.1-.4 0-1.5.1-1.5.7v.5h-1v-.7c0-1.1 1.8-1.3 2.5-1.3 2.4 0 3 1.3 3 2.9v3.6c0 .2.1.3.3.3h.6v.9h-1c-.6 0-.9-.3-.9-.9v-.6s-.6 1.6-2.5 1.6c-1.3 0-2.6-.7-2.6-2.2 0-2.5 3.4-2.6 4.7-2.6zm-1.9 3.9c1.4 0 2.3-1.5 2.3-2.8v-.3h-.4c-1.2 0-3.6 0-3.6 1.7 0 .7.6 1.4 1.7 1.4zm5.9-8.6c0-.2-.1-.3-.3-.3h-.6v-.9h1.1c.6 0 .9.3.9.9v8.4c0 .2.1.3.3.3h.6v.9h-1.1c-.6 0-.9-.3-.9-.9zm6.3 1.6c2 0 2.5 1.3 2.5 1.3v-.3c0-.5.2-.8.9-.8h1.1v.9h-.6c-.2 0-.3.1-.3.3v6.2c0 2.4-1.8 3.3-3.6 3.3-.9 0-1.7-.2-2.5-.6l.4-.9s.9.5 2 .5c1.5 0 2.6-.7 2.6-2.4v-1.2c-.5.8-1.2 1.3-2.4 1.3-2 0-3.4-1.6-3.4-3.9 0-2.2 1.3-3.7 3.3-3.7zm2.5 3.8c0-2.2-1.1-2.9-2.4-2.9-1.5 0-2.3 1.1-2.3 2.9s1 3 2.5 3c1.2 0 2.2-.8 2.2-3zm6.9-3.8c2.2 0 4 1.7 4 3.9 0 2.3-1.8 4-4 4s-4-1.7-4-4c0-2.2 1.8-3.9 4-3.9zm0 7c1.6 0 2.9-1.3 2.9-3.1 0-1.7-1.3-3-2.9-3s-2.9 1.3-2.9 3c0 1.8 1.3 3.1 2.9 3.1zm5.9-5.6c0-.2-.1-.3-.3-.3h-.6v-.9h1.1c.6 0 .9.3.9.8v.8c.3-.7 1.2-1.9 3-1.9 1.9 0 2.5 1.1 2.5 2.9v3.6c0 .2.1.3.3.3h.6v.9h-1.1c-.6 0-.9-.3-.9-.9v-3.6c0-1.2-.2-2.2-1.6-2.2-1.3 0-2.4.9-2.8 2.1-.1.3-.1.7-.1 1v3.6h-1zm12.4-1.4c2.2 0 4 1.7 4 3.9 0 2.3-1.8 4-4 4s-4-1.7-4-4c.1-2.2 1.8-3.9 4-3.9zm.1 7c1.6 0 2.9-1.3 2.9-3.1 0-1.7-1.3-3-2.9-3s-2.9 1.3-2.9 3c-.1 1.8 1.2 3.1 2.9 3.1zm13.9-3.9h.4v-.1c0-1.6-.6-2.1-2-2.1-.4 0-1.5.1-1.5.7v.5h-1v-.7c0-1.1 1.8-1.3 2.5-1.3 2.4 0 3 1.3 3 2.9v3.6c0 .2.1.3.3.3h.6v.9h-1c-.6 0-.9-.3-.9-.9v-.6s-.6 1.6-2.5 1.6c-1.3 0-2.6-.7-2.6-2.2 0-2.5 3.4-2.6 4.7-2.6zm-1.9 3.9c1.4 0 2.3-1.5 2.3-2.8v-.3h-.4c-1.2 0-3.6 0-3.6 1.7 0 .7.6 1.4 1.7 1.4zm172.8-17.4h7.3v-25.8s-.3.7-1.6 2l-3.5 3.5-2.1-2.1 7.4-7.4h3.1v29.8h7.2v2.9h-17.8zm26.3-.9-3.4 8.4h-2.6l2.7-8.4zm20-23c.9-1.8 1.8-3 1.8-3v-.1s-.8.1-2.5.1h-11.8c-.7 0-1 .3-1 1v2.2h-3.1v-3.3c0-2 .8-2.8 2.8-2.8h19.4v2.2l-16.2 30.6h-3.6zm8 12.4c0-8.4 4.3-18.9 14.4-18.9 3.6 0 6 1.4 6 1.4l-1.2 2.8s-2.1-1.2-4.8-1.2c-6.9 0-10.4 6.9-11 13.5h.1c1.5-2.6 4.9-4 8.4-4 6 0 10.2 4.3 10.2 10.4 0 6.8-4.6 11-10.3 11-7.1 0-11.8-6.4-11.8-15zm11.8 12c4.4 0 7-3.4 7-7.9 0-4.6-2.9-7.6-7.4-7.6-4.4 0-7.9 2.9-7.9 5.6 0 4.4 3.4 9.9 8.3 9.9zm-96.3 16.4c1.1 0 3.5.5 3.5 2.1v.9h-1.3v-.6c0-.8-1.4-1.2-2.3-1.2-2.1 0-3.8 1.6-3.8 4s1.8 4 3.9 4c2 0 3.2-1.4 3.2-1.4l.6 1s-1.3 1.6-3.9 1.6c-3 0-5.2-2.1-5.2-5.2 0-3 2.3-5.2 5.3-5.2zm10.4 0c2.9 0 5.3 2.2 5.3 5.2s-2.3 5.2-5.2 5.2-5.3-2.2-5.3-5.2 2.3-5.2 5.2-5.2zm0 9.2c2.1 0 3.8-1.7 3.8-4 0-2.2-1.7-3.9-3.8-3.9s-3.9 1.7-3.9 3.9c0 2.3 1.8 4 3.9 4zm7.8-7.3c0-.3-.2-.4-.4-.4h-.8v-1.2h1.4c.8 0 1.2.4 1.2 1.1v1.2c.4-.9 1.6-2.5 3.9-2.5 2.5 0 3.3 1.4 3.3 3.8v4.7c0 .3.2.4.4.4h.8v1.2h-1.4c-.8 0-1.2-.4-1.2-1.2v-4.8c0-1.6-.2-2.9-2.2-2.9-1.7 0-3.2 1.2-3.6 2.8-.1.4-.2.9-.2 1.3v4.8h-1.3v-8.3zm11.6 5.9s1.1 1.5 3.1 1.5c1.1 0 2.1-.5 2.1-1.6 0-2.2-5.6-1.8-5.6-5 0-1.8 1.5-2.7 3.5-2.7 1 0 3 .4 3 1.8v.8h-1.3v-.5c0-.7-1.1-1-1.7-1-1.4 0-2.2.5-2.2 1.4 0 2.2 5.6 1.7 5.6 5 0 1.7-1.5 2.8-3.5 2.8-2.6 0-3.8-1.7-3.8-1.7zm9-5.9c0-.3-.2-.4-.4-.4h-.9v-1.2h1.4c.8 0 1.2.4 1.2 1.2v4.8c0 1.6.3 2.9 2.2 2.9 2.2 0 3.7-2 3.7-4.1v-4.8h1.3v8.3c0 .3.2.4.4.4h.8v1.2h-1.4c-.8 0-1.2-.4-1.2-1.1v-1.2c-.4 1-1.7 2.5-3.9 2.5-2.3 0-3.3-1.3-3.3-3.8v-4.7zm12 0c0-.3-.2-.4-.4-.4h-.9v-1.2h1.4c.8 0 1.2.4 1.2 1.1v1.2c.5-1.3 2.1-2.5 3.6-2.5 1.8 0 2.8.8 3.1 2.5.5-1.3 2-2.5 3.7-2.5 2.4 0 3.3 1.4 3.3 3.8v4.7c0 .3.2.4.4.4h.8v1.2h-1.4c-.8 0-1.2-.4-1.2-1.2v-4.8c0-1.6-.3-3-2.2-3-1.5 0-2.7 1.3-3.1 2.8-.1.4-.2.9-.2 1.4v4.7h-1.3v-6c0-1.5-.2-3-2.1-3-1.6 0-2.8 1.4-3.2 2.9-.1.4-.2.9-.2 1.3v4.7h-1.3zm22.6-1.9c2.9 0 5.3 2.2 5.3 5.2s-2.3 5.2-5.2 5.2-5.3-2.2-5.3-5.2 2.4-5.2 5.2-5.2zm.1 9.2c2.1 0 3.8-1.7 3.8-4 0-2.2-1.7-3.9-3.8-3.9s-3.9 1.7-3.9 3.9c0 2.3 1.7 4 3.9 4zm13.1-7.3c0-.3-.2-.4-.4-.4h-.8v-1.2h1.4c.8 0 1.2.4 1.2 1.1v1.2c.5-1.3 2.1-2.5 3.6-2.5 1.8 0 2.8.8 3.1 2.5.5-1.3 2-2.5 3.7-2.5 2.4 0 3.3 1.4 3.3 3.8v4.7c0 .3.2.4.4.4h.8v1.2h-1.4c-.8 0-1.2-.4-1.2-1.2v-4.8c0-1.6-.3-3-2.2-3-1.5 0-2.7 1.3-3.1 2.8-.1.4-.2.9-.2 1.4v4.7h-1.3v-6c0-1.5-.2-3-2.1-3-1.6 0-2.8 1.4-3.2 2.9-.1.4-.2.9-.2 1.3v4.7h-1.3v-8.1zm22.3-1.9c2.7 0 4.2 2.1 4.2 4.6v.7h-7.6c0 2.5 1.8 3.9 3.8 3.9 1.8 0 3-1.2 3-1.2l.7 1s-1.4 1.4-3.7 1.4c-2.9 0-5.2-2.1-5.2-5.2-.1-3.2 2.2-5.2 4.8-5.2zm2.8 4.2c-.1-2.1-1.3-3.1-2.8-3.1-1.6 0-3.1 1.1-3.4 3.1zm7.7-4.2c2.4 0 3.2 1.9 3.2 1.9v-4c0-.3-.2-.4-.4-.4h-.8v-1.2h1.4c.9 0 1.2.4 1.2 1.2v11.1c0 .3.2.4.4.4h.8v1.2h-1.4c-.8 0-1.2-.4-1.2-1.1v-.6s-.8 2-3.4 2c-2.7 0-4.3-2.1-4.3-5.2 0-3.2 1.9-5.3 4.5-5.3zm3.2 5.2c0-2-1-4-3.2-4-1.8 0-3.2 1.5-3.2 4 0 2.4 1.3 4 3.1 4s3.3-1.2 3.3-4zm4.9-3.3c0-.3-.2-.4-.4-.4h-.8v-1.2h1.4c.8 0 1.2.4 1.2 1.2v7.1c0 .3.2.4.4.4h.8v1.2h-1.4c-.8 0-1.2-.4-1.2-1.2zm0-5.6h1.3v1.7h-1.3zm9.2 3.7c2.9 0 5.3 2.2 5.3 5.2s-2.3 5.2-5.2 5.2-5.3-2.2-5.3-5.2c-.1-3 2.3-5.2 5.2-5.2zm0 9.2c2.1 0 3.8-1.7 3.8-4 0-2.2-1.7-3.9-3.8-3.9s-3.9 1.7-3.9 3.9c0 2.3 1.7 4 3.9 4zm-101.7 12.4c0-.3-.2-.4-.4-.4h-.8v-1.2h1.4c.8 0 1.2.4 1.2 1v.7s.8-2 3.4-2c2.7 0 4.3 2.1 4.3 5.2s-1.9 5.2-4.4 5.2c-2.4 0-3.3-1.9-3.3-1.9v5.6h-1.3v-12.2zm4.4 7.3c1.8 0 3.2-1.5 3.2-4 0-2.4-1.3-4-3.1-4-1.7 0-3.2 1.2-3.2 4 0 2 1 4 3.1 4zm11.1-9.2c2.7 0 4.2 2.1 4.2 4.6v.7h-7.6c0 2.5 1.8 3.9 3.8 3.9 1.8 0 3-1.2 3-1.2l.7 1s-1.4 1.4-3.7 1.4c-2.9 0-5.2-2.1-5.2-5.2-.1-3.2 2.2-5.2 4.8-5.2zm2.8 4.2c-.1-2.1-1.3-3.1-2.8-3.1-1.6 0-3.1 1.1-3.4 3.1zm4.1-2.3c0-.3-.2-.4-.4-.4h-.8v-1.2h1.4c.8 0 1.2.3 1.2 1.1v1.5c.5-1.5 1.6-2.6 3.1-2.6.3 0 .5.1.5.1v1.3h-.5c-1.4 0-2.4 1.1-2.9 2.6-.2.6-.3 1.3-.3 1.9v4.2h-1.3zm12.5-4c0-.3-.2-.4-.4-.4h-.8v-1.2h1.4c.8 0 1.2.4 1.2 1.2v11.1c0 .3.2.4.4.4h.8v1.2h-1.4c-.8 0-1.2-.4-1.2-1.2zm4.9 4c0-.3-.2-.4-.4-.4h-.8v-1.2h1.4c.8 0 1.2.4 1.2 1.2v7.1c0 .3.2.4.4.4h.8v1.2h-1.4c-.8 0-1.2-.4-1.2-1.2zm0-5.6h1.3v1.7h-1.3zm5 5.1h-1.3v-1.1h1.3v-2.7h1.3v2.7h2.5v1.1h-2.5v5.1c0 2.3 1.5 2.6 2.2 2.6h.5v1.2h-.6c-1.1 0-3.5-.4-3.5-3.7v-5.2zm6.5.5c0-.3-.2-.4-.4-.4h-.8v-1.2h1.4c.8 0 1.2.3 1.2 1.1v1.5c.5-1.5 1.6-2.6 3.1-2.6.3 0 .5.1.5.1v1.3h-.5c-1.4 0-2.4 1.1-2.9 2.6-.2.6-.3 1.3-.3 1.9v4.2h-1.3zm11.1-1.9c2.9 0 5.3 2.2 5.3 5.2s-2.3 5.2-5.2 5.2-5.3-2.2-5.3-5.2c-.1-3 2.3-5.2 5.2-5.2zm0 9.2c2.1 0 3.8-1.7 3.8-4 0-2.2-1.7-3.9-3.8-3.9s-3.9 1.7-3.9 3.9c0 2.3 1.7 4 3.9 4zm-84.9 12.4c0-.3-.2-.4-.4-.4h-.8v-1.2h1.4c.8 0 1.2.4 1.2 1.2v7.1c0 .3.2.4.4.4h.8v1.2h-1.4c-.8 0-1.2-.4-1.2-1.2zm0-5.6h1.3v1.7h-1.3zm4.9 5.6c0-.3-.2-.4-.4-.4h-.8v-1.2h1.4c.8 0 1.2.4 1.2 1.1v1.2c.5-1.3 2.1-2.5 3.6-2.5 1.8 0 2.8.8 3.1 2.5.5-1.3 2-2.5 3.7-2.5 2.4 0 3.3 1.4 3.3 3.8v4.7c0 .3.2.4.4.4h.8v1.2h-1.4c-.8 0-1.2-.4-1.2-1.2v-4.8c0-1.6-.3-3-2.2-3-1.5 0-2.7 1.3-3.1 2.8-.1.4-.2.9-.2 1.4v4.7h-1.3v-6c0-1.5-.2-3-2.1-3-1.6 0-2.8 1.4-3.2 2.9-.1.4-.2.9-.2 1.3v4.7h-1.3v-8.1zm18.3-4c0-.3-.2-.4-.4-.4h-.8v-1.2h1.4c.8 0 1.2.4 1.2 1.2v4.4s.8-1.9 3.4-1.9c2.7 0 4.3 2.1 4.3 5.2s-1.9 5.2-4.5 5.2c-2.4 0-3.3-1.9-3.3-1.9v1.7h-1.3zm4.4 11.3c1.8 0 3.2-1.5 3.2-4 0-2.4-1.3-4-3.1-4-1.7 0-3.2 1.2-3.2 4 0 2 1 4 3.1 4zm11.5-9.2c2.9 0 5.3 2.2 5.3 5.2s-2.3 5.2-5.2 5.2-5.3-2.2-5.3-5.2c-.1-3 2.3-5.2 5.2-5.2zm0 9.2c2.1 0 3.8-1.7 3.8-4s-1.7-3.9-3.8-3.9-3.9 1.7-3.9 3.9c0 2.3 1.8 4 3.9 4zm7.9-7.8h-1.3v-1.1h1.3v-2.7h1.3v2.7h2.5v1.1h-2.5v5.1c0 2.3 1.5 2.6 2.2 2.6h.5v1.2h-.6c-1.1 0-3.5-.4-3.5-3.7v-5.2zm6.6 0h-1.3v-1.1h1.3v-2.7h1.3v2.7h2.5v1.1h-2.5v5.1c0 2.3 1.5 2.6 2.2 2.6h.5v1.2h-.6c-1.1 0-3.5-.4-3.5-3.7v-5.2zm6.6.5c0-.3-.2-.4-.4-.4h-.8v-1.2h1.4c.8 0 1.2.4 1.2 1.2v7.1c0 .3.2.4.4.4h.8v1.2h-1.4c-.8 0-1.2-.4-1.2-1.2zm-.1-5.6h1.3v1.7h-1.3zm8.3 3.7c2.7 0 3.3 1.7 3.3 1.7v-.4c0-.7.3-1.1 1.1-1.1h1.4v1.2h-.8c-.3 0-.4.1-.4.4v8.1c0 3.2-2.3 4.4-4.8 4.4-1.1 0-2.3-.3-3.2-.8l.5-1.1s1.2.7 2.7.7c1.9 0 3.5-.9 3.5-3.1v-1.6c-.6 1.1-1.6 1.7-3.1 1.7-2.7 0-4.4-2.1-4.4-5.1-.1-2.9 1.6-5 4.2-5zm3.3 5c0-2.9-1.4-3.8-3.1-3.8-1.9 0-3.1 1.4-3.1 3.8s1.3 3.9 3.2 3.9c1.6 0 3-.9 3-3.9zm4.7-7.1c0-.3-.2-.4-.4-.4h-.8v-1.2h1.4c.8 0 1.2.4 1.2 1.2v11.1c0 .3.2.4.4.4h.8v1.2h-1.4c-.8 0-1.2-.4-1.2-1.2zm5 4c0-.3-.2-.4-.4-.4h-.8v-1.2h1.4c.8 0 1.2.4 1.2 1.2v7.1c0 .3.2.4.4.4h.8v1.2h-1.4c-.8 0-1.2-.4-1.2-1.2zm0-5.6h1.3v1.7h-1.3zm10 7.8h.6v-.1c0-2.1-.8-2.8-2.6-2.8-.5 0-1.9.1-1.9.9v.6h-1.3v-1c0-1.4 2.4-1.7 3.2-1.7 3.1 0 3.9 1.7 3.9 3.8v4.8c0 .3.2.4.4.4h.8v1.2h-1.4c-.8 0-1.2-.4-1.2-1.2v-.7s-.8 2.2-3.3 2.2c-1.7 0-3.4-1-3.4-2.9.1-3.4 4.5-3.5 6.2-3.5zm-2.5 5.2c1.9 0 3-2 3-3.7v-.5h-.6c-1.6 0-4.7 0-4.7 2.3.1.9.8 1.9 2.3 1.9zm7.9-7.9h-1.3v-1.1h1.3v-2.7h1.3v2.7h2.5v1.1h-2.5v5.1c0 2.3 1.5 2.6 2.2 2.6h.5v1.2h-.6c-1.1 0-3.5-.4-3.5-3.7v-5.2zm10.6-1.4c2.9 0 5.3 2.2 5.3 5.2s-2.3 5.2-5.2 5.2-5.3-2.2-5.3-5.2 2.3-5.2 5.2-5.2zm0 9.2c2.1 0 3.8-1.7 3.8-4s-1.7-3.9-3.8-3.9-3.9 1.7-3.9 3.9c.1 2.3 1.8 4 3.9 4zm-96.5 10.5c1.1 0 3.5.5 3.5 2.1v.9h-1.3v-.6c0-.8-1.4-1.2-2.3-1.2-2.1 0-3.8 1.6-3.8 4s1.8 4 3.9 4c2 0 3.2-1.4 3.2-1.4l.6 1s-1.3 1.6-3.9 1.6c-3 0-5.2-2.1-5.2-5.2.1-3 2.3-5.2 5.3-5.2zm10.4 0c2.9 0 5.3 2.2 5.3 5.2s-2.3 5.2-5.2 5.2-5.3-2.2-5.3-5.2 2.4-5.2 5.2-5.2zm.1 9.2c2.1 0 3.8-1.7 3.8-4s-1.7-3.9-3.8-3.9-3.9 1.7-3.9 3.9c0 2.3 1.7 4 3.9 4zm7.7-7.3c0-.3-.2-.4-.4-.4h-.8v-1.2h1.4c.8 0 1.2.4 1.2 1.1v1.2c.4-.9 1.6-2.5 3.9-2.5 2.5 0 3.3 1.4 3.3 3.8v4.7c0 .3.2.4.4.4h.8v1.2h-1.4c-.8 0-1.2-.4-1.2-1.2v-4.8c0-1.6-.2-2.9-2.2-2.9-1.7 0-3.2 1.2-3.6 2.8-.1.4-.2.9-.2 1.3v4.8h-1.3v-8.3zm12.1-.5h-1.3v-1.1h1.3v-2.7h1.3v2.7h2.5v1.1h-2.5v5.1c0 2.3 1.5 2.6 2.2 2.6h.5v1.2h-.6c-1.1 0-3.5-.4-3.5-3.7v-5.2zm6.5.5c0-.3-.2-.4-.4-.4h-.8v-1.2h1.4c.8 0 1.2.3 1.2 1.1v1.5c.5-1.5 1.6-2.6 3.1-2.6.3 0 .5.1.5.1v1.3h-.5c-1.4 0-2.4 1.1-2.9 2.6-.2.6-.3 1.3-.3 1.9v4.2h-1.3zm11.1-1.9c2.9 0 5.3 2.2 5.3 5.2s-2.3 5.2-5.2 5.2-5.3-2.2-5.3-5.2c-.1-3 2.3-5.2 5.2-5.2zm0 9.2c2.1 0 3.8-1.7 3.8-4s-1.7-3.9-3.8-3.9-3.9 1.7-3.9 3.9c0 2.3 1.8 4 3.9 4zm12.7-.2h3.1v-11s-.1.3-.7.8l-1.5 1.5-.9-.9 3.1-3.1h1.3v12.7h3v1.2h-7.5v-1.2zm11.1-.4-1.4 3.5h-1.2l1.1-3.5zm4.6-6s-1.9-.9-1.9-2.9c0-1.9 1.5-3.6 4.2-3.6 2.6 0 4.2 1.5 4.2 3.7 0 2.1-1.9 3.4-1.9 3.4 1.3.7 2.2 1.6 2.2 3.2 0 2.2-2 4-4.7 4-2.4 0-4.7-1.5-4.7-4.1.2-2.5 2.6-3.7 2.6-3.7zm2.3 6.5c1.6 0 3.2-1.1 3.2-2.7 0-1.4-1.2-2-2.6-2.6-.5-.2-1.5-.6-1.6-.6-.5 0-2.3 1.3-2.3 3 0 1.8 1.6 2.9 3.3 2.9zm1.1-6.5c.5 0 1.8-1.4 1.8-2.8 0-1.5-1.2-2.4-2.9-2.4-1.8 0-2.8 1-2.8 2.3 0 1.5 1.2 2 2.7 2.5.3.1 1 .4 1.2.4zm5.4.6c0-4 1.2-7.2 4.8-7.2s4.8 3.2 4.8 7.2-1.2 7.2-4.8 7.2-4.8-3.1-4.8-7.2zm8.2 0c0-3.3-.8-5.9-3.4-5.9s-3.4 2.6-3.4 5.9.7 5.9 3.4 5.9c2.6 0 3.4-2.5 3.4-5.9zm-84.6 19.3c0-.3-.2-.4-.4-.4h-.8v-1.1h1.4c.8 0 1.2.4 1.2 1.1v1.2c.4-.9 1.6-2.5 3.9-2.5 2.5 0 3.3 1.4 3.3 3.8v4.7c0 .3.2.4.4.4h.8v1.2h-1.4c-.8 0-1.2-.4-1.2-1.2v-4.8c0-1.6-.2-2.9-2.2-2.9-1.7 0-3.2 1.2-3.6 2.8-.1.4-.2.9-.2 1.3v4.8h-1.3v-8.4zm16-1.8c2.7 0 4.2 2.1 4.2 4.6v.7h-7.6c0 2.5 1.8 3.9 3.8 3.9 1.8 0 3-1.2 3-1.2l.7 1s-1.4 1.4-3.7 1.4c-2.9 0-5.2-2.1-5.2-5.2-.1-3.2 2.1-5.2 4.8-5.2zm2.8 4.2c-.1-2.1-1.3-3.1-2.8-3.1-1.6 0-3.1 1.1-3.4 3.1zm4-6.3c0-.3-.2-.4-.4-.4h-.8v-1.2h1.4c.8 0 1.2.4 1.2 1.2v11.1c0 .3.2.4.4.4h.8v1.2h-1.4c-.8 0-1.2-.4-1.2-1.2zm16.7 2.1c0-1.5-1.1-2.6-2.8-2.6-1.4 0-2.5.7-2.5 1.5v.7h-1.3v-1c0-1.8 2.4-2.4 3.8-2.4 2.6 0 4.2 1.7 4.2 3.9 0 4.9-7.3 4.8-7.3 8.6 0 .3.2.4.5.4h5.8c.3 0 .4-.1.4-.4v-.9h1.3v1.4c0 .8-.4 1.2-1.2 1.2h-7c-.9 0-1.2-.4-1.2-1.4 0-5.3 7.3-4.9 7.3-9zm4.1 3.2c0-4 1.2-7.2 4.8-7.2s4.8 3.2 4.8 7.2-1.2 7.2-4.8 7.2c-3.7 0-4.8-3.1-4.8-7.2zm8.1 0c0-3.3-.8-5.9-3.4-5.9s-3.4 2.6-3.4 5.9.7 5.9 3.4 5.9 3.4-2.6 3.4-5.9zm3.5 5.8h3.1v-11s-.1.3-.7.8l-1.5 1.5-.9-.9 3.1-3.1h1.3v12.7h3v1.2h-7.5v-1.2zm8.1-3.6 6.7-9.1h1.5v8.8h2.2v1.2h-2.2v3.8h-1.4v-3.8h-6.8zm6.9-5.9c0-.6.1-1.3.1-1.3s-.3.6-.7 1.1l-3.8 5.1c-.4.5-.7.9-.7.9s.6-.1 1.1-.1h4.1v-5.7z" fill="#fff"/></svg>