<svg enable-background="new 0 0 403.7 287.7" viewBox="0 0 403.7 287.7" xmlns="http://www.w3.org/2000/svg"><ellipse clip-rule="evenodd" cx="104.9" cy="145.6" fill="#c0b07f" fill-rule="evenodd" rx="93.6" ry="93.6" transform="matrix(1 -.026 .026 1 -3.791 2.807)"/><g fill="#295942"><path d="m250.7 136.1 12.9-9.5s4.8-3.5 7.7-5.6c2-1.5 6.3-.8 7.7-.4.4.1.7 0 1-.2l1.5-1.1 8.4 11.6-1.4 1c-.4.3-.6.7-.5 1.2l.8 8-2.2 8.8c-.4 1.5-1.1 2.3-2.2 2.2-.5 0-1.1-.3-1.4-.7-.4-.4-.5-.9-.5-1.4l1.1-6.5.4-3c.1-.7-.4-1.3-1.1-1.4-.4-.1-.8.1-1.1.4-.1 0-.2.1-.3.2l-19.5 14.4c-.7.6-1.8.4-2.4-.4-.5-.8-.4-1.8.4-2.4l10.1-7.4c.6-.4.7-1.2.3-1.8s-1.2-.7-1.8-.3l-10.1 7.4-1.7 1.3c-.8.6-1.8.4-2.4-.4s-.4-1.8.4-2.4l11.9-8.8c.6-.4.7-1.2.3-1.8s-1.2-.7-1.8-.3l-11.9 8.8c-.8.6-1.8.4-2.4-.4s-.4-1.8.4-2.4l2.7-2 9.3-6.9c.6-.4.7-1.2.3-1.8s-1.2-.7-1.8-.3l-9.3 6.8c-.8.6-1.8.4-2.4-.4-.3-.5-.2-1.6.6-2.1m36-22.2 9.8 13.5-3.8 2.8-9.8-13.5zm-38.4 26c.4.5.8.9 1.3 1.2-1.6 1.4-1.8 3.9-.5 5.6.7.9 1.7 1.5 2.7 1.7-.2 1.1.1 2.2.8 3.1 1 1.4 2.8 2 4.5 1.6.1.7.3 1.3.8 1.9 1.4 1.9 4 2.3 5.9.9l17.6-13-1.1 6.5v.2c-.1 1.2.4 2.4 1.2 3.3s2 1.4 3.2 1.5c1 0 1.9-.2 2.7-.8.9-.7 1.7-1.8 2.1-3.3l2.2-9v-.4l-.8-7.5.8-.6.3.3c.1.1.3.1.5.2.3.1.7 0 .9-.2l4.8-3.5.2.3c.1.1.2.2.4.3.4.3 1 .3 1.4-.1l14.6-10.7c.6-.4.7-1.2.3-1.8s-1.2-.7-1.8-.3l-13.5 9.9-.2-.3-11.6-15.5-.2-.3 13.3-9.8c.6-.4.7-1.2.3-1.8s-1.2-.7-1.8-.3l-14.3 10.6c-.6.4-.7 1.2-.3 1.8l.2.3-4.8 3.5c-.5.4-.7 1.2-.3 1.7l-1 .8c-1.7-.4-6.5-1.1-9.3 1-2 1.5-20.6 15.2-20.6 15.2-1.9 1.3-2.3 3.9-.9 5.8"/><path d="m264 171.3-.5-4.7 16.6-1.8.5 4.7zm20.8-1c-.1-.7-.7-1.2-1.4-1.1h-.4l-.6-5.9c-.1-.7-.7-1.2-1.3-1.1l-.1-1.3c.3-.3.7-.8 1.1-1.3.4-.4.4-1.1 0-1.6-.4-.6-1.2-.7-1.8-.3l-.3.3c-.5.7-1 1.2-1.3 1.6-.3.3-.4.6-.3 1l.2 1.8-14.2 1.6-.2-1.7c0-.5-.3-.8-.7-1l-7.3-3.3-6.6-6.5c-.4-.5-1.1-.5-1.7-.2-.6.4-.7 1.2-.3 1.8l.1.2.2.2 6.7 6.5c.1.1.2.2.4.2l6.8 3.1.1 1-.4.1-.4.3c-.2.3-.3.6-.3.9l.6 5.9h-.4l-.5.1c-.4.2-.7.7-.7 1.3l1.9 18c.1.7.7 1.2 1.4 1.1s1.2-.7 1.1-1.4l-1.8-16.8h.4l19.1-2.1h.4l1.8 16.5c.1.7.7 1.2 1.4 1.1s1.2-.7 1.1-1.4zm-42-48.6 4.3 1.9-6.7 15.3-4.3-1.9zm-25.8 11.4 16.3 7.2c.6.3 1.4 0 1.7-.7l.1-.3 5.4 2.4c.6.3 1.3 0 1.6-.6l1.2.5c.1.4.3 1 .6 1.6.2.5.7.9 1.3.8.7-.1 1.2-.7 1.1-1.4l-.1-.4c-.3-.8-.6-1.5-.7-1.9s-.4-.7-.7-.8l-1.7-.7 5.8-13.1 1.6.7c.4.2.9.1 1.3-.1l6.5-4.7 8.9-2.6c.6-.1 1-.7 1-1.4-.1-.7-.7-1.2-1.4-1.1h-.2c-.1 0-.2.1-.2.1l-8.9 2.6c-.1 0-.3.1-.4.2l-6.1 4.4-.9-.4c.1-.1.1-.3.1-.4 0-.2 0-.3-.1-.5-.1-.3-.4-.6-.7-.7l-5.4-2.4.1-.3c.1-.2.1-.3.1-.5 0-.5-.3-1-.8-1.2l-16.5-7.4c-.6-.3-1.4 0-1.7.7-.3.6 0 1.4.6 1.7l15.3 6.8-.1.3-7.7 17.7-.1.3-15.1-6.7c-.6-.3-1.4 0-1.7.7-.4.6-.1 1.4.6 1.6"/><path d="m184.2 40.9.4.6-.8.5-.4-.6zm123.4-13c-.2.5-.9.8-1.4.6-.6-.2-.8-.9-.6-1.4.2-.6.9-.8 1.4-.6.6.3.8.9.6 1.4zm5.5 1.3c.6.3.8.9.5 1.5-.2.5-.9.8-1.5.5-.5-.2-.8-.9-.5-1.4.4-.6 1-.8 1.5-.6zm-11.7-3.7c-.2.6-.8.9-1.4.7s-.9-.8-.7-1.4.8-.9 1.4-.7h.1c.5.3.8.9.6 1.4zm17.8 6.8c.5.3.7 1 .4 1.5s-.9.7-1.5.5c-.5-.3-.7-1-.5-1.5.3-.5.9-.7 1.4-.5.1-.1.1-.1.2 0zm-24.1-8.9c-.2.6-.8.9-1.3.7-.6-.2-.9-.8-.7-1.3.2-.6.8-.9 1.3-.7 0 0 .1 0 .1.1.5.2.7.7.6 1.2zm29.9 12.2c.5.3.7 1 .4 1.5s-1 .7-1.5.4-.7-1-.4-1.5.9-.6 1.3-.5zm-36.3-13.9c-.1.6-.7.9-1.3.8s-1-.7-.8-1.3c.1-.6.7-1 1.3-.8h.2c.4.2.7.8.6 1.3zm41.9 17.5c.5.3.6 1 .3 1.5s-1 .6-1.5.3-.6-1-.3-1.5c.3-.4.8-.6 1.3-.4zm-48.4-18.9c-.1.6-.7 1-1.3.9s-1-.7-.9-1.3.7-1 1.3-.9c.1 0 .2 0 .2.1.5.2.8.7.7 1.2zm53.8 22.8c.5.4.6 1 .2 1.5-.3.5-1.1.6-1.5.2-.5-.4-.6-1-.2-1.5.3-.4.9-.5 1.3-.3.1 0 .2.1.2.1zm-60.4-23.9c-.1.6-.6 1-1.2.9s-1-.6-.9-1.2.6-1 1.2-.9c.1 0 .2 0 .3.1.4.1.7.6.6 1.1zm65.7 28.1c.5.4.5 1.1.1 1.5-.4.5-1.1.5-1.6.1-.4-.4-.5-1.1-.1-1.5.3-.4.8-.5 1.2-.3.2.1.3.2.4.2zm-72.3-28.8c-.1.6-.6 1.1-1.2 1-.6 0-1.1-.6-1-1.2s.6-1.1 1.2-1c.1 0 .2 0 .3.1.4.1.7.6.7 1.1zm-6.6-.4c0 .6-.5 1.1-1.1 1.1s-1.1-.5-1-1.1c0-.6.5-1.1 1.1-1.1l.4.1c.3.1.6.5.6 1zm-6.7-.1c0 .6-.4 1.1-1 1.1s-1.1-.5-1.1-1.1.5-1.1 1-1.1c.2 0 .3 0 .5.1.3.2.6.6.6 1zm-6.6.3c0 .6-.4 1.1-1 1.2-.6 0-1.1-.4-1.2-1 0-.6.4-1.1 1-1.2.2 0 .3 0 .5.1.3.1.6.5.7.9zm-6.7.6c.1.6-.3 1.2-.9 1.2-.6.1-1.1-.3-1.2-.9s.4-1.1.9-1.2c.2 0 .4 0 .6.1.3.1.6.4.6.8zm-6.5 1c.1.6-.3 1.1-.9 1.3-.6.1-1.2-.3-1.3-.9s.3-1.2.9-1.3c.2 0 .4 0 .6.1.3.1.6.4.7.8zm-6.6 1.3c.2.6-.2 1.2-.8 1.3s-1.2-.2-1.3-.8.2-1.2.8-1.3c.2-.1.5 0 .7 0 .3.2.5.5.6.8zm-6.4 1.7c.2.6-.1 1.2-.7 1.3-.6.2-1.2-.2-1.3-.7-.2-.6.1-1.2.7-1.4.2-.1.5-.1.7 0 .2.2.5.4.6.8zm-6.4 1.9c.2.6-.1 1.2-.7 1.4s-1.2-.1-1.4-.7.1-1.2.7-1.4c.2-.1.5-.1.8 0 .3.2.5.4.6.7zm-6.2 2.3c.2.6 0 1.2-.6 1.4s-1.2 0-1.4-.6 0-1.2.6-1.4c.3-.1.6-.1.8 0 .3.2.5.4.6.6zm-6.1 2.7c.2.5 0 1.2-.5 1.5s-1.2 0-1.5-.5c-.3-.6 0-1.2.5-1.5.3-.1.6-.1.9 0 .3 0 .5.2.6.5zm-6 2.9c.3.5.1 1.2-.4 1.5s-1.2.1-1.5-.4-.1-1.2.4-1.5c.3-.2.6-.2.9-.1s.5.3.6.5zm-5.8 3.3c.3.5.1 1.2-.4 1.5s-1.2.1-1.5-.4-.2-1.2.4-1.5c.3-.2.7-.2 1-.1.2.1.4.2.5.5zm158.6 20.4c.4.4.4 1.1 0 1.5s-1.1.4-1.6 0c-.4-.4-.4-1.1 0-1.5.3-.3.8-.4 1.2-.2.2 0 .3.1.4.2zm4.4 4.8c.4.5.3 1.1-.1 1.5-.5.4-1.2.4-1.6-.1s-.4-1.2.1-1.5c.3-.3.8-.3 1.1-.2s.4.2.5.3zm4.2 5c.4.5.3 1.2-.2 1.5-.5.4-1.2.3-1.5-.2-.4-.5-.3-1.2.2-1.5.3-.2.7-.3 1.1-.2zm3.9 5.3c.3.5.2 1.2-.3 1.5s-1.2.2-1.5-.3-.2-1.2.3-1.5c.3-.2.7-.3 1.1-.1.1 0 .3.2.4.4zm3.6 5.4c.3.5.2 1.2-.3 1.5s-1.2.2-1.5-.3-.2-1.2.3-1.5c.3-.2.7-.2 1-.1.2 0 .4.2.5.4zm3.4 5.6c.3.5.1 1.2-.4 1.5s-1.2.1-1.5-.4-.1-1.2.4-1.5c.3-.2.7-.2 1-.1.2.1.4.2.5.5zm3.1 5.7c.3.5 0 1.2-.5 1.4-.5.3-1.2 0-1.5-.5s-.1-1.2.5-1.4c.3-.2.6-.1.9 0 .2.1.4.3.6.5zm2.7 6c.3.5 0 1.2-.6 1.4-.5.2-1.2 0-1.4-.6-.3-.6 0-1.2.6-1.4.3-.1.6-.1.8 0 .3.1.5.3.6.6zm2.5 6c.2.6-.1 1.2-.6 1.4s-1.2-.1-1.4-.6c-.2-.6.1-1.2.6-1.4.2-.1.5-.1.8 0 .2.1.5.3.6.6zm2.1 6.1c.2.6-.1 1.2-.7 1.4s-1.2-.1-1.4-.7.1-1.2.7-1.4c.2-.1.5-.1.7 0 .4.2.6.4.7.7zm1.9 6.3c.1.6-.2 1.2-.8 1.3-.6.2-1.2-.2-1.3-.8-.2-.6.2-1.2.8-1.4.2 0 .5 0 .7.1.3.2.5.5.6.8zm1.5 6.4c.1.6-.3 1.2-.9 1.3s-1.1-.2-1.3-.8c-.1-.6.3-1.2.8-1.3.2 0 .4 0 .6.1.5 0 .7.3.8.7zm1.2 6.4c.1.6-.3 1.2-.9 1.2-.6.1-1.1-.3-1.2-.9s.3-1.1.9-1.2c.2 0 .4 0 .6.1.3.1.5.4.6.8zm.8 6.4c.1.6-.4 1.1-1 1.2s-1.2-.4-1.2-1 .4-1.1 1-1.2c.2 0 .4 0 .5.1.4.2.7.5.7.9zm.6 6.5c0 .6-.4 1.1-1 1.2-.6 0-1.1-.4-1.1-1s.4-1.1 1-1.2c.2 0 .3 0 .5.1.3.1.6.5.6.9zm.2 6.6c0 .6-.5 1.1-1.1 1.1s-1.1-.5-1.1-1.1.5-1.1 1.1-1.1c.1 0 .3 0 .4.1.4.1.7.5.7 1zm-.1 6.5c0 .6-.5 1.1-1.1 1.1s-1-.5-1-1.1.5-1 1.1-1c.1 0 .3 0 .4.1.3 0 .6.4.6.9zm-.5 6.5c-.1.6-.6 1-1.2 1s-1-.6-1-1.2c.1-.6.6-1 1.2-1 .1 0 .2 0 .3.1.5.1.8.6.7 1.1zm-.7 6.4c-.1.6-.6 1-1.3.9-.6-.1-1-.6-.9-1.3.1-.6.6-1 1.2-.9.1 0 .2 0 .3.1.4.3.7.7.7 1.2zm-1.1 6.5c-.1.6-.7 1-1.3.9s-1-.7-.9-1.3.7-1 1.3-.9c.1 0 .1 0 .2.1.5.1.8.6.7 1.2zm-1.5 6.3c-.2.6-.7.9-1.3.8-.6-.2-.9-.7-.8-1.3.2-.6.7-.9 1.3-.8 0 0 .1 0 .2.1.5.2.8.7.6 1.2zm-1.7 6.3c-.2.6-.8.9-1.4.7s-.9-.8-.7-1.3c.2-.6.8-.9 1.4-.7h.1c.5.2.8.8.6 1.3zm-2.1 6.2c-.2.6-.8.8-1.4.6s-.9-.8-.7-1.4.8-.8 1.4-.6h.1c.6.2.8.8.6 1.4zm-2.4 6c-.2.6-.9.8-1.4.6-.6-.2-.8-.9-.6-1.4.2-.6.9-.8 1.4-.6.6.2.9.9.6 1.4zm-3.2 4.5c.5.3.8.9.5 1.5s-.9.8-1.5.5c-.5-.3-.7-.9-.5-1.4.3-.6 1-.8 1.5-.6zm-2.9 5.8c.5.3.7 1 .5 1.5-.3.5-1 .7-1.5.4s-.7-.9-.5-1.5c.3-.5.9-.7 1.5-.4zm-3.2 5.6c.5.3.7 1 .4 1.5s-1 .7-1.5.4-.7-1-.4-1.5.9-.6 1.4-.4c0-.1.1 0 .1 0zm-3.5 5.4c.5.3.6 1 .3 1.5s-1 .6-1.5.3-.6-1-.3-1.5c.3-.4.9-.6 1.3-.4.1.1.2.1.2.1zm-3.7 5.3c.5.3.6 1 .2 1.5s-1 .6-1.5.2c-.5-.3-.6-1-.2-1.5.3-.4.8-.5 1.3-.4 0 .1.1.1.2.2zm-4 5.1c.4.4.5 1.1.1 1.5-.4.5-1.1.5-1.5.1-.5-.4-.5-1.1-.1-1.6.3-.4.8-.5 1.2-.3zm-8.9 9.6c.4.4.4 1.1 0 1.5s-1.1.4-1.5 0-.4-1.1 0-1.5c.3-.3.8-.4 1.2-.2 0 0 .2.1.3.2zm-4.9 4.5c.4.5.3 1.1-.1 1.5-.5.4-1.1.3-1.5-.1-.4-.5-.3-1.1.1-1.5.3-.3.8-.3 1.1-.2.1.1.3.1.4.3zm-5.1 4.2c.4.5.3 1.2-.2 1.5-.5.4-1.2.3-1.5-.2-.4-.5-.3-1.2.2-1.5.3-.2.7-.3 1.1-.1zm-5.3 4c.3.5.2 1.2-.3 1.5s-1.2.2-1.5-.3-.2-1.2.3-1.5c.3-.2.7-.2 1-.1.2.1.4.2.5.4zm-5.5 3.7c.3.5.2 1.2-.3 1.5s-1.2.2-1.5-.3-.2-1.2.3-1.5c.3-.2.7-.2 1-.1.2.1.4.2.5.4zm-5.7 3.4c.3.5.1 1.2-.4 1.5s-1.2.1-1.5-.4-.1-1.2.4-1.5c.3-.2.7-.2 1-.1.2.1.4.3.5.5zm-5.8 3.1c.3.5 0 1.2-.5 1.5s-1.2 0-1.4-.5c-.3-.5-.1-1.2.5-1.4.3-.1.6-.2.9 0 .1 0 .3.2.5.4zm-6.1 2.8c.2.6 0 1.2-.6 1.4s-1.2 0-1.4-.6 0-1.2.6-1.4c.3-.1.6-.1.8 0 .3.1.5.3.6.6zm-6.1 2.5c.2.5-.1 1.2-.6 1.4-.6.2-1.2-.1-1.4-.6-.2-.6.1-1.2.6-1.4.3-.1.5-.1.8 0s.5.3.6.6zm-6.3 2.1c.2.6-.1 1.2-.7 1.4s-1.2-.1-1.4-.7.1-1.2.7-1.3c.2-.1.5-.1.7 0 .4.1.6.3.7.6zm-6.4 1.8c.1.6-.2 1.2-.8 1.3s-1.2-.2-1.3-.8.2-1.2.8-1.3c.2-.1.5 0 .7 0 .3.2.5.5.6.8zm-6.4 1.5c.1.6-.3 1.2-.9 1.3s-1.2-.3-1.3-.9.3-1.2.9-1.3c.2-.1.4 0 .6.1.3.2.6.5.7.8zm-6.6 1.2c.1.6-.3 1.1-.9 1.2s-1.2-.3-1.2-.9c-.1-.6.3-1.2.9-1.2.2 0 .4 0 .6.1.3.1.6.4.6.8zm-6.6.8c.1.6-.4 1.1-1 1.2s-1.1-.4-1.2-1c0-.6.4-1.1 1-1.2.2 0 .4 0 .5.1.5.2.7.5.7.9zm-6.6.5c0 .6-.5 1.1-1 1.1-.6 0-1.1-.5-1.2-1.1 0-.6.5-1.1 1-1.1.2 0 .3 0 .5.1.4.2.7.6.7 1zm-6.6.1c0 .6-.5 1.1-1.1 1.1s-1.1-.5-1.1-1.1.5-1.1 1.1-1.1c.1 0 .3 0 .4.1.4.2.7.6.7 1zm-6.6-.2c0 .6-.6 1.1-1.1 1-.6 0-1.1-.6-1-1.2 0-.6.5-1 1.2-1 .1 0 .2 0 .4.1.2.2.5.7.5 1.1zm-6.6-.5c-.1.6-.6 1-1.2 1-.6-.1-1-.6-.9-1.2s.6-1 1.2-1c.1 0 .2 0 .3.1.3.1.6.6.6 1.1zm-6.6-.9c-.1.6-.6 1-1.2.9s-1-.7-.9-1.3.6-1 1.2-.9c.1 0 .2 0 .2.1.5.2.8.7.7 1.2zm-6.5-1.2c-.2.6-.7 1-1.3.8-.6-.1-1-.7-.8-1.3.1-.6.7-.9 1.3-.8h.2c.4.2.7.7.6 1.3zm-37.4-15.8c.5.3.7 1 .4 1.5s-1 .7-1.5.4-.7-1-.4-1.5.9-.6 1.4-.4zm30.9 14.2c-.2.6-.8.9-1.4.7s-.9-.8-.8-1.3c.2-.6.8-.9 1.4-.8 0 0 .1 0 .1.1.6.2.9.8.7 1.3zm-25.2-11c.5.3.7.9.5 1.5-.3.5-.9.7-1.5.5-.5-.3-.7-.9-.5-1.5.3-.5.9-.7 1.5-.5zm18.9 9.1c-.2.6-.8.9-1.4.7s-.9-.8-.7-1.4.8-.8 1.4-.7h.1c.5.3.8.9.6 1.4zm-13-6.2c.6.2.8.9.6 1.4-.3.5-.9.8-1.5.5-.5-.3-.8-.9-.5-1.4s.9-.7 1.4-.5zm6.7 4c-.2.6-.9.8-1.4.6-.6-.2-.8-.8-.6-1.4.2-.5.9-.8 1.4-.6.6.2.8.9.6 1.4zm-24.1-13.6.4.2c.1.1.2.2.2.4.1.1.1.3.1.4s0 .3-.1.4c-.1.2-.3.5-.6.6-.5.2-1.2-.1-1.4-.6-.1-.3-.1-.6 0-.8l.2-.4c.1-.1.2-.2.4-.2.3-.1.6-.1.8 0zm163.7-19.1c.3.1.5.3.6.6s.1.5 0 .8l-.2.4c-.1.1-.2.2-.4.2-.1.1-.3.1-.4.1-.3 0-.6-.1-.8-.3-.1-.1-.2-.2-.2-.4-.1-.1-.1-.3-.1-.4s0-.3.1-.4c.1-.3.3-.5.6-.6s.6-.1.8 0zm-5.8-180.3.4.2c.1.1.2.2.2.4.1.1.1.3.1.4s0 .3-.1.4l-.2.4c-.1.1-.2.2-.4.2-.5.2-1.2-.1-1.4-.6-.1-.3-.1-.6 0-.8l.2-.4c.1-.1.2-.2.4-.2.1-.1.3-.1.4-.1s.3 0 .4.1zm-159.7-12.5.4.2c.1.1.2.2.2.4.1.3.1.6 0 .8l-.2.4c-.1.1-.2.2-.4.2-.5.2-1.2-.1-1.4-.6l-.1-.4c0-.1 0-.3.1-.4.1-.3.3-.5.6-.6.1-.1.3-.1.4-.1.2 0 .3.1.4.1zm0-.2c1.6 1.5 1.6 3.9.2 5.5-1.5 1.6-3.9 1.6-5.5.2-1.6-1.5-1.6-3.9-.2-5.5 1.5-1.6 3.9-1.7 5.5-.2"/><path d="m185.2 250.3-1.3 4.3-3.7-7.4 8.3.1zm-157.3-136.3h-1.4v-1.8h6.5c2.7 0 4.6 1.8 4.6 4.6s-1.9 4.7-4.6 4.7h-3v5.4h-2.1zm4.8 5.7c1.7 0 2.8-1.1 2.8-2.9s-1.1-2.8-2.8-2.8h-2.7v5.7zm6.5 5.5h.3c.4 0 .6-.1.7-.5l4.6-12.5h2.2l4.6 12.5c.1.4.3.5.7.5h.3v1.8h-1.2c-1 0-1.4-.3-1.7-1.2l-1.1-3h-5.4l-1.1 3c-.4 1-.7 1.2-1.7 1.2h-1.1v-1.8zm8.9-4.2-1.6-4.5c-.3-.8-.6-2.1-.6-2.1s-.3 1.3-.6 2.1l-1.6 4.5zm9-7h-1.4v-1.8h6.4c2.6 0 4.4 1.6 4.4 4.3 0 2.5-1.6 3.7-2.6 3.9 0 0 .4.2.6.7l1.8 3.5c.2.4.5.5 1 .5h.3v1.8h-1c-1.1 0-1.6-.1-2-1.1l-2-4c-.4-.7-.6-.8-1.5-.8h-1.9v5.9h-2.1zm4.8 5.3c1.6 0 2.5-1 2.5-2.7s-.9-2.6-2.5-2.6h-2.7v5.3zm13.1-5.3h-3c-.3 0-.5.1-.5.5v.9h-1.9v-1.9c0-.9.3-1.2 1.2-1.2h10.1c.9 0 1.2.3 1.2 1.2v1.9h-1.9v-.9c0-.3-.2-.5-.5-.5h-3v13h-1.7zm10.3 11.2h.9c.3 0 .5-.2.5-.5v-12.5h1.9l6.5 9.3c.5.8 1.2 2 1.2 2s-.1-1.2-.1-2v-8c0-.9.4-1.3 1.4-1.3h2.1v1.8h-.9c-.3 0-.5.1-.5.5v12.5h-1.9l-6.6-9.3c-.5-.8-1.2-2-1.2-2s.1 1.2.1 2v8c0 .9-.4 1.3-1.3 1.3h-2.1zm19.4-11.2h-1.4v-1.8h8.6c.9 0 1.3.4 1.3 1.3v1.9h-1.9v-.9c0-.3-.2-.5-.5-.5h-4.2v4.6h5.1v1.8h-5.1v4.3c0 .3.2.5.5.5h4.3c.3 0 .5-.2.5-.5v-.9h1.9v1.9c0 .9-.4 1.3-1.3 1.3h-6.5c-.9 0-1.3-.4-1.3-1.3zm13.9 0h-1.4v-1.8h6.4c2.6 0 4.4 1.6 4.4 4.3 0 2.5-1.6 3.7-2.6 3.9 0 0 .4.2.6.7l1.8 3.5c.2.4.5.5 1 .5h.3v1.8h-1c-1.1 0-1.6-.1-2-1.1l-2-4c-.4-.7-.6-.8-1.5-.8h-1.9v5.9h-2.1zm4.8 5.3c1.6 0 2.5-1 2.5-2.7s-.9-2.6-2.5-2.6h-2.7v5.3zm9.9 4.2s1.5 1.8 3.7 1.8c1.4 0 2.5-.8 2.5-2.2 0-3.1-7.1-2.6-7.1-7.2 0-2.2 1.9-3.9 4.7-3.9 1.6 0 4.2.7 4.2 2.7v1.2h-1.9v-.7c0-.8-1.1-1.3-2.3-1.3-1.6 0-2.6.9-2.6 2 0 3 7.1 2.3 7.1 7.1 0 2.2-1.7 4.2-4.7 4.2-3.1 0-4.9-2.2-4.9-2.2zm13.4-9c0-.3-.2-.5-.5-.5h-.9v-1.8h2.1c.9 0 1.3.4 1.3 1.3v5.1h7.5v-5.1c0-.9.4-1.3 1.3-1.3h2.1v1.8h-.9c-.3 0-.5.1-.5.5v12.5h-2.1v-6.5h-7.5v6.5h-2.1v-12.5zm16.7 10.7h1.4v-11.2h-1.4v-1.8h4.9v1.8h-1.4v11.1h1.4v1.8h-4.9zm10-11.2h-1.4v-1.8h6.5c2.7 0 4.6 1.8 4.6 4.6s-1.9 4.7-4.6 4.7h-3v5.4h-2.1zm4.8 5.7c1.7 0 2.8-1.1 2.8-2.9s-1.1-2.8-2.8-2.8h-2.7v5.7z"/></g><path d="m50.6 133.6h-.8v-.8h3.8c1.6 0 2.8 1.1 2.8 2.7 0 1.7-1.2 2.8-2.8 2.8h-2.1v3.6h-.9zm2.9 3.9c1.2 0 2-.7 2-2 0-1.2-.8-1.9-2-1.9h-2v3.9zm8.7.3h.4v-.1c0-1.4-.5-1.8-1.7-1.8-.3 0-1.3.1-1.3.6v.4h-.8v-.6c0-.9 1.5-1.1 2.1-1.1 2.1 0 2.5 1.1 2.5 2.5v3.1c0 .2.1.3.3.3h.5v.8h-.9c-.6 0-.8-.2-.8-.8v-.5s-.5 1.4-2.2 1.4c-1.1 0-2.2-.6-2.2-1.9.1-2.2 3-2.3 4.1-2.3zm-1.6 3.4c1.2 0 2-1.3 2-2.4v-.3h-.4c-1 0-3.1 0-3.1 1.5 0 .6.5 1.2 1.5 1.2zm6.3-4.8c0-.2-.1-.3-.3-.3h-.5v-.8h.9c.5 0 .8.2.8.7v.9c.3-1 1-1.7 2.1-1.7h.3v.9h-.3c-.9 0-1.6.7-1.9 1.7-.1.4-.2.9-.2 1.3v2.7h-.9zm6.1-.3h-.9v-.7h.9v-1.8h.9v1.8h1.6v.7h-1.6v3.3c0 1.5 1 1.7 1.5 1.7h.3v.8h-.4c-.7 0-2.3-.2-2.3-2.4zm5.5.3c0-.2-.1-.3-.3-.3h-.5v-.8h.9c.5 0 .8.2.8.7v.8c.2-.6 1.1-1.6 2.6-1.6 1.6 0 2.2.9 2.2 2.5v3.1c0 .2.1.3.3.3h.5v.8h-1c-.6 0-.8-.2-.8-.8v-3.1c0-1-.2-1.9-1.4-1.9-1.1 0-2.1.8-2.4 1.8-.1.3-.1.6-.1.9v3.1h-.9v-5.5zm11.7-1.2c1.8 0 2.7 1.4 2.7 3v.4h-5c0 1.6 1.2 2.6 2.5 2.6 1.2 0 1.9-.8 1.9-.8l.4.7s-.9.9-2.4.9c-1.9 0-3.4-1.4-3.4-3.4.1-2.1 1.6-3.4 3.3-3.4zm1.8 2.7c-.1-1.3-.9-2-1.8-2-1.1 0-2 .7-2.2 2zm4-1.5c0-.2-.1-.3-.3-.3h-.5v-.8h.9c.5 0 .8.2.8.7v.9c.3-1 1-1.7 2.1-1.7h.3v.9h-.3c-.9 0-1.6.7-1.9 1.7-.1.4-.2.9-.2 1.3v2.7h-.9zm5.7 3.8s.7 1 2 1c.7 0 1.4-.3 1.4-1 0-1.4-3.6-1.2-3.6-3.2 0-1.2 1-1.8 2.3-1.8.7 0 2 .3 2 1.2v.6h-.8v-.3c0-.5-.7-.7-1.1-.7-.9 0-1.4.3-1.4.9 0 1.5 3.6 1.1 3.6 3.3 0 1.1-1 1.8-2.3 1.8-1.7 0-2.5-1.1-2.5-1.1zm7.2-6.4c0-.2-.1-.3-.3-.3h-.6v-.8h.9c.6 0 .8.2.8.8v3.2c.2-.6 1.1-1.6 2.6-1.6 1.6 0 2.2.9 2.2 2.5v3.1c0 .2.1.3.3.3h.5v.8h-.9c-.6 0-.8-.2-.8-.8v-3.1c0-1-.2-1.9-1.4-1.9-1.1 0-2.1.8-2.3 1.8-.1.3-.1.6-.1.9v3.1h-.9zm9.2 2.6c0-.2-.1-.3-.3-.3h-.5v-.8h.9c.6 0 .8.2.8.8v4.7c0 .2.1.3.3.3h.5v.8h-.9c-.6 0-.8-.2-.8-.8zm-.1-3.6h.9v1.1h-.9zm4.5 3.6c0-.2-.1-.3-.3-.3h-.5v-.8h.9c.6 0 .8.2.8.7v.4s.5-1.3 2.2-1.3 2.8 1.4 2.8 3.4-1.2 3.4-2.9 3.4c-1.6 0-2.1-1.2-2.1-1.2v3.7h-.9zm2.9 4.8c1.1 0 2.1-1 2.1-2.6s-.8-2.6-2.1-2.6c-1.1 0-2.1.8-2.1 2.6.1 1.3.8 2.6 2.1 2.6zm13.6-6c.7 0 2.3.3 2.3 1.4v.6h-.8v-.4c0-.5-.9-.8-1.5-.8-1.4 0-2.5 1-2.5 2.6s1.2 2.6 2.5 2.6 2.1-.9 2.1-.9l.4.7s-.9 1.1-2.5 1.1c-1.9 0-3.4-1.4-3.4-3.4 0-2.1 1.5-3.5 3.4-3.5zm8.1 0c1.9 0 3.4 1.4 3.4 3.4s-1.5 3.4-3.4 3.4-3.4-1.5-3.4-3.4c0-2 1.5-3.4 3.4-3.4zm0 6c1.4 0 2.5-1.1 2.5-2.6s-1.1-2.6-2.5-2.6-2.5 1.1-2.5 2.6 1.1 2.6 2.5 2.6zm6.3-4.8c0-.2-.1-.3-.3-.3h-.5v-.8h.9c.5 0 .8.2.8.7v.8c.2-.6 1.1-1.6 2.6-1.6 1.6 0 2.2.9 2.2 2.5v3.1c0 .2.1.3.3.3h.5v.8h-.9c-.6 0-.8-.2-.8-.8v-3.1c0-1-.2-1.9-1.4-1.9-1.1 0-2.1.8-2.4 1.8-.1.3-.1.6-.1.9v3.1h-.9zm-111.2 14.9c0-.2-.1-.3-.3-.3h-.5v-.8h.9c.6 0 .8.2.8.8v4.7c0 .2.1.3.3.3h.5v.8h-.9c-.6 0-.8-.2-.8-.8zm0-3.7h.8v1.1h-.9v-1.1zm4.4 1.1c0-.2-.1-.3-.3-.3h-.5v-.8h.9c.6 0 .8.2.8.8v7.2c0 .2.1.3.3.3h.5v.8h-.9c-.6 0-.8-.2-.8-.8zm9.6-.3h-.8v-.8h3.8c1.6 0 2.8 1.1 2.8 2.7 0 1.7-1.2 2.8-2.8 2.8h-2.1v3.6h-.9zm2.8 3.9c1.2 0 2-.7 2-2 0-1.2-.8-1.9-2-1.9h-2v3.9zm8.8.4h.4v-.1c0-1.4-.5-1.8-1.7-1.8-.3 0-1.3.1-1.3.6v.4h-.8v-.6c0-.9 1.5-1.1 2.1-1.1 2.1 0 2.5 1.1 2.5 2.5v3.1c0 .2.1.3.3.3h.5v.8h-.9c-.6 0-.8-.2-.8-.8v-.5s-.5 1.4-2.2 1.4c-1.1 0-2.2-.6-2.2-1.9.1-2.2 2.9-2.3 4.1-2.3zm-1.7 3.4c1.2 0 2-1.3 2-2.4v-.3h-.4c-1 0-3.1 0-3.1 1.5.1.6.6 1.2 1.5 1.2zm6.4-4.8c0-.2-.1-.3-.3-.3h-.5v-.8h.9c.5 0 .8.2.8.7v.9c.3-1 1-1.7 2.1-1.7h.3v.9h-.3c-.9 0-1.6.7-1.9 1.7-.1.4-.2.9-.2 1.3v2.7h-.9zm8.5-1.2c.7 0 2.3.3 2.3 1.4v.6h-.8v-.4c0-.5-.9-.8-1.5-.8-1.4 0-2.5 1-2.5 2.6s1.2 2.6 2.5 2.6 2.1-.9 2.1-.9l.4.7s-.9 1.1-2.5 1.1c-1.9 0-3.4-1.4-3.4-3.4 0-2.1 1.5-3.5 3.4-3.5zm8.1 0c1.9 0 3.4 1.4 3.4 3.4s-1.5 3.4-3.4 3.4-3.4-1.5-3.4-3.4c0-2 1.5-3.4 3.4-3.4zm0 6c1.4 0 2.5-1.1 2.5-2.6s-1.1-2.6-2.5-2.6-2.5 1.1-2.5 2.6c0 1.4 1.1 2.6 2.5 2.6zm10.6-.2h.6c.2 0 .3-.1.3-.3v-8h.8l4.6 6.5c.3.5.7 1.2.7 1.2s-.1-.7-.1-1.2v-5.7c0-.6.2-.8.8-.8h1v.8h-.6c-.2 0-.3.1-.3.3v8h-.8l-4.6-6.5c-.3-.4-.7-1.2-.7-1.2s.1.7.1 1.2v5.7c0 .6-.2.8-.8.8h-1zm14.9-3.2h.4v-.1c0-1.4-.5-1.8-1.7-1.8-.3 0-1.3.1-1.3.6v.4h-.8v-.6c0-.9 1.5-1.1 2.1-1.1 2.1 0 2.5 1.1 2.5 2.5v3.1c0 .2.1.3.3.3h.5v.8h-.9c-.6 0-.8-.2-.8-.8v-.5s-.5 1.4-2.2 1.4c-1.1 0-2.2-.6-2.2-1.9.1-2.2 3-2.3 4.1-2.3zm-1.6 3.4c1.2 0 2-1.3 2-2.4v-.3h-.4c-1 0-3.1 0-3.1 1.5 0 .6.5 1.2 1.5 1.2zm5.7 0 3.6-4.6c.2-.3.5-.6.5-.6h-3c-.2 0-.3.1-.3.3v.5h-.8v-.7c0-.6.2-.8.8-.8h4.5v.6l-3.6 4.5c-.3.3-.5.6-.5.6h3.4c.2 0 .3-.1.3-.3v-.5h.8v.8c0 .6-.2.8-.8.8h-4.8v-.6zm8.4-4.8c0-.2-.1-.3-.3-.3h-.5v-.8h.9c.6 0 .8.2.8.8v4.7c0 .2.1.3.3.3h.5v.8h-.9c-.6 0-.8-.2-.8-.8zm0-3.7h.9v1.1h-.9zm7.3 2.5c1.9 0 3.4 1.4 3.4 3.4s-1.5 3.4-3.4 3.4-3.4-1.5-3.4-3.4c0-2 1.5-3.4 3.4-3.4zm0 6c1.4 0 2.5-1.1 2.5-2.6s-1.1-2.6-2.5-2.6-2.5 1.1-2.5 2.6c0 1.4 1.1 2.6 2.5 2.6zm6.3-4.8c0-.2-.1-.3-.3-.3h-.5v-.8h.9c.5 0 .8.2.8.7v.8c.2-.6 1.1-1.6 2.6-1.6 1.6 0 2.2.9 2.2 2.5v3.1c0 .2.1.3.3.3h.5v.8h-.9c-.6 0-.8-.2-.8-.8v-3.1c0-1-.2-1.9-1.4-1.9-1.1 0-2.1.8-2.4 1.8-.1.3-.1.6-.1.9v3.1h-.9zm12.5 1.4h.4v-.1c0-1.4-.5-1.8-1.7-1.8-.3 0-1.3.1-1.3.6v.4h-.8v-.6c0-.9 1.5-1.1 2.1-1.1 2.1 0 2.5 1.1 2.5 2.5v3.1c0 .2.1.3.3.3h.5v.8h-.9c-.6 0-.8-.2-.8-.8v-.5s-.5 1.4-2.2 1.4c-1.1 0-2.2-.6-2.2-1.9.2-2.2 3-2.3 4.1-2.3zm-1.6 3.4c1.2 0 2-1.3 2-2.4v-.3h-.4c-1 0-3.1 0-3.1 1.5.1.6.5 1.2 1.5 1.2zm6.4-7.4c0-.2-.1-.3-.3-.3h-.5v-.8h.9c.6 0 .8.2.8.8v7.2c0 .2.1.3.3.3h.5v.8h-.9c-.6 0-.8-.2-.8-.8zm7 1.4c1.8 0 2.7 1.4 2.7 3v.4h-5c0 1.6 1.2 2.6 2.5 2.6 1.2 0 1.9-.8 1.9-.8l.4.7s-.9.9-2.4.9c-1.9 0-3.4-1.4-3.4-3.4.1-2.2 1.6-3.4 3.3-3.4zm1.8 2.7c-.1-1.3-.9-2-1.8-2-1.1 0-2 .7-2.2 2zm-102 12.1c1.6 0 2.1 1.2 2.1 1.2v-2.6c0-.2-.1-.3-.3-.3h-.5v-.8h.9c.6 0 .8.2.8.8v7.2c0 .2.1.3.3.3h.5v.8h-.9c-.5 0-.8-.2-.8-.7v-.4s-.5 1.3-2.2 1.3-2.8-1.4-2.8-3.4 1.2-3.4 2.9-3.4zm2.1 3.4c0-1.3-.7-2.6-2.1-2.6-1.1 0-2.1 1-2.1 2.6s.8 2.6 2.1 2.6c1.1 0 2.1-.7 2.1-2.6zm7-3.4c1.8 0 2.7 1.4 2.7 3v.4h-5c0 1.6 1.2 2.6 2.5 2.6 1.2 0 1.9-.8 1.9-.8l.4.7s-.9.9-2.4.9c-1.9 0-3.4-1.4-3.4-3.4.1-2.1 1.6-3.4 3.3-3.4zm1.8 2.8c-.1-1.3-.9-2-1.8-2-1.1 0-2 .7-2.2 2zm4-4.1c0-.2-.1-.3-.3-.3h-.5v-.8h.9c.6 0 .8.2.8.8v7.2c0 .2.1.3.3.3h.5v.8h-.9c-.6 0-.8-.2-.8-.8zm4.4 0c0-.2-.1-.3-.3-.3h-.5v-.8h.9c.6 0 .8.2.8.8v7.2c0 .2.1.3.3.3h.5v.8h-.9c-.6 0-.8-.2-.8-.8zm7.3 1.3c1.9 0 3.4 1.4 3.4 3.4s-1.5 3.4-3.4 3.4-3.4-1.5-3.4-3.4 1.5-3.4 3.4-3.4zm0 6c1.4 0 2.5-1.1 2.5-2.6s-1.1-2.6-2.5-2.6-2.5 1.1-2.5 2.6 1.1 2.6 2.5 2.6zm11-1.1s.9 1.1 2.3 1.1c1 0 1.8-.6 1.8-1.6 0-2.2-4.5-1.8-4.5-4.6 0-1.3 1.1-2.3 2.8-2.3.9 0 2.4.4 2.4 1.6v.6h-.9v-.4c0-.5-.7-.9-1.6-.9-1.2 0-1.9.7-1.9 1.5 0 2.1 4.5 1.6 4.5 4.6 0 1.4-1 2.5-2.7 2.5-1.9 0-2.9-1.3-2.9-1.3zm8.2-4h-.9v-.7h.9v-1.8h.9v1.8h1.6v.7h-1.6v3.3c0 1.5 1 1.7 1.5 1.7h.3v.8h-.4c-.7 0-2.3-.2-2.3-2.4zm8-.9c1.8 0 2.7 1.4 2.7 3v.4h-5c0 1.6 1.2 2.6 2.5 2.6 1.2 0 1.9-.8 1.9-.8l.4.7s-.9.9-2.4.9c-1.9 0-3.4-1.4-3.4-3.4.1-2.1 1.5-3.4 3.3-3.4zm1.8 2.8c-.1-1.3-.9-2-1.8-2-1.1 0-2 .7-2.2 2zm3.9-4.1c0-.2-.1-.3-.3-.3h-.5v-.8h.9c.6 0 .8.2.8.8v7.2c0 .2.1.3.3.3h.5v.8h-.9c-.6 0-.8-.2-.8-.8zm4.1 2.6c-.1-.2-.2-.3-.5-.3h-.1v-.8h.3c.6 0 .8.1 1 .7l1.6 4c.1.3.2.8.2.8l.2-.8 1.6-4c.2-.6.4-.7 1-.7h.3v.8c-.2 0-.4.1-.5.3l-2.1 5.4h-1zm8.4-.1c0-.2-.1-.3-.3-.3h-.5v-.8h.9c.6 0 .8.2.8.8v4.7c0 .2.1.3.3.3h.5v.8h-.9c-.6 0-.8-.2-.8-.8zm0-3.6h.9v1.1h-.9zm7.3 2.4c1.9 0 3.4 1.4 3.4 3.4s-1.5 3.4-3.4 3.4-3.4-1.5-3.4-3.4 1.5-3.4 3.4-3.4zm0 6c1.4 0 2.5-1.1 2.5-2.6s-1.1-2.6-2.5-2.6-2.5 1.1-2.5 2.6 1.1 2.6 2.5 2.6zm-81.6 8.9c1.8 0 2.7 1.4 2.7 3v.4h-5c0 1.6 1.2 2.6 2.5 2.6 1.2 0 1.9-.8 1.9-.8l.4.7s-.9.9-2.4.9c-1.9 0-3.4-1.4-3.4-3.4.1-2.1 1.6-3.4 3.3-3.4zm1.9 2.7c-.1-1.3-.9-2-1.8-2-1.1 0-2 .7-2.2 2zm8.7-4.1c0-.2-.1-.3-.3-.3h-.5v-.8h.9c.6 0 .8.2.8.8v7.2c0 .2.1.3.3.3h.5v.8h-.9c-.6 0-.8-.2-.8-.8zm4.5-1.1h.9l-.7 2.2h-.7zm4.1 1.2c0-.2-.1-.3-.3-.3h-.6v-.8h1c.6 0 .8.2.8.8v5.1c0 1.5 1 2.4 2.4 2.4 1.5 0 2.4-.9 2.4-2.5v-5.1c0-.6.2-.8.8-.8h1v.8h-.6c-.2 0-.3.1-.3.3v4.9c0 2-1.3 3.3-3.3 3.3s-3.4-1.3-3.4-3.3v-4.8zm10.4 2.5c0-.2-.1-.3-.3-.3h-.5v-.7h.9c.5 0 .8.2.8.7v.8c.2-.6 1.1-1.6 2.6-1.6 1.6 0 2.2.9 2.2 2.5v3.1c0 .2.1.3.3.3h.5v.8h-.9c-.6 0-.8-.2-.8-.8v-3.1c0-1-.2-1.9-1.4-1.9-1.1 0-2.1.8-2.4 1.8-.1.3-.1.6-.1.9v3.1h-.9zm9.2 0c0-.2-.1-.3-.3-.3h-.5v-.7h.9c.6 0 .8.2.8.8v4.7c0 .2.1.3.3.3h.5v.8h-.9c-.6 0-.8-.2-.8-.8zm0-3.6h.9v1.1h-.9zm4 3.6c-.1-.2-.2-.3-.5-.3h-.1v-.7h.3c.6 0 .8.1 1 .7l1.6 4c.1.3.2.8.2.8l.2-.8 1.6-4c.2-.6.4-.7 1-.7h.3v.8h.1c-.2 0-.4.1-.5.3l-2.1 5.4h-1zm10.8-1.2c1.8 0 2.7 1.4 2.7 3v.4h-5c0 1.6 1.2 2.6 2.5 2.6 1.2 0 1.9-.8 1.9-.8l.4.7s-.9.9-2.4.9c-1.9 0-3.4-1.4-3.4-3.4.1-2.1 1.6-3.4 3.3-3.4zm1.8 2.7c-.1-1.3-.9-2-1.8-2-1.1 0-2 .7-2.2 2zm4-1.5c0-.2-.1-.3-.3-.3h-.5v-.7h.9c.5 0 .8.2.8.7v.9c.3-1 1-1.7 2.1-1.7h.3v.9h-.3c-.9 0-1.6.7-1.9 1.7-.1.4-.2.9-.2 1.3v2.7h-.9zm5.7 3.9s.7 1 2 1c.7 0 1.4-.3 1.4-1 0-1.4-3.6-1.2-3.6-3.2 0-1.2 1-1.8 2.3-1.8.7 0 2 .3 2 1.2v.6h-.8v-.3c0-.5-.7-.7-1.1-.7-.9 0-1.4.3-1.4.9 0 1.5 3.6 1.1 3.6 3.3 0 1.1-1 1.8-2.3 1.8-1.7 0-2.5-1.1-2.5-1.1zm7.3-3.9c0-.2-.1-.3-.3-.3h-.6v-.7h.9c.6 0 .8.2.8.8v4.7c0 .2.1.3.3.3h.5v.8h-.9c-.6 0-.8-.2-.8-.8v-4.8zm-.1-3.6h.9v1.1h-.9zm4.6 3.3h-.9v-.7h.9v-1.8h.9v1.8h1.6v.7h-1.6v3.3c0 1.5 1 1.7 1.5 1.7h.3v.8h-.4c-.7 0-2.3-.2-2.3-2.4zm8.8 1.8h.4v-.1c0-1.4-.5-1.8-1.7-1.8-.3 0-1.3.1-1.3.6v.4h-.8v-.6c0-.9 1.5-1.1 2.1-1.1 2.1 0 2.5 1.1 2.5 2.5v3.1c0 .2.1.3.3.3h.5v.8h-.9c-.6 0-.8-.2-.8-.8v-.5s-.5 1.4-2.2 1.4c-1.1 0-2.2-.6-2.2-1.9.1-2.3 3-2.3 4.1-2.3zm-1.6 3.4c1.2 0 2-1.3 2-2.4v-.3h-.4c-1 0-3.1 0-3.1 1.5 0 .5.5 1.2 1.5 1.2zm-1-8.5h1l.9 1.5h-.8zm-74.7 17.3c1.6 0 2.1 1.2 2.1 1.2v-2.6c0-.2-.1-.3-.3-.3h-.5v-.8h.9c.6 0 .8.2.8.8v7.2c0 .2.1.3.3.3h.5v.8h-.9c-.5 0-.8-.2-.8-.7v-.4s-.5 1.3-2.2 1.3-2.8-1.4-2.8-3.4c0-2.1 1.2-3.4 2.9-3.4zm2.1 3.4c0-1.3-.7-2.6-2.1-2.6-1.1 0-2.1 1-2.1 2.6s.8 2.6 2.1 2.6c1.1 0 2.1-.8 2.1-2.6zm7-3.4c1.8 0 2.7 1.4 2.7 3v.4h-5c0 1.6 1.2 2.6 2.5 2.6 1.2 0 1.9-.8 1.9-.8l.4.7s-.9.9-2.4.9c-1.9 0-3.4-1.4-3.4-3.4.1-2.1 1.6-3.4 3.3-3.4zm1.8 2.7c-.1-1.3-.9-2-1.8-2-1.1 0-2 .7-2.2 2zm6.2-2.7c1.7 0 2.2 1.1 2.2 1.1v-.2c0-.5.2-.7.7-.7h.9v.8h-.5c-.2 0-.3.1-.3.3v5.3c0 2.1-1.5 2.9-3.1 2.9-.7 0-1.5-.2-2.1-.5l.3-.7s.8.5 1.8.5c1.3 0 2.3-.6 2.3-2v-1.1c-.4.7-1 1.1-2 1.1-1.7 0-2.9-1.4-2.9-3.3s1-3.5 2.7-3.5zm2.2 3.3c0-1.9-.9-2.5-2.1-2.5-1.3 0-2 .9-2 2.5 0 1.5.8 2.6 2.1 2.6 1.1-.1 2-.7 2-2.6zm4.3-4.7c0-.2-.1-.3-.3-.3h-.5v-.8h.9c.6 0 .8.2.8.8v7.2c0 .2.1.3.3.3h.5v.8h-.9c-.6 0-.8-.2-.8-.8zm4.6 2.6c0-.2-.1-.3-.3-.3h-.5v-.8h.9c.6 0 .8.2.8.8v4.7c0 .2.1.3.3.3h.5v.8h-.9c-.6 0-.8-.2-.8-.8zm-.1-3.6h.9v1.1h-.9zm9.2 7.2s.9 1.1 2.3 1.1c1 0 1.8-.6 1.8-1.6 0-2.2-4.5-1.8-4.5-4.6 0-1.3 1.1-2.3 2.8-2.3.9 0 2.4.4 2.4 1.6v.6h-.9v-.4c0-.5-.7-.9-1.6-.9-1.2 0-1.9.7-1.9 1.5 0 2.1 4.5 1.6 4.5 4.6 0 1.4-1 2.5-2.7 2.5-1.9 0-2.9-1.3-2.9-1.3zm8.2-3.9h-.9v-.7h.9v-1.8h.9v1.8h1.6v.7h-1.6v3.3c0 1.5 1 1.7 1.5 1.7h.3v.8h-.4c-.7 0-2.3-.2-2.3-2.4zm5.5.3c0-.2-.1-.3-.3-.3h-.6v-.8h.9c.6 0 .8.2.8.8v3.1c0 1 .2 1.9 1.4 1.9 1.5 0 2.4-1.3 2.4-2.7v-3.1h.9v5.4c0 .2.1.3.3.3h.5v.8h-.9c-.5 0-.8-.2-.8-.7v-.8c-.3.6-1.1 1.6-2.5 1.6-1.5 0-2.2-.8-2.2-2.5v-3zm11.4-1.2c1.6 0 2.1 1.2 2.1 1.2v-2.6c0-.2-.1-.3-.3-.3h-.5v-.8h.9c.6 0 .8.2.8.8v7.2c0 .2.1.3.3.3h.5v.8h-.9c-.5 0-.8-.2-.8-.7v-.4s-.5 1.3-2.2 1.3-2.8-1.4-2.8-3.4c0-2.1 1.2-3.4 2.9-3.4zm2.1 3.4c0-1.3-.7-2.6-2.1-2.6-1.1 0-2.1 1-2.1 2.6s.8 2.6 2.1 2.6c1.1 0 2.1-.8 2.1-2.6zm4.5-2.2c0-.2-.1-.3-.3-.3h-.5v-.8h.9c.6 0 .8.2.8.8v4.7c0 .2.1.3.3.3h.5v.8h-.9c-.6 0-.8-.2-.8-.8zm0-3.6h.9v1.1h-.9zm-64 17.3c1.6 0 2.1 1.2 2.1 1.2v-2.6c0-.2-.1-.3-.3-.3h-.5v-.8h.9c.6 0 .8.2.8.8v7.2c0 .2.1.3.3.3h.5v.8h-.9c-.5 0-.8-.2-.8-.7v-.4s-.5 1.3-2.2 1.3-2.8-1.4-2.8-3.4c0-2.1 1.2-3.4 2.9-3.4zm2.2 3.4c0-1.3-.7-2.6-2.1-2.6-1.1 0-2.1 1-2.1 2.6s.8 2.6 2.1 2.6c1 0 2.1-.8 2.1-2.6zm4.4-2.2c0-.2-.1-.3-.3-.3h-.5v-.8h.9c.6 0 .8.2.8.8v4.7c0 .2.1.3.3.3h.5v.8h-.9c-.6 0-.8-.2-.8-.8zm0-3.7h.9v1.1h-.9zm8.4 8.3h.5c.2 0 .3-.1.3-.3l.6-8h.9l2.4 5.3c.2.5.5 1.1.5 1.1s.2-.6.4-1.1l2.4-5.3h.9l.6 8c0 .2.1.3.3.3h.5v.8h-.9c-.6 0-.7-.2-.8-.8l-.4-5.5v-1.3s-.2.8-.5 1.3l-2.2 4.6h-.8l-2.1-4.6c-.2-.5-.5-1.3-.5-1.3v1.3l-.4 5.5c0 .6-.2.8-.8.8h-.9zm13.1-4.6c0-.2-.1-.3-.3-.3h-.5v-.8h.9c.6 0 .8.2.8.8v4.7c0 .2.1.3.3.3h.5v.8h-.9c-.6 0-.8-.2-.8-.8zm0-3.7h.9v1.1h-.9zm4.5 1.1c0-.2-.1-.3-.3-.3h-.5v-.8h.9c.6 0 .8.2.8.8v7.2c0 .2.1.3.3.3h.5v.8h-.9c-.6 0-.8-.2-.8-.8zm7.8 4h.4v-.1c0-1.4-.5-1.8-1.7-1.8-.3 0-1.3.1-1.3.6v.4h-.8v-.6c0-.9 1.5-1.1 2.1-1.1 2.1 0 2.5 1.1 2.5 2.5v3.1c0 .2.1.3.3.3h.5v.8h-.9c-.6 0-.8-.2-.8-.8v-.5s-.5 1.4-2.2 1.4c-1.1 0-2.2-.6-2.2-1.9.1-2.2 3-2.3 4.1-2.3zm-1.6 3.4c1.2 0 2-1.3 2-2.4v-.3h-.4c-1 0-3.1 0-3.1 1.5 0 .6.5 1.2 1.5 1.2zm6.3-4.8c0-.2-.1-.3-.3-.3h-.5v-.8h.9c.5 0 .8.2.8.7v.8c.2-.6 1.1-1.6 2.6-1.6 1.6 0 2.2.9 2.2 2.5v3.1c0 .2.1.3.3.3h.5v.8h-.9c-.6 0-.8-.2-.8-.8v-3.1c0-1-.2-1.9-1.4-1.9-1.1 0-2.1.8-2.4 1.8-.1.3-.1.6-.1.9v3.1h-.9zm12-1.2c1.9 0 3.4 1.4 3.4 3.4s-1.5 3.4-3.4 3.4-3.4-1.5-3.4-3.4c0-2 1.5-3.4 3.4-3.4zm0 6c1.4 0 2.5-1.1 2.5-2.6s-1.1-2.6-2.5-2.6-2.5 1.1-2.5 2.6c0 1.4 1.1 2.6 2.5 2.6z" fill="#00295a"/></svg>