<?xml version="1.0" encoding="utf-8"?>
<!-- Generator: Adobe Illustrator 23.0.0, SVG Export Plug-In . SVG Version: 6.00 Build 0)  -->
<svg version="1.1" id="Livello_1" xmlns="http://www.w3.org/2000/svg" xmlns:xlink="http://www.w3.org/1999/xlink" x="0px" y="0px"
	 viewBox="0 0 403.7 287.7" style="enable-background:new 0 0 403.7 287.7;" xml:space="preserve">
<style type="text/css">
	.st0{fill-rule:evenodd;clip-rule:evenodd;fill:#C0B07F;}
	.st1{fill:#295942;}
	.st2{fill:#00295A;}
</style>
<g>
	<g>
		
			<ellipse transform="matrix(0.9997 -2.628839e-02 2.628839e-02 0.9997 -3.7906 2.8067)" class="st0" cx="104.9" cy="145.6" rx="93.6" ry="93.6"/>
	</g>
</g>
<g>
	<path class="st1" d="M250.7,136.1l12.9-9.5c0,0,0,0,0,0c0,0,4.8-3.5,7.7-5.6c0,0,0,0,0,0c2-1.5,6.3-0.8,7.7-0.4
		c0.4,0.1,0.7,0,1-0.2l1.5-1.1l8.4,11.6l-1.4,1c-0.4,0.3-0.6,0.7-0.5,1.2l0.8,8l-2.2,8.8c-0.4,1.5-1.1,2.3-2.2,2.2
		c-0.5,0-1.1-0.3-1.4-0.7c-0.4-0.4-0.5-0.9-0.5-1.4l1.1-6.5c0,0,0,0,0,0l0.4-3c0.1-0.7-0.4-1.3-1.1-1.4c-0.4-0.1-0.8,0.1-1.1,0.4
		c-0.1,0-0.2,0.1-0.3,0.2c0,0,0,0,0,0l-19.5,14.4c-0.7,0.6-1.8,0.4-2.4-0.4c-0.5-0.8-0.4-1.8,0.4-2.4l10.1-7.4
		c0.6-0.4,0.7-1.2,0.3-1.8c-0.4-0.6-1.2-0.7-1.8-0.3l-10.1,7.4l-1.7,1.3c-0.8,0.6-1.8,0.4-2.4-0.4c-0.6-0.8-0.4-1.8,0.4-2.4
		l11.9-8.8c0.6-0.4,0.7-1.2,0.3-1.8c-0.4-0.6-1.2-0.7-1.8-0.3l-11.9,8.8c-0.8,0.6-1.8,0.4-2.4-0.4c-0.6-0.8-0.4-1.8,0.4-2.4l2.7-2
		l9.3-6.9c0.6-0.4,0.7-1.2,0.3-1.8c-0.4-0.6-1.2-0.7-1.8-0.3l-9.3,6.8c-0.8,0.6-1.8,0.4-2.4-0.4
		C249.8,137.7,249.9,136.6,250.7,136.1 M286.7,113.9l9.8,13.5l-3.8,2.8l-9.8-13.5L286.7,113.9z M248.3,139.9
		c0.4,0.5,0.8,0.9,1.3,1.2c-1.6,1.4-1.8,3.9-0.5,5.6c0.7,0.9,1.7,1.5,2.7,1.7c-0.2,1.1,0.1,2.2,0.8,3.1c1,1.4,2.8,2,4.5,1.6
		c0.1,0.7,0.3,1.3,0.8,1.9c1.4,1.9,4,2.3,5.9,0.9l17.6-13l0,0l-1.1,6.5c0,0.1,0,0.1,0,0.2c-0.1,1.2,0.4,2.4,1.2,3.3
		c0.8,0.9,2,1.4,3.2,1.5c1,0,1.9-0.2,2.7-0.8c0.9-0.7,1.7-1.8,2.1-3.3c0,0,0,0,0,0l2.2-9c0-0.1,0-0.3,0-0.4l-0.8-7.5l0.8-0.6
		c0.1,0.1,0.2,0.2,0.3,0.3c0.1,0.1,0.3,0.1,0.5,0.2c0.3,0.1,0.7,0,0.9-0.2l4.8-3.5l0.2,0.3c0.1,0.1,0.2,0.2,0.4,0.3
		c0.4,0.3,1,0.3,1.4-0.1l14.6-10.7c0.6-0.4,0.7-1.2,0.3-1.8c-0.4-0.6-1.2-0.7-1.8-0.3l-13.5,9.9l-0.2-0.3c0,0,0,0,0,0L288,111.4
		l-0.2-0.3l13.3-9.8c0.6-0.4,0.7-1.2,0.3-1.8c-0.4-0.6-1.2-0.7-1.8-0.3l-14.3,10.6c-0.6,0.4-0.7,1.2-0.3,1.8l0.2,0.3l-4.8,3.5
		c-0.5,0.4-0.7,1.2-0.3,1.7l-1,0.8c-1.7-0.4-6.5-1.1-9.3,1c0,0,0,0,0,0c-2,1.5-20.6,15.2-20.6,15.2
		C247.3,135.4,246.9,138,248.3,139.9"/>
	<path class="st1" d="M264,171.3l-0.5-4.7l16.6-1.8l0.5,4.7L264,171.3z M284.8,170.3c-0.1-0.7-0.7-1.2-1.4-1.1l-0.4,0l-0.6-5.9
		c-0.1-0.7-0.7-1.2-1.3-1.1l-0.1-1.3c0.3-0.3,0.7-0.8,1.1-1.3h0c0.4-0.4,0.4-1.1,0-1.6c-0.4-0.6-1.2-0.7-1.8-0.3
		c-0.1,0.1-0.2,0.2-0.3,0.3c0,0,0,0,0,0c-0.5,0.7-1,1.2-1.3,1.6c-0.3,0.3-0.4,0.6-0.3,1l0.2,1.8l-14.2,1.6l-0.2-1.7
		c0-0.5-0.3-0.8-0.7-1l-7.3-3.3l-6.6-6.5c-0.4-0.5-1.1-0.5-1.7-0.2c-0.6,0.4-0.7,1.2-0.3,1.8c0,0.1,0.1,0.1,0.1,0.2c0,0,0,0,0,0
		c0,0,0,0,0,0c0,0,0,0,0,0c0.1,0.1,0.2,0.2,0.2,0.2l6.7,6.5c0.1,0.1,0.2,0.2,0.4,0.2l6.8,3.1l0.1,1c-0.1,0-0.3,0.1-0.4,0.1
		c-0.1,0.1-0.3,0.2-0.4,0.3c-0.2,0.3-0.3,0.6-0.3,0.9l0.6,5.9l-0.4,0c-0.2,0-0.3,0.1-0.5,0.1c-0.4,0.2-0.7,0.7-0.7,1.3l1.9,18
		c0.1,0.7,0.7,1.2,1.4,1.1c0.7-0.1,1.2-0.7,1.1-1.4l-1.8-16.8l0.4,0h0l19.1-2.1c0,0,0,0,0,0l0.4,0l1.8,16.5c0.1,0.7,0.7,1.2,1.4,1.1
		c0.7-0.1,1.2-0.7,1.1-1.4L284.8,170.3z"/>
	<path class="st1" d="M242.8,121.7l4.3,1.9l-6.7,15.3l-4.3-1.9L242.8,121.7z M217,133.1l16.3,7.2c0.6,0.3,1.4,0,1.7-0.7l0.1-0.3
		l5.4,2.4c0.6,0.3,1.3,0,1.6-0.6l1.2,0.5c0.1,0.4,0.3,1,0.6,1.6h0c0.2,0.5,0.7,0.9,1.3,0.8c0.7-0.1,1.2-0.7,1.1-1.4
		c0-0.1-0.1-0.3-0.1-0.4c0,0,0,0,0,0c-0.3-0.8-0.6-1.5-0.7-1.9c-0.1-0.4-0.4-0.7-0.7-0.8l-1.7-0.7l5.8-13.1l1.6,0.7
		c0.4,0.2,0.9,0.1,1.3-0.1l6.5-4.7l8.9-2.6c0.6-0.1,1-0.7,1-1.4c-0.1-0.7-0.7-1.2-1.4-1.1c-0.1,0-0.1,0-0.2,0h0c0,0,0,0,0,0
		c0,0,0,0,0,0c-0.1,0-0.2,0.1-0.2,0.1l-8.9,2.6c-0.1,0-0.3,0.1-0.4,0.2l-6.1,4.4l-0.9-0.4c0.1-0.1,0.1-0.3,0.1-0.4
		c0-0.2,0-0.3-0.1-0.5c-0.1-0.3-0.4-0.6-0.7-0.7l-5.4-2.4l0.1-0.3c0.1-0.2,0.1-0.3,0.1-0.5c0-0.5-0.3-1-0.8-1.2l-16.5-7.4
		c-0.6-0.3-1.4,0-1.7,0.7c-0.3,0.6,0,1.4,0.6,1.7l15.3,6.8l-0.1,0.3v0l-7.7,17.7c0,0,0,0,0,0l-0.1,0.3l-15.1-6.7
		c-0.6-0.3-1.4,0-1.7,0.7C216,132.1,216.3,132.9,217,133.1"/>
</g>
<g>
	<path class="st1" d="M184.2,40.9l0.4,0.6l-0.8,0.5l-0.4-0.6L184.2,40.9z"/>
	<path class="st1" d="M307.6,27.9c-0.2,0.5-0.9,0.8-1.4,0.6l0,0c-0.6-0.2-0.8-0.9-0.6-1.4l0,0c0.2-0.6,0.9-0.8,1.4-0.6l0,0
		c0,0,0,0,0,0l0,0C307.6,26.8,307.8,27.4,307.6,27.9z M313.1,29.2c0.6,0.3,0.8,0.9,0.5,1.5l0,0c-0.2,0.5-0.9,0.8-1.5,0.5l0,0
		c-0.5-0.2-0.8-0.9-0.5-1.4l0,0C312,29.2,312.6,29,313.1,29.2L313.1,29.2C313.1,29.2,313.1,29.2,313.1,29.2z M301.4,25.5
		c-0.2,0.6-0.8,0.9-1.4,0.7l0,0c-0.6-0.2-0.9-0.8-0.7-1.4l0,0c0.2-0.6,0.8-0.9,1.4-0.7l0,0c0,0,0,0,0.1,0l0,0
		C301.3,24.4,301.6,25,301.4,25.5z M319.2,32.3c0.5,0.3,0.7,1,0.4,1.5l0,0c-0.3,0.5-0.9,0.7-1.5,0.5l0,0c-0.5-0.3-0.7-1-0.5-1.5l0,0
		c0.3-0.5,0.9-0.7,1.4-0.5l0,0C319.1,32.2,319.1,32.2,319.2,32.3z M295.1,23.4c-0.2,0.6-0.8,0.9-1.3,0.7l0,0
		c-0.6-0.2-0.9-0.8-0.7-1.3l0,0c0.2-0.6,0.8-0.9,1.3-0.7l0,0l0,0l0,0c0,0,0.1,0,0.1,0.1l0,0C295,22.4,295.2,22.9,295.1,23.4z
		 M325,35.6L325,35.6L325,35.6c0.5,0.3,0.7,1,0.4,1.5l0,0c-0.3,0.5-1,0.7-1.5,0.4l0,0c-0.5-0.3-0.7-1-0.4-1.5l0,0
		c0.3-0.5,0.9-0.6,1.3-0.5l0,0C324.9,35.5,324.9,35.6,325,35.6z M288.7,21.7c-0.1,0.6-0.7,0.9-1.3,0.8l0,0c-0.6-0.1-1-0.7-0.8-1.3
		l0,0c0.1-0.6,0.7-1,1.3-0.8l0,0c0.1,0,0.1,0,0.2,0l0,0C288.5,20.6,288.8,21.2,288.7,21.7z M330.6,39.2
		C330.6,39.2,330.6,39.2,330.6,39.2L330.6,39.2c0.5,0.3,0.6,1,0.3,1.5l0,0c-0.3,0.5-1,0.6-1.5,0.3l0,0c-0.5-0.3-0.6-1-0.3-1.5l0,0
		c0.3-0.4,0.8-0.6,1.3-0.4l0,0C330.5,39.1,330.5,39.2,330.6,39.2z M282.2,20.3c-0.1,0.6-0.7,1-1.3,0.9l0,0c-0.6-0.1-1-0.7-0.9-1.3
		l0,0c0.1-0.6,0.7-1,1.3-0.9l0,0c0.1,0,0.2,0,0.2,0.1l0,0C282,19.3,282.3,19.8,282.2,20.3z M336,43.1L336,43.1L336,43.1
		c0.5,0.4,0.6,1,0.2,1.5l0,0c-0.3,0.5-1.1,0.6-1.5,0.2l0,0c-0.5-0.4-0.6-1-0.2-1.5l0,0c0.3-0.4,0.9-0.5,1.3-0.3l0,0
		C335.9,43,336,43.1,336,43.1z M275.6,19.2c-0.1,0.6-0.6,1-1.2,0.9l0,0c-0.6-0.1-1-0.6-0.9-1.2l0,0c0.1-0.6,0.6-1,1.2-0.9l0,0
		c0.1,0,0.2,0,0.3,0.1l0,0C275.4,18.2,275.7,18.7,275.6,19.2z M341.3,47.3c0.5,0.4,0.5,1.1,0.1,1.5l0,0c-0.4,0.5-1.1,0.5-1.6,0.1
		l0,0c-0.4-0.4-0.5-1.1-0.1-1.5l0,0c0.3-0.4,0.8-0.5,1.2-0.3l0,0C341.1,47.2,341.2,47.3,341.3,47.3z M269,18.5
		c-0.1,0.6-0.6,1.1-1.2,1l0,0c-0.6,0-1.1-0.6-1-1.2l0,0c0.1-0.6,0.6-1.1,1.2-1l0,0c0.1,0,0.2,0,0.3,0.1l0,0
		C268.7,17.5,269,18,269,18.5z M262.4,18.1c0,0.6-0.5,1.1-1.1,1.1l0,0c-0.6,0-1.1-0.5-1-1.1l0,0c0-0.6,0.5-1.1,1.1-1.1l0,0
		c0.1,0,0.3,0.1,0.4,0.1l0,0C262.1,17.2,262.4,17.6,262.4,18.1z M255.7,18c0,0.6-0.4,1.1-1,1.1l0,0c-0.6,0-1.1-0.5-1.1-1.1l0,0
		c0-0.6,0.5-1.1,1-1.1l0,0c0.2,0,0.3,0,0.5,0.1l0,0C255.4,17.2,255.7,17.6,255.7,18z M249.1,18.3c0,0.6-0.4,1.1-1,1.2l0,0
		c-0.6,0-1.1-0.4-1.2-1l0,0c0-0.6,0.4-1.1,1-1.2l0,0l0,0l0,0c0.2,0,0.3,0,0.5,0.1l0,0C248.7,17.5,249,17.9,249.1,18.3z M242.4,18.9
		c0.1,0.6-0.3,1.2-0.9,1.2l0,0c-0.6,0.1-1.1-0.3-1.2-0.9l0,0c-0.1-0.6,0.4-1.1,0.9-1.2l0,0l0,0l0,0c0.2,0,0.4,0,0.6,0.1l0,0
		C242.1,18.2,242.4,18.5,242.4,18.9z M235.9,19.9c0.1,0.6-0.3,1.1-0.9,1.3l0,0c-0.6,0.1-1.2-0.3-1.3-0.9l0,0
		c-0.1-0.6,0.3-1.2,0.9-1.3l0,0c0.2,0,0.4,0,0.6,0.1l0,0C235.5,19.2,235.8,19.5,235.9,19.9z M229.3,21.2c0.2,0.6-0.2,1.2-0.8,1.3
		l0,0c-0.6,0.1-1.2-0.2-1.3-0.8l0,0c-0.1-0.6,0.2-1.2,0.8-1.3l0,0l0,0l0,0c0.2-0.1,0.5,0,0.7,0l0,0C229,20.6,229.2,20.9,229.3,21.2z
		 M222.9,22.9c0.2,0.6-0.1,1.2-0.7,1.3l0,0c-0.6,0.2-1.2-0.2-1.3-0.7l0,0c-0.2-0.6,0.1-1.2,0.7-1.4l0,0c0.2-0.1,0.5-0.1,0.7,0l0,0
		C222.5,22.3,222.8,22.5,222.9,22.9z M216.5,24.8c0.2,0.6-0.1,1.2-0.7,1.4l0,0c-0.6,0.2-1.2-0.1-1.4-0.7l0,0
		c-0.2-0.6,0.1-1.2,0.7-1.4l0,0c0.2-0.1,0.5-0.1,0.8,0l0,0C216.2,24.3,216.4,24.5,216.5,24.8z M210.3,27.1c0.2,0.6,0,1.2-0.6,1.4
		l0,0c-0.6,0.2-1.2,0-1.4-0.6l0,0c-0.2-0.6,0-1.2,0.6-1.4l0,0c0.3-0.1,0.6-0.1,0.8,0l0,0C210,26.7,210.2,26.9,210.3,27.1z
		 M204.2,29.8c0.2,0.5,0,1.2-0.5,1.5l0,0c-0.5,0.3-1.2,0-1.5-0.5l0,0c-0.3-0.6,0-1.2,0.5-1.5l0,0l0,0l0,0c0.3-0.1,0.6-0.1,0.9,0l0,0
		C203.9,29.3,204.1,29.5,204.2,29.8z M198.2,32.7c0.3,0.5,0.1,1.2-0.4,1.5l0,0c-0.5,0.3-1.2,0.1-1.5-0.4l0,0
		c-0.3-0.5-0.1-1.2,0.4-1.5l0,0c0.3-0.2,0.6-0.2,0.9-0.1l0,0C197.9,32.3,198.1,32.5,198.2,32.7z M192.4,36c0.3,0.5,0.1,1.2-0.4,1.5
		l0,0c-0.5,0.3-1.2,0.1-1.5-0.4l0,0c-0.3-0.5-0.2-1.2,0.4-1.5l0,0l0,0l0,0c0.3-0.2,0.7-0.2,1-0.1l0,0
		C192.1,35.6,192.3,35.7,192.4,36z"/>
	<path class="st1" d="M351,56.4C351,56.4,351,56.4,351,56.4L351,56.4c0.4,0.4,0.4,1.1,0,1.5l0,0c-0.4,0.4-1.1,0.4-1.6,0l0,0
		c-0.4-0.4-0.4-1.1,0-1.5l0,0c0.3-0.3,0.8-0.4,1.2-0.2l0,0C350.8,56.2,350.9,56.3,351,56.4z M355.4,61.2c0.4,0.5,0.3,1.1-0.1,1.5
		l0,0c-0.5,0.4-1.2,0.4-1.6-0.1l0,0c-0.4-0.5-0.4-1.2,0.1-1.5l0,0c0.3-0.3,0.8-0.3,1.1-0.2l0,0C355.2,61,355.3,61.1,355.4,61.2z
		 M359.6,66.2c0.4,0.5,0.3,1.2-0.2,1.5l0,0c-0.5,0.4-1.2,0.3-1.5-0.2l0,0c-0.4-0.5-0.3-1.2,0.2-1.5l0,0c0.3-0.2,0.7-0.3,1.1-0.2l0,0
		C359.3,65.9,359.5,66.1,359.6,66.2z M363.5,71.5c0.3,0.5,0.2,1.2-0.3,1.5l0,0c-0.5,0.3-1.2,0.2-1.5-0.3l0,0
		c-0.3-0.5-0.2-1.2,0.3-1.5l0,0c0.3-0.2,0.7-0.3,1.1-0.1l0,0C363.2,71.1,363.4,71.3,363.5,71.5z M367.1,76.9
		c0.3,0.5,0.2,1.2-0.3,1.5l0,0c-0.5,0.3-1.2,0.2-1.5-0.3l0,0c-0.3-0.5-0.2-1.2,0.3-1.5l0,0c0.3-0.2,0.7-0.2,1-0.1l0,0
		C366.8,76.5,367,76.7,367.1,76.9z M370.5,82.5L370.5,82.5L370.5,82.5c0.3,0.5,0.1,1.2-0.4,1.5l0,0c-0.5,0.3-1.2,0.1-1.5-0.4l0,0
		c-0.3-0.5-0.1-1.2,0.4-1.5l0,0c0.3-0.2,0.7-0.2,1-0.1l0,0C370.2,82.1,370.4,82.2,370.5,82.5z M373.6,88.2c0.3,0.5,0,1.2-0.5,1.4
		l0,0c-0.5,0.3-1.2,0-1.5-0.5l0,0c-0.3-0.5-0.1-1.2,0.5-1.4l0,0c0.3-0.2,0.6-0.1,0.9,0l0,0C373.2,87.8,373.4,88,373.6,88.2z
		 M376.3,94.2L376.3,94.2L376.3,94.2c0.3,0.5,0,1.2-0.6,1.4l0,0c-0.5,0.2-1.2,0-1.4-0.6l0,0c-0.3-0.6,0-1.2,0.6-1.4l0,0
		c0.3-0.1,0.6-0.1,0.8,0l0,0C376,93.7,376.2,93.9,376.3,94.2z M378.8,100.2L378.8,100.2L378.8,100.2c0.2,0.6-0.1,1.2-0.6,1.4l0,0
		c-0.5,0.2-1.2-0.1-1.4-0.6l0,0c-0.2-0.6,0.1-1.2,0.6-1.4l0,0c0.2-0.1,0.5-0.1,0.8,0l0,0C378.4,99.7,378.7,99.9,378.8,100.2z
		 M380.9,106.3c0.2,0.6-0.1,1.2-0.7,1.4l0,0c-0.6,0.2-1.2-0.1-1.4-0.7l0,0c-0.2-0.6,0.1-1.2,0.7-1.4l0,0c0.2-0.1,0.5-0.1,0.7,0l0,0
		C380.6,105.8,380.8,106,380.9,106.3z M382.8,112.6c0.1,0.6-0.2,1.2-0.8,1.3l0,0c-0.6,0.2-1.2-0.2-1.3-0.8l0,0
		c-0.2-0.6,0.2-1.2,0.8-1.4l0,0c0.2,0,0.5,0,0.7,0.1l0,0C382.5,112,382.7,112.3,382.8,112.6z M384.3,119c0.1,0.6-0.3,1.2-0.9,1.3
		l0,0c-0.6,0.1-1.1-0.2-1.3-0.8l0,0c-0.1-0.6,0.3-1.2,0.8-1.3l0,0c0.2,0,0.4,0,0.6,0.1l0,0C384,118.3,384.2,118.6,384.3,119z
		 M385.5,125.4c0.1,0.6-0.3,1.2-0.9,1.2l0,0c-0.6,0.1-1.1-0.3-1.2-0.9l0,0c-0.1-0.6,0.3-1.1,0.9-1.2l0,0c0.2,0,0.4,0,0.6,0.1l0,0
		C385.2,124.7,385.4,125,385.5,125.4z M386.3,131.8L386.3,131.8L386.3,131.8c0.1,0.6-0.4,1.1-1,1.2l0,0c-0.6,0.1-1.2-0.4-1.2-1l0,0
		c0-0.6,0.4-1.1,1-1.2l0,0c0.2,0,0.4,0,0.5,0.1l0,0C386,131.1,386.3,131.4,386.3,131.8z M386.9,138.3c0,0.6-0.4,1.1-1,1.2l0,0
		c-0.6,0-1.1-0.4-1.1-1l0,0c0-0.6,0.4-1.1,1-1.2l0,0c0.2,0,0.3,0,0.5,0.1l0,0C386.6,137.5,386.9,137.9,386.9,138.3z M387.1,144.9
		c0,0.6-0.5,1.1-1.1,1.1l0,0c-0.6,0-1.1-0.5-1.1-1.1l0,0c0-0.6,0.5-1.1,1.1-1.1l0,0c0.1,0,0.3,0,0.4,0.1l0,0
		C386.8,144,387.1,144.4,387.1,144.9z M387,151.4c0,0.6-0.5,1.1-1.1,1.1l0,0c-0.6,0-1-0.5-1-1.1l0,0c0-0.6,0.5-1,1.1-1l0,0
		c0.1,0,0.3,0,0.4,0.1l0,0C386.7,150.5,387,150.9,387,151.4z M386.5,157.9c-0.1,0.6-0.6,1-1.2,1l0,0c-0.6,0-1-0.6-1-1.2l0,0
		c0.1-0.6,0.6-1,1.2-1l0,0c0.1,0,0.2,0,0.3,0.1l0,0C386.3,156.9,386.6,157.4,386.5,157.9z M385.8,164.3c-0.1,0.6-0.6,1-1.3,0.9l0,0
		c-0.6-0.1-1-0.6-0.9-1.3l0,0c0.1-0.6,0.6-1,1.2-0.9l0,0c0.1,0,0.2,0,0.3,0.1l0,0C385.5,163.4,385.8,163.8,385.8,164.3z
		 M384.7,170.8c-0.1,0.6-0.7,1-1.3,0.9l0,0c-0.6-0.1-1-0.7-0.9-1.3l0,0c0.1-0.6,0.7-1,1.3-0.9l0,0c0.1,0,0.1,0,0.2,0.1l0,0
		C384.5,169.7,384.8,170.2,384.7,170.8z M383.2,177.1L383.2,177.1L383.2,177.1c-0.2,0.6-0.7,0.9-1.3,0.8l0,0
		c-0.6-0.2-0.9-0.7-0.8-1.3l0,0c0.2-0.6,0.7-0.9,1.3-0.8l0,0c0,0,0.1,0,0.2,0.1l0,0C383.1,176.1,383.4,176.6,383.2,177.1z
		 M381.5,183.4L381.5,183.4L381.5,183.4c-0.2,0.6-0.8,0.9-1.4,0.7l0,0c-0.6-0.2-0.9-0.8-0.7-1.3l0,0c0.2-0.6,0.8-0.9,1.4-0.7l0,0
		c0,0,0.1,0,0.1,0l0,0C381.4,182.3,381.7,182.9,381.5,183.4z M379.4,189.6c-0.2,0.6-0.8,0.8-1.4,0.6l0,0c-0.6-0.2-0.9-0.8-0.7-1.4
		l0,0c0.2-0.6,0.8-0.8,1.4-0.6l0,0c0,0,0,0,0.1,0l0,0C379.4,188.4,379.6,189,379.4,189.6z M377,195.6c-0.2,0.6-0.9,0.8-1.4,0.6l0,0
		c-0.6-0.2-0.8-0.9-0.6-1.4l0,0c0.2-0.6,0.9-0.8,1.4-0.6l0,0C377,194.4,377.3,195.1,377,195.6z M373.8,200.1
		c0.5,0.3,0.8,0.9,0.5,1.5l0,0c0,0,0,0,0,0l0,0c-0.3,0.6-0.9,0.8-1.5,0.5l0,0c-0.5-0.3-0.7-0.9-0.5-1.4l0,0
		C372.6,200.1,373.3,199.9,373.8,200.1L373.8,200.1C373.8,200.1,373.8,200.1,373.8,200.1z M370.9,205.9c0.5,0.3,0.7,1,0.5,1.5l0,0
		l0,0l0,0c-0.3,0.5-1,0.7-1.5,0.4l0,0c-0.5-0.3-0.7-0.9-0.5-1.5l0,0C369.7,205.8,370.3,205.6,370.9,205.9L370.9,205.9
		C370.9,205.9,370.9,205.9,370.9,205.9z M367.7,211.5c0.5,0.3,0.7,1,0.4,1.5l0,0c-0.3,0.5-1,0.7-1.5,0.4l0,0c-0.5-0.3-0.7-1-0.4-1.5
		l0,0c0.3-0.5,0.9-0.6,1.4-0.4l0,0C367.6,211.4,367.7,211.5,367.7,211.5z M364.2,216.9c0.5,0.3,0.6,1,0.3,1.5l0,0
		c-0.3,0.5-1,0.6-1.5,0.3l0,0c-0.5-0.3-0.6-1-0.3-1.5l0,0c0.3-0.4,0.9-0.6,1.3-0.4l0,0C364.1,216.9,364.2,216.9,364.2,216.9z
		 M360.5,222.2c0.5,0.3,0.6,1,0.2,1.5l0,0c-0.4,0.5-1,0.6-1.5,0.2l0,0c-0.5-0.3-0.6-1-0.2-1.5l0,0c0.3-0.4,0.8-0.5,1.3-0.4l0,0
		C360.3,222.1,360.4,222.1,360.5,222.2z M356.5,227.3c0.4,0.4,0.5,1.1,0.1,1.5l0,0c-0.4,0.5-1.1,0.5-1.5,0.1l0,0
		c-0.5-0.4-0.5-1.1-0.1-1.6l0,0c0.3-0.4,0.8-0.5,1.2-0.3l0,0C356.3,227.1,356.4,227.2,356.5,227.3z"/>
	<path class="st1" d="M347.6,236.9c0.4,0.4,0.4,1.1,0,1.5l0,0l0,0l0,0c-0.4,0.4-1.1,0.4-1.5,0l0,0c-0.4-0.4-0.4-1.1,0-1.5l0,0
		c0.3-0.3,0.8-0.4,1.2-0.2l0,0C347.3,236.7,347.5,236.8,347.6,236.9z M342.7,241.4c0.4,0.5,0.3,1.1-0.1,1.5l0,0
		c-0.5,0.4-1.1,0.3-1.5-0.1l0,0c-0.4-0.5-0.3-1.1,0.1-1.5l0,0c0.3-0.3,0.8-0.3,1.1-0.2l0,0C342.4,241.2,342.6,241.2,342.7,241.4z
		 M337.6,245.6c0.4,0.5,0.3,1.2-0.2,1.5l0,0c-0.5,0.4-1.2,0.3-1.5-0.2l0,0c-0.4-0.5-0.3-1.2,0.2-1.5l0,0c0.3-0.2,0.7-0.3,1.1-0.1
		l0,0C337.3,245.4,337.5,245.5,337.6,245.6z M332.3,249.6c0.3,0.5,0.2,1.2-0.3,1.5l0,0c-0.5,0.3-1.2,0.2-1.5-0.3l0,0
		c-0.3-0.5-0.2-1.2,0.3-1.5l0,0c0.3-0.2,0.7-0.2,1-0.1l0,0C332,249.3,332.2,249.4,332.3,249.6z M326.8,253.3
		c0.3,0.5,0.2,1.2-0.3,1.5l0,0l0,0l0,0c-0.5,0.3-1.2,0.2-1.5-0.3l0,0c-0.3-0.5-0.2-1.2,0.3-1.5l0,0c0.3-0.2,0.7-0.2,1-0.1l0,0
		C326.5,253,326.7,253.1,326.8,253.3z M321.1,256.7c0.3,0.5,0.1,1.2-0.4,1.5l0,0c-0.5,0.3-1.2,0.1-1.5-0.4l0,0
		c-0.3-0.5-0.1-1.2,0.4-1.5l0,0c0.3-0.2,0.7-0.2,1-0.1l0,0C320.8,256.3,321,256.5,321.1,256.7z M315.3,259.8c0.3,0.5,0,1.2-0.5,1.5
		l0,0c-0.5,0.3-1.2,0-1.4-0.5l0,0c-0.3-0.5-0.1-1.2,0.5-1.4l0,0c0.3-0.1,0.6-0.2,0.9,0l0,0C314.9,259.4,315.1,259.6,315.3,259.8z
		 M309.2,262.6c0.2,0.6,0,1.2-0.6,1.4l0,0c-0.6,0.2-1.2,0-1.4-0.6l0,0c-0.2-0.6,0-1.2,0.6-1.4l0,0c0.3-0.1,0.6-0.1,0.8,0l0,0
		C308.9,262.1,309.1,262.3,309.2,262.6z M303.1,265.1c0.2,0.5-0.1,1.2-0.6,1.4l0,0c-0.6,0.2-1.2-0.1-1.4-0.6l0,0
		c-0.2-0.6,0.1-1.2,0.6-1.4l0,0c0.3-0.1,0.5-0.1,0.8,0l0,0C302.8,264.6,303,264.8,303.1,265.1z M296.8,267.2
		c0.2,0.6-0.1,1.2-0.7,1.4l0,0c-0.6,0.2-1.2-0.1-1.4-0.7l0,0c-0.2-0.6,0.1-1.2,0.7-1.3l0,0c0.2-0.1,0.5-0.1,0.7,0l0,0
		C296.5,266.7,296.7,266.9,296.8,267.2z M290.4,269c0.1,0.6-0.2,1.2-0.8,1.3l0,0c-0.6,0.1-1.2-0.2-1.3-0.8l0,0
		c-0.1-0.6,0.2-1.2,0.8-1.3l0,0c0.2-0.1,0.5,0,0.7,0l0,0C290.1,268.4,290.3,268.7,290.4,269z M284,270.5c0.1,0.6-0.3,1.2-0.9,1.3
		l0,0c-0.6,0.1-1.2-0.3-1.3-0.9l0,0c-0.1-0.6,0.3-1.2,0.9-1.3l0,0c0.2-0.1,0.4,0,0.6,0.1l0,0C283.6,269.9,283.9,270.2,284,270.5z
		 M277.4,271.7c0.1,0.6-0.3,1.1-0.9,1.2l0,0l0,0l0,0c-0.6,0.1-1.2-0.3-1.2-0.9l0,0c-0.1-0.6,0.3-1.2,0.9-1.2l0,0
		c0.2,0,0.4,0,0.6,0.1l0,0C277.1,271,277.4,271.3,277.4,271.7z M270.8,272.5c0.1,0.6-0.4,1.1-1,1.2l0,0l0,0l0,0
		c-0.6,0.1-1.1-0.4-1.2-1l0,0c0-0.6,0.4-1.1,1-1.2l0,0c0.2,0,0.4,0,0.5,0.1l0,0C270.6,271.8,270.8,272.1,270.8,272.5z M264.2,273
		c0,0.6-0.5,1.1-1,1.1l0,0c-0.6,0-1.1-0.5-1.2-1.1l0,0c0-0.6,0.5-1.1,1-1.1l0,0c0.2,0,0.3,0,0.5,0.1l0,0
		C263.9,272.2,264.2,272.6,264.2,273z M257.6,273.1c0,0.6-0.5,1.1-1.1,1.1l0,0c-0.6,0-1.1-0.5-1.1-1.1l0,0c0-0.6,0.5-1.1,1.1-1.1
		l0,0c0.1,0,0.3,0,0.4,0.1l0,0C257.3,272.3,257.6,272.7,257.6,273.1z M251,272.9c0,0.6-0.6,1.1-1.1,1l0,0l0,0l0,0
		c-0.6,0-1.1-0.6-1-1.2l0,0c0-0.6,0.5-1,1.2-1l0,0c0.1,0,0.2,0,0.4,0.1l0,0C250.7,272,251,272.5,251,272.9z M244.4,272.4
		c-0.1,0.6-0.6,1-1.2,1l0,0c-0.6-0.1-1-0.6-0.9-1.2l0,0c0.1-0.6,0.6-1,1.2-1l0,0c0.1,0,0.2,0,0.3,0.1l0,0
		C244.1,271.4,244.4,271.9,244.4,272.4z M237.8,271.5c-0.1,0.6-0.6,1-1.2,0.9l0,0c-0.6-0.1-1-0.7-0.9-1.3l0,0c0.1-0.6,0.6-1,1.2-0.9
		l0,0c0.1,0,0.2,0,0.2,0.1l0,0C237.6,270.5,237.9,271,237.8,271.5z M231.3,270.3c-0.2,0.6-0.7,1-1.3,0.8l0,0c-0.6-0.1-1-0.7-0.8-1.3
		l0,0c0.1-0.6,0.7-0.9,1.3-0.8l0,0c0.1,0,0.1,0,0.2,0l0,0C231.1,269.2,231.4,269.7,231.3,270.3z M193.9,254.5c0.5,0.3,0.7,1,0.4,1.5
		l0,0c-0.3,0.5-1,0.7-1.5,0.4l0,0l0,0l0,0c-0.5-0.3-0.7-1-0.4-1.5l0,0c0.3-0.5,0.9-0.6,1.4-0.4l0,0
		C193.8,254.5,193.8,254.5,193.9,254.5z M224.8,268.7c-0.2,0.6-0.8,0.9-1.4,0.7l0,0c-0.6-0.2-0.9-0.8-0.8-1.3l0,0
		c0.2-0.6,0.8-0.9,1.4-0.8l0,0c0,0,0.1,0,0.1,0.1l0,0C224.7,267.6,225,268.2,224.8,268.7z M199.6,257.7c0.5,0.3,0.7,0.9,0.5,1.5l0,0
		c-0.3,0.5-0.9,0.7-1.5,0.5l0,0c-0.5-0.3-0.7-0.9-0.5-1.5l0,0C198.4,257.7,199,257.5,199.6,257.7L199.6,257.7
		C199.6,257.7,199.6,257.7,199.6,257.7z M218.5,266.8c-0.2,0.6-0.8,0.9-1.4,0.7l0,0c-0.6-0.2-0.9-0.8-0.7-1.4l0,0
		c0.2-0.6,0.8-0.8,1.4-0.7l0,0c0,0,0,0,0.1,0l0,0C218.4,265.7,218.7,266.3,218.5,266.8z M205.5,260.6c0.6,0.2,0.8,0.9,0.6,1.4l0,0
		c-0.3,0.5-0.9,0.8-1.5,0.5l0,0c-0.5-0.3-0.8-0.9-0.5-1.4l0,0C204.4,260.6,205,260.4,205.5,260.6L205.5,260.6
		C205.5,260.6,205.5,260.6,205.5,260.6z M212.2,264.6c-0.2,0.6-0.9,0.8-1.4,0.6l0,0l0,0l0,0c-0.6-0.2-0.8-0.8-0.6-1.4l0,0
		c0.2-0.5,0.9-0.8,1.4-0.6l0,0l0,0l0,0C212.2,263.4,212.4,264.1,212.2,264.6z"/>
	<path class="st1" d="M188.1,251c0.1,0.1,0.3,0.1,0.4,0.2c0.1,0.1,0.2,0.2,0.2,0.4c0.1,0.1,0.1,0.3,0.1,0.4c0,0.1,0,0.3-0.1,0.4
		c-0.1,0.2-0.3,0.5-0.6,0.6c-0.5,0.2-1.2-0.1-1.4-0.6c-0.1-0.3-0.1-0.6,0-0.8c0.1-0.1,0.1-0.3,0.2-0.4c0.1-0.1,0.2-0.2,0.4-0.2
		C187.6,250.9,187.9,250.9,188.1,251z"/>
	<path class="st1" d="M351.8,231.9c0.3,0.1,0.5,0.3,0.6,0.6c0.1,0.3,0.1,0.5,0,0.8c-0.1,0.1-0.1,0.3-0.2,0.4
		c-0.1,0.1-0.2,0.2-0.4,0.2c-0.1,0.1-0.3,0.1-0.4,0.1c-0.3,0-0.6-0.1-0.8-0.3c-0.1-0.1-0.2-0.2-0.2-0.4c-0.1-0.1-0.1-0.3-0.1-0.4
		c0-0.1,0-0.3,0.1-0.4c0.1-0.3,0.3-0.5,0.6-0.6C351.3,231.8,351.6,231.8,351.8,231.9z"/>
	<path class="st1" d="M346,51.6c0.1,0.1,0.3,0.1,0.4,0.2c0.1,0.1,0.2,0.2,0.2,0.4c0.1,0.1,0.1,0.3,0.1,0.4c0,0.1,0,0.3-0.1,0.4
		c-0.1,0.1-0.1,0.3-0.2,0.4c-0.1,0.1-0.2,0.2-0.4,0.2c-0.5,0.2-1.2-0.1-1.4-0.6c-0.1-0.3-0.1-0.6,0-0.8c0.1-0.1,0.1-0.3,0.2-0.4
		c0.1-0.1,0.2-0.2,0.4-0.2c0.1-0.1,0.3-0.1,0.4-0.1C345.7,51.5,345.9,51.5,346,51.6z"/>
	<path class="st1" d="M186.3,39.1c0.1,0.1,0.3,0.1,0.4,0.2c0.1,0.1,0.2,0.2,0.2,0.4c0.1,0.3,0.1,0.6,0,0.8c-0.1,0.1-0.1,0.3-0.2,0.4
		c-0.1,0.1-0.2,0.2-0.4,0.2c-0.5,0.2-1.2-0.1-1.4-0.6c0-0.1-0.1-0.3-0.1-0.4c0-0.1,0-0.3,0.1-0.4c0.1-0.3,0.3-0.5,0.6-0.6
		c0.1-0.1,0.3-0.1,0.4-0.1C186.1,39,186.2,39.1,186.3,39.1z"/>
	<path class="st1" d="M186.3,38.9c1.6,1.5,1.6,3.9,0.2,5.5c-1.5,1.6-3.9,1.6-5.5,0.2c-1.6-1.5-1.6-3.9-0.2-5.5
		C182.3,37.5,184.7,37.4,186.3,38.9"/>
	<path class="st1" d="M185.2,250.3l-1.3,4.3l-3.7-7.4l8.3,0.1L185.2,250.3z"/>
</g>
<g>
	<path class="st1" d="M27.9,114h-1.4v-1.8h6.5c2.7,0,4.6,1.8,4.6,4.6c0,2.8-1.9,4.7-4.6,4.7h-3v5.4h-2.1V114z M32.7,119.7
		c1.7,0,2.8-1.1,2.8-2.9c0-1.8-1.1-2.8-2.8-2.8H30v5.7H32.7z"/>
	<path class="st1" d="M39.2,125.2h0.3c0.4,0,0.6-0.1,0.7-0.5l4.6-12.5H47l4.6,12.5c0.1,0.4,0.3,0.5,0.7,0.5h0.3v1.8h-1.2
		c-1,0-1.4-0.3-1.7-1.2l-1.1-3h-5.4l-1.1,3c-0.4,1-0.7,1.2-1.7,1.2h-1.1V125.2z M48.1,121l-1.6-4.5c-0.3-0.8-0.6-2.1-0.6-2.1h0
		c0,0-0.3,1.3-0.6,2.1l-1.6,4.5H48.1z"/>
	<path class="st1" d="M57.1,114h-1.4v-1.8h6.4c2.6,0,4.4,1.6,4.4,4.3c0,2.5-1.6,3.7-2.6,3.9v0c0,0,0.4,0.2,0.6,0.7l1.8,3.5
		c0.2,0.4,0.5,0.5,1,0.5h0.3v1.8h-1c-1.1,0-1.6-0.1-2-1.1l-2-4c-0.4-0.7-0.6-0.8-1.5-0.8h-1.9v5.9h-2.1V114z M61.9,119.3
		c1.6,0,2.5-1,2.5-2.7s-0.9-2.6-2.5-2.6h-2.7v5.3H61.9z"/>
	<path class="st1" d="M75,114h-3c-0.3,0-0.5,0.1-0.5,0.5v0.9h-1.9v-1.9c0-0.9,0.3-1.2,1.2-1.2h10.1c0.9,0,1.2,0.3,1.2,1.2v1.9h-1.9
		v-0.9c0-0.3-0.2-0.5-0.5-0.5h-3V127H75V114z"/>
	<path class="st1" d="M85.3,125.2h0.9c0.3,0,0.5-0.2,0.5-0.5v-12.5h1.9l6.5,9.3c0.5,0.8,1.2,2,1.2,2h0c0,0-0.1-1.2-0.1-2v-8
		c0-0.9,0.4-1.3,1.4-1.3h2.1v1.8h-0.9c-0.3,0-0.5,0.1-0.5,0.5V127h-1.9l-6.6-9.3c-0.5-0.8-1.2-2-1.2-2h0c0,0,0.1,1.2,0.1,2v8
		c0,0.9-0.4,1.3-1.3,1.3h-2.1V125.2z"/>
	<path class="st1" d="M104.7,114h-1.4v-1.8h8.6c0.9,0,1.3,0.4,1.3,1.3v1.9h-1.9v-0.9c0-0.3-0.2-0.5-0.5-0.5h-4.2v4.6h5.1v1.8h-5.1
		v4.3c0,0.3,0.2,0.5,0.5,0.5h4.3c0.3,0,0.5-0.2,0.5-0.5v-0.9h1.9v1.9c0,0.9-0.4,1.3-1.3,1.3H106c-0.9,0-1.3-0.4-1.3-1.3V114z"/>
	<path class="st1" d="M118.6,114h-1.4v-1.8h6.4c2.6,0,4.4,1.6,4.4,4.3c0,2.5-1.6,3.7-2.6,3.9v0c0,0,0.4,0.2,0.6,0.7l1.8,3.5
		c0.2,0.4,0.5,0.5,1,0.5h0.3v1.8h-1c-1.1,0-1.6-0.1-2-1.1l-2-4c-0.4-0.7-0.6-0.8-1.5-0.8h-1.9v5.9h-2.1V114z M123.4,119.3
		c1.6,0,2.5-1,2.5-2.7s-0.9-2.6-2.5-2.6h-2.7v5.3H123.4z"/>
	<path class="st1" d="M133.3,123.5c0,0,1.5,1.8,3.7,1.8c1.4,0,2.5-0.8,2.5-2.2c0-3.1-7.1-2.6-7.1-7.2c0-2.2,1.9-3.9,4.7-3.9
		c1.6,0,4.2,0.7,4.2,2.7v1.2h-1.9v-0.7c0-0.8-1.1-1.3-2.3-1.3c-1.6,0-2.6,0.9-2.6,2c0,3,7.1,2.3,7.1,7.1c0,2.2-1.7,4.2-4.7,4.2
		c-3.1,0-4.9-2.2-4.9-2.2L133.3,123.5z"/>
	<path class="st1" d="M146.7,114.5c0-0.3-0.2-0.5-0.5-0.5h-0.9v-1.8h2.1c0.9,0,1.3,0.4,1.3,1.3v5.1h7.5v-5.1c0-0.9,0.4-1.3,1.3-1.3
		h2.1v1.8h-0.9c-0.3,0-0.5,0.1-0.5,0.5V127h-2.1v-6.5h-7.5v6.5h-2.1V114.5z"/>
	<path class="st1" d="M163.4,125.2h1.4V114h-1.4v-1.8h4.9v1.8h-1.4v11.1h1.4v1.8h-4.9V125.2z"/>
	<path class="st1" d="M173.4,114H172v-1.8h6.5c2.7,0,4.6,1.8,4.6,4.6c0,2.8-1.9,4.7-4.6,4.7h-3v5.4h-2.1V114z M178.2,119.7
		c1.7,0,2.8-1.1,2.8-2.9c0-1.8-1.1-2.8-2.8-2.8h-2.7v5.7H178.2z"/>
	<path class="st2" d="M50.6,133.6h-0.8v-0.8h3.8c1.6,0,2.8,1.1,2.8,2.7c0,1.7-1.2,2.8-2.8,2.8h-2.1v3.6h-0.9V133.6z M53.5,137.5
		c1.2,0,2-0.7,2-2c0-1.2-0.8-1.9-2-1.9h-2v3.9H53.5z"/>
	<path class="st2" d="M62.2,137.8h0.4v-0.1c0-1.4-0.5-1.8-1.7-1.8c-0.3,0-1.3,0.1-1.3,0.6v0.4h-0.8v-0.6c0-0.9,1.5-1.1,2.1-1.1
		c2.1,0,2.5,1.1,2.5,2.5v3.1c0,0.2,0.1,0.3,0.3,0.3h0.5v0.8h-0.9c-0.6,0-0.8-0.2-0.8-0.8c0-0.3,0-0.5,0-0.5h0c0,0-0.5,1.4-2.2,1.4
		c-1.1,0-2.2-0.6-2.2-1.9C58.2,137.9,61.1,137.8,62.2,137.8z M60.6,141.2c1.2,0,2-1.3,2-2.4v-0.3h-0.4c-1,0-3.1,0-3.1,1.5
		C59.1,140.6,59.6,141.2,60.6,141.2z"/>
	<path class="st2" d="M66.9,136.4c0-0.2-0.1-0.3-0.3-0.3h-0.5v-0.8H67c0.5,0,0.8,0.2,0.8,0.7v0.4c0,0.3,0,0.5,0,0.5h0
		c0.3-1,1-1.7,2.1-1.7c0.2,0,0.3,0,0.3,0v0.9c0,0-0.2,0-0.3,0c-0.9,0-1.6,0.7-1.9,1.7c-0.1,0.4-0.2,0.9-0.2,1.3v2.7h-0.9V136.4z"/>
	<path class="st2" d="M73,136.1h-0.9v-0.7H73v-1.8h0.9v1.8h1.6v0.7h-1.6v3.3c0,1.5,1,1.7,1.5,1.7c0.2,0,0.3,0,0.3,0v0.8
		c0,0-0.2,0-0.4,0c-0.7,0-2.3-0.2-2.3-2.4V136.1z"/>
	<path class="st2" d="M78.5,136.4c0-0.2-0.1-0.3-0.3-0.3h-0.5v-0.8h0.9c0.5,0,0.8,0.2,0.8,0.7v0.3c0,0.3,0,0.5,0,0.5h0
		c0.2-0.6,1.1-1.6,2.6-1.6c1.6,0,2.2,0.9,2.2,2.5v3.1c0,0.2,0.1,0.3,0.3,0.3H85v0.8H84c-0.6,0-0.8-0.2-0.8-0.8v-3.1
		c0-1-0.2-1.9-1.4-1.9c-1.1,0-2.1,0.8-2.4,1.8c-0.1,0.3-0.1,0.6-0.1,0.9v3.1h-0.9V136.4z"/>
	<path class="st2" d="M90.2,135.2c1.8,0,2.7,1.4,2.7,3c0,0.2,0,0.4,0,0.4h-5c0,1.6,1.2,2.6,2.5,2.6c1.2,0,1.9-0.8,1.9-0.8l0.4,0.7
		c0,0-0.9,0.9-2.4,0.9c-1.9,0-3.4-1.4-3.4-3.4C87,136.5,88.5,135.2,90.2,135.2z M92,137.9c-0.1-1.3-0.9-2-1.8-2c-1.1,0-2,0.7-2.2,2
		H92z"/>
	<path class="st2" d="M96,136.4c0-0.2-0.1-0.3-0.3-0.3h-0.5v-0.8h0.9c0.5,0,0.8,0.2,0.8,0.7v0.4c0,0.3,0,0.5,0,0.5h0
		c0.3-1,1-1.7,2.1-1.7c0.2,0,0.3,0,0.3,0v0.9c0,0-0.2,0-0.3,0c-0.9,0-1.6,0.7-1.9,1.7c-0.1,0.4-0.2,0.9-0.2,1.3v2.7H96V136.4z"/>
	<path class="st2" d="M101.7,140.2c0,0,0.7,1,2,1c0.7,0,1.4-0.3,1.4-1c0-1.4-3.6-1.2-3.6-3.2c0-1.2,1-1.8,2.3-1.8c0.7,0,2,0.3,2,1.2
		v0.6h-0.8v-0.3c0-0.5-0.7-0.7-1.1-0.7c-0.9,0-1.4,0.3-1.4,0.9c0,1.5,3.6,1.1,3.6,3.3c0,1.1-1,1.8-2.3,1.8c-1.7,0-2.5-1.1-2.5-1.1
		L101.7,140.2z"/>
	<path class="st2" d="M108.9,133.8c0-0.2-0.1-0.3-0.3-0.3H108v-0.8h0.9c0.6,0,0.8,0.2,0.8,0.8v2.7c0,0.3,0,0.5,0,0.5h0
		c0.2-0.6,1.1-1.6,2.6-1.6c1.6,0,2.2,0.9,2.2,2.5v3.1c0,0.2,0.1,0.3,0.3,0.3h0.5v0.8h-0.9c-0.6,0-0.8-0.2-0.8-0.8v-3.1
		c0-1-0.2-1.9-1.4-1.9c-1.1,0-2.1,0.8-2.3,1.8c-0.1,0.3-0.1,0.6-0.1,0.9v3.1h-0.9V133.8z"/>
	<path class="st2" d="M118.1,136.4c0-0.2-0.1-0.3-0.3-0.3h-0.5v-0.8h0.9c0.6,0,0.8,0.2,0.8,0.8v4.7c0,0.2,0.1,0.3,0.3,0.3h0.5v0.8
		h-0.9c-0.6,0-0.8-0.2-0.8-0.8V136.4z M118,132.8h0.9v1.1H118V132.8z"/>
	<path class="st2" d="M122.5,136.4c0-0.2-0.1-0.3-0.3-0.3h-0.5v-0.8h0.9c0.6,0,0.8,0.2,0.8,0.7c0,0.3,0,0.4,0,0.4h0
		c0,0,0.5-1.3,2.2-1.3c1.7,0,2.8,1.4,2.8,3.4c0,2-1.2,3.4-2.9,3.4c-1.6,0-2.1-1.2-2.1-1.2h0c0,0,0,0.2,0,0.6v3.1h-0.9V136.4z
		 M125.4,141.2c1.1,0,2.1-1,2.1-2.6c0-1.6-0.8-2.6-2.1-2.6c-1.1,0-2.1,0.8-2.1,2.6C123.4,139.9,124.1,141.2,125.4,141.2z"/>
	<path class="st2" d="M139,135.2c0.7,0,2.3,0.3,2.3,1.4v0.6h-0.8v-0.4c0-0.5-0.9-0.8-1.5-0.8c-1.4,0-2.5,1-2.5,2.6
		c0,1.6,1.2,2.6,2.5,2.6c1.3,0,2.1-0.9,2.1-0.9l0.4,0.7c0,0-0.9,1.1-2.5,1.1c-1.9,0-3.4-1.4-3.4-3.4
		C135.6,136.6,137.1,135.2,139,135.2z"/>
	<path class="st2" d="M147.1,135.2c1.9,0,3.4,1.4,3.4,3.4c0,2-1.5,3.4-3.4,3.4c-1.9,0-3.4-1.5-3.4-3.4
		C143.7,136.6,145.2,135.2,147.1,135.2z M147.1,141.2c1.4,0,2.5-1.1,2.5-2.6c0-1.5-1.1-2.6-2.5-2.6c-1.4,0-2.5,1.1-2.5,2.6
		C144.6,140.1,145.7,141.2,147.1,141.2z"/>
	<path class="st2" d="M153.4,136.4c0-0.2-0.1-0.3-0.3-0.3h-0.5v-0.8h0.9c0.5,0,0.8,0.2,0.8,0.7v0.3c0,0.3,0,0.5,0,0.5h0
		c0.2-0.6,1.1-1.6,2.6-1.6c1.6,0,2.2,0.9,2.2,2.5v3.1c0,0.2,0.1,0.3,0.3,0.3h0.5v0.8H159c-0.6,0-0.8-0.2-0.8-0.8v-3.1
		c0-1-0.2-1.9-1.4-1.9c-1.1,0-2.1,0.8-2.4,1.8c-0.1,0.3-0.1,0.6-0.1,0.9v3.1h-0.9V136.4z"/>
	<path class="st2" d="M42.2,151.3c0-0.2-0.1-0.3-0.3-0.3h-0.5v-0.8h0.9c0.6,0,0.8,0.2,0.8,0.8v4.7c0,0.2,0.1,0.3,0.3,0.3h0.5v0.8H43
		c-0.6,0-0.8-0.2-0.8-0.8V151.3z M42.2,147.6H43v1.1h-0.9V147.6z"/>
	<path class="st2" d="M46.6,148.7c0-0.2-0.1-0.3-0.3-0.3h-0.5v-0.8h0.9c0.6,0,0.8,0.2,0.8,0.8v7.2c0,0.2,0.1,0.3,0.3,0.3h0.5v0.8
		h-0.9c-0.6,0-0.8-0.2-0.8-0.8V148.7z"/>
	<path class="st2" d="M56.2,148.4h-0.8v-0.8h3.8c1.6,0,2.8,1.1,2.8,2.7c0,1.7-1.2,2.8-2.8,2.8h-2.1v3.6h-0.9V148.4z M59,152.3
		c1.2,0,2-0.7,2-2c0-1.2-0.8-1.9-2-1.9h-2v3.9H59z"/>
	<path class="st2" d="M67.8,152.7h0.4v-0.1c0-1.4-0.5-1.8-1.7-1.8c-0.3,0-1.3,0.1-1.3,0.6v0.4h-0.8v-0.6c0-0.9,1.5-1.1,2.1-1.1
		c2.1,0,2.5,1.1,2.5,2.5v3.1c0,0.2,0.1,0.3,0.3,0.3h0.5v0.8h-0.9c-0.6,0-0.8-0.2-0.8-0.8c0-0.3,0-0.5,0-0.5h0c0,0-0.5,1.4-2.2,1.4
		c-1.1,0-2.2-0.6-2.2-1.9C63.8,152.8,66.6,152.7,67.8,152.7z M66.1,156.1c1.2,0,2-1.3,2-2.4v-0.3h-0.4c-1,0-3.1,0-3.1,1.5
		C64.7,155.5,65.2,156.1,66.1,156.1z"/>
	<path class="st2" d="M72.5,151.3c0-0.2-0.1-0.3-0.3-0.3h-0.5v-0.8h0.9c0.5,0,0.8,0.2,0.8,0.7v0.4c0,0.3,0,0.5,0,0.5h0
		c0.3-1,1-1.7,2.1-1.7c0.2,0,0.3,0,0.3,0v0.9c0,0-0.2,0-0.3,0c-0.9,0-1.6,0.7-1.9,1.7c-0.1,0.4-0.2,0.9-0.2,1.3v2.7h-0.9V151.3z"/>
	<path class="st2" d="M81,150.1c0.7,0,2.3,0.3,2.3,1.4v0.6h-0.8v-0.4c0-0.5-0.9-0.8-1.5-0.8c-1.4,0-2.5,1-2.5,2.6
		c0,1.6,1.2,2.6,2.5,2.6c1.3,0,2.1-0.9,2.1-0.9l0.4,0.7c0,0-0.9,1.1-2.5,1.1c-1.9,0-3.4-1.4-3.4-3.4C77.6,151.5,79.1,150.1,81,150.1
		z"/>
	<path class="st2" d="M89.1,150.1c1.9,0,3.4,1.4,3.4,3.4c0,2-1.5,3.4-3.4,3.4c-1.9,0-3.4-1.5-3.4-3.4
		C85.7,151.5,87.2,150.1,89.1,150.1z M89.1,156.1c1.4,0,2.5-1.1,2.5-2.6c0-1.5-1.1-2.6-2.5-2.6c-1.4,0-2.5,1.1-2.5,2.6
		C86.6,154.9,87.7,156.1,89.1,156.1z"/>
	<path class="st2" d="M99.7,155.9h0.6c0.2,0,0.3-0.1,0.3-0.3v-8h0.8l4.6,6.5c0.3,0.5,0.7,1.2,0.7,1.2h0c0,0-0.1-0.7-0.1-1.2v-5.7
		c0-0.6,0.2-0.8,0.8-0.8h1v0.8h-0.6c-0.2,0-0.3,0.1-0.3,0.3v8h-0.8l-4.6-6.5c-0.3-0.4-0.7-1.2-0.7-1.2h0c0,0,0.1,0.7,0.1,1.2v5.7
		c0,0.6-0.2,0.8-0.8,0.8h-1V155.9z"/>
	<path class="st2" d="M114.6,152.7h0.4v-0.1c0-1.4-0.5-1.8-1.7-1.8c-0.3,0-1.3,0.1-1.3,0.6v0.4h-0.8v-0.6c0-0.9,1.5-1.1,2.1-1.1
		c2.1,0,2.5,1.1,2.5,2.5v3.1c0,0.2,0.1,0.3,0.3,0.3h0.5v0.8h-0.9c-0.6,0-0.8-0.2-0.8-0.8c0-0.3,0-0.5,0-0.5h0c0,0-0.5,1.4-2.2,1.4
		c-1.1,0-2.2-0.6-2.2-1.9C110.6,152.8,113.5,152.7,114.6,152.7z M113,156.1c1.2,0,2-1.3,2-2.4v-0.3h-0.4c-1,0-3.1,0-3.1,1.5
		C111.5,155.5,112,156.1,113,156.1z"/>
	<path class="st2" d="M118.7,156.1l3.6-4.6c0.2-0.3,0.5-0.6,0.5-0.6v0c0,0-0.2,0-0.6,0h-2.4c-0.2,0-0.3,0.1-0.3,0.3v0.5h-0.8V151
		c0-0.6,0.2-0.8,0.8-0.8h4.5v0.6l-3.6,4.5c-0.3,0.3-0.5,0.6-0.5,0.6v0c0,0,0.2,0,0.7,0h2.7c0.2,0,0.3-0.1,0.3-0.3v-0.5h0.8v0.8
		c0,0.6-0.2,0.8-0.8,0.8h-4.8V156.1z"/>
	<path class="st2" d="M127.1,151.3c0-0.2-0.1-0.3-0.3-0.3h-0.5v-0.8h0.9c0.6,0,0.8,0.2,0.8,0.8v4.7c0,0.2,0.1,0.3,0.3,0.3h0.5v0.8
		h-0.9c-0.6,0-0.8-0.2-0.8-0.8V151.3z M127.1,147.6h0.9v1.1h-0.9V147.6z"/>
	<path class="st2" d="M134.4,150.1c1.9,0,3.4,1.4,3.4,3.4c0,2-1.5,3.4-3.4,3.4c-1.9,0-3.4-1.5-3.4-3.4
		C131,151.5,132.5,150.1,134.4,150.1z M134.4,156.1c1.4,0,2.5-1.1,2.5-2.6c0-1.5-1.1-2.6-2.5-2.6c-1.4,0-2.5,1.1-2.5,2.6
		C131.9,154.9,133,156.1,134.4,156.1z"/>
	<path class="st2" d="M140.7,151.3c0-0.2-0.1-0.3-0.3-0.3h-0.5v-0.8h0.9c0.5,0,0.8,0.2,0.8,0.7v0.3c0,0.3,0,0.5,0,0.5h0
		c0.2-0.6,1.1-1.6,2.6-1.6c1.6,0,2.2,0.9,2.2,2.5v3.1c0,0.2,0.1,0.3,0.3,0.3h0.5v0.8h-0.9c-0.6,0-0.8-0.2-0.8-0.8v-3.1
		c0-1-0.2-1.9-1.4-1.9c-1.1,0-2.1,0.8-2.4,1.8c-0.1,0.3-0.1,0.6-0.1,0.9v3.1h-0.9V151.3z"/>
	<path class="st2" d="M153.2,152.7h0.4v-0.1c0-1.4-0.5-1.8-1.7-1.8c-0.3,0-1.3,0.1-1.3,0.6v0.4h-0.8v-0.6c0-0.9,1.5-1.1,2.1-1.1
		c2.1,0,2.5,1.1,2.5,2.5v3.1c0,0.2,0.1,0.3,0.3,0.3h0.5v0.8h-0.9c-0.6,0-0.8-0.2-0.8-0.8c0-0.3,0-0.5,0-0.5h0c0,0-0.5,1.4-2.2,1.4
		c-1.1,0-2.2-0.6-2.2-1.9C149.3,152.8,152.1,152.7,153.2,152.7z M151.6,156.1c1.2,0,2-1.3,2-2.4v-0.3h-0.4c-1,0-3.1,0-3.1,1.5
		C150.2,155.5,150.6,156.1,151.6,156.1z"/>
	<path class="st2" d="M158,148.7c0-0.2-0.1-0.3-0.3-0.3h-0.5v-0.8h0.9c0.6,0,0.8,0.2,0.8,0.8v7.2c0,0.2,0.1,0.3,0.3,0.3h0.5v0.8
		h-0.9c-0.6,0-0.8-0.2-0.8-0.8V148.7z"/>
	<path class="st2" d="M165,150.1c1.8,0,2.7,1.4,2.7,3c0,0.2,0,0.4,0,0.4h-5c0,1.6,1.2,2.6,2.5,2.6c1.2,0,1.9-0.8,1.9-0.8l0.4,0.7
		c0,0-0.9,0.9-2.4,0.9c-1.9,0-3.4-1.4-3.4-3.4C161.8,151.3,163.3,150.1,165,150.1z M166.8,152.8c-0.1-1.3-0.9-2-1.8-2
		c-1.1,0-2,0.7-2.2,2H166.8z"/>
	<path class="st2" d="M64.8,164.9c1.6,0,2.1,1.2,2.1,1.2h0c0,0,0-0.2,0-0.5v-2.1c0-0.2-0.1-0.3-0.3-0.3h-0.5v-0.8H67
		c0.6,0,0.8,0.2,0.8,0.8v7.2c0,0.2,0.1,0.3,0.3,0.3h0.5v0.8h-0.9c-0.5,0-0.8-0.2-0.8-0.7c0-0.2,0-0.4,0-0.4h0c0,0-0.5,1.3-2.2,1.3
		c-1.7,0-2.8-1.4-2.8-3.4C61.9,166.3,63.1,164.9,64.8,164.9z M66.9,168.3c0-1.3-0.7-2.6-2.1-2.6c-1.1,0-2.1,1-2.1,2.6
		c0,1.6,0.8,2.6,2.1,2.6C65.9,170.9,66.9,170.2,66.9,168.3z"/>
	<path class="st2" d="M73.9,164.9c1.8,0,2.7,1.4,2.7,3c0,0.2,0,0.4,0,0.4h-5c0,1.6,1.2,2.6,2.5,2.6c1.2,0,1.9-0.8,1.9-0.8l0.4,0.7
		c0,0-0.9,0.9-2.4,0.9c-1.9,0-3.4-1.4-3.4-3.4C70.7,166.2,72.2,164.9,73.9,164.9z M75.7,167.7c-0.1-1.3-0.9-2-1.8-2
		c-1.1,0-2,0.7-2.2,2H75.7z"/>
	<path class="st2" d="M79.7,163.6c0-0.2-0.1-0.3-0.3-0.3h-0.5v-0.8h0.9c0.6,0,0.8,0.2,0.8,0.8v7.2c0,0.2,0.1,0.3,0.3,0.3h0.5v0.8
		h-0.9c-0.6,0-0.8-0.2-0.8-0.8V163.6z"/>
	<path class="st2" d="M84.1,163.6c0-0.2-0.1-0.3-0.3-0.3h-0.5v-0.8h0.9c0.6,0,0.8,0.2,0.8,0.8v7.2c0,0.2,0.1,0.3,0.3,0.3h0.5v0.8
		h-0.9c-0.6,0-0.8-0.2-0.8-0.8V163.6z"/>
	<path class="st2" d="M91.4,164.9c1.9,0,3.4,1.4,3.4,3.4c0,2-1.5,3.4-3.4,3.4c-1.9,0-3.4-1.5-3.4-3.4
		C88,166.4,89.5,164.9,91.4,164.9z M91.4,170.9c1.4,0,2.5-1.1,2.5-2.6c0-1.5-1.1-2.6-2.5-2.6c-1.4,0-2.5,1.1-2.5,2.6
		C88.9,169.8,90,170.9,91.4,170.9z"/>
	<path class="st2" d="M102.4,169.8c0,0,0.9,1.1,2.3,1.1c1,0,1.8-0.6,1.8-1.6c0-2.2-4.5-1.8-4.5-4.6c0-1.3,1.1-2.3,2.8-2.3
		c0.9,0,2.4,0.4,2.4,1.6v0.6h-0.9v-0.4c0-0.5-0.7-0.9-1.6-0.9c-1.2,0-1.9,0.7-1.9,1.5c0,2.1,4.5,1.6,4.5,4.6c0,1.4-1,2.5-2.7,2.5
		c-1.9,0-2.9-1.3-2.9-1.3L102.4,169.8z"/>
	<path class="st2" d="M110.6,165.8h-0.9v-0.7h0.9v-1.8h0.9v1.8h1.6v0.7h-1.6v3.3c0,1.5,1,1.7,1.5,1.7c0.2,0,0.3,0,0.3,0v0.8
		c0,0-0.2,0-0.4,0c-0.7,0-2.3-0.2-2.3-2.4V165.8z"/>
	<path class="st2" d="M118.6,164.9c1.8,0,2.7,1.4,2.7,3c0,0.2,0,0.4,0,0.4h-5c0,1.6,1.2,2.6,2.5,2.6c1.2,0,1.9-0.8,1.9-0.8l0.4,0.7
		c0,0-0.9,0.9-2.4,0.9c-1.9,0-3.4-1.4-3.4-3.4C115.4,166.2,116.8,164.9,118.6,164.9z M120.4,167.7c-0.1-1.3-0.9-2-1.8-2
		c-1.1,0-2,0.7-2.2,2H120.4z"/>
	<path class="st2" d="M124.3,163.6c0-0.2-0.1-0.3-0.3-0.3h-0.5v-0.8h0.9c0.6,0,0.8,0.2,0.8,0.8v7.2c0,0.2,0.1,0.3,0.3,0.3h0.5v0.8
		h-0.9c-0.6,0-0.8-0.2-0.8-0.8V163.6z"/>
	<path class="st2" d="M128.4,166.2c-0.1-0.2-0.2-0.3-0.5-0.3h-0.1v-0.8h0.3c0.6,0,0.8,0.1,1,0.7l1.6,4c0.1,0.3,0.2,0.8,0.2,0.8h0
		c0,0,0.1-0.4,0.2-0.8l1.6-4c0.2-0.6,0.4-0.7,1-0.7h0.3v0.8H134c-0.2,0-0.4,0.1-0.5,0.3l-2.1,5.4h-1L128.4,166.2z"/>
	<path class="st2" d="M136.8,166.1c0-0.2-0.1-0.3-0.3-0.3H136v-0.8h0.9c0.6,0,0.8,0.2,0.8,0.8v4.7c0,0.2,0.1,0.3,0.3,0.3h0.5v0.8
		h-0.9c-0.6,0-0.8-0.2-0.8-0.8V166.1z M136.8,162.5h0.9v1.1h-0.9V162.5z"/>
	<path class="st2" d="M144.1,164.9c1.9,0,3.4,1.4,3.4,3.4c0,2-1.5,3.4-3.4,3.4c-1.9,0-3.4-1.5-3.4-3.4
		C140.7,166.4,142.2,164.9,144.1,164.9z M144.1,170.9c1.4,0,2.5-1.1,2.5-2.6c0-1.5-1.1-2.6-2.5-2.6c-1.4,0-2.5,1.1-2.5,2.6
		C141.6,169.8,142.7,170.9,144.1,170.9z"/>
	<path class="st2" d="M62.5,179.8c1.8,0,2.7,1.4,2.7,3c0,0.2,0,0.4,0,0.4h-5c0,1.6,1.2,2.6,2.5,2.6c1.2,0,1.9-0.8,1.9-0.8l0.4,0.7
		c0,0-0.9,0.9-2.4,0.9c-1.9,0-3.4-1.4-3.4-3.4C59.3,181.1,60.8,179.8,62.5,179.8z M64.4,182.5c-0.1-1.3-0.9-2-1.8-2
		c-1.1,0-2,0.7-2.2,2H64.4z"/>
	<path class="st2" d="M73.1,178.4c0-0.2-0.1-0.3-0.3-0.3h-0.5v-0.8h0.9c0.6,0,0.8,0.2,0.8,0.8v7.2c0,0.2,0.1,0.3,0.3,0.3h0.5v0.8
		h-0.9c-0.6,0-0.8-0.2-0.8-0.8V178.4z"/>
	<path class="st2" d="M77.6,177.3h0.9l-0.7,2.2h-0.7L77.6,177.3z"/>
	<path class="st2" d="M81.7,178.5c0-0.2-0.1-0.3-0.3-0.3h-0.6v-0.8h1c0.6,0,0.8,0.2,0.8,0.8v5.1c0,1.5,1,2.4,2.4,2.4
		c1.5,0,2.4-0.9,2.4-2.5v-5.1c0-0.6,0.2-0.8,0.8-0.8h1v0.8h-0.6c-0.2,0-0.3,0.1-0.3,0.3v4.9c0,2-1.3,3.3-3.3,3.3
		c-2,0-3.4-1.3-3.4-3.3V178.5z"/>
	<path class="st2" d="M92.1,181c0-0.2-0.1-0.3-0.3-0.3h-0.5V180h0.9c0.5,0,0.8,0.2,0.8,0.7v0.3c0,0.3,0,0.5,0,0.5h0
		c0.2-0.6,1.1-1.6,2.6-1.6c1.6,0,2.2,0.9,2.2,2.5v3.1c0,0.2,0.1,0.3,0.3,0.3h0.5v0.8h-0.9c-0.6,0-0.8-0.2-0.8-0.8v-3.1
		c0-1-0.2-1.9-1.4-1.9c-1.1,0-2.1,0.8-2.4,1.8c-0.1,0.3-0.1,0.6-0.1,0.9v3.1h-0.9V181z"/>
	<path class="st2" d="M101.3,181c0-0.2-0.1-0.3-0.3-0.3h-0.5V180h0.9c0.6,0,0.8,0.2,0.8,0.8v4.7c0,0.2,0.1,0.3,0.3,0.3h0.5v0.8h-0.9
		c-0.6,0-0.8-0.2-0.8-0.8V181z M101.3,177.4h0.9v1.1h-0.9V177.4z"/>
	<path class="st2" d="M105.3,181c-0.1-0.2-0.2-0.3-0.5-0.3h-0.1V180h0.3c0.6,0,0.8,0.1,1,0.7l1.6,4c0.1,0.3,0.2,0.8,0.2,0.8h0
		c0,0,0.1-0.4,0.2-0.8l1.6-4c0.2-0.6,0.4-0.7,1-0.7h0.3v0.8H111c-0.2,0-0.4,0.1-0.5,0.3l-2.1,5.4h-1L105.3,181z"/>
	<path class="st2" d="M116.1,179.8c1.8,0,2.7,1.4,2.7,3c0,0.2,0,0.4,0,0.4h-5c0,1.6,1.2,2.6,2.5,2.6c1.2,0,1.9-0.8,1.9-0.8l0.4,0.7
		c0,0-0.9,0.9-2.4,0.9c-1.9,0-3.4-1.4-3.4-3.4C112.9,181.1,114.4,179.8,116.1,179.8z M117.9,182.5c-0.1-1.3-0.9-2-1.8-2
		c-1.1,0-2,0.7-2.2,2H117.9z"/>
	<path class="st2" d="M121.9,181c0-0.2-0.1-0.3-0.3-0.3h-0.5V180h0.9c0.5,0,0.8,0.2,0.8,0.7v0.4c0,0.3,0,0.5,0,0.5h0
		c0.3-1,1-1.7,2.1-1.7c0.2,0,0.3,0,0.3,0v0.9c0,0-0.2,0-0.3,0c-0.9,0-1.6,0.7-1.9,1.7c-0.1,0.4-0.2,0.9-0.2,1.3v2.7h-0.9V181z"/>
	<path class="st2" d="M127.6,184.9c0,0,0.7,1,2,1c0.7,0,1.4-0.3,1.4-1c0-1.4-3.6-1.2-3.6-3.2c0-1.2,1-1.8,2.3-1.8c0.7,0,2,0.3,2,1.2
		v0.6h-0.8v-0.3c0-0.5-0.7-0.7-1.1-0.7c-0.9,0-1.4,0.3-1.4,0.9c0,1.5,3.6,1.1,3.6,3.3c0,1.1-1,1.8-2.3,1.8c-1.7,0-2.5-1.1-2.5-1.1
		L127.6,184.9z"/>
	<path class="st2" d="M134.9,181c0-0.2-0.1-0.3-0.3-0.3H134V180h0.9c0.6,0,0.8,0.2,0.8,0.8v4.7c0,0.2,0.1,0.3,0.3,0.3h0.5v0.8h-0.9
		c-0.6,0-0.8-0.2-0.8-0.8V181z M134.8,177.4h0.9v1.1h-0.9V177.4z"/>
	<path class="st2" d="M139.4,180.7h-0.9V180h0.9v-1.8h0.9v1.8h1.6v0.7h-1.6v3.3c0,1.5,1,1.7,1.5,1.7c0.2,0,0.3,0,0.3,0v0.8
		c0,0-0.2,0-0.4,0c-0.7,0-2.3-0.2-2.3-2.4V180.7z"/>
	<path class="st2" d="M148.2,182.5h0.4v-0.1c0-1.4-0.5-1.8-1.7-1.8c-0.3,0-1.3,0.1-1.3,0.6v0.4h-0.8v-0.6c0-0.9,1.5-1.1,2.1-1.1
		c2.1,0,2.5,1.1,2.5,2.5v3.1c0,0.2,0.1,0.3,0.3,0.3h0.5v0.8h-0.9c-0.6,0-0.8-0.2-0.8-0.8c0-0.3,0-0.5,0-0.5h0c0,0-0.5,1.4-2.2,1.4
		c-1.1,0-2.2-0.6-2.2-1.9C144.2,182.5,147.1,182.5,148.2,182.5z M146.6,185.9c1.2,0,2-1.3,2-2.4v-0.3h-0.4c-1,0-3.1,0-3.1,1.5
		C145.1,185.2,145.6,185.9,146.6,185.9z M145.6,177.4h1l0.9,1.5h-0.8L145.6,177.4z"/>
	<path class="st2" d="M70.9,194.7c1.6,0,2.1,1.2,2.1,1.2h0c0,0,0-0.2,0-0.5v-2.1c0-0.2-0.1-0.3-0.3-0.3h-0.5v-0.8h0.9
		c0.6,0,0.8,0.2,0.8,0.8v7.2c0,0.2,0.1,0.3,0.3,0.3h0.5v0.8h-0.9c-0.5,0-0.8-0.2-0.8-0.7c0-0.2,0-0.4,0-0.4h0c0,0-0.5,1.3-2.2,1.3
		c-1.7,0-2.8-1.4-2.8-3.4C68,196,69.2,194.7,70.9,194.7z M73,198.1c0-1.3-0.7-2.6-2.1-2.6c-1.1,0-2.1,1-2.1,2.6
		c0,1.6,0.8,2.6,2.1,2.6C72,200.7,73,199.9,73,198.1z"/>
	<path class="st2" d="M80,194.7c1.8,0,2.7,1.4,2.7,3c0,0.2,0,0.4,0,0.4h-5c0,1.6,1.2,2.6,2.5,2.6c1.2,0,1.9-0.8,1.9-0.8l0.4,0.7
		c0,0-0.9,0.9-2.4,0.9c-1.9,0-3.4-1.4-3.4-3.4C76.8,196,78.3,194.7,80,194.7z M81.8,197.4c-0.1-1.3-0.9-2-1.8-2c-1.1,0-2,0.7-2.2,2
		H81.8z"/>
	<path class="st2" d="M88,194.7c1.7,0,2.2,1.1,2.2,1.1h0c0,0,0-0.1,0-0.2c0-0.5,0.2-0.7,0.7-0.7h0.9v0.8h-0.5
		c-0.2,0-0.3,0.1-0.3,0.3v5.3c0,2.1-1.5,2.9-3.1,2.9c-0.7,0-1.5-0.2-2.1-0.5l0.3-0.7c0,0,0.8,0.5,1.8,0.5c1.3,0,2.3-0.6,2.3-2v-0.6
		c0-0.2,0-0.5,0-0.5h0c-0.4,0.7-1,1.1-2,1.1c-1.7,0-2.9-1.4-2.9-3.3S86.3,194.7,88,194.7z M90.2,198c0-1.9-0.9-2.5-2.1-2.5
		c-1.3,0-2,0.9-2,2.5c0,1.5,0.8,2.6,2.1,2.6C89.3,200.5,90.2,199.9,90.2,198z"/>
	<path class="st2" d="M94.5,193.3c0-0.2-0.1-0.3-0.3-0.3h-0.5v-0.8h0.9c0.6,0,0.8,0.2,0.8,0.8v7.2c0,0.2,0.1,0.3,0.3,0.3h0.5v0.8
		h-0.9c-0.6,0-0.8-0.2-0.8-0.8V193.3z"/>
	<path class="st2" d="M99.1,195.9c0-0.2-0.1-0.3-0.3-0.3h-0.5v-0.8h0.9c0.6,0,0.8,0.2,0.8,0.8v4.7c0,0.2,0.1,0.3,0.3,0.3h0.5v0.8
		h-0.9c-0.6,0-0.8-0.2-0.8-0.8V195.9z M99,192.3h0.9v1.1H99V192.3z"/>
	<path class="st2" d="M108.2,199.5c0,0,0.9,1.1,2.3,1.1c1,0,1.8-0.6,1.8-1.6c0-2.2-4.5-1.8-4.5-4.6c0-1.3,1.1-2.3,2.8-2.3
		c0.9,0,2.4,0.4,2.4,1.6v0.6h-0.9v-0.4c0-0.5-0.7-0.9-1.6-0.9c-1.2,0-1.9,0.7-1.9,1.5c0,2.1,4.5,1.6,4.5,4.6c0,1.4-1,2.5-2.7,2.5
		c-1.9,0-2.9-1.3-2.9-1.3L108.2,199.5z"/>
	<path class="st2" d="M116.4,195.6h-0.9v-0.7h0.9v-1.8h0.9v1.8h1.6v0.7h-1.6v3.3c0,1.5,1,1.7,1.5,1.7c0.2,0,0.3,0,0.3,0v0.8
		c0,0-0.2,0-0.4,0c-0.7,0-2.3-0.2-2.3-2.4V195.6z"/>
	<path class="st2" d="M121.9,195.9c0-0.2-0.1-0.3-0.3-0.3H121v-0.8h0.9c0.6,0,0.8,0.2,0.8,0.8v3.1c0,1,0.2,1.9,1.4,1.9
		c1.5,0,2.4-1.3,2.4-2.7v-3.1h0.9v5.4c0,0.2,0.1,0.3,0.3,0.3h0.5v0.8h-0.9c-0.5,0-0.8-0.2-0.8-0.7v-0.3c0-0.3,0-0.5,0-0.5h0
		c-0.3,0.6-1.1,1.6-2.5,1.6c-1.5,0-2.2-0.8-2.2-2.5V195.9z"/>
	<path class="st2" d="M133.3,194.7c1.6,0,2.1,1.2,2.1,1.2h0c0,0,0-0.2,0-0.5v-2.1c0-0.2-0.1-0.3-0.3-0.3h-0.5v-0.8h0.9
		c0.6,0,0.8,0.2,0.8,0.8v7.2c0,0.2,0.1,0.3,0.3,0.3h0.5v0.8h-0.9c-0.5,0-0.8-0.2-0.8-0.7c0-0.2,0-0.4,0-0.4h0c0,0-0.5,1.3-2.2,1.3
		c-1.7,0-2.8-1.4-2.8-3.4C130.4,196,131.6,194.7,133.3,194.7z M135.4,198.1c0-1.3-0.7-2.6-2.1-2.6c-1.1,0-2.1,1-2.1,2.6
		c0,1.6,0.8,2.6,2.1,2.6C134.4,200.7,135.4,199.9,135.4,198.1z"/>
	<path class="st2" d="M139.9,195.9c0-0.2-0.1-0.3-0.3-0.3h-0.5v-0.8h0.9c0.6,0,0.8,0.2,0.8,0.8v4.7c0,0.2,0.1,0.3,0.3,0.3h0.5v0.8
		h-0.9c-0.6,0-0.8-0.2-0.8-0.8V195.9z M139.9,192.3h0.9v1.1h-0.9V192.3z"/>
	<path class="st2" d="M75.9,209.6c1.6,0,2.1,1.2,2.1,1.2h0c0,0,0-0.2,0-0.5v-2.1c0-0.2-0.1-0.3-0.3-0.3h-0.5v-0.8h0.9
		c0.6,0,0.8,0.2,0.8,0.8v7.2c0,0.2,0.1,0.3,0.3,0.3h0.5v0.8h-0.9c-0.5,0-0.8-0.2-0.8-0.7c0-0.2,0-0.4,0-0.4h0c0,0-0.5,1.3-2.2,1.3
		c-1.7,0-2.8-1.4-2.8-3.4C73,210.9,74.2,209.6,75.9,209.6z M78.1,213c0-1.3-0.7-2.6-2.1-2.6c-1.1,0-2.1,1-2.1,2.6
		c0,1.6,0.8,2.6,2.1,2.6C77,215.6,78.1,214.8,78.1,213z"/>
	<path class="st2" d="M82.5,210.8c0-0.2-0.1-0.3-0.3-0.3h-0.5v-0.8h0.9c0.6,0,0.8,0.2,0.8,0.8v4.7c0,0.2,0.1,0.3,0.3,0.3h0.5v0.8
		h-0.9c-0.6,0-0.8-0.2-0.8-0.8V210.8z M82.5,207.1h0.9v1.1h-0.9V207.1z"/>
	<path class="st2" d="M90.9,215.4h0.5c0.2,0,0.3-0.1,0.3-0.3l0.6-8h0.9l2.4,5.3c0.2,0.5,0.5,1.1,0.5,1.1h0c0,0,0.2-0.6,0.4-1.1
		l2.4-5.3h0.9l0.6,8c0,0.2,0.1,0.3,0.3,0.3h0.5v0.8h-0.9c-0.6,0-0.7-0.2-0.8-0.8l-0.4-5.5c0-0.5,0-1.3,0-1.3h0c0,0-0.2,0.8-0.5,1.3
		l-2.2,4.6h-0.8l-2.1-4.6c-0.2-0.5-0.5-1.3-0.5-1.3h0c0,0,0,0.8,0,1.3l-0.4,5.5c0,0.6-0.2,0.8-0.8,0.8h-0.9V215.4z"/>
	<path class="st2" d="M104,210.8c0-0.2-0.1-0.3-0.3-0.3h-0.5v-0.8h0.9c0.6,0,0.8,0.2,0.8,0.8v4.7c0,0.2,0.1,0.3,0.3,0.3h0.5v0.8
		h-0.9c-0.6,0-0.8-0.2-0.8-0.8V210.8z M104,207.1h0.9v1.1H104V207.1z"/>
	<path class="st2" d="M108.5,208.2c0-0.2-0.1-0.3-0.3-0.3h-0.5v-0.8h0.9c0.6,0,0.8,0.2,0.8,0.8v7.2c0,0.2,0.1,0.3,0.3,0.3h0.5v0.8
		h-0.9c-0.6,0-0.8-0.2-0.8-0.8V208.2z"/>
	<path class="st2" d="M116.3,212.2h0.4v-0.1c0-1.4-0.5-1.8-1.7-1.8c-0.3,0-1.3,0.1-1.3,0.6v0.4h-0.8v-0.6c0-0.9,1.5-1.1,2.1-1.1
		c2.1,0,2.5,1.1,2.5,2.5v3.1c0,0.2,0.1,0.3,0.3,0.3h0.5v0.8h-0.9c-0.6,0-0.8-0.2-0.8-0.8c0-0.3,0-0.5,0-0.5h0c0,0-0.5,1.4-2.2,1.4
		c-1.1,0-2.2-0.6-2.2-1.9C112.3,212.3,115.2,212.2,116.3,212.2z M114.7,215.6c1.2,0,2-1.3,2-2.4v-0.3h-0.4c-1,0-3.1,0-3.1,1.5
		C113.2,215,113.7,215.6,114.7,215.6z"/>
	<path class="st2" d="M121,210.8c0-0.2-0.1-0.3-0.3-0.3h-0.5v-0.8h0.9c0.5,0,0.8,0.2,0.8,0.7v0.3c0,0.3,0,0.5,0,0.5h0
		c0.2-0.6,1.1-1.6,2.6-1.6c1.6,0,2.2,0.9,2.2,2.5v3.1c0,0.2,0.1,0.3,0.3,0.3h0.5v0.8h-0.9c-0.6,0-0.8-0.2-0.8-0.8v-3.1
		c0-1-0.2-1.9-1.4-1.9c-1.1,0-2.1,0.8-2.4,1.8c-0.1,0.3-0.1,0.6-0.1,0.9v3.1H121V210.8z"/>
	<path class="st2" d="M133,209.6c1.9,0,3.4,1.4,3.4,3.4c0,2-1.5,3.4-3.4,3.4c-1.9,0-3.4-1.5-3.4-3.4
		C129.6,211,131.1,209.6,133,209.6z M133,215.6c1.4,0,2.5-1.1,2.5-2.6c0-1.5-1.1-2.6-2.5-2.6c-1.4,0-2.5,1.1-2.5,2.6
		C130.5,214.4,131.6,215.6,133,215.6z"/>
</g>
</svg>
