<?xml version="1.0" encoding="utf-8"?>
<!-- Generator: Adobe Illustrator 23.0.0, SVG Export Plug-In . SVG Version: 6.00 Build 0)  -->
<svg version="1.1" id="Livello_1" xmlns="http://www.w3.org/2000/svg" xmlns:xlink="http://www.w3.org/1999/xlink" x="0px" y="0px"
	 viewBox="0 0 1178 514" style="enable-background:new 0 0 1178 514;" xml:space="preserve">
<style type="text/css">
	.st0{fill:#DF0514;}
	.st1{opacity:0.1;}
	.st2{fill:none;stroke:#404040;stroke-width:1.2795;stroke-miterlimit:10;}
	.st3{fill:none;stroke:#404040;stroke-width:1.2795;stroke-miterlimit:10;stroke-dasharray:3.3312,3.3312;}
	.st4{fill:#404040;}
	.st5{fill:none;stroke:#000000;stroke-width:0.853;stroke-miterlimit:10;}
	.st6{fill:none;stroke:#000000;stroke-width:0.9789;stroke-miterlimit:10;}
	.st7{fill:none;stroke:#000000;stroke-width:1.2795;stroke-miterlimit:10;}
	.st8{fill:none;stroke:#000000;stroke-width:1.2795;stroke-miterlimit:10;stroke-dasharray:3.3404,3.3404;}
	.st9{fill:#868686;}
	.st10{fill:#9E9E9E;}
	.st11{fill:none;stroke:#CECECE;stroke-miterlimit:10;}
	.st12{fill:none;stroke:#A2A2A2;stroke-miterlimit:10;}
	.st13{fill:none;stroke:#DBDBDB;stroke-miterlimit:10;}
	.st14{fill:none;stroke:#D2D2D2;stroke-miterlimit:10;}
	.st15{fill:none;stroke:#CDCDCD;stroke-miterlimit:10;}
	.st16{fill:none;stroke:#000000;stroke-width:0.738;stroke-miterlimit:10;}
	.st17{fill:#666666;}
	.st18{fill:#4F4F4F;}
	.st19{fill:#7B7B7B;}
	.st20{fill-rule:evenodd;clip-rule:evenodd;fill:#777777;}
	.st21{fill:#A2A2A2;}
	.st22{fill:#CDCDCD;}
	.st23{fill:#DBDBDB;}
	.st24{fill:#CECECE;}
	.st25{fill:#D2D2D2;}
	.st26{fill:#FFFFFF;}
	.st27{fill:none;stroke:#EDEDED;stroke-width:0.853;stroke-miterlimit:10;}
	.st28{fill:#EBEBEB;}
	.st29{opacity:0.1;clip-path:url(#SVGID_2_);}
	.st30{fill-rule:evenodd;clip-rule:evenodd;fill:#797979;}
	.st31{clip-path:url(#SVGID_4_);}
	.st32{fill:none;stroke:#636362;stroke-width:1.2795;stroke-miterlimit:10;}
	.st33{fill:none;stroke:#636362;stroke-width:1.2795;stroke-miterlimit:10;stroke-dasharray:3.3312,3.3312;}
	.st34{fill:#636362;}
	.st35{fill:#12100B;}
	.st36{fill:none;stroke:#FFD239;stroke-miterlimit:10;}
	.st37{fill:none;stroke:#AC9EAD;stroke-miterlimit:10;}
	.st38{fill:none;stroke:#8BD2F5;stroke-miterlimit:10;}
	.st39{fill:none;stroke:#BAD373;stroke-miterlimit:10;}
	.st40{fill:none;stroke:#C7B07D;stroke-miterlimit:10;}
	.st41{fill:none;stroke:#1D1D1B;stroke-width:0.853;stroke-miterlimit:10;}
	.st42{fill:none;stroke:#12100B;stroke-width:0.9789;stroke-miterlimit:10;}
	.st43{fill:#E40077;}
	.st44{fill:#E30520;}
	.st45{fill:#00883D;}
	.st46{fill-rule:evenodd;clip-rule:evenodd;fill:#EB6508;}
	.st47{fill:none;stroke:#ECECEC;stroke-width:0.853;stroke-miterlimit:10;}
	.st48{fill:#EBEAE9;}
	.st49{fill:#00295A;}
	.st50{fill:#AC9EAD;}
	.st51{fill:#C7B07D;}
	.st52{fill:#8BD2F5;}
	.st53{fill:#FFD239;}
	.st54{fill:#BAD373;}
	.st55{fill:none;stroke:#12100B;stroke-width:1.2795;stroke-miterlimit:10;}
	.st56{fill:none;stroke:#12100B;stroke-width:1.2795;stroke-miterlimit:10;stroke-dasharray:3.3404,3.3404;}
	.st57{fill:#171513;}
	.st58{fill:#EE7900;}
	.st59{fill:#009C3D;}
</style>
<g>
	<g>
		<g>
			<path class="st0" d="M1155.2,255.1h-10.8L1141,245l-3.4,10.1H1126l9.1,6.2l-3.5,10.1l9.4-6.3l8.7,6.3l-3.5-10.1L1155.2,255.1z
				 M1147.5,268.6l-6.6-4.8l-7.3,4.8l2.7-7.7l-7-4.8h9l2.6-7.8l2.6,7.8h8.2l-7,4.8L1147.5,268.6z M1150.1,256.7h-6.9l-2.2-6.6
				l-2.2,6.6h-7.7l5.9,4l-2.3,6.6l6.2-4.1l5.6,4.1l-2.3-6.6L1150.1,256.7z"/>
		</g>
	</g>
</g>
<g class="st1">
	<g>
		<g>
			<path class="st2" d="M456.6,382c-0.3,0.5-0.6,0.9-0.9,1.4"/>
			<path class="st3" d="M453.9,386.2c-57.4,88.2-170.2,127.9-272.7,89.3C62.8,430.9,2.9,298.7,47.5,180.3
				C87.4,74.2,197.6,15.1,305.2,36"/>
			<path class="st2" d="M306.8,36.3c0.5,0.1,1.1,0.2,1.6,0.3"/>
		</g>
	</g>
	<circle class="st4" cx="456.6" cy="382" r="7"/>
	<polygon class="st4" points="310.6,37 309.8,29 321.1,38.8 307.3,44.3 	"/>
	<g>
		<g>
			<path d="M261.3,52c114.7,0,208.1,92.4,209.2,207.3c1.1,115.6-91.7,210.1-207.3,211.2c-0.7,0-1.3,0-2,0
				c-114.7,0-208.1-92.4-209.2-207.3C50.9,147.6,143.7,53.1,259.3,52C259.9,52,260.6,52,261.3,52 M261.3,51.2L261.3,51.2L261.3,51.2
				L261.3,51.2L261.3,51.2c-0.7,0-1.3,0-2,0c-28.4,0.3-55.8,6.1-81.6,17.3c-24.9,10.8-47.2,26.2-66.4,45.7s-34,42.1-44.4,67.2
				c-10.7,26-16,53.6-15.7,81.9c0.3,28.2,6,55.5,17.1,81.2c10.7,24.8,25.9,47,45.2,66.1s41.7,34.1,66.6,44.5
				c25.8,10.8,53.1,16.3,81.2,16.3c0.7,0,1.3,0,2,0c28.4-0.3,55.8-6.1,81.6-17.3c24.9-10.8,47.2-26.2,66.4-45.7
				c19.1-19.5,34-42.1,44.4-67.2c10.7-26,16-53.6,15.7-81.9c-0.3-28.2-6-55.5-17.1-81.2c-10.7-24.8-25.9-47-45.2-66.1
				s-41.7-34.1-66.6-44.5C316.7,56.6,289.4,51.2,261.3,51.2L261.3,51.2L261.3,51.2z"/>
		</g>
		<line class="st5" x1="165.5" y1="230.4" x2="373.7" y2="297.5"/>
		<line class="st5" x1="271.2" y1="147.1" x2="251" y2="378.5"/>
		<line class="st5" x1="200.9" y1="180.8" x2="332.1" y2="355.8"/>
		<line class="st5" x1="329.2" y1="164.8" x2="200.4" y2="361.8"/>
		<line class="st5" x1="345.2" y1="179.4" x2="176.9" y2="343.4"/>
		<line class="st5" x1="247.9" y1="162.5" x2="276.9" y2="377.3"/>
		<line class="st6" x1="367" y1="209.3" x2="155.2" y2="313.3"/>
		<line class="st6" x1="377.4" y1="243.2" x2="147.4" y2="279"/>
		<g>
			<g>
				<path class="st7" d="M271.7,143c0.6,0.1,1.1,0.1,1.7,0.2"/>
				<path class="st8" d="M276.7,143.6c52.7,7.2,95.7,49.5,101.4,104.8c6.7,64.8-40.4,122.8-105.2,129.4
					c-57.5,5.9-109.6-30.5-125.3-84"/>
				<path class="st7" d="M147.1,292.2c-0.1-0.5-0.3-1.1-0.4-1.6"/>
			</g>
		</g>
		<circle cx="271.7" cy="143" r="6.1"/>
		<polygon points="146.4,289.6 140.7,293.2 143.8,281.1 153.1,289.5 		"/>
		<g>
			<path d="M261.2,176.3c22.5,0,43.7,8.7,59.7,24.6s25,37,25.2,59.6c0.4,46.8-37.3,85.3-84.1,85.7c-0.3,0-0.5,0-0.8,0
				c-22.5,0-43.7-8.7-59.7-24.6s-25-37-25.2-59.6c-0.4-46.8,37.3-85.3,84.1-85.7C260.7,176.3,261,176.3,261.2,176.3L261.2,176.3
				 M261.2,168.3c-0.3,0-0.6,0-0.9,0c-51.3,0.5-92.5,42.5-92.1,93.8c0.5,51,42,92.1,92.9,92.1c0.3,0,0.6,0,0.9,0
				c51.3-0.5,92.5-42.5,92.1-93.8C353.7,209.3,312.2,168.3,261.2,168.3L261.2,168.3z"/>
		</g>
		<g>
			<path class="st9" d="M261.2,168.7c24.5,0,47.7,9.5,65.1,26.8c17.5,17.3,27.2,40.3,27.4,64.9c0.5,51-40.7,93-91.7,93.4
				c-0.3,0-0.6,0-0.9,0c-24.5,0-47.7-9.5-65.1-26.8c-17.5-17.3-27.2-40.3-27.4-64.9c-0.2-24.7,9.2-48.1,26.5-65.7
				c17.3-17.6,40.5-27.5,65.2-27.7C260.7,168.7,261,168.7,261.2,168.7L261.2,168.7 M261.2,160.7c-0.3,0-0.6,0-1,0
				c-55.5,0.5-100.1,46-99.6,101.5c0.5,55.2,45.4,99.6,100.5,99.6c0.3,0,0.6,0,1,0c55.5-0.5,100.1-46,99.6-101.5
				C361.3,205.1,316.3,160.7,261.2,160.7L261.2,160.7z"/>
		</g>
		<g>
			<path class="st10" d="M261.2,161.6c26.4,0,51.3,10.2,70.1,28.8c18.8,18.6,29.3,43.4,29.5,69.8c0.3,26.6-9.9,51.7-28.5,70.7
				s-43.6,29.6-70.2,29.8c-0.3,0-0.6,0-1,0c-26.4,0-51.3-10.2-70.1-28.8c-18.8-18.6-29.3-43.4-29.5-69.8
				c-0.5-54.9,43.7-100,98.7-100.5C260.6,161.6,260.9,161.6,261.2,161.6L261.2,161.6 M261.2,153.6c-0.3,0-0.7,0-1,0
				c-59.4,0.6-107.1,49.2-106.6,108.6c0.6,59.1,48.6,106.6,107.6,106.6c0.3,0,0.7,0,1,0c59.4-0.6,107.1-49.2,106.6-108.6
				C368.3,201.1,320.2,153.6,261.2,153.6L261.2,153.6z"/>
		</g>
		<g>
			<path class="st11" d="M122.8,362.3c-14.1-19.4-24.1-41.5-29.2-65c-6.2-28.8-5.1-59.5,4.7-89.5c5.9-18.1,14.6-34.5,25.4-49"/>
			<path class="st12" d="M315.8,423.7c-33.8,11.4-71.5,12.4-108,0.4c-35.5-11.6-64.6-33.7-85-61.8"/>
			<path class="st13" d="M432.6,261.7c-0.1,17.6-2.8,35.4-8.6,53c-17.5,53.4-58.8,92.4-108.2,109"/>
			<path class="st14" d="M399.6,160.2c21.2,29.1,33.1,64.7,33,101.5"/>
			<path class="st14" d="M313.8,98.1c0.3,0.1,0.5,0.2,0.8,0.3c35.5,11.6,64.6,33.7,85,61.8"/>
			<path class="st15" d="M123.8,158.8c42.7-57.2,118.5-83.7,190.1-60.6"/>
			<line class="st5" x1="88.8" y1="132.7" x2="318.9" y2="304"/>
			<line class="st5" x1="87.4" y1="388.2" x2="435" y2="134.3"/>
			<line class="st5" x1="194" y1="465.7" x2="266.5" y2="245.2"/>
			<line class="st16" x1="77.4" y1="260.8" x2="368.2" y2="262"/>
			<line class="st5" x1="194.1" y1="211.5" x2="410.7" y2="372"/>
			<line class="st5" x1="204" y1="90.7" x2="318.5" y2="431.8"/>
			<g>
				<g id="XMLID_210_">
					<path class="st17" d="M117.4,213c1.5-1.6,3.9-3.3,4-5.5c0.1-3.1-2.6-7.1-2.8-8.4c0,0,0.3-0.6,0.6,0.1c2.3,5,7.4,7.3,11,6.7
						c0,0,0.6,1.3,0.7,1.7c0.9,1,6.6,2.2,8.4,2.3c0,0,0.5,0.5-0.1,0.5c-3.3,0.2-6.3-0.2-7.6-0.5c-0.5-0.1-0.6,0.1-0.2,0.4
						c1.4,1.1,3.5,2.2,7.3,3.7c0,0,0.4,0.6-0.3,0.5c-3.9-0.7-15.2-5.5-15.4-5.3c-1.8,1.8-4.2,3.5-5.5,3.9
						C117.5,213.3,117.4,213,117.4,213z"/>
				</g>
				<g id="XMLID_202_">
					<path class="st17" d="M115.2,222.4c0.2-0.3,0.3-0.7,0.2-1c-0.1-0.5-0.5-1.1-1.1-1.4c-0.6-0.4-1.2-0.5-1.7-0.4
						c-0.4,0.1-0.7,0.3-0.9,0.6c-0.2,0.3-0.3,0.7-0.2,1c0.1,0.5,0.5,1.1,1.1,1.4c0.6,0.4,1.2,0.5,1.7,0.4
						C114.7,222.9,115,222.7,115.2,222.4z"/>
				</g>
				<g id="XMLID_194_">
					<path class="st17" d="M119.2,205.6c-0.6,0-1.1,0.1-1.5,0.5c-0.3,0.2-0.4,0.5-0.4,0.8s0.1,0.6,0.3,0.9c0.3,0.4,0.9,0.6,1.5,0.6
						c1,0.1,1.9-0.5,1.9-1.3C121,206.4,120.2,205.7,119.2,205.6z"/>
				</g>
				<g id="XMLID_186_">
					<path class="st17" d="M124,215.5c0.1-0.2,0-0.5-0.1-0.7c-0.2-0.4-0.7-0.7-1.2-0.9c-0.9-0.3-1.8,0-2,0.6c-0.1,0.2,0,0.5,0.1,0.7
						c0.2,0.4,0.7,0.7,1.2,0.9C122.9,216.4,123.8,216.1,124,215.5z"/>
				</g>
				<g id="XMLID_178_">
					<path class="st17" d="M135.3,221.4L135.3,221.4L135.3,221.4c-3.3-1.7-4.7-2.8-5.1-3.2c0.9,0.2,4.1,0.6,5.3,0.5
						c0.7-0.1,0.4-0.6,0.4-0.6c-9.9-2.2-10.4-5-11.5-7.8c-0.1-0.3-0.4-0.2-0.4-0.2c-0.1,0.5,0.3,2.6,0.3,2.9c1.1,5-2.4,6.2-3,6.6
						c0,0-0.1,0.3,0.4,0.3c0.6-0.1,2.6-0.8,4-2c1.9,1.4,7.4,3.5,9.3,4C135.6,222,135.3,221.4,135.3,221.4z"/>
				</g>
				<g id="XMLID_170_">
					<path class="st17" d="M113.8,233.8c2.3-2.1,4.5-6.7,5.2-8.8c5.9,2.8,13,4.9,16.6,5.2c1,0.1,0.5-0.7,0.5-0.7
						c-3.6-1-8.9-3.5-9.7-4.9c2,0.2,7.2,0.3,10.9-0.8c0.8-0.2,0.4-0.7,0.4-0.7c-16.1-0.4-19.6-3.7-23.2-7.1c-1.2-1.1-2.3-2.2-4-3.3
						c-0.8-0.5-0.7,0.4-0.7,0.4c5.7,4.8,9.3,10.6,3.2,20.6C113.1,233.8,113.3,234.3,113.8,233.8z"/>
				</g>
			</g>
			<g>
				<g id="XMLID_162_">
					<path class="st17" d="M351.8,385.9c-2.2,0.3-5.1,0.3-6.5,2c-1.9,2.4-2.1,7.2-2.8,8.4c0,0-0.6,0.3-0.4-0.4
						c1.1-5.4-1.6-10.3-4.9-11.9c0,0,0.3-1.4,0.4-1.8c-0.1-1.4-4-5.7-5.4-6.9c0,0-0.1-0.7,0.4-0.4c2.8,1.8,5,3.9,5.9,4.9
						c0.3,0.4,0.5,0.3,0.4-0.3c-0.4-1.7-1.5-3.9-3.7-7.4c0,0,0-0.7,0.5-0.2c2.8,2.9,9,13.4,9.3,13.4c2.6-0.4,5.5-0.3,6.7,0.1
						C351.9,385.5,351.8,385.9,351.8,385.9z"/>
				</g>
				<g id="XMLID_154_">
					<path class="st17" d="M359.2,379.5c-0.3,0.1-0.6,0.4-0.8,0.7c-0.2,0.5-0.2,1.2,0,1.8c0.2,0.6,0.7,1.1,1.2,1.3
						c0.4,0.2,0.7,0.2,1.1,0.1c0.3-0.1,0.6-0.4,0.8-0.7c0.2-0.5,0.2-1.2,0-1.8c-0.2-0.6-0.7-1.1-1.2-1.3
						C359.9,379.4,359.5,379.4,359.2,379.5z"/>
				</g>
				<g id="XMLID_146_">
					<path class="st17" d="M346.1,390.7c0.4,0.4,1,0.6,1.5,0.5c0.4,0,0.6-0.2,0.8-0.4c0.2-0.2,0.3-0.6,0.2-0.9
						c-0.1-0.5-0.3-1-0.8-1.4c-0.8-0.7-1.8-0.7-2.3-0.1C345,389.1,345.3,390.1,346.1,390.7z"/>
				</g>
				<g id="XMLID_141_">
					<path class="st17" d="M348.1,379.9c-0.2,0.1-0.3,0.4-0.3,0.6c-0.1,0.4,0.1,1,0.5,1.4c0.6,0.7,1.5,1,2,0.6
						c0.2-0.1,0.3-0.4,0.3-0.6c0.1-0.4-0.1-1-0.5-1.4C349.5,379.8,348.6,379.5,348.1,379.9z"/>
				</g>
				<g id="XMLID_137_">
					<path class="st17" d="M342.4,368.5L342.4,368.5L342.4,368.5c1.6,3.3,2.1,5.1,2.2,5.6c-0.6-0.7-3-3-3.9-3.5
						c-0.6-0.4-0.7,0.2-0.7,0.2c6.6,7.6,5.4,10.2,4.6,13.1c-0.1,0.4,0.2,0.4,0.2,0.4c0.4-0.3,1.3-2.3,1.4-2.5
						c2.1-4.7,5.6-3.5,6.3-3.6c0,0,0.2-0.2-0.1-0.4c-0.6-0.3-2.6-0.9-4.5-0.8c-0.7-2.3-3.9-7.2-5.1-8.7
						C342.5,367.8,342.4,368.5,342.4,368.5z"/>
				</g>
				<g id="XMLID_133_">
					<path class="st17" d="M367.1,371.2c-3.1,0.4-7.6,2.8-9.4,4c-3.1-5.8-7.5-11.7-10.3-14c-0.7-0.6-0.8,0.2-0.8,0.2
						c2.3,2.9,5.1,8.1,4.9,9.7c-1.5-1.4-5.6-4.5-9.3-5.8c-0.8-0.3-0.7,0.3-0.7,0.3c12.7,9.9,13.6,14.6,14.5,19.5
						c0.3,1.6,0.6,3.1,1.3,5c0.3,0.9,0.8,0.1,0.8,0.1c-1.7-7.3-1.2-14.1,9.7-18.5C367.7,371.7,367.7,371.1,367.1,371.2z"/>
				</g>
			</g>
			<g>
				<path class="st18" d="M349.6,128.4l-3.1,9.6h-10.1l8.2,6l-3.1,9.6l8.2-5.9l8.2,6l-3.1-9.6l8.2-5.9h-10.1L349.6,128.4z
					 M360.3,138.9l-6.6,4.8l2.5,7.8l-6.6-4.8l-6.6,4.8l2.6-7.8l-6.6-4.8h8.2l2.5-7.8l2.5,7.8L360.3,138.9z"/>
				<polygon class="st18" points="344.2,149.7 349.5,145.8 354.9,149.8 352.9,143.4 358.2,139.6 351.6,139.5 349.6,133.3 
					349.5,133.3 347.5,139.5 340.8,139.5 346.2,143.4 				"/>
			</g>
			<g>
				<path class="st18" d="M260.7,388.4l-3.1,9.6h-10.1l8.2,6l-3.1,9.6l8.2-5.9l8.2,6l-3.1-9.6l8.2-5.9H264L260.7,388.4z
					 M271.4,398.8l-6.6,4.8l2.5,7.8l-6.6-4.8l-6.6,4.8l2.6-7.8l-6.6-4.8h8.2l2.5-7.8l2.5,7.8H271.4z"/>
				<polygon class="st18" points="255.3,409.6 260.7,405.8 266.1,409.7 264,403.4 269.4,399.5 262.8,399.5 260.7,393.2 260.7,393.2 
					258.7,399.4 252,399.4 257.4,403.3 				"/>
			</g>
			<path class="st19" d="M131.5,287.9c-1.8,2.4-3.6,4.8-5.4,7.2c-3.7,4.9-7.7,10.3-11.5,15.2l27.7,7.3l-0.1-0.2
				c-0.6-1.9-1.3-3.8-2-5.6c-0.1-0.3-0.1-0.3-0.1-0.3l-14.5-4c-1-0.3-1.2-0.8-0.6-1.7c2.7-3.6,6.3-8.4,9-12c0,0-0.2-0.6-0.5-1.6
				c-0.1-0.3-0.2-0.6-0.3-1c-0.4-1.2-0.9-2.5-1.3-3.8C131.7,287.6,131.6,287.8,131.5,287.9z M121,305.1l0.3,0.8l0.1,0.3
				c-0.2,0.2-0.8,1.1-1,1.4c-0.4,0.6-0.2,1.1,0.5,1.3c0.4,0.1,1.2,0.3,1.7,0.4c0,0,0,0.1,0.1,0.4c0.2,0.5,0.4,1.1,0.6,1.7
				c-2.3-0.6-4.4-1.2-6.7-1.8l4.1-5.3C120.7,304.2,121,305.1,121,305.1z"/>
			<path class="st19" d="M384.3,317.2c2.9-0.8,5.8-1.7,8.7-2.5c5.9-1.7,12.4-3.5,18.3-5.2L393.5,287c0,0,0,0.2-0.1,0.2
				c-0.6,1.9-1.2,3.8-1.8,5.7c-0.1,0.3-0.1,0.3-0.1,0.3l9.2,11.9c0.7,0.9,0.5,1.4-0.5,1.7c-4.3,1.3-10.1,2.9-14.4,4.2
				c0,0-0.2,0.6-0.5,1.6c-0.1,0.3-0.2,0.6-0.3,1c-0.4,1.2-0.8,2.5-1.2,3.8C384,317.3,384.1,317.3,384.3,317.2z M403.1,309.8l0.3-0.8
				l0.1-0.3c0.3-0.1,1.3-0.4,1.6-0.5c0.7-0.3,0.8-0.8,0.4-1.3c-0.3-0.4-0.8-1-1.1-1.4c0,0,0-0.1,0.1-0.4c0.2-0.5,0.3-1.1,0.6-1.7
				c1.4,1.9,2.8,3.6,4.2,5.5l-6.5,1.8C402.8,310.7,403.1,309.8,403.1,309.8z"/>
			<g>
				<path class="st20" d="M410.9,211.8c-0.4,1-0.9,2-1.8,2.7c-0.2,0.2-0.2,0.4-0.1,0.6c0.5,0.9,0.7,1.8,0.7,2.9
					c-1.3-1.6-2.9-2.8-4.8-3.7C407.1,213.8,409.1,212.9,410.9,211.8z"/>
				<path class="st20" d="M407.9,221.9c1.2-0.7,1.7-2.2,1.1-3.5c-0.4-0.9-1-1.7-1.9-2.3c-1.9-1.3-3.9-1.7-6.2-1.5
					c-1.1,0.1-2.1,0.4-3.1,0.8c-0.3,0.1-0.3,0.1-0.5-0.2v-0.1c0.2-0.1,0.4-0.2,0.6-0.2c0.9-0.4,1.8-0.7,2.7-0.9
					c1.2-0.2,2.3-0.3,3.5-0.5c1.1-0.1,2.2-0.4,3.2-0.8s2-0.9,2.9-1.6c1.5-1.1,2.6-2.5,3.4-4.1c0.1-0.2,0.2-0.5,0.3-0.7l0,0
					c-1-0.3-2.1-0.4-3.2-0.4c-1.3,0-2.7,0.3-3.9,0.8c-0.9,0.4-1.7,0.8-2.5,1.4c-0.9,0.6-1.6,1.3-2.3,2.1c-1.1,1.3-2.3,2.5-3.7,3.4
					c-0.4,0.3-0.9,0.5-1.3,0.8c-0.1-0.2-0.2-0.3-0.3-0.4c0.1-0.1,0.1-0.1,0.2-0.1c0.5-0.3,0.9-0.6,1.4-1c1.9-1.5,3.1-3.5,3.5-5.9
					c0.2-1.3,0.1-2.6-0.6-3.9c-0.3-0.4-0.6-0.8-1-1c-1.1-0.7-2.6-0.4-3.6,0.6c-0.8,0.8-1.2,1.8-1.3,2.9c-0.2,0.9-0.3,1.9-0.5,2.8
					c-0.1,0.7-0.4,1.5-0.8,2.1v0.1c0.5,0,1-0.1,1.5-0.1c0-0.3,0-0.6,0.1-0.9c0.1-0.6,0.2-1.1,0.5-1.5c0.7-0.9,1.9-0.8,2.5,0.1
					c0.3,0.5,0.4,1.1,0.3,1.7c-0.2,1.1-0.7,2-1.6,2.7c-0.3,0.3-0.7,0.5-1,0.7c-0.3-0.3-0.5-0.6-0.7-0.8c-0.4-0.4-0.4-0.4-0.9-0.2
					l0,0c0,0.1-0.1,0.1-0.1,0.2c0,0.2,0.1,0.4,0.1,0.6c0.1,0.3,0.1,0.5,0.2,0.8c-0.5,0.1-0.9,0.1-1.4-0.1c-0.7-0.2-1.2-0.7-1.5-1.4
					c-0.1-0.2,0-0.4-0.1-0.7c-0.3,0-0.7,0.2-1,0.4c-0.6,0.5-0.8,1.3-0.3,2c0.4,0.6,1,0.9,1.6,1c0.9,0.1,1.7,0,2.6-0.3
					c0.3-0.1,0.3-0.1,0.5,0.2c0.1,0.1,0,0.2-0.1,0.2c-0.7,0.2-1.5,0.4-2.2,0.6c-0.5,0.1-1.1,0.3-1.5,0.6c-0.8,0.5-1.3,1.2-1.7,2
					c0.8-0.4,4.4-2.3,4.4-2.3s-0.7-0.2-1.6,0.1c-0.9,0.3-1.4,0.7-1.6,0.9c-0.1,0.1-0.1,0.1-0.1,0.1s0,0,0.1-0.1
					c0.2-0.2,0.9-0.8,1.6-1c1-0.3,1.9-0.1,1.9-0.1s-0.5,1.3-1.9,1.9c-0.7,0.3-1.9,0.3-2.7,0.5v0.1c0,0.1,0,0.1-0.1,0.2
					c0.4,0,0.8,0.1,1.1,0.1c0.9,0,1.7-0.1,2.4-0.6c0.4-0.3,0.8-0.6,1.2-1c0.5-0.4,0.9-0.8,1.5-1.1c0.1,0.1,0.2,0.3,0.2,0.4l0,0
					c-0.1,0.1-0.2,0.2-0.4,0.3c-0.7,0.6-1.3,1.2-1.7,2c-0.3,0.7-0.4,1.4,0,2s1.1,0.9,1.8,0.6c0.3-0.1,0.6-0.2,0.8-0.5
					c-1.2-0.6-1.2-2.6,0-3.5c0.2,0.2,0.4,0.5,0.6,0.7c0.4,0.4,0.4,0.4,0.9,0.2c0.1-0.1,0.2-0.1,0.1-0.3c-0.1-0.4-0.2-0.8-0.3-1.2
					c0-0.1,0-0.2,0.1-0.2c0.8-0.3,1.7-0.5,2.6-0.5c0.9,0.1,1.8,0.4,2.4,1.1c0.4,0.5,0.6,1,0.4,1.6c-0.2,0.8-1,1.2-1.9,1.1
					c-0.5-0.1-0.9-0.3-1.2-0.5c-0.2-0.1-0.5-0.3-0.7-0.5c-0.2,0.4-0.5,0.8-0.8,1l-0.1,0.1c0.1,0,0.1,0.1,0.2,0.1
					c0.5,0,1,0.1,1.4,0.3c1,0.4,1.9,0.9,2.9,1.4c0.6,0.3,1.2,0.6,1.9,0.7C406,222.5,407,222.5,407.9,221.9z M397.7,206.8
					c-1.5-0.5-2.4,0.9-2.4,0.9s0.3-1.7,1.5-2.8c0.3-0.3,0.9-0.6,1.6-0.5c1,0.3,1.2,1.1,1.3,1.7c0.6,2.8-1,5.2-1,5.2
					C399.7,208.3,398.8,207.1,397.7,206.8z M400.7,208.3c1.4-3.9-0.5-5.6-1.3-5.9c-1.9-0.7-3.4,1.7-3.4,1.7s0.5-1.1,1.6-1.8
					c0.2-0.1,1-0.5,1.7-0.3c1,0.3,1.7,1.2,1.9,2c1.3,4.3-2.4,7.4-2.4,7.4C399.6,210.2,400.3,209.2,400.7,208.3z M391.3,213.4
					c-0.4-0.5,0-1.3,0-1.3c0.3,2.1,2.6,2,2.6,2S392.2,214.4,391.3,213.4z M412.7,206.7c0,0-2.3-0.4-5,0.5c-3,1-4.6,2.2-5.2,2.8
					c-0.2,0.2-0.3,0.3-0.3,0.3s0.1-0.1,0.3-0.3c0.8-0.7,3-2.5,5-3.2c3-1.1,5.9-0.3,5.9-0.3s-1.6,3.9-6.2,5.9c-2.2,1-6.4,1-8.8,1.8
					C398.3,214.1,412.7,206.7,412.7,206.7z M395.6,220.6c0,0-0.9-0.2-1.1-0.8c-0.3-1.3,1-2.5,1-2.5S394.1,219.1,395.6,220.6z
					 M404.8,220.6c-1.7,0.3-3.1-0.5-3.1-0.5s1.6,0,2.1-1.4c0.4-1,0-2.5-3-3.5c0,0,2.9,0.2,4.8,2.3c0.4,0.4,0.9,1.1,0.5,2.1
					C405.9,220.3,405.2,220.6,404.8,220.6z M407.3,221.5c-1.2,0.5-2.4,0.3-2.4,0.3s2.8,0.3,3.4-1.7c0.2-0.8,0-3.5-4-4.6
					c-1-0.3-2.2-0.3-3.6-0.3c0,0,4.7-1.2,7.4,2.4c0.5,0.6,0.8,1.7,0.4,2.7C408.3,221,407.5,221.4,407.3,221.5z"/>
			</g>
			<path class="st21" d="M205.8,430.3c-36.9-12.1-67.2-35.2-88.4-64.4l-29.9,21.9c25.6,35.2,62.2,63,106.7,77.6
				c45.7,15,92.8,13.8,135.2-0.4l-11.8-35C282.5,441.7,243.6,442.7,205.8,430.3z"/>
			<path class="st22" d="M315.9,92l11.6-35.2c-89.9-29.1-185.1,4.1-238.6,75.9l29.7,22.2C162.9,95.5,241.6,68,315.9,92z"/>
			<path class="st23" d="M430.3,316.7C412,372.3,369,412.8,317.6,430l11.8,35.1c62.2-20.8,114.1-69.8,136.1-136.9
				c7.3-22.2,10.7-44.7,10.8-66.8l-37.1-0.1C439.1,279.7,436.3,298.3,430.3,316.7z"/>
			<path class="st24" d="M92.2,205.8c6.2-18.8,15.2-35.9,26.4-50.9l-29.7-22.2c-13.5,18.2-24.4,38.8-31.9,61.5
				c-22.4,68.3-8.7,139.7,30.5,193.6l29.9-21.9C85,321.3,73.7,262.2,92.2,205.8z"/>
			<path class="st25" d="M327.5,56.8L315.9,92c0.2,0.1,0.5,0.2,0.7,0.2c75,24.6,122.5,94.3,122.5,169.1l37.1,0.1
				c0.1-90.5-57.4-174.7-148-204.5C328,56.9,327.7,56.8,327.5,56.8z"/>
			<g>
				<g id="XMLID_129_">
					<path class="st17" d="M170.4,380.6c-0.9-2-1.8-4.8-3.8-5.7c-2.8-1.2-7.5,0.1-8.9-0.3c0,0-0.4-0.5,0.3-0.5
						c5.5-0.5,9.4-4.5,10.1-8.1c0,0,1.4-0.1,1.9-0.1c1.3-0.5,4.4-5.5,5.1-7.1c0,0,0.6-0.3,0.5,0.2c-0.9,3.2-2.4,5.9-3.1,7
						c-0.3,0.4-0.1,0.6,0.3,0.3c1.5-0.9,3.3-2.5,6-5.6c0,0,0.7-0.2,0.4,0.4c-2,3.5-10.4,12.4-10.2,12.7c1.1,2.4,1.8,5.2,1.8,6.5
						C170.8,380.7,170.4,380.6,170.4,380.6z"/>
				</g>
				<g id="XMLID_125_">
					<path class="st17" d="M178.6,386c-0.2-0.3-0.5-0.5-0.9-0.5c-0.6-0.1-1.2,0.1-1.7,0.5s-0.9,0.9-1,1.5c-0.1,0.4,0,0.8,0.2,1
						c0.2,0.3,0.5,0.5,0.9,0.5c0.6,0.1,1.2-0.1,1.7-0.5s0.9-0.9,1-1.5C178.8,386.6,178.8,386.2,178.6,386z"/>
				</g>
				<g id="XMLID_121_">
					<path class="st17" d="M164.1,376.5c-0.2,0.5-0.3,1.1-0.1,1.6c0.1,0.3,0.4,0.6,0.6,0.7c0.3,0.1,0.6,0.1,0.9,0
						c0.5-0.2,0.9-0.6,1.1-1.1c0.4-0.9,0.2-2-0.6-2.3C165.4,375,164.5,375.5,164.1,376.5z"/>
				</g>
				<g id="XMLID_117_">
					<path class="st17" d="M175,375.4c-0.2-0.1-0.4-0.2-0.7-0.1c-0.4,0.1-0.9,0.4-1.2,0.8c-0.6,0.8-0.6,1.7-0.1,2.1
						c0.2,0.1,0.4,0.2,0.7,0.1c0.4-0.1,0.9-0.4,1.2-0.8C175.5,376.7,175.6,375.8,175,375.4z"/>
				</g>
				<g id="XMLID_10_">
					<path class="st17" d="M184.4,366.7L184.4,366.7L184.4,366.7c-2.7,2.5-4.3,3.4-4.8,3.7c0.5-0.7,2-3.7,2.3-4.8
						c0.2-0.7-0.4-0.6-0.4-0.6c-5.5,8.5-8.3,8-11.3,8.1c-0.4,0-0.3,0.3-0.3,0.3c0.4,0.3,2.5,0.6,2.8,0.7c5.1,0.7,5,4.4,5.2,5.1
						c0,0,0.3,0.2,0.4-0.3c0.2-0.6,0.1-2.8-0.5-4.5c2-1.4,5.9-5.7,6.9-7.3C185.1,366.6,184.4,366.7,184.4,366.7z"/>
				</g>
				<g id="XMLID_2_">
					<path class="st17" d="M188.8,391.2c-1.2-2.9-4.8-6.5-6.5-7.9c4.7-4.6,9.1-10.5,10.6-13.9c0.4-0.9-0.4-0.7-0.4-0.7
						c-2.1,3-6.3,7.1-7.9,7.4c0.9-1.8,2.7-6.6,3-10.6c0.1-0.8-0.5-0.6-0.5-0.6c-5.9,15-10.2,17.2-14.6,19.4
						c-1.4,0.7-2.8,1.5-4.4,2.6c-0.7,0.5,0.2,0.8,0.2,0.8c6.5-3.7,13.1-5.1,20.5,4.1C188.5,391.9,189,391.8,188.8,391.2z"/>
				</g>
			</g>
			<path class="st19" d="M198.8,142.9c-2.7-1.3-5.4-2.6-8.1-3.9c-5.6-2.7-11.6-5.6-17.1-8.3l-1.7,28.6c0,0,0.1-0.1,0.2-0.1
				c1.7-1,3.4-2,5.1-3c0.3-0.2,0.3-0.2,0.3-0.2l1.1-15c0.1-1.1,0.6-1.4,1.5-0.9c4.1,1.9,9.5,4.5,13.6,6.5c0,0,0.6-0.4,1.4-0.8
				c0.3-0.2,0.6-0.3,0.9-0.5c1.1-0.7,2.2-1.3,3.4-2C199.1,143,199,142.9,198.8,142.9z M179.9,135.9l-0.7,0.4l-0.3,0.2
				c-0.3-0.1-1.2-0.6-1.6-0.7c-0.7-0.2-1.1,0-1.2,0.8c0,0.5-0.1,1.3-0.1,1.7c0,0-0.1,0.1-0.3,0.2c-0.5,0.3-1,0.6-1.6,0.9
				c0.2-2.4,0.3-4.6,0.5-6.9l6,2.9C180.7,135.4,179.9,135.9,179.9,135.9z"/>
			<g id="GoFPfz.tif_1_">
				<g transform="matrix(1 -1.862645e-09 1.862645e-09 1 0 0)">
				</g>
			</g>
		</g>
		<g>
			<circle class="st26" cx="261.2" cy="261.2" r="86.2"/>
			<g>
				<line class="st27" x1="321.9" y1="200.9" x2="199.9" y2="320.6"/>
				<line class="st27" x1="321.4" y1="321.7" x2="201.7" y2="199.7"/>
				<line class="st27" x1="308.1" y1="189.3" x2="214" y2="332.1"/>
				<line class="st27" x1="332.9" y1="307.6" x2="190.2" y2="213.6"/>
				<line class="st27" x1="345.4" y1="243.3" x2="177.1" y2="277.5"/>
				<line class="st27" x1="278.3" y1="344.5" x2="244.3" y2="177.1"/>
				<line class="st27" x1="347.1" y1="259.2" x2="175.4" y2="259.9"/>
				<line class="st27" x1="260.7" y1="346.3" x2="261.8" y2="175.5"/>
				<line class="st27" x1="319.8" y1="221.6" x2="202.6" y2="299.2"/>
				<line class="st27" x1="300" y1="319" x2="222.4" y2="201.8"/>
				<line class="st27" x1="330.2" y1="274" x2="192.2" y2="246.8"/>
				<line class="st27" x1="247.6" y1="329.4" x2="274.8" y2="191.4"/>
				<line class="st27" x1="325.8" y1="288.1" x2="196.6" y2="232.7"/>
				<line class="st27" x1="233.5" y1="325" x2="288.9" y2="195.8"/>
				<line class="st27" x1="326.5" y1="234.3" x2="196" y2="286.5"/>
				<line class="st27" x1="287.4" y1="325.6" x2="235.1" y2="195.1"/>
				<g>
					<polygon class="st28" points="261.8,191.5 280.2,244.1 336.4,243.6 289.5,276.4 308.1,328.8 262.5,296.5 213.9,329.7 
						231.8,277 184,245 244.4,244.5 					"/>
					<polygon class="st26" points="262,209.2 276,249.6 318.8,249.2 282.7,274.3 297,314.6 262.4,289.8 224.7,315.2 238.3,274.7 
						201.8,250.3 248.6,249.8 					"/>
					<polygon class="st28" points="262,218 274,252.3 310,252 279.3,273.3 291.5,307.6 262.4,286.5 230.1,308.1 241.6,273.7 
						210.6,253 250.7,252.5 					"/>
					<g>
						<path d="M250.4,290.9c0-1.4-1.2-2.5-2.6-2.5l-5.6,0.1l0.1,8.7h1.2v-3.5h3.3l2.4,3.5h1.4l-2.4-3.6
							C249.7,293.1,250.4,292.3,250.4,290.9z M248.8,292c-0.2,0.2-0.5,0.4-0.9,0.4h-4.4v-2.8h4.5c1,0,1.2,0.8,1.2,1.4l0,0
							C249.2,291.3,249,291.7,248.8,292z"/>
						<path d="M259.3,294c0,1.2-1.4,1.9-2.8,1.9c-1.3,0-2.7-0.6-2.7-1.8l-0.1-5.8h-1.2l0.1,5.9c0,0.7,0.3,1.4,0.8,1.9
							c0.7,0.7,1.7,1,3,1c0,0,0,0,0.1,0c2.7-0.1,4-1,4-3l-0.1-5.9h-1.2L259.3,294z"/>
						<path d="M269,288.2l-5.6,0.1l0.1,8.7h1.2v-3.6h4.3c1.2,0,2.2-1.1,2.2-2.4l0,0c0-0.7-0.3-1.5-0.9-2
							C269.9,288.4,269.4,288.2,269,288.2z M269.9,290.8L269.9,290.8c0,0.4-0.1,0.8-0.4,1c-0.1,0.1-0.3,0.2-0.4,0.2h-4.4v-2.8h4.3
							C269.4,289.3,269.9,290.1,269.9,290.8z"/>
						<path d="M278.8,288.1l-5.6,0.1l0.1,8.7h1.2v-3.6h4.3c1.2,0,2.2-1.1,2.2-2.4c0-0.7-0.3-1.5-0.9-2
							C279.7,288.3,279.3,288.1,278.8,288.1z M279.7,290.7L279.7,290.7c0,0.4-0.1,0.8-0.4,1c-0.1,0.1-0.3,0.2-0.4,0.2h-4.4v-2.8h4.3
							C279.2,289.2,279.7,290,279.7,290.7z"/>
						<path d="M287.1,296.8c1.5,0,2.8-0.6,3.7-1.5c0.8-0.8,1.2-1.9,1.2-3c0-3.1-2.6-4.4-5-4.4c-1.4,0-2.7,0.6-3.6,1.5
							c-0.8,0.8-1.2,1.9-1.2,3C282.2,294.7,284.5,296.8,287.1,296.8z M283.4,292.3c0-1.8,1.9-3.3,3.6-3.3c0,0,0,0,0.1,0
							c1,0,2.1,0.4,2.8,1.1c0.6,0.6,0.9,1.3,0.9,2.1c0,0.8-0.3,1.6-0.9,2.2c-0.7,0.7-1.7,1.1-2.8,1.1l0,0
							C285.1,295.7,283.5,294.2,283.4,292.3z"/>
						<path d="M235.9,293.6h3v1.5c-0.2,0.2-1.2,1-2.9,1c-2.3,0-3.7-1.2-3.8-3.3c0-1.9,1.4-3.2,3.6-3.2h0.1c1.7,0,3.1,1,3.1,1
							l0.1,0.1l0.8-0.9l-0.2-0.1c-1.4-0.9-2.6-1.4-3.9-1.4c-1.4,0-2.7,0.5-3.7,1.5c-0.8,0.8-1.3,1.9-1.2,3c0,2.8,2,4.5,5,4.5
							c2.7,0,4-1.7,4.1-1.7l0,0v-3h-4.2L235.9,293.6z"/>
						<g>
							<polygon class="st18" points="261.5,209.7 268.4,229.4 289.6,229.2 271.9,241.5 278.9,261.2 261.8,249.1 243.5,261.6 
								250.3,241.8 232.3,229.7 255,229.5 							"/>
							<polygon class="st26" points="261.6,216.3 266.9,231.5 282.9,231.3 269.4,240.8 274.8,255.9 261.8,246.6 247.6,256.1 
								252.7,240.9 239,231.7 256.6,231.6 							"/>
							<polygon class="st18" points="261.6,219.6 266.1,232.5 279.6,232.4 268.1,240.4 272.7,253.2 261.7,245.3 249.6,253.5 
								254,240.5 242.3,232.7 257.3,232.6 							"/>
						</g>
						<path d="M192.1,274c0-0.5,0.3-1.2,1.9-1.2c1.5,0,2.8,0.7,2.8,0.7l-0.3-3.1c-0.2,0.2-0.5,0.3-0.7,0.2c-0.5-0.1-1.3-0.2-2.2-0.2
							c-3.3,0-4.8,2-4.8,3.8c0,3.5,5.4,3.7,5.4,6.2c0,0.9-0.9,1.4-1.9,1.5c-2.2,0-3.7-1-3.7-1l0.4,3.1c0.3-0.1,0.5-0.1,0.8-0.1
							c0.7,0.2,1.8,0.4,2.9,0.4c3.2,0,4.8-1.8,4.8-3.9C197.5,275.9,192.1,276.1,192.1,274z"/>
						<path d="M304,270.8l0.1,12.1h3l-0.1-13.4h-3.6C303.4,269.6,303.9,269.9,304,270.8z"/>
						<path d="M301.3,274.1c0-2.4-2-4.4-4.4-4.4l-6.4,0.1c0,0,0.5,0.4,0.5,0.9l0.1,12.4h2.9v-4.6h1.8l2.7,4.5h3.3l-2.9-5
							C300.4,277.3,301.4,275.8,301.3,274.1z M294,272.6h2.7c0.8,0,1.5,0.7,1.5,1.5s-0.7,1.5-1.5,1.5H294V272.6z"/>
						<path d="M286.2,276.4c0,0.3,0,2.2,0,2.2s-1.1,1.9-2.9,1.9c-1.4,0-3.5-1.3-3.5-3.8s1.8-4,3.4-4s2.6,1.1,2.6,1.1l1.3-2.7
							c0,0-1.5-1.6-4.1-1.5c-3.4,0-6.2,2.8-6.2,7s3.2,6.9,6.3,6.9s4.1-1.9,5.8-3.6v-4.1h-3.3C285.7,275.8,286.2,276.1,286.2,276.4z"
							/>
						<path d="M327.9,269.1c-3.5,0-6.3,3.2-6.2,7c0,3.8,2.9,6.9,6.3,6.9c3.5,0,6.3-3.2,6.2-7C334.2,272.2,331.3,269.1,327.9,269.1z
							 M328,279.9c-1.7,0-3-1.6-3-3.8c0-2.2,1.3-3.8,3-3.8s3,1.6,3,3.8C331,278.2,329.6,279.8,328,279.9z"/>
						<path d="M317,276.6l-4-7h-3.9c0,0,0.5,0.3,0.6,1.2l0.1,12.1h2.8l-0.1-8.3l4.6,8.3h2.8l-0.1-13.4H317V276.6z"/>
						<path d="M270.2,278h4v-2.9h-4v-2.3h5.2l-0.8-2.9l-7.8,0.1c0,0,0.5,0.3,0.5,1.2l0.1,12.2l7.7-0.1l0.7-3l-5.6,0.1L270.2,278z"/>
						<path d="M219.4,277.5l-4-7h-3.9c0,0,0.5,0.3,0.6,1.2l0.1,12.1h2.8l-0.1-8.3l4.6,8.3h2.8l-0.1-13.4h-2.8V277.5z"/>
						<path d="M260.1,270h-3.6c0,0,0.5,0.3,0.5,1.2l0.1,12.1l7.7-0.1l0.7-3l-5.3,0.1L260.1,270z"/>
						<path d="M201.5,270.6c0,0,0.7,0.4,0.5,1.2l-3.5,12.2h2.6l0.9-3.1h4.2l1,3.1h3.3l-4.5-13.3L201.5,270.6z M202.7,278.3l1.2-4.3
							l1.4,4.3H202.7z"/>
						<path d="M230.5,270.3l-6.4,0.1c0,0,0.5,0.3,0.5,1.2l0.1,12.1h2.9v-4.6h2.9c2.4,0,4.4-2,4.4-4.4
							C234.9,272.2,232.9,270.3,230.5,270.3z M230.3,276.3h-2.7v-3.1h2.7c0.8,0,1.5,0.7,1.5,1.5
							C231.8,275.6,231.1,276.2,230.3,276.3z"/>
						<path d="M249.9,270.1h-3.6c0,0,0.5,0.3,0.5,1.2l0.1,12.1l7.7-0.1l0.7-3l-5.3,0.1L249.9,270.1z"/>
						<path d="M239.3,278.3h4v-2.9h-4v-2.3h5.2l-0.8-2.9l-7.8,0.1c0,0,0.5,0.3,0.5,1.2l0.1,12.2l7.7-0.1l0.7-3l-5.6,0.1L239.3,278.3
							z"/>
					</g>
				</g>
			</g>
		</g>
	</g>
</g>
<g>
	<g>
		<defs>
			<path id="SVGID_1_" d="M339.8,28l-78.6,233.2h273C534.2,261.2,452.4,22.8,339.8,28z"/>
		</defs>
		<clipPath id="SVGID_2_">
			<use xlink:href="#SVGID_1_"  style="overflow:visible;"/>
		</clipPath>
		<g class="st29">
			<g>
				<g>
					<path class="st2" d="M456.6,382c-0.3,0.5-0.6,0.9-0.9,1.4"/>
					<path class="st3" d="M453.9,386.2c-57.4,88.2-170.2,127.9-272.7,89.3C62.8,430.9,2.9,298.7,47.5,180.3
						C87.4,74.2,197.6,15.1,305.2,36"/>
					<path class="st2" d="M306.8,36.3c0.5,0.1,1.1,0.2,1.6,0.3"/>
				</g>
			</g>
			<circle class="st4" cx="456.6" cy="382" r="7"/>
			<polygon class="st4" points="310.6,37 309.8,29 321.1,38.8 307.3,44.3 			"/>
			<g>
				<g>
					<path d="M261.2,52c115.6,0,209.3,93.7,209.3,209.3s-93.7,209.3-209.3,209.3S52,376.8,52,261.2S145.7,52,261.2,52 M261.2,51.2
						c-28.4,0-55.9,5.6-81.8,16.5c-25,10.6-47.5,25.7-66.8,45s-34.4,41.8-45,66.8c-11,25.9-16.5,53.4-16.5,81.8s5.6,55.9,16.5,81.8
						c10.6,25,25.7,47.5,45,66.8s41.8,34.4,66.8,45c25.9,11,53.4,16.5,81.8,16.5s55.9-5.6,81.8-16.5c25-10.6,47.5-25.7,66.8-45
						s34.4-41.8,45-66.8c11-25.9,16.5-53.4,16.5-81.8s-5.6-55.9-16.5-81.8c-10.6-25-25.7-47.5-45-66.8S368,78.3,343,67.7
						C317.1,56.7,289.6,51.2,261.2,51.2L261.2,51.2z"/>
				</g>
				<path class="st11" d="M122,161.2c14-19.4,32-35.8,52.7-48c25.4-14.9,54.9-23.4,86.5-23.4c19.1,0,37.4,3.1,54.5,8.8"/>
				<path class="st12" d="M123.9,363.8c-21.4-28.6-34-64.1-34-102.5c0-37.3,11.9-71.9,32.2-100"/>
				<path class="st13" d="M314.2,424.3c-16.7,5.4-34.5,8.4-53,8.4c-56.2,0-106.1-27-137.3-68.8"/>
				<path class="st14" d="M400.4,361.2c-21.1,29.3-51.2,51.6-86.2,63"/>
				<path class="st14" d="M432.6,260.4c0,0.3,0,0.6,0,0.9c0,37.3-11.9,71.9-32.2,100"/>
				<path class="st15" d="M315.7,98.7c67.7,22.7,116.5,86.4,116.9,161.7"/>
				<line class="st5" x1="476.4" y1="260.6" x2="46" y2="258.5"/>
				<line class="st5" x1="165.8" y1="229.5" x2="373.3" y2="298.5"/>
				<line class="st5" x1="329.6" y1="57.3" x2="238.6" y2="329.3"/>
				<line class="st5" x1="272.2" y1="147.2" x2="249.9" y2="378.4"/>
				<line class="st5" x1="86.5" y1="135.7" x2="436" y2="386.8"/>
				<line class="st5" x1="201.7" y1="180.2" x2="331.2" y2="356.4"/>
				<line class="st5" x1="204.3" y1="86.4" x2="324.5" y2="455.8"/>
				<line class="st5" x1="330.1" y1="165.4" x2="199.4" y2="361.2"/>
				<line class="st5" x1="346" y1="180.2" x2="176.1" y2="342.6"/>
				<line class="st5" x1="287.6" y1="182" x2="202.6" y2="437.8"/>
				<line class="st5" x1="248.9" y1="162.4" x2="275.8" y2="377.4"/>
				<line class="st6" x1="367.5" y1="210.3" x2="154.7" y2="312.3"/>
				<line class="st5" x1="405.4" y1="153.7" x2="117" y2="368.8"/>
				<line class="st6" x1="377.6" y1="244.3" x2="147.3" y2="277.9"/>
				<circle class="st26" cx="261.2" cy="261.2" r="86.2"/>
				<g>
					<g id="XMLID_213_">
						<path class="st17" d="M262.3,109.6c2,1,4.4,2.7,6.5,2.1c3-0.8,5.9-4.7,7.2-5.2c0,0,0.6,0.1,0.1,0.6c-4,3.8-4.7,9.3-2.9,12.6
							c0,0-1,0.9-1.4,1.2c-0.7,1.2-0.1,7,0.4,8.7c0,0-0.3,0.6-0.5,0.1c-1.3-3.1-1.8-6.1-1.9-7.4c-0.1-0.5-0.3-0.5-0.5,0
							c-0.6,1.7-1,4-1.3,8.1c0,0-0.4,0.6-0.5-0.1c-0.6-3.9,0.5-16.1,0.2-16.3c-2.3-1.2-4.6-3-5.4-4
							C262,109.8,262.3,109.6,262.3,109.6z"/>
					</g>
					<g id="XMLID_209_">
						<path class="st17" d="M252.6,110.4c0.3,0.1,0.7,0,1-0.2c0.5-0.3,0.9-0.8,1-1.4c0.2-0.6,0.1-1.3-0.2-1.8
							c-0.2-0.3-0.5-0.6-0.8-0.7c-0.3-0.1-0.7,0-1,0.2c-0.5,0.3-0.9,0.8-1,1.4c-0.2,0.6-0.1,1.3,0.2,1.8
							C252,110.1,252.2,110.3,252.6,110.4z"/>
					</g>
					<g id="XMLID_205_">
						<path class="st17" d="M269.8,108.9c-0.2-0.6-0.5-1-0.9-1.3c-0.3-0.2-0.6-0.2-0.9-0.1c-0.3,0.1-0.6,0.3-0.7,0.6
							c-0.2,0.4-0.3,1-0.2,1.6c0.3,1,1.1,1.6,1.8,1.4C269.7,110.9,270,109.9,269.8,108.9z"/>
					</g>
					<g id="XMLID_201_">
						<path class="st17" d="M261.9,116.6c0.2,0,0.5-0.1,0.7-0.3c0.3-0.3,0.5-0.9,0.4-1.4c0-0.9-0.6-1.7-1.2-1.7
							c-0.2,0-0.5,0.1-0.6,0.3c-0.3,0.3-0.5,0.9-0.4,1.4C260.7,115.8,261.2,116.6,261.9,116.6z"/>
					</g>
					<g id="XMLID_197_">
						<path class="st17" d="M259.8,129.2L259.8,129.2L259.8,129.2c0.6-3.6,1.2-5.4,1.4-5.9c0,0.9,0.7,4.1,1.2,5.2
							c0.3,0.7,0.7,0.2,0.7,0.2c-0.9-10.1,1.5-11.4,3.8-13.4c0.3-0.2,0-0.4,0-0.4c-0.5,0-2.4,1.1-2.6,1.2c-4.4,2.6-6.6-0.4-7.2-0.8
							c0,0-0.3,0-0.1,0.4c0.3,0.6,1.6,2.2,3.2,3.2c-0.7,2.3-1.1,8.1-0.9,10.1C259.3,129.7,259.8,129.2,259.8,129.2z"/>
					</g>
					<g id="XMLID_193_">
						<path class="st17" d="M241.3,112.6c2.8,1.5,7.8,2.2,10,2.2c-0.8,6.5-0.6,13.9,0.3,17.4c0.2,0.9,0.8,0.3,0.8,0.3
							c-0.2-3.7,0.6-9.5,1.6-10.8c0.4,2,2,6.9,4.2,10.1c0.5,0.7,0.8,0.1,0.8,0.1c-4.6-15.5-2.6-19.8-0.5-24.3
							c0.7-1.5,1.3-2.9,1.9-4.8c0.2-0.9-0.6-0.6-0.6-0.6c-2.8,6.9-7.1,12.2-18.6,9.4C241.1,111.9,240.8,112.3,241.3,112.6z"/>
					</g>
				</g>
				<g>
					<g id="XMLID_189_">
						<path class="st17" d="M171.1,386.2c-1-2-1.9-4.8-4-5.6c-2.9-1.1-7.5,0.3-8.9,0c0,0-0.5-0.5,0.3-0.6c5.5-0.7,9.3-4.8,9.8-8.4
							c0,0,1.4-0.1,1.9-0.2c1.3-0.6,4.2-5.6,4.9-7.3c0,0,0.6-0.3,0.5,0.2c-0.8,3.2-2.2,5.9-2.8,7.1c-0.3,0.4-0.1,0.6,0.4,0.3
							c1.5-1,3.2-2.6,5.8-5.8c0,0,0.7-0.2,0.4,0.4c-1.8,3.5-10,12.7-9.8,13c1.2,2.3,2,5.1,2,6.4
							C171.4,386.2,171.1,386.2,171.1,386.2z"/>
					</g>
					<g id="XMLID_185_">
						<path class="st17" d="M179.4,391.2c-0.2-0.3-0.5-0.4-0.9-0.5c-0.6-0.1-1.2,0.1-1.7,0.6c-0.5,0.4-0.8,1-0.9,1.5
							c0,0.4,0,0.8,0.3,1c0.2,0.3,0.5,0.4,0.9,0.5c0.6,0.1,1.2-0.1,1.7-0.6c0.5-0.4,0.8-1,0.9-1.5
							C179.7,391.9,179.6,391.5,179.4,391.2z"/>
					</g>
					<g id="XMLID_181_">
						<path class="st17" d="M164.6,382.2c-0.2,0.5-0.2,1.1,0,1.6c0.1,0.3,0.4,0.6,0.7,0.7c0.3,0.1,0.6,0.1,0.9-0.1
							c0.5-0.2,0.8-0.6,1.1-1.2c0.4-1,0.1-2-0.6-2.2C165.9,380.7,165,381.3,164.6,382.2z"/>
					</g>
					<g id="XMLID_177_">
						<path class="st17" d="M175.5,380.8c-0.2-0.1-0.4-0.2-0.7-0.1c-0.4,0.1-0.9,0.4-1.2,0.9c-0.5,0.8-0.5,1.7,0,2.1
							c0.2,0.1,0.4,0.2,0.7,0.1c0.4-0.1,0.9-0.4,1.2-0.9C176.1,382.1,176.1,381.1,175.5,380.8z"/>
					</g>
					<g id="XMLID_173_">
						<path class="st17" d="M184.6,371.8L184.6,371.8L184.6,371.8c-2.6,2.6-4.2,3.6-4.6,3.9c0.5-0.7,1.9-3.7,2.1-4.8
							c0.2-0.7-0.4-0.6-0.4-0.6c-5.2,8.7-8,8.3-11,8.5c-0.4,0-0.3,0.3-0.3,0.3c0.4,0.2,2.6,0.5,2.8,0.6c5.1,0.5,5.1,4.2,5.4,4.9
							c0,0,0.3,0.2,0.4-0.3c0.1-0.6,0-2.8-0.7-4.5c1.9-1.4,5.7-5.9,6.7-7.6C185.3,371.7,184.6,371.8,184.6,371.8z"/>
					</g>
					<g id="XMLID_169_">
						<path class="st17" d="M189.7,396.1c-1.3-2.9-5-6.3-6.7-7.7c4.5-4.7,8.7-10.8,10.1-14.2c0.4-0.9-0.5-0.7-0.5-0.7
							c-2,3.1-6.1,7.3-7.7,7.7c0.8-1.8,2.5-6.7,2.6-10.7c0-0.8-0.5-0.6-0.5-0.6c-5.5,15.2-9.6,17.5-14,19.9
							c-1.4,0.8-2.8,1.5-4.4,2.8c-0.7,0.6,0.2,0.8,0.2,0.8c6.4-3.9,13-5.6,20.6,3.4C189.5,396.8,190,396.7,189.7,396.1z"/>
					</g>
				</g>
				<path class="st18" d="M414.9,303.8h-10.1l-3.1-9.6l-3.1,9.6h-10.1l8.2,6l-3.1,9.6l8.2-5.9l8.2,5.9l-3.1-9.6L414.9,303.8z
					 M408.3,317.2l-6.6-4.8l-6.6,4.8l2.5-7.8l-6.6-4.8h8.2l2.5-7.8l2.5,7.8h8.2l-6.6,4.8L408.3,317.2z"/>
				<polygon class="st18" points="393.1,305.3 398.4,309.2 396.4,315.5 401.7,311.6 407.1,315.5 405,309.2 410.4,305.3 410.4,305.3 
					403.8,305.3 401.7,298.9 399.7,305.3 				"/>
				<path class="st18" d="M140.3,300.4h-10.1l-3.1-9.6l-3.1,9.6h-10.1l8.2,6L119,316l8.2-5.9l8.2,5.9l-3.1-9.6L140.3,300.4z
					 M133.7,313.8l-6.6-4.8l-6.6,4.8l2.5-7.8l-6.6-4.8h8.2l2.5-7.8l2.5,7.8h8.2l-6.6,4.8L133.7,313.8z"/>
				<polygon class="st18" points="118.4,301.9 123.8,305.8 121.7,312.1 127.1,308.2 132.4,312.1 130.4,305.8 135.7,301.9 
					135.7,301.9 129.1,301.9 127.1,295.6 125,301.9 				"/>
				<path class="st19" d="M195.5,146.3c-2.8-1-5.7-1.9-8.5-2.9c-5.8-2-12.2-4.2-18-6.2l1.7,28.6c0,0,0.1-0.1,0.2-0.1
					c1.6-1.2,3.2-2.4,4.8-3.6c0.2-0.2,0.2-0.2,0.2-0.2l-0.7-15.1c-0.1-1.1,0.4-1.4,1.4-1.1c4.3,1.4,10,3.4,14.2,4.8
					c0,0,0.5-0.4,1.3-1c0.3-0.2,0.5-0.4,0.8-0.6c1-0.8,2.1-1.6,3.2-2.4C195.8,146.4,195.6,146.4,195.5,146.3z M175.9,141.7l-0.7,0.5
					l-0.3,0.2c-0.3-0.1-1.3-0.4-1.6-0.5c-0.7-0.2-1.1,0.2-1.1,0.9c0,0.5,0.1,1.3,0.1,1.7c0,0-0.1,0.1-0.3,0.2
					c-0.5,0.3-0.9,0.7-1.5,1.1c-0.1-2.4-0.2-4.6-0.3-6.9l6.3,2.2C176.6,141.1,175.9,141.7,175.9,141.7z"/>
				<path class="st19" d="M246.4,395.7c1.7,2.5,3.4,5,5,7.4c3.5,5.1,7.2,10.6,10.7,15.7l15.8-23.9h-0.2c-2,0-4,0-6,0
					c-0.3,0-0.3,0-0.3,0l-8.5,12.5c-0.6,0.9-1.2,0.9-1.8,0c-2.6-3.7-5.9-8.7-8.5-12.4c0,0-0.7,0-1.7,0c-0.3,0-0.7,0-1,0
					c-1.3,0-2.6,0-4,0C246.2,395.4,246.3,395.5,246.4,395.7z M259.3,411.2h0.8h0.3c0.2,0.3,0.8,1.1,1,1.4c0.5,0.5,1,0.5,1.4-0.1
					c0.3-0.4,0.7-1.1,1-1.5c0,0,0.1,0,0.4,0c0.6,0,1.1,0,1.8,0c-1.3,2-2.6,3.8-3.9,5.7l-3.7-5.6
					C258.4,411.2,259.3,411.2,259.3,411.2z"/>
				<path class="st30" d="M354.9,388.1c-1.1-0.1-2.2-0.3-3.1-0.9c-0.3-0.2-0.4-0.1-0.6,0.1c-0.7,0.7-1.5,1.2-2.5,1.6
					c1.2-1.8,1.7-3.7,2-5.7C351.8,385.1,353.3,386.6,354.9,388.1z"/>
				<path class="st30" d="M344.3,388.4c1,0.9,2.6,0.9,3.6,0c0.8-0.7,1.3-1.5,1.6-2.5c0.7-2.2,0.4-4.3-0.5-6.3c-0.4-1-1-1.8-1.7-2.7
					c-0.2-0.3-0.2-0.3,0.1-0.5c0,0,0.1,0,0.1-0.1c0.1,0.2,0.3,0.3,0.4,0.5c0.6,0.7,1.2,1.4,1.7,2.3c0.6,1,1.1,2.1,1.6,3.2
					c0.5,1,1,2,1.7,2.8s1.5,1.6,2.4,2.2c1.5,1,3.2,1.7,5,1.9c0.3,0,0.5,0.1,0.8,0.1l0,0c0-1.1-0.3-2.1-0.6-3.1
					c-0.5-1.3-1.1-2.4-2-3.5c-0.6-0.7-1.3-1.4-2.1-2c-0.8-0.6-1.7-1.1-2.7-1.5c-1.6-0.7-3.1-1.4-4.4-2.5c-0.4-0.3-0.8-0.7-1.2-1
					c0.1-0.2,0.2-0.3,0.3-0.4c0.1,0.1,0.1,0.1,0.2,0.2c0.4,0.3,0.9,0.7,1.4,1c2,1.3,4.2,1.9,6.7,1.5c1.3-0.2,2.6-0.7,3.5-1.8
					c0.3-0.4,0.6-0.8,0.7-1.3c0.3-1.3-0.4-2.6-1.7-3.2c-1-0.5-2.1-0.5-3.1-0.4c-0.9,0.1-1.9,0.3-2.8,0.4c-0.8,0.1-1.5,0.1-2.3-0.1
					h-0.1c0.2,0.5,0.4,0.9,0.5,1.4c0.3-0.1,0.6-0.1,0.9-0.2c0.5-0.1,1.1-0.2,1.6,0c1,0.4,1.4,1.6,0.7,2.4c-0.4,0.5-0.9,0.7-1.5,0.8
					c-1.1,0.2-2.1-0.1-3.1-0.7c-0.3-0.2-0.7-0.5-1-0.7c0.2-0.3,0.4-0.6,0.6-0.9c0.3-0.5,0.3-0.5-0.1-0.9l0,0c-0.1,0-0.1,0-0.2,0
					c-0.2,0.1-0.3,0.2-0.5,0.3c-0.2,0.1-0.4,0.3-0.7,0.4c-0.2-0.4-0.4-0.8-0.4-1.3c0-0.7,0.2-1.4,0.9-1.8c0.2-0.1,0.4-0.2,0.6-0.3
					c-0.1-0.2-0.4-0.6-0.7-0.8c-0.7-0.5-1.5-0.3-2,0.3c-0.5,0.6-0.5,1.2-0.4,1.8c0.2,0.9,0.5,1.6,1,2.4c0.2,0.3,0.2,0.3,0,0.5
					c-0.1,0.1-0.2,0.1-0.3,0c-0.4-0.6-0.8-1.3-1.2-1.9c-0.3-0.5-0.6-0.9-1-1.3c-0.7-0.6-1.5-0.9-2.4-1c0.6,0.6,3.5,3.4,3.5,3.4
					s-0.1-0.7-0.6-1.5c-0.6-0.8-1.1-1.2-1.3-1.3c-0.1,0-0.1-0.1-0.1-0.1s0,0,0.1,0.1c0.3,0.2,1.1,0.6,1.5,1.1
					c0.6,0.8,0.6,1.8,0.6,1.8s-1.4,0-2.4-1.2c-0.5-0.5-0.9-1.7-1.3-2.4h-0.1c-0.1,0-0.1,0-0.2,0c0.1,0.4,0.2,0.8,0.3,1.1
					c0.2,0.8,0.6,1.6,1.3,2.1c0.4,0.3,0.9,0.6,1.3,0.8c0.5,0.3,1.1,0.6,1.5,1c-0.1,0.1-0.2,0.2-0.3,0.4c0,0,0,0-0.1,0
					c-0.1-0.1-0.3-0.2-0.4-0.3c-0.7-0.5-1.5-0.9-2.4-1c-0.7-0.1-1.4,0.1-1.9,0.7s-0.5,1.3,0,1.9c0.2,0.2,0.4,0.5,0.7,0.6
					c0.1-1.3,2.1-2,3.4-1.1c-0.2,0.3-0.3,0.5-0.5,0.8c-0.3,0.5-0.3,0.5,0.1,0.9c0.1,0.1,0.2,0.1,0.3,0c0.4-0.2,0.7-0.4,1.1-0.7
					c0.1-0.1,0.2-0.1,0.3,0c0.6,0.7,1,1.4,1.2,2.3s0.2,1.8-0.3,2.6c-0.3,0.5-0.7,0.8-1.4,0.9c-0.8,0-1.5-0.6-1.6-1.4
					c-0.1-0.5,0-0.9,0.1-1.3c0.1-0.3,0.1-0.6,0.2-0.9c-0.5,0-0.9-0.2-1.2-0.4h-0.1c0,0.1,0,0.1,0,0.2c0.2,0.5,0.2,0.9,0.2,1.4
					c-0.1,1.1-0.3,2.1-0.4,3.2c-0.1,0.7-0.2,1.3-0.1,2C343.2,386.8,343.5,387.7,344.3,388.4z M355.5,374c0-1.5-1.6-2-1.6-2
					s1.7-0.3,3.1,0.5c0.4,0.2,0.9,0.7,0.9,1.4c0.1,1.1-0.7,1.5-1.2,1.8c-2.4,1.4-5.3,0.7-5.3,0.7C354.7,376.3,355.5,375.1,355.5,374
					z M355,377.2c4.1,0.2,5.2-2.2,5.2-3.1c0.1-2-2.7-2.7-2.7-2.7s1.2,0.1,2.2,1c0.2,0.1,0.8,0.8,0.8,1.5c0.1,1.1-0.6,2-1.3,2.4
					c-3.7,2.6-7.8,0-7.8,0C352.9,376.8,354.1,377.2,355,377.2z M347.2,370c0.3-0.5,1.3-0.4,1.3-0.4c-1.9,0.9-1.1,3.1-1.1,3.1
					S346.5,371.1,347.2,370z M360.3,388.2c0,0-0.3-2.3-2.1-4.6c-1.9-2.5-3.6-3.7-4.2-4.1c-0.2-0.1-0.3-0.2-0.3-0.2s0.1,0.1,0.3,0.2
					c0.9,0.5,3.3,2.1,4.6,3.7c2,2.5,2.2,5.5,2.2,5.5s-4.2-0.3-7.6-4c-1.7-1.8-2.9-5.8-4.4-7.8C348.8,376.8,360.3,388.2,360.3,388.2z
					 M341.7,376.3c0,0-0.1-0.9,0.4-1.3c1.1-0.7,2.7,0.2,2.7,0.2S342.7,374.4,341.7,376.3z M344.6,385c-0.8-1.5-0.5-3.1-0.5-3.1
					s0.5,1.6,2,1.6c1.1,0,2.4-0.8,2.4-4c0,0,0.8,2.8-0.7,5.3c-0.3,0.5-0.7,1.2-1.8,1.2C345.3,385.9,344.8,385.4,344.6,385z
					 M344.5,387.7c-0.9-1-1-2.2-1-2.2s0.6,2.8,2.7,2.7c0.9,0,3.3-1.1,3.1-5.2c0-1-0.4-2.1-0.8-3.5c0,0,2.6,4.1,0,7.8
					c-0.4,0.6-1.4,1.3-2.4,1.3C345.3,388.4,344.7,387.8,344.5,387.7z"/>
				<line class="st27" x1="323.1" y1="200.8" x2="199.4" y2="320"/>
				<line class="st27" x1="320.8" y1="322.2" x2="201.6" y2="198.6"/>
				<line class="st27" x1="309.2" y1="189.1" x2="213.3" y2="331.6"/>
				<line class="st27" x1="332.5" y1="308.3" x2="190" y2="212.5"/>
				<line class="st27" x1="345.5" y1="244.1" x2="176.9" y2="276.7"/>
				<line class="st27" x1="277.5" y1="344.7" x2="245" y2="176.1"/>
				<line class="st27" x1="347.1" y1="260" x2="175.4" y2="259"/>
				<line class="st27" x1="259.9" y1="346.3" x2="262.6" y2="174.5"/>
				<line class="st27" x1="320.2" y1="222.1" x2="202.3" y2="298.7"/>
				<line class="st27" x1="299.5" y1="319.4" x2="223" y2="201.4"/>
				<line class="st27" x1="330.1" y1="274.6" x2="192.4" y2="246.1"/>
				<line class="st27" x1="247" y1="329.2" x2="275.5" y2="191.6"/>
				<line class="st27" x1="325.6" y1="288.7" x2="196.9" y2="232.1"/>
				<line class="st27" x1="232.9" y1="324.7" x2="289.5" y2="196"/>
				<line class="st27" x1="326.7" y1="234.9" x2="195.7" y2="285.9"/>
				<line class="st27" x1="286.8" y1="325.9" x2="235.7" y2="194.9"/>
				<polygon class="st28" points="262.5,191.6 280.3,244.3 336.6,244.3 289.3,276.6 307.5,329.2 262.1,296.6 213.3,329.2 
					231.7,276.8 184.1,244.3 244.6,244.3 				"/>
				<polygon class="st26" points="262.5,209.3 276.2,249.7 318.9,249.8 282.6,274.5 296.5,314.9 262.1,289.8 224.2,314.9 
					238.2,274.5 201.9,249.8 248.7,249.7 				"/>
				<polygon class="st28" points="262.5,218 274.1,252.4 310.1,252.5 279.2,273.5 291.1,307.8 262.1,286.5 229.6,307.8 241.5,273.5 
					210.7,252.5 250.8,252.4 				"/>
				<path d="M250.2,290.8c0-1.4-1.2-2.5-2.6-2.5H242v8.7h1.2v-3.5h3.3l2.4,3.5h1.4l-2.4-3.6C249.4,293,250.2,292.1,250.2,290.8z
					 M248.5,291.9c-0.2,0.2-0.5,0.3-0.9,0.3h-4.4v-2.8h4.5c1,0,1.2,0.9,1.2,1.4l0,0C248.9,291.2,248.8,291.6,248.5,291.9z"/>
				<path d="M259,294c0,1.2-1.4,1.9-2.8,1.9c-1.3,0-2.7-0.6-2.7-1.9v-5.8h-1.2v5.9c0,0.7,0.3,1.4,0.8,1.9c0.7,0.7,1.7,1,3,1
					c0,0,0,0,0.1,0c2.7,0,4-1,4-2.9v-5.9H259V294z"/>
				<path d="M268.8,288.2h-5.6v8.7h1.2v-3.6h4.3c1.2,0,2.2-1.1,2.2-2.4l0,0c0-0.7-0.3-1.5-0.8-2
					C269.7,288.5,269.2,288.2,268.8,288.2z M269.6,290.9L269.6,290.9c0,0.4-0.2,0.8-0.4,1c-0.1,0.1-0.3,0.2-0.4,0.2h-4.4v-2.8h4.3
					C269.1,289.4,269.6,290.1,269.6,290.9z"/>
				<path d="M278.6,288.2H273v8.7h1.2v-3.6h4.3c1.2,0,2.2-1.1,2.2-2.4c0-0.7-0.3-1.5-0.8-2C279.5,288.5,279,288.2,278.6,288.2z
					 M279.5,290.9L279.5,290.9c0,0.4-0.2,0.8-0.4,1c-0.1,0.1-0.3,0.2-0.4,0.2h-4.4v-2.8h4.3C279,289.4,279.5,290.1,279.5,290.9z"/>
				<path d="M286.8,297c1.5,0,2.8-0.5,3.7-1.5c0.8-0.8,1.2-1.8,1.2-3c0-3.1-2.6-4.5-5-4.5c-1.4,0-2.7,0.5-3.6,1.5
					c-0.8,0.8-1.3,1.9-1.3,3C281.9,294.9,284.2,297,286.8,297z M283.2,292.6c0-1.8,1.9-3.2,3.6-3.2c0,0,0,0,0.1,0
					c1,0,2.1,0.4,2.8,1.1c0.6,0.6,0.9,1.3,0.9,2.1c0,0.8-0.3,1.6-0.9,2.2c-0.7,0.7-1.7,1.1-2.8,1.1l0,0
					C284.8,295.9,283.2,294.4,283.2,292.6z"/>
				<path d="M235.6,293.4h3v1.5c-0.2,0.2-1.2,1-2.9,1c-2.3,0-3.7-1.3-3.7-3.3c0-1.9,1.4-3.1,3.6-3.2h0.1c1.7,0,3.1,1,3.1,1l0.1,0.1
					l0.8-0.9l-0.2-0.1c-1.4-1-2.6-1.4-3.8-1.4c-1.4,0-2.7,0.5-3.7,1.4c-0.8,0.8-1.3,1.9-1.3,3c0,2.8,1.9,4.5,5,4.5
					c2.7,0,4-1.6,4.1-1.7l0,0v-3h-4.2V293.4z"/>
				<polygon class="st18" points="262,209.7 268.7,229.5 289.9,229.5 272.1,241.6 278.9,261.4 261.9,249.1 243.5,261.4 250.5,241.7 
					232.6,229.5 255.3,229.5 				"/>
				<polygon class="st26" points="262,216.3 267.2,231.5 283.2,231.5 269.6,240.8 274.8,256 261.9,246.6 247.7,256 252.9,240.8 
					239.3,231.5 256.9,231.5 				"/>
				<polygon class="st18" points="262,219.6 266.4,232.5 279.9,232.6 268.3,240.4 272.8,253.4 261.9,245.3 249.7,253.4 254.2,240.4 
					242.6,232.6 257.6,232.5 				"/>
				<path d="M192,273.3c0-0.5,0.3-1.2,1.9-1.2c1.5,0,2.8,0.7,2.8,0.7l-0.3-3.1c-0.2,0.2-0.5,0.3-0.7,0.2c-0.5-0.1-1.3-0.2-2.2-0.2
					c-3.3,0-4.8,2-4.8,3.8c0,3.5,5.3,3.8,5.3,6.3c0,0.9-0.9,1.4-1.9,1.4c-2.2,0-3.7-1-3.7-1l0.4,3.1c0.3-0.1,0.5-0.1,0.8-0.1
					c0.7,0.2,1.8,0.4,2.9,0.4c3.2,0,4.9-1.7,4.9-3.8C197.4,275.3,192,275.4,192,273.3z"/>
				<path d="M303.9,271.2v12.1h3V270h-3.6C303.3,270,303.9,270.3,303.9,271.2z"/>
				<path d="M301.2,274.4c0-2.4-2-4.4-4.4-4.4h-6.4c0,0,0.5,0.4,0.5,0.9v12.4h2.9v-4.6h1.8l2.6,4.6h3.3l-2.8-5
					C300.2,277.6,301.2,276.1,301.2,274.4z M293.9,272.9h2.7c0.8,0,1.5,0.7,1.5,1.5s-0.7,1.5-1.5,1.5h-2.7V272.9z"/>
				<path d="M286.1,276.7c0,0.3,0,2.2,0,2.2s-1.1,1.8-2.9,1.8c-1.4,0-3.5-1.4-3.5-3.9s1.8-3.9,3.5-3.9s2.6,1.1,2.6,1.1l1.4-2.7
					c0,0-1.5-1.6-4.1-1.6c-3.4,0-6.3,2.7-6.3,7c0,4.2,3.2,7,6.3,7c3.1,0,4.1-1.9,5.8-3.5v-4.1h-3.3
					C285.6,276.1,286.1,276.3,286.1,276.7z"/>
				<path d="M327.8,269.8c-3.5,0-6.3,3.1-6.3,6.9s2.8,6.9,6.3,6.9s6.3-3.1,6.3-6.9C334.1,272.9,331.3,269.8,327.8,269.8z
					 M327.8,280.5c-1.7,0-3-1.6-3-3.8c0-2.2,1.3-3.8,3-3.8s3,1.6,3,3.8S329.4,280.5,327.8,280.5z"/>
				<path d="M316.9,277.1l-4-7.1H309c0,0,0.5,0.3,0.5,1.2v12.1h2.8V275l4.5,8.3h2.8V270h-2.8v7.1H316.9z"/>
				<path d="M270,278.1h4v-2.9h-4v-2.3h5.2l-0.7-2.9h-7.8c0,0,0.5,0.3,0.5,1.2v12.2h7.7l0.7-3H270L270,278.1L270,278.1z"/>
				<path d="M219.2,277.1l-4-7.1h-3.9c0,0,0.5,0.3,0.5,1.2v12.1h2.8V275l4.5,8.3h2.8V270h-2.8v7.1H219.2z"/>
				<path d="M260.1,270h-3.6c0,0,0.5,0.3,0.5,1.2v12.1h7.7l0.7-3h-5.3L260.1,270L260.1,270z"/>
				<path d="M201.4,270c0,0,0.7,0.4,0.5,1.2l-3.6,12.2h2.6l0.9-3.1h4.2l1,3.1h3.3L206,270H201.4z M202.6,277.7l1.2-4.3l1.4,4.3
					H202.6z"/>
				<path d="M230.4,270H224c0,0,0.5,0.3,0.5,1.2v12.1h2.9v-4.6h2.9c2.4,0,4.4-2,4.4-4.4C234.8,272,232.8,270,230.4,270z M230.2,276
					h-2.7v-3.1h2.7c0.8,0,1.5,0.7,1.5,1.5S231,276,230.2,276z"/>
				<path d="M249.8,270h-3.6c0,0,0.5,0.3,0.5,1.2v12.1h7.7l0.7-3h-5.3L249.8,270L249.8,270z"/>
				<path d="M239.1,278.1h4v-2.9h-4v-2.3h5.2l-0.7-2.9h-7.8c0,0,0.5,0.3,0.5,1.2v12.2h7.7l0.7-3h-5.6L239.1,278.1L239.1,278.1z"/>
				<path class="st21" d="M83.3,261.2c0-38.8,12.5-74.8,33.6-104l-30.2-21.5C61.2,171,46.2,214.4,46.2,261.3
					c0,48.1,15.8,92.5,42.5,128.3l29.7-22.2C96.4,337.7,83.3,301,83.3,261.2z"/>
				<path class="st22" d="M439.1,260.5h37.1C475.9,166,414.6,85.9,329.6,57.4l-11.8,35.2C388.1,116.1,438.8,182.3,439.1,260.5z"/>
				<path class="st23" d="M261.2,439.1c-58.5,0-110.3-28.2-142.8-71.8l-29.7,22.2c39.2,52.6,101.8,86.6,172.5,86.6
					c23.3,0,45.8-3.7,66.8-10.6l-11.4-35.3C299.2,436,280.6,439.1,261.2,439.1z"/>
				<path class="st24" d="M261.2,83.4c19.8,0,38.8,3.2,56.6,9.2l11.8-35.2c-21.5-7.2-44.5-11.1-68.4-11.1
					c-71.8,0-135.4,35.2-174.5,89.4l30.2,21.5C149.2,112.5,201.8,83.4,261.2,83.4z"/>
				<path class="st25" d="M476.2,260.5h-37.1c0,0.3,0,0.5,0,0.8c0,78.9-51.4,145.8-122.5,169.1l11.4,35.3
					c86-28.1,148.1-109,148.1-204.4C476.2,261,476.2,260.7,476.2,260.5z"/>
				<g>
					<g>
						<path class="st7" d="M272.8,143.1c0.6,0.1,1.1,0.1,1.7,0.2"/>
						<path class="st8" d="M277.8,143.7c52.6,7.6,95.2,50.4,100.4,105.7c6.1,64.9-41.6,122.4-106.4,128.4
							c-57.5,5.4-109.3-31.5-124.5-85.1"/>
						<path class="st7" d="M146.8,291.1c-0.1-0.5-0.3-1.1-0.4-1.6"/>
					</g>
				</g>
				<circle cx="272.8" cy="143.1" r="6.1"/>
				<polygon points="146.1,288.6 140.4,292.1 143.6,280 152.8,288.4 				"/>
				<g>
					<g id="XMLID_165_">
						<path class="st17" d="M119.5,212.2c1.6-1.5,4.1-3.2,4.2-5.4c0.2-3.1-2.4-7.1-2.5-8.5c0,0,0.3-0.6,0.6,0.1
							c2.2,5.1,7.2,7.6,10.8,7c0,0,0.5,1.3,0.7,1.8c0.9,1.1,6.6,2.4,8.3,2.6c0,0,0.5,0.5-0.1,0.5c-3.3,0.1-6.3-0.4-7.6-0.7
							c-0.5-0.1-0.6,0.1-0.2,0.4c1.3,1.2,3.4,2.4,7.2,4c0,0,0.4,0.6-0.3,0.5c-3.9-0.8-15-6-15.2-5.8c-1.9,1.8-4.4,3.3-5.6,3.7
							C119.6,212.5,119.5,212.2,119.5,212.2z"/>
					</g>
					<g id="XMLID_161_">
						<path class="st17" d="M117,221.6c0.2-0.3,0.3-0.6,0.2-1c-0.1-0.6-0.5-1.1-1-1.5s-1.2-0.5-1.7-0.4c-0.4,0.1-0.7,0.3-0.9,0.5
							c-0.2,0.3-0.3,0.6-0.2,1c0.1,0.5,0.5,1.1,1,1.5s1.2,0.5,1.7,0.4C116.4,222,116.8,221.9,117,221.6z"/>
					</g>
					<g id="XMLID_157_">
						<path class="st17" d="M121.4,204.9c-0.6-0.1-1.1,0.1-1.5,0.4c-0.3,0.2-0.4,0.5-0.5,0.8c0,0.3,0.1,0.6,0.3,0.9
							c0.3,0.4,0.8,0.6,1.4,0.7c1,0.1,1.9-0.5,2-1.2C123.2,205.7,122.5,205,121.4,204.9z"/>
					</g>
					<g id="XMLID_153_">
						<path class="st17" d="M125.9,214.9c0.1-0.2,0-0.5-0.1-0.7c-0.2-0.4-0.7-0.7-1.2-0.9c-0.9-0.3-1.8,0-2,0.6
							c-0.1,0.2,0,0.5,0.1,0.7c0.2,0.4,0.7,0.7,1.2,0.9C124.8,215.8,125.7,215.6,125.9,214.9z"/>
					</g>
					<g id="XMLID_149_">
						<path class="st17" d="M137.1,221.2L137.1,221.2L137.1,221.2c-3.2-1.8-4.6-3-5-3.4c0.9,0.3,4.1,0.8,5.3,0.7
							c0.7-0.1,0.4-0.6,0.4-0.6c-9.8-2.6-10.2-5.4-11.3-8.2c-0.1-0.3-0.4-0.2-0.4-0.2c-0.1,0.5,0.2,2.6,0.2,2.9
							c0.9,5.1-2.6,6.1-3.2,6.5c0,0-0.1,0.3,0.4,0.3c0.6,0,2.7-0.8,4.1-1.9c1.9,1.5,7.3,3.8,9.1,4.3
							C137.4,221.8,137.1,221.2,137.1,221.2z"/>
					</g>
					<g id="XMLID_145_">
						<path class="st17" d="M115.2,232.9c2.4-2.1,4.7-6.6,5.5-8.6c5.8,3,12.8,5.3,16.5,5.7c1,0.1,0.5-0.6,0.5-0.6
							c-3.5-1.1-8.7-3.8-9.5-5.2c2,0.3,7.1,0.5,11-0.5c0.8-0.2,0.4-0.7,0.4-0.7c-16.1-1-19.5-4.3-23-7.8c-1.1-1.1-2.3-2.2-3.9-3.4
							c-0.7-0.5-0.7,0.4-0.7,0.4c5.5,5,9,10.9,2.5,20.7C114.4,232.9,114.7,233.3,115.2,232.9z"/>
					</g>
				</g>
				<g>
					<path d="M261.2,176.3c46.8,0,84.9,38.1,84.9,84.9s-38.1,84.9-84.9,84.9s-84.9-38.1-84.9-84.9S214.4,176.3,261.2,176.3
						 M261.2,168.3c-51.3,0-92.9,41.6-92.9,92.9s41.6,92.9,92.9,92.9s92.9-41.6,92.9-92.9C354.2,209.9,312.6,168.3,261.2,168.3
						L261.2,168.3z"/>
				</g>
				<g>
					<path class="st9" d="M261.2,168.7c51,0,92.6,41.5,92.6,92.6s-41.5,92.6-92.6,92.6s-92.6-41.5-92.6-92.6
						S210.2,168.7,261.2,168.7 M261.2,160.7c-55.5,0-100.6,45-100.6,100.6s45,100.6,100.6,100.6c55.5,0,100.6-45,100.6-100.6
						S316.8,160.7,261.2,160.7L261.2,160.7z"/>
				</g>
				<g>
					<path class="st10" d="M261.2,161.6c54.9,0,99.6,44.7,99.6,99.6s-44.7,99.6-99.6,99.6s-99.6-44.7-99.6-99.6
						S206.3,161.6,261.2,161.6 M261.2,153.6c-59.4,0-107.6,48.2-107.6,107.6s48.2,107.6,107.6,107.6s107.6-48.2,107.6-107.6
						S320.7,153.6,261.2,153.6L261.2,153.6z"/>
				</g>
				<path class="st19" d="M354.3,165c0.4-3,0.8-5.9,1.2-8.9c0.8-6.1,1.7-12.7,2.5-18.9l-27.7,7.3c0,0,0.1,0.1,0.2,0.1
					c1.5,1.3,3,2.6,4.5,3.9c0.2,0.2,0.2,0.2,0.2,0.2l14.6-3.7c1.1-0.3,1.5,0.1,1.4,1.2c-0.5,4.5-1.3,10.4-1.9,14.9
					c0,0,0.5,0.4,1.3,1.1c0.2,0.2,0.5,0.4,0.8,0.7c1,0.9,2,1.7,3,2.6C354.2,165.4,354.2,165.2,354.3,165z M355,144.9
					c0,0-0.6-0.5-0.6-0.6l-0.2-0.2c0.1-0.3,0.2-1.3,0.2-1.7c0-0.7-0.4-1-1.1-0.9c-0.5,0.1-1.2,0.3-1.7,0.5c0,0-0.1-0.1-0.3-0.3
					c-0.4-0.4-0.8-0.7-1.4-1.2c2.3-0.6,4.5-1.1,6.7-1.7l-0.9,6.6C355.6,145.5,355,144.9,355,144.9z"/>
				<g id="GoFPfz.tif_2_">
					<g>
					</g>
				</g>
			</g>
		</g>
	</g>
	<g>
		<defs>
			<path id="SVGID_3_" d="M339.8,28l-78.6,233.2h273C534.2,261.2,452.4,22.8,339.8,28z"/>
		</defs>
		<clipPath id="SVGID_4_">
			<use xlink:href="#SVGID_3_"  style="overflow:visible;"/>
		</clipPath>
		<g class="st31">
			<g>
				<g>
					<path class="st32" d="M456.6,382c-0.3,0.5-0.6,0.9-0.9,1.4"/>
					<path class="st33" d="M453.9,386.2c-57.4,88.2-170.2,127.9-272.7,89.3C62.8,430.9,2.9,298.7,47.5,180.3
						C87.4,74.2,197.6,15.1,305.2,36"/>
					<path class="st32" d="M306.8,36.3c0.5,0.1,1.1,0.2,1.6,0.3"/>
				</g>
			</g>
			<circle class="st34" cx="456.6" cy="382" r="7"/>
			<polygon class="st34" points="310.6,37 309.8,29 321.1,38.8 307.3,44.3 			"/>
			<g>
				<g>
					<path class="st35" d="M261.2,52c115.6,0,209.3,93.7,209.3,209.3s-93.7,209.3-209.3,209.3S52,376.8,52,261.2S145.7,52,261.2,52
						 M261.2,51.2c-28.4,0-55.9,5.6-81.8,16.5c-25,10.6-47.5,25.7-66.8,45s-34.4,41.8-45,66.8c-11,25.9-16.5,53.4-16.5,81.8
						s5.6,55.9,16.5,81.8c10.6,25,25.7,47.5,45,66.8s41.8,34.4,66.8,45c25.9,11,53.4,16.5,81.8,16.5s55.9-5.6,81.8-16.5
						c25-10.6,47.5-25.7,66.8-45s34.4-41.8,45-66.8c11-25.9,16.5-53.4,16.5-81.8s-5.6-55.9-16.5-81.8c-10.6-25-25.7-47.5-45-66.8
						S368,78.3,343,67.7C317.1,56.7,289.6,51.2,261.2,51.2L261.2,51.2z"/>
				</g>
				<path class="st36" d="M122,161.2c14-19.4,32-35.8,52.7-48c25.4-14.9,54.9-23.4,86.5-23.4c19.1,0,37.4,3.1,54.5,8.8"/>
				<path class="st37" d="M123.9,363.8c-21.4-28.6-34-64.1-34-102.5c0-37.3,11.9-71.9,32.2-100"/>
				<path class="st38" d="M314.2,424.3c-16.7,5.4-34.5,8.4-53,8.4c-56.2,0-106.1-27-137.3-68.8"/>
				<path class="st39" d="M400.4,361.2c-21.1,29.3-51.2,51.6-86.2,63"/>
				<path class="st39" d="M432.6,260.4c0,0.3,0,0.6,0,0.9c0,37.3-11.9,71.9-32.2,100"/>
				<path class="st40" d="M315.7,98.7c67.7,22.7,116.5,86.4,116.9,161.7"/>
				<line class="st41" x1="165.8" y1="229.5" x2="373.3" y2="298.5"/>
				<line class="st41" x1="329.6" y1="57.3" x2="238.6" y2="329.3"/>
				<line class="st41" x1="272.2" y1="147.2" x2="249.9" y2="378.4"/>
				<line class="st41" x1="86.5" y1="135.7" x2="436" y2="386.8"/>
				<line class="st41" x1="201.7" y1="180.2" x2="331.2" y2="356.4"/>
				<line class="st41" x1="204.3" y1="86.4" x2="324.5" y2="455.8"/>
				<line class="st41" x1="330.1" y1="165.4" x2="199.4" y2="361.2"/>
				<line class="st41" x1="346" y1="180.2" x2="176.1" y2="342.6"/>
				<line class="st41" x1="287.6" y1="182" x2="202.6" y2="437.8"/>
				<line class="st41" x1="248.9" y1="162.4" x2="275.8" y2="377.4"/>
				<line class="st42" x1="367.5" y1="210.3" x2="154.7" y2="312.3"/>
				<line class="st41" x1="405.4" y1="153.7" x2="117" y2="368.8"/>
				<line class="st42" x1="377.6" y1="244.3" x2="147.3" y2="277.9"/>
				<circle class="st26" cx="261.2" cy="261.2" r="86.2"/>
				<g>
					<g id="XMLID_105_">
						<path class="st43" d="M262.3,109.6c2,1,4.4,2.7,6.5,2.1c3-0.8,5.9-4.7,7.2-5.2c0,0,0.6,0.1,0.1,0.6c-4,3.8-4.7,9.3-2.9,12.6
							c0,0-1,0.9-1.4,1.2c-0.7,1.2-0.1,7,0.4,8.7c0,0-0.3,0.6-0.5,0.1c-1.3-3.1-1.8-6.1-1.9-7.4c-0.1-0.5-0.3-0.5-0.5,0
							c-0.6,1.7-1,4-1.3,8.1c0,0-0.4,0.6-0.5-0.1c-0.6-3.9,0.5-16.1,0.2-16.3c-2.3-1.2-4.6-3-5.4-4
							C262,109.8,262.3,109.6,262.3,109.6z"/>
					</g>
					<g id="XMLID_101_">
						<path class="st43" d="M252.6,110.4c0.3,0.1,0.7,0,1-0.2c0.5-0.3,0.9-0.8,1-1.4c0.2-0.6,0.1-1.3-0.2-1.8
							c-0.2-0.3-0.5-0.6-0.8-0.7c-0.3-0.1-0.7,0-1,0.2c-0.5,0.3-0.9,0.8-1,1.4c-0.2,0.6-0.1,1.3,0.2,1.8
							C252,110.1,252.2,110.3,252.6,110.4z"/>
					</g>
					<g id="XMLID_97_">
						<path class="st43" d="M269.8,108.9c-0.2-0.6-0.5-1-0.9-1.3c-0.3-0.2-0.6-0.2-0.9-0.1c-0.3,0.1-0.6,0.3-0.7,0.6
							c-0.2,0.4-0.3,1-0.2,1.6c0.3,1,1.1,1.6,1.8,1.4C269.7,110.9,270,109.9,269.8,108.9z"/>
					</g>
					<g id="XMLID_93_">
						<path class="st43" d="M261.9,116.6c0.2,0,0.5-0.1,0.7-0.3c0.3-0.3,0.5-0.9,0.4-1.4c0-0.9-0.6-1.7-1.2-1.7
							c-0.2,0-0.5,0.1-0.6,0.3c-0.3,0.3-0.5,0.9-0.4,1.4C260.7,115.8,261.2,116.6,261.9,116.6z"/>
					</g>
					<g id="XMLID_89_">
						<path class="st43" d="M259.8,129.2L259.8,129.2L259.8,129.2c0.6-3.6,1.2-5.4,1.4-5.9c0,0.9,0.7,4.1,1.2,5.2
							c0.3,0.7,0.7,0.2,0.7,0.2c-0.9-10.1,1.5-11.4,3.8-13.4c0.3-0.2,0-0.4,0-0.4c-0.5,0-2.4,1.1-2.6,1.2c-4.4,2.6-6.6-0.4-7.2-0.8
							c0,0-0.3,0-0.1,0.4c0.3,0.6,1.6,2.2,3.2,3.2c-0.7,2.3-1.1,8.1-0.9,10.1C259.3,129.7,259.8,129.2,259.8,129.2z"/>
					</g>
					<g id="XMLID_85_">
						<path class="st43" d="M241.3,112.6c2.8,1.5,7.8,2.2,10,2.2c-0.8,6.5-0.6,13.9,0.3,17.4c0.2,0.9,0.8,0.3,0.8,0.3
							c-0.2-3.7,0.6-9.5,1.6-10.8c0.4,2,2,6.9,4.2,10.1c0.5,0.7,0.8,0.1,0.8,0.1c-4.6-15.5-2.6-19.8-0.5-24.3
							c0.7-1.5,1.3-2.9,1.9-4.8c0.2-0.9-0.6-0.6-0.6-0.6c-2.8,6.9-7.1,12.2-18.6,9.4C241.1,111.9,240.8,112.3,241.3,112.6z"/>
					</g>
				</g>
				<g>
					<g id="XMLID_80_">
						<path class="st43" d="M171.1,386.2c-1-2-1.9-4.8-4-5.6c-2.9-1.1-7.5,0.3-8.9,0c0,0-0.5-0.5,0.3-0.6c5.5-0.7,9.3-4.8,9.8-8.4
							c0,0,1.4-0.1,1.9-0.2c1.3-0.6,4.2-5.6,4.9-7.3c0,0,0.6-0.3,0.5,0.2c-0.8,3.2-2.2,5.9-2.8,7.1c-0.3,0.4-0.1,0.6,0.4,0.3
							c1.5-1,3.2-2.6,5.8-5.8c0,0,0.7-0.2,0.4,0.4c-1.8,3.5-10,12.7-9.8,13c1.2,2.3,2,5.1,2,6.4
							C171.4,386.2,171.1,386.2,171.1,386.2z"/>
					</g>
					<g id="XMLID_76_">
						<path class="st43" d="M179.4,391.2c-0.2-0.3-0.5-0.4-0.9-0.5c-0.6-0.1-1.2,0.1-1.7,0.6c-0.5,0.4-0.8,1-0.9,1.5
							c0,0.4,0,0.8,0.3,1c0.2,0.3,0.5,0.4,0.9,0.5c0.6,0.1,1.2-0.1,1.7-0.6c0.5-0.4,0.8-1,0.9-1.5
							C179.7,391.9,179.6,391.5,179.4,391.2z"/>
					</g>
					<g id="XMLID_72_">
						<path class="st43" d="M164.6,382.2c-0.2,0.5-0.2,1.1,0,1.6c0.1,0.3,0.4,0.6,0.7,0.7c0.3,0.1,0.6,0.1,0.9-0.1
							c0.5-0.2,0.8-0.6,1.1-1.2c0.4-1,0.1-2-0.6-2.2C165.9,380.7,165,381.3,164.6,382.2z"/>
					</g>
					<g id="XMLID_68_">
						<path class="st43" d="M175.5,380.8c-0.2-0.1-0.4-0.2-0.7-0.1c-0.4,0.1-0.9,0.4-1.2,0.9c-0.5,0.8-0.5,1.7,0,2.1
							c0.2,0.1,0.4,0.2,0.7,0.1c0.4-0.1,0.9-0.4,1.2-0.9C176.1,382.1,176.1,381.1,175.5,380.8z"/>
					</g>
					<g id="XMLID_64_">
						<path class="st43" d="M184.6,371.8L184.6,371.8L184.6,371.8c-2.6,2.6-4.2,3.6-4.6,3.9c0.5-0.7,1.9-3.7,2.1-4.8
							c0.2-0.7-0.4-0.6-0.4-0.6c-5.2,8.7-8,8.3-11,8.5c-0.4,0-0.3,0.3-0.3,0.3c0.4,0.2,2.6,0.5,2.8,0.6c5.1,0.5,5.1,4.2,5.4,4.9
							c0,0,0.3,0.2,0.4-0.3c0.1-0.6,0-2.8-0.7-4.5c1.9-1.4,5.7-5.9,6.7-7.6C185.3,371.7,184.6,371.8,184.6,371.8z"/>
					</g>
					<g id="XMLID_60_">
						<path class="st43" d="M189.7,396.1c-1.3-2.9-5-6.3-6.7-7.7c4.5-4.7,8.7-10.8,10.1-14.2c0.4-0.9-0.5-0.7-0.5-0.7
							c-2,3.1-6.1,7.3-7.7,7.7c0.8-1.8,2.5-6.7,2.6-10.7c0-0.8-0.5-0.6-0.5-0.6c-5.5,15.2-9.6,17.5-14,19.9
							c-1.4,0.8-2.8,1.5-4.4,2.8c-0.7,0.6,0.2,0.8,0.2,0.8c6.4-3.9,13-5.6,20.6,3.4C189.5,396.8,190,396.7,189.7,396.1z"/>
					</g>
				</g>
				<path class="st44" d="M414.9,303.8h-10.1l-3.1-9.6l-3.1,9.6h-10.1l8.2,6l-3.1,9.6l8.2-5.9l8.2,5.9l-3.1-9.6L414.9,303.8z
					 M408.3,317.2l-6.6-4.8l-6.6,4.8l2.5-7.8l-6.6-4.8h8.2l2.5-7.8l2.5,7.8h8.2l-6.6,4.8L408.3,317.2z"/>
				<polygon class="st44" points="393.1,305.3 398.4,309.2 396.4,315.5 401.7,311.6 407.1,315.5 405,309.2 410.4,305.3 410.4,305.3 
					403.8,305.3 401.7,298.9 399.7,305.3 				"/>
				<path class="st44" d="M140.3,300.4h-10.1l-3.1-9.6l-3.1,9.6h-10.1l8.2,6L119,316l8.2-5.9l8.2,5.9l-3.1-9.6L140.3,300.4z
					 M133.7,313.8l-6.6-4.8l-6.6,4.8l2.5-7.8l-6.6-4.8h8.2l2.5-7.8l2.5,7.8h8.2l-6.6,4.8L133.7,313.8z"/>
				<polygon class="st44" points="118.4,301.9 123.8,305.8 121.7,312.1 127.1,308.2 132.4,312.1 130.4,305.8 135.7,301.9 
					135.7,301.9 129.1,301.9 127.1,295.6 125,301.9 				"/>
				<path class="st45" d="M195.5,146.3c-2.8-1-5.7-1.9-8.5-2.9c-5.8-2-12.2-4.2-18-6.2l1.7,28.6c0,0,0.1-0.1,0.2-0.1
					c1.6-1.2,3.2-2.4,4.8-3.6c0.2-0.2,0.2-0.2,0.2-0.2l-0.7-15.1c-0.1-1.1,0.4-1.4,1.4-1.1c4.3,1.4,10,3.4,14.2,4.8
					c0,0,0.5-0.4,1.3-1c0.3-0.2,0.5-0.4,0.8-0.6c1-0.8,2.1-1.6,3.2-2.4C195.8,146.4,195.6,146.4,195.5,146.3z M175.9,141.7l-0.7,0.5
					l-0.3,0.2c-0.3-0.1-1.3-0.4-1.6-0.5c-0.7-0.2-1.1,0.2-1.1,0.9c0,0.5,0.1,1.3,0.1,1.7c0,0-0.1,0.1-0.3,0.2
					c-0.5,0.3-0.9,0.7-1.5,1.1c-0.1-2.4-0.2-4.6-0.3-6.9l6.3,2.2C176.6,141.1,175.9,141.7,175.9,141.7z"/>
				<path class="st45" d="M246.4,395.7c1.7,2.5,3.4,5,5,7.4c3.5,5.1,7.2,10.6,10.7,15.7l15.8-23.9h-0.2c-2,0-4,0-6,0
					c-0.3,0-0.3,0-0.3,0l-8.5,12.5c-0.6,0.9-1.2,0.9-1.8,0c-2.6-3.7-5.9-8.7-8.5-12.4c0,0-0.7,0-1.7,0c-0.3,0-0.7,0-1,0
					c-1.3,0-2.6,0-4,0C246.2,395.4,246.3,395.5,246.4,395.7z M259.3,411.2h0.8h0.3c0.2,0.3,0.8,1.1,1,1.4c0.5,0.5,1,0.5,1.4-0.1
					c0.3-0.4,0.7-1.1,1-1.5c0,0,0.1,0,0.4,0c0.6,0,1.1,0,1.8,0c-1.3,2-2.6,3.8-3.9,5.7l-3.7-5.6
					C258.4,411.2,259.3,411.2,259.3,411.2z"/>
				<path class="st46" d="M354.9,388.1c-1.1-0.1-2.2-0.3-3.1-0.9c-0.3-0.2-0.4-0.1-0.6,0.1c-0.7,0.7-1.5,1.2-2.5,1.6
					c1.2-1.8,1.7-3.7,2-5.7C351.8,385.1,353.3,386.6,354.9,388.1z"/>
				<path class="st46" d="M344.3,388.4c1,0.9,2.6,0.9,3.6,0c0.8-0.7,1.3-1.5,1.6-2.5c0.7-2.2,0.4-4.3-0.5-6.3c-0.4-1-1-1.8-1.7-2.7
					c-0.2-0.3-0.2-0.3,0.1-0.5c0,0,0.1,0,0.1-0.1c0.1,0.2,0.3,0.3,0.4,0.5c0.6,0.7,1.2,1.4,1.7,2.3c0.6,1,1.1,2.1,1.6,3.2
					c0.5,1,1,2,1.7,2.8s1.5,1.6,2.4,2.2c1.5,1,3.2,1.7,5,1.9c0.3,0,0.5,0.1,0.8,0.1l0,0c0-1.1-0.3-2.1-0.6-3.1
					c-0.5-1.3-1.1-2.4-2-3.5c-0.6-0.7-1.3-1.4-2.1-2c-0.8-0.6-1.7-1.1-2.7-1.5c-1.6-0.7-3.1-1.4-4.4-2.5c-0.4-0.3-0.8-0.7-1.2-1
					c0.1-0.2,0.2-0.3,0.3-0.4c0.1,0.1,0.1,0.1,0.2,0.2c0.4,0.3,0.9,0.7,1.4,1c2,1.3,4.2,1.9,6.7,1.5c1.3-0.2,2.6-0.7,3.5-1.8
					c0.3-0.4,0.6-0.8,0.7-1.3c0.3-1.3-0.4-2.6-1.7-3.2c-1-0.5-2.1-0.5-3.1-0.4c-0.9,0.1-1.9,0.3-2.8,0.4c-0.8,0.1-1.5,0.1-2.3-0.1
					h-0.1c0.2,0.5,0.4,0.9,0.5,1.4c0.3-0.1,0.6-0.1,0.9-0.2c0.5-0.1,1.1-0.2,1.6,0c1,0.4,1.4,1.6,0.7,2.4c-0.4,0.5-0.9,0.7-1.5,0.8
					c-1.1,0.2-2.1-0.1-3.1-0.7c-0.3-0.2-0.7-0.5-1-0.7c0.2-0.3,0.4-0.6,0.6-0.9c0.3-0.5,0.3-0.5-0.1-0.9l0,0c-0.1,0-0.1,0-0.2,0
					c-0.2,0.1-0.3,0.2-0.5,0.3c-0.2,0.1-0.4,0.3-0.7,0.4c-0.2-0.4-0.4-0.8-0.4-1.3c0-0.7,0.2-1.4,0.9-1.8c0.2-0.1,0.4-0.2,0.6-0.3
					c-0.1-0.2-0.4-0.6-0.7-0.8c-0.7-0.5-1.5-0.3-2,0.3c-0.5,0.6-0.5,1.2-0.4,1.8c0.2,0.9,0.5,1.6,1,2.4c0.2,0.3,0.2,0.3,0,0.5
					c-0.1,0.1-0.2,0.1-0.3,0c-0.4-0.6-0.8-1.3-1.2-1.9c-0.3-0.5-0.6-0.9-1-1.3c-0.7-0.6-1.5-0.9-2.4-1c0.6,0.6,3.5,3.4,3.5,3.4
					s-0.1-0.7-0.6-1.5c-0.6-0.8-1.1-1.2-1.3-1.3c-0.1,0-0.1-0.1-0.1-0.1s0,0,0.1,0.1c0.3,0.2,1.1,0.6,1.5,1.1
					c0.6,0.8,0.6,1.8,0.6,1.8s-1.4,0-2.4-1.2c-0.5-0.5-0.9-1.7-1.3-2.4h-0.1c-0.1,0-0.1,0-0.2,0c0.1,0.4,0.2,0.8,0.3,1.1
					c0.2,0.8,0.6,1.6,1.3,2.1c0.4,0.3,0.9,0.6,1.3,0.8c0.5,0.3,1.1,0.6,1.5,1c-0.1,0.1-0.2,0.2-0.3,0.4c0,0,0,0-0.1,0
					c-0.1-0.1-0.3-0.2-0.4-0.3c-0.7-0.5-1.5-0.9-2.4-1c-0.7-0.1-1.4,0.1-1.9,0.7s-0.5,1.3,0,1.9c0.2,0.2,0.4,0.5,0.7,0.6
					c0.1-1.3,2.1-2,3.4-1.1c-0.2,0.3-0.3,0.5-0.5,0.8c-0.3,0.5-0.3,0.5,0.1,0.9c0.1,0.1,0.2,0.1,0.3,0c0.4-0.2,0.7-0.4,1.1-0.7
					c0.1-0.1,0.2-0.1,0.3,0c0.6,0.7,1,1.4,1.2,2.3s0.2,1.8-0.3,2.6c-0.3,0.5-0.7,0.8-1.4,0.9c-0.8,0-1.5-0.6-1.6-1.4
					c-0.1-0.5,0-0.9,0.1-1.3c0.1-0.3,0.1-0.6,0.2-0.9c-0.5,0-0.9-0.2-1.2-0.4h-0.1c0,0.1,0,0.1,0,0.2c0.2,0.5,0.2,0.9,0.2,1.4
					c-0.1,1.1-0.3,2.1-0.4,3.2c-0.1,0.7-0.2,1.3-0.1,2C343.2,386.8,343.5,387.7,344.3,388.4z M355.5,374c0-1.5-1.6-2-1.6-2
					s1.7-0.3,3.1,0.5c0.4,0.2,0.9,0.7,0.9,1.4c0.1,1.1-0.7,1.5-1.2,1.8c-2.4,1.4-5.3,0.7-5.3,0.7C354.7,376.3,355.5,375.1,355.5,374
					z M355,377.2c4.1,0.2,5.2-2.2,5.2-3.1c0.1-2-2.7-2.7-2.7-2.7s1.2,0.1,2.2,1c0.2,0.1,0.8,0.8,0.8,1.5c0.1,1.1-0.6,2-1.3,2.4
					c-3.7,2.6-7.8,0-7.8,0C352.9,376.8,354.1,377.2,355,377.2z M347.2,370c0.3-0.5,1.3-0.4,1.3-0.4c-1.9,0.9-1.1,3.1-1.1,3.1
					S346.5,371.1,347.2,370z M360.3,388.2c0,0-0.3-2.3-2.1-4.6c-1.9-2.5-3.6-3.7-4.2-4.1c-0.2-0.1-0.3-0.2-0.3-0.2s0.1,0.1,0.3,0.2
					c0.9,0.5,3.3,2.1,4.6,3.7c2,2.5,2.2,5.5,2.2,5.5s-4.2-0.3-7.6-4c-1.7-1.8-2.9-5.8-4.4-7.8C348.8,376.8,360.3,388.2,360.3,388.2z
					 M341.7,376.3c0,0-0.1-0.9,0.4-1.3c1.1-0.7,2.7,0.2,2.7,0.2S342.7,374.4,341.7,376.3z M344.6,385c-0.8-1.5-0.5-3.1-0.5-3.1
					s0.5,1.6,2,1.6c1.1,0,2.4-0.8,2.4-4c0,0,0.8,2.8-0.7,5.3c-0.3,0.5-0.7,1.2-1.8,1.2C345.3,385.9,344.8,385.4,344.6,385z
					 M344.5,387.7c-0.9-1-1-2.2-1-2.2s0.6,2.8,2.7,2.7c0.9,0,3.3-1.1,3.1-5.2c0-1-0.4-2.1-0.8-3.5c0,0,2.6,4.1,0,7.8
					c-0.4,0.6-1.4,1.3-2.4,1.3C345.3,388.4,344.7,387.8,344.5,387.7z"/>
				<line class="st47" x1="323.1" y1="200.8" x2="199.4" y2="320"/>
				<line class="st47" x1="320.8" y1="322.2" x2="201.6" y2="198.6"/>
				<line class="st47" x1="309.2" y1="189.1" x2="213.3" y2="331.6"/>
				<line class="st47" x1="332.5" y1="308.3" x2="190" y2="212.5"/>
				<line class="st47" x1="345.5" y1="244.1" x2="176.9" y2="276.7"/>
				<line class="st47" x1="277.5" y1="344.7" x2="245" y2="176.1"/>
				<line class="st47" x1="347.1" y1="260" x2="175.4" y2="259"/>
				<line class="st47" x1="259.9" y1="346.3" x2="262.6" y2="174.5"/>
				<line class="st47" x1="320.2" y1="222.1" x2="202.3" y2="298.7"/>
				<line class="st47" x1="299.5" y1="319.4" x2="223" y2="201.4"/>
				<line class="st47" x1="330.1" y1="274.6" x2="192.4" y2="246.1"/>
				<line class="st47" x1="247" y1="329.2" x2="275.5" y2="191.6"/>
				<line class="st47" x1="325.6" y1="288.7" x2="196.9" y2="232.1"/>
				<line class="st47" x1="232.9" y1="324.7" x2="289.5" y2="196"/>
				<line class="st47" x1="326.7" y1="234.9" x2="195.7" y2="285.9"/>
				<line class="st47" x1="286.8" y1="325.9" x2="235.7" y2="194.9"/>
				<polygon class="st48" points="262.5,191.6 280.3,244.3 336.6,244.3 289.3,276.6 307.5,329.2 262.1,296.6 213.3,329.2 
					231.7,276.8 184.1,244.3 244.6,244.3 				"/>
				<polygon class="st26" points="262.5,209.3 276.2,249.7 318.9,249.8 282.6,274.5 296.5,314.9 262.1,289.8 224.2,314.9 
					238.2,274.5 201.9,249.8 248.7,249.7 				"/>
				<polygon class="st48" points="262.5,218 274.1,252.4 310.1,252.5 279.2,273.5 291.1,307.8 262.1,286.5 229.6,307.8 241.5,273.5 
					210.7,252.5 250.8,252.4 				"/>
				<path class="st49" d="M250.2,290.8c0-1.4-1.2-2.5-2.6-2.5H242v8.7h1.2v-3.5h3.3l2.4,3.5h1.4l-2.4-3.6
					C249.4,293,250.2,292.1,250.2,290.8z M248.5,291.9c-0.2,0.2-0.5,0.3-0.9,0.3h-4.4v-2.8h4.5c1,0,1.2,0.9,1.2,1.4l0,0
					C248.9,291.2,248.8,291.6,248.5,291.9z"/>
				<path class="st49" d="M259,294c0,1.2-1.4,1.9-2.8,1.9c-1.3,0-2.7-0.6-2.7-1.9v-5.8h-1.2v5.9c0,0.7,0.3,1.4,0.8,1.9
					c0.7,0.7,1.7,1,3,1c0,0,0,0,0.1,0c2.7,0,4-1,4-2.9v-5.9H259V294z"/>
				<path class="st49" d="M268.8,288.2h-5.6v8.7h1.2v-3.6h4.3c1.2,0,2.2-1.1,2.2-2.4l0,0c0-0.7-0.3-1.5-0.8-2
					C269.7,288.5,269.2,288.2,268.8,288.2z M269.6,290.9L269.6,290.9c0,0.4-0.2,0.8-0.4,1c-0.1,0.1-0.3,0.2-0.4,0.2h-4.4v-2.8h4.3
					C269.1,289.4,269.6,290.1,269.6,290.9z"/>
				<path class="st49" d="M278.6,288.2H273v8.7h1.2v-3.6h4.3c1.2,0,2.2-1.1,2.2-2.4c0-0.7-0.3-1.5-0.8-2
					C279.5,288.5,279,288.2,278.6,288.2z M279.5,290.9L279.5,290.9c0,0.4-0.2,0.8-0.4,1c-0.1,0.1-0.3,0.2-0.4,0.2h-4.4v-2.8h4.3
					C279,289.4,279.5,290.1,279.5,290.9z"/>
				<path class="st49" d="M286.8,297c1.5,0,2.8-0.5,3.7-1.5c0.8-0.8,1.2-1.8,1.2-3c0-3.1-2.6-4.5-5-4.5c-1.4,0-2.7,0.5-3.6,1.5
					c-0.8,0.8-1.3,1.9-1.3,3C281.9,294.9,284.2,297,286.8,297z M283.2,292.6c0-1.8,1.9-3.2,3.6-3.2c0,0,0,0,0.1,0
					c1,0,2.1,0.4,2.8,1.1c0.6,0.6,0.9,1.3,0.9,2.1c0,0.8-0.3,1.6-0.9,2.2c-0.7,0.7-1.7,1.1-2.8,1.1l0,0
					C284.8,295.9,283.2,294.4,283.2,292.6z"/>
				<path class="st49" d="M235.6,293.4h3v1.5c-0.2,0.2-1.2,1-2.9,1c-2.3,0-3.7-1.3-3.7-3.3c0-1.9,1.4-3.1,3.6-3.2h0.1
					c1.7,0,3.1,1,3.1,1l0.1,0.1l0.8-0.9l-0.2-0.1c-1.4-1-2.6-1.4-3.8-1.4c-1.4,0-2.7,0.5-3.7,1.4c-0.8,0.8-1.3,1.9-1.3,3
					c0,2.8,1.9,4.5,5,4.5c2.7,0,4-1.6,4.1-1.7l0,0v-3h-4.2V293.4z"/>
				<polygon class="st44" points="262,209.7 268.7,229.5 289.9,229.5 272.1,241.6 278.9,261.4 261.9,249.1 243.5,261.4 250.5,241.7 
					232.6,229.5 255.3,229.5 				"/>
				<polygon class="st26" points="262,216.3 267.2,231.5 283.2,231.5 269.6,240.8 274.8,256 261.9,246.6 247.7,256 252.9,240.8 
					239.3,231.5 256.9,231.5 				"/>
				<polygon class="st44" points="262,219.6 266.4,232.5 279.9,232.6 268.3,240.4 272.8,253.4 261.9,245.3 249.7,253.4 254.2,240.4 
					242.6,232.6 257.6,232.5 				"/>
				<path class="st49" d="M192,273.3c0-0.5,0.3-1.2,1.9-1.2c1.5,0,2.8,0.7,2.8,0.7l-0.3-3.1c-0.2,0.2-0.5,0.3-0.7,0.2
					c-0.5-0.1-1.3-0.2-2.2-0.2c-3.3,0-4.8,2-4.8,3.8c0,3.5,5.3,3.8,5.3,6.3c0,0.9-0.9,1.4-1.9,1.4c-2.2,0-3.7-1-3.7-1l0.4,3.1
					c0.3-0.1,0.5-0.1,0.8-0.1c0.7,0.2,1.8,0.4,2.9,0.4c3.2,0,4.9-1.7,4.9-3.8C197.4,275.3,192,275.4,192,273.3z"/>
				<path class="st49" d="M303.9,271.2v12.1h3V270h-3.6C303.3,270,303.9,270.3,303.9,271.2z"/>
				<path class="st49" d="M301.2,274.4c0-2.4-2-4.4-4.4-4.4h-6.4c0,0,0.5,0.4,0.5,0.9v12.4h2.9v-4.6h1.8l2.6,4.6h3.3l-2.8-5
					C300.2,277.6,301.2,276.1,301.2,274.4z M293.9,272.9h2.7c0.8,0,1.5,0.7,1.5,1.5s-0.7,1.5-1.5,1.5h-2.7V272.9z"/>
				<path class="st49" d="M286.1,276.7c0,0.3,0,2.2,0,2.2s-1.1,1.8-2.9,1.8c-1.4,0-3.5-1.4-3.5-3.9s1.8-3.9,3.5-3.9s2.6,1.1,2.6,1.1
					l1.4-2.7c0,0-1.5-1.6-4.1-1.6c-3.4,0-6.3,2.7-6.3,7c0,4.2,3.2,7,6.3,7c3.1,0,4.1-1.9,5.8-3.5v-4.1h-3.3
					C285.6,276.1,286.1,276.3,286.1,276.7z"/>
				<path class="st49" d="M327.8,269.8c-3.5,0-6.3,3.1-6.3,6.9s2.8,6.9,6.3,6.9s6.3-3.1,6.3-6.9
					C334.1,272.9,331.3,269.8,327.8,269.8z M327.8,280.5c-1.7,0-3-1.6-3-3.8c0-2.2,1.3-3.8,3-3.8s3,1.6,3,3.8
					S329.4,280.5,327.8,280.5z"/>
				<path class="st49" d="M316.9,277.1l-4-7.1H309c0,0,0.5,0.3,0.5,1.2v12.1h2.8V275l4.5,8.3h2.8V270h-2.8v7.1H316.9z"/>
				<path class="st49" d="M270,278.1h4v-2.9h-4v-2.3h5.2l-0.7-2.9h-7.8c0,0,0.5,0.3,0.5,1.2v12.2h7.7l0.7-3H270L270,278.1L270,278.1
					z"/>
				<path class="st49" d="M219.2,277.1l-4-7.1h-3.9c0,0,0.5,0.3,0.5,1.2v12.1h2.8V275l4.5,8.3h2.8V270h-2.8v7.1H219.2z"/>
				<path class="st49" d="M260.1,270h-3.6c0,0,0.5,0.3,0.5,1.2v12.1h7.7l0.7-3h-5.3L260.1,270L260.1,270z"/>
				<path class="st49" d="M201.4,270c0,0,0.7,0.4,0.5,1.2l-3.6,12.2h2.6l0.9-3.1h4.2l1,3.1h3.3L206,270H201.4z M202.6,277.7l1.2-4.3
					l1.4,4.3H202.6z"/>
				<path class="st49" d="M230.4,270H224c0,0,0.5,0.3,0.5,1.2v12.1h2.9v-4.6h2.9c2.4,0,4.4-2,4.4-4.4C234.8,272,232.8,270,230.4,270
					z M230.2,276h-2.7v-3.1h2.7c0.8,0,1.5,0.7,1.5,1.5S231,276,230.2,276z"/>
				<path class="st49" d="M249.8,270h-3.6c0,0,0.5,0.3,0.5,1.2v12.1h7.7l0.7-3h-5.3L249.8,270L249.8,270z"/>
				<path class="st49" d="M239.1,278.1h4v-2.9h-4v-2.3h5.2l-0.7-2.9h-7.8c0,0,0.5,0.3,0.5,1.2v12.2h7.7l0.7-3h-5.6L239.1,278.1
					L239.1,278.1z"/>
				<path class="st50" d="M83.3,261.2c0-38.8,12.5-74.8,33.6-104l-30.2-21.5C61.2,171,46.2,214.4,46.2,261.3
					c0,48.1,15.8,92.5,42.5,128.3l29.7-22.2C96.4,337.7,83.3,301,83.3,261.2z"/>
				<path class="st51" d="M439.1,260.5h37.1C475.9,166,414.6,85.9,329.6,57.4l-11.8,35.2C388.1,116.1,438.8,182.3,439.1,260.5z"/>
				<path class="st52" d="M261.2,439.1c-58.5,0-110.3-28.2-142.8-71.8l-29.7,22.2c39.2,52.6,101.8,86.6,172.5,86.6
					c23.3,0,45.8-3.7,66.8-10.6l-11.4-35.3C299.2,436,280.6,439.1,261.2,439.1z"/>
				<path class="st53" d="M261.2,83.4c19.8,0,38.8,3.2,56.6,9.2l11.8-35.2c-21.5-7.2-44.5-11.1-68.4-11.1
					c-71.8,0-135.4,35.2-174.5,89.4l30.2,21.5C149.2,112.5,201.8,83.4,261.2,83.4z"/>
				<path class="st54" d="M476.2,260.5h-37.1c0,0.3,0,0.5,0,0.8c0,78.9-51.4,145.8-122.5,169.1l11.4,35.3
					c86-28.1,148.1-109,148.1-204.4C476.2,261,476.2,260.7,476.2,260.5z"/>
				<g>
					<g>
						<path class="st55" d="M272.8,143.1c0.6,0.1,1.1,0.1,1.7,0.2"/>
						<path class="st56" d="M277.8,143.7c52.6,7.6,95.2,50.4,100.4,105.7c6.1,64.9-41.6,122.4-106.4,128.4
							c-57.5,5.4-109.3-31.5-124.5-85.1"/>
						<path class="st55" d="M146.8,291.1c-0.1-0.5-0.3-1.1-0.4-1.6"/>
					</g>
				</g>
				<circle class="st57" cx="272.8" cy="143.1" r="6.1"/>
				<polygon class="st57" points="146.1,288.6 140.4,292.1 143.6,280 152.8,288.4 				"/>
				<g>
					<g id="XMLID_56_">
						<path class="st43" d="M119.5,212.2c1.6-1.5,4.1-3.2,4.2-5.4c0.2-3.1-2.4-7.1-2.5-8.5c0,0,0.3-0.6,0.6,0.1
							c2.2,5.1,7.2,7.6,10.8,7c0,0,0.5,1.3,0.7,1.8c0.9,1.1,6.6,2.4,8.3,2.6c0,0,0.5,0.5-0.1,0.5c-3.3,0.1-6.3-0.4-7.6-0.7
							c-0.5-0.1-0.6,0.1-0.2,0.4c1.3,1.2,3.4,2.4,7.2,4c0,0,0.4,0.6-0.3,0.5c-3.9-0.8-15-6-15.2-5.8c-1.9,1.8-4.4,3.3-5.6,3.7
							C119.6,212.5,119.5,212.2,119.5,212.2z"/>
					</g>
					<g id="XMLID_52_">
						<path class="st43" d="M117,221.6c0.2-0.3,0.3-0.6,0.2-1c-0.1-0.6-0.5-1.1-1-1.5s-1.2-0.5-1.7-0.4c-0.4,0.1-0.7,0.3-0.9,0.5
							c-0.2,0.3-0.3,0.6-0.2,1c0.1,0.5,0.5,1.1,1,1.5s1.2,0.5,1.7,0.4C116.4,222,116.8,221.9,117,221.6z"/>
					</g>
					<g id="XMLID_48_">
						<path class="st43" d="M121.4,204.9c-0.6-0.1-1.1,0.1-1.5,0.4c-0.3,0.2-0.4,0.5-0.5,0.8c0,0.3,0.1,0.6,0.3,0.9
							c0.3,0.4,0.8,0.6,1.4,0.7c1,0.1,1.9-0.5,2-1.2C123.2,205.7,122.5,205,121.4,204.9z"/>
					</g>
					<g id="XMLID_9_">
						<path class="st43" d="M125.9,214.9c0.1-0.2,0-0.5-0.1-0.7c-0.2-0.4-0.7-0.7-1.2-0.9c-0.9-0.3-1.8,0-2,0.6
							c-0.1,0.2,0,0.5,0.1,0.7c0.2,0.4,0.7,0.7,1.2,0.9C124.8,215.8,125.7,215.6,125.9,214.9z"/>
					</g>
					<g id="XMLID_5_">
						<path class="st43" d="M137.1,221.2L137.1,221.2L137.1,221.2c-3.2-1.8-4.6-3-5-3.4c0.9,0.3,4.1,0.8,5.3,0.7
							c0.7-0.1,0.4-0.6,0.4-0.6c-9.8-2.6-10.2-5.4-11.3-8.2c-0.1-0.3-0.4-0.2-0.4-0.2c-0.1,0.5,0.2,2.6,0.2,2.9
							c0.9,5.1-2.6,6.1-3.2,6.5c0,0-0.1,0.3,0.4,0.3c0.6,0,2.7-0.8,4.1-1.9c1.9,1.5,7.3,3.8,9.1,4.3
							C137.4,221.8,137.1,221.2,137.1,221.2z"/>
					</g>
					<g id="XMLID_1_">
						<path class="st43" d="M115.2,232.9c2.4-2.1,4.7-6.6,5.5-8.6c5.8,3,12.8,5.3,16.5,5.7c1,0.1,0.5-0.6,0.5-0.6
							c-3.5-1.1-8.7-3.8-9.5-5.2c2,0.3,7.1,0.5,11-0.5c0.8-0.2,0.4-0.7,0.4-0.7c-16.1-1-19.5-4.3-23-7.8c-1.1-1.1-2.3-2.2-3.9-3.4
							c-0.7-0.5-0.7,0.4-0.7,0.4c5.5,5,9,10.9,2.5,20.7C114.4,232.9,114.7,233.3,115.2,232.9z"/>
					</g>
				</g>
				<g>
					<path class="st49" d="M261.2,176.3c46.8,0,84.9,38.1,84.9,84.9s-38.1,84.9-84.9,84.9s-84.9-38.1-84.9-84.9
						S214.4,176.3,261.2,176.3 M261.2,168.3c-51.3,0-92.9,41.6-92.9,92.9s41.6,92.9,92.9,92.9s92.9-41.6,92.9-92.9
						C354.2,209.9,312.6,168.3,261.2,168.3L261.2,168.3z"/>
				</g>
				<g>
					<g>
						<path class="st58" d="M261.2,168.7c51,0,92.6,41.5,92.6,92.6s-41.5,92.6-92.6,92.6s-92.6-41.5-92.6-92.6
							S210.2,168.7,261.2,168.7 M261.2,160.7c-55.5,0-100.6,45-100.6,100.6s45,100.6,100.6,100.6c55.5,0,100.6-45,100.6-100.6
							S316.8,160.7,261.2,160.7L261.2,160.7z"/>
					</g>
				</g>
				<g>
					<g>
						<path class="st59" d="M261.2,161.6c54.9,0,99.6,44.7,99.6,99.6s-44.7,99.6-99.6,99.6s-99.6-44.7-99.6-99.6
							S206.3,161.6,261.2,161.6 M261.2,153.6c-59.4,0-107.6,48.2-107.6,107.6s48.2,107.6,107.6,107.6s107.6-48.2,107.6-107.6
							S320.7,153.6,261.2,153.6L261.2,153.6z"/>
					</g>
				</g>
				<path class="st45" d="M354.3,165c0.4-3,0.8-5.9,1.2-8.9c0.8-6.1,1.7-12.7,2.5-18.9l-27.7,7.3c0,0,0.1,0.1,0.2,0.1
					c1.5,1.3,3,2.6,4.5,3.9c0.2,0.2,0.2,0.2,0.2,0.2l14.6-3.7c1.1-0.3,1.5,0.1,1.4,1.2c-0.5,4.5-1.3,10.4-1.9,14.9
					c0,0,0.5,0.4,1.3,1.1c0.2,0.2,0.5,0.4,0.8,0.7c1,0.9,2,1.7,3,2.6C354.2,165.4,354.2,165.2,354.3,165z M355,144.9
					c0,0-0.6-0.5-0.6-0.6l-0.2-0.2c0.1-0.3,0.2-1.3,0.2-1.7c0-0.7-0.4-1-1.1-0.9c-0.5,0.1-1.2,0.3-1.7,0.5c0,0-0.1-0.1-0.3-0.3
					c-0.4-0.4-0.8-0.7-1.4-1.2c2.3-0.6,4.5-1.1,6.7-1.7l-0.9,6.6C355.6,145.5,355,144.9,355,144.9z"/>
				<path class="st51" d="M439.1,262.9h37.1c0-0.6,0-1.1,0-1.7c0-0.3,0-0.5,0-0.8h-37.1c0,0.3,0,0.5,0,0.8
					C439.1,261.8,439.1,262.4,439.1,262.9z"/>
				<g>
					<path class="st44" d="M415.4,213.3h-10.1l-3.1-9.6l-3.1,9.6H389l8.2,6l-3.1,9.6l8.2-5.9l8.2,5.9l-3.1-9.6L415.4,213.3z
						 M408.7,226.8l-6.6-4.8l-6.6,4.8l2.5-7.8l-6.6-4.8h8.2l2.5-7.8l2.5,7.8h8.2l-6.6,4.8L408.7,226.8z"/>
					<polygon class="st44" points="393.5,214.8 398.8,218.7 396.8,225 402.1,221.2 407.5,225.1 405.4,218.7 410.8,214.8 
						410.8,214.8 404.2,214.8 402.1,208.5 400.1,214.8 					"/>
				</g>
			</g>
		</g>
	</g>
</g>
<polyline class="st40" points="1137.2,261.2 261.2,261.2 339.7,28 "/>
<g>
	<path class="st51" d="M500.7,204.7h-3.4v-3.3H517c2.3,0,3.2,0.9,3.2,3.2v3.7h-3.4v-2.5c0-0.8-0.4-1.2-1.2-1.2h-11.2v13.9h13.4v3.3
		h-13.4v16.6h-3.7L500.7,204.7L500.7,204.7z"/>
	<path class="st51" d="M546.9,200.8c10.5,0,18.8,8.3,18.8,18.9c0,10.8-8.4,19.4-18.8,19.4c-10.5,0-18.8-8.5-18.8-19.4
		C528.1,209.1,536.4,200.8,546.9,200.8z M546.9,235.6c8.3,0,15-6.9,15-15.9c0-8.7-6.7-15.4-15-15.4s-15,6.7-15,15.4
		C531.9,228.6,538.6,235.6,546.9,235.6z"/>
	<path class="st51" d="M575.2,235.2h2.3c0.7,0,1.2-0.4,1.2-1.2v-32.6h3.4l18.9,26.4c1.3,1.8,3,4.8,3,4.8h0.1c0,0-0.3-2.9-0.3-4.8
		v-23.2c0-2.3,0.9-3.2,3.2-3.2h3.9v3.3h-2.3c-0.7,0-1.2,0.4-1.2,1.2v32.6H604l-18.9-26.4c-1.3-1.8-3.1-4.8-3.1-4.8h0
		c0,0,0.3,2.8,0.3,4.8v23.2c0,2.3-0.9,3.2-3.2,3.2h-3.9L575.2,235.2L575.2,235.2z"/>
	<path class="st51" d="M632.8,204.7h-9.2c-0.7,0-1.2,0.3-1.2,1.2v2.5H619v-3.9c0-2.3,0.7-3,3-3h25.1c2.3,0,3,0.7,3,3v3.9h-3.4v-2.5
		c0-0.8-0.4-1.2-1.2-1.2h-9.1v33.7h-3.7v-33.7H632.8z"/>
	<path class="st51" d="M658.6,235.2h3.5v-30.5h-3.5v-3.3h10.6v3.3h-3.5v30.5h3.5v3.3h-10.6V235.2z"/>
	<path class="st51" d="M702.1,204.7h-3.4v-3.3h21.2c2.3,0,3.2,0.9,3.2,3.2v3.7h-3.5v-2.5c0-0.8-0.4-1.2-1.2-1.2h-12.6v13.5h13.9v3.3
		h-13.9V234c0,0.8,0.4,1.2,1.2,1.2h13c0.7,0,1.2-0.4,1.2-1.2v-2.5h3.4v3.7c0,2.3-0.9,3.2-3.2,3.2h-16c-2.3,0-3.2-0.9-3.2-3.2v-30.5
		H702.1z"/>
	<path class="st51" d="M764.2,204.7H755c-0.7,0-1.2,0.3-1.2,1.2v2.5h-3.4v-3.9c0-2.3,0.7-3,3-3h25.1c2.3,0,3,0.7,3,3v3.9h-3.4v-2.5
		c0-0.8-0.4-1.2-1.2-1.2h-9.1v33.7h-3.7v-33.7H764.2z"/>
	<path class="st51" d="M793.2,204.7h-3.4v-3.3H811c2.3,0,3.2,0.9,3.2,3.2v3.7h-3.5v-2.5c0-0.8-0.4-1.2-1.2-1.2h-12.6v13.5h13.9v3.3
		h-13.9V234c0,0.8,0.4,1.2,1.2,1.2h13c0.7,0,1.2-0.4,1.2-1.2v-2.5h3.4v3.7c0,2.3-0.9,3.2-3.2,3.2h-16c-2.3,0-3.2-0.9-3.2-3.2v-30.5
		H793.2z"/>
	<path class="st51" d="M827.9,204.7h-3.4v-3.3h15.7c6.2,0,10.6,4.1,10.6,10.5c0,5.7-3.5,9.1-7.2,9.9v0.1c0,0,0.7,0.4,1.3,1.5
		l5.3,10.5c0.5,1.1,1.3,1.2,2.6,1.2h0.7v3.3H852c-3,0-3.9-0.4-5.1-2.8l-5.3-10.6c-1-1.9-1.7-2.2-3.7-2.2h-6.2v15.6H828L827.9,204.7
		L827.9,204.7z M839.8,219.6c4.4,0,7.2-2.9,7.2-7.5s-2.7-7.4-7.1-7.4h-8.3v14.9H839.8z"/>
	<path class="st51" d="M865,204.7h-3.4v-3.3h15.7c6.2,0,10.6,4.1,10.6,10.5c0,5.7-3.5,9.1-7.2,9.9v0.1c0,0,0.7,0.4,1.3,1.5l5.3,10.5
		c0.5,1.1,1.3,1.2,2.6,1.2h0.7v3.3H889c-3,0-3.9-0.4-5.1-2.8l-5.3-10.6c-1-1.9-1.7-2.2-3.7-2.2h-6.2v15.6H865V204.7z M876.9,219.6
		c4.4,0,7.2-2.9,7.2-7.5s-2.7-7.4-7.1-7.4h-8.3v14.9H876.9z"/>
	<path class="st51" d="M898.9,235.2h3.5v-30.5h-3.5v-3.3h10.6v3.3H906v30.5h3.5v3.3h-10.6V235.2z"/>
	<path class="st51" d="M931.7,204.7h-9.2c-0.7,0-1.2,0.3-1.2,1.2v2.5h-3.4v-3.9c0-2.3,0.7-3,3-3H946c2.3,0,3,0.7,3,3v3.9h-3.4v-2.5
		c0-0.8-0.4-1.2-1.2-1.2h-9.1v33.7h-3.7L931.7,204.7L931.7,204.7z"/>
	<path class="st51" d="M975,200.8c10.5,0,18.8,8.3,18.8,18.9c0,10.8-8.4,19.4-18.8,19.4c-10.5,0-18.8-8.5-18.8-19.4
		C956.1,209.1,964.4,200.8,975,200.8z M975,235.6c8.3,0,15-6.9,15-15.9c0-8.7-6.7-15.4-15-15.4s-15,6.7-15,15.4
		C960,228.6,966.7,235.6,975,235.6z"/>
	<path class="st51" d="M1006.7,204.7h-3.4v-3.3h15.7c6.2,0,10.6,4.1,10.6,10.5c0,5.7-3.5,9.1-7.2,9.9v0.1c0,0,0.7,0.4,1.3,1.5
		l5.3,10.5c0.5,1.1,1.3,1.2,2.6,1.2h0.7v3.3h-1.6c-3,0-3.9-0.4-5.1-2.8l-5.3-10.6c-1-1.9-1.7-2.2-3.7-2.2h-6.2v15.6h-3.7
		L1006.7,204.7L1006.7,204.7z M1018.6,219.6c4.4,0,7.2-2.9,7.2-7.5s-2.7-7.4-7.1-7.4h-8.3v14.9H1018.6z"/>
	<path class="st51" d="M1040.6,235.2h3.5v-30.5h-3.5v-3.3h10.6v3.3h-3.5v30.5h3.5v3.3h-10.6V235.2z"/>
	<path class="st51" d="M1079.7,200.8c10.5,0,18.8,8.3,18.8,18.9c0,10.8-8.4,19.4-18.8,19.4c-10.5,0-18.8-8.5-18.8-19.4
		C1060.9,209.1,1069.2,200.8,1079.7,200.8z M1079.7,235.6c8.3,0,15-6.9,15-15.9c0-8.7-6.7-15.4-15-15.4s-15,6.7-15,15.4
		C1064.7,228.6,1071.4,235.6,1079.7,235.6z"/>
</g>
</svg>
