<svg enable-background="new 0 0 1178 514" viewBox="0 0 1178 514" xmlns="http://www.w3.org/2000/svg" xmlns:xlink="http://www.w3.org/1999/xlink"><clipPath id="a"><path d="m339.8 28-78.6 233.2h273s-81.8-238.4-194.4-233.2z"/></clipPath><clipPath id="b"><path d="m339.8 28-78.6 233.2h273s-81.8-238.4-194.4-233.2z"/></clipPath><path d="m1155.2 255.1h-10.8l-3.4-10.1-3.4 10.1h-11.6l9.1 6.2-3.5 10.1 9.4-6.3 8.7 6.3-3.5-10.1zm-7.7 13.5-6.6-4.8-7.3 4.8 2.7-7.7-7-4.8h9l2.6-7.8 2.6 7.8h8.2l-7 4.8zm2.6-11.9h-6.9l-2.2-6.6-2.2 6.6h-7.7l5.9 4-2.3 6.6 6.2-4.1 5.6 4.1-2.3-6.6z" fill="#df0514"/><g opacity=".1"><path d="m456.6 382-.9 1.4" fill="none" stroke="#404040" stroke-miterlimit="10" stroke-width="1.2795"/><path d="m453.9 386.2c-57.4 88.2-170.2 127.9-272.7 89.3-118.4-44.6-178.3-176.8-133.7-295.2 39.9-106.1 150.1-165.2 257.7-144.3" fill="none" stroke="#404040" stroke-dasharray="3.3312 3.3312" stroke-miterlimit="10" stroke-width="1.2795"/><path d="m306.8 36.3 1.6.3" fill="none" stroke="#404040" stroke-miterlimit="10" stroke-width="1.2795"/><circle cx="456.6" cy="382" fill="#404040" r="7"/><path d="m310.6 37-.8-8 11.3 9.8-13.8 5.5z" fill="#404040"/><path d="m261.3 52c114.7 0 208.1 92.4 209.2 207.3 1.1 115.6-91.7 210.1-207.3 211.2h-2c-114.7 0-208.1-92.4-209.2-207.3-1.1-115.6 91.7-210.1 207.3-211.2zm0-.8h-2c-28.4.3-55.8 6.1-81.6 17.3-24.9 10.8-47.2 26.2-66.4 45.7s-34 42.1-44.4 67.2c-10.7 26-16 53.6-15.7 81.9.3 28.2 6 55.5 17.1 81.2 10.7 24.8 25.9 47 45.2 66.1s41.7 34.1 66.6 44.5c25.8 10.8 53.1 16.3 81.2 16.3h2c28.4-.3 55.8-6.1 81.6-17.3 24.9-10.8 47.2-26.2 66.4-45.7 19.1-19.5 34-42.1 44.4-67.2 10.7-26 16-53.6 15.7-81.9-.3-28.2-6-55.5-17.1-81.2-10.7-24.8-25.9-47-45.2-66.1s-41.7-34.1-66.6-44.5c-25.8-10.9-53.1-16.3-81.2-16.3z"/><path d="m165.5 230.4 208.2 67.1m-102.5-150.4-20.2 231.4m-50.1-197.7 131.2 175m-2.9-191-128.8 197m144.8-182.4-168.3 164m71-180.9 29 214.8" fill="none" stroke="#000" stroke-miterlimit="10" stroke-width=".853"/><path d="m367 209.3-211.8 104m222.2-70.1-230 35.8" fill="none" stroke="#000" stroke-miterlimit="10" stroke-width=".9789"/><path d="m271.7 143 1.7.2" fill="none" stroke="#000" stroke-miterlimit="10" stroke-width="1.2795"/><path d="m276.7 143.6c52.7 7.2 95.7 49.5 101.4 104.8 6.7 64.8-40.4 122.8-105.2 129.4-57.5 5.9-109.6-30.5-125.3-84" fill="none" stroke="#000" stroke-dasharray="3.3404 3.3404" stroke-miterlimit="10" stroke-width="1.2795"/><path d="m147.1 292.2-.4-1.6" fill="none" stroke="#000" stroke-miterlimit="10" stroke-width="1.2795"/><circle cx="271.7" cy="143" r="6.1"/><path d="m146.4 289.6-5.7 3.6 3.1-12.1 9.3 8.4zm114.8-113.3c22.5 0 43.7 8.7 59.7 24.6s25 37 25.2 59.6c.4 46.8-37.3 85.3-84.1 85.7h-.8c-22.5 0-43.7-8.7-59.7-24.6s-25-37-25.2-59.6c-.4-46.8 37.3-85.3 84.1-85.7zm0-8h-.9c-51.3.5-92.5 42.5-92.1 93.8.5 51 42 92.1 92.9 92.1h.9c51.3-.5 92.5-42.5 92.1-93.8-.4-51.1-41.9-92.1-92.9-92.1z"/><path d="m261.2 168.7c24.5 0 47.7 9.5 65.1 26.8 17.5 17.3 27.2 40.3 27.4 64.9.5 51-40.7 93-91.7 93.4h-.9c-24.5 0-47.7-9.5-65.1-26.8-17.5-17.3-27.2-40.3-27.4-64.9-.2-24.7 9.2-48.1 26.5-65.7s40.5-27.5 65.2-27.7zm0-8h-1c-55.5.5-100.1 46-99.6 101.5.5 55.2 45.4 99.6 100.5 99.6h1c55.5-.5 100.1-46 99.6-101.5-.4-55.2-45.4-99.6-100.5-99.6z" fill="#868686"/><path d="m261.2 161.6c26.4 0 51.3 10.2 70.1 28.8s29.3 43.4 29.5 69.8c.3 26.6-9.9 51.7-28.5 70.7s-43.6 29.6-70.2 29.8h-1c-26.4 0-51.3-10.2-70.1-28.8s-29.3-43.4-29.5-69.8c-.5-54.9 43.7-100 98.7-100.5zm0-8h-1c-59.4.6-107.1 49.2-106.6 108.6.6 59.1 48.6 106.6 107.6 106.6h1c59.4-.6 107.1-49.2 106.6-108.6-.5-59.1-48.6-106.6-107.6-106.6z" fill="#9e9e9e"/><path d="m122.8 362.3c-14.1-19.4-24.1-41.5-29.2-65-6.2-28.8-5.1-59.5 4.7-89.5 5.9-18.1 14.6-34.5 25.4-49" fill="none" stroke="#cecece" stroke-miterlimit="10"/><path d="m315.8 423.7c-33.8 11.4-71.5 12.4-108 .4-35.5-11.6-64.6-33.7-85-61.8" fill="none" stroke="#a2a2a2" stroke-miterlimit="10"/><path d="m432.6 261.7c-.1 17.6-2.8 35.4-8.6 53-17.5 53.4-58.8 92.4-108.2 109" fill="none" stroke="#dbdbdb" stroke-miterlimit="10"/><path d="m399.6 160.2c21.2 29.1 33.1 64.7 33 101.5m-118.8-163.6.8.3c35.5 11.6 64.6 33.7 85 61.8" fill="none" stroke="#d2d2d2" stroke-miterlimit="10"/><path d="m123.8 158.8c42.7-57.2 118.5-83.7 190.1-60.6" fill="none" stroke="#cdcdcd" stroke-miterlimit="10"/><path d="m88.8 132.7 230.1 171.3m-231.5 84.2 347.6-253.9m-241 331.4 72.5-220.5" fill="none" stroke="#000" stroke-miterlimit="10" stroke-width=".853"/><path d="m77.4 260.8 290.8 1.2" fill="none" stroke="#000" stroke-miterlimit="10" stroke-width=".738"/><path d="m194.1 211.5 216.6 160.5m-206.7-281.3 114.5 341.1" fill="none" stroke="#000" stroke-miterlimit="10" stroke-width=".853"/><g fill="#666"><path d="m117.4 213c1.5-1.6 3.9-3.3 4-5.5.1-3.1-2.6-7.1-2.8-8.4 0 0 .3-.6.6.1 2.3 5 7.4 7.3 11 6.7 0 0 .6 1.3.7 1.7.9 1 6.6 2.2 8.4 2.3 0 0 .5.5-.1.5-3.3.2-6.3-.2-7.6-.5-.5-.1-.6.1-.2.4 1.4 1.1 3.5 2.2 7.3 3.7 0 0 .4.6-.3.5-3.9-.7-15.2-5.5-15.4-5.3-1.8 1.8-4.2 3.5-5.5 3.9 0 .2-.1-.1-.1-.1z"/><path d="m115.2 222.4c.2-.3.3-.7.2-1-.1-.5-.5-1.1-1.1-1.4-.6-.4-1.2-.5-1.7-.4-.4.1-.7.3-.9.6s-.3.7-.2 1c.1.5.5 1.1 1.1 1.4.6.4 1.2.5 1.7.4.4-.1.7-.3.9-.6z"/><path d="m119.2 205.6c-.6 0-1.1.1-1.5.5-.3.2-.4.5-.4.8s.1.6.3.9c.3.4.9.6 1.5.6 1 .1 1.9-.5 1.9-1.3 0-.7-.8-1.4-1.8-1.5z"/><path d="m124 215.5c.1-.2 0-.5-.1-.7-.2-.4-.7-.7-1.2-.9-.9-.3-1.8 0-2 .6-.1.2 0 .5.1.7.2.4.7.7 1.2.9.9.3 1.8 0 2-.6z"/><path d="m135.3 221.4c-3.3-1.7-4.7-2.8-5.1-3.2.9.2 4.1.6 5.3.5.7-.1.4-.6.4-.6-9.9-2.2-10.4-5-11.5-7.8-.1-.3-.4-.2-.4-.2-.1.5.3 2.6.3 2.9 1.1 5-2.4 6.2-3 6.6 0 0-.1.3.4.3.6-.1 2.6-.8 4-2 1.9 1.4 7.4 3.5 9.3 4 .6.1.3-.5.3-.5z"/><path d="m113.8 233.8c2.3-2.1 4.5-6.7 5.2-8.8 5.9 2.8 13 4.9 16.6 5.2 1 .1.5-.7.5-.7-3.6-1-8.9-3.5-9.7-4.9 2 .2 7.2.3 10.9-.8.8-.2.4-.7.4-.7-16.1-.4-19.6-3.7-23.2-7.1-1.2-1.1-2.3-2.2-4-3.3-.8-.5-.7.4-.7.4 5.7 4.8 9.3 10.6 3.2 20.6.1.1.3.6.8.1z"/><path d="m351.8 385.9c-2.2.3-5.1.3-6.5 2-1.9 2.4-2.1 7.2-2.8 8.4 0 0-.6.3-.4-.4 1.1-5.4-1.6-10.3-4.9-11.9 0 0 .3-1.4.4-1.8-.1-1.4-4-5.7-5.4-6.9 0 0-.1-.7.4-.4 2.8 1.8 5 3.9 5.9 4.9.3.4.5.3.4-.3-.4-1.7-1.5-3.9-3.7-7.4 0 0 0-.7.5-.2 2.8 2.9 9 13.4 9.3 13.4 2.6-.4 5.5-.3 6.7.1.2.1.1.5.1.5z"/><path d="m359.2 379.5c-.3.1-.6.4-.8.7-.2.5-.2 1.2 0 1.8s.7 1.1 1.2 1.3c.4.2.7.2 1.1.1.3-.1.6-.4.8-.7.2-.5.2-1.2 0-1.8s-.7-1.1-1.2-1.3c-.4-.2-.8-.2-1.1-.1z"/><path d="m346.1 390.7c.4.4 1 .6 1.5.5.4 0 .6-.2.8-.4s.3-.6.2-.9c-.1-.5-.3-1-.8-1.4-.8-.7-1.8-.7-2.3-.1-.5.7-.2 1.7.6 2.3z"/><path d="m348.1 379.9c-.2.1-.3.4-.3.6-.1.4.1 1 .5 1.4.6.7 1.5 1 2 .6.2-.1.3-.4.3-.6.1-.4-.1-1-.5-1.4-.6-.7-1.5-1-2-.6z"/><path d="m342.4 368.5c1.6 3.3 2.1 5.1 2.2 5.6-.6-.7-3-3-3.9-3.5-.6-.4-.7.2-.7.2 6.6 7.6 5.4 10.2 4.6 13.1-.1.4.2.4.2.4.4-.3 1.3-2.3 1.4-2.5 2.1-4.7 5.6-3.5 6.3-3.6 0 0 .2-.2-.1-.4-.6-.3-2.6-.9-4.5-.8-.7-2.3-3.9-7.2-5.1-8.7-.3-.5-.4.2-.4.2z"/><path d="m367.1 371.2c-3.1.4-7.6 2.8-9.4 4-3.1-5.8-7.5-11.7-10.3-14-.7-.6-.8.2-.8.2 2.3 2.9 5.1 8.1 4.9 9.7-1.5-1.4-5.6-4.5-9.3-5.8-.8-.3-.7.3-.7.3 12.7 9.9 13.6 14.6 14.5 19.5.3 1.6.6 3.1 1.3 5 .3.9.8.1.8.1-1.7-7.3-1.2-14.1 9.7-18.5-.1 0-.1-.6-.7-.5z"/></g><path d="m349.6 128.4-3.1 9.6h-10.1l8.2 6-3.1 9.6 8.2-5.9 8.2 6-3.1-9.6 8.2-5.9h-10.1zm10.7 10.5-6.6 4.8 2.5 7.8-6.6-4.8-6.6 4.8 2.6-7.8-6.6-4.8h8.2l2.5-7.8 2.5 7.8zm-16.1 10.8 5.3-3.9 5.4 4-2-6.4 5.3-3.8-6.6-.1-2-6.2h-.1l-2 6.2h-6.7l5.4 3.9zm-83.5 238.7-3.1 9.6h-10.1l8.2 6-3.1 9.6 8.2-5.9 8.2 6-3.1-9.6 8.2-5.9h-10.1zm10.7 10.4-6.6 4.8 2.5 7.8-6.6-4.8-6.6 4.8 2.6-7.8-6.6-4.8h8.2l2.5-7.8 2.5 7.8zm-16.1 10.8 5.4-3.8 5.4 3.9-2.1-6.3 5.4-3.9h-6.6l-2.1-6.3-2 6.2h-6.7l5.4 3.9z" fill="#4f4f4f"/><path d="m131.5 287.9-5.4 7.2c-3.7 4.9-7.7 10.3-11.5 15.2l27.7 7.3-.1-.2c-.6-1.9-1.3-3.8-2-5.6l-.1-.3-14.5-4c-1-.3-1.2-.8-.6-1.7l9-12s-.2-.6-.5-1.6c-.1-.3-.2-.6-.3-1-.4-1.2-.9-2.5-1.3-3.8-.2.2-.3.4-.4.5zm-10.5 17.2.3.8.1.3c-.2.2-.8 1.1-1 1.4-.4.6-.2 1.1.5 1.3.4.1 1.2.3 1.7.4 0 0 0 .1.1.4.2.5.4 1.1.6 1.7l-6.7-1.8 4.1-5.3c0-.1.3.8.3.8zm263.3 12.1 8.7-2.5 18.3-5.2-17.8-22.5s0 .2-.1.2l-1.8 5.7-.1.3 9.2 11.9c.7.9.5 1.4-.5 1.7l-14.4 4.2s-.2.6-.5 1.6c-.1.3-.2.6-.3 1-.4 1.2-.8 2.5-1.2 3.8zm18.8-7.4.3-.8.1-.3 1.6-.5c.7-.3.8-.8.4-1.3l-1.1-1.4s0-.1.1-.4c.2-.5.3-1.1.6-1.7l4.2 5.5-6.5 1.8z" fill="#7b7b7b"/><path clip-rule="evenodd" d="m410.9 211.8c-.4 1-.9 2-1.8 2.7-.2.2-.2.4-.1.6.5.9.7 1.8.7 2.9-1.3-1.6-2.9-2.8-4.8-3.7 2.2-.5 4.2-1.4 6-2.5zm-3 10.1c1.2-.7 1.7-2.2 1.1-3.5-.4-.9-1-1.7-1.9-2.3-1.9-1.3-3.9-1.7-6.2-1.5-1.1.1-2.1.4-3.1.8-.3.1-.3.1-.5-.2v-.1c.2-.1.4-.2.6-.2.9-.4 1.8-.7 2.7-.9l3.5-.5c1.1-.1 2.2-.4 3.2-.8s2-.9 2.9-1.6c1.5-1.1 2.6-2.5 3.4-4.1l.3-.7c-1-.3-2.1-.4-3.2-.4-1.3 0-2.7.3-3.9.8-.9.4-1.7.8-2.5 1.4-.9.6-1.6 1.3-2.3 2.1-1.1 1.3-2.3 2.5-3.7 3.4l-1.3.8c-.1-.2-.2-.3-.3-.4.1-.1.1-.1.2-.1.5-.3.9-.6 1.4-1 1.9-1.5 3.1-3.5 3.5-5.9.2-1.3.1-2.6-.6-3.9-.3-.4-.6-.8-1-1-1.1-.7-2.6-.4-3.6.6-.8.8-1.2 1.8-1.3 2.9l-.5 2.8c-.1.7-.4 1.5-.8 2.1v.1l1.5-.1c0-.3 0-.6.1-.9.1-.6.2-1.1.5-1.5.7-.9 1.9-.8 2.5.1.3.5.4 1.1.3 1.7-.2 1.1-.7 2-1.6 2.7-.3.3-.7.5-1 .7-.3-.3-.5-.6-.7-.8-.4-.4-.4-.4-.9-.2l-.1.2.1.6.2.8c-.5.1-.9.1-1.4-.1-.7-.2-1.2-.7-1.5-1.4l-.1-.7c-.3 0-.7.2-1 .4-.6.5-.8 1.3-.3 2 .4.6 1 .9 1.6 1 .9.1 1.7 0 2.6-.3.3-.1.3-.1.5.2.1.1 0 .2-.1.2l-2.2.6c-.5.1-1.1.3-1.5.6-.8.5-1.3 1.2-1.7 2 .8-.4 4.4-2.3 4.4-2.3s-.7-.2-1.6.1-1.4.7-1.6.9l-.1.1.1-.1c.2-.2.9-.8 1.6-1 1-.3 1.9-.1 1.9-.1s-.5 1.3-1.9 1.9c-.7.3-1.9.3-2.7.5v.1c0 .1 0 .1-.1.2.4 0 .8.1 1.1.1.9 0 1.7-.1 2.4-.6.4-.3.8-.6 1.2-1 .5-.4.9-.8 1.5-1.1.1.1.2.3.2.4-.1.1-.2.2-.4.3-.7.6-1.3 1.2-1.7 2-.3.7-.4 1.4 0 2s1.1.9 1.8.6c.3-.1.6-.2.8-.5-1.2-.6-1.2-2.6 0-3.5l.6.7c.4.4.4.4.9.2.1-.1.2-.1.1-.3l-.3-1.2c0-.1 0-.2.1-.2.8-.3 1.7-.5 2.6-.5.9.1 1.8.4 2.4 1.1.4.5.6 1 .4 1.6-.2.8-1 1.2-1.9 1.1-.5-.1-.9-.3-1.2-.5-.2-.1-.5-.3-.7-.5-.2.4-.5.8-.8 1l-.1.1.2.1c.5 0 1 .1 1.4.3 1 .4 1.9.9 2.9 1.4.6.3 1.2.6 1.9.7.8 0 1.8 0 2.7-.6zm-10.2-15.1c-1.5-.5-2.4.9-2.4.9s.3-1.7 1.5-2.8c.3-.3.9-.6 1.6-.5 1 .3 1.2 1.1 1.3 1.7.6 2.8-1 5.2-1 5.2 1-3 .1-4.2-1-4.5zm3 1.5c1.4-3.9-.5-5.6-1.3-5.9-1.9-.7-3.4 1.7-3.4 1.7s.5-1.1 1.6-1.8c.2-.1 1-.5 1.7-.3 1 .3 1.7 1.2 1.9 2 1.3 4.3-2.4 7.4-2.4 7.4.8-1.2 1.5-2.2 1.9-3.1zm-9.4 5.1c-.4-.5 0-1.3 0-1.3.3 2.1 2.6 2 2.6 2s-1.7.3-2.6-.7zm21.4-6.7s-2.3-.4-5 .5c-3 1-4.6 2.2-5.2 2.8l-.3.3.3-.3c.8-.7 3-2.5 5-3.2 3-1.1 5.9-.3 5.9-.3s-1.6 3.9-6.2 5.9c-2.2 1-6.4 1-8.8 1.8-.1-.1 14.3-7.5 14.3-7.5zm-17.1 13.9s-.9-.2-1.1-.8c-.3-1.3 1-2.5 1-2.5s-1.4 1.8.1 3.3zm9.2 0c-1.7.3-3.1-.5-3.1-.5s1.6 0 2.1-1.4c.4-1 0-2.5-3-3.5 0 0 2.9.2 4.8 2.3.4.4.9 1.1.5 2.1-.2.7-.9 1-1.3 1zm2.5.9c-1.2.5-2.4.3-2.4.3s2.8.3 3.4-1.7c.2-.8 0-3.5-4-4.6-1-.3-2.2-.3-3.6-.3 0 0 4.7-1.2 7.4 2.4.5.6.8 1.7.4 2.7-.2.7-1 1.1-1.2 1.2z" fill="#777" fill-rule="evenodd"/><path d="m205.8 430.3c-36.9-12.1-67.2-35.2-88.4-64.4l-29.9 21.9c25.6 35.2 62.2 63 106.7 77.6 45.7 15 92.8 13.8 135.2-.4l-11.8-35c-35.1 11.7-74 12.7-111.8.3z" fill="#a2a2a2"/><path d="m315.9 92 11.6-35.2c-89.9-29.1-185.1 4.1-238.6 75.9l29.7 22.2c44.3-59.4 123-86.9 197.3-62.9z" fill="#cdcdcd"/><path d="m430.3 316.7c-18.3 55.6-61.3 96.1-112.7 113.3l11.8 35.1c62.2-20.8 114.1-69.8 136.1-136.9 7.3-22.2 10.7-44.7 10.8-66.8l-37.1-.1c-.1 18.4-2.9 37-8.9 55.4z" fill="#dbdbdb"/><path d="m92.2 205.8c6.2-18.8 15.2-35.9 26.4-50.9l-29.7-22.2c-13.5 18.2-24.4 38.8-31.9 61.5-22.4 68.3-8.7 139.7 30.5 193.6l29.9-21.9c-32.4-44.6-43.7-103.7-25.2-160.1z" fill="#cecece"/><path d="m327.5 56.8-11.6 35.2c.2.1.5.2.7.2 75 24.6 122.5 94.3 122.5 169.1l37.1.1c.1-90.5-57.4-174.7-148-204.5l-.7-.1z" fill="#d2d2d2"/><path d="m170.4 380.6c-.9-2-1.8-4.8-3.8-5.7-2.8-1.2-7.5.1-8.9-.3 0 0-.4-.5.3-.5 5.5-.5 9.4-4.5 10.1-8.1 0 0 1.4-.1 1.9-.1 1.3-.5 4.4-5.5 5.1-7.1 0 0 .6-.3.5.2-.9 3.2-2.4 5.9-3.1 7-.3.4-.1.6.3.3 1.5-.9 3.3-2.5 6-5.6 0 0 .7-.2.4.4-2 3.5-10.4 12.4-10.2 12.7 1.1 2.4 1.8 5.2 1.8 6.5 0 .4-.4.3-.4.3z" fill="#666"/><path d="m178.6 386c-.2-.3-.5-.5-.9-.5-.6-.1-1.2.1-1.7.5s-.9.9-1 1.5c-.1.4 0 .8.2 1 .2.3.5.5.9.5.6.1 1.2-.1 1.7-.5s.9-.9 1-1.5c0-.4 0-.8-.2-1z" fill="#666"/><path d="m164.1 376.5c-.2.5-.3 1.1-.1 1.6.1.3.4.6.6.7.3.1.6.1.9 0 .5-.2.9-.6 1.1-1.1.4-.9.2-2-.6-2.3-.6-.4-1.5.1-1.9 1.1z" fill="#666"/><path d="m175 375.4c-.2-.1-.4-.2-.7-.1-.4.1-.9.4-1.2.8-.6.8-.6 1.7-.1 2.1.2.1.4.2.7.1.4-.1.9-.4 1.2-.8.6-.8.7-1.7.1-2.1z" fill="#666"/><path d="m184.4 366.7c-2.7 2.5-4.3 3.4-4.8 3.7.5-.7 2-3.7 2.3-4.8.2-.7-.4-.6-.4-.6-5.5 8.5-8.3 8-11.3 8.1-.4 0-.3.3-.3.3.4.3 2.5.6 2.8.7 5.1.7 5 4.4 5.2 5.1 0 0 .3.2.4-.3.2-.6.1-2.8-.5-4.5 2-1.4 5.9-5.7 6.9-7.3.4-.5-.3-.4-.3-.4z" fill="#666"/><path d="m188.8 391.2c-1.2-2.9-4.8-6.5-6.5-7.9 4.7-4.6 9.1-10.5 10.6-13.9.4-.9-.4-.7-.4-.7-2.1 3-6.3 7.1-7.9 7.4.9-1.8 2.7-6.6 3-10.6.1-.8-.5-.6-.5-.6-5.9 15-10.2 17.2-14.6 19.4-1.4.7-2.8 1.5-4.4 2.6-.7.5.2.8.2.8 6.5-3.7 13.1-5.1 20.5 4.1-.3.1.2 0 0-.6z" fill="#666"/><path d="m198.8 142.9-8.1-3.9c-5.6-2.7-11.6-5.6-17.1-8.3l-1.7 28.6s.1-.1.2-.1l5.1-3 .3-.2 1.1-15c.1-1.1.6-1.4 1.5-.9 4.1 1.9 9.5 4.5 13.6 6.5 0 0 .6-.4 1.4-.8l.9-.5c1.1-.7 2.2-1.3 3.4-2-.3-.3-.4-.4-.6-.4zm-18.9-7-.7.4-.3.2c-.3-.1-1.2-.6-1.6-.7-.7-.2-1.1 0-1.2.8 0 .5-.1 1.3-.1 1.7 0 0-.1.1-.3.2-.5.3-1 .6-1.6.9.2-2.4.3-4.6.5-6.9l6 2.9c.1 0-.7.5-.7.5z" fill="#7b7b7b"/><circle cx="261.2" cy="261.2" fill="#fff" r="86.2"/><path d="m321.9 200.9-122 119.7m121.5 1.1-119.7-122m106.4-10.4-94.1 142.8m118.9-24.5-142.7-94m155.2 29.7-168.3 34.2m101.2 67-34-167.4m102.8 82.1-171.7.7m85.3 86.4 1.1-170.8m58 46.1-117.2 77.6m97.4 19.8-77.6-117.2m107.8 72.2-138-27.2m55.4 82.6 27.2-138m51 96.7-129.2-55.4m36.9 92.3 55.4-129.2m37.6 38.5-130.5 52.2m91.4 39.1-52.3-130.5" fill="none" stroke="#ededed" stroke-miterlimit="10" stroke-width=".853"/><path d="m261.8 191.5 18.4 52.6 56.2-.5-46.9 32.8 18.6 52.4-45.6-32.3-48.6 33.2 17.9-52.7-47.8-32 60.4-.5z" fill="#ebebeb"/><path d="m262 209.2 14 40.4 42.8-.4-36.1 25.1 14.3 40.3-34.6-24.8-37.7 25.4 13.6-40.5-36.5-24.4 46.8-.5z" fill="#fff"/><path d="m262 218 12 34.3 36-.3-30.7 21.3 12.2 34.3-29.1-21.1-32.3 21.6 11.5-34.4-31-20.7 40.1-.5z" fill="#ebebeb"/><path d="m250.4 290.9c0-1.4-1.2-2.5-2.6-2.5l-5.6.1.1 8.7h1.2v-3.5h3.3l2.4 3.5h1.4l-2.4-3.6c1.5-.5 2.2-1.3 2.2-2.7zm-1.6 1.1c-.2.2-.5.4-.9.4h-4.4v-2.8h4.5c1 0 1.2.8 1.2 1.4 0 .3-.2.7-.4 1zm10.5 2c0 1.2-1.4 1.9-2.8 1.9-1.3 0-2.7-.6-2.7-1.8l-.1-5.8h-1.2l.1 5.9c0 .7.3 1.4.8 1.9.7.7 1.7 1 3 1h.1c2.7-.1 4-1 4-3l-.1-5.9h-1.2zm9.7-5.8-5.6.1.1 8.7h1.2v-3.6h4.3c1.2 0 2.2-1.1 2.2-2.4 0-.7-.3-1.5-.9-2-.4-.6-.9-.8-1.3-.8zm.9 2.6c0 .4-.1.8-.4 1-.1.1-.3.2-.4.2h-4.4v-2.8h4.3c.4.1.9.9.9 1.6zm8.9-2.7-5.6.1.1 8.7h1.2v-3.6h4.3c1.2 0 2.2-1.1 2.2-2.4 0-.7-.3-1.5-.9-2-.4-.6-.8-.8-1.3-.8zm.9 2.6c0 .4-.1.8-.4 1-.1.1-.3.2-.4.2h-4.4v-2.8h4.3c.4.1.9.9.9 1.6zm7.4 6.1c1.5 0 2.8-.6 3.7-1.5.8-.8 1.2-1.9 1.2-3 0-3.1-2.6-4.4-5-4.4-1.4 0-2.7.6-3.6 1.5-.8.8-1.2 1.9-1.2 3 0 2.3 2.3 4.4 4.9 4.4zm-3.7-4.5c0-1.8 1.9-3.3 3.6-3.3h.1c1 0 2.1.4 2.8 1.1.6.6.9 1.3.9 2.1s-.3 1.6-.9 2.2c-.7.7-1.7 1.1-2.8 1.1-2 .2-3.6-1.3-3.7-3.2zm-47.5 1.3h3v1.5c-.2.2-1.2 1-2.9 1-2.3 0-3.7-1.2-3.8-3.3 0-1.9 1.4-3.2 3.6-3.2h.1c1.7 0 3.1 1 3.1 1l.1.1.8-.9-.2-.1c-1.4-.9-2.6-1.4-3.9-1.4-1.4 0-2.7.5-3.7 1.5-.8.8-1.3 1.9-1.2 3 0 2.8 2 4.5 5 4.5 2.7 0 4-1.7 4.1-1.7v-3h-4.2z"/><path d="m261.5 209.7 6.9 19.7 21.2-.2-17.7 12.3 7 19.7-17.1-12.1-18.3 12.5 6.8-19.8-18-12.1 22.7-.2z" fill="#4f4f4f"/><path d="m261.6 216.3 5.3 15.2 16-.2-13.5 9.5 5.4 15.1-13-9.3-14.2 9.5 5.1-15.2-13.7-9.2 17.6-.1z" fill="#fff"/><path d="m261.6 219.6 4.5 12.9 13.5-.1-11.5 8 4.6 12.8-11-7.9-12.1 8.2 4.4-13-11.7-7.8 15-.1z" fill="#4f4f4f"/><path d="m192.1 274c0-.5.3-1.2 1.9-1.2 1.5 0 2.8.7 2.8.7l-.3-3.1c-.2.2-.5.3-.7.2-.5-.1-1.3-.2-2.2-.2-3.3 0-4.8 2-4.8 3.8 0 3.5 5.4 3.7 5.4 6.2 0 .9-.9 1.4-1.9 1.5-2.2 0-3.7-1-3.7-1l.4 3.1c.3-.1.5-.1.8-.1.7.2 1.8.4 2.9.4 3.2 0 4.8-1.8 4.8-3.9 0-4.5-5.4-4.3-5.4-6.4zm111.9-3.2.1 12.1h3l-.1-13.4h-3.6c0 .1.5.4.6 1.3zm-2.7 3.3c0-2.4-2-4.4-4.4-4.4l-6.4.1s.5.4.5.9l.1 12.4h2.9v-4.6h1.8l2.7 4.5h3.3l-2.9-5c1.5-.7 2.5-2.2 2.4-3.9zm-7.3-1.5h2.7c.8 0 1.5.7 1.5 1.5s-.7 1.5-1.5 1.5h-2.7zm-7.8 3.8v2.2s-1.1 1.9-2.9 1.9c-1.4 0-3.5-1.3-3.5-3.8s1.8-4 3.4-4l2.6 1.1 1.3-2.7s-1.5-1.6-4.1-1.5c-3.4 0-6.2 2.8-6.2 7s3.2 6.9 6.3 6.9 4.1-1.9 5.8-3.6v-4.1h-3.3c.1 0 .6.3.6.6zm41.7-7.3c-3.5 0-6.3 3.2-6.2 7 0 3.8 2.9 6.9 6.3 6.9 3.5 0 6.3-3.2 6.2-7 0-3.8-2.9-6.9-6.3-6.9zm.1 10.8c-1.7 0-3-1.6-3-3.8s1.3-3.8 3-3.8 3 1.6 3 3.8c0 2.1-1.4 3.7-3 3.8zm-11-3.3-4-7h-3.9s.5.3.6 1.2l.1 12.1h2.8l-.1-8.3 4.6 8.3h2.8l-.1-13.4h-2.8zm-46.8 1.4h4v-2.9h-4v-2.3h5.2l-.8-2.9-7.8.1s.5.3.5 1.2l.1 12.2 7.7-.1.7-3-5.6.1zm-50.8-.5-4-7h-3.9s.5.3.6 1.2l.1 12.1h2.8l-.1-8.3 4.6 8.3h2.8l-.1-13.4h-2.8zm40.7-7.5h-3.6s.5.3.5 1.2l.1 12.1 7.7-.1.7-3-5.3.1zm-58.6.6s.7.4.5 1.2l-3.5 12.2h2.6l.9-3.1h4.2l1 3.1h3.3l-4.5-13.3zm1.2 7.7 1.2-4.3 1.4 4.3zm27.8-8-6.4.1s.5.3.5 1.2l.1 12.1h2.9v-4.6h2.9c2.4 0 4.4-2 4.4-4.4 0-2.5-2-4.4-4.4-4.4zm-.2 6h-2.7v-3.1h2.7c.8 0 1.5.7 1.5 1.5 0 .9-.7 1.5-1.5 1.6zm19.6-6.2h-3.6s.5.3.5 1.2l.1 12.1 7.7-.1.7-3-5.3.1zm-10.6 8.2h4v-2.9h-4v-2.3h5.2l-.8-2.9-7.8.1s.5.3.5 1.2l.1 12.2 7.7-.1.7-3-5.6.1z"/></g><g clip-path="url(#a)" opacity=".1"><path d="m456.6 382-.9 1.4" fill="none" stroke="#404040" stroke-miterlimit="10" stroke-width="1.2795"/><path d="m453.9 386.2c-57.4 88.2-170.2 127.9-272.7 89.3-118.4-44.6-178.3-176.8-133.7-295.2 39.9-106.1 150.1-165.2 257.7-144.3" fill="none" stroke="#404040" stroke-dasharray="3.3312 3.3312" stroke-miterlimit="10" stroke-width="1.2795"/><path d="m306.8 36.3 1.6.3" fill="none" stroke="#404040" stroke-miterlimit="10" stroke-width="1.2795"/><circle cx="456.6" cy="382" fill="#404040" r="7"/><path d="m310.6 37-.8-8 11.3 9.8-13.8 5.5z" fill="#404040"/><path d="m261.2 52c115.6 0 209.3 93.7 209.3 209.3s-93.7 209.3-209.3 209.3-209.2-93.8-209.2-209.4 93.7-209.2 209.2-209.2m0-.8c-28.4 0-55.9 5.6-81.8 16.5-25 10.6-47.5 25.7-66.8 45s-34.4 41.8-45 66.8c-11 25.9-16.5 53.4-16.5 81.8s5.6 55.9 16.5 81.8c10.6 25 25.7 47.5 45 66.8s41.8 34.4 66.8 45c25.9 11 53.4 16.5 81.8 16.5s55.9-5.6 81.8-16.5c25-10.6 47.5-25.7 66.8-45s34.4-41.8 45-66.8c11-25.9 16.5-53.4 16.5-81.8s-5.6-55.9-16.5-81.8c-10.6-25-25.7-47.5-45-66.8s-41.8-34.4-66.8-45c-25.9-11-53.4-16.5-81.8-16.5z"/><path d="m122 161.2c14-19.4 32-35.8 52.7-48 25.4-14.9 54.9-23.4 86.5-23.4 19.1 0 37.4 3.1 54.5 8.8" fill="none" stroke="#cecece" stroke-miterlimit="10"/><path d="m123.9 363.8c-21.4-28.6-34-64.1-34-102.5 0-37.3 11.9-71.9 32.2-100" fill="none" stroke="#a2a2a2" stroke-miterlimit="10"/><path d="m314.2 424.3c-16.7 5.4-34.5 8.4-53 8.4-56.2 0-106.1-27-137.3-68.8" fill="none" stroke="#dbdbdb" stroke-miterlimit="10"/><path d="m400.4 361.2c-21.1 29.3-51.2 51.6-86.2 63m118.4-163.8v.9c0 37.3-11.9 71.9-32.2 100" fill="none" stroke="#d2d2d2" stroke-miterlimit="10"/><path d="m315.7 98.7c67.7 22.7 116.5 86.4 116.9 161.7" fill="none" stroke="#cdcdcd" stroke-miterlimit="10"/><path d="m476.4 260.6-430.4-2.1m119.8-29 207.5 69m-43.7-241.2-91 272m33.6-182.1-22.3 231.2m-163.4-242.7 349.5 251.1m-234.3-206.6 129.5 176.2m-126.9-270 120.2 369.4m5.6-290.4-130.7 195.8m146.6-181-169.9 162.4m111.5-160.6-85 255.8m46.3-275.4 26.9 215" fill="none" stroke="#000" stroke-miterlimit="10" stroke-width=".853"/><path d="m367.5 210.3-212.8 102" fill="none" stroke="#000" stroke-miterlimit="10" stroke-width=".9789"/><path d="m405.4 153.7-288.4 215.1" fill="none" stroke="#000" stroke-miterlimit="10" stroke-width=".853"/><path d="m377.6 244.3-230.3 33.6" fill="none" stroke="#000" stroke-miterlimit="10" stroke-width=".9789"/><circle cx="261.2" cy="261.2" fill="#fff" r="86.2"/><g fill="#666"><path d="m262.3 109.6c2 1 4.4 2.7 6.5 2.1 3-.8 5.9-4.7 7.2-5.2 0 0 .6.1.1.6-4 3.8-4.7 9.3-2.9 12.6 0 0-1 .9-1.4 1.2-.7 1.2-.1 7 .4 8.7 0 0-.3.6-.5.1-1.3-3.1-1.8-6.1-1.9-7.4-.1-.5-.3-.5-.5 0-.6 1.7-1 4-1.3 8.1 0 0-.4.6-.5-.1-.6-3.9.5-16.1.2-16.3-2.3-1.2-4.6-3-5.4-4-.3-.2 0-.4 0-.4z"/><path d="m252.6 110.4c.3.1.7 0 1-.2.5-.3.9-.8 1-1.4.2-.6.1-1.3-.2-1.8-.2-.3-.5-.6-.8-.7s-.7 0-1 .2c-.5.3-.9.8-1 1.4-.2.6-.1 1.3.2 1.8.2.4.4.6.8.7z"/><path d="m269.8 108.9c-.2-.6-.5-1-.9-1.3-.3-.2-.6-.2-.9-.1s-.6.3-.7.6c-.2.4-.3 1-.2 1.6.3 1 1.1 1.6 1.8 1.4.8-.2 1.1-1.2.9-2.2z"/><path d="m261.9 116.6c.2 0 .5-.1.7-.3.3-.3.5-.9.4-1.4 0-.9-.6-1.7-1.2-1.7-.2 0-.5.1-.6.3-.3.3-.5.9-.4 1.4-.1.9.4 1.7 1.1 1.7z"/><path d="m259.8 129.2c.6-3.6 1.2-5.4 1.4-5.9 0 .9.7 4.1 1.2 5.2.3.7.7.2.7.2-.9-10.1 1.5-11.4 3.8-13.4.3-.2 0-.4 0-.4-.5 0-2.4 1.1-2.6 1.2-4.4 2.6-6.6-.4-7.2-.8 0 0-.3 0-.1.4.3.6 1.6 2.2 3.2 3.2-.7 2.3-1.1 8.1-.9 10.1 0 .7.5.2.5.2z"/><path d="m241.3 112.6c2.8 1.5 7.8 2.2 10 2.2-.8 6.5-.6 13.9.3 17.4.2.9.8.3.8.3-.2-3.7.6-9.5 1.6-10.8.4 2 2 6.9 4.2 10.1.5.7.8.1.8.1-4.6-15.5-2.6-19.8-.5-24.3.7-1.5 1.3-2.9 1.9-4.8.2-.9-.6-.6-.6-.6-2.8 6.9-7.1 12.2-18.6 9.4-.1.3-.4.7.1 1z"/><path d="m171.1 386.2c-1-2-1.9-4.8-4-5.6-2.9-1.1-7.5.3-8.9 0 0 0-.5-.5.3-.6 5.5-.7 9.3-4.8 9.8-8.4 0 0 1.4-.1 1.9-.2 1.3-.6 4.2-5.6 4.9-7.3 0 0 .6-.3.5.2-.8 3.2-2.2 5.9-2.8 7.1-.3.4-.1.6.4.3 1.5-1 3.2-2.6 5.8-5.8 0 0 .7-.2.4.4-1.8 3.5-10 12.7-9.8 13 1.2 2.3 2 5.1 2 6.4-.2.5-.5.5-.5.5z"/><path d="m179.4 391.2c-.2-.3-.5-.4-.9-.5-.6-.1-1.2.1-1.7.6-.5.4-.8 1-.9 1.5 0 .4 0 .8.3 1 .2.3.5.4.9.5.6.1 1.2-.1 1.7-.6.5-.4.8-1 .9-1.5 0-.3-.1-.7-.3-1z"/><path d="m164.6 382.2c-.2.5-.2 1.1 0 1.6.1.3.4.6.7.7s.6.1.9-.1c.5-.2.8-.6 1.1-1.2.4-1 .1-2-.6-2.2-.8-.3-1.7.3-2.1 1.2z"/><path d="m175.5 380.8c-.2-.1-.4-.2-.7-.1-.4.1-.9.4-1.2.9-.5.8-.5 1.7 0 2.1.2.1.4.2.7.1.4-.1.9-.4 1.2-.9.6-.8.6-1.8 0-2.1z"/><path d="m184.6 371.8c-2.6 2.6-4.2 3.6-4.6 3.9.5-.7 1.9-3.7 2.1-4.8.2-.7-.4-.6-.4-.6-5.2 8.7-8 8.3-11 8.5-.4 0-.3.3-.3.3.4.2 2.6.5 2.8.6 5.1.5 5.1 4.2 5.4 4.9 0 0 .3.2.4-.3.1-.6 0-2.8-.7-4.5 1.9-1.4 5.7-5.9 6.7-7.6.3-.5-.4-.4-.4-.4z"/><path d="m189.7 396.1c-1.3-2.9-5-6.3-6.7-7.7 4.5-4.7 8.7-10.8 10.1-14.2.4-.9-.5-.7-.5-.7-2 3.1-6.1 7.3-7.7 7.7.8-1.8 2.5-6.7 2.6-10.7 0-.8-.5-.6-.5-.6-5.5 15.2-9.6 17.5-14 19.9-1.4.8-2.8 1.5-4.4 2.8-.7.6.2.8.2.8 6.4-3.9 13-5.6 20.6 3.4.1 0 .6-.1.3-.7z"/></g><path d="m414.9 303.8h-10.1l-3.1-9.6-3.1 9.6h-10.1l8.2 6-3.1 9.6 8.2-5.9 8.2 5.9-3.1-9.6zm-6.6 13.4-6.6-4.8-6.6 4.8 2.5-7.8-6.6-4.8h8.2l2.5-7.8 2.5 7.8h8.2l-6.6 4.8zm-15.2-11.9 5.3 3.9-2 6.3 5.3-3.9 5.4 3.9-2.1-6.3 5.4-3.9h-6.6l-2.1-6.4-2 6.4zm-252.8-4.9h-10.1l-3.1-9.6-3.1 9.6h-10.1l8.2 6-3.1 9.6 8.2-5.9 8.2 5.9-3.1-9.6zm-6.6 13.4-6.6-4.8-6.6 4.8 2.5-7.8-6.6-4.8h8.2l2.5-7.8 2.5 7.8h8.2l-6.6 4.8zm-15.3-11.9 5.4 3.9-2.1 6.3 5.4-3.9 5.3 3.9-2-6.3 5.3-3.9h-6.6l-2-6.3-2.1 6.3z" fill="#4f4f4f"/><path d="m195.5 146.3-8.5-2.9-18-6.2 1.7 28.6s.1-.1.2-.1l4.8-3.6.2-.2-.7-15.1c-.1-1.1.4-1.4 1.4-1.1 4.3 1.4 10 3.4 14.2 4.8 0 0 .5-.4 1.3-1l.8-.6c1-.8 2.1-1.6 3.2-2.4-.3-.1-.5-.1-.6-.2zm-19.6-4.6-.7.5-.3.2-1.6-.5c-.7-.2-1.1.2-1.1.9 0 .5.1 1.3.1 1.7 0 0-.1.1-.3.2-.5.3-.9.7-1.5 1.1-.1-2.4-.2-4.6-.3-6.9l6.3 2.2c.1 0-.6.6-.6.6zm70.5 254c1.7 2.5 3.4 5 5 7.4l10.7 15.7 15.8-23.9h-6.5l-8.5 12.5c-.6.9-1.2.9-1.8 0l-8.5-12.4h-6.7c.3.4.4.5.5.7zm12.9 15.5h1.1l1 1.4c.5.5 1 .5 1.4-.1l1-1.5h2.2c-1.3 2-2.6 3.8-3.9 5.7l-3.7-5.6c0 .1.9.1.9.1z" fill="#7b7b7b"/><path clip-rule="evenodd" d="m354.9 388.1c-1.1-.1-2.2-.3-3.1-.9-.3-.2-.4-.1-.6.1-.7.7-1.5 1.2-2.5 1.6 1.2-1.8 1.7-3.7 2-5.7 1.1 1.9 2.6 3.4 4.2 4.9zm-10.6.3c1 .9 2.6.9 3.6 0 .8-.7 1.3-1.5 1.6-2.5.7-2.2.4-4.3-.5-6.3-.4-1-1-1.8-1.7-2.7-.2-.3-.2-.3.1-.5 0 0 .1 0 .1-.1l.4.5c.6.7 1.2 1.4 1.7 2.3.6 1 1.1 2.1 1.6 3.2.5 1 1 2 1.7 2.8s1.5 1.6 2.4 2.2c1.5 1 3.2 1.7 5 1.9l.8.1c0-1.1-.3-2.1-.6-3.1-.5-1.3-1.1-2.4-2-3.5-.6-.7-1.3-1.4-2.1-2s-1.7-1.1-2.7-1.5c-1.6-.7-3.1-1.4-4.4-2.5l-1.2-1c.1-.2.2-.3.3-.4l.2.2c.4.3.9.7 1.4 1 2 1.3 4.2 1.9 6.7 1.5 1.3-.2 2.6-.7 3.5-1.8.3-.4.6-.8.7-1.3.3-1.3-.4-2.6-1.7-3.2-1-.5-2.1-.5-3.1-.4l-2.8.4c-.8.1-1.5.1-2.3-.1h-.1c.2.5.4.9.5 1.4l.9-.2c.5-.1 1.1-.2 1.6 0 1 .4 1.4 1.6.7 2.4-.4.5-.9.7-1.5.8-1.1.2-2.1-.1-3.1-.7l-1-.7.6-.9c.3-.5.3-.5-.1-.9h-.2l-.5.3c-.2.1-.4.3-.7.4-.2-.4-.4-.8-.4-1.3 0-.7.2-1.4.9-1.8l.6-.3c-.1-.2-.4-.6-.7-.8-.7-.5-1.5-.3-2 .3s-.5 1.2-.4 1.8c.2.9.5 1.6 1 2.4.2.3.2.3 0 .5-.1.1-.2.1-.3 0l-1.2-1.9c-.3-.5-.6-.9-1-1.3-.7-.6-1.5-.9-2.4-1 .6.6 3.5 3.4 3.5 3.4s-.1-.7-.6-1.5c-.6-.8-1.1-1.2-1.3-1.3-.1 0-.1-.1-.1-.1l.1.1c.3.2 1.1.6 1.5 1.1.6.8.6 1.8.6 1.8s-1.4 0-2.4-1.2c-.5-.5-.9-1.7-1.3-2.4h-.3c.1.4.2.8.3 1.1.2.8.6 1.6 1.3 2.1.4.3.9.6 1.3.8.5.3 1.1.6 1.5 1-.1.1-.2.2-.3.4h-.1l-.4-.3c-.7-.5-1.5-.9-2.4-1-.7-.1-1.4.1-1.9.7s-.5 1.3 0 1.9c.2.2.4.5.7.6.1-1.3 2.1-2 3.4-1.1l-.5.8c-.3.5-.3.5.1.9.1.1.2.1.3 0 .4-.2.7-.4 1.1-.7.1-.1.2-.1.3 0 .6.7 1 1.4 1.2 2.3s.2 1.8-.3 2.6c-.3.5-.7.8-1.4.9-.8 0-1.5-.6-1.6-1.4-.1-.5 0-.9.1-1.3l.2-.9c-.5 0-.9-.2-1.2-.4h-.1v.2c.2.5.2.9.2 1.4l-.4 3.2c-.1.7-.2 1.3-.1 2 0 1 .3 1.9 1.1 2.6zm11.2-14.4c0-1.5-1.6-2-1.6-2s1.7-.3 3.1.5c.4.2.9.7.9 1.4.1 1.1-.7 1.5-1.2 1.8-2.4 1.4-5.3.7-5.3.7 3.3-.1 4.1-1.3 4.1-2.4zm-.5 3.2c4.1.2 5.2-2.2 5.2-3.1.1-2-2.7-2.7-2.7-2.7s1.2.1 2.2 1c.2.1.8.8.8 1.5.1 1.1-.6 2-1.3 2.4-3.7 2.6-7.8 0-7.8 0 1.5.5 2.7.9 3.6.9zm-7.8-7.2c.3-.5 1.3-.4 1.3-.4-1.9.9-1.1 3.1-1.1 3.1s-.9-1.6-.2-2.7zm13.1 18.2s-.3-2.3-2.1-4.6c-1.9-2.5-3.6-3.7-4.2-4.1-.2-.1-.3-.2-.3-.2s.1.1.3.2c.9.5 3.3 2.1 4.6 3.7 2 2.5 2.2 5.5 2.2 5.5s-4.2-.3-7.6-4c-1.7-1.8-2.9-5.8-4.4-7.8 0-.1 11.5 11.3 11.5 11.3zm-18.6-11.9s-.1-.9.4-1.3c1.1-.7 2.7.2 2.7.2s-2.1-.8-3.1 1.1zm2.9 8.7c-.8-1.5-.5-3.1-.5-3.1s.5 1.6 2 1.6c1.1 0 2.4-.8 2.4-4 0 0 .8 2.8-.7 5.3-.3.5-.7 1.2-1.8 1.2-.7-.1-1.2-.6-1.4-1zm-.1 2.7c-.9-1-1-2.2-1-2.2s.6 2.8 2.7 2.7c.9 0 3.3-1.1 3.1-5.2 0-1-.4-2.1-.8-3.5 0 0 2.6 4.1 0 7.8-.4.6-1.4 1.3-2.4 1.3-.8-.2-1.4-.8-1.6-.9z" fill="#797979" fill-rule="evenodd"/><path d="m323.1 200.8-123.7 119.2m121.4 2.2-119.2-123.6m107.6-9.5-95.9 142.5m119.2-23.3-142.5-95.8m155.5 31.6-168.6 32.6m100.6 68-32.5-168.6m102.1 83.9-171.7-1m84.5 87.3 2.7-171.8m57.6 47.6-117.9 76.6m97.2 20.7-76.5-118m107.1 73.2-137.7-28.5m54.6 83.1 28.5-137.6m50.1 97.1-128.7-56.6m36 92.6 56.6-128.7m37.2 38.9-131 51m91.1 40-51.1-131" fill="none" stroke="#ededed" stroke-miterlimit="10" stroke-width=".853"/><path d="m262.5 191.6 17.8 52.7h56.3l-47.3 32.3 18.2 52.6-45.4-32.6-48.8 32.6 18.4-52.4-47.6-32.5h60.5z" fill="#ebebeb"/><path d="m262.5 209.3 13.7 40.4 42.7.1-36.3 24.7 13.9 40.4-34.4-25.1-37.9 25.1 14-40.4-36.3-24.7 46.8-.1z" fill="#fff"/><path d="m262.5 218 11.6 34.4 36 .1-30.9 21 11.9 34.3-29-21.3-32.5 21.3 11.9-34.3-30.8-21 40.1-.1z" fill="#ebebeb"/><path d="m250.2 290.8c0-1.4-1.2-2.5-2.6-2.5h-5.6v8.7h1.2v-3.5h3.3l2.4 3.5h1.4l-2.4-3.6c1.5-.4 2.3-1.3 2.3-2.6zm-1.7 1.1c-.2.2-.5.3-.9.3h-4.4v-2.8h4.5c1 0 1.2.9 1.2 1.4 0 .4-.1.8-.4 1.1zm10.5 2.1c0 1.2-1.4 1.9-2.8 1.9-1.3 0-2.7-.6-2.7-1.9v-5.8h-1.2v5.9c0 .7.3 1.4.8 1.9.7.7 1.7 1 3 1h.1c2.7 0 4-1 4-2.9v-5.9h-1.2zm9.8-5.8h-5.6v8.7h1.2v-3.6h4.3c1.2 0 2.2-1.1 2.2-2.4 0-.7-.3-1.5-.8-2-.4-.4-.9-.7-1.3-.7zm.8 2.7c0 .4-.2.8-.4 1-.1.1-.3.2-.4.2h-4.4v-2.8h4.3c.4.1.9.8.9 1.6zm9-2.7h-5.6v8.7h1.2v-3.6h4.3c1.2 0 2.2-1.1 2.2-2.4 0-.7-.3-1.5-.8-2-.4-.4-.9-.7-1.3-.7zm.9 2.7c0 .4-.2.8-.4 1-.1.1-.3.2-.4.2h-4.4v-2.8h4.3c.4.1.9.8.9 1.6zm7.3 6.1c1.5 0 2.8-.5 3.7-1.5.8-.8 1.2-1.8 1.2-3 0-3.1-2.6-4.5-5-4.5-1.4 0-2.7.5-3.6 1.5-.8.8-1.3 1.9-1.3 3 .1 2.4 2.4 4.5 5 4.5zm-3.6-4.4c0-1.8 1.9-3.2 3.6-3.2h.1c1 0 2.1.4 2.8 1.1.6.6.9 1.3.9 2.1s-.3 1.6-.9 2.2c-.7.7-1.7 1.1-2.8 1.1-2.1 0-3.7-1.5-3.7-3.3zm-47.6.8h3v1.5c-.2.2-1.2 1-2.9 1-2.3 0-3.7-1.3-3.7-3.3 0-1.9 1.4-3.1 3.6-3.2h.1c1.7 0 3.1 1 3.1 1l.1.1.8-.9-.2-.1c-1.4-1-2.6-1.4-3.8-1.4-1.4 0-2.7.5-3.7 1.4-.8.8-1.3 1.9-1.3 3 0 2.8 1.9 4.5 5 4.5 2.7 0 4-1.6 4.1-1.7v-3h-4.2z"/><path d="m262 209.7 6.7 19.8h21.2l-17.8 12.1 6.8 19.8-17-12.3-18.4 12.3 7-19.7-17.9-12.2h22.7z" fill="#4f4f4f"/><path d="m262 216.3 5.2 15.2h16l-13.6 9.3 5.2 15.2-12.9-9.4-14.2 9.4 5.2-15.2-13.6-9.3h17.6z" fill="#fff"/><path d="m262 219.6 4.4 12.9 13.5.1-11.6 7.8 4.5 13-10.9-8.1-12.2 8.1 4.5-13-11.6-7.8 15-.1z" fill="#4f4f4f"/><path d="m192 273.3c0-.5.3-1.2 1.9-1.2 1.5 0 2.8.7 2.8.7l-.3-3.1c-.2.2-.5.3-.7.2-.5-.1-1.3-.2-2.2-.2-3.3 0-4.8 2-4.8 3.8 0 3.5 5.3 3.8 5.3 6.3 0 .9-.9 1.4-1.9 1.4-2.2 0-3.7-1-3.7-1l.4 3.1c.3-.1.5-.1.8-.1.7.2 1.8.4 2.9.4 3.2 0 4.9-1.7 4.9-3.8 0-4.5-5.4-4.4-5.4-6.5zm111.9-2.1v12.1h3v-13.3h-3.6s.6.3.6 1.2zm-2.7 3.2c0-2.4-2-4.4-4.4-4.4h-6.4s.5.4.5.9v12.4h2.9v-4.6h1.8l2.6 4.6h3.3l-2.8-5c1.5-.7 2.5-2.2 2.5-3.9zm-7.3-1.5h2.7c.8 0 1.5.7 1.5 1.5s-.7 1.5-1.5 1.5h-2.7zm-7.8 3.8v2.2s-1.1 1.8-2.9 1.8c-1.4 0-3.5-1.4-3.5-3.9s1.8-3.9 3.5-3.9l2.6 1.1 1.4-2.7s-1.5-1.6-4.1-1.6c-3.4 0-6.3 2.7-6.3 7 0 4.2 3.2 7 6.3 7s4.1-1.9 5.8-3.5v-4.1h-3.3s.5.2.5.6zm41.7-6.9c-3.5 0-6.3 3.1-6.3 6.9s2.8 6.9 6.3 6.9 6.3-3.1 6.3-6.9-2.8-6.9-6.3-6.9zm0 10.7c-1.7 0-3-1.6-3-3.8s1.3-3.8 3-3.8 3 1.6 3 3.8-1.4 3.8-3 3.8zm-10.9-3.4-4-7.1h-3.9s.5.3.5 1.2v12.1h2.8v-8.3l4.5 8.3h2.8v-13.3h-2.8v7.1zm-46.9 1h4v-2.9h-4v-2.3h5.2l-.7-2.9h-7.8s.5.3.5 1.2v12.2h7.7l.7-3h-5.6zm-50.8-1-4-7.1h-3.9s.5.3.5 1.2v12.1h2.8v-8.3l4.5 8.3h2.8v-13.3h-2.8v7.1zm40.9-7.1h-3.6s.5.3.5 1.2v12.1h7.7l.7-3h-5.3zm-58.7 0s.7.4.5 1.2l-3.6 12.2h2.6l.9-3.1h4.2l1 3.1h3.3l-4.3-13.4zm1.2 7.7 1.2-4.3 1.4 4.3zm27.8-7.7h-6.4s.5.3.5 1.2v12.1h2.9v-4.6h2.9c2.4 0 4.4-2 4.4-4.4.1-2.3-1.9-4.3-4.3-4.3zm-.2 6h-2.7v-3.1h2.7c.8 0 1.5.7 1.5 1.5s-.7 1.6-1.5 1.6zm19.6-6h-3.6s.5.3.5 1.2v12.1h7.7l.7-3h-5.3zm-10.7 8.1h4v-2.9h-4v-2.3h5.2l-.7-2.9h-7.8s.5.3.5 1.2v12.2h7.7l.7-3h-5.6z"/><path d="m83.3 261.2c0-38.8 12.5-74.8 33.6-104l-30.2-21.5c-25.5 35.3-40.5 78.7-40.5 125.6 0 48.1 15.8 92.5 42.5 128.3l29.7-22.2c-22-29.7-35.1-66.4-35.1-106.2z" fill="#a2a2a2"/><path d="m439.1 260.5h37.1c-.3-94.5-61.6-174.6-146.6-203.1l-11.8 35.2c70.3 23.5 121 89.7 121.3 167.9z" fill="#cdcdcd"/><path d="m261.2 439.1c-58.5 0-110.3-28.2-142.8-71.8l-29.7 22.2c39.2 52.6 101.8 86.6 172.5 86.6 23.3 0 45.8-3.7 66.8-10.6l-11.4-35.3c-17.4 5.8-36 8.9-55.4 8.9z" fill="#dbdbdb"/><path d="m261.2 83.4c19.8 0 38.8 3.2 56.6 9.2l11.8-35.2c-21.5-7.2-44.5-11.1-68.4-11.1-71.8 0-135.4 35.2-174.5 89.4l30.2 21.5c32.3-44.7 84.9-73.8 144.3-73.8z" fill="#cecece"/><path d="m476.2 260.5h-37.1v.8c0 78.9-51.4 145.8-122.5 169.1l11.4 35.3c86-28.1 148.1-109 148.1-204.4.1-.3.1-.6.1-.8z" fill="#d2d2d2"/><path d="m272.8 143.1 1.7.2" fill="none" stroke="#000" stroke-miterlimit="10" stroke-width="1.2795"/><path d="m277.8 143.7c52.6 7.6 95.2 50.4 100.4 105.7 6.1 64.9-41.6 122.4-106.4 128.4-57.5 5.4-109.3-31.5-124.5-85.1" fill="none" stroke="#000" stroke-dasharray="3.3404 3.3404" stroke-miterlimit="10" stroke-width="1.2795"/><path d="m146.8 291.1-.4-1.6" fill="none" stroke="#000" stroke-miterlimit="10" stroke-width="1.2795"/><circle cx="272.8" cy="143.1" r="6.1"/><path d="m146.1 288.6-5.7 3.5 3.2-12.1 9.2 8.4z"/><path d="m119.5 212.2c1.6-1.5 4.1-3.2 4.2-5.4.2-3.1-2.4-7.1-2.5-8.5 0 0 .3-.6.6.1 2.2 5.1 7.2 7.6 10.8 7 0 0 .5 1.3.7 1.8.9 1.1 6.6 2.4 8.3 2.6 0 0 .5.5-.1.5-3.3.1-6.3-.4-7.6-.7-.5-.1-.6.1-.2.4 1.3 1.2 3.4 2.4 7.2 4 0 0 .4.6-.3.5-3.9-.8-15-6-15.2-5.8-1.9 1.8-4.4 3.3-5.6 3.7-.2.1-.3-.2-.3-.2z" fill="#666"/><path d="m117 221.6c.2-.3.3-.6.2-1-.1-.6-.5-1.1-1-1.5s-1.2-.5-1.7-.4c-.4.1-.7.3-.9.5-.2.3-.3.6-.2 1 .1.5.5 1.1 1 1.5s1.2.5 1.7.4c.3-.1.7-.2.9-.5z" fill="#666"/><path d="m121.4 204.9c-.6-.1-1.1.1-1.5.4-.3.2-.4.5-.5.8 0 .3.1.6.3.9.3.4.8.6 1.4.7 1 .1 1.9-.5 2-1.2.1-.8-.6-1.5-1.7-1.6z" fill="#666"/><path d="m125.9 214.9c.1-.2 0-.5-.1-.7-.2-.4-.7-.7-1.2-.9-.9-.3-1.8 0-2 .6-.1.2 0 .5.1.7.2.4.7.7 1.2.9.9.3 1.8.1 2-.6z" fill="#666"/><path d="m137.1 221.2c-3.2-1.8-4.6-3-5-3.4.9.3 4.1.8 5.3.7.7-.1.4-.6.4-.6-9.8-2.6-10.2-5.4-11.3-8.2-.1-.3-.4-.2-.4-.2-.1.5.2 2.6.2 2.9.9 5.1-2.6 6.1-3.2 6.5 0 0-.1.3.4.3.6 0 2.7-.8 4.1-1.9 1.9 1.5 7.3 3.8 9.1 4.3.7.2.4-.4.4-.4z" fill="#666"/><path d="m115.2 232.9c2.4-2.1 4.7-6.6 5.5-8.6 5.8 3 12.8 5.3 16.5 5.7 1 .1.5-.6.5-.6-3.5-1.1-8.7-3.8-9.5-5.2 2 .3 7.1.5 11-.5.8-.2.4-.7.4-.7-16.1-1-19.5-4.3-23-7.8-1.1-1.1-2.3-2.2-3.9-3.4-.7-.5-.7.4-.7.4 5.5 5 9 10.9 2.5 20.7-.1 0 .2.4.7 0z" fill="#666"/><path d="m261.2 176.3c46.8 0 84.9 38.1 84.9 84.9s-38.1 84.9-84.9 84.9-84.9-38.1-84.9-84.9 38.1-84.9 84.9-84.9m0-8c-51.3 0-92.9 41.6-92.9 92.9s41.6 92.9 92.9 92.9 92.9-41.6 92.9-92.9c.1-51.3-41.5-92.9-92.9-92.9z"/><path d="m261.2 168.7c51 0 92.6 41.5 92.6 92.6s-41.5 92.6-92.6 92.6-92.6-41.5-92.6-92.6 41.6-92.6 92.6-92.6m0-8c-55.5 0-100.6 45-100.6 100.6s45 100.6 100.6 100.6c55.5 0 100.6-45 100.6-100.6s-45-100.6-100.6-100.6z" fill="#868686"/><path d="m261.2 161.6c54.9 0 99.6 44.7 99.6 99.6s-44.7 99.6-99.6 99.6-99.6-44.7-99.6-99.6 44.7-99.6 99.6-99.6m0-8c-59.4 0-107.6 48.2-107.6 107.6s48.2 107.6 107.6 107.6 107.6-48.2 107.6-107.6-48.1-107.6-107.6-107.6z" fill="#9e9e9e"/><path d="m354.3 165 1.2-8.9c.8-6.1 1.7-12.7 2.5-18.9l-27.7 7.3s.1.1.2.1l4.5 3.9.2.2 14.6-3.7c1.1-.3 1.5.1 1.4 1.2-.5 4.5-1.3 10.4-1.9 14.9 0 0 .5.4 1.3 1.1.2.2.5.4.8.7l3 2.6c-.2-.1-.2-.3-.1-.5zm.7-20.1s-.6-.5-.6-.6l-.2-.2c.1-.3.2-1.3.2-1.7 0-.7-.4-1-1.1-.9-.5.1-1.2.3-1.7.5l-.3-.3c-.4-.4-.8-.7-1.4-1.2 2.3-.6 4.5-1.1 6.7-1.7l-.9 6.6c-.1.1-.7-.5-.7-.5z" fill="#7b7b7b"/></g><g clip-path="url(#b)"><path d="m456.6 382-.9 1.4" fill="none" stroke="#636362" stroke-miterlimit="10" stroke-width="1.2795"/><path d="m453.9 386.2c-57.4 88.2-170.2 127.9-272.7 89.3-118.4-44.6-178.3-176.8-133.7-295.2 39.9-106.1 150.1-165.2 257.7-144.3" fill="none" stroke="#636362" stroke-dasharray="3.3312 3.3312" stroke-miterlimit="10" stroke-width="1.2795"/><path d="m306.8 36.3 1.6.3" fill="none" stroke="#636362" stroke-miterlimit="10" stroke-width="1.2795"/><circle cx="456.6" cy="382" fill="#636362" r="7"/><path d="m310.6 37-.8-8 11.3 9.8-13.8 5.5z" fill="#636362"/><path d="m261.2 52c115.6 0 209.3 93.7 209.3 209.3s-93.7 209.3-209.3 209.3-209.2-93.8-209.2-209.4 93.7-209.2 209.2-209.2m0-.8c-28.4 0-55.9 5.6-81.8 16.5-25 10.6-47.5 25.7-66.8 45s-34.4 41.8-45 66.8c-11 25.9-16.5 53.4-16.5 81.8s5.6 55.9 16.5 81.8c10.6 25 25.7 47.5 45 66.8s41.8 34.4 66.8 45c25.9 11 53.4 16.5 81.8 16.5s55.9-5.6 81.8-16.5c25-10.6 47.5-25.7 66.8-45s34.4-41.8 45-66.8c11-25.9 16.5-53.4 16.5-81.8s-5.6-55.9-16.5-81.8c-10.6-25-25.7-47.5-45-66.8s-41.8-34.4-66.8-45c-25.9-11-53.4-16.5-81.8-16.5z" fill="#12100b"/><path d="m122 161.2c14-19.4 32-35.8 52.7-48 25.4-14.9 54.9-23.4 86.5-23.4 19.1 0 37.4 3.1 54.5 8.8" fill="none" stroke="#ffd239" stroke-miterlimit="10"/><path d="m123.9 363.8c-21.4-28.6-34-64.1-34-102.5 0-37.3 11.9-71.9 32.2-100" fill="none" stroke="#ac9ead" stroke-miterlimit="10"/><path d="m314.2 424.3c-16.7 5.4-34.5 8.4-53 8.4-56.2 0-106.1-27-137.3-68.8" fill="none" stroke="#8bd2f5" stroke-miterlimit="10"/><path d="m400.4 361.2c-21.1 29.3-51.2 51.6-86.2 63m118.4-163.8v.9c0 37.3-11.9 71.9-32.2 100" fill="none" stroke="#bad373" stroke-miterlimit="10"/><path d="m315.7 98.7c67.7 22.7 116.5 86.4 116.9 161.7" fill="none" stroke="#c7b07d" stroke-miterlimit="10"/><path d="m165.8 229.5 207.5 69m-43.7-241.2-91 272m33.6-182.1-22.3 231.2m-163.4-242.7 349.5 251.1m-234.3-206.6 129.5 176.2m-126.9-270 120.2 369.4m5.6-290.4-130.7 195.8m146.6-181-169.9 162.4m111.5-160.6-85 255.8m46.3-275.4 26.9 215" fill="none" stroke="#1d1d1b" stroke-miterlimit="10" stroke-width=".853"/><path d="m367.5 210.3-212.8 102" fill="none" stroke="#12100b" stroke-miterlimit="10" stroke-width=".9789"/><path d="m405.4 153.7-288.4 215.1" fill="none" stroke="#1d1d1b" stroke-miterlimit="10" stroke-width=".853"/><path d="m377.6 244.3-230.3 33.6" fill="none" stroke="#12100b" stroke-miterlimit="10" stroke-width=".9789"/><circle cx="261.2" cy="261.2" fill="#fff" r="86.2"/><g fill="#e40077"><path d="m262.3 109.6c2 1 4.4 2.7 6.5 2.1 3-.8 5.9-4.7 7.2-5.2 0 0 .6.1.1.6-4 3.8-4.7 9.3-2.9 12.6 0 0-1 .9-1.4 1.2-.7 1.2-.1 7 .4 8.7 0 0-.3.6-.5.1-1.3-3.1-1.8-6.1-1.9-7.4-.1-.5-.3-.5-.5 0-.6 1.7-1 4-1.3 8.1 0 0-.4.6-.5-.1-.6-3.9.5-16.1.2-16.3-2.3-1.2-4.6-3-5.4-4-.3-.2 0-.4 0-.4z"/><path d="m252.6 110.4c.3.1.7 0 1-.2.5-.3.9-.8 1-1.4.2-.6.1-1.3-.2-1.8-.2-.3-.5-.6-.8-.7s-.7 0-1 .2c-.5.3-.9.8-1 1.4-.2.6-.1 1.3.2 1.8.2.4.4.6.8.7z"/><path d="m269.8 108.9c-.2-.6-.5-1-.9-1.3-.3-.2-.6-.2-.9-.1s-.6.3-.7.6c-.2.4-.3 1-.2 1.6.3 1 1.1 1.6 1.8 1.4.8-.2 1.1-1.2.9-2.2z"/><path d="m261.9 116.6c.2 0 .5-.1.7-.3.3-.3.5-.9.4-1.4 0-.9-.6-1.7-1.2-1.7-.2 0-.5.1-.6.3-.3.3-.5.9-.4 1.4-.1.9.4 1.7 1.1 1.7z"/><path d="m259.8 129.2c.6-3.6 1.2-5.4 1.4-5.9 0 .9.7 4.1 1.2 5.2.3.7.7.2.7.2-.9-10.1 1.5-11.4 3.8-13.4.3-.2 0-.4 0-.4-.5 0-2.4 1.1-2.6 1.2-4.4 2.6-6.6-.4-7.2-.8 0 0-.3 0-.1.4.3.6 1.6 2.2 3.2 3.2-.7 2.3-1.1 8.1-.9 10.1 0 .7.5.2.5.2z"/><path d="m241.3 112.6c2.8 1.5 7.8 2.2 10 2.2-.8 6.5-.6 13.9.3 17.4.2.9.8.3.8.3-.2-3.7.6-9.5 1.6-10.8.4 2 2 6.9 4.2 10.1.5.7.8.1.8.1-4.6-15.5-2.6-19.8-.5-24.3.7-1.5 1.3-2.9 1.9-4.8.2-.9-.6-.6-.6-.6-2.8 6.9-7.1 12.2-18.6 9.4-.1.3-.4.7.1 1z"/><path d="m171.1 386.2c-1-2-1.9-4.8-4-5.6-2.9-1.1-7.5.3-8.9 0 0 0-.5-.5.3-.6 5.5-.7 9.3-4.8 9.8-8.4 0 0 1.4-.1 1.9-.2 1.3-.6 4.2-5.6 4.9-7.3 0 0 .6-.3.5.2-.8 3.2-2.2 5.9-2.8 7.1-.3.4-.1.6.4.3 1.5-1 3.2-2.6 5.8-5.8 0 0 .7-.2.4.4-1.8 3.5-10 12.7-9.8 13 1.2 2.3 2 5.1 2 6.4-.2.5-.5.5-.5.5z"/><path d="m179.4 391.2c-.2-.3-.5-.4-.9-.5-.6-.1-1.2.1-1.7.6-.5.4-.8 1-.9 1.5 0 .4 0 .8.3 1 .2.3.5.4.9.5.6.1 1.2-.1 1.7-.6.5-.4.8-1 .9-1.5 0-.3-.1-.7-.3-1z"/><path d="m164.6 382.2c-.2.5-.2 1.1 0 1.6.1.3.4.6.7.7s.6.1.9-.1c.5-.2.8-.6 1.1-1.2.4-1 .1-2-.6-2.2-.8-.3-1.7.3-2.1 1.2z"/><path d="m175.5 380.8c-.2-.1-.4-.2-.7-.1-.4.1-.9.4-1.2.9-.5.8-.5 1.7 0 2.1.2.1.4.2.7.1.4-.1.9-.4 1.2-.9.6-.8.6-1.8 0-2.1z"/><path d="m184.6 371.8c-2.6 2.6-4.2 3.6-4.6 3.9.5-.7 1.9-3.7 2.1-4.8.2-.7-.4-.6-.4-.6-5.2 8.7-8 8.3-11 8.5-.4 0-.3.3-.3.3.4.2 2.6.5 2.8.6 5.1.5 5.1 4.2 5.4 4.9 0 0 .3.2.4-.3.1-.6 0-2.8-.7-4.5 1.9-1.4 5.7-5.9 6.7-7.6.3-.5-.4-.4-.4-.4z"/><path d="m189.7 396.1c-1.3-2.9-5-6.3-6.7-7.7 4.5-4.7 8.7-10.8 10.1-14.2.4-.9-.5-.7-.5-.7-2 3.1-6.1 7.3-7.7 7.7.8-1.8 2.5-6.7 2.6-10.7 0-.8-.5-.6-.5-.6-5.5 15.2-9.6 17.5-14 19.9-1.4.8-2.8 1.5-4.4 2.8-.7.6.2.8.2.8 6.4-3.9 13-5.6 20.6 3.4.1 0 .6-.1.3-.7z"/></g><path d="m414.9 303.8h-10.1l-3.1-9.6-3.1 9.6h-10.1l8.2 6-3.1 9.6 8.2-5.9 8.2 5.9-3.1-9.6zm-6.6 13.4-6.6-4.8-6.6 4.8 2.5-7.8-6.6-4.8h8.2l2.5-7.8 2.5 7.8h8.2l-6.6 4.8zm-15.2-11.9 5.3 3.9-2 6.3 5.3-3.9 5.4 3.9-2.1-6.3 5.4-3.9h-6.6l-2.1-6.4-2 6.4zm-252.8-4.9h-10.1l-3.1-9.6-3.1 9.6h-10.1l8.2 6-3.1 9.6 8.2-5.9 8.2 5.9-3.1-9.6zm-6.6 13.4-6.6-4.8-6.6 4.8 2.5-7.8-6.6-4.8h8.2l2.5-7.8 2.5 7.8h8.2l-6.6 4.8zm-15.3-11.9 5.4 3.9-2.1 6.3 5.4-3.9 5.3 3.9-2-6.3 5.3-3.9h-6.6l-2-6.3-2.1 6.3z" fill="#e30520"/><path d="m195.5 146.3-8.5-2.9-18-6.2 1.7 28.6s.1-.1.2-.1l4.8-3.6.2-.2-.7-15.1c-.1-1.1.4-1.4 1.4-1.1 4.3 1.4 10 3.4 14.2 4.8 0 0 .5-.4 1.3-1l.8-.6c1-.8 2.1-1.6 3.2-2.4-.3-.1-.5-.1-.6-.2zm-19.6-4.6-.7.5-.3.2-1.6-.5c-.7-.2-1.1.2-1.1.9 0 .5.1 1.3.1 1.7 0 0-.1.1-.3.2-.5.3-.9.7-1.5 1.1-.1-2.4-.2-4.6-.3-6.9l6.3 2.2c.1 0-.6.6-.6.6zm70.5 254c1.7 2.5 3.4 5 5 7.4l10.7 15.7 15.8-23.9h-6.5l-8.5 12.5c-.6.9-1.2.9-1.8 0l-8.5-12.4h-6.7c.3.4.4.5.5.7zm12.9 15.5h1.1l1 1.4c.5.5 1 .5 1.4-.1l1-1.5h2.2c-1.3 2-2.6 3.8-3.9 5.7l-3.7-5.6c0 .1.9.1.9.1z" fill="#00883d"/><path clip-rule="evenodd" d="m354.9 388.1c-1.1-.1-2.2-.3-3.1-.9-.3-.2-.4-.1-.6.1-.7.7-1.5 1.2-2.5 1.6 1.2-1.8 1.7-3.7 2-5.7 1.1 1.9 2.6 3.4 4.2 4.9zm-10.6.3c1 .9 2.6.9 3.6 0 .8-.7 1.3-1.5 1.6-2.5.7-2.2.4-4.3-.5-6.3-.4-1-1-1.8-1.7-2.7-.2-.3-.2-.3.1-.5 0 0 .1 0 .1-.1l.4.5c.6.7 1.2 1.4 1.7 2.3.6 1 1.1 2.1 1.6 3.2.5 1 1 2 1.7 2.8s1.5 1.6 2.4 2.2c1.5 1 3.2 1.7 5 1.9l.8.1c0-1.1-.3-2.1-.6-3.1-.5-1.3-1.1-2.4-2-3.5-.6-.7-1.3-1.4-2.1-2s-1.7-1.1-2.7-1.5c-1.6-.7-3.1-1.4-4.4-2.5l-1.2-1c.1-.2.2-.3.3-.4l.2.2c.4.3.9.7 1.4 1 2 1.3 4.2 1.9 6.7 1.5 1.3-.2 2.6-.7 3.5-1.8.3-.4.6-.8.7-1.3.3-1.3-.4-2.6-1.7-3.2-1-.5-2.1-.5-3.1-.4l-2.8.4c-.8.1-1.5.1-2.3-.1h-.1c.2.5.4.9.5 1.4l.9-.2c.5-.1 1.1-.2 1.6 0 1 .4 1.4 1.6.7 2.4-.4.5-.9.7-1.5.8-1.1.2-2.1-.1-3.1-.7l-1-.7.6-.9c.3-.5.3-.5-.1-.9h-.2l-.5.3c-.2.1-.4.3-.7.4-.2-.4-.4-.8-.4-1.3 0-.7.2-1.4.9-1.8l.6-.3c-.1-.2-.4-.6-.7-.8-.7-.5-1.5-.3-2 .3s-.5 1.2-.4 1.8c.2.9.5 1.6 1 2.4.2.3.2.3 0 .5-.1.1-.2.1-.3 0l-1.2-1.9c-.3-.5-.6-.9-1-1.3-.7-.6-1.5-.9-2.4-1 .6.6 3.5 3.4 3.5 3.4s-.1-.7-.6-1.5c-.6-.8-1.1-1.2-1.3-1.3-.1 0-.1-.1-.1-.1l.1.1c.3.2 1.1.6 1.5 1.1.6.8.6 1.8.6 1.8s-1.4 0-2.4-1.2c-.5-.5-.9-1.7-1.3-2.4h-.3c.1.4.2.8.3 1.1.2.8.6 1.6 1.3 2.1.4.3.9.6 1.3.8.5.3 1.1.6 1.5 1-.1.1-.2.2-.3.4h-.1l-.4-.3c-.7-.5-1.5-.9-2.4-1-.7-.1-1.4.1-1.9.7s-.5 1.3 0 1.9c.2.2.4.5.7.6.1-1.3 2.1-2 3.4-1.1l-.5.8c-.3.5-.3.5.1.9.1.1.2.1.3 0 .4-.2.7-.4 1.1-.7.1-.1.2-.1.3 0 .6.7 1 1.4 1.2 2.3s.2 1.8-.3 2.6c-.3.5-.7.8-1.4.9-.8 0-1.5-.6-1.6-1.4-.1-.5 0-.9.1-1.3l.2-.9c-.5 0-.9-.2-1.2-.4h-.1v.2c.2.5.2.9.2 1.4l-.4 3.2c-.1.7-.2 1.3-.1 2 0 1 .3 1.9 1.1 2.6zm11.2-14.4c0-1.5-1.6-2-1.6-2s1.7-.3 3.1.5c.4.2.9.7.9 1.4.1 1.1-.7 1.5-1.2 1.8-2.4 1.4-5.3.7-5.3.7 3.3-.1 4.1-1.3 4.1-2.4zm-.5 3.2c4.1.2 5.2-2.2 5.2-3.1.1-2-2.7-2.7-2.7-2.7s1.2.1 2.2 1c.2.1.8.8.8 1.5.1 1.1-.6 2-1.3 2.4-3.7 2.6-7.8 0-7.8 0 1.5.5 2.7.9 3.6.9zm-7.8-7.2c.3-.5 1.3-.4 1.3-.4-1.9.9-1.1 3.1-1.1 3.1s-.9-1.6-.2-2.7zm13.1 18.2s-.3-2.3-2.1-4.6c-1.9-2.5-3.6-3.7-4.2-4.1-.2-.1-.3-.2-.3-.2s.1.1.3.2c.9.5 3.3 2.1 4.6 3.7 2 2.5 2.2 5.5 2.2 5.5s-4.2-.3-7.6-4c-1.7-1.8-2.9-5.8-4.4-7.8 0-.1 11.5 11.3 11.5 11.3zm-18.6-11.9s-.1-.9.4-1.3c1.1-.7 2.7.2 2.7.2s-2.1-.8-3.1 1.1zm2.9 8.7c-.8-1.5-.5-3.1-.5-3.1s.5 1.6 2 1.6c1.1 0 2.4-.8 2.4-4 0 0 .8 2.8-.7 5.3-.3.5-.7 1.2-1.8 1.2-.7-.1-1.2-.6-1.4-1zm-.1 2.7c-.9-1-1-2.2-1-2.2s.6 2.8 2.7 2.7c.9 0 3.3-1.1 3.1-5.2 0-1-.4-2.1-.8-3.5 0 0 2.6 4.1 0 7.8-.4.6-1.4 1.3-2.4 1.3-.8-.2-1.4-.8-1.6-.9z" fill="#eb6508" fill-rule="evenodd"/><path d="m323.1 200.8-123.7 119.2m121.4 2.2-119.2-123.6m107.6-9.5-95.9 142.5m119.2-23.3-142.5-95.8m155.5 31.6-168.6 32.6m100.6 68-32.5-168.6m102.1 83.9-171.7-1m84.5 87.3 2.7-171.8m57.6 47.6-117.9 76.6m97.2 20.7-76.5-118m107.1 73.2-137.7-28.5m54.6 83.1 28.5-137.6m50.1 97.1-128.7-56.6m36 92.6 56.6-128.7m37.2 38.9-131 51m91.1 40-51.1-131" fill="none" stroke="#ececec" stroke-miterlimit="10" stroke-width=".853"/><path d="m262.5 191.6 17.8 52.7h56.3l-47.3 32.3 18.2 52.6-45.4-32.6-48.8 32.6 18.4-52.4-47.6-32.5h60.5z" fill="#ebeae9"/><path d="m262.5 209.3 13.7 40.4 42.7.1-36.3 24.7 13.9 40.4-34.4-25.1-37.9 25.1 14-40.4-36.3-24.7 46.8-.1z" fill="#fff"/><path d="m262.5 218 11.6 34.4 36 .1-30.9 21 11.9 34.3-29-21.3-32.5 21.3 11.9-34.3-30.8-21 40.1-.1z" fill="#ebeae9"/><path d="m250.2 290.8c0-1.4-1.2-2.5-2.6-2.5h-5.6v8.7h1.2v-3.5h3.3l2.4 3.5h1.4l-2.4-3.6c1.5-.4 2.3-1.3 2.3-2.6zm-1.7 1.1c-.2.2-.5.3-.9.3h-4.4v-2.8h4.5c1 0 1.2.9 1.2 1.4 0 .4-.1.8-.4 1.1zm10.5 2.1c0 1.2-1.4 1.9-2.8 1.9-1.3 0-2.7-.6-2.7-1.9v-5.8h-1.2v5.9c0 .7.3 1.4.8 1.9.7.7 1.7 1 3 1h.1c2.7 0 4-1 4-2.9v-5.9h-1.2zm9.8-5.8h-5.6v8.7h1.2v-3.6h4.3c1.2 0 2.2-1.1 2.2-2.4 0-.7-.3-1.5-.8-2-.4-.4-.9-.7-1.3-.7zm.8 2.7c0 .4-.2.8-.4 1-.1.1-.3.2-.4.2h-4.4v-2.8h4.3c.4.1.9.8.9 1.6zm9-2.7h-5.6v8.7h1.2v-3.6h4.3c1.2 0 2.2-1.1 2.2-2.4 0-.7-.3-1.5-.8-2-.4-.4-.9-.7-1.3-.7zm.9 2.7c0 .4-.2.8-.4 1-.1.1-.3.2-.4.2h-4.4v-2.8h4.3c.4.1.9.8.9 1.6zm7.3 6.1c1.5 0 2.8-.5 3.7-1.5.8-.8 1.2-1.8 1.2-3 0-3.1-2.6-4.5-5-4.5-1.4 0-2.7.5-3.6 1.5-.8.8-1.3 1.9-1.3 3 .1 2.4 2.4 4.5 5 4.5zm-3.6-4.4c0-1.8 1.9-3.2 3.6-3.2h.1c1 0 2.1.4 2.8 1.1.6.6.9 1.3.9 2.1s-.3 1.6-.9 2.2c-.7.7-1.7 1.1-2.8 1.1-2.1 0-3.7-1.5-3.7-3.3zm-47.6.8h3v1.5c-.2.2-1.2 1-2.9 1-2.3 0-3.7-1.3-3.7-3.3 0-1.9 1.4-3.1 3.6-3.2h.1c1.7 0 3.1 1 3.1 1l.1.1.8-.9-.2-.1c-1.4-1-2.6-1.4-3.8-1.4-1.4 0-2.7.5-3.7 1.4-.8.8-1.3 1.9-1.3 3 0 2.8 1.9 4.5 5 4.5 2.7 0 4-1.6 4.1-1.7v-3h-4.2z" fill="#00295a"/><path d="m262 209.7 6.7 19.8h21.2l-17.8 12.1 6.8 19.8-17-12.3-18.4 12.3 7-19.7-17.9-12.2h22.7z" fill="#e30520"/><path d="m262 216.3 5.2 15.2h16l-13.6 9.3 5.2 15.2-12.9-9.4-14.2 9.4 5.2-15.2-13.6-9.3h17.6z" fill="#fff"/><path d="m262 219.6 4.4 12.9 13.5.1-11.6 7.8 4.5 13-10.9-8.1-12.2 8.1 4.5-13-11.6-7.8 15-.1z" fill="#e30520"/><path d="m192 273.3c0-.5.3-1.2 1.9-1.2 1.5 0 2.8.7 2.8.7l-.3-3.1c-.2.2-.5.3-.7.2-.5-.1-1.3-.2-2.2-.2-3.3 0-4.8 2-4.8 3.8 0 3.5 5.3 3.8 5.3 6.3 0 .9-.9 1.4-1.9 1.4-2.2 0-3.7-1-3.7-1l.4 3.1c.3-.1.5-.1.8-.1.7.2 1.8.4 2.9.4 3.2 0 4.9-1.7 4.9-3.8 0-4.5-5.4-4.4-5.4-6.5zm111.9-2.1v12.1h3v-13.3h-3.6s.6.3.6 1.2zm-2.7 3.2c0-2.4-2-4.4-4.4-4.4h-6.4s.5.4.5.9v12.4h2.9v-4.6h1.8l2.6 4.6h3.3l-2.8-5c1.5-.7 2.5-2.2 2.5-3.9zm-7.3-1.5h2.7c.8 0 1.5.7 1.5 1.5s-.7 1.5-1.5 1.5h-2.7zm-7.8 3.8v2.2s-1.1 1.8-2.9 1.8c-1.4 0-3.5-1.4-3.5-3.9s1.8-3.9 3.5-3.9l2.6 1.1 1.4-2.7s-1.5-1.6-4.1-1.6c-3.4 0-6.3 2.7-6.3 7 0 4.2 3.2 7 6.3 7s4.1-1.9 5.8-3.5v-4.1h-3.3s.5.2.5.6zm41.7-6.9c-3.5 0-6.3 3.1-6.3 6.9s2.8 6.9 6.3 6.9 6.3-3.1 6.3-6.9-2.8-6.9-6.3-6.9zm0 10.7c-1.7 0-3-1.6-3-3.8s1.3-3.8 3-3.8 3 1.6 3 3.8-1.4 3.8-3 3.8zm-10.9-3.4-4-7.1h-3.9s.5.3.5 1.2v12.1h2.8v-8.3l4.5 8.3h2.8v-13.3h-2.8v7.1zm-46.9 1h4v-2.9h-4v-2.3h5.2l-.7-2.9h-7.8s.5.3.5 1.2v12.2h7.7l.7-3h-5.6zm-50.8-1-4-7.1h-3.9s.5.3.5 1.2v12.1h2.8v-8.3l4.5 8.3h2.8v-13.3h-2.8v7.1zm40.9-7.1h-3.6s.5.3.5 1.2v12.1h7.7l.7-3h-5.3zm-58.7 0s.7.4.5 1.2l-3.6 12.2h2.6l.9-3.1h4.2l1 3.1h3.3l-4.3-13.4zm1.2 7.7 1.2-4.3 1.4 4.3zm27.8-7.7h-6.4s.5.3.5 1.2v12.1h2.9v-4.6h2.9c2.4 0 4.4-2 4.4-4.4.1-2.3-1.9-4.3-4.3-4.3zm-.2 6h-2.7v-3.1h2.7c.8 0 1.5.7 1.5 1.5s-.7 1.6-1.5 1.6zm19.6-6h-3.6s.5.3.5 1.2v12.1h7.7l.7-3h-5.3zm-10.7 8.1h4v-2.9h-4v-2.3h5.2l-.7-2.9h-7.8s.5.3.5 1.2v12.2h7.7l.7-3h-5.6z" fill="#00295a"/><path d="m83.3 261.2c0-38.8 12.5-74.8 33.6-104l-30.2-21.5c-25.5 35.3-40.5 78.7-40.5 125.6 0 48.1 15.8 92.5 42.5 128.3l29.7-22.2c-22-29.7-35.1-66.4-35.1-106.2z" fill="#ac9ead"/><path d="m439.1 260.5h37.1c-.3-94.5-61.6-174.6-146.6-203.1l-11.8 35.2c70.3 23.5 121 89.7 121.3 167.9z" fill="#c7b07d"/><path d="m261.2 439.1c-58.5 0-110.3-28.2-142.8-71.8l-29.7 22.2c39.2 52.6 101.8 86.6 172.5 86.6 23.3 0 45.8-3.7 66.8-10.6l-11.4-35.3c-17.4 5.8-36 8.9-55.4 8.9z" fill="#8bd2f5"/><path d="m261.2 83.4c19.8 0 38.8 3.2 56.6 9.2l11.8-35.2c-21.5-7.2-44.5-11.1-68.4-11.1-71.8 0-135.4 35.2-174.5 89.4l30.2 21.5c32.3-44.7 84.9-73.8 144.3-73.8z" fill="#ffd239"/><path d="m476.2 260.5h-37.1v.8c0 78.9-51.4 145.8-122.5 169.1l11.4 35.3c86-28.1 148.1-109 148.1-204.4.1-.3.1-.6.1-.8z" fill="#bad373"/><path d="m272.8 143.1 1.7.2" fill="none" stroke="#12100b" stroke-miterlimit="10" stroke-width="1.2795"/><path d="m277.8 143.7c52.6 7.6 95.2 50.4 100.4 105.7 6.1 64.9-41.6 122.4-106.4 128.4-57.5 5.4-109.3-31.5-124.5-85.1" fill="none" stroke="#12100b" stroke-dasharray="3.3404 3.3404" stroke-miterlimit="10" stroke-width="1.2795"/><path d="m146.8 291.1-.4-1.6" fill="none" stroke="#12100b" stroke-miterlimit="10" stroke-width="1.2795"/><circle cx="272.8" cy="143.1" fill="#171513" r="6.1"/><path d="m146.1 288.6-5.7 3.5 3.2-12.1 9.2 8.4z" fill="#171513"/><path d="m119.5 212.2c1.6-1.5 4.1-3.2 4.2-5.4.2-3.1-2.4-7.1-2.5-8.5 0 0 .3-.6.6.1 2.2 5.1 7.2 7.6 10.8 7 0 0 .5 1.3.7 1.8.9 1.1 6.6 2.4 8.3 2.6 0 0 .5.5-.1.5-3.3.1-6.3-.4-7.6-.7-.5-.1-.6.1-.2.4 1.3 1.2 3.4 2.4 7.2 4 0 0 .4.6-.3.5-3.9-.8-15-6-15.2-5.8-1.9 1.8-4.4 3.3-5.6 3.7-.2.1-.3-.2-.3-.2z" fill="#e40077"/><path d="m117 221.6c.2-.3.3-.6.2-1-.1-.6-.5-1.1-1-1.5s-1.2-.5-1.7-.4c-.4.1-.7.3-.9.5-.2.3-.3.6-.2 1 .1.5.5 1.1 1 1.5s1.2.5 1.7.4c.3-.1.7-.2.9-.5z" fill="#e40077"/><path d="m121.4 204.9c-.6-.1-1.1.1-1.5.4-.3.2-.4.5-.5.8 0 .3.1.6.3.9.3.4.8.6 1.4.7 1 .1 1.9-.5 2-1.2.1-.8-.6-1.5-1.7-1.6z" fill="#e40077"/><path d="m125.9 214.9c.1-.2 0-.5-.1-.7-.2-.4-.7-.7-1.2-.9-.9-.3-1.8 0-2 .6-.1.2 0 .5.1.7.2.4.7.7 1.2.9.9.3 1.8.1 2-.6z" fill="#e40077"/><path d="m137.1 221.2c-3.2-1.8-4.6-3-5-3.4.9.3 4.1.8 5.3.7.7-.1.4-.6.4-.6-9.8-2.6-10.2-5.4-11.3-8.2-.1-.3-.4-.2-.4-.2-.1.5.2 2.6.2 2.9.9 5.1-2.6 6.1-3.2 6.5 0 0-.1.3.4.3.6 0 2.7-.8 4.1-1.9 1.9 1.5 7.3 3.8 9.1 4.3.7.2.4-.4.4-.4z" fill="#e40077"/><path d="m115.2 232.9c2.4-2.1 4.7-6.6 5.5-8.6 5.8 3 12.8 5.3 16.5 5.7 1 .1.5-.6.5-.6-3.5-1.1-8.7-3.8-9.5-5.2 2 .3 7.1.5 11-.5.8-.2.4-.7.4-.7-16.1-1-19.5-4.3-23-7.8-1.1-1.1-2.3-2.2-3.9-3.4-.7-.5-.7.4-.7.4 5.5 5 9 10.9 2.5 20.7-.1 0 .2.4.7 0z" fill="#e40077"/><path d="m261.2 176.3c46.8 0 84.9 38.1 84.9 84.9s-38.1 84.9-84.9 84.9-84.9-38.1-84.9-84.9 38.1-84.9 84.9-84.9m0-8c-51.3 0-92.9 41.6-92.9 92.9s41.6 92.9 92.9 92.9 92.9-41.6 92.9-92.9c.1-51.3-41.5-92.9-92.9-92.9z" fill="#00295a"/><path d="m261.2 168.7c51 0 92.6 41.5 92.6 92.6s-41.5 92.6-92.6 92.6-92.6-41.5-92.6-92.6 41.6-92.6 92.6-92.6m0-8c-55.5 0-100.6 45-100.6 100.6s45 100.6 100.6 100.6c55.5 0 100.6-45 100.6-100.6s-45-100.6-100.6-100.6z" fill="#ee7900"/><path d="m261.2 161.6c54.9 0 99.6 44.7 99.6 99.6s-44.7 99.6-99.6 99.6-99.6-44.7-99.6-99.6 44.7-99.6 99.6-99.6m0-8c-59.4 0-107.6 48.2-107.6 107.6s48.2 107.6 107.6 107.6 107.6-48.2 107.6-107.6-48.1-107.6-107.6-107.6z" fill="#009c3d"/><path d="m354.3 165 1.2-8.9c.8-6.1 1.7-12.7 2.5-18.9l-27.7 7.3s.1.1.2.1l4.5 3.9.2.2 14.6-3.7c1.1-.3 1.5.1 1.4 1.2-.5 4.5-1.3 10.4-1.9 14.9 0 0 .5.4 1.3 1.1.2.2.5.4.8.7l3 2.6c-.2-.1-.2-.3-.1-.5zm.7-20.1s-.6-.5-.6-.6l-.2-.2c.1-.3.2-1.3.2-1.7 0-.7-.4-1-1.1-.9-.5.1-1.2.3-1.7.5l-.3-.3c-.4-.4-.8-.7-1.4-1.2 2.3-.6 4.5-1.1 6.7-1.7l-.9 6.6c-.1.1-.7-.5-.7-.5z" fill="#00883d"/><path d="m439.1 262.9h37.1v-2.5h-37.1z" fill="#c7b07d"/><path d="m415.4 213.3h-10.1l-3.1-9.6-3.1 9.6h-10.1l8.2 6-3.1 9.6 8.2-5.9 8.2 5.9-3.1-9.6zm-6.7 13.5-6.6-4.8-6.6 4.8 2.5-7.8-6.6-4.8h8.2l2.5-7.8 2.5 7.8h8.2l-6.6 4.8zm-15.2-12 5.3 3.9-2 6.3 5.3-3.8 5.4 3.9-2.1-6.4 5.4-3.9h-6.6l-2.1-6.3-2 6.3z" fill="#e30520"/></g><path d="m1137.2 261.2h-876l78.5-233.2" fill="none" stroke="#c7b07d" stroke-miterlimit="10"/><path d="m500.7 204.7h-3.4v-3.3h19.7c2.3 0 3.2.9 3.2 3.2v3.7h-3.4v-2.5c0-.8-.4-1.2-1.2-1.2h-11.2v13.9h13.4v3.3h-13.4v16.6h-3.7zm46.2-3.9c10.5 0 18.8 8.3 18.8 18.9 0 10.8-8.4 19.4-18.8 19.4-10.5 0-18.8-8.5-18.8-19.4 0-10.6 8.3-18.9 18.8-18.9zm0 34.8c8.3 0 15-6.9 15-15.9 0-8.7-6.7-15.4-15-15.4s-15 6.7-15 15.4c0 8.9 6.7 15.9 15 15.9zm28.3-.4h2.3c.7 0 1.2-.4 1.2-1.2v-32.6h3.4l18.9 26.4c1.3 1.8 3 4.8 3 4.8h.1s-.3-2.9-.3-4.8v-23.2c0-2.3.9-3.2 3.2-3.2h3.9v3.3h-2.3c-.7 0-1.2.4-1.2 1.2v32.6h-3.4l-18.9-26.4c-1.3-1.8-3.1-4.8-3.1-4.8s.3 2.8.3 4.8v23.2c0 2.3-.9 3.2-3.2 3.2h-3.9zm57.6-30.5h-9.2c-.7 0-1.2.3-1.2 1.2v2.5h-3.4v-3.9c0-2.3.7-3 3-3h25.1c2.3 0 3 .7 3 3v3.9h-3.4v-2.5c0-.8-.4-1.2-1.2-1.2h-9.1v33.7h-3.7v-33.7zm25.8 30.5h3.5v-30.5h-3.5v-3.3h10.6v3.3h-3.5v30.5h3.5v3.3h-10.6zm43.5-30.5h-3.4v-3.3h21.2c2.3 0 3.2.9 3.2 3.2v3.7h-3.5v-2.5c0-.8-.4-1.2-1.2-1.2h-12.6v13.5h13.9v3.3h-13.9v12.6c0 .8.4 1.2 1.2 1.2h13c.7 0 1.2-.4 1.2-1.2v-2.5h3.4v3.7c0 2.3-.9 3.2-3.2 3.2h-16c-2.3 0-3.2-.9-3.2-3.2v-30.5zm62.1 0h-9.2c-.7 0-1.2.3-1.2 1.2v2.5h-3.4v-3.9c0-2.3.7-3 3-3h25.1c2.3 0 3 .7 3 3v3.9h-3.4v-2.5c0-.8-.4-1.2-1.2-1.2h-9.1v33.7h-3.7v-33.7zm29 0h-3.4v-3.3h21.2c2.3 0 3.2.9 3.2 3.2v3.7h-3.5v-2.5c0-.8-.4-1.2-1.2-1.2h-12.6v13.5h13.9v3.3h-13.9v12.6c0 .8.4 1.2 1.2 1.2h13c.7 0 1.2-.4 1.2-1.2v-2.5h3.4v3.7c0 2.3-.9 3.2-3.2 3.2h-16c-2.3 0-3.2-.9-3.2-3.2v-30.5zm34.7 0h-3.4v-3.3h15.7c6.2 0 10.6 4.1 10.6 10.5 0 5.7-3.5 9.1-7.2 9.9v.1s.7.4 1.3 1.5l5.3 10.5c.5 1.1 1.3 1.2 2.6 1.2h.7v3.3h-1.5c-3 0-3.9-.4-5.1-2.8l-5.3-10.6c-1-1.9-1.7-2.2-3.7-2.2h-6.2v15.6h-3.7zm11.9 14.9c4.4 0 7.2-2.9 7.2-7.5s-2.7-7.4-7.1-7.4h-8.3v14.9zm25.2-14.9h-3.4v-3.3h15.7c6.2 0 10.6 4.1 10.6 10.5 0 5.7-3.5 9.1-7.2 9.9v.1s.7.4 1.3 1.5l5.3 10.5c.5 1.1 1.3 1.2 2.6 1.2h.7v3.3h-1.6c-3 0-3.9-.4-5.1-2.8l-5.3-10.6c-1-1.9-1.7-2.2-3.7-2.2h-6.2v15.6h-3.7zm11.9 14.9c4.4 0 7.2-2.9 7.2-7.5s-2.7-7.4-7.1-7.4h-8.3v14.9zm22 15.6h3.5v-30.5h-3.5v-3.3h10.6v3.3h-3.5v30.5h3.5v3.3h-10.6zm32.8-30.5h-9.2c-.7 0-1.2.3-1.2 1.2v2.5h-3.4v-3.9c0-2.3.7-3 3-3h25.1c2.3 0 3 .7 3 3v3.9h-3.4v-2.5c0-.8-.4-1.2-1.2-1.2h-9.1v33.7h-3.7zm43.3-3.9c10.5 0 18.8 8.3 18.8 18.9 0 10.8-8.4 19.4-18.8 19.4-10.5 0-18.8-8.5-18.8-19.4-.1-10.6 8.2-18.9 18.8-18.9zm0 34.8c8.3 0 15-6.9 15-15.9 0-8.7-6.7-15.4-15-15.4s-15 6.7-15 15.4c0 8.9 6.7 15.9 15 15.9zm31.7-30.9h-3.4v-3.3h15.7c6.2 0 10.6 4.1 10.6 10.5 0 5.7-3.5 9.1-7.2 9.9v.1s.7.4 1.3 1.5l5.3 10.5c.5 1.1 1.3 1.2 2.6 1.2h.7v3.3h-1.6c-3 0-3.9-.4-5.1-2.8l-5.3-10.6c-1-1.9-1.7-2.2-3.7-2.2h-6.2v15.6h-3.7zm11.9 14.9c4.4 0 7.2-2.9 7.2-7.5s-2.7-7.4-7.1-7.4h-8.3v14.9zm22 15.6h3.5v-30.5h-3.5v-3.3h10.6v3.3h-3.5v30.5h3.5v3.3h-10.6zm39.1-34.4c10.5 0 18.8 8.3 18.8 18.9 0 10.8-8.4 19.4-18.8 19.4-10.5 0-18.8-8.5-18.8-19.4 0-10.6 8.3-18.9 18.8-18.9zm0 34.8c8.3 0 15-6.9 15-15.9 0-8.7-6.7-15.4-15-15.4s-15 6.7-15 15.4c0 8.9 6.7 15.9 15 15.9z" fill="#c7b07d"/></svg>