<?xml version="1.0" encoding="utf-8"?>
<!-- Generator: Adobe Illustrator 23.0.0, SVG Export Plug-In . SVG Version: 6.00 Build 0)  -->
<svg version="1.1" id="Livello_1" xmlns="http://www.w3.org/2000/svg" xmlns:xlink="http://www.w3.org/1999/xlink" x="0px" y="0px"
	 viewBox="0 0 481.8 205.3" style="enable-background:new 0 0 481.8 205.3;" xml:space="preserve">
<style type="text/css">
	.st0{fill-rule:evenodd;clip-rule:evenodd;fill:#C0B07F;}
	.st1{fill:#C0B07F;}
</style>
<g>
	<g>
		<g>
			<path class="st0" d="M457.8,152.3c-27.3,0-54,11.2-73.4,30.7c-1.3,1.3-1.3,3.3,0,4.6c0.6,0.6,1.5,0.9,2.3,0.9
				c0.8,0,1.7-0.3,2.3-1c18.2-18.3,43.2-28.7,68.8-28.7c1.8,0,3.3-1.5,3.3-3.3C461.1,153.8,459.6,152.3,457.8,152.3z M389.7,149.3
				c-1-1.5-3-1.9-4.5-0.9c-14,9.4-25.7,21.2-35,35c-1,1.5-0.6,3.5,0.9,4.5c0.6,0.4,1.2,0.6,1.8,0.6c1.1,0,2.1-0.5,2.7-1.4
				c8.8-13.1,20-24.3,33.3-33.3C390.3,152.8,390.7,150.8,389.7,149.3z M457.8,126.1c-14.6,0-29,2.5-42.9,7.4c-1.7,0.6-2.6,2.5-2,4.2
				c0.5,1.3,1.7,2.2,3.1,2.2c0.4,0,0.7-0.1,1.1-0.2c13.2-4.7,26.9-7,40.8-7c1.8,0,3.3-1.5,3.3-3.3
				C461.1,127.5,459.6,126.1,457.8,126.1z M427.6,111.5C427.6,111.5,427.6,111.5,427.6,111.5c9.9-2.1,20-3.2,30.2-3.2
				c1.8,0,3.3-1.5,3.3-3.3c0-1.8-1.5-3.3-3.3-3.3c-9.3,0-18.5,0.8-27.6,2.5v-7c11.8-10,18.3-23.1,18.3-37c0-14.4-6.9-27.9-19.5-38
				c-1.2-1-2.9-1-4.1,0c-12.6,10.1-19.5,23.6-19.5,38c0,13.9,6.5,27,18.3,37v8.4c-6.2,1.4-12.3,3.2-18.3,5.4V91.9
				c0-0.9-0.4-1.7-0.9-2.3v0l-18.3-18.4c-0.6-0.6-1.4-1-2.3-1h-37.3c-0.9,0-1.7,0.3-2.3,1l-18.3,18.4v0c-0.6,0.6-1,1.4-1,2.3v12.5
				c-2.3-0.4-4.6-0.8-6.9-1.1V91.6c8.9-7.7,13.8-17.7,13.8-28.3c0-11.1-5.3-21.6-15-29.3c-1.2-1-2.9-1-4.1,0
				c-9.7,7.8-15,18.2-15,29.3c0,10.7,4.9,20.7,13.8,28.3v10.9c-4.8-0.4-9.6-0.7-14.4-0.7c-1.8,0-3.3,1.5-3.3,3.3
				c0,1.8,1.5,3.3,3.3,3.3c26.1,0,51.6,6.9,74.1,20c-5.4,3.7-10.5,7.7-15.4,12c-18.2-9.3-38.5-14.2-58.7-14.2
				c-1.8,0-3.3,1.5-3.3,3.3c0,1.8,1.5,3.3,3.3,3.3c18.4,0,36.8,4.3,53.6,12.4c-5,4.8-9.6,9.9-13.9,15.4c-12.7-5.3-26-8-39.7-8
				c-1.8,0-3.3,1.5-3.3,3.3c0,1.8,1.5,3.3,3.3,3.3c12.2,0,24.2,2.3,35.6,6.9c-2.3,3.1-4.4,6.4-6.4,9.7l-5,8.1
				c-0.9,1.5-0.5,3.5,1.1,4.5c0.5,0.3,1.1,0.5,1.7,0.5c1.1,0,2.2-0.6,2.8-1.6l5-8.1c2.6-4.2,5.4-8.3,8.4-12.3
				c0.1-0.1,0.2-0.3,0.3-0.4C362.2,138.2,393.3,118.8,427.6,111.5z M411.9,60.2c0-11.6,5.3-22.6,15-31.2c9.7,8.6,15,19.6,15,31.2
				c0,10.2-4.1,20-11.7,28v-25c0-1.8-1.5-3.3-3.3-3.3c-1.8,0-3.3,1.5-3.3,3.3v25C416,80.2,411.9,70.5,411.9,60.2z M314.8,57.4
				c-1.8,0-3.3,1.5-3.3,3.3v21.7c-4.7-5.6-7.3-12.2-7.3-19.1c0-8.3,3.7-16.2,10.6-22.5c6.8,6.3,10.6,14.2,10.6,22.5
				c0,6.9-2.5,13.5-7.3,19.1V60.7C318.1,58.9,316.6,57.4,314.8,57.4z M346.5,78.1l10.4,10.5H336L346.5,78.1z M350.4,111.3
				c-2.6-1-5.2-1.8-7.8-2.6v-2.5h7.8V111.3z M361.5,115.9c-1.5-0.7-3-1.4-4.6-2v-11c0-1.8-1.5-3.3-3.3-3.3h-14.4
				c-1.8,0-3.3,1.5-3.3,3.3v3.9c-1.5-0.4-3-0.8-4.6-1.1V95.1h30V115.9z M354.3,76.8h28.1l11.8,11.9h-28.1L354.3,76.8z M368,119.1
				V95.1h30.8v18.4c-5.6,2.3-11.1,5-16.4,7.9c-1.7,0.9-3.4,1.9-5,2.9C374.4,122.5,371.2,120.7,368,119.1z M426.9,54.1
				c0.9,0,1.7-0.3,2.3-1c0.6-0.6,1-1.4,1-2.3c0-0.9-0.3-1.7-1-2.3c-0.6-0.6-1.5-1-2.3-1c-0.9,0-1.7,0.3-2.3,1c-0.6,0.6-1,1.4-1,2.3
				c0,0.9,0.3,1.7,1,2.3C425.2,53.8,426.1,54.1,426.9,54.1z M398.6,140.7c-0.6,0.6-1,1.4-1,2.3c0,0.9,0.3,1.7,1,2.3
				c0.6,0.6,1.4,1,2.3,1c0.9,0,1.7-0.3,2.3-1c0.6-0.6,1-1.4,1-2.3c0-0.9-0.3-1.7-1-2.3c-0.6-0.6-1.4-1-2.3-1
				C400,139.7,399.2,140.1,398.6,140.7z"/>
		</g>
	</g>
	<g>
		<path class="st1" d="M296.9,132.7H70.8c-1.9,0-3.3-1.5-3.3-3.3c0-1.9,1.5-3.3,3.3-3.3h226.1c1.9,0,3.3,1.5,3.3,3.3
			C300.2,131.2,298.7,132.7,296.9,132.7z"/>
	</g>
	<g>
		<path class="st1" d="M296.9,108.4H70.8c-1.9,0-3.3-1.5-3.3-3.3s1.5-3.3,3.3-3.3h226.1c1.9,0,3.3,1.5,3.3,3.3
			S298.7,108.4,296.9,108.4z"/>
	</g>
	<g>
		<path class="st1" d="M36.7,60.1c-12.4,0-22.5,10.1-22.5,22.5C14.2,95,24.3,105,36.7,105c12.4,0,22.5-10.1,22.5-22.5
			C59.2,70.1,49.1,60.1,36.7,60.1L36.7,60.1z M36.7,99.4c-9.3,0-16.9-7.6-16.9-16.9c0-9.3,7.6-16.9,16.9-16.9
			c9.3,0,16.9,7.6,16.9,16.9C53.6,91.9,46,99.4,36.7,99.4L36.7,99.4z M36.7,99.4"/>
		<path class="st1" d="M36.7,74.1c-4.7,0-8.4,3.8-8.4,8.4c0,4.7,3.8,8.4,8.4,8.4c4.7,0,8.4-3.8,8.4-8.4
			C45.1,77.9,41.3,74.1,36.7,74.1L36.7,74.1z M36.7,85.4c-1.6,0-2.8-1.3-2.8-2.8c0-1.6,1.3-2.8,2.8-2.8c1.6,0,2.8,1.3,2.8,2.8
			C39.5,84.1,38.2,85.4,36.7,85.4L36.7,85.4z M36.7,85.4"/>
		<path class="st1" d="M104.6,75.6v-9.9c0-6.2-5-11.2-11.3-11.2h-5.6V40.4c0-1.6,1.3-2.8,2.8-2.8v-5.6c-4.7,0-8.4,3.8-8.4,8.4v14.1
			H69.7L63,31.9h4.7v-5.6h-45v5.6h5.6v17.9c-4.8,1.2-9.2,3.5-13,6.6l3.6,4.3c5-4.1,11.4-6.4,17.9-6.4c15.5,0,28.1,12.6,28.1,28.1V91
			h11.9C78,99,85,105,93.3,105c9.3,0,16.9-7.6,16.9-16.9C110.2,83.2,108,78.7,104.6,75.6L104.6,75.6z M33.9,48.9v-17h23.2l6.8,22.5
			h-8.5c-5.3-3.6-11.8-5.6-18.6-5.6C35.7,48.8,34.8,48.9,33.9,48.9L33.9,48.9z M61.8,60.1h31.5c3.1,0,5.6,2.5,5.6,5.6v6.6
			c-1.8-0.6-3.7-1-5.6-1H68.5C67,67.1,64.7,63.3,61.8,60.1L61.8,60.1z M70,76.9h10.8c-2.1,2.3-3.5,5.2-4.1,8.4h-6.2v-2.8
			C70.4,80.6,70.3,78.8,70,76.9L70,76.9z M93.3,99.4c-6.2,0-11.3-5-11.3-11.2c0-6.2,5-11.2,11.3-11.2c6.2,0,11.3,5,11.3,11.2
			C104.6,94.4,99.5,99.4,93.3,99.4L93.3,99.4z M93.3,99.4"/>
		<path class="st1" d="M96.1,88.2c0,1.6-1.3,2.8-2.8,2.8s-2.8-1.3-2.8-2.8c0-1.6,1.3-2.8,2.8-2.8S96.1,86.6,96.1,88.2L96.1,88.2z
			 M96.1,88.2"/>
	</g>
</g>
</svg>
